<?xml version="1.0" encoding="UTF-8" standalone="no"?>
<!-- Created with Inkscape (http://www.inkscape.org/) -->

<svg
   width="1024"
   height="324"
   viewBox="0 0 270.93333 85.725"
   version="1.1"
   id="svg448"
   inkscape:version="1.2.1 (9c6d41e, 2022-07-14)"
   sodipodi:docname="logo-colored.svg"
   xmlns:inkscape="http://www.inkscape.org/namespaces/inkscape"
   xmlns:sodipodi="http://sodipodi.sourceforge.net/DTD/sodipodi-0.dtd"
   xmlns:xlink="http://www.w3.org/1999/xlink"
   xmlns="http://www.w3.org/2000/svg"
   xmlns:svg="http://www.w3.org/2000/svg">
  <sodipodi:namedview
     id="namedview450"
     pagecolor="#505050"
     bordercolor="#ffffff"
     borderopacity="1"
     inkscape:showpageshadow="0"
     inkscape:pageopacity="0"
     inkscape:pagecheckerboard="1"
     inkscape:deskcolor="#505050"
     inkscape:document-units="mm"
     showgrid="false"
     inkscape:zoom="0.87875576"
     inkscape:cx="412.51508"
     inkscape:cy="269.13053"
     inkscape:window-width="1728"
     inkscape:window-height="991"
     inkscape:window-x="0"
     inkscape:window-y="34"
     inkscape:window-maximized="1"
     inkscape:current-layer="layer1" />
  <defs
     id="defs445">
    <linearGradient
       inkscape:collect="always"
       xlink:href="#linearGradient8639"
       id="linearGradient8641"
       x1="115.47943"
       y1="256.00061"
       x2="396.52261"
       y2="256.00061"
       gradientUnits="userSpaceOnUse"
       gradientTransform="matrix(0.20736713,0,0,0.20736713,-10.805807,-15.812781)" />
    <linearGradient
       inkscape:collect="always"
       id="linearGradient8639">
      <stop
         style="stop-color:#fd2329;stop-opacity:1;"
         offset="0"
         id="stop8635" />
      <stop
         style="stop-color:#e21159;stop-opacity:1;"
         offset="1"
         id="stop8637" />
    </linearGradient>
  </defs>
  <g
     inkscape:label="Layer 1"
     inkscape:groupmode="layer"
     id="layer1">
    <path
       id="path2"
       style="clip-rule:evenodd;fill:url(#linearGradient8641);fill-opacity:1;fill-rule:evenodd;stroke:none;stroke-width:1.10023;stroke-linecap:round;stroke-linejoin:round;stroke-dasharray:none;stroke-opacity:1"
       d="M 42.922615,8.1370156 C 35.412898,8.0259066 27.860984,10.772425 22.046275,16.40384 10.41692,27.666639 10.141519,46.202159 21.431035,57.804186 c 4.741375,4.87263 10.767245,7.74605 17.025455,8.607237 l 9.844998,-10.133068 c -1.648413,0.46618 -3.384458,0.722413 -5.182568,0.722413 -10.480956,0 -18.977573,-8.475861 -18.977573,-18.931885 0,-10.456219 8.496617,-18.932662 18.977573,-18.932662 10.480759,0 18.977575,8.476443 18.977575,18.932662 0,1.585942 -0.198625,3.124888 -0.566843,4.59707 L 71.419954,32.487196 C 70.46103,26.848682 67.83939,21.4315 63.544573,17.017922 57.899846,11.216935 50.432333,8.2481216 42.922615,8.1370156 Z m 28.491513,30.8111494 -26.636467,27.43799 26.589231,-0.0089 z"
       sodipodi:nodetypes="sssccsssscccscccc" />
    <g
       aria-label="MOCPILOT"
       id="text489"
       style="font-weight:300;font-size:94.0484px;font-family:Helvetica;-inkscape-font-specification:'Helvetica Light';text-align:center;text-anchor:middle;white-space:pre;shape-inside:url(#rect897);clip-rule:evenodd;fill:#ffffff;fill-rule:evenodd;stroke-width:0.268345;stroke-linecap:round;stroke-linejoin:round;stroke-dashoffset:128.014"
       transform="matrix(0.34509419,0,0,0.34509419,-43.773638,-98.508447)">
      <path
         d="m 393.27984,446.39893 11.8501,20.7847 18.52754,-20.12636 -1.22263,26.14546 h 21.63113 l 0.094,-69.68987 -34.89196,35.92649 -22.10137,-35.3622 -23.79425,69.12558 h 21.91328 z"
         style="font-style:italic;font-weight:900;font-family:Jost;-inkscape-font-specification:'Jost Heavy Italic'"
         id="path1097" />
      <path
         d="m 476.41852,440.28579 q 0.56429,-3.38574 2.06906,-6.30124 1.50477,-2.91551 3.76194,-5.17267 2.35121,-2.25716 5.26671,-3.47979 3.00955,-1.22263 6.48934,-1.22263 3.57384,0 5.831,1.41073 2.35121,1.31668 3.57384,3.57384 1.31667,2.25716 1.59882,5.17266 0.37619,2.9155 -0.094,6.0191 -0.56429,3.29169 -2.06906,6.30124 -1.50478,2.9155 -3.85599,5.17266 -2.25716,2.16312 -5.26671,3.47979 -2.9155,1.22263 -6.39529,1.12858 -3.38574,0 -5.73695,-1.31667 -2.35121,-1.41073 -3.66789,-3.66789 -1.31668,-2.25716 -1.69287,-5.07861 -0.28215,-2.9155 0.1881,-6.0191 z m -21.53709,0 q -1.03453,7.33577 0.56429,13.82511 1.69287,6.39529 5.64291,11.37986 4.04408,4.89052 10.15722,7.71197 6.11315,2.82145 13.91917,2.82145 7.90006,0 14.85964,-2.7274 7.05363,-2.72741 12.60249,-7.52388 5.54886,-4.89051 9.12269,-11.37985 3.57384,-6.48934 4.70242,-14.10726 1.03454,-7.33578 -0.75238,-13.63702 -1.69287,-6.39529 -5.831,-11.09771 -4.04408,-4.79647 -10.15723,-7.42983 -6.11315,-2.63335 -13.73107,-2.63335 -7.71197,0 -14.67155,2.63335 -6.86553,2.53931 -12.41439,7.24173 -5.54885,4.60837 -9.21674,11.00366 -3.66789,6.30125 -4.79647,13.91917 z"
         style="font-style:italic;font-weight:900;font-family:Jost;-inkscape-font-specification:'Jost Heavy Italic'"
         id="path1099" />
      <path
         d="m 553.91427,440.28579 q 0.65833,-3.57384 2.44525,-6.39529 1.78692,-2.82146 4.42028,-4.79647 2.63335,-1.97502 5.831,-3.00955 3.19765,-1.12858 6.67744,-1.12858 5.92505,0 9.78103,2.35121 3.95003,2.35121 6.86553,5.73695 l 3.19765,-21.25494 q -3.95003,-2.82145 -8.46436,-4.51432 -4.42027,-1.78692 -10.62747,-1.78692 -8.27626,0 -15.51798,2.53931 -7.14768,2.5393 -12.88463,7.14767 -5.64291,4.60838 -9.3108,11.00367 -3.66788,6.39529 -4.79646,14.10726 -1.12858,7.52387 0.65834,13.91916 1.88096,6.30124 6.11314,11.00366 4.23218,4.70242 10.62747,7.33578 6.39529,2.53931 14.38941,2.53931 6.39529,0 11.19176,-1.88097 4.89051,-1.78692 9.21674,-4.42028 l 3.1036,-21.16089 q -3.85599,2.9155 -8.65246,5.45481 -4.79647,2.53931 -11.19176,2.44526 -3.38574,0 -6.11314,-1.12858 -2.63336,-1.12858 -4.42028,-3.1036 -1.78692,-2.06906 -2.44526,-4.79647 -0.65833,-2.82145 -0.094,-6.20719 z"
         style="font-style:italic;font-weight:900;font-family:Jost;-inkscape-font-specification:'Jost Heavy Italic'"
         id="path1101" />
      <path
         d="M 605.64081,407.36885 594.355,473.20273 h 20.4085 l 11.28581,-65.83388 z m 17.63967,16.15332 5.21409,0.2111 c 1.44089,0.0583 2.63335,0.2508 3.57384,0.75239 1.00318,0.50159 1.72422,1.22262 2.16311,2.16311 0.43889,0.87779 0.53294,1.94367 0.28215,3.19765 -0.2508,1.31667 -0.81509,2.44525 -1.69287,3.38574 -0.81509,0.94048 -1.88097,1.66152 -3.19765,2.16311 -1.25398,0.43889 -2.63336,0.65834 -4.13813,0.65834 l -4.40919,0.26464 -2.77279,16.22129 5.48911,-0.0275 c 5.7056,-0.0627 10.72151,-0.94052 15.04774,-2.63336 4.38893,-1.75557 7.86872,-4.29487 10.43938,-7.61792 2.63335,-3.38574 4.16948,-7.49252 4.60837,-12.32034 0.43889,-4.82781 -0.1881,-8.90324 -1.88097,-12.22629 -1.63017,-3.32304 -4.29488,-5.86235 -7.99411,-7.61792 -3.63654,-1.75557 -8.21356,-2.6647 -13.73107,-2.7274 h -4.23138 z"
         style="font-style:italic;font-weight:900;font-family:Jost;-inkscape-font-specification:'Jost Heavy Italic'"
         id="path1103"
         sodipodi:nodetypes="ccccccscccccscccccsccccc" />
      <path
         d="m 666.58408,407.36885 -11.28581,65.83388 h 20.87874 l 11.28581,-65.83388 z"
         style="font-style:italic;font-weight:900;font-family:Jost;-inkscape-font-specification:'Jost Heavy Italic'"
         id="path1105" />
      <path
         d="m 699.87701,407.36885 -11.2858,65.83388 h 46.36586 l 3.1036,-17.39896 h -26.05141 l 8.27626,-48.43492 z"
         style="font-style:italic;font-weight:900;font-family:Jost;-inkscape-font-specification:'Jost Heavy Italic'"
         id="path1107" />
      <path
         d="m 761.76069,440.28579 q 0.56429,-3.38574 2.06906,-6.30124 1.50478,-2.91551 3.76194,-5.17267 2.35121,-2.25716 5.26671,-3.47979 3.00955,-1.22263 6.48934,-1.22263 3.57384,0 5.831,1.41073 2.35121,1.31668 3.57384,3.57384 1.31667,2.25716 1.59882,5.17266 0.37619,2.9155 -0.0941,6.0191 -0.56429,3.29169 -2.06906,6.30124 -1.50478,2.9155 -3.85599,5.17266 -2.25716,2.16312 -5.26671,3.47979 -2.9155,1.22263 -6.39529,1.12858 -3.38574,0 -5.73695,-1.31667 -2.35121,-1.41073 -3.66789,-3.66789 -1.31668,-2.25716 -1.69287,-5.07861 -0.28215,-2.9155 0.1881,-6.0191 z m -21.53709,0 q -1.03453,7.33577 0.56429,13.82511 1.69287,6.39529 5.64291,11.37986 4.04408,4.89052 10.15722,7.71197 6.11315,2.82145 13.91917,2.82145 7.90006,0 14.85964,-2.7274 7.05363,-2.72741 12.60249,-7.52388 5.54886,-4.89051 9.1227,-11.37985 3.57383,-6.48934 4.70242,-14.10726 1.03453,-7.33578 -0.75239,-13.63702 -1.69287,-6.39529 -5.831,-11.09771 -4.04408,-4.79647 -10.15723,-7.42983 -6.11315,-2.63335 -13.73107,-2.63335 -7.71197,0 -14.67155,2.63335 -6.86553,2.53931 -12.41439,7.24173 -5.54885,4.60837 -9.21674,11.00366 -3.66789,6.30125 -4.79647,13.91917 z"
         style="font-style:italic;font-weight:900;font-family:Jost;-inkscape-font-specification:'Jost Heavy Italic'"
         id="path1109" />
      <path
         d="m 813.76925,425.70829 h 18.33943 l -8.18221,47.49444 h 20.40851 l 8.18221,-47.49444 h 18.15134 l 3.19764,-18.33944 h -56.89928 z"
         style="font-style:italic;font-weight:900;font-family:Jost;-inkscape-font-specification:'Jost Heavy Italic'"
         id="path1111" />
    </g>
    <g
       aria-label="➊neManStudio"
       id="text2038"
       style="font-style:italic;font-weight:900;font-size:32px;font-family:Jost;-inkscape-font-specification:'Jost Heavy Italic';clip-rule:evenodd;fill:#ededed;fill-opacity:0.498615;fill-rule:evenodd;stroke-width:5.55;stroke-linecap:round;stroke-linejoin:round;stroke-dashoffset:128.014"
       transform="matrix(0.26458333,0,0,0.26458333,2.6067264,-0.0084232)">
      <path
         d="m 748.52888,279.75754 q 0,-5.5052 3.91927,-9.4427 3.9375,-3.95573 9.47916,-3.95573 5.52343,0 9.46093,3.95573 3.93749,3.9375 3.93749,9.4427 0,5.59635 -3.95572,9.53384 -3.9375,3.91927 -9.4427,3.91927 -5.52344,0 -9.46093,-3.93749 -3.9375,-3.9375 -3.9375,-9.51562 z m 15.74999,9.15103 v -18.59373 h -2.88021 q -0.61979,1.76823 -2.35156,3.0625 -1.71354,1.27604 -2.91666,1.64062 v 3.20833 q 2.69791,-0.89323 4.59374,-2.67969 v 13.36197 z"
         style="font-size:37.3333px"
         id="path381" />
      <path
         d="m 780.86223,292.68201 h -1.92 v -16.576 h 1.92 v 2.304 q 1.152,-1.216 2.368,-1.984 1.248,-0.768 2.976,-0.768 1.536,0 2.848,0.544 1.312,0.512 2.208,1.824 0.608,0.896 0.704,1.856 0.128,0.928 0.128,1.952 v 10.848 h -1.92 v -10.816 q 0,-2.24 -0.992,-3.36 -0.992,-1.12 -3.296,-1.12 -0.896,0 -1.632,0.288 -0.736,0.256 -1.344,0.704 -0.576,0.448 -0.992,1.024 -0.416,0.576 -0.64,1.216 -0.288,0.8 -0.352,1.536 -0.064,0.736 -0.064,1.6 z"
         style="font-style:normal;font-weight:300;font-family:Helvetica;-inkscape-font-specification:'Helvetica Light';text-align:center;text-anchor:middle"
         id="path383" />
      <path
         d="m 808.73423,283.24201 q 0,-1.216 -0.352,-2.272 -0.32,-1.088 -0.992,-1.856 -0.64,-0.8 -1.632,-1.248 -0.992,-0.48 -2.272,-0.48 -1.28,0 -2.272,0.48 -0.96,0.48 -1.664,1.28 -0.672,0.8 -1.088,1.856 -0.416,1.056 -0.544,2.24 z m -10.816,1.6 q 0,1.344 0.352,2.56 0.352,1.184 1.024,2.08 0.704,0.864 1.76,1.408 1.056,0.512 2.432,0.512 1.888,0 3.232,-0.992 1.344,-0.992 1.792,-2.816 h 2.144 q -0.352,1.184 -0.928,2.208 -0.576,0.992 -1.44,1.76 -0.864,0.736 -2.048,1.152 -1.184,0.416 -2.752,0.416 -1.984,0 -3.424,-0.672 -1.44,-0.672 -2.368,-1.824 -0.928,-1.184 -1.376,-2.752 -0.448,-1.6 -0.448,-3.424 0,-1.824 0.512,-3.424 0.544,-1.6 1.504,-2.784 0.992,-1.216 2.4,-1.888 1.408,-0.704 3.2,-0.704 3.424,0 5.376,2.368 1.952,2.336 1.92,6.816 z"
         style="font-style:normal;font-weight:300;font-family:Helvetica;-inkscape-font-specification:'Helvetica Light';text-align:center;text-anchor:middle"
         id="path385" />
      <path
         d="m 814.71822,292.68201 v -23.04 h 3.328 l 7.552,20.32 h 0.064 l 7.424,-20.32 h 3.296 v 23.04 h -2.176 v -20.544 h -0.064 l -7.552,20.544 h -2.048 l -7.584,-20.544 h -0.064 v 20.544 z"
         style="font-style:normal;font-weight:300;font-family:Helvetica;-inkscape-font-specification:'Helvetica Light';text-align:center;text-anchor:middle"
         id="path387" />
      <path
         d="m 852.03016,283.97801 q -1.216,0.512 -2.464,0.672 -1.248,0.16 -2.496,0.256 -2.208,0.16 -3.456,0.992 -1.216,0.832 -1.216,2.528 0,0.768 0.288,1.344 0.32,0.544 0.8,0.928 0.512,0.352 1.152,0.544 0.672,0.16 1.344,0.16 1.152,0 2.24,-0.288 1.088,-0.288 1.92,-0.864 0.864,-0.608 1.376,-1.504 0.512,-0.928 0.512,-2.176 z m -3.232,-0.96 q 0.544,-0.064 1.28,-0.192 0.768,-0.128 1.248,-0.352 0.48,-0.224 0.576,-0.736 0.128,-0.544 0.128,-0.992 0,-1.472 -0.96,-2.4 -0.928,-0.96 -3.168,-0.96 -0.992,0 -1.824,0.192 -0.832,0.16 -1.472,0.608 -0.608,0.416 -1.024,1.152 -0.384,0.704 -0.512,1.792 h -1.952 q 0.096,-1.472 0.672,-2.496 0.576,-1.056 1.472,-1.696 0.928,-0.672 2.112,-0.96 1.216,-0.32 2.56,-0.32 1.248,0 2.336,0.288 1.12,0.256 1.92,0.864 0.832,0.576 1.28,1.568 0.48,0.992 0.48,2.432 v 9.024 q 0,1.12 0.384,1.44 0.416,0.288 1.632,-0.16 v 1.504 q -0.224,0.064 -0.672,0.192 -0.416,0.128 -0.832,0.128 -0.448,0 -0.864,-0.096 -0.48,-0.064 -0.768,-0.288 -0.288,-0.256 -0.48,-0.576 -0.16,-0.352 -0.224,-0.736 -0.064,-0.416 -0.064,-0.864 -1.216,1.344 -2.784,2.048 -1.568,0.704 -3.392,0.704 -1.088,0 -2.112,-0.288 -0.992,-0.288 -1.76,-0.896 -0.768,-0.608 -1.216,-1.472 -0.448,-0.896 -0.448,-2.112 0,-4.224 5.792,-4.992 z"
         style="font-style:normal;font-weight:300;font-family:Helvetica;-inkscape-font-specification:'Helvetica Light';text-align:center;text-anchor:middle"
         id="path389" />
      <path
         d="m 860.89416,292.68201 h -1.92 v -16.576 h 1.92 v 2.304 q 1.152,-1.216 2.368,-1.984 1.248,-0.768 2.976,-0.768 1.536,0 2.848,0.544 1.312,0.512 2.208,1.824 0.608,0.896 0.704,1.856 0.128,0.928 0.128,1.952 v 10.848 h -1.92 v -10.816 q 0,-2.24 -0.992,-3.36 -0.992,-1.12 -3.296,-1.12 -0.896,0 -1.632,0.288 -0.736,0.256 -1.344,0.704 -0.576,0.448 -0.992,1.024 -0.416,0.576 -0.64,1.216 -0.288,0.8 -0.352,1.536 -0.064,0.736 -0.064,1.6 z"
         style="font-style:normal;font-weight:300;font-family:Helvetica;-inkscape-font-specification:'Helvetica Light';text-align:center;text-anchor:middle"
         id="path391" />
      <path
         d="m 877.95015,285.80201 q 0.128,1.536 0.672,2.624 0.576,1.056 1.44,1.728 0.896,0.672 2.048,0.992 1.152,0.288 2.464,0.288 1.536,0 2.656,-0.384 1.12,-0.384 1.824,-1.024 0.704,-0.672 1.024,-1.536 0.352,-0.864 0.352,-1.824 0,-1.344 -0.608,-2.176 -0.608,-0.832 -1.6,-1.344 -0.96,-0.544 -2.24,-0.864 -1.248,-0.32 -2.592,-0.608 -1.312,-0.32 -2.592,-0.736 -1.248,-0.416 -2.24,-1.12 -0.96,-0.704 -1.568,-1.792 -0.608,-1.12 -0.608,-2.816 0,-1.184 0.48,-2.304 0.512,-1.12 1.472,-1.984 0.992,-0.864 2.464,-1.376 1.472,-0.512 3.392,-0.512 1.952,0 3.392,0.544 1.472,0.544 2.432,1.504 0.96,0.928 1.44,2.176 0.48,1.248 0.48,2.656 h -2.08 q 0,-1.312 -0.48,-2.272 -0.448,-0.96 -1.248,-1.568 -0.8,-0.608 -1.824,-0.896 -1.024,-0.288 -2.112,-0.288 -1.664,0 -2.816,0.48 -1.12,0.448 -1.792,1.184 -0.672,0.736 -0.928,1.632 -0.256,0.896 -0.096,1.792 0.192,1.12 0.896,1.792 0.704,0.672 1.728,1.12 1.024,0.416 2.24,0.704 1.248,0.256 2.528,0.576 1.28,0.288 2.464,0.704 1.216,0.416 2.144,1.12 0.928,0.704 1.472,1.824 0.576,1.088 0.576,2.752 0,3.2 -2.208,4.96 -2.208,1.76 -6.208,1.76 -1.792,0 -3.328,-0.48 -1.536,-0.448 -2.656,-1.376 -1.12,-0.96 -1.76,-2.336 -0.608,-1.408 -0.608,-3.296 z"
         style="font-style:normal;font-weight:300;font-family:Helvetica;-inkscape-font-specification:'Helvetica Light';text-align:center;text-anchor:middle"
         id="path393" />
      <path
         d="m 902.14208,292.74601 q -0.352,0.064 -0.928,0.224 -0.576,0.16 -1.28,0.16 -1.44,0 -2.208,-0.704 -0.736,-0.736 -0.736,-2.592 v -12.128 h -2.336 v -1.6 h 2.336 v -4.608 h 1.92 v 4.608 h 3.104 v 1.6 h -3.104 v 11.36 q 0,0.608 0.032,1.056 0.032,0.448 0.192,0.736 0.16,0.288 0.48,0.416 0.352,0.128 0.96,0.128 0.384,0 0.768,-0.064 0.416,-0.064 0.8,-0.16 z"
         style="font-style:normal;font-weight:300;font-family:Helvetica;-inkscape-font-specification:'Helvetica Light';text-align:center;text-anchor:middle"
         id="path395" />
      <path
         d="m 916.44608,276.10601 h 1.92 v 16.576 h -1.92 v -2.304 q -0.384,0.448 -0.864,0.928 -0.48,0.48 -1.12,0.896 -0.608,0.384 -1.44,0.64 -0.832,0.288 -1.92,0.288 -1.664,0 -2.784,-0.448 -1.12,-0.48 -1.824,-1.312 -0.672,-0.832 -0.992,-1.92 -0.288,-1.12 -0.288,-2.432 v -10.912 h 1.92 v 10.88 q 0,2.144 0.992,3.296 0.992,1.12 3.264,1.12 1.184,0 2.112,-0.448 0.96,-0.48 1.6,-1.312 0.64,-0.832 0.992,-1.984 0.352,-1.152 0.352,-2.528 z"
         style="font-style:normal;font-weight:300;font-family:Helvetica;-inkscape-font-specification:'Helvetica Light';text-align:center;text-anchor:middle"
         id="path397" />
      <path
         d="m 935.80607,284.33001 q 0,-1.408 -0.384,-2.656 -0.384,-1.28 -1.12,-2.208 -0.704,-0.96 -1.76,-1.504 -1.024,-0.576 -2.336,-0.576 -1.504,0 -2.592,0.608 -1.088,0.576 -1.792,1.6 -0.704,1.024 -1.024,2.4 -0.32,1.344 -0.256,2.912 0,1.568 0.416,2.784 0.448,1.184 1.216,2.016 0.768,0.832 1.792,1.28 1.024,0.416 2.24,0.416 1.344,0 2.4,-0.544 1.056,-0.544 1.76,-1.472 0.704,-0.96 1.056,-2.24 0.384,-1.312 0.384,-2.816 z m 0,-14.688 h 1.92 v 23.04 h -1.92 v -2.912 h -0.064 q -0.416,0.832 -1.088,1.472 -0.64,0.608 -1.44,1.024 -0.768,0.416 -1.6,0.64 -0.832,0.224 -1.632,0.224 -2.016,0 -3.424,-0.672 -1.408,-0.672 -2.336,-1.824 -0.896,-1.184 -1.312,-2.784 -0.416,-1.6 -0.416,-3.424 0,-1.728 0.448,-3.328 0.448,-1.6 1.344,-2.784 0.928,-1.216 2.304,-1.92 1.408,-0.736 3.296,-0.736 1.76,0 3.36,0.8 1.632,0.768 2.56,2.304 z"
         style="font-style:normal;font-weight:300;font-family:Helvetica;-inkscape-font-specification:'Helvetica Light';text-align:center;text-anchor:middle"
         id="path399" />
      <path
         d="m 942.26996,292.68201 v -16.576 h 1.92 v 16.576 z m -0.096,-20.192 v -2.848 h 2.112 v 2.848 z"
         style="font-style:normal;font-weight:300;font-family:Helvetica;-inkscape-font-specification:'Helvetica Light';text-align:center;text-anchor:middle"
         id="path401" />
      <path
         d="m 955.6779,293.13001 q -1.6,-0.032 -3.008,-0.576 -1.376,-0.544 -2.432,-1.632 -1.024,-1.088 -1.632,-2.72 -0.608,-1.632 -0.608,-3.808 0,-1.824 0.48,-3.392 0.48,-1.6 1.44,-2.784 0.96,-1.184 2.4,-1.856 1.44,-0.704 3.36,-0.704 1.952,0 3.392,0.704 1.44,0.672 2.4,1.856 0.96,1.152 1.408,2.752 0.48,1.6 0.48,3.424 0,1.984 -0.544,3.584 -0.544,1.6 -1.568,2.752 -0.992,1.152 -2.432,1.792 -1.408,0.608 -3.136,0.608 z m 5.632,-8.736 q 0,-1.472 -0.32,-2.752 -0.32,-1.28 -0.992,-2.208 -0.672,-0.96 -1.728,-1.504 -1.056,-0.544 -2.592,-0.544 -1.504,0 -2.592,0.608 -1.056,0.576 -1.728,1.568 -0.672,0.96 -0.992,2.24 -0.32,1.248 -0.32,2.592 0,1.536 0.352,2.848 0.384,1.28 1.088,2.208 0.704,0.928 1.76,1.44 1.056,0.512 2.432,0.512 1.504,0 2.56,-0.576 1.088,-0.608 1.76,-1.6 0.672,-0.992 0.992,-2.24 0.32,-1.248 0.32,-2.592 z"
         style="font-style:normal;font-weight:300;font-family:Helvetica;-inkscape-font-specification:'Helvetica Light';text-align:center;text-anchor:middle"
         id="path403" />
    </g>
  </g>
</svg>
