<?xml version="1.0" encoding="UTF-8" standalone="no"?>
<svg width="43.3917mm" height="15.5222mm"
 viewBox="0 0 123 44"
 xmlns="http://www.w3.org/2000/svg" xmlns:xlink="http://www.w3.org/1999/xlink" version="1.2" baseProfile="tiny">
<title>Abstract block</title>
<desc>block_control_stop_other_stacks</desc>
<defs>
</defs>
<g fill="none" stroke="black" stroke-width="1" fill-rule="evenodd" stroke-linecap="square" stroke-linejoin="bevel" >

<g fill="none" stroke="#000000" stroke-opacity="1" stroke-width="1" stroke-linecap="square" stroke-linejoin="bevel" transform="matrix(1,0,0,1,0,0)"
font-family=".AppleSystemUIFont" font-size="13" font-weight="400" font-style="normal" 
>
</g>

<g fill="none" stroke="#000000" stroke-opacity="1" stroke-width="1" stroke-linecap="square" stroke-linejoin="bevel" transform="matrix(1,0,0,1,0,0)"
font-family=".AppleSystemUIFont" font-size="13" font-weight="400" font-style="normal" 
>
</g>

<g fill="#ffb515" fill-opacity="1" stroke="#d89400" stroke-opacity="1" stroke-width="1.2" stroke-linecap="square" stroke-linejoin="bevel" transform="matrix(1,0,0,1,0,0)"
font-family=".AppleSystemUIFont" font-size="13" font-weight="400" font-style="normal" 
>
<path vector-effect="none" fill-rule="evenodd" d="M0.5,4.5 L1.04612,2.48112 L2.48112,1.04612 L4.5,0.5 L9.625,0.5 L10.416,0.976563 L11.1719,1.6875 L11.998,2.67969 L13,4 L13.7559,4.66016 L14.5469,5.15625 L15.4082,5.51172 L16.375,5.75 L17.4824,5.89453 L18.7656,5.96875 L20.2598,5.99609 L22,6 L23.7402,5.99609 L25.2344,5.96875 L26.5176,5.89453 L27.625,5.75 L28.5918,5.51172 L29.4531,5.15625 L30.2441,4.66016 L31,4 L32.002,2.67969 L32.8281,1.6875 L33.584,0.976563 L34.375,0.5 L118.167,0.5 L120.186,1.04612 L121.621,2.48112 L122.167,4.5 L122.167,31.5 L121.621,33.5189 L120.186,34.9539 L118.167,35.5 L34.375,35.5 L33.584,35.9766 L32.8281,36.6875 L32.002,37.6797 L31,39 L30.2441,39.6602 L29.4531,40.1563 L28.5918,40.5117 L27.625,40.75 L26.5176,40.8945 L25.2344,40.9688 L23.7402,40.9961 L22,41 L20.2598,40.9961 L18.7656,40.9688 L17.4824,40.8945 L16.375,40.75 L15.4082,40.5117 L14.5469,40.1563 L13.7559,39.6602 L13,39 L11.998,37.6797 L11.1719,36.6875 L10.416,35.9766 L9.625,35.5 L4.5,35.5 L2.48112,34.9539 L1.04612,33.5189 L0.5,31.5 L0.5,4.5"/>
</g>

<g fill="#ffffff" fill-opacity="1" stroke="none" transform="matrix(1,0,0,1,0,0)"
font-family="Inter" font-size="11" font-weight="700" font-style="normal" 
>
<path vector-effect="none" fill-rule="nonzero" d="M17.2656,16.5391 L15.7422,16.6328 C15.7161,16.5026 15.6602,16.3848 15.5742,16.2793 C15.4883,16.1738 15.3757,16.0892 15.2363,16.0254 C15.097,15.9616 14.931,15.9297 14.7383,15.9297 C14.4805,15.9297 14.263,15.9837 14.0859,16.0918 C13.9089,16.1999 13.8203,16.3438 13.8203,16.5234 C13.8203,16.6667 13.8776,16.7878 13.9922,16.8867 C14.1068,16.9857 14.3034,17.0651 14.582,17.125 L15.668,17.3438 C16.2513,17.4635 16.6862,17.6563 16.9727,17.9219 C17.2591,18.1875 17.4023,18.5365 17.4023,18.9688 C17.4023,19.362 17.2871,19.707 17.0566,20.0039 C16.8262,20.3008 16.5111,20.5319 16.1113,20.6973 C15.7116,20.8626 15.2513,20.9453 14.7305,20.9453 C13.9362,20.9453 13.304,20.7793 12.834,20.4473 C12.3639,20.1152 12.0885,19.6628 12.0078,19.0898 L13.6445,19.0039 C13.694,19.2461 13.8138,19.4303 14.0039,19.5566 C14.194,19.6829 14.4375,19.7461 14.7344,19.7461 C15.026,19.7461 15.2611,19.6895 15.4395,19.5762 C15.6178,19.4629 15.7083,19.3164 15.7109,19.1367 C15.7083,18.9857 15.6445,18.8613 15.5195,18.7637 C15.3945,18.666 15.2018,18.5911 14.9414,18.5391 L13.9023,18.332 C13.3164,18.2148 12.8809,18.0117 12.5957,17.7227 C12.3105,17.4336 12.168,17.0651 12.168,16.6172 C12.168,16.2318 12.2728,15.8997 12.4824,15.6211 C12.6921,15.3424 12.9876,15.1276 13.3691,14.9766 C13.7507,14.8255 14.1979,14.75 14.7109,14.75 C15.4688,14.75 16.0658,14.9102 16.502,15.2305 C16.9382,15.5508 17.1927,15.987 17.2656,16.5391 M21.6367,14.8281 L21.6367,16.0781 L18.0234,16.0781 L18.0234,14.8281 L21.6367,14.8281 M18.8438,13.3906 L20.5078,13.3906 L20.5078,18.9844 C20.5078,19.138 20.5313,19.2572 20.5781,19.3418 C20.625,19.4264 20.6908,19.4857 20.7754,19.5195 C20.86,19.5534 20.9583,19.5703 21.0703,19.5703 C21.1484,19.5703 21.2266,19.5632 21.3047,19.5488 C21.3828,19.5345 21.4427,19.5234 21.4844,19.5156 L21.7461,20.7539 C21.6628,20.7799 21.5456,20.8105 21.3945,20.8457 C21.2435,20.8809 21.0599,20.9023 20.8438,20.9102 C20.4427,20.9258 20.0918,20.8724 19.791,20.75 C19.4902,20.6276 19.2565,20.4375 19.0898,20.1797 C18.9232,19.9219 18.8411,19.5964 18.8438,19.2031 L18.8438,13.3906 M25.3594,20.9453 C24.7526,20.9453 24.2285,20.8158 23.7871,20.5566 C23.3457,20.2975 23.0052,19.9355 22.7656,19.4707 C22.526,19.0059 22.4063,18.4661 22.4063,17.8516 C22.4063,17.2318 22.526,16.6895 22.7656,16.2246 C23.0052,15.7598 23.3457,15.3978 23.7871,15.1387 C24.2285,14.8796 24.7526,14.75 25.3594,14.75 C25.9661,14.75 26.4902,14.8796 26.9316,15.1387 C27.373,15.3978 27.7135,15.7598 27.9531,16.2246 C28.1927,16.6895 28.3125,17.2318 28.3125,17.8516 C28.3125,18.4661 28.1927,19.0059 27.9531,19.4707 C27.7135,19.9355 27.373,20.2975 26.9316,20.5566 C26.4902,20.8158 25.9661,20.9453 25.3594,20.9453 M25.3672,19.6563 C25.6432,19.6563 25.8737,19.5775 26.0586,19.4199 C26.2435,19.2624 26.3835,19.0469 26.4785,18.7734 C26.5736,18.5 26.6211,18.1888 26.6211,17.8398 C26.6211,17.4909 26.5736,17.1797 26.4785,16.9063 C26.3835,16.6328 26.2435,16.4167 26.0586,16.2578 C25.8737,16.099 25.6432,16.0195 25.3672,16.0195 C25.0885,16.0195 24.8548,16.099 24.666,16.2578 C24.4772,16.4167 24.3353,16.6328 24.2402,16.9063 C24.1452,17.1797 24.0977,17.4909 24.0977,17.8398 C24.0977,18.1888 24.1452,18.5 24.2402,18.7734 C24.3353,19.0469 24.4772,19.2624 24.666,19.4199 C24.8548,19.5775 25.0885,19.6563 25.3672,19.6563 M29.3984,23.0781 L29.3984,14.8281 L31.0391,14.8281 L31.0391,15.8359 L31.1133,15.8359 C31.1862,15.6745 31.2923,15.5098 31.4316,15.3418 C31.571,15.1738 31.7533,15.0332 31.9785,14.9199 C32.2038,14.8066 32.4844,14.75 32.8203,14.75 C33.2578,14.75 33.6615,14.8639 34.0313,15.0918 C34.401,15.3197 34.6966,15.6621 34.918,16.1191 C35.1393,16.5762 35.25,17.1484 35.25,17.8359 C35.25,18.5052 35.1426,19.0697 34.9277,19.5293 C34.7129,19.9889 34.4212,20.3366 34.0527,20.5723 C33.6842,20.8079 33.2721,20.9258 32.8164,20.9258 C32.4935,20.9258 32.2194,20.8724 31.9941,20.7656 C31.7689,20.6589 31.5846,20.5241 31.4414,20.3613 C31.2982,20.1986 31.1888,20.0339 31.1133,19.8672 L31.0625,19.8672 L31.0625,23.0781 L29.3984,23.0781 M31.0273,17.8281 C31.0273,18.1849 31.0768,18.4961 31.1758,18.7617 C31.2747,19.0273 31.418,19.2337 31.6055,19.3809 C31.793,19.528 32.0208,19.6016 32.2891,19.6016 C32.5599,19.6016 32.7891,19.5267 32.9766,19.377 C33.1641,19.2272 33.3066,19.0189 33.4043,18.752 C33.502,18.485 33.5508,18.1771 33.5508,17.8281 C33.5508,17.4818 33.5026,17.1771 33.4063,16.9141 C33.3099,16.651 33.168,16.4453 32.9805,16.2969 C32.793,16.1484 32.5625,16.0742 32.2891,16.0742 C32.0182,16.0742 31.7897,16.1458 31.6035,16.2891 C31.4173,16.4323 31.2747,16.6354 31.1758,16.8984 C31.0768,17.1615 31.0273,17.4714 31.0273,17.8281 M41.6094,20.9453 C41.0026,20.9453 40.4785,20.8158 40.0371,20.5566 C39.5957,20.2975 39.2552,19.9355 39.0156,19.4707 C38.776,19.0059 38.6563,18.4661 38.6563,17.8516 C38.6563,17.2318 38.776,16.6895 39.0156,16.2246 C39.2552,15.7598 39.5957,15.3978 40.0371,15.1387 C40.4785,14.8796 41.0026,14.75 41.6094,14.75 C42.2161,14.75 42.7402,14.8796 43.1816,15.1387 C43.623,15.3978 43.9635,15.7598 44.2031,16.2246 C44.4427,16.6895 44.5625,17.2318 44.5625,17.8516 C44.5625,18.4661 44.4427,19.0059 44.2031,19.4707 C43.9635,19.9355 43.623,20.2975 43.1816,20.5566 C42.7402,20.8158 42.2161,20.9453 41.6094,20.9453 M41.6172,19.6563 C41.8932,19.6563 42.1237,19.5775 42.3086,19.4199 C42.4935,19.2624 42.6335,19.0469 42.7285,18.7734 C42.8236,18.5 42.8711,18.1888 42.8711,17.8398 C42.8711,17.4909 42.8236,17.1797 42.7285,16.9063 C42.6335,16.6328 42.4935,16.4167 42.3086,16.2578 C42.1237,16.099 41.8932,16.0195 41.6172,16.0195 C41.3385,16.0195 41.1048,16.099 40.916,16.2578 C40.7272,16.4167 40.5853,16.6328 40.4902,16.9063 C40.3952,17.1797 40.3477,17.4909 40.3477,17.8398 C40.3477,18.1888 40.3952,18.5 40.4902,18.7734 C40.5853,19.0469 40.7272,19.2624 40.916,19.4199 C41.1048,19.5775 41.3385,19.6563 41.6172,19.6563 M48.8398,14.8281 L48.8398,16.0781 L45.2266,16.0781 L45.2266,14.8281 L48.8398,14.8281 M46.0469,13.3906 L47.7109,13.3906 L47.7109,18.9844 C47.7109,19.138 47.7344,19.2572 47.7813,19.3418 C47.8281,19.4264 47.8939,19.4857 47.9785,19.5195 C48.0632,19.5534 48.1615,19.5703 48.2734,19.5703 C48.3516,19.5703 48.4297,19.5632 48.5078,19.5488 C48.5859,19.5345 48.6458,19.5234 48.6875,19.5156 L48.9492,20.7539 C48.8659,20.7799 48.7487,20.8105 48.5977,20.8457 C48.4466,20.8809 48.263,20.9023 48.0469,20.9102 C47.6458,20.9258 47.2949,20.8724 46.9941,20.75 C46.6934,20.6276 46.4596,20.4375 46.293,20.1797 C46.1263,19.9219 46.0443,19.5964 46.0469,19.2031 L46.0469,13.3906 M51.7031,17.3594 L51.7031,20.8281 L50.0391,20.8281 L50.0391,12.8281 L51.6563,12.8281 L51.6563,15.8867 L51.7266,15.8867 C51.862,15.5326 52.0807,15.2546 52.3828,15.0527 C52.6849,14.8509 53.0638,14.75 53.5195,14.75 C53.9362,14.75 54.3001,14.8405 54.6113,15.0215 C54.9225,15.2025 55.1647,15.4616 55.3379,15.7988 C55.5111,16.1361 55.5964,16.5391 55.5938,17.0078 L55.5938,20.8281 L53.9297,20.8281 L53.9297,17.3047 C53.9323,16.9349 53.8392,16.6471 53.6504,16.4414 C53.4616,16.2357 53.1979,16.1328 52.8594,16.1328 C52.6328,16.1328 52.4329,16.181 52.2598,16.2773 C52.0866,16.3737 51.9512,16.5137 51.8535,16.6973 C51.7559,16.8809 51.7057,17.1016 51.7031,17.3594 M59.6328,20.9453 C59.0156,20.9453 58.485,20.8197 58.041,20.5684 C57.597,20.3171 57.2552,19.9603 57.0156,19.498 C56.776,19.0358 56.6563,18.4883 56.6563,17.8555 C56.6563,17.2383 56.776,16.6966 57.0156,16.2305 C57.2552,15.7643 57.5931,15.401 58.0293,15.1406 C58.4655,14.8802 58.9779,14.75 59.5664,14.75 C59.9622,14.75 60.3314,14.8132 60.6738,14.9395 C61.0163,15.0658 61.3158,15.2552 61.5723,15.5078 C61.8288,15.7604 62.0286,16.0775 62.1719,16.459 C62.3151,16.8405 62.3867,17.2865 62.3867,17.7969 L62.3867,18.2539 L57.3203,18.2539 L57.3203,17.2227 L60.8203,17.2227 C60.8203,16.9831 60.7682,16.7708 60.6641,16.5859 C60.5599,16.401 60.416,16.2559 60.2324,16.1504 C60.0488,16.0449 59.8359,15.9922 59.5938,15.9922 C59.3411,15.9922 59.1178,16.0501 58.9238,16.166 C58.7298,16.2819 58.5781,16.4368 58.4688,16.6309 C58.3594,16.8249 58.3034,17.0404 58.3008,17.2773 L58.3008,18.2578 C58.3008,18.5547 58.3561,18.8112 58.4668,19.0273 C58.5775,19.2435 58.7344,19.4102 58.9375,19.5273 C59.1406,19.6445 59.3815,19.7031 59.6602,19.7031 C59.8451,19.7031 60.0143,19.6771 60.168,19.625 C60.3216,19.5729 60.4531,19.4948 60.5625,19.3906 C60.6719,19.2865 60.7552,19.1589 60.8125,19.0078 L62.3516,19.1094 C62.2734,19.4792 62.1139,19.8014 61.873,20.0762 C61.6322,20.3509 61.3223,20.5645 60.9434,20.7168 C60.5645,20.8691 60.1276,20.9453 59.6328,20.9453 M63.4609,20.8281 L63.4609,14.8281 L65.0742,14.8281 L65.0742,15.875 L65.1367,15.875 C65.2461,15.5026 65.4297,15.2207 65.6875,15.0293 C65.9453,14.8379 66.2422,14.7422 66.5781,14.7422 C66.6615,14.7422 66.7513,14.7474 66.8477,14.7578 C66.944,14.7682 67.0286,14.7826 67.1016,14.8008 L67.1016,16.2773 C67.0234,16.2539 66.9154,16.2331 66.7773,16.2148 C66.6393,16.1966 66.513,16.1875 66.3984,16.1875 C66.1536,16.1875 65.9355,16.2402 65.7441,16.3457 C65.5527,16.4512 65.4017,16.5977 65.291,16.7852 C65.1803,16.9727 65.125,17.1888 65.125,17.4336 L65.125,20.8281 L63.4609,20.8281 M75.4844,16.5391 L73.9609,16.6328 C73.9349,16.5026 73.8789,16.3848 73.793,16.2793 C73.707,16.1738 73.5944,16.0892 73.4551,16.0254 C73.3158,15.9616 73.1497,15.9297 72.957,15.9297 C72.6992,15.9297 72.4818,15.9837 72.3047,16.0918 C72.1276,16.1999 72.0391,16.3438 72.0391,16.5234 C72.0391,16.6667 72.0964,16.7878 72.2109,16.8867 C72.3255,16.9857 72.5221,17.0651 72.8008,17.125 L73.8867,17.3438 C74.4701,17.4635 74.9049,17.6563 75.1914,17.9219 C75.4779,18.1875 75.6211,18.5365 75.6211,18.9688 C75.6211,19.362 75.5059,19.707 75.2754,20.0039 C75.0449,20.3008 74.7298,20.5319 74.3301,20.6973 C73.9303,20.8626 73.4701,20.9453 72.9492,20.9453 C72.1549,20.9453 71.5228,20.7793 71.0527,20.4473 C70.5827,20.1152 70.3073,19.6628 70.2266,19.0898 L71.8633,19.0039 C71.9128,19.2461 72.0326,19.4303 72.2227,19.5566 C72.4128,19.6829 72.6563,19.7461 72.9531,19.7461 C73.2448,19.7461 73.4798,19.6895 73.6582,19.5762 C73.8366,19.4629 73.9271,19.3164 73.9297,19.1367 C73.9271,18.9857 73.8633,18.8613 73.7383,18.7637 C73.6133,18.666 73.4206,18.5911 73.1602,18.5391 L72.1211,18.332 C71.5352,18.2148 71.0996,18.0117 70.8145,17.7227 C70.5293,17.4336 70.3867,17.0651 70.3867,16.6172 C70.3867,16.2318 70.4915,15.8997 70.7012,15.6211 C70.9108,15.3424 71.2064,15.1276 71.5879,14.9766 C71.9694,14.8255 72.4167,14.75 72.9297,14.75 C73.6875,14.75 74.2845,14.9102 74.7207,15.2305 C75.1569,15.5508 75.4115,15.987 75.4844,16.5391 M79.8555,14.8281 L79.8555,16.0781 L76.2422,16.0781 L76.2422,14.8281 L79.8555,14.8281 M77.0625,13.3906 L78.7266,13.3906 L78.7266,18.9844 C78.7266,19.138 78.75,19.2572 78.7969,19.3418 C78.8438,19.4264 78.9095,19.4857 78.9941,19.5195 C79.0788,19.5534 79.1771,19.5703 79.2891,19.5703 C79.3672,19.5703 79.4453,19.5632 79.5234,19.5488 C79.6016,19.5345 79.6615,19.5234 79.7031,19.5156 L79.9648,20.7539 C79.8815,20.7799 79.7643,20.8105 79.6133,20.8457 C79.4622,20.8809 79.2786,20.9023 79.0625,20.9102 C78.6615,20.9258 78.3105,20.8724 78.0098,20.75 C77.709,20.6276 77.4753,20.4375 77.3086,20.1797 C77.1419,19.9219 77.0599,19.5964 77.0625,19.2031 L77.0625,13.3906 M82.6406,20.9414 C82.2578,20.9414 81.9167,20.8743 81.6172,20.7402 C81.3177,20.6061 81.0814,20.4069 80.9082,20.1426 C80.735,19.8783 80.6484,19.5482 80.6484,19.1523 C80.6484,18.819 80.7096,18.5391 80.832,18.3125 C80.9544,18.0859 81.1211,17.9036 81.332,17.7656 C81.543,17.6276 81.7832,17.5234 82.0527,17.4531 C82.3223,17.3828 82.6055,17.3333 82.9023,17.3047 C83.2513,17.2682 83.5326,17.2337 83.7461,17.2012 C83.9596,17.1686 84.1146,17.1198 84.2109,17.0547 C84.3073,16.9896 84.3555,16.8932 84.3555,16.7656 L84.3555,16.7422 C84.3555,16.4948 84.278,16.3034 84.123,16.168 C83.9681,16.0326 83.7487,15.9648 83.4648,15.9648 C83.1654,15.9648 82.9271,16.0306 82.75,16.1621 C82.5729,16.2936 82.4557,16.4583 82.3984,16.6563 L80.8594,16.5313 C80.9375,16.1667 81.0911,15.8509 81.3203,15.584 C81.5495,15.3171 81.8457,15.1113 82.209,14.9668 C82.5723,14.8223 82.9935,14.75 83.4727,14.75 C83.806,14.75 84.1257,14.7891 84.4316,14.8672 C84.7376,14.9453 85.0098,15.0664 85.248,15.2305 C85.4863,15.3945 85.6745,15.6048 85.8125,15.8613 C85.9505,16.1178 86.0195,16.4245 86.0195,16.7813 L86.0195,20.8281 L84.4414,20.8281 L84.4414,19.9961 L84.3945,19.9961 C84.2982,20.1836 84.1693,20.3483 84.0078,20.4902 C83.8464,20.6322 83.6523,20.7428 83.4258,20.8223 C83.1992,20.9017 82.9375,20.9414 82.6406,20.9414 M83.1172,19.793 C83.362,19.793 83.5781,19.7441 83.7656,19.6465 C83.9531,19.5488 84.1003,19.4167 84.207,19.25 C84.3138,19.0833 84.3672,18.8945 84.3672,18.6836 L84.3672,18.0469 C84.3151,18.0807 84.2441,18.1113 84.1543,18.1387 C84.0645,18.166 83.9635,18.1908 83.8516,18.2129 C83.7396,18.235 83.6276,18.2546 83.5156,18.2715 C83.4036,18.2884 83.3021,18.3034 83.2109,18.3164 C83.0156,18.3451 82.8451,18.3906 82.6992,18.4531 C82.5534,18.5156 82.4401,18.5996 82.3594,18.7051 C82.2786,18.8105 82.2383,18.9414 82.2383,19.0977 C82.2383,19.3242 82.321,19.4967 82.4863,19.6152 C82.6517,19.7337 82.862,19.793 83.1172,19.793 M90.0156,20.9453 C89.401,20.9453 88.873,20.8145 88.4316,20.5527 C87.9902,20.291 87.6517,19.9271 87.416,19.4609 C87.1803,18.9948 87.0625,18.4583 87.0625,17.8516 C87.0625,17.237 87.1816,16.6973 87.4199,16.2324 C87.6582,15.7676 87.9974,15.4043 88.4375,15.1426 C88.8776,14.8809 89.401,14.75 90.0078,14.75 C90.5313,14.75 90.9896,14.8451 91.3828,15.0352 C91.776,15.2253 92.0872,15.4922 92.3164,15.8359 C92.5456,16.1797 92.6719,16.5833 92.6953,17.0469 L91.125,17.0469 C91.0807,16.7474 90.9642,16.5059 90.7754,16.3223 C90.5866,16.1387 90.3398,16.0469 90.0352,16.0469 C89.7773,16.0469 89.5527,16.1165 89.3613,16.2559 C89.1699,16.3952 89.0208,16.5977 88.9141,16.8633 C88.8073,17.1289 88.7539,17.4505 88.7539,17.8281 C88.7539,18.2109 88.8066,18.5365 88.9121,18.8047 C89.0176,19.0729 89.1667,19.2773 89.3594,19.418 C89.5521,19.5586 89.7773,19.6289 90.0352,19.6289 C90.2253,19.6289 90.3965,19.5898 90.5488,19.5117 C90.7012,19.4336 90.8275,19.3197 90.9277,19.1699 C91.028,19.0202 91.0938,18.8398 91.125,18.6289 L92.6953,18.6289 C92.6693,19.0872 92.5449,19.4902 92.3223,19.8379 C92.0996,20.1855 91.793,20.457 91.4023,20.6523 C91.0117,20.8477 90.5495,20.9453 90.0156,20.9453 M95.2656,19.1016 L95.2695,17.1055 L95.5117,17.1055 L97.4336,14.8281 L99.3438,14.8281 L96.7617,17.8438 L96.3672,17.8438 L95.2656,19.1016 M93.7578,20.8281 L93.7578,12.8281 L95.4219,12.8281 L95.4219,20.8281 L93.7578,20.8281 M97.5078,20.8281 L95.7422,18.2148 L96.8516,17.0391 L99.457,20.8281 L97.5078,20.8281 M105.141,16.5391 L103.617,16.6328 C103.591,16.5026 103.535,16.3848 103.449,16.2793 C103.363,16.1738 103.251,16.0892 103.111,16.0254 C102.972,15.9616 102.806,15.9297 102.613,15.9297 C102.355,15.9297 102.138,15.9837 101.961,16.0918 C101.784,16.1999 101.695,16.3438 101.695,16.5234 C101.695,16.6667 101.753,16.7878 101.867,16.8867 C101.982,16.9857 102.178,17.0651 102.457,17.125 L103.543,17.3438 C104.126,17.4635 104.561,17.6563 104.848,17.9219 C105.134,18.1875 105.277,18.5365 105.277,18.9688 C105.277,19.362 105.162,19.707 104.932,20.0039 C104.701,20.3008 104.386,20.5319 103.986,20.6973 C103.587,20.8626 103.126,20.9453 102.605,20.9453 C101.811,20.9453 101.179,20.7793 100.709,20.4473 C100.239,20.1152 99.9635,19.6628 99.8828,19.0898 L101.52,19.0039 C101.569,19.2461 101.689,19.4303 101.879,19.5566 C102.069,19.6829 102.313,19.7461 102.609,19.7461 C102.901,19.7461 103.136,19.6895 103.314,19.5762 C103.493,19.4629 103.583,19.3164 103.586,19.1367 C103.583,18.9857 103.52,18.8613 103.395,18.7637 C103.27,18.666 103.077,18.5911 102.816,18.5391 L101.777,18.332 C101.191,18.2148 100.756,18.0117 100.471,17.7227 C100.186,17.4336 100.043,17.0651 100.043,16.6172 C100.043,16.2318 100.148,15.8997 100.357,15.6211 C100.567,15.3424 100.863,15.1276 101.244,14.9766 C101.626,14.8255 102.073,14.75 102.586,14.75 C103.344,14.75 103.941,14.9102 104.377,15.2305 C104.813,15.5508 105.068,15.987 105.141,16.5391 "/>
</g>

<g fill="#ffffff" fill-opacity="1" stroke="none" transform="matrix(1,0,0,1,0,0)"
font-family="Inter" font-size="11" font-weight="700" font-style="normal" 
>
</g>

<g fill="#ffffff" fill-opacity="1" stroke="none" transform="matrix(1,0,0,1,0,0)"
font-family="Inter" font-size="11" font-weight="700" font-style="normal" 
>
</g>

<g fill="none" stroke="#000000" stroke-opacity="1" stroke-width="1" stroke-linecap="square" stroke-linejoin="bevel" transform="matrix(1,0,0,1,0,0)"
font-family=".AppleSystemUIFont" font-size="13" font-weight="400" font-style="normal" 
>
</g>
</g>
</svg>
