<?xml version="1.0" encoding="UTF-8" standalone="no"?>
<svg width="109.714mm" height="15.5222mm"
 viewBox="0 0 311 44"
 xmlns="http://www.w3.org/2000/svg" xmlns:xlink="http://www.w3.org/1999/xlink" version="1.2" baseProfile="tiny">
<title>Abstract block</title>
<desc>block_hubs_technicmove_motors_set_steering_rack_to</desc>
<defs>
</defs>
<g fill="none" stroke="black" stroke-width="1" fill-rule="evenodd" stroke-linecap="square" stroke-linejoin="bevel" >

<g fill="none" stroke="#000000" stroke-opacity="1" stroke-width="1" stroke-linecap="square" stroke-linejoin="bevel" transform="matrix(1,0,0,1,0,0)"
font-family=".AppleSystemUIFont" font-size="13" font-weight="400" font-style="normal" 
>
</g>

<g fill="none" stroke="#000000" stroke-opacity="1" stroke-width="1" stroke-linecap="square" stroke-linejoin="bevel" transform="matrix(1,0,0,1,0,0)"
font-family=".AppleSystemUIFont" font-size="13" font-weight="400" font-style="normal" 
>
</g>

<g fill="#0090f5" fill-opacity="1" stroke="#0070ba" stroke-opacity="1" stroke-width="1.2" stroke-linecap="square" stroke-linejoin="bevel" transform="matrix(1,0,0,1,0,0)"
font-family=".AppleSystemUIFont" font-size="13" font-weight="400" font-style="normal" 
>
<path vector-effect="none" fill-rule="evenodd" d="M0.5,4.5 L1.04612,2.48112 L2.48112,1.04612 L4.5,0.5 L9.625,0.5 L10.416,0.976563 L11.1719,1.6875 L11.998,2.67969 L13,4 L13.7559,4.66016 L14.5469,5.15625 L15.4082,5.51172 L16.375,5.75 L17.4824,5.89453 L18.7656,5.96875 L20.2598,5.99609 L22,6 L23.7402,5.99609 L25.2344,5.96875 L26.5176,5.89453 L27.625,5.75 L28.5918,5.51172 L29.4531,5.15625 L30.2441,4.66016 L31,4 L32.002,2.67969 L32.8281,1.6875 L33.584,0.976563 L34.375,0.5 L306.4,0.5 L308.419,1.04612 L309.854,2.48112 L310.4,4.5 L310.4,31.5 L309.854,33.5189 L308.419,34.9539 L306.4,35.5 L34.375,35.5 L33.584,35.9766 L32.8281,36.6875 L32.002,37.6797 L31,39 L30.2441,39.6602 L29.4531,40.1563 L28.5918,40.5117 L27.625,40.75 L26.5176,40.8945 L25.2344,40.9688 L23.7402,40.9961 L22,41 L20.2598,40.9961 L18.7656,40.9688 L17.4824,40.8945 L16.375,40.75 L15.4082,40.5117 L14.5469,40.1563 L13.7559,39.6602 L13,39 L11.998,37.6797 L11.1719,36.6875 L10.416,35.9766 L9.625,35.5 L4.5,35.5 L2.48112,34.9539 L1.04612,33.5189 L0.5,31.5 L0.5,4.5"/>
</g>

<g fill="#ffffff" fill-opacity="1" stroke="none" transform="matrix(1,0,0,1,0,0)"
font-family="Inter" font-size="11" font-weight="700" font-style="normal" 
>
<path vector-effect="none" fill-rule="nonzero" d="M152.5,16.7109 L150.977,16.8047 C150.951,16.6745 150.895,16.5566 150.809,16.4512 C150.723,16.3457 150.61,16.2611 150.471,16.1973 C150.331,16.1335 150.165,16.1016 149.973,16.1016 C149.715,16.1016 149.497,16.1556 149.32,16.2637 C149.143,16.3717 149.055,16.5156 149.055,16.6953 C149.055,16.8385 149.112,16.9596 149.227,17.0586 C149.341,17.1576 149.538,17.237 149.816,17.2969 L150.902,17.5156 C151.486,17.6354 151.921,17.8281 152.207,18.0938 C152.493,18.3594 152.637,18.7083 152.637,19.1406 C152.637,19.5339 152.521,19.8789 152.291,20.1758 C152.061,20.4727 151.745,20.7038 151.346,20.8691 C150.946,21.0345 150.486,21.1172 149.965,21.1172 C149.171,21.1172 148.538,20.9512 148.068,20.6191 C147.598,20.2871 147.323,19.8346 147.242,19.2617 L148.879,19.1758 C148.928,19.418 149.048,19.6022 149.238,19.7285 C149.428,19.8548 149.672,19.918 149.969,19.918 C150.26,19.918 150.495,19.8613 150.674,19.748 C150.852,19.6348 150.943,19.4883 150.945,19.3086 C150.943,19.1576 150.879,19.0332 150.754,18.9355 C150.629,18.8379 150.436,18.763 150.176,18.7109 L149.137,18.5039 C148.551,18.3867 148.115,18.1836 147.83,17.8945 C147.545,17.6055 147.402,17.237 147.402,16.7891 C147.402,16.4036 147.507,16.0716 147.717,15.793 C147.926,15.5143 148.222,15.2995 148.604,15.1484 C148.985,14.9974 149.432,14.9219 149.945,14.9219 C150.703,14.9219 151.3,15.082 151.736,15.4023 C152.173,15.7227 152.427,16.1589 152.5,16.7109 M156.414,21.1172 C155.797,21.1172 155.266,20.9915 154.822,20.7402 C154.378,20.4889 154.036,20.1322 153.797,19.6699 C153.557,19.2077 153.438,18.6602 153.438,18.0273 C153.438,17.4102 153.557,16.8685 153.797,16.4023 C154.036,15.9362 154.374,15.5729 154.811,15.3125 C155.247,15.0521 155.759,14.9219 156.348,14.9219 C156.743,14.9219 157.113,14.985 157.455,15.1113 C157.798,15.2376 158.097,15.4271 158.354,15.6797 C158.61,15.9323 158.81,16.2493 158.953,16.6309 C159.096,17.0124 159.168,17.4583 159.168,17.9688 L159.168,18.4258 L154.102,18.4258 L154.102,17.3945 L157.602,17.3945 C157.602,17.1549 157.549,16.9427 157.445,16.7578 C157.341,16.5729 157.197,16.4277 157.014,16.3223 C156.83,16.2168 156.617,16.1641 156.375,16.1641 C156.122,16.1641 155.899,16.222 155.705,16.3379 C155.511,16.4538 155.359,16.6087 155.25,16.8027 C155.141,16.9967 155.085,17.2122 155.082,17.4492 L155.082,18.4297 C155.082,18.7266 155.137,18.9831 155.248,19.1992 C155.359,19.4154 155.516,19.582 155.719,19.6992 C155.922,19.8164 156.163,19.875 156.441,19.875 C156.626,19.875 156.796,19.849 156.949,19.7969 C157.103,19.7448 157.234,19.6667 157.344,19.5625 C157.453,19.4583 157.536,19.3307 157.594,19.1797 L159.133,19.2813 C159.055,19.651 158.895,19.9733 158.654,20.248 C158.413,20.5228 158.104,20.7363 157.725,20.8887 C157.346,21.041 156.909,21.1172 156.414,21.1172 M163.434,15 L163.434,16.25 L159.82,16.25 L159.82,15 L163.434,15 M160.641,13.5625 L162.305,13.5625 L162.305,19.1563 C162.305,19.3099 162.328,19.429 162.375,19.5137 C162.422,19.5983 162.488,19.6576 162.572,19.6914 C162.657,19.7253 162.755,19.7422 162.867,19.7422 C162.945,19.7422 163.023,19.735 163.102,19.7207 C163.18,19.7064 163.24,19.6953 163.281,19.6875 L163.543,20.9258 C163.46,20.9518 163.342,20.9824 163.191,21.0176 C163.04,21.0527 162.857,21.0742 162.641,21.082 C162.24,21.0977 161.889,21.0443 161.588,20.9219 C161.287,20.7995 161.053,20.6094 160.887,20.3516 C160.72,20.0938 160.638,19.7682 160.641,19.375 L160.641,13.5625 M172.047,16.7109 L170.523,16.8047 C170.497,16.6745 170.441,16.5566 170.355,16.4512 C170.27,16.3457 170.157,16.2611 170.018,16.1973 C169.878,16.1335 169.712,16.1016 169.52,16.1016 C169.262,16.1016 169.044,16.1556 168.867,16.2637 C168.69,16.3717 168.602,16.5156 168.602,16.6953 C168.602,16.8385 168.659,16.9596 168.773,17.0586 C168.888,17.1576 169.085,17.237 169.363,17.2969 L170.449,17.5156 C171.033,17.6354 171.467,17.8281 171.754,18.0938 C172.04,18.3594 172.184,18.7083 172.184,19.1406 C172.184,19.5339 172.068,19.8789 171.838,20.1758 C171.607,20.4727 171.292,20.7038 170.893,20.8691 C170.493,21.0345 170.033,21.1172 169.512,21.1172 C168.717,21.1172 168.085,20.9512 167.615,20.6191 C167.145,20.2871 166.87,19.8346 166.789,19.2617 L168.426,19.1758 C168.475,19.418 168.595,19.6022 168.785,19.7285 C168.975,19.8548 169.219,19.918 169.516,19.918 C169.807,19.918 170.042,19.8613 170.221,19.748 C170.399,19.6348 170.49,19.4883 170.492,19.3086 C170.49,19.1576 170.426,19.0332 170.301,18.9355 C170.176,18.8379 169.983,18.763 169.723,18.7109 L168.684,18.5039 C168.098,18.3867 167.662,18.1836 167.377,17.8945 C167.092,17.6055 166.949,17.237 166.949,16.7891 C166.949,16.4036 167.054,16.0716 167.264,15.793 C167.473,15.5143 167.769,15.2995 168.15,15.1484 C168.532,14.9974 168.979,14.9219 169.492,14.9219 C170.25,14.9219 170.847,15.082 171.283,15.4023 C171.719,15.7227 171.974,16.1589 172.047,16.7109 M176.418,15 L176.418,16.25 L172.805,16.25 L172.805,15 L176.418,15 M173.625,13.5625 L175.289,13.5625 L175.289,19.1563 C175.289,19.3099 175.313,19.429 175.359,19.5137 C175.406,19.5983 175.472,19.6576 175.557,19.6914 C175.641,19.7253 175.74,19.7422 175.852,19.7422 C175.93,19.7422 176.008,19.735 176.086,19.7207 C176.164,19.7064 176.224,19.6953 176.266,19.6875 L176.527,20.9258 C176.444,20.9518 176.327,20.9824 176.176,21.0176 C176.025,21.0527 175.841,21.0742 175.625,21.082 C175.224,21.0977 174.873,21.0443 174.572,20.9219 C174.271,20.7995 174.038,20.6094 173.871,20.3516 C173.704,20.0938 173.622,19.7682 173.625,19.375 L173.625,13.5625 M180.164,21.1172 C179.547,21.1172 179.016,20.9915 178.572,20.7402 C178.128,20.4889 177.786,20.1322 177.547,19.6699 C177.307,19.2077 177.188,18.6602 177.188,18.0273 C177.188,17.4102 177.307,16.8685 177.547,16.4023 C177.786,15.9362 178.124,15.5729 178.561,15.3125 C178.997,15.0521 179.509,14.9219 180.098,14.9219 C180.493,14.9219 180.863,14.985 181.205,15.1113 C181.548,15.2376 181.847,15.4271 182.104,15.6797 C182.36,15.9323 182.56,16.2493 182.703,16.6309 C182.846,17.0124 182.918,17.4583 182.918,17.9688 L182.918,18.4258 L177.852,18.4258 L177.852,17.3945 L181.352,17.3945 C181.352,17.1549 181.299,16.9427 181.195,16.7578 C181.091,16.5729 180.947,16.4277 180.764,16.3223 C180.58,16.2168 180.367,16.1641 180.125,16.1641 C179.872,16.1641 179.649,16.222 179.455,16.3379 C179.261,16.4538 179.109,16.6087 179,16.8027 C178.891,16.9967 178.835,17.2122 178.832,17.4492 L178.832,18.4297 C178.832,18.7266 178.887,18.9831 178.998,19.1992 C179.109,19.4154 179.266,19.582 179.469,19.6992 C179.672,19.8164 179.913,19.875 180.191,19.875 C180.376,19.875 180.546,19.849 180.699,19.7969 C180.853,19.7448 180.984,19.6667 181.094,19.5625 C181.203,19.4583 181.286,19.3307 181.344,19.1797 L182.883,19.2813 C182.805,19.651 182.645,19.9733 182.404,20.248 C182.163,20.5228 181.854,20.7363 181.475,20.8887 C181.096,21.041 180.659,21.1172 180.164,21.1172 M186.727,21.1172 C186.109,21.1172 185.579,20.9915 185.135,20.7402 C184.691,20.4889 184.349,20.1322 184.109,19.6699 C183.87,19.2077 183.75,18.6602 183.75,18.0273 C183.75,17.4102 183.87,16.8685 184.109,16.4023 C184.349,15.9362 184.687,15.5729 185.123,15.3125 C185.559,15.0521 186.072,14.9219 186.66,14.9219 C187.056,14.9219 187.425,14.985 187.768,15.1113 C188.11,15.2376 188.41,15.4271 188.666,15.6797 C188.923,15.9323 189.122,16.2493 189.266,16.6309 C189.409,17.0124 189.48,17.4583 189.48,17.9688 L189.48,18.4258 L184.414,18.4258 L184.414,17.3945 L187.914,17.3945 C187.914,17.1549 187.862,16.9427 187.758,16.7578 C187.654,16.5729 187.51,16.4277 187.326,16.3223 C187.143,16.2168 186.93,16.1641 186.688,16.1641 C186.435,16.1641 186.212,16.222 186.018,16.3379 C185.824,16.4538 185.672,16.6087 185.563,16.8027 C185.453,16.9967 185.397,17.2122 185.395,17.4492 L185.395,18.4297 C185.395,18.7266 185.45,18.9831 185.561,19.1992 C185.671,19.4154 185.828,19.582 186.031,19.6992 C186.234,19.8164 186.475,19.875 186.754,19.875 C186.939,19.875 187.108,19.849 187.262,19.7969 C187.415,19.7448 187.547,19.6667 187.656,19.5625 C187.766,19.4583 187.849,19.3307 187.906,19.1797 L189.445,19.2813 C189.367,19.651 189.208,19.9733 188.967,20.248 C188.726,20.5228 188.416,20.7363 188.037,20.8887 C187.658,21.041 187.221,21.1172 186.727,21.1172 M190.555,21 L190.555,15 L192.168,15 L192.168,16.0469 L192.23,16.0469 C192.34,15.6745 192.523,15.3926 192.781,15.2012 C193.039,15.0098 193.336,14.9141 193.672,14.9141 C193.755,14.9141 193.845,14.9193 193.941,14.9297 C194.038,14.9401 194.122,14.9544 194.195,14.9727 L194.195,16.4492 C194.117,16.4258 194.009,16.4049 193.871,16.3867 C193.733,16.3685 193.607,16.3594 193.492,16.3594 C193.247,16.3594 193.029,16.4121 192.838,16.5176 C192.646,16.623 192.495,16.7695 192.385,16.957 C192.274,17.1445 192.219,17.3607 192.219,17.6055 L192.219,21 L190.555,21 M195.039,21 L195.039,15 L196.703,15 L196.703,21 L195.039,21 M195.875,14.2266 C195.628,14.2266 195.416,14.1439 195.24,13.9785 C195.064,13.8132 194.977,13.6146 194.977,13.3828 C194.977,13.1536 195.064,12.9564 195.24,12.791 C195.416,12.6257 195.628,12.543 195.875,12.543 C196.122,12.543 196.334,12.6257 196.51,12.791 C196.686,12.9564 196.773,13.1536 196.773,13.3828 C196.773,13.6146 196.686,13.8132 196.51,13.9785 C196.334,14.1439 196.122,14.2266 195.875,14.2266 M199.688,17.5313 L199.688,21 L198.023,21 L198.023,15 L199.609,15 L199.609,16.0586 L199.68,16.0586 C199.813,15.7096 200.035,15.4329 200.348,15.2285 C200.66,15.0241 201.039,14.9219 201.484,14.9219 C201.901,14.9219 202.264,15.013 202.574,15.1953 C202.884,15.3776 203.125,15.6374 203.297,15.9746 C203.469,16.3118 203.555,16.7135 203.555,17.1797 L203.555,21 L201.891,21 L201.891,17.4766 C201.893,17.1094 201.799,16.8223 201.609,16.6152 C201.419,16.4082 201.158,16.3047 200.824,16.3047 C200.6,16.3047 200.403,16.3529 200.232,16.4492 C200.062,16.5456 199.929,16.6855 199.834,16.8691 C199.739,17.0527 199.69,17.2734 199.688,17.5313 M207.555,23.375 C207.016,23.375 206.554,23.3014 206.17,23.1543 C205.786,23.0072 205.48,22.8073 205.254,22.5547 C205.027,22.3021 204.88,22.0182 204.813,21.7031 L206.352,21.4961 C206.398,21.6159 206.473,21.7279 206.574,21.832 C206.676,21.9362 206.811,22.0202 206.979,22.084 C207.146,22.1478 207.352,22.1797 207.594,22.1797 C207.956,22.1797 208.255,22.0918 208.49,21.916 C208.726,21.7402 208.844,21.4466 208.844,21.0352 L208.844,19.9375 L208.773,19.9375 C208.701,20.1042 208.591,20.2617 208.445,20.4102 C208.299,20.5586 208.112,20.6797 207.883,20.7734 C207.654,20.8672 207.38,20.9141 207.063,20.9141 C206.612,20.9141 206.202,20.8092 205.834,20.5996 C205.465,20.39 205.173,20.0684 204.955,19.6348 C204.738,19.2012 204.629,18.6523 204.629,17.9883 C204.629,17.3086 204.74,16.7409 204.961,16.2852 C205.182,15.8294 205.477,15.4883 205.846,15.2617 C206.214,15.0352 206.618,14.9219 207.059,14.9219 C207.395,14.9219 207.676,14.9785 207.902,15.0918 C208.129,15.2051 208.312,15.3457 208.451,15.5137 C208.59,15.6816 208.698,15.8464 208.773,16.0078 L208.836,16.0078 L208.836,15 L210.488,15 L210.488,21.0586 C210.488,21.569 210.363,21.9961 210.113,22.3398 C209.863,22.6836 209.518,22.9421 209.076,23.1152 C208.635,23.2884 208.128,23.375 207.555,23.375 M207.59,19.6641 C207.858,19.6641 208.085,19.597 208.271,19.4629 C208.458,19.3288 208.601,19.1361 208.701,18.8848 C208.801,18.6335 208.852,18.332 208.852,17.9805 C208.852,17.6289 208.802,17.3236 208.703,17.0645 C208.604,16.8053 208.461,16.6042 208.273,16.4609 C208.086,16.3177 207.858,16.2461 207.59,16.2461 C207.316,16.2461 207.086,16.3197 206.898,16.4668 C206.711,16.6139 206.569,16.8177 206.473,17.0781 C206.376,17.3385 206.328,17.6393 206.328,17.9805 C206.328,18.3268 206.377,18.6257 206.475,18.877 C206.572,19.1283 206.714,19.3223 206.9,19.459 C207.087,19.5957 207.316,19.6641 207.59,19.6641 M214.352,21 L214.352,15 L215.965,15 L215.965,16.0469 L216.027,16.0469 C216.137,15.6745 216.32,15.3926 216.578,15.2012 C216.836,15.0098 217.133,14.9141 217.469,14.9141 C217.552,14.9141 217.642,14.9193 217.738,14.9297 C217.835,14.9401 217.919,14.9544 217.992,14.9727 L217.992,16.4492 C217.914,16.4258 217.806,16.4049 217.668,16.3867 C217.53,16.3685 217.404,16.3594 217.289,16.3594 C217.044,16.3594 216.826,16.4121 216.635,16.5176 C216.443,16.623 216.292,16.7695 216.182,16.957 C216.071,17.1445 216.016,17.3607 216.016,17.6055 L216.016,21 L214.352,21 M220.375,21.1133 C219.992,21.1133 219.651,21.0462 219.352,20.9121 C219.052,20.778 218.816,20.5788 218.643,20.3145 C218.469,20.0501 218.383,19.7201 218.383,19.3242 C218.383,18.9909 218.444,18.7109 218.566,18.4844 C218.689,18.2578 218.855,18.0755 219.066,17.9375 C219.277,17.7995 219.518,17.6953 219.787,17.625 C220.057,17.5547 220.34,17.5052 220.637,17.4766 C220.986,17.4401 221.267,17.4056 221.48,17.373 C221.694,17.3405 221.849,17.2917 221.945,17.2266 C222.042,17.1615 222.09,17.0651 222.09,16.9375 L222.09,16.9141 C222.09,16.6667 222.012,16.4753 221.857,16.3398 C221.702,16.2044 221.483,16.1367 221.199,16.1367 C220.9,16.1367 220.661,16.2025 220.484,16.334 C220.307,16.4655 220.19,16.6302 220.133,16.8281 L218.594,16.7031 C218.672,16.3385 218.826,16.0228 219.055,15.7559 C219.284,15.4889 219.58,15.2832 219.943,15.1387 C220.307,14.9941 220.728,14.9219 221.207,14.9219 C221.54,14.9219 221.86,14.9609 222.166,15.0391 C222.472,15.1172 222.744,15.2383 222.982,15.4023 C223.221,15.5664 223.409,15.7767 223.547,16.0332 C223.685,16.2897 223.754,16.5964 223.754,16.9531 L223.754,21 L222.176,21 L222.176,20.168 L222.129,20.168 C222.033,20.3555 221.904,20.5202 221.742,20.6621 C221.581,20.804 221.387,20.9147 221.16,20.9941 C220.934,21.0736 220.672,21.1133 220.375,21.1133 M220.852,19.9648 C221.096,19.9648 221.313,19.916 221.5,19.8184 C221.688,19.7207 221.835,19.5885 221.941,19.4219 C222.048,19.2552 222.102,19.0664 222.102,18.8555 L222.102,18.2188 C222.049,18.2526 221.979,18.2832 221.889,18.3105 C221.799,18.3379 221.698,18.3626 221.586,18.3848 C221.474,18.4069 221.362,18.4264 221.25,18.4434 C221.138,18.4603 221.036,18.4753 220.945,18.4883 C220.75,18.5169 220.579,18.5625 220.434,18.625 C220.288,18.6875 220.174,18.7715 220.094,18.877 C220.013,18.9824 219.973,19.1133 219.973,19.2695 C219.973,19.4961 220.055,19.6686 220.221,19.7871 C220.386,19.9056 220.596,19.9648 220.852,19.9648 M227.75,21.1172 C227.135,21.1172 226.607,20.9863 226.166,20.7246 C225.725,20.4629 225.386,20.099 225.15,19.6328 C224.915,19.1667 224.797,18.6302 224.797,18.0234 C224.797,17.4089 224.916,16.8691 225.154,16.4043 C225.393,15.9395 225.732,15.5762 226.172,15.3145 C226.612,15.0527 227.135,14.9219 227.742,14.9219 C228.266,14.9219 228.724,15.0169 229.117,15.207 C229.51,15.3971 229.822,15.6641 230.051,16.0078 C230.28,16.3516 230.406,16.7552 230.43,17.2188 L228.859,17.2188 C228.815,16.9193 228.699,16.6777 228.51,16.4941 C228.321,16.3105 228.074,16.2188 227.77,16.2188 C227.512,16.2188 227.287,16.2884 227.096,16.4277 C226.904,16.5671 226.755,16.7695 226.648,17.0352 C226.542,17.3008 226.488,17.6224 226.488,18 C226.488,18.3828 226.541,18.7083 226.646,18.9766 C226.752,19.2448 226.901,19.4492 227.094,19.5898 C227.286,19.7305 227.512,19.8008 227.77,19.8008 C227.96,19.8008 228.131,19.7617 228.283,19.6836 C228.436,19.6055 228.562,19.4915 228.662,19.3418 C228.762,19.1921 228.828,19.0117 228.859,18.8008 L230.43,18.8008 C230.404,19.2591 230.279,19.6621 230.057,20.0098 C229.834,20.3574 229.527,20.6289 229.137,20.8242 C228.746,21.0195 228.284,21.1172 227.75,21.1172 M233,19.2734 L233.004,17.2773 L233.246,17.2773 L235.168,15 L237.078,15 L234.496,18.0156 L234.102,18.0156 L233,19.2734 M231.492,21 L231.492,13 L233.156,13 L233.156,21 L231.492,21 M235.242,21 L233.477,18.3867 L234.586,17.2109 L237.191,21 L235.242,21 M243.621,15 L243.621,16.25 L240.008,16.25 L240.008,15 L243.621,15 M240.828,13.5625 L242.492,13.5625 L242.492,19.1563 C242.492,19.3099 242.516,19.429 242.563,19.5137 C242.609,19.5983 242.675,19.6576 242.76,19.6914 C242.844,19.7253 242.943,19.7422 243.055,19.7422 C243.133,19.7422 243.211,19.735 243.289,19.7207 C243.367,19.7064 243.427,19.6953 243.469,19.6875 L243.73,20.9258 C243.647,20.9518 243.53,20.9824 243.379,21.0176 C243.228,21.0527 243.044,21.0742 242.828,21.082 C242.427,21.0977 242.076,21.0443 241.775,20.9219 C241.475,20.7995 241.241,20.6094 241.074,20.3516 C240.908,20.0938 240.826,19.7682 240.828,19.375 L240.828,13.5625 M247.344,21.1172 C246.737,21.1172 246.213,20.9876 245.771,20.7285 C245.33,20.4694 244.99,20.1074 244.75,19.6426 C244.51,19.1777 244.391,18.638 244.391,18.0234 C244.391,17.4036 244.51,16.8613 244.75,16.3965 C244.99,15.9316 245.33,15.5697 245.771,15.3105 C246.213,15.0514 246.737,14.9219 247.344,14.9219 C247.951,14.9219 248.475,15.0514 248.916,15.3105 C249.357,15.5697 249.698,15.9316 249.938,16.3965 C250.177,16.8613 250.297,17.4036 250.297,18.0234 C250.297,18.638 250.177,19.1777 249.938,19.6426 C249.698,20.1074 249.357,20.4694 248.916,20.7285 C248.475,20.9876 247.951,21.1172 247.344,21.1172 M247.352,19.8281 C247.628,19.8281 247.858,19.7493 248.043,19.5918 C248.228,19.4342 248.368,19.2188 248.463,18.9453 C248.558,18.6719 248.605,18.3607 248.605,18.0117 C248.605,17.6628 248.558,17.3516 248.463,17.0781 C248.368,16.8047 248.228,16.5885 248.043,16.4297 C247.858,16.2708 247.628,16.1914 247.352,16.1914 C247.073,16.1914 246.839,16.2708 246.65,16.4297 C246.462,16.5885 246.32,16.8047 246.225,17.0781 C246.13,17.3516 246.082,17.6628 246.082,18.0117 C246.082,18.3607 246.13,18.6719 246.225,18.9453 C246.32,19.2188 246.462,19.4342 246.65,19.5918 C246.839,19.7493 247.073,19.8281 247.352,19.8281 "/>
</g>

<g fill="#ffffff" fill-opacity="1" stroke="none" transform="matrix(1,0,0,1,0,0)"
font-family="Inter" font-size="11" font-weight="700" font-style="normal" 
>
<path vector-effect="none" fill-rule="nonzero" d="M293.652,20.3594 L293.652,19.9375 C293.652,19.6172 293.721,19.3223 293.857,19.0527 C293.994,18.7832 294.193,18.5671 294.455,18.4043 C294.717,18.2415 295.036,18.1602 295.414,18.1602 C295.797,18.1602 296.119,18.2409 296.381,18.4023 C296.643,18.5638 296.84,18.7793 296.975,19.0488 C297.109,19.3184 297.176,19.6146 297.176,19.9375 L297.176,20.3594 C297.176,20.6797 297.108,20.9746 296.973,21.2441 C296.837,21.5137 296.638,21.7298 296.375,21.8926 C296.112,22.0553 295.792,22.1367 295.414,22.1367 C295.031,22.1367 294.71,22.0553 294.449,21.8926 C294.189,21.7298 293.991,21.5137 293.855,21.2441 C293.72,20.9746 293.652,20.6797 293.652,20.3594 M294.789,19.9375 L294.789,20.3594 C294.789,20.5443 294.834,20.7188 294.924,20.8828 C295.014,21.0469 295.177,21.1289 295.414,21.1289 C295.651,21.1289 295.813,21.0482 295.9,20.8867 C295.988,20.7253 296.031,20.5495 296.031,20.3594 L296.031,19.9375 C296.031,19.7474 295.99,19.5703 295.906,19.4063 C295.823,19.2422 295.659,19.1602 295.414,19.1602 C295.18,19.1602 295.017,19.2422 294.926,19.4063 C294.835,19.5703 294.789,19.7474 294.789,19.9375 M289.547,15.7813 L289.547,15.3594 C289.547,15.0365 289.616,14.7402 289.754,14.4707 C289.892,14.2012 290.092,13.9857 290.354,13.8242 C290.615,13.6628 290.932,13.582 291.305,13.582 C291.69,13.582 292.013,13.6628 292.273,13.8242 C292.534,13.9857 292.732,14.2012 292.867,14.4707 C293.003,14.7402 293.07,15.0365 293.07,15.3594 L293.07,15.7813 C293.07,16.1042 293.002,16.3997 292.865,16.668 C292.729,16.9362 292.529,17.1504 292.268,17.3105 C292.006,17.4707 291.685,17.5508 291.305,17.5508 C290.924,17.5508 290.604,17.4694 290.342,17.3066 C290.08,17.1439 289.882,16.929 289.748,16.6621 C289.614,16.3952 289.547,16.1016 289.547,15.7813 M290.691,15.3594 L290.691,15.7813 C290.691,15.9714 290.736,16.1471 290.826,16.3086 C290.916,16.4701 291.076,16.5508 291.305,16.5508 C291.544,16.5508 291.708,16.4701 291.795,16.3086 C291.882,16.1471 291.926,15.9714 291.926,15.7813 L291.926,15.3594 C291.926,15.1693 291.884,14.9922 291.801,14.8281 C291.717,14.6641 291.552,14.582 291.305,14.582 C291.073,14.582 290.913,14.6654 290.824,14.832 C290.736,14.9987 290.691,15.1745 290.691,15.3594 M290.063,21.8594 L295.563,13.8594 L296.586,13.8594 L291.086,21.8594 L290.063,21.8594"/>
</g>

<g fill="#ffffff" fill-opacity="1" stroke="none" transform="matrix(0.0285,0,0,0.0285,11.2928,9.44754)"
font-family="Inter" font-size="11" font-weight="700" font-style="normal" 
>
<path vector-effect="none" fill-rule="nonzero" d="M410.778,59.991 C376.729,59.991 346.629,75.6235 326.182,99.684 C216.768,129.689 131.433,215.271 101.927,324.891 C79.5232,345.494 65.3275,374.762 65.54,407.6 C65.7463,439.573 79.3407,468.172 100.975,488.421 C130.228,601.34 218.744,689.335 331.859,718.096 C331.956,718.125 331.989,718.313 332.085,718.338 C352.242,738.376 380.064,750.708 410.778,750.708 C441.492,750.708 469.314,738.376 489.47,718.338 C489.549,718.262 489.618,718.17 489.696,718.096 C604.323,688.948 693.738,598.994 721.758,483.921 C742.939,463.42 756.216,434.907 756.015,403.1 C755.801,370.079 741.086,340.899 718.209,320.633 C687.622,213.077 603.338,129.291 495.373,99.684 C474.926,75.6235 444.827,59.991 410.778,59.991 M410.778,91.8938 C455.052,91.8938 490.89,127.731 490.89,172.006 C490.89,216.28 455.052,252.102 410.778,252.102 C366.503,252.102 330.666,216.28 330.666,172.006 C330.666,127.731 366.503,91.8938 410.778,91.8938 M177.071,325.601 C221.346,325.601 257.183,361.438 257.183,405.713 C257.183,449.987 221.346,485.808 177.071,485.808 C132.796,485.808 96.7332,449.987 96.7332,405.713 C96.7332,361.438 132.796,325.601 177.071,325.601 M644.485,325.601 C688.763,325.601 724.822,361.438 724.822,405.713 C724.822,449.987 688.763,485.808 644.485,485.808 C600.21,485.808 564.373,449.987 564.373,405.713 C564.373,361.438 600.21,325.601 644.485,325.601 M396.601,335.762 L424.955,335.762 C431.754,335.762 437.245,342.538 437.245,350.891 L437.245,381.6 L467.971,381.6 C476.323,381.6 483.083,387.091 483.083,393.89 L483.083,422.245 C483.083,429.044 476.323,434.535 467.971,434.535 L437.245,434.535 L437.245,465.26 C437.245,473.612 431.754,480.373 424.955,480.373 L396.601,480.373 C389.801,480.373 384.31,473.613 384.31,465.26 L384.31,434.535 L353.585,434.535 C345.233,434.535 338.472,429.044 338.472,422.245 L338.472,393.89 C338.472,387.091 345.232,381.6 353.585,381.6 L384.31,381.6 L384.31,350.891 C384.31,342.539 389.801,335.762 396.601,335.762 M410.778,559.307 C455.052,559.307 490.89,595.371 490.89,639.645 C490.89,683.918 455.052,719.757 410.778,719.757 C366.503,719.757 330.666,683.918 330.666,639.645 C330.666,595.371 366.503,559.307 410.778,559.307 "/>
</g>

<g fill="none" stroke="#000000" stroke-opacity="1" stroke-width="22.7975" stroke-linecap="round" stroke-linejoin="round" transform="matrix(0.0285,0,0,0.0285,11.2928,9.44754)"
font-family="Inter" font-size="11" font-weight="700" font-style="normal" 
>
<path vector-effect="none" fill-rule="nonzero" d="M410.778,59.991 C376.729,59.991 346.629,75.6235 326.182,99.684 C216.768,129.689 131.433,215.271 101.927,324.891 C79.5232,345.494 65.3275,374.762 65.54,407.6 C65.7463,439.573 79.3407,468.172 100.975,488.421 C130.228,601.34 218.744,689.335 331.859,718.096 C331.956,718.125 331.989,718.313 332.085,718.338 C352.242,738.376 380.064,750.708 410.778,750.708 C441.492,750.708 469.314,738.376 489.47,718.338 C489.549,718.262 489.618,718.17 489.696,718.096 C604.323,688.948 693.738,598.994 721.758,483.921 C742.939,463.42 756.216,434.907 756.015,403.1 C755.801,370.079 741.086,340.899 718.209,320.633 C687.622,213.077 603.338,129.291 495.373,99.684 C474.926,75.6235 444.827,59.991 410.778,59.991 M410.778,91.8938 C455.052,91.8938 490.89,127.731 490.89,172.006 C490.89,216.28 455.052,252.102 410.778,252.102 C366.503,252.102 330.666,216.28 330.666,172.006 C330.666,127.731 366.503,91.8938 410.778,91.8938 M177.071,325.601 C221.346,325.601 257.183,361.438 257.183,405.713 C257.183,449.987 221.346,485.808 177.071,485.808 C132.796,485.808 96.7332,449.987 96.7332,405.713 C96.7332,361.438 132.796,325.601 177.071,325.601 M644.485,325.601 C688.763,325.601 724.822,361.438 724.822,405.713 C724.822,449.987 688.763,485.808 644.485,485.808 C600.21,485.808 564.373,449.987 564.373,405.713 C564.373,361.438 600.21,325.601 644.485,325.601 M396.601,335.762 L424.955,335.762 C431.754,335.762 437.245,342.538 437.245,350.891 L437.245,381.6 L467.971,381.6 C476.323,381.6 483.083,387.091 483.083,393.89 L483.083,422.245 C483.083,429.044 476.323,434.535 467.971,434.535 L437.245,434.535 L437.245,465.26 C437.245,473.612 431.754,480.373 424.955,480.373 L396.601,480.373 C389.801,480.373 384.31,473.613 384.31,465.26 L384.31,434.535 L353.585,434.535 C345.233,434.535 338.472,429.044 338.472,422.245 L338.472,393.89 C338.472,387.091 345.232,381.6 353.585,381.6 L384.31,381.6 L384.31,350.891 C384.31,342.539 389.801,335.762 396.601,335.762 M410.778,559.307 C455.052,559.307 490.89,595.371 490.89,639.645 C490.89,683.918 455.052,719.757 410.778,719.757 C366.503,719.757 330.666,683.918 330.666,639.645 C330.666,595.371 366.503,559.307 410.778,559.307 "/>
</g>

<g fill="#000000" fill-opacity="1" stroke="none" transform="matrix(0.0285,0,0,0.0285,11.2928,9.44754)"
font-family="Inter" font-size="11" font-weight="700" font-style="normal" 
>
<path vector-effect="none" fill-rule="evenodd" d="M394.961,355.661 C394.961,347.613 401.485,341.088 409.533,341.088 C417.582,341.088 424.106,347.613 424.106,355.661 L424.106,457.48 C424.106,465.528 417.582,472.053 409.533,472.053 C401.485,472.053 394.961,465.528 394.961,457.48 L394.961,355.661"/>
</g>

<g fill="none" stroke="#000000" stroke-opacity="1" stroke-width="20" stroke-linecap="round" stroke-linejoin="round" transform="matrix(0.0285,0,0,0.0285,11.2928,9.44754)"
font-family="Inter" font-size="11" font-weight="700" font-style="normal" 
>
<path vector-effect="none" fill-rule="evenodd" d="M394.961,355.661 C394.961,347.613 401.485,341.088 409.533,341.088 C417.582,341.088 424.106,347.613 424.106,355.661 L424.106,457.48 C424.106,465.528 417.582,472.053 409.533,472.053 C401.485,472.053 394.961,465.528 394.961,457.48 L394.961,355.661"/>
</g>

<g fill="#000000" fill-opacity="1" stroke="none" transform="matrix(0,0.0285,-0.0285,0,11.2928,9.44754)"
font-family="Inter" font-size="11" font-weight="700" font-style="normal" 
>
<path vector-effect="none" fill-rule="evenodd" d="M394.152,-461.016 C394.152,-469.064 400.676,-475.588 408.724,-475.588 C416.773,-475.588 423.297,-469.064 423.297,-461.016 L423.297,-359.196 C423.297,-351.148 416.773,-344.624 408.724,-344.624 C400.676,-344.624 394.152,-351.148 394.152,-359.196 L394.152,-461.016"/>
</g>

<g fill="none" stroke="#000000" stroke-opacity="1" stroke-width="20" stroke-linecap="round" stroke-linejoin="round" transform="matrix(0,0.0285,-0.0285,0,11.2928,9.44754)"
font-family="Inter" font-size="11" font-weight="700" font-style="normal" 
>
<path vector-effect="none" fill-rule="evenodd" d="M394.152,-461.016 C394.152,-469.064 400.676,-475.588 408.724,-475.588 C416.773,-475.588 423.297,-469.064 423.297,-461.016 L423.297,-359.196 C423.297,-351.148 416.773,-344.624 408.724,-344.624 C400.676,-344.624 394.152,-351.148 394.152,-359.196 L394.152,-461.016"/>
</g>

<g fill="#ffffff" fill-opacity="1" stroke="none" transform="matrix(1,0,0,1,0,0)"
font-family="Inter" font-size="11" font-weight="700" font-style="normal" 
>
</g>

<g fill="#ffffff" fill-opacity="1" stroke="#0070ba" stroke-opacity="1" stroke-width="1" stroke-linecap="square" stroke-linejoin="bevel" transform="matrix(1,0,0,1,0,0)"
font-family="Inter" font-size="11" font-weight="700" font-style="normal" 
>
<polyline fill="none" vector-effect="none" points="45,11 45,31 " />
</g>

<g fill="#ffffff" fill-opacity="1" stroke="#0070ba" stroke-opacity="1" stroke-width="1" stroke-linecap="square" stroke-linejoin="bevel" transform="matrix(1,0,0,1,0,0)"
font-family="Inter" font-size="11" font-weight="700" font-style="normal" 
>
</g>

<g fill="#ffffff" fill-opacity="1" stroke="#0070ba" stroke-opacity="1" stroke-width="1" stroke-linecap="square" stroke-linejoin="bevel" transform="matrix(1,0,0,1,0,0)"
font-family="Inter" font-size="11" font-weight="700" font-style="normal" 
>
</g>

<g fill="#ffffff" fill-opacity="1" stroke="#0064a6" stroke-opacity="1" stroke-width="1.2" stroke-linecap="square" stroke-linejoin="bevel" transform="matrix(1,0,0,1,257,7)"
font-family="Inter" font-size="11" font-weight="700" font-style="normal" 
>
<path vector-effect="none" fill-rule="evenodd" d="M1,11 C1,5.47715 5.92487,1 12,1 L14.4,1 C20.4751,1 25.4,5.47715 25.4,11 C25.4,16.5228 20.4751,21 14.4,21 L12,21 C5.92487,21 1,16.5228 1,11 "/>
</g>

<g fill="#000000" fill-opacity="1" stroke="none" transform="matrix(1,0,0,1,257,7)"
font-family="Inter" font-size="10" font-weight="700" font-style="normal" 
>
<path vector-effect="none" fill-rule="nonzero" d="M12.9411,14.5817 C12.3303,14.5793 11.8053,14.429 11.3661,14.1307 C10.927,13.8324 10.5896,13.4003 10.354,12.8345 C10.1185,12.2687 10.0019,11.5881 10.0043,10.7926 C10.0043,9.99953 10.122,9.32363 10.3576,8.76491 C10.5932,8.2062 10.9305,7.78066 11.3697,7.48828 C11.8088,7.1959 12.3326,7.04972 12.9411,7.04972 C13.5495,7.04972 14.0733,7.1965 14.5124,7.49006 C14.9516,7.78362 15.2895,8.20916 15.5263,8.76669 C15.763,9.32422 15.8802,9.99953 15.8778,10.7926 C15.8778,11.5904 15.7601,12.2723 15.5245,12.8381 C15.2889,13.4039 14.9522,13.8359 14.5142,14.1342 C14.0762,14.4325 13.5518,14.5817 12.9411,14.5817 M12.9411,13.3068 C13.3577,13.3068 13.6903,13.0973 13.9389,12.6783 C14.1875,12.2592 14.3106,11.6307 14.3082,10.7926 C14.3082,10.241 14.252,9.78172 14.1396,9.41477 C14.0271,9.04782 13.8685,8.77202 13.6637,8.58736 C13.4589,8.4027 13.218,8.31037 12.9411,8.31037 C12.5268,8.31037 12.1953,8.51752 11.9467,8.93182 C11.6982,9.34612 11.5727,9.96638 11.5703,10.7926 C11.5703,11.3513 11.6265,11.8171 11.739,12.19 C11.8514,12.5629 12.0107,12.8422 12.2166,13.0281 C12.4226,13.2139 12.6641,13.3068 12.9411,13.3068 "/>
</g>

<g fill="#ffffff" fill-opacity="1" stroke="#0070ba" stroke-opacity="1" stroke-width="1" stroke-linecap="square" stroke-linejoin="bevel" transform="matrix(1,0,0,1,0,0)"
font-family="Inter" font-size="11" font-weight="700" font-style="normal" 
>
</g>

<g fill="#ffffff" fill-opacity="1" stroke="#0070ba" stroke-opacity="1" stroke-width="1" stroke-linecap="square" stroke-linejoin="bevel" transform="matrix(1,0,0,1,0,0)"
font-family="Inter" font-size="11" font-weight="700" font-style="normal" 
>
</g>

<g fill="#0090f5" fill-opacity="1" stroke="#0070ba" stroke-opacity="1" stroke-width="1.2" stroke-linecap="square" stroke-linejoin="bevel" transform="matrix(1,0,0,1,56,6)"
font-family="Inter" font-size="11" font-weight="700" font-style="normal" 
>
<path vector-effect="none" fill-rule="evenodd" d="M0.5,3.5 C0.5,1.84315 1.84315,0.5 3.5,0.5 L81.5,0.5 C83.1569,0.5 84.5,1.84315 84.5,3.5 L84.5,20.5 C84.5,22.1569 83.1569,23.5 81.5,23.5 L3.5,23.5 C1.84315,23.5 0.5,22.1569 0.5,20.5 L0.5,3.5"/>
</g>

<g fill="#ffffff" fill-opacity="1" stroke="none" transform="matrix(1,0,0,1,56,6)"
font-family="Inter" font-size="11" font-weight="700" font-style="normal" 
>
<path vector-effect="none" fill-rule="nonzero" d="M10,9.39453 L10,8 L16.5703,8 L16.5703,9.39453 L14.1211,9.39453 L14.1211,16 L12.4492,16 L12.4492,9.39453 L10,9.39453 M17.6484,16 L17.6484,8 L19.3398,8 L19.3398,11.3008 L22.7734,11.3008 L22.7734,8 L24.4609,8 L24.4609,16 L22.7734,16 L22.7734,12.6953 L19.3398,12.6953 L19.3398,16 L17.6484,16 M25.8516,8 L27.9375,8 L30.1406,13.375 L30.2344,13.375 L32.4375,8 L34.5234,8 L34.5234,16 L32.8828,16 L32.8828,10.793 L32.8164,10.793 L30.7461,15.9609 L29.6289,15.9609 L27.5586,10.7734 L27.4922,10.7734 L27.4922,16 L25.8516,16 L25.8516,8 M37.3594,8 L39.293,14.0781 L39.3672,14.0781 L41.3047,8 L43.1797,8 L40.4219,16 L38.2422,16 L35.4805,8 L37.3594,8 M44.1328,16 L44.1328,8 L45.8242,8 L45.8242,11.3008 L49.2578,11.3008 L49.2578,8 L50.9453,8 L50.9453,16 L49.2578,16 L49.2578,12.6953 L45.8242,12.6953 L45.8242,16 L44.1328,16 M52.3359,16 L52.3359,8 L55.5391,8 C56.1276,8 56.6185,8.08724 57.0117,8.26172 C57.4049,8.4362 57.7005,8.67773 57.8984,8.98633 C58.0964,9.29492 58.1953,9.64974 58.1953,10.0508 C58.1953,10.3633 58.1328,10.6374 58.0078,10.873 C57.8828,11.1087 57.7116,11.3014 57.4941,11.4512 C57.2767,11.6009 57.0286,11.707 56.75,11.7695 L56.75,11.8477 C57.0547,11.8607 57.3405,11.9466 57.6074,12.1055 C57.8743,12.2643 58.0911,12.4863 58.2578,12.7715 C58.4245,13.0566 58.5078,13.3958 58.5078,13.7891 C58.5078,14.2135 58.403,14.5918 58.1934,14.9238 C57.9837,15.2559 57.6745,15.5182 57.2656,15.7109 C56.8568,15.9036 56.3529,16 55.7539,16 L52.3359,16 M54.0273,14.6172 L55.4063,14.6172 C55.8776,14.6172 56.2214,14.5267 56.4375,14.3457 C56.6536,14.1647 56.7617,13.9232 56.7617,13.6211 C56.7617,13.3997 56.7083,13.2044 56.6016,13.0352 C56.4948,12.8659 56.3431,12.7331 56.1465,12.6367 C55.9499,12.5404 55.7161,12.4922 55.4453,12.4922 L54.0273,12.4922 L54.0273,14.6172 M54.0273,11.3477 L55.2813,11.3477 C55.513,11.3477 55.7194,11.3066 55.9004,11.2246 C56.0814,11.1426 56.2246,11.026 56.3301,10.875 C56.4355,10.724 56.4883,10.543 56.4883,10.332 C56.4883,10.043 56.3861,9.8099 56.1816,9.63281 C55.9772,9.45573 55.6875,9.36719 55.3125,9.36719 L54.0273,9.36719 L54.0273,11.3477 M63.0352,8 L63.0352,16 L61.3438,16 L61.3438,9.60547 L61.2969,9.60547 L59.4648,10.7539 L59.4648,9.25391 L61.4453,8 L63.0352,8"/>
</g>

<g fill="#ffffff" fill-opacity="1" stroke="none" transform="matrix(0.03125,0,0,0.03125,127,14)"
font-family="Inter" font-size="11" font-weight="700" font-style="normal" 
>
<path vector-effect="none" fill-rule="nonzero" d="M111.326,191.938 C120.545,201.158 135.517,201.158 144.737,191.938 L239.144,97.5313 C245.929,90.7458 247.921,80.6413 244.233,71.7907 C240.545,62.9401 231.989,57.1871 222.401,57.1871 L33.5875,57.2608 C24.0731,57.2608 15.4437,63.0137 11.7559,71.8644 C8.06815,80.715 10.1333,90.8195 16.845,97.605 L111.252,192.012 L111.326,191.938"/>
</g>

<g fill="none" stroke="#000000" stroke-opacity="1" stroke-width="13.7195" stroke-linecap="butt" stroke-linejoin="miter" stroke-miterlimit="4" transform="matrix(0.03125,0,0,0.03125,127,14)"
font-family="Inter" font-size="11" font-weight="700" font-style="normal" 
>
<path vector-effect="none" fill-rule="nonzero" d="M111.326,191.938 C120.545,201.158 135.517,201.158 144.737,191.938 L239.144,97.5313 C245.929,90.7458 247.921,80.6413 244.233,71.7907 C240.545,62.9401 231.989,57.1871 222.401,57.1871 L33.5875,57.2608 C24.0731,57.2608 15.4437,63.0137 11.7559,71.8644 C8.06815,80.715 10.1333,90.8195 16.845,97.605 L111.252,192.012 L111.326,191.938"/>
</g>

<g fill="#ffffff" fill-opacity="1" stroke="none" transform="matrix(1,0,0,1,56,6)"
font-family="Inter" font-size="11" font-weight="700" font-style="normal" 
>
</g>

<g fill="#ffffff" fill-opacity="1" stroke="#0070ba" stroke-opacity="1" stroke-width="1" stroke-linecap="square" stroke-linejoin="bevel" transform="matrix(1,0,0,1,0,0)"
font-family="Inter" font-size="11" font-weight="700" font-style="normal" 
>
</g>

<g fill="none" stroke="#000000" stroke-opacity="1" stroke-width="1" stroke-linecap="square" stroke-linejoin="bevel" transform="matrix(1,0,0,1,0,0)"
font-family=".AppleSystemUIFont" font-size="13" font-weight="400" font-style="normal" 
>
</g>
</g>
</svg>
