<?xml version="1.0" encoding="UTF-8" standalone="no"?>
<svg width="53.6222mm" height="32.4556mm"
 viewBox="0 0 152 92"
 xmlns="http://www.w3.org/2000/svg" xmlns:xlink="http://www.w3.org/1999/xlink" version="1.2" baseProfile="tiny">
<title>Abstract block</title>
<desc>block_control_repeat_for</desc>
<defs>
</defs>
<g fill="none" stroke="black" stroke-width="1" fill-rule="evenodd" stroke-linecap="square" stroke-linejoin="bevel" >

<g fill="none" stroke="#000000" stroke-opacity="1" stroke-width="1" stroke-linecap="square" stroke-linejoin="bevel" transform="matrix(1,0,0,1,0,0)"
font-family=".AppleSystemUIFont" font-size="13" font-weight="400" font-style="normal" 
>
</g>

<g fill="none" stroke="#000000" stroke-opacity="1" stroke-width="1" stroke-linecap="square" stroke-linejoin="bevel" transform="matrix(1,0,0,1,0,0)"
font-family=".AppleSystemUIFont" font-size="13" font-weight="400" font-style="normal" 
>
</g>

<g fill="#ffb515" fill-opacity="1" stroke="#d89400" stroke-opacity="1" stroke-width="1.2" stroke-linecap="square" stroke-linejoin="bevel" transform="matrix(1,0,0,1,0,0)"
font-family=".AppleSystemUIFont" font-size="13" font-weight="400" font-style="normal" 
>
<path vector-effect="none" fill-rule="evenodd" d="M0.5,4.5 L1.04612,2.48112 L2.48112,1.04612 L4.5,0.5 L9.625,0.5 L10.416,0.976563 L11.1719,1.6875 L11.998,2.67969 L13,4 L13.7559,4.66016 L14.5469,5.15625 L15.4082,5.51172 L16.375,5.75 L17.4824,5.89453 L18.7656,5.96875 L20.2598,5.99609 L22,6 L23.7402,5.99609 L25.2344,5.96875 L26.5176,5.89453 L27.625,5.75 L28.5918,5.51172 L29.4531,5.15625 L30.2441,4.66016 L31,4 L32.002,2.67969 L32.8281,1.6875 L33.584,0.976563 L34.375,0.5 L146.7,0.5 L148.719,1.04612 L150.154,2.48112 L150.7,4.5 L150.7,33.625 L150.607,33.9259 L149.126,35.4074 L147.2,36 L52,36 L50.0137,36.0078 L48.4844,36.0625 L47.3066,36.2109 L46.375,36.5 L45.584,36.9766 L44.8281,37.6875 L44.002,38.6797 L43,40 L42.2441,40.6602 L41.4531,41.1563 L40.5918,41.5117 L39.625,41.75 L38.5176,41.8945 L37.2344,41.9688 L35.7402,41.9961 L34,42 L32.2598,41.9961 L30.7656,41.9688 L29.4824,41.8945 L28.375,41.75 L27.4082,41.5117 L26.5469,41.1563 L25.7559,40.6602 L25,40 L23.998,38.6797 L23.1719,37.6875 L22.416,36.9766 L21.625,36.5 L20.6934,36.2109 L19.5156,36.0625 L17.9863,36.0078 L16,36 L13.9811,36.5461 L12.5461,37.9811 L12,40 L12,52 L12.5461,54.0189 L13.9811,55.4539 L16,56 L22.4409,56 L23.1719,56.6875 L23.998,57.6797 L25,59 L25.7559,59.6602 L26.5469,60.1563 L27.4082,60.5117 L28.375,60.75 L29.4824,60.8945 L30.7656,60.9688 L32.2598,60.9961 L34,61 L35.7402,60.9961 L37.2344,60.9688 L38.5176,60.8945 L39.625,60.75 L40.5918,60.5117 L41.4531,60.1563 L42.2441,59.6602 L43,59 L44.002,57.6797 L44.8281,56.6875 L45.5591,56 L147.2,56 L149.126,56.5926 L150.607,58.0741 L150.7,58.375 L150.7,79.5 L150.154,81.5189 L148.719,82.9539 L146.7,83.5 L34.375,83.5 L33.584,83.9766 L32.8281,84.6875 L32.002,85.6797 L31,87 L30.2441,87.6602 L29.4531,88.1563 L28.5918,88.5117 L27.625,88.75 L26.5176,88.8945 L25.2344,88.9688 L23.7402,88.9961 L22,89 L20.2598,88.9961 L18.7656,88.9688 L17.4824,88.8945 L16.375,88.75 L15.4082,88.5117 L14.5469,88.1563 L13.7559,87.6602 L13,87 L11.998,85.6797 L11.1719,84.6875 L10.416,83.9766 L9.625,83.5 L4.5,83.5 L2.48112,82.9539 L1.04612,81.5189 L0.5,79.5 L0.5,4.5"/>
</g>

<g fill="#ffffff" fill-opacity="1" stroke="none" transform="matrix(1,0,0,1,0,0)"
font-family="Inter" font-size="11" font-weight="700" font-style="normal" 
>
<path vector-effect="none" fill-rule="nonzero" d="M11.9766,20.5469 L11.9766,14.5469 L13.5898,14.5469 L13.5898,15.5938 L13.6523,15.5938 C13.7617,15.2214 13.9453,14.9395 14.2031,14.748 C14.4609,14.5566 14.7578,14.4609 15.0938,14.4609 C15.1771,14.4609 15.2669,14.4661 15.3633,14.4766 C15.4596,14.487 15.5443,14.5013 15.6172,14.5195 L15.6172,15.9961 C15.5391,15.9727 15.431,15.9518 15.293,15.9336 C15.1549,15.9154 15.0286,15.9063 14.9141,15.9063 C14.6693,15.9063 14.4512,15.959 14.2598,16.0645 C14.0684,16.1699 13.9173,16.3164 13.8066,16.5039 C13.696,16.6914 13.6406,16.9076 13.6406,17.1523 L13.6406,20.5469 L11.9766,20.5469 M18.9141,20.6641 C18.2969,20.6641 17.7663,20.5384 17.3223,20.2871 C16.8783,20.0358 16.5365,19.679 16.2969,19.2168 C16.0573,18.7546 15.9375,18.207 15.9375,17.5742 C15.9375,16.957 16.0573,16.4154 16.2969,15.9492 C16.5365,15.4831 16.8743,15.1198 17.3105,14.8594 C17.7467,14.599 18.2591,14.4688 18.8477,14.4688 C19.2435,14.4688 19.6126,14.5319 19.9551,14.6582 C20.2975,14.7845 20.597,14.974 20.8535,15.2266 C21.11,15.4792 21.3099,15.7962 21.4531,16.1777 C21.5964,16.5592 21.668,17.0052 21.668,17.5156 L21.668,17.9727 L16.6016,17.9727 L16.6016,16.9414 L20.1016,16.9414 C20.1016,16.7018 20.0495,16.4896 19.9453,16.3047 C19.8411,16.1198 19.6973,15.9746 19.5137,15.8691 C19.3301,15.7637 19.1172,15.7109 18.875,15.7109 C18.6224,15.7109 18.3991,15.7689 18.2051,15.8848 C18.0111,16.0007 17.8594,16.1556 17.75,16.3496 C17.6406,16.5436 17.5846,16.7591 17.582,16.9961 L17.582,17.9766 C17.582,18.2734 17.6374,18.5299 17.748,18.7461 C17.8587,18.9622 18.0156,19.1289 18.2188,19.2461 C18.4219,19.3633 18.6628,19.4219 18.9414,19.4219 C19.1263,19.4219 19.2956,19.3958 19.4492,19.3438 C19.6029,19.2917 19.7344,19.2135 19.8438,19.1094 C19.9531,19.0052 20.0365,18.8776 20.0938,18.7266 L21.6328,18.8281 C21.5547,19.1979 21.3952,19.5202 21.1543,19.7949 C20.9134,20.0697 20.6035,20.2832 20.2246,20.4355 C19.8457,20.5879 19.4089,20.6641 18.9141,20.6641 M22.7422,22.7969 L22.7422,14.5469 L24.3828,14.5469 L24.3828,15.5547 L24.457,15.5547 C24.5299,15.3932 24.6361,15.2285 24.7754,15.0605 C24.9147,14.8926 25.097,14.752 25.3223,14.6387 C25.5475,14.5254 25.8281,14.4688 26.1641,14.4688 C26.6016,14.4688 27.0052,14.5827 27.375,14.8105 C27.7448,15.0384 28.0404,15.3809 28.2617,15.8379 C28.4831,16.2949 28.5938,16.8672 28.5938,17.5547 C28.5938,18.224 28.4863,18.7884 28.2715,19.248 C28.0566,19.7077 27.765,20.0553 27.3965,20.291 C27.028,20.5267 26.6159,20.6445 26.1602,20.6445 C25.8372,20.6445 25.5632,20.5911 25.3379,20.4844 C25.1126,20.3776 24.9284,20.2428 24.7852,20.0801 C24.6419,19.9173 24.5326,19.7526 24.457,19.5859 L24.4063,19.5859 L24.4063,22.7969 L22.7422,22.7969 M24.3711,17.5469 C24.3711,17.9036 24.4206,18.2148 24.5195,18.4805 C24.6185,18.7461 24.7617,18.9525 24.9492,19.0996 C25.1367,19.2467 25.3646,19.3203 25.6328,19.3203 C25.9036,19.3203 26.1328,19.2454 26.3203,19.0957 C26.5078,18.946 26.6504,18.7376 26.748,18.4707 C26.8457,18.2038 26.8945,17.8958 26.8945,17.5469 C26.8945,17.2005 26.8464,16.8958 26.75,16.6328 C26.6536,16.3698 26.5117,16.1641 26.3242,16.0156 C26.1367,15.8672 25.9063,15.793 25.6328,15.793 C25.362,15.793 25.1335,15.8646 24.9473,16.0078 C24.7611,16.151 24.6185,16.3542 24.5195,16.6172 C24.4206,16.8802 24.3711,17.1901 24.3711,17.5469 M32.4297,20.6641 C31.8125,20.6641 31.2819,20.5384 30.8379,20.2871 C30.3939,20.0358 30.0521,19.679 29.8125,19.2168 C29.5729,18.7546 29.4531,18.207 29.4531,17.5742 C29.4531,16.957 29.5729,16.4154 29.8125,15.9492 C30.0521,15.4831 30.39,15.1198 30.8262,14.8594 C31.2624,14.599 31.7747,14.4688 32.3633,14.4688 C32.7591,14.4688 33.1283,14.5319 33.4707,14.6582 C33.8132,14.7845 34.1126,14.974 34.3691,15.2266 C34.6257,15.4792 34.8255,15.7962 34.9688,16.1777 C35.112,16.5592 35.1836,17.0052 35.1836,17.5156 L35.1836,17.9727 L30.1172,17.9727 L30.1172,16.9414 L33.6172,16.9414 C33.6172,16.7018 33.5651,16.4896 33.4609,16.3047 C33.3568,16.1198 33.2129,15.9746 33.0293,15.8691 C32.8457,15.7637 32.6328,15.7109 32.3906,15.7109 C32.138,15.7109 31.9147,15.7689 31.7207,15.8848 C31.5267,16.0007 31.375,16.1556 31.2656,16.3496 C31.1563,16.5436 31.1003,16.7591 31.0977,16.9961 L31.0977,17.9766 C31.0977,18.2734 31.153,18.5299 31.2637,18.7461 C31.3743,18.9622 31.5313,19.1289 31.7344,19.2461 C31.9375,19.3633 32.1784,19.4219 32.457,19.4219 C32.6419,19.4219 32.8112,19.3958 32.9648,19.3438 C33.1185,19.2917 33.25,19.2135 33.3594,19.1094 C33.4688,19.0052 33.5521,18.8776 33.6094,18.7266 L35.1484,18.8281 C35.0703,19.1979 34.9108,19.5202 34.6699,19.7949 C34.429,20.0697 34.1191,20.2832 33.7402,20.4355 C33.3613,20.5879 32.9245,20.6641 32.4297,20.6641 M37.9688,20.6602 C37.5859,20.6602 37.2448,20.5931 36.9453,20.459 C36.6458,20.3249 36.4095,20.1257 36.2363,19.8613 C36.0632,19.597 35.9766,19.2669 35.9766,18.8711 C35.9766,18.5378 36.0378,18.2578 36.1602,18.0313 C36.2826,17.8047 36.4492,17.6224 36.6602,17.4844 C36.8711,17.3464 37.1113,17.2422 37.3809,17.1719 C37.6504,17.1016 37.9336,17.0521 38.2305,17.0234 C38.5794,16.987 38.8607,16.9525 39.0742,16.9199 C39.2878,16.8874 39.4427,16.8385 39.5391,16.7734 C39.6354,16.7083 39.6836,16.612 39.6836,16.4844 L39.6836,16.4609 C39.6836,16.2135 39.6061,16.0221 39.4512,15.8867 C39.2962,15.7513 39.0768,15.6836 38.793,15.6836 C38.4935,15.6836 38.2552,15.7493 38.0781,15.8809 C37.901,16.0124 37.7839,16.1771 37.7266,16.375 L36.1875,16.25 C36.2656,15.8854 36.4193,15.5697 36.6484,15.3027 C36.8776,15.0358 37.1738,14.8301 37.5371,14.6855 C37.9004,14.541 38.3216,14.4688 38.8008,14.4688 C39.1341,14.4688 39.4538,14.5078 39.7598,14.5859 C40.0658,14.6641 40.3379,14.7852 40.5762,14.9492 C40.8145,15.1133 41.0026,15.3236 41.1406,15.5801 C41.2786,15.8366 41.3477,16.1432 41.3477,16.5 L41.3477,20.5469 L39.7695,20.5469 L39.7695,19.7148 L39.7227,19.7148 C39.6263,19.9023 39.4974,20.0671 39.3359,20.209 C39.1745,20.3509 38.9805,20.4616 38.7539,20.541 C38.5273,20.6204 38.2656,20.6602 37.9688,20.6602 M38.4453,19.5117 C38.6901,19.5117 38.9063,19.4629 39.0938,19.3652 C39.2813,19.2676 39.4284,19.1354 39.5352,18.9688 C39.6419,18.8021 39.6953,18.6133 39.6953,18.4023 L39.6953,17.7656 C39.6432,17.7995 39.5723,17.8301 39.4824,17.8574 C39.3926,17.8848 39.2917,17.9095 39.1797,17.9316 C39.0677,17.9538 38.9557,17.9733 38.8438,17.9902 C38.7318,18.0072 38.6302,18.0221 38.5391,18.0352 C38.3438,18.0638 38.1732,18.1094 38.0273,18.1719 C37.8815,18.2344 37.7682,18.3184 37.6875,18.4238 C37.6068,18.5293 37.5664,18.6602 37.5664,18.8164 C37.5664,19.043 37.6491,19.2155 37.8145,19.334 C37.9798,19.4525 38.1901,19.5117 38.4453,19.5117 M45.8242,14.5469 L45.8242,15.7969 L42.2109,15.7969 L42.2109,14.5469 L45.8242,14.5469 M43.0313,13.1094 L44.6953,13.1094 L44.6953,18.7031 C44.6953,18.8568 44.7188,18.9759 44.7656,19.0605 C44.8125,19.1452 44.8783,19.2044 44.9629,19.2383 C45.0475,19.2721 45.1458,19.2891 45.2578,19.2891 C45.3359,19.2891 45.4141,19.2819 45.4922,19.2676 C45.5703,19.2533 45.6302,19.2422 45.6719,19.2344 L45.9336,20.4727 C45.8503,20.4987 45.7331,20.5293 45.582,20.5645 C45.431,20.5996 45.2474,20.6211 45.0313,20.6289 C44.6302,20.6445 44.2793,20.5911 43.9785,20.4688 C43.6777,20.3464 43.444,20.1563 43.2773,19.8984 C43.1107,19.6406 43.0286,19.3151 43.0313,18.9219 L43.0313,13.1094"/>
</g>

<g fill="#ffffff" fill-opacity="1" stroke="none" transform="matrix(0.03125,0,0,0.03125,129.2,62)"
font-family="Inter" font-size="11" font-weight="700" font-style="normal" 
>
<path vector-effect="none" fill-rule="nonzero" d="M436.924,214.274 C432.753,223.681 423.346,229.815 413.04,229.815 L360.69,229.815 L360.69,321.427 C360.69,400.932 296.235,465.387 216.73,465.387 C124.055,465.387 82.6664,398.724 74.3233,383.428 C73.1781,381.383 72.7691,379.093 72.7691,376.802 C72.7691,367.887 80.049,360.689 88.8829,360.689 C95.0176,360.689 100.661,364.206 104.833,368.705 C112.113,376.393 126.427,386.863 151.293,386.863 C194.645,386.863 229.817,351.691 229.817,308.339 L229.817,229.815 L177.468,229.815 C167.162,229.815 157.755,223.762 153.583,214.274 C149.412,204.786 151.13,193.825 158,186.136 L275.786,55.263 C280.776,49.7827 287.81,46.5926 295.254,46.5926 C302.697,46.5926 309.732,49.7009 314.721,55.263 L432.507,186.136 C439.46,193.825 441.178,204.868 436.924,214.274 "/>
</g>

<g fill="#ffffff" fill-opacity="1" stroke="none" transform="matrix(1,0,0,1,0,0)"
font-family="Inter" font-size="11" font-weight="700" font-style="normal" 
>
</g>

<g fill="#ffffff" fill-opacity="1" stroke="none" transform="matrix(1,0,0,1,0,0)"
font-family="Inter" font-size="11" font-weight="700" font-style="normal" 
>
</g>

<g fill="#ffffff" fill-opacity="1" stroke="#c48600" stroke-opacity="1" stroke-width="1.2" stroke-linecap="square" stroke-linejoin="bevel" transform="matrix(1,0,0,1,52,7)"
font-family="Inter" font-size="11" font-weight="700" font-style="normal" 
>
<path vector-effect="none" fill-rule="evenodd" d="M1,11 C1,5.47715 5.92487,1 12,1 L14.4,1 C20.4751,1 25.4,5.47715 25.4,11 C25.4,16.5228 20.4751,21 14.4,21 L12,21 C5.92487,21 1,16.5228 1,11 "/>
</g>

<g fill="#000000" fill-opacity="1" stroke="none" transform="matrix(1,0,0,1,52,7)"
font-family="Inter" font-size="10" font-weight="700" font-style="normal" 
>
<path vector-effect="none" fill-rule="nonzero" d="M10.7536,7.14915 L10.7536,14.4219 L9.21591,14.4219 L9.21591,8.60866 L9.1733,8.60866 L7.50781,9.6527 L7.50781,8.28906 L9.30824,7.14915 L10.7536,7.14915 M15.3317,14.5817 C14.7209,14.5793 14.1959,14.429 13.7567,14.1307 C13.3176,13.8324 12.9802,13.4003 12.7447,12.8345 C12.5091,12.2687 12.3925,11.5881 12.3949,10.7926 C12.3949,9.99953 12.5127,9.32363 12.7482,8.76491 C12.9838,8.2062 13.3211,7.78066 13.7603,7.48828 C14.1995,7.1959 14.7232,7.04972 15.3317,7.04972 C15.9401,7.04972 16.4639,7.1965 16.9031,7.49006 C17.3422,7.78362 17.6802,8.20916 17.9169,8.76669 C18.1536,9.32422 18.2708,9.99953 18.2685,10.7926 C18.2685,11.5904 18.1507,12.2723 17.9151,12.8381 C17.6796,13.4039 17.3428,13.8359 16.9048,14.1342 C16.4669,14.4325 15.9425,14.5817 15.3317,14.5817 M15.3317,13.3068 C15.7483,13.3068 16.081,13.0973 16.3295,12.6783 C16.5781,12.2592 16.7012,11.6307 16.6989,10.7926 C16.6989,10.241 16.6426,9.78172 16.5302,9.41477 C16.4177,9.04782 16.2591,8.77202 16.0543,8.58736 C15.8496,8.4027 15.6087,8.31037 15.3317,8.31037 C14.9174,8.31037 14.5859,8.51752 14.3374,8.93182 C14.0888,9.34612 13.9633,9.96638 13.9609,10.7926 C13.9609,11.3513 14.0172,11.8171 14.1296,12.19 C14.2421,12.5629 14.4013,12.8422 14.6072,13.0281 C14.8132,13.2139 15.0547,13.3068 15.3317,13.3068 "/>
</g>

<g fill="#ffffff" fill-opacity="1" stroke="none" transform="matrix(1,0,0,1,0,0)"
font-family="Inter" font-size="11" font-weight="700" font-style="normal" 
>
</g>

<g fill="#ffffff" fill-opacity="1" stroke="none" transform="matrix(1,0,0,1,0,0)"
font-family="Inter" font-size="11" font-weight="700" font-style="normal" 
>
</g>

<g fill="#ffffff" fill-opacity="1" stroke="none" transform="matrix(1,0,0,1,0,0)"
font-family="Inter" font-size="11" font-weight="700" font-style="normal" 
>
</g>

<g fill="#ffffff" fill-opacity="1" stroke="none" transform="matrix(1,0,0,1,0,0)"
font-family="Inter" font-size="11" font-weight="700" font-style="normal" 
>
</g>

<g fill="#ffffff" fill-opacity="1" stroke="none" transform="matrix(1,0,0,1,0,0)"
font-family="Inter" font-size="11" font-weight="700" font-style="normal" 
>
</g>

<g fill="none" stroke="#000000" stroke-opacity="1" stroke-width="1" stroke-linecap="square" stroke-linejoin="bevel" transform="matrix(1,0,0,1,0,0)"
font-family=".AppleSystemUIFont" font-size="13" font-weight="400" font-style="normal" 
>
</g>
</g>
</svg>
