<?xml version="1.0" encoding="UTF-8" standalone="no"?>
<svg width="55.7389mm" height="11.2889mm"
 viewBox="0 0 158 32"
 xmlns="http://www.w3.org/2000/svg" xmlns:xlink="http://www.w3.org/1999/xlink" version="1.2" baseProfile="tiny">
<title>device % battery</title>
<desc>block_sensors_device_battery_level</desc>
<defs>
</defs>
<g fill="none" stroke="black" stroke-width="1" fill-rule="evenodd" stroke-linecap="square" stroke-linejoin="bevel" >

<g fill="none" stroke="#000000" stroke-opacity="1" stroke-width="1" stroke-linecap="square" stroke-linejoin="bevel" transform="matrix(1,0,0,1,0,0)"
font-family=".AppleSystemUIFont" font-size="13" font-weight="400" font-style="normal" 
>
</g>

<g fill="none" stroke="#000000" stroke-opacity="1" stroke-width="1" stroke-linecap="square" stroke-linejoin="bevel" transform="matrix(1,0,0,1,0,0)"
font-family=".AppleSystemUIFont" font-size="13" font-weight="400" font-style="normal" 
>
</g>

<g fill="#1dccf0" fill-opacity="1" stroke="#0da6c5" stroke-opacity="1" stroke-width="1.2" stroke-linecap="square" stroke-linejoin="bevel" transform="matrix(1,0,0,1,0,0)"
font-family=".AppleSystemUIFont" font-size="13" font-weight="400" font-style="normal" 
>
<path vector-effect="none" fill-rule="evenodd" d="M1,16 C1,7.71573 8.16344,1 17,1 L141,1 C149.837,1 157,7.71573 157,16 C157,24.2843 149.837,31 141,31 L17,31 C8.16344,31 1,24.2843 1,16 "/>
</g>

<g fill="#ffffff" fill-opacity="1" stroke="none" transform="matrix(1,0,0,1,0,0)"
font-family="Inter" font-size="11" font-weight="700" font-style="normal" 
>
<path vector-effect="none" fill-rule="nonzero" d="M54.2969,20.0977 C53.8411,20.0977 53.429,19.9798 53.0605,19.7441 C52.6921,19.5085 52.4004,19.1608 52.1855,18.7012 C51.9707,18.2415 51.8633,17.6771 51.8633,17.0078 C51.8633,16.3203 51.974,15.748 52.1953,15.291 C52.4167,14.834 52.7116,14.4915 53.0801,14.2637 C53.4486,14.0358 53.8529,13.9219 54.293,13.9219 C54.6289,13.9219 54.9095,13.9785 55.1348,14.0918 C55.36,14.2051 55.5423,14.3457 55.6816,14.5137 C55.821,14.6816 55.9271,14.8464 56,15.0078 L56.0508,15.0078 L56.0508,12 L57.7109,12 L57.7109,20 L56.0703,20 L56.0703,19.0391 L56,19.0391 C55.9219,19.2057 55.8118,19.3704 55.6699,19.5332 C55.528,19.696 55.3444,19.8307 55.1191,19.9375 C54.8939,20.0443 54.6198,20.0977 54.2969,20.0977 M54.8242,18.7734 C55.0924,18.7734 55.3197,18.6999 55.5059,18.5527 C55.6921,18.4056 55.8353,18.1992 55.9355,17.9336 C56.0358,17.668 56.0859,17.3568 56.0859,17 C56.0859,16.6432 56.0365,16.3333 55.9375,16.0703 C55.8385,15.8073 55.6953,15.6042 55.5078,15.4609 C55.3203,15.3177 55.0924,15.2461 54.8242,15.2461 C54.5508,15.2461 54.3203,15.3203 54.1328,15.4688 C53.9453,15.6172 53.8034,15.8229 53.707,16.0859 C53.6107,16.349 53.5625,16.6536 53.5625,17 C53.5625,17.349 53.6113,17.6569 53.709,17.9238 C53.8066,18.1908 53.9486,18.3991 54.1348,18.5488 C54.321,18.6986 54.5508,18.7734 54.8242,18.7734 M61.8047,20.1172 C61.1875,20.1172 60.6569,19.9915 60.2129,19.7402 C59.7689,19.4889 59.4271,19.1322 59.1875,18.6699 C58.9479,18.2077 58.8281,17.6602 58.8281,17.0273 C58.8281,16.4102 58.9479,15.8685 59.1875,15.4023 C59.4271,14.9362 59.765,14.5729 60.2012,14.3125 C60.6374,14.0521 61.1497,13.9219 61.7383,13.9219 C62.1341,13.9219 62.5033,13.985 62.8457,14.1113 C63.1882,14.2376 63.4876,14.4271 63.7441,14.6797 C64.0007,14.9323 64.2005,15.2493 64.3438,15.6309 C64.487,16.0124 64.5586,16.4583 64.5586,16.9688 L64.5586,17.4258 L59.4922,17.4258 L59.4922,16.3945 L62.9922,16.3945 C62.9922,16.1549 62.9401,15.9427 62.8359,15.7578 C62.7318,15.5729 62.5879,15.4277 62.4043,15.3223 C62.2207,15.2168 62.0078,15.1641 61.7656,15.1641 C61.513,15.1641 61.2897,15.222 61.0957,15.3379 C60.9017,15.4538 60.75,15.6087 60.6406,15.8027 C60.5313,15.9967 60.4753,16.2122 60.4727,16.4492 L60.4727,17.4297 C60.4727,17.7266 60.528,17.9831 60.6387,18.1992 C60.7493,18.4154 60.9063,18.582 61.1094,18.6992 C61.3125,18.8164 61.5534,18.875 61.832,18.875 C62.0169,18.875 62.1862,18.849 62.3398,18.7969 C62.4935,18.7448 62.625,18.6667 62.7344,18.5625 C62.8438,18.4583 62.9271,18.3307 62.9844,18.1797 L64.5234,18.2813 C64.4453,18.651 64.2858,18.9733 64.0449,19.248 C63.804,19.5228 63.4941,19.7363 63.1152,19.8887 C62.7363,20.041 62.2995,20.1172 61.8047,20.1172 M71.0547,14 L68.957,20 L67.082,20 L64.9844,14 L66.7422,14 L67.9883,18.293 L68.0508,18.293 L69.293,14 L71.0547,14 M71.8984,20 L71.8984,14 L73.5625,14 L73.5625,20 L71.8984,20 M72.7344,13.2266 C72.487,13.2266 72.2754,13.1439 72.0996,12.9785 C71.9238,12.8132 71.8359,12.6146 71.8359,12.3828 C71.8359,12.1536 71.9238,11.9564 72.0996,11.791 C72.2754,11.6257 72.487,11.543 72.7344,11.543 C72.9818,11.543 73.1934,11.6257 73.3691,11.791 C73.5449,11.9564 73.6328,12.1536 73.6328,12.3828 C73.6328,12.6146 73.5449,12.8132 73.3691,12.9785 C73.1934,13.1439 72.9818,13.2266 72.7344,13.2266 M77.5938,20.1172 C76.9792,20.1172 76.4512,19.9863 76.0098,19.7246 C75.5684,19.4629 75.2298,19.099 74.9941,18.6328 C74.7585,18.1667 74.6406,17.6302 74.6406,17.0234 C74.6406,16.4089 74.7598,15.8691 74.998,15.4043 C75.2363,14.9395 75.5755,14.5762 76.0156,14.3145 C76.4557,14.0527 76.9792,13.9219 77.5859,13.9219 C78.1094,13.9219 78.5677,14.0169 78.9609,14.207 C79.3542,14.3971 79.6654,14.6641 79.8945,15.0078 C80.1237,15.3516 80.25,15.7552 80.2734,16.2188 L78.7031,16.2188 C78.6589,15.9193 78.5423,15.6777 78.3535,15.4941 C78.1647,15.3105 77.918,15.2188 77.6133,15.2188 C77.3555,15.2188 77.1309,15.2884 76.9395,15.4277 C76.748,15.5671 76.599,15.7695 76.4922,16.0352 C76.3854,16.3008 76.332,16.6224 76.332,17 C76.332,17.3828 76.3848,17.7083 76.4902,17.9766 C76.5957,18.2448 76.7448,18.4492 76.9375,18.5898 C77.1302,18.7305 77.3555,18.8008 77.6133,18.8008 C77.8034,18.8008 77.9746,18.7617 78.127,18.6836 C78.2793,18.6055 78.4056,18.4915 78.5059,18.3418 C78.6061,18.1921 78.6719,18.0117 78.7031,17.8008 L80.2734,17.8008 C80.2474,18.2591 80.123,18.6621 79.9004,19.0098 C79.6777,19.3574 79.3711,19.6289 78.9805,19.8242 C78.5898,20.0195 78.1276,20.1172 77.5938,20.1172 M84.0703,20.1172 C83.4531,20.1172 82.9225,19.9915 82.4785,19.7402 C82.0345,19.4889 81.6927,19.1322 81.4531,18.6699 C81.2135,18.2077 81.0938,17.6602 81.0938,17.0273 C81.0938,16.4102 81.2135,15.8685 81.4531,15.4023 C81.6927,14.9362 82.0306,14.5729 82.4668,14.3125 C82.903,14.0521 83.4154,13.9219 84.0039,13.9219 C84.3997,13.9219 84.7689,13.985 85.1113,14.1113 C85.4538,14.2376 85.7533,14.4271 86.0098,14.6797 C86.2663,14.9323 86.4661,15.2493 86.6094,15.6309 C86.7526,16.0124 86.8242,16.4583 86.8242,16.9688 L86.8242,17.4258 L81.7578,17.4258 L81.7578,16.3945 L85.2578,16.3945 C85.2578,16.1549 85.2057,15.9427 85.1016,15.7578 C84.9974,15.5729 84.8535,15.4277 84.6699,15.3223 C84.4863,15.2168 84.2734,15.1641 84.0313,15.1641 C83.7786,15.1641 83.5553,15.222 83.3613,15.3379 C83.1673,15.4538 83.0156,15.6087 82.9063,15.8027 C82.7969,15.9967 82.7409,16.2122 82.7383,16.4492 L82.7383,17.4297 C82.7383,17.7266 82.7936,17.9831 82.9043,18.1992 C83.015,18.4154 83.1719,18.582 83.375,18.6992 C83.5781,18.8164 83.819,18.875 84.0977,18.875 C84.2826,18.875 84.4518,18.849 84.6055,18.7969 C84.7591,18.7448 84.8906,18.6667 85,18.5625 C85.1094,18.4583 85.1927,18.3307 85.25,18.1797 L86.7891,18.2813 C86.7109,18.651 86.5514,18.9733 86.3105,19.248 C86.0697,19.5228 85.7598,19.7363 85.3809,19.8887 C85.002,20.041 84.5651,20.1172 84.0703,20.1172 "/>
</g>

<g fill="#ffffff" fill-opacity="1" stroke="none" transform="matrix(1,0,0,1,0,0)"
font-family="Inter" font-size="11" font-weight="700" font-style="normal" 
>
<path vector-effect="none" fill-rule="nonzero" d="M99.0273,17.5156 L99.0273,17.0938 C99.0273,16.7734 99.0957,16.4785 99.2324,16.209 C99.3691,15.9395 99.5684,15.7233 99.8301,15.5605 C100.092,15.3978 100.411,15.3164 100.789,15.3164 C101.172,15.3164 101.494,15.3971 101.756,15.5586 C102.018,15.7201 102.215,15.9355 102.35,16.2051 C102.484,16.4746 102.551,16.7708 102.551,17.0938 L102.551,17.5156 C102.551,17.8359 102.483,18.1309 102.348,18.4004 C102.212,18.6699 102.013,18.8861 101.75,19.0488 C101.487,19.2116 101.167,19.293 100.789,19.293 C100.406,19.293 100.085,19.2116 99.8242,19.0488 C99.5638,18.8861 99.3659,18.6699 99.2305,18.4004 C99.0951,18.1309 99.0273,17.8359 99.0273,17.5156 M100.164,17.0938 L100.164,17.5156 C100.164,17.7005 100.209,17.875 100.299,18.0391 C100.389,18.2031 100.552,18.2852 100.789,18.2852 C101.026,18.2852 101.188,18.2044 101.275,18.043 C101.363,17.8815 101.406,17.7057 101.406,17.5156 L101.406,17.0938 C101.406,16.9036 101.365,16.7266 101.281,16.5625 C101.198,16.3984 101.034,16.3164 100.789,16.3164 C100.555,16.3164 100.392,16.3984 100.301,16.5625 C100.21,16.7266 100.164,16.9036 100.164,17.0938 M94.9219,12.9375 L94.9219,12.5156 C94.9219,12.1927 94.9909,11.8965 95.1289,11.627 C95.2669,11.3574 95.4668,11.1419 95.7285,10.9805 C95.9902,10.819 96.3073,10.7383 96.6797,10.7383 C97.0651,10.7383 97.388,10.819 97.6484,10.9805 C97.9089,11.1419 98.1068,11.3574 98.2422,11.627 C98.3776,11.8965 98.4453,12.1927 98.4453,12.5156 L98.4453,12.9375 C98.4453,13.2604 98.377,13.556 98.2402,13.8242 C98.1035,14.0924 97.9043,14.3066 97.6426,14.4668 C97.3809,14.627 97.0599,14.707 96.6797,14.707 C96.2995,14.707 95.9785,14.6257 95.7168,14.4629 C95.4551,14.3001 95.2572,14.0853 95.123,13.8184 C94.9889,13.5514 94.9219,13.2578 94.9219,12.9375 M96.0664,12.5156 L96.0664,12.9375 C96.0664,13.1276 96.1113,13.3034 96.2012,13.4648 C96.291,13.6263 96.4505,13.707 96.6797,13.707 C96.9193,13.707 97.0827,13.6263 97.1699,13.4648 C97.2572,13.3034 97.3008,13.1276 97.3008,12.9375 L97.3008,12.5156 C97.3008,12.3255 97.2591,12.1484 97.1758,11.9844 C97.0924,11.8203 96.9271,11.7383 96.6797,11.7383 C96.4479,11.7383 96.2878,11.8216 96.1992,11.9883 C96.1107,12.1549 96.0664,12.3307 96.0664,12.5156 M95.4375,19.0156 L100.938,11.0156 L101.961,11.0156 L96.4609,19.0156 L95.4375,19.0156 M106.695,19.0156 L106.695,11.0156 L108.359,11.0156 L108.359,14.0234 L108.41,14.0234 C108.483,13.862 108.589,13.6973 108.729,13.5293 C108.868,13.3613 109.05,13.2207 109.275,13.1074 C109.501,12.9941 109.781,12.9375 110.117,12.9375 C110.555,12.9375 110.958,13.0514 111.328,13.2793 C111.698,13.5072 111.993,13.8496 112.215,14.3066 C112.436,14.7637 112.547,15.3359 112.547,16.0234 C112.547,16.6927 112.439,17.2572 112.225,17.7168 C112.01,18.1764 111.718,18.5241 111.35,18.7598 C110.981,18.9954 110.569,19.1133 110.113,19.1133 C109.79,19.1133 109.516,19.0599 109.291,18.9531 C109.066,18.8464 108.882,18.7116 108.738,18.5488 C108.595,18.3861 108.486,18.2214 108.41,18.0547 L108.336,18.0547 L108.336,19.0156 L106.695,19.0156 M108.324,16.0156 C108.324,16.3724 108.374,16.6836 108.473,16.9492 C108.572,17.2148 108.715,17.4212 108.902,17.5684 C109.09,17.7155 109.318,17.7891 109.586,17.7891 C109.857,17.7891 110.086,17.7142 110.273,17.5645 C110.461,17.4147 110.604,17.2064 110.701,16.9395 C110.799,16.6725 110.848,16.3646 110.848,16.0156 C110.848,15.6693 110.799,15.3646 110.703,15.1016 C110.607,14.8385 110.465,14.6328 110.277,14.4844 C110.09,14.3359 109.859,14.2617 109.586,14.2617 C109.315,14.2617 109.087,14.3333 108.9,14.4766 C108.714,14.6198 108.572,14.8229 108.473,15.0859 C108.374,15.349 108.324,15.6589 108.324,16.0156 M115.359,19.1289 C114.977,19.1289 114.635,19.0618 114.336,18.9277 C114.036,18.7936 113.8,18.5944 113.627,18.3301 C113.454,18.0658 113.367,17.7357 113.367,17.3398 C113.367,17.0065 113.428,16.7266 113.551,16.5 C113.673,16.2734 113.84,16.0911 114.051,15.9531 C114.262,15.8151 114.502,15.7109 114.771,15.6406 C115.041,15.5703 115.324,15.5208 115.621,15.4922 C115.97,15.4557 116.251,15.4212 116.465,15.3887 C116.678,15.3561 116.833,15.3073 116.93,15.2422 C117.026,15.1771 117.074,15.0807 117.074,14.9531 L117.074,14.9297 C117.074,14.6823 116.997,14.4909 116.842,14.3555 C116.687,14.2201 116.467,14.1523 116.184,14.1523 C115.884,14.1523 115.646,14.2181 115.469,14.3496 C115.292,14.4811 115.174,14.6458 115.117,14.8438 L113.578,14.7188 C113.656,14.3542 113.81,14.0384 114.039,13.7715 C114.268,13.5046 114.564,13.2988 114.928,13.1543 C115.291,13.0098 115.712,12.9375 116.191,12.9375 C116.525,12.9375 116.844,12.9766 117.15,13.0547 C117.456,13.1328 117.729,13.2539 117.967,13.418 C118.205,13.582 118.393,13.7923 118.531,14.0488 C118.669,14.3053 118.738,14.612 118.738,14.9688 L118.738,19.0156 L117.16,19.0156 L117.16,18.1836 L117.113,18.1836 C117.017,18.3711 116.888,18.5358 116.727,18.6777 C116.565,18.8197 116.371,18.9303 116.145,19.0098 C115.918,19.0892 115.656,19.1289 115.359,19.1289 M115.836,17.9805 C116.081,17.9805 116.297,17.9316 116.484,17.834 C116.672,17.7363 116.819,17.6042 116.926,17.4375 C117.033,17.2708 117.086,17.082 117.086,16.8711 L117.086,16.2344 C117.034,16.2682 116.963,16.2988 116.873,16.3262 C116.783,16.3535 116.682,16.3783 116.57,16.4004 C116.458,16.4225 116.346,16.4421 116.234,16.459 C116.122,16.4759 116.021,16.4909 115.93,16.5039 C115.734,16.5326 115.564,16.5781 115.418,16.6406 C115.272,16.7031 115.159,16.7871 115.078,16.8926 C114.997,16.998 114.957,17.1289 114.957,17.2852 C114.957,17.5117 115.04,17.6842 115.205,17.8027 C115.37,17.9212 115.581,17.9805 115.836,17.9805 M123.215,13.0156 L123.215,14.2656 L119.602,14.2656 L119.602,13.0156 L123.215,13.0156 M120.422,11.5781 L122.086,11.5781 L122.086,17.1719 C122.086,17.3255 122.109,17.4447 122.156,17.5293 C122.203,17.6139 122.269,17.6732 122.354,17.707 C122.438,17.7409 122.536,17.7578 122.648,17.7578 C122.727,17.7578 122.805,17.7507 122.883,17.7363 C122.961,17.722 123.021,17.7109 123.063,17.7031 L123.324,18.9414 C123.241,18.9674 123.124,18.998 122.973,19.0332 C122.822,19.0684 122.638,19.0898 122.422,19.0977 C122.021,19.1133 121.67,19.0599 121.369,18.9375 C121.068,18.8151 120.835,18.625 120.668,18.3672 C120.501,18.1094 120.419,17.7839 120.422,17.3906 L120.422,11.5781 M127.48,13.0156 L127.48,14.2656 L123.867,14.2656 L123.867,13.0156 L127.48,13.0156 M124.688,11.5781 L126.352,11.5781 L126.352,17.1719 C126.352,17.3255 126.375,17.4447 126.422,17.5293 C126.469,17.6139 126.535,17.6732 126.619,17.707 C126.704,17.7409 126.802,17.7578 126.914,17.7578 C126.992,17.7578 127.07,17.7507 127.148,17.7363 C127.227,17.722 127.286,17.7109 127.328,17.7031 L127.59,18.9414 C127.507,18.9674 127.389,18.998 127.238,19.0332 C127.087,19.0684 126.904,19.0898 126.688,19.0977 C126.286,19.1133 125.936,19.0599 125.635,18.9375 C125.334,18.8151 125.1,18.625 124.934,18.3672 C124.767,18.1094 124.685,17.7839 124.688,17.3906 L124.688,11.5781 M131.227,19.1328 C130.609,19.1328 130.079,19.0072 129.635,18.7559 C129.191,18.5046 128.849,18.1478 128.609,17.6855 C128.37,17.2233 128.25,16.6758 128.25,16.043 C128.25,15.4258 128.37,14.8841 128.609,14.418 C128.849,13.9518 129.187,13.5885 129.623,13.3281 C130.059,13.0677 130.572,12.9375 131.16,12.9375 C131.556,12.9375 131.925,13.0007 132.268,13.127 C132.61,13.2533 132.91,13.4427 133.166,13.6953 C133.423,13.9479 133.622,14.265 133.766,14.6465 C133.909,15.028 133.98,15.474 133.98,15.9844 L133.98,16.4414 L128.914,16.4414 L128.914,15.4102 L132.414,15.4102 C132.414,15.1706 132.362,14.9583 132.258,14.7734 C132.154,14.5885 132.01,14.4434 131.826,14.3379 C131.643,14.2324 131.43,14.1797 131.188,14.1797 C130.935,14.1797 130.712,14.2376 130.518,14.3535 C130.324,14.4694 130.172,14.6243 130.063,14.8184 C129.953,15.0124 129.897,15.2279 129.895,15.4648 L129.895,16.4453 C129.895,16.7422 129.95,16.9987 130.061,17.2148 C130.171,17.431 130.328,17.5977 130.531,17.7148 C130.734,17.832 130.975,17.8906 131.254,17.8906 C131.439,17.8906 131.608,17.8646 131.762,17.8125 C131.915,17.7604 132.047,17.6823 132.156,17.5781 C132.266,17.474 132.349,17.3464 132.406,17.1953 L133.945,17.2969 C133.867,17.6667 133.708,17.9889 133.467,18.2637 C133.226,18.5384 132.916,18.752 132.537,18.9043 C132.158,19.0566 131.721,19.1328 131.227,19.1328 M135.055,19.0156 L135.055,13.0156 L136.668,13.0156 L136.668,14.0625 L136.73,14.0625 C136.84,13.6901 137.023,13.4082 137.281,13.2168 C137.539,13.0254 137.836,12.9297 138.172,12.9297 C138.255,12.9297 138.345,12.9349 138.441,12.9453 C138.538,12.9557 138.622,12.9701 138.695,12.9883 L138.695,14.4648 C138.617,14.4414 138.509,14.4206 138.371,14.4023 C138.233,14.3841 138.107,14.375 137.992,14.375 C137.747,14.375 137.529,14.4277 137.338,14.5332 C137.146,14.6387 136.995,14.7852 136.885,14.9727 C136.774,15.1602 136.719,15.3763 136.719,15.6211 L136.719,19.0156 L135.055,19.0156 M140.754,21.2656 C140.543,21.2656 140.346,21.2493 140.162,21.2168 C139.979,21.1842 139.827,21.1432 139.707,21.0938 L140.082,19.8516 C140.277,19.9115 140.454,19.944 140.611,19.9492 C140.769,19.9544 140.906,19.918 141.021,19.8398 C141.137,19.7617 141.232,19.6289 141.305,19.4414 L141.402,19.1875 L139.25,13.0156 L141,13.0156 L142.242,17.4219 L142.305,17.4219 L143.559,13.0156 L145.32,13.0156 L142.988,19.6641 C142.876,19.987 142.725,20.2689 142.533,20.5098 C142.342,20.7507 142.1,20.9368 141.809,21.0684 C141.517,21.1999 141.165,21.2656 140.754,21.2656 "/>
</g>

<g fill="#ffffff" fill-opacity="1" stroke="none" transform="matrix(0.875,0,0,0.875,12.5,5.5)"
font-family="Inter" font-size="11" font-weight="700" font-style="normal" 
>
<path vector-effect="none" fill-rule="nonzero" d="M19.3477,2.17556 C19.3477,1.1655 18.5345,0.352295 17.5245,0.352295 L15.421,0.352295 C15.3967,0.978115 14.8864,1.65501 14.2544,1.65501 L9.74561,1.65501 C9.11363,1.65501 8.60331,0.978115 8.579,0.352295 L6.47555,0.352295 C5.46549,0.352295 4.65234,1.1655 4.65234,2.17556 L4.65234,21.8245 C4.65234,22.8346 5.46549,23.6477 6.47555,23.6477 L17.5245,23.6477 C18.5345,23.6477 19.3477,22.8346 19.3477,21.8245 L19.3477,2.17556"/>
</g>

<g fill="none" stroke="#000000" stroke-opacity="1" stroke-width="0.54" stroke-linecap="butt" stroke-linejoin="miter" stroke-miterlimit="4" transform="matrix(0.875,0,0,0.875,12.5,5.5)"
font-family="Inter" font-size="11" font-weight="700" font-style="normal" 
>
<path vector-effect="none" fill-rule="nonzero" d="M19.3477,2.17556 C19.3477,1.1655 18.5345,0.352295 17.5245,0.352295 L15.421,0.352295 C15.3967,0.978115 14.8864,1.65501 14.2544,1.65501 L9.74561,1.65501 C9.11363,1.65501 8.60331,0.978115 8.579,0.352295 L6.47555,0.352295 C5.46549,0.352295 4.65234,1.1655 4.65234,2.17556 L4.65234,21.8245 C4.65234,22.8346 5.46549,23.6477 6.47555,23.6477 L17.5245,23.6477 C18.5345,23.6477 19.3477,22.8346 19.3477,21.8245 L19.3477,2.17556"/>
</g>

<g fill="#000000" fill-opacity="1" stroke="none" transform="matrix(0.875,0,0,0.875,12.5,5.5)"
font-family="Inter" font-size="11" font-weight="700" font-style="normal" 
>
<path vector-effect="none" fill-rule="nonzero" d="M8.55279,0.0832003 L15.2156,0.078175 L15.1496,1.19313 L14.4976,1.7259 L10.969,1.6815 L9.31986,1.6371 L8.82126,1.01554 L8.55279,0.0832003"/>
</g>

<g fill="#000000" fill-opacity="1" stroke="none" transform="matrix(0.875,0,0,0.875,12.5,5.5)"
font-family="Inter" font-size="11" font-weight="700" font-style="normal" 
>
<path vector-effect="none" fill-rule="evenodd" d="M6.11071,8.3594 C6.11071,7.88539 6.49497,7.50113 6.96898,7.50113 L8.25014,7.50113 C8.72415,7.50113 9.10842,7.88539 9.10842,8.3594 L9.10842,9.64056 C9.10842,10.1146 8.72415,10.4988 8.25014,10.4988 L6.96898,10.4988 C6.49497,10.4988 6.11071,10.1146 6.11071,9.64056 L6.11071,8.3594"/>
</g>

<g fill="#000000" fill-opacity="1" stroke="none" transform="matrix(0.875,0,0,0.875,12.5,5.5)"
font-family="Inter" font-size="11" font-weight="700" font-style="normal" 
>
<path vector-effect="none" fill-rule="evenodd" d="M10.5496,8.3594 C10.5496,7.88539 10.9339,7.50113 11.4079,7.50113 L12.6891,7.50113 C13.1631,7.50113 13.5473,7.88539 13.5473,8.3594 L13.5473,9.64056 C13.5473,10.1146 13.1631,10.4988 12.6891,10.4988 L11.4079,10.4988 C10.9339,10.4988 10.5496,10.1146 10.5496,9.64056 L10.5496,8.3594"/>
</g>

<g fill="#000000" fill-opacity="1" stroke="none" transform="matrix(0.875,0,0,0.875,12.5,5.5)"
font-family="Inter" font-size="11" font-weight="700" font-style="normal" 
>
<path vector-effect="none" fill-rule="evenodd" d="M15.0174,8.35023 C15.0174,7.87622 15.4016,7.49196 15.8756,7.49196 L17.1568,7.49196 C17.6308,7.49196 18.0151,7.87622 18.0151,8.35023 L18.0151,9.63139 C18.0151,10.1054 17.6308,10.4897 17.1568,10.4897 L15.8756,10.4897 C15.4016,10.4897 15.0174,10.1054 15.0174,9.63139 L15.0174,8.35023"/>
</g>

<g fill="#000000" fill-opacity="1" stroke="none" transform="matrix(0.875,0,0,0.875,12.5,5.5)"
font-family="Inter" font-size="11" font-weight="700" font-style="normal" 
>
<path vector-effect="none" fill-rule="evenodd" d="M6.0963,12.6784 C6.0963,12.2044 6.48056,11.8202 6.95457,11.8202 L8.23573,11.8202 C8.70974,11.8202 9.094,12.2044 9.094,12.6784 L9.094,13.9596 C9.094,14.4336 8.70974,14.8179 8.23573,14.8179 L6.95457,14.8179 C6.48056,14.8179 6.0963,14.4336 6.0963,13.9596 L6.0963,12.6784"/>
</g>

<g fill="#000000" fill-opacity="1" stroke="none" transform="matrix(0.875,0,0,0.875,12.5,5.5)"
font-family="Inter" font-size="11" font-weight="700" font-style="normal" 
>
<path vector-effect="none" fill-rule="evenodd" d="M10.5352,12.6784 C10.5352,12.2044 10.9195,11.8202 11.3935,11.8202 L12.6746,11.8202 C13.1487,11.8202 13.5329,12.2044 13.5329,12.6784 L13.5329,13.9596 C13.5329,14.4336 13.1487,14.8179 12.6746,14.8179 L11.3935,14.8179 C10.9195,14.8179 10.5352,14.4336 10.5352,13.9596 L10.5352,12.6784"/>
</g>

<g fill="#000000" fill-opacity="1" stroke="none" transform="matrix(0.875,0,0,0.875,12.5,5.5)"
font-family="Inter" font-size="11" font-weight="700" font-style="normal" 
>
<path vector-effect="none" fill-rule="evenodd" d="M15.0029,12.6693 C15.0029,12.1952 15.3872,11.811 15.8612,11.811 L17.1424,11.811 C17.6164,11.811 18.0007,12.1952 18.0007,12.6693 L18.0007,13.9504 C18.0007,14.4244 17.6164,14.8087 17.1424,14.8087 L15.8612,14.8087 C15.3872,14.8087 15.0029,14.4244 15.0029,13.9504 L15.0029,12.6693"/>
</g>

<g fill="#000000" fill-opacity="1" stroke="none" transform="matrix(0.875,0,0,0.875,12.5,5.5)"
font-family="Inter" font-size="11" font-weight="700" font-style="normal" 
>
<path vector-effect="none" fill-rule="evenodd" d="M6.08909,20.0932 C6.08909,19.6192 6.47335,19.2349 6.94737,19.2349 L8.22852,19.2349 C8.70253,19.2349 9.0868,19.6192 9.0868,20.0932 L9.0868,21.3744 C9.0868,21.8484 8.70253,22.2326 8.22852,22.2326 L6.94737,22.2326 C6.47335,22.2326 6.08909,21.8484 6.08909,21.3744 L6.08909,20.0932"/>
</g>

<g fill="#000000" fill-opacity="1" stroke="none" transform="matrix(0.875,0,0,0.875,12.5,5.5)"
font-family="Inter" font-size="11" font-weight="700" font-style="normal" 
>
<path vector-effect="none" fill-rule="evenodd" d="M10.528,20.0932 C10.528,19.6192 10.9123,19.2349 11.3863,19.2349 L12.6674,19.2349 C13.1414,19.2349 13.5257,19.6192 13.5257,20.0932 L13.5257,21.3744 C13.5257,21.8484 13.1414,22.2326 12.6674,22.2326 L11.3863,22.2326 C10.9123,22.2326 10.528,21.8484 10.528,21.3744 L10.528,20.0932"/>
</g>

<g fill="#000000" fill-opacity="1" stroke="none" transform="matrix(0.875,0,0,0.875,12.5,5.5)"
font-family="Inter" font-size="11" font-weight="700" font-style="normal" 
>
<path vector-effect="none" fill-rule="evenodd" d="M14.9957,20.084 C14.9957,19.61 15.38,19.2258 15.854,19.2258 L17.1352,19.2258 C17.6092,19.2258 17.9934,19.61 17.9934,20.084 L17.9934,21.3652 C17.9934,21.8392 17.6092,22.2235 17.1352,22.2235 L15.854,22.2235 C15.38,22.2235 14.9957,21.8392 14.9957,21.3652 L14.9957,20.084"/>
</g>

<g fill="#000000" fill-opacity="1" stroke="none" transform="matrix(0.875,0,0,0.875,12.5,5.5)"
font-family="Inter" font-size="11" font-weight="700" font-style="normal" 
>
<path vector-effect="none" fill-rule="evenodd" d="M6.0963,3.97357 C6.0963,3.49956 6.48056,3.1153 6.95457,3.1153 L8.23573,3.1153 C8.70974,3.1153 9.094,3.49956 9.094,3.97357 L9.094,5.25473 C9.094,5.72874 8.70974,6.11301 8.23573,6.11301 L6.95457,6.11301 C6.48056,6.11301 6.0963,5.72874 6.0963,5.25473 L6.0963,3.97357"/>
</g>

<g fill="#000000" fill-opacity="1" stroke="none" transform="matrix(0.875,0,0,0.875,12.5,5.5)"
font-family="Inter" font-size="11" font-weight="700" font-style="normal" 
>
<path vector-effect="none" fill-rule="evenodd" d="M10.5352,3.97357 C10.5352,3.49956 10.9195,3.1153 11.3935,3.1153 L12.6746,3.1153 C13.1487,3.1153 13.5329,3.49956 13.5329,3.97357 L13.5329,5.25473 C13.5329,5.72874 13.1487,6.11301 12.6746,6.11301 L11.3935,6.11301 C10.9195,6.11301 10.5352,5.72874 10.5352,5.25473 L10.5352,3.97357"/>
</g>

<g fill="#000000" fill-opacity="1" stroke="none" transform="matrix(0.875,0,0,0.875,12.5,5.5)"
font-family="Inter" font-size="11" font-weight="700" font-style="normal" 
>
<path vector-effect="none" fill-rule="evenodd" d="M15.0029,3.9644 C15.0029,3.49039 15.3872,3.10613 15.8612,3.10613 L17.1424,3.10613 C17.6164,3.10613 18.0007,3.49039 18.0007,3.9644 L18.0007,5.24556 C18.0007,5.71957 17.6164,6.10383 17.1424,6.10383 L15.8612,6.10383 C15.3872,6.10383 15.0029,5.71957 15.0029,5.24556 L15.0029,3.9644"/>
</g>

<g fill="#000000" fill-opacity="1" stroke="none" transform="matrix(0.875,0,0,0.875,12.1889,9.91)"
font-family="Inter" font-size="11" font-weight="700" font-style="normal" 
>
<path vector-effect="none" fill-rule="nonzero" d="M11.5955,12 C11.5955,12.1541 11.4706,12.2791 11.3165,12.2791 C11.1624,12.2791 11.0374,12.1542 11.0374,12 C11.0374,11.8459 11.1623,11.721 11.3164,11.7209 C11.4705,11.7209 11.5955,11.8458 11.5955,11.9999 "/>
</g>

<g fill="#000000" fill-opacity="1" stroke="none" transform="matrix(0.875,0,0,0.875,12.1889,9.91)"
font-family="Inter" font-size="11" font-weight="700" font-style="normal" 
>
<path vector-effect="none" fill-rule="nonzero" d="M12.9831,12 C12.9831,12.1541 12.8581,12.2791 12.704,12.2791 C12.5499,12.2791 12.425,12.1542 12.4249,12 C12.4249,11.8459 12.5498,11.721 12.7039,11.7209 C12.8581,11.7209 12.983,11.8458 12.9831,11.9999 "/>
</g>

<g fill="#000000" fill-opacity="1" stroke="none" transform="matrix(0.875,0,0,0.875,12.1889,9.91)"
font-family="Inter" font-size="11" font-weight="700" font-style="normal" 
>
<path vector-effect="none" fill-rule="nonzero" d="M13.6738,12 C13.6738,12.1541 13.5488,12.2791 13.3947,12.2791 C13.2406,12.2791 13.1156,12.1542 13.1156,12 C13.1156,11.8459 13.2405,11.721 13.3946,11.7209 C13.5487,11.7209 13.6737,11.8458 13.6738,11.9999 "/>
</g>

<g fill="#000000" fill-opacity="1" stroke="none" transform="matrix(0.875,0,0,0.875,12.1889,9.91)"
font-family="Inter" font-size="11" font-weight="700" font-style="normal" 
>
<path vector-effect="none" fill-rule="nonzero" d="M12.2791,12 C12.2791,12.1541 12.1541,12.2791 12,12.2791 C11.8459,12.2791 11.7209,12.1542 11.7209,12 C11.7209,11.8459 11.8458,11.721 11.9999,11.7209 C12.1541,11.7209 12.279,11.8458 12.2791,11.9999 "/>
</g>

<g fill="#ffffff" fill-opacity="1" stroke="none" transform="matrix(1,0,0,1,0,0)"
font-family="Inter" font-size="11" font-weight="700" font-style="normal" 
>
</g>

<g fill="#ffffff" fill-opacity="1" stroke="#0da6c5" stroke-opacity="1" stroke-width="1" stroke-linecap="square" stroke-linejoin="bevel" transform="matrix(1,0,0,1,0,0)"
font-family="Inter" font-size="11" font-weight="700" font-style="normal" 
>
<polyline fill="none" vector-effect="none" points="45,6 45,26 " />
</g>

<g fill="#ffffff" fill-opacity="1" stroke="#0da6c5" stroke-opacity="1" stroke-width="1" stroke-linecap="square" stroke-linejoin="bevel" transform="matrix(1,0,0,1,0,0)"
font-family="Inter" font-size="11" font-weight="700" font-style="normal" 
>
</g>

<g fill="none" stroke="#000000" stroke-opacity="1" stroke-width="1" stroke-linecap="square" stroke-linejoin="bevel" transform="matrix(1,0,0,1,0,0)"
font-family=".AppleSystemUIFont" font-size="13" font-weight="400" font-style="normal" 
>
</g>
</g>
</svg>
