<?xml version="1.0" encoding="UTF-8" standalone="no"?>
<svg width="104.422mm" height="11.2889mm"
 viewBox="0 0 296 32"
 xmlns="http://www.w3.org/2000/svg" xmlns:xlink="http://www.w3.org/1999/xlink" version="1.2" baseProfile="tiny">
<title>Abstract block</title>
<desc>block_hubs_all_sensors_port_technic_sensor_distance</desc>
<defs>
</defs>
<g fill="none" stroke="black" stroke-width="1" fill-rule="evenodd" stroke-linecap="square" stroke-linejoin="bevel" >

<g fill="none" stroke="#000000" stroke-opacity="1" stroke-width="1" stroke-linecap="square" stroke-linejoin="bevel" transform="matrix(1,0,0,1,0,0)"
font-family=".AppleSystemUIFont" font-size="13" font-weight="400" font-style="normal" 
>
</g>

<g fill="none" stroke="#000000" stroke-opacity="1" stroke-width="1" stroke-linecap="square" stroke-linejoin="bevel" transform="matrix(1,0,0,1,0,0)"
font-family=".AppleSystemUIFont" font-size="13" font-weight="400" font-style="normal" 
>
</g>

<g fill="#1dccf0" fill-opacity="1" stroke="#0da6c5" stroke-opacity="1" stroke-width="1.2" stroke-linecap="square" stroke-linejoin="bevel" transform="matrix(1,0,0,1,0,0)"
font-family=".AppleSystemUIFont" font-size="13" font-weight="400" font-style="normal" 
>
<path vector-effect="none" fill-rule="evenodd" d="M1,16 C1,7.71573 8.16344,1 17,1 L278.667,1 C287.503,1 294.667,7.71573 294.667,16 C294.667,24.2843 287.503,31 278.667,31 L17,31 C8.16344,31 1,24.2843 1,16 "/>
</g>

<g fill="#ffffff" fill-opacity="1" stroke="none" transform="matrix(1,0,0,1,0,0)"
font-family="Inter" font-size="11" font-weight="700" font-style="normal" 
>
<path vector-effect="none" fill-rule="nonzero" d="M183.297,20.0508 C182.841,20.0508 182.429,19.9329 182.061,19.6973 C181.692,19.4616 181.4,19.1139 181.186,18.6543 C180.971,18.1947 180.863,17.6302 180.863,16.9609 C180.863,16.2734 180.974,15.7012 181.195,15.2441 C181.417,14.7871 181.712,14.4447 182.08,14.2168 C182.449,13.9889 182.853,13.875 183.293,13.875 C183.629,13.875 183.91,13.9316 184.135,14.0449 C184.36,14.1582 184.542,14.2988 184.682,14.4668 C184.821,14.6348 184.927,14.7995 185,14.9609 L185.051,14.9609 L185.051,11.9531 L186.711,11.9531 L186.711,19.9531 L185.07,19.9531 L185.07,18.9922 L185,18.9922 C184.922,19.1589 184.812,19.3236 184.67,19.4863 C184.528,19.6491 184.344,19.7839 184.119,19.8906 C183.894,19.9974 183.62,20.0508 183.297,20.0508 M183.824,18.7266 C184.092,18.7266 184.32,18.653 184.506,18.5059 C184.692,18.3587 184.835,18.1523 184.936,17.8867 C185.036,17.6211 185.086,17.3099 185.086,16.9531 C185.086,16.5964 185.036,16.2865 184.938,16.0234 C184.839,15.7604 184.695,15.5573 184.508,15.4141 C184.32,15.2708 184.092,15.1992 183.824,15.1992 C183.551,15.1992 183.32,15.2734 183.133,15.4219 C182.945,15.5703 182.803,15.776 182.707,16.0391 C182.611,16.3021 182.563,16.6068 182.563,16.9531 C182.563,17.3021 182.611,17.61 182.709,17.877 C182.807,18.1439 182.949,18.3522 183.135,18.502 C183.321,18.6517 183.551,18.7266 183.824,18.7266 M188.07,19.9531 L188.07,13.9531 L189.734,13.9531 L189.734,19.9531 L188.07,19.9531 M188.906,13.1797 C188.659,13.1797 188.447,13.097 188.271,12.9316 C188.096,12.7663 188.008,12.5677 188.008,12.3359 C188.008,12.1068 188.096,11.9095 188.271,11.7441 C188.447,11.5788 188.659,11.4961 188.906,11.4961 C189.154,11.4961 189.365,11.5788 189.541,11.7441 C189.717,11.9095 189.805,12.1068 189.805,12.3359 C189.805,12.5677 189.717,12.7663 189.541,12.9316 C189.365,13.097 189.154,13.1797 188.906,13.1797 M196.047,15.6641 L194.523,15.7578 C194.497,15.6276 194.441,15.5098 194.355,15.4043 C194.27,15.2988 194.157,15.2142 194.018,15.1504 C193.878,15.0866 193.712,15.0547 193.52,15.0547 C193.262,15.0547 193.044,15.1087 192.867,15.2168 C192.69,15.3249 192.602,15.4688 192.602,15.6484 C192.602,15.7917 192.659,15.9128 192.773,16.0117 C192.888,16.1107 193.085,16.1901 193.363,16.25 L194.449,16.4688 C195.033,16.5885 195.467,16.7813 195.754,17.0469 C196.04,17.3125 196.184,17.6615 196.184,18.0938 C196.184,18.487 196.068,18.832 195.838,19.1289 C195.607,19.4258 195.292,19.6569 194.893,19.8223 C194.493,19.9876 194.033,20.0703 193.512,20.0703 C192.717,20.0703 192.085,19.9043 191.615,19.5723 C191.145,19.2402 190.87,18.7878 190.789,18.2148 L192.426,18.1289 C192.475,18.3711 192.595,18.5553 192.785,18.6816 C192.975,18.8079 193.219,18.8711 193.516,18.8711 C193.807,18.8711 194.042,18.8145 194.221,18.7012 C194.399,18.5879 194.49,18.4414 194.492,18.2617 C194.49,18.1107 194.426,17.9863 194.301,17.8887 C194.176,17.791 193.983,17.7161 193.723,17.6641 L192.684,17.457 C192.098,17.3398 191.662,17.1367 191.377,16.8477 C191.092,16.5586 190.949,16.1901 190.949,15.7422 C190.949,15.3568 191.054,15.0247 191.264,14.7461 C191.473,14.4674 191.769,14.2526 192.15,14.1016 C192.532,13.9505 192.979,13.875 193.492,13.875 C194.25,13.875 194.847,14.0352 195.283,14.3555 C195.719,14.6758 195.974,15.112 196.047,15.6641 M200.418,13.9531 L200.418,15.2031 L196.805,15.2031 L196.805,13.9531 L200.418,13.9531 M197.625,12.5156 L199.289,12.5156 L199.289,18.1094 C199.289,18.263 199.313,18.3822 199.359,18.4668 C199.406,18.5514 199.472,18.6107 199.557,18.6445 C199.641,18.6784 199.74,18.6953 199.852,18.6953 C199.93,18.6953 200.008,18.6882 200.086,18.6738 C200.164,18.6595 200.224,18.6484 200.266,18.6406 L200.527,19.8789 C200.444,19.9049 200.327,19.9355 200.176,19.9707 C200.025,20.0059 199.841,20.0273 199.625,20.0352 C199.224,20.0508 198.873,19.9974 198.572,19.875 C198.271,19.7526 198.038,19.5625 197.871,19.3047 C197.704,19.0469 197.622,18.7214 197.625,18.3281 L197.625,12.5156 M203.203,20.0664 C202.82,20.0664 202.479,19.9993 202.18,19.8652 C201.88,19.7311 201.644,19.5319 201.471,19.2676 C201.298,19.0033 201.211,18.6732 201.211,18.2773 C201.211,17.944 201.272,17.6641 201.395,17.4375 C201.517,17.2109 201.684,17.0286 201.895,16.8906 C202.105,16.7526 202.346,16.6484 202.615,16.5781 C202.885,16.5078 203.168,16.4583 203.465,16.4297 C203.814,16.3932 204.095,16.3587 204.309,16.3262 C204.522,16.2936 204.677,16.2448 204.773,16.1797 C204.87,16.1146 204.918,16.0182 204.918,15.8906 L204.918,15.8672 C204.918,15.6198 204.84,15.4284 204.686,15.293 C204.531,15.1576 204.311,15.0898 204.027,15.0898 C203.728,15.0898 203.49,15.1556 203.313,15.2871 C203.135,15.4186 203.018,15.5833 202.961,15.7813 L201.422,15.6563 C201.5,15.2917 201.654,14.9759 201.883,14.709 C202.112,14.4421 202.408,14.2363 202.771,14.0918 C203.135,13.9473 203.556,13.875 204.035,13.875 C204.368,13.875 204.688,13.9141 204.994,13.9922 C205.3,14.0703 205.572,14.1914 205.811,14.3555 C206.049,14.5195 206.237,14.7298 206.375,14.9863 C206.513,15.2428 206.582,15.5495 206.582,15.9063 L206.582,19.9531 L205.004,19.9531 L205.004,19.1211 L204.957,19.1211 C204.861,19.3086 204.732,19.4733 204.57,19.6152 C204.409,19.7572 204.215,19.8678 203.988,19.9473 C203.762,20.0267 203.5,20.0664 203.203,20.0664 M203.68,18.918 C203.924,18.918 204.141,18.8691 204.328,18.7715 C204.516,18.6738 204.663,18.5417 204.77,18.375 C204.876,18.2083 204.93,18.0195 204.93,17.8086 L204.93,17.1719 C204.878,17.2057 204.807,17.2363 204.717,17.2637 C204.627,17.291 204.526,17.3158 204.414,17.3379 C204.302,17.36 204.19,17.3796 204.078,17.3965 C203.966,17.4134 203.865,17.4284 203.773,17.4414 C203.578,17.4701 203.408,17.5156 203.262,17.5781 C203.116,17.6406 203.003,17.7246 202.922,17.8301 C202.841,17.9355 202.801,18.0664 202.801,18.2227 C202.801,18.4492 202.883,18.6217 203.049,18.7402 C203.214,18.8587 203.424,18.918 203.68,18.918 M209.531,16.4844 L209.531,19.9531 L207.867,19.9531 L207.867,13.9531 L209.453,13.9531 L209.453,15.0117 L209.523,15.0117 C209.656,14.6628 209.879,14.3861 210.191,14.1816 C210.504,13.9772 210.883,13.875 211.328,13.875 C211.745,13.875 212.108,13.9661 212.418,14.1484 C212.728,14.3307 212.969,14.5905 213.141,14.9277 C213.313,15.265 213.398,15.6667 213.398,16.1328 L213.398,19.9531 L211.734,19.9531 L211.734,16.4297 C211.737,16.0625 211.643,15.7754 211.453,15.5684 C211.263,15.3613 211.001,15.2578 210.668,15.2578 C210.444,15.2578 210.247,15.306 210.076,15.4023 C209.906,15.4987 209.773,15.6387 209.678,15.8223 C209.583,16.0059 209.534,16.2266 209.531,16.4844 M217.406,20.0703 C216.792,20.0703 216.264,19.9395 215.822,19.6777 C215.381,19.416 215.042,19.0521 214.807,18.5859 C214.571,18.1198 214.453,17.5833 214.453,16.9766 C214.453,16.362 214.572,15.8223 214.811,15.3574 C215.049,14.8926 215.388,14.5293 215.828,14.2676 C216.268,14.0059 216.792,13.875 217.398,13.875 C217.922,13.875 218.38,13.9701 218.773,14.1602 C219.167,14.3503 219.478,14.6172 219.707,14.9609 C219.936,15.3047 220.063,15.7083 220.086,16.1719 L218.516,16.1719 C218.471,15.8724 218.355,15.6309 218.166,15.4473 C217.977,15.2637 217.73,15.1719 217.426,15.1719 C217.168,15.1719 216.943,15.2415 216.752,15.3809 C216.561,15.5202 216.411,15.7227 216.305,15.9883 C216.198,16.2539 216.145,16.5755 216.145,16.9531 C216.145,17.3359 216.197,17.6615 216.303,17.9297 C216.408,18.1979 216.557,18.4023 216.75,18.543 C216.943,18.6836 217.168,18.7539 217.426,18.7539 C217.616,18.7539 217.787,18.7148 217.939,18.6367 C218.092,18.5586 218.218,18.4447 218.318,18.2949 C218.419,18.1452 218.484,17.9648 218.516,17.7539 L220.086,17.7539 C220.06,18.2122 219.936,18.6152 219.713,18.9629 C219.49,19.3105 219.184,19.582 218.793,19.7773 C218.402,19.9727 217.94,20.0703 217.406,20.0703 M223.883,20.0703 C223.266,20.0703 222.735,19.9447 222.291,19.6934 C221.847,19.4421 221.505,19.0853 221.266,18.623 C221.026,18.1608 220.906,17.6133 220.906,16.9805 C220.906,16.3633 221.026,15.8216 221.266,15.3555 C221.505,14.8893 221.843,14.526 222.279,14.2656 C222.715,14.0052 223.228,13.875 223.816,13.875 C224.212,13.875 224.581,13.9382 224.924,14.0645 C225.266,14.1908 225.566,14.3802 225.822,14.6328 C226.079,14.8854 226.279,15.2025 226.422,15.584 C226.565,15.9655 226.637,16.4115 226.637,16.9219 L226.637,17.3789 L221.57,17.3789 L221.57,16.3477 L225.07,16.3477 C225.07,16.1081 225.018,15.8958 224.914,15.7109 C224.81,15.526 224.666,15.3809 224.482,15.2754 C224.299,15.1699 224.086,15.1172 223.844,15.1172 C223.591,15.1172 223.368,15.1751 223.174,15.291 C222.98,15.4069 222.828,15.5618 222.719,15.7559 C222.609,15.9499 222.553,16.1654 222.551,16.4023 L222.551,17.3828 C222.551,17.6797 222.606,17.9362 222.717,18.1523 C222.827,18.3685 222.984,18.5352 223.188,18.6523 C223.391,18.7695 223.632,18.8281 223.91,18.8281 C224.095,18.8281 224.264,18.8021 224.418,18.75 C224.572,18.6979 224.703,18.6198 224.813,18.5156 C224.922,18.4115 225.005,18.2839 225.063,18.1328 L226.602,18.2344 C226.523,18.6042 226.364,18.9264 226.123,19.2012 C225.882,19.4759 225.572,19.6895 225.193,19.8418 C224.814,19.9941 224.378,20.0703 223.883,20.0703 "/>
</g>

<g fill="#000000" fill-opacity="1" stroke="none" transform="matrix(0.0285,0,0,0.0285,11.2928,4.44754)"
font-family="Inter" font-size="11" font-weight="700" font-style="normal" 
>
<path vector-effect="none" fill-rule="evenodd" d="M77.1542,268.175 C77.1542,261.377 82.6643,255.867 89.4614,255.867 L726.471,255.867 C733.268,255.867 738.778,261.377 738.778,268.175 L738.778,543.325 C738.778,550.122 733.268,555.632 726.471,555.632 L89.4614,555.632 C82.6643,555.632 77.1542,550.122 77.1542,543.325 L77.1542,268.175"/>
</g>

<g fill="#ffffff" fill-opacity="1" stroke="none" transform="matrix(0.0285,0,0,0.0285,11.2928,4.44754)"
font-family="Inter" font-size="11" font-weight="700" font-style="normal" 
>
<path vector-effect="none" fill-rule="nonzero" d="M117.539,204.078 C73.593,204.078 38.2132,239.458 38.2132,283.404 L38.2132,527.295 C38.2132,571.241 73.593,606.621 117.539,606.621 L704.016,606.621 C747.962,606.621 783.342,571.241 783.342,527.295 L783.342,283.404 C783.342,239.458 747.962,204.078 704.016,204.078 L117.539,204.078 M188.473,307.332 C189.296,307.38 190.118,307.439 190.94,307.508 L622.539,307.508 C623.356,307.439 624.173,307.38 624.991,307.332 C625.814,307.38 626.636,307.439 627.457,307.508 L636.002,307.508 L636.002,308.117 C685.495,313.701 722.932,355.514 723.032,405.32 L723.032,405.35 C723.032,459.481 679.151,503.364 625.02,503.367 C584.241,503.26 547.789,477.915 533.487,439.727 L280.022,439.727 C265.722,477.911 229.276,503.254 188.502,503.367 C134.371,503.371 90.4845,459.495 90.4769,405.363 C90.6004,353.813 130.633,311.168 182.073,307.791 L182.073,307.508 L186.022,307.508 C186.838,307.439 187.655,307.38 188.473,307.332 "/>
</g>

<g fill="none" stroke="#000000" stroke-opacity="1" stroke-width="6.2" stroke-linecap="round" stroke-linejoin="round" transform="matrix(0.0285,0,0,0.0285,11.2928,4.44754)"
font-family="Inter" font-size="11" font-weight="700" font-style="normal" 
>
<path vector-effect="none" fill-rule="nonzero" d="M117.539,204.078 C73.593,204.078 38.2132,239.458 38.2132,283.404 L38.2132,527.295 C38.2132,571.241 73.593,606.621 117.539,606.621 L704.016,606.621 C747.962,606.621 783.342,571.241 783.342,527.295 L783.342,283.404 C783.342,239.458 747.962,204.078 704.016,204.078 L117.539,204.078 M188.473,307.332 C189.296,307.38 190.118,307.439 190.94,307.508 L622.539,307.508 C623.356,307.439 624.173,307.38 624.991,307.332 C625.814,307.38 626.636,307.439 627.457,307.508 L636.002,307.508 L636.002,308.117 C685.495,313.701 722.932,355.514 723.032,405.32 L723.032,405.35 C723.032,459.481 679.151,503.364 625.02,503.367 C584.241,503.26 547.789,477.915 533.487,439.727 L280.022,439.727 C265.722,477.911 229.276,503.254 188.502,503.367 C134.371,503.371 90.4845,459.495 90.4769,405.363 C90.6004,353.813 130.633,311.168 182.073,307.791 L182.073,307.508 L186.022,307.508 C186.838,307.439 187.655,307.38 188.473,307.332 "/>
</g>

<g fill="none" stroke="#000000" stroke-opacity="1" stroke-width="20.9" stroke-linecap="round" stroke-linejoin="round" transform="matrix(0.0285,0,0,0.0285,11.2928,4.44754)"
font-family="Inter" font-size="11" font-weight="700" font-style="normal" 
>
<path vector-effect="none" fill-rule="evenodd" d="M38.2128,283.405 C38.2128,239.594 73.7281,204.079 117.539,204.079 L704.017,204.079 C747.827,204.079 783.343,239.594 783.343,283.405 L783.343,527.295 C783.343,571.105 747.827,606.62 704.017,606.62 L117.539,606.62 C73.7281,606.62 38.2128,571.105 38.2128,527.295 L38.2128,283.405"/>
</g>

<g fill="#ffffff" fill-opacity="1" stroke="none" transform="matrix(0.0285,0,0,0.0285,11.2928,4.44754)"
font-family="Inter" font-size="11" font-weight="700" font-style="normal" 
>
<path vector-effect="none" fill-rule="nonzero" d="M189.416,322.311 C147.948,322.32 113.429,353.149 107.577,393.043 L132.33,393.043 C137.826,366.507 161.188,346.731 189.422,346.725 C217.665,346.718 241.042,366.497 246.539,393.043 L271.293,393.043 C265.438,353.135 230.897,322.301 189.416,322.311 M107.653,417.656 C113.757,457.276 148.168,487.806 189.442,487.803 C230.712,487.8 265.114,457.271 271.217,417.656 L246.405,417.656 C240.687,443.898 217.467,463.387 189.44,463.389 C161.41,463.39 138.185,443.901 132.465,417.656 L107.653,417.656"/>
</g>

<g fill="#ffffff" fill-opacity="1" stroke="none" transform="matrix(0.0285,0,0,0.0285,11.2928,4.44754)"
font-family="Inter" font-size="11" font-weight="700" font-style="normal" 
>
<path vector-effect="none" fill-rule="nonzero" d="M625.46,323.067 C583.991,323.076 549.473,353.906 543.62,393.8 L568.374,393.8 C573.87,367.264 597.232,347.488 625.466,347.481 C653.709,347.475 677.085,367.254 682.583,393.8 L707.337,393.8 C701.482,353.892 666.941,323.058 625.46,323.067 M543.696,418.413 C549.801,458.033 584.211,488.563 625.485,488.56 C666.755,488.557 701.157,458.028 707.261,418.413 L682.448,418.413 C676.73,444.655 653.511,464.143 625.483,464.146 C597.453,464.148 574.228,444.658 568.509,418.413 L543.696,418.413"/>
</g>

<g fill="#ffffff" fill-opacity="1" stroke="none" transform="matrix(1,0,0,1,0,0)"
font-family="Inter" font-size="11" font-weight="700" font-style="normal" 
>
</g>

<g fill="#ffffff" fill-opacity="1" stroke="#0da6c5" stroke-opacity="1" stroke-width="1" stroke-linecap="square" stroke-linejoin="bevel" transform="matrix(1,0,0,1,0,0)"
font-family="Inter" font-size="11" font-weight="700" font-style="normal" 
>
<polyline fill="none" vector-effect="none" points="45,6 45,26 " />
</g>

<g fill="#ffffff" fill-opacity="1" stroke="#0da6c5" stroke-opacity="1" stroke-width="1" stroke-linecap="square" stroke-linejoin="bevel" transform="matrix(1,0,0,1,0,0)"
font-family="Inter" font-size="11" font-weight="700" font-style="normal" 
>
</g>

<g fill="#0da6c5" fill-opacity="1" stroke="#0da6c5" stroke-opacity="1" stroke-width="1.2" stroke-linecap="square" stroke-linejoin="bevel" transform="matrix(1,0,0,1,135,4)"
font-family="Inter" font-size="11" font-weight="700" font-style="normal" 
>
<path vector-effect="none" fill-rule="evenodd" d="M0.5,12 C0.5,5.64873 5.87258,0.5 12.5,0.5 L27.5,0.5 C34.1274,0.5 39.5,5.64873 39.5,12 C39.5,18.3513 34.1274,23.5 27.5,23.5 L12.5,23.5 C5.87258,23.5 0.5,18.3513 0.5,12 "/>
</g>

<g fill="#ffffff" fill-opacity="1" stroke="none" transform="matrix(1,0,0,1,135,4)"
font-family="Inter" font-size="11" font-weight="700" font-style="normal" 
>
<path vector-effect="none" fill-rule="nonzero" d="M11.8242,16 L10.0117,16 L12.7734,8 L14.9531,8 L17.7109,16 L15.8984,16 L13.8945,9.82813 L13.832,9.82813 L11.8242,16 M11.7109,12.8555 L15.9922,12.8555 L15.9922,14.1758 L11.7109,14.1758 L11.7109,12.8555"/>
</g>

<g fill="#ffffff" fill-opacity="1" stroke="none" transform="matrix(0.03125,0,0,0.03125,161,12)"
font-family="Inter" font-size="11" font-weight="700" font-style="normal" 
>
<path vector-effect="none" fill-rule="nonzero" d="M111.326,191.938 C120.545,201.158 135.517,201.158 144.737,191.938 L239.144,97.5313 C245.929,90.7458 247.921,80.6413 244.233,71.7907 C240.545,62.9401 231.989,57.1871 222.401,57.1871 L33.5875,57.2608 C24.0731,57.2608 15.4437,63.0137 11.7559,71.8644 C8.06815,80.715 10.1333,90.8195 16.845,97.605 L111.252,192.012 L111.326,191.938"/>
</g>

<g fill="none" stroke="#000000" stroke-opacity="1" stroke-width="13.7195" stroke-linecap="butt" stroke-linejoin="miter" stroke-miterlimit="4" transform="matrix(0.03125,0,0,0.03125,161,12)"
font-family="Inter" font-size="11" font-weight="700" font-style="normal" 
>
<path vector-effect="none" fill-rule="nonzero" d="M111.326,191.938 C120.545,201.158 135.517,201.158 144.737,191.938 L239.144,97.5313 C245.929,90.7458 247.921,80.6413 244.233,71.7907 C240.545,62.9401 231.989,57.1871 222.401,57.1871 L33.5875,57.2608 C24.0731,57.2608 15.4437,63.0137 11.7559,71.8644 C8.06815,80.715 10.1333,90.8195 16.845,97.605 L111.252,192.012 L111.326,191.938"/>
</g>

<g fill="#ffffff" fill-opacity="1" stroke="none" transform="matrix(1,0,0,1,135,4)"
font-family="Inter" font-size="11" font-weight="700" font-style="normal" 
>
</g>

<g fill="#ffffff" fill-opacity="1" stroke="#0da6c5" stroke-opacity="1" stroke-width="1" stroke-linecap="square" stroke-linejoin="bevel" transform="matrix(1,0,0,1,0,0)"
font-family="Inter" font-size="11" font-weight="700" font-style="normal" 
>
</g>

<g fill="#1dccf0" fill-opacity="1" stroke="#0da6c5" stroke-opacity="1" stroke-width="1.2" stroke-linecap="square" stroke-linejoin="bevel" transform="matrix(1,0,0,1,56,4)"
font-family="Inter" font-size="11" font-weight="700" font-style="normal" 
>
<path vector-effect="none" fill-rule="evenodd" d="M0.5,3.5 C0.5,1.84315 1.84315,0.5 3.5,0.5 L71.5,0.5 C73.1569,0.5 74.5,1.84315 74.5,3.5 L74.5,20.5 C74.5,22.1569 73.1569,23.5 71.5,23.5 L3.5,23.5 C1.84315,23.5 0.5,22.1569 0.5,20.5 L0.5,3.5"/>
</g>

<g fill="#ffffff" fill-opacity="1" stroke="none" transform="matrix(1,0,0,1,56,4)"
font-family="Inter" font-size="11" font-weight="700" font-style="normal" 
>
<path vector-effect="none" fill-rule="nonzero" d="M10,9.39453 L10,8 L16.5703,8 L16.5703,9.39453 L14.1211,9.39453 L14.1211,16 L12.4492,16 L12.4492,9.39453 L10,9.39453 M17.6484,16 L17.6484,8 L19.3398,8 L19.3398,11.3008 L22.7734,11.3008 L22.7734,8 L24.4609,8 L24.4609,16 L22.7734,16 L22.7734,12.6953 L19.3398,12.6953 L19.3398,16 L17.6484,16 M32.543,8 L32.543,16 L31.082,16 L27.6016,10.9648 L27.543,10.9648 L27.543,16 L25.8516,16 L25.8516,8 L27.3359,8 L30.7891,13.0313 L30.8594,13.0313 L30.8594,8 L32.543,8 M33.9297,16 L33.9297,8 L35.6211,8 L35.6211,11.3008 L39.0547,11.3008 L39.0547,8 L40.7422,8 L40.7422,16 L39.0547,16 L39.0547,12.6953 L35.6211,12.6953 L35.6211,16 L33.9297,16 M42.1328,16 L42.1328,8 L45.3359,8 C45.9245,8 46.4154,8.08724 46.8086,8.26172 C47.2018,8.4362 47.4974,8.67773 47.6953,8.98633 C47.8932,9.29492 47.9922,9.64974 47.9922,10.0508 C47.9922,10.3633 47.9297,10.6374 47.8047,10.873 C47.6797,11.1087 47.5085,11.3014 47.291,11.4512 C47.0736,11.6009 46.8255,11.707 46.5469,11.7695 L46.5469,11.8477 C46.8516,11.8607 47.1374,11.9466 47.4043,12.1055 C47.6712,12.2643 47.888,12.4863 48.0547,12.7715 C48.2214,13.0566 48.3047,13.3958 48.3047,13.7891 C48.3047,14.2135 48.1999,14.5918 47.9902,14.9238 C47.7806,15.2559 47.4714,15.5182 47.0625,15.7109 C46.6536,15.9036 46.1497,16 45.5508,16 L42.1328,16 M43.8242,14.6172 L45.2031,14.6172 C45.6745,14.6172 46.0182,14.5267 46.2344,14.3457 C46.4505,14.1647 46.5586,13.9232 46.5586,13.6211 C46.5586,13.3997 46.5052,13.2044 46.3984,13.0352 C46.2917,12.8659 46.14,12.7331 45.9434,12.6367 C45.7467,12.5404 45.513,12.4922 45.2422,12.4922 L43.8242,12.4922 L43.8242,14.6172 M43.8242,11.3477 L45.0781,11.3477 C45.3099,11.3477 45.5163,11.3066 45.6973,11.2246 C45.8783,11.1426 46.0215,11.026 46.127,10.875 C46.2324,10.724 46.2852,10.543 46.2852,10.332 C46.2852,10.043 46.1829,9.8099 45.9785,9.63281 C45.7741,9.45573 45.4844,9.36719 45.1094,9.36719 L43.8242,9.36719 L43.8242,11.3477 M52.832,8 L52.832,16 L51.1406,16 L51.1406,9.60547 L51.0938,9.60547 L49.2617,10.7539 L49.2617,9.25391 L51.2422,8 L52.832,8"/>
</g>

<g fill="#ffffff" fill-opacity="1" stroke="none" transform="matrix(0.03125,0,0,0.03125,117,12)"
font-family="Inter" font-size="11" font-weight="700" font-style="normal" 
>
<path vector-effect="none" fill-rule="nonzero" d="M111.326,191.938 C120.545,201.158 135.517,201.158 144.737,191.938 L239.144,97.5313 C245.929,90.7458 247.921,80.6413 244.233,71.7907 C240.545,62.9401 231.989,57.1871 222.401,57.1871 L33.5875,57.2608 C24.0731,57.2608 15.4437,63.0137 11.7559,71.8644 C8.06815,80.715 10.1333,90.8195 16.845,97.605 L111.252,192.012 L111.326,191.938"/>
</g>

<g fill="none" stroke="#000000" stroke-opacity="1" stroke-width="13.7195" stroke-linecap="butt" stroke-linejoin="miter" stroke-miterlimit="4" transform="matrix(0.03125,0,0,0.03125,117,12)"
font-family="Inter" font-size="11" font-weight="700" font-style="normal" 
>
<path vector-effect="none" fill-rule="nonzero" d="M111.326,191.938 C120.545,201.158 135.517,201.158 144.737,191.938 L239.144,97.5313 C245.929,90.7458 247.921,80.6413 244.233,71.7907 C240.545,62.9401 231.989,57.1871 222.401,57.1871 L33.5875,57.2608 C24.0731,57.2608 15.4437,63.0137 11.7559,71.8644 C8.06815,80.715 10.1333,90.8195 16.845,97.605 L111.252,192.012 L111.326,191.938"/>
</g>

<g fill="#ffffff" fill-opacity="1" stroke="none" transform="matrix(1,0,0,1,56,4)"
font-family="Inter" font-size="11" font-weight="700" font-style="normal" 
>
</g>

<g fill="#ffffff" fill-opacity="1" stroke="#0da6c5" stroke-opacity="1" stroke-width="1" stroke-linecap="square" stroke-linejoin="bevel" transform="matrix(1,0,0,1,0,0)"
font-family="Inter" font-size="11" font-weight="700" font-style="normal" 
>
</g>

<g fill="#1dccf0" fill-opacity="1" stroke="#0da6c5" stroke-opacity="1" stroke-width="1.2" stroke-linecap="square" stroke-linejoin="bevel" transform="matrix(1,0,0,1,233,4)"
font-family="Inter" font-size="11" font-weight="700" font-style="normal" 
>
<path vector-effect="none" fill-rule="evenodd" d="M0.5,3.5 C0.5,1.84315 1.84315,0.5 3.5,0.5 L48.5,0.5 C50.1569,0.5 51.5,1.84315 51.5,3.5 L51.5,20.5 C51.5,22.1569 50.1569,23.5 48.5,23.5 L3.5,23.5 C1.84315,23.5 0.5,22.1569 0.5,20.5 L0.5,3.5"/>
</g>

<g fill="#ffffff" fill-opacity="1" stroke="none" transform="matrix(1,0,0,1,233,4)"
font-family="Inter" font-size="11" font-weight="700" font-style="normal" 
>
<path vector-effect="none" fill-rule="nonzero" d="M11.0078,15 L11.0078,9 L12.5938,9 L12.5938,10.0586 L12.6641,10.0586 C12.7891,9.70703 12.9974,9.42969 13.2891,9.22656 C13.5807,9.02344 13.9297,8.92188 14.3359,8.92188 C14.7474,8.92188 15.0977,9.02409 15.3867,9.22852 C15.6758,9.43294 15.8685,9.70964 15.9648,10.0586 L16.0273,10.0586 C16.1497,9.71484 16.3717,9.43945 16.6934,9.23242 C17.015,9.02539 17.3958,8.92188 17.8359,8.92188 C18.3958,8.92188 18.8509,9.09961 19.2012,9.45508 C19.5514,9.81055 19.7266,10.3138 19.7266,10.9648 L19.7266,15 L18.0664,15 L18.0664,11.293 C18.0664,10.9596 17.9779,10.7096 17.8008,10.543 C17.6237,10.3763 17.4023,10.293 17.1367,10.293 C16.8346,10.293 16.599,10.3887 16.4297,10.5801 C16.2604,10.7715 16.1758,11.0234 16.1758,11.3359 L16.1758,15 L14.5625,15 L14.5625,11.2578 C14.5625,10.9635 14.4785,10.7292 14.3105,10.5547 C14.1426,10.3802 13.9219,10.293 13.6484,10.293 C13.4635,10.293 13.2975,10.3392 13.1504,10.4316 C13.0033,10.5241 12.8867,10.653 12.8008,10.8184 C12.7148,10.9837 12.6719,11.1771 12.6719,11.3984 L12.6719,15 L11.0078,15 M21.0391,15 L21.0391,9 L22.625,9 L22.625,10.0586 L22.6953,10.0586 C22.8203,9.70703 23.0286,9.42969 23.3203,9.22656 C23.612,9.02344 23.9609,8.92188 24.3672,8.92188 C24.7786,8.92188 25.1289,9.02409 25.418,9.22852 C25.707,9.43294 25.8997,9.70964 25.9961,10.0586 L26.0586,10.0586 C26.181,9.71484 26.403,9.43945 26.7246,9.23242 C27.0462,9.02539 27.4271,8.92188 27.8672,8.92188 C28.4271,8.92188 28.8822,9.09961 29.2324,9.45508 C29.5827,9.81055 29.7578,10.3138 29.7578,10.9648 L29.7578,15 L28.0977,15 L28.0977,11.293 C28.0977,10.9596 28.0091,10.7096 27.832,10.543 C27.6549,10.3763 27.4336,10.293 27.168,10.293 C26.8659,10.293 26.6302,10.3887 26.4609,10.5801 C26.2917,10.7715 26.207,11.0234 26.207,11.3359 L26.207,15 L24.5938,15 L24.5938,11.2578 C24.5938,10.9635 24.5098,10.7292 24.3418,10.5547 C24.1738,10.3802 23.9531,10.293 23.6797,10.293 C23.4948,10.293 23.3288,10.3392 23.1816,10.4316 C23.0345,10.5241 22.918,10.653 22.832,10.8184 C22.7461,10.9837 22.7031,11.1771 22.7031,11.3984 L22.7031,15 L21.0391,15"/>
</g>

<g fill="#ffffff" fill-opacity="1" stroke="none" transform="matrix(0.03125,0,0,0.03125,271,12)"
font-family="Inter" font-size="11" font-weight="700" font-style="normal" 
>
<path vector-effect="none" fill-rule="nonzero" d="M111.326,191.938 C120.545,201.158 135.517,201.158 144.737,191.938 L239.144,97.5313 C245.929,90.7458 247.921,80.6413 244.233,71.7907 C240.545,62.9401 231.989,57.1871 222.401,57.1871 L33.5875,57.2608 C24.0731,57.2608 15.4437,63.0137 11.7559,71.8644 C8.06815,80.715 10.1333,90.8195 16.845,97.605 L111.252,192.012 L111.326,191.938"/>
</g>

<g fill="none" stroke="#000000" stroke-opacity="1" stroke-width="13.7195" stroke-linecap="butt" stroke-linejoin="miter" stroke-miterlimit="4" transform="matrix(0.03125,0,0,0.03125,271,12)"
font-family="Inter" font-size="11" font-weight="700" font-style="normal" 
>
<path vector-effect="none" fill-rule="nonzero" d="M111.326,191.938 C120.545,201.158 135.517,201.158 144.737,191.938 L239.144,97.5313 C245.929,90.7458 247.921,80.6413 244.233,71.7907 C240.545,62.9401 231.989,57.1871 222.401,57.1871 L33.5875,57.2608 C24.0731,57.2608 15.4437,63.0137 11.7559,71.8644 C8.06815,80.715 10.1333,90.8195 16.845,97.605 L111.252,192.012 L111.326,191.938"/>
</g>

<g fill="#ffffff" fill-opacity="1" stroke="none" transform="matrix(1,0,0,1,233,4)"
font-family="Inter" font-size="11" font-weight="700" font-style="normal" 
>
</g>

<g fill="#ffffff" fill-opacity="1" stroke="#0da6c5" stroke-opacity="1" stroke-width="1" stroke-linecap="square" stroke-linejoin="bevel" transform="matrix(1,0,0,1,0,0)"
font-family="Inter" font-size="11" font-weight="700" font-style="normal" 
>
</g>

<g fill="#ffffff" fill-opacity="1" stroke="#0da6c5" stroke-opacity="1" stroke-width="1" stroke-linecap="square" stroke-linejoin="bevel" transform="matrix(1,0,0,1,0,0)"
font-family="Inter" font-size="11" font-weight="700" font-style="normal" 
>
</g>

<g fill="none" stroke="#000000" stroke-opacity="1" stroke-width="1" stroke-linecap="square" stroke-linejoin="bevel" transform="matrix(1,0,0,1,0,0)"
font-family=".AppleSystemUIFont" font-size="13" font-weight="400" font-style="normal" 
>
</g>
</g>
</svg>
