<?xml version="1.0" encoding="UTF-8" standalone="no"?>
<svg width="101.6mm" height="11.2889mm"
 viewBox="0 0 288 32"
 xmlns="http://www.w3.org/2000/svg" xmlns:xlink="http://www.w3.org/1999/xlink" version="1.2" baseProfile="tiny">
<title>Abstract block</title>
<desc>block_hubs_all_sensors_port_technic_sensor_when_color_is</desc>
<defs>
</defs>
<g fill="none" stroke="black" stroke-width="1" fill-rule="evenodd" stroke-linecap="square" stroke-linejoin="bevel" >

<g fill="none" stroke="#000000" stroke-opacity="1" stroke-width="1" stroke-linecap="square" stroke-linejoin="bevel" transform="matrix(1,0,0,1,0,0)"
font-family=".AppleSystemUIFont" font-size="13" font-weight="400" font-style="normal" 
>
</g>

<g fill="none" stroke="#000000" stroke-opacity="1" stroke-width="1" stroke-linecap="square" stroke-linejoin="bevel" transform="matrix(1,0,0,1,0,0)"
font-family=".AppleSystemUIFont" font-size="13" font-weight="400" font-style="normal" 
>
</g>

<g fill="#1dccf0" fill-opacity="1" stroke="#0da6c5" stroke-opacity="1" stroke-width="1.2" stroke-linecap="square" stroke-linejoin="bevel" transform="matrix(1,0,0,1,0,0)"
font-family=".AppleSystemUIFont" font-size="13" font-weight="400" font-style="normal" 
>
<path vector-effect="none" fill-rule="evenodd" d="M0,16 L16,0 L272,0 L288,16 L272,32 L16,32 L0,16"/>
</g>

<g fill="#ffffff" fill-opacity="1" stroke="none" transform="matrix(1,0,0,1,0,0)"
font-family="Inter" font-size="11" font-weight="700" font-style="normal" 
>
<path vector-effect="none" fill-rule="nonzero" d="M181.039,20 L181.039,14 L182.703,14 L182.703,20 L181.039,20 M181.875,13.2266 C181.628,13.2266 181.416,13.1439 181.24,12.9785 C181.064,12.8132 180.977,12.6146 180.977,12.3828 C180.977,12.1536 181.064,11.9564 181.24,11.791 C181.416,11.6257 181.628,11.543 181.875,11.543 C182.122,11.543 182.334,11.6257 182.51,11.791 C182.686,11.9564 182.773,12.1536 182.773,12.3828 C182.773,12.6146 182.686,12.8132 182.51,12.9785 C182.334,13.1439 182.122,13.2266 181.875,13.2266 M189.016,15.7109 L187.492,15.8047 C187.466,15.6745 187.41,15.5566 187.324,15.4512 C187.238,15.3457 187.126,15.2611 186.986,15.1973 C186.847,15.1335 186.681,15.1016 186.488,15.1016 C186.23,15.1016 186.013,15.1556 185.836,15.2637 C185.659,15.3717 185.57,15.5156 185.57,15.6953 C185.57,15.8385 185.628,15.9596 185.742,16.0586 C185.857,16.1576 186.053,16.237 186.332,16.2969 L187.418,16.5156 C188.001,16.6354 188.436,16.8281 188.723,17.0938 C189.009,17.3594 189.152,17.7083 189.152,18.1406 C189.152,18.5339 189.037,18.8789 188.807,19.1758 C188.576,19.4727 188.261,19.7038 187.861,19.8691 C187.462,20.0345 187.001,20.1172 186.48,20.1172 C185.686,20.1172 185.054,19.9512 184.584,19.6191 C184.114,19.2871 183.839,18.8346 183.758,18.2617 L185.395,18.1758 C185.444,18.418 185.564,18.6022 185.754,18.7285 C185.944,18.8548 186.188,18.918 186.484,18.918 C186.776,18.918 187.011,18.8613 187.189,18.748 C187.368,18.6348 187.458,18.4883 187.461,18.3086 C187.458,18.1576 187.395,18.0332 187.27,17.9355 C187.145,17.8379 186.952,17.763 186.691,17.7109 L185.652,17.5039 C185.066,17.3867 184.631,17.1836 184.346,16.8945 C184.061,16.6055 183.918,16.237 183.918,15.7891 C183.918,15.4036 184.023,15.0716 184.232,14.793 C184.442,14.5143 184.738,14.2995 185.119,14.1484 C185.501,13.9974 185.948,13.9219 186.461,13.9219 C187.219,13.9219 187.816,14.082 188.252,14.4023 C188.688,14.7227 188.943,15.1589 189.016,15.7109 M195.453,20.1172 C194.839,20.1172 194.311,19.9863 193.869,19.7246 C193.428,19.4629 193.089,19.099 192.854,18.6328 C192.618,18.1667 192.5,17.6302 192.5,17.0234 C192.5,16.4089 192.619,15.8691 192.857,15.4043 C193.096,14.9395 193.435,14.5762 193.875,14.3145 C194.315,14.0527 194.839,13.9219 195.445,13.9219 C195.969,13.9219 196.427,14.0169 196.82,14.207 C197.214,14.3971 197.525,14.6641 197.754,15.0078 C197.983,15.3516 198.109,15.7552 198.133,16.2188 L196.563,16.2188 C196.518,15.9193 196.402,15.6777 196.213,15.4941 C196.024,15.3105 195.777,15.2188 195.473,15.2188 C195.215,15.2188 194.99,15.2884 194.799,15.4277 C194.607,15.5671 194.458,15.7695 194.352,16.0352 C194.245,16.3008 194.191,16.6224 194.191,17 C194.191,17.3828 194.244,17.7083 194.35,17.9766 C194.455,18.2448 194.604,18.4492 194.797,18.5898 C194.99,18.7305 195.215,18.8008 195.473,18.8008 C195.663,18.8008 195.834,18.7617 195.986,18.6836 C196.139,18.6055 196.265,18.4915 196.365,18.3418 C196.465,18.1921 196.531,18.0117 196.563,17.8008 L198.133,17.8008 C198.107,18.2591 197.982,18.6621 197.76,19.0098 C197.537,19.3574 197.23,19.6289 196.84,19.8242 C196.449,20.0195 195.987,20.1172 195.453,20.1172 M201.906,20.1172 C201.299,20.1172 200.775,19.9876 200.334,19.7285 C199.893,19.4694 199.552,19.1074 199.313,18.6426 C199.073,18.1777 198.953,17.638 198.953,17.0234 C198.953,16.4036 199.073,15.8613 199.313,15.3965 C199.552,14.9316 199.893,14.5697 200.334,14.3105 C200.775,14.0514 201.299,13.9219 201.906,13.9219 C202.513,13.9219 203.037,14.0514 203.479,14.3105 C203.92,14.5697 204.26,14.9316 204.5,15.3965 C204.74,15.8613 204.859,16.4036 204.859,17.0234 C204.859,17.638 204.74,18.1777 204.5,18.6426 C204.26,19.1074 203.92,19.4694 203.479,19.7285 C203.037,19.9876 202.513,20.1172 201.906,20.1172 M201.914,18.8281 C202.19,18.8281 202.421,18.7493 202.605,18.5918 C202.79,18.4342 202.93,18.2188 203.025,17.9453 C203.12,17.6719 203.168,17.3607 203.168,17.0117 C203.168,16.6628 203.12,16.3516 203.025,16.0781 C202.93,15.8047 202.79,15.5885 202.605,15.4297 C202.421,15.2708 202.19,15.1914 201.914,15.1914 C201.635,15.1914 201.402,15.2708 201.213,15.4297 C201.024,15.5885 200.882,15.8047 200.787,16.0781 C200.692,16.3516 200.645,16.6628 200.645,17.0117 C200.645,17.3607 200.692,17.6719 200.787,17.9453 C200.882,18.2188 201.024,18.4342 201.213,18.5918 C201.402,18.7493 201.635,18.8281 201.914,18.8281 M207.609,12 L207.609,20 L205.945,20 L205.945,12 L207.609,12 M211.641,20.1172 C211.034,20.1172 210.51,19.9876 210.068,19.7285 C209.627,19.4694 209.286,19.1074 209.047,18.6426 C208.807,18.1777 208.688,17.638 208.688,17.0234 C208.688,16.4036 208.807,15.8613 209.047,15.3965 C209.286,14.9316 209.627,14.5697 210.068,14.3105 C210.51,14.0514 211.034,13.9219 211.641,13.9219 C212.247,13.9219 212.771,14.0514 213.213,14.3105 C213.654,14.5697 213.995,14.9316 214.234,15.3965 C214.474,15.8613 214.594,16.4036 214.594,17.0234 C214.594,17.638 214.474,18.1777 214.234,18.6426 C213.995,19.1074 213.654,19.4694 213.213,19.7285 C212.771,19.9876 212.247,20.1172 211.641,20.1172 M211.648,18.8281 C211.924,18.8281 212.155,18.7493 212.34,18.5918 C212.525,18.4342 212.665,18.2188 212.76,17.9453 C212.855,17.6719 212.902,17.3607 212.902,17.0117 C212.902,16.6628 212.855,16.3516 212.76,16.0781 C212.665,15.8047 212.525,15.5885 212.34,15.4297 C212.155,15.2708 211.924,15.1914 211.648,15.1914 C211.37,15.1914 211.136,15.2708 210.947,15.4297 C210.758,15.5885 210.617,15.8047 210.521,16.0781 C210.426,16.3516 210.379,16.6628 210.379,17.0117 C210.379,17.3607 210.426,17.6719 210.521,17.9453 C210.617,18.2188 210.758,18.4342 210.947,18.5918 C211.136,18.7493 211.37,18.8281 211.648,18.8281 M215.68,20 L215.68,14 L217.293,14 L217.293,15.0469 L217.355,15.0469 C217.465,14.6745 217.648,14.3926 217.906,14.2012 C218.164,14.0098 218.461,13.9141 218.797,13.9141 C218.88,13.9141 218.97,13.9193 219.066,13.9297 C219.163,13.9401 219.247,13.9544 219.32,13.9727 L219.32,15.4492 C219.242,15.4258 219.134,15.4049 218.996,15.3867 C218.858,15.3685 218.732,15.3594 218.617,15.3594 C218.372,15.3594 218.154,15.4121 217.963,15.5176 C217.771,15.623 217.62,15.7695 217.51,15.957 C217.399,16.1445 217.344,16.3607 217.344,16.6055 L217.344,20 L215.68,20"/>
</g>

<g fill="#ffffff" fill-opacity="1" stroke="none" transform="matrix(1,0,0,1,0,0)"
font-family="Inter" font-size="11" font-weight="700" font-style="normal" 
>
<path vector-effect="none" fill-rule="nonzero" d="M265.766,17.5547 L265.766,17.4219 C265.768,16.9661 265.809,16.6029 265.889,16.332 C265.968,16.0612 266.085,15.8424 266.238,15.6758 C266.392,15.5091 266.577,15.3581 266.793,15.2227 C266.954,15.1185 267.099,15.0104 267.227,14.8984 C267.354,14.7865 267.456,14.6621 267.531,14.5254 C267.607,14.3887 267.645,14.2357 267.645,14.0664 C267.645,13.8867 267.602,13.7292 267.516,13.5938 C267.43,13.4583 267.314,13.3542 267.17,13.2813 C267.025,13.2083 266.866,13.1719 266.691,13.1719 C266.522,13.1719 266.362,13.209 266.211,13.2832 C266.06,13.3574 265.936,13.4668 265.84,13.6113 C265.743,13.7559 265.691,13.9349 265.684,14.1484 L264.09,14.1484 C264.103,13.6276 264.228,13.1973 264.465,12.8574 C264.702,12.5176 265.016,12.2637 265.406,12.0957 C265.797,11.9277 266.228,11.8438 266.699,11.8438 C267.217,11.8438 267.676,11.929 268.074,12.0996 C268.473,12.2702 268.785,12.5169 269.012,12.8398 C269.238,13.1628 269.352,13.5521 269.352,14.0078 C269.352,14.3125 269.301,14.5827 269.201,14.8184 C269.101,15.054 268.961,15.2624 268.781,15.4434 C268.602,15.6243 268.389,15.7878 268.145,15.9336 C267.939,16.056 267.77,16.1836 267.639,16.3164 C267.507,16.4492 267.41,16.6029 267.346,16.7773 C267.282,16.9518 267.249,17.1667 267.246,17.4219 L267.246,17.5547 L265.766,17.5547 M266.539,20.0547 C266.279,20.0547 266.057,19.9629 265.873,19.7793 C265.689,19.5957 265.599,19.375 265.602,19.1172 C265.599,18.862 265.689,18.6432 265.873,18.4609 C266.057,18.2786 266.279,18.1875 266.539,18.1875 C266.786,18.1875 267.004,18.2786 267.191,18.4609 C267.379,18.6432 267.474,18.862 267.477,19.1172 C267.474,19.2891 267.429,19.446 267.342,19.5879 C267.255,19.7298 267.141,19.8431 267,19.9277 C266.859,20.0124 266.706,20.0547 266.539,20.0547 "/>
</g>

<g fill="#ffffff" fill-opacity="1" stroke="none" transform="matrix(0.0285,0,0,0.0285,11.2928,4.44754)"
font-family="Inter" font-size="11" font-weight="700" font-style="normal" 
>
<path vector-effect="none" fill-rule="nonzero" d="M97.5863,60.6191 C80.1143,60.6191 66.0472,74.6862 66.0472,92.1582 L66.0472,718.541 C66.0472,736.013 80.1143,750.08 97.5863,750.08 L723.969,750.08 C741.441,750.08 755.508,736.013 755.508,718.541 L755.508,92.1582 C755.508,74.6862 741.441,60.6191 723.969,60.6191 L97.5863,60.6191 M410.733,204.078 C521.886,204.053 612.016,294.136 612.049,405.289 L612.049,405.35 C612.05,516.503 521.947,606.613 410.793,606.621 C299.639,606.63 209.522,516.533 209.506,405.379 C209.49,294.226 299.58,204.102 410.733,204.078 "/>
</g>

<g fill="none" stroke="#000000" stroke-opacity="1" stroke-width="20" stroke-linecap="round" stroke-linejoin="round" transform="matrix(0.0285,0,0,0.0285,11.2928,4.44754)"
font-family="Inter" font-size="11" font-weight="700" font-style="normal" 
>
<path vector-effect="none" fill-rule="nonzero" d="M97.5863,60.6191 C80.1143,60.6191 66.0472,74.6862 66.0472,92.1582 L66.0472,718.541 C66.0472,736.013 80.1143,750.08 97.5863,750.08 L723.969,750.08 C741.441,750.08 755.508,736.013 755.508,718.541 L755.508,92.1582 C755.508,74.6862 741.441,60.6191 723.969,60.6191 L97.5863,60.6191 M410.733,204.078 C521.886,204.053 612.016,294.136 612.049,405.289 L612.049,405.35 C612.05,516.503 521.947,606.613 410.793,606.621 C299.639,606.63 209.522,516.533 209.506,405.379 C209.49,294.226 299.58,204.102 410.733,204.078 "/>
</g>

<g fill="#000000" fill-opacity="1" stroke="none" transform="matrix(0.0285,0,0,0.0285,11.2928,4.44754)"
font-family="Inter" font-size="11" font-weight="700" font-style="normal" 
>
<path vector-effect="none" fill-rule="nonzero" d="M234.666,164.596 C198.854,164.596 170.024,193.426 170.024,229.238 L170.024,581.461 C170.024,617.273 198.854,646.104 234.666,646.104 L586.889,646.104 C622.701,646.104 651.532,617.273 651.532,581.461 L651.532,229.238 C651.532,193.426 622.701,164.596 586.889,164.596 L234.666,164.596 M410.733,204.078 C521.886,204.053 612.016,294.136 612.049,405.289 L612.049,405.35 C612.05,516.503 521.947,606.613 410.793,606.621 C299.639,606.63 209.522,516.533 209.506,405.379 C209.49,294.226 299.58,204.102 410.733,204.078 "/>
</g>

<g fill="none" stroke="#000000" stroke-opacity="1" stroke-width="16.3975" stroke-linecap="round" stroke-linejoin="round" transform="matrix(0.0285,0,0,0.0285,11.2928,4.44754)"
font-family="Inter" font-size="11" font-weight="700" font-style="normal" 
>
<path vector-effect="none" fill-rule="nonzero" d="M234.666,164.596 C198.854,164.596 170.024,193.426 170.024,229.238 L170.024,581.461 C170.024,617.273 198.854,646.104 234.666,646.104 L586.889,646.104 C622.701,646.104 651.532,617.273 651.532,581.461 L651.532,229.238 C651.532,193.426 622.701,164.596 586.889,164.596 L234.666,164.596 M410.733,204.078 C521.886,204.053 612.016,294.136 612.049,405.289 L612.049,405.35 C612.05,516.503 521.947,606.613 410.793,606.621 C299.639,606.63 209.522,516.533 209.506,405.379 C209.49,294.226 299.58,204.102 410.733,204.078 "/>
</g>

<g fill="none" stroke="#000000" stroke-opacity="1" stroke-width="23.8667" stroke-linecap="round" stroke-linejoin="round" transform="matrix(0.0285,0,0,0.0285,11.2928,4.44754)"
font-family="Inter" font-size="11" font-weight="700" font-style="normal" 
>
<path vector-effect="none" fill-rule="nonzero" d="M528.568,405.35 C528.568,470.4 475.837,523.135 410.787,523.14 C345.736,523.145 292.997,470.418 292.987,405.367 C292.978,340.317 345.701,287.574 410.751,287.559 C475.802,287.545 528.549,340.264 528.568,405.314 "/>
</g>

<g fill="#ffffff" fill-opacity="1" stroke="none" transform="matrix(1,0,0,1,0,0)"
font-family="Inter" font-size="11" font-weight="700" font-style="normal" 
>
</g>

<g fill="#ffffff" fill-opacity="1" stroke="#0da6c5" stroke-opacity="1" stroke-width="1" stroke-linecap="square" stroke-linejoin="bevel" transform="matrix(1,0,0,1,0,0)"
font-family="Inter" font-size="11" font-weight="700" font-style="normal" 
>
<polyline fill="none" vector-effect="none" points="45,6 45,26 " />
</g>

<g fill="#ffffff" fill-opacity="1" stroke="#0da6c5" stroke-opacity="1" stroke-width="1" stroke-linecap="square" stroke-linejoin="bevel" transform="matrix(1,0,0,1,0,0)"
font-family="Inter" font-size="11" font-weight="700" font-style="normal" 
>
</g>

<g fill="#ffffff" fill-opacity="1" stroke="#0da6c5" stroke-opacity="1" stroke-width="1" stroke-linecap="square" stroke-linejoin="bevel" transform="matrix(1,0,0,1,0,0)"
font-family="Inter" font-size="11" font-weight="700" font-style="normal" 
>
</g>

<g fill="#000000" fill-opacity="1" stroke="#ffffff" stroke-opacity="1" stroke-width="1.2" stroke-linecap="square" stroke-linejoin="bevel" transform="matrix(1,0,0,1,226,4)"
font-family="Inter" font-size="11" font-weight="700" font-style="normal" 
>
<path vector-effect="none" fill-rule="evenodd" d="M0.5,12 C0.5,5.64873 5.87258,0.5 12.5,0.5 L19.5,0.5 C26.1274,0.5 31.5,5.64873 31.5,12 C31.5,18.3513 26.1274,23.5 19.5,23.5 L12.5,23.5 C5.87258,23.5 0.5,18.3513 0.5,12 "/>
</g>

<g fill="#ffffff" fill-opacity="1" stroke="none" transform="matrix(0.03125,0,0,0.03125,244,12)"
font-family="Inter" font-size="11" font-weight="700" font-style="normal" 
>
<path vector-effect="none" fill-rule="nonzero" d="M111.326,191.938 C120.545,201.158 135.517,201.158 144.737,191.938 L239.144,97.5313 C245.929,90.7458 247.921,80.6413 244.233,71.7907 C240.545,62.9401 231.989,57.1871 222.401,57.1871 L33.5875,57.2608 C24.0731,57.2608 15.4437,63.0137 11.7559,71.8644 C8.06815,80.715 10.1333,90.8195 16.845,97.605 L111.252,192.012 L111.326,191.938"/>
</g>

<g fill="none" stroke="#000000" stroke-opacity="1" stroke-width="13.7195" stroke-linecap="butt" stroke-linejoin="miter" stroke-miterlimit="4" transform="matrix(0.03125,0,0,0.03125,244,12)"
font-family="Inter" font-size="11" font-weight="700" font-style="normal" 
>
<path vector-effect="none" fill-rule="nonzero" d="M111.326,191.938 C120.545,201.158 135.517,201.158 144.737,191.938 L239.144,97.5313 C245.929,90.7458 247.921,80.6413 244.233,71.7907 C240.545,62.9401 231.989,57.1871 222.401,57.1871 L33.5875,57.2608 C24.0731,57.2608 15.4437,63.0137 11.7559,71.8644 C8.06815,80.715 10.1333,90.8195 16.845,97.605 L111.252,192.012 L111.326,191.938"/>
</g>

<g fill="#000000" fill-opacity="1" stroke="#ffffff" stroke-opacity="1" stroke-width="1.2" stroke-linecap="square" stroke-linejoin="bevel" transform="matrix(1,0,0,1,226,4)"
font-family="Inter" font-size="11" font-weight="700" font-style="normal" 
>
</g>

<g fill="#ffffff" fill-opacity="1" stroke="#0da6c5" stroke-opacity="1" stroke-width="1" stroke-linecap="square" stroke-linejoin="bevel" transform="matrix(1,0,0,1,0,0)"
font-family="Inter" font-size="11" font-weight="700" font-style="normal" 
>
</g>

<g fill="#0da6c5" fill-opacity="1" stroke="#0da6c5" stroke-opacity="1" stroke-width="1.2" stroke-linecap="square" stroke-linejoin="bevel" transform="matrix(1,0,0,1,135,4)"
font-family="Inter" font-size="11" font-weight="700" font-style="normal" 
>
<path vector-effect="none" fill-rule="evenodd" d="M0.5,12 C0.5,5.64873 5.87258,0.5 12.5,0.5 L27.5,0.5 C34.1274,0.5 39.5,5.64873 39.5,12 C39.5,18.3513 34.1274,23.5 27.5,23.5 L12.5,23.5 C5.87258,23.5 0.5,18.3513 0.5,12 "/>
</g>

<g fill="#ffffff" fill-opacity="1" stroke="none" transform="matrix(1,0,0,1,135,4)"
font-family="Inter" font-size="11" font-weight="700" font-style="normal" 
>
<path vector-effect="none" fill-rule="nonzero" d="M11.8242,16 L10.0117,16 L12.7734,8 L14.9531,8 L17.7109,16 L15.8984,16 L13.8945,9.82813 L13.832,9.82813 L11.8242,16 M11.7109,12.8555 L15.9922,12.8555 L15.9922,14.1758 L11.7109,14.1758 L11.7109,12.8555"/>
</g>

<g fill="#ffffff" fill-opacity="1" stroke="none" transform="matrix(0.03125,0,0,0.03125,161,12)"
font-family="Inter" font-size="11" font-weight="700" font-style="normal" 
>
<path vector-effect="none" fill-rule="nonzero" d="M111.326,191.938 C120.545,201.158 135.517,201.158 144.737,191.938 L239.144,97.5313 C245.929,90.7458 247.921,80.6413 244.233,71.7907 C240.545,62.9401 231.989,57.1871 222.401,57.1871 L33.5875,57.2608 C24.0731,57.2608 15.4437,63.0137 11.7559,71.8644 C8.06815,80.715 10.1333,90.8195 16.845,97.605 L111.252,192.012 L111.326,191.938"/>
</g>

<g fill="none" stroke="#000000" stroke-opacity="1" stroke-width="13.7195" stroke-linecap="butt" stroke-linejoin="miter" stroke-miterlimit="4" transform="matrix(0.03125,0,0,0.03125,161,12)"
font-family="Inter" font-size="11" font-weight="700" font-style="normal" 
>
<path vector-effect="none" fill-rule="nonzero" d="M111.326,191.938 C120.545,201.158 135.517,201.158 144.737,191.938 L239.144,97.5313 C245.929,90.7458 247.921,80.6413 244.233,71.7907 C240.545,62.9401 231.989,57.1871 222.401,57.1871 L33.5875,57.2608 C24.0731,57.2608 15.4437,63.0137 11.7559,71.8644 C8.06815,80.715 10.1333,90.8195 16.845,97.605 L111.252,192.012 L111.326,191.938"/>
</g>

<g fill="#ffffff" fill-opacity="1" stroke="none" transform="matrix(1,0,0,1,135,4)"
font-family="Inter" font-size="11" font-weight="700" font-style="normal" 
>
</g>

<g fill="#ffffff" fill-opacity="1" stroke="#0da6c5" stroke-opacity="1" stroke-width="1" stroke-linecap="square" stroke-linejoin="bevel" transform="matrix(1,0,0,1,0,0)"
font-family="Inter" font-size="11" font-weight="700" font-style="normal" 
>
</g>

<g fill="#1dccf0" fill-opacity="1" stroke="#0da6c5" stroke-opacity="1" stroke-width="1.2" stroke-linecap="square" stroke-linejoin="bevel" transform="matrix(1,0,0,1,56,4)"
font-family="Inter" font-size="11" font-weight="700" font-style="normal" 
>
<path vector-effect="none" fill-rule="evenodd" d="M0.5,3.5 C0.5,1.84315 1.84315,0.5 3.5,0.5 L71.5,0.5 C73.1569,0.5 74.5,1.84315 74.5,3.5 L74.5,20.5 C74.5,22.1569 73.1569,23.5 71.5,23.5 L3.5,23.5 C1.84315,23.5 0.5,22.1569 0.5,20.5 L0.5,3.5"/>
</g>

<g fill="#ffffff" fill-opacity="1" stroke="none" transform="matrix(1,0,0,1,56,4)"
font-family="Inter" font-size="11" font-weight="700" font-style="normal" 
>
<path vector-effect="none" fill-rule="nonzero" d="M10,9.39453 L10,8 L16.5703,8 L16.5703,9.39453 L14.1211,9.39453 L14.1211,16 L12.4492,16 L12.4492,9.39453 L10,9.39453 M17.6484,16 L17.6484,8 L19.3398,8 L19.3398,11.3008 L22.7734,11.3008 L22.7734,8 L24.4609,8 L24.4609,16 L22.7734,16 L22.7734,12.6953 L19.3398,12.6953 L19.3398,16 L17.6484,16 M32.543,8 L32.543,16 L31.082,16 L27.6016,10.9648 L27.543,10.9648 L27.543,16 L25.8516,16 L25.8516,8 L27.3359,8 L30.7891,13.0313 L30.8594,13.0313 L30.8594,8 L32.543,8 M33.9297,16 L33.9297,8 L35.6211,8 L35.6211,11.3008 L39.0547,11.3008 L39.0547,8 L40.7422,8 L40.7422,16 L39.0547,16 L39.0547,12.6953 L35.6211,12.6953 L35.6211,16 L33.9297,16 M42.1328,16 L42.1328,8 L45.3359,8 C45.9245,8 46.4154,8.08724 46.8086,8.26172 C47.2018,8.4362 47.4974,8.67773 47.6953,8.98633 C47.8932,9.29492 47.9922,9.64974 47.9922,10.0508 C47.9922,10.3633 47.9297,10.6374 47.8047,10.873 C47.6797,11.1087 47.5085,11.3014 47.291,11.4512 C47.0736,11.6009 46.8255,11.707 46.5469,11.7695 L46.5469,11.8477 C46.8516,11.8607 47.1374,11.9466 47.4043,12.1055 C47.6712,12.2643 47.888,12.4863 48.0547,12.7715 C48.2214,13.0566 48.3047,13.3958 48.3047,13.7891 C48.3047,14.2135 48.1999,14.5918 47.9902,14.9238 C47.7806,15.2559 47.4714,15.5182 47.0625,15.7109 C46.6536,15.9036 46.1497,16 45.5508,16 L42.1328,16 M43.8242,14.6172 L45.2031,14.6172 C45.6745,14.6172 46.0182,14.5267 46.2344,14.3457 C46.4505,14.1647 46.5586,13.9232 46.5586,13.6211 C46.5586,13.3997 46.5052,13.2044 46.3984,13.0352 C46.2917,12.8659 46.14,12.7331 45.9434,12.6367 C45.7467,12.5404 45.513,12.4922 45.2422,12.4922 L43.8242,12.4922 L43.8242,14.6172 M43.8242,11.3477 L45.0781,11.3477 C45.3099,11.3477 45.5163,11.3066 45.6973,11.2246 C45.8783,11.1426 46.0215,11.026 46.127,10.875 C46.2324,10.724 46.2852,10.543 46.2852,10.332 C46.2852,10.043 46.1829,9.8099 45.9785,9.63281 C45.7741,9.45573 45.4844,9.36719 45.1094,9.36719 L43.8242,9.36719 L43.8242,11.3477 M52.832,8 L52.832,16 L51.1406,16 L51.1406,9.60547 L51.0938,9.60547 L49.2617,10.7539 L49.2617,9.25391 L51.2422,8 L52.832,8"/>
</g>

<g fill="#ffffff" fill-opacity="1" stroke="none" transform="matrix(0.03125,0,0,0.03125,117,12)"
font-family="Inter" font-size="11" font-weight="700" font-style="normal" 
>
<path vector-effect="none" fill-rule="nonzero" d="M111.326,191.938 C120.545,201.158 135.517,201.158 144.737,191.938 L239.144,97.5313 C245.929,90.7458 247.921,80.6413 244.233,71.7907 C240.545,62.9401 231.989,57.1871 222.401,57.1871 L33.5875,57.2608 C24.0731,57.2608 15.4437,63.0137 11.7559,71.8644 C8.06815,80.715 10.1333,90.8195 16.845,97.605 L111.252,192.012 L111.326,191.938"/>
</g>

<g fill="none" stroke="#000000" stroke-opacity="1" stroke-width="13.7195" stroke-linecap="butt" stroke-linejoin="miter" stroke-miterlimit="4" transform="matrix(0.03125,0,0,0.03125,117,12)"
font-family="Inter" font-size="11" font-weight="700" font-style="normal" 
>
<path vector-effect="none" fill-rule="nonzero" d="M111.326,191.938 C120.545,201.158 135.517,201.158 144.737,191.938 L239.144,97.5313 C245.929,90.7458 247.921,80.6413 244.233,71.7907 C240.545,62.9401 231.989,57.1871 222.401,57.1871 L33.5875,57.2608 C24.0731,57.2608 15.4437,63.0137 11.7559,71.8644 C8.06815,80.715 10.1333,90.8195 16.845,97.605 L111.252,192.012 L111.326,191.938"/>
</g>

<g fill="#ffffff" fill-opacity="1" stroke="none" transform="matrix(1,0,0,1,56,4)"
font-family="Inter" font-size="11" font-weight="700" font-style="normal" 
>
</g>

<g fill="#ffffff" fill-opacity="1" stroke="#0da6c5" stroke-opacity="1" stroke-width="1" stroke-linecap="square" stroke-linejoin="bevel" transform="matrix(1,0,0,1,0,0)"
font-family="Inter" font-size="11" font-weight="700" font-style="normal" 
>
</g>

<g fill="none" stroke="#000000" stroke-opacity="1" stroke-width="1" stroke-linecap="square" stroke-linejoin="bevel" transform="matrix(1,0,0,1,0,0)"
font-family=".AppleSystemUIFont" font-size="13" font-weight="400" font-style="normal" 
>
</g>
</g>
</svg>
