<?xml version="1.0" encoding="UTF-8" standalone="no"?>
<svg width="93.4861mm" height="15.5222mm"
 viewBox="0 0 265 44"
 xmlns="http://www.w3.org/2000/svg" xmlns:xlink="http://www.w3.org/1999/xlink" version="1.2" baseProfile="tiny">
<title>Abstract block</title>
<desc>block_hubs_all_light_set_led_color</desc>
<defs>
</defs>
<g fill="none" stroke="black" stroke-width="1" fill-rule="evenodd" stroke-linecap="square" stroke-linejoin="bevel" >

<g fill="none" stroke="#000000" stroke-opacity="1" stroke-width="1" stroke-linecap="square" stroke-linejoin="bevel" transform="matrix(1,0,0,1,0,0)"
font-family=".AppleSystemUIFont" font-size="13" font-weight="400" font-style="normal" 
>
</g>

<g fill="none" stroke="#000000" stroke-opacity="1" stroke-width="1" stroke-linecap="square" stroke-linejoin="bevel" transform="matrix(1,0,0,1,0,0)"
font-family=".AppleSystemUIFont" font-size="13" font-weight="400" font-style="normal" 
>
</g>

<g fill="#935df5" fill-opacity="1" stroke="#6c25f1" stroke-opacity="1" stroke-width="1.2" stroke-linecap="square" stroke-linejoin="bevel" transform="matrix(1,0,0,1,0,0)"
font-family=".AppleSystemUIFont" font-size="13" font-weight="400" font-style="normal" 
>
<path vector-effect="none" fill-rule="evenodd" d="M0.5,4.5 L1.04612,2.48112 L2.48112,1.04612 L4.5,0.5 L9.625,0.5 L10.416,0.976563 L11.1719,1.6875 L11.998,2.67969 L13,4 L13.7559,4.66016 L14.5469,5.15625 L15.4082,5.51172 L16.375,5.75 L17.4824,5.89453 L18.7656,5.96875 L20.2598,5.99609 L22,6 L23.7402,5.99609 L25.2344,5.96875 L26.5176,5.89453 L27.625,5.75 L28.5918,5.51172 L29.4531,5.15625 L30.2441,4.66016 L31,4 L32.002,2.67969 L32.8281,1.6875 L33.584,0.976563 L34.375,0.5 L260.5,0.5 L262.519,1.04612 L263.954,2.48112 L264.5,4.5 L264.5,31.5 L263.954,33.5189 L262.519,34.9539 L260.5,35.5 L34.375,35.5 L33.584,35.9766 L32.8281,36.6875 L32.002,37.6797 L31,39 L30.2441,39.6602 L29.4531,40.1563 L28.5918,40.5117 L27.625,40.75 L26.5176,40.8945 L25.2344,40.9688 L23.7402,40.9961 L22,41 L20.2598,40.9961 L18.7656,40.9688 L17.4824,40.8945 L16.375,40.75 L15.4082,40.5117 L14.5469,40.1563 L13.7559,39.6602 L13,39 L11.998,37.6797 L11.1719,36.6875 L10.416,35.9766 L9.625,35.5 L4.5,35.5 L2.48112,34.9539 L1.04612,33.5189 L0.5,31.5 L0.5,4.5"/>
</g>

<g fill="#ffffff" fill-opacity="1" stroke="none" transform="matrix(1,0,0,1,0,0)"
font-family="Inter" font-size="11" font-weight="700" font-style="normal" 
>
<path vector-effect="none" fill-rule="nonzero" d="M142.5,17.4453 L140.977,17.5391 C140.951,17.4089 140.895,17.291 140.809,17.1855 C140.723,17.0801 140.61,16.9954 140.471,16.9316 C140.331,16.8678 140.165,16.8359 139.973,16.8359 C139.715,16.8359 139.497,16.89 139.32,16.998 C139.143,17.1061 139.055,17.25 139.055,17.4297 C139.055,17.5729 139.112,17.694 139.227,17.793 C139.341,17.8919 139.538,17.9714 139.816,18.0313 L140.902,18.25 C141.486,18.3698 141.921,18.5625 142.207,18.8281 C142.493,19.0938 142.637,19.4427 142.637,19.875 C142.637,20.2682 142.521,20.6133 142.291,20.9102 C142.061,21.207 141.745,21.4382 141.346,21.6035 C140.946,21.7689 140.486,21.8516 139.965,21.8516 C139.171,21.8516 138.538,21.6855 138.068,21.3535 C137.598,21.0215 137.323,20.569 137.242,19.9961 L138.879,19.9102 C138.928,20.1523 139.048,20.3366 139.238,20.4629 C139.428,20.5892 139.672,20.6523 139.969,20.6523 C140.26,20.6523 140.495,20.5957 140.674,20.4824 C140.852,20.3691 140.943,20.2227 140.945,20.043 C140.943,19.8919 140.879,19.7676 140.754,19.6699 C140.629,19.5723 140.436,19.4974 140.176,19.4453 L139.137,19.2383 C138.551,19.1211 138.115,18.918 137.83,18.6289 C137.545,18.3398 137.402,17.9714 137.402,17.5234 C137.402,17.138 137.507,16.806 137.717,16.5273 C137.926,16.2487 138.222,16.0339 138.604,15.8828 C138.985,15.7318 139.432,15.6563 139.945,15.6563 C140.703,15.6563 141.3,15.8164 141.736,16.1367 C142.173,16.457 142.427,16.8932 142.5,17.4453 M146.414,21.8516 C145.797,21.8516 145.266,21.7259 144.822,21.4746 C144.378,21.2233 144.036,20.8665 143.797,20.4043 C143.557,19.9421 143.438,19.3945 143.438,18.7617 C143.438,18.1445 143.557,17.6029 143.797,17.1367 C144.036,16.6706 144.374,16.3073 144.811,16.0469 C145.247,15.7865 145.759,15.6563 146.348,15.6563 C146.743,15.6563 147.113,15.7194 147.455,15.8457 C147.798,15.972 148.097,16.1615 148.354,16.4141 C148.61,16.6667 148.81,16.9837 148.953,17.3652 C149.096,17.7467 149.168,18.1927 149.168,18.7031 L149.168,19.1602 L144.102,19.1602 L144.102,18.1289 L147.602,18.1289 C147.602,17.8893 147.549,17.6771 147.445,17.4922 C147.341,17.3073 147.197,17.1621 147.014,17.0566 C146.83,16.9512 146.617,16.8984 146.375,16.8984 C146.122,16.8984 145.899,16.9564 145.705,17.0723 C145.511,17.1882 145.359,17.3431 145.25,17.5371 C145.141,17.7311 145.085,17.9466 145.082,18.1836 L145.082,19.1641 C145.082,19.4609 145.137,19.7174 145.248,19.9336 C145.359,20.1497 145.516,20.3164 145.719,20.4336 C145.922,20.5508 146.163,20.6094 146.441,20.6094 C146.626,20.6094 146.796,20.5833 146.949,20.5313 C147.103,20.4792 147.234,20.401 147.344,20.2969 C147.453,20.1927 147.536,20.0651 147.594,19.9141 L149.133,20.0156 C149.055,20.3854 148.895,20.7077 148.654,20.9824 C148.413,21.2572 148.104,21.4707 147.725,21.623 C147.346,21.7754 146.909,21.8516 146.414,21.8516 M153.434,15.7344 L153.434,16.9844 L149.82,16.9844 L149.82,15.7344 L153.434,15.7344 M150.641,14.2969 L152.305,14.2969 L152.305,19.8906 C152.305,20.0443 152.328,20.1634 152.375,20.248 C152.422,20.3327 152.488,20.3919 152.572,20.4258 C152.657,20.4596 152.755,20.4766 152.867,20.4766 C152.945,20.4766 153.023,20.4694 153.102,20.4551 C153.18,20.4408 153.24,20.4297 153.281,20.4219 L153.543,21.6602 C153.46,21.6862 153.342,21.7168 153.191,21.752 C153.04,21.7871 152.857,21.8086 152.641,21.8164 C152.24,21.832 151.889,21.7786 151.588,21.6563 C151.287,21.5339 151.053,21.3438 150.887,21.0859 C150.72,20.8281 150.638,20.5026 150.641,20.1094 L150.641,14.2969 M157.086,21.7344 L157.086,13.7344 L158.777,13.7344 L158.777,20.3398 L162.207,20.3398 L162.207,21.7344 L157.086,21.7344 M163.32,21.7344 L163.32,13.7344 L168.711,13.7344 L168.711,15.1289 L165.012,15.1289 L165.012,17.0352 L168.434,17.0352 L168.434,18.4297 L165.012,18.4297 L165.012,20.3398 L168.727,20.3398 L168.727,21.7344 L163.32,21.7344 M172.891,21.7344 L170.055,21.7344 L170.055,13.7344 L172.914,13.7344 C173.719,13.7344 174.411,13.8939 174.992,14.2129 C175.573,14.5319 176.02,14.9896 176.334,15.5859 C176.648,16.1823 176.805,16.8958 176.805,17.7266 C176.805,18.5599 176.648,19.276 176.334,19.875 C176.02,20.474 175.571,20.9336 174.986,21.2539 C174.402,21.5742 173.703,21.7344 172.891,21.7344 M171.746,20.2852 L172.82,20.2852 C173.32,20.2852 173.742,20.196 174.084,20.0176 C174.426,19.8392 174.684,19.5618 174.857,19.1855 C175.031,18.8092 175.117,18.3229 175.117,17.7266 C175.117,17.1354 175.031,16.6523 174.857,16.2773 C174.684,15.9023 174.427,15.6263 174.086,15.4492 C173.745,15.2721 173.324,15.1836 172.824,15.1836 L171.746,15.1836 L171.746,20.2852 M183.281,21.8516 C182.667,21.8516 182.139,21.7207 181.697,21.459 C181.256,21.1973 180.917,20.8333 180.682,20.3672 C180.446,19.901 180.328,19.3646 180.328,18.7578 C180.328,18.1432 180.447,17.6035 180.686,17.1387 C180.924,16.6738 181.263,16.3105 181.703,16.0488 C182.143,15.7871 182.667,15.6563 183.273,15.6563 C183.797,15.6563 184.255,15.7513 184.648,15.9414 C185.042,16.1315 185.353,16.3984 185.582,16.7422 C185.811,17.0859 185.938,17.4896 185.961,17.9531 L184.391,17.9531 C184.346,17.6536 184.23,17.4121 184.041,17.2285 C183.852,17.0449 183.605,16.9531 183.301,16.9531 C183.043,16.9531 182.818,17.0228 182.627,17.1621 C182.436,17.3014 182.286,17.5039 182.18,17.7695 C182.073,18.0352 182.02,18.3568 182.02,18.7344 C182.02,19.1172 182.072,19.4427 182.178,19.7109 C182.283,19.9792 182.432,20.1836 182.625,20.3242 C182.818,20.4648 183.043,20.5352 183.301,20.5352 C183.491,20.5352 183.662,20.4961 183.814,20.418 C183.967,20.3398 184.093,20.2259 184.193,20.0762 C184.294,19.9264 184.359,19.7461 184.391,19.5352 L185.961,19.5352 C185.935,19.9935 185.811,20.3965 185.588,20.7441 C185.365,21.0918 185.059,21.3633 184.668,21.5586 C184.277,21.7539 183.815,21.8516 183.281,21.8516 M189.734,21.8516 C189.128,21.8516 188.604,21.722 188.162,21.4629 C187.721,21.2038 187.38,20.8418 187.141,20.377 C186.901,19.9121 186.781,19.3724 186.781,18.7578 C186.781,18.138 186.901,17.5957 187.141,17.1309 C187.38,16.666 187.721,16.304 188.162,16.0449 C188.604,15.7858 189.128,15.6563 189.734,15.6563 C190.341,15.6563 190.865,15.7858 191.307,16.0449 C191.748,16.304 192.089,16.666 192.328,17.1309 C192.568,17.5957 192.688,18.138 192.688,18.7578 C192.688,19.3724 192.568,19.9121 192.328,20.377 C192.089,20.8418 191.748,21.2038 191.307,21.4629 C190.865,21.722 190.341,21.8516 189.734,21.8516 M189.742,20.5625 C190.018,20.5625 190.249,20.4837 190.434,20.3262 C190.618,20.1686 190.758,19.9531 190.854,19.6797 C190.949,19.4063 190.996,19.0951 190.996,18.7461 C190.996,18.3971 190.949,18.0859 190.854,17.8125 C190.758,17.5391 190.618,17.3229 190.434,17.1641 C190.249,17.0052 190.018,16.9258 189.742,16.9258 C189.464,16.9258 189.23,17.0052 189.041,17.1641 C188.852,17.3229 188.71,17.5391 188.615,17.8125 C188.52,18.0859 188.473,18.3971 188.473,18.7461 C188.473,19.0951 188.52,19.4063 188.615,19.6797 C188.71,19.9531 188.852,20.1686 189.041,20.3262 C189.23,20.4837 189.464,20.5625 189.742,20.5625 M195.438,13.7344 L195.438,21.7344 L193.773,21.7344 L193.773,13.7344 L195.438,13.7344 M199.469,21.8516 C198.862,21.8516 198.338,21.722 197.896,21.4629 C197.455,21.2038 197.115,20.8418 196.875,20.377 C196.635,19.9121 196.516,19.3724 196.516,18.7578 C196.516,18.138 196.635,17.5957 196.875,17.1309 C197.115,16.666 197.455,16.304 197.896,16.0449 C198.338,15.7858 198.862,15.6563 199.469,15.6563 C200.076,15.6563 200.6,15.7858 201.041,16.0449 C201.482,16.304 201.823,16.666 202.063,17.1309 C202.302,17.5957 202.422,18.138 202.422,18.7578 C202.422,19.3724 202.302,19.9121 202.063,20.377 C201.823,20.8418 201.482,21.2038 201.041,21.4629 C200.6,21.722 200.076,21.8516 199.469,21.8516 M199.477,20.5625 C199.753,20.5625 199.983,20.4837 200.168,20.3262 C200.353,20.1686 200.493,19.9531 200.588,19.6797 C200.683,19.4063 200.73,19.0951 200.73,18.7461 C200.73,18.3971 200.683,18.0859 200.588,17.8125 C200.493,17.5391 200.353,17.3229 200.168,17.1641 C199.983,17.0052 199.753,16.9258 199.477,16.9258 C199.198,16.9258 198.964,17.0052 198.775,17.1641 C198.587,17.3229 198.445,17.5391 198.35,17.8125 C198.255,18.0859 198.207,18.3971 198.207,18.7461 C198.207,19.0951 198.255,19.4063 198.35,19.6797 C198.445,19.9531 198.587,20.1686 198.775,20.3262 C198.964,20.4837 199.198,20.5625 199.477,20.5625 M203.508,21.7344 L203.508,15.7344 L205.121,15.7344 L205.121,16.7813 L205.184,16.7813 C205.293,16.4089 205.477,16.127 205.734,15.9355 C205.992,15.7441 206.289,15.6484 206.625,15.6484 C206.708,15.6484 206.798,15.6536 206.895,15.6641 C206.991,15.6745 207.076,15.6888 207.148,15.707 L207.148,17.1836 C207.07,17.1602 206.962,17.1393 206.824,17.1211 C206.686,17.1029 206.56,17.0938 206.445,17.0938 C206.201,17.0938 205.982,17.1465 205.791,17.252 C205.6,17.3574 205.449,17.5039 205.338,17.6914 C205.227,17.8789 205.172,18.0951 205.172,18.3398 L205.172,21.7344 L203.508,21.7344 M213.73,15.7344 L213.73,16.9844 L210.117,16.9844 L210.117,15.7344 L213.73,15.7344 M210.938,14.2969 L212.602,14.2969 L212.602,19.8906 C212.602,20.0443 212.625,20.1634 212.672,20.248 C212.719,20.3327 212.785,20.3919 212.869,20.4258 C212.954,20.4596 213.052,20.4766 213.164,20.4766 C213.242,20.4766 213.32,20.4694 213.398,20.4551 C213.477,20.4408 213.536,20.4297 213.578,20.4219 L213.84,21.6602 C213.757,21.6862 213.639,21.7168 213.488,21.752 C213.337,21.7871 213.154,21.8086 212.938,21.8164 C212.536,21.832 212.186,21.7786 211.885,21.6563 C211.584,21.5339 211.35,21.3438 211.184,21.0859 C211.017,20.8281 210.935,20.5026 210.938,20.1094 L210.938,14.2969 M217.453,21.8516 C216.846,21.8516 216.322,21.722 215.881,21.4629 C215.439,21.2038 215.099,20.8418 214.859,20.377 C214.62,19.9121 214.5,19.3724 214.5,18.7578 C214.5,18.138 214.62,17.5957 214.859,17.1309 C215.099,16.666 215.439,16.304 215.881,16.0449 C216.322,15.7858 216.846,15.6563 217.453,15.6563 C218.06,15.6563 218.584,15.7858 219.025,16.0449 C219.467,16.304 219.807,16.666 220.047,17.1309 C220.286,17.5957 220.406,18.138 220.406,18.7578 C220.406,19.3724 220.286,19.9121 220.047,20.377 C219.807,20.8418 219.467,21.2038 219.025,21.4629 C218.584,21.722 218.06,21.8516 217.453,21.8516 M217.461,20.5625 C217.737,20.5625 217.967,20.4837 218.152,20.3262 C218.337,20.1686 218.477,19.9531 218.572,19.6797 C218.667,19.4063 218.715,19.0951 218.715,18.7461 C218.715,18.3971 218.667,18.0859 218.572,17.8125 C218.477,17.5391 218.337,17.3229 218.152,17.1641 C217.967,17.0052 217.737,16.9258 217.461,16.9258 C217.182,16.9258 216.949,17.0052 216.76,17.1641 C216.571,17.3229 216.429,17.5391 216.334,17.8125 C216.239,18.0859 216.191,18.3971 216.191,18.7461 C216.191,19.0951 216.239,19.4063 216.334,19.6797 C216.429,19.9531 216.571,20.1686 216.76,20.3262 C216.949,20.4837 217.182,20.5625 217.461,20.5625 "/>
</g>

<g fill="#ffffff" fill-opacity="1" stroke="none" transform="matrix(0.228,0,0,0.228,11.6,9.6)"
font-family="Inter" font-size="11" font-weight="700" font-style="normal" 
>
<path vector-effect="none" fill-rule="nonzero" d="M23.3682,15.995 C21.89,15.995 20.7001,17.185 20.7001,18.6631 L20.7001,81.3343 C20.7001,82.8125 21.89,84.0024 23.3682,84.0024 L76.6077,84.0024 C78.0859,84.0024 79.2758,82.8125 79.2758,81.3343 L79.2758,18.6631 C79.2758,17.185 78.0859,15.995 76.6077,15.995 L50.8905,15.995 C51.6703,16.0444 52.2838,16.6869 52.2838,17.4796 L52.2838,26.9112 C52.2838,27.7362 51.6196,28.4004 50.7946,28.4004 L49.3054,28.4004 C48.4804,28.4004 47.8161,27.7362 47.8161,26.9112 L47.8161,17.4796 C47.8161,16.6869 48.4298,16.0443 49.2096,15.995 L23.3682,15.995 M46.7613,35.2087 L53.2146,35.2087 C53.9021,35.2087 54.4556,35.7622 54.4556,36.4497 L54.4556,42.903 C54.4556,43.5906 53.9021,44.1439 53.2146,44.1439 L46.7613,44.1439 C46.0738,44.1439 45.5202,43.5906 45.5202,42.903 L45.5202,36.4497 C45.5202,35.7622 46.0738,35.2087 46.7613,35.2087 "/>
</g>

<g fill="none" stroke="#000000" stroke-opacity="1" stroke-width="2.43854" stroke-linecap="butt" stroke-linejoin="miter" stroke-miterlimit="4" transform="matrix(0.228,0,0,0.228,11.6,9.6)"
font-family="Inter" font-size="11" font-weight="700" font-style="normal" 
>
<path vector-effect="none" fill-rule="nonzero" d="M23.3682,15.995 C21.89,15.995 20.7001,17.185 20.7001,18.6631 L20.7001,81.3343 C20.7001,82.8125 21.89,84.0024 23.3682,84.0024 L76.6077,84.0024 C78.0859,84.0024 79.2758,82.8125 79.2758,81.3343 L79.2758,18.6631 C79.2758,17.185 78.0859,15.995 76.6077,15.995 L50.8905,15.995 C51.6703,16.0444 52.2838,16.6869 52.2838,17.4796 L52.2838,26.9112 C52.2838,27.7362 51.6196,28.4004 50.7946,28.4004 L49.3054,28.4004 C48.4804,28.4004 47.8161,27.7362 47.8161,26.9112 L47.8161,17.4796 C47.8161,16.6869 48.4298,16.0443 49.2096,15.995 L23.3682,15.995 M46.7613,35.2087 L53.2146,35.2087 C53.9021,35.2087 54.4556,35.7622 54.4556,36.4497 L54.4556,42.903 C54.4556,43.5906 53.9021,44.1439 53.2146,44.1439 L46.7613,44.1439 C46.0738,44.1439 45.5202,43.5906 45.5202,42.903 L45.5202,36.4497 C45.5202,35.7622 46.0738,35.2087 46.7613,35.2087 "/>
</g>

<g fill="#000000" fill-opacity="1" stroke="none" transform="matrix(0.228,0,0,0.228,11.6,9.6)"
font-family="Inter" font-size="11" font-weight="700" font-style="normal" 
>
<path vector-effect="none" fill-rule="evenodd" d="M14.2421,17.9523 C14.2421,17.1298 14.9088,16.4631 15.7313,16.4631 L18.7097,16.4631 C19.5322,16.4631 20.1989,17.1298 20.1989,17.9523 L20.1989,33.8372 C20.1989,34.6597 19.5322,35.3264 18.7097,35.3264 L15.7313,35.3264 C14.9088,35.3264 14.2421,34.6597 14.2421,33.8372 L14.2421,17.9523"/>
</g>

<g fill="none" stroke="#000000" stroke-opacity="1" stroke-width="2.43854" stroke-linecap="butt" stroke-linejoin="miter" stroke-miterlimit="4" transform="matrix(0.228,0,0,0.228,11.6,9.6)"
font-family="Inter" font-size="11" font-weight="700" font-style="normal" 
>
<path vector-effect="none" fill-rule="evenodd" d="M14.2421,17.9523 C14.2421,17.1298 14.9088,16.4631 15.7313,16.4631 L18.7097,16.4631 C19.5322,16.4631 20.1989,17.1298 20.1989,17.9523 L20.1989,33.8372 C20.1989,34.6597 19.5322,35.3264 18.7097,35.3264 L15.7313,35.3264 C14.9088,35.3264 14.2421,34.6597 14.2421,33.8372 L14.2421,17.9523"/>
</g>

<g fill="#000000" fill-opacity="1" stroke="none" transform="matrix(0.228,0,0,0.228,11.6,9.6)"
font-family="Inter" font-size="11" font-weight="700" font-style="normal" 
>
<path vector-effect="none" fill-rule="evenodd" d="M79.3249,17.4662 C79.3249,16.6438 79.9916,15.977 80.8141,15.977 L83.7925,15.977 C84.615,15.977 85.2817,16.6438 85.2817,17.4662 L85.2817,33.3512 C85.2817,34.1736 84.615,34.8404 83.7925,34.8404 L80.8141,34.8404 C79.9916,34.8404 79.3249,34.1736 79.3249,33.3512 L79.3249,17.4662"/>
</g>

<g fill="none" stroke="#000000" stroke-opacity="1" stroke-width="2.43854" stroke-linecap="butt" stroke-linejoin="miter" stroke-miterlimit="4" transform="matrix(0.228,0,0,0.228,11.6,9.6)"
font-family="Inter" font-size="11" font-weight="700" font-style="normal" 
>
<path vector-effect="none" fill-rule="evenodd" d="M79.3249,17.4662 C79.3249,16.6438 79.9916,15.977 80.8141,15.977 L83.7925,15.977 C84.615,15.977 85.2817,16.6438 85.2817,17.4662 L85.2817,33.3512 C85.2817,34.1736 84.615,34.8404 83.7925,34.8404 L80.8141,34.8404 C79.9916,34.8404 79.3249,34.1736 79.3249,33.3512 L79.3249,17.4662"/>
</g>

<g fill="#000000" fill-opacity="1" stroke="none" transform="matrix(0.228,0,0,0.228,11.6,9.6)"
font-family="Inter" font-size="11" font-weight="700" font-style="normal" 
>
<path vector-effect="none" fill-rule="evenodd" d="M79.5633,66.576 C79.5633,65.7535 80.23,65.0868 81.0525,65.0868 L84.0309,65.0868 C84.8534,65.0868 85.5201,65.7535 85.5201,66.576 L85.5201,82.4609 C85.5201,83.2834 84.8534,83.9501 84.0309,83.9501 L81.0525,83.9501 C80.23,83.9501 79.5633,83.2834 79.5633,82.4609 L79.5633,66.576"/>
</g>

<g fill="none" stroke="#000000" stroke-opacity="1" stroke-width="2.43854" stroke-linecap="butt" stroke-linejoin="miter" stroke-miterlimit="4" transform="matrix(0.228,0,0,0.228,11.6,9.6)"
font-family="Inter" font-size="11" font-weight="700" font-style="normal" 
>
<path vector-effect="none" fill-rule="evenodd" d="M79.5633,66.576 C79.5633,65.7535 80.23,65.0868 81.0525,65.0868 L84.0309,65.0868 C84.8534,65.0868 85.5201,65.7535 85.5201,66.576 L85.5201,82.4609 C85.5201,83.2834 84.8534,83.9501 84.0309,83.9501 L81.0525,83.9501 C80.23,83.9501 79.5633,83.2834 79.5633,82.4609 L79.5633,66.576"/>
</g>

<g fill="#000000" fill-opacity="1" stroke="none" transform="matrix(0.228,0,0,0.228,11.6,9.6)"
font-family="Inter" font-size="11" font-weight="700" font-style="normal" 
>
<path vector-effect="none" fill-rule="evenodd" d="M14.6928,66.6283 C14.6928,65.8058 15.3595,65.1391 16.182,65.1391 L19.1604,65.1391 C19.9829,65.1391 20.6496,65.8058 20.6496,66.6283 L20.6496,82.5132 C20.6496,83.3357 19.9829,84.0024 19.1604,84.0024 L16.182,84.0024 C15.3595,84.0024 14.6928,83.3357 14.6928,82.5132 L14.6928,66.6283"/>
</g>

<g fill="none" stroke="#000000" stroke-opacity="1" stroke-width="2.43854" stroke-linecap="butt" stroke-linejoin="miter" stroke-miterlimit="4" transform="matrix(0.228,0,0,0.228,11.6,9.6)"
font-family="Inter" font-size="11" font-weight="700" font-style="normal" 
>
<path vector-effect="none" fill-rule="evenodd" d="M14.6928,66.6283 C14.6928,65.8058 15.3595,65.1391 16.182,65.1391 L19.1604,65.1391 C19.9829,65.1391 20.6496,65.8058 20.6496,66.6283 L20.6496,82.5132 C20.6496,83.3357 19.9829,84.0024 19.1604,84.0024 L16.182,84.0024 C15.3595,84.0024 14.6928,83.3357 14.6928,82.5132 L14.6928,66.6283"/>
</g>

<g fill="none" stroke="#000000" stroke-opacity="1" stroke-width="2.43854" stroke-linecap="butt" stroke-linejoin="miter" stroke-miterlimit="4" transform="matrix(0.228,0,0,0.228,11.6,9.6)"
font-family="Inter" font-size="11" font-weight="700" font-style="normal" 
>
<path vector-effect="none" fill-rule="evenodd" d="M20.92,17.503 C20.92,16.6806 21.5867,16.0138 22.4092,16.0138 L27.125,16.0138 C27.9475,16.0138 28.6142,16.6806 28.6142,17.503 L28.6142,55.9743 C28.6142,56.7968 27.9475,57.4635 27.125,57.4635 L22.4092,57.4635 C21.5867,57.4635 20.92,56.7968 20.92,55.9743 L20.92,17.503"/>
</g>

<g fill="none" stroke="#000000" stroke-opacity="1" stroke-width="2.43854" stroke-linecap="butt" stroke-linejoin="miter" stroke-miterlimit="4" transform="matrix(0.228,0,0,0.228,11.6,9.6)"
font-family="Inter" font-size="11" font-weight="700" font-style="normal" 
>
<path vector-effect="none" fill-rule="evenodd" d="M71.4269,17.6638 C71.4269,16.8414 72.0937,16.1746 72.9162,16.1746 L77.632,16.1746 C78.4545,16.1746 79.1212,16.8414 79.1212,17.6638 L79.1212,56.1351 C79.1212,56.9576 78.4545,57.6243 77.632,57.6243 L72.9162,57.6243 C72.0937,57.6243 71.4269,56.9576 71.4269,56.1351 L71.4269,17.6638"/>
</g>

<g fill="#ffffff" fill-opacity="1" stroke="none" transform="matrix(0.228,0,0,0.228,11.6,9.6)"
font-family="Inter" font-size="11" font-weight="700" font-style="normal" 
>
<path vector-effect="none" fill-rule="evenodd" d="M41.9526,15.9757 C41.9526,15.9593 41.9659,15.9461 41.9822,15.9461 L57.922,15.9461 C57.9384,15.9461 57.9516,15.9593 57.9516,15.9757 C57.9516,15.992 57.9384,16.0053 57.922,16.0053 L41.9822,16.0053 C41.9659,16.0053 41.9526,15.992 41.9526,15.9757 "/>
</g>

<g fill="none" stroke="#000000" stroke-opacity="1" stroke-width="2.3865" stroke-linecap="butt" stroke-linejoin="miter" stroke-miterlimit="4" transform="matrix(0.228,0,0,0.228,11.6,9.6)"
font-family="Inter" font-size="11" font-weight="700" font-style="normal" 
>
<path vector-effect="none" fill-rule="evenodd" d="M41.9526,15.9757 C41.9526,15.9593 41.9659,15.9461 41.9822,15.9461 L57.922,15.9461 C57.9384,15.9461 57.9516,15.9593 57.9516,15.9757 C57.9516,15.992 57.9384,16.0053 57.922,16.0053 L41.9822,16.0053 C41.9659,16.0053 41.9526,15.992 41.9526,15.9757 "/>
</g>

<g fill="#ffffff" fill-opacity="1" stroke="none" transform="matrix(1,0,0,1,0,0)"
font-family="Inter" font-size="11" font-weight="700" font-style="normal" 
>
</g>

<g fill="#ffffff" fill-opacity="1" stroke="#6c25f1" stroke-opacity="1" stroke-width="1" stroke-linecap="square" stroke-linejoin="bevel" transform="matrix(1,0,0,1,0,0)"
font-family="Inter" font-size="11" font-weight="700" font-style="normal" 
>
<polyline fill="none" vector-effect="none" points="45,11 45,31 " />
</g>

<g fill="#ffffff" fill-opacity="1" stroke="#6c25f1" stroke-opacity="1" stroke-width="1" stroke-linecap="square" stroke-linejoin="bevel" transform="matrix(1,0,0,1,0,0)"
font-family="Inter" font-size="11" font-weight="700" font-style="normal" 
>
</g>

<g fill="#ffffff" fill-opacity="1" stroke="#6c25f1" stroke-opacity="1" stroke-width="1" stroke-linecap="square" stroke-linejoin="bevel" transform="matrix(1,0,0,1,0,0)"
font-family="Inter" font-size="11" font-weight="700" font-style="normal" 
>
</g>

<g fill="#808080" fill-opacity="1" stroke="#ffffff" stroke-opacity="1" stroke-width="1.2" stroke-linecap="square" stroke-linejoin="bevel" transform="matrix(1,0,0,1,227,6)"
font-family="Inter" font-size="11" font-weight="700" font-style="normal" 
>
<path vector-effect="none" fill-rule="evenodd" d="M0.5,12 C0.5,5.64873 5.87258,0.5 12.5,0.5 L19.5,0.5 C26.1274,0.5 31.5,5.64873 31.5,12 C31.5,18.3513 26.1274,23.5 19.5,23.5 L12.5,23.5 C5.87258,23.5 0.5,18.3513 0.5,12 "/>
</g>

<g fill="#ff0000" fill-opacity="1" stroke="none" transform="matrix(0.615385,0,0,0.615385,234.385,13.3846)"
font-family="Inter" font-size="11" font-weight="700" font-style="normal" 
>
<path vector-effect="none" fill-rule="nonzero" d="M2.64,1.27 L7.5,6.13 L12.34,1.29 C12.5114,1.1076 12.7497,1.0029 13,1 C13.5523,1 14,1.4477 14,2 C14.0047,2.2478 13.907,2.4866 13.73,2.66 L8.84,7.5 L13.73,12.39 C13.8948,12.5512 13.9915,12.7696 14,13 C14,13.5523 13.5523,14 13,14 C12.7423,14.0107 12.492,13.9127 12.31,13.73 L7.5,8.87 L2.65,13.72 C2.4793,13.8963 2.2453,13.9971 2,14 C1.4477,14 1,13.5523 1,13 C0.9953,12.7522 1.093,12.5134 1.27,12.34 L6.16,7.5 L1.27,2.61 C1.1052,2.4488 1.0085,2.2304 1,2 C1,1.4477 1.4477,1 2,1 C2.2404,1.0029 2.4701,1.0998 2.64,1.27 "/>
</g>

<g fill="#808080" fill-opacity="1" stroke="#ffffff" stroke-opacity="1" stroke-width="1.2" stroke-linecap="square" stroke-linejoin="bevel" transform="matrix(1,0,0,1,227,6)"
font-family="Inter" font-size="11" font-weight="700" font-style="normal" 
>
</g>

<g fill="#ffffff" fill-opacity="1" stroke="none" transform="matrix(0.03125,0,0,0.03125,245,14)"
font-family="Inter" font-size="11" font-weight="700" font-style="normal" 
>
<path vector-effect="none" fill-rule="nonzero" d="M111.326,191.938 C120.545,201.158 135.517,201.158 144.737,191.938 L239.144,97.5313 C245.929,90.7458 247.921,80.6413 244.233,71.7907 C240.545,62.9401 231.989,57.1871 222.401,57.1871 L33.5875,57.2608 C24.0731,57.2608 15.4437,63.0137 11.7559,71.8644 C8.06815,80.715 10.1333,90.8195 16.845,97.605 L111.252,192.012 L111.326,191.938"/>
</g>

<g fill="none" stroke="#000000" stroke-opacity="1" stroke-width="13.7195" stroke-linecap="butt" stroke-linejoin="miter" stroke-miterlimit="4" transform="matrix(0.03125,0,0,0.03125,245,14)"
font-family="Inter" font-size="11" font-weight="700" font-style="normal" 
>
<path vector-effect="none" fill-rule="nonzero" d="M111.326,191.938 C120.545,201.158 135.517,201.158 144.737,191.938 L239.144,97.5313 C245.929,90.7458 247.921,80.6413 244.233,71.7907 C240.545,62.9401 231.989,57.1871 222.401,57.1871 L33.5875,57.2608 C24.0731,57.2608 15.4437,63.0137 11.7559,71.8644 C8.06815,80.715 10.1333,90.8195 16.845,97.605 L111.252,192.012 L111.326,191.938"/>
</g>

<g fill="#808080" fill-opacity="1" stroke="#ffffff" stroke-opacity="1" stroke-width="1.2" stroke-linecap="square" stroke-linejoin="bevel" transform="matrix(1,0,0,1,227,6)"
font-family="Inter" font-size="11" font-weight="700" font-style="normal" 
>
</g>

<g fill="#ffffff" fill-opacity="1" stroke="#6c25f1" stroke-opacity="1" stroke-width="1" stroke-linecap="square" stroke-linejoin="bevel" transform="matrix(1,0,0,1,0,0)"
font-family="Inter" font-size="11" font-weight="700" font-style="normal" 
>
</g>

<g fill="#935df5" fill-opacity="1" stroke="#6c25f1" stroke-opacity="1" stroke-width="1.2" stroke-linecap="square" stroke-linejoin="bevel" transform="matrix(1,0,0,1,56,6)"
font-family="Inter" font-size="11" font-weight="700" font-style="normal" 
>
<path vector-effect="none" fill-rule="evenodd" d="M0.5,3.5 C0.5,1.84315 1.84315,0.5 3.5,0.5 L71.5,0.5 C73.1569,0.5 74.5,1.84315 74.5,3.5 L74.5,20.5 C74.5,22.1569 73.1569,23.5 71.5,23.5 L3.5,23.5 C1.84315,23.5 0.5,22.1569 0.5,20.5 L0.5,3.5"/>
</g>

<g fill="#ffffff" fill-opacity="1" stroke="none" transform="matrix(1,0,0,1,56,6)"
font-family="Inter" font-size="11" font-weight="700" font-style="normal" 
>
<path vector-effect="none" fill-rule="nonzero" d="M10,9.39453 L10,8 L16.5703,8 L16.5703,9.39453 L14.1211,9.39453 L14.1211,16 L12.4492,16 L12.4492,9.39453 L10,9.39453 M17.6484,16 L17.6484,8 L19.3398,8 L19.3398,11.3008 L22.7734,11.3008 L22.7734,8 L24.4609,8 L24.4609,16 L22.7734,16 L22.7734,12.6953 L19.3398,12.6953 L19.3398,16 L17.6484,16 M32.543,8 L32.543,16 L31.082,16 L27.6016,10.9648 L27.543,10.9648 L27.543,16 L25.8516,16 L25.8516,8 L27.3359,8 L30.7891,13.0313 L30.8594,13.0313 L30.8594,8 L32.543,8 M33.9297,16 L33.9297,8 L35.6211,8 L35.6211,11.3008 L39.0547,11.3008 L39.0547,8 L40.7422,8 L40.7422,16 L39.0547,16 L39.0547,12.6953 L35.6211,12.6953 L35.6211,16 L33.9297,16 M42.1328,16 L42.1328,8 L45.3359,8 C45.9245,8 46.4154,8.08724 46.8086,8.26172 C47.2018,8.4362 47.4974,8.67773 47.6953,8.98633 C47.8932,9.29492 47.9922,9.64974 47.9922,10.0508 C47.9922,10.3633 47.9297,10.6374 47.8047,10.873 C47.6797,11.1087 47.5085,11.3014 47.291,11.4512 C47.0736,11.6009 46.8255,11.707 46.5469,11.7695 L46.5469,11.8477 C46.8516,11.8607 47.1374,11.9466 47.4043,12.1055 C47.6712,12.2643 47.888,12.4863 48.0547,12.7715 C48.2214,13.0566 48.3047,13.3958 48.3047,13.7891 C48.3047,14.2135 48.1999,14.5918 47.9902,14.9238 C47.7806,15.2559 47.4714,15.5182 47.0625,15.7109 C46.6536,15.9036 46.1497,16 45.5508,16 L42.1328,16 M43.8242,14.6172 L45.2031,14.6172 C45.6745,14.6172 46.0182,14.5267 46.2344,14.3457 C46.4505,14.1647 46.5586,13.9232 46.5586,13.6211 C46.5586,13.3997 46.5052,13.2044 46.3984,13.0352 C46.2917,12.8659 46.14,12.7331 45.9434,12.6367 C45.7467,12.5404 45.513,12.4922 45.2422,12.4922 L43.8242,12.4922 L43.8242,14.6172 M43.8242,11.3477 L45.0781,11.3477 C45.3099,11.3477 45.5163,11.3066 45.6973,11.2246 C45.8783,11.1426 46.0215,11.026 46.127,10.875 C46.2324,10.724 46.2852,10.543 46.2852,10.332 C46.2852,10.043 46.1829,9.8099 45.9785,9.63281 C45.7741,9.45573 45.4844,9.36719 45.1094,9.36719 L43.8242,9.36719 L43.8242,11.3477 M52.832,8 L52.832,16 L51.1406,16 L51.1406,9.60547 L51.0938,9.60547 L49.2617,10.7539 L49.2617,9.25391 L51.2422,8 L52.832,8"/>
</g>

<g fill="#ffffff" fill-opacity="1" stroke="none" transform="matrix(0.03125,0,0,0.03125,117,14)"
font-family="Inter" font-size="11" font-weight="700" font-style="normal" 
>
<path vector-effect="none" fill-rule="nonzero" d="M111.326,191.938 C120.545,201.158 135.517,201.158 144.737,191.938 L239.144,97.5313 C245.929,90.7458 247.921,80.6413 244.233,71.7907 C240.545,62.9401 231.989,57.1871 222.401,57.1871 L33.5875,57.2608 C24.0731,57.2608 15.4437,63.0137 11.7559,71.8644 C8.06815,80.715 10.1333,90.8195 16.845,97.605 L111.252,192.012 L111.326,191.938"/>
</g>

<g fill="none" stroke="#000000" stroke-opacity="1" stroke-width="13.7195" stroke-linecap="butt" stroke-linejoin="miter" stroke-miterlimit="4" transform="matrix(0.03125,0,0,0.03125,117,14)"
font-family="Inter" font-size="11" font-weight="700" font-style="normal" 
>
<path vector-effect="none" fill-rule="nonzero" d="M111.326,191.938 C120.545,201.158 135.517,201.158 144.737,191.938 L239.144,97.5313 C245.929,90.7458 247.921,80.6413 244.233,71.7907 C240.545,62.9401 231.989,57.1871 222.401,57.1871 L33.5875,57.2608 C24.0731,57.2608 15.4437,63.0137 11.7559,71.8644 C8.06815,80.715 10.1333,90.8195 16.845,97.605 L111.252,192.012 L111.326,191.938"/>
</g>

<g fill="#ffffff" fill-opacity="1" stroke="none" transform="matrix(1,0,0,1,56,6)"
font-family="Inter" font-size="11" font-weight="700" font-style="normal" 
>
</g>

<g fill="#ffffff" fill-opacity="1" stroke="#6c25f1" stroke-opacity="1" stroke-width="1" stroke-linecap="square" stroke-linejoin="bevel" transform="matrix(1,0,0,1,0,0)"
font-family="Inter" font-size="11" font-weight="700" font-style="normal" 
>
</g>

<g fill="none" stroke="#000000" stroke-opacity="1" stroke-width="1" stroke-linecap="square" stroke-linejoin="bevel" transform="matrix(1,0,0,1,0,0)"
font-family=".AppleSystemUIFont" font-size="13" font-weight="400" font-style="normal" 
>
</g>
</g>
</svg>
