<?xml version="1.0" encoding="UTF-8" standalone="no"?>
<svg width="61.3833mm" height="11.2889mm"
 viewBox="0 0 174 32"
 xmlns="http://www.w3.org/2000/svg" xmlns:xlink="http://www.w3.org/1999/xlink" version="1.2" baseProfile="tiny">
<title>Abstract block</title>
<desc>block_lists_index_of_value</desc>
<defs>
</defs>
<g fill="none" stroke="black" stroke-width="1" fill-rule="evenodd" stroke-linecap="square" stroke-linejoin="bevel" >

<g fill="none" stroke="#000000" stroke-opacity="1" stroke-width="1" stroke-linecap="square" stroke-linejoin="bevel" transform="matrix(1,0,0,1,0,0)"
font-family=".AppleSystemUIFont" font-size="13" font-weight="400" font-style="normal" 
>
</g>

<g fill="none" stroke="#000000" stroke-opacity="1" stroke-width="1" stroke-linecap="square" stroke-linejoin="bevel" transform="matrix(1,0,0,1,0,0)"
font-family=".AppleSystemUIFont" font-size="13" font-weight="400" font-style="normal" 
>
</g>

<g fill="#ff661a" fill-opacity="1" stroke="#de4600" stroke-opacity="1" stroke-width="1.2" stroke-linecap="square" stroke-linejoin="bevel" transform="matrix(1,0,0,1,0,0)"
font-family=".AppleSystemUIFont" font-size="13" font-weight="400" font-style="normal" 
>
<path vector-effect="none" fill-rule="evenodd" d="M1,16 C1,7.71573 8.16344,1 17,1 L156.776,1 C165.613,1 172.776,7.71573 172.776,16 C172.776,24.2843 165.613,31 156.776,31 L17,31 C8.16344,31 1,24.2843 1,16 "/>
</g>

<g fill="#ffffff" fill-opacity="1" stroke="none" transform="matrix(1,0,0,1,0,0)"
font-family="Inter" font-size="11" font-weight="700" font-style="normal" 
>
<path vector-effect="none" fill-rule="nonzero" d="M11.8672,20 L11.8672,14 L13.5313,14 L13.5313,20 L11.8672,20 M12.7031,13.2266 C12.4557,13.2266 12.2441,13.1439 12.0684,12.9785 C11.8926,12.8132 11.8047,12.6146 11.8047,12.3828 C11.8047,12.1536 11.8926,11.9564 12.0684,11.791 C12.2441,11.6257 12.4557,11.543 12.7031,11.543 C12.9505,11.543 13.1621,11.6257 13.3379,11.791 C13.5137,11.9564 13.6016,12.1536 13.6016,12.3828 C13.6016,12.6146 13.5137,12.8132 13.3379,12.9785 C13.1621,13.1439 12.9505,13.2266 12.7031,13.2266 M16.5156,16.5313 L16.5156,20 L14.8516,20 L14.8516,14 L16.4375,14 L16.4375,15.0586 L16.5078,15.0586 C16.6406,14.7096 16.8633,14.4329 17.1758,14.2285 C17.4883,14.0241 17.8672,13.9219 18.3125,13.9219 C18.7292,13.9219 19.0924,14.013 19.4023,14.1953 C19.7122,14.3776 19.9531,14.6374 20.125,14.9746 C20.2969,15.3118 20.3828,15.7135 20.3828,16.1797 L20.3828,20 L18.7188,20 L18.7188,16.4766 C18.7214,16.1094 18.6276,15.8223 18.4375,15.6152 C18.2474,15.4082 17.9857,15.3047 17.6523,15.3047 C17.4284,15.3047 17.2311,15.3529 17.0605,15.4492 C16.89,15.5456 16.7572,15.6855 16.6621,15.8691 C16.5671,16.0527 16.5182,16.2734 16.5156,16.5313 M23.8906,20.0977 C23.4349,20.0977 23.0228,19.9798 22.6543,19.7441 C22.2858,19.5085 21.9941,19.1608 21.7793,18.7012 C21.5645,18.2415 21.457,17.6771 21.457,17.0078 C21.457,16.3203 21.5677,15.748 21.7891,15.291 C22.0104,14.834 22.3053,14.4915 22.6738,14.2637 C23.0423,14.0358 23.4466,13.9219 23.8867,13.9219 C24.2227,13.9219 24.5033,13.9785 24.7285,14.0918 C24.9538,14.2051 25.1361,14.3457 25.2754,14.5137 C25.4147,14.6816 25.5208,14.8464 25.5938,15.0078 L25.6445,15.0078 L25.6445,12 L27.3047,12 L27.3047,20 L25.6641,20 L25.6641,19.0391 L25.5938,19.0391 C25.5156,19.2057 25.4056,19.3704 25.2637,19.5332 C25.1217,19.696 24.9382,19.8307 24.7129,19.9375 C24.4876,20.0443 24.2135,20.0977 23.8906,20.0977 M24.418,18.7734 C24.6862,18.7734 24.9134,18.6999 25.0996,18.5527 C25.2858,18.4056 25.429,18.1992 25.5293,17.9336 C25.6296,17.668 25.6797,17.3568 25.6797,17 C25.6797,16.6432 25.6302,16.3333 25.5313,16.0703 C25.4323,15.8073 25.2891,15.6042 25.1016,15.4609 C24.9141,15.3177 24.6862,15.2461 24.418,15.2461 C24.1445,15.2461 23.9141,15.3203 23.7266,15.4688 C23.5391,15.6172 23.3971,15.8229 23.3008,16.0859 C23.2044,16.349 23.1563,16.6536 23.1563,17 C23.1563,17.349 23.2051,17.6569 23.3027,17.9238 C23.4004,18.1908 23.5423,18.3991 23.7285,18.5488 C23.9147,18.6986 24.1445,18.7734 24.418,18.7734 M31.3984,20.1172 C30.7813,20.1172 30.2507,19.9915 29.8066,19.7402 C29.3626,19.4889 29.0208,19.1322 28.7813,18.6699 C28.5417,18.2077 28.4219,17.6602 28.4219,17.0273 C28.4219,16.4102 28.5417,15.8685 28.7813,15.4023 C29.0208,14.9362 29.3587,14.5729 29.7949,14.3125 C30.2311,14.0521 30.7435,13.9219 31.332,13.9219 C31.7279,13.9219 32.097,13.985 32.4395,14.1113 C32.7819,14.2376 33.0814,14.4271 33.3379,14.6797 C33.5944,14.9323 33.7943,15.2493 33.9375,15.6309 C34.0807,16.0124 34.1523,16.4583 34.1523,16.9688 L34.1523,17.4258 L29.0859,17.4258 L29.0859,16.3945 L32.5859,16.3945 C32.5859,16.1549 32.5339,15.9427 32.4297,15.7578 C32.3255,15.5729 32.1816,15.4277 31.998,15.3223 C31.8145,15.2168 31.6016,15.1641 31.3594,15.1641 C31.1068,15.1641 30.8835,15.222 30.6895,15.3379 C30.4954,15.4538 30.3438,15.6087 30.2344,15.8027 C30.125,15.9967 30.069,16.2122 30.0664,16.4492 L30.0664,17.4297 C30.0664,17.7266 30.1217,17.9831 30.2324,18.1992 C30.3431,18.4154 30.5,18.582 30.7031,18.6992 C30.9063,18.8164 31.1471,18.875 31.4258,18.875 C31.6107,18.875 31.7799,18.849 31.9336,18.7969 C32.0872,18.7448 32.2188,18.6667 32.3281,18.5625 C32.4375,18.4583 32.5208,18.3307 32.5781,18.1797 L34.1172,18.2813 C34.0391,18.651 33.8796,18.9733 33.6387,19.248 C33.3978,19.5228 33.0879,19.7363 32.709,19.8887 C32.3301,20.041 31.8932,20.1172 31.3984,20.1172 M36.5234,14 L37.625,16.0977 L38.7539,14 L40.4609,14 L38.7227,17 L40.5078,20 L38.8086,20 L37.625,17.9258 L36.4609,20 L34.7422,20 L36.5234,17 L34.8047,14 L36.5234,14 M46.7031,20.1172 C46.0964,20.1172 45.5723,19.9876 45.1309,19.7285 C44.6895,19.4694 44.349,19.1074 44.1094,18.6426 C43.8698,18.1777 43.75,17.638 43.75,17.0234 C43.75,16.4036 43.8698,15.8613 44.1094,15.3965 C44.349,14.9316 44.6895,14.5697 45.1309,14.3105 C45.5723,14.0514 46.0964,13.9219 46.7031,13.9219 C47.3099,13.9219 47.834,14.0514 48.2754,14.3105 C48.7168,14.5697 49.0573,14.9316 49.2969,15.3965 C49.5365,15.8613 49.6563,16.4036 49.6563,17.0234 C49.6563,17.638 49.5365,18.1777 49.2969,18.6426 C49.0573,19.1074 48.7168,19.4694 48.2754,19.7285 C47.834,19.9876 47.3099,20.1172 46.7031,20.1172 M46.7109,18.8281 C46.987,18.8281 47.2174,18.7493 47.4023,18.5918 C47.5872,18.4342 47.7272,18.2188 47.8223,17.9453 C47.9173,17.6719 47.9648,17.3607 47.9648,17.0117 C47.9648,16.6628 47.9173,16.3516 47.8223,16.0781 C47.7272,15.8047 47.5872,15.5885 47.4023,15.4297 C47.2174,15.2708 46.987,15.1914 46.7109,15.1914 C46.4323,15.1914 46.1986,15.2708 46.0098,15.4297 C45.821,15.5885 45.679,15.8047 45.584,16.0781 C45.4889,16.3516 45.4414,16.6628 45.4414,17.0117 C45.4414,17.3607 45.4889,17.6719 45.584,17.9453 C45.679,18.2188 45.821,18.4342 46.0098,18.5918 C46.1986,18.7493 46.4323,18.8281 46.7109,18.8281 M53.9688,14 L53.9688,15.25 L50.2656,15.25 L50.2656,14 L53.9688,14 M51.1133,20 L51.1133,13.5664 C51.1133,13.1315 51.1986,12.7708 51.3691,12.4844 C51.5397,12.1979 51.7734,11.9831 52.0703,11.8398 C52.3672,11.6966 52.7044,11.625 53.082,11.625 C53.3372,11.625 53.571,11.6445 53.7832,11.6836 C53.9954,11.7227 54.1536,11.7578 54.2578,11.7891 L53.9609,13.0391 C53.8958,13.0182 53.8158,12.9987 53.7207,12.9805 C53.6257,12.9622 53.5286,12.9531 53.4297,12.9531 C53.1849,12.9531 53.0143,13.0098 52.918,13.123 C52.8216,13.2363 52.7734,13.3945 52.7734,13.5977 L52.7734,20 L51.1133,20"/>
</g>

<g fill="#ffffff" fill-opacity="1" stroke="none" transform="matrix(1,0,0,1,0,0)"
font-family="Inter" font-size="11" font-weight="700" font-style="normal" 
>
<path vector-effect="none" fill-rule="nonzero" d="M100.711,20 L100.711,14 L102.375,14 L102.375,20 L100.711,20 M101.547,13.2266 C101.299,13.2266 101.088,13.1439 100.912,12.9785 C100.736,12.8132 100.648,12.6146 100.648,12.3828 C100.648,12.1536 100.736,11.9564 100.912,11.791 C101.088,11.6257 101.299,11.543 101.547,11.543 C101.794,11.543 102.006,11.6257 102.182,11.791 C102.357,11.9564 102.445,12.1536 102.445,12.3828 C102.445,12.6146 102.357,12.8132 102.182,12.9785 C102.006,13.1439 101.794,13.2266 101.547,13.2266 M105.359,16.5313 L105.359,20 L103.695,20 L103.695,14 L105.281,14 L105.281,15.0586 L105.352,15.0586 C105.484,14.7096 105.707,14.4329 106.02,14.2285 C106.332,14.0241 106.711,13.9219 107.156,13.9219 C107.573,13.9219 107.936,14.013 108.246,14.1953 C108.556,14.3776 108.797,14.6374 108.969,14.9746 C109.141,15.3118 109.227,15.7135 109.227,16.1797 L109.227,20 L107.563,20 L107.563,16.4766 C107.565,16.1094 107.471,15.8223 107.281,15.6152 C107.091,15.4082 106.829,15.3047 106.496,15.3047 C106.272,15.3047 106.075,15.3529 105.904,15.4492 C105.734,15.5456 105.601,15.6855 105.506,15.8691 C105.411,16.0527 105.362,16.2734 105.359,16.5313 "/>
</g>

<g fill="#ffffff" fill-opacity="1" stroke="none" transform="matrix(1,0,0,1,0,0)"
font-family="Inter" font-size="11" font-weight="700" font-style="normal" 
>
</g>

<g fill="#ffffff" fill-opacity="1" stroke="none" transform="matrix(1,0,0,1,0,0)"
font-family="Inter" font-size="11" font-weight="700" font-style="normal" 
>
</g>

<g fill="#ffffff" fill-opacity="1" stroke="#ca4000" stroke-opacity="1" stroke-width="1.2" stroke-linecap="square" stroke-linejoin="bevel" transform="matrix(1,0,0,1,61,5)"
font-family="Inter" font-size="11" font-weight="700" font-style="normal" 
>
<path vector-effect="none" fill-rule="evenodd" d="M1,11 C1,5.47715 5.92487,1 12,1 L21.6094,1 C27.6845,1 32.6094,5.47715 32.6094,11 C32.6094,16.5228 27.6845,21 21.6094,21 L12,21 C5.92487,21 1,16.5228 1,11 "/>
</g>

<g fill="#000000" fill-opacity="1" stroke="none" transform="matrix(1,0,0,1,61,5)"
font-family="Inter" font-size="10" font-weight="700" font-style="normal" 
>
<path vector-effect="none" fill-rule="nonzero" d="M6.05682,14.4219 L6.05682,8.96733 L7.5696,8.96733 L7.5696,14.4219 L6.05682,14.4219 M6.81676,8.2642 C6.59186,8.2642 6.3995,8.18904 6.2397,8.03871 C6.0799,7.88838 6,7.70786 6,7.49716 C6,7.28883 6.0799,7.10949 6.2397,6.95916 C6.3995,6.80883 6.59186,6.73366 6.81676,6.73366 C7.04167,6.73366 7.23402,6.80883 7.39382,6.95916 C7.55362,7.10949 7.63352,7.28883 7.63352,7.49716 C7.63352,7.70786 7.55362,7.88838 7.39382,8.03871 C7.23402,8.18904 7.04167,8.2642 6.81676,8.2642 M11.6768,8.96733 L11.6768,10.1037 L8.39205,10.1037 L8.39205,8.96733 L11.6768,8.96733 M9.13778,7.66051 L10.6506,7.66051 L10.6506,12.7457 C10.6506,12.8854 10.6719,12.9937 10.7145,13.0707 C10.7571,13.1476 10.8169,13.2015 10.8938,13.2322 C10.9708,13.263 11.0601,13.2784 11.1619,13.2784 C11.233,13.2784 11.304,13.2719 11.375,13.2589 C11.446,13.2459 11.5005,13.2358 11.5384,13.2287 L11.7763,14.3544 C11.7005,14.3781 11.594,14.4059 11.4567,14.4379 C11.3194,14.4698 11.1525,14.4893 10.956,14.4964 C10.5914,14.5107 10.2724,14.4621 9.99893,14.3509 C9.7255,14.2396 9.51302,14.0668 9.36151,13.8324 C9.20999,13.598 9.13542,13.3021 9.13778,12.9446 L9.13778,7.66051 M15.0739,14.5284 C14.5128,14.5284 14.0304,14.4142 13.6268,14.1857 C13.2231,13.9573 12.9124,13.6329 12.6946,13.2127 C12.4768,12.7925 12.3679,12.2947 12.3679,11.7195 C12.3679,11.1584 12.4768,10.666 12.6946,10.2422 C12.9124,9.81842 13.2196,9.48816 13.6161,9.25142 C14.0127,9.01468 14.4785,8.89631 15.0135,8.89631 C15.3733,8.89631 15.7089,8.95372 16.0202,9.06854 C16.3316,9.18336 16.6038,9.35559 16.837,9.58523 C17.0702,9.81487 17.2519,10.1031 17.3821,10.4499 C17.5123,10.7968 17.5774,11.2022 17.5774,11.6662 L17.5774,12.0817 L12.9716,12.0817 L12.9716,11.1442 L16.1534,11.1442 C16.1534,10.9264 16.1061,10.7334 16.0114,10.5653 C15.9167,10.3973 15.7859,10.2653 15.619,10.1694 C15.4521,10.0735 15.2585,10.0256 15.0384,10.0256 C14.8087,10.0256 14.6057,10.0782 14.4293,10.1836 C14.253,10.2889 14.1151,10.4298 14.0156,10.6062 C13.9162,10.7826 13.8653,10.9785 13.8629,11.1939 L13.8629,12.0852 C13.8629,12.3551 13.9132,12.5883 14.0138,12.7848 C14.1145,12.9813 14.2571,13.1328 14.4418,13.2393 C14.6264,13.3459 14.8454,13.3991 15.0987,13.3991 C15.2668,13.3991 15.4207,13.3755 15.5604,13.3281 C15.7,13.2808 15.8196,13.2098 15.919,13.1151 C16.0185,13.0204 16.0942,12.9044 16.1463,12.767 L17.5455,12.8594 C17.4744,13.1955 17.3294,13.4885 17.1104,13.7383 C16.8915,13.988 16.6097,14.1822 16.2653,14.3207 C15.9208,14.4592 15.5237,14.5284 15.0739,14.5284 M18.5568,14.4219 L18.5568,8.96733 L19.9986,8.96733 L19.9986,9.92969 L20.0625,9.92969 C20.1761,9.61009 20.3655,9.35795 20.6307,9.1733 C20.8958,8.98864 21.2131,8.89631 21.5824,8.89631 C21.9564,8.89631 22.2749,8.98923 22.5376,9.17507 C22.8004,9.36091 22.9756,9.61245 23.0632,9.92969 L23.12,9.92969 C23.2313,9.61719 23.4331,9.36683 23.7255,9.17862 C24.0179,8.99041 24.3641,8.89631 24.7642,8.89631 C25.2732,8.89631 25.6869,9.05788 26.0053,9.38104 C26.3237,9.70419 26.483,10.1617 26.483,10.7536 L26.483,14.4219 L24.9737,14.4219 L24.9737,11.0518 C24.9737,10.7488 24.8932,10.5215 24.7322,10.37 C24.5713,10.2185 24.37,10.1428 24.1286,10.1428 C23.8539,10.1428 23.6397,10.2298 23.4858,10.4038 C23.3319,10.5778 23.255,10.8068 23.255,11.0909 L23.255,14.4219 L21.7884,14.4219 L21.7884,11.0199 C21.7884,10.7524 21.712,10.5393 21.5593,10.3807 C21.4066,10.2221 21.206,10.1428 20.9574,10.1428 C20.7893,10.1428 20.6384,10.1848 20.5046,10.2688 C20.3709,10.3529 20.2649,10.4701 20.1868,10.6204 C20.1087,10.7707 20.0696,10.9465 20.0696,11.1477 L20.0696,14.4219 L18.5568,14.4219"/>
</g>

<g fill="#000000" fill-opacity="1" stroke="none" transform="matrix(1,0,0,1,67,9.95313)"
font-family="Inter" font-size="10" font-weight="700" font-style="normal" 
>
</g>

<g fill="#000000" fill-opacity="1" stroke="none" transform="matrix(1,0,0,1,67,9.95313)"
font-family="Inter" font-size="10" font-weight="700" font-style="normal" 
>
</g>

<g fill="#000000" fill-opacity="1" stroke="none" transform="matrix(1,0,0,1,61,5)"
font-family="Inter" font-size="10" font-weight="700" font-style="normal" 
>
</g>

<g fill="#ffffff" fill-opacity="1" stroke="none" transform="matrix(1,0,0,1,0,0)"
font-family="Inter" font-size="11" font-weight="700" font-style="normal" 
>
</g>

<g fill="#ff661a" fill-opacity="1" stroke="#de4600" stroke-opacity="1" stroke-width="1.2" stroke-linecap="square" stroke-linejoin="bevel" transform="matrix(1,0,0,1,115.609,4)"
font-family="Inter" font-size="11" font-weight="700" font-style="normal" 
>
<path vector-effect="none" fill-rule="evenodd" d="M0.5,3.5 C0.5,1.84315 1.84315,0.5 3.5,0.5 L44,0.5 C45.6569,0.5 47,1.84315 47,3.5 L47,20.5 C47,22.1569 45.6569,23.5 44,23.5 L3.5,23.5 C1.84315,23.5 0.5,22.1569 0.5,20.5 L0.5,3.5"/>
</g>

<g fill="#ffffff" fill-opacity="1" stroke="none" transform="matrix(1,0,0,1,115.609,4)"
font-family="Inter" font-size="11" font-weight="700" font-style="normal" 
>
<path vector-effect="none" fill-rule="nonzero" d="M11.1719,7.95313 L11.1719,15.9531 L9.50781,15.9531 L9.50781,7.95313 L11.1719,7.95313 M12.4922,15.9531 L12.4922,9.95313 L14.1563,9.95313 L14.1563,15.9531 L12.4922,15.9531 M13.3281,9.17969 C13.0807,9.17969 12.8691,9.09701 12.6934,8.93164 C12.5176,8.76628 12.4297,8.56771 12.4297,8.33594 C12.4297,8.10677 12.5176,7.90951 12.6934,7.74414 C12.8691,7.57878 13.0807,7.49609 13.3281,7.49609 C13.5755,7.49609 13.7871,7.57878 13.9629,7.74414 C14.1387,7.90951 14.2266,8.10677 14.2266,8.33594 C14.2266,8.56771 14.1387,8.76628 13.9629,8.93164 C13.7871,9.09701 13.5755,9.17969 13.3281,9.17969 M20.4688,11.6641 L18.9453,11.7578 C18.9193,11.6276 18.8633,11.5098 18.7773,11.4043 C18.6914,11.2988 18.5788,11.2142 18.4395,11.1504 C18.3001,11.0866 18.1341,11.0547 17.9414,11.0547 C17.6836,11.0547 17.4661,11.1087 17.2891,11.2168 C17.112,11.3249 17.0234,11.4688 17.0234,11.6484 C17.0234,11.7917 17.0807,11.9128 17.1953,12.0117 C17.3099,12.1107 17.5065,12.1901 17.7852,12.25 L18.8711,12.4688 C19.4544,12.5885 19.8893,12.7813 20.1758,13.0469 C20.4622,13.3125 20.6055,13.6615 20.6055,14.0938 C20.6055,14.487 20.4902,14.832 20.2598,15.1289 C20.0293,15.4258 19.7142,15.6569 19.3145,15.8223 C18.9147,15.9876 18.4544,16.0703 17.9336,16.0703 C17.1393,16.0703 16.5072,15.9043 16.0371,15.5723 C15.5671,15.2402 15.2917,14.7878 15.2109,14.2148 L16.8477,14.1289 C16.8971,14.3711 17.0169,14.5553 17.207,14.6816 C17.3971,14.8079 17.6406,14.8711 17.9375,14.8711 C18.2292,14.8711 18.4642,14.8145 18.6426,14.7012 C18.821,14.5879 18.9115,14.4414 18.9141,14.2617 C18.9115,14.1107 18.8477,13.9863 18.7227,13.8887 C18.5977,13.791 18.4049,13.7161 18.1445,13.6641 L17.1055,13.457 C16.5195,13.3398 16.084,13.1367 15.7988,12.8477 C15.5137,12.5586 15.3711,12.1901 15.3711,11.7422 C15.3711,11.3568 15.4759,11.0247 15.6855,10.7461 C15.8952,10.4674 16.1908,10.2526 16.5723,10.1016 C16.9538,9.95052 17.401,9.875 17.9141,9.875 C18.6719,9.875 19.2689,10.0352 19.7051,10.3555 C20.1413,10.6758 20.3958,11.112 20.4688,11.6641 M24.8398,9.95313 L24.8398,11.2031 L21.2266,11.2031 L21.2266,9.95313 L24.8398,9.95313 M22.0469,8.51563 L23.7109,8.51563 L23.7109,14.1094 C23.7109,14.263 23.7344,14.3822 23.7813,14.4668 C23.8281,14.5514 23.8939,14.6107 23.9785,14.6445 C24.0632,14.6784 24.1615,14.6953 24.2734,14.6953 C24.3516,14.6953 24.4297,14.6882 24.5078,14.6738 C24.5859,14.6595 24.6458,14.6484 24.6875,14.6406 L24.9492,15.8789 C24.8659,15.9049 24.7487,15.9355 24.5977,15.9707 C24.4466,16.0059 24.263,16.0273 24.0469,16.0352 C23.6458,16.0508 23.2949,15.9974 22.9941,15.875 C22.6934,15.7526 22.4596,15.5625 22.293,15.3047 C22.1263,15.0469 22.0443,14.7214 22.0469,14.3281 L22.0469,8.51563"/>
</g>

<g fill="#ffffff" fill-opacity="1" stroke="none" transform="matrix(0.03125,0,0,0.03125,149.109,12)"
font-family="Inter" font-size="11" font-weight="700" font-style="normal" 
>
<path vector-effect="none" fill-rule="nonzero" d="M111.326,191.938 C120.545,201.158 135.517,201.158 144.737,191.938 L239.144,97.5313 C245.929,90.7458 247.921,80.6413 244.233,71.7907 C240.545,62.9401 231.989,57.1871 222.401,57.1871 L33.5875,57.2608 C24.0731,57.2608 15.4437,63.0137 11.7559,71.8644 C8.06815,80.715 10.1333,90.8195 16.845,97.605 L111.252,192.012 L111.326,191.938"/>
</g>

<g fill="none" stroke="#000000" stroke-opacity="1" stroke-width="13.7195" stroke-linecap="butt" stroke-linejoin="miter" stroke-miterlimit="4" transform="matrix(0.03125,0,0,0.03125,149.109,12)"
font-family="Inter" font-size="11" font-weight="700" font-style="normal" 
>
<path vector-effect="none" fill-rule="nonzero" d="M111.326,191.938 C120.545,201.158 135.517,201.158 144.737,191.938 L239.144,97.5313 C245.929,90.7458 247.921,80.6413 244.233,71.7907 C240.545,62.9401 231.989,57.1871 222.401,57.1871 L33.5875,57.2608 C24.0731,57.2608 15.4437,63.0137 11.7559,71.8644 C8.06815,80.715 10.1333,90.8195 16.845,97.605 L111.252,192.012 L111.326,191.938"/>
</g>

<g fill="#ffffff" fill-opacity="1" stroke="none" transform="matrix(1,0,0,1,115.609,4)"
font-family="Inter" font-size="11" font-weight="700" font-style="normal" 
>
</g>

<g fill="#ffffff" fill-opacity="1" stroke="none" transform="matrix(1,0,0,1,0,0)"
font-family="Inter" font-size="11" font-weight="700" font-style="normal" 
>
</g>

<g fill="none" stroke="#000000" stroke-opacity="1" stroke-width="1" stroke-linecap="square" stroke-linejoin="bevel" transform="matrix(1,0,0,1,0,0)"
font-family=".AppleSystemUIFont" font-size="13" font-weight="400" font-style="normal" 
>
</g>
</g>
</svg>
