<?xml version="1.0" encoding="UTF-8" standalone="no"?>
<svg width="112.183mm" height="15.5222mm"
 viewBox="0 0 318 44"
 xmlns="http://www.w3.org/2000/svg" xmlns:xlink="http://www.w3.org/1999/xlink" version="1.2" baseProfile="tiny">
<title>Abstract block</title>
<desc>block_hubs_buwizz_sensors_set_power_mode</desc>
<defs>
</defs>
<g fill="none" stroke="black" stroke-width="1" fill-rule="evenodd" stroke-linecap="square" stroke-linejoin="bevel" >

<g fill="none" stroke="#000000" stroke-opacity="1" stroke-width="1" stroke-linecap="square" stroke-linejoin="bevel" transform="matrix(1,0,0,1,0,0)"
font-family=".AppleSystemUIFont" font-size="13" font-weight="400" font-style="normal" 
>
</g>

<g fill="none" stroke="#000000" stroke-opacity="1" stroke-width="1" stroke-linecap="square" stroke-linejoin="bevel" transform="matrix(1,0,0,1,0,0)"
font-family=".AppleSystemUIFont" font-size="13" font-weight="400" font-style="normal" 
>
</g>

<g fill="#ffb515" fill-opacity="1" stroke="#d89400" stroke-opacity="1" stroke-width="1.2" stroke-linecap="square" stroke-linejoin="bevel" transform="matrix(1,0,0,1,0,0)"
font-family=".AppleSystemUIFont" font-size="13" font-weight="400" font-style="normal" 
>
<path vector-effect="none" fill-rule="evenodd" d="M0.5,4.5 L1.04612,2.48112 L2.48112,1.04612 L4.5,0.5 L9.625,0.5 L10.416,0.976563 L11.1719,1.6875 L11.998,2.67969 L13,4 L13.7559,4.66016 L14.5469,5.15625 L15.4082,5.51172 L16.375,5.75 L17.4824,5.89453 L18.7656,5.96875 L20.2598,5.99609 L22,6 L23.7402,5.99609 L25.2344,5.96875 L26.5176,5.89453 L27.625,5.75 L28.5918,5.51172 L29.4531,5.15625 L30.2441,4.66016 L31,4 L32.002,2.67969 L32.8281,1.6875 L33.584,0.976563 L34.375,0.5 L313.5,0.5 L315.519,1.04612 L316.954,2.48112 L317.5,4.5 L317.5,31.5 L316.954,33.5189 L315.519,34.9539 L313.5,35.5 L34.375,35.5 L33.584,35.9766 L32.8281,36.6875 L32.002,37.6797 L31,39 L30.2441,39.6602 L29.4531,40.1563 L28.5918,40.5117 L27.625,40.75 L26.5176,40.8945 L25.2344,40.9688 L23.7402,40.9961 L22,41 L20.2598,40.9961 L18.7656,40.9688 L17.4824,40.8945 L16.375,40.75 L15.4082,40.5117 L14.5469,40.1563 L13.7559,39.6602 L13,39 L11.998,37.6797 L11.1719,36.6875 L10.416,35.9766 L9.625,35.5 L4.5,35.5 L2.48112,34.9539 L1.04612,33.5189 L0.5,31.5 L0.5,4.5"/>
</g>

<g fill="#ffffff" fill-opacity="1" stroke="none" transform="matrix(1,0,0,1,0,0)"
font-family="Inter" font-size="11" font-weight="700" font-style="normal" 
>
<path vector-effect="none" fill-rule="nonzero" d="M63.0938,17.1641 L61.5703,17.2578 C61.5443,17.1276 61.4883,17.0098 61.4023,16.9043 C61.3164,16.7988 61.2038,16.7142 61.0645,16.6504 C60.9251,16.5866 60.7591,16.5547 60.5664,16.5547 C60.3086,16.5547 60.0911,16.6087 59.9141,16.7168 C59.737,16.8249 59.6484,16.9688 59.6484,17.1484 C59.6484,17.2917 59.7057,17.4128 59.8203,17.5117 C59.9349,17.6107 60.1315,17.6901 60.4102,17.75 L61.4961,17.9688 C62.0794,18.0885 62.5143,18.2813 62.8008,18.5469 C63.0872,18.8125 63.2305,19.1615 63.2305,19.5938 C63.2305,19.987 63.1152,20.332 62.8848,20.6289 C62.6543,20.9258 62.3392,21.1569 61.9395,21.3223 C61.5397,21.4876 61.0794,21.5703 60.5586,21.5703 C59.7643,21.5703 59.1322,21.4043 58.6621,21.0723 C58.1921,20.7402 57.9167,20.2878 57.8359,19.7148 L59.4727,19.6289 C59.5221,19.8711 59.6419,20.0553 59.832,20.1816 C60.0221,20.3079 60.2656,20.3711 60.5625,20.3711 C60.8542,20.3711 61.0892,20.3145 61.2676,20.2012 C61.446,20.0879 61.5365,19.9414 61.5391,19.7617 C61.5365,19.6107 61.4727,19.4863 61.3477,19.3887 C61.2227,19.291 61.0299,19.2161 60.7695,19.1641 L59.7305,18.957 C59.1445,18.8398 58.709,18.6367 58.4238,18.3477 C58.1387,18.0586 57.9961,17.6901 57.9961,17.2422 C57.9961,16.8568 58.1009,16.5247 58.3105,16.2461 C58.5202,15.9674 58.8158,15.7526 59.1973,15.6016 C59.5788,15.4505 60.026,15.375 60.5391,15.375 C61.2969,15.375 61.8939,15.5352 62.3301,15.8555 C62.7663,16.1758 63.0208,16.612 63.0938,17.1641 M67.0078,21.5703 C66.3906,21.5703 65.86,21.4447 65.416,21.1934 C64.972,20.9421 64.6302,20.5853 64.3906,20.123 C64.151,19.6608 64.0313,19.1133 64.0313,18.4805 C64.0313,17.8633 64.151,17.3216 64.3906,16.8555 C64.6302,16.3893 64.9681,16.026 65.4043,15.7656 C65.8405,15.5052 66.3529,15.375 66.9414,15.375 C67.3372,15.375 67.7064,15.4382 68.0488,15.5645 C68.3913,15.6908 68.6908,15.8802 68.9473,16.1328 C69.2038,16.3854 69.4036,16.7025 69.5469,17.084 C69.6901,17.4655 69.7617,17.9115 69.7617,18.4219 L69.7617,18.8789 L64.6953,18.8789 L64.6953,17.8477 L68.1953,17.8477 C68.1953,17.6081 68.1432,17.3958 68.0391,17.2109 C67.9349,17.026 67.791,16.8809 67.6074,16.7754 C67.4238,16.6699 67.2109,16.6172 66.9688,16.6172 C66.7161,16.6172 66.4928,16.6751 66.2988,16.791 C66.1048,16.9069 65.9531,17.0618 65.8438,17.2559 C65.7344,17.4499 65.6784,17.6654 65.6758,17.9023 L65.6758,18.8828 C65.6758,19.1797 65.7311,19.4362 65.8418,19.6523 C65.9525,19.8685 66.1094,20.0352 66.3125,20.1523 C66.5156,20.2695 66.7565,20.3281 67.0352,20.3281 C67.2201,20.3281 67.3893,20.3021 67.543,20.25 C67.6966,20.1979 67.8281,20.1198 67.9375,20.0156 C68.0469,19.9115 68.1302,19.7839 68.1875,19.6328 L69.7266,19.7344 C69.6484,20.1042 69.4889,20.4264 69.248,20.7012 C69.0072,20.9759 68.6973,21.1895 68.3184,21.3418 C67.9395,21.4941 67.5026,21.5703 67.0078,21.5703 M74.0273,15.4531 L74.0273,16.7031 L70.4141,16.7031 L70.4141,15.4531 L74.0273,15.4531 M71.2344,14.0156 L72.8984,14.0156 L72.8984,19.6094 C72.8984,19.763 72.9219,19.8822 72.9688,19.9668 C73.0156,20.0514 73.0814,20.1107 73.166,20.1445 C73.2507,20.1784 73.349,20.1953 73.4609,20.1953 C73.5391,20.1953 73.6172,20.1882 73.6953,20.1738 C73.7734,20.1595 73.8333,20.1484 73.875,20.1406 L74.1367,21.3789 C74.0534,21.4049 73.9362,21.4355 73.7852,21.4707 C73.6341,21.5059 73.4505,21.5273 73.2344,21.5352 C72.8333,21.5508 72.4824,21.4974 72.1816,21.375 C71.8809,21.2526 71.6471,21.0625 71.4805,20.8047 C71.3138,20.5469 71.2318,20.2214 71.2344,19.8281 L71.2344,14.0156"/>
</g>

<g fill="#ffffff" fill-opacity="1" stroke="none" transform="matrix(1,0,0,1,0,0)"
font-family="Inter" font-size="11" font-weight="700" font-style="normal" 
>
<path vector-effect="none" fill-rule="nonzero" d="M169.883,23.0781 L169.883,14.8281 L171.523,14.8281 L171.523,15.8359 L171.598,15.8359 C171.671,15.6745 171.777,15.5098 171.916,15.3418 C172.055,15.1738 172.238,15.0332 172.463,14.9199 C172.688,14.8066 172.969,14.75 173.305,14.75 C173.742,14.75 174.146,14.8639 174.516,15.0918 C174.885,15.3197 175.181,15.6621 175.402,16.1191 C175.624,16.5762 175.734,17.1484 175.734,17.8359 C175.734,18.5052 175.627,19.0697 175.412,19.5293 C175.197,19.9889 174.906,20.3366 174.537,20.5723 C174.169,20.8079 173.757,20.9258 173.301,20.9258 C172.978,20.9258 172.704,20.8724 172.479,20.7656 C172.253,20.6589 172.069,20.5241 171.926,20.3613 C171.783,20.1986 171.673,20.0339 171.598,19.8672 L171.547,19.8672 L171.547,23.0781 L169.883,23.0781 M171.512,17.8281 C171.512,18.1849 171.561,18.4961 171.66,18.7617 C171.759,19.0273 171.902,19.2337 172.09,19.3809 C172.277,19.528 172.505,19.6016 172.773,19.6016 C173.044,19.6016 173.273,19.5267 173.461,19.377 C173.648,19.2272 173.791,19.0189 173.889,18.752 C173.986,18.485 174.035,18.1771 174.035,17.8281 C174.035,17.4818 173.987,17.1771 173.891,16.9141 C173.794,16.651 173.652,16.4453 173.465,16.2969 C173.277,16.1484 173.047,16.0742 172.773,16.0742 C172.503,16.0742 172.274,16.1458 172.088,16.2891 C171.902,16.4323 171.759,16.6354 171.66,16.8984 C171.561,17.1615 171.512,17.4714 171.512,17.8281 M179.547,20.9453 C178.94,20.9453 178.416,20.8158 177.975,20.5566 C177.533,20.2975 177.193,19.9355 176.953,19.4707 C176.714,19.0059 176.594,18.4661 176.594,17.8516 C176.594,17.2318 176.714,16.6895 176.953,16.2246 C177.193,15.7598 177.533,15.3978 177.975,15.1387 C178.416,14.8796 178.94,14.75 179.547,14.75 C180.154,14.75 180.678,14.8796 181.119,15.1387 C181.561,15.3978 181.901,15.7598 182.141,16.2246 C182.38,16.6895 182.5,17.2318 182.5,17.8516 C182.5,18.4661 182.38,19.0059 182.141,19.4707 C181.901,19.9355 181.561,20.2975 181.119,20.5566 C180.678,20.8158 180.154,20.9453 179.547,20.9453 M179.555,19.6563 C179.831,19.6563 180.061,19.5775 180.246,19.4199 C180.431,19.2624 180.571,19.0469 180.666,18.7734 C180.761,18.5 180.809,18.1888 180.809,17.8398 C180.809,17.4909 180.761,17.1797 180.666,16.9063 C180.571,16.6328 180.431,16.4167 180.246,16.2578 C180.061,16.099 179.831,16.0195 179.555,16.0195 C179.276,16.0195 179.042,16.099 178.854,16.2578 C178.665,16.4167 178.523,16.6328 178.428,16.9063 C178.333,17.1797 178.285,17.4909 178.285,17.8398 C178.285,18.1888 178.333,18.5 178.428,18.7734 C178.523,19.0469 178.665,19.2624 178.854,19.4199 C179.042,19.5775 179.276,19.6563 179.555,19.6563 M184.629,20.8281 L182.996,14.8281 L184.68,14.8281 L185.609,18.8594 L185.664,18.8594 L186.633,14.8281 L188.285,14.8281 L189.27,18.8359 L189.32,18.8359 L190.234,14.8281 L191.914,14.8281 L190.285,20.8281 L188.523,20.8281 L187.492,17.0547 L187.418,17.0547 L186.387,20.8281 L184.629,20.8281 M195.383,20.9453 C194.766,20.9453 194.235,20.8197 193.791,20.5684 C193.347,20.3171 193.005,19.9603 192.766,19.498 C192.526,19.0358 192.406,18.4883 192.406,17.8555 C192.406,17.2383 192.526,16.6966 192.766,16.2305 C193.005,15.7643 193.343,15.401 193.779,15.1406 C194.215,14.8802 194.728,14.75 195.316,14.75 C195.712,14.75 196.081,14.8132 196.424,14.9395 C196.766,15.0658 197.066,15.2552 197.322,15.5078 C197.579,15.7604 197.779,16.0775 197.922,16.459 C198.065,16.8405 198.137,17.2865 198.137,17.7969 L198.137,18.2539 L193.07,18.2539 L193.07,17.2227 L196.57,17.2227 C196.57,16.9831 196.518,16.7708 196.414,16.5859 C196.31,16.401 196.166,16.2559 195.982,16.1504 C195.799,16.0449 195.586,15.9922 195.344,15.9922 C195.091,15.9922 194.868,16.0501 194.674,16.166 C194.48,16.2819 194.328,16.4368 194.219,16.6309 C194.109,16.8249 194.053,17.0404 194.051,17.2773 L194.051,18.2578 C194.051,18.5547 194.106,18.8112 194.217,19.0273 C194.327,19.2435 194.484,19.4102 194.688,19.5273 C194.891,19.6445 195.132,19.7031 195.41,19.7031 C195.595,19.7031 195.764,19.6771 195.918,19.625 C196.072,19.5729 196.203,19.4948 196.313,19.3906 C196.422,19.2865 196.505,19.1589 196.563,19.0078 L198.102,19.1094 C198.023,19.4792 197.864,19.8014 197.623,20.0762 C197.382,20.3509 197.072,20.5645 196.693,20.7168 C196.314,20.8691 195.878,20.9453 195.383,20.9453 M199.211,20.8281 L199.211,14.8281 L200.824,14.8281 L200.824,15.875 L200.887,15.875 C200.996,15.5026 201.18,15.2207 201.438,15.0293 C201.695,14.8379 201.992,14.7422 202.328,14.7422 C202.411,14.7422 202.501,14.7474 202.598,14.7578 C202.694,14.7682 202.779,14.7826 202.852,14.8008 L202.852,16.2773 C202.773,16.2539 202.665,16.2331 202.527,16.2148 C202.389,16.1966 202.263,16.1875 202.148,16.1875 C201.904,16.1875 201.686,16.2402 201.494,16.3457 C201.303,16.4512 201.152,16.5977 201.041,16.7852 C200.93,16.9727 200.875,17.1888 200.875,17.4336 L200.875,20.8281 L199.211,20.8281 M206.242,20.8281 L206.242,14.8281 L207.828,14.8281 L207.828,15.8867 L207.898,15.8867 C208.023,15.5352 208.232,15.2578 208.523,15.0547 C208.815,14.8516 209.164,14.75 209.57,14.75 C209.982,14.75 210.332,14.8522 210.621,15.0566 C210.91,15.2611 211.103,15.5378 211.199,15.8867 L211.262,15.8867 C211.384,15.543 211.606,15.2676 211.928,15.0605 C212.249,14.8535 212.63,14.75 213.07,14.75 C213.63,14.75 214.085,14.9277 214.436,15.2832 C214.786,15.6387 214.961,16.1419 214.961,16.793 L214.961,20.8281 L213.301,20.8281 L213.301,17.1211 C213.301,16.7878 213.212,16.5378 213.035,16.3711 C212.858,16.2044 212.637,16.1211 212.371,16.1211 C212.069,16.1211 211.833,16.2168 211.664,16.4082 C211.495,16.5996 211.41,16.8516 211.41,17.1641 L211.41,20.8281 L209.797,20.8281 L209.797,17.0859 C209.797,16.7917 209.713,16.5573 209.545,16.3828 C209.377,16.2083 209.156,16.1211 208.883,16.1211 C208.698,16.1211 208.532,16.1673 208.385,16.2598 C208.238,16.3522 208.121,16.4811 208.035,16.6465 C207.949,16.8118 207.906,17.0052 207.906,17.2266 L207.906,20.8281 L206.242,20.8281 M218.984,20.9453 C218.378,20.9453 217.854,20.8158 217.412,20.5566 C216.971,20.2975 216.63,19.9355 216.391,19.4707 C216.151,19.0059 216.031,18.4661 216.031,17.8516 C216.031,17.2318 216.151,16.6895 216.391,16.2246 C216.63,15.7598 216.971,15.3978 217.412,15.1387 C217.854,14.8796 218.378,14.75 218.984,14.75 C219.591,14.75 220.115,14.8796 220.557,15.1387 C220.998,15.3978 221.339,15.7598 221.578,16.2246 C221.818,16.6895 221.938,17.2318 221.938,17.8516 C221.938,18.4661 221.818,19.0059 221.578,19.4707 C221.339,19.9355 220.998,20.2975 220.557,20.5566 C220.115,20.8158 219.591,20.9453 218.984,20.9453 M218.992,19.6563 C219.268,19.6563 219.499,19.5775 219.684,19.4199 C219.868,19.2624 220.008,19.0469 220.104,18.7734 C220.199,18.5 220.246,18.1888 220.246,17.8398 C220.246,17.4909 220.199,17.1797 220.104,16.9063 C220.008,16.6328 219.868,16.4167 219.684,16.2578 C219.499,16.099 219.268,16.0195 218.992,16.0195 C218.714,16.0195 218.48,16.099 218.291,16.2578 C218.102,16.4167 217.96,16.6328 217.865,16.9063 C217.77,17.1797 217.723,17.4909 217.723,17.8398 C217.723,18.1888 217.77,18.5 217.865,18.7734 C217.96,19.0469 218.102,19.2624 218.291,19.4199 C218.48,19.5775 218.714,19.6563 218.992,19.6563 M225.234,20.9258 C224.779,20.9258 224.367,20.8079 223.998,20.5723 C223.63,20.3366 223.338,19.9889 223.123,19.5293 C222.908,19.0697 222.801,18.5052 222.801,17.8359 C222.801,17.1484 222.911,16.5762 223.133,16.1191 C223.354,15.6621 223.649,15.3197 224.018,15.0918 C224.386,14.8639 224.79,14.75 225.23,14.75 C225.566,14.75 225.847,14.8066 226.072,14.9199 C226.298,15.0332 226.48,15.1738 226.619,15.3418 C226.758,15.5098 226.865,15.6745 226.938,15.8359 L226.988,15.8359 L226.988,12.8281 L228.648,12.8281 L228.648,20.8281 L227.008,20.8281 L227.008,19.8672 L226.938,19.8672 C226.859,20.0339 226.749,20.1986 226.607,20.3613 C226.465,20.5241 226.282,20.6589 226.057,20.7656 C225.831,20.8724 225.557,20.9258 225.234,20.9258 M225.762,19.6016 C226.03,19.6016 226.257,19.528 226.443,19.3809 C226.63,19.2337 226.773,19.0273 226.873,18.7617 C226.973,18.4961 227.023,18.1849 227.023,17.8281 C227.023,17.4714 226.974,17.1615 226.875,16.8984 C226.776,16.6354 226.633,16.4323 226.445,16.2891 C226.258,16.1458 226.03,16.0742 225.762,16.0742 C225.488,16.0742 225.258,16.1484 225.07,16.2969 C224.883,16.4453 224.741,16.651 224.645,16.9141 C224.548,17.1771 224.5,17.4818 224.5,17.8281 C224.5,18.1771 224.549,18.485 224.646,18.752 C224.744,19.0189 224.886,19.2272 225.072,19.377 C225.258,19.5267 225.488,19.6016 225.762,19.6016 M232.742,20.9453 C232.125,20.9453 231.594,20.8197 231.15,20.5684 C230.706,20.3171 230.365,19.9603 230.125,19.498 C229.885,19.0358 229.766,18.4883 229.766,17.8555 C229.766,17.2383 229.885,16.6966 230.125,16.2305 C230.365,15.7643 230.702,15.401 231.139,15.1406 C231.575,14.8802 232.087,14.75 232.676,14.75 C233.072,14.75 233.441,14.8132 233.783,14.9395 C234.126,15.0658 234.425,15.2552 234.682,15.5078 C234.938,15.7604 235.138,16.0775 235.281,16.459 C235.424,16.8405 235.496,17.2865 235.496,17.7969 L235.496,18.2539 L230.43,18.2539 L230.43,17.2227 L233.93,17.2227 C233.93,16.9831 233.878,16.7708 233.773,16.5859 C233.669,16.401 233.525,16.2559 233.342,16.1504 C233.158,16.0449 232.945,15.9922 232.703,15.9922 C232.451,15.9922 232.227,16.0501 232.033,16.166 C231.839,16.2819 231.688,16.4368 231.578,16.6309 C231.469,16.8249 231.413,17.0404 231.41,17.2773 L231.41,18.2578 C231.41,18.5547 231.465,18.8112 231.576,19.0273 C231.687,19.2435 231.844,19.4102 232.047,19.5273 C232.25,19.6445 232.491,19.7031 232.77,19.7031 C232.954,19.7031 233.124,19.6771 233.277,19.625 C233.431,19.5729 233.563,19.4948 233.672,19.3906 C233.781,19.2865 233.865,19.1589 233.922,19.0078 L235.461,19.1094 C235.383,19.4792 235.223,19.8014 234.982,20.0762 C234.742,20.3509 234.432,20.5645 234.053,20.7168 C233.674,20.8691 233.237,20.9453 232.742,20.9453 M242.309,14.8281 L242.309,16.0781 L238.695,16.0781 L238.695,14.8281 L242.309,14.8281 M239.516,13.3906 L241.18,13.3906 L241.18,18.9844 C241.18,19.138 241.203,19.2572 241.25,19.3418 C241.297,19.4264 241.363,19.4857 241.447,19.5195 C241.532,19.5534 241.63,19.5703 241.742,19.5703 C241.82,19.5703 241.898,19.5632 241.977,19.5488 C242.055,19.5345 242.115,19.5234 242.156,19.5156 L242.418,20.7539 C242.335,20.7799 242.217,20.8105 242.066,20.8457 C241.915,20.8809 241.732,20.9023 241.516,20.9102 C241.115,20.9258 240.764,20.8724 240.463,20.75 C240.162,20.6276 239.928,20.4375 239.762,20.1797 C239.595,19.9219 239.513,19.5964 239.516,19.2031 L239.516,13.3906 M246.031,20.9453 C245.424,20.9453 244.9,20.8158 244.459,20.5566 C244.018,20.2975 243.677,19.9355 243.438,19.4707 C243.198,19.0059 243.078,18.4661 243.078,17.8516 C243.078,17.2318 243.198,16.6895 243.438,16.2246 C243.677,15.7598 244.018,15.3978 244.459,15.1387 C244.9,14.8796 245.424,14.75 246.031,14.75 C246.638,14.75 247.162,14.8796 247.604,15.1387 C248.045,15.3978 248.385,15.7598 248.625,16.2246 C248.865,16.6895 248.984,17.2318 248.984,17.8516 C248.984,18.4661 248.865,19.0059 248.625,19.4707 C248.385,19.9355 248.045,20.2975 247.604,20.5566 C247.162,20.8158 246.638,20.9453 246.031,20.9453 M246.039,19.6563 C246.315,19.6563 246.546,19.5775 246.73,19.4199 C246.915,19.2624 247.055,19.0469 247.15,18.7734 C247.245,18.5 247.293,18.1888 247.293,17.8398 C247.293,17.4909 247.245,17.1797 247.15,16.9063 C247.055,16.6328 246.915,16.4167 246.73,16.2578 C246.546,16.099 246.315,16.0195 246.039,16.0195 C245.76,16.0195 245.527,16.099 245.338,16.2578 C245.149,16.4167 245.007,16.6328 244.912,16.9063 C244.817,17.1797 244.77,17.4909 244.77,17.8398 C244.77,18.1888 244.817,18.5 244.912,18.7734 C245.007,19.0469 245.149,19.2624 245.338,19.4199 C245.527,19.5775 245.76,19.6563 246.039,19.6563 "/>
</g>

<g fill="#ffffff" fill-opacity="1" stroke="none" transform="matrix(0.228,0,0,0.228,11.6,9.6)"
font-family="Inter" font-size="11" font-weight="700" font-style="normal" 
>
<path vector-effect="none" fill-rule="nonzero" d="M30.3865,12.7593 C30.0195,12.7593 29.7239,13.029 29.7239,13.364 L29.7239,86.636 C29.7239,86.9711 30.0195,87.2407 30.3865,87.2407 L69.6135,87.2407 C69.9805,87.2407 70.2761,86.9711 70.2761,86.636 L70.2761,13.364 C70.2761,13.029 69.9805,12.7593 69.6135,12.7593 L30.3865,12.7593 M45.8459,44.1785 C46.9899,44.1782 47.9175,45.1053 47.918,46.2493 L47.918,46.25 C47.9179,47.3941 46.9905,48.3215 45.8464,48.3215 C44.7024,48.3216 43.7748,47.3943 43.7747,46.2502 C43.7746,45.1062 44.7019,44.1786 45.8459,44.1785 M53.9399,44.1785 C55.0839,44.1782 56.0115,45.1053 56.012,46.2493 L56.012,46.25 C56.0119,47.3941 55.0845,48.3215 53.9404,48.3215 C52.7964,48.3216 51.8688,47.3943 51.8687,46.2502 C51.8686,45.1062 52.7959,44.1786 53.9399,44.1785 M49.656,51.873 C51.2364,51.8726 52.8199,51.8854 53.1685,51.9128 C53.8656,51.9678 55.5307,54.6647 54.4849,54.698 C53.439,54.7312 45.7358,54.6611 44.8074,54.7197 C43.8789,54.7784 45.4885,51.9644 46.1616,51.9128 C46.4982,51.8871 48.0756,51.8735 49.656,51.873 M44.9905,82.0313 L55.0095,82.0313 C55.0166,82.0313 55.0225,82.0369 55.0225,82.0439 L55.0225,85.8271 C55.0225,85.8342 55.0166,85.8398 55.0095,85.8398 L44.9905,85.8398 C44.9834,85.8398 44.9775,85.8342 44.9775,85.8271 L44.9775,82.0439 C44.9775,82.0369 44.9834,82.0313 44.9905,82.0313 "/>
</g>

<g fill="none" stroke="#000000" stroke-opacity="1" stroke-width="1.11219" stroke-linecap="round" stroke-linejoin="round" transform="matrix(0.228,0,0,0.228,11.6,9.6)"
font-family="Inter" font-size="11" font-weight="700" font-style="normal" 
>
<path vector-effect="none" fill-rule="nonzero" d="M30.3865,12.7593 C30.0195,12.7593 29.7239,13.029 29.7239,13.364 L29.7239,86.636 C29.7239,86.9711 30.0195,87.2407 30.3865,87.2407 L69.6135,87.2407 C69.9805,87.2407 70.2761,86.9711 70.2761,86.636 L70.2761,13.364 C70.2761,13.029 69.9805,12.7593 69.6135,12.7593 L30.3865,12.7593 M45.8459,44.1785 C46.9899,44.1782 47.9175,45.1053 47.918,46.2493 L47.918,46.25 C47.9179,47.3941 46.9905,48.3215 45.8464,48.3215 C44.7024,48.3216 43.7748,47.3943 43.7747,46.2502 C43.7746,45.1062 44.7019,44.1786 45.8459,44.1785 M53.9399,44.1785 C55.0839,44.1782 56.0115,45.1053 56.012,46.2493 L56.012,46.25 C56.0119,47.3941 55.0845,48.3215 53.9404,48.3215 C52.7964,48.3216 51.8688,47.3943 51.8687,46.2502 C51.8686,45.1062 52.7959,44.1786 53.9399,44.1785 M49.656,51.873 C51.2364,51.8726 52.8199,51.8854 53.1685,51.9128 C53.8656,51.9678 55.5307,54.6647 54.4849,54.698 C53.439,54.7312 45.7358,54.6611 44.8074,54.7197 C43.8789,54.7784 45.4885,51.9644 46.1616,51.9128 C46.4982,51.8871 48.0756,51.8735 49.656,51.873 M44.9905,82.0313 L55.0095,82.0313 C55.0166,82.0313 55.0225,82.0369 55.0225,82.0439 L55.0225,85.8271 C55.0225,85.8342 55.0166,85.8398 55.0095,85.8398 L44.9905,85.8398 C44.9834,85.8398 44.9775,85.8342 44.9775,85.8271 L44.9775,82.0439 C44.9775,82.0369 44.9834,82.0313 44.9905,82.0313 "/>
</g>

<g fill="none" stroke="#000000" stroke-opacity="1" stroke-width="1.47647" stroke-linecap="round" stroke-linejoin="round" transform="matrix(0.228,0,0,0.228,11.6,9.6)"
font-family="Inter" font-size="11" font-weight="700" font-style="normal" 
>
<path vector-effect="none" fill-rule="nonzero" d="M30.3826,12.341 C30.0156,12.341 29.7201,12.6138 29.7201,12.9526 L29.7201,87.0474 C29.7201,87.3862 30.0156,87.659 30.3826,87.659 L69.6174,87.659 C69.9844,87.659 70.2799,87.3862 70.2799,87.0474 L70.2799,12.9526 C70.2799,12.6138 69.9844,12.341 69.6174,12.341 L30.3826,12.341"/>
</g>

<g fill="#ffffff" fill-opacity="1" stroke="none" transform="matrix(0.259165,0,0,0.259165,7.72135,7.27376)"
font-family="Inter" font-size="11" font-weight="700" font-style="normal" 
>
<path vector-effect="none" fill-rule="evenodd" d="M43.9298,32.0312 C43.9298,31.8609 44.0679,31.7227 44.2383,31.7227 L56.25,31.7227 C56.4204,31.7227 56.5585,31.8609 56.5585,32.0312 C56.5585,32.2016 56.4204,32.3398 56.25,32.3398 L44.2383,32.3398 C44.0679,32.3398 43.9298,32.2016 43.9298,32.0312 "/>
</g>

<g fill="none" stroke="#000000" stroke-opacity="1" stroke-width="0.878639" stroke-linecap="round" stroke-linejoin="round" transform="matrix(0.259165,0,0,0.259165,7.72135,7.27376)"
font-family="Inter" font-size="11" font-weight="700" font-style="normal" 
>
<path vector-effect="none" fill-rule="evenodd" d="M43.9298,32.0312 C43.9298,31.8609 44.0679,31.7227 44.2383,31.7227 L56.25,31.7227 C56.4204,31.7227 56.5585,31.8609 56.5585,32.0312 C56.5585,32.2016 56.4204,32.3398 56.25,32.3398 L44.2383,32.3398 C44.0679,32.3398 43.9298,32.2016 43.9298,32.0312 "/>
</g>

<g fill="#ffffff" fill-opacity="1" stroke="none" transform="matrix(0.259165,0,0,0.259165,7.72135,7.27376)"
font-family="Inter" font-size="11" font-weight="700" font-style="normal" 
>
<path vector-effect="none" fill-rule="evenodd" d="M43.9786,29.1016 C43.9786,28.9312 44.1167,28.793 44.2871,28.793 L56.2988,28.793 C56.4692,28.793 56.6074,28.9312 56.6074,29.1016 C56.6074,29.272 56.4692,29.4101 56.2988,29.4101 L44.2871,29.4101 C44.1167,29.4101 43.9786,29.272 43.9786,29.1016 "/>
</g>

<g fill="none" stroke="#000000" stroke-opacity="1" stroke-width="0.878639" stroke-linecap="round" stroke-linejoin="round" transform="matrix(0.259165,0,0,0.259165,7.72135,7.27376)"
font-family="Inter" font-size="11" font-weight="700" font-style="normal" 
>
<path vector-effect="none" fill-rule="evenodd" d="M43.9786,29.1016 C43.9786,28.9312 44.1167,28.793 44.2871,28.793 L56.2988,28.793 C56.4692,28.793 56.6074,28.9312 56.6074,29.1016 C56.6074,29.272 56.4692,29.4101 56.2988,29.4101 L44.2871,29.4101 C44.1167,29.4101 43.9786,29.272 43.9786,29.1016 "/>
</g>

<g fill="#ffffff" fill-opacity="1" stroke="none" transform="matrix(0.259165,0,0,0.259165,7.72135,7.27376)"
font-family="Inter" font-size="11" font-weight="700" font-style="normal" 
>
<path vector-effect="none" fill-rule="evenodd" d="M46.4813,27.1552 C46.4813,27.0313 46.5817,26.9308 46.7057,26.9308 L46.7057,26.9308 C46.8296,26.9308 46.9301,27.0313 46.9301,27.1552 L46.9301,28.3637 C46.9301,28.4876 46.8296,28.5881 46.7057,28.5881 L46.7057,28.5881 C46.5817,28.5881 46.4813,28.4876 46.4813,28.3637 L46.4813,27.1552"/>
</g>

<g fill="none" stroke="#000000" stroke-opacity="1" stroke-width="0.90975" stroke-linecap="round" stroke-linejoin="round" transform="matrix(0.259165,0,0,0.259165,7.72135,7.27376)"
font-family="Inter" font-size="11" font-weight="700" font-style="normal" 
>
<path vector-effect="none" fill-rule="evenodd" d="M46.4813,27.1552 C46.4813,27.0313 46.5817,26.9308 46.7057,26.9308 L46.7057,26.9308 C46.8296,26.9308 46.9301,27.0313 46.9301,27.1552 L46.9301,28.3637 C46.9301,28.4876 46.8296,28.5881 46.7057,28.5881 L46.7057,28.5881 C46.5817,28.5881 46.4813,28.4876 46.4813,28.3637 L46.4813,27.1552"/>
</g>

<g fill="#ffffff" fill-opacity="1" stroke="none" transform="matrix(0.259165,0,0,0.259165,7.72135,7.27376)"
font-family="Inter" font-size="11" font-weight="700" font-style="normal" 
>
<path vector-effect="none" fill-rule="evenodd" d="M53.7063,27.1207 C53.7063,26.9968 53.8068,26.8963 53.9307,26.8963 L53.9307,26.8963 C54.0546,26.8963 54.1551,26.9968 54.1551,27.1207 L54.1551,28.3292 C54.1551,28.4531 54.0546,28.5536 53.9307,28.5536 L53.9307,28.5536 C53.8068,28.5536 53.7063,28.4531 53.7063,28.3292 L53.7063,27.1207"/>
</g>

<g fill="none" stroke="#000000" stroke-opacity="1" stroke-width="0.90975" stroke-linecap="round" stroke-linejoin="round" transform="matrix(0.259165,0,0,0.259165,7.72135,7.27376)"
font-family="Inter" font-size="11" font-weight="700" font-style="normal" 
>
<path vector-effect="none" fill-rule="evenodd" d="M53.7063,27.1207 C53.7063,26.9968 53.8068,26.8963 53.9307,26.8963 L53.9307,26.8963 C54.0546,26.8963 54.1551,26.9968 54.1551,27.1207 L54.1551,28.3292 C54.1551,28.4531 54.0546,28.5536 53.9307,28.5536 L53.9307,28.5536 C53.8068,28.5536 53.7063,28.4531 53.7063,28.3292 L53.7063,27.1207"/>
</g>

<g fill="#ffffff" fill-opacity="1" stroke="none" transform="matrix(0.259165,0,0,0.259165,12.223,7.25954)"
font-family="Inter" font-size="11" font-weight="700" font-style="normal" 
>
<path vector-effect="none" fill-rule="evenodd" d="M43.9298,32.0312 C43.9298,31.8609 44.0679,31.7227 44.2383,31.7227 L56.25,31.7227 C56.4204,31.7227 56.5585,31.8609 56.5585,32.0312 C56.5585,32.2016 56.4204,32.3398 56.25,32.3398 L44.2383,32.3398 C44.0679,32.3398 43.9298,32.2016 43.9298,32.0312 "/>
</g>

<g fill="none" stroke="#000000" stroke-opacity="1" stroke-width="0.878639" stroke-linecap="round" stroke-linejoin="round" transform="matrix(0.259165,0,0,0.259165,12.223,7.25954)"
font-family="Inter" font-size="11" font-weight="700" font-style="normal" 
>
<path vector-effect="none" fill-rule="evenodd" d="M43.9298,32.0312 C43.9298,31.8609 44.0679,31.7227 44.2383,31.7227 L56.25,31.7227 C56.4204,31.7227 56.5585,31.8609 56.5585,32.0312 C56.5585,32.2016 56.4204,32.3398 56.25,32.3398 L44.2383,32.3398 C44.0679,32.3398 43.9298,32.2016 43.9298,32.0312 "/>
</g>

<g fill="#ffffff" fill-opacity="1" stroke="none" transform="matrix(0.259165,0,0,0.259165,12.223,7.25954)"
font-family="Inter" font-size="11" font-weight="700" font-style="normal" 
>
<path vector-effect="none" fill-rule="evenodd" d="M43.9786,29.1016 C43.9786,28.9312 44.1167,28.793 44.2871,28.793 L56.2988,28.793 C56.4692,28.793 56.6074,28.9312 56.6074,29.1016 C56.6074,29.272 56.4692,29.4101 56.2988,29.4101 L44.2871,29.4101 C44.1167,29.4101 43.9786,29.272 43.9786,29.1016 "/>
</g>

<g fill="none" stroke="#000000" stroke-opacity="1" stroke-width="0.878639" stroke-linecap="round" stroke-linejoin="round" transform="matrix(0.259165,0,0,0.259165,12.223,7.25954)"
font-family="Inter" font-size="11" font-weight="700" font-style="normal" 
>
<path vector-effect="none" fill-rule="evenodd" d="M43.9786,29.1016 C43.9786,28.9312 44.1167,28.793 44.2871,28.793 L56.2988,28.793 C56.4692,28.793 56.6074,28.9312 56.6074,29.1016 C56.6074,29.272 56.4692,29.4101 56.2988,29.4101 L44.2871,29.4101 C44.1167,29.4101 43.9786,29.272 43.9786,29.1016 "/>
</g>

<g fill="#ffffff" fill-opacity="1" stroke="none" transform="matrix(0.259165,0,0,0.259165,12.223,7.25954)"
font-family="Inter" font-size="11" font-weight="700" font-style="normal" 
>
<path vector-effect="none" fill-rule="evenodd" d="M46.4813,27.1552 C46.4813,27.0313 46.5817,26.9308 46.7057,26.9308 L46.7057,26.9308 C46.8296,26.9308 46.9301,27.0313 46.9301,27.1552 L46.9301,28.3637 C46.9301,28.4876 46.8296,28.5881 46.7057,28.5881 L46.7057,28.5881 C46.5817,28.5881 46.4813,28.4876 46.4813,28.3637 L46.4813,27.1552"/>
</g>

<g fill="none" stroke="#000000" stroke-opacity="1" stroke-width="0.90975" stroke-linecap="round" stroke-linejoin="round" transform="matrix(0.259165,0,0,0.259165,12.223,7.25954)"
font-family="Inter" font-size="11" font-weight="700" font-style="normal" 
>
<path vector-effect="none" fill-rule="evenodd" d="M46.4813,27.1552 C46.4813,27.0313 46.5817,26.9308 46.7057,26.9308 L46.7057,26.9308 C46.8296,26.9308 46.9301,27.0313 46.9301,27.1552 L46.9301,28.3637 C46.9301,28.4876 46.8296,28.5881 46.7057,28.5881 L46.7057,28.5881 C46.5817,28.5881 46.4813,28.4876 46.4813,28.3637 L46.4813,27.1552"/>
</g>

<g fill="#ffffff" fill-opacity="1" stroke="none" transform="matrix(0.259165,0,0,0.259165,12.223,7.25954)"
font-family="Inter" font-size="11" font-weight="700" font-style="normal" 
>
<path vector-effect="none" fill-rule="evenodd" d="M53.7063,27.1207 C53.7063,26.9968 53.8068,26.8963 53.9307,26.8963 L53.9307,26.8963 C54.0546,26.8963 54.1551,26.9968 54.1551,27.1207 L54.1551,28.3292 C54.1551,28.4531 54.0546,28.5536 53.9307,28.5536 L53.9307,28.5536 C53.8068,28.5536 53.7063,28.4531 53.7063,28.3292 L53.7063,27.1207"/>
</g>

<g fill="none" stroke="#000000" stroke-opacity="1" stroke-width="0.90975" stroke-linecap="round" stroke-linejoin="round" transform="matrix(0.259165,0,0,0.259165,12.223,7.25954)"
font-family="Inter" font-size="11" font-weight="700" font-style="normal" 
>
<path vector-effect="none" fill-rule="evenodd" d="M53.7063,27.1207 C53.7063,26.9968 53.8068,26.8963 53.9307,26.8963 L53.9307,26.8963 C54.0546,26.8963 54.1551,26.9968 54.1551,27.1207 L54.1551,28.3292 C54.1551,28.4531 54.0546,28.5536 53.9307,28.5536 L53.9307,28.5536 C53.8068,28.5536 53.7063,28.4531 53.7063,28.3292 L53.7063,27.1207"/>
</g>

<g fill="#ffffff" fill-opacity="1" stroke="none" transform="matrix(0.259165,0,0,-0.259165,7.72135,34.6907)"
font-family="Inter" font-size="11" font-weight="700" font-style="normal" 
>
<path vector-effect="none" fill-rule="evenodd" d="M43.9298,32.0312 C43.9298,31.8609 44.0679,31.7227 44.2383,31.7227 L56.25,31.7227 C56.4204,31.7227 56.5585,31.8609 56.5585,32.0312 C56.5585,32.2016 56.4204,32.3398 56.25,32.3398 L44.2383,32.3398 C44.0679,32.3398 43.9298,32.2016 43.9298,32.0312 "/>
</g>

<g fill="none" stroke="#000000" stroke-opacity="1" stroke-width="0.878639" stroke-linecap="round" stroke-linejoin="round" transform="matrix(0.259165,0,0,-0.259165,7.72135,34.6907)"
font-family="Inter" font-size="11" font-weight="700" font-style="normal" 
>
<path vector-effect="none" fill-rule="evenodd" d="M43.9298,32.0312 C43.9298,31.8609 44.0679,31.7227 44.2383,31.7227 L56.25,31.7227 C56.4204,31.7227 56.5585,31.8609 56.5585,32.0312 C56.5585,32.2016 56.4204,32.3398 56.25,32.3398 L44.2383,32.3398 C44.0679,32.3398 43.9298,32.2016 43.9298,32.0312 "/>
</g>

<g fill="#ffffff" fill-opacity="1" stroke="none" transform="matrix(0.259165,0,0,-0.259165,7.72135,34.6907)"
font-family="Inter" font-size="11" font-weight="700" font-style="normal" 
>
<path vector-effect="none" fill-rule="evenodd" d="M43.9786,29.1016 C43.9786,28.9312 44.1167,28.793 44.2871,28.793 L56.2988,28.793 C56.4692,28.793 56.6074,28.9312 56.6074,29.1016 C56.6074,29.272 56.4692,29.4101 56.2988,29.4101 L44.2871,29.4101 C44.1167,29.4101 43.9786,29.272 43.9786,29.1016 "/>
</g>

<g fill="none" stroke="#000000" stroke-opacity="1" stroke-width="0.878639" stroke-linecap="round" stroke-linejoin="round" transform="matrix(0.259165,0,0,-0.259165,7.72135,34.6907)"
font-family="Inter" font-size="11" font-weight="700" font-style="normal" 
>
<path vector-effect="none" fill-rule="evenodd" d="M43.9786,29.1016 C43.9786,28.9312 44.1167,28.793 44.2871,28.793 L56.2988,28.793 C56.4692,28.793 56.6074,28.9312 56.6074,29.1016 C56.6074,29.272 56.4692,29.4101 56.2988,29.4101 L44.2871,29.4101 C44.1167,29.4101 43.9786,29.272 43.9786,29.1016 "/>
</g>

<g fill="#ffffff" fill-opacity="1" stroke="none" transform="matrix(0.259165,0,0,-0.259165,7.72135,34.6907)"
font-family="Inter" font-size="11" font-weight="700" font-style="normal" 
>
<path vector-effect="none" fill-rule="evenodd" d="M46.4813,27.1552 C46.4813,27.0313 46.5817,26.9308 46.7057,26.9308 L46.7057,26.9308 C46.8296,26.9308 46.9301,27.0313 46.9301,27.1552 L46.9301,28.3637 C46.9301,28.4876 46.8296,28.5881 46.7057,28.5881 L46.7057,28.5881 C46.5817,28.5881 46.4813,28.4876 46.4813,28.3637 L46.4813,27.1552"/>
</g>

<g fill="none" stroke="#000000" stroke-opacity="1" stroke-width="0.90975" stroke-linecap="round" stroke-linejoin="round" transform="matrix(0.259165,0,0,-0.259165,7.72135,34.6907)"
font-family="Inter" font-size="11" font-weight="700" font-style="normal" 
>
<path vector-effect="none" fill-rule="evenodd" d="M46.4813,27.1552 C46.4813,27.0313 46.5817,26.9308 46.7057,26.9308 L46.7057,26.9308 C46.8296,26.9308 46.9301,27.0313 46.9301,27.1552 L46.9301,28.3637 C46.9301,28.4876 46.8296,28.5881 46.7057,28.5881 L46.7057,28.5881 C46.5817,28.5881 46.4813,28.4876 46.4813,28.3637 L46.4813,27.1552"/>
</g>

<g fill="#ffffff" fill-opacity="1" stroke="none" transform="matrix(0.259165,0,0,-0.259165,7.72135,34.6907)"
font-family="Inter" font-size="11" font-weight="700" font-style="normal" 
>
<path vector-effect="none" fill-rule="evenodd" d="M53.7063,27.1207 C53.7063,26.9968 53.8068,26.8963 53.9307,26.8963 L53.9307,26.8963 C54.0546,26.8963 54.1551,26.9968 54.1551,27.1207 L54.1551,28.3292 C54.1551,28.4531 54.0546,28.5536 53.9307,28.5536 L53.9307,28.5536 C53.8068,28.5536 53.7063,28.4531 53.7063,28.3292 L53.7063,27.1207"/>
</g>

<g fill="none" stroke="#000000" stroke-opacity="1" stroke-width="0.90975" stroke-linecap="round" stroke-linejoin="round" transform="matrix(0.259165,0,0,-0.259165,7.72135,34.6907)"
font-family="Inter" font-size="11" font-weight="700" font-style="normal" 
>
<path vector-effect="none" fill-rule="evenodd" d="M53.7063,27.1207 C53.7063,26.9968 53.8068,26.8963 53.9307,26.8963 L53.9307,26.8963 C54.0546,26.8963 54.1551,26.9968 54.1551,27.1207 L54.1551,28.3292 C54.1551,28.4531 54.0546,28.5536 53.9307,28.5536 L53.9307,28.5536 C53.8068,28.5536 53.7063,28.4531 53.7063,28.3292 L53.7063,27.1207"/>
</g>

<g fill="#ffffff" fill-opacity="1" stroke="none" transform="matrix(0.259165,0,0,-0.259165,12.223,34.7049)"
font-family="Inter" font-size="11" font-weight="700" font-style="normal" 
>
<path vector-effect="none" fill-rule="evenodd" d="M43.9298,32.0312 C43.9298,31.8609 44.0679,31.7227 44.2383,31.7227 L56.25,31.7227 C56.4204,31.7227 56.5585,31.8609 56.5585,32.0312 C56.5585,32.2016 56.4204,32.3398 56.25,32.3398 L44.2383,32.3398 C44.0679,32.3398 43.9298,32.2016 43.9298,32.0312 "/>
</g>

<g fill="none" stroke="#000000" stroke-opacity="1" stroke-width="0.878639" stroke-linecap="round" stroke-linejoin="round" transform="matrix(0.259165,0,0,-0.259165,12.223,34.7049)"
font-family="Inter" font-size="11" font-weight="700" font-style="normal" 
>
<path vector-effect="none" fill-rule="evenodd" d="M43.9298,32.0312 C43.9298,31.8609 44.0679,31.7227 44.2383,31.7227 L56.25,31.7227 C56.4204,31.7227 56.5585,31.8609 56.5585,32.0312 C56.5585,32.2016 56.4204,32.3398 56.25,32.3398 L44.2383,32.3398 C44.0679,32.3398 43.9298,32.2016 43.9298,32.0312 "/>
</g>

<g fill="#ffffff" fill-opacity="1" stroke="none" transform="matrix(0.259165,0,0,-0.259165,12.223,34.7049)"
font-family="Inter" font-size="11" font-weight="700" font-style="normal" 
>
<path vector-effect="none" fill-rule="evenodd" d="M43.9786,29.1016 C43.9786,28.9312 44.1167,28.793 44.2871,28.793 L56.2988,28.793 C56.4692,28.793 56.6074,28.9312 56.6074,29.1016 C56.6074,29.272 56.4692,29.4101 56.2988,29.4101 L44.2871,29.4101 C44.1167,29.4101 43.9786,29.272 43.9786,29.1016 "/>
</g>

<g fill="none" stroke="#000000" stroke-opacity="1" stroke-width="0.878639" stroke-linecap="round" stroke-linejoin="round" transform="matrix(0.259165,0,0,-0.259165,12.223,34.7049)"
font-family="Inter" font-size="11" font-weight="700" font-style="normal" 
>
<path vector-effect="none" fill-rule="evenodd" d="M43.9786,29.1016 C43.9786,28.9312 44.1167,28.793 44.2871,28.793 L56.2988,28.793 C56.4692,28.793 56.6074,28.9312 56.6074,29.1016 C56.6074,29.272 56.4692,29.4101 56.2988,29.4101 L44.2871,29.4101 C44.1167,29.4101 43.9786,29.272 43.9786,29.1016 "/>
</g>

<g fill="#ffffff" fill-opacity="1" stroke="none" transform="matrix(0.259165,0,0,-0.259165,12.223,34.7049)"
font-family="Inter" font-size="11" font-weight="700" font-style="normal" 
>
<path vector-effect="none" fill-rule="evenodd" d="M46.4813,27.1552 C46.4813,27.0313 46.5817,26.9308 46.7057,26.9308 L46.7057,26.9308 C46.8296,26.9308 46.9301,27.0313 46.9301,27.1552 L46.9301,28.3637 C46.9301,28.4876 46.8296,28.5881 46.7057,28.5881 L46.7057,28.5881 C46.5817,28.5881 46.4813,28.4876 46.4813,28.3637 L46.4813,27.1552"/>
</g>

<g fill="none" stroke="#000000" stroke-opacity="1" stroke-width="0.90975" stroke-linecap="round" stroke-linejoin="round" transform="matrix(0.259165,0,0,-0.259165,12.223,34.7049)"
font-family="Inter" font-size="11" font-weight="700" font-style="normal" 
>
<path vector-effect="none" fill-rule="evenodd" d="M46.4813,27.1552 C46.4813,27.0313 46.5817,26.9308 46.7057,26.9308 L46.7057,26.9308 C46.8296,26.9308 46.9301,27.0313 46.9301,27.1552 L46.9301,28.3637 C46.9301,28.4876 46.8296,28.5881 46.7057,28.5881 L46.7057,28.5881 C46.5817,28.5881 46.4813,28.4876 46.4813,28.3637 L46.4813,27.1552"/>
</g>

<g fill="#ffffff" fill-opacity="1" stroke="none" transform="matrix(0.259165,0,0,-0.259165,12.223,34.7049)"
font-family="Inter" font-size="11" font-weight="700" font-style="normal" 
>
<path vector-effect="none" fill-rule="evenodd" d="M53.7063,27.1207 C53.7063,26.9968 53.8068,26.8963 53.9307,26.8963 L53.9307,26.8963 C54.0546,26.8963 54.1551,26.9968 54.1551,27.1207 L54.1551,28.3292 C54.1551,28.4531 54.0546,28.5536 53.9307,28.5536 L53.9307,28.5536 C53.8068,28.5536 53.7063,28.4531 53.7063,28.3292 L53.7063,27.1207"/>
</g>

<g fill="none" stroke="#000000" stroke-opacity="1" stroke-width="0.90975" stroke-linecap="round" stroke-linejoin="round" transform="matrix(0.259165,0,0,-0.259165,12.223,34.7049)"
font-family="Inter" font-size="11" font-weight="700" font-style="normal" 
>
<path vector-effect="none" fill-rule="evenodd" d="M53.7063,27.1207 C53.7063,26.9968 53.8068,26.8963 53.9307,26.8963 L53.9307,26.8963 C54.0546,26.8963 54.1551,26.9968 54.1551,27.1207 L54.1551,28.3292 C54.1551,28.4531 54.0546,28.5536 53.9307,28.5536 L53.9307,28.5536 C53.8068,28.5536 53.7063,28.4531 53.7063,28.3292 L53.7063,27.1207"/>
</g>

<g fill="#ffffff" fill-opacity="1" stroke="none" transform="matrix(1,0,0,1,0,0)"
font-family="Inter" font-size="11" font-weight="700" font-style="normal" 
>
</g>

<g fill="#ffffff" fill-opacity="1" stroke="#d89400" stroke-opacity="1" stroke-width="1" stroke-linecap="square" stroke-linejoin="bevel" transform="matrix(1,0,0,1,0,0)"
font-family="Inter" font-size="11" font-weight="700" font-style="normal" 
>
<polyline fill="none" vector-effect="none" points="45,11 45,31 " />
</g>

<g fill="#ffffff" fill-opacity="1" stroke="#d89400" stroke-opacity="1" stroke-width="1" stroke-linecap="square" stroke-linejoin="bevel" transform="matrix(1,0,0,1,0,0)"
font-family="Inter" font-size="11" font-weight="700" font-style="normal" 
>
</g>

<g fill="#ffffff" fill-opacity="1" stroke="#d89400" stroke-opacity="1" stroke-width="1" stroke-linecap="square" stroke-linejoin="bevel" transform="matrix(1,0,0,1,0,0)"
font-family="Inter" font-size="11" font-weight="700" font-style="normal" 
>
</g>

<g fill="#ffb515" fill-opacity="1" stroke="#d89400" stroke-opacity="1" stroke-width="1.2" stroke-linecap="square" stroke-linejoin="bevel" transform="matrix(1,0,0,1,255,6)"
font-family="Inter" font-size="11" font-weight="700" font-style="normal" 
>
<path vector-effect="none" fill-rule="evenodd" d="M0.5,3.5 C0.5,1.84315 1.84315,0.5 3.5,0.5 L53.5,0.5 C55.1569,0.5 56.5,1.84315 56.5,3.5 L56.5,20.5 C56.5,22.1569 55.1569,23.5 53.5,23.5 L3.5,23.5 C1.84315,23.5 0.5,22.1569 0.5,20.5 L0.5,3.5"/>
</g>

<g fill="#ffffff" fill-opacity="1" stroke="none" transform="matrix(1,0,0,1,255,6)"
font-family="Inter" font-size="11" font-weight="700" font-style="normal" 
>
<path vector-effect="none" fill-rule="nonzero" d="M14.5977,10.2383 C14.5664,9.92318 14.4323,9.67839 14.1953,9.50391 C13.9583,9.32943 13.6367,9.24219 13.2305,9.24219 C12.9544,9.24219 12.7214,9.2806 12.5313,9.35742 C12.3411,9.43424 12.196,9.54036 12.0957,9.67578 C11.9954,9.8112 11.9453,9.96484 11.9453,10.1367 C11.9401,10.2799 11.9707,10.4049 12.0371,10.5117 C12.1035,10.6185 12.1953,10.7103 12.3125,10.7871 C12.4297,10.8639 12.5651,10.9303 12.7188,10.9863 C12.8724,11.0423 13.0365,11.0898 13.2109,11.1289 L13.9297,11.3008 C14.2786,11.3789 14.599,11.4831 14.8906,11.6133 C15.1823,11.7435 15.4349,11.9036 15.6484,12.0938 C15.862,12.2839 16.028,12.5078 16.1465,12.7656 C16.265,13.0234 16.3255,13.319 16.3281,13.6523 C16.3255,14.1419 16.2012,14.5658 15.9551,14.9238 C15.709,15.2819 15.3548,15.5592 14.8926,15.7559 C14.4303,15.9525 13.8737,16.0508 13.2227,16.0508 C12.5768,16.0508 12.015,15.9518 11.5371,15.7539 C11.0592,15.556 10.6868,15.2624 10.4199,14.873 C10.153,14.4837 10.013,14.0013 10,13.4258 L11.6367,13.4258 C11.6549,13.694 11.7324,13.9173 11.8691,14.0957 C12.0059,14.2741 12.1895,14.4082 12.4199,14.498 C12.6504,14.5879 12.9115,14.6328 13.2031,14.6328 C13.4896,14.6328 13.7389,14.5911 13.9512,14.5078 C14.1634,14.4245 14.3281,14.3086 14.4453,14.1602 C14.5625,14.0117 14.6211,13.8411 14.6211,13.6484 C14.6211,13.4688 14.5684,13.3177 14.4629,13.1953 C14.3574,13.0729 14.2038,12.9688 14.002,12.8828 C13.8001,12.7969 13.5534,12.7188 13.2617,12.6484 L12.3906,12.4297 C11.7161,12.2656 11.1836,12.0091 10.793,11.6602 C10.4023,11.3112 10.2083,10.8411 10.2109,10.25 C10.2083,9.76563 10.3379,9.34245 10.5996,8.98047 C10.8613,8.61849 11.2214,8.33594 11.6797,8.13281 C12.138,7.92969 12.6589,7.82813 13.2422,7.82813 C13.8359,7.82813 14.3548,7.92969 14.7988,8.13281 C15.2428,8.33594 15.5885,8.61849 15.8359,8.98047 C16.0833,9.34245 16.2109,9.76172 16.2188,10.2383 L14.5977,10.2383 M19.0938,7.9375 L19.0938,15.9375 L17.4297,15.9375 L17.4297,7.9375 L19.0938,7.9375 M23.125,16.0547 C22.5182,16.0547 21.9941,15.9251 21.5527,15.666 C21.1113,15.4069 20.7708,15.0449 20.5313,14.5801 C20.2917,14.1152 20.1719,13.5755 20.1719,12.9609 C20.1719,12.3411 20.2917,11.7988 20.5313,11.334 C20.7708,10.8691 21.1113,10.5072 21.5527,10.248 C21.9941,9.98893 22.5182,9.85938 23.125,9.85938 C23.7318,9.85938 24.2559,9.98893 24.6973,10.248 C25.1387,10.5072 25.4792,10.8691 25.7188,11.334 C25.9583,11.7988 26.0781,12.3411 26.0781,12.9609 C26.0781,13.5755 25.9583,14.1152 25.7188,14.5801 C25.4792,15.0449 25.1387,15.4069 24.6973,15.666 C24.2559,15.9251 23.7318,16.0547 23.125,16.0547 M23.1328,14.7656 C23.4089,14.7656 23.6393,14.6868 23.8242,14.5293 C24.0091,14.3717 24.1491,14.1563 24.2441,13.8828 C24.3392,13.6094 24.3867,13.2982 24.3867,12.9492 C24.3867,12.6003 24.3392,12.2891 24.2441,12.0156 C24.1491,11.7422 24.0091,11.526 23.8242,11.3672 C23.6393,11.2083 23.4089,11.1289 23.1328,11.1289 C22.8542,11.1289 22.6204,11.2083 22.4316,11.3672 C22.2428,11.526 22.1009,11.7422 22.0059,12.0156 C21.9108,12.2891 21.8633,12.6003 21.8633,12.9492 C21.8633,13.2982 21.9108,13.6094 22.0059,13.8828 C22.1009,14.1563 22.2428,14.3717 22.4316,14.5293 C22.6204,14.6868 22.8542,14.7656 23.1328,14.7656 M28.207,15.9375 L26.5742,9.9375 L28.2578,9.9375 L29.1875,13.9688 L29.2422,13.9688 L30.2109,9.9375 L31.8633,9.9375 L32.8477,13.9453 L32.8984,13.9453 L33.8125,9.9375 L35.4922,9.9375 L33.8633,15.9375 L32.1016,15.9375 L31.0703,12.1641 L30.9961,12.1641 L29.9648,15.9375 L28.207,15.9375"/>
</g>

<g fill="#ffffff" fill-opacity="1" stroke="none" transform="matrix(0.03125,0,0,0.03125,298,14)"
font-family="Inter" font-size="11" font-weight="700" font-style="normal" 
>
<path vector-effect="none" fill-rule="nonzero" d="M111.326,191.938 C120.545,201.158 135.517,201.158 144.737,191.938 L239.144,97.5313 C245.929,90.7458 247.921,80.6413 244.233,71.7907 C240.545,62.9401 231.989,57.1871 222.401,57.1871 L33.5875,57.2608 C24.0731,57.2608 15.4437,63.0137 11.7559,71.8644 C8.06815,80.715 10.1333,90.8195 16.845,97.605 L111.252,192.012 L111.326,191.938"/>
</g>

<g fill="none" stroke="#000000" stroke-opacity="1" stroke-width="13.7195" stroke-linecap="butt" stroke-linejoin="miter" stroke-miterlimit="4" transform="matrix(0.03125,0,0,0.03125,298,14)"
font-family="Inter" font-size="11" font-weight="700" font-style="normal" 
>
<path vector-effect="none" fill-rule="nonzero" d="M111.326,191.938 C120.545,201.158 135.517,201.158 144.737,191.938 L239.144,97.5313 C245.929,90.7458 247.921,80.6413 244.233,71.7907 C240.545,62.9401 231.989,57.1871 222.401,57.1871 L33.5875,57.2608 C24.0731,57.2608 15.4437,63.0137 11.7559,71.8644 C8.06815,80.715 10.1333,90.8195 16.845,97.605 L111.252,192.012 L111.326,191.938"/>
</g>

<g fill="#ffffff" fill-opacity="1" stroke="none" transform="matrix(1,0,0,1,255,6)"
font-family="Inter" font-size="11" font-weight="700" font-style="normal" 
>
</g>

<g fill="#ffffff" fill-opacity="1" stroke="#d89400" stroke-opacity="1" stroke-width="1" stroke-linecap="square" stroke-linejoin="bevel" transform="matrix(1,0,0,1,0,0)"
font-family="Inter" font-size="11" font-weight="700" font-style="normal" 
>
</g>

<g fill="#ffb515" fill-opacity="1" stroke="#d89400" stroke-opacity="1" stroke-width="1.2" stroke-linecap="square" stroke-linejoin="bevel" transform="matrix(1,0,0,1,80,6)"
font-family="Inter" font-size="11" font-weight="700" font-style="normal" 
>
<path vector-effect="none" fill-rule="evenodd" d="M0.5,3.5 C0.5,1.84315 1.84315,0.5 3.5,0.5 L80.5,0.5 C82.1569,0.5 83.5,1.84315 83.5,3.5 L83.5,20.5 C83.5,22.1569 82.1569,23.5 80.5,23.5 L3.5,23.5 C1.84315,23.5 0.5,22.1569 0.5,20.5 L0.5,3.5"/>
</g>

<g fill="#ffffff" fill-opacity="1" stroke="none" transform="matrix(1,0,0,1,80,6)"
font-family="Inter" font-size="11" font-weight="700" font-style="normal" 
>
<path vector-effect="none" fill-rule="nonzero" d="M10.0078,16 L10.0078,8 L13.2109,8 C13.7995,8 14.2904,8.08724 14.6836,8.26172 C15.0768,8.4362 15.3724,8.67773 15.5703,8.98633 C15.7682,9.29492 15.8672,9.64974 15.8672,10.0508 C15.8672,10.3633 15.8047,10.6374 15.6797,10.873 C15.5547,11.1087 15.3835,11.3014 15.166,11.4512 C14.9486,11.6009 14.7005,11.707 14.4219,11.7695 L14.4219,11.8477 C14.7266,11.8607 15.0124,11.9466 15.2793,12.1055 C15.5462,12.2643 15.763,12.4863 15.9297,12.7715 C16.0964,13.0566 16.1797,13.3958 16.1797,13.7891 C16.1797,14.2135 16.0749,14.5918 15.8652,14.9238 C15.6556,15.2559 15.3464,15.5182 14.9375,15.7109 C14.5286,15.9036 14.0247,16 13.4258,16 L10.0078,16 M11.6992,14.6172 L13.0781,14.6172 C13.5495,14.6172 13.8932,14.5267 14.1094,14.3457 C14.3255,14.1647 14.4336,13.9232 14.4336,13.6211 C14.4336,13.3997 14.3802,13.2044 14.2734,13.0352 C14.1667,12.8659 14.015,12.7331 13.8184,12.6367 C13.6217,12.5404 13.388,12.4922 13.1172,12.4922 L11.6992,12.4922 L11.6992,14.6172 M11.6992,11.3477 L12.9531,11.3477 C13.1849,11.3477 13.3913,11.3066 13.5723,11.2246 C13.7533,11.1426 13.8965,11.026 14.002,10.875 C14.1074,10.724 14.1602,10.543 14.1602,10.332 C14.1602,10.043 14.0579,9.8099 13.8535,9.63281 C13.6491,9.45573 13.3594,9.36719 12.9844,9.36719 L11.6992,9.36719 L11.6992,11.3477 M19.0742,16 L16.7852,8 L18.6328,8 L19.957,13.5586 L20.0234,13.5586 L21.4844,8 L23.0664,8 L24.5234,13.5703 L24.5938,13.5703 L25.918,8 L27.7656,8 L25.4766,16 L23.8281,16 L22.3047,10.7695 L22.2422,10.7695 L20.7227,16 L19.0742,16 M28.5781,16 L28.5781,14.9961 L32.5703,9.39453 L28.5703,9.39453 L28.5703,8 L34.6953,8 L34.6953,9.00391 L30.6992,14.6055 L34.7031,14.6055 L34.7031,16 L28.5781,16 M35.9453,16 L35.9453,14.7813 L38.793,12.1445 C39.0352,11.9102 39.2389,11.6992 39.4043,11.5117 C39.5697,11.3242 39.6953,11.14 39.7813,10.959 C39.8672,10.778 39.9102,10.582 39.9102,10.3711 C39.9102,10.1367 39.8568,9.93424 39.75,9.76367 C39.6432,9.5931 39.4974,9.46159 39.3125,9.36914 C39.1276,9.27669 38.918,9.23047 38.6836,9.23047 C38.4388,9.23047 38.2253,9.27995 38.043,9.37891 C37.8607,9.47786 37.7201,9.61979 37.6211,9.80469 C37.5221,9.98958 37.4727,10.2096 37.4727,10.4648 L35.8672,10.4648 C35.8672,9.94141 35.9857,9.48698 36.2227,9.10156 C36.4596,8.71615 36.7917,8.41797 37.2188,8.20703 C37.6458,7.99609 38.138,7.89063 38.6953,7.89063 C39.2682,7.89063 39.7676,7.99154 40.1934,8.19336 C40.6191,8.39518 40.9505,8.67448 41.1875,9.03125 C41.4245,9.38802 41.543,9.79688 41.543,10.2578 C41.543,10.5599 41.4837,10.8581 41.3652,11.1523 C41.2467,11.4466 41.0365,11.7728 40.7344,12.1309 C40.4323,12.4889 40.0065,12.918 39.457,13.418 L38.2891,14.5625 L38.2891,14.6172 L41.6484,14.6172 L41.6484,16 L35.9453,16 M42.9141,16 L42.9141,8 L44.6055,8 L44.6055,11.3008 L48.0391,11.3008 L48.0391,8 L49.7266,8 L49.7266,16 L48.0391,16 L48.0391,12.6953 L44.6055,12.6953 L44.6055,16 L42.9141,16 M51.1172,16 L51.1172,8 L54.3203,8 C54.9089,8 55.3997,8.08724 55.793,8.26172 C56.1862,8.4362 56.4818,8.67773 56.6797,8.98633 C56.8776,9.29492 56.9766,9.64974 56.9766,10.0508 C56.9766,10.3633 56.9141,10.6374 56.7891,10.873 C56.6641,11.1087 56.4928,11.3014 56.2754,11.4512 C56.0579,11.6009 55.8099,11.707 55.5313,11.7695 L55.5313,11.8477 C55.8359,11.8607 56.1217,11.9466 56.3887,12.1055 C56.6556,12.2643 56.8724,12.4863 57.0391,12.7715 C57.2057,13.0566 57.2891,13.3958 57.2891,13.7891 C57.2891,14.2135 57.1842,14.5918 56.9746,14.9238 C56.765,15.2559 56.4557,15.5182 56.0469,15.7109 C55.638,15.9036 55.1341,16 54.5352,16 L51.1172,16 M52.8086,14.6172 L54.1875,14.6172 C54.6589,14.6172 55.0026,14.5267 55.2188,14.3457 C55.4349,14.1647 55.543,13.9232 55.543,13.6211 C55.543,13.3997 55.4896,13.2044 55.3828,13.0352 C55.276,12.8659 55.1243,12.7331 54.9277,12.6367 C54.7311,12.5404 54.4974,12.4922 54.2266,12.4922 L52.8086,12.4922 L52.8086,14.6172 M52.8086,11.3477 L54.0625,11.3477 C54.2943,11.3477 54.5007,11.3066 54.6816,11.2246 C54.8626,11.1426 55.0059,11.026 55.1113,10.875 C55.2168,10.724 55.2695,10.543 55.2695,10.332 C55.2695,10.043 55.1673,9.8099 54.9629,9.63281 C54.7585,9.45573 54.4688,9.36719 54.0938,9.36719 L52.8086,9.36719 L52.8086,11.3477 M61.8164,8 L61.8164,16 L60.125,16 L60.125,9.60547 L60.0781,9.60547 L58.2461,10.7539 L58.2461,9.25391 L60.2266,8 L61.8164,8"/>
</g>

<g fill="#ffffff" fill-opacity="1" stroke="none" transform="matrix(0.03125,0,0,0.03125,150,14)"
font-family="Inter" font-size="11" font-weight="700" font-style="normal" 
>
<path vector-effect="none" fill-rule="nonzero" d="M111.326,191.938 C120.545,201.158 135.517,201.158 144.737,191.938 L239.144,97.5313 C245.929,90.7458 247.921,80.6413 244.233,71.7907 C240.545,62.9401 231.989,57.1871 222.401,57.1871 L33.5875,57.2608 C24.0731,57.2608 15.4437,63.0137 11.7559,71.8644 C8.06815,80.715 10.1333,90.8195 16.845,97.605 L111.252,192.012 L111.326,191.938"/>
</g>

<g fill="none" stroke="#000000" stroke-opacity="1" stroke-width="13.7195" stroke-linecap="butt" stroke-linejoin="miter" stroke-miterlimit="4" transform="matrix(0.03125,0,0,0.03125,150,14)"
font-family="Inter" font-size="11" font-weight="700" font-style="normal" 
>
<path vector-effect="none" fill-rule="nonzero" d="M111.326,191.938 C120.545,201.158 135.517,201.158 144.737,191.938 L239.144,97.5313 C245.929,90.7458 247.921,80.6413 244.233,71.7907 C240.545,62.9401 231.989,57.1871 222.401,57.1871 L33.5875,57.2608 C24.0731,57.2608 15.4437,63.0137 11.7559,71.8644 C8.06815,80.715 10.1333,90.8195 16.845,97.605 L111.252,192.012 L111.326,191.938"/>
</g>

<g fill="#ffffff" fill-opacity="1" stroke="none" transform="matrix(1,0,0,1,80,6)"
font-family="Inter" font-size="11" font-weight="700" font-style="normal" 
>
</g>

<g fill="#ffffff" fill-opacity="1" stroke="#d89400" stroke-opacity="1" stroke-width="1" stroke-linecap="square" stroke-linejoin="bevel" transform="matrix(1,0,0,1,0,0)"
font-family="Inter" font-size="11" font-weight="700" font-style="normal" 
>
</g>

<g fill="none" stroke="#000000" stroke-opacity="1" stroke-width="1" stroke-linecap="square" stroke-linejoin="bevel" transform="matrix(1,0,0,1,0,0)"
font-family=".AppleSystemUIFont" font-size="13" font-weight="400" font-style="normal" 
>
</g>
</g>
</svg>
