<?xml version="1.0" encoding="UTF-8" standalone="no"?>
<svg width="44.45mm" height="9.87778mm"
 viewBox="0 0 126 28"
 xmlns="http://www.w3.org/2000/svg" xmlns:xlink="http://www.w3.org/1999/xlink" version="1.2" baseProfile="tiny">
<title>Abstract block</title>
<desc>block_operator_join</desc>
<defs>
</defs>
<g fill="none" stroke="black" stroke-width="1" fill-rule="evenodd" stroke-linecap="square" stroke-linejoin="bevel" >

<g fill="none" stroke="#000000" stroke-opacity="1" stroke-width="1" stroke-linecap="square" stroke-linejoin="bevel" transform="matrix(1,0,0,1,0,0)"
font-family=".AppleSystemUIFont" font-size="13" font-weight="400" font-style="normal" 
>
</g>

<g fill="none" stroke="#000000" stroke-opacity="1" stroke-width="1" stroke-linecap="square" stroke-linejoin="bevel" transform="matrix(1,0,0,1,0,0)"
font-family=".AppleSystemUIFont" font-size="13" font-weight="400" font-style="normal" 
>
</g>

<g fill="#00b94d" fill-opacity="1" stroke="#007e32" stroke-opacity="1" stroke-width="1.2" stroke-linecap="square" stroke-linejoin="bevel" transform="matrix(1,0,0,1,0,0)"
font-family=".AppleSystemUIFont" font-size="13" font-weight="400" font-style="normal" 
>
<path vector-effect="none" fill-rule="evenodd" d="M0.5,14 C0.5,6.54416 6.76801,0.5 14.5,0.5 L111.5,0.5 C119.232,0.5 125.5,6.54416 125.5,14 C125.5,21.4558 119.232,27.5 111.5,27.5 L14.5,27.5 C6.76801,27.5 0.5,21.4558 0.5,14 "/>
</g>

<g fill="#ffffff" fill-opacity="1" stroke="none" transform="matrix(1,0,0,1,0,0)"
font-family="Inter" font-size="11" font-weight="700" font-style="normal" 
>
<path vector-effect="none" fill-rule="nonzero" d="M9.53906,10.875 L11.2031,10.875 L11.2031,17.1719 C11.2031,17.6354 11.112,18.0104 10.9297,18.2969 C10.7474,18.5833 10.4863,18.793 10.1465,18.9258 C9.80664,19.0586 9.40104,19.125 8.92969,19.125 C8.8724,19.125 8.81706,19.1243 8.76367,19.123 C8.71029,19.1217 8.65365,19.1198 8.59375,19.1172 L8.59375,17.8164 C8.63802,17.819 8.67643,17.821 8.70898,17.8223 C8.74154,17.8236 8.77604,17.8242 8.8125,17.8242 C9.08073,17.8242 9.26888,17.7676 9.37695,17.6543 C9.48503,17.541 9.53906,17.3711 9.53906,17.1445 L9.53906,10.875 M10.3672,10.1016 C10.1224,10.1016 9.91146,10.0189 9.73438,9.85352 C9.55729,9.68815 9.46875,9.48958 9.46875,9.25781 C9.46875,9.02865 9.55729,8.83138 9.73438,8.66602 C9.91146,8.50065 10.1224,8.41797 10.3672,8.41797 C10.6172,8.41797 10.8301,8.50065 11.0059,8.66602 C11.1816,8.83138 11.2695,9.02865 11.2695,9.25781 C11.2695,9.48958 11.1816,9.68815 11.0059,9.85352 C10.8301,10.0189 10.6172,10.1016 10.3672,10.1016 M15.2344,16.9922 C14.6276,16.9922 14.1035,16.8626 13.6621,16.6035 C13.2207,16.3444 12.8802,15.9824 12.6406,15.5176 C12.401,15.0527 12.2813,14.513 12.2813,13.8984 C12.2813,13.2786 12.401,12.7363 12.6406,12.2715 C12.8802,11.8066 13.2207,11.4447 13.6621,11.1855 C14.1035,10.9264 14.6276,10.7969 15.2344,10.7969 C15.8411,10.7969 16.3652,10.9264 16.8066,11.1855 C17.248,11.4447 17.5885,11.8066 17.8281,12.2715 C18.0677,12.7363 18.1875,13.2786 18.1875,13.8984 C18.1875,14.513 18.0677,15.0527 17.8281,15.5176 C17.5885,15.9824 17.248,16.3444 16.8066,16.6035 C16.3652,16.8626 15.8411,16.9922 15.2344,16.9922 M15.2422,15.7031 C15.5182,15.7031 15.7487,15.6243 15.9336,15.4668 C16.1185,15.3092 16.2585,15.0938 16.3535,14.8203 C16.4486,14.5469 16.4961,14.2357 16.4961,13.8867 C16.4961,13.5378 16.4486,13.2266 16.3535,12.9531 C16.2585,12.6797 16.1185,12.4635 15.9336,12.3047 C15.7487,12.1458 15.5182,12.0664 15.2422,12.0664 C14.9635,12.0664 14.7298,12.1458 14.541,12.3047 C14.3522,12.4635 14.2103,12.6797 14.1152,12.9531 C14.0202,13.2266 13.9727,13.5378 13.9727,13.8867 C13.9727,14.2357 14.0202,14.5469 14.1152,14.8203 C14.2103,15.0938 14.3522,15.3092 14.541,15.4668 C14.7298,15.6243 14.9635,15.7031 15.2422,15.7031 M19.2734,16.875 L19.2734,10.875 L20.9375,10.875 L20.9375,16.875 L19.2734,16.875 M20.1094,10.1016 C19.862,10.1016 19.6504,10.0189 19.4746,9.85352 C19.2988,9.68815 19.2109,9.48958 19.2109,9.25781 C19.2109,9.02865 19.2988,8.83138 19.4746,8.66602 C19.6504,8.50065 19.862,8.41797 20.1094,8.41797 C20.3568,8.41797 20.5684,8.50065 20.7441,8.66602 C20.9199,8.83138 21.0078,9.02865 21.0078,9.25781 C21.0078,9.48958 20.9199,9.68815 20.7441,9.85352 C20.5684,10.0189 20.3568,10.1016 20.1094,10.1016 M23.9219,13.4063 L23.9219,16.875 L22.2578,16.875 L22.2578,10.875 L23.8438,10.875 L23.8438,11.9336 L23.9141,11.9336 C24.0469,11.5846 24.2695,11.3079 24.582,11.1035 C24.8945,10.8991 25.2734,10.7969 25.7188,10.7969 C26.1354,10.7969 26.4987,10.888 26.8086,11.0703 C27.1185,11.2526 27.3594,11.5124 27.5313,11.8496 C27.7031,12.1868 27.7891,12.5885 27.7891,13.0547 L27.7891,16.875 L26.125,16.875 L26.125,13.3516 C26.1276,12.9844 26.0339,12.6973 25.8438,12.4902 C25.6536,12.2832 25.3919,12.1797 25.0586,12.1797 C24.8346,12.1797 24.6374,12.2279 24.4668,12.3242 C24.2962,12.4206 24.1634,12.5605 24.0684,12.7441 C23.9733,12.9277 23.9245,13.1484 23.9219,13.4063 "/>
</g>

<g fill="#ffffff" fill-opacity="1" stroke="none" transform="matrix(1,0,0,1,0,0)"
font-family="Inter" font-size="11" font-weight="700" font-style="normal" 
>
</g>

<g fill="#ffffff" fill-opacity="1" stroke="none" transform="matrix(1,0,0,1,0,0)"
font-family="Inter" font-size="11" font-weight="700" font-style="normal" 
>
</g>

<g fill="#ffffff" fill-opacity="1" stroke="#006a2a" stroke-opacity="1" stroke-width="1.2" stroke-linecap="square" stroke-linejoin="bevel" transform="matrix(1,0,0,1,34.5,3)"
font-family="Inter" font-size="11" font-weight="700" font-style="normal" 
>
<path vector-effect="none" fill-rule="evenodd" d="M1,11 C1,5.47715 5.92487,1 12,1 L29.5469,1 C35.622,1 40.5469,5.47715 40.5469,11 C40.5469,16.5228 35.622,21 29.5469,21 L12,21 C5.92487,21 1,16.5228 1,11 "/>
</g>

<g fill="#000000" fill-opacity="1" stroke="none" transform="matrix(1,0,0,1,34.5,3)"
font-family="Inter" font-size="10" font-weight="700" font-style="normal" 
>
<path vector-effect="none" fill-rule="nonzero" d="M7.49219,14.3281 L6.00781,8.87358 L7.53835,8.87358 L8.38352,12.5384 L8.43324,12.5384 L9.31392,8.87358 L10.8161,8.87358 L11.7109,12.517 L11.7571,12.517 L12.5881,8.87358 L14.1151,8.87358 L12.6342,14.3281 L11.0327,14.3281 L10.0952,10.8977 L10.0277,10.8977 L9.0902,14.3281 L7.49219,14.3281 M17.2401,14.4347 C16.6884,14.4347 16.212,14.3169 15.8107,14.0813 C15.4094,13.8458 15.0999,13.5167 14.8821,13.0941 C14.6643,12.6715 14.5554,12.1809 14.5554,11.6222 C14.5554,11.0587 14.6643,10.5657 14.8821,10.1431 C15.0999,9.72053 15.4094,9.39145 15.8107,9.15589 C16.212,8.92034 16.6884,8.80256 17.2401,8.80256 C17.7917,8.80256 18.2681,8.92034 18.6694,9.15589 C19.0707,9.39145 19.3802,9.72053 19.598,10.1431 C19.8158,10.5657 19.9247,11.0587 19.9247,11.6222 C19.9247,12.1809 19.8158,12.6715 19.598,13.0941 C19.3802,13.5167 19.0707,13.8458 18.6694,14.0813 C18.2681,14.3169 17.7917,14.4347 17.2401,14.4347 M17.2472,13.2628 C17.4981,13.2628 17.7076,13.1912 17.8757,13.0479 C18.0438,12.9047 18.171,12.7088 18.2575,12.4602 C18.3439,12.2116 18.3871,11.9287 18.3871,11.6115 C18.3871,11.2943 18.3439,11.0114 18.2575,10.7628 C18.171,10.5142 18.0438,10.3177 17.8757,10.1733 C17.7076,10.0289 17.4981,9.95668 17.2472,9.95668 C16.9938,9.95668 16.7814,10.0289 16.6097,10.1733 C16.4381,10.3177 16.3091,10.5142 16.2227,10.7628 C16.1362,11.0114 16.093,11.2943 16.093,11.6115 C16.093,11.9287 16.1362,12.2116 16.2227,12.4602 C16.3091,12.7088 16.4381,12.9047 16.6097,13.0479 C16.7814,13.1912 16.9938,13.2628 17.2472,13.2628 M20.9006,14.3281 L20.9006,8.87358 L22.3672,8.87358 L22.3672,9.82528 L22.424,9.82528 C22.5234,9.48674 22.6903,9.23047 22.9247,9.05646 C23.1591,8.88246 23.429,8.79545 23.7344,8.79545 C23.8101,8.79545 23.8918,8.80019 23.9794,8.80966 C24.067,8.81913 24.1439,8.83215 24.2102,8.84872 L24.2102,10.1911 C24.1392,10.1697 24.041,10.1508 23.9155,10.1342 C23.79,10.1177 23.6752,10.1094 23.571,10.1094 C23.3485,10.1094 23.1502,10.1573 22.9762,10.2532 C22.8022,10.3491 22.6649,10.4822 22.5643,10.6527 C22.4637,10.8232 22.4134,11.0196 22.4134,11.2422 L22.4134,14.3281 L20.9006,14.3281 M26.7386,14.4169 C26.3243,14.4169 25.9497,14.3098 25.6147,14.0955 C25.2797,13.8813 25.0146,13.5652 24.8192,13.1474 C24.6239,12.7295 24.5263,12.2164 24.5263,11.608 C24.5263,10.983 24.6269,10.4627 24.8281,10.0472 C25.0294,9.63175 25.2975,9.32043 25.6325,9.11328 C25.9674,8.90613 26.335,8.80256 26.7351,8.80256 C27.0405,8.80256 27.2956,8.85405 27.5004,8.95703 C27.7051,9.06001 27.8709,9.18786 27.9975,9.34055 C28.1242,9.49325 28.2206,9.64299 28.2869,9.78977 L28.3331,9.78977 L28.3331,7.0554 L29.8423,7.0554 L29.8423,14.3281 L28.3509,14.3281 L28.3509,13.4545 L28.2869,13.4545 C28.2159,13.6061 28.1159,13.7558 27.9869,13.9038 C27.8578,14.0517 27.6909,14.1742 27.4862,14.2713 C27.2814,14.3684 27.0322,14.4169 26.7386,14.4169 M27.218,13.2131 C27.4619,13.2131 27.6684,13.1462 27.8377,13.0124 C28.007,12.8787 28.1372,12.6911 28.2283,12.4496 C28.3195,12.2081 28.3651,11.9252 28.3651,11.6009 C28.3651,11.2765 28.3201,10.9948 28.2301,10.7557 C28.1402,10.5166 28.0099,10.3319 27.8395,10.2017 C27.669,10.0715 27.4619,10.0064 27.218,10.0064 C26.9695,10.0064 26.7599,10.0739 26.5895,10.2088 C26.419,10.3438 26.29,10.5308 26.2024,10.7699 C26.1148,11.009 26.071,11.286 26.071,11.6009 C26.071,11.9181 26.1154,12.198 26.2042,12.4407 C26.293,12.6834 26.422,12.8728 26.5913,13.0089 C26.7605,13.145 26.9695,13.2131 27.218,13.2131 M34.2223,7.0554 L34.2223,14.3281 L32.6847,14.3281 L32.6847,8.51491 L32.642,8.51491 L30.9766,9.55895 L30.9766,8.19531 L32.777,7.0554 L34.2223,7.0554"/>
</g>

<g fill="#000000" fill-opacity="1" stroke="none" transform="matrix(1,0,0,1,40.5,7.95313)"
font-family="Inter" font-size="10" font-weight="700" font-style="normal" 
>
</g>

<g fill="#000000" fill-opacity="1" stroke="none" transform="matrix(1,0,0,1,40.5,7.95313)"
font-family="Inter" font-size="10" font-weight="700" font-style="normal" 
>
</g>

<g fill="#000000" fill-opacity="1" stroke="none" transform="matrix(1,0,0,1,34.5,3)"
font-family="Inter" font-size="10" font-weight="700" font-style="normal" 
>
</g>

<g fill="#ffffff" fill-opacity="1" stroke="none" transform="matrix(1,0,0,1,0,0)"
font-family="Inter" font-size="11" font-weight="700" font-style="normal" 
>
</g>

<g fill="#ffffff" fill-opacity="1" stroke="#006a2a" stroke-opacity="1" stroke-width="1.2" stroke-linecap="square" stroke-linejoin="bevel" transform="matrix(1,0,0,1,80.0469,3)"
font-family="Inter" font-size="11" font-weight="700" font-style="normal" 
>
<path vector-effect="none" fill-rule="evenodd" d="M1,11 C1,5.47715 5.92487,1 12,1 L30.9531,1 C37.0283,1 41.9531,5.47715 41.9531,11 C41.9531,16.5228 37.0283,21 30.9531,21 L12,21 C5.92487,21 1,16.5228 1,11 "/>
</g>

<g fill="#000000" fill-opacity="1" stroke="none" transform="matrix(1,0,0,1,80.0469,3)"
font-family="Inter" font-size="10" font-weight="700" font-style="normal" 
>
<path vector-effect="none" fill-rule="nonzero" d="M7.49219,14.3594 L6.00781,8.90483 L7.53835,8.90483 L8.38352,12.5696 L8.43324,12.5696 L9.31392,8.90483 L10.8161,8.90483 L11.7109,12.5483 L11.7571,12.5483 L12.5881,8.90483 L14.1151,8.90483 L12.6342,14.3594 L11.0327,14.3594 L10.0952,10.929 L10.0277,10.929 L9.0902,14.3594 L7.49219,14.3594 M17.2401,14.4659 C16.6884,14.4659 16.212,14.3481 15.8107,14.1126 C15.4094,13.877 15.0999,13.5479 14.8821,13.1254 C14.6643,12.7028 14.5554,12.2121 14.5554,11.6534 C14.5554,11.09 14.6643,10.5969 14.8821,10.1744 C15.0999,9.75178 15.4094,9.4227 15.8107,9.18714 C16.212,8.95159 16.6884,8.83381 17.2401,8.83381 C17.7917,8.83381 18.2681,8.95159 18.6694,9.18714 C19.0707,9.4227 19.3802,9.75178 19.598,10.1744 C19.8158,10.5969 19.9247,11.09 19.9247,11.6534 C19.9247,12.2121 19.8158,12.7028 19.598,13.1254 C19.3802,13.5479 19.0707,13.877 18.6694,14.1126 C18.2681,14.3481 17.7917,14.4659 17.2401,14.4659 M17.2472,13.294 C17.4981,13.294 17.7076,13.2224 17.8757,13.0792 C18.0438,12.936 18.171,12.7401 18.2575,12.4915 C18.3439,12.2429 18.3871,11.96 18.3871,11.6428 C18.3871,11.3255 18.3439,11.0426 18.2575,10.794 C18.171,10.5455 18.0438,10.349 17.8757,10.2045 C17.7076,10.0601 17.4981,9.98793 17.2472,9.98793 C16.9938,9.98793 16.7814,10.0601 16.6097,10.2045 C16.4381,10.349 16.3091,10.5455 16.2227,10.794 C16.1362,11.0426 16.093,11.3255 16.093,11.6428 C16.093,11.96 16.1362,12.2429 16.2227,12.4915 C16.3091,12.7401 16.4381,12.936 16.6097,13.0792 C16.7814,13.2224 16.9938,13.294 17.2472,13.294 M20.9006,14.3594 L20.9006,8.90483 L22.3672,8.90483 L22.3672,9.85653 L22.424,9.85653 C22.5234,9.51799 22.6903,9.26172 22.9247,9.08771 C23.1591,8.91371 23.429,8.8267 23.7344,8.8267 C23.8101,8.8267 23.8918,8.83144 23.9794,8.84091 C24.067,8.85038 24.1439,8.8634 24.2102,8.87997 L24.2102,10.2223 C24.1392,10.201 24.041,10.1821 23.9155,10.1655 C23.79,10.1489 23.6752,10.1406 23.571,10.1406 C23.3485,10.1406 23.1502,10.1886 22.9762,10.2844 C22.8022,10.3803 22.6649,10.5135 22.5643,10.6839 C22.4637,10.8544 22.4134,11.0509 22.4134,11.2734 L22.4134,14.3594 L20.9006,14.3594 M26.7386,14.4482 C26.3243,14.4482 25.9497,14.341 25.6147,14.1268 C25.2797,13.9125 25.0146,13.5965 24.8192,13.1786 C24.6239,12.7608 24.5263,12.2476 24.5263,11.6392 C24.5263,11.0142 24.6269,10.494 24.8281,10.0785 C25.0294,9.663 25.2975,9.35168 25.6325,9.14453 C25.9674,8.93738 26.335,8.83381 26.7351,8.83381 C27.0405,8.83381 27.2956,8.8853 27.5004,8.98828 C27.7051,9.09126 27.8709,9.21911 27.9975,9.3718 C28.1242,9.5245 28.2206,9.67424 28.2869,9.82102 L28.3331,9.82102 L28.3331,7.08665 L29.8423,7.08665 L29.8423,14.3594 L28.3509,14.3594 L28.3509,13.4858 L28.2869,13.4858 C28.2159,13.6373 28.1159,13.7871 27.9869,13.935 C27.8578,14.083 27.6909,14.2055 27.4862,14.3026 C27.2814,14.3996 27.0322,14.4482 26.7386,14.4482 M27.218,13.2443 C27.4619,13.2443 27.6684,13.1774 27.8377,13.0437 C28.007,12.9099 28.1372,12.7223 28.2283,12.4808 C28.3195,12.2393 28.3651,11.9564 28.3651,11.6321 C28.3651,11.3078 28.3201,11.026 28.2301,10.7869 C28.1402,10.5478 28.0099,10.3632 27.8395,10.233 C27.669,10.1027 27.4619,10.0376 27.218,10.0376 C26.9695,10.0376 26.7599,10.1051 26.5895,10.2401 C26.419,10.375 26.29,10.562 26.2024,10.8011 C26.1148,11.0402 26.071,11.3172 26.071,11.6321 C26.071,11.9493 26.1154,12.2293 26.2042,12.4719 C26.293,12.7146 26.422,12.904 26.5913,13.0401 C26.7605,13.1763 26.9695,13.2443 27.218,13.2443 M31.0582,14.3594 L31.0582,13.2514 L33.647,10.8544 C33.8672,10.6413 34.0524,10.4496 34.2028,10.2791 C34.3531,10.1087 34.4673,9.94117 34.5455,9.77663 C34.6236,9.6121 34.6626,9.43395 34.6626,9.24219 C34.6626,9.02912 34.6141,8.84505 34.517,8.68999 C34.42,8.53492 34.2874,8.41536 34.1193,8.33132 C33.9512,8.24728 33.7607,8.20526 33.5476,8.20526 C33.325,8.20526 33.1309,8.25024 32.9652,8.3402 C32.7995,8.43016 32.6716,8.55919 32.5817,8.72727 C32.4917,8.89536 32.4467,9.09541 32.4467,9.32741 L30.9872,9.32741 C30.9872,8.85156 31.0949,8.43845 31.3104,8.08807 C31.5258,7.73769 31.8277,7.46662 32.2159,7.27486 C32.6042,7.0831 33.0516,6.98722 33.5582,6.98722 C34.0791,6.98722 34.533,7.07895 34.9201,7.26243 C35.3072,7.4459 35.6084,7.69981 35.8239,8.02415 C36.0393,8.34848 36.147,8.72017 36.147,9.1392 C36.147,9.41383 36.0932,9.6849 35.9854,9.95241 C35.8777,10.2199 35.6866,10.5165 35.4119,10.842 C35.1373,11.1675 34.7502,11.5575 34.2507,12.0121 L33.1889,13.0526 L33.1889,13.1023 L36.2429,13.1023 L36.2429,14.3594 L31.0582,14.3594"/>
</g>

<g fill="#000000" fill-opacity="1" stroke="none" transform="matrix(1,0,0,1,86.0469,7.95313)"
font-family="Inter" font-size="10" font-weight="700" font-style="normal" 
>
</g>

<g fill="#000000" fill-opacity="1" stroke="none" transform="matrix(1,0,0,1,86.0469,7.95313)"
font-family="Inter" font-size="10" font-weight="700" font-style="normal" 
>
</g>

<g fill="#000000" fill-opacity="1" stroke="none" transform="matrix(1,0,0,1,80.0469,3)"
font-family="Inter" font-size="10" font-weight="700" font-style="normal" 
>
</g>

<g fill="#ffffff" fill-opacity="1" stroke="none" transform="matrix(1,0,0,1,0,0)"
font-family="Inter" font-size="11" font-weight="700" font-style="normal" 
>
</g>

<g fill="#ffffff" fill-opacity="1" stroke="none" transform="matrix(1,0,0,1,0,0)"
font-family="Inter" font-size="11" font-weight="700" font-style="normal" 
>
</g>

<g fill="none" stroke="#000000" stroke-opacity="1" stroke-width="1" stroke-linecap="square" stroke-linejoin="bevel" transform="matrix(1,0,0,1,0,0)"
font-family=".AppleSystemUIFont" font-size="13" font-weight="400" font-style="normal" 
>
</g>
</g>
</svg>
