<?xml version="1.0" encoding="UTF-8" standalone="no"?>
<svg width="156.633mm" height="15.5222mm"
 viewBox="0 0 444 44"
 xmlns="http://www.w3.org/2000/svg" xmlns:xlink="http://www.w3.org/1999/xlink" version="1.2" baseProfile="tiny">
<title>Abstract block</title>
<desc>block_hubs_all_motors_port_run_for_at_speed</desc>
<defs>
</defs>
<g fill="none" stroke="black" stroke-width="1" fill-rule="evenodd" stroke-linecap="square" stroke-linejoin="bevel" >

<g fill="none" stroke="#000000" stroke-opacity="1" stroke-width="1" stroke-linecap="square" stroke-linejoin="bevel" transform="matrix(1,0,0,1,0,0)"
font-family=".AppleSystemUIFont" font-size="13" font-weight="400" font-style="normal" 
>
</g>

<g fill="none" stroke="#000000" stroke-opacity="1" stroke-width="1" stroke-linecap="square" stroke-linejoin="bevel" transform="matrix(1,0,0,1,0,0)"
font-family=".AppleSystemUIFont" font-size="13" font-weight="400" font-style="normal" 
>
</g>

<g fill="#0090f5" fill-opacity="1" stroke="#0070ba" stroke-opacity="1" stroke-width="1.2" stroke-linecap="square" stroke-linejoin="bevel" transform="matrix(1,0,0,1,0,0)"
font-family=".AppleSystemUIFont" font-size="13" font-weight="400" font-style="normal" 
>
<path vector-effect="none" fill-rule="evenodd" d="M0.5,4.5 L1.04612,2.48112 L2.48112,1.04612 L4.5,0.5 L9.625,0.5 L10.416,0.976563 L11.1719,1.6875 L11.998,2.67969 L13,4 L13.7559,4.66016 L14.5469,5.15625 L15.4082,5.51172 L16.375,5.75 L17.4824,5.89453 L18.7656,5.96875 L20.2598,5.99609 L22,6 L23.7402,5.99609 L25.2344,5.96875 L26.5176,5.89453 L27.625,5.75 L28.5918,5.51172 L29.4531,5.15625 L30.2441,4.66016 L31,4 L32.002,2.67969 L32.8281,1.6875 L33.584,0.976563 L34.375,0.5 L439.3,0.5 L441.319,1.04612 L442.754,2.48112 L443.3,4.5 L443.3,31.5 L442.754,33.5189 L441.319,34.9539 L439.3,35.5 L34.375,35.5 L33.584,35.9766 L32.8281,36.6875 L32.002,37.6797 L31,39 L30.2441,39.6602 L29.4531,40.1563 L28.5918,40.5117 L27.625,40.75 L26.5176,40.8945 L25.2344,40.9688 L23.7402,40.9961 L22,41 L20.2598,40.9961 L18.7656,40.9688 L17.4824,40.8945 L16.375,40.75 L15.4082,40.5117 L14.5469,40.1563 L13.7559,39.6602 L13,39 L11.998,37.6797 L11.1719,36.6875 L10.416,35.9766 L9.625,35.5 L4.5,35.5 L2.48112,34.9539 L1.04612,33.5189 L0.5,31.5 L0.5,4.5"/>
</g>

<g fill="#ffffff" fill-opacity="1" stroke="none" transform="matrix(1,0,0,1,0,0)"
font-family="Inter" font-size="11" font-weight="700" font-style="normal" 
>
<path vector-effect="none" fill-rule="nonzero" d="M181.008,22 L181.008,16 L182.621,16 L182.621,17.0469 L182.684,17.0469 C182.793,16.6745 182.977,16.3926 183.234,16.2012 C183.492,16.0098 183.789,15.9141 184.125,15.9141 C184.208,15.9141 184.298,15.9193 184.395,15.9297 C184.491,15.9401 184.576,15.9544 184.648,15.9727 L184.648,17.4492 C184.57,17.4258 184.462,17.4049 184.324,17.3867 C184.186,17.3685 184.06,17.3594 183.945,17.3594 C183.701,17.3594 183.482,17.4121 183.291,17.5176 C183.1,17.623 182.949,17.7695 182.838,17.957 C182.727,18.1445 182.672,18.3607 182.672,18.6055 L182.672,22 L181.008,22 M189.34,19.4453 L189.34,16 L191.004,16 L191.004,22 L189.406,22 L189.406,20.9102 L189.344,20.9102 C189.208,21.2617 188.984,21.5443 188.67,21.7578 C188.356,21.9714 187.974,22.0781 187.523,22.0781 C187.122,22.0781 186.77,21.987 186.465,21.8047 C186.16,21.6224 185.923,21.3633 185.752,21.0273 C185.581,20.6914 185.495,20.2891 185.492,19.8203 L185.492,16 L187.156,16 L187.156,19.5234 C187.159,19.8776 187.254,20.1576 187.441,20.3633 C187.629,20.569 187.88,20.6719 188.195,20.6719 C188.396,20.6719 188.583,20.6257 188.758,20.5332 C188.932,20.4408 189.074,20.3034 189.182,20.1211 C189.29,19.9388 189.342,19.7135 189.34,19.4453 M193.984,18.5313 L193.984,22 L192.32,22 L192.32,16 L193.906,16 L193.906,17.0586 L193.977,17.0586 C194.109,16.7096 194.332,16.4329 194.645,16.2285 C194.957,16.0241 195.336,15.9219 195.781,15.9219 C196.198,15.9219 196.561,16.013 196.871,16.1953 C197.181,16.3776 197.422,16.6374 197.594,16.9746 C197.766,17.3118 197.852,17.7135 197.852,18.1797 L197.852,22 L196.188,22 L196.188,18.4766 C196.19,18.1094 196.096,17.8223 195.906,17.6152 C195.716,17.4082 195.454,17.3047 195.121,17.3047 C194.897,17.3047 194.7,17.3529 194.529,17.4492 C194.359,17.5456 194.226,17.6855 194.131,17.8691 C194.036,18.0527 193.987,18.2734 193.984,18.5313 M204.922,16 L204.922,17.25 L201.219,17.25 L201.219,16 L204.922,16 M202.066,22 L202.066,15.5664 C202.066,15.1315 202.152,14.7708 202.322,14.4844 C202.493,14.1979 202.727,13.9831 203.023,13.8398 C203.32,13.6966 203.658,13.625 204.035,13.625 C204.29,13.625 204.524,13.6445 204.736,13.6836 C204.949,13.7227 205.107,13.7578 205.211,13.7891 L204.914,15.0391 C204.849,15.0182 204.769,14.9987 204.674,14.9805 C204.579,14.9622 204.482,14.9531 204.383,14.9531 C204.138,14.9531 203.967,15.0098 203.871,15.123 C203.775,15.2363 203.727,15.3945 203.727,15.5977 L203.727,22 L202.066,22 M208.438,22.1172 C207.831,22.1172 207.307,21.9876 206.865,21.7285 C206.424,21.4694 206.083,21.1074 205.844,20.6426 C205.604,20.1777 205.484,19.638 205.484,19.0234 C205.484,18.4036 205.604,17.8613 205.844,17.3965 C206.083,16.9316 206.424,16.5697 206.865,16.3105 C207.307,16.0514 207.831,15.9219 208.438,15.9219 C209.044,15.9219 209.568,16.0514 210.01,16.3105 C210.451,16.5697 210.792,16.9316 211.031,17.3965 C211.271,17.8613 211.391,18.4036 211.391,19.0234 C211.391,19.638 211.271,20.1777 211.031,20.6426 C210.792,21.1074 210.451,21.4694 210.01,21.7285 C209.568,21.9876 209.044,22.1172 208.438,22.1172 M208.445,20.8281 C208.721,20.8281 208.952,20.7493 209.137,20.5918 C209.322,20.4342 209.462,20.2188 209.557,19.9453 C209.652,19.6719 209.699,19.3607 209.699,19.0117 C209.699,18.6628 209.652,18.3516 209.557,18.0781 C209.462,17.8047 209.322,17.5885 209.137,17.4297 C208.952,17.2708 208.721,17.1914 208.445,17.1914 C208.167,17.1914 207.933,17.2708 207.744,17.4297 C207.555,17.5885 207.413,17.8047 207.318,18.0781 C207.223,18.3516 207.176,18.6628 207.176,19.0117 C207.176,19.3607 207.223,19.6719 207.318,19.9453 C207.413,20.2188 207.555,20.4342 207.744,20.5918 C207.933,20.7493 208.167,20.8281 208.445,20.8281 M212.477,22 L212.477,16 L214.09,16 L214.09,17.0469 L214.152,17.0469 C214.262,16.6745 214.445,16.3926 214.703,16.2012 C214.961,16.0098 215.258,15.9141 215.594,15.9141 C215.677,15.9141 215.767,15.9193 215.863,15.9297 C215.96,15.9401 216.044,15.9544 216.117,15.9727 L216.117,17.4492 C216.039,17.4258 215.931,17.4049 215.793,17.3867 C215.655,17.3685 215.529,17.3594 215.414,17.3594 C215.169,17.3594 214.951,17.4121 214.76,17.5176 C214.568,17.623 214.417,17.7695 214.307,17.957 C214.196,18.1445 214.141,18.3607 214.141,18.6055 L214.141,22 L212.477,22"/>
</g>

<g fill="#ffffff" fill-opacity="1" stroke="none" transform="matrix(1,0,0,1,0,0)"
font-family="Inter" font-size="11" font-weight="700" font-style="normal" 
>
<path vector-effect="none" fill-rule="nonzero" d="M340.719,21.5664 C340.336,21.5664 339.995,21.4993 339.695,21.3652 C339.396,21.2311 339.16,21.0319 338.986,20.7676 C338.813,20.5033 338.727,20.1732 338.727,19.7773 C338.727,19.444 338.788,19.1641 338.91,18.9375 C339.033,18.7109 339.199,18.5286 339.41,18.3906 C339.621,18.2526 339.861,18.1484 340.131,18.0781 C340.4,18.0078 340.684,17.9583 340.98,17.9297 C341.329,17.8932 341.611,17.8587 341.824,17.8262 C342.038,17.7936 342.193,17.7448 342.289,17.6797 C342.385,17.6146 342.434,17.5182 342.434,17.3906 L342.434,17.3672 C342.434,17.1198 342.356,16.9284 342.201,16.793 C342.046,16.6576 341.827,16.5898 341.543,16.5898 C341.243,16.5898 341.005,16.6556 340.828,16.7871 C340.651,16.9186 340.534,17.0833 340.477,17.2813 L338.938,17.1563 C339.016,16.7917 339.169,16.4759 339.398,16.209 C339.628,15.9421 339.924,15.7363 340.287,15.5918 C340.65,15.4473 341.072,15.375 341.551,15.375 C341.884,15.375 342.204,15.4141 342.51,15.4922 C342.816,15.5703 343.088,15.6914 343.326,15.8555 C343.564,16.0195 343.753,16.2298 343.891,16.4863 C344.029,16.7428 344.098,17.0495 344.098,17.4063 L344.098,21.4531 L342.52,21.4531 L342.52,20.6211 L342.473,20.6211 C342.376,20.8086 342.247,20.9733 342.086,21.1152 C341.924,21.2572 341.73,21.3678 341.504,21.4473 C341.277,21.5267 341.016,21.5664 340.719,21.5664 M341.195,20.418 C341.44,20.418 341.656,20.3691 341.844,20.2715 C342.031,20.1738 342.178,20.0417 342.285,19.875 C342.392,19.7083 342.445,19.5195 342.445,19.3086 L342.445,18.6719 C342.393,18.7057 342.322,18.7363 342.232,18.7637 C342.143,18.791 342.042,18.8158 341.93,18.8379 C341.818,18.86 341.706,18.8796 341.594,18.8965 C341.482,18.9134 341.38,18.9284 341.289,18.9414 C341.094,18.9701 340.923,19.0156 340.777,19.0781 C340.632,19.1406 340.518,19.2246 340.438,19.3301 C340.357,19.4355 340.316,19.5664 340.316,19.7227 C340.316,19.9492 340.399,20.1217 340.564,20.2402 C340.73,20.3587 340.94,20.418 341.195,20.418 M348.574,15.4531 L348.574,16.7031 L344.961,16.7031 L344.961,15.4531 L348.574,15.4531 M345.781,14.0156 L347.445,14.0156 L347.445,19.6094 C347.445,19.763 347.469,19.8822 347.516,19.9668 C347.563,20.0514 347.628,20.1107 347.713,20.1445 C347.798,20.1784 347.896,20.1953 348.008,20.1953 C348.086,20.1953 348.164,20.1882 348.242,20.1738 C348.32,20.1595 348.38,20.1484 348.422,20.1406 L348.684,21.3789 C348.6,21.4049 348.483,21.4355 348.332,21.4707 C348.181,21.5059 347.997,21.5273 347.781,21.5352 C347.38,21.5508 347.029,21.4974 346.729,21.375 C346.428,21.2526 346.194,21.0625 346.027,20.8047 C345.861,20.5469 345.779,20.2214 345.781,19.8281 L345.781,14.0156"/>
</g>

<g fill="#ffffff" fill-opacity="1" stroke="none" transform="matrix(1,0,0,1,0,0)"
font-family="Inter" font-size="11" font-weight="700" font-style="normal" 
>
<path vector-effect="none" fill-rule="nonzero" d="M391.434,19.4688 L391.434,19.0469 C391.434,18.7266 391.502,18.4316 391.639,18.1621 C391.775,17.8926 391.975,17.6764 392.236,17.5137 C392.498,17.3509 392.818,17.2695 393.195,17.2695 C393.578,17.2695 393.9,17.3503 394.162,17.5117 C394.424,17.6732 394.622,17.8887 394.756,18.1582 C394.89,18.4277 394.957,18.724 394.957,19.0469 L394.957,19.4688 C394.957,19.7891 394.889,20.084 394.754,20.3535 C394.618,20.623 394.419,20.8392 394.156,21.002 C393.893,21.1647 393.573,21.2461 393.195,21.2461 C392.813,21.2461 392.491,21.1647 392.23,21.002 C391.97,20.8392 391.772,20.623 391.637,20.3535 C391.501,20.084 391.434,19.7891 391.434,19.4688 M392.57,19.0469 L392.57,19.4688 C392.57,19.6536 392.615,19.8281 392.705,19.9922 C392.795,20.1563 392.958,20.2383 393.195,20.2383 C393.432,20.2383 393.594,20.1576 393.682,19.9961 C393.769,19.8346 393.813,19.6589 393.813,19.4688 L393.813,19.0469 C393.813,18.8568 393.771,18.6797 393.688,18.5156 C393.604,18.3516 393.44,18.2695 393.195,18.2695 C392.961,18.2695 392.798,18.3516 392.707,18.5156 C392.616,18.6797 392.57,18.8568 392.57,19.0469 M387.328,14.8906 L387.328,14.4688 C387.328,14.1458 387.397,13.8496 387.535,13.5801 C387.673,13.3105 387.873,13.0951 388.135,12.9336 C388.396,12.7721 388.714,12.6914 389.086,12.6914 C389.471,12.6914 389.794,12.7721 390.055,12.9336 C390.315,13.0951 390.513,13.3105 390.648,13.5801 C390.784,13.8496 390.852,14.1458 390.852,14.4688 L390.852,14.8906 C390.852,15.2135 390.783,15.5091 390.646,15.7773 C390.51,16.0456 390.311,16.2598 390.049,16.4199 C389.787,16.5801 389.466,16.6602 389.086,16.6602 C388.706,16.6602 388.385,16.5788 388.123,16.416 C387.861,16.2533 387.663,16.0384 387.529,15.7715 C387.395,15.5046 387.328,15.2109 387.328,14.8906 M388.473,14.4688 L388.473,14.8906 C388.473,15.0807 388.518,15.2565 388.607,15.418 C388.697,15.5794 388.857,15.6602 389.086,15.6602 C389.326,15.6602 389.489,15.5794 389.576,15.418 C389.663,15.2565 389.707,15.0807 389.707,14.8906 L389.707,14.4688 C389.707,14.2786 389.665,14.1016 389.582,13.9375 C389.499,13.7734 389.333,13.6914 389.086,13.6914 C388.854,13.6914 388.694,13.7747 388.605,13.9414 C388.517,14.1081 388.473,14.2839 388.473,14.4688 M387.844,20.9688 L393.344,12.9688 L394.367,12.9688 L388.867,20.9688 L387.844,20.9688 M404.063,16.6797 L402.539,16.7734 C402.513,16.6432 402.457,16.5254 402.371,16.4199 C402.285,16.3145 402.173,16.2298 402.033,16.166 C401.894,16.1022 401.728,16.0703 401.535,16.0703 C401.277,16.0703 401.06,16.1243 400.883,16.2324 C400.706,16.3405 400.617,16.4844 400.617,16.6641 C400.617,16.8073 400.674,16.9284 400.789,17.0273 C400.904,17.1263 401.1,17.2057 401.379,17.2656 L402.465,17.4844 C403.048,17.6042 403.483,17.7969 403.77,18.0625 C404.056,18.3281 404.199,18.6771 404.199,19.1094 C404.199,19.5026 404.084,19.8477 403.854,20.1445 C403.623,20.4414 403.308,20.6725 402.908,20.8379 C402.508,21.0033 402.048,21.0859 401.527,21.0859 C400.733,21.0859 400.101,20.9199 399.631,20.5879 C399.161,20.2559 398.885,19.8034 398.805,19.2305 L400.441,19.1445 C400.491,19.3867 400.611,19.571 400.801,19.6973 C400.991,19.8236 401.234,19.8867 401.531,19.8867 C401.823,19.8867 402.058,19.8301 402.236,19.7168 C402.415,19.6035 402.505,19.457 402.508,19.2773 C402.505,19.1263 402.441,19.002 402.316,18.9043 C402.191,18.8066 401.999,18.7318 401.738,18.6797 L400.699,18.4727 C400.113,18.3555 399.678,18.1523 399.393,17.8633 C399.107,17.5742 398.965,17.2057 398.965,16.7578 C398.965,16.3724 399.07,16.0404 399.279,15.7617 C399.489,15.4831 399.785,15.2682 400.166,15.1172 C400.548,14.9661 400.995,14.8906 401.508,14.8906 C402.266,14.8906 402.863,15.0508 403.299,15.3711 C403.735,15.6914 403.99,16.1276 404.063,16.6797 M405.242,23.2188 L405.242,14.9688 L406.883,14.9688 L406.883,15.9766 L406.957,15.9766 C407.03,15.8151 407.136,15.6504 407.275,15.4824 C407.415,15.3145 407.597,15.1738 407.822,15.0605 C408.048,14.9473 408.328,14.8906 408.664,14.8906 C409.102,14.8906 409.505,15.0046 409.875,15.2324 C410.245,15.4603 410.54,15.8027 410.762,16.2598 C410.983,16.7168 411.094,17.2891 411.094,17.9766 C411.094,18.6458 410.986,19.2103 410.771,19.6699 C410.557,20.1296 410.265,20.4772 409.896,20.7129 C409.528,20.9486 409.116,21.0664 408.66,21.0664 C408.337,21.0664 408.063,21.013 407.838,20.9063 C407.613,20.7995 407.428,20.6647 407.285,20.502 C407.142,20.3392 407.033,20.1745 406.957,20.0078 L406.906,20.0078 L406.906,23.2188 L405.242,23.2188 M406.871,17.9688 C406.871,18.3255 406.921,18.6367 407.02,18.9023 C407.118,19.168 407.262,19.3743 407.449,19.5215 C407.637,19.6686 407.865,19.7422 408.133,19.7422 C408.404,19.7422 408.633,19.6673 408.82,19.5176 C409.008,19.3678 409.15,19.1595 409.248,18.8926 C409.346,18.6257 409.395,18.3177 409.395,17.9688 C409.395,17.6224 409.346,17.3177 409.25,17.0547 C409.154,16.7917 409.012,16.5859 408.824,16.4375 C408.637,16.2891 408.406,16.2148 408.133,16.2148 C407.862,16.2148 407.633,16.2865 407.447,16.4297 C407.261,16.5729 407.118,16.776 407.02,17.0391 C406.921,17.3021 406.871,17.612 406.871,17.9688 M414.93,21.0859 C414.313,21.0859 413.782,20.9603 413.338,20.709 C412.894,20.4577 412.552,20.1009 412.313,19.6387 C412.073,19.1764 411.953,18.6289 411.953,17.9961 C411.953,17.3789 412.073,16.8372 412.313,16.3711 C412.552,15.9049 412.89,15.5417 413.326,15.2813 C413.762,15.0208 414.275,14.8906 414.863,14.8906 C415.259,14.8906 415.628,14.9538 415.971,15.0801 C416.313,15.2064 416.613,15.3958 416.869,15.6484 C417.126,15.901 417.326,16.2181 417.469,16.5996 C417.612,16.9811 417.684,17.4271 417.684,17.9375 L417.684,18.3945 L412.617,18.3945 L412.617,17.3633 L416.117,17.3633 C416.117,17.1237 416.065,16.9115 415.961,16.7266 C415.857,16.5417 415.713,16.3965 415.529,16.291 C415.346,16.1855 415.133,16.1328 414.891,16.1328 C414.638,16.1328 414.415,16.1908 414.221,16.3066 C414.027,16.4225 413.875,16.5775 413.766,16.7715 C413.656,16.9655 413.6,17.181 413.598,17.418 L413.598,18.3984 C413.598,18.6953 413.653,18.9518 413.764,19.168 C413.874,19.3841 414.031,19.5508 414.234,19.668 C414.438,19.7852 414.678,19.8438 414.957,19.8438 C415.142,19.8438 415.311,19.8177 415.465,19.7656 C415.618,19.7135 415.75,19.6354 415.859,19.5313 C415.969,19.4271 416.052,19.2995 416.109,19.1484 L417.648,19.25 C417.57,19.6198 417.411,19.9421 417.17,20.2168 C416.929,20.4915 416.619,20.7051 416.24,20.8574 C415.861,21.0098 415.424,21.0859 414.93,21.0859 M421.492,21.0859 C420.875,21.0859 420.344,20.9603 419.9,20.709 C419.456,20.4577 419.115,20.1009 418.875,19.6387 C418.635,19.1764 418.516,18.6289 418.516,17.9961 C418.516,17.3789 418.635,16.8372 418.875,16.3711 C419.115,15.9049 419.452,15.5417 419.889,15.2813 C420.325,15.0208 420.837,14.8906 421.426,14.8906 C421.822,14.8906 422.191,14.9538 422.533,15.0801 C422.876,15.2064 423.175,15.3958 423.432,15.6484 C423.688,15.901 423.888,16.2181 424.031,16.5996 C424.174,16.9811 424.246,17.4271 424.246,17.9375 L424.246,18.3945 L419.18,18.3945 L419.18,17.3633 L422.68,17.3633 C422.68,17.1237 422.628,16.9115 422.523,16.7266 C422.419,16.5417 422.275,16.3965 422.092,16.291 C421.908,16.1855 421.695,16.1328 421.453,16.1328 C421.201,16.1328 420.977,16.1908 420.783,16.3066 C420.589,16.4225 420.438,16.5775 420.328,16.7715 C420.219,16.9655 420.163,17.181 420.16,17.418 L420.16,18.3984 C420.16,18.6953 420.215,18.9518 420.326,19.168 C420.437,19.3841 420.594,19.5508 420.797,19.668 C421,19.7852 421.241,19.8438 421.52,19.8438 C421.704,19.8438 421.874,19.8177 422.027,19.7656 C422.181,19.7135 422.313,19.6354 422.422,19.5313 C422.531,19.4271 422.615,19.2995 422.672,19.1484 L424.211,19.25 C424.133,19.6198 423.973,19.9421 423.732,20.2168 C423.492,20.4915 423.182,20.7051 422.803,20.8574 C422.424,21.0098 421.987,21.0859 421.492,21.0859 M427.531,21.0664 C427.076,21.0664 426.663,20.9486 426.295,20.7129 C425.926,20.4772 425.635,20.1296 425.42,19.6699 C425.205,19.2103 425.098,18.6458 425.098,17.9766 C425.098,17.2891 425.208,16.7168 425.43,16.2598 C425.651,15.8027 425.946,15.4603 426.314,15.2324 C426.683,15.0046 427.087,14.8906 427.527,14.8906 C427.863,14.8906 428.144,14.9473 428.369,15.0605 C428.594,15.1738 428.777,15.3145 428.916,15.4824 C429.055,15.6504 429.161,15.8151 429.234,15.9766 L429.285,15.9766 L429.285,12.9688 L430.945,12.9688 L430.945,20.9688 L429.305,20.9688 L429.305,20.0078 L429.234,20.0078 C429.156,20.1745 429.046,20.3392 428.904,20.502 C428.762,20.6647 428.579,20.7995 428.354,20.9063 C428.128,21.013 427.854,21.0664 427.531,21.0664 M428.059,19.7422 C428.327,19.7422 428.554,19.6686 428.74,19.5215 C428.926,19.3743 429.07,19.168 429.17,18.9023 C429.27,18.6367 429.32,18.3255 429.32,17.9688 C429.32,17.612 429.271,17.3021 429.172,17.0391 C429.073,16.776 428.93,16.5729 428.742,16.4297 C428.555,16.2865 428.327,16.2148 428.059,16.2148 C427.785,16.2148 427.555,16.2891 427.367,16.4375 C427.18,16.5859 427.038,16.7917 426.941,17.0547 C426.845,17.3177 426.797,17.6224 426.797,17.9688 C426.797,18.3177 426.846,18.6257 426.943,18.8926 C427.041,19.1595 427.183,19.3678 427.369,19.5176 C427.555,19.6673 427.785,19.7422 428.059,19.7422 "/>
</g>

<g fill="#ffffff" fill-opacity="1" stroke="none" transform="matrix(0.0285,0,0,0.0285,11.2928,9.44754)"
font-family="Inter" font-size="11" font-weight="700" font-style="normal" 
>
<path vector-effect="none" fill-rule="nonzero" d="M410.778,59.991 C376.729,59.991 346.629,75.6235 326.182,99.684 C216.768,129.689 131.433,215.271 101.927,324.891 C79.5232,345.494 65.3275,374.762 65.54,407.6 C65.7463,439.573 79.3407,468.172 100.975,488.421 C130.228,601.34 218.744,689.335 331.859,718.096 C331.956,718.125 331.989,718.313 332.085,718.338 C352.242,738.376 380.064,750.708 410.778,750.708 C441.492,750.708 469.314,738.376 489.47,718.338 C489.549,718.262 489.618,718.17 489.696,718.096 C604.323,688.948 693.738,598.994 721.758,483.921 C742.939,463.42 756.216,434.907 756.015,403.1 C755.801,370.079 741.086,340.899 718.209,320.633 C687.622,213.077 603.338,129.291 495.373,99.684 C474.926,75.6235 444.827,59.991 410.778,59.991 M410.778,91.8938 C455.052,91.8938 490.89,127.731 490.89,172.006 C490.89,216.28 455.052,252.102 410.778,252.102 C366.503,252.102 330.666,216.28 330.666,172.006 C330.666,127.731 366.503,91.8938 410.778,91.8938 M177.071,325.601 C221.346,325.601 257.183,361.438 257.183,405.713 C257.183,449.987 221.346,485.808 177.071,485.808 C132.796,485.808 96.7332,449.987 96.7332,405.713 C96.7332,361.438 132.796,325.601 177.071,325.601 M644.485,325.601 C688.763,325.601 724.822,361.438 724.822,405.713 C724.822,449.987 688.763,485.808 644.485,485.808 C600.21,485.808 564.373,449.987 564.373,405.713 C564.373,361.438 600.21,325.601 644.485,325.601 M396.601,335.762 L424.955,335.762 C431.754,335.762 437.245,342.538 437.245,350.891 L437.245,381.6 L467.971,381.6 C476.323,381.6 483.083,387.091 483.083,393.89 L483.083,422.245 C483.083,429.044 476.323,434.535 467.971,434.535 L437.245,434.535 L437.245,465.26 C437.245,473.612 431.754,480.373 424.955,480.373 L396.601,480.373 C389.801,480.373 384.31,473.613 384.31,465.26 L384.31,434.535 L353.585,434.535 C345.233,434.535 338.472,429.044 338.472,422.245 L338.472,393.89 C338.472,387.091 345.232,381.6 353.585,381.6 L384.31,381.6 L384.31,350.891 C384.31,342.539 389.801,335.762 396.601,335.762 M410.778,559.307 C455.052,559.307 490.89,595.371 490.89,639.645 C490.89,683.918 455.052,719.757 410.778,719.757 C366.503,719.757 330.666,683.918 330.666,639.645 C330.666,595.371 366.503,559.307 410.778,559.307 "/>
</g>

<g fill="none" stroke="#000000" stroke-opacity="1" stroke-width="22.7975" stroke-linecap="round" stroke-linejoin="round" transform="matrix(0.0285,0,0,0.0285,11.2928,9.44754)"
font-family="Inter" font-size="11" font-weight="700" font-style="normal" 
>
<path vector-effect="none" fill-rule="nonzero" d="M410.778,59.991 C376.729,59.991 346.629,75.6235 326.182,99.684 C216.768,129.689 131.433,215.271 101.927,324.891 C79.5232,345.494 65.3275,374.762 65.54,407.6 C65.7463,439.573 79.3407,468.172 100.975,488.421 C130.228,601.34 218.744,689.335 331.859,718.096 C331.956,718.125 331.989,718.313 332.085,718.338 C352.242,738.376 380.064,750.708 410.778,750.708 C441.492,750.708 469.314,738.376 489.47,718.338 C489.549,718.262 489.618,718.17 489.696,718.096 C604.323,688.948 693.738,598.994 721.758,483.921 C742.939,463.42 756.216,434.907 756.015,403.1 C755.801,370.079 741.086,340.899 718.209,320.633 C687.622,213.077 603.338,129.291 495.373,99.684 C474.926,75.6235 444.827,59.991 410.778,59.991 M410.778,91.8938 C455.052,91.8938 490.89,127.731 490.89,172.006 C490.89,216.28 455.052,252.102 410.778,252.102 C366.503,252.102 330.666,216.28 330.666,172.006 C330.666,127.731 366.503,91.8938 410.778,91.8938 M177.071,325.601 C221.346,325.601 257.183,361.438 257.183,405.713 C257.183,449.987 221.346,485.808 177.071,485.808 C132.796,485.808 96.7332,449.987 96.7332,405.713 C96.7332,361.438 132.796,325.601 177.071,325.601 M644.485,325.601 C688.763,325.601 724.822,361.438 724.822,405.713 C724.822,449.987 688.763,485.808 644.485,485.808 C600.21,485.808 564.373,449.987 564.373,405.713 C564.373,361.438 600.21,325.601 644.485,325.601 M396.601,335.762 L424.955,335.762 C431.754,335.762 437.245,342.538 437.245,350.891 L437.245,381.6 L467.971,381.6 C476.323,381.6 483.083,387.091 483.083,393.89 L483.083,422.245 C483.083,429.044 476.323,434.535 467.971,434.535 L437.245,434.535 L437.245,465.26 C437.245,473.612 431.754,480.373 424.955,480.373 L396.601,480.373 C389.801,480.373 384.31,473.613 384.31,465.26 L384.31,434.535 L353.585,434.535 C345.233,434.535 338.472,429.044 338.472,422.245 L338.472,393.89 C338.472,387.091 345.232,381.6 353.585,381.6 L384.31,381.6 L384.31,350.891 C384.31,342.539 389.801,335.762 396.601,335.762 M410.778,559.307 C455.052,559.307 490.89,595.371 490.89,639.645 C490.89,683.918 455.052,719.757 410.778,719.757 C366.503,719.757 330.666,683.918 330.666,639.645 C330.666,595.371 366.503,559.307 410.778,559.307 "/>
</g>

<g fill="#000000" fill-opacity="1" stroke="none" transform="matrix(0.0285,0,0,0.0285,11.2928,9.44754)"
font-family="Inter" font-size="11" font-weight="700" font-style="normal" 
>
<path vector-effect="none" fill-rule="evenodd" d="M394.961,355.661 C394.961,347.613 401.485,341.088 409.533,341.088 C417.582,341.088 424.106,347.613 424.106,355.661 L424.106,457.48 C424.106,465.528 417.582,472.053 409.533,472.053 C401.485,472.053 394.961,465.528 394.961,457.48 L394.961,355.661"/>
</g>

<g fill="none" stroke="#000000" stroke-opacity="1" stroke-width="20" stroke-linecap="round" stroke-linejoin="round" transform="matrix(0.0285,0,0,0.0285,11.2928,9.44754)"
font-family="Inter" font-size="11" font-weight="700" font-style="normal" 
>
<path vector-effect="none" fill-rule="evenodd" d="M394.961,355.661 C394.961,347.613 401.485,341.088 409.533,341.088 C417.582,341.088 424.106,347.613 424.106,355.661 L424.106,457.48 C424.106,465.528 417.582,472.053 409.533,472.053 C401.485,472.053 394.961,465.528 394.961,457.48 L394.961,355.661"/>
</g>

<g fill="#000000" fill-opacity="1" stroke="none" transform="matrix(0,0.0285,-0.0285,0,11.2928,9.44754)"
font-family="Inter" font-size="11" font-weight="700" font-style="normal" 
>
<path vector-effect="none" fill-rule="evenodd" d="M394.152,-461.016 C394.152,-469.064 400.676,-475.588 408.724,-475.588 C416.773,-475.588 423.297,-469.064 423.297,-461.016 L423.297,-359.196 C423.297,-351.148 416.773,-344.624 408.724,-344.624 C400.676,-344.624 394.152,-351.148 394.152,-359.196 L394.152,-461.016"/>
</g>

<g fill="none" stroke="#000000" stroke-opacity="1" stroke-width="20" stroke-linecap="round" stroke-linejoin="round" transform="matrix(0,0.0285,-0.0285,0,11.2928,9.44754)"
font-family="Inter" font-size="11" font-weight="700" font-style="normal" 
>
<path vector-effect="none" fill-rule="evenodd" d="M394.152,-461.016 C394.152,-469.064 400.676,-475.588 408.724,-475.588 C416.773,-475.588 423.297,-469.064 423.297,-461.016 L423.297,-359.196 C423.297,-351.148 416.773,-344.624 408.724,-344.624 C400.676,-344.624 394.152,-351.148 394.152,-359.196 L394.152,-461.016"/>
</g>

<g fill="#ffffff" fill-opacity="1" stroke="none" transform="matrix(1,0,0,1,0,0)"
font-family="Inter" font-size="11" font-weight="700" font-style="normal" 
>
</g>

<g fill="#ffffff" fill-opacity="1" stroke="#0070ba" stroke-opacity="1" stroke-width="1" stroke-linecap="square" stroke-linejoin="bevel" transform="matrix(1,0,0,1,0,0)"
font-family="Inter" font-size="11" font-weight="700" font-style="normal" 
>
<polyline fill="none" vector-effect="none" points="45,11 45,31 " />
</g>

<g fill="#ffffff" fill-opacity="1" stroke="#0070ba" stroke-opacity="1" stroke-width="1" stroke-linecap="square" stroke-linejoin="bevel" transform="matrix(1,0,0,1,0,0)"
font-family="Inter" font-size="11" font-weight="700" font-style="normal" 
>
</g>

<g fill="#ffffff" fill-opacity="1" stroke="#0070ba" stroke-opacity="1" stroke-width="1" stroke-linecap="square" stroke-linejoin="bevel" transform="matrix(1,0,0,1,0,0)"
font-family="Inter" font-size="11" font-weight="700" font-style="normal" 
>
</g>

<g fill="#ffffff" fill-opacity="1" stroke="#0070ba" stroke-opacity="1" stroke-width="1" stroke-linecap="square" stroke-linejoin="bevel" transform="matrix(1,0,0,1,0,0)"
font-family="Inter" font-size="11" font-weight="700" font-style="normal" 
>
</g>

<g fill="#ffffff" fill-opacity="1" stroke="#0064a6" stroke-opacity="1" stroke-width="1.2" stroke-linecap="square" stroke-linejoin="bevel" transform="matrix(1,0,0,1,354.9,7)"
font-family="Inter" font-size="11" font-weight="700" font-style="normal" 
>
<path vector-effect="none" fill-rule="evenodd" d="M1,11 C1,5.47715 5.92487,1 12,1 L14.4,1 C20.4751,1 25.4,5.47715 25.4,11 C25.4,16.5228 20.4751,21 14.4,21 L12,21 C5.92487,21 1,16.5228 1,11 "/>
</g>

<g fill="#000000" fill-opacity="1" stroke="none" transform="matrix(1,0,0,1,354.9,7)"
font-family="Inter" font-size="10" font-weight="700" font-style="normal" 
>
<path vector-effect="none" fill-rule="nonzero" d="M9.69886,14.5213 C9.19697,14.5213 8.75012,14.429 8.35831,14.2443 C7.9665,14.0597 7.65578,13.8052 7.42614,13.4808 C7.1965,13.1565 7.07694,12.7848 7.06747,12.3658 L8.55895,12.3658 C8.57552,12.6475 8.69389,12.8759 8.91406,13.0511 C9.13423,13.2263 9.39583,13.3139 9.69886,13.3139 C9.94034,13.3139 10.154,13.2601 10.3398,13.1523 C10.5257,13.0446 10.6713,12.8943 10.7766,12.7013 C10.882,12.5084 10.9347,12.2865 10.9347,12.0355 C10.9347,11.7798 10.8808,11.5549 10.7731,11.3608 C10.6654,11.1667 10.5168,11.0152 10.3274,10.9063 C10.138,10.7973 9.9214,10.7417 9.67756,10.7393 C9.46449,10.7393 9.25793,10.7831 9.05788,10.8707 C8.85784,10.9583 8.70218,11.0779 8.59091,11.2294 L7.22372,10.9844 L7.56818,7.14915 L12.0142,7.14915 L12.0142,8.40625 L8.83594,8.40625 L8.64773,10.228 L8.69034,10.228 C8.81818,10.0481 9.01113,9.89891 9.26918,9.78054 C9.52723,9.66217 9.81605,9.60298 10.1357,9.60298 C10.5736,9.60298 10.9643,9.70597 11.3075,9.91193 C11.6508,10.1179 11.9219,10.4002 12.1207,10.7589 C12.3196,11.1175 12.4179,11.5301 12.4155,11.9964 C12.4179,12.4865 12.3048,12.9215 12.0763,13.3015 C11.8479,13.6815 11.5295,13.9798 11.1211,14.1964 C10.7127,14.413 10.2386,14.5213 9.69886,14.5213 M16.3317,14.5817 C15.7209,14.5793 15.1959,14.429 14.7567,14.1307 C14.3176,13.8324 13.9802,13.4003 13.7447,12.8345 C13.5091,12.2687 13.3925,11.5881 13.3949,10.7926 C13.3949,9.99953 13.5127,9.32363 13.7482,8.76491 C13.9838,8.2062 14.3211,7.78066 14.7603,7.48828 C15.1995,7.1959 15.7232,7.04972 16.3317,7.04972 C16.9401,7.04972 17.4639,7.1965 17.9031,7.49006 C18.3422,7.78362 18.6802,8.20916 18.9169,8.76669 C19.1536,9.32422 19.2708,9.99953 19.2685,10.7926 C19.2685,11.5904 19.1507,12.2723 18.9151,12.8381 C18.6796,13.4039 18.3428,13.8359 17.9048,14.1342 C17.4669,14.4325 16.9425,14.5817 16.3317,14.5817 M16.3317,13.3068 C16.7483,13.3068 17.081,13.0973 17.3295,12.6783 C17.5781,12.2592 17.7012,11.6307 17.6989,10.7926 C17.6989,10.241 17.6426,9.78172 17.5302,9.41477 C17.4177,9.04782 17.2591,8.77202 17.0543,8.58736 C16.8496,8.4027 16.6087,8.31037 16.3317,8.31037 C15.9174,8.31037 15.5859,8.51752 15.3374,8.93182 C15.0888,9.34612 14.9633,9.96638 14.9609,10.7926 C14.9609,11.3513 15.0172,11.8171 15.1296,12.19 C15.2421,12.5629 15.4013,12.8422 15.6072,13.0281 C15.8132,13.2139 16.0547,13.3068 16.3317,13.3068 "/>
</g>

<g fill="#ffffff" fill-opacity="1" stroke="#0070ba" stroke-opacity="1" stroke-width="1" stroke-linecap="square" stroke-linejoin="bevel" transform="matrix(1,0,0,1,0,0)"
font-family="Inter" font-size="11" font-weight="700" font-style="normal" 
>
</g>

<g fill="#0090f5" fill-opacity="1" stroke="#0070ba" stroke-opacity="1" stroke-width="1.2" stroke-linecap="square" stroke-linejoin="bevel" transform="matrix(1,0,0,1,253.4,6)"
font-family="Inter" font-size="11" font-weight="700" font-style="normal" 
>
<path vector-effect="none" fill-rule="evenodd" d="M0.5,3.5 C0.5,1.84315 1.84315,0.5 3.5,0.5 L76,0.5 C77.6569,0.5 79,1.84315 79,3.5 L79,20.5 C79,22.1569 77.6569,23.5 76,23.5 L3.5,23.5 C1.84315,23.5 0.5,22.1569 0.5,20.5 L0.5,3.5"/>
</g>

<g fill="#ffffff" fill-opacity="1" stroke="none" transform="matrix(1,0,0,1,253.4,6)"
font-family="Inter" font-size="11" font-weight="700" font-style="normal" 
>
<path vector-effect="none" fill-rule="nonzero" d="M9.50781,15.9531 L9.50781,9.95313 L11.1211,9.95313 L11.1211,11 L11.1836,11 C11.293,10.6276 11.4766,10.3457 11.7344,10.1543 C11.9922,9.96289 12.2891,9.86719 12.625,9.86719 C12.7083,9.86719 12.7982,9.8724 12.8945,9.88281 C12.9909,9.89323 13.0755,9.90755 13.1484,9.92578 L13.1484,11.4023 C13.0703,11.3789 12.9622,11.3581 12.8242,11.3398 C12.6862,11.3216 12.5599,11.3125 12.4453,11.3125 C12.2005,11.3125 11.9824,11.3652 11.791,11.4707 C11.5996,11.5762 11.4486,11.7227 11.3379,11.9102 C11.2272,12.0977 11.1719,12.3138 11.1719,12.5586 L11.1719,15.9531 L9.50781,15.9531 M16.4219,16.0703 C15.8151,16.0703 15.291,15.9408 14.8496,15.6816 C14.4082,15.4225 14.0677,15.0605 13.8281,14.5957 C13.5885,14.1309 13.4688,13.5911 13.4688,12.9766 C13.4688,12.3568 13.5885,11.8145 13.8281,11.3496 C14.0677,10.8848 14.4082,10.5228 14.8496,10.2637 C15.291,10.0046 15.8151,9.875 16.4219,9.875 C17.0286,9.875 17.5527,10.0046 17.9941,10.2637 C18.4355,10.5228 18.776,10.8848 19.0156,11.3496 C19.2552,11.8145 19.375,12.3568 19.375,12.9766 C19.375,13.5911 19.2552,14.1309 19.0156,14.5957 C18.776,15.0605 18.4355,15.4225 17.9941,15.6816 C17.5527,15.9408 17.0286,16.0703 16.4219,16.0703 M16.4297,14.7813 C16.7057,14.7813 16.9362,14.7025 17.1211,14.5449 C17.306,14.3874 17.446,14.1719 17.541,13.8984 C17.6361,13.625 17.6836,13.3138 17.6836,12.9648 C17.6836,12.6159 17.6361,12.3047 17.541,12.0313 C17.446,11.7578 17.306,11.5417 17.1211,11.3828 C16.9362,11.224 16.7057,11.1445 16.4297,11.1445 C16.151,11.1445 15.9173,11.224 15.7285,11.3828 C15.5397,11.5417 15.3978,11.7578 15.3027,12.0313 C15.2077,12.3047 15.1602,12.6159 15.1602,12.9648 C15.1602,13.3138 15.2077,13.625 15.3027,13.8984 C15.3978,14.1719 15.5397,14.3874 15.7285,14.5449 C15.9173,14.7025 16.151,14.7813 16.4297,14.7813 M23.6523,9.95313 L23.6523,11.2031 L20.0391,11.2031 L20.0391,9.95313 L23.6523,9.95313 M20.8594,8.51563 L22.5234,8.51563 L22.5234,14.1094 C22.5234,14.263 22.5469,14.3822 22.5938,14.4668 C22.6406,14.5514 22.7064,14.6107 22.791,14.6445 C22.8757,14.6784 22.974,14.6953 23.0859,14.6953 C23.1641,14.6953 23.2422,14.6882 23.3203,14.6738 C23.3984,14.6595 23.4583,14.6484 23.5,14.6406 L23.7617,15.8789 C23.6784,15.9049 23.5612,15.9355 23.4102,15.9707 C23.2591,16.0059 23.0755,16.0273 22.8594,16.0352 C22.4583,16.0508 22.1074,15.9974 21.8066,15.875 C21.5059,15.7526 21.2721,15.5625 21.1055,15.3047 C20.9388,15.0469 20.8568,14.7214 20.8594,14.3281 L20.8594,8.51563 M26.4375,16.0664 C26.0547,16.0664 25.7135,15.9993 25.4141,15.8652 C25.1146,15.7311 24.8783,15.5319 24.7051,15.2676 C24.5319,15.0033 24.4453,14.6732 24.4453,14.2773 C24.4453,13.944 24.5065,13.6641 24.6289,13.4375 C24.7513,13.2109 24.918,13.0286 25.1289,12.8906 C25.3398,12.7526 25.5801,12.6484 25.8496,12.5781 C26.1191,12.5078 26.4023,12.4583 26.6992,12.4297 C27.0482,12.3932 27.3294,12.3587 27.543,12.3262 C27.7565,12.2936 27.9115,12.2448 28.0078,12.1797 C28.1042,12.1146 28.1523,12.0182 28.1523,11.8906 L28.1523,11.8672 C28.1523,11.6198 28.0749,11.4284 27.9199,11.293 C27.765,11.1576 27.5456,11.0898 27.2617,11.0898 C26.9622,11.0898 26.724,11.1556 26.5469,11.2871 C26.3698,11.4186 26.2526,11.5833 26.1953,11.7813 L24.6563,11.6563 C24.7344,11.2917 24.888,10.9759 25.1172,10.709 C25.3464,10.4421 25.6426,10.2363 26.0059,10.0918 C26.3691,9.94727 26.7904,9.875 27.2695,9.875 C27.6029,9.875 27.9225,9.91406 28.2285,9.99219 C28.5345,10.0703 28.8066,10.1914 29.0449,10.3555 C29.2832,10.5195 29.4714,10.7298 29.6094,10.9863 C29.7474,11.2428 29.8164,11.5495 29.8164,11.9063 L29.8164,15.9531 L28.2383,15.9531 L28.2383,15.1211 L28.1914,15.1211 C28.0951,15.3086 27.9661,15.4733 27.8047,15.6152 C27.6432,15.7572 27.4492,15.8678 27.2227,15.9473 C26.9961,16.0267 26.7344,16.0664 26.4375,16.0664 M26.9141,14.918 C27.1589,14.918 27.375,14.8691 27.5625,14.7715 C27.75,14.6738 27.8971,14.5417 28.0039,14.375 C28.1107,14.2083 28.1641,14.0195 28.1641,13.8086 L28.1641,13.1719 C28.112,13.2057 28.041,13.2363 27.9512,13.2637 C27.8613,13.291 27.7604,13.3158 27.6484,13.3379 C27.5365,13.36 27.4245,13.3796 27.3125,13.3965 C27.2005,13.4134 27.099,13.4284 27.0078,13.4414 C26.8125,13.4701 26.6419,13.5156 26.4961,13.5781 C26.3503,13.6406 26.237,13.7246 26.1563,13.8301 C26.0755,13.9355 26.0352,14.0664 26.0352,14.2227 C26.0352,14.4492 26.1178,14.6217 26.2832,14.7402 C26.4486,14.8587 26.6589,14.918 26.9141,14.918 M34.293,9.95313 L34.293,11.2031 L30.6797,11.2031 L30.6797,9.95313 L34.293,9.95313 M31.5,8.51563 L33.1641,8.51563 L33.1641,14.1094 C33.1641,14.263 33.1875,14.3822 33.2344,14.4668 C33.2813,14.5514 33.347,14.6107 33.4316,14.6445 C33.5163,14.6784 33.6146,14.6953 33.7266,14.6953 C33.8047,14.6953 33.8828,14.6882 33.9609,14.6738 C34.0391,14.6595 34.099,14.6484 34.1406,14.6406 L34.4023,15.8789 C34.319,15.9049 34.2018,15.9355 34.0508,15.9707 C33.8997,16.0059 33.7161,16.0273 33.5,16.0352 C33.099,16.0508 32.748,15.9974 32.4473,15.875 C32.1465,15.7526 31.9128,15.5625 31.7461,15.3047 C31.5794,15.0469 31.4974,14.7214 31.5,14.3281 L31.5,8.51563 M35.3672,15.9531 L35.3672,9.95313 L37.0313,9.95313 L37.0313,15.9531 L35.3672,15.9531 M36.2031,9.17969 C35.9557,9.17969 35.7441,9.09701 35.5684,8.93164 C35.3926,8.76628 35.3047,8.56771 35.3047,8.33594 C35.3047,8.10677 35.3926,7.90951 35.5684,7.74414 C35.7441,7.57878 35.9557,7.49609 36.2031,7.49609 C36.4505,7.49609 36.6621,7.57878 36.8379,7.74414 C37.0137,7.90951 37.1016,8.10677 37.1016,8.33594 C37.1016,8.56771 37.0137,8.76628 36.8379,8.93164 C36.6621,9.09701 36.4505,9.17969 36.2031,9.17969 M41.0625,16.0703 C40.4557,16.0703 39.9316,15.9408 39.4902,15.6816 C39.0488,15.4225 38.7083,15.0605 38.4688,14.5957 C38.2292,14.1309 38.1094,13.5911 38.1094,12.9766 C38.1094,12.3568 38.2292,11.8145 38.4688,11.3496 C38.7083,10.8848 39.0488,10.5228 39.4902,10.2637 C39.9316,10.0046 40.4557,9.875 41.0625,9.875 C41.6693,9.875 42.1934,10.0046 42.6348,10.2637 C43.0762,10.5228 43.4167,10.8848 43.6563,11.3496 C43.8958,11.8145 44.0156,12.3568 44.0156,12.9766 C44.0156,13.5911 43.8958,14.1309 43.6563,14.5957 C43.4167,15.0605 43.0762,15.4225 42.6348,15.6816 C42.1934,15.9408 41.6693,16.0703 41.0625,16.0703 M41.0703,14.7813 C41.3464,14.7813 41.5768,14.7025 41.7617,14.5449 C41.9466,14.3874 42.0866,14.1719 42.1816,13.8984 C42.2767,13.625 42.3242,13.3138 42.3242,12.9648 C42.3242,12.6159 42.2767,12.3047 42.1816,12.0313 C42.0866,11.7578 41.9466,11.5417 41.7617,11.3828 C41.5768,11.224 41.3464,11.1445 41.0703,11.1445 C40.7917,11.1445 40.5579,11.224 40.3691,11.3828 C40.1803,11.5417 40.0384,11.7578 39.9434,12.0313 C39.8483,12.3047 39.8008,12.6159 39.8008,12.9648 C39.8008,13.3138 39.8483,13.625 39.9434,13.8984 C40.0384,14.1719 40.1803,14.3874 40.3691,14.5449 C40.5579,14.7025 40.7917,14.7813 41.0703,14.7813 M46.7656,12.4844 L46.7656,15.9531 L45.1016,15.9531 L45.1016,9.95313 L46.6875,9.95313 L46.6875,11.0117 L46.7578,11.0117 C46.8906,10.6628 47.1133,10.3861 47.4258,10.1816 C47.7383,9.97721 48.1172,9.875 48.5625,9.875 C48.9792,9.875 49.3424,9.96615 49.6523,10.1484 C49.9622,10.3307 50.2031,10.5905 50.375,10.9277 C50.5469,11.265 50.6328,11.6667 50.6328,12.1328 L50.6328,15.9531 L48.9688,15.9531 L48.9688,12.4297 C48.9714,12.0625 48.8776,11.7754 48.6875,11.5684 C48.4974,11.3613 48.2357,11.2578 47.9023,11.2578 C47.6784,11.2578 47.4811,11.306 47.3105,11.4023 C47.14,11.4987 47.0072,11.6387 46.9121,11.8223 C46.8171,12.0059 46.7682,12.2266 46.7656,12.4844 M56.9219,11.6641 L55.3984,11.7578 C55.3724,11.6276 55.3164,11.5098 55.2305,11.4043 C55.1445,11.2988 55.0319,11.2142 54.8926,11.1504 C54.7533,11.0866 54.5872,11.0547 54.3945,11.0547 C54.1367,11.0547 53.9193,11.1087 53.7422,11.2168 C53.5651,11.3249 53.4766,11.4688 53.4766,11.6484 C53.4766,11.7917 53.5339,11.9128 53.6484,12.0117 C53.763,12.1107 53.9596,12.1901 54.2383,12.25 L55.3242,12.4688 C55.9076,12.5885 56.3424,12.7813 56.6289,13.0469 C56.9154,13.3125 57.0586,13.6615 57.0586,14.0938 C57.0586,14.487 56.9434,14.832 56.7129,15.1289 C56.4824,15.4258 56.1673,15.6569 55.7676,15.8223 C55.3678,15.9876 54.9076,16.0703 54.3867,16.0703 C53.5924,16.0703 52.9603,15.9043 52.4902,15.5723 C52.0202,15.2402 51.7448,14.7878 51.6641,14.2148 L53.3008,14.1289 C53.3503,14.3711 53.4701,14.5553 53.6602,14.6816 C53.8503,14.8079 54.0938,14.8711 54.3906,14.8711 C54.6823,14.8711 54.9173,14.8145 55.0957,14.7012 C55.2741,14.5879 55.3646,14.4414 55.3672,14.2617 C55.3646,14.1107 55.3008,13.9863 55.1758,13.8887 C55.0508,13.791 54.8581,13.7161 54.5977,13.6641 L53.5586,13.457 C52.9727,13.3398 52.5371,13.1367 52.252,12.8477 C51.9668,12.5586 51.8242,12.1901 51.8242,11.7422 C51.8242,11.3568 51.929,11.0247 52.1387,10.7461 C52.3483,10.4674 52.6439,10.2526 53.0254,10.1016 C53.4069,9.95052 53.8542,9.875 54.3672,9.875 C55.125,9.875 55.722,10.0352 56.1582,10.3555 C56.5944,10.6758 56.849,11.112 56.9219,11.6641 "/>
</g>

<g fill="#ffffff" fill-opacity="1" stroke="none" transform="matrix(0.03125,0,0,0.03125,318.9,14)"
font-family="Inter" font-size="11" font-weight="700" font-style="normal" 
>
<path vector-effect="none" fill-rule="nonzero" d="M111.326,191.938 C120.545,201.158 135.517,201.158 144.737,191.938 L239.144,97.5313 C245.929,90.7458 247.921,80.6413 244.233,71.7907 C240.545,62.9401 231.989,57.1871 222.401,57.1871 L33.5875,57.2608 C24.0731,57.2608 15.4437,63.0137 11.7559,71.8644 C8.06815,80.715 10.1333,90.8195 16.845,97.605 L111.252,192.012 L111.326,191.938"/>
</g>

<g fill="none" stroke="#000000" stroke-opacity="1" stroke-width="13.7195" stroke-linecap="butt" stroke-linejoin="miter" stroke-miterlimit="4" transform="matrix(0.03125,0,0,0.03125,318.9,14)"
font-family="Inter" font-size="11" font-weight="700" font-style="normal" 
>
<path vector-effect="none" fill-rule="nonzero" d="M111.326,191.938 C120.545,201.158 135.517,201.158 144.737,191.938 L239.144,97.5313 C245.929,90.7458 247.921,80.6413 244.233,71.7907 C240.545,62.9401 231.989,57.1871 222.401,57.1871 L33.5875,57.2608 C24.0731,57.2608 15.4437,63.0137 11.7559,71.8644 C8.06815,80.715 10.1333,90.8195 16.845,97.605 L111.252,192.012 L111.326,191.938"/>
</g>

<g fill="#ffffff" fill-opacity="1" stroke="none" transform="matrix(1,0,0,1,253.4,6)"
font-family="Inter" font-size="11" font-weight="700" font-style="normal" 
>
</g>

<g fill="#ffffff" fill-opacity="1" stroke="#0070ba" stroke-opacity="1" stroke-width="1" stroke-linecap="square" stroke-linejoin="bevel" transform="matrix(1,0,0,1,0,0)"
font-family="Inter" font-size="11" font-weight="700" font-style="normal" 
>
</g>

<g fill="#0070ba" fill-opacity="1" stroke="#0070ba" stroke-opacity="1" stroke-width="1.2" stroke-linecap="square" stroke-linejoin="bevel" transform="matrix(1,0,0,1,135,6)"
font-family="Inter" font-size="11" font-weight="700" font-style="normal" 
>
<path vector-effect="none" fill-rule="evenodd" d="M0.5,12 C0.5,5.64873 5.87258,0.5 12.5,0.5 L27.5,0.5 C34.1274,0.5 39.5,5.64873 39.5,12 C39.5,18.3513 34.1274,23.5 27.5,23.5 L12.5,23.5 C5.87258,23.5 0.5,18.3513 0.5,12 "/>
</g>

<g fill="#ffffff" fill-opacity="1" stroke="none" transform="matrix(1,0,0,1,135,6)"
font-family="Inter" font-size="11" font-weight="700" font-style="normal" 
>
<path vector-effect="none" fill-rule="nonzero" d="M11.8242,16 L10.0117,16 L12.7734,8 L14.9531,8 L17.7109,16 L15.8984,16 L13.8945,9.82813 L13.832,9.82813 L11.8242,16 M11.7109,12.8555 L15.9922,12.8555 L15.9922,14.1758 L11.7109,14.1758 L11.7109,12.8555"/>
</g>

<g fill="#ffffff" fill-opacity="1" stroke="none" transform="matrix(0.03125,0,0,0.03125,161,14)"
font-family="Inter" font-size="11" font-weight="700" font-style="normal" 
>
<path vector-effect="none" fill-rule="nonzero" d="M111.326,191.938 C120.545,201.158 135.517,201.158 144.737,191.938 L239.144,97.5313 C245.929,90.7458 247.921,80.6413 244.233,71.7907 C240.545,62.9401 231.989,57.1871 222.401,57.1871 L33.5875,57.2608 C24.0731,57.2608 15.4437,63.0137 11.7559,71.8644 C8.06815,80.715 10.1333,90.8195 16.845,97.605 L111.252,192.012 L111.326,191.938"/>
</g>

<g fill="none" stroke="#000000" stroke-opacity="1" stroke-width="13.7195" stroke-linecap="butt" stroke-linejoin="miter" stroke-miterlimit="4" transform="matrix(0.03125,0,0,0.03125,161,14)"
font-family="Inter" font-size="11" font-weight="700" font-style="normal" 
>
<path vector-effect="none" fill-rule="nonzero" d="M111.326,191.938 C120.545,201.158 135.517,201.158 144.737,191.938 L239.144,97.5313 C245.929,90.7458 247.921,80.6413 244.233,71.7907 C240.545,62.9401 231.989,57.1871 222.401,57.1871 L33.5875,57.2608 C24.0731,57.2608 15.4437,63.0137 11.7559,71.8644 C8.06815,80.715 10.1333,90.8195 16.845,97.605 L111.252,192.012 L111.326,191.938"/>
</g>

<g fill="#ffffff" fill-opacity="1" stroke="none" transform="matrix(1,0,0,1,135,6)"
font-family="Inter" font-size="11" font-weight="700" font-style="normal" 
>
</g>

<g fill="#ffffff" fill-opacity="1" stroke="#0070ba" stroke-opacity="1" stroke-width="1" stroke-linecap="square" stroke-linejoin="bevel" transform="matrix(1,0,0,1,0,0)"
font-family="Inter" font-size="11" font-weight="700" font-style="normal" 
>
</g>

<g fill="#ffffff" fill-opacity="1" stroke="#0070ba" stroke-opacity="1" stroke-width="1" stroke-linecap="square" stroke-linejoin="bevel" transform="matrix(1,0,0,1,0,0)"
font-family="Inter" font-size="11" font-weight="700" font-style="normal" 
>
</g>

<g fill="#ffffff" fill-opacity="1" stroke="#0070ba" stroke-opacity="1" stroke-width="1" stroke-linecap="square" stroke-linejoin="bevel" transform="matrix(1,0,0,1,0,0)"
font-family="Inter" font-size="11" font-weight="700" font-style="normal" 
>
</g>

<g fill="#ffffff" fill-opacity="1" stroke="#0064a6" stroke-opacity="1" stroke-width="1.2" stroke-linecap="square" stroke-linejoin="bevel" transform="matrix(1,0,0,1,223,7)"
font-family="Inter" font-size="11" font-weight="700" font-style="normal" 
>
<path vector-effect="none" fill-rule="evenodd" d="M1,11 C1,5.47715 5.92487,1 12,1 L14.4,1 C20.4751,1 25.4,5.47715 25.4,11 C25.4,16.5228 20.4751,21 14.4,21 L12,21 C5.92487,21 1,16.5228 1,11 "/>
</g>

<g fill="#000000" fill-opacity="1" stroke="none" transform="matrix(1,0,0,1,223,7)"
font-family="Inter" font-size="10" font-weight="700" font-style="normal" 
>
<path vector-effect="none" fill-rule="nonzero" d="M14.5817,7.22727 L14.5817,14.5 L13.044,14.5 L13.044,8.68679 L13.0014,8.68679 L11.3359,9.73082 L11.3359,8.36719 L13.1364,7.22727 L14.5817,7.22727"/>
</g>

<g fill="#ffffff" fill-opacity="1" stroke="#0070ba" stroke-opacity="1" stroke-width="1" stroke-linecap="square" stroke-linejoin="bevel" transform="matrix(1,0,0,1,0,0)"
font-family="Inter" font-size="11" font-weight="700" font-style="normal" 
>
</g>

<g fill="#0090f5" fill-opacity="1" stroke="#0070ba" stroke-opacity="1" stroke-width="1.2" stroke-linecap="square" stroke-linejoin="bevel" transform="matrix(1,0,0,1,56,6)"
font-family="Inter" font-size="11" font-weight="700" font-style="normal" 
>
<path vector-effect="none" fill-rule="evenodd" d="M0.5,3.5 C0.5,1.84315 1.84315,0.5 3.5,0.5 L71.5,0.5 C73.1569,0.5 74.5,1.84315 74.5,3.5 L74.5,20.5 C74.5,22.1569 73.1569,23.5 71.5,23.5 L3.5,23.5 C1.84315,23.5 0.5,22.1569 0.5,20.5 L0.5,3.5"/>
</g>

<g fill="#ffffff" fill-opacity="1" stroke="none" transform="matrix(1,0,0,1,56,6)"
font-family="Inter" font-size="11" font-weight="700" font-style="normal" 
>
<path vector-effect="none" fill-rule="nonzero" d="M10,9.39453 L10,8 L16.5703,8 L16.5703,9.39453 L14.1211,9.39453 L14.1211,16 L12.4492,16 L12.4492,9.39453 L10,9.39453 M17.6484,16 L17.6484,8 L19.3398,8 L19.3398,11.3008 L22.7734,11.3008 L22.7734,8 L24.4609,8 L24.4609,16 L22.7734,16 L22.7734,12.6953 L19.3398,12.6953 L19.3398,16 L17.6484,16 M32.543,8 L32.543,16 L31.082,16 L27.6016,10.9648 L27.543,10.9648 L27.543,16 L25.8516,16 L25.8516,8 L27.3359,8 L30.7891,13.0313 L30.8594,13.0313 L30.8594,8 L32.543,8 M33.9297,16 L33.9297,8 L35.6211,8 L35.6211,11.3008 L39.0547,11.3008 L39.0547,8 L40.7422,8 L40.7422,16 L39.0547,16 L39.0547,12.6953 L35.6211,12.6953 L35.6211,16 L33.9297,16 M42.1328,16 L42.1328,8 L45.3359,8 C45.9245,8 46.4154,8.08724 46.8086,8.26172 C47.2018,8.4362 47.4974,8.67773 47.6953,8.98633 C47.8932,9.29492 47.9922,9.64974 47.9922,10.0508 C47.9922,10.3633 47.9297,10.6374 47.8047,10.873 C47.6797,11.1087 47.5085,11.3014 47.291,11.4512 C47.0736,11.6009 46.8255,11.707 46.5469,11.7695 L46.5469,11.8477 C46.8516,11.8607 47.1374,11.9466 47.4043,12.1055 C47.6712,12.2643 47.888,12.4863 48.0547,12.7715 C48.2214,13.0566 48.3047,13.3958 48.3047,13.7891 C48.3047,14.2135 48.1999,14.5918 47.9902,14.9238 C47.7806,15.2559 47.4714,15.5182 47.0625,15.7109 C46.6536,15.9036 46.1497,16 45.5508,16 L42.1328,16 M43.8242,14.6172 L45.2031,14.6172 C45.6745,14.6172 46.0182,14.5267 46.2344,14.3457 C46.4505,14.1647 46.5586,13.9232 46.5586,13.6211 C46.5586,13.3997 46.5052,13.2044 46.3984,13.0352 C46.2917,12.8659 46.14,12.7331 45.9434,12.6367 C45.7467,12.5404 45.513,12.4922 45.2422,12.4922 L43.8242,12.4922 L43.8242,14.6172 M43.8242,11.3477 L45.0781,11.3477 C45.3099,11.3477 45.5163,11.3066 45.6973,11.2246 C45.8783,11.1426 46.0215,11.026 46.127,10.875 C46.2324,10.724 46.2852,10.543 46.2852,10.332 C46.2852,10.043 46.1829,9.8099 45.9785,9.63281 C45.7741,9.45573 45.4844,9.36719 45.1094,9.36719 L43.8242,9.36719 L43.8242,11.3477 M52.832,8 L52.832,16 L51.1406,16 L51.1406,9.60547 L51.0938,9.60547 L49.2617,10.7539 L49.2617,9.25391 L51.2422,8 L52.832,8"/>
</g>

<g fill="#ffffff" fill-opacity="1" stroke="none" transform="matrix(0.03125,0,0,0.03125,117,14)"
font-family="Inter" font-size="11" font-weight="700" font-style="normal" 
>
<path vector-effect="none" fill-rule="nonzero" d="M111.326,191.938 C120.545,201.158 135.517,201.158 144.737,191.938 L239.144,97.5313 C245.929,90.7458 247.921,80.6413 244.233,71.7907 C240.545,62.9401 231.989,57.1871 222.401,57.1871 L33.5875,57.2608 C24.0731,57.2608 15.4437,63.0137 11.7559,71.8644 C8.06815,80.715 10.1333,90.8195 16.845,97.605 L111.252,192.012 L111.326,191.938"/>
</g>

<g fill="none" stroke="#000000" stroke-opacity="1" stroke-width="13.7195" stroke-linecap="butt" stroke-linejoin="miter" stroke-miterlimit="4" transform="matrix(0.03125,0,0,0.03125,117,14)"
font-family="Inter" font-size="11" font-weight="700" font-style="normal" 
>
<path vector-effect="none" fill-rule="nonzero" d="M111.326,191.938 C120.545,201.158 135.517,201.158 144.737,191.938 L239.144,97.5313 C245.929,90.7458 247.921,80.6413 244.233,71.7907 C240.545,62.9401 231.989,57.1871 222.401,57.1871 L33.5875,57.2608 C24.0731,57.2608 15.4437,63.0137 11.7559,71.8644 C8.06815,80.715 10.1333,90.8195 16.845,97.605 L111.252,192.012 L111.326,191.938"/>
</g>

<g fill="#ffffff" fill-opacity="1" stroke="none" transform="matrix(1,0,0,1,56,6)"
font-family="Inter" font-size="11" font-weight="700" font-style="normal" 
>
</g>

<g fill="#ffffff" fill-opacity="1" stroke="#0070ba" stroke-opacity="1" stroke-width="1" stroke-linecap="square" stroke-linejoin="bevel" transform="matrix(1,0,0,1,0,0)"
font-family="Inter" font-size="11" font-weight="700" font-style="normal" 
>
</g>

<g fill="none" stroke="#000000" stroke-opacity="1" stroke-width="1" stroke-linecap="square" stroke-linejoin="bevel" transform="matrix(1,0,0,1,0,0)"
font-family=".AppleSystemUIFont" font-size="13" font-weight="400" font-style="normal" 
>
</g>
</g>
</svg>
