<?xml version="1.0" encoding="UTF-8" standalone="no"?>
<svg width="98.7778mm" height="11.2889mm"
 viewBox="0 0 280 32"
 xmlns="http://www.w3.org/2000/svg" xmlns:xlink="http://www.w3.org/1999/xlink" version="1.2" baseProfile="tiny">
<title>Abstract block</title>
<desc>block_hubs_all_motors_port_relative_position</desc>
<defs>
</defs>
<g fill="none" stroke="black" stroke-width="1" fill-rule="evenodd" stroke-linecap="square" stroke-linejoin="bevel" >

<g fill="none" stroke="#000000" stroke-opacity="1" stroke-width="1" stroke-linecap="square" stroke-linejoin="bevel" transform="matrix(1,0,0,1,0,0)"
font-family=".AppleSystemUIFont" font-size="13" font-weight="400" font-style="normal" 
>
</g>

<g fill="none" stroke="#000000" stroke-opacity="1" stroke-width="1" stroke-linecap="square" stroke-linejoin="bevel" transform="matrix(1,0,0,1,0,0)"
font-family=".AppleSystemUIFont" font-size="13" font-weight="400" font-style="normal" 
>
</g>

<g fill="#0090f5" fill-opacity="1" stroke="#0070ba" stroke-opacity="1" stroke-width="1.2" stroke-linecap="square" stroke-linejoin="bevel" transform="matrix(1,0,0,1,0,0)"
font-family=".AppleSystemUIFont" font-size="13" font-weight="400" font-style="normal" 
>
<path vector-effect="none" fill-rule="evenodd" d="M1,16 C1,7.71573 8.16344,1 17,1 L262.667,1 C271.503,1 278.667,7.71573 278.667,16 C278.667,24.2843 271.503,31 262.667,31 L17,31 C8.16344,31 1,24.2843 1,16 "/>
</g>

<g fill="#ffffff" fill-opacity="1" stroke="none" transform="matrix(1,0,0,1,0,0)"
font-family="Inter" font-size="11" font-weight="700" font-style="normal" 
>
<path vector-effect="none" fill-rule="nonzero" d="M181.07,19.0625 L181.07,13.0625 L182.684,13.0625 L182.684,14.1094 L182.746,14.1094 C182.855,13.737 183.039,13.4551 183.297,13.2637 C183.555,13.0723 183.852,12.9766 184.188,12.9766 C184.271,12.9766 184.361,12.9818 184.457,12.9922 C184.553,13.0026 184.638,13.0169 184.711,13.0352 L184.711,14.5117 C184.633,14.4883 184.525,14.4674 184.387,14.4492 C184.249,14.431 184.122,14.4219 184.008,14.4219 C183.763,14.4219 183.545,14.4746 183.354,14.5801 C183.162,14.6855 183.011,14.832 182.9,15.0195 C182.79,15.207 182.734,15.4232 182.734,15.668 L182.734,19.0625 L181.07,19.0625 M188.008,19.1797 C187.391,19.1797 186.86,19.054 186.416,18.8027 C185.972,18.5514 185.63,18.1947 185.391,17.7324 C185.151,17.2702 185.031,16.7227 185.031,16.0898 C185.031,15.4727 185.151,14.931 185.391,14.4648 C185.63,13.9987 185.968,13.6354 186.404,13.375 C186.84,13.1146 187.353,12.9844 187.941,12.9844 C188.337,12.9844 188.706,13.0475 189.049,13.1738 C189.391,13.3001 189.691,13.4896 189.947,13.7422 C190.204,13.9948 190.404,14.3118 190.547,14.6934 C190.69,15.0749 190.762,15.5208 190.762,16.0313 L190.762,16.4883 L185.695,16.4883 L185.695,15.457 L189.195,15.457 C189.195,15.2174 189.143,15.0052 189.039,14.8203 C188.935,14.6354 188.791,14.4902 188.607,14.3848 C188.424,14.2793 188.211,14.2266 187.969,14.2266 C187.716,14.2266 187.493,14.2845 187.299,14.4004 C187.105,14.5163 186.953,14.6712 186.844,14.8652 C186.734,15.0592 186.678,15.2747 186.676,15.5117 L186.676,16.4922 C186.676,16.7891 186.731,17.0456 186.842,17.2617 C186.952,17.4779 187.109,17.6445 187.313,17.7617 C187.516,17.8789 187.757,17.9375 188.035,17.9375 C188.22,17.9375 188.389,17.9115 188.543,17.8594 C188.697,17.8073 188.828,17.7292 188.938,17.625 C189.047,17.5208 189.13,17.3932 189.188,17.2422 L190.727,17.3438 C190.648,17.7135 190.489,18.0358 190.248,18.3105 C190.007,18.5853 189.697,18.7988 189.318,18.9512 C188.939,19.1035 188.503,19.1797 188.008,19.1797 M193.5,11.0625 L193.5,19.0625 L191.836,19.0625 L191.836,11.0625 L193.5,11.0625 M196.531,19.1758 C196.148,19.1758 195.807,19.1087 195.508,18.9746 C195.208,18.8405 194.972,18.6413 194.799,18.377 C194.626,18.1126 194.539,17.7826 194.539,17.3867 C194.539,17.0534 194.6,16.7734 194.723,16.5469 C194.845,16.3203 195.012,16.138 195.223,16 C195.434,15.862 195.674,15.7578 195.943,15.6875 C196.213,15.6172 196.496,15.5677 196.793,15.5391 C197.142,15.5026 197.423,15.4681 197.637,15.4355 C197.85,15.403 198.005,15.3542 198.102,15.2891 C198.198,15.224 198.246,15.1276 198.246,15 L198.246,14.9766 C198.246,14.7292 198.169,14.5378 198.014,14.4023 C197.859,14.2669 197.639,14.1992 197.355,14.1992 C197.056,14.1992 196.818,14.265 196.641,14.3965 C196.464,14.528 196.346,14.6927 196.289,14.8906 L194.75,14.7656 C194.828,14.401 194.982,14.0853 195.211,13.8184 C195.44,13.5514 195.736,13.3457 196.1,13.2012 C196.463,13.0566 196.884,12.9844 197.363,12.9844 C197.697,12.9844 198.016,13.0234 198.322,13.1016 C198.628,13.1797 198.9,13.3008 199.139,13.4648 C199.377,13.6289 199.565,13.8392 199.703,14.0957 C199.841,14.3522 199.91,14.6589 199.91,15.0156 L199.91,19.0625 L198.332,19.0625 L198.332,18.2305 L198.285,18.2305 C198.189,18.418 198.06,18.5827 197.898,18.7246 C197.737,18.8665 197.543,18.9772 197.316,19.0566 C197.09,19.1361 196.828,19.1758 196.531,19.1758 M197.008,18.0273 C197.253,18.0273 197.469,17.9785 197.656,17.8809 C197.844,17.7832 197.991,17.651 198.098,17.4844 C198.204,17.3177 198.258,17.1289 198.258,16.918 L198.258,16.2813 C198.206,16.3151 198.135,16.3457 198.045,16.373 C197.955,16.4004 197.854,16.4251 197.742,16.4473 C197.63,16.4694 197.518,16.4889 197.406,16.5059 C197.294,16.5228 197.193,16.5378 197.102,16.5508 C196.906,16.5794 196.736,16.625 196.59,16.6875 C196.444,16.75 196.331,16.834 196.25,16.9395 C196.169,17.0449 196.129,17.1758 196.129,17.332 C196.129,17.5586 196.212,17.7311 196.377,17.8496 C196.542,17.9681 196.753,18.0273 197.008,18.0273 M204.387,13.0625 L204.387,14.3125 L200.773,14.3125 L200.773,13.0625 L204.387,13.0625 M201.594,11.625 L203.258,11.625 L203.258,17.2188 C203.258,17.3724 203.281,17.4915 203.328,17.5762 C203.375,17.6608 203.441,17.7201 203.525,17.7539 C203.61,17.7878 203.708,17.8047 203.82,17.8047 C203.898,17.8047 203.977,17.7975 204.055,17.7832 C204.133,17.7689 204.193,17.7578 204.234,17.75 L204.496,18.9883 C204.413,19.0143 204.296,19.0449 204.145,19.0801 C203.993,19.1152 203.81,19.1367 203.594,19.1445 C203.193,19.1602 202.842,19.1068 202.541,18.9844 C202.24,18.862 202.007,18.6719 201.84,18.4141 C201.673,18.1563 201.591,17.8307 201.594,17.4375 L201.594,11.625 M205.461,19.0625 L205.461,13.0625 L207.125,13.0625 L207.125,19.0625 L205.461,19.0625 M206.297,12.2891 C206.049,12.2891 205.838,12.2064 205.662,12.041 C205.486,11.8757 205.398,11.6771 205.398,11.4453 C205.398,11.2161 205.486,11.0189 205.662,10.8535 C205.838,10.6882 206.049,10.6055 206.297,10.6055 C206.544,10.6055 206.756,10.6882 206.932,10.8535 C207.107,11.0189 207.195,11.2161 207.195,11.4453 C207.195,11.6771 207.107,11.8757 206.932,12.041 C206.756,12.2064 206.544,12.2891 206.297,12.2891 M214.039,13.0625 L211.941,19.0625 L210.066,19.0625 L207.969,13.0625 L209.727,13.0625 L210.973,17.3555 L211.035,17.3555 L212.277,13.0625 L214.039,13.0625 M217.414,19.1797 C216.797,19.1797 216.266,19.054 215.822,18.8027 C215.378,18.5514 215.036,18.1947 214.797,17.7324 C214.557,17.2702 214.438,16.7227 214.438,16.0898 C214.438,15.4727 214.557,14.931 214.797,14.4648 C215.036,13.9987 215.374,13.6354 215.811,13.375 C216.247,13.1146 216.759,12.9844 217.348,12.9844 C217.743,12.9844 218.113,13.0475 218.455,13.1738 C218.798,13.3001 219.097,13.4896 219.354,13.7422 C219.61,13.9948 219.81,14.3118 219.953,14.6934 C220.096,15.0749 220.168,15.5208 220.168,16.0313 L220.168,16.4883 L215.102,16.4883 L215.102,15.457 L218.602,15.457 C218.602,15.2174 218.549,15.0052 218.445,14.8203 C218.341,14.6354 218.197,14.4902 218.014,14.3848 C217.83,14.2793 217.617,14.2266 217.375,14.2266 C217.122,14.2266 216.899,14.2845 216.705,14.4004 C216.511,14.5163 216.359,14.6712 216.25,14.8652 C216.141,15.0592 216.085,15.2747 216.082,15.5117 L216.082,16.4922 C216.082,16.7891 216.137,17.0456 216.248,17.2617 C216.359,17.4779 216.516,17.6445 216.719,17.7617 C216.922,17.8789 217.163,17.9375 217.441,17.9375 C217.626,17.9375 217.796,17.9115 217.949,17.8594 C218.103,17.8073 218.234,17.7292 218.344,17.625 C218.453,17.5208 218.536,17.3932 218.594,17.2422 L220.133,17.3438 C220.055,17.7135 219.895,18.0358 219.654,18.3105 C219.413,18.5853 219.104,18.7988 218.725,18.9512 C218.346,19.1035 217.909,19.1797 217.414,19.1797 M223.789,21.3125 L223.789,13.0625 L225.43,13.0625 L225.43,14.0703 L225.504,14.0703 C225.577,13.9089 225.683,13.7441 225.822,13.5762 C225.962,13.4082 226.144,13.2676 226.369,13.1543 C226.594,13.041 226.875,12.9844 227.211,12.9844 C227.648,12.9844 228.052,13.0983 228.422,13.3262 C228.792,13.554 229.087,13.8965 229.309,14.3535 C229.53,14.8105 229.641,15.3828 229.641,16.0703 C229.641,16.7396 229.533,17.304 229.318,17.7637 C229.104,18.2233 228.812,18.571 228.443,18.8066 C228.075,19.0423 227.663,19.1602 227.207,19.1602 C226.884,19.1602 226.61,19.1068 226.385,19 C226.16,18.8932 225.975,18.7585 225.832,18.5957 C225.689,18.4329 225.579,18.2682 225.504,18.1016 L225.453,18.1016 L225.453,21.3125 L223.789,21.3125 M225.418,16.0625 C225.418,16.4193 225.467,16.7305 225.566,16.9961 C225.665,17.2617 225.809,17.4681 225.996,17.6152 C226.184,17.7624 226.411,17.8359 226.68,17.8359 C226.951,17.8359 227.18,17.7611 227.367,17.6113 C227.555,17.4616 227.697,17.2533 227.795,16.9863 C227.893,16.7194 227.941,16.4115 227.941,16.0625 C227.941,15.7161 227.893,15.4115 227.797,15.1484 C227.701,14.8854 227.559,14.6797 227.371,14.5313 C227.184,14.3828 226.953,14.3086 226.68,14.3086 C226.409,14.3086 226.18,14.3802 225.994,14.5234 C225.808,14.6667 225.665,14.8698 225.566,15.1328 C225.467,15.3958 225.418,15.7057 225.418,16.0625 M233.453,19.1797 C232.846,19.1797 232.322,19.0501 231.881,18.791 C231.439,18.5319 231.099,18.1699 230.859,17.7051 C230.62,17.2402 230.5,16.7005 230.5,16.0859 C230.5,15.4661 230.62,14.9238 230.859,14.459 C231.099,13.9941 231.439,13.6322 231.881,13.373 C232.322,13.1139 232.846,12.9844 233.453,12.9844 C234.06,12.9844 234.584,13.1139 235.025,13.373 C235.467,13.6322 235.807,13.9941 236.047,14.459 C236.286,14.9238 236.406,15.4661 236.406,16.0859 C236.406,16.7005 236.286,17.2402 236.047,17.7051 C235.807,18.1699 235.467,18.5319 235.025,18.791 C234.584,19.0501 234.06,19.1797 233.453,19.1797 M233.461,17.8906 C233.737,17.8906 233.967,17.8118 234.152,17.6543 C234.337,17.4967 234.477,17.2813 234.572,17.0078 C234.667,16.7344 234.715,16.4232 234.715,16.0742 C234.715,15.7253 234.667,15.4141 234.572,15.1406 C234.477,14.8672 234.337,14.651 234.152,14.4922 C233.967,14.3333 233.737,14.2539 233.461,14.2539 C233.182,14.2539 232.949,14.3333 232.76,14.4922 C232.571,14.651 232.429,14.8672 232.334,15.1406 C232.239,15.4141 232.191,15.7253 232.191,16.0742 C232.191,16.4232 232.239,16.7344 232.334,17.0078 C232.429,17.2813 232.571,17.4967 232.76,17.6543 C232.949,17.8118 233.182,17.8906 233.461,17.8906 M242.484,14.7734 L240.961,14.8672 C240.935,14.737 240.879,14.6191 240.793,14.5137 C240.707,14.4082 240.594,14.3236 240.455,14.2598 C240.316,14.196 240.15,14.1641 239.957,14.1641 C239.699,14.1641 239.482,14.2181 239.305,14.3262 C239.128,14.4342 239.039,14.5781 239.039,14.7578 C239.039,14.901 239.096,15.0221 239.211,15.1211 C239.326,15.2201 239.522,15.2995 239.801,15.3594 L240.887,15.5781 C241.47,15.6979 241.905,15.8906 242.191,16.1563 C242.478,16.4219 242.621,16.7708 242.621,17.2031 C242.621,17.5964 242.506,17.9414 242.275,18.2383 C242.045,18.5352 241.73,18.7663 241.33,18.9316 C240.93,19.097 240.47,19.1797 239.949,19.1797 C239.155,19.1797 238.523,19.0137 238.053,18.6816 C237.583,18.3496 237.307,17.8971 237.227,17.3242 L238.863,17.2383 C238.913,17.4805 239.033,17.6647 239.223,17.791 C239.413,17.9173 239.656,17.9805 239.953,17.9805 C240.245,17.9805 240.48,17.9238 240.658,17.8105 C240.837,17.6973 240.927,17.5508 240.93,17.3711 C240.927,17.2201 240.863,17.0957 240.738,16.998 C240.613,16.9004 240.421,16.8255 240.16,16.7734 L239.121,16.5664 C238.535,16.4492 238.1,16.2461 237.814,15.957 C237.529,15.668 237.387,15.2995 237.387,14.8516 C237.387,14.4661 237.492,14.1341 237.701,13.8555 C237.911,13.5768 238.206,13.362 238.588,13.2109 C238.969,13.0599 239.417,12.9844 239.93,12.9844 C240.688,12.9844 241.285,13.1445 241.721,13.4648 C242.157,13.7852 242.411,14.2214 242.484,14.7734 M243.664,19.0625 L243.664,13.0625 L245.328,13.0625 L245.328,19.0625 L243.664,19.0625 M244.5,12.2891 C244.253,12.2891 244.041,12.2064 243.865,12.041 C243.689,11.8757 243.602,11.6771 243.602,11.4453 C243.602,11.2161 243.689,11.0189 243.865,10.8535 C244.041,10.6882 244.253,10.6055 244.5,10.6055 C244.747,10.6055 244.959,10.6882 245.135,10.8535 C245.311,11.0189 245.398,11.2161 245.398,11.4453 C245.398,11.6771 245.311,11.8757 245.135,12.041 C244.959,12.2064 244.747,12.2891 244.5,12.2891 M249.84,13.0625 L249.84,14.3125 L246.227,14.3125 L246.227,13.0625 L249.84,13.0625 M247.047,11.625 L248.711,11.625 L248.711,17.2188 C248.711,17.3724 248.734,17.4915 248.781,17.5762 C248.828,17.6608 248.894,17.7201 248.979,17.7539 C249.063,17.7878 249.161,17.8047 249.273,17.8047 C249.352,17.8047 249.43,17.7975 249.508,17.7832 C249.586,17.7689 249.646,17.7578 249.688,17.75 L249.949,18.9883 C249.866,19.0143 249.749,19.0449 249.598,19.0801 C249.447,19.1152 249.263,19.1367 249.047,19.1445 C248.646,19.1602 248.295,19.1068 247.994,18.9844 C247.693,18.862 247.46,18.6719 247.293,18.4141 C247.126,18.1563 247.044,17.8307 247.047,17.4375 L247.047,11.625 M250.914,19.0625 L250.914,13.0625 L252.578,13.0625 L252.578,19.0625 L250.914,19.0625 M251.75,12.2891 C251.503,12.2891 251.291,12.2064 251.115,12.041 C250.939,11.8757 250.852,11.6771 250.852,11.4453 C250.852,11.2161 250.939,11.0189 251.115,10.8535 C251.291,10.6882 251.503,10.6055 251.75,10.6055 C251.997,10.6055 252.209,10.6882 252.385,10.8535 C252.561,11.0189 252.648,11.2161 252.648,11.4453 C252.648,11.6771 252.561,11.8757 252.385,12.041 C252.209,12.2064 251.997,12.2891 251.75,12.2891 M256.609,19.1797 C256.003,19.1797 255.479,19.0501 255.037,18.791 C254.596,18.5319 254.255,18.1699 254.016,17.7051 C253.776,17.2402 253.656,16.7005 253.656,16.0859 C253.656,15.4661 253.776,14.9238 254.016,14.459 C254.255,13.9941 254.596,13.6322 255.037,13.373 C255.479,13.1139 256.003,12.9844 256.609,12.9844 C257.216,12.9844 257.74,13.1139 258.182,13.373 C258.623,13.6322 258.964,13.9941 259.203,14.459 C259.443,14.9238 259.563,15.4661 259.563,16.0859 C259.563,16.7005 259.443,17.2402 259.203,17.7051 C258.964,18.1699 258.623,18.5319 258.182,18.791 C257.74,19.0501 257.216,19.1797 256.609,19.1797 M256.617,17.8906 C256.893,17.8906 257.124,17.8118 257.309,17.6543 C257.493,17.4967 257.633,17.2813 257.729,17.0078 C257.824,16.7344 257.871,16.4232 257.871,16.0742 C257.871,15.7253 257.824,15.4141 257.729,15.1406 C257.633,14.8672 257.493,14.651 257.309,14.4922 C257.124,14.3333 256.893,14.2539 256.617,14.2539 C256.339,14.2539 256.105,14.3333 255.916,14.4922 C255.727,14.651 255.585,14.8672 255.49,15.1406 C255.395,15.4141 255.348,15.7253 255.348,16.0742 C255.348,16.4232 255.395,16.7344 255.49,17.0078 C255.585,17.2813 255.727,17.4967 255.916,17.6543 C256.105,17.8118 256.339,17.8906 256.617,17.8906 M262.313,15.5938 L262.313,19.0625 L260.648,19.0625 L260.648,13.0625 L262.234,13.0625 L262.234,14.1211 L262.305,14.1211 C262.438,13.7721 262.66,13.4954 262.973,13.291 C263.285,13.0866 263.664,12.9844 264.109,12.9844 C264.526,12.9844 264.889,13.0755 265.199,13.2578 C265.509,13.4401 265.75,13.6999 265.922,14.0371 C266.094,14.3743 266.18,14.776 266.18,15.2422 L266.18,19.0625 L264.516,19.0625 L264.516,15.5391 C264.518,15.1719 264.424,14.8848 264.234,14.6777 C264.044,14.4707 263.783,14.3672 263.449,14.3672 C263.225,14.3672 263.028,14.4154 262.857,14.5117 C262.687,14.6081 262.554,14.748 262.459,14.9316 C262.364,15.1152 262.315,15.3359 262.313,15.5938 "/>
</g>

<g fill="#ffffff" fill-opacity="1" stroke="none" transform="matrix(0.0285,0,0,0.0285,11.2928,4.44754)"
font-family="Inter" font-size="11" font-weight="700" font-style="normal" 
>
<path vector-effect="none" fill-rule="nonzero" d="M410.778,59.991 C376.729,59.991 346.629,75.6235 326.182,99.684 C216.768,129.689 131.433,215.271 101.927,324.891 C79.5232,345.494 65.3275,374.762 65.54,407.6 C65.7463,439.573 79.3407,468.172 100.975,488.421 C130.228,601.34 218.744,689.335 331.859,718.096 C331.956,718.125 331.989,718.313 332.085,718.338 C352.242,738.376 380.064,750.708 410.778,750.708 C441.492,750.708 469.314,738.376 489.47,718.338 C489.549,718.262 489.618,718.17 489.696,718.096 C604.323,688.948 693.738,598.994 721.758,483.921 C742.939,463.42 756.216,434.907 756.015,403.1 C755.801,370.079 741.086,340.899 718.209,320.633 C687.622,213.077 603.338,129.291 495.373,99.684 C474.926,75.6235 444.827,59.991 410.778,59.991 M410.778,91.8938 C455.052,91.8938 490.89,127.731 490.89,172.006 C490.89,216.28 455.052,252.102 410.778,252.102 C366.503,252.102 330.666,216.28 330.666,172.006 C330.666,127.731 366.503,91.8938 410.778,91.8938 M177.071,325.601 C221.346,325.601 257.183,361.438 257.183,405.713 C257.183,449.987 221.346,485.808 177.071,485.808 C132.796,485.808 96.7332,449.987 96.7332,405.713 C96.7332,361.438 132.796,325.601 177.071,325.601 M644.485,325.601 C688.763,325.601 724.822,361.438 724.822,405.713 C724.822,449.987 688.763,485.808 644.485,485.808 C600.21,485.808 564.373,449.987 564.373,405.713 C564.373,361.438 600.21,325.601 644.485,325.601 M396.601,335.762 L424.955,335.762 C431.754,335.762 437.245,342.538 437.245,350.891 L437.245,381.6 L467.971,381.6 C476.323,381.6 483.083,387.091 483.083,393.89 L483.083,422.245 C483.083,429.044 476.323,434.535 467.971,434.535 L437.245,434.535 L437.245,465.26 C437.245,473.612 431.754,480.373 424.955,480.373 L396.601,480.373 C389.801,480.373 384.31,473.613 384.31,465.26 L384.31,434.535 L353.585,434.535 C345.233,434.535 338.472,429.044 338.472,422.245 L338.472,393.89 C338.472,387.091 345.232,381.6 353.585,381.6 L384.31,381.6 L384.31,350.891 C384.31,342.539 389.801,335.762 396.601,335.762 M410.778,559.307 C455.052,559.307 490.89,595.371 490.89,639.645 C490.89,683.918 455.052,719.757 410.778,719.757 C366.503,719.757 330.666,683.918 330.666,639.645 C330.666,595.371 366.503,559.307 410.778,559.307 "/>
</g>

<g fill="none" stroke="#000000" stroke-opacity="1" stroke-width="22.7975" stroke-linecap="round" stroke-linejoin="round" transform="matrix(0.0285,0,0,0.0285,11.2928,4.44754)"
font-family="Inter" font-size="11" font-weight="700" font-style="normal" 
>
<path vector-effect="none" fill-rule="nonzero" d="M410.778,59.991 C376.729,59.991 346.629,75.6235 326.182,99.684 C216.768,129.689 131.433,215.271 101.927,324.891 C79.5232,345.494 65.3275,374.762 65.54,407.6 C65.7463,439.573 79.3407,468.172 100.975,488.421 C130.228,601.34 218.744,689.335 331.859,718.096 C331.956,718.125 331.989,718.313 332.085,718.338 C352.242,738.376 380.064,750.708 410.778,750.708 C441.492,750.708 469.314,738.376 489.47,718.338 C489.549,718.262 489.618,718.17 489.696,718.096 C604.323,688.948 693.738,598.994 721.758,483.921 C742.939,463.42 756.216,434.907 756.015,403.1 C755.801,370.079 741.086,340.899 718.209,320.633 C687.622,213.077 603.338,129.291 495.373,99.684 C474.926,75.6235 444.827,59.991 410.778,59.991 M410.778,91.8938 C455.052,91.8938 490.89,127.731 490.89,172.006 C490.89,216.28 455.052,252.102 410.778,252.102 C366.503,252.102 330.666,216.28 330.666,172.006 C330.666,127.731 366.503,91.8938 410.778,91.8938 M177.071,325.601 C221.346,325.601 257.183,361.438 257.183,405.713 C257.183,449.987 221.346,485.808 177.071,485.808 C132.796,485.808 96.7332,449.987 96.7332,405.713 C96.7332,361.438 132.796,325.601 177.071,325.601 M644.485,325.601 C688.763,325.601 724.822,361.438 724.822,405.713 C724.822,449.987 688.763,485.808 644.485,485.808 C600.21,485.808 564.373,449.987 564.373,405.713 C564.373,361.438 600.21,325.601 644.485,325.601 M396.601,335.762 L424.955,335.762 C431.754,335.762 437.245,342.538 437.245,350.891 L437.245,381.6 L467.971,381.6 C476.323,381.6 483.083,387.091 483.083,393.89 L483.083,422.245 C483.083,429.044 476.323,434.535 467.971,434.535 L437.245,434.535 L437.245,465.26 C437.245,473.612 431.754,480.373 424.955,480.373 L396.601,480.373 C389.801,480.373 384.31,473.613 384.31,465.26 L384.31,434.535 L353.585,434.535 C345.233,434.535 338.472,429.044 338.472,422.245 L338.472,393.89 C338.472,387.091 345.232,381.6 353.585,381.6 L384.31,381.6 L384.31,350.891 C384.31,342.539 389.801,335.762 396.601,335.762 M410.778,559.307 C455.052,559.307 490.89,595.371 490.89,639.645 C490.89,683.918 455.052,719.757 410.778,719.757 C366.503,719.757 330.666,683.918 330.666,639.645 C330.666,595.371 366.503,559.307 410.778,559.307 "/>
</g>

<g fill="#000000" fill-opacity="1" stroke="none" transform="matrix(0.0285,0,0,0.0285,11.2928,4.44754)"
font-family="Inter" font-size="11" font-weight="700" font-style="normal" 
>
<path vector-effect="none" fill-rule="evenodd" d="M394.961,355.661 C394.961,347.613 401.485,341.088 409.533,341.088 C417.582,341.088 424.106,347.613 424.106,355.661 L424.106,457.48 C424.106,465.528 417.582,472.053 409.533,472.053 C401.485,472.053 394.961,465.528 394.961,457.48 L394.961,355.661"/>
</g>

<g fill="none" stroke="#000000" stroke-opacity="1" stroke-width="20" stroke-linecap="round" stroke-linejoin="round" transform="matrix(0.0285,0,0,0.0285,11.2928,4.44754)"
font-family="Inter" font-size="11" font-weight="700" font-style="normal" 
>
<path vector-effect="none" fill-rule="evenodd" d="M394.961,355.661 C394.961,347.613 401.485,341.088 409.533,341.088 C417.582,341.088 424.106,347.613 424.106,355.661 L424.106,457.48 C424.106,465.528 417.582,472.053 409.533,472.053 C401.485,472.053 394.961,465.528 394.961,457.48 L394.961,355.661"/>
</g>

<g fill="#000000" fill-opacity="1" stroke="none" transform="matrix(0,0.0285,-0.0285,0,11.2928,4.44754)"
font-family="Inter" font-size="11" font-weight="700" font-style="normal" 
>
<path vector-effect="none" fill-rule="evenodd" d="M394.152,-461.016 C394.152,-469.064 400.676,-475.588 408.724,-475.588 C416.773,-475.588 423.297,-469.064 423.297,-461.016 L423.297,-359.196 C423.297,-351.148 416.773,-344.624 408.724,-344.624 C400.676,-344.624 394.152,-351.148 394.152,-359.196 L394.152,-461.016"/>
</g>

<g fill="none" stroke="#000000" stroke-opacity="1" stroke-width="20" stroke-linecap="round" stroke-linejoin="round" transform="matrix(0,0.0285,-0.0285,0,11.2928,4.44754)"
font-family="Inter" font-size="11" font-weight="700" font-style="normal" 
>
<path vector-effect="none" fill-rule="evenodd" d="M394.152,-461.016 C394.152,-469.064 400.676,-475.588 408.724,-475.588 C416.773,-475.588 423.297,-469.064 423.297,-461.016 L423.297,-359.196 C423.297,-351.148 416.773,-344.624 408.724,-344.624 C400.676,-344.624 394.152,-351.148 394.152,-359.196 L394.152,-461.016"/>
</g>

<g fill="#ffffff" fill-opacity="1" stroke="none" transform="matrix(1,0,0,1,0,0)"
font-family="Inter" font-size="11" font-weight="700" font-style="normal" 
>
</g>

<g fill="#ffffff" fill-opacity="1" stroke="#0070ba" stroke-opacity="1" stroke-width="1" stroke-linecap="square" stroke-linejoin="bevel" transform="matrix(1,0,0,1,0,0)"
font-family="Inter" font-size="11" font-weight="700" font-style="normal" 
>
<polyline fill="none" vector-effect="none" points="45,6 45,26 " />
</g>

<g fill="#ffffff" fill-opacity="1" stroke="#0070ba" stroke-opacity="1" stroke-width="1" stroke-linecap="square" stroke-linejoin="bevel" transform="matrix(1,0,0,1,0,0)"
font-family="Inter" font-size="11" font-weight="700" font-style="normal" 
>
</g>

<g fill="#ffffff" fill-opacity="1" stroke="#0070ba" stroke-opacity="1" stroke-width="1" stroke-linecap="square" stroke-linejoin="bevel" transform="matrix(1,0,0,1,0,0)"
font-family="Inter" font-size="11" font-weight="700" font-style="normal" 
>
</g>

<g fill="#0090f5" fill-opacity="1" stroke="#0070ba" stroke-opacity="1" stroke-width="1.2" stroke-linecap="square" stroke-linejoin="bevel" transform="matrix(1,0,0,1,56,4)"
font-family="Inter" font-size="11" font-weight="700" font-style="normal" 
>
<path vector-effect="none" fill-rule="evenodd" d="M0.5,3.5 C0.5,1.84315 1.84315,0.5 3.5,0.5 L71.5,0.5 C73.1569,0.5 74.5,1.84315 74.5,3.5 L74.5,20.5 C74.5,22.1569 73.1569,23.5 71.5,23.5 L3.5,23.5 C1.84315,23.5 0.5,22.1569 0.5,20.5 L0.5,3.5"/>
</g>

<g fill="#ffffff" fill-opacity="1" stroke="none" transform="matrix(1,0,0,1,56,4)"
font-family="Inter" font-size="11" font-weight="700" font-style="normal" 
>
<path vector-effect="none" fill-rule="nonzero" d="M10,9.39453 L10,8 L16.5703,8 L16.5703,9.39453 L14.1211,9.39453 L14.1211,16 L12.4492,16 L12.4492,9.39453 L10,9.39453 M17.6484,16 L17.6484,8 L19.3398,8 L19.3398,11.3008 L22.7734,11.3008 L22.7734,8 L24.4609,8 L24.4609,16 L22.7734,16 L22.7734,12.6953 L19.3398,12.6953 L19.3398,16 L17.6484,16 M32.543,8 L32.543,16 L31.082,16 L27.6016,10.9648 L27.543,10.9648 L27.543,16 L25.8516,16 L25.8516,8 L27.3359,8 L30.7891,13.0313 L30.8594,13.0313 L30.8594,8 L32.543,8 M33.9297,16 L33.9297,8 L35.6211,8 L35.6211,11.3008 L39.0547,11.3008 L39.0547,8 L40.7422,8 L40.7422,16 L39.0547,16 L39.0547,12.6953 L35.6211,12.6953 L35.6211,16 L33.9297,16 M42.1328,16 L42.1328,8 L45.3359,8 C45.9245,8 46.4154,8.08724 46.8086,8.26172 C47.2018,8.4362 47.4974,8.67773 47.6953,8.98633 C47.8932,9.29492 47.9922,9.64974 47.9922,10.0508 C47.9922,10.3633 47.9297,10.6374 47.8047,10.873 C47.6797,11.1087 47.5085,11.3014 47.291,11.4512 C47.0736,11.6009 46.8255,11.707 46.5469,11.7695 L46.5469,11.8477 C46.8516,11.8607 47.1374,11.9466 47.4043,12.1055 C47.6712,12.2643 47.888,12.4863 48.0547,12.7715 C48.2214,13.0566 48.3047,13.3958 48.3047,13.7891 C48.3047,14.2135 48.1999,14.5918 47.9902,14.9238 C47.7806,15.2559 47.4714,15.5182 47.0625,15.7109 C46.6536,15.9036 46.1497,16 45.5508,16 L42.1328,16 M43.8242,14.6172 L45.2031,14.6172 C45.6745,14.6172 46.0182,14.5267 46.2344,14.3457 C46.4505,14.1647 46.5586,13.9232 46.5586,13.6211 C46.5586,13.3997 46.5052,13.2044 46.3984,13.0352 C46.2917,12.8659 46.14,12.7331 45.9434,12.6367 C45.7467,12.5404 45.513,12.4922 45.2422,12.4922 L43.8242,12.4922 L43.8242,14.6172 M43.8242,11.3477 L45.0781,11.3477 C45.3099,11.3477 45.5163,11.3066 45.6973,11.2246 C45.8783,11.1426 46.0215,11.026 46.127,10.875 C46.2324,10.724 46.2852,10.543 46.2852,10.332 C46.2852,10.043 46.1829,9.8099 45.9785,9.63281 C45.7741,9.45573 45.4844,9.36719 45.1094,9.36719 L43.8242,9.36719 L43.8242,11.3477 M52.832,8 L52.832,16 L51.1406,16 L51.1406,9.60547 L51.0938,9.60547 L49.2617,10.7539 L49.2617,9.25391 L51.2422,8 L52.832,8"/>
</g>

<g fill="#ffffff" fill-opacity="1" stroke="none" transform="matrix(0.03125,0,0,0.03125,117,12)"
font-family="Inter" font-size="11" font-weight="700" font-style="normal" 
>
<path vector-effect="none" fill-rule="nonzero" d="M111.326,191.938 C120.545,201.158 135.517,201.158 144.737,191.938 L239.144,97.5313 C245.929,90.7458 247.921,80.6413 244.233,71.7907 C240.545,62.9401 231.989,57.1871 222.401,57.1871 L33.5875,57.2608 C24.0731,57.2608 15.4437,63.0137 11.7559,71.8644 C8.06815,80.715 10.1333,90.8195 16.845,97.605 L111.252,192.012 L111.326,191.938"/>
</g>

<g fill="none" stroke="#000000" stroke-opacity="1" stroke-width="13.7195" stroke-linecap="butt" stroke-linejoin="miter" stroke-miterlimit="4" transform="matrix(0.03125,0,0,0.03125,117,12)"
font-family="Inter" font-size="11" font-weight="700" font-style="normal" 
>
<path vector-effect="none" fill-rule="nonzero" d="M111.326,191.938 C120.545,201.158 135.517,201.158 144.737,191.938 L239.144,97.5313 C245.929,90.7458 247.921,80.6413 244.233,71.7907 C240.545,62.9401 231.989,57.1871 222.401,57.1871 L33.5875,57.2608 C24.0731,57.2608 15.4437,63.0137 11.7559,71.8644 C8.06815,80.715 10.1333,90.8195 16.845,97.605 L111.252,192.012 L111.326,191.938"/>
</g>

<g fill="#ffffff" fill-opacity="1" stroke="none" transform="matrix(1,0,0,1,56,4)"
font-family="Inter" font-size="11" font-weight="700" font-style="normal" 
>
</g>

<g fill="#ffffff" fill-opacity="1" stroke="#0070ba" stroke-opacity="1" stroke-width="1" stroke-linecap="square" stroke-linejoin="bevel" transform="matrix(1,0,0,1,0,0)"
font-family="Inter" font-size="11" font-weight="700" font-style="normal" 
>
</g>

<g fill="#0070ba" fill-opacity="1" stroke="#0070ba" stroke-opacity="1" stroke-width="1.2" stroke-linecap="square" stroke-linejoin="bevel" transform="matrix(1,0,0,1,135,4)"
font-family="Inter" font-size="11" font-weight="700" font-style="normal" 
>
<path vector-effect="none" fill-rule="evenodd" d="M0.5,12 C0.5,5.64873 5.87258,0.5 12.5,0.5 L27.5,0.5 C34.1274,0.5 39.5,5.64873 39.5,12 C39.5,18.3513 34.1274,23.5 27.5,23.5 L12.5,23.5 C5.87258,23.5 0.5,18.3513 0.5,12 "/>
</g>

<g fill="#ffffff" fill-opacity="1" stroke="none" transform="matrix(1,0,0,1,135,4)"
font-family="Inter" font-size="11" font-weight="700" font-style="normal" 
>
<path vector-effect="none" fill-rule="nonzero" d="M11.8242,16 L10.0117,16 L12.7734,8 L14.9531,8 L17.7109,16 L15.8984,16 L13.8945,9.82813 L13.832,9.82813 L11.8242,16 M11.7109,12.8555 L15.9922,12.8555 L15.9922,14.1758 L11.7109,14.1758 L11.7109,12.8555"/>
</g>

<g fill="#ffffff" fill-opacity="1" stroke="none" transform="matrix(0.03125,0,0,0.03125,161,12)"
font-family="Inter" font-size="11" font-weight="700" font-style="normal" 
>
<path vector-effect="none" fill-rule="nonzero" d="M111.326,191.938 C120.545,201.158 135.517,201.158 144.737,191.938 L239.144,97.5313 C245.929,90.7458 247.921,80.6413 244.233,71.7907 C240.545,62.9401 231.989,57.1871 222.401,57.1871 L33.5875,57.2608 C24.0731,57.2608 15.4437,63.0137 11.7559,71.8644 C8.06815,80.715 10.1333,90.8195 16.845,97.605 L111.252,192.012 L111.326,191.938"/>
</g>

<g fill="none" stroke="#000000" stroke-opacity="1" stroke-width="13.7195" stroke-linecap="butt" stroke-linejoin="miter" stroke-miterlimit="4" transform="matrix(0.03125,0,0,0.03125,161,12)"
font-family="Inter" font-size="11" font-weight="700" font-style="normal" 
>
<path vector-effect="none" fill-rule="nonzero" d="M111.326,191.938 C120.545,201.158 135.517,201.158 144.737,191.938 L239.144,97.5313 C245.929,90.7458 247.921,80.6413 244.233,71.7907 C240.545,62.9401 231.989,57.1871 222.401,57.1871 L33.5875,57.2608 C24.0731,57.2608 15.4437,63.0137 11.7559,71.8644 C8.06815,80.715 10.1333,90.8195 16.845,97.605 L111.252,192.012 L111.326,191.938"/>
</g>

<g fill="#ffffff" fill-opacity="1" stroke="none" transform="matrix(1,0,0,1,135,4)"
font-family="Inter" font-size="11" font-weight="700" font-style="normal" 
>
</g>

<g fill="#ffffff" fill-opacity="1" stroke="#0070ba" stroke-opacity="1" stroke-width="1" stroke-linecap="square" stroke-linejoin="bevel" transform="matrix(1,0,0,1,0,0)"
font-family="Inter" font-size="11" font-weight="700" font-style="normal" 
>
</g>

<g fill="none" stroke="#000000" stroke-opacity="1" stroke-width="1" stroke-linecap="square" stroke-linejoin="bevel" transform="matrix(1,0,0,1,0,0)"
font-family=".AppleSystemUIFont" font-size="13" font-weight="400" font-style="normal" 
>
</g>
</g>
</svg>
