<?xml version="1.0" encoding="UTF-8" standalone="no"?>
<svg width="93.1333mm" height="15.5222mm"
 viewBox="0 0 264 44"
 xmlns="http://www.w3.org/2000/svg" xmlns:xlink="http://www.w3.org/1999/xlink" version="1.2" baseProfile="tiny">
<title>Abstract block</title>
<desc>block_dashboard_controller_all_set_interactivity</desc>
<defs>
</defs>
<g fill="none" stroke="black" stroke-width="1" fill-rule="evenodd" stroke-linecap="square" stroke-linejoin="bevel" >

<g fill="none" stroke="#000000" stroke-opacity="1" stroke-width="1" stroke-linecap="square" stroke-linejoin="bevel" transform="matrix(1,0,0,1,0,0)"
font-family=".AppleSystemUIFont" font-size="13" font-weight="400" font-style="normal" 
>
</g>

<g fill="none" stroke="#000000" stroke-opacity="1" stroke-width="1" stroke-linecap="square" stroke-linejoin="bevel" transform="matrix(1,0,0,1,0,0)"
font-family=".AppleSystemUIFont" font-size="13" font-weight="400" font-style="normal" 
>
</g>

<g fill="#009f94" fill-opacity="1" stroke="#00645c" stroke-opacity="1" stroke-width="1.2" stroke-linecap="square" stroke-linejoin="bevel" transform="matrix(1,0,0,1,0,0)"
font-family=".AppleSystemUIFont" font-size="13" font-weight="400" font-style="normal" 
>
<path vector-effect="none" fill-rule="evenodd" d="M0.5,4.5 L1.04612,2.48112 L2.48112,1.04612 L4.5,0.5 L9.625,0.5 L10.416,0.976563 L11.1719,1.6875 L11.998,2.67969 L13,4 L13.7559,4.66016 L14.5469,5.15625 L15.4082,5.51172 L16.375,5.75 L17.4824,5.89453 L18.7656,5.96875 L20.2598,5.99609 L22,6 L23.7402,5.99609 L25.2344,5.96875 L26.5176,5.89453 L27.625,5.75 L28.5918,5.51172 L29.4531,5.15625 L30.2441,4.66016 L31,4 L32.002,2.67969 L32.8281,1.6875 L33.584,0.976563 L34.375,0.5 L259,0.5 L261.019,1.04612 L262.454,2.48112 L263,4.5 L263,31.5 L262.454,33.5189 L261.019,34.9539 L259,35.5 L34.375,35.5 L33.584,35.9766 L32.8281,36.6875 L32.002,37.6797 L31,39 L30.2441,39.6602 L29.4531,40.1563 L28.5918,40.5117 L27.625,40.75 L26.5176,40.8945 L25.2344,40.9688 L23.7402,40.9961 L22,41 L20.2598,40.9961 L18.7656,40.9688 L17.4824,40.8945 L16.375,40.75 L15.4082,40.5117 L14.5469,40.1563 L13.7559,39.6602 L13,39 L11.998,37.6797 L11.1719,36.6875 L10.416,35.9766 L9.625,35.5 L4.5,35.5 L2.48112,34.9539 L1.04612,33.5189 L0.5,31.5 L0.5,4.5"/>
</g>

<g fill="#ffffff" fill-opacity="1" stroke="none" transform="matrix(1,0,0,1,0,0)"
font-family="Inter" font-size="11" font-weight="700" font-style="normal" 
>
<path vector-effect="none" fill-rule="nonzero" d="M186.836,21.0938 L186.836,15.0938 L188.5,15.0938 L188.5,21.0938 L186.836,21.0938 M187.672,14.3203 C187.424,14.3203 187.213,14.2376 187.037,14.0723 C186.861,13.9069 186.773,13.7083 186.773,13.4766 C186.773,13.2474 186.861,13.0501 187.037,12.8848 C187.213,12.7194 187.424,12.6367 187.672,12.6367 C187.919,12.6367 188.131,12.7194 188.307,12.8848 C188.482,13.0501 188.57,13.2474 188.57,13.4766 C188.57,13.7083 188.482,13.9069 188.307,14.0723 C188.131,14.2376 187.919,14.3203 187.672,14.3203 M191.484,17.625 L191.484,21.0938 L189.82,21.0938 L189.82,15.0938 L191.406,15.0938 L191.406,16.1523 L191.477,16.1523 C191.609,15.8034 191.832,15.5267 192.145,15.3223 C192.457,15.1178 192.836,15.0156 193.281,15.0156 C193.698,15.0156 194.061,15.1068 194.371,15.2891 C194.681,15.4714 194.922,15.7311 195.094,16.0684 C195.266,16.4056 195.352,16.8073 195.352,17.2734 L195.352,21.0938 L193.688,21.0938 L193.688,17.5703 C193.69,17.2031 193.596,16.916 193.406,16.709 C193.216,16.502 192.954,16.3984 192.621,16.3984 C192.397,16.3984 192.2,16.4466 192.029,16.543 C191.859,16.6393 191.726,16.7793 191.631,16.9629 C191.536,17.1465 191.487,17.3672 191.484,17.625 M199.84,15.0938 L199.84,16.3438 L196.227,16.3438 L196.227,15.0938 L199.84,15.0938 M197.047,13.6563 L198.711,13.6563 L198.711,19.25 C198.711,19.4036 198.734,19.5228 198.781,19.6074 C198.828,19.6921 198.894,19.7513 198.979,19.7852 C199.063,19.819 199.161,19.8359 199.273,19.8359 C199.352,19.8359 199.43,19.8288 199.508,19.8145 C199.586,19.8001 199.646,19.7891 199.688,19.7813 L199.949,21.0195 C199.866,21.0456 199.749,21.0762 199.598,21.1113 C199.447,21.1465 199.263,21.168 199.047,21.1758 C198.646,21.1914 198.295,21.138 197.994,21.0156 C197.693,20.8932 197.46,20.7031 197.293,20.4453 C197.126,20.1875 197.044,19.862 197.047,19.4688 L197.047,13.6563 M203.586,21.2109 C202.969,21.2109 202.438,21.0853 201.994,20.834 C201.55,20.5827 201.208,20.2259 200.969,19.7637 C200.729,19.3014 200.609,18.7539 200.609,18.1211 C200.609,17.5039 200.729,16.9622 200.969,16.4961 C201.208,16.0299 201.546,15.6667 201.982,15.4063 C202.419,15.1458 202.931,15.0156 203.52,15.0156 C203.915,15.0156 204.285,15.0788 204.627,15.2051 C204.969,15.3314 205.269,15.5208 205.525,15.7734 C205.782,16.026 205.982,16.3431 206.125,16.7246 C206.268,17.1061 206.34,17.5521 206.34,18.0625 L206.34,18.5195 L201.273,18.5195 L201.273,17.4883 L204.773,17.4883 C204.773,17.2487 204.721,17.0365 204.617,16.8516 C204.513,16.6667 204.369,16.5215 204.186,16.416 C204.002,16.3105 203.789,16.2578 203.547,16.2578 C203.294,16.2578 203.071,16.3158 202.877,16.4316 C202.683,16.5475 202.531,16.7025 202.422,16.8965 C202.313,17.0905 202.257,17.306 202.254,17.543 L202.254,18.5234 C202.254,18.8203 202.309,19.0768 202.42,19.293 C202.531,19.5091 202.688,19.6758 202.891,19.793 C203.094,19.9102 203.335,19.9688 203.613,19.9688 C203.798,19.9688 203.967,19.9427 204.121,19.8906 C204.275,19.8385 204.406,19.7604 204.516,19.6563 C204.625,19.5521 204.708,19.4245 204.766,19.2734 L206.305,19.375 C206.227,19.7448 206.067,20.0671 205.826,20.3418 C205.585,20.6165 205.275,20.8301 204.896,20.9824 C204.518,21.1348 204.081,21.2109 203.586,21.2109 M207.414,21.0938 L207.414,15.0938 L209.027,15.0938 L209.027,16.1406 L209.09,16.1406 C209.199,15.7682 209.383,15.4863 209.641,15.2949 C209.898,15.1035 210.195,15.0078 210.531,15.0078 C210.615,15.0078 210.704,15.013 210.801,15.0234 C210.897,15.0339 210.982,15.0482 211.055,15.0664 L211.055,16.543 C210.977,16.5195 210.868,16.4987 210.73,16.4805 C210.592,16.4622 210.466,16.4531 210.352,16.4531 C210.107,16.4531 209.889,16.5059 209.697,16.6113 C209.506,16.7168 209.355,16.8633 209.244,17.0508 C209.133,17.2383 209.078,17.4544 209.078,17.6992 L209.078,21.0938 L207.414,21.0938 M213.438,21.207 C213.055,21.207 212.714,21.14 212.414,21.0059 C212.115,20.8717 211.878,20.6725 211.705,20.4082 C211.532,20.1439 211.445,19.8138 211.445,19.418 C211.445,19.0846 211.507,18.8047 211.629,18.5781 C211.751,18.3516 211.918,18.1693 212.129,18.0313 C212.34,17.8932 212.58,17.7891 212.85,17.7188 C213.119,17.6484 213.402,17.599 213.699,17.5703 C214.048,17.5339 214.329,17.4993 214.543,17.4668 C214.757,17.4342 214.911,17.3854 215.008,17.3203 C215.104,17.2552 215.152,17.1589 215.152,17.0313 L215.152,17.0078 C215.152,16.7604 215.075,16.569 214.92,16.4336 C214.765,16.2982 214.546,16.2305 214.262,16.2305 C213.962,16.2305 213.724,16.2962 213.547,16.4277 C213.37,16.5592 213.253,16.724 213.195,16.9219 L211.656,16.7969 C211.734,16.4323 211.888,16.1165 212.117,15.8496 C212.346,15.5827 212.643,15.377 213.006,15.2324 C213.369,15.0879 213.79,15.0156 214.27,15.0156 C214.603,15.0156 214.923,15.0547 215.229,15.1328 C215.535,15.2109 215.807,15.332 216.045,15.4961 C216.283,15.6602 216.471,15.8704 216.609,16.127 C216.747,16.3835 216.816,16.6901 216.816,17.0469 L216.816,21.0938 L215.238,21.0938 L215.238,20.2617 L215.191,20.2617 C215.095,20.4492 214.966,20.6139 214.805,20.7559 C214.643,20.8978 214.449,21.0085 214.223,21.0879 C213.996,21.1673 213.734,21.207 213.438,21.207 M213.914,20.0586 C214.159,20.0586 214.375,20.0098 214.563,19.9121 C214.75,19.8145 214.897,19.6823 215.004,19.5156 C215.111,19.349 215.164,19.1602 215.164,18.9492 L215.164,18.3125 C215.112,18.3464 215.041,18.377 214.951,18.4043 C214.861,18.4316 214.76,18.4564 214.648,18.4785 C214.536,18.5007 214.424,18.5202 214.313,18.5371 C214.201,18.554 214.099,18.569 214.008,18.582 C213.813,18.6107 213.642,18.6563 213.496,18.7188 C213.35,18.7813 213.237,18.8652 213.156,18.9707 C213.076,19.0762 213.035,19.207 213.035,19.3633 C213.035,19.5898 213.118,19.7624 213.283,19.8809 C213.449,19.9993 213.659,20.0586 213.914,20.0586 M220.813,21.2109 C220.198,21.2109 219.67,21.0801 219.229,20.8184 C218.787,20.5566 218.449,20.1927 218.213,19.7266 C217.977,19.2604 217.859,18.724 217.859,18.1172 C217.859,17.5026 217.979,16.9629 218.217,16.498 C218.455,16.0332 218.794,15.6699 219.234,15.4082 C219.674,15.1465 220.198,15.0156 220.805,15.0156 C221.328,15.0156 221.786,15.1107 222.18,15.3008 C222.573,15.4909 222.884,15.7578 223.113,16.1016 C223.342,16.4453 223.469,16.849 223.492,17.3125 L221.922,17.3125 C221.878,17.013 221.761,16.7715 221.572,16.5879 C221.383,16.4043 221.137,16.3125 220.832,16.3125 C220.574,16.3125 220.35,16.3822 220.158,16.5215 C219.967,16.6608 219.818,16.8633 219.711,17.1289 C219.604,17.3945 219.551,17.7161 219.551,18.0938 C219.551,18.4766 219.604,18.8021 219.709,19.0703 C219.814,19.3385 219.964,19.543 220.156,19.6836 C220.349,19.8242 220.574,19.8945 220.832,19.8945 C221.022,19.8945 221.193,19.8555 221.346,19.7773 C221.498,19.6992 221.624,19.5853 221.725,19.4355 C221.825,19.2858 221.891,19.1055 221.922,18.8945 L223.492,18.8945 C223.466,19.3529 223.342,19.7559 223.119,20.1035 C222.896,20.4512 222.59,20.7227 222.199,20.918 C221.809,21.1133 221.346,21.2109 220.813,21.2109 M227.746,15.0938 L227.746,16.3438 L224.133,16.3438 L224.133,15.0938 L227.746,15.0938 M224.953,13.6563 L226.617,13.6563 L226.617,19.25 C226.617,19.4036 226.641,19.5228 226.688,19.6074 C226.734,19.6921 226.8,19.7513 226.885,19.7852 C226.969,19.819 227.068,19.8359 227.18,19.8359 C227.258,19.8359 227.336,19.8288 227.414,19.8145 C227.492,19.8001 227.552,19.7891 227.594,19.7813 L227.855,21.0195 C227.772,21.0456 227.655,21.0762 227.504,21.1113 C227.353,21.1465 227.169,21.168 226.953,21.1758 C226.552,21.1914 226.201,21.138 225.9,21.0156 C225.6,20.8932 225.366,20.7031 225.199,20.4453 C225.033,20.1875 224.951,19.862 224.953,19.4688 L224.953,13.6563 M228.82,21.0938 L228.82,15.0938 L230.484,15.0938 L230.484,21.0938 L228.82,21.0938 M229.656,14.3203 C229.409,14.3203 229.197,14.2376 229.021,14.0723 C228.846,13.9069 228.758,13.7083 228.758,13.4766 C228.758,13.2474 228.846,13.0501 229.021,12.8848 C229.197,12.7194 229.409,12.6367 229.656,12.6367 C229.904,12.6367 230.115,12.7194 230.291,12.8848 C230.467,13.0501 230.555,13.2474 230.555,13.4766 C230.555,13.7083 230.467,13.9069 230.291,14.0723 C230.115,14.2376 229.904,14.3203 229.656,14.3203 M237.398,15.0938 L235.301,21.0938 L233.426,21.0938 L231.328,15.0938 L233.086,15.0938 L234.332,19.3867 L234.395,19.3867 L235.637,15.0938 L237.398,15.0938 M238.242,21.0938 L238.242,15.0938 L239.906,15.0938 L239.906,21.0938 L238.242,21.0938 M239.078,14.3203 C238.831,14.3203 238.619,14.2376 238.443,14.0723 C238.268,13.9069 238.18,13.7083 238.18,13.4766 C238.18,13.2474 238.268,13.0501 238.443,12.8848 C238.619,12.7194 238.831,12.6367 239.078,12.6367 C239.326,12.6367 239.537,12.7194 239.713,12.8848 C239.889,13.0501 239.977,13.2474 239.977,13.4766 C239.977,13.7083 239.889,13.9069 239.713,14.0723 C239.537,14.2376 239.326,14.3203 239.078,14.3203 M244.418,15.0938 L244.418,16.3438 L240.805,16.3438 L240.805,15.0938 L244.418,15.0938 M241.625,13.6563 L243.289,13.6563 L243.289,19.25 C243.289,19.4036 243.313,19.5228 243.359,19.6074 C243.406,19.6921 243.472,19.7513 243.557,19.7852 C243.641,19.819 243.74,19.8359 243.852,19.8359 C243.93,19.8359 244.008,19.8288 244.086,19.8145 C244.164,19.8001 244.224,19.7891 244.266,19.7813 L244.527,21.0195 C244.444,21.0456 244.327,21.0762 244.176,21.1113 C244.025,21.1465 243.841,21.168 243.625,21.1758 C243.224,21.1914 242.873,21.138 242.572,21.0156 C242.271,20.8932 242.038,20.7031 241.871,20.4453 C241.704,20.1875 241.622,19.862 241.625,19.4688 L241.625,13.6563 M246.52,23.3438 C246.309,23.3438 246.111,23.3275 245.928,23.2949 C245.744,23.2624 245.592,23.2214 245.473,23.1719 L245.848,21.9297 C246.043,21.9896 246.219,22.0221 246.377,22.0273 C246.535,22.0326 246.671,21.9961 246.787,21.918 C246.903,21.8398 246.997,21.707 247.07,21.5195 L247.168,21.2656 L245.016,15.0938 L246.766,15.0938 L248.008,19.5 L248.07,19.5 L249.324,15.0938 L251.086,15.0938 L248.754,21.7422 C248.642,22.0651 248.49,22.347 248.299,22.5879 C248.107,22.8288 247.866,23.015 247.574,23.1465 C247.283,23.278 246.931,23.3438 246.52,23.3438 "/>
</g>

<g fill="#ffffff" fill-opacity="1" stroke="none" transform="matrix(0.95,0,0,0.95,11.6,9.6)"
font-family="Inter" font-size="11" font-weight="700" font-style="normal" 
>
<path vector-effect="none" fill-rule="nonzero" d="M2.19896,4.65234 C1.18891,4.65234 0.375703,5.46549 0.375703,6.47555 L0.375703,8.579 C1.00152,8.60331 1.67842,9.11362 1.67842,9.74561 L1.67842,14.2544 C1.67842,14.8864 1.00152,15.3967 0.375703,15.421 L0.375703,17.5245 C0.375703,18.5345 1.18891,19.3477 2.19896,19.3477 L21.8479,19.3477 C22.858,19.3477 23.6711,18.5345 23.6711,17.5245 L23.6711,6.47555 C23.6711,5.46549 22.858,4.65234 21.8479,4.65234 L2.19896,4.65234 M6.71936,9.23098 C8.56166,9.23097 10.0552,10.7245 10.0552,12.5668 C10.0552,14.4091 8.56167,15.9026 6.71936,15.9026 C4.87705,15.9026 3.38355,14.4091 3.38355,12.5668 C3.38355,10.7245 4.87705,9.23097 6.71936,9.23098 M19.875,9.24873 C20.7082,9.24871 21.3837,9.92418 21.3837,10.7574 C21.3837,11.5906 20.7082,12.266 19.875,12.266 C19.0418,12.266 18.3664,11.5906 18.3664,10.7574 C18.3664,9.9242 19.0418,9.24874 19.875,9.24873 M17.4318,12.8825 C18.265,12.8825 18.9404,13.558 18.9404,14.3912 C18.9404,15.2243 18.2649,15.8998 17.4318,15.8998 C16.5986,15.8998 15.9231,15.2244 15.9231,14.3912 C15.9231,13.5579 16.5985,12.8825 17.4318,12.8825 "/>
</g>

<g fill="none" stroke="#000000" stroke-opacity="1" stroke-width="0.54" stroke-linecap="butt" stroke-linejoin="miter" stroke-miterlimit="4" transform="matrix(0.95,0,0,0.95,11.6,9.6)"
font-family="Inter" font-size="11" font-weight="700" font-style="normal" 
>
<path vector-effect="none" fill-rule="nonzero" d="M2.19896,4.65234 C1.18891,4.65234 0.375703,5.46549 0.375703,6.47555 L0.375703,8.579 C1.00152,8.60331 1.67842,9.11362 1.67842,9.74561 L1.67842,14.2544 C1.67842,14.8864 1.00152,15.3967 0.375703,15.421 L0.375703,17.5245 C0.375703,18.5345 1.18891,19.3477 2.19896,19.3477 L21.8479,19.3477 C22.858,19.3477 23.6711,18.5345 23.6711,17.5245 L23.6711,6.47555 C23.6711,5.46549 22.858,4.65234 21.8479,4.65234 L2.19896,4.65234 M6.71936,9.23098 C8.56166,9.23097 10.0552,10.7245 10.0552,12.5668 C10.0552,14.4091 8.56167,15.9026 6.71936,15.9026 C4.87705,15.9026 3.38355,14.4091 3.38355,12.5668 C3.38355,10.7245 4.87705,9.23097 6.71936,9.23098 M19.875,9.24873 C20.7082,9.24871 21.3837,9.92418 21.3837,10.7574 C21.3837,11.5906 20.7082,12.266 19.875,12.266 C19.0418,12.266 18.3664,11.5906 18.3664,10.7574 C18.3664,9.9242 19.0418,9.24874 19.875,9.24873 M17.4318,12.8825 C18.265,12.8825 18.9404,13.558 18.9404,14.3912 C18.9404,15.2243 18.2649,15.8998 17.4318,15.8998 C16.5986,15.8998 15.9231,15.2244 15.9231,14.3912 C15.9231,13.5579 16.5985,12.8825 17.4318,12.8825 "/>
</g>

<g fill="#000000" fill-opacity="1" stroke="none" transform="matrix(0.95,0,0,0.95,11.6,9.6)"
font-family="Inter" font-size="11" font-weight="700" font-style="normal" 
>
<path vector-effect="none" fill-rule="nonzero" d="M0.108328,15.3227 L0.103298,8.65983 L1.21825,8.7259 L1.75102,9.37791 L1.70662,12.9064 L1.66222,14.5556 L1.04066,15.0542 L0.108328,15.3227"/>
</g>

<g fill="#000000" fill-opacity="1" stroke="none" transform="matrix(0.95,0,0,0.95,11.6,9.6)"
font-family="Inter" font-size="11" font-weight="700" font-style="normal" 
>
<circle cx="6.70111" cy="12.5452" r="1.68266"/>
</g>

<g fill="none" stroke="#000000" stroke-opacity="1" stroke-width="0.54" stroke-linecap="butt" stroke-linejoin="miter" stroke-miterlimit="4" transform="matrix(0.95,0,0,0.95,11.6,9.6)"
font-family="Inter" font-size="11" font-weight="700" font-style="normal" 
>
<circle cx="6.70111" cy="12.5452" r="1.68266"/>
</g>

<g fill="#000000" fill-opacity="1" stroke="none" transform="matrix(0.95,0,0,0.95,11.6,9.6)"
font-family="Inter" font-size="11" font-weight="700" font-style="normal" 
opacity="0.858824" >
<path vector-effect="none" fill-rule="evenodd" d="M8.42109,18.1373 C8.42109,18.0846 8.46385,18.0418 8.51661,18.0418 L15.4834,18.0418 C15.5361,18.0418 15.5789,18.0846 15.5789,18.1373 L15.5789,18.1373 C15.5789,18.1901 15.5361,18.2329 15.4834,18.2329 L8.51661,18.2329 C8.46385,18.2329 8.42109,18.1901 8.42109,18.1373 L8.42109,18.1373"/>
</g>

<g fill="none" stroke="#000000" stroke-opacity="1" stroke-width="0.437534" stroke-linecap="butt" stroke-linejoin="miter" stroke-miterlimit="4" transform="matrix(0.95,0,0,0.95,11.6,9.6)"
font-family="Inter" font-size="11" font-weight="700" font-style="normal" 
>
<path vector-effect="none" fill-rule="evenodd" d="M8.42109,18.1373 C8.42109,18.0846 8.46385,18.0418 8.51661,18.0418 L15.4834,18.0418 C15.5361,18.0418 15.5789,18.0846 15.5789,18.1373 L15.5789,18.1373 C15.5789,18.1901 15.5361,18.2329 15.4834,18.2329 L8.51661,18.2329 C8.46385,18.2329 8.42109,18.1901 8.42109,18.1373 L8.42109,18.1373"/>
</g>

<g fill="#ffffff" fill-opacity="1" stroke="none" transform="matrix(1,0,0,1,0,0)"
font-family="Inter" font-size="11" font-weight="700" font-style="normal" 
>
</g>

<g fill="#ffffff" fill-opacity="1" stroke="#00645c" stroke-opacity="1" stroke-width="1" stroke-linecap="square" stroke-linejoin="bevel" transform="matrix(1,0,0,1,0,0)"
font-family="Inter" font-size="11" font-weight="700" font-style="normal" 
>
<polyline fill="none" vector-effect="none" points="45,11 45,31 " />
</g>

<g fill="#009f94" fill-opacity="1" stroke="#00645c" stroke-opacity="1" stroke-width="1.2" stroke-linecap="square" stroke-linejoin="bevel" transform="matrix(1,0,0,1,122,6)"
font-family="Inter" font-size="11" font-weight="700" font-style="normal" 
>
<path vector-effect="none" fill-rule="evenodd" d="M0.5,3.5 C0.5,1.84315 1.84315,0.5 3.5,0.5 L55.5,0.5 C57.1569,0.5 58.5,1.84315 58.5,3.5 L58.5,20.5 C58.5,22.1569 57.1569,23.5 55.5,23.5 L3.5,23.5 C1.84315,23.5 0.5,22.1569 0.5,20.5 L0.5,3.5"/>
</g>

<g fill="#ffffff" fill-opacity="1" stroke="none" transform="matrix(1,0,0,1,122,6)"
font-family="Inter" font-size="11" font-weight="700" font-style="normal" 
>
<path vector-effect="none" fill-rule="nonzero" d="M10.0078,16 L10.0078,8 L13.2109,8 C13.7995,8 14.2904,8.08724 14.6836,8.26172 C15.0768,8.4362 15.3724,8.67773 15.5703,8.98633 C15.7682,9.29492 15.8672,9.64974 15.8672,10.0508 C15.8672,10.3633 15.8047,10.6374 15.6797,10.873 C15.5547,11.1087 15.3835,11.3014 15.166,11.4512 C14.9486,11.6009 14.7005,11.707 14.4219,11.7695 L14.4219,11.8477 C14.7266,11.8607 15.0124,11.9466 15.2793,12.1055 C15.5462,12.2643 15.763,12.4863 15.9297,12.7715 C16.0964,13.0566 16.1797,13.3958 16.1797,13.7891 C16.1797,14.2135 16.0749,14.5918 15.8652,14.9238 C15.6556,15.2559 15.3464,15.5182 14.9375,15.7109 C14.5286,15.9036 14.0247,16 13.4258,16 L10.0078,16 M11.6992,14.6172 L13.0781,14.6172 C13.5495,14.6172 13.8932,14.5267 14.1094,14.3457 C14.3255,14.1647 14.4336,13.9232 14.4336,13.6211 C14.4336,13.3997 14.3802,13.2044 14.2734,13.0352 C14.1667,12.8659 14.015,12.7331 13.8184,12.6367 C13.6217,12.5404 13.388,12.4922 13.1172,12.4922 L11.6992,12.4922 L11.6992,14.6172 M11.6992,11.3477 L12.9531,11.3477 C13.1849,11.3477 13.3913,11.3066 13.5723,11.2246 C13.7533,11.1426 13.8965,11.026 14.002,10.875 C14.1074,10.724 14.1602,10.543 14.1602,10.332 C14.1602,10.043 14.0579,9.8099 13.8535,9.63281 C13.6491,9.45573 13.3594,9.36719 12.9844,9.36719 L11.6992,9.36719 L11.6992,11.3477 M16.9688,9.39453 L16.9688,8 L23.5391,8 L23.5391,9.39453 L21.0898,9.39453 L21.0898,16 L19.418,16 L19.418,9.39453 L16.9688,9.39453 M31.3086,8 L31.3086,16 L29.8477,16 L26.3672,10.9648 L26.3086,10.9648 L26.3086,16 L24.6172,16 L24.6172,8 L26.1016,8 L29.5547,13.0313 L29.625,13.0313 L29.625,8 L31.3086,8 M36.1289,8 L36.1289,16 L34.4375,16 L34.4375,9.60547 L34.3906,9.60547 L32.5586,10.7539 L32.5586,9.25391 L34.5391,8 L36.1289,8"/>
</g>

<g fill="#ffffff" fill-opacity="1" stroke="none" transform="matrix(0.03125,0,0,0.03125,167,14)"
font-family="Inter" font-size="11" font-weight="700" font-style="normal" 
>
<path vector-effect="none" fill-rule="nonzero" d="M111.326,191.938 C120.545,201.158 135.517,201.158 144.737,191.938 L239.144,97.5313 C245.929,90.7458 247.921,80.6413 244.233,71.7907 C240.545,62.9401 231.989,57.1871 222.401,57.1871 L33.5875,57.2608 C24.0731,57.2608 15.4437,63.0137 11.7559,71.8644 C8.06815,80.715 10.1333,90.8195 16.845,97.605 L111.252,192.012 L111.326,191.938"/>
</g>

<g fill="none" stroke="#000000" stroke-opacity="1" stroke-width="13.7195" stroke-linecap="butt" stroke-linejoin="miter" stroke-miterlimit="4" transform="matrix(0.03125,0,0,0.03125,167,14)"
font-family="Inter" font-size="11" font-weight="700" font-style="normal" 
>
<path vector-effect="none" fill-rule="nonzero" d="M111.326,191.938 C120.545,201.158 135.517,201.158 144.737,191.938 L239.144,97.5313 C245.929,90.7458 247.921,80.6413 244.233,71.7907 C240.545,62.9401 231.989,57.1871 222.401,57.1871 L33.5875,57.2608 C24.0731,57.2608 15.4437,63.0137 11.7559,71.8644 C8.06815,80.715 10.1333,90.8195 16.845,97.605 L111.252,192.012 L111.326,191.938"/>
</g>

<g fill="#ffffff" fill-opacity="1" stroke="none" transform="matrix(1,0,0,1,122,6)"
font-family="Inter" font-size="11" font-weight="700" font-style="normal" 
>
</g>

<g fill="#ffffff" fill-opacity="1" stroke="#00645c" stroke-opacity="1" stroke-width="1" stroke-linecap="square" stroke-linejoin="bevel" transform="matrix(1,0,0,1,0,0)"
font-family="Inter" font-size="11" font-weight="700" font-style="normal" 
>
</g>

<g fill="#009f94" fill-opacity="1" stroke="#00645c" stroke-opacity="1" stroke-width="1.2" stroke-linecap="square" stroke-linejoin="bevel" transform="matrix(1,0,0,1,50,6)"
font-family="Inter" font-size="11" font-weight="700" font-style="normal" 
>
<path vector-effect="none" fill-rule="evenodd" d="M0.5,3.5 C0.5,1.84315 1.84315,0.5 3.5,0.5 L64.5,0.5 C66.1569,0.5 67.5,1.84315 67.5,3.5 L67.5,20.5 C67.5,22.1569 66.1569,23.5 64.5,23.5 L3.5,23.5 C1.84315,23.5 0.5,22.1569 0.5,20.5 L0.5,3.5"/>
</g>

<g fill="#ffffff" fill-opacity="1" stroke="none" transform="matrix(1,0,0,1,50,6)"
font-family="Inter" font-size="11" font-weight="700" font-style="normal" 
>
<path vector-effect="none" fill-rule="nonzero" d="M12.9766,16.0234 C12.3594,16.0234 11.8288,15.8978 11.3848,15.6465 C10.9408,15.3952 10.599,15.0384 10.3594,14.5762 C10.1198,14.1139 10,13.5664 10,12.9336 C10,12.3164 10.1198,11.7747 10.3594,11.3086 C10.599,10.8424 10.9368,10.4792 11.373,10.2188 C11.8092,9.95833 12.3216,9.82813 12.9102,9.82813 C13.306,9.82813 13.6751,9.89128 14.0176,10.0176 C14.36,10.1439 14.6595,10.3333 14.916,10.5859 C15.1725,10.8385 15.3724,11.1556 15.5156,11.5371 C15.6589,11.9186 15.7305,12.3646 15.7305,12.875 L15.7305,13.332 L10.6641,13.332 L10.6641,12.3008 L14.1641,12.3008 C14.1641,12.0612 14.112,11.849 14.0078,11.6641 C13.9036,11.4792 13.7598,11.334 13.5762,11.2285 C13.3926,11.123 13.1797,11.0703 12.9375,11.0703 C12.6849,11.0703 12.4616,11.1283 12.2676,11.2441 C12.0736,11.36 11.9219,11.515 11.8125,11.709 C11.7031,11.903 11.6471,12.1185 11.6445,12.3555 L11.6445,13.3359 C11.6445,13.6328 11.6999,13.8893 11.8105,14.1055 C11.9212,14.3216 12.0781,14.4883 12.2813,14.6055 C12.4844,14.7227 12.7253,14.7813 13.0039,14.7813 C13.1888,14.7813 13.3581,14.7552 13.5117,14.7031 C13.6654,14.651 13.7969,14.5729 13.9063,14.4688 C14.0156,14.3646 14.099,14.237 14.1563,14.0859 L15.6953,14.1875 C15.6172,14.5573 15.4577,14.8796 15.2168,15.1543 C14.9759,15.429 14.666,15.6426 14.2871,15.7949 C13.9082,15.9473 13.4714,16.0234 12.9766,16.0234 M18.4688,12.4375 L18.4688,15.9063 L16.8047,15.9063 L16.8047,9.90625 L18.3906,9.90625 L18.3906,10.9648 L18.4609,10.9648 C18.5938,10.6159 18.8164,10.3392 19.1289,10.1348 C19.4414,9.93034 19.8203,9.82813 20.2656,9.82813 C20.6823,9.82813 21.0456,9.91927 21.3555,10.1016 C21.6654,10.2839 21.9063,10.5436 22.0781,10.8809 C22.25,11.2181 22.3359,11.6198 22.3359,12.0859 L22.3359,15.9063 L20.6719,15.9063 L20.6719,12.3828 C20.6745,12.0156 20.5807,11.7285 20.3906,11.5215 C20.2005,11.3145 19.9388,11.2109 19.6055,11.2109 C19.3815,11.2109 19.1842,11.2591 19.0137,11.3555 C18.8431,11.4518 18.7103,11.5918 18.6152,11.7754 C18.5202,11.959 18.4714,12.1797 18.4688,12.4375 M25.3438,16.0195 C24.9609,16.0195 24.6198,15.9525 24.3203,15.8184 C24.0208,15.6842 23.7845,15.485 23.6113,15.2207 C23.4382,14.9564 23.3516,14.6263 23.3516,14.2305 C23.3516,13.8971 23.4128,13.6172 23.5352,13.3906 C23.6576,13.1641 23.8242,12.9818 24.0352,12.8438 C24.2461,12.7057 24.4863,12.6016 24.7559,12.5313 C25.0254,12.4609 25.3086,12.4115 25.6055,12.3828 C25.9544,12.3464 26.2357,12.3118 26.4492,12.2793 C26.6628,12.2467 26.8177,12.1979 26.9141,12.1328 C27.0104,12.0677 27.0586,11.9714 27.0586,11.8438 L27.0586,11.8203 C27.0586,11.5729 26.9811,11.3815 26.8262,11.2461 C26.6712,11.1107 26.4518,11.043 26.168,11.043 C25.8685,11.043 25.6302,11.1087 25.4531,11.2402 C25.276,11.3717 25.1589,11.5365 25.1016,11.7344 L23.5625,11.6094 C23.6406,11.2448 23.7943,10.929 24.0234,10.6621 C24.2526,10.3952 24.5488,10.1895 24.9121,10.0449 C25.2754,9.90039 25.6966,9.82813 26.1758,9.82813 C26.5091,9.82813 26.8288,9.86719 27.1348,9.94531 C27.4408,10.0234 27.7129,10.1445 27.9512,10.3086 C28.1895,10.4727 28.3776,10.6829 28.5156,10.9395 C28.6536,11.196 28.7227,11.5026 28.7227,11.8594 L28.7227,15.9063 L27.1445,15.9063 L27.1445,15.0742 L27.0977,15.0742 C27.0013,15.2617 26.8724,15.4264 26.7109,15.5684 C26.5495,15.7103 26.3555,15.821 26.1289,15.9004 C25.9023,15.9798 25.6406,16.0195 25.3438,16.0195 M25.8203,14.8711 C26.0651,14.8711 26.2813,14.8223 26.4688,14.7246 C26.6563,14.627 26.8034,14.4948 26.9102,14.3281 C27.0169,14.1615 27.0703,13.9727 27.0703,13.7617 L27.0703,13.125 C27.0182,13.1589 26.9473,13.1895 26.8574,13.2168 C26.7676,13.2441 26.6667,13.2689 26.5547,13.291 C26.4427,13.3132 26.3307,13.3327 26.2188,13.3496 C26.1068,13.3665 26.0052,13.3815 25.9141,13.3945 C25.7188,13.4232 25.5482,13.4688 25.4023,13.5313 C25.2565,13.5938 25.1432,13.6777 25.0625,13.7832 C24.9818,13.8887 24.9414,14.0195 24.9414,14.1758 C24.9414,14.4023 25.0241,14.5749 25.1895,14.6934 C25.3548,14.8118 25.5651,14.8711 25.8203,14.8711 M30.0391,15.9063 L30.0391,7.90625 L31.7031,7.90625 L31.7031,10.9141 L31.7539,10.9141 C31.8268,10.7526 31.9329,10.5879 32.0723,10.4199 C32.2116,10.252 32.3939,10.1113 32.6191,9.99805 C32.8444,9.88477 33.125,9.82813 33.4609,9.82813 C33.8984,9.82813 34.3021,9.94206 34.6719,10.1699 C35.0417,10.3978 35.3372,10.7402 35.5586,11.1973 C35.7799,11.6543 35.8906,12.2266 35.8906,12.9141 C35.8906,13.5833 35.7832,14.1478 35.5684,14.6074 C35.3535,15.0671 35.0618,15.4147 34.6934,15.6504 C34.3249,15.8861 33.9128,16.0039 33.457,16.0039 C33.1341,16.0039 32.86,15.9505 32.6348,15.8438 C32.4095,15.737 32.2253,15.6022 32.082,15.4395 C31.9388,15.2767 31.8294,15.112 31.7539,14.9453 L31.6797,14.9453 L31.6797,15.9063 L30.0391,15.9063 M31.668,12.9063 C31.668,13.263 31.7174,13.5742 31.8164,13.8398 C31.9154,14.1055 32.0586,14.3118 32.2461,14.459 C32.4336,14.6061 32.6615,14.6797 32.9297,14.6797 C33.2005,14.6797 33.4297,14.6048 33.6172,14.4551 C33.8047,14.3053 33.9473,14.097 34.0449,13.8301 C34.1426,13.5632 34.1914,13.2552 34.1914,12.9063 C34.1914,12.5599 34.1432,12.2552 34.0469,11.9922 C33.9505,11.7292 33.8086,11.5234 33.6211,11.375 C33.4336,11.2266 33.2031,11.1523 32.9297,11.1523 C32.6589,11.1523 32.4303,11.224 32.2441,11.3672 C32.0579,11.5104 31.9154,11.7135 31.8164,11.9766 C31.7174,12.2396 31.668,12.5495 31.668,12.9063 M38.6563,7.90625 L38.6563,15.9063 L36.9922,15.9063 L36.9922,7.90625 L38.6563,7.90625 M42.7109,16.0234 C42.0938,16.0234 41.5632,15.8978 41.1191,15.6465 C40.6751,15.3952 40.3333,15.0384 40.0938,14.5762 C39.8542,14.1139 39.7344,13.5664 39.7344,12.9336 C39.7344,12.3164 39.8542,11.7747 40.0938,11.3086 C40.3333,10.8424 40.6712,10.4792 41.1074,10.2188 C41.5436,9.95833 42.056,9.82813 42.6445,9.82813 C43.0404,9.82813 43.4095,9.89128 43.752,10.0176 C44.0944,10.1439 44.3939,10.3333 44.6504,10.5859 C44.9069,10.8385 45.1068,11.1556 45.25,11.5371 C45.3932,11.9186 45.4648,12.3646 45.4648,12.875 L45.4648,13.332 L40.3984,13.332 L40.3984,12.3008 L43.8984,12.3008 C43.8984,12.0612 43.8464,11.849 43.7422,11.6641 C43.638,11.4792 43.4941,11.334 43.3105,11.2285 C43.127,11.123 42.9141,11.0703 42.6719,11.0703 C42.4193,11.0703 42.196,11.1283 42.002,11.2441 C41.8079,11.36 41.6563,11.515 41.5469,11.709 C41.4375,11.903 41.3815,12.1185 41.3789,12.3555 L41.3789,13.3359 C41.3789,13.6328 41.4342,13.8893 41.5449,14.1055 C41.6556,14.3216 41.8125,14.4883 42.0156,14.6055 C42.2188,14.7227 42.4596,14.7813 42.7383,14.7813 C42.9232,14.7813 43.0924,14.7552 43.2461,14.7031 C43.3997,14.651 43.5313,14.5729 43.6406,14.4688 C43.75,14.3646 43.8333,14.237 43.8906,14.0859 L45.4297,14.1875 C45.3516,14.5573 45.1921,14.8796 44.9512,15.1543 C44.7103,15.429 44.4004,15.6426 44.0215,15.7949 C43.6426,15.9473 43.2057,16.0234 42.7109,16.0234 "/>
</g>

<g fill="#ffffff" fill-opacity="1" stroke="none" transform="matrix(0.03125,0,0,0.03125,104,14)"
font-family="Inter" font-size="11" font-weight="700" font-style="normal" 
>
<path vector-effect="none" fill-rule="nonzero" d="M111.326,191.938 C120.545,201.158 135.517,201.158 144.737,191.938 L239.144,97.5313 C245.929,90.7458 247.921,80.6413 244.233,71.7907 C240.545,62.9401 231.989,57.1871 222.401,57.1871 L33.5875,57.2608 C24.0731,57.2608 15.4437,63.0137 11.7559,71.8644 C8.06815,80.715 10.1333,90.8195 16.845,97.605 L111.252,192.012 L111.326,191.938"/>
</g>

<g fill="none" stroke="#000000" stroke-opacity="1" stroke-width="13.7195" stroke-linecap="butt" stroke-linejoin="miter" stroke-miterlimit="4" transform="matrix(0.03125,0,0,0.03125,104,14)"
font-family="Inter" font-size="11" font-weight="700" font-style="normal" 
>
<path vector-effect="none" fill-rule="nonzero" d="M111.326,191.938 C120.545,201.158 135.517,201.158 144.737,191.938 L239.144,97.5313 C245.929,90.7458 247.921,80.6413 244.233,71.7907 C240.545,62.9401 231.989,57.1871 222.401,57.1871 L33.5875,57.2608 C24.0731,57.2608 15.4437,63.0137 11.7559,71.8644 C8.06815,80.715 10.1333,90.8195 16.845,97.605 L111.252,192.012 L111.326,191.938"/>
</g>

<g fill="#ffffff" fill-opacity="1" stroke="none" transform="matrix(1,0,0,1,50,6)"
font-family="Inter" font-size="11" font-weight="700" font-style="normal" 
>
</g>

<g fill="#ffffff" fill-opacity="1" stroke="#00645c" stroke-opacity="1" stroke-width="1" stroke-linecap="square" stroke-linejoin="bevel" transform="matrix(1,0,0,1,0,0)"
font-family="Inter" font-size="11" font-weight="700" font-style="normal" 
>
</g>

<g fill="#ffffff" fill-opacity="1" stroke="#00645c" stroke-opacity="1" stroke-width="1" stroke-linecap="square" stroke-linejoin="bevel" transform="matrix(1,0,0,1,0,0)"
font-family="Inter" font-size="11" font-weight="700" font-style="normal" 
>
</g>

<g fill="#ffffff" fill-opacity="1" stroke="#00645c" stroke-opacity="1" stroke-width="1" stroke-linecap="square" stroke-linejoin="bevel" transform="matrix(1,0,0,1,0,0)"
font-family="Inter" font-size="11" font-weight="700" font-style="normal" 
>
</g>

<g fill="none" stroke="#000000" stroke-opacity="1" stroke-width="1" stroke-linecap="square" stroke-linejoin="bevel" transform="matrix(1,0,0,1,0,0)"
font-family=".AppleSystemUIFont" font-size="13" font-weight="400" font-style="normal" 
>
</g>
</g>
</svg>
