<?xml version="1.0" encoding="UTF-8" standalone="no"?>
<svg width="54.6806mm" height="9.87778mm"
 viewBox="0 0 155 28"
 xmlns="http://www.w3.org/2000/svg" xmlns:xlink="http://www.w3.org/1999/xlink" version="1.2" baseProfile="tiny">
<title>Abstract block</title>
<desc>block_operator_string_contains</desc>
<defs>
</defs>
<g fill="none" stroke="black" stroke-width="1" fill-rule="evenodd" stroke-linecap="square" stroke-linejoin="bevel" >

<g fill="none" stroke="#000000" stroke-opacity="1" stroke-width="1" stroke-linecap="square" stroke-linejoin="bevel" transform="matrix(1,0,0,1,0,0)"
font-family=".AppleSystemUIFont" font-size="13" font-weight="400" font-style="normal" 
>
</g>

<g fill="none" stroke="#000000" stroke-opacity="1" stroke-width="1" stroke-linecap="square" stroke-linejoin="bevel" transform="matrix(1,0,0,1,0,0)"
font-family=".AppleSystemUIFont" font-size="13" font-weight="400" font-style="normal" 
>
</g>

<g fill="#00b94d" fill-opacity="1" stroke="#007e32" stroke-opacity="1" stroke-width="1.2" stroke-linecap="square" stroke-linejoin="bevel" transform="matrix(1,0,0,1,0,0)"
font-family=".AppleSystemUIFont" font-size="13" font-weight="400" font-style="normal" 
>
<path vector-effect="none" fill-rule="evenodd" d="M0,14 L14,0 L140.056,0 L154.056,14 L140.056,28 L14,28 L0,14"/>
</g>

<g fill="#ffffff" fill-opacity="1" stroke="none" transform="matrix(1,0,0,1,0,0)"
font-family="Inter" font-size="11" font-weight="700" font-style="normal" 
>
<path vector-effect="none" fill-rule="nonzero" d="M56.625,18.0703 C56.0104,18.0703 55.4824,17.9395 55.041,17.6777 C54.5996,17.416 54.2611,17.0521 54.0254,16.5859 C53.7897,16.1198 53.6719,15.5833 53.6719,14.9766 C53.6719,14.362 53.791,13.8223 54.0293,13.3574 C54.2676,12.8926 54.6068,12.5293 55.0469,12.2676 C55.487,12.0059 56.0104,11.875 56.6172,11.875 C57.1406,11.875 57.599,11.9701 57.9922,12.1602 C58.3854,12.3503 58.6966,12.6172 58.9258,12.9609 C59.1549,13.3047 59.2813,13.7083 59.3047,14.1719 L57.7344,14.1719 C57.6901,13.8724 57.5736,13.6309 57.3848,13.4473 C57.196,13.2637 56.9492,13.1719 56.6445,13.1719 C56.3867,13.1719 56.1621,13.2415 55.9707,13.3809 C55.7793,13.5202 55.6302,13.7227 55.5234,13.9883 C55.4167,14.2539 55.3633,14.5755 55.3633,14.9531 C55.3633,15.3359 55.416,15.6615 55.5215,15.9297 C55.627,16.1979 55.776,16.4023 55.9688,16.543 C56.1615,16.6836 56.3867,16.7539 56.6445,16.7539 C56.8346,16.7539 57.0059,16.7148 57.1582,16.6367 C57.3105,16.5586 57.4368,16.4447 57.5371,16.2949 C57.6374,16.1452 57.7031,15.9648 57.7344,15.7539 L59.3047,15.7539 C59.2786,16.2122 59.1543,16.6152 58.9316,16.9629 C58.709,17.3105 58.4023,17.582 58.0117,17.7773 C57.6211,17.9727 57.1589,18.0703 56.625,18.0703 M63.0781,18.0703 C62.4714,18.0703 61.9473,17.9408 61.5059,17.6816 C61.0645,17.4225 60.724,17.0605 60.4844,16.5957 C60.2448,16.1309 60.125,15.5911 60.125,14.9766 C60.125,14.3568 60.2448,13.8145 60.4844,13.3496 C60.724,12.8848 61.0645,12.5228 61.5059,12.2637 C61.9473,12.0046 62.4714,11.875 63.0781,11.875 C63.6849,11.875 64.209,12.0046 64.6504,12.2637 C65.0918,12.5228 65.4323,12.8848 65.6719,13.3496 C65.9115,13.8145 66.0313,14.3568 66.0313,14.9766 C66.0313,15.5911 65.9115,16.1309 65.6719,16.5957 C65.4323,17.0605 65.0918,17.4225 64.6504,17.6816 C64.209,17.9408 63.6849,18.0703 63.0781,18.0703 M63.0859,16.7813 C63.362,16.7813 63.5924,16.7025 63.7773,16.5449 C63.9622,16.3874 64.1022,16.1719 64.1973,15.8984 C64.2923,15.625 64.3398,15.3138 64.3398,14.9648 C64.3398,14.6159 64.2923,14.3047 64.1973,14.0313 C64.1022,13.7578 63.9622,13.5417 63.7773,13.3828 C63.5924,13.224 63.362,13.1445 63.0859,13.1445 C62.8073,13.1445 62.5736,13.224 62.3848,13.3828 C62.196,13.5417 62.054,13.7578 61.959,14.0313 C61.8639,14.3047 61.8164,14.6159 61.8164,14.9648 C61.8164,15.3138 61.8639,15.625 61.959,15.8984 C62.054,16.1719 62.196,16.3874 62.3848,16.5449 C62.5736,16.7025 62.8073,16.7813 63.0859,16.7813 M68.7813,14.4844 L68.7813,17.9531 L67.1172,17.9531 L67.1172,11.9531 L68.7031,11.9531 L68.7031,13.0117 L68.7734,13.0117 C68.9063,12.6628 69.1289,12.3861 69.4414,12.1816 C69.7539,11.9772 70.1328,11.875 70.5781,11.875 C70.9948,11.875 71.3581,11.9661 71.668,12.1484 C71.9779,12.3307 72.2188,12.5905 72.3906,12.9277 C72.5625,13.265 72.6484,13.6667 72.6484,14.1328 L72.6484,17.9531 L70.9844,17.9531 L70.9844,14.4297 C70.987,14.0625 70.8932,13.7754 70.7031,13.5684 C70.513,13.3613 70.2513,13.2578 69.918,13.2578 C69.694,13.2578 69.4967,13.306 69.3262,13.4023 C69.1556,13.4987 69.0228,13.6387 68.9277,13.8223 C68.8327,14.0059 68.7839,14.2266 68.7813,14.4844 M77.1367,11.9531 L77.1367,13.2031 L73.5234,13.2031 L73.5234,11.9531 L77.1367,11.9531 M74.3438,10.5156 L76.0078,10.5156 L76.0078,16.1094 C76.0078,16.263 76.0313,16.3822 76.0781,16.4668 C76.125,16.5514 76.1908,16.6107 76.2754,16.6445 C76.36,16.6784 76.4583,16.6953 76.5703,16.6953 C76.6484,16.6953 76.7266,16.6882 76.8047,16.6738 C76.8828,16.6595 76.9427,16.6484 76.9844,16.6406 L77.2461,17.8789 C77.1628,17.9049 77.0456,17.9355 76.8945,17.9707 C76.7435,18.0059 76.5599,18.0273 76.3438,18.0352 C75.9427,18.0508 75.5918,17.9974 75.291,17.875 C74.9902,17.7526 74.7565,17.5625 74.5898,17.3047 C74.4232,17.0469 74.3411,16.7214 74.3438,16.3281 L74.3438,10.5156 M79.9219,18.0664 C79.5391,18.0664 79.1979,17.9993 78.8984,17.8652 C78.599,17.7311 78.3626,17.5319 78.1895,17.2676 C78.0163,17.0033 77.9297,16.6732 77.9297,16.2773 C77.9297,15.944 77.9909,15.6641 78.1133,15.4375 C78.2357,15.2109 78.4023,15.0286 78.6133,14.8906 C78.8242,14.7526 79.0645,14.6484 79.334,14.5781 C79.6035,14.5078 79.8867,14.4583 80.1836,14.4297 C80.5326,14.3932 80.8138,14.3587 81.0273,14.3262 C81.2409,14.2936 81.3958,14.2448 81.4922,14.1797 C81.5885,14.1146 81.6367,14.0182 81.6367,13.8906 L81.6367,13.8672 C81.6367,13.6198 81.5592,13.4284 81.4043,13.293 C81.2493,13.1576 81.0299,13.0898 80.7461,13.0898 C80.4466,13.0898 80.2083,13.1556 80.0313,13.2871 C79.8542,13.4186 79.737,13.5833 79.6797,13.7813 L78.1406,13.6563 C78.2188,13.2917 78.3724,12.9759 78.6016,12.709 C78.8307,12.4421 79.127,12.2363 79.4902,12.0918 C79.8535,11.9473 80.2747,11.875 80.7539,11.875 C81.0872,11.875 81.4069,11.9141 81.7129,11.9922 C82.0189,12.0703 82.291,12.1914 82.5293,12.3555 C82.7676,12.5195 82.9557,12.7298 83.0938,12.9863 C83.2318,13.2428 83.3008,13.5495 83.3008,13.9063 L83.3008,17.9531 L81.7227,17.9531 L81.7227,17.1211 L81.6758,17.1211 C81.5794,17.3086 81.4505,17.4733 81.2891,17.6152 C81.1276,17.7572 80.9336,17.8678 80.707,17.9473 C80.4805,18.0267 80.2188,18.0664 79.9219,18.0664 M80.3984,16.918 C80.6432,16.918 80.8594,16.8691 81.0469,16.7715 C81.2344,16.6738 81.3815,16.5417 81.4883,16.375 C81.5951,16.2083 81.6484,16.0195 81.6484,15.8086 L81.6484,15.1719 C81.5964,15.2057 81.5254,15.2363 81.4355,15.2637 C81.3457,15.291 81.2448,15.3158 81.1328,15.3379 C81.0208,15.36 80.9089,15.3796 80.7969,15.3965 C80.6849,15.4134 80.5833,15.4284 80.4922,15.4414 C80.2969,15.4701 80.1263,15.5156 79.9805,15.5781 C79.8346,15.6406 79.7214,15.7246 79.6406,15.8301 C79.5599,15.9355 79.5195,16.0664 79.5195,16.2227 C79.5195,16.4492 79.6022,16.6217 79.7676,16.7402 C79.9329,16.8587 80.1432,16.918 80.3984,16.918 M84.5859,17.9531 L84.5859,11.9531 L86.25,11.9531 L86.25,17.9531 L84.5859,17.9531 M85.4219,11.1797 C85.1745,11.1797 84.9629,11.097 84.7871,10.9316 C84.6113,10.7663 84.5234,10.5677 84.5234,10.3359 C84.5234,10.1068 84.6113,9.90951 84.7871,9.74414 C84.9629,9.57878 85.1745,9.49609 85.4219,9.49609 C85.6693,9.49609 85.8809,9.57878 86.0566,9.74414 C86.2324,9.90951 86.3203,10.1068 86.3203,10.3359 C86.3203,10.5677 86.2324,10.7663 86.0566,10.9316 C85.8809,11.097 85.6693,11.1797 85.4219,11.1797 M89.2344,14.4844 L89.2344,17.9531 L87.5703,17.9531 L87.5703,11.9531 L89.1563,11.9531 L89.1563,13.0117 L89.2266,13.0117 C89.3594,12.6628 89.582,12.3861 89.8945,12.1816 C90.207,11.9772 90.5859,11.875 91.0313,11.875 C91.4479,11.875 91.8112,11.9661 92.1211,12.1484 C92.431,12.3307 92.6719,12.5905 92.8438,12.9277 C93.0156,13.265 93.1016,13.6667 93.1016,14.1328 L93.1016,17.9531 L91.4375,17.9531 L91.4375,14.4297 C91.4401,14.0625 91.3464,13.7754 91.1563,13.5684 C90.9661,13.3613 90.7044,13.2578 90.3711,13.2578 C90.1471,13.2578 89.9499,13.306 89.7793,13.4023 C89.6087,13.4987 89.4759,13.6387 89.3809,13.8223 C89.2858,14.0059 89.237,14.2266 89.2344,14.4844 M99.3906,13.6641 L97.8672,13.7578 C97.8411,13.6276 97.7852,13.5098 97.6992,13.4043 C97.6133,13.2988 97.5007,13.2142 97.3613,13.1504 C97.222,13.0866 97.056,13.0547 96.8633,13.0547 C96.6055,13.0547 96.388,13.1087 96.2109,13.2168 C96.0339,13.3249 95.9453,13.4688 95.9453,13.6484 C95.9453,13.7917 96.0026,13.9128 96.1172,14.0117 C96.2318,14.1107 96.4284,14.1901 96.707,14.25 L97.793,14.4688 C98.3763,14.5885 98.8112,14.7813 99.0977,15.0469 C99.3841,15.3125 99.5273,15.6615 99.5273,16.0938 C99.5273,16.487 99.4121,16.832 99.1816,17.1289 C98.9512,17.4258 98.6361,17.6569 98.2363,17.8223 C97.8366,17.9876 97.3763,18.0703 96.8555,18.0703 C96.0612,18.0703 95.429,17.9043 94.959,17.5723 C94.4889,17.2402 94.2135,16.7878 94.1328,16.2148 L95.7695,16.1289 C95.819,16.3711 95.9388,16.5553 96.1289,16.6816 C96.319,16.8079 96.5625,16.8711 96.8594,16.8711 C97.151,16.8711 97.3861,16.8145 97.5645,16.7012 C97.7428,16.5879 97.8333,16.4414 97.8359,16.2617 C97.8333,16.1107 97.7695,15.9863 97.6445,15.8887 C97.5195,15.791 97.3268,15.7161 97.0664,15.6641 L96.0273,15.457 C95.4414,15.3398 95.0059,15.1367 94.7207,14.8477 C94.4355,14.5586 94.293,14.1901 94.293,13.7422 C94.293,13.3568 94.3978,13.0247 94.6074,12.7461 C94.8171,12.4674 95.1126,12.2526 95.4941,12.1016 C95.8757,11.9505 96.3229,11.875 96.8359,11.875 C97.5938,11.875 98.1908,12.0352 98.627,12.3555 C99.0632,12.6758 99.3177,13.112 99.3906,13.6641 "/>
</g>

<g fill="#ffffff" fill-opacity="1" stroke="none" transform="matrix(1,0,0,1,0,0)"
font-family="Inter" font-size="11" font-weight="700" font-style="normal" 
>
<path vector-effect="none" fill-rule="nonzero" d="M139.813,15.5547 L139.813,15.4219 C139.815,14.9661 139.856,14.6029 139.936,14.332 C140.015,14.0612 140.132,13.8424 140.285,13.6758 C140.439,13.5091 140.624,13.3581 140.84,13.2227 C141.001,13.1185 141.146,13.0104 141.273,12.8984 C141.401,12.7865 141.503,12.6621 141.578,12.5254 C141.654,12.3887 141.691,12.2357 141.691,12.0664 C141.691,11.8867 141.648,11.7292 141.563,11.5938 C141.477,11.4583 141.361,11.3542 141.217,11.2813 C141.072,11.2083 140.913,11.1719 140.738,11.1719 C140.569,11.1719 140.409,11.209 140.258,11.2832 C140.107,11.3574 139.983,11.4668 139.887,11.6113 C139.79,11.7559 139.738,11.9349 139.73,12.1484 L138.137,12.1484 C138.15,11.6276 138.275,11.1973 138.512,10.8574 C138.749,10.5176 139.063,10.2637 139.453,10.0957 C139.844,9.92773 140.275,9.84375 140.746,9.84375 C141.264,9.84375 141.723,9.92904 142.121,10.0996 C142.52,10.2702 142.832,10.5169 143.059,10.8398 C143.285,11.1628 143.398,11.5521 143.398,12.0078 C143.398,12.3125 143.348,12.5827 143.248,12.8184 C143.148,13.054 143.008,13.2624 142.828,13.4434 C142.648,13.6243 142.436,13.7878 142.191,13.9336 C141.986,14.056 141.817,14.1836 141.686,14.3164 C141.554,14.4492 141.456,14.6029 141.393,14.7773 C141.329,14.9518 141.296,15.1667 141.293,15.4219 L141.293,15.5547 L139.813,15.5547 M140.586,18.0547 C140.326,18.0547 140.104,17.9629 139.92,17.7793 C139.736,17.5957 139.646,17.375 139.648,17.1172 C139.646,16.862 139.736,16.6432 139.92,16.4609 C140.104,16.2786 140.326,16.1875 140.586,16.1875 C140.833,16.1875 141.051,16.2786 141.238,16.4609 C141.426,16.6432 141.521,16.862 141.523,17.1172 C141.521,17.2891 141.476,17.446 141.389,17.5879 C141.301,17.7298 141.188,17.8431 141.047,17.9277 C140.906,18.0124 140.753,18.0547 140.586,18.0547 "/>
</g>

<g fill="#ffffff" fill-opacity="1" stroke="none" transform="matrix(1,0,0,1,0,0)"
font-family="Inter" font-size="11" font-weight="700" font-style="normal" 
>
</g>

<g fill="#ffffff" fill-opacity="1" stroke="none" transform="matrix(1,0,0,1,0,0)"
font-family="Inter" font-size="11" font-weight="700" font-style="normal" 
>
</g>

<g fill="#ffffff" fill-opacity="1" stroke="#006a2a" stroke-opacity="1" stroke-width="1.2" stroke-linecap="square" stroke-linejoin="bevel" transform="matrix(1,0,0,1,11,3)"
font-family="Inter" font-size="11" font-weight="700" font-style="normal" 
>
<path vector-effect="none" fill-rule="evenodd" d="M1,11 C1,5.47715 5.92487,1 12,1 L24.6563,1 C30.7314,1 35.6563,5.47715 35.6563,11 C35.6563,16.5228 30.7314,21 24.6563,21 L12,21 C5.92487,21 1,16.5228 1,11 "/>
</g>

<g fill="#000000" fill-opacity="1" stroke="none" transform="matrix(1,0,0,1,11,3)"
font-family="Inter" font-size="10" font-weight="700" font-style="normal" 
>
<path vector-effect="none" fill-rule="nonzero" d="M7.49219,14.3281 L6.00781,8.87358 L7.53835,8.87358 L8.38352,12.5384 L8.43324,12.5384 L9.31392,8.87358 L10.8161,8.87358 L11.7109,12.517 L11.7571,12.517 L12.5881,8.87358 L14.1151,8.87358 L12.6342,14.3281 L11.0327,14.3281 L10.0952,10.8977 L10.0277,10.8977 L9.0902,14.3281 L7.49219,14.3281 M17.2401,14.4347 C16.6884,14.4347 16.212,14.3169 15.8107,14.0813 C15.4094,13.8458 15.0999,13.5167 14.8821,13.0941 C14.6643,12.6715 14.5554,12.1809 14.5554,11.6222 C14.5554,11.0587 14.6643,10.5657 14.8821,10.1431 C15.0999,9.72053 15.4094,9.39145 15.8107,9.15589 C16.212,8.92034 16.6884,8.80256 17.2401,8.80256 C17.7917,8.80256 18.2681,8.92034 18.6694,9.15589 C19.0707,9.39145 19.3802,9.72053 19.598,10.1431 C19.8158,10.5657 19.9247,11.0587 19.9247,11.6222 C19.9247,12.1809 19.8158,12.6715 19.598,13.0941 C19.3802,13.5167 19.0707,13.8458 18.6694,14.0813 C18.2681,14.3169 17.7917,14.4347 17.2401,14.4347 M17.2472,13.2628 C17.4981,13.2628 17.7076,13.1912 17.8757,13.0479 C18.0438,12.9047 18.171,12.7088 18.2575,12.4602 C18.3439,12.2116 18.3871,11.9287 18.3871,11.6115 C18.3871,11.2943 18.3439,11.0114 18.2575,10.7628 C18.171,10.5142 18.0438,10.3177 17.8757,10.1733 C17.7076,10.0289 17.4981,9.95668 17.2472,9.95668 C16.9938,9.95668 16.7814,10.0289 16.6097,10.1733 C16.4381,10.3177 16.3091,10.5142 16.2227,10.7628 C16.1362,11.0114 16.093,11.2943 16.093,11.6115 C16.093,11.9287 16.1362,12.2116 16.2227,12.4602 C16.3091,12.7088 16.4381,12.9047 16.6097,13.0479 C16.7814,13.1912 16.9938,13.2628 17.2472,13.2628 M20.9006,14.3281 L20.9006,8.87358 L22.3672,8.87358 L22.3672,9.82528 L22.424,9.82528 C22.5234,9.48674 22.6903,9.23047 22.9247,9.05646 C23.1591,8.88246 23.429,8.79545 23.7344,8.79545 C23.8101,8.79545 23.8918,8.80019 23.9794,8.80966 C24.067,8.81913 24.1439,8.83215 24.2102,8.84872 L24.2102,10.1911 C24.1392,10.1697 24.041,10.1508 23.9155,10.1342 C23.79,10.1177 23.6752,10.1094 23.571,10.1094 C23.3485,10.1094 23.1502,10.1573 22.9762,10.2532 C22.8022,10.3491 22.6649,10.4822 22.5643,10.6527 C22.4637,10.8232 22.4134,11.0196 22.4134,11.2422 L22.4134,14.3281 L20.9006,14.3281 M26.7386,14.4169 C26.3243,14.4169 25.9497,14.3098 25.6147,14.0955 C25.2797,13.8813 25.0146,13.5652 24.8192,13.1474 C24.6239,12.7295 24.5263,12.2164 24.5263,11.608 C24.5263,10.983 24.6269,10.4627 24.8281,10.0472 C25.0294,9.63175 25.2975,9.32043 25.6325,9.11328 C25.9674,8.90613 26.335,8.80256 26.7351,8.80256 C27.0405,8.80256 27.2956,8.85405 27.5004,8.95703 C27.7051,9.06001 27.8709,9.18786 27.9975,9.34055 C28.1242,9.49325 28.2206,9.64299 28.2869,9.78977 L28.3331,9.78977 L28.3331,7.0554 L29.8423,7.0554 L29.8423,14.3281 L28.3509,14.3281 L28.3509,13.4545 L28.2869,13.4545 C28.2159,13.6061 28.1159,13.7558 27.9869,13.9038 C27.8578,14.0517 27.6909,14.1742 27.4862,14.2713 C27.2814,14.3684 27.0322,14.4169 26.7386,14.4169 M27.218,13.2131 C27.4619,13.2131 27.6684,13.1462 27.8377,13.0124 C28.007,12.8787 28.1372,12.6911 28.2283,12.4496 C28.3195,12.2081 28.3651,11.9252 28.3651,11.6009 C28.3651,11.2765 28.3201,10.9948 28.2301,10.7557 C28.1402,10.5166 28.0099,10.3319 27.8395,10.2017 C27.669,10.0715 27.4619,10.0064 27.218,10.0064 C26.9695,10.0064 26.7599,10.0739 26.5895,10.2088 C26.419,10.3438 26.29,10.5308 26.2024,10.7699 C26.1148,11.009 26.071,11.286 26.071,11.6009 C26.071,11.9181 26.1154,12.198 26.2042,12.4407 C26.293,12.6834 26.422,12.8728 26.5913,13.0089 C26.7605,13.145 26.9695,13.2131 27.218,13.2131 "/>
</g>

<g fill="#000000" fill-opacity="1" stroke="none" transform="matrix(1,0,0,1,17,7.95313)"
font-family="Inter" font-size="10" font-weight="700" font-style="normal" 
>
</g>

<g fill="#000000" fill-opacity="1" stroke="none" transform="matrix(1,0,0,1,17,7.95313)"
font-family="Inter" font-size="10" font-weight="700" font-style="normal" 
>
</g>

<g fill="#000000" fill-opacity="1" stroke="none" transform="matrix(1,0,0,1,11,3)"
font-family="Inter" font-size="10" font-weight="700" font-style="normal" 
>
</g>

<g fill="#ffffff" fill-opacity="1" stroke="none" transform="matrix(1,0,0,1,0,0)"
font-family="Inter" font-size="11" font-weight="700" font-style="normal" 
>
</g>

<g fill="#ffffff" fill-opacity="1" stroke="#006a2a" stroke-opacity="1" stroke-width="1.2" stroke-linecap="square" stroke-linejoin="bevel" transform="matrix(1,0,0,1,105.656,3)"
font-family="Inter" font-size="11" font-weight="700" font-style="normal" 
>
<path vector-effect="none" fill-rule="evenodd" d="M1,11 C1,5.47715 5.92487,1 12,1 L14.4,1 C20.4751,1 25.4,5.47715 25.4,11 C25.4,16.5228 20.4751,21 14.4,21 L12,21 C5.92487,21 1,16.5228 1,11 "/>
</g>

<g fill="#000000" fill-opacity="1" stroke="none" transform="matrix(1,0,0,1,105.656,3)"
font-family="Inter" font-size="10" font-weight="700" font-style="normal" 
>
<path vector-effect="none" fill-rule="nonzero" d="M7.49219,13.5 L6.00781,8.04545 L7.53835,8.04545 L8.38352,11.7102 L8.43324,11.7102 L9.31392,8.04545 L10.8161,8.04545 L11.7109,11.6889 L11.7571,11.6889 L12.5881,8.04545 L14.1151,8.04545 L12.6342,13.5 L11.0327,13.5 L10.0952,10.0696 L10.0277,10.0696 L9.0902,13.5 L7.49219,13.5"/>
</g>

<g fill="#000000" fill-opacity="1" stroke="none" transform="matrix(1,0,0,1,111.656,7.95313)"
font-family="Inter" font-size="10" font-weight="700" font-style="normal" 
>
</g>

<g fill="#000000" fill-opacity="1" stroke="none" transform="matrix(1,0,0,1,111.656,7.95313)"
font-family="Inter" font-size="10" font-weight="700" font-style="normal" 
>
</g>

<g fill="#000000" fill-opacity="1" stroke="none" transform="matrix(1,0,0,1,105.656,3)"
font-family="Inter" font-size="10" font-weight="700" font-style="normal" 
>
</g>

<g fill="#ffffff" fill-opacity="1" stroke="none" transform="matrix(1,0,0,1,0,0)"
font-family="Inter" font-size="11" font-weight="700" font-style="normal" 
>
</g>

<g fill="#ffffff" fill-opacity="1" stroke="none" transform="matrix(1,0,0,1,0,0)"
font-family="Inter" font-size="11" font-weight="700" font-style="normal" 
>
</g>

<g fill="none" stroke="#000000" stroke-opacity="1" stroke-width="1" stroke-linecap="square" stroke-linejoin="bevel" transform="matrix(1,0,0,1,0,0)"
font-family=".AppleSystemUIFont" font-size="13" font-weight="400" font-style="normal" 
>
</g>
</g>
</svg>
