<?xml version="1.0" encoding="UTF-8" standalone="no"?>
<svg width="92.075mm" height="15.5222mm"
 viewBox="0 0 261 44"
 xmlns="http://www.w3.org/2000/svg" xmlns:xlink="http://www.w3.org/1999/xlink" version="1.2" baseProfile="tiny">
<title>Abstract block</title>
<desc>block_dashboard_controller_monitor_set_value</desc>
<defs>
</defs>
<g fill="none" stroke="black" stroke-width="1" fill-rule="evenodd" stroke-linecap="square" stroke-linejoin="bevel" >

<g fill="none" stroke="#000000" stroke-opacity="1" stroke-width="1" stroke-linecap="square" stroke-linejoin="bevel" transform="matrix(1,0,0,1,0,0)"
font-family=".AppleSystemUIFont" font-size="13" font-weight="400" font-style="normal" 
>
</g>

<g fill="none" stroke="#000000" stroke-opacity="1" stroke-width="1" stroke-linecap="square" stroke-linejoin="bevel" transform="matrix(1,0,0,1,0,0)"
font-family=".AppleSystemUIFont" font-size="13" font-weight="400" font-style="normal" 
>
</g>

<g fill="#009f94" fill-opacity="1" stroke="#00645c" stroke-opacity="1" stroke-width="1.2" stroke-linecap="square" stroke-linejoin="bevel" transform="matrix(1,0,0,1,0,0)"
font-family=".AppleSystemUIFont" font-size="13" font-weight="400" font-style="normal" 
>
<path vector-effect="none" fill-rule="evenodd" d="M0.5,4.5 L1.04612,2.48112 L2.48112,1.04612 L4.5,0.5 L9.625,0.5 L10.416,0.976563 L11.1719,1.6875 L11.998,2.67969 L13,4 L13.7559,4.66016 L14.5469,5.15625 L15.4082,5.51172 L16.375,5.75 L17.4824,5.89453 L18.7656,5.96875 L20.2598,5.99609 L22,6 L23.7402,5.99609 L25.2344,5.96875 L26.5176,5.89453 L27.625,5.75 L28.5918,5.51172 L29.4531,5.15625 L30.2441,4.66016 L31,4 L32.002,2.67969 L32.8281,1.6875 L33.584,0.976563 L34.375,0.5 L256.4,0.5 L258.419,1.04612 L259.854,2.48112 L260.4,4.5 L260.4,31.5 L259.854,33.5189 L258.419,34.9539 L256.4,35.5 L34.375,35.5 L33.584,35.9766 L32.8281,36.6875 L32.002,37.6797 L31,39 L30.2441,39.6602 L29.4531,40.1563 L28.5918,40.5117 L27.625,40.75 L26.5176,40.8945 L25.2344,40.9688 L23.7402,40.9961 L22,41 L20.2598,40.9961 L18.7656,40.9688 L17.4824,40.8945 L16.375,40.75 L15.4082,40.5117 L14.5469,40.1563 L13.7559,39.6602 L13,39 L11.998,37.6797 L11.1719,36.6875 L10.416,35.9766 L9.625,35.5 L4.5,35.5 L2.48112,34.9539 L1.04612,33.5189 L0.5,31.5 L0.5,4.5"/>
</g>

<g fill="#ffffff" fill-opacity="1" stroke="none" transform="matrix(1,0,0,1,0,0)"
font-family="Inter" font-size="11" font-weight="700" font-style="normal" 
>
<path vector-effect="none" fill-rule="nonzero" d="M57.0938,17.1641 L55.5703,17.2578 C55.5443,17.1276 55.4883,17.0098 55.4023,16.9043 C55.3164,16.7988 55.2038,16.7142 55.0645,16.6504 C54.9251,16.5866 54.7591,16.5547 54.5664,16.5547 C54.3086,16.5547 54.0911,16.6087 53.9141,16.7168 C53.737,16.8249 53.6484,16.9688 53.6484,17.1484 C53.6484,17.2917 53.7057,17.4128 53.8203,17.5117 C53.9349,17.6107 54.1315,17.6901 54.4102,17.75 L55.4961,17.9688 C56.0794,18.0885 56.5143,18.2813 56.8008,18.5469 C57.0872,18.8125 57.2305,19.1615 57.2305,19.5938 C57.2305,19.987 57.1152,20.332 56.8848,20.6289 C56.6543,20.9258 56.3392,21.1569 55.9395,21.3223 C55.5397,21.4876 55.0794,21.5703 54.5586,21.5703 C53.7643,21.5703 53.1322,21.4043 52.6621,21.0723 C52.1921,20.7402 51.9167,20.2878 51.8359,19.7148 L53.4727,19.6289 C53.5221,19.8711 53.6419,20.0553 53.832,20.1816 C54.0221,20.3079 54.2656,20.3711 54.5625,20.3711 C54.8542,20.3711 55.0892,20.3145 55.2676,20.2012 C55.446,20.0879 55.5365,19.9414 55.5391,19.7617 C55.5365,19.6107 55.4727,19.4863 55.3477,19.3887 C55.2227,19.291 55.0299,19.2161 54.7695,19.1641 L53.7305,18.957 C53.1445,18.8398 52.709,18.6367 52.4238,18.3477 C52.1387,18.0586 51.9961,17.6901 51.9961,17.2422 C51.9961,16.8568 52.1009,16.5247 52.3105,16.2461 C52.5202,15.9674 52.8158,15.7526 53.1973,15.6016 C53.5788,15.4505 54.026,15.375 54.5391,15.375 C55.2969,15.375 55.8939,15.5352 56.3301,15.8555 C56.7663,16.1758 57.0208,16.612 57.0938,17.1641 M61.0078,21.5703 C60.3906,21.5703 59.86,21.4447 59.416,21.1934 C58.972,20.9421 58.6302,20.5853 58.3906,20.123 C58.151,19.6608 58.0313,19.1133 58.0313,18.4805 C58.0313,17.8633 58.151,17.3216 58.3906,16.8555 C58.6302,16.3893 58.9681,16.026 59.4043,15.7656 C59.8405,15.5052 60.3529,15.375 60.9414,15.375 C61.3372,15.375 61.7064,15.4382 62.0488,15.5645 C62.3913,15.6908 62.6908,15.8802 62.9473,16.1328 C63.2038,16.3854 63.4036,16.7025 63.5469,17.084 C63.6901,17.4655 63.7617,17.9115 63.7617,18.4219 L63.7617,18.8789 L58.6953,18.8789 L58.6953,17.8477 L62.1953,17.8477 C62.1953,17.6081 62.1432,17.3958 62.0391,17.2109 C61.9349,17.026 61.791,16.8809 61.6074,16.7754 C61.4238,16.6699 61.2109,16.6172 60.9688,16.6172 C60.7161,16.6172 60.4928,16.6751 60.2988,16.791 C60.1048,16.9069 59.9531,17.0618 59.8438,17.2559 C59.7344,17.4499 59.6784,17.6654 59.6758,17.9023 L59.6758,18.8828 C59.6758,19.1797 59.7311,19.4362 59.8418,19.6523 C59.9525,19.8685 60.1094,20.0352 60.3125,20.1523 C60.5156,20.2695 60.7565,20.3281 61.0352,20.3281 C61.2201,20.3281 61.3893,20.3021 61.543,20.25 C61.6966,20.1979 61.8281,20.1198 61.9375,20.0156 C62.0469,19.9115 62.1302,19.7839 62.1875,19.6328 L63.7266,19.7344 C63.6484,20.1042 63.4889,20.4264 63.248,20.7012 C63.0072,20.9759 62.6973,21.1895 62.3184,21.3418 C61.9395,21.4941 61.5026,21.5703 61.0078,21.5703 M68.0273,15.4531 L68.0273,16.7031 L64.4141,16.7031 L64.4141,15.4531 L68.0273,15.4531 M65.2344,14.0156 L66.8984,14.0156 L66.8984,19.6094 C66.8984,19.763 66.9219,19.8822 66.9688,19.9668 C67.0156,20.0514 67.0814,20.1107 67.166,20.1445 C67.2507,20.1784 67.349,20.1953 67.4609,20.1953 C67.5391,20.1953 67.6172,20.1882 67.6953,20.1738 C67.7734,20.1595 67.8333,20.1484 67.875,20.1406 L68.1367,21.3789 C68.0534,21.4049 67.9362,21.4355 67.7852,21.4707 C67.6341,21.5059 67.4505,21.5273 67.2344,21.5352 C66.8333,21.5508 66.4824,21.4974 66.1816,21.375 C65.8809,21.2526 65.6471,21.0625 65.4805,20.8047 C65.3138,20.5469 65.2318,20.2214 65.2344,19.8281 L65.2344,14.0156"/>
</g>

<g fill="#ffffff" fill-opacity="1" stroke="none" transform="matrix(1,0,0,1,0,0)"
font-family="Inter" font-size="11" font-weight="700" font-style="normal" 
>
<path vector-effect="none" fill-rule="nonzero" d="M110.184,15.4531 L110.184,16.7031 L106.57,16.7031 L106.57,15.4531 L110.184,15.4531 M107.391,14.0156 L109.055,14.0156 L109.055,19.6094 C109.055,19.763 109.078,19.8822 109.125,19.9668 C109.172,20.0514 109.238,20.1107 109.322,20.1445 C109.407,20.1784 109.505,20.1953 109.617,20.1953 C109.695,20.1953 109.773,20.1882 109.852,20.1738 C109.93,20.1595 109.99,20.1484 110.031,20.1406 L110.293,21.3789 C110.21,21.4049 110.092,21.4355 109.941,21.4707 C109.79,21.5059 109.607,21.5273 109.391,21.5352 C108.99,21.5508 108.639,21.4974 108.338,21.375 C108.037,21.2526 107.803,21.0625 107.637,20.8047 C107.47,20.5469 107.388,20.2214 107.391,19.8281 L107.391,14.0156 M113.906,21.5703 C113.299,21.5703 112.775,21.4408 112.334,21.1816 C111.893,20.9225 111.552,20.5605 111.313,20.0957 C111.073,19.6309 110.953,19.0911 110.953,18.4766 C110.953,17.8568 111.073,17.3145 111.313,16.8496 C111.552,16.3848 111.893,16.0228 112.334,15.7637 C112.775,15.5046 113.299,15.375 113.906,15.375 C114.513,15.375 115.037,15.5046 115.479,15.7637 C115.92,16.0228 116.26,16.3848 116.5,16.8496 C116.74,17.3145 116.859,17.8568 116.859,18.4766 C116.859,19.0911 116.74,19.6309 116.5,20.0957 C116.26,20.5605 115.92,20.9225 115.479,21.1816 C115.037,21.4408 114.513,21.5703 113.906,21.5703 M113.914,20.2813 C114.19,20.2813 114.421,20.2025 114.605,20.0449 C114.79,19.8874 114.93,19.6719 115.025,19.3984 C115.12,19.125 115.168,18.8138 115.168,18.4648 C115.168,18.1159 115.12,17.8047 115.025,17.5313 C114.93,17.2578 114.79,17.0417 114.605,16.8828 C114.421,16.724 114.19,16.6445 113.914,16.6445 C113.635,16.6445 113.402,16.724 113.213,16.8828 C113.024,17.0417 112.882,17.2578 112.787,17.5313 C112.692,17.8047 112.645,18.1159 112.645,18.4648 C112.645,18.8138 112.692,19.125 112.787,19.3984 C112.882,19.6719 113.024,19.8874 113.213,20.0449 C113.402,20.2025 113.635,20.2813 113.914,20.2813 "/>
</g>

<g fill="#ffffff" fill-opacity="1" stroke="none" transform="matrix(1,0,0,1,0,0)"
font-family="Inter" font-size="11" font-weight="700" font-style="normal" 
>
<path vector-effect="none" fill-rule="nonzero" d="M205.414,21.9531 L205.414,15.9531 L207,15.9531 L207,17.0117 L207.07,17.0117 C207.195,16.6602 207.404,16.3828 207.695,16.1797 C207.987,15.9766 208.336,15.875 208.742,15.875 C209.154,15.875 209.504,15.9772 209.793,16.1816 C210.082,16.3861 210.275,16.6628 210.371,17.0117 L210.434,17.0117 C210.556,16.668 210.778,16.3926 211.1,16.1855 C211.421,15.9785 211.802,15.875 212.242,15.875 C212.802,15.875 213.257,16.0527 213.607,16.4082 C213.958,16.7637 214.133,17.2669 214.133,17.918 L214.133,21.9531 L212.473,21.9531 L212.473,18.2461 C212.473,17.9128 212.384,17.6628 212.207,17.4961 C212.03,17.3294 211.809,17.2461 211.543,17.2461 C211.241,17.2461 211.005,17.3418 210.836,17.5332 C210.667,17.7246 210.582,17.9766 210.582,18.2891 L210.582,21.9531 L208.969,21.9531 L208.969,18.2109 C208.969,17.9167 208.885,17.6823 208.717,17.5078 C208.549,17.3333 208.328,17.2461 208.055,17.2461 C207.87,17.2461 207.704,17.2923 207.557,17.3848 C207.41,17.4772 207.293,17.6061 207.207,17.7715 C207.121,17.9368 207.078,18.1302 207.078,18.3516 L207.078,21.9531 L205.414,21.9531 M218.156,22.0703 C217.549,22.0703 217.025,21.9408 216.584,21.6816 C216.143,21.4225 215.802,21.0605 215.563,20.5957 C215.323,20.1309 215.203,19.5911 215.203,18.9766 C215.203,18.3568 215.323,17.8145 215.563,17.3496 C215.802,16.8848 216.143,16.5228 216.584,16.2637 C217.025,16.0046 217.549,15.875 218.156,15.875 C218.763,15.875 219.287,16.0046 219.729,16.2637 C220.17,16.5228 220.51,16.8848 220.75,17.3496 C220.99,17.8145 221.109,18.3568 221.109,18.9766 C221.109,19.5911 220.99,20.1309 220.75,20.5957 C220.51,21.0605 220.17,21.4225 219.729,21.6816 C219.287,21.9408 218.763,22.0703 218.156,22.0703 M218.164,20.7813 C218.44,20.7813 218.671,20.7025 218.855,20.5449 C219.04,20.3874 219.18,20.1719 219.275,19.8984 C219.37,19.625 219.418,19.3138 219.418,18.9648 C219.418,18.6159 219.37,18.3047 219.275,18.0313 C219.18,17.7578 219.04,17.5417 218.855,17.3828 C218.671,17.224 218.44,17.1445 218.164,17.1445 C217.885,17.1445 217.652,17.224 217.463,17.3828 C217.274,17.5417 217.132,17.7578 217.037,18.0313 C216.942,18.3047 216.895,18.6159 216.895,18.9648 C216.895,19.3138 216.942,19.625 217.037,19.8984 C217.132,20.1719 217.274,20.3874 217.463,20.5449 C217.652,20.7025 217.885,20.7813 218.164,20.7813 M223.859,18.4844 L223.859,21.9531 L222.195,21.9531 L222.195,15.9531 L223.781,15.9531 L223.781,17.0117 L223.852,17.0117 C223.984,16.6628 224.207,16.3861 224.52,16.1816 C224.832,15.9772 225.211,15.875 225.656,15.875 C226.073,15.875 226.436,15.9661 226.746,16.1484 C227.056,16.3307 227.297,16.5905 227.469,16.9277 C227.641,17.265 227.727,17.6667 227.727,18.1328 L227.727,21.9531 L226.063,21.9531 L226.063,18.4297 C226.065,18.0625 225.971,17.7754 225.781,17.5684 C225.591,17.3613 225.329,17.2578 224.996,17.2578 C224.772,17.2578 224.575,17.306 224.404,17.4023 C224.234,17.4987 224.101,17.6387 224.006,17.8223 C223.911,18.0059 223.862,18.2266 223.859,18.4844 M229.023,21.9531 L229.023,15.9531 L230.688,15.9531 L230.688,21.9531 L229.023,21.9531 M229.859,15.1797 C229.612,15.1797 229.4,15.097 229.225,14.9316 C229.049,14.7663 228.961,14.5677 228.961,14.3359 C228.961,14.1068 229.049,13.9095 229.225,13.7441 C229.4,13.5788 229.612,13.4961 229.859,13.4961 C230.107,13.4961 230.318,13.5788 230.494,13.7441 C230.67,13.9095 230.758,14.1068 230.758,14.3359 C230.758,14.5677 230.67,14.7663 230.494,14.9316 C230.318,15.097 230.107,15.1797 229.859,15.1797 M235.199,15.9531 L235.199,17.2031 L231.586,17.2031 L231.586,15.9531 L235.199,15.9531 M232.406,14.5156 L234.07,14.5156 L234.07,20.1094 C234.07,20.263 234.094,20.3822 234.141,20.4668 C234.188,20.5514 234.253,20.6107 234.338,20.6445 C234.423,20.6784 234.521,20.6953 234.633,20.6953 C234.711,20.6953 234.789,20.6882 234.867,20.6738 C234.945,20.6595 235.005,20.6484 235.047,20.6406 L235.309,21.8789 C235.225,21.9049 235.108,21.9355 234.957,21.9707 C234.806,22.0059 234.622,22.0273 234.406,22.0352 C234.005,22.0508 233.654,21.9974 233.354,21.875 C233.053,21.7526 232.819,21.5625 232.652,21.3047 C232.486,21.0469 232.404,20.7214 232.406,20.3281 L232.406,14.5156 M238.922,22.0703 C238.315,22.0703 237.791,21.9408 237.35,21.6816 C236.908,21.4225 236.568,21.0605 236.328,20.5957 C236.089,20.1309 235.969,19.5911 235.969,18.9766 C235.969,18.3568 236.089,17.8145 236.328,17.3496 C236.568,16.8848 236.908,16.5228 237.35,16.2637 C237.791,16.0046 238.315,15.875 238.922,15.875 C239.529,15.875 240.053,16.0046 240.494,16.2637 C240.936,16.5228 241.276,16.8848 241.516,17.3496 C241.755,17.8145 241.875,18.3568 241.875,18.9766 C241.875,19.5911 241.755,20.1309 241.516,20.5957 C241.276,21.0605 240.936,21.4225 240.494,21.6816 C240.053,21.9408 239.529,22.0703 238.922,22.0703 M238.93,20.7813 C239.206,20.7813 239.436,20.7025 239.621,20.5449 C239.806,20.3874 239.946,20.1719 240.041,19.8984 C240.136,19.625 240.184,19.3138 240.184,18.9648 C240.184,18.6159 240.136,18.3047 240.041,18.0313 C239.946,17.7578 239.806,17.5417 239.621,17.3828 C239.436,17.224 239.206,17.1445 238.93,17.1445 C238.651,17.1445 238.417,17.224 238.229,17.3828 C238.04,17.5417 237.898,17.7578 237.803,18.0313 C237.708,18.3047 237.66,18.6159 237.66,18.9648 C237.66,19.3138 237.708,19.625 237.803,19.8984 C237.898,20.1719 238.04,20.3874 238.229,20.5449 C238.417,20.7025 238.651,20.7813 238.93,20.7813 M242.961,21.9531 L242.961,15.9531 L244.574,15.9531 L244.574,17 L244.637,17 C244.746,16.6276 244.93,16.3457 245.188,16.1543 C245.445,15.9629 245.742,15.8672 246.078,15.8672 C246.161,15.8672 246.251,15.8724 246.348,15.8828 C246.444,15.8932 246.529,15.9076 246.602,15.9258 L246.602,17.4023 C246.523,17.3789 246.415,17.3581 246.277,17.3398 C246.139,17.3216 246.013,17.3125 245.898,17.3125 C245.654,17.3125 245.436,17.3652 245.244,17.4707 C245.053,17.5762 244.902,17.7227 244.791,17.9102 C244.68,18.0977 244.625,18.3138 244.625,18.5586 L244.625,21.9531 L242.961,21.9531"/>
</g>

<g fill="#ffffff" fill-opacity="1" stroke="none" transform="matrix(0.95,0,0,0.95,11.6,9.6)"
font-family="Inter" font-size="11" font-weight="700" font-style="normal" 
>
<path vector-effect="none" fill-rule="nonzero" d="M2.19896,4.65234 C1.18891,4.65234 0.375703,5.46549 0.375703,6.47555 L0.375703,8.579 C1.00152,8.60331 1.67842,9.11362 1.67842,9.74561 L1.67842,14.2544 C1.67842,14.8864 1.00152,15.3967 0.375703,15.421 L0.375703,17.5245 C0.375703,18.5345 1.18891,19.3477 2.19896,19.3477 L21.8479,19.3477 C22.858,19.3477 23.6711,18.5345 23.6711,17.5245 L23.6711,6.47555 C23.6711,5.46549 22.858,4.65234 21.8479,4.65234 L2.19896,4.65234 M6.71936,9.23098 C8.56166,9.23097 10.0552,10.7245 10.0552,12.5668 C10.0552,14.4091 8.56167,15.9026 6.71936,15.9026 C4.87705,15.9026 3.38355,14.4091 3.38355,12.5668 C3.38355,10.7245 4.87705,9.23097 6.71936,9.23098 M19.875,9.24873 C20.7082,9.24871 21.3837,9.92418 21.3837,10.7574 C21.3837,11.5906 20.7082,12.266 19.875,12.266 C19.0418,12.266 18.3664,11.5906 18.3664,10.7574 C18.3664,9.9242 19.0418,9.24874 19.875,9.24873 M17.4318,12.8825 C18.265,12.8825 18.9404,13.558 18.9404,14.3912 C18.9404,15.2243 18.2649,15.8998 17.4318,15.8998 C16.5986,15.8998 15.9231,15.2244 15.9231,14.3912 C15.9231,13.5579 16.5985,12.8825 17.4318,12.8825 "/>
</g>

<g fill="none" stroke="#000000" stroke-opacity="1" stroke-width="0.54" stroke-linecap="butt" stroke-linejoin="miter" stroke-miterlimit="4" transform="matrix(0.95,0,0,0.95,11.6,9.6)"
font-family="Inter" font-size="11" font-weight="700" font-style="normal" 
>
<path vector-effect="none" fill-rule="nonzero" d="M2.19896,4.65234 C1.18891,4.65234 0.375703,5.46549 0.375703,6.47555 L0.375703,8.579 C1.00152,8.60331 1.67842,9.11362 1.67842,9.74561 L1.67842,14.2544 C1.67842,14.8864 1.00152,15.3967 0.375703,15.421 L0.375703,17.5245 C0.375703,18.5345 1.18891,19.3477 2.19896,19.3477 L21.8479,19.3477 C22.858,19.3477 23.6711,18.5345 23.6711,17.5245 L23.6711,6.47555 C23.6711,5.46549 22.858,4.65234 21.8479,4.65234 L2.19896,4.65234 M6.71936,9.23098 C8.56166,9.23097 10.0552,10.7245 10.0552,12.5668 C10.0552,14.4091 8.56167,15.9026 6.71936,15.9026 C4.87705,15.9026 3.38355,14.4091 3.38355,12.5668 C3.38355,10.7245 4.87705,9.23097 6.71936,9.23098 M19.875,9.24873 C20.7082,9.24871 21.3837,9.92418 21.3837,10.7574 C21.3837,11.5906 20.7082,12.266 19.875,12.266 C19.0418,12.266 18.3664,11.5906 18.3664,10.7574 C18.3664,9.9242 19.0418,9.24874 19.875,9.24873 M17.4318,12.8825 C18.265,12.8825 18.9404,13.558 18.9404,14.3912 C18.9404,15.2243 18.2649,15.8998 17.4318,15.8998 C16.5986,15.8998 15.9231,15.2244 15.9231,14.3912 C15.9231,13.5579 16.5985,12.8825 17.4318,12.8825 "/>
</g>

<g fill="#000000" fill-opacity="1" stroke="none" transform="matrix(0.95,0,0,0.95,11.6,9.6)"
font-family="Inter" font-size="11" font-weight="700" font-style="normal" 
>
<path vector-effect="none" fill-rule="nonzero" d="M0.108328,15.3227 L0.103298,8.65983 L1.21825,8.7259 L1.75102,9.37791 L1.70662,12.9064 L1.66222,14.5556 L1.04066,15.0542 L0.108328,15.3227"/>
</g>

<g fill="#000000" fill-opacity="1" stroke="none" transform="matrix(0.95,0,0,0.95,11.6,9.6)"
font-family="Inter" font-size="11" font-weight="700" font-style="normal" 
>
<circle cx="6.70111" cy="12.5452" r="1.68266"/>
</g>

<g fill="none" stroke="#000000" stroke-opacity="1" stroke-width="0.54" stroke-linecap="butt" stroke-linejoin="miter" stroke-miterlimit="4" transform="matrix(0.95,0,0,0.95,11.6,9.6)"
font-family="Inter" font-size="11" font-weight="700" font-style="normal" 
>
<circle cx="6.70111" cy="12.5452" r="1.68266"/>
</g>

<g fill="#000000" fill-opacity="1" stroke="none" transform="matrix(0.95,0,0,0.95,11.6,9.6)"
font-family="Inter" font-size="11" font-weight="700" font-style="normal" 
opacity="0.858824" >
<path vector-effect="none" fill-rule="evenodd" d="M8.42109,18.1373 C8.42109,18.0846 8.46385,18.0418 8.51661,18.0418 L15.4834,18.0418 C15.5361,18.0418 15.5789,18.0846 15.5789,18.1373 L15.5789,18.1373 C15.5789,18.1901 15.5361,18.2329 15.4834,18.2329 L8.51661,18.2329 C8.46385,18.2329 8.42109,18.1901 8.42109,18.1373 L8.42109,18.1373"/>
</g>

<g fill="none" stroke="#000000" stroke-opacity="1" stroke-width="0.437534" stroke-linecap="butt" stroke-linejoin="miter" stroke-miterlimit="4" transform="matrix(0.95,0,0,0.95,11.6,9.6)"
font-family="Inter" font-size="11" font-weight="700" font-style="normal" 
>
<path vector-effect="none" fill-rule="evenodd" d="M8.42109,18.1373 C8.42109,18.0846 8.46385,18.0418 8.51661,18.0418 L15.4834,18.0418 C15.5361,18.0418 15.5789,18.0846 15.5789,18.1373 L15.5789,18.1373 C15.5789,18.1901 15.5361,18.2329 15.4834,18.2329 L8.51661,18.2329 C8.46385,18.2329 8.42109,18.1901 8.42109,18.1373 L8.42109,18.1373"/>
</g>

<g fill="#ffffff" fill-opacity="1" stroke="none" transform="matrix(1,0,0,1,0,0)"
font-family="Inter" font-size="11" font-weight="700" font-style="normal" 
>
</g>

<g fill="#ffffff" fill-opacity="1" stroke="#00645c" stroke-opacity="1" stroke-width="1" stroke-linecap="square" stroke-linejoin="bevel" transform="matrix(1,0,0,1,0,0)"
font-family="Inter" font-size="11" font-weight="700" font-style="normal" 
>
<polyline fill="none" vector-effect="none" points="45,11 45,31 " />
</g>

<g fill="#009f94" fill-opacity="1" stroke="#00645c" stroke-opacity="1" stroke-width="1.2" stroke-linecap="square" stroke-linejoin="bevel" transform="matrix(1,0,0,1,123.4,6)"
font-family="Inter" font-size="11" font-weight="700" font-style="normal" 
>
<path vector-effect="none" fill-rule="evenodd" d="M0.5,3.5 C0.5,1.84315 1.84315,0.5 3.5,0.5 L72.5,0.5 C74.1569,0.5 75.5,1.84315 75.5,3.5 L75.5,20.5 C75.5,22.1569 74.1569,23.5 72.5,23.5 L3.5,23.5 C1.84315,23.5 0.5,22.1569 0.5,20.5 L0.5,3.5"/>
</g>

<g fill="#ffffff" fill-opacity="1" stroke="none" transform="matrix(1,0,0,1,123.4,6)"
font-family="Inter" font-size="11" font-weight="700" font-style="normal" 
>
<path vector-effect="none" fill-rule="nonzero" d="M10.0078,7.9375 L12.0938,7.9375 L14.2969,13.3125 L14.3906,13.3125 L16.5938,7.9375 L18.6797,7.9375 L18.6797,15.9375 L17.0391,15.9375 L17.0391,10.7305 L16.9727,10.7305 L14.9023,15.8984 L13.7852,15.8984 L11.7148,10.7109 L11.6484,10.7109 L11.6484,15.9375 L10.0078,15.9375 L10.0078,7.9375 M26.7617,7.9375 L26.7617,15.9375 L25.3008,15.9375 L21.8203,10.9023 L21.7617,10.9023 L21.7617,15.9375 L20.0703,15.9375 L20.0703,7.9375 L21.5547,7.9375 L25.0078,12.9688 L25.0781,12.9688 L25.0781,7.9375 L26.7617,7.9375 M27.8438,9.33203 L27.8438,7.9375 L34.4141,7.9375 L34.4141,9.33203 L31.9648,9.33203 L31.9648,15.9375 L30.293,15.9375 L30.293,9.33203 L27.8438,9.33203 M39.832,10.2383 C39.8008,9.92318 39.6667,9.67839 39.4297,9.50391 C39.1927,9.32943 38.8711,9.24219 38.4648,9.24219 C38.1888,9.24219 37.9557,9.2806 37.7656,9.35742 C37.5755,9.43424 37.4303,9.54036 37.3301,9.67578 C37.2298,9.8112 37.1797,9.96484 37.1797,10.1367 C37.1745,10.2799 37.2051,10.4049 37.2715,10.5117 C37.3379,10.6185 37.4297,10.7103 37.5469,10.7871 C37.6641,10.8639 37.7995,10.9303 37.9531,10.9863 C38.1068,11.0423 38.2708,11.0898 38.4453,11.1289 L39.1641,11.3008 C39.513,11.3789 39.8333,11.4831 40.125,11.6133 C40.4167,11.7435 40.6693,11.9036 40.8828,12.0938 C41.0964,12.2839 41.2624,12.5078 41.3809,12.7656 C41.4993,13.0234 41.5599,13.319 41.5625,13.6523 C41.5599,14.1419 41.4355,14.5658 41.1895,14.9238 C40.9434,15.2819 40.5892,15.5592 40.127,15.7559 C39.6647,15.9525 39.1081,16.0508 38.457,16.0508 C37.8112,16.0508 37.2493,15.9518 36.7715,15.7539 C36.2936,15.556 35.9212,15.2624 35.6543,14.873 C35.3874,14.4837 35.2474,14.0013 35.2344,13.4258 L36.8711,13.4258 C36.8893,13.694 36.9668,13.9173 37.1035,14.0957 C37.2402,14.2741 37.4238,14.4082 37.6543,14.498 C37.8848,14.5879 38.1458,14.6328 38.4375,14.6328 C38.724,14.6328 38.9733,14.5911 39.1855,14.5078 C39.3978,14.4245 39.5625,14.3086 39.6797,14.1602 C39.7969,14.0117 39.8555,13.8411 39.8555,13.6484 C39.8555,13.4688 39.8027,13.3177 39.6973,13.1953 C39.5918,13.0729 39.4382,12.9688 39.2363,12.8828 C39.0345,12.7969 38.7878,12.7188 38.4961,12.6484 L37.625,12.4297 C36.9505,12.2656 36.418,12.0091 36.0273,11.6602 C35.6367,11.3112 35.4427,10.8411 35.4453,10.25 C35.4427,9.76563 35.5723,9.34245 35.834,8.98047 C36.0957,8.61849 36.4557,8.33594 36.9141,8.13281 C37.3724,7.92969 37.8932,7.82813 38.4766,7.82813 C39.0703,7.82813 39.5892,7.92969 40.0332,8.13281 C40.4772,8.33594 40.8229,8.61849 41.0703,8.98047 C41.3177,9.34245 41.4453,9.76172 41.4531,10.2383 L39.832,10.2383 M42.6953,15.9375 L42.6953,7.9375 L45.8516,7.9375 C46.4583,7.9375 46.9753,8.05273 47.4023,8.2832 C47.8294,8.51367 48.1556,8.83268 48.3809,9.24023 C48.6061,9.64779 48.7188,10.1172 48.7188,10.6484 C48.7188,11.1797 48.6042,11.6484 48.375,12.0547 C48.1458,12.4609 47.8145,12.7773 47.3809,13.0039 C46.9473,13.2305 46.4232,13.3438 45.8086,13.3438 L43.7969,13.3438 L43.7969,11.9883 L45.5352,11.9883 C45.8607,11.9883 46.1296,11.9316 46.3418,11.8184 C46.554,11.7051 46.7129,11.5475 46.8184,11.3457 C46.9238,11.1439 46.9766,10.9115 46.9766,10.6484 C46.9766,10.3828 46.9238,10.1504 46.8184,9.95117 C46.7129,9.75195 46.5534,9.59701 46.3398,9.48633 C46.1263,9.37565 45.8555,9.32031 45.5273,9.32031 L44.3867,9.32031 L44.3867,15.9375 L42.6953,15.9375 M53.2539,7.9375 L53.2539,15.9375 L51.5625,15.9375 L51.5625,9.54297 L51.5156,9.54297 L49.6836,10.6914 L49.6836,9.19141 L51.6641,7.9375 L53.2539,7.9375"/>
</g>

<g fill="#ffffff" fill-opacity="1" stroke="none" transform="matrix(0.03125,0,0,0.03125,185.4,14)"
font-family="Inter" font-size="11" font-weight="700" font-style="normal" 
>
<path vector-effect="none" fill-rule="nonzero" d="M111.326,191.938 C120.545,201.158 135.517,201.158 144.737,191.938 L239.144,97.5313 C245.929,90.7458 247.921,80.6413 244.233,71.7907 C240.545,62.9401 231.989,57.1871 222.401,57.1871 L33.5875,57.2608 C24.0731,57.2608 15.4437,63.0137 11.7559,71.8644 C8.06815,80.715 10.1333,90.8195 16.845,97.605 L111.252,192.012 L111.326,191.938"/>
</g>

<g fill="none" stroke="#000000" stroke-opacity="1" stroke-width="13.7195" stroke-linecap="butt" stroke-linejoin="miter" stroke-miterlimit="4" transform="matrix(0.03125,0,0,0.03125,185.4,14)"
font-family="Inter" font-size="11" font-weight="700" font-style="normal" 
>
<path vector-effect="none" fill-rule="nonzero" d="M111.326,191.938 C120.545,201.158 135.517,201.158 144.737,191.938 L239.144,97.5313 C245.929,90.7458 247.921,80.6413 244.233,71.7907 C240.545,62.9401 231.989,57.1871 222.401,57.1871 L33.5875,57.2608 C24.0731,57.2608 15.4437,63.0137 11.7559,71.8644 C8.06815,80.715 10.1333,90.8195 16.845,97.605 L111.252,192.012 L111.326,191.938"/>
</g>

<g fill="#ffffff" fill-opacity="1" stroke="none" transform="matrix(1,0,0,1,123.4,6)"
font-family="Inter" font-size="11" font-weight="700" font-style="normal" 
>
</g>

<g fill="#ffffff" fill-opacity="1" stroke="#00645c" stroke-opacity="1" stroke-width="1" stroke-linecap="square" stroke-linejoin="bevel" transform="matrix(1,0,0,1,0,0)"
font-family="Inter" font-size="11" font-weight="700" font-style="normal" 
>
</g>

<g fill="#ffffff" fill-opacity="1" stroke="#005049" stroke-opacity="1" stroke-width="1.2" stroke-linecap="square" stroke-linejoin="bevel" transform="matrix(1,0,0,1,74,7)"
font-family="Inter" font-size="11" font-weight="700" font-style="normal" 
>
<path vector-effect="none" fill-rule="evenodd" d="M1,11 C1,5.47715 5.92487,1 12,1 L14.4,1 C20.4751,1 25.4,5.47715 25.4,11 C25.4,16.5228 20.4751,21 14.4,21 L12,21 C5.92487,21 1,16.5228 1,11 "/>
</g>

<g fill="#000000" fill-opacity="1" stroke="none" transform="matrix(1,0,0,1,74,7)"
font-family="Inter" font-size="10" font-weight="700" font-style="normal" 
>
<path vector-effect="none" fill-rule="nonzero" d="M12.9411,14.5817 C12.3303,14.5793 11.8053,14.429 11.3661,14.1307 C10.927,13.8324 10.5896,13.4003 10.354,12.8345 C10.1185,12.2687 10.0019,11.5881 10.0043,10.7926 C10.0043,9.99953 10.122,9.32363 10.3576,8.76491 C10.5932,8.2062 10.9305,7.78066 11.3697,7.48828 C11.8088,7.1959 12.3326,7.04972 12.9411,7.04972 C13.5495,7.04972 14.0733,7.1965 14.5124,7.49006 C14.9516,7.78362 15.2895,8.20916 15.5263,8.76669 C15.763,9.32422 15.8802,9.99953 15.8778,10.7926 C15.8778,11.5904 15.7601,12.2723 15.5245,12.8381 C15.2889,13.4039 14.9522,13.8359 14.5142,14.1342 C14.0762,14.4325 13.5518,14.5817 12.9411,14.5817 M12.9411,13.3068 C13.3577,13.3068 13.6903,13.0973 13.9389,12.6783 C14.1875,12.2592 14.3106,11.6307 14.3082,10.7926 C14.3082,10.241 14.252,9.78172 14.1396,9.41477 C14.0271,9.04782 13.8685,8.77202 13.6637,8.58736 C13.4589,8.4027 13.218,8.31037 12.9411,8.31037 C12.5268,8.31037 12.1953,8.51752 11.9467,8.93182 C11.6982,9.34612 11.5727,9.96638 11.5703,10.7926 C11.5703,11.3513 11.6265,11.8171 11.739,12.19 C11.8514,12.5629 12.0107,12.8422 12.2166,13.0281 C12.4226,13.2139 12.6641,13.3068 12.9411,13.3068 "/>
</g>

<g fill="#ffffff" fill-opacity="1" stroke="#00645c" stroke-opacity="1" stroke-width="1" stroke-linecap="square" stroke-linejoin="bevel" transform="matrix(1,0,0,1,0,0)"
font-family="Inter" font-size="11" font-weight="700" font-style="normal" 
>
</g>

<g fill="#ffffff" fill-opacity="1" stroke="#00645c" stroke-opacity="1" stroke-width="1" stroke-linecap="square" stroke-linejoin="bevel" transform="matrix(1,0,0,1,0,0)"
font-family="Inter" font-size="11" font-weight="700" font-style="normal" 
>
</g>

<g fill="#ffffff" fill-opacity="1" stroke="#00645c" stroke-opacity="1" stroke-width="1" stroke-linecap="square" stroke-linejoin="bevel" transform="matrix(1,0,0,1,0,0)"
font-family="Inter" font-size="11" font-weight="700" font-style="normal" 
>
</g>

<g fill="#ffffff" fill-opacity="1" stroke="#00645c" stroke-opacity="1" stroke-width="1" stroke-linecap="square" stroke-linejoin="bevel" transform="matrix(1,0,0,1,0,0)"
font-family="Inter" font-size="11" font-weight="700" font-style="normal" 
>
</g>

<g fill="none" stroke="#000000" stroke-opacity="1" stroke-width="1" stroke-linecap="square" stroke-linejoin="bevel" transform="matrix(1,0,0,1,0,0)"
font-family=".AppleSystemUIFont" font-size="13" font-weight="400" font-style="normal" 
>
</g>
</g>
</svg>
