<?xml version="1.0" encoding="UTF-8" standalone="no"?>
<svg width="158.044mm" height="15.5222mm"
 viewBox="0 0 448 44"
 xmlns="http://www.w3.org/2000/svg" xmlns:xlink="http://www.w3.org/1999/xlink" version="1.2" baseProfile="tiny">
<title>Abstract block</title>
<desc>block_hubs_buwizz3_light_port_set_led_color_rgb</desc>
<defs>
</defs>
<g fill="none" stroke="black" stroke-width="1" fill-rule="evenodd" stroke-linecap="square" stroke-linejoin="bevel" >

<g fill="none" stroke="#000000" stroke-opacity="1" stroke-width="1" stroke-linecap="square" stroke-linejoin="bevel" transform="matrix(1,0,0,1,0,0)"
font-family=".AppleSystemUIFont" font-size="13" font-weight="400" font-style="normal" 
>
</g>

<g fill="none" stroke="#000000" stroke-opacity="1" stroke-width="1" stroke-linecap="square" stroke-linejoin="bevel" transform="matrix(1,0,0,1,0,0)"
font-family=".AppleSystemUIFont" font-size="13" font-weight="400" font-style="normal" 
>
</g>

<g fill="#935df5" fill-opacity="1" stroke="#6c25f1" stroke-opacity="1" stroke-width="1.2" stroke-linecap="square" stroke-linejoin="bevel" transform="matrix(1,0,0,1,0,0)"
font-family=".AppleSystemUIFont" font-size="13" font-weight="400" font-style="normal" 
>
<path vector-effect="none" fill-rule="evenodd" d="M0.5,4.5 L1.04612,2.48112 L2.48112,1.04612 L4.5,0.5 L9.625,0.5 L10.416,0.976563 L11.1719,1.6875 L11.998,2.67969 L13,4 L13.7559,4.66016 L14.5469,5.15625 L15.4082,5.51172 L16.375,5.75 L17.4824,5.89453 L18.7656,5.96875 L20.2598,5.99609 L22,6 L23.7402,5.99609 L25.2344,5.96875 L26.5176,5.89453 L27.625,5.75 L28.5918,5.51172 L29.4531,5.15625 L30.2441,4.66016 L31,4 L32.002,2.67969 L32.8281,1.6875 L33.584,0.976563 L34.375,0.5 L442.7,0.5 L444.719,1.04612 L446.154,2.48112 L446.7,4.5 L446.7,31.5 L446.154,33.5189 L444.719,34.9539 L442.7,35.5 L34.375,35.5 L33.584,35.9766 L32.8281,36.6875 L32.002,37.6797 L31,39 L30.2441,39.6602 L29.4531,40.1563 L28.5918,40.5117 L27.625,40.75 L26.5176,40.8945 L25.2344,40.9688 L23.7402,40.9961 L22,41 L20.2598,40.9961 L18.7656,40.9688 L17.4824,40.8945 L16.375,40.75 L15.4082,40.5117 L14.5469,40.1563 L13.7559,39.6602 L13,39 L11.998,37.6797 L11.1719,36.6875 L10.416,35.9766 L9.625,35.5 L4.5,35.5 L2.48112,34.9539 L1.04612,33.5189 L0.5,31.5 L0.5,4.5"/>
</g>

<g fill="#ffffff" fill-opacity="1" stroke="none" transform="matrix(1,0,0,1,0,0)"
font-family="Inter" font-size="11" font-weight="700" font-style="normal" 
>
<path vector-effect="none" fill-rule="nonzero" d="M198.5,16.5391 L196.977,16.6328 C196.951,16.5026 196.895,16.3848 196.809,16.2793 C196.723,16.1738 196.61,16.0892 196.471,16.0254 C196.331,15.9616 196.165,15.9297 195.973,15.9297 C195.715,15.9297 195.497,15.9837 195.32,16.0918 C195.143,16.1999 195.055,16.3438 195.055,16.5234 C195.055,16.6667 195.112,16.7878 195.227,16.8867 C195.341,16.9857 195.538,17.0651 195.816,17.125 L196.902,17.3438 C197.486,17.4635 197.921,17.6563 198.207,17.9219 C198.493,18.1875 198.637,18.5365 198.637,18.9688 C198.637,19.362 198.521,19.707 198.291,20.0039 C198.061,20.3008 197.745,20.5319 197.346,20.6973 C196.946,20.8626 196.486,20.9453 195.965,20.9453 C195.171,20.9453 194.538,20.7793 194.068,20.4473 C193.598,20.1152 193.323,19.6628 193.242,19.0898 L194.879,19.0039 C194.928,19.2461 195.048,19.4303 195.238,19.5566 C195.428,19.6829 195.672,19.7461 195.969,19.7461 C196.26,19.7461 196.495,19.6895 196.674,19.5762 C196.852,19.4629 196.943,19.3164 196.945,19.1367 C196.943,18.9857 196.879,18.8613 196.754,18.7637 C196.629,18.666 196.436,18.5911 196.176,18.5391 L195.137,18.332 C194.551,18.2148 194.115,18.0117 193.83,17.7227 C193.545,17.4336 193.402,17.0651 193.402,16.6172 C193.402,16.2318 193.507,15.8997 193.717,15.6211 C193.926,15.3424 194.222,15.1276 194.604,14.9766 C194.985,14.8255 195.432,14.75 195.945,14.75 C196.703,14.75 197.3,14.9102 197.736,15.2305 C198.173,15.5508 198.427,15.987 198.5,16.5391 M202.414,20.9453 C201.797,20.9453 201.266,20.8197 200.822,20.5684 C200.378,20.3171 200.036,19.9603 199.797,19.498 C199.557,19.0358 199.438,18.4883 199.438,17.8555 C199.438,17.2383 199.557,16.6966 199.797,16.2305 C200.036,15.7643 200.374,15.401 200.811,15.1406 C201.247,14.8802 201.759,14.75 202.348,14.75 C202.743,14.75 203.113,14.8132 203.455,14.9395 C203.798,15.0658 204.097,15.2552 204.354,15.5078 C204.61,15.7604 204.81,16.0775 204.953,16.459 C205.096,16.8405 205.168,17.2865 205.168,17.7969 L205.168,18.2539 L200.102,18.2539 L200.102,17.2227 L203.602,17.2227 C203.602,16.9831 203.549,16.7708 203.445,16.5859 C203.341,16.401 203.197,16.2559 203.014,16.1504 C202.83,16.0449 202.617,15.9922 202.375,15.9922 C202.122,15.9922 201.899,16.0501 201.705,16.166 C201.511,16.2819 201.359,16.4368 201.25,16.6309 C201.141,16.8249 201.085,17.0404 201.082,17.2773 L201.082,18.2578 C201.082,18.5547 201.137,18.8112 201.248,19.0273 C201.359,19.2435 201.516,19.4102 201.719,19.5273 C201.922,19.6445 202.163,19.7031 202.441,19.7031 C202.626,19.7031 202.796,19.6771 202.949,19.625 C203.103,19.5729 203.234,19.4948 203.344,19.3906 C203.453,19.2865 203.536,19.1589 203.594,19.0078 L205.133,19.1094 C205.055,19.4792 204.895,19.8014 204.654,20.0762 C204.413,20.3509 204.104,20.5645 203.725,20.7168 C203.346,20.8691 202.909,20.9453 202.414,20.9453 M209.434,14.8281 L209.434,16.0781 L205.82,16.0781 L205.82,14.8281 L209.434,14.8281 M206.641,13.3906 L208.305,13.3906 L208.305,18.9844 C208.305,19.138 208.328,19.2572 208.375,19.3418 C208.422,19.4264 208.488,19.4857 208.572,19.5195 C208.657,19.5534 208.755,19.5703 208.867,19.5703 C208.945,19.5703 209.023,19.5632 209.102,19.5488 C209.18,19.5345 209.24,19.5234 209.281,19.5156 L209.543,20.7539 C209.46,20.7799 209.342,20.8105 209.191,20.8457 C209.04,20.8809 208.857,20.9023 208.641,20.9102 C208.24,20.9258 207.889,20.8724 207.588,20.75 C207.287,20.6276 207.053,20.4375 206.887,20.1797 C206.72,19.9219 206.638,19.5964 206.641,19.2031 L206.641,13.3906 M213.055,23.0781 L213.055,14.8281 L214.695,14.8281 L214.695,15.8359 L214.77,15.8359 C214.842,15.6745 214.949,15.5098 215.088,15.3418 C215.227,15.1738 215.41,15.0332 215.635,14.9199 C215.86,14.8066 216.141,14.75 216.477,14.75 C216.914,14.75 217.318,14.8639 217.688,15.0918 C218.057,15.3197 218.353,15.6621 218.574,16.1191 C218.796,16.5762 218.906,17.1484 218.906,17.8359 C218.906,18.5052 218.799,19.0697 218.584,19.5293 C218.369,19.9889 218.077,20.3366 217.709,20.5723 C217.34,20.8079 216.928,20.9258 216.473,20.9258 C216.15,20.9258 215.876,20.8724 215.65,20.7656 C215.425,20.6589 215.241,20.5241 215.098,20.3613 C214.954,20.1986 214.845,20.0339 214.77,19.8672 L214.719,19.8672 L214.719,23.0781 L213.055,23.0781 M214.684,17.8281 C214.684,18.1849 214.733,18.4961 214.832,18.7617 C214.931,19.0273 215.074,19.2337 215.262,19.3809 C215.449,19.528 215.677,19.6016 215.945,19.6016 C216.216,19.6016 216.445,19.5267 216.633,19.377 C216.82,19.2272 216.963,19.0189 217.061,18.752 C217.158,18.485 217.207,18.1771 217.207,17.8281 C217.207,17.4818 217.159,17.1771 217.063,16.9141 C216.966,16.651 216.824,16.4453 216.637,16.2969 C216.449,16.1484 216.219,16.0742 215.945,16.0742 C215.674,16.0742 215.446,16.1458 215.26,16.2891 C215.074,16.4323 214.931,16.6354 214.832,16.8984 C214.733,17.1615 214.684,17.4714 214.684,17.8281 M222.719,20.9453 C222.112,20.9453 221.588,20.8158 221.146,20.5566 C220.705,20.2975 220.365,19.9355 220.125,19.4707 C219.885,19.0059 219.766,18.4661 219.766,17.8516 C219.766,17.2318 219.885,16.6895 220.125,16.2246 C220.365,15.7598 220.705,15.3978 221.146,15.1387 C221.588,14.8796 222.112,14.75 222.719,14.75 C223.326,14.75 223.85,14.8796 224.291,15.1387 C224.732,15.3978 225.073,15.7598 225.313,16.2246 C225.552,16.6895 225.672,17.2318 225.672,17.8516 C225.672,18.4661 225.552,19.0059 225.313,19.4707 C225.073,19.9355 224.732,20.2975 224.291,20.5566 C223.85,20.8158 223.326,20.9453 222.719,20.9453 M222.727,19.6563 C223.003,19.6563 223.233,19.5775 223.418,19.4199 C223.603,19.2624 223.743,19.0469 223.838,18.7734 C223.933,18.5 223.98,18.1888 223.98,17.8398 C223.98,17.4909 223.933,17.1797 223.838,16.9063 C223.743,16.6328 223.603,16.4167 223.418,16.2578 C223.233,16.099 223.003,16.0195 222.727,16.0195 C222.448,16.0195 222.214,16.099 222.025,16.2578 C221.837,16.4167 221.695,16.6328 221.6,16.9063 C221.505,17.1797 221.457,17.4909 221.457,17.8398 C221.457,18.1888 221.505,18.5 221.6,18.7734 C221.695,19.0469 221.837,19.2624 222.025,19.4199 C222.214,19.5775 222.448,19.6563 222.727,19.6563 M226.758,20.8281 L226.758,14.8281 L228.371,14.8281 L228.371,15.875 L228.434,15.875 C228.543,15.5026 228.727,15.2207 228.984,15.0293 C229.242,14.8379 229.539,14.7422 229.875,14.7422 C229.958,14.7422 230.048,14.7474 230.145,14.7578 C230.241,14.7682 230.326,14.7826 230.398,14.8008 L230.398,16.2773 C230.32,16.2539 230.212,16.2331 230.074,16.2148 C229.936,16.1966 229.81,16.1875 229.695,16.1875 C229.451,16.1875 229.232,16.2402 229.041,16.3457 C228.85,16.4512 228.699,16.5977 228.588,16.7852 C228.477,16.9727 228.422,17.1888 228.422,17.4336 L228.422,20.8281 L226.758,20.8281 M234.73,14.8281 L234.73,16.0781 L231.117,16.0781 L231.117,14.8281 L234.73,14.8281 M231.938,13.3906 L233.602,13.3906 L233.602,18.9844 C233.602,19.138 233.625,19.2572 233.672,19.3418 C233.719,19.4264 233.785,19.4857 233.869,19.5195 C233.954,19.5534 234.052,19.5703 234.164,19.5703 C234.242,19.5703 234.32,19.5632 234.398,19.5488 C234.477,19.5345 234.536,19.5234 234.578,19.5156 L234.84,20.7539 C234.757,20.7799 234.639,20.8105 234.488,20.8457 C234.337,20.8809 234.154,20.9023 233.938,20.9102 C233.536,20.9258 233.186,20.8724 232.885,20.75 C232.584,20.6276 232.35,20.4375 232.184,20.1797 C232.017,19.9219 231.935,19.5964 231.938,19.2031 L231.938,13.3906 M238.383,20.8281 L238.383,12.8281 L240.074,12.8281 L240.074,19.4336 L243.504,19.4336 L243.504,20.8281 L238.383,20.8281 M244.617,20.8281 L244.617,12.8281 L250.008,12.8281 L250.008,14.2227 L246.309,14.2227 L246.309,16.1289 L249.73,16.1289 L249.73,17.5234 L246.309,17.5234 L246.309,19.4336 L250.023,19.4336 L250.023,20.8281 L244.617,20.8281 M254.188,20.8281 L251.352,20.8281 L251.352,12.8281 L254.211,12.8281 C255.016,12.8281 255.708,12.9876 256.289,13.3066 C256.87,13.6257 257.317,14.0833 257.631,14.6797 C257.945,15.276 258.102,15.9896 258.102,16.8203 C258.102,17.6536 257.945,18.3698 257.631,18.9688 C257.317,19.5677 256.868,20.0273 256.283,20.3477 C255.699,20.668 255,20.8281 254.188,20.8281 M253.043,19.3789 L254.117,19.3789 C254.617,19.3789 255.038,19.2897 255.381,19.1113 C255.723,18.9329 255.981,18.6556 256.154,18.2793 C256.327,17.903 256.414,17.4167 256.414,16.8203 C256.414,16.2292 256.327,15.7461 256.154,15.3711 C255.981,14.9961 255.724,14.7201 255.383,14.543 C255.042,14.3659 254.621,14.2773 254.121,14.2773 L253.043,14.2773 L253.043,19.3789 M264.578,20.9453 C263.964,20.9453 263.436,20.8145 262.994,20.5527 C262.553,20.291 262.214,19.9271 261.979,19.4609 C261.743,18.9948 261.625,18.4583 261.625,17.8516 C261.625,17.237 261.744,16.6973 261.982,16.2324 C262.221,15.7676 262.56,15.4043 263,15.1426 C263.44,14.8809 263.964,14.75 264.57,14.75 C265.094,14.75 265.552,14.8451 265.945,15.0352 C266.339,15.2253 266.65,15.4922 266.879,15.8359 C267.108,16.1797 267.234,16.5833 267.258,17.0469 L265.688,17.0469 C265.643,16.7474 265.527,16.5059 265.338,16.3223 C265.149,16.1387 264.902,16.0469 264.598,16.0469 C264.34,16.0469 264.115,16.1165 263.924,16.2559 C263.732,16.3952 263.583,16.5977 263.477,16.8633 C263.37,17.1289 263.316,17.4505 263.316,17.8281 C263.316,18.2109 263.369,18.5365 263.475,18.8047 C263.58,19.0729 263.729,19.2773 263.922,19.418 C264.115,19.5586 264.34,19.6289 264.598,19.6289 C264.788,19.6289 264.959,19.5898 265.111,19.5117 C265.264,19.4336 265.39,19.3197 265.49,19.1699 C265.59,19.0202 265.656,18.8398 265.688,18.6289 L267.258,18.6289 C267.232,19.0872 267.107,19.4902 266.885,19.8379 C266.662,20.1855 266.355,20.457 265.965,20.6523 C265.574,20.8477 265.112,20.9453 264.578,20.9453 M271.031,20.9453 C270.424,20.9453 269.9,20.8158 269.459,20.5566 C269.018,20.2975 268.677,19.9355 268.438,19.4707 C268.198,19.0059 268.078,18.4661 268.078,17.8516 C268.078,17.2318 268.198,16.6895 268.438,16.2246 C268.677,15.7598 269.018,15.3978 269.459,15.1387 C269.9,14.8796 270.424,14.75 271.031,14.75 C271.638,14.75 272.162,14.8796 272.604,15.1387 C273.045,15.3978 273.385,15.7598 273.625,16.2246 C273.865,16.6895 273.984,17.2318 273.984,17.8516 C273.984,18.4661 273.865,19.0059 273.625,19.4707 C273.385,19.9355 273.045,20.2975 272.604,20.5566 C272.162,20.8158 271.638,20.9453 271.031,20.9453 M271.039,19.6563 C271.315,19.6563 271.546,19.5775 271.73,19.4199 C271.915,19.2624 272.055,19.0469 272.15,18.7734 C272.245,18.5 272.293,18.1888 272.293,17.8398 C272.293,17.4909 272.245,17.1797 272.15,16.9063 C272.055,16.6328 271.915,16.4167 271.73,16.2578 C271.546,16.099 271.315,16.0195 271.039,16.0195 C270.76,16.0195 270.527,16.099 270.338,16.2578 C270.149,16.4167 270.007,16.6328 269.912,16.9063 C269.817,17.1797 269.77,17.4909 269.77,17.8398 C269.77,18.1888 269.817,18.5 269.912,18.7734 C270.007,19.0469 270.149,19.2624 270.338,19.4199 C270.527,19.5775 270.76,19.6563 271.039,19.6563 M276.734,12.8281 L276.734,20.8281 L275.07,20.8281 L275.07,12.8281 L276.734,12.8281 M280.766,20.9453 C280.159,20.9453 279.635,20.8158 279.193,20.5566 C278.752,20.2975 278.411,19.9355 278.172,19.4707 C277.932,19.0059 277.813,18.4661 277.813,17.8516 C277.813,17.2318 277.932,16.6895 278.172,16.2246 C278.411,15.7598 278.752,15.3978 279.193,15.1387 C279.635,14.8796 280.159,14.75 280.766,14.75 C281.372,14.75 281.896,14.8796 282.338,15.1387 C282.779,15.3978 283.12,15.7598 283.359,16.2246 C283.599,16.6895 283.719,17.2318 283.719,17.8516 C283.719,18.4661 283.599,19.0059 283.359,19.4707 C283.12,19.9355 282.779,20.2975 282.338,20.5566 C281.896,20.8158 281.372,20.9453 280.766,20.9453 M280.773,19.6563 C281.049,19.6563 281.28,19.5775 281.465,19.4199 C281.65,19.2624 281.79,19.0469 281.885,18.7734 C281.98,18.5 282.027,18.1888 282.027,17.8398 C282.027,17.4909 281.98,17.1797 281.885,16.9063 C281.79,16.6328 281.65,16.4167 281.465,16.2578 C281.28,16.099 281.049,16.0195 280.773,16.0195 C280.495,16.0195 280.261,16.099 280.072,16.2578 C279.883,16.4167 279.742,16.6328 279.646,16.9063 C279.551,17.1797 279.504,17.4909 279.504,17.8398 C279.504,18.1888 279.551,18.5 279.646,18.7734 C279.742,19.0469 279.883,19.2624 280.072,19.4199 C280.261,19.5775 280.495,19.6563 280.773,19.6563 M284.805,20.8281 L284.805,14.8281 L286.418,14.8281 L286.418,15.875 L286.48,15.875 C286.59,15.5026 286.773,15.2207 287.031,15.0293 C287.289,14.8379 287.586,14.7422 287.922,14.7422 C288.005,14.7422 288.095,14.7474 288.191,14.7578 C288.288,14.7682 288.372,14.7826 288.445,14.8008 L288.445,16.2773 C288.367,16.2539 288.259,16.2331 288.121,16.2148 C287.983,16.1966 287.857,16.1875 287.742,16.1875 C287.497,16.1875 287.279,16.2402 287.088,16.3457 C286.896,16.4512 286.745,16.5977 286.635,16.7852 C286.524,16.9727 286.469,17.1888 286.469,17.4336 L286.469,20.8281 L284.805,20.8281 M295.027,14.8281 L295.027,16.0781 L291.414,16.0781 L291.414,14.8281 L295.027,14.8281 M292.234,13.3906 L293.898,13.3906 L293.898,18.9844 C293.898,19.138 293.922,19.2572 293.969,19.3418 C294.016,19.4264 294.081,19.4857 294.166,19.5195 C294.251,19.5534 294.349,19.5703 294.461,19.5703 C294.539,19.5703 294.617,19.5632 294.695,19.5488 C294.773,19.5345 294.833,19.5234 294.875,19.5156 L295.137,20.7539 C295.053,20.7799 294.936,20.8105 294.785,20.8457 C294.634,20.8809 294.451,20.9023 294.234,20.9102 C293.833,20.9258 293.482,20.8724 293.182,20.75 C292.881,20.6276 292.647,20.4375 292.48,20.1797 C292.314,19.9219 292.232,19.5964 292.234,19.2031 L292.234,13.3906 M298.75,20.9453 C298.143,20.9453 297.619,20.8158 297.178,20.5566 C296.736,20.2975 296.396,19.9355 296.156,19.4707 C295.917,19.0059 295.797,18.4661 295.797,17.8516 C295.797,17.2318 295.917,16.6895 296.156,16.2246 C296.396,15.7598 296.736,15.3978 297.178,15.1387 C297.619,14.8796 298.143,14.75 298.75,14.75 C299.357,14.75 299.881,14.8796 300.322,15.1387 C300.764,15.3978 301.104,15.7598 301.344,16.2246 C301.583,16.6895 301.703,17.2318 301.703,17.8516 C301.703,18.4661 301.583,19.0059 301.344,19.4707 C301.104,19.9355 300.764,20.2975 300.322,20.5566 C299.881,20.8158 299.357,20.9453 298.75,20.9453 M298.758,19.6563 C299.034,19.6563 299.264,19.5775 299.449,19.4199 C299.634,19.2624 299.774,19.0469 299.869,18.7734 C299.964,18.5 300.012,18.1888 300.012,17.8398 C300.012,17.4909 299.964,17.1797 299.869,16.9063 C299.774,16.6328 299.634,16.4167 299.449,16.2578 C299.264,16.099 299.034,16.0195 298.758,16.0195 C298.479,16.0195 298.245,16.099 298.057,16.2578 C297.868,16.4167 297.726,16.6328 297.631,16.9063 C297.536,17.1797 297.488,17.4909 297.488,17.8398 C297.488,18.1888 297.536,18.5 297.631,18.7734 C297.726,19.0469 297.868,19.2624 298.057,19.4199 C298.245,19.5775 298.479,19.6563 298.758,19.6563 "/>
</g>

<g fill="#ffffff" fill-opacity="1" stroke="none" transform="matrix(1,0,0,1,0,0)"
font-family="Inter" font-size="11" font-weight="700" font-style="normal" 
>
<path vector-effect="none" fill-rule="nonzero" d="M310.195,22 L310.195,14 L313.352,14 C313.956,14 314.472,14.1074 314.9,14.3223 C315.329,14.5371 315.656,14.8405 315.881,15.2324 C316.106,15.6243 316.219,16.0846 316.219,16.6133 C316.219,17.1445 316.104,17.6009 315.875,17.9824 C315.646,18.3639 315.314,18.6563 314.881,18.8594 C314.447,19.0625 313.923,19.1641 313.309,19.1641 L311.195,19.1641 L311.195,17.8047 L313.035,17.8047 C313.358,17.8047 313.626,17.7604 313.84,17.6719 C314.053,17.5833 314.213,17.4505 314.318,17.2734 C314.424,17.0964 314.477,16.8763 314.477,16.6133 C314.477,16.3477 314.424,16.1237 314.318,15.9414 C314.213,15.7591 314.053,15.6204 313.838,15.5254 C313.623,15.4303 313.353,15.3828 313.027,15.3828 L311.887,15.3828 L311.887,22 L310.195,22 M314.516,18.3594 L316.504,22 L314.637,22 L312.691,18.3594 L314.516,18.3594"/>
</g>

<g fill="#ffffff" fill-opacity="1" stroke="none" transform="matrix(1,0,0,1,0,0)"
font-family="Inter" font-size="11" font-weight="700" font-style="normal" 
>
<path vector-effect="none" fill-rule="nonzero" d="M361,16.5234 C360.945,16.3333 360.868,16.1647 360.77,16.0176 C360.671,15.8704 360.55,15.7454 360.408,15.6426 C360.266,15.5397 360.105,15.4609 359.924,15.4063 C359.743,15.3516 359.543,15.3242 359.324,15.3242 C358.915,15.3242 358.557,15.4258 358.248,15.6289 C357.939,15.832 357.699,16.127 357.527,16.5137 C357.355,16.9004 357.27,17.3724 357.27,17.9297 C357.27,18.487 357.354,18.9609 357.523,19.3516 C357.693,19.7422 357.932,20.0397 358.242,20.2441 C358.552,20.4486 358.918,20.5508 359.34,20.5508 C359.723,20.5508 360.05,20.4824 360.322,20.3457 C360.594,20.209 360.803,20.0156 360.947,19.7656 C361.092,19.5156 361.164,19.2201 361.164,18.8789 L361.508,18.9297 L359.445,18.9297 L359.445,17.6563 L362.793,17.6563 L362.793,18.6641 C362.793,19.3672 362.645,19.9707 362.348,20.4746 C362.051,20.9785 361.642,21.3665 361.121,21.6387 C360.6,21.9108 360.004,22.0469 359.332,22.0469 C358.582,22.0469 357.923,21.8809 357.355,21.5488 C356.788,21.2168 356.346,20.7441 356.029,20.1309 C355.713,19.5176 355.555,18.7891 355.555,17.9453 C355.555,17.2969 355.649,16.7181 355.838,16.209 C356.027,15.6999 356.292,15.2682 356.633,14.9141 C356.974,14.5599 357.371,14.2904 357.824,14.1055 C358.277,13.9206 358.768,13.8281 359.297,13.8281 C359.75,13.8281 360.172,13.8939 360.563,14.0254 C360.953,14.1569 361.3,14.3424 361.604,14.582 C361.907,14.8216 362.155,15.1061 362.348,15.4355 C362.54,15.765 362.664,16.1276 362.719,16.5234 L361,16.5234"/>
</g>

<g fill="#ffffff" fill-opacity="1" stroke="none" transform="matrix(1,0,0,1,0,0)"
font-family="Inter" font-size="11" font-weight="700" font-style="normal" 
>
<path vector-effect="none" fill-rule="nonzero" d="M401.555,22 L401.555,14 L404.758,14 C405.346,14 405.837,14.0872 406.23,14.2617 C406.624,14.4362 406.919,14.6777 407.117,14.9863 C407.315,15.2949 407.414,15.6497 407.414,16.0508 C407.414,16.3633 407.352,16.6374 407.227,16.873 C407.102,17.1087 406.93,17.3014 406.713,17.4512 C406.495,17.6009 406.247,17.707 405.969,17.7695 L405.969,17.8477 C406.273,17.8607 406.559,17.9466 406.826,18.1055 C407.093,18.2643 407.31,18.4863 407.477,18.7715 C407.643,19.0566 407.727,19.3958 407.727,19.7891 C407.727,20.2135 407.622,20.5918 407.412,20.9238 C407.202,21.2559 406.893,21.5182 406.484,21.7109 C406.076,21.9036 405.572,22 404.973,22 L401.555,22 M403.246,20.6172 L404.625,20.6172 C405.096,20.6172 405.44,20.5267 405.656,20.3457 C405.872,20.1647 405.98,19.9232 405.98,19.6211 C405.98,19.3997 405.927,19.2044 405.82,19.0352 C405.714,18.8659 405.562,18.7331 405.365,18.6367 C405.169,18.5404 404.935,18.4922 404.664,18.4922 L403.246,18.4922 L403.246,20.6172 M403.246,17.3477 L404.5,17.3477 C404.732,17.3477 404.938,17.3066 405.119,17.2246 C405.3,17.1426 405.443,17.026 405.549,16.875 C405.654,16.724 405.707,16.543 405.707,16.332 C405.707,16.043 405.605,15.8099 405.4,15.6328 C405.196,15.4557 404.906,15.3672 404.531,15.3672 L403.246,15.3672 L403.246,17.3477"/>
</g>

<g fill="#ffffff" fill-opacity="1" stroke="none" transform="matrix(0.228,0,0,0.228,11.6,9.6)"
font-family="Inter" font-size="11" font-weight="700" font-style="normal" 
>
<path vector-effect="none" fill-rule="nonzero" d="M30.4107,9.26266 C30.0442,9.26266 29.7491,9.55772 29.7491,9.92424 L29.7491,90.0758 C29.7491,90.4423 30.0442,90.7373 30.4107,90.7373 L69.5893,90.7373 C69.9558,90.7373 70.2509,90.4423 70.2509,90.0758 L70.2509,9.92424 C70.2509,9.55772 69.9558,9.26266 69.5893,9.26266 L30.4107,9.26266 M34.1383,11.8616 L44.5536,11.8616 C45.5822,11.8616 46.4101,12.6897 46.4101,13.7184 L46.4101,16.3708 C46.4101,17.3995 45.5822,18.2277 44.5536,18.2277 L34.1383,18.2277 C33.1096,18.2277 32.2817,17.3995 32.2817,16.3708 L32.2817,13.7184 C32.2817,12.6897 33.1096,11.8616 34.1383,11.8616 M55.3044,11.8818 L65.7194,11.8818 C66.748,11.8818 67.5762,12.71 67.5762,13.7386 L67.5762,16.3911 C67.5762,17.4197 66.748,18.2479 65.7194,18.2479 L55.3044,18.2479 C54.2757,18.2479 53.4475,17.4197 53.4475,16.3911 L53.4475,13.7386 C53.4475,12.71 54.2757,11.8818 55.3044,11.8818 M36.022,48.0924 C37.0755,48.0922 37.9298,48.9459 37.9302,49.9994 L37.9302,50 C37.9301,51.0535 37.0761,51.9075 36.0226,51.9076 C34.969,51.9077 34.1149,51.0538 34.1147,50.0003 C34.1146,48.9468 34.9685,48.0926 36.022,48.0924 M45.2251,47.997 L54.7749,47.997 C55.746,47.997 56.5279,49.0289 56.5279,50 C56.5279,50.9712 55.746,52.003 54.7749,52.003 L45.2251,52.003 C44.254,52.003 43.4721,50.9712 43.4721,50 C43.4721,49.0289 44.254,47.997 45.2251,47.997 M34.2035,81.3372 L44.6185,81.3372 C45.6471,81.3372 46.4753,82.1654 46.4753,83.194 L46.4753,85.8465 C46.4753,86.8751 45.6471,87.7033 44.6185,87.7033 L34.2035,87.7033 C33.1748,87.7033 32.3466,86.8751 32.3466,85.8465 L32.3466,83.194 C32.3466,82.1654 33.1748,81.3372 34.2035,81.3372 M55.3693,81.3577 L65.7846,81.3577 C66.8132,81.3577 67.6411,82.1856 67.6411,83.2143 L67.6411,85.867 C67.6411,86.8957 66.8132,87.7236 65.7846,87.7236 L55.3693,87.7236 C54.3407,87.7236 53.5127,86.8957 53.5127,85.867 L53.5127,83.2143 C53.5127,82.1856 54.3407,81.3577 55.3693,81.3577 "/>
</g>

<g fill="none" stroke="#000000" stroke-opacity="1" stroke-width="1.1625" stroke-linecap="round" stroke-linejoin="round" transform="matrix(0.228,0,0,0.228,11.6,9.6)"
font-family="Inter" font-size="11" font-weight="700" font-style="normal" 
>
<path vector-effect="none" fill-rule="nonzero" d="M30.4107,9.26266 C30.0442,9.26266 29.7491,9.55772 29.7491,9.92424 L29.7491,90.0758 C29.7491,90.4423 30.0442,90.7373 30.4107,90.7373 L69.5893,90.7373 C69.9558,90.7373 70.2509,90.4423 70.2509,90.0758 L70.2509,9.92424 C70.2509,9.55772 69.9558,9.26266 69.5893,9.26266 L30.4107,9.26266 M34.1383,11.8616 L44.5536,11.8616 C45.5822,11.8616 46.4101,12.6897 46.4101,13.7184 L46.4101,16.3708 C46.4101,17.3995 45.5822,18.2277 44.5536,18.2277 L34.1383,18.2277 C33.1096,18.2277 32.2817,17.3995 32.2817,16.3708 L32.2817,13.7184 C32.2817,12.6897 33.1096,11.8616 34.1383,11.8616 M55.3044,11.8818 L65.7194,11.8818 C66.748,11.8818 67.5762,12.71 67.5762,13.7386 L67.5762,16.3911 C67.5762,17.4197 66.748,18.2479 65.7194,18.2479 L55.3044,18.2479 C54.2757,18.2479 53.4475,17.4197 53.4475,16.3911 L53.4475,13.7386 C53.4475,12.71 54.2757,11.8818 55.3044,11.8818 M36.022,48.0924 C37.0755,48.0922 37.9298,48.9459 37.9302,49.9994 L37.9302,50 C37.9301,51.0535 37.0761,51.9075 36.0226,51.9076 C34.969,51.9077 34.1149,51.0538 34.1147,50.0003 C34.1146,48.9468 34.9685,48.0926 36.022,48.0924 M45.2251,47.997 L54.7749,47.997 C55.746,47.997 56.5279,49.0289 56.5279,50 C56.5279,50.9712 55.746,52.003 54.7749,52.003 L45.2251,52.003 C44.254,52.003 43.4721,50.9712 43.4721,50 C43.4721,49.0289 44.254,47.997 45.2251,47.997 M34.2035,81.3372 L44.6185,81.3372 C45.6471,81.3372 46.4753,82.1654 46.4753,83.194 L46.4753,85.8465 C46.4753,86.8751 45.6471,87.7033 44.6185,87.7033 L34.2035,87.7033 C33.1748,87.7033 32.3466,86.8751 32.3466,85.8465 L32.3466,83.194 C32.3466,82.1654 33.1748,81.3372 34.2035,81.3372 M55.3693,81.3577 L65.7846,81.3577 C66.8132,81.3577 67.6411,82.1856 67.6411,83.2143 L67.6411,85.867 C67.6411,86.8957 66.8132,87.7236 65.7846,87.7236 L55.3693,87.7236 C54.3407,87.7236 53.5127,86.8957 53.5127,85.867 L53.5127,83.2143 C53.5127,82.1856 54.3407,81.3577 55.3693,81.3577 "/>
</g>

<g fill="none" stroke="#000000" stroke-opacity="1" stroke-width="1.53453" stroke-linecap="round" stroke-linejoin="round" transform="matrix(0.228,0,0,0.228,11.6,9.6)"
font-family="Inter" font-size="11" font-weight="700" font-style="normal" 
>
<path vector-effect="none" fill-rule="nonzero" d="M30.4107,9.26266 C30.0442,9.26266 29.7491,9.55772 29.7491,9.92424 L29.7491,90.0758 C29.7491,90.4423 30.0442,90.7373 30.4107,90.7373 L69.5893,90.7373 C69.9558,90.7373 70.2509,90.4423 70.2509,90.0758 L70.2509,9.92424 C70.2509,9.55772 69.9558,9.26266 69.5893,9.26266 L30.4107,9.26266"/>
</g>

<g fill="#ffffff" fill-opacity="1" stroke="none" transform="matrix(0.259165,0,0,0.259165,9.97215,8.30092)"
font-family="Inter" font-size="11" font-weight="700" font-style="normal" 
>
<path vector-effect="none" fill-rule="evenodd" d="M43.9298,32.0312 C43.9298,31.8609 44.0679,31.7227 44.2383,31.7227 L56.25,31.7227 C56.4204,31.7227 56.5585,31.8609 56.5585,32.0312 C56.5585,32.2016 56.4204,32.3398 56.25,32.3398 L44.2383,32.3398 C44.0679,32.3398 43.9298,32.2016 43.9298,32.0312 "/>
</g>

<g fill="none" stroke="#000000" stroke-opacity="1" stroke-width="0.878639" stroke-linecap="round" stroke-linejoin="round" transform="matrix(0.259165,0,0,0.259165,9.97215,8.30092)"
font-family="Inter" font-size="11" font-weight="700" font-style="normal" 
>
<path vector-effect="none" fill-rule="evenodd" d="M43.9298,32.0312 C43.9298,31.8609 44.0679,31.7227 44.2383,31.7227 L56.25,31.7227 C56.4204,31.7227 56.5585,31.8609 56.5585,32.0312 C56.5585,32.2016 56.4204,32.3398 56.25,32.3398 L44.2383,32.3398 C44.0679,32.3398 43.9298,32.2016 43.9298,32.0312 "/>
</g>

<g fill="#ffffff" fill-opacity="1" stroke="none" transform="matrix(0.259165,0,0,0.259165,9.97215,8.30092)"
font-family="Inter" font-size="11" font-weight="700" font-style="normal" 
>
<path vector-effect="none" fill-rule="evenodd" d="M43.9786,29.1016 C43.9786,28.9312 44.1167,28.793 44.2871,28.793 L56.2988,28.793 C56.4692,28.793 56.6074,28.9312 56.6074,29.1016 C56.6074,29.272 56.4692,29.4101 56.2988,29.4101 L44.2871,29.4101 C44.1167,29.4101 43.9786,29.272 43.9786,29.1016 "/>
</g>

<g fill="none" stroke="#000000" stroke-opacity="1" stroke-width="0.878639" stroke-linecap="round" stroke-linejoin="round" transform="matrix(0.259165,0,0,0.259165,9.97215,8.30092)"
font-family="Inter" font-size="11" font-weight="700" font-style="normal" 
>
<path vector-effect="none" fill-rule="evenodd" d="M43.9786,29.1016 C43.9786,28.9312 44.1167,28.793 44.2871,28.793 L56.2988,28.793 C56.4692,28.793 56.6074,28.9312 56.6074,29.1016 C56.6074,29.272 56.4692,29.4101 56.2988,29.4101 L44.2871,29.4101 C44.1167,29.4101 43.9786,29.272 43.9786,29.1016 "/>
</g>

<g fill="#ffffff" fill-opacity="1" stroke="none" transform="matrix(0.259165,0,0,0.259165,9.97215,8.30092)"
font-family="Inter" font-size="11" font-weight="700" font-style="normal" 
>
<path vector-effect="none" fill-rule="evenodd" d="M46.4813,27.1552 C46.4813,27.0313 46.5817,26.9308 46.7057,26.9308 L46.7057,26.9308 C46.8296,26.9308 46.9301,27.0313 46.9301,27.1552 L46.9301,28.3637 C46.9301,28.4876 46.8296,28.5881 46.7057,28.5881 L46.7057,28.5881 C46.5817,28.5881 46.4813,28.4876 46.4813,28.3637 L46.4813,27.1552"/>
</g>

<g fill="none" stroke="#000000" stroke-opacity="1" stroke-width="0.90975" stroke-linecap="round" stroke-linejoin="round" transform="matrix(0.259165,0,0,0.259165,9.97215,8.30092)"
font-family="Inter" font-size="11" font-weight="700" font-style="normal" 
>
<path vector-effect="none" fill-rule="evenodd" d="M46.4813,27.1552 C46.4813,27.0313 46.5817,26.9308 46.7057,26.9308 L46.7057,26.9308 C46.8296,26.9308 46.9301,27.0313 46.9301,27.1552 L46.9301,28.3637 C46.9301,28.4876 46.8296,28.5881 46.7057,28.5881 L46.7057,28.5881 C46.5817,28.5881 46.4813,28.4876 46.4813,28.3637 L46.4813,27.1552"/>
</g>

<g fill="#ffffff" fill-opacity="1" stroke="none" transform="matrix(0.259165,0,0,0.259165,9.97215,8.30092)"
font-family="Inter" font-size="11" font-weight="700" font-style="normal" 
>
<path vector-effect="none" fill-rule="evenodd" d="M53.7063,27.1207 C53.7063,26.9968 53.8068,26.8963 53.9307,26.8963 L53.9307,26.8963 C54.0546,26.8963 54.1551,26.9968 54.1551,27.1207 L54.1551,28.3292 C54.1551,28.4531 54.0546,28.5536 53.9307,28.5536 L53.9307,28.5536 C53.8068,28.5536 53.7063,28.4531 53.7063,28.3292 L53.7063,27.1207"/>
</g>

<g fill="none" stroke="#000000" stroke-opacity="1" stroke-width="0.90975" stroke-linecap="round" stroke-linejoin="round" transform="matrix(0.259165,0,0,0.259165,9.97215,8.30092)"
font-family="Inter" font-size="11" font-weight="700" font-style="normal" 
>
<path vector-effect="none" fill-rule="evenodd" d="M53.7063,27.1207 C53.7063,26.9968 53.8068,26.8963 53.9307,26.8963 L53.9307,26.8963 C54.0546,26.8963 54.1551,26.9968 54.1551,27.1207 L54.1551,28.3292 C54.1551,28.4531 54.0546,28.5536 53.9307,28.5536 L53.9307,28.5536 C53.8068,28.5536 53.7063,28.4531 53.7063,28.3292 L53.7063,27.1207"/>
</g>

<g fill="#ffffff" fill-opacity="1" stroke="none" transform="matrix(0.259165,0,0,-0.259165,9.97215,33.5743)"
font-family="Inter" font-size="11" font-weight="700" font-style="normal" 
>
<path vector-effect="none" fill-rule="evenodd" d="M43.9298,32.0312 C43.9298,31.8609 44.0679,31.7227 44.2383,31.7227 L56.25,31.7227 C56.4204,31.7227 56.5585,31.8609 56.5585,32.0312 C56.5585,32.2016 56.4204,32.3398 56.25,32.3398 L44.2383,32.3398 C44.0679,32.3398 43.9298,32.2016 43.9298,32.0312 "/>
</g>

<g fill="none" stroke="#000000" stroke-opacity="1" stroke-width="0.878639" stroke-linecap="round" stroke-linejoin="round" transform="matrix(0.259165,0,0,-0.259165,9.97215,33.5743)"
font-family="Inter" font-size="11" font-weight="700" font-style="normal" 
>
<path vector-effect="none" fill-rule="evenodd" d="M43.9298,32.0312 C43.9298,31.8609 44.0679,31.7227 44.2383,31.7227 L56.25,31.7227 C56.4204,31.7227 56.5585,31.8609 56.5585,32.0312 C56.5585,32.2016 56.4204,32.3398 56.25,32.3398 L44.2383,32.3398 C44.0679,32.3398 43.9298,32.2016 43.9298,32.0312 "/>
</g>

<g fill="#ffffff" fill-opacity="1" stroke="none" transform="matrix(0.259165,0,0,-0.259165,9.97215,33.5743)"
font-family="Inter" font-size="11" font-weight="700" font-style="normal" 
>
<path vector-effect="none" fill-rule="evenodd" d="M43.9786,29.1016 C43.9786,28.9312 44.1167,28.793 44.2871,28.793 L56.2988,28.793 C56.4692,28.793 56.6074,28.9312 56.6074,29.1016 C56.6074,29.272 56.4692,29.4101 56.2988,29.4101 L44.2871,29.4101 C44.1167,29.4101 43.9786,29.272 43.9786,29.1016 "/>
</g>

<g fill="none" stroke="#000000" stroke-opacity="1" stroke-width="0.878639" stroke-linecap="round" stroke-linejoin="round" transform="matrix(0.259165,0,0,-0.259165,9.97215,33.5743)"
font-family="Inter" font-size="11" font-weight="700" font-style="normal" 
>
<path vector-effect="none" fill-rule="evenodd" d="M43.9786,29.1016 C43.9786,28.9312 44.1167,28.793 44.2871,28.793 L56.2988,28.793 C56.4692,28.793 56.6074,28.9312 56.6074,29.1016 C56.6074,29.272 56.4692,29.4101 56.2988,29.4101 L44.2871,29.4101 C44.1167,29.4101 43.9786,29.272 43.9786,29.1016 "/>
</g>

<g fill="#ffffff" fill-opacity="1" stroke="none" transform="matrix(0.259165,0,0,-0.259165,9.97215,33.5743)"
font-family="Inter" font-size="11" font-weight="700" font-style="normal" 
>
<path vector-effect="none" fill-rule="evenodd" d="M46.4813,27.1552 C46.4813,27.0313 46.5817,26.9308 46.7057,26.9308 L46.7057,26.9308 C46.8296,26.9308 46.9301,27.0313 46.9301,27.1552 L46.9301,28.3637 C46.9301,28.4876 46.8296,28.5881 46.7057,28.5881 L46.7057,28.5881 C46.5817,28.5881 46.4813,28.4876 46.4813,28.3637 L46.4813,27.1552"/>
</g>

<g fill="none" stroke="#000000" stroke-opacity="1" stroke-width="0.90975" stroke-linecap="round" stroke-linejoin="round" transform="matrix(0.259165,0,0,-0.259165,9.97215,33.5743)"
font-family="Inter" font-size="11" font-weight="700" font-style="normal" 
>
<path vector-effect="none" fill-rule="evenodd" d="M46.4813,27.1552 C46.4813,27.0313 46.5817,26.9308 46.7057,26.9308 L46.7057,26.9308 C46.8296,26.9308 46.9301,27.0313 46.9301,27.1552 L46.9301,28.3637 C46.9301,28.4876 46.8296,28.5881 46.7057,28.5881 L46.7057,28.5881 C46.5817,28.5881 46.4813,28.4876 46.4813,28.3637 L46.4813,27.1552"/>
</g>

<g fill="#ffffff" fill-opacity="1" stroke="none" transform="matrix(0.259165,0,0,-0.259165,9.97215,33.5743)"
font-family="Inter" font-size="11" font-weight="700" font-style="normal" 
>
<path vector-effect="none" fill-rule="evenodd" d="M53.7063,27.1207 C53.7063,26.9968 53.8068,26.8963 53.9307,26.8963 L53.9307,26.8963 C54.0546,26.8963 54.1551,26.9968 54.1551,27.1207 L54.1551,28.3292 C54.1551,28.4531 54.0546,28.5536 53.9307,28.5536 L53.9307,28.5536 C53.8068,28.5536 53.7063,28.4531 53.7063,28.3292 L53.7063,27.1207"/>
</g>

<g fill="none" stroke="#000000" stroke-opacity="1" stroke-width="0.90975" stroke-linecap="round" stroke-linejoin="round" transform="matrix(0.259165,0,0,-0.259165,9.97215,33.5743)"
font-family="Inter" font-size="11" font-weight="700" font-style="normal" 
>
<path vector-effect="none" fill-rule="evenodd" d="M53.7063,27.1207 C53.7063,26.9968 53.8068,26.8963 53.9307,26.8963 L53.9307,26.8963 C54.0546,26.8963 54.1551,26.9968 54.1551,27.1207 L54.1551,28.3292 C54.1551,28.4531 54.0546,28.5536 53.9307,28.5536 L53.9307,28.5536 C53.8068,28.5536 53.7063,28.4531 53.7063,28.3292 L53.7063,27.1207"/>
</g>

<g fill="#ffffff" fill-opacity="1" stroke="none" transform="matrix(1,0,0,1,0,0)"
font-family="Inter" font-size="11" font-weight="700" font-style="normal" 
>
</g>

<g fill="#ffffff" fill-opacity="1" stroke="#6c25f1" stroke-opacity="1" stroke-width="1" stroke-linecap="square" stroke-linejoin="bevel" transform="matrix(1,0,0,1,0,0)"
font-family="Inter" font-size="11" font-weight="700" font-style="normal" 
>
<polyline fill="none" vector-effect="none" points="45,11 45,31 " />
</g>

<g fill="#ffffff" fill-opacity="1" stroke="#6c25f1" stroke-opacity="1" stroke-width="1" stroke-linecap="square" stroke-linejoin="bevel" transform="matrix(1,0,0,1,0,0)"
font-family="Inter" font-size="11" font-weight="700" font-style="normal" 
>
</g>

<g fill="#ffffff" fill-opacity="1" stroke="#6c25f1" stroke-opacity="1" stroke-width="1" stroke-linecap="square" stroke-linejoin="bevel" transform="matrix(1,0,0,1,0,0)"
font-family="Inter" font-size="11" font-weight="700" font-style="normal" 
>
</g>

<g fill="#ffffff" fill-opacity="1" stroke="#6c25f1" stroke-opacity="1" stroke-width="1" stroke-linecap="square" stroke-linejoin="bevel" transform="matrix(1,0,0,1,0,0)"
font-family="Inter" font-size="11" font-weight="700" font-style="normal" 
>
</g>

<g fill="#ffffff" fill-opacity="1" stroke="#6012f0" stroke-opacity="1" stroke-width="1.2" stroke-linecap="square" stroke-linejoin="bevel" transform="matrix(1,0,0,1,323,7)"
font-family="Inter" font-size="11" font-weight="700" font-style="normal" 
>
<path vector-effect="none" fill-rule="evenodd" d="M1,11 C1,5.47715 5.92487,1 12,1 L14.4,1 C20.4751,1 25.4,5.47715 25.4,11 C25.4,16.5228 20.4751,21 14.4,21 L12,21 C5.92487,21 1,16.5228 1,11 "/>
</g>

<g fill="#000000" fill-opacity="1" stroke="none" transform="matrix(1,0,0,1,323,7)"
font-family="Inter" font-size="10" font-weight="700" font-style="normal" 
>
<path vector-effect="none" fill-rule="nonzero" d="M12.9411,14.5817 C12.3303,14.5793 11.8053,14.429 11.3661,14.1307 C10.927,13.8324 10.5896,13.4003 10.354,12.8345 C10.1185,12.2687 10.0019,11.5881 10.0043,10.7926 C10.0043,9.99953 10.122,9.32363 10.3576,8.76491 C10.5932,8.2062 10.9305,7.78066 11.3697,7.48828 C11.8088,7.1959 12.3326,7.04972 12.9411,7.04972 C13.5495,7.04972 14.0733,7.1965 14.5124,7.49006 C14.9516,7.78362 15.2895,8.20916 15.5263,8.76669 C15.763,9.32422 15.8802,9.99953 15.8778,10.7926 C15.8778,11.5904 15.7601,12.2723 15.5245,12.8381 C15.2889,13.4039 14.9522,13.8359 14.5142,14.1342 C14.0762,14.4325 13.5518,14.5817 12.9411,14.5817 M12.9411,13.3068 C13.3577,13.3068 13.6903,13.0973 13.9389,12.6783 C14.1875,12.2592 14.3106,11.6307 14.3082,10.7926 C14.3082,10.241 14.252,9.78172 14.1396,9.41477 C14.0271,9.04782 13.8685,8.77202 13.6637,8.58736 C13.4589,8.4027 13.218,8.31037 12.9411,8.31037 C12.5268,8.31037 12.1953,8.51752 11.9467,8.93182 C11.6982,9.34612 11.5727,9.96638 11.5703,10.7926 C11.5703,11.3513 11.6265,11.8171 11.739,12.19 C11.8514,12.5629 12.0107,12.8422 12.2166,13.0281 C12.4226,13.2139 12.6641,13.3068 12.9411,13.3068 "/>
</g>

<g fill="#ffffff" fill-opacity="1" stroke="#6c25f1" stroke-opacity="1" stroke-width="1" stroke-linecap="square" stroke-linejoin="bevel" transform="matrix(1,0,0,1,0,0)"
font-family="Inter" font-size="11" font-weight="700" font-style="normal" 
>
</g>

<g fill="#ffffff" fill-opacity="1" stroke="#6c25f1" stroke-opacity="1" stroke-width="1" stroke-linecap="square" stroke-linejoin="bevel" transform="matrix(1,0,0,1,0,0)"
font-family="Inter" font-size="11" font-weight="700" font-style="normal" 
>
</g>

<g fill="#6c25f1" fill-opacity="1" stroke="#6c25f1" stroke-opacity="1" stroke-width="1.2" stroke-linecap="square" stroke-linejoin="bevel" transform="matrix(1,0,0,1,151,6)"
font-family="Inter" font-size="11" font-weight="700" font-style="normal" 
>
<path vector-effect="none" fill-rule="evenodd" d="M0.5,12 C0.5,5.64873 5.87258,0.5 12.5,0.5 L23.5,0.5 C30.1274,0.5 35.5,5.64873 35.5,12 C35.5,18.3513 30.1274,23.5 23.5,23.5 L12.5,23.5 C5.87258,23.5 0.5,18.3513 0.5,12 "/>
</g>

<g fill="#ffffff" fill-opacity="1" stroke="none" transform="matrix(1,0,0,1,151,6)"
font-family="Inter" font-size="11" font-weight="700" font-style="normal" 
>
<path vector-effect="none" fill-rule="nonzero" d="M13.582,8 L13.582,16 L11.8906,16 L11.8906,9.60547 L11.8438,9.60547 L10.0117,10.7539 L10.0117,9.25391 L11.9922,8 L13.582,8"/>
</g>

<g fill="#ffffff" fill-opacity="1" stroke="none" transform="matrix(0.03125,0,0,0.03125,173,14)"
font-family="Inter" font-size="11" font-weight="700" font-style="normal" 
>
<path vector-effect="none" fill-rule="nonzero" d="M111.326,191.938 C120.545,201.158 135.517,201.158 144.737,191.938 L239.144,97.5313 C245.929,90.7458 247.921,80.6413 244.233,71.7907 C240.545,62.9401 231.989,57.1871 222.401,57.1871 L33.5875,57.2608 C24.0731,57.2608 15.4437,63.0137 11.7559,71.8644 C8.06815,80.715 10.1333,90.8195 16.845,97.605 L111.252,192.012 L111.326,191.938"/>
</g>

<g fill="none" stroke="#000000" stroke-opacity="1" stroke-width="13.7195" stroke-linecap="butt" stroke-linejoin="miter" stroke-miterlimit="4" transform="matrix(0.03125,0,0,0.03125,173,14)"
font-family="Inter" font-size="11" font-weight="700" font-style="normal" 
>
<path vector-effect="none" fill-rule="nonzero" d="M111.326,191.938 C120.545,201.158 135.517,201.158 144.737,191.938 L239.144,97.5313 C245.929,90.7458 247.921,80.6413 244.233,71.7907 C240.545,62.9401 231.989,57.1871 222.401,57.1871 L33.5875,57.2608 C24.0731,57.2608 15.4437,63.0137 11.7559,71.8644 C8.06815,80.715 10.1333,90.8195 16.845,97.605 L111.252,192.012 L111.326,191.938"/>
</g>

<g fill="#ffffff" fill-opacity="1" stroke="none" transform="matrix(1,0,0,1,151,6)"
font-family="Inter" font-size="11" font-weight="700" font-style="normal" 
>
</g>

<g fill="#ffffff" fill-opacity="1" stroke="#6c25f1" stroke-opacity="1" stroke-width="1" stroke-linecap="square" stroke-linejoin="bevel" transform="matrix(1,0,0,1,0,0)"
font-family="Inter" font-size="11" font-weight="700" font-style="normal" 
>
</g>

<g fill="#ffffff" fill-opacity="1" stroke="#6012f0" stroke-opacity="1" stroke-width="1.2" stroke-linecap="square" stroke-linejoin="bevel" transform="matrix(1,0,0,1,369.4,7)"
font-family="Inter" font-size="11" font-weight="700" font-style="normal" 
>
<path vector-effect="none" fill-rule="evenodd" d="M1,11 C1,5.47715 5.92487,1 12,1 L14.4,1 C20.4751,1 25.4,5.47715 25.4,11 C25.4,16.5228 20.4751,21 14.4,21 L12,21 C5.92487,21 1,16.5228 1,11 "/>
</g>

<g fill="#000000" fill-opacity="1" stroke="none" transform="matrix(1,0,0,1,369.4,7)"
font-family="Inter" font-size="10" font-weight="700" font-style="normal" 
>
<path vector-effect="none" fill-rule="nonzero" d="M12.9411,14.5817 C12.3303,14.5793 11.8053,14.429 11.3661,14.1307 C10.927,13.8324 10.5896,13.4003 10.354,12.8345 C10.1185,12.2687 10.0019,11.5881 10.0043,10.7926 C10.0043,9.99953 10.122,9.32363 10.3576,8.76491 C10.5932,8.2062 10.9305,7.78066 11.3697,7.48828 C11.8088,7.1959 12.3326,7.04972 12.9411,7.04972 C13.5495,7.04972 14.0733,7.1965 14.5124,7.49006 C14.9516,7.78362 15.2895,8.20916 15.5263,8.76669 C15.763,9.32422 15.8802,9.99953 15.8778,10.7926 C15.8778,11.5904 15.7601,12.2723 15.5245,12.8381 C15.2889,13.4039 14.9522,13.8359 14.5142,14.1342 C14.0762,14.4325 13.5518,14.5817 12.9411,14.5817 M12.9411,13.3068 C13.3577,13.3068 13.6903,13.0973 13.9389,12.6783 C14.1875,12.2592 14.3106,11.6307 14.3082,10.7926 C14.3082,10.241 14.252,9.78172 14.1396,9.41477 C14.0271,9.04782 13.8685,8.77202 13.6637,8.58736 C13.4589,8.4027 13.218,8.31037 12.9411,8.31037 C12.5268,8.31037 12.1953,8.51752 11.9467,8.93182 C11.6982,9.34612 11.5727,9.96638 11.5703,10.7926 C11.5703,11.3513 11.6265,11.8171 11.739,12.19 C11.8514,12.5629 12.0107,12.8422 12.2166,13.0281 C12.4226,13.2139 12.6641,13.3068 12.9411,13.3068 "/>
</g>

<g fill="#ffffff" fill-opacity="1" stroke="#6c25f1" stroke-opacity="1" stroke-width="1" stroke-linecap="square" stroke-linejoin="bevel" transform="matrix(1,0,0,1,0,0)"
font-family="Inter" font-size="11" font-weight="700" font-style="normal" 
>
</g>

<g fill="#935df5" fill-opacity="1" stroke="#6c25f1" stroke-opacity="1" stroke-width="1.2" stroke-linecap="square" stroke-linejoin="bevel" transform="matrix(1,0,0,1,56,6)"
font-family="Inter" font-size="11" font-weight="700" font-style="normal" 
>
<path vector-effect="none" fill-rule="evenodd" d="M0.5,3.5 C0.5,1.84315 1.84315,0.5 3.5,0.5 L81.5,0.5 C83.1569,0.5 84.5,1.84315 84.5,3.5 L84.5,20.5 C84.5,22.1569 83.1569,23.5 81.5,23.5 L3.5,23.5 C1.84315,23.5 0.5,22.1569 0.5,20.5 L0.5,3.5"/>
</g>

<g fill="#ffffff" fill-opacity="1" stroke="none" transform="matrix(1,0,0,1,56,6)"
font-family="Inter" font-size="11" font-weight="700" font-style="normal" 
>
<path vector-effect="none" fill-rule="nonzero" d="M10.0078,15.9375 L10.0078,7.9375 L13.2109,7.9375 C13.7995,7.9375 14.2904,8.02474 14.6836,8.19922 C15.0768,8.3737 15.3724,8.61523 15.5703,8.92383 C15.7682,9.23242 15.8672,9.58724 15.8672,9.98828 C15.8672,10.3008 15.8047,10.5749 15.6797,10.8105 C15.5547,11.0462 15.3835,11.2389 15.166,11.3887 C14.9486,11.5384 14.7005,11.6445 14.4219,11.707 L14.4219,11.7852 C14.7266,11.7982 15.0124,11.8841 15.2793,12.043 C15.5462,12.2018 15.763,12.4238 15.9297,12.709 C16.0964,12.9941 16.1797,13.3333 16.1797,13.7266 C16.1797,14.151 16.0749,14.5293 15.8652,14.8613 C15.6556,15.1934 15.3464,15.4557 14.9375,15.6484 C14.5286,15.8411 14.0247,15.9375 13.4258,15.9375 L10.0078,15.9375 M11.6992,14.5547 L13.0781,14.5547 C13.5495,14.5547 13.8932,14.4642 14.1094,14.2832 C14.3255,14.1022 14.4336,13.8607 14.4336,13.5586 C14.4336,13.3372 14.3802,13.1419 14.2734,12.9727 C14.1667,12.8034 14.015,12.6706 13.8184,12.5742 C13.6217,12.4779 13.388,12.4297 13.1172,12.4297 L11.6992,12.4297 L11.6992,14.5547 M11.6992,11.2852 L12.9531,11.2852 C13.1849,11.2852 13.3913,11.2441 13.5723,11.1621 C13.7533,11.0801 13.8965,10.9635 14.002,10.8125 C14.1074,10.6615 14.1602,10.4805 14.1602,10.2695 C14.1602,9.98047 14.0579,9.7474 13.8535,9.57031 C13.6491,9.39323 13.3594,9.30469 12.9844,9.30469 L11.6992,9.30469 L11.6992,11.2852 M19.0742,15.9375 L16.7852,7.9375 L18.6328,7.9375 L19.957,13.4961 L20.0234,13.4961 L21.4844,7.9375 L23.0664,7.9375 L24.5234,13.5078 L24.5938,13.5078 L25.918,7.9375 L27.7656,7.9375 L25.4766,15.9375 L23.8281,15.9375 L22.3047,10.707 L22.2422,10.707 L20.7227,15.9375 L19.0742,15.9375 M28.5781,15.9375 L28.5781,14.9336 L32.5703,9.33203 L28.5703,9.33203 L28.5703,7.9375 L34.6953,7.9375 L34.6953,8.94141 L30.6992,14.543 L34.7031,14.543 L34.7031,15.9375 L28.5781,15.9375 M38.9023,16.0469 C38.319,16.0469 37.8001,15.946 37.3457,15.7441 C36.8913,15.5423 36.5332,15.2637 36.2715,14.9082 C36.0098,14.5527 35.875,14.1419 35.8672,13.6758 L37.5703,13.6758 C37.5807,13.8711 37.6452,14.0423 37.7637,14.1895 C37.8822,14.3366 38.0404,14.4505 38.2383,14.5313 C38.4362,14.612 38.6589,14.6523 38.9063,14.6523 C39.1641,14.6523 39.3919,14.6068 39.5898,14.5156 C39.7878,14.4245 39.9427,14.2982 40.0547,14.1367 C40.1667,13.9753 40.2227,13.7891 40.2227,13.5781 C40.2227,13.3646 40.1634,13.1751 40.0449,13.0098 C39.9264,12.8444 39.7572,12.7148 39.5371,12.6211 C39.3171,12.5273 39.056,12.4805 38.7539,12.4805 L38.0078,12.4805 L38.0078,11.2383 L38.7539,11.2383 C39.0091,11.2383 39.235,11.194 39.4316,11.1055 C39.6283,11.0169 39.7813,10.8939 39.8906,10.7363 C40,10.5788 40.0547,10.3945 40.0547,10.1836 C40.0547,9.98307 40.0072,9.80664 39.9121,9.6543 C39.8171,9.50195 39.6842,9.38281 39.5137,9.29688 C39.3431,9.21094 39.1445,9.16797 38.918,9.16797 C38.6888,9.16797 38.4792,9.20898 38.2891,9.29102 C38.099,9.37305 37.9466,9.48958 37.832,9.64063 C37.7174,9.79167 37.6563,9.96875 37.6484,10.1719 L36.0273,10.1719 C36.0352,9.71094 36.1667,9.30469 36.4219,8.95313 C36.6771,8.60156 37.0215,8.32617 37.4551,8.12695 C37.8887,7.92773 38.3789,7.82813 38.9258,7.82813 C39.4779,7.82813 39.9609,7.92839 40.375,8.12891 C40.7891,8.32943 41.1113,8.59961 41.3418,8.93945 C41.5723,9.2793 41.6862,9.66016 41.6836,10.082 C41.6862,10.5299 41.5475,10.9036 41.2676,11.2031 C40.9876,11.5026 40.6237,11.6927 40.1758,11.7734 L40.1758,11.8359 C40.7643,11.9115 41.2129,12.1152 41.5215,12.4473 C41.8301,12.7793 41.9831,13.194 41.9805,13.6914 C41.9831,14.1471 41.8522,14.5521 41.5879,14.9063 C41.3236,15.2604 40.9596,15.5391 40.4961,15.7422 C40.0326,15.9453 39.5013,16.0469 38.9023,16.0469 M43.2422,15.9375 L43.2422,7.9375 L44.9336,7.9375 L44.9336,11.2383 L48.3672,11.2383 L48.3672,7.9375 L50.0547,7.9375 L50.0547,15.9375 L48.3672,15.9375 L48.3672,12.6328 L44.9336,12.6328 L44.9336,15.9375 L43.2422,15.9375 M51.4453,15.9375 L51.4453,7.9375 L54.6484,7.9375 C55.237,7.9375 55.7279,8.02474 56.1211,8.19922 C56.5143,8.3737 56.8099,8.61523 57.0078,8.92383 C57.2057,9.23242 57.3047,9.58724 57.3047,9.98828 C57.3047,10.3008 57.2422,10.5749 57.1172,10.8105 C56.9922,11.0462 56.821,11.2389 56.6035,11.3887 C56.3861,11.5384 56.138,11.6445 55.8594,11.707 L55.8594,11.7852 C56.1641,11.7982 56.4499,11.8841 56.7168,12.043 C56.9837,12.2018 57.2005,12.4238 57.3672,12.709 C57.5339,12.9941 57.6172,13.3333 57.6172,13.7266 C57.6172,14.151 57.5124,14.5293 57.3027,14.8613 C57.0931,15.1934 56.7839,15.4557 56.375,15.6484 C55.9661,15.8411 55.4622,15.9375 54.8633,15.9375 L51.4453,15.9375 M53.1367,14.5547 L54.5156,14.5547 C54.987,14.5547 55.3307,14.4642 55.5469,14.2832 C55.763,14.1022 55.8711,13.8607 55.8711,13.5586 C55.8711,13.3372 55.8177,13.1419 55.7109,12.9727 C55.6042,12.8034 55.4525,12.6706 55.2559,12.5742 C55.0592,12.4779 54.8255,12.4297 54.5547,12.4297 L53.1367,12.4297 L53.1367,14.5547 M53.1367,11.2852 L54.3906,11.2852 C54.6224,11.2852 54.8288,11.2441 55.0098,11.1621 C55.1908,11.0801 55.334,10.9635 55.4395,10.8125 C55.5449,10.6615 55.5977,10.4805 55.5977,10.2695 C55.5977,9.98047 55.4954,9.7474 55.291,9.57031 C55.0866,9.39323 54.7969,9.30469 54.4219,9.30469 L53.1367,9.30469 L53.1367,11.2852 M62.1445,7.9375 L62.1445,15.9375 L60.4531,15.9375 L60.4531,9.54297 L60.4063,9.54297 L58.5742,10.6914 L58.5742,9.19141 L60.5547,7.9375 L62.1445,7.9375"/>
</g>

<g fill="#ffffff" fill-opacity="1" stroke="none" transform="matrix(0.03125,0,0,0.03125,127,14)"
font-family="Inter" font-size="11" font-weight="700" font-style="normal" 
>
<path vector-effect="none" fill-rule="nonzero" d="M111.326,191.938 C120.545,201.158 135.517,201.158 144.737,191.938 L239.144,97.5313 C245.929,90.7458 247.921,80.6413 244.233,71.7907 C240.545,62.9401 231.989,57.1871 222.401,57.1871 L33.5875,57.2608 C24.0731,57.2608 15.4437,63.0137 11.7559,71.8644 C8.06815,80.715 10.1333,90.8195 16.845,97.605 L111.252,192.012 L111.326,191.938"/>
</g>

<g fill="none" stroke="#000000" stroke-opacity="1" stroke-width="13.7195" stroke-linecap="butt" stroke-linejoin="miter" stroke-miterlimit="4" transform="matrix(0.03125,0,0,0.03125,127,14)"
font-family="Inter" font-size="11" font-weight="700" font-style="normal" 
>
<path vector-effect="none" fill-rule="nonzero" d="M111.326,191.938 C120.545,201.158 135.517,201.158 144.737,191.938 L239.144,97.5313 C245.929,90.7458 247.921,80.6413 244.233,71.7907 C240.545,62.9401 231.989,57.1871 222.401,57.1871 L33.5875,57.2608 C24.0731,57.2608 15.4437,63.0137 11.7559,71.8644 C8.06815,80.715 10.1333,90.8195 16.845,97.605 L111.252,192.012 L111.326,191.938"/>
</g>

<g fill="#ffffff" fill-opacity="1" stroke="none" transform="matrix(1,0,0,1,56,6)"
font-family="Inter" font-size="11" font-weight="700" font-style="normal" 
>
</g>

<g fill="#ffffff" fill-opacity="1" stroke="#6c25f1" stroke-opacity="1" stroke-width="1" stroke-linecap="square" stroke-linejoin="bevel" transform="matrix(1,0,0,1,0,0)"
font-family="Inter" font-size="11" font-weight="700" font-style="normal" 
>
</g>

<g fill="#ffffff" fill-opacity="1" stroke="#6c25f1" stroke-opacity="1" stroke-width="1" stroke-linecap="square" stroke-linejoin="bevel" transform="matrix(1,0,0,1,0,0)"
font-family="Inter" font-size="11" font-weight="700" font-style="normal" 
>
</g>

<g fill="#ffffff" fill-opacity="1" stroke="#6c25f1" stroke-opacity="1" stroke-width="1" stroke-linecap="square" stroke-linejoin="bevel" transform="matrix(1,0,0,1,0,0)"
font-family="Inter" font-size="11" font-weight="700" font-style="normal" 
>
</g>

<g fill="#ffffff" fill-opacity="1" stroke="#6012f0" stroke-opacity="1" stroke-width="1.2" stroke-linecap="square" stroke-linejoin="bevel" transform="matrix(1,0,0,1,413.8,7)"
font-family="Inter" font-size="11" font-weight="700" font-style="normal" 
>
<path vector-effect="none" fill-rule="evenodd" d="M1,11 C1,5.47715 5.92487,1 12,1 L14.4,1 C20.4751,1 25.4,5.47715 25.4,11 C25.4,16.5228 20.4751,21 14.4,21 L12,21 C5.92487,21 1,16.5228 1,11 "/>
</g>

<g fill="#000000" fill-opacity="1" stroke="none" transform="matrix(1,0,0,1,413.8,7)"
font-family="Inter" font-size="10" font-weight="700" font-style="normal" 
>
<path vector-effect="none" fill-rule="nonzero" d="M12.9411,14.5817 C12.3303,14.5793 11.8053,14.429 11.3661,14.1307 C10.927,13.8324 10.5896,13.4003 10.354,12.8345 C10.1185,12.2687 10.0019,11.5881 10.0043,10.7926 C10.0043,9.99953 10.122,9.32363 10.3576,8.76491 C10.5932,8.2062 10.9305,7.78066 11.3697,7.48828 C11.8088,7.1959 12.3326,7.04972 12.9411,7.04972 C13.5495,7.04972 14.0733,7.1965 14.5124,7.49006 C14.9516,7.78362 15.2895,8.20916 15.5263,8.76669 C15.763,9.32422 15.8802,9.99953 15.8778,10.7926 C15.8778,11.5904 15.7601,12.2723 15.5245,12.8381 C15.2889,13.4039 14.9522,13.8359 14.5142,14.1342 C14.0762,14.4325 13.5518,14.5817 12.9411,14.5817 M12.9411,13.3068 C13.3577,13.3068 13.6903,13.0973 13.9389,12.6783 C14.1875,12.2592 14.3106,11.6307 14.3082,10.7926 C14.3082,10.241 14.252,9.78172 14.1396,9.41477 C14.0271,9.04782 13.8685,8.77202 13.6637,8.58736 C13.4589,8.4027 13.218,8.31037 12.9411,8.31037 C12.5268,8.31037 12.1953,8.51752 11.9467,8.93182 C11.6982,9.34612 11.5727,9.96638 11.5703,10.7926 C11.5703,11.3513 11.6265,11.8171 11.739,12.19 C11.8514,12.5629 12.0107,12.8422 12.2166,13.0281 C12.4226,13.2139 12.6641,13.3068 12.9411,13.3068 "/>
</g>

<g fill="#ffffff" fill-opacity="1" stroke="#6c25f1" stroke-opacity="1" stroke-width="1" stroke-linecap="square" stroke-linejoin="bevel" transform="matrix(1,0,0,1,0,0)"
font-family="Inter" font-size="11" font-weight="700" font-style="normal" 
>
</g>

<g fill="none" stroke="#000000" stroke-opacity="1" stroke-width="1" stroke-linecap="square" stroke-linejoin="bevel" transform="matrix(1,0,0,1,0,0)"
font-family=".AppleSystemUIFont" font-size="13" font-weight="400" font-style="normal" 
>
</g>
</g>
</svg>
