<?xml version="1.0" encoding="UTF-8" standalone="no"?>
<svg width="53.6222mm" height="49.3889mm"
 viewBox="0 0 152 140"
 xmlns="http://www.w3.org/2000/svg" xmlns:xlink="http://www.w3.org/1999/xlink" version="1.2" baseProfile="tiny">
<title>Abstract block</title>
<desc>block_control_if_else</desc>
<defs>
</defs>
<g fill="none" stroke="black" stroke-width="1" fill-rule="evenodd" stroke-linecap="square" stroke-linejoin="bevel" >

<g fill="none" stroke="#000000" stroke-opacity="1" stroke-width="1" stroke-linecap="square" stroke-linejoin="bevel" transform="matrix(1,0,0,1,0,0)"
font-family=".AppleSystemUIFont" font-size="13" font-weight="400" font-style="normal" 
>
</g>

<g fill="none" stroke="#000000" stroke-opacity="1" stroke-width="1" stroke-linecap="square" stroke-linejoin="bevel" transform="matrix(1,0,0,1,0,0)"
font-family=".AppleSystemUIFont" font-size="13" font-weight="400" font-style="normal" 
>
</g>

<g fill="#ffb515" fill-opacity="1" stroke="#d89400" stroke-opacity="1" stroke-width="1.2" stroke-linecap="square" stroke-linejoin="bevel" transform="matrix(1,0,0,1,0,0)"
font-family=".AppleSystemUIFont" font-size="13" font-weight="400" font-style="normal" 
>
<path vector-effect="none" fill-rule="evenodd" d="M0.5,4.5 L1.04612,2.48112 L2.48112,1.04612 L4.5,0.5 L9.625,0.5 L10.416,0.976563 L11.1719,1.6875 L11.998,2.67969 L13,4 L13.7559,4.66016 L14.5469,5.15625 L15.4082,5.51172 L16.375,5.75 L17.4824,5.89453 L18.7656,5.96875 L20.2598,5.99609 L22,6 L23.7402,5.99609 L25.2344,5.96875 L26.5176,5.89453 L27.625,5.75 L28.5918,5.51172 L29.4531,5.15625 L30.2441,4.66016 L31,4 L32.002,2.67969 L32.8281,1.6875 L33.584,0.976563 L34.375,0.5 L146.7,0.5 L148.719,1.04612 L150.154,2.48112 L150.7,4.5 L150.7,33.625 L150.607,33.9259 L149.126,35.4074 L147.2,36 L52,36 L50.0137,36.0078 L48.4844,36.0625 L47.3066,36.2109 L46.375,36.5 L45.584,36.9766 L44.8281,37.6875 L44.002,38.6797 L43,40 L42.2441,40.6602 L41.4531,41.1563 L40.5918,41.5117 L39.625,41.75 L38.5176,41.8945 L37.2344,41.9688 L35.7402,41.9961 L34,42 L32.2598,41.9961 L30.7656,41.9688 L29.4824,41.8945 L28.375,41.75 L27.4082,41.5117 L26.5469,41.1563 L25.7559,40.6602 L25,40 L23.998,38.6797 L23.1719,37.6875 L22.416,36.9766 L21.625,36.5 L20.6934,36.2109 L19.5156,36.0625 L17.9863,36.0078 L16,36 L13.9811,36.5461 L12.5461,37.9811 L12,40 L12,52 L12.5461,54.0189 L13.9811,55.4539 L16,56 L22.4409,56 L23.1719,56.6875 L23.998,57.6797 L25,59 L25.7559,59.6602 L26.5469,60.1563 L27.4082,60.5117 L28.375,60.75 L29.4824,60.8945 L30.7656,60.9688 L32.2598,60.9961 L34,61 L35.7402,60.9961 L37.2344,60.9688 L38.5176,60.8945 L39.625,60.75 L40.5918,60.5117 L41.4531,60.1563 L42.2441,59.6602 L43,59 L44.002,57.6797 L44.8281,56.6875 L45.5591,56 L147.2,56 L149.126,56.5926 L150.607,58.0741 L150.7,58.375 L150.7,81.625 L150.607,81.9259 L149.126,83.4074 L147.2,84 L52,84 L50.0137,84.0078 L48.4844,84.0625 L47.3066,84.2109 L46.375,84.5 L45.584,84.9766 L44.8281,85.6875 L44.002,86.6797 L43,88 L42.2441,88.6602 L41.4531,89.1563 L40.5918,89.5117 L39.625,89.75 L38.5176,89.8945 L37.2344,89.9688 L35.7402,89.9961 L34,90 L32.2598,89.9961 L30.7656,89.9688 L29.4824,89.8945 L28.375,89.75 L27.4082,89.5117 L26.5469,89.1563 L25.7559,88.6602 L25,88 L23.998,86.6797 L23.1719,85.6875 L22.416,84.9766 L21.625,84.5 L20.6934,84.2109 L19.5156,84.0625 L17.9863,84.0078 L16,84 L13.9811,84.5461 L12.5461,85.9811 L12,88 L12,100 L12.5461,102.019 L13.9811,103.454 L16,104 L22.4409,104 L23.1719,104.688 L23.998,105.68 L25,107 L25.7559,107.66 L26.5469,108.156 L27.4082,108.512 L28.375,108.75 L29.4824,108.895 L30.7656,108.969 L32.2598,108.996 L34,109 L35.7402,108.996 L37.2344,108.969 L38.5176,108.895 L39.625,108.75 L40.5918,108.512 L41.4531,108.156 L42.2441,107.66 L43,107 L44.002,105.68 L44.8281,104.688 L45.5591,104 L147.2,104 L149.126,104.593 L150.607,106.074 L150.7,106.375 L150.7,127.5 L150.154,129.519 L148.719,130.954 L146.7,131.5 L34.375,131.5 L33.584,131.977 L32.8281,132.688 L32.002,133.68 L31,135 L30.2441,135.66 L29.4531,136.156 L28.5918,136.512 L27.625,136.75 L26.5176,136.895 L25.2344,136.969 L23.7402,136.996 L22,137 L20.2598,136.996 L18.7656,136.969 L17.4824,136.895 L16.375,136.75 L15.4082,136.512 L14.5469,136.156 L13.7559,135.66 L13,135 L11.998,133.68 L11.1719,132.688 L10.416,131.977 L9.625,131.5 L4.5,131.5 L2.48112,130.954 L1.04612,129.519 L0.5,127.5 L0.5,4.5"/>
</g>

<g fill="#ffffff" fill-opacity="1" stroke="none" transform="matrix(1,0,0,1,0,0)"
font-family="Inter" font-size="11" font-weight="700" font-style="normal" 
>
<path vector-effect="none" fill-rule="nonzero" d="M11.8672,22 L11.8672,16 L13.5313,16 L13.5313,22 L11.8672,22 M12.7031,15.2266 C12.4557,15.2266 12.2441,15.1439 12.0684,14.9785 C11.8926,14.8132 11.8047,14.6146 11.8047,14.3828 C11.8047,14.1536 11.8926,13.9564 12.0684,13.791 C12.2441,13.6257 12.4557,13.543 12.7031,13.543 C12.9505,13.543 13.1621,13.6257 13.3379,13.791 C13.5137,13.9564 13.6016,14.1536 13.6016,14.3828 C13.6016,14.6146 13.5137,14.8132 13.3379,14.9785 C13.1621,15.1439 12.9505,15.2266 12.7031,15.2266 M18.0781,16 L18.0781,17.25 L14.375,17.25 L14.375,16 L18.0781,16 M15.2227,22 L15.2227,15.5664 C15.2227,15.1315 15.3079,14.7708 15.4785,14.4844 C15.6491,14.1979 15.8828,13.9831 16.1797,13.8398 C16.4766,13.6966 16.8138,13.625 17.1914,13.625 C17.4466,13.625 17.6803,13.6445 17.8926,13.6836 C18.1048,13.7227 18.263,13.7578 18.3672,13.7891 L18.0703,15.0391 C18.0052,15.0182 17.9251,14.9987 17.8301,14.9805 C17.735,14.9622 17.638,14.9531 17.5391,14.9531 C17.2943,14.9531 17.1237,15.0098 17.0273,15.123 C16.931,15.2363 16.8828,15.3945 16.8828,15.5977 L16.8828,22 L15.2227,22"/>
</g>

<g fill="#ffffff" fill-opacity="1" stroke="none" transform="matrix(1,0,0,1,0,0)"
font-family="Inter" font-size="11" font-weight="700" font-style="normal" 
>
<path vector-effect="none" fill-rule="nonzero" d="M77.668,15.7344 L77.668,16.9844 L74.0547,16.9844 L74.0547,15.7344 L77.668,15.7344 M74.875,14.2969 L76.5391,14.2969 L76.5391,19.8906 C76.5391,20.0443 76.5625,20.1634 76.6094,20.248 C76.6563,20.3327 76.722,20.3919 76.8066,20.4258 C76.8913,20.4596 76.9896,20.4766 77.1016,20.4766 C77.1797,20.4766 77.2578,20.4694 77.3359,20.4551 C77.4141,20.4408 77.474,20.4297 77.5156,20.4219 L77.7773,21.6602 C77.694,21.6862 77.5768,21.7168 77.4258,21.752 C77.2747,21.7871 77.0911,21.8086 76.875,21.8164 C76.474,21.832 76.123,21.7786 75.8223,21.6563 C75.5215,21.5339 75.2878,21.3438 75.1211,21.0859 C74.9544,20.8281 74.8724,20.5026 74.875,20.1094 L74.875,14.2969 M80.5313,18.2656 L80.5313,21.7344 L78.8672,21.7344 L78.8672,13.7344 L80.4844,13.7344 L80.4844,16.793 L80.5547,16.793 C80.6901,16.4388 80.9089,16.1608 81.2109,15.959 C81.513,15.7572 81.8919,15.6563 82.3477,15.6563 C82.7643,15.6563 83.1283,15.7467 83.4395,15.9277 C83.7507,16.1087 83.9928,16.3678 84.166,16.7051 C84.3392,17.0423 84.4245,17.4453 84.4219,17.9141 L84.4219,21.7344 L82.7578,21.7344 L82.7578,18.2109 C82.7604,17.8411 82.6673,17.5534 82.4785,17.3477 C82.2897,17.1419 82.026,17.0391 81.6875,17.0391 C81.4609,17.0391 81.2611,17.0872 81.0879,17.1836 C80.9147,17.2799 80.7793,17.4199 80.6816,17.6035 C80.584,17.7871 80.5339,18.0078 80.5313,18.2656 M88.4609,21.8516 C87.8438,21.8516 87.3132,21.7259 86.8691,21.4746 C86.4251,21.2233 86.0833,20.8665 85.8438,20.4043 C85.6042,19.9421 85.4844,19.3945 85.4844,18.7617 C85.4844,18.1445 85.6042,17.6029 85.8438,17.1367 C86.0833,16.6706 86.4212,16.3073 86.8574,16.0469 C87.2936,15.7865 87.806,15.6563 88.3945,15.6563 C88.7904,15.6563 89.1595,15.7194 89.502,15.8457 C89.8444,15.972 90.1439,16.1615 90.4004,16.4141 C90.6569,16.6667 90.8568,16.9837 91,17.3652 C91.1432,17.7467 91.2148,18.1927 91.2148,18.7031 L91.2148,19.1602 L86.1484,19.1602 L86.1484,18.1289 L89.6484,18.1289 C89.6484,17.8893 89.5964,17.6771 89.4922,17.4922 C89.388,17.3073 89.2441,17.1621 89.0605,17.0566 C88.877,16.9512 88.6641,16.8984 88.4219,16.8984 C88.1693,16.8984 87.946,16.9564 87.752,17.0723 C87.5579,17.1882 87.4063,17.3431 87.2969,17.5371 C87.1875,17.7311 87.1315,17.9466 87.1289,18.1836 L87.1289,19.1641 C87.1289,19.4609 87.1842,19.7174 87.2949,19.9336 C87.4056,20.1497 87.5625,20.3164 87.7656,20.4336 C87.9688,20.5508 88.2096,20.6094 88.4883,20.6094 C88.6732,20.6094 88.8424,20.5833 88.9961,20.5313 C89.1497,20.4792 89.2813,20.401 89.3906,20.2969 C89.5,20.1927 89.5833,20.0651 89.6406,19.9141 L91.1797,20.0156 C91.1016,20.3854 90.9421,20.7077 90.7012,20.9824 C90.4603,21.2572 90.1504,21.4707 89.7715,21.623 C89.3926,21.7754 88.9557,21.8516 88.4609,21.8516 M93.9531,18.2656 L93.9531,21.7344 L92.2891,21.7344 L92.2891,15.7344 L93.875,15.7344 L93.875,16.793 L93.9453,16.793 C94.0781,16.444 94.3008,16.1673 94.6133,15.9629 C94.9258,15.7585 95.3047,15.6563 95.75,15.6563 C96.1667,15.6563 96.5299,15.7474 96.8398,15.9297 C97.1497,16.112 97.3906,16.3717 97.5625,16.709 C97.7344,17.0462 97.8203,17.4479 97.8203,17.9141 L97.8203,21.7344 L96.1563,21.7344 L96.1563,18.2109 C96.1589,17.8438 96.0651,17.5566 95.875,17.3496 C95.6849,17.1426 95.4232,17.0391 95.0898,17.0391 C94.8659,17.0391 94.6686,17.0872 94.498,17.1836 C94.3275,17.2799 94.1947,17.4199 94.0996,17.6035 C94.0046,17.7871 93.9557,18.0078 93.9531,18.2656 "/>
</g>

<g fill="#ffffff" fill-opacity="1" stroke="none" transform="matrix(1,0,0,1,0,0)"
font-family="Inter" font-size="11" font-weight="700" font-style="normal" 
>
<path vector-effect="none" fill-rule="nonzero" d="M14.8203,78.0234 C14.2031,78.0234 13.6725,77.8978 13.2285,77.6465 C12.7845,77.3952 12.4427,77.0384 12.2031,76.5762 C11.9635,76.1139 11.8438,75.5664 11.8438,74.9336 C11.8438,74.3164 11.9635,73.7747 12.2031,73.3086 C12.4427,72.8424 12.7806,72.4792 13.2168,72.2188 C13.653,71.9583 14.1654,71.8281 14.7539,71.8281 C15.1497,71.8281 15.5189,71.8913 15.8613,72.0176 C16.2038,72.1439 16.5033,72.3333 16.7598,72.5859 C17.0163,72.8385 17.2161,73.1556 17.3594,73.5371 C17.5026,73.9186 17.5742,74.3646 17.5742,74.875 L17.5742,75.332 L12.5078,75.332 L12.5078,74.3008 L16.0078,74.3008 C16.0078,74.0612 15.9557,73.849 15.8516,73.6641 C15.7474,73.4792 15.6035,73.334 15.4199,73.2285 C15.2363,73.123 15.0234,73.0703 14.7813,73.0703 C14.5286,73.0703 14.3053,73.1283 14.1113,73.2441 C13.9173,73.36 13.7656,73.515 13.6563,73.709 C13.5469,73.903 13.4909,74.1185 13.4883,74.3555 L13.4883,75.3359 C13.4883,75.6328 13.5436,75.8893 13.6543,76.1055 C13.765,76.3216 13.9219,76.4883 14.125,76.6055 C14.3281,76.7227 14.569,76.7813 14.8477,76.7813 C15.0326,76.7813 15.2018,76.7552 15.3555,76.7031 C15.5091,76.651 15.6406,76.5729 15.75,76.4688 C15.8594,76.3646 15.9427,76.237 16,76.0859 L17.5391,76.1875 C17.4609,76.5573 17.3014,76.8796 17.0605,77.1543 C16.8197,77.429 16.5098,77.6426 16.1309,77.7949 C15.752,77.9473 15.3151,78.0234 14.8203,78.0234 M20.3125,69.9063 L20.3125,77.9063 L18.6484,77.9063 L18.6484,69.9063 L20.3125,69.9063 M26.625,73.6172 L25.1016,73.7109 C25.0755,73.5807 25.0195,73.4629 24.9336,73.3574 C24.8477,73.252 24.735,73.1673 24.5957,73.1035 C24.4564,73.0397 24.2904,73.0078 24.0977,73.0078 C23.8398,73.0078 23.6224,73.0618 23.4453,73.1699 C23.2682,73.278 23.1797,73.4219 23.1797,73.6016 C23.1797,73.7448 23.237,73.8659 23.3516,73.9648 C23.4661,74.0638 23.6628,74.1432 23.9414,74.2031 L25.0273,74.4219 C25.6107,74.5417 26.0456,74.7344 26.332,75 C26.6185,75.2656 26.7617,75.6146 26.7617,76.0469 C26.7617,76.4401 26.6465,76.7852 26.416,77.082 C26.1855,77.3789 25.8704,77.61 25.4707,77.7754 C25.071,77.9408 24.6107,78.0234 24.0898,78.0234 C23.2956,78.0234 22.6634,77.8574 22.1934,77.5254 C21.7233,77.1934 21.4479,76.7409 21.3672,76.168 L23.0039,76.082 C23.0534,76.3242 23.1732,76.5085 23.3633,76.6348 C23.5534,76.7611 23.7969,76.8242 24.0938,76.8242 C24.3854,76.8242 24.6204,76.7676 24.7988,76.6543 C24.9772,76.541 25.0677,76.3945 25.0703,76.2148 C25.0677,76.0638 25.0039,75.9395 24.8789,75.8418 C24.7539,75.7441 24.5612,75.6693 24.3008,75.6172 L23.2617,75.4102 C22.6758,75.293 22.2402,75.0898 21.9551,74.8008 C21.6699,74.5117 21.5273,74.1432 21.5273,73.6953 C21.5273,73.3099 21.6322,72.9779 21.8418,72.6992 C22.0514,72.4206 22.347,72.2057 22.7285,72.0547 C23.11,71.9036 23.5573,71.8281 24.0703,71.8281 C24.8281,71.8281 25.4251,71.9883 25.8613,72.3086 C26.2975,72.6289 26.5521,73.0651 26.625,73.6172 M30.5391,78.0234 C29.9219,78.0234 29.3913,77.8978 28.9473,77.6465 C28.5033,77.3952 28.1615,77.0384 27.9219,76.5762 C27.6823,76.1139 27.5625,75.5664 27.5625,74.9336 C27.5625,74.3164 27.6823,73.7747 27.9219,73.3086 C28.1615,72.8424 28.4993,72.4792 28.9355,72.2188 C29.3717,71.9583 29.8841,71.8281 30.4727,71.8281 C30.8685,71.8281 31.2376,71.8913 31.5801,72.0176 C31.9225,72.1439 32.222,72.3333 32.4785,72.5859 C32.735,72.8385 32.9349,73.1556 33.0781,73.5371 C33.2214,73.9186 33.293,74.3646 33.293,74.875 L33.293,75.332 L28.2266,75.332 L28.2266,74.3008 L31.7266,74.3008 C31.7266,74.0612 31.6745,73.849 31.5703,73.6641 C31.4661,73.4792 31.3223,73.334 31.1387,73.2285 C30.9551,73.123 30.7422,73.0703 30.5,73.0703 C30.2474,73.0703 30.0241,73.1283 29.8301,73.2441 C29.6361,73.36 29.4844,73.515 29.375,73.709 C29.2656,73.903 29.2096,74.1185 29.207,74.3555 L29.207,75.3359 C29.207,75.6328 29.2624,75.8893 29.373,76.1055 C29.4837,76.3216 29.6406,76.4883 29.8438,76.6055 C30.0469,76.7227 30.2878,76.7813 30.5664,76.7813 C30.7513,76.7813 30.9206,76.7552 31.0742,76.7031 C31.2279,76.651 31.3594,76.5729 31.4688,76.4688 C31.5781,76.3646 31.6615,76.237 31.7188,76.0859 L33.2578,76.1875 C33.1797,76.5573 33.0202,76.8796 32.7793,77.1543 C32.5384,77.429 32.2285,77.6426 31.8496,77.7949 C31.4707,77.9473 31.0339,78.0234 30.5391,78.0234 "/>
</g>

<g fill="#ffffff" fill-opacity="1" stroke="none" transform="matrix(1,0,0,1,0,0)"
font-family="Inter" font-size="11" font-weight="700" font-style="normal" 
>
</g>

<g fill="#ffffff" fill-opacity="1" stroke="none" transform="matrix(1,0,0,1,0,0)"
font-family="Inter" font-size="11" font-weight="700" font-style="normal" 
>
</g>

<g fill="#ffffff" fill-opacity="1" stroke="none" transform="matrix(1,0,0,1,0,0)"
font-family="Inter" font-size="11" font-weight="700" font-style="normal" 
>
</g>

<g fill="#ffffff" fill-opacity="1" stroke="none" transform="matrix(1,0,0,1,0,0)"
font-family="Inter" font-size="11" font-weight="700" font-style="normal" 
>
</g>

<g fill="#ffffff" fill-opacity="1" stroke="none" transform="matrix(1,0,0,1,0,0)"
font-family="Inter" font-size="11" font-weight="700" font-style="normal" 
>
</g>

<g fill="#ffffff" fill-opacity="1" stroke="none" transform="matrix(1,0,0,1,0,0)"
font-family="Inter" font-size="11" font-weight="700" font-style="normal" 
>
</g>

<g fill="#ffffff" fill-opacity="1" stroke="none" transform="matrix(1,0,0,1,0,0)"
font-family="Inter" font-size="11" font-weight="700" font-style="normal" 
>
</g>

<g fill="#d89400" fill-opacity="1" stroke="#c48600" stroke-opacity="1" stroke-width="1.2" stroke-linecap="square" stroke-linejoin="bevel" transform="matrix(1,0,0,1,33,7)"
font-family="Inter" font-size="11" font-weight="700" font-style="normal" 
>
<path vector-effect="none" fill-rule="evenodd" d="M0,11 L11,0 L24.2,0 L35.2,11 L24.2,22 L11,22 L0,11"/>
</g>

<g fill="#ffffff" fill-opacity="1" stroke="none" transform="matrix(1,0,0,1,0,0)"
font-family="Inter" font-size="11" font-weight="700" font-style="normal" 
>
</g>

<g fill="none" stroke="#000000" stroke-opacity="1" stroke-width="1" stroke-linecap="square" stroke-linejoin="bevel" transform="matrix(1,0,0,1,0,0)"
font-family=".AppleSystemUIFont" font-size="13" font-weight="400" font-style="normal" 
>
</g>
</g>
</svg>
