<?xml version="1.0" encoding="UTF-8" standalone="no"?>
<svg width="126.294mm" height="21.1667mm"
 viewBox="0 0 358 60"
 xmlns="http://www.w3.org/2000/svg" xmlns:xlink="http://www.w3.org/1999/xlink" version="1.2" baseProfile="tiny">
<title>Abstract block</title>
<desc>block_dashboard_controller_pedals_event</desc>
<defs>
</defs>
<g fill="none" stroke="black" stroke-width="1" fill-rule="evenodd" stroke-linecap="square" stroke-linejoin="bevel" >

<g fill="none" stroke="#000000" stroke-opacity="1" stroke-width="1" stroke-linecap="square" stroke-linejoin="bevel" transform="matrix(1,0,0,1,0,0)"
font-family=".AppleSystemUIFont" font-size="13" font-weight="400" font-style="normal" 
>
</g>

<g fill="none" stroke="#000000" stroke-opacity="1" stroke-width="1" stroke-linecap="square" stroke-linejoin="bevel" transform="matrix(1,0,0,1,0,0)"
font-family=".AppleSystemUIFont" font-size="13" font-weight="400" font-style="normal" 
>
</g>

<g fill="#009f94" fill-opacity="1" stroke="#00645c" stroke-opacity="1" stroke-width="1.2" stroke-linecap="square" stroke-linejoin="bevel" transform="matrix(1,0,0,1,0,0)"
font-family=".AppleSystemUIFont" font-size="13" font-weight="400" font-style="normal" 
>
<path vector-effect="none" fill-rule="evenodd" d="M0.5,20.5 L1,18.6516 L1,18 L1.77836,17.1565 L2.58892,16.3401 L3.43062,15.551 L4.30242,14.7891 L5.20325,14.0544 L6.13206,13.3469 L7.08779,12.6667 L8.06939,12.0136 L9.0758,11.3878 L10.106,10.7891 L11.1588,10.2177 L12.2333,9.67347 L13.3284,9.15646 L14.4431,8.66667 L15.5762,8.20408 L16.7267,7.76871 L17.8936,7.36054 L19.0758,6.97959 L20.2723,6.62585 L21.4819,6.29932 L22.7037,6 L23.9366,5.72789 L25.1795,5.48299 L26.4314,5.26531 L27.6912,5.07483 L28.9578,4.91156 L30.2303,4.77551 L31.5075,4.66667 L32.7885,4.58503 L34.072,4.53061 L35.3572,4.5034 L36.6428,4.5034 L37.928,4.53061 L39.2115,4.58503 L40.4925,4.66667 L41.7697,4.77551 L43.0422,4.91156 L44.3088,5.07483 L45.5686,5.26531 L46.8205,5.48299 L48.0634,5.72789 L49.2963,6 L50.5181,6.29932 L51.7277,6.62585 L52.9242,6.97959 L54.1064,7.36054 L55.2733,7.76871 L56.4238,8.20408 L57.5569,8.66667 L58.6716,9.15646 L59.7667,9.67347 L60.8412,10.2177 L61.894,10.7891 L62.9242,11.3878 L63.9306,12.0136 L64.9122,12.6667 L65.8679,13.3469 L66.7968,14.0544 L67.6976,14.7891 L68.5694,15.551 L69.4111,16.3401 L69.5698,16.5 L353.5,16.5 L355.519,17.0461 L356.954,18.4811 L357.5,20.5 L357.5,47.5 L356.954,49.5189 L355.519,50.9539 L353.5,51.5 L34.375,51.5 L33.584,51.9766 L32.8281,52.6875 L32.002,53.6797 L31,55 L30.2441,55.6602 L29.4531,56.1563 L28.5918,56.5117 L27.625,56.75 L26.5176,56.8945 L25.2344,56.9688 L23.7402,56.9961 L22,57 L20.2598,56.9961 L18.7656,56.9688 L17.4824,56.8945 L16.375,56.75 L15.4082,56.5117 L14.5469,56.1563 L13.7559,55.6602 L13,55 L11.998,53.6797 L11.1719,52.6875 L10.416,51.9766 L9.625,51.5 L4.5,51.5 L2.48112,50.9539 L1.04612,49.5189 L0.5,47.5 L0.5,20.5"/>
</g>

<g fill="#ffffff" fill-opacity="1" stroke="none" transform="matrix(1,0,0,1,0,0)"
font-family="Inter" font-size="11" font-weight="700" font-style="normal" 
>
<path vector-effect="none" fill-rule="nonzero" d="M53.5508,36.8281 L51.918,30.8281 L53.6016,30.8281 L54.5313,34.8594 L54.5859,34.8594 L55.5547,30.8281 L57.207,30.8281 L58.1914,34.8359 L58.2422,34.8359 L59.1563,30.8281 L60.8359,30.8281 L59.207,36.8281 L57.4453,36.8281 L56.4141,33.0547 L56.3398,33.0547 L55.3086,36.8281 L53.5508,36.8281 M63.375,33.3594 L63.375,36.8281 L61.7109,36.8281 L61.7109,28.8281 L63.3281,28.8281 L63.3281,31.8867 L63.3984,31.8867 C63.5339,31.5326 63.7526,31.2546 64.0547,31.0527 C64.3568,30.8509 64.7357,30.75 65.1914,30.75 C65.6081,30.75 65.972,30.8405 66.2832,31.0215 C66.5944,31.2025 66.8366,31.4616 67.0098,31.7988 C67.1829,32.1361 67.2682,32.5391 67.2656,33.0078 L67.2656,36.8281 L65.6016,36.8281 L65.6016,33.3047 C65.6042,32.9349 65.5111,32.6471 65.3223,32.4414 C65.1335,32.2357 64.8698,32.1328 64.5313,32.1328 C64.3047,32.1328 64.1048,32.181 63.9316,32.2773 C63.7585,32.3737 63.623,32.5137 63.5254,32.6973 C63.4277,32.8809 63.3776,33.1016 63.375,33.3594 M71.3047,36.9453 C70.6875,36.9453 70.1569,36.8197 69.7129,36.5684 C69.2689,36.3171 68.9271,35.9603 68.6875,35.498 C68.4479,35.0358 68.3281,34.4883 68.3281,33.8555 C68.3281,33.2383 68.4479,32.6966 68.6875,32.2305 C68.9271,31.7643 69.265,31.401 69.7012,31.1406 C70.1374,30.8802 70.6497,30.75 71.2383,30.75 C71.6341,30.75 72.0033,30.8132 72.3457,30.9395 C72.6882,31.0658 72.9876,31.2552 73.2441,31.5078 C73.5007,31.7604 73.7005,32.0775 73.8438,32.459 C73.987,32.8405 74.0586,33.2865 74.0586,33.7969 L74.0586,34.2539 L68.9922,34.2539 L68.9922,33.2227 L72.4922,33.2227 C72.4922,32.9831 72.4401,32.7708 72.3359,32.5859 C72.2318,32.401 72.0879,32.2559 71.9043,32.1504 C71.7207,32.0449 71.5078,31.9922 71.2656,31.9922 C71.013,31.9922 70.7897,32.0501 70.5957,32.166 C70.4017,32.2819 70.25,32.4368 70.1406,32.6309 C70.0313,32.8249 69.9753,33.0404 69.9727,33.2773 L69.9727,34.2578 C69.9727,34.5547 70.028,34.8112 70.1387,35.0273 C70.2493,35.2435 70.4063,35.4102 70.6094,35.5273 C70.8125,35.6445 71.0534,35.7031 71.332,35.7031 C71.5169,35.7031 71.6862,35.6771 71.8398,35.625 C71.9935,35.5729 72.125,35.4948 72.2344,35.3906 C72.3438,35.2865 72.4271,35.1589 72.4844,35.0078 L74.0234,35.1094 C73.9453,35.4792 73.7858,35.8014 73.5449,36.0762 C73.304,36.3509 72.9941,36.5645 72.6152,36.7168 C72.2363,36.8691 71.7995,36.9453 71.3047,36.9453 M76.7969,33.3594 L76.7969,36.8281 L75.1328,36.8281 L75.1328,30.8281 L76.7188,30.8281 L76.7188,31.8867 L76.7891,31.8867 C76.9219,31.5378 77.1445,31.2611 77.457,31.0566 C77.7695,30.8522 78.1484,30.75 78.5938,30.75 C79.0104,30.75 79.3737,30.8411 79.6836,31.0234 C79.9935,31.2057 80.2344,31.4655 80.4063,31.8027 C80.5781,32.14 80.6641,32.5417 80.6641,33.0078 L80.6641,36.8281 L79,36.8281 L79,33.3047 C79.0026,32.9375 78.9089,32.6504 78.7188,32.4434 C78.5286,32.2363 78.2669,32.1328 77.9336,32.1328 C77.7096,32.1328 77.5124,32.181 77.3418,32.2773 C77.1712,32.3737 77.0384,32.5137 76.9434,32.6973 C76.8483,32.8809 76.7995,33.1016 76.7969,33.3594 M84.5078,39.0781 L84.5078,30.8281 L86.1484,30.8281 L86.1484,31.8359 L86.2227,31.8359 C86.2956,31.6745 86.4017,31.5098 86.541,31.3418 C86.6803,31.1738 86.8626,31.0332 87.0879,30.9199 C87.3132,30.8066 87.5938,30.75 87.9297,30.75 C88.3672,30.75 88.7708,30.8639 89.1406,31.0918 C89.5104,31.3197 89.806,31.6621 90.0273,32.1191 C90.2487,32.5762 90.3594,33.1484 90.3594,33.8359 C90.3594,34.5052 90.252,35.0697 90.0371,35.5293 C89.8223,35.9889 89.5306,36.3366 89.1621,36.5723 C88.7936,36.8079 88.3815,36.9258 87.9258,36.9258 C87.6029,36.9258 87.3288,36.8724 87.1035,36.7656 C86.8783,36.6589 86.694,36.5241 86.5508,36.3613 C86.4076,36.1986 86.2982,36.0339 86.2227,35.8672 L86.1719,35.8672 L86.1719,39.0781 L84.5078,39.0781 M86.1367,33.8281 C86.1367,34.1849 86.1862,34.4961 86.2852,34.7617 C86.3841,35.0273 86.5273,35.2337 86.7148,35.3809 C86.9023,35.528 87.1302,35.6016 87.3984,35.6016 C87.6693,35.6016 87.8984,35.5267 88.0859,35.377 C88.2734,35.2272 88.416,35.0189 88.5137,34.752 C88.6113,34.485 88.6602,34.1771 88.6602,33.8281 C88.6602,33.4818 88.612,33.1771 88.5156,32.9141 C88.4193,32.651 88.2773,32.4453 88.0898,32.2969 C87.9023,32.1484 87.6719,32.0742 87.3984,32.0742 C87.1276,32.0742 86.8991,32.1458 86.7129,32.2891 C86.5267,32.4323 86.3841,32.6354 86.2852,32.8984 C86.1862,33.1615 86.1367,33.4714 86.1367,33.8281 M94.1953,36.9453 C93.5781,36.9453 93.0475,36.8197 92.6035,36.5684 C92.1595,36.3171 91.8177,35.9603 91.5781,35.498 C91.3385,35.0358 91.2188,34.4883 91.2188,33.8555 C91.2188,33.2383 91.3385,32.6966 91.5781,32.2305 C91.8177,31.7643 92.1556,31.401 92.5918,31.1406 C93.028,30.8802 93.5404,30.75 94.1289,30.75 C94.5247,30.75 94.8939,30.8132 95.2363,30.9395 C95.5788,31.0658 95.8783,31.2552 96.1348,31.5078 C96.3913,31.7604 96.5911,32.0775 96.7344,32.459 C96.8776,32.8405 96.9492,33.2865 96.9492,33.7969 L96.9492,34.2539 L91.8828,34.2539 L91.8828,33.2227 L95.3828,33.2227 C95.3828,32.9831 95.3307,32.7708 95.2266,32.5859 C95.1224,32.401 94.9785,32.2559 94.7949,32.1504 C94.6113,32.0449 94.3984,31.9922 94.1563,31.9922 C93.9036,31.9922 93.6803,32.0501 93.4863,32.166 C93.2923,32.2819 93.1406,32.4368 93.0313,32.6309 C92.9219,32.8249 92.8659,33.0404 92.8633,33.2773 L92.8633,34.2578 C92.8633,34.5547 92.9186,34.8112 93.0293,35.0273 C93.14,35.2435 93.2969,35.4102 93.5,35.5273 C93.7031,35.6445 93.944,35.7031 94.2227,35.7031 C94.4076,35.7031 94.5768,35.6771 94.7305,35.625 C94.8841,35.5729 95.0156,35.4948 95.125,35.3906 C95.2344,35.2865 95.3177,35.1589 95.375,35.0078 L96.9141,35.1094 C96.8359,35.4792 96.6764,35.8014 96.4355,36.0762 C96.1947,36.3509 95.8848,36.5645 95.5059,36.7168 C95.127,36.8691 94.6901,36.9453 94.1953,36.9453 M100.234,36.9258 C99.7786,36.9258 99.3665,36.8079 98.998,36.5723 C98.6296,36.3366 98.3379,35.9889 98.123,35.5293 C97.9082,35.0697 97.8008,34.5052 97.8008,33.8359 C97.8008,33.1484 97.9115,32.5762 98.1328,32.1191 C98.3542,31.6621 98.6491,31.3197 99.0176,31.0918 C99.3861,30.8639 99.7904,30.75 100.23,30.75 C100.566,30.75 100.847,30.8066 101.072,30.9199 C101.298,31.0332 101.48,31.1738 101.619,31.3418 C101.758,31.5098 101.865,31.6745 101.938,31.8359 L101.988,31.8359 L101.988,28.8281 L103.648,28.8281 L103.648,36.8281 L102.008,36.8281 L102.008,35.8672 L101.938,35.8672 C101.859,36.0339 101.749,36.1986 101.607,36.3613 C101.465,36.5241 101.282,36.6589 101.057,36.7656 C100.831,36.8724 100.557,36.9258 100.234,36.9258 M100.762,35.6016 C101.03,35.6016 101.257,35.528 101.443,35.3809 C101.63,35.2337 101.773,35.0273 101.873,34.7617 C101.973,34.4961 102.023,34.1849 102.023,33.8281 C102.023,33.4714 101.974,33.1615 101.875,32.8984 C101.776,32.6354 101.633,32.4323 101.445,32.2891 C101.258,32.1458 101.03,32.0742 100.762,32.0742 C100.488,32.0742 100.258,32.1484 100.07,32.2969 C99.8828,32.4453 99.7409,32.651 99.6445,32.9141 C99.5482,33.1771 99.5,33.4818 99.5,33.8281 C99.5,34.1771 99.5488,34.485 99.6465,34.752 C99.7441,35.0189 99.8861,35.2272 100.072,35.377 C100.258,35.5267 100.488,35.6016 100.762,35.6016 M106.719,36.9414 C106.336,36.9414 105.995,36.8743 105.695,36.7402 C105.396,36.6061 105.16,36.4069 104.986,36.1426 C104.813,35.8783 104.727,35.5482 104.727,35.1523 C104.727,34.819 104.788,34.5391 104.91,34.3125 C105.033,34.0859 105.199,33.9036 105.41,33.7656 C105.621,33.6276 105.861,33.5234 106.131,33.4531 C106.4,33.3828 106.684,33.3333 106.98,33.3047 C107.329,33.2682 107.611,33.2337 107.824,33.2012 C108.038,33.1686 108.193,33.1198 108.289,33.0547 C108.385,32.9896 108.434,32.8932 108.434,32.7656 L108.434,32.7422 C108.434,32.4948 108.356,32.3034 108.201,32.168 C108.046,32.0326 107.827,31.9648 107.543,31.9648 C107.243,31.9648 107.005,32.0306 106.828,32.1621 C106.651,32.2936 106.534,32.4583 106.477,32.6563 L104.938,32.5313 C105.016,32.1667 105.169,31.8509 105.398,31.584 C105.628,31.3171 105.924,31.1113 106.287,30.9668 C106.65,30.8223 107.072,30.75 107.551,30.75 C107.884,30.75 108.204,30.7891 108.51,30.8672 C108.816,30.9453 109.088,31.0664 109.326,31.2305 C109.564,31.3945 109.753,31.6048 109.891,31.8613 C110.029,32.1178 110.098,32.4245 110.098,32.7813 L110.098,36.8281 L108.52,36.8281 L108.52,35.9961 L108.473,35.9961 C108.376,36.1836 108.247,36.3483 108.086,36.4902 C107.924,36.6322 107.73,36.7428 107.504,36.8223 C107.277,36.9017 107.016,36.9414 106.719,36.9414 M107.195,35.793 C107.44,35.793 107.656,35.7441 107.844,35.6465 C108.031,35.5488 108.178,35.4167 108.285,35.25 C108.392,35.0833 108.445,34.8945 108.445,34.6836 L108.445,34.0469 C108.393,34.0807 108.322,34.1113 108.232,34.1387 C108.143,34.166 108.042,34.1908 107.93,34.2129 C107.818,34.235 107.706,34.2546 107.594,34.2715 C107.482,34.2884 107.38,34.3034 107.289,34.3164 C107.094,34.3451 106.923,34.3906 106.777,34.4531 C106.632,34.5156 106.518,34.5996 106.438,34.7051 C106.357,34.8105 106.316,34.9414 106.316,35.0977 C106.316,35.3242 106.399,35.4967 106.564,35.6152 C106.73,35.7337 106.94,35.793 107.195,35.793 M113.047,28.8281 L113.047,36.8281 L111.383,36.8281 L111.383,28.8281 L113.047,28.8281 M119.359,32.5391 L117.836,32.6328 C117.81,32.5026 117.754,32.3848 117.668,32.2793 C117.582,32.1738 117.469,32.0892 117.33,32.0254 C117.191,31.9616 117.025,31.9297 116.832,31.9297 C116.574,31.9297 116.357,31.9837 116.18,32.0918 C116.003,32.1999 115.914,32.3438 115.914,32.5234 C115.914,32.6667 115.971,32.7878 116.086,32.8867 C116.201,32.9857 116.397,33.0651 116.676,33.125 L117.762,33.3438 C118.345,33.4635 118.78,33.6563 119.066,33.9219 C119.353,34.1875 119.496,34.5365 119.496,34.9688 C119.496,35.362 119.381,35.707 119.15,36.0039 C118.92,36.3008 118.605,36.5319 118.205,36.6973 C117.805,36.8626 117.345,36.9453 116.824,36.9453 C116.03,36.9453 115.398,36.7793 114.928,36.4473 C114.458,36.1152 114.182,35.6628 114.102,35.0898 L115.738,35.0039 C115.788,35.2461 115.908,35.4303 116.098,35.5566 C116.288,35.6829 116.531,35.7461 116.828,35.7461 C117.12,35.7461 117.355,35.6895 117.533,35.5762 C117.712,35.4629 117.802,35.3164 117.805,35.1367 C117.802,34.9857 117.738,34.8613 117.613,34.7637 C117.488,34.666 117.296,34.5911 117.035,34.5391 L115.996,34.332 C115.41,34.2148 114.975,34.0117 114.689,33.7227 C114.404,33.4336 114.262,33.0651 114.262,32.6172 C114.262,32.2318 114.367,31.8997 114.576,31.6211 C114.786,31.3424 115.081,31.1276 115.463,30.9766 C115.844,30.8255 116.292,30.75 116.805,30.75 C117.563,30.75 118.16,30.9102 118.596,31.2305 C119.032,31.5508 119.286,31.987 119.359,32.5391 "/>
</g>

<g fill="#ffffff" fill-opacity="1" stroke="none" transform="matrix(1,0,0,1,0,0)"
font-family="Inter" font-size="11" font-weight="700" font-style="normal" 
>
<path vector-effect="none" fill-rule="nonzero" d="M270.164,38 L270.164,32 L271.828,32 L271.828,38 L270.164,38 M271,31.2266 C270.753,31.2266 270.541,31.1439 270.365,30.9785 C270.189,30.8132 270.102,30.6146 270.102,30.3828 C270.102,30.1536 270.189,29.9564 270.365,29.791 C270.541,29.6257 270.753,29.543 271,29.543 C271.247,29.543 271.459,29.6257 271.635,29.791 C271.811,29.9564 271.898,30.1536 271.898,30.3828 C271.898,30.6146 271.811,30.8132 271.635,30.9785 C271.459,31.1439 271.247,31.2266 271,31.2266 M278.141,33.7109 L276.617,33.8047 C276.591,33.6745 276.535,33.5566 276.449,33.4512 C276.363,33.3457 276.251,33.2611 276.111,33.1973 C275.972,33.1335 275.806,33.1016 275.613,33.1016 C275.355,33.1016 275.138,33.1556 274.961,33.2637 C274.784,33.3717 274.695,33.5156 274.695,33.6953 C274.695,33.8385 274.753,33.9596 274.867,34.0586 C274.982,34.1576 275.178,34.237 275.457,34.2969 L276.543,34.5156 C277.126,34.6354 277.561,34.8281 277.848,35.0938 C278.134,35.3594 278.277,35.7083 278.277,36.1406 C278.277,36.5339 278.162,36.8789 277.932,37.1758 C277.701,37.4727 277.386,37.7038 276.986,37.8691 C276.587,38.0345 276.126,38.1172 275.605,38.1172 C274.811,38.1172 274.179,37.9512 273.709,37.6191 C273.239,37.2871 272.964,36.8346 272.883,36.2617 L274.52,36.1758 C274.569,36.418 274.689,36.6022 274.879,36.7285 C275.069,36.8548 275.313,36.918 275.609,36.918 C275.901,36.918 276.136,36.8613 276.314,36.748 C276.493,36.6348 276.583,36.4883 276.586,36.3086 C276.583,36.1576 276.52,36.0332 276.395,35.9355 C276.27,35.8379 276.077,35.763 275.816,35.7109 L274.777,35.5039 C274.191,35.3867 273.756,35.1836 273.471,34.8945 C273.186,34.6055 273.043,34.237 273.043,33.7891 C273.043,33.4036 273.148,33.0716 273.357,32.793 C273.567,32.5143 273.863,32.2995 274.244,32.1484 C274.626,31.9974 275.073,31.9219 275.586,31.9219 C276.344,31.9219 276.941,32.082 277.377,32.4023 C277.813,32.7227 278.068,33.1589 278.141,33.7109 "/>
</g>

<g fill="#ffffff" fill-opacity="1" stroke="none" transform="matrix(0.95,0,0,0.95,11.6,25.6)"
font-family="Inter" font-size="11" font-weight="700" font-style="normal" 
>
<path vector-effect="none" fill-rule="nonzero" d="M2.19896,4.65234 C1.18891,4.65234 0.375703,5.46549 0.375703,6.47555 L0.375703,8.579 C1.00152,8.60331 1.67842,9.11362 1.67842,9.74561 L1.67842,14.2544 C1.67842,14.8864 1.00152,15.3967 0.375703,15.421 L0.375703,17.5245 C0.375703,18.5345 1.18891,19.3477 2.19896,19.3477 L21.8479,19.3477 C22.858,19.3477 23.6711,18.5345 23.6711,17.5245 L23.6711,6.47555 C23.6711,5.46549 22.858,4.65234 21.8479,4.65234 L2.19896,4.65234 M6.71936,9.23098 C8.56166,9.23097 10.0552,10.7245 10.0552,12.5668 C10.0552,14.4091 8.56167,15.9026 6.71936,15.9026 C4.87705,15.9026 3.38355,14.4091 3.38355,12.5668 C3.38355,10.7245 4.87705,9.23097 6.71936,9.23098 M19.875,9.24873 C20.7082,9.24871 21.3837,9.92418 21.3837,10.7574 C21.3837,11.5906 20.7082,12.266 19.875,12.266 C19.0418,12.266 18.3664,11.5906 18.3664,10.7574 C18.3664,9.9242 19.0418,9.24874 19.875,9.24873 M17.4318,12.8825 C18.265,12.8825 18.9404,13.558 18.9404,14.3912 C18.9404,15.2243 18.2649,15.8998 17.4318,15.8998 C16.5986,15.8998 15.9231,15.2244 15.9231,14.3912 C15.9231,13.5579 16.5985,12.8825 17.4318,12.8825 "/>
</g>

<g fill="none" stroke="#000000" stroke-opacity="1" stroke-width="0.54" stroke-linecap="butt" stroke-linejoin="miter" stroke-miterlimit="4" transform="matrix(0.95,0,0,0.95,11.6,25.6)"
font-family="Inter" font-size="11" font-weight="700" font-style="normal" 
>
<path vector-effect="none" fill-rule="nonzero" d="M2.19896,4.65234 C1.18891,4.65234 0.375703,5.46549 0.375703,6.47555 L0.375703,8.579 C1.00152,8.60331 1.67842,9.11362 1.67842,9.74561 L1.67842,14.2544 C1.67842,14.8864 1.00152,15.3967 0.375703,15.421 L0.375703,17.5245 C0.375703,18.5345 1.18891,19.3477 2.19896,19.3477 L21.8479,19.3477 C22.858,19.3477 23.6711,18.5345 23.6711,17.5245 L23.6711,6.47555 C23.6711,5.46549 22.858,4.65234 21.8479,4.65234 L2.19896,4.65234 M6.71936,9.23098 C8.56166,9.23097 10.0552,10.7245 10.0552,12.5668 C10.0552,14.4091 8.56167,15.9026 6.71936,15.9026 C4.87705,15.9026 3.38355,14.4091 3.38355,12.5668 C3.38355,10.7245 4.87705,9.23097 6.71936,9.23098 M19.875,9.24873 C20.7082,9.24871 21.3837,9.92418 21.3837,10.7574 C21.3837,11.5906 20.7082,12.266 19.875,12.266 C19.0418,12.266 18.3664,11.5906 18.3664,10.7574 C18.3664,9.9242 19.0418,9.24874 19.875,9.24873 M17.4318,12.8825 C18.265,12.8825 18.9404,13.558 18.9404,14.3912 C18.9404,15.2243 18.2649,15.8998 17.4318,15.8998 C16.5986,15.8998 15.9231,15.2244 15.9231,14.3912 C15.9231,13.5579 16.5985,12.8825 17.4318,12.8825 "/>
</g>

<g fill="#000000" fill-opacity="1" stroke="none" transform="matrix(0.95,0,0,0.95,11.6,25.6)"
font-family="Inter" font-size="11" font-weight="700" font-style="normal" 
>
<path vector-effect="none" fill-rule="nonzero" d="M0.108328,15.3227 L0.103298,8.65983 L1.21825,8.7259 L1.75102,9.37791 L1.70662,12.9064 L1.66222,14.5556 L1.04066,15.0542 L0.108328,15.3227"/>
</g>

<g fill="#000000" fill-opacity="1" stroke="none" transform="matrix(0.95,0,0,0.95,11.6,25.6)"
font-family="Inter" font-size="11" font-weight="700" font-style="normal" 
>
<circle cx="6.70111" cy="12.5452" r="1.68266"/>
</g>

<g fill="none" stroke="#000000" stroke-opacity="1" stroke-width="0.54" stroke-linecap="butt" stroke-linejoin="miter" stroke-miterlimit="4" transform="matrix(0.95,0,0,0.95,11.6,25.6)"
font-family="Inter" font-size="11" font-weight="700" font-style="normal" 
>
<circle cx="6.70111" cy="12.5452" r="1.68266"/>
</g>

<g fill="#000000" fill-opacity="1" stroke="none" transform="matrix(0.95,0,0,0.95,11.6,25.6)"
font-family="Inter" font-size="11" font-weight="700" font-style="normal" 
opacity="0.858824" >
<path vector-effect="none" fill-rule="evenodd" d="M8.42109,18.1373 C8.42109,18.0846 8.46385,18.0418 8.51661,18.0418 L15.4834,18.0418 C15.5361,18.0418 15.5789,18.0846 15.5789,18.1373 L15.5789,18.1373 C15.5789,18.1901 15.5361,18.2329 15.4834,18.2329 L8.51661,18.2329 C8.46385,18.2329 8.42109,18.1901 8.42109,18.1373 L8.42109,18.1373"/>
</g>

<g fill="none" stroke="#000000" stroke-opacity="1" stroke-width="0.437534" stroke-linecap="butt" stroke-linejoin="miter" stroke-miterlimit="4" transform="matrix(0.95,0,0,0.95,11.6,25.6)"
font-family="Inter" font-size="11" font-weight="700" font-style="normal" 
>
<path vector-effect="none" fill-rule="evenodd" d="M8.42109,18.1373 C8.42109,18.0846 8.46385,18.0418 8.51661,18.0418 L15.4834,18.0418 C15.5361,18.0418 15.5789,18.0846 15.5789,18.1373 L15.5789,18.1373 C15.5789,18.1901 15.5361,18.2329 15.4834,18.2329 L8.51661,18.2329 C8.46385,18.2329 8.42109,18.1901 8.42109,18.1373 L8.42109,18.1373"/>
</g>

<g fill="#ffffff" fill-opacity="1" stroke="none" transform="matrix(1,0,0,1,0,0)"
font-family="Inter" font-size="11" font-weight="700" font-style="normal" 
>
</g>

<g fill="#ffffff" fill-opacity="1" stroke="#00645c" stroke-opacity="1" stroke-width="1" stroke-linecap="square" stroke-linejoin="bevel" transform="matrix(1,0,0,1,0,0)"
font-family="Inter" font-size="11" font-weight="700" font-style="normal" 
>
<polyline fill="none" vector-effect="none" points="45,27 45,47 " />
</g>

<g fill="#009f94" fill-opacity="1" stroke="#00645c" stroke-opacity="1" stroke-width="1.2" stroke-linecap="square" stroke-linejoin="bevel" transform="matrix(1,0,0,1,212,22)"
font-family="Inter" font-size="11" font-weight="700" font-style="normal" 
>
<path vector-effect="none" fill-rule="evenodd" d="M0.5,3.5 C0.5,1.84315 1.84315,0.5 3.5,0.5 L48.5,0.5 C50.1569,0.5 51.5,1.84315 51.5,3.5 L51.5,20.5 C51.5,22.1569 50.1569,23.5 48.5,23.5 L3.5,23.5 C1.84315,23.5 0.5,22.1569 0.5,20.5 L0.5,3.5"/>
</g>

<g fill="#ffffff" fill-opacity="1" stroke="none" transform="matrix(1,0,0,1,212,22)"
font-family="Inter" font-size="11" font-weight="700" font-style="normal" 
>
<path vector-effect="none" fill-rule="nonzero" d="M12,14.0195 C11.6172,14.0195 11.276,13.9525 10.9766,13.8184 C10.6771,13.6842 10.4408,13.485 10.2676,13.2207 C10.0944,12.9564 10.0078,12.6263 10.0078,12.2305 C10.0078,11.8971 10.069,11.6172 10.1914,11.3906 C10.3138,11.1641 10.4805,10.9818 10.6914,10.8438 C10.9023,10.7057 11.1426,10.6016 11.4121,10.5313 C11.6816,10.4609 11.9648,10.4115 12.2617,10.3828 C12.6107,10.3464 12.8919,10.3118 13.1055,10.2793 C13.319,10.2467 13.474,10.1979 13.5703,10.1328 C13.6667,10.0677 13.7148,9.97135 13.7148,9.84375 L13.7148,9.82031 C13.7148,9.57292 13.6374,9.38151 13.4824,9.24609 C13.3275,9.11068 13.1081,9.04297 12.8242,9.04297 C12.5247,9.04297 12.2865,9.10872 12.1094,9.24023 C11.9323,9.37174 11.8151,9.53646 11.7578,9.73438 L10.2188,9.60938 C10.2969,9.24479 10.4505,8.92904 10.6797,8.66211 C10.9089,8.39518 11.2051,8.18945 11.5684,8.04492 C11.9316,7.90039 12.3529,7.82813 12.832,7.82813 C13.1654,7.82813 13.485,7.86719 13.791,7.94531 C14.097,8.02344 14.3691,8.14453 14.6074,8.30859 C14.8457,8.47266 15.0339,8.68294 15.1719,8.93945 C15.3099,9.19596 15.3789,9.5026 15.3789,9.85938 L15.3789,13.9063 L13.8008,13.9063 L13.8008,13.0742 L13.7539,13.0742 C13.6576,13.2617 13.5286,13.4264 13.3672,13.5684 C13.2057,13.7103 13.0117,13.821 12.7852,13.9004 C12.5586,13.9798 12.2969,14.0195 12,14.0195 M12.4766,12.8711 C12.7214,12.8711 12.9375,12.8223 13.125,12.7246 C13.3125,12.627 13.4596,12.4948 13.5664,12.3281 C13.6732,12.1615 13.7266,11.9727 13.7266,11.7617 L13.7266,11.125 C13.6745,11.1589 13.6035,11.1895 13.5137,11.2168 C13.4238,11.2441 13.3229,11.2689 13.2109,11.291 C13.099,11.3132 12.987,11.3327 12.875,11.3496 C12.763,11.3665 12.6615,11.3815 12.5703,11.3945 C12.375,11.4232 12.2044,11.4688 12.0586,11.5313 C11.9128,11.5938 11.7995,11.6777 11.7188,11.7832 C11.638,11.8887 11.5977,12.0195 11.5977,12.1758 C11.5977,12.4023 11.6803,12.5749 11.8457,12.6934 C12.0111,12.8118 12.2214,12.8711 12.4766,12.8711 M18.3281,10.4375 L18.3281,13.9063 L16.6641,13.9063 L16.6641,7.90625 L18.25,7.90625 L18.25,8.96484 L18.3203,8.96484 C18.4531,8.61589 18.6758,8.33919 18.9883,8.13477 C19.3008,7.93034 19.6797,7.82813 20.125,7.82813 C20.5417,7.82813 20.9049,7.91927 21.2148,8.10156 C21.5247,8.28385 21.7656,8.54362 21.9375,8.88086 C22.1094,9.2181 22.1953,9.61979 22.1953,10.0859 L22.1953,13.9063 L20.5313,13.9063 L20.5313,10.3828 C20.5339,10.0156 20.4401,9.72852 20.25,9.52148 C20.0599,9.31445 19.7982,9.21094 19.4648,9.21094 C19.2409,9.21094 19.0436,9.25911 18.873,9.35547 C18.7025,9.45182 18.5697,9.5918 18.4746,9.77539 C18.3796,9.95898 18.3307,10.1797 18.3281,10.4375 M24.3008,16.1563 C24.0898,16.1563 23.8926,16.14 23.709,16.1074 C23.5254,16.0749 23.3737,16.0339 23.2539,15.9844 L23.6289,14.7422 C23.8242,14.8021 24.0007,14.8346 24.1582,14.8398 C24.3158,14.8451 24.4525,14.8086 24.5684,14.7305 C24.6842,14.6523 24.7786,14.5195 24.8516,14.332 L24.9492,14.0781 L22.7969,7.90625 L24.5469,7.90625 L25.7891,12.3125 L25.8516,12.3125 L27.1055,7.90625 L28.8672,7.90625 L26.5352,14.5547 C26.4232,14.8776 26.2715,15.1595 26.0801,15.4004 C25.8887,15.6413 25.6471,15.8275 25.3555,15.959 C25.0638,16.0905 24.7122,16.1563 24.3008,16.1563 "/>
</g>

<g fill="#ffffff" fill-opacity="1" stroke="none" transform="matrix(0.03125,0,0,0.03125,250,30)"
font-family="Inter" font-size="11" font-weight="700" font-style="normal" 
>
<path vector-effect="none" fill-rule="nonzero" d="M111.326,191.938 C120.545,201.158 135.517,201.158 144.737,191.938 L239.144,97.5313 C245.929,90.7458 247.921,80.6413 244.233,71.7907 C240.545,62.9401 231.989,57.1871 222.401,57.1871 L33.5875,57.2608 C24.0731,57.2608 15.4437,63.0137 11.7559,71.8644 C8.06815,80.715 10.1333,90.8195 16.845,97.605 L111.252,192.012 L111.326,191.938"/>
</g>

<g fill="none" stroke="#000000" stroke-opacity="1" stroke-width="13.7195" stroke-linecap="butt" stroke-linejoin="miter" stroke-miterlimit="4" transform="matrix(0.03125,0,0,0.03125,250,30)"
font-family="Inter" font-size="11" font-weight="700" font-style="normal" 
>
<path vector-effect="none" fill-rule="nonzero" d="M111.326,191.938 C120.545,201.158 135.517,201.158 144.737,191.938 L239.144,97.5313 C245.929,90.7458 247.921,80.6413 244.233,71.7907 C240.545,62.9401 231.989,57.1871 222.401,57.1871 L33.5875,57.2608 C24.0731,57.2608 15.4437,63.0137 11.7559,71.8644 C8.06815,80.715 10.1333,90.8195 16.845,97.605 L111.252,192.012 L111.326,191.938"/>
</g>

<g fill="#ffffff" fill-opacity="1" stroke="none" transform="matrix(1,0,0,1,212,22)"
font-family="Inter" font-size="11" font-weight="700" font-style="normal" 
>
</g>

<g fill="#ffffff" fill-opacity="1" stroke="#00645c" stroke-opacity="1" stroke-width="1" stroke-linecap="square" stroke-linejoin="bevel" transform="matrix(1,0,0,1,0,0)"
font-family="Inter" font-size="11" font-weight="700" font-style="normal" 
>
</g>

<g fill="#009f94" fill-opacity="1" stroke="#00645c" stroke-opacity="1" stroke-width="1.2" stroke-linecap="square" stroke-linejoin="bevel" transform="matrix(1,0,0,1,285,22)"
font-family="Inter" font-size="11" font-weight="700" font-style="normal" 
>
<path vector-effect="none" fill-rule="evenodd" d="M0.5,3.5 C0.5,1.84315 1.84315,0.5 3.5,0.5 L63.5,0.5 C65.1569,0.5 66.5,1.84315 66.5,3.5 L66.5,20.5 C66.5,22.1569 65.1569,23.5 63.5,23.5 L3.5,23.5 C1.84315,23.5 0.5,22.1569 0.5,20.5 L0.5,3.5"/>
</g>

<g fill="#ffffff" fill-opacity="1" stroke="none" transform="matrix(1,0,0,1,285,22)"
font-family="Inter" font-size="11" font-weight="700" font-style="normal" 
>
<path vector-effect="none" fill-rule="nonzero" d="M10.0078,15.9063 L10.0078,9.90625 L11.5938,9.90625 L11.5938,10.9648 L11.6641,10.9648 C11.7891,10.6133 11.9974,10.3359 12.2891,10.1328 C12.5807,9.92969 12.9297,9.82813 13.3359,9.82813 C13.7474,9.82813 14.0977,9.93034 14.3867,10.1348 C14.6758,10.3392 14.8685,10.6159 14.9648,10.9648 L15.0273,10.9648 C15.1497,10.6211 15.3717,10.3457 15.6934,10.1387 C16.015,9.93164 16.3958,9.82813 16.8359,9.82813 C17.3958,9.82813 17.8509,10.0059 18.2012,10.3613 C18.5514,10.7168 18.7266,11.2201 18.7266,11.8711 L18.7266,15.9063 L17.0664,15.9063 L17.0664,12.1992 C17.0664,11.8659 16.9779,11.6159 16.8008,11.4492 C16.6237,11.2826 16.4023,11.1992 16.1367,11.1992 C15.8346,11.1992 15.599,11.2949 15.4297,11.4863 C15.2604,11.6777 15.1758,11.9297 15.1758,12.2422 L15.1758,15.9063 L13.5625,15.9063 L13.5625,12.1641 C13.5625,11.8698 13.4785,11.6354 13.3105,11.4609 C13.1426,11.2865 12.9219,11.1992 12.6484,11.1992 C12.4635,11.1992 12.2975,11.2454 12.1504,11.3379 C12.0033,11.4303 11.8867,11.5592 11.8008,11.7246 C11.7148,11.89 11.6719,12.0833 11.6719,12.3047 L11.6719,15.9063 L10.0078,15.9063 M22.75,16.0234 C22.1432,16.0234 21.6191,15.8939 21.1777,15.6348 C20.7363,15.3757 20.3958,15.0137 20.1563,14.5488 C19.9167,14.084 19.7969,13.5443 19.7969,12.9297 C19.7969,12.3099 19.9167,11.7676 20.1563,11.3027 C20.3958,10.8379 20.7363,10.4759 21.1777,10.2168 C21.6191,9.95768 22.1432,9.82813 22.75,9.82813 C23.3568,9.82813 23.8809,9.95768 24.3223,10.2168 C24.7637,10.4759 25.1042,10.8379 25.3438,11.3027 C25.5833,11.7676 25.7031,12.3099 25.7031,12.9297 C25.7031,13.5443 25.5833,14.084 25.3438,14.5488 C25.1042,15.0137 24.7637,15.3757 24.3223,15.6348 C23.8809,15.8939 23.3568,16.0234 22.75,16.0234 M22.7578,14.7344 C23.0339,14.7344 23.2643,14.6556 23.4492,14.498 C23.6341,14.3405 23.7741,14.125 23.8691,13.8516 C23.9642,13.5781 24.0117,13.2669 24.0117,12.918 C24.0117,12.569 23.9642,12.2578 23.8691,11.9844 C23.7741,11.7109 23.6341,11.4948 23.4492,11.3359 C23.2643,11.1771 23.0339,11.0977 22.7578,11.0977 C22.4792,11.0977 22.2454,11.1771 22.0566,11.3359 C21.8678,11.4948 21.7259,11.7109 21.6309,11.9844 C21.5358,12.2578 21.4883,12.569 21.4883,12.918 C21.4883,13.2669 21.5358,13.5781 21.6309,13.8516 C21.7259,14.125 21.8678,14.3405 22.0566,14.498 C22.2454,14.6556 22.4792,14.7344 22.7578,14.7344 M32.1797,9.90625 L30.082,15.9063 L28.207,15.9063 L26.1094,9.90625 L27.8672,9.90625 L29.1133,14.1992 L29.1758,14.1992 L30.418,9.90625 L32.1797,9.90625 M35.5547,16.0234 C34.9375,16.0234 34.4069,15.8978 33.9629,15.6465 C33.5189,15.3952 33.1771,15.0384 32.9375,14.5762 C32.6979,14.1139 32.5781,13.5664 32.5781,12.9336 C32.5781,12.3164 32.6979,11.7747 32.9375,11.3086 C33.1771,10.8424 33.515,10.4792 33.9512,10.2188 C34.3874,9.95833 34.8997,9.82813 35.4883,9.82813 C35.8841,9.82813 36.2533,9.89128 36.5957,10.0176 C36.9382,10.1439 37.2376,10.3333 37.4941,10.5859 C37.7507,10.8385 37.9505,11.1556 38.0938,11.5371 C38.237,11.9186 38.3086,12.3646 38.3086,12.875 L38.3086,13.332 L33.2422,13.332 L33.2422,12.3008 L36.7422,12.3008 C36.7422,12.0612 36.6901,11.849 36.5859,11.6641 C36.4818,11.4792 36.3379,11.334 36.1543,11.2285 C35.9707,11.123 35.7578,11.0703 35.5156,11.0703 C35.263,11.0703 35.0397,11.1283 34.8457,11.2441 C34.6517,11.36 34.5,11.515 34.3906,11.709 C34.2813,11.903 34.2253,12.1185 34.2227,12.3555 L34.2227,13.3359 C34.2227,13.6328 34.278,13.8893 34.3887,14.1055 C34.4993,14.3216 34.6563,14.4883 34.8594,14.6055 C35.0625,14.7227 35.3034,14.7813 35.582,14.7813 C35.7669,14.7813 35.9362,14.7552 36.0898,14.7031 C36.2435,14.651 36.375,14.5729 36.4844,14.4688 C36.5938,14.3646 36.6771,14.237 36.7344,14.0859 L38.2734,14.1875 C38.1953,14.5573 38.0358,14.8796 37.7949,15.1543 C37.554,15.429 37.2441,15.6426 36.8652,15.7949 C36.4863,15.9473 36.0495,16.0234 35.5547,16.0234 M41.5938,16.0039 C41.138,16.0039 40.7259,15.8861 40.3574,15.6504 C39.9889,15.4147 39.6973,15.0671 39.4824,14.6074 C39.2676,14.1478 39.1602,13.5833 39.1602,12.9141 C39.1602,12.2266 39.2708,11.6543 39.4922,11.1973 C39.7135,10.7402 40.0085,10.3978 40.377,10.1699 C40.7454,9.94206 41.1497,9.82813 41.5898,9.82813 C41.9258,9.82813 42.2064,9.88477 42.4316,9.99805 C42.6569,10.1113 42.8392,10.252 42.9785,10.4199 C43.1178,10.5879 43.224,10.7526 43.2969,10.9141 L43.3477,10.9141 L43.3477,7.90625 L45.0078,7.90625 L45.0078,15.9063 L43.3672,15.9063 L43.3672,14.9453 L43.2969,14.9453 C43.2188,15.112 43.1087,15.2767 42.9668,15.4395 C42.8249,15.6022 42.6413,15.737 42.416,15.8438 C42.1908,15.9505 41.9167,16.0039 41.5938,16.0039 M42.1211,14.6797 C42.3893,14.6797 42.6165,14.6061 42.8027,14.459 C42.9889,14.3118 43.1322,14.1055 43.2324,13.8398 C43.3327,13.5742 43.3828,13.263 43.3828,12.9063 C43.3828,12.5495 43.3333,12.2396 43.2344,11.9766 C43.1354,11.7135 42.9922,11.5104 42.8047,11.3672 C42.6172,11.224 42.3893,11.1523 42.1211,11.1523 C41.8477,11.1523 41.6172,11.2266 41.4297,11.375 C41.2422,11.5234 41.1003,11.7292 41.0039,11.9922 C40.9076,12.2552 40.8594,12.5599 40.8594,12.9063 C40.8594,13.2552 40.9082,13.5632 41.0059,13.8301 C41.1035,14.097 41.2454,14.3053 41.4316,14.4551 C41.6178,14.6048 41.8477,14.6797 42.1211,14.6797 "/>
</g>

<g fill="#ffffff" fill-opacity="1" stroke="none" transform="matrix(0.03125,0,0,0.03125,338,30)"
font-family="Inter" font-size="11" font-weight="700" font-style="normal" 
>
<path vector-effect="none" fill-rule="nonzero" d="M111.326,191.938 C120.545,201.158 135.517,201.158 144.737,191.938 L239.144,97.5313 C245.929,90.7458 247.921,80.6413 244.233,71.7907 C240.545,62.9401 231.989,57.1871 222.401,57.1871 L33.5875,57.2608 C24.0731,57.2608 15.4437,63.0137 11.7559,71.8644 C8.06815,80.715 10.1333,90.8195 16.845,97.605 L111.252,192.012 L111.326,191.938"/>
</g>

<g fill="none" stroke="#000000" stroke-opacity="1" stroke-width="13.7195" stroke-linecap="butt" stroke-linejoin="miter" stroke-miterlimit="4" transform="matrix(0.03125,0,0,0.03125,338,30)"
font-family="Inter" font-size="11" font-weight="700" font-style="normal" 
>
<path vector-effect="none" fill-rule="nonzero" d="M111.326,191.938 C120.545,201.158 135.517,201.158 144.737,191.938 L239.144,97.5313 C245.929,90.7458 247.921,80.6413 244.233,71.7907 C240.545,62.9401 231.989,57.1871 222.401,57.1871 L33.5875,57.2608 C24.0731,57.2608 15.4437,63.0137 11.7559,71.8644 C8.06815,80.715 10.1333,90.8195 16.845,97.605 L111.252,192.012 L111.326,191.938"/>
</g>

<g fill="#ffffff" fill-opacity="1" stroke="none" transform="matrix(1,0,0,1,285,22)"
font-family="Inter" font-size="11" font-weight="700" font-style="normal" 
>
</g>

<g fill="#ffffff" fill-opacity="1" stroke="#00645c" stroke-opacity="1" stroke-width="1" stroke-linecap="square" stroke-linejoin="bevel" transform="matrix(1,0,0,1,0,0)"
font-family="Inter" font-size="11" font-weight="700" font-style="normal" 
>
</g>

<g fill="#009f94" fill-opacity="1" stroke="#00645c" stroke-opacity="1" stroke-width="1.2" stroke-linecap="square" stroke-linejoin="bevel" transform="matrix(1,0,0,1,126,22)"
font-family="Inter" font-size="11" font-weight="700" font-style="normal" 
>
<path vector-effect="none" fill-rule="evenodd" d="M0.5,3.5 C0.5,1.84315 1.84315,0.5 3.5,0.5 L78.5,0.5 C80.1569,0.5 81.5,1.84315 81.5,3.5 L81.5,20.5 C81.5,22.1569 80.1569,23.5 78.5,23.5 L3.5,23.5 C1.84315,23.5 0.5,22.1569 0.5,20.5 L0.5,3.5"/>
</g>

<g fill="#ffffff" fill-opacity="1" stroke="none" transform="matrix(1,0,0,1,126,22)"
font-family="Inter" font-size="11" font-weight="700" font-style="normal" 
>
<path vector-effect="none" fill-rule="nonzero" d="M10.0078,16 L10.0078,8 L13.1641,8 C13.7708,8 14.2878,8.11523 14.7148,8.3457 C15.1419,8.57617 15.4681,8.89518 15.6934,9.30273 C15.9186,9.71029 16.0313,10.1797 16.0313,10.7109 C16.0313,11.2422 15.9167,11.7109 15.6875,12.1172 C15.4583,12.5234 15.127,12.8398 14.6934,13.0664 C14.2598,13.293 13.7357,13.4063 13.1211,13.4063 L11.1094,13.4063 L11.1094,12.0508 L12.8477,12.0508 C13.1732,12.0508 13.4421,11.9941 13.6543,11.8809 C13.8665,11.7676 14.0254,11.61 14.1309,11.4082 C14.2363,11.2064 14.2891,10.974 14.2891,10.7109 C14.2891,10.4453 14.2363,10.2129 14.1309,10.0137 C14.0254,9.81445 13.8659,9.65951 13.6523,9.54883 C13.4388,9.43815 13.168,9.38281 12.8398,9.38281 L11.6992,9.38281 L11.6992,16 L10.0078,16 M19.9688,16 L17.1328,16 L17.1328,8 L19.9922,8 C20.7969,8 21.4896,8.15951 22.0703,8.47852 C22.651,8.79753 23.0983,9.25521 23.4121,9.85156 C23.7259,10.4479 23.8828,11.1615 23.8828,11.9922 C23.8828,12.8255 23.7259,13.5417 23.4121,14.1406 C23.0983,14.7396 22.6491,15.1992 22.0645,15.5195 C21.4798,15.8398 20.7813,16 19.9688,16 M18.8242,14.5508 L19.8984,14.5508 C20.3984,14.5508 20.8197,14.4616 21.1621,14.2832 C21.5046,14.1048 21.7624,13.8275 21.9355,13.4512 C22.1087,13.0749 22.1953,12.5885 22.1953,11.9922 C22.1953,11.401 22.1087,10.918 21.9355,10.543 C21.7624,10.168 21.5052,9.89193 21.1641,9.71484 C20.8229,9.53776 20.4023,9.44922 19.9023,9.44922 L18.8242,9.44922 L18.8242,14.5508 M25.1328,16 L25.1328,8 L26.8242,8 L26.8242,14.6055 L30.2539,14.6055 L30.2539,16 L25.1328,16 M31.3672,8 L33.4531,8 L35.6563,13.375 L35.75,13.375 L37.9531,8 L40.0391,8 L40.0391,16 L38.3984,16 L38.3984,10.793 L38.332,10.793 L36.2617,15.9609 L35.1445,15.9609 L33.0742,10.7734 L33.0078,10.7734 L33.0078,16 L31.3672,16 L31.3672,8 M41.4297,16 L41.4297,8 L44.5859,8 C45.1901,8 45.7064,8.10742 46.1348,8.32227 C46.5632,8.53711 46.89,8.84049 47.1152,9.23242 C47.3405,9.62435 47.4531,10.0846 47.4531,10.6133 C47.4531,11.1445 47.3385,11.6009 47.1094,11.9824 C46.8802,12.3639 46.5488,12.6563 46.1152,12.8594 C45.6816,13.0625 45.1576,13.1641 44.543,13.1641 L42.4297,13.1641 L42.4297,11.8047 L44.2695,11.8047 C44.5924,11.8047 44.8607,11.7604 45.0742,11.6719 C45.2878,11.5833 45.4473,11.4505 45.5527,11.2734 C45.6582,11.0964 45.7109,10.8763 45.7109,10.6133 C45.7109,10.3477 45.6582,10.1237 45.5527,9.94141 C45.4473,9.75911 45.2871,9.62044 45.0723,9.52539 C44.8574,9.43034 44.5872,9.38281 44.2617,9.38281 L43.1211,9.38281 L43.1211,16 L41.4297,16 M45.75,12.3594 L47.7383,16 L45.8711,16 L43.9258,12.3594 L45.75,12.3594 M48.6484,16 L48.6484,8 L50.3398,8 L50.3398,11.5273 L50.4453,11.5273 L53.3242,8 L55.3516,8 L52.3828,11.582 L55.3867,16 L53.3633,16 L51.1719,12.7109 L50.3398,13.7266 L50.3398,16 L48.6484,16 M59.6602,8 L59.6602,16 L57.9688,16 L57.9688,9.60547 L57.9219,9.60547 L56.0898,10.7539 L56.0898,9.25391 L58.0703,8 L59.6602,8"/>
</g>

<g fill="#ffffff" fill-opacity="1" stroke="none" transform="matrix(0.03125,0,0,0.03125,194,30)"
font-family="Inter" font-size="11" font-weight="700" font-style="normal" 
>
<path vector-effect="none" fill-rule="nonzero" d="M111.326,191.938 C120.545,201.158 135.517,201.158 144.737,191.938 L239.144,97.5313 C245.929,90.7458 247.921,80.6413 244.233,71.7907 C240.545,62.9401 231.989,57.1871 222.401,57.1871 L33.5875,57.2608 C24.0731,57.2608 15.4437,63.0137 11.7559,71.8644 C8.06815,80.715 10.1333,90.8195 16.845,97.605 L111.252,192.012 L111.326,191.938"/>
</g>

<g fill="none" stroke="#000000" stroke-opacity="1" stroke-width="13.7195" stroke-linecap="butt" stroke-linejoin="miter" stroke-miterlimit="4" transform="matrix(0.03125,0,0,0.03125,194,30)"
font-family="Inter" font-size="11" font-weight="700" font-style="normal" 
>
<path vector-effect="none" fill-rule="nonzero" d="M111.326,191.938 C120.545,201.158 135.517,201.158 144.737,191.938 L239.144,97.5313 C245.929,90.7458 247.921,80.6413 244.233,71.7907 C240.545,62.9401 231.989,57.1871 222.401,57.1871 L33.5875,57.2608 C24.0731,57.2608 15.4437,63.0137 11.7559,71.8644 C8.06815,80.715 10.1333,90.8195 16.845,97.605 L111.252,192.012 L111.326,191.938"/>
</g>

<g fill="#ffffff" fill-opacity="1" stroke="none" transform="matrix(1,0,0,1,126,22)"
font-family="Inter" font-size="11" font-weight="700" font-style="normal" 
>
</g>

<g fill="#ffffff" fill-opacity="1" stroke="#00645c" stroke-opacity="1" stroke-width="1" stroke-linecap="square" stroke-linejoin="bevel" transform="matrix(1,0,0,1,0,0)"
font-family="Inter" font-size="11" font-weight="700" font-style="normal" 
>
</g>

<g fill="#ffffff" fill-opacity="1" stroke="#00645c" stroke-opacity="1" stroke-width="1" stroke-linecap="square" stroke-linejoin="bevel" transform="matrix(1,0,0,1,0,0)"
font-family="Inter" font-size="11" font-weight="700" font-style="normal" 
>
</g>

<g fill="none" stroke="#000000" stroke-opacity="1" stroke-width="1" stroke-linecap="square" stroke-linejoin="bevel" transform="matrix(1,0,0,1,0,0)"
font-family=".AppleSystemUIFont" font-size="13" font-weight="400" font-style="normal" 
>
</g>
</g>
</svg>
