<?xml version="1.0" encoding="UTF-8" standalone="no"?>
<svg width="92.4278mm" height="21.1667mm"
 viewBox="0 0 262 60"
 xmlns="http://www.w3.org/2000/svg" xmlns:xlink="http://www.w3.org/1999/xlink" version="1.2" baseProfile="tiny">
<title>Abstract block</title>
<desc>block_dashboard_controller_joystick_event</desc>
<defs>
</defs>
<g fill="none" stroke="black" stroke-width="1" fill-rule="evenodd" stroke-linecap="square" stroke-linejoin="bevel" >

<g fill="none" stroke="#000000" stroke-opacity="1" stroke-width="1" stroke-linecap="square" stroke-linejoin="bevel" transform="matrix(1,0,0,1,0,0)"
font-family=".AppleSystemUIFont" font-size="13" font-weight="400" font-style="normal" 
>
</g>

<g fill="none" stroke="#000000" stroke-opacity="1" stroke-width="1" stroke-linecap="square" stroke-linejoin="bevel" transform="matrix(1,0,0,1,0,0)"
font-family=".AppleSystemUIFont" font-size="13" font-weight="400" font-style="normal" 
>
</g>

<g fill="#009f94" fill-opacity="1" stroke="#00645c" stroke-opacity="1" stroke-width="1.2" stroke-linecap="square" stroke-linejoin="bevel" transform="matrix(1,0,0,1,0,0)"
font-family=".AppleSystemUIFont" font-size="13" font-weight="400" font-style="normal" 
>
<path vector-effect="none" fill-rule="evenodd" d="M0.5,20.5 L1,18.6516 L1,18 L1.77836,17.1565 L2.58892,16.3401 L3.43062,15.551 L4.30242,14.7891 L5.20325,14.0544 L6.13206,13.3469 L7.08779,12.6667 L8.06939,12.0136 L9.0758,11.3878 L10.106,10.7891 L11.1588,10.2177 L12.2333,9.67347 L13.3284,9.15646 L14.4431,8.66667 L15.5762,8.20408 L16.7267,7.76871 L17.8936,7.36054 L19.0758,6.97959 L20.2723,6.62585 L21.4819,6.29932 L22.7037,6 L23.9366,5.72789 L25.1795,5.48299 L26.4314,5.26531 L27.6912,5.07483 L28.9578,4.91156 L30.2303,4.77551 L31.5075,4.66667 L32.7885,4.58503 L34.072,4.53061 L35.3572,4.5034 L36.6428,4.5034 L37.928,4.53061 L39.2115,4.58503 L40.4925,4.66667 L41.7697,4.77551 L43.0422,4.91156 L44.3088,5.07483 L45.5686,5.26531 L46.8205,5.48299 L48.0634,5.72789 L49.2963,6 L50.5181,6.29932 L51.7277,6.62585 L52.9242,6.97959 L54.1064,7.36054 L55.2733,7.76871 L56.4238,8.20408 L57.5569,8.66667 L58.6716,9.15646 L59.7667,9.67347 L60.8412,10.2177 L61.894,10.7891 L62.9242,11.3878 L63.9306,12.0136 L64.9122,12.6667 L65.8679,13.3469 L66.7968,14.0544 L67.6976,14.7891 L68.5694,15.551 L69.4111,16.3401 L69.5698,16.5 L257.5,16.5 L259.519,17.0461 L260.954,18.4811 L261.5,20.5 L261.5,47.5 L260.954,49.5189 L259.519,50.9539 L257.5,51.5 L34.375,51.5 L33.584,51.9766 L32.8281,52.6875 L32.002,53.6797 L31,55 L30.2441,55.6602 L29.4531,56.1563 L28.5918,56.5117 L27.625,56.75 L26.5176,56.8945 L25.2344,56.9688 L23.7402,56.9961 L22,57 L20.2598,56.9961 L18.7656,56.9688 L17.4824,56.8945 L16.375,56.75 L15.4082,56.5117 L14.5469,56.1563 L13.7559,55.6602 L13,55 L11.998,53.6797 L11.1719,52.6875 L10.416,51.9766 L9.625,51.5 L4.5,51.5 L2.48112,50.9539 L1.04612,49.5189 L0.5,47.5 L0.5,20.5"/>
</g>

<g fill="#ffffff" fill-opacity="1" stroke="none" transform="matrix(1,0,0,1,0,0)"
font-family="Inter" font-size="11" font-weight="700" font-style="normal" 
>
<path vector-effect="none" fill-rule="nonzero" d="M53.3945,36.875 L51.7617,30.875 L53.4453,30.875 L54.375,34.9063 L54.4297,34.9063 L55.3984,30.875 L57.0508,30.875 L58.0352,34.8828 L58.0859,34.8828 L59,30.875 L60.6797,30.875 L59.0508,36.875 L57.2891,36.875 L56.2578,33.1016 L56.1836,33.1016 L55.1523,36.875 L53.3945,36.875 M63.2188,33.4063 L63.2188,36.875 L61.5547,36.875 L61.5547,28.875 L63.1719,28.875 L63.1719,31.9336 L63.2422,31.9336 C63.3776,31.5794 63.5964,31.3014 63.8984,31.0996 C64.2005,30.8978 64.5794,30.7969 65.0352,30.7969 C65.4518,30.7969 65.8158,30.8874 66.127,31.0684 C66.4382,31.2493 66.6803,31.5085 66.8535,31.8457 C67.0267,32.1829 67.112,32.5859 67.1094,33.0547 L67.1094,36.875 L65.4453,36.875 L65.4453,33.3516 C65.4479,32.9818 65.3548,32.694 65.166,32.4883 C64.9772,32.2826 64.7135,32.1797 64.375,32.1797 C64.1484,32.1797 63.9486,32.2279 63.7754,32.3242 C63.6022,32.4206 63.4668,32.5605 63.3691,32.7441 C63.2715,32.9277 63.2214,33.1484 63.2188,33.4063 M71.1484,36.9922 C70.5313,36.9922 70.0007,36.8665 69.5566,36.6152 C69.1126,36.3639 68.7708,36.0072 68.5313,35.5449 C68.2917,35.0827 68.1719,34.5352 68.1719,33.9023 C68.1719,33.2852 68.2917,32.7435 68.5313,32.2773 C68.7708,31.8112 69.1087,31.4479 69.5449,31.1875 C69.9811,30.9271 70.4935,30.7969 71.082,30.7969 C71.4779,30.7969 71.847,30.86 72.1895,30.9863 C72.5319,31.1126 72.8314,31.3021 73.0879,31.5547 C73.3444,31.8073 73.5443,32.1243 73.6875,32.5059 C73.8307,32.8874 73.9023,33.3333 73.9023,33.8438 L73.9023,34.3008 L68.8359,34.3008 L68.8359,33.2695 L72.3359,33.2695 C72.3359,33.0299 72.2839,32.8177 72.1797,32.6328 C72.0755,32.4479 71.9316,32.3027 71.748,32.1973 C71.5645,32.0918 71.3516,32.0391 71.1094,32.0391 C70.8568,32.0391 70.6335,32.097 70.4395,32.2129 C70.2454,32.3288 70.0938,32.4837 69.9844,32.6777 C69.875,32.8717 69.819,33.0872 69.8164,33.3242 L69.8164,34.3047 C69.8164,34.6016 69.8717,34.8581 69.9824,35.0742 C70.0931,35.2904 70.25,35.457 70.4531,35.5742 C70.6563,35.6914 70.8971,35.75 71.1758,35.75 C71.3607,35.75 71.5299,35.724 71.6836,35.6719 C71.8372,35.6198 71.9688,35.5417 72.0781,35.4375 C72.1875,35.3333 72.2708,35.2057 72.3281,35.0547 L73.8672,35.1563 C73.7891,35.526 73.6296,35.8483 73.3887,36.123 C73.1478,36.3978 72.8379,36.6113 72.459,36.7637 C72.0801,36.916 71.6432,36.9922 71.1484,36.9922 M76.6406,33.4063 L76.6406,36.875 L74.9766,36.875 L74.9766,30.875 L76.5625,30.875 L76.5625,31.9336 L76.6328,31.9336 C76.7656,31.5846 76.9883,31.3079 77.3008,31.1035 C77.6133,30.8991 77.9922,30.7969 78.4375,30.7969 C78.8542,30.7969 79.2174,30.888 79.5273,31.0703 C79.8372,31.2526 80.0781,31.5124 80.25,31.8496 C80.4219,32.1868 80.5078,32.5885 80.5078,33.0547 L80.5078,36.875 L78.8438,36.875 L78.8438,33.3516 C78.8464,32.9844 78.7526,32.6973 78.5625,32.4902 C78.3724,32.2832 78.1107,32.1797 77.7773,32.1797 C77.5534,32.1797 77.3561,32.2279 77.1855,32.3242 C77.015,32.4206 76.8822,32.5605 76.7871,32.7441 C76.6921,32.9277 76.6432,33.1484 76.6406,33.4063 M84.3516,30.875 L86.0156,30.875 L86.0156,37.1719 C86.0156,37.6354 85.9245,38.0104 85.7422,38.2969 C85.5599,38.5833 85.2988,38.793 84.959,38.9258 C84.6191,39.0586 84.2135,39.125 83.7422,39.125 C83.6849,39.125 83.6296,39.1243 83.5762,39.123 C83.5228,39.1217 83.4661,39.1198 83.4063,39.1172 L83.4063,37.8164 C83.4505,37.819 83.4889,37.821 83.5215,37.8223 C83.554,37.8236 83.5885,37.8242 83.625,37.8242 C83.8932,37.8242 84.0814,37.7676 84.1895,37.6543 C84.2975,37.541 84.3516,37.3711 84.3516,37.1445 L84.3516,30.875 M85.1797,30.1016 C84.9349,30.1016 84.724,30.0189 84.5469,29.8535 C84.3698,29.6882 84.2813,29.4896 84.2813,29.2578 C84.2813,29.0286 84.3698,28.8314 84.5469,28.666 C84.724,28.5007 84.9349,28.418 85.1797,28.418 C85.4297,28.418 85.6426,28.5007 85.8184,28.666 C85.9941,28.8314 86.082,29.0286 86.082,29.2578 C86.082,29.4896 85.9941,29.6882 85.8184,29.8535 C85.6426,30.0189 85.4297,30.1016 85.1797,30.1016 M90.0469,36.9922 C89.4401,36.9922 88.916,36.8626 88.4746,36.6035 C88.0332,36.3444 87.6927,35.9824 87.4531,35.5176 C87.2135,35.0527 87.0938,34.513 87.0938,33.8984 C87.0938,33.2786 87.2135,32.7363 87.4531,32.2715 C87.6927,31.8066 88.0332,31.4447 88.4746,31.1855 C88.916,30.9264 89.4401,30.7969 90.0469,30.7969 C90.6536,30.7969 91.1777,30.9264 91.6191,31.1855 C92.0605,31.4447 92.401,31.8066 92.6406,32.2715 C92.8802,32.7363 93,33.2786 93,33.8984 C93,34.513 92.8802,35.0527 92.6406,35.5176 C92.401,35.9824 92.0605,36.3444 91.6191,36.6035 C91.1777,36.8626 90.6536,36.9922 90.0469,36.9922 M90.0547,35.7031 C90.3307,35.7031 90.5612,35.6243 90.7461,35.4668 C90.931,35.3092 91.071,35.0938 91.166,34.8203 C91.2611,34.5469 91.3086,34.2357 91.3086,33.8867 C91.3086,33.5378 91.2611,33.2266 91.166,32.9531 C91.071,32.6797 90.931,32.4635 90.7461,32.3047 C90.5612,32.1458 90.3307,32.0664 90.0547,32.0664 C89.776,32.0664 89.5423,32.1458 89.3535,32.3047 C89.1647,32.4635 89.0228,32.6797 88.9277,32.9531 C88.8327,33.2266 88.7852,33.5378 88.7852,33.8867 C88.7852,34.2357 88.8327,34.5469 88.9277,34.8203 C89.0228,35.0938 89.1647,35.3092 89.3535,35.4668 C89.5423,35.6243 89.776,35.7031 90.0547,35.7031 M94.9102,39.125 C94.6992,39.125 94.502,39.1087 94.3184,39.0762 C94.1348,39.0436 93.9831,39.0026 93.8633,38.9531 L94.2383,37.7109 C94.4336,37.7708 94.61,37.8034 94.7676,37.8086 C94.9251,37.8138 95.0618,37.7773 95.1777,37.6992 C95.2936,37.6211 95.388,37.4883 95.4609,37.3008 L95.5586,37.0469 L93.4063,30.875 L95.1563,30.875 L96.3984,35.2813 L96.4609,35.2813 L97.7148,30.875 L99.4766,30.875 L97.1445,37.5234 C97.0326,37.8464 96.8809,38.1283 96.6895,38.3691 C96.498,38.61 96.2565,38.7962 95.9648,38.9277 C95.6732,39.0592 95.3216,39.125 94.9102,39.125 M105.313,32.5859 L103.789,32.6797 C103.763,32.5495 103.707,32.4316 103.621,32.3262 C103.535,32.2207 103.423,32.1361 103.283,32.0723 C103.144,32.0085 102.978,31.9766 102.785,31.9766 C102.527,31.9766 102.31,32.0306 102.133,32.1387 C101.956,32.2467 101.867,32.3906 101.867,32.5703 C101.867,32.7135 101.924,32.8346 102.039,32.9336 C102.154,33.0326 102.35,33.112 102.629,33.1719 L103.715,33.3906 C104.298,33.5104 104.733,33.7031 105.02,33.9688 C105.306,34.2344 105.449,34.5833 105.449,35.0156 C105.449,35.4089 105.334,35.7539 105.104,36.0508 C104.873,36.3477 104.558,36.5788 104.158,36.7441 C103.758,36.9095 103.298,36.9922 102.777,36.9922 C101.983,36.9922 101.351,36.8262 100.881,36.4941 C100.411,36.1621 100.135,35.7096 100.055,35.1367 L101.691,35.0508 C101.741,35.293 101.861,35.4772 102.051,35.6035 C102.241,35.7298 102.484,35.793 102.781,35.793 C103.073,35.793 103.308,35.7363 103.486,35.623 C103.665,35.5098 103.755,35.3633 103.758,35.1836 C103.755,35.0326 103.691,34.9082 103.566,34.8105 C103.441,34.7129 103.249,34.638 102.988,34.5859 L101.949,34.3789 C101.363,34.2617 100.928,34.0586 100.643,33.7695 C100.357,33.4805 100.215,33.112 100.215,32.6641 C100.215,32.2786 100.32,31.9466 100.529,31.668 C100.739,31.3893 101.035,31.1745 101.416,31.0234 C101.798,30.8724 102.245,30.7969 102.758,30.7969 C103.516,30.7969 104.113,30.957 104.549,31.2773 C104.985,31.5977 105.24,32.0339 105.313,32.5859 M109.684,30.875 L109.684,32.125 L106.07,32.125 L106.07,30.875 L109.684,30.875 M106.891,29.4375 L108.555,29.4375 L108.555,35.0313 C108.555,35.1849 108.578,35.304 108.625,35.3887 C108.672,35.4733 108.738,35.5326 108.822,35.5664 C108.907,35.6003 109.005,35.6172 109.117,35.6172 C109.195,35.6172 109.273,35.61 109.352,35.5957 C109.43,35.5814 109.49,35.5703 109.531,35.5625 L109.793,36.8008 C109.71,36.8268 109.592,36.8574 109.441,36.8926 C109.29,36.9277 109.107,36.9492 108.891,36.957 C108.49,36.9727 108.139,36.9193 107.838,36.7969 C107.537,36.6745 107.303,36.4844 107.137,36.2266 C106.97,35.9688 106.888,35.6432 106.891,35.25 L106.891,29.4375 M110.758,36.875 L110.758,30.875 L112.422,30.875 L112.422,36.875 L110.758,36.875 M111.594,30.1016 C111.346,30.1016 111.135,30.0189 110.959,29.8535 C110.783,29.6882 110.695,29.4896 110.695,29.2578 C110.695,29.0286 110.783,28.8314 110.959,28.666 C111.135,28.5007 111.346,28.418 111.594,28.418 C111.841,28.418 112.053,28.5007 112.229,28.666 C112.404,28.8314 112.492,29.0286 112.492,29.2578 C112.492,29.4896 112.404,29.6882 112.229,29.8535 C112.053,30.0189 111.841,30.1016 111.594,30.1016 M116.453,36.9922 C115.839,36.9922 115.311,36.8613 114.869,36.5996 C114.428,36.3379 114.089,35.974 113.854,35.5078 C113.618,35.0417 113.5,34.5052 113.5,33.8984 C113.5,33.2839 113.619,32.7441 113.857,32.2793 C114.096,31.8145 114.435,31.4512 114.875,31.1895 C115.315,30.9277 115.839,30.7969 116.445,30.7969 C116.969,30.7969 117.427,30.8919 117.82,31.082 C118.214,31.2721 118.525,31.5391 118.754,31.8828 C118.983,32.2266 119.109,32.6302 119.133,33.0938 L117.563,33.0938 C117.518,32.7943 117.402,32.5527 117.213,32.3691 C117.024,32.1855 116.777,32.0938 116.473,32.0938 C116.215,32.0938 115.99,32.1634 115.799,32.3027 C115.607,32.4421 115.458,32.6445 115.352,32.9102 C115.245,33.1758 115.191,33.4974 115.191,33.875 C115.191,34.2578 115.244,34.5833 115.35,34.8516 C115.455,35.1198 115.604,35.3242 115.797,35.4648 C115.99,35.6055 116.215,35.6758 116.473,35.6758 C116.663,35.6758 116.834,35.6367 116.986,35.5586 C117.139,35.4805 117.265,35.3665 117.365,35.2168 C117.465,35.0671 117.531,34.8867 117.563,34.6758 L119.133,34.6758 C119.107,35.1341 118.982,35.5371 118.76,35.8848 C118.537,36.2324 118.23,36.5039 117.84,36.6992 C117.449,36.8945 116.987,36.9922 116.453,36.9922 M121.703,35.1484 L121.707,33.1523 L121.949,33.1523 L123.871,30.875 L125.781,30.875 L123.199,33.8906 L122.805,33.8906 L121.703,35.1484 M120.195,36.875 L120.195,28.875 L121.859,28.875 L121.859,36.875 L120.195,36.875 M123.945,36.875 L122.18,34.2617 L123.289,33.0859 L125.895,36.875 L123.945,36.875"/>
</g>

<g fill="#ffffff" fill-opacity="1" stroke="none" transform="matrix(1,0,0,1,0,0)"
font-family="Inter" font-size="11" font-weight="700" font-style="normal" 
>
<path vector-effect="none" fill-rule="nonzero" d="M196.164,38 L196.164,32 L197.828,32 L197.828,38 L196.164,38 M197,31.2266 C196.753,31.2266 196.541,31.1439 196.365,30.9785 C196.189,30.8132 196.102,30.6146 196.102,30.3828 C196.102,30.1536 196.189,29.9564 196.365,29.791 C196.541,29.6257 196.753,29.543 197,29.543 C197.247,29.543 197.459,29.6257 197.635,29.791 C197.811,29.9564 197.898,30.1536 197.898,30.3828 C197.898,30.6146 197.811,30.8132 197.635,30.9785 C197.459,31.1439 197.247,31.2266 197,31.2266 M204.141,33.7109 L202.617,33.8047 C202.591,33.6745 202.535,33.5566 202.449,33.4512 C202.363,33.3457 202.251,33.2611 202.111,33.1973 C201.972,33.1335 201.806,33.1016 201.613,33.1016 C201.355,33.1016 201.138,33.1556 200.961,33.2637 C200.784,33.3717 200.695,33.5156 200.695,33.6953 C200.695,33.8385 200.753,33.9596 200.867,34.0586 C200.982,34.1576 201.178,34.237 201.457,34.2969 L202.543,34.5156 C203.126,34.6354 203.561,34.8281 203.848,35.0938 C204.134,35.3594 204.277,35.7083 204.277,36.1406 C204.277,36.5339 204.162,36.8789 203.932,37.1758 C203.701,37.4727 203.386,37.7038 202.986,37.8691 C202.587,38.0345 202.126,38.1172 201.605,38.1172 C200.811,38.1172 200.179,37.9512 199.709,37.6191 C199.239,37.2871 198.964,36.8346 198.883,36.2617 L200.52,36.1758 C200.569,36.418 200.689,36.6022 200.879,36.7285 C201.069,36.8548 201.313,36.918 201.609,36.918 C201.901,36.918 202.136,36.8613 202.314,36.748 C202.493,36.6348 202.583,36.4883 202.586,36.3086 C202.583,36.1576 202.52,36.0332 202.395,35.9355 C202.27,35.8379 202.077,35.763 201.816,35.7109 L200.777,35.5039 C200.191,35.3867 199.756,35.1836 199.471,34.8945 C199.186,34.6055 199.043,34.237 199.043,33.7891 C199.043,33.4036 199.148,33.0716 199.357,32.793 C199.567,32.5143 199.863,32.2995 200.244,32.1484 C200.626,31.9974 201.073,31.9219 201.586,31.9219 C202.344,31.9219 202.941,32.082 203.377,32.4023 C203.813,32.7227 204.068,33.1589 204.141,33.7109 "/>
</g>

<g fill="#ffffff" fill-opacity="1" stroke="none" transform="matrix(0.95,0,0,0.95,11.6,25.6)"
font-family="Inter" font-size="11" font-weight="700" font-style="normal" 
>
<path vector-effect="none" fill-rule="nonzero" d="M2.19896,4.65234 C1.18891,4.65234 0.375703,5.46549 0.375703,6.47555 L0.375703,8.579 C1.00152,8.60331 1.67842,9.11362 1.67842,9.74561 L1.67842,14.2544 C1.67842,14.8864 1.00152,15.3967 0.375703,15.421 L0.375703,17.5245 C0.375703,18.5345 1.18891,19.3477 2.19896,19.3477 L21.8479,19.3477 C22.858,19.3477 23.6711,18.5345 23.6711,17.5245 L23.6711,6.47555 C23.6711,5.46549 22.858,4.65234 21.8479,4.65234 L2.19896,4.65234 M6.71936,9.23098 C8.56166,9.23097 10.0552,10.7245 10.0552,12.5668 C10.0552,14.4091 8.56167,15.9026 6.71936,15.9026 C4.87705,15.9026 3.38355,14.4091 3.38355,12.5668 C3.38355,10.7245 4.87705,9.23097 6.71936,9.23098 M19.875,9.24873 C20.7082,9.24871 21.3837,9.92418 21.3837,10.7574 C21.3837,11.5906 20.7082,12.266 19.875,12.266 C19.0418,12.266 18.3664,11.5906 18.3664,10.7574 C18.3664,9.9242 19.0418,9.24874 19.875,9.24873 M17.4318,12.8825 C18.265,12.8825 18.9404,13.558 18.9404,14.3912 C18.9404,15.2243 18.2649,15.8998 17.4318,15.8998 C16.5986,15.8998 15.9231,15.2244 15.9231,14.3912 C15.9231,13.5579 16.5985,12.8825 17.4318,12.8825 "/>
</g>

<g fill="none" stroke="#000000" stroke-opacity="1" stroke-width="0.54" stroke-linecap="butt" stroke-linejoin="miter" stroke-miterlimit="4" transform="matrix(0.95,0,0,0.95,11.6,25.6)"
font-family="Inter" font-size="11" font-weight="700" font-style="normal" 
>
<path vector-effect="none" fill-rule="nonzero" d="M2.19896,4.65234 C1.18891,4.65234 0.375703,5.46549 0.375703,6.47555 L0.375703,8.579 C1.00152,8.60331 1.67842,9.11362 1.67842,9.74561 L1.67842,14.2544 C1.67842,14.8864 1.00152,15.3967 0.375703,15.421 L0.375703,17.5245 C0.375703,18.5345 1.18891,19.3477 2.19896,19.3477 L21.8479,19.3477 C22.858,19.3477 23.6711,18.5345 23.6711,17.5245 L23.6711,6.47555 C23.6711,5.46549 22.858,4.65234 21.8479,4.65234 L2.19896,4.65234 M6.71936,9.23098 C8.56166,9.23097 10.0552,10.7245 10.0552,12.5668 C10.0552,14.4091 8.56167,15.9026 6.71936,15.9026 C4.87705,15.9026 3.38355,14.4091 3.38355,12.5668 C3.38355,10.7245 4.87705,9.23097 6.71936,9.23098 M19.875,9.24873 C20.7082,9.24871 21.3837,9.92418 21.3837,10.7574 C21.3837,11.5906 20.7082,12.266 19.875,12.266 C19.0418,12.266 18.3664,11.5906 18.3664,10.7574 C18.3664,9.9242 19.0418,9.24874 19.875,9.24873 M17.4318,12.8825 C18.265,12.8825 18.9404,13.558 18.9404,14.3912 C18.9404,15.2243 18.2649,15.8998 17.4318,15.8998 C16.5986,15.8998 15.9231,15.2244 15.9231,14.3912 C15.9231,13.5579 16.5985,12.8825 17.4318,12.8825 "/>
</g>

<g fill="#000000" fill-opacity="1" stroke="none" transform="matrix(0.95,0,0,0.95,11.6,25.6)"
font-family="Inter" font-size="11" font-weight="700" font-style="normal" 
>
<path vector-effect="none" fill-rule="nonzero" d="M0.108328,15.3227 L0.103298,8.65983 L1.21825,8.7259 L1.75102,9.37791 L1.70662,12.9064 L1.66222,14.5556 L1.04066,15.0542 L0.108328,15.3227"/>
</g>

<g fill="#000000" fill-opacity="1" stroke="none" transform="matrix(0.95,0,0,0.95,11.6,25.6)"
font-family="Inter" font-size="11" font-weight="700" font-style="normal" 
>
<circle cx="6.70111" cy="12.5452" r="1.68266"/>
</g>

<g fill="none" stroke="#000000" stroke-opacity="1" stroke-width="0.54" stroke-linecap="butt" stroke-linejoin="miter" stroke-miterlimit="4" transform="matrix(0.95,0,0,0.95,11.6,25.6)"
font-family="Inter" font-size="11" font-weight="700" font-style="normal" 
>
<circle cx="6.70111" cy="12.5452" r="1.68266"/>
</g>

<g fill="#000000" fill-opacity="1" stroke="none" transform="matrix(0.95,0,0,0.95,11.6,25.6)"
font-family="Inter" font-size="11" font-weight="700" font-style="normal" 
opacity="0.858824" >
<path vector-effect="none" fill-rule="evenodd" d="M8.42109,18.1373 C8.42109,18.0846 8.46385,18.0418 8.51661,18.0418 L15.4834,18.0418 C15.5361,18.0418 15.5789,18.0846 15.5789,18.1373 L15.5789,18.1373 C15.5789,18.1901 15.5361,18.2329 15.4834,18.2329 L8.51661,18.2329 C8.46385,18.2329 8.42109,18.1901 8.42109,18.1373 L8.42109,18.1373"/>
</g>

<g fill="none" stroke="#000000" stroke-opacity="1" stroke-width="0.437534" stroke-linecap="butt" stroke-linejoin="miter" stroke-miterlimit="4" transform="matrix(0.95,0,0,0.95,11.6,25.6)"
font-family="Inter" font-size="11" font-weight="700" font-style="normal" 
>
<path vector-effect="none" fill-rule="evenodd" d="M8.42109,18.1373 C8.42109,18.0846 8.46385,18.0418 8.51661,18.0418 L15.4834,18.0418 C15.5361,18.0418 15.5789,18.0846 15.5789,18.1373 L15.5789,18.1373 C15.5789,18.1901 15.5361,18.2329 15.4834,18.2329 L8.51661,18.2329 C8.46385,18.2329 8.42109,18.1901 8.42109,18.1373 L8.42109,18.1373"/>
</g>

<g fill="#ffffff" fill-opacity="1" stroke="none" transform="matrix(1,0,0,1,0,0)"
font-family="Inter" font-size="11" font-weight="700" font-style="normal" 
>
</g>

<g fill="#ffffff" fill-opacity="1" stroke="#00645c" stroke-opacity="1" stroke-width="1" stroke-linecap="square" stroke-linejoin="bevel" transform="matrix(1,0,0,1,0,0)"
font-family="Inter" font-size="11" font-weight="700" font-style="normal" 
>
<polyline fill="none" vector-effect="none" points="45,27 45,47 " />
</g>

<g fill="#009f94" fill-opacity="1" stroke="#00645c" stroke-opacity="1" stroke-width="1.2" stroke-linecap="square" stroke-linejoin="bevel" transform="matrix(1,0,0,1,132,22)"
font-family="Inter" font-size="11" font-weight="700" font-style="normal" 
>
<path vector-effect="none" fill-rule="evenodd" d="M0.5,3.5 C0.5,1.84315 1.84315,0.5 3.5,0.5 L54.5,0.5 C56.1569,0.5 57.5,1.84315 57.5,3.5 L57.5,20.5 C57.5,22.1569 56.1569,23.5 54.5,23.5 L3.5,23.5 C1.84315,23.5 0.5,22.1569 0.5,20.5 L0.5,3.5"/>
</g>

<g fill="#ffffff" fill-opacity="1" stroke="none" transform="matrix(1,0,0,1,132,22)"
font-family="Inter" font-size="11" font-weight="700" font-style="normal" 
>
<path vector-effect="none" fill-rule="nonzero" d="M13.6484,7.9375 L15.3203,7.9375 L15.3203,13.5156 C15.3203,14.0313 15.2051,14.4792 14.9746,14.8594 C14.7441,15.2396 14.4245,15.5326 14.0156,15.7383 C13.6068,15.944 13.1315,16.0469 12.5898,16.0469 C12.1081,16.0469 11.6712,15.9616 11.2793,15.791 C10.8874,15.6204 10.5768,15.36 10.3477,15.0098 C10.1185,14.6595 10.0052,14.2188 10.0078,13.6875 L11.6914,13.6875 C11.6966,13.8984 11.7402,14.0788 11.8223,14.2285 C11.9043,14.3783 12.0176,14.4928 12.1621,14.5723 C12.3066,14.6517 12.4779,14.6914 12.6758,14.6914 C12.8841,14.6914 13.0605,14.6465 13.2051,14.5566 C13.3496,14.4668 13.4596,14.3346 13.5352,14.1602 C13.6107,13.9857 13.6484,13.7708 13.6484,13.5156 L13.6484,7.9375 M24.0625,11.9375 C24.0625,12.8099 23.8978,13.5521 23.5684,14.1641 C23.2389,14.776 22.791,15.2428 22.2246,15.5645 C21.6582,15.8861 21.0221,16.0469 20.3164,16.0469 C19.6055,16.0469 18.9674,15.8854 18.4023,15.5625 C17.8372,15.2396 17.3906,14.7721 17.0625,14.1602 C16.7344,13.5482 16.5703,12.8073 16.5703,11.9375 C16.5703,11.0651 16.7344,10.3229 17.0625,9.71094 C17.3906,9.09896 17.8372,8.63216 18.4023,8.31055 C18.9674,7.98893 19.6055,7.82813 20.3164,7.82813 C21.0221,7.82813 21.6582,7.98893 22.2246,8.31055 C22.791,8.63216 23.2389,9.09896 23.5684,9.71094 C23.8978,10.3229 24.0625,11.0651 24.0625,11.9375 M22.3477,11.9375 C22.3477,11.3724 22.2637,10.8958 22.0957,10.5078 C21.9277,10.1198 21.6914,9.82552 21.3867,9.625 C21.082,9.42448 20.7253,9.32422 20.3164,9.32422 C19.9076,9.32422 19.5508,9.42448 19.2461,9.625 C18.9414,9.82552 18.7051,10.1198 18.5371,10.5078 C18.3691,10.8958 18.2852,11.3724 18.2852,11.9375 C18.2852,12.5026 18.3691,12.9792 18.5371,13.3672 C18.7051,13.7552 18.9414,14.0495 19.2461,14.25 C19.5508,14.4505 19.9076,14.5508 20.3164,14.5508 C20.7253,14.5508 21.082,14.4505 21.3867,14.25 C21.6914,14.0495 21.9277,13.7552 22.0957,13.3672 C22.2637,12.9792 22.3477,12.5026 22.3477,11.9375 M24.3516,7.9375 L26.2461,7.9375 L28.0703,11.3828 L28.1484,11.3828 L29.9727,7.9375 L31.8672,7.9375 L28.9492,13.1094 L28.9492,15.9375 L27.2695,15.9375 L27.2695,13.1094 L24.3516,7.9375 M36.2227,7.9375 L36.2227,15.9375 L34.5313,15.9375 L34.5313,9.54297 L34.4844,9.54297 L32.6523,10.6914 L32.6523,9.19141 L34.6328,7.9375 L36.2227,7.9375"/>
</g>

<g fill="#ffffff" fill-opacity="1" stroke="none" transform="matrix(0.03125,0,0,0.03125,176,30)"
font-family="Inter" font-size="11" font-weight="700" font-style="normal" 
>
<path vector-effect="none" fill-rule="nonzero" d="M111.326,191.938 C120.545,201.158 135.517,201.158 144.737,191.938 L239.144,97.5313 C245.929,90.7458 247.921,80.6413 244.233,71.7907 C240.545,62.9401 231.989,57.1871 222.401,57.1871 L33.5875,57.2608 C24.0731,57.2608 15.4437,63.0137 11.7559,71.8644 C8.06815,80.715 10.1333,90.8195 16.845,97.605 L111.252,192.012 L111.326,191.938"/>
</g>

<g fill="none" stroke="#000000" stroke-opacity="1" stroke-width="13.7195" stroke-linecap="butt" stroke-linejoin="miter" stroke-miterlimit="4" transform="matrix(0.03125,0,0,0.03125,176,30)"
font-family="Inter" font-size="11" font-weight="700" font-style="normal" 
>
<path vector-effect="none" fill-rule="nonzero" d="M111.326,191.938 C120.545,201.158 135.517,201.158 144.737,191.938 L239.144,97.5313 C245.929,90.7458 247.921,80.6413 244.233,71.7907 C240.545,62.9401 231.989,57.1871 222.401,57.1871 L33.5875,57.2608 C24.0731,57.2608 15.4437,63.0137 11.7559,71.8644 C8.06815,80.715 10.1333,90.8195 16.845,97.605 L111.252,192.012 L111.326,191.938"/>
</g>

<g fill="#ffffff" fill-opacity="1" stroke="none" transform="matrix(1,0,0,1,132,22)"
font-family="Inter" font-size="11" font-weight="700" font-style="normal" 
>
</g>

<g fill="#ffffff" fill-opacity="1" stroke="#00645c" stroke-opacity="1" stroke-width="1" stroke-linecap="square" stroke-linejoin="bevel" transform="matrix(1,0,0,1,0,0)"
font-family="Inter" font-size="11" font-weight="700" font-style="normal" 
>
</g>

<g fill="#009f94" fill-opacity="1" stroke="#00645c" stroke-opacity="1" stroke-width="1.2" stroke-linecap="square" stroke-linejoin="bevel" transform="matrix(1,0,0,1,211,22)"
font-family="Inter" font-size="11" font-weight="700" font-style="normal" 
>
<path vector-effect="none" fill-rule="evenodd" d="M0.5,3.5 C0.5,1.84315 1.84315,0.5 3.5,0.5 L41.5,0.5 C43.1569,0.5 44.5,1.84315 44.5,3.5 L44.5,20.5 C44.5,22.1569 43.1569,23.5 41.5,23.5 L3.5,23.5 C1.84315,23.5 0.5,22.1569 0.5,20.5 L0.5,3.5"/>
</g>

<g fill="#ffffff" fill-opacity="1" stroke="none" transform="matrix(1,0,0,1,211,22)"
font-family="Inter" font-size="11" font-weight="700" font-style="normal" 
>
<path vector-effect="none" fill-rule="nonzero" d="M13.8555,11.3203 L13.8555,7.875 L15.5195,7.875 L15.5195,13.875 L13.9219,13.875 L13.9219,12.7852 L13.8594,12.7852 C13.724,13.1367 13.4993,13.4193 13.1855,13.6328 C12.8717,13.8464 12.4896,13.9531 12.0391,13.9531 C11.638,13.9531 11.2852,13.862 10.9805,13.6797 C10.6758,13.4974 10.4382,13.2383 10.2676,12.9023 C10.097,12.5664 10.0104,12.1641 10.0078,11.6953 L10.0078,7.875 L11.6719,7.875 L11.6719,11.3984 C11.6745,11.7526 11.7695,12.0326 11.957,12.2383 C12.1445,12.444 12.3958,12.5469 12.7109,12.5469 C12.9115,12.5469 13.099,12.5007 13.2734,12.4082 C13.4479,12.3158 13.5892,12.1784 13.6973,11.9961 C13.8053,11.8138 13.8581,11.5885 13.8555,11.3203 M16.8359,16.125 L16.8359,7.875 L18.4766,7.875 L18.4766,8.88281 L18.5508,8.88281 C18.6237,8.72135 18.7298,8.55664 18.8691,8.38867 C19.0085,8.2207 19.1908,8.08008 19.416,7.9668 C19.6413,7.85352 19.9219,7.79688 20.2578,7.79688 C20.6953,7.79688 21.099,7.91081 21.4688,8.13867 C21.8385,8.36654 22.1341,8.70898 22.3555,9.16602 C22.5768,9.62305 22.6875,10.1953 22.6875,10.8828 C22.6875,11.5521 22.5801,12.1165 22.3652,12.5762 C22.1504,13.0358 21.8587,13.3835 21.4902,13.6191 C21.1217,13.8548 20.7096,13.9727 20.2539,13.9727 C19.931,13.9727 19.6569,13.9193 19.4316,13.8125 C19.2064,13.7057 19.0221,13.571 18.8789,13.4082 C18.7357,13.2454 18.6263,13.0807 18.5508,12.9141 L18.5,12.9141 L18.5,16.125 L16.8359,16.125 M18.4648,10.875 C18.4648,11.2318 18.5143,11.543 18.6133,11.8086 C18.7122,12.0742 18.8555,12.2806 19.043,12.4277 C19.2305,12.5749 19.4583,12.6484 19.7266,12.6484 C19.9974,12.6484 20.2266,12.5736 20.4141,12.4238 C20.6016,12.2741 20.7441,12.0658 20.8418,11.7988 C20.9395,11.5319 20.9883,11.224 20.9883,10.875 C20.9883,10.5286 20.9401,10.224 20.8438,9.96094 C20.7474,9.69792 20.6055,9.49219 20.418,9.34375 C20.2305,9.19531 20,9.12109 19.7266,9.12109 C19.4557,9.12109 19.2272,9.19271 19.041,9.33594 C18.8548,9.47917 18.7122,9.68229 18.6133,9.94531 C18.5143,10.2083 18.4648,10.5182 18.4648,10.875 "/>
</g>

<g fill="#ffffff" fill-opacity="1" stroke="none" transform="matrix(0.03125,0,0,0.03125,242,30)"
font-family="Inter" font-size="11" font-weight="700" font-style="normal" 
>
<path vector-effect="none" fill-rule="nonzero" d="M111.326,191.938 C120.545,201.158 135.517,201.158 144.737,191.938 L239.144,97.5313 C245.929,90.7458 247.921,80.6413 244.233,71.7907 C240.545,62.9401 231.989,57.1871 222.401,57.1871 L33.5875,57.2608 C24.0731,57.2608 15.4437,63.0137 11.7559,71.8644 C8.06815,80.715 10.1333,90.8195 16.845,97.605 L111.252,192.012 L111.326,191.938"/>
</g>

<g fill="none" stroke="#000000" stroke-opacity="1" stroke-width="13.7195" stroke-linecap="butt" stroke-linejoin="miter" stroke-miterlimit="4" transform="matrix(0.03125,0,0,0.03125,242,30)"
font-family="Inter" font-size="11" font-weight="700" font-style="normal" 
>
<path vector-effect="none" fill-rule="nonzero" d="M111.326,191.938 C120.545,201.158 135.517,201.158 144.737,191.938 L239.144,97.5313 C245.929,90.7458 247.921,80.6413 244.233,71.7907 C240.545,62.9401 231.989,57.1871 222.401,57.1871 L33.5875,57.2608 C24.0731,57.2608 15.4437,63.0137 11.7559,71.8644 C8.06815,80.715 10.1333,90.8195 16.845,97.605 L111.252,192.012 L111.326,191.938"/>
</g>

<g fill="#ffffff" fill-opacity="1" stroke="none" transform="matrix(1,0,0,1,211,22)"
font-family="Inter" font-size="11" font-weight="700" font-style="normal" 
>
</g>

<g fill="#ffffff" fill-opacity="1" stroke="#00645c" stroke-opacity="1" stroke-width="1" stroke-linecap="square" stroke-linejoin="bevel" transform="matrix(1,0,0,1,0,0)"
font-family="Inter" font-size="11" font-weight="700" font-style="normal" 
>
</g>

<g fill="#ffffff" fill-opacity="1" stroke="#00645c" stroke-opacity="1" stroke-width="1" stroke-linecap="square" stroke-linejoin="bevel" transform="matrix(1,0,0,1,0,0)"
font-family="Inter" font-size="11" font-weight="700" font-style="normal" 
>
</g>

<g fill="none" stroke="#000000" stroke-opacity="1" stroke-width="1" stroke-linecap="square" stroke-linejoin="bevel" transform="matrix(1,0,0,1,0,0)"
font-family=".AppleSystemUIFont" font-size="13" font-weight="400" font-style="normal" 
>
</g>
</g>
</svg>
