<?xml version="1.0" encoding="UTF-8" standalone="no"?>
<svg width="80.0806mm" height="11.2889mm"
 viewBox="0 0 227 32"
 xmlns="http://www.w3.org/2000/svg" xmlns:xlink="http://www.w3.org/1999/xlink" version="1.2" baseProfile="tiny">
<title>Abstract block</title>
<desc>block_dashboard_controller_steering_wheel_value_float</desc>
<defs>
</defs>
<g fill="none" stroke="black" stroke-width="1" fill-rule="evenodd" stroke-linecap="square" stroke-linejoin="bevel" >

<g fill="none" stroke="#000000" stroke-opacity="1" stroke-width="1" stroke-linecap="square" stroke-linejoin="bevel" transform="matrix(1,0,0,1,0,0)"
font-family=".AppleSystemUIFont" font-size="13" font-weight="400" font-style="normal" 
>
</g>

<g fill="none" stroke="#000000" stroke-opacity="1" stroke-width="1" stroke-linecap="square" stroke-linejoin="bevel" transform="matrix(1,0,0,1,0,0)"
font-family=".AppleSystemUIFont" font-size="13" font-weight="400" font-style="normal" 
>
</g>

<g fill="#009f94" fill-opacity="1" stroke="#00645c" stroke-opacity="1" stroke-width="1.2" stroke-linecap="square" stroke-linejoin="bevel" transform="matrix(1,0,0,1,0,0)"
font-family=".AppleSystemUIFont" font-size="13" font-weight="400" font-style="normal" 
>
<path vector-effect="none" fill-rule="evenodd" d="M1,16 C1,7.71573 8.16344,1 17,1 L209.667,1 C218.503,1 225.667,7.71573 225.667,16 C225.667,24.2843 218.503,31 209.667,31 L17,31 C8.16344,31 1,24.2843 1,16 "/>
</g>

<g fill="#ffffff" fill-opacity="1" stroke="none" transform="matrix(1,0,0,1,0,0)"
font-family="Inter" font-size="11" font-weight="700" font-style="normal" 
>
<path vector-effect="none" fill-rule="nonzero" d="M57.125,14.7109 L55.6016,14.8047 C55.5755,14.6745 55.5195,14.5566 55.4336,14.4512 C55.3477,14.3457 55.235,14.2611 55.0957,14.1973 C54.9564,14.1335 54.7904,14.1016 54.5977,14.1016 C54.3398,14.1016 54.1224,14.1556 53.9453,14.2637 C53.7682,14.3717 53.6797,14.5156 53.6797,14.6953 C53.6797,14.8385 53.737,14.9596 53.8516,15.0586 C53.9661,15.1576 54.1628,15.237 54.4414,15.2969 L55.5273,15.5156 C56.1107,15.6354 56.5456,15.8281 56.832,16.0938 C57.1185,16.3594 57.2617,16.7083 57.2617,17.1406 C57.2617,17.5339 57.1465,17.8789 56.916,18.1758 C56.6855,18.4727 56.3704,18.7038 55.9707,18.8691 C55.571,19.0345 55.1107,19.1172 54.5898,19.1172 C53.7956,19.1172 53.1634,18.9512 52.6934,18.6191 C52.2233,18.2871 51.9479,17.8346 51.8672,17.2617 L53.5039,17.1758 C53.5534,17.418 53.6732,17.6022 53.8633,17.7285 C54.0534,17.8548 54.2969,17.918 54.5938,17.918 C54.8854,17.918 55.1204,17.8613 55.2988,17.748 C55.4772,17.6348 55.5677,17.4883 55.5703,17.3086 C55.5677,17.1576 55.5039,17.0332 55.3789,16.9355 C55.2539,16.8379 55.0612,16.763 54.8008,16.7109 L53.7617,16.5039 C53.1758,16.3867 52.7402,16.1836 52.4551,15.8945 C52.1699,15.6055 52.0273,15.237 52.0273,14.7891 C52.0273,14.4036 52.1322,14.0716 52.3418,13.793 C52.5514,13.5143 52.847,13.2995 53.2285,13.1484 C53.61,12.9974 54.0573,12.9219 54.5703,12.9219 C55.3281,12.9219 55.9251,13.082 56.3613,13.4023 C56.7975,13.7227 57.0521,14.1589 57.125,14.7109 M61.4961,13 L61.4961,14.25 L57.8828,14.25 L57.8828,13 L61.4961,13 M58.7031,11.5625 L60.3672,11.5625 L60.3672,17.1563 C60.3672,17.3099 60.3906,17.429 60.4375,17.5137 C60.4844,17.5983 60.5501,17.6576 60.6348,17.6914 C60.7194,17.7253 60.8177,17.7422 60.9297,17.7422 C61.0078,17.7422 61.0859,17.735 61.1641,17.7207 C61.2422,17.7064 61.3021,17.6953 61.3438,17.6875 L61.6055,18.9258 C61.5221,18.9518 61.4049,18.9824 61.2539,19.0176 C61.1029,19.0527 60.9193,19.0742 60.7031,19.082 C60.3021,19.0977 59.9512,19.0443 59.6504,18.9219 C59.3496,18.7995 59.1159,18.6094 58.9492,18.3516 C58.7826,18.0938 58.7005,17.7682 58.7031,17.375 L58.7031,11.5625 M65.2422,19.1172 C64.625,19.1172 64.0944,18.9915 63.6504,18.7402 C63.2064,18.4889 62.8646,18.1322 62.625,17.6699 C62.3854,17.2077 62.2656,16.6602 62.2656,16.0273 C62.2656,15.4102 62.3854,14.8685 62.625,14.4023 C62.8646,13.9362 63.2025,13.5729 63.6387,13.3125 C64.0749,13.0521 64.5872,12.9219 65.1758,12.9219 C65.5716,12.9219 65.9408,12.985 66.2832,13.1113 C66.6257,13.2376 66.9251,13.4271 67.1816,13.6797 C67.4382,13.9323 67.638,14.2493 67.7813,14.6309 C67.9245,15.0124 67.9961,15.4583 67.9961,15.9688 L67.9961,16.4258 L62.9297,16.4258 L62.9297,15.3945 L66.4297,15.3945 C66.4297,15.1549 66.3776,14.9427 66.2734,14.7578 C66.1693,14.5729 66.0254,14.4277 65.8418,14.3223 C65.6582,14.2168 65.4453,14.1641 65.2031,14.1641 C64.9505,14.1641 64.7272,14.222 64.5332,14.3379 C64.3392,14.4538 64.1875,14.6087 64.0781,14.8027 C63.9688,14.9967 63.9128,15.2122 63.9102,15.4492 L63.9102,16.4297 C63.9102,16.7266 63.9655,16.9831 64.0762,17.1992 C64.1868,17.4154 64.3438,17.582 64.5469,17.6992 C64.75,17.8164 64.9909,17.875 65.2695,17.875 C65.4544,17.875 65.6237,17.849 65.7773,17.7969 C65.931,17.7448 66.0625,17.6667 66.1719,17.5625 C66.2813,17.4583 66.3646,17.3307 66.4219,17.1797 L67.9609,17.2813 C67.8828,17.651 67.7233,17.9733 67.4824,18.248 C67.2415,18.5228 66.9316,18.7363 66.5527,18.8887 C66.1738,19.041 65.737,19.1172 65.2422,19.1172 M71.8047,19.1172 C71.1875,19.1172 70.6569,18.9915 70.2129,18.7402 C69.7689,18.4889 69.4271,18.1322 69.1875,17.6699 C68.9479,17.2077 68.8281,16.6602 68.8281,16.0273 C68.8281,15.4102 68.9479,14.8685 69.1875,14.4023 C69.4271,13.9362 69.765,13.5729 70.2012,13.3125 C70.6374,13.0521 71.1497,12.9219 71.7383,12.9219 C72.1341,12.9219 72.5033,12.985 72.8457,13.1113 C73.1882,13.2376 73.4876,13.4271 73.7441,13.6797 C74.0007,13.9323 74.2005,14.2493 74.3438,14.6309 C74.487,15.0124 74.5586,15.4583 74.5586,15.9688 L74.5586,16.4258 L69.4922,16.4258 L69.4922,15.3945 L72.9922,15.3945 C72.9922,15.1549 72.9401,14.9427 72.8359,14.7578 C72.7318,14.5729 72.5879,14.4277 72.4043,14.3223 C72.2207,14.2168 72.0078,14.1641 71.7656,14.1641 C71.513,14.1641 71.2897,14.222 71.0957,14.3379 C70.9017,14.4538 70.75,14.6087 70.6406,14.8027 C70.5313,14.9967 70.4753,15.2122 70.4727,15.4492 L70.4727,16.4297 C70.4727,16.7266 70.528,16.9831 70.6387,17.1992 C70.7493,17.4154 70.9063,17.582 71.1094,17.6992 C71.3125,17.8164 71.5534,17.875 71.832,17.875 C72.0169,17.875 72.1862,17.849 72.3398,17.7969 C72.4935,17.7448 72.625,17.6667 72.7344,17.5625 C72.8438,17.4583 72.9271,17.3307 72.9844,17.1797 L74.5234,17.2813 C74.4453,17.651 74.2858,17.9733 74.0449,18.248 C73.804,18.5228 73.4941,18.7363 73.1152,18.8887 C72.7363,19.041 72.2995,19.1172 71.8047,19.1172 M75.6328,19 L75.6328,13 L77.2461,13 L77.2461,14.0469 L77.3086,14.0469 C77.418,13.6745 77.6016,13.3926 77.8594,13.2012 C78.1172,13.0098 78.4141,12.9141 78.75,12.9141 C78.8333,12.9141 78.9232,12.9193 79.0195,12.9297 C79.1159,12.9401 79.2005,12.9544 79.2734,12.9727 L79.2734,14.4492 C79.1953,14.4258 79.0872,14.4049 78.9492,14.3867 C78.8112,14.3685 78.6849,14.3594 78.5703,14.3594 C78.3255,14.3594 78.1074,14.4121 77.916,14.5176 C77.7246,14.623 77.5736,14.7695 77.4629,14.957 C77.3522,15.1445 77.2969,15.3607 77.2969,15.6055 L77.2969,19 L75.6328,19 M80.1172,19 L80.1172,13 L81.7813,13 L81.7813,19 L80.1172,19 M80.9531,12.2266 C80.7057,12.2266 80.4941,12.1439 80.3184,11.9785 C80.1426,11.8132 80.0547,11.6146 80.0547,11.3828 C80.0547,11.1536 80.1426,10.9564 80.3184,10.791 C80.4941,10.6257 80.7057,10.543 80.9531,10.543 C81.2005,10.543 81.4121,10.6257 81.5879,10.791 C81.7637,10.9564 81.8516,11.1536 81.8516,11.3828 C81.8516,11.6146 81.7637,11.8132 81.5879,11.9785 C81.4121,12.1439 81.2005,12.2266 80.9531,12.2266 M84.7656,15.5313 L84.7656,19 L83.1016,19 L83.1016,13 L84.6875,13 L84.6875,14.0586 L84.7578,14.0586 C84.8906,13.7096 85.1133,13.4329 85.4258,13.2285 C85.7383,13.0241 86.1172,12.9219 86.5625,12.9219 C86.9792,12.9219 87.3424,13.013 87.6523,13.1953 C87.9622,13.3776 88.2031,13.6374 88.375,13.9746 C88.5469,14.3118 88.6328,14.7135 88.6328,15.1797 L88.6328,19 L86.9688,19 L86.9688,15.4766 C86.9714,15.1094 86.8776,14.8223 86.6875,14.6152 C86.4974,14.4082 86.2357,14.3047 85.9023,14.3047 C85.6784,14.3047 85.4811,14.3529 85.3105,14.4492 C85.14,14.5456 85.0072,14.6855 84.9121,14.8691 C84.8171,15.0527 84.7682,15.2734 84.7656,15.5313 M92.6328,21.375 C92.0938,21.375 91.6322,21.3014 91.248,21.1543 C90.8639,21.0072 90.5586,20.8073 90.332,20.5547 C90.1055,20.3021 89.9583,20.0182 89.8906,19.7031 L91.4297,19.4961 C91.4766,19.6159 91.5508,19.7279 91.6523,19.832 C91.7539,19.9362 91.8887,20.0202 92.0566,20.084 C92.2246,20.1478 92.4297,20.1797 92.6719,20.1797 C93.0339,20.1797 93.3327,20.0918 93.5684,19.916 C93.804,19.7402 93.9219,19.4466 93.9219,19.0352 L93.9219,17.9375 L93.8516,17.9375 C93.7786,18.1042 93.6693,18.2617 93.5234,18.4102 C93.3776,18.5586 93.1901,18.6797 92.9609,18.7734 C92.7318,18.8672 92.4583,18.9141 92.1406,18.9141 C91.6901,18.9141 91.2806,18.8092 90.9121,18.5996 C90.5436,18.39 90.2507,18.0684 90.0332,17.6348 C89.8158,17.2012 89.707,16.6523 89.707,15.9883 C89.707,15.3086 89.8177,14.7409 90.0391,14.2852 C90.2604,13.8294 90.5553,13.4883 90.9238,13.2617 C91.2923,13.0352 91.6966,12.9219 92.1367,12.9219 C92.4727,12.9219 92.7539,12.9785 92.9805,13.0918 C93.207,13.2051 93.39,13.3457 93.5293,13.5137 C93.6686,13.6816 93.776,13.8464 93.8516,14.0078 L93.9141,14.0078 L93.9141,13 L95.5664,13 L95.5664,19.0586 C95.5664,19.569 95.4414,19.9961 95.1914,20.3398 C94.9414,20.6836 94.5957,20.9421 94.1543,21.1152 C93.7129,21.2884 93.2057,21.375 92.6328,21.375 M92.668,17.6641 C92.9362,17.6641 93.1634,17.597 93.3496,17.4629 C93.5358,17.3288 93.679,17.1361 93.7793,16.8848 C93.8796,16.6335 93.9297,16.332 93.9297,15.9805 C93.9297,15.6289 93.8802,15.3236 93.7813,15.0645 C93.6823,14.8053 93.5391,14.6042 93.3516,14.4609 C93.1641,14.3177 92.9362,14.2461 92.668,14.2461 C92.3945,14.2461 92.1641,14.3197 91.9766,14.4668 C91.7891,14.6139 91.6471,14.8177 91.5508,15.0781 C91.4544,15.3385 91.4063,15.6393 91.4063,15.9805 C91.4063,16.3268 91.4551,16.6257 91.5527,16.877 C91.6504,17.1283 91.7923,17.3223 91.9785,17.459 C92.1647,17.5957 92.3945,17.6641 92.668,17.6641 M100.613,19 L98.9805,13 L100.664,13 L101.594,17.0313 L101.648,17.0313 L102.617,13 L104.27,13 L105.254,17.0078 L105.305,17.0078 L106.219,13 L107.898,13 L106.27,19 L104.508,19 L103.477,15.2266 L103.402,15.2266 L102.371,19 L100.613,19 M110.438,15.5313 L110.438,19 L108.773,19 L108.773,11 L110.391,11 L110.391,14.0586 L110.461,14.0586 C110.596,13.7044 110.815,13.4264 111.117,13.2246 C111.419,13.0228 111.798,12.9219 112.254,12.9219 C112.671,12.9219 113.035,13.0124 113.346,13.1934 C113.657,13.3743 113.899,13.6335 114.072,13.9707 C114.245,14.3079 114.331,14.7109 114.328,15.1797 L114.328,19 L112.664,19 L112.664,15.4766 C112.667,15.1068 112.574,14.819 112.385,14.6133 C112.196,14.4076 111.932,14.3047 111.594,14.3047 C111.367,14.3047 111.167,14.3529 110.994,14.4492 C110.821,14.5456 110.686,14.6855 110.588,14.8691 C110.49,15.0527 110.44,15.2734 110.438,15.5313 M118.367,19.1172 C117.75,19.1172 117.219,18.9915 116.775,18.7402 C116.331,18.4889 115.99,18.1322 115.75,17.6699 C115.51,17.2077 115.391,16.6602 115.391,16.0273 C115.391,15.4102 115.51,14.8685 115.75,14.4023 C115.99,13.9362 116.327,13.5729 116.764,13.3125 C117.2,13.0521 117.712,12.9219 118.301,12.9219 C118.697,12.9219 119.066,12.985 119.408,13.1113 C119.751,13.2376 120.05,13.4271 120.307,13.6797 C120.563,13.9323 120.763,14.2493 120.906,14.6309 C121.049,15.0124 121.121,15.4583 121.121,15.9688 L121.121,16.4258 L116.055,16.4258 L116.055,15.3945 L119.555,15.3945 C119.555,15.1549 119.503,14.9427 119.398,14.7578 C119.294,14.5729 119.15,14.4277 118.967,14.3223 C118.783,14.2168 118.57,14.1641 118.328,14.1641 C118.076,14.1641 117.852,14.222 117.658,14.3379 C117.464,14.4538 117.313,14.6087 117.203,14.8027 C117.094,14.9967 117.038,15.2122 117.035,15.4492 L117.035,16.4297 C117.035,16.7266 117.09,16.9831 117.201,17.1992 C117.312,17.4154 117.469,17.582 117.672,17.6992 C117.875,17.8164 118.116,17.875 118.395,17.875 C118.579,17.875 118.749,17.849 118.902,17.7969 C119.056,17.7448 119.188,17.6667 119.297,17.5625 C119.406,17.4583 119.49,17.3307 119.547,17.1797 L121.086,17.2813 C121.008,17.651 120.848,17.9733 120.607,18.248 C120.367,18.5228 120.057,18.7363 119.678,18.8887 C119.299,19.041 118.862,19.1172 118.367,19.1172 M124.93,19.1172 C124.313,19.1172 123.782,18.9915 123.338,18.7402 C122.894,18.4889 122.552,18.1322 122.313,17.6699 C122.073,17.2077 121.953,16.6602 121.953,16.0273 C121.953,15.4102 122.073,14.8685 122.313,14.4023 C122.552,13.9362 122.89,13.5729 123.326,13.3125 C123.762,13.0521 124.275,12.9219 124.863,12.9219 C125.259,12.9219 125.628,12.985 125.971,13.1113 C126.313,13.2376 126.613,13.4271 126.869,13.6797 C127.126,13.9323 127.326,14.2493 127.469,14.6309 C127.612,15.0124 127.684,15.4583 127.684,15.9688 L127.684,16.4258 L122.617,16.4258 L122.617,15.3945 L126.117,15.3945 C126.117,15.1549 126.065,14.9427 125.961,14.7578 C125.857,14.5729 125.713,14.4277 125.529,14.3223 C125.346,14.2168 125.133,14.1641 124.891,14.1641 C124.638,14.1641 124.415,14.222 124.221,14.3379 C124.027,14.4538 123.875,14.6087 123.766,14.8027 C123.656,14.9967 123.6,15.2122 123.598,15.4492 L123.598,16.4297 C123.598,16.7266 123.653,16.9831 123.764,17.1992 C123.874,17.4154 124.031,17.582 124.234,17.6992 C124.438,17.8164 124.678,17.875 124.957,17.875 C125.142,17.875 125.311,17.849 125.465,17.7969 C125.618,17.7448 125.75,17.6667 125.859,17.5625 C125.969,17.4583 126.052,17.3307 126.109,17.1797 L127.648,17.2813 C127.57,17.651 127.411,17.9733 127.17,18.248 C126.929,18.5228 126.619,18.7363 126.24,18.8887 C125.861,19.041 125.424,19.1172 124.93,19.1172 M130.422,11 L130.422,19 L128.758,19 L128.758,11 L130.422,11"/>
</g>

<g fill="#ffffff" fill-opacity="1" stroke="none" transform="matrix(0.95,0,0,0.95,11.6,4.6)"
font-family="Inter" font-size="11" font-weight="700" font-style="normal" 
>
<path vector-effect="none" fill-rule="nonzero" d="M2.19896,4.65234 C1.18891,4.65234 0.375703,5.46549 0.375703,6.47555 L0.375703,8.579 C1.00152,8.60331 1.67842,9.11362 1.67842,9.74561 L1.67842,14.2544 C1.67842,14.8864 1.00152,15.3967 0.375703,15.421 L0.375703,17.5245 C0.375703,18.5345 1.18891,19.3477 2.19896,19.3477 L21.8479,19.3477 C22.858,19.3477 23.6711,18.5345 23.6711,17.5245 L23.6711,6.47555 C23.6711,5.46549 22.858,4.65234 21.8479,4.65234 L2.19896,4.65234 M6.71936,9.23098 C8.56166,9.23097 10.0552,10.7245 10.0552,12.5668 C10.0552,14.4091 8.56167,15.9026 6.71936,15.9026 C4.87705,15.9026 3.38355,14.4091 3.38355,12.5668 C3.38355,10.7245 4.87705,9.23097 6.71936,9.23098 M19.875,9.24873 C20.7082,9.24871 21.3837,9.92418 21.3837,10.7574 C21.3837,11.5906 20.7082,12.266 19.875,12.266 C19.0418,12.266 18.3664,11.5906 18.3664,10.7574 C18.3664,9.9242 19.0418,9.24874 19.875,9.24873 M17.4318,12.8825 C18.265,12.8825 18.9404,13.558 18.9404,14.3912 C18.9404,15.2243 18.2649,15.8998 17.4318,15.8998 C16.5986,15.8998 15.9231,15.2244 15.9231,14.3912 C15.9231,13.5579 16.5985,12.8825 17.4318,12.8825 "/>
</g>

<g fill="none" stroke="#000000" stroke-opacity="1" stroke-width="0.54" stroke-linecap="butt" stroke-linejoin="miter" stroke-miterlimit="4" transform="matrix(0.95,0,0,0.95,11.6,4.6)"
font-family="Inter" font-size="11" font-weight="700" font-style="normal" 
>
<path vector-effect="none" fill-rule="nonzero" d="M2.19896,4.65234 C1.18891,4.65234 0.375703,5.46549 0.375703,6.47555 L0.375703,8.579 C1.00152,8.60331 1.67842,9.11362 1.67842,9.74561 L1.67842,14.2544 C1.67842,14.8864 1.00152,15.3967 0.375703,15.421 L0.375703,17.5245 C0.375703,18.5345 1.18891,19.3477 2.19896,19.3477 L21.8479,19.3477 C22.858,19.3477 23.6711,18.5345 23.6711,17.5245 L23.6711,6.47555 C23.6711,5.46549 22.858,4.65234 21.8479,4.65234 L2.19896,4.65234 M6.71936,9.23098 C8.56166,9.23097 10.0552,10.7245 10.0552,12.5668 C10.0552,14.4091 8.56167,15.9026 6.71936,15.9026 C4.87705,15.9026 3.38355,14.4091 3.38355,12.5668 C3.38355,10.7245 4.87705,9.23097 6.71936,9.23098 M19.875,9.24873 C20.7082,9.24871 21.3837,9.92418 21.3837,10.7574 C21.3837,11.5906 20.7082,12.266 19.875,12.266 C19.0418,12.266 18.3664,11.5906 18.3664,10.7574 C18.3664,9.9242 19.0418,9.24874 19.875,9.24873 M17.4318,12.8825 C18.265,12.8825 18.9404,13.558 18.9404,14.3912 C18.9404,15.2243 18.2649,15.8998 17.4318,15.8998 C16.5986,15.8998 15.9231,15.2244 15.9231,14.3912 C15.9231,13.5579 16.5985,12.8825 17.4318,12.8825 "/>
</g>

<g fill="#000000" fill-opacity="1" stroke="none" transform="matrix(0.95,0,0,0.95,11.6,4.6)"
font-family="Inter" font-size="11" font-weight="700" font-style="normal" 
>
<path vector-effect="none" fill-rule="nonzero" d="M0.108328,15.3227 L0.103298,8.65983 L1.21825,8.7259 L1.75102,9.37791 L1.70662,12.9064 L1.66222,14.5556 L1.04066,15.0542 L0.108328,15.3227"/>
</g>

<g fill="#000000" fill-opacity="1" stroke="none" transform="matrix(0.95,0,0,0.95,11.6,4.6)"
font-family="Inter" font-size="11" font-weight="700" font-style="normal" 
>
<circle cx="6.70111" cy="12.5452" r="1.68266"/>
</g>

<g fill="none" stroke="#000000" stroke-opacity="1" stroke-width="0.54" stroke-linecap="butt" stroke-linejoin="miter" stroke-miterlimit="4" transform="matrix(0.95,0,0,0.95,11.6,4.6)"
font-family="Inter" font-size="11" font-weight="700" font-style="normal" 
>
<circle cx="6.70111" cy="12.5452" r="1.68266"/>
</g>

<g fill="#000000" fill-opacity="1" stroke="none" transform="matrix(0.95,0,0,0.95,11.6,4.6)"
font-family="Inter" font-size="11" font-weight="700" font-style="normal" 
opacity="0.858824" >
<path vector-effect="none" fill-rule="evenodd" d="M8.42109,18.1373 C8.42109,18.0846 8.46385,18.0418 8.51661,18.0418 L15.4834,18.0418 C15.5361,18.0418 15.5789,18.0846 15.5789,18.1373 L15.5789,18.1373 C15.5789,18.1901 15.5361,18.2329 15.4834,18.2329 L8.51661,18.2329 C8.46385,18.2329 8.42109,18.1901 8.42109,18.1373 L8.42109,18.1373"/>
</g>

<g fill="none" stroke="#000000" stroke-opacity="1" stroke-width="0.437534" stroke-linecap="butt" stroke-linejoin="miter" stroke-miterlimit="4" transform="matrix(0.95,0,0,0.95,11.6,4.6)"
font-family="Inter" font-size="11" font-weight="700" font-style="normal" 
>
<path vector-effect="none" fill-rule="evenodd" d="M8.42109,18.1373 C8.42109,18.0846 8.46385,18.0418 8.51661,18.0418 L15.4834,18.0418 C15.5361,18.0418 15.5789,18.0846 15.5789,18.1373 L15.5789,18.1373 C15.5789,18.1901 15.5361,18.2329 15.4834,18.2329 L8.51661,18.2329 C8.46385,18.2329 8.42109,18.1901 8.42109,18.1373 L8.42109,18.1373"/>
</g>

<g fill="#ffffff" fill-opacity="1" stroke="none" transform="matrix(1,0,0,1,0,0)"
font-family="Inter" font-size="11" font-weight="700" font-style="normal" 
>
</g>

<g fill="#ffffff" fill-opacity="1" stroke="#00645c" stroke-opacity="1" stroke-width="1" stroke-linecap="square" stroke-linejoin="bevel" transform="matrix(1,0,0,1,0,0)"
font-family="Inter" font-size="11" font-weight="700" font-style="normal" 
>
<polyline fill="none" vector-effect="none" points="45,6 45,26 " />
</g>

<g fill="#ffffff" fill-opacity="1" stroke="#00645c" stroke-opacity="1" stroke-width="1" stroke-linecap="square" stroke-linejoin="bevel" transform="matrix(1,0,0,1,0,0)"
font-family="Inter" font-size="11" font-weight="700" font-style="normal" 
>
</g>

<g fill="#009f94" fill-opacity="1" stroke="#00645c" stroke-opacity="1" stroke-width="1.2" stroke-linecap="square" stroke-linejoin="bevel" transform="matrix(1,0,0,1,137,4)"
font-family="Inter" font-size="11" font-weight="700" font-style="normal" 
>
<path vector-effect="none" fill-rule="evenodd" d="M0.5,3.5 C0.5,1.84315 1.84315,0.5 3.5,0.5 L75.5,0.5 C77.1569,0.5 78.5,1.84315 78.5,3.5 L78.5,20.5 C78.5,22.1569 77.1569,23.5 75.5,23.5 L3.5,23.5 C1.84315,23.5 0.5,22.1569 0.5,20.5 L0.5,3.5"/>
</g>

<g fill="#ffffff" fill-opacity="1" stroke="none" transform="matrix(1,0,0,1,137,4)"
font-family="Inter" font-size="11" font-weight="700" font-style="normal" 
>
<path vector-effect="none" fill-rule="nonzero" d="M14.5977,10.2383 C14.5664,9.92318 14.4323,9.67839 14.1953,9.50391 C13.9583,9.32943 13.6367,9.24219 13.2305,9.24219 C12.9544,9.24219 12.7214,9.2806 12.5313,9.35742 C12.3411,9.43424 12.196,9.54036 12.0957,9.67578 C11.9954,9.8112 11.9453,9.96484 11.9453,10.1367 C11.9401,10.2799 11.9707,10.4049 12.0371,10.5117 C12.1035,10.6185 12.1953,10.7103 12.3125,10.7871 C12.4297,10.8639 12.5651,10.9303 12.7188,10.9863 C12.8724,11.0423 13.0365,11.0898 13.2109,11.1289 L13.9297,11.3008 C14.2786,11.3789 14.599,11.4831 14.8906,11.6133 C15.1823,11.7435 15.4349,11.9036 15.6484,12.0938 C15.862,12.2839 16.028,12.5078 16.1465,12.7656 C16.265,13.0234 16.3255,13.319 16.3281,13.6523 C16.3255,14.1419 16.2012,14.5658 15.9551,14.9238 C15.709,15.2819 15.3548,15.5592 14.8926,15.7559 C14.4303,15.9525 13.8737,16.0508 13.2227,16.0508 C12.5768,16.0508 12.015,15.9518 11.5371,15.7539 C11.0592,15.556 10.6868,15.2624 10.4199,14.873 C10.153,14.4837 10.013,14.0013 10,13.4258 L11.6367,13.4258 C11.6549,13.694 11.7324,13.9173 11.8691,14.0957 C12.0059,14.2741 12.1895,14.4082 12.4199,14.498 C12.6504,14.5879 12.9115,14.6328 13.2031,14.6328 C13.4896,14.6328 13.7389,14.5911 13.9512,14.5078 C14.1634,14.4245 14.3281,14.3086 14.4453,14.1602 C14.5625,14.0117 14.6211,13.8411 14.6211,13.6484 C14.6211,13.4688 14.5684,13.3177 14.4629,13.1953 C14.3574,13.0729 14.2038,12.9688 14.002,12.8828 C13.8001,12.7969 13.5534,12.7188 13.2617,12.6484 L12.3906,12.4297 C11.7161,12.2656 11.1836,12.0091 10.793,11.6602 C10.4023,11.3112 10.2083,10.8411 10.2109,10.25 C10.2083,9.76563 10.3379,9.34245 10.5996,8.98047 C10.8613,8.61849 11.2214,8.33594 11.6797,8.13281 C12.138,7.92969 12.6589,7.82813 13.2422,7.82813 C13.8359,7.82813 14.3548,7.92969 14.7988,8.13281 C15.2428,8.33594 15.5885,8.61849 15.8359,8.98047 C16.0833,9.34245 16.2109,9.76172 16.2188,10.2383 L14.5977,10.2383 M19.2617,15.9375 L16.9727,7.9375 L18.8203,7.9375 L20.1445,13.4961 L20.2109,13.4961 L21.6719,7.9375 L23.2539,7.9375 L24.7109,13.5078 L24.7813,13.5078 L26.1055,7.9375 L27.9531,7.9375 L25.6641,15.9375 L24.0156,15.9375 L22.4922,10.707 L22.4297,10.707 L20.9102,15.9375 L19.2617,15.9375 M28.8516,7.9375 L30.9375,7.9375 L33.1406,13.3125 L33.2344,13.3125 L35.4375,7.9375 L37.5234,7.9375 L37.5234,15.9375 L35.8828,15.9375 L35.8828,10.7305 L35.8164,10.7305 L33.7461,15.8984 L32.6289,15.8984 L30.5586,10.7109 L30.4922,10.7109 L30.4922,15.9375 L28.8516,15.9375 L28.8516,7.9375 M38.9141,15.9375 L38.9141,7.9375 L42.0703,7.9375 C42.6745,7.9375 43.1908,8.04492 43.6191,8.25977 C44.0475,8.47461 44.3743,8.77799 44.5996,9.16992 C44.8249,9.56185 44.9375,10.0221 44.9375,10.5508 C44.9375,11.082 44.8229,11.5384 44.5938,11.9199 C44.3646,12.3014 44.0332,12.5938 43.5996,12.7969 C43.166,13 42.6419,13.1016 42.0273,13.1016 L39.9141,13.1016 L39.9141,11.7422 L41.7539,11.7422 C42.0768,11.7422 42.3451,11.6979 42.5586,11.6094 C42.7721,11.5208 42.9316,11.388 43.0371,11.2109 C43.1426,11.0339 43.1953,10.8138 43.1953,10.5508 C43.1953,10.2852 43.1426,10.0612 43.0371,9.87891 C42.9316,9.69661 42.7715,9.55794 42.5566,9.46289 C42.3418,9.36784 42.0716,9.32031 41.7461,9.32031 L40.6055,9.32031 L40.6055,15.9375 L38.9141,15.9375 M43.2344,12.2969 L45.2227,15.9375 L43.3555,15.9375 L41.4102,12.2969 L43.2344,12.2969 M46.1328,15.9375 L46.1328,7.9375 L47.8242,7.9375 L47.8242,11.4648 L47.9297,11.4648 L50.8086,7.9375 L52.8359,7.9375 L49.8672,11.5195 L52.8711,15.9375 L50.8477,15.9375 L48.6563,12.6484 L47.8242,13.6641 L47.8242,15.9375 L46.1328,15.9375 M57.1445,7.9375 L57.1445,15.9375 L55.4531,15.9375 L55.4531,9.54297 L55.4063,9.54297 L53.5742,10.6914 L53.5742,9.19141 L55.5547,7.9375 L57.1445,7.9375"/>
</g>

<g fill="#ffffff" fill-opacity="1" stroke="none" transform="matrix(0.03125,0,0,0.03125,202,12)"
font-family="Inter" font-size="11" font-weight="700" font-style="normal" 
>
<path vector-effect="none" fill-rule="nonzero" d="M111.326,191.938 C120.545,201.158 135.517,201.158 144.737,191.938 L239.144,97.5313 C245.929,90.7458 247.921,80.6413 244.233,71.7907 C240.545,62.9401 231.989,57.1871 222.401,57.1871 L33.5875,57.2608 C24.0731,57.2608 15.4437,63.0137 11.7559,71.8644 C8.06815,80.715 10.1333,90.8195 16.845,97.605 L111.252,192.012 L111.326,191.938"/>
</g>

<g fill="none" stroke="#000000" stroke-opacity="1" stroke-width="13.7195" stroke-linecap="butt" stroke-linejoin="miter" stroke-miterlimit="4" transform="matrix(0.03125,0,0,0.03125,202,12)"
font-family="Inter" font-size="11" font-weight="700" font-style="normal" 
>
<path vector-effect="none" fill-rule="nonzero" d="M111.326,191.938 C120.545,201.158 135.517,201.158 144.737,191.938 L239.144,97.5313 C245.929,90.7458 247.921,80.6413 244.233,71.7907 C240.545,62.9401 231.989,57.1871 222.401,57.1871 L33.5875,57.2608 C24.0731,57.2608 15.4437,63.0137 11.7559,71.8644 C8.06815,80.715 10.1333,90.8195 16.845,97.605 L111.252,192.012 L111.326,191.938"/>
</g>

<g fill="#ffffff" fill-opacity="1" stroke="none" transform="matrix(1,0,0,1,137,4)"
font-family="Inter" font-size="11" font-weight="700" font-style="normal" 
>
</g>

<g fill="#ffffff" fill-opacity="1" stroke="#00645c" stroke-opacity="1" stroke-width="1" stroke-linecap="square" stroke-linejoin="bevel" transform="matrix(1,0,0,1,0,0)"
font-family="Inter" font-size="11" font-weight="700" font-style="normal" 
>
</g>

<g fill="none" stroke="#000000" stroke-opacity="1" stroke-width="1" stroke-linecap="square" stroke-linejoin="bevel" transform="matrix(1,0,0,1,0,0)"
font-family=".AppleSystemUIFont" font-size="13" font-weight="400" font-style="normal" 
>
</g>
</g>
</svg>
