<?xml version="1.0" encoding="UTF-8" standalone="no"?>
<svg width="57.8556mm" height="11.2889mm"
 viewBox="0 0 164 32"
 xmlns="http://www.w3.org/2000/svg" xmlns:xlink="http://www.w3.org/1999/xlink" version="1.2" baseProfile="tiny">
<title>Abstract block</title>
<desc>block_dashboard_controller_slider_value_float</desc>
<defs>
</defs>
<g fill="none" stroke="black" stroke-width="1" fill-rule="evenodd" stroke-linecap="square" stroke-linejoin="bevel" >

<g fill="none" stroke="#000000" stroke-opacity="1" stroke-width="1" stroke-linecap="square" stroke-linejoin="bevel" transform="matrix(1,0,0,1,0,0)"
font-family=".AppleSystemUIFont" font-size="13" font-weight="400" font-style="normal" 
>
</g>

<g fill="none" stroke="#000000" stroke-opacity="1" stroke-width="1" stroke-linecap="square" stroke-linejoin="bevel" transform="matrix(1,0,0,1,0,0)"
font-family=".AppleSystemUIFont" font-size="13" font-weight="400" font-style="normal" 
>
</g>

<g fill="#009f94" fill-opacity="1" stroke="#00645c" stroke-opacity="1" stroke-width="1.2" stroke-linecap="square" stroke-linejoin="bevel" transform="matrix(1,0,0,1,0,0)"
font-family=".AppleSystemUIFont" font-size="13" font-weight="400" font-style="normal" 
>
<path vector-effect="none" fill-rule="evenodd" d="M1,16 C1,7.71573 8.16344,1 17,1 L146.667,1 C155.503,1 162.667,7.71573 162.667,16 C162.667,24.2843 155.503,31 146.667,31 L17,31 C8.16344,31 1,24.2843 1,16 "/>
</g>

<g fill="#ffffff" fill-opacity="1" stroke="none" transform="matrix(1,0,0,1,0,0)"
font-family="Inter" font-size="11" font-weight="700" font-style="normal" 
>
<path vector-effect="none" fill-rule="nonzero" d="M57.1406,15.7109 L55.6172,15.8047 C55.5911,15.6745 55.5352,15.5566 55.4492,15.4512 C55.3633,15.3457 55.2507,15.2611 55.1113,15.1973 C54.972,15.1335 54.806,15.1016 54.6133,15.1016 C54.3555,15.1016 54.138,15.1556 53.9609,15.2637 C53.7839,15.3717 53.6953,15.5156 53.6953,15.6953 C53.6953,15.8385 53.7526,15.9596 53.8672,16.0586 C53.9818,16.1576 54.1784,16.237 54.457,16.2969 L55.543,16.5156 C56.1263,16.6354 56.5612,16.8281 56.8477,17.0938 C57.1341,17.3594 57.2773,17.7083 57.2773,18.1406 C57.2773,18.5339 57.1621,18.8789 56.9316,19.1758 C56.7012,19.4727 56.3861,19.7038 55.9863,19.8691 C55.5866,20.0345 55.1263,20.1172 54.6055,20.1172 C53.8112,20.1172 53.179,19.9512 52.709,19.6191 C52.2389,19.2871 51.9635,18.8346 51.8828,18.2617 L53.5195,18.1758 C53.569,18.418 53.6888,18.6022 53.8789,18.7285 C54.069,18.8548 54.3125,18.918 54.6094,18.918 C54.901,18.918 55.1361,18.8613 55.3145,18.748 C55.4928,18.6348 55.5833,18.4883 55.5859,18.3086 C55.5833,18.1576 55.5195,18.0332 55.3945,17.9355 C55.2695,17.8379 55.0768,17.763 54.8164,17.7109 L53.7773,17.5039 C53.1914,17.3867 52.7559,17.1836 52.4707,16.8945 C52.1855,16.6055 52.043,16.237 52.043,15.7891 C52.043,15.4036 52.1478,15.0716 52.3574,14.793 C52.5671,14.5143 52.8626,14.2995 53.2441,14.1484 C53.6257,13.9974 54.0729,13.9219 54.5859,13.9219 C55.3438,13.9219 55.9408,14.082 56.377,14.4023 C56.8132,14.7227 57.0677,15.1589 57.1406,15.7109 M59.9844,12 L59.9844,20 L58.3203,20 L58.3203,12 L59.9844,12 M61.3047,20 L61.3047,14 L62.9688,14 L62.9688,20 L61.3047,20 M62.1406,13.2266 C61.8932,13.2266 61.6816,13.1439 61.5059,12.9785 C61.3301,12.8132 61.2422,12.6146 61.2422,12.3828 C61.2422,12.1536 61.3301,11.9564 61.5059,11.791 C61.6816,11.6257 61.8932,11.543 62.1406,11.543 C62.388,11.543 62.5996,11.6257 62.7754,11.791 C62.9512,11.9564 63.0391,12.1536 63.0391,12.3828 C63.0391,12.6146 62.9512,12.8132 62.7754,12.9785 C62.5996,13.1439 62.388,13.2266 62.1406,13.2266 M66.5,20.0977 C66.0443,20.0977 65.6322,19.9798 65.2637,19.7441 C64.8952,19.5085 64.6035,19.1608 64.3887,18.7012 C64.1738,18.2415 64.0664,17.6771 64.0664,17.0078 C64.0664,16.3203 64.1771,15.748 64.3984,15.291 C64.6198,14.834 64.9147,14.4915 65.2832,14.2637 C65.6517,14.0358 66.056,13.9219 66.4961,13.9219 C66.832,13.9219 67.1126,13.9785 67.3379,14.0918 C67.5632,14.2051 67.7454,14.3457 67.8848,14.5137 C68.0241,14.6816 68.1302,14.8464 68.2031,15.0078 L68.2539,15.0078 L68.2539,12 L69.9141,12 L69.9141,20 L68.2734,20 L68.2734,19.0391 L68.2031,19.0391 C68.125,19.2057 68.015,19.3704 67.873,19.5332 C67.7311,19.696 67.5475,19.8307 67.3223,19.9375 C67.097,20.0443 66.8229,20.0977 66.5,20.0977 M67.0273,18.7734 C67.2956,18.7734 67.5228,18.6999 67.709,18.5527 C67.8952,18.4056 68.0384,18.1992 68.1387,17.9336 C68.2389,17.668 68.2891,17.3568 68.2891,17 C68.2891,16.6432 68.2396,16.3333 68.1406,16.0703 C68.0417,15.8073 67.8984,15.6042 67.7109,15.4609 C67.5234,15.3177 67.2956,15.2461 67.0273,15.2461 C66.7539,15.2461 66.5234,15.3203 66.3359,15.4688 C66.1484,15.6172 66.0065,15.8229 65.9102,16.0859 C65.8138,16.349 65.7656,16.6536 65.7656,17 C65.7656,17.349 65.8145,17.6569 65.9121,17.9238 C66.0098,18.1908 66.1517,18.3991 66.3379,18.5488 C66.5241,18.6986 66.7539,18.7734 67.0273,18.7734 M74.0078,20.1172 C73.3906,20.1172 72.86,19.9915 72.416,19.7402 C71.972,19.4889 71.6302,19.1322 71.3906,18.6699 C71.151,18.2077 71.0313,17.6602 71.0313,17.0273 C71.0313,16.4102 71.151,15.8685 71.3906,15.4023 C71.6302,14.9362 71.9681,14.5729 72.4043,14.3125 C72.8405,14.0521 73.3529,13.9219 73.9414,13.9219 C74.3372,13.9219 74.7064,13.985 75.0488,14.1113 C75.3913,14.2376 75.6908,14.4271 75.9473,14.6797 C76.2038,14.9323 76.4036,15.2493 76.5469,15.6309 C76.6901,16.0124 76.7617,16.4583 76.7617,16.9688 L76.7617,17.4258 L71.6953,17.4258 L71.6953,16.3945 L75.1953,16.3945 C75.1953,16.1549 75.1432,15.9427 75.0391,15.7578 C74.9349,15.5729 74.791,15.4277 74.6074,15.3223 C74.4238,15.2168 74.2109,15.1641 73.9688,15.1641 C73.7161,15.1641 73.4928,15.222 73.2988,15.3379 C73.1048,15.4538 72.9531,15.6087 72.8438,15.8027 C72.7344,15.9967 72.6784,16.2122 72.6758,16.4492 L72.6758,17.4297 C72.6758,17.7266 72.7311,17.9831 72.8418,18.1992 C72.9525,18.4154 73.1094,18.582 73.3125,18.6992 C73.5156,18.8164 73.7565,18.875 74.0352,18.875 C74.2201,18.875 74.3893,18.849 74.543,18.7969 C74.6966,18.7448 74.8281,18.6667 74.9375,18.5625 C75.0469,18.4583 75.1302,18.3307 75.1875,18.1797 L76.7266,18.2813 C76.6484,18.651 76.4889,18.9733 76.248,19.248 C76.0072,19.5228 75.6973,19.7363 75.3184,19.8887 C74.9395,20.041 74.5026,20.1172 74.0078,20.1172 M77.8359,20 L77.8359,14 L79.4492,14 L79.4492,15.0469 L79.5117,15.0469 C79.6211,14.6745 79.8047,14.3926 80.0625,14.2012 C80.3203,14.0098 80.6172,13.9141 80.9531,13.9141 C81.0365,13.9141 81.1263,13.9193 81.2227,13.9297 C81.319,13.9401 81.4036,13.9544 81.4766,13.9727 L81.4766,15.4492 C81.3984,15.4258 81.2904,15.4049 81.1523,15.3867 C81.0143,15.3685 80.888,15.3594 80.7734,15.3594 C80.5286,15.3594 80.3105,15.4121 80.1191,15.5176 C79.9277,15.623 79.7767,15.7695 79.666,15.957 C79.5553,16.1445 79.5,16.3607 79.5,16.6055 L79.5,20 L77.8359,20"/>
</g>

<g fill="#ffffff" fill-opacity="1" stroke="none" transform="matrix(0.95,0,0,0.95,11.6,4.6)"
font-family="Inter" font-size="11" font-weight="700" font-style="normal" 
>
<path vector-effect="none" fill-rule="nonzero" d="M2.19896,4.65234 C1.18891,4.65234 0.375703,5.46549 0.375703,6.47555 L0.375703,8.579 C1.00152,8.60331 1.67842,9.11362 1.67842,9.74561 L1.67842,14.2544 C1.67842,14.8864 1.00152,15.3967 0.375703,15.421 L0.375703,17.5245 C0.375703,18.5345 1.18891,19.3477 2.19896,19.3477 L21.8479,19.3477 C22.858,19.3477 23.6711,18.5345 23.6711,17.5245 L23.6711,6.47555 C23.6711,5.46549 22.858,4.65234 21.8479,4.65234 L2.19896,4.65234 M6.71936,9.23098 C8.56166,9.23097 10.0552,10.7245 10.0552,12.5668 C10.0552,14.4091 8.56167,15.9026 6.71936,15.9026 C4.87705,15.9026 3.38355,14.4091 3.38355,12.5668 C3.38355,10.7245 4.87705,9.23097 6.71936,9.23098 M19.875,9.24873 C20.7082,9.24871 21.3837,9.92418 21.3837,10.7574 C21.3837,11.5906 20.7082,12.266 19.875,12.266 C19.0418,12.266 18.3664,11.5906 18.3664,10.7574 C18.3664,9.9242 19.0418,9.24874 19.875,9.24873 M17.4318,12.8825 C18.265,12.8825 18.9404,13.558 18.9404,14.3912 C18.9404,15.2243 18.2649,15.8998 17.4318,15.8998 C16.5986,15.8998 15.9231,15.2244 15.9231,14.3912 C15.9231,13.5579 16.5985,12.8825 17.4318,12.8825 "/>
</g>

<g fill="none" stroke="#000000" stroke-opacity="1" stroke-width="0.54" stroke-linecap="butt" stroke-linejoin="miter" stroke-miterlimit="4" transform="matrix(0.95,0,0,0.95,11.6,4.6)"
font-family="Inter" font-size="11" font-weight="700" font-style="normal" 
>
<path vector-effect="none" fill-rule="nonzero" d="M2.19896,4.65234 C1.18891,4.65234 0.375703,5.46549 0.375703,6.47555 L0.375703,8.579 C1.00152,8.60331 1.67842,9.11362 1.67842,9.74561 L1.67842,14.2544 C1.67842,14.8864 1.00152,15.3967 0.375703,15.421 L0.375703,17.5245 C0.375703,18.5345 1.18891,19.3477 2.19896,19.3477 L21.8479,19.3477 C22.858,19.3477 23.6711,18.5345 23.6711,17.5245 L23.6711,6.47555 C23.6711,5.46549 22.858,4.65234 21.8479,4.65234 L2.19896,4.65234 M6.71936,9.23098 C8.56166,9.23097 10.0552,10.7245 10.0552,12.5668 C10.0552,14.4091 8.56167,15.9026 6.71936,15.9026 C4.87705,15.9026 3.38355,14.4091 3.38355,12.5668 C3.38355,10.7245 4.87705,9.23097 6.71936,9.23098 M19.875,9.24873 C20.7082,9.24871 21.3837,9.92418 21.3837,10.7574 C21.3837,11.5906 20.7082,12.266 19.875,12.266 C19.0418,12.266 18.3664,11.5906 18.3664,10.7574 C18.3664,9.9242 19.0418,9.24874 19.875,9.24873 M17.4318,12.8825 C18.265,12.8825 18.9404,13.558 18.9404,14.3912 C18.9404,15.2243 18.2649,15.8998 17.4318,15.8998 C16.5986,15.8998 15.9231,15.2244 15.9231,14.3912 C15.9231,13.5579 16.5985,12.8825 17.4318,12.8825 "/>
</g>

<g fill="#000000" fill-opacity="1" stroke="none" transform="matrix(0.95,0,0,0.95,11.6,4.6)"
font-family="Inter" font-size="11" font-weight="700" font-style="normal" 
>
<path vector-effect="none" fill-rule="nonzero" d="M0.108328,15.3227 L0.103298,8.65983 L1.21825,8.7259 L1.75102,9.37791 L1.70662,12.9064 L1.66222,14.5556 L1.04066,15.0542 L0.108328,15.3227"/>
</g>

<g fill="#000000" fill-opacity="1" stroke="none" transform="matrix(0.95,0,0,0.95,11.6,4.6)"
font-family="Inter" font-size="11" font-weight="700" font-style="normal" 
>
<circle cx="6.70111" cy="12.5452" r="1.68266"/>
</g>

<g fill="none" stroke="#000000" stroke-opacity="1" stroke-width="0.54" stroke-linecap="butt" stroke-linejoin="miter" stroke-miterlimit="4" transform="matrix(0.95,0,0,0.95,11.6,4.6)"
font-family="Inter" font-size="11" font-weight="700" font-style="normal" 
>
<circle cx="6.70111" cy="12.5452" r="1.68266"/>
</g>

<g fill="#000000" fill-opacity="1" stroke="none" transform="matrix(0.95,0,0,0.95,11.6,4.6)"
font-family="Inter" font-size="11" font-weight="700" font-style="normal" 
opacity="0.858824" >
<path vector-effect="none" fill-rule="evenodd" d="M8.42109,18.1373 C8.42109,18.0846 8.46385,18.0418 8.51661,18.0418 L15.4834,18.0418 C15.5361,18.0418 15.5789,18.0846 15.5789,18.1373 L15.5789,18.1373 C15.5789,18.1901 15.5361,18.2329 15.4834,18.2329 L8.51661,18.2329 C8.46385,18.2329 8.42109,18.1901 8.42109,18.1373 L8.42109,18.1373"/>
</g>

<g fill="none" stroke="#000000" stroke-opacity="1" stroke-width="0.437534" stroke-linecap="butt" stroke-linejoin="miter" stroke-miterlimit="4" transform="matrix(0.95,0,0,0.95,11.6,4.6)"
font-family="Inter" font-size="11" font-weight="700" font-style="normal" 
>
<path vector-effect="none" fill-rule="evenodd" d="M8.42109,18.1373 C8.42109,18.0846 8.46385,18.0418 8.51661,18.0418 L15.4834,18.0418 C15.5361,18.0418 15.5789,18.0846 15.5789,18.1373 L15.5789,18.1373 C15.5789,18.1901 15.5361,18.2329 15.4834,18.2329 L8.51661,18.2329 C8.46385,18.2329 8.42109,18.1901 8.42109,18.1373 L8.42109,18.1373"/>
</g>

<g fill="#ffffff" fill-opacity="1" stroke="none" transform="matrix(1,0,0,1,0,0)"
font-family="Inter" font-size="11" font-weight="700" font-style="normal" 
>
</g>

<g fill="#ffffff" fill-opacity="1" stroke="#00645c" stroke-opacity="1" stroke-width="1" stroke-linecap="square" stroke-linejoin="bevel" transform="matrix(1,0,0,1,0,0)"
font-family="Inter" font-size="11" font-weight="700" font-style="normal" 
>
<polyline fill="none" vector-effect="none" points="45,6 45,26 " />
</g>

<g fill="#009f94" fill-opacity="1" stroke="#00645c" stroke-opacity="1" stroke-width="1.2" stroke-linecap="square" stroke-linejoin="bevel" transform="matrix(1,0,0,1,88,4)"
font-family="Inter" font-size="11" font-weight="700" font-style="normal" 
>
<path vector-effect="none" fill-rule="evenodd" d="M0.5,3.5 C0.5,1.84315 1.84315,0.5 3.5,0.5 L61.5,0.5 C63.1569,0.5 64.5,1.84315 64.5,3.5 L64.5,20.5 C64.5,22.1569 63.1569,23.5 61.5,23.5 L3.5,23.5 C1.84315,23.5 0.5,22.1569 0.5,20.5 L0.5,3.5"/>
</g>

<g fill="#ffffff" fill-opacity="1" stroke="none" transform="matrix(1,0,0,1,88,4)"
font-family="Inter" font-size="11" font-weight="700" font-style="normal" 
>
<path vector-effect="none" fill-rule="nonzero" d="M14.5977,10.2383 C14.5664,9.92318 14.4323,9.67839 14.1953,9.50391 C13.9583,9.32943 13.6367,9.24219 13.2305,9.24219 C12.9544,9.24219 12.7214,9.2806 12.5313,9.35742 C12.3411,9.43424 12.196,9.54036 12.0957,9.67578 C11.9954,9.8112 11.9453,9.96484 11.9453,10.1367 C11.9401,10.2799 11.9707,10.4049 12.0371,10.5117 C12.1035,10.6185 12.1953,10.7103 12.3125,10.7871 C12.4297,10.8639 12.5651,10.9303 12.7188,10.9863 C12.8724,11.0423 13.0365,11.0898 13.2109,11.1289 L13.9297,11.3008 C14.2786,11.3789 14.599,11.4831 14.8906,11.6133 C15.1823,11.7435 15.4349,11.9036 15.6484,12.0938 C15.862,12.2839 16.028,12.5078 16.1465,12.7656 C16.265,13.0234 16.3255,13.319 16.3281,13.6523 C16.3255,14.1419 16.2012,14.5658 15.9551,14.9238 C15.709,15.2819 15.3548,15.5592 14.8926,15.7559 C14.4303,15.9525 13.8737,16.0508 13.2227,16.0508 C12.5768,16.0508 12.015,15.9518 11.5371,15.7539 C11.0592,15.556 10.6868,15.2624 10.4199,14.873 C10.153,14.4837 10.013,14.0013 10,13.4258 L11.6367,13.4258 C11.6549,13.694 11.7324,13.9173 11.8691,14.0957 C12.0059,14.2741 12.1895,14.4082 12.4199,14.498 C12.6504,14.5879 12.9115,14.6328 13.2031,14.6328 C13.4896,14.6328 13.7389,14.5911 13.9512,14.5078 C14.1634,14.4245 14.3281,14.3086 14.4453,14.1602 C14.5625,14.0117 14.6211,13.8411 14.6211,13.6484 C14.6211,13.4688 14.5684,13.3177 14.4629,13.1953 C14.3574,13.0729 14.2038,12.9688 14.002,12.8828 C13.8001,12.7969 13.5534,12.7188 13.2617,12.6484 L12.3906,12.4297 C11.7161,12.2656 11.1836,12.0091 10.793,11.6602 C10.4023,11.3112 10.2083,10.8411 10.2109,10.25 C10.2083,9.76563 10.3379,9.34245 10.5996,8.98047 C10.8613,8.61849 11.2214,8.33594 11.6797,8.13281 C12.138,7.92969 12.6589,7.82813 13.2422,7.82813 C13.8359,7.82813 14.3548,7.92969 14.7988,8.13281 C15.2428,8.33594 15.5885,8.61849 15.8359,8.98047 C16.0833,9.34245 16.2109,9.76172 16.2188,10.2383 L14.5977,10.2383 M17.4609,15.9375 L17.4609,7.9375 L19.1523,7.9375 L19.1523,14.543 L22.582,14.543 L22.582,15.9375 L17.4609,15.9375 M26.5313,15.9375 L23.6953,15.9375 L23.6953,7.9375 L26.5547,7.9375 C27.3594,7.9375 28.0521,8.09701 28.6328,8.41602 C29.2135,8.73503 29.6608,9.19271 29.9746,9.78906 C30.2884,10.3854 30.4453,11.099 30.4453,11.9297 C30.4453,12.763 30.2884,13.4792 29.9746,14.0781 C29.6608,14.6771 29.2116,15.1367 28.627,15.457 C28.0423,15.7773 27.3438,15.9375 26.5313,15.9375 M25.3867,14.4883 L26.4609,14.4883 C26.9609,14.4883 27.3822,14.3991 27.7246,14.2207 C28.0671,14.0423 28.3249,13.765 28.498,13.3887 C28.6712,13.0124 28.7578,12.526 28.7578,11.9297 C28.7578,11.3385 28.6712,10.8555 28.498,10.4805 C28.3249,10.1055 28.0677,9.82943 27.7266,9.65234 C27.3854,9.47526 26.9648,9.38672 26.4648,9.38672 L25.3867,9.38672 L25.3867,14.4883 M31.6953,15.9375 L31.6953,7.9375 L34.8516,7.9375 C35.4557,7.9375 35.972,8.04492 36.4004,8.25977 C36.8288,8.47461 37.1556,8.77799 37.3809,9.16992 C37.6061,9.56185 37.7188,10.0221 37.7188,10.5508 C37.7188,11.082 37.6042,11.5384 37.375,11.9199 C37.1458,12.3014 36.8145,12.5938 36.3809,12.7969 C35.9473,13 35.4232,13.1016 34.8086,13.1016 L32.6953,13.1016 L32.6953,11.7422 L34.5352,11.7422 C34.8581,11.7422 35.1263,11.6979 35.3398,11.6094 C35.5534,11.5208 35.7129,11.388 35.8184,11.2109 C35.9238,11.0339 35.9766,10.8138 35.9766,10.5508 C35.9766,10.2852 35.9238,10.0612 35.8184,9.87891 C35.7129,9.69661 35.5527,9.55794 35.3379,9.46289 C35.123,9.36784 34.8529,9.32031 34.5273,9.32031 L33.3867,9.32031 L33.3867,15.9375 L31.6953,15.9375 M36.0156,12.2969 L38.0039,15.9375 L36.1367,15.9375 L34.1914,12.2969 L36.0156,12.2969 M42.3477,7.9375 L42.3477,15.9375 L40.6563,15.9375 L40.6563,9.54297 L40.6094,9.54297 L38.7773,10.6914 L38.7773,9.19141 L40.7578,7.9375 L42.3477,7.9375"/>
</g>

<g fill="#ffffff" fill-opacity="1" stroke="none" transform="matrix(0.03125,0,0,0.03125,139,12)"
font-family="Inter" font-size="11" font-weight="700" font-style="normal" 
>
<path vector-effect="none" fill-rule="nonzero" d="M111.326,191.938 C120.545,201.158 135.517,201.158 144.737,191.938 L239.144,97.5313 C245.929,90.7458 247.921,80.6413 244.233,71.7907 C240.545,62.9401 231.989,57.1871 222.401,57.1871 L33.5875,57.2608 C24.0731,57.2608 15.4437,63.0137 11.7559,71.8644 C8.06815,80.715 10.1333,90.8195 16.845,97.605 L111.252,192.012 L111.326,191.938"/>
</g>

<g fill="none" stroke="#000000" stroke-opacity="1" stroke-width="13.7195" stroke-linecap="butt" stroke-linejoin="miter" stroke-miterlimit="4" transform="matrix(0.03125,0,0,0.03125,139,12)"
font-family="Inter" font-size="11" font-weight="700" font-style="normal" 
>
<path vector-effect="none" fill-rule="nonzero" d="M111.326,191.938 C120.545,201.158 135.517,201.158 144.737,191.938 L239.144,97.5313 C245.929,90.7458 247.921,80.6413 244.233,71.7907 C240.545,62.9401 231.989,57.1871 222.401,57.1871 L33.5875,57.2608 C24.0731,57.2608 15.4437,63.0137 11.7559,71.8644 C8.06815,80.715 10.1333,90.8195 16.845,97.605 L111.252,192.012 L111.326,191.938"/>
</g>

<g fill="#ffffff" fill-opacity="1" stroke="none" transform="matrix(1,0,0,1,88,4)"
font-family="Inter" font-size="11" font-weight="700" font-style="normal" 
>
</g>

<g fill="#ffffff" fill-opacity="1" stroke="#00645c" stroke-opacity="1" stroke-width="1" stroke-linecap="square" stroke-linejoin="bevel" transform="matrix(1,0,0,1,0,0)"
font-family="Inter" font-size="11" font-weight="700" font-style="normal" 
>
</g>

<g fill="#ffffff" fill-opacity="1" stroke="#00645c" stroke-opacity="1" stroke-width="1" stroke-linecap="square" stroke-linejoin="bevel" transform="matrix(1,0,0,1,0,0)"
font-family="Inter" font-size="11" font-weight="700" font-style="normal" 
>
</g>

<g fill="none" stroke="#000000" stroke-opacity="1" stroke-width="1" stroke-linecap="square" stroke-linejoin="bevel" transform="matrix(1,0,0,1,0,0)"
font-family=".AppleSystemUIFont" font-size="13" font-weight="400" font-style="normal" 
>
</g>
</g>
</svg>
