<?xml version="1.0" encoding="UTF-8" standalone="no"?>
<svg width="56.4444mm" height="11.2889mm"
 viewBox="0 0 160 32"
 xmlns="http://www.w3.org/2000/svg" xmlns:xlink="http://www.w3.org/1999/xlink" version="1.2" baseProfile="tiny">
<title>Abstract block</title>
<desc>block_gamepad_trigger_pressure_value_float</desc>
<defs>
</defs>
<g fill="none" stroke="black" stroke-width="1" fill-rule="evenodd" stroke-linecap="square" stroke-linejoin="bevel" >

<g fill="none" stroke="#000000" stroke-opacity="1" stroke-width="1" stroke-linecap="square" stroke-linejoin="bevel" transform="matrix(1,0,0,1,0,0)"
font-family=".AppleSystemUIFont" font-size="13" font-weight="400" font-style="normal" 
>
</g>

<g fill="none" stroke="#000000" stroke-opacity="1" stroke-width="1" stroke-linecap="square" stroke-linejoin="bevel" transform="matrix(1,0,0,1,0,0)"
font-family=".AppleSystemUIFont" font-size="13" font-weight="400" font-style="normal" 
>
</g>

<g fill="#00a97d" fill-opacity="1" stroke="#006e51" stroke-opacity="1" stroke-width="1.2" stroke-linecap="square" stroke-linejoin="bevel" transform="matrix(1,0,0,1,0,0)"
font-family=".AppleSystemUIFont" font-size="13" font-weight="400" font-style="normal" 
>
<path vector-effect="none" fill-rule="evenodd" d="M1,16 C1,7.71573 8.16344,1 17,1 L142.667,1 C151.503,1 158.667,7.71573 158.667,16 C158.667,24.2843 151.503,31 142.667,31 L17,31 C8.16344,31 1,24.2843 1,16 "/>
</g>

<g fill="#ffffff" fill-opacity="1" stroke="none" transform="matrix(1,0,0,1,0,0)"
font-family="Inter" font-size="11" font-weight="700" font-style="normal" 
>
<path vector-effect="none" fill-rule="nonzero" d="M99.9766,20.125 L99.9766,11.875 L101.617,11.875 L101.617,12.8828 L101.691,12.8828 C101.764,12.7214 101.87,12.5566 102.01,12.3887 C102.149,12.2207 102.331,12.0801 102.557,11.9668 C102.782,11.8535 103.063,11.7969 103.398,11.7969 C103.836,11.7969 104.24,11.9108 104.609,12.1387 C104.979,12.3665 105.275,12.709 105.496,13.166 C105.717,13.623 105.828,14.1953 105.828,14.8828 C105.828,15.5521 105.721,16.1165 105.506,16.5762 C105.291,17.0358 104.999,17.3835 104.631,17.6191 C104.262,17.8548 103.85,17.9727 103.395,17.9727 C103.072,17.9727 102.798,17.9193 102.572,17.8125 C102.347,17.7057 102.163,17.571 102.02,17.4082 C101.876,17.2454 101.767,17.0807 101.691,16.9141 L101.641,16.9141 L101.641,20.125 L99.9766,20.125 M101.605,14.875 C101.605,15.2318 101.655,15.543 101.754,15.8086 C101.853,16.0742 101.996,16.2806 102.184,16.4277 C102.371,16.5749 102.599,16.6484 102.867,16.6484 C103.138,16.6484 103.367,16.5736 103.555,16.4238 C103.742,16.2741 103.885,16.0658 103.982,15.7988 C104.08,15.5319 104.129,15.224 104.129,14.875 C104.129,14.5286 104.081,14.224 103.984,13.9609 C103.888,13.6979 103.746,13.4922 103.559,13.3438 C103.371,13.1953 103.141,13.1211 102.867,13.1211 C102.596,13.1211 102.368,13.1927 102.182,13.3359 C101.995,13.4792 101.853,13.6823 101.754,13.9453 C101.655,14.2083 101.605,14.5182 101.605,14.875 M106.93,17.875 L106.93,11.875 L108.543,11.875 L108.543,12.9219 L108.605,12.9219 C108.715,12.5495 108.898,12.2676 109.156,12.0762 C109.414,11.8848 109.711,11.7891 110.047,11.7891 C110.13,11.7891 110.22,11.7943 110.316,11.8047 C110.413,11.8151 110.497,11.8294 110.57,11.8477 L110.57,13.3242 C110.492,13.3008 110.384,13.2799 110.246,13.2617 C110.108,13.2435 109.982,13.2344 109.867,13.2344 C109.622,13.2344 109.404,13.2871 109.213,13.3926 C109.021,13.498 108.87,13.6445 108.76,13.832 C108.649,14.0195 108.594,14.2357 108.594,14.4805 L108.594,17.875 L106.93,17.875 M113.867,17.9922 C113.25,17.9922 112.719,17.8665 112.275,17.6152 C111.831,17.3639 111.49,17.0072 111.25,16.5449 C111.01,16.0827 110.891,15.5352 110.891,14.9023 C110.891,14.2852 111.01,13.7435 111.25,13.2773 C111.49,12.8112 111.827,12.4479 112.264,12.1875 C112.7,11.9271 113.212,11.7969 113.801,11.7969 C114.197,11.7969 114.566,11.86 114.908,11.9863 C115.251,12.1126 115.55,12.3021 115.807,12.5547 C116.063,12.8073 116.263,13.1243 116.406,13.5059 C116.549,13.8874 116.621,14.3333 116.621,14.8438 L116.621,15.3008 L111.555,15.3008 L111.555,14.2695 L115.055,14.2695 C115.055,14.0299 115.003,13.8177 114.898,13.6328 C114.794,13.4479 114.65,13.3027 114.467,13.1973 C114.283,13.0918 114.07,13.0391 113.828,13.0391 C113.576,13.0391 113.352,13.097 113.158,13.2129 C112.964,13.3288 112.813,13.4837 112.703,13.6777 C112.594,13.8717 112.538,14.0872 112.535,14.3242 L112.535,15.3047 C112.535,15.6016 112.59,15.8581 112.701,16.0742 C112.812,16.2904 112.969,16.457 113.172,16.5742 C113.375,16.6914 113.616,16.75 113.895,16.75 C114.079,16.75 114.249,16.724 114.402,16.6719 C114.556,16.6198 114.688,16.5417 114.797,16.4375 C114.906,16.3333 114.99,16.2057 115.047,16.0547 L116.586,16.1563 C116.508,16.526 116.348,16.8483 116.107,17.123 C115.867,17.3978 115.557,17.6113 115.178,17.7637 C114.799,17.916 114.362,17.9922 113.867,17.9922 M122.688,13.5859 L121.164,13.6797 C121.138,13.5495 121.082,13.4316 120.996,13.3262 C120.91,13.2207 120.798,13.1361 120.658,13.0723 C120.519,13.0085 120.353,12.9766 120.16,12.9766 C119.902,12.9766 119.685,13.0306 119.508,13.1387 C119.331,13.2467 119.242,13.3906 119.242,13.5703 C119.242,13.7135 119.299,13.8346 119.414,13.9336 C119.529,14.0326 119.725,14.112 120.004,14.1719 L121.09,14.3906 C121.673,14.5104 122.108,14.7031 122.395,14.9688 C122.681,15.2344 122.824,15.5833 122.824,16.0156 C122.824,16.4089 122.709,16.7539 122.479,17.0508 C122.248,17.3477 121.933,17.5788 121.533,17.7441 C121.133,17.9095 120.673,17.9922 120.152,17.9922 C119.358,17.9922 118.726,17.8262 118.256,17.4941 C117.786,17.1621 117.51,16.7096 117.43,16.1367 L119.066,16.0508 C119.116,16.293 119.236,16.4772 119.426,16.6035 C119.616,16.7298 119.859,16.793 120.156,16.793 C120.448,16.793 120.683,16.7363 120.861,16.623 C121.04,16.5098 121.13,16.3633 121.133,16.1836 C121.13,16.0326 121.066,15.9082 120.941,15.8105 C120.816,15.7129 120.624,15.638 120.363,15.5859 L119.324,15.3789 C118.738,15.2617 118.303,15.0586 118.018,14.7695 C117.732,14.4805 117.59,14.112 117.59,13.6641 C117.59,13.2786 117.695,12.9466 117.904,12.668 C118.114,12.3893 118.41,12.1745 118.791,12.0234 C119.173,11.8724 119.62,11.7969 120.133,11.7969 C120.891,11.7969 121.488,11.957 121.924,12.2773 C122.36,12.5977 122.615,13.0339 122.688,13.5859 M128.859,13.5859 L127.336,13.6797 C127.31,13.5495 127.254,13.4316 127.168,13.3262 C127.082,13.2207 126.969,13.1361 126.83,13.0723 C126.691,13.0085 126.525,12.9766 126.332,12.9766 C126.074,12.9766 125.857,13.0306 125.68,13.1387 C125.503,13.2467 125.414,13.3906 125.414,13.5703 C125.414,13.7135 125.471,13.8346 125.586,13.9336 C125.701,14.0326 125.897,14.112 126.176,14.1719 L127.262,14.3906 C127.845,14.5104 128.28,14.7031 128.566,14.9688 C128.853,15.2344 128.996,15.5833 128.996,16.0156 C128.996,16.4089 128.881,16.7539 128.65,17.0508 C128.42,17.3477 128.105,17.5788 127.705,17.7441 C127.305,17.9095 126.845,17.9922 126.324,17.9922 C125.53,17.9922 124.898,17.8262 124.428,17.4941 C123.958,17.1621 123.682,16.7096 123.602,16.1367 L125.238,16.0508 C125.288,16.293 125.408,16.4772 125.598,16.6035 C125.788,16.7298 126.031,16.793 126.328,16.793 C126.62,16.793 126.855,16.7363 127.033,16.623 C127.212,16.5098 127.302,16.3633 127.305,16.1836 C127.302,16.0326 127.238,15.9082 127.113,15.8105 C126.988,15.7129 126.796,15.638 126.535,15.5859 L125.496,15.3789 C124.91,15.2617 124.475,15.0586 124.189,14.7695 C123.904,14.4805 123.762,14.112 123.762,13.6641 C123.762,13.2786 123.867,12.9466 124.076,12.668 C124.286,12.3893 124.581,12.1745 124.963,12.0234 C125.344,11.8724 125.792,11.7969 126.305,11.7969 C127.063,11.7969 127.66,11.957 128.096,12.2773 C128.532,12.5977 128.786,13.0339 128.859,13.5859 M133.887,15.3203 L133.887,11.875 L135.551,11.875 L135.551,17.875 L133.953,17.875 L133.953,16.7852 L133.891,16.7852 C133.755,17.1367 133.531,17.4193 133.217,17.6328 C132.903,17.8464 132.521,17.9531 132.07,17.9531 C131.669,17.9531 131.316,17.862 131.012,17.6797 C130.707,17.4974 130.469,17.2383 130.299,16.9023 C130.128,16.5664 130.042,16.1641 130.039,15.6953 L130.039,11.875 L131.703,11.875 L131.703,15.3984 C131.706,15.7526 131.801,16.0326 131.988,16.2383 C132.176,16.444 132.427,16.5469 132.742,16.5469 C132.943,16.5469 133.13,16.5007 133.305,16.4082 C133.479,16.3158 133.62,16.1784 133.729,15.9961 C133.837,15.8138 133.889,15.5885 133.887,15.3203 M136.867,17.875 L136.867,11.875 L138.48,11.875 L138.48,12.9219 L138.543,12.9219 C138.652,12.5495 138.836,12.2676 139.094,12.0762 C139.352,11.8848 139.648,11.7891 139.984,11.7891 C140.068,11.7891 140.158,11.7943 140.254,11.8047 C140.35,11.8151 140.435,11.8294 140.508,11.8477 L140.508,13.3242 C140.43,13.3008 140.322,13.2799 140.184,13.2617 C140.046,13.2435 139.919,13.2344 139.805,13.2344 C139.56,13.2344 139.342,13.2871 139.15,13.3926 C138.959,13.498 138.808,13.6445 138.697,13.832 C138.587,14.0195 138.531,14.2357 138.531,14.4805 L138.531,17.875 L136.867,17.875 M143.805,17.9922 C143.188,17.9922 142.657,17.8665 142.213,17.6152 C141.769,17.3639 141.427,17.0072 141.188,16.5449 C140.948,16.0827 140.828,15.5352 140.828,14.9023 C140.828,14.2852 140.948,13.7435 141.188,13.2773 C141.427,12.8112 141.765,12.4479 142.201,12.1875 C142.637,11.9271 143.15,11.7969 143.738,11.7969 C144.134,11.7969 144.503,11.86 144.846,11.9863 C145.188,12.1126 145.488,12.3021 145.744,12.5547 C146.001,12.8073 146.201,13.1243 146.344,13.5059 C146.487,13.8874 146.559,14.3333 146.559,14.8438 L146.559,15.3008 L141.492,15.3008 L141.492,14.2695 L144.992,14.2695 C144.992,14.0299 144.94,13.8177 144.836,13.6328 C144.732,13.4479 144.588,13.3027 144.404,13.1973 C144.221,13.0918 144.008,13.0391 143.766,13.0391 C143.513,13.0391 143.29,13.097 143.096,13.2129 C142.902,13.3288 142.75,13.4837 142.641,13.6777 C142.531,13.8717 142.475,14.0872 142.473,14.3242 L142.473,15.3047 C142.473,15.6016 142.528,15.8581 142.639,16.0742 C142.749,16.2904 142.906,16.457 143.109,16.5742 C143.313,16.6914 143.553,16.75 143.832,16.75 C144.017,16.75 144.186,16.724 144.34,16.6719 C144.493,16.6198 144.625,16.5417 144.734,16.4375 C144.844,16.3333 144.927,16.2057 144.984,16.0547 L146.523,16.1563 C146.445,16.526 146.286,16.8483 146.045,17.123 C145.804,17.3978 145.494,17.6113 145.115,17.7637 C144.736,17.916 144.299,17.9922 143.805,17.9922 "/>
</g>

<g fill="#ffffff" fill-opacity="1" stroke="none" transform="matrix(0.95,0,0,0.95,11.6,4.6)"
font-family="Inter" font-size="11" font-weight="700" font-style="normal" 
>
<path vector-effect="none" fill-rule="nonzero" d="M7.46543,4.39588 C6.38302,4.39585 5.47613,4.39584 4.74926,4.48951 C3.97986,4.58868 3.28183,4.80608 2.69613,5.33613 C2.11042,5.86618 1.82464,6.53909 1.64941,7.2948 C1.48387,8.00878 1.39363,8.91112 1.28596,9.98813 L0.676055,16.0874 C0.487764,17.9704 1.96635,19.6041 3.85857,19.6041 C5.19182,19.6041 6.38522,18.7771 6.85336,17.5288 L7.6565,15.387 C7.81994,14.9511 7.91537,14.7008 8.0049,14.5243 C8.04525,14.4449 8.07235,14.4055 8.08682,14.3873 C8.09352,14.3788 8.09729,14.3751 8.09818,14.3743 L8.09959,14.3732 L8.10111,14.3723 C8.10221,14.3718 8.10688,14.3696 8.11723,14.3663 C8.13943,14.3591 8.18571,14.3475 8.27426,14.3375 C8.47084,14.3157 8.73881,14.3143 9.20432,14.3143 L14.7957,14.3143 C15.2612,14.3143 15.5292,14.3158 15.7258,14.3375 C15.8143,14.3474 15.8606,14.3591 15.8828,14.3663 C15.8931,14.3696 15.8978,14.3718 15.8989,14.3723 L15.9005,14.3732 L15.9018,14.3743 C15.9027,14.3751 15.9064,14.3788 15.9132,14.3873 C15.9276,14.4055 15.9547,14.4449 15.995,14.5243 C16.0846,14.7008 16.18,14.9511 16.3435,15.387 L17.1466,17.5288 C17.6148,18.7771 18.8081,19.6041 20.1414,19.6041 C22.0336,19.6041 23.5123,17.9704 23.3239,16.0874 L22.714,9.9883 C22.6064,8.91117 22.5162,8.00877 22.3506,7.2948 C22.1754,6.53909 21.8896,5.86618 21.3039,5.33613 C20.7182,4.80608 20.0202,4.58868 19.2508,4.48951 C18.5239,4.39583 17.6172,4.39585 16.5347,4.39588 L7.46543,4.39588 M18.0984,6.1592 C18.7525,6.15907 19.2829,6.6892 19.2831,7.34332 L19.2831,7.34367 C19.2831,7.99779 18.7529,8.52808 18.0987,8.52814 C17.4446,8.52821 16.9142,7.99799 16.9141,7.34385 C16.914,6.6897 17.4442,6.15932 18.0984,6.1592 M6.0791,6.38168 C7.79363,6.38129 9.18388,7.77081 9.18439,9.48533 L9.18439,9.48621 C9.1844,11.2007 7.79457,12.5907 6.08004,12.5908 C4.36551,12.5909 2.97547,11.2012 2.97521,9.48668 C2.97499,7.77218 4.3646,6.38207 6.0791,6.38168 M15.966,8.41271 C16.6201,8.41258 17.1505,8.94271 17.1507,9.59684 L17.1507,9.59719 C17.1507,10.2513 16.6205,10.7816 15.9663,10.7817 C15.3122,10.7817 14.7818,10.2515 14.7817,9.59736 C14.7816,8.94322 15.3118,8.41284 15.966,8.41271 M20.3065,8.43451 C20.9606,8.43435 21.4911,8.96449 21.4912,9.61863 L21.4913,9.61898 C21.4913,10.2731 20.961,10.8034 20.3068,10.8035 C19.6527,10.8035 19.1224,10.2733 19.1223,9.61916 C19.1222,8.96504 19.6524,8.43467 20.3065,8.43451 M18.1035,10.4194 C18.7576,10.4193 19.288,10.9494 19.2882,11.6035 L19.2882,11.6038 C19.2882,12.258 18.758,12.7883 18.1039,12.7883 C17.4497,12.7884 16.9194,12.2582 16.9193,11.604 C16.9192,10.9499 17.4494,10.4196 18.1035,10.4194 "/>
</g>

<g fill="none" stroke="#000000" stroke-opacity="1" stroke-width="0.54" stroke-linecap="butt" stroke-linejoin="miter" stroke-miterlimit="4" transform="matrix(0.95,0,0,0.95,11.6,4.6)"
font-family="Inter" font-size="11" font-weight="700" font-style="normal" 
>
<path vector-effect="none" fill-rule="nonzero" d="M0.676054,16.0875 C0.487763,17.9704 1.96634,19.6041 3.85857,19.6041 C5.19182,19.6041 6.38521,18.7771 6.85334,17.5288 L7.65652,15.3869 C7.81997,14.9511 7.9154,14.7007 8.00493,14.5243 C8.04527,14.4448 8.07237,14.4056 8.08684,14.3873 C8.09354,14.3788 8.09731,14.3751 8.0982,14.3743 L8.09956,14.3731 L8.10109,14.3723 C8.10219,14.3718 8.10694,14.3695 8.11724,14.3662 C8.13944,14.3591 8.18573,14.3475 8.27428,14.3375 C8.47086,14.3157 8.73883,14.3143 9.20434,14.3143 L14.7957,14.3143 C15.2612,14.3143 15.5291,14.3158 15.7258,14.3375 C15.8143,14.3474 15.8605,14.3591 15.8828,14.3662 C15.8931,14.3695 15.8978,14.3718 15.8989,14.3723 L15.9005,14.3731 L15.9018,14.3743 C15.9027,14.3751 15.9064,14.3788 15.9132,14.3873 C15.9276,14.4056 15.9547,14.4448 15.995,14.5243 C16.0845,14.7007 16.18,14.9511 16.3435,15.3869 L17.1466,17.5288 C17.6148,18.7771 18.8081,19.6041 20.1414,19.6041 C22.0336,19.6041 23.5123,17.9704 23.3239,16.0875 L22.714,9.98828 C22.6064,8.91114 22.5162,8.0088 22.3506,7.29483 C22.1754,6.53911 21.8896,5.86621 21.3039,5.33615 C20.7182,4.8061 20.0202,4.58866 19.2508,4.48949 C18.5238,4.39581 17.6172,4.39585 16.5347,4.39587 L7.46542,4.39587 C6.383,4.39585 5.47612,4.39582 4.74925,4.48949 C3.97984,4.58866 3.28185,4.8061 2.69615,5.33615 C2.11043,5.86621 1.82462,6.53911 1.6494,7.29483 C1.48385,8.00881 1.39365,8.91114 1.28597,9.98815 L0.676054,16.0875"/>
</g>

<g fill="none" stroke="#000000" stroke-opacity="1" stroke-width="0.54" stroke-linecap="round" stroke-linejoin="round" transform="matrix(0,0.95,-0.95,0,11.6,4.6)"
font-family="Inter" font-size="11" font-weight="700" font-style="normal" 
>
<path vector-effect="none" fill-rule="nonzero" d="M12.5908,-5.99358 C12.5908,-4.27905 11.201,-2.88912 9.48647,-2.88899 C7.77194,-2.88886 6.38191,-4.27859 6.38165,-5.99311 C6.38139,-7.70764 7.77102,-9.09778 9.48554,-9.09816 C11.2001,-9.09855 12.5903,-7.70903 12.5908,-5.99451 "/>
</g>

<g fill="#000000" fill-opacity="1" stroke="none" transform="matrix(1.02542,0,0,1.02542,11.148,3.96268)"
font-family="Inter" font-size="11" font-weight="700" font-style="normal" 
>
<path vector-effect="none" fill-rule="evenodd" d="M5.49097,7.51931 C5.49097,7.42723 5.56561,7.35258 5.65769,7.35258 L6.32946,7.35258 C6.42154,7.35258 6.49619,7.42723 6.49619,7.51931 L6.49619,8.23146 C6.49619,8.32354 6.42154,8.39819 6.32946,8.39819 L5.65769,8.39819 C5.56561,8.39819 5.49097,8.32354 5.49097,8.23146 L5.49097,7.51931"/>
</g>

<g fill="none" stroke="#000000" stroke-opacity="1" stroke-width="0.463675" stroke-linecap="round" stroke-linejoin="round" transform="matrix(1.02542,0,0,1.02542,11.148,3.96268)"
font-family="Inter" font-size="11" font-weight="700" font-style="normal" 
>
<path vector-effect="none" fill-rule="evenodd" d="M5.49097,7.51931 C5.49097,7.42723 5.56561,7.35258 5.65769,7.35258 L6.32946,7.35258 C6.42154,7.35258 6.49619,7.42723 6.49619,7.51931 L6.49619,8.23146 C6.49619,8.32354 6.42154,8.39819 6.32946,8.39819 L5.65769,8.39819 C5.56561,8.39819 5.49097,8.32354 5.49097,8.23146 L5.49097,7.51931"/>
</g>

<g fill="#000000" fill-opacity="1" stroke="none" transform="matrix(1.02542,0,0,1.02542,11.148,3.96268)"
font-family="Inter" font-size="11" font-weight="700" font-style="normal" 
>
<path vector-effect="none" fill-rule="evenodd" d="M5.49097,10.5887 C5.49097,10.4966 5.56561,10.422 5.65769,10.422 L6.32946,10.422 C6.42154,10.422 6.49619,10.4966 6.49619,10.5887 L6.49619,11.3008 C6.49619,11.3929 6.42154,11.4676 6.32946,11.4676 L5.65769,11.4676 C5.56561,11.4676 5.49097,11.3929 5.49097,11.3008 L5.49097,10.5887"/>
</g>

<g fill="none" stroke="#000000" stroke-opacity="1" stroke-width="0.463675" stroke-linecap="round" stroke-linejoin="round" transform="matrix(1.02542,0,0,1.02542,11.148,3.96268)"
font-family="Inter" font-size="11" font-weight="700" font-style="normal" 
>
<path vector-effect="none" fill-rule="evenodd" d="M5.49097,10.5887 C5.49097,10.4966 5.56561,10.422 5.65769,10.422 L6.32946,10.422 C6.42154,10.422 6.49619,10.4966 6.49619,10.5887 L6.49619,11.3008 C6.49619,11.3929 6.42154,11.4676 6.32946,11.4676 L5.65769,11.4676 C5.56561,11.4676 5.49097,11.3929 5.49097,11.3008 L5.49097,10.5887"/>
</g>

<g fill="#000000" fill-opacity="1" stroke="none" transform="matrix(0,1.02542,-1.02542,0,26.9431,7.54411)"
font-family="Inter" font-size="11" font-weight="700" font-style="normal" 
>
<path vector-effect="none" fill-rule="evenodd" d="M5.49097,7.51931 C5.49097,7.42723 5.56561,7.35258 5.65769,7.35258 L6.32946,7.35258 C6.42154,7.35258 6.49619,7.42723 6.49619,7.51931 L6.49619,8.23146 C6.49619,8.32354 6.42154,8.39819 6.32946,8.39819 L5.65769,8.39819 C5.56561,8.39819 5.49097,8.32354 5.49097,8.23146 L5.49097,7.51931"/>
</g>

<g fill="none" stroke="#000000" stroke-opacity="1" stroke-width="0.463675" stroke-linecap="round" stroke-linejoin="round" transform="matrix(0,1.02542,-1.02542,0,26.9431,7.54411)"
font-family="Inter" font-size="11" font-weight="700" font-style="normal" 
>
<path vector-effect="none" fill-rule="evenodd" d="M5.49097,7.51931 C5.49097,7.42723 5.56561,7.35258 5.65769,7.35258 L6.32946,7.35258 C6.42154,7.35258 6.49619,7.42723 6.49619,7.51931 L6.49619,8.23146 C6.49619,8.32354 6.42154,8.39819 6.32946,8.39819 L5.65769,8.39819 C5.56561,8.39819 5.49097,8.32354 5.49097,8.23146 L5.49097,7.51931"/>
</g>

<g fill="#000000" fill-opacity="1" stroke="none" transform="matrix(0,1.02542,-1.02542,0,26.9431,7.54411)"
font-family="Inter" font-size="11" font-weight="700" font-style="normal" 
>
<path vector-effect="none" fill-rule="evenodd" d="M5.49097,10.5887 C5.49097,10.4966 5.56561,10.422 5.65769,10.422 L6.32946,10.422 C6.42154,10.422 6.49619,10.4966 6.49619,10.5887 L6.49619,11.3008 C6.49619,11.3929 6.42154,11.4676 6.32946,11.4676 L5.65769,11.4676 C5.56561,11.4676 5.49097,11.3929 5.49097,11.3008 L5.49097,10.5887"/>
</g>

<g fill="none" stroke="#000000" stroke-opacity="1" stroke-width="0.463675" stroke-linecap="round" stroke-linejoin="round" transform="matrix(0,1.02542,-1.02542,0,26.9431,7.54411)"
font-family="Inter" font-size="11" font-weight="700" font-style="normal" 
>
<path vector-effect="none" fill-rule="evenodd" d="M5.49097,10.5887 C5.49097,10.4966 5.56561,10.422 5.65769,10.422 L6.32946,10.422 C6.42154,10.422 6.49619,10.4966 6.49619,10.5887 L6.49619,11.3008 C6.49619,11.3929 6.42154,11.4676 6.32946,11.4676 L5.65769,11.4676 C5.56561,11.4676 5.49097,11.3929 5.49097,11.3008 L5.49097,10.5887"/>
</g>

<g fill="none" stroke="#000000" stroke-opacity="1" stroke-width="0.32496" stroke-linecap="round" stroke-linejoin="round" transform="matrix(0.95,0,0,0.95,11.6,4.6)"
font-family="Inter" font-size="11" font-weight="700" font-style="normal" 
>
<path vector-effect="none" fill-rule="evenodd" d="M17.0283,7.32484 C17.0283,6.74873 17.4954,6.28169 18.0715,6.28169 L18.1437,6.28169 C18.7198,6.28169 19.1869,6.74873 19.1869,7.32484 L19.1869,7.40867 C19.1869,7.98479 18.7198,8.45182 18.1437,8.45182 L18.0715,8.45182 C17.4954,8.45182 17.0283,7.98479 17.0283,7.40867 L17.0283,7.32484"/>
</g>

<g fill="none" stroke="#000000" stroke-opacity="1" stroke-width="0.32496" stroke-linecap="round" stroke-linejoin="round" transform="matrix(0.95,0,0,0.95,11.6,4.6)"
font-family="Inter" font-size="11" font-weight="700" font-style="normal" 
>
<path vector-effect="none" fill-rule="evenodd" d="M19.2177,9.55083 C19.2177,8.97472 19.6848,8.50768 20.2609,8.50768 L20.3331,8.50768 C20.9092,8.50768 21.3763,8.97472 21.3763,9.55083 L21.3763,9.63466 C21.3763,10.2108 20.9092,10.6778 20.3331,10.6778 L20.2609,10.6778 C19.6848,10.6778 19.2177,10.2108 19.2177,9.63466 L19.2177,9.55083"/>
</g>

<g fill="none" stroke="#000000" stroke-opacity="1" stroke-width="0.32496" stroke-linecap="round" stroke-linejoin="round" transform="matrix(0.95,0,0,0.95,11.6,4.6)"
font-family="Inter" font-size="11" font-weight="700" font-style="normal" 
>
<path vector-effect="none" fill-rule="evenodd" d="M14.8925,9.52667 C14.8925,8.95055 15.3596,8.48352 15.9357,8.48352 L16.0079,8.48352 C16.584,8.48352 17.0511,8.95055 17.0511,9.52667 L17.0511,9.61049 C17.0511,10.1866 16.584,10.6536 16.0079,10.6536 L15.9357,10.6536 C15.3596,10.6536 14.8925,10.1866 14.8925,9.61049 L14.8925,9.52667"/>
</g>

<g fill="none" stroke="#000000" stroke-opacity="1" stroke-width="0.32496" stroke-linecap="round" stroke-linejoin="round" transform="matrix(0.95,0,0,0.95,11.6,4.6)"
font-family="Inter" font-size="11" font-weight="700" font-style="normal" 
>
<path vector-effect="none" fill-rule="evenodd" d="M16.9947,11.5322 C16.9947,10.9561 17.4618,10.4891 18.0379,10.4891 L18.1101,10.4891 C18.6862,10.4891 19.1533,10.9561 19.1533,11.5322 L19.1533,11.616 C19.1533,12.1921 18.6862,12.6592 18.1101,12.6592 L18.0379,12.6592 C17.4618,12.6592 16.9947,12.1921 16.9947,11.616 L16.9947,11.5322"/>
</g>

<g fill="#000000" fill-opacity="1" stroke="none" transform="matrix(0.95,0,0,0.95,11.6,4.6)"
font-family="Inter" font-size="11" font-weight="700" font-style="normal" 
>
<path vector-effect="none" fill-rule="evenodd" d="M10.7009,12.2391 C10.7009,11.9791 10.9118,11.7682 11.1719,11.7682 L12.8281,11.7682 C13.0882,11.7682 13.2991,11.9791 13.2991,12.2391 C13.2991,12.4992 13.0882,12.71 12.8281,12.71 L11.1719,12.71 C10.9118,12.71 10.7009,12.4992 10.7009,12.2391 "/>
</g>

<g fill="#ffffff" fill-opacity="1" stroke="none" transform="matrix(1,0,0,1,0,0)"
font-family="Inter" font-size="11" font-weight="700" font-style="normal" 
>
</g>

<g fill="#ffffff" fill-opacity="1" stroke="#006e51" stroke-opacity="1" stroke-width="1" stroke-linecap="square" stroke-linejoin="bevel" transform="matrix(1,0,0,1,0,0)"
font-family="Inter" font-size="11" font-weight="700" font-style="normal" 
>
<polyline fill="none" vector-effect="none" points="45,6 45,26 " />
</g>

<g fill="#ffffff" fill-opacity="1" stroke="#006e51" stroke-opacity="1" stroke-width="1" stroke-linecap="square" stroke-linejoin="bevel" transform="matrix(1,0,0,1,0,0)"
font-family="Inter" font-size="11" font-weight="700" font-style="normal" 
>
</g>

<g fill="#00a97d" fill-opacity="1" stroke="#006e51" stroke-opacity="1" stroke-width="1.2" stroke-linecap="square" stroke-linejoin="bevel" transform="matrix(1,0,0,1,50,4)"
font-family="Inter" font-size="11" font-weight="700" font-style="normal" 
>
<path vector-effect="none" fill-rule="evenodd" d="M0.5,3.5 C0.5,1.84315 1.84315,0.5 3.5,0.5 L40.5,0.5 C42.1569,0.5 43.5,1.84315 43.5,3.5 L43.5,20.5 C43.5,22.1569 42.1569,23.5 40.5,23.5 L3.5,23.5 C1.84315,23.5 0.5,22.1569 0.5,20.5 L0.5,3.5"/>
</g>

<g fill="#ffffff" fill-opacity="1" stroke="none" transform="matrix(1,0,0,1,50,4)"
font-family="Inter" font-size="11" font-weight="700" font-style="normal" 
>
<path vector-effect="none" fill-rule="nonzero" d="M10.0078,16 L10.0078,8 L11.6992,8 L11.6992,14.6055 L15.1289,14.6055 L15.1289,16 L10.0078,16 M14.9375,9.39453 L14.9375,8 L21.5078,8 L21.5078,9.39453 L19.0586,9.39453 L19.0586,16 L17.3867,16 L17.3867,9.39453 L14.9375,9.39453"/>
</g>

<g fill="#ffffff" fill-opacity="1" stroke="none" transform="matrix(0.03125,0,0,0.03125,80,12)"
font-family="Inter" font-size="11" font-weight="700" font-style="normal" 
>
<path vector-effect="none" fill-rule="nonzero" d="M111.326,191.938 C120.545,201.158 135.517,201.158 144.737,191.938 L239.144,97.5313 C245.929,90.7458 247.921,80.6413 244.233,71.7907 C240.545,62.9401 231.989,57.1871 222.401,57.1871 L33.5875,57.2608 C24.0731,57.2608 15.4437,63.0137 11.7559,71.8644 C8.06815,80.715 10.1333,90.8195 16.845,97.605 L111.252,192.012 L111.326,191.938"/>
</g>

<g fill="none" stroke="#000000" stroke-opacity="1" stroke-width="13.7195" stroke-linecap="butt" stroke-linejoin="miter" stroke-miterlimit="4" transform="matrix(0.03125,0,0,0.03125,80,12)"
font-family="Inter" font-size="11" font-weight="700" font-style="normal" 
>
<path vector-effect="none" fill-rule="nonzero" d="M111.326,191.938 C120.545,201.158 135.517,201.158 144.737,191.938 L239.144,97.5313 C245.929,90.7458 247.921,80.6413 244.233,71.7907 C240.545,62.9401 231.989,57.1871 222.401,57.1871 L33.5875,57.2608 C24.0731,57.2608 15.4437,63.0137 11.7559,71.8644 C8.06815,80.715 10.1333,90.8195 16.845,97.605 L111.252,192.012 L111.326,191.938"/>
</g>

<g fill="#ffffff" fill-opacity="1" stroke="none" transform="matrix(1,0,0,1,50,4)"
font-family="Inter" font-size="11" font-weight="700" font-style="normal" 
>
</g>

<g fill="#ffffff" fill-opacity="1" stroke="#006e51" stroke-opacity="1" stroke-width="1" stroke-linecap="square" stroke-linejoin="bevel" transform="matrix(1,0,0,1,0,0)"
font-family="Inter" font-size="11" font-weight="700" font-style="normal" 
>
</g>

<g fill="none" stroke="#000000" stroke-opacity="1" stroke-width="1" stroke-linecap="square" stroke-linejoin="bevel" transform="matrix(1,0,0,1,0,0)"
font-family=".AppleSystemUIFont" font-size="13" font-weight="400" font-style="normal" 
>
</g>
</g>
</svg>
