<?xml version="1.0" encoding="UTF-8" standalone="no"?>
<svg width="90.3111mm" height="11.2889mm"
 viewBox="0 0 256 32"
 xmlns="http://www.w3.org/2000/svg" xmlns:xlink="http://www.w3.org/1999/xlink" version="1.2" baseProfile="tiny">
<title>Abstract block</title>
<desc>block_hubs_all_motors_port_device_type</desc>
<defs>
</defs>
<g fill="none" stroke="black" stroke-width="1" fill-rule="evenodd" stroke-linecap="square" stroke-linejoin="bevel" >

<g fill="none" stroke="#000000" stroke-opacity="1" stroke-width="1" stroke-linecap="square" stroke-linejoin="bevel" transform="matrix(1,0,0,1,0,0)"
font-family=".AppleSystemUIFont" font-size="13" font-weight="400" font-style="normal" 
>
</g>

<g fill="none" stroke="#000000" stroke-opacity="1" stroke-width="1" stroke-linecap="square" stroke-linejoin="bevel" transform="matrix(1,0,0,1,0,0)"
font-family=".AppleSystemUIFont" font-size="13" font-weight="400" font-style="normal" 
>
</g>

<g fill="#1dccf0" fill-opacity="1" stroke="#0da6c5" stroke-opacity="1" stroke-width="1.2" stroke-linecap="square" stroke-linejoin="bevel" transform="matrix(1,0,0,1,0,0)"
font-family=".AppleSystemUIFont" font-size="13" font-weight="400" font-style="normal" 
>
<path vector-effect="none" fill-rule="evenodd" d="M1,16 C1,7.71573 8.16344,1 17,1 L238.667,1 C247.503,1 254.667,7.71573 254.667,16 C254.667,24.2843 247.503,31 238.667,31 L17,31 C8.16344,31 1,24.2843 1,16 "/>
</g>

<g fill="#ffffff" fill-opacity="1" stroke="none" transform="matrix(1,0,0,1,0,0)"
font-family="Inter" font-size="11" font-weight="700" font-style="normal" 
>
<path vector-effect="none" fill-rule="nonzero" d="M183.297,19.1602 C182.841,19.1602 182.429,19.0423 182.061,18.8066 C181.692,18.571 181.4,18.2233 181.186,17.7637 C180.971,17.304 180.863,16.7396 180.863,16.0703 C180.863,15.3828 180.974,14.8105 181.195,14.3535 C181.417,13.8965 181.712,13.554 182.08,13.3262 C182.449,13.0983 182.853,12.9844 183.293,12.9844 C183.629,12.9844 183.91,13.041 184.135,13.1543 C184.36,13.2676 184.542,13.4082 184.682,13.5762 C184.821,13.7441 184.927,13.9089 185,14.0703 L185.051,14.0703 L185.051,11.0625 L186.711,11.0625 L186.711,19.0625 L185.07,19.0625 L185.07,18.1016 L185,18.1016 C184.922,18.2682 184.812,18.4329 184.67,18.5957 C184.528,18.7585 184.344,18.8932 184.119,19 C183.894,19.1068 183.62,19.1602 183.297,19.1602 M183.824,17.8359 C184.092,17.8359 184.32,17.7624 184.506,17.6152 C184.692,17.4681 184.835,17.2617 184.936,16.9961 C185.036,16.7305 185.086,16.4193 185.086,16.0625 C185.086,15.7057 185.036,15.3958 184.938,15.1328 C184.839,14.8698 184.695,14.6667 184.508,14.5234 C184.32,14.3802 184.092,14.3086 183.824,14.3086 C183.551,14.3086 183.32,14.3828 183.133,14.5313 C182.945,14.6797 182.803,14.8854 182.707,15.1484 C182.611,15.4115 182.563,15.7161 182.563,16.0625 C182.563,16.4115 182.611,16.7194 182.709,16.9863 C182.807,17.2533 182.949,17.4616 183.135,17.6113 C183.321,17.7611 183.551,17.8359 183.824,17.8359 M190.805,19.1797 C190.188,19.1797 189.657,19.054 189.213,18.8027 C188.769,18.5514 188.427,18.1947 188.188,17.7324 C187.948,17.2702 187.828,16.7227 187.828,16.0898 C187.828,15.4727 187.948,14.931 188.188,14.4648 C188.427,13.9987 188.765,13.6354 189.201,13.375 C189.637,13.1146 190.15,12.9844 190.738,12.9844 C191.134,12.9844 191.503,13.0475 191.846,13.1738 C192.188,13.3001 192.488,13.4896 192.744,13.7422 C193.001,13.9948 193.201,14.3118 193.344,14.6934 C193.487,15.0749 193.559,15.5208 193.559,16.0313 L193.559,16.4883 L188.492,16.4883 L188.492,15.457 L191.992,15.457 C191.992,15.2174 191.94,15.0052 191.836,14.8203 C191.732,14.6354 191.588,14.4902 191.404,14.3848 C191.221,14.2793 191.008,14.2266 190.766,14.2266 C190.513,14.2266 190.29,14.2845 190.096,14.4004 C189.902,14.5163 189.75,14.6712 189.641,14.8652 C189.531,15.0592 189.475,15.2747 189.473,15.5117 L189.473,16.4922 C189.473,16.7891 189.528,17.0456 189.639,17.2617 C189.749,17.4779 189.906,17.6445 190.109,17.7617 C190.313,17.8789 190.553,17.9375 190.832,17.9375 C191.017,17.9375 191.186,17.9115 191.34,17.8594 C191.493,17.8073 191.625,17.7292 191.734,17.625 C191.844,17.5208 191.927,17.3932 191.984,17.2422 L193.523,17.3438 C193.445,17.7135 193.286,18.0358 193.045,18.3105 C192.804,18.5853 192.494,18.7988 192.115,18.9512 C191.736,19.1035 191.299,19.1797 190.805,19.1797 M200.055,13.0625 L197.957,19.0625 L196.082,19.0625 L193.984,13.0625 L195.742,13.0625 L196.988,17.3555 L197.051,17.3555 L198.293,13.0625 L200.055,13.0625 M200.898,19.0625 L200.898,13.0625 L202.563,13.0625 L202.563,19.0625 L200.898,19.0625 M201.734,12.2891 C201.487,12.2891 201.275,12.2064 201.1,12.041 C200.924,11.8757 200.836,11.6771 200.836,11.4453 C200.836,11.2161 200.924,11.0189 201.1,10.8535 C201.275,10.6882 201.487,10.6055 201.734,10.6055 C201.982,10.6055 202.193,10.6882 202.369,10.8535 C202.545,11.0189 202.633,11.2161 202.633,11.4453 C202.633,11.6771 202.545,11.8757 202.369,12.041 C202.193,12.2064 201.982,12.2891 201.734,12.2891 M206.594,19.1797 C205.979,19.1797 205.451,19.0488 205.01,18.7871 C204.568,18.5254 204.23,18.1615 203.994,17.6953 C203.758,17.2292 203.641,16.6927 203.641,16.0859 C203.641,15.4714 203.76,14.9316 203.998,14.4668 C204.236,14.002 204.576,13.6387 205.016,13.377 C205.456,13.1152 205.979,12.9844 206.586,12.9844 C207.109,12.9844 207.568,13.0794 207.961,13.2695 C208.354,13.4596 208.665,13.7266 208.895,14.0703 C209.124,14.4141 209.25,14.8177 209.273,15.2813 L207.703,15.2813 C207.659,14.9818 207.542,14.7402 207.354,14.5566 C207.165,14.373 206.918,14.2813 206.613,14.2813 C206.355,14.2813 206.131,14.3509 205.939,14.4902 C205.748,14.6296 205.599,14.832 205.492,15.0977 C205.385,15.3633 205.332,15.6849 205.332,16.0625 C205.332,16.4453 205.385,16.7708 205.49,17.0391 C205.596,17.3073 205.745,17.5117 205.938,17.6523 C206.13,17.793 206.355,17.8633 206.613,17.8633 C206.803,17.8633 206.975,17.8242 207.127,17.7461 C207.279,17.668 207.406,17.554 207.506,17.4043 C207.606,17.2546 207.672,17.0742 207.703,16.8633 L209.273,16.8633 C209.247,17.3216 209.123,17.7246 208.9,18.0723 C208.678,18.4199 208.371,18.6914 207.98,18.8867 C207.59,19.082 207.128,19.1797 206.594,19.1797 M213.07,19.1797 C212.453,19.1797 211.923,19.054 211.479,18.8027 C211.035,18.5514 210.693,18.1947 210.453,17.7324 C210.214,17.2702 210.094,16.7227 210.094,16.0898 C210.094,15.4727 210.214,14.931 210.453,14.4648 C210.693,13.9987 211.031,13.6354 211.467,13.375 C211.903,13.1146 212.415,12.9844 213.004,12.9844 C213.4,12.9844 213.769,13.0475 214.111,13.1738 C214.454,13.3001 214.753,13.4896 215.01,13.7422 C215.266,13.9948 215.466,14.3118 215.609,14.6934 C215.753,15.0749 215.824,15.5208 215.824,16.0313 L215.824,16.4883 L210.758,16.4883 L210.758,15.457 L214.258,15.457 C214.258,15.2174 214.206,15.0052 214.102,14.8203 C213.997,14.6354 213.854,14.4902 213.67,14.3848 C213.486,14.2793 213.273,14.2266 213.031,14.2266 C212.779,14.2266 212.555,14.2845 212.361,14.4004 C212.167,14.5163 212.016,14.6712 211.906,14.8652 C211.797,15.0592 211.741,15.2747 211.738,15.5117 L211.738,16.4922 C211.738,16.7891 211.794,17.0456 211.904,17.2617 C212.015,17.4779 212.172,17.6445 212.375,17.7617 C212.578,17.8789 212.819,17.9375 213.098,17.9375 C213.283,17.9375 213.452,17.9115 213.605,17.8594 C213.759,17.8073 213.891,17.7292 214,17.625 C214.109,17.5208 214.193,17.3932 214.25,17.2422 L215.789,17.3438 C215.711,17.7135 215.551,18.0358 215.311,18.3105 C215.07,18.5853 214.76,18.7988 214.381,18.9512 C214.002,19.1035 213.565,19.1797 213.07,19.1797 M222.637,13.0625 L222.637,14.3125 L219.023,14.3125 L219.023,13.0625 L222.637,13.0625 M219.844,11.625 L221.508,11.625 L221.508,17.2188 C221.508,17.3724 221.531,17.4915 221.578,17.5762 C221.625,17.6608 221.691,17.7201 221.775,17.7539 C221.86,17.7878 221.958,17.8047 222.07,17.8047 C222.148,17.8047 222.227,17.7975 222.305,17.7832 C222.383,17.7689 222.443,17.7578 222.484,17.75 L222.746,18.9883 C222.663,19.0143 222.546,19.0449 222.395,19.0801 C222.243,19.1152 222.06,19.1367 221.844,19.1445 C221.443,19.1602 221.092,19.1068 220.791,18.9844 C220.49,18.862 220.257,18.6719 220.09,18.4141 C219.923,18.1563 219.841,17.8307 219.844,17.4375 L219.844,11.625 M224.738,21.3125 C224.527,21.3125 224.33,21.2962 224.146,21.2637 C223.963,21.2311 223.811,21.1901 223.691,21.1406 L224.066,19.8984 C224.262,19.9583 224.438,19.9909 224.596,19.9961 C224.753,20.0013 224.89,19.9648 225.006,19.8867 C225.122,19.8086 225.216,19.6758 225.289,19.4883 L225.387,19.2344 L223.234,13.0625 L224.984,13.0625 L226.227,17.4688 L226.289,17.4688 L227.543,13.0625 L229.305,13.0625 L226.973,19.7109 C226.861,20.0339 226.709,20.3158 226.518,20.5566 C226.326,20.7975 226.085,20.9837 225.793,21.1152 C225.501,21.2467 225.15,21.3125 224.738,21.3125 M230.148,21.3125 L230.148,13.0625 L231.789,13.0625 L231.789,14.0703 L231.863,14.0703 C231.936,13.9089 232.042,13.7441 232.182,13.5762 C232.321,13.4082 232.503,13.2676 232.729,13.1543 C232.954,13.041 233.234,12.9844 233.57,12.9844 C234.008,12.9844 234.411,13.0983 234.781,13.3262 C235.151,13.554 235.447,13.8965 235.668,14.3535 C235.889,14.8105 236,15.3828 236,16.0703 C236,16.7396 235.893,17.304 235.678,17.7637 C235.463,18.2233 235.171,18.571 234.803,18.8066 C234.434,19.0423 234.022,19.1602 233.566,19.1602 C233.243,19.1602 232.969,19.1068 232.744,19 C232.519,18.8932 232.335,18.7585 232.191,18.5957 C232.048,18.4329 231.939,18.2682 231.863,18.1016 L231.813,18.1016 L231.813,21.3125 L230.148,21.3125 M231.777,16.0625 C231.777,16.4193 231.827,16.7305 231.926,16.9961 C232.025,17.2617 232.168,17.4681 232.355,17.6152 C232.543,17.7624 232.771,17.8359 233.039,17.8359 C233.31,17.8359 233.539,17.7611 233.727,17.6113 C233.914,17.4616 234.057,17.2533 234.154,16.9863 C234.252,16.7194 234.301,16.4115 234.301,16.0625 C234.301,15.7161 234.253,15.4115 234.156,15.1484 C234.06,14.8854 233.918,14.6797 233.73,14.5313 C233.543,14.3828 233.313,14.3086 233.039,14.3086 C232.768,14.3086 232.54,14.3802 232.354,14.5234 C232.167,14.6667 232.025,14.8698 231.926,15.1328 C231.827,15.3958 231.777,15.7057 231.777,16.0625 M239.836,19.1797 C239.219,19.1797 238.688,19.054 238.244,18.8027 C237.8,18.5514 237.458,18.1947 237.219,17.7324 C236.979,17.2702 236.859,16.7227 236.859,16.0898 C236.859,15.4727 236.979,14.931 237.219,14.4648 C237.458,13.9987 237.796,13.6354 238.232,13.375 C238.669,13.1146 239.181,12.9844 239.77,12.9844 C240.165,12.9844 240.535,13.0475 240.877,13.1738 C241.219,13.3001 241.519,13.4896 241.775,13.7422 C242.032,13.9948 242.232,14.3118 242.375,14.6934 C242.518,15.0749 242.59,15.5208 242.59,16.0313 L242.59,16.4883 L237.523,16.4883 L237.523,15.457 L241.023,15.457 C241.023,15.2174 240.971,15.0052 240.867,14.8203 C240.763,14.6354 240.619,14.4902 240.436,14.3848 C240.252,14.2793 240.039,14.2266 239.797,14.2266 C239.544,14.2266 239.321,14.2845 239.127,14.4004 C238.933,14.5163 238.781,14.6712 238.672,14.8652 C238.563,15.0592 238.507,15.2747 238.504,15.5117 L238.504,16.4922 C238.504,16.7891 238.559,17.0456 238.67,17.2617 C238.781,17.4779 238.938,17.6445 239.141,17.7617 C239.344,17.8789 239.585,17.9375 239.863,17.9375 C240.048,17.9375 240.217,17.9115 240.371,17.8594 C240.525,17.8073 240.656,17.7292 240.766,17.625 C240.875,17.5208 240.958,17.3932 241.016,17.2422 L242.555,17.3438 C242.477,17.7135 242.317,18.0358 242.076,18.3105 C241.835,18.5853 241.525,18.7988 241.146,18.9512 C240.768,19.1035 240.331,19.1797 239.836,19.1797 "/>
</g>

<g fill="#ffffff" fill-opacity="1" stroke="none" transform="matrix(0.0285,0,0,0.0285,11.2928,4.44754)"
font-family="Inter" font-size="11" font-weight="700" font-style="normal" 
>
<path vector-effect="none" fill-rule="nonzero" d="M410.778,59.991 C376.729,59.991 346.629,75.6235 326.182,99.684 C216.768,129.689 131.433,215.271 101.927,324.891 C79.5232,345.494 65.3275,374.762 65.54,407.6 C65.7463,439.573 79.3407,468.172 100.975,488.421 C130.228,601.34 218.744,689.335 331.859,718.096 C331.956,718.125 331.989,718.313 332.085,718.338 C352.242,738.376 380.064,750.708 410.778,750.708 C441.492,750.708 469.314,738.376 489.47,718.338 C489.549,718.262 489.618,718.17 489.696,718.096 C604.323,688.948 693.738,598.994 721.758,483.921 C742.939,463.42 756.216,434.907 756.015,403.1 C755.801,370.079 741.086,340.899 718.209,320.633 C687.622,213.077 603.338,129.291 495.373,99.684 C474.926,75.6235 444.827,59.991 410.778,59.991 M410.778,91.8938 C455.052,91.8938 490.89,127.731 490.89,172.006 C490.89,216.28 455.052,252.102 410.778,252.102 C366.503,252.102 330.666,216.28 330.666,172.006 C330.666,127.731 366.503,91.8938 410.778,91.8938 M177.071,325.601 C221.346,325.601 257.183,361.438 257.183,405.713 C257.183,449.987 221.346,485.808 177.071,485.808 C132.796,485.808 96.7332,449.987 96.7332,405.713 C96.7332,361.438 132.796,325.601 177.071,325.601 M644.485,325.601 C688.763,325.601 724.822,361.438 724.822,405.713 C724.822,449.987 688.763,485.808 644.485,485.808 C600.21,485.808 564.373,449.987 564.373,405.713 C564.373,361.438 600.21,325.601 644.485,325.601 M396.601,335.762 L424.955,335.762 C431.754,335.762 437.245,342.538 437.245,350.891 L437.245,381.6 L467.971,381.6 C476.323,381.6 483.083,387.091 483.083,393.89 L483.083,422.245 C483.083,429.044 476.323,434.535 467.971,434.535 L437.245,434.535 L437.245,465.26 C437.245,473.612 431.754,480.373 424.955,480.373 L396.601,480.373 C389.801,480.373 384.31,473.613 384.31,465.26 L384.31,434.535 L353.585,434.535 C345.233,434.535 338.472,429.044 338.472,422.245 L338.472,393.89 C338.472,387.091 345.232,381.6 353.585,381.6 L384.31,381.6 L384.31,350.891 C384.31,342.539 389.801,335.762 396.601,335.762 M410.778,559.307 C455.052,559.307 490.89,595.371 490.89,639.645 C490.89,683.918 455.052,719.757 410.778,719.757 C366.503,719.757 330.666,683.918 330.666,639.645 C330.666,595.371 366.503,559.307 410.778,559.307 "/>
</g>

<g fill="none" stroke="#000000" stroke-opacity="1" stroke-width="22.7975" stroke-linecap="round" stroke-linejoin="round" transform="matrix(0.0285,0,0,0.0285,11.2928,4.44754)"
font-family="Inter" font-size="11" font-weight="700" font-style="normal" 
>
<path vector-effect="none" fill-rule="nonzero" d="M410.778,59.991 C376.729,59.991 346.629,75.6235 326.182,99.684 C216.768,129.689 131.433,215.271 101.927,324.891 C79.5232,345.494 65.3275,374.762 65.54,407.6 C65.7463,439.573 79.3407,468.172 100.975,488.421 C130.228,601.34 218.744,689.335 331.859,718.096 C331.956,718.125 331.989,718.313 332.085,718.338 C352.242,738.376 380.064,750.708 410.778,750.708 C441.492,750.708 469.314,738.376 489.47,718.338 C489.549,718.262 489.618,718.17 489.696,718.096 C604.323,688.948 693.738,598.994 721.758,483.921 C742.939,463.42 756.216,434.907 756.015,403.1 C755.801,370.079 741.086,340.899 718.209,320.633 C687.622,213.077 603.338,129.291 495.373,99.684 C474.926,75.6235 444.827,59.991 410.778,59.991 M410.778,91.8938 C455.052,91.8938 490.89,127.731 490.89,172.006 C490.89,216.28 455.052,252.102 410.778,252.102 C366.503,252.102 330.666,216.28 330.666,172.006 C330.666,127.731 366.503,91.8938 410.778,91.8938 M177.071,325.601 C221.346,325.601 257.183,361.438 257.183,405.713 C257.183,449.987 221.346,485.808 177.071,485.808 C132.796,485.808 96.7332,449.987 96.7332,405.713 C96.7332,361.438 132.796,325.601 177.071,325.601 M644.485,325.601 C688.763,325.601 724.822,361.438 724.822,405.713 C724.822,449.987 688.763,485.808 644.485,485.808 C600.21,485.808 564.373,449.987 564.373,405.713 C564.373,361.438 600.21,325.601 644.485,325.601 M396.601,335.762 L424.955,335.762 C431.754,335.762 437.245,342.538 437.245,350.891 L437.245,381.6 L467.971,381.6 C476.323,381.6 483.083,387.091 483.083,393.89 L483.083,422.245 C483.083,429.044 476.323,434.535 467.971,434.535 L437.245,434.535 L437.245,465.26 C437.245,473.612 431.754,480.373 424.955,480.373 L396.601,480.373 C389.801,480.373 384.31,473.613 384.31,465.26 L384.31,434.535 L353.585,434.535 C345.233,434.535 338.472,429.044 338.472,422.245 L338.472,393.89 C338.472,387.091 345.232,381.6 353.585,381.6 L384.31,381.6 L384.31,350.891 C384.31,342.539 389.801,335.762 396.601,335.762 M410.778,559.307 C455.052,559.307 490.89,595.371 490.89,639.645 C490.89,683.918 455.052,719.757 410.778,719.757 C366.503,719.757 330.666,683.918 330.666,639.645 C330.666,595.371 366.503,559.307 410.778,559.307 "/>
</g>

<g fill="#000000" fill-opacity="1" stroke="none" transform="matrix(0.0285,0,0,0.0285,11.2928,4.44754)"
font-family="Inter" font-size="11" font-weight="700" font-style="normal" 
>
<path vector-effect="none" fill-rule="evenodd" d="M394.961,355.661 C394.961,347.613 401.485,341.088 409.533,341.088 C417.582,341.088 424.106,347.613 424.106,355.661 L424.106,457.48 C424.106,465.528 417.582,472.053 409.533,472.053 C401.485,472.053 394.961,465.528 394.961,457.48 L394.961,355.661"/>
</g>

<g fill="none" stroke="#000000" stroke-opacity="1" stroke-width="20" stroke-linecap="round" stroke-linejoin="round" transform="matrix(0.0285,0,0,0.0285,11.2928,4.44754)"
font-family="Inter" font-size="11" font-weight="700" font-style="normal" 
>
<path vector-effect="none" fill-rule="evenodd" d="M394.961,355.661 C394.961,347.613 401.485,341.088 409.533,341.088 C417.582,341.088 424.106,347.613 424.106,355.661 L424.106,457.48 C424.106,465.528 417.582,472.053 409.533,472.053 C401.485,472.053 394.961,465.528 394.961,457.48 L394.961,355.661"/>
</g>

<g fill="#000000" fill-opacity="1" stroke="none" transform="matrix(0,0.0285,-0.0285,0,11.2928,4.44754)"
font-family="Inter" font-size="11" font-weight="700" font-style="normal" 
>
<path vector-effect="none" fill-rule="evenodd" d="M394.152,-461.016 C394.152,-469.064 400.676,-475.588 408.724,-475.588 C416.773,-475.588 423.297,-469.064 423.297,-461.016 L423.297,-359.196 C423.297,-351.148 416.773,-344.624 408.724,-344.624 C400.676,-344.624 394.152,-351.148 394.152,-359.196 L394.152,-461.016"/>
</g>

<g fill="none" stroke="#000000" stroke-opacity="1" stroke-width="20" stroke-linecap="round" stroke-linejoin="round" transform="matrix(0,0.0285,-0.0285,0,11.2928,4.44754)"
font-family="Inter" font-size="11" font-weight="700" font-style="normal" 
>
<path vector-effect="none" fill-rule="evenodd" d="M394.152,-461.016 C394.152,-469.064 400.676,-475.588 408.724,-475.588 C416.773,-475.588 423.297,-469.064 423.297,-461.016 L423.297,-359.196 C423.297,-351.148 416.773,-344.624 408.724,-344.624 C400.676,-344.624 394.152,-351.148 394.152,-359.196 L394.152,-461.016"/>
</g>

<g fill="#ffffff" fill-opacity="1" stroke="none" transform="matrix(1,0,0,1,0,0)"
font-family="Inter" font-size="11" font-weight="700" font-style="normal" 
>
</g>

<g fill="#ffffff" fill-opacity="1" stroke="#0da6c5" stroke-opacity="1" stroke-width="1" stroke-linecap="square" stroke-linejoin="bevel" transform="matrix(1,0,0,1,0,0)"
font-family="Inter" font-size="11" font-weight="700" font-style="normal" 
>
<polyline fill="none" vector-effect="none" points="45,6 45,26 " />
</g>

<g fill="#ffffff" fill-opacity="1" stroke="#0da6c5" stroke-opacity="1" stroke-width="1" stroke-linecap="square" stroke-linejoin="bevel" transform="matrix(1,0,0,1,0,0)"
font-family="Inter" font-size="11" font-weight="700" font-style="normal" 
>
</g>

<g fill="#0da6c5" fill-opacity="1" stroke="#0da6c5" stroke-opacity="1" stroke-width="1.2" stroke-linecap="square" stroke-linejoin="bevel" transform="matrix(1,0,0,1,135,4)"
font-family="Inter" font-size="11" font-weight="700" font-style="normal" 
>
<path vector-effect="none" fill-rule="evenodd" d="M0.5,12 C0.5,5.64873 5.87258,0.5 12.5,0.5 L27.5,0.5 C34.1274,0.5 39.5,5.64873 39.5,12 C39.5,18.3513 34.1274,23.5 27.5,23.5 L12.5,23.5 C5.87258,23.5 0.5,18.3513 0.5,12 "/>
</g>

<g fill="#ffffff" fill-opacity="1" stroke="none" transform="matrix(1,0,0,1,135,4)"
font-family="Inter" font-size="11" font-weight="700" font-style="normal" 
>
<path vector-effect="none" fill-rule="nonzero" d="M11.8242,16 L10.0117,16 L12.7734,8 L14.9531,8 L17.7109,16 L15.8984,16 L13.8945,9.82813 L13.832,9.82813 L11.8242,16 M11.7109,12.8555 L15.9922,12.8555 L15.9922,14.1758 L11.7109,14.1758 L11.7109,12.8555"/>
</g>

<g fill="#ffffff" fill-opacity="1" stroke="none" transform="matrix(0.03125,0,0,0.03125,161,12)"
font-family="Inter" font-size="11" font-weight="700" font-style="normal" 
>
<path vector-effect="none" fill-rule="nonzero" d="M111.326,191.938 C120.545,201.158 135.517,201.158 144.737,191.938 L239.144,97.5313 C245.929,90.7458 247.921,80.6413 244.233,71.7907 C240.545,62.9401 231.989,57.1871 222.401,57.1871 L33.5875,57.2608 C24.0731,57.2608 15.4437,63.0137 11.7559,71.8644 C8.06815,80.715 10.1333,90.8195 16.845,97.605 L111.252,192.012 L111.326,191.938"/>
</g>

<g fill="none" stroke="#000000" stroke-opacity="1" stroke-width="13.7195" stroke-linecap="butt" stroke-linejoin="miter" stroke-miterlimit="4" transform="matrix(0.03125,0,0,0.03125,161,12)"
font-family="Inter" font-size="11" font-weight="700" font-style="normal" 
>
<path vector-effect="none" fill-rule="nonzero" d="M111.326,191.938 C120.545,201.158 135.517,201.158 144.737,191.938 L239.144,97.5313 C245.929,90.7458 247.921,80.6413 244.233,71.7907 C240.545,62.9401 231.989,57.1871 222.401,57.1871 L33.5875,57.2608 C24.0731,57.2608 15.4437,63.0137 11.7559,71.8644 C8.06815,80.715 10.1333,90.8195 16.845,97.605 L111.252,192.012 L111.326,191.938"/>
</g>

<g fill="#ffffff" fill-opacity="1" stroke="none" transform="matrix(1,0,0,1,135,4)"
font-family="Inter" font-size="11" font-weight="700" font-style="normal" 
>
</g>

<g fill="#ffffff" fill-opacity="1" stroke="#0da6c5" stroke-opacity="1" stroke-width="1" stroke-linecap="square" stroke-linejoin="bevel" transform="matrix(1,0,0,1,0,0)"
font-family="Inter" font-size="11" font-weight="700" font-style="normal" 
>
</g>

<g fill="#1dccf0" fill-opacity="1" stroke="#0da6c5" stroke-opacity="1" stroke-width="1.2" stroke-linecap="square" stroke-linejoin="bevel" transform="matrix(1,0,0,1,56,4)"
font-family="Inter" font-size="11" font-weight="700" font-style="normal" 
>
<path vector-effect="none" fill-rule="evenodd" d="M0.5,3.5 C0.5,1.84315 1.84315,0.5 3.5,0.5 L71.5,0.5 C73.1569,0.5 74.5,1.84315 74.5,3.5 L74.5,20.5 C74.5,22.1569 73.1569,23.5 71.5,23.5 L3.5,23.5 C1.84315,23.5 0.5,22.1569 0.5,20.5 L0.5,3.5"/>
</g>

<g fill="#ffffff" fill-opacity="1" stroke="none" transform="matrix(1,0,0,1,56,4)"
font-family="Inter" font-size="11" font-weight="700" font-style="normal" 
>
<path vector-effect="none" fill-rule="nonzero" d="M10,9.39453 L10,8 L16.5703,8 L16.5703,9.39453 L14.1211,9.39453 L14.1211,16 L12.4492,16 L12.4492,9.39453 L10,9.39453 M17.6484,16 L17.6484,8 L19.3398,8 L19.3398,11.3008 L22.7734,11.3008 L22.7734,8 L24.4609,8 L24.4609,16 L22.7734,16 L22.7734,12.6953 L19.3398,12.6953 L19.3398,16 L17.6484,16 M32.543,8 L32.543,16 L31.082,16 L27.6016,10.9648 L27.543,10.9648 L27.543,16 L25.8516,16 L25.8516,8 L27.3359,8 L30.7891,13.0313 L30.8594,13.0313 L30.8594,8 L32.543,8 M33.9297,16 L33.9297,8 L35.6211,8 L35.6211,11.3008 L39.0547,11.3008 L39.0547,8 L40.7422,8 L40.7422,16 L39.0547,16 L39.0547,12.6953 L35.6211,12.6953 L35.6211,16 L33.9297,16 M42.1328,16 L42.1328,8 L45.3359,8 C45.9245,8 46.4154,8.08724 46.8086,8.26172 C47.2018,8.4362 47.4974,8.67773 47.6953,8.98633 C47.8932,9.29492 47.9922,9.64974 47.9922,10.0508 C47.9922,10.3633 47.9297,10.6374 47.8047,10.873 C47.6797,11.1087 47.5085,11.3014 47.291,11.4512 C47.0736,11.6009 46.8255,11.707 46.5469,11.7695 L46.5469,11.8477 C46.8516,11.8607 47.1374,11.9466 47.4043,12.1055 C47.6712,12.2643 47.888,12.4863 48.0547,12.7715 C48.2214,13.0566 48.3047,13.3958 48.3047,13.7891 C48.3047,14.2135 48.1999,14.5918 47.9902,14.9238 C47.7806,15.2559 47.4714,15.5182 47.0625,15.7109 C46.6536,15.9036 46.1497,16 45.5508,16 L42.1328,16 M43.8242,14.6172 L45.2031,14.6172 C45.6745,14.6172 46.0182,14.5267 46.2344,14.3457 C46.4505,14.1647 46.5586,13.9232 46.5586,13.6211 C46.5586,13.3997 46.5052,13.2044 46.3984,13.0352 C46.2917,12.8659 46.14,12.7331 45.9434,12.6367 C45.7467,12.5404 45.513,12.4922 45.2422,12.4922 L43.8242,12.4922 L43.8242,14.6172 M43.8242,11.3477 L45.0781,11.3477 C45.3099,11.3477 45.5163,11.3066 45.6973,11.2246 C45.8783,11.1426 46.0215,11.026 46.127,10.875 C46.2324,10.724 46.2852,10.543 46.2852,10.332 C46.2852,10.043 46.1829,9.8099 45.9785,9.63281 C45.7741,9.45573 45.4844,9.36719 45.1094,9.36719 L43.8242,9.36719 L43.8242,11.3477 M52.832,8 L52.832,16 L51.1406,16 L51.1406,9.60547 L51.0938,9.60547 L49.2617,10.7539 L49.2617,9.25391 L51.2422,8 L52.832,8"/>
</g>

<g fill="#ffffff" fill-opacity="1" stroke="none" transform="matrix(0.03125,0,0,0.03125,117,12)"
font-family="Inter" font-size="11" font-weight="700" font-style="normal" 
>
<path vector-effect="none" fill-rule="nonzero" d="M111.326,191.938 C120.545,201.158 135.517,201.158 144.737,191.938 L239.144,97.5313 C245.929,90.7458 247.921,80.6413 244.233,71.7907 C240.545,62.9401 231.989,57.1871 222.401,57.1871 L33.5875,57.2608 C24.0731,57.2608 15.4437,63.0137 11.7559,71.8644 C8.06815,80.715 10.1333,90.8195 16.845,97.605 L111.252,192.012 L111.326,191.938"/>
</g>

<g fill="none" stroke="#000000" stroke-opacity="1" stroke-width="13.7195" stroke-linecap="butt" stroke-linejoin="miter" stroke-miterlimit="4" transform="matrix(0.03125,0,0,0.03125,117,12)"
font-family="Inter" font-size="11" font-weight="700" font-style="normal" 
>
<path vector-effect="none" fill-rule="nonzero" d="M111.326,191.938 C120.545,201.158 135.517,201.158 144.737,191.938 L239.144,97.5313 C245.929,90.7458 247.921,80.6413 244.233,71.7907 C240.545,62.9401 231.989,57.1871 222.401,57.1871 L33.5875,57.2608 C24.0731,57.2608 15.4437,63.0137 11.7559,71.8644 C8.06815,80.715 10.1333,90.8195 16.845,97.605 L111.252,192.012 L111.326,191.938"/>
</g>

<g fill="#ffffff" fill-opacity="1" stroke="none" transform="matrix(1,0,0,1,56,4)"
font-family="Inter" font-size="11" font-weight="700" font-style="normal" 
>
</g>

<g fill="#ffffff" fill-opacity="1" stroke="#0da6c5" stroke-opacity="1" stroke-width="1" stroke-linecap="square" stroke-linejoin="bevel" transform="matrix(1,0,0,1,0,0)"
font-family="Inter" font-size="11" font-weight="700" font-style="normal" 
>
</g>

<g fill="#ffffff" fill-opacity="1" stroke="#0da6c5" stroke-opacity="1" stroke-width="1" stroke-linecap="square" stroke-linejoin="bevel" transform="matrix(1,0,0,1,0,0)"
font-family="Inter" font-size="11" font-weight="700" font-style="normal" 
>
</g>

<g fill="none" stroke="#000000" stroke-opacity="1" stroke-width="1" stroke-linecap="square" stroke-linejoin="bevel" transform="matrix(1,0,0,1,0,0)"
font-family=".AppleSystemUIFont" font-size="13" font-weight="400" font-style="normal" 
>
</g>
</g>
</svg>
