<?xml version="1.0" encoding="UTF-8" standalone="no"?>
<svg width="121.708mm" height="15.5222mm"
 viewBox="0 0 345 44"
 xmlns="http://www.w3.org/2000/svg" xmlns:xlink="http://www.w3.org/1999/xlink" version="1.2" baseProfile="tiny">
<title>Abstract block</title>
<desc>block_hubs_all_motors_port_start_motor_at_speed</desc>
<defs>
</defs>
<g fill="none" stroke="black" stroke-width="1" fill-rule="evenodd" stroke-linecap="square" stroke-linejoin="bevel" >

<g fill="none" stroke="#000000" stroke-opacity="1" stroke-width="1" stroke-linecap="square" stroke-linejoin="bevel" transform="matrix(1,0,0,1,0,0)"
font-family=".AppleSystemUIFont" font-size="13" font-weight="400" font-style="normal" 
>
</g>

<g fill="none" stroke="#000000" stroke-opacity="1" stroke-width="1" stroke-linecap="square" stroke-linejoin="bevel" transform="matrix(1,0,0,1,0,0)"
font-family=".AppleSystemUIFont" font-size="13" font-weight="400" font-style="normal" 
>
</g>

<g fill="#0090f5" fill-opacity="1" stroke="#0070ba" stroke-opacity="1" stroke-width="1.2" stroke-linecap="square" stroke-linejoin="bevel" transform="matrix(1,0,0,1,0,0)"
font-family=".AppleSystemUIFont" font-size="13" font-weight="400" font-style="normal" 
>
<path vector-effect="none" fill-rule="evenodd" d="M0.5,4.5 L1.04612,2.48112 L2.48112,1.04612 L4.5,0.5 L9.625,0.5 L10.416,0.976563 L11.1719,1.6875 L11.998,2.67969 L13,4 L13.7559,4.66016 L14.5469,5.15625 L15.4082,5.51172 L16.375,5.75 L17.4824,5.89453 L18.7656,5.96875 L20.2598,5.99609 L22,6 L23.7402,5.99609 L25.2344,5.96875 L26.5176,5.89453 L27.625,5.75 L28.5918,5.51172 L29.4531,5.15625 L30.2441,4.66016 L31,4 L32.002,2.67969 L32.8281,1.6875 L33.584,0.976563 L34.375,0.5 L339.9,0.5 L341.919,1.04612 L343.354,2.48112 L343.9,4.5 L343.9,31.5 L343.354,33.5189 L341.919,34.9539 L339.9,35.5 L34.375,35.5 L33.584,35.9766 L32.8281,36.6875 L32.002,37.6797 L31,39 L30.2441,39.6602 L29.4531,40.1563 L28.5918,40.5117 L27.625,40.75 L26.5176,40.8945 L25.2344,40.9688 L23.7402,40.9961 L22,41 L20.2598,40.9961 L18.7656,40.9688 L17.4824,40.8945 L16.375,40.75 L15.4082,40.5117 L14.5469,40.1563 L13.7559,39.6602 L13,39 L11.998,37.6797 L11.1719,36.6875 L10.416,35.9766 L9.625,35.5 L4.5,35.5 L2.48112,34.9539 L1.04612,33.5189 L0.5,31.5 L0.5,4.5"/>
</g>

<g fill="#ffffff" fill-opacity="1" stroke="none" transform="matrix(1,0,0,1,0,0)"
font-family="Inter" font-size="11" font-weight="700" font-style="normal" 
>
<path vector-effect="none" fill-rule="nonzero" d="M186.094,17.1641 L184.57,17.2578 C184.544,17.1276 184.488,17.0098 184.402,16.9043 C184.316,16.7988 184.204,16.7142 184.064,16.6504 C183.925,16.5866 183.759,16.5547 183.566,16.5547 C183.309,16.5547 183.091,16.6087 182.914,16.7168 C182.737,16.8249 182.648,16.9688 182.648,17.1484 C182.648,17.2917 182.706,17.4128 182.82,17.5117 C182.935,17.6107 183.132,17.6901 183.41,17.75 L184.496,17.9688 C185.079,18.0885 185.514,18.2813 185.801,18.5469 C186.087,18.8125 186.23,19.1615 186.23,19.5938 C186.23,19.987 186.115,20.332 185.885,20.6289 C185.654,20.9258 185.339,21.1569 184.939,21.3223 C184.54,21.4876 184.079,21.5703 183.559,21.5703 C182.764,21.5703 182.132,21.4043 181.662,21.0723 C181.192,20.7402 180.917,20.2878 180.836,19.7148 L182.473,19.6289 C182.522,19.8711 182.642,20.0553 182.832,20.1816 C183.022,20.3079 183.266,20.3711 183.563,20.3711 C183.854,20.3711 184.089,20.3145 184.268,20.2012 C184.446,20.0879 184.536,19.9414 184.539,19.7617 C184.536,19.6107 184.473,19.4863 184.348,19.3887 C184.223,19.291 184.03,19.2161 183.77,19.1641 L182.73,18.957 C182.145,18.8398 181.709,18.6367 181.424,18.3477 C181.139,18.0586 180.996,17.6901 180.996,17.2422 C180.996,16.8568 181.101,16.5247 181.311,16.2461 C181.52,15.9674 181.816,15.7526 182.197,15.6016 C182.579,15.4505 183.026,15.375 183.539,15.375 C184.297,15.375 184.894,15.5352 185.33,15.8555 C185.766,16.1758 186.021,16.612 186.094,17.1641 M190.465,15.4531 L190.465,16.7031 L186.852,16.7031 L186.852,15.4531 L190.465,15.4531 M187.672,14.0156 L189.336,14.0156 L189.336,19.6094 C189.336,19.763 189.359,19.8822 189.406,19.9668 C189.453,20.0514 189.519,20.1107 189.604,20.1445 C189.688,20.1784 189.786,20.1953 189.898,20.1953 C189.977,20.1953 190.055,20.1882 190.133,20.1738 C190.211,20.1595 190.271,20.1484 190.313,20.1406 L190.574,21.3789 C190.491,21.4049 190.374,21.4355 190.223,21.4707 C190.072,21.5059 189.888,21.5273 189.672,21.5352 C189.271,21.5508 188.92,21.4974 188.619,21.375 C188.318,21.2526 188.085,21.0625 187.918,20.8047 C187.751,20.5469 187.669,20.2214 187.672,19.8281 L187.672,14.0156 M193.25,21.5664 C192.867,21.5664 192.526,21.4993 192.227,21.3652 C191.927,21.2311 191.691,21.0319 191.518,20.7676 C191.344,20.5033 191.258,20.1732 191.258,19.7773 C191.258,19.444 191.319,19.1641 191.441,18.9375 C191.564,18.7109 191.73,18.5286 191.941,18.3906 C192.152,18.2526 192.393,18.1484 192.662,18.0781 C192.932,18.0078 193.215,17.9583 193.512,17.9297 C193.861,17.8932 194.142,17.8587 194.355,17.8262 C194.569,17.7936 194.724,17.7448 194.82,17.6797 C194.917,17.6146 194.965,17.5182 194.965,17.3906 L194.965,17.3672 C194.965,17.1198 194.887,16.9284 194.732,16.793 C194.577,16.6576 194.358,16.5898 194.074,16.5898 C193.775,16.5898 193.536,16.6556 193.359,16.7871 C193.182,16.9186 193.065,17.0833 193.008,17.2813 L191.469,17.1563 C191.547,16.7917 191.701,16.4759 191.93,16.209 C192.159,15.9421 192.455,15.7363 192.818,15.5918 C193.182,15.4473 193.603,15.375 194.082,15.375 C194.415,15.375 194.735,15.4141 195.041,15.4922 C195.347,15.5703 195.619,15.6914 195.857,15.8555 C196.096,16.0195 196.284,16.2298 196.422,16.4863 C196.56,16.7428 196.629,17.0495 196.629,17.4063 L196.629,21.4531 L195.051,21.4531 L195.051,20.6211 L195.004,20.6211 C194.908,20.8086 194.779,20.9733 194.617,21.1152 C194.456,21.2572 194.262,21.3678 194.035,21.4473 C193.809,21.5267 193.547,21.5664 193.25,21.5664 M193.727,20.418 C193.971,20.418 194.188,20.3691 194.375,20.2715 C194.563,20.1738 194.71,20.0417 194.816,19.875 C194.923,19.7083 194.977,19.5195 194.977,19.3086 L194.977,18.6719 C194.924,18.7057 194.854,18.7363 194.764,18.7637 C194.674,18.791 194.573,18.8158 194.461,18.8379 C194.349,18.86 194.237,18.8796 194.125,18.8965 C194.013,18.9134 193.911,18.9284 193.82,18.9414 C193.625,18.9701 193.454,19.0156 193.309,19.0781 C193.163,19.1406 193.049,19.2246 192.969,19.3301 C192.888,19.4355 192.848,19.5664 192.848,19.7227 C192.848,19.9492 192.93,20.1217 193.096,20.2402 C193.261,20.3587 193.471,20.418 193.727,20.418 M197.914,21.4531 L197.914,15.4531 L199.527,15.4531 L199.527,16.5 L199.59,16.5 C199.699,16.1276 199.883,15.8457 200.141,15.6543 C200.398,15.4629 200.695,15.3672 201.031,15.3672 C201.115,15.3672 201.204,15.3724 201.301,15.3828 C201.397,15.3932 201.482,15.4076 201.555,15.4258 L201.555,16.9023 C201.477,16.8789 201.368,16.8581 201.23,16.8398 C201.092,16.8216 200.966,16.8125 200.852,16.8125 C200.607,16.8125 200.389,16.8652 200.197,16.9707 C200.006,17.0762 199.855,17.2227 199.744,17.4102 C199.633,17.5977 199.578,17.8138 199.578,18.0586 L199.578,21.4531 L197.914,21.4531 M205.887,15.4531 L205.887,16.7031 L202.273,16.7031 L202.273,15.4531 L205.887,15.4531 M203.094,14.0156 L204.758,14.0156 L204.758,19.6094 C204.758,19.763 204.781,19.8822 204.828,19.9668 C204.875,20.0514 204.941,20.1107 205.025,20.1445 C205.11,20.1784 205.208,20.1953 205.32,20.1953 C205.398,20.1953 205.477,20.1882 205.555,20.1738 C205.633,20.1595 205.693,20.1484 205.734,20.1406 L205.996,21.3789 C205.913,21.4049 205.796,21.4355 205.645,21.4707 C205.493,21.5059 205.31,21.5273 205.094,21.5352 C204.693,21.5508 204.342,21.4974 204.041,21.375 C203.74,21.2526 203.507,21.0625 203.34,20.8047 C203.173,20.5469 203.091,20.2214 203.094,19.8281 L203.094,14.0156 M209.508,21.4531 L209.508,15.4531 L211.094,15.4531 L211.094,16.5117 L211.164,16.5117 C211.289,16.1602 211.497,15.8828 211.789,15.6797 C212.081,15.4766 212.43,15.375 212.836,15.375 C213.247,15.375 213.598,15.4772 213.887,15.6816 C214.176,15.8861 214.368,16.1628 214.465,16.5117 L214.527,16.5117 C214.65,16.168 214.872,15.8926 215.193,15.6855 C215.515,15.4785 215.896,15.375 216.336,15.375 C216.896,15.375 217.351,15.5527 217.701,15.9082 C218.051,16.2637 218.227,16.7669 218.227,17.418 L218.227,21.4531 L216.566,21.4531 L216.566,17.7461 C216.566,17.4128 216.478,17.1628 216.301,16.9961 C216.124,16.8294 215.902,16.7461 215.637,16.7461 C215.335,16.7461 215.099,16.8418 214.93,17.0332 C214.76,17.2246 214.676,17.4766 214.676,17.7891 L214.676,21.4531 L213.063,21.4531 L213.063,17.7109 C213.063,17.4167 212.979,17.1823 212.811,17.0078 C212.643,16.8333 212.422,16.7461 212.148,16.7461 C211.964,16.7461 211.798,16.7923 211.65,16.8848 C211.503,16.9772 211.387,17.1061 211.301,17.2715 C211.215,17.4368 211.172,17.6302 211.172,17.8516 L211.172,21.4531 L209.508,21.4531 M222.25,21.5703 C221.643,21.5703 221.119,21.4408 220.678,21.1816 C220.236,20.9225 219.896,20.5605 219.656,20.0957 C219.417,19.6309 219.297,19.0911 219.297,18.4766 C219.297,17.8568 219.417,17.3145 219.656,16.8496 C219.896,16.3848 220.236,16.0228 220.678,15.7637 C221.119,15.5046 221.643,15.375 222.25,15.375 C222.857,15.375 223.381,15.5046 223.822,15.7637 C224.264,16.0228 224.604,16.3848 224.844,16.8496 C225.083,17.3145 225.203,17.8568 225.203,18.4766 C225.203,19.0911 225.083,19.6309 224.844,20.0957 C224.604,20.5605 224.264,20.9225 223.822,21.1816 C223.381,21.4408 222.857,21.5703 222.25,21.5703 M222.258,20.2813 C222.534,20.2813 222.764,20.2025 222.949,20.0449 C223.134,19.8874 223.274,19.6719 223.369,19.3984 C223.464,19.125 223.512,18.8138 223.512,18.4648 C223.512,18.1159 223.464,17.8047 223.369,17.5313 C223.274,17.2578 223.134,17.0417 222.949,16.8828 C222.764,16.724 222.534,16.6445 222.258,16.6445 C221.979,16.6445 221.745,16.724 221.557,16.8828 C221.368,17.0417 221.226,17.2578 221.131,17.5313 C221.036,17.8047 220.988,18.1159 220.988,18.4648 C220.988,18.8138 221.036,19.125 221.131,19.3984 C221.226,19.6719 221.368,19.8874 221.557,20.0449 C221.745,20.2025 221.979,20.2813 222.258,20.2813 M229.48,15.4531 L229.48,16.7031 L225.867,16.7031 L225.867,15.4531 L229.48,15.4531 M226.688,14.0156 L228.352,14.0156 L228.352,19.6094 C228.352,19.763 228.375,19.8822 228.422,19.9668 C228.469,20.0514 228.535,20.1107 228.619,20.1445 C228.704,20.1784 228.802,20.1953 228.914,20.1953 C228.992,20.1953 229.07,20.1882 229.148,20.1738 C229.227,20.1595 229.286,20.1484 229.328,20.1406 L229.59,21.3789 C229.507,21.4049 229.389,21.4355 229.238,21.4707 C229.087,21.5059 228.904,21.5273 228.688,21.5352 C228.286,21.5508 227.936,21.4974 227.635,21.375 C227.334,21.2526 227.1,21.0625 226.934,20.8047 C226.767,20.5469 226.685,20.2214 226.688,19.8281 L226.688,14.0156 M233.203,21.5703 C232.596,21.5703 232.072,21.4408 231.631,21.1816 C231.189,20.9225 230.849,20.5605 230.609,20.0957 C230.37,19.6309 230.25,19.0911 230.25,18.4766 C230.25,17.8568 230.37,17.3145 230.609,16.8496 C230.849,16.3848 231.189,16.0228 231.631,15.7637 C232.072,15.5046 232.596,15.375 233.203,15.375 C233.81,15.375 234.334,15.5046 234.775,15.7637 C235.217,16.0228 235.557,16.3848 235.797,16.8496 C236.036,17.3145 236.156,17.8568 236.156,18.4766 C236.156,19.0911 236.036,19.6309 235.797,20.0957 C235.557,20.5605 235.217,20.9225 234.775,21.1816 C234.334,21.4408 233.81,21.5703 233.203,21.5703 M233.211,20.2813 C233.487,20.2813 233.717,20.2025 233.902,20.0449 C234.087,19.8874 234.227,19.6719 234.322,19.3984 C234.417,19.125 234.465,18.8138 234.465,18.4648 C234.465,18.1159 234.417,17.8047 234.322,17.5313 C234.227,17.2578 234.087,17.0417 233.902,16.8828 C233.717,16.724 233.487,16.6445 233.211,16.6445 C232.932,16.6445 232.699,16.724 232.51,16.8828 C232.321,17.0417 232.179,17.2578 232.084,17.5313 C231.989,17.8047 231.941,18.1159 231.941,18.4648 C231.941,18.8138 231.989,19.125 232.084,19.3984 C232.179,19.6719 232.321,19.8874 232.51,20.0449 C232.699,20.2025 232.932,20.2813 233.211,20.2813 M237.242,21.4531 L237.242,15.4531 L238.855,15.4531 L238.855,16.5 L238.918,16.5 C239.027,16.1276 239.211,15.8457 239.469,15.6543 C239.727,15.4629 240.023,15.3672 240.359,15.3672 C240.443,15.3672 240.533,15.3724 240.629,15.3828 C240.725,15.3932 240.81,15.4076 240.883,15.4258 L240.883,16.9023 C240.805,16.8789 240.697,16.8581 240.559,16.8398 C240.421,16.8216 240.294,16.8125 240.18,16.8125 C239.935,16.8125 239.717,16.8652 239.525,16.9707 C239.334,17.0762 239.183,17.2227 239.072,17.4102 C238.962,17.5977 238.906,17.8138 238.906,18.0586 L238.906,21.4531 L237.242,21.4531 M245.984,21.5664 C245.602,21.5664 245.26,21.4993 244.961,21.3652 C244.661,21.2311 244.425,21.0319 244.252,20.7676 C244.079,20.5033 243.992,20.1732 243.992,19.7773 C243.992,19.444 244.053,19.1641 244.176,18.9375 C244.298,18.7109 244.465,18.5286 244.676,18.3906 C244.887,18.2526 245.127,18.1484 245.396,18.0781 C245.666,18.0078 245.949,17.9583 246.246,17.9297 C246.595,17.8932 246.876,17.8587 247.09,17.8262 C247.303,17.7936 247.458,17.7448 247.555,17.6797 C247.651,17.6146 247.699,17.5182 247.699,17.3906 L247.699,17.3672 C247.699,17.1198 247.622,16.9284 247.467,16.793 C247.312,16.6576 247.092,16.5898 246.809,16.5898 C246.509,16.5898 246.271,16.6556 246.094,16.7871 C245.917,16.9186 245.799,17.0833 245.742,17.2813 L244.203,17.1563 C244.281,16.7917 244.435,16.4759 244.664,16.209 C244.893,15.9421 245.189,15.7363 245.553,15.5918 C245.916,15.4473 246.337,15.375 246.816,15.375 C247.15,15.375 247.469,15.4141 247.775,15.4922 C248.081,15.5703 248.354,15.6914 248.592,15.8555 C248.83,16.0195 249.018,16.2298 249.156,16.4863 C249.294,16.7428 249.363,17.0495 249.363,17.4063 L249.363,21.4531 L247.785,21.4531 L247.785,20.6211 L247.738,20.6211 C247.642,20.8086 247.513,20.9733 247.352,21.1152 C247.19,21.2572 246.996,21.3678 246.77,21.4473 C246.543,21.5267 246.281,21.5664 245.984,21.5664 M246.461,20.418 C246.706,20.418 246.922,20.3691 247.109,20.2715 C247.297,20.1738 247.444,20.0417 247.551,19.875 C247.658,19.7083 247.711,19.5195 247.711,19.3086 L247.711,18.6719 C247.659,18.7057 247.588,18.7363 247.498,18.7637 C247.408,18.791 247.307,18.8158 247.195,18.8379 C247.083,18.86 246.971,18.8796 246.859,18.8965 C246.747,18.9134 246.646,18.9284 246.555,18.9414 C246.359,18.9701 246.189,19.0156 246.043,19.0781 C245.897,19.1406 245.784,19.2246 245.703,19.3301 C245.622,19.4355 245.582,19.5664 245.582,19.7227 C245.582,19.9492 245.665,20.1217 245.83,20.2402 C245.995,20.3587 246.206,20.418 246.461,20.418 M253.84,15.4531 L253.84,16.7031 L250.227,16.7031 L250.227,15.4531 L253.84,15.4531 M251.047,14.0156 L252.711,14.0156 L252.711,19.6094 C252.711,19.763 252.734,19.8822 252.781,19.9668 C252.828,20.0514 252.894,20.1107 252.979,20.1445 C253.063,20.1784 253.161,20.1953 253.273,20.1953 C253.352,20.1953 253.43,20.1882 253.508,20.1738 C253.586,20.1595 253.646,20.1484 253.688,20.1406 L253.949,21.3789 C253.866,21.4049 253.749,21.4355 253.598,21.4707 C253.447,21.5059 253.263,21.5273 253.047,21.5352 C252.646,21.5508 252.295,21.4974 251.994,21.375 C251.693,21.2526 251.46,21.0625 251.293,20.8047 C251.126,20.5469 251.044,20.2214 251.047,19.8281 L251.047,14.0156"/>
</g>

<g fill="#ffffff" fill-opacity="1" stroke="none" transform="matrix(1,0,0,1,0,0)"
font-family="Inter" font-size="11" font-weight="700" font-style="normal" 
>
<path vector-effect="none" fill-rule="nonzero" d="M296.543,19.4688 L296.543,19.0469 C296.543,18.7266 296.611,18.4316 296.748,18.1621 C296.885,17.8926 297.084,17.6764 297.346,17.5137 C297.607,17.3509 297.927,17.2695 298.305,17.2695 C298.688,17.2695 299.01,17.3503 299.271,17.5117 C299.533,17.6732 299.731,17.8887 299.865,18.1582 C299.999,18.4277 300.066,18.724 300.066,19.0469 L300.066,19.4688 C300.066,19.7891 299.999,20.084 299.863,20.3535 C299.728,20.623 299.529,20.8392 299.266,21.002 C299.003,21.1647 298.682,21.2461 298.305,21.2461 C297.922,21.2461 297.6,21.1647 297.34,21.002 C297.079,20.8392 296.882,20.623 296.746,20.3535 C296.611,20.084 296.543,19.7891 296.543,19.4688 M297.68,19.0469 L297.68,19.4688 C297.68,19.6536 297.725,19.8281 297.814,19.9922 C297.904,20.1563 298.068,20.2383 298.305,20.2383 C298.542,20.2383 298.704,20.1576 298.791,19.9961 C298.878,19.8346 298.922,19.6589 298.922,19.4688 L298.922,19.0469 C298.922,18.8568 298.88,18.6797 298.797,18.5156 C298.714,18.3516 298.549,18.2695 298.305,18.2695 C298.07,18.2695 297.908,18.3516 297.816,18.5156 C297.725,18.6797 297.68,18.8568 297.68,19.0469 M292.438,14.8906 L292.438,14.4688 C292.438,14.1458 292.507,13.8496 292.645,13.5801 C292.783,13.3105 292.982,13.0951 293.244,12.9336 C293.506,12.7721 293.823,12.6914 294.195,12.6914 C294.581,12.6914 294.904,12.7721 295.164,12.9336 C295.424,13.0951 295.622,13.3105 295.758,13.5801 C295.893,13.8496 295.961,14.1458 295.961,14.4688 L295.961,14.8906 C295.961,15.2135 295.893,15.5091 295.756,15.7773 C295.619,16.0456 295.42,16.2598 295.158,16.4199 C294.896,16.5801 294.576,16.6602 294.195,16.6602 C293.815,16.6602 293.494,16.5788 293.232,16.416 C292.971,16.2533 292.773,16.0384 292.639,15.7715 C292.505,15.5046 292.438,15.2109 292.438,14.8906 M293.582,14.4688 L293.582,14.8906 C293.582,15.0807 293.627,15.2565 293.717,15.418 C293.807,15.5794 293.966,15.6602 294.195,15.6602 C294.435,15.6602 294.598,15.5794 294.686,15.418 C294.773,15.2565 294.816,15.0807 294.816,14.8906 L294.816,14.4688 C294.816,14.2786 294.775,14.1016 294.691,13.9375 C294.608,13.7734 294.443,13.6914 294.195,13.6914 C293.964,13.6914 293.803,13.7747 293.715,13.9414 C293.626,14.1081 293.582,14.2839 293.582,14.4688 M292.953,20.9688 L298.453,12.9688 L299.477,12.9688 L293.977,20.9688 L292.953,20.9688 M309.172,16.6797 L307.648,16.7734 C307.622,16.6432 307.566,16.5254 307.48,16.4199 C307.395,16.3145 307.282,16.2298 307.143,16.166 C307.003,16.1022 306.837,16.0703 306.645,16.0703 C306.387,16.0703 306.169,16.1243 305.992,16.2324 C305.815,16.3405 305.727,16.4844 305.727,16.6641 C305.727,16.8073 305.784,16.9284 305.898,17.0273 C306.013,17.1263 306.21,17.2057 306.488,17.2656 L307.574,17.4844 C308.158,17.6042 308.592,17.7969 308.879,18.0625 C309.165,18.3281 309.309,18.6771 309.309,19.1094 C309.309,19.5026 309.193,19.8477 308.963,20.1445 C308.732,20.4414 308.417,20.6725 308.018,20.8379 C307.618,21.0033 307.158,21.0859 306.637,21.0859 C305.842,21.0859 305.21,20.9199 304.74,20.5879 C304.27,20.2559 303.995,19.8034 303.914,19.2305 L305.551,19.1445 C305.6,19.3867 305.72,19.571 305.91,19.6973 C306.1,19.8236 306.344,19.8867 306.641,19.8867 C306.932,19.8867 307.167,19.8301 307.346,19.7168 C307.524,19.6035 307.615,19.457 307.617,19.2773 C307.615,19.1263 307.551,19.002 307.426,18.9043 C307.301,18.8066 307.108,18.7318 306.848,18.6797 L305.809,18.4727 C305.223,18.3555 304.787,18.1523 304.502,17.8633 C304.217,17.5742 304.074,17.2057 304.074,16.7578 C304.074,16.3724 304.179,16.0404 304.389,15.7617 C304.598,15.4831 304.894,15.2682 305.275,15.1172 C305.657,14.9661 306.104,14.8906 306.617,14.8906 C307.375,14.8906 307.972,15.0508 308.408,15.3711 C308.844,15.6914 309.099,16.1276 309.172,16.6797 M310.352,23.2188 L310.352,14.9688 L311.992,14.9688 L311.992,15.9766 L312.066,15.9766 C312.139,15.8151 312.245,15.6504 312.385,15.4824 C312.524,15.3145 312.706,15.1738 312.932,15.0605 C313.157,14.9473 313.438,14.8906 313.773,14.8906 C314.211,14.8906 314.615,15.0046 314.984,15.2324 C315.354,15.4603 315.65,15.8027 315.871,16.2598 C316.092,16.7168 316.203,17.2891 316.203,17.9766 C316.203,18.6458 316.096,19.2103 315.881,19.6699 C315.666,20.1296 315.374,20.4772 315.006,20.7129 C314.637,20.9486 314.225,21.0664 313.77,21.0664 C313.447,21.0664 313.173,21.013 312.947,20.9063 C312.722,20.7995 312.538,20.6647 312.395,20.502 C312.251,20.3392 312.142,20.1745 312.066,20.0078 L312.016,20.0078 L312.016,23.2188 L310.352,23.2188 M311.98,17.9688 C311.98,18.3255 312.03,18.6367 312.129,18.9023 C312.228,19.168 312.371,19.3743 312.559,19.5215 C312.746,19.6686 312.974,19.7422 313.242,19.7422 C313.513,19.7422 313.742,19.6673 313.93,19.5176 C314.117,19.3678 314.26,19.1595 314.357,18.8926 C314.455,18.6257 314.504,18.3177 314.504,17.9688 C314.504,17.6224 314.456,17.3177 314.359,17.0547 C314.263,16.7917 314.121,16.5859 313.934,16.4375 C313.746,16.2891 313.516,16.2148 313.242,16.2148 C312.971,16.2148 312.743,16.2865 312.557,16.4297 C312.37,16.5729 312.228,16.776 312.129,17.0391 C312.03,17.3021 311.98,17.612 311.98,17.9688 M320.039,21.0859 C319.422,21.0859 318.891,20.9603 318.447,20.709 C318.003,20.4577 317.661,20.1009 317.422,19.6387 C317.182,19.1764 317.063,18.6289 317.063,17.9961 C317.063,17.3789 317.182,16.8372 317.422,16.3711 C317.661,15.9049 317.999,15.5417 318.436,15.2813 C318.872,15.0208 319.384,14.8906 319.973,14.8906 C320.368,14.8906 320.738,14.9538 321.08,15.0801 C321.423,15.2064 321.722,15.3958 321.979,15.6484 C322.235,15.901 322.435,16.2181 322.578,16.5996 C322.721,16.9811 322.793,17.4271 322.793,17.9375 L322.793,18.3945 L317.727,18.3945 L317.727,17.3633 L321.227,17.3633 C321.227,17.1237 321.174,16.9115 321.07,16.7266 C320.966,16.5417 320.822,16.3965 320.639,16.291 C320.455,16.1855 320.242,16.1328 320,16.1328 C319.747,16.1328 319.524,16.1908 319.33,16.3066 C319.136,16.4225 318.984,16.5775 318.875,16.7715 C318.766,16.9655 318.71,17.181 318.707,17.418 L318.707,18.3984 C318.707,18.6953 318.762,18.9518 318.873,19.168 C318.984,19.3841 319.141,19.5508 319.344,19.668 C319.547,19.7852 319.788,19.8438 320.066,19.8438 C320.251,19.8438 320.421,19.8177 320.574,19.7656 C320.728,19.7135 320.859,19.6354 320.969,19.5313 C321.078,19.4271 321.161,19.2995 321.219,19.1484 L322.758,19.25 C322.68,19.6198 322.52,19.9421 322.279,20.2168 C322.038,20.4915 321.729,20.7051 321.35,20.8574 C320.971,21.0098 320.534,21.0859 320.039,21.0859 M326.602,21.0859 C325.984,21.0859 325.454,20.9603 325.01,20.709 C324.566,20.4577 324.224,20.1009 323.984,19.6387 C323.745,19.1764 323.625,18.6289 323.625,17.9961 C323.625,17.3789 323.745,16.8372 323.984,16.3711 C324.224,15.9049 324.562,15.5417 324.998,15.2813 C325.434,15.0208 325.947,14.8906 326.535,14.8906 C326.931,14.8906 327.3,14.9538 327.643,15.0801 C327.985,15.2064 328.285,15.3958 328.541,15.6484 C328.798,15.901 328.997,16.2181 329.141,16.5996 C329.284,16.9811 329.355,17.4271 329.355,17.9375 L329.355,18.3945 L324.289,18.3945 L324.289,17.3633 L327.789,17.3633 C327.789,17.1237 327.737,16.9115 327.633,16.7266 C327.529,16.5417 327.385,16.3965 327.201,16.291 C327.018,16.1855 326.805,16.1328 326.563,16.1328 C326.31,16.1328 326.087,16.1908 325.893,16.3066 C325.699,16.4225 325.547,16.5775 325.438,16.7715 C325.328,16.9655 325.272,17.181 325.27,17.418 L325.27,18.3984 C325.27,18.6953 325.325,18.9518 325.436,19.168 C325.546,19.3841 325.703,19.5508 325.906,19.668 C326.109,19.7852 326.35,19.8438 326.629,19.8438 C326.814,19.8438 326.983,19.8177 327.137,19.7656 C327.29,19.7135 327.422,19.6354 327.531,19.5313 C327.641,19.4271 327.724,19.2995 327.781,19.1484 L329.32,19.25 C329.242,19.6198 329.083,19.9421 328.842,20.2168 C328.601,20.4915 328.291,20.7051 327.912,20.8574 C327.533,21.0098 327.096,21.0859 326.602,21.0859 M332.641,21.0664 C332.185,21.0664 331.773,20.9486 331.404,20.7129 C331.036,20.4772 330.744,20.1296 330.529,19.6699 C330.314,19.2103 330.207,18.6458 330.207,17.9766 C330.207,17.2891 330.318,16.7168 330.539,16.2598 C330.76,15.8027 331.055,15.4603 331.424,15.2324 C331.792,15.0046 332.197,14.8906 332.637,14.8906 C332.973,14.8906 333.253,14.9473 333.479,15.0605 C333.704,15.1738 333.886,15.3145 334.025,15.4824 C334.165,15.6504 334.271,15.8151 334.344,15.9766 L334.395,15.9766 L334.395,12.9688 L336.055,12.9688 L336.055,20.9688 L334.414,20.9688 L334.414,20.0078 L334.344,20.0078 C334.266,20.1745 334.156,20.3392 334.014,20.502 C333.872,20.6647 333.688,20.7995 333.463,20.9063 C333.238,21.013 332.964,21.0664 332.641,21.0664 M333.168,19.7422 C333.436,19.7422 333.663,19.6686 333.85,19.5215 C334.036,19.3743 334.179,19.168 334.279,18.9023 C334.38,18.6367 334.43,18.3255 334.43,17.9688 C334.43,17.612 334.38,17.3021 334.281,17.0391 C334.182,16.776 334.039,16.5729 333.852,16.4297 C333.664,16.2865 333.436,16.2148 333.168,16.2148 C332.895,16.2148 332.664,16.2891 332.477,16.4375 C332.289,16.5859 332.147,16.7917 332.051,17.0547 C331.954,17.3177 331.906,17.6224 331.906,17.9688 C331.906,18.3177 331.955,18.6257 332.053,18.8926 C332.15,19.1595 332.292,19.3678 332.479,19.5176 C332.665,19.6673 332.895,19.7422 333.168,19.7422 "/>
</g>

<g fill="#ffffff" fill-opacity="1" stroke="none" transform="matrix(0.0285,0,0,0.0285,11.2928,9.44754)"
font-family="Inter" font-size="11" font-weight="700" font-style="normal" 
>
<path vector-effect="none" fill-rule="nonzero" d="M410.778,59.991 C376.729,59.991 346.629,75.6235 326.182,99.684 C216.768,129.689 131.433,215.271 101.927,324.891 C79.5232,345.494 65.3275,374.762 65.54,407.6 C65.7463,439.573 79.3407,468.172 100.975,488.421 C130.228,601.34 218.744,689.335 331.859,718.096 C331.956,718.125 331.989,718.313 332.085,718.338 C352.242,738.376 380.064,750.708 410.778,750.708 C441.492,750.708 469.314,738.376 489.47,718.338 C489.549,718.262 489.618,718.17 489.696,718.096 C604.323,688.948 693.738,598.994 721.758,483.921 C742.939,463.42 756.216,434.907 756.015,403.1 C755.801,370.079 741.086,340.899 718.209,320.633 C687.622,213.077 603.338,129.291 495.373,99.684 C474.926,75.6235 444.827,59.991 410.778,59.991 M410.778,91.8938 C455.052,91.8938 490.89,127.731 490.89,172.006 C490.89,216.28 455.052,252.102 410.778,252.102 C366.503,252.102 330.666,216.28 330.666,172.006 C330.666,127.731 366.503,91.8938 410.778,91.8938 M177.071,325.601 C221.346,325.601 257.183,361.438 257.183,405.713 C257.183,449.987 221.346,485.808 177.071,485.808 C132.796,485.808 96.7332,449.987 96.7332,405.713 C96.7332,361.438 132.796,325.601 177.071,325.601 M644.485,325.601 C688.763,325.601 724.822,361.438 724.822,405.713 C724.822,449.987 688.763,485.808 644.485,485.808 C600.21,485.808 564.373,449.987 564.373,405.713 C564.373,361.438 600.21,325.601 644.485,325.601 M396.601,335.762 L424.955,335.762 C431.754,335.762 437.245,342.538 437.245,350.891 L437.245,381.6 L467.971,381.6 C476.323,381.6 483.083,387.091 483.083,393.89 L483.083,422.245 C483.083,429.044 476.323,434.535 467.971,434.535 L437.245,434.535 L437.245,465.26 C437.245,473.612 431.754,480.373 424.955,480.373 L396.601,480.373 C389.801,480.373 384.31,473.613 384.31,465.26 L384.31,434.535 L353.585,434.535 C345.233,434.535 338.472,429.044 338.472,422.245 L338.472,393.89 C338.472,387.091 345.232,381.6 353.585,381.6 L384.31,381.6 L384.31,350.891 C384.31,342.539 389.801,335.762 396.601,335.762 M410.778,559.307 C455.052,559.307 490.89,595.371 490.89,639.645 C490.89,683.918 455.052,719.757 410.778,719.757 C366.503,719.757 330.666,683.918 330.666,639.645 C330.666,595.371 366.503,559.307 410.778,559.307 "/>
</g>

<g fill="none" stroke="#000000" stroke-opacity="1" stroke-width="22.7975" stroke-linecap="round" stroke-linejoin="round" transform="matrix(0.0285,0,0,0.0285,11.2928,9.44754)"
font-family="Inter" font-size="11" font-weight="700" font-style="normal" 
>
<path vector-effect="none" fill-rule="nonzero" d="M410.778,59.991 C376.729,59.991 346.629,75.6235 326.182,99.684 C216.768,129.689 131.433,215.271 101.927,324.891 C79.5232,345.494 65.3275,374.762 65.54,407.6 C65.7463,439.573 79.3407,468.172 100.975,488.421 C130.228,601.34 218.744,689.335 331.859,718.096 C331.956,718.125 331.989,718.313 332.085,718.338 C352.242,738.376 380.064,750.708 410.778,750.708 C441.492,750.708 469.314,738.376 489.47,718.338 C489.549,718.262 489.618,718.17 489.696,718.096 C604.323,688.948 693.738,598.994 721.758,483.921 C742.939,463.42 756.216,434.907 756.015,403.1 C755.801,370.079 741.086,340.899 718.209,320.633 C687.622,213.077 603.338,129.291 495.373,99.684 C474.926,75.6235 444.827,59.991 410.778,59.991 M410.778,91.8938 C455.052,91.8938 490.89,127.731 490.89,172.006 C490.89,216.28 455.052,252.102 410.778,252.102 C366.503,252.102 330.666,216.28 330.666,172.006 C330.666,127.731 366.503,91.8938 410.778,91.8938 M177.071,325.601 C221.346,325.601 257.183,361.438 257.183,405.713 C257.183,449.987 221.346,485.808 177.071,485.808 C132.796,485.808 96.7332,449.987 96.7332,405.713 C96.7332,361.438 132.796,325.601 177.071,325.601 M644.485,325.601 C688.763,325.601 724.822,361.438 724.822,405.713 C724.822,449.987 688.763,485.808 644.485,485.808 C600.21,485.808 564.373,449.987 564.373,405.713 C564.373,361.438 600.21,325.601 644.485,325.601 M396.601,335.762 L424.955,335.762 C431.754,335.762 437.245,342.538 437.245,350.891 L437.245,381.6 L467.971,381.6 C476.323,381.6 483.083,387.091 483.083,393.89 L483.083,422.245 C483.083,429.044 476.323,434.535 467.971,434.535 L437.245,434.535 L437.245,465.26 C437.245,473.612 431.754,480.373 424.955,480.373 L396.601,480.373 C389.801,480.373 384.31,473.613 384.31,465.26 L384.31,434.535 L353.585,434.535 C345.233,434.535 338.472,429.044 338.472,422.245 L338.472,393.89 C338.472,387.091 345.232,381.6 353.585,381.6 L384.31,381.6 L384.31,350.891 C384.31,342.539 389.801,335.762 396.601,335.762 M410.778,559.307 C455.052,559.307 490.89,595.371 490.89,639.645 C490.89,683.918 455.052,719.757 410.778,719.757 C366.503,719.757 330.666,683.918 330.666,639.645 C330.666,595.371 366.503,559.307 410.778,559.307 "/>
</g>

<g fill="#000000" fill-opacity="1" stroke="none" transform="matrix(0.0285,0,0,0.0285,11.2928,9.44754)"
font-family="Inter" font-size="11" font-weight="700" font-style="normal" 
>
<path vector-effect="none" fill-rule="evenodd" d="M394.961,355.661 C394.961,347.613 401.485,341.088 409.533,341.088 C417.582,341.088 424.106,347.613 424.106,355.661 L424.106,457.48 C424.106,465.528 417.582,472.053 409.533,472.053 C401.485,472.053 394.961,465.528 394.961,457.48 L394.961,355.661"/>
</g>

<g fill="none" stroke="#000000" stroke-opacity="1" stroke-width="20" stroke-linecap="round" stroke-linejoin="round" transform="matrix(0.0285,0,0,0.0285,11.2928,9.44754)"
font-family="Inter" font-size="11" font-weight="700" font-style="normal" 
>
<path vector-effect="none" fill-rule="evenodd" d="M394.961,355.661 C394.961,347.613 401.485,341.088 409.533,341.088 C417.582,341.088 424.106,347.613 424.106,355.661 L424.106,457.48 C424.106,465.528 417.582,472.053 409.533,472.053 C401.485,472.053 394.961,465.528 394.961,457.48 L394.961,355.661"/>
</g>

<g fill="#000000" fill-opacity="1" stroke="none" transform="matrix(0,0.0285,-0.0285,0,11.2928,9.44754)"
font-family="Inter" font-size="11" font-weight="700" font-style="normal" 
>
<path vector-effect="none" fill-rule="evenodd" d="M394.152,-461.016 C394.152,-469.064 400.676,-475.588 408.724,-475.588 C416.773,-475.588 423.297,-469.064 423.297,-461.016 L423.297,-359.196 C423.297,-351.148 416.773,-344.624 408.724,-344.624 C400.676,-344.624 394.152,-351.148 394.152,-359.196 L394.152,-461.016"/>
</g>

<g fill="none" stroke="#000000" stroke-opacity="1" stroke-width="20" stroke-linecap="round" stroke-linejoin="round" transform="matrix(0,0.0285,-0.0285,0,11.2928,9.44754)"
font-family="Inter" font-size="11" font-weight="700" font-style="normal" 
>
<path vector-effect="none" fill-rule="evenodd" d="M394.152,-461.016 C394.152,-469.064 400.676,-475.588 408.724,-475.588 C416.773,-475.588 423.297,-469.064 423.297,-461.016 L423.297,-359.196 C423.297,-351.148 416.773,-344.624 408.724,-344.624 C400.676,-344.624 394.152,-351.148 394.152,-359.196 L394.152,-461.016"/>
</g>

<g fill="#ffffff" fill-opacity="1" stroke="none" transform="matrix(1,0,0,1,0,0)"
font-family="Inter" font-size="11" font-weight="700" font-style="normal" 
>
</g>

<g fill="#ffffff" fill-opacity="1" stroke="#0070ba" stroke-opacity="1" stroke-width="1" stroke-linecap="square" stroke-linejoin="bevel" transform="matrix(1,0,0,1,0,0)"
font-family="Inter" font-size="11" font-weight="700" font-style="normal" 
>
<polyline fill="none" vector-effect="none" points="45,11 45,31 " />
</g>

<g fill="#ffffff" fill-opacity="1" stroke="#0070ba" stroke-opacity="1" stroke-width="1" stroke-linecap="square" stroke-linejoin="bevel" transform="matrix(1,0,0,1,0,0)"
font-family="Inter" font-size="11" font-weight="700" font-style="normal" 
>
</g>

<g fill="#ffffff" fill-opacity="1" stroke="#0070ba" stroke-opacity="1" stroke-width="1" stroke-linecap="square" stroke-linejoin="bevel" transform="matrix(1,0,0,1,0,0)"
font-family="Inter" font-size="11" font-weight="700" font-style="normal" 
>
</g>

<g fill="#ffffff" fill-opacity="1" stroke="#0070ba" stroke-opacity="1" stroke-width="1" stroke-linecap="square" stroke-linejoin="bevel" transform="matrix(1,0,0,1,0,0)"
font-family="Inter" font-size="11" font-weight="700" font-style="normal" 
>
</g>

<g fill="#ffffff" fill-opacity="1" stroke="#0064a6" stroke-opacity="1" stroke-width="1.2" stroke-linecap="square" stroke-linejoin="bevel" transform="matrix(1,0,0,1,260,7)"
font-family="Inter" font-size="11" font-weight="700" font-style="normal" 
>
<path vector-effect="none" fill-rule="evenodd" d="M1,11 C1,5.47715 5.92487,1 12,1 L14.4,1 C20.4751,1 25.4,5.47715 25.4,11 C25.4,16.5228 20.4751,21 14.4,21 L12,21 C5.92487,21 1,16.5228 1,11 "/>
</g>

<g fill="#000000" fill-opacity="1" stroke="none" transform="matrix(1,0,0,1,260,7)"
font-family="Inter" font-size="10" font-weight="700" font-style="normal" 
>
<path vector-effect="none" fill-rule="nonzero" d="M9.69886,14.5213 C9.19697,14.5213 8.75012,14.429 8.35831,14.2443 C7.9665,14.0597 7.65578,13.8052 7.42614,13.4808 C7.1965,13.1565 7.07694,12.7848 7.06747,12.3658 L8.55895,12.3658 C8.57552,12.6475 8.69389,12.8759 8.91406,13.0511 C9.13423,13.2263 9.39583,13.3139 9.69886,13.3139 C9.94034,13.3139 10.154,13.2601 10.3398,13.1523 C10.5257,13.0446 10.6713,12.8943 10.7766,12.7013 C10.882,12.5084 10.9347,12.2865 10.9347,12.0355 C10.9347,11.7798 10.8808,11.5549 10.7731,11.3608 C10.6654,11.1667 10.5168,11.0152 10.3274,10.9063 C10.138,10.7973 9.9214,10.7417 9.67756,10.7393 C9.46449,10.7393 9.25793,10.7831 9.05788,10.8707 C8.85784,10.9583 8.70218,11.0779 8.59091,11.2294 L7.22372,10.9844 L7.56818,7.14915 L12.0142,7.14915 L12.0142,8.40625 L8.83594,8.40625 L8.64773,10.228 L8.69034,10.228 C8.81818,10.0481 9.01113,9.89891 9.26918,9.78054 C9.52723,9.66217 9.81605,9.60298 10.1357,9.60298 C10.5736,9.60298 10.9643,9.70597 11.3075,9.91193 C11.6508,10.1179 11.9219,10.4002 12.1207,10.7589 C12.3196,11.1175 12.4179,11.5301 12.4155,11.9964 C12.4179,12.4865 12.3048,12.9215 12.0763,13.3015 C11.8479,13.6815 11.5295,13.9798 11.1211,14.1964 C10.7127,14.413 10.2386,14.5213 9.69886,14.5213 M16.3317,14.5817 C15.7209,14.5793 15.1959,14.429 14.7567,14.1307 C14.3176,13.8324 13.9802,13.4003 13.7447,12.8345 C13.5091,12.2687 13.3925,11.5881 13.3949,10.7926 C13.3949,9.99953 13.5127,9.32363 13.7482,8.76491 C13.9838,8.2062 14.3211,7.78066 14.7603,7.48828 C15.1995,7.1959 15.7232,7.04972 16.3317,7.04972 C16.9401,7.04972 17.4639,7.1965 17.9031,7.49006 C18.3422,7.78362 18.6802,8.20916 18.9169,8.76669 C19.1536,9.32422 19.2708,9.99953 19.2685,10.7926 C19.2685,11.5904 19.1507,12.2723 18.9151,12.8381 C18.6796,13.4039 18.3428,13.8359 17.9048,14.1342 C17.4669,14.4325 16.9425,14.5817 16.3317,14.5817 M16.3317,13.3068 C16.7483,13.3068 17.081,13.0973 17.3295,12.6783 C17.5781,12.2592 17.7012,11.6307 17.6989,10.7926 C17.6989,10.241 17.6426,9.78172 17.5302,9.41477 C17.4177,9.04782 17.2591,8.77202 17.0543,8.58736 C16.8496,8.4027 16.6087,8.31037 16.3317,8.31037 C15.9174,8.31037 15.5859,8.51752 15.3374,8.93182 C15.0888,9.34612 14.9633,9.96638 14.9609,10.7926 C14.9609,11.3513 15.0172,11.8171 15.1296,12.19 C15.2421,12.5629 15.4013,12.8422 15.6072,13.0281 C15.8132,13.2139 16.0547,13.3068 16.3317,13.3068 "/>
</g>

<g fill="#ffffff" fill-opacity="1" stroke="#0070ba" stroke-opacity="1" stroke-width="1" stroke-linecap="square" stroke-linejoin="bevel" transform="matrix(1,0,0,1,0,0)"
font-family="Inter" font-size="11" font-weight="700" font-style="normal" 
>
</g>

<g fill="#0090f5" fill-opacity="1" stroke="#0070ba" stroke-opacity="1" stroke-width="1.2" stroke-linecap="square" stroke-linejoin="bevel" transform="matrix(1,0,0,1,56,6)"
font-family="Inter" font-size="11" font-weight="700" font-style="normal" 
>
<path vector-effect="none" fill-rule="evenodd" d="M0.5,3.5 C0.5,1.84315 1.84315,0.5 3.5,0.5 L71.5,0.5 C73.1569,0.5 74.5,1.84315 74.5,3.5 L74.5,20.5 C74.5,22.1569 73.1569,23.5 71.5,23.5 L3.5,23.5 C1.84315,23.5 0.5,22.1569 0.5,20.5 L0.5,3.5"/>
</g>

<g fill="#ffffff" fill-opacity="1" stroke="none" transform="matrix(1,0,0,1,56,6)"
font-family="Inter" font-size="11" font-weight="700" font-style="normal" 
>
<path vector-effect="none" fill-rule="nonzero" d="M10,9.39453 L10,8 L16.5703,8 L16.5703,9.39453 L14.1211,9.39453 L14.1211,16 L12.4492,16 L12.4492,9.39453 L10,9.39453 M17.6484,16 L17.6484,8 L19.3398,8 L19.3398,11.3008 L22.7734,11.3008 L22.7734,8 L24.4609,8 L24.4609,16 L22.7734,16 L22.7734,12.6953 L19.3398,12.6953 L19.3398,16 L17.6484,16 M32.543,8 L32.543,16 L31.082,16 L27.6016,10.9648 L27.543,10.9648 L27.543,16 L25.8516,16 L25.8516,8 L27.3359,8 L30.7891,13.0313 L30.8594,13.0313 L30.8594,8 L32.543,8 M33.9297,16 L33.9297,8 L35.6211,8 L35.6211,11.3008 L39.0547,11.3008 L39.0547,8 L40.7422,8 L40.7422,16 L39.0547,16 L39.0547,12.6953 L35.6211,12.6953 L35.6211,16 L33.9297,16 M42.1328,16 L42.1328,8 L45.3359,8 C45.9245,8 46.4154,8.08724 46.8086,8.26172 C47.2018,8.4362 47.4974,8.67773 47.6953,8.98633 C47.8932,9.29492 47.9922,9.64974 47.9922,10.0508 C47.9922,10.3633 47.9297,10.6374 47.8047,10.873 C47.6797,11.1087 47.5085,11.3014 47.291,11.4512 C47.0736,11.6009 46.8255,11.707 46.5469,11.7695 L46.5469,11.8477 C46.8516,11.8607 47.1374,11.9466 47.4043,12.1055 C47.6712,12.2643 47.888,12.4863 48.0547,12.7715 C48.2214,13.0566 48.3047,13.3958 48.3047,13.7891 C48.3047,14.2135 48.1999,14.5918 47.9902,14.9238 C47.7806,15.2559 47.4714,15.5182 47.0625,15.7109 C46.6536,15.9036 46.1497,16 45.5508,16 L42.1328,16 M43.8242,14.6172 L45.2031,14.6172 C45.6745,14.6172 46.0182,14.5267 46.2344,14.3457 C46.4505,14.1647 46.5586,13.9232 46.5586,13.6211 C46.5586,13.3997 46.5052,13.2044 46.3984,13.0352 C46.2917,12.8659 46.14,12.7331 45.9434,12.6367 C45.7467,12.5404 45.513,12.4922 45.2422,12.4922 L43.8242,12.4922 L43.8242,14.6172 M43.8242,11.3477 L45.0781,11.3477 C45.3099,11.3477 45.5163,11.3066 45.6973,11.2246 C45.8783,11.1426 46.0215,11.026 46.127,10.875 C46.2324,10.724 46.2852,10.543 46.2852,10.332 C46.2852,10.043 46.1829,9.8099 45.9785,9.63281 C45.7741,9.45573 45.4844,9.36719 45.1094,9.36719 L43.8242,9.36719 L43.8242,11.3477 M52.832,8 L52.832,16 L51.1406,16 L51.1406,9.60547 L51.0938,9.60547 L49.2617,10.7539 L49.2617,9.25391 L51.2422,8 L52.832,8"/>
</g>

<g fill="#ffffff" fill-opacity="1" stroke="none" transform="matrix(0.03125,0,0,0.03125,117,14)"
font-family="Inter" font-size="11" font-weight="700" font-style="normal" 
>
<path vector-effect="none" fill-rule="nonzero" d="M111.326,191.938 C120.545,201.158 135.517,201.158 144.737,191.938 L239.144,97.5313 C245.929,90.7458 247.921,80.6413 244.233,71.7907 C240.545,62.9401 231.989,57.1871 222.401,57.1871 L33.5875,57.2608 C24.0731,57.2608 15.4437,63.0137 11.7559,71.8644 C8.06815,80.715 10.1333,90.8195 16.845,97.605 L111.252,192.012 L111.326,191.938"/>
</g>

<g fill="none" stroke="#000000" stroke-opacity="1" stroke-width="13.7195" stroke-linecap="butt" stroke-linejoin="miter" stroke-miterlimit="4" transform="matrix(0.03125,0,0,0.03125,117,14)"
font-family="Inter" font-size="11" font-weight="700" font-style="normal" 
>
<path vector-effect="none" fill-rule="nonzero" d="M111.326,191.938 C120.545,201.158 135.517,201.158 144.737,191.938 L239.144,97.5313 C245.929,90.7458 247.921,80.6413 244.233,71.7907 C240.545,62.9401 231.989,57.1871 222.401,57.1871 L33.5875,57.2608 C24.0731,57.2608 15.4437,63.0137 11.7559,71.8644 C8.06815,80.715 10.1333,90.8195 16.845,97.605 L111.252,192.012 L111.326,191.938"/>
</g>

<g fill="#ffffff" fill-opacity="1" stroke="none" transform="matrix(1,0,0,1,56,6)"
font-family="Inter" font-size="11" font-weight="700" font-style="normal" 
>
</g>

<g fill="#ffffff" fill-opacity="1" stroke="#0070ba" stroke-opacity="1" stroke-width="1" stroke-linecap="square" stroke-linejoin="bevel" transform="matrix(1,0,0,1,0,0)"
font-family="Inter" font-size="11" font-weight="700" font-style="normal" 
>
</g>

<g fill="#0070ba" fill-opacity="1" stroke="#0070ba" stroke-opacity="1" stroke-width="1.2" stroke-linecap="square" stroke-linejoin="bevel" transform="matrix(1,0,0,1,135,6)"
font-family="Inter" font-size="11" font-weight="700" font-style="normal" 
>
<path vector-effect="none" fill-rule="evenodd" d="M0.5,12 C0.5,5.64873 5.87258,0.5 12.5,0.5 L27.5,0.5 C34.1274,0.5 39.5,5.64873 39.5,12 C39.5,18.3513 34.1274,23.5 27.5,23.5 L12.5,23.5 C5.87258,23.5 0.5,18.3513 0.5,12 "/>
</g>

<g fill="#ffffff" fill-opacity="1" stroke="none" transform="matrix(1,0,0,1,135,6)"
font-family="Inter" font-size="11" font-weight="700" font-style="normal" 
>
<path vector-effect="none" fill-rule="nonzero" d="M11.8242,16 L10.0117,16 L12.7734,8 L14.9531,8 L17.7109,16 L15.8984,16 L13.8945,9.82813 L13.832,9.82813 L11.8242,16 M11.7109,12.8555 L15.9922,12.8555 L15.9922,14.1758 L11.7109,14.1758 L11.7109,12.8555"/>
</g>

<g fill="#ffffff" fill-opacity="1" stroke="none" transform="matrix(0.03125,0,0,0.03125,161,14)"
font-family="Inter" font-size="11" font-weight="700" font-style="normal" 
>
<path vector-effect="none" fill-rule="nonzero" d="M111.326,191.938 C120.545,201.158 135.517,201.158 144.737,191.938 L239.144,97.5313 C245.929,90.7458 247.921,80.6413 244.233,71.7907 C240.545,62.9401 231.989,57.1871 222.401,57.1871 L33.5875,57.2608 C24.0731,57.2608 15.4437,63.0137 11.7559,71.8644 C8.06815,80.715 10.1333,90.8195 16.845,97.605 L111.252,192.012 L111.326,191.938"/>
</g>

<g fill="none" stroke="#000000" stroke-opacity="1" stroke-width="13.7195" stroke-linecap="butt" stroke-linejoin="miter" stroke-miterlimit="4" transform="matrix(0.03125,0,0,0.03125,161,14)"
font-family="Inter" font-size="11" font-weight="700" font-style="normal" 
>
<path vector-effect="none" fill-rule="nonzero" d="M111.326,191.938 C120.545,201.158 135.517,201.158 144.737,191.938 L239.144,97.5313 C245.929,90.7458 247.921,80.6413 244.233,71.7907 C240.545,62.9401 231.989,57.1871 222.401,57.1871 L33.5875,57.2608 C24.0731,57.2608 15.4437,63.0137 11.7559,71.8644 C8.06815,80.715 10.1333,90.8195 16.845,97.605 L111.252,192.012 L111.326,191.938"/>
</g>

<g fill="#ffffff" fill-opacity="1" stroke="none" transform="matrix(1,0,0,1,135,6)"
font-family="Inter" font-size="11" font-weight="700" font-style="normal" 
>
</g>

<g fill="#ffffff" fill-opacity="1" stroke="#0070ba" stroke-opacity="1" stroke-width="1" stroke-linecap="square" stroke-linejoin="bevel" transform="matrix(1,0,0,1,0,0)"
font-family="Inter" font-size="11" font-weight="700" font-style="normal" 
>
</g>

<g fill="#ffffff" fill-opacity="1" stroke="#0070ba" stroke-opacity="1" stroke-width="1" stroke-linecap="square" stroke-linejoin="bevel" transform="matrix(1,0,0,1,0,0)"
font-family="Inter" font-size="11" font-weight="700" font-style="normal" 
>
</g>

<g fill="none" stroke="#000000" stroke-opacity="1" stroke-width="1" stroke-linecap="square" stroke-linejoin="bevel" transform="matrix(1,0,0,1,0,0)"
font-family=".AppleSystemUIFont" font-size="13" font-weight="400" font-style="normal" 
>
</g>
</g>
</svg>
