<?xml version="1.0" encoding="UTF-8" standalone="no"?>
<svg width="98.7778mm" height="15.5222mm"
 viewBox="0 0 280 44"
 xmlns="http://www.w3.org/2000/svg" xmlns:xlink="http://www.w3.org/1999/xlink" version="1.2" baseProfile="tiny">
<title>Abstract block</title>
<desc>block_hubs_technicmove_motors_calibrate_steering_rack</desc>
<defs>
</defs>
<g fill="none" stroke="black" stroke-width="1" fill-rule="evenodd" stroke-linecap="square" stroke-linejoin="bevel" >

<g fill="none" stroke="#000000" stroke-opacity="1" stroke-width="1" stroke-linecap="square" stroke-linejoin="bevel" transform="matrix(1,0,0,1,0,0)"
font-family=".AppleSystemUIFont" font-size="13" font-weight="400" font-style="normal" 
>
</g>

<g fill="none" stroke="#000000" stroke-opacity="1" stroke-width="1" stroke-linecap="square" stroke-linejoin="bevel" transform="matrix(1,0,0,1,0,0)"
font-family=".AppleSystemUIFont" font-size="13" font-weight="400" font-style="normal" 
>
</g>

<g fill="#0090f5" fill-opacity="1" stroke="#0070ba" stroke-opacity="1" stroke-width="1.2" stroke-linecap="square" stroke-linejoin="bevel" transform="matrix(1,0,0,1,0,0)"
font-family=".AppleSystemUIFont" font-size="13" font-weight="400" font-style="normal" 
>
<path vector-effect="none" fill-rule="evenodd" d="M0.5,4.5 L1.04612,2.48112 L2.48112,1.04612 L4.5,0.5 L9.625,0.5 L10.416,0.976563 L11.1719,1.6875 L11.998,2.67969 L13,4 L13.7559,4.66016 L14.5469,5.15625 L15.4082,5.51172 L16.375,5.75 L17.4824,5.89453 L18.7656,5.96875 L20.2598,5.99609 L22,6 L23.7402,5.99609 L25.2344,5.96875 L26.5176,5.89453 L27.625,5.75 L28.5918,5.51172 L29.4531,5.15625 L30.2441,4.66016 L31,4 L32.002,2.67969 L32.8281,1.6875 L33.584,0.976563 L34.375,0.5 L275,0.5 L277.019,1.04612 L278.454,2.48112 L279,4.5 L279,31.5 L278.454,33.5189 L277.019,34.9539 L275,35.5 L34.375,35.5 L33.584,35.9766 L32.8281,36.6875 L32.002,37.6797 L31,39 L30.2441,39.6602 L29.4531,40.1563 L28.5918,40.5117 L27.625,40.75 L26.5176,40.8945 L25.2344,40.9688 L23.7402,40.9961 L22,41 L20.2598,40.9961 L18.7656,40.9688 L17.4824,40.8945 L16.375,40.75 L15.4082,40.5117 L14.5469,40.1563 L13.7559,39.6602 L13,39 L11.998,37.6797 L11.1719,36.6875 L10.416,35.9766 L9.625,35.5 L4.5,35.5 L2.48112,34.9539 L1.04612,33.5189 L0.5,31.5 L0.5,4.5"/>
</g>

<g fill="#ffffff" fill-opacity="1" stroke="none" transform="matrix(1,0,0,1,0,0)"
font-family="Inter" font-size="11" font-weight="700" font-style="normal" 
>
<path vector-effect="none" fill-rule="nonzero" d="M149.813,21.1172 C149.198,21.1172 148.67,20.9863 148.229,20.7246 C147.787,20.4629 147.449,20.099 147.213,19.6328 C146.977,19.1667 146.859,18.6302 146.859,18.0234 C146.859,17.4089 146.979,16.8691 147.217,16.4043 C147.455,15.9395 147.794,15.5762 148.234,15.3145 C148.674,15.0527 149.198,14.9219 149.805,14.9219 C150.328,14.9219 150.786,15.0169 151.18,15.207 C151.573,15.3971 151.884,15.6641 152.113,16.0078 C152.342,16.3516 152.469,16.7552 152.492,17.2188 L150.922,17.2188 C150.878,16.9193 150.761,16.6777 150.572,16.4941 C150.383,16.3105 150.137,16.2188 149.832,16.2188 C149.574,16.2188 149.35,16.2884 149.158,16.4277 C148.967,16.5671 148.818,16.7695 148.711,17.0352 C148.604,17.3008 148.551,17.6224 148.551,18 C148.551,18.3828 148.604,18.7083 148.709,18.9766 C148.814,19.2448 148.964,19.4492 149.156,19.5898 C149.349,19.7305 149.574,19.8008 149.832,19.8008 C150.022,19.8008 150.193,19.7617 150.346,19.6836 C150.498,19.6055 150.624,19.4915 150.725,19.3418 C150.825,19.1921 150.891,19.0117 150.922,18.8008 L152.492,18.8008 C152.466,19.2591 152.342,19.6621 152.119,20.0098 C151.896,20.3574 151.59,20.6289 151.199,20.8242 C150.809,21.0195 150.346,21.1172 149.813,21.1172 M155.266,21.1133 C154.883,21.1133 154.542,21.0462 154.242,20.9121 C153.943,20.778 153.706,20.5788 153.533,20.3145 C153.36,20.0501 153.273,19.7201 153.273,19.3242 C153.273,18.9909 153.335,18.7109 153.457,18.4844 C153.579,18.2578 153.746,18.0755 153.957,17.9375 C154.168,17.7995 154.408,17.6953 154.678,17.625 C154.947,17.5547 155.23,17.5052 155.527,17.4766 C155.876,17.4401 156.158,17.4056 156.371,17.373 C156.585,17.3405 156.74,17.2917 156.836,17.2266 C156.932,17.1615 156.98,17.0651 156.98,16.9375 L156.98,16.9141 C156.98,16.6667 156.903,16.4753 156.748,16.3398 C156.593,16.2044 156.374,16.1367 156.09,16.1367 C155.79,16.1367 155.552,16.2025 155.375,16.334 C155.198,16.4655 155.081,16.6302 155.023,16.8281 L153.484,16.7031 C153.563,16.3385 153.716,16.0228 153.945,15.7559 C154.174,15.4889 154.471,15.2832 154.834,15.1387 C155.197,14.9941 155.618,14.9219 156.098,14.9219 C156.431,14.9219 156.751,14.9609 157.057,15.0391 C157.363,15.1172 157.635,15.2383 157.873,15.4023 C158.111,15.5664 158.299,15.7767 158.438,16.0332 C158.576,16.2897 158.645,16.5964 158.645,16.9531 L158.645,21 L157.066,21 L157.066,20.168 L157.02,20.168 C156.923,20.3555 156.794,20.5202 156.633,20.6621 C156.471,20.804 156.277,20.9147 156.051,20.9941 C155.824,21.0736 155.563,21.1133 155.266,21.1133 M155.742,19.9648 C155.987,19.9648 156.203,19.916 156.391,19.8184 C156.578,19.7207 156.725,19.5885 156.832,19.4219 C156.939,19.2552 156.992,19.0664 156.992,18.8555 L156.992,18.2188 C156.94,18.2526 156.869,18.2832 156.779,18.3105 C156.689,18.3379 156.589,18.3626 156.477,18.3848 C156.365,18.4069 156.253,18.4264 156.141,18.4434 C156.029,18.4603 155.927,18.4753 155.836,18.4883 C155.641,18.5169 155.47,18.5625 155.324,18.625 C155.178,18.6875 155.065,18.7715 154.984,18.877 C154.904,18.9824 154.863,19.1133 154.863,19.2695 C154.863,19.4961 154.946,19.6686 155.111,19.7871 C155.277,19.9056 155.487,19.9648 155.742,19.9648 M161.594,13 L161.594,21 L159.93,21 L159.93,13 L161.594,13 M162.914,21 L162.914,15 L164.578,15 L164.578,21 L162.914,21 M163.75,14.2266 C163.503,14.2266 163.291,14.1439 163.115,13.9785 C162.939,13.8132 162.852,13.6146 162.852,13.3828 C162.852,13.1536 162.939,12.9564 163.115,12.791 C163.291,12.6257 163.503,12.543 163.75,12.543 C163.997,12.543 164.209,12.6257 164.385,12.791 C164.561,12.9564 164.648,13.1536 164.648,13.3828 C164.648,13.6146 164.561,13.8132 164.385,13.9785 C164.209,14.1439 163.997,14.2266 163.75,14.2266 M165.93,21 L165.93,13 L167.594,13 L167.594,16.0078 L167.645,16.0078 C167.717,15.8464 167.824,15.6816 167.963,15.5137 C168.102,15.3457 168.285,15.2051 168.51,15.0918 C168.735,14.9785 169.016,14.9219 169.352,14.9219 C169.789,14.9219 170.193,15.0358 170.563,15.2637 C170.932,15.4915 171.228,15.834 171.449,16.291 C171.671,16.748 171.781,17.3203 171.781,18.0078 C171.781,18.6771 171.674,19.2415 171.459,19.7012 C171.244,20.1608 170.952,20.5085 170.584,20.7441 C170.215,20.9798 169.803,21.0977 169.348,21.0977 C169.025,21.0977 168.751,21.0443 168.525,20.9375 C168.3,20.8307 168.116,20.696 167.973,20.5332 C167.829,20.3704 167.72,20.2057 167.645,20.0391 L167.57,20.0391 L167.57,21 L165.93,21 M167.559,18 C167.559,18.3568 167.608,18.668 167.707,18.9336 C167.806,19.1992 167.949,19.4056 168.137,19.5527 C168.324,19.6999 168.552,19.7734 168.82,19.7734 C169.091,19.7734 169.32,19.6986 169.508,19.5488 C169.695,19.3991 169.838,19.1908 169.936,18.9238 C170.033,18.6569 170.082,18.349 170.082,18 C170.082,17.6536 170.034,17.349 169.938,17.0859 C169.841,16.8229 169.699,16.6172 169.512,16.4688 C169.324,16.3203 169.094,16.2461 168.82,16.2461 C168.549,16.2461 168.321,16.3177 168.135,16.4609 C167.949,16.6042 167.806,16.8073 167.707,17.0703 C167.608,17.3333 167.559,17.6432 167.559,18 M172.883,21 L172.883,15 L174.496,15 L174.496,16.0469 L174.559,16.0469 C174.668,15.6745 174.852,15.3926 175.109,15.2012 C175.367,15.0098 175.664,14.9141 176,14.9141 C176.083,14.9141 176.173,14.9193 176.27,14.9297 C176.366,14.9401 176.451,14.9544 176.523,14.9727 L176.523,16.4492 C176.445,16.4258 176.337,16.4049 176.199,16.3867 C176.061,16.3685 175.935,16.3594 175.82,16.3594 C175.576,16.3594 175.357,16.4121 175.166,16.5176 C174.975,16.623 174.824,16.7695 174.713,16.957 C174.602,17.1445 174.547,17.3607 174.547,17.6055 L174.547,21 L172.883,21 M178.906,21.1133 C178.523,21.1133 178.182,21.0462 177.883,20.9121 C177.583,20.778 177.347,20.5788 177.174,20.3145 C177.001,20.0501 176.914,19.7201 176.914,19.3242 C176.914,18.9909 176.975,18.7109 177.098,18.4844 C177.22,18.2578 177.387,18.0755 177.598,17.9375 C177.809,17.7995 178.049,17.6953 178.318,17.625 C178.588,17.5547 178.871,17.5052 179.168,17.4766 C179.517,17.4401 179.798,17.4056 180.012,17.373 C180.225,17.3405 180.38,17.2917 180.477,17.2266 C180.573,17.1615 180.621,17.0651 180.621,16.9375 L180.621,16.9141 C180.621,16.6667 180.544,16.4753 180.389,16.3398 C180.234,16.2044 180.014,16.1367 179.73,16.1367 C179.431,16.1367 179.193,16.2025 179.016,16.334 C178.839,16.4655 178.721,16.6302 178.664,16.8281 L177.125,16.7031 C177.203,16.3385 177.357,16.0228 177.586,15.7559 C177.815,15.4889 178.111,15.2832 178.475,15.1387 C178.838,14.9941 179.259,14.9219 179.738,14.9219 C180.072,14.9219 180.391,14.9609 180.697,15.0391 C181.003,15.1172 181.275,15.2383 181.514,15.4023 C181.752,15.5664 181.94,15.7767 182.078,16.0332 C182.216,16.2897 182.285,16.5964 182.285,16.9531 L182.285,21 L180.707,21 L180.707,20.168 L180.66,20.168 C180.564,20.3555 180.435,20.5202 180.273,20.6621 C180.112,20.804 179.918,20.9147 179.691,20.9941 C179.465,21.0736 179.203,21.1133 178.906,21.1133 M179.383,19.9648 C179.628,19.9648 179.844,19.916 180.031,19.8184 C180.219,19.7207 180.366,19.5885 180.473,19.4219 C180.579,19.2552 180.633,19.0664 180.633,18.8555 L180.633,18.2188 C180.581,18.2526 180.51,18.2832 180.42,18.3105 C180.33,18.3379 180.229,18.3626 180.117,18.3848 C180.005,18.4069 179.893,18.4264 179.781,18.4434 C179.669,18.4603 179.568,18.4753 179.477,18.4883 C179.281,18.5169 179.111,18.5625 178.965,18.625 C178.819,18.6875 178.706,18.7715 178.625,18.877 C178.544,18.9824 178.504,19.1133 178.504,19.2695 C178.504,19.4961 178.587,19.6686 178.752,19.7871 C178.917,19.9056 179.128,19.9648 179.383,19.9648 M186.762,15 L186.762,16.25 L183.148,16.25 L183.148,15 L186.762,15 M183.969,13.5625 L185.633,13.5625 L185.633,19.1563 C185.633,19.3099 185.656,19.429 185.703,19.5137 C185.75,19.5983 185.816,19.6576 185.9,19.6914 C185.985,19.7253 186.083,19.7422 186.195,19.7422 C186.273,19.7422 186.352,19.735 186.43,19.7207 C186.508,19.7064 186.568,19.6953 186.609,19.6875 L186.871,20.9258 C186.788,20.9518 186.671,20.9824 186.52,21.0176 C186.368,21.0527 186.185,21.0742 185.969,21.082 C185.568,21.0977 185.217,21.0443 184.916,20.9219 C184.615,20.7995 184.382,20.6094 184.215,20.3516 C184.048,20.0938 183.966,19.7682 183.969,19.375 L183.969,13.5625 M190.508,21.1172 C189.891,21.1172 189.36,20.9915 188.916,20.7402 C188.472,20.4889 188.13,20.1322 187.891,19.6699 C187.651,19.2077 187.531,18.6602 187.531,18.0273 C187.531,17.4102 187.651,16.8685 187.891,16.4023 C188.13,15.9362 188.468,15.5729 188.904,15.3125 C189.34,15.0521 189.853,14.9219 190.441,14.9219 C190.837,14.9219 191.206,14.985 191.549,15.1113 C191.891,15.2376 192.191,15.4271 192.447,15.6797 C192.704,15.9323 192.904,16.2493 193.047,16.6309 C193.19,17.0124 193.262,17.4583 193.262,17.9688 L193.262,18.4258 L188.195,18.4258 L188.195,17.3945 L191.695,17.3945 C191.695,17.1549 191.643,16.9427 191.539,16.7578 C191.435,16.5729 191.291,16.4277 191.107,16.3223 C190.924,16.2168 190.711,16.1641 190.469,16.1641 C190.216,16.1641 189.993,16.222 189.799,16.3379 C189.605,16.4538 189.453,16.6087 189.344,16.8027 C189.234,16.9967 189.178,17.2122 189.176,17.4492 L189.176,18.4297 C189.176,18.7266 189.231,18.9831 189.342,19.1992 C189.452,19.4154 189.609,19.582 189.813,19.6992 C190.016,19.8164 190.257,19.875 190.535,19.875 C190.72,19.875 190.889,19.849 191.043,19.7969 C191.197,19.7448 191.328,19.6667 191.438,19.5625 C191.547,19.4583 191.63,19.3307 191.688,19.1797 L193.227,19.2813 C193.148,19.651 192.989,19.9733 192.748,20.248 C192.507,20.5228 192.197,20.7363 191.818,20.8887 C191.439,21.041 191.003,21.1172 190.508,21.1172 M201.875,16.7109 L200.352,16.8047 C200.326,16.6745 200.27,16.5566 200.184,16.4512 C200.098,16.3457 199.985,16.2611 199.846,16.1973 C199.706,16.1335 199.54,16.1016 199.348,16.1016 C199.09,16.1016 198.872,16.1556 198.695,16.2637 C198.518,16.3717 198.43,16.5156 198.43,16.6953 C198.43,16.8385 198.487,16.9596 198.602,17.0586 C198.716,17.1576 198.913,17.237 199.191,17.2969 L200.277,17.5156 C200.861,17.6354 201.296,17.8281 201.582,18.0938 C201.868,18.3594 202.012,18.7083 202.012,19.1406 C202.012,19.5339 201.896,19.8789 201.666,20.1758 C201.436,20.4727 201.12,20.7038 200.721,20.8691 C200.321,21.0345 199.861,21.1172 199.34,21.1172 C198.546,21.1172 197.913,20.9512 197.443,20.6191 C196.973,20.2871 196.698,19.8346 196.617,19.2617 L198.254,19.1758 C198.303,19.418 198.423,19.6022 198.613,19.7285 C198.803,19.8548 199.047,19.918 199.344,19.918 C199.635,19.918 199.87,19.8613 200.049,19.748 C200.227,19.6348 200.318,19.4883 200.32,19.3086 C200.318,19.1576 200.254,19.0332 200.129,18.9355 C200.004,18.8379 199.811,18.763 199.551,18.7109 L198.512,18.5039 C197.926,18.3867 197.49,18.1836 197.205,17.8945 C196.92,17.6055 196.777,17.237 196.777,16.7891 C196.777,16.4036 196.882,16.0716 197.092,15.793 C197.301,15.5143 197.597,15.2995 197.979,15.1484 C198.36,14.9974 198.807,14.9219 199.32,14.9219 C200.078,14.9219 200.675,15.082 201.111,15.4023 C201.548,15.7227 201.802,16.1589 201.875,16.7109 M206.246,15 L206.246,16.25 L202.633,16.25 L202.633,15 L206.246,15 M203.453,13.5625 L205.117,13.5625 L205.117,19.1563 C205.117,19.3099 205.141,19.429 205.188,19.5137 C205.234,19.5983 205.3,19.6576 205.385,19.6914 C205.469,19.7253 205.568,19.7422 205.68,19.7422 C205.758,19.7422 205.836,19.735 205.914,19.7207 C205.992,19.7064 206.052,19.6953 206.094,19.6875 L206.355,20.9258 C206.272,20.9518 206.155,20.9824 206.004,21.0176 C205.853,21.0527 205.669,21.0742 205.453,21.082 C205.052,21.0977 204.701,21.0443 204.4,20.9219 C204.1,20.7995 203.866,20.6094 203.699,20.3516 C203.533,20.0938 203.451,19.7682 203.453,19.375 L203.453,13.5625 M209.992,21.1172 C209.375,21.1172 208.844,20.9915 208.4,20.7402 C207.956,20.4889 207.615,20.1322 207.375,19.6699 C207.135,19.2077 207.016,18.6602 207.016,18.0273 C207.016,17.4102 207.135,16.8685 207.375,16.4023 C207.615,15.9362 207.952,15.5729 208.389,15.3125 C208.825,15.0521 209.337,14.9219 209.926,14.9219 C210.322,14.9219 210.691,14.985 211.033,15.1113 C211.376,15.2376 211.675,15.4271 211.932,15.6797 C212.188,15.9323 212.388,16.2493 212.531,16.6309 C212.674,17.0124 212.746,17.4583 212.746,17.9688 L212.746,18.4258 L207.68,18.4258 L207.68,17.3945 L211.18,17.3945 C211.18,17.1549 211.128,16.9427 211.023,16.7578 C210.919,16.5729 210.775,16.4277 210.592,16.3223 C210.408,16.2168 210.195,16.1641 209.953,16.1641 C209.701,16.1641 209.477,16.222 209.283,16.3379 C209.089,16.4538 208.938,16.6087 208.828,16.8027 C208.719,16.9967 208.663,17.2122 208.66,17.4492 L208.66,18.4297 C208.66,18.7266 208.715,18.9831 208.826,19.1992 C208.937,19.4154 209.094,19.582 209.297,19.6992 C209.5,19.8164 209.741,19.875 210.02,19.875 C210.204,19.875 210.374,19.849 210.527,19.7969 C210.681,19.7448 210.813,19.6667 210.922,19.5625 C211.031,19.4583 211.115,19.3307 211.172,19.1797 L212.711,19.2813 C212.633,19.651 212.473,19.9733 212.232,20.248 C211.992,20.5228 211.682,20.7363 211.303,20.8887 C210.924,21.041 210.487,21.1172 209.992,21.1172 M216.555,21.1172 C215.938,21.1172 215.407,20.9915 214.963,20.7402 C214.519,20.4889 214.177,20.1322 213.938,19.6699 C213.698,19.2077 213.578,18.6602 213.578,18.0273 C213.578,17.4102 213.698,16.8685 213.938,16.4023 C214.177,15.9362 214.515,15.5729 214.951,15.3125 C215.387,15.0521 215.9,14.9219 216.488,14.9219 C216.884,14.9219 217.253,14.985 217.596,15.1113 C217.938,15.2376 218.238,15.4271 218.494,15.6797 C218.751,15.9323 218.951,16.2493 219.094,16.6309 C219.237,17.0124 219.309,17.4583 219.309,17.9688 L219.309,18.4258 L214.242,18.4258 L214.242,17.3945 L217.742,17.3945 C217.742,17.1549 217.69,16.9427 217.586,16.7578 C217.482,16.5729 217.338,16.4277 217.154,16.3223 C216.971,16.2168 216.758,16.1641 216.516,16.1641 C216.263,16.1641 216.04,16.222 215.846,16.3379 C215.652,16.4538 215.5,16.6087 215.391,16.8027 C215.281,16.9967 215.225,17.2122 215.223,17.4492 L215.223,18.4297 C215.223,18.7266 215.278,18.9831 215.389,19.1992 C215.499,19.4154 215.656,19.582 215.859,19.6992 C216.063,19.8164 216.303,19.875 216.582,19.875 C216.767,19.875 216.936,19.849 217.09,19.7969 C217.243,19.7448 217.375,19.6667 217.484,19.5625 C217.594,19.4583 217.677,19.3307 217.734,19.1797 L219.273,19.2813 C219.195,19.651 219.036,19.9733 218.795,20.248 C218.554,20.5228 218.244,20.7363 217.865,20.8887 C217.486,21.041 217.049,21.1172 216.555,21.1172 M220.383,21 L220.383,15 L221.996,15 L221.996,16.0469 L222.059,16.0469 C222.168,15.6745 222.352,15.3926 222.609,15.2012 C222.867,15.0098 223.164,14.9141 223.5,14.9141 C223.583,14.9141 223.673,14.9193 223.77,14.9297 C223.866,14.9401 223.951,14.9544 224.023,14.9727 L224.023,16.4492 C223.945,16.4258 223.837,16.4049 223.699,16.3867 C223.561,16.3685 223.435,16.3594 223.32,16.3594 C223.076,16.3594 222.857,16.4121 222.666,16.5176 C222.475,16.623 222.324,16.7695 222.213,16.957 C222.102,17.1445 222.047,17.3607 222.047,17.6055 L222.047,21 L220.383,21 M224.867,21 L224.867,15 L226.531,15 L226.531,21 L224.867,21 M225.703,14.2266 C225.456,14.2266 225.244,14.1439 225.068,13.9785 C224.893,13.8132 224.805,13.6146 224.805,13.3828 C224.805,13.1536 224.893,12.9564 225.068,12.791 C225.244,12.6257 225.456,12.543 225.703,12.543 C225.951,12.543 226.162,12.6257 226.338,12.791 C226.514,12.9564 226.602,13.1536 226.602,13.3828 C226.602,13.6146 226.514,13.8132 226.338,13.9785 C226.162,14.1439 225.951,14.2266 225.703,14.2266 M229.516,17.5313 L229.516,21 L227.852,21 L227.852,15 L229.438,15 L229.438,16.0586 L229.508,16.0586 C229.641,15.7096 229.863,15.4329 230.176,15.2285 C230.488,15.0241 230.867,14.9219 231.313,14.9219 C231.729,14.9219 232.092,15.013 232.402,15.1953 C232.712,15.3776 232.953,15.6374 233.125,15.9746 C233.297,16.3118 233.383,16.7135 233.383,17.1797 L233.383,21 L231.719,21 L231.719,17.4766 C231.721,17.1094 231.628,16.8223 231.438,16.6152 C231.247,16.4082 230.986,16.3047 230.652,16.3047 C230.428,16.3047 230.231,16.3529 230.061,16.4492 C229.89,16.5456 229.757,16.6855 229.662,16.8691 C229.567,17.0527 229.518,17.2734 229.516,17.5313 M237.383,23.375 C236.844,23.375 236.382,23.3014 235.998,23.1543 C235.614,23.0072 235.309,22.8073 235.082,22.5547 C234.855,22.3021 234.708,22.0182 234.641,21.7031 L236.18,21.4961 C236.227,21.6159 236.301,21.7279 236.402,21.832 C236.504,21.9362 236.639,22.0202 236.807,22.084 C236.975,22.1478 237.18,22.1797 237.422,22.1797 C237.784,22.1797 238.083,22.0918 238.318,21.916 C238.554,21.7402 238.672,21.4466 238.672,21.0352 L238.672,19.9375 L238.602,19.9375 C238.529,20.1042 238.419,20.2617 238.273,20.4102 C238.128,20.5586 237.94,20.6797 237.711,20.7734 C237.482,20.8672 237.208,20.9141 236.891,20.9141 C236.44,20.9141 236.031,20.8092 235.662,20.5996 C235.294,20.39 235.001,20.0684 234.783,19.6348 C234.566,19.2012 234.457,18.6523 234.457,17.9883 C234.457,17.3086 234.568,16.7409 234.789,16.2852 C235.01,15.8294 235.305,15.4883 235.674,15.2617 C236.042,15.0352 236.447,14.9219 236.887,14.9219 C237.223,14.9219 237.504,14.9785 237.73,15.0918 C237.957,15.2051 238.14,15.3457 238.279,15.5137 C238.419,15.6816 238.526,15.8464 238.602,16.0078 L238.664,16.0078 L238.664,15 L240.316,15 L240.316,21.0586 C240.316,21.569 240.191,21.9961 239.941,22.3398 C239.691,22.6836 239.346,22.9421 238.904,23.1152 C238.463,23.2884 237.956,23.375 237.383,23.375 M237.418,19.6641 C237.686,19.6641 237.913,19.597 238.1,19.4629 C238.286,19.3288 238.429,19.1361 238.529,18.8848 C238.63,18.6335 238.68,18.332 238.68,17.9805 C238.68,17.6289 238.63,17.3236 238.531,17.0645 C238.432,16.8053 238.289,16.6042 238.102,16.4609 C237.914,16.3177 237.686,16.2461 237.418,16.2461 C237.145,16.2461 236.914,16.3197 236.727,16.4668 C236.539,16.6139 236.397,16.8177 236.301,17.0781 C236.204,17.3385 236.156,17.6393 236.156,17.9805 C236.156,18.3268 236.205,18.6257 236.303,18.877 C236.4,19.1283 236.542,19.3223 236.729,19.459 C236.915,19.5957 237.145,19.6641 237.418,19.6641 M244.18,21 L244.18,15 L245.793,15 L245.793,16.0469 L245.855,16.0469 C245.965,15.6745 246.148,15.3926 246.406,15.2012 C246.664,15.0098 246.961,14.9141 247.297,14.9141 C247.38,14.9141 247.47,14.9193 247.566,14.9297 C247.663,14.9401 247.747,14.9544 247.82,14.9727 L247.82,16.4492 C247.742,16.4258 247.634,16.4049 247.496,16.3867 C247.358,16.3685 247.232,16.3594 247.117,16.3594 C246.872,16.3594 246.654,16.4121 246.463,16.5176 C246.271,16.623 246.12,16.7695 246.01,16.957 C245.899,17.1445 245.844,17.3607 245.844,17.6055 L245.844,21 L244.18,21 M250.203,21.1133 C249.82,21.1133 249.479,21.0462 249.18,20.9121 C248.88,20.778 248.644,20.5788 248.471,20.3145 C248.298,20.0501 248.211,19.7201 248.211,19.3242 C248.211,18.9909 248.272,18.7109 248.395,18.4844 C248.517,18.2578 248.684,18.0755 248.895,17.9375 C249.105,17.7995 249.346,17.6953 249.615,17.625 C249.885,17.5547 250.168,17.5052 250.465,17.4766 C250.814,17.4401 251.095,17.4056 251.309,17.373 C251.522,17.3405 251.677,17.2917 251.773,17.2266 C251.87,17.1615 251.918,17.0651 251.918,16.9375 L251.918,16.9141 C251.918,16.6667 251.84,16.4753 251.686,16.3398 C251.531,16.2044 251.311,16.1367 251.027,16.1367 C250.728,16.1367 250.49,16.2025 250.313,16.334 C250.135,16.4655 250.018,16.6302 249.961,16.8281 L248.422,16.7031 C248.5,16.3385 248.654,16.0228 248.883,15.7559 C249.112,15.4889 249.408,15.2832 249.771,15.1387 C250.135,14.9941 250.556,14.9219 251.035,14.9219 C251.368,14.9219 251.688,14.9609 251.994,15.0391 C252.3,15.1172 252.572,15.2383 252.811,15.4023 C253.049,15.5664 253.237,15.7767 253.375,16.0332 C253.513,16.2897 253.582,16.5964 253.582,16.9531 L253.582,21 L252.004,21 L252.004,20.168 L251.957,20.168 C251.861,20.3555 251.732,20.5202 251.57,20.6621 C251.409,20.804 251.215,20.9147 250.988,20.9941 C250.762,21.0736 250.5,21.1133 250.203,21.1133 M250.68,19.9648 C250.924,19.9648 251.141,19.916 251.328,19.8184 C251.516,19.7207 251.663,19.5885 251.77,19.4219 C251.876,19.2552 251.93,19.0664 251.93,18.8555 L251.93,18.2188 C251.878,18.2526 251.807,18.2832 251.717,18.3105 C251.627,18.3379 251.526,18.3626 251.414,18.3848 C251.302,18.4069 251.19,18.4264 251.078,18.4434 C250.966,18.4603 250.865,18.4753 250.773,18.4883 C250.578,18.5169 250.408,18.5625 250.262,18.625 C250.116,18.6875 250.003,18.7715 249.922,18.877 C249.841,18.9824 249.801,19.1133 249.801,19.2695 C249.801,19.4961 249.883,19.6686 250.049,19.7871 C250.214,19.9056 250.424,19.9648 250.68,19.9648 M257.578,21.1172 C256.964,21.1172 256.436,20.9863 255.994,20.7246 C255.553,20.4629 255.214,20.099 254.979,19.6328 C254.743,19.1667 254.625,18.6302 254.625,18.0234 C254.625,17.4089 254.744,16.8691 254.982,16.4043 C255.221,15.9395 255.56,15.5762 256,15.3145 C256.44,15.0527 256.964,14.9219 257.57,14.9219 C258.094,14.9219 258.552,15.0169 258.945,15.207 C259.339,15.3971 259.65,15.6641 259.879,16.0078 C260.108,16.3516 260.234,16.7552 260.258,17.2188 L258.688,17.2188 C258.643,16.9193 258.527,16.6777 258.338,16.4941 C258.149,16.3105 257.902,16.2188 257.598,16.2188 C257.34,16.2188 257.115,16.2884 256.924,16.4277 C256.732,16.5671 256.583,16.7695 256.477,17.0352 C256.37,17.3008 256.316,17.6224 256.316,18 C256.316,18.3828 256.369,18.7083 256.475,18.9766 C256.58,19.2448 256.729,19.4492 256.922,19.5898 C257.115,19.7305 257.34,19.8008 257.598,19.8008 C257.788,19.8008 257.959,19.7617 258.111,19.6836 C258.264,19.6055 258.39,19.4915 258.49,19.3418 C258.59,19.1921 258.656,19.0117 258.688,18.8008 L260.258,18.8008 C260.232,19.2591 260.107,19.6621 259.885,20.0098 C259.662,20.3574 259.355,20.6289 258.965,20.8242 C258.574,21.0195 258.112,21.1172 257.578,21.1172 M262.828,19.2734 L262.832,17.2773 L263.074,17.2773 L264.996,15 L266.906,15 L264.324,18.0156 L263.93,18.0156 L262.828,19.2734 M261.32,21 L261.32,13 L262.984,13 L262.984,21 L261.32,21 M265.07,21 L263.305,18.3867 L264.414,17.2109 L267.02,21 L265.07,21"/>
</g>

<g fill="#ffffff" fill-opacity="1" stroke="none" transform="matrix(0.0285,0,0,0.0285,11.2928,9.44754)"
font-family="Inter" font-size="11" font-weight="700" font-style="normal" 
>
<path vector-effect="none" fill-rule="nonzero" d="M410.778,59.991 C376.729,59.991 346.629,75.6235 326.182,99.684 C216.768,129.689 131.433,215.271 101.927,324.891 C79.5232,345.494 65.3275,374.762 65.54,407.6 C65.7463,439.573 79.3407,468.172 100.975,488.421 C130.228,601.34 218.744,689.335 331.859,718.096 C331.956,718.125 331.989,718.313 332.085,718.338 C352.242,738.376 380.064,750.708 410.778,750.708 C441.492,750.708 469.314,738.376 489.47,718.338 C489.549,718.262 489.618,718.17 489.696,718.096 C604.323,688.948 693.738,598.994 721.758,483.921 C742.939,463.42 756.216,434.907 756.015,403.1 C755.801,370.079 741.086,340.899 718.209,320.633 C687.622,213.077 603.338,129.291 495.373,99.684 C474.926,75.6235 444.827,59.991 410.778,59.991 M410.778,91.8938 C455.052,91.8938 490.89,127.731 490.89,172.006 C490.89,216.28 455.052,252.102 410.778,252.102 C366.503,252.102 330.666,216.28 330.666,172.006 C330.666,127.731 366.503,91.8938 410.778,91.8938 M177.071,325.601 C221.346,325.601 257.183,361.438 257.183,405.713 C257.183,449.987 221.346,485.808 177.071,485.808 C132.796,485.808 96.7332,449.987 96.7332,405.713 C96.7332,361.438 132.796,325.601 177.071,325.601 M644.485,325.601 C688.763,325.601 724.822,361.438 724.822,405.713 C724.822,449.987 688.763,485.808 644.485,485.808 C600.21,485.808 564.373,449.987 564.373,405.713 C564.373,361.438 600.21,325.601 644.485,325.601 M396.601,335.762 L424.955,335.762 C431.754,335.762 437.245,342.538 437.245,350.891 L437.245,381.6 L467.971,381.6 C476.323,381.6 483.083,387.091 483.083,393.89 L483.083,422.245 C483.083,429.044 476.323,434.535 467.971,434.535 L437.245,434.535 L437.245,465.26 C437.245,473.612 431.754,480.373 424.955,480.373 L396.601,480.373 C389.801,480.373 384.31,473.613 384.31,465.26 L384.31,434.535 L353.585,434.535 C345.233,434.535 338.472,429.044 338.472,422.245 L338.472,393.89 C338.472,387.091 345.232,381.6 353.585,381.6 L384.31,381.6 L384.31,350.891 C384.31,342.539 389.801,335.762 396.601,335.762 M410.778,559.307 C455.052,559.307 490.89,595.371 490.89,639.645 C490.89,683.918 455.052,719.757 410.778,719.757 C366.503,719.757 330.666,683.918 330.666,639.645 C330.666,595.371 366.503,559.307 410.778,559.307 "/>
</g>

<g fill="none" stroke="#000000" stroke-opacity="1" stroke-width="22.7975" stroke-linecap="round" stroke-linejoin="round" transform="matrix(0.0285,0,0,0.0285,11.2928,9.44754)"
font-family="Inter" font-size="11" font-weight="700" font-style="normal" 
>
<path vector-effect="none" fill-rule="nonzero" d="M410.778,59.991 C376.729,59.991 346.629,75.6235 326.182,99.684 C216.768,129.689 131.433,215.271 101.927,324.891 C79.5232,345.494 65.3275,374.762 65.54,407.6 C65.7463,439.573 79.3407,468.172 100.975,488.421 C130.228,601.34 218.744,689.335 331.859,718.096 C331.956,718.125 331.989,718.313 332.085,718.338 C352.242,738.376 380.064,750.708 410.778,750.708 C441.492,750.708 469.314,738.376 489.47,718.338 C489.549,718.262 489.618,718.17 489.696,718.096 C604.323,688.948 693.738,598.994 721.758,483.921 C742.939,463.42 756.216,434.907 756.015,403.1 C755.801,370.079 741.086,340.899 718.209,320.633 C687.622,213.077 603.338,129.291 495.373,99.684 C474.926,75.6235 444.827,59.991 410.778,59.991 M410.778,91.8938 C455.052,91.8938 490.89,127.731 490.89,172.006 C490.89,216.28 455.052,252.102 410.778,252.102 C366.503,252.102 330.666,216.28 330.666,172.006 C330.666,127.731 366.503,91.8938 410.778,91.8938 M177.071,325.601 C221.346,325.601 257.183,361.438 257.183,405.713 C257.183,449.987 221.346,485.808 177.071,485.808 C132.796,485.808 96.7332,449.987 96.7332,405.713 C96.7332,361.438 132.796,325.601 177.071,325.601 M644.485,325.601 C688.763,325.601 724.822,361.438 724.822,405.713 C724.822,449.987 688.763,485.808 644.485,485.808 C600.21,485.808 564.373,449.987 564.373,405.713 C564.373,361.438 600.21,325.601 644.485,325.601 M396.601,335.762 L424.955,335.762 C431.754,335.762 437.245,342.538 437.245,350.891 L437.245,381.6 L467.971,381.6 C476.323,381.6 483.083,387.091 483.083,393.89 L483.083,422.245 C483.083,429.044 476.323,434.535 467.971,434.535 L437.245,434.535 L437.245,465.26 C437.245,473.612 431.754,480.373 424.955,480.373 L396.601,480.373 C389.801,480.373 384.31,473.613 384.31,465.26 L384.31,434.535 L353.585,434.535 C345.233,434.535 338.472,429.044 338.472,422.245 L338.472,393.89 C338.472,387.091 345.232,381.6 353.585,381.6 L384.31,381.6 L384.31,350.891 C384.31,342.539 389.801,335.762 396.601,335.762 M410.778,559.307 C455.052,559.307 490.89,595.371 490.89,639.645 C490.89,683.918 455.052,719.757 410.778,719.757 C366.503,719.757 330.666,683.918 330.666,639.645 C330.666,595.371 366.503,559.307 410.778,559.307 "/>
</g>

<g fill="#000000" fill-opacity="1" stroke="none" transform="matrix(0.0285,0,0,0.0285,11.2928,9.44754)"
font-family="Inter" font-size="11" font-weight="700" font-style="normal" 
>
<path vector-effect="none" fill-rule="evenodd" d="M394.961,355.661 C394.961,347.613 401.485,341.088 409.533,341.088 C417.582,341.088 424.106,347.613 424.106,355.661 L424.106,457.48 C424.106,465.528 417.582,472.053 409.533,472.053 C401.485,472.053 394.961,465.528 394.961,457.48 L394.961,355.661"/>
</g>

<g fill="none" stroke="#000000" stroke-opacity="1" stroke-width="20" stroke-linecap="round" stroke-linejoin="round" transform="matrix(0.0285,0,0,0.0285,11.2928,9.44754)"
font-family="Inter" font-size="11" font-weight="700" font-style="normal" 
>
<path vector-effect="none" fill-rule="evenodd" d="M394.961,355.661 C394.961,347.613 401.485,341.088 409.533,341.088 C417.582,341.088 424.106,347.613 424.106,355.661 L424.106,457.48 C424.106,465.528 417.582,472.053 409.533,472.053 C401.485,472.053 394.961,465.528 394.961,457.48 L394.961,355.661"/>
</g>

<g fill="#000000" fill-opacity="1" stroke="none" transform="matrix(0,0.0285,-0.0285,0,11.2928,9.44754)"
font-family="Inter" font-size="11" font-weight="700" font-style="normal" 
>
<path vector-effect="none" fill-rule="evenodd" d="M394.152,-461.016 C394.152,-469.064 400.676,-475.588 408.724,-475.588 C416.773,-475.588 423.297,-469.064 423.297,-461.016 L423.297,-359.196 C423.297,-351.148 416.773,-344.624 408.724,-344.624 C400.676,-344.624 394.152,-351.148 394.152,-359.196 L394.152,-461.016"/>
</g>

<g fill="none" stroke="#000000" stroke-opacity="1" stroke-width="20" stroke-linecap="round" stroke-linejoin="round" transform="matrix(0,0.0285,-0.0285,0,11.2928,9.44754)"
font-family="Inter" font-size="11" font-weight="700" font-style="normal" 
>
<path vector-effect="none" fill-rule="evenodd" d="M394.152,-461.016 C394.152,-469.064 400.676,-475.588 408.724,-475.588 C416.773,-475.588 423.297,-469.064 423.297,-461.016 L423.297,-359.196 C423.297,-351.148 416.773,-344.624 408.724,-344.624 C400.676,-344.624 394.152,-351.148 394.152,-359.196 L394.152,-461.016"/>
</g>

<g fill="#ffffff" fill-opacity="1" stroke="none" transform="matrix(1,0,0,1,0,0)"
font-family="Inter" font-size="11" font-weight="700" font-style="normal" 
>
</g>

<g fill="#ffffff" fill-opacity="1" stroke="#0070ba" stroke-opacity="1" stroke-width="1" stroke-linecap="square" stroke-linejoin="bevel" transform="matrix(1,0,0,1,0,0)"
font-family="Inter" font-size="11" font-weight="700" font-style="normal" 
>
<polyline fill="none" vector-effect="none" points="45,11 45,31 " />
</g>

<g fill="#ffffff" fill-opacity="1" stroke="#0070ba" stroke-opacity="1" stroke-width="1" stroke-linecap="square" stroke-linejoin="bevel" transform="matrix(1,0,0,1,0,0)"
font-family="Inter" font-size="11" font-weight="700" font-style="normal" 
>
</g>

<g fill="#0090f5" fill-opacity="1" stroke="#0070ba" stroke-opacity="1" stroke-width="1.2" stroke-linecap="square" stroke-linejoin="bevel" transform="matrix(1,0,0,1,56,6)"
font-family="Inter" font-size="11" font-weight="700" font-style="normal" 
>
<path vector-effect="none" fill-rule="evenodd" d="M0.5,3.5 C0.5,1.84315 1.84315,0.5 3.5,0.5 L81.5,0.5 C83.1569,0.5 84.5,1.84315 84.5,3.5 L84.5,20.5 C84.5,22.1569 83.1569,23.5 81.5,23.5 L3.5,23.5 C1.84315,23.5 0.5,22.1569 0.5,20.5 L0.5,3.5"/>
</g>

<g fill="#ffffff" fill-opacity="1" stroke="none" transform="matrix(1,0,0,1,56,6)"
font-family="Inter" font-size="11" font-weight="700" font-style="normal" 
>
<path vector-effect="none" fill-rule="nonzero" d="M10,9.39453 L10,8 L16.5703,8 L16.5703,9.39453 L14.1211,9.39453 L14.1211,16 L12.4492,16 L12.4492,9.39453 L10,9.39453 M17.6484,16 L17.6484,8 L19.3398,8 L19.3398,11.3008 L22.7734,11.3008 L22.7734,8 L24.4609,8 L24.4609,16 L22.7734,16 L22.7734,12.6953 L19.3398,12.6953 L19.3398,16 L17.6484,16 M25.8516,8 L27.9375,8 L30.1406,13.375 L30.2344,13.375 L32.4375,8 L34.5234,8 L34.5234,16 L32.8828,16 L32.8828,10.793 L32.8164,10.793 L30.7461,15.9609 L29.6289,15.9609 L27.5586,10.7734 L27.4922,10.7734 L27.4922,16 L25.8516,16 L25.8516,8 M37.3594,8 L39.293,14.0781 L39.3672,14.0781 L41.3047,8 L43.1797,8 L40.4219,16 L38.2422,16 L35.4805,8 L37.3594,8 M44.1328,16 L44.1328,8 L45.8242,8 L45.8242,11.3008 L49.2578,11.3008 L49.2578,8 L50.9453,8 L50.9453,16 L49.2578,16 L49.2578,12.6953 L45.8242,12.6953 L45.8242,16 L44.1328,16 M52.3359,16 L52.3359,8 L55.5391,8 C56.1276,8 56.6185,8.08724 57.0117,8.26172 C57.4049,8.4362 57.7005,8.67773 57.8984,8.98633 C58.0964,9.29492 58.1953,9.64974 58.1953,10.0508 C58.1953,10.3633 58.1328,10.6374 58.0078,10.873 C57.8828,11.1087 57.7116,11.3014 57.4941,11.4512 C57.2767,11.6009 57.0286,11.707 56.75,11.7695 L56.75,11.8477 C57.0547,11.8607 57.3405,11.9466 57.6074,12.1055 C57.8743,12.2643 58.0911,12.4863 58.2578,12.7715 C58.4245,13.0566 58.5078,13.3958 58.5078,13.7891 C58.5078,14.2135 58.403,14.5918 58.1934,14.9238 C57.9837,15.2559 57.6745,15.5182 57.2656,15.7109 C56.8568,15.9036 56.3529,16 55.7539,16 L52.3359,16 M54.0273,14.6172 L55.4063,14.6172 C55.8776,14.6172 56.2214,14.5267 56.4375,14.3457 C56.6536,14.1647 56.7617,13.9232 56.7617,13.6211 C56.7617,13.3997 56.7083,13.2044 56.6016,13.0352 C56.4948,12.8659 56.3431,12.7331 56.1465,12.6367 C55.9499,12.5404 55.7161,12.4922 55.4453,12.4922 L54.0273,12.4922 L54.0273,14.6172 M54.0273,11.3477 L55.2813,11.3477 C55.513,11.3477 55.7194,11.3066 55.9004,11.2246 C56.0814,11.1426 56.2246,11.026 56.3301,10.875 C56.4355,10.724 56.4883,10.543 56.4883,10.332 C56.4883,10.043 56.3861,9.8099 56.1816,9.63281 C55.9772,9.45573 55.6875,9.36719 55.3125,9.36719 L54.0273,9.36719 L54.0273,11.3477 M63.0352,8 L63.0352,16 L61.3438,16 L61.3438,9.60547 L61.2969,9.60547 L59.4648,10.7539 L59.4648,9.25391 L61.4453,8 L63.0352,8"/>
</g>

<g fill="#ffffff" fill-opacity="1" stroke="none" transform="matrix(0.03125,0,0,0.03125,127,14)"
font-family="Inter" font-size="11" font-weight="700" font-style="normal" 
>
<path vector-effect="none" fill-rule="nonzero" d="M111.326,191.938 C120.545,201.158 135.517,201.158 144.737,191.938 L239.144,97.5313 C245.929,90.7458 247.921,80.6413 244.233,71.7907 C240.545,62.9401 231.989,57.1871 222.401,57.1871 L33.5875,57.2608 C24.0731,57.2608 15.4437,63.0137 11.7559,71.8644 C8.06815,80.715 10.1333,90.8195 16.845,97.605 L111.252,192.012 L111.326,191.938"/>
</g>

<g fill="none" stroke="#000000" stroke-opacity="1" stroke-width="13.7195" stroke-linecap="butt" stroke-linejoin="miter" stroke-miterlimit="4" transform="matrix(0.03125,0,0,0.03125,127,14)"
font-family="Inter" font-size="11" font-weight="700" font-style="normal" 
>
<path vector-effect="none" fill-rule="nonzero" d="M111.326,191.938 C120.545,201.158 135.517,201.158 144.737,191.938 L239.144,97.5313 C245.929,90.7458 247.921,80.6413 244.233,71.7907 C240.545,62.9401 231.989,57.1871 222.401,57.1871 L33.5875,57.2608 C24.0731,57.2608 15.4437,63.0137 11.7559,71.8644 C8.06815,80.715 10.1333,90.8195 16.845,97.605 L111.252,192.012 L111.326,191.938"/>
</g>

<g fill="#ffffff" fill-opacity="1" stroke="none" transform="matrix(1,0,0,1,56,6)"
font-family="Inter" font-size="11" font-weight="700" font-style="normal" 
>
</g>

<g fill="#ffffff" fill-opacity="1" stroke="#0070ba" stroke-opacity="1" stroke-width="1" stroke-linecap="square" stroke-linejoin="bevel" transform="matrix(1,0,0,1,0,0)"
font-family="Inter" font-size="11" font-weight="700" font-style="normal" 
>
</g>

<g fill="#ffffff" fill-opacity="1" stroke="#0070ba" stroke-opacity="1" stroke-width="1" stroke-linecap="square" stroke-linejoin="bevel" transform="matrix(1,0,0,1,0,0)"
font-family="Inter" font-size="11" font-weight="700" font-style="normal" 
>
</g>

<g fill="none" stroke="#000000" stroke-opacity="1" stroke-width="1" stroke-linecap="square" stroke-linejoin="bevel" transform="matrix(1,0,0,1,0,0)"
font-family=".AppleSystemUIFont" font-size="13" font-weight="400" font-style="normal" 
>
</g>
</g>
</svg>
