<?xml version="1.0" encoding="UTF-8" standalone="no"?>
<svg width="25.4mm" height="15.5222mm"
 viewBox="0 0 72 44"
 xmlns="http://www.w3.org/2000/svg" xmlns:xlink="http://www.w3.org/1999/xlink" version="1.2" baseProfile="tiny">
<title>Abstract block</title>
<desc>block_myblock_1775758091855</desc>
<defs>
</defs>
<g fill="none" stroke="black" stroke-width="1" fill-rule="evenodd" stroke-linecap="square" stroke-linejoin="bevel" >

<g fill="none" stroke="#000000" stroke-opacity="1" stroke-width="1" stroke-linecap="square" stroke-linejoin="bevel" transform="matrix(1,0,0,1,0,0)"
font-family=".AppleSystemUIFont" font-size="13" font-weight="400" font-style="normal" 
>
</g>

<g fill="none" stroke="#000000" stroke-opacity="1" stroke-width="1" stroke-linecap="square" stroke-linejoin="bevel" transform="matrix(1,0,0,1,0,0)"
font-family=".AppleSystemUIFont" font-size="13" font-weight="400" font-style="normal" 
>
</g>

<g fill="#ff6680" fill-opacity="1" stroke="#ff2b52" stroke-opacity="1" stroke-width="1.2" stroke-linecap="square" stroke-linejoin="bevel" transform="matrix(1,0,0,1,0,0)"
font-family=".AppleSystemUIFont" font-size="13" font-weight="400" font-style="normal" 
>
<path vector-effect="none" fill-rule="evenodd" d="M0.5,4.5 L1.04612,2.48112 L2.48112,1.04612 L4.5,0.5 L9.625,0.5 L10.416,0.976563 L11.1719,1.6875 L11.998,2.67969 L13,4 L13.7559,4.66016 L14.5469,5.15625 L15.4082,5.51172 L16.375,5.75 L17.4824,5.89453 L18.7656,5.96875 L20.2598,5.99609 L22,6 L23.7402,5.99609 L25.2344,5.96875 L26.5176,5.89453 L27.625,5.75 L28.5918,5.51172 L29.4531,5.15625 L30.2441,4.66016 L31,4 L32.002,2.67969 L32.8281,1.6875 L33.584,0.976563 L34.375,0.5 L67.5,0.5 L69.5189,1.04612 L70.9539,2.48112 L71.5,4.5 L71.5,31.5 L70.9539,33.5189 L69.5189,34.9539 L67.5,35.5 L34.375,35.5 L33.584,35.9766 L32.8281,36.6875 L32.002,37.6797 L31,39 L30.2441,39.6602 L29.4531,40.1563 L28.5918,40.5117 L27.625,40.75 L26.5176,40.8945 L25.2344,40.9688 L23.7402,40.9961 L22,41 L20.2598,40.9961 L18.7656,40.9688 L17.4824,40.8945 L16.375,40.75 L15.4082,40.5117 L14.5469,40.1563 L13.7559,39.6602 L13,39 L11.998,37.6797 L11.1719,36.6875 L10.416,35.9766 L9.625,35.5 L4.5,35.5 L2.48112,34.9539 L1.04612,33.5189 L0.5,31.5 L0.5,4.5"/>
</g>

<g fill="#ffffff" fill-opacity="1" stroke="none" transform="matrix(1,0,0,1,0,0)"
font-family="Inter" font-size="11" font-weight="700" font-style="normal" 
>
<path vector-effect="none" fill-rule="nonzero" d="M11.9922,20.875 L11.9922,14.875 L13.5781,14.875 L13.5781,15.9336 L13.6484,15.9336 C13.7734,15.582 13.9818,15.3047 14.2734,15.1016 C14.5651,14.8984 14.9141,14.7969 15.3203,14.7969 C15.7318,14.7969 16.082,14.8991 16.3711,15.1035 C16.6602,15.3079 16.8529,15.5846 16.9492,15.9336 L17.0117,15.9336 C17.1341,15.5898 17.3561,15.3145 17.6777,15.1074 C17.9993,14.9004 18.3802,14.7969 18.8203,14.7969 C19.3802,14.7969 19.8353,14.9746 20.1855,15.3301 C20.5358,15.6855 20.7109,16.1888 20.7109,16.8398 L20.7109,20.875 L19.0508,20.875 L19.0508,17.168 C19.0508,16.8346 18.9622,16.5846 18.7852,16.418 C18.6081,16.2513 18.3867,16.168 18.1211,16.168 C17.819,16.168 17.5833,16.2637 17.4141,16.4551 C17.2448,16.6465 17.1602,16.8984 17.1602,17.2109 L17.1602,20.875 L15.5469,20.875 L15.5469,17.1328 C15.5469,16.8385 15.4629,16.6042 15.2949,16.4297 C15.127,16.2552 14.9063,16.168 14.6328,16.168 C14.4479,16.168 14.2819,16.2142 14.1348,16.3066 C13.9876,16.3991 13.8711,16.528 13.7852,16.6934 C13.6992,16.8587 13.6563,17.0521 13.6563,17.2734 L13.6563,20.875 L11.9922,20.875 M22.832,23.125 C22.6211,23.125 22.4238,23.1087 22.2402,23.0762 C22.0566,23.0436 21.9049,23.0026 21.7852,22.9531 L22.1602,21.7109 C22.3555,21.7708 22.5319,21.8034 22.6895,21.8086 C22.847,21.8138 22.9837,21.7773 23.0996,21.6992 C23.2155,21.6211 23.3099,21.4883 23.3828,21.3008 L23.4805,21.0469 L21.3281,14.875 L23.0781,14.875 L24.3203,19.2813 L24.3828,19.2813 L25.6367,14.875 L27.3984,14.875 L25.0664,21.5234 C24.9544,21.8464 24.8027,22.1283 24.6113,22.3691 C24.4199,22.61 24.1784,22.7962 23.8867,22.9277 C23.5951,23.0592 23.2435,23.125 22.832,23.125 M30.8203,20.875 L30.8203,12.875 L32.4844,12.875 L32.4844,15.8828 L32.5352,15.8828 C32.6081,15.7214 32.7142,15.5566 32.8535,15.3887 C32.9928,15.2207 33.1751,15.0801 33.4004,14.9668 C33.6257,14.8535 33.9063,14.7969 34.2422,14.7969 C34.6797,14.7969 35.0833,14.9108 35.4531,15.1387 C35.8229,15.3665 36.1185,15.709 36.3398,16.166 C36.5612,16.623 36.6719,17.1953 36.6719,17.8828 C36.6719,18.5521 36.5645,19.1165 36.3496,19.5762 C36.1348,20.0358 35.8431,20.3835 35.4746,20.6191 C35.1061,20.8548 34.694,20.9727 34.2383,20.9727 C33.9154,20.9727 33.6413,20.9193 33.416,20.8125 C33.1908,20.7057 33.0065,20.571 32.8633,20.4082 C32.7201,20.2454 32.6107,20.0807 32.5352,19.9141 L32.4609,19.9141 L32.4609,20.875 L30.8203,20.875 M32.4492,17.875 C32.4492,18.2318 32.4987,18.543 32.5977,18.8086 C32.6966,19.0742 32.8398,19.2806 33.0273,19.4277 C33.2148,19.5749 33.4427,19.6484 33.7109,19.6484 C33.9818,19.6484 34.2109,19.5736 34.3984,19.4238 C34.5859,19.2741 34.7285,19.0658 34.8262,18.7988 C34.9238,18.5319 34.9727,18.224 34.9727,17.875 C34.9727,17.5286 34.9245,17.224 34.8281,16.9609 C34.7318,16.6979 34.5898,16.4922 34.4023,16.3438 C34.2148,16.1953 33.9844,16.1211 33.7109,16.1211 C33.4401,16.1211 33.2116,16.1927 33.0254,16.3359 C32.8392,16.4792 32.6966,16.6823 32.5977,16.9453 C32.4987,17.2083 32.4492,17.5182 32.4492,17.875 M39.4375,12.875 L39.4375,20.875 L37.7734,20.875 L37.7734,12.875 L39.4375,12.875 M43.4688,20.9922 C42.862,20.9922 42.3379,20.8626 41.8965,20.6035 C41.4551,20.3444 41.1146,19.9824 40.875,19.5176 C40.6354,19.0527 40.5156,18.513 40.5156,17.8984 C40.5156,17.2786 40.6354,16.7363 40.875,16.2715 C41.1146,15.8066 41.4551,15.4447 41.8965,15.1855 C42.3379,14.9264 42.862,14.7969 43.4688,14.7969 C44.0755,14.7969 44.5996,14.9264 45.041,15.1855 C45.4824,15.4447 45.8229,15.8066 46.0625,16.2715 C46.3021,16.7363 46.4219,17.2786 46.4219,17.8984 C46.4219,18.513 46.3021,19.0527 46.0625,19.5176 C45.8229,19.9824 45.4824,20.3444 45.041,20.6035 C44.5996,20.8626 44.0755,20.9922 43.4688,20.9922 M43.4766,19.7031 C43.7526,19.7031 43.9831,19.6243 44.168,19.4668 C44.3529,19.3092 44.4928,19.0938 44.5879,18.8203 C44.6829,18.5469 44.7305,18.2357 44.7305,17.8867 C44.7305,17.5378 44.6829,17.2266 44.5879,16.9531 C44.4928,16.6797 44.3529,16.4635 44.168,16.3047 C43.9831,16.1458 43.7526,16.0664 43.4766,16.0664 C43.1979,16.0664 42.9642,16.1458 42.7754,16.3047 C42.5866,16.4635 42.4447,16.6797 42.3496,16.9531 C42.2546,17.2266 42.207,17.5378 42.207,17.8867 C42.207,18.2357 42.2546,18.5469 42.3496,18.8203 C42.4447,19.0938 42.5866,19.3092 42.7754,19.4668 C42.9642,19.6243 43.1979,19.7031 43.4766,19.7031 M50.2188,20.9922 C49.6042,20.9922 49.0762,20.8613 48.6348,20.5996 C48.1934,20.3379 47.8548,19.974 47.6191,19.5078 C47.3835,19.0417 47.2656,18.5052 47.2656,17.8984 C47.2656,17.2839 47.3848,16.7441 47.623,16.2793 C47.8613,15.8145 48.2005,15.4512 48.6406,15.1895 C49.0807,14.9277 49.6042,14.7969 50.2109,14.7969 C50.7344,14.7969 51.1927,14.8919 51.5859,15.082 C51.9792,15.2721 52.2904,15.5391 52.5195,15.8828 C52.7487,16.2266 52.875,16.6302 52.8984,17.0938 L51.3281,17.0938 C51.2839,16.7943 51.1673,16.5527 50.9785,16.3691 C50.7897,16.1855 50.543,16.0938 50.2383,16.0938 C49.9805,16.0938 49.7559,16.1634 49.5645,16.3027 C49.373,16.4421 49.224,16.6445 49.1172,16.9102 C49.0104,17.1758 48.957,17.4974 48.957,17.875 C48.957,18.2578 49.0098,18.5833 49.1152,18.8516 C49.2207,19.1198 49.3698,19.3242 49.5625,19.4648 C49.7552,19.6055 49.9805,19.6758 50.2383,19.6758 C50.4284,19.6758 50.5996,19.6367 50.752,19.5586 C50.9043,19.4805 51.0306,19.3665 51.1309,19.2168 C51.2311,19.0671 51.2969,18.8867 51.3281,18.6758 L52.8984,18.6758 C52.8724,19.1341 52.748,19.5371 52.5254,19.8848 C52.3027,20.2324 51.9961,20.5039 51.6055,20.6992 C51.2148,20.8945 50.7526,20.9922 50.2188,20.9922 M55.4688,19.1484 L55.4727,17.1523 L55.7148,17.1523 L57.6367,14.875 L59.5469,14.875 L56.9648,17.8906 L56.5703,17.8906 L55.4688,19.1484 M53.9609,20.875 L53.9609,12.875 L55.625,12.875 L55.625,20.875 L53.9609,20.875 M57.7109,20.875 L55.9453,18.2617 L57.0547,17.0859 L59.6602,20.875 L57.7109,20.875"/>
</g>

<g fill="#ffffff" fill-opacity="1" stroke="none" transform="matrix(1,0,0,1,0,0)"
font-family="Inter" font-size="11" font-weight="700" font-style="normal" 
>
</g>

<g fill="#ffffff" fill-opacity="1" stroke="none" transform="matrix(1,0,0,1,0,0)"
font-family="Inter" font-size="11" font-weight="700" font-style="normal" 
>
</g>

<g fill="none" stroke="#000000" stroke-opacity="1" stroke-width="1" stroke-linecap="square" stroke-linejoin="bevel" transform="matrix(1,0,0,1,0,0)"
font-family=".AppleSystemUIFont" font-size="13" font-weight="400" font-style="normal" 
>
</g>
</g>
</svg>
