<?xml version="1.0" encoding="UTF-8" standalone="no"?>
<svg width="76.2mm" height="15.5222mm"
 viewBox="0 0 216 44"
 xmlns="http://www.w3.org/2000/svg" xmlns:xlink="http://www.w3.org/1999/xlink" version="1.2" baseProfile="tiny">
<title>Abstract block</title>
<desc>block_event_broadcast_and_wait</desc>
<defs>
</defs>
<g fill="none" stroke="black" stroke-width="1" fill-rule="evenodd" stroke-linecap="square" stroke-linejoin="bevel" >

<g fill="none" stroke="#000000" stroke-opacity="1" stroke-width="1" stroke-linecap="square" stroke-linejoin="bevel" transform="matrix(1,0,0,1,0,0)"
font-family=".AppleSystemUIFont" font-size="13" font-weight="400" font-style="normal" 
>
</g>

<g fill="none" stroke="#000000" stroke-opacity="1" stroke-width="1" stroke-linecap="square" stroke-linejoin="bevel" transform="matrix(1,0,0,1,0,0)"
font-family=".AppleSystemUIFont" font-size="13" font-weight="400" font-style="normal" 
>
</g>

<g fill="#f5c400" fill-opacity="1" stroke="#ba9500" stroke-opacity="1" stroke-width="1.2" stroke-linecap="square" stroke-linejoin="bevel" transform="matrix(1,0,0,1,0,0)"
font-family=".AppleSystemUIFont" font-size="13" font-weight="400" font-style="normal" 
>
<path vector-effect="none" fill-rule="evenodd" d="M0.5,4.5 L1.04612,2.48112 L2.48112,1.04612 L4.5,0.5 L9.625,0.5 L10.416,0.976563 L11.1719,1.6875 L11.998,2.67969 L13,4 L13.7559,4.66016 L14.5469,5.15625 L15.4082,5.51172 L16.375,5.75 L17.4824,5.89453 L18.7656,5.96875 L20.2598,5.99609 L22,6 L23.7402,5.99609 L25.2344,5.96875 L26.5176,5.89453 L27.625,5.75 L28.5918,5.51172 L29.4531,5.15625 L30.2441,4.66016 L31,4 L32.002,2.67969 L32.8281,1.6875 L33.584,0.976563 L34.375,0.5 L211.5,0.5 L213.519,1.04612 L214.954,2.48112 L215.5,4.5 L215.5,31.5 L214.954,33.5189 L213.519,34.9539 L211.5,35.5 L34.375,35.5 L33.584,35.9766 L32.8281,36.6875 L32.002,37.6797 L31,39 L30.2441,39.6602 L29.4531,40.1563 L28.5918,40.5117 L27.625,40.75 L26.5176,40.8945 L25.2344,40.9688 L23.7402,40.9961 L22,41 L20.2598,40.9961 L18.7656,40.9688 L17.4824,40.8945 L16.375,40.75 L15.4082,40.5117 L14.5469,40.1563 L13.7559,39.6602 L13,39 L11.998,37.6797 L11.1719,36.6875 L10.416,35.9766 L9.625,35.5 L4.5,35.5 L2.48112,34.9539 L1.04612,33.5189 L0.5,31.5 L0.5,4.5"/>
</g>

<g fill="#ffffff" fill-opacity="1" stroke="none" transform="matrix(1,0,0,1,0,0)"
font-family="Inter" font-size="11" font-weight="700" font-style="normal" 
>
<path vector-effect="none" fill-rule="nonzero" d="M11.9922,21.7344 L11.9922,13.7344 L13.6563,13.7344 L13.6563,16.7422 L13.707,16.7422 C13.7799,16.5807 13.8861,16.416 14.0254,16.248 C14.1647,16.0801 14.347,15.9395 14.5723,15.8262 C14.7975,15.7129 15.0781,15.6563 15.4141,15.6563 C15.8516,15.6563 16.2552,15.7702 16.625,15.998 C16.9948,16.2259 17.2904,16.5684 17.5117,17.0254 C17.7331,17.4824 17.8438,18.0547 17.8438,18.7422 C17.8438,19.4115 17.7363,19.9759 17.5215,20.4355 C17.3066,20.8952 17.015,21.2428 16.6465,21.4785 C16.278,21.7142 15.8659,21.832 15.4102,21.832 C15.0872,21.832 14.8132,21.7786 14.5879,21.6719 C14.3626,21.5651 14.1784,21.4303 14.0352,21.2676 C13.8919,21.1048 13.7826,20.9401 13.707,20.7734 L13.6328,20.7734 L13.6328,21.7344 L11.9922,21.7344 M13.6211,18.7344 C13.6211,19.0911 13.6706,19.4023 13.7695,19.668 C13.8685,19.9336 14.0117,20.14 14.1992,20.2871 C14.3867,20.4342 14.6146,20.5078 14.8828,20.5078 C15.1536,20.5078 15.3828,20.4329 15.5703,20.2832 C15.7578,20.1335 15.9004,19.9251 15.998,19.6582 C16.0957,19.3913 16.1445,19.0833 16.1445,18.7344 C16.1445,18.388 16.0964,18.0833 16,17.8203 C15.9036,17.5573 15.7617,17.3516 15.5742,17.2031 C15.3867,17.0547 15.1563,16.9805 14.8828,16.9805 C14.612,16.9805 14.3835,17.0521 14.1973,17.1953 C14.0111,17.3385 13.8685,17.5417 13.7695,17.8047 C13.6706,18.0677 13.6211,18.3776 13.6211,18.7344 M18.9453,21.7344 L18.9453,15.7344 L20.5586,15.7344 L20.5586,16.7813 L20.6211,16.7813 C20.7305,16.4089 20.9141,16.127 21.1719,15.9355 C21.4297,15.7441 21.7266,15.6484 22.0625,15.6484 C22.1458,15.6484 22.2357,15.6536 22.332,15.6641 C22.4284,15.6745 22.513,15.6888 22.5859,15.707 L22.5859,17.1836 C22.5078,17.1602 22.3997,17.1393 22.2617,17.1211 C22.1237,17.1029 21.9974,17.0938 21.8828,17.0938 C21.638,17.0938 21.4199,17.1465 21.2285,17.252 C21.0371,17.3574 20.8861,17.5039 20.7754,17.6914 C20.6647,17.8789 20.6094,18.0951 20.6094,18.3398 L20.6094,21.7344 L18.9453,21.7344 M25.8594,21.8516 C25.2526,21.8516 24.7285,21.722 24.2871,21.4629 C23.8457,21.2038 23.5052,20.8418 23.2656,20.377 C23.026,19.9121 22.9063,19.3724 22.9063,18.7578 C22.9063,18.138 23.026,17.5957 23.2656,17.1309 C23.5052,16.666 23.8457,16.304 24.2871,16.0449 C24.7285,15.7858 25.2526,15.6563 25.8594,15.6563 C26.4661,15.6563 26.9902,15.7858 27.4316,16.0449 C27.873,16.304 28.2135,16.666 28.4531,17.1309 C28.6927,17.5957 28.8125,18.138 28.8125,18.7578 C28.8125,19.3724 28.6927,19.9121 28.4531,20.377 C28.2135,20.8418 27.873,21.2038 27.4316,21.4629 C26.9902,21.722 26.4661,21.8516 25.8594,21.8516 M25.8672,20.5625 C26.1432,20.5625 26.3737,20.4837 26.5586,20.3262 C26.7435,20.1686 26.8835,19.9531 26.9785,19.6797 C27.0736,19.4063 27.1211,19.0951 27.1211,18.7461 C27.1211,18.3971 27.0736,18.0859 26.9785,17.8125 C26.8835,17.5391 26.7435,17.3229 26.5586,17.1641 C26.3737,17.0052 26.1432,16.9258 25.8672,16.9258 C25.5885,16.9258 25.3548,17.0052 25.166,17.1641 C24.9772,17.3229 24.8353,17.5391 24.7402,17.8125 C24.6452,18.0859 24.5977,18.3971 24.5977,18.7461 C24.5977,19.0951 24.6452,19.4063 24.7402,19.6797 C24.8353,19.9531 24.9772,20.1686 25.166,20.3262 C25.3548,20.4837 25.5885,20.5625 25.8672,20.5625 M31.6094,21.8477 C31.2266,21.8477 30.8854,21.7806 30.5859,21.6465 C30.2865,21.5124 30.0501,21.3132 29.877,21.0488 C29.7038,20.7845 29.6172,20.4544 29.6172,20.0586 C29.6172,19.7253 29.6784,19.4453 29.8008,19.2188 C29.9232,18.9922 30.0898,18.8099 30.3008,18.6719 C30.5117,18.5339 30.752,18.4297 31.0215,18.3594 C31.291,18.2891 31.5742,18.2396 31.8711,18.2109 C32.2201,18.1745 32.5013,18.14 32.7148,18.1074 C32.9284,18.0749 33.0833,18.026 33.1797,17.9609 C33.276,17.8958 33.3242,17.7995 33.3242,17.6719 L33.3242,17.6484 C33.3242,17.401 33.2467,17.2096 33.0918,17.0742 C32.9368,16.9388 32.7174,16.8711 32.4336,16.8711 C32.1341,16.8711 31.8958,16.9368 31.7188,17.0684 C31.5417,17.1999 31.4245,17.3646 31.3672,17.5625 L29.8281,17.4375 C29.9063,17.0729 30.0599,16.7572 30.2891,16.4902 C30.5182,16.2233 30.8145,16.0176 31.1777,15.873 C31.541,15.7285 31.9622,15.6563 32.4414,15.6563 C32.7747,15.6563 33.0944,15.6953 33.4004,15.7734 C33.7064,15.8516 33.9785,15.9727 34.2168,16.1367 C34.4551,16.3008 34.6432,16.5111 34.7813,16.7676 C34.9193,17.0241 34.9883,17.3307 34.9883,17.6875 L34.9883,21.7344 L33.4102,21.7344 L33.4102,20.9023 L33.3633,20.9023 C33.2669,21.0898 33.138,21.2546 32.9766,21.3965 C32.8151,21.5384 32.6211,21.6491 32.3945,21.7285 C32.168,21.8079 31.9063,21.8477 31.6094,21.8477 M32.0859,20.6992 C32.3307,20.6992 32.5469,20.6504 32.7344,20.5527 C32.9219,20.4551 33.069,20.3229 33.1758,20.1563 C33.2826,19.9896 33.3359,19.8008 33.3359,19.5898 L33.3359,18.9531 C33.2839,18.987 33.2129,19.0176 33.123,19.0449 C33.0332,19.0723 32.9323,19.097 32.8203,19.1191 C32.7083,19.1413 32.5964,19.1608 32.4844,19.1777 C32.3724,19.1947 32.2708,19.2096 32.1797,19.2227 C31.9844,19.2513 31.8138,19.2969 31.668,19.3594 C31.5221,19.4219 31.4089,19.5059 31.3281,19.6113 C31.2474,19.7168 31.207,19.8477 31.207,20.0039 C31.207,20.2305 31.2897,20.403 31.4551,20.5215 C31.6204,20.64 31.8307,20.6992 32.0859,20.6992 M38.4844,21.832 C38.0286,21.832 37.6165,21.7142 37.248,21.4785 C36.8796,21.2428 36.5879,20.8952 36.373,20.4355 C36.1582,19.9759 36.0508,19.4115 36.0508,18.7422 C36.0508,18.0547 36.1615,17.4824 36.3828,17.0254 C36.6042,16.5684 36.8991,16.2259 37.2676,15.998 C37.6361,15.7702 38.0404,15.6563 38.4805,15.6563 C38.8164,15.6563 39.097,15.7129 39.3223,15.8262 C39.5475,15.9395 39.7298,16.0801 39.8691,16.248 C40.0085,16.416 40.1146,16.5807 40.1875,16.7422 L40.2383,16.7422 L40.2383,13.7344 L41.8984,13.7344 L41.8984,21.7344 L40.2578,21.7344 L40.2578,20.7734 L40.1875,20.7734 C40.1094,20.9401 39.9993,21.1048 39.8574,21.2676 C39.7155,21.4303 39.5319,21.5651 39.3066,21.6719 C39.0814,21.7786 38.8073,21.832 38.4844,21.832 M39.0117,20.5078 C39.2799,20.5078 39.5072,20.4342 39.6934,20.2871 C39.8796,20.14 40.0228,19.9336 40.123,19.668 C40.2233,19.4023 40.2734,19.0911 40.2734,18.7344 C40.2734,18.3776 40.224,18.0677 40.125,17.8047 C40.026,17.5417 39.8828,17.3385 39.6953,17.1953 C39.5078,17.0521 39.2799,16.9805 39.0117,16.9805 C38.7383,16.9805 38.5078,17.0547 38.3203,17.2031 C38.1328,17.3516 37.9909,17.5573 37.8945,17.8203 C37.7982,18.0833 37.75,18.388 37.75,18.7344 C37.75,19.0833 37.7988,19.3913 37.8965,19.6582 C37.9941,19.9251 38.1361,20.1335 38.3223,20.2832 C38.5085,20.4329 38.7383,20.5078 39.0117,20.5078 M45.9688,21.8516 C45.3542,21.8516 44.8262,21.7207 44.3848,21.459 C43.9434,21.1973 43.6048,20.8333 43.3691,20.3672 C43.1335,19.901 43.0156,19.3646 43.0156,18.7578 C43.0156,18.1432 43.1348,17.6035 43.373,17.1387 C43.6113,16.6738 43.9505,16.3105 44.3906,16.0488 C44.8307,15.7871 45.3542,15.6563 45.9609,15.6563 C46.4844,15.6563 46.9427,15.7513 47.3359,15.9414 C47.7292,16.1315 48.0404,16.3984 48.2695,16.7422 C48.4987,17.0859 48.625,17.4896 48.6484,17.9531 L47.0781,17.9531 C47.0339,17.6536 46.9173,17.4121 46.7285,17.2285 C46.5397,17.0449 46.293,16.9531 45.9883,16.9531 C45.7305,16.9531 45.5059,17.0228 45.3145,17.1621 C45.123,17.3014 44.974,17.5039 44.8672,17.7695 C44.7604,18.0352 44.707,18.3568 44.707,18.7344 C44.707,19.1172 44.7598,19.4427 44.8652,19.7109 C44.9707,19.9792 45.1198,20.1836 45.3125,20.3242 C45.5052,20.4648 45.7305,20.5352 45.9883,20.5352 C46.1784,20.5352 46.3496,20.4961 46.502,20.418 C46.6543,20.3398 46.7806,20.2259 46.8809,20.0762 C46.9811,19.9264 47.0469,19.7461 47.0781,19.5352 L48.6484,19.5352 C48.6224,19.9935 48.498,20.3965 48.2754,20.7441 C48.0527,21.0918 47.7461,21.3633 47.3555,21.5586 C46.9648,21.7539 46.5026,21.8516 45.9688,21.8516 M51.4219,21.8477 C51.0391,21.8477 50.6979,21.7806 50.3984,21.6465 C50.099,21.5124 49.8626,21.3132 49.6895,21.0488 C49.5163,20.7845 49.4297,20.4544 49.4297,20.0586 C49.4297,19.7253 49.4909,19.4453 49.6133,19.2188 C49.7357,18.9922 49.9023,18.8099 50.1133,18.6719 C50.3242,18.5339 50.5645,18.4297 50.834,18.3594 C51.1035,18.2891 51.3867,18.2396 51.6836,18.2109 C52.0326,18.1745 52.3138,18.14 52.5273,18.1074 C52.7409,18.0749 52.8958,18.026 52.9922,17.9609 C53.0885,17.8958 53.1367,17.7995 53.1367,17.6719 L53.1367,17.6484 C53.1367,17.401 53.0592,17.2096 52.9043,17.0742 C52.7493,16.9388 52.5299,16.8711 52.2461,16.8711 C51.9466,16.8711 51.7083,16.9368 51.5313,17.0684 C51.3542,17.1999 51.237,17.3646 51.1797,17.5625 L49.6406,17.4375 C49.7188,17.0729 49.8724,16.7572 50.1016,16.4902 C50.3307,16.2233 50.627,16.0176 50.9902,15.873 C51.3535,15.7285 51.7747,15.6563 52.2539,15.6563 C52.5872,15.6563 52.9069,15.6953 53.2129,15.7734 C53.5189,15.8516 53.791,15.9727 54.0293,16.1367 C54.2676,16.3008 54.4557,16.5111 54.5938,16.7676 C54.7318,17.0241 54.8008,17.3307 54.8008,17.6875 L54.8008,21.7344 L53.2227,21.7344 L53.2227,20.9023 L53.1758,20.9023 C53.0794,21.0898 52.9505,21.2546 52.7891,21.3965 C52.6276,21.5384 52.4336,21.6491 52.207,21.7285 C51.9805,21.8079 51.7188,21.8477 51.4219,21.8477 M51.8984,20.6992 C52.1432,20.6992 52.3594,20.6504 52.5469,20.5527 C52.7344,20.4551 52.8815,20.3229 52.9883,20.1563 C53.0951,19.9896 53.1484,19.8008 53.1484,19.5898 L53.1484,18.9531 C53.0964,18.987 53.0254,19.0176 52.9355,19.0449 C52.8457,19.0723 52.7448,19.097 52.6328,19.1191 C52.5208,19.1413 52.4089,19.1608 52.2969,19.1777 C52.1849,19.1947 52.0833,19.2096 51.9922,19.2227 C51.7969,19.2513 51.6263,19.2969 51.4805,19.3594 C51.3346,19.4219 51.2214,19.5059 51.1406,19.6113 C51.0599,19.7168 51.0195,19.8477 51.0195,20.0039 C51.0195,20.2305 51.1022,20.403 51.2676,20.5215 C51.4329,20.64 51.6432,20.6992 51.8984,20.6992 M61.0781,17.4453 L59.5547,17.5391 C59.5286,17.4089 59.4727,17.291 59.3867,17.1855 C59.3008,17.0801 59.1882,16.9954 59.0488,16.9316 C58.9095,16.8678 58.7435,16.8359 58.5508,16.8359 C58.293,16.8359 58.0755,16.89 57.8984,16.998 C57.7214,17.1061 57.6328,17.25 57.6328,17.4297 C57.6328,17.5729 57.6901,17.694 57.8047,17.793 C57.9193,17.8919 58.1159,17.9714 58.3945,18.0313 L59.4805,18.25 C60.0638,18.3698 60.4987,18.5625 60.7852,18.8281 C61.0716,19.0938 61.2148,19.4427 61.2148,19.875 C61.2148,20.2682 61.0996,20.6133 60.8691,20.9102 C60.6387,21.207 60.3236,21.4382 59.9238,21.6035 C59.5241,21.7689 59.0638,21.8516 58.543,21.8516 C57.7487,21.8516 57.1165,21.6855 56.6465,21.3535 C56.1764,21.0215 55.901,20.569 55.8203,19.9961 L57.457,19.9102 C57.5065,20.1523 57.6263,20.3366 57.8164,20.4629 C58.0065,20.5892 58.25,20.6523 58.5469,20.6523 C58.8385,20.6523 59.0736,20.5957 59.252,20.4824 C59.4303,20.3691 59.5208,20.2227 59.5234,20.043 C59.5208,19.8919 59.457,19.7676 59.332,19.6699 C59.207,19.5723 59.0143,19.4974 58.7539,19.4453 L57.7148,19.2383 C57.1289,19.1211 56.6934,18.918 56.4082,18.6289 C56.123,18.3398 55.9805,17.9714 55.9805,17.5234 C55.9805,17.138 56.0853,16.806 56.2949,16.5273 C56.5046,16.2487 56.8001,16.0339 57.1816,15.8828 C57.5632,15.7318 58.0104,15.6563 58.5234,15.6563 C59.2813,15.6563 59.8783,15.8164 60.3145,16.1367 C60.7507,16.457 61.0052,16.8932 61.0781,17.4453 M65.4492,15.7344 L65.4492,16.9844 L61.8359,16.9844 L61.8359,15.7344 L65.4492,15.7344 M62.6563,14.2969 L64.3203,14.2969 L64.3203,19.8906 C64.3203,20.0443 64.3438,20.1634 64.3906,20.248 C64.4375,20.3327 64.5033,20.3919 64.5879,20.4258 C64.6725,20.4596 64.7708,20.4766 64.8828,20.4766 C64.9609,20.4766 65.0391,20.4694 65.1172,20.4551 C65.1953,20.4408 65.2552,20.4297 65.2969,20.4219 L65.5586,21.6602 C65.4753,21.6862 65.3581,21.7168 65.207,21.752 C65.056,21.7871 64.8724,21.8086 64.6563,21.8164 C64.2552,21.832 63.9043,21.7786 63.6035,21.6563 C63.3027,21.5339 63.069,21.3438 62.9023,21.0859 C62.7357,20.8281 62.6536,20.5026 62.6563,20.1094 L62.6563,14.2969"/>
</g>

<g fill="#ffffff" fill-opacity="1" stroke="none" transform="matrix(1,0,0,1,0,0)"
font-family="Inter" font-size="11" font-weight="700" font-style="normal" 
>
<path vector-effect="none" fill-rule="nonzero" d="M159.328,22.0664 C158.945,22.0664 158.604,21.9993 158.305,21.8652 C158.005,21.7311 157.769,21.5319 157.596,21.2676 C157.423,21.0033 157.336,20.6732 157.336,20.2773 C157.336,19.944 157.397,19.6641 157.52,19.4375 C157.642,19.2109 157.809,19.0286 158.02,18.8906 C158.23,18.7526 158.471,18.6484 158.74,18.5781 C159.01,18.5078 159.293,18.4583 159.59,18.4297 C159.939,18.3932 160.22,18.3587 160.434,18.3262 C160.647,18.2936 160.802,18.2448 160.898,18.1797 C160.995,18.1146 161.043,18.0182 161.043,17.8906 L161.043,17.8672 C161.043,17.6198 160.965,17.4284 160.811,17.293 C160.656,17.1576 160.436,17.0898 160.152,17.0898 C159.853,17.0898 159.615,17.1556 159.438,17.2871 C159.26,17.4186 159.143,17.5833 159.086,17.7813 L157.547,17.6563 C157.625,17.2917 157.779,16.9759 158.008,16.709 C158.237,16.4421 158.533,16.2363 158.896,16.0918 C159.26,15.9473 159.681,15.875 160.16,15.875 C160.493,15.875 160.813,15.9141 161.119,15.9922 C161.425,16.0703 161.697,16.1914 161.936,16.3555 C162.174,16.5195 162.362,16.7298 162.5,16.9863 C162.638,17.2428 162.707,17.5495 162.707,17.9063 L162.707,21.9531 L161.129,21.9531 L161.129,21.1211 L161.082,21.1211 C160.986,21.3086 160.857,21.4733 160.695,21.6152 C160.534,21.7572 160.34,21.8678 160.113,21.9473 C159.887,22.0267 159.625,22.0664 159.328,22.0664 M159.805,20.918 C160.049,20.918 160.266,20.8691 160.453,20.7715 C160.641,20.6738 160.788,20.5417 160.895,20.375 C161.001,20.2083 161.055,20.0195 161.055,19.8086 L161.055,19.1719 C161.003,19.2057 160.932,19.2363 160.842,19.2637 C160.752,19.291 160.651,19.3158 160.539,19.3379 C160.427,19.36 160.315,19.3796 160.203,19.3965 C160.091,19.4134 159.99,19.4284 159.898,19.4414 C159.703,19.4701 159.533,19.5156 159.387,19.5781 C159.241,19.6406 159.128,19.7246 159.047,19.8301 C158.966,19.9355 158.926,20.0664 158.926,20.2227 C158.926,20.4492 159.008,20.6217 159.174,20.7402 C159.339,20.8587 159.549,20.918 159.805,20.918 M165.656,18.4844 L165.656,21.9531 L163.992,21.9531 L163.992,15.9531 L165.578,15.9531 L165.578,17.0117 L165.648,17.0117 C165.781,16.6628 166.004,16.3861 166.316,16.1816 C166.629,15.9772 167.008,15.875 167.453,15.875 C167.87,15.875 168.233,15.9661 168.543,16.1484 C168.853,16.3307 169.094,16.5905 169.266,16.9277 C169.438,17.265 169.523,17.6667 169.523,18.1328 L169.523,21.9531 L167.859,21.9531 L167.859,18.4297 C167.862,18.0625 167.768,17.7754 167.578,17.5684 C167.388,17.3613 167.126,17.2578 166.793,17.2578 C166.569,17.2578 166.372,17.306 166.201,17.4023 C166.031,17.4987 165.898,17.6387 165.803,17.8223 C165.708,18.0059 165.659,18.2266 165.656,18.4844 M173.031,22.0508 C172.576,22.0508 172.163,21.9329 171.795,21.6973 C171.426,21.4616 171.135,21.1139 170.92,20.6543 C170.705,20.1947 170.598,19.6302 170.598,18.9609 C170.598,18.2734 170.708,17.7012 170.93,17.2441 C171.151,16.7871 171.446,16.4447 171.814,16.2168 C172.183,15.9889 172.587,15.875 173.027,15.875 C173.363,15.875 173.644,15.9316 173.869,16.0449 C174.094,16.1582 174.277,16.2988 174.416,16.4668 C174.555,16.6348 174.661,16.7995 174.734,16.9609 L174.785,16.9609 L174.785,13.9531 L176.445,13.9531 L176.445,21.9531 L174.805,21.9531 L174.805,20.9922 L174.734,20.9922 C174.656,21.1589 174.546,21.3236 174.404,21.4863 C174.262,21.6491 174.079,21.7839 173.854,21.8906 C173.628,21.9974 173.354,22.0508 173.031,22.0508 M173.559,20.7266 C173.827,20.7266 174.054,20.653 174.24,20.5059 C174.426,20.3587 174.57,20.1523 174.67,19.8867 C174.77,19.6211 174.82,19.3099 174.82,18.9531 C174.82,18.5964 174.771,18.2865 174.672,18.0234 C174.573,17.7604 174.43,17.5573 174.242,17.4141 C174.055,17.2708 173.827,17.1992 173.559,17.1992 C173.285,17.1992 173.055,17.2734 172.867,17.4219 C172.68,17.5703 172.538,17.776 172.441,18.0391 C172.345,18.3021 172.297,18.6068 172.297,18.9531 C172.297,19.3021 172.346,19.61 172.443,19.877 C172.541,20.1439 172.683,20.3522 172.869,20.502 C173.055,20.6517 173.285,20.7266 173.559,20.7266 M181.535,21.9531 L179.902,15.9531 L181.586,15.9531 L182.516,19.9844 L182.57,19.9844 L183.539,15.9531 L185.191,15.9531 L186.176,19.9609 L186.227,19.9609 L187.141,15.9531 L188.82,15.9531 L187.191,21.9531 L185.43,21.9531 L184.398,18.1797 L184.324,18.1797 L183.293,21.9531 L181.535,21.9531 M191.406,22.0664 C191.023,22.0664 190.682,21.9993 190.383,21.8652 C190.083,21.7311 189.847,21.5319 189.674,21.2676 C189.501,21.0033 189.414,20.6732 189.414,20.2773 C189.414,19.944 189.475,19.6641 189.598,19.4375 C189.72,19.2109 189.887,19.0286 190.098,18.8906 C190.309,18.7526 190.549,18.6484 190.818,18.5781 C191.088,18.5078 191.371,18.4583 191.668,18.4297 C192.017,18.3932 192.298,18.3587 192.512,18.3262 C192.725,18.2936 192.88,18.2448 192.977,18.1797 C193.073,18.1146 193.121,18.0182 193.121,17.8906 L193.121,17.8672 C193.121,17.6198 193.044,17.4284 192.889,17.293 C192.734,17.1576 192.514,17.0898 192.23,17.0898 C191.931,17.0898 191.693,17.1556 191.516,17.2871 C191.339,17.4186 191.221,17.5833 191.164,17.7813 L189.625,17.6563 C189.703,17.2917 189.857,16.9759 190.086,16.709 C190.315,16.4421 190.611,16.2363 190.975,16.0918 C191.338,15.9473 191.759,15.875 192.238,15.875 C192.572,15.875 192.891,15.9141 193.197,15.9922 C193.503,16.0703 193.775,16.1914 194.014,16.3555 C194.252,16.5195 194.44,16.7298 194.578,16.9863 C194.716,17.2428 194.785,17.5495 194.785,17.9063 L194.785,21.9531 L193.207,21.9531 L193.207,21.1211 L193.16,21.1211 C193.064,21.3086 192.935,21.4733 192.773,21.6152 C192.612,21.7572 192.418,21.8678 192.191,21.9473 C191.965,22.0267 191.703,22.0664 191.406,22.0664 M191.883,20.918 C192.128,20.918 192.344,20.8691 192.531,20.7715 C192.719,20.6738 192.866,20.5417 192.973,20.375 C193.079,20.2083 193.133,20.0195 193.133,19.8086 L193.133,19.1719 C193.081,19.2057 193.01,19.2363 192.92,19.2637 C192.83,19.291 192.729,19.3158 192.617,19.3379 C192.505,19.36 192.393,19.3796 192.281,19.3965 C192.169,19.4134 192.068,19.4284 191.977,19.4414 C191.781,19.4701 191.611,19.5156 191.465,19.5781 C191.319,19.6406 191.206,19.7246 191.125,19.8301 C191.044,19.9355 191.004,20.0664 191.004,20.2227 C191.004,20.4492 191.087,20.6217 191.252,20.7402 C191.417,20.8587 191.628,20.918 191.883,20.918 M196.07,21.9531 L196.07,15.9531 L197.734,15.9531 L197.734,21.9531 L196.07,21.9531 M196.906,15.1797 C196.659,15.1797 196.447,15.097 196.271,14.9316 C196.096,14.7663 196.008,14.5677 196.008,14.3359 C196.008,14.1068 196.096,13.9095 196.271,13.7441 C196.447,13.5788 196.659,13.4961 196.906,13.4961 C197.154,13.4961 197.365,13.5788 197.541,13.7441 C197.717,13.9095 197.805,14.1068 197.805,14.3359 C197.805,14.5677 197.717,14.7663 197.541,14.9316 C197.365,15.097 197.154,15.1797 196.906,15.1797 M202.246,15.9531 L202.246,17.2031 L198.633,17.2031 L198.633,15.9531 L202.246,15.9531 M199.453,14.5156 L201.117,14.5156 L201.117,20.1094 C201.117,20.263 201.141,20.3822 201.188,20.4668 C201.234,20.5514 201.3,20.6107 201.385,20.6445 C201.469,20.6784 201.568,20.6953 201.68,20.6953 C201.758,20.6953 201.836,20.6882 201.914,20.6738 C201.992,20.6595 202.052,20.6484 202.094,20.6406 L202.355,21.8789 C202.272,21.9049 202.155,21.9355 202.004,21.9707 C201.853,22.0059 201.669,22.0273 201.453,22.0352 C201.052,22.0508 200.701,21.9974 200.4,21.875 C200.1,21.7526 199.866,21.5625 199.699,21.3047 C199.533,21.0469 199.451,20.7214 199.453,20.3281 L199.453,14.5156"/>
</g>

<g fill="#f5c400" fill-opacity="1" stroke="#ba9500" stroke-opacity="1" stroke-width="1.2" stroke-linecap="square" stroke-linejoin="bevel" transform="matrix(1,0,0,1,72,6)"
font-family="Inter" font-size="11" font-weight="700" font-style="normal" 
>
<path vector-effect="none" fill-rule="evenodd" d="M0.5,3.5 C0.5,1.84315 1.84315,0.5 3.5,0.5 L76,0.5 C77.6569,0.5 79,1.84315 79,3.5 L79,20.5 C79,22.1569 77.6569,23.5 76,23.5 L3.5,23.5 C1.84315,23.5 0.5,22.1569 0.5,20.5 L0.5,3.5"/>
</g>

<g fill="#ffffff" fill-opacity="1" stroke="none" transform="matrix(1,0,0,1,72,6)"
font-family="Inter" font-size="11" font-weight="700" font-style="normal" 
>
<path vector-effect="none" fill-rule="nonzero" d="M9.50781,13.8125 L9.50781,7.8125 L11.0938,7.8125 L11.0938,8.87109 L11.1641,8.87109 C11.2891,8.51953 11.4974,8.24219 11.7891,8.03906 C12.0807,7.83594 12.4297,7.73438 12.8359,7.73438 C13.2474,7.73438 13.5977,7.83659 13.8867,8.04102 C14.1758,8.24544 14.3685,8.52214 14.4648,8.87109 L14.5273,8.87109 C14.6497,8.52734 14.8717,8.25195 15.1934,8.04492 C15.515,7.83789 15.8958,7.73438 16.3359,7.73438 C16.8958,7.73438 17.3509,7.91211 17.7012,8.26758 C18.0514,8.62305 18.2266,9.1263 18.2266,9.77734 L18.2266,13.8125 L16.5664,13.8125 L16.5664,10.1055 C16.5664,9.77214 16.4779,9.52214 16.3008,9.35547 C16.1237,9.1888 15.9023,9.10547 15.6367,9.10547 C15.3346,9.10547 15.099,9.20117 14.9297,9.39258 C14.7604,9.58398 14.6758,9.83594 14.6758,10.1484 L14.6758,13.8125 L13.0625,13.8125 L13.0625,10.0703 C13.0625,9.77604 12.9785,9.54167 12.8105,9.36719 C12.6426,9.19271 12.4219,9.10547 12.1484,9.10547 C11.9635,9.10547 11.7975,9.15169 11.6504,9.24414 C11.5033,9.33659 11.3867,9.46549 11.3008,9.63086 C11.2148,9.79622 11.1719,9.98958 11.1719,10.2109 L11.1719,13.8125 L9.50781,13.8125 M22.2734,13.9297 C21.6563,13.9297 21.1257,13.804 20.6816,13.5527 C20.2376,13.3014 19.8958,12.9447 19.6563,12.4824 C19.4167,12.0202 19.2969,11.4727 19.2969,10.8398 C19.2969,10.2227 19.4167,9.68099 19.6563,9.21484 C19.8958,8.7487 20.2337,8.38542 20.6699,8.125 C21.1061,7.86458 21.6185,7.73438 22.207,7.73438 C22.6029,7.73438 22.972,7.79753 23.3145,7.92383 C23.6569,8.05013 23.9564,8.23958 24.2129,8.49219 C24.4694,8.74479 24.6693,9.06185 24.8125,9.44336 C24.9557,9.82487 25.0273,10.2708 25.0273,10.7813 L25.0273,11.2383 L19.9609,11.2383 L19.9609,10.207 L23.4609,10.207 C23.4609,9.96745 23.4089,9.75521 23.3047,9.57031 C23.2005,9.38542 23.0566,9.24023 22.873,9.13477 C22.6895,9.0293 22.4766,8.97656 22.2344,8.97656 C21.9818,8.97656 21.7585,9.03451 21.5645,9.15039 C21.3704,9.26628 21.2188,9.42122 21.1094,9.61523 C21,9.80924 20.944,10.0247 20.9414,10.2617 L20.9414,11.2422 C20.9414,11.5391 20.9967,11.7956 21.1074,12.0117 C21.2181,12.2279 21.375,12.3945 21.5781,12.5117 C21.7813,12.6289 22.0221,12.6875 22.3008,12.6875 C22.4857,12.6875 22.6549,12.6615 22.8086,12.6094 C22.9622,12.5573 23.0938,12.4792 23.2031,12.375 C23.3125,12.2708 23.3958,12.1432 23.4531,11.9922 L24.9922,12.0938 C24.9141,12.4635 24.7546,12.7858 24.5137,13.0605 C24.2728,13.3353 23.9629,13.5488 23.584,13.7012 C23.2051,13.8535 22.7682,13.9297 22.2734,13.9297 M31.0938,9.52344 L29.5703,9.61719 C29.5443,9.48698 29.4883,9.36914 29.4023,9.26367 C29.3164,9.1582 29.2038,9.07357 29.0645,9.00977 C28.9251,8.94596 28.7591,8.91406 28.5664,8.91406 C28.3086,8.91406 28.0911,8.9681 27.9141,9.07617 C27.737,9.18424 27.6484,9.32813 27.6484,9.50781 C27.6484,9.65104 27.7057,9.77214 27.8203,9.87109 C27.9349,9.97005 28.1315,10.0495 28.4102,10.1094 L29.4961,10.3281 C30.0794,10.4479 30.5143,10.6406 30.8008,10.9063 C31.0872,11.1719 31.2305,11.5208 31.2305,11.9531 C31.2305,12.3464 31.1152,12.6914 30.8848,12.9883 C30.6543,13.2852 30.3392,13.5163 29.9395,13.6816 C29.5397,13.847 29.0794,13.9297 28.5586,13.9297 C27.7643,13.9297 27.1322,13.7637 26.6621,13.4316 C26.1921,13.0996 25.9167,12.6471 25.8359,12.0742 L27.4727,11.9883 C27.5221,12.2305 27.6419,12.4147 27.832,12.541 C28.0221,12.6673 28.2656,12.7305 28.5625,12.7305 C28.8542,12.7305 29.0892,12.6738 29.2676,12.5605 C29.446,12.4473 29.5365,12.3008 29.5391,12.1211 C29.5365,11.9701 29.4727,11.8457 29.3477,11.748 C29.2227,11.6504 29.0299,11.5755 28.7695,11.5234 L27.7305,11.3164 C27.1445,11.1992 26.709,10.9961 26.4238,10.707 C26.1387,10.418 25.9961,10.0495 25.9961,9.60156 C25.9961,9.21615 26.1009,8.88411 26.3105,8.60547 C26.5202,8.32682 26.8158,8.11198 27.1973,7.96094 C27.5788,7.8099 28.026,7.73438 28.5391,7.73438 C29.2969,7.73438 29.8939,7.89453 30.3301,8.21484 C30.7663,8.53516 31.0208,8.97135 31.0938,9.52344 M37.2656,9.52344 L35.7422,9.61719 C35.7161,9.48698 35.6602,9.36914 35.5742,9.26367 C35.4883,9.1582 35.3757,9.07357 35.2363,9.00977 C35.097,8.94596 34.931,8.91406 34.7383,8.91406 C34.4805,8.91406 34.263,8.9681 34.0859,9.07617 C33.9089,9.18424 33.8203,9.32813 33.8203,9.50781 C33.8203,9.65104 33.8776,9.77214 33.9922,9.87109 C34.1068,9.97005 34.3034,10.0495 34.582,10.1094 L35.668,10.3281 C36.2513,10.4479 36.6862,10.6406 36.9727,10.9063 C37.2591,11.1719 37.4023,11.5208 37.4023,11.9531 C37.4023,12.3464 37.2871,12.6914 37.0566,12.9883 C36.8262,13.2852 36.5111,13.5163 36.1113,13.6816 C35.7116,13.847 35.2513,13.9297 34.7305,13.9297 C33.9362,13.9297 33.304,13.7637 32.834,13.4316 C32.3639,13.0996 32.0885,12.6471 32.0078,12.0742 L33.6445,11.9883 C33.694,12.2305 33.8138,12.4147 34.0039,12.541 C34.194,12.6673 34.4375,12.7305 34.7344,12.7305 C35.026,12.7305 35.2611,12.6738 35.4395,12.5605 C35.6178,12.4473 35.7083,12.3008 35.7109,12.1211 C35.7083,11.9701 35.6445,11.8457 35.5195,11.748 C35.3945,11.6504 35.2018,11.5755 34.9414,11.5234 L33.9023,11.3164 C33.3164,11.1992 32.8809,10.9961 32.5957,10.707 C32.3105,10.418 32.168,10.0495 32.168,9.60156 C32.168,9.21615 32.2728,8.88411 32.4824,8.60547 C32.6921,8.32682 32.9876,8.11198 33.3691,7.96094 C33.7507,7.8099 34.1979,7.73438 34.7109,7.73438 C35.4688,7.73438 36.0658,7.89453 36.502,8.21484 C36.9382,8.53516 37.1927,8.97135 37.2656,9.52344 M40.1563,13.9258 C39.7734,13.9258 39.4323,13.8587 39.1328,13.7246 C38.8333,13.5905 38.597,13.3913 38.4238,13.127 C38.2507,12.8626 38.1641,12.5326 38.1641,12.1367 C38.1641,11.8034 38.2253,11.5234 38.3477,11.2969 C38.4701,11.0703 38.6367,10.888 38.8477,10.75 C39.0586,10.612 39.2988,10.5078 39.5684,10.4375 C39.8379,10.3672 40.1211,10.3177 40.418,10.2891 C40.7669,10.2526 41.0482,10.2181 41.2617,10.1855 C41.4753,10.153 41.6302,10.1042 41.7266,10.0391 C41.8229,9.97396 41.8711,9.8776 41.8711,9.75 L41.8711,9.72656 C41.8711,9.47917 41.7936,9.28776 41.6387,9.15234 C41.4837,9.01693 41.2643,8.94922 40.9805,8.94922 C40.681,8.94922 40.4427,9.01497 40.2656,9.14648 C40.0885,9.27799 39.9714,9.44271 39.9141,9.64063 L38.375,9.51563 C38.4531,9.15104 38.6068,8.83529 38.8359,8.56836 C39.0651,8.30143 39.3613,8.0957 39.7246,7.95117 C40.0879,7.80664 40.5091,7.73438 40.9883,7.73438 C41.3216,7.73438 41.6413,7.77344 41.9473,7.85156 C42.2533,7.92969 42.5254,8.05078 42.7637,8.21484 C43.002,8.37891 43.1901,8.58919 43.3281,8.8457 C43.4661,9.10221 43.5352,9.40885 43.5352,9.76563 L43.5352,13.8125 L41.957,13.8125 L41.957,12.9805 L41.9102,12.9805 C41.8138,13.168 41.6849,13.3327 41.5234,13.4746 C41.362,13.6165 41.168,13.7272 40.9414,13.8066 C40.7148,13.8861 40.4531,13.9258 40.1563,13.9258 M40.6328,12.7773 C40.8776,12.7773 41.0938,12.7285 41.2813,12.6309 C41.4688,12.5332 41.6159,12.401 41.7227,12.2344 C41.8294,12.0677 41.8828,11.8789 41.8828,11.668 L41.8828,11.0313 C41.8307,11.0651 41.7598,11.0957 41.6699,11.123 C41.5801,11.1504 41.4792,11.1751 41.3672,11.1973 C41.2552,11.2194 41.1432,11.2389 41.0313,11.2559 C40.9193,11.2728 40.8177,11.2878 40.7266,11.3008 C40.5313,11.3294 40.3607,11.375 40.2148,11.4375 C40.069,11.5 39.9557,11.584 39.875,11.6895 C39.7943,11.7949 39.7539,11.9258 39.7539,12.082 C39.7539,12.3086 39.8366,12.4811 40.002,12.5996 C40.1673,12.7181 40.3776,12.7773 40.6328,12.7773 M47.5234,16.1875 C46.9844,16.1875 46.5228,16.1139 46.1387,15.9668 C45.7546,15.8197 45.4492,15.6198 45.2227,15.3672 C44.9961,15.1146 44.849,14.8307 44.7813,14.5156 L46.3203,14.3086 C46.3672,14.4284 46.4414,14.5404 46.543,14.6445 C46.6445,14.7487 46.7793,14.8327 46.9473,14.8965 C47.1152,14.9603 47.3203,14.9922 47.5625,14.9922 C47.9245,14.9922 48.2233,14.9043 48.459,14.7285 C48.6947,14.5527 48.8125,14.2591 48.8125,13.8477 L48.8125,12.75 L48.7422,12.75 C48.6693,12.9167 48.5599,13.0742 48.4141,13.2227 C48.2682,13.3711 48.0807,13.4922 47.8516,13.5859 C47.6224,13.6797 47.349,13.7266 47.0313,13.7266 C46.5807,13.7266 46.1712,13.6217 45.8027,13.4121 C45.4342,13.2025 45.1413,12.8809 44.9238,12.4473 C44.7064,12.0137 44.5977,11.4648 44.5977,10.8008 C44.5977,10.1211 44.7083,9.55339 44.9297,9.09766 C45.151,8.64193 45.446,8.30078 45.8145,8.07422 C46.1829,7.84766 46.5872,7.73438 47.0273,7.73438 C47.3633,7.73438 47.6445,7.79102 47.8711,7.9043 C48.0977,8.01758 48.2806,8.1582 48.4199,8.32617 C48.5592,8.49414 48.6667,8.65885 48.7422,8.82031 L48.8047,8.82031 L48.8047,7.8125 L50.457,7.8125 L50.457,13.8711 C50.457,14.3815 50.332,14.8086 50.082,15.1523 C49.832,15.4961 49.4863,15.7546 49.0449,15.9277 C48.6035,16.1009 48.0964,16.1875 47.5234,16.1875 M47.5586,12.4766 C47.8268,12.4766 48.054,12.4095 48.2402,12.2754 C48.4264,12.1413 48.5697,11.9486 48.6699,11.6973 C48.7702,11.446 48.8203,11.1445 48.8203,10.793 C48.8203,10.4414 48.7708,10.1361 48.6719,9.87695 C48.5729,9.61784 48.4297,9.41667 48.2422,9.27344 C48.0547,9.13021 47.8268,9.05859 47.5586,9.05859 C47.2852,9.05859 47.0547,9.13216 46.8672,9.2793 C46.6797,9.42643 46.5378,9.63021 46.4414,9.89063 C46.3451,10.151 46.2969,10.4518 46.2969,10.793 C46.2969,11.1393 46.3457,11.4382 46.4434,11.6895 C46.541,11.9408 46.6829,12.1348 46.8691,12.2715 C47.0553,12.4082 47.2852,12.4766 47.5586,12.4766 M54.5078,13.9297 C53.8906,13.9297 53.36,13.804 52.916,13.5527 C52.472,13.3014 52.1302,12.9447 51.8906,12.4824 C51.651,12.0202 51.5313,11.4727 51.5313,10.8398 C51.5313,10.2227 51.651,9.68099 51.8906,9.21484 C52.1302,8.7487 52.4681,8.38542 52.9043,8.125 C53.3405,7.86458 53.8529,7.73438 54.4414,7.73438 C54.8372,7.73438 55.2064,7.79753 55.5488,7.92383 C55.8913,8.05013 56.1908,8.23958 56.4473,8.49219 C56.7038,8.74479 56.9036,9.06185 57.0469,9.44336 C57.1901,9.82487 57.2617,10.2708 57.2617,10.7813 L57.2617,11.2383 L52.1953,11.2383 L52.1953,10.207 L55.6953,10.207 C55.6953,9.96745 55.6432,9.75521 55.5391,9.57031 C55.4349,9.38542 55.291,9.24023 55.1074,9.13477 C54.9238,9.0293 54.7109,8.97656 54.4688,8.97656 C54.2161,8.97656 53.9928,9.03451 53.7988,9.15039 C53.6048,9.26628 53.4531,9.42122 53.3438,9.61523 C53.2344,9.80924 53.1784,10.0247 53.1758,10.2617 L53.1758,11.2422 C53.1758,11.5391 53.2311,11.7956 53.3418,12.0117 C53.4525,12.2279 53.6094,12.3945 53.8125,12.5117 C54.0156,12.6289 54.2565,12.6875 54.5352,12.6875 C54.7201,12.6875 54.8893,12.6615 55.043,12.6094 C55.1966,12.5573 55.3281,12.4792 55.4375,12.375 C55.5469,12.2708 55.6302,12.1432 55.6875,11.9922 L57.2266,12.0938 C57.1484,12.4635 56.9889,12.7858 56.748,13.0605 C56.5072,13.3353 56.1973,13.5488 55.8184,13.7012 C55.4395,13.8535 55.0026,13.9297 54.5078,13.9297 "/>
</g>

<g fill="#ffffff" fill-opacity="1" stroke="none" transform="matrix(0.03125,0,0,0.03125,137.5,14)"
font-family="Inter" font-size="11" font-weight="700" font-style="normal" 
>
<path vector-effect="none" fill-rule="nonzero" d="M111.326,191.938 C120.545,201.158 135.517,201.158 144.737,191.938 L239.144,97.5313 C245.929,90.7458 247.921,80.6413 244.233,71.7907 C240.545,62.9401 231.989,57.1871 222.401,57.1871 L33.5875,57.2608 C24.0731,57.2608 15.4437,63.0137 11.7559,71.8644 C8.06815,80.715 10.1333,90.8195 16.845,97.605 L111.252,192.012 L111.326,191.938"/>
</g>

<g fill="none" stroke="#000000" stroke-opacity="1" stroke-width="13.7195" stroke-linecap="butt" stroke-linejoin="miter" stroke-miterlimit="4" transform="matrix(0.03125,0,0,0.03125,137.5,14)"
font-family="Inter" font-size="11" font-weight="700" font-style="normal" 
>
<path vector-effect="none" fill-rule="nonzero" d="M111.326,191.938 C120.545,201.158 135.517,201.158 144.737,191.938 L239.144,97.5313 C245.929,90.7458 247.921,80.6413 244.233,71.7907 C240.545,62.9401 231.989,57.1871 222.401,57.1871 L33.5875,57.2608 C24.0731,57.2608 15.4437,63.0137 11.7559,71.8644 C8.06815,80.715 10.1333,90.8195 16.845,97.605 L111.252,192.012 L111.326,191.938"/>
</g>

<g fill="#ffffff" fill-opacity="1" stroke="none" transform="matrix(1,0,0,1,72,6)"
font-family="Inter" font-size="11" font-weight="700" font-style="normal" 
>
</g>

<g fill="#ffffff" fill-opacity="1" stroke="none" transform="matrix(1,0,0,1,0,0)"
font-family="Inter" font-size="11" font-weight="700" font-style="normal" 
>
</g>

<g fill="#ffffff" fill-opacity="1" stroke="none" transform="matrix(1,0,0,1,0,0)"
font-family="Inter" font-size="11" font-weight="700" font-style="normal" 
>
</g>

<g fill="#ffffff" fill-opacity="1" stroke="none" transform="matrix(1,0,0,1,0,0)"
font-family="Inter" font-size="11" font-weight="700" font-style="normal" 
>
</g>

<g fill="none" stroke="#000000" stroke-opacity="1" stroke-width="1" stroke-linecap="square" stroke-linejoin="bevel" transform="matrix(1,0,0,1,0,0)"
font-family=".AppleSystemUIFont" font-size="13" font-weight="400" font-style="normal" 
>
</g>
</g>
</svg>
