<?xml version="1.0" encoding="UTF-8" standalone="no"?>
<svg width="113.242mm" height="15.5222mm"
 viewBox="0 0 321 44"
 xmlns="http://www.w3.org/2000/svg" xmlns:xlink="http://www.w3.org/1999/xlink" version="1.2" baseProfile="tiny">
<title>Abstract block</title>
<desc>block_dashboard_controller_monitor_tilt_set_value</desc>
<defs>
</defs>
<g fill="none" stroke="black" stroke-width="1" fill-rule="evenodd" stroke-linecap="square" stroke-linejoin="bevel" >

<g fill="none" stroke="#000000" stroke-opacity="1" stroke-width="1" stroke-linecap="square" stroke-linejoin="bevel" transform="matrix(1,0,0,1,0,0)"
font-family=".AppleSystemUIFont" font-size="13" font-weight="400" font-style="normal" 
>
</g>

<g fill="none" stroke="#000000" stroke-opacity="1" stroke-width="1" stroke-linecap="square" stroke-linejoin="bevel" transform="matrix(1,0,0,1,0,0)"
font-family=".AppleSystemUIFont" font-size="13" font-weight="400" font-style="normal" 
>
</g>

<g fill="#009f94" fill-opacity="1" stroke="#00645c" stroke-opacity="1" stroke-width="1.2" stroke-linecap="square" stroke-linejoin="bevel" transform="matrix(1,0,0,1,0,0)"
font-family=".AppleSystemUIFont" font-size="13" font-weight="400" font-style="normal" 
>
<path vector-effect="none" fill-rule="evenodd" d="M0.5,4.5 L1.04612,2.48112 L2.48112,1.04612 L4.5,0.5 L9.625,0.5 L10.416,0.976563 L11.1719,1.6875 L11.998,2.67969 L13,4 L13.7559,4.66016 L14.5469,5.15625 L15.4082,5.51172 L16.375,5.75 L17.4824,5.89453 L18.7656,5.96875 L20.2598,5.99609 L22,6 L23.7402,5.99609 L25.2344,5.96875 L26.5176,5.89453 L27.625,5.75 L28.5918,5.51172 L29.4531,5.15625 L30.2441,4.66016 L31,4 L32.002,2.67969 L32.8281,1.6875 L33.584,0.976563 L34.375,0.5 L315.9,0.5 L317.919,1.04612 L319.354,2.48112 L319.9,4.5 L319.9,31.5 L319.354,33.5189 L317.919,34.9539 L315.9,35.5 L34.375,35.5 L33.584,35.9766 L32.8281,36.6875 L32.002,37.6797 L31,39 L30.2441,39.6602 L29.4531,40.1563 L28.5918,40.5117 L27.625,40.75 L26.5176,40.8945 L25.2344,40.9688 L23.7402,40.9961 L22,41 L20.2598,40.9961 L18.7656,40.9688 L17.4824,40.8945 L16.375,40.75 L15.4082,40.5117 L14.5469,40.1563 L13.7559,39.6602 L13,39 L11.998,37.6797 L11.1719,36.6875 L10.416,35.9766 L9.625,35.5 L4.5,35.5 L2.48112,34.9539 L1.04612,33.5189 L0.5,31.5 L0.5,4.5"/>
</g>

<g fill="#ffffff" fill-opacity="1" stroke="none" transform="matrix(1,0,0,1,0,0)"
font-family="Inter" font-size="11" font-weight="700" font-style="normal" 
>
<path vector-effect="none" fill-rule="nonzero" d="M57.0938,17.1641 L55.5703,17.2578 C55.5443,17.1276 55.4883,17.0098 55.4023,16.9043 C55.3164,16.7988 55.2038,16.7142 55.0645,16.6504 C54.9251,16.5866 54.7591,16.5547 54.5664,16.5547 C54.3086,16.5547 54.0911,16.6087 53.9141,16.7168 C53.737,16.8249 53.6484,16.9688 53.6484,17.1484 C53.6484,17.2917 53.7057,17.4128 53.8203,17.5117 C53.9349,17.6107 54.1315,17.6901 54.4102,17.75 L55.4961,17.9688 C56.0794,18.0885 56.5143,18.2813 56.8008,18.5469 C57.0872,18.8125 57.2305,19.1615 57.2305,19.5938 C57.2305,19.987 57.1152,20.332 56.8848,20.6289 C56.6543,20.9258 56.3392,21.1569 55.9395,21.3223 C55.5397,21.4876 55.0794,21.5703 54.5586,21.5703 C53.7643,21.5703 53.1322,21.4043 52.6621,21.0723 C52.1921,20.7402 51.9167,20.2878 51.8359,19.7148 L53.4727,19.6289 C53.5221,19.8711 53.6419,20.0553 53.832,20.1816 C54.0221,20.3079 54.2656,20.3711 54.5625,20.3711 C54.8542,20.3711 55.0892,20.3145 55.2676,20.2012 C55.446,20.0879 55.5365,19.9414 55.5391,19.7617 C55.5365,19.6107 55.4727,19.4863 55.3477,19.3887 C55.2227,19.291 55.0299,19.2161 54.7695,19.1641 L53.7305,18.957 C53.1445,18.8398 52.709,18.6367 52.4238,18.3477 C52.1387,18.0586 51.9961,17.6901 51.9961,17.2422 C51.9961,16.8568 52.1009,16.5247 52.3105,16.2461 C52.5202,15.9674 52.8158,15.7526 53.1973,15.6016 C53.5788,15.4505 54.026,15.375 54.5391,15.375 C55.2969,15.375 55.8939,15.5352 56.3301,15.8555 C56.7663,16.1758 57.0208,16.612 57.0938,17.1641 M61.0078,21.5703 C60.3906,21.5703 59.86,21.4447 59.416,21.1934 C58.972,20.9421 58.6302,20.5853 58.3906,20.123 C58.151,19.6608 58.0313,19.1133 58.0313,18.4805 C58.0313,17.8633 58.151,17.3216 58.3906,16.8555 C58.6302,16.3893 58.9681,16.026 59.4043,15.7656 C59.8405,15.5052 60.3529,15.375 60.9414,15.375 C61.3372,15.375 61.7064,15.4382 62.0488,15.5645 C62.3913,15.6908 62.6908,15.8802 62.9473,16.1328 C63.2038,16.3854 63.4036,16.7025 63.5469,17.084 C63.6901,17.4655 63.7617,17.9115 63.7617,18.4219 L63.7617,18.8789 L58.6953,18.8789 L58.6953,17.8477 L62.1953,17.8477 C62.1953,17.6081 62.1432,17.3958 62.0391,17.2109 C61.9349,17.026 61.791,16.8809 61.6074,16.7754 C61.4238,16.6699 61.2109,16.6172 60.9688,16.6172 C60.7161,16.6172 60.4928,16.6751 60.2988,16.791 C60.1048,16.9069 59.9531,17.0618 59.8438,17.2559 C59.7344,17.4499 59.6784,17.6654 59.6758,17.9023 L59.6758,18.8828 C59.6758,19.1797 59.7311,19.4362 59.8418,19.6523 C59.9525,19.8685 60.1094,20.0352 60.3125,20.1523 C60.5156,20.2695 60.7565,20.3281 61.0352,20.3281 C61.2201,20.3281 61.3893,20.3021 61.543,20.25 C61.6966,20.1979 61.8281,20.1198 61.9375,20.0156 C62.0469,19.9115 62.1302,19.7839 62.1875,19.6328 L63.7266,19.7344 C63.6484,20.1042 63.4889,20.4264 63.248,20.7012 C63.0072,20.9759 62.6973,21.1895 62.3184,21.3418 C61.9395,21.4941 61.5026,21.5703 61.0078,21.5703 M68.0273,15.4531 L68.0273,16.7031 L64.4141,16.7031 L64.4141,15.4531 L68.0273,15.4531 M65.2344,14.0156 L66.8984,14.0156 L66.8984,19.6094 C66.8984,19.763 66.9219,19.8822 66.9688,19.9668 C67.0156,20.0514 67.0814,20.1107 67.166,20.1445 C67.2507,20.1784 67.349,20.1953 67.4609,20.1953 C67.5391,20.1953 67.6172,20.1882 67.6953,20.1738 C67.7734,20.1595 67.8333,20.1484 67.875,20.1406 L68.1367,21.3789 C68.0534,21.4049 67.9362,21.4355 67.7852,21.4707 C67.6341,21.5059 67.4505,21.5273 67.2344,21.5352 C66.8333,21.5508 66.4824,21.4974 66.1816,21.375 C65.8809,21.2526 65.6471,21.0625 65.4805,20.8047 C65.3138,20.5469 65.2318,20.2214 65.2344,19.8281 L65.2344,14.0156"/>
</g>

<g fill="#ffffff" fill-opacity="1" stroke="none" transform="matrix(1,0,0,1,0,0)"
font-family="Inter" font-size="11" font-weight="700" font-style="normal" 
>
<path vector-effect="none" fill-rule="nonzero" d="M110.184,15.4531 L110.184,16.7031 L106.57,16.7031 L106.57,15.4531 L110.184,15.4531 M107.391,14.0156 L109.055,14.0156 L109.055,19.6094 C109.055,19.763 109.078,19.8822 109.125,19.9668 C109.172,20.0514 109.238,20.1107 109.322,20.1445 C109.407,20.1784 109.505,20.1953 109.617,20.1953 C109.695,20.1953 109.773,20.1882 109.852,20.1738 C109.93,20.1595 109.99,20.1484 110.031,20.1406 L110.293,21.3789 C110.21,21.4049 110.092,21.4355 109.941,21.4707 C109.79,21.5059 109.607,21.5273 109.391,21.5352 C108.99,21.5508 108.639,21.4974 108.338,21.375 C108.037,21.2526 107.803,21.0625 107.637,20.8047 C107.47,20.5469 107.388,20.2214 107.391,19.8281 L107.391,14.0156 M113.906,21.5703 C113.299,21.5703 112.775,21.4408 112.334,21.1816 C111.893,20.9225 111.552,20.5605 111.313,20.0957 C111.073,19.6309 110.953,19.0911 110.953,18.4766 C110.953,17.8568 111.073,17.3145 111.313,16.8496 C111.552,16.3848 111.893,16.0228 112.334,15.7637 C112.775,15.5046 113.299,15.375 113.906,15.375 C114.513,15.375 115.037,15.5046 115.479,15.7637 C115.92,16.0228 116.26,16.3848 116.5,16.8496 C116.74,17.3145 116.859,17.8568 116.859,18.4766 C116.859,19.0911 116.74,19.6309 116.5,20.0957 C116.26,20.5605 115.92,20.9225 115.479,21.1816 C115.037,21.4408 114.513,21.5703 113.906,21.5703 M113.914,20.2813 C114.19,20.2813 114.421,20.2025 114.605,20.0449 C114.79,19.8874 114.93,19.6719 115.025,19.3984 C115.12,19.125 115.168,18.8138 115.168,18.4648 C115.168,18.1159 115.12,17.8047 115.025,17.5313 C114.93,17.2578 114.79,17.0417 114.605,16.8828 C114.421,16.724 114.19,16.6445 113.914,16.6445 C113.635,16.6445 113.402,16.724 113.213,16.8828 C113.024,17.0417 112.882,17.2578 112.787,17.5313 C112.692,17.8047 112.645,18.1159 112.645,18.4648 C112.645,18.8138 112.692,19.125 112.787,19.3984 C112.882,19.6719 113.024,19.8874 113.213,20.0449 C113.402,20.2025 113.635,20.2813 113.914,20.2813 "/>
</g>

<g fill="#ffffff" fill-opacity="1" stroke="none" transform="matrix(1,0,0,1,0,0)"
font-family="Inter" font-size="11" font-weight="700" font-style="normal" 
>
<path vector-effect="none" fill-rule="nonzero" d="M264.914,21.9531 L264.914,15.9531 L266.5,15.9531 L266.5,17.0117 L266.57,17.0117 C266.695,16.6602 266.904,16.3828 267.195,16.1797 C267.487,15.9766 267.836,15.875 268.242,15.875 C268.654,15.875 269.004,15.9772 269.293,16.1816 C269.582,16.3861 269.775,16.6628 269.871,17.0117 L269.934,17.0117 C270.056,16.668 270.278,16.3926 270.6,16.1855 C270.921,15.9785 271.302,15.875 271.742,15.875 C272.302,15.875 272.757,16.0527 273.107,16.4082 C273.458,16.7637 273.633,17.2669 273.633,17.918 L273.633,21.9531 L271.973,21.9531 L271.973,18.2461 C271.973,17.9128 271.884,17.6628 271.707,17.4961 C271.53,17.3294 271.309,17.2461 271.043,17.2461 C270.741,17.2461 270.505,17.3418 270.336,17.5332 C270.167,17.7246 270.082,17.9766 270.082,18.2891 L270.082,21.9531 L268.469,21.9531 L268.469,18.2109 C268.469,17.9167 268.385,17.6823 268.217,17.5078 C268.049,17.3333 267.828,17.2461 267.555,17.2461 C267.37,17.2461 267.204,17.2923 267.057,17.3848 C266.91,17.4772 266.793,17.6061 266.707,17.7715 C266.621,17.9368 266.578,18.1302 266.578,18.3516 L266.578,21.9531 L264.914,21.9531 M277.656,22.0703 C277.049,22.0703 276.525,21.9408 276.084,21.6816 C275.643,21.4225 275.302,21.0605 275.063,20.5957 C274.823,20.1309 274.703,19.5911 274.703,18.9766 C274.703,18.3568 274.823,17.8145 275.063,17.3496 C275.302,16.8848 275.643,16.5228 276.084,16.2637 C276.525,16.0046 277.049,15.875 277.656,15.875 C278.263,15.875 278.787,16.0046 279.229,16.2637 C279.67,16.5228 280.01,16.8848 280.25,17.3496 C280.49,17.8145 280.609,18.3568 280.609,18.9766 C280.609,19.5911 280.49,20.1309 280.25,20.5957 C280.01,21.0605 279.67,21.4225 279.229,21.6816 C278.787,21.9408 278.263,22.0703 277.656,22.0703 M277.664,20.7813 C277.94,20.7813 278.171,20.7025 278.355,20.5449 C278.54,20.3874 278.68,20.1719 278.775,19.8984 C278.87,19.625 278.918,19.3138 278.918,18.9648 C278.918,18.6159 278.87,18.3047 278.775,18.0313 C278.68,17.7578 278.54,17.5417 278.355,17.3828 C278.171,17.224 277.94,17.1445 277.664,17.1445 C277.385,17.1445 277.152,17.224 276.963,17.3828 C276.774,17.5417 276.632,17.7578 276.537,18.0313 C276.442,18.3047 276.395,18.6159 276.395,18.9648 C276.395,19.3138 276.442,19.625 276.537,19.8984 C276.632,20.1719 276.774,20.3874 276.963,20.5449 C277.152,20.7025 277.385,20.7813 277.664,20.7813 M283.359,18.4844 L283.359,21.9531 L281.695,21.9531 L281.695,15.9531 L283.281,15.9531 L283.281,17.0117 L283.352,17.0117 C283.484,16.6628 283.707,16.3861 284.02,16.1816 C284.332,15.9772 284.711,15.875 285.156,15.875 C285.573,15.875 285.936,15.9661 286.246,16.1484 C286.556,16.3307 286.797,16.5905 286.969,16.9277 C287.141,17.265 287.227,17.6667 287.227,18.1328 L287.227,21.9531 L285.563,21.9531 L285.563,18.4297 C285.565,18.0625 285.471,17.7754 285.281,17.5684 C285.091,17.3613 284.829,17.2578 284.496,17.2578 C284.272,17.2578 284.075,17.306 283.904,17.4023 C283.734,17.4987 283.601,17.6387 283.506,17.8223 C283.411,18.0059 283.362,18.2266 283.359,18.4844 M288.523,21.9531 L288.523,15.9531 L290.188,15.9531 L290.188,21.9531 L288.523,21.9531 M289.359,15.1797 C289.112,15.1797 288.9,15.097 288.725,14.9316 C288.549,14.7663 288.461,14.5677 288.461,14.3359 C288.461,14.1068 288.549,13.9095 288.725,13.7441 C288.9,13.5788 289.112,13.4961 289.359,13.4961 C289.607,13.4961 289.818,13.5788 289.994,13.7441 C290.17,13.9095 290.258,14.1068 290.258,14.3359 C290.258,14.5677 290.17,14.7663 289.994,14.9316 C289.818,15.097 289.607,15.1797 289.359,15.1797 M294.699,15.9531 L294.699,17.2031 L291.086,17.2031 L291.086,15.9531 L294.699,15.9531 M291.906,14.5156 L293.57,14.5156 L293.57,20.1094 C293.57,20.263 293.594,20.3822 293.641,20.4668 C293.688,20.5514 293.753,20.6107 293.838,20.6445 C293.923,20.6784 294.021,20.6953 294.133,20.6953 C294.211,20.6953 294.289,20.6882 294.367,20.6738 C294.445,20.6595 294.505,20.6484 294.547,20.6406 L294.809,21.8789 C294.725,21.9049 294.608,21.9355 294.457,21.9707 C294.306,22.0059 294.122,22.0273 293.906,22.0352 C293.505,22.0508 293.154,21.9974 292.854,21.875 C292.553,21.7526 292.319,21.5625 292.152,21.3047 C291.986,21.0469 291.904,20.7214 291.906,20.3281 L291.906,14.5156 M298.422,22.0703 C297.815,22.0703 297.291,21.9408 296.85,21.6816 C296.408,21.4225 296.068,21.0605 295.828,20.5957 C295.589,20.1309 295.469,19.5911 295.469,18.9766 C295.469,18.3568 295.589,17.8145 295.828,17.3496 C296.068,16.8848 296.408,16.5228 296.85,16.2637 C297.291,16.0046 297.815,15.875 298.422,15.875 C299.029,15.875 299.553,16.0046 299.994,16.2637 C300.436,16.5228 300.776,16.8848 301.016,17.3496 C301.255,17.8145 301.375,18.3568 301.375,18.9766 C301.375,19.5911 301.255,20.1309 301.016,20.5957 C300.776,21.0605 300.436,21.4225 299.994,21.6816 C299.553,21.9408 299.029,22.0703 298.422,22.0703 M298.43,20.7813 C298.706,20.7813 298.936,20.7025 299.121,20.5449 C299.306,20.3874 299.446,20.1719 299.541,19.8984 C299.636,19.625 299.684,19.3138 299.684,18.9648 C299.684,18.6159 299.636,18.3047 299.541,18.0313 C299.446,17.7578 299.306,17.5417 299.121,17.3828 C298.936,17.224 298.706,17.1445 298.43,17.1445 C298.151,17.1445 297.917,17.224 297.729,17.3828 C297.54,17.5417 297.398,17.7578 297.303,18.0313 C297.208,18.3047 297.16,18.6159 297.16,18.9648 C297.16,19.3138 297.208,19.625 297.303,19.8984 C297.398,20.1719 297.54,20.3874 297.729,20.5449 C297.917,20.7025 298.151,20.7813 298.43,20.7813 M302.461,21.9531 L302.461,15.9531 L304.074,15.9531 L304.074,17 L304.137,17 C304.246,16.6276 304.43,16.3457 304.688,16.1543 C304.945,15.9629 305.242,15.8672 305.578,15.8672 C305.661,15.8672 305.751,15.8724 305.848,15.8828 C305.944,15.8932 306.029,15.9076 306.102,15.9258 L306.102,17.4023 C306.023,17.3789 305.915,17.3581 305.777,17.3398 C305.639,17.3216 305.513,17.3125 305.398,17.3125 C305.154,17.3125 304.936,17.3652 304.744,17.4707 C304.553,17.5762 304.402,17.7227 304.291,17.9102 C304.18,18.0977 304.125,18.3138 304.125,18.5586 L304.125,21.9531 L302.461,21.9531"/>
</g>

<g fill="#ffffff" fill-opacity="1" stroke="none" transform="matrix(0.95,0,0,0.95,11.6,9.6)"
font-family="Inter" font-size="11" font-weight="700" font-style="normal" 
>
<path vector-effect="none" fill-rule="nonzero" d="M2.19896,4.65234 C1.18891,4.65234 0.375703,5.46549 0.375703,6.47555 L0.375703,8.579 C1.00152,8.60331 1.67842,9.11362 1.67842,9.74561 L1.67842,14.2544 C1.67842,14.8864 1.00152,15.3967 0.375703,15.421 L0.375703,17.5245 C0.375703,18.5345 1.18891,19.3477 2.19896,19.3477 L21.8479,19.3477 C22.858,19.3477 23.6711,18.5345 23.6711,17.5245 L23.6711,6.47555 C23.6711,5.46549 22.858,4.65234 21.8479,4.65234 L2.19896,4.65234 M6.71936,9.23098 C8.56166,9.23097 10.0552,10.7245 10.0552,12.5668 C10.0552,14.4091 8.56167,15.9026 6.71936,15.9026 C4.87705,15.9026 3.38355,14.4091 3.38355,12.5668 C3.38355,10.7245 4.87705,9.23097 6.71936,9.23098 M19.875,9.24873 C20.7082,9.24871 21.3837,9.92418 21.3837,10.7574 C21.3837,11.5906 20.7082,12.266 19.875,12.266 C19.0418,12.266 18.3664,11.5906 18.3664,10.7574 C18.3664,9.9242 19.0418,9.24874 19.875,9.24873 M17.4318,12.8825 C18.265,12.8825 18.9404,13.558 18.9404,14.3912 C18.9404,15.2243 18.2649,15.8998 17.4318,15.8998 C16.5986,15.8998 15.9231,15.2244 15.9231,14.3912 C15.9231,13.5579 16.5985,12.8825 17.4318,12.8825 "/>
</g>

<g fill="none" stroke="#000000" stroke-opacity="1" stroke-width="0.54" stroke-linecap="butt" stroke-linejoin="miter" stroke-miterlimit="4" transform="matrix(0.95,0,0,0.95,11.6,9.6)"
font-family="Inter" font-size="11" font-weight="700" font-style="normal" 
>
<path vector-effect="none" fill-rule="nonzero" d="M2.19896,4.65234 C1.18891,4.65234 0.375703,5.46549 0.375703,6.47555 L0.375703,8.579 C1.00152,8.60331 1.67842,9.11362 1.67842,9.74561 L1.67842,14.2544 C1.67842,14.8864 1.00152,15.3967 0.375703,15.421 L0.375703,17.5245 C0.375703,18.5345 1.18891,19.3477 2.19896,19.3477 L21.8479,19.3477 C22.858,19.3477 23.6711,18.5345 23.6711,17.5245 L23.6711,6.47555 C23.6711,5.46549 22.858,4.65234 21.8479,4.65234 L2.19896,4.65234 M6.71936,9.23098 C8.56166,9.23097 10.0552,10.7245 10.0552,12.5668 C10.0552,14.4091 8.56167,15.9026 6.71936,15.9026 C4.87705,15.9026 3.38355,14.4091 3.38355,12.5668 C3.38355,10.7245 4.87705,9.23097 6.71936,9.23098 M19.875,9.24873 C20.7082,9.24871 21.3837,9.92418 21.3837,10.7574 C21.3837,11.5906 20.7082,12.266 19.875,12.266 C19.0418,12.266 18.3664,11.5906 18.3664,10.7574 C18.3664,9.9242 19.0418,9.24874 19.875,9.24873 M17.4318,12.8825 C18.265,12.8825 18.9404,13.558 18.9404,14.3912 C18.9404,15.2243 18.2649,15.8998 17.4318,15.8998 C16.5986,15.8998 15.9231,15.2244 15.9231,14.3912 C15.9231,13.5579 16.5985,12.8825 17.4318,12.8825 "/>
</g>

<g fill="#000000" fill-opacity="1" stroke="none" transform="matrix(0.95,0,0,0.95,11.6,9.6)"
font-family="Inter" font-size="11" font-weight="700" font-style="normal" 
>
<path vector-effect="none" fill-rule="nonzero" d="M0.108328,15.3227 L0.103298,8.65983 L1.21825,8.7259 L1.75102,9.37791 L1.70662,12.9064 L1.66222,14.5556 L1.04066,15.0542 L0.108328,15.3227"/>
</g>

<g fill="#000000" fill-opacity="1" stroke="none" transform="matrix(0.95,0,0,0.95,11.6,9.6)"
font-family="Inter" font-size="11" font-weight="700" font-style="normal" 
>
<circle cx="6.70111" cy="12.5452" r="1.68266"/>
</g>

<g fill="none" stroke="#000000" stroke-opacity="1" stroke-width="0.54" stroke-linecap="butt" stroke-linejoin="miter" stroke-miterlimit="4" transform="matrix(0.95,0,0,0.95,11.6,9.6)"
font-family="Inter" font-size="11" font-weight="700" font-style="normal" 
>
<circle cx="6.70111" cy="12.5452" r="1.68266"/>
</g>

<g fill="#000000" fill-opacity="1" stroke="none" transform="matrix(0.95,0,0,0.95,11.6,9.6)"
font-family="Inter" font-size="11" font-weight="700" font-style="normal" 
opacity="0.858824" >
<path vector-effect="none" fill-rule="evenodd" d="M8.42109,18.1373 C8.42109,18.0846 8.46385,18.0418 8.51661,18.0418 L15.4834,18.0418 C15.5361,18.0418 15.5789,18.0846 15.5789,18.1373 L15.5789,18.1373 C15.5789,18.1901 15.5361,18.2329 15.4834,18.2329 L8.51661,18.2329 C8.46385,18.2329 8.42109,18.1901 8.42109,18.1373 L8.42109,18.1373"/>
</g>

<g fill="none" stroke="#000000" stroke-opacity="1" stroke-width="0.437534" stroke-linecap="butt" stroke-linejoin="miter" stroke-miterlimit="4" transform="matrix(0.95,0,0,0.95,11.6,9.6)"
font-family="Inter" font-size="11" font-weight="700" font-style="normal" 
>
<path vector-effect="none" fill-rule="evenodd" d="M8.42109,18.1373 C8.42109,18.0846 8.46385,18.0418 8.51661,18.0418 L15.4834,18.0418 C15.5361,18.0418 15.5789,18.0846 15.5789,18.1373 L15.5789,18.1373 C15.5789,18.1901 15.5361,18.2329 15.4834,18.2329 L8.51661,18.2329 C8.46385,18.2329 8.42109,18.1901 8.42109,18.1373 L8.42109,18.1373"/>
</g>

<g fill="#ffffff" fill-opacity="1" stroke="none" transform="matrix(1,0,0,1,0,0)"
font-family="Inter" font-size="11" font-weight="700" font-style="normal" 
>
</g>

<g fill="#ffffff" fill-opacity="1" stroke="#00645c" stroke-opacity="1" stroke-width="1" stroke-linecap="square" stroke-linejoin="bevel" transform="matrix(1,0,0,1,0,0)"
font-family="Inter" font-size="11" font-weight="700" font-style="normal" 
>
<polyline fill="none" vector-effect="none" points="45,11 45,31 " />
</g>

<g fill="#009f94" fill-opacity="1" stroke="#00645c" stroke-opacity="1" stroke-width="1.2" stroke-linecap="square" stroke-linejoin="bevel" transform="matrix(1,0,0,1,201.4,6)"
font-family="Inter" font-size="11" font-weight="700" font-style="normal" 
>
<path vector-effect="none" fill-rule="evenodd" d="M0.5,3.5 C0.5,1.84315 1.84315,0.5 3.5,0.5 L54,0.5 C55.6569,0.5 57,1.84315 57,3.5 L57,20.5 C57,22.1569 55.6569,23.5 54,23.5 L3.5,23.5 C1.84315,23.5 0.5,22.1569 0.5,20.5 L0.5,3.5"/>
</g>

<g fill="#ffffff" fill-opacity="1" stroke="none" transform="matrix(1,0,0,1,201.4,6)"
font-family="Inter" font-size="11" font-weight="700" font-style="normal" 
>
<path vector-effect="none" fill-rule="nonzero" d="M8.50781,17.3125 L8.50781,9.0625 L10.1484,9.0625 L10.1484,10.0703 L10.2227,10.0703 C10.2956,9.90885 10.4017,9.74414 10.541,9.57617 C10.6803,9.4082 10.8626,9.26758 11.0879,9.1543 C11.3132,9.04102 11.5938,8.98438 11.9297,8.98438 C12.3672,8.98438 12.7708,9.09831 13.1406,9.32617 C13.5104,9.55404 13.806,9.89648 14.0273,10.3535 C14.2487,10.8105 14.3594,11.3828 14.3594,12.0703 C14.3594,12.7396 14.252,13.304 14.0371,13.7637 C13.8223,14.2233 13.5306,14.571 13.1621,14.8066 C12.7936,15.0423 12.3815,15.1602 11.9258,15.1602 C11.6029,15.1602 11.3288,15.1068 11.1035,15 C10.8783,14.8932 10.694,14.7585 10.5508,14.5957 C10.4076,14.4329 10.2982,14.2682 10.2227,14.1016 L10.1719,14.1016 L10.1719,17.3125 L8.50781,17.3125 M10.1367,12.0625 C10.1367,12.4193 10.1862,12.7305 10.2852,12.9961 C10.3841,13.2617 10.5273,13.4681 10.7148,13.6152 C10.9023,13.7624 11.1302,13.8359 11.3984,13.8359 C11.6693,13.8359 11.8984,13.7611 12.0859,13.6113 C12.2734,13.4616 12.416,13.2533 12.5137,12.9863 C12.6113,12.7194 12.6602,12.4115 12.6602,12.0625 C12.6602,11.7161 12.612,11.4115 12.5156,11.1484 C12.4193,10.8854 12.2773,10.6797 12.0898,10.5313 C11.9023,10.3828 11.6719,10.3086 11.3984,10.3086 C11.1276,10.3086 10.8991,10.3802 10.7129,10.5234 C10.5267,10.6667 10.3841,10.8698 10.2852,11.1328 C10.1862,11.3958 10.1367,11.7057 10.1367,12.0625 M15.4609,15.0625 L15.4609,9.0625 L17.125,9.0625 L17.125,15.0625 L15.4609,15.0625 M16.2969,8.28906 C16.0495,8.28906 15.8379,8.20638 15.6621,8.04102 C15.4863,7.87565 15.3984,7.67708 15.3984,7.44531 C15.3984,7.21615 15.4863,7.01888 15.6621,6.85352 C15.8379,6.68815 16.0495,6.60547 16.2969,6.60547 C16.5443,6.60547 16.7559,6.68815 16.9316,6.85352 C17.1074,7.01888 17.1953,7.21615 17.1953,7.44531 C17.1953,7.67708 17.1074,7.87565 16.9316,8.04102 C16.7559,8.20638 16.5443,8.28906 16.2969,8.28906 M21.6367,9.0625 L21.6367,10.3125 L18.0234,10.3125 L18.0234,9.0625 L21.6367,9.0625 M18.8438,7.625 L20.5078,7.625 L20.5078,13.2188 C20.5078,13.3724 20.5313,13.4915 20.5781,13.5762 C20.625,13.6608 20.6908,13.7201 20.7754,13.7539 C20.86,13.7878 20.9583,13.8047 21.0703,13.8047 C21.1484,13.8047 21.2266,13.7975 21.3047,13.7832 C21.3828,13.7689 21.4427,13.7578 21.4844,13.75 L21.7461,14.9883 C21.6628,15.0143 21.5456,15.0449 21.3945,15.0801 C21.2435,15.1152 21.0599,15.1367 20.8438,15.1445 C20.4427,15.1602 20.0918,15.1068 19.791,14.9844 C19.4902,14.862 19.2565,14.6719 19.0898,14.4141 C18.9232,14.1563 18.8411,13.8307 18.8438,13.4375 L18.8438,7.625 M25.3594,15.1797 C24.7448,15.1797 24.2168,15.0488 23.7754,14.7871 C23.334,14.5254 22.9954,14.1615 22.7598,13.6953 C22.5241,13.2292 22.4063,12.6927 22.4063,12.0859 C22.4063,11.4714 22.5254,10.9316 22.7637,10.4668 C23.002,10.002 23.3411,9.63867 23.7813,9.37695 C24.2214,9.11523 24.7448,8.98438 25.3516,8.98438 C25.875,8.98438 26.3333,9.07943 26.7266,9.26953 C27.1198,9.45964 27.431,9.72656 27.6602,10.0703 C27.8893,10.4141 28.0156,10.8177 28.0391,11.2813 L26.4688,11.2813 C26.4245,10.9818 26.3079,10.7402 26.1191,10.5566 C25.9303,10.373 25.6836,10.2813 25.3789,10.2813 C25.1211,10.2813 24.8965,10.3509 24.7051,10.4902 C24.5137,10.6296 24.3646,10.832 24.2578,11.0977 C24.151,11.3633 24.0977,11.6849 24.0977,12.0625 C24.0977,12.4453 24.1504,12.7708 24.2559,13.0391 C24.3613,13.3073 24.5104,13.5117 24.7031,13.6523 C24.8958,13.793 25.1211,13.8633 25.3789,13.8633 C25.569,13.8633 25.7402,13.8242 25.8926,13.7461 C26.0449,13.668 26.1712,13.554 26.2715,13.4043 C26.3717,13.2546 26.4375,13.0742 26.4688,12.8633 L28.0391,12.8633 C28.013,13.3216 27.8887,13.7246 27.666,14.0723 C27.4434,14.4199 27.1367,14.6914 26.7461,14.8867 C26.3555,15.082 25.8932,15.1797 25.3594,15.1797 M30.7656,11.5938 L30.7656,15.0625 L29.1016,15.0625 L29.1016,7.0625 L30.7188,7.0625 L30.7188,10.1211 L30.7891,10.1211 C30.9245,9.76693 31.1432,9.48893 31.4453,9.28711 C31.7474,9.08529 32.1263,8.98438 32.582,8.98438 C32.9987,8.98438 33.3626,9.07487 33.6738,9.25586 C33.985,9.43685 34.2272,9.69596 34.4004,10.0332 C34.5736,10.3704 34.6589,10.7734 34.6563,11.2422 L34.6563,15.0625 L32.9922,15.0625 L32.9922,11.5391 C32.9948,11.1693 32.9017,10.8815 32.7129,10.6758 C32.5241,10.4701 32.2604,10.3672 31.9219,10.3672 C31.6953,10.3672 31.4954,10.4154 31.3223,10.5117 C31.1491,10.6081 31.0137,10.748 30.916,10.9316 C30.8184,11.1152 30.7682,11.3359 30.7656,11.5938 "/>
</g>

<g fill="#ffffff" fill-opacity="1" stroke="none" transform="matrix(0.03125,0,0,0.03125,244.9,14)"
font-family="Inter" font-size="11" font-weight="700" font-style="normal" 
>
<path vector-effect="none" fill-rule="nonzero" d="M111.326,191.938 C120.545,201.158 135.517,201.158 144.737,191.938 L239.144,97.5313 C245.929,90.7458 247.921,80.6413 244.233,71.7907 C240.545,62.9401 231.989,57.1871 222.401,57.1871 L33.5875,57.2608 C24.0731,57.2608 15.4437,63.0137 11.7559,71.8644 C8.06815,80.715 10.1333,90.8195 16.845,97.605 L111.252,192.012 L111.326,191.938"/>
</g>

<g fill="none" stroke="#000000" stroke-opacity="1" stroke-width="13.7195" stroke-linecap="butt" stroke-linejoin="miter" stroke-miterlimit="4" transform="matrix(0.03125,0,0,0.03125,244.9,14)"
font-family="Inter" font-size="11" font-weight="700" font-style="normal" 
>
<path vector-effect="none" fill-rule="nonzero" d="M111.326,191.938 C120.545,201.158 135.517,201.158 144.737,191.938 L239.144,97.5313 C245.929,90.7458 247.921,80.6413 244.233,71.7907 C240.545,62.9401 231.989,57.1871 222.401,57.1871 L33.5875,57.2608 C24.0731,57.2608 15.4437,63.0137 11.7559,71.8644 C8.06815,80.715 10.1333,90.8195 16.845,97.605 L111.252,192.012 L111.326,191.938"/>
</g>

<g fill="#ffffff" fill-opacity="1" stroke="none" transform="matrix(1,0,0,1,201.4,6)"
font-family="Inter" font-size="11" font-weight="700" font-style="normal" 
>
</g>

<g fill="#ffffff" fill-opacity="1" stroke="#00645c" stroke-opacity="1" stroke-width="1" stroke-linecap="square" stroke-linejoin="bevel" transform="matrix(1,0,0,1,0,0)"
font-family="Inter" font-size="11" font-weight="700" font-style="normal" 
>
</g>

<g fill="#009f94" fill-opacity="1" stroke="#00645c" stroke-opacity="1" stroke-width="1.2" stroke-linecap="square" stroke-linejoin="bevel" transform="matrix(1,0,0,1,123.4,6)"
font-family="Inter" font-size="11" font-weight="700" font-style="normal" 
>
<path vector-effect="none" fill-rule="evenodd" d="M0.5,3.5 C0.5,1.84315 1.84315,0.5 3.5,0.5 L70.5,0.5 C72.1569,0.5 73.5,1.84315 73.5,3.5 L73.5,20.5 C73.5,22.1569 72.1569,23.5 70.5,23.5 L3.5,23.5 C1.84315,23.5 0.5,22.1569 0.5,20.5 L0.5,3.5"/>
</g>

<g fill="#ffffff" fill-opacity="1" stroke="none" transform="matrix(1,0,0,1,123.4,6)"
font-family="Inter" font-size="11" font-weight="700" font-style="normal" 
>
<path vector-effect="none" fill-rule="nonzero" d="M10.0078,8 L12.0938,8 L14.2969,13.375 L14.3906,13.375 L16.5938,8 L18.6797,8 L18.6797,16 L17.0391,16 L17.0391,10.793 L16.9727,10.793 L14.9023,15.9609 L13.7852,15.9609 L11.7148,10.7734 L11.6484,10.7734 L11.6484,16 L10.0078,16 L10.0078,8 M26.7617,8 L26.7617,16 L25.3008,16 L21.8203,10.9648 L21.7617,10.9648 L21.7617,16 L20.0703,16 L20.0703,8 L21.5547,8 L25.0078,13.0313 L25.0781,13.0313 L25.0781,8 L26.7617,8 M27.8438,9.39453 L27.8438,8 L34.4141,8 L34.4141,9.39453 L31.9648,9.39453 L31.9648,16 L30.293,16 L30.293,9.39453 L27.8438,9.39453 M35.4922,16 L35.4922,8 L37.1836,8 L37.1836,14.6055 L40.6133,14.6055 L40.6133,16 L35.4922,16 M40.4219,9.39453 L40.4219,8 L46.9922,8 L46.9922,9.39453 L44.543,9.39453 L44.543,16 L42.8711,16 L42.8711,9.39453 L40.4219,9.39453 M51.5039,8 L51.5039,16 L49.8125,16 L49.8125,9.60547 L49.7656,9.60547 L47.9336,10.7539 L47.9336,9.25391 L49.9141,8 L51.5039,8"/>
</g>

<g fill="#ffffff" fill-opacity="1" stroke="none" transform="matrix(0.03125,0,0,0.03125,183.4,14)"
font-family="Inter" font-size="11" font-weight="700" font-style="normal" 
>
<path vector-effect="none" fill-rule="nonzero" d="M111.326,191.938 C120.545,201.158 135.517,201.158 144.737,191.938 L239.144,97.5313 C245.929,90.7458 247.921,80.6413 244.233,71.7907 C240.545,62.9401 231.989,57.1871 222.401,57.1871 L33.5875,57.2608 C24.0731,57.2608 15.4437,63.0137 11.7559,71.8644 C8.06815,80.715 10.1333,90.8195 16.845,97.605 L111.252,192.012 L111.326,191.938"/>
</g>

<g fill="none" stroke="#000000" stroke-opacity="1" stroke-width="13.7195" stroke-linecap="butt" stroke-linejoin="miter" stroke-miterlimit="4" transform="matrix(0.03125,0,0,0.03125,183.4,14)"
font-family="Inter" font-size="11" font-weight="700" font-style="normal" 
>
<path vector-effect="none" fill-rule="nonzero" d="M111.326,191.938 C120.545,201.158 135.517,201.158 144.737,191.938 L239.144,97.5313 C245.929,90.7458 247.921,80.6413 244.233,71.7907 C240.545,62.9401 231.989,57.1871 222.401,57.1871 L33.5875,57.2608 C24.0731,57.2608 15.4437,63.0137 11.7559,71.8644 C8.06815,80.715 10.1333,90.8195 16.845,97.605 L111.252,192.012 L111.326,191.938"/>
</g>

<g fill="#ffffff" fill-opacity="1" stroke="none" transform="matrix(1,0,0,1,123.4,6)"
font-family="Inter" font-size="11" font-weight="700" font-style="normal" 
>
</g>

<g fill="#ffffff" fill-opacity="1" stroke="#00645c" stroke-opacity="1" stroke-width="1" stroke-linecap="square" stroke-linejoin="bevel" transform="matrix(1,0,0,1,0,0)"
font-family="Inter" font-size="11" font-weight="700" font-style="normal" 
>
</g>

<g fill="#ffffff" fill-opacity="1" stroke="#005049" stroke-opacity="1" stroke-width="1.2" stroke-linecap="square" stroke-linejoin="bevel" transform="matrix(1,0,0,1,74,7)"
font-family="Inter" font-size="11" font-weight="700" font-style="normal" 
>
<path vector-effect="none" fill-rule="evenodd" d="M1,11 C1,5.47715 5.92487,1 12,1 L14.4,1 C20.4751,1 25.4,5.47715 25.4,11 C25.4,16.5228 20.4751,21 14.4,21 L12,21 C5.92487,21 1,16.5228 1,11 "/>
</g>

<g fill="#000000" fill-opacity="1" stroke="none" transform="matrix(1,0,0,1,74,7)"
font-family="Inter" font-size="10" font-weight="700" font-style="normal" 
>
<path vector-effect="none" fill-rule="nonzero" d="M12.9411,14.5817 C12.3303,14.5793 11.8053,14.429 11.3661,14.1307 C10.927,13.8324 10.5896,13.4003 10.354,12.8345 C10.1185,12.2687 10.0019,11.5881 10.0043,10.7926 C10.0043,9.99953 10.122,9.32363 10.3576,8.76491 C10.5932,8.2062 10.9305,7.78066 11.3697,7.48828 C11.8088,7.1959 12.3326,7.04972 12.9411,7.04972 C13.5495,7.04972 14.0733,7.1965 14.5124,7.49006 C14.9516,7.78362 15.2895,8.20916 15.5263,8.76669 C15.763,9.32422 15.8802,9.99953 15.8778,10.7926 C15.8778,11.5904 15.7601,12.2723 15.5245,12.8381 C15.2889,13.4039 14.9522,13.8359 14.5142,14.1342 C14.0762,14.4325 13.5518,14.5817 12.9411,14.5817 M12.9411,13.3068 C13.3577,13.3068 13.6903,13.0973 13.9389,12.6783 C14.1875,12.2592 14.3106,11.6307 14.3082,10.7926 C14.3082,10.241 14.252,9.78172 14.1396,9.41477 C14.0271,9.04782 13.8685,8.77202 13.6637,8.58736 C13.4589,8.4027 13.218,8.31037 12.9411,8.31037 C12.5268,8.31037 12.1953,8.51752 11.9467,8.93182 C11.6982,9.34612 11.5727,9.96638 11.5703,10.7926 C11.5703,11.3513 11.6265,11.8171 11.739,12.19 C11.8514,12.5629 12.0107,12.8422 12.2166,13.0281 C12.4226,13.2139 12.6641,13.3068 12.9411,13.3068 "/>
</g>

<g fill="#ffffff" fill-opacity="1" stroke="#00645c" stroke-opacity="1" stroke-width="1" stroke-linecap="square" stroke-linejoin="bevel" transform="matrix(1,0,0,1,0,0)"
font-family="Inter" font-size="11" font-weight="700" font-style="normal" 
>
</g>

<g fill="#ffffff" fill-opacity="1" stroke="#00645c" stroke-opacity="1" stroke-width="1" stroke-linecap="square" stroke-linejoin="bevel" transform="matrix(1,0,0,1,0,0)"
font-family="Inter" font-size="11" font-weight="700" font-style="normal" 
>
</g>

<g fill="#ffffff" fill-opacity="1" stroke="#00645c" stroke-opacity="1" stroke-width="1" stroke-linecap="square" stroke-linejoin="bevel" transform="matrix(1,0,0,1,0,0)"
font-family="Inter" font-size="11" font-weight="700" font-style="normal" 
>
</g>

<g fill="#ffffff" fill-opacity="1" stroke="#00645c" stroke-opacity="1" stroke-width="1" stroke-linecap="square" stroke-linejoin="bevel" transform="matrix(1,0,0,1,0,0)"
font-family="Inter" font-size="11" font-weight="700" font-style="normal" 
>
</g>

<g fill="none" stroke="#000000" stroke-opacity="1" stroke-width="1" stroke-linecap="square" stroke-linejoin="bevel" transform="matrix(1,0,0,1,0,0)"
font-family=".AppleSystemUIFont" font-size="13" font-weight="400" font-style="normal" 
>
</g>
</g>
</svg>
