<?xml version="1.0" encoding="UTF-8" standalone="no"?>
<svg width="53.6222mm" height="32.4556mm"
 viewBox="0 0 152 92"
 xmlns="http://www.w3.org/2000/svg" xmlns:xlink="http://www.w3.org/1999/xlink" version="1.2" baseProfile="tiny">
<title>Abstract block</title>
<desc>block_control_repeat_forever</desc>
<defs>
</defs>
<g fill="none" stroke="black" stroke-width="1" fill-rule="evenodd" stroke-linecap="square" stroke-linejoin="bevel" >

<g fill="none" stroke="#000000" stroke-opacity="1" stroke-width="1" stroke-linecap="square" stroke-linejoin="bevel" transform="matrix(1,0,0,1,0,0)"
font-family=".AppleSystemUIFont" font-size="13" font-weight="400" font-style="normal" 
>
</g>

<g fill="none" stroke="#000000" stroke-opacity="1" stroke-width="1" stroke-linecap="square" stroke-linejoin="bevel" transform="matrix(1,0,0,1,0,0)"
font-family=".AppleSystemUIFont" font-size="13" font-weight="400" font-style="normal" 
>
</g>

<g fill="#ffb515" fill-opacity="1" stroke="#d89400" stroke-opacity="1" stroke-width="1.2" stroke-linecap="square" stroke-linejoin="bevel" transform="matrix(1,0,0,1,0,0)"
font-family=".AppleSystemUIFont" font-size="13" font-weight="400" font-style="normal" 
>
<path vector-effect="none" fill-rule="evenodd" d="M0.5,4.5 L1.04612,2.48112 L2.48112,1.04612 L4.5,0.5 L9.625,0.5 L10.416,0.976563 L11.1719,1.6875 L11.998,2.67969 L13,4 L13.7559,4.66016 L14.5469,5.15625 L15.4082,5.51172 L16.375,5.75 L17.4824,5.89453 L18.7656,5.96875 L20.2598,5.99609 L22,6 L23.7402,5.99609 L25.2344,5.96875 L26.5176,5.89453 L27.625,5.75 L28.5918,5.51172 L29.4531,5.15625 L30.2441,4.66016 L31,4 L32.002,2.67969 L32.8281,1.6875 L33.584,0.976563 L34.375,0.5 L146.7,0.5 L148.719,1.04612 L150.154,2.48112 L150.7,4.5 L150.7,33.625 L150.607,33.9259 L149.126,35.4074 L147.2,36 L52,36 L50.0137,36.0078 L48.4844,36.0625 L47.3066,36.2109 L46.375,36.5 L45.584,36.9766 L44.8281,37.6875 L44.002,38.6797 L43,40 L42.2441,40.6602 L41.4531,41.1563 L40.5918,41.5117 L39.625,41.75 L38.5176,41.8945 L37.2344,41.9688 L35.7402,41.9961 L34,42 L32.2598,41.9961 L30.7656,41.9688 L29.4824,41.8945 L28.375,41.75 L27.4082,41.5117 L26.5469,41.1563 L25.7559,40.6602 L25,40 L23.998,38.6797 L23.1719,37.6875 L22.416,36.9766 L21.625,36.5 L20.6934,36.2109 L19.5156,36.0625 L17.9863,36.0078 L16,36 L13.9811,36.5461 L12.5461,37.9811 L12,40 L12,52 L12.5461,54.0189 L13.9811,55.4539 L16,56 L22.4409,56 L23.1719,56.6875 L23.998,57.6797 L25,59 L25.7559,59.6602 L26.5469,60.1563 L27.4082,60.5117 L28.375,60.75 L29.4824,60.8945 L30.7656,60.9688 L32.2598,60.9961 L34,61 L35.7402,60.9961 L37.2344,60.9688 L38.5176,60.8945 L39.625,60.75 L40.5918,60.5117 L41.4531,60.1563 L42.2441,59.6602 L43,59 L44.002,57.6797 L44.8281,56.6875 L45.5591,56 L147.2,56 L149.126,56.5926 L150.607,58.0741 L150.7,58.375 L150.7,79.5 L150.154,81.5189 L148.719,82.9539 L146.7,83.5 L4.5,83.5 L2.48112,82.9539 L1.04612,81.5189 L0.5,79.5 L0.5,4.5"/>
</g>

<g fill="#ffffff" fill-opacity="1" stroke="none" transform="matrix(1,0,0,1,0,0)"
font-family="Inter" font-size="11" font-weight="700" font-style="normal" 
>
<path vector-effect="none" fill-rule="nonzero" d="M15.4688,16 L15.4688,17.25 L11.7656,17.25 L11.7656,16 L15.4688,16 M12.6133,22 L12.6133,15.5664 C12.6133,15.1315 12.6986,14.7708 12.8691,14.4844 C13.0397,14.1979 13.2734,13.9831 13.5703,13.8398 C13.8672,13.6966 14.2044,13.625 14.582,13.625 C14.8372,13.625 15.071,13.6445 15.2832,13.6836 C15.4954,13.7227 15.6536,13.7578 15.7578,13.7891 L15.4609,15.0391 C15.3958,15.0182 15.3158,14.9987 15.2207,14.9805 C15.1257,14.9622 15.0286,14.9531 14.9297,14.9531 C14.6849,14.9531 14.5143,15.0098 14.418,15.123 C14.3216,15.2363 14.2734,15.3945 14.2734,15.5977 L14.2734,22 L12.6133,22 M18.9844,22.1172 C18.3776,22.1172 17.8535,21.9876 17.4121,21.7285 C16.9707,21.4694 16.6302,21.1074 16.3906,20.6426 C16.151,20.1777 16.0313,19.638 16.0313,19.0234 C16.0313,18.4036 16.151,17.8613 16.3906,17.3965 C16.6302,16.9316 16.9707,16.5697 17.4121,16.3105 C17.8535,16.0514 18.3776,15.9219 18.9844,15.9219 C19.5911,15.9219 20.1152,16.0514 20.5566,16.3105 C20.998,16.5697 21.3385,16.9316 21.5781,17.3965 C21.8177,17.8613 21.9375,18.4036 21.9375,19.0234 C21.9375,19.638 21.8177,20.1777 21.5781,20.6426 C21.3385,21.1074 20.998,21.4694 20.5566,21.7285 C20.1152,21.9876 19.5911,22.1172 18.9844,22.1172 M18.9922,20.8281 C19.2682,20.8281 19.4987,20.7493 19.6836,20.5918 C19.8685,20.4342 20.0085,20.2188 20.1035,19.9453 C20.1986,19.6719 20.2461,19.3607 20.2461,19.0117 C20.2461,18.6628 20.1986,18.3516 20.1035,18.0781 C20.0085,17.8047 19.8685,17.5885 19.6836,17.4297 C19.4987,17.2708 19.2682,17.1914 18.9922,17.1914 C18.7135,17.1914 18.4798,17.2708 18.291,17.4297 C18.1022,17.5885 17.9603,17.8047 17.8652,18.0781 C17.7702,18.3516 17.7227,18.6628 17.7227,19.0117 C17.7227,19.3607 17.7702,19.6719 17.8652,19.9453 C17.9603,20.2188 18.1022,20.4342 18.291,20.5918 C18.4798,20.7493 18.7135,20.8281 18.9922,20.8281 M23.0234,22 L23.0234,16 L24.6367,16 L24.6367,17.0469 L24.6992,17.0469 C24.8086,16.6745 24.9922,16.3926 25.25,16.2012 C25.5078,16.0098 25.8047,15.9141 26.1406,15.9141 C26.224,15.9141 26.3138,15.9193 26.4102,15.9297 C26.5065,15.9401 26.5911,15.9544 26.6641,15.9727 L26.6641,17.4492 C26.5859,17.4258 26.4779,17.4049 26.3398,17.3867 C26.2018,17.3685 26.0755,17.3594 25.9609,17.3594 C25.7161,17.3594 25.498,17.4121 25.3066,17.5176 C25.1152,17.623 24.9642,17.7695 24.8535,17.957 C24.7428,18.1445 24.6875,18.3607 24.6875,18.6055 L24.6875,22 L23.0234,22 M29.9609,22.1172 C29.3438,22.1172 28.8132,21.9915 28.3691,21.7402 C27.9251,21.4889 27.5833,21.1322 27.3438,20.6699 C27.1042,20.2077 26.9844,19.6602 26.9844,19.0273 C26.9844,18.4102 27.1042,17.8685 27.3438,17.4023 C27.5833,16.9362 27.9212,16.5729 28.3574,16.3125 C28.7936,16.0521 29.306,15.9219 29.8945,15.9219 C30.2904,15.9219 30.6595,15.985 31.002,16.1113 C31.3444,16.2376 31.6439,16.4271 31.9004,16.6797 C32.1569,16.9323 32.3568,17.2493 32.5,17.6309 C32.6432,18.0124 32.7148,18.4583 32.7148,18.9688 L32.7148,19.4258 L27.6484,19.4258 L27.6484,18.3945 L31.1484,18.3945 C31.1484,18.1549 31.0964,17.9427 30.9922,17.7578 C30.888,17.5729 30.7441,17.4277 30.5605,17.3223 C30.377,17.2168 30.1641,17.1641 29.9219,17.1641 C29.6693,17.1641 29.446,17.222 29.252,17.3379 C29.0579,17.4538 28.9063,17.6087 28.7969,17.8027 C28.6875,17.9967 28.6315,18.2122 28.6289,18.4492 L28.6289,19.4297 C28.6289,19.7266 28.6842,19.9831 28.7949,20.1992 C28.9056,20.4154 29.0625,20.582 29.2656,20.6992 C29.4688,20.8164 29.7096,20.875 29.9883,20.875 C30.1732,20.875 30.3424,20.849 30.4961,20.7969 C30.6497,20.7448 30.7813,20.6667 30.8906,20.5625 C31,20.4583 31.0833,20.3307 31.1406,20.1797 L32.6797,20.2813 C32.6016,20.651 32.4421,20.9733 32.2012,21.248 C31.9603,21.5228 31.6504,21.7363 31.2715,21.8887 C30.8926,22.041 30.4557,22.1172 29.9609,22.1172 M39.2109,16 L37.1133,22 L35.2383,22 L33.1406,16 L34.8984,16 L36.1445,20.293 L36.207,20.293 L37.4492,16 L39.2109,16 M42.5859,22.1172 C41.9688,22.1172 41.4382,21.9915 40.9941,21.7402 C40.5501,21.4889 40.2083,21.1322 39.9688,20.6699 C39.7292,20.2077 39.6094,19.6602 39.6094,19.0273 C39.6094,18.4102 39.7292,17.8685 39.9688,17.4023 C40.2083,16.9362 40.5462,16.5729 40.9824,16.3125 C41.4186,16.0521 41.931,15.9219 42.5195,15.9219 C42.9154,15.9219 43.2845,15.985 43.627,16.1113 C43.9694,16.2376 44.2689,16.4271 44.5254,16.6797 C44.7819,16.9323 44.9818,17.2493 45.125,17.6309 C45.2682,18.0124 45.3398,18.4583 45.3398,18.9688 L45.3398,19.4258 L40.2734,19.4258 L40.2734,18.3945 L43.7734,18.3945 C43.7734,18.1549 43.7214,17.9427 43.6172,17.7578 C43.513,17.5729 43.3691,17.4277 43.1855,17.3223 C43.002,17.2168 42.7891,17.1641 42.5469,17.1641 C42.2943,17.1641 42.071,17.222 41.877,17.3379 C41.6829,17.4538 41.5313,17.6087 41.4219,17.8027 C41.3125,17.9967 41.2565,18.2122 41.2539,18.4492 L41.2539,19.4297 C41.2539,19.7266 41.3092,19.9831 41.4199,20.1992 C41.5306,20.4154 41.6875,20.582 41.8906,20.6992 C42.0938,20.8164 42.3346,20.875 42.6133,20.875 C42.7982,20.875 42.9674,20.849 43.1211,20.7969 C43.2747,20.7448 43.4063,20.6667 43.5156,20.5625 C43.625,20.4583 43.7083,20.3307 43.7656,20.1797 L45.3047,20.2813 C45.2266,20.651 45.0671,20.9733 44.8262,21.248 C44.5853,21.5228 44.2754,21.7363 43.8965,21.8887 C43.5176,22.041 43.0807,22.1172 42.5859,22.1172 M46.4141,22 L46.4141,16 L48.0273,16 L48.0273,17.0469 L48.0898,17.0469 C48.1992,16.6745 48.3828,16.3926 48.6406,16.2012 C48.8984,16.0098 49.1953,15.9141 49.5313,15.9141 C49.6146,15.9141 49.7044,15.9193 49.8008,15.9297 C49.8971,15.9401 49.9818,15.9544 50.0547,15.9727 L50.0547,17.4492 C49.9766,17.4258 49.8685,17.4049 49.7305,17.3867 C49.5924,17.3685 49.4661,17.3594 49.3516,17.3594 C49.1068,17.3594 48.8887,17.4121 48.6973,17.5176 C48.5059,17.623 48.3548,17.7695 48.2441,17.957 C48.1335,18.1445 48.0781,18.3607 48.0781,18.6055 L48.0781,22 L46.4141,22"/>
</g>

<g fill="#ffffff" fill-opacity="1" stroke="none" transform="matrix(0.03125,0,0,0.03125,129.2,62)"
font-family="Inter" font-size="11" font-weight="700" font-style="normal" 
>
<path vector-effect="none" fill-rule="nonzero" d="M436.924,214.274 C432.753,223.681 423.346,229.815 413.04,229.815 L360.69,229.815 L360.69,321.427 C360.69,400.932 296.235,465.387 216.73,465.387 C124.055,465.387 82.6664,398.724 74.3233,383.428 C73.1781,381.383 72.7691,379.093 72.7691,376.802 C72.7691,367.887 80.049,360.689 88.8829,360.689 C95.0176,360.689 100.661,364.206 104.833,368.705 C112.113,376.393 126.427,386.863 151.293,386.863 C194.645,386.863 229.817,351.691 229.817,308.339 L229.817,229.815 L177.468,229.815 C167.162,229.815 157.755,223.762 153.583,214.274 C149.412,204.786 151.13,193.825 158,186.136 L275.786,55.263 C280.776,49.7827 287.81,46.5926 295.254,46.5926 C302.697,46.5926 309.732,49.7009 314.721,55.263 L432.507,186.136 C439.46,193.825 441.178,204.868 436.924,214.274 "/>
</g>

<g fill="#ffffff" fill-opacity="1" stroke="none" transform="matrix(1,0,0,1,0,0)"
font-family="Inter" font-size="11" font-weight="700" font-style="normal" 
>
</g>

<g fill="#ffffff" fill-opacity="1" stroke="none" transform="matrix(1,0,0,1,0,0)"
font-family="Inter" font-size="11" font-weight="700" font-style="normal" 
>
</g>

<g fill="#ffffff" fill-opacity="1" stroke="none" transform="matrix(1,0,0,1,0,0)"
font-family="Inter" font-size="11" font-weight="700" font-style="normal" 
>
</g>

<g fill="#ffffff" fill-opacity="1" stroke="none" transform="matrix(1,0,0,1,0,0)"
font-family="Inter" font-size="11" font-weight="700" font-style="normal" 
>
</g>

<g fill="none" stroke="#000000" stroke-opacity="1" stroke-width="1" stroke-linecap="square" stroke-linejoin="bevel" transform="matrix(1,0,0,1,0,0)"
font-family=".AppleSystemUIFont" font-size="13" font-weight="400" font-style="normal" 
>
</g>
</g>
</svg>
