<?xml version="1.0" encoding="UTF-8" standalone="no"?>
<svg width="118.886mm" height="21.1667mm"
 viewBox="0 0 337 60"
 xmlns="http://www.w3.org/2000/svg" xmlns:xlink="http://www.w3.org/1999/xlink" version="1.2" baseProfile="tiny">
<title>Abstract block</title>
<desc>block_hubs_all_event_tilt_changed</desc>
<defs>
</defs>
<g fill="none" stroke="black" stroke-width="1" fill-rule="evenodd" stroke-linecap="square" stroke-linejoin="bevel" >

<g fill="none" stroke="#000000" stroke-opacity="1" stroke-width="1" stroke-linecap="square" stroke-linejoin="bevel" transform="matrix(1,0,0,1,0,0)"
font-family=".AppleSystemUIFont" font-size="13" font-weight="400" font-style="normal" 
>
</g>

<g fill="none" stroke="#000000" stroke-opacity="1" stroke-width="1" stroke-linecap="square" stroke-linejoin="bevel" transform="matrix(1,0,0,1,0,0)"
font-family=".AppleSystemUIFont" font-size="13" font-weight="400" font-style="normal" 
>
</g>

<g fill="#f5c400" fill-opacity="1" stroke="#ba9500" stroke-opacity="1" stroke-width="1.2" stroke-linecap="square" stroke-linejoin="bevel" transform="matrix(1,0,0,1,0,0)"
font-family=".AppleSystemUIFont" font-size="13" font-weight="400" font-style="normal" 
>
<path vector-effect="none" fill-rule="evenodd" d="M0.5,20.5 L1,18.6516 L1,18 L1.77836,17.1565 L2.58892,16.3401 L3.43062,15.551 L4.30242,14.7891 L5.20325,14.0544 L6.13206,13.3469 L7.08779,12.6667 L8.06939,12.0136 L9.0758,11.3878 L10.106,10.7891 L11.1588,10.2177 L12.2333,9.67347 L13.3284,9.15646 L14.4431,8.66667 L15.5762,8.20408 L16.7267,7.76871 L17.8936,7.36054 L19.0758,6.97959 L20.2723,6.62585 L21.4819,6.29932 L22.7037,6 L23.9366,5.72789 L25.1795,5.48299 L26.4314,5.26531 L27.6912,5.07483 L28.9578,4.91156 L30.2303,4.77551 L31.5075,4.66667 L32.7885,4.58503 L34.072,4.53061 L35.3572,4.5034 L36.6428,4.5034 L37.928,4.53061 L39.2115,4.58503 L40.4925,4.66667 L41.7697,4.77551 L43.0422,4.91156 L44.3088,5.07483 L45.5686,5.26531 L46.8205,5.48299 L48.0634,5.72789 L49.2963,6 L50.5181,6.29932 L51.7277,6.62585 L52.9242,6.97959 L54.1064,7.36054 L55.2733,7.76871 L56.4238,8.20408 L57.5569,8.66667 L58.6716,9.15646 L59.7667,9.67347 L60.8412,10.2177 L61.894,10.7891 L62.9242,11.3878 L63.9306,12.0136 L64.9122,12.6667 L65.8679,13.3469 L66.7968,14.0544 L67.6976,14.7891 L68.5694,15.551 L69.4111,16.3401 L69.5698,16.5 L332.5,16.5 L334.519,17.0461 L335.954,18.4811 L336.5,20.5 L336.5,47.5 L335.954,49.5189 L334.519,50.9539 L332.5,51.5 L34.375,51.5 L33.584,51.9766 L32.8281,52.6875 L32.002,53.6797 L31,55 L30.2441,55.6602 L29.4531,56.1563 L28.5918,56.5117 L27.625,56.75 L26.5176,56.8945 L25.2344,56.9688 L23.7402,56.9961 L22,57 L20.2598,56.9961 L18.7656,56.9688 L17.4824,56.8945 L16.375,56.75 L15.4082,56.5117 L14.5469,56.1563 L13.7559,55.6602 L13,55 L11.998,53.6797 L11.1719,52.6875 L10.416,51.9766 L9.625,51.5 L4.5,51.5 L2.48112,50.9539 L1.04612,49.5189 L0.5,47.5 L0.5,20.5"/>
</g>

<g fill="#ffffff" fill-opacity="1" stroke="none" transform="matrix(1,0,0,1,0,0)"
font-family="Inter" font-size="11" font-weight="700" font-style="normal" 
>
<path vector-effect="none" fill-rule="nonzero" d="M53.4727,37.9063 L51.8398,31.9063 L53.5234,31.9063 L54.4531,35.9375 L54.5078,35.9375 L55.4766,31.9063 L57.1289,31.9063 L58.1133,35.9141 L58.1641,35.9141 L59.0781,31.9063 L60.7578,31.9063 L59.1289,37.9063 L57.3672,37.9063 L56.3359,34.1328 L56.2617,34.1328 L55.2305,37.9063 L53.4727,37.9063 M63.2969,34.4375 L63.2969,37.9063 L61.6328,37.9063 L61.6328,29.9063 L63.25,29.9063 L63.25,32.9648 L63.3203,32.9648 C63.4557,32.6107 63.6745,32.3327 63.9766,32.1309 C64.2786,31.929 64.6576,31.8281 65.1133,31.8281 C65.5299,31.8281 65.8939,31.9186 66.2051,32.0996 C66.5163,32.2806 66.7585,32.5397 66.9316,32.877 C67.1048,33.2142 67.1901,33.6172 67.1875,34.0859 L67.1875,37.9063 L65.5234,37.9063 L65.5234,34.3828 C65.526,34.013 65.4329,33.7253 65.2441,33.5195 C65.0553,33.3138 64.7917,33.2109 64.4531,33.2109 C64.2266,33.2109 64.0267,33.2591 63.8535,33.3555 C63.6803,33.4518 63.5449,33.5918 63.4473,33.7754 C63.3496,33.959 63.2995,34.1797 63.2969,34.4375 M71.2266,38.0234 C70.6094,38.0234 70.0788,37.8978 69.6348,37.6465 C69.1908,37.3952 68.849,37.0384 68.6094,36.5762 C68.3698,36.1139 68.25,35.5664 68.25,34.9336 C68.25,34.3164 68.3698,33.7747 68.6094,33.3086 C68.849,32.8424 69.1868,32.4792 69.623,32.2188 C70.0592,31.9583 70.5716,31.8281 71.1602,31.8281 C71.556,31.8281 71.9251,31.8913 72.2676,32.0176 C72.61,32.1439 72.9095,32.3333 73.166,32.5859 C73.4225,32.8385 73.6224,33.1556 73.7656,33.5371 C73.9089,33.9186 73.9805,34.3646 73.9805,34.875 L73.9805,35.332 L68.9141,35.332 L68.9141,34.3008 L72.4141,34.3008 C72.4141,34.0612 72.362,33.849 72.2578,33.6641 C72.1536,33.4792 72.0098,33.334 71.8262,33.2285 C71.6426,33.123 71.4297,33.0703 71.1875,33.0703 C70.9349,33.0703 70.7116,33.1283 70.5176,33.2441 C70.3236,33.36 70.1719,33.515 70.0625,33.709 C69.9531,33.903 69.8971,34.1185 69.8945,34.3555 L69.8945,35.3359 C69.8945,35.6328 69.9499,35.8893 70.0605,36.1055 C70.1712,36.3216 70.3281,36.4883 70.5313,36.6055 C70.7344,36.7227 70.9753,36.7813 71.2539,36.7813 C71.4388,36.7813 71.6081,36.7552 71.7617,36.7031 C71.9154,36.651 72.0469,36.5729 72.1563,36.4688 C72.2656,36.3646 72.349,36.237 72.4063,36.0859 L73.9453,36.1875 C73.8672,36.5573 73.7077,36.8796 73.4668,37.1543 C73.2259,37.429 72.916,37.6426 72.5371,37.7949 C72.1582,37.9473 71.7214,38.0234 71.2266,38.0234 M76.7188,34.4375 L76.7188,37.9063 L75.0547,37.9063 L75.0547,31.9063 L76.6406,31.9063 L76.6406,32.9648 L76.7109,32.9648 C76.8438,32.6159 77.0664,32.3392 77.3789,32.1348 C77.6914,31.9303 78.0703,31.8281 78.5156,31.8281 C78.9323,31.8281 79.2956,31.9193 79.6055,32.1016 C79.9154,32.2839 80.1563,32.5436 80.3281,32.8809 C80.5,33.2181 80.5859,33.6198 80.5859,34.0859 L80.5859,37.9063 L78.9219,37.9063 L78.9219,34.3828 C78.9245,34.0156 78.8307,33.7285 78.6406,33.5215 C78.4505,33.3145 78.1888,33.2109 77.8555,33.2109 C77.6315,33.2109 77.4342,33.2591 77.2637,33.3555 C77.0931,33.4518 76.9603,33.5918 76.8652,33.7754 C76.7702,33.959 76.7214,34.1797 76.7188,34.4375 "/>
</g>

<g fill="#ffffff" fill-opacity="1" stroke="none" transform="matrix(1,0,0,1,0,0)"
font-family="Inter" font-size="11" font-weight="700" font-style="normal" 
>
<path vector-effect="none" fill-rule="nonzero" d="M171.371,31.9531 L171.371,33.2031 L167.758,33.2031 L167.758,31.9531 L171.371,31.9531 M168.578,30.5156 L170.242,30.5156 L170.242,36.1094 C170.242,36.263 170.266,36.3822 170.313,36.4668 C170.359,36.5514 170.425,36.6107 170.51,36.6445 C170.594,36.6784 170.693,36.6953 170.805,36.6953 C170.883,36.6953 170.961,36.6882 171.039,36.6738 C171.117,36.6595 171.177,36.6484 171.219,36.6406 L171.48,37.8789 C171.397,37.9049 171.28,37.9355 171.129,37.9707 C170.978,38.0059 170.794,38.0273 170.578,38.0352 C170.177,38.0508 169.826,37.9974 169.525,37.875 C169.225,37.7526 168.991,37.5625 168.824,37.3047 C168.658,37.0469 168.576,36.7214 168.578,36.3281 L168.578,30.5156 M172.445,37.9531 L172.445,31.9531 L174.109,31.9531 L174.109,37.9531 L172.445,37.9531 M173.281,31.1797 C173.034,31.1797 172.822,31.097 172.646,30.9316 C172.471,30.7663 172.383,30.5677 172.383,30.3359 C172.383,30.1068 172.471,29.9095 172.646,29.7441 C172.822,29.5788 173.034,29.4961 173.281,29.4961 C173.529,29.4961 173.74,29.5788 173.916,29.7441 C174.092,29.9095 174.18,30.1068 174.18,30.3359 C174.18,30.5677 174.092,30.7663 173.916,30.9316 C173.74,31.097 173.529,31.1797 173.281,31.1797 M177.094,29.9531 L177.094,37.9531 L175.43,37.9531 L175.43,29.9531 L177.094,29.9531 M181.605,31.9531 L181.605,33.2031 L177.992,33.2031 L177.992,31.9531 L181.605,31.9531 M178.813,30.5156 L180.477,30.5156 L180.477,36.1094 C180.477,36.263 180.5,36.3822 180.547,36.4668 C180.594,36.5514 180.66,36.6107 180.744,36.6445 C180.829,36.6784 180.927,36.6953 181.039,36.6953 C181.117,36.6953 181.195,36.6882 181.273,36.6738 C181.352,36.6595 181.411,36.6484 181.453,36.6406 L181.715,37.8789 C181.632,37.9049 181.514,37.9355 181.363,37.9707 C181.212,38.0059 181.029,38.0273 180.813,38.0352 C180.411,38.0508 180.061,37.9974 179.76,37.875 C179.459,37.7526 179.225,37.5625 179.059,37.3047 C178.892,37.0469 178.81,36.7214 178.813,36.3281 L178.813,30.5156"/>
</g>

<g fill="#ffffff" fill-opacity="1" stroke="none" transform="matrix(1,0,0,1,0,0)"
font-family="Inter" font-size="11" font-weight="700" font-style="normal" 
>
<path vector-effect="none" fill-rule="nonzero" d="M247.766,36.8789 C247.383,36.8789 247.042,36.8118 246.742,36.6777 C246.443,36.5436 246.206,36.3444 246.033,36.0801 C245.86,35.8158 245.773,35.4857 245.773,35.0898 C245.773,34.7565 245.835,34.4766 245.957,34.25 C246.079,34.0234 246.246,33.8411 246.457,33.7031 C246.668,33.5651 246.908,33.4609 247.178,33.3906 C247.447,33.3203 247.73,33.2708 248.027,33.2422 C248.376,33.2057 248.658,33.1712 248.871,33.1387 C249.085,33.1061 249.24,33.0573 249.336,32.9922 C249.432,32.9271 249.48,32.8307 249.48,32.7031 L249.48,32.6797 C249.48,32.4323 249.403,32.2409 249.248,32.1055 C249.093,31.9701 248.874,31.9023 248.59,31.9023 C248.29,31.9023 248.052,31.9681 247.875,32.0996 C247.698,32.2311 247.581,32.3958 247.523,32.5938 L245.984,32.4688 C246.063,32.1042 246.216,31.7884 246.445,31.5215 C246.674,31.2546 246.971,31.0488 247.334,30.9043 C247.697,30.7598 248.118,30.6875 248.598,30.6875 C248.931,30.6875 249.251,30.7266 249.557,30.8047 C249.863,30.8828 250.135,31.0039 250.373,31.168 C250.611,31.332 250.799,31.5423 250.938,31.7988 C251.076,32.0553 251.145,32.362 251.145,32.7188 L251.145,36.7656 L249.566,36.7656 L249.566,35.9336 L249.52,35.9336 C249.423,36.1211 249.294,36.2858 249.133,36.4277 C248.971,36.5697 248.777,36.6803 248.551,36.7598 C248.324,36.8392 248.063,36.8789 247.766,36.8789 M248.242,35.7305 C248.487,35.7305 248.703,35.6816 248.891,35.584 C249.078,35.4863 249.225,35.3542 249.332,35.1875 C249.439,35.0208 249.492,34.832 249.492,34.6211 L249.492,33.9844 C249.44,34.0182 249.369,34.0488 249.279,34.0762 C249.189,34.1035 249.089,34.1283 248.977,34.1504 C248.865,34.1725 248.753,34.1921 248.641,34.209 C248.529,34.2259 248.427,34.2409 248.336,34.2539 C248.141,34.2826 247.97,34.3281 247.824,34.3906 C247.678,34.4531 247.565,34.5371 247.484,34.6426 C247.404,34.748 247.363,34.8789 247.363,35.0352 C247.363,35.2617 247.446,35.4342 247.611,35.5527 C247.777,35.6712 247.987,35.7305 248.242,35.7305 M254.094,33.2969 L254.094,36.7656 L252.43,36.7656 L252.43,30.7656 L254.016,30.7656 L254.016,31.8242 L254.086,31.8242 C254.219,31.4753 254.441,31.1986 254.754,30.9941 C255.066,30.7897 255.445,30.6875 255.891,30.6875 C256.307,30.6875 256.671,30.7786 256.98,30.9609 C257.29,31.1432 257.531,31.403 257.703,31.7402 C257.875,32.0775 257.961,32.4792 257.961,32.9453 L257.961,36.7656 L256.297,36.7656 L256.297,33.2422 C256.299,32.875 256.206,32.5879 256.016,32.3809 C255.826,32.1738 255.564,32.0703 255.23,32.0703 C255.007,32.0703 254.809,32.1185 254.639,32.2148 C254.468,32.3112 254.335,32.4512 254.24,32.6348 C254.145,32.8184 254.096,33.0391 254.094,33.2969 M261.961,39.1406 C261.422,39.1406 260.96,39.0671 260.576,38.9199 C260.192,38.7728 259.887,38.5729 259.66,38.3203 C259.434,38.0677 259.286,37.7839 259.219,37.4688 L260.758,37.2617 C260.805,37.3815 260.879,37.4935 260.98,37.5977 C261.082,37.7018 261.217,37.7858 261.385,37.8496 C261.553,37.9134 261.758,37.9453 262,37.9453 C262.362,37.9453 262.661,37.8574 262.896,37.6816 C263.132,37.5059 263.25,37.2122 263.25,36.8008 L263.25,35.7031 L263.18,35.7031 C263.107,35.8698 262.997,36.0273 262.852,36.1758 C262.706,36.3242 262.518,36.4453 262.289,36.5391 C262.06,36.6328 261.786,36.6797 261.469,36.6797 C261.018,36.6797 260.609,36.5749 260.24,36.3652 C259.872,36.1556 259.579,35.834 259.361,35.4004 C259.144,34.9668 259.035,34.418 259.035,33.7539 C259.035,33.0742 259.146,32.5065 259.367,32.0508 C259.589,31.5951 259.883,31.2539 260.252,31.0273 C260.62,30.8008 261.025,30.6875 261.465,30.6875 C261.801,30.6875 262.082,30.7441 262.309,30.8574 C262.535,30.9707 262.718,31.1113 262.857,31.2793 C262.997,31.4473 263.104,31.612 263.18,31.7734 L263.242,31.7734 L263.242,30.7656 L264.895,30.7656 L264.895,36.8242 C264.895,37.3346 264.77,37.7617 264.52,38.1055 C264.27,38.4492 263.924,38.7077 263.482,38.8809 C263.041,39.054 262.534,39.1406 261.961,39.1406 M261.996,35.4297 C262.264,35.4297 262.492,35.3626 262.678,35.2285 C262.864,35.0944 263.007,34.9017 263.107,34.6504 C263.208,34.3991 263.258,34.0977 263.258,33.7461 C263.258,33.3945 263.208,33.0892 263.109,32.8301 C263.01,32.571 262.867,32.3698 262.68,32.2266 C262.492,32.0833 262.264,32.0117 261.996,32.0117 C261.723,32.0117 261.492,32.0853 261.305,32.2324 C261.117,32.3796 260.975,32.5833 260.879,32.8438 C260.783,33.1042 260.734,33.4049 260.734,33.7461 C260.734,34.0924 260.783,34.3913 260.881,34.6426 C260.979,34.8939 261.12,35.0879 261.307,35.2246 C261.493,35.3613 261.723,35.4297 261.996,35.4297 M267.875,28.7656 L267.875,36.7656 L266.211,36.7656 L266.211,28.7656 L267.875,28.7656 M271.93,36.8828 C271.313,36.8828 270.782,36.7572 270.338,36.5059 C269.894,36.2546 269.552,35.8978 269.313,35.4355 C269.073,34.9733 268.953,34.4258 268.953,33.793 C268.953,33.1758 269.073,32.6341 269.313,32.168 C269.552,31.7018 269.89,31.3385 270.326,31.0781 C270.762,30.8177 271.275,30.6875 271.863,30.6875 C272.259,30.6875 272.628,30.7507 272.971,30.877 C273.313,31.0033 273.613,31.1927 273.869,31.4453 C274.126,31.6979 274.326,32.015 274.469,32.3965 C274.612,32.778 274.684,33.224 274.684,33.7344 L274.684,34.1914 L269.617,34.1914 L269.617,33.1602 L273.117,33.1602 C273.117,32.9206 273.065,32.7083 272.961,32.5234 C272.857,32.3385 272.713,32.1934 272.529,32.0879 C272.346,31.9824 272.133,31.9297 271.891,31.9297 C271.638,31.9297 271.415,31.9876 271.221,32.1035 C271.027,32.2194 270.875,32.3743 270.766,32.5684 C270.656,32.7624 270.6,32.9779 270.598,33.2148 L270.598,34.1953 C270.598,34.4922 270.653,34.7487 270.764,34.9648 C270.874,35.181 271.031,35.3477 271.234,35.4648 C271.438,35.582 271.678,35.6406 271.957,35.6406 C272.142,35.6406 272.311,35.6146 272.465,35.5625 C272.618,35.5104 272.75,35.4323 272.859,35.3281 C272.969,35.224 273.052,35.0964 273.109,34.9453 L274.648,35.0469 C274.57,35.4167 274.411,35.7389 274.17,36.0137 C273.929,36.2884 273.619,36.502 273.24,36.6543 C272.861,36.8066 272.424,36.8828 271.93,36.8828 M281.016,36.8828 C280.401,36.8828 279.873,36.752 279.432,36.4902 C278.99,36.2285 278.652,35.8646 278.416,35.3984 C278.18,34.9323 278.063,34.3958 278.063,33.7891 C278.063,33.1745 278.182,32.6348 278.42,32.1699 C278.658,31.7051 278.997,31.3418 279.438,31.0801 C279.878,30.8184 280.401,30.6875 281.008,30.6875 C281.531,30.6875 281.99,30.7826 282.383,30.9727 C282.776,31.1628 283.087,31.4297 283.316,31.7734 C283.546,32.1172 283.672,32.5208 283.695,32.9844 L282.125,32.9844 C282.081,32.6849 281.964,32.4434 281.775,32.2598 C281.587,32.0762 281.34,31.9844 281.035,31.9844 C280.777,31.9844 280.553,32.054 280.361,32.1934 C280.17,32.3327 280.021,32.5352 279.914,32.8008 C279.807,33.0664 279.754,33.388 279.754,33.7656 C279.754,34.1484 279.807,34.474 279.912,34.7422 C280.018,35.0104 280.167,35.2148 280.359,35.3555 C280.552,35.4961 280.777,35.5664 281.035,35.5664 C281.225,35.5664 281.396,35.5273 281.549,35.4492 C281.701,35.3711 281.827,35.2572 281.928,35.1074 C282.028,34.9577 282.094,34.7773 282.125,34.5664 L283.695,34.5664 C283.669,35.0247 283.545,35.4277 283.322,35.7754 C283.1,36.123 282.793,36.3945 282.402,36.5898 C282.012,36.7852 281.549,36.8828 281.016,36.8828 M286.422,33.2969 L286.422,36.7656 L284.758,36.7656 L284.758,28.7656 L286.375,28.7656 L286.375,31.8242 L286.445,31.8242 C286.581,31.4701 286.799,31.1921 287.102,30.9902 C287.404,30.7884 287.783,30.6875 288.238,30.6875 C288.655,30.6875 289.019,30.778 289.33,30.959 C289.641,31.14 289.883,31.3991 290.057,31.7363 C290.23,32.0736 290.315,32.4766 290.313,32.9453 L290.313,36.7656 L288.648,36.7656 L288.648,33.2422 C288.651,32.8724 288.558,32.5846 288.369,32.3789 C288.18,32.1732 287.917,32.0703 287.578,32.0703 C287.352,32.0703 287.152,32.1185 286.979,32.2148 C286.805,32.3112 286.67,32.4512 286.572,32.6348 C286.475,32.8184 286.424,33.0391 286.422,33.2969 M293.328,36.8789 C292.945,36.8789 292.604,36.8118 292.305,36.6777 C292.005,36.5436 291.769,36.3444 291.596,36.0801 C291.423,35.8158 291.336,35.4857 291.336,35.0898 C291.336,34.7565 291.397,34.4766 291.52,34.25 C291.642,34.0234 291.809,33.8411 292.02,33.7031 C292.23,33.5651 292.471,33.4609 292.74,33.3906 C293.01,33.3203 293.293,33.2708 293.59,33.2422 C293.939,33.2057 294.22,33.1712 294.434,33.1387 C294.647,33.1061 294.802,33.0573 294.898,32.9922 C294.995,32.9271 295.043,32.8307 295.043,32.7031 L295.043,32.6797 C295.043,32.4323 294.965,32.2409 294.811,32.1055 C294.656,31.9701 294.436,31.9023 294.152,31.9023 C293.853,31.9023 293.615,31.9681 293.438,32.0996 C293.26,32.2311 293.143,32.3958 293.086,32.5938 L291.547,32.4688 C291.625,32.1042 291.779,31.7884 292.008,31.5215 C292.237,31.2546 292.533,31.0488 292.896,30.9043 C293.26,30.7598 293.681,30.6875 294.16,30.6875 C294.493,30.6875 294.813,30.7266 295.119,30.8047 C295.425,30.8828 295.697,31.0039 295.936,31.168 C296.174,31.332 296.362,31.5423 296.5,31.7988 C296.638,32.0553 296.707,32.362 296.707,32.7188 L296.707,36.7656 L295.129,36.7656 L295.129,35.9336 L295.082,35.9336 C294.986,36.1211 294.857,36.2858 294.695,36.4277 C294.534,36.5697 294.34,36.6803 294.113,36.7598 C293.887,36.8392 293.625,36.8789 293.328,36.8789 M293.805,35.7305 C294.049,35.7305 294.266,35.6816 294.453,35.584 C294.641,35.4863 294.788,35.3542 294.895,35.1875 C295.001,35.0208 295.055,34.832 295.055,34.6211 L295.055,33.9844 C295.003,34.0182 294.932,34.0488 294.842,34.0762 C294.752,34.1035 294.651,34.1283 294.539,34.1504 C294.427,34.1725 294.315,34.1921 294.203,34.209 C294.091,34.2259 293.99,34.2409 293.898,34.2539 C293.703,34.2826 293.533,34.3281 293.387,34.3906 C293.241,34.4531 293.128,34.5371 293.047,34.6426 C292.966,34.748 292.926,34.8789 292.926,35.0352 C292.926,35.2617 293.008,35.4342 293.174,35.5527 C293.339,35.6712 293.549,35.7305 293.805,35.7305 M299.656,33.2969 L299.656,36.7656 L297.992,36.7656 L297.992,30.7656 L299.578,30.7656 L299.578,31.8242 L299.648,31.8242 C299.781,31.4753 300.004,31.1986 300.316,30.9941 C300.629,30.7897 301.008,30.6875 301.453,30.6875 C301.87,30.6875 302.233,30.7786 302.543,30.9609 C302.853,31.1432 303.094,31.403 303.266,31.7402 C303.438,32.0775 303.523,32.4792 303.523,32.9453 L303.523,36.7656 L301.859,36.7656 L301.859,33.2422 C301.862,32.875 301.768,32.5879 301.578,32.3809 C301.388,32.1738 301.126,32.0703 300.793,32.0703 C300.569,32.0703 300.372,32.1185 300.201,32.2148 C300.031,32.3112 299.898,32.4512 299.803,32.6348 C299.708,32.8184 299.659,33.0391 299.656,33.2969 M307.523,39.1406 C306.984,39.1406 306.523,39.0671 306.139,38.9199 C305.755,38.7728 305.449,38.5729 305.223,38.3203 C304.996,38.0677 304.849,37.7839 304.781,37.4688 L306.32,37.2617 C306.367,37.3815 306.441,37.4935 306.543,37.5977 C306.645,37.7018 306.779,37.7858 306.947,37.8496 C307.115,37.9134 307.32,37.9453 307.563,37.9453 C307.924,37.9453 308.223,37.8574 308.459,37.6816 C308.695,37.5059 308.813,37.2122 308.813,36.8008 L308.813,35.7031 L308.742,35.7031 C308.669,35.8698 308.56,36.0273 308.414,36.1758 C308.268,36.3242 308.081,36.4453 307.852,36.5391 C307.622,36.6328 307.349,36.6797 307.031,36.6797 C306.581,36.6797 306.171,36.5749 305.803,36.3652 C305.434,36.1556 305.141,35.834 304.924,35.4004 C304.706,34.9668 304.598,34.418 304.598,33.7539 C304.598,33.0742 304.708,32.5065 304.93,32.0508 C305.151,31.5951 305.446,31.2539 305.814,31.0273 C306.183,30.8008 306.587,30.6875 307.027,30.6875 C307.363,30.6875 307.645,30.7441 307.871,30.8574 C308.098,30.9707 308.281,31.1113 308.42,31.2793 C308.559,31.4473 308.667,31.612 308.742,31.7734 L308.805,31.7734 L308.805,30.7656 L310.457,30.7656 L310.457,36.8242 C310.457,37.3346 310.332,37.7617 310.082,38.1055 C309.832,38.4492 309.486,38.7077 309.045,38.8809 C308.604,39.054 308.096,39.1406 307.523,39.1406 M307.559,35.4297 C307.827,35.4297 308.054,35.3626 308.24,35.2285 C308.426,35.0944 308.57,34.9017 308.67,34.6504 C308.77,34.3991 308.82,34.0977 308.82,33.7461 C308.82,33.3945 308.771,33.0892 308.672,32.8301 C308.573,32.571 308.43,32.3698 308.242,32.2266 C308.055,32.0833 307.827,32.0117 307.559,32.0117 C307.285,32.0117 307.055,32.0853 306.867,32.2324 C306.68,32.3796 306.538,32.5833 306.441,32.8438 C306.345,33.1042 306.297,33.4049 306.297,33.7461 C306.297,34.0924 306.346,34.3913 306.443,34.6426 C306.541,34.8939 306.683,35.0879 306.869,35.2246 C307.055,35.3613 307.285,35.4297 307.559,35.4297 M314.508,36.8828 C313.891,36.8828 313.36,36.7572 312.916,36.5059 C312.472,36.2546 312.13,35.8978 311.891,35.4355 C311.651,34.9733 311.531,34.4258 311.531,33.793 C311.531,33.1758 311.651,32.6341 311.891,32.168 C312.13,31.7018 312.468,31.3385 312.904,31.0781 C313.34,30.8177 313.853,30.6875 314.441,30.6875 C314.837,30.6875 315.206,30.7507 315.549,30.877 C315.891,31.0033 316.191,31.1927 316.447,31.4453 C316.704,31.6979 316.904,32.015 317.047,32.3965 C317.19,32.778 317.262,33.224 317.262,33.7344 L317.262,34.1914 L312.195,34.1914 L312.195,33.1602 L315.695,33.1602 C315.695,32.9206 315.643,32.7083 315.539,32.5234 C315.435,32.3385 315.291,32.1934 315.107,32.0879 C314.924,31.9824 314.711,31.9297 314.469,31.9297 C314.216,31.9297 313.993,31.9876 313.799,32.1035 C313.605,32.2194 313.453,32.3743 313.344,32.5684 C313.234,32.7624 313.178,32.9779 313.176,33.2148 L313.176,34.1953 C313.176,34.4922 313.231,34.7487 313.342,34.9648 C313.452,35.181 313.609,35.3477 313.813,35.4648 C314.016,35.582 314.257,35.6406 314.535,35.6406 C314.72,35.6406 314.889,35.6146 315.043,35.5625 C315.197,35.5104 315.328,35.4323 315.438,35.3281 C315.547,35.224 315.63,35.0964 315.688,34.9453 L317.227,35.0469 C317.148,35.4167 316.989,35.7389 316.748,36.0137 C316.507,36.2884 316.197,36.502 315.818,36.6543 C315.439,36.8066 315.003,36.8828 314.508,36.8828 M320.547,36.8633 C320.091,36.8633 319.679,36.7454 319.311,36.5098 C318.942,36.2741 318.65,35.9264 318.436,35.4668 C318.221,35.0072 318.113,34.4427 318.113,33.7734 C318.113,33.0859 318.224,32.5137 318.445,32.0566 C318.667,31.5996 318.962,31.2572 319.33,31.0293 C319.699,30.8014 320.103,30.6875 320.543,30.6875 C320.879,30.6875 321.16,30.7441 321.385,30.8574 C321.61,30.9707 321.792,31.1113 321.932,31.2793 C322.071,31.4473 322.177,31.612 322.25,31.7734 L322.301,31.7734 L322.301,28.7656 L323.961,28.7656 L323.961,36.7656 L322.32,36.7656 L322.32,35.8047 L322.25,35.8047 C322.172,35.9714 322.062,36.1361 321.92,36.2988 C321.778,36.4616 321.594,36.5964 321.369,36.7031 C321.144,36.8099 320.87,36.8633 320.547,36.8633 M321.074,35.5391 C321.342,35.5391 321.57,35.4655 321.756,35.3184 C321.942,35.1712 322.085,34.9648 322.186,34.6992 C322.286,34.4336 322.336,34.1224 322.336,33.7656 C322.336,33.4089 322.286,33.099 322.188,32.8359 C322.089,32.5729 321.945,32.3698 321.758,32.2266 C321.57,32.0833 321.342,32.0117 321.074,32.0117 C320.801,32.0117 320.57,32.0859 320.383,32.2344 C320.195,32.3828 320.053,32.5885 319.957,32.8516 C319.861,33.1146 319.813,33.4193 319.813,33.7656 C319.813,34.1146 319.861,34.4225 319.959,34.6895 C320.057,34.9564 320.199,35.1647 320.385,35.3145 C320.571,35.4642 320.801,35.5391 321.074,35.5391 "/>
</g>

<g fill="#ffffff" fill-opacity="1" stroke="none" transform="matrix(0.228,0,0,0.228,11.6,25.6)"
font-family="Inter" font-size="11" font-weight="700" font-style="normal" 
>
<path vector-effect="none" fill-rule="nonzero" d="M23.3682,15.995 C21.89,15.995 20.7001,17.185 20.7001,18.6631 L20.7001,81.3343 C20.7001,82.8125 21.89,84.0024 23.3682,84.0024 L76.6077,84.0024 C78.0859,84.0024 79.2758,82.8125 79.2758,81.3343 L79.2758,18.6631 C79.2758,17.185 78.0859,15.995 76.6077,15.995 L50.8905,15.995 C51.6703,16.0444 52.2838,16.6869 52.2838,17.4796 L52.2838,26.9112 C52.2838,27.7362 51.6196,28.4004 50.7946,28.4004 L49.3054,28.4004 C48.4804,28.4004 47.8161,27.7362 47.8161,26.9112 L47.8161,17.4796 C47.8161,16.6869 48.4298,16.0443 49.2096,15.995 L23.3682,15.995 M46.7613,35.2087 L53.2146,35.2087 C53.9021,35.2087 54.4556,35.7622 54.4556,36.4497 L54.4556,42.903 C54.4556,43.5906 53.9021,44.1439 53.2146,44.1439 L46.7613,44.1439 C46.0738,44.1439 45.5202,43.5906 45.5202,42.903 L45.5202,36.4497 C45.5202,35.7622 46.0738,35.2087 46.7613,35.2087 "/>
</g>

<g fill="none" stroke="#000000" stroke-opacity="1" stroke-width="2.43854" stroke-linecap="butt" stroke-linejoin="miter" stroke-miterlimit="4" transform="matrix(0.228,0,0,0.228,11.6,25.6)"
font-family="Inter" font-size="11" font-weight="700" font-style="normal" 
>
<path vector-effect="none" fill-rule="nonzero" d="M23.3682,15.995 C21.89,15.995 20.7001,17.185 20.7001,18.6631 L20.7001,81.3343 C20.7001,82.8125 21.89,84.0024 23.3682,84.0024 L76.6077,84.0024 C78.0859,84.0024 79.2758,82.8125 79.2758,81.3343 L79.2758,18.6631 C79.2758,17.185 78.0859,15.995 76.6077,15.995 L50.8905,15.995 C51.6703,16.0444 52.2838,16.6869 52.2838,17.4796 L52.2838,26.9112 C52.2838,27.7362 51.6196,28.4004 50.7946,28.4004 L49.3054,28.4004 C48.4804,28.4004 47.8161,27.7362 47.8161,26.9112 L47.8161,17.4796 C47.8161,16.6869 48.4298,16.0443 49.2096,15.995 L23.3682,15.995 M46.7613,35.2087 L53.2146,35.2087 C53.9021,35.2087 54.4556,35.7622 54.4556,36.4497 L54.4556,42.903 C54.4556,43.5906 53.9021,44.1439 53.2146,44.1439 L46.7613,44.1439 C46.0738,44.1439 45.5202,43.5906 45.5202,42.903 L45.5202,36.4497 C45.5202,35.7622 46.0738,35.2087 46.7613,35.2087 "/>
</g>

<g fill="#000000" fill-opacity="1" stroke="none" transform="matrix(0.228,0,0,0.228,11.6,25.6)"
font-family="Inter" font-size="11" font-weight="700" font-style="normal" 
>
<path vector-effect="none" fill-rule="evenodd" d="M14.2421,17.9523 C14.2421,17.1298 14.9088,16.4631 15.7313,16.4631 L18.7097,16.4631 C19.5322,16.4631 20.1989,17.1298 20.1989,17.9523 L20.1989,33.8372 C20.1989,34.6597 19.5322,35.3264 18.7097,35.3264 L15.7313,35.3264 C14.9088,35.3264 14.2421,34.6597 14.2421,33.8372 L14.2421,17.9523"/>
</g>

<g fill="none" stroke="#000000" stroke-opacity="1" stroke-width="2.43854" stroke-linecap="butt" stroke-linejoin="miter" stroke-miterlimit="4" transform="matrix(0.228,0,0,0.228,11.6,25.6)"
font-family="Inter" font-size="11" font-weight="700" font-style="normal" 
>
<path vector-effect="none" fill-rule="evenodd" d="M14.2421,17.9523 C14.2421,17.1298 14.9088,16.4631 15.7313,16.4631 L18.7097,16.4631 C19.5322,16.4631 20.1989,17.1298 20.1989,17.9523 L20.1989,33.8372 C20.1989,34.6597 19.5322,35.3264 18.7097,35.3264 L15.7313,35.3264 C14.9088,35.3264 14.2421,34.6597 14.2421,33.8372 L14.2421,17.9523"/>
</g>

<g fill="#000000" fill-opacity="1" stroke="none" transform="matrix(0.228,0,0,0.228,11.6,25.6)"
font-family="Inter" font-size="11" font-weight="700" font-style="normal" 
>
<path vector-effect="none" fill-rule="evenodd" d="M79.3249,17.4662 C79.3249,16.6438 79.9916,15.977 80.8141,15.977 L83.7925,15.977 C84.615,15.977 85.2817,16.6438 85.2817,17.4662 L85.2817,33.3512 C85.2817,34.1736 84.615,34.8404 83.7925,34.8404 L80.8141,34.8404 C79.9916,34.8404 79.3249,34.1736 79.3249,33.3512 L79.3249,17.4662"/>
</g>

<g fill="none" stroke="#000000" stroke-opacity="1" stroke-width="2.43854" stroke-linecap="butt" stroke-linejoin="miter" stroke-miterlimit="4" transform="matrix(0.228,0,0,0.228,11.6,25.6)"
font-family="Inter" font-size="11" font-weight="700" font-style="normal" 
>
<path vector-effect="none" fill-rule="evenodd" d="M79.3249,17.4662 C79.3249,16.6438 79.9916,15.977 80.8141,15.977 L83.7925,15.977 C84.615,15.977 85.2817,16.6438 85.2817,17.4662 L85.2817,33.3512 C85.2817,34.1736 84.615,34.8404 83.7925,34.8404 L80.8141,34.8404 C79.9916,34.8404 79.3249,34.1736 79.3249,33.3512 L79.3249,17.4662"/>
</g>

<g fill="#000000" fill-opacity="1" stroke="none" transform="matrix(0.228,0,0,0.228,11.6,25.6)"
font-family="Inter" font-size="11" font-weight="700" font-style="normal" 
>
<path vector-effect="none" fill-rule="evenodd" d="M79.5633,66.576 C79.5633,65.7535 80.23,65.0868 81.0525,65.0868 L84.0309,65.0868 C84.8534,65.0868 85.5201,65.7535 85.5201,66.576 L85.5201,82.4609 C85.5201,83.2834 84.8534,83.9501 84.0309,83.9501 L81.0525,83.9501 C80.23,83.9501 79.5633,83.2834 79.5633,82.4609 L79.5633,66.576"/>
</g>

<g fill="none" stroke="#000000" stroke-opacity="1" stroke-width="2.43854" stroke-linecap="butt" stroke-linejoin="miter" stroke-miterlimit="4" transform="matrix(0.228,0,0,0.228,11.6,25.6)"
font-family="Inter" font-size="11" font-weight="700" font-style="normal" 
>
<path vector-effect="none" fill-rule="evenodd" d="M79.5633,66.576 C79.5633,65.7535 80.23,65.0868 81.0525,65.0868 L84.0309,65.0868 C84.8534,65.0868 85.5201,65.7535 85.5201,66.576 L85.5201,82.4609 C85.5201,83.2834 84.8534,83.9501 84.0309,83.9501 L81.0525,83.9501 C80.23,83.9501 79.5633,83.2834 79.5633,82.4609 L79.5633,66.576"/>
</g>

<g fill="#000000" fill-opacity="1" stroke="none" transform="matrix(0.228,0,0,0.228,11.6,25.6)"
font-family="Inter" font-size="11" font-weight="700" font-style="normal" 
>
<path vector-effect="none" fill-rule="evenodd" d="M14.6928,66.6283 C14.6928,65.8058 15.3595,65.1391 16.182,65.1391 L19.1604,65.1391 C19.9829,65.1391 20.6496,65.8058 20.6496,66.6283 L20.6496,82.5132 C20.6496,83.3357 19.9829,84.0024 19.1604,84.0024 L16.182,84.0024 C15.3595,84.0024 14.6928,83.3357 14.6928,82.5132 L14.6928,66.6283"/>
</g>

<g fill="none" stroke="#000000" stroke-opacity="1" stroke-width="2.43854" stroke-linecap="butt" stroke-linejoin="miter" stroke-miterlimit="4" transform="matrix(0.228,0,0,0.228,11.6,25.6)"
font-family="Inter" font-size="11" font-weight="700" font-style="normal" 
>
<path vector-effect="none" fill-rule="evenodd" d="M14.6928,66.6283 C14.6928,65.8058 15.3595,65.1391 16.182,65.1391 L19.1604,65.1391 C19.9829,65.1391 20.6496,65.8058 20.6496,66.6283 L20.6496,82.5132 C20.6496,83.3357 19.9829,84.0024 19.1604,84.0024 L16.182,84.0024 C15.3595,84.0024 14.6928,83.3357 14.6928,82.5132 L14.6928,66.6283"/>
</g>

<g fill="none" stroke="#000000" stroke-opacity="1" stroke-width="2.43854" stroke-linecap="butt" stroke-linejoin="miter" stroke-miterlimit="4" transform="matrix(0.228,0,0,0.228,11.6,25.6)"
font-family="Inter" font-size="11" font-weight="700" font-style="normal" 
>
<path vector-effect="none" fill-rule="evenodd" d="M20.92,17.503 C20.92,16.6806 21.5867,16.0138 22.4092,16.0138 L27.125,16.0138 C27.9475,16.0138 28.6142,16.6806 28.6142,17.503 L28.6142,55.9743 C28.6142,56.7968 27.9475,57.4635 27.125,57.4635 L22.4092,57.4635 C21.5867,57.4635 20.92,56.7968 20.92,55.9743 L20.92,17.503"/>
</g>

<g fill="none" stroke="#000000" stroke-opacity="1" stroke-width="2.43854" stroke-linecap="butt" stroke-linejoin="miter" stroke-miterlimit="4" transform="matrix(0.228,0,0,0.228,11.6,25.6)"
font-family="Inter" font-size="11" font-weight="700" font-style="normal" 
>
<path vector-effect="none" fill-rule="evenodd" d="M71.4269,17.6638 C71.4269,16.8414 72.0937,16.1746 72.9162,16.1746 L77.632,16.1746 C78.4545,16.1746 79.1212,16.8414 79.1212,17.6638 L79.1212,56.1351 C79.1212,56.9576 78.4545,57.6243 77.632,57.6243 L72.9162,57.6243 C72.0937,57.6243 71.4269,56.9576 71.4269,56.1351 L71.4269,17.6638"/>
</g>

<g fill="#ffffff" fill-opacity="1" stroke="none" transform="matrix(0.228,0,0,0.228,11.6,25.6)"
font-family="Inter" font-size="11" font-weight="700" font-style="normal" 
>
<path vector-effect="none" fill-rule="evenodd" d="M41.9526,15.9757 C41.9526,15.9593 41.9659,15.9461 41.9822,15.9461 L57.922,15.9461 C57.9384,15.9461 57.9516,15.9593 57.9516,15.9757 C57.9516,15.992 57.9384,16.0053 57.922,16.0053 L41.9822,16.0053 C41.9659,16.0053 41.9526,15.992 41.9526,15.9757 "/>
</g>

<g fill="none" stroke="#000000" stroke-opacity="1" stroke-width="2.3865" stroke-linecap="butt" stroke-linejoin="miter" stroke-miterlimit="4" transform="matrix(0.228,0,0,0.228,11.6,25.6)"
font-family="Inter" font-size="11" font-weight="700" font-style="normal" 
>
<path vector-effect="none" fill-rule="evenodd" d="M41.9526,15.9757 C41.9526,15.9593 41.9659,15.9461 41.9822,15.9461 L57.922,15.9461 C57.9384,15.9461 57.9516,15.9593 57.9516,15.9757 C57.9516,15.992 57.9384,16.0053 57.922,16.0053 L41.9822,16.0053 C41.9659,16.0053 41.9526,15.992 41.9526,15.9757 "/>
</g>

<g fill="#ffffff" fill-opacity="1" stroke="none" transform="matrix(1,0,0,1,0,0)"
font-family="Inter" font-size="11" font-weight="700" font-style="normal" 
>
</g>

<g fill="#ffffff" fill-opacity="1" stroke="#ba9500" stroke-opacity="1" stroke-width="1" stroke-linecap="square" stroke-linejoin="bevel" transform="matrix(1,0,0,1,0,0)"
font-family="Inter" font-size="11" font-weight="700" font-style="normal" 
>
<polyline fill="none" vector-effect="none" points="45,27 45,47 " />
</g>

<g fill="#ffffff" fill-opacity="1" stroke="#ba9500" stroke-opacity="1" stroke-width="1" stroke-linecap="square" stroke-linejoin="bevel" transform="matrix(1,0,0,1,0,0)"
font-family="Inter" font-size="11" font-weight="700" font-style="normal" 
>
</g>

<g fill="#f5c400" fill-opacity="1" stroke="#ba9500" stroke-opacity="1" stroke-width="1.2" stroke-linecap="square" stroke-linejoin="bevel" transform="matrix(1,0,0,1,87,22)"
font-family="Inter" font-size="11" font-weight="700" font-style="normal" 
>
<path vector-effect="none" fill-rule="evenodd" d="M0.5,3.5 C0.5,1.84315 1.84315,0.5 3.5,0.5 L71.5,0.5 C73.1569,0.5 74.5,1.84315 74.5,3.5 L74.5,20.5 C74.5,22.1569 73.1569,23.5 71.5,23.5 L3.5,23.5 C1.84315,23.5 0.5,22.1569 0.5,20.5 L0.5,3.5"/>
</g>

<g fill="#ffffff" fill-opacity="1" stroke="none" transform="matrix(1,0,0,1,87,22)"
font-family="Inter" font-size="11" font-weight="700" font-style="normal" 
>
<path vector-effect="none" fill-rule="nonzero" d="M10,9.39453 L10,8 L16.5703,8 L16.5703,9.39453 L14.1211,9.39453 L14.1211,16 L12.4492,16 L12.4492,9.39453 L10,9.39453 M17.6484,16 L17.6484,8 L19.3398,8 L19.3398,11.3008 L22.7734,11.3008 L22.7734,8 L24.4609,8 L24.4609,16 L22.7734,16 L22.7734,12.6953 L19.3398,12.6953 L19.3398,16 L17.6484,16 M32.543,8 L32.543,16 L31.082,16 L27.6016,10.9648 L27.543,10.9648 L27.543,16 L25.8516,16 L25.8516,8 L27.3359,8 L30.7891,13.0313 L30.8594,13.0313 L30.8594,8 L32.543,8 M33.9297,16 L33.9297,8 L35.6211,8 L35.6211,11.3008 L39.0547,11.3008 L39.0547,8 L40.7422,8 L40.7422,16 L39.0547,16 L39.0547,12.6953 L35.6211,12.6953 L35.6211,16 L33.9297,16 M42.1328,16 L42.1328,8 L45.3359,8 C45.9245,8 46.4154,8.08724 46.8086,8.26172 C47.2018,8.4362 47.4974,8.67773 47.6953,8.98633 C47.8932,9.29492 47.9922,9.64974 47.9922,10.0508 C47.9922,10.3633 47.9297,10.6374 47.8047,10.873 C47.6797,11.1087 47.5085,11.3014 47.291,11.4512 C47.0736,11.6009 46.8255,11.707 46.5469,11.7695 L46.5469,11.8477 C46.8516,11.8607 47.1374,11.9466 47.4043,12.1055 C47.6712,12.2643 47.888,12.4863 48.0547,12.7715 C48.2214,13.0566 48.3047,13.3958 48.3047,13.7891 C48.3047,14.2135 48.1999,14.5918 47.9902,14.9238 C47.7806,15.2559 47.4714,15.5182 47.0625,15.7109 C46.6536,15.9036 46.1497,16 45.5508,16 L42.1328,16 M43.8242,14.6172 L45.2031,14.6172 C45.6745,14.6172 46.0182,14.5267 46.2344,14.3457 C46.4505,14.1647 46.5586,13.9232 46.5586,13.6211 C46.5586,13.3997 46.5052,13.2044 46.3984,13.0352 C46.2917,12.8659 46.14,12.7331 45.9434,12.6367 C45.7467,12.5404 45.513,12.4922 45.2422,12.4922 L43.8242,12.4922 L43.8242,14.6172 M43.8242,11.3477 L45.0781,11.3477 C45.3099,11.3477 45.5163,11.3066 45.6973,11.2246 C45.8783,11.1426 46.0215,11.026 46.127,10.875 C46.2324,10.724 46.2852,10.543 46.2852,10.332 C46.2852,10.043 46.1829,9.8099 45.9785,9.63281 C45.7741,9.45573 45.4844,9.36719 45.1094,9.36719 L43.8242,9.36719 L43.8242,11.3477 M52.832,8 L52.832,16 L51.1406,16 L51.1406,9.60547 L51.0938,9.60547 L49.2617,10.7539 L49.2617,9.25391 L51.2422,8 L52.832,8"/>
</g>

<g fill="#ffffff" fill-opacity="1" stroke="none" transform="matrix(0.03125,0,0,0.03125,148,30)"
font-family="Inter" font-size="11" font-weight="700" font-style="normal" 
>
<path vector-effect="none" fill-rule="nonzero" d="M111.326,191.938 C120.545,201.158 135.517,201.158 144.737,191.938 L239.144,97.5313 C245.929,90.7458 247.921,80.6413 244.233,71.7907 C240.545,62.9401 231.989,57.1871 222.401,57.1871 L33.5875,57.2608 C24.0731,57.2608 15.4437,63.0137 11.7559,71.8644 C8.06815,80.715 10.1333,90.8195 16.845,97.605 L111.252,192.012 L111.326,191.938"/>
</g>

<g fill="none" stroke="#000000" stroke-opacity="1" stroke-width="13.7195" stroke-linecap="butt" stroke-linejoin="miter" stroke-miterlimit="4" transform="matrix(0.03125,0,0,0.03125,148,30)"
font-family="Inter" font-size="11" font-weight="700" font-style="normal" 
>
<path vector-effect="none" fill-rule="nonzero" d="M111.326,191.938 C120.545,201.158 135.517,201.158 144.737,191.938 L239.144,97.5313 C245.929,90.7458 247.921,80.6413 244.233,71.7907 C240.545,62.9401 231.989,57.1871 222.401,57.1871 L33.5875,57.2608 C24.0731,57.2608 15.4437,63.0137 11.7559,71.8644 C8.06815,80.715 10.1333,90.8195 16.845,97.605 L111.252,192.012 L111.326,191.938"/>
</g>

<g fill="#ffffff" fill-opacity="1" stroke="none" transform="matrix(1,0,0,1,87,22)"
font-family="Inter" font-size="11" font-weight="700" font-style="normal" 
>
</g>

<g fill="#ffffff" fill-opacity="1" stroke="#ba9500" stroke-opacity="1" stroke-width="1" stroke-linecap="square" stroke-linejoin="bevel" transform="matrix(1,0,0,1,0,0)"
font-family="Inter" font-size="11" font-weight="700" font-style="normal" 
>
</g>

<g fill="#f5c400" fill-opacity="1" stroke="#ba9500" stroke-opacity="1" stroke-width="1.2" stroke-linecap="square" stroke-linejoin="bevel" transform="matrix(1,0,0,1,188,22)"
font-family="Inter" font-size="11" font-weight="700" font-style="normal" 
>
<path vector-effect="none" fill-rule="evenodd" d="M0.5,3.5 C0.5,1.84315 1.84315,0.5 3.5,0.5 L48.5,0.5 C50.1569,0.5 51.5,1.84315 51.5,3.5 L51.5,20.5 C51.5,22.1569 50.1569,23.5 48.5,23.5 L3.5,23.5 C1.84315,23.5 0.5,22.1569 0.5,20.5 L0.5,3.5"/>
</g>

<g fill="#ffffff" fill-opacity="1" stroke="none" transform="matrix(1,0,0,1,188,22)"
font-family="Inter" font-size="11" font-weight="700" font-style="normal" 
>
<path vector-effect="none" fill-rule="nonzero" d="M12,14.0195 C11.6172,14.0195 11.276,13.9525 10.9766,13.8184 C10.6771,13.6842 10.4408,13.485 10.2676,13.2207 C10.0944,12.9564 10.0078,12.6263 10.0078,12.2305 C10.0078,11.8971 10.069,11.6172 10.1914,11.3906 C10.3138,11.1641 10.4805,10.9818 10.6914,10.8438 C10.9023,10.7057 11.1426,10.6016 11.4121,10.5313 C11.6816,10.4609 11.9648,10.4115 12.2617,10.3828 C12.6107,10.3464 12.8919,10.3118 13.1055,10.2793 C13.319,10.2467 13.474,10.1979 13.5703,10.1328 C13.6667,10.0677 13.7148,9.97135 13.7148,9.84375 L13.7148,9.82031 C13.7148,9.57292 13.6374,9.38151 13.4824,9.24609 C13.3275,9.11068 13.1081,9.04297 12.8242,9.04297 C12.5247,9.04297 12.2865,9.10872 12.1094,9.24023 C11.9323,9.37174 11.8151,9.53646 11.7578,9.73438 L10.2188,9.60938 C10.2969,9.24479 10.4505,8.92904 10.6797,8.66211 C10.9089,8.39518 11.2051,8.18945 11.5684,8.04492 C11.9316,7.90039 12.3529,7.82813 12.832,7.82813 C13.1654,7.82813 13.485,7.86719 13.791,7.94531 C14.097,8.02344 14.3691,8.14453 14.6074,8.30859 C14.8457,8.47266 15.0339,8.68294 15.1719,8.93945 C15.3099,9.19596 15.3789,9.5026 15.3789,9.85938 L15.3789,13.9063 L13.8008,13.9063 L13.8008,13.0742 L13.7539,13.0742 C13.6576,13.2617 13.5286,13.4264 13.3672,13.5684 C13.2057,13.7103 13.0117,13.821 12.7852,13.9004 C12.5586,13.9798 12.2969,14.0195 12,14.0195 M12.4766,12.8711 C12.7214,12.8711 12.9375,12.8223 13.125,12.7246 C13.3125,12.627 13.4596,12.4948 13.5664,12.3281 C13.6732,12.1615 13.7266,11.9727 13.7266,11.7617 L13.7266,11.125 C13.6745,11.1589 13.6035,11.1895 13.5137,11.2168 C13.4238,11.2441 13.3229,11.2689 13.2109,11.291 C13.099,11.3132 12.987,11.3327 12.875,11.3496 C12.763,11.3665 12.6615,11.3815 12.5703,11.3945 C12.375,11.4232 12.2044,11.4688 12.0586,11.5313 C11.9128,11.5938 11.7995,11.6777 11.7188,11.7832 C11.638,11.8887 11.5977,12.0195 11.5977,12.1758 C11.5977,12.4023 11.6803,12.5749 11.8457,12.6934 C12.0111,12.8118 12.2214,12.8711 12.4766,12.8711 M18.3281,10.4375 L18.3281,13.9063 L16.6641,13.9063 L16.6641,7.90625 L18.25,7.90625 L18.25,8.96484 L18.3203,8.96484 C18.4531,8.61589 18.6758,8.33919 18.9883,8.13477 C19.3008,7.93034 19.6797,7.82813 20.125,7.82813 C20.5417,7.82813 20.9049,7.91927 21.2148,8.10156 C21.5247,8.28385 21.7656,8.54362 21.9375,8.88086 C22.1094,9.2181 22.1953,9.61979 22.1953,10.0859 L22.1953,13.9063 L20.5313,13.9063 L20.5313,10.3828 C20.5339,10.0156 20.4401,9.72852 20.25,9.52148 C20.0599,9.31445 19.7982,9.21094 19.4648,9.21094 C19.2409,9.21094 19.0436,9.25911 18.873,9.35547 C18.7025,9.45182 18.5697,9.5918 18.4746,9.77539 C18.3796,9.95898 18.3307,10.1797 18.3281,10.4375 M24.3008,16.1563 C24.0898,16.1563 23.8926,16.14 23.709,16.1074 C23.5254,16.0749 23.3737,16.0339 23.2539,15.9844 L23.6289,14.7422 C23.8242,14.8021 24.0007,14.8346 24.1582,14.8398 C24.3158,14.8451 24.4525,14.8086 24.5684,14.7305 C24.6842,14.6523 24.7786,14.5195 24.8516,14.332 L24.9492,14.0781 L22.7969,7.90625 L24.5469,7.90625 L25.7891,12.3125 L25.8516,12.3125 L27.1055,7.90625 L28.8672,7.90625 L26.5352,14.5547 C26.4232,14.8776 26.2715,15.1595 26.0801,15.4004 C25.8887,15.6413 25.6471,15.8275 25.3555,15.959 C25.0638,16.0905 24.7122,16.1563 24.3008,16.1563 "/>
</g>

<g fill="#ffffff" fill-opacity="1" stroke="none" transform="matrix(0.03125,0,0,0.03125,226,30)"
font-family="Inter" font-size="11" font-weight="700" font-style="normal" 
>
<path vector-effect="none" fill-rule="nonzero" d="M111.326,191.938 C120.545,201.158 135.517,201.158 144.737,191.938 L239.144,97.5313 C245.929,90.7458 247.921,80.6413 244.233,71.7907 C240.545,62.9401 231.989,57.1871 222.401,57.1871 L33.5875,57.2608 C24.0731,57.2608 15.4437,63.0137 11.7559,71.8644 C8.06815,80.715 10.1333,90.8195 16.845,97.605 L111.252,192.012 L111.326,191.938"/>
</g>

<g fill="none" stroke="#000000" stroke-opacity="1" stroke-width="13.7195" stroke-linecap="butt" stroke-linejoin="miter" stroke-miterlimit="4" transform="matrix(0.03125,0,0,0.03125,226,30)"
font-family="Inter" font-size="11" font-weight="700" font-style="normal" 
>
<path vector-effect="none" fill-rule="nonzero" d="M111.326,191.938 C120.545,201.158 135.517,201.158 144.737,191.938 L239.144,97.5313 C245.929,90.7458 247.921,80.6413 244.233,71.7907 C240.545,62.9401 231.989,57.1871 222.401,57.1871 L33.5875,57.2608 C24.0731,57.2608 15.4437,63.0137 11.7559,71.8644 C8.06815,80.715 10.1333,90.8195 16.845,97.605 L111.252,192.012 L111.326,191.938"/>
</g>

<g fill="#ffffff" fill-opacity="1" stroke="none" transform="matrix(1,0,0,1,188,22)"
font-family="Inter" font-size="11" font-weight="700" font-style="normal" 
>
</g>

<g fill="#ffffff" fill-opacity="1" stroke="#ba9500" stroke-opacity="1" stroke-width="1" stroke-linecap="square" stroke-linejoin="bevel" transform="matrix(1,0,0,1,0,0)"
font-family="Inter" font-size="11" font-weight="700" font-style="normal" 
>
</g>

<g fill="none" stroke="#000000" stroke-opacity="1" stroke-width="1" stroke-linecap="square" stroke-linejoin="bevel" transform="matrix(1,0,0,1,0,0)"
font-family=".AppleSystemUIFont" font-size="13" font-weight="400" font-style="normal" 
>
</g>
</g>
</svg>
