<?xml version="1.0" encoding="UTF-8" standalone="no"?>
<svg width="99.1306mm" height="21.1667mm"
 viewBox="0 0 281 60"
 xmlns="http://www.w3.org/2000/svg" xmlns:xlink="http://www.w3.org/1999/xlink" version="1.2" baseProfile="tiny">
<title>Abstract block</title>
<desc>block_hubs_all_event_battery_changed</desc>
<defs>
</defs>
<g fill="none" stroke="black" stroke-width="1" fill-rule="evenodd" stroke-linecap="square" stroke-linejoin="bevel" >

<g fill="none" stroke="#000000" stroke-opacity="1" stroke-width="1" stroke-linecap="square" stroke-linejoin="bevel" transform="matrix(1,0,0,1,0,0)"
font-family=".AppleSystemUIFont" font-size="13" font-weight="400" font-style="normal" 
>
</g>

<g fill="none" stroke="#000000" stroke-opacity="1" stroke-width="1" stroke-linecap="square" stroke-linejoin="bevel" transform="matrix(1,0,0,1,0,0)"
font-family=".AppleSystemUIFont" font-size="13" font-weight="400" font-style="normal" 
>
</g>

<g fill="#f5c400" fill-opacity="1" stroke="#ba9500" stroke-opacity="1" stroke-width="1.2" stroke-linecap="square" stroke-linejoin="bevel" transform="matrix(1,0,0,1,0,0)"
font-family=".AppleSystemUIFont" font-size="13" font-weight="400" font-style="normal" 
>
<path vector-effect="none" fill-rule="evenodd" d="M0.5,20.5 L1,18.6516 L1,18 L1.77836,17.1565 L2.58892,16.3401 L3.43062,15.551 L4.30242,14.7891 L5.20325,14.0544 L6.13206,13.3469 L7.08779,12.6667 L8.06939,12.0136 L9.0758,11.3878 L10.106,10.7891 L11.1588,10.2177 L12.2333,9.67347 L13.3284,9.15646 L14.4431,8.66667 L15.5762,8.20408 L16.7267,7.76871 L17.8936,7.36054 L19.0758,6.97959 L20.2723,6.62585 L21.4819,6.29932 L22.7037,6 L23.9366,5.72789 L25.1795,5.48299 L26.4314,5.26531 L27.6912,5.07483 L28.9578,4.91156 L30.2303,4.77551 L31.5075,4.66667 L32.7885,4.58503 L34.072,4.53061 L35.3572,4.5034 L36.6428,4.5034 L37.928,4.53061 L39.2115,4.58503 L40.4925,4.66667 L41.7697,4.77551 L43.0422,4.91156 L44.3088,5.07483 L45.5686,5.26531 L46.8205,5.48299 L48.0634,5.72789 L49.2963,6 L50.5181,6.29932 L51.7277,6.62585 L52.9242,6.97959 L54.1064,7.36054 L55.2733,7.76871 L56.4238,8.20408 L57.5569,8.66667 L58.6716,9.15646 L59.7667,9.67347 L60.8412,10.2177 L61.894,10.7891 L62.9242,11.3878 L63.9306,12.0136 L64.9122,12.6667 L65.8679,13.3469 L66.7968,14.0544 L67.6976,14.7891 L68.5694,15.551 L69.4111,16.3401 L69.5698,16.5 L276,16.5 L278.019,17.0461 L279.454,18.4811 L280,20.5 L280,47.5 L279.454,49.5189 L278.019,50.9539 L276,51.5 L34.375,51.5 L33.584,51.9766 L32.8281,52.6875 L32.002,53.6797 L31,55 L30.2441,55.6602 L29.4531,56.1563 L28.5918,56.5117 L27.625,56.75 L26.5176,56.8945 L25.2344,56.9688 L23.7402,56.9961 L22,57 L20.2598,56.9961 L18.7656,56.9688 L17.4824,56.8945 L16.375,56.75 L15.4082,56.5117 L14.5469,56.1563 L13.7559,55.6602 L13,55 L11.998,53.6797 L11.1719,52.6875 L10.416,51.9766 L9.625,51.5 L4.5,51.5 L2.48112,50.9539 L1.04612,49.5189 L0.5,47.5 L0.5,20.5"/>
</g>

<g fill="#ffffff" fill-opacity="1" stroke="none" transform="matrix(1,0,0,1,0,0)"
font-family="Inter" font-size="11" font-weight="700" font-style="normal" 
>
<path vector-effect="none" fill-rule="nonzero" d="M53.4727,37.9063 L51.8398,31.9063 L53.5234,31.9063 L54.4531,35.9375 L54.5078,35.9375 L55.4766,31.9063 L57.1289,31.9063 L58.1133,35.9141 L58.1641,35.9141 L59.0781,31.9063 L60.7578,31.9063 L59.1289,37.9063 L57.3672,37.9063 L56.3359,34.1328 L56.2617,34.1328 L55.2305,37.9063 L53.4727,37.9063 M63.2969,34.4375 L63.2969,37.9063 L61.6328,37.9063 L61.6328,29.9063 L63.25,29.9063 L63.25,32.9648 L63.3203,32.9648 C63.4557,32.6107 63.6745,32.3327 63.9766,32.1309 C64.2786,31.929 64.6576,31.8281 65.1133,31.8281 C65.5299,31.8281 65.8939,31.9186 66.2051,32.0996 C66.5163,32.2806 66.7585,32.5397 66.9316,32.877 C67.1048,33.2142 67.1901,33.6172 67.1875,34.0859 L67.1875,37.9063 L65.5234,37.9063 L65.5234,34.3828 C65.526,34.013 65.4329,33.7253 65.2441,33.5195 C65.0553,33.3138 64.7917,33.2109 64.4531,33.2109 C64.2266,33.2109 64.0267,33.2591 63.8535,33.3555 C63.6803,33.4518 63.5449,33.5918 63.4473,33.7754 C63.3496,33.959 63.2995,34.1797 63.2969,34.4375 M71.2266,38.0234 C70.6094,38.0234 70.0788,37.8978 69.6348,37.6465 C69.1908,37.3952 68.849,37.0384 68.6094,36.5762 C68.3698,36.1139 68.25,35.5664 68.25,34.9336 C68.25,34.3164 68.3698,33.7747 68.6094,33.3086 C68.849,32.8424 69.1868,32.4792 69.623,32.2188 C70.0592,31.9583 70.5716,31.8281 71.1602,31.8281 C71.556,31.8281 71.9251,31.8913 72.2676,32.0176 C72.61,32.1439 72.9095,32.3333 73.166,32.5859 C73.4225,32.8385 73.6224,33.1556 73.7656,33.5371 C73.9089,33.9186 73.9805,34.3646 73.9805,34.875 L73.9805,35.332 L68.9141,35.332 L68.9141,34.3008 L72.4141,34.3008 C72.4141,34.0612 72.362,33.849 72.2578,33.6641 C72.1536,33.4792 72.0098,33.334 71.8262,33.2285 C71.6426,33.123 71.4297,33.0703 71.1875,33.0703 C70.9349,33.0703 70.7116,33.1283 70.5176,33.2441 C70.3236,33.36 70.1719,33.515 70.0625,33.709 C69.9531,33.903 69.8971,34.1185 69.8945,34.3555 L69.8945,35.3359 C69.8945,35.6328 69.9499,35.8893 70.0605,36.1055 C70.1712,36.3216 70.3281,36.4883 70.5313,36.6055 C70.7344,36.7227 70.9753,36.7813 71.2539,36.7813 C71.4388,36.7813 71.6081,36.7552 71.7617,36.7031 C71.9154,36.651 72.0469,36.5729 72.1563,36.4688 C72.2656,36.3646 72.349,36.237 72.4063,36.0859 L73.9453,36.1875 C73.8672,36.5573 73.7077,36.8796 73.4668,37.1543 C73.2259,37.429 72.916,37.6426 72.5371,37.7949 C72.1582,37.9473 71.7214,38.0234 71.2266,38.0234 M76.7188,34.4375 L76.7188,37.9063 L75.0547,37.9063 L75.0547,31.9063 L76.6406,31.9063 L76.6406,32.9648 L76.7109,32.9648 C76.8438,32.6159 77.0664,32.3392 77.3789,32.1348 C77.6914,31.9303 78.0703,31.8281 78.5156,31.8281 C78.9323,31.8281 79.2956,31.9193 79.6055,32.1016 C79.9154,32.2839 80.1563,32.5436 80.3281,32.8809 C80.5,33.2181 80.5859,33.6198 80.5859,34.0859 L80.5859,37.9063 L78.9219,37.9063 L78.9219,34.3828 C78.9245,34.0156 78.8307,33.7285 78.6406,33.5215 C78.4505,33.3145 78.1888,33.2109 77.8555,33.2109 C77.6315,33.2109 77.4342,33.2591 77.2637,33.3555 C77.0931,33.4518 76.9603,33.5918 76.8652,33.7754 C76.7702,33.959 76.7214,34.1797 76.7188,34.4375 "/>
</g>

<g fill="#ffffff" fill-opacity="1" stroke="none" transform="matrix(1,0,0,1,0,0)"
font-family="Inter" font-size="11" font-weight="700" font-style="normal" 
>
<path vector-effect="none" fill-rule="nonzero" d="M172.137,35.4063 L172.137,34.9844 C172.137,34.6641 172.205,34.3691 172.342,34.0996 C172.479,33.8301 172.678,33.6139 172.939,33.4512 C173.201,33.2884 173.521,33.207 173.898,33.207 C174.281,33.207 174.604,33.2878 174.865,33.4492 C175.127,33.6107 175.325,33.8262 175.459,34.0957 C175.593,34.3652 175.66,34.6615 175.66,34.9844 L175.66,35.4063 C175.66,35.7266 175.592,36.0215 175.457,36.291 C175.322,36.5605 175.122,36.7767 174.859,36.9395 C174.596,37.1022 174.276,37.1836 173.898,37.1836 C173.516,37.1836 173.194,37.1022 172.934,36.9395 C172.673,36.7767 172.475,36.5605 172.34,36.291 C172.204,36.0215 172.137,35.7266 172.137,35.4063 M173.273,34.9844 L173.273,35.4063 C173.273,35.5911 173.318,35.7656 173.408,35.9297 C173.498,36.0938 173.661,36.1758 173.898,36.1758 C174.135,36.1758 174.298,36.0951 174.385,35.9336 C174.472,35.7721 174.516,35.5964 174.516,35.4063 L174.516,34.9844 C174.516,34.7943 174.474,34.6172 174.391,34.4531 C174.307,34.2891 174.143,34.207 173.898,34.207 C173.664,34.207 173.501,34.2891 173.41,34.4531 C173.319,34.6172 173.273,34.7943 173.273,34.9844 M168.031,30.8281 L168.031,30.4063 C168.031,30.0833 168.1,29.7871 168.238,29.5176 C168.376,29.248 168.576,29.0326 168.838,28.8711 C169.1,28.7096 169.417,28.6289 169.789,28.6289 C170.174,28.6289 170.497,28.7096 170.758,28.8711 C171.018,29.0326 171.216,29.248 171.352,29.5176 C171.487,29.7871 171.555,30.0833 171.555,30.4063 L171.555,30.8281 C171.555,31.151 171.486,31.4466 171.35,31.7148 C171.213,31.9831 171.014,32.1973 170.752,32.3574 C170.49,32.5176 170.169,32.5977 169.789,32.5977 C169.409,32.5977 169.088,32.5163 168.826,32.3535 C168.564,32.1908 168.367,31.9759 168.232,31.709 C168.098,31.4421 168.031,31.1484 168.031,30.8281 M169.176,30.4063 L169.176,30.8281 C169.176,31.0182 169.221,31.194 169.311,31.3555 C169.4,31.5169 169.56,31.5977 169.789,31.5977 C170.029,31.5977 170.192,31.5169 170.279,31.3555 C170.367,31.194 170.41,31.0182 170.41,30.8281 L170.41,30.4063 C170.41,30.2161 170.368,30.0391 170.285,29.875 C170.202,29.7109 170.036,29.6289 169.789,29.6289 C169.557,29.6289 169.397,29.7122 169.309,29.8789 C169.22,30.0456 169.176,30.2214 169.176,30.4063 M168.547,36.9063 L174.047,28.9063 L175.07,28.9063 L169.57,36.9063 L168.547,36.9063 M179.805,36.9063 L179.805,28.9063 L181.469,28.9063 L181.469,31.9141 L181.52,31.9141 C181.592,31.7526 181.699,31.5879 181.838,31.4199 C181.977,31.252 182.16,31.1113 182.385,30.998 C182.61,30.8848 182.891,30.8281 183.227,30.8281 C183.664,30.8281 184.068,30.9421 184.438,31.1699 C184.807,31.3978 185.103,31.7402 185.324,32.1973 C185.546,32.6543 185.656,33.2266 185.656,33.9141 C185.656,34.5833 185.549,35.1478 185.334,35.6074 C185.119,36.0671 184.827,36.4147 184.459,36.6504 C184.09,36.8861 183.678,37.0039 183.223,37.0039 C182.9,37.0039 182.626,36.9505 182.4,36.8438 C182.175,36.737 181.991,36.6022 181.848,36.4395 C181.704,36.2767 181.595,36.112 181.52,35.9453 L181.445,35.9453 L181.445,36.9063 L179.805,36.9063 M181.434,33.9063 C181.434,34.263 181.483,34.5742 181.582,34.8398 C181.681,35.1055 181.824,35.3118 182.012,35.459 C182.199,35.6061 182.427,35.6797 182.695,35.6797 C182.966,35.6797 183.195,35.6048 183.383,35.4551 C183.57,35.3053 183.713,35.097 183.811,34.8301 C183.908,34.5632 183.957,34.2552 183.957,33.9063 C183.957,33.5599 183.909,33.2552 183.813,32.9922 C183.716,32.7292 183.574,32.5234 183.387,32.375 C183.199,32.2266 182.969,32.1523 182.695,32.1523 C182.424,32.1523 182.196,32.224 182.01,32.3672 C181.824,32.5104 181.681,32.7135 181.582,32.9766 C181.483,33.2396 181.434,33.5495 181.434,33.9063 M188.469,37.0195 C188.086,37.0195 187.745,36.9525 187.445,36.8184 C187.146,36.6842 186.91,36.485 186.736,36.2207 C186.563,35.9564 186.477,35.6263 186.477,35.2305 C186.477,34.8971 186.538,34.6172 186.66,34.3906 C186.783,34.1641 186.949,33.9818 187.16,33.8438 C187.371,33.7057 187.611,33.6016 187.881,33.5313 C188.15,33.4609 188.434,33.4115 188.73,33.3828 C189.079,33.3464 189.361,33.3118 189.574,33.2793 C189.788,33.2467 189.943,33.1979 190.039,33.1328 C190.135,33.0677 190.184,32.9714 190.184,32.8438 L190.184,32.8203 C190.184,32.5729 190.106,32.3815 189.951,32.2461 C189.796,32.1107 189.577,32.043 189.293,32.043 C188.993,32.043 188.755,32.1087 188.578,32.2402 C188.401,32.3717 188.284,32.5365 188.227,32.7344 L186.688,32.6094 C186.766,32.2448 186.919,31.929 187.148,31.6621 C187.378,31.3952 187.674,31.1895 188.037,31.0449 C188.4,30.9004 188.822,30.8281 189.301,30.8281 C189.634,30.8281 189.954,30.8672 190.26,30.9453 C190.566,31.0234 190.838,31.1445 191.076,31.3086 C191.314,31.4727 191.503,31.6829 191.641,31.9395 C191.779,32.196 191.848,32.5026 191.848,32.8594 L191.848,36.9063 L190.27,36.9063 L190.27,36.0742 L190.223,36.0742 C190.126,36.2617 189.997,36.4264 189.836,36.5684 C189.674,36.7103 189.48,36.821 189.254,36.9004 C189.027,36.9798 188.766,37.0195 188.469,37.0195 M188.945,35.8711 C189.19,35.8711 189.406,35.8223 189.594,35.7246 C189.781,35.627 189.928,35.4948 190.035,35.3281 C190.142,35.1615 190.195,34.9727 190.195,34.7617 L190.195,34.125 C190.143,34.1589 190.072,34.1895 189.982,34.2168 C189.893,34.2441 189.792,34.2689 189.68,34.291 C189.568,34.3132 189.456,34.3327 189.344,34.3496 C189.232,34.3665 189.13,34.3815 189.039,34.3945 C188.844,34.4232 188.673,34.4688 188.527,34.5313 C188.382,34.5938 188.268,34.6777 188.188,34.7832 C188.107,34.8887 188.066,35.0195 188.066,35.1758 C188.066,35.4023 188.149,35.5749 188.314,35.6934 C188.48,35.8118 188.69,35.8711 188.945,35.8711 M196.324,30.9063 L196.324,32.1563 L192.711,32.1563 L192.711,30.9063 L196.324,30.9063 M193.531,29.4688 L195.195,29.4688 L195.195,35.0625 C195.195,35.2161 195.219,35.3353 195.266,35.4199 C195.313,35.5046 195.378,35.5638 195.463,35.5977 C195.548,35.6315 195.646,35.6484 195.758,35.6484 C195.836,35.6484 195.914,35.6413 195.992,35.627 C196.07,35.6126 196.13,35.6016 196.172,35.5938 L196.434,36.832 C196.35,36.8581 196.233,36.8887 196.082,36.9238 C195.931,36.959 195.747,36.9805 195.531,36.9883 C195.13,37.0039 194.779,36.9505 194.479,36.8281 C194.178,36.7057 193.944,36.5156 193.777,36.2578 C193.611,36 193.529,35.6745 193.531,35.2813 L193.531,29.4688 M200.59,30.9063 L200.59,32.1563 L196.977,32.1563 L196.977,30.9063 L200.59,30.9063 M197.797,29.4688 L199.461,29.4688 L199.461,35.0625 C199.461,35.2161 199.484,35.3353 199.531,35.4199 C199.578,35.5046 199.644,35.5638 199.729,35.5977 C199.813,35.6315 199.911,35.6484 200.023,35.6484 C200.102,35.6484 200.18,35.6413 200.258,35.627 C200.336,35.6126 200.396,35.6016 200.438,35.5938 L200.699,36.832 C200.616,36.8581 200.499,36.8887 200.348,36.9238 C200.197,36.959 200.013,36.9805 199.797,36.9883 C199.396,37.0039 199.045,36.9505 198.744,36.8281 C198.443,36.7057 198.21,36.5156 198.043,36.2578 C197.876,36 197.794,35.6745 197.797,35.2813 L197.797,29.4688 M204.336,37.0234 C203.719,37.0234 203.188,36.8978 202.744,36.6465 C202.3,36.3952 201.958,36.0384 201.719,35.5762 C201.479,35.1139 201.359,34.5664 201.359,33.9336 C201.359,33.3164 201.479,32.7747 201.719,32.3086 C201.958,31.8424 202.296,31.4792 202.732,31.2188 C203.169,30.9583 203.681,30.8281 204.27,30.8281 C204.665,30.8281 205.035,30.8913 205.377,31.0176 C205.719,31.1439 206.019,31.3333 206.275,31.5859 C206.532,31.8385 206.732,32.1556 206.875,32.5371 C207.018,32.9186 207.09,33.3646 207.09,33.875 L207.09,34.332 L202.023,34.332 L202.023,33.3008 L205.523,33.3008 C205.523,33.0612 205.471,32.849 205.367,32.6641 C205.263,32.4792 205.119,32.334 204.936,32.2285 C204.752,32.123 204.539,32.0703 204.297,32.0703 C204.044,32.0703 203.821,32.1283 203.627,32.2441 C203.433,32.36 203.281,32.515 203.172,32.709 C203.063,32.903 203.007,33.1185 203.004,33.3555 L203.004,34.3359 C203.004,34.6328 203.059,34.8893 203.17,35.1055 C203.281,35.3216 203.438,35.4883 203.641,35.6055 C203.844,35.7227 204.085,35.7813 204.363,35.7813 C204.548,35.7813 204.717,35.7552 204.871,35.7031 C205.025,35.651 205.156,35.5729 205.266,35.4688 C205.375,35.3646 205.458,35.237 205.516,35.0859 L207.055,35.1875 C206.977,35.5573 206.817,35.8796 206.576,36.1543 C206.335,36.429 206.025,36.6426 205.646,36.7949 C205.268,36.9473 204.831,37.0234 204.336,37.0234 M208.164,36.9063 L208.164,30.9063 L209.777,30.9063 L209.777,31.9531 L209.84,31.9531 C209.949,31.5807 210.133,31.2988 210.391,31.1074 C210.648,30.916 210.945,30.8203 211.281,30.8203 C211.365,30.8203 211.454,30.8255 211.551,30.8359 C211.647,30.8464 211.732,30.8607 211.805,30.8789 L211.805,32.3555 C211.727,32.332 211.618,32.3112 211.48,32.293 C211.342,32.2747 211.216,32.2656 211.102,32.2656 C210.857,32.2656 210.639,32.3184 210.447,32.4238 C210.256,32.5293 210.105,32.6758 209.994,32.8633 C209.883,33.0508 209.828,33.2669 209.828,33.5117 L209.828,36.9063 L208.164,36.9063 M213.863,39.1563 C213.652,39.1563 213.455,39.14 213.271,39.1074 C213.088,39.0749 212.936,39.0339 212.816,38.9844 L213.191,37.7422 C213.387,37.8021 213.563,37.8346 213.721,37.8398 C213.878,37.8451 214.015,37.8086 214.131,37.7305 C214.247,37.6523 214.341,37.5195 214.414,37.332 L214.512,37.0781 L212.359,30.9063 L214.109,30.9063 L215.352,35.3125 L215.414,35.3125 L216.668,30.9063 L218.43,30.9063 L216.098,37.5547 C215.986,37.8776 215.834,38.1595 215.643,38.4004 C215.451,38.6413 215.21,38.8275 214.918,38.959 C214.626,39.0905 214.275,39.1563 213.863,39.1563 M224.531,37.0234 C223.917,37.0234 223.389,36.8926 222.947,36.6309 C222.506,36.3691 222.167,36.0052 221.932,35.5391 C221.696,35.0729 221.578,34.5365 221.578,33.9297 C221.578,33.3151 221.697,32.7754 221.936,32.3105 C222.174,31.8457 222.513,31.4824 222.953,31.2207 C223.393,30.959 223.917,30.8281 224.523,30.8281 C225.047,30.8281 225.505,30.9232 225.898,31.1133 C226.292,31.3034 226.603,31.5703 226.832,31.9141 C227.061,32.2578 227.188,32.6615 227.211,33.125 L225.641,33.125 C225.596,32.8255 225.48,32.584 225.291,32.4004 C225.102,32.2168 224.855,32.125 224.551,32.125 C224.293,32.125 224.068,32.1947 223.877,32.334 C223.686,32.4733 223.536,32.6758 223.43,32.9414 C223.323,33.207 223.27,33.5286 223.27,33.9063 C223.27,34.2891 223.322,34.6146 223.428,34.8828 C223.533,35.151 223.682,35.3555 223.875,35.4961 C224.068,35.6367 224.293,35.707 224.551,35.707 C224.741,35.707 224.912,35.668 225.064,35.5898 C225.217,35.5117 225.343,35.3978 225.443,35.248 C225.544,35.0983 225.609,34.918 225.641,34.707 L227.211,34.707 C227.185,35.1654 227.061,35.5684 226.838,35.916 C226.615,36.2637 226.309,36.5352 225.918,36.7305 C225.527,36.9258 225.065,37.0234 224.531,37.0234 M229.938,33.4375 L229.938,36.9063 L228.273,36.9063 L228.273,28.9063 L229.891,28.9063 L229.891,31.9648 L229.961,31.9648 C230.096,31.6107 230.315,31.3327 230.617,31.1309 C230.919,30.929 231.298,30.8281 231.754,30.8281 C232.171,30.8281 232.535,30.9186 232.846,31.0996 C233.157,31.2806 233.399,31.5397 233.572,31.877 C233.745,32.2142 233.831,32.6172 233.828,33.0859 L233.828,36.9063 L232.164,36.9063 L232.164,33.3828 C232.167,33.013 232.074,32.7253 231.885,32.5195 C231.696,32.3138 231.432,32.2109 231.094,32.2109 C230.867,32.2109 230.667,32.2591 230.494,32.3555 C230.321,32.4518 230.186,32.5918 230.088,32.7754 C229.99,32.959 229.94,33.1797 229.938,33.4375 M236.844,37.0195 C236.461,37.0195 236.12,36.9525 235.82,36.8184 C235.521,36.6842 235.285,36.485 235.111,36.2207 C234.938,35.9564 234.852,35.6263 234.852,35.2305 C234.852,34.8971 234.913,34.6172 235.035,34.3906 C235.158,34.1641 235.324,33.9818 235.535,33.8438 C235.746,33.7057 235.986,33.6016 236.256,33.5313 C236.525,33.4609 236.809,33.4115 237.105,33.3828 C237.454,33.3464 237.736,33.3118 237.949,33.2793 C238.163,33.2467 238.318,33.1979 238.414,33.1328 C238.51,33.0677 238.559,32.9714 238.559,32.8438 L238.559,32.8203 C238.559,32.5729 238.481,32.3815 238.326,32.2461 C238.171,32.1107 237.952,32.043 237.668,32.043 C237.368,32.043 237.13,32.1087 236.953,32.2402 C236.776,32.3717 236.659,32.5365 236.602,32.7344 L235.063,32.6094 C235.141,32.2448 235.294,31.929 235.523,31.6621 C235.753,31.3952 236.049,31.1895 236.412,31.0449 C236.775,30.9004 237.197,30.8281 237.676,30.8281 C238.009,30.8281 238.329,30.8672 238.635,30.9453 C238.941,31.0234 239.213,31.1445 239.451,31.3086 C239.689,31.4727 239.878,31.6829 240.016,31.9395 C240.154,32.196 240.223,32.5026 240.223,32.8594 L240.223,36.9063 L238.645,36.9063 L238.645,36.0742 L238.598,36.0742 C238.501,36.2617 238.372,36.4264 238.211,36.5684 C238.049,36.7103 237.855,36.821 237.629,36.9004 C237.402,36.9798 237.141,37.0195 236.844,37.0195 M237.32,35.8711 C237.565,35.8711 237.781,35.8223 237.969,35.7246 C238.156,35.627 238.303,35.4948 238.41,35.3281 C238.517,35.1615 238.57,34.9727 238.57,34.7617 L238.57,34.125 C238.518,34.1589 238.447,34.1895 238.357,34.2168 C238.268,34.2441 238.167,34.2689 238.055,34.291 C237.943,34.3132 237.831,34.3327 237.719,34.3496 C237.607,34.3665 237.505,34.3815 237.414,34.3945 C237.219,34.4232 237.048,34.4688 236.902,34.5313 C236.757,34.5938 236.643,34.6777 236.563,34.7832 C236.482,34.8887 236.441,35.0195 236.441,35.1758 C236.441,35.4023 236.524,35.5749 236.689,35.6934 C236.855,35.8118 237.065,35.8711 237.32,35.8711 M243.172,33.4375 L243.172,36.9063 L241.508,36.9063 L241.508,30.9063 L243.094,30.9063 L243.094,31.9648 L243.164,31.9648 C243.297,31.6159 243.52,31.3392 243.832,31.1348 C244.145,30.9303 244.523,30.8281 244.969,30.8281 C245.385,30.8281 245.749,30.9193 246.059,31.1016 C246.368,31.2839 246.609,31.5436 246.781,31.8809 C246.953,32.2181 247.039,32.6198 247.039,33.0859 L247.039,36.9063 L245.375,36.9063 L245.375,33.3828 C245.378,33.0156 245.284,32.7285 245.094,32.5215 C244.904,32.3145 244.642,32.2109 244.309,32.2109 C244.085,32.2109 243.887,32.2591 243.717,32.3555 C243.546,32.4518 243.413,32.5918 243.318,32.7754 C243.223,32.959 243.174,33.1797 243.172,33.4375 M251.039,39.2813 C250.5,39.2813 250.038,39.2077 249.654,39.0605 C249.27,38.9134 248.965,38.7135 248.738,38.4609 C248.512,38.2083 248.365,37.9245 248.297,37.6094 L249.836,37.4023 C249.883,37.5221 249.957,37.6341 250.059,37.7383 C250.16,37.8424 250.295,37.9264 250.463,37.9902 C250.631,38.054 250.836,38.0859 251.078,38.0859 C251.44,38.0859 251.739,37.998 251.975,37.8223 C252.21,37.6465 252.328,37.3529 252.328,36.9414 L252.328,35.8438 L252.258,35.8438 C252.185,36.0104 252.076,36.168 251.93,36.3164 C251.784,36.4648 251.596,36.5859 251.367,36.6797 C251.138,36.7734 250.865,36.8203 250.547,36.8203 C250.096,36.8203 249.687,36.7155 249.318,36.5059 C248.95,36.2962 248.657,35.9746 248.439,35.541 C248.222,35.1074 248.113,34.5586 248.113,33.8945 C248.113,33.2148 248.224,32.6471 248.445,32.1914 C248.667,31.7357 248.962,31.3945 249.33,31.168 C249.699,30.9414 250.103,30.8281 250.543,30.8281 C250.879,30.8281 251.16,30.8848 251.387,30.998 C251.613,31.1113 251.796,31.252 251.936,31.4199 C252.075,31.5879 252.182,31.7526 252.258,31.9141 L252.32,31.9141 L252.32,30.9063 L253.973,30.9063 L253.973,36.9648 C253.973,37.4753 253.848,37.9023 253.598,38.2461 C253.348,38.5898 253.002,38.8483 252.561,39.0215 C252.119,39.1947 251.612,39.2813 251.039,39.2813 M251.074,35.5703 C251.342,35.5703 251.57,35.5033 251.756,35.3691 C251.942,35.235 252.085,35.0423 252.186,34.791 C252.286,34.5397 252.336,34.2383 252.336,33.8867 C252.336,33.5352 252.286,33.2298 252.188,32.9707 C252.089,32.7116 251.945,32.5104 251.758,32.3672 C251.57,32.224 251.342,32.1523 251.074,32.1523 C250.801,32.1523 250.57,32.2259 250.383,32.373 C250.195,32.5202 250.053,32.724 249.957,32.9844 C249.861,33.2448 249.813,33.5456 249.813,33.8867 C249.813,34.2331 249.861,34.5319 249.959,34.7832 C250.057,35.0345 250.199,35.2285 250.385,35.3652 C250.571,35.502 250.801,35.5703 251.074,35.5703 M258.023,37.0234 C257.406,37.0234 256.876,36.8978 256.432,36.6465 C255.988,36.3952 255.646,36.0384 255.406,35.5762 C255.167,35.1139 255.047,34.5664 255.047,33.9336 C255.047,33.3164 255.167,32.7747 255.406,32.3086 C255.646,31.8424 255.984,31.4792 256.42,31.2188 C256.856,30.9583 257.368,30.8281 257.957,30.8281 C258.353,30.8281 258.722,30.8913 259.064,31.0176 C259.407,31.1439 259.706,31.3333 259.963,31.5859 C260.219,31.8385 260.419,32.1556 260.563,32.5371 C260.706,32.9186 260.777,33.3646 260.777,33.875 L260.777,34.332 L255.711,34.332 L255.711,33.3008 L259.211,33.3008 C259.211,33.0612 259.159,32.849 259.055,32.6641 C258.951,32.4792 258.807,32.334 258.623,32.2285 C258.439,32.123 258.227,32.0703 257.984,32.0703 C257.732,32.0703 257.508,32.1283 257.314,32.2441 C257.12,32.36 256.969,32.515 256.859,32.709 C256.75,32.903 256.694,33.1185 256.691,33.3555 L256.691,34.3359 C256.691,34.6328 256.747,34.8893 256.857,35.1055 C256.968,35.3216 257.125,35.4883 257.328,35.6055 C257.531,35.7227 257.772,35.7813 258.051,35.7813 C258.236,35.7813 258.405,35.7552 258.559,35.7031 C258.712,35.651 258.844,35.5729 258.953,35.4688 C259.063,35.3646 259.146,35.237 259.203,35.0859 L260.742,35.1875 C260.664,35.5573 260.505,35.8796 260.264,36.1543 C260.023,36.429 259.713,36.6426 259.334,36.7949 C258.955,36.9473 258.518,37.0234 258.023,37.0234 M264.063,37.0039 C263.607,37.0039 263.195,36.8861 262.826,36.6504 C262.458,36.4147 262.166,36.0671 261.951,35.6074 C261.736,35.1478 261.629,34.5833 261.629,33.9141 C261.629,33.2266 261.74,32.6543 261.961,32.1973 C262.182,31.7402 262.477,31.3978 262.846,31.1699 C263.214,30.9421 263.618,30.8281 264.059,30.8281 C264.395,30.8281 264.675,30.8848 264.9,30.998 C265.126,31.1113 265.308,31.252 265.447,31.4199 C265.587,31.5879 265.693,31.7526 265.766,31.9141 L265.816,31.9141 L265.816,28.9063 L267.477,28.9063 L267.477,36.9063 L265.836,36.9063 L265.836,35.9453 L265.766,35.9453 C265.688,36.112 265.577,36.2767 265.436,36.4395 C265.294,36.6022 265.11,36.737 264.885,36.8438 C264.66,36.9505 264.385,37.0039 264.063,37.0039 M264.59,35.6797 C264.858,35.6797 265.085,35.6061 265.271,35.459 C265.458,35.3118 265.601,35.1055 265.701,34.8398 C265.801,34.5742 265.852,34.263 265.852,33.9063 C265.852,33.5495 265.802,33.2396 265.703,32.9766 C265.604,32.7135 265.461,32.5104 265.273,32.3672 C265.086,32.224 264.858,32.1523 264.59,32.1523 C264.316,32.1523 264.086,32.2266 263.898,32.375 C263.711,32.5234 263.569,32.7292 263.473,32.9922 C263.376,33.2552 263.328,33.5599 263.328,33.9063 C263.328,34.2552 263.377,34.5632 263.475,34.8301 C263.572,35.097 263.714,35.3053 263.9,35.4551 C264.087,35.6048 264.316,35.6797 264.59,35.6797 "/>
</g>

<g fill="#ffffff" fill-opacity="1" stroke="none" transform="matrix(0.228,0,0,0.228,11.6,25.6)"
font-family="Inter" font-size="11" font-weight="700" font-style="normal" 
>
<path vector-effect="none" fill-rule="nonzero" d="M23.3682,15.995 C21.89,15.995 20.7001,17.185 20.7001,18.6631 L20.7001,81.3343 C20.7001,82.8125 21.89,84.0024 23.3682,84.0024 L76.6077,84.0024 C78.0859,84.0024 79.2758,82.8125 79.2758,81.3343 L79.2758,18.6631 C79.2758,17.185 78.0859,15.995 76.6077,15.995 L50.8905,15.995 C51.6703,16.0444 52.2838,16.6869 52.2838,17.4796 L52.2838,26.9112 C52.2838,27.7362 51.6196,28.4004 50.7946,28.4004 L49.3054,28.4004 C48.4804,28.4004 47.8161,27.7362 47.8161,26.9112 L47.8161,17.4796 C47.8161,16.6869 48.4298,16.0443 49.2096,15.995 L23.3682,15.995 M46.7613,35.2087 L53.2146,35.2087 C53.9021,35.2087 54.4556,35.7622 54.4556,36.4497 L54.4556,42.903 C54.4556,43.5906 53.9021,44.1439 53.2146,44.1439 L46.7613,44.1439 C46.0738,44.1439 45.5202,43.5906 45.5202,42.903 L45.5202,36.4497 C45.5202,35.7622 46.0738,35.2087 46.7613,35.2087 "/>
</g>

<g fill="none" stroke="#000000" stroke-opacity="1" stroke-width="2.43854" stroke-linecap="butt" stroke-linejoin="miter" stroke-miterlimit="4" transform="matrix(0.228,0,0,0.228,11.6,25.6)"
font-family="Inter" font-size="11" font-weight="700" font-style="normal" 
>
<path vector-effect="none" fill-rule="nonzero" d="M23.3682,15.995 C21.89,15.995 20.7001,17.185 20.7001,18.6631 L20.7001,81.3343 C20.7001,82.8125 21.89,84.0024 23.3682,84.0024 L76.6077,84.0024 C78.0859,84.0024 79.2758,82.8125 79.2758,81.3343 L79.2758,18.6631 C79.2758,17.185 78.0859,15.995 76.6077,15.995 L50.8905,15.995 C51.6703,16.0444 52.2838,16.6869 52.2838,17.4796 L52.2838,26.9112 C52.2838,27.7362 51.6196,28.4004 50.7946,28.4004 L49.3054,28.4004 C48.4804,28.4004 47.8161,27.7362 47.8161,26.9112 L47.8161,17.4796 C47.8161,16.6869 48.4298,16.0443 49.2096,15.995 L23.3682,15.995 M46.7613,35.2087 L53.2146,35.2087 C53.9021,35.2087 54.4556,35.7622 54.4556,36.4497 L54.4556,42.903 C54.4556,43.5906 53.9021,44.1439 53.2146,44.1439 L46.7613,44.1439 C46.0738,44.1439 45.5202,43.5906 45.5202,42.903 L45.5202,36.4497 C45.5202,35.7622 46.0738,35.2087 46.7613,35.2087 "/>
</g>

<g fill="#000000" fill-opacity="1" stroke="none" transform="matrix(0.228,0,0,0.228,11.6,25.6)"
font-family="Inter" font-size="11" font-weight="700" font-style="normal" 
>
<path vector-effect="none" fill-rule="evenodd" d="M14.2421,17.9523 C14.2421,17.1298 14.9088,16.4631 15.7313,16.4631 L18.7097,16.4631 C19.5322,16.4631 20.1989,17.1298 20.1989,17.9523 L20.1989,33.8372 C20.1989,34.6597 19.5322,35.3264 18.7097,35.3264 L15.7313,35.3264 C14.9088,35.3264 14.2421,34.6597 14.2421,33.8372 L14.2421,17.9523"/>
</g>

<g fill="none" stroke="#000000" stroke-opacity="1" stroke-width="2.43854" stroke-linecap="butt" stroke-linejoin="miter" stroke-miterlimit="4" transform="matrix(0.228,0,0,0.228,11.6,25.6)"
font-family="Inter" font-size="11" font-weight="700" font-style="normal" 
>
<path vector-effect="none" fill-rule="evenodd" d="M14.2421,17.9523 C14.2421,17.1298 14.9088,16.4631 15.7313,16.4631 L18.7097,16.4631 C19.5322,16.4631 20.1989,17.1298 20.1989,17.9523 L20.1989,33.8372 C20.1989,34.6597 19.5322,35.3264 18.7097,35.3264 L15.7313,35.3264 C14.9088,35.3264 14.2421,34.6597 14.2421,33.8372 L14.2421,17.9523"/>
</g>

<g fill="#000000" fill-opacity="1" stroke="none" transform="matrix(0.228,0,0,0.228,11.6,25.6)"
font-family="Inter" font-size="11" font-weight="700" font-style="normal" 
>
<path vector-effect="none" fill-rule="evenodd" d="M79.3249,17.4662 C79.3249,16.6438 79.9916,15.977 80.8141,15.977 L83.7925,15.977 C84.615,15.977 85.2817,16.6438 85.2817,17.4662 L85.2817,33.3512 C85.2817,34.1736 84.615,34.8404 83.7925,34.8404 L80.8141,34.8404 C79.9916,34.8404 79.3249,34.1736 79.3249,33.3512 L79.3249,17.4662"/>
</g>

<g fill="none" stroke="#000000" stroke-opacity="1" stroke-width="2.43854" stroke-linecap="butt" stroke-linejoin="miter" stroke-miterlimit="4" transform="matrix(0.228,0,0,0.228,11.6,25.6)"
font-family="Inter" font-size="11" font-weight="700" font-style="normal" 
>
<path vector-effect="none" fill-rule="evenodd" d="M79.3249,17.4662 C79.3249,16.6438 79.9916,15.977 80.8141,15.977 L83.7925,15.977 C84.615,15.977 85.2817,16.6438 85.2817,17.4662 L85.2817,33.3512 C85.2817,34.1736 84.615,34.8404 83.7925,34.8404 L80.8141,34.8404 C79.9916,34.8404 79.3249,34.1736 79.3249,33.3512 L79.3249,17.4662"/>
</g>

<g fill="#000000" fill-opacity="1" stroke="none" transform="matrix(0.228,0,0,0.228,11.6,25.6)"
font-family="Inter" font-size="11" font-weight="700" font-style="normal" 
>
<path vector-effect="none" fill-rule="evenodd" d="M79.5633,66.576 C79.5633,65.7535 80.23,65.0868 81.0525,65.0868 L84.0309,65.0868 C84.8534,65.0868 85.5201,65.7535 85.5201,66.576 L85.5201,82.4609 C85.5201,83.2834 84.8534,83.9501 84.0309,83.9501 L81.0525,83.9501 C80.23,83.9501 79.5633,83.2834 79.5633,82.4609 L79.5633,66.576"/>
</g>

<g fill="none" stroke="#000000" stroke-opacity="1" stroke-width="2.43854" stroke-linecap="butt" stroke-linejoin="miter" stroke-miterlimit="4" transform="matrix(0.228,0,0,0.228,11.6,25.6)"
font-family="Inter" font-size="11" font-weight="700" font-style="normal" 
>
<path vector-effect="none" fill-rule="evenodd" d="M79.5633,66.576 C79.5633,65.7535 80.23,65.0868 81.0525,65.0868 L84.0309,65.0868 C84.8534,65.0868 85.5201,65.7535 85.5201,66.576 L85.5201,82.4609 C85.5201,83.2834 84.8534,83.9501 84.0309,83.9501 L81.0525,83.9501 C80.23,83.9501 79.5633,83.2834 79.5633,82.4609 L79.5633,66.576"/>
</g>

<g fill="#000000" fill-opacity="1" stroke="none" transform="matrix(0.228,0,0,0.228,11.6,25.6)"
font-family="Inter" font-size="11" font-weight="700" font-style="normal" 
>
<path vector-effect="none" fill-rule="evenodd" d="M14.6928,66.6283 C14.6928,65.8058 15.3595,65.1391 16.182,65.1391 L19.1604,65.1391 C19.9829,65.1391 20.6496,65.8058 20.6496,66.6283 L20.6496,82.5132 C20.6496,83.3357 19.9829,84.0024 19.1604,84.0024 L16.182,84.0024 C15.3595,84.0024 14.6928,83.3357 14.6928,82.5132 L14.6928,66.6283"/>
</g>

<g fill="none" stroke="#000000" stroke-opacity="1" stroke-width="2.43854" stroke-linecap="butt" stroke-linejoin="miter" stroke-miterlimit="4" transform="matrix(0.228,0,0,0.228,11.6,25.6)"
font-family="Inter" font-size="11" font-weight="700" font-style="normal" 
>
<path vector-effect="none" fill-rule="evenodd" d="M14.6928,66.6283 C14.6928,65.8058 15.3595,65.1391 16.182,65.1391 L19.1604,65.1391 C19.9829,65.1391 20.6496,65.8058 20.6496,66.6283 L20.6496,82.5132 C20.6496,83.3357 19.9829,84.0024 19.1604,84.0024 L16.182,84.0024 C15.3595,84.0024 14.6928,83.3357 14.6928,82.5132 L14.6928,66.6283"/>
</g>

<g fill="none" stroke="#000000" stroke-opacity="1" stroke-width="2.43854" stroke-linecap="butt" stroke-linejoin="miter" stroke-miterlimit="4" transform="matrix(0.228,0,0,0.228,11.6,25.6)"
font-family="Inter" font-size="11" font-weight="700" font-style="normal" 
>
<path vector-effect="none" fill-rule="evenodd" d="M20.92,17.503 C20.92,16.6806 21.5867,16.0138 22.4092,16.0138 L27.125,16.0138 C27.9475,16.0138 28.6142,16.6806 28.6142,17.503 L28.6142,55.9743 C28.6142,56.7968 27.9475,57.4635 27.125,57.4635 L22.4092,57.4635 C21.5867,57.4635 20.92,56.7968 20.92,55.9743 L20.92,17.503"/>
</g>

<g fill="none" stroke="#000000" stroke-opacity="1" stroke-width="2.43854" stroke-linecap="butt" stroke-linejoin="miter" stroke-miterlimit="4" transform="matrix(0.228,0,0,0.228,11.6,25.6)"
font-family="Inter" font-size="11" font-weight="700" font-style="normal" 
>
<path vector-effect="none" fill-rule="evenodd" d="M71.4269,17.6638 C71.4269,16.8414 72.0937,16.1746 72.9162,16.1746 L77.632,16.1746 C78.4545,16.1746 79.1212,16.8414 79.1212,17.6638 L79.1212,56.1351 C79.1212,56.9576 78.4545,57.6243 77.632,57.6243 L72.9162,57.6243 C72.0937,57.6243 71.4269,56.9576 71.4269,56.1351 L71.4269,17.6638"/>
</g>

<g fill="#ffffff" fill-opacity="1" stroke="none" transform="matrix(0.228,0,0,0.228,11.6,25.6)"
font-family="Inter" font-size="11" font-weight="700" font-style="normal" 
>
<path vector-effect="none" fill-rule="evenodd" d="M41.9526,15.9757 C41.9526,15.9593 41.9659,15.9461 41.9822,15.9461 L57.922,15.9461 C57.9384,15.9461 57.9516,15.9593 57.9516,15.9757 C57.9516,15.992 57.9384,16.0053 57.922,16.0053 L41.9822,16.0053 C41.9659,16.0053 41.9526,15.992 41.9526,15.9757 "/>
</g>

<g fill="none" stroke="#000000" stroke-opacity="1" stroke-width="2.3865" stroke-linecap="butt" stroke-linejoin="miter" stroke-miterlimit="4" transform="matrix(0.228,0,0,0.228,11.6,25.6)"
font-family="Inter" font-size="11" font-weight="700" font-style="normal" 
>
<path vector-effect="none" fill-rule="evenodd" d="M41.9526,15.9757 C41.9526,15.9593 41.9659,15.9461 41.9822,15.9461 L57.922,15.9461 C57.9384,15.9461 57.9516,15.9593 57.9516,15.9757 C57.9516,15.992 57.9384,16.0053 57.922,16.0053 L41.9822,16.0053 C41.9659,16.0053 41.9526,15.992 41.9526,15.9757 "/>
</g>

<g fill="#ffffff" fill-opacity="1" stroke="none" transform="matrix(1,0,0,1,0,0)"
font-family="Inter" font-size="11" font-weight="700" font-style="normal" 
>
</g>

<g fill="#ffffff" fill-opacity="1" stroke="#ba9500" stroke-opacity="1" stroke-width="1" stroke-linecap="square" stroke-linejoin="bevel" transform="matrix(1,0,0,1,0,0)"
font-family="Inter" font-size="11" font-weight="700" font-style="normal" 
>
<polyline fill="none" vector-effect="none" points="45,27 45,47 " />
</g>

<g fill="#ffffff" fill-opacity="1" stroke="#ba9500" stroke-opacity="1" stroke-width="1" stroke-linecap="square" stroke-linejoin="bevel" transform="matrix(1,0,0,1,0,0)"
font-family="Inter" font-size="11" font-weight="700" font-style="normal" 
>
</g>

<g fill="#f5c400" fill-opacity="1" stroke="#ba9500" stroke-opacity="1" stroke-width="1.2" stroke-linecap="square" stroke-linejoin="bevel" transform="matrix(1,0,0,1,87,22)"
font-family="Inter" font-size="11" font-weight="700" font-style="normal" 
>
<path vector-effect="none" fill-rule="evenodd" d="M0.5,3.5 C0.5,1.84315 1.84315,0.5 3.5,0.5 L71.5,0.5 C73.1569,0.5 74.5,1.84315 74.5,3.5 L74.5,20.5 C74.5,22.1569 73.1569,23.5 71.5,23.5 L3.5,23.5 C1.84315,23.5 0.5,22.1569 0.5,20.5 L0.5,3.5"/>
</g>

<g fill="#ffffff" fill-opacity="1" stroke="none" transform="matrix(1,0,0,1,87,22)"
font-family="Inter" font-size="11" font-weight="700" font-style="normal" 
>
<path vector-effect="none" fill-rule="nonzero" d="M10,9.39453 L10,8 L16.5703,8 L16.5703,9.39453 L14.1211,9.39453 L14.1211,16 L12.4492,16 L12.4492,9.39453 L10,9.39453 M17.6484,16 L17.6484,8 L19.3398,8 L19.3398,11.3008 L22.7734,11.3008 L22.7734,8 L24.4609,8 L24.4609,16 L22.7734,16 L22.7734,12.6953 L19.3398,12.6953 L19.3398,16 L17.6484,16 M32.543,8 L32.543,16 L31.082,16 L27.6016,10.9648 L27.543,10.9648 L27.543,16 L25.8516,16 L25.8516,8 L27.3359,8 L30.7891,13.0313 L30.8594,13.0313 L30.8594,8 L32.543,8 M33.9297,16 L33.9297,8 L35.6211,8 L35.6211,11.3008 L39.0547,11.3008 L39.0547,8 L40.7422,8 L40.7422,16 L39.0547,16 L39.0547,12.6953 L35.6211,12.6953 L35.6211,16 L33.9297,16 M42.1328,16 L42.1328,8 L45.3359,8 C45.9245,8 46.4154,8.08724 46.8086,8.26172 C47.2018,8.4362 47.4974,8.67773 47.6953,8.98633 C47.8932,9.29492 47.9922,9.64974 47.9922,10.0508 C47.9922,10.3633 47.9297,10.6374 47.8047,10.873 C47.6797,11.1087 47.5085,11.3014 47.291,11.4512 C47.0736,11.6009 46.8255,11.707 46.5469,11.7695 L46.5469,11.8477 C46.8516,11.8607 47.1374,11.9466 47.4043,12.1055 C47.6712,12.2643 47.888,12.4863 48.0547,12.7715 C48.2214,13.0566 48.3047,13.3958 48.3047,13.7891 C48.3047,14.2135 48.1999,14.5918 47.9902,14.9238 C47.7806,15.2559 47.4714,15.5182 47.0625,15.7109 C46.6536,15.9036 46.1497,16 45.5508,16 L42.1328,16 M43.8242,14.6172 L45.2031,14.6172 C45.6745,14.6172 46.0182,14.5267 46.2344,14.3457 C46.4505,14.1647 46.5586,13.9232 46.5586,13.6211 C46.5586,13.3997 46.5052,13.2044 46.3984,13.0352 C46.2917,12.8659 46.14,12.7331 45.9434,12.6367 C45.7467,12.5404 45.513,12.4922 45.2422,12.4922 L43.8242,12.4922 L43.8242,14.6172 M43.8242,11.3477 L45.0781,11.3477 C45.3099,11.3477 45.5163,11.3066 45.6973,11.2246 C45.8783,11.1426 46.0215,11.026 46.127,10.875 C46.2324,10.724 46.2852,10.543 46.2852,10.332 C46.2852,10.043 46.1829,9.8099 45.9785,9.63281 C45.7741,9.45573 45.4844,9.36719 45.1094,9.36719 L43.8242,9.36719 L43.8242,11.3477 M52.832,8 L52.832,16 L51.1406,16 L51.1406,9.60547 L51.0938,9.60547 L49.2617,10.7539 L49.2617,9.25391 L51.2422,8 L52.832,8"/>
</g>

<g fill="#ffffff" fill-opacity="1" stroke="none" transform="matrix(0.03125,0,0,0.03125,148,30)"
font-family="Inter" font-size="11" font-weight="700" font-style="normal" 
>
<path vector-effect="none" fill-rule="nonzero" d="M111.326,191.938 C120.545,201.158 135.517,201.158 144.737,191.938 L239.144,97.5313 C245.929,90.7458 247.921,80.6413 244.233,71.7907 C240.545,62.9401 231.989,57.1871 222.401,57.1871 L33.5875,57.2608 C24.0731,57.2608 15.4437,63.0137 11.7559,71.8644 C8.06815,80.715 10.1333,90.8195 16.845,97.605 L111.252,192.012 L111.326,191.938"/>
</g>

<g fill="none" stroke="#000000" stroke-opacity="1" stroke-width="13.7195" stroke-linecap="butt" stroke-linejoin="miter" stroke-miterlimit="4" transform="matrix(0.03125,0,0,0.03125,148,30)"
font-family="Inter" font-size="11" font-weight="700" font-style="normal" 
>
<path vector-effect="none" fill-rule="nonzero" d="M111.326,191.938 C120.545,201.158 135.517,201.158 144.737,191.938 L239.144,97.5313 C245.929,90.7458 247.921,80.6413 244.233,71.7907 C240.545,62.9401 231.989,57.1871 222.401,57.1871 L33.5875,57.2608 C24.0731,57.2608 15.4437,63.0137 11.7559,71.8644 C8.06815,80.715 10.1333,90.8195 16.845,97.605 L111.252,192.012 L111.326,191.938"/>
</g>

<g fill="#ffffff" fill-opacity="1" stroke="none" transform="matrix(1,0,0,1,87,22)"
font-family="Inter" font-size="11" font-weight="700" font-style="normal" 
>
</g>

<g fill="#ffffff" fill-opacity="1" stroke="#ba9500" stroke-opacity="1" stroke-width="1" stroke-linecap="square" stroke-linejoin="bevel" transform="matrix(1,0,0,1,0,0)"
font-family="Inter" font-size="11" font-weight="700" font-style="normal" 
>
</g>

<g fill="none" stroke="#000000" stroke-opacity="1" stroke-width="1" stroke-linecap="square" stroke-linejoin="bevel" transform="matrix(1,0,0,1,0,0)"
font-family=".AppleSystemUIFont" font-size="13" font-weight="400" font-style="normal" 
>
</g>
</g>
</svg>
