<?xml version="1.0" encoding="UTF-8" standalone="no"?>
<svg width="86.0778mm" height="9.87778mm"
 viewBox="0 0 244 28"
 xmlns="http://www.w3.org/2000/svg" xmlns:xlink="http://www.w3.org/1999/xlink" version="1.2" baseProfile="tiny">
<title>Abstract block</title>
<desc>block_operator_is_in_between</desc>
<defs>
</defs>
<g fill="none" stroke="black" stroke-width="1" fill-rule="evenodd" stroke-linecap="square" stroke-linejoin="bevel" >

<g fill="none" stroke="#000000" stroke-opacity="1" stroke-width="1" stroke-linecap="square" stroke-linejoin="bevel" transform="matrix(1,0,0,1,0,0)"
font-family=".AppleSystemUIFont" font-size="13" font-weight="400" font-style="normal" 
>
</g>

<g fill="none" stroke="#000000" stroke-opacity="1" stroke-width="1" stroke-linecap="square" stroke-linejoin="bevel" transform="matrix(1,0,0,1,0,0)"
font-family=".AppleSystemUIFont" font-size="13" font-weight="400" font-style="normal" 
>
</g>

<g fill="#00b94d" fill-opacity="1" stroke="#007e32" stroke-opacity="1" stroke-width="1.2" stroke-linecap="square" stroke-linejoin="bevel" transform="matrix(1,0,0,1,0,0)"
font-family=".AppleSystemUIFont" font-size="13" font-weight="400" font-style="normal" 
>
<path vector-effect="none" fill-rule="evenodd" d="M0,14 L14,0 L229.7,0 L243.7,14 L229.7,28 L14,28 L0,14"/>
</g>

<g fill="#ffffff" fill-opacity="1" stroke="none" transform="matrix(1,0,0,1,0,0)"
font-family="Inter" font-size="11" font-weight="700" font-style="normal" 
>
<path vector-effect="none" fill-rule="nonzero" d="M17.6641,18 L17.6641,12 L19.3281,12 L19.3281,18 L17.6641,18 M18.5,11.2266 C18.2526,11.2266 18.041,11.1439 17.8652,10.9785 C17.6895,10.8132 17.6016,10.6146 17.6016,10.3828 C17.6016,10.1536 17.6895,9.95638 17.8652,9.79102 C18.041,9.62565 18.2526,9.54297 18.5,9.54297 C18.7474,9.54297 18.959,9.62565 19.1348,9.79102 C19.3105,9.95638 19.3984,10.1536 19.3984,10.3828 C19.3984,10.6146 19.3105,10.8132 19.1348,10.9785 C18.959,11.1439 18.7474,11.2266 18.5,11.2266 M25.6406,13.7109 L24.1172,13.8047 C24.0911,13.6745 24.0352,13.5566 23.9492,13.4512 C23.8633,13.3457 23.7507,13.2611 23.6113,13.1973 C23.472,13.1335 23.306,13.1016 23.1133,13.1016 C22.8555,13.1016 22.638,13.1556 22.4609,13.2637 C22.2839,13.3717 22.1953,13.5156 22.1953,13.6953 C22.1953,13.8385 22.2526,13.9596 22.3672,14.0586 C22.4818,14.1576 22.6784,14.237 22.957,14.2969 L24.043,14.5156 C24.6263,14.6354 25.0612,14.8281 25.3477,15.0938 C25.6341,15.3594 25.7773,15.7083 25.7773,16.1406 C25.7773,16.5339 25.6621,16.8789 25.4316,17.1758 C25.2012,17.4727 24.8861,17.7038 24.4863,17.8691 C24.0866,18.0345 23.6263,18.1172 23.1055,18.1172 C22.3112,18.1172 21.679,17.9512 21.209,17.6191 C20.7389,17.2871 20.4635,16.8346 20.3828,16.2617 L22.0195,16.1758 C22.069,16.418 22.1888,16.6022 22.3789,16.7285 C22.569,16.8548 22.8125,16.918 23.1094,16.918 C23.401,16.918 23.6361,16.8613 23.8145,16.748 C23.9928,16.6348 24.0833,16.4883 24.0859,16.3086 C24.0833,16.1576 24.0195,16.0332 23.8945,15.9355 C23.7695,15.8379 23.5768,15.763 23.3164,15.7109 L22.2773,15.5039 C21.6914,15.3867 21.2559,15.1836 20.9707,14.8945 C20.6855,14.6055 20.543,14.237 20.543,13.7891 C20.543,13.4036 20.6478,13.0716 20.8574,12.793 C21.0671,12.5143 21.3626,12.2995 21.7441,12.1484 C22.1257,11.9974 22.5729,11.9219 23.0859,11.9219 C23.8438,11.9219 24.4408,12.082 24.877,12.4023 C25.3132,12.7227 25.5677,13.1589 25.6406,13.7109 "/>
</g>

<g fill="#ffffff" fill-opacity="1" stroke="none" transform="matrix(1,0,0,1,0,0)"
font-family="Inter" font-size="11" font-weight="700" font-style="normal" 
>
<path vector-effect="none" fill-rule="nonzero" d="M64.9922,17.9531 L64.9922,11.9531 L66.6563,11.9531 L66.6563,17.9531 L64.9922,17.9531 M65.8281,11.1797 C65.5807,11.1797 65.3691,11.097 65.1934,10.9316 C65.0176,10.7663 64.9297,10.5677 64.9297,10.3359 C64.9297,10.1068 65.0176,9.90951 65.1934,9.74414 C65.3691,9.57878 65.5807,9.49609 65.8281,9.49609 C66.0755,9.49609 66.2871,9.57878 66.4629,9.74414 C66.6387,9.90951 66.7266,10.1068 66.7266,10.3359 C66.7266,10.5677 66.6387,10.7663 66.4629,10.9316 C66.2871,11.097 66.0755,11.1797 65.8281,11.1797 M69.6406,14.4844 L69.6406,17.9531 L67.9766,17.9531 L67.9766,11.9531 L69.5625,11.9531 L69.5625,13.0117 L69.6328,13.0117 C69.7656,12.6628 69.9883,12.3861 70.3008,12.1816 C70.6133,11.9772 70.9922,11.875 71.4375,11.875 C71.8542,11.875 72.2174,11.9661 72.5273,12.1484 C72.8372,12.3307 73.0781,12.5905 73.25,12.9277 C73.4219,13.265 73.5078,13.6667 73.5078,14.1328 L73.5078,17.9531 L71.8438,17.9531 L71.8438,14.4297 C71.8464,14.0625 71.7526,13.7754 71.5625,13.5684 C71.3724,13.3613 71.1107,13.2578 70.7773,13.2578 C70.5534,13.2578 70.3561,13.306 70.1855,13.4023 C70.015,13.4987 69.8822,13.6387 69.7871,13.8223 C69.6921,14.0059 69.6432,14.2266 69.6406,14.4844 M77.3828,17.9531 L77.3828,9.95313 L79.0469,9.95313 L79.0469,12.9609 L79.0977,12.9609 C79.1706,12.7995 79.2767,12.6348 79.416,12.4668 C79.5553,12.2988 79.7376,12.1582 79.9629,12.0449 C80.1882,11.9316 80.4688,11.875 80.8047,11.875 C81.2422,11.875 81.6458,11.9889 82.0156,12.2168 C82.3854,12.4447 82.681,12.7871 82.9023,13.2441 C83.1237,13.7012 83.2344,14.2734 83.2344,14.9609 C83.2344,15.6302 83.127,16.1947 82.9121,16.6543 C82.6973,17.1139 82.4056,17.4616 82.0371,17.6973 C81.6686,17.9329 81.2565,18.0508 80.8008,18.0508 C80.4779,18.0508 80.2038,17.9974 79.9785,17.8906 C79.7533,17.7839 79.569,17.6491 79.4258,17.4863 C79.2826,17.3236 79.1732,17.1589 79.0977,16.9922 L79.0234,16.9922 L79.0234,17.9531 L77.3828,17.9531 M79.0117,14.9531 C79.0117,15.3099 79.0612,15.6211 79.1602,15.8867 C79.2591,16.1523 79.4023,16.3587 79.5898,16.5059 C79.7773,16.653 80.0052,16.7266 80.2734,16.7266 C80.5443,16.7266 80.7734,16.6517 80.9609,16.502 C81.1484,16.3522 81.291,16.1439 81.3887,15.877 C81.4863,15.61 81.5352,15.3021 81.5352,14.9531 C81.5352,14.6068 81.487,14.3021 81.3906,14.0391 C81.2943,13.776 81.1523,13.5703 80.9648,13.4219 C80.7773,13.2734 80.5469,13.1992 80.2734,13.1992 C80.0026,13.1992 79.7741,13.2708 79.5879,13.4141 C79.4017,13.5573 79.2591,13.7604 79.1602,14.0234 C79.0612,14.2865 79.0117,14.5964 79.0117,14.9531 M87.0703,18.0703 C86.4531,18.0703 85.9225,17.9447 85.4785,17.6934 C85.0345,17.4421 84.6927,17.0853 84.4531,16.623 C84.2135,16.1608 84.0938,15.6133 84.0938,14.9805 C84.0938,14.3633 84.2135,13.8216 84.4531,13.3555 C84.6927,12.8893 85.0306,12.526 85.4668,12.2656 C85.903,12.0052 86.4154,11.875 87.0039,11.875 C87.3997,11.875 87.7689,11.9382 88.1113,12.0645 C88.4538,12.1908 88.7533,12.3802 89.0098,12.6328 C89.2663,12.8854 89.4661,13.2025 89.6094,13.584 C89.7526,13.9655 89.8242,14.4115 89.8242,14.9219 L89.8242,15.3789 L84.7578,15.3789 L84.7578,14.3477 L88.2578,14.3477 C88.2578,14.1081 88.2057,13.8958 88.1016,13.7109 C87.9974,13.526 87.8535,13.3809 87.6699,13.2754 C87.4863,13.1699 87.2734,13.1172 87.0313,13.1172 C86.7786,13.1172 86.5553,13.1751 86.3613,13.291 C86.1673,13.4069 86.0156,13.5618 85.9063,13.7559 C85.7969,13.9499 85.7409,14.1654 85.7383,14.4023 L85.7383,15.3828 C85.7383,15.6797 85.7936,15.9362 85.9043,16.1523 C86.015,16.3685 86.1719,16.5352 86.375,16.6523 C86.5781,16.7695 86.819,16.8281 87.0977,16.8281 C87.2826,16.8281 87.4518,16.8021 87.6055,16.75 C87.7591,16.6979 87.8906,16.6198 88,16.5156 C88.1094,16.4115 88.1927,16.2839 88.25,16.1328 L89.7891,16.2344 C89.7109,16.6042 89.5514,16.9264 89.3105,17.2012 C89.0697,17.4759 88.7598,17.6895 88.3809,17.8418 C88.002,17.9941 87.5651,18.0703 87.0703,18.0703 M94.0898,11.9531 L94.0898,13.2031 L90.4766,13.2031 L90.4766,11.9531 L94.0898,11.9531 M91.2969,10.5156 L92.9609,10.5156 L92.9609,16.1094 C92.9609,16.263 92.9844,16.3822 93.0313,16.4668 C93.0781,16.5514 93.1439,16.6107 93.2285,16.6445 C93.3132,16.6784 93.4115,16.6953 93.5234,16.6953 C93.6016,16.6953 93.6797,16.6882 93.7578,16.6738 C93.8359,16.6595 93.8958,16.6484 93.9375,16.6406 L94.1992,17.8789 C94.1159,17.9049 93.9987,17.9355 93.8477,17.9707 C93.6966,18.0059 93.513,18.0273 93.2969,18.0352 C92.8958,18.0508 92.5449,17.9974 92.2441,17.875 C91.9434,17.7526 91.7096,17.5625 91.543,17.3047 C91.3763,17.0469 91.2943,16.7214 91.2969,16.3281 L91.2969,10.5156 M96.3477,17.9531 L94.7148,11.9531 L96.3984,11.9531 L97.3281,15.9844 L97.3828,15.9844 L98.3516,11.9531 L100.004,11.9531 L100.988,15.9609 L101.039,15.9609 L101.953,11.9531 L103.633,11.9531 L102.004,17.9531 L100.242,17.9531 L99.2109,14.1797 L99.1367,14.1797 L98.1055,17.9531 L96.3477,17.9531 M107.102,18.0703 C106.484,18.0703 105.954,17.9447 105.51,17.6934 C105.066,17.4421 104.724,17.0853 104.484,16.623 C104.245,16.1608 104.125,15.6133 104.125,14.9805 C104.125,14.3633 104.245,13.8216 104.484,13.3555 C104.724,12.8893 105.062,12.526 105.498,12.2656 C105.934,12.0052 106.447,11.875 107.035,11.875 C107.431,11.875 107.8,11.9382 108.143,12.0645 C108.485,12.1908 108.785,12.3802 109.041,12.6328 C109.298,12.8854 109.497,13.2025 109.641,13.584 C109.784,13.9655 109.855,14.4115 109.855,14.9219 L109.855,15.3789 L104.789,15.3789 L104.789,14.3477 L108.289,14.3477 C108.289,14.1081 108.237,13.8958 108.133,13.7109 C108.029,13.526 107.885,13.3809 107.701,13.2754 C107.518,13.1699 107.305,13.1172 107.063,13.1172 C106.81,13.1172 106.587,13.1751 106.393,13.291 C106.199,13.4069 106.047,13.5618 105.938,13.7559 C105.828,13.9499 105.772,14.1654 105.77,14.4023 L105.77,15.3828 C105.77,15.6797 105.825,15.9362 105.936,16.1523 C106.046,16.3685 106.203,16.5352 106.406,16.6523 C106.609,16.7695 106.85,16.8281 107.129,16.8281 C107.314,16.8281 107.483,16.8021 107.637,16.75 C107.79,16.6979 107.922,16.6198 108.031,16.5156 C108.141,16.4115 108.224,16.2839 108.281,16.1328 L109.82,16.2344 C109.742,16.6042 109.583,16.9264 109.342,17.2012 C109.101,17.4759 108.791,17.6895 108.412,17.8418 C108.033,17.9941 107.596,18.0703 107.102,18.0703 M113.664,18.0703 C113.047,18.0703 112.516,17.9447 112.072,17.6934 C111.628,17.4421 111.286,17.0853 111.047,16.623 C110.807,16.1608 110.688,15.6133 110.688,14.9805 C110.688,14.3633 110.807,13.8216 111.047,13.3555 C111.286,12.8893 111.624,12.526 112.061,12.2656 C112.497,12.0052 113.009,11.875 113.598,11.875 C113.993,11.875 114.363,11.9382 114.705,12.0645 C115.048,12.1908 115.347,12.3802 115.604,12.6328 C115.86,12.8854 116.06,13.2025 116.203,13.584 C116.346,13.9655 116.418,14.4115 116.418,14.9219 L116.418,15.3789 L111.352,15.3789 L111.352,14.3477 L114.852,14.3477 C114.852,14.1081 114.799,13.8958 114.695,13.7109 C114.591,13.526 114.447,13.3809 114.264,13.2754 C114.08,13.1699 113.867,13.1172 113.625,13.1172 C113.372,13.1172 113.149,13.1751 112.955,13.291 C112.761,13.4069 112.609,13.5618 112.5,13.7559 C112.391,13.9499 112.335,14.1654 112.332,14.4023 L112.332,15.3828 C112.332,15.6797 112.387,15.9362 112.498,16.1523 C112.609,16.3685 112.766,16.5352 112.969,16.6523 C113.172,16.7695 113.413,16.8281 113.691,16.8281 C113.876,16.8281 114.046,16.8021 114.199,16.75 C114.353,16.6979 114.484,16.6198 114.594,16.5156 C114.703,16.4115 114.786,16.2839 114.844,16.1328 L116.383,16.2344 C116.305,16.6042 116.145,16.9264 115.904,17.2012 C115.663,17.4759 115.354,17.6895 114.975,17.8418 C114.596,17.9941 114.159,18.0703 113.664,18.0703 M119.156,14.4844 L119.156,17.9531 L117.492,17.9531 L117.492,11.9531 L119.078,11.9531 L119.078,13.0117 L119.148,13.0117 C119.281,12.6628 119.504,12.3861 119.816,12.1816 C120.129,11.9772 120.508,11.875 120.953,11.875 C121.37,11.875 121.733,11.9661 122.043,12.1484 C122.353,12.3307 122.594,12.5905 122.766,12.9277 C122.938,13.265 123.023,13.6667 123.023,14.1328 L123.023,17.9531 L121.359,17.9531 L121.359,14.4297 C121.362,14.0625 121.268,13.7754 121.078,13.5684 C120.888,13.3613 120.626,13.2578 120.293,13.2578 C120.069,13.2578 119.872,13.306 119.701,13.4023 C119.531,13.4987 119.398,13.6387 119.303,13.8223 C119.208,14.0059 119.159,14.2266 119.156,14.4844 "/>
</g>

<g fill="#ffffff" fill-opacity="1" stroke="none" transform="matrix(1,0,0,1,0,0)"
font-family="Inter" font-size="11" font-weight="700" font-style="normal" 
>
<path vector-effect="none" fill-rule="nonzero" d="M164.063,18.0195 C163.68,18.0195 163.339,17.9525 163.039,17.8184 C162.74,17.6842 162.503,17.485 162.33,17.2207 C162.157,16.9564 162.07,16.6263 162.07,16.2305 C162.07,15.8971 162.132,15.6172 162.254,15.3906 C162.376,15.1641 162.543,14.9818 162.754,14.8438 C162.965,14.7057 163.205,14.6016 163.475,14.5313 C163.744,14.4609 164.027,14.4115 164.324,14.3828 C164.673,14.3464 164.954,14.3118 165.168,14.2793 C165.382,14.2467 165.536,14.1979 165.633,14.1328 C165.729,14.0677 165.777,13.9714 165.777,13.8438 L165.777,13.8203 C165.777,13.5729 165.7,13.3815 165.545,13.2461 C165.39,13.1107 165.171,13.043 164.887,13.043 C164.587,13.043 164.349,13.1087 164.172,13.2402 C163.995,13.3717 163.878,13.5365 163.82,13.7344 L162.281,13.6094 C162.359,13.2448 162.513,12.929 162.742,12.6621 C162.971,12.3952 163.268,12.1895 163.631,12.0449 C163.994,11.9004 164.415,11.8281 164.895,11.8281 C165.228,11.8281 165.548,11.8672 165.854,11.9453 C166.16,12.0234 166.432,12.1445 166.67,12.3086 C166.908,12.4727 167.096,12.6829 167.234,12.9395 C167.372,13.196 167.441,13.5026 167.441,13.8594 L167.441,17.9063 L165.863,17.9063 L165.863,17.0742 L165.816,17.0742 C165.72,17.2617 165.591,17.4264 165.43,17.5684 C165.268,17.7103 165.074,17.821 164.848,17.9004 C164.621,17.9798 164.359,18.0195 164.063,18.0195 M164.539,16.8711 C164.784,16.8711 165,16.8223 165.188,16.7246 C165.375,16.627 165.522,16.4948 165.629,16.3281 C165.736,16.1615 165.789,15.9727 165.789,15.7617 L165.789,15.125 C165.737,15.1589 165.666,15.1895 165.576,15.2168 C165.486,15.2441 165.385,15.2689 165.273,15.291 C165.161,15.3132 165.049,15.3327 164.938,15.3496 C164.826,15.3665 164.724,15.3815 164.633,15.3945 C164.438,15.4232 164.267,15.4688 164.121,15.5313 C163.975,15.5938 163.862,15.6777 163.781,15.7832 C163.701,15.8887 163.66,16.0195 163.66,16.1758 C163.66,16.4023 163.743,16.5749 163.908,16.6934 C164.074,16.8118 164.284,16.8711 164.539,16.8711 M170.391,14.4375 L170.391,17.9063 L168.727,17.9063 L168.727,11.9063 L170.313,11.9063 L170.313,12.9648 L170.383,12.9648 C170.516,12.6159 170.738,12.3392 171.051,12.1348 C171.363,11.9303 171.742,11.8281 172.188,11.8281 C172.604,11.8281 172.967,11.9193 173.277,12.1016 C173.587,12.2839 173.828,12.5436 174,12.8809 C174.172,13.2181 174.258,13.6198 174.258,14.0859 L174.258,17.9063 L172.594,17.9063 L172.594,14.3828 C172.596,14.0156 172.503,13.7285 172.313,13.5215 C172.122,13.3145 171.861,13.2109 171.527,13.2109 C171.303,13.2109 171.106,13.2591 170.936,13.3555 C170.765,13.4518 170.632,13.5918 170.537,13.7754 C170.442,13.959 170.393,14.1797 170.391,14.4375 M177.766,18.0039 C177.31,18.0039 176.898,17.8861 176.529,17.6504 C176.161,17.4147 175.869,17.0671 175.654,16.6074 C175.439,16.1478 175.332,15.5833 175.332,14.9141 C175.332,14.2266 175.443,13.6543 175.664,13.1973 C175.885,12.7402 176.18,12.3978 176.549,12.1699 C176.917,11.9421 177.322,11.8281 177.762,11.8281 C178.098,11.8281 178.378,11.8848 178.604,11.998 C178.829,12.1113 179.011,12.252 179.15,12.4199 C179.29,12.5879 179.396,12.7526 179.469,12.9141 L179.52,12.9141 L179.52,9.90625 L181.18,9.90625 L181.18,17.9063 L179.539,17.9063 L179.539,16.9453 L179.469,16.9453 C179.391,17.112 179.281,17.2767 179.139,17.4395 C178.997,17.6022 178.813,17.737 178.588,17.8438 C178.363,17.9505 178.089,18.0039 177.766,18.0039 M178.293,16.6797 C178.561,16.6797 178.788,16.6061 178.975,16.459 C179.161,16.3118 179.304,16.1055 179.404,15.8398 C179.505,15.5742 179.555,15.263 179.555,14.9063 C179.555,14.5495 179.505,14.2396 179.406,13.9766 C179.307,13.7135 179.164,13.5104 178.977,13.3672 C178.789,13.224 178.561,13.1523 178.293,13.1523 C178.02,13.1523 177.789,13.2266 177.602,13.375 C177.414,13.5234 177.272,13.7292 177.176,13.9922 C177.079,14.2552 177.031,14.5599 177.031,14.9063 C177.031,15.2552 177.08,15.5632 177.178,15.8301 C177.275,16.097 177.417,16.3053 177.604,16.4551 C177.79,16.6048 178.02,16.6797 178.293,16.6797 "/>
</g>

<g fill="#ffffff" fill-opacity="1" stroke="none" transform="matrix(1,0,0,1,0,0)"
font-family="Inter" font-size="11" font-weight="700" font-style="normal" 
>
<path vector-effect="none" fill-rule="nonzero" d="M221.453,15.5547 L221.453,15.4219 C221.456,14.9661 221.497,14.6029 221.576,14.332 C221.656,14.0612 221.772,13.8424 221.926,13.6758 C222.079,13.5091 222.264,13.3581 222.48,13.2227 C222.642,13.1185 222.786,13.0104 222.914,12.8984 C223.042,12.7865 223.143,12.6621 223.219,12.5254 C223.294,12.3887 223.332,12.2357 223.332,12.0664 C223.332,11.8867 223.289,11.7292 223.203,11.5938 C223.117,11.4583 223.002,11.3542 222.857,11.2813 C222.713,11.2083 222.553,11.1719 222.379,11.1719 C222.21,11.1719 222.049,11.209 221.898,11.2832 C221.747,11.3574 221.624,11.4668 221.527,11.6113 C221.431,11.7559 221.379,11.9349 221.371,12.1484 L219.777,12.1484 C219.79,11.6276 219.915,11.1973 220.152,10.8574 C220.389,10.5176 220.703,10.2637 221.094,10.0957 C221.484,9.92773 221.915,9.84375 222.387,9.84375 C222.905,9.84375 223.363,9.92904 223.762,10.0996 C224.16,10.2702 224.473,10.5169 224.699,10.8398 C224.926,11.1628 225.039,11.5521 225.039,12.0078 C225.039,12.3125 224.989,12.5827 224.889,12.8184 C224.788,13.054 224.648,13.2624 224.469,13.4434 C224.289,13.6243 224.077,13.7878 223.832,13.9336 C223.626,14.056 223.458,14.1836 223.326,14.3164 C223.195,14.4492 223.097,14.6029 223.033,14.7773 C222.969,14.9518 222.936,15.1667 222.934,15.4219 L222.934,15.5547 L221.453,15.5547 M222.227,18.0547 C221.966,18.0547 221.744,17.9629 221.561,17.7793 C221.377,17.5957 221.286,17.375 221.289,17.1172 C221.286,16.862 221.377,16.6432 221.561,16.4609 C221.744,16.2786 221.966,16.1875 222.227,16.1875 C222.474,16.1875 222.691,16.2786 222.879,16.4609 C223.066,16.6432 223.161,16.862 223.164,17.1172 C223.161,17.2891 223.117,17.446 223.029,17.5879 C222.942,17.7298 222.828,17.8431 222.688,17.9277 C222.547,18.0124 222.393,18.0547 222.227,18.0547 "/>
</g>

<g fill="#ffffff" fill-opacity="1" stroke="none" transform="matrix(1,0,0,1,0,0)"
font-family="Inter" font-size="11" font-weight="700" font-style="normal" 
>
</g>

<g fill="#ffffff" fill-opacity="1" stroke="none" transform="matrix(1,0,0,1,0,0)"
font-family="Inter" font-size="11" font-weight="700" font-style="normal" 
>
</g>

<g fill="#ffffff" fill-opacity="1" stroke="#006a2a" stroke-opacity="1" stroke-width="1.2" stroke-linecap="square" stroke-linejoin="bevel" transform="matrix(1,0,0,1,32.5,3)"
font-family="Inter" font-size="11" font-weight="700" font-style="normal" 
>
<path vector-effect="none" fill-rule="evenodd" d="M1,11 C1,5.47715 5.92487,1 12,1 L14.4,1 C20.4751,1 25.4,5.47715 25.4,11 C25.4,16.5228 20.4751,21 14.4,21 L12,21 C5.92487,21 1,16.5228 1,11 "/>
</g>

<g fill="#000000" fill-opacity="1" stroke="none" transform="matrix(1,0,0,1,32.5,3)"
font-family="Inter" font-size="10" font-weight="700" font-style="normal" 
>
<path vector-effect="none" fill-rule="nonzero" d="M12.9411,14.5817 C12.3303,14.5793 11.8053,14.429 11.3661,14.1307 C10.927,13.8324 10.5896,13.4003 10.354,12.8345 C10.1185,12.2687 10.0019,11.5881 10.0043,10.7926 C10.0043,9.99953 10.122,9.32363 10.3576,8.76491 C10.5932,8.2062 10.9305,7.78066 11.3697,7.48828 C11.8088,7.1959 12.3326,7.04972 12.9411,7.04972 C13.5495,7.04972 14.0733,7.1965 14.5124,7.49006 C14.9516,7.78362 15.2895,8.20916 15.5263,8.76669 C15.763,9.32422 15.8802,9.99953 15.8778,10.7926 C15.8778,11.5904 15.7601,12.2723 15.5245,12.8381 C15.2889,13.4039 14.9522,13.8359 14.5142,14.1342 C14.0762,14.4325 13.5518,14.5817 12.9411,14.5817 M12.9411,13.3068 C13.3577,13.3068 13.6903,13.0973 13.9389,12.6783 C14.1875,12.2592 14.3106,11.6307 14.3082,10.7926 C14.3082,10.241 14.252,9.78172 14.1396,9.41477 C14.0271,9.04782 13.8685,8.77202 13.6637,8.58736 C13.4589,8.4027 13.218,8.31037 12.9411,8.31037 C12.5268,8.31037 12.1953,8.51752 11.9467,8.93182 C11.6982,9.34612 11.5727,9.96638 11.5703,10.7926 C11.5703,11.3513 11.6265,11.8171 11.739,12.19 C11.8514,12.5629 12.0107,12.8422 12.2166,13.0281 C12.4226,13.2139 12.6641,13.3068 12.9411,13.3068 "/>
</g>

<g fill="#ffffff" fill-opacity="1" stroke="none" transform="matrix(1,0,0,1,0,0)"
font-family="Inter" font-size="11" font-weight="700" font-style="normal" 
>
</g>

<g fill="#ffffff" fill-opacity="1" stroke="#006a2a" stroke-opacity="1" stroke-width="1.2" stroke-linecap="square" stroke-linejoin="bevel" transform="matrix(1,0,0,1,129.9,3)"
font-family="Inter" font-size="11" font-weight="700" font-style="normal" 
>
<path vector-effect="none" fill-rule="evenodd" d="M1,11 C1,5.47715 5.92487,1 12,1 L14.4,1 C20.4751,1 25.4,5.47715 25.4,11 C25.4,16.5228 20.4751,21 14.4,21 L12,21 C5.92487,21 1,16.5228 1,11 "/>
</g>

<g fill="#000000" fill-opacity="1" stroke="none" transform="matrix(1,0,0,1,129.9,3)"
font-family="Inter" font-size="10" font-weight="700" font-style="normal" 
>
<path vector-effect="none" fill-rule="nonzero" d="M12.9411,14.5817 C12.3303,14.5793 11.8053,14.429 11.3661,14.1307 C10.927,13.8324 10.5896,13.4003 10.354,12.8345 C10.1185,12.2687 10.0019,11.5881 10.0043,10.7926 C10.0043,9.99953 10.122,9.32363 10.3576,8.76491 C10.5932,8.2062 10.9305,7.78066 11.3697,7.48828 C11.8088,7.1959 12.3326,7.04972 12.9411,7.04972 C13.5495,7.04972 14.0733,7.1965 14.5124,7.49006 C14.9516,7.78362 15.2895,8.20916 15.5263,8.76669 C15.763,9.32422 15.8802,9.99953 15.8778,10.7926 C15.8778,11.5904 15.7601,12.2723 15.5245,12.8381 C15.2889,13.4039 14.9522,13.8359 14.5142,14.1342 C14.0762,14.4325 13.5518,14.5817 12.9411,14.5817 M12.9411,13.3068 C13.3577,13.3068 13.6903,13.0973 13.9389,12.6783 C14.1875,12.2592 14.3106,11.6307 14.3082,10.7926 C14.3082,10.241 14.252,9.78172 14.1396,9.41477 C14.0271,9.04782 13.8685,8.77202 13.6637,8.58736 C13.4589,8.4027 13.218,8.31037 12.9411,8.31037 C12.5268,8.31037 12.1953,8.51752 11.9467,8.93182 C11.6982,9.34612 11.5727,9.96638 11.5703,10.7926 C11.5703,11.3513 11.6265,11.8171 11.739,12.19 C11.8514,12.5629 12.0107,12.8422 12.2166,13.0281 C12.4226,13.2139 12.6641,13.3068 12.9411,13.3068 "/>
</g>

<g fill="#ffffff" fill-opacity="1" stroke="none" transform="matrix(1,0,0,1,0,0)"
font-family="Inter" font-size="11" font-weight="700" font-style="normal" 
>
</g>

<g fill="#ffffff" fill-opacity="1" stroke="#006a2a" stroke-opacity="1" stroke-width="1.2" stroke-linecap="square" stroke-linejoin="bevel" transform="matrix(1,0,0,1,187.3,3)"
font-family="Inter" font-size="11" font-weight="700" font-style="normal" 
>
<path vector-effect="none" fill-rule="evenodd" d="M1,11 C1,5.47715 5.92487,1 12,1 L14.4,1 C20.4751,1 25.4,5.47715 25.4,11 C25.4,16.5228 20.4751,21 14.4,21 L12,21 C5.92487,21 1,16.5228 1,11 "/>
</g>

<g fill="#000000" fill-opacity="1" stroke="none" transform="matrix(1,0,0,1,187.3,3)"
font-family="Inter" font-size="10" font-weight="700" font-style="normal" 
>
<path vector-effect="none" fill-rule="nonzero" d="M10.7536,7.14915 L10.7536,14.4219 L9.21591,14.4219 L9.21591,8.60866 L9.1733,8.60866 L7.50781,9.6527 L7.50781,8.28906 L9.30824,7.14915 L10.7536,7.14915 M15.3317,14.5817 C14.7209,14.5793 14.1959,14.429 13.7567,14.1307 C13.3176,13.8324 12.9802,13.4003 12.7447,12.8345 C12.5091,12.2687 12.3925,11.5881 12.3949,10.7926 C12.3949,9.99953 12.5127,9.32363 12.7482,8.76491 C12.9838,8.2062 13.3211,7.78066 13.7603,7.48828 C14.1995,7.1959 14.7232,7.04972 15.3317,7.04972 C15.9401,7.04972 16.4639,7.1965 16.9031,7.49006 C17.3422,7.78362 17.6802,8.20916 17.9169,8.76669 C18.1536,9.32422 18.2708,9.99953 18.2685,10.7926 C18.2685,11.5904 18.1507,12.2723 17.9151,12.8381 C17.6796,13.4039 17.3428,13.8359 16.9048,14.1342 C16.4669,14.4325 15.9425,14.5817 15.3317,14.5817 M15.3317,13.3068 C15.7483,13.3068 16.081,13.0973 16.3295,12.6783 C16.5781,12.2592 16.7012,11.6307 16.6989,10.7926 C16.6989,10.241 16.6426,9.78172 16.5302,9.41477 C16.4177,9.04782 16.2591,8.77202 16.0543,8.58736 C15.8496,8.4027 15.6087,8.31037 15.3317,8.31037 C14.9174,8.31037 14.5859,8.51752 14.3374,8.93182 C14.0888,9.34612 13.9633,9.96638 13.9609,10.7926 C13.9609,11.3513 14.0172,11.8171 14.1296,12.19 C14.2421,12.5629 14.4013,12.8422 14.6072,13.0281 C14.8132,13.2139 15.0547,13.3068 15.3317,13.3068 "/>
</g>

<g fill="#ffffff" fill-opacity="1" stroke="none" transform="matrix(1,0,0,1,0,0)"
font-family="Inter" font-size="11" font-weight="700" font-style="normal" 
>
</g>

<g fill="#ffffff" fill-opacity="1" stroke="none" transform="matrix(1,0,0,1,0,0)"
font-family="Inter" font-size="11" font-weight="700" font-style="normal" 
>
</g>

<g fill="#ffffff" fill-opacity="1" stroke="none" transform="matrix(1,0,0,1,0,0)"
font-family="Inter" font-size="11" font-weight="700" font-style="normal" 
>
</g>

<g fill="none" stroke="#000000" stroke-opacity="1" stroke-width="1" stroke-linecap="square" stroke-linejoin="bevel" transform="matrix(1,0,0,1,0,0)"
font-family=".AppleSystemUIFont" font-size="13" font-weight="400" font-style="normal" 
>
</g>
</g>
</svg>
