<?xml version="1.0" encoding="UTF-8" standalone="no"?>
<svg width="88.5472mm" height="11.2889mm"
 viewBox="0 0 251 32"
 xmlns="http://www.w3.org/2000/svg" xmlns:xlink="http://www.w3.org/1999/xlink" version="1.2" baseProfile="tiny">
<title>Abstract block</title>
<desc>block_dashboard_controller_switch_value_boolean</desc>
<defs>
</defs>
<g fill="none" stroke="black" stroke-width="1" fill-rule="evenodd" stroke-linecap="square" stroke-linejoin="bevel" >

<g fill="none" stroke="#000000" stroke-opacity="1" stroke-width="1" stroke-linecap="square" stroke-linejoin="bevel" transform="matrix(1,0,0,1,0,0)"
font-family=".AppleSystemUIFont" font-size="13" font-weight="400" font-style="normal" 
>
</g>

<g fill="none" stroke="#000000" stroke-opacity="1" stroke-width="1" stroke-linecap="square" stroke-linejoin="bevel" transform="matrix(1,0,0,1,0,0)"
font-family=".AppleSystemUIFont" font-size="13" font-weight="400" font-style="normal" 
>
</g>

<g fill="#009f94" fill-opacity="1" stroke="#00645c" stroke-opacity="1" stroke-width="1.2" stroke-linecap="square" stroke-linejoin="bevel" transform="matrix(1,0,0,1,0,0)"
font-family=".AppleSystemUIFont" font-size="13" font-weight="400" font-style="normal" 
>
<path vector-effect="none" fill-rule="evenodd" d="M0,16 L16,0 L234.667,0 L250.667,16 L234.667,32 L16,32 L0,16"/>
</g>

<g fill="#ffffff" fill-opacity="1" stroke="none" transform="matrix(1,0,0,1,0,0)"
font-family="Inter" font-size="11" font-weight="700" font-style="normal" 
>
<path vector-effect="none" fill-rule="nonzero" d="M52.0859,19.9531 L52.0859,13.9531 L53.75,13.9531 L53.75,19.9531 L52.0859,19.9531 M52.9219,13.1797 C52.6745,13.1797 52.4629,13.097 52.2871,12.9316 C52.1113,12.7663 52.0234,12.5677 52.0234,12.3359 C52.0234,12.1068 52.1113,11.9095 52.2871,11.7441 C52.4629,11.5788 52.6745,11.4961 52.9219,11.4961 C53.1693,11.4961 53.3809,11.5788 53.5566,11.7441 C53.7324,11.9095 53.8203,12.1068 53.8203,12.3359 C53.8203,12.5677 53.7324,12.7663 53.5566,12.9316 C53.3809,13.097 53.1693,13.1797 52.9219,13.1797 M60.0625,15.6641 L58.5391,15.7578 C58.513,15.6276 58.457,15.5098 58.3711,15.4043 C58.2852,15.2988 58.1725,15.2142 58.0332,15.1504 C57.8939,15.0866 57.7279,15.0547 57.5352,15.0547 C57.2773,15.0547 57.0599,15.1087 56.8828,15.2168 C56.7057,15.3249 56.6172,15.4688 56.6172,15.6484 C56.6172,15.7917 56.6745,15.9128 56.7891,16.0117 C56.9036,16.1107 57.1003,16.1901 57.3789,16.25 L58.4648,16.4688 C59.0482,16.5885 59.4831,16.7813 59.7695,17.0469 C60.056,17.3125 60.1992,17.6615 60.1992,18.0938 C60.1992,18.487 60.084,18.832 59.8535,19.1289 C59.623,19.4258 59.3079,19.6569 58.9082,19.8223 C58.5085,19.9876 58.0482,20.0703 57.5273,20.0703 C56.7331,20.0703 56.1009,19.9043 55.6309,19.5723 C55.1608,19.2402 54.8854,18.7878 54.8047,18.2148 L56.4414,18.1289 C56.4909,18.3711 56.6107,18.5553 56.8008,18.6816 C56.9909,18.8079 57.2344,18.8711 57.5313,18.8711 C57.8229,18.8711 58.0579,18.8145 58.2363,18.7012 C58.4147,18.5879 58.5052,18.4414 58.5078,18.2617 C58.5052,18.1107 58.4414,17.9863 58.3164,17.8887 C58.1914,17.791 57.9987,17.7161 57.7383,17.6641 L56.6992,17.457 C56.1133,17.3398 55.6777,17.1367 55.3926,16.8477 C55.1074,16.5586 54.9648,16.1901 54.9648,15.7422 C54.9648,15.3568 55.0697,15.0247 55.2793,14.7461 C55.4889,14.4674 55.7845,14.2526 56.166,14.1016 C56.5475,13.9505 56.9948,13.875 57.5078,13.875 C58.2656,13.875 58.8626,14.0352 59.2988,14.3555 C59.735,14.6758 59.9896,15.112 60.0625,15.6641 M68.7813,15.6641 L67.2578,15.7578 C67.2318,15.6276 67.1758,15.5098 67.0898,15.4043 C67.0039,15.2988 66.8913,15.2142 66.752,15.1504 C66.6126,15.0866 66.4466,15.0547 66.2539,15.0547 C65.9961,15.0547 65.7786,15.1087 65.6016,15.2168 C65.4245,15.3249 65.3359,15.4688 65.3359,15.6484 C65.3359,15.7917 65.3932,15.9128 65.5078,16.0117 C65.6224,16.1107 65.819,16.1901 66.0977,16.25 L67.1836,16.4688 C67.7669,16.5885 68.2018,16.7813 68.4883,17.0469 C68.7747,17.3125 68.918,17.6615 68.918,18.0938 C68.918,18.487 68.8027,18.832 68.5723,19.1289 C68.3418,19.4258 68.0267,19.6569 67.627,19.8223 C67.2272,19.9876 66.7669,20.0703 66.2461,20.0703 C65.4518,20.0703 64.8197,19.9043 64.3496,19.5723 C63.8796,19.2402 63.6042,18.7878 63.5234,18.2148 L65.1602,18.1289 C65.2096,18.3711 65.3294,18.5553 65.5195,18.6816 C65.7096,18.8079 65.9531,18.8711 66.25,18.8711 C66.5417,18.8711 66.7767,18.8145 66.9551,18.7012 C67.1335,18.5879 67.224,18.4414 67.2266,18.2617 C67.224,18.1107 67.1602,17.9863 67.0352,17.8887 C66.9102,17.791 66.7174,17.7161 66.457,17.6641 L65.418,17.457 C64.832,17.3398 64.3965,17.1367 64.1113,16.8477 C63.8262,16.5586 63.6836,16.1901 63.6836,15.7422 C63.6836,15.3568 63.7884,15.0247 63.998,14.7461 C64.2077,14.4674 64.5033,14.2526 64.8848,14.1016 C65.2663,13.9505 65.7135,13.875 66.2266,13.875 C66.9844,13.875 67.5814,14.0352 68.0176,14.3555 C68.4538,14.6758 68.7083,15.112 68.7813,15.6641 M71.1445,19.9531 L69.5117,13.9531 L71.1953,13.9531 L72.125,17.9844 L72.1797,17.9844 L73.1484,13.9531 L74.8008,13.9531 L75.7852,17.9609 L75.8359,17.9609 L76.75,13.9531 L78.4297,13.9531 L76.8008,19.9531 L75.0391,19.9531 L74.0078,16.1797 L73.9336,16.1797 L72.9023,19.9531 L71.1445,19.9531 M79.3047,19.9531 L79.3047,13.9531 L80.9688,13.9531 L80.9688,19.9531 L79.3047,19.9531 M80.1406,13.1797 C79.8932,13.1797 79.6816,13.097 79.5059,12.9316 C79.3301,12.7663 79.2422,12.5677 79.2422,12.3359 C79.2422,12.1068 79.3301,11.9095 79.5059,11.7441 C79.6816,11.5788 79.8932,11.4961 80.1406,11.4961 C80.388,11.4961 80.5996,11.5788 80.7754,11.7441 C80.9512,11.9095 81.0391,12.1068 81.0391,12.3359 C81.0391,12.5677 80.9512,12.7663 80.7754,12.9316 C80.5996,13.097 80.388,13.1797 80.1406,13.1797 M85.4805,13.9531 L85.4805,15.2031 L81.8672,15.2031 L81.8672,13.9531 L85.4805,13.9531 M82.6875,12.5156 L84.3516,12.5156 L84.3516,18.1094 C84.3516,18.263 84.375,18.3822 84.4219,18.4668 C84.4688,18.5514 84.5345,18.6107 84.6191,18.6445 C84.7038,18.6784 84.8021,18.6953 84.9141,18.6953 C84.9922,18.6953 85.0703,18.6882 85.1484,18.6738 C85.2266,18.6595 85.2865,18.6484 85.3281,18.6406 L85.5898,19.8789 C85.5065,19.9049 85.3893,19.9355 85.2383,19.9707 C85.0872,20.0059 84.9036,20.0273 84.6875,20.0352 C84.2865,20.0508 83.9355,19.9974 83.6348,19.875 C83.334,19.7526 83.1003,19.5625 82.9336,19.3047 C82.7669,19.0469 82.6849,18.7214 82.6875,18.3281 L82.6875,12.5156 M89.2031,20.0703 C88.5885,20.0703 88.0605,19.9395 87.6191,19.6777 C87.1777,19.416 86.8392,19.0521 86.6035,18.5859 C86.3678,18.1198 86.25,17.5833 86.25,16.9766 C86.25,16.362 86.3691,15.8223 86.6074,15.3574 C86.8457,14.8926 87.1849,14.5293 87.625,14.2676 C88.0651,14.0059 88.5885,13.875 89.1953,13.875 C89.7188,13.875 90.1771,13.9701 90.5703,14.1602 C90.9635,14.3503 91.2747,14.6172 91.5039,14.9609 C91.7331,15.3047 91.8594,15.7083 91.8828,16.1719 L90.3125,16.1719 C90.2682,15.8724 90.1517,15.6309 89.9629,15.4473 C89.7741,15.2637 89.5273,15.1719 89.2227,15.1719 C88.9648,15.1719 88.7402,15.2415 88.5488,15.3809 C88.3574,15.5202 88.2083,15.7227 88.1016,15.9883 C87.9948,16.2539 87.9414,16.5755 87.9414,16.9531 C87.9414,17.3359 87.9941,17.6615 88.0996,17.9297 C88.2051,18.1979 88.3542,18.4023 88.5469,18.543 C88.7396,18.6836 88.9648,18.7539 89.2227,18.7539 C89.4128,18.7539 89.584,18.7148 89.7363,18.6367 C89.8887,18.5586 90.015,18.4447 90.1152,18.2949 C90.2155,18.1452 90.2813,17.9648 90.3125,17.7539 L91.8828,17.7539 C91.8568,18.2122 91.7324,18.6152 91.5098,18.9629 C91.2871,19.3105 90.9805,19.582 90.5898,19.7773 C90.1992,19.9727 89.737,20.0703 89.2031,20.0703 M94.6094,16.4844 L94.6094,19.9531 L92.9453,19.9531 L92.9453,11.9531 L94.5625,11.9531 L94.5625,15.0117 L94.6328,15.0117 C94.7682,14.6576 94.987,14.3796 95.2891,14.1777 C95.5911,13.9759 95.9701,13.875 96.4258,13.875 C96.8424,13.875 97.2064,13.9655 97.5176,14.1465 C97.8288,14.3275 98.071,14.5866 98.2441,14.9238 C98.4173,15.2611 98.5026,15.6641 98.5,16.1328 L98.5,19.9531 L96.8359,19.9531 L96.8359,16.4297 C96.8385,16.0599 96.7454,15.7721 96.5566,15.5664 C96.3678,15.3607 96.1042,15.2578 95.7656,15.2578 C95.5391,15.2578 95.3392,15.306 95.166,15.4023 C94.9928,15.4987 94.8574,15.6387 94.7598,15.8223 C94.6621,16.0059 94.612,16.2266 94.6094,16.4844 "/>
</g>

<g fill="#ffffff" fill-opacity="1" stroke="none" transform="matrix(1,0,0,1,0,0)"
font-family="Inter" font-size="11" font-weight="700" font-style="normal" 
>
<path vector-effect="none" fill-rule="nonzero" d="M233.766,17.5547 L233.766,17.4219 C233.768,16.9661 233.809,16.6029 233.889,16.332 C233.968,16.0612 234.085,15.8424 234.238,15.6758 C234.392,15.5091 234.577,15.3581 234.793,15.2227 C234.954,15.1185 235.099,15.0104 235.227,14.8984 C235.354,14.7865 235.456,14.6621 235.531,14.5254 C235.607,14.3887 235.645,14.2357 235.645,14.0664 C235.645,13.8867 235.602,13.7292 235.516,13.5938 C235.43,13.4583 235.314,13.3542 235.17,13.2813 C235.025,13.2083 234.866,13.1719 234.691,13.1719 C234.522,13.1719 234.362,13.209 234.211,13.2832 C234.06,13.3574 233.936,13.4668 233.84,13.6113 C233.743,13.7559 233.691,13.9349 233.684,14.1484 L232.09,14.1484 C232.103,13.6276 232.228,13.1973 232.465,12.8574 C232.702,12.5176 233.016,12.2637 233.406,12.0957 C233.797,11.9277 234.228,11.8438 234.699,11.8438 C235.217,11.8438 235.676,11.929 236.074,12.0996 C236.473,12.2702 236.785,12.5169 237.012,12.8398 C237.238,13.1628 237.352,13.5521 237.352,14.0078 C237.352,14.3125 237.301,14.5827 237.201,14.8184 C237.101,15.054 236.961,15.2624 236.781,15.4434 C236.602,15.6243 236.389,15.7878 236.145,15.9336 C235.939,16.056 235.77,16.1836 235.639,16.3164 C235.507,16.4492 235.41,16.6029 235.346,16.7773 C235.282,16.9518 235.249,17.1667 235.246,17.4219 L235.246,17.5547 L233.766,17.5547 M234.539,20.0547 C234.279,20.0547 234.057,19.9629 233.873,19.7793 C233.689,19.5957 233.599,19.375 233.602,19.1172 C233.599,18.862 233.689,18.6432 233.873,18.4609 C234.057,18.2786 234.279,18.1875 234.539,18.1875 C234.786,18.1875 235.004,18.2786 235.191,18.4609 C235.379,18.6432 235.474,18.862 235.477,19.1172 C235.474,19.2891 235.429,19.446 235.342,19.5879 C235.255,19.7298 235.141,19.8431 235,19.9277 C234.859,20.0124 234.706,20.0547 234.539,20.0547 "/>
</g>

<g fill="#ffffff" fill-opacity="1" stroke="none" transform="matrix(0.95,0,0,0.95,11.6,4.6)"
font-family="Inter" font-size="11" font-weight="700" font-style="normal" 
>
<path vector-effect="none" fill-rule="nonzero" d="M2.19896,4.65234 C1.18891,4.65234 0.375703,5.46549 0.375703,6.47555 L0.375703,8.579 C1.00152,8.60331 1.67842,9.11362 1.67842,9.74561 L1.67842,14.2544 C1.67842,14.8864 1.00152,15.3967 0.375703,15.421 L0.375703,17.5245 C0.375703,18.5345 1.18891,19.3477 2.19896,19.3477 L21.8479,19.3477 C22.858,19.3477 23.6711,18.5345 23.6711,17.5245 L23.6711,6.47555 C23.6711,5.46549 22.858,4.65234 21.8479,4.65234 L2.19896,4.65234 M6.71936,9.23098 C8.56166,9.23097 10.0552,10.7245 10.0552,12.5668 C10.0552,14.4091 8.56167,15.9026 6.71936,15.9026 C4.87705,15.9026 3.38355,14.4091 3.38355,12.5668 C3.38355,10.7245 4.87705,9.23097 6.71936,9.23098 M19.875,9.24873 C20.7082,9.24871 21.3837,9.92418 21.3837,10.7574 C21.3837,11.5906 20.7082,12.266 19.875,12.266 C19.0418,12.266 18.3664,11.5906 18.3664,10.7574 C18.3664,9.9242 19.0418,9.24874 19.875,9.24873 M17.4318,12.8825 C18.265,12.8825 18.9404,13.558 18.9404,14.3912 C18.9404,15.2243 18.2649,15.8998 17.4318,15.8998 C16.5986,15.8998 15.9231,15.2244 15.9231,14.3912 C15.9231,13.5579 16.5985,12.8825 17.4318,12.8825 "/>
</g>

<g fill="none" stroke="#000000" stroke-opacity="1" stroke-width="0.54" stroke-linecap="butt" stroke-linejoin="miter" stroke-miterlimit="4" transform="matrix(0.95,0,0,0.95,11.6,4.6)"
font-family="Inter" font-size="11" font-weight="700" font-style="normal" 
>
<path vector-effect="none" fill-rule="nonzero" d="M2.19896,4.65234 C1.18891,4.65234 0.375703,5.46549 0.375703,6.47555 L0.375703,8.579 C1.00152,8.60331 1.67842,9.11362 1.67842,9.74561 L1.67842,14.2544 C1.67842,14.8864 1.00152,15.3967 0.375703,15.421 L0.375703,17.5245 C0.375703,18.5345 1.18891,19.3477 2.19896,19.3477 L21.8479,19.3477 C22.858,19.3477 23.6711,18.5345 23.6711,17.5245 L23.6711,6.47555 C23.6711,5.46549 22.858,4.65234 21.8479,4.65234 L2.19896,4.65234 M6.71936,9.23098 C8.56166,9.23097 10.0552,10.7245 10.0552,12.5668 C10.0552,14.4091 8.56167,15.9026 6.71936,15.9026 C4.87705,15.9026 3.38355,14.4091 3.38355,12.5668 C3.38355,10.7245 4.87705,9.23097 6.71936,9.23098 M19.875,9.24873 C20.7082,9.24871 21.3837,9.92418 21.3837,10.7574 C21.3837,11.5906 20.7082,12.266 19.875,12.266 C19.0418,12.266 18.3664,11.5906 18.3664,10.7574 C18.3664,9.9242 19.0418,9.24874 19.875,9.24873 M17.4318,12.8825 C18.265,12.8825 18.9404,13.558 18.9404,14.3912 C18.9404,15.2243 18.2649,15.8998 17.4318,15.8998 C16.5986,15.8998 15.9231,15.2244 15.9231,14.3912 C15.9231,13.5579 16.5985,12.8825 17.4318,12.8825 "/>
</g>

<g fill="#000000" fill-opacity="1" stroke="none" transform="matrix(0.95,0,0,0.95,11.6,4.6)"
font-family="Inter" font-size="11" font-weight="700" font-style="normal" 
>
<path vector-effect="none" fill-rule="nonzero" d="M0.108328,15.3227 L0.103298,8.65983 L1.21825,8.7259 L1.75102,9.37791 L1.70662,12.9064 L1.66222,14.5556 L1.04066,15.0542 L0.108328,15.3227"/>
</g>

<g fill="#000000" fill-opacity="1" stroke="none" transform="matrix(0.95,0,0,0.95,11.6,4.6)"
font-family="Inter" font-size="11" font-weight="700" font-style="normal" 
>
<circle cx="6.70111" cy="12.5452" r="1.68266"/>
</g>

<g fill="none" stroke="#000000" stroke-opacity="1" stroke-width="0.54" stroke-linecap="butt" stroke-linejoin="miter" stroke-miterlimit="4" transform="matrix(0.95,0,0,0.95,11.6,4.6)"
font-family="Inter" font-size="11" font-weight="700" font-style="normal" 
>
<circle cx="6.70111" cy="12.5452" r="1.68266"/>
</g>

<g fill="#000000" fill-opacity="1" stroke="none" transform="matrix(0.95,0,0,0.95,11.6,4.6)"
font-family="Inter" font-size="11" font-weight="700" font-style="normal" 
opacity="0.858824" >
<path vector-effect="none" fill-rule="evenodd" d="M8.42109,18.1373 C8.42109,18.0846 8.46385,18.0418 8.51661,18.0418 L15.4834,18.0418 C15.5361,18.0418 15.5789,18.0846 15.5789,18.1373 L15.5789,18.1373 C15.5789,18.1901 15.5361,18.2329 15.4834,18.2329 L8.51661,18.2329 C8.46385,18.2329 8.42109,18.1901 8.42109,18.1373 L8.42109,18.1373"/>
</g>

<g fill="none" stroke="#000000" stroke-opacity="1" stroke-width="0.437534" stroke-linecap="butt" stroke-linejoin="miter" stroke-miterlimit="4" transform="matrix(0.95,0,0,0.95,11.6,4.6)"
font-family="Inter" font-size="11" font-weight="700" font-style="normal" 
>
<path vector-effect="none" fill-rule="evenodd" d="M8.42109,18.1373 C8.42109,18.0846 8.46385,18.0418 8.51661,18.0418 L15.4834,18.0418 C15.5361,18.0418 15.5789,18.0846 15.5789,18.1373 L15.5789,18.1373 C15.5789,18.1901 15.5361,18.2329 15.4834,18.2329 L8.51661,18.2329 C8.46385,18.2329 8.42109,18.1901 8.42109,18.1373 L8.42109,18.1373"/>
</g>

<g fill="#ffffff" fill-opacity="1" stroke="none" transform="matrix(1,0,0,1,0,0)"
font-family="Inter" font-size="11" font-weight="700" font-style="normal" 
>
</g>

<g fill="#ffffff" fill-opacity="1" stroke="#00645c" stroke-opacity="1" stroke-width="1" stroke-linecap="square" stroke-linejoin="bevel" transform="matrix(1,0,0,1,0,0)"
font-family="Inter" font-size="11" font-weight="700" font-style="normal" 
>
<polyline fill="none" vector-effect="none" points="45,6 45,26 " />
</g>

<g fill="#009f94" fill-opacity="1" stroke="#00645c" stroke-opacity="1" stroke-width="1.2" stroke-linecap="square" stroke-linejoin="bevel" transform="matrix(1,0,0,1,105,4)"
font-family="Inter" font-size="11" font-weight="700" font-style="normal" 
>
<path vector-effect="none" fill-rule="evenodd" d="M0.5,3.5 C0.5,1.84315 1.84315,0.5 3.5,0.5 L67.5,0.5 C69.1569,0.5 70.5,1.84315 70.5,3.5 L70.5,20.5 C70.5,22.1569 69.1569,23.5 67.5,23.5 L3.5,23.5 C1.84315,23.5 0.5,22.1569 0.5,20.5 L0.5,3.5"/>
</g>

<g fill="#ffffff" fill-opacity="1" stroke="none" transform="matrix(1,0,0,1,105,4)"
font-family="Inter" font-size="11" font-weight="700" font-style="normal" 
>
<path vector-effect="none" fill-rule="nonzero" d="M14.5977,10.2383 C14.5664,9.92318 14.4323,9.67839 14.1953,9.50391 C13.9583,9.32943 13.6367,9.24219 13.2305,9.24219 C12.9544,9.24219 12.7214,9.2806 12.5313,9.35742 C12.3411,9.43424 12.196,9.54036 12.0957,9.67578 C11.9954,9.8112 11.9453,9.96484 11.9453,10.1367 C11.9401,10.2799 11.9707,10.4049 12.0371,10.5117 C12.1035,10.6185 12.1953,10.7103 12.3125,10.7871 C12.4297,10.8639 12.5651,10.9303 12.7188,10.9863 C12.8724,11.0423 13.0365,11.0898 13.2109,11.1289 L13.9297,11.3008 C14.2786,11.3789 14.599,11.4831 14.8906,11.6133 C15.1823,11.7435 15.4349,11.9036 15.6484,12.0938 C15.862,12.2839 16.028,12.5078 16.1465,12.7656 C16.265,13.0234 16.3255,13.319 16.3281,13.6523 C16.3255,14.1419 16.2012,14.5658 15.9551,14.9238 C15.709,15.2819 15.3548,15.5592 14.8926,15.7559 C14.4303,15.9525 13.8737,16.0508 13.2227,16.0508 C12.5768,16.0508 12.015,15.9518 11.5371,15.7539 C11.0592,15.556 10.6868,15.2624 10.4199,14.873 C10.153,14.4837 10.013,14.0013 10,13.4258 L11.6367,13.4258 C11.6549,13.694 11.7324,13.9173 11.8691,14.0957 C12.0059,14.2741 12.1895,14.4082 12.4199,14.498 C12.6504,14.5879 12.9115,14.6328 13.2031,14.6328 C13.4896,14.6328 13.7389,14.5911 13.9512,14.5078 C14.1634,14.4245 14.3281,14.3086 14.4453,14.1602 C14.5625,14.0117 14.6211,13.8411 14.6211,13.6484 C14.6211,13.4688 14.5684,13.3177 14.4629,13.1953 C14.3574,13.0729 14.2038,12.9688 14.002,12.8828 C13.8001,12.7969 13.5534,12.7188 13.2617,12.6484 L12.3906,12.4297 C11.7161,12.2656 11.1836,12.0091 10.793,11.6602 C10.4023,11.3112 10.2083,10.8411 10.2109,10.25 C10.2083,9.76563 10.3379,9.34245 10.5996,8.98047 C10.8613,8.61849 11.2214,8.33594 11.6797,8.13281 C12.138,7.92969 12.6589,7.82813 13.2422,7.82813 C13.8359,7.82813 14.3548,7.92969 14.7988,8.13281 C15.2428,8.33594 15.5885,8.61849 15.8359,8.98047 C16.0833,9.34245 16.2109,9.76172 16.2188,10.2383 L14.5977,10.2383 M19.2617,15.9375 L16.9727,7.9375 L18.8203,7.9375 L20.1445,13.4961 L20.2109,13.4961 L21.6719,7.9375 L23.2539,7.9375 L24.7109,13.5078 L24.7813,13.5078 L26.1055,7.9375 L27.9531,7.9375 L25.6641,15.9375 L24.0156,15.9375 L22.4922,10.707 L22.4297,10.707 L20.9102,15.9375 L19.2617,15.9375 M35.457,10.7383 L33.7461,10.7383 C33.7148,10.5169 33.651,10.3197 33.5547,10.1465 C33.4583,9.97331 33.3346,9.82552 33.1836,9.70313 C33.0326,9.58073 32.8587,9.48698 32.6621,9.42188 C32.4655,9.35677 32.2526,9.32422 32.0234,9.32422 C31.6094,9.32422 31.2487,9.42643 30.9414,9.63086 C30.6341,9.83529 30.3958,10.1322 30.2266,10.5215 C30.0573,10.9108 29.9727,11.3828 29.9727,11.9375 C29.9727,12.5078 30.0579,12.987 30.2285,13.375 C30.3991,13.763 30.638,14.056 30.9453,14.2539 C31.2526,14.4518 31.6081,14.5508 32.0117,14.5508 C32.2383,14.5508 32.4486,14.5208 32.6426,14.4609 C32.8366,14.401 33.0091,14.3132 33.1602,14.1973 C33.3112,14.0814 33.4368,13.9401 33.5371,13.7734 C33.6374,13.6068 33.707,13.4167 33.7461,13.2031 L35.457,13.2109 C35.4128,13.5781 35.3027,13.9316 35.127,14.2715 C34.9512,14.6113 34.7155,14.9147 34.4199,15.1816 C34.1243,15.4486 33.7728,15.6595 33.3652,15.8145 C32.9577,15.9694 32.4974,16.0469 31.9844,16.0469 C31.2708,16.0469 30.6335,15.8854 30.0723,15.5625 C29.5111,15.2396 29.0684,14.7721 28.7441,14.1602 C28.4199,13.5482 28.2578,12.8073 28.2578,11.9375 C28.2578,11.0651 28.4219,10.3229 28.75,9.71094 C29.0781,9.09896 29.5234,8.63216 30.0859,8.31055 C30.6484,7.98893 31.2813,7.82813 31.9844,7.82813 C32.4479,7.82813 32.8783,7.89323 33.2754,8.02344 C33.6725,8.15365 34.0247,8.3431 34.332,8.5918 C34.6393,8.84049 34.89,9.14453 35.084,9.50391 C35.278,9.86328 35.4023,10.2747 35.457,10.7383 M36.6641,15.9375 L36.6641,7.9375 L38.3555,7.9375 L38.3555,11.2383 L41.7891,11.2383 L41.7891,7.9375 L43.4766,7.9375 L43.4766,15.9375 L41.7891,15.9375 L41.7891,12.6328 L38.3555,12.6328 L38.3555,15.9375 L36.6641,15.9375 M48.3008,7.9375 L48.3008,15.9375 L46.6094,15.9375 L46.6094,9.54297 L46.5625,9.54297 L44.7305,10.6914 L44.7305,9.19141 L46.7109,7.9375 L48.3008,7.9375"/>
</g>

<g fill="#ffffff" fill-opacity="1" stroke="none" transform="matrix(0.03125,0,0,0.03125,162,12)"
font-family="Inter" font-size="11" font-weight="700" font-style="normal" 
>
<path vector-effect="none" fill-rule="nonzero" d="M111.326,191.938 C120.545,201.158 135.517,201.158 144.737,191.938 L239.144,97.5313 C245.929,90.7458 247.921,80.6413 244.233,71.7907 C240.545,62.9401 231.989,57.1871 222.401,57.1871 L33.5875,57.2608 C24.0731,57.2608 15.4437,63.0137 11.7559,71.8644 C8.06815,80.715 10.1333,90.8195 16.845,97.605 L111.252,192.012 L111.326,191.938"/>
</g>

<g fill="none" stroke="#000000" stroke-opacity="1" stroke-width="13.7195" stroke-linecap="butt" stroke-linejoin="miter" stroke-miterlimit="4" transform="matrix(0.03125,0,0,0.03125,162,12)"
font-family="Inter" font-size="11" font-weight="700" font-style="normal" 
>
<path vector-effect="none" fill-rule="nonzero" d="M111.326,191.938 C120.545,201.158 135.517,201.158 144.737,191.938 L239.144,97.5313 C245.929,90.7458 247.921,80.6413 244.233,71.7907 C240.545,62.9401 231.989,57.1871 222.401,57.1871 L33.5875,57.2608 C24.0731,57.2608 15.4437,63.0137 11.7559,71.8644 C8.06815,80.715 10.1333,90.8195 16.845,97.605 L111.252,192.012 L111.326,191.938"/>
</g>

<g fill="#ffffff" fill-opacity="1" stroke="none" transform="matrix(1,0,0,1,105,4)"
font-family="Inter" font-size="11" font-weight="700" font-style="normal" 
>
</g>

<g fill="#ffffff" fill-opacity="1" stroke="#00645c" stroke-opacity="1" stroke-width="1" stroke-linecap="square" stroke-linejoin="bevel" transform="matrix(1,0,0,1,0,0)"
font-family="Inter" font-size="11" font-weight="700" font-style="normal" 
>
</g>

<g fill="#009f94" fill-opacity="1" stroke="#00645c" stroke-opacity="1" stroke-width="1.2" stroke-linecap="square" stroke-linejoin="bevel" transform="matrix(1,0,0,1,180,4)"
font-family="Inter" font-size="11" font-weight="700" font-style="normal" 
>
<path vector-effect="none" fill-rule="evenodd" d="M0.5,3.5 C0.5,1.84315 1.84315,0.5 3.5,0.5 L42.5,0.5 C44.1569,0.5 45.5,1.84315 45.5,3.5 L45.5,20.5 C45.5,22.1569 44.1569,23.5 42.5,23.5 L3.5,23.5 C1.84315,23.5 0.5,22.1569 0.5,20.5 L0.5,3.5"/>
</g>

<g fill="#ffffff" fill-opacity="1" stroke="none" transform="matrix(1,0,0,1,180,4)"
font-family="Inter" font-size="11" font-weight="700" font-style="normal" 
>
<path vector-effect="none" fill-rule="nonzero" d="M13.9531,15.0547 C13.3464,15.0547 12.8223,14.9251 12.3809,14.666 C11.9395,14.4069 11.599,14.0449 11.3594,13.5801 C11.1198,13.1152 11,12.5755 11,11.9609 C11,11.3411 11.1198,10.7988 11.3594,10.334 C11.599,9.86914 11.9395,9.50716 12.3809,9.24805 C12.8223,8.98893 13.3464,8.85938 13.9531,8.85938 C14.5599,8.85938 15.084,8.98893 15.5254,9.24805 C15.9668,9.50716 16.3073,9.86914 16.5469,10.334 C16.7865,10.7988 16.9063,11.3411 16.9063,11.9609 C16.9063,12.5755 16.7865,13.1152 16.5469,13.5801 C16.3073,14.0449 15.9668,14.4069 15.5254,14.666 C15.084,14.9251 14.5599,15.0547 13.9531,15.0547 M13.9609,13.7656 C14.237,13.7656 14.4674,13.6868 14.6523,13.5293 C14.8372,13.3717 14.9772,13.1563 15.0723,12.8828 C15.1673,12.6094 15.2148,12.2982 15.2148,11.9492 C15.2148,11.6003 15.1673,11.2891 15.0723,11.0156 C14.9772,10.7422 14.8372,10.526 14.6523,10.3672 C14.4674,10.2083 14.237,10.1289 13.9609,10.1289 C13.6823,10.1289 13.4486,10.2083 13.2598,10.3672 C13.071,10.526 12.929,10.7422 12.834,11.0156 C12.7389,11.2891 12.6914,11.6003 12.6914,11.9492 C12.6914,12.2982 12.7389,12.6094 12.834,12.8828 C12.929,13.1563 13.071,13.3717 13.2598,13.5293 C13.4486,13.6868 13.6823,13.7656 13.9609,13.7656 M19.6563,11.4688 L19.6563,14.9375 L17.9922,14.9375 L17.9922,8.9375 L19.5781,8.9375 L19.5781,9.99609 L19.6484,9.99609 C19.7813,9.64714 20.0039,9.37044 20.3164,9.16602 C20.6289,8.96159 21.0078,8.85938 21.4531,8.85938 C21.8698,8.85938 22.2331,8.95052 22.543,9.13281 C22.8529,9.3151 23.0938,9.57487 23.2656,9.91211 C23.4375,10.2493 23.5234,10.651 23.5234,11.1172 L23.5234,14.9375 L21.8594,14.9375 L21.8594,11.4141 C21.862,11.0469 21.7682,10.7598 21.5781,10.5527 C21.388,10.3457 21.1263,10.2422 20.793,10.2422 C20.569,10.2422 20.3717,10.2904 20.2012,10.3867 C20.0306,10.4831 19.8978,10.623 19.8027,10.8066 C19.7077,10.9902 19.6589,11.2109 19.6563,11.4688 "/>
</g>

<g fill="#ffffff" fill-opacity="1" stroke="none" transform="matrix(0.03125,0,0,0.03125,212,12)"
font-family="Inter" font-size="11" font-weight="700" font-style="normal" 
>
<path vector-effect="none" fill-rule="nonzero" d="M111.326,191.938 C120.545,201.158 135.517,201.158 144.737,191.938 L239.144,97.5313 C245.929,90.7458 247.921,80.6413 244.233,71.7907 C240.545,62.9401 231.989,57.1871 222.401,57.1871 L33.5875,57.2608 C24.0731,57.2608 15.4437,63.0137 11.7559,71.8644 C8.06815,80.715 10.1333,90.8195 16.845,97.605 L111.252,192.012 L111.326,191.938"/>
</g>

<g fill="none" stroke="#000000" stroke-opacity="1" stroke-width="13.7195" stroke-linecap="butt" stroke-linejoin="miter" stroke-miterlimit="4" transform="matrix(0.03125,0,0,0.03125,212,12)"
font-family="Inter" font-size="11" font-weight="700" font-style="normal" 
>
<path vector-effect="none" fill-rule="nonzero" d="M111.326,191.938 C120.545,201.158 135.517,201.158 144.737,191.938 L239.144,97.5313 C245.929,90.7458 247.921,80.6413 244.233,71.7907 C240.545,62.9401 231.989,57.1871 222.401,57.1871 L33.5875,57.2608 C24.0731,57.2608 15.4437,63.0137 11.7559,71.8644 C8.06815,80.715 10.1333,90.8195 16.845,97.605 L111.252,192.012 L111.326,191.938"/>
</g>

<g fill="#ffffff" fill-opacity="1" stroke="none" transform="matrix(1,0,0,1,180,4)"
font-family="Inter" font-size="11" font-weight="700" font-style="normal" 
>
</g>

<g fill="#ffffff" fill-opacity="1" stroke="#00645c" stroke-opacity="1" stroke-width="1" stroke-linecap="square" stroke-linejoin="bevel" transform="matrix(1,0,0,1,0,0)"
font-family="Inter" font-size="11" font-weight="700" font-style="normal" 
>
</g>

<g fill="#ffffff" fill-opacity="1" stroke="#00645c" stroke-opacity="1" stroke-width="1" stroke-linecap="square" stroke-linejoin="bevel" transform="matrix(1,0,0,1,0,0)"
font-family="Inter" font-size="11" font-weight="700" font-style="normal" 
>
</g>

<g fill="none" stroke="#000000" stroke-opacity="1" stroke-width="1" stroke-linecap="square" stroke-linejoin="bevel" transform="matrix(1,0,0,1,0,0)"
font-family=".AppleSystemUIFont" font-size="13" font-weight="400" font-style="normal" 
>
</g>
</g>
</svg>
