<?xml version="1.0" encoding="UTF-8" standalone="no"?>
<svg width="136.172mm" height="15.5222mm"
 viewBox="0 0 386 44"
 xmlns="http://www.w3.org/2000/svg" xmlns:xlink="http://www.w3.org/1999/xlink" version="1.2" baseProfile="tiny">
<title>Abstract block</title>
<desc>block_hubs_all_motors_port_run_for</desc>
<defs>
</defs>
<g fill="none" stroke="black" stroke-width="1" fill-rule="evenodd" stroke-linecap="square" stroke-linejoin="bevel" >

<g fill="none" stroke="#000000" stroke-opacity="1" stroke-width="1" stroke-linecap="square" stroke-linejoin="bevel" transform="matrix(1,0,0,1,0,0)"
font-family=".AppleSystemUIFont" font-size="13" font-weight="400" font-style="normal" 
>
</g>

<g fill="none" stroke="#000000" stroke-opacity="1" stroke-width="1" stroke-linecap="square" stroke-linejoin="bevel" transform="matrix(1,0,0,1,0,0)"
font-family=".AppleSystemUIFont" font-size="13" font-weight="400" font-style="normal" 
>
</g>

<g fill="#0090f5" fill-opacity="1" stroke="#0070ba" stroke-opacity="1" stroke-width="1.2" stroke-linecap="square" stroke-linejoin="bevel" transform="matrix(1,0,0,1,0,0)"
font-family=".AppleSystemUIFont" font-size="13" font-weight="400" font-style="normal" 
>
<path vector-effect="none" fill-rule="evenodd" d="M0.5,4.5 L1.04612,2.48112 L2.48112,1.04612 L4.5,0.5 L9.625,0.5 L10.416,0.976563 L11.1719,1.6875 L11.998,2.67969 L13,4 L13.7559,4.66016 L14.5469,5.15625 L15.4082,5.51172 L16.375,5.75 L17.4824,5.89453 L18.7656,5.96875 L20.2598,5.99609 L22,6 L23.7402,5.99609 L25.2344,5.96875 L26.5176,5.89453 L27.625,5.75 L28.5918,5.51172 L29.4531,5.15625 L30.2441,4.66016 L31,4 L32.002,2.67969 L32.8281,1.6875 L33.584,0.976563 L34.375,0.5 L380.56,0.5 L382.579,1.04612 L384.014,2.48112 L384.56,4.5 L384.56,31.5 L384.014,33.5189 L382.579,34.9539 L380.56,35.5 L34.375,35.5 L33.584,35.9766 L32.8281,36.6875 L32.002,37.6797 L31,39 L30.2441,39.6602 L29.4531,40.1563 L28.5918,40.5117 L27.625,40.75 L26.5176,40.8945 L25.2344,40.9688 L23.7402,40.9961 L22,41 L20.2598,40.9961 L18.7656,40.9688 L17.4824,40.8945 L16.375,40.75 L15.4082,40.5117 L14.5469,40.1563 L13.7559,39.6602 L13,39 L11.998,37.6797 L11.1719,36.6875 L10.416,35.9766 L9.625,35.5 L4.5,35.5 L2.48112,34.9539 L1.04612,33.5189 L0.5,31.5 L0.5,4.5"/>
</g>

<g fill="#ffffff" fill-opacity="1" stroke="none" transform="matrix(1,0,0,1,0,0)"
font-family="Inter" font-size="11" font-weight="700" font-style="normal" 
>
<path vector-effect="none" fill-rule="nonzero" d="M181.07,21 L181.07,15 L182.684,15 L182.684,16.0469 L182.746,16.0469 C182.855,15.6745 183.039,15.3926 183.297,15.2012 C183.555,15.0098 183.852,14.9141 184.188,14.9141 C184.271,14.9141 184.361,14.9193 184.457,14.9297 C184.553,14.9401 184.638,14.9544 184.711,14.9727 L184.711,16.4492 C184.633,16.4258 184.525,16.4049 184.387,16.3867 C184.249,16.3685 184.122,16.3594 184.008,16.3594 C183.763,16.3594 183.545,16.4121 183.354,16.5176 C183.162,16.623 183.011,16.7695 182.9,16.957 C182.79,17.1445 182.734,17.3607 182.734,17.6055 L182.734,21 L181.07,21 M189.402,18.4453 L189.402,15 L191.066,15 L191.066,21 L189.469,21 L189.469,19.9102 L189.406,19.9102 C189.271,20.2617 189.046,20.5443 188.732,20.7578 C188.419,20.9714 188.036,21.0781 187.586,21.0781 C187.185,21.0781 186.832,20.987 186.527,20.8047 C186.223,20.6224 185.985,20.3633 185.814,20.0273 C185.644,19.6914 185.557,19.2891 185.555,18.8203 L185.555,15 L187.219,15 L187.219,18.5234 C187.221,18.8776 187.316,19.1576 187.504,19.3633 C187.691,19.569 187.943,19.6719 188.258,19.6719 C188.458,19.6719 188.646,19.6257 188.82,19.5332 C188.995,19.4408 189.136,19.3034 189.244,19.1211 C189.352,18.9388 189.405,18.7135 189.402,18.4453 M194.047,17.5313 L194.047,21 L192.383,21 L192.383,15 L193.969,15 L193.969,16.0586 L194.039,16.0586 C194.172,15.7096 194.395,15.4329 194.707,15.2285 C195.02,15.0241 195.398,14.9219 195.844,14.9219 C196.26,14.9219 196.624,15.013 196.934,15.1953 C197.243,15.3776 197.484,15.6374 197.656,15.9746 C197.828,16.3118 197.914,16.7135 197.914,17.1797 L197.914,21 L196.25,21 L196.25,17.4766 C196.253,17.1094 196.159,16.8223 195.969,16.6152 C195.779,16.4082 195.517,16.3047 195.184,16.3047 C194.96,16.3047 194.762,16.3529 194.592,16.4492 C194.421,16.5456 194.288,16.6855 194.193,16.8691 C194.098,17.0527 194.049,17.2734 194.047,17.5313 "/>
</g>

<g fill="#ffffff" fill-opacity="1" stroke="none" transform="matrix(1,0,0,1,0,0)"
font-family="Inter" font-size="11" font-weight="700" font-style="normal" 
>
<path vector-effect="none" fill-rule="nonzero" d="M251.625,16 L251.625,17.25 L247.922,17.25 L247.922,16 L251.625,16 M248.77,22 L248.77,15.5664 C248.77,15.1315 248.855,14.7708 249.025,14.4844 C249.196,14.1979 249.43,13.9831 249.727,13.8398 C250.023,13.6966 250.361,13.625 250.738,13.625 C250.993,13.625 251.227,13.6445 251.439,13.6836 C251.652,13.7227 251.81,13.7578 251.914,13.7891 L251.617,15.0391 C251.552,15.0182 251.472,14.9987 251.377,14.9805 C251.282,14.9622 251.185,14.9531 251.086,14.9531 C250.841,14.9531 250.671,15.0098 250.574,15.123 C250.478,15.2363 250.43,15.3945 250.43,15.5977 L250.43,22 L248.77,22 M255.141,22.1172 C254.534,22.1172 254.01,21.9876 253.568,21.7285 C253.127,21.4694 252.786,21.1074 252.547,20.6426 C252.307,20.1777 252.188,19.638 252.188,19.0234 C252.188,18.4036 252.307,17.8613 252.547,17.3965 C252.786,16.9316 253.127,16.5697 253.568,16.3105 C254.01,16.0514 254.534,15.9219 255.141,15.9219 C255.747,15.9219 256.271,16.0514 256.713,16.3105 C257.154,16.5697 257.495,16.9316 257.734,17.3965 C257.974,17.8613 258.094,18.4036 258.094,19.0234 C258.094,19.638 257.974,20.1777 257.734,20.6426 C257.495,21.1074 257.154,21.4694 256.713,21.7285 C256.271,21.9876 255.747,22.1172 255.141,22.1172 M255.148,20.8281 C255.424,20.8281 255.655,20.7493 255.84,20.5918 C256.025,20.4342 256.165,20.2188 256.26,19.9453 C256.355,19.6719 256.402,19.3607 256.402,19.0117 C256.402,18.6628 256.355,18.3516 256.26,18.0781 C256.165,17.8047 256.025,17.5885 255.84,17.4297 C255.655,17.2708 255.424,17.1914 255.148,17.1914 C254.87,17.1914 254.636,17.2708 254.447,17.4297 C254.258,17.5885 254.117,17.8047 254.021,18.0781 C253.926,18.3516 253.879,18.6628 253.879,19.0117 C253.879,19.3607 253.926,19.6719 254.021,19.9453 C254.117,20.2188 254.258,20.4342 254.447,20.5918 C254.636,20.7493 254.87,20.8281 255.148,20.8281 M259.18,22 L259.18,16 L260.793,16 L260.793,17.0469 L260.855,17.0469 C260.965,16.6745 261.148,16.3926 261.406,16.2012 C261.664,16.0098 261.961,15.9141 262.297,15.9141 C262.38,15.9141 262.47,15.9193 262.566,15.9297 C262.663,15.9401 262.747,15.9544 262.82,15.9727 L262.82,17.4492 C262.742,17.4258 262.634,17.4049 262.496,17.3867 C262.358,17.3685 262.232,17.3594 262.117,17.3594 C261.872,17.3594 261.654,17.4121 261.463,17.5176 C261.271,17.623 261.12,17.7695 261.01,17.957 C260.899,18.1445 260.844,18.3607 260.844,18.6055 L260.844,22 L259.18,22"/>
</g>

<g fill="#ffffff" fill-opacity="1" stroke="none" transform="matrix(0.0285,0,0,0.0285,11.2928,9.44754)"
font-family="Inter" font-size="11" font-weight="700" font-style="normal" 
>
<path vector-effect="none" fill-rule="nonzero" d="M410.778,59.991 C376.729,59.991 346.629,75.6235 326.182,99.684 C216.768,129.689 131.433,215.271 101.927,324.891 C79.5232,345.494 65.3275,374.762 65.54,407.6 C65.7463,439.573 79.3407,468.172 100.975,488.421 C130.228,601.34 218.744,689.335 331.859,718.096 C331.956,718.125 331.989,718.313 332.085,718.338 C352.242,738.376 380.064,750.708 410.778,750.708 C441.492,750.708 469.314,738.376 489.47,718.338 C489.549,718.262 489.618,718.17 489.696,718.096 C604.323,688.948 693.738,598.994 721.758,483.921 C742.939,463.42 756.216,434.907 756.015,403.1 C755.801,370.079 741.086,340.899 718.209,320.633 C687.622,213.077 603.338,129.291 495.373,99.684 C474.926,75.6235 444.827,59.991 410.778,59.991 M410.778,91.8938 C455.052,91.8938 490.89,127.731 490.89,172.006 C490.89,216.28 455.052,252.102 410.778,252.102 C366.503,252.102 330.666,216.28 330.666,172.006 C330.666,127.731 366.503,91.8938 410.778,91.8938 M177.071,325.601 C221.346,325.601 257.183,361.438 257.183,405.713 C257.183,449.987 221.346,485.808 177.071,485.808 C132.796,485.808 96.7332,449.987 96.7332,405.713 C96.7332,361.438 132.796,325.601 177.071,325.601 M644.485,325.601 C688.763,325.601 724.822,361.438 724.822,405.713 C724.822,449.987 688.763,485.808 644.485,485.808 C600.21,485.808 564.373,449.987 564.373,405.713 C564.373,361.438 600.21,325.601 644.485,325.601 M396.601,335.762 L424.955,335.762 C431.754,335.762 437.245,342.538 437.245,350.891 L437.245,381.6 L467.971,381.6 C476.323,381.6 483.083,387.091 483.083,393.89 L483.083,422.245 C483.083,429.044 476.323,434.535 467.971,434.535 L437.245,434.535 L437.245,465.26 C437.245,473.612 431.754,480.373 424.955,480.373 L396.601,480.373 C389.801,480.373 384.31,473.613 384.31,465.26 L384.31,434.535 L353.585,434.535 C345.233,434.535 338.472,429.044 338.472,422.245 L338.472,393.89 C338.472,387.091 345.232,381.6 353.585,381.6 L384.31,381.6 L384.31,350.891 C384.31,342.539 389.801,335.762 396.601,335.762 M410.778,559.307 C455.052,559.307 490.89,595.371 490.89,639.645 C490.89,683.918 455.052,719.757 410.778,719.757 C366.503,719.757 330.666,683.918 330.666,639.645 C330.666,595.371 366.503,559.307 410.778,559.307 "/>
</g>

<g fill="none" stroke="#000000" stroke-opacity="1" stroke-width="22.7975" stroke-linecap="round" stroke-linejoin="round" transform="matrix(0.0285,0,0,0.0285,11.2928,9.44754)"
font-family="Inter" font-size="11" font-weight="700" font-style="normal" 
>
<path vector-effect="none" fill-rule="nonzero" d="M410.778,59.991 C376.729,59.991 346.629,75.6235 326.182,99.684 C216.768,129.689 131.433,215.271 101.927,324.891 C79.5232,345.494 65.3275,374.762 65.54,407.6 C65.7463,439.573 79.3407,468.172 100.975,488.421 C130.228,601.34 218.744,689.335 331.859,718.096 C331.956,718.125 331.989,718.313 332.085,718.338 C352.242,738.376 380.064,750.708 410.778,750.708 C441.492,750.708 469.314,738.376 489.47,718.338 C489.549,718.262 489.618,718.17 489.696,718.096 C604.323,688.948 693.738,598.994 721.758,483.921 C742.939,463.42 756.216,434.907 756.015,403.1 C755.801,370.079 741.086,340.899 718.209,320.633 C687.622,213.077 603.338,129.291 495.373,99.684 C474.926,75.6235 444.827,59.991 410.778,59.991 M410.778,91.8938 C455.052,91.8938 490.89,127.731 490.89,172.006 C490.89,216.28 455.052,252.102 410.778,252.102 C366.503,252.102 330.666,216.28 330.666,172.006 C330.666,127.731 366.503,91.8938 410.778,91.8938 M177.071,325.601 C221.346,325.601 257.183,361.438 257.183,405.713 C257.183,449.987 221.346,485.808 177.071,485.808 C132.796,485.808 96.7332,449.987 96.7332,405.713 C96.7332,361.438 132.796,325.601 177.071,325.601 M644.485,325.601 C688.763,325.601 724.822,361.438 724.822,405.713 C724.822,449.987 688.763,485.808 644.485,485.808 C600.21,485.808 564.373,449.987 564.373,405.713 C564.373,361.438 600.21,325.601 644.485,325.601 M396.601,335.762 L424.955,335.762 C431.754,335.762 437.245,342.538 437.245,350.891 L437.245,381.6 L467.971,381.6 C476.323,381.6 483.083,387.091 483.083,393.89 L483.083,422.245 C483.083,429.044 476.323,434.535 467.971,434.535 L437.245,434.535 L437.245,465.26 C437.245,473.612 431.754,480.373 424.955,480.373 L396.601,480.373 C389.801,480.373 384.31,473.613 384.31,465.26 L384.31,434.535 L353.585,434.535 C345.233,434.535 338.472,429.044 338.472,422.245 L338.472,393.89 C338.472,387.091 345.232,381.6 353.585,381.6 L384.31,381.6 L384.31,350.891 C384.31,342.539 389.801,335.762 396.601,335.762 M410.778,559.307 C455.052,559.307 490.89,595.371 490.89,639.645 C490.89,683.918 455.052,719.757 410.778,719.757 C366.503,719.757 330.666,683.918 330.666,639.645 C330.666,595.371 366.503,559.307 410.778,559.307 "/>
</g>

<g fill="#000000" fill-opacity="1" stroke="none" transform="matrix(0.0285,0,0,0.0285,11.2928,9.44754)"
font-family="Inter" font-size="11" font-weight="700" font-style="normal" 
>
<path vector-effect="none" fill-rule="evenodd" d="M394.961,355.661 C394.961,347.613 401.485,341.088 409.533,341.088 C417.582,341.088 424.106,347.613 424.106,355.661 L424.106,457.48 C424.106,465.528 417.582,472.053 409.533,472.053 C401.485,472.053 394.961,465.528 394.961,457.48 L394.961,355.661"/>
</g>

<g fill="none" stroke="#000000" stroke-opacity="1" stroke-width="20" stroke-linecap="round" stroke-linejoin="round" transform="matrix(0.0285,0,0,0.0285,11.2928,9.44754)"
font-family="Inter" font-size="11" font-weight="700" font-style="normal" 
>
<path vector-effect="none" fill-rule="evenodd" d="M394.961,355.661 C394.961,347.613 401.485,341.088 409.533,341.088 C417.582,341.088 424.106,347.613 424.106,355.661 L424.106,457.48 C424.106,465.528 417.582,472.053 409.533,472.053 C401.485,472.053 394.961,465.528 394.961,457.48 L394.961,355.661"/>
</g>

<g fill="#000000" fill-opacity="1" stroke="none" transform="matrix(0,0.0285,-0.0285,0,11.2928,9.44754)"
font-family="Inter" font-size="11" font-weight="700" font-style="normal" 
>
<path vector-effect="none" fill-rule="evenodd" d="M394.152,-461.016 C394.152,-469.064 400.676,-475.588 408.724,-475.588 C416.773,-475.588 423.297,-469.064 423.297,-461.016 L423.297,-359.196 C423.297,-351.148 416.773,-344.624 408.724,-344.624 C400.676,-344.624 394.152,-351.148 394.152,-359.196 L394.152,-461.016"/>
</g>

<g fill="none" stroke="#000000" stroke-opacity="1" stroke-width="20" stroke-linecap="round" stroke-linejoin="round" transform="matrix(0,0.0285,-0.0285,0,11.2928,9.44754)"
font-family="Inter" font-size="11" font-weight="700" font-style="normal" 
>
<path vector-effect="none" fill-rule="evenodd" d="M394.152,-461.016 C394.152,-469.064 400.676,-475.588 408.724,-475.588 C416.773,-475.588 423.297,-469.064 423.297,-461.016 L423.297,-359.196 C423.297,-351.148 416.773,-344.624 408.724,-344.624 C400.676,-344.624 394.152,-351.148 394.152,-359.196 L394.152,-461.016"/>
</g>

<g fill="#ffffff" fill-opacity="1" stroke="none" transform="matrix(1,0,0,1,0,0)"
font-family="Inter" font-size="11" font-weight="700" font-style="normal" 
>
</g>

<g fill="#ffffff" fill-opacity="1" stroke="#0070ba" stroke-opacity="1" stroke-width="1" stroke-linecap="square" stroke-linejoin="bevel" transform="matrix(1,0,0,1,0,0)"
font-family="Inter" font-size="11" font-weight="700" font-style="normal" 
>
<polyline fill="none" vector-effect="none" points="45,11 45,31 " />
</g>

<g fill="#ffffff" fill-opacity="1" stroke="#0070ba" stroke-opacity="1" stroke-width="1" stroke-linecap="square" stroke-linejoin="bevel" transform="matrix(1,0,0,1,0,0)"
font-family="Inter" font-size="11" font-weight="700" font-style="normal" 
>
</g>

<g fill="#ffffff" fill-opacity="1" stroke="#0070ba" stroke-opacity="1" stroke-width="1" stroke-linecap="square" stroke-linejoin="bevel" transform="matrix(1,0,0,1,0,0)"
font-family="Inter" font-size="11" font-weight="700" font-style="normal" 
>
</g>

<g fill="#ffffff" fill-opacity="1" stroke="#0070ba" stroke-opacity="1" stroke-width="1" stroke-linecap="square" stroke-linejoin="bevel" transform="matrix(1,0,0,1,0,0)"
font-family="Inter" font-size="11" font-weight="700" font-style="normal" 
>
</g>

<g fill="#0070ba" fill-opacity="1" stroke="#0070ba" stroke-opacity="1" stroke-width="1.2" stroke-linecap="square" stroke-linejoin="bevel" transform="matrix(1,0,0,1,135,6)"
font-family="Inter" font-size="11" font-weight="700" font-style="normal" 
>
<path vector-effect="none" fill-rule="evenodd" d="M0.5,12 C0.5,5.64873 5.87258,0.5 12.5,0.5 L27.5,0.5 C34.1274,0.5 39.5,5.64873 39.5,12 C39.5,18.3513 34.1274,23.5 27.5,23.5 L12.5,23.5 C5.87258,23.5 0.5,18.3513 0.5,12 "/>
</g>

<g fill="#ffffff" fill-opacity="1" stroke="none" transform="matrix(1,0,0,1,135,6)"
font-family="Inter" font-size="11" font-weight="700" font-style="normal" 
>
<path vector-effect="none" fill-rule="nonzero" d="M11.8242,16 L10.0117,16 L12.7734,8 L14.9531,8 L17.7109,16 L15.8984,16 L13.8945,9.82813 L13.832,9.82813 L11.8242,16 M11.7109,12.8555 L15.9922,12.8555 L15.9922,14.1758 L11.7109,14.1758 L11.7109,12.8555"/>
</g>

<g fill="#ffffff" fill-opacity="1" stroke="none" transform="matrix(0.03125,0,0,0.03125,161,14)"
font-family="Inter" font-size="11" font-weight="700" font-style="normal" 
>
<path vector-effect="none" fill-rule="nonzero" d="M111.326,191.938 C120.545,201.158 135.517,201.158 144.737,191.938 L239.144,97.5313 C245.929,90.7458 247.921,80.6413 244.233,71.7907 C240.545,62.9401 231.989,57.1871 222.401,57.1871 L33.5875,57.2608 C24.0731,57.2608 15.4437,63.0137 11.7559,71.8644 C8.06815,80.715 10.1333,90.8195 16.845,97.605 L111.252,192.012 L111.326,191.938"/>
</g>

<g fill="none" stroke="#000000" stroke-opacity="1" stroke-width="13.7195" stroke-linecap="butt" stroke-linejoin="miter" stroke-miterlimit="4" transform="matrix(0.03125,0,0,0.03125,161,14)"
font-family="Inter" font-size="11" font-weight="700" font-style="normal" 
>
<path vector-effect="none" fill-rule="nonzero" d="M111.326,191.938 C120.545,201.158 135.517,201.158 144.737,191.938 L239.144,97.5313 C245.929,90.7458 247.921,80.6413 244.233,71.7907 C240.545,62.9401 231.989,57.1871 222.401,57.1871 L33.5875,57.2608 C24.0731,57.2608 15.4437,63.0137 11.7559,71.8644 C8.06815,80.715 10.1333,90.8195 16.845,97.605 L111.252,192.012 L111.326,191.938"/>
</g>

<g fill="#ffffff" fill-opacity="1" stroke="none" transform="matrix(1,0,0,1,135,6)"
font-family="Inter" font-size="11" font-weight="700" font-style="normal" 
>
</g>

<g fill="#ffffff" fill-opacity="1" stroke="#0070ba" stroke-opacity="1" stroke-width="1" stroke-linecap="square" stroke-linejoin="bevel" transform="matrix(1,0,0,1,0,0)"
font-family="Inter" font-size="11" font-weight="700" font-style="normal" 
>
</g>

<g fill="#ffffff" fill-opacity="1" stroke="#0064a6" stroke-opacity="1" stroke-width="1.2" stroke-linecap="square" stroke-linejoin="bevel" transform="matrix(1,0,0,1,269.16,7)"
font-family="Inter" font-size="11" font-weight="700" font-style="normal" 
>
<path vector-effect="none" fill-rule="evenodd" d="M1,11 C1,5.47715 5.92487,1 12,1 L14.4,1 C20.4751,1 25.4,5.47715 25.4,11 C25.4,16.5228 20.4751,21 14.4,21 L12,21 C5.92487,21 1,16.5228 1,11 "/>
</g>

<g fill="#000000" fill-opacity="1" stroke="none" transform="matrix(1,0,0,1,269.16,7)"
font-family="Inter" font-size="10" font-weight="700" font-style="normal" 
>
<path vector-effect="none" fill-rule="nonzero" d="M14.5817,7.22727 L14.5817,14.5 L13.044,14.5 L13.044,8.68679 L13.0014,8.68679 L11.3359,9.73082 L11.3359,8.36719 L13.1364,7.22727 L14.5817,7.22727"/>
</g>

<g fill="#ffffff" fill-opacity="1" stroke="#0070ba" stroke-opacity="1" stroke-width="1" stroke-linecap="square" stroke-linejoin="bevel" transform="matrix(1,0,0,1,0,0)"
font-family="Inter" font-size="11" font-weight="700" font-style="normal" 
>
</g>

<g fill="#0090f5" fill-opacity="1" stroke="#0070ba" stroke-opacity="1" stroke-width="1.2" stroke-linecap="square" stroke-linejoin="bevel" transform="matrix(1,0,0,1,204,6)"
font-family="Inter" font-size="11" font-weight="700" font-style="normal" 
>
<path vector-effect="none" fill-rule="evenodd" d="M0.5,3.5 C0.5,1.84315 1.84315,0.5 3.5,0.5 L34.66,0.5 C36.3169,0.5 37.66,1.84315 37.66,3.5 L37.66,20.5 C37.66,22.1569 36.3169,23.5 34.66,23.5 L3.5,23.5 C1.84315,23.5 0.5,22.1569 0.5,20.5 L0.5,3.5"/>
</g>

<g fill="#ffffff" fill-opacity="1" stroke="none" transform="matrix(0.03125,0,0,0.03125,228.16,14)"
font-family="Inter" font-size="11" font-weight="700" font-style="normal" 
>
<path vector-effect="none" fill-rule="nonzero" d="M111.326,191.938 C120.545,201.158 135.517,201.158 144.737,191.938 L239.144,97.5313 C245.929,90.7458 247.921,80.6413 244.233,71.7907 C240.545,62.9401 231.989,57.1871 222.401,57.1871 L33.5875,57.2608 C24.0731,57.2608 15.4437,63.0137 11.7559,71.8644 C8.06815,80.715 10.1333,90.8195 16.845,97.605 L111.252,192.012 L111.326,191.938"/>
</g>

<g fill="none" stroke="#000000" stroke-opacity="1" stroke-width="13.7195" stroke-linecap="butt" stroke-linejoin="miter" stroke-miterlimit="4" transform="matrix(0.03125,0,0,0.03125,228.16,14)"
font-family="Inter" font-size="11" font-weight="700" font-style="normal" 
>
<path vector-effect="none" fill-rule="nonzero" d="M111.326,191.938 C120.545,201.158 135.517,201.158 144.737,191.938 L239.144,97.5313 C245.929,90.7458 247.921,80.6413 244.233,71.7907 C240.545,62.9401 231.989,57.1871 222.401,57.1871 L33.5875,57.2608 C24.0731,57.2608 15.4437,63.0137 11.7559,71.8644 C8.06815,80.715 10.1333,90.8195 16.845,97.605 L111.252,192.012 L111.326,191.938"/>
</g>

<g fill="#0090f5" fill-opacity="1" stroke="#0070ba" stroke-opacity="1" stroke-width="1.2" stroke-linecap="square" stroke-linejoin="bevel" transform="matrix(1,0,0,1,204,6)"
font-family="Inter" font-size="11" font-weight="700" font-style="normal" 
>
</g>

<g fill="#ffffff" fill-opacity="1" stroke="none" transform="matrix(0.031875,0,0,0.031875,207.84,9.84)"
font-family="Inter" font-size="11" font-weight="700" font-style="normal" 
>
<path vector-effect="none" fill-rule="nonzero" d="M263.09,50 C251.208,49.993 239.215,51.018 227.233,53.13 C142.026,68.156 75.156,135.026 60.13,220.233 C45.108,305.44 85.075,391.15 160.005,434.41 C192.787,453.337 229.259,462.406 265.468,461.963 C312.023,461.393 358.143,445.098 395.425,413.813 L364.57,377.045 C313.62,419.795 241.602,426.095 184.004,392.842 C126.407,359.588 95.852,294.065 107.401,228.568 C118.951,163.071 170.073,111.948 235.571,100.4 C287.227,91.292 338.894,108.38 374.741,144.262 L327,192 L455,192 L455,64 L408.66,110.342 C370.242,71.962 317.83,50.03 263.09,50 "/>
</g>

<g fill="#0090f5" fill-opacity="1" stroke="#0070ba" stroke-opacity="1" stroke-width="1.2" stroke-linecap="square" stroke-linejoin="bevel" transform="matrix(1,0,0,1,204,6)"
font-family="Inter" font-size="11" font-weight="700" font-style="normal" 
>
</g>

<g fill="#ffffff" fill-opacity="1" stroke="#0070ba" stroke-opacity="1" stroke-width="1" stroke-linecap="square" stroke-linejoin="bevel" transform="matrix(1,0,0,1,0,0)"
font-family="Inter" font-size="11" font-weight="700" font-style="normal" 
>
</g>

<g fill="#ffffff" fill-opacity="1" stroke="#0070ba" stroke-opacity="1" stroke-width="1" stroke-linecap="square" stroke-linejoin="bevel" transform="matrix(1,0,0,1,0,0)"
font-family="Inter" font-size="11" font-weight="700" font-style="normal" 
>
</g>

<g fill="#0090f5" fill-opacity="1" stroke="#0070ba" stroke-opacity="1" stroke-width="1.2" stroke-linecap="square" stroke-linejoin="bevel" transform="matrix(1,0,0,1,299.56,6)"
font-family="Inter" font-size="11" font-weight="700" font-style="normal" 
>
<path vector-effect="none" fill-rule="evenodd" d="M0.5,3.5 C0.5,1.84315 1.84315,0.5 3.5,0.5 L76,0.5 C77.6569,0.5 79,1.84315 79,3.5 L79,20.5 C79,22.1569 77.6569,23.5 76,23.5 L3.5,23.5 C1.84315,23.5 0.5,22.1569 0.5,20.5 L0.5,3.5"/>
</g>

<g fill="#ffffff" fill-opacity="1" stroke="none" transform="matrix(1,0,0,1,299.56,6)"
font-family="Inter" font-size="11" font-weight="700" font-style="normal" 
>
<path vector-effect="none" fill-rule="nonzero" d="M9.50781,15.9531 L9.50781,9.95313 L11.1211,9.95313 L11.1211,11 L11.1836,11 C11.293,10.6276 11.4766,10.3457 11.7344,10.1543 C11.9922,9.96289 12.2891,9.86719 12.625,9.86719 C12.7083,9.86719 12.7982,9.8724 12.8945,9.88281 C12.9909,9.89323 13.0755,9.90755 13.1484,9.92578 L13.1484,11.4023 C13.0703,11.3789 12.9622,11.3581 12.8242,11.3398 C12.6862,11.3216 12.5599,11.3125 12.4453,11.3125 C12.2005,11.3125 11.9824,11.3652 11.791,11.4707 C11.5996,11.5762 11.4486,11.7227 11.3379,11.9102 C11.2272,12.0977 11.1719,12.3138 11.1719,12.5586 L11.1719,15.9531 L9.50781,15.9531 M16.4219,16.0703 C15.8151,16.0703 15.291,15.9408 14.8496,15.6816 C14.4082,15.4225 14.0677,15.0605 13.8281,14.5957 C13.5885,14.1309 13.4688,13.5911 13.4688,12.9766 C13.4688,12.3568 13.5885,11.8145 13.8281,11.3496 C14.0677,10.8848 14.4082,10.5228 14.8496,10.2637 C15.291,10.0046 15.8151,9.875 16.4219,9.875 C17.0286,9.875 17.5527,10.0046 17.9941,10.2637 C18.4355,10.5228 18.776,10.8848 19.0156,11.3496 C19.2552,11.8145 19.375,12.3568 19.375,12.9766 C19.375,13.5911 19.2552,14.1309 19.0156,14.5957 C18.776,15.0605 18.4355,15.4225 17.9941,15.6816 C17.5527,15.9408 17.0286,16.0703 16.4219,16.0703 M16.4297,14.7813 C16.7057,14.7813 16.9362,14.7025 17.1211,14.5449 C17.306,14.3874 17.446,14.1719 17.541,13.8984 C17.6361,13.625 17.6836,13.3138 17.6836,12.9648 C17.6836,12.6159 17.6361,12.3047 17.541,12.0313 C17.446,11.7578 17.306,11.5417 17.1211,11.3828 C16.9362,11.224 16.7057,11.1445 16.4297,11.1445 C16.151,11.1445 15.9173,11.224 15.7285,11.3828 C15.5397,11.5417 15.3978,11.7578 15.3027,12.0313 C15.2077,12.3047 15.1602,12.6159 15.1602,12.9648 C15.1602,13.3138 15.2077,13.625 15.3027,13.8984 C15.3978,14.1719 15.5397,14.3874 15.7285,14.5449 C15.9173,14.7025 16.151,14.7813 16.4297,14.7813 M23.6523,9.95313 L23.6523,11.2031 L20.0391,11.2031 L20.0391,9.95313 L23.6523,9.95313 M20.8594,8.51563 L22.5234,8.51563 L22.5234,14.1094 C22.5234,14.263 22.5469,14.3822 22.5938,14.4668 C22.6406,14.5514 22.7064,14.6107 22.791,14.6445 C22.8757,14.6784 22.974,14.6953 23.0859,14.6953 C23.1641,14.6953 23.2422,14.6882 23.3203,14.6738 C23.3984,14.6595 23.4583,14.6484 23.5,14.6406 L23.7617,15.8789 C23.6784,15.9049 23.5612,15.9355 23.4102,15.9707 C23.2591,16.0059 23.0755,16.0273 22.8594,16.0352 C22.4583,16.0508 22.1074,15.9974 21.8066,15.875 C21.5059,15.7526 21.2721,15.5625 21.1055,15.3047 C20.9388,15.0469 20.8568,14.7214 20.8594,14.3281 L20.8594,8.51563 M26.4375,16.0664 C26.0547,16.0664 25.7135,15.9993 25.4141,15.8652 C25.1146,15.7311 24.8783,15.5319 24.7051,15.2676 C24.5319,15.0033 24.4453,14.6732 24.4453,14.2773 C24.4453,13.944 24.5065,13.6641 24.6289,13.4375 C24.7513,13.2109 24.918,13.0286 25.1289,12.8906 C25.3398,12.7526 25.5801,12.6484 25.8496,12.5781 C26.1191,12.5078 26.4023,12.4583 26.6992,12.4297 C27.0482,12.3932 27.3294,12.3587 27.543,12.3262 C27.7565,12.2936 27.9115,12.2448 28.0078,12.1797 C28.1042,12.1146 28.1523,12.0182 28.1523,11.8906 L28.1523,11.8672 C28.1523,11.6198 28.0749,11.4284 27.9199,11.293 C27.765,11.1576 27.5456,11.0898 27.2617,11.0898 C26.9622,11.0898 26.724,11.1556 26.5469,11.2871 C26.3698,11.4186 26.2526,11.5833 26.1953,11.7813 L24.6563,11.6563 C24.7344,11.2917 24.888,10.9759 25.1172,10.709 C25.3464,10.4421 25.6426,10.2363 26.0059,10.0918 C26.3691,9.94727 26.7904,9.875 27.2695,9.875 C27.6029,9.875 27.9225,9.91406 28.2285,9.99219 C28.5345,10.0703 28.8066,10.1914 29.0449,10.3555 C29.2832,10.5195 29.4714,10.7298 29.6094,10.9863 C29.7474,11.2428 29.8164,11.5495 29.8164,11.9063 L29.8164,15.9531 L28.2383,15.9531 L28.2383,15.1211 L28.1914,15.1211 C28.0951,15.3086 27.9661,15.4733 27.8047,15.6152 C27.6432,15.7572 27.4492,15.8678 27.2227,15.9473 C26.9961,16.0267 26.7344,16.0664 26.4375,16.0664 M26.9141,14.918 C27.1589,14.918 27.375,14.8691 27.5625,14.7715 C27.75,14.6738 27.8971,14.5417 28.0039,14.375 C28.1107,14.2083 28.1641,14.0195 28.1641,13.8086 L28.1641,13.1719 C28.112,13.2057 28.041,13.2363 27.9512,13.2637 C27.8613,13.291 27.7604,13.3158 27.6484,13.3379 C27.5365,13.36 27.4245,13.3796 27.3125,13.3965 C27.2005,13.4134 27.099,13.4284 27.0078,13.4414 C26.8125,13.4701 26.6419,13.5156 26.4961,13.5781 C26.3503,13.6406 26.237,13.7246 26.1563,13.8301 C26.0755,13.9355 26.0352,14.0664 26.0352,14.2227 C26.0352,14.4492 26.1178,14.6217 26.2832,14.7402 C26.4486,14.8587 26.6589,14.918 26.9141,14.918 M34.293,9.95313 L34.293,11.2031 L30.6797,11.2031 L30.6797,9.95313 L34.293,9.95313 M31.5,8.51563 L33.1641,8.51563 L33.1641,14.1094 C33.1641,14.263 33.1875,14.3822 33.2344,14.4668 C33.2813,14.5514 33.347,14.6107 33.4316,14.6445 C33.5163,14.6784 33.6146,14.6953 33.7266,14.6953 C33.8047,14.6953 33.8828,14.6882 33.9609,14.6738 C34.0391,14.6595 34.099,14.6484 34.1406,14.6406 L34.4023,15.8789 C34.319,15.9049 34.2018,15.9355 34.0508,15.9707 C33.8997,16.0059 33.7161,16.0273 33.5,16.0352 C33.099,16.0508 32.748,15.9974 32.4473,15.875 C32.1465,15.7526 31.9128,15.5625 31.7461,15.3047 C31.5794,15.0469 31.4974,14.7214 31.5,14.3281 L31.5,8.51563 M35.3672,15.9531 L35.3672,9.95313 L37.0313,9.95313 L37.0313,15.9531 L35.3672,15.9531 M36.2031,9.17969 C35.9557,9.17969 35.7441,9.09701 35.5684,8.93164 C35.3926,8.76628 35.3047,8.56771 35.3047,8.33594 C35.3047,8.10677 35.3926,7.90951 35.5684,7.74414 C35.7441,7.57878 35.9557,7.49609 36.2031,7.49609 C36.4505,7.49609 36.6621,7.57878 36.8379,7.74414 C37.0137,7.90951 37.1016,8.10677 37.1016,8.33594 C37.1016,8.56771 37.0137,8.76628 36.8379,8.93164 C36.6621,9.09701 36.4505,9.17969 36.2031,9.17969 M41.0625,16.0703 C40.4557,16.0703 39.9316,15.9408 39.4902,15.6816 C39.0488,15.4225 38.7083,15.0605 38.4688,14.5957 C38.2292,14.1309 38.1094,13.5911 38.1094,12.9766 C38.1094,12.3568 38.2292,11.8145 38.4688,11.3496 C38.7083,10.8848 39.0488,10.5228 39.4902,10.2637 C39.9316,10.0046 40.4557,9.875 41.0625,9.875 C41.6693,9.875 42.1934,10.0046 42.6348,10.2637 C43.0762,10.5228 43.4167,10.8848 43.6563,11.3496 C43.8958,11.8145 44.0156,12.3568 44.0156,12.9766 C44.0156,13.5911 43.8958,14.1309 43.6563,14.5957 C43.4167,15.0605 43.0762,15.4225 42.6348,15.6816 C42.1934,15.9408 41.6693,16.0703 41.0625,16.0703 M41.0703,14.7813 C41.3464,14.7813 41.5768,14.7025 41.7617,14.5449 C41.9466,14.3874 42.0866,14.1719 42.1816,13.8984 C42.2767,13.625 42.3242,13.3138 42.3242,12.9648 C42.3242,12.6159 42.2767,12.3047 42.1816,12.0313 C42.0866,11.7578 41.9466,11.5417 41.7617,11.3828 C41.5768,11.224 41.3464,11.1445 41.0703,11.1445 C40.7917,11.1445 40.5579,11.224 40.3691,11.3828 C40.1803,11.5417 40.0384,11.7578 39.9434,12.0313 C39.8483,12.3047 39.8008,12.6159 39.8008,12.9648 C39.8008,13.3138 39.8483,13.625 39.9434,13.8984 C40.0384,14.1719 40.1803,14.3874 40.3691,14.5449 C40.5579,14.7025 40.7917,14.7813 41.0703,14.7813 M46.7656,12.4844 L46.7656,15.9531 L45.1016,15.9531 L45.1016,9.95313 L46.6875,9.95313 L46.6875,11.0117 L46.7578,11.0117 C46.8906,10.6628 47.1133,10.3861 47.4258,10.1816 C47.7383,9.97721 48.1172,9.875 48.5625,9.875 C48.9792,9.875 49.3424,9.96615 49.6523,10.1484 C49.9622,10.3307 50.2031,10.5905 50.375,10.9277 C50.5469,11.265 50.6328,11.6667 50.6328,12.1328 L50.6328,15.9531 L48.9688,15.9531 L48.9688,12.4297 C48.9714,12.0625 48.8776,11.7754 48.6875,11.5684 C48.4974,11.3613 48.2357,11.2578 47.9023,11.2578 C47.6784,11.2578 47.4811,11.306 47.3105,11.4023 C47.14,11.4987 47.0072,11.6387 46.9121,11.8223 C46.8171,12.0059 46.7682,12.2266 46.7656,12.4844 M56.9219,11.6641 L55.3984,11.7578 C55.3724,11.6276 55.3164,11.5098 55.2305,11.4043 C55.1445,11.2988 55.0319,11.2142 54.8926,11.1504 C54.7533,11.0866 54.5872,11.0547 54.3945,11.0547 C54.1367,11.0547 53.9193,11.1087 53.7422,11.2168 C53.5651,11.3249 53.4766,11.4688 53.4766,11.6484 C53.4766,11.7917 53.5339,11.9128 53.6484,12.0117 C53.763,12.1107 53.9596,12.1901 54.2383,12.25 L55.3242,12.4688 C55.9076,12.5885 56.3424,12.7813 56.6289,13.0469 C56.9154,13.3125 57.0586,13.6615 57.0586,14.0938 C57.0586,14.487 56.9434,14.832 56.7129,15.1289 C56.4824,15.4258 56.1673,15.6569 55.7676,15.8223 C55.3678,15.9876 54.9076,16.0703 54.3867,16.0703 C53.5924,16.0703 52.9603,15.9043 52.4902,15.5723 C52.0202,15.2402 51.7448,14.7878 51.6641,14.2148 L53.3008,14.1289 C53.3503,14.3711 53.4701,14.5553 53.6602,14.6816 C53.8503,14.8079 54.0938,14.8711 54.3906,14.8711 C54.6823,14.8711 54.9173,14.8145 55.0957,14.7012 C55.2741,14.5879 55.3646,14.4414 55.3672,14.2617 C55.3646,14.1107 55.3008,13.9863 55.1758,13.8887 C55.0508,13.791 54.8581,13.7161 54.5977,13.6641 L53.5586,13.457 C52.9727,13.3398 52.5371,13.1367 52.252,12.8477 C51.9668,12.5586 51.8242,12.1901 51.8242,11.7422 C51.8242,11.3568 51.929,11.0247 52.1387,10.7461 C52.3483,10.4674 52.6439,10.2526 53.0254,10.1016 C53.4069,9.95052 53.8542,9.875 54.3672,9.875 C55.125,9.875 55.722,10.0352 56.1582,10.3555 C56.5944,10.6758 56.849,11.112 56.9219,11.6641 "/>
</g>

<g fill="#ffffff" fill-opacity="1" stroke="none" transform="matrix(0.03125,0,0,0.03125,365.06,14)"
font-family="Inter" font-size="11" font-weight="700" font-style="normal" 
>
<path vector-effect="none" fill-rule="nonzero" d="M111.326,191.938 C120.545,201.158 135.517,201.158 144.737,191.938 L239.144,97.5313 C245.929,90.7458 247.921,80.6413 244.233,71.7907 C240.545,62.9401 231.989,57.1871 222.401,57.1871 L33.5875,57.2608 C24.0731,57.2608 15.4437,63.0137 11.7559,71.8644 C8.06815,80.715 10.1333,90.8195 16.845,97.605 L111.252,192.012 L111.326,191.938"/>
</g>

<g fill="none" stroke="#000000" stroke-opacity="1" stroke-width="13.7195" stroke-linecap="butt" stroke-linejoin="miter" stroke-miterlimit="4" transform="matrix(0.03125,0,0,0.03125,365.06,14)"
font-family="Inter" font-size="11" font-weight="700" font-style="normal" 
>
<path vector-effect="none" fill-rule="nonzero" d="M111.326,191.938 C120.545,201.158 135.517,201.158 144.737,191.938 L239.144,97.5313 C245.929,90.7458 247.921,80.6413 244.233,71.7907 C240.545,62.9401 231.989,57.1871 222.401,57.1871 L33.5875,57.2608 C24.0731,57.2608 15.4437,63.0137 11.7559,71.8644 C8.06815,80.715 10.1333,90.8195 16.845,97.605 L111.252,192.012 L111.326,191.938"/>
</g>

<g fill="#ffffff" fill-opacity="1" stroke="none" transform="matrix(1,0,0,1,299.56,6)"
font-family="Inter" font-size="11" font-weight="700" font-style="normal" 
>
</g>

<g fill="#ffffff" fill-opacity="1" stroke="#0070ba" stroke-opacity="1" stroke-width="1" stroke-linecap="square" stroke-linejoin="bevel" transform="matrix(1,0,0,1,0,0)"
font-family="Inter" font-size="11" font-weight="700" font-style="normal" 
>
</g>

<g fill="#0090f5" fill-opacity="1" stroke="#0070ba" stroke-opacity="1" stroke-width="1.2" stroke-linecap="square" stroke-linejoin="bevel" transform="matrix(1,0,0,1,56,6)"
font-family="Inter" font-size="11" font-weight="700" font-style="normal" 
>
<path vector-effect="none" fill-rule="evenodd" d="M0.5,3.5 C0.5,1.84315 1.84315,0.5 3.5,0.5 L71.5,0.5 C73.1569,0.5 74.5,1.84315 74.5,3.5 L74.5,20.5 C74.5,22.1569 73.1569,23.5 71.5,23.5 L3.5,23.5 C1.84315,23.5 0.5,22.1569 0.5,20.5 L0.5,3.5"/>
</g>

<g fill="#ffffff" fill-opacity="1" stroke="none" transform="matrix(1,0,0,1,56,6)"
font-family="Inter" font-size="11" font-weight="700" font-style="normal" 
>
<path vector-effect="none" fill-rule="nonzero" d="M10,9.39453 L10,8 L16.5703,8 L16.5703,9.39453 L14.1211,9.39453 L14.1211,16 L12.4492,16 L12.4492,9.39453 L10,9.39453 M17.6484,16 L17.6484,8 L19.3398,8 L19.3398,11.3008 L22.7734,11.3008 L22.7734,8 L24.4609,8 L24.4609,16 L22.7734,16 L22.7734,12.6953 L19.3398,12.6953 L19.3398,16 L17.6484,16 M32.543,8 L32.543,16 L31.082,16 L27.6016,10.9648 L27.543,10.9648 L27.543,16 L25.8516,16 L25.8516,8 L27.3359,8 L30.7891,13.0313 L30.8594,13.0313 L30.8594,8 L32.543,8 M33.9297,16 L33.9297,8 L35.6211,8 L35.6211,11.3008 L39.0547,11.3008 L39.0547,8 L40.7422,8 L40.7422,16 L39.0547,16 L39.0547,12.6953 L35.6211,12.6953 L35.6211,16 L33.9297,16 M42.1328,16 L42.1328,8 L45.3359,8 C45.9245,8 46.4154,8.08724 46.8086,8.26172 C47.2018,8.4362 47.4974,8.67773 47.6953,8.98633 C47.8932,9.29492 47.9922,9.64974 47.9922,10.0508 C47.9922,10.3633 47.9297,10.6374 47.8047,10.873 C47.6797,11.1087 47.5085,11.3014 47.291,11.4512 C47.0736,11.6009 46.8255,11.707 46.5469,11.7695 L46.5469,11.8477 C46.8516,11.8607 47.1374,11.9466 47.4043,12.1055 C47.6712,12.2643 47.888,12.4863 48.0547,12.7715 C48.2214,13.0566 48.3047,13.3958 48.3047,13.7891 C48.3047,14.2135 48.1999,14.5918 47.9902,14.9238 C47.7806,15.2559 47.4714,15.5182 47.0625,15.7109 C46.6536,15.9036 46.1497,16 45.5508,16 L42.1328,16 M43.8242,14.6172 L45.2031,14.6172 C45.6745,14.6172 46.0182,14.5267 46.2344,14.3457 C46.4505,14.1647 46.5586,13.9232 46.5586,13.6211 C46.5586,13.3997 46.5052,13.2044 46.3984,13.0352 C46.2917,12.8659 46.14,12.7331 45.9434,12.6367 C45.7467,12.5404 45.513,12.4922 45.2422,12.4922 L43.8242,12.4922 L43.8242,14.6172 M43.8242,11.3477 L45.0781,11.3477 C45.3099,11.3477 45.5163,11.3066 45.6973,11.2246 C45.8783,11.1426 46.0215,11.026 46.127,10.875 C46.2324,10.724 46.2852,10.543 46.2852,10.332 C46.2852,10.043 46.1829,9.8099 45.9785,9.63281 C45.7741,9.45573 45.4844,9.36719 45.1094,9.36719 L43.8242,9.36719 L43.8242,11.3477 M52.832,8 L52.832,16 L51.1406,16 L51.1406,9.60547 L51.0938,9.60547 L49.2617,10.7539 L49.2617,9.25391 L51.2422,8 L52.832,8"/>
</g>

<g fill="#ffffff" fill-opacity="1" stroke="none" transform="matrix(0.03125,0,0,0.03125,117,14)"
font-family="Inter" font-size="11" font-weight="700" font-style="normal" 
>
<path vector-effect="none" fill-rule="nonzero" d="M111.326,191.938 C120.545,201.158 135.517,201.158 144.737,191.938 L239.144,97.5313 C245.929,90.7458 247.921,80.6413 244.233,71.7907 C240.545,62.9401 231.989,57.1871 222.401,57.1871 L33.5875,57.2608 C24.0731,57.2608 15.4437,63.0137 11.7559,71.8644 C8.06815,80.715 10.1333,90.8195 16.845,97.605 L111.252,192.012 L111.326,191.938"/>
</g>

<g fill="none" stroke="#000000" stroke-opacity="1" stroke-width="13.7195" stroke-linecap="butt" stroke-linejoin="miter" stroke-miterlimit="4" transform="matrix(0.03125,0,0,0.03125,117,14)"
font-family="Inter" font-size="11" font-weight="700" font-style="normal" 
>
<path vector-effect="none" fill-rule="nonzero" d="M111.326,191.938 C120.545,201.158 135.517,201.158 144.737,191.938 L239.144,97.5313 C245.929,90.7458 247.921,80.6413 244.233,71.7907 C240.545,62.9401 231.989,57.1871 222.401,57.1871 L33.5875,57.2608 C24.0731,57.2608 15.4437,63.0137 11.7559,71.8644 C8.06815,80.715 10.1333,90.8195 16.845,97.605 L111.252,192.012 L111.326,191.938"/>
</g>

<g fill="#ffffff" fill-opacity="1" stroke="none" transform="matrix(1,0,0,1,56,6)"
font-family="Inter" font-size="11" font-weight="700" font-style="normal" 
>
</g>

<g fill="#ffffff" fill-opacity="1" stroke="#0070ba" stroke-opacity="1" stroke-width="1" stroke-linecap="square" stroke-linejoin="bevel" transform="matrix(1,0,0,1,0,0)"
font-family="Inter" font-size="11" font-weight="700" font-style="normal" 
>
</g>

<g fill="none" stroke="#000000" stroke-opacity="1" stroke-width="1" stroke-linecap="square" stroke-linejoin="bevel" transform="matrix(1,0,0,1,0,0)"
font-family=".AppleSystemUIFont" font-size="13" font-weight="400" font-style="normal" 
>
</g>
</g>
</svg>
