<?xml version="1.0" encoding="UTF-8" standalone="no"?>
<svg width="89.6056mm" height="11.2889mm"
 viewBox="0 0 254 32"
 xmlns="http://www.w3.org/2000/svg" xmlns:xlink="http://www.w3.org/1999/xlink" version="1.2" baseProfile="tiny">
<title>Abstract block</title>
<desc>block_sensors_device_acceleration_sensor_data</desc>
<defs>
</defs>
<g fill="none" stroke="black" stroke-width="1" fill-rule="evenodd" stroke-linecap="square" stroke-linejoin="bevel" >

<g fill="none" stroke="#000000" stroke-opacity="1" stroke-width="1" stroke-linecap="square" stroke-linejoin="bevel" transform="matrix(1,0,0,1,0,0)"
font-family=".AppleSystemUIFont" font-size="13" font-weight="400" font-style="normal" 
>
</g>

<g fill="none" stroke="#000000" stroke-opacity="1" stroke-width="1" stroke-linecap="square" stroke-linejoin="bevel" transform="matrix(1,0,0,1,0,0)"
font-family=".AppleSystemUIFont" font-size="13" font-weight="400" font-style="normal" 
>
</g>

<g fill="#1dccf0" fill-opacity="1" stroke="#0da6c5" stroke-opacity="1" stroke-width="1.2" stroke-linecap="square" stroke-linejoin="bevel" transform="matrix(1,0,0,1,0,0)"
font-family=".AppleSystemUIFont" font-size="13" font-weight="400" font-style="normal" 
>
<path vector-effect="none" fill-rule="evenodd" d="M1,16 C1,7.71573 8.16344,1 17,1 L237,1 C245.837,1 253,7.71573 253,16 C253,24.2843 245.837,31 237,31 L17,31 C8.16344,31 1,24.2843 1,16 "/>
</g>

<g fill="#ffffff" fill-opacity="1" stroke="none" transform="matrix(1,0,0,1,0,0)"
font-family="Inter" font-size="11" font-weight="700" font-style="normal" 
>
<path vector-effect="none" fill-rule="nonzero" d="M54.2969,20.0977 C53.8411,20.0977 53.429,19.9798 53.0605,19.7441 C52.6921,19.5085 52.4004,19.1608 52.1855,18.7012 C51.9707,18.2415 51.8633,17.6771 51.8633,17.0078 C51.8633,16.3203 51.974,15.748 52.1953,15.291 C52.4167,14.834 52.7116,14.4915 53.0801,14.2637 C53.4486,14.0358 53.8529,13.9219 54.293,13.9219 C54.6289,13.9219 54.9095,13.9785 55.1348,14.0918 C55.36,14.2051 55.5423,14.3457 55.6816,14.5137 C55.821,14.6816 55.9271,14.8464 56,15.0078 L56.0508,15.0078 L56.0508,12 L57.7109,12 L57.7109,20 L56.0703,20 L56.0703,19.0391 L56,19.0391 C55.9219,19.2057 55.8118,19.3704 55.6699,19.5332 C55.528,19.696 55.3444,19.8307 55.1191,19.9375 C54.8939,20.0443 54.6198,20.0977 54.2969,20.0977 M54.8242,18.7734 C55.0924,18.7734 55.3197,18.6999 55.5059,18.5527 C55.6921,18.4056 55.8353,18.1992 55.9355,17.9336 C56.0358,17.668 56.0859,17.3568 56.0859,17 C56.0859,16.6432 56.0365,16.3333 55.9375,16.0703 C55.8385,15.8073 55.6953,15.6042 55.5078,15.4609 C55.3203,15.3177 55.0924,15.2461 54.8242,15.2461 C54.5508,15.2461 54.3203,15.3203 54.1328,15.4688 C53.9453,15.6172 53.8034,15.8229 53.707,16.0859 C53.6107,16.349 53.5625,16.6536 53.5625,17 C53.5625,17.349 53.6113,17.6569 53.709,17.9238 C53.8066,18.1908 53.9486,18.3991 54.1348,18.5488 C54.321,18.6986 54.5508,18.7734 54.8242,18.7734 M61.8047,20.1172 C61.1875,20.1172 60.6569,19.9915 60.2129,19.7402 C59.7689,19.4889 59.4271,19.1322 59.1875,18.6699 C58.9479,18.2077 58.8281,17.6602 58.8281,17.0273 C58.8281,16.4102 58.9479,15.8685 59.1875,15.4023 C59.4271,14.9362 59.765,14.5729 60.2012,14.3125 C60.6374,14.0521 61.1497,13.9219 61.7383,13.9219 C62.1341,13.9219 62.5033,13.985 62.8457,14.1113 C63.1882,14.2376 63.4876,14.4271 63.7441,14.6797 C64.0007,14.9323 64.2005,15.2493 64.3438,15.6309 C64.487,16.0124 64.5586,16.4583 64.5586,16.9688 L64.5586,17.4258 L59.4922,17.4258 L59.4922,16.3945 L62.9922,16.3945 C62.9922,16.1549 62.9401,15.9427 62.8359,15.7578 C62.7318,15.5729 62.5879,15.4277 62.4043,15.3223 C62.2207,15.2168 62.0078,15.1641 61.7656,15.1641 C61.513,15.1641 61.2897,15.222 61.0957,15.3379 C60.9017,15.4538 60.75,15.6087 60.6406,15.8027 C60.5313,15.9967 60.4753,16.2122 60.4727,16.4492 L60.4727,17.4297 C60.4727,17.7266 60.528,17.9831 60.6387,18.1992 C60.7493,18.4154 60.9063,18.582 61.1094,18.6992 C61.3125,18.8164 61.5534,18.875 61.832,18.875 C62.0169,18.875 62.1862,18.849 62.3398,18.7969 C62.4935,18.7448 62.625,18.6667 62.7344,18.5625 C62.8438,18.4583 62.9271,18.3307 62.9844,18.1797 L64.5234,18.2813 C64.4453,18.651 64.2858,18.9733 64.0449,19.248 C63.804,19.5228 63.4941,19.7363 63.1152,19.8887 C62.7363,20.041 62.2995,20.1172 61.8047,20.1172 M71.0547,14 L68.957,20 L67.082,20 L64.9844,14 L66.7422,14 L67.9883,18.293 L68.0508,18.293 L69.293,14 L71.0547,14 M71.8984,20 L71.8984,14 L73.5625,14 L73.5625,20 L71.8984,20 M72.7344,13.2266 C72.487,13.2266 72.2754,13.1439 72.0996,12.9785 C71.9238,12.8132 71.8359,12.6146 71.8359,12.3828 C71.8359,12.1536 71.9238,11.9564 72.0996,11.791 C72.2754,11.6257 72.487,11.543 72.7344,11.543 C72.9818,11.543 73.1934,11.6257 73.3691,11.791 C73.5449,11.9564 73.6328,12.1536 73.6328,12.3828 C73.6328,12.6146 73.5449,12.8132 73.3691,12.9785 C73.1934,13.1439 72.9818,13.2266 72.7344,13.2266 M77.5938,20.1172 C76.9792,20.1172 76.4512,19.9863 76.0098,19.7246 C75.5684,19.4629 75.2298,19.099 74.9941,18.6328 C74.7585,18.1667 74.6406,17.6302 74.6406,17.0234 C74.6406,16.4089 74.7598,15.8691 74.998,15.4043 C75.2363,14.9395 75.5755,14.5762 76.0156,14.3145 C76.4557,14.0527 76.9792,13.9219 77.5859,13.9219 C78.1094,13.9219 78.5677,14.0169 78.9609,14.207 C79.3542,14.3971 79.6654,14.6641 79.8945,15.0078 C80.1237,15.3516 80.25,15.7552 80.2734,16.2188 L78.7031,16.2188 C78.6589,15.9193 78.5423,15.6777 78.3535,15.4941 C78.1647,15.3105 77.918,15.2188 77.6133,15.2188 C77.3555,15.2188 77.1309,15.2884 76.9395,15.4277 C76.748,15.5671 76.599,15.7695 76.4922,16.0352 C76.3854,16.3008 76.332,16.6224 76.332,17 C76.332,17.3828 76.3848,17.7083 76.4902,17.9766 C76.5957,18.2448 76.7448,18.4492 76.9375,18.5898 C77.1302,18.7305 77.3555,18.8008 77.6133,18.8008 C77.8034,18.8008 77.9746,18.7617 78.127,18.6836 C78.2793,18.6055 78.4056,18.4915 78.5059,18.3418 C78.6061,18.1921 78.6719,18.0117 78.7031,17.8008 L80.2734,17.8008 C80.2474,18.2591 80.123,18.6621 79.9004,19.0098 C79.6777,19.3574 79.3711,19.6289 78.9805,19.8242 C78.5898,20.0195 78.1276,20.1172 77.5938,20.1172 M84.0703,20.1172 C83.4531,20.1172 82.9225,19.9915 82.4785,19.7402 C82.0345,19.4889 81.6927,19.1322 81.4531,18.6699 C81.2135,18.2077 81.0938,17.6602 81.0938,17.0273 C81.0938,16.4102 81.2135,15.8685 81.4531,15.4023 C81.6927,14.9362 82.0306,14.5729 82.4668,14.3125 C82.903,14.0521 83.4154,13.9219 84.0039,13.9219 C84.3997,13.9219 84.7689,13.985 85.1113,14.1113 C85.4538,14.2376 85.7533,14.4271 86.0098,14.6797 C86.2663,14.9323 86.4661,15.2493 86.6094,15.6309 C86.7526,16.0124 86.8242,16.4583 86.8242,16.9688 L86.8242,17.4258 L81.7578,17.4258 L81.7578,16.3945 L85.2578,16.3945 C85.2578,16.1549 85.2057,15.9427 85.1016,15.7578 C84.9974,15.5729 84.8535,15.4277 84.6699,15.3223 C84.4863,15.2168 84.2734,15.1641 84.0313,15.1641 C83.7786,15.1641 83.5553,15.222 83.3613,15.3379 C83.1673,15.4538 83.0156,15.6087 82.9063,15.8027 C82.7969,15.9967 82.7409,16.2122 82.7383,16.4492 L82.7383,17.4297 C82.7383,17.7266 82.7936,17.9831 82.9043,18.1992 C83.015,18.4154 83.1719,18.582 83.375,18.6992 C83.5781,18.8164 83.819,18.875 84.0977,18.875 C84.2826,18.875 84.4518,18.849 84.6055,18.7969 C84.7591,18.7448 84.8906,18.6667 85,18.5625 C85.1094,18.4583 85.1927,18.3307 85.25,18.1797 L86.7891,18.2813 C86.7109,18.651 86.5514,18.9733 86.3105,19.248 C86.0697,19.5228 85.7598,19.7363 85.3809,19.8887 C85.002,20.041 84.5651,20.1172 84.0703,20.1172 "/>
</g>

<g fill="#ffffff" fill-opacity="1" stroke="none" transform="matrix(1,0,0,1,0,0)"
font-family="Inter" font-size="11" font-weight="700" font-style="normal" 
>
<path vector-effect="none" fill-rule="nonzero" d="M141.109,19.5977 C140.727,19.5977 140.385,19.5306 140.086,19.3965 C139.786,19.2624 139.55,19.0632 139.377,18.7988 C139.204,18.5345 139.117,18.2044 139.117,17.8086 C139.117,17.4753 139.178,17.1953 139.301,16.9688 C139.423,16.7422 139.59,16.5599 139.801,16.4219 C140.012,16.2839 140.252,16.1797 140.521,16.1094 C140.791,16.0391 141.074,15.9896 141.371,15.9609 C141.72,15.9245 142.001,15.89 142.215,15.8574 C142.428,15.8249 142.583,15.776 142.68,15.7109 C142.776,15.6458 142.824,15.5495 142.824,15.4219 L142.824,15.3984 C142.824,15.151 142.747,14.9596 142.592,14.8242 C142.437,14.6888 142.217,14.6211 141.934,14.6211 C141.634,14.6211 141.396,14.6868 141.219,14.8184 C141.042,14.9499 140.924,15.1146 140.867,15.3125 L139.328,15.1875 C139.406,14.8229 139.56,14.5072 139.789,14.2402 C140.018,13.9733 140.314,13.7676 140.678,13.623 C141.041,13.4785 141.462,13.4063 141.941,13.4063 C142.275,13.4063 142.594,13.4453 142.9,13.5234 C143.206,13.6016 143.479,13.7227 143.717,13.8867 C143.955,14.0508 144.143,14.2611 144.281,14.5176 C144.419,14.7741 144.488,15.0807 144.488,15.4375 L144.488,19.4844 L142.91,19.4844 L142.91,18.6523 L142.863,18.6523 C142.767,18.8398 142.638,19.0046 142.477,19.1465 C142.315,19.2884 142.121,19.3991 141.895,19.4785 C141.668,19.5579 141.406,19.5977 141.109,19.5977 M141.586,18.4492 C141.831,18.4492 142.047,18.4004 142.234,18.3027 C142.422,18.2051 142.569,18.0729 142.676,17.9063 C142.783,17.7396 142.836,17.5508 142.836,17.3398 L142.836,16.7031 C142.784,16.737 142.713,16.7676 142.623,16.7949 C142.533,16.8223 142.432,16.847 142.32,16.8691 C142.208,16.8913 142.096,16.9108 141.984,16.9277 C141.872,16.9447 141.771,16.9596 141.68,16.9727 C141.484,17.0013 141.314,17.0469 141.168,17.1094 C141.022,17.1719 140.909,17.2559 140.828,17.3613 C140.747,17.4668 140.707,17.5977 140.707,17.7539 C140.707,17.9805 140.79,18.153 140.955,18.2715 C141.12,18.39 141.331,18.4492 141.586,18.4492 M148.484,19.6016 C147.87,19.6016 147.342,19.4707 146.9,19.209 C146.459,18.9473 146.12,18.5833 145.885,18.1172 C145.649,17.651 145.531,17.1146 145.531,16.5078 C145.531,15.8932 145.65,15.3535 145.889,14.8887 C146.127,14.4238 146.466,14.0605 146.906,13.7988 C147.346,13.5371 147.87,13.4063 148.477,13.4063 C149,13.4063 149.458,13.5013 149.852,13.6914 C150.245,13.8815 150.556,14.1484 150.785,14.4922 C151.014,14.8359 151.141,15.2396 151.164,15.7031 L149.594,15.7031 C149.549,15.4036 149.433,15.1621 149.244,14.9785 C149.055,14.7949 148.809,14.7031 148.504,14.7031 C148.246,14.7031 148.021,14.7728 147.83,14.9121 C147.639,15.0514 147.49,15.2539 147.383,15.5195 C147.276,15.7852 147.223,16.1068 147.223,16.4844 C147.223,16.8672 147.275,17.1927 147.381,17.4609 C147.486,17.7292 147.635,17.9336 147.828,18.0742 C148.021,18.2148 148.246,18.2852 148.504,18.2852 C148.694,18.2852 148.865,18.2461 149.018,18.168 C149.17,18.0898 149.296,17.9759 149.396,17.8262 C149.497,17.6764 149.563,17.4961 149.594,17.2852 L151.164,17.2852 C151.138,17.7435 151.014,18.1465 150.791,18.4941 C150.568,18.8418 150.262,19.1133 149.871,19.3086 C149.48,19.5039 149.018,19.6016 148.484,19.6016 M154.938,19.6016 C154.323,19.6016 153.795,19.4707 153.354,19.209 C152.912,18.9473 152.574,18.5833 152.338,18.1172 C152.102,17.651 151.984,17.1146 151.984,16.5078 C151.984,15.8932 152.104,15.3535 152.342,14.8887 C152.58,14.4238 152.919,14.0605 153.359,13.7988 C153.799,13.5371 154.323,13.4063 154.93,13.4063 C155.453,13.4063 155.911,13.5013 156.305,13.6914 C156.698,13.8815 157.009,14.1484 157.238,14.4922 C157.467,14.8359 157.594,15.2396 157.617,15.7031 L156.047,15.7031 C156.003,15.4036 155.886,15.1621 155.697,14.9785 C155.508,14.7949 155.262,14.7031 154.957,14.7031 C154.699,14.7031 154.475,14.7728 154.283,14.9121 C154.092,15.0514 153.943,15.2539 153.836,15.5195 C153.729,15.7852 153.676,16.1068 153.676,16.4844 C153.676,16.8672 153.729,17.1927 153.834,17.4609 C153.939,17.7292 154.089,17.9336 154.281,18.0742 C154.474,18.2148 154.699,18.2852 154.957,18.2852 C155.147,18.2852 155.318,18.2461 155.471,18.168 C155.623,18.0898 155.749,17.9759 155.85,17.8262 C155.95,17.6764 156.016,17.4961 156.047,17.2852 L157.617,17.2852 C157.591,17.7435 157.467,18.1465 157.244,18.4941 C157.021,18.8418 156.715,19.1133 156.324,19.3086 C155.934,19.5039 155.471,19.6016 154.938,19.6016 M161.414,19.6016 C160.797,19.6016 160.266,19.4759 159.822,19.2246 C159.378,18.9733 159.036,18.6165 158.797,18.1543 C158.557,17.6921 158.438,17.1445 158.438,16.5117 C158.438,15.8945 158.557,15.3529 158.797,14.8867 C159.036,14.4206 159.374,14.0573 159.811,13.7969 C160.247,13.5365 160.759,13.4063 161.348,13.4063 C161.743,13.4063 162.113,13.4694 162.455,13.5957 C162.798,13.722 163.097,13.9115 163.354,14.1641 C163.61,14.4167 163.81,14.7337 163.953,15.1152 C164.096,15.4967 164.168,15.9427 164.168,16.4531 L164.168,16.9102 L159.102,16.9102 L159.102,15.8789 L162.602,15.8789 C162.602,15.6393 162.549,15.4271 162.445,15.2422 C162.341,15.0573 162.197,14.9121 162.014,14.8066 C161.83,14.7012 161.617,14.6484 161.375,14.6484 C161.122,14.6484 160.899,14.7064 160.705,14.8223 C160.511,14.9382 160.359,15.0931 160.25,15.2871 C160.141,15.4811 160.085,15.6966 160.082,15.9336 L160.082,16.9141 C160.082,17.2109 160.137,17.4674 160.248,17.6836 C160.359,17.8997 160.516,18.0664 160.719,18.1836 C160.922,18.3008 161.163,18.3594 161.441,18.3594 C161.626,18.3594 161.796,18.3333 161.949,18.2813 C162.103,18.2292 162.234,18.151 162.344,18.0469 C162.453,17.9427 162.536,17.8151 162.594,17.6641 L164.133,17.7656 C164.055,18.1354 163.895,18.4577 163.654,18.7324 C163.413,19.0072 163.104,19.2207 162.725,19.373 C162.346,19.5254 161.909,19.6016 161.414,19.6016 M166.906,11.4844 L166.906,19.4844 L165.242,19.4844 L165.242,11.4844 L166.906,11.4844 M170.961,19.6016 C170.344,19.6016 169.813,19.4759 169.369,19.2246 C168.925,18.9733 168.583,18.6165 168.344,18.1543 C168.104,17.6921 167.984,17.1445 167.984,16.5117 C167.984,15.8945 168.104,15.3529 168.344,14.8867 C168.583,14.4206 168.921,14.0573 169.357,13.7969 C169.794,13.5365 170.306,13.4063 170.895,13.4063 C171.29,13.4063 171.66,13.4694 172.002,13.5957 C172.344,13.722 172.644,13.9115 172.9,14.1641 C173.157,14.4167 173.357,14.7337 173.5,15.1152 C173.643,15.4967 173.715,15.9427 173.715,16.4531 L173.715,16.9102 L168.648,16.9102 L168.648,15.8789 L172.148,15.8789 C172.148,15.6393 172.096,15.4271 171.992,15.2422 C171.888,15.0573 171.744,14.9121 171.561,14.8066 C171.377,14.7012 171.164,14.6484 170.922,14.6484 C170.669,14.6484 170.446,14.7064 170.252,14.8223 C170.058,14.9382 169.906,15.0931 169.797,15.2871 C169.688,15.4811 169.632,15.6966 169.629,15.9336 L169.629,16.9141 C169.629,17.2109 169.684,17.4674 169.795,17.6836 C169.906,17.8997 170.063,18.0664 170.266,18.1836 C170.469,18.3008 170.71,18.3594 170.988,18.3594 C171.173,18.3594 171.342,18.3333 171.496,18.2813 C171.65,18.2292 171.781,18.151 171.891,18.0469 C172,17.9427 172.083,17.8151 172.141,17.6641 L173.68,17.7656 C173.602,18.1354 173.442,18.4577 173.201,18.7324 C172.96,19.0072 172.65,19.2207 172.271,19.373 C171.893,19.5254 171.456,19.6016 170.961,19.6016 M174.789,19.4844 L174.789,13.4844 L176.402,13.4844 L176.402,14.5313 L176.465,14.5313 C176.574,14.1589 176.758,13.877 177.016,13.6855 C177.273,13.4941 177.57,13.3984 177.906,13.3984 C177.99,13.3984 178.079,13.4036 178.176,13.4141 C178.272,13.4245 178.357,13.4388 178.43,13.457 L178.43,14.9336 C178.352,14.9102 178.243,14.8893 178.105,14.8711 C177.967,14.8529 177.841,14.8438 177.727,14.8438 C177.482,14.8438 177.264,14.8965 177.072,15.002 C176.881,15.1074 176.73,15.2539 176.619,15.4414 C176.508,15.6289 176.453,15.8451 176.453,16.0898 L176.453,19.4844 L174.789,19.4844 M180.813,19.5977 C180.43,19.5977 180.089,19.5306 179.789,19.3965 C179.49,19.2624 179.253,19.0632 179.08,18.7988 C178.907,18.5345 178.82,18.2044 178.82,17.8086 C178.82,17.4753 178.882,17.1953 179.004,16.9688 C179.126,16.7422 179.293,16.5599 179.504,16.4219 C179.715,16.2839 179.955,16.1797 180.225,16.1094 C180.494,16.0391 180.777,15.9896 181.074,15.9609 C181.423,15.9245 181.704,15.89 181.918,15.8574 C182.132,15.8249 182.286,15.776 182.383,15.7109 C182.479,15.6458 182.527,15.5495 182.527,15.4219 L182.527,15.3984 C182.527,15.151 182.45,14.9596 182.295,14.8242 C182.14,14.6888 181.921,14.6211 181.637,14.6211 C181.337,14.6211 181.099,14.6868 180.922,14.8184 C180.745,14.9499 180.628,15.1146 180.57,15.3125 L179.031,15.1875 C179.109,14.8229 179.263,14.5072 179.492,14.2402 C179.721,13.9733 180.018,13.7676 180.381,13.623 C180.744,13.4785 181.165,13.4063 181.645,13.4063 C181.978,13.4063 182.298,13.4453 182.604,13.5234 C182.91,13.6016 183.182,13.7227 183.42,13.8867 C183.658,14.0508 183.846,14.2611 183.984,14.5176 C184.122,14.7741 184.191,15.0807 184.191,15.4375 L184.191,19.4844 L182.613,19.4844 L182.613,18.6523 L182.566,18.6523 C182.47,18.8398 182.341,19.0046 182.18,19.1465 C182.018,19.2884 181.824,19.3991 181.598,19.4785 C181.371,19.5579 181.109,19.5977 180.813,19.5977 M181.289,18.4492 C181.534,18.4492 181.75,18.4004 181.938,18.3027 C182.125,18.2051 182.272,18.0729 182.379,17.9063 C182.486,17.7396 182.539,17.5508 182.539,17.3398 L182.539,16.7031 C182.487,16.737 182.416,16.7676 182.326,16.7949 C182.236,16.8223 182.135,16.847 182.023,16.8691 C181.911,16.8913 181.799,16.9108 181.688,16.9277 C181.576,16.9447 181.474,16.9596 181.383,16.9727 C181.188,17.0013 181.017,17.0469 180.871,17.1094 C180.725,17.1719 180.612,17.2559 180.531,17.3613 C180.451,17.4668 180.41,17.5977 180.41,17.7539 C180.41,17.9805 180.493,18.153 180.658,18.2715 C180.824,18.39 181.034,18.4492 181.289,18.4492 M188.668,13.4844 L188.668,14.7344 L185.055,14.7344 L185.055,13.4844 L188.668,13.4844 M185.875,12.0469 L187.539,12.0469 L187.539,17.6406 C187.539,17.7943 187.563,17.9134 187.609,17.998 C187.656,18.0827 187.722,18.1419 187.807,18.1758 C187.891,18.2096 187.99,18.2266 188.102,18.2266 C188.18,18.2266 188.258,18.2194 188.336,18.2051 C188.414,18.1908 188.474,18.1797 188.516,18.1719 L188.777,19.4102 C188.694,19.4362 188.577,19.4668 188.426,19.502 C188.275,19.5371 188.091,19.5586 187.875,19.5664 C187.474,19.582 187.123,19.5286 186.822,19.4063 C186.521,19.2839 186.288,19.0938 186.121,18.8359 C185.954,18.5781 185.872,18.2526 185.875,17.8594 L185.875,12.0469 M189.742,19.4844 L189.742,13.4844 L191.406,13.4844 L191.406,19.4844 L189.742,19.4844 M190.578,12.7109 C190.331,12.7109 190.119,12.6283 189.943,12.4629 C189.768,12.2975 189.68,12.099 189.68,11.8672 C189.68,11.638 189.768,11.4408 189.943,11.2754 C190.119,11.11 190.331,11.0273 190.578,11.0273 C190.826,11.0273 191.037,11.11 191.213,11.2754 C191.389,11.4408 191.477,11.638 191.477,11.8672 C191.477,12.099 191.389,12.2975 191.213,12.4629 C191.037,12.6283 190.826,12.7109 190.578,12.7109 M195.438,19.6016 C194.831,19.6016 194.307,19.472 193.865,19.2129 C193.424,18.9538 193.083,18.5918 192.844,18.127 C192.604,17.6621 192.484,17.1224 192.484,16.5078 C192.484,15.888 192.604,15.3457 192.844,14.8809 C193.083,14.416 193.424,14.054 193.865,13.7949 C194.307,13.5358 194.831,13.4063 195.438,13.4063 C196.044,13.4063 196.568,13.5358 197.01,13.7949 C197.451,14.054 197.792,14.416 198.031,14.8809 C198.271,15.3457 198.391,15.888 198.391,16.5078 C198.391,17.1224 198.271,17.6621 198.031,18.127 C197.792,18.5918 197.451,18.9538 197.01,19.2129 C196.568,19.472 196.044,19.6016 195.438,19.6016 M195.445,18.3125 C195.721,18.3125 195.952,18.2337 196.137,18.0762 C196.322,17.9186 196.462,17.7031 196.557,17.4297 C196.652,17.1563 196.699,16.8451 196.699,16.4961 C196.699,16.1471 196.652,15.8359 196.557,15.5625 C196.462,15.2891 196.322,15.0729 196.137,14.9141 C195.952,14.7552 195.721,14.6758 195.445,14.6758 C195.167,14.6758 194.933,14.7552 194.744,14.9141 C194.555,15.0729 194.413,15.2891 194.318,15.5625 C194.223,15.8359 194.176,16.1471 194.176,16.4961 C194.176,16.8451 194.223,17.1563 194.318,17.4297 C194.413,17.7031 194.555,17.9186 194.744,18.0762 C194.933,18.2337 195.167,18.3125 195.445,18.3125 M201.141,16.0156 L201.141,19.4844 L199.477,19.4844 L199.477,13.4844 L201.063,13.4844 L201.063,14.543 L201.133,14.543 C201.266,14.194 201.488,13.9173 201.801,13.7129 C202.113,13.5085 202.492,13.4063 202.938,13.4063 C203.354,13.4063 203.717,13.4974 204.027,13.6797 C204.337,13.862 204.578,14.1217 204.75,14.459 C204.922,14.7962 205.008,15.1979 205.008,15.6641 L205.008,19.4844 L203.344,19.4844 L203.344,15.9609 C203.346,15.5938 203.253,15.3066 203.063,15.0996 C202.872,14.8926 202.611,14.7891 202.277,14.7891 C202.053,14.7891 201.856,14.8372 201.686,14.9336 C201.515,15.0299 201.382,15.1699 201.287,15.3535 C201.192,15.5371 201.143,15.7578 201.141,16.0156 M209.219,16.2773 C209.219,15.3086 209.348,14.4167 209.607,13.6016 C209.867,12.7865 210.263,12.0313 210.797,11.3359 L212.387,11.3359 C212.184,11.5938 211.995,11.9082 211.82,12.2793 C211.646,12.6504 211.493,13.0573 211.363,13.5 C211.233,13.9427 211.132,14.4004 211.059,14.873 C210.986,15.3457 210.949,15.8138 210.949,16.2773 C210.949,16.8945 211.012,17.5176 211.139,18.1465 C211.265,18.7754 211.437,19.3594 211.654,19.8984 C211.872,20.4375 212.116,20.8789 212.387,21.2227 L210.797,21.2227 C210.263,20.5273 209.867,19.7721 209.607,18.957 C209.348,18.1419 209.219,17.2487 209.219,16.2773 M213.352,19.4844 L213.352,13.4844 L214.938,13.4844 L214.938,14.543 L215.008,14.543 C215.133,14.1914 215.341,13.9141 215.633,13.7109 C215.924,13.5078 216.273,13.4063 216.68,13.4063 C217.091,13.4063 217.441,13.5085 217.73,13.7129 C218.02,13.9173 218.212,14.194 218.309,14.543 L218.371,14.543 C218.493,14.1992 218.715,13.9238 219.037,13.7168 C219.359,13.5098 219.74,13.4063 220.18,13.4063 C220.74,13.4063 221.195,13.584 221.545,13.9395 C221.895,14.2949 222.07,14.7982 222.07,15.4492 L222.07,19.4844 L220.41,19.4844 L220.41,15.7773 C220.41,15.444 220.322,15.194 220.145,15.0273 C219.967,14.8607 219.746,14.7773 219.48,14.7773 C219.178,14.7773 218.943,14.873 218.773,15.0645 C218.604,15.2559 218.52,15.5078 218.52,15.8203 L218.52,19.4844 L216.906,19.4844 L216.906,15.7422 C216.906,15.4479 216.822,15.2135 216.654,15.0391 C216.486,14.8646 216.266,14.7773 215.992,14.7773 C215.807,14.7773 215.641,14.8236 215.494,14.916 C215.347,15.0085 215.23,15.1374 215.145,15.3027 C215.059,15.4681 215.016,15.6615 215.016,15.8828 L215.016,19.4844 L213.352,19.4844 M226.867,11.1094 L224.289,20.6875 L222.855,20.6875 L225.434,11.1094 L226.867,11.1094 M232.656,15.1953 L231.133,15.2891 C231.107,15.1589 231.051,15.041 230.965,14.9355 C230.879,14.8301 230.766,14.7454 230.627,14.6816 C230.488,14.6178 230.322,14.5859 230.129,14.5859 C229.871,14.5859 229.654,14.64 229.477,14.748 C229.299,14.8561 229.211,15 229.211,15.1797 C229.211,15.3229 229.268,15.444 229.383,15.543 C229.497,15.6419 229.694,15.7214 229.973,15.7813 L231.059,16 C231.642,16.1198 232.077,16.3125 232.363,16.5781 C232.65,16.8438 232.793,17.1927 232.793,17.625 C232.793,18.0182 232.678,18.3633 232.447,18.6602 C232.217,18.957 231.902,19.1882 231.502,19.3535 C231.102,19.5189 230.642,19.6016 230.121,19.6016 C229.327,19.6016 228.695,19.4355 228.225,19.1035 C227.755,18.7715 227.479,18.319 227.398,17.7461 L229.035,17.6602 C229.085,17.9023 229.204,18.0866 229.395,18.2129 C229.585,18.3392 229.828,18.4023 230.125,18.4023 C230.417,18.4023 230.652,18.3457 230.83,18.2324 C231.008,18.1191 231.099,17.9727 231.102,17.793 C231.099,17.6419 231.035,17.5176 230.91,17.4199 C230.785,17.3223 230.592,17.2474 230.332,17.1953 L229.293,16.9883 C228.707,16.8711 228.271,16.668 227.986,16.3789 C227.701,16.0898 227.559,15.7214 227.559,15.2734 C227.559,14.888 227.663,14.556 227.873,14.2773 C228.083,13.9987 228.378,13.7839 228.76,13.6328 C229.141,13.4818 229.589,13.4063 230.102,13.4063 C230.859,13.4063 231.456,13.5664 231.893,13.8867 C232.329,14.207 232.583,14.6432 232.656,15.1953 M233.652,15.4844 L233.652,14.6211 L235.555,13.1016 C235.701,12.9818 235.827,12.8737 235.934,12.7773 C236.04,12.681 236.124,12.5833 236.184,12.4844 C236.243,12.3854 236.273,12.276 236.273,12.1563 C236.273,11.9688 236.197,11.8242 236.043,11.7227 C235.889,11.6211 235.703,11.5703 235.484,11.5703 C235.25,11.5703 235.062,11.627 234.92,11.7402 C234.778,11.8535 234.707,12.0169 234.707,12.2305 L233.555,12.2305 C233.555,11.7305 233.737,11.3379 234.102,11.0527 C234.466,10.7676 234.932,10.625 235.5,10.625 C235.888,10.625 236.225,10.6921 236.512,10.8262 C236.798,10.9603 237.02,11.1419 237.178,11.3711 C237.335,11.6003 237.414,11.8568 237.414,12.1406 C237.414,12.3698 237.367,12.5827 237.271,12.7793 C237.176,12.9759 237.031,13.1686 236.834,13.3574 C236.637,13.5462 236.384,13.7435 236.074,13.9492 L235.379,14.4648 L235.379,14.5078 L237.469,14.5078 L237.469,15.4844 L233.652,15.4844 M241.297,16.2773 C241.297,17.2487 241.167,18.1419 240.908,18.957 C240.649,19.7721 240.253,20.5273 239.719,21.2227 L238.129,21.2227 C238.332,20.9648 238.521,20.6497 238.695,20.2773 C238.87,19.9049 239.022,19.498 239.152,19.0566 C239.283,18.6152 239.384,18.1576 239.457,17.6836 C239.53,17.2096 239.566,16.7409 239.566,16.2773 C239.566,15.6602 239.503,15.0371 239.377,14.4082 C239.251,13.7793 239.079,13.196 238.861,12.6582 C238.644,12.1204 238.4,11.6797 238.129,11.3359 L239.719,11.3359 C240.253,12.0313 240.649,12.7865 240.908,13.6016 C241.167,14.4167 241.297,15.3086 241.297,16.2773 "/>
</g>

<g fill="#ffffff" fill-opacity="1" stroke="none" transform="matrix(0.875,0,0,0.875,12.5,5.5)"
font-family="Inter" font-size="11" font-weight="700" font-style="normal" 
>
<path vector-effect="none" fill-rule="nonzero" d="M19.3477,2.17556 C19.3477,1.1655 18.5345,0.352295 17.5245,0.352295 L15.421,0.352295 C15.3967,0.978115 14.8864,1.65501 14.2544,1.65501 L9.74561,1.65501 C9.11363,1.65501 8.60331,0.978115 8.579,0.352295 L6.47555,0.352295 C5.46549,0.352295 4.65234,1.1655 4.65234,2.17556 L4.65234,21.8245 C4.65234,22.8346 5.46549,23.6477 6.47555,23.6477 L17.5245,23.6477 C18.5345,23.6477 19.3477,22.8346 19.3477,21.8245 L19.3477,2.17556"/>
</g>

<g fill="none" stroke="#000000" stroke-opacity="1" stroke-width="0.54" stroke-linecap="butt" stroke-linejoin="miter" stroke-miterlimit="4" transform="matrix(0.875,0,0,0.875,12.5,5.5)"
font-family="Inter" font-size="11" font-weight="700" font-style="normal" 
>
<path vector-effect="none" fill-rule="nonzero" d="M19.3477,2.17556 C19.3477,1.1655 18.5345,0.352295 17.5245,0.352295 L15.421,0.352295 C15.3967,0.978115 14.8864,1.65501 14.2544,1.65501 L9.74561,1.65501 C9.11363,1.65501 8.60331,0.978115 8.579,0.352295 L6.47555,0.352295 C5.46549,0.352295 4.65234,1.1655 4.65234,2.17556 L4.65234,21.8245 C4.65234,22.8346 5.46549,23.6477 6.47555,23.6477 L17.5245,23.6477 C18.5345,23.6477 19.3477,22.8346 19.3477,21.8245 L19.3477,2.17556"/>
</g>

<g fill="#000000" fill-opacity="1" stroke="none" transform="matrix(0.875,0,0,0.875,12.5,5.5)"
font-family="Inter" font-size="11" font-weight="700" font-style="normal" 
>
<path vector-effect="none" fill-rule="nonzero" d="M8.55279,0.0832003 L15.2156,0.078175 L15.1496,1.19313 L14.4976,1.7259 L10.969,1.6815 L9.31986,1.6371 L8.82126,1.01554 L8.55279,0.0832003"/>
</g>

<g fill="#000000" fill-opacity="1" stroke="none" transform="matrix(0.875,0,0,0.875,12.5,5.5)"
font-family="Inter" font-size="11" font-weight="700" font-style="normal" 
>
<path vector-effect="none" fill-rule="evenodd" d="M6.11071,8.3594 C6.11071,7.88539 6.49497,7.50113 6.96898,7.50113 L8.25014,7.50113 C8.72415,7.50113 9.10842,7.88539 9.10842,8.3594 L9.10842,9.64056 C9.10842,10.1146 8.72415,10.4988 8.25014,10.4988 L6.96898,10.4988 C6.49497,10.4988 6.11071,10.1146 6.11071,9.64056 L6.11071,8.3594"/>
</g>

<g fill="#000000" fill-opacity="1" stroke="none" transform="matrix(0.875,0,0,0.875,12.5,5.5)"
font-family="Inter" font-size="11" font-weight="700" font-style="normal" 
>
<path vector-effect="none" fill-rule="evenodd" d="M10.5496,8.3594 C10.5496,7.88539 10.9339,7.50113 11.4079,7.50113 L12.6891,7.50113 C13.1631,7.50113 13.5473,7.88539 13.5473,8.3594 L13.5473,9.64056 C13.5473,10.1146 13.1631,10.4988 12.6891,10.4988 L11.4079,10.4988 C10.9339,10.4988 10.5496,10.1146 10.5496,9.64056 L10.5496,8.3594"/>
</g>

<g fill="#000000" fill-opacity="1" stroke="none" transform="matrix(0.875,0,0,0.875,12.5,5.5)"
font-family="Inter" font-size="11" font-weight="700" font-style="normal" 
>
<path vector-effect="none" fill-rule="evenodd" d="M15.0174,8.35023 C15.0174,7.87622 15.4016,7.49196 15.8756,7.49196 L17.1568,7.49196 C17.6308,7.49196 18.0151,7.87622 18.0151,8.35023 L18.0151,9.63139 C18.0151,10.1054 17.6308,10.4897 17.1568,10.4897 L15.8756,10.4897 C15.4016,10.4897 15.0174,10.1054 15.0174,9.63139 L15.0174,8.35023"/>
</g>

<g fill="#000000" fill-opacity="1" stroke="none" transform="matrix(0.875,0,0,0.875,12.5,5.5)"
font-family="Inter" font-size="11" font-weight="700" font-style="normal" 
>
<path vector-effect="none" fill-rule="evenodd" d="M6.0963,12.6784 C6.0963,12.2044 6.48056,11.8202 6.95457,11.8202 L8.23573,11.8202 C8.70974,11.8202 9.094,12.2044 9.094,12.6784 L9.094,13.9596 C9.094,14.4336 8.70974,14.8179 8.23573,14.8179 L6.95457,14.8179 C6.48056,14.8179 6.0963,14.4336 6.0963,13.9596 L6.0963,12.6784"/>
</g>

<g fill="#000000" fill-opacity="1" stroke="none" transform="matrix(0.875,0,0,0.875,12.5,5.5)"
font-family="Inter" font-size="11" font-weight="700" font-style="normal" 
>
<path vector-effect="none" fill-rule="evenodd" d="M10.5352,12.6784 C10.5352,12.2044 10.9195,11.8202 11.3935,11.8202 L12.6746,11.8202 C13.1487,11.8202 13.5329,12.2044 13.5329,12.6784 L13.5329,13.9596 C13.5329,14.4336 13.1487,14.8179 12.6746,14.8179 L11.3935,14.8179 C10.9195,14.8179 10.5352,14.4336 10.5352,13.9596 L10.5352,12.6784"/>
</g>

<g fill="#000000" fill-opacity="1" stroke="none" transform="matrix(0.875,0,0,0.875,12.5,5.5)"
font-family="Inter" font-size="11" font-weight="700" font-style="normal" 
>
<path vector-effect="none" fill-rule="evenodd" d="M15.0029,12.6693 C15.0029,12.1952 15.3872,11.811 15.8612,11.811 L17.1424,11.811 C17.6164,11.811 18.0007,12.1952 18.0007,12.6693 L18.0007,13.9504 C18.0007,14.4244 17.6164,14.8087 17.1424,14.8087 L15.8612,14.8087 C15.3872,14.8087 15.0029,14.4244 15.0029,13.9504 L15.0029,12.6693"/>
</g>

<g fill="#000000" fill-opacity="1" stroke="none" transform="matrix(0.875,0,0,0.875,12.5,5.5)"
font-family="Inter" font-size="11" font-weight="700" font-style="normal" 
>
<path vector-effect="none" fill-rule="evenodd" d="M6.08909,20.0932 C6.08909,19.6192 6.47335,19.2349 6.94737,19.2349 L8.22852,19.2349 C8.70253,19.2349 9.0868,19.6192 9.0868,20.0932 L9.0868,21.3744 C9.0868,21.8484 8.70253,22.2326 8.22852,22.2326 L6.94737,22.2326 C6.47335,22.2326 6.08909,21.8484 6.08909,21.3744 L6.08909,20.0932"/>
</g>

<g fill="#000000" fill-opacity="1" stroke="none" transform="matrix(0.875,0,0,0.875,12.5,5.5)"
font-family="Inter" font-size="11" font-weight="700" font-style="normal" 
>
<path vector-effect="none" fill-rule="evenodd" d="M10.528,20.0932 C10.528,19.6192 10.9123,19.2349 11.3863,19.2349 L12.6674,19.2349 C13.1414,19.2349 13.5257,19.6192 13.5257,20.0932 L13.5257,21.3744 C13.5257,21.8484 13.1414,22.2326 12.6674,22.2326 L11.3863,22.2326 C10.9123,22.2326 10.528,21.8484 10.528,21.3744 L10.528,20.0932"/>
</g>

<g fill="#000000" fill-opacity="1" stroke="none" transform="matrix(0.875,0,0,0.875,12.5,5.5)"
font-family="Inter" font-size="11" font-weight="700" font-style="normal" 
>
<path vector-effect="none" fill-rule="evenodd" d="M14.9957,20.084 C14.9957,19.61 15.38,19.2258 15.854,19.2258 L17.1352,19.2258 C17.6092,19.2258 17.9934,19.61 17.9934,20.084 L17.9934,21.3652 C17.9934,21.8392 17.6092,22.2235 17.1352,22.2235 L15.854,22.2235 C15.38,22.2235 14.9957,21.8392 14.9957,21.3652 L14.9957,20.084"/>
</g>

<g fill="#000000" fill-opacity="1" stroke="none" transform="matrix(0.875,0,0,0.875,12.5,5.5)"
font-family="Inter" font-size="11" font-weight="700" font-style="normal" 
>
<path vector-effect="none" fill-rule="evenodd" d="M6.0963,3.97357 C6.0963,3.49956 6.48056,3.1153 6.95457,3.1153 L8.23573,3.1153 C8.70974,3.1153 9.094,3.49956 9.094,3.97357 L9.094,5.25473 C9.094,5.72874 8.70974,6.11301 8.23573,6.11301 L6.95457,6.11301 C6.48056,6.11301 6.0963,5.72874 6.0963,5.25473 L6.0963,3.97357"/>
</g>

<g fill="#000000" fill-opacity="1" stroke="none" transform="matrix(0.875,0,0,0.875,12.5,5.5)"
font-family="Inter" font-size="11" font-weight="700" font-style="normal" 
>
<path vector-effect="none" fill-rule="evenodd" d="M10.5352,3.97357 C10.5352,3.49956 10.9195,3.1153 11.3935,3.1153 L12.6746,3.1153 C13.1487,3.1153 13.5329,3.49956 13.5329,3.97357 L13.5329,5.25473 C13.5329,5.72874 13.1487,6.11301 12.6746,6.11301 L11.3935,6.11301 C10.9195,6.11301 10.5352,5.72874 10.5352,5.25473 L10.5352,3.97357"/>
</g>

<g fill="#000000" fill-opacity="1" stroke="none" transform="matrix(0.875,0,0,0.875,12.5,5.5)"
font-family="Inter" font-size="11" font-weight="700" font-style="normal" 
>
<path vector-effect="none" fill-rule="evenodd" d="M15.0029,3.9644 C15.0029,3.49039 15.3872,3.10613 15.8612,3.10613 L17.1424,3.10613 C17.6164,3.10613 18.0007,3.49039 18.0007,3.9644 L18.0007,5.24556 C18.0007,5.71957 17.6164,6.10383 17.1424,6.10383 L15.8612,6.10383 C15.3872,6.10383 15.0029,5.71957 15.0029,5.24556 L15.0029,3.9644"/>
</g>

<g fill="#000000" fill-opacity="1" stroke="none" transform="matrix(0.875,0,0,0.875,12.1889,9.91)"
font-family="Inter" font-size="11" font-weight="700" font-style="normal" 
>
<path vector-effect="none" fill-rule="nonzero" d="M11.5955,12 C11.5955,12.1541 11.4706,12.2791 11.3165,12.2791 C11.1624,12.2791 11.0374,12.1542 11.0374,12 C11.0374,11.8459 11.1623,11.721 11.3164,11.7209 C11.4705,11.7209 11.5955,11.8458 11.5955,11.9999 "/>
</g>

<g fill="#000000" fill-opacity="1" stroke="none" transform="matrix(0.875,0,0,0.875,12.1889,9.91)"
font-family="Inter" font-size="11" font-weight="700" font-style="normal" 
>
<path vector-effect="none" fill-rule="nonzero" d="M12.9831,12 C12.9831,12.1541 12.8581,12.2791 12.704,12.2791 C12.5499,12.2791 12.425,12.1542 12.4249,12 C12.4249,11.8459 12.5498,11.721 12.7039,11.7209 C12.8581,11.7209 12.983,11.8458 12.9831,11.9999 "/>
</g>

<g fill="#000000" fill-opacity="1" stroke="none" transform="matrix(0.875,0,0,0.875,12.1889,9.91)"
font-family="Inter" font-size="11" font-weight="700" font-style="normal" 
>
<path vector-effect="none" fill-rule="nonzero" d="M13.6738,12 C13.6738,12.1541 13.5488,12.2791 13.3947,12.2791 C13.2406,12.2791 13.1156,12.1542 13.1156,12 C13.1156,11.8459 13.2405,11.721 13.3946,11.7209 C13.5487,11.7209 13.6737,11.8458 13.6738,11.9999 "/>
</g>

<g fill="#000000" fill-opacity="1" stroke="none" transform="matrix(0.875,0,0,0.875,12.1889,9.91)"
font-family="Inter" font-size="11" font-weight="700" font-style="normal" 
>
<path vector-effect="none" fill-rule="nonzero" d="M12.2791,12 C12.2791,12.1541 12.1541,12.2791 12,12.2791 C11.8459,12.2791 11.7209,12.1542 11.7209,12 C11.7209,11.8459 11.8458,11.721 11.9999,11.7209 C12.1541,11.7209 12.279,11.8458 12.2791,11.9999 "/>
</g>

<g fill="#ffffff" fill-opacity="1" stroke="none" transform="matrix(1,0,0,1,0,0)"
font-family="Inter" font-size="11" font-weight="700" font-style="normal" 
>
</g>

<g fill="#ffffff" fill-opacity="1" stroke="#0da6c5" stroke-opacity="1" stroke-width="1" stroke-linecap="square" stroke-linejoin="bevel" transform="matrix(1,0,0,1,0,0)"
font-family="Inter" font-size="11" font-weight="700" font-style="normal" 
>
<polyline fill="none" vector-effect="none" points="45,6 45,26 " />
</g>

<g fill="#1dccf0" fill-opacity="1" stroke="#0da6c5" stroke-opacity="1" stroke-width="1.2" stroke-linecap="square" stroke-linejoin="bevel" transform="matrix(1,0,0,1,93,4)"
font-family="Inter" font-size="11" font-weight="700" font-style="normal" 
>
<path vector-effect="none" fill-rule="evenodd" d="M0.5,3.5 C0.5,1.84315 1.84315,0.5 3.5,0.5 L36.5,0.5 C38.1569,0.5 39.5,1.84315 39.5,3.5 L39.5,20.5 C39.5,22.1569 38.1569,23.5 36.5,23.5 L3.5,23.5 C1.84315,23.5 0.5,22.1569 0.5,20.5 L0.5,3.5"/>
</g>

<g fill="#ffffff" fill-opacity="1" stroke="none" transform="matrix(1,0,0,1,93,4)"
font-family="Inter" font-size="11" font-weight="700" font-style="normal" 
>
<path vector-effect="none" fill-rule="nonzero" d="M12.7891,9 L13.8906,11.0977 L15.0195,9 L16.7266,9 L14.9883,12 L16.7734,15 L15.0742,15 L13.8906,12.9258 L12.7266,15 L11.0078,15 L12.7891,12 L11.0703,9 L12.7891,9"/>
</g>

<g fill="#ffffff" fill-opacity="1" stroke="none" transform="matrix(0.03125,0,0,0.03125,119,12)"
font-family="Inter" font-size="11" font-weight="700" font-style="normal" 
>
<path vector-effect="none" fill-rule="nonzero" d="M111.326,191.938 C120.545,201.158 135.517,201.158 144.737,191.938 L239.144,97.5313 C245.929,90.7458 247.921,80.6413 244.233,71.7907 C240.545,62.9401 231.989,57.1871 222.401,57.1871 L33.5875,57.2608 C24.0731,57.2608 15.4437,63.0137 11.7559,71.8644 C8.06815,80.715 10.1333,90.8195 16.845,97.605 L111.252,192.012 L111.326,191.938"/>
</g>

<g fill="none" stroke="#000000" stroke-opacity="1" stroke-width="13.7195" stroke-linecap="butt" stroke-linejoin="miter" stroke-miterlimit="4" transform="matrix(0.03125,0,0,0.03125,119,12)"
font-family="Inter" font-size="11" font-weight="700" font-style="normal" 
>
<path vector-effect="none" fill-rule="nonzero" d="M111.326,191.938 C120.545,201.158 135.517,201.158 144.737,191.938 L239.144,97.5313 C245.929,90.7458 247.921,80.6413 244.233,71.7907 C240.545,62.9401 231.989,57.1871 222.401,57.1871 L33.5875,57.2608 C24.0731,57.2608 15.4437,63.0137 11.7559,71.8644 C8.06815,80.715 10.1333,90.8195 16.845,97.605 L111.252,192.012 L111.326,191.938"/>
</g>

<g fill="#ffffff" fill-opacity="1" stroke="none" transform="matrix(1,0,0,1,93,4)"
font-family="Inter" font-size="11" font-weight="700" font-style="normal" 
>
</g>

<g fill="#ffffff" fill-opacity="1" stroke="#0da6c5" stroke-opacity="1" stroke-width="1" stroke-linecap="square" stroke-linejoin="bevel" transform="matrix(1,0,0,1,0,0)"
font-family="Inter" font-size="11" font-weight="700" font-style="normal" 
>
</g>

<g fill="#ffffff" fill-opacity="1" stroke="#0da6c5" stroke-opacity="1" stroke-width="1" stroke-linecap="square" stroke-linejoin="bevel" transform="matrix(1,0,0,1,0,0)"
font-family="Inter" font-size="11" font-weight="700" font-style="normal" 
>
</g>

<g fill="none" stroke="#000000" stroke-opacity="1" stroke-width="1" stroke-linecap="square" stroke-linejoin="bevel" transform="matrix(1,0,0,1,0,0)"
font-family=".AppleSystemUIFont" font-size="13" font-weight="400" font-style="normal" 
>
</g>
</g>
</svg>
