<?xml version="1.0" encoding="UTF-8" standalone="no"?>
<svg width="92.4278mm" height="21.1667mm"
 viewBox="0 0 262 60"
 xmlns="http://www.w3.org/2000/svg" xmlns:xlink="http://www.w3.org/1999/xlink" version="1.2" baseProfile="tiny">
<title>Abstract block</title>
<desc>block_dashboard_controller_slider_event</desc>
<defs>
</defs>
<g fill="none" stroke="black" stroke-width="1" fill-rule="evenodd" stroke-linecap="square" stroke-linejoin="bevel" >

<g fill="none" stroke="#000000" stroke-opacity="1" stroke-width="1" stroke-linecap="square" stroke-linejoin="bevel" transform="matrix(1,0,0,1,0,0)"
font-family=".AppleSystemUIFont" font-size="13" font-weight="400" font-style="normal" 
>
</g>

<g fill="none" stroke="#000000" stroke-opacity="1" stroke-width="1" stroke-linecap="square" stroke-linejoin="bevel" transform="matrix(1,0,0,1,0,0)"
font-family=".AppleSystemUIFont" font-size="13" font-weight="400" font-style="normal" 
>
</g>

<g fill="#009f94" fill-opacity="1" stroke="#00645c" stroke-opacity="1" stroke-width="1.2" stroke-linecap="square" stroke-linejoin="bevel" transform="matrix(1,0,0,1,0,0)"
font-family=".AppleSystemUIFont" font-size="13" font-weight="400" font-style="normal" 
>
<path vector-effect="none" fill-rule="evenodd" d="M0.5,20.5 L1,18.6516 L1,18 L1.77836,17.1565 L2.58892,16.3401 L3.43062,15.551 L4.30242,14.7891 L5.20325,14.0544 L6.13206,13.3469 L7.08779,12.6667 L8.06939,12.0136 L9.0758,11.3878 L10.106,10.7891 L11.1588,10.2177 L12.2333,9.67347 L13.3284,9.15646 L14.4431,8.66667 L15.5762,8.20408 L16.7267,7.76871 L17.8936,7.36054 L19.0758,6.97959 L20.2723,6.62585 L21.4819,6.29932 L22.7037,6 L23.9366,5.72789 L25.1795,5.48299 L26.4314,5.26531 L27.6912,5.07483 L28.9578,4.91156 L30.2303,4.77551 L31.5075,4.66667 L32.7885,4.58503 L34.072,4.53061 L35.3572,4.5034 L36.6428,4.5034 L37.928,4.53061 L39.2115,4.58503 L40.4925,4.66667 L41.7697,4.77551 L43.0422,4.91156 L44.3088,5.07483 L45.5686,5.26531 L46.8205,5.48299 L48.0634,5.72789 L49.2963,6 L50.5181,6.29932 L51.7277,6.62585 L52.9242,6.97959 L54.1064,7.36054 L55.2733,7.76871 L56.4238,8.20408 L57.5569,8.66667 L58.6716,9.15646 L59.7667,9.67347 L60.8412,10.2177 L61.894,10.7891 L62.9242,11.3878 L63.9306,12.0136 L64.9122,12.6667 L65.8679,13.3469 L66.7968,14.0544 L67.6976,14.7891 L68.5694,15.551 L69.4111,16.3401 L69.5698,16.5 L257.5,16.5 L259.519,17.0461 L260.954,18.4811 L261.5,20.5 L261.5,47.5 L260.954,49.5189 L259.519,50.9539 L257.5,51.5 L34.375,51.5 L33.584,51.9766 L32.8281,52.6875 L32.002,53.6797 L31,55 L30.2441,55.6602 L29.4531,56.1563 L28.5918,56.5117 L27.625,56.75 L26.5176,56.8945 L25.2344,56.9688 L23.7402,56.9961 L22,57 L20.2598,56.9961 L18.7656,56.9688 L17.4824,56.8945 L16.375,56.75 L15.4082,56.5117 L14.5469,56.1563 L13.7559,55.6602 L13,55 L11.998,53.6797 L11.1719,52.6875 L10.416,51.9766 L9.625,51.5 L4.5,51.5 L2.48112,50.9539 L1.04612,49.5189 L0.5,47.5 L0.5,20.5"/>
</g>

<g fill="#ffffff" fill-opacity="1" stroke="none" transform="matrix(1,0,0,1,0,0)"
font-family="Inter" font-size="11" font-weight="700" font-style="normal" 
>
<path vector-effect="none" fill-rule="nonzero" d="M53.4258,38 L51.793,32 L53.4766,32 L54.4063,36.0313 L54.4609,36.0313 L55.4297,32 L57.082,32 L58.0664,36.0078 L58.1172,36.0078 L59.0313,32 L60.7109,32 L59.082,38 L57.3203,38 L56.2891,34.2266 L56.2148,34.2266 L55.1836,38 L53.4258,38 M63.25,34.5313 L63.25,38 L61.5859,38 L61.5859,30 L63.2031,30 L63.2031,33.0586 L63.2734,33.0586 C63.4089,32.7044 63.6276,32.4264 63.9297,32.2246 C64.2318,32.0228 64.6107,31.9219 65.0664,31.9219 C65.4831,31.9219 65.847,32.0124 66.1582,32.1934 C66.4694,32.3743 66.7116,32.6335 66.8848,32.9707 C67.0579,33.3079 67.1432,33.7109 67.1406,34.1797 L67.1406,38 L65.4766,38 L65.4766,34.4766 C65.4792,34.1068 65.3861,33.819 65.1973,33.6133 C65.0085,33.4076 64.7448,33.3047 64.4063,33.3047 C64.1797,33.3047 63.9798,33.3529 63.8066,33.4492 C63.6335,33.5456 63.498,33.6855 63.4004,33.8691 C63.3027,34.0527 63.2526,34.2734 63.25,34.5313 M71.1797,38.1172 C70.5625,38.1172 70.0319,37.9915 69.5879,37.7402 C69.1439,37.4889 68.8021,37.1322 68.5625,36.6699 C68.3229,36.2077 68.2031,35.6602 68.2031,35.0273 C68.2031,34.4102 68.3229,33.8685 68.5625,33.4023 C68.8021,32.9362 69.14,32.5729 69.5762,32.3125 C70.0124,32.0521 70.5247,31.9219 71.1133,31.9219 C71.5091,31.9219 71.8783,31.985 72.2207,32.1113 C72.5632,32.2376 72.8626,32.4271 73.1191,32.6797 C73.3757,32.9323 73.5755,33.2493 73.7188,33.6309 C73.862,34.0124 73.9336,34.4583 73.9336,34.9688 L73.9336,35.4258 L68.8672,35.4258 L68.8672,34.3945 L72.3672,34.3945 C72.3672,34.1549 72.3151,33.9427 72.2109,33.7578 C72.1068,33.5729 71.9629,33.4277 71.7793,33.3223 C71.5957,33.2168 71.3828,33.1641 71.1406,33.1641 C70.888,33.1641 70.6647,33.222 70.4707,33.3379 C70.2767,33.4538 70.125,33.6087 70.0156,33.8027 C69.9063,33.9967 69.8503,34.2122 69.8477,34.4492 L69.8477,35.4297 C69.8477,35.7266 69.903,35.9831 70.0137,36.1992 C70.1243,36.4154 70.2813,36.582 70.4844,36.6992 C70.6875,36.8164 70.9284,36.875 71.207,36.875 C71.3919,36.875 71.5612,36.849 71.7148,36.7969 C71.8685,36.7448 72,36.6667 72.1094,36.5625 C72.2188,36.4583 72.3021,36.3307 72.3594,36.1797 L73.8984,36.2813 C73.8203,36.651 73.6608,36.9733 73.4199,37.248 C73.179,37.5228 72.8691,37.7363 72.4902,37.8887 C72.1113,38.041 71.6745,38.1172 71.1797,38.1172 M76.6719,34.5313 L76.6719,38 L75.0078,38 L75.0078,32 L76.5938,32 L76.5938,33.0586 L76.6641,33.0586 C76.7969,32.7096 77.0195,32.4329 77.332,32.2285 C77.6445,32.0241 78.0234,31.9219 78.4688,31.9219 C78.8854,31.9219 79.2487,32.013 79.5586,32.1953 C79.8685,32.3776 80.1094,32.6374 80.2813,32.9746 C80.4531,33.3118 80.5391,33.7135 80.5391,34.1797 L80.5391,38 L78.875,38 L78.875,34.4766 C78.8776,34.1094 78.7839,33.8223 78.5938,33.6152 C78.4036,33.4082 78.1419,33.3047 77.8086,33.3047 C77.5846,33.3047 77.3874,33.3529 77.2168,33.4492 C77.0462,33.5456 76.9134,33.6855 76.8184,33.8691 C76.7233,34.0527 76.6745,34.2734 76.6719,34.5313 M89.375,33.7109 L87.8516,33.8047 C87.8255,33.6745 87.7695,33.5566 87.6836,33.4512 C87.5977,33.3457 87.485,33.2611 87.3457,33.1973 C87.2064,33.1335 87.0404,33.1016 86.8477,33.1016 C86.5898,33.1016 86.3724,33.1556 86.1953,33.2637 C86.0182,33.3717 85.9297,33.5156 85.9297,33.6953 C85.9297,33.8385 85.987,33.9596 86.1016,34.0586 C86.2161,34.1576 86.4128,34.237 86.6914,34.2969 L87.7773,34.5156 C88.3607,34.6354 88.7956,34.8281 89.082,35.0938 C89.3685,35.3594 89.5117,35.7083 89.5117,36.1406 C89.5117,36.5339 89.3965,36.8789 89.166,37.1758 C88.9355,37.4727 88.6204,37.7038 88.2207,37.8691 C87.821,38.0345 87.3607,38.1172 86.8398,38.1172 C86.0456,38.1172 85.4134,37.9512 84.9434,37.6191 C84.4733,37.2871 84.1979,36.8346 84.1172,36.2617 L85.7539,36.1758 C85.8034,36.418 85.9232,36.6022 86.1133,36.7285 C86.3034,36.8548 86.5469,36.918 86.8438,36.918 C87.1354,36.918 87.3704,36.8613 87.5488,36.748 C87.7272,36.6348 87.8177,36.4883 87.8203,36.3086 C87.8177,36.1576 87.7539,36.0332 87.6289,35.9355 C87.5039,35.8379 87.3112,35.763 87.0508,35.7109 L86.0117,35.5039 C85.4258,35.3867 84.9902,35.1836 84.7051,34.8945 C84.4199,34.6055 84.2773,34.237 84.2773,33.7891 C84.2773,33.4036 84.3822,33.0716 84.5918,32.793 C84.8014,32.5143 85.097,32.2995 85.4785,32.1484 C85.86,31.9974 86.3073,31.9219 86.8203,31.9219 C87.5781,31.9219 88.1751,32.082 88.6113,32.4023 C89.0475,32.7227 89.3021,33.1589 89.375,33.7109 M92.2188,30 L92.2188,38 L90.5547,38 L90.5547,30 L92.2188,30 M93.5391,38 L93.5391,32 L95.2031,32 L95.2031,38 L93.5391,38 M94.375,31.2266 C94.1276,31.2266 93.916,31.1439 93.7402,30.9785 C93.5645,30.8132 93.4766,30.6146 93.4766,30.3828 C93.4766,30.1536 93.5645,29.9564 93.7402,29.791 C93.916,29.6257 94.1276,29.543 94.375,29.543 C94.6224,29.543 94.834,29.6257 95.0098,29.791 C95.1855,29.9564 95.2734,30.1536 95.2734,30.3828 C95.2734,30.6146 95.1855,30.8132 95.0098,30.9785 C94.834,31.1439 94.6224,31.2266 94.375,31.2266 M98.7344,38.0977 C98.2786,38.0977 97.8665,37.9798 97.498,37.7441 C97.1296,37.5085 96.8379,37.1608 96.623,36.7012 C96.4082,36.2415 96.3008,35.6771 96.3008,35.0078 C96.3008,34.3203 96.4115,33.748 96.6328,33.291 C96.8542,32.834 97.1491,32.4915 97.5176,32.2637 C97.8861,32.0358 98.2904,31.9219 98.7305,31.9219 C99.0664,31.9219 99.347,31.9785 99.5723,32.0918 C99.7975,32.2051 99.9798,32.3457 100.119,32.5137 C100.258,32.6816 100.365,32.8464 100.438,33.0078 L100.488,33.0078 L100.488,30 L102.148,30 L102.148,38 L100.508,38 L100.508,37.0391 L100.438,37.0391 C100.359,37.2057 100.249,37.3704 100.107,37.5332 C99.9655,37.696 99.7819,37.8307 99.5566,37.9375 C99.3314,38.0443 99.0573,38.0977 98.7344,38.0977 M99.2617,36.7734 C99.5299,36.7734 99.7572,36.6999 99.9434,36.5527 C100.13,36.4056 100.273,36.1992 100.373,35.9336 C100.473,35.668 100.523,35.3568 100.523,35 C100.523,34.6432 100.474,34.3333 100.375,34.0703 C100.276,33.8073 100.133,33.6042 99.9453,33.4609 C99.7578,33.3177 99.5299,33.2461 99.2617,33.2461 C98.9883,33.2461 98.7578,33.3203 98.5703,33.4688 C98.3828,33.6172 98.2409,33.8229 98.1445,34.0859 C98.0482,34.349 98,34.6536 98,35 C98,35.349 98.0488,35.6569 98.1465,35.9238 C98.2441,36.1908 98.3861,36.3991 98.5723,36.5488 C98.7585,36.6986 98.9883,36.7734 99.2617,36.7734 M106.242,38.1172 C105.625,38.1172 105.094,37.9915 104.65,37.7402 C104.206,37.4889 103.865,37.1322 103.625,36.6699 C103.385,36.2077 103.266,35.6602 103.266,35.0273 C103.266,34.4102 103.385,33.8685 103.625,33.4023 C103.865,32.9362 104.202,32.5729 104.639,32.3125 C105.075,32.0521 105.587,31.9219 106.176,31.9219 C106.572,31.9219 106.941,31.985 107.283,32.1113 C107.626,32.2376 107.925,32.4271 108.182,32.6797 C108.438,32.9323 108.638,33.2493 108.781,33.6309 C108.924,34.0124 108.996,34.4583 108.996,34.9688 L108.996,35.4258 L103.93,35.4258 L103.93,34.3945 L107.43,34.3945 C107.43,34.1549 107.378,33.9427 107.273,33.7578 C107.169,33.5729 107.025,33.4277 106.842,33.3223 C106.658,33.2168 106.445,33.1641 106.203,33.1641 C105.951,33.1641 105.727,33.222 105.533,33.3379 C105.339,33.4538 105.188,33.6087 105.078,33.8027 C104.969,33.9967 104.913,34.2122 104.91,34.4492 L104.91,35.4297 C104.91,35.7266 104.965,35.9831 105.076,36.1992 C105.187,36.4154 105.344,36.582 105.547,36.6992 C105.75,36.8164 105.991,36.875 106.27,36.875 C106.454,36.875 106.624,36.849 106.777,36.7969 C106.931,36.7448 107.063,36.6667 107.172,36.5625 C107.281,36.4583 107.365,36.3307 107.422,36.1797 L108.961,36.2813 C108.883,36.651 108.723,36.9733 108.482,37.248 C108.242,37.5228 107.932,37.7363 107.553,37.8887 C107.174,38.041 106.737,38.1172 106.242,38.1172 M110.07,38 L110.07,32 L111.684,32 L111.684,33.0469 L111.746,33.0469 C111.855,32.6745 112.039,32.3926 112.297,32.2012 C112.555,32.0098 112.852,31.9141 113.188,31.9141 C113.271,31.9141 113.361,31.9193 113.457,31.9297 C113.553,31.9401 113.638,31.9544 113.711,31.9727 L113.711,33.4492 C113.633,33.4258 113.525,33.4049 113.387,33.3867 C113.249,33.3685 113.122,33.3594 113.008,33.3594 C112.763,33.3594 112.545,33.4121 112.354,33.5176 C112.162,33.623 112.011,33.7695 111.9,33.957 C111.79,34.1445 111.734,34.3607 111.734,34.6055 L111.734,38 L110.07,38"/>
</g>

<g fill="#ffffff" fill-opacity="1" stroke="none" transform="matrix(1,0,0,1,0,0)"
font-family="Inter" font-size="11" font-weight="700" font-style="normal" 
>
<path vector-effect="none" fill-rule="nonzero" d="M191.164,38 L191.164,32 L192.828,32 L192.828,38 L191.164,38 M192,31.2266 C191.753,31.2266 191.541,31.1439 191.365,30.9785 C191.189,30.8132 191.102,30.6146 191.102,30.3828 C191.102,30.1536 191.189,29.9564 191.365,29.791 C191.541,29.6257 191.753,29.543 192,29.543 C192.247,29.543 192.459,29.6257 192.635,29.791 C192.811,29.9564 192.898,30.1536 192.898,30.3828 C192.898,30.6146 192.811,30.8132 192.635,30.9785 C192.459,31.1439 192.247,31.2266 192,31.2266 M199.141,33.7109 L197.617,33.8047 C197.591,33.6745 197.535,33.5566 197.449,33.4512 C197.363,33.3457 197.251,33.2611 197.111,33.1973 C196.972,33.1335 196.806,33.1016 196.613,33.1016 C196.355,33.1016 196.138,33.1556 195.961,33.2637 C195.784,33.3717 195.695,33.5156 195.695,33.6953 C195.695,33.8385 195.753,33.9596 195.867,34.0586 C195.982,34.1576 196.178,34.237 196.457,34.2969 L197.543,34.5156 C198.126,34.6354 198.561,34.8281 198.848,35.0938 C199.134,35.3594 199.277,35.7083 199.277,36.1406 C199.277,36.5339 199.162,36.8789 198.932,37.1758 C198.701,37.4727 198.386,37.7038 197.986,37.8691 C197.587,38.0345 197.126,38.1172 196.605,38.1172 C195.811,38.1172 195.179,37.9512 194.709,37.6191 C194.239,37.2871 193.964,36.8346 193.883,36.2617 L195.52,36.1758 C195.569,36.418 195.689,36.6022 195.879,36.7285 C196.069,36.8548 196.313,36.918 196.609,36.918 C196.901,36.918 197.136,36.8613 197.314,36.748 C197.493,36.6348 197.583,36.4883 197.586,36.3086 C197.583,36.1576 197.52,36.0332 197.395,35.9355 C197.27,35.8379 197.077,35.763 196.816,35.7109 L195.777,35.5039 C195.191,35.3867 194.756,35.1836 194.471,34.8945 C194.186,34.6055 194.043,34.237 194.043,33.7891 C194.043,33.4036 194.148,33.0716 194.357,32.793 C194.567,32.5143 194.863,32.2995 195.244,32.1484 C195.626,31.9974 196.073,31.9219 196.586,31.9219 C197.344,31.9219 197.941,32.082 198.377,32.4023 C198.813,32.7227 199.068,33.1589 199.141,33.7109 "/>
</g>

<g fill="#ffffff" fill-opacity="1" stroke="none" transform="matrix(0.95,0,0,0.95,11.6,25.6)"
font-family="Inter" font-size="11" font-weight="700" font-style="normal" 
>
<path vector-effect="none" fill-rule="nonzero" d="M2.19896,4.65234 C1.18891,4.65234 0.375703,5.46549 0.375703,6.47555 L0.375703,8.579 C1.00152,8.60331 1.67842,9.11362 1.67842,9.74561 L1.67842,14.2544 C1.67842,14.8864 1.00152,15.3967 0.375703,15.421 L0.375703,17.5245 C0.375703,18.5345 1.18891,19.3477 2.19896,19.3477 L21.8479,19.3477 C22.858,19.3477 23.6711,18.5345 23.6711,17.5245 L23.6711,6.47555 C23.6711,5.46549 22.858,4.65234 21.8479,4.65234 L2.19896,4.65234 M6.71936,9.23098 C8.56166,9.23097 10.0552,10.7245 10.0552,12.5668 C10.0552,14.4091 8.56167,15.9026 6.71936,15.9026 C4.87705,15.9026 3.38355,14.4091 3.38355,12.5668 C3.38355,10.7245 4.87705,9.23097 6.71936,9.23098 M19.875,9.24873 C20.7082,9.24871 21.3837,9.92418 21.3837,10.7574 C21.3837,11.5906 20.7082,12.266 19.875,12.266 C19.0418,12.266 18.3664,11.5906 18.3664,10.7574 C18.3664,9.9242 19.0418,9.24874 19.875,9.24873 M17.4318,12.8825 C18.265,12.8825 18.9404,13.558 18.9404,14.3912 C18.9404,15.2243 18.2649,15.8998 17.4318,15.8998 C16.5986,15.8998 15.9231,15.2244 15.9231,14.3912 C15.9231,13.5579 16.5985,12.8825 17.4318,12.8825 "/>
</g>

<g fill="none" stroke="#000000" stroke-opacity="1" stroke-width="0.54" stroke-linecap="butt" stroke-linejoin="miter" stroke-miterlimit="4" transform="matrix(0.95,0,0,0.95,11.6,25.6)"
font-family="Inter" font-size="11" font-weight="700" font-style="normal" 
>
<path vector-effect="none" fill-rule="nonzero" d="M2.19896,4.65234 C1.18891,4.65234 0.375703,5.46549 0.375703,6.47555 L0.375703,8.579 C1.00152,8.60331 1.67842,9.11362 1.67842,9.74561 L1.67842,14.2544 C1.67842,14.8864 1.00152,15.3967 0.375703,15.421 L0.375703,17.5245 C0.375703,18.5345 1.18891,19.3477 2.19896,19.3477 L21.8479,19.3477 C22.858,19.3477 23.6711,18.5345 23.6711,17.5245 L23.6711,6.47555 C23.6711,5.46549 22.858,4.65234 21.8479,4.65234 L2.19896,4.65234 M6.71936,9.23098 C8.56166,9.23097 10.0552,10.7245 10.0552,12.5668 C10.0552,14.4091 8.56167,15.9026 6.71936,15.9026 C4.87705,15.9026 3.38355,14.4091 3.38355,12.5668 C3.38355,10.7245 4.87705,9.23097 6.71936,9.23098 M19.875,9.24873 C20.7082,9.24871 21.3837,9.92418 21.3837,10.7574 C21.3837,11.5906 20.7082,12.266 19.875,12.266 C19.0418,12.266 18.3664,11.5906 18.3664,10.7574 C18.3664,9.9242 19.0418,9.24874 19.875,9.24873 M17.4318,12.8825 C18.265,12.8825 18.9404,13.558 18.9404,14.3912 C18.9404,15.2243 18.2649,15.8998 17.4318,15.8998 C16.5986,15.8998 15.9231,15.2244 15.9231,14.3912 C15.9231,13.5579 16.5985,12.8825 17.4318,12.8825 "/>
</g>

<g fill="#000000" fill-opacity="1" stroke="none" transform="matrix(0.95,0,0,0.95,11.6,25.6)"
font-family="Inter" font-size="11" font-weight="700" font-style="normal" 
>
<path vector-effect="none" fill-rule="nonzero" d="M0.108328,15.3227 L0.103298,8.65983 L1.21825,8.7259 L1.75102,9.37791 L1.70662,12.9064 L1.66222,14.5556 L1.04066,15.0542 L0.108328,15.3227"/>
</g>

<g fill="#000000" fill-opacity="1" stroke="none" transform="matrix(0.95,0,0,0.95,11.6,25.6)"
font-family="Inter" font-size="11" font-weight="700" font-style="normal" 
>
<circle cx="6.70111" cy="12.5452" r="1.68266"/>
</g>

<g fill="none" stroke="#000000" stroke-opacity="1" stroke-width="0.54" stroke-linecap="butt" stroke-linejoin="miter" stroke-miterlimit="4" transform="matrix(0.95,0,0,0.95,11.6,25.6)"
font-family="Inter" font-size="11" font-weight="700" font-style="normal" 
>
<circle cx="6.70111" cy="12.5452" r="1.68266"/>
</g>

<g fill="#000000" fill-opacity="1" stroke="none" transform="matrix(0.95,0,0,0.95,11.6,25.6)"
font-family="Inter" font-size="11" font-weight="700" font-style="normal" 
opacity="0.858824" >
<path vector-effect="none" fill-rule="evenodd" d="M8.42109,18.1373 C8.42109,18.0846 8.46385,18.0418 8.51661,18.0418 L15.4834,18.0418 C15.5361,18.0418 15.5789,18.0846 15.5789,18.1373 L15.5789,18.1373 C15.5789,18.1901 15.5361,18.2329 15.4834,18.2329 L8.51661,18.2329 C8.46385,18.2329 8.42109,18.1901 8.42109,18.1373 L8.42109,18.1373"/>
</g>

<g fill="none" stroke="#000000" stroke-opacity="1" stroke-width="0.437534" stroke-linecap="butt" stroke-linejoin="miter" stroke-miterlimit="4" transform="matrix(0.95,0,0,0.95,11.6,25.6)"
font-family="Inter" font-size="11" font-weight="700" font-style="normal" 
>
<path vector-effect="none" fill-rule="evenodd" d="M8.42109,18.1373 C8.42109,18.0846 8.46385,18.0418 8.51661,18.0418 L15.4834,18.0418 C15.5361,18.0418 15.5789,18.0846 15.5789,18.1373 L15.5789,18.1373 C15.5789,18.1901 15.5361,18.2329 15.4834,18.2329 L8.51661,18.2329 C8.46385,18.2329 8.42109,18.1901 8.42109,18.1373 L8.42109,18.1373"/>
</g>

<g fill="#ffffff" fill-opacity="1" stroke="none" transform="matrix(1,0,0,1,0,0)"
font-family="Inter" font-size="11" font-weight="700" font-style="normal" 
>
</g>

<g fill="#ffffff" fill-opacity="1" stroke="#00645c" stroke-opacity="1" stroke-width="1" stroke-linecap="square" stroke-linejoin="bevel" transform="matrix(1,0,0,1,0,0)"
font-family="Inter" font-size="11" font-weight="700" font-style="normal" 
>
<polyline fill="none" vector-effect="none" points="45,27 45,47 " />
</g>

<g fill="#009f94" fill-opacity="1" stroke="#00645c" stroke-opacity="1" stroke-width="1.2" stroke-linecap="square" stroke-linejoin="bevel" transform="matrix(1,0,0,1,120,22)"
font-family="Inter" font-size="11" font-weight="700" font-style="normal" 
>
<path vector-effect="none" fill-rule="evenodd" d="M0.5,3.5 C0.5,1.84315 1.84315,0.5 3.5,0.5 L61.5,0.5 C63.1569,0.5 64.5,1.84315 64.5,3.5 L64.5,20.5 C64.5,22.1569 63.1569,23.5 61.5,23.5 L3.5,23.5 C1.84315,23.5 0.5,22.1569 0.5,20.5 L0.5,3.5"/>
</g>

<g fill="#ffffff" fill-opacity="1" stroke="none" transform="matrix(1,0,0,1,120,22)"
font-family="Inter" font-size="11" font-weight="700" font-style="normal" 
>
<path vector-effect="none" fill-rule="nonzero" d="M14.5977,10.2383 C14.5664,9.92318 14.4323,9.67839 14.1953,9.50391 C13.9583,9.32943 13.6367,9.24219 13.2305,9.24219 C12.9544,9.24219 12.7214,9.2806 12.5313,9.35742 C12.3411,9.43424 12.196,9.54036 12.0957,9.67578 C11.9954,9.8112 11.9453,9.96484 11.9453,10.1367 C11.9401,10.2799 11.9707,10.4049 12.0371,10.5117 C12.1035,10.6185 12.1953,10.7103 12.3125,10.7871 C12.4297,10.8639 12.5651,10.9303 12.7188,10.9863 C12.8724,11.0423 13.0365,11.0898 13.2109,11.1289 L13.9297,11.3008 C14.2786,11.3789 14.599,11.4831 14.8906,11.6133 C15.1823,11.7435 15.4349,11.9036 15.6484,12.0938 C15.862,12.2839 16.028,12.5078 16.1465,12.7656 C16.265,13.0234 16.3255,13.319 16.3281,13.6523 C16.3255,14.1419 16.2012,14.5658 15.9551,14.9238 C15.709,15.2819 15.3548,15.5592 14.8926,15.7559 C14.4303,15.9525 13.8737,16.0508 13.2227,16.0508 C12.5768,16.0508 12.015,15.9518 11.5371,15.7539 C11.0592,15.556 10.6868,15.2624 10.4199,14.873 C10.153,14.4837 10.013,14.0013 10,13.4258 L11.6367,13.4258 C11.6549,13.694 11.7324,13.9173 11.8691,14.0957 C12.0059,14.2741 12.1895,14.4082 12.4199,14.498 C12.6504,14.5879 12.9115,14.6328 13.2031,14.6328 C13.4896,14.6328 13.7389,14.5911 13.9512,14.5078 C14.1634,14.4245 14.3281,14.3086 14.4453,14.1602 C14.5625,14.0117 14.6211,13.8411 14.6211,13.6484 C14.6211,13.4688 14.5684,13.3177 14.4629,13.1953 C14.3574,13.0729 14.2038,12.9688 14.002,12.8828 C13.8001,12.7969 13.5534,12.7188 13.2617,12.6484 L12.3906,12.4297 C11.7161,12.2656 11.1836,12.0091 10.793,11.6602 C10.4023,11.3112 10.2083,10.8411 10.2109,10.25 C10.2083,9.76563 10.3379,9.34245 10.5996,8.98047 C10.8613,8.61849 11.2214,8.33594 11.6797,8.13281 C12.138,7.92969 12.6589,7.82813 13.2422,7.82813 C13.8359,7.82813 14.3548,7.92969 14.7988,8.13281 C15.2428,8.33594 15.5885,8.61849 15.8359,8.98047 C16.0833,9.34245 16.2109,9.76172 16.2188,10.2383 L14.5977,10.2383 M17.4609,15.9375 L17.4609,7.9375 L19.1523,7.9375 L19.1523,14.543 L22.582,14.543 L22.582,15.9375 L17.4609,15.9375 M26.5313,15.9375 L23.6953,15.9375 L23.6953,7.9375 L26.5547,7.9375 C27.3594,7.9375 28.0521,8.09701 28.6328,8.41602 C29.2135,8.73503 29.6608,9.19271 29.9746,9.78906 C30.2884,10.3854 30.4453,11.099 30.4453,11.9297 C30.4453,12.763 30.2884,13.4792 29.9746,14.0781 C29.6608,14.6771 29.2116,15.1367 28.627,15.457 C28.0423,15.7773 27.3438,15.9375 26.5313,15.9375 M25.3867,14.4883 L26.4609,14.4883 C26.9609,14.4883 27.3822,14.3991 27.7246,14.2207 C28.0671,14.0423 28.3249,13.765 28.498,13.3887 C28.6712,13.0124 28.7578,12.526 28.7578,11.9297 C28.7578,11.3385 28.6712,10.8555 28.498,10.4805 C28.3249,10.1055 28.0677,9.82943 27.7266,9.65234 C27.3854,9.47526 26.9648,9.38672 26.4648,9.38672 L25.3867,9.38672 L25.3867,14.4883 M31.6953,15.9375 L31.6953,7.9375 L34.8516,7.9375 C35.4557,7.9375 35.972,8.04492 36.4004,8.25977 C36.8288,8.47461 37.1556,8.77799 37.3809,9.16992 C37.6061,9.56185 37.7188,10.0221 37.7188,10.5508 C37.7188,11.082 37.6042,11.5384 37.375,11.9199 C37.1458,12.3014 36.8145,12.5938 36.3809,12.7969 C35.9473,13 35.4232,13.1016 34.8086,13.1016 L32.6953,13.1016 L32.6953,11.7422 L34.5352,11.7422 C34.8581,11.7422 35.1263,11.6979 35.3398,11.6094 C35.5534,11.5208 35.7129,11.388 35.8184,11.2109 C35.9238,11.0339 35.9766,10.8138 35.9766,10.5508 C35.9766,10.2852 35.9238,10.0612 35.8184,9.87891 C35.7129,9.69661 35.5527,9.55794 35.3379,9.46289 C35.123,9.36784 34.8529,9.32031 34.5273,9.32031 L33.3867,9.32031 L33.3867,15.9375 L31.6953,15.9375 M36.0156,12.2969 L38.0039,15.9375 L36.1367,15.9375 L34.1914,12.2969 L36.0156,12.2969 M42.3477,7.9375 L42.3477,15.9375 L40.6563,15.9375 L40.6563,9.54297 L40.6094,9.54297 L38.7773,10.6914 L38.7773,9.19141 L40.7578,7.9375 L42.3477,7.9375"/>
</g>

<g fill="#ffffff" fill-opacity="1" stroke="none" transform="matrix(0.03125,0,0,0.03125,171,30)"
font-family="Inter" font-size="11" font-weight="700" font-style="normal" 
>
<path vector-effect="none" fill-rule="nonzero" d="M111.326,191.938 C120.545,201.158 135.517,201.158 144.737,191.938 L239.144,97.5313 C245.929,90.7458 247.921,80.6413 244.233,71.7907 C240.545,62.9401 231.989,57.1871 222.401,57.1871 L33.5875,57.2608 C24.0731,57.2608 15.4437,63.0137 11.7559,71.8644 C8.06815,80.715 10.1333,90.8195 16.845,97.605 L111.252,192.012 L111.326,191.938"/>
</g>

<g fill="none" stroke="#000000" stroke-opacity="1" stroke-width="13.7195" stroke-linecap="butt" stroke-linejoin="miter" stroke-miterlimit="4" transform="matrix(0.03125,0,0,0.03125,171,30)"
font-family="Inter" font-size="11" font-weight="700" font-style="normal" 
>
<path vector-effect="none" fill-rule="nonzero" d="M111.326,191.938 C120.545,201.158 135.517,201.158 144.737,191.938 L239.144,97.5313 C245.929,90.7458 247.921,80.6413 244.233,71.7907 C240.545,62.9401 231.989,57.1871 222.401,57.1871 L33.5875,57.2608 C24.0731,57.2608 15.4437,63.0137 11.7559,71.8644 C8.06815,80.715 10.1333,90.8195 16.845,97.605 L111.252,192.012 L111.326,191.938"/>
</g>

<g fill="#ffffff" fill-opacity="1" stroke="none" transform="matrix(1,0,0,1,120,22)"
font-family="Inter" font-size="11" font-weight="700" font-style="normal" 
>
</g>

<g fill="#ffffff" fill-opacity="1" stroke="#00645c" stroke-opacity="1" stroke-width="1" stroke-linecap="square" stroke-linejoin="bevel" transform="matrix(1,0,0,1,0,0)"
font-family="Inter" font-size="11" font-weight="700" font-style="normal" 
>
</g>

<g fill="#009f94" fill-opacity="1" stroke="#00645c" stroke-opacity="1" stroke-width="1.2" stroke-linecap="square" stroke-linejoin="bevel" transform="matrix(1,0,0,1,206,22)"
font-family="Inter" font-size="11" font-weight="700" font-style="normal" 
>
<path vector-effect="none" fill-rule="evenodd" d="M0.5,3.5 C0.5,1.84315 1.84315,0.5 3.5,0.5 L46.5,0.5 C48.1569,0.5 49.5,1.84315 49.5,3.5 L49.5,20.5 C49.5,22.1569 48.1569,23.5 46.5,23.5 L3.5,23.5 C1.84315,23.5 0.5,22.1569 0.5,20.5 L0.5,3.5"/>
</g>

<g fill="#ffffff" fill-opacity="1" stroke="none" transform="matrix(1,0,0,1,206,22)"
font-family="Inter" font-size="11" font-weight="700" font-style="normal" 
>
<path vector-effect="none" fill-rule="nonzero" d="M11.6719,7.90625 L11.6719,15.9063 L10.0078,15.9063 L10.0078,7.90625 L11.6719,7.90625 M15.7031,16.0234 C15.0964,16.0234 14.5723,15.8939 14.1309,15.6348 C13.6895,15.3757 13.349,15.0137 13.1094,14.5488 C12.8698,14.084 12.75,13.5443 12.75,12.9297 C12.75,12.3099 12.8698,11.7676 13.1094,11.3027 C13.349,10.8379 13.6895,10.4759 14.1309,10.2168 C14.5723,9.95768 15.0964,9.82813 15.7031,9.82813 C16.3099,9.82813 16.834,9.95768 17.2754,10.2168 C17.7168,10.4759 18.0573,10.8379 18.2969,11.3027 C18.5365,11.7676 18.6563,12.3099 18.6563,12.9297 C18.6563,13.5443 18.5365,14.084 18.2969,14.5488 C18.0573,15.0137 17.7168,15.3757 17.2754,15.6348 C16.834,15.8939 16.3099,16.0234 15.7031,16.0234 M15.7109,14.7344 C15.987,14.7344 16.2174,14.6556 16.4023,14.498 C16.5872,14.3405 16.7272,14.125 16.8223,13.8516 C16.9173,13.5781 16.9648,13.2669 16.9648,12.918 C16.9648,12.569 16.9173,12.2578 16.8223,11.9844 C16.7272,11.7109 16.5872,11.4948 16.4023,11.3359 C16.2174,11.1771 15.987,11.0977 15.7109,11.0977 C15.4323,11.0977 15.1986,11.1771 15.0098,11.3359 C14.821,11.4948 14.679,11.7109 14.584,11.9844 C14.4889,12.2578 14.4414,12.569 14.4414,12.918 C14.4414,13.2669 14.4889,13.5781 14.584,13.8516 C14.679,14.125 14.821,14.3405 15.0098,14.498 C15.1986,14.6556 15.4323,14.7344 15.7109,14.7344 M20.7852,15.9063 L19.1523,9.90625 L20.8359,9.90625 L21.7656,13.9375 L21.8203,13.9375 L22.7891,9.90625 L24.4414,9.90625 L25.4258,13.9141 L25.4766,13.9141 L26.3906,9.90625 L28.0703,9.90625 L26.4414,15.9063 L24.6797,15.9063 L23.6484,12.1328 L23.5742,12.1328 L22.543,15.9063 L20.7852,15.9063"/>
</g>

<g fill="#ffffff" fill-opacity="1" stroke="none" transform="matrix(0.03125,0,0,0.03125,242,30)"
font-family="Inter" font-size="11" font-weight="700" font-style="normal" 
>
<path vector-effect="none" fill-rule="nonzero" d="M111.326,191.938 C120.545,201.158 135.517,201.158 144.737,191.938 L239.144,97.5313 C245.929,90.7458 247.921,80.6413 244.233,71.7907 C240.545,62.9401 231.989,57.1871 222.401,57.1871 L33.5875,57.2608 C24.0731,57.2608 15.4437,63.0137 11.7559,71.8644 C8.06815,80.715 10.1333,90.8195 16.845,97.605 L111.252,192.012 L111.326,191.938"/>
</g>

<g fill="none" stroke="#000000" stroke-opacity="1" stroke-width="13.7195" stroke-linecap="butt" stroke-linejoin="miter" stroke-miterlimit="4" transform="matrix(0.03125,0,0,0.03125,242,30)"
font-family="Inter" font-size="11" font-weight="700" font-style="normal" 
>
<path vector-effect="none" fill-rule="nonzero" d="M111.326,191.938 C120.545,201.158 135.517,201.158 144.737,191.938 L239.144,97.5313 C245.929,90.7458 247.921,80.6413 244.233,71.7907 C240.545,62.9401 231.989,57.1871 222.401,57.1871 L33.5875,57.2608 C24.0731,57.2608 15.4437,63.0137 11.7559,71.8644 C8.06815,80.715 10.1333,90.8195 16.845,97.605 L111.252,192.012 L111.326,191.938"/>
</g>

<g fill="#ffffff" fill-opacity="1" stroke="none" transform="matrix(1,0,0,1,206,22)"
font-family="Inter" font-size="11" font-weight="700" font-style="normal" 
>
</g>

<g fill="#ffffff" fill-opacity="1" stroke="#00645c" stroke-opacity="1" stroke-width="1" stroke-linecap="square" stroke-linejoin="bevel" transform="matrix(1,0,0,1,0,0)"
font-family="Inter" font-size="11" font-weight="700" font-style="normal" 
>
</g>

<g fill="#ffffff" fill-opacity="1" stroke="#00645c" stroke-opacity="1" stroke-width="1" stroke-linecap="square" stroke-linejoin="bevel" transform="matrix(1,0,0,1,0,0)"
font-family="Inter" font-size="11" font-weight="700" font-style="normal" 
>
</g>

<g fill="none" stroke="#000000" stroke-opacity="1" stroke-width="1" stroke-linecap="square" stroke-linejoin="bevel" transform="matrix(1,0,0,1,0,0)"
font-family=".AppleSystemUIFont" font-size="13" font-weight="400" font-style="normal" 
>
</g>
</g>
</svg>
