<?xml version="1.0" encoding="UTF-8" standalone="no"?>
<svg width="100.894mm" height="11.2889mm"
 viewBox="0 0 286 32"
 xmlns="http://www.w3.org/2000/svg" xmlns:xlink="http://www.w3.org/1999/xlink" version="1.2" baseProfile="tiny">
<title>Abstract block</title>
<desc>block_hubs_all_sensors_port_boost_sensor_color</desc>
<defs>
</defs>
<g fill="none" stroke="black" stroke-width="1" fill-rule="evenodd" stroke-linecap="square" stroke-linejoin="bevel" >

<g fill="none" stroke="#000000" stroke-opacity="1" stroke-width="1" stroke-linecap="square" stroke-linejoin="bevel" transform="matrix(1,0,0,1,0,0)"
font-family=".AppleSystemUIFont" font-size="13" font-weight="400" font-style="normal" 
>
</g>

<g fill="none" stroke="#000000" stroke-opacity="1" stroke-width="1" stroke-linecap="square" stroke-linejoin="bevel" transform="matrix(1,0,0,1,0,0)"
font-family=".AppleSystemUIFont" font-size="13" font-weight="400" font-style="normal" 
>
</g>

<g fill="#1dccf0" fill-opacity="1" stroke="#0da6c5" stroke-opacity="1" stroke-width="1.2" stroke-linecap="square" stroke-linejoin="bevel" transform="matrix(1,0,0,1,0,0)"
font-family=".AppleSystemUIFont" font-size="13" font-weight="400" font-style="normal" 
>
<path vector-effect="none" fill-rule="evenodd" d="M1,16 C1,7.71573 8.16344,1 17,1 L268.667,1 C277.503,1 284.667,7.71573 284.667,16 C284.667,24.2843 277.503,31 268.667,31 L17,31 C8.16344,31 1,24.2843 1,16 "/>
</g>

<g fill="#ffffff" fill-opacity="1" stroke="none" transform="matrix(1,0,0,1,0,0)"
font-family="Inter" font-size="11" font-weight="700" font-style="normal" 
>
<path vector-effect="none" fill-rule="nonzero" d="M183.844,20.0234 C183.229,20.0234 182.701,19.8926 182.26,19.6309 C181.818,19.3691 181.48,19.0052 181.244,18.5391 C181.008,18.0729 180.891,17.5365 180.891,16.9297 C180.891,16.3151 181.01,15.7754 181.248,15.3105 C181.486,14.8457 181.826,14.4824 182.266,14.2207 C182.706,13.959 183.229,13.8281 183.836,13.8281 C184.359,13.8281 184.818,13.9232 185.211,14.1133 C185.604,14.3034 185.915,14.5703 186.145,14.9141 C186.374,15.2578 186.5,15.6615 186.523,16.125 L184.953,16.125 C184.909,15.8255 184.792,15.584 184.604,15.4004 C184.415,15.2168 184.168,15.125 183.863,15.125 C183.605,15.125 183.381,15.1947 183.189,15.334 C182.998,15.4733 182.849,15.6758 182.742,15.9414 C182.635,16.207 182.582,16.5286 182.582,16.9063 C182.582,17.2891 182.635,17.6146 182.74,17.8828 C182.846,18.151 182.995,18.3555 183.188,18.4961 C183.38,18.6367 183.605,18.707 183.863,18.707 C184.053,18.707 184.225,18.668 184.377,18.5898 C184.529,18.5117 184.656,18.3978 184.756,18.248 C184.856,18.0983 184.922,17.918 184.953,17.707 L186.523,17.707 C186.497,18.1654 186.373,18.5684 186.15,18.916 C185.928,19.2637 185.621,19.5352 185.23,19.7305 C184.84,19.9258 184.378,20.0234 183.844,20.0234 M190.297,20.0234 C189.69,20.0234 189.166,19.8939 188.725,19.6348 C188.283,19.3757 187.943,19.0137 187.703,18.5488 C187.464,18.084 187.344,17.5443 187.344,16.9297 C187.344,16.3099 187.464,15.7676 187.703,15.3027 C187.943,14.8379 188.283,14.4759 188.725,14.2168 C189.166,13.9577 189.69,13.8281 190.297,13.8281 C190.904,13.8281 191.428,13.9577 191.869,14.2168 C192.311,14.4759 192.651,14.8379 192.891,15.3027 C193.13,15.7676 193.25,16.3099 193.25,16.9297 C193.25,17.5443 193.13,18.084 192.891,18.5488 C192.651,19.0137 192.311,19.3757 191.869,19.6348 C191.428,19.8939 190.904,20.0234 190.297,20.0234 M190.305,18.7344 C190.581,18.7344 190.811,18.6556 190.996,18.498 C191.181,18.3405 191.321,18.125 191.416,17.8516 C191.511,17.5781 191.559,17.2669 191.559,16.918 C191.559,16.569 191.511,16.2578 191.416,15.9844 C191.321,15.7109 191.181,15.4948 190.996,15.3359 C190.811,15.1771 190.581,15.0977 190.305,15.0977 C190.026,15.0977 189.792,15.1771 189.604,15.3359 C189.415,15.4948 189.273,15.7109 189.178,15.9844 C189.083,16.2578 189.035,16.569 189.035,16.918 C189.035,17.2669 189.083,17.5781 189.178,17.8516 C189.273,18.125 189.415,18.3405 189.604,18.498 C189.792,18.6556 190.026,18.7344 190.305,18.7344 M196,11.9063 L196,19.9063 L194.336,19.9063 L194.336,11.9063 L196,11.9063 M200.031,20.0234 C199.424,20.0234 198.9,19.8939 198.459,19.6348 C198.018,19.3757 197.677,19.0137 197.438,18.5488 C197.198,18.084 197.078,17.5443 197.078,16.9297 C197.078,16.3099 197.198,15.7676 197.438,15.3027 C197.677,14.8379 198.018,14.4759 198.459,14.2168 C198.9,13.9577 199.424,13.8281 200.031,13.8281 C200.638,13.8281 201.162,13.9577 201.604,14.2168 C202.045,14.4759 202.385,14.8379 202.625,15.3027 C202.865,15.7676 202.984,16.3099 202.984,16.9297 C202.984,17.5443 202.865,18.084 202.625,18.5488 C202.385,19.0137 202.045,19.3757 201.604,19.6348 C201.162,19.8939 200.638,20.0234 200.031,20.0234 M200.039,18.7344 C200.315,18.7344 200.546,18.6556 200.73,18.498 C200.915,18.3405 201.055,18.125 201.15,17.8516 C201.245,17.5781 201.293,17.2669 201.293,16.918 C201.293,16.569 201.245,16.2578 201.15,15.9844 C201.055,15.7109 200.915,15.4948 200.73,15.3359 C200.546,15.1771 200.315,15.0977 200.039,15.0977 C199.76,15.0977 199.527,15.1771 199.338,15.3359 C199.149,15.4948 199.007,15.7109 198.912,15.9844 C198.817,16.2578 198.77,16.569 198.77,16.918 C198.77,17.2669 198.817,17.5781 198.912,17.8516 C199.007,18.125 199.149,18.3405 199.338,18.498 C199.527,18.6556 199.76,18.7344 200.039,18.7344 M204.07,19.9063 L204.07,13.9063 L205.684,13.9063 L205.684,14.9531 L205.746,14.9531 C205.855,14.5807 206.039,14.2988 206.297,14.1074 C206.555,13.916 206.852,13.8203 207.188,13.8203 C207.271,13.8203 207.361,13.8255 207.457,13.8359 C207.553,13.8464 207.638,13.8607 207.711,13.8789 L207.711,15.3555 C207.633,15.332 207.525,15.3112 207.387,15.293 C207.249,15.2747 207.122,15.2656 207.008,15.2656 C206.763,15.2656 206.545,15.3184 206.354,15.4238 C206.162,15.5293 206.011,15.6758 205.9,15.8633 C205.79,16.0508 205.734,16.2669 205.734,16.5117 L205.734,19.9063 L204.07,19.9063"/>
</g>

<g fill="#ffffff" fill-opacity="1" stroke="none" transform="matrix(0.0285,0,0,0.0285,11.2928,4.29805)"
font-family="Inter" font-size="11" font-weight="700" font-style="normal" 
>
<path vector-effect="none" fill-rule="nonzero" d="M235.334,52.7519 C230.145,52.7519 225.965,56.9314 225.965,62.1211 L225.965,102.215 L210.545,102.215 C191.496,102.215 176.161,116.28 176.161,133.752 L176.161,431.395 L231.118,431.395 C233.175,391.149 266.155,359.338 306.93,359.338 L514.625,359.338 C555.4,359.338 588.38,391.149 590.438,431.395 L645.395,431.395 L645.395,133.752 C645.395,116.28 630.059,102.215 611.01,102.215 L587.022,102.215 L587.022,62.1211 C587.022,56.9314 582.844,52.7519 577.655,52.7519 L453.467,52.7519 C448.277,52.7519 444.098,56.9314 444.098,62.1211 L444.098,102.215 L368.889,102.215 L368.889,62.1211 C368.889,56.9314 364.712,52.7519 359.522,52.7519 L235.334,52.7519 M176.161,439.258 L176.161,736.898 C176.161,754.37 191.496,768.437 210.545,768.437 L611.01,768.437 C630.059,768.437 645.395,754.37 645.395,736.898 L645.395,439.258 L590.442,439.258 C588.408,479.525 555.416,511.361 514.625,511.361 L489.325,511.361 C491.149,518.109 492.096,525.064 492.143,532.055 L492.143,532.08 C492.142,577.014 455.717,613.44 410.784,613.443 C365.85,613.447 329.42,577.026 329.412,532.092 C329.455,525.089 330.402,518.121 332.229,511.361 L306.93,511.361 C266.139,511.361 233.148,479.525 231.114,439.258 L176.161,439.258"/>
</g>

<g fill="none" stroke="#000000" stroke-opacity="1" stroke-width="20" stroke-linecap="round" stroke-linejoin="round" transform="matrix(0.0285,0,0,0.0285,11.2928,4.29805)"
font-family="Inter" font-size="11" font-weight="700" font-style="normal" 
>
<path vector-effect="none" fill-rule="nonzero" d="M235.334,52.7519 C230.145,52.7519 225.965,56.9314 225.965,62.1211 L225.965,102.215 L210.545,102.215 C191.496,102.215 176.161,116.28 176.161,133.752 L176.161,431.395 L231.118,431.395 C233.175,391.149 266.155,359.338 306.93,359.338 L514.625,359.338 C555.4,359.338 588.38,391.149 590.438,431.395 L645.395,431.395 L645.395,133.752 C645.395,116.28 630.059,102.215 611.01,102.215 L587.022,102.215 L587.022,62.1211 C587.022,56.9314 582.844,52.7519 577.655,52.7519 L453.467,52.7519 C448.277,52.7519 444.098,56.9314 444.098,62.1211 L444.098,102.215 L368.889,102.215 L368.889,62.1211 C368.889,56.9314 364.712,52.7519 359.522,52.7519 L235.334,52.7519 M176.161,439.258 L176.161,736.898 C176.161,754.37 191.496,768.437 210.545,768.437 L611.01,768.437 C630.059,768.437 645.395,754.37 645.395,736.898 L645.395,439.258 L590.442,439.258 C588.408,479.525 555.416,511.361 514.625,511.361 L489.325,511.361 C491.149,518.109 492.096,525.064 492.143,532.055 L492.143,532.08 C492.142,577.014 455.717,613.44 410.784,613.443 C365.85,613.447 329.42,577.026 329.412,532.092 C329.455,525.089 330.402,518.121 332.229,511.361 L306.93,511.361 C266.139,511.361 233.148,479.525 231.114,439.258 L176.161,439.258"/>
</g>

<g fill="#000000" fill-opacity="1" stroke="none" transform="matrix(0.0285,0,0,0.0285,11.2928,4.29805)"
font-family="Inter" font-size="11" font-weight="700" font-style="normal" 
>
<path vector-effect="none" fill-rule="nonzero" d="M306.93,362.297 C264.82,362.297 230.918,396.198 230.918,438.309 C230.918,480.419 264.82,514.32 306.93,514.32 L332.229,514.32 C330.402,521.08 329.455,528.048 329.412,535.051 C329.42,579.985 365.85,616.406 410.784,616.402 C455.717,616.399 492.142,579.973 492.143,535.039 L492.143,535.014 C492.096,528.023 491.149,521.068 489.325,514.32 L514.625,514.32 C556.736,514.32 590.637,480.419 590.637,438.309 C590.637,396.198 556.736,362.297 514.625,362.297 L306.93,362.297 M514.086,395.043 C536.554,395.038 554.772,413.247 554.778,435.715 L554.778,435.727 C554.777,458.193 536.565,476.407 514.098,476.408 C491.631,476.41 473.416,458.199 473.412,435.732 C473.409,413.265 491.619,395.048 514.086,395.043 L514.086,395.043 M308.393,395.045 C330.86,395.04 349.077,413.248 349.084,435.715 L349.084,435.727 C349.084,458.193 330.872,476.407 308.405,476.408 C285.938,476.41 267.723,458.199 267.719,435.732 C267.716,413.266 285.926,395.05 308.393,395.045 L308.393,395.045 M411.559,471.479 C446.146,471.471 474.192,499.503 474.202,534.09 L474.202,534.109 C474.201,568.697 446.164,596.736 411.577,596.738 C376.988,596.741 348.946,568.705 348.942,534.117 C348.937,499.529 376.971,471.485 411.559,471.479 L411.559,471.479"/>
</g>

<g fill="none" stroke="#000000" stroke-opacity="1" stroke-width="20" stroke-linecap="round" stroke-linejoin="round" transform="matrix(0.0285,0,0,0.0285,11.2928,4.44754)"
font-family="Inter" font-size="11" font-weight="700" font-style="normal" 
>
<path vector-effect="none" fill-rule="evenodd" d="M176.161,129.776 C176.161,112.358 190.281,98.2382 207.698,98.2382 L613.857,98.2382 C631.275,98.2382 645.395,112.358 645.395,129.776 L645.395,732.923 C645.395,750.341 631.275,764.461 613.857,764.461 L207.698,764.461 C190.281,764.461 176.161,750.341 176.161,732.923 L176.161,129.776"/>
</g>

<g fill="#ffffff" fill-opacity="1" stroke="none" transform="matrix(1,0,0,1,0,0)"
font-family="Inter" font-size="11" font-weight="700" font-style="normal" 
>
</g>

<g fill="#ffffff" fill-opacity="1" stroke="#0da6c5" stroke-opacity="1" stroke-width="1" stroke-linecap="square" stroke-linejoin="bevel" transform="matrix(1,0,0,1,0,0)"
font-family="Inter" font-size="11" font-weight="700" font-style="normal" 
>
<polyline fill="none" vector-effect="none" points="45,6 45,26 " />
</g>

<g fill="#ffffff" fill-opacity="1" stroke="#0da6c5" stroke-opacity="1" stroke-width="1" stroke-linecap="square" stroke-linejoin="bevel" transform="matrix(1,0,0,1,0,0)"
font-family="Inter" font-size="11" font-weight="700" font-style="normal" 
>
</g>

<g fill="#ffffff" fill-opacity="1" stroke="#0da6c5" stroke-opacity="1" stroke-width="1" stroke-linecap="square" stroke-linejoin="bevel" transform="matrix(1,0,0,1,0,0)"
font-family="Inter" font-size="11" font-weight="700" font-style="normal" 
>
</g>

<g fill="#1dccf0" fill-opacity="1" stroke="#0da6c5" stroke-opacity="1" stroke-width="1.2" stroke-linecap="square" stroke-linejoin="bevel" transform="matrix(1,0,0,1,56,4)"
font-family="Inter" font-size="11" font-weight="700" font-style="normal" 
>
<path vector-effect="none" fill-rule="evenodd" d="M0.5,3.5 C0.5,1.84315 1.84315,0.5 3.5,0.5 L71.5,0.5 C73.1569,0.5 74.5,1.84315 74.5,3.5 L74.5,20.5 C74.5,22.1569 73.1569,23.5 71.5,23.5 L3.5,23.5 C1.84315,23.5 0.5,22.1569 0.5,20.5 L0.5,3.5"/>
</g>

<g fill="#ffffff" fill-opacity="1" stroke="none" transform="matrix(1,0,0,1,56,4)"
font-family="Inter" font-size="11" font-weight="700" font-style="normal" 
>
<path vector-effect="none" fill-rule="nonzero" d="M10,9.39453 L10,8 L16.5703,8 L16.5703,9.39453 L14.1211,9.39453 L14.1211,16 L12.4492,16 L12.4492,9.39453 L10,9.39453 M17.6484,16 L17.6484,8 L19.3398,8 L19.3398,11.3008 L22.7734,11.3008 L22.7734,8 L24.4609,8 L24.4609,16 L22.7734,16 L22.7734,12.6953 L19.3398,12.6953 L19.3398,16 L17.6484,16 M32.543,8 L32.543,16 L31.082,16 L27.6016,10.9648 L27.543,10.9648 L27.543,16 L25.8516,16 L25.8516,8 L27.3359,8 L30.7891,13.0313 L30.8594,13.0313 L30.8594,8 L32.543,8 M33.9297,16 L33.9297,8 L35.6211,8 L35.6211,11.3008 L39.0547,11.3008 L39.0547,8 L40.7422,8 L40.7422,16 L39.0547,16 L39.0547,12.6953 L35.6211,12.6953 L35.6211,16 L33.9297,16 M42.1328,16 L42.1328,8 L45.3359,8 C45.9245,8 46.4154,8.08724 46.8086,8.26172 C47.2018,8.4362 47.4974,8.67773 47.6953,8.98633 C47.8932,9.29492 47.9922,9.64974 47.9922,10.0508 C47.9922,10.3633 47.9297,10.6374 47.8047,10.873 C47.6797,11.1087 47.5085,11.3014 47.291,11.4512 C47.0736,11.6009 46.8255,11.707 46.5469,11.7695 L46.5469,11.8477 C46.8516,11.8607 47.1374,11.9466 47.4043,12.1055 C47.6712,12.2643 47.888,12.4863 48.0547,12.7715 C48.2214,13.0566 48.3047,13.3958 48.3047,13.7891 C48.3047,14.2135 48.1999,14.5918 47.9902,14.9238 C47.7806,15.2559 47.4714,15.5182 47.0625,15.7109 C46.6536,15.9036 46.1497,16 45.5508,16 L42.1328,16 M43.8242,14.6172 L45.2031,14.6172 C45.6745,14.6172 46.0182,14.5267 46.2344,14.3457 C46.4505,14.1647 46.5586,13.9232 46.5586,13.6211 C46.5586,13.3997 46.5052,13.2044 46.3984,13.0352 C46.2917,12.8659 46.14,12.7331 45.9434,12.6367 C45.7467,12.5404 45.513,12.4922 45.2422,12.4922 L43.8242,12.4922 L43.8242,14.6172 M43.8242,11.3477 L45.0781,11.3477 C45.3099,11.3477 45.5163,11.3066 45.6973,11.2246 C45.8783,11.1426 46.0215,11.026 46.127,10.875 C46.2324,10.724 46.2852,10.543 46.2852,10.332 C46.2852,10.043 46.1829,9.8099 45.9785,9.63281 C45.7741,9.45573 45.4844,9.36719 45.1094,9.36719 L43.8242,9.36719 L43.8242,11.3477 M52.832,8 L52.832,16 L51.1406,16 L51.1406,9.60547 L51.0938,9.60547 L49.2617,10.7539 L49.2617,9.25391 L51.2422,8 L52.832,8"/>
</g>

<g fill="#ffffff" fill-opacity="1" stroke="none" transform="matrix(0.03125,0,0,0.03125,117,12)"
font-family="Inter" font-size="11" font-weight="700" font-style="normal" 
>
<path vector-effect="none" fill-rule="nonzero" d="M111.326,191.938 C120.545,201.158 135.517,201.158 144.737,191.938 L239.144,97.5313 C245.929,90.7458 247.921,80.6413 244.233,71.7907 C240.545,62.9401 231.989,57.1871 222.401,57.1871 L33.5875,57.2608 C24.0731,57.2608 15.4437,63.0137 11.7559,71.8644 C8.06815,80.715 10.1333,90.8195 16.845,97.605 L111.252,192.012 L111.326,191.938"/>
</g>

<g fill="none" stroke="#000000" stroke-opacity="1" stroke-width="13.7195" stroke-linecap="butt" stroke-linejoin="miter" stroke-miterlimit="4" transform="matrix(0.03125,0,0,0.03125,117,12)"
font-family="Inter" font-size="11" font-weight="700" font-style="normal" 
>
<path vector-effect="none" fill-rule="nonzero" d="M111.326,191.938 C120.545,201.158 135.517,201.158 144.737,191.938 L239.144,97.5313 C245.929,90.7458 247.921,80.6413 244.233,71.7907 C240.545,62.9401 231.989,57.1871 222.401,57.1871 L33.5875,57.2608 C24.0731,57.2608 15.4437,63.0137 11.7559,71.8644 C8.06815,80.715 10.1333,90.8195 16.845,97.605 L111.252,192.012 L111.326,191.938"/>
</g>

<g fill="#ffffff" fill-opacity="1" stroke="none" transform="matrix(1,0,0,1,56,4)"
font-family="Inter" font-size="11" font-weight="700" font-style="normal" 
>
</g>

<g fill="#ffffff" fill-opacity="1" stroke="#0da6c5" stroke-opacity="1" stroke-width="1" stroke-linecap="square" stroke-linejoin="bevel" transform="matrix(1,0,0,1,0,0)"
font-family="Inter" font-size="11" font-weight="700" font-style="normal" 
>
</g>

<g fill="#0da6c5" fill-opacity="1" stroke="#0da6c5" stroke-opacity="1" stroke-width="1.2" stroke-linecap="square" stroke-linejoin="bevel" transform="matrix(1,0,0,1,135,4)"
font-family="Inter" font-size="11" font-weight="700" font-style="normal" 
>
<path vector-effect="none" fill-rule="evenodd" d="M0.5,12 C0.5,5.64873 5.87258,0.5 12.5,0.5 L27.5,0.5 C34.1274,0.5 39.5,5.64873 39.5,12 C39.5,18.3513 34.1274,23.5 27.5,23.5 L12.5,23.5 C5.87258,23.5 0.5,18.3513 0.5,12 "/>
</g>

<g fill="#ffffff" fill-opacity="1" stroke="none" transform="matrix(1,0,0,1,135,4)"
font-family="Inter" font-size="11" font-weight="700" font-style="normal" 
>
<path vector-effect="none" fill-rule="nonzero" d="M11.8242,16 L10.0117,16 L12.7734,8 L14.9531,8 L17.7109,16 L15.8984,16 L13.8945,9.82813 L13.832,9.82813 L11.8242,16 M11.7109,12.8555 L15.9922,12.8555 L15.9922,14.1758 L11.7109,14.1758 L11.7109,12.8555"/>
</g>

<g fill="#ffffff" fill-opacity="1" stroke="none" transform="matrix(0.03125,0,0,0.03125,161,12)"
font-family="Inter" font-size="11" font-weight="700" font-style="normal" 
>
<path vector-effect="none" fill-rule="nonzero" d="M111.326,191.938 C120.545,201.158 135.517,201.158 144.737,191.938 L239.144,97.5313 C245.929,90.7458 247.921,80.6413 244.233,71.7907 C240.545,62.9401 231.989,57.1871 222.401,57.1871 L33.5875,57.2608 C24.0731,57.2608 15.4437,63.0137 11.7559,71.8644 C8.06815,80.715 10.1333,90.8195 16.845,97.605 L111.252,192.012 L111.326,191.938"/>
</g>

<g fill="none" stroke="#000000" stroke-opacity="1" stroke-width="13.7195" stroke-linecap="butt" stroke-linejoin="miter" stroke-miterlimit="4" transform="matrix(0.03125,0,0,0.03125,161,12)"
font-family="Inter" font-size="11" font-weight="700" font-style="normal" 
>
<path vector-effect="none" fill-rule="nonzero" d="M111.326,191.938 C120.545,201.158 135.517,201.158 144.737,191.938 L239.144,97.5313 C245.929,90.7458 247.921,80.6413 244.233,71.7907 C240.545,62.9401 231.989,57.1871 222.401,57.1871 L33.5875,57.2608 C24.0731,57.2608 15.4437,63.0137 11.7559,71.8644 C8.06815,80.715 10.1333,90.8195 16.845,97.605 L111.252,192.012 L111.326,191.938"/>
</g>

<g fill="#ffffff" fill-opacity="1" stroke="none" transform="matrix(1,0,0,1,135,4)"
font-family="Inter" font-size="11" font-weight="700" font-style="normal" 
>
</g>

<g fill="#ffffff" fill-opacity="1" stroke="#0da6c5" stroke-opacity="1" stroke-width="1" stroke-linecap="square" stroke-linejoin="bevel" transform="matrix(1,0,0,1,0,0)"
font-family="Inter" font-size="11" font-weight="700" font-style="normal" 
>
</g>

<g fill="#1dccf0" fill-opacity="1" stroke="#0da6c5" stroke-opacity="1" stroke-width="1.2" stroke-linecap="square" stroke-linejoin="bevel" transform="matrix(1,0,0,1,214,4)"
font-family="Inter" font-size="11" font-weight="700" font-style="normal" 
>
<path vector-effect="none" fill-rule="evenodd" d="M0.5,3.5 C0.5,1.84315 1.84315,0.5 3.5,0.5 L57.5,0.5 C59.1569,0.5 60.5,1.84315 60.5,3.5 L60.5,20.5 C60.5,22.1569 59.1569,23.5 57.5,23.5 L3.5,23.5 C1.84315,23.5 0.5,22.1569 0.5,20.5 L0.5,3.5"/>
</g>

<g fill="#ffffff" fill-opacity="1" stroke="none" transform="matrix(1,0,0,1,214,4)"
font-family="Inter" font-size="11" font-weight="700" font-style="normal" 
>
<path vector-effect="none" fill-rule="nonzero" d="M16.0703,9.90625 L13.9727,15.9063 L12.0977,15.9063 L10,9.90625 L11.7578,9.90625 L13.0039,14.1992 L13.0664,14.1992 L14.3086,9.90625 L16.0703,9.90625 M18.4531,16.0195 C18.0703,16.0195 17.7292,15.9525 17.4297,15.8184 C17.1302,15.6842 16.8939,15.485 16.7207,15.2207 C16.5475,14.9564 16.4609,14.6263 16.4609,14.2305 C16.4609,13.8971 16.5221,13.6172 16.6445,13.3906 C16.7669,13.1641 16.9336,12.9818 17.1445,12.8438 C17.3555,12.7057 17.5957,12.6016 17.8652,12.5313 C18.1348,12.4609 18.418,12.4115 18.7148,12.3828 C19.0638,12.3464 19.3451,12.3118 19.5586,12.2793 C19.7721,12.2467 19.9271,12.1979 20.0234,12.1328 C20.1198,12.0677 20.168,11.9714 20.168,11.8438 L20.168,11.8203 C20.168,11.5729 20.0905,11.3815 19.9355,11.2461 C19.7806,11.1107 19.5612,11.043 19.2773,11.043 C18.9779,11.043 18.7396,11.1087 18.5625,11.2402 C18.3854,11.3717 18.2682,11.5365 18.2109,11.7344 L16.6719,11.6094 C16.75,11.2448 16.9036,10.929 17.1328,10.6621 C17.362,10.3952 17.6582,10.1895 18.0215,10.0449 C18.3848,9.90039 18.806,9.82813 19.2852,9.82813 C19.6185,9.82813 19.9382,9.86719 20.2441,9.94531 C20.5501,10.0234 20.8223,10.1445 21.0605,10.3086 C21.2988,10.4727 21.487,10.6829 21.625,10.9395 C21.763,11.196 21.832,11.5026 21.832,11.8594 L21.832,15.9063 L20.2539,15.9063 L20.2539,15.0742 L20.207,15.0742 C20.1107,15.2617 19.9818,15.4264 19.8203,15.5684 C19.6589,15.7103 19.4648,15.821 19.2383,15.9004 C19.0117,15.9798 18.75,16.0195 18.4531,16.0195 M18.9297,14.8711 C19.1745,14.8711 19.3906,14.8223 19.5781,14.7246 C19.7656,14.627 19.9128,14.4948 20.0195,14.3281 C20.1263,14.1615 20.1797,13.9727 20.1797,13.7617 L20.1797,13.125 C20.1276,13.1589 20.0566,13.1895 19.9668,13.2168 C19.877,13.2441 19.776,13.2689 19.6641,13.291 C19.5521,13.3132 19.4401,13.3327 19.3281,13.3496 C19.2161,13.3665 19.1146,13.3815 19.0234,13.3945 C18.8281,13.4232 18.6576,13.4688 18.5117,13.5313 C18.3659,13.5938 18.2526,13.6777 18.1719,13.7832 C18.0911,13.8887 18.0508,14.0195 18.0508,14.1758 C18.0508,14.4023 18.1335,14.5749 18.2988,14.6934 C18.4642,14.8118 18.6745,14.8711 18.9297,14.8711 M24.7813,7.90625 L24.7813,15.9063 L23.1172,15.9063 L23.1172,7.90625 L24.7813,7.90625 M29.9492,13.3516 L29.9492,9.90625 L31.6133,9.90625 L31.6133,15.9063 L30.0156,15.9063 L30.0156,14.8164 L29.9531,14.8164 C29.8177,15.168 29.5931,15.4505 29.2793,15.6641 C28.9655,15.8776 28.5833,15.9844 28.1328,15.9844 C27.7318,15.9844 27.3789,15.8932 27.0742,15.7109 C26.7695,15.5286 26.5319,15.2695 26.3613,14.9336 C26.1908,14.5977 26.1042,14.1953 26.1016,13.7266 L26.1016,9.90625 L27.7656,9.90625 L27.7656,13.4297 C27.7682,13.7839 27.8633,14.0638 28.0508,14.2695 C28.2383,14.4753 28.4896,14.5781 28.8047,14.5781 C29.0052,14.5781 29.1927,14.5319 29.3672,14.4395 C29.5417,14.347 29.6829,14.2096 29.791,14.0273 C29.8991,13.8451 29.9518,13.6198 29.9492,13.3516 M35.6641,16.0234 C35.0469,16.0234 34.5163,15.8978 34.0723,15.6465 C33.6283,15.3952 33.2865,15.0384 33.0469,14.5762 C32.8073,14.1139 32.6875,13.5664 32.6875,12.9336 C32.6875,12.3164 32.8073,11.7747 33.0469,11.3086 C33.2865,10.8424 33.6243,10.4792 34.0605,10.2188 C34.4967,9.95833 35.0091,9.82813 35.5977,9.82813 C35.9935,9.82813 36.3626,9.89128 36.7051,10.0176 C37.0475,10.1439 37.347,10.3333 37.6035,10.5859 C37.86,10.8385 38.0599,11.1556 38.2031,11.5371 C38.3464,11.9186 38.418,12.3646 38.418,12.875 L38.418,13.332 L33.3516,13.332 L33.3516,12.3008 L36.8516,12.3008 C36.8516,12.0612 36.7995,11.849 36.6953,11.6641 C36.5911,11.4792 36.4473,11.334 36.2637,11.2285 C36.0801,11.123 35.8672,11.0703 35.625,11.0703 C35.3724,11.0703 35.1491,11.1283 34.9551,11.2441 C34.7611,11.36 34.6094,11.515 34.5,11.709 C34.3906,11.903 34.3346,12.1185 34.332,12.3555 L34.332,13.3359 C34.332,13.6328 34.3874,13.8893 34.498,14.1055 C34.6087,14.3216 34.7656,14.4883 34.9688,14.6055 C35.1719,14.7227 35.4128,14.7813 35.6914,14.7813 C35.8763,14.7813 36.0456,14.7552 36.1992,14.7031 C36.3529,14.651 36.4844,14.5729 36.5938,14.4688 C36.7031,14.3646 36.7865,14.237 36.8438,14.0859 L38.3828,14.1875 C38.3047,14.5573 38.1452,14.8796 37.9043,15.1543 C37.6634,15.429 37.3535,15.6426 36.9746,15.7949 C36.5957,15.9473 36.1589,16.0234 35.6641,16.0234 "/>
</g>

<g fill="#ffffff" fill-opacity="1" stroke="none" transform="matrix(0.03125,0,0,0.03125,261,12)"
font-family="Inter" font-size="11" font-weight="700" font-style="normal" 
>
<path vector-effect="none" fill-rule="nonzero" d="M111.326,191.938 C120.545,201.158 135.517,201.158 144.737,191.938 L239.144,97.5313 C245.929,90.7458 247.921,80.6413 244.233,71.7907 C240.545,62.9401 231.989,57.1871 222.401,57.1871 L33.5875,57.2608 C24.0731,57.2608 15.4437,63.0137 11.7559,71.8644 C8.06815,80.715 10.1333,90.8195 16.845,97.605 L111.252,192.012 L111.326,191.938"/>
</g>

<g fill="none" stroke="#000000" stroke-opacity="1" stroke-width="13.7195" stroke-linecap="butt" stroke-linejoin="miter" stroke-miterlimit="4" transform="matrix(0.03125,0,0,0.03125,261,12)"
font-family="Inter" font-size="11" font-weight="700" font-style="normal" 
>
<path vector-effect="none" fill-rule="nonzero" d="M111.326,191.938 C120.545,201.158 135.517,201.158 144.737,191.938 L239.144,97.5313 C245.929,90.7458 247.921,80.6413 244.233,71.7907 C240.545,62.9401 231.989,57.1871 222.401,57.1871 L33.5875,57.2608 C24.0731,57.2608 15.4437,63.0137 11.7559,71.8644 C8.06815,80.715 10.1333,90.8195 16.845,97.605 L111.252,192.012 L111.326,191.938"/>
</g>

<g fill="#ffffff" fill-opacity="1" stroke="none" transform="matrix(1,0,0,1,214,4)"
font-family="Inter" font-size="11" font-weight="700" font-style="normal" 
>
</g>

<g fill="#ffffff" fill-opacity="1" stroke="#0da6c5" stroke-opacity="1" stroke-width="1" stroke-linecap="square" stroke-linejoin="bevel" transform="matrix(1,0,0,1,0,0)"
font-family="Inter" font-size="11" font-weight="700" font-style="normal" 
>
</g>

<g fill="none" stroke="#000000" stroke-opacity="1" stroke-width="1" stroke-linecap="square" stroke-linejoin="bevel" transform="matrix(1,0,0,1,0,0)"
font-family=".AppleSystemUIFont" font-size="13" font-weight="400" font-style="normal" 
>
</g>
</g>
</svg>
