<?xml version="1.0" encoding="UTF-8" standalone="no"?>
<svg width="73.3778mm" height="15.5222mm"
 viewBox="0 0 208 44"
 xmlns="http://www.w3.org/2000/svg" xmlns:xlink="http://www.w3.org/1999/xlink" version="1.2" baseProfile="tiny">
<title>Abstract block</title>
<desc>block_lists_insert_at</desc>
<defs>
</defs>
<g fill="none" stroke="black" stroke-width="1" fill-rule="evenodd" stroke-linecap="square" stroke-linejoin="bevel" >

<g fill="none" stroke="#000000" stroke-opacity="1" stroke-width="1" stroke-linecap="square" stroke-linejoin="bevel" transform="matrix(1,0,0,1,0,0)"
font-family=".AppleSystemUIFont" font-size="13" font-weight="400" font-style="normal" 
>
</g>

<g fill="none" stroke="#000000" stroke-opacity="1" stroke-width="1" stroke-linecap="square" stroke-linejoin="bevel" transform="matrix(1,0,0,1,0,0)"
font-family=".AppleSystemUIFont" font-size="13" font-weight="400" font-style="normal" 
>
</g>

<g fill="#ff661a" fill-opacity="1" stroke="#de4600" stroke-opacity="1" stroke-width="1.2" stroke-linecap="square" stroke-linejoin="bevel" transform="matrix(1,0,0,1,0,0)"
font-family=".AppleSystemUIFont" font-size="13" font-weight="400" font-style="normal" 
>
<path vector-effect="none" fill-rule="evenodd" d="M0.5,4.5 L1.04612,2.48112 L2.48112,1.04612 L4.5,0.5 L9.625,0.5 L10.416,0.976563 L11.1719,1.6875 L11.998,2.67969 L13,4 L13.7559,4.66016 L14.5469,5.15625 L15.4082,5.51172 L16.375,5.75 L17.4824,5.89453 L18.7656,5.96875 L20.2598,5.99609 L22,6 L23.7402,5.99609 L25.2344,5.96875 L26.5176,5.89453 L27.625,5.75 L28.5918,5.51172 L29.4531,5.15625 L30.2441,4.66016 L31,4 L32.002,2.67969 L32.8281,1.6875 L33.584,0.976563 L34.375,0.5 L203.009,0.5 L205.028,1.04612 L206.463,2.48112 L207.009,4.5 L207.009,31.5 L206.463,33.5189 L205.028,34.9539 L203.009,35.5 L34.375,35.5 L33.584,35.9766 L32.8281,36.6875 L32.002,37.6797 L31,39 L30.2441,39.6602 L29.4531,40.1563 L28.5918,40.5117 L27.625,40.75 L26.5176,40.8945 L25.2344,40.9688 L23.7402,40.9961 L22,41 L20.2598,40.9961 L18.7656,40.9688 L17.4824,40.8945 L16.375,40.75 L15.4082,40.5117 L14.5469,40.1563 L13.7559,39.6602 L13,39 L11.998,37.6797 L11.1719,36.6875 L10.416,35.9766 L9.625,35.5 L4.5,35.5 L2.48112,34.9539 L1.04612,33.5189 L0.5,31.5 L0.5,4.5"/>
</g>

<g fill="#ffffff" fill-opacity="1" stroke="none" transform="matrix(1,0,0,1,0,0)"
font-family="Inter" font-size="11" font-weight="700" font-style="normal" 
>
<path vector-effect="none" fill-rule="nonzero" d="M12.0078,21.9531 L12.0078,15.9531 L13.6719,15.9531 L13.6719,21.9531 L12.0078,21.9531 M12.8438,15.1797 C12.5964,15.1797 12.3848,15.097 12.209,14.9316 C12.0332,14.7663 11.9453,14.5677 11.9453,14.3359 C11.9453,14.1068 12.0332,13.9095 12.209,13.7441 C12.3848,13.5788 12.5964,13.4961 12.8438,13.4961 C13.0911,13.4961 13.3027,13.5788 13.4785,13.7441 C13.6543,13.9095 13.7422,14.1068 13.7422,14.3359 C13.7422,14.5677 13.6543,14.7663 13.4785,14.9316 C13.3027,15.097 13.0911,15.1797 12.8438,15.1797 M16.6563,18.4844 L16.6563,21.9531 L14.9922,21.9531 L14.9922,15.9531 L16.5781,15.9531 L16.5781,17.0117 L16.6484,17.0117 C16.7813,16.6628 17.0039,16.3861 17.3164,16.1816 C17.6289,15.9772 18.0078,15.875 18.4531,15.875 C18.8698,15.875 19.2331,15.9661 19.543,16.1484 C19.8529,16.3307 20.0938,16.5905 20.2656,16.9277 C20.4375,17.265 20.5234,17.6667 20.5234,18.1328 L20.5234,21.9531 L18.8594,21.9531 L18.8594,18.4297 C18.862,18.0625 18.7682,17.7754 18.5781,17.5684 C18.388,17.3613 18.1263,17.2578 17.793,17.2578 C17.569,17.2578 17.3717,17.306 17.2012,17.4023 C17.0306,17.4987 16.8978,17.6387 16.8027,17.8223 C16.7077,18.0059 16.6589,18.2266 16.6563,18.4844 M26.8125,17.6641 L25.2891,17.7578 C25.263,17.6276 25.207,17.5098 25.1211,17.4043 C25.0352,17.2988 24.9225,17.2142 24.7832,17.1504 C24.6439,17.0866 24.4779,17.0547 24.2852,17.0547 C24.0273,17.0547 23.8099,17.1087 23.6328,17.2168 C23.4557,17.3249 23.3672,17.4688 23.3672,17.6484 C23.3672,17.7917 23.4245,17.9128 23.5391,18.0117 C23.6536,18.1107 23.8503,18.1901 24.1289,18.25 L25.2148,18.4688 C25.7982,18.5885 26.2331,18.7813 26.5195,19.0469 C26.806,19.3125 26.9492,19.6615 26.9492,20.0938 C26.9492,20.487 26.834,20.832 26.6035,21.1289 C26.373,21.4258 26.0579,21.6569 25.6582,21.8223 C25.2585,21.9876 24.7982,22.0703 24.2773,22.0703 C23.4831,22.0703 22.8509,21.9043 22.3809,21.5723 C21.9108,21.2402 21.6354,20.7878 21.5547,20.2148 L23.1914,20.1289 C23.2409,20.3711 23.3607,20.5553 23.5508,20.6816 C23.7409,20.8079 23.9844,20.8711 24.2813,20.8711 C24.5729,20.8711 24.8079,20.8145 24.9863,20.7012 C25.1647,20.5879 25.2552,20.4414 25.2578,20.2617 C25.2552,20.1107 25.1914,19.9863 25.0664,19.8887 C24.9414,19.791 24.7487,19.7161 24.4883,19.6641 L23.4492,19.457 C22.8633,19.3398 22.4277,19.1367 22.1426,18.8477 C21.8574,18.5586 21.7148,18.1901 21.7148,17.7422 C21.7148,17.3568 21.8197,17.0247 22.0293,16.7461 C22.2389,16.4674 22.5345,16.2526 22.916,16.1016 C23.2975,15.9505 23.7448,15.875 24.2578,15.875 C25.0156,15.875 25.6126,16.0352 26.0488,16.3555 C26.485,16.6758 26.7396,17.112 26.8125,17.6641 M30.7266,22.0703 C30.1094,22.0703 29.5788,21.9447 29.1348,21.6934 C28.6908,21.4421 28.349,21.0853 28.1094,20.623 C27.8698,20.1608 27.75,19.6133 27.75,18.9805 C27.75,18.3633 27.8698,17.8216 28.1094,17.3555 C28.349,16.8893 28.6868,16.526 29.123,16.2656 C29.5592,16.0052 30.0716,15.875 30.6602,15.875 C31.056,15.875 31.4251,15.9382 31.7676,16.0645 C32.11,16.1908 32.4095,16.3802 32.666,16.6328 C32.9225,16.8854 33.1224,17.2025 33.2656,17.584 C33.4089,17.9655 33.4805,18.4115 33.4805,18.9219 L33.4805,19.3789 L28.4141,19.3789 L28.4141,18.3477 L31.9141,18.3477 C31.9141,18.1081 31.862,17.8958 31.7578,17.7109 C31.6536,17.526 31.5098,17.3809 31.3262,17.2754 C31.1426,17.1699 30.9297,17.1172 30.6875,17.1172 C30.4349,17.1172 30.2116,17.1751 30.0176,17.291 C29.8236,17.4069 29.6719,17.5618 29.5625,17.7559 C29.4531,17.9499 29.3971,18.1654 29.3945,18.4023 L29.3945,19.3828 C29.3945,19.6797 29.4499,19.9362 29.5605,20.1523 C29.6712,20.3685 29.8281,20.5352 30.0313,20.6523 C30.2344,20.7695 30.4753,20.8281 30.7539,20.8281 C30.9388,20.8281 31.1081,20.8021 31.2617,20.75 C31.4154,20.6979 31.5469,20.6198 31.6563,20.5156 C31.7656,20.4115 31.849,20.2839 31.9063,20.1328 L33.4453,20.2344 C33.3672,20.6042 33.2077,20.9264 32.9668,21.2012 C32.7259,21.4759 32.416,21.6895 32.0371,21.8418 C31.6582,21.9941 31.2214,22.0703 30.7266,22.0703 M34.5547,21.9531 L34.5547,15.9531 L36.168,15.9531 L36.168,17 L36.2305,17 C36.3398,16.6276 36.5234,16.3457 36.7813,16.1543 C37.0391,15.9629 37.3359,15.8672 37.6719,15.8672 C37.7552,15.8672 37.8451,15.8724 37.9414,15.8828 C38.0378,15.8932 38.1224,15.9076 38.1953,15.9258 L38.1953,17.4023 C38.1172,17.3789 38.0091,17.3581 37.8711,17.3398 C37.7331,17.3216 37.6068,17.3125 37.4922,17.3125 C37.2474,17.3125 37.0293,17.3652 36.8379,17.4707 C36.6465,17.5762 36.4954,17.7227 36.3848,17.9102 C36.2741,18.0977 36.2188,18.3138 36.2188,18.5586 L36.2188,21.9531 L34.5547,21.9531 M42.5273,15.9531 L42.5273,17.2031 L38.9141,17.2031 L38.9141,15.9531 L42.5273,15.9531 M39.7344,14.5156 L41.3984,14.5156 L41.3984,20.1094 C41.3984,20.263 41.4219,20.3822 41.4688,20.4668 C41.5156,20.5514 41.5814,20.6107 41.666,20.6445 C41.7507,20.6784 41.849,20.6953 41.9609,20.6953 C42.0391,20.6953 42.1172,20.6882 42.1953,20.6738 C42.2734,20.6595 42.3333,20.6484 42.375,20.6406 L42.6367,21.8789 C42.5534,21.9049 42.4362,21.9355 42.2852,21.9707 C42.1341,22.0059 41.9505,22.0273 41.7344,22.0352 C41.3333,22.0508 40.9824,21.9974 40.6816,21.875 C40.3809,21.7526 40.1471,21.5625 39.9805,21.3047 C39.8138,21.0469 39.7318,20.7214 39.7344,20.3281 L39.7344,14.5156"/>
</g>

<g fill="#ffffff" fill-opacity="1" stroke="none" transform="matrix(1,0,0,1,0,0)"
font-family="Inter" font-size="11" font-weight="700" font-style="normal" 
>
<path vector-effect="none" fill-rule="nonzero" d="M90.4375,21.5664 C90.0547,21.5664 89.7135,21.4993 89.4141,21.3652 C89.1146,21.2311 88.8783,21.0319 88.7051,20.7676 C88.5319,20.5033 88.4453,20.1732 88.4453,19.7773 C88.4453,19.444 88.5065,19.1641 88.6289,18.9375 C88.7513,18.7109 88.918,18.5286 89.1289,18.3906 C89.3398,18.2526 89.5801,18.1484 89.8496,18.0781 C90.1191,18.0078 90.4023,17.9583 90.6992,17.9297 C91.0482,17.8932 91.3294,17.8587 91.543,17.8262 C91.7565,17.7936 91.9115,17.7448 92.0078,17.6797 C92.1042,17.6146 92.1523,17.5182 92.1523,17.3906 L92.1523,17.3672 C92.1523,17.1198 92.0749,16.9284 91.9199,16.793 C91.765,16.6576 91.5456,16.5898 91.2617,16.5898 C90.9622,16.5898 90.724,16.6556 90.5469,16.7871 C90.3698,16.9186 90.2526,17.0833 90.1953,17.2813 L88.6563,17.1563 C88.7344,16.7917 88.888,16.4759 89.1172,16.209 C89.3464,15.9421 89.6426,15.7363 90.0059,15.5918 C90.3691,15.4473 90.7904,15.375 91.2695,15.375 C91.6029,15.375 91.9225,15.4141 92.2285,15.4922 C92.5345,15.5703 92.8066,15.6914 93.0449,15.8555 C93.2832,16.0195 93.4714,16.2298 93.6094,16.4863 C93.7474,16.7428 93.8164,17.0495 93.8164,17.4063 L93.8164,21.4531 L92.2383,21.4531 L92.2383,20.6211 L92.1914,20.6211 C92.0951,20.8086 91.9661,20.9733 91.8047,21.1152 C91.6432,21.2572 91.4492,21.3678 91.2227,21.4473 C90.9961,21.5267 90.7344,21.5664 90.4375,21.5664 M90.9141,20.418 C91.1589,20.418 91.375,20.3691 91.5625,20.2715 C91.75,20.1738 91.8971,20.0417 92.0039,19.875 C92.1107,19.7083 92.1641,19.5195 92.1641,19.3086 L92.1641,18.6719 C92.112,18.7057 92.041,18.7363 91.9512,18.7637 C91.8613,18.791 91.7604,18.8158 91.6484,18.8379 C91.5365,18.86 91.4245,18.8796 91.3125,18.8965 C91.2005,18.9134 91.099,18.9284 91.0078,18.9414 C90.8125,18.9701 90.6419,19.0156 90.4961,19.0781 C90.3503,19.1406 90.237,19.2246 90.1563,19.3301 C90.0755,19.4355 90.0352,19.5664 90.0352,19.7227 C90.0352,19.9492 90.1178,20.1217 90.2832,20.2402 C90.4486,20.3587 90.6589,20.418 90.9141,20.418 M98.293,15.4531 L98.293,16.7031 L94.6797,16.7031 L94.6797,15.4531 L98.293,15.4531 M95.5,14.0156 L97.1641,14.0156 L97.1641,19.6094 C97.1641,19.763 97.1875,19.8822 97.2344,19.9668 C97.2813,20.0514 97.347,20.1107 97.4316,20.1445 C97.5163,20.1784 97.6146,20.1953 97.7266,20.1953 C97.8047,20.1953 97.8828,20.1882 97.9609,20.1738 C98.0391,20.1595 98.099,20.1484 98.1406,20.1406 L98.4023,21.3789 C98.319,21.4049 98.2018,21.4355 98.0508,21.4707 C97.8997,21.5059 97.7161,21.5273 97.5,21.5352 C97.099,21.5508 96.748,21.4974 96.4473,21.375 C96.1465,21.2526 95.9128,21.0625 95.7461,20.8047 C95.5794,20.5469 95.4974,20.2214 95.5,19.8281 L95.5,14.0156"/>
</g>

<g fill="#ffffff" fill-opacity="1" stroke="none" transform="matrix(1,0,0,1,0,0)"
font-family="Inter" font-size="11" font-weight="700" font-style="normal" 
>
<path vector-effect="none" fill-rule="nonzero" d="M140.172,22.1172 C139.565,22.1172 139.041,21.9876 138.6,21.7285 C138.158,21.4694 137.818,21.1074 137.578,20.6426 C137.339,20.1777 137.219,19.638 137.219,19.0234 C137.219,18.4036 137.339,17.8613 137.578,17.3965 C137.818,16.9316 138.158,16.5697 138.6,16.3105 C139.041,16.0514 139.565,15.9219 140.172,15.9219 C140.779,15.9219 141.303,16.0514 141.744,16.3105 C142.186,16.5697 142.526,16.9316 142.766,17.3965 C143.005,17.8613 143.125,18.4036 143.125,19.0234 C143.125,19.638 143.005,20.1777 142.766,20.6426 C142.526,21.1074 142.186,21.4694 141.744,21.7285 C141.303,21.9876 140.779,22.1172 140.172,22.1172 M140.18,20.8281 C140.456,20.8281 140.686,20.7493 140.871,20.5918 C141.056,20.4342 141.196,20.2188 141.291,19.9453 C141.386,19.6719 141.434,19.3607 141.434,19.0117 C141.434,18.6628 141.386,18.3516 141.291,18.0781 C141.196,17.8047 141.056,17.5885 140.871,17.4297 C140.686,17.2708 140.456,17.1914 140.18,17.1914 C139.901,17.1914 139.667,17.2708 139.479,17.4297 C139.29,17.5885 139.148,17.8047 139.053,18.0781 C138.958,18.3516 138.91,18.6628 138.91,19.0117 C138.91,19.3607 138.958,19.6719 139.053,19.9453 C139.148,20.2188 139.29,20.4342 139.479,20.5918 C139.667,20.7493 139.901,20.8281 140.18,20.8281 M147.438,16 L147.438,17.25 L143.734,17.25 L143.734,16 L147.438,16 M144.582,22 L144.582,15.5664 C144.582,15.1315 144.667,14.7708 144.838,14.4844 C145.008,14.1979 145.242,13.9831 145.539,13.8398 C145.836,13.6966 146.173,13.625 146.551,13.625 C146.806,13.625 147.04,13.6445 147.252,13.6836 C147.464,13.7227 147.622,13.7578 147.727,13.7891 L147.43,15.0391 C147.365,15.0182 147.285,14.9987 147.189,14.9805 C147.094,14.9622 146.997,14.9531 146.898,14.9531 C146.654,14.9531 146.483,15.0098 146.387,15.123 C146.29,15.2363 146.242,15.3945 146.242,15.5977 L146.242,22 L144.582,22"/>
</g>

<g fill="#ffffff" fill-opacity="1" stroke="#ca4000" stroke-opacity="1" stroke-width="1.2" stroke-linecap="square" stroke-linejoin="bevel" transform="matrix(1,0,0,1,104.609,7)"
font-family="Inter" font-size="11" font-weight="700" font-style="normal" 
>
<path vector-effect="none" fill-rule="evenodd" d="M1,11 C1,5.47715 5.92487,1 12,1 L14.4,1 C20.4751,1 25.4,5.47715 25.4,11 C25.4,16.5228 20.4751,21 14.4,21 L12,21 C5.92487,21 1,16.5228 1,11 "/>
</g>

<g fill="#000000" fill-opacity="1" stroke="none" transform="matrix(1,0,0,1,104.609,7)"
font-family="Inter" font-size="10" font-weight="700" font-style="normal" 
>
<path vector-effect="none" fill-rule="nonzero" d="M14.5817,7.22727 L14.5817,14.5 L13.044,14.5 L13.044,8.68679 L13.0014,8.68679 L11.3359,9.73082 L11.3359,8.36719 L13.1364,7.22727 L14.5817,7.22727"/>
</g>

<g fill="#ffffff" fill-opacity="1" stroke="none" transform="matrix(1,0,0,1,0,0)"
font-family="Inter" font-size="11" font-weight="700" font-style="normal" 
>
</g>

<g fill="#ffffff" fill-opacity="1" stroke="none" transform="matrix(1,0,0,1,0,0)"
font-family="Inter" font-size="11" font-weight="700" font-style="normal" 
>
</g>

<g fill="#ffffff" fill-opacity="1" stroke="none" transform="matrix(1,0,0,1,0,0)"
font-family="Inter" font-size="11" font-weight="700" font-style="normal" 
>
</g>

<g fill="#ffffff" fill-opacity="1" stroke="none" transform="matrix(1,0,0,1,0,0)"
font-family="Inter" font-size="11" font-weight="700" font-style="normal" 
>
</g>

<g fill="#ffffff" fill-opacity="1" stroke="none" transform="matrix(1,0,0,1,0,0)"
font-family="Inter" font-size="11" font-weight="700" font-style="normal" 
>
</g>

<g fill="#ff661a" fill-opacity="1" stroke="#de4600" stroke-opacity="1" stroke-width="1.2" stroke-linecap="square" stroke-linejoin="bevel" transform="matrix(1,0,0,1,154.009,6)"
font-family="Inter" font-size="11" font-weight="700" font-style="normal" 
>
<path vector-effect="none" fill-rule="evenodd" d="M0.5,3.5 C0.5,1.84315 1.84315,0.5 3.5,0.5 L44,0.5 C45.6569,0.5 47,1.84315 47,3.5 L47,20.5 C47,22.1569 45.6569,23.5 44,23.5 L3.5,23.5 C1.84315,23.5 0.5,22.1569 0.5,20.5 L0.5,3.5"/>
</g>

<g fill="#ffffff" fill-opacity="1" stroke="none" transform="matrix(1,0,0,1,154.009,6)"
font-family="Inter" font-size="11" font-weight="700" font-style="normal" 
>
<path vector-effect="none" fill-rule="nonzero" d="M11.1719,7.95313 L11.1719,15.9531 L9.50781,15.9531 L9.50781,7.95313 L11.1719,7.95313 M12.4922,15.9531 L12.4922,9.95313 L14.1563,9.95313 L14.1563,15.9531 L12.4922,15.9531 M13.3281,9.17969 C13.0807,9.17969 12.8691,9.09701 12.6934,8.93164 C12.5176,8.76628 12.4297,8.56771 12.4297,8.33594 C12.4297,8.10677 12.5176,7.90951 12.6934,7.74414 C12.8691,7.57878 13.0807,7.49609 13.3281,7.49609 C13.5755,7.49609 13.7871,7.57878 13.9629,7.74414 C14.1387,7.90951 14.2266,8.10677 14.2266,8.33594 C14.2266,8.56771 14.1387,8.76628 13.9629,8.93164 C13.7871,9.09701 13.5755,9.17969 13.3281,9.17969 M20.4688,11.6641 L18.9453,11.7578 C18.9193,11.6276 18.8633,11.5098 18.7773,11.4043 C18.6914,11.2988 18.5788,11.2142 18.4395,11.1504 C18.3001,11.0866 18.1341,11.0547 17.9414,11.0547 C17.6836,11.0547 17.4661,11.1087 17.2891,11.2168 C17.112,11.3249 17.0234,11.4688 17.0234,11.6484 C17.0234,11.7917 17.0807,11.9128 17.1953,12.0117 C17.3099,12.1107 17.5065,12.1901 17.7852,12.25 L18.8711,12.4688 C19.4544,12.5885 19.8893,12.7813 20.1758,13.0469 C20.4622,13.3125 20.6055,13.6615 20.6055,14.0938 C20.6055,14.487 20.4902,14.832 20.2598,15.1289 C20.0293,15.4258 19.7142,15.6569 19.3145,15.8223 C18.9147,15.9876 18.4544,16.0703 17.9336,16.0703 C17.1393,16.0703 16.5072,15.9043 16.0371,15.5723 C15.5671,15.2402 15.2917,14.7878 15.2109,14.2148 L16.8477,14.1289 C16.8971,14.3711 17.0169,14.5553 17.207,14.6816 C17.3971,14.8079 17.6406,14.8711 17.9375,14.8711 C18.2292,14.8711 18.4642,14.8145 18.6426,14.7012 C18.821,14.5879 18.9115,14.4414 18.9141,14.2617 C18.9115,14.1107 18.8477,13.9863 18.7227,13.8887 C18.5977,13.791 18.4049,13.7161 18.1445,13.6641 L17.1055,13.457 C16.5195,13.3398 16.084,13.1367 15.7988,12.8477 C15.5137,12.5586 15.3711,12.1901 15.3711,11.7422 C15.3711,11.3568 15.4759,11.0247 15.6855,10.7461 C15.8952,10.4674 16.1908,10.2526 16.5723,10.1016 C16.9538,9.95052 17.401,9.875 17.9141,9.875 C18.6719,9.875 19.2689,10.0352 19.7051,10.3555 C20.1413,10.6758 20.3958,11.112 20.4688,11.6641 M24.8398,9.95313 L24.8398,11.2031 L21.2266,11.2031 L21.2266,9.95313 L24.8398,9.95313 M22.0469,8.51563 L23.7109,8.51563 L23.7109,14.1094 C23.7109,14.263 23.7344,14.3822 23.7813,14.4668 C23.8281,14.5514 23.8939,14.6107 23.9785,14.6445 C24.0632,14.6784 24.1615,14.6953 24.2734,14.6953 C24.3516,14.6953 24.4297,14.6882 24.5078,14.6738 C24.5859,14.6595 24.6458,14.6484 24.6875,14.6406 L24.9492,15.8789 C24.8659,15.9049 24.7487,15.9355 24.5977,15.9707 C24.4466,16.0059 24.263,16.0273 24.0469,16.0352 C23.6458,16.0508 23.2949,15.9974 22.9941,15.875 C22.6934,15.7526 22.4596,15.5625 22.293,15.3047 C22.1263,15.0469 22.0443,14.7214 22.0469,14.3281 L22.0469,8.51563"/>
</g>

<g fill="#ffffff" fill-opacity="1" stroke="none" transform="matrix(0.03125,0,0,0.03125,187.509,14)"
font-family="Inter" font-size="11" font-weight="700" font-style="normal" 
>
<path vector-effect="none" fill-rule="nonzero" d="M111.326,191.938 C120.545,201.158 135.517,201.158 144.737,191.938 L239.144,97.5313 C245.929,90.7458 247.921,80.6413 244.233,71.7907 C240.545,62.9401 231.989,57.1871 222.401,57.1871 L33.5875,57.2608 C24.0731,57.2608 15.4437,63.0137 11.7559,71.8644 C8.06815,80.715 10.1333,90.8195 16.845,97.605 L111.252,192.012 L111.326,191.938"/>
</g>

<g fill="none" stroke="#000000" stroke-opacity="1" stroke-width="13.7195" stroke-linecap="butt" stroke-linejoin="miter" stroke-miterlimit="4" transform="matrix(0.03125,0,0,0.03125,187.509,14)"
font-family="Inter" font-size="11" font-weight="700" font-style="normal" 
>
<path vector-effect="none" fill-rule="nonzero" d="M111.326,191.938 C120.545,201.158 135.517,201.158 144.737,191.938 L239.144,97.5313 C245.929,90.7458 247.921,80.6413 244.233,71.7907 C240.545,62.9401 231.989,57.1871 222.401,57.1871 L33.5875,57.2608 C24.0731,57.2608 15.4437,63.0137 11.7559,71.8644 C8.06815,80.715 10.1333,90.8195 16.845,97.605 L111.252,192.012 L111.326,191.938"/>
</g>

<g fill="#ffffff" fill-opacity="1" stroke="none" transform="matrix(1,0,0,1,154.009,6)"
font-family="Inter" font-size="11" font-weight="700" font-style="normal" 
>
</g>

<g fill="#ffffff" fill-opacity="1" stroke="none" transform="matrix(1,0,0,1,0,0)"
font-family="Inter" font-size="11" font-weight="700" font-style="normal" 
>
</g>

<g fill="#ffffff" fill-opacity="1" stroke="#ca4000" stroke-opacity="1" stroke-width="1.2" stroke-linecap="square" stroke-linejoin="bevel" transform="matrix(1,0,0,1,49,7)"
font-family="Inter" font-size="11" font-weight="700" font-style="normal" 
>
<path vector-effect="none" fill-rule="evenodd" d="M1,11 C1,5.47715 5.92487,1 12,1 L21.6094,1 C27.6845,1 32.6094,5.47715 32.6094,11 C32.6094,16.5228 27.6845,21 21.6094,21 L12,21 C5.92487,21 1,16.5228 1,11 "/>
</g>

<g fill="#000000" fill-opacity="1" stroke="none" transform="matrix(1,0,0,1,49,7)"
font-family="Inter" font-size="10" font-weight="700" font-style="normal" 
>
<path vector-effect="none" fill-rule="nonzero" d="M6.05682,14.4219 L6.05682,8.96733 L7.5696,8.96733 L7.5696,14.4219 L6.05682,14.4219 M6.81676,8.2642 C6.59186,8.2642 6.3995,8.18904 6.2397,8.03871 C6.0799,7.88838 6,7.70786 6,7.49716 C6,7.28883 6.0799,7.10949 6.2397,6.95916 C6.3995,6.80883 6.59186,6.73366 6.81676,6.73366 C7.04167,6.73366 7.23402,6.80883 7.39382,6.95916 C7.55362,7.10949 7.63352,7.28883 7.63352,7.49716 C7.63352,7.70786 7.55362,7.88838 7.39382,8.03871 C7.23402,8.18904 7.04167,8.2642 6.81676,8.2642 M11.6768,8.96733 L11.6768,10.1037 L8.39205,10.1037 L8.39205,8.96733 L11.6768,8.96733 M9.13778,7.66051 L10.6506,7.66051 L10.6506,12.7457 C10.6506,12.8854 10.6719,12.9937 10.7145,13.0707 C10.7571,13.1476 10.8169,13.2015 10.8938,13.2322 C10.9708,13.263 11.0601,13.2784 11.1619,13.2784 C11.233,13.2784 11.304,13.2719 11.375,13.2589 C11.446,13.2459 11.5005,13.2358 11.5384,13.2287 L11.7763,14.3544 C11.7005,14.3781 11.594,14.4059 11.4567,14.4379 C11.3194,14.4698 11.1525,14.4893 10.956,14.4964 C10.5914,14.5107 10.2724,14.4621 9.99893,14.3509 C9.7255,14.2396 9.51302,14.0668 9.36151,13.8324 C9.20999,13.598 9.13542,13.3021 9.13778,12.9446 L9.13778,7.66051 M15.0739,14.5284 C14.5128,14.5284 14.0304,14.4142 13.6268,14.1857 C13.2231,13.9573 12.9124,13.6329 12.6946,13.2127 C12.4768,12.7925 12.3679,12.2947 12.3679,11.7195 C12.3679,11.1584 12.4768,10.666 12.6946,10.2422 C12.9124,9.81842 13.2196,9.48816 13.6161,9.25142 C14.0127,9.01468 14.4785,8.89631 15.0135,8.89631 C15.3733,8.89631 15.7089,8.95372 16.0202,9.06854 C16.3316,9.18336 16.6038,9.35559 16.837,9.58523 C17.0702,9.81487 17.2519,10.1031 17.3821,10.4499 C17.5123,10.7968 17.5774,11.2022 17.5774,11.6662 L17.5774,12.0817 L12.9716,12.0817 L12.9716,11.1442 L16.1534,11.1442 C16.1534,10.9264 16.1061,10.7334 16.0114,10.5653 C15.9167,10.3973 15.7859,10.2653 15.619,10.1694 C15.4521,10.0735 15.2585,10.0256 15.0384,10.0256 C14.8087,10.0256 14.6057,10.0782 14.4293,10.1836 C14.253,10.2889 14.1151,10.4298 14.0156,10.6062 C13.9162,10.7826 13.8653,10.9785 13.8629,11.1939 L13.8629,12.0852 C13.8629,12.3551 13.9132,12.5883 14.0138,12.7848 C14.1145,12.9813 14.2571,13.1328 14.4418,13.2393 C14.6264,13.3459 14.8454,13.3991 15.0987,13.3991 C15.2668,13.3991 15.4207,13.3755 15.5604,13.3281 C15.7,13.2808 15.8196,13.2098 15.919,13.1151 C16.0185,13.0204 16.0942,12.9044 16.1463,12.767 L17.5455,12.8594 C17.4744,13.1955 17.3294,13.4885 17.1104,13.7383 C16.8915,13.988 16.6097,14.1822 16.2653,14.3207 C15.9208,14.4592 15.5237,14.5284 15.0739,14.5284 M18.5568,14.4219 L18.5568,8.96733 L19.9986,8.96733 L19.9986,9.92969 L20.0625,9.92969 C20.1761,9.61009 20.3655,9.35795 20.6307,9.1733 C20.8958,8.98864 21.2131,8.89631 21.5824,8.89631 C21.9564,8.89631 22.2749,8.98923 22.5376,9.17507 C22.8004,9.36091 22.9756,9.61245 23.0632,9.92969 L23.12,9.92969 C23.2313,9.61719 23.4331,9.36683 23.7255,9.17862 C24.0179,8.99041 24.3641,8.89631 24.7642,8.89631 C25.2732,8.89631 25.6869,9.05788 26.0053,9.38104 C26.3237,9.70419 26.483,10.1617 26.483,10.7536 L26.483,14.4219 L24.9737,14.4219 L24.9737,11.0518 C24.9737,10.7488 24.8932,10.5215 24.7322,10.37 C24.5713,10.2185 24.37,10.1428 24.1286,10.1428 C23.8539,10.1428 23.6397,10.2298 23.4858,10.4038 C23.3319,10.5778 23.255,10.8068 23.255,11.0909 L23.255,14.4219 L21.7884,14.4219 L21.7884,11.0199 C21.7884,10.7524 21.712,10.5393 21.5593,10.3807 C21.4066,10.2221 21.206,10.1428 20.9574,10.1428 C20.7893,10.1428 20.6384,10.1848 20.5046,10.2688 C20.3709,10.3529 20.2649,10.4701 20.1868,10.6204 C20.1087,10.7707 20.0696,10.9465 20.0696,11.1477 L20.0696,14.4219 L18.5568,14.4219"/>
</g>

<g fill="#000000" fill-opacity="1" stroke="none" transform="matrix(1,0,0,1,55,11.9531)"
font-family="Inter" font-size="10" font-weight="700" font-style="normal" 
>
</g>

<g fill="#000000" fill-opacity="1" stroke="none" transform="matrix(1,0,0,1,55,11.9531)"
font-family="Inter" font-size="10" font-weight="700" font-style="normal" 
>
</g>

<g fill="#000000" fill-opacity="1" stroke="none" transform="matrix(1,0,0,1,49,7)"
font-family="Inter" font-size="10" font-weight="700" font-style="normal" 
>
</g>

<g fill="#ffffff" fill-opacity="1" stroke="none" transform="matrix(1,0,0,1,0,0)"
font-family="Inter" font-size="11" font-weight="700" font-style="normal" 
>
</g>

<g fill="none" stroke="#000000" stroke-opacity="1" stroke-width="1" stroke-linecap="square" stroke-linejoin="bevel" transform="matrix(1,0,0,1,0,0)"
font-family=".AppleSystemUIFont" font-size="13" font-weight="400" font-style="normal" 
>
</g>
</g>
</svg>
