<?xml version="1.0" encoding="UTF-8" standalone="no"?>
<svg width="64.2056mm" height="21.1667mm"
 viewBox="0 0 182 60"
 xmlns="http://www.w3.org/2000/svg" xmlns:xlink="http://www.w3.org/1999/xlink" version="1.2" baseProfile="tiny">
<title>Abstract block</title>
<desc>block_event_when_message_recieved</desc>
<defs>
</defs>
<g fill="none" stroke="black" stroke-width="1" fill-rule="evenodd" stroke-linecap="square" stroke-linejoin="bevel" >

<g fill="none" stroke="#000000" stroke-opacity="1" stroke-width="1" stroke-linecap="square" stroke-linejoin="bevel" transform="matrix(1,0,0,1,0,0)"
font-family=".AppleSystemUIFont" font-size="13" font-weight="400" font-style="normal" 
>
</g>

<g fill="none" stroke="#000000" stroke-opacity="1" stroke-width="1" stroke-linecap="square" stroke-linejoin="bevel" transform="matrix(1,0,0,1,0,0)"
font-family=".AppleSystemUIFont" font-size="13" font-weight="400" font-style="normal" 
>
</g>

<g fill="#f5c400" fill-opacity="1" stroke="#ba9500" stroke-opacity="1" stroke-width="1.2" stroke-linecap="square" stroke-linejoin="bevel" transform="matrix(1,0,0,1,0,0)"
font-family=".AppleSystemUIFont" font-size="13" font-weight="400" font-style="normal" 
>
<path vector-effect="none" fill-rule="evenodd" d="M0.5,20.5 L1,18.6516 L1,18 L1.77836,17.1565 L2.58892,16.3401 L3.43062,15.551 L4.30242,14.7891 L5.20325,14.0544 L6.13206,13.3469 L7.08779,12.6667 L8.06939,12.0136 L9.0758,11.3878 L10.106,10.7891 L11.1588,10.2177 L12.2333,9.67347 L13.3284,9.15646 L14.4431,8.66667 L15.5762,8.20408 L16.7267,7.76871 L17.8936,7.36054 L19.0758,6.97959 L20.2723,6.62585 L21.4819,6.29932 L22.7037,6 L23.9366,5.72789 L25.1795,5.48299 L26.4314,5.26531 L27.6912,5.07483 L28.9578,4.91156 L30.2303,4.77551 L31.5075,4.66667 L32.7885,4.58503 L34.072,4.53061 L35.3572,4.5034 L36.6428,4.5034 L37.928,4.53061 L39.2115,4.58503 L40.4925,4.66667 L41.7697,4.77551 L43.0422,4.91156 L44.3088,5.07483 L45.5686,5.26531 L46.8205,5.48299 L48.0634,5.72789 L49.2963,6 L50.5181,6.29932 L51.7277,6.62585 L52.9242,6.97959 L54.1064,7.36054 L55.2733,7.76871 L56.4238,8.20408 L57.5569,8.66667 L58.6716,9.15646 L59.7667,9.67347 L60.8412,10.2177 L61.894,10.7891 L62.9242,11.3878 L63.9306,12.0136 L64.9122,12.6667 L65.8679,13.3469 L66.7968,14.0544 L67.6976,14.7891 L68.5694,15.551 L69.4111,16.3401 L69.5698,16.5 L177,16.5 L179.019,17.0461 L180.454,18.4811 L181,20.5 L181,47.5 L180.454,49.5189 L179.019,50.9539 L177,51.5 L34.375,51.5 L33.584,51.9766 L32.8281,52.6875 L32.002,53.6797 L31,55 L30.2441,55.6602 L29.4531,56.1563 L28.5918,56.5117 L27.625,56.75 L26.5176,56.8945 L25.2344,56.9688 L23.7402,56.9961 L22,57 L20.2598,56.9961 L18.7656,56.9688 L17.4824,56.8945 L16.375,56.75 L15.4082,56.5117 L14.5469,56.1563 L13.7559,55.6602 L13,55 L11.998,53.6797 L11.1719,52.6875 L10.416,51.9766 L9.625,51.5 L4.5,51.5 L2.48112,50.9539 L1.04612,49.5189 L0.5,47.5 L0.5,20.5"/>
</g>

<g fill="#ffffff" fill-opacity="1" stroke="none" transform="matrix(1,0,0,1,0,0)"
font-family="Inter" font-size="11" font-weight="700" font-style="normal" 
>
<path vector-effect="none" fill-rule="nonzero" d="M13.8789,38 L12.2461,32 L13.9297,32 L14.8594,36.0313 L14.9141,36.0313 L15.8828,32 L17.5352,32 L18.5195,36.0078 L18.5703,36.0078 L19.4844,32 L21.1641,32 L19.5352,38 L17.7734,38 L16.7422,34.2266 L16.668,34.2266 L15.6367,38 L13.8789,38 M23.7031,34.5313 L23.7031,38 L22.0391,38 L22.0391,30 L23.6563,30 L23.6563,33.0586 L23.7266,33.0586 C23.862,32.7044 24.0807,32.4264 24.3828,32.2246 C24.6849,32.0228 25.0638,31.9219 25.5195,31.9219 C25.9362,31.9219 26.3001,32.0124 26.6113,32.1934 C26.9225,32.3743 27.1647,32.6335 27.3379,32.9707 C27.5111,33.3079 27.5964,33.7109 27.5938,34.1797 L27.5938,38 L25.9297,38 L25.9297,34.4766 C25.9323,34.1068 25.8392,33.819 25.6504,33.6133 C25.4616,33.4076 25.1979,33.3047 24.8594,33.3047 C24.6328,33.3047 24.4329,33.3529 24.2598,33.4492 C24.0866,33.5456 23.9512,33.6855 23.8535,33.8691 C23.7559,34.0527 23.7057,34.2734 23.7031,34.5313 M31.6328,38.1172 C31.0156,38.1172 30.485,37.9915 30.041,37.7402 C29.597,37.4889 29.2552,37.1322 29.0156,36.6699 C28.776,36.2077 28.6563,35.6602 28.6563,35.0273 C28.6563,34.4102 28.776,33.8685 29.0156,33.4023 C29.2552,32.9362 29.5931,32.5729 30.0293,32.3125 C30.4655,32.0521 30.9779,31.9219 31.5664,31.9219 C31.9622,31.9219 32.3314,31.985 32.6738,32.1113 C33.0163,32.2376 33.3158,32.4271 33.5723,32.6797 C33.8288,32.9323 34.0286,33.2493 34.1719,33.6309 C34.3151,34.0124 34.3867,34.4583 34.3867,34.9688 L34.3867,35.4258 L29.3203,35.4258 L29.3203,34.3945 L32.8203,34.3945 C32.8203,34.1549 32.7682,33.9427 32.6641,33.7578 C32.5599,33.5729 32.416,33.4277 32.2324,33.3223 C32.0488,33.2168 31.8359,33.1641 31.5938,33.1641 C31.3411,33.1641 31.1178,33.222 30.9238,33.3379 C30.7298,33.4538 30.5781,33.6087 30.4688,33.8027 C30.3594,33.9967 30.3034,34.2122 30.3008,34.4492 L30.3008,35.4297 C30.3008,35.7266 30.3561,35.9831 30.4668,36.1992 C30.5775,36.4154 30.7344,36.582 30.9375,36.6992 C31.1406,36.8164 31.3815,36.875 31.6602,36.875 C31.8451,36.875 32.0143,36.849 32.168,36.7969 C32.3216,36.7448 32.4531,36.6667 32.5625,36.5625 C32.6719,36.4583 32.7552,36.3307 32.8125,36.1797 L34.3516,36.2813 C34.2734,36.651 34.1139,36.9733 33.873,37.248 C33.6322,37.5228 33.3223,37.7363 32.9434,37.8887 C32.5645,38.041 32.1276,38.1172 31.6328,38.1172 M37.125,34.5313 L37.125,38 L35.4609,38 L35.4609,32 L37.0469,32 L37.0469,33.0586 L37.1172,33.0586 C37.25,32.7096 37.4727,32.4329 37.7852,32.2285 C38.0977,32.0241 38.4766,31.9219 38.9219,31.9219 C39.3385,31.9219 39.7018,32.013 40.0117,32.1953 C40.3216,32.3776 40.5625,32.6374 40.7344,32.9746 C40.9063,33.3118 40.9922,33.7135 40.9922,34.1797 L40.9922,38 L39.3281,38 L39.3281,34.4766 C39.3307,34.1094 39.237,33.8223 39.0469,33.6152 C38.8568,33.4082 38.5951,33.3047 38.2617,33.3047 C38.0378,33.3047 37.8405,33.3529 37.6699,33.4492 C37.4993,33.5456 37.3665,33.6855 37.2715,33.8691 C37.1764,34.0527 37.1276,34.2734 37.125,34.5313 M44.8359,38 L44.8359,32 L46.5,32 L46.5,38 L44.8359,38 M45.6719,31.2266 C45.4245,31.2266 45.2129,31.1439 45.0371,30.9785 C44.8613,30.8132 44.7734,30.6146 44.7734,30.3828 C44.7734,30.1536 44.8613,29.9564 45.0371,29.791 C45.2129,29.6257 45.4245,29.543 45.6719,29.543 C45.9193,29.543 46.1309,29.6257 46.3066,29.791 C46.4824,29.9564 46.5703,30.1536 46.5703,30.3828 C46.5703,30.6146 46.4824,30.8132 46.3066,30.9785 C46.1309,31.1439 45.9193,31.2266 45.6719,31.2266 M50.3672,38 L50.3672,32 L51.9805,32 L51.9805,33.0469 L52.043,33.0469 C52.1523,32.6745 52.3359,32.3926 52.5938,32.2012 C52.8516,32.0098 53.1484,31.9141 53.4844,31.9141 C53.5677,31.9141 53.6576,31.9193 53.7539,31.9297 C53.8503,31.9401 53.9349,31.9544 54.0078,31.9727 L54.0078,33.4492 C53.9297,33.4258 53.8216,33.4049 53.6836,33.3867 C53.5456,33.3685 53.4193,33.3594 53.3047,33.3594 C53.0599,33.3594 52.8418,33.4121 52.6504,33.5176 C52.459,33.623 52.3079,33.7695 52.1973,33.957 C52.0866,34.1445 52.0313,34.3607 52.0313,34.6055 L52.0313,38 L50.3672,38 M57.3047,38.1172 C56.6875,38.1172 56.1569,37.9915 55.7129,37.7402 C55.2689,37.4889 54.9271,37.1322 54.6875,36.6699 C54.4479,36.2077 54.3281,35.6602 54.3281,35.0273 C54.3281,34.4102 54.4479,33.8685 54.6875,33.4023 C54.9271,32.9362 55.265,32.5729 55.7012,32.3125 C56.1374,32.0521 56.6497,31.9219 57.2383,31.9219 C57.6341,31.9219 58.0033,31.985 58.3457,32.1113 C58.6882,32.2376 58.9876,32.4271 59.2441,32.6797 C59.5007,32.9323 59.7005,33.2493 59.8438,33.6309 C59.987,34.0124 60.0586,34.4583 60.0586,34.9688 L60.0586,35.4258 L54.9922,35.4258 L54.9922,34.3945 L58.4922,34.3945 C58.4922,34.1549 58.4401,33.9427 58.3359,33.7578 C58.2318,33.5729 58.0879,33.4277 57.9043,33.3223 C57.7207,33.2168 57.5078,33.1641 57.2656,33.1641 C57.013,33.1641 56.7897,33.222 56.5957,33.3379 C56.4017,33.4538 56.25,33.6087 56.1406,33.8027 C56.0313,33.9967 55.9753,34.2122 55.9727,34.4492 L55.9727,35.4297 C55.9727,35.7266 56.028,35.9831 56.1387,36.1992 C56.2493,36.4154 56.4063,36.582 56.6094,36.6992 C56.8125,36.8164 57.0534,36.875 57.332,36.875 C57.5169,36.875 57.6862,36.849 57.8398,36.7969 C57.9935,36.7448 58.125,36.6667 58.2344,36.5625 C58.3438,36.4583 58.4271,36.3307 58.4844,36.1797 L60.0234,36.2813 C59.9453,36.651 59.7858,36.9733 59.5449,37.248 C59.304,37.5228 58.9941,37.7363 58.6152,37.8887 C58.2363,38.041 57.7995,38.1172 57.3047,38.1172 M63.8438,38.1172 C63.2292,38.1172 62.7012,37.9863 62.2598,37.7246 C61.8184,37.4629 61.4798,37.099 61.2441,36.6328 C61.0085,36.1667 60.8906,35.6302 60.8906,35.0234 C60.8906,34.4089 61.0098,33.8691 61.248,33.4043 C61.4863,32.9395 61.8255,32.5762 62.2656,32.3145 C62.7057,32.0527 63.2292,31.9219 63.8359,31.9219 C64.3594,31.9219 64.8177,32.0169 65.2109,32.207 C65.6042,32.3971 65.9154,32.6641 66.1445,33.0078 C66.3737,33.3516 66.5,33.7552 66.5234,34.2188 L64.9531,34.2188 C64.9089,33.9193 64.7923,33.6777 64.6035,33.4941 C64.4147,33.3105 64.168,33.2188 63.8633,33.2188 C63.6055,33.2188 63.3809,33.2884 63.1895,33.4277 C62.998,33.5671 62.849,33.7695 62.7422,34.0352 C62.6354,34.3008 62.582,34.6224 62.582,35 C62.582,35.3828 62.6348,35.7083 62.7402,35.9766 C62.8457,36.2448 62.9948,36.4492 63.1875,36.5898 C63.3802,36.7305 63.6055,36.8008 63.8633,36.8008 C64.0534,36.8008 64.2246,36.7617 64.377,36.6836 C64.5293,36.6055 64.6556,36.4915 64.7559,36.3418 C64.8561,36.1921 64.9219,36.0117 64.9531,35.8008 L66.5234,35.8008 C66.4974,36.2591 66.373,36.6621 66.1504,37.0098 C65.9277,37.3574 65.6211,37.6289 65.2305,37.8242 C64.8398,38.0195 64.3776,38.1172 63.8438,38.1172 M70.3203,38.1172 C69.7031,38.1172 69.1725,37.9915 68.7285,37.7402 C68.2845,37.4889 67.9427,37.1322 67.7031,36.6699 C67.4635,36.2077 67.3438,35.6602 67.3438,35.0273 C67.3438,34.4102 67.4635,33.8685 67.7031,33.4023 C67.9427,32.9362 68.2806,32.5729 68.7168,32.3125 C69.153,32.0521 69.6654,31.9219 70.2539,31.9219 C70.6497,31.9219 71.0189,31.985 71.3613,32.1113 C71.7038,32.2376 72.0033,32.4271 72.2598,32.6797 C72.5163,32.9323 72.7161,33.2493 72.8594,33.6309 C73.0026,34.0124 73.0742,34.4583 73.0742,34.9688 L73.0742,35.4258 L68.0078,35.4258 L68.0078,34.3945 L71.5078,34.3945 C71.5078,34.1549 71.4557,33.9427 71.3516,33.7578 C71.2474,33.5729 71.1035,33.4277 70.9199,33.3223 C70.7363,33.2168 70.5234,33.1641 70.2813,33.1641 C70.0286,33.1641 69.8053,33.222 69.6113,33.3379 C69.4173,33.4538 69.2656,33.6087 69.1563,33.8027 C69.0469,33.9967 68.9909,34.2122 68.9883,34.4492 L68.9883,35.4297 C68.9883,35.7266 69.0436,35.9831 69.1543,36.1992 C69.265,36.4154 69.4219,36.582 69.625,36.6992 C69.8281,36.8164 70.069,36.875 70.3477,36.875 C70.5326,36.875 70.7018,36.849 70.8555,36.7969 C71.0091,36.7448 71.1406,36.6667 71.25,36.5625 C71.3594,36.4583 71.4427,36.3307 71.5,36.1797 L73.0391,36.2813 C72.9609,36.651 72.8014,36.9733 72.5605,37.248 C72.3197,37.5228 72.0098,37.7363 71.6309,37.8887 C71.252,38.041 70.8151,38.1172 70.3203,38.1172 M74.1484,38 L74.1484,32 L75.8125,32 L75.8125,38 L74.1484,38 M74.9844,31.2266 C74.737,31.2266 74.5254,31.1439 74.3496,30.9785 C74.1738,30.8132 74.0859,30.6146 74.0859,30.3828 C74.0859,30.1536 74.1738,29.9564 74.3496,29.791 C74.5254,29.6257 74.737,29.543 74.9844,29.543 C75.2318,29.543 75.4434,29.6257 75.6191,29.791 C75.7949,29.9564 75.8828,30.1536 75.8828,30.3828 C75.8828,30.6146 75.7949,30.8132 75.6191,30.9785 C75.4434,31.1439 75.2318,31.2266 74.9844,31.2266 M82.7266,32 L80.6289,38 L78.7539,38 L76.6563,32 L78.4141,32 L79.6602,36.293 L79.7227,36.293 L80.9648,32 L82.7266,32 M86.1016,38.1172 C85.4844,38.1172 84.9538,37.9915 84.5098,37.7402 C84.0658,37.4889 83.724,37.1322 83.4844,36.6699 C83.2448,36.2077 83.125,35.6602 83.125,35.0273 C83.125,34.4102 83.2448,33.8685 83.4844,33.4023 C83.724,32.9362 84.0618,32.5729 84.498,32.3125 C84.9342,32.0521 85.4466,31.9219 86.0352,31.9219 C86.431,31.9219 86.8001,31.985 87.1426,32.1113 C87.485,32.2376 87.7845,32.4271 88.041,32.6797 C88.2975,32.9323 88.4974,33.2493 88.6406,33.6309 C88.7839,34.0124 88.8555,34.4583 88.8555,34.9688 L88.8555,35.4258 L83.7891,35.4258 L83.7891,34.3945 L87.2891,34.3945 C87.2891,34.1549 87.237,33.9427 87.1328,33.7578 C87.0286,33.5729 86.8848,33.4277 86.7012,33.3223 C86.5176,33.2168 86.3047,33.1641 86.0625,33.1641 C85.8099,33.1641 85.5866,33.222 85.3926,33.3379 C85.1986,33.4538 85.0469,33.6087 84.9375,33.8027 C84.8281,33.9967 84.7721,34.2122 84.7695,34.4492 L84.7695,35.4297 C84.7695,35.7266 84.8249,35.9831 84.9355,36.1992 C85.0462,36.4154 85.2031,36.582 85.4063,36.6992 C85.6094,36.8164 85.8503,36.875 86.1289,36.875 C86.3138,36.875 86.4831,36.849 86.6367,36.7969 C86.7904,36.7448 86.9219,36.6667 87.0313,36.5625 C87.1406,36.4583 87.224,36.3307 87.2813,36.1797 L88.8203,36.2813 C88.7422,36.651 88.5827,36.9733 88.3418,37.248 C88.1009,37.5228 87.791,37.7363 87.4121,37.8887 C87.0332,38.041 86.5964,38.1172 86.1016,38.1172 "/>
</g>

<g fill="#ffffff" fill-opacity="1" stroke="none" transform="matrix(1,0,0,1,0,0)"
font-family="Inter" font-size="11" font-weight="700" font-style="normal" 
>
</g>

<g fill="#ffffff" fill-opacity="1" stroke="none" transform="matrix(1,0,0,1,0,0)"
font-family="Inter" font-size="11" font-weight="700" font-style="normal" 
>
</g>

<g fill="#f5c400" fill-opacity="1" stroke="#ba9500" stroke-opacity="1" stroke-width="1.2" stroke-linecap="square" stroke-linejoin="bevel" transform="matrix(1,0,0,1,96,22)"
font-family="Inter" font-size="11" font-weight="700" font-style="normal" 
>
<path vector-effect="none" fill-rule="evenodd" d="M0.5,3.5 C0.5,1.84315 1.84315,0.5 3.5,0.5 L76,0.5 C77.6569,0.5 79,1.84315 79,3.5 L79,20.5 C79,22.1569 77.6569,23.5 76,23.5 L3.5,23.5 C1.84315,23.5 0.5,22.1569 0.5,20.5 L0.5,3.5"/>
</g>

<g fill="#ffffff" fill-opacity="1" stroke="none" transform="matrix(1,0,0,1,96,22)"
font-family="Inter" font-size="11" font-weight="700" font-style="normal" 
>
<path vector-effect="none" fill-rule="nonzero" d="M9.50781,13.8125 L9.50781,7.8125 L11.0938,7.8125 L11.0938,8.87109 L11.1641,8.87109 C11.2891,8.51953 11.4974,8.24219 11.7891,8.03906 C12.0807,7.83594 12.4297,7.73438 12.8359,7.73438 C13.2474,7.73438 13.5977,7.83659 13.8867,8.04102 C14.1758,8.24544 14.3685,8.52214 14.4648,8.87109 L14.5273,8.87109 C14.6497,8.52734 14.8717,8.25195 15.1934,8.04492 C15.515,7.83789 15.8958,7.73438 16.3359,7.73438 C16.8958,7.73438 17.3509,7.91211 17.7012,8.26758 C18.0514,8.62305 18.2266,9.1263 18.2266,9.77734 L18.2266,13.8125 L16.5664,13.8125 L16.5664,10.1055 C16.5664,9.77214 16.4779,9.52214 16.3008,9.35547 C16.1237,9.1888 15.9023,9.10547 15.6367,9.10547 C15.3346,9.10547 15.099,9.20117 14.9297,9.39258 C14.7604,9.58398 14.6758,9.83594 14.6758,10.1484 L14.6758,13.8125 L13.0625,13.8125 L13.0625,10.0703 C13.0625,9.77604 12.9785,9.54167 12.8105,9.36719 C12.6426,9.19271 12.4219,9.10547 12.1484,9.10547 C11.9635,9.10547 11.7975,9.15169 11.6504,9.24414 C11.5033,9.33659 11.3867,9.46549 11.3008,9.63086 C11.2148,9.79622 11.1719,9.98958 11.1719,10.2109 L11.1719,13.8125 L9.50781,13.8125 M22.2734,13.9297 C21.6563,13.9297 21.1257,13.804 20.6816,13.5527 C20.2376,13.3014 19.8958,12.9447 19.6563,12.4824 C19.4167,12.0202 19.2969,11.4727 19.2969,10.8398 C19.2969,10.2227 19.4167,9.68099 19.6563,9.21484 C19.8958,8.7487 20.2337,8.38542 20.6699,8.125 C21.1061,7.86458 21.6185,7.73438 22.207,7.73438 C22.6029,7.73438 22.972,7.79753 23.3145,7.92383 C23.6569,8.05013 23.9564,8.23958 24.2129,8.49219 C24.4694,8.74479 24.6693,9.06185 24.8125,9.44336 C24.9557,9.82487 25.0273,10.2708 25.0273,10.7813 L25.0273,11.2383 L19.9609,11.2383 L19.9609,10.207 L23.4609,10.207 C23.4609,9.96745 23.4089,9.75521 23.3047,9.57031 C23.2005,9.38542 23.0566,9.24023 22.873,9.13477 C22.6895,9.0293 22.4766,8.97656 22.2344,8.97656 C21.9818,8.97656 21.7585,9.03451 21.5645,9.15039 C21.3704,9.26628 21.2188,9.42122 21.1094,9.61523 C21,9.80924 20.944,10.0247 20.9414,10.2617 L20.9414,11.2422 C20.9414,11.5391 20.9967,11.7956 21.1074,12.0117 C21.2181,12.2279 21.375,12.3945 21.5781,12.5117 C21.7813,12.6289 22.0221,12.6875 22.3008,12.6875 C22.4857,12.6875 22.6549,12.6615 22.8086,12.6094 C22.9622,12.5573 23.0938,12.4792 23.2031,12.375 C23.3125,12.2708 23.3958,12.1432 23.4531,11.9922 L24.9922,12.0938 C24.9141,12.4635 24.7546,12.7858 24.5137,13.0605 C24.2728,13.3353 23.9629,13.5488 23.584,13.7012 C23.2051,13.8535 22.7682,13.9297 22.2734,13.9297 M31.0938,9.52344 L29.5703,9.61719 C29.5443,9.48698 29.4883,9.36914 29.4023,9.26367 C29.3164,9.1582 29.2038,9.07357 29.0645,9.00977 C28.9251,8.94596 28.7591,8.91406 28.5664,8.91406 C28.3086,8.91406 28.0911,8.9681 27.9141,9.07617 C27.737,9.18424 27.6484,9.32813 27.6484,9.50781 C27.6484,9.65104 27.7057,9.77214 27.8203,9.87109 C27.9349,9.97005 28.1315,10.0495 28.4102,10.1094 L29.4961,10.3281 C30.0794,10.4479 30.5143,10.6406 30.8008,10.9063 C31.0872,11.1719 31.2305,11.5208 31.2305,11.9531 C31.2305,12.3464 31.1152,12.6914 30.8848,12.9883 C30.6543,13.2852 30.3392,13.5163 29.9395,13.6816 C29.5397,13.847 29.0794,13.9297 28.5586,13.9297 C27.7643,13.9297 27.1322,13.7637 26.6621,13.4316 C26.1921,13.0996 25.9167,12.6471 25.8359,12.0742 L27.4727,11.9883 C27.5221,12.2305 27.6419,12.4147 27.832,12.541 C28.0221,12.6673 28.2656,12.7305 28.5625,12.7305 C28.8542,12.7305 29.0892,12.6738 29.2676,12.5605 C29.446,12.4473 29.5365,12.3008 29.5391,12.1211 C29.5365,11.9701 29.4727,11.8457 29.3477,11.748 C29.2227,11.6504 29.0299,11.5755 28.7695,11.5234 L27.7305,11.3164 C27.1445,11.1992 26.709,10.9961 26.4238,10.707 C26.1387,10.418 25.9961,10.0495 25.9961,9.60156 C25.9961,9.21615 26.1009,8.88411 26.3105,8.60547 C26.5202,8.32682 26.8158,8.11198 27.1973,7.96094 C27.5788,7.8099 28.026,7.73438 28.5391,7.73438 C29.2969,7.73438 29.8939,7.89453 30.3301,8.21484 C30.7663,8.53516 31.0208,8.97135 31.0938,9.52344 M37.2656,9.52344 L35.7422,9.61719 C35.7161,9.48698 35.6602,9.36914 35.5742,9.26367 C35.4883,9.1582 35.3757,9.07357 35.2363,9.00977 C35.097,8.94596 34.931,8.91406 34.7383,8.91406 C34.4805,8.91406 34.263,8.9681 34.0859,9.07617 C33.9089,9.18424 33.8203,9.32813 33.8203,9.50781 C33.8203,9.65104 33.8776,9.77214 33.9922,9.87109 C34.1068,9.97005 34.3034,10.0495 34.582,10.1094 L35.668,10.3281 C36.2513,10.4479 36.6862,10.6406 36.9727,10.9063 C37.2591,11.1719 37.4023,11.5208 37.4023,11.9531 C37.4023,12.3464 37.2871,12.6914 37.0566,12.9883 C36.8262,13.2852 36.5111,13.5163 36.1113,13.6816 C35.7116,13.847 35.2513,13.9297 34.7305,13.9297 C33.9362,13.9297 33.304,13.7637 32.834,13.4316 C32.3639,13.0996 32.0885,12.6471 32.0078,12.0742 L33.6445,11.9883 C33.694,12.2305 33.8138,12.4147 34.0039,12.541 C34.194,12.6673 34.4375,12.7305 34.7344,12.7305 C35.026,12.7305 35.2611,12.6738 35.4395,12.5605 C35.6178,12.4473 35.7083,12.3008 35.7109,12.1211 C35.7083,11.9701 35.6445,11.8457 35.5195,11.748 C35.3945,11.6504 35.2018,11.5755 34.9414,11.5234 L33.9023,11.3164 C33.3164,11.1992 32.8809,10.9961 32.5957,10.707 C32.3105,10.418 32.168,10.0495 32.168,9.60156 C32.168,9.21615 32.2728,8.88411 32.4824,8.60547 C32.6921,8.32682 32.9876,8.11198 33.3691,7.96094 C33.7507,7.8099 34.1979,7.73438 34.7109,7.73438 C35.4688,7.73438 36.0658,7.89453 36.502,8.21484 C36.9382,8.53516 37.1927,8.97135 37.2656,9.52344 M40.1563,13.9258 C39.7734,13.9258 39.4323,13.8587 39.1328,13.7246 C38.8333,13.5905 38.597,13.3913 38.4238,13.127 C38.2507,12.8626 38.1641,12.5326 38.1641,12.1367 C38.1641,11.8034 38.2253,11.5234 38.3477,11.2969 C38.4701,11.0703 38.6367,10.888 38.8477,10.75 C39.0586,10.612 39.2988,10.5078 39.5684,10.4375 C39.8379,10.3672 40.1211,10.3177 40.418,10.2891 C40.7669,10.2526 41.0482,10.2181 41.2617,10.1855 C41.4753,10.153 41.6302,10.1042 41.7266,10.0391 C41.8229,9.97396 41.8711,9.8776 41.8711,9.75 L41.8711,9.72656 C41.8711,9.47917 41.7936,9.28776 41.6387,9.15234 C41.4837,9.01693 41.2643,8.94922 40.9805,8.94922 C40.681,8.94922 40.4427,9.01497 40.2656,9.14648 C40.0885,9.27799 39.9714,9.44271 39.9141,9.64063 L38.375,9.51563 C38.4531,9.15104 38.6068,8.83529 38.8359,8.56836 C39.0651,8.30143 39.3613,8.0957 39.7246,7.95117 C40.0879,7.80664 40.5091,7.73438 40.9883,7.73438 C41.3216,7.73438 41.6413,7.77344 41.9473,7.85156 C42.2533,7.92969 42.5254,8.05078 42.7637,8.21484 C43.002,8.37891 43.1901,8.58919 43.3281,8.8457 C43.4661,9.10221 43.5352,9.40885 43.5352,9.76563 L43.5352,13.8125 L41.957,13.8125 L41.957,12.9805 L41.9102,12.9805 C41.8138,13.168 41.6849,13.3327 41.5234,13.4746 C41.362,13.6165 41.168,13.7272 40.9414,13.8066 C40.7148,13.8861 40.4531,13.9258 40.1563,13.9258 M40.6328,12.7773 C40.8776,12.7773 41.0938,12.7285 41.2813,12.6309 C41.4688,12.5332 41.6159,12.401 41.7227,12.2344 C41.8294,12.0677 41.8828,11.8789 41.8828,11.668 L41.8828,11.0313 C41.8307,11.0651 41.7598,11.0957 41.6699,11.123 C41.5801,11.1504 41.4792,11.1751 41.3672,11.1973 C41.2552,11.2194 41.1432,11.2389 41.0313,11.2559 C40.9193,11.2728 40.8177,11.2878 40.7266,11.3008 C40.5313,11.3294 40.3607,11.375 40.2148,11.4375 C40.069,11.5 39.9557,11.584 39.875,11.6895 C39.7943,11.7949 39.7539,11.9258 39.7539,12.082 C39.7539,12.3086 39.8366,12.4811 40.002,12.5996 C40.1673,12.7181 40.3776,12.7773 40.6328,12.7773 M47.5234,16.1875 C46.9844,16.1875 46.5228,16.1139 46.1387,15.9668 C45.7546,15.8197 45.4492,15.6198 45.2227,15.3672 C44.9961,15.1146 44.849,14.8307 44.7813,14.5156 L46.3203,14.3086 C46.3672,14.4284 46.4414,14.5404 46.543,14.6445 C46.6445,14.7487 46.7793,14.8327 46.9473,14.8965 C47.1152,14.9603 47.3203,14.9922 47.5625,14.9922 C47.9245,14.9922 48.2233,14.9043 48.459,14.7285 C48.6947,14.5527 48.8125,14.2591 48.8125,13.8477 L48.8125,12.75 L48.7422,12.75 C48.6693,12.9167 48.5599,13.0742 48.4141,13.2227 C48.2682,13.3711 48.0807,13.4922 47.8516,13.5859 C47.6224,13.6797 47.349,13.7266 47.0313,13.7266 C46.5807,13.7266 46.1712,13.6217 45.8027,13.4121 C45.4342,13.2025 45.1413,12.8809 44.9238,12.4473 C44.7064,12.0137 44.5977,11.4648 44.5977,10.8008 C44.5977,10.1211 44.7083,9.55339 44.9297,9.09766 C45.151,8.64193 45.446,8.30078 45.8145,8.07422 C46.1829,7.84766 46.5872,7.73438 47.0273,7.73438 C47.3633,7.73438 47.6445,7.79102 47.8711,7.9043 C48.0977,8.01758 48.2806,8.1582 48.4199,8.32617 C48.5592,8.49414 48.6667,8.65885 48.7422,8.82031 L48.8047,8.82031 L48.8047,7.8125 L50.457,7.8125 L50.457,13.8711 C50.457,14.3815 50.332,14.8086 50.082,15.1523 C49.832,15.4961 49.4863,15.7546 49.0449,15.9277 C48.6035,16.1009 48.0964,16.1875 47.5234,16.1875 M47.5586,12.4766 C47.8268,12.4766 48.054,12.4095 48.2402,12.2754 C48.4264,12.1413 48.5697,11.9486 48.6699,11.6973 C48.7702,11.446 48.8203,11.1445 48.8203,10.793 C48.8203,10.4414 48.7708,10.1361 48.6719,9.87695 C48.5729,9.61784 48.4297,9.41667 48.2422,9.27344 C48.0547,9.13021 47.8268,9.05859 47.5586,9.05859 C47.2852,9.05859 47.0547,9.13216 46.8672,9.2793 C46.6797,9.42643 46.5378,9.63021 46.4414,9.89063 C46.3451,10.151 46.2969,10.4518 46.2969,10.793 C46.2969,11.1393 46.3457,11.4382 46.4434,11.6895 C46.541,11.9408 46.6829,12.1348 46.8691,12.2715 C47.0553,12.4082 47.2852,12.4766 47.5586,12.4766 M54.5078,13.9297 C53.8906,13.9297 53.36,13.804 52.916,13.5527 C52.472,13.3014 52.1302,12.9447 51.8906,12.4824 C51.651,12.0202 51.5313,11.4727 51.5313,10.8398 C51.5313,10.2227 51.651,9.68099 51.8906,9.21484 C52.1302,8.7487 52.4681,8.38542 52.9043,8.125 C53.3405,7.86458 53.8529,7.73438 54.4414,7.73438 C54.8372,7.73438 55.2064,7.79753 55.5488,7.92383 C55.8913,8.05013 56.1908,8.23958 56.4473,8.49219 C56.7038,8.74479 56.9036,9.06185 57.0469,9.44336 C57.1901,9.82487 57.2617,10.2708 57.2617,10.7813 L57.2617,11.2383 L52.1953,11.2383 L52.1953,10.207 L55.6953,10.207 C55.6953,9.96745 55.6432,9.75521 55.5391,9.57031 C55.4349,9.38542 55.291,9.24023 55.1074,9.13477 C54.9238,9.0293 54.7109,8.97656 54.4688,8.97656 C54.2161,8.97656 53.9928,9.03451 53.7988,9.15039 C53.6048,9.26628 53.4531,9.42122 53.3438,9.61523 C53.2344,9.80924 53.1784,10.0247 53.1758,10.2617 L53.1758,11.2422 C53.1758,11.5391 53.2311,11.7956 53.3418,12.0117 C53.4525,12.2279 53.6094,12.3945 53.8125,12.5117 C54.0156,12.6289 54.2565,12.6875 54.5352,12.6875 C54.7201,12.6875 54.8893,12.6615 55.043,12.6094 C55.1966,12.5573 55.3281,12.4792 55.4375,12.375 C55.5469,12.2708 55.6302,12.1432 55.6875,11.9922 L57.2266,12.0938 C57.1484,12.4635 56.9889,12.7858 56.748,13.0605 C56.5072,13.3353 56.1973,13.5488 55.8184,13.7012 C55.4395,13.8535 55.0026,13.9297 54.5078,13.9297 "/>
</g>

<g fill="#ffffff" fill-opacity="1" stroke="none" transform="matrix(0.03125,0,0,0.03125,161.5,30)"
font-family="Inter" font-size="11" font-weight="700" font-style="normal" 
>
<path vector-effect="none" fill-rule="nonzero" d="M111.326,191.938 C120.545,201.158 135.517,201.158 144.737,191.938 L239.144,97.5313 C245.929,90.7458 247.921,80.6413 244.233,71.7907 C240.545,62.9401 231.989,57.1871 222.401,57.1871 L33.5875,57.2608 C24.0731,57.2608 15.4437,63.0137 11.7559,71.8644 C8.06815,80.715 10.1333,90.8195 16.845,97.605 L111.252,192.012 L111.326,191.938"/>
</g>

<g fill="none" stroke="#000000" stroke-opacity="1" stroke-width="13.7195" stroke-linecap="butt" stroke-linejoin="miter" stroke-miterlimit="4" transform="matrix(0.03125,0,0,0.03125,161.5,30)"
font-family="Inter" font-size="11" font-weight="700" font-style="normal" 
>
<path vector-effect="none" fill-rule="nonzero" d="M111.326,191.938 C120.545,201.158 135.517,201.158 144.737,191.938 L239.144,97.5313 C245.929,90.7458 247.921,80.6413 244.233,71.7907 C240.545,62.9401 231.989,57.1871 222.401,57.1871 L33.5875,57.2608 C24.0731,57.2608 15.4437,63.0137 11.7559,71.8644 C8.06815,80.715 10.1333,90.8195 16.845,97.605 L111.252,192.012 L111.326,191.938"/>
</g>

<g fill="#ffffff" fill-opacity="1" stroke="none" transform="matrix(1,0,0,1,96,22)"
font-family="Inter" font-size="11" font-weight="700" font-style="normal" 
>
</g>

<g fill="#ffffff" fill-opacity="1" stroke="none" transform="matrix(1,0,0,1,0,0)"
font-family="Inter" font-size="11" font-weight="700" font-style="normal" 
>
</g>

<g fill="none" stroke="#000000" stroke-opacity="1" stroke-width="1" stroke-linecap="square" stroke-linejoin="bevel" transform="matrix(1,0,0,1,0,0)"
font-family=".AppleSystemUIFont" font-size="13" font-weight="400" font-style="normal" 
>
</g>
</g>
</svg>
