<?xml version="1.0" encoding="UTF-8" standalone="no"?>
<svg width="104.422mm" height="21.1667mm"
 viewBox="0 0 296 60"
 xmlns="http://www.w3.org/2000/svg" xmlns:xlink="http://www.w3.org/1999/xlink" version="1.2" baseProfile="tiny">
<title>Abstract block</title>
<desc>block_hubs_all_event_port_boost_sensor_color</desc>
<defs>
</defs>
<g fill="none" stroke="black" stroke-width="1" fill-rule="evenodd" stroke-linecap="square" stroke-linejoin="bevel" >

<g fill="none" stroke="#000000" stroke-opacity="1" stroke-width="1" stroke-linecap="square" stroke-linejoin="bevel" transform="matrix(1,0,0,1,0,0)"
font-family=".AppleSystemUIFont" font-size="13" font-weight="400" font-style="normal" 
>
</g>

<g fill="none" stroke="#000000" stroke-opacity="1" stroke-width="1" stroke-linecap="square" stroke-linejoin="bevel" transform="matrix(1,0,0,1,0,0)"
font-family=".AppleSystemUIFont" font-size="13" font-weight="400" font-style="normal" 
>
</g>

<g fill="#f5c400" fill-opacity="1" stroke="#ba9500" stroke-opacity="1" stroke-width="1.2" stroke-linecap="square" stroke-linejoin="bevel" transform="matrix(1,0,0,1,0,0)"
font-family=".AppleSystemUIFont" font-size="13" font-weight="400" font-style="normal" 
>
<path vector-effect="none" fill-rule="evenodd" d="M0.5,20.5 L1,18.6516 L1,18 L1.77836,17.1565 L2.58892,16.3401 L3.43062,15.551 L4.30242,14.7891 L5.20325,14.0544 L6.13206,13.3469 L7.08779,12.6667 L8.06939,12.0136 L9.0758,11.3878 L10.106,10.7891 L11.1588,10.2177 L12.2333,9.67347 L13.3284,9.15646 L14.4431,8.66667 L15.5762,8.20408 L16.7267,7.76871 L17.8936,7.36054 L19.0758,6.97959 L20.2723,6.62585 L21.4819,6.29932 L22.7037,6 L23.9366,5.72789 L25.1795,5.48299 L26.4314,5.26531 L27.6912,5.07483 L28.9578,4.91156 L30.2303,4.77551 L31.5075,4.66667 L32.7885,4.58503 L34.072,4.53061 L35.3572,4.5034 L36.6428,4.5034 L37.928,4.53061 L39.2115,4.58503 L40.4925,4.66667 L41.7697,4.77551 L43.0422,4.91156 L44.3088,5.07483 L45.5686,5.26531 L46.8205,5.48299 L48.0634,5.72789 L49.2963,6 L50.5181,6.29932 L51.7277,6.62585 L52.9242,6.97959 L54.1064,7.36054 L55.2733,7.76871 L56.4238,8.20408 L57.5569,8.66667 L58.6716,9.15646 L59.7667,9.67347 L60.8412,10.2177 L61.894,10.7891 L62.9242,11.3878 L63.9306,12.0136 L64.9122,12.6667 L65.8679,13.3469 L66.7968,14.0544 L67.6976,14.7891 L68.5694,15.551 L69.4111,16.3401 L69.5698,16.5 L291.5,16.5 L293.519,17.0461 L294.954,18.4811 L295.5,20.5 L295.5,47.5 L294.954,49.5189 L293.519,50.9539 L291.5,51.5 L34.375,51.5 L33.584,51.9766 L32.8281,52.6875 L32.002,53.6797 L31,55 L30.2441,55.6602 L29.4531,56.1563 L28.5918,56.5117 L27.625,56.75 L26.5176,56.8945 L25.2344,56.9688 L23.7402,56.9961 L22,57 L20.2598,56.9961 L18.7656,56.9688 L17.4824,56.8945 L16.375,56.75 L15.4082,56.5117 L14.5469,56.1563 L13.7559,55.6602 L13,55 L11.998,53.6797 L11.1719,52.6875 L10.416,51.9766 L9.625,51.5 L4.5,51.5 L2.48112,50.9539 L1.04612,49.5189 L0.5,47.5 L0.5,20.5"/>
</g>

<g fill="#ffffff" fill-opacity="1" stroke="none" transform="matrix(1,0,0,1,0,0)"
font-family="Inter" font-size="11" font-weight="700" font-style="normal" 
>
<path vector-effect="none" fill-rule="nonzero" d="M182.551,38 L180.918,32 L182.602,32 L183.531,36.0313 L183.586,36.0313 L184.555,32 L186.207,32 L187.191,36.0078 L187.242,36.0078 L188.156,32 L189.836,32 L188.207,38 L186.445,38 L185.414,34.2266 L185.34,34.2266 L184.309,38 L182.551,38 M192.375,34.5313 L192.375,38 L190.711,38 L190.711,30 L192.328,30 L192.328,33.0586 L192.398,33.0586 C192.534,32.7044 192.753,32.4264 193.055,32.2246 C193.357,32.0228 193.736,31.9219 194.191,31.9219 C194.608,31.9219 194.972,32.0124 195.283,32.1934 C195.594,32.3743 195.837,32.6335 196.01,32.9707 C196.183,33.3079 196.268,33.7109 196.266,34.1797 L196.266,38 L194.602,38 L194.602,34.4766 C194.604,34.1068 194.511,33.819 194.322,33.6133 C194.133,33.4076 193.87,33.3047 193.531,33.3047 C193.305,33.3047 193.105,33.3529 192.932,33.4492 C192.758,33.5456 192.623,33.6855 192.525,33.8691 C192.428,34.0527 192.378,34.2734 192.375,34.5313 M200.305,38.1172 C199.688,38.1172 199.157,37.9915 198.713,37.7402 C198.269,37.4889 197.927,37.1322 197.688,36.6699 C197.448,36.2077 197.328,35.6602 197.328,35.0273 C197.328,34.4102 197.448,33.8685 197.688,33.4023 C197.927,32.9362 198.265,32.5729 198.701,32.3125 C199.137,32.0521 199.65,31.9219 200.238,31.9219 C200.634,31.9219 201.003,31.985 201.346,32.1113 C201.688,32.2376 201.988,32.4271 202.244,32.6797 C202.501,32.9323 202.701,33.2493 202.844,33.6309 C202.987,34.0124 203.059,34.4583 203.059,34.9688 L203.059,35.4258 L197.992,35.4258 L197.992,34.3945 L201.492,34.3945 C201.492,34.1549 201.44,33.9427 201.336,33.7578 C201.232,33.5729 201.088,33.4277 200.904,33.3223 C200.721,33.2168 200.508,33.1641 200.266,33.1641 C200.013,33.1641 199.79,33.222 199.596,33.3379 C199.402,33.4538 199.25,33.6087 199.141,33.8027 C199.031,33.9967 198.975,34.2122 198.973,34.4492 L198.973,35.4297 C198.973,35.7266 199.028,35.9831 199.139,36.1992 C199.249,36.4154 199.406,36.582 199.609,36.6992 C199.813,36.8164 200.053,36.875 200.332,36.875 C200.517,36.875 200.686,36.849 200.84,36.7969 C200.993,36.7448 201.125,36.6667 201.234,36.5625 C201.344,36.4583 201.427,36.3307 201.484,36.1797 L203.023,36.2813 C202.945,36.651 202.786,36.9733 202.545,37.248 C202.304,37.5228 201.994,37.7363 201.615,37.8887 C201.236,38.041 200.799,38.1172 200.305,38.1172 M205.797,34.5313 L205.797,38 L204.133,38 L204.133,32 L205.719,32 L205.719,33.0586 L205.789,33.0586 C205.922,32.7096 206.145,32.4329 206.457,32.2285 C206.77,32.0241 207.148,31.9219 207.594,31.9219 C208.01,31.9219 208.374,32.013 208.684,32.1953 C208.993,32.3776 209.234,32.6374 209.406,32.9746 C209.578,33.3118 209.664,33.7135 209.664,34.1797 L209.664,38 L208,38 L208,34.4766 C208.003,34.1094 207.909,33.8223 207.719,33.6152 C207.529,33.4082 207.267,33.3047 206.934,33.3047 C206.71,33.3047 206.512,33.3529 206.342,33.4492 C206.171,33.5456 206.038,33.6855 205.943,33.8691 C205.848,34.0527 205.799,34.2734 205.797,34.5313 M216.219,38.1172 C215.604,38.1172 215.076,37.9863 214.635,37.7246 C214.193,37.4629 213.855,37.099 213.619,36.6328 C213.383,36.1667 213.266,35.6302 213.266,35.0234 C213.266,34.4089 213.385,33.8691 213.623,33.4043 C213.861,32.9395 214.201,32.5762 214.641,32.3145 C215.081,32.0527 215.604,31.9219 216.211,31.9219 C216.734,31.9219 217.193,32.0169 217.586,32.207 C217.979,32.3971 218.29,32.6641 218.52,33.0078 C218.749,33.3516 218.875,33.7552 218.898,34.2188 L217.328,34.2188 C217.284,33.9193 217.167,33.6777 216.979,33.4941 C216.79,33.3105 216.543,33.2188 216.238,33.2188 C215.98,33.2188 215.756,33.2884 215.564,33.4277 C215.373,33.5671 215.224,33.7695 215.117,34.0352 C215.01,34.3008 214.957,34.6224 214.957,35 C214.957,35.3828 215.01,35.7083 215.115,35.9766 C215.221,36.2448 215.37,36.4492 215.563,36.5898 C215.755,36.7305 215.98,36.8008 216.238,36.8008 C216.428,36.8008 216.6,36.7617 216.752,36.6836 C216.904,36.6055 217.031,36.4915 217.131,36.3418 C217.231,36.1921 217.297,36.0117 217.328,35.8008 L218.898,35.8008 C218.872,36.2591 218.748,36.6621 218.525,37.0098 C218.303,37.3574 217.996,37.6289 217.605,37.8242 C217.215,38.0195 216.753,38.1172 216.219,38.1172 M222.672,38.1172 C222.065,38.1172 221.541,37.9876 221.1,37.7285 C220.658,37.4694 220.318,37.1074 220.078,36.6426 C219.839,36.1777 219.719,35.638 219.719,35.0234 C219.719,34.4036 219.839,33.8613 220.078,33.3965 C220.318,32.9316 220.658,32.5697 221.1,32.3105 C221.541,32.0514 222.065,31.9219 222.672,31.9219 C223.279,31.9219 223.803,32.0514 224.244,32.3105 C224.686,32.5697 225.026,32.9316 225.266,33.3965 C225.505,33.8613 225.625,34.4036 225.625,35.0234 C225.625,35.638 225.505,36.1777 225.266,36.6426 C225.026,37.1074 224.686,37.4694 224.244,37.7285 C223.803,37.9876 223.279,38.1172 222.672,38.1172 M222.68,36.8281 C222.956,36.8281 223.186,36.7493 223.371,36.5918 C223.556,36.4342 223.696,36.2188 223.791,35.9453 C223.886,35.6719 223.934,35.3607 223.934,35.0117 C223.934,34.6628 223.886,34.3516 223.791,34.0781 C223.696,33.8047 223.556,33.5885 223.371,33.4297 C223.186,33.2708 222.956,33.1914 222.68,33.1914 C222.401,33.1914 222.167,33.2708 221.979,33.4297 C221.79,33.5885 221.648,33.8047 221.553,34.0781 C221.458,34.3516 221.41,34.6628 221.41,35.0117 C221.41,35.3607 221.458,35.6719 221.553,35.9453 C221.648,36.2188 221.79,36.4342 221.979,36.5918 C222.167,36.7493 222.401,36.8281 222.68,36.8281 M228.375,30 L228.375,38 L226.711,38 L226.711,30 L228.375,30 M232.406,38.1172 C231.799,38.1172 231.275,37.9876 230.834,37.7285 C230.393,37.4694 230.052,37.1074 229.813,36.6426 C229.573,36.1777 229.453,35.638 229.453,35.0234 C229.453,34.4036 229.573,33.8613 229.813,33.3965 C230.052,32.9316 230.393,32.5697 230.834,32.3105 C231.275,32.0514 231.799,31.9219 232.406,31.9219 C233.013,31.9219 233.537,32.0514 233.979,32.3105 C234.42,32.5697 234.76,32.9316 235,33.3965 C235.24,33.8613 235.359,34.4036 235.359,35.0234 C235.359,35.638 235.24,36.1777 235,36.6426 C234.76,37.1074 234.42,37.4694 233.979,37.7285 C233.537,37.9876 233.013,38.1172 232.406,38.1172 M232.414,36.8281 C232.69,36.8281 232.921,36.7493 233.105,36.5918 C233.29,36.4342 233.43,36.2188 233.525,35.9453 C233.62,35.6719 233.668,35.3607 233.668,35.0117 C233.668,34.6628 233.62,34.3516 233.525,34.0781 C233.43,33.8047 233.29,33.5885 233.105,33.4297 C232.921,33.2708 232.69,33.1914 232.414,33.1914 C232.135,33.1914 231.902,33.2708 231.713,33.4297 C231.524,33.5885 231.382,33.8047 231.287,34.0781 C231.192,34.3516 231.145,34.6628 231.145,35.0117 C231.145,35.3607 231.192,35.6719 231.287,35.9453 C231.382,36.2188 231.524,36.4342 231.713,36.5918 C231.902,36.7493 232.135,36.8281 232.414,36.8281 M236.445,38 L236.445,32 L238.059,32 L238.059,33.0469 L238.121,33.0469 C238.23,32.6745 238.414,32.3926 238.672,32.2012 C238.93,32.0098 239.227,31.9141 239.563,31.9141 C239.646,31.9141 239.736,31.9193 239.832,31.9297 C239.928,31.9401 240.013,31.9544 240.086,31.9727 L240.086,33.4492 C240.008,33.4258 239.9,33.4049 239.762,33.3867 C239.624,33.3685 239.497,33.3594 239.383,33.3594 C239.138,33.3594 238.92,33.4121 238.729,33.5176 C238.537,33.623 238.386,33.7695 238.275,33.957 C238.165,34.1445 238.109,34.3607 238.109,34.6055 L238.109,38 L236.445,38 M243.477,38 L243.477,32 L245.141,32 L245.141,38 L243.477,38 M244.313,31.2266 C244.065,31.2266 243.854,31.1439 243.678,30.9785 C243.502,30.8132 243.414,30.6146 243.414,30.3828 C243.414,30.1536 243.502,29.9564 243.678,29.791 C243.854,29.6257 244.065,29.543 244.313,29.543 C244.56,29.543 244.771,29.6257 244.947,29.791 C245.123,29.9564 245.211,30.1536 245.211,30.3828 C245.211,30.6146 245.123,30.8132 244.947,30.9785 C244.771,31.1439 244.56,31.2266 244.313,31.2266 M251.453,33.7109 L249.93,33.8047 C249.904,33.6745 249.848,33.5566 249.762,33.4512 C249.676,33.3457 249.563,33.2611 249.424,33.1973 C249.285,33.1335 249.118,33.1016 248.926,33.1016 C248.668,33.1016 248.451,33.1556 248.273,33.2637 C248.096,33.3717 248.008,33.5156 248.008,33.6953 C248.008,33.8385 248.065,33.9596 248.18,34.0586 C248.294,34.1576 248.491,34.237 248.77,34.2969 L249.855,34.5156 C250.439,34.6354 250.874,34.8281 251.16,35.0938 C251.447,35.3594 251.59,35.7083 251.59,36.1406 C251.59,36.5339 251.475,36.8789 251.244,37.1758 C251.014,37.4727 250.699,37.7038 250.299,37.8691 C249.899,38.0345 249.439,38.1172 248.918,38.1172 C248.124,38.1172 247.492,37.9512 247.021,37.6191 C246.551,37.2871 246.276,36.8346 246.195,36.2617 L247.832,36.1758 C247.882,36.418 248.001,36.6022 248.191,36.7285 C248.382,36.8548 248.625,36.918 248.922,36.918 C249.214,36.918 249.449,36.8613 249.627,36.748 C249.805,36.6348 249.896,36.4883 249.898,36.3086 C249.896,36.1576 249.832,36.0332 249.707,35.9355 C249.582,35.8379 249.389,35.763 249.129,35.7109 L248.09,35.5039 C247.504,35.3867 247.068,35.1836 246.783,34.8945 C246.498,34.6055 246.355,34.237 246.355,33.7891 C246.355,33.4036 246.46,33.0716 246.67,32.793 C246.88,32.5143 247.175,32.2995 247.557,32.1484 C247.938,31.9974 248.385,31.9219 248.898,31.9219 C249.656,31.9219 250.253,32.082 250.689,32.4023 C251.126,32.7227 251.38,33.1589 251.453,33.7109 "/>
</g>

<g fill="#ffffff" fill-opacity="1" stroke="none" transform="matrix(0.0285,0,0,0.0285,11.2928,25.2981)"
font-family="Inter" font-size="11" font-weight="700" font-style="normal" 
>
<path vector-effect="none" fill-rule="nonzero" d="M235.334,52.7519 C230.145,52.7519 225.965,56.9314 225.965,62.1211 L225.965,102.215 L210.545,102.215 C191.496,102.215 176.161,116.28 176.161,133.752 L176.161,431.395 L231.118,431.395 C233.175,391.149 266.155,359.338 306.93,359.338 L514.625,359.338 C555.4,359.338 588.38,391.149 590.438,431.395 L645.395,431.395 L645.395,133.752 C645.395,116.28 630.059,102.215 611.01,102.215 L587.022,102.215 L587.022,62.1211 C587.022,56.9314 582.844,52.7519 577.655,52.7519 L453.467,52.7519 C448.277,52.7519 444.098,56.9314 444.098,62.1211 L444.098,102.215 L368.889,102.215 L368.889,62.1211 C368.889,56.9314 364.712,52.7519 359.522,52.7519 L235.334,52.7519 M176.161,439.258 L176.161,736.898 C176.161,754.37 191.496,768.437 210.545,768.437 L611.01,768.437 C630.059,768.437 645.395,754.37 645.395,736.898 L645.395,439.258 L590.442,439.258 C588.408,479.525 555.416,511.361 514.625,511.361 L489.325,511.361 C491.149,518.109 492.096,525.064 492.143,532.055 L492.143,532.08 C492.142,577.014 455.717,613.44 410.784,613.443 C365.85,613.447 329.42,577.026 329.412,532.092 C329.455,525.089 330.402,518.121 332.229,511.361 L306.93,511.361 C266.139,511.361 233.148,479.525 231.114,439.258 L176.161,439.258"/>
</g>

<g fill="none" stroke="#000000" stroke-opacity="1" stroke-width="20" stroke-linecap="round" stroke-linejoin="round" transform="matrix(0.0285,0,0,0.0285,11.2928,25.2981)"
font-family="Inter" font-size="11" font-weight="700" font-style="normal" 
>
<path vector-effect="none" fill-rule="nonzero" d="M235.334,52.7519 C230.145,52.7519 225.965,56.9314 225.965,62.1211 L225.965,102.215 L210.545,102.215 C191.496,102.215 176.161,116.28 176.161,133.752 L176.161,431.395 L231.118,431.395 C233.175,391.149 266.155,359.338 306.93,359.338 L514.625,359.338 C555.4,359.338 588.38,391.149 590.438,431.395 L645.395,431.395 L645.395,133.752 C645.395,116.28 630.059,102.215 611.01,102.215 L587.022,102.215 L587.022,62.1211 C587.022,56.9314 582.844,52.7519 577.655,52.7519 L453.467,52.7519 C448.277,52.7519 444.098,56.9314 444.098,62.1211 L444.098,102.215 L368.889,102.215 L368.889,62.1211 C368.889,56.9314 364.712,52.7519 359.522,52.7519 L235.334,52.7519 M176.161,439.258 L176.161,736.898 C176.161,754.37 191.496,768.437 210.545,768.437 L611.01,768.437 C630.059,768.437 645.395,754.37 645.395,736.898 L645.395,439.258 L590.442,439.258 C588.408,479.525 555.416,511.361 514.625,511.361 L489.325,511.361 C491.149,518.109 492.096,525.064 492.143,532.055 L492.143,532.08 C492.142,577.014 455.717,613.44 410.784,613.443 C365.85,613.447 329.42,577.026 329.412,532.092 C329.455,525.089 330.402,518.121 332.229,511.361 L306.93,511.361 C266.139,511.361 233.148,479.525 231.114,439.258 L176.161,439.258"/>
</g>

<g fill="#000000" fill-opacity="1" stroke="none" transform="matrix(0.0285,0,0,0.0285,11.2928,25.2981)"
font-family="Inter" font-size="11" font-weight="700" font-style="normal" 
>
<path vector-effect="none" fill-rule="nonzero" d="M306.93,362.297 C264.82,362.297 230.918,396.198 230.918,438.309 C230.918,480.419 264.82,514.32 306.93,514.32 L332.229,514.32 C330.402,521.08 329.455,528.048 329.412,535.051 C329.42,579.985 365.85,616.406 410.784,616.402 C455.717,616.399 492.142,579.973 492.143,535.039 L492.143,535.014 C492.096,528.023 491.149,521.068 489.325,514.32 L514.625,514.32 C556.736,514.32 590.637,480.419 590.637,438.309 C590.637,396.198 556.736,362.297 514.625,362.297 L306.93,362.297 M514.086,395.043 C536.554,395.038 554.772,413.247 554.778,435.715 L554.778,435.727 C554.777,458.193 536.565,476.407 514.098,476.408 C491.631,476.41 473.416,458.199 473.412,435.732 C473.409,413.265 491.619,395.048 514.086,395.043 L514.086,395.043 M308.393,395.045 C330.86,395.04 349.077,413.248 349.084,435.715 L349.084,435.727 C349.084,458.193 330.872,476.407 308.405,476.408 C285.938,476.41 267.723,458.199 267.719,435.732 C267.716,413.266 285.926,395.05 308.393,395.045 L308.393,395.045 M411.559,471.479 C446.146,471.471 474.192,499.503 474.202,534.09 L474.202,534.109 C474.201,568.697 446.164,596.736 411.577,596.738 C376.988,596.741 348.946,568.705 348.942,534.117 C348.937,499.529 376.971,471.485 411.559,471.479 L411.559,471.479"/>
</g>

<g fill="none" stroke="#000000" stroke-opacity="1" stroke-width="20" stroke-linecap="round" stroke-linejoin="round" transform="matrix(0.0285,0,0,0.0285,11.2928,25.4475)"
font-family="Inter" font-size="11" font-weight="700" font-style="normal" 
>
<path vector-effect="none" fill-rule="evenodd" d="M176.161,129.776 C176.161,112.358 190.281,98.2382 207.698,98.2382 L613.857,98.2382 C631.275,98.2382 645.395,112.358 645.395,129.776 L645.395,732.923 C645.395,750.341 631.275,764.461 613.857,764.461 L207.698,764.461 C190.281,764.461 176.161,750.341 176.161,732.923 L176.161,129.776"/>
</g>

<g fill="#ffffff" fill-opacity="1" stroke="none" transform="matrix(1,0,0,1,0,0)"
font-family="Inter" font-size="11" font-weight="700" font-style="normal" 
>
</g>

<g fill="#ffffff" fill-opacity="1" stroke="#ba9500" stroke-opacity="1" stroke-width="1" stroke-linecap="square" stroke-linejoin="bevel" transform="matrix(1,0,0,1,0,0)"
font-family="Inter" font-size="11" font-weight="700" font-style="normal" 
>
<polyline fill="none" vector-effect="none" points="45,27 45,47 " />
</g>

<g fill="#ffffff" fill-opacity="1" stroke="#ba9500" stroke-opacity="1" stroke-width="1" stroke-linecap="square" stroke-linejoin="bevel" transform="matrix(1,0,0,1,0,0)"
font-family="Inter" font-size="11" font-weight="700" font-style="normal" 
>
</g>

<g fill="#f5c400" fill-opacity="1" stroke="#ba9500" stroke-opacity="1" stroke-width="1.2" stroke-linecap="square" stroke-linejoin="bevel" transform="matrix(1,0,0,1,56,22)"
font-family="Inter" font-size="11" font-weight="700" font-style="normal" 
>
<path vector-effect="none" fill-rule="evenodd" d="M0.5,3.5 C0.5,1.84315 1.84315,0.5 3.5,0.5 L71.5,0.5 C73.1569,0.5 74.5,1.84315 74.5,3.5 L74.5,20.5 C74.5,22.1569 73.1569,23.5 71.5,23.5 L3.5,23.5 C1.84315,23.5 0.5,22.1569 0.5,20.5 L0.5,3.5"/>
</g>

<g fill="#ffffff" fill-opacity="1" stroke="none" transform="matrix(1,0,0,1,56,22)"
font-family="Inter" font-size="11" font-weight="700" font-style="normal" 
>
<path vector-effect="none" fill-rule="nonzero" d="M10,9.39453 L10,8 L16.5703,8 L16.5703,9.39453 L14.1211,9.39453 L14.1211,16 L12.4492,16 L12.4492,9.39453 L10,9.39453 M17.6484,16 L17.6484,8 L19.3398,8 L19.3398,11.3008 L22.7734,11.3008 L22.7734,8 L24.4609,8 L24.4609,16 L22.7734,16 L22.7734,12.6953 L19.3398,12.6953 L19.3398,16 L17.6484,16 M32.543,8 L32.543,16 L31.082,16 L27.6016,10.9648 L27.543,10.9648 L27.543,16 L25.8516,16 L25.8516,8 L27.3359,8 L30.7891,13.0313 L30.8594,13.0313 L30.8594,8 L32.543,8 M33.9297,16 L33.9297,8 L35.6211,8 L35.6211,11.3008 L39.0547,11.3008 L39.0547,8 L40.7422,8 L40.7422,16 L39.0547,16 L39.0547,12.6953 L35.6211,12.6953 L35.6211,16 L33.9297,16 M42.1328,16 L42.1328,8 L45.3359,8 C45.9245,8 46.4154,8.08724 46.8086,8.26172 C47.2018,8.4362 47.4974,8.67773 47.6953,8.98633 C47.8932,9.29492 47.9922,9.64974 47.9922,10.0508 C47.9922,10.3633 47.9297,10.6374 47.8047,10.873 C47.6797,11.1087 47.5085,11.3014 47.291,11.4512 C47.0736,11.6009 46.8255,11.707 46.5469,11.7695 L46.5469,11.8477 C46.8516,11.8607 47.1374,11.9466 47.4043,12.1055 C47.6712,12.2643 47.888,12.4863 48.0547,12.7715 C48.2214,13.0566 48.3047,13.3958 48.3047,13.7891 C48.3047,14.2135 48.1999,14.5918 47.9902,14.9238 C47.7806,15.2559 47.4714,15.5182 47.0625,15.7109 C46.6536,15.9036 46.1497,16 45.5508,16 L42.1328,16 M43.8242,14.6172 L45.2031,14.6172 C45.6745,14.6172 46.0182,14.5267 46.2344,14.3457 C46.4505,14.1647 46.5586,13.9232 46.5586,13.6211 C46.5586,13.3997 46.5052,13.2044 46.3984,13.0352 C46.2917,12.8659 46.14,12.7331 45.9434,12.6367 C45.7467,12.5404 45.513,12.4922 45.2422,12.4922 L43.8242,12.4922 L43.8242,14.6172 M43.8242,11.3477 L45.0781,11.3477 C45.3099,11.3477 45.5163,11.3066 45.6973,11.2246 C45.8783,11.1426 46.0215,11.026 46.127,10.875 C46.2324,10.724 46.2852,10.543 46.2852,10.332 C46.2852,10.043 46.1829,9.8099 45.9785,9.63281 C45.7741,9.45573 45.4844,9.36719 45.1094,9.36719 L43.8242,9.36719 L43.8242,11.3477 M52.832,8 L52.832,16 L51.1406,16 L51.1406,9.60547 L51.0938,9.60547 L49.2617,10.7539 L49.2617,9.25391 L51.2422,8 L52.832,8"/>
</g>

<g fill="#ffffff" fill-opacity="1" stroke="none" transform="matrix(0.03125,0,0,0.03125,117,30)"
font-family="Inter" font-size="11" font-weight="700" font-style="normal" 
>
<path vector-effect="none" fill-rule="nonzero" d="M111.326,191.938 C120.545,201.158 135.517,201.158 144.737,191.938 L239.144,97.5313 C245.929,90.7458 247.921,80.6413 244.233,71.7907 C240.545,62.9401 231.989,57.1871 222.401,57.1871 L33.5875,57.2608 C24.0731,57.2608 15.4437,63.0137 11.7559,71.8644 C8.06815,80.715 10.1333,90.8195 16.845,97.605 L111.252,192.012 L111.326,191.938"/>
</g>

<g fill="none" stroke="#000000" stroke-opacity="1" stroke-width="13.7195" stroke-linecap="butt" stroke-linejoin="miter" stroke-miterlimit="4" transform="matrix(0.03125,0,0,0.03125,117,30)"
font-family="Inter" font-size="11" font-weight="700" font-style="normal" 
>
<path vector-effect="none" fill-rule="nonzero" d="M111.326,191.938 C120.545,201.158 135.517,201.158 144.737,191.938 L239.144,97.5313 C245.929,90.7458 247.921,80.6413 244.233,71.7907 C240.545,62.9401 231.989,57.1871 222.401,57.1871 L33.5875,57.2608 C24.0731,57.2608 15.4437,63.0137 11.7559,71.8644 C8.06815,80.715 10.1333,90.8195 16.845,97.605 L111.252,192.012 L111.326,191.938"/>
</g>

<g fill="#ffffff" fill-opacity="1" stroke="none" transform="matrix(1,0,0,1,56,22)"
font-family="Inter" font-size="11" font-weight="700" font-style="normal" 
>
</g>

<g fill="#ffffff" fill-opacity="1" stroke="#ba9500" stroke-opacity="1" stroke-width="1" stroke-linecap="square" stroke-linejoin="bevel" transform="matrix(1,0,0,1,0,0)"
font-family="Inter" font-size="11" font-weight="700" font-style="normal" 
>
</g>

<g fill="#000000" fill-opacity="1" stroke="#ffffff" stroke-opacity="1" stroke-width="1.2" stroke-linecap="square" stroke-linejoin="bevel" transform="matrix(1,0,0,1,258,22)"
font-family="Inter" font-size="11" font-weight="700" font-style="normal" 
>
<path vector-effect="none" fill-rule="evenodd" d="M0.5,12 C0.5,5.64873 5.87258,0.5 12.5,0.5 L19.5,0.5 C26.1274,0.5 31.5,5.64873 31.5,12 C31.5,18.3513 26.1274,23.5 19.5,23.5 L12.5,23.5 C5.87258,23.5 0.5,18.3513 0.5,12 "/>
</g>

<g fill="#ffffff" fill-opacity="1" stroke="none" transform="matrix(0.03125,0,0,0.03125,276,30)"
font-family="Inter" font-size="11" font-weight="700" font-style="normal" 
>
<path vector-effect="none" fill-rule="nonzero" d="M111.326,191.938 C120.545,201.158 135.517,201.158 144.737,191.938 L239.144,97.5313 C245.929,90.7458 247.921,80.6413 244.233,71.7907 C240.545,62.9401 231.989,57.1871 222.401,57.1871 L33.5875,57.2608 C24.0731,57.2608 15.4437,63.0137 11.7559,71.8644 C8.06815,80.715 10.1333,90.8195 16.845,97.605 L111.252,192.012 L111.326,191.938"/>
</g>

<g fill="none" stroke="#000000" stroke-opacity="1" stroke-width="13.7195" stroke-linecap="butt" stroke-linejoin="miter" stroke-miterlimit="4" transform="matrix(0.03125,0,0,0.03125,276,30)"
font-family="Inter" font-size="11" font-weight="700" font-style="normal" 
>
<path vector-effect="none" fill-rule="nonzero" d="M111.326,191.938 C120.545,201.158 135.517,201.158 144.737,191.938 L239.144,97.5313 C245.929,90.7458 247.921,80.6413 244.233,71.7907 C240.545,62.9401 231.989,57.1871 222.401,57.1871 L33.5875,57.2608 C24.0731,57.2608 15.4437,63.0137 11.7559,71.8644 C8.06815,80.715 10.1333,90.8195 16.845,97.605 L111.252,192.012 L111.326,191.938"/>
</g>

<g fill="#000000" fill-opacity="1" stroke="#ffffff" stroke-opacity="1" stroke-width="1.2" stroke-linecap="square" stroke-linejoin="bevel" transform="matrix(1,0,0,1,258,22)"
font-family="Inter" font-size="11" font-weight="700" font-style="normal" 
>
</g>

<g fill="#ffffff" fill-opacity="1" stroke="#ba9500" stroke-opacity="1" stroke-width="1" stroke-linecap="square" stroke-linejoin="bevel" transform="matrix(1,0,0,1,0,0)"
font-family="Inter" font-size="11" font-weight="700" font-style="normal" 
>
</g>

<g fill="#ffffff" fill-opacity="1" stroke="#ba9500" stroke-opacity="1" stroke-width="1" stroke-linecap="square" stroke-linejoin="bevel" transform="matrix(1,0,0,1,0,0)"
font-family="Inter" font-size="11" font-weight="700" font-style="normal" 
>
</g>

<g fill="#ba9500" fill-opacity="1" stroke="#ba9500" stroke-opacity="1" stroke-width="1.2" stroke-linecap="square" stroke-linejoin="bevel" transform="matrix(1,0,0,1,135,22)"
font-family="Inter" font-size="11" font-weight="700" font-style="normal" 
>
<path vector-effect="none" fill-rule="evenodd" d="M0.5,12 C0.5,5.64873 5.87258,0.5 12.5,0.5 L27.5,0.5 C34.1274,0.5 39.5,5.64873 39.5,12 C39.5,18.3513 34.1274,23.5 27.5,23.5 L12.5,23.5 C5.87258,23.5 0.5,18.3513 0.5,12 "/>
</g>

<g fill="#ffffff" fill-opacity="1" stroke="none" transform="matrix(1,0,0,1,135,22)"
font-family="Inter" font-size="11" font-weight="700" font-style="normal" 
>
<path vector-effect="none" fill-rule="nonzero" d="M11.8242,16 L10.0117,16 L12.7734,8 L14.9531,8 L17.7109,16 L15.8984,16 L13.8945,9.82813 L13.832,9.82813 L11.8242,16 M11.7109,12.8555 L15.9922,12.8555 L15.9922,14.1758 L11.7109,14.1758 L11.7109,12.8555"/>
</g>

<g fill="#ffffff" fill-opacity="1" stroke="none" transform="matrix(0.03125,0,0,0.03125,161,30)"
font-family="Inter" font-size="11" font-weight="700" font-style="normal" 
>
<path vector-effect="none" fill-rule="nonzero" d="M111.326,191.938 C120.545,201.158 135.517,201.158 144.737,191.938 L239.144,97.5313 C245.929,90.7458 247.921,80.6413 244.233,71.7907 C240.545,62.9401 231.989,57.1871 222.401,57.1871 L33.5875,57.2608 C24.0731,57.2608 15.4437,63.0137 11.7559,71.8644 C8.06815,80.715 10.1333,90.8195 16.845,97.605 L111.252,192.012 L111.326,191.938"/>
</g>

<g fill="none" stroke="#000000" stroke-opacity="1" stroke-width="13.7195" stroke-linecap="butt" stroke-linejoin="miter" stroke-miterlimit="4" transform="matrix(0.03125,0,0,0.03125,161,30)"
font-family="Inter" font-size="11" font-weight="700" font-style="normal" 
>
<path vector-effect="none" fill-rule="nonzero" d="M111.326,191.938 C120.545,201.158 135.517,201.158 144.737,191.938 L239.144,97.5313 C245.929,90.7458 247.921,80.6413 244.233,71.7907 C240.545,62.9401 231.989,57.1871 222.401,57.1871 L33.5875,57.2608 C24.0731,57.2608 15.4437,63.0137 11.7559,71.8644 C8.06815,80.715 10.1333,90.8195 16.845,97.605 L111.252,192.012 L111.326,191.938"/>
</g>

<g fill="#ffffff" fill-opacity="1" stroke="none" transform="matrix(1,0,0,1,135,22)"
font-family="Inter" font-size="11" font-weight="700" font-style="normal" 
>
</g>

<g fill="#ffffff" fill-opacity="1" stroke="#ba9500" stroke-opacity="1" stroke-width="1" stroke-linecap="square" stroke-linejoin="bevel" transform="matrix(1,0,0,1,0,0)"
font-family="Inter" font-size="11" font-weight="700" font-style="normal" 
>
</g>

<g fill="none" stroke="#000000" stroke-opacity="1" stroke-width="1" stroke-linecap="square" stroke-linejoin="bevel" transform="matrix(1,0,0,1,0,0)"
font-family=".AppleSystemUIFont" font-size="13" font-weight="400" font-style="normal" 
>
</g>
</g>
</svg>
