<?xml version="1.0" encoding="UTF-8" standalone="no"?>
<svg width="27.1639mm" height="9.87778mm"
 viewBox="0 0 77 28"
 xmlns="http://www.w3.org/2000/svg" xmlns:xlink="http://www.w3.org/1999/xlink" version="1.2" baseProfile="tiny">
<title>Abstract block</title>
<desc>block_operator_round</desc>
<defs>
</defs>
<g fill="none" stroke="black" stroke-width="1" fill-rule="evenodd" stroke-linecap="square" stroke-linejoin="bevel" >

<g fill="none" stroke="#000000" stroke-opacity="1" stroke-width="1" stroke-linecap="square" stroke-linejoin="bevel" transform="matrix(1,0,0,1,0,0)"
font-family=".AppleSystemUIFont" font-size="13" font-weight="400" font-style="normal" 
>
</g>

<g fill="none" stroke="#000000" stroke-opacity="1" stroke-width="1" stroke-linecap="square" stroke-linejoin="bevel" transform="matrix(1,0,0,1,0,0)"
font-family=".AppleSystemUIFont" font-size="13" font-weight="400" font-style="normal" 
>
</g>

<g fill="#00b94d" fill-opacity="1" stroke="#007e32" stroke-opacity="1" stroke-width="1.2" stroke-linecap="square" stroke-linejoin="bevel" transform="matrix(1,0,0,1,0,0)"
font-family=".AppleSystemUIFont" font-size="13" font-weight="400" font-style="normal" 
>
<path vector-effect="none" fill-rule="evenodd" d="M0.5,14 C0.5,6.54416 6.76801,0.5 14.5,0.5 L61.9,0.5 C69.632,0.5 75.9,6.54416 75.9,14 C75.9,21.4558 69.632,27.5 61.9,27.5 L14.5,27.5 C6.76801,27.5 0.5,21.4558 0.5,14 "/>
</g>

<g fill="#ffffff" fill-opacity="1" stroke="none" transform="matrix(1,0,0,1,0,0)"
font-family="Inter" font-size="11" font-weight="700" font-style="normal" 
>
<path vector-effect="none" fill-rule="nonzero" d="M9.91406,17.9063 L9.91406,11.9063 L11.5273,11.9063 L11.5273,12.9531 L11.5898,12.9531 C11.6992,12.5807 11.8828,12.2988 12.1406,12.1074 C12.3984,11.916 12.6953,11.8203 13.0313,11.8203 C13.1146,11.8203 13.2044,11.8255 13.3008,11.8359 C13.3971,11.8464 13.4818,11.8607 13.5547,11.8789 L13.5547,13.3555 C13.4766,13.332 13.3685,13.3112 13.2305,13.293 C13.0924,13.2747 12.9661,13.2656 12.8516,13.2656 C12.6068,13.2656 12.3887,13.3184 12.1973,13.4238 C12.0059,13.5293 11.8548,13.6758 11.7441,13.8633 C11.6335,14.0508 11.5781,14.2669 11.5781,14.5117 L11.5781,17.9063 L9.91406,17.9063 M16.8281,18.0234 C16.2214,18.0234 15.6973,17.8939 15.2559,17.6348 C14.8145,17.3757 14.474,17.0137 14.2344,16.5488 C13.9948,16.084 13.875,15.5443 13.875,14.9297 C13.875,14.3099 13.9948,13.7676 14.2344,13.3027 C14.474,12.8379 14.8145,12.4759 15.2559,12.2168 C15.6973,11.9577 16.2214,11.8281 16.8281,11.8281 C17.4349,11.8281 17.959,11.9577 18.4004,12.2168 C18.8418,12.4759 19.1823,12.8379 19.4219,13.3027 C19.6615,13.7676 19.7813,14.3099 19.7813,14.9297 C19.7813,15.5443 19.6615,16.084 19.4219,16.5488 C19.1823,17.0137 18.8418,17.3757 18.4004,17.6348 C17.959,17.8939 17.4349,18.0234 16.8281,18.0234 M16.8359,16.7344 C17.112,16.7344 17.3424,16.6556 17.5273,16.498 C17.7122,16.3405 17.8522,16.125 17.9473,15.8516 C18.0423,15.5781 18.0898,15.2669 18.0898,14.918 C18.0898,14.569 18.0423,14.2578 17.9473,13.9844 C17.8522,13.7109 17.7122,13.4948 17.5273,13.3359 C17.3424,13.1771 17.112,13.0977 16.8359,13.0977 C16.5573,13.0977 16.3236,13.1771 16.1348,13.3359 C15.946,13.4948 15.804,13.7109 15.709,13.9844 C15.6139,14.2578 15.5664,14.569 15.5664,14.918 C15.5664,15.2669 15.6139,15.5781 15.709,15.8516 C15.804,16.125 15.946,16.3405 16.1348,16.498 C16.3236,16.6556 16.5573,16.7344 16.8359,16.7344 M24.7148,15.3516 L24.7148,11.9063 L26.3789,11.9063 L26.3789,17.9063 L24.7813,17.9063 L24.7813,16.8164 L24.7188,16.8164 C24.5833,17.168 24.3587,17.4505 24.0449,17.6641 C23.7311,17.8776 23.349,17.9844 22.8984,17.9844 C22.4974,17.9844 22.1445,17.8932 21.8398,17.7109 C21.5352,17.5286 21.2975,17.2695 21.127,16.9336 C20.9564,16.5977 20.8698,16.1953 20.8672,15.7266 L20.8672,11.9063 L22.5313,11.9063 L22.5313,15.4297 C22.5339,15.7839 22.6289,16.0638 22.8164,16.2695 C23.0039,16.4753 23.2552,16.5781 23.5703,16.5781 C23.7708,16.5781 23.9583,16.5319 24.1328,16.4395 C24.3073,16.347 24.4486,16.2096 24.5566,16.0273 C24.6647,15.8451 24.7174,15.6198 24.7148,15.3516 M29.3594,14.4375 L29.3594,17.9063 L27.6953,17.9063 L27.6953,11.9063 L29.2813,11.9063 L29.2813,12.9648 L29.3516,12.9648 C29.4844,12.6159 29.707,12.3392 30.0195,12.1348 C30.332,11.9303 30.7109,11.8281 31.1563,11.8281 C31.5729,11.8281 31.9362,11.9193 32.2461,12.1016 C32.556,12.2839 32.7969,12.5436 32.9688,12.8809 C33.1406,13.2181 33.2266,13.6198 33.2266,14.0859 L33.2266,17.9063 L31.5625,17.9063 L31.5625,14.3828 C31.5651,14.0156 31.4714,13.7285 31.2813,13.5215 C31.0911,13.3145 30.8294,13.2109 30.4961,13.2109 C30.2721,13.2109 30.0749,13.2591 29.9043,13.3555 C29.7337,13.4518 29.6009,13.5918 29.5059,13.7754 C29.4108,13.959 29.362,14.1797 29.3594,14.4375 M36.7344,18.0039 C36.2786,18.0039 35.8665,17.8861 35.498,17.6504 C35.1296,17.4147 34.8379,17.0671 34.623,16.6074 C34.4082,16.1478 34.3008,15.5833 34.3008,14.9141 C34.3008,14.2266 34.4115,13.6543 34.6328,13.1973 C34.8542,12.7402 35.1491,12.3978 35.5176,12.1699 C35.8861,11.9421 36.2904,11.8281 36.7305,11.8281 C37.0664,11.8281 37.347,11.8848 37.5723,11.998 C37.7975,12.1113 37.9798,12.252 38.1191,12.4199 C38.2585,12.5879 38.3646,12.7526 38.4375,12.9141 L38.4883,12.9141 L38.4883,9.90625 L40.1484,9.90625 L40.1484,17.9063 L38.5078,17.9063 L38.5078,16.9453 L38.4375,16.9453 C38.3594,17.112 38.2493,17.2767 38.1074,17.4395 C37.9655,17.6022 37.7819,17.737 37.5566,17.8438 C37.3314,17.9505 37.0573,18.0039 36.7344,18.0039 M37.2617,16.6797 C37.5299,16.6797 37.7572,16.6061 37.9434,16.459 C38.1296,16.3118 38.2728,16.1055 38.373,15.8398 C38.4733,15.5742 38.5234,15.263 38.5234,14.9063 C38.5234,14.5495 38.474,14.2396 38.375,13.9766 C38.276,13.7135 38.1328,13.5104 37.9453,13.3672 C37.7578,13.224 37.5299,13.1523 37.2617,13.1523 C36.9883,13.1523 36.7578,13.2266 36.5703,13.375 C36.3828,13.5234 36.2409,13.7292 36.1445,13.9922 C36.0482,14.2552 36,14.5599 36,14.9063 C36,15.2552 36.0488,15.5632 36.1465,15.8301 C36.2441,16.097 36.3861,16.3053 36.5723,16.4551 C36.7585,16.6048 36.9883,16.6797 37.2617,16.6797 "/>
</g>

<g fill="#ffffff" fill-opacity="1" stroke="none" transform="matrix(1,0,0,1,0,0)"
font-family="Inter" font-size="11" font-weight="700" font-style="normal" 
>
</g>

<g fill="#ffffff" fill-opacity="1" stroke="#006a2a" stroke-opacity="1" stroke-width="1.2" stroke-linecap="square" stroke-linejoin="bevel" transform="matrix(1,0,0,1,47,3)"
font-family="Inter" font-size="11" font-weight="700" font-style="normal" 
>
<path vector-effect="none" fill-rule="evenodd" d="M1,11 C1,5.47715 5.92487,1 12,1 L14.4,1 C20.4751,1 25.4,5.47715 25.4,11 C25.4,16.5228 20.4751,21 14.4,21 L12,21 C5.92487,21 1,16.5228 1,11 "/>
</g>

<g fill="#000000" fill-opacity="1" stroke="none" transform="matrix(1,0,0,1,47,3)"
font-family="Inter" font-size="10" font-weight="700" font-style="normal" 
>
<path vector-effect="none" fill-rule="nonzero" d="M12.9411,14.5817 C12.3303,14.5793 11.8053,14.429 11.3661,14.1307 C10.927,13.8324 10.5896,13.4003 10.354,12.8345 C10.1185,12.2687 10.0019,11.5881 10.0043,10.7926 C10.0043,9.99953 10.122,9.32363 10.3576,8.76491 C10.5932,8.2062 10.9305,7.78066 11.3697,7.48828 C11.8088,7.1959 12.3326,7.04972 12.9411,7.04972 C13.5495,7.04972 14.0733,7.1965 14.5124,7.49006 C14.9516,7.78362 15.2895,8.20916 15.5263,8.76669 C15.763,9.32422 15.8802,9.99953 15.8778,10.7926 C15.8778,11.5904 15.7601,12.2723 15.5245,12.8381 C15.2889,13.4039 14.9522,13.8359 14.5142,14.1342 C14.0762,14.4325 13.5518,14.5817 12.9411,14.5817 M12.9411,13.3068 C13.3577,13.3068 13.6903,13.0973 13.9389,12.6783 C14.1875,12.2592 14.3106,11.6307 14.3082,10.7926 C14.3082,10.241 14.252,9.78172 14.1396,9.41477 C14.0271,9.04782 13.8685,8.77202 13.6637,8.58736 C13.4589,8.4027 13.218,8.31037 12.9411,8.31037 C12.5268,8.31037 12.1953,8.51752 11.9467,8.93182 C11.6982,9.34612 11.5727,9.96638 11.5703,10.7926 C11.5703,11.3513 11.6265,11.8171 11.739,12.19 C11.8514,12.5629 12.0107,12.8422 12.2166,13.0281 C12.4226,13.2139 12.6641,13.3068 12.9411,13.3068 "/>
</g>

<g fill="#ffffff" fill-opacity="1" stroke="none" transform="matrix(1,0,0,1,0,0)"
font-family="Inter" font-size="11" font-weight="700" font-style="normal" 
>
</g>

<g fill="#ffffff" fill-opacity="1" stroke="none" transform="matrix(1,0,0,1,0,0)"
font-family="Inter" font-size="11" font-weight="700" font-style="normal" 
>
</g>

<g fill="none" stroke="#000000" stroke-opacity="1" stroke-width="1" stroke-linecap="square" stroke-linejoin="bevel" transform="matrix(1,0,0,1,0,0)"
font-family=".AppleSystemUIFont" font-size="13" font-weight="400" font-style="normal" 
>
</g>
</g>
</svg>
