<?xml version="1.0" encoding="UTF-8" standalone="no"?>
<svg width="87.4889mm" height="15.5222mm"
 viewBox="0 0 248 44"
 xmlns="http://www.w3.org/2000/svg" xmlns:xlink="http://www.w3.org/1999/xlink" version="1.2" baseProfile="tiny">
<title>Abstract block</title>
<desc>block_hubs_all_motors_port_stop_motor</desc>
<defs>
</defs>
<g fill="none" stroke="black" stroke-width="1" fill-rule="evenodd" stroke-linecap="square" stroke-linejoin="bevel" >

<g fill="none" stroke="#000000" stroke-opacity="1" stroke-width="1" stroke-linecap="square" stroke-linejoin="bevel" transform="matrix(1,0,0,1,0,0)"
font-family=".AppleSystemUIFont" font-size="13" font-weight="400" font-style="normal" 
>
</g>

<g fill="none" stroke="#000000" stroke-opacity="1" stroke-width="1" stroke-linecap="square" stroke-linejoin="bevel" transform="matrix(1,0,0,1,0,0)"
font-family=".AppleSystemUIFont" font-size="13" font-weight="400" font-style="normal" 
>
</g>

<g fill="#0090f5" fill-opacity="1" stroke="#0070ba" stroke-opacity="1" stroke-width="1.2" stroke-linecap="square" stroke-linejoin="bevel" transform="matrix(1,0,0,1,0,0)"
font-family=".AppleSystemUIFont" font-size="13" font-weight="400" font-style="normal" 
>
<path vector-effect="none" fill-rule="evenodd" d="M0.5,4.5 L1.04612,2.48112 L2.48112,1.04612 L4.5,0.5 L9.625,0.5 L10.416,0.976563 L11.1719,1.6875 L11.998,2.67969 L13,4 L13.7559,4.66016 L14.5469,5.15625 L15.4082,5.51172 L16.375,5.75 L17.4824,5.89453 L18.7656,5.96875 L20.2598,5.99609 L22,6 L23.7402,5.99609 L25.2344,5.96875 L26.5176,5.89453 L27.625,5.75 L28.5918,5.51172 L29.4531,5.15625 L30.2441,4.66016 L31,4 L32.002,2.67969 L32.8281,1.6875 L33.584,0.976563 L34.375,0.5 L243.5,0.5 L245.519,1.04612 L246.954,2.48112 L247.5,4.5 L247.5,31.5 L246.954,33.5189 L245.519,34.9539 L243.5,35.5 L34.375,35.5 L33.584,35.9766 L32.8281,36.6875 L32.002,37.6797 L31,39 L30.2441,39.6602 L29.4531,40.1563 L28.5918,40.5117 L27.625,40.75 L26.5176,40.8945 L25.2344,40.9688 L23.7402,40.9961 L22,41 L20.2598,40.9961 L18.7656,40.9688 L17.4824,40.8945 L16.375,40.75 L15.4082,40.5117 L14.5469,40.1563 L13.7559,39.6602 L13,39 L11.998,37.6797 L11.1719,36.6875 L10.416,35.9766 L9.625,35.5 L4.5,35.5 L2.48112,34.9539 L1.04612,33.5189 L0.5,31.5 L0.5,4.5"/>
</g>

<g fill="#ffffff" fill-opacity="1" stroke="none" transform="matrix(1,0,0,1,0,0)"
font-family="Inter" font-size="11" font-weight="700" font-style="normal" 
>
<path vector-effect="none" fill-rule="nonzero" d="M186.141,16.2578 L184.617,16.3516 C184.591,16.2214 184.535,16.1035 184.449,15.998 C184.363,15.8926 184.251,15.8079 184.111,15.7441 C183.972,15.6803 183.806,15.6484 183.613,15.6484 C183.355,15.6484 183.138,15.7025 182.961,15.8105 C182.784,15.9186 182.695,16.0625 182.695,16.2422 C182.695,16.3854 182.753,16.5065 182.867,16.6055 C182.982,16.7044 183.178,16.7839 183.457,16.8438 L184.543,17.0625 C185.126,17.1823 185.561,17.375 185.848,17.6406 C186.134,17.9063 186.277,18.2552 186.277,18.6875 C186.277,19.0807 186.162,19.4258 185.932,19.7227 C185.701,20.0195 185.386,20.2507 184.986,20.416 C184.587,20.5814 184.126,20.6641 183.605,20.6641 C182.811,20.6641 182.179,20.498 181.709,20.166 C181.239,19.834 180.964,19.3815 180.883,18.8086 L182.52,18.7227 C182.569,18.9648 182.689,19.1491 182.879,19.2754 C183.069,19.4017 183.313,19.4648 183.609,19.4648 C183.901,19.4648 184.136,19.4082 184.314,19.2949 C184.493,19.1816 184.583,19.0352 184.586,18.8555 C184.583,18.7044 184.52,18.5801 184.395,18.4824 C184.27,18.3848 184.077,18.3099 183.816,18.2578 L182.777,18.0508 C182.191,17.9336 181.756,17.7305 181.471,17.4414 C181.186,17.1523 181.043,16.7839 181.043,16.3359 C181.043,15.9505 181.148,15.6185 181.357,15.3398 C181.567,15.0612 181.863,14.8464 182.244,14.6953 C182.626,14.5443 183.073,14.4688 183.586,14.4688 C184.344,14.4688 184.941,14.6289 185.377,14.9492 C185.813,15.2695 186.068,15.7057 186.141,16.2578 M190.512,14.5469 L190.512,15.7969 L186.898,15.7969 L186.898,14.5469 L190.512,14.5469 M187.719,13.1094 L189.383,13.1094 L189.383,18.7031 C189.383,18.8568 189.406,18.9759 189.453,19.0605 C189.5,19.1452 189.566,19.2044 189.65,19.2383 C189.735,19.2721 189.833,19.2891 189.945,19.2891 C190.023,19.2891 190.102,19.2819 190.18,19.2676 C190.258,19.2533 190.318,19.2422 190.359,19.2344 L190.621,20.4727 C190.538,20.4987 190.421,20.5293 190.27,20.5645 C190.118,20.5996 189.935,20.6211 189.719,20.6289 C189.318,20.6445 188.967,20.5911 188.666,20.4688 C188.365,20.3464 188.132,20.1563 187.965,19.8984 C187.798,19.6406 187.716,19.3151 187.719,18.9219 L187.719,13.1094 M194.234,20.6641 C193.628,20.6641 193.104,20.5345 192.662,20.2754 C192.221,20.0163 191.88,19.6543 191.641,19.1895 C191.401,18.7246 191.281,18.1849 191.281,17.5703 C191.281,16.9505 191.401,16.4082 191.641,15.9434 C191.88,15.4785 192.221,15.1165 192.662,14.8574 C193.104,14.5983 193.628,14.4688 194.234,14.4688 C194.841,14.4688 195.365,14.5983 195.807,14.8574 C196.248,15.1165 196.589,15.4785 196.828,15.9434 C197.068,16.4082 197.188,16.9505 197.188,17.5703 C197.188,18.1849 197.068,18.7246 196.828,19.1895 C196.589,19.6543 196.248,20.0163 195.807,20.2754 C195.365,20.5345 194.841,20.6641 194.234,20.6641 M194.242,19.375 C194.518,19.375 194.749,19.2962 194.934,19.1387 C195.118,18.9811 195.258,18.7656 195.354,18.4922 C195.449,18.2188 195.496,17.9076 195.496,17.5586 C195.496,17.2096 195.449,16.8984 195.354,16.625 C195.258,16.3516 195.118,16.1354 194.934,15.9766 C194.749,15.8177 194.518,15.7383 194.242,15.7383 C193.964,15.7383 193.73,15.8177 193.541,15.9766 C193.352,16.1354 193.21,16.3516 193.115,16.625 C193.02,16.8984 192.973,17.2096 192.973,17.5586 C192.973,17.9076 193.02,18.2188 193.115,18.4922 C193.21,18.7656 193.352,18.9811 193.541,19.1387 C193.73,19.2962 193.964,19.375 194.242,19.375 M198.273,22.7969 L198.273,14.5469 L199.914,14.5469 L199.914,15.5547 L199.988,15.5547 C200.061,15.3932 200.167,15.2285 200.307,15.0605 C200.446,14.8926 200.628,14.752 200.854,14.6387 C201.079,14.5254 201.359,14.4688 201.695,14.4688 C202.133,14.4688 202.536,14.5827 202.906,14.8105 C203.276,15.0384 203.572,15.3809 203.793,15.8379 C204.014,16.2949 204.125,16.8672 204.125,17.5547 C204.125,18.224 204.018,18.7884 203.803,19.248 C203.588,19.7077 203.296,20.0553 202.928,20.291 C202.559,20.5267 202.147,20.6445 201.691,20.6445 C201.368,20.6445 201.094,20.5911 200.869,20.4844 C200.644,20.3776 200.46,20.2428 200.316,20.0801 C200.173,19.9173 200.064,19.7526 199.988,19.5859 L199.938,19.5859 L199.938,22.7969 L198.273,22.7969 M199.902,17.5469 C199.902,17.9036 199.952,18.2148 200.051,18.4805 C200.15,18.7461 200.293,18.9525 200.48,19.0996 C200.668,19.2467 200.896,19.3203 201.164,19.3203 C201.435,19.3203 201.664,19.2454 201.852,19.0957 C202.039,18.946 202.182,18.7376 202.279,18.4707 C202.377,18.2038 202.426,17.8958 202.426,17.5469 C202.426,17.2005 202.378,16.8958 202.281,16.6328 C202.185,16.3698 202.043,16.1641 201.855,16.0156 C201.668,15.8672 201.438,15.793 201.164,15.793 C200.893,15.793 200.665,15.8646 200.479,16.0078 C200.292,16.151 200.15,16.3542 200.051,16.6172 C199.952,16.8802 199.902,17.1901 199.902,17.5469 M207.773,20.5469 L207.773,14.5469 L209.359,14.5469 L209.359,15.6055 L209.43,15.6055 C209.555,15.2539 209.763,14.9766 210.055,14.7734 C210.346,14.5703 210.695,14.4688 211.102,14.4688 C211.513,14.4688 211.863,14.571 212.152,14.7754 C212.441,14.9798 212.634,15.2565 212.73,15.6055 L212.793,15.6055 C212.915,15.2617 213.137,14.9863 213.459,14.7793 C213.781,14.5723 214.161,14.4688 214.602,14.4688 C215.161,14.4688 215.617,14.6465 215.967,15.002 C216.317,15.3574 216.492,15.8607 216.492,16.5117 L216.492,20.5469 L214.832,20.5469 L214.832,16.8398 C214.832,16.5065 214.743,16.2565 214.566,16.0898 C214.389,15.9232 214.168,15.8398 213.902,15.8398 C213.6,15.8398 213.365,15.9355 213.195,16.127 C213.026,16.3184 212.941,16.5703 212.941,16.8828 L212.941,20.5469 L211.328,20.5469 L211.328,16.8047 C211.328,16.5104 211.244,16.276 211.076,16.1016 C210.908,15.9271 210.688,15.8398 210.414,15.8398 C210.229,15.8398 210.063,15.8861 209.916,15.9785 C209.769,16.071 209.652,16.1999 209.566,16.3652 C209.48,16.5306 209.438,16.724 209.438,16.9453 L209.438,20.5469 L207.773,20.5469 M220.516,20.6641 C219.909,20.6641 219.385,20.5345 218.943,20.2754 C218.502,20.0163 218.161,19.6543 217.922,19.1895 C217.682,18.7246 217.563,18.1849 217.563,17.5703 C217.563,16.9505 217.682,16.4082 217.922,15.9434 C218.161,15.4785 218.502,15.1165 218.943,14.8574 C219.385,14.5983 219.909,14.4688 220.516,14.4688 C221.122,14.4688 221.646,14.5983 222.088,14.8574 C222.529,15.1165 222.87,15.4785 223.109,15.9434 C223.349,16.4082 223.469,16.9505 223.469,17.5703 C223.469,18.1849 223.349,18.7246 223.109,19.1895 C222.87,19.6543 222.529,20.0163 222.088,20.2754 C221.646,20.5345 221.122,20.6641 220.516,20.6641 M220.523,19.375 C220.799,19.375 221.03,19.2962 221.215,19.1387 C221.4,18.9811 221.54,18.7656 221.635,18.4922 C221.73,18.2188 221.777,17.9076 221.777,17.5586 C221.777,17.2096 221.73,16.8984 221.635,16.625 C221.54,16.3516 221.4,16.1354 221.215,15.9766 C221.03,15.8177 220.799,15.7383 220.523,15.7383 C220.245,15.7383 220.011,15.8177 219.822,15.9766 C219.633,16.1354 219.492,16.3516 219.396,16.625 C219.301,16.8984 219.254,17.2096 219.254,17.5586 C219.254,17.9076 219.301,18.2188 219.396,18.4922 C219.492,18.7656 219.633,18.9811 219.822,19.1387 C220.011,19.2962 220.245,19.375 220.523,19.375 M227.746,14.5469 L227.746,15.7969 L224.133,15.7969 L224.133,14.5469 L227.746,14.5469 M224.953,13.1094 L226.617,13.1094 L226.617,18.7031 C226.617,18.8568 226.641,18.9759 226.688,19.0605 C226.734,19.1452 226.8,19.2044 226.885,19.2383 C226.969,19.2721 227.068,19.2891 227.18,19.2891 C227.258,19.2891 227.336,19.2819 227.414,19.2676 C227.492,19.2533 227.552,19.2422 227.594,19.2344 L227.855,20.4727 C227.772,20.4987 227.655,20.5293 227.504,20.5645 C227.353,20.5996 227.169,20.6211 226.953,20.6289 C226.552,20.6445 226.201,20.5911 225.9,20.4688 C225.6,20.3464 225.366,20.1563 225.199,19.8984 C225.033,19.6406 224.951,19.3151 224.953,18.9219 L224.953,13.1094 M231.469,20.6641 C230.862,20.6641 230.338,20.5345 229.896,20.2754 C229.455,20.0163 229.115,19.6543 228.875,19.1895 C228.635,18.7246 228.516,18.1849 228.516,17.5703 C228.516,16.9505 228.635,16.4082 228.875,15.9434 C229.115,15.4785 229.455,15.1165 229.896,14.8574 C230.338,14.5983 230.862,14.4688 231.469,14.4688 C232.076,14.4688 232.6,14.5983 233.041,14.8574 C233.482,15.1165 233.823,15.4785 234.063,15.9434 C234.302,16.4082 234.422,16.9505 234.422,17.5703 C234.422,18.1849 234.302,18.7246 234.063,19.1895 C233.823,19.6543 233.482,20.0163 233.041,20.2754 C232.6,20.5345 232.076,20.6641 231.469,20.6641 M231.477,19.375 C231.753,19.375 231.983,19.2962 232.168,19.1387 C232.353,18.9811 232.493,18.7656 232.588,18.4922 C232.683,18.2188 232.73,17.9076 232.73,17.5586 C232.73,17.2096 232.683,16.8984 232.588,16.625 C232.493,16.3516 232.353,16.1354 232.168,15.9766 C231.983,15.8177 231.753,15.7383 231.477,15.7383 C231.198,15.7383 230.964,15.8177 230.775,15.9766 C230.587,16.1354 230.445,16.3516 230.35,16.625 C230.255,16.8984 230.207,17.2096 230.207,17.5586 C230.207,17.9076 230.255,18.2188 230.35,18.4922 C230.445,18.7656 230.587,18.9811 230.775,19.1387 C230.964,19.2962 231.198,19.375 231.477,19.375 M235.508,20.5469 L235.508,14.5469 L237.121,14.5469 L237.121,15.5938 L237.184,15.5938 C237.293,15.2214 237.477,14.9395 237.734,14.748 C237.992,14.5566 238.289,14.4609 238.625,14.4609 C238.708,14.4609 238.798,14.4661 238.895,14.4766 C238.991,14.487 239.076,14.5013 239.148,14.5195 L239.148,15.9961 C239.07,15.9727 238.962,15.9518 238.824,15.9336 C238.686,15.9154 238.56,15.9063 238.445,15.9063 C238.201,15.9063 237.982,15.959 237.791,16.0645 C237.6,16.1699 237.449,16.3164 237.338,16.5039 C237.227,16.6914 237.172,16.9076 237.172,17.1523 L237.172,20.5469 L235.508,20.5469"/>
</g>

<g fill="#ffffff" fill-opacity="1" stroke="none" transform="matrix(0.0285,0,0,0.0285,11.2928,9.44754)"
font-family="Inter" font-size="11" font-weight="700" font-style="normal" 
>
<path vector-effect="none" fill-rule="nonzero" d="M410.778,59.991 C376.729,59.991 346.629,75.6235 326.182,99.684 C216.768,129.689 131.433,215.271 101.927,324.891 C79.5232,345.494 65.3275,374.762 65.54,407.6 C65.7463,439.573 79.3407,468.172 100.975,488.421 C130.228,601.34 218.744,689.335 331.859,718.096 C331.956,718.125 331.989,718.313 332.085,718.338 C352.242,738.376 380.064,750.708 410.778,750.708 C441.492,750.708 469.314,738.376 489.47,718.338 C489.549,718.262 489.618,718.17 489.696,718.096 C604.323,688.948 693.738,598.994 721.758,483.921 C742.939,463.42 756.216,434.907 756.015,403.1 C755.801,370.079 741.086,340.899 718.209,320.633 C687.622,213.077 603.338,129.291 495.373,99.684 C474.926,75.6235 444.827,59.991 410.778,59.991 M410.778,91.8938 C455.052,91.8938 490.89,127.731 490.89,172.006 C490.89,216.28 455.052,252.102 410.778,252.102 C366.503,252.102 330.666,216.28 330.666,172.006 C330.666,127.731 366.503,91.8938 410.778,91.8938 M177.071,325.601 C221.346,325.601 257.183,361.438 257.183,405.713 C257.183,449.987 221.346,485.808 177.071,485.808 C132.796,485.808 96.7332,449.987 96.7332,405.713 C96.7332,361.438 132.796,325.601 177.071,325.601 M644.485,325.601 C688.763,325.601 724.822,361.438 724.822,405.713 C724.822,449.987 688.763,485.808 644.485,485.808 C600.21,485.808 564.373,449.987 564.373,405.713 C564.373,361.438 600.21,325.601 644.485,325.601 M396.601,335.762 L424.955,335.762 C431.754,335.762 437.245,342.538 437.245,350.891 L437.245,381.6 L467.971,381.6 C476.323,381.6 483.083,387.091 483.083,393.89 L483.083,422.245 C483.083,429.044 476.323,434.535 467.971,434.535 L437.245,434.535 L437.245,465.26 C437.245,473.612 431.754,480.373 424.955,480.373 L396.601,480.373 C389.801,480.373 384.31,473.613 384.31,465.26 L384.31,434.535 L353.585,434.535 C345.233,434.535 338.472,429.044 338.472,422.245 L338.472,393.89 C338.472,387.091 345.232,381.6 353.585,381.6 L384.31,381.6 L384.31,350.891 C384.31,342.539 389.801,335.762 396.601,335.762 M410.778,559.307 C455.052,559.307 490.89,595.371 490.89,639.645 C490.89,683.918 455.052,719.757 410.778,719.757 C366.503,719.757 330.666,683.918 330.666,639.645 C330.666,595.371 366.503,559.307 410.778,559.307 "/>
</g>

<g fill="none" stroke="#000000" stroke-opacity="1" stroke-width="22.7975" stroke-linecap="round" stroke-linejoin="round" transform="matrix(0.0285,0,0,0.0285,11.2928,9.44754)"
font-family="Inter" font-size="11" font-weight="700" font-style="normal" 
>
<path vector-effect="none" fill-rule="nonzero" d="M410.778,59.991 C376.729,59.991 346.629,75.6235 326.182,99.684 C216.768,129.689 131.433,215.271 101.927,324.891 C79.5232,345.494 65.3275,374.762 65.54,407.6 C65.7463,439.573 79.3407,468.172 100.975,488.421 C130.228,601.34 218.744,689.335 331.859,718.096 C331.956,718.125 331.989,718.313 332.085,718.338 C352.242,738.376 380.064,750.708 410.778,750.708 C441.492,750.708 469.314,738.376 489.47,718.338 C489.549,718.262 489.618,718.17 489.696,718.096 C604.323,688.948 693.738,598.994 721.758,483.921 C742.939,463.42 756.216,434.907 756.015,403.1 C755.801,370.079 741.086,340.899 718.209,320.633 C687.622,213.077 603.338,129.291 495.373,99.684 C474.926,75.6235 444.827,59.991 410.778,59.991 M410.778,91.8938 C455.052,91.8938 490.89,127.731 490.89,172.006 C490.89,216.28 455.052,252.102 410.778,252.102 C366.503,252.102 330.666,216.28 330.666,172.006 C330.666,127.731 366.503,91.8938 410.778,91.8938 M177.071,325.601 C221.346,325.601 257.183,361.438 257.183,405.713 C257.183,449.987 221.346,485.808 177.071,485.808 C132.796,485.808 96.7332,449.987 96.7332,405.713 C96.7332,361.438 132.796,325.601 177.071,325.601 M644.485,325.601 C688.763,325.601 724.822,361.438 724.822,405.713 C724.822,449.987 688.763,485.808 644.485,485.808 C600.21,485.808 564.373,449.987 564.373,405.713 C564.373,361.438 600.21,325.601 644.485,325.601 M396.601,335.762 L424.955,335.762 C431.754,335.762 437.245,342.538 437.245,350.891 L437.245,381.6 L467.971,381.6 C476.323,381.6 483.083,387.091 483.083,393.89 L483.083,422.245 C483.083,429.044 476.323,434.535 467.971,434.535 L437.245,434.535 L437.245,465.26 C437.245,473.612 431.754,480.373 424.955,480.373 L396.601,480.373 C389.801,480.373 384.31,473.613 384.31,465.26 L384.31,434.535 L353.585,434.535 C345.233,434.535 338.472,429.044 338.472,422.245 L338.472,393.89 C338.472,387.091 345.232,381.6 353.585,381.6 L384.31,381.6 L384.31,350.891 C384.31,342.539 389.801,335.762 396.601,335.762 M410.778,559.307 C455.052,559.307 490.89,595.371 490.89,639.645 C490.89,683.918 455.052,719.757 410.778,719.757 C366.503,719.757 330.666,683.918 330.666,639.645 C330.666,595.371 366.503,559.307 410.778,559.307 "/>
</g>

<g fill="#000000" fill-opacity="1" stroke="none" transform="matrix(0.0285,0,0,0.0285,11.2928,9.44754)"
font-family="Inter" font-size="11" font-weight="700" font-style="normal" 
>
<path vector-effect="none" fill-rule="evenodd" d="M394.961,355.661 C394.961,347.613 401.485,341.088 409.533,341.088 C417.582,341.088 424.106,347.613 424.106,355.661 L424.106,457.48 C424.106,465.528 417.582,472.053 409.533,472.053 C401.485,472.053 394.961,465.528 394.961,457.48 L394.961,355.661"/>
</g>

<g fill="none" stroke="#000000" stroke-opacity="1" stroke-width="20" stroke-linecap="round" stroke-linejoin="round" transform="matrix(0.0285,0,0,0.0285,11.2928,9.44754)"
font-family="Inter" font-size="11" font-weight="700" font-style="normal" 
>
<path vector-effect="none" fill-rule="evenodd" d="M394.961,355.661 C394.961,347.613 401.485,341.088 409.533,341.088 C417.582,341.088 424.106,347.613 424.106,355.661 L424.106,457.48 C424.106,465.528 417.582,472.053 409.533,472.053 C401.485,472.053 394.961,465.528 394.961,457.48 L394.961,355.661"/>
</g>

<g fill="#000000" fill-opacity="1" stroke="none" transform="matrix(0,0.0285,-0.0285,0,11.2928,9.44754)"
font-family="Inter" font-size="11" font-weight="700" font-style="normal" 
>
<path vector-effect="none" fill-rule="evenodd" d="M394.152,-461.016 C394.152,-469.064 400.676,-475.588 408.724,-475.588 C416.773,-475.588 423.297,-469.064 423.297,-461.016 L423.297,-359.196 C423.297,-351.148 416.773,-344.624 408.724,-344.624 C400.676,-344.624 394.152,-351.148 394.152,-359.196 L394.152,-461.016"/>
</g>

<g fill="none" stroke="#000000" stroke-opacity="1" stroke-width="20" stroke-linecap="round" stroke-linejoin="round" transform="matrix(0,0.0285,-0.0285,0,11.2928,9.44754)"
font-family="Inter" font-size="11" font-weight="700" font-style="normal" 
>
<path vector-effect="none" fill-rule="evenodd" d="M394.152,-461.016 C394.152,-469.064 400.676,-475.588 408.724,-475.588 C416.773,-475.588 423.297,-469.064 423.297,-461.016 L423.297,-359.196 C423.297,-351.148 416.773,-344.624 408.724,-344.624 C400.676,-344.624 394.152,-351.148 394.152,-359.196 L394.152,-461.016"/>
</g>

<g fill="#ffffff" fill-opacity="1" stroke="none" transform="matrix(1,0,0,1,0,0)"
font-family="Inter" font-size="11" font-weight="700" font-style="normal" 
>
</g>

<g fill="#ffffff" fill-opacity="1" stroke="#0070ba" stroke-opacity="1" stroke-width="1" stroke-linecap="square" stroke-linejoin="bevel" transform="matrix(1,0,0,1,0,0)"
font-family="Inter" font-size="11" font-weight="700" font-style="normal" 
>
<polyline fill="none" vector-effect="none" points="45,11 45,31 " />
</g>

<g fill="#ffffff" fill-opacity="1" stroke="#0070ba" stroke-opacity="1" stroke-width="1" stroke-linecap="square" stroke-linejoin="bevel" transform="matrix(1,0,0,1,0,0)"
font-family="Inter" font-size="11" font-weight="700" font-style="normal" 
>
</g>

<g fill="#ffffff" fill-opacity="1" stroke="#0070ba" stroke-opacity="1" stroke-width="1" stroke-linecap="square" stroke-linejoin="bevel" transform="matrix(1,0,0,1,0,0)"
font-family="Inter" font-size="11" font-weight="700" font-style="normal" 
>
</g>

<g fill="#0070ba" fill-opacity="1" stroke="#0070ba" stroke-opacity="1" stroke-width="1.2" stroke-linecap="square" stroke-linejoin="bevel" transform="matrix(1,0,0,1,135,6)"
font-family="Inter" font-size="11" font-weight="700" font-style="normal" 
>
<path vector-effect="none" fill-rule="evenodd" d="M0.5,12 C0.5,5.64873 5.87258,0.5 12.5,0.5 L27.5,0.5 C34.1274,0.5 39.5,5.64873 39.5,12 C39.5,18.3513 34.1274,23.5 27.5,23.5 L12.5,23.5 C5.87258,23.5 0.5,18.3513 0.5,12 "/>
</g>

<g fill="#ffffff" fill-opacity="1" stroke="none" transform="matrix(1,0,0,1,135,6)"
font-family="Inter" font-size="11" font-weight="700" font-style="normal" 
>
<path vector-effect="none" fill-rule="nonzero" d="M11.8242,16 L10.0117,16 L12.7734,8 L14.9531,8 L17.7109,16 L15.8984,16 L13.8945,9.82813 L13.832,9.82813 L11.8242,16 M11.7109,12.8555 L15.9922,12.8555 L15.9922,14.1758 L11.7109,14.1758 L11.7109,12.8555"/>
</g>

<g fill="#ffffff" fill-opacity="1" stroke="none" transform="matrix(0.03125,0,0,0.03125,161,14)"
font-family="Inter" font-size="11" font-weight="700" font-style="normal" 
>
<path vector-effect="none" fill-rule="nonzero" d="M111.326,191.938 C120.545,201.158 135.517,201.158 144.737,191.938 L239.144,97.5313 C245.929,90.7458 247.921,80.6413 244.233,71.7907 C240.545,62.9401 231.989,57.1871 222.401,57.1871 L33.5875,57.2608 C24.0731,57.2608 15.4437,63.0137 11.7559,71.8644 C8.06815,80.715 10.1333,90.8195 16.845,97.605 L111.252,192.012 L111.326,191.938"/>
</g>

<g fill="none" stroke="#000000" stroke-opacity="1" stroke-width="13.7195" stroke-linecap="butt" stroke-linejoin="miter" stroke-miterlimit="4" transform="matrix(0.03125,0,0,0.03125,161,14)"
font-family="Inter" font-size="11" font-weight="700" font-style="normal" 
>
<path vector-effect="none" fill-rule="nonzero" d="M111.326,191.938 C120.545,201.158 135.517,201.158 144.737,191.938 L239.144,97.5313 C245.929,90.7458 247.921,80.6413 244.233,71.7907 C240.545,62.9401 231.989,57.1871 222.401,57.1871 L33.5875,57.2608 C24.0731,57.2608 15.4437,63.0137 11.7559,71.8644 C8.06815,80.715 10.1333,90.8195 16.845,97.605 L111.252,192.012 L111.326,191.938"/>
</g>

<g fill="#ffffff" fill-opacity="1" stroke="none" transform="matrix(1,0,0,1,135,6)"
font-family="Inter" font-size="11" font-weight="700" font-style="normal" 
>
</g>

<g fill="#ffffff" fill-opacity="1" stroke="#0070ba" stroke-opacity="1" stroke-width="1" stroke-linecap="square" stroke-linejoin="bevel" transform="matrix(1,0,0,1,0,0)"
font-family="Inter" font-size="11" font-weight="700" font-style="normal" 
>
</g>

<g fill="#0090f5" fill-opacity="1" stroke="#0070ba" stroke-opacity="1" stroke-width="1.2" stroke-linecap="square" stroke-linejoin="bevel" transform="matrix(1,0,0,1,56,6)"
font-family="Inter" font-size="11" font-weight="700" font-style="normal" 
>
<path vector-effect="none" fill-rule="evenodd" d="M0.5,3.5 C0.5,1.84315 1.84315,0.5 3.5,0.5 L71.5,0.5 C73.1569,0.5 74.5,1.84315 74.5,3.5 L74.5,20.5 C74.5,22.1569 73.1569,23.5 71.5,23.5 L3.5,23.5 C1.84315,23.5 0.5,22.1569 0.5,20.5 L0.5,3.5"/>
</g>

<g fill="#ffffff" fill-opacity="1" stroke="none" transform="matrix(1,0,0,1,56,6)"
font-family="Inter" font-size="11" font-weight="700" font-style="normal" 
>
<path vector-effect="none" fill-rule="nonzero" d="M10,9.39453 L10,8 L16.5703,8 L16.5703,9.39453 L14.1211,9.39453 L14.1211,16 L12.4492,16 L12.4492,9.39453 L10,9.39453 M17.6484,16 L17.6484,8 L19.3398,8 L19.3398,11.3008 L22.7734,11.3008 L22.7734,8 L24.4609,8 L24.4609,16 L22.7734,16 L22.7734,12.6953 L19.3398,12.6953 L19.3398,16 L17.6484,16 M32.543,8 L32.543,16 L31.082,16 L27.6016,10.9648 L27.543,10.9648 L27.543,16 L25.8516,16 L25.8516,8 L27.3359,8 L30.7891,13.0313 L30.8594,13.0313 L30.8594,8 L32.543,8 M33.9297,16 L33.9297,8 L35.6211,8 L35.6211,11.3008 L39.0547,11.3008 L39.0547,8 L40.7422,8 L40.7422,16 L39.0547,16 L39.0547,12.6953 L35.6211,12.6953 L35.6211,16 L33.9297,16 M42.1328,16 L42.1328,8 L45.3359,8 C45.9245,8 46.4154,8.08724 46.8086,8.26172 C47.2018,8.4362 47.4974,8.67773 47.6953,8.98633 C47.8932,9.29492 47.9922,9.64974 47.9922,10.0508 C47.9922,10.3633 47.9297,10.6374 47.8047,10.873 C47.6797,11.1087 47.5085,11.3014 47.291,11.4512 C47.0736,11.6009 46.8255,11.707 46.5469,11.7695 L46.5469,11.8477 C46.8516,11.8607 47.1374,11.9466 47.4043,12.1055 C47.6712,12.2643 47.888,12.4863 48.0547,12.7715 C48.2214,13.0566 48.3047,13.3958 48.3047,13.7891 C48.3047,14.2135 48.1999,14.5918 47.9902,14.9238 C47.7806,15.2559 47.4714,15.5182 47.0625,15.7109 C46.6536,15.9036 46.1497,16 45.5508,16 L42.1328,16 M43.8242,14.6172 L45.2031,14.6172 C45.6745,14.6172 46.0182,14.5267 46.2344,14.3457 C46.4505,14.1647 46.5586,13.9232 46.5586,13.6211 C46.5586,13.3997 46.5052,13.2044 46.3984,13.0352 C46.2917,12.8659 46.14,12.7331 45.9434,12.6367 C45.7467,12.5404 45.513,12.4922 45.2422,12.4922 L43.8242,12.4922 L43.8242,14.6172 M43.8242,11.3477 L45.0781,11.3477 C45.3099,11.3477 45.5163,11.3066 45.6973,11.2246 C45.8783,11.1426 46.0215,11.026 46.127,10.875 C46.2324,10.724 46.2852,10.543 46.2852,10.332 C46.2852,10.043 46.1829,9.8099 45.9785,9.63281 C45.7741,9.45573 45.4844,9.36719 45.1094,9.36719 L43.8242,9.36719 L43.8242,11.3477 M52.832,8 L52.832,16 L51.1406,16 L51.1406,9.60547 L51.0938,9.60547 L49.2617,10.7539 L49.2617,9.25391 L51.2422,8 L52.832,8"/>
</g>

<g fill="#ffffff" fill-opacity="1" stroke="none" transform="matrix(0.03125,0,0,0.03125,117,14)"
font-family="Inter" font-size="11" font-weight="700" font-style="normal" 
>
<path vector-effect="none" fill-rule="nonzero" d="M111.326,191.938 C120.545,201.158 135.517,201.158 144.737,191.938 L239.144,97.5313 C245.929,90.7458 247.921,80.6413 244.233,71.7907 C240.545,62.9401 231.989,57.1871 222.401,57.1871 L33.5875,57.2608 C24.0731,57.2608 15.4437,63.0137 11.7559,71.8644 C8.06815,80.715 10.1333,90.8195 16.845,97.605 L111.252,192.012 L111.326,191.938"/>
</g>

<g fill="none" stroke="#000000" stroke-opacity="1" stroke-width="13.7195" stroke-linecap="butt" stroke-linejoin="miter" stroke-miterlimit="4" transform="matrix(0.03125,0,0,0.03125,117,14)"
font-family="Inter" font-size="11" font-weight="700" font-style="normal" 
>
<path vector-effect="none" fill-rule="nonzero" d="M111.326,191.938 C120.545,201.158 135.517,201.158 144.737,191.938 L239.144,97.5313 C245.929,90.7458 247.921,80.6413 244.233,71.7907 C240.545,62.9401 231.989,57.1871 222.401,57.1871 L33.5875,57.2608 C24.0731,57.2608 15.4437,63.0137 11.7559,71.8644 C8.06815,80.715 10.1333,90.8195 16.845,97.605 L111.252,192.012 L111.326,191.938"/>
</g>

<g fill="#ffffff" fill-opacity="1" stroke="none" transform="matrix(1,0,0,1,56,6)"
font-family="Inter" font-size="11" font-weight="700" font-style="normal" 
>
</g>

<g fill="#ffffff" fill-opacity="1" stroke="#0070ba" stroke-opacity="1" stroke-width="1" stroke-linecap="square" stroke-linejoin="bevel" transform="matrix(1,0,0,1,0,0)"
font-family="Inter" font-size="11" font-weight="700" font-style="normal" 
>
</g>

<g fill="#ffffff" fill-opacity="1" stroke="#0070ba" stroke-opacity="1" stroke-width="1" stroke-linecap="square" stroke-linejoin="bevel" transform="matrix(1,0,0,1,0,0)"
font-family="Inter" font-size="11" font-weight="700" font-style="normal" 
>
</g>

<g fill="none" stroke="#000000" stroke-opacity="1" stroke-width="1" stroke-linecap="square" stroke-linejoin="bevel" transform="matrix(1,0,0,1,0,0)"
font-family=".AppleSystemUIFont" font-size="13" font-weight="400" font-style="normal" 
>
</g>
</g>
</svg>
