<?xml version="1.0" encoding="UTF-8" standalone="no"?>
<svg width="130.175mm" height="15.5222mm"
 viewBox="0 0 369 44"
 xmlns="http://www.w3.org/2000/svg" xmlns:xlink="http://www.w3.org/1999/xlink" version="1.2" baseProfile="tiny">
<title>Abstract block</title>
<desc>block_hubs_all_motors_port_set_motor_to_at_stop</desc>
<defs>
</defs>
<g fill="none" stroke="black" stroke-width="1" fill-rule="evenodd" stroke-linecap="square" stroke-linejoin="bevel" >

<g fill="none" stroke="#000000" stroke-opacity="1" stroke-width="1" stroke-linecap="square" stroke-linejoin="bevel" transform="matrix(1,0,0,1,0,0)"
font-family=".AppleSystemUIFont" font-size="13" font-weight="400" font-style="normal" 
>
</g>

<g fill="none" stroke="#000000" stroke-opacity="1" stroke-width="1" stroke-linecap="square" stroke-linejoin="bevel" transform="matrix(1,0,0,1,0,0)"
font-family=".AppleSystemUIFont" font-size="13" font-weight="400" font-style="normal" 
>
</g>

<g fill="#0090f5" fill-opacity="1" stroke="#0070ba" stroke-opacity="1" stroke-width="1.2" stroke-linecap="square" stroke-linejoin="bevel" transform="matrix(1,0,0,1,0,0)"
font-family=".AppleSystemUIFont" font-size="13" font-weight="400" font-style="normal" 
>
<path vector-effect="none" fill-rule="evenodd" d="M0.5,4.5 L1.04612,2.48112 L2.48112,1.04612 L4.5,0.5 L9.625,0.5 L10.416,0.976563 L11.1719,1.6875 L11.998,2.67969 L13,4 L13.7559,4.66016 L14.5469,5.15625 L15.4082,5.51172 L16.375,5.75 L17.4824,5.89453 L18.7656,5.96875 L20.2598,5.99609 L22,6 L23.7402,5.99609 L25.2344,5.96875 L26.5176,5.89453 L27.625,5.75 L28.5918,5.51172 L29.4531,5.15625 L30.2441,4.66016 L31,4 L32.002,2.67969 L32.8281,1.6875 L33.584,0.976563 L34.375,0.5 L364.5,0.5 L366.519,1.04612 L367.954,2.48112 L368.5,4.5 L368.5,31.5 L367.954,33.5189 L366.519,34.9539 L364.5,35.5 L34.375,35.5 L33.584,35.9766 L32.8281,36.6875 L32.002,37.6797 L31,39 L30.2441,39.6602 L29.4531,40.1563 L28.5918,40.5117 L27.625,40.75 L26.5176,40.8945 L25.2344,40.9688 L23.7402,40.9961 L22,41 L20.2598,40.9961 L18.7656,40.9688 L17.4824,40.8945 L16.375,40.75 L15.4082,40.5117 L14.5469,40.1563 L13.7559,39.6602 L13,39 L11.998,37.6797 L11.1719,36.6875 L10.416,35.9766 L9.625,35.5 L4.5,35.5 L2.48112,34.9539 L1.04612,33.5189 L0.5,31.5 L0.5,4.5"/>
</g>

<g fill="#ffffff" fill-opacity="1" stroke="none" transform="matrix(1,0,0,1,0,0)"
font-family="Inter" font-size="11" font-weight="700" font-style="normal" 
>
<path vector-effect="none" fill-rule="nonzero" d="M186.5,17.1641 L184.977,17.2578 C184.951,17.1276 184.895,17.0098 184.809,16.9043 C184.723,16.7988 184.61,16.7142 184.471,16.6504 C184.331,16.5866 184.165,16.5547 183.973,16.5547 C183.715,16.5547 183.497,16.6087 183.32,16.7168 C183.143,16.8249 183.055,16.9688 183.055,17.1484 C183.055,17.2917 183.112,17.4128 183.227,17.5117 C183.341,17.6107 183.538,17.6901 183.816,17.75 L184.902,17.9688 C185.486,18.0885 185.921,18.2813 186.207,18.5469 C186.493,18.8125 186.637,19.1615 186.637,19.5938 C186.637,19.987 186.521,20.332 186.291,20.6289 C186.061,20.9258 185.745,21.1569 185.346,21.3223 C184.946,21.4876 184.486,21.5703 183.965,21.5703 C183.171,21.5703 182.538,21.4043 182.068,21.0723 C181.598,20.7402 181.323,20.2878 181.242,19.7148 L182.879,19.6289 C182.928,19.8711 183.048,20.0553 183.238,20.1816 C183.428,20.3079 183.672,20.3711 183.969,20.3711 C184.26,20.3711 184.495,20.3145 184.674,20.2012 C184.852,20.0879 184.943,19.9414 184.945,19.7617 C184.943,19.6107 184.879,19.4863 184.754,19.3887 C184.629,19.291 184.436,19.2161 184.176,19.1641 L183.137,18.957 C182.551,18.8398 182.115,18.6367 181.83,18.3477 C181.545,18.0586 181.402,17.6901 181.402,17.2422 C181.402,16.8568 181.507,16.5247 181.717,16.2461 C181.926,15.9674 182.222,15.7526 182.604,15.6016 C182.985,15.4505 183.432,15.375 183.945,15.375 C184.703,15.375 185.3,15.5352 185.736,15.8555 C186.173,16.1758 186.427,16.612 186.5,17.1641 M190.414,21.5703 C189.797,21.5703 189.266,21.4447 188.822,21.1934 C188.378,20.9421 188.036,20.5853 187.797,20.123 C187.557,19.6608 187.438,19.1133 187.438,18.4805 C187.438,17.8633 187.557,17.3216 187.797,16.8555 C188.036,16.3893 188.374,16.026 188.811,15.7656 C189.247,15.5052 189.759,15.375 190.348,15.375 C190.743,15.375 191.113,15.4382 191.455,15.5645 C191.798,15.6908 192.097,15.8802 192.354,16.1328 C192.61,16.3854 192.81,16.7025 192.953,17.084 C193.096,17.4655 193.168,17.9115 193.168,18.4219 L193.168,18.8789 L188.102,18.8789 L188.102,17.8477 L191.602,17.8477 C191.602,17.6081 191.549,17.3958 191.445,17.2109 C191.341,17.026 191.197,16.8809 191.014,16.7754 C190.83,16.6699 190.617,16.6172 190.375,16.6172 C190.122,16.6172 189.899,16.6751 189.705,16.791 C189.511,16.9069 189.359,17.0618 189.25,17.2559 C189.141,17.4499 189.085,17.6654 189.082,17.9023 L189.082,18.8828 C189.082,19.1797 189.137,19.4362 189.248,19.6523 C189.359,19.8685 189.516,20.0352 189.719,20.1523 C189.922,20.2695 190.163,20.3281 190.441,20.3281 C190.626,20.3281 190.796,20.3021 190.949,20.25 C191.103,20.1979 191.234,20.1198 191.344,20.0156 C191.453,19.9115 191.536,19.7839 191.594,19.6328 L193.133,19.7344 C193.055,20.1042 192.895,20.4264 192.654,20.7012 C192.413,20.9759 192.104,21.1895 191.725,21.3418 C191.346,21.4941 190.909,21.5703 190.414,21.5703 M197.434,15.4531 L197.434,16.7031 L193.82,16.7031 L193.82,15.4531 L197.434,15.4531 M194.641,14.0156 L196.305,14.0156 L196.305,19.6094 C196.305,19.763 196.328,19.8822 196.375,19.9668 C196.422,20.0514 196.488,20.1107 196.572,20.1445 C196.657,20.1784 196.755,20.1953 196.867,20.1953 C196.945,20.1953 197.023,20.1882 197.102,20.1738 C197.18,20.1595 197.24,20.1484 197.281,20.1406 L197.543,21.3789 C197.46,21.4049 197.342,21.4355 197.191,21.4707 C197.04,21.5059 196.857,21.5273 196.641,21.5352 C196.24,21.5508 195.889,21.4974 195.588,21.375 C195.287,21.2526 195.053,21.0625 194.887,20.8047 C194.72,20.5469 194.638,20.2214 194.641,19.8281 L194.641,14.0156 M201.055,21.4531 L201.055,15.4531 L202.641,15.4531 L202.641,16.5117 L202.711,16.5117 C202.836,16.1602 203.044,15.8828 203.336,15.6797 C203.628,15.4766 203.977,15.375 204.383,15.375 C204.794,15.375 205.145,15.4772 205.434,15.6816 C205.723,15.8861 205.915,16.1628 206.012,16.5117 L206.074,16.5117 C206.197,16.168 206.419,15.8926 206.74,15.6855 C207.062,15.4785 207.443,15.375 207.883,15.375 C208.443,15.375 208.898,15.5527 209.248,15.9082 C209.598,16.2637 209.773,16.7669 209.773,17.418 L209.773,21.4531 L208.113,21.4531 L208.113,17.7461 C208.113,17.4128 208.025,17.1628 207.848,16.9961 C207.671,16.8294 207.449,16.7461 207.184,16.7461 C206.882,16.7461 206.646,16.8418 206.477,17.0332 C206.307,17.2246 206.223,17.4766 206.223,17.7891 L206.223,21.4531 L204.609,21.4531 L204.609,17.7109 C204.609,17.4167 204.525,17.1823 204.357,17.0078 C204.189,16.8333 203.969,16.7461 203.695,16.7461 C203.51,16.7461 203.344,16.7923 203.197,16.8848 C203.05,16.9772 202.934,17.1061 202.848,17.2715 C202.762,17.4368 202.719,17.6302 202.719,17.8516 L202.719,21.4531 L201.055,21.4531 M213.797,21.5703 C213.19,21.5703 212.666,21.4408 212.225,21.1816 C211.783,20.9225 211.443,20.5605 211.203,20.0957 C210.964,19.6309 210.844,19.0911 210.844,18.4766 C210.844,17.8568 210.964,17.3145 211.203,16.8496 C211.443,16.3848 211.783,16.0228 212.225,15.7637 C212.666,15.5046 213.19,15.375 213.797,15.375 C214.404,15.375 214.928,15.5046 215.369,15.7637 C215.811,16.0228 216.151,16.3848 216.391,16.8496 C216.63,17.3145 216.75,17.8568 216.75,18.4766 C216.75,19.0911 216.63,19.6309 216.391,20.0957 C216.151,20.5605 215.811,20.9225 215.369,21.1816 C214.928,21.4408 214.404,21.5703 213.797,21.5703 M213.805,20.2813 C214.081,20.2813 214.311,20.2025 214.496,20.0449 C214.681,19.8874 214.821,19.6719 214.916,19.3984 C215.011,19.125 215.059,18.8138 215.059,18.4648 C215.059,18.1159 215.011,17.8047 214.916,17.5313 C214.821,17.2578 214.681,17.0417 214.496,16.8828 C214.311,16.724 214.081,16.6445 213.805,16.6445 C213.526,16.6445 213.292,16.724 213.104,16.8828 C212.915,17.0417 212.773,17.2578 212.678,17.5313 C212.583,17.8047 212.535,18.1159 212.535,18.4648 C212.535,18.8138 212.583,19.125 212.678,19.3984 C212.773,19.6719 212.915,19.8874 213.104,20.0449 C213.292,20.2025 213.526,20.2813 213.805,20.2813 M221.027,15.4531 L221.027,16.7031 L217.414,16.7031 L217.414,15.4531 L221.027,15.4531 M218.234,14.0156 L219.898,14.0156 L219.898,19.6094 C219.898,19.763 219.922,19.8822 219.969,19.9668 C220.016,20.0514 220.081,20.1107 220.166,20.1445 C220.251,20.1784 220.349,20.1953 220.461,20.1953 C220.539,20.1953 220.617,20.1882 220.695,20.1738 C220.773,20.1595 220.833,20.1484 220.875,20.1406 L221.137,21.3789 C221.053,21.4049 220.936,21.4355 220.785,21.4707 C220.634,21.5059 220.451,21.5273 220.234,21.5352 C219.833,21.5508 219.482,21.4974 219.182,21.375 C218.881,21.2526 218.647,21.0625 218.48,20.8047 C218.314,20.5469 218.232,20.2214 218.234,19.8281 L218.234,14.0156 M224.75,21.5703 C224.143,21.5703 223.619,21.4408 223.178,21.1816 C222.736,20.9225 222.396,20.5605 222.156,20.0957 C221.917,19.6309 221.797,19.0911 221.797,18.4766 C221.797,17.8568 221.917,17.3145 222.156,16.8496 C222.396,16.3848 222.736,16.0228 223.178,15.7637 C223.619,15.5046 224.143,15.375 224.75,15.375 C225.357,15.375 225.881,15.5046 226.322,15.7637 C226.764,16.0228 227.104,16.3848 227.344,16.8496 C227.583,17.3145 227.703,17.8568 227.703,18.4766 C227.703,19.0911 227.583,19.6309 227.344,20.0957 C227.104,20.5605 226.764,20.9225 226.322,21.1816 C225.881,21.4408 225.357,21.5703 224.75,21.5703 M224.758,20.2813 C225.034,20.2813 225.264,20.2025 225.449,20.0449 C225.634,19.8874 225.774,19.6719 225.869,19.3984 C225.964,19.125 226.012,18.8138 226.012,18.4648 C226.012,18.1159 225.964,17.8047 225.869,17.5313 C225.774,17.2578 225.634,17.0417 225.449,16.8828 C225.264,16.724 225.034,16.6445 224.758,16.6445 C224.479,16.6445 224.245,16.724 224.057,16.8828 C223.868,17.0417 223.726,17.2578 223.631,17.5313 C223.536,17.8047 223.488,18.1159 223.488,18.4648 C223.488,18.8138 223.536,19.125 223.631,19.3984 C223.726,19.6719 223.868,19.8874 224.057,20.0449 C224.245,20.2025 224.479,20.2813 224.758,20.2813 M228.789,21.4531 L228.789,15.4531 L230.402,15.4531 L230.402,16.5 L230.465,16.5 C230.574,16.1276 230.758,15.8457 231.016,15.6543 C231.273,15.4629 231.57,15.3672 231.906,15.3672 C231.99,15.3672 232.079,15.3724 232.176,15.3828 C232.272,15.3932 232.357,15.4076 232.43,15.4258 L232.43,16.9023 C232.352,16.8789 232.243,16.8581 232.105,16.8398 C231.967,16.8216 231.841,16.8125 231.727,16.8125 C231.482,16.8125 231.264,16.8652 231.072,16.9707 C230.881,17.0762 230.73,17.2227 230.619,17.4102 C230.508,17.5977 230.453,17.8138 230.453,18.0586 L230.453,21.4531 L228.789,21.4531 M239.012,15.4531 L239.012,16.7031 L235.398,16.7031 L235.398,15.4531 L239.012,15.4531 M236.219,14.0156 L237.883,14.0156 L237.883,19.6094 C237.883,19.763 237.906,19.8822 237.953,19.9668 C238,20.0514 238.066,20.1107 238.15,20.1445 C238.235,20.1784 238.333,20.1953 238.445,20.1953 C238.523,20.1953 238.602,20.1882 238.68,20.1738 C238.758,20.1595 238.818,20.1484 238.859,20.1406 L239.121,21.3789 C239.038,21.4049 238.921,21.4355 238.77,21.4707 C238.618,21.5059 238.435,21.5273 238.219,21.5352 C237.818,21.5508 237.467,21.4974 237.166,21.375 C236.865,21.2526 236.632,21.0625 236.465,20.8047 C236.298,20.5469 236.216,20.2214 236.219,19.8281 L236.219,14.0156 M242.734,21.5703 C242.128,21.5703 241.604,21.4408 241.162,21.1816 C240.721,20.9225 240.38,20.5605 240.141,20.0957 C239.901,19.6309 239.781,19.0911 239.781,18.4766 C239.781,17.8568 239.901,17.3145 240.141,16.8496 C240.38,16.3848 240.721,16.0228 241.162,15.7637 C241.604,15.5046 242.128,15.375 242.734,15.375 C243.341,15.375 243.865,15.5046 244.307,15.7637 C244.748,16.0228 245.089,16.3848 245.328,16.8496 C245.568,17.3145 245.688,17.8568 245.688,18.4766 C245.688,19.0911 245.568,19.6309 245.328,20.0957 C245.089,20.5605 244.748,20.9225 244.307,21.1816 C243.865,21.4408 243.341,21.5703 242.734,21.5703 M242.742,20.2813 C243.018,20.2813 243.249,20.2025 243.434,20.0449 C243.618,19.8874 243.758,19.6719 243.854,19.3984 C243.949,19.125 243.996,18.8138 243.996,18.4648 C243.996,18.1159 243.949,17.8047 243.854,17.5313 C243.758,17.2578 243.618,17.0417 243.434,16.8828 C243.249,16.724 243.018,16.6445 242.742,16.6445 C242.464,16.6445 242.23,16.724 242.041,16.8828 C241.852,17.0417 241.71,17.2578 241.615,17.5313 C241.52,17.8047 241.473,18.1159 241.473,18.4648 C241.473,18.8138 241.52,19.125 241.615,19.3984 C241.71,19.6719 241.852,19.8874 242.041,20.0449 C242.23,20.2025 242.464,20.2813 242.742,20.2813 "/>
</g>

<g fill="#ffffff" fill-opacity="1" stroke="none" transform="matrix(1,0,0,1,0,0)"
font-family="Inter" font-size="11" font-weight="700" font-style="normal" 
>
<path vector-effect="none" fill-rule="nonzero" d="M321.766,20.6602 C321.383,20.6602 321.042,20.5931 320.742,20.459 C320.443,20.3249 320.206,20.1257 320.033,19.8613 C319.86,19.597 319.773,19.2669 319.773,18.8711 C319.773,18.5378 319.835,18.2578 319.957,18.0313 C320.079,17.8047 320.246,17.6224 320.457,17.4844 C320.668,17.3464 320.908,17.2422 321.178,17.1719 C321.447,17.1016 321.73,17.0521 322.027,17.0234 C322.376,16.987 322.658,16.9525 322.871,16.9199 C323.085,16.8874 323.24,16.8385 323.336,16.7734 C323.432,16.7083 323.48,16.612 323.48,16.4844 L323.48,16.4609 C323.48,16.2135 323.403,16.0221 323.248,15.8867 C323.093,15.7513 322.874,15.6836 322.59,15.6836 C322.29,15.6836 322.052,15.7493 321.875,15.8809 C321.698,16.0124 321.581,16.1771 321.523,16.375 L319.984,16.25 C320.063,15.8854 320.216,15.5697 320.445,15.3027 C320.674,15.0358 320.971,14.8301 321.334,14.6855 C321.697,14.541 322.118,14.4688 322.598,14.4688 C322.931,14.4688 323.251,14.5078 323.557,14.5859 C323.863,14.6641 324.135,14.7852 324.373,14.9492 C324.611,15.1133 324.799,15.3236 324.938,15.5801 C325.076,15.8366 325.145,16.1432 325.145,16.5 L325.145,20.5469 L323.566,20.5469 L323.566,19.7148 L323.52,19.7148 C323.423,19.9023 323.294,20.0671 323.133,20.209 C322.971,20.3509 322.777,20.4616 322.551,20.541 C322.324,20.6204 322.063,20.6602 321.766,20.6602 M322.242,19.5117 C322.487,19.5117 322.703,19.4629 322.891,19.3652 C323.078,19.2676 323.225,19.1354 323.332,18.9688 C323.439,18.8021 323.492,18.6133 323.492,18.4023 L323.492,17.7656 C323.44,17.7995 323.369,17.8301 323.279,17.8574 C323.189,17.8848 323.089,17.9095 322.977,17.9316 C322.865,17.9538 322.753,17.9733 322.641,17.9902 C322.529,18.0072 322.427,18.0221 322.336,18.0352 C322.141,18.0638 321.97,18.1094 321.824,18.1719 C321.678,18.2344 321.565,18.3184 321.484,18.4238 C321.404,18.5293 321.363,18.6602 321.363,18.8164 C321.363,19.043 321.446,19.2155 321.611,19.334 C321.777,19.4525 321.987,19.5117 322.242,19.5117 M329.621,14.5469 L329.621,15.7969 L326.008,15.7969 L326.008,14.5469 L329.621,14.5469 M326.828,13.1094 L328.492,13.1094 L328.492,18.7031 C328.492,18.8568 328.516,18.9759 328.563,19.0605 C328.609,19.1452 328.675,19.2044 328.76,19.2383 C328.844,19.2721 328.943,19.2891 329.055,19.2891 C329.133,19.2891 329.211,19.2819 329.289,19.2676 C329.367,19.2533 329.427,19.2422 329.469,19.2344 L329.73,20.4727 C329.647,20.4987 329.53,20.5293 329.379,20.5645 C329.228,20.5996 329.044,20.6211 328.828,20.6289 C328.427,20.6445 328.076,20.5911 327.775,20.4688 C327.475,20.3464 327.241,20.1563 327.074,19.8984 C326.908,19.6406 326.826,19.3151 326.828,18.9219 L326.828,13.1094 M338.234,16.2578 L336.711,16.3516 C336.685,16.2214 336.629,16.1035 336.543,15.998 C336.457,15.8926 336.344,15.8079 336.205,15.7441 C336.066,15.6803 335.9,15.6484 335.707,15.6484 C335.449,15.6484 335.232,15.7025 335.055,15.8105 C334.878,15.9186 334.789,16.0625 334.789,16.2422 C334.789,16.3854 334.846,16.5065 334.961,16.6055 C335.076,16.7044 335.272,16.7839 335.551,16.8438 L336.637,17.0625 C337.22,17.1823 337.655,17.375 337.941,17.6406 C338.228,17.9063 338.371,18.2552 338.371,18.6875 C338.371,19.0807 338.256,19.4258 338.025,19.7227 C337.795,20.0195 337.48,20.2507 337.08,20.416 C336.68,20.5814 336.22,20.6641 335.699,20.6641 C334.905,20.6641 334.273,20.498 333.803,20.166 C333.333,19.834 333.057,19.3815 332.977,18.8086 L334.613,18.7227 C334.663,18.9648 334.783,19.1491 334.973,19.2754 C335.163,19.4017 335.406,19.4648 335.703,19.4648 C335.995,19.4648 336.23,19.4082 336.408,19.2949 C336.587,19.1816 336.677,19.0352 336.68,18.8555 C336.677,18.7044 336.613,18.5801 336.488,18.4824 C336.363,18.3848 336.171,18.3099 335.91,18.2578 L334.871,18.0508 C334.285,17.9336 333.85,17.7305 333.564,17.4414 C333.279,17.1523 333.137,16.7839 333.137,16.3359 C333.137,15.9505 333.242,15.6185 333.451,15.3398 C333.661,15.0612 333.956,14.8464 334.338,14.6953 C334.719,14.5443 335.167,14.4688 335.68,14.4688 C336.438,14.4688 337.035,14.6289 337.471,14.9492 C337.907,15.2695 338.161,15.7057 338.234,16.2578 M342.605,14.5469 L342.605,15.7969 L338.992,15.7969 L338.992,14.5469 L342.605,14.5469 M339.813,13.1094 L341.477,13.1094 L341.477,18.7031 C341.477,18.8568 341.5,18.9759 341.547,19.0605 C341.594,19.1452 341.66,19.2044 341.744,19.2383 C341.829,19.2721 341.927,19.2891 342.039,19.2891 C342.117,19.2891 342.195,19.2819 342.273,19.2676 C342.352,19.2533 342.411,19.2422 342.453,19.2344 L342.715,20.4727 C342.632,20.4987 342.514,20.5293 342.363,20.5645 C342.212,20.5996 342.029,20.6211 341.813,20.6289 C341.411,20.6445 341.061,20.5911 340.76,20.4688 C340.459,20.3464 340.225,20.1563 340.059,19.8984 C339.892,19.6406 339.81,19.3151 339.813,18.9219 L339.813,13.1094 M346.328,20.6641 C345.721,20.6641 345.197,20.5345 344.756,20.2754 C344.314,20.0163 343.974,19.6543 343.734,19.1895 C343.495,18.7246 343.375,18.1849 343.375,17.5703 C343.375,16.9505 343.495,16.4082 343.734,15.9434 C343.974,15.4785 344.314,15.1165 344.756,14.8574 C345.197,14.5983 345.721,14.4688 346.328,14.4688 C346.935,14.4688 347.459,14.5983 347.9,14.8574 C348.342,15.1165 348.682,15.4785 348.922,15.9434 C349.161,16.4082 349.281,16.9505 349.281,17.5703 C349.281,18.1849 349.161,18.7246 348.922,19.1895 C348.682,19.6543 348.342,20.0163 347.9,20.2754 C347.459,20.5345 346.935,20.6641 346.328,20.6641 M346.336,19.375 C346.612,19.375 346.842,19.2962 347.027,19.1387 C347.212,18.9811 347.352,18.7656 347.447,18.4922 C347.542,18.2188 347.59,17.9076 347.59,17.5586 C347.59,17.2096 347.542,16.8984 347.447,16.625 C347.352,16.3516 347.212,16.1354 347.027,15.9766 C346.842,15.8177 346.612,15.7383 346.336,15.7383 C346.057,15.7383 345.824,15.8177 345.635,15.9766 C345.446,16.1354 345.304,16.3516 345.209,16.625 C345.114,16.8984 345.066,17.2096 345.066,17.5586 C345.066,17.9076 345.114,18.2188 345.209,18.4922 C345.304,18.7656 345.446,18.9811 345.635,19.1387 C345.824,19.2962 346.057,19.375 346.336,19.375 M350.367,22.7969 L350.367,14.5469 L352.008,14.5469 L352.008,15.5547 L352.082,15.5547 C352.155,15.3932 352.261,15.2285 352.4,15.0605 C352.54,14.8926 352.722,14.752 352.947,14.6387 C353.173,14.5254 353.453,14.4688 353.789,14.4688 C354.227,14.4688 354.63,14.5827 355,14.8105 C355.37,15.0384 355.665,15.3809 355.887,15.8379 C356.108,16.2949 356.219,16.8672 356.219,17.5547 C356.219,18.224 356.111,18.7884 355.896,19.248 C355.682,19.7077 355.39,20.0553 355.021,20.291 C354.653,20.5267 354.241,20.6445 353.785,20.6445 C353.462,20.6445 353.188,20.5911 352.963,20.4844 C352.738,20.3776 352.553,20.2428 352.41,20.0801 C352.267,19.9173 352.158,19.7526 352.082,19.5859 L352.031,19.5859 L352.031,22.7969 L350.367,22.7969 M351.996,17.5469 C351.996,17.9036 352.046,18.2148 352.145,18.4805 C352.243,18.7461 352.387,18.9525 352.574,19.0996 C352.762,19.2467 352.99,19.3203 353.258,19.3203 C353.529,19.3203 353.758,19.2454 353.945,19.0957 C354.133,18.946 354.275,18.7376 354.373,18.4707 C354.471,18.2038 354.52,17.8958 354.52,17.5469 C354.52,17.2005 354.471,16.8958 354.375,16.6328 C354.279,16.3698 354.137,16.1641 353.949,16.0156 C353.762,15.8672 353.531,15.793 353.258,15.793 C352.987,15.793 352.758,15.8646 352.572,16.0078 C352.386,16.151 352.243,16.3542 352.145,16.6172 C352.046,16.8802 351.996,17.1901 351.996,17.5469 "/>
</g>

<g fill="#ffffff" fill-opacity="1" stroke="none" transform="matrix(0.0285,0,0,0.0285,11.2928,9.44754)"
font-family="Inter" font-size="11" font-weight="700" font-style="normal" 
>
<path vector-effect="none" fill-rule="nonzero" d="M410.778,59.991 C376.729,59.991 346.629,75.6235 326.182,99.684 C216.768,129.689 131.433,215.271 101.927,324.891 C79.5232,345.494 65.3275,374.762 65.54,407.6 C65.7463,439.573 79.3407,468.172 100.975,488.421 C130.228,601.34 218.744,689.335 331.859,718.096 C331.956,718.125 331.989,718.313 332.085,718.338 C352.242,738.376 380.064,750.708 410.778,750.708 C441.492,750.708 469.314,738.376 489.47,718.338 C489.549,718.262 489.618,718.17 489.696,718.096 C604.323,688.948 693.738,598.994 721.758,483.921 C742.939,463.42 756.216,434.907 756.015,403.1 C755.801,370.079 741.086,340.899 718.209,320.633 C687.622,213.077 603.338,129.291 495.373,99.684 C474.926,75.6235 444.827,59.991 410.778,59.991 M410.778,91.8938 C455.052,91.8938 490.89,127.731 490.89,172.006 C490.89,216.28 455.052,252.102 410.778,252.102 C366.503,252.102 330.666,216.28 330.666,172.006 C330.666,127.731 366.503,91.8938 410.778,91.8938 M177.071,325.601 C221.346,325.601 257.183,361.438 257.183,405.713 C257.183,449.987 221.346,485.808 177.071,485.808 C132.796,485.808 96.7332,449.987 96.7332,405.713 C96.7332,361.438 132.796,325.601 177.071,325.601 M644.485,325.601 C688.763,325.601 724.822,361.438 724.822,405.713 C724.822,449.987 688.763,485.808 644.485,485.808 C600.21,485.808 564.373,449.987 564.373,405.713 C564.373,361.438 600.21,325.601 644.485,325.601 M396.601,335.762 L424.955,335.762 C431.754,335.762 437.245,342.538 437.245,350.891 L437.245,381.6 L467.971,381.6 C476.323,381.6 483.083,387.091 483.083,393.89 L483.083,422.245 C483.083,429.044 476.323,434.535 467.971,434.535 L437.245,434.535 L437.245,465.26 C437.245,473.612 431.754,480.373 424.955,480.373 L396.601,480.373 C389.801,480.373 384.31,473.613 384.31,465.26 L384.31,434.535 L353.585,434.535 C345.233,434.535 338.472,429.044 338.472,422.245 L338.472,393.89 C338.472,387.091 345.232,381.6 353.585,381.6 L384.31,381.6 L384.31,350.891 C384.31,342.539 389.801,335.762 396.601,335.762 M410.778,559.307 C455.052,559.307 490.89,595.371 490.89,639.645 C490.89,683.918 455.052,719.757 410.778,719.757 C366.503,719.757 330.666,683.918 330.666,639.645 C330.666,595.371 366.503,559.307 410.778,559.307 "/>
</g>

<g fill="none" stroke="#000000" stroke-opacity="1" stroke-width="22.7975" stroke-linecap="round" stroke-linejoin="round" transform="matrix(0.0285,0,0,0.0285,11.2928,9.44754)"
font-family="Inter" font-size="11" font-weight="700" font-style="normal" 
>
<path vector-effect="none" fill-rule="nonzero" d="M410.778,59.991 C376.729,59.991 346.629,75.6235 326.182,99.684 C216.768,129.689 131.433,215.271 101.927,324.891 C79.5232,345.494 65.3275,374.762 65.54,407.6 C65.7463,439.573 79.3407,468.172 100.975,488.421 C130.228,601.34 218.744,689.335 331.859,718.096 C331.956,718.125 331.989,718.313 332.085,718.338 C352.242,738.376 380.064,750.708 410.778,750.708 C441.492,750.708 469.314,738.376 489.47,718.338 C489.549,718.262 489.618,718.17 489.696,718.096 C604.323,688.948 693.738,598.994 721.758,483.921 C742.939,463.42 756.216,434.907 756.015,403.1 C755.801,370.079 741.086,340.899 718.209,320.633 C687.622,213.077 603.338,129.291 495.373,99.684 C474.926,75.6235 444.827,59.991 410.778,59.991 M410.778,91.8938 C455.052,91.8938 490.89,127.731 490.89,172.006 C490.89,216.28 455.052,252.102 410.778,252.102 C366.503,252.102 330.666,216.28 330.666,172.006 C330.666,127.731 366.503,91.8938 410.778,91.8938 M177.071,325.601 C221.346,325.601 257.183,361.438 257.183,405.713 C257.183,449.987 221.346,485.808 177.071,485.808 C132.796,485.808 96.7332,449.987 96.7332,405.713 C96.7332,361.438 132.796,325.601 177.071,325.601 M644.485,325.601 C688.763,325.601 724.822,361.438 724.822,405.713 C724.822,449.987 688.763,485.808 644.485,485.808 C600.21,485.808 564.373,449.987 564.373,405.713 C564.373,361.438 600.21,325.601 644.485,325.601 M396.601,335.762 L424.955,335.762 C431.754,335.762 437.245,342.538 437.245,350.891 L437.245,381.6 L467.971,381.6 C476.323,381.6 483.083,387.091 483.083,393.89 L483.083,422.245 C483.083,429.044 476.323,434.535 467.971,434.535 L437.245,434.535 L437.245,465.26 C437.245,473.612 431.754,480.373 424.955,480.373 L396.601,480.373 C389.801,480.373 384.31,473.613 384.31,465.26 L384.31,434.535 L353.585,434.535 C345.233,434.535 338.472,429.044 338.472,422.245 L338.472,393.89 C338.472,387.091 345.232,381.6 353.585,381.6 L384.31,381.6 L384.31,350.891 C384.31,342.539 389.801,335.762 396.601,335.762 M410.778,559.307 C455.052,559.307 490.89,595.371 490.89,639.645 C490.89,683.918 455.052,719.757 410.778,719.757 C366.503,719.757 330.666,683.918 330.666,639.645 C330.666,595.371 366.503,559.307 410.778,559.307 "/>
</g>

<g fill="#000000" fill-opacity="1" stroke="none" transform="matrix(0.0285,0,0,0.0285,11.2928,9.44754)"
font-family="Inter" font-size="11" font-weight="700" font-style="normal" 
>
<path vector-effect="none" fill-rule="evenodd" d="M394.961,355.661 C394.961,347.613 401.485,341.088 409.533,341.088 C417.582,341.088 424.106,347.613 424.106,355.661 L424.106,457.48 C424.106,465.528 417.582,472.053 409.533,472.053 C401.485,472.053 394.961,465.528 394.961,457.48 L394.961,355.661"/>
</g>

<g fill="none" stroke="#000000" stroke-opacity="1" stroke-width="20" stroke-linecap="round" stroke-linejoin="round" transform="matrix(0.0285,0,0,0.0285,11.2928,9.44754)"
font-family="Inter" font-size="11" font-weight="700" font-style="normal" 
>
<path vector-effect="none" fill-rule="evenodd" d="M394.961,355.661 C394.961,347.613 401.485,341.088 409.533,341.088 C417.582,341.088 424.106,347.613 424.106,355.661 L424.106,457.48 C424.106,465.528 417.582,472.053 409.533,472.053 C401.485,472.053 394.961,465.528 394.961,457.48 L394.961,355.661"/>
</g>

<g fill="#000000" fill-opacity="1" stroke="none" transform="matrix(0,0.0285,-0.0285,0,11.2928,9.44754)"
font-family="Inter" font-size="11" font-weight="700" font-style="normal" 
>
<path vector-effect="none" fill-rule="evenodd" d="M394.152,-461.016 C394.152,-469.064 400.676,-475.588 408.724,-475.588 C416.773,-475.588 423.297,-469.064 423.297,-461.016 L423.297,-359.196 C423.297,-351.148 416.773,-344.624 408.724,-344.624 C400.676,-344.624 394.152,-351.148 394.152,-359.196 L394.152,-461.016"/>
</g>

<g fill="none" stroke="#000000" stroke-opacity="1" stroke-width="20" stroke-linecap="round" stroke-linejoin="round" transform="matrix(0,0.0285,-0.0285,0,11.2928,9.44754)"
font-family="Inter" font-size="11" font-weight="700" font-style="normal" 
>
<path vector-effect="none" fill-rule="evenodd" d="M394.152,-461.016 C394.152,-469.064 400.676,-475.588 408.724,-475.588 C416.773,-475.588 423.297,-469.064 423.297,-461.016 L423.297,-359.196 C423.297,-351.148 416.773,-344.624 408.724,-344.624 C400.676,-344.624 394.152,-351.148 394.152,-359.196 L394.152,-461.016"/>
</g>

<g fill="#ffffff" fill-opacity="1" stroke="none" transform="matrix(1,0,0,1,0,0)"
font-family="Inter" font-size="11" font-weight="700" font-style="normal" 
>
</g>

<g fill="#ffffff" fill-opacity="1" stroke="#0070ba" stroke-opacity="1" stroke-width="1" stroke-linecap="square" stroke-linejoin="bevel" transform="matrix(1,0,0,1,0,0)"
font-family="Inter" font-size="11" font-weight="700" font-style="normal" 
>
<polyline fill="none" vector-effect="none" points="45,11 45,31 " />
</g>

<g fill="#ffffff" fill-opacity="1" stroke="#0070ba" stroke-opacity="1" stroke-width="1" stroke-linecap="square" stroke-linejoin="bevel" transform="matrix(1,0,0,1,0,0)"
font-family="Inter" font-size="11" font-weight="700" font-style="normal" 
>
</g>

<g fill="#ffffff" fill-opacity="1" stroke="#0070ba" stroke-opacity="1" stroke-width="1" stroke-linecap="square" stroke-linejoin="bevel" transform="matrix(1,0,0,1,0,0)"
font-family="Inter" font-size="11" font-weight="700" font-style="normal" 
>
</g>

<g fill="#0070ba" fill-opacity="1" stroke="#0070ba" stroke-opacity="1" stroke-width="1.2" stroke-linecap="square" stroke-linejoin="bevel" transform="matrix(1,0,0,1,135,6)"
font-family="Inter" font-size="11" font-weight="700" font-style="normal" 
>
<path vector-effect="none" fill-rule="evenodd" d="M0.5,12 C0.5,5.64873 5.87258,0.5 12.5,0.5 L27.5,0.5 C34.1274,0.5 39.5,5.64873 39.5,12 C39.5,18.3513 34.1274,23.5 27.5,23.5 L12.5,23.5 C5.87258,23.5 0.5,18.3513 0.5,12 "/>
</g>

<g fill="#ffffff" fill-opacity="1" stroke="none" transform="matrix(1,0,0,1,135,6)"
font-family="Inter" font-size="11" font-weight="700" font-style="normal" 
>
<path vector-effect="none" fill-rule="nonzero" d="M11.8242,16 L10.0117,16 L12.7734,8 L14.9531,8 L17.7109,16 L15.8984,16 L13.8945,9.82813 L13.832,9.82813 L11.8242,16 M11.7109,12.8555 L15.9922,12.8555 L15.9922,14.1758 L11.7109,14.1758 L11.7109,12.8555"/>
</g>

<g fill="#ffffff" fill-opacity="1" stroke="none" transform="matrix(0.03125,0,0,0.03125,161,14)"
font-family="Inter" font-size="11" font-weight="700" font-style="normal" 
>
<path vector-effect="none" fill-rule="nonzero" d="M111.326,191.938 C120.545,201.158 135.517,201.158 144.737,191.938 L239.144,97.5313 C245.929,90.7458 247.921,80.6413 244.233,71.7907 C240.545,62.9401 231.989,57.1871 222.401,57.1871 L33.5875,57.2608 C24.0731,57.2608 15.4437,63.0137 11.7559,71.8644 C8.06815,80.715 10.1333,90.8195 16.845,97.605 L111.252,192.012 L111.326,191.938"/>
</g>

<g fill="none" stroke="#000000" stroke-opacity="1" stroke-width="13.7195" stroke-linecap="butt" stroke-linejoin="miter" stroke-miterlimit="4" transform="matrix(0.03125,0,0,0.03125,161,14)"
font-family="Inter" font-size="11" font-weight="700" font-style="normal" 
>
<path vector-effect="none" fill-rule="nonzero" d="M111.326,191.938 C120.545,201.158 135.517,201.158 144.737,191.938 L239.144,97.5313 C245.929,90.7458 247.921,80.6413 244.233,71.7907 C240.545,62.9401 231.989,57.1871 222.401,57.1871 L33.5875,57.2608 C24.0731,57.2608 15.4437,63.0137 11.7559,71.8644 C8.06815,80.715 10.1333,90.8195 16.845,97.605 L111.252,192.012 L111.326,191.938"/>
</g>

<g fill="#ffffff" fill-opacity="1" stroke="none" transform="matrix(1,0,0,1,135,6)"
font-family="Inter" font-size="11" font-weight="700" font-style="normal" 
>
</g>

<g fill="#ffffff" fill-opacity="1" stroke="#0070ba" stroke-opacity="1" stroke-width="1" stroke-linecap="square" stroke-linejoin="bevel" transform="matrix(1,0,0,1,0,0)"
font-family="Inter" font-size="11" font-weight="700" font-style="normal" 
>
</g>

<g fill="#0090f5" fill-opacity="1" stroke="#0070ba" stroke-opacity="1" stroke-width="1.2" stroke-linecap="square" stroke-linejoin="bevel" transform="matrix(1,0,0,1,252,6)"
font-family="Inter" font-size="11" font-weight="700" font-style="normal" 
>
<path vector-effect="none" fill-rule="evenodd" d="M0.5,3.5 C0.5,1.84315 1.84315,0.5 3.5,0.5 L58.5,0.5 C60.1569,0.5 61.5,1.84315 61.5,3.5 L61.5,20.5 C61.5,22.1569 60.1569,23.5 58.5,23.5 L3.5,23.5 C1.84315,23.5 0.5,22.1569 0.5,20.5 L0.5,3.5"/>
</g>

<g fill="#ffffff" fill-opacity="1" stroke="none" transform="matrix(1,0,0,1,252,6)"
font-family="Inter" font-size="11" font-weight="700" font-style="normal" 
>
<path vector-effect="none" fill-rule="nonzero" d="M10.0078,15.9063 L10.0078,7.90625 L11.6719,7.90625 L11.6719,10.9141 L11.7227,10.9141 C11.7956,10.7526 11.9017,10.5879 12.041,10.4199 C12.1803,10.252 12.3626,10.1113 12.5879,9.99805 C12.8132,9.88477 13.0938,9.82813 13.4297,9.82813 C13.8672,9.82813 14.2708,9.94206 14.6406,10.1699 C15.0104,10.3978 15.306,10.7402 15.5273,11.1973 C15.7487,11.6543 15.8594,12.2266 15.8594,12.9141 C15.8594,13.5833 15.752,14.1478 15.5371,14.6074 C15.3223,15.0671 15.0306,15.4147 14.6621,15.6504 C14.2936,15.8861 13.8815,16.0039 13.4258,16.0039 C13.1029,16.0039 12.8288,15.9505 12.6035,15.8438 C12.3783,15.737 12.194,15.6022 12.0508,15.4395 C11.9076,15.2767 11.7982,15.112 11.7227,14.9453 L11.6484,14.9453 L11.6484,15.9063 L10.0078,15.9063 M11.6367,12.9063 C11.6367,13.263 11.6862,13.5742 11.7852,13.8398 C11.8841,14.1055 12.0273,14.3118 12.2148,14.459 C12.4023,14.6061 12.6302,14.6797 12.8984,14.6797 C13.1693,14.6797 13.3984,14.6048 13.5859,14.4551 C13.7734,14.3053 13.916,14.097 14.0137,13.8301 C14.1113,13.5632 14.1602,13.2552 14.1602,12.9063 C14.1602,12.5599 14.112,12.2552 14.0156,11.9922 C13.9193,11.7292 13.7773,11.5234 13.5898,11.375 C13.4023,11.2266 13.1719,11.1523 12.8984,11.1523 C12.6276,11.1523 12.3991,11.224 12.2129,11.3672 C12.0267,11.5104 11.8841,11.7135 11.7852,11.9766 C11.6862,12.2396 11.6367,12.5495 11.6367,12.9063 M16.9609,15.9063 L16.9609,9.90625 L18.5742,9.90625 L18.5742,10.9531 L18.6367,10.9531 C18.7461,10.5807 18.9297,10.2988 19.1875,10.1074 C19.4453,9.91602 19.7422,9.82031 20.0781,9.82031 C20.1615,9.82031 20.2513,9.82552 20.3477,9.83594 C20.444,9.84635 20.5286,9.86068 20.6016,9.87891 L20.6016,11.3555 C20.5234,11.332 20.4154,11.3112 20.2773,11.293 C20.1393,11.2747 20.013,11.2656 19.8984,11.2656 C19.6536,11.2656 19.4355,11.3184 19.2441,11.4238 C19.0527,11.5293 18.9017,11.6758 18.791,11.8633 C18.6803,12.0508 18.625,12.2669 18.625,12.5117 L18.625,15.9063 L16.9609,15.9063 M22.9844,16.0195 C22.6016,16.0195 22.2604,15.9525 21.9609,15.8184 C21.6615,15.6842 21.4251,15.485 21.252,15.2207 C21.0788,14.9564 20.9922,14.6263 20.9922,14.2305 C20.9922,13.8971 21.0534,13.6172 21.1758,13.3906 C21.2982,13.1641 21.4648,12.9818 21.6758,12.8438 C21.8867,12.7057 22.127,12.6016 22.3965,12.5313 C22.666,12.4609 22.9492,12.4115 23.2461,12.3828 C23.5951,12.3464 23.8763,12.3118 24.0898,12.2793 C24.3034,12.2467 24.4583,12.1979 24.5547,12.1328 C24.651,12.0677 24.6992,11.9714 24.6992,11.8438 L24.6992,11.8203 C24.6992,11.5729 24.6217,11.3815 24.4668,11.2461 C24.3118,11.1107 24.0924,11.043 23.8086,11.043 C23.5091,11.043 23.2708,11.1087 23.0938,11.2402 C22.9167,11.3717 22.7995,11.5365 22.7422,11.7344 L21.2031,11.6094 C21.2813,11.2448 21.4349,10.929 21.6641,10.6621 C21.8932,10.3952 22.1895,10.1895 22.5527,10.0449 C22.916,9.90039 23.3372,9.82813 23.8164,9.82813 C24.1497,9.82813 24.4694,9.86719 24.7754,9.94531 C25.0814,10.0234 25.3535,10.1445 25.5918,10.3086 C25.8301,10.4727 26.0182,10.6829 26.1563,10.9395 C26.2943,11.196 26.3633,11.5026 26.3633,11.8594 L26.3633,15.9063 L24.7852,15.9063 L24.7852,15.0742 L24.7383,15.0742 C24.6419,15.2617 24.513,15.4264 24.3516,15.5684 C24.1901,15.7103 23.9961,15.821 23.7695,15.9004 C23.543,15.9798 23.2813,16.0195 22.9844,16.0195 M23.4609,14.8711 C23.7057,14.8711 23.9219,14.8223 24.1094,14.7246 C24.2969,14.627 24.444,14.4948 24.5508,14.3281 C24.6576,14.1615 24.7109,13.9727 24.7109,13.7617 L24.7109,13.125 C24.6589,13.1589 24.5879,13.1895 24.498,13.2168 C24.4082,13.2441 24.3073,13.2689 24.1953,13.291 C24.0833,13.3132 23.9714,13.3327 23.8594,13.3496 C23.7474,13.3665 23.6458,13.3815 23.5547,13.3945 C23.3594,13.4232 23.1888,13.4688 23.043,13.5313 C22.8971,13.5938 22.7839,13.6777 22.7031,13.7832 C22.6224,13.8887 22.582,14.0195 22.582,14.1758 C22.582,14.4023 22.6647,14.5749 22.8301,14.6934 C22.9954,14.8118 23.2057,14.8711 23.4609,14.8711 M29.1563,14.1797 L29.1602,12.1836 L29.4023,12.1836 L31.3242,9.90625 L33.2344,9.90625 L30.6523,12.9219 L30.2578,12.9219 L29.1563,14.1797 M27.6484,15.9063 L27.6484,7.90625 L29.3125,7.90625 L29.3125,15.9063 L27.6484,15.9063 M31.3984,15.9063 L29.6328,13.293 L30.7422,12.1172 L33.3477,15.9063 L31.3984,15.9063 M36.5234,16.0234 C35.9063,16.0234 35.3757,15.8978 34.9316,15.6465 C34.4876,15.3952 34.1458,15.0384 33.9063,14.5762 C33.6667,14.1139 33.5469,13.5664 33.5469,12.9336 C33.5469,12.3164 33.6667,11.7747 33.9063,11.3086 C34.1458,10.8424 34.4837,10.4792 34.9199,10.2188 C35.3561,9.95833 35.8685,9.82813 36.457,9.82813 C36.8529,9.82813 37.222,9.89128 37.5645,10.0176 C37.9069,10.1439 38.2064,10.3333 38.4629,10.5859 C38.7194,10.8385 38.9193,11.1556 39.0625,11.5371 C39.2057,11.9186 39.2773,12.3646 39.2773,12.875 L39.2773,13.332 L34.2109,13.332 L34.2109,12.3008 L37.7109,12.3008 C37.7109,12.0612 37.6589,11.849 37.5547,11.6641 C37.4505,11.4792 37.3066,11.334 37.123,11.2285 C36.9395,11.123 36.7266,11.0703 36.4844,11.0703 C36.2318,11.0703 36.0085,11.1283 35.8145,11.2441 C35.6204,11.36 35.4688,11.515 35.3594,11.709 C35.25,11.903 35.194,12.1185 35.1914,12.3555 L35.1914,13.3359 C35.1914,13.6328 35.2467,13.8893 35.3574,14.1055 C35.4681,14.3216 35.625,14.4883 35.8281,14.6055 C36.0313,14.7227 36.2721,14.7813 36.5508,14.7813 C36.7357,14.7813 36.9049,14.7552 37.0586,14.7031 C37.2122,14.651 37.3438,14.5729 37.4531,14.4688 C37.5625,14.3646 37.6458,14.237 37.7031,14.0859 L39.2422,14.1875 C39.1641,14.5573 39.0046,14.8796 38.7637,15.1543 C38.5228,15.429 38.2129,15.6426 37.834,15.7949 C37.4551,15.9473 37.0182,16.0234 36.5234,16.0234 "/>
</g>

<g fill="#ffffff" fill-opacity="1" stroke="none" transform="matrix(0.03125,0,0,0.03125,300,14)"
font-family="Inter" font-size="11" font-weight="700" font-style="normal" 
>
<path vector-effect="none" fill-rule="nonzero" d="M111.326,191.938 C120.545,201.158 135.517,201.158 144.737,191.938 L239.144,97.5313 C245.929,90.7458 247.921,80.6413 244.233,71.7907 C240.545,62.9401 231.989,57.1871 222.401,57.1871 L33.5875,57.2608 C24.0731,57.2608 15.4437,63.0137 11.7559,71.8644 C8.06815,80.715 10.1333,90.8195 16.845,97.605 L111.252,192.012 L111.326,191.938"/>
</g>

<g fill="none" stroke="#000000" stroke-opacity="1" stroke-width="13.7195" stroke-linecap="butt" stroke-linejoin="miter" stroke-miterlimit="4" transform="matrix(0.03125,0,0,0.03125,300,14)"
font-family="Inter" font-size="11" font-weight="700" font-style="normal" 
>
<path vector-effect="none" fill-rule="nonzero" d="M111.326,191.938 C120.545,201.158 135.517,201.158 144.737,191.938 L239.144,97.5313 C245.929,90.7458 247.921,80.6413 244.233,71.7907 C240.545,62.9401 231.989,57.1871 222.401,57.1871 L33.5875,57.2608 C24.0731,57.2608 15.4437,63.0137 11.7559,71.8644 C8.06815,80.715 10.1333,90.8195 16.845,97.605 L111.252,192.012 L111.326,191.938"/>
</g>

<g fill="#ffffff" fill-opacity="1" stroke="none" transform="matrix(1,0,0,1,252,6)"
font-family="Inter" font-size="11" font-weight="700" font-style="normal" 
>
</g>

<g fill="#ffffff" fill-opacity="1" stroke="#0070ba" stroke-opacity="1" stroke-width="1" stroke-linecap="square" stroke-linejoin="bevel" transform="matrix(1,0,0,1,0,0)"
font-family="Inter" font-size="11" font-weight="700" font-style="normal" 
>
</g>

<g fill="#ffffff" fill-opacity="1" stroke="#0070ba" stroke-opacity="1" stroke-width="1" stroke-linecap="square" stroke-linejoin="bevel" transform="matrix(1,0,0,1,0,0)"
font-family="Inter" font-size="11" font-weight="700" font-style="normal" 
>
</g>

<g fill="#0090f5" fill-opacity="1" stroke="#0070ba" stroke-opacity="1" stroke-width="1.2" stroke-linecap="square" stroke-linejoin="bevel" transform="matrix(1,0,0,1,56,6)"
font-family="Inter" font-size="11" font-weight="700" font-style="normal" 
>
<path vector-effect="none" fill-rule="evenodd" d="M0.5,3.5 C0.5,1.84315 1.84315,0.5 3.5,0.5 L71.5,0.5 C73.1569,0.5 74.5,1.84315 74.5,3.5 L74.5,20.5 C74.5,22.1569 73.1569,23.5 71.5,23.5 L3.5,23.5 C1.84315,23.5 0.5,22.1569 0.5,20.5 L0.5,3.5"/>
</g>

<g fill="#ffffff" fill-opacity="1" stroke="none" transform="matrix(1,0,0,1,56,6)"
font-family="Inter" font-size="11" font-weight="700" font-style="normal" 
>
<path vector-effect="none" fill-rule="nonzero" d="M10,9.39453 L10,8 L16.5703,8 L16.5703,9.39453 L14.1211,9.39453 L14.1211,16 L12.4492,16 L12.4492,9.39453 L10,9.39453 M17.6484,16 L17.6484,8 L19.3398,8 L19.3398,11.3008 L22.7734,11.3008 L22.7734,8 L24.4609,8 L24.4609,16 L22.7734,16 L22.7734,12.6953 L19.3398,12.6953 L19.3398,16 L17.6484,16 M32.543,8 L32.543,16 L31.082,16 L27.6016,10.9648 L27.543,10.9648 L27.543,16 L25.8516,16 L25.8516,8 L27.3359,8 L30.7891,13.0313 L30.8594,13.0313 L30.8594,8 L32.543,8 M33.9297,16 L33.9297,8 L35.6211,8 L35.6211,11.3008 L39.0547,11.3008 L39.0547,8 L40.7422,8 L40.7422,16 L39.0547,16 L39.0547,12.6953 L35.6211,12.6953 L35.6211,16 L33.9297,16 M42.1328,16 L42.1328,8 L45.3359,8 C45.9245,8 46.4154,8.08724 46.8086,8.26172 C47.2018,8.4362 47.4974,8.67773 47.6953,8.98633 C47.8932,9.29492 47.9922,9.64974 47.9922,10.0508 C47.9922,10.3633 47.9297,10.6374 47.8047,10.873 C47.6797,11.1087 47.5085,11.3014 47.291,11.4512 C47.0736,11.6009 46.8255,11.707 46.5469,11.7695 L46.5469,11.8477 C46.8516,11.8607 47.1374,11.9466 47.4043,12.1055 C47.6712,12.2643 47.888,12.4863 48.0547,12.7715 C48.2214,13.0566 48.3047,13.3958 48.3047,13.7891 C48.3047,14.2135 48.1999,14.5918 47.9902,14.9238 C47.7806,15.2559 47.4714,15.5182 47.0625,15.7109 C46.6536,15.9036 46.1497,16 45.5508,16 L42.1328,16 M43.8242,14.6172 L45.2031,14.6172 C45.6745,14.6172 46.0182,14.5267 46.2344,14.3457 C46.4505,14.1647 46.5586,13.9232 46.5586,13.6211 C46.5586,13.3997 46.5052,13.2044 46.3984,13.0352 C46.2917,12.8659 46.14,12.7331 45.9434,12.6367 C45.7467,12.5404 45.513,12.4922 45.2422,12.4922 L43.8242,12.4922 L43.8242,14.6172 M43.8242,11.3477 L45.0781,11.3477 C45.3099,11.3477 45.5163,11.3066 45.6973,11.2246 C45.8783,11.1426 46.0215,11.026 46.127,10.875 C46.2324,10.724 46.2852,10.543 46.2852,10.332 C46.2852,10.043 46.1829,9.8099 45.9785,9.63281 C45.7741,9.45573 45.4844,9.36719 45.1094,9.36719 L43.8242,9.36719 L43.8242,11.3477 M52.832,8 L52.832,16 L51.1406,16 L51.1406,9.60547 L51.0938,9.60547 L49.2617,10.7539 L49.2617,9.25391 L51.2422,8 L52.832,8"/>
</g>

<g fill="#ffffff" fill-opacity="1" stroke="none" transform="matrix(0.03125,0,0,0.03125,117,14)"
font-family="Inter" font-size="11" font-weight="700" font-style="normal" 
>
<path vector-effect="none" fill-rule="nonzero" d="M111.326,191.938 C120.545,201.158 135.517,201.158 144.737,191.938 L239.144,97.5313 C245.929,90.7458 247.921,80.6413 244.233,71.7907 C240.545,62.9401 231.989,57.1871 222.401,57.1871 L33.5875,57.2608 C24.0731,57.2608 15.4437,63.0137 11.7559,71.8644 C8.06815,80.715 10.1333,90.8195 16.845,97.605 L111.252,192.012 L111.326,191.938"/>
</g>

<g fill="none" stroke="#000000" stroke-opacity="1" stroke-width="13.7195" stroke-linecap="butt" stroke-linejoin="miter" stroke-miterlimit="4" transform="matrix(0.03125,0,0,0.03125,117,14)"
font-family="Inter" font-size="11" font-weight="700" font-style="normal" 
>
<path vector-effect="none" fill-rule="nonzero" d="M111.326,191.938 C120.545,201.158 135.517,201.158 144.737,191.938 L239.144,97.5313 C245.929,90.7458 247.921,80.6413 244.233,71.7907 C240.545,62.9401 231.989,57.1871 222.401,57.1871 L33.5875,57.2608 C24.0731,57.2608 15.4437,63.0137 11.7559,71.8644 C8.06815,80.715 10.1333,90.8195 16.845,97.605 L111.252,192.012 L111.326,191.938"/>
</g>

<g fill="#ffffff" fill-opacity="1" stroke="none" transform="matrix(1,0,0,1,56,6)"
font-family="Inter" font-size="11" font-weight="700" font-style="normal" 
>
</g>

<g fill="#ffffff" fill-opacity="1" stroke="#0070ba" stroke-opacity="1" stroke-width="1" stroke-linecap="square" stroke-linejoin="bevel" transform="matrix(1,0,0,1,0,0)"
font-family="Inter" font-size="11" font-weight="700" font-style="normal" 
>
</g>

<g fill="none" stroke="#000000" stroke-opacity="1" stroke-width="1" stroke-linecap="square" stroke-linejoin="bevel" transform="matrix(1,0,0,1,0,0)"
font-family=".AppleSystemUIFont" font-size="13" font-weight="400" font-style="normal" 
>
</g>
</g>
</svg>
