<?xml version="1.0" encoding="UTF-8" standalone="no"?>
<svg width="94.8972mm" height="15.5222mm"
 viewBox="0 0 269 44"
 xmlns="http://www.w3.org/2000/svg" xmlns:xlink="http://www.w3.org/1999/xlink" version="1.2" baseProfile="tiny">
<title>Abstract block</title>
<desc>block_dashboard_controller_monitor_show</desc>
<defs>
</defs>
<g fill="none" stroke="black" stroke-width="1" fill-rule="evenodd" stroke-linecap="square" stroke-linejoin="bevel" >

<g fill="none" stroke="#000000" stroke-opacity="1" stroke-width="1" stroke-linecap="square" stroke-linejoin="bevel" transform="matrix(1,0,0,1,0,0)"
font-family=".AppleSystemUIFont" font-size="13" font-weight="400" font-style="normal" 
>
</g>

<g fill="none" stroke="#000000" stroke-opacity="1" stroke-width="1" stroke-linecap="square" stroke-linejoin="bevel" transform="matrix(1,0,0,1,0,0)"
font-family=".AppleSystemUIFont" font-size="13" font-weight="400" font-style="normal" 
>
</g>

<g fill="#009f94" fill-opacity="1" stroke="#00645c" stroke-opacity="1" stroke-width="1.2" stroke-linecap="square" stroke-linejoin="bevel" transform="matrix(1,0,0,1,0,0)"
font-family=".AppleSystemUIFont" font-size="13" font-weight="400" font-style="normal" 
>
<path vector-effect="none" fill-rule="evenodd" d="M0.5,4.5 L1.04612,2.48112 L2.48112,1.04612 L4.5,0.5 L9.625,0.5 L10.416,0.976563 L11.1719,1.6875 L11.998,2.67969 L13,4 L13.7559,4.66016 L14.5469,5.15625 L15.4082,5.51172 L16.375,5.75 L17.4824,5.89453 L18.7656,5.96875 L20.2598,5.99609 L22,6 L23.7402,5.99609 L25.2344,5.96875 L26.5176,5.89453 L27.625,5.75 L28.5918,5.51172 L29.4531,5.15625 L30.2441,4.66016 L31,4 L32.002,2.67969 L32.8281,1.6875 L33.584,0.976563 L34.375,0.5 L264.4,0.5 L266.419,1.04612 L267.854,2.48112 L268.4,4.5 L268.4,31.5 L267.854,33.5189 L266.419,34.9539 L264.4,35.5 L34.375,35.5 L33.584,35.9766 L32.8281,36.6875 L32.002,37.6797 L31,39 L30.2441,39.6602 L29.4531,40.1563 L28.5918,40.5117 L27.625,40.75 L26.5176,40.8945 L25.2344,40.9688 L23.7402,40.9961 L22,41 L20.2598,40.9961 L18.7656,40.9688 L17.4824,40.8945 L16.375,40.75 L15.4082,40.5117 L14.5469,40.1563 L13.7559,39.6602 L13,39 L11.998,37.6797 L11.1719,36.6875 L10.416,35.9766 L9.625,35.5 L4.5,35.5 L2.48112,34.9539 L1.04612,33.5189 L0.5,31.5 L0.5,4.5"/>
</g>

<g fill="#ffffff" fill-opacity="1" stroke="none" transform="matrix(1,0,0,1,0,0)"
font-family="Inter" font-size="11" font-weight="700" font-style="normal" 
>
<path vector-effect="none" fill-rule="nonzero" d="M57.5,17.6172 L55.9766,17.7109 C55.9505,17.5807 55.8945,17.4629 55.8086,17.3574 C55.7227,17.252 55.61,17.1673 55.4707,17.1035 C55.3314,17.0397 55.1654,17.0078 54.9727,17.0078 C54.7148,17.0078 54.4974,17.0618 54.3203,17.1699 C54.1432,17.278 54.0547,17.4219 54.0547,17.6016 C54.0547,17.7448 54.112,17.8659 54.2266,17.9648 C54.3411,18.0638 54.5378,18.1432 54.8164,18.2031 L55.9023,18.4219 C56.4857,18.5417 56.9206,18.7344 57.207,19 C57.4935,19.2656 57.6367,19.6146 57.6367,20.0469 C57.6367,20.4401 57.5215,20.7852 57.291,21.082 C57.0605,21.3789 56.7454,21.61 56.3457,21.7754 C55.946,21.9408 55.4857,22.0234 54.9648,22.0234 C54.1706,22.0234 53.5384,21.8574 53.0684,21.5254 C52.5983,21.1934 52.3229,20.7409 52.2422,20.168 L53.8789,20.082 C53.9284,20.3242 54.0482,20.5085 54.2383,20.6348 C54.4284,20.7611 54.6719,20.8242 54.9688,20.8242 C55.2604,20.8242 55.4954,20.7676 55.6738,20.6543 C55.8522,20.541 55.9427,20.3945 55.9453,20.2148 C55.9427,20.0638 55.8789,19.9395 55.7539,19.8418 C55.6289,19.7441 55.4362,19.6693 55.1758,19.6172 L54.1367,19.4102 C53.5508,19.293 53.1152,19.0898 52.8301,18.8008 C52.5449,18.5117 52.4023,18.1432 52.4023,17.6953 C52.4023,17.3099 52.5072,16.9779 52.7168,16.6992 C52.9264,16.4206 53.222,16.2057 53.6035,16.0547 C53.985,15.9036 54.4323,15.8281 54.9453,15.8281 C55.7031,15.8281 56.3001,15.9883 56.7363,16.3086 C57.1725,16.6289 57.4271,17.0651 57.5,17.6172 M60.3438,18.4375 L60.3438,21.9063 L58.6797,21.9063 L58.6797,13.9063 L60.2969,13.9063 L60.2969,16.9648 L60.3672,16.9648 C60.5026,16.6107 60.7214,16.3327 61.0234,16.1309 C61.3255,15.929 61.7044,15.8281 62.1602,15.8281 C62.5768,15.8281 62.9408,15.9186 63.252,16.0996 C63.5632,16.2806 63.8053,16.5397 63.9785,16.877 C64.1517,17.2142 64.237,17.6172 64.2344,18.0859 L64.2344,21.9063 L62.5703,21.9063 L62.5703,18.3828 C62.5729,18.013 62.4798,17.7253 62.291,17.5195 C62.1022,17.3138 61.8385,17.2109 61.5,17.2109 C61.2734,17.2109 61.0736,17.2591 60.9004,17.3555 C60.7272,17.4518 60.5918,17.5918 60.4941,17.7754 C60.3965,17.959 60.3464,18.1797 60.3438,18.4375 M68.25,22.0234 C67.6432,22.0234 67.1191,21.8939 66.6777,21.6348 C66.2363,21.3757 65.8958,21.0137 65.6563,20.5488 C65.4167,20.084 65.2969,19.5443 65.2969,18.9297 C65.2969,18.3099 65.4167,17.7676 65.6563,17.3027 C65.8958,16.8379 66.2363,16.4759 66.6777,16.2168 C67.1191,15.9577 67.6432,15.8281 68.25,15.8281 C68.8568,15.8281 69.3809,15.9577 69.8223,16.2168 C70.2637,16.4759 70.6042,16.8379 70.8438,17.3027 C71.0833,17.7676 71.2031,18.3099 71.2031,18.9297 C71.2031,19.5443 71.0833,20.084 70.8438,20.5488 C70.6042,21.0137 70.2637,21.3757 69.8223,21.6348 C69.3809,21.8939 68.8568,22.0234 68.25,22.0234 M68.2578,20.7344 C68.5339,20.7344 68.7643,20.6556 68.9492,20.498 C69.1341,20.3405 69.2741,20.125 69.3691,19.8516 C69.4642,19.5781 69.5117,19.2669 69.5117,18.918 C69.5117,18.569 69.4642,18.2578 69.3691,17.9844 C69.2741,17.7109 69.1341,17.4948 68.9492,17.3359 C68.7643,17.1771 68.5339,17.0977 68.2578,17.0977 C67.9792,17.0977 67.7454,17.1771 67.5566,17.3359 C67.3678,17.4948 67.2259,17.7109 67.1309,17.9844 C67.0358,18.2578 66.9883,18.569 66.9883,18.918 C66.9883,19.2669 67.0358,19.5781 67.1309,19.8516 C67.2259,20.125 67.3678,20.3405 67.5566,20.498 C67.7454,20.6556 67.9792,20.7344 68.2578,20.7344 M73.332,21.9063 L71.6992,15.9063 L73.3828,15.9063 L74.3125,19.9375 L74.3672,19.9375 L75.3359,15.9063 L76.9883,15.9063 L77.9727,19.9141 L78.0234,19.9141 L78.9375,15.9063 L80.6172,15.9063 L78.9883,21.9063 L77.2266,21.9063 L76.1953,18.1328 L76.1211,18.1328 L75.0898,21.9063 L73.332,21.9063"/>
</g>

<g fill="#ffffff" fill-opacity="1" stroke="none" transform="matrix(1,0,0,1,0,0)"
font-family="Inter" font-size="11" font-weight="700" font-style="normal" 
>
<path vector-effect="none" fill-rule="nonzero" d="M122.297,21.0547 C121.69,21.0547 121.166,20.9251 120.725,20.666 C120.283,20.4069 119.943,20.0449 119.703,19.5801 C119.464,19.1152 119.344,18.5755 119.344,17.9609 C119.344,17.3411 119.464,16.7988 119.703,16.334 C119.943,15.8691 120.283,15.5072 120.725,15.248 C121.166,14.9889 121.69,14.8594 122.297,14.8594 C122.904,14.8594 123.428,14.9889 123.869,15.248 C124.311,15.5072 124.651,15.8691 124.891,16.334 C125.13,16.7988 125.25,17.3411 125.25,17.9609 C125.25,18.5755 125.13,19.1152 124.891,19.5801 C124.651,20.0449 124.311,20.4069 123.869,20.666 C123.428,20.9251 122.904,21.0547 122.297,21.0547 M122.305,19.7656 C122.581,19.7656 122.811,19.6868 122.996,19.5293 C123.181,19.3717 123.321,19.1563 123.416,18.8828 C123.511,18.6094 123.559,18.2982 123.559,17.9492 C123.559,17.6003 123.511,17.2891 123.416,17.0156 C123.321,16.7422 123.181,16.526 122.996,16.3672 C122.811,16.2083 122.581,16.1289 122.305,16.1289 C122.026,16.1289 121.792,16.2083 121.604,16.3672 C121.415,16.526 121.273,16.7422 121.178,17.0156 C121.083,17.2891 121.035,17.6003 121.035,17.9492 C121.035,18.2982 121.083,18.6094 121.178,18.8828 C121.273,19.1563 121.415,19.3717 121.604,19.5293 C121.792,19.6868 122.026,19.7656 122.305,19.7656 M128,17.4688 L128,20.9375 L126.336,20.9375 L126.336,14.9375 L127.922,14.9375 L127.922,15.9961 L127.992,15.9961 C128.125,15.6471 128.348,15.3704 128.66,15.166 C128.973,14.9616 129.352,14.8594 129.797,14.8594 C130.214,14.8594 130.577,14.9505 130.887,15.1328 C131.197,15.3151 131.438,15.5749 131.609,15.9121 C131.781,16.2493 131.867,16.651 131.867,17.1172 L131.867,20.9375 L130.203,20.9375 L130.203,17.4141 C130.206,17.0469 130.112,16.7598 129.922,16.5527 C129.732,16.3457 129.47,16.2422 129.137,16.2422 C128.913,16.2422 128.715,16.2904 128.545,16.3867 C128.374,16.4831 128.242,16.623 128.146,16.8066 C128.051,16.9902 128.003,17.2109 128,17.4688 "/>
</g>

<g fill="#ffffff" fill-opacity="1" stroke="none" transform="matrix(1,0,0,1,0,0)"
font-family="Inter" font-size="11" font-weight="700" font-style="normal" 
>
<path vector-effect="none" fill-rule="nonzero" d="M213.414,21.9531 L213.414,15.9531 L215,15.9531 L215,17.0117 L215.07,17.0117 C215.195,16.6602 215.404,16.3828 215.695,16.1797 C215.987,15.9766 216.336,15.875 216.742,15.875 C217.154,15.875 217.504,15.9772 217.793,16.1816 C218.082,16.3861 218.275,16.6628 218.371,17.0117 L218.434,17.0117 C218.556,16.668 218.778,16.3926 219.1,16.1855 C219.421,15.9785 219.802,15.875 220.242,15.875 C220.802,15.875 221.257,16.0527 221.607,16.4082 C221.958,16.7637 222.133,17.2669 222.133,17.918 L222.133,21.9531 L220.473,21.9531 L220.473,18.2461 C220.473,17.9128 220.384,17.6628 220.207,17.4961 C220.03,17.3294 219.809,17.2461 219.543,17.2461 C219.241,17.2461 219.005,17.3418 218.836,17.5332 C218.667,17.7246 218.582,17.9766 218.582,18.2891 L218.582,21.9531 L216.969,21.9531 L216.969,18.2109 C216.969,17.9167 216.885,17.6823 216.717,17.5078 C216.549,17.3333 216.328,17.2461 216.055,17.2461 C215.87,17.2461 215.704,17.2923 215.557,17.3848 C215.41,17.4772 215.293,17.6061 215.207,17.7715 C215.121,17.9368 215.078,18.1302 215.078,18.3516 L215.078,21.9531 L213.414,21.9531 M226.156,22.0703 C225.549,22.0703 225.025,21.9408 224.584,21.6816 C224.143,21.4225 223.802,21.0605 223.563,20.5957 C223.323,20.1309 223.203,19.5911 223.203,18.9766 C223.203,18.3568 223.323,17.8145 223.563,17.3496 C223.802,16.8848 224.143,16.5228 224.584,16.2637 C225.025,16.0046 225.549,15.875 226.156,15.875 C226.763,15.875 227.287,16.0046 227.729,16.2637 C228.17,16.5228 228.51,16.8848 228.75,17.3496 C228.99,17.8145 229.109,18.3568 229.109,18.9766 C229.109,19.5911 228.99,20.1309 228.75,20.5957 C228.51,21.0605 228.17,21.4225 227.729,21.6816 C227.287,21.9408 226.763,22.0703 226.156,22.0703 M226.164,20.7813 C226.44,20.7813 226.671,20.7025 226.855,20.5449 C227.04,20.3874 227.18,20.1719 227.275,19.8984 C227.37,19.625 227.418,19.3138 227.418,18.9648 C227.418,18.6159 227.37,18.3047 227.275,18.0313 C227.18,17.7578 227.04,17.5417 226.855,17.3828 C226.671,17.224 226.44,17.1445 226.164,17.1445 C225.885,17.1445 225.652,17.224 225.463,17.3828 C225.274,17.5417 225.132,17.7578 225.037,18.0313 C224.942,18.3047 224.895,18.6159 224.895,18.9648 C224.895,19.3138 224.942,19.625 225.037,19.8984 C225.132,20.1719 225.274,20.3874 225.463,20.5449 C225.652,20.7025 225.885,20.7813 226.164,20.7813 M231.859,18.4844 L231.859,21.9531 L230.195,21.9531 L230.195,15.9531 L231.781,15.9531 L231.781,17.0117 L231.852,17.0117 C231.984,16.6628 232.207,16.3861 232.52,16.1816 C232.832,15.9772 233.211,15.875 233.656,15.875 C234.073,15.875 234.436,15.9661 234.746,16.1484 C235.056,16.3307 235.297,16.5905 235.469,16.9277 C235.641,17.265 235.727,17.6667 235.727,18.1328 L235.727,21.9531 L234.063,21.9531 L234.063,18.4297 C234.065,18.0625 233.971,17.7754 233.781,17.5684 C233.591,17.3613 233.329,17.2578 232.996,17.2578 C232.772,17.2578 232.575,17.306 232.404,17.4023 C232.234,17.4987 232.101,17.6387 232.006,17.8223 C231.911,18.0059 231.862,18.2266 231.859,18.4844 M237.023,21.9531 L237.023,15.9531 L238.688,15.9531 L238.688,21.9531 L237.023,21.9531 M237.859,15.1797 C237.612,15.1797 237.4,15.097 237.225,14.9316 C237.049,14.7663 236.961,14.5677 236.961,14.3359 C236.961,14.1068 237.049,13.9095 237.225,13.7441 C237.4,13.5788 237.612,13.4961 237.859,13.4961 C238.107,13.4961 238.318,13.5788 238.494,13.7441 C238.67,13.9095 238.758,14.1068 238.758,14.3359 C238.758,14.5677 238.67,14.7663 238.494,14.9316 C238.318,15.097 238.107,15.1797 237.859,15.1797 M243.199,15.9531 L243.199,17.2031 L239.586,17.2031 L239.586,15.9531 L243.199,15.9531 M240.406,14.5156 L242.07,14.5156 L242.07,20.1094 C242.07,20.263 242.094,20.3822 242.141,20.4668 C242.188,20.5514 242.253,20.6107 242.338,20.6445 C242.423,20.6784 242.521,20.6953 242.633,20.6953 C242.711,20.6953 242.789,20.6882 242.867,20.6738 C242.945,20.6595 243.005,20.6484 243.047,20.6406 L243.309,21.8789 C243.225,21.9049 243.108,21.9355 242.957,21.9707 C242.806,22.0059 242.622,22.0273 242.406,22.0352 C242.005,22.0508 241.654,21.9974 241.354,21.875 C241.053,21.7526 240.819,21.5625 240.652,21.3047 C240.486,21.0469 240.404,20.7214 240.406,20.3281 L240.406,14.5156 M246.922,22.0703 C246.315,22.0703 245.791,21.9408 245.35,21.6816 C244.908,21.4225 244.568,21.0605 244.328,20.5957 C244.089,20.1309 243.969,19.5911 243.969,18.9766 C243.969,18.3568 244.089,17.8145 244.328,17.3496 C244.568,16.8848 244.908,16.5228 245.35,16.2637 C245.791,16.0046 246.315,15.875 246.922,15.875 C247.529,15.875 248.053,16.0046 248.494,16.2637 C248.936,16.5228 249.276,16.8848 249.516,17.3496 C249.755,17.8145 249.875,18.3568 249.875,18.9766 C249.875,19.5911 249.755,20.1309 249.516,20.5957 C249.276,21.0605 248.936,21.4225 248.494,21.6816 C248.053,21.9408 247.529,22.0703 246.922,22.0703 M246.93,20.7813 C247.206,20.7813 247.436,20.7025 247.621,20.5449 C247.806,20.3874 247.946,20.1719 248.041,19.8984 C248.136,19.625 248.184,19.3138 248.184,18.9648 C248.184,18.6159 248.136,18.3047 248.041,18.0313 C247.946,17.7578 247.806,17.5417 247.621,17.3828 C247.436,17.224 247.206,17.1445 246.93,17.1445 C246.651,17.1445 246.417,17.224 246.229,17.3828 C246.04,17.5417 245.898,17.7578 245.803,18.0313 C245.708,18.3047 245.66,18.6159 245.66,18.9648 C245.66,19.3138 245.708,19.625 245.803,19.8984 C245.898,20.1719 246.04,20.3874 246.229,20.5449 C246.417,20.7025 246.651,20.7813 246.93,20.7813 M250.961,21.9531 L250.961,15.9531 L252.574,15.9531 L252.574,17 L252.637,17 C252.746,16.6276 252.93,16.3457 253.188,16.1543 C253.445,15.9629 253.742,15.8672 254.078,15.8672 C254.161,15.8672 254.251,15.8724 254.348,15.8828 C254.444,15.8932 254.529,15.9076 254.602,15.9258 L254.602,17.4023 C254.523,17.3789 254.415,17.3581 254.277,17.3398 C254.139,17.3216 254.013,17.3125 253.898,17.3125 C253.654,17.3125 253.436,17.3652 253.244,17.4707 C253.053,17.5762 252.902,17.7227 252.791,17.9102 C252.68,18.0977 252.625,18.3138 252.625,18.5586 L252.625,21.9531 L250.961,21.9531"/>
</g>

<g fill="#ffffff" fill-opacity="1" stroke="none" transform="matrix(0.95,0,0,0.95,11.6,9.6)"
font-family="Inter" font-size="11" font-weight="700" font-style="normal" 
>
<path vector-effect="none" fill-rule="nonzero" d="M2.19896,4.65234 C1.18891,4.65234 0.375703,5.46549 0.375703,6.47555 L0.375703,8.579 C1.00152,8.60331 1.67842,9.11362 1.67842,9.74561 L1.67842,14.2544 C1.67842,14.8864 1.00152,15.3967 0.375703,15.421 L0.375703,17.5245 C0.375703,18.5345 1.18891,19.3477 2.19896,19.3477 L21.8479,19.3477 C22.858,19.3477 23.6711,18.5345 23.6711,17.5245 L23.6711,6.47555 C23.6711,5.46549 22.858,4.65234 21.8479,4.65234 L2.19896,4.65234 M6.71936,9.23098 C8.56166,9.23097 10.0552,10.7245 10.0552,12.5668 C10.0552,14.4091 8.56167,15.9026 6.71936,15.9026 C4.87705,15.9026 3.38355,14.4091 3.38355,12.5668 C3.38355,10.7245 4.87705,9.23097 6.71936,9.23098 M19.875,9.24873 C20.7082,9.24871 21.3837,9.92418 21.3837,10.7574 C21.3837,11.5906 20.7082,12.266 19.875,12.266 C19.0418,12.266 18.3664,11.5906 18.3664,10.7574 C18.3664,9.9242 19.0418,9.24874 19.875,9.24873 M17.4318,12.8825 C18.265,12.8825 18.9404,13.558 18.9404,14.3912 C18.9404,15.2243 18.2649,15.8998 17.4318,15.8998 C16.5986,15.8998 15.9231,15.2244 15.9231,14.3912 C15.9231,13.5579 16.5985,12.8825 17.4318,12.8825 "/>
</g>

<g fill="none" stroke="#000000" stroke-opacity="1" stroke-width="0.54" stroke-linecap="butt" stroke-linejoin="miter" stroke-miterlimit="4" transform="matrix(0.95,0,0,0.95,11.6,9.6)"
font-family="Inter" font-size="11" font-weight="700" font-style="normal" 
>
<path vector-effect="none" fill-rule="nonzero" d="M2.19896,4.65234 C1.18891,4.65234 0.375703,5.46549 0.375703,6.47555 L0.375703,8.579 C1.00152,8.60331 1.67842,9.11362 1.67842,9.74561 L1.67842,14.2544 C1.67842,14.8864 1.00152,15.3967 0.375703,15.421 L0.375703,17.5245 C0.375703,18.5345 1.18891,19.3477 2.19896,19.3477 L21.8479,19.3477 C22.858,19.3477 23.6711,18.5345 23.6711,17.5245 L23.6711,6.47555 C23.6711,5.46549 22.858,4.65234 21.8479,4.65234 L2.19896,4.65234 M6.71936,9.23098 C8.56166,9.23097 10.0552,10.7245 10.0552,12.5668 C10.0552,14.4091 8.56167,15.9026 6.71936,15.9026 C4.87705,15.9026 3.38355,14.4091 3.38355,12.5668 C3.38355,10.7245 4.87705,9.23097 6.71936,9.23098 M19.875,9.24873 C20.7082,9.24871 21.3837,9.92418 21.3837,10.7574 C21.3837,11.5906 20.7082,12.266 19.875,12.266 C19.0418,12.266 18.3664,11.5906 18.3664,10.7574 C18.3664,9.9242 19.0418,9.24874 19.875,9.24873 M17.4318,12.8825 C18.265,12.8825 18.9404,13.558 18.9404,14.3912 C18.9404,15.2243 18.2649,15.8998 17.4318,15.8998 C16.5986,15.8998 15.9231,15.2244 15.9231,14.3912 C15.9231,13.5579 16.5985,12.8825 17.4318,12.8825 "/>
</g>

<g fill="#000000" fill-opacity="1" stroke="none" transform="matrix(0.95,0,0,0.95,11.6,9.6)"
font-family="Inter" font-size="11" font-weight="700" font-style="normal" 
>
<path vector-effect="none" fill-rule="nonzero" d="M0.108328,15.3227 L0.103298,8.65983 L1.21825,8.7259 L1.75102,9.37791 L1.70662,12.9064 L1.66222,14.5556 L1.04066,15.0542 L0.108328,15.3227"/>
</g>

<g fill="#000000" fill-opacity="1" stroke="none" transform="matrix(0.95,0,0,0.95,11.6,9.6)"
font-family="Inter" font-size="11" font-weight="700" font-style="normal" 
>
<circle cx="6.70111" cy="12.5452" r="1.68266"/>
</g>

<g fill="none" stroke="#000000" stroke-opacity="1" stroke-width="0.54" stroke-linecap="butt" stroke-linejoin="miter" stroke-miterlimit="4" transform="matrix(0.95,0,0,0.95,11.6,9.6)"
font-family="Inter" font-size="11" font-weight="700" font-style="normal" 
>
<circle cx="6.70111" cy="12.5452" r="1.68266"/>
</g>

<g fill="#000000" fill-opacity="1" stroke="none" transform="matrix(0.95,0,0,0.95,11.6,9.6)"
font-family="Inter" font-size="11" font-weight="700" font-style="normal" 
opacity="0.858824" >
<path vector-effect="none" fill-rule="evenodd" d="M8.42109,18.1373 C8.42109,18.0846 8.46385,18.0418 8.51661,18.0418 L15.4834,18.0418 C15.5361,18.0418 15.5789,18.0846 15.5789,18.1373 L15.5789,18.1373 C15.5789,18.1901 15.5361,18.2329 15.4834,18.2329 L8.51661,18.2329 C8.46385,18.2329 8.42109,18.1901 8.42109,18.1373 L8.42109,18.1373"/>
</g>

<g fill="none" stroke="#000000" stroke-opacity="1" stroke-width="0.437534" stroke-linecap="butt" stroke-linejoin="miter" stroke-miterlimit="4" transform="matrix(0.95,0,0,0.95,11.6,9.6)"
font-family="Inter" font-size="11" font-weight="700" font-style="normal" 
>
<path vector-effect="none" fill-rule="evenodd" d="M8.42109,18.1373 C8.42109,18.0846 8.46385,18.0418 8.51661,18.0418 L15.4834,18.0418 C15.5361,18.0418 15.5789,18.0846 15.5789,18.1373 L15.5789,18.1373 C15.5789,18.1901 15.5361,18.2329 15.4834,18.2329 L8.51661,18.2329 C8.46385,18.2329 8.42109,18.1901 8.42109,18.1373 L8.42109,18.1373"/>
</g>

<g fill="#ffffff" fill-opacity="1" stroke="none" transform="matrix(1,0,0,1,0,0)"
font-family="Inter" font-size="11" font-weight="700" font-style="normal" 
>
</g>

<g fill="#ffffff" fill-opacity="1" stroke="#00645c" stroke-opacity="1" stroke-width="1" stroke-linecap="square" stroke-linejoin="bevel" transform="matrix(1,0,0,1,0,0)"
font-family="Inter" font-size="11" font-weight="700" font-style="normal" 
>
<polyline fill="none" vector-effect="none" points="45,11 45,31 " />
</g>

<g fill="#ffffff" fill-opacity="1" stroke="#005049" stroke-opacity="1" stroke-width="1.2" stroke-linecap="square" stroke-linejoin="bevel" transform="matrix(1,0,0,1,87,7)"
font-family="Inter" font-size="11" font-weight="700" font-style="normal" 
>
<path vector-effect="none" fill-rule="evenodd" d="M1,11 C1,5.47715 5.92487,1 12,1 L14.4,1 C20.4751,1 25.4,5.47715 25.4,11 C25.4,16.5228 20.4751,21 14.4,21 L12,21 C5.92487,21 1,16.5228 1,11 "/>
</g>

<g fill="#000000" fill-opacity="1" stroke="none" transform="matrix(1,0,0,1,87,7)"
font-family="Inter" font-size="10" font-weight="700" font-style="normal" 
>
<path vector-effect="none" fill-rule="nonzero" d="M0,0"/>
</g>

<g fill="#000000" fill-opacity="1" stroke="none" transform="matrix(1,0,0,1,93,11.9531)"
font-family="Inter" font-size="10" font-weight="700" font-style="normal" 
>
</g>

<g fill="#000000" fill-opacity="1" stroke="none" transform="matrix(1,0,0,1,93,11.9531)"
font-family="Inter" font-size="10" font-weight="700" font-style="normal" 
>
</g>

<g fill="#000000" fill-opacity="1" stroke="none" transform="matrix(1,0,0,1,87,7)"
font-family="Inter" font-size="10" font-weight="700" font-style="normal" 
>
</g>

<g fill="#ffffff" fill-opacity="1" stroke="#00645c" stroke-opacity="1" stroke-width="1" stroke-linecap="square" stroke-linejoin="bevel" transform="matrix(1,0,0,1,0,0)"
font-family="Inter" font-size="11" font-weight="700" font-style="normal" 
>
</g>

<g fill="#009f94" fill-opacity="1" stroke="#00645c" stroke-opacity="1" stroke-width="1.2" stroke-linecap="square" stroke-linejoin="bevel" transform="matrix(1,0,0,1,138.4,6)"
font-family="Inter" font-size="11" font-weight="700" font-style="normal" 
>
<path vector-effect="none" fill-rule="evenodd" d="M0.5,3.5 C0.5,1.84315 1.84315,0.5 3.5,0.5 L65.5,0.5 C67.1569,0.5 68.5,1.84315 68.5,3.5 L68.5,20.5 C68.5,22.1569 67.1569,23.5 65.5,23.5 L3.5,23.5 C1.84315,23.5 0.5,22.1569 0.5,20.5 L0.5,3.5"/>
</g>

<g fill="#ffffff" fill-opacity="1" stroke="none" transform="matrix(1,0,0,1,138.4,6)"
font-family="Inter" font-size="11" font-weight="700" font-style="normal" 
>
<path vector-effect="none" fill-rule="nonzero" d="M10.0078,8 L12.0938,8 L14.2969,13.375 L14.3906,13.375 L16.5938,8 L18.6797,8 L18.6797,16 L17.0391,16 L17.0391,10.793 L16.9727,10.793 L14.9023,15.9609 L13.7852,15.9609 L11.7148,10.7734 L11.6484,10.7734 L11.6484,16 L10.0078,16 L10.0078,8 M26.7617,8 L26.7617,16 L25.3008,16 L21.8203,10.9648 L21.7617,10.9648 L21.7617,16 L20.0703,16 L20.0703,8 L21.5547,8 L25.0078,13.0313 L25.0781,13.0313 L25.0781,8 L26.7617,8 M27.8438,9.39453 L27.8438,8 L34.4141,8 L34.4141,9.39453 L31.9648,9.39453 L31.9648,16 L30.293,16 L30.293,9.39453 L27.8438,9.39453 M35.4922,16 L35.4922,8 L38.6484,8 C39.2526,8 39.7689,8.10742 40.1973,8.32227 C40.6257,8.53711 40.9525,8.84049 41.1777,9.23242 C41.403,9.62435 41.5156,10.0846 41.5156,10.6133 C41.5156,11.1445 41.401,11.6009 41.1719,11.9824 C40.9427,12.3639 40.6113,12.6563 40.1777,12.8594 C39.7441,13.0625 39.2201,13.1641 38.6055,13.1641 L36.4922,13.1641 L36.4922,11.8047 L38.332,11.8047 C38.6549,11.8047 38.9232,11.7604 39.1367,11.6719 C39.3503,11.5833 39.5098,11.4505 39.6152,11.2734 C39.7207,11.0964 39.7734,10.8763 39.7734,10.6133 C39.7734,10.3477 39.7207,10.1237 39.6152,9.94141 C39.5098,9.75911 39.3496,9.62044 39.1348,9.52539 C38.9199,9.43034 38.6497,9.38281 38.3242,9.38281 L37.1836,9.38281 L37.1836,16 L35.4922,16 M39.8125,12.3594 L41.8008,16 L39.9336,16 L37.9883,12.3594 L39.8125,12.3594 M46.1445,8 L46.1445,16 L44.4531,16 L44.4531,9.60547 L44.4063,9.60547 L42.5742,10.7539 L42.5742,9.25391 L44.5547,8 L46.1445,8"/>
</g>

<g fill="#ffffff" fill-opacity="1" stroke="none" transform="matrix(0.03125,0,0,0.03125,193.4,14)"
font-family="Inter" font-size="11" font-weight="700" font-style="normal" 
>
<path vector-effect="none" fill-rule="nonzero" d="M111.326,191.938 C120.545,201.158 135.517,201.158 144.737,191.938 L239.144,97.5313 C245.929,90.7458 247.921,80.6413 244.233,71.7907 C240.545,62.9401 231.989,57.1871 222.401,57.1871 L33.5875,57.2608 C24.0731,57.2608 15.4437,63.0137 11.7559,71.8644 C8.06815,80.715 10.1333,90.8195 16.845,97.605 L111.252,192.012 L111.326,191.938"/>
</g>

<g fill="none" stroke="#000000" stroke-opacity="1" stroke-width="13.7195" stroke-linecap="butt" stroke-linejoin="miter" stroke-miterlimit="4" transform="matrix(0.03125,0,0,0.03125,193.4,14)"
font-family="Inter" font-size="11" font-weight="700" font-style="normal" 
>
<path vector-effect="none" fill-rule="nonzero" d="M111.326,191.938 C120.545,201.158 135.517,201.158 144.737,191.938 L239.144,97.5313 C245.929,90.7458 247.921,80.6413 244.233,71.7907 C240.545,62.9401 231.989,57.1871 222.401,57.1871 L33.5875,57.2608 C24.0731,57.2608 15.4437,63.0137 11.7559,71.8644 C8.06815,80.715 10.1333,90.8195 16.845,97.605 L111.252,192.012 L111.326,191.938"/>
</g>

<g fill="#ffffff" fill-opacity="1" stroke="none" transform="matrix(1,0,0,1,138.4,6)"
font-family="Inter" font-size="11" font-weight="700" font-style="normal" 
>
</g>

<g fill="#ffffff" fill-opacity="1" stroke="#00645c" stroke-opacity="1" stroke-width="1" stroke-linecap="square" stroke-linejoin="bevel" transform="matrix(1,0,0,1,0,0)"
font-family="Inter" font-size="11" font-weight="700" font-style="normal" 
>
</g>

<g fill="#ffffff" fill-opacity="1" stroke="#00645c" stroke-opacity="1" stroke-width="1" stroke-linecap="square" stroke-linejoin="bevel" transform="matrix(1,0,0,1,0,0)"
font-family="Inter" font-size="11" font-weight="700" font-style="normal" 
>
</g>

<g fill="#ffffff" fill-opacity="1" stroke="#00645c" stroke-opacity="1" stroke-width="1" stroke-linecap="square" stroke-linejoin="bevel" transform="matrix(1,0,0,1,0,0)"
font-family="Inter" font-size="11" font-weight="700" font-style="normal" 
>
</g>

<g fill="#ffffff" fill-opacity="1" stroke="#00645c" stroke-opacity="1" stroke-width="1" stroke-linecap="square" stroke-linejoin="bevel" transform="matrix(1,0,0,1,0,0)"
font-family="Inter" font-size="11" font-weight="700" font-style="normal" 
>
</g>

<g fill="none" stroke="#000000" stroke-opacity="1" stroke-width="1" stroke-linecap="square" stroke-linejoin="bevel" transform="matrix(1,0,0,1,0,0)"
font-family=".AppleSystemUIFont" font-size="13" font-weight="400" font-style="normal" 
>
</g>
</g>
</svg>
