<?xml version="1.0" encoding="UTF-8" standalone="no"?>
<svg width="53.6222mm" height="49.3889mm"
 viewBox="0 0 152 140"
 xmlns="http://www.w3.org/2000/svg" xmlns:xlink="http://www.w3.org/1999/xlink" version="1.2" baseProfile="tiny">
<title>Abstract block</title>
<desc>block_control_do_this_and_this</desc>
<defs>
</defs>
<g fill="none" stroke="black" stroke-width="1" fill-rule="evenodd" stroke-linecap="square" stroke-linejoin="bevel" >

<g fill="none" stroke="#000000" stroke-opacity="1" stroke-width="1" stroke-linecap="square" stroke-linejoin="bevel" transform="matrix(1,0,0,1,0,0)"
font-family=".AppleSystemUIFont" font-size="13" font-weight="400" font-style="normal" 
>
</g>

<g fill="none" stroke="#000000" stroke-opacity="1" stroke-width="1" stroke-linecap="square" stroke-linejoin="bevel" transform="matrix(1,0,0,1,0,0)"
font-family=".AppleSystemUIFont" font-size="13" font-weight="400" font-style="normal" 
>
</g>

<g fill="#ffb515" fill-opacity="1" stroke="#d89400" stroke-opacity="1" stroke-width="1.2" stroke-linecap="square" stroke-linejoin="bevel" transform="matrix(1,0,0,1,0,0)"
font-family=".AppleSystemUIFont" font-size="13" font-weight="400" font-style="normal" 
>
<path vector-effect="none" fill-rule="evenodd" d="M0.5,4.5 L1.04612,2.48112 L2.48112,1.04612 L4.5,0.5 L9.625,0.5 L10.416,0.976563 L11.1719,1.6875 L11.998,2.67969 L13,4 L13.7559,4.66016 L14.5469,5.15625 L15.4082,5.51172 L16.375,5.75 L17.4824,5.89453 L18.7656,5.96875 L20.2598,5.99609 L22,6 L23.7402,5.99609 L25.2344,5.96875 L26.5176,5.89453 L27.625,5.75 L28.5918,5.51172 L29.4531,5.15625 L30.2441,4.66016 L31,4 L32.002,2.67969 L32.8281,1.6875 L33.584,0.976563 L34.375,0.5 L146.7,0.5 L148.719,1.04612 L150.154,2.48112 L150.7,4.5 L150.7,33.625 L150.607,33.9259 L149.126,35.4074 L147.2,36 L52,36 L50.0137,36.0078 L48.4844,36.0625 L47.3066,36.2109 L46.375,36.5 L45.584,36.9766 L44.8281,37.6875 L44.002,38.6797 L43,40 L42.2441,40.6602 L41.4531,41.1563 L40.5918,41.5117 L39.625,41.75 L38.5176,41.8945 L37.2344,41.9688 L35.7402,41.9961 L34,42 L32.2598,41.9961 L30.7656,41.9688 L29.4824,41.8945 L28.375,41.75 L27.4082,41.5117 L26.5469,41.1563 L25.7559,40.6602 L25,40 L23.998,38.6797 L23.1719,37.6875 L22.416,36.9766 L21.625,36.5 L20.6934,36.2109 L19.5156,36.0625 L17.9863,36.0078 L16,36 L13.9811,36.5461 L12.5461,37.9811 L12,40 L12,52 L12.5461,54.0189 L13.9811,55.4539 L16,56 L22.4409,56 L23.1719,56.6875 L23.998,57.6797 L25,59 L25.7559,59.6602 L26.5469,60.1563 L27.4082,60.5117 L28.375,60.75 L29.4824,60.8945 L30.7656,60.9688 L32.2598,60.9961 L34,61 L35.7402,60.9961 L37.2344,60.9688 L38.5176,60.8945 L39.625,60.75 L40.5918,60.5117 L41.4531,60.1563 L42.2441,59.6602 L43,59 L44.002,57.6797 L44.8281,56.6875 L45.5591,56 L147.2,56 L149.126,56.5926 L150.607,58.0741 L150.7,58.375 L150.7,81.625 L150.607,81.9259 L149.126,83.4074 L147.2,84 L52,84 L50.0137,84.0078 L48.4844,84.0625 L47.3066,84.2109 L46.375,84.5 L45.584,84.9766 L44.8281,85.6875 L44.002,86.6797 L43,88 L42.2441,88.6602 L41.4531,89.1563 L40.5918,89.5117 L39.625,89.75 L38.5176,89.8945 L37.2344,89.9688 L35.7402,89.9961 L34,90 L32.2598,89.9961 L30.7656,89.9688 L29.4824,89.8945 L28.375,89.75 L27.4082,89.5117 L26.5469,89.1563 L25.7559,88.6602 L25,88 L23.998,86.6797 L23.1719,85.6875 L22.416,84.9766 L21.625,84.5 L20.6934,84.2109 L19.5156,84.0625 L17.9863,84.0078 L16,84 L13.9811,84.5461 L12.5461,85.9811 L12,88 L12,100 L12.5461,102.019 L13.9811,103.454 L16,104 L22.4409,104 L23.1719,104.688 L23.998,105.68 L25,107 L25.7559,107.66 L26.5469,108.156 L27.4082,108.512 L28.375,108.75 L29.4824,108.895 L30.7656,108.969 L32.2598,108.996 L34,109 L35.7402,108.996 L37.2344,108.969 L38.5176,108.895 L39.625,108.75 L40.5918,108.512 L41.4531,108.156 L42.2441,107.66 L43,107 L44.002,105.68 L44.8281,104.688 L45.5591,104 L147.2,104 L149.126,104.593 L150.607,106.074 L150.7,106.375 L150.7,127.5 L150.154,129.519 L148.719,130.954 L146.7,131.5 L34.375,131.5 L33.584,131.977 L32.8281,132.688 L32.002,133.68 L31,135 L30.2441,135.66 L29.4531,136.156 L28.5918,136.512 L27.625,136.75 L26.5176,136.895 L25.2344,136.969 L23.7402,136.996 L22,137 L20.2598,136.996 L18.7656,136.969 L17.4824,136.895 L16.375,136.75 L15.4082,136.512 L14.5469,136.156 L13.7559,135.66 L13,135 L11.998,133.68 L11.1719,132.688 L10.416,131.977 L9.625,131.5 L4.5,131.5 L2.48112,130.954 L1.04612,129.519 L0.5,127.5 L0.5,4.5"/>
</g>

<g fill="#ffffff" fill-opacity="1" stroke="none" transform="matrix(1,0,0,1,0,0)"
font-family="Inter" font-size="11" font-weight="700" font-style="normal" 
>
<path vector-effect="none" fill-rule="nonzero" d="M14.4531,22.0508 C13.9974,22.0508 13.5853,21.9329 13.2168,21.6973 C12.8483,21.4616 12.5566,21.1139 12.3418,20.6543 C12.127,20.1947 12.0195,19.6302 12.0195,18.9609 C12.0195,18.2734 12.1302,17.7012 12.3516,17.2441 C12.5729,16.7871 12.8678,16.4447 13.2363,16.2168 C13.6048,15.9889 14.0091,15.875 14.4492,15.875 C14.7852,15.875 15.0658,15.9316 15.291,16.0449 C15.5163,16.1582 15.6986,16.2988 15.8379,16.4668 C15.9772,16.6348 16.0833,16.7995 16.1563,16.9609 L16.207,16.9609 L16.207,13.9531 L17.8672,13.9531 L17.8672,21.9531 L16.2266,21.9531 L16.2266,20.9922 L16.1563,20.9922 C16.0781,21.1589 15.9681,21.3236 15.8262,21.4863 C15.6842,21.6491 15.5007,21.7839 15.2754,21.8906 C15.0501,21.9974 14.776,22.0508 14.4531,22.0508 M14.9805,20.7266 C15.2487,20.7266 15.4759,20.653 15.6621,20.5059 C15.8483,20.3587 15.9915,20.1523 16.0918,19.8867 C16.1921,19.6211 16.2422,19.3099 16.2422,18.9531 C16.2422,18.5964 16.1927,18.2865 16.0938,18.0234 C15.9948,17.7604 15.8516,17.5573 15.6641,17.4141 C15.4766,17.2708 15.2487,17.1992 14.9805,17.1992 C14.707,17.1992 14.4766,17.2734 14.2891,17.4219 C14.1016,17.5703 13.9596,17.776 13.8633,18.0391 C13.7669,18.3021 13.7188,18.6068 13.7188,18.9531 C13.7188,19.3021 13.7676,19.61 13.8652,19.877 C13.9629,20.1439 14.1048,20.3522 14.291,20.502 C14.4772,20.6517 14.707,20.7266 14.9805,20.7266 M21.9375,22.0703 C21.3307,22.0703 20.8066,21.9408 20.3652,21.6816 C19.9238,21.4225 19.5833,21.0605 19.3438,20.5957 C19.1042,20.1309 18.9844,19.5911 18.9844,18.9766 C18.9844,18.3568 19.1042,17.8145 19.3438,17.3496 C19.5833,16.8848 19.9238,16.5228 20.3652,16.2637 C20.8066,16.0046 21.3307,15.875 21.9375,15.875 C22.5443,15.875 23.0684,16.0046 23.5098,16.2637 C23.9512,16.5228 24.2917,16.8848 24.5313,17.3496 C24.7708,17.8145 24.8906,18.3568 24.8906,18.9766 C24.8906,19.5911 24.7708,20.1309 24.5313,20.5957 C24.2917,21.0605 23.9512,21.4225 23.5098,21.6816 C23.0684,21.9408 22.5443,22.0703 21.9375,22.0703 M21.9453,20.7813 C22.2214,20.7813 22.4518,20.7025 22.6367,20.5449 C22.8216,20.3874 22.9616,20.1719 23.0566,19.8984 C23.1517,19.625 23.1992,19.3138 23.1992,18.9648 C23.1992,18.6159 23.1517,18.3047 23.0566,18.0313 C22.9616,17.7578 22.8216,17.5417 22.6367,17.3828 C22.4518,17.224 22.2214,17.1445 21.9453,17.1445 C21.6667,17.1445 21.4329,17.224 21.2441,17.3828 C21.0553,17.5417 20.9134,17.7578 20.8184,18.0313 C20.7233,18.3047 20.6758,18.6159 20.6758,18.9648 C20.6758,19.3138 20.7233,19.625 20.8184,19.8984 C20.9134,20.1719 21.0553,20.3874 21.2441,20.5449 C21.4329,20.7025 21.6667,20.7813 21.9453,20.7813 M31.7148,15.9531 L31.7148,17.2031 L28.1016,17.2031 L28.1016,15.9531 L31.7148,15.9531 M28.9219,14.5156 L30.5859,14.5156 L30.5859,20.1094 C30.5859,20.263 30.6094,20.3822 30.6563,20.4668 C30.7031,20.5514 30.7689,20.6107 30.8535,20.6445 C30.9382,20.6784 31.0365,20.6953 31.1484,20.6953 C31.2266,20.6953 31.3047,20.6882 31.3828,20.6738 C31.4609,20.6595 31.5208,20.6484 31.5625,20.6406 L31.8242,21.8789 C31.7409,21.9049 31.6237,21.9355 31.4727,21.9707 C31.3216,22.0059 31.138,22.0273 30.9219,22.0352 C30.5208,22.0508 30.1699,21.9974 29.8691,21.875 C29.5684,21.7526 29.3346,21.5625 29.168,21.3047 C29.0013,21.0469 28.9193,20.7214 28.9219,20.3281 L28.9219,14.5156 M34.5781,18.4844 L34.5781,21.9531 L32.9141,21.9531 L32.9141,13.9531 L34.5313,13.9531 L34.5313,17.0117 L34.6016,17.0117 C34.737,16.6576 34.9557,16.3796 35.2578,16.1777 C35.5599,15.9759 35.9388,15.875 36.3945,15.875 C36.8112,15.875 37.1751,15.9655 37.4863,16.1465 C37.7975,16.3275 38.0397,16.5866 38.2129,16.9238 C38.3861,17.2611 38.4714,17.6641 38.4688,18.1328 L38.4688,21.9531 L36.8047,21.9531 L36.8047,18.4297 C36.8073,18.0599 36.7142,17.7721 36.5254,17.5664 C36.3366,17.3607 36.0729,17.2578 35.7344,17.2578 C35.5078,17.2578 35.3079,17.306 35.1348,17.4023 C34.9616,17.4987 34.8262,17.6387 34.7285,17.8223 C34.6309,18.0059 34.5807,18.2266 34.5781,18.4844 M39.7734,21.9531 L39.7734,15.9531 L41.4375,15.9531 L41.4375,21.9531 L39.7734,21.9531 M40.6094,15.1797 C40.362,15.1797 40.1504,15.097 39.9746,14.9316 C39.7988,14.7663 39.7109,14.5677 39.7109,14.3359 C39.7109,14.1068 39.7988,13.9095 39.9746,13.7441 C40.1504,13.5788 40.362,13.4961 40.6094,13.4961 C40.8568,13.4961 41.0684,13.5788 41.2441,13.7441 C41.4199,13.9095 41.5078,14.1068 41.5078,14.3359 C41.5078,14.5677 41.4199,14.7663 41.2441,14.9316 C41.0684,15.097 40.8568,15.1797 40.6094,15.1797 M47.75,17.6641 L46.2266,17.7578 C46.2005,17.6276 46.1445,17.5098 46.0586,17.4043 C45.9727,17.2988 45.86,17.2142 45.7207,17.1504 C45.5814,17.0866 45.4154,17.0547 45.2227,17.0547 C44.9648,17.0547 44.7474,17.1087 44.5703,17.2168 C44.3932,17.3249 44.3047,17.4688 44.3047,17.6484 C44.3047,17.7917 44.362,17.9128 44.4766,18.0117 C44.5911,18.1107 44.7878,18.1901 45.0664,18.25 L46.1523,18.4688 C46.7357,18.5885 47.1706,18.7813 47.457,19.0469 C47.7435,19.3125 47.8867,19.6615 47.8867,20.0938 C47.8867,20.487 47.7715,20.832 47.541,21.1289 C47.3105,21.4258 46.9954,21.6569 46.5957,21.8223 C46.196,21.9876 45.7357,22.0703 45.2148,22.0703 C44.4206,22.0703 43.7884,21.9043 43.3184,21.5723 C42.8483,21.2402 42.5729,20.7878 42.4922,20.2148 L44.1289,20.1289 C44.1784,20.3711 44.2982,20.5553 44.4883,20.6816 C44.6784,20.8079 44.9219,20.8711 45.2188,20.8711 C45.5104,20.8711 45.7454,20.8145 45.9238,20.7012 C46.1022,20.5879 46.1927,20.4414 46.1953,20.2617 C46.1927,20.1107 46.1289,19.9863 46.0039,19.8887 C45.8789,19.791 45.6862,19.7161 45.4258,19.6641 L44.3867,19.457 C43.8008,19.3398 43.3652,19.1367 43.0801,18.8477 C42.7949,18.5586 42.6523,18.1901 42.6523,17.7422 C42.6523,17.3568 42.7572,17.0247 42.9668,16.7461 C43.1764,16.4674 43.472,16.2526 43.8535,16.1016 C44.235,15.9505 44.6823,15.875 45.1953,15.875 C45.9531,15.875 46.5501,16.0352 46.9863,16.3555 C47.4225,16.6758 47.6771,17.112 47.75,17.6641 "/>
</g>

<g fill="#ffffff" fill-opacity="1" stroke="none" transform="matrix(1,0,0,1,0,0)"
font-family="Inter" font-size="11" font-weight="700" font-style="normal" 
>
<path vector-effect="none" fill-rule="nonzero" d="M13.9844,78.0664 C13.6016,78.0664 13.2604,77.9993 12.9609,77.8652 C12.6615,77.7311 12.4251,77.5319 12.252,77.2676 C12.0788,77.0033 11.9922,76.6732 11.9922,76.2773 C11.9922,75.944 12.0534,75.6641 12.1758,75.4375 C12.2982,75.2109 12.4648,75.0286 12.6758,74.8906 C12.8867,74.7526 13.127,74.6484 13.3965,74.5781 C13.666,74.5078 13.9492,74.4583 14.2461,74.4297 C14.5951,74.3932 14.8763,74.3587 15.0898,74.3262 C15.3034,74.2936 15.4583,74.2448 15.5547,74.1797 C15.651,74.1146 15.6992,74.0182 15.6992,73.8906 L15.6992,73.8672 C15.6992,73.6198 15.6217,73.4284 15.4668,73.293 C15.3118,73.1576 15.0924,73.0898 14.8086,73.0898 C14.5091,73.0898 14.2708,73.1556 14.0938,73.2871 C13.9167,73.4186 13.7995,73.5833 13.7422,73.7813 L12.2031,73.6563 C12.2813,73.2917 12.4349,72.9759 12.6641,72.709 C12.8932,72.4421 13.1895,72.2363 13.5527,72.0918 C13.916,71.9473 14.3372,71.875 14.8164,71.875 C15.1497,71.875 15.4694,71.9141 15.7754,71.9922 C16.0814,72.0703 16.3535,72.1914 16.5918,72.3555 C16.8301,72.5195 17.0182,72.7298 17.1563,72.9863 C17.2943,73.2428 17.3633,73.5495 17.3633,73.9063 L17.3633,77.9531 L15.7852,77.9531 L15.7852,77.1211 L15.7383,77.1211 C15.6419,77.3086 15.513,77.4733 15.3516,77.6152 C15.1901,77.7572 14.9961,77.8678 14.7695,77.9473 C14.543,78.0267 14.2813,78.0664 13.9844,78.0664 M14.4609,76.918 C14.7057,76.918 14.9219,76.8691 15.1094,76.7715 C15.2969,76.6738 15.444,76.5417 15.5508,76.375 C15.6576,76.2083 15.7109,76.0195 15.7109,75.8086 L15.7109,75.1719 C15.6589,75.2057 15.5879,75.2363 15.498,75.2637 C15.4082,75.291 15.3073,75.3158 15.1953,75.3379 C15.0833,75.36 14.9714,75.3796 14.8594,75.3965 C14.7474,75.4134 14.6458,75.4284 14.5547,75.4414 C14.3594,75.4701 14.1888,75.5156 14.043,75.5781 C13.8971,75.6406 13.7839,75.7246 13.7031,75.8301 C13.6224,75.9355 13.582,76.0664 13.582,76.2227 C13.582,76.4492 13.6647,76.6217 13.8301,76.7402 C13.9954,76.8587 14.2057,76.918 14.4609,76.918 M20.3125,74.4844 L20.3125,77.9531 L18.6484,77.9531 L18.6484,71.9531 L20.2344,71.9531 L20.2344,73.0117 L20.3047,73.0117 C20.4375,72.6628 20.6602,72.3861 20.9727,72.1816 C21.2852,71.9772 21.6641,71.875 22.1094,71.875 C22.526,71.875 22.8893,71.9661 23.1992,72.1484 C23.5091,72.3307 23.75,72.5905 23.9219,72.9277 C24.0938,73.265 24.1797,73.6667 24.1797,74.1328 L24.1797,77.9531 L22.5156,77.9531 L22.5156,74.4297 C22.5182,74.0625 22.4245,73.7754 22.2344,73.5684 C22.0443,73.3613 21.7826,73.2578 21.4492,73.2578 C21.2253,73.2578 21.028,73.306 20.8574,73.4023 C20.6868,73.4987 20.554,73.6387 20.459,73.8223 C20.3639,74.0059 20.3151,74.2266 20.3125,74.4844 M27.6875,78.0508 C27.2318,78.0508 26.8197,77.9329 26.4512,77.6973 C26.0827,77.4616 25.791,77.1139 25.5762,76.6543 C25.3613,76.1947 25.2539,75.6302 25.2539,74.9609 C25.2539,74.2734 25.3646,73.7012 25.5859,73.2441 C25.8073,72.7871 26.1022,72.4447 26.4707,72.2168 C26.8392,71.9889 27.2435,71.875 27.6836,71.875 C28.0195,71.875 28.3001,71.9316 28.5254,72.0449 C28.7507,72.1582 28.9329,72.2988 29.0723,72.4668 C29.2116,72.6348 29.3177,72.7995 29.3906,72.9609 L29.4414,72.9609 L29.4414,69.9531 L31.1016,69.9531 L31.1016,77.9531 L29.4609,77.9531 L29.4609,76.9922 L29.3906,76.9922 C29.3125,77.1589 29.2025,77.3236 29.0605,77.4863 C28.9186,77.6491 28.735,77.7839 28.5098,77.8906 C28.2845,77.9974 28.0104,78.0508 27.6875,78.0508 M28.2148,76.7266 C28.4831,76.7266 28.7103,76.653 28.8965,76.5059 C29.0827,76.3587 29.2259,76.1523 29.3262,75.8867 C29.4264,75.6211 29.4766,75.3099 29.4766,74.9531 C29.4766,74.5964 29.4271,74.2865 29.3281,74.0234 C29.2292,73.7604 29.0859,73.5573 28.8984,73.4141 C28.7109,73.2708 28.4831,73.1992 28.2148,73.1992 C27.9414,73.1992 27.7109,73.2734 27.5234,73.4219 C27.3359,73.5703 27.194,73.776 27.0977,74.0391 C27.0013,74.3021 26.9531,74.6068 26.9531,74.9531 C26.9531,75.3021 27.002,75.61 27.0996,75.877 C27.1973,76.1439 27.3392,76.3522 27.5254,76.502 C27.7116,76.6517 27.9414,76.7266 28.2148,76.7266 M38.1992,71.9531 L38.1992,73.2031 L34.5859,73.2031 L34.5859,71.9531 L38.1992,71.9531 M35.4063,70.5156 L37.0703,70.5156 L37.0703,76.1094 C37.0703,76.263 37.0938,76.3822 37.1406,76.4668 C37.1875,76.5514 37.2533,76.6107 37.3379,76.6445 C37.4225,76.6784 37.5208,76.6953 37.6328,76.6953 C37.7109,76.6953 37.7891,76.6882 37.8672,76.6738 C37.9453,76.6595 38.0052,76.6484 38.0469,76.6406 L38.3086,77.8789 C38.2253,77.9049 38.1081,77.9355 37.957,77.9707 C37.806,78.0059 37.6224,78.0273 37.4063,78.0352 C37.0052,78.0508 36.6543,77.9974 36.3535,77.875 C36.0527,77.7526 35.819,77.5625 35.6523,77.3047 C35.4857,77.0469 35.4036,76.7214 35.4063,76.3281 L35.4063,70.5156 M41.0625,74.4844 L41.0625,77.9531 L39.3984,77.9531 L39.3984,69.9531 L41.0156,69.9531 L41.0156,73.0117 L41.0859,73.0117 C41.2214,72.6576 41.4401,72.3796 41.7422,72.1777 C42.0443,71.9759 42.4232,71.875 42.8789,71.875 C43.2956,71.875 43.6595,71.9655 43.9707,72.1465 C44.2819,72.3275 44.5241,72.5866 44.6973,72.9238 C44.8704,73.2611 44.9557,73.6641 44.9531,74.1328 L44.9531,77.9531 L43.2891,77.9531 L43.2891,74.4297 C43.2917,74.0599 43.1986,73.7721 43.0098,73.5664 C42.821,73.3607 42.5573,73.2578 42.2188,73.2578 C41.9922,73.2578 41.7923,73.306 41.6191,73.4023 C41.446,73.4987 41.3105,73.6387 41.2129,73.8223 C41.1152,74.0059 41.0651,74.2266 41.0625,74.4844 M46.2578,77.9531 L46.2578,71.9531 L47.9219,71.9531 L47.9219,77.9531 L46.2578,77.9531 M47.0938,71.1797 C46.8464,71.1797 46.6348,71.097 46.459,70.9316 C46.2832,70.7663 46.1953,70.5677 46.1953,70.3359 C46.1953,70.1068 46.2832,69.9095 46.459,69.7441 C46.6348,69.5788 46.8464,69.4961 47.0938,69.4961 C47.3411,69.4961 47.5527,69.5788 47.7285,69.7441 C47.9043,69.9095 47.9922,70.1068 47.9922,70.3359 C47.9922,70.5677 47.9043,70.7663 47.7285,70.9316 C47.5527,71.097 47.3411,71.1797 47.0938,71.1797 M54.2344,73.6641 L52.7109,73.7578 C52.6849,73.6276 52.6289,73.5098 52.543,73.4043 C52.457,73.2988 52.3444,73.2142 52.2051,73.1504 C52.0658,73.0866 51.8997,73.0547 51.707,73.0547 C51.4492,73.0547 51.2318,73.1087 51.0547,73.2168 C50.8776,73.3249 50.7891,73.4688 50.7891,73.6484 C50.7891,73.7917 50.8464,73.9128 50.9609,74.0117 C51.0755,74.1107 51.2721,74.1901 51.5508,74.25 L52.6367,74.4688 C53.2201,74.5885 53.6549,74.7813 53.9414,75.0469 C54.2279,75.3125 54.3711,75.6615 54.3711,76.0938 C54.3711,76.487 54.2559,76.832 54.0254,77.1289 C53.7949,77.4258 53.4798,77.6569 53.0801,77.8223 C52.6803,77.9876 52.2201,78.0703 51.6992,78.0703 C50.9049,78.0703 50.2728,77.9043 49.8027,77.5723 C49.3327,77.2402 49.0573,76.7878 48.9766,76.2148 L50.6133,76.1289 C50.6628,76.3711 50.7826,76.5553 50.9727,76.6816 C51.1628,76.8079 51.4063,76.8711 51.7031,76.8711 C51.9948,76.8711 52.2298,76.8145 52.4082,76.7012 C52.5866,76.5879 52.6771,76.4414 52.6797,76.2617 C52.6771,76.1107 52.6133,75.9863 52.4883,75.8887 C52.3633,75.791 52.1706,75.7161 51.9102,75.6641 L50.8711,75.457 C50.2852,75.3398 49.8496,75.1367 49.5645,74.8477 C49.2793,74.5586 49.1367,74.1901 49.1367,73.7422 C49.1367,73.3568 49.2415,73.0247 49.4512,72.7461 C49.6608,72.4674 49.9564,72.2526 50.3379,72.1016 C50.7194,71.9505 51.1667,71.875 51.6797,71.875 C52.4375,71.875 53.0345,72.0352 53.4707,72.3555 C53.9069,72.6758 54.1615,73.112 54.2344,73.6641 "/>
</g>

<g fill="#ffffff" fill-opacity="1" stroke="none" transform="matrix(1,0,0,1,0,0)"
font-family="Inter" font-size="11" font-weight="700" font-style="normal" 
>
</g>

<g fill="#ffffff" fill-opacity="1" stroke="none" transform="matrix(1,0,0,1,0,0)"
font-family="Inter" font-size="11" font-weight="700" font-style="normal" 
>
</g>

<g fill="#ffffff" fill-opacity="1" stroke="none" transform="matrix(1,0,0,1,0,0)"
font-family="Inter" font-size="11" font-weight="700" font-style="normal" 
>
</g>

<g fill="#ffffff" fill-opacity="1" stroke="none" transform="matrix(1,0,0,1,0,0)"
font-family="Inter" font-size="11" font-weight="700" font-style="normal" 
>
</g>

<g fill="#ffffff" fill-opacity="1" stroke="none" transform="matrix(1,0,0,1,0,0)"
font-family="Inter" font-size="11" font-weight="700" font-style="normal" 
>
</g>

<g fill="#ffffff" fill-opacity="1" stroke="none" transform="matrix(1,0,0,1,0,0)"
font-family="Inter" font-size="11" font-weight="700" font-style="normal" 
>
</g>

<g fill="none" stroke="#000000" stroke-opacity="1" stroke-width="1" stroke-linecap="square" stroke-linejoin="bevel" transform="matrix(1,0,0,1,0,0)"
font-family=".AppleSystemUIFont" font-size="13" font-weight="400" font-style="normal" 
>
</g>
</g>
</svg>
