<?xml version="1.0" encoding="UTF-8" standalone="no"?>
<svg width="91.0167mm" height="11.2889mm"
 viewBox="0 0 258 32"
 xmlns="http://www.w3.org/2000/svg" xmlns:xlink="http://www.w3.org/1999/xlink" version="1.2" baseProfile="tiny">
<title>Abstract block</title>
<desc>block_hubs_buwizz_sensors_port_get_current</desc>
<defs>
</defs>
<g fill="none" stroke="black" stroke-width="1" fill-rule="evenodd" stroke-linecap="square" stroke-linejoin="bevel" >

<g fill="none" stroke="#000000" stroke-opacity="1" stroke-width="1" stroke-linecap="square" stroke-linejoin="bevel" transform="matrix(1,0,0,1,0,0)"
font-family=".AppleSystemUIFont" font-size="13" font-weight="400" font-style="normal" 
>
</g>

<g fill="none" stroke="#000000" stroke-opacity="1" stroke-width="1" stroke-linecap="square" stroke-linejoin="bevel" transform="matrix(1,0,0,1,0,0)"
font-family=".AppleSystemUIFont" font-size="13" font-weight="400" font-style="normal" 
>
</g>

<g fill="#1dccf0" fill-opacity="1" stroke="#0da6c5" stroke-opacity="1" stroke-width="1.2" stroke-linecap="square" stroke-linejoin="bevel" transform="matrix(1,0,0,1,0,0)"
font-family=".AppleSystemUIFont" font-size="13" font-weight="400" font-style="normal" 
>
<path vector-effect="none" fill-rule="evenodd" d="M1,16 C1,7.71573 8.16344,1 17,1 L240.667,1 C249.503,1 256.667,7.71573 256.667,16 C256.667,24.2843 249.503,31 240.667,31 L17,31 C8.16344,31 1,24.2843 1,16 "/>
</g>

<g fill="#ffffff" fill-opacity="1" stroke="none" transform="matrix(1,0,0,1,0,0)"
font-family="Inter" font-size="11" font-weight="700" font-style="normal" 
>
<path vector-effect="none" fill-rule="nonzero" d="M189.078,19.6484 C188.464,19.6484 187.936,19.5176 187.494,19.2559 C187.053,18.9941 186.714,18.6302 186.479,18.1641 C186.243,17.6979 186.125,17.1615 186.125,16.5547 C186.125,15.9401 186.244,15.4004 186.482,14.9355 C186.721,14.4707 187.06,14.1074 187.5,13.8457 C187.94,13.584 188.464,13.4531 189.07,13.4531 C189.594,13.4531 190.052,13.5482 190.445,13.7383 C190.839,13.9284 191.15,14.1953 191.379,14.5391 C191.608,14.8828 191.734,15.2865 191.758,15.75 L190.188,15.75 C190.143,15.4505 190.027,15.209 189.838,15.0254 C189.649,14.8418 189.402,14.75 189.098,14.75 C188.84,14.75 188.615,14.8197 188.424,14.959 C188.232,15.0983 188.083,15.3008 187.977,15.5664 C187.87,15.832 187.816,16.1536 187.816,16.5313 C187.816,16.9141 187.869,17.2396 187.975,17.5078 C188.08,17.776 188.229,17.9805 188.422,18.1211 C188.615,18.2617 188.84,18.332 189.098,18.332 C189.288,18.332 189.459,18.293 189.611,18.2148 C189.764,18.1367 189.89,18.0228 189.99,17.873 C190.09,17.7233 190.156,17.543 190.188,17.332 L191.758,17.332 C191.732,17.7904 191.607,18.1934 191.385,18.541 C191.162,18.8887 190.855,19.1602 190.465,19.3555 C190.074,19.5508 189.612,19.6484 189.078,19.6484 M196.668,16.9766 L196.668,13.5313 L198.332,13.5313 L198.332,19.5313 L196.734,19.5313 L196.734,18.4414 L196.672,18.4414 C196.536,18.793 196.312,19.0755 195.998,19.2891 C195.684,19.5026 195.302,19.6094 194.852,19.6094 C194.451,19.6094 194.098,19.5182 193.793,19.3359 C193.488,19.1536 193.251,18.8945 193.08,18.5586 C192.91,18.2227 192.823,17.8203 192.82,17.3516 L192.82,13.5313 L194.484,13.5313 L194.484,17.0547 C194.487,17.4089 194.582,17.6888 194.77,17.8945 C194.957,18.1003 195.208,18.2031 195.523,18.2031 C195.724,18.2031 195.911,18.1569 196.086,18.0645 C196.26,17.972 196.402,17.8346 196.51,17.6523 C196.618,17.4701 196.671,17.2448 196.668,16.9766 M199.648,19.5313 L199.648,13.5313 L201.262,13.5313 L201.262,14.5781 L201.324,14.5781 C201.434,14.2057 201.617,13.9238 201.875,13.7324 C202.133,13.541 202.43,13.4453 202.766,13.4453 C202.849,13.4453 202.939,13.4505 203.035,13.4609 C203.132,13.4714 203.216,13.4857 203.289,13.5039 L203.289,14.9805 C203.211,14.957 203.103,14.9362 202.965,14.918 C202.827,14.8997 202.701,14.8906 202.586,14.8906 C202.341,14.8906 202.123,14.9434 201.932,15.0488 C201.74,15.1543 201.589,15.3008 201.479,15.4883 C201.368,15.6758 201.313,15.8919 201.313,16.1367 L201.313,19.5313 L199.648,19.5313 M204.133,19.5313 L204.133,13.5313 L205.746,13.5313 L205.746,14.5781 L205.809,14.5781 C205.918,14.2057 206.102,13.9238 206.359,13.7324 C206.617,13.541 206.914,13.4453 207.25,13.4453 C207.333,13.4453 207.423,13.4505 207.52,13.4609 C207.616,13.4714 207.701,13.4857 207.773,13.5039 L207.773,14.9805 C207.695,14.957 207.587,14.9362 207.449,14.918 C207.311,14.8997 207.185,14.8906 207.07,14.8906 C206.826,14.8906 206.607,14.9434 206.416,15.0488 C206.225,15.1543 206.074,15.3008 205.963,15.4883 C205.852,15.6758 205.797,15.8919 205.797,16.1367 L205.797,19.5313 L204.133,19.5313 M211.07,19.6484 C210.453,19.6484 209.923,19.5228 209.479,19.2715 C209.035,19.0202 208.693,18.6634 208.453,18.2012 C208.214,17.7389 208.094,17.1914 208.094,16.5586 C208.094,15.9414 208.214,15.3997 208.453,14.9336 C208.693,14.4674 209.031,14.1042 209.467,13.8438 C209.903,13.5833 210.415,13.4531 211.004,13.4531 C211.4,13.4531 211.769,13.5163 212.111,13.6426 C212.454,13.7689 212.753,13.9583 213.01,14.2109 C213.266,14.4635 213.466,14.7806 213.609,15.1621 C213.753,15.5436 213.824,15.9896 213.824,16.5 L213.824,16.957 L208.758,16.957 L208.758,15.9258 L212.258,15.9258 C212.258,15.6862 212.206,15.474 212.102,15.2891 C211.997,15.1042 211.854,14.959 211.67,14.8535 C211.486,14.748 211.273,14.6953 211.031,14.6953 C210.779,14.6953 210.555,14.7533 210.361,14.8691 C210.167,14.985 210.016,15.14 209.906,15.334 C209.797,15.528 209.741,15.7435 209.738,15.9805 L209.738,16.9609 C209.738,17.2578 209.794,17.5143 209.904,17.7305 C210.015,17.9466 210.172,18.1133 210.375,18.2305 C210.578,18.3477 210.819,18.4063 211.098,18.4063 C211.283,18.4063 211.452,18.3802 211.605,18.3281 C211.759,18.276 211.891,18.1979 212,18.0938 C212.109,17.9896 212.193,17.862 212.25,17.7109 L213.789,17.8125 C213.711,18.1823 213.551,18.5046 213.311,18.7793 C213.07,19.054 212.76,19.2676 212.381,19.4199 C212.002,19.5723 211.565,19.6484 211.07,19.6484 M216.563,16.0625 L216.563,19.5313 L214.898,19.5313 L214.898,13.5313 L216.484,13.5313 L216.484,14.5898 L216.555,14.5898 C216.688,14.2409 216.91,13.9642 217.223,13.7598 C217.535,13.5553 217.914,13.4531 218.359,13.4531 C218.776,13.4531 219.139,13.5443 219.449,13.7266 C219.759,13.9089 220,14.1686 220.172,14.5059 C220.344,14.8431 220.43,15.2448 220.43,15.7109 L220.43,19.5313 L218.766,19.5313 L218.766,16.0078 C218.768,15.6406 218.674,15.3535 218.484,15.1465 C218.294,14.9395 218.033,14.8359 217.699,14.8359 C217.475,14.8359 217.278,14.8841 217.107,14.9805 C216.937,15.0768 216.804,15.2168 216.709,15.4004 C216.614,15.584 216.565,15.8047 216.563,16.0625 M224.918,13.5313 L224.918,14.7813 L221.305,14.7813 L221.305,13.5313 L224.918,13.5313 M222.125,12.0938 L223.789,12.0938 L223.789,17.6875 C223.789,17.8411 223.813,17.9603 223.859,18.0449 C223.906,18.1296 223.972,18.1888 224.057,18.2227 C224.141,18.2565 224.24,18.2734 224.352,18.2734 C224.43,18.2734 224.508,18.2663 224.586,18.252 C224.664,18.2376 224.724,18.2266 224.766,18.2188 L225.027,19.457 C224.944,19.4831 224.827,19.5137 224.676,19.5488 C224.525,19.584 224.341,19.6055 224.125,19.6133 C223.724,19.6289 223.373,19.5755 223.072,19.4531 C222.771,19.3307 222.538,19.1406 222.371,18.8828 C222.204,18.625 222.122,18.2995 222.125,17.9063 L222.125,12.0938 M228.906,15.5313 C228.906,14.5625 229.036,13.6706 229.295,12.8555 C229.554,12.0404 229.951,11.2852 230.484,10.5898 L232.074,10.5898 C231.871,10.8477 231.682,11.1621 231.508,11.5332 C231.333,11.9043 231.181,12.3112 231.051,12.7539 C230.921,13.1966 230.819,13.6543 230.746,14.127 C230.673,14.5996 230.637,15.0677 230.637,15.5313 C230.637,16.1484 230.7,16.7715 230.826,17.4004 C230.952,18.0293 231.124,18.6133 231.342,19.1523 C231.559,19.6914 231.803,20.1328 232.074,20.4766 L230.484,20.4766 C229.951,19.7813 229.554,19.026 229.295,18.2109 C229.036,17.3958 228.906,16.5026 228.906,15.5313 M234.449,19.5313 L232.637,19.5313 L235.398,11.5313 L237.578,11.5313 L240.336,19.5313 L238.523,19.5313 L236.52,13.3594 L236.457,13.3594 L234.449,19.5313 M234.336,16.3867 L238.617,16.3867 L238.617,17.707 L234.336,17.707 L234.336,16.3867 M244.063,15.5313 C244.063,16.5026 243.933,17.3958 243.674,18.2109 C243.415,19.026 243.018,19.7813 242.484,20.4766 L240.895,20.4766 C241.098,20.2188 241.286,19.9036 241.461,19.5313 C241.635,19.1589 241.788,18.752 241.918,18.3105 C242.048,17.8691 242.15,17.4115 242.223,16.9375 C242.296,16.4635 242.332,15.9948 242.332,15.5313 C242.332,14.9141 242.269,14.291 242.143,13.6621 C242.016,13.0332 241.844,12.4499 241.627,11.9121 C241.41,11.3743 241.165,10.9336 240.895,10.5898 L242.484,10.5898 C243.018,11.2852 243.415,12.0404 243.674,12.8555 C243.933,13.6706 244.063,14.5625 244.063,15.5313 "/>
</g>

<g fill="#ffffff" fill-opacity="1" stroke="none" transform="matrix(0.0285,0,0,0.0285,11.2928,4.44754)"
font-family="Inter" font-size="11" font-weight="700" font-style="normal" 
>
<path vector-effect="none" fill-rule="nonzero" d="M410.778,59.991 C376.729,59.991 346.629,75.6235 326.182,99.684 C216.768,129.689 131.433,215.271 101.927,324.891 C79.5232,345.494 65.3275,374.762 65.54,407.6 C65.7463,439.573 79.3407,468.172 100.975,488.421 C130.228,601.34 218.744,689.335 331.859,718.096 C331.956,718.125 331.989,718.313 332.085,718.338 C352.242,738.376 380.064,750.708 410.778,750.708 C441.492,750.708 469.314,738.376 489.47,718.338 C489.549,718.262 489.618,718.17 489.696,718.096 C604.323,688.948 693.738,598.994 721.758,483.921 C742.939,463.42 756.216,434.907 756.015,403.1 C755.801,370.079 741.086,340.899 718.209,320.633 C687.622,213.077 603.338,129.291 495.373,99.684 C474.926,75.6235 444.827,59.991 410.778,59.991 M410.778,91.8938 C455.052,91.8938 490.89,127.731 490.89,172.006 C490.89,216.28 455.052,252.102 410.778,252.102 C366.503,252.102 330.666,216.28 330.666,172.006 C330.666,127.731 366.503,91.8938 410.778,91.8938 M177.071,325.601 C221.346,325.601 257.183,361.438 257.183,405.713 C257.183,449.987 221.346,485.808 177.071,485.808 C132.796,485.808 96.7332,449.987 96.7332,405.713 C96.7332,361.438 132.796,325.601 177.071,325.601 M644.485,325.601 C688.763,325.601 724.822,361.438 724.822,405.713 C724.822,449.987 688.763,485.808 644.485,485.808 C600.21,485.808 564.373,449.987 564.373,405.713 C564.373,361.438 600.21,325.601 644.485,325.601 M396.601,335.762 L424.955,335.762 C431.754,335.762 437.245,342.538 437.245,350.891 L437.245,381.6 L467.971,381.6 C476.323,381.6 483.083,387.091 483.083,393.89 L483.083,422.245 C483.083,429.044 476.323,434.535 467.971,434.535 L437.245,434.535 L437.245,465.26 C437.245,473.612 431.754,480.373 424.955,480.373 L396.601,480.373 C389.801,480.373 384.31,473.613 384.31,465.26 L384.31,434.535 L353.585,434.535 C345.233,434.535 338.472,429.044 338.472,422.245 L338.472,393.89 C338.472,387.091 345.232,381.6 353.585,381.6 L384.31,381.6 L384.31,350.891 C384.31,342.539 389.801,335.762 396.601,335.762 M410.778,559.307 C455.052,559.307 490.89,595.371 490.89,639.645 C490.89,683.918 455.052,719.757 410.778,719.757 C366.503,719.757 330.666,683.918 330.666,639.645 C330.666,595.371 366.503,559.307 410.778,559.307 "/>
</g>

<g fill="none" stroke="#000000" stroke-opacity="1" stroke-width="22.7975" stroke-linecap="round" stroke-linejoin="round" transform="matrix(0.0285,0,0,0.0285,11.2928,4.44754)"
font-family="Inter" font-size="11" font-weight="700" font-style="normal" 
>
<path vector-effect="none" fill-rule="nonzero" d="M410.778,59.991 C376.729,59.991 346.629,75.6235 326.182,99.684 C216.768,129.689 131.433,215.271 101.927,324.891 C79.5232,345.494 65.3275,374.762 65.54,407.6 C65.7463,439.573 79.3407,468.172 100.975,488.421 C130.228,601.34 218.744,689.335 331.859,718.096 C331.956,718.125 331.989,718.313 332.085,718.338 C352.242,738.376 380.064,750.708 410.778,750.708 C441.492,750.708 469.314,738.376 489.47,718.338 C489.549,718.262 489.618,718.17 489.696,718.096 C604.323,688.948 693.738,598.994 721.758,483.921 C742.939,463.42 756.216,434.907 756.015,403.1 C755.801,370.079 741.086,340.899 718.209,320.633 C687.622,213.077 603.338,129.291 495.373,99.684 C474.926,75.6235 444.827,59.991 410.778,59.991 M410.778,91.8938 C455.052,91.8938 490.89,127.731 490.89,172.006 C490.89,216.28 455.052,252.102 410.778,252.102 C366.503,252.102 330.666,216.28 330.666,172.006 C330.666,127.731 366.503,91.8938 410.778,91.8938 M177.071,325.601 C221.346,325.601 257.183,361.438 257.183,405.713 C257.183,449.987 221.346,485.808 177.071,485.808 C132.796,485.808 96.7332,449.987 96.7332,405.713 C96.7332,361.438 132.796,325.601 177.071,325.601 M644.485,325.601 C688.763,325.601 724.822,361.438 724.822,405.713 C724.822,449.987 688.763,485.808 644.485,485.808 C600.21,485.808 564.373,449.987 564.373,405.713 C564.373,361.438 600.21,325.601 644.485,325.601 M396.601,335.762 L424.955,335.762 C431.754,335.762 437.245,342.538 437.245,350.891 L437.245,381.6 L467.971,381.6 C476.323,381.6 483.083,387.091 483.083,393.89 L483.083,422.245 C483.083,429.044 476.323,434.535 467.971,434.535 L437.245,434.535 L437.245,465.26 C437.245,473.612 431.754,480.373 424.955,480.373 L396.601,480.373 C389.801,480.373 384.31,473.613 384.31,465.26 L384.31,434.535 L353.585,434.535 C345.233,434.535 338.472,429.044 338.472,422.245 L338.472,393.89 C338.472,387.091 345.232,381.6 353.585,381.6 L384.31,381.6 L384.31,350.891 C384.31,342.539 389.801,335.762 396.601,335.762 M410.778,559.307 C455.052,559.307 490.89,595.371 490.89,639.645 C490.89,683.918 455.052,719.757 410.778,719.757 C366.503,719.757 330.666,683.918 330.666,639.645 C330.666,595.371 366.503,559.307 410.778,559.307 "/>
</g>

<g fill="#000000" fill-opacity="1" stroke="none" transform="matrix(0.0285,0,0,0.0285,11.2928,4.44754)"
font-family="Inter" font-size="11" font-weight="700" font-style="normal" 
>
<path vector-effect="none" fill-rule="evenodd" d="M394.961,355.661 C394.961,347.613 401.485,341.088 409.533,341.088 C417.582,341.088 424.106,347.613 424.106,355.661 L424.106,457.48 C424.106,465.528 417.582,472.053 409.533,472.053 C401.485,472.053 394.961,465.528 394.961,457.48 L394.961,355.661"/>
</g>

<g fill="none" stroke="#000000" stroke-opacity="1" stroke-width="20" stroke-linecap="round" stroke-linejoin="round" transform="matrix(0.0285,0,0,0.0285,11.2928,4.44754)"
font-family="Inter" font-size="11" font-weight="700" font-style="normal" 
>
<path vector-effect="none" fill-rule="evenodd" d="M394.961,355.661 C394.961,347.613 401.485,341.088 409.533,341.088 C417.582,341.088 424.106,347.613 424.106,355.661 L424.106,457.48 C424.106,465.528 417.582,472.053 409.533,472.053 C401.485,472.053 394.961,465.528 394.961,457.48 L394.961,355.661"/>
</g>

<g fill="#000000" fill-opacity="1" stroke="none" transform="matrix(0,0.0285,-0.0285,0,11.2928,4.44754)"
font-family="Inter" font-size="11" font-weight="700" font-style="normal" 
>
<path vector-effect="none" fill-rule="evenodd" d="M394.152,-461.016 C394.152,-469.064 400.676,-475.588 408.724,-475.588 C416.773,-475.588 423.297,-469.064 423.297,-461.016 L423.297,-359.196 C423.297,-351.148 416.773,-344.624 408.724,-344.624 C400.676,-344.624 394.152,-351.148 394.152,-359.196 L394.152,-461.016"/>
</g>

<g fill="none" stroke="#000000" stroke-opacity="1" stroke-width="20" stroke-linecap="round" stroke-linejoin="round" transform="matrix(0,0.0285,-0.0285,0,11.2928,4.44754)"
font-family="Inter" font-size="11" font-weight="700" font-style="normal" 
>
<path vector-effect="none" fill-rule="evenodd" d="M394.152,-461.016 C394.152,-469.064 400.676,-475.588 408.724,-475.588 C416.773,-475.588 423.297,-469.064 423.297,-461.016 L423.297,-359.196 C423.297,-351.148 416.773,-344.624 408.724,-344.624 C400.676,-344.624 394.152,-351.148 394.152,-359.196 L394.152,-461.016"/>
</g>

<g fill="#ffffff" fill-opacity="1" stroke="none" transform="matrix(1,0,0,1,0,0)"
font-family="Inter" font-size="11" font-weight="700" font-style="normal" 
>
</g>

<g fill="#ffffff" fill-opacity="1" stroke="#0da6c5" stroke-opacity="1" stroke-width="1" stroke-linecap="square" stroke-linejoin="bevel" transform="matrix(1,0,0,1,0,0)"
font-family="Inter" font-size="11" font-weight="700" font-style="normal" 
>
<polyline fill="none" vector-effect="none" points="45,6 45,26 " />
</g>

<g fill="#ffffff" fill-opacity="1" stroke="#0da6c5" stroke-opacity="1" stroke-width="1" stroke-linecap="square" stroke-linejoin="bevel" transform="matrix(1,0,0,1,0,0)"
font-family="Inter" font-size="11" font-weight="700" font-style="normal" 
>
</g>

<g fill="#ffffff" fill-opacity="1" stroke="#0da6c5" stroke-opacity="1" stroke-width="1" stroke-linecap="square" stroke-linejoin="bevel" transform="matrix(1,0,0,1,0,0)"
font-family="Inter" font-size="11" font-weight="700" font-style="normal" 
>
</g>

<g fill="#0da6c5" fill-opacity="1" stroke="#0da6c5" stroke-opacity="1" stroke-width="1.2" stroke-linecap="square" stroke-linejoin="bevel" transform="matrix(1,0,0,1,144,4)"
font-family="Inter" font-size="11" font-weight="700" font-style="normal" 
>
<path vector-effect="none" fill-rule="evenodd" d="M0.5,12 C0.5,5.64873 5.87258,0.5 12.5,0.5 L23.5,0.5 C30.1274,0.5 35.5,5.64873 35.5,12 C35.5,18.3513 30.1274,23.5 23.5,23.5 L12.5,23.5 C5.87258,23.5 0.5,18.3513 0.5,12 "/>
</g>

<g fill="#ffffff" fill-opacity="1" stroke="none" transform="matrix(1,0,0,1,144,4)"
font-family="Inter" font-size="11" font-weight="700" font-style="normal" 
>
<path vector-effect="none" fill-rule="nonzero" d="M13.582,8 L13.582,16 L11.8906,16 L11.8906,9.60547 L11.8438,9.60547 L10.0117,10.7539 L10.0117,9.25391 L11.9922,8 L13.582,8"/>
</g>

<g fill="#ffffff" fill-opacity="1" stroke="none" transform="matrix(0.03125,0,0,0.03125,166,12)"
font-family="Inter" font-size="11" font-weight="700" font-style="normal" 
>
<path vector-effect="none" fill-rule="nonzero" d="M111.326,191.938 C120.545,201.158 135.517,201.158 144.737,191.938 L239.144,97.5313 C245.929,90.7458 247.921,80.6413 244.233,71.7907 C240.545,62.9401 231.989,57.1871 222.401,57.1871 L33.5875,57.2608 C24.0731,57.2608 15.4437,63.0137 11.7559,71.8644 C8.06815,80.715 10.1333,90.8195 16.845,97.605 L111.252,192.012 L111.326,191.938"/>
</g>

<g fill="none" stroke="#000000" stroke-opacity="1" stroke-width="13.7195" stroke-linecap="butt" stroke-linejoin="miter" stroke-miterlimit="4" transform="matrix(0.03125,0,0,0.03125,166,12)"
font-family="Inter" font-size="11" font-weight="700" font-style="normal" 
>
<path vector-effect="none" fill-rule="nonzero" d="M111.326,191.938 C120.545,201.158 135.517,201.158 144.737,191.938 L239.144,97.5313 C245.929,90.7458 247.921,80.6413 244.233,71.7907 C240.545,62.9401 231.989,57.1871 222.401,57.1871 L33.5875,57.2608 C24.0731,57.2608 15.4437,63.0137 11.7559,71.8644 C8.06815,80.715 10.1333,90.8195 16.845,97.605 L111.252,192.012 L111.326,191.938"/>
</g>

<g fill="#ffffff" fill-opacity="1" stroke="none" transform="matrix(1,0,0,1,144,4)"
font-family="Inter" font-size="11" font-weight="700" font-style="normal" 
>
</g>

<g fill="#ffffff" fill-opacity="1" stroke="#0da6c5" stroke-opacity="1" stroke-width="1" stroke-linecap="square" stroke-linejoin="bevel" transform="matrix(1,0,0,1,0,0)"
font-family="Inter" font-size="11" font-weight="700" font-style="normal" 
>
</g>

<g fill="#1dccf0" fill-opacity="1" stroke="#0da6c5" stroke-opacity="1" stroke-width="1.2" stroke-linecap="square" stroke-linejoin="bevel" transform="matrix(1,0,0,1,56,4)"
font-family="Inter" font-size="11" font-weight="700" font-style="normal" 
>
<path vector-effect="none" fill-rule="evenodd" d="M0.5,3.5 C0.5,1.84315 1.84315,0.5 3.5,0.5 L80.5,0.5 C82.1569,0.5 83.5,1.84315 83.5,3.5 L83.5,20.5 C83.5,22.1569 82.1569,23.5 80.5,23.5 L3.5,23.5 C1.84315,23.5 0.5,22.1569 0.5,20.5 L0.5,3.5"/>
</g>

<g fill="#ffffff" fill-opacity="1" stroke="none" transform="matrix(1,0,0,1,56,4)"
font-family="Inter" font-size="11" font-weight="700" font-style="normal" 
>
<path vector-effect="none" fill-rule="nonzero" d="M10.0078,16 L10.0078,8 L13.2109,8 C13.7995,8 14.2904,8.08724 14.6836,8.26172 C15.0768,8.4362 15.3724,8.67773 15.5703,8.98633 C15.7682,9.29492 15.8672,9.64974 15.8672,10.0508 C15.8672,10.3633 15.8047,10.6374 15.6797,10.873 C15.5547,11.1087 15.3835,11.3014 15.166,11.4512 C14.9486,11.6009 14.7005,11.707 14.4219,11.7695 L14.4219,11.8477 C14.7266,11.8607 15.0124,11.9466 15.2793,12.1055 C15.5462,12.2643 15.763,12.4863 15.9297,12.7715 C16.0964,13.0566 16.1797,13.3958 16.1797,13.7891 C16.1797,14.2135 16.0749,14.5918 15.8652,14.9238 C15.6556,15.2559 15.3464,15.5182 14.9375,15.7109 C14.5286,15.9036 14.0247,16 13.4258,16 L10.0078,16 M11.6992,14.6172 L13.0781,14.6172 C13.5495,14.6172 13.8932,14.5267 14.1094,14.3457 C14.3255,14.1647 14.4336,13.9232 14.4336,13.6211 C14.4336,13.3997 14.3802,13.2044 14.2734,13.0352 C14.1667,12.8659 14.015,12.7331 13.8184,12.6367 C13.6217,12.5404 13.388,12.4922 13.1172,12.4922 L11.6992,12.4922 L11.6992,14.6172 M11.6992,11.3477 L12.9531,11.3477 C13.1849,11.3477 13.3913,11.3066 13.5723,11.2246 C13.7533,11.1426 13.8965,11.026 14.002,10.875 C14.1074,10.724 14.1602,10.543 14.1602,10.332 C14.1602,10.043 14.0579,9.8099 13.8535,9.63281 C13.6491,9.45573 13.3594,9.36719 12.9844,9.36719 L11.6992,9.36719 L11.6992,11.3477 M19.0742,16 L16.7852,8 L18.6328,8 L19.957,13.5586 L20.0234,13.5586 L21.4844,8 L23.0664,8 L24.5234,13.5703 L24.5938,13.5703 L25.918,8 L27.7656,8 L25.4766,16 L23.8281,16 L22.3047,10.7695 L22.2422,10.7695 L20.7227,16 L19.0742,16 M28.5781,16 L28.5781,14.9961 L32.5703,9.39453 L28.5703,9.39453 L28.5703,8 L34.6953,8 L34.6953,9.00391 L30.6992,14.6055 L34.7031,14.6055 L34.7031,16 L28.5781,16 M35.9453,16 L35.9453,14.7813 L38.793,12.1445 C39.0352,11.9102 39.2389,11.6992 39.4043,11.5117 C39.5697,11.3242 39.6953,11.14 39.7813,10.959 C39.8672,10.778 39.9102,10.582 39.9102,10.3711 C39.9102,10.1367 39.8568,9.93424 39.75,9.76367 C39.6432,9.5931 39.4974,9.46159 39.3125,9.36914 C39.1276,9.27669 38.918,9.23047 38.6836,9.23047 C38.4388,9.23047 38.2253,9.27995 38.043,9.37891 C37.8607,9.47786 37.7201,9.61979 37.6211,9.80469 C37.5221,9.98958 37.4727,10.2096 37.4727,10.4648 L35.8672,10.4648 C35.8672,9.94141 35.9857,9.48698 36.2227,9.10156 C36.4596,8.71615 36.7917,8.41797 37.2188,8.20703 C37.6458,7.99609 38.138,7.89063 38.6953,7.89063 C39.2682,7.89063 39.7676,7.99154 40.1934,8.19336 C40.6191,8.39518 40.9505,8.67448 41.1875,9.03125 C41.4245,9.38802 41.543,9.79688 41.543,10.2578 C41.543,10.5599 41.4837,10.8581 41.3652,11.1523 C41.2467,11.4466 41.0365,11.7728 40.7344,12.1309 C40.4323,12.4889 40.0065,12.918 39.457,13.418 L38.2891,14.5625 L38.2891,14.6172 L41.6484,14.6172 L41.6484,16 L35.9453,16 M42.9141,16 L42.9141,8 L44.6055,8 L44.6055,11.3008 L48.0391,11.3008 L48.0391,8 L49.7266,8 L49.7266,16 L48.0391,16 L48.0391,12.6953 L44.6055,12.6953 L44.6055,16 L42.9141,16 M51.1172,16 L51.1172,8 L54.3203,8 C54.9089,8 55.3997,8.08724 55.793,8.26172 C56.1862,8.4362 56.4818,8.67773 56.6797,8.98633 C56.8776,9.29492 56.9766,9.64974 56.9766,10.0508 C56.9766,10.3633 56.9141,10.6374 56.7891,10.873 C56.6641,11.1087 56.4928,11.3014 56.2754,11.4512 C56.0579,11.6009 55.8099,11.707 55.5313,11.7695 L55.5313,11.8477 C55.8359,11.8607 56.1217,11.9466 56.3887,12.1055 C56.6556,12.2643 56.8724,12.4863 57.0391,12.7715 C57.2057,13.0566 57.2891,13.3958 57.2891,13.7891 C57.2891,14.2135 57.1842,14.5918 56.9746,14.9238 C56.765,15.2559 56.4557,15.5182 56.0469,15.7109 C55.638,15.9036 55.1341,16 54.5352,16 L51.1172,16 M52.8086,14.6172 L54.1875,14.6172 C54.6589,14.6172 55.0026,14.5267 55.2188,14.3457 C55.4349,14.1647 55.543,13.9232 55.543,13.6211 C55.543,13.3997 55.4896,13.2044 55.3828,13.0352 C55.276,12.8659 55.1243,12.7331 54.9277,12.6367 C54.7311,12.5404 54.4974,12.4922 54.2266,12.4922 L52.8086,12.4922 L52.8086,14.6172 M52.8086,11.3477 L54.0625,11.3477 C54.2943,11.3477 54.5007,11.3066 54.6816,11.2246 C54.8626,11.1426 55.0059,11.026 55.1113,10.875 C55.2168,10.724 55.2695,10.543 55.2695,10.332 C55.2695,10.043 55.1673,9.8099 54.9629,9.63281 C54.7585,9.45573 54.4688,9.36719 54.0938,9.36719 L52.8086,9.36719 L52.8086,11.3477 M61.8164,8 L61.8164,16 L60.125,16 L60.125,9.60547 L60.0781,9.60547 L58.2461,10.7539 L58.2461,9.25391 L60.2266,8 L61.8164,8"/>
</g>

<g fill="#ffffff" fill-opacity="1" stroke="none" transform="matrix(0.03125,0,0,0.03125,126,12)"
font-family="Inter" font-size="11" font-weight="700" font-style="normal" 
>
<path vector-effect="none" fill-rule="nonzero" d="M111.326,191.938 C120.545,201.158 135.517,201.158 144.737,191.938 L239.144,97.5313 C245.929,90.7458 247.921,80.6413 244.233,71.7907 C240.545,62.9401 231.989,57.1871 222.401,57.1871 L33.5875,57.2608 C24.0731,57.2608 15.4437,63.0137 11.7559,71.8644 C8.06815,80.715 10.1333,90.8195 16.845,97.605 L111.252,192.012 L111.326,191.938"/>
</g>

<g fill="none" stroke="#000000" stroke-opacity="1" stroke-width="13.7195" stroke-linecap="butt" stroke-linejoin="miter" stroke-miterlimit="4" transform="matrix(0.03125,0,0,0.03125,126,12)"
font-family="Inter" font-size="11" font-weight="700" font-style="normal" 
>
<path vector-effect="none" fill-rule="nonzero" d="M111.326,191.938 C120.545,201.158 135.517,201.158 144.737,191.938 L239.144,97.5313 C245.929,90.7458 247.921,80.6413 244.233,71.7907 C240.545,62.9401 231.989,57.1871 222.401,57.1871 L33.5875,57.2608 C24.0731,57.2608 15.4437,63.0137 11.7559,71.8644 C8.06815,80.715 10.1333,90.8195 16.845,97.605 L111.252,192.012 L111.326,191.938"/>
</g>

<g fill="#ffffff" fill-opacity="1" stroke="none" transform="matrix(1,0,0,1,56,4)"
font-family="Inter" font-size="11" font-weight="700" font-style="normal" 
>
</g>

<g fill="#ffffff" fill-opacity="1" stroke="#0da6c5" stroke-opacity="1" stroke-width="1" stroke-linecap="square" stroke-linejoin="bevel" transform="matrix(1,0,0,1,0,0)"
font-family="Inter" font-size="11" font-weight="700" font-style="normal" 
>
</g>

<g fill="none" stroke="#000000" stroke-opacity="1" stroke-width="1" stroke-linecap="square" stroke-linejoin="bevel" transform="matrix(1,0,0,1,0,0)"
font-family=".AppleSystemUIFont" font-size="13" font-weight="400" font-style="normal" 
>
</g>
</g>
</svg>
