<?xml version="1.0" encoding="UTF-8" standalone="no"?>
<svg width="94.1917mm" height="11.2889mm"
 viewBox="0 0 267 32"
 xmlns="http://www.w3.org/2000/svg" xmlns:xlink="http://www.w3.org/1999/xlink" version="1.2" baseProfile="tiny">
<title>Abstract block</title>
<desc>block_dashboard_controller_button_value_boolean</desc>
<defs>
</defs>
<g fill="none" stroke="black" stroke-width="1" fill-rule="evenodd" stroke-linecap="square" stroke-linejoin="bevel" >

<g fill="none" stroke="#000000" stroke-opacity="1" stroke-width="1" stroke-linecap="square" stroke-linejoin="bevel" transform="matrix(1,0,0,1,0,0)"
font-family=".AppleSystemUIFont" font-size="13" font-weight="400" font-style="normal" 
>
</g>

<g fill="none" stroke="#000000" stroke-opacity="1" stroke-width="1" stroke-linecap="square" stroke-linejoin="bevel" transform="matrix(1,0,0,1,0,0)"
font-family=".AppleSystemUIFont" font-size="13" font-weight="400" font-style="normal" 
>
</g>

<g fill="#009f94" fill-opacity="1" stroke="#00645c" stroke-opacity="1" stroke-width="1.2" stroke-linecap="square" stroke-linejoin="bevel" transform="matrix(1,0,0,1,0,0)"
font-family=".AppleSystemUIFont" font-size="13" font-weight="400" font-style="normal" 
>
<path vector-effect="none" fill-rule="evenodd" d="M0,16 L16,0 L250.667,0 L266.667,16 L250.667,32 L16,32 L0,16"/>
</g>

<g fill="#ffffff" fill-opacity="1" stroke="none" transform="matrix(1,0,0,1,0,0)"
font-family="Inter" font-size="11" font-weight="700" font-style="normal" 
>
<path vector-effect="none" fill-rule="nonzero" d="M52.1016,19.9531 L52.1016,13.9531 L53.7656,13.9531 L53.7656,19.9531 L52.1016,19.9531 M52.9375,13.1797 C52.6901,13.1797 52.4785,13.097 52.3027,12.9316 C52.127,12.7663 52.0391,12.5677 52.0391,12.3359 C52.0391,12.1068 52.127,11.9095 52.3027,11.7441 C52.4785,11.5788 52.6901,11.4961 52.9375,11.4961 C53.1849,11.4961 53.3965,11.5788 53.5723,11.7441 C53.748,11.9095 53.8359,12.1068 53.8359,12.3359 C53.8359,12.5677 53.748,12.7663 53.5723,12.9316 C53.3965,13.097 53.1849,13.1797 52.9375,13.1797 M60.0781,15.6641 L58.5547,15.7578 C58.5286,15.6276 58.4727,15.5098 58.3867,15.4043 C58.3008,15.2988 58.1882,15.2142 58.0488,15.1504 C57.9095,15.0866 57.7435,15.0547 57.5508,15.0547 C57.293,15.0547 57.0755,15.1087 56.8984,15.2168 C56.7214,15.3249 56.6328,15.4688 56.6328,15.6484 C56.6328,15.7917 56.6901,15.9128 56.8047,16.0117 C56.9193,16.1107 57.1159,16.1901 57.3945,16.25 L58.4805,16.4688 C59.0638,16.5885 59.4987,16.7813 59.7852,17.0469 C60.0716,17.3125 60.2148,17.6615 60.2148,18.0938 C60.2148,18.487 60.0996,18.832 59.8691,19.1289 C59.6387,19.4258 59.3236,19.6569 58.9238,19.8223 C58.5241,19.9876 58.0638,20.0703 57.543,20.0703 C56.7487,20.0703 56.1165,19.9043 55.6465,19.5723 C55.1764,19.2402 54.901,18.7878 54.8203,18.2148 L56.457,18.1289 C56.5065,18.3711 56.6263,18.5553 56.8164,18.6816 C57.0065,18.8079 57.25,18.8711 57.5469,18.8711 C57.8385,18.8711 58.0736,18.8145 58.252,18.7012 C58.4303,18.5879 58.5208,18.4414 58.5234,18.2617 C58.5208,18.1107 58.457,17.9863 58.332,17.8887 C58.207,17.791 58.0143,17.7161 57.7539,17.6641 L56.7148,17.457 C56.1289,17.3398 55.6934,17.1367 55.4082,16.8477 C55.123,16.5586 54.9805,16.1901 54.9805,15.7422 C54.9805,15.3568 55.0853,15.0247 55.2949,14.7461 C55.5046,14.4674 55.8001,14.2526 56.1816,14.1016 C56.5632,13.9505 57.0104,13.875 57.5234,13.875 C58.2813,13.875 58.8783,14.0352 59.3145,14.3555 C59.7507,14.6758 60.0052,15.112 60.0781,15.6641 M63.8359,19.9531 L63.8359,11.9531 L65.5,11.9531 L65.5,14.9609 L65.5508,14.9609 C65.6237,14.7995 65.7298,14.6348 65.8691,14.4668 C66.0085,14.2988 66.1908,14.1582 66.416,14.0449 C66.6413,13.9316 66.9219,13.875 67.2578,13.875 C67.6953,13.875 68.099,13.9889 68.4688,14.2168 C68.8385,14.4447 69.1341,14.7871 69.3555,15.2441 C69.5768,15.7012 69.6875,16.2734 69.6875,16.9609 C69.6875,17.6302 69.5801,18.1947 69.3652,18.6543 C69.1504,19.1139 68.8587,19.4616 68.4902,19.6973 C68.1217,19.9329 67.7096,20.0508 67.2539,20.0508 C66.931,20.0508 66.6569,19.9974 66.4316,19.8906 C66.2064,19.7839 66.0221,19.6491 65.8789,19.4863 C65.7357,19.3236 65.6263,19.1589 65.5508,18.9922 L65.4766,18.9922 L65.4766,19.9531 L63.8359,19.9531 M65.4648,16.9531 C65.4648,17.3099 65.5143,17.6211 65.6133,17.8867 C65.7122,18.1523 65.8555,18.3587 66.043,18.5059 C66.2305,18.653 66.4583,18.7266 66.7266,18.7266 C66.9974,18.7266 67.2266,18.6517 67.4141,18.502 C67.6016,18.3522 67.7441,18.1439 67.8418,17.877 C67.9395,17.61 67.9883,17.3021 67.9883,16.9531 C67.9883,16.6068 67.9401,16.3021 67.8438,16.0391 C67.7474,15.776 67.6055,15.5703 67.418,15.4219 C67.2305,15.2734 67,15.1992 66.7266,15.1992 C66.4557,15.1992 66.2272,15.2708 66.041,15.4141 C65.8548,15.5573 65.7122,15.7604 65.6133,16.0234 C65.5143,16.2865 65.4648,16.5964 65.4648,16.9531 M74.6367,17.3984 L74.6367,13.9531 L76.3008,13.9531 L76.3008,19.9531 L74.7031,19.9531 L74.7031,18.8633 L74.6406,18.8633 C74.5052,19.2148 74.2806,19.4974 73.9668,19.7109 C73.653,19.9245 73.2708,20.0313 72.8203,20.0313 C72.4193,20.0313 72.0664,19.9401 71.7617,19.7578 C71.457,19.5755 71.2194,19.3164 71.0488,18.9805 C70.8783,18.6445 70.7917,18.2422 70.7891,17.7734 L70.7891,13.9531 L72.4531,13.9531 L72.4531,17.4766 C72.4557,17.8307 72.5508,18.1107 72.7383,18.3164 C72.9258,18.5221 73.1771,18.625 73.4922,18.625 C73.6927,18.625 73.8802,18.5788 74.0547,18.4863 C74.2292,18.3939 74.3704,18.2565 74.4785,18.0742 C74.5866,17.8919 74.6393,17.6667 74.6367,17.3984 M80.8086,13.9531 L80.8086,15.2031 L77.1953,15.2031 L77.1953,13.9531 L80.8086,13.9531 M78.0156,12.5156 L79.6797,12.5156 L79.6797,18.1094 C79.6797,18.263 79.7031,18.3822 79.75,18.4668 C79.7969,18.5514 79.8626,18.6107 79.9473,18.6445 C80.0319,18.6784 80.1302,18.6953 80.2422,18.6953 C80.3203,18.6953 80.3984,18.6882 80.4766,18.6738 C80.5547,18.6595 80.6146,18.6484 80.6563,18.6406 L80.918,19.8789 C80.8346,19.9049 80.7174,19.9355 80.5664,19.9707 C80.4154,20.0059 80.2318,20.0273 80.0156,20.0352 C79.6146,20.0508 79.2637,19.9974 78.9629,19.875 C78.6621,19.7526 78.4284,19.5625 78.2617,19.3047 C78.0951,19.0469 78.013,18.7214 78.0156,18.3281 L78.0156,12.5156 M85.0742,13.9531 L85.0742,15.2031 L81.4609,15.2031 L81.4609,13.9531 L85.0742,13.9531 M82.2813,12.5156 L83.9453,12.5156 L83.9453,18.1094 C83.9453,18.263 83.9688,18.3822 84.0156,18.4668 C84.0625,18.5514 84.1283,18.6107 84.2129,18.6445 C84.2975,18.6784 84.3958,18.6953 84.5078,18.6953 C84.5859,18.6953 84.6641,18.6882 84.7422,18.6738 C84.8203,18.6595 84.8802,18.6484 84.9219,18.6406 L85.1836,19.8789 C85.1003,19.9049 84.9831,19.9355 84.832,19.9707 C84.681,20.0059 84.4974,20.0273 84.2813,20.0352 C83.8802,20.0508 83.5293,19.9974 83.2285,19.875 C82.9277,19.7526 82.694,19.5625 82.5273,19.3047 C82.3607,19.0469 82.2786,18.7214 82.2813,18.3281 L82.2813,12.5156 M88.7969,20.0703 C88.1901,20.0703 87.666,19.9408 87.2246,19.6816 C86.7832,19.4225 86.4427,19.0605 86.2031,18.5957 C85.9635,18.1309 85.8438,17.5911 85.8438,16.9766 C85.8438,16.3568 85.9635,15.8145 86.2031,15.3496 C86.4427,14.8848 86.7832,14.5228 87.2246,14.2637 C87.666,14.0046 88.1901,13.875 88.7969,13.875 C89.4036,13.875 89.9277,14.0046 90.3691,14.2637 C90.8105,14.5228 91.151,14.8848 91.3906,15.3496 C91.6302,15.8145 91.75,16.3568 91.75,16.9766 C91.75,17.5911 91.6302,18.1309 91.3906,18.5957 C91.151,19.0605 90.8105,19.4225 90.3691,19.6816 C89.9277,19.9408 89.4036,20.0703 88.7969,20.0703 M88.8047,18.7813 C89.0807,18.7813 89.3112,18.7025 89.4961,18.5449 C89.681,18.3874 89.821,18.1719 89.916,17.8984 C90.0111,17.625 90.0586,17.3138 90.0586,16.9648 C90.0586,16.6159 90.0111,16.3047 89.916,16.0313 C89.821,15.7578 89.681,15.5417 89.4961,15.3828 C89.3112,15.224 89.0807,15.1445 88.8047,15.1445 C88.526,15.1445 88.2923,15.224 88.1035,15.3828 C87.9147,15.5417 87.7728,15.7578 87.6777,16.0313 C87.5827,16.3047 87.5352,16.6159 87.5352,16.9648 C87.5352,17.3138 87.5827,17.625 87.6777,17.8984 C87.7728,18.1719 87.9147,18.3874 88.1035,18.5449 C88.2923,18.7025 88.526,18.7813 88.8047,18.7813 M94.5,16.4844 L94.5,19.9531 L92.8359,19.9531 L92.8359,13.9531 L94.4219,13.9531 L94.4219,15.0117 L94.4922,15.0117 C94.625,14.6628 94.8477,14.3861 95.1602,14.1816 C95.4727,13.9772 95.8516,13.875 96.2969,13.875 C96.7135,13.875 97.0768,13.9661 97.3867,14.1484 C97.6966,14.3307 97.9375,14.5905 98.1094,14.9277 C98.2813,15.265 98.3672,15.6667 98.3672,16.1328 L98.3672,19.9531 L96.7031,19.9531 L96.7031,16.4297 C96.7057,16.0625 96.612,15.7754 96.4219,15.5684 C96.2318,15.3613 95.9701,15.2578 95.6367,15.2578 C95.4128,15.2578 95.2155,15.306 95.0449,15.4023 C94.8743,15.4987 94.7415,15.6387 94.6465,15.8223 C94.5514,16.0059 94.5026,16.2266 94.5,16.4844 "/>
</g>

<g fill="#ffffff" fill-opacity="1" stroke="none" transform="matrix(1,0,0,1,0,0)"
font-family="Inter" font-size="11" font-weight="700" font-style="normal" 
>
<path vector-effect="none" fill-rule="nonzero" d="M249.766,17.5547 L249.766,17.4219 C249.768,16.9661 249.809,16.6029 249.889,16.332 C249.968,16.0612 250.085,15.8424 250.238,15.6758 C250.392,15.5091 250.577,15.3581 250.793,15.2227 C250.954,15.1185 251.099,15.0104 251.227,14.8984 C251.354,14.7865 251.456,14.6621 251.531,14.5254 C251.607,14.3887 251.645,14.2357 251.645,14.0664 C251.645,13.8867 251.602,13.7292 251.516,13.5938 C251.43,13.4583 251.314,13.3542 251.17,13.2813 C251.025,13.2083 250.866,13.1719 250.691,13.1719 C250.522,13.1719 250.362,13.209 250.211,13.2832 C250.06,13.3574 249.936,13.4668 249.84,13.6113 C249.743,13.7559 249.691,13.9349 249.684,14.1484 L248.09,14.1484 C248.103,13.6276 248.228,13.1973 248.465,12.8574 C248.702,12.5176 249.016,12.2637 249.406,12.0957 C249.797,11.9277 250.228,11.8438 250.699,11.8438 C251.217,11.8438 251.676,11.929 252.074,12.0996 C252.473,12.2702 252.785,12.5169 253.012,12.8398 C253.238,13.1628 253.352,13.5521 253.352,14.0078 C253.352,14.3125 253.301,14.5827 253.201,14.8184 C253.101,15.054 252.961,15.2624 252.781,15.4434 C252.602,15.6243 252.389,15.7878 252.145,15.9336 C251.939,16.056 251.77,16.1836 251.639,16.3164 C251.507,16.4492 251.41,16.6029 251.346,16.7773 C251.282,16.9518 251.249,17.1667 251.246,17.4219 L251.246,17.5547 L249.766,17.5547 M250.539,20.0547 C250.279,20.0547 250.057,19.9629 249.873,19.7793 C249.689,19.5957 249.599,19.375 249.602,19.1172 C249.599,18.862 249.689,18.6432 249.873,18.4609 C250.057,18.2786 250.279,18.1875 250.539,18.1875 C250.786,18.1875 251.004,18.2786 251.191,18.4609 C251.379,18.6432 251.474,18.862 251.477,19.1172 C251.474,19.2891 251.429,19.446 251.342,19.5879 C251.255,19.7298 251.141,19.8431 251,19.9277 C250.859,20.0124 250.706,20.0547 250.539,20.0547 "/>
</g>

<g fill="#ffffff" fill-opacity="1" stroke="none" transform="matrix(0.95,0,0,0.95,11.6,4.6)"
font-family="Inter" font-size="11" font-weight="700" font-style="normal" 
>
<path vector-effect="none" fill-rule="nonzero" d="M2.19896,4.65234 C1.18891,4.65234 0.375703,5.46549 0.375703,6.47555 L0.375703,8.579 C1.00152,8.60331 1.67842,9.11362 1.67842,9.74561 L1.67842,14.2544 C1.67842,14.8864 1.00152,15.3967 0.375703,15.421 L0.375703,17.5245 C0.375703,18.5345 1.18891,19.3477 2.19896,19.3477 L21.8479,19.3477 C22.858,19.3477 23.6711,18.5345 23.6711,17.5245 L23.6711,6.47555 C23.6711,5.46549 22.858,4.65234 21.8479,4.65234 L2.19896,4.65234 M6.71936,9.23098 C8.56166,9.23097 10.0552,10.7245 10.0552,12.5668 C10.0552,14.4091 8.56167,15.9026 6.71936,15.9026 C4.87705,15.9026 3.38355,14.4091 3.38355,12.5668 C3.38355,10.7245 4.87705,9.23097 6.71936,9.23098 M19.875,9.24873 C20.7082,9.24871 21.3837,9.92418 21.3837,10.7574 C21.3837,11.5906 20.7082,12.266 19.875,12.266 C19.0418,12.266 18.3664,11.5906 18.3664,10.7574 C18.3664,9.9242 19.0418,9.24874 19.875,9.24873 M17.4318,12.8825 C18.265,12.8825 18.9404,13.558 18.9404,14.3912 C18.9404,15.2243 18.2649,15.8998 17.4318,15.8998 C16.5986,15.8998 15.9231,15.2244 15.9231,14.3912 C15.9231,13.5579 16.5985,12.8825 17.4318,12.8825 "/>
</g>

<g fill="none" stroke="#000000" stroke-opacity="1" stroke-width="0.54" stroke-linecap="butt" stroke-linejoin="miter" stroke-miterlimit="4" transform="matrix(0.95,0,0,0.95,11.6,4.6)"
font-family="Inter" font-size="11" font-weight="700" font-style="normal" 
>
<path vector-effect="none" fill-rule="nonzero" d="M2.19896,4.65234 C1.18891,4.65234 0.375703,5.46549 0.375703,6.47555 L0.375703,8.579 C1.00152,8.60331 1.67842,9.11362 1.67842,9.74561 L1.67842,14.2544 C1.67842,14.8864 1.00152,15.3967 0.375703,15.421 L0.375703,17.5245 C0.375703,18.5345 1.18891,19.3477 2.19896,19.3477 L21.8479,19.3477 C22.858,19.3477 23.6711,18.5345 23.6711,17.5245 L23.6711,6.47555 C23.6711,5.46549 22.858,4.65234 21.8479,4.65234 L2.19896,4.65234 M6.71936,9.23098 C8.56166,9.23097 10.0552,10.7245 10.0552,12.5668 C10.0552,14.4091 8.56167,15.9026 6.71936,15.9026 C4.87705,15.9026 3.38355,14.4091 3.38355,12.5668 C3.38355,10.7245 4.87705,9.23097 6.71936,9.23098 M19.875,9.24873 C20.7082,9.24871 21.3837,9.92418 21.3837,10.7574 C21.3837,11.5906 20.7082,12.266 19.875,12.266 C19.0418,12.266 18.3664,11.5906 18.3664,10.7574 C18.3664,9.9242 19.0418,9.24874 19.875,9.24873 M17.4318,12.8825 C18.265,12.8825 18.9404,13.558 18.9404,14.3912 C18.9404,15.2243 18.2649,15.8998 17.4318,15.8998 C16.5986,15.8998 15.9231,15.2244 15.9231,14.3912 C15.9231,13.5579 16.5985,12.8825 17.4318,12.8825 "/>
</g>

<g fill="#000000" fill-opacity="1" stroke="none" transform="matrix(0.95,0,0,0.95,11.6,4.6)"
font-family="Inter" font-size="11" font-weight="700" font-style="normal" 
>
<path vector-effect="none" fill-rule="nonzero" d="M0.108328,15.3227 L0.103298,8.65983 L1.21825,8.7259 L1.75102,9.37791 L1.70662,12.9064 L1.66222,14.5556 L1.04066,15.0542 L0.108328,15.3227"/>
</g>

<g fill="#000000" fill-opacity="1" stroke="none" transform="matrix(0.95,0,0,0.95,11.6,4.6)"
font-family="Inter" font-size="11" font-weight="700" font-style="normal" 
>
<circle cx="6.70111" cy="12.5452" r="1.68266"/>
</g>

<g fill="none" stroke="#000000" stroke-opacity="1" stroke-width="0.54" stroke-linecap="butt" stroke-linejoin="miter" stroke-miterlimit="4" transform="matrix(0.95,0,0,0.95,11.6,4.6)"
font-family="Inter" font-size="11" font-weight="700" font-style="normal" 
>
<circle cx="6.70111" cy="12.5452" r="1.68266"/>
</g>

<g fill="#000000" fill-opacity="1" stroke="none" transform="matrix(0.95,0,0,0.95,11.6,4.6)"
font-family="Inter" font-size="11" font-weight="700" font-style="normal" 
opacity="0.858824" >
<path vector-effect="none" fill-rule="evenodd" d="M8.42109,18.1373 C8.42109,18.0846 8.46385,18.0418 8.51661,18.0418 L15.4834,18.0418 C15.5361,18.0418 15.5789,18.0846 15.5789,18.1373 L15.5789,18.1373 C15.5789,18.1901 15.5361,18.2329 15.4834,18.2329 L8.51661,18.2329 C8.46385,18.2329 8.42109,18.1901 8.42109,18.1373 L8.42109,18.1373"/>
</g>

<g fill="none" stroke="#000000" stroke-opacity="1" stroke-width="0.437534" stroke-linecap="butt" stroke-linejoin="miter" stroke-miterlimit="4" transform="matrix(0.95,0,0,0.95,11.6,4.6)"
font-family="Inter" font-size="11" font-weight="700" font-style="normal" 
>
<path vector-effect="none" fill-rule="evenodd" d="M8.42109,18.1373 C8.42109,18.0846 8.46385,18.0418 8.51661,18.0418 L15.4834,18.0418 C15.5361,18.0418 15.5789,18.0846 15.5789,18.1373 L15.5789,18.1373 C15.5789,18.1901 15.5361,18.2329 15.4834,18.2329 L8.51661,18.2329 C8.46385,18.2329 8.42109,18.1901 8.42109,18.1373 L8.42109,18.1373"/>
</g>

<g fill="#ffffff" fill-opacity="1" stroke="none" transform="matrix(1,0,0,1,0,0)"
font-family="Inter" font-size="11" font-weight="700" font-style="normal" 
>
</g>

<g fill="#ffffff" fill-opacity="1" stroke="#00645c" stroke-opacity="1" stroke-width="1" stroke-linecap="square" stroke-linejoin="bevel" transform="matrix(1,0,0,1,0,0)"
font-family="Inter" font-size="11" font-weight="700" font-style="normal" 
>
<polyline fill="none" vector-effect="none" points="45,6 45,26 " />
</g>

<g fill="#009f94" fill-opacity="1" stroke="#00645c" stroke-opacity="1" stroke-width="1.2" stroke-linecap="square" stroke-linejoin="bevel" transform="matrix(1,0,0,1,105,4)"
font-family="Inter" font-size="11" font-weight="700" font-style="normal" 
>
<path vector-effect="none" fill-rule="evenodd" d="M0.5,3.5 C0.5,1.84315 1.84315,0.5 3.5,0.5 L55.5,0.5 C57.1569,0.5 58.5,1.84315 58.5,3.5 L58.5,20.5 C58.5,22.1569 57.1569,23.5 55.5,23.5 L3.5,23.5 C1.84315,23.5 0.5,22.1569 0.5,20.5 L0.5,3.5"/>
</g>

<g fill="#ffffff" fill-opacity="1" stroke="none" transform="matrix(1,0,0,1,105,4)"
font-family="Inter" font-size="11" font-weight="700" font-style="normal" 
>
<path vector-effect="none" fill-rule="nonzero" d="M10.0078,16 L10.0078,8 L13.2109,8 C13.7995,8 14.2904,8.08724 14.6836,8.26172 C15.0768,8.4362 15.3724,8.67773 15.5703,8.98633 C15.7682,9.29492 15.8672,9.64974 15.8672,10.0508 C15.8672,10.3633 15.8047,10.6374 15.6797,10.873 C15.5547,11.1087 15.3835,11.3014 15.166,11.4512 C14.9486,11.6009 14.7005,11.707 14.4219,11.7695 L14.4219,11.8477 C14.7266,11.8607 15.0124,11.9466 15.2793,12.1055 C15.5462,12.2643 15.763,12.4863 15.9297,12.7715 C16.0964,13.0566 16.1797,13.3958 16.1797,13.7891 C16.1797,14.2135 16.0749,14.5918 15.8652,14.9238 C15.6556,15.2559 15.3464,15.5182 14.9375,15.7109 C14.5286,15.9036 14.0247,16 13.4258,16 L10.0078,16 M11.6992,14.6172 L13.0781,14.6172 C13.5495,14.6172 13.8932,14.5267 14.1094,14.3457 C14.3255,14.1647 14.4336,13.9232 14.4336,13.6211 C14.4336,13.3997 14.3802,13.2044 14.2734,13.0352 C14.1667,12.8659 14.015,12.7331 13.8184,12.6367 C13.6217,12.5404 13.388,12.4922 13.1172,12.4922 L11.6992,12.4922 L11.6992,14.6172 M11.6992,11.3477 L12.9531,11.3477 C13.1849,11.3477 13.3913,11.3066 13.5723,11.2246 C13.7533,11.1426 13.8965,11.026 14.002,10.875 C14.1074,10.724 14.1602,10.543 14.1602,10.332 C14.1602,10.043 14.0579,9.8099 13.8535,9.63281 C13.6491,9.45573 13.3594,9.36719 12.9844,9.36719 L11.6992,9.36719 L11.6992,11.3477 M16.9688,9.39453 L16.9688,8 L23.5391,8 L23.5391,9.39453 L21.0898,9.39453 L21.0898,16 L19.418,16 L19.418,9.39453 L16.9688,9.39453 M31.3086,8 L31.3086,16 L29.8477,16 L26.3672,10.9648 L26.3086,10.9648 L26.3086,16 L24.6172,16 L24.6172,8 L26.1016,8 L29.5547,13.0313 L29.625,13.0313 L29.625,8 L31.3086,8 M36.1289,8 L36.1289,16 L34.4375,16 L34.4375,9.60547 L34.3906,9.60547 L32.5586,10.7539 L32.5586,9.25391 L34.5391,8 L36.1289,8"/>
</g>

<g fill="#ffffff" fill-opacity="1" stroke="none" transform="matrix(0.03125,0,0,0.03125,150,12)"
font-family="Inter" font-size="11" font-weight="700" font-style="normal" 
>
<path vector-effect="none" fill-rule="nonzero" d="M111.326,191.938 C120.545,201.158 135.517,201.158 144.737,191.938 L239.144,97.5313 C245.929,90.7458 247.921,80.6413 244.233,71.7907 C240.545,62.9401 231.989,57.1871 222.401,57.1871 L33.5875,57.2608 C24.0731,57.2608 15.4437,63.0137 11.7559,71.8644 C8.06815,80.715 10.1333,90.8195 16.845,97.605 L111.252,192.012 L111.326,191.938"/>
</g>

<g fill="none" stroke="#000000" stroke-opacity="1" stroke-width="13.7195" stroke-linecap="butt" stroke-linejoin="miter" stroke-miterlimit="4" transform="matrix(0.03125,0,0,0.03125,150,12)"
font-family="Inter" font-size="11" font-weight="700" font-style="normal" 
>
<path vector-effect="none" fill-rule="nonzero" d="M111.326,191.938 C120.545,201.158 135.517,201.158 144.737,191.938 L239.144,97.5313 C245.929,90.7458 247.921,80.6413 244.233,71.7907 C240.545,62.9401 231.989,57.1871 222.401,57.1871 L33.5875,57.2608 C24.0731,57.2608 15.4437,63.0137 11.7559,71.8644 C8.06815,80.715 10.1333,90.8195 16.845,97.605 L111.252,192.012 L111.326,191.938"/>
</g>

<g fill="#ffffff" fill-opacity="1" stroke="none" transform="matrix(1,0,0,1,105,4)"
font-family="Inter" font-size="11" font-weight="700" font-style="normal" 
>
</g>

<g fill="#ffffff" fill-opacity="1" stroke="#00645c" stroke-opacity="1" stroke-width="1" stroke-linecap="square" stroke-linejoin="bevel" transform="matrix(1,0,0,1,0,0)"
font-family="Inter" font-size="11" font-weight="700" font-style="normal" 
>
</g>

<g fill="#009f94" fill-opacity="1" stroke="#00645c" stroke-opacity="1" stroke-width="1.2" stroke-linecap="square" stroke-linejoin="bevel" transform="matrix(1,0,0,1,168,4)"
font-family="Inter" font-size="11" font-weight="700" font-style="normal" 
>
<path vector-effect="none" fill-rule="evenodd" d="M0.5,3.5 C0.5,1.84315 1.84315,0.5 3.5,0.5 L70.5,0.5 C72.1569,0.5 73.5,1.84315 73.5,3.5 L73.5,20.5 C73.5,22.1569 72.1569,23.5 70.5,23.5 L3.5,23.5 C1.84315,23.5 0.5,22.1569 0.5,20.5 L0.5,3.5"/>
</g>

<g fill="#ffffff" fill-opacity="1" stroke="none" transform="matrix(1,0,0,1,168,4)"
font-family="Inter" font-size="11" font-weight="700" font-style="normal" 
>
<path vector-effect="none" fill-rule="nonzero" d="M9.00781,17.0781 L9.00781,8.82813 L10.6484,8.82813 L10.6484,9.83594 L10.7227,9.83594 C10.7956,9.67448 10.9017,9.50977 11.041,9.3418 C11.1803,9.17383 11.3626,9.0332 11.5879,8.91992 C11.8132,8.80664 12.0938,8.75 12.4297,8.75 C12.8672,8.75 13.2708,8.86393 13.6406,9.0918 C14.0104,9.31966 14.306,9.66211 14.5273,10.1191 C14.7487,10.5762 14.8594,11.1484 14.8594,11.8359 C14.8594,12.5052 14.752,13.0697 14.5371,13.5293 C14.3223,13.9889 14.0306,14.3366 13.6621,14.5723 C13.2936,14.8079 12.8815,14.9258 12.4258,14.9258 C12.1029,14.9258 11.8288,14.8724 11.6035,14.7656 C11.3783,14.6589 11.194,14.5241 11.0508,14.3613 C10.9076,14.1986 10.7982,14.0339 10.7227,13.8672 L10.6719,13.8672 L10.6719,17.0781 L9.00781,17.0781 M10.6367,11.8281 C10.6367,12.1849 10.6862,12.4961 10.7852,12.7617 C10.8841,13.0273 11.0273,13.2337 11.2148,13.3809 C11.4023,13.528 11.6302,13.6016 11.8984,13.6016 C12.1693,13.6016 12.3984,13.5267 12.5859,13.377 C12.7734,13.2272 12.916,13.0189 13.0137,12.752 C13.1113,12.485 13.1602,12.1771 13.1602,11.8281 C13.1602,11.4818 13.112,11.1771 13.0156,10.9141 C12.9193,10.651 12.7773,10.4453 12.5898,10.2969 C12.4023,10.1484 12.1719,10.0742 11.8984,10.0742 C11.6276,10.0742 11.3991,10.1458 11.2129,10.2891 C11.0267,10.4323 10.8841,10.6354 10.7852,10.8984 C10.6862,11.1615 10.6367,11.4714 10.6367,11.8281 M15.9609,14.8281 L15.9609,8.82813 L17.5742,8.82813 L17.5742,9.875 L17.6367,9.875 C17.7461,9.5026 17.9297,9.2207 18.1875,9.0293 C18.4453,8.83789 18.7422,8.74219 19.0781,8.74219 C19.1615,8.74219 19.2513,8.7474 19.3477,8.75781 C19.444,8.76823 19.5286,8.78255 19.6016,8.80078 L19.6016,10.2773 C19.5234,10.2539 19.4154,10.2331 19.2773,10.2148 C19.1393,10.1966 19.013,10.1875 18.8984,10.1875 C18.6536,10.1875 18.4355,10.2402 18.2441,10.3457 C18.0527,10.4512 17.9017,10.5977 17.791,10.7852 C17.6803,10.9727 17.625,11.1888 17.625,11.4336 L17.625,14.8281 L15.9609,14.8281 M22.8984,14.9453 C22.2813,14.9453 21.7507,14.8197 21.3066,14.5684 C20.8626,14.3171 20.5208,13.9603 20.2813,13.498 C20.0417,13.0358 19.9219,12.4883 19.9219,11.8555 C19.9219,11.2383 20.0417,10.6966 20.2813,10.2305 C20.5208,9.76432 20.8587,9.40104 21.2949,9.14063 C21.7311,8.88021 22.2435,8.75 22.832,8.75 C23.2279,8.75 23.597,8.81315 23.9395,8.93945 C24.2819,9.06576 24.5814,9.25521 24.8379,9.50781 C25.0944,9.76042 25.2943,10.0775 25.4375,10.459 C25.5807,10.8405 25.6523,11.2865 25.6523,11.7969 L25.6523,12.2539 L20.5859,12.2539 L20.5859,11.2227 L24.0859,11.2227 C24.0859,10.9831 24.0339,10.7708 23.9297,10.5859 C23.8255,10.401 23.6816,10.2559 23.498,10.1504 C23.3145,10.0449 23.1016,9.99219 22.8594,9.99219 C22.6068,9.99219 22.3835,10.0501 22.1895,10.166 C21.9954,10.2819 21.8438,10.4368 21.7344,10.6309 C21.625,10.8249 21.569,11.0404 21.5664,11.2773 L21.5664,12.2578 C21.5664,12.5547 21.6217,12.8112 21.7324,13.0273 C21.8431,13.2435 22,13.4102 22.2031,13.5273 C22.4063,13.6445 22.6471,13.7031 22.9258,13.7031 C23.1107,13.7031 23.2799,13.6771 23.4336,13.625 C23.5872,13.5729 23.7188,13.4948 23.8281,13.3906 C23.9375,13.2865 24.0208,13.1589 24.0781,13.0078 L25.6172,13.1094 C25.5391,13.4792 25.3796,13.8014 25.1387,14.0762 C24.8978,14.3509 24.5879,14.5645 24.209,14.7168 C23.8301,14.8691 23.3932,14.9453 22.8984,14.9453 M31.7188,10.5391 L30.1953,10.6328 C30.1693,10.5026 30.1133,10.3848 30.0273,10.2793 C29.9414,10.1738 29.8288,10.0892 29.6895,10.0254 C29.5501,9.96159 29.3841,9.92969 29.1914,9.92969 C28.9336,9.92969 28.7161,9.98372 28.5391,10.0918 C28.362,10.1999 28.2734,10.3438 28.2734,10.5234 C28.2734,10.6667 28.3307,10.7878 28.4453,10.8867 C28.5599,10.9857 28.7565,11.0651 29.0352,11.125 L30.1211,11.3438 C30.7044,11.4635 31.1393,11.6563 31.4258,11.9219 C31.7122,12.1875 31.8555,12.5365 31.8555,12.9688 C31.8555,13.362 31.7402,13.707 31.5098,14.0039 C31.2793,14.3008 30.9642,14.5319 30.5645,14.6973 C30.1647,14.8626 29.7044,14.9453 29.1836,14.9453 C28.3893,14.9453 27.7572,14.7793 27.2871,14.4473 C26.8171,14.1152 26.5417,13.6628 26.4609,13.0898 L28.0977,13.0039 C28.1471,13.2461 28.2669,13.4303 28.457,13.5566 C28.6471,13.6829 28.8906,13.7461 29.1875,13.7461 C29.4792,13.7461 29.7142,13.6895 29.8926,13.5762 C30.071,13.4629 30.1615,13.3164 30.1641,13.1367 C30.1615,12.9857 30.0977,12.8613 29.9727,12.7637 C29.8477,12.666 29.6549,12.5911 29.3945,12.5391 L28.3555,12.332 C27.7695,12.2148 27.334,12.0117 27.0488,11.7227 C26.7637,11.4336 26.6211,11.0651 26.6211,10.6172 C26.6211,10.2318 26.7259,9.89974 26.9355,9.62109 C27.1452,9.34245 27.4408,9.1276 27.8223,8.97656 C28.2038,8.82552 28.651,8.75 29.1641,8.75 C29.9219,8.75 30.5189,8.91016 30.9551,9.23047 C31.3913,9.55078 31.6458,9.98698 31.7188,10.5391 M37.8906,10.5391 L36.3672,10.6328 C36.3411,10.5026 36.2852,10.3848 36.1992,10.2793 C36.1133,10.1738 36.0007,10.0892 35.8613,10.0254 C35.722,9.96159 35.556,9.92969 35.3633,9.92969 C35.1055,9.92969 34.888,9.98372 34.7109,10.0918 C34.5339,10.1999 34.4453,10.3438 34.4453,10.5234 C34.4453,10.6667 34.5026,10.7878 34.6172,10.8867 C34.7318,10.9857 34.9284,11.0651 35.207,11.125 L36.293,11.3438 C36.8763,11.4635 37.3112,11.6563 37.5977,11.9219 C37.8841,12.1875 38.0273,12.5365 38.0273,12.9688 C38.0273,13.362 37.9121,13.707 37.6816,14.0039 C37.4512,14.3008 37.1361,14.5319 36.7363,14.6973 C36.3366,14.8626 35.8763,14.9453 35.3555,14.9453 C34.5612,14.9453 33.929,14.7793 33.459,14.4473 C32.9889,14.1152 32.7135,13.6628 32.6328,13.0898 L34.2695,13.0039 C34.319,13.2461 34.4388,13.4303 34.6289,13.5566 C34.819,13.6829 35.0625,13.7461 35.3594,13.7461 C35.651,13.7461 35.8861,13.6895 36.0645,13.5762 C36.2428,13.4629 36.3333,13.3164 36.3359,13.1367 C36.3333,12.9857 36.2695,12.8613 36.1445,12.7637 C36.0195,12.666 35.8268,12.5911 35.5664,12.5391 L34.5273,12.332 C33.9414,12.2148 33.5059,12.0117 33.2207,11.7227 C32.9355,11.4336 32.793,11.0651 32.793,10.6172 C32.793,10.2318 32.8978,9.89974 33.1074,9.62109 C33.3171,9.34245 33.6126,9.1276 33.9941,8.97656 C34.3757,8.82552 34.8229,8.75 35.3359,8.75 C36.0938,8.75 36.6908,8.91016 37.127,9.23047 C37.5632,9.55078 37.8177,9.98698 37.8906,10.5391 M41.8047,14.9453 C41.1875,14.9453 40.6569,14.8197 40.2129,14.5684 C39.7689,14.3171 39.4271,13.9603 39.1875,13.498 C38.9479,13.0358 38.8281,12.4883 38.8281,11.8555 C38.8281,11.2383 38.9479,10.6966 39.1875,10.2305 C39.4271,9.76432 39.765,9.40104 40.2012,9.14063 C40.6374,8.88021 41.1497,8.75 41.7383,8.75 C42.1341,8.75 42.5033,8.81315 42.8457,8.93945 C43.1882,9.06576 43.4876,9.25521 43.7441,9.50781 C44.0007,9.76042 44.2005,10.0775 44.3438,10.459 C44.487,10.8405 44.5586,11.2865 44.5586,11.7969 L44.5586,12.2539 L39.4922,12.2539 L39.4922,11.2227 L42.9922,11.2227 C42.9922,10.9831 42.9401,10.7708 42.8359,10.5859 C42.7318,10.401 42.5879,10.2559 42.4043,10.1504 C42.2207,10.0449 42.0078,9.99219 41.7656,9.99219 C41.513,9.99219 41.2897,10.0501 41.0957,10.166 C40.9017,10.2819 40.75,10.4368 40.6406,10.6309 C40.5313,10.8249 40.4753,11.0404 40.4727,11.2773 L40.4727,12.2578 C40.4727,12.5547 40.528,12.8112 40.6387,13.0273 C40.7493,13.2435 40.9063,13.4102 41.1094,13.5273 C41.3125,13.6445 41.5534,13.7031 41.832,13.7031 C42.0169,13.7031 42.1862,13.6771 42.3398,13.625 C42.4935,13.5729 42.625,13.4948 42.7344,13.3906 C42.8438,13.2865 42.9271,13.1589 42.9844,13.0078 L44.5234,13.1094 C44.4453,13.4792 44.2858,13.8014 44.0449,14.0762 C43.804,14.3509 43.4941,14.5645 43.1152,14.7168 C42.7363,14.8691 42.2995,14.9453 41.8047,14.9453 M47.8438,14.9258 C47.388,14.9258 46.9759,14.8079 46.6074,14.5723 C46.2389,14.3366 45.9473,13.9889 45.7324,13.5293 C45.5176,13.0697 45.4102,12.5052 45.4102,11.8359 C45.4102,11.1484 45.5208,10.5762 45.7422,10.1191 C45.9635,9.66211 46.2585,9.31966 46.627,9.0918 C46.9954,8.86393 47.3997,8.75 47.8398,8.75 C48.1758,8.75 48.4564,8.80664 48.6816,8.91992 C48.9069,9.0332 49.0892,9.17383 49.2285,9.3418 C49.3678,9.50977 49.474,9.67448 49.5469,9.83594 L49.5977,9.83594 L49.5977,6.82813 L51.2578,6.82813 L51.2578,14.8281 L49.6172,14.8281 L49.6172,13.8672 L49.5469,13.8672 C49.4688,14.0339 49.3587,14.1986 49.2168,14.3613 C49.0749,14.5241 48.8913,14.6589 48.666,14.7656 C48.4408,14.8724 48.1667,14.9258 47.8438,14.9258 M48.3711,13.6016 C48.6393,13.6016 48.8665,13.528 49.0527,13.3809 C49.2389,13.2337 49.3822,13.0273 49.4824,12.7617 C49.5827,12.4961 49.6328,12.1849 49.6328,11.8281 C49.6328,11.4714 49.5833,11.1615 49.4844,10.8984 C49.3854,10.6354 49.2422,10.4323 49.0547,10.2891 C48.8672,10.1458 48.6393,10.0742 48.3711,10.0742 C48.0977,10.0742 47.8672,10.1484 47.6797,10.2969 C47.4922,10.4453 47.3503,10.651 47.2539,10.9141 C47.1576,11.1771 47.1094,11.4818 47.1094,11.8281 C47.1094,12.1771 47.1582,12.485 47.2559,12.752 C47.3535,13.0189 47.4954,13.2272 47.6816,13.377 C47.8678,13.5267 48.0977,13.6016 48.3711,13.6016 "/>
</g>

<g fill="#ffffff" fill-opacity="1" stroke="none" transform="matrix(0.03125,0,0,0.03125,228,12)"
font-family="Inter" font-size="11" font-weight="700" font-style="normal" 
>
<path vector-effect="none" fill-rule="nonzero" d="M111.326,191.938 C120.545,201.158 135.517,201.158 144.737,191.938 L239.144,97.5313 C245.929,90.7458 247.921,80.6413 244.233,71.7907 C240.545,62.9401 231.989,57.1871 222.401,57.1871 L33.5875,57.2608 C24.0731,57.2608 15.4437,63.0137 11.7559,71.8644 C8.06815,80.715 10.1333,90.8195 16.845,97.605 L111.252,192.012 L111.326,191.938"/>
</g>

<g fill="none" stroke="#000000" stroke-opacity="1" stroke-width="13.7195" stroke-linecap="butt" stroke-linejoin="miter" stroke-miterlimit="4" transform="matrix(0.03125,0,0,0.03125,228,12)"
font-family="Inter" font-size="11" font-weight="700" font-style="normal" 
>
<path vector-effect="none" fill-rule="nonzero" d="M111.326,191.938 C120.545,201.158 135.517,201.158 144.737,191.938 L239.144,97.5313 C245.929,90.7458 247.921,80.6413 244.233,71.7907 C240.545,62.9401 231.989,57.1871 222.401,57.1871 L33.5875,57.2608 C24.0731,57.2608 15.4437,63.0137 11.7559,71.8644 C8.06815,80.715 10.1333,90.8195 16.845,97.605 L111.252,192.012 L111.326,191.938"/>
</g>

<g fill="#ffffff" fill-opacity="1" stroke="none" transform="matrix(1,0,0,1,168,4)"
font-family="Inter" font-size="11" font-weight="700" font-style="normal" 
>
</g>

<g fill="#ffffff" fill-opacity="1" stroke="#00645c" stroke-opacity="1" stroke-width="1" stroke-linecap="square" stroke-linejoin="bevel" transform="matrix(1,0,0,1,0,0)"
font-family="Inter" font-size="11" font-weight="700" font-style="normal" 
>
</g>

<g fill="#ffffff" fill-opacity="1" stroke="#00645c" stroke-opacity="1" stroke-width="1" stroke-linecap="square" stroke-linejoin="bevel" transform="matrix(1,0,0,1,0,0)"
font-family="Inter" font-size="11" font-weight="700" font-style="normal" 
>
</g>

<g fill="none" stroke="#000000" stroke-opacity="1" stroke-width="1" stroke-linecap="square" stroke-linejoin="bevel" transform="matrix(1,0,0,1,0,0)"
font-family=".AppleSystemUIFont" font-size="13" font-weight="400" font-style="normal" 
>
</g>
</g>
</svg>
