<?xml version="1.0" encoding="UTF-8" standalone="no"?>
<svg width="32.4556mm" height="11.2889mm"
 viewBox="0 0 92 32"
 xmlns="http://www.w3.org/2000/svg" xmlns:xlink="http://www.w3.org/1999/xlink" version="1.2" baseProfile="tiny">
<title>timer</title>
<desc>block_sensors_timer_value_float</desc>
<defs>
</defs>
<g fill="none" stroke="black" stroke-width="1" fill-rule="evenodd" stroke-linecap="square" stroke-linejoin="bevel" >

<g fill="none" stroke="#000000" stroke-opacity="1" stroke-width="1" stroke-linecap="square" stroke-linejoin="bevel" transform="matrix(1,0,0,1,0,0)"
font-family=".AppleSystemUIFont" font-size="13" font-weight="400" font-style="normal" 
>
</g>

<g fill="none" stroke="#000000" stroke-opacity="1" stroke-width="1" stroke-linecap="square" stroke-linejoin="bevel" transform="matrix(1,0,0,1,0,0)"
font-family=".AppleSystemUIFont" font-size="13" font-weight="400" font-style="normal" 
>
</g>

<g fill="#1dccf0" fill-opacity="1" stroke="#0da6c5" stroke-opacity="1" stroke-width="1.2" stroke-linecap="square" stroke-linejoin="bevel" transform="matrix(1,0,0,1,0,0)"
font-family=".AppleSystemUIFont" font-size="13" font-weight="400" font-style="normal" 
>
<path vector-effect="none" fill-rule="evenodd" d="M1,16 C1,7.71573 8.16344,1 17,1 L75,1 C83.8366,1 91,7.71573 91,16 C91,24.2843 83.8366,31 75,31 L17,31 C8.16344,31 1,24.2843 1,16 "/>
</g>

<g fill="#ffffff" fill-opacity="1" stroke="none" transform="matrix(1,0,0,1,0,0)"
font-family="Inter" font-size="11" font-weight="700" font-style="normal" 
>
<path vector-effect="none" fill-rule="nonzero" d="M55.418,13.9531 L55.418,15.2031 L51.8047,15.2031 L51.8047,13.9531 L55.418,13.9531 M52.625,12.5156 L54.2891,12.5156 L54.2891,18.1094 C54.2891,18.263 54.3125,18.3822 54.3594,18.4668 C54.4063,18.5514 54.472,18.6107 54.5566,18.6445 C54.6413,18.6784 54.7396,18.6953 54.8516,18.6953 C54.9297,18.6953 55.0078,18.6882 55.0859,18.6738 C55.1641,18.6595 55.224,18.6484 55.2656,18.6406 L55.5273,19.8789 C55.444,19.9049 55.3268,19.9355 55.1758,19.9707 C55.0247,20.0059 54.8411,20.0273 54.625,20.0352 C54.224,20.0508 53.873,19.9974 53.5723,19.875 C53.2715,19.7526 53.0378,19.5625 52.8711,19.3047 C52.7044,19.0469 52.6224,18.7214 52.625,18.3281 L52.625,12.5156 M56.4922,19.9531 L56.4922,13.9531 L58.1563,13.9531 L58.1563,19.9531 L56.4922,19.9531 M57.3281,13.1797 C57.0807,13.1797 56.8691,13.097 56.6934,12.9316 C56.5176,12.7663 56.4297,12.5677 56.4297,12.3359 C56.4297,12.1068 56.5176,11.9095 56.6934,11.7441 C56.8691,11.5788 57.0807,11.4961 57.3281,11.4961 C57.5755,11.4961 57.7871,11.5788 57.9629,11.7441 C58.1387,11.9095 58.2266,12.1068 58.2266,12.3359 C58.2266,12.5677 58.1387,12.7663 57.9629,12.9316 C57.7871,13.097 57.5755,13.1797 57.3281,13.1797 M59.4766,19.9531 L59.4766,13.9531 L61.0625,13.9531 L61.0625,15.0117 L61.1328,15.0117 C61.2578,14.6602 61.4661,14.3828 61.7578,14.1797 C62.0495,13.9766 62.3984,13.875 62.8047,13.875 C63.2161,13.875 63.5664,13.9772 63.8555,14.1816 C64.1445,14.3861 64.3372,14.6628 64.4336,15.0117 L64.4961,15.0117 C64.6185,14.668 64.8405,14.3926 65.1621,14.1855 C65.4837,13.9785 65.8646,13.875 66.3047,13.875 C66.8646,13.875 67.3197,14.0527 67.6699,14.4082 C68.0202,14.7637 68.1953,15.2669 68.1953,15.918 L68.1953,19.9531 L66.5352,19.9531 L66.5352,16.2461 C66.5352,15.9128 66.4466,15.6628 66.2695,15.4961 C66.0924,15.3294 65.8711,15.2461 65.6055,15.2461 C65.3034,15.2461 65.0677,15.3418 64.8984,15.5332 C64.7292,15.7246 64.6445,15.9766 64.6445,16.2891 L64.6445,19.9531 L63.0313,19.9531 L63.0313,16.2109 C63.0313,15.9167 62.9473,15.6823 62.7793,15.5078 C62.6113,15.3333 62.3906,15.2461 62.1172,15.2461 C61.9323,15.2461 61.7663,15.2923 61.6191,15.3848 C61.472,15.4772 61.3555,15.6061 61.2695,15.7715 C61.1836,15.9368 61.1406,16.1302 61.1406,16.3516 L61.1406,19.9531 L59.4766,19.9531 M72.2422,20.0703 C71.625,20.0703 71.0944,19.9447 70.6504,19.6934 C70.2064,19.4421 69.8646,19.0853 69.625,18.623 C69.3854,18.1608 69.2656,17.6133 69.2656,16.9805 C69.2656,16.3633 69.3854,15.8216 69.625,15.3555 C69.8646,14.8893 70.2025,14.526 70.6387,14.2656 C71.0749,14.0052 71.5872,13.875 72.1758,13.875 C72.5716,13.875 72.9408,13.9382 73.2832,14.0645 C73.6257,14.1908 73.9251,14.3802 74.1816,14.6328 C74.4382,14.8854 74.638,15.2025 74.7813,15.584 C74.9245,15.9655 74.9961,16.4115 74.9961,16.9219 L74.9961,17.3789 L69.9297,17.3789 L69.9297,16.3477 L73.4297,16.3477 C73.4297,16.1081 73.3776,15.8958 73.2734,15.7109 C73.1693,15.526 73.0254,15.3809 72.8418,15.2754 C72.6582,15.1699 72.4453,15.1172 72.2031,15.1172 C71.9505,15.1172 71.7272,15.1751 71.5332,15.291 C71.3392,15.4069 71.1875,15.5618 71.0781,15.7559 C70.9688,15.9499 70.9128,16.1654 70.9102,16.4023 L70.9102,17.3828 C70.9102,17.6797 70.9655,17.9362 71.0762,18.1523 C71.1868,18.3685 71.3438,18.5352 71.5469,18.6523 C71.75,18.7695 71.9909,18.8281 72.2695,18.8281 C72.4544,18.8281 72.6237,18.8021 72.7773,18.75 C72.931,18.6979 73.0625,18.6198 73.1719,18.5156 C73.2813,18.4115 73.3646,18.2839 73.4219,18.1328 L74.9609,18.2344 C74.8828,18.6042 74.7233,18.9264 74.4824,19.2012 C74.2415,19.4759 73.9316,19.6895 73.5527,19.8418 C73.1738,19.9941 72.737,20.0703 72.2422,20.0703 M76.0703,19.9531 L76.0703,13.9531 L77.6836,13.9531 L77.6836,15 L77.7461,15 C77.8555,14.6276 78.0391,14.3457 78.2969,14.1543 C78.5547,13.9629 78.8516,13.8672 79.1875,13.8672 C79.2708,13.8672 79.3607,13.8724 79.457,13.8828 C79.5534,13.8932 79.638,13.9076 79.7109,13.9258 L79.7109,15.4023 C79.6328,15.3789 79.5247,15.3581 79.3867,15.3398 C79.2487,15.3216 79.1224,15.3125 79.0078,15.3125 C78.763,15.3125 78.5449,15.3652 78.3535,15.4707 C78.1621,15.5762 78.0111,15.7227 77.9004,15.9102 C77.7897,16.0977 77.7344,16.3138 77.7344,16.5586 L77.7344,19.9531 L76.0703,19.9531"/>
</g>

<g fill="#ffffff" fill-opacity="1" stroke="none" transform="matrix(0.228,0,0,0.228,11.6,4.6)"
font-family="Inter" font-size="11" font-weight="700" font-style="normal" 
>
<path vector-effect="none" fill-rule="nonzero" d="M49.3926,21.0274 C30.9317,21.0274 15.9662,35.993 15.9662,54.4539 C15.9662,72.9148 30.9317,87.8804 49.3926,87.8804 C67.8536,87.8804 82.8191,72.9148 82.8191,54.4539 C82.8191,35.993 67.8536,21.0274 49.3926,21.0274 M48.5439,26.4972 C59.3973,26.4982 69.3182,32.6325 74.1689,42.3416 C79.0197,52.051 77.9669,63.6681 71.4496,72.3472 L48.5418,55.1452 L48.5439,26.4972"/>
</g>

<g fill="none" stroke="#000000" stroke-opacity="1" stroke-width="2.49917" stroke-linecap="butt" stroke-linejoin="miter" stroke-miterlimit="4" transform="matrix(0.228,0,0,0.228,11.6,4.6)"
font-family="Inter" font-size="11" font-weight="700" font-style="normal" 
>
<path vector-effect="none" fill-rule="nonzero" d="M49.3926,21.0274 C30.9317,21.0274 15.9662,35.993 15.9662,54.4539 C15.9662,72.9148 30.9317,87.8804 49.3926,87.8804 C67.8536,87.8804 82.8191,72.9148 82.8191,54.4539 C82.8191,35.993 67.8536,21.0274 49.3926,21.0274 M48.5439,26.4972 C59.3973,26.4982 69.3182,32.6325 74.1689,42.3416 C79.0197,52.051 77.9669,63.6681 71.4496,72.3472 L48.5418,55.1452 L48.5439,26.4972"/>
</g>

<g fill="#000000" fill-opacity="1" stroke="none" transform="matrix(0.228,0,0,0.228,11.6,4.6)"
font-family="Inter" font-size="11" font-weight="700" font-style="normal" 
>
<path vector-effect="none" fill-rule="evenodd" d="M39.0548,10.7644 C39.0548,8.56028 40.8416,6.77345 43.0458,6.77345 L56.0702,6.77345 C58.2744,6.77345 60.0612,8.56028 60.0612,10.7644 L60.0612,10.7644 C60.0612,12.9686 58.2744,14.7554 56.0702,14.7554 L43.0458,14.7554 C40.8416,14.7554 39.0548,12.9686 39.0548,10.7644 L39.0548,10.7644"/>
</g>

<g fill="none" stroke="#000000" stroke-opacity="1" stroke-width="2.77686" stroke-linecap="butt" stroke-linejoin="miter" stroke-miterlimit="4" transform="matrix(0.228,0,0,0.228,11.6,4.6)"
font-family="Inter" font-size="11" font-weight="700" font-style="normal" 
>
<path vector-effect="none" fill-rule="evenodd" d="M39.0548,10.7644 C39.0548,8.56028 40.8416,6.77345 43.0458,6.77345 L56.0702,6.77345 C58.2744,6.77345 60.0612,8.56028 60.0612,10.7644 L60.0612,10.7644 C60.0612,12.9686 58.2744,14.7554 56.0702,14.7554 L43.0458,14.7554 C40.8416,14.7554 39.0548,12.9686 39.0548,10.7644 L39.0548,10.7644"/>
</g>

<g fill="#000000" fill-opacity="1" stroke="none" transform="matrix(0.150926,0.170896,-0.175908,0.145053,11.6,4.6)"
font-family="Inter" font-size="11" font-weight="700" font-style="normal" 
>
<path vector-effect="none" fill-rule="evenodd" d="M63.4652,-45.7713 C63.4652,-47.1137 64.5534,-48.202 65.8959,-48.202 L77.9731,-48.202 C79.3156,-48.202 80.4038,-47.1137 80.4038,-45.7713 C80.4038,-44.4288 79.3156,-43.3406 77.9731,-43.3406 L65.8959,-43.3406 C64.5534,-43.3406 63.4652,-44.4288 63.4652,-45.7713 "/>
</g>

<g fill="none" stroke="#000000" stroke-opacity="1" stroke-width="2.77766" stroke-linecap="butt" stroke-linejoin="miter" stroke-miterlimit="4" transform="matrix(0.150926,0.170896,-0.175908,0.145053,11.6,4.6)"
font-family="Inter" font-size="11" font-weight="700" font-style="normal" 
>
<path vector-effect="none" fill-rule="evenodd" d="M63.4652,-45.7713 C63.4652,-47.1137 64.5534,-48.202 65.8959,-48.202 L77.9731,-48.202 C79.3156,-48.202 80.4038,-47.1137 80.4038,-45.7713 C80.4038,-44.4288 79.3156,-43.3406 77.9731,-43.3406 L65.8959,-43.3406 C64.5534,-43.3406 63.4652,-44.4288 63.4652,-45.7713 "/>
</g>

<g fill="#ffffff" fill-opacity="1" stroke="none" transform="matrix(0.176518,0.14431,-0.135264,0.183542,11.6,4.6)"
font-family="Inter" font-size="11" font-weight="700" font-style="normal" 
>
<path vector-effect="none" fill-rule="evenodd" d="M70.5863,11.9198 C70.5863,11.4223 70.9896,11.019 71.4871,11.019 L100.712,11.019 C101.21,11.019 101.613,11.4223 101.613,11.9198 L101.613,11.9198 C101.613,12.4173 101.21,12.8206 100.712,12.8206 L71.4871,12.8206 C70.9896,12.8206 70.5863,12.4173 70.5863,11.9198 L70.5863,11.9198"/>
</g>

<g fill="none" stroke="#000000" stroke-opacity="1" stroke-width="3.6122" stroke-linecap="butt" stroke-linejoin="miter" stroke-miterlimit="4" transform="matrix(0.176518,0.14431,-0.135264,0.183542,11.6,4.6)"
font-family="Inter" font-size="11" font-weight="700" font-style="normal" 
>
<path vector-effect="none" fill-rule="evenodd" d="M70.5863,11.9198 C70.5863,11.4223 70.9896,11.019 71.4871,11.019 L100.712,11.019 C101.21,11.019 101.613,11.4223 101.613,11.9198 L101.613,11.9198 C101.613,12.4173 101.21,12.8206 100.712,12.8206 L71.4871,12.8206 C70.9896,12.8206 70.5863,12.4173 70.5863,11.9198 L70.5863,11.9198"/>
</g>

<g fill="#ffffff" fill-opacity="1" stroke="none" transform="matrix(1,0,0,1,0,0)"
font-family="Inter" font-size="11" font-weight="700" font-style="normal" 
>
</g>

<g fill="#ffffff" fill-opacity="1" stroke="#0da6c5" stroke-opacity="1" stroke-width="1" stroke-linecap="square" stroke-linejoin="bevel" transform="matrix(1,0,0,1,0,0)"
font-family="Inter" font-size="11" font-weight="700" font-style="normal" 
>
<polyline fill="none" vector-effect="none" points="45,6 45,26 " />
</g>

<g fill="#ffffff" fill-opacity="1" stroke="#0da6c5" stroke-opacity="1" stroke-width="1" stroke-linecap="square" stroke-linejoin="bevel" transform="matrix(1,0,0,1,0,0)"
font-family="Inter" font-size="11" font-weight="700" font-style="normal" 
>
</g>

<g fill="none" stroke="#000000" stroke-opacity="1" stroke-width="1" stroke-linecap="square" stroke-linejoin="bevel" transform="matrix(1,0,0,1,0,0)"
font-family=".AppleSystemUIFont" font-size="13" font-weight="400" font-style="normal" 
>
</g>
</g>
</svg>
