<?xml version="1.0" encoding="UTF-8" standalone="no"?>
<svg width="113.242mm" height="15.5222mm"
 viewBox="0 0 321 44"
 xmlns="http://www.w3.org/2000/svg" xmlns:xlink="http://www.w3.org/1999/xlink" version="1.2" baseProfile="tiny">
<title>Abstract block</title>
<desc>block_hubs_technicmove_motors_start_motors_at_speed</desc>
<defs>
</defs>
<g fill="none" stroke="black" stroke-width="1" fill-rule="evenodd" stroke-linecap="square" stroke-linejoin="bevel" >

<g fill="none" stroke="#000000" stroke-opacity="1" stroke-width="1" stroke-linecap="square" stroke-linejoin="bevel" transform="matrix(1,0,0,1,0,0)"
font-family=".AppleSystemUIFont" font-size="13" font-weight="400" font-style="normal" 
>
</g>

<g fill="none" stroke="#000000" stroke-opacity="1" stroke-width="1" stroke-linecap="square" stroke-linejoin="bevel" transform="matrix(1,0,0,1,0,0)"
font-family=".AppleSystemUIFont" font-size="13" font-weight="400" font-style="normal" 
>
</g>

<g fill="#0090f5" fill-opacity="1" stroke="#0070ba" stroke-opacity="1" stroke-width="1.2" stroke-linecap="square" stroke-linejoin="bevel" transform="matrix(1,0,0,1,0,0)"
font-family=".AppleSystemUIFont" font-size="13" font-weight="400" font-style="normal" 
>
<path vector-effect="none" fill-rule="evenodd" d="M0.5,4.5 L1.04612,2.48112 L2.48112,1.04612 L4.5,0.5 L9.625,0.5 L10.416,0.976563 L11.1719,1.6875 L11.998,2.67969 L13,4 L13.7559,4.66016 L14.5469,5.15625 L15.4082,5.51172 L16.375,5.75 L17.4824,5.89453 L18.7656,5.96875 L20.2598,5.99609 L22,6 L23.7402,5.99609 L25.2344,5.96875 L26.5176,5.89453 L27.625,5.75 L28.5918,5.51172 L29.4531,5.15625 L30.2441,4.66016 L31,4 L32.002,2.67969 L32.8281,1.6875 L33.584,0.976563 L34.375,0.5 L316.4,0.5 L318.419,1.04612 L319.854,2.48112 L320.4,4.5 L320.4,31.5 L319.854,33.5189 L318.419,34.9539 L316.4,35.5 L34.375,35.5 L33.584,35.9766 L32.8281,36.6875 L32.002,37.6797 L31,39 L30.2441,39.6602 L29.4531,40.1563 L28.5918,40.5117 L27.625,40.75 L26.5176,40.8945 L25.2344,40.9688 L23.7402,40.9961 L22,41 L20.2598,40.9961 L18.7656,40.9688 L17.4824,40.8945 L16.375,40.75 L15.4082,40.5117 L14.5469,40.1563 L13.7559,39.6602 L13,39 L11.998,37.6797 L11.1719,36.6875 L10.416,35.9766 L9.625,35.5 L4.5,35.5 L2.48112,34.9539 L1.04612,33.5189 L0.5,31.5 L0.5,4.5"/>
</g>

<g fill="#ffffff" fill-opacity="1" stroke="none" transform="matrix(1,0,0,1,0,0)"
font-family="Inter" font-size="11" font-weight="700" font-style="normal" 
>
<path vector-effect="none" fill-rule="nonzero" d="M152.094,17.1641 L150.57,17.2578 C150.544,17.1276 150.488,17.0098 150.402,16.9043 C150.316,16.7988 150.204,16.7142 150.064,16.6504 C149.925,16.5866 149.759,16.5547 149.566,16.5547 C149.309,16.5547 149.091,16.6087 148.914,16.7168 C148.737,16.8249 148.648,16.9688 148.648,17.1484 C148.648,17.2917 148.706,17.4128 148.82,17.5117 C148.935,17.6107 149.132,17.6901 149.41,17.75 L150.496,17.9688 C151.079,18.0885 151.514,18.2813 151.801,18.5469 C152.087,18.8125 152.23,19.1615 152.23,19.5938 C152.23,19.987 152.115,20.332 151.885,20.6289 C151.654,20.9258 151.339,21.1569 150.939,21.3223 C150.54,21.4876 150.079,21.5703 149.559,21.5703 C148.764,21.5703 148.132,21.4043 147.662,21.0723 C147.192,20.7402 146.917,20.2878 146.836,19.7148 L148.473,19.6289 C148.522,19.8711 148.642,20.0553 148.832,20.1816 C149.022,20.3079 149.266,20.3711 149.563,20.3711 C149.854,20.3711 150.089,20.3145 150.268,20.2012 C150.446,20.0879 150.536,19.9414 150.539,19.7617 C150.536,19.6107 150.473,19.4863 150.348,19.3887 C150.223,19.291 150.03,19.2161 149.77,19.1641 L148.73,18.957 C148.145,18.8398 147.709,18.6367 147.424,18.3477 C147.139,18.0586 146.996,17.6901 146.996,17.2422 C146.996,16.8568 147.101,16.5247 147.311,16.2461 C147.52,15.9674 147.816,15.7526 148.197,15.6016 C148.579,15.4505 149.026,15.375 149.539,15.375 C150.297,15.375 150.894,15.5352 151.33,15.8555 C151.766,16.1758 152.021,16.612 152.094,17.1641 M156.465,15.4531 L156.465,16.7031 L152.852,16.7031 L152.852,15.4531 L156.465,15.4531 M153.672,14.0156 L155.336,14.0156 L155.336,19.6094 C155.336,19.763 155.359,19.8822 155.406,19.9668 C155.453,20.0514 155.519,20.1107 155.604,20.1445 C155.688,20.1784 155.786,20.1953 155.898,20.1953 C155.977,20.1953 156.055,20.1882 156.133,20.1738 C156.211,20.1595 156.271,20.1484 156.313,20.1406 L156.574,21.3789 C156.491,21.4049 156.374,21.4355 156.223,21.4707 C156.072,21.5059 155.888,21.5273 155.672,21.5352 C155.271,21.5508 154.92,21.4974 154.619,21.375 C154.318,21.2526 154.085,21.0625 153.918,20.8047 C153.751,20.5469 153.669,20.2214 153.672,19.8281 L153.672,14.0156 M159.25,21.5664 C158.867,21.5664 158.526,21.4993 158.227,21.3652 C157.927,21.2311 157.691,21.0319 157.518,20.7676 C157.344,20.5033 157.258,20.1732 157.258,19.7773 C157.258,19.444 157.319,19.1641 157.441,18.9375 C157.564,18.7109 157.73,18.5286 157.941,18.3906 C158.152,18.2526 158.393,18.1484 158.662,18.0781 C158.932,18.0078 159.215,17.9583 159.512,17.9297 C159.861,17.8932 160.142,17.8587 160.355,17.8262 C160.569,17.7936 160.724,17.7448 160.82,17.6797 C160.917,17.6146 160.965,17.5182 160.965,17.3906 L160.965,17.3672 C160.965,17.1198 160.887,16.9284 160.732,16.793 C160.577,16.6576 160.358,16.5898 160.074,16.5898 C159.775,16.5898 159.536,16.6556 159.359,16.7871 C159.182,16.9186 159.065,17.0833 159.008,17.2813 L157.469,17.1563 C157.547,16.7917 157.701,16.4759 157.93,16.209 C158.159,15.9421 158.455,15.7363 158.818,15.5918 C159.182,15.4473 159.603,15.375 160.082,15.375 C160.415,15.375 160.735,15.4141 161.041,15.4922 C161.347,15.5703 161.619,15.6914 161.857,15.8555 C162.096,16.0195 162.284,16.2298 162.422,16.4863 C162.56,16.7428 162.629,17.0495 162.629,17.4063 L162.629,21.4531 L161.051,21.4531 L161.051,20.6211 L161.004,20.6211 C160.908,20.8086 160.779,20.9733 160.617,21.1152 C160.456,21.2572 160.262,21.3678 160.035,21.4473 C159.809,21.5267 159.547,21.5664 159.25,21.5664 M159.727,20.418 C159.971,20.418 160.188,20.3691 160.375,20.2715 C160.563,20.1738 160.71,20.0417 160.816,19.875 C160.923,19.7083 160.977,19.5195 160.977,19.3086 L160.977,18.6719 C160.924,18.7057 160.854,18.7363 160.764,18.7637 C160.674,18.791 160.573,18.8158 160.461,18.8379 C160.349,18.86 160.237,18.8796 160.125,18.8965 C160.013,18.9134 159.911,18.9284 159.82,18.9414 C159.625,18.9701 159.454,19.0156 159.309,19.0781 C159.163,19.1406 159.049,19.2246 158.969,19.3301 C158.888,19.4355 158.848,19.5664 158.848,19.7227 C158.848,19.9492 158.93,20.1217 159.096,20.2402 C159.261,20.3587 159.471,20.418 159.727,20.418 M163.914,21.4531 L163.914,15.4531 L165.527,15.4531 L165.527,16.5 L165.59,16.5 C165.699,16.1276 165.883,15.8457 166.141,15.6543 C166.398,15.4629 166.695,15.3672 167.031,15.3672 C167.115,15.3672 167.204,15.3724 167.301,15.3828 C167.397,15.3932 167.482,15.4076 167.555,15.4258 L167.555,16.9023 C167.477,16.8789 167.368,16.8581 167.23,16.8398 C167.092,16.8216 166.966,16.8125 166.852,16.8125 C166.607,16.8125 166.389,16.8652 166.197,16.9707 C166.006,17.0762 165.855,17.2227 165.744,17.4102 C165.633,17.5977 165.578,17.8138 165.578,18.0586 L165.578,21.4531 L163.914,21.4531 M171.887,15.4531 L171.887,16.7031 L168.273,16.7031 L168.273,15.4531 L171.887,15.4531 M169.094,14.0156 L170.758,14.0156 L170.758,19.6094 C170.758,19.763 170.781,19.8822 170.828,19.9668 C170.875,20.0514 170.941,20.1107 171.025,20.1445 C171.11,20.1784 171.208,20.1953 171.32,20.1953 C171.398,20.1953 171.477,20.1882 171.555,20.1738 C171.633,20.1595 171.693,20.1484 171.734,20.1406 L171.996,21.3789 C171.913,21.4049 171.796,21.4355 171.645,21.4707 C171.493,21.5059 171.31,21.5273 171.094,21.5352 C170.693,21.5508 170.342,21.4974 170.041,21.375 C169.74,21.2526 169.507,21.0625 169.34,20.8047 C169.173,20.5469 169.091,20.2214 169.094,19.8281 L169.094,14.0156 M175.508,21.4531 L175.508,15.4531 L177.094,15.4531 L177.094,16.5117 L177.164,16.5117 C177.289,16.1602 177.497,15.8828 177.789,15.6797 C178.081,15.4766 178.43,15.375 178.836,15.375 C179.247,15.375 179.598,15.4772 179.887,15.6816 C180.176,15.8861 180.368,16.1628 180.465,16.5117 L180.527,16.5117 C180.65,16.168 180.872,15.8926 181.193,15.6855 C181.515,15.4785 181.896,15.375 182.336,15.375 C182.896,15.375 183.351,15.5527 183.701,15.9082 C184.051,16.2637 184.227,16.7669 184.227,17.418 L184.227,21.4531 L182.566,21.4531 L182.566,17.7461 C182.566,17.4128 182.478,17.1628 182.301,16.9961 C182.124,16.8294 181.902,16.7461 181.637,16.7461 C181.335,16.7461 181.099,16.8418 180.93,17.0332 C180.76,17.2246 180.676,17.4766 180.676,17.7891 L180.676,21.4531 L179.063,21.4531 L179.063,17.7109 C179.063,17.4167 178.979,17.1823 178.811,17.0078 C178.643,16.8333 178.422,16.7461 178.148,16.7461 C177.964,16.7461 177.798,16.7923 177.65,16.8848 C177.503,16.9772 177.387,17.1061 177.301,17.2715 C177.215,17.4368 177.172,17.6302 177.172,17.8516 L177.172,21.4531 L175.508,21.4531 M188.25,21.5703 C187.643,21.5703 187.119,21.4408 186.678,21.1816 C186.236,20.9225 185.896,20.5605 185.656,20.0957 C185.417,19.6309 185.297,19.0911 185.297,18.4766 C185.297,17.8568 185.417,17.3145 185.656,16.8496 C185.896,16.3848 186.236,16.0228 186.678,15.7637 C187.119,15.5046 187.643,15.375 188.25,15.375 C188.857,15.375 189.381,15.5046 189.822,15.7637 C190.264,16.0228 190.604,16.3848 190.844,16.8496 C191.083,17.3145 191.203,17.8568 191.203,18.4766 C191.203,19.0911 191.083,19.6309 190.844,20.0957 C190.604,20.5605 190.264,20.9225 189.822,21.1816 C189.381,21.4408 188.857,21.5703 188.25,21.5703 M188.258,20.2813 C188.534,20.2813 188.764,20.2025 188.949,20.0449 C189.134,19.8874 189.274,19.6719 189.369,19.3984 C189.464,19.125 189.512,18.8138 189.512,18.4648 C189.512,18.1159 189.464,17.8047 189.369,17.5313 C189.274,17.2578 189.134,17.0417 188.949,16.8828 C188.764,16.724 188.534,16.6445 188.258,16.6445 C187.979,16.6445 187.745,16.724 187.557,16.8828 C187.368,17.0417 187.226,17.2578 187.131,17.5313 C187.036,17.8047 186.988,18.1159 186.988,18.4648 C186.988,18.8138 187.036,19.125 187.131,19.3984 C187.226,19.6719 187.368,19.8874 187.557,20.0449 C187.745,20.2025 187.979,20.2813 188.258,20.2813 M195.48,15.4531 L195.48,16.7031 L191.867,16.7031 L191.867,15.4531 L195.48,15.4531 M192.688,14.0156 L194.352,14.0156 L194.352,19.6094 C194.352,19.763 194.375,19.8822 194.422,19.9668 C194.469,20.0514 194.535,20.1107 194.619,20.1445 C194.704,20.1784 194.802,20.1953 194.914,20.1953 C194.992,20.1953 195.07,20.1882 195.148,20.1738 C195.227,20.1595 195.286,20.1484 195.328,20.1406 L195.59,21.3789 C195.507,21.4049 195.389,21.4355 195.238,21.4707 C195.087,21.5059 194.904,21.5273 194.688,21.5352 C194.286,21.5508 193.936,21.4974 193.635,21.375 C193.334,21.2526 193.1,21.0625 192.934,20.8047 C192.767,20.5469 192.685,20.2214 192.688,19.8281 L192.688,14.0156 M199.203,21.5703 C198.596,21.5703 198.072,21.4408 197.631,21.1816 C197.189,20.9225 196.849,20.5605 196.609,20.0957 C196.37,19.6309 196.25,19.0911 196.25,18.4766 C196.25,17.8568 196.37,17.3145 196.609,16.8496 C196.849,16.3848 197.189,16.0228 197.631,15.7637 C198.072,15.5046 198.596,15.375 199.203,15.375 C199.81,15.375 200.334,15.5046 200.775,15.7637 C201.217,16.0228 201.557,16.3848 201.797,16.8496 C202.036,17.3145 202.156,17.8568 202.156,18.4766 C202.156,19.0911 202.036,19.6309 201.797,20.0957 C201.557,20.5605 201.217,20.9225 200.775,21.1816 C200.334,21.4408 199.81,21.5703 199.203,21.5703 M199.211,20.2813 C199.487,20.2813 199.717,20.2025 199.902,20.0449 C200.087,19.8874 200.227,19.6719 200.322,19.3984 C200.417,19.125 200.465,18.8138 200.465,18.4648 C200.465,18.1159 200.417,17.8047 200.322,17.5313 C200.227,17.2578 200.087,17.0417 199.902,16.8828 C199.717,16.724 199.487,16.6445 199.211,16.6445 C198.932,16.6445 198.699,16.724 198.51,16.8828 C198.321,17.0417 198.179,17.2578 198.084,17.5313 C197.989,17.8047 197.941,18.1159 197.941,18.4648 C197.941,18.8138 197.989,19.125 198.084,19.3984 C198.179,19.6719 198.321,19.8874 198.51,20.0449 C198.699,20.2025 198.932,20.2813 199.211,20.2813 M203.242,21.4531 L203.242,15.4531 L204.855,15.4531 L204.855,16.5 L204.918,16.5 C205.027,16.1276 205.211,15.8457 205.469,15.6543 C205.727,15.4629 206.023,15.3672 206.359,15.3672 C206.443,15.3672 206.533,15.3724 206.629,15.3828 C206.725,15.3932 206.81,15.4076 206.883,15.4258 L206.883,16.9023 C206.805,16.8789 206.697,16.8581 206.559,16.8398 C206.421,16.8216 206.294,16.8125 206.18,16.8125 C205.935,16.8125 205.717,16.8652 205.525,16.9707 C205.334,17.0762 205.183,17.2227 205.072,17.4102 C204.962,17.5977 204.906,17.8138 204.906,18.0586 L204.906,21.4531 L203.242,21.4531 M212.719,17.1641 L211.195,17.2578 C211.169,17.1276 211.113,17.0098 211.027,16.9043 C210.941,16.7988 210.829,16.7142 210.689,16.6504 C210.55,16.5866 210.384,16.5547 210.191,16.5547 C209.934,16.5547 209.716,16.6087 209.539,16.7168 C209.362,16.8249 209.273,16.9688 209.273,17.1484 C209.273,17.2917 209.331,17.4128 209.445,17.5117 C209.56,17.6107 209.757,17.6901 210.035,17.75 L211.121,17.9688 C211.704,18.0885 212.139,18.2813 212.426,18.5469 C212.712,18.8125 212.855,19.1615 212.855,19.5938 C212.855,19.987 212.74,20.332 212.51,20.6289 C212.279,20.9258 211.964,21.1569 211.564,21.3223 C211.165,21.4876 210.704,21.5703 210.184,21.5703 C209.389,21.5703 208.757,21.4043 208.287,21.0723 C207.817,20.7402 207.542,20.2878 207.461,19.7148 L209.098,19.6289 C209.147,19.8711 209.267,20.0553 209.457,20.1816 C209.647,20.3079 209.891,20.3711 210.188,20.3711 C210.479,20.3711 210.714,20.3145 210.893,20.2012 C211.071,20.0879 211.161,19.9414 211.164,19.7617 C211.161,19.6107 211.098,19.4863 210.973,19.3887 C210.848,19.291 210.655,19.2161 210.395,19.1641 L209.355,18.957 C208.77,18.8398 208.334,18.6367 208.049,18.3477 C207.764,18.0586 207.621,17.6901 207.621,17.2422 C207.621,16.8568 207.726,16.5247 207.936,16.2461 C208.145,15.9674 208.441,15.7526 208.822,15.6016 C209.204,15.4505 209.651,15.375 210.164,15.375 C210.922,15.375 211.519,15.5352 211.955,15.8555 C212.391,16.1758 212.646,16.612 212.719,17.1641 M218.156,21.5664 C217.773,21.5664 217.432,21.4993 217.133,21.3652 C216.833,21.2311 216.597,21.0319 216.424,20.7676 C216.251,20.5033 216.164,20.1732 216.164,19.7773 C216.164,19.444 216.225,19.1641 216.348,18.9375 C216.47,18.7109 216.637,18.5286 216.848,18.3906 C217.059,18.2526 217.299,18.1484 217.568,18.0781 C217.838,18.0078 218.121,17.9583 218.418,17.9297 C218.767,17.8932 219.048,17.8587 219.262,17.8262 C219.475,17.7936 219.63,17.7448 219.727,17.6797 C219.823,17.6146 219.871,17.5182 219.871,17.3906 L219.871,17.3672 C219.871,17.1198 219.794,16.9284 219.639,16.793 C219.484,16.6576 219.264,16.5898 218.98,16.5898 C218.681,16.5898 218.443,16.6556 218.266,16.7871 C218.089,16.9186 217.971,17.0833 217.914,17.2813 L216.375,17.1563 C216.453,16.7917 216.607,16.4759 216.836,16.209 C217.065,15.9421 217.361,15.7363 217.725,15.5918 C218.088,15.4473 218.509,15.375 218.988,15.375 C219.322,15.375 219.641,15.4141 219.947,15.4922 C220.253,15.5703 220.525,15.6914 220.764,15.8555 C221.002,16.0195 221.19,16.2298 221.328,16.4863 C221.466,16.7428 221.535,17.0495 221.535,17.4063 L221.535,21.4531 L219.957,21.4531 L219.957,20.6211 L219.91,20.6211 C219.814,20.8086 219.685,20.9733 219.523,21.1152 C219.362,21.2572 219.168,21.3678 218.941,21.4473 C218.715,21.5267 218.453,21.5664 218.156,21.5664 M218.633,20.418 C218.878,20.418 219.094,20.3691 219.281,20.2715 C219.469,20.1738 219.616,20.0417 219.723,19.875 C219.829,19.7083 219.883,19.5195 219.883,19.3086 L219.883,18.6719 C219.831,18.7057 219.76,18.7363 219.67,18.7637 C219.58,18.791 219.479,18.8158 219.367,18.8379 C219.255,18.86 219.143,18.8796 219.031,18.8965 C218.919,18.9134 218.818,18.9284 218.727,18.9414 C218.531,18.9701 218.361,19.0156 218.215,19.0781 C218.069,19.1406 217.956,19.2246 217.875,19.3301 C217.794,19.4355 217.754,19.5664 217.754,19.7227 C217.754,19.9492 217.837,20.1217 218.002,20.2402 C218.167,20.3587 218.378,20.418 218.633,20.418 M226.012,15.4531 L226.012,16.7031 L222.398,16.7031 L222.398,15.4531 L226.012,15.4531 M223.219,14.0156 L224.883,14.0156 L224.883,19.6094 C224.883,19.763 224.906,19.8822 224.953,19.9668 C225,20.0514 225.066,20.1107 225.15,20.1445 C225.235,20.1784 225.333,20.1953 225.445,20.1953 C225.523,20.1953 225.602,20.1882 225.68,20.1738 C225.758,20.1595 225.818,20.1484 225.859,20.1406 L226.121,21.3789 C226.038,21.4049 225.921,21.4355 225.77,21.4707 C225.618,21.5059 225.435,21.5273 225.219,21.5352 C224.818,21.5508 224.467,21.4974 224.166,21.375 C223.865,21.2526 223.632,21.0625 223.465,20.8047 C223.298,20.5469 223.216,20.2214 223.219,19.8281 L223.219,14.0156"/>
</g>

<g fill="#ffffff" fill-opacity="1" stroke="none" transform="matrix(1,0,0,1,0,0)"
font-family="Inter" font-size="11" font-weight="700" font-style="normal" 
>
<path vector-effect="none" fill-rule="nonzero" d="M268.543,19.4688 L268.543,19.0469 C268.543,18.7266 268.611,18.4316 268.748,18.1621 C268.885,17.8926 269.084,17.6764 269.346,17.5137 C269.607,17.3509 269.927,17.2695 270.305,17.2695 C270.688,17.2695 271.01,17.3503 271.271,17.5117 C271.533,17.6732 271.731,17.8887 271.865,18.1582 C271.999,18.4277 272.066,18.724 272.066,19.0469 L272.066,19.4688 C272.066,19.7891 271.999,20.084 271.863,20.3535 C271.728,20.623 271.529,20.8392 271.266,21.002 C271.003,21.1647 270.682,21.2461 270.305,21.2461 C269.922,21.2461 269.6,21.1647 269.34,21.002 C269.079,20.8392 268.882,20.623 268.746,20.3535 C268.611,20.084 268.543,19.7891 268.543,19.4688 M269.68,19.0469 L269.68,19.4688 C269.68,19.6536 269.725,19.8281 269.814,19.9922 C269.904,20.1563 270.068,20.2383 270.305,20.2383 C270.542,20.2383 270.704,20.1576 270.791,19.9961 C270.878,19.8346 270.922,19.6589 270.922,19.4688 L270.922,19.0469 C270.922,18.8568 270.88,18.6797 270.797,18.5156 C270.714,18.3516 270.549,18.2695 270.305,18.2695 C270.07,18.2695 269.908,18.3516 269.816,18.5156 C269.725,18.6797 269.68,18.8568 269.68,19.0469 M264.438,14.8906 L264.438,14.4688 C264.438,14.1458 264.507,13.8496 264.645,13.5801 C264.783,13.3105 264.982,13.0951 265.244,12.9336 C265.506,12.7721 265.823,12.6914 266.195,12.6914 C266.581,12.6914 266.904,12.7721 267.164,12.9336 C267.424,13.0951 267.622,13.3105 267.758,13.5801 C267.893,13.8496 267.961,14.1458 267.961,14.4688 L267.961,14.8906 C267.961,15.2135 267.893,15.5091 267.756,15.7773 C267.619,16.0456 267.42,16.2598 267.158,16.4199 C266.896,16.5801 266.576,16.6602 266.195,16.6602 C265.815,16.6602 265.494,16.5788 265.232,16.416 C264.971,16.2533 264.773,16.0384 264.639,15.7715 C264.505,15.5046 264.438,15.2109 264.438,14.8906 M265.582,14.4688 L265.582,14.8906 C265.582,15.0807 265.627,15.2565 265.717,15.418 C265.807,15.5794 265.966,15.6602 266.195,15.6602 C266.435,15.6602 266.598,15.5794 266.686,15.418 C266.773,15.2565 266.816,15.0807 266.816,14.8906 L266.816,14.4688 C266.816,14.2786 266.775,14.1016 266.691,13.9375 C266.608,13.7734 266.443,13.6914 266.195,13.6914 C265.964,13.6914 265.803,13.7747 265.715,13.9414 C265.626,14.1081 265.582,14.2839 265.582,14.4688 M264.953,20.9688 L270.453,12.9688 L271.477,12.9688 L265.977,20.9688 L264.953,20.9688 M281.172,16.6797 L279.648,16.7734 C279.622,16.6432 279.566,16.5254 279.48,16.4199 C279.395,16.3145 279.282,16.2298 279.143,16.166 C279.003,16.1022 278.837,16.0703 278.645,16.0703 C278.387,16.0703 278.169,16.1243 277.992,16.2324 C277.815,16.3405 277.727,16.4844 277.727,16.6641 C277.727,16.8073 277.784,16.9284 277.898,17.0273 C278.013,17.1263 278.21,17.2057 278.488,17.2656 L279.574,17.4844 C280.158,17.6042 280.592,17.7969 280.879,18.0625 C281.165,18.3281 281.309,18.6771 281.309,19.1094 C281.309,19.5026 281.193,19.8477 280.963,20.1445 C280.732,20.4414 280.417,20.6725 280.018,20.8379 C279.618,21.0033 279.158,21.0859 278.637,21.0859 C277.842,21.0859 277.21,20.9199 276.74,20.5879 C276.27,20.2559 275.995,19.8034 275.914,19.2305 L277.551,19.1445 C277.6,19.3867 277.72,19.571 277.91,19.6973 C278.1,19.8236 278.344,19.8867 278.641,19.8867 C278.932,19.8867 279.167,19.8301 279.346,19.7168 C279.524,19.6035 279.615,19.457 279.617,19.2773 C279.615,19.1263 279.551,19.002 279.426,18.9043 C279.301,18.8066 279.108,18.7318 278.848,18.6797 L277.809,18.4727 C277.223,18.3555 276.787,18.1523 276.502,17.8633 C276.217,17.5742 276.074,17.2057 276.074,16.7578 C276.074,16.3724 276.179,16.0404 276.389,15.7617 C276.598,15.4831 276.894,15.2682 277.275,15.1172 C277.657,14.9661 278.104,14.8906 278.617,14.8906 C279.375,14.8906 279.972,15.0508 280.408,15.3711 C280.844,15.6914 281.099,16.1276 281.172,16.6797 M282.352,23.2188 L282.352,14.9688 L283.992,14.9688 L283.992,15.9766 L284.066,15.9766 C284.139,15.8151 284.245,15.6504 284.385,15.4824 C284.524,15.3145 284.706,15.1738 284.932,15.0605 C285.157,14.9473 285.438,14.8906 285.773,14.8906 C286.211,14.8906 286.615,15.0046 286.984,15.2324 C287.354,15.4603 287.65,15.8027 287.871,16.2598 C288.092,16.7168 288.203,17.2891 288.203,17.9766 C288.203,18.6458 288.096,19.2103 287.881,19.6699 C287.666,20.1296 287.374,20.4772 287.006,20.7129 C286.637,20.9486 286.225,21.0664 285.77,21.0664 C285.447,21.0664 285.173,21.013 284.947,20.9063 C284.722,20.7995 284.538,20.6647 284.395,20.502 C284.251,20.3392 284.142,20.1745 284.066,20.0078 L284.016,20.0078 L284.016,23.2188 L282.352,23.2188 M283.98,17.9688 C283.98,18.3255 284.03,18.6367 284.129,18.9023 C284.228,19.168 284.371,19.3743 284.559,19.5215 C284.746,19.6686 284.974,19.7422 285.242,19.7422 C285.513,19.7422 285.742,19.6673 285.93,19.5176 C286.117,19.3678 286.26,19.1595 286.357,18.8926 C286.455,18.6257 286.504,18.3177 286.504,17.9688 C286.504,17.6224 286.456,17.3177 286.359,17.0547 C286.263,16.7917 286.121,16.5859 285.934,16.4375 C285.746,16.2891 285.516,16.2148 285.242,16.2148 C284.971,16.2148 284.743,16.2865 284.557,16.4297 C284.37,16.5729 284.228,16.776 284.129,17.0391 C284.03,17.3021 283.98,17.612 283.98,17.9688 M292.039,21.0859 C291.422,21.0859 290.891,20.9603 290.447,20.709 C290.003,20.4577 289.661,20.1009 289.422,19.6387 C289.182,19.1764 289.063,18.6289 289.063,17.9961 C289.063,17.3789 289.182,16.8372 289.422,16.3711 C289.661,15.9049 289.999,15.5417 290.436,15.2813 C290.872,15.0208 291.384,14.8906 291.973,14.8906 C292.368,14.8906 292.738,14.9538 293.08,15.0801 C293.423,15.2064 293.722,15.3958 293.979,15.6484 C294.235,15.901 294.435,16.2181 294.578,16.5996 C294.721,16.9811 294.793,17.4271 294.793,17.9375 L294.793,18.3945 L289.727,18.3945 L289.727,17.3633 L293.227,17.3633 C293.227,17.1237 293.174,16.9115 293.07,16.7266 C292.966,16.5417 292.822,16.3965 292.639,16.291 C292.455,16.1855 292.242,16.1328 292,16.1328 C291.747,16.1328 291.524,16.1908 291.33,16.3066 C291.136,16.4225 290.984,16.5775 290.875,16.7715 C290.766,16.9655 290.71,17.181 290.707,17.418 L290.707,18.3984 C290.707,18.6953 290.762,18.9518 290.873,19.168 C290.984,19.3841 291.141,19.5508 291.344,19.668 C291.547,19.7852 291.788,19.8438 292.066,19.8438 C292.251,19.8438 292.421,19.8177 292.574,19.7656 C292.728,19.7135 292.859,19.6354 292.969,19.5313 C293.078,19.4271 293.161,19.2995 293.219,19.1484 L294.758,19.25 C294.68,19.6198 294.52,19.9421 294.279,20.2168 C294.038,20.4915 293.729,20.7051 293.35,20.8574 C292.971,21.0098 292.534,21.0859 292.039,21.0859 M298.602,21.0859 C297.984,21.0859 297.454,20.9603 297.01,20.709 C296.566,20.4577 296.224,20.1009 295.984,19.6387 C295.745,19.1764 295.625,18.6289 295.625,17.9961 C295.625,17.3789 295.745,16.8372 295.984,16.3711 C296.224,15.9049 296.562,15.5417 296.998,15.2813 C297.434,15.0208 297.947,14.8906 298.535,14.8906 C298.931,14.8906 299.3,14.9538 299.643,15.0801 C299.985,15.2064 300.285,15.3958 300.541,15.6484 C300.798,15.901 300.997,16.2181 301.141,16.5996 C301.284,16.9811 301.355,17.4271 301.355,17.9375 L301.355,18.3945 L296.289,18.3945 L296.289,17.3633 L299.789,17.3633 C299.789,17.1237 299.737,16.9115 299.633,16.7266 C299.529,16.5417 299.385,16.3965 299.201,16.291 C299.018,16.1855 298.805,16.1328 298.563,16.1328 C298.31,16.1328 298.087,16.1908 297.893,16.3066 C297.699,16.4225 297.547,16.5775 297.438,16.7715 C297.328,16.9655 297.272,17.181 297.27,17.418 L297.27,18.3984 C297.27,18.6953 297.325,18.9518 297.436,19.168 C297.546,19.3841 297.703,19.5508 297.906,19.668 C298.109,19.7852 298.35,19.8438 298.629,19.8438 C298.814,19.8438 298.983,19.8177 299.137,19.7656 C299.29,19.7135 299.422,19.6354 299.531,19.5313 C299.641,19.4271 299.724,19.2995 299.781,19.1484 L301.32,19.25 C301.242,19.6198 301.083,19.9421 300.842,20.2168 C300.601,20.4915 300.291,20.7051 299.912,20.8574 C299.533,21.0098 299.096,21.0859 298.602,21.0859 M304.641,21.0664 C304.185,21.0664 303.773,20.9486 303.404,20.7129 C303.036,20.4772 302.744,20.1296 302.529,19.6699 C302.314,19.2103 302.207,18.6458 302.207,17.9766 C302.207,17.2891 302.318,16.7168 302.539,16.2598 C302.76,15.8027 303.055,15.4603 303.424,15.2324 C303.792,15.0046 304.197,14.8906 304.637,14.8906 C304.973,14.8906 305.253,14.9473 305.479,15.0605 C305.704,15.1738 305.886,15.3145 306.025,15.4824 C306.165,15.6504 306.271,15.8151 306.344,15.9766 L306.395,15.9766 L306.395,12.9688 L308.055,12.9688 L308.055,20.9688 L306.414,20.9688 L306.414,20.0078 L306.344,20.0078 C306.266,20.1745 306.156,20.3392 306.014,20.502 C305.872,20.6647 305.688,20.7995 305.463,20.9063 C305.238,21.013 304.964,21.0664 304.641,21.0664 M305.168,19.7422 C305.436,19.7422 305.663,19.6686 305.85,19.5215 C306.036,19.3743 306.179,19.168 306.279,18.9023 C306.38,18.6367 306.43,18.3255 306.43,17.9688 C306.43,17.612 306.38,17.3021 306.281,17.0391 C306.182,16.776 306.039,16.5729 305.852,16.4297 C305.664,16.2865 305.436,16.2148 305.168,16.2148 C304.895,16.2148 304.664,16.2891 304.477,16.4375 C304.289,16.5859 304.147,16.7917 304.051,17.0547 C303.954,17.3177 303.906,17.6224 303.906,17.9688 C303.906,18.3177 303.955,18.6257 304.053,18.8926 C304.15,19.1595 304.292,19.3678 304.479,19.5176 C304.665,19.6673 304.895,19.7422 305.168,19.7422 "/>
</g>

<g fill="#ffffff" fill-opacity="1" stroke="none" transform="matrix(0.0285,0,0,0.0285,11.2928,9.44754)"
font-family="Inter" font-size="11" font-weight="700" font-style="normal" 
>
<path vector-effect="none" fill-rule="nonzero" d="M410.778,59.991 C376.729,59.991 346.629,75.6235 326.182,99.684 C216.768,129.689 131.433,215.271 101.927,324.891 C79.5232,345.494 65.3275,374.762 65.54,407.6 C65.7463,439.573 79.3407,468.172 100.975,488.421 C130.228,601.34 218.744,689.335 331.859,718.096 C331.956,718.125 331.989,718.313 332.085,718.338 C352.242,738.376 380.064,750.708 410.778,750.708 C441.492,750.708 469.314,738.376 489.47,718.338 C489.549,718.262 489.618,718.17 489.696,718.096 C604.323,688.948 693.738,598.994 721.758,483.921 C742.939,463.42 756.216,434.907 756.015,403.1 C755.801,370.079 741.086,340.899 718.209,320.633 C687.622,213.077 603.338,129.291 495.373,99.684 C474.926,75.6235 444.827,59.991 410.778,59.991 M410.778,91.8938 C455.052,91.8938 490.89,127.731 490.89,172.006 C490.89,216.28 455.052,252.102 410.778,252.102 C366.503,252.102 330.666,216.28 330.666,172.006 C330.666,127.731 366.503,91.8938 410.778,91.8938 M177.071,325.601 C221.346,325.601 257.183,361.438 257.183,405.713 C257.183,449.987 221.346,485.808 177.071,485.808 C132.796,485.808 96.7332,449.987 96.7332,405.713 C96.7332,361.438 132.796,325.601 177.071,325.601 M644.485,325.601 C688.763,325.601 724.822,361.438 724.822,405.713 C724.822,449.987 688.763,485.808 644.485,485.808 C600.21,485.808 564.373,449.987 564.373,405.713 C564.373,361.438 600.21,325.601 644.485,325.601 M396.601,335.762 L424.955,335.762 C431.754,335.762 437.245,342.538 437.245,350.891 L437.245,381.6 L467.971,381.6 C476.323,381.6 483.083,387.091 483.083,393.89 L483.083,422.245 C483.083,429.044 476.323,434.535 467.971,434.535 L437.245,434.535 L437.245,465.26 C437.245,473.612 431.754,480.373 424.955,480.373 L396.601,480.373 C389.801,480.373 384.31,473.613 384.31,465.26 L384.31,434.535 L353.585,434.535 C345.233,434.535 338.472,429.044 338.472,422.245 L338.472,393.89 C338.472,387.091 345.232,381.6 353.585,381.6 L384.31,381.6 L384.31,350.891 C384.31,342.539 389.801,335.762 396.601,335.762 M410.778,559.307 C455.052,559.307 490.89,595.371 490.89,639.645 C490.89,683.918 455.052,719.757 410.778,719.757 C366.503,719.757 330.666,683.918 330.666,639.645 C330.666,595.371 366.503,559.307 410.778,559.307 "/>
</g>

<g fill="none" stroke="#000000" stroke-opacity="1" stroke-width="22.7975" stroke-linecap="round" stroke-linejoin="round" transform="matrix(0.0285,0,0,0.0285,11.2928,9.44754)"
font-family="Inter" font-size="11" font-weight="700" font-style="normal" 
>
<path vector-effect="none" fill-rule="nonzero" d="M410.778,59.991 C376.729,59.991 346.629,75.6235 326.182,99.684 C216.768,129.689 131.433,215.271 101.927,324.891 C79.5232,345.494 65.3275,374.762 65.54,407.6 C65.7463,439.573 79.3407,468.172 100.975,488.421 C130.228,601.34 218.744,689.335 331.859,718.096 C331.956,718.125 331.989,718.313 332.085,718.338 C352.242,738.376 380.064,750.708 410.778,750.708 C441.492,750.708 469.314,738.376 489.47,718.338 C489.549,718.262 489.618,718.17 489.696,718.096 C604.323,688.948 693.738,598.994 721.758,483.921 C742.939,463.42 756.216,434.907 756.015,403.1 C755.801,370.079 741.086,340.899 718.209,320.633 C687.622,213.077 603.338,129.291 495.373,99.684 C474.926,75.6235 444.827,59.991 410.778,59.991 M410.778,91.8938 C455.052,91.8938 490.89,127.731 490.89,172.006 C490.89,216.28 455.052,252.102 410.778,252.102 C366.503,252.102 330.666,216.28 330.666,172.006 C330.666,127.731 366.503,91.8938 410.778,91.8938 M177.071,325.601 C221.346,325.601 257.183,361.438 257.183,405.713 C257.183,449.987 221.346,485.808 177.071,485.808 C132.796,485.808 96.7332,449.987 96.7332,405.713 C96.7332,361.438 132.796,325.601 177.071,325.601 M644.485,325.601 C688.763,325.601 724.822,361.438 724.822,405.713 C724.822,449.987 688.763,485.808 644.485,485.808 C600.21,485.808 564.373,449.987 564.373,405.713 C564.373,361.438 600.21,325.601 644.485,325.601 M396.601,335.762 L424.955,335.762 C431.754,335.762 437.245,342.538 437.245,350.891 L437.245,381.6 L467.971,381.6 C476.323,381.6 483.083,387.091 483.083,393.89 L483.083,422.245 C483.083,429.044 476.323,434.535 467.971,434.535 L437.245,434.535 L437.245,465.26 C437.245,473.612 431.754,480.373 424.955,480.373 L396.601,480.373 C389.801,480.373 384.31,473.613 384.31,465.26 L384.31,434.535 L353.585,434.535 C345.233,434.535 338.472,429.044 338.472,422.245 L338.472,393.89 C338.472,387.091 345.232,381.6 353.585,381.6 L384.31,381.6 L384.31,350.891 C384.31,342.539 389.801,335.762 396.601,335.762 M410.778,559.307 C455.052,559.307 490.89,595.371 490.89,639.645 C490.89,683.918 455.052,719.757 410.778,719.757 C366.503,719.757 330.666,683.918 330.666,639.645 C330.666,595.371 366.503,559.307 410.778,559.307 "/>
</g>

<g fill="#000000" fill-opacity="1" stroke="none" transform="matrix(0.0285,0,0,0.0285,11.2928,9.44754)"
font-family="Inter" font-size="11" font-weight="700" font-style="normal" 
>
<path vector-effect="none" fill-rule="evenodd" d="M394.961,355.661 C394.961,347.613 401.485,341.088 409.533,341.088 C417.582,341.088 424.106,347.613 424.106,355.661 L424.106,457.48 C424.106,465.528 417.582,472.053 409.533,472.053 C401.485,472.053 394.961,465.528 394.961,457.48 L394.961,355.661"/>
</g>

<g fill="none" stroke="#000000" stroke-opacity="1" stroke-width="20" stroke-linecap="round" stroke-linejoin="round" transform="matrix(0.0285,0,0,0.0285,11.2928,9.44754)"
font-family="Inter" font-size="11" font-weight="700" font-style="normal" 
>
<path vector-effect="none" fill-rule="evenodd" d="M394.961,355.661 C394.961,347.613 401.485,341.088 409.533,341.088 C417.582,341.088 424.106,347.613 424.106,355.661 L424.106,457.48 C424.106,465.528 417.582,472.053 409.533,472.053 C401.485,472.053 394.961,465.528 394.961,457.48 L394.961,355.661"/>
</g>

<g fill="#000000" fill-opacity="1" stroke="none" transform="matrix(0,0.0285,-0.0285,0,11.2928,9.44754)"
font-family="Inter" font-size="11" font-weight="700" font-style="normal" 
>
<path vector-effect="none" fill-rule="evenodd" d="M394.152,-461.016 C394.152,-469.064 400.676,-475.588 408.724,-475.588 C416.773,-475.588 423.297,-469.064 423.297,-461.016 L423.297,-359.196 C423.297,-351.148 416.773,-344.624 408.724,-344.624 C400.676,-344.624 394.152,-351.148 394.152,-359.196 L394.152,-461.016"/>
</g>

<g fill="none" stroke="#000000" stroke-opacity="1" stroke-width="20" stroke-linecap="round" stroke-linejoin="round" transform="matrix(0,0.0285,-0.0285,0,11.2928,9.44754)"
font-family="Inter" font-size="11" font-weight="700" font-style="normal" 
>
<path vector-effect="none" fill-rule="evenodd" d="M394.152,-461.016 C394.152,-469.064 400.676,-475.588 408.724,-475.588 C416.773,-475.588 423.297,-469.064 423.297,-461.016 L423.297,-359.196 C423.297,-351.148 416.773,-344.624 408.724,-344.624 C400.676,-344.624 394.152,-351.148 394.152,-359.196 L394.152,-461.016"/>
</g>

<g fill="#ffffff" fill-opacity="1" stroke="none" transform="matrix(1,0,0,1,0,0)"
font-family="Inter" font-size="11" font-weight="700" font-style="normal" 
>
</g>

<g fill="#ffffff" fill-opacity="1" stroke="#0070ba" stroke-opacity="1" stroke-width="1" stroke-linecap="square" stroke-linejoin="bevel" transform="matrix(1,0,0,1,0,0)"
font-family="Inter" font-size="11" font-weight="700" font-style="normal" 
>
<polyline fill="none" vector-effect="none" points="45,11 45,31 " />
</g>

<g fill="#ffffff" fill-opacity="1" stroke="#0070ba" stroke-opacity="1" stroke-width="1" stroke-linecap="square" stroke-linejoin="bevel" transform="matrix(1,0,0,1,0,0)"
font-family="Inter" font-size="11" font-weight="700" font-style="normal" 
>
</g>

<g fill="#ffffff" fill-opacity="1" stroke="#0070ba" stroke-opacity="1" stroke-width="1" stroke-linecap="square" stroke-linejoin="bevel" transform="matrix(1,0,0,1,0,0)"
font-family="Inter" font-size="11" font-weight="700" font-style="normal" 
>
</g>

<g fill="#ffffff" fill-opacity="1" stroke="#0070ba" stroke-opacity="1" stroke-width="1" stroke-linecap="square" stroke-linejoin="bevel" transform="matrix(1,0,0,1,0,0)"
font-family="Inter" font-size="11" font-weight="700" font-style="normal" 
>
</g>

<g fill="#ffffff" fill-opacity="1" stroke="#0064a6" stroke-opacity="1" stroke-width="1.2" stroke-linecap="square" stroke-linejoin="bevel" transform="matrix(1,0,0,1,232,7)"
font-family="Inter" font-size="11" font-weight="700" font-style="normal" 
>
<path vector-effect="none" fill-rule="evenodd" d="M1,11 C1,5.47715 5.92487,1 12,1 L14.4,1 C20.4751,1 25.4,5.47715 25.4,11 C25.4,16.5228 20.4751,21 14.4,21 L12,21 C5.92487,21 1,16.5228 1,11 "/>
</g>

<g fill="#000000" fill-opacity="1" stroke="none" transform="matrix(1,0,0,1,232,7)"
font-family="Inter" font-size="10" font-weight="700" font-style="normal" 
>
<path vector-effect="none" fill-rule="nonzero" d="M9.69886,14.5213 C9.19697,14.5213 8.75012,14.429 8.35831,14.2443 C7.9665,14.0597 7.65578,13.8052 7.42614,13.4808 C7.1965,13.1565 7.07694,12.7848 7.06747,12.3658 L8.55895,12.3658 C8.57552,12.6475 8.69389,12.8759 8.91406,13.0511 C9.13423,13.2263 9.39583,13.3139 9.69886,13.3139 C9.94034,13.3139 10.154,13.2601 10.3398,13.1523 C10.5257,13.0446 10.6713,12.8943 10.7766,12.7013 C10.882,12.5084 10.9347,12.2865 10.9347,12.0355 C10.9347,11.7798 10.8808,11.5549 10.7731,11.3608 C10.6654,11.1667 10.5168,11.0152 10.3274,10.9063 C10.138,10.7973 9.9214,10.7417 9.67756,10.7393 C9.46449,10.7393 9.25793,10.7831 9.05788,10.8707 C8.85784,10.9583 8.70218,11.0779 8.59091,11.2294 L7.22372,10.9844 L7.56818,7.14915 L12.0142,7.14915 L12.0142,8.40625 L8.83594,8.40625 L8.64773,10.228 L8.69034,10.228 C8.81818,10.0481 9.01113,9.89891 9.26918,9.78054 C9.52723,9.66217 9.81605,9.60298 10.1357,9.60298 C10.5736,9.60298 10.9643,9.70597 11.3075,9.91193 C11.6508,10.1179 11.9219,10.4002 12.1207,10.7589 C12.3196,11.1175 12.4179,11.5301 12.4155,11.9964 C12.4179,12.4865 12.3048,12.9215 12.0763,13.3015 C11.8479,13.6815 11.5295,13.9798 11.1211,14.1964 C10.7127,14.413 10.2386,14.5213 9.69886,14.5213 M16.3317,14.5817 C15.7209,14.5793 15.1959,14.429 14.7567,14.1307 C14.3176,13.8324 13.9802,13.4003 13.7447,12.8345 C13.5091,12.2687 13.3925,11.5881 13.3949,10.7926 C13.3949,9.99953 13.5127,9.32363 13.7482,8.76491 C13.9838,8.2062 14.3211,7.78066 14.7603,7.48828 C15.1995,7.1959 15.7232,7.04972 16.3317,7.04972 C16.9401,7.04972 17.4639,7.1965 17.9031,7.49006 C18.3422,7.78362 18.6802,8.20916 18.9169,8.76669 C19.1536,9.32422 19.2708,9.99953 19.2685,10.7926 C19.2685,11.5904 19.1507,12.2723 18.9151,12.8381 C18.6796,13.4039 18.3428,13.8359 17.9048,14.1342 C17.4669,14.4325 16.9425,14.5817 16.3317,14.5817 M16.3317,13.3068 C16.7483,13.3068 17.081,13.0973 17.3295,12.6783 C17.5781,12.2592 17.7012,11.6307 17.6989,10.7926 C17.6989,10.241 17.6426,9.78172 17.5302,9.41477 C17.4177,9.04782 17.2591,8.77202 17.0543,8.58736 C16.8496,8.4027 16.6087,8.31037 16.3317,8.31037 C15.9174,8.31037 15.5859,8.51752 15.3374,8.93182 C15.0888,9.34612 14.9633,9.96638 14.9609,10.7926 C14.9609,11.3513 15.0172,11.8171 15.1296,12.19 C15.2421,12.5629 15.4013,12.8422 15.6072,13.0281 C15.8132,13.2139 16.0547,13.3068 16.3317,13.3068 "/>
</g>

<g fill="#ffffff" fill-opacity="1" stroke="#0070ba" stroke-opacity="1" stroke-width="1" stroke-linecap="square" stroke-linejoin="bevel" transform="matrix(1,0,0,1,0,0)"
font-family="Inter" font-size="11" font-weight="700" font-style="normal" 
>
</g>

<g fill="#0090f5" fill-opacity="1" stroke="#0070ba" stroke-opacity="1" stroke-width="1.2" stroke-linecap="square" stroke-linejoin="bevel" transform="matrix(1,0,0,1,56,6)"
font-family="Inter" font-size="11" font-weight="700" font-style="normal" 
>
<path vector-effect="none" fill-rule="evenodd" d="M0.5,3.5 C0.5,1.84315 1.84315,0.5 3.5,0.5 L81.5,0.5 C83.1569,0.5 84.5,1.84315 84.5,3.5 L84.5,20.5 C84.5,22.1569 83.1569,23.5 81.5,23.5 L3.5,23.5 C1.84315,23.5 0.5,22.1569 0.5,20.5 L0.5,3.5"/>
</g>

<g fill="#ffffff" fill-opacity="1" stroke="none" transform="matrix(1,0,0,1,56,6)"
font-family="Inter" font-size="11" font-weight="700" font-style="normal" 
>
<path vector-effect="none" fill-rule="nonzero" d="M10,9.39453 L10,8 L16.5703,8 L16.5703,9.39453 L14.1211,9.39453 L14.1211,16 L12.4492,16 L12.4492,9.39453 L10,9.39453 M17.6484,16 L17.6484,8 L19.3398,8 L19.3398,11.3008 L22.7734,11.3008 L22.7734,8 L24.4609,8 L24.4609,16 L22.7734,16 L22.7734,12.6953 L19.3398,12.6953 L19.3398,16 L17.6484,16 M25.8516,8 L27.9375,8 L30.1406,13.375 L30.2344,13.375 L32.4375,8 L34.5234,8 L34.5234,16 L32.8828,16 L32.8828,10.793 L32.8164,10.793 L30.7461,15.9609 L29.6289,15.9609 L27.5586,10.7734 L27.4922,10.7734 L27.4922,16 L25.8516,16 L25.8516,8 M37.3594,8 L39.293,14.0781 L39.3672,14.0781 L41.3047,8 L43.1797,8 L40.4219,16 L38.2422,16 L35.4805,8 L37.3594,8 M44.1328,16 L44.1328,8 L45.8242,8 L45.8242,11.3008 L49.2578,11.3008 L49.2578,8 L50.9453,8 L50.9453,16 L49.2578,16 L49.2578,12.6953 L45.8242,12.6953 L45.8242,16 L44.1328,16 M52.3359,16 L52.3359,8 L55.5391,8 C56.1276,8 56.6185,8.08724 57.0117,8.26172 C57.4049,8.4362 57.7005,8.67773 57.8984,8.98633 C58.0964,9.29492 58.1953,9.64974 58.1953,10.0508 C58.1953,10.3633 58.1328,10.6374 58.0078,10.873 C57.8828,11.1087 57.7116,11.3014 57.4941,11.4512 C57.2767,11.6009 57.0286,11.707 56.75,11.7695 L56.75,11.8477 C57.0547,11.8607 57.3405,11.9466 57.6074,12.1055 C57.8743,12.2643 58.0911,12.4863 58.2578,12.7715 C58.4245,13.0566 58.5078,13.3958 58.5078,13.7891 C58.5078,14.2135 58.403,14.5918 58.1934,14.9238 C57.9837,15.2559 57.6745,15.5182 57.2656,15.7109 C56.8568,15.9036 56.3529,16 55.7539,16 L52.3359,16 M54.0273,14.6172 L55.4063,14.6172 C55.8776,14.6172 56.2214,14.5267 56.4375,14.3457 C56.6536,14.1647 56.7617,13.9232 56.7617,13.6211 C56.7617,13.3997 56.7083,13.2044 56.6016,13.0352 C56.4948,12.8659 56.3431,12.7331 56.1465,12.6367 C55.9499,12.5404 55.7161,12.4922 55.4453,12.4922 L54.0273,12.4922 L54.0273,14.6172 M54.0273,11.3477 L55.2813,11.3477 C55.513,11.3477 55.7194,11.3066 55.9004,11.2246 C56.0814,11.1426 56.2246,11.026 56.3301,10.875 C56.4355,10.724 56.4883,10.543 56.4883,10.332 C56.4883,10.043 56.3861,9.8099 56.1816,9.63281 C55.9772,9.45573 55.6875,9.36719 55.3125,9.36719 L54.0273,9.36719 L54.0273,11.3477 M63.0352,8 L63.0352,16 L61.3438,16 L61.3438,9.60547 L61.2969,9.60547 L59.4648,10.7539 L59.4648,9.25391 L61.4453,8 L63.0352,8"/>
</g>

<g fill="#ffffff" fill-opacity="1" stroke="none" transform="matrix(0.03125,0,0,0.03125,127,14)"
font-family="Inter" font-size="11" font-weight="700" font-style="normal" 
>
<path vector-effect="none" fill-rule="nonzero" d="M111.326,191.938 C120.545,201.158 135.517,201.158 144.737,191.938 L239.144,97.5313 C245.929,90.7458 247.921,80.6413 244.233,71.7907 C240.545,62.9401 231.989,57.1871 222.401,57.1871 L33.5875,57.2608 C24.0731,57.2608 15.4437,63.0137 11.7559,71.8644 C8.06815,80.715 10.1333,90.8195 16.845,97.605 L111.252,192.012 L111.326,191.938"/>
</g>

<g fill="none" stroke="#000000" stroke-opacity="1" stroke-width="13.7195" stroke-linecap="butt" stroke-linejoin="miter" stroke-miterlimit="4" transform="matrix(0.03125,0,0,0.03125,127,14)"
font-family="Inter" font-size="11" font-weight="700" font-style="normal" 
>
<path vector-effect="none" fill-rule="nonzero" d="M111.326,191.938 C120.545,201.158 135.517,201.158 144.737,191.938 L239.144,97.5313 C245.929,90.7458 247.921,80.6413 244.233,71.7907 C240.545,62.9401 231.989,57.1871 222.401,57.1871 L33.5875,57.2608 C24.0731,57.2608 15.4437,63.0137 11.7559,71.8644 C8.06815,80.715 10.1333,90.8195 16.845,97.605 L111.252,192.012 L111.326,191.938"/>
</g>

<g fill="#ffffff" fill-opacity="1" stroke="none" transform="matrix(1,0,0,1,56,6)"
font-family="Inter" font-size="11" font-weight="700" font-style="normal" 
>
</g>

<g fill="#ffffff" fill-opacity="1" stroke="#0070ba" stroke-opacity="1" stroke-width="1" stroke-linecap="square" stroke-linejoin="bevel" transform="matrix(1,0,0,1,0,0)"
font-family="Inter" font-size="11" font-weight="700" font-style="normal" 
>
</g>

<g fill="none" stroke="#000000" stroke-opacity="1" stroke-width="1" stroke-linecap="square" stroke-linejoin="bevel" transform="matrix(1,0,0,1,0,0)"
font-family=".AppleSystemUIFont" font-size="13" font-weight="400" font-style="normal" 
>
</g>
</g>
</svg>
