<?xml version="1.0" encoding="UTF-8" standalone="no"?>
<svg width="47.2722mm" height="9.87778mm"
 viewBox="0 0 134 28"
 xmlns="http://www.w3.org/2000/svg" xmlns:xlink="http://www.w3.org/1999/xlink" version="1.2" baseProfile="tiny">
<title>Abstract block</title>
<desc>block_operator_letter_at</desc>
<defs>
</defs>
<g fill="none" stroke="black" stroke-width="1" fill-rule="evenodd" stroke-linecap="square" stroke-linejoin="bevel" >

<g fill="none" stroke="#000000" stroke-opacity="1" stroke-width="1" stroke-linecap="square" stroke-linejoin="bevel" transform="matrix(1,0,0,1,0,0)"
font-family=".AppleSystemUIFont" font-size="13" font-weight="400" font-style="normal" 
>
</g>

<g fill="none" stroke="#000000" stroke-opacity="1" stroke-width="1" stroke-linecap="square" stroke-linejoin="bevel" transform="matrix(1,0,0,1,0,0)"
font-family=".AppleSystemUIFont" font-size="13" font-weight="400" font-style="normal" 
>
</g>

<g fill="#00b94d" fill-opacity="1" stroke="#007e32" stroke-opacity="1" stroke-width="1.2" stroke-linecap="square" stroke-linejoin="bevel" transform="matrix(1,0,0,1,0,0)"
font-family=".AppleSystemUIFont" font-size="13" font-weight="400" font-style="normal" 
>
<path vector-effect="none" fill-rule="evenodd" d="M0.5,14 C0.5,6.54416 6.76801,0.5 14.5,0.5 L119.056,0.5 C126.788,0.5 133.056,6.54416 133.056,14 C133.056,21.4558 126.788,27.5 119.056,27.5 L14.5,27.5 C6.76801,27.5 0.5,21.4558 0.5,14 "/>
</g>

<g fill="#ffffff" fill-opacity="1" stroke="none" transform="matrix(1,0,0,1,0,0)"
font-family="Inter" font-size="11" font-weight="700" font-style="normal" 
>
<path vector-effect="none" fill-rule="nonzero" d="M11.1719,9.73438 L11.1719,17.7344 L9.50781,17.7344 L9.50781,9.73438 L11.1719,9.73438 M15.2266,17.8516 C14.6094,17.8516 14.0788,17.7259 13.6348,17.4746 C13.1908,17.2233 12.849,16.8665 12.6094,16.4043 C12.3698,15.9421 12.25,15.3945 12.25,14.7617 C12.25,14.1445 12.3698,13.6029 12.6094,13.1367 C12.849,12.6706 13.1868,12.3073 13.623,12.0469 C14.0592,11.7865 14.5716,11.6563 15.1602,11.6563 C15.556,11.6563 15.9251,11.7194 16.2676,11.8457 C16.61,11.972 16.9095,12.1615 17.166,12.4141 C17.4225,12.6667 17.6224,12.9837 17.7656,13.3652 C17.9089,13.7467 17.9805,14.1927 17.9805,14.7031 L17.9805,15.1602 L12.9141,15.1602 L12.9141,14.1289 L16.4141,14.1289 C16.4141,13.8893 16.362,13.6771 16.2578,13.4922 C16.1536,13.3073 16.0098,13.1621 15.8262,13.0566 C15.6426,12.9512 15.4297,12.8984 15.1875,12.8984 C14.9349,12.8984 14.7116,12.9564 14.5176,13.0723 C14.3236,13.1882 14.1719,13.3431 14.0625,13.5371 C13.9531,13.7311 13.8971,13.9466 13.8945,14.1836 L13.8945,15.1641 C13.8945,15.4609 13.9499,15.7174 14.0605,15.9336 C14.1712,16.1497 14.3281,16.3164 14.5313,16.4336 C14.7344,16.5508 14.9753,16.6094 15.2539,16.6094 C15.4388,16.6094 15.6081,16.5833 15.7617,16.5313 C15.9154,16.4792 16.0469,16.401 16.1563,16.2969 C16.2656,16.1927 16.349,16.0651 16.4063,15.9141 L17.9453,16.0156 C17.8672,16.3854 17.7077,16.7077 17.4668,16.9824 C17.2259,17.2572 16.916,17.4707 16.5371,17.623 C16.1582,17.7754 15.7214,17.8516 15.2266,17.8516 M22.2461,11.7344 L22.2461,12.9844 L18.6328,12.9844 L18.6328,11.7344 L22.2461,11.7344 M19.4531,10.2969 L21.1172,10.2969 L21.1172,15.8906 C21.1172,16.0443 21.1406,16.1634 21.1875,16.248 C21.2344,16.3327 21.3001,16.3919 21.3848,16.4258 C21.4694,16.4596 21.5677,16.4766 21.6797,16.4766 C21.7578,16.4766 21.8359,16.4694 21.9141,16.4551 C21.9922,16.4408 22.0521,16.4297 22.0938,16.4219 L22.3555,17.6602 C22.2721,17.6862 22.1549,17.7168 22.0039,17.752 C21.8529,17.7871 21.6693,17.8086 21.4531,17.8164 C21.0521,17.832 20.7012,17.7786 20.4004,17.6563 C20.0996,17.5339 19.8659,17.3438 19.6992,17.0859 C19.5326,16.8281 19.4505,16.5026 19.4531,16.1094 L19.4531,10.2969 M26.5117,11.7344 L26.5117,12.9844 L22.8984,12.9844 L22.8984,11.7344 L26.5117,11.7344 M23.7188,10.2969 L25.3828,10.2969 L25.3828,15.8906 C25.3828,16.0443 25.4063,16.1634 25.4531,16.248 C25.5,16.3327 25.5658,16.3919 25.6504,16.4258 C25.735,16.4596 25.8333,16.4766 25.9453,16.4766 C26.0234,16.4766 26.1016,16.4694 26.1797,16.4551 C26.2578,16.4408 26.3177,16.4297 26.3594,16.4219 L26.6211,17.6602 C26.5378,17.6862 26.4206,17.7168 26.2695,17.752 C26.1185,17.7871 25.9349,17.8086 25.7188,17.8164 C25.3177,17.832 24.9668,17.7786 24.666,17.6563 C24.3652,17.5339 24.1315,17.3438 23.9648,17.0859 C23.7982,16.8281 23.7161,16.5026 23.7188,16.1094 L23.7188,10.2969 M30.2578,17.8516 C29.6406,17.8516 29.11,17.7259 28.666,17.4746 C28.222,17.2233 27.8802,16.8665 27.6406,16.4043 C27.401,15.9421 27.2813,15.3945 27.2813,14.7617 C27.2813,14.1445 27.401,13.6029 27.6406,13.1367 C27.8802,12.6706 28.2181,12.3073 28.6543,12.0469 C29.0905,11.7865 29.6029,11.6563 30.1914,11.6563 C30.5872,11.6563 30.9564,11.7194 31.2988,11.8457 C31.6413,11.972 31.9408,12.1615 32.1973,12.4141 C32.4538,12.6667 32.6536,12.9837 32.7969,13.3652 C32.9401,13.7467 33.0117,14.1927 33.0117,14.7031 L33.0117,15.1602 L27.9453,15.1602 L27.9453,14.1289 L31.4453,14.1289 C31.4453,13.8893 31.3932,13.6771 31.2891,13.4922 C31.1849,13.3073 31.041,13.1621 30.8574,13.0566 C30.6738,12.9512 30.4609,12.8984 30.2188,12.8984 C29.9661,12.8984 29.7428,12.9564 29.5488,13.0723 C29.3548,13.1882 29.2031,13.3431 29.0938,13.5371 C28.9844,13.7311 28.9284,13.9466 28.9258,14.1836 L28.9258,15.1641 C28.9258,15.4609 28.9811,15.7174 29.0918,15.9336 C29.2025,16.1497 29.3594,16.3164 29.5625,16.4336 C29.7656,16.5508 30.0065,16.6094 30.2852,16.6094 C30.4701,16.6094 30.6393,16.5833 30.793,16.5313 C30.9466,16.4792 31.0781,16.401 31.1875,16.2969 C31.2969,16.1927 31.3802,16.0651 31.4375,15.9141 L32.9766,16.0156 C32.8984,16.3854 32.7389,16.7077 32.498,16.9824 C32.2572,17.2572 31.9473,17.4707 31.5684,17.623 C31.1895,17.7754 30.7526,17.8516 30.2578,17.8516 M34.0859,17.7344 L34.0859,11.7344 L35.6992,11.7344 L35.6992,12.7813 L35.7617,12.7813 C35.8711,12.4089 36.0547,12.127 36.3125,11.9355 C36.5703,11.7441 36.8672,11.6484 37.2031,11.6484 C37.2865,11.6484 37.3763,11.6536 37.4727,11.6641 C37.569,11.6745 37.6536,11.6888 37.7266,11.707 L37.7266,13.1836 C37.6484,13.1602 37.5404,13.1393 37.4023,13.1211 C37.2643,13.1029 37.138,13.0938 37.0234,13.0938 C36.7786,13.0938 36.5605,13.1465 36.3691,13.252 C36.1777,13.3574 36.0267,13.5039 35.916,13.6914 C35.8053,13.8789 35.75,14.0951 35.75,14.3398 L35.75,17.7344 L34.0859,17.7344"/>
</g>

<g fill="#ffffff" fill-opacity="1" stroke="none" transform="matrix(1,0,0,1,0,0)"
font-family="Inter" font-size="11" font-weight="700" font-style="normal" 
>
<path vector-effect="none" fill-rule="nonzero" d="M80.0625,18.1172 C79.4557,18.1172 78.9316,17.9876 78.4902,17.7285 C78.0488,17.4694 77.7083,17.1074 77.4688,16.6426 C77.2292,16.1777 77.1094,15.638 77.1094,15.0234 C77.1094,14.4036 77.2292,13.8613 77.4688,13.3965 C77.7083,12.9316 78.0488,12.5697 78.4902,12.3105 C78.9316,12.0514 79.4557,11.9219 80.0625,11.9219 C80.6693,11.9219 81.1934,12.0514 81.6348,12.3105 C82.0762,12.5697 82.4167,12.9316 82.6563,13.3965 C82.8958,13.8613 83.0156,14.4036 83.0156,15.0234 C83.0156,15.638 82.8958,16.1777 82.6563,16.6426 C82.4167,17.1074 82.0762,17.4694 81.6348,17.7285 C81.1934,17.9876 80.6693,18.1172 80.0625,18.1172 M80.0703,16.8281 C80.3464,16.8281 80.5768,16.7493 80.7617,16.5918 C80.9466,16.4342 81.0866,16.2188 81.1816,15.9453 C81.2767,15.6719 81.3242,15.3607 81.3242,15.0117 C81.3242,14.6628 81.2767,14.3516 81.1816,14.0781 C81.0866,13.8047 80.9466,13.5885 80.7617,13.4297 C80.5768,13.2708 80.3464,13.1914 80.0703,13.1914 C79.7917,13.1914 79.5579,13.2708 79.3691,13.4297 C79.1803,13.5885 79.0384,13.8047 78.9434,14.0781 C78.8483,14.3516 78.8008,14.6628 78.8008,15.0117 C78.8008,15.3607 78.8483,15.6719 78.9434,15.9453 C79.0384,16.2188 79.1803,16.4342 79.3691,16.5918 C79.5579,16.7493 79.7917,16.8281 80.0703,16.8281 M87.3281,12 L87.3281,13.25 L83.625,13.25 L83.625,12 L87.3281,12 M84.4727,18 L84.4727,11.5664 C84.4727,11.1315 84.5579,10.7708 84.7285,10.4844 C84.8991,10.1979 85.1328,9.98307 85.4297,9.83984 C85.7266,9.69661 86.0638,9.625 86.4414,9.625 C86.6966,9.625 86.9303,9.64453 87.1426,9.68359 C87.3548,9.72266 87.513,9.75781 87.6172,9.78906 L87.3203,11.0391 C87.2552,11.0182 87.1751,10.9987 87.0801,10.9805 C86.985,10.9622 86.888,10.9531 86.7891,10.9531 C86.5443,10.9531 86.3737,11.0098 86.2773,11.123 C86.181,11.2363 86.1328,11.3945 86.1328,11.5977 L86.1328,18 L84.4727,18"/>
</g>

<g fill="#ffffff" fill-opacity="1" stroke="none" transform="matrix(1,0,0,1,0,0)"
font-family="Inter" font-size="11" font-weight="700" font-style="normal" 
>
</g>

<g fill="#ffffff" fill-opacity="1" stroke="#006a2a" stroke-opacity="1" stroke-width="1.2" stroke-linecap="square" stroke-linejoin="bevel" transform="matrix(1,0,0,1,44.5,3)"
font-family="Inter" font-size="11" font-weight="700" font-style="normal" 
>
<path vector-effect="none" fill-rule="evenodd" d="M1,11 C1,5.47715 5.92487,1 12,1 L14.4,1 C20.4751,1 25.4,5.47715 25.4,11 C25.4,16.5228 20.4751,21 14.4,21 L12,21 C5.92487,21 1,16.5228 1,11 "/>
</g>

<g fill="#000000" fill-opacity="1" stroke="none" transform="matrix(1,0,0,1,44.5,3)"
font-family="Inter" font-size="10" font-weight="700" font-style="normal" 
>
<path vector-effect="none" fill-rule="nonzero" d="M14.5817,7.22727 L14.5817,14.5 L13.044,14.5 L13.044,8.68679 L13.0014,8.68679 L11.3359,9.73082 L11.3359,8.36719 L13.1364,7.22727 L14.5817,7.22727"/>
</g>

<g fill="#ffffff" fill-opacity="1" stroke="none" transform="matrix(1,0,0,1,0,0)"
font-family="Inter" font-size="11" font-weight="700" font-style="normal" 
>
</g>

<g fill="#ffffff" fill-opacity="1" stroke="#006a2a" stroke-opacity="1" stroke-width="1.2" stroke-linecap="square" stroke-linejoin="bevel" transform="matrix(1,0,0,1,93.9,3)"
font-family="Inter" font-size="11" font-weight="700" font-style="normal" 
>
<path vector-effect="none" fill-rule="evenodd" d="M1,11 C1,5.47715 5.92487,1 12,1 L24.6563,1 C30.7314,1 35.6563,5.47715 35.6563,11 C35.6563,16.5228 30.7314,21 24.6563,21 L12,21 C5.92487,21 1,16.5228 1,11 "/>
</g>

<g fill="#000000" fill-opacity="1" stroke="none" transform="matrix(1,0,0,1,93.9,3)"
font-family="Inter" font-size="10" font-weight="700" font-style="normal" 
>
<path vector-effect="none" fill-rule="nonzero" d="M7.49219,14.3281 L6.00781,8.87358 L7.53835,8.87358 L8.38352,12.5384 L8.43324,12.5384 L9.31392,8.87358 L10.8161,8.87358 L11.7109,12.517 L11.7571,12.517 L12.5881,8.87358 L14.1151,8.87358 L12.6342,14.3281 L11.0327,14.3281 L10.0952,10.8977 L10.0277,10.8977 L9.0902,14.3281 L7.49219,14.3281 M17.2401,14.4347 C16.6884,14.4347 16.212,14.3169 15.8107,14.0813 C15.4094,13.8458 15.0999,13.5167 14.8821,13.0941 C14.6643,12.6715 14.5554,12.1809 14.5554,11.6222 C14.5554,11.0587 14.6643,10.5657 14.8821,10.1431 C15.0999,9.72053 15.4094,9.39145 15.8107,9.15589 C16.212,8.92034 16.6884,8.80256 17.2401,8.80256 C17.7917,8.80256 18.2681,8.92034 18.6694,9.15589 C19.0707,9.39145 19.3802,9.72053 19.598,10.1431 C19.8158,10.5657 19.9247,11.0587 19.9247,11.6222 C19.9247,12.1809 19.8158,12.6715 19.598,13.0941 C19.3802,13.5167 19.0707,13.8458 18.6694,14.0813 C18.2681,14.3169 17.7917,14.4347 17.2401,14.4347 M17.2472,13.2628 C17.4981,13.2628 17.7076,13.1912 17.8757,13.0479 C18.0438,12.9047 18.171,12.7088 18.2575,12.4602 C18.3439,12.2116 18.3871,11.9287 18.3871,11.6115 C18.3871,11.2943 18.3439,11.0114 18.2575,10.7628 C18.171,10.5142 18.0438,10.3177 17.8757,10.1733 C17.7076,10.0289 17.4981,9.95668 17.2472,9.95668 C16.9938,9.95668 16.7814,10.0289 16.6097,10.1733 C16.4381,10.3177 16.3091,10.5142 16.2227,10.7628 C16.1362,11.0114 16.093,11.2943 16.093,11.6115 C16.093,11.9287 16.1362,12.2116 16.2227,12.4602 C16.3091,12.7088 16.4381,12.9047 16.6097,13.0479 C16.7814,13.1912 16.9938,13.2628 17.2472,13.2628 M20.9006,14.3281 L20.9006,8.87358 L22.3672,8.87358 L22.3672,9.82528 L22.424,9.82528 C22.5234,9.48674 22.6903,9.23047 22.9247,9.05646 C23.1591,8.88246 23.429,8.79545 23.7344,8.79545 C23.8101,8.79545 23.8918,8.80019 23.9794,8.80966 C24.067,8.81913 24.1439,8.83215 24.2102,8.84872 L24.2102,10.1911 C24.1392,10.1697 24.041,10.1508 23.9155,10.1342 C23.79,10.1177 23.6752,10.1094 23.571,10.1094 C23.3485,10.1094 23.1502,10.1573 22.9762,10.2532 C22.8022,10.3491 22.6649,10.4822 22.5643,10.6527 C22.4637,10.8232 22.4134,11.0196 22.4134,11.2422 L22.4134,14.3281 L20.9006,14.3281 M26.7386,14.4169 C26.3243,14.4169 25.9497,14.3098 25.6147,14.0955 C25.2797,13.8813 25.0146,13.5652 24.8192,13.1474 C24.6239,12.7295 24.5263,12.2164 24.5263,11.608 C24.5263,10.983 24.6269,10.4627 24.8281,10.0472 C25.0294,9.63175 25.2975,9.32043 25.6325,9.11328 C25.9674,8.90613 26.335,8.80256 26.7351,8.80256 C27.0405,8.80256 27.2956,8.85405 27.5004,8.95703 C27.7051,9.06001 27.8709,9.18786 27.9975,9.34055 C28.1242,9.49325 28.2206,9.64299 28.2869,9.78977 L28.3331,9.78977 L28.3331,7.0554 L29.8423,7.0554 L29.8423,14.3281 L28.3509,14.3281 L28.3509,13.4545 L28.2869,13.4545 C28.2159,13.6061 28.1159,13.7558 27.9869,13.9038 C27.8578,14.0517 27.6909,14.1742 27.4862,14.2713 C27.2814,14.3684 27.0322,14.4169 26.7386,14.4169 M27.218,13.2131 C27.4619,13.2131 27.6684,13.1462 27.8377,13.0124 C28.007,12.8787 28.1372,12.6911 28.2283,12.4496 C28.3195,12.2081 28.3651,11.9252 28.3651,11.6009 C28.3651,11.2765 28.3201,10.9948 28.2301,10.7557 C28.1402,10.5166 28.0099,10.3319 27.8395,10.2017 C27.669,10.0715 27.4619,10.0064 27.218,10.0064 C26.9695,10.0064 26.7599,10.0739 26.5895,10.2088 C26.419,10.3438 26.29,10.5308 26.2024,10.7699 C26.1148,11.009 26.071,11.286 26.071,11.6009 C26.071,11.9181 26.1154,12.198 26.2042,12.4407 C26.293,12.6834 26.422,12.8728 26.5913,13.0089 C26.7605,13.145 26.9695,13.2131 27.218,13.2131 "/>
</g>

<g fill="#000000" fill-opacity="1" stroke="none" transform="matrix(1,0,0,1,99.9,7.95313)"
font-family="Inter" font-size="10" font-weight="700" font-style="normal" 
>
</g>

<g fill="#000000" fill-opacity="1" stroke="none" transform="matrix(1,0,0,1,99.9,7.95313)"
font-family="Inter" font-size="10" font-weight="700" font-style="normal" 
>
</g>

<g fill="#000000" fill-opacity="1" stroke="none" transform="matrix(1,0,0,1,93.9,3)"
font-family="Inter" font-size="10" font-weight="700" font-style="normal" 
>
</g>

<g fill="#ffffff" fill-opacity="1" stroke="none" transform="matrix(1,0,0,1,0,0)"
font-family="Inter" font-size="11" font-weight="700" font-style="normal" 
>
</g>

<g fill="#ffffff" fill-opacity="1" stroke="none" transform="matrix(1,0,0,1,0,0)"
font-family="Inter" font-size="11" font-weight="700" font-style="normal" 
>
</g>

<g fill="#ffffff" fill-opacity="1" stroke="none" transform="matrix(1,0,0,1,0,0)"
font-family="Inter" font-size="11" font-weight="700" font-style="normal" 
>
</g>

<g fill="none" stroke="#000000" stroke-opacity="1" stroke-width="1" stroke-linecap="square" stroke-linejoin="bevel" transform="matrix(1,0,0,1,0,0)"
font-family=".AppleSystemUIFont" font-size="13" font-weight="400" font-style="normal" 
>
</g>
</g>
</svg>
