<?xml version="1.0" encoding="UTF-8" standalone="no"?>
<svg width="93.8389mm" height="11.2889mm"
 viewBox="0 0 266 32"
 xmlns="http://www.w3.org/2000/svg" xmlns:xlink="http://www.w3.org/1999/xlink" version="1.2" baseProfile="tiny">
<title>Abstract block</title>
<desc>block_hubs_all_sensors_port_technic_sensor_raw_color</desc>
<defs>
</defs>
<g fill="none" stroke="black" stroke-width="1" fill-rule="evenodd" stroke-linecap="square" stroke-linejoin="bevel" >

<g fill="none" stroke="#000000" stroke-opacity="1" stroke-width="1" stroke-linecap="square" stroke-linejoin="bevel" transform="matrix(1,0,0,1,0,0)"
font-family=".AppleSystemUIFont" font-size="13" font-weight="400" font-style="normal" 
>
</g>

<g fill="none" stroke="#000000" stroke-opacity="1" stroke-width="1" stroke-linecap="square" stroke-linejoin="bevel" transform="matrix(1,0,0,1,0,0)"
font-family=".AppleSystemUIFont" font-size="13" font-weight="400" font-style="normal" 
>
</g>

<g fill="#1dccf0" fill-opacity="1" stroke="#0da6c5" stroke-opacity="1" stroke-width="1.2" stroke-linecap="square" stroke-linejoin="bevel" transform="matrix(1,0,0,1,0,0)"
font-family=".AppleSystemUIFont" font-size="13" font-weight="400" font-style="normal" 
>
<path vector-effect="none" fill-rule="evenodd" d="M1,16 C1,7.71573 8.16344,1 17,1 L248.667,1 C257.503,1 264.667,7.71573 264.667,16 C264.667,24.2843 257.503,31 248.667,31 L17,31 C8.16344,31 1,24.2843 1,16 "/>
</g>

<g fill="#ffffff" fill-opacity="1" stroke="none" transform="matrix(1,0,0,1,0,0)"
font-family="Inter" font-size="11" font-weight="700" font-style="normal" 
>
<path vector-effect="none" fill-rule="nonzero" d="M180.883,18.9375 L180.883,12.9375 L182.496,12.9375 L182.496,13.9844 L182.559,13.9844 C182.668,13.612 182.852,13.3301 183.109,13.1387 C183.367,12.9473 183.664,12.8516 184,12.8516 C184.083,12.8516 184.173,12.8568 184.27,12.8672 C184.366,12.8776 184.451,12.8919 184.523,12.9102 L184.523,14.3867 C184.445,14.3633 184.337,14.3424 184.199,14.3242 C184.061,14.306 183.935,14.2969 183.82,14.2969 C183.576,14.2969 183.357,14.3496 183.166,14.4551 C182.975,14.5605 182.824,14.707 182.713,14.8945 C182.602,15.082 182.547,15.2982 182.547,15.543 L182.547,18.9375 L180.883,18.9375 M186.906,19.0508 C186.523,19.0508 186.182,18.9837 185.883,18.8496 C185.583,18.7155 185.347,18.5163 185.174,18.252 C185.001,17.9876 184.914,17.6576 184.914,17.2617 C184.914,16.9284 184.975,16.6484 185.098,16.4219 C185.22,16.1953 185.387,16.013 185.598,15.875 C185.809,15.737 186.049,15.6328 186.318,15.5625 C186.588,15.4922 186.871,15.4427 187.168,15.4141 C187.517,15.3776 187.798,15.3431 188.012,15.3105 C188.225,15.278 188.38,15.2292 188.477,15.1641 C188.573,15.099 188.621,15.0026 188.621,14.875 L188.621,14.8516 C188.621,14.6042 188.544,14.4128 188.389,14.2773 C188.234,14.1419 188.014,14.0742 187.73,14.0742 C187.431,14.0742 187.193,14.14 187.016,14.2715 C186.839,14.403 186.721,14.5677 186.664,14.7656 L185.125,14.6406 C185.203,14.276 185.357,13.9603 185.586,13.6934 C185.815,13.4264 186.111,13.2207 186.475,13.0762 C186.838,12.9316 187.259,12.8594 187.738,12.8594 C188.072,12.8594 188.391,12.8984 188.697,12.9766 C189.003,13.0547 189.275,13.1758 189.514,13.3398 C189.752,13.5039 189.94,13.7142 190.078,13.9707 C190.216,14.2272 190.285,14.5339 190.285,14.8906 L190.285,18.9375 L188.707,18.9375 L188.707,18.1055 L188.66,18.1055 C188.564,18.293 188.435,18.4577 188.273,18.5996 C188.112,18.7415 187.918,18.8522 187.691,18.9316 C187.465,19.0111 187.203,19.0508 186.906,19.0508 M187.383,17.9023 C187.628,17.9023 187.844,17.8535 188.031,17.7559 C188.219,17.6582 188.366,17.526 188.473,17.3594 C188.579,17.1927 188.633,17.0039 188.633,16.793 L188.633,16.1563 C188.581,16.1901 188.51,16.2207 188.42,16.248 C188.33,16.2754 188.229,16.3001 188.117,16.3223 C188.005,16.3444 187.893,16.3639 187.781,16.3809 C187.669,16.3978 187.568,16.4128 187.477,16.4258 C187.281,16.4544 187.111,16.5 186.965,16.5625 C186.819,16.625 186.706,16.709 186.625,16.8145 C186.544,16.9199 186.504,17.0508 186.504,17.207 C186.504,17.4336 186.587,17.6061 186.752,17.7246 C186.917,17.8431 187.128,17.9023 187.383,17.9023 M192.754,18.9375 L191.121,12.9375 L192.805,12.9375 L193.734,16.9688 L193.789,16.9688 L194.758,12.9375 L196.41,12.9375 L197.395,16.9453 L197.445,16.9453 L198.359,12.9375 L200.039,12.9375 L198.41,18.9375 L196.648,18.9375 L195.617,15.1641 L195.543,15.1641 L194.512,18.9375 L192.754,18.9375"/>
</g>

<g fill="#ffffff" fill-opacity="1" stroke="none" transform="matrix(0.0285,0,0,0.0285,11.2928,4.44754)"
font-family="Inter" font-size="11" font-weight="700" font-style="normal" 
>
<path vector-effect="none" fill-rule="nonzero" d="M97.5863,60.6191 C80.1143,60.6191 66.0472,74.6862 66.0472,92.1582 L66.0472,718.541 C66.0472,736.013 80.1143,750.08 97.5863,750.08 L723.969,750.08 C741.441,750.08 755.508,736.013 755.508,718.541 L755.508,92.1582 C755.508,74.6862 741.441,60.6191 723.969,60.6191 L97.5863,60.6191 M410.733,204.078 C521.886,204.053 612.016,294.136 612.049,405.289 L612.049,405.35 C612.05,516.503 521.947,606.613 410.793,606.621 C299.639,606.63 209.522,516.533 209.506,405.379 C209.49,294.226 299.58,204.102 410.733,204.078 "/>
</g>

<g fill="none" stroke="#000000" stroke-opacity="1" stroke-width="20" stroke-linecap="round" stroke-linejoin="round" transform="matrix(0.0285,0,0,0.0285,11.2928,4.44754)"
font-family="Inter" font-size="11" font-weight="700" font-style="normal" 
>
<path vector-effect="none" fill-rule="nonzero" d="M97.5863,60.6191 C80.1143,60.6191 66.0472,74.6862 66.0472,92.1582 L66.0472,718.541 C66.0472,736.013 80.1143,750.08 97.5863,750.08 L723.969,750.08 C741.441,750.08 755.508,736.013 755.508,718.541 L755.508,92.1582 C755.508,74.6862 741.441,60.6191 723.969,60.6191 L97.5863,60.6191 M410.733,204.078 C521.886,204.053 612.016,294.136 612.049,405.289 L612.049,405.35 C612.05,516.503 521.947,606.613 410.793,606.621 C299.639,606.63 209.522,516.533 209.506,405.379 C209.49,294.226 299.58,204.102 410.733,204.078 "/>
</g>

<g fill="#000000" fill-opacity="1" stroke="none" transform="matrix(0.0285,0,0,0.0285,11.2928,4.44754)"
font-family="Inter" font-size="11" font-weight="700" font-style="normal" 
>
<path vector-effect="none" fill-rule="nonzero" d="M234.666,164.596 C198.854,164.596 170.024,193.426 170.024,229.238 L170.024,581.461 C170.024,617.273 198.854,646.104 234.666,646.104 L586.889,646.104 C622.701,646.104 651.532,617.273 651.532,581.461 L651.532,229.238 C651.532,193.426 622.701,164.596 586.889,164.596 L234.666,164.596 M410.733,204.078 C521.886,204.053 612.016,294.136 612.049,405.289 L612.049,405.35 C612.05,516.503 521.947,606.613 410.793,606.621 C299.639,606.63 209.522,516.533 209.506,405.379 C209.49,294.226 299.58,204.102 410.733,204.078 "/>
</g>

<g fill="none" stroke="#000000" stroke-opacity="1" stroke-width="16.3975" stroke-linecap="round" stroke-linejoin="round" transform="matrix(0.0285,0,0,0.0285,11.2928,4.44754)"
font-family="Inter" font-size="11" font-weight="700" font-style="normal" 
>
<path vector-effect="none" fill-rule="nonzero" d="M234.666,164.596 C198.854,164.596 170.024,193.426 170.024,229.238 L170.024,581.461 C170.024,617.273 198.854,646.104 234.666,646.104 L586.889,646.104 C622.701,646.104 651.532,617.273 651.532,581.461 L651.532,229.238 C651.532,193.426 622.701,164.596 586.889,164.596 L234.666,164.596 M410.733,204.078 C521.886,204.053 612.016,294.136 612.049,405.289 L612.049,405.35 C612.05,516.503 521.947,606.613 410.793,606.621 C299.639,606.63 209.522,516.533 209.506,405.379 C209.49,294.226 299.58,204.102 410.733,204.078 "/>
</g>

<g fill="none" stroke="#000000" stroke-opacity="1" stroke-width="23.8667" stroke-linecap="round" stroke-linejoin="round" transform="matrix(0.0285,0,0,0.0285,11.2928,4.44754)"
font-family="Inter" font-size="11" font-weight="700" font-style="normal" 
>
<path vector-effect="none" fill-rule="nonzero" d="M528.568,405.35 C528.568,470.4 475.837,523.135 410.787,523.14 C345.736,523.145 292.997,470.418 292.987,405.367 C292.978,340.317 345.701,287.574 410.751,287.559 C475.802,287.545 528.549,340.264 528.568,405.314 "/>
</g>

<g fill="#ffffff" fill-opacity="1" stroke="none" transform="matrix(1,0,0,1,0,0)"
font-family="Inter" font-size="11" font-weight="700" font-style="normal" 
>
</g>

<g fill="#ffffff" fill-opacity="1" stroke="#0da6c5" stroke-opacity="1" stroke-width="1" stroke-linecap="square" stroke-linejoin="bevel" transform="matrix(1,0,0,1,0,0)"
font-family="Inter" font-size="11" font-weight="700" font-style="normal" 
>
<polyline fill="none" vector-effect="none" points="45,6 45,26 " />
</g>

<g fill="#ffffff" fill-opacity="1" stroke="#0da6c5" stroke-opacity="1" stroke-width="1" stroke-linecap="square" stroke-linejoin="bevel" transform="matrix(1,0,0,1,0,0)"
font-family="Inter" font-size="11" font-weight="700" font-style="normal" 
>
</g>

<g fill="#ffffff" fill-opacity="1" stroke="#0da6c5" stroke-opacity="1" stroke-width="1" stroke-linecap="square" stroke-linejoin="bevel" transform="matrix(1,0,0,1,0,0)"
font-family="Inter" font-size="11" font-weight="700" font-style="normal" 
>
</g>

<g fill="#1dccf0" fill-opacity="1" stroke="#0da6c5" stroke-opacity="1" stroke-width="1.2" stroke-linecap="square" stroke-linejoin="bevel" transform="matrix(1,0,0,1,206,4)"
font-family="Inter" font-size="11" font-weight="700" font-style="normal" 
>
<path vector-effect="none" fill-rule="evenodd" d="M0.5,3.5 C0.5,1.84315 1.84315,0.5 3.5,0.5 L45.5,0.5 C47.1569,0.5 48.5,1.84315 48.5,3.5 L48.5,20.5 C48.5,22.1569 47.1569,23.5 45.5,23.5 L3.5,23.5 C1.84315,23.5 0.5,22.1569 0.5,20.5 L0.5,3.5"/>
</g>

<g fill="#ffffff" fill-opacity="1" stroke="none" transform="matrix(1,0,0,1,206,4)"
font-family="Inter" font-size="11" font-weight="700" font-style="normal" 
>
<path vector-effect="none" fill-rule="nonzero" d="M10.0078,15.9063 L10.0078,9.90625 L11.6211,9.90625 L11.6211,10.9531 L11.6836,10.9531 C11.793,10.5807 11.9766,10.2988 12.2344,10.1074 C12.4922,9.91602 12.7891,9.82031 13.125,9.82031 C13.2083,9.82031 13.2982,9.82552 13.3945,9.83594 C13.4909,9.84635 13.5755,9.86068 13.6484,9.87891 L13.6484,11.3555 C13.5703,11.332 13.4622,11.3112 13.3242,11.293 C13.1862,11.2747 13.0599,11.2656 12.9453,11.2656 C12.7005,11.2656 12.4824,11.3184 12.291,11.4238 C12.0996,11.5293 11.9486,11.6758 11.8379,11.8633 C11.7272,12.0508 11.6719,12.2669 11.6719,12.5117 L11.6719,15.9063 L10.0078,15.9063 M16.9453,16.0234 C16.3281,16.0234 15.7975,15.8978 15.3535,15.6465 C14.9095,15.3952 14.5677,15.0384 14.3281,14.5762 C14.0885,14.1139 13.9688,13.5664 13.9688,12.9336 C13.9688,12.3164 14.0885,11.7747 14.3281,11.3086 C14.5677,10.8424 14.9056,10.4792 15.3418,10.2188 C15.778,9.95833 16.2904,9.82813 16.8789,9.82813 C17.2747,9.82813 17.6439,9.89128 17.9863,10.0176 C18.3288,10.1439 18.6283,10.3333 18.8848,10.5859 C19.1413,10.8385 19.3411,11.1556 19.4844,11.5371 C19.6276,11.9186 19.6992,12.3646 19.6992,12.875 L19.6992,13.332 L14.6328,13.332 L14.6328,12.3008 L18.1328,12.3008 C18.1328,12.0612 18.0807,11.849 17.9766,11.6641 C17.8724,11.4792 17.7285,11.334 17.5449,11.2285 C17.3613,11.123 17.1484,11.0703 16.9063,11.0703 C16.6536,11.0703 16.4303,11.1283 16.2363,11.2441 C16.0423,11.36 15.8906,11.515 15.7813,11.709 C15.6719,11.903 15.6159,12.1185 15.6133,12.3555 L15.6133,13.3359 C15.6133,13.6328 15.6686,13.8893 15.7793,14.1055 C15.89,14.3216 16.0469,14.4883 16.25,14.6055 C16.4531,14.7227 16.694,14.7813 16.9727,14.7813 C17.1576,14.7813 17.3268,14.7552 17.4805,14.7031 C17.6341,14.651 17.7656,14.5729 17.875,14.4688 C17.9844,14.3646 18.0677,14.237 18.125,14.0859 L19.6641,14.1875 C19.5859,14.5573 19.4264,14.8796 19.1855,15.1543 C18.9447,15.429 18.6348,15.6426 18.2559,15.7949 C17.877,15.9473 17.4401,16.0234 16.9453,16.0234 M22.9844,16.0039 C22.5286,16.0039 22.1165,15.8861 21.748,15.6504 C21.3796,15.4147 21.0879,15.0671 20.873,14.6074 C20.6582,14.1478 20.5508,13.5833 20.5508,12.9141 C20.5508,12.2266 20.6615,11.6543 20.8828,11.1973 C21.1042,10.7402 21.3991,10.3978 21.7676,10.1699 C22.1361,9.94206 22.5404,9.82813 22.9805,9.82813 C23.3164,9.82813 23.597,9.88477 23.8223,9.99805 C24.0475,10.1113 24.2298,10.252 24.3691,10.4199 C24.5085,10.5879 24.6146,10.7526 24.6875,10.9141 L24.7383,10.9141 L24.7383,7.90625 L26.3984,7.90625 L26.3984,15.9063 L24.7578,15.9063 L24.7578,14.9453 L24.6875,14.9453 C24.6094,15.112 24.4993,15.2767 24.3574,15.4395 C24.2155,15.6022 24.0319,15.737 23.8066,15.8438 C23.5814,15.9505 23.3073,16.0039 22.9844,16.0039 M23.5117,14.6797 C23.7799,14.6797 24.0072,14.6061 24.1934,14.459 C24.3796,14.3118 24.5228,14.1055 24.623,13.8398 C24.7233,13.5742 24.7734,13.263 24.7734,12.9063 C24.7734,12.5495 24.724,12.2396 24.625,11.9766 C24.526,11.7135 24.3828,11.5104 24.1953,11.3672 C24.0078,11.224 23.7799,11.1523 23.5117,11.1523 C23.2383,11.1523 23.0078,11.2266 22.8203,11.375 C22.6328,11.5234 22.4909,11.7292 22.3945,11.9922 C22.2982,12.2552 22.25,12.5599 22.25,12.9063 C22.25,13.2552 22.2988,13.5632 22.3965,13.8301 C22.4941,14.097 22.6361,14.3053 22.8223,14.4551 C23.0085,14.6048 23.2383,14.6797 23.5117,14.6797 "/>
</g>

<g fill="#ffffff" fill-opacity="1" stroke="none" transform="matrix(0.03125,0,0,0.03125,241,12)"
font-family="Inter" font-size="11" font-weight="700" font-style="normal" 
>
<path vector-effect="none" fill-rule="nonzero" d="M111.326,191.938 C120.545,201.158 135.517,201.158 144.737,191.938 L239.144,97.5313 C245.929,90.7458 247.921,80.6413 244.233,71.7907 C240.545,62.9401 231.989,57.1871 222.401,57.1871 L33.5875,57.2608 C24.0731,57.2608 15.4437,63.0137 11.7559,71.8644 C8.06815,80.715 10.1333,90.8195 16.845,97.605 L111.252,192.012 L111.326,191.938"/>
</g>

<g fill="none" stroke="#000000" stroke-opacity="1" stroke-width="13.7195" stroke-linecap="butt" stroke-linejoin="miter" stroke-miterlimit="4" transform="matrix(0.03125,0,0,0.03125,241,12)"
font-family="Inter" font-size="11" font-weight="700" font-style="normal" 
>
<path vector-effect="none" fill-rule="nonzero" d="M111.326,191.938 C120.545,201.158 135.517,201.158 144.737,191.938 L239.144,97.5313 C245.929,90.7458 247.921,80.6413 244.233,71.7907 C240.545,62.9401 231.989,57.1871 222.401,57.1871 L33.5875,57.2608 C24.0731,57.2608 15.4437,63.0137 11.7559,71.8644 C8.06815,80.715 10.1333,90.8195 16.845,97.605 L111.252,192.012 L111.326,191.938"/>
</g>

<g fill="#ffffff" fill-opacity="1" stroke="none" transform="matrix(1,0,0,1,206,4)"
font-family="Inter" font-size="11" font-weight="700" font-style="normal" 
>
</g>

<g fill="#ffffff" fill-opacity="1" stroke="#0da6c5" stroke-opacity="1" stroke-width="1" stroke-linecap="square" stroke-linejoin="bevel" transform="matrix(1,0,0,1,0,0)"
font-family="Inter" font-size="11" font-weight="700" font-style="normal" 
>
</g>

<g fill="#0da6c5" fill-opacity="1" stroke="#0da6c5" stroke-opacity="1" stroke-width="1.2" stroke-linecap="square" stroke-linejoin="bevel" transform="matrix(1,0,0,1,135,4)"
font-family="Inter" font-size="11" font-weight="700" font-style="normal" 
>
<path vector-effect="none" fill-rule="evenodd" d="M0.5,12 C0.5,5.64873 5.87258,0.5 12.5,0.5 L27.5,0.5 C34.1274,0.5 39.5,5.64873 39.5,12 C39.5,18.3513 34.1274,23.5 27.5,23.5 L12.5,23.5 C5.87258,23.5 0.5,18.3513 0.5,12 "/>
</g>

<g fill="#ffffff" fill-opacity="1" stroke="none" transform="matrix(1,0,0,1,135,4)"
font-family="Inter" font-size="11" font-weight="700" font-style="normal" 
>
<path vector-effect="none" fill-rule="nonzero" d="M11.8242,16 L10.0117,16 L12.7734,8 L14.9531,8 L17.7109,16 L15.8984,16 L13.8945,9.82813 L13.832,9.82813 L11.8242,16 M11.7109,12.8555 L15.9922,12.8555 L15.9922,14.1758 L11.7109,14.1758 L11.7109,12.8555"/>
</g>

<g fill="#ffffff" fill-opacity="1" stroke="none" transform="matrix(0.03125,0,0,0.03125,161,12)"
font-family="Inter" font-size="11" font-weight="700" font-style="normal" 
>
<path vector-effect="none" fill-rule="nonzero" d="M111.326,191.938 C120.545,201.158 135.517,201.158 144.737,191.938 L239.144,97.5313 C245.929,90.7458 247.921,80.6413 244.233,71.7907 C240.545,62.9401 231.989,57.1871 222.401,57.1871 L33.5875,57.2608 C24.0731,57.2608 15.4437,63.0137 11.7559,71.8644 C8.06815,80.715 10.1333,90.8195 16.845,97.605 L111.252,192.012 L111.326,191.938"/>
</g>

<g fill="none" stroke="#000000" stroke-opacity="1" stroke-width="13.7195" stroke-linecap="butt" stroke-linejoin="miter" stroke-miterlimit="4" transform="matrix(0.03125,0,0,0.03125,161,12)"
font-family="Inter" font-size="11" font-weight="700" font-style="normal" 
>
<path vector-effect="none" fill-rule="nonzero" d="M111.326,191.938 C120.545,201.158 135.517,201.158 144.737,191.938 L239.144,97.5313 C245.929,90.7458 247.921,80.6413 244.233,71.7907 C240.545,62.9401 231.989,57.1871 222.401,57.1871 L33.5875,57.2608 C24.0731,57.2608 15.4437,63.0137 11.7559,71.8644 C8.06815,80.715 10.1333,90.8195 16.845,97.605 L111.252,192.012 L111.326,191.938"/>
</g>

<g fill="#ffffff" fill-opacity="1" stroke="none" transform="matrix(1,0,0,1,135,4)"
font-family="Inter" font-size="11" font-weight="700" font-style="normal" 
>
</g>

<g fill="#ffffff" fill-opacity="1" stroke="#0da6c5" stroke-opacity="1" stroke-width="1" stroke-linecap="square" stroke-linejoin="bevel" transform="matrix(1,0,0,1,0,0)"
font-family="Inter" font-size="11" font-weight="700" font-style="normal" 
>
</g>

<g fill="#1dccf0" fill-opacity="1" stroke="#0da6c5" stroke-opacity="1" stroke-width="1.2" stroke-linecap="square" stroke-linejoin="bevel" transform="matrix(1,0,0,1,56,4)"
font-family="Inter" font-size="11" font-weight="700" font-style="normal" 
>
<path vector-effect="none" fill-rule="evenodd" d="M0.5,3.5 C0.5,1.84315 1.84315,0.5 3.5,0.5 L71.5,0.5 C73.1569,0.5 74.5,1.84315 74.5,3.5 L74.5,20.5 C74.5,22.1569 73.1569,23.5 71.5,23.5 L3.5,23.5 C1.84315,23.5 0.5,22.1569 0.5,20.5 L0.5,3.5"/>
</g>

<g fill="#ffffff" fill-opacity="1" stroke="none" transform="matrix(1,0,0,1,56,4)"
font-family="Inter" font-size="11" font-weight="700" font-style="normal" 
>
<path vector-effect="none" fill-rule="nonzero" d="M10,9.39453 L10,8 L16.5703,8 L16.5703,9.39453 L14.1211,9.39453 L14.1211,16 L12.4492,16 L12.4492,9.39453 L10,9.39453 M17.6484,16 L17.6484,8 L19.3398,8 L19.3398,11.3008 L22.7734,11.3008 L22.7734,8 L24.4609,8 L24.4609,16 L22.7734,16 L22.7734,12.6953 L19.3398,12.6953 L19.3398,16 L17.6484,16 M32.543,8 L32.543,16 L31.082,16 L27.6016,10.9648 L27.543,10.9648 L27.543,16 L25.8516,16 L25.8516,8 L27.3359,8 L30.7891,13.0313 L30.8594,13.0313 L30.8594,8 L32.543,8 M33.9297,16 L33.9297,8 L35.6211,8 L35.6211,11.3008 L39.0547,11.3008 L39.0547,8 L40.7422,8 L40.7422,16 L39.0547,16 L39.0547,12.6953 L35.6211,12.6953 L35.6211,16 L33.9297,16 M42.1328,16 L42.1328,8 L45.3359,8 C45.9245,8 46.4154,8.08724 46.8086,8.26172 C47.2018,8.4362 47.4974,8.67773 47.6953,8.98633 C47.8932,9.29492 47.9922,9.64974 47.9922,10.0508 C47.9922,10.3633 47.9297,10.6374 47.8047,10.873 C47.6797,11.1087 47.5085,11.3014 47.291,11.4512 C47.0736,11.6009 46.8255,11.707 46.5469,11.7695 L46.5469,11.8477 C46.8516,11.8607 47.1374,11.9466 47.4043,12.1055 C47.6712,12.2643 47.888,12.4863 48.0547,12.7715 C48.2214,13.0566 48.3047,13.3958 48.3047,13.7891 C48.3047,14.2135 48.1999,14.5918 47.9902,14.9238 C47.7806,15.2559 47.4714,15.5182 47.0625,15.7109 C46.6536,15.9036 46.1497,16 45.5508,16 L42.1328,16 M43.8242,14.6172 L45.2031,14.6172 C45.6745,14.6172 46.0182,14.5267 46.2344,14.3457 C46.4505,14.1647 46.5586,13.9232 46.5586,13.6211 C46.5586,13.3997 46.5052,13.2044 46.3984,13.0352 C46.2917,12.8659 46.14,12.7331 45.9434,12.6367 C45.7467,12.5404 45.513,12.4922 45.2422,12.4922 L43.8242,12.4922 L43.8242,14.6172 M43.8242,11.3477 L45.0781,11.3477 C45.3099,11.3477 45.5163,11.3066 45.6973,11.2246 C45.8783,11.1426 46.0215,11.026 46.127,10.875 C46.2324,10.724 46.2852,10.543 46.2852,10.332 C46.2852,10.043 46.1829,9.8099 45.9785,9.63281 C45.7741,9.45573 45.4844,9.36719 45.1094,9.36719 L43.8242,9.36719 L43.8242,11.3477 M52.832,8 L52.832,16 L51.1406,16 L51.1406,9.60547 L51.0938,9.60547 L49.2617,10.7539 L49.2617,9.25391 L51.2422,8 L52.832,8"/>
</g>

<g fill="#ffffff" fill-opacity="1" stroke="none" transform="matrix(0.03125,0,0,0.03125,117,12)"
font-family="Inter" font-size="11" font-weight="700" font-style="normal" 
>
<path vector-effect="none" fill-rule="nonzero" d="M111.326,191.938 C120.545,201.158 135.517,201.158 144.737,191.938 L239.144,97.5313 C245.929,90.7458 247.921,80.6413 244.233,71.7907 C240.545,62.9401 231.989,57.1871 222.401,57.1871 L33.5875,57.2608 C24.0731,57.2608 15.4437,63.0137 11.7559,71.8644 C8.06815,80.715 10.1333,90.8195 16.845,97.605 L111.252,192.012 L111.326,191.938"/>
</g>

<g fill="none" stroke="#000000" stroke-opacity="1" stroke-width="13.7195" stroke-linecap="butt" stroke-linejoin="miter" stroke-miterlimit="4" transform="matrix(0.03125,0,0,0.03125,117,12)"
font-family="Inter" font-size="11" font-weight="700" font-style="normal" 
>
<path vector-effect="none" fill-rule="nonzero" d="M111.326,191.938 C120.545,201.158 135.517,201.158 144.737,191.938 L239.144,97.5313 C245.929,90.7458 247.921,80.6413 244.233,71.7907 C240.545,62.9401 231.989,57.1871 222.401,57.1871 L33.5875,57.2608 C24.0731,57.2608 15.4437,63.0137 11.7559,71.8644 C8.06815,80.715 10.1333,90.8195 16.845,97.605 L111.252,192.012 L111.326,191.938"/>
</g>

<g fill="#ffffff" fill-opacity="1" stroke="none" transform="matrix(1,0,0,1,56,4)"
font-family="Inter" font-size="11" font-weight="700" font-style="normal" 
>
</g>

<g fill="#ffffff" fill-opacity="1" stroke="#0da6c5" stroke-opacity="1" stroke-width="1" stroke-linecap="square" stroke-linejoin="bevel" transform="matrix(1,0,0,1,0,0)"
font-family="Inter" font-size="11" font-weight="700" font-style="normal" 
>
</g>

<g fill="none" stroke="#000000" stroke-opacity="1" stroke-width="1" stroke-linecap="square" stroke-linejoin="bevel" transform="matrix(1,0,0,1,0,0)"
font-family=".AppleSystemUIFont" font-size="13" font-weight="400" font-style="normal" 
>
</g>
</g>
</svg>
