<?xml version="1.0" encoding="UTF-8" standalone="no"?>
<svg width="128.058mm" height="15.5222mm"
 viewBox="0 0 363 44"
 xmlns="http://www.w3.org/2000/svg" xmlns:xlink="http://www.w3.org/1999/xlink" version="1.2" baseProfile="tiny">
<title>Abstract block</title>
<desc>block_hubs_all_motors_port_set_deceleration</desc>
<defs>
</defs>
<g fill="none" stroke="black" stroke-width="1" fill-rule="evenodd" stroke-linecap="square" stroke-linejoin="bevel" >

<g fill="none" stroke="#000000" stroke-opacity="1" stroke-width="1" stroke-linecap="square" stroke-linejoin="bevel" transform="matrix(1,0,0,1,0,0)"
font-family=".AppleSystemUIFont" font-size="13" font-weight="400" font-style="normal" 
>
</g>

<g fill="none" stroke="#000000" stroke-opacity="1" stroke-width="1" stroke-linecap="square" stroke-linejoin="bevel" transform="matrix(1,0,0,1,0,0)"
font-family=".AppleSystemUIFont" font-size="13" font-weight="400" font-style="normal" 
>
</g>

<g fill="#0090f5" fill-opacity="1" stroke="#0070ba" stroke-opacity="1" stroke-width="1.2" stroke-linecap="square" stroke-linejoin="bevel" transform="matrix(1,0,0,1,0,0)"
font-family=".AppleSystemUIFont" font-size="13" font-weight="400" font-style="normal" 
>
<path vector-effect="none" fill-rule="evenodd" d="M0.5,4.5 L1.04612,2.48112 L2.48112,1.04612 L4.5,0.5 L9.625,0.5 L10.416,0.976563 L11.1719,1.6875 L11.998,2.67969 L13,4 L13.7559,4.66016 L14.5469,5.15625 L15.4082,5.51172 L16.375,5.75 L17.4824,5.89453 L18.7656,5.96875 L20.2598,5.99609 L22,6 L23.7402,5.99609 L25.2344,5.96875 L26.5176,5.89453 L27.625,5.75 L28.5918,5.51172 L29.4531,5.15625 L30.2441,4.66016 L31,4 L32.002,2.67969 L32.8281,1.6875 L33.584,0.976563 L34.375,0.5 L358,0.5 L360.019,1.04612 L361.454,2.48112 L362,4.5 L362,31.5 L361.454,33.5189 L360.019,34.9539 L358,35.5 L34.375,35.5 L33.584,35.9766 L32.8281,36.6875 L32.002,37.6797 L31,39 L30.2441,39.6602 L29.4531,40.1563 L28.5918,40.5117 L27.625,40.75 L26.5176,40.8945 L25.2344,40.9688 L23.7402,40.9961 L22,41 L20.2598,40.9961 L18.7656,40.9688 L17.4824,40.8945 L16.375,40.75 L15.4082,40.5117 L14.5469,40.1563 L13.7559,39.6602 L13,39 L11.998,37.6797 L11.1719,36.6875 L10.416,35.9766 L9.625,35.5 L4.5,35.5 L2.48112,34.9539 L1.04612,33.5189 L0.5,31.5 L0.5,4.5"/>
</g>

<g fill="#ffffff" fill-opacity="1" stroke="none" transform="matrix(1,0,0,1,0,0)"
font-family="Inter" font-size="11" font-weight="700" font-style="normal" 
>
<path vector-effect="none" fill-rule="nonzero" d="M186.5,17.6641 L184.977,17.7578 C184.951,17.6276 184.895,17.5098 184.809,17.4043 C184.723,17.2988 184.61,17.2142 184.471,17.1504 C184.331,17.0866 184.165,17.0547 183.973,17.0547 C183.715,17.0547 183.497,17.1087 183.32,17.2168 C183.143,17.3249 183.055,17.4688 183.055,17.6484 C183.055,17.7917 183.112,17.9128 183.227,18.0117 C183.341,18.1107 183.538,18.1901 183.816,18.25 L184.902,18.4688 C185.486,18.5885 185.921,18.7813 186.207,19.0469 C186.493,19.3125 186.637,19.6615 186.637,20.0938 C186.637,20.487 186.521,20.832 186.291,21.1289 C186.061,21.4258 185.745,21.6569 185.346,21.8223 C184.946,21.9876 184.486,22.0703 183.965,22.0703 C183.171,22.0703 182.538,21.9043 182.068,21.5723 C181.598,21.2402 181.323,20.7878 181.242,20.2148 L182.879,20.1289 C182.928,20.3711 183.048,20.5553 183.238,20.6816 C183.428,20.8079 183.672,20.8711 183.969,20.8711 C184.26,20.8711 184.495,20.8145 184.674,20.7012 C184.852,20.5879 184.943,20.4414 184.945,20.2617 C184.943,20.1107 184.879,19.9863 184.754,19.8887 C184.629,19.791 184.436,19.7161 184.176,19.6641 L183.137,19.457 C182.551,19.3398 182.115,19.1367 181.83,18.8477 C181.545,18.5586 181.402,18.1901 181.402,17.7422 C181.402,17.3568 181.507,17.0247 181.717,16.7461 C181.926,16.4674 182.222,16.2526 182.604,16.1016 C182.985,15.9505 183.432,15.875 183.945,15.875 C184.703,15.875 185.3,16.0352 185.736,16.3555 C186.173,16.6758 186.427,17.112 186.5,17.6641 M190.414,22.0703 C189.797,22.0703 189.266,21.9447 188.822,21.6934 C188.378,21.4421 188.036,21.0853 187.797,20.623 C187.557,20.1608 187.438,19.6133 187.438,18.9805 C187.438,18.3633 187.557,17.8216 187.797,17.3555 C188.036,16.8893 188.374,16.526 188.811,16.2656 C189.247,16.0052 189.759,15.875 190.348,15.875 C190.743,15.875 191.113,15.9382 191.455,16.0645 C191.798,16.1908 192.097,16.3802 192.354,16.6328 C192.61,16.8854 192.81,17.2025 192.953,17.584 C193.096,17.9655 193.168,18.4115 193.168,18.9219 L193.168,19.3789 L188.102,19.3789 L188.102,18.3477 L191.602,18.3477 C191.602,18.1081 191.549,17.8958 191.445,17.7109 C191.341,17.526 191.197,17.3809 191.014,17.2754 C190.83,17.1699 190.617,17.1172 190.375,17.1172 C190.122,17.1172 189.899,17.1751 189.705,17.291 C189.511,17.4069 189.359,17.5618 189.25,17.7559 C189.141,17.9499 189.085,18.1654 189.082,18.4023 L189.082,19.3828 C189.082,19.6797 189.137,19.9362 189.248,20.1523 C189.359,20.3685 189.516,20.5352 189.719,20.6523 C189.922,20.7695 190.163,20.8281 190.441,20.8281 C190.626,20.8281 190.796,20.8021 190.949,20.75 C191.103,20.6979 191.234,20.6198 191.344,20.5156 C191.453,20.4115 191.536,20.2839 191.594,20.1328 L193.133,20.2344 C193.055,20.6042 192.895,20.9264 192.654,21.2012 C192.413,21.4759 192.104,21.6895 191.725,21.8418 C191.346,21.9941 190.909,22.0703 190.414,22.0703 M197.434,15.9531 L197.434,17.2031 L193.82,17.2031 L193.82,15.9531 L197.434,15.9531 M194.641,14.5156 L196.305,14.5156 L196.305,20.1094 C196.305,20.263 196.328,20.3822 196.375,20.4668 C196.422,20.5514 196.488,20.6107 196.572,20.6445 C196.657,20.6784 196.755,20.6953 196.867,20.6953 C196.945,20.6953 197.023,20.6882 197.102,20.6738 C197.18,20.6595 197.24,20.6484 197.281,20.6406 L197.543,21.8789 C197.46,21.9049 197.342,21.9355 197.191,21.9707 C197.04,22.0059 196.857,22.0273 196.641,22.0352 C196.24,22.0508 195.889,21.9974 195.588,21.875 C195.287,21.7526 195.053,21.5625 194.887,21.3047 C194.72,21.0469 194.638,20.7214 194.641,20.3281 L194.641,14.5156 M203.266,22.0508 C202.81,22.0508 202.398,21.9329 202.029,21.6973 C201.661,21.4616 201.369,21.1139 201.154,20.6543 C200.939,20.1947 200.832,19.6302 200.832,18.9609 C200.832,18.2734 200.943,17.7012 201.164,17.2441 C201.385,16.7871 201.68,16.4447 202.049,16.2168 C202.417,15.9889 202.822,15.875 203.262,15.875 C203.598,15.875 203.878,15.9316 204.104,16.0449 C204.329,16.1582 204.511,16.2988 204.65,16.4668 C204.79,16.6348 204.896,16.7995 204.969,16.9609 L205.02,16.9609 L205.02,13.9531 L206.68,13.9531 L206.68,21.9531 L205.039,21.9531 L205.039,20.9922 L204.969,20.9922 C204.891,21.1589 204.781,21.3236 204.639,21.4863 C204.497,21.6491 204.313,21.7839 204.088,21.8906 C203.863,21.9974 203.589,22.0508 203.266,22.0508 M203.793,20.7266 C204.061,20.7266 204.288,20.653 204.475,20.5059 C204.661,20.3587 204.804,20.1523 204.904,19.8867 C205.005,19.6211 205.055,19.3099 205.055,18.9531 C205.055,18.5964 205.005,18.2865 204.906,18.0234 C204.807,17.7604 204.664,17.5573 204.477,17.4141 C204.289,17.2708 204.061,17.1992 203.793,17.1992 C203.52,17.1992 203.289,17.2734 203.102,17.4219 C202.914,17.5703 202.772,17.776 202.676,18.0391 C202.579,18.3021 202.531,18.6068 202.531,18.9531 C202.531,19.3021 202.58,19.61 202.678,19.877 C202.775,20.1439 202.917,20.3522 203.104,20.502 C203.29,20.6517 203.52,20.7266 203.793,20.7266 M210.773,22.0703 C210.156,22.0703 209.626,21.9447 209.182,21.6934 C208.738,21.4421 208.396,21.0853 208.156,20.623 C207.917,20.1608 207.797,19.6133 207.797,18.9805 C207.797,18.3633 207.917,17.8216 208.156,17.3555 C208.396,16.8893 208.734,16.526 209.17,16.2656 C209.606,16.0052 210.118,15.875 210.707,15.875 C211.103,15.875 211.472,15.9382 211.814,16.0645 C212.157,16.1908 212.456,16.3802 212.713,16.6328 C212.969,16.8854 213.169,17.2025 213.313,17.584 C213.456,17.9655 213.527,18.4115 213.527,18.9219 L213.527,19.3789 L208.461,19.3789 L208.461,18.3477 L211.961,18.3477 C211.961,18.1081 211.909,17.8958 211.805,17.7109 C211.701,17.526 211.557,17.3809 211.373,17.2754 C211.189,17.1699 210.977,17.1172 210.734,17.1172 C210.482,17.1172 210.258,17.1751 210.064,17.291 C209.87,17.4069 209.719,17.5618 209.609,17.7559 C209.5,17.9499 209.444,18.1654 209.441,18.4023 L209.441,19.3828 C209.441,19.6797 209.497,19.9362 209.607,20.1523 C209.718,20.3685 209.875,20.5352 210.078,20.6523 C210.281,20.7695 210.522,20.8281 210.801,20.8281 C210.986,20.8281 211.155,20.8021 211.309,20.75 C211.462,20.6979 211.594,20.6198 211.703,20.5156 C211.813,20.4115 211.896,20.2839 211.953,20.1328 L213.492,20.2344 C213.414,20.6042 213.255,20.9264 213.014,21.2012 C212.773,21.4759 212.463,21.6895 212.084,21.8418 C211.705,21.9941 211.268,22.0703 210.773,22.0703 M217.313,22.0703 C216.698,22.0703 216.17,21.9395 215.729,21.6777 C215.287,21.416 214.949,21.0521 214.713,20.5859 C214.477,20.1198 214.359,19.5833 214.359,18.9766 C214.359,18.362 214.479,17.8223 214.717,17.3574 C214.955,16.8926 215.294,16.5293 215.734,16.2676 C216.174,16.0059 216.698,15.875 217.305,15.875 C217.828,15.875 218.286,15.9701 218.68,16.1602 C219.073,16.3503 219.384,16.6172 219.613,16.9609 C219.842,17.3047 219.969,17.7083 219.992,18.1719 L218.422,18.1719 C218.378,17.8724 218.261,17.6309 218.072,17.4473 C217.883,17.2637 217.637,17.1719 217.332,17.1719 C217.074,17.1719 216.85,17.2415 216.658,17.3809 C216.467,17.5202 216.318,17.7227 216.211,17.9883 C216.104,18.2539 216.051,18.5755 216.051,18.9531 C216.051,19.3359 216.104,19.6615 216.209,19.9297 C216.314,20.1979 216.464,20.4023 216.656,20.543 C216.849,20.6836 217.074,20.7539 217.332,20.7539 C217.522,20.7539 217.693,20.7148 217.846,20.6367 C217.998,20.5586 218.124,20.4447 218.225,20.2949 C218.325,20.1452 218.391,19.9648 218.422,19.7539 L219.992,19.7539 C219.966,20.2122 219.842,20.6152 219.619,20.9629 C219.396,21.3105 219.09,21.582 218.699,21.7773 C218.309,21.9727 217.846,22.0703 217.313,22.0703 M223.789,22.0703 C223.172,22.0703 222.641,21.9447 222.197,21.6934 C221.753,21.4421 221.411,21.0853 221.172,20.623 C220.932,20.1608 220.813,19.6133 220.813,18.9805 C220.813,18.3633 220.932,17.8216 221.172,17.3555 C221.411,16.8893 221.749,16.526 222.186,16.2656 C222.622,16.0052 223.134,15.875 223.723,15.875 C224.118,15.875 224.488,15.9382 224.83,16.0645 C225.173,16.1908 225.472,16.3802 225.729,16.6328 C225.985,16.8854 226.185,17.2025 226.328,17.584 C226.471,17.9655 226.543,18.4115 226.543,18.9219 L226.543,19.3789 L221.477,19.3789 L221.477,18.3477 L224.977,18.3477 C224.977,18.1081 224.924,17.8958 224.82,17.7109 C224.716,17.526 224.572,17.3809 224.389,17.2754 C224.205,17.1699 223.992,17.1172 223.75,17.1172 C223.497,17.1172 223.274,17.1751 223.08,17.291 C222.886,17.4069 222.734,17.5618 222.625,17.7559 C222.516,17.9499 222.46,18.1654 222.457,18.4023 L222.457,19.3828 C222.457,19.6797 222.512,19.9362 222.623,20.1523 C222.734,20.3685 222.891,20.5352 223.094,20.6523 C223.297,20.7695 223.538,20.8281 223.816,20.8281 C224.001,20.8281 224.171,20.8021 224.324,20.75 C224.478,20.6979 224.609,20.6198 224.719,20.5156 C224.828,20.4115 224.911,20.2839 224.969,20.1328 L226.508,20.2344 C226.43,20.6042 226.27,20.9264 226.029,21.2012 C225.788,21.4759 225.479,21.6895 225.1,21.8418 C224.721,21.9941 224.284,22.0703 223.789,22.0703 M229.281,13.9531 L229.281,21.9531 L227.617,21.9531 L227.617,13.9531 L229.281,13.9531 M233.336,22.0703 C232.719,22.0703 232.188,21.9447 231.744,21.6934 C231.3,21.4421 230.958,21.0853 230.719,20.623 C230.479,20.1608 230.359,19.6133 230.359,18.9805 C230.359,18.3633 230.479,17.8216 230.719,17.3555 C230.958,16.8893 231.296,16.526 231.732,16.2656 C232.169,16.0052 232.681,15.875 233.27,15.875 C233.665,15.875 234.035,15.9382 234.377,16.0645 C234.719,16.1908 235.019,16.3802 235.275,16.6328 C235.532,16.8854 235.732,17.2025 235.875,17.584 C236.018,17.9655 236.09,18.4115 236.09,18.9219 L236.09,19.3789 L231.023,19.3789 L231.023,18.3477 L234.523,18.3477 C234.523,18.1081 234.471,17.8958 234.367,17.7109 C234.263,17.526 234.119,17.3809 233.936,17.2754 C233.752,17.1699 233.539,17.1172 233.297,17.1172 C233.044,17.1172 232.821,17.1751 232.627,17.291 C232.433,17.4069 232.281,17.5618 232.172,17.7559 C232.063,17.9499 232.007,18.1654 232.004,18.4023 L232.004,19.3828 C232.004,19.6797 232.059,19.9362 232.17,20.1523 C232.281,20.3685 232.438,20.5352 232.641,20.6523 C232.844,20.7695 233.085,20.8281 233.363,20.8281 C233.548,20.8281 233.717,20.8021 233.871,20.75 C234.025,20.6979 234.156,20.6198 234.266,20.5156 C234.375,20.4115 234.458,20.2839 234.516,20.1328 L236.055,20.2344 C235.977,20.6042 235.817,20.9264 235.576,21.2012 C235.335,21.4759 235.025,21.6895 234.646,21.8418 C234.268,21.9941 233.831,22.0703 233.336,22.0703 M237.164,21.9531 L237.164,15.9531 L238.777,15.9531 L238.777,17 L238.84,17 C238.949,16.6276 239.133,16.3457 239.391,16.1543 C239.648,15.9629 239.945,15.8672 240.281,15.8672 C240.365,15.8672 240.454,15.8724 240.551,15.8828 C240.647,15.8932 240.732,15.9076 240.805,15.9258 L240.805,17.4023 C240.727,17.3789 240.618,17.3581 240.48,17.3398 C240.342,17.3216 240.216,17.3125 240.102,17.3125 C239.857,17.3125 239.639,17.3652 239.447,17.4707 C239.256,17.5762 239.105,17.7227 238.994,17.9102 C238.883,18.0977 238.828,18.3138 238.828,18.5586 L238.828,21.9531 L237.164,21.9531 M243.188,22.0664 C242.805,22.0664 242.464,21.9993 242.164,21.8652 C241.865,21.7311 241.628,21.5319 241.455,21.2676 C241.282,21.0033 241.195,20.6732 241.195,20.2773 C241.195,19.944 241.257,19.6641 241.379,19.4375 C241.501,19.2109 241.668,19.0286 241.879,18.8906 C242.09,18.7526 242.33,18.6484 242.6,18.5781 C242.869,18.5078 243.152,18.4583 243.449,18.4297 C243.798,18.3932 244.079,18.3587 244.293,18.3262 C244.507,18.2936 244.661,18.2448 244.758,18.1797 C244.854,18.1146 244.902,18.0182 244.902,17.8906 L244.902,17.8672 C244.902,17.6198 244.825,17.4284 244.67,17.293 C244.515,17.1576 244.296,17.0898 244.012,17.0898 C243.712,17.0898 243.474,17.1556 243.297,17.2871 C243.12,17.4186 243.003,17.5833 242.945,17.7813 L241.406,17.6563 C241.484,17.2917 241.638,16.9759 241.867,16.709 C242.096,16.4421 242.393,16.2363 242.756,16.0918 C243.119,15.9473 243.54,15.875 244.02,15.875 C244.353,15.875 244.673,15.9141 244.979,15.9922 C245.285,16.0703 245.557,16.1914 245.795,16.3555 C246.033,16.5195 246.221,16.7298 246.359,16.9863 C246.497,17.2428 246.566,17.5495 246.566,17.9063 L246.566,21.9531 L244.988,21.9531 L244.988,21.1211 L244.941,21.1211 C244.845,21.3086 244.716,21.4733 244.555,21.6152 C244.393,21.7572 244.199,21.8678 243.973,21.9473 C243.746,22.0267 243.484,22.0664 243.188,22.0664 M243.664,20.918 C243.909,20.918 244.125,20.8691 244.313,20.7715 C244.5,20.6738 244.647,20.5417 244.754,20.375 C244.861,20.2083 244.914,20.0195 244.914,19.8086 L244.914,19.1719 C244.862,19.2057 244.791,19.2363 244.701,19.2637 C244.611,19.291 244.51,19.3158 244.398,19.3379 C244.286,19.36 244.174,19.3796 244.063,19.3965 C243.951,19.4134 243.849,19.4284 243.758,19.4414 C243.563,19.4701 243.392,19.5156 243.246,19.5781 C243.1,19.6406 242.987,19.7246 242.906,19.8301 C242.826,19.9355 242.785,20.0664 242.785,20.2227 C242.785,20.4492 242.868,20.6217 243.033,20.7402 C243.199,20.8587 243.409,20.918 243.664,20.918 M251.043,15.9531 L251.043,17.2031 L247.43,17.2031 L247.43,15.9531 L251.043,15.9531 M248.25,14.5156 L249.914,14.5156 L249.914,20.1094 C249.914,20.263 249.938,20.3822 249.984,20.4668 C250.031,20.5514 250.097,20.6107 250.182,20.6445 C250.266,20.6784 250.365,20.6953 250.477,20.6953 C250.555,20.6953 250.633,20.6882 250.711,20.6738 C250.789,20.6595 250.849,20.6484 250.891,20.6406 L251.152,21.8789 C251.069,21.9049 250.952,21.9355 250.801,21.9707 C250.65,22.0059 250.466,22.0273 250.25,22.0352 C249.849,22.0508 249.498,21.9974 249.197,21.875 C248.896,21.7526 248.663,21.5625 248.496,21.3047 C248.329,21.0469 248.247,20.7214 248.25,20.3281 L248.25,14.5156 M252.117,21.9531 L252.117,15.9531 L253.781,15.9531 L253.781,21.9531 L252.117,21.9531 M252.953,15.1797 C252.706,15.1797 252.494,15.097 252.318,14.9316 C252.143,14.7663 252.055,14.5677 252.055,14.3359 C252.055,14.1068 252.143,13.9095 252.318,13.7441 C252.494,13.5788 252.706,13.4961 252.953,13.4961 C253.201,13.4961 253.412,13.5788 253.588,13.7441 C253.764,13.9095 253.852,14.1068 253.852,14.3359 C253.852,14.5677 253.764,14.7663 253.588,14.9316 C253.412,15.097 253.201,15.1797 252.953,15.1797 M257.813,22.0703 C257.206,22.0703 256.682,21.9408 256.24,21.6816 C255.799,21.4225 255.458,21.0605 255.219,20.5957 C254.979,20.1309 254.859,19.5911 254.859,18.9766 C254.859,18.3568 254.979,17.8145 255.219,17.3496 C255.458,16.8848 255.799,16.5228 256.24,16.2637 C256.682,16.0046 257.206,15.875 257.813,15.875 C258.419,15.875 258.943,16.0046 259.385,16.2637 C259.826,16.5228 260.167,16.8848 260.406,17.3496 C260.646,17.8145 260.766,18.3568 260.766,18.9766 C260.766,19.5911 260.646,20.1309 260.406,20.5957 C260.167,21.0605 259.826,21.4225 259.385,21.6816 C258.943,21.9408 258.419,22.0703 257.813,22.0703 M257.82,20.7813 C258.096,20.7813 258.327,20.7025 258.512,20.5449 C258.697,20.3874 258.837,20.1719 258.932,19.8984 C259.027,19.625 259.074,19.3138 259.074,18.9648 C259.074,18.6159 259.027,18.3047 258.932,18.0313 C258.837,17.7578 258.697,17.5417 258.512,17.3828 C258.327,17.224 258.096,17.1445 257.82,17.1445 C257.542,17.1445 257.308,17.224 257.119,17.3828 C256.93,17.5417 256.788,17.7578 256.693,18.0313 C256.598,18.3047 256.551,18.6159 256.551,18.9648 C256.551,19.3138 256.598,19.625 256.693,19.8984 C256.788,20.1719 256.93,20.3874 257.119,20.5449 C257.308,20.7025 257.542,20.7813 257.82,20.7813 M263.516,18.4844 L263.516,21.9531 L261.852,21.9531 L261.852,15.9531 L263.438,15.9531 L263.438,17.0117 L263.508,17.0117 C263.641,16.6628 263.863,16.3861 264.176,16.1816 C264.488,15.9772 264.867,15.875 265.313,15.875 C265.729,15.875 266.092,15.9661 266.402,16.1484 C266.712,16.3307 266.953,16.5905 267.125,16.9277 C267.297,17.265 267.383,17.6667 267.383,18.1328 L267.383,21.9531 L265.719,21.9531 L265.719,18.4297 C265.721,18.0625 265.628,17.7754 265.438,17.5684 C265.247,17.3613 264.986,17.2578 264.652,17.2578 C264.428,17.2578 264.231,17.306 264.061,17.4023 C263.89,17.4987 263.757,17.6387 263.662,17.8223 C263.567,18.0059 263.518,18.2266 263.516,18.4844 M274.418,15.9531 L274.418,17.2031 L270.805,17.2031 L270.805,15.9531 L274.418,15.9531 M271.625,14.5156 L273.289,14.5156 L273.289,20.1094 C273.289,20.263 273.313,20.3822 273.359,20.4668 C273.406,20.5514 273.472,20.6107 273.557,20.6445 C273.641,20.6784 273.74,20.6953 273.852,20.6953 C273.93,20.6953 274.008,20.6882 274.086,20.6738 C274.164,20.6595 274.224,20.6484 274.266,20.6406 L274.527,21.8789 C274.444,21.9049 274.327,21.9355 274.176,21.9707 C274.025,22.0059 273.841,22.0273 273.625,22.0352 C273.224,22.0508 272.873,21.9974 272.572,21.875 C272.271,21.7526 272.038,21.5625 271.871,21.3047 C271.704,21.0469 271.622,20.7214 271.625,20.3281 L271.625,14.5156 M278.141,22.0703 C277.534,22.0703 277.01,21.9408 276.568,21.6816 C276.127,21.4225 275.786,21.0605 275.547,20.5957 C275.307,20.1309 275.188,19.5911 275.188,18.9766 C275.188,18.3568 275.307,17.8145 275.547,17.3496 C275.786,16.8848 276.127,16.5228 276.568,16.2637 C277.01,16.0046 277.534,15.875 278.141,15.875 C278.747,15.875 279.271,16.0046 279.713,16.2637 C280.154,16.5228 280.495,16.8848 280.734,17.3496 C280.974,17.8145 281.094,18.3568 281.094,18.9766 C281.094,19.5911 280.974,20.1309 280.734,20.5957 C280.495,21.0605 280.154,21.4225 279.713,21.6816 C279.271,21.9408 278.747,22.0703 278.141,22.0703 M278.148,20.7813 C278.424,20.7813 278.655,20.7025 278.84,20.5449 C279.025,20.3874 279.165,20.1719 279.26,19.8984 C279.355,19.625 279.402,19.3138 279.402,18.9648 C279.402,18.6159 279.355,18.3047 279.26,18.0313 C279.165,17.7578 279.025,17.5417 278.84,17.3828 C278.655,17.224 278.424,17.1445 278.148,17.1445 C277.87,17.1445 277.636,17.224 277.447,17.3828 C277.258,17.5417 277.117,17.7578 277.021,18.0313 C276.926,18.3047 276.879,18.6159 276.879,18.9648 C276.879,19.3138 276.926,19.625 277.021,19.8984 C277.117,20.1719 277.258,20.3874 277.447,20.5449 C277.636,20.7025 277.87,20.7813 278.148,20.7813 "/>
</g>

<g fill="#ffffff" fill-opacity="1" stroke="none" transform="matrix(0.0285,0,0,0.0285,11.2928,9.44754)"
font-family="Inter" font-size="11" font-weight="700" font-style="normal" 
>
<path vector-effect="none" fill-rule="nonzero" d="M410.778,59.991 C376.729,59.991 346.629,75.6235 326.182,99.684 C216.768,129.689 131.433,215.271 101.927,324.891 C79.5232,345.494 65.3275,374.762 65.54,407.6 C65.7463,439.573 79.3407,468.172 100.975,488.421 C130.228,601.34 218.744,689.335 331.859,718.096 C331.956,718.125 331.989,718.313 332.085,718.338 C352.242,738.376 380.064,750.708 410.778,750.708 C441.492,750.708 469.314,738.376 489.47,718.338 C489.549,718.262 489.618,718.17 489.696,718.096 C604.323,688.948 693.738,598.994 721.758,483.921 C742.939,463.42 756.216,434.907 756.015,403.1 C755.801,370.079 741.086,340.899 718.209,320.633 C687.622,213.077 603.338,129.291 495.373,99.684 C474.926,75.6235 444.827,59.991 410.778,59.991 M410.778,91.8938 C455.052,91.8938 490.89,127.731 490.89,172.006 C490.89,216.28 455.052,252.102 410.778,252.102 C366.503,252.102 330.666,216.28 330.666,172.006 C330.666,127.731 366.503,91.8938 410.778,91.8938 M177.071,325.601 C221.346,325.601 257.183,361.438 257.183,405.713 C257.183,449.987 221.346,485.808 177.071,485.808 C132.796,485.808 96.7332,449.987 96.7332,405.713 C96.7332,361.438 132.796,325.601 177.071,325.601 M644.485,325.601 C688.763,325.601 724.822,361.438 724.822,405.713 C724.822,449.987 688.763,485.808 644.485,485.808 C600.21,485.808 564.373,449.987 564.373,405.713 C564.373,361.438 600.21,325.601 644.485,325.601 M396.601,335.762 L424.955,335.762 C431.754,335.762 437.245,342.538 437.245,350.891 L437.245,381.6 L467.971,381.6 C476.323,381.6 483.083,387.091 483.083,393.89 L483.083,422.245 C483.083,429.044 476.323,434.535 467.971,434.535 L437.245,434.535 L437.245,465.26 C437.245,473.612 431.754,480.373 424.955,480.373 L396.601,480.373 C389.801,480.373 384.31,473.613 384.31,465.26 L384.31,434.535 L353.585,434.535 C345.233,434.535 338.472,429.044 338.472,422.245 L338.472,393.89 C338.472,387.091 345.232,381.6 353.585,381.6 L384.31,381.6 L384.31,350.891 C384.31,342.539 389.801,335.762 396.601,335.762 M410.778,559.307 C455.052,559.307 490.89,595.371 490.89,639.645 C490.89,683.918 455.052,719.757 410.778,719.757 C366.503,719.757 330.666,683.918 330.666,639.645 C330.666,595.371 366.503,559.307 410.778,559.307 "/>
</g>

<g fill="none" stroke="#000000" stroke-opacity="1" stroke-width="22.7975" stroke-linecap="round" stroke-linejoin="round" transform="matrix(0.0285,0,0,0.0285,11.2928,9.44754)"
font-family="Inter" font-size="11" font-weight="700" font-style="normal" 
>
<path vector-effect="none" fill-rule="nonzero" d="M410.778,59.991 C376.729,59.991 346.629,75.6235 326.182,99.684 C216.768,129.689 131.433,215.271 101.927,324.891 C79.5232,345.494 65.3275,374.762 65.54,407.6 C65.7463,439.573 79.3407,468.172 100.975,488.421 C130.228,601.34 218.744,689.335 331.859,718.096 C331.956,718.125 331.989,718.313 332.085,718.338 C352.242,738.376 380.064,750.708 410.778,750.708 C441.492,750.708 469.314,738.376 489.47,718.338 C489.549,718.262 489.618,718.17 489.696,718.096 C604.323,688.948 693.738,598.994 721.758,483.921 C742.939,463.42 756.216,434.907 756.015,403.1 C755.801,370.079 741.086,340.899 718.209,320.633 C687.622,213.077 603.338,129.291 495.373,99.684 C474.926,75.6235 444.827,59.991 410.778,59.991 M410.778,91.8938 C455.052,91.8938 490.89,127.731 490.89,172.006 C490.89,216.28 455.052,252.102 410.778,252.102 C366.503,252.102 330.666,216.28 330.666,172.006 C330.666,127.731 366.503,91.8938 410.778,91.8938 M177.071,325.601 C221.346,325.601 257.183,361.438 257.183,405.713 C257.183,449.987 221.346,485.808 177.071,485.808 C132.796,485.808 96.7332,449.987 96.7332,405.713 C96.7332,361.438 132.796,325.601 177.071,325.601 M644.485,325.601 C688.763,325.601 724.822,361.438 724.822,405.713 C724.822,449.987 688.763,485.808 644.485,485.808 C600.21,485.808 564.373,449.987 564.373,405.713 C564.373,361.438 600.21,325.601 644.485,325.601 M396.601,335.762 L424.955,335.762 C431.754,335.762 437.245,342.538 437.245,350.891 L437.245,381.6 L467.971,381.6 C476.323,381.6 483.083,387.091 483.083,393.89 L483.083,422.245 C483.083,429.044 476.323,434.535 467.971,434.535 L437.245,434.535 L437.245,465.26 C437.245,473.612 431.754,480.373 424.955,480.373 L396.601,480.373 C389.801,480.373 384.31,473.613 384.31,465.26 L384.31,434.535 L353.585,434.535 C345.233,434.535 338.472,429.044 338.472,422.245 L338.472,393.89 C338.472,387.091 345.232,381.6 353.585,381.6 L384.31,381.6 L384.31,350.891 C384.31,342.539 389.801,335.762 396.601,335.762 M410.778,559.307 C455.052,559.307 490.89,595.371 490.89,639.645 C490.89,683.918 455.052,719.757 410.778,719.757 C366.503,719.757 330.666,683.918 330.666,639.645 C330.666,595.371 366.503,559.307 410.778,559.307 "/>
</g>

<g fill="#000000" fill-opacity="1" stroke="none" transform="matrix(0.0285,0,0,0.0285,11.2928,9.44754)"
font-family="Inter" font-size="11" font-weight="700" font-style="normal" 
>
<path vector-effect="none" fill-rule="evenodd" d="M394.961,355.661 C394.961,347.613 401.485,341.088 409.533,341.088 C417.582,341.088 424.106,347.613 424.106,355.661 L424.106,457.48 C424.106,465.528 417.582,472.053 409.533,472.053 C401.485,472.053 394.961,465.528 394.961,457.48 L394.961,355.661"/>
</g>

<g fill="none" stroke="#000000" stroke-opacity="1" stroke-width="20" stroke-linecap="round" stroke-linejoin="round" transform="matrix(0.0285,0,0,0.0285,11.2928,9.44754)"
font-family="Inter" font-size="11" font-weight="700" font-style="normal" 
>
<path vector-effect="none" fill-rule="evenodd" d="M394.961,355.661 C394.961,347.613 401.485,341.088 409.533,341.088 C417.582,341.088 424.106,347.613 424.106,355.661 L424.106,457.48 C424.106,465.528 417.582,472.053 409.533,472.053 C401.485,472.053 394.961,465.528 394.961,457.48 L394.961,355.661"/>
</g>

<g fill="#000000" fill-opacity="1" stroke="none" transform="matrix(0,0.0285,-0.0285,0,11.2928,9.44754)"
font-family="Inter" font-size="11" font-weight="700" font-style="normal" 
>
<path vector-effect="none" fill-rule="evenodd" d="M394.152,-461.016 C394.152,-469.064 400.676,-475.588 408.724,-475.588 C416.773,-475.588 423.297,-469.064 423.297,-461.016 L423.297,-359.196 C423.297,-351.148 416.773,-344.624 408.724,-344.624 C400.676,-344.624 394.152,-351.148 394.152,-359.196 L394.152,-461.016"/>
</g>

<g fill="none" stroke="#000000" stroke-opacity="1" stroke-width="20" stroke-linecap="round" stroke-linejoin="round" transform="matrix(0,0.0285,-0.0285,0,11.2928,9.44754)"
font-family="Inter" font-size="11" font-weight="700" font-style="normal" 
>
<path vector-effect="none" fill-rule="evenodd" d="M394.152,-461.016 C394.152,-469.064 400.676,-475.588 408.724,-475.588 C416.773,-475.588 423.297,-469.064 423.297,-461.016 L423.297,-359.196 C423.297,-351.148 416.773,-344.624 408.724,-344.624 C400.676,-344.624 394.152,-351.148 394.152,-359.196 L394.152,-461.016"/>
</g>

<g fill="#ffffff" fill-opacity="1" stroke="none" transform="matrix(1,0,0,1,0,0)"
font-family="Inter" font-size="11" font-weight="700" font-style="normal" 
>
</g>

<g fill="#ffffff" fill-opacity="1" stroke="#0070ba" stroke-opacity="1" stroke-width="1" stroke-linecap="square" stroke-linejoin="bevel" transform="matrix(1,0,0,1,0,0)"
font-family="Inter" font-size="11" font-weight="700" font-style="normal" 
>
<polyline fill="none" vector-effect="none" points="45,11 45,31 " />
</g>

<g fill="#ffffff" fill-opacity="1" stroke="#0070ba" stroke-opacity="1" stroke-width="1" stroke-linecap="square" stroke-linejoin="bevel" transform="matrix(1,0,0,1,0,0)"
font-family="Inter" font-size="11" font-weight="700" font-style="normal" 
>
</g>

<g fill="#ffffff" fill-opacity="1" stroke="#0070ba" stroke-opacity="1" stroke-width="1" stroke-linecap="square" stroke-linejoin="bevel" transform="matrix(1,0,0,1,0,0)"
font-family="Inter" font-size="11" font-weight="700" font-style="normal" 
>
</g>

<g fill="#0090f5" fill-opacity="1" stroke="#0070ba" stroke-opacity="1" stroke-width="1.2" stroke-linecap="square" stroke-linejoin="bevel" transform="matrix(1,0,0,1,56,6)"
font-family="Inter" font-size="11" font-weight="700" font-style="normal" 
>
<path vector-effect="none" fill-rule="evenodd" d="M0.5,3.5 C0.5,1.84315 1.84315,0.5 3.5,0.5 L71.5,0.5 C73.1569,0.5 74.5,1.84315 74.5,3.5 L74.5,20.5 C74.5,22.1569 73.1569,23.5 71.5,23.5 L3.5,23.5 C1.84315,23.5 0.5,22.1569 0.5,20.5 L0.5,3.5"/>
</g>

<g fill="#ffffff" fill-opacity="1" stroke="none" transform="matrix(1,0,0,1,56,6)"
font-family="Inter" font-size="11" font-weight="700" font-style="normal" 
>
<path vector-effect="none" fill-rule="nonzero" d="M10,9.39453 L10,8 L16.5703,8 L16.5703,9.39453 L14.1211,9.39453 L14.1211,16 L12.4492,16 L12.4492,9.39453 L10,9.39453 M17.6484,16 L17.6484,8 L19.3398,8 L19.3398,11.3008 L22.7734,11.3008 L22.7734,8 L24.4609,8 L24.4609,16 L22.7734,16 L22.7734,12.6953 L19.3398,12.6953 L19.3398,16 L17.6484,16 M32.543,8 L32.543,16 L31.082,16 L27.6016,10.9648 L27.543,10.9648 L27.543,16 L25.8516,16 L25.8516,8 L27.3359,8 L30.7891,13.0313 L30.8594,13.0313 L30.8594,8 L32.543,8 M33.9297,16 L33.9297,8 L35.6211,8 L35.6211,11.3008 L39.0547,11.3008 L39.0547,8 L40.7422,8 L40.7422,16 L39.0547,16 L39.0547,12.6953 L35.6211,12.6953 L35.6211,16 L33.9297,16 M42.1328,16 L42.1328,8 L45.3359,8 C45.9245,8 46.4154,8.08724 46.8086,8.26172 C47.2018,8.4362 47.4974,8.67773 47.6953,8.98633 C47.8932,9.29492 47.9922,9.64974 47.9922,10.0508 C47.9922,10.3633 47.9297,10.6374 47.8047,10.873 C47.6797,11.1087 47.5085,11.3014 47.291,11.4512 C47.0736,11.6009 46.8255,11.707 46.5469,11.7695 L46.5469,11.8477 C46.8516,11.8607 47.1374,11.9466 47.4043,12.1055 C47.6712,12.2643 47.888,12.4863 48.0547,12.7715 C48.2214,13.0566 48.3047,13.3958 48.3047,13.7891 C48.3047,14.2135 48.1999,14.5918 47.9902,14.9238 C47.7806,15.2559 47.4714,15.5182 47.0625,15.7109 C46.6536,15.9036 46.1497,16 45.5508,16 L42.1328,16 M43.8242,14.6172 L45.2031,14.6172 C45.6745,14.6172 46.0182,14.5267 46.2344,14.3457 C46.4505,14.1647 46.5586,13.9232 46.5586,13.6211 C46.5586,13.3997 46.5052,13.2044 46.3984,13.0352 C46.2917,12.8659 46.14,12.7331 45.9434,12.6367 C45.7467,12.5404 45.513,12.4922 45.2422,12.4922 L43.8242,12.4922 L43.8242,14.6172 M43.8242,11.3477 L45.0781,11.3477 C45.3099,11.3477 45.5163,11.3066 45.6973,11.2246 C45.8783,11.1426 46.0215,11.026 46.127,10.875 C46.2324,10.724 46.2852,10.543 46.2852,10.332 C46.2852,10.043 46.1829,9.8099 45.9785,9.63281 C45.7741,9.45573 45.4844,9.36719 45.1094,9.36719 L43.8242,9.36719 L43.8242,11.3477 M52.832,8 L52.832,16 L51.1406,16 L51.1406,9.60547 L51.0938,9.60547 L49.2617,10.7539 L49.2617,9.25391 L51.2422,8 L52.832,8"/>
</g>

<g fill="#ffffff" fill-opacity="1" stroke="none" transform="matrix(0.03125,0,0,0.03125,117,14)"
font-family="Inter" font-size="11" font-weight="700" font-style="normal" 
>
<path vector-effect="none" fill-rule="nonzero" d="M111.326,191.938 C120.545,201.158 135.517,201.158 144.737,191.938 L239.144,97.5313 C245.929,90.7458 247.921,80.6413 244.233,71.7907 C240.545,62.9401 231.989,57.1871 222.401,57.1871 L33.5875,57.2608 C24.0731,57.2608 15.4437,63.0137 11.7559,71.8644 C8.06815,80.715 10.1333,90.8195 16.845,97.605 L111.252,192.012 L111.326,191.938"/>
</g>

<g fill="none" stroke="#000000" stroke-opacity="1" stroke-width="13.7195" stroke-linecap="butt" stroke-linejoin="miter" stroke-miterlimit="4" transform="matrix(0.03125,0,0,0.03125,117,14)"
font-family="Inter" font-size="11" font-weight="700" font-style="normal" 
>
<path vector-effect="none" fill-rule="nonzero" d="M111.326,191.938 C120.545,201.158 135.517,201.158 144.737,191.938 L239.144,97.5313 C245.929,90.7458 247.921,80.6413 244.233,71.7907 C240.545,62.9401 231.989,57.1871 222.401,57.1871 L33.5875,57.2608 C24.0731,57.2608 15.4437,63.0137 11.7559,71.8644 C8.06815,80.715 10.1333,90.8195 16.845,97.605 L111.252,192.012 L111.326,191.938"/>
</g>

<g fill="#ffffff" fill-opacity="1" stroke="none" transform="matrix(1,0,0,1,56,6)"
font-family="Inter" font-size="11" font-weight="700" font-style="normal" 
>
</g>

<g fill="#ffffff" fill-opacity="1" stroke="#0070ba" stroke-opacity="1" stroke-width="1" stroke-linecap="square" stroke-linejoin="bevel" transform="matrix(1,0,0,1,0,0)"
font-family="Inter" font-size="11" font-weight="700" font-style="normal" 
>
</g>

<g fill="#0070ba" fill-opacity="1" stroke="#0070ba" stroke-opacity="1" stroke-width="1.2" stroke-linecap="square" stroke-linejoin="bevel" transform="matrix(1,0,0,1,135,6)"
font-family="Inter" font-size="11" font-weight="700" font-style="normal" 
>
<path vector-effect="none" fill-rule="evenodd" d="M0.5,12 C0.5,5.64873 5.87258,0.5 12.5,0.5 L27.5,0.5 C34.1274,0.5 39.5,5.64873 39.5,12 C39.5,18.3513 34.1274,23.5 27.5,23.5 L12.5,23.5 C5.87258,23.5 0.5,18.3513 0.5,12 "/>
</g>

<g fill="#ffffff" fill-opacity="1" stroke="none" transform="matrix(1,0,0,1,135,6)"
font-family="Inter" font-size="11" font-weight="700" font-style="normal" 
>
<path vector-effect="none" fill-rule="nonzero" d="M11.8242,16 L10.0117,16 L12.7734,8 L14.9531,8 L17.7109,16 L15.8984,16 L13.8945,9.82813 L13.832,9.82813 L11.8242,16 M11.7109,12.8555 L15.9922,12.8555 L15.9922,14.1758 L11.7109,14.1758 L11.7109,12.8555"/>
</g>

<g fill="#ffffff" fill-opacity="1" stroke="none" transform="matrix(0.03125,0,0,0.03125,161,14)"
font-family="Inter" font-size="11" font-weight="700" font-style="normal" 
>
<path vector-effect="none" fill-rule="nonzero" d="M111.326,191.938 C120.545,201.158 135.517,201.158 144.737,191.938 L239.144,97.5313 C245.929,90.7458 247.921,80.6413 244.233,71.7907 C240.545,62.9401 231.989,57.1871 222.401,57.1871 L33.5875,57.2608 C24.0731,57.2608 15.4437,63.0137 11.7559,71.8644 C8.06815,80.715 10.1333,90.8195 16.845,97.605 L111.252,192.012 L111.326,191.938"/>
</g>

<g fill="none" stroke="#000000" stroke-opacity="1" stroke-width="13.7195" stroke-linecap="butt" stroke-linejoin="miter" stroke-miterlimit="4" transform="matrix(0.03125,0,0,0.03125,161,14)"
font-family="Inter" font-size="11" font-weight="700" font-style="normal" 
>
<path vector-effect="none" fill-rule="nonzero" d="M111.326,191.938 C120.545,201.158 135.517,201.158 144.737,191.938 L239.144,97.5313 C245.929,90.7458 247.921,80.6413 244.233,71.7907 C240.545,62.9401 231.989,57.1871 222.401,57.1871 L33.5875,57.2608 C24.0731,57.2608 15.4437,63.0137 11.7559,71.8644 C8.06815,80.715 10.1333,90.8195 16.845,97.605 L111.252,192.012 L111.326,191.938"/>
</g>

<g fill="#ffffff" fill-opacity="1" stroke="none" transform="matrix(1,0,0,1,135,6)"
font-family="Inter" font-size="11" font-weight="700" font-style="normal" 
>
</g>

<g fill="#ffffff" fill-opacity="1" stroke="#0070ba" stroke-opacity="1" stroke-width="1" stroke-linecap="square" stroke-linejoin="bevel" transform="matrix(1,0,0,1,0,0)"
font-family="Inter" font-size="11" font-weight="700" font-style="normal" 
>
</g>

<g fill="#ffffff" fill-opacity="1" stroke="#0070ba" stroke-opacity="1" stroke-width="1" stroke-linecap="square" stroke-linejoin="bevel" transform="matrix(1,0,0,1,0,0)"
font-family="Inter" font-size="11" font-weight="700" font-style="normal" 
>
</g>

<g fill="#0090f5" fill-opacity="1" stroke="#0070ba" stroke-opacity="1" stroke-width="1.2" stroke-linecap="square" stroke-linejoin="bevel" transform="matrix(1,0,0,1,288,6)"
font-family="Inter" font-size="11" font-weight="700" font-style="normal" 
>
<path vector-effect="none" fill-rule="evenodd" d="M0.5,3.5 C0.5,1.84315 1.84315,0.5 3.5,0.5 L65,0.5 C66.6569,0.5 68,1.84315 68,3.5 L68,20.5 C68,22.1569 66.6569,23.5 65,23.5 L3.5,23.5 C1.84315,23.5 0.5,22.1569 0.5,20.5 L0.5,3.5"/>
</g>

<g fill="#ffffff" fill-opacity="1" stroke="none" transform="matrix(1,0,0,1,288,6)"
font-family="Inter" font-size="11" font-weight="700" font-style="normal" 
>
<path vector-effect="none" fill-rule="nonzero" d="M11.9375,16.0195 C11.4818,16.0195 11.0697,15.9017 10.7012,15.666 C10.3327,15.4303 10.041,15.0827 9.82617,14.623 C9.61133,14.1634 9.50391,13.599 9.50391,12.9297 C9.50391,12.2422 9.61458,11.6699 9.83594,11.2129 C10.0573,10.7559 10.3522,10.4134 10.7207,10.1855 C11.0892,9.95768 11.4935,9.84375 11.9336,9.84375 C12.2695,9.84375 12.5501,9.90039 12.7754,10.0137 C13.0007,10.127 13.1829,10.2676 13.3223,10.4355 C13.4616,10.6035 13.5677,10.7682 13.6406,10.9297 L13.6914,10.9297 L13.6914,7.92188 L15.3516,7.92188 L15.3516,15.9219 L13.7109,15.9219 L13.7109,14.9609 L13.6406,14.9609 C13.5625,15.1276 13.4525,15.2923 13.3105,15.4551 C13.1686,15.6178 12.985,15.7526 12.7598,15.8594 C12.5345,15.9661 12.2604,16.0195 11.9375,16.0195 M12.4648,14.6953 C12.7331,14.6953 12.9603,14.6217 13.1465,14.4746 C13.3327,14.3275 13.4759,14.1211 13.5762,13.8555 C13.6764,13.5898 13.7266,13.2786 13.7266,12.9219 C13.7266,12.5651 13.6771,12.2552 13.5781,11.9922 C13.4792,11.7292 13.3359,11.526 13.1484,11.3828 C12.9609,11.2396 12.7331,11.168 12.4648,11.168 C12.1914,11.168 11.9609,11.2422 11.7734,11.3906 C11.5859,11.5391 11.444,11.7448 11.3477,12.0078 C11.2513,12.2708 11.2031,12.5755 11.2031,12.9219 C11.2031,13.2708 11.252,13.5788 11.3496,13.8457 C11.4473,14.1126 11.5892,14.321 11.7754,14.4707 C11.9616,14.6204 12.1914,14.6953 12.4648,14.6953 M19.4453,16.0391 C18.8281,16.0391 18.2975,15.9134 17.8535,15.6621 C17.4095,15.4108 17.0677,15.054 16.8281,14.5918 C16.5885,14.1296 16.4688,13.582 16.4688,12.9492 C16.4688,12.332 16.5885,11.7904 16.8281,11.3242 C17.0677,10.8581 17.4056,10.4948 17.8418,10.2344 C18.278,9.97396 18.7904,9.84375 19.3789,9.84375 C19.7747,9.84375 20.1439,9.9069 20.4863,10.0332 C20.8288,10.1595 21.1283,10.349 21.3848,10.6016 C21.6413,10.8542 21.8411,11.1712 21.9844,11.5527 C22.1276,11.9342 22.1992,12.3802 22.1992,12.8906 L22.1992,13.3477 L17.1328,13.3477 L17.1328,12.3164 L20.6328,12.3164 C20.6328,12.0768 20.5807,11.8646 20.4766,11.6797 C20.3724,11.4948 20.2285,11.3496 20.0449,11.2441 C19.8613,11.1387 19.6484,11.0859 19.4063,11.0859 C19.1536,11.0859 18.9303,11.1439 18.7363,11.2598 C18.5423,11.3757 18.3906,11.5306 18.2813,11.7246 C18.1719,11.9186 18.1159,12.1341 18.1133,12.3711 L18.1133,13.3516 C18.1133,13.6484 18.1686,13.9049 18.2793,14.1211 C18.39,14.3372 18.5469,14.5039 18.75,14.6211 C18.9531,14.7383 19.194,14.7969 19.4727,14.7969 C19.6576,14.7969 19.8268,14.7708 19.9805,14.7188 C20.1341,14.6667 20.2656,14.5885 20.375,14.4844 C20.4844,14.3802 20.5677,14.2526 20.625,14.1016 L22.1641,14.2031 C22.0859,14.5729 21.9264,14.8952 21.6855,15.1699 C21.4447,15.4447 21.1348,15.6582 20.7559,15.8105 C20.377,15.9629 19.9401,16.0391 19.4453,16.0391 M26.5,9.92188 L26.5,11.1719 L22.7969,11.1719 L22.7969,9.92188 L26.5,9.92188 M23.6445,15.9219 L23.6445,9.48828 C23.6445,9.05339 23.7298,8.69271 23.9004,8.40625 C24.071,8.11979 24.3047,7.90495 24.6016,7.76172 C24.8984,7.61849 25.2357,7.54688 25.6133,7.54688 C25.8685,7.54688 26.1022,7.56641 26.3145,7.60547 C26.5267,7.64453 26.6849,7.67969 26.7891,7.71094 L26.4922,8.96094 C26.4271,8.9401 26.347,8.92057 26.252,8.90234 C26.1569,8.88411 26.0599,8.875 25.9609,8.875 C25.7161,8.875 25.5456,8.93164 25.4492,9.04492 C25.3529,9.1582 25.3047,9.31641 25.3047,9.51953 L25.3047,15.9219 L23.6445,15.9219 M29,16.0352 C28.6172,16.0352 28.276,15.9681 27.9766,15.834 C27.6771,15.6999 27.4408,15.5007 27.2676,15.2363 C27.0944,14.972 27.0078,14.6419 27.0078,14.2461 C27.0078,13.9128 27.069,13.6328 27.1914,13.4063 C27.3138,13.1797 27.4805,12.9974 27.6914,12.8594 C27.9023,12.7214 28.1426,12.6172 28.4121,12.5469 C28.6816,12.4766 28.9648,12.4271 29.2617,12.3984 C29.6107,12.362 29.8919,12.3275 30.1055,12.2949 C30.319,12.2624 30.474,12.2135 30.5703,12.1484 C30.6667,12.0833 30.7148,11.987 30.7148,11.8594 L30.7148,11.8359 C30.7148,11.5885 30.6374,11.3971 30.4824,11.2617 C30.3275,11.1263 30.1081,11.0586 29.8242,11.0586 C29.5247,11.0586 29.2865,11.1243 29.1094,11.2559 C28.9323,11.3874 28.8151,11.5521 28.7578,11.75 L27.2188,11.625 C27.2969,11.2604 27.4505,10.9447 27.6797,10.6777 C27.9089,10.4108 28.2051,10.2051 28.5684,10.0605 C28.9316,9.91602 29.3529,9.84375 29.832,9.84375 C30.1654,9.84375 30.485,9.88281 30.791,9.96094 C31.097,10.0391 31.3691,10.1602 31.6074,10.3242 C31.8457,10.4883 32.0339,10.6986 32.1719,10.9551 C32.3099,11.2116 32.3789,11.5182 32.3789,11.875 L32.3789,15.9219 L30.8008,15.9219 L30.8008,15.0898 L30.7539,15.0898 C30.6576,15.2773 30.5286,15.4421 30.3672,15.584 C30.2057,15.7259 30.0117,15.8366 29.7852,15.916 C29.5586,15.9954 29.2969,16.0352 29,16.0352 M29.4766,14.8867 C29.7214,14.8867 29.9375,14.8379 30.125,14.7402 C30.3125,14.6426 30.4596,14.5104 30.5664,14.3438 C30.6732,14.1771 30.7266,13.9883 30.7266,13.7773 L30.7266,13.1406 C30.6745,13.1745 30.6035,13.2051 30.5137,13.2324 C30.4238,13.2598 30.3229,13.2845 30.2109,13.3066 C30.099,13.3288 29.987,13.3483 29.875,13.3652 C29.763,13.3822 29.6615,13.3971 29.5703,13.4102 C29.375,13.4388 29.2044,13.4844 29.0586,13.5469 C28.9128,13.6094 28.7995,13.6934 28.7188,13.7988 C28.638,13.9043 28.5977,14.0352 28.5977,14.1914 C28.5977,14.418 28.6803,14.5905 28.8457,14.709 C29.0111,14.8275 29.2214,14.8867 29.4766,14.8867 M37.5117,13.3672 L37.5117,9.92188 L39.1758,9.92188 L39.1758,15.9219 L37.5781,15.9219 L37.5781,14.832 L37.5156,14.832 C37.3802,15.1836 37.1556,15.4661 36.8418,15.6797 C36.528,15.8932 36.1458,16 35.6953,16 C35.2943,16 34.9414,15.9089 34.6367,15.7266 C34.332,15.5443 34.0944,15.2852 33.9238,14.9492 C33.7533,14.6133 33.6667,14.2109 33.6641,13.7422 L33.6641,9.92188 L35.3281,9.92188 L35.3281,13.4453 C35.3307,13.7995 35.4258,14.0794 35.6133,14.2852 C35.8008,14.4909 36.0521,14.5938 36.3672,14.5938 C36.5677,14.5938 36.7552,14.5475 36.9297,14.4551 C37.1042,14.3626 37.2454,14.2253 37.3535,14.043 C37.4616,13.8607 37.5143,13.6354 37.5117,13.3672 M42.1563,7.92188 L42.1563,15.9219 L40.4922,15.9219 L40.4922,7.92188 L42.1563,7.92188 M46.668,9.92188 L46.668,11.1719 L43.0547,11.1719 L43.0547,9.92188 L46.668,9.92188 M43.875,8.48438 L45.5391,8.48438 L45.5391,14.0781 C45.5391,14.2318 45.5625,14.3509 45.6094,14.4355 C45.6563,14.5202 45.722,14.5794 45.8066,14.6133 C45.8913,14.6471 45.9896,14.6641 46.1016,14.6641 C46.1797,14.6641 46.2578,14.6569 46.3359,14.6426 C46.4141,14.6283 46.474,14.6172 46.5156,14.6094 L46.7773,15.8477 C46.694,15.8737 46.5768,15.9043 46.4258,15.9395 C46.2747,15.9746 46.0911,15.9961 45.875,16.0039 C45.474,16.0195 45.123,15.9661 44.8223,15.8438 C44.5215,15.7214 44.2878,15.5313 44.1211,15.2734 C43.9544,15.0156 43.8724,14.6901 43.875,14.2969 L43.875,8.48438"/>
</g>

<g fill="#ffffff" fill-opacity="1" stroke="none" transform="matrix(0.03125,0,0,0.03125,342.5,14)"
font-family="Inter" font-size="11" font-weight="700" font-style="normal" 
>
<path vector-effect="none" fill-rule="nonzero" d="M111.326,191.938 C120.545,201.158 135.517,201.158 144.737,191.938 L239.144,97.5313 C245.929,90.7458 247.921,80.6413 244.233,71.7907 C240.545,62.9401 231.989,57.1871 222.401,57.1871 L33.5875,57.2608 C24.0731,57.2608 15.4437,63.0137 11.7559,71.8644 C8.06815,80.715 10.1333,90.8195 16.845,97.605 L111.252,192.012 L111.326,191.938"/>
</g>

<g fill="none" stroke="#000000" stroke-opacity="1" stroke-width="13.7195" stroke-linecap="butt" stroke-linejoin="miter" stroke-miterlimit="4" transform="matrix(0.03125,0,0,0.03125,342.5,14)"
font-family="Inter" font-size="11" font-weight="700" font-style="normal" 
>
<path vector-effect="none" fill-rule="nonzero" d="M111.326,191.938 C120.545,201.158 135.517,201.158 144.737,191.938 L239.144,97.5313 C245.929,90.7458 247.921,80.6413 244.233,71.7907 C240.545,62.9401 231.989,57.1871 222.401,57.1871 L33.5875,57.2608 C24.0731,57.2608 15.4437,63.0137 11.7559,71.8644 C8.06815,80.715 10.1333,90.8195 16.845,97.605 L111.252,192.012 L111.326,191.938"/>
</g>

<g fill="#ffffff" fill-opacity="1" stroke="none" transform="matrix(1,0,0,1,288,6)"
font-family="Inter" font-size="11" font-weight="700" font-style="normal" 
>
</g>

<g fill="#ffffff" fill-opacity="1" stroke="#0070ba" stroke-opacity="1" stroke-width="1" stroke-linecap="square" stroke-linejoin="bevel" transform="matrix(1,0,0,1,0,0)"
font-family="Inter" font-size="11" font-weight="700" font-style="normal" 
>
</g>

<g fill="none" stroke="#000000" stroke-opacity="1" stroke-width="1" stroke-linecap="square" stroke-linejoin="bevel" transform="matrix(1,0,0,1,0,0)"
font-family=".AppleSystemUIFont" font-size="13" font-weight="400" font-style="normal" 
>
</g>
</g>
</svg>
