<?xml version="1.0" encoding="UTF-8" standalone="no"?>
<svg width="56.4444mm" height="9.87778mm"
 viewBox="0 0 160 28"
 xmlns="http://www.w3.org/2000/svg" xmlns:xlink="http://www.w3.org/1999/xlink" version="1.2" baseProfile="tiny">
<title>Abstract block</title>
<desc>block_operator_pick_random</desc>
<defs>
</defs>
<g fill="none" stroke="black" stroke-width="1" fill-rule="evenodd" stroke-linecap="square" stroke-linejoin="bevel" >

<g fill="none" stroke="#000000" stroke-opacity="1" stroke-width="1" stroke-linecap="square" stroke-linejoin="bevel" transform="matrix(1,0,0,1,0,0)"
font-family=".AppleSystemUIFont" font-size="13" font-weight="400" font-style="normal" 
>
</g>

<g fill="none" stroke="#000000" stroke-opacity="1" stroke-width="1" stroke-linecap="square" stroke-linejoin="bevel" transform="matrix(1,0,0,1,0,0)"
font-family=".AppleSystemUIFont" font-size="13" font-weight="400" font-style="normal" 
>
</g>

<g fill="#00b94d" fill-opacity="1" stroke="#007e32" stroke-opacity="1" stroke-width="1.2" stroke-linecap="square" stroke-linejoin="bevel" transform="matrix(1,0,0,1,0,0)"
font-family=".AppleSystemUIFont" font-size="13" font-weight="400" font-style="normal" 
>
<path vector-effect="none" fill-rule="evenodd" d="M0.5,14 C0.5,6.54416 6.76801,0.5 14.5,0.5 L144.8,0.5 C152.532,0.5 158.8,6.54416 158.8,14 C158.8,21.4558 152.532,27.5 144.8,27.5 L14.5,27.5 C6.76801,27.5 0.5,21.4558 0.5,14 "/>
</g>

<g fill="#ffffff" fill-opacity="1" stroke="none" transform="matrix(1,0,0,1,0,0)"
font-family="Inter" font-size="11" font-weight="700" font-style="normal" 
>
<path vector-effect="none" fill-rule="nonzero" d="M8.47656,19.3125 L8.47656,11.0625 L10.1172,11.0625 L10.1172,12.0703 L10.1914,12.0703 C10.2643,11.9089 10.3704,11.7441 10.5098,11.5762 C10.6491,11.4082 10.8314,11.2676 11.0566,11.1543 C11.2819,11.041 11.5625,10.9844 11.8984,10.9844 C12.3359,10.9844 12.7396,11.0983 13.1094,11.3262 C13.4792,11.554 13.7747,11.8965 13.9961,12.3535 C14.2174,12.8105 14.3281,13.3828 14.3281,14.0703 C14.3281,14.7396 14.2207,15.304 14.0059,15.7637 C13.791,16.2233 13.4993,16.571 13.1309,16.8066 C12.7624,17.0423 12.3503,17.1602 11.8945,17.1602 C11.5716,17.1602 11.2975,17.1068 11.0723,17 C10.847,16.8932 10.6628,16.7585 10.5195,16.5957 C10.3763,16.4329 10.2669,16.2682 10.1914,16.1016 L10.1406,16.1016 L10.1406,19.3125 L8.47656,19.3125 M10.1055,14.0625 C10.1055,14.4193 10.1549,14.7305 10.2539,14.9961 C10.3529,15.2617 10.4961,15.4681 10.6836,15.6152 C10.8711,15.7624 11.099,15.8359 11.3672,15.8359 C11.638,15.8359 11.8672,15.7611 12.0547,15.6113 C12.2422,15.4616 12.3848,15.2533 12.4824,14.9863 C12.5801,14.7194 12.6289,14.4115 12.6289,14.0625 C12.6289,13.7161 12.5807,13.4115 12.4844,13.1484 C12.388,12.8854 12.2461,12.6797 12.0586,12.5313 C11.8711,12.3828 11.6406,12.3086 11.3672,12.3086 C11.0964,12.3086 10.8678,12.3802 10.6816,12.5234 C10.4954,12.6667 10.3529,12.8698 10.2539,13.1328 C10.1549,13.3958 10.1055,13.7057 10.1055,14.0625 M15.4297,17.0625 L15.4297,11.0625 L17.0938,11.0625 L17.0938,17.0625 L15.4297,17.0625 M16.2656,10.2891 C16.0182,10.2891 15.8066,10.2064 15.6309,10.041 C15.4551,9.87565 15.3672,9.67708 15.3672,9.44531 C15.3672,9.21615 15.4551,9.01888 15.6309,8.85352 C15.8066,8.68815 16.0182,8.60547 16.2656,8.60547 C16.513,8.60547 16.7246,8.68815 16.9004,8.85352 C17.0762,9.01888 17.1641,9.21615 17.1641,9.44531 C17.1641,9.67708 17.0762,9.87565 16.9004,10.041 C16.7246,10.2064 16.513,10.2891 16.2656,10.2891 M21.125,17.1797 C20.5104,17.1797 19.9824,17.0488 19.541,16.7871 C19.0996,16.5254 18.7611,16.1615 18.5254,15.6953 C18.2897,15.2292 18.1719,14.6927 18.1719,14.0859 C18.1719,13.4714 18.291,12.9316 18.5293,12.4668 C18.7676,12.002 19.1068,11.6387 19.5469,11.377 C19.987,11.1152 20.5104,10.9844 21.1172,10.9844 C21.6406,10.9844 22.099,11.0794 22.4922,11.2695 C22.8854,11.4596 23.1966,11.7266 23.4258,12.0703 C23.6549,12.4141 23.7813,12.8177 23.8047,13.2813 L22.2344,13.2813 C22.1901,12.9818 22.0736,12.7402 21.8848,12.5566 C21.696,12.373 21.4492,12.2813 21.1445,12.2813 C20.8867,12.2813 20.6621,12.3509 20.4707,12.4902 C20.2793,12.6296 20.1302,12.832 20.0234,13.0977 C19.9167,13.3633 19.8633,13.6849 19.8633,14.0625 C19.8633,14.4453 19.916,14.7708 20.0215,15.0391 C20.127,15.3073 20.276,15.5117 20.4688,15.6523 C20.6615,15.793 20.8867,15.8633 21.1445,15.8633 C21.3346,15.8633 21.5059,15.8242 21.6582,15.7461 C21.8105,15.668 21.9368,15.554 22.0371,15.4043 C22.1374,15.2546 22.2031,15.0742 22.2344,14.8633 L23.8047,14.8633 C23.7786,15.3216 23.6543,15.7246 23.4316,16.0723 C23.209,16.4199 22.9023,16.6914 22.5117,16.8867 C22.1211,17.082 21.6589,17.1797 21.125,17.1797 M26.375,15.3359 L26.3789,13.3398 L26.6211,13.3398 L28.543,11.0625 L30.4531,11.0625 L27.8711,14.0781 L27.4766,14.0781 L26.375,15.3359 M24.8672,17.0625 L24.8672,9.0625 L26.5313,9.0625 L26.5313,17.0625 L24.8672,17.0625 M28.6172,17.0625 L26.8516,14.4492 L27.9609,13.2734 L30.5664,17.0625 L28.6172,17.0625 M33.8047,17.0625 L33.8047,11.0625 L35.418,11.0625 L35.418,12.1094 L35.4805,12.1094 C35.5898,11.737 35.7734,11.4551 36.0313,11.2637 C36.2891,11.0723 36.5859,10.9766 36.9219,10.9766 C37.0052,10.9766 37.0951,10.9818 37.1914,10.9922 C37.2878,11.0026 37.3724,11.0169 37.4453,11.0352 L37.4453,12.5117 C37.3672,12.4883 37.2591,12.4674 37.1211,12.4492 C36.9831,12.431 36.8568,12.4219 36.7422,12.4219 C36.4974,12.4219 36.2793,12.4746 36.0879,12.5801 C35.8965,12.6855 35.7454,12.832 35.6348,13.0195 C35.5241,13.207 35.4688,13.4232 35.4688,13.668 L35.4688,17.0625 L33.8047,17.0625 M39.8281,17.1758 C39.4453,17.1758 39.1042,17.1087 38.8047,16.9746 C38.5052,16.8405 38.2689,16.6413 38.0957,16.377 C37.9225,16.1126 37.8359,15.7826 37.8359,15.3867 C37.8359,15.0534 37.8971,14.7734 38.0195,14.5469 C38.1419,14.3203 38.3086,14.138 38.5195,14 C38.7305,13.862 38.9707,13.7578 39.2402,13.6875 C39.5098,13.6172 39.793,13.5677 40.0898,13.5391 C40.4388,13.5026 40.7201,13.4681 40.9336,13.4355 C41.1471,13.403 41.3021,13.3542 41.3984,13.2891 C41.4948,13.224 41.543,13.1276 41.543,13 L41.543,12.9766 C41.543,12.7292 41.4655,12.5378 41.3105,12.4023 C41.1556,12.2669 40.9362,12.1992 40.6523,12.1992 C40.3529,12.1992 40.1146,12.265 39.9375,12.3965 C39.7604,12.528 39.6432,12.6927 39.5859,12.8906 L38.0469,12.7656 C38.125,12.401 38.2786,12.0853 38.5078,11.8184 C38.737,11.5514 39.0332,11.3457 39.3965,11.2012 C39.7598,11.0566 40.181,10.9844 40.6602,10.9844 C40.9935,10.9844 41.3132,11.0234 41.6191,11.1016 C41.9251,11.1797 42.1973,11.3008 42.4355,11.4648 C42.6738,11.6289 42.862,11.8392 43,12.0957 C43.138,12.3522 43.207,12.6589 43.207,13.0156 L43.207,17.0625 L41.6289,17.0625 L41.6289,16.2305 L41.582,16.2305 C41.4857,16.418 41.3568,16.5827 41.1953,16.7246 C41.0339,16.8665 40.8398,16.9772 40.6133,17.0566 C40.3867,17.1361 40.125,17.1758 39.8281,17.1758 M40.3047,16.0273 C40.5495,16.0273 40.7656,15.9785 40.9531,15.8809 C41.1406,15.7832 41.2878,15.651 41.3945,15.4844 C41.5013,15.3177 41.5547,15.1289 41.5547,14.918 L41.5547,14.2813 C41.5026,14.3151 41.4316,14.3457 41.3418,14.373 C41.252,14.4004 41.151,14.4251 41.0391,14.4473 C40.9271,14.4694 40.8151,14.4889 40.7031,14.5059 C40.5911,14.5228 40.4896,14.5378 40.3984,14.5508 C40.2031,14.5794 40.0326,14.625 39.8867,14.6875 C39.7409,14.75 39.6276,14.834 39.5469,14.9395 C39.4661,15.0449 39.4258,15.1758 39.4258,15.332 C39.4258,15.5586 39.5085,15.7311 39.6738,15.8496 C39.8392,15.9681 40.0495,16.0273 40.3047,16.0273 M46.1563,13.5938 L46.1563,17.0625 L44.4922,17.0625 L44.4922,11.0625 L46.0781,11.0625 L46.0781,12.1211 L46.1484,12.1211 C46.2813,11.7721 46.5039,11.4954 46.8164,11.291 C47.1289,11.0866 47.5078,10.9844 47.9531,10.9844 C48.3698,10.9844 48.7331,11.0755 49.043,11.2578 C49.3529,11.4401 49.5938,11.6999 49.7656,12.0371 C49.9375,12.3743 50.0234,12.776 50.0234,13.2422 L50.0234,17.0625 L48.3594,17.0625 L48.3594,13.5391 C48.362,13.1719 48.2682,12.8848 48.0781,12.6777 C47.888,12.4707 47.6263,12.3672 47.293,12.3672 C47.069,12.3672 46.8717,12.4154 46.7012,12.5117 C46.5306,12.6081 46.3978,12.748 46.3027,12.9316 C46.2077,13.1152 46.1589,13.3359 46.1563,13.5938 M53.5313,17.1602 C53.0755,17.1602 52.6634,17.0423 52.2949,16.8066 C51.9264,16.571 51.6348,16.2233 51.4199,15.7637 C51.2051,15.304 51.0977,14.7396 51.0977,14.0703 C51.0977,13.3828 51.2083,12.8105 51.4297,12.3535 C51.651,11.8965 51.946,11.554 52.3145,11.3262 C52.6829,11.0983 53.0872,10.9844 53.5273,10.9844 C53.8633,10.9844 54.1439,11.041 54.3691,11.1543 C54.5944,11.2676 54.7767,11.4082 54.916,11.5762 C55.0553,11.7441 55.1615,11.9089 55.2344,12.0703 L55.2852,12.0703 L55.2852,9.0625 L56.9453,9.0625 L56.9453,17.0625 L55.3047,17.0625 L55.3047,16.1016 L55.2344,16.1016 C55.1563,16.2682 55.0462,16.4329 54.9043,16.5957 C54.7624,16.7585 54.5788,16.8932 54.3535,17 C54.1283,17.1068 53.8542,17.1602 53.5313,17.1602 M54.0586,15.8359 C54.3268,15.8359 54.554,15.7624 54.7402,15.6152 C54.9264,15.4681 55.0697,15.2617 55.1699,14.9961 C55.2702,14.7305 55.3203,14.4193 55.3203,14.0625 C55.3203,13.7057 55.2708,13.3958 55.1719,13.1328 C55.0729,12.8698 54.9297,12.6667 54.7422,12.5234 C54.5547,12.3802 54.3268,12.3086 54.0586,12.3086 C53.7852,12.3086 53.5547,12.3828 53.3672,12.5313 C53.1797,12.6797 53.0378,12.8854 52.9414,13.1484 C52.8451,13.4115 52.7969,13.7161 52.7969,14.0625 C52.7969,14.4115 52.8457,14.7194 52.9434,14.9863 C53.041,15.2533 53.1829,15.4616 53.3691,15.6113 C53.5553,15.7611 53.7852,15.8359 54.0586,15.8359 M61.0156,17.1797 C60.4089,17.1797 59.8848,17.0501 59.4434,16.791 C59.002,16.5319 58.6615,16.1699 58.4219,15.7051 C58.1823,15.2402 58.0625,14.7005 58.0625,14.0859 C58.0625,13.4661 58.1823,12.9238 58.4219,12.459 C58.6615,11.9941 59.002,11.6322 59.4434,11.373 C59.8848,11.1139 60.4089,10.9844 61.0156,10.9844 C61.6224,10.9844 62.1465,11.1139 62.5879,11.373 C63.0293,11.6322 63.3698,11.9941 63.6094,12.459 C63.849,12.9238 63.9688,13.4661 63.9688,14.0859 C63.9688,14.7005 63.849,15.2402 63.6094,15.7051 C63.3698,16.1699 63.0293,16.5319 62.5879,16.791 C62.1465,17.0501 61.6224,17.1797 61.0156,17.1797 M61.0234,15.8906 C61.2995,15.8906 61.5299,15.8118 61.7148,15.6543 C61.8997,15.4967 62.0397,15.2813 62.1348,15.0078 C62.2298,14.7344 62.2773,14.4232 62.2773,14.0742 C62.2773,13.7253 62.2298,13.4141 62.1348,13.1406 C62.0397,12.8672 61.8997,12.651 61.7148,12.4922 C61.5299,12.3333 61.2995,12.2539 61.0234,12.2539 C60.7448,12.2539 60.5111,12.3333 60.3223,12.4922 C60.1335,12.651 59.9915,12.8672 59.8965,13.1406 C59.8014,13.4141 59.7539,13.7253 59.7539,14.0742 C59.7539,14.4232 59.8014,14.7344 59.8965,15.0078 C59.9915,15.2813 60.1335,15.4967 60.3223,15.6543 C60.5111,15.8118 60.7448,15.8906 61.0234,15.8906 M65.0547,17.0625 L65.0547,11.0625 L66.6406,11.0625 L66.6406,12.1211 L66.7109,12.1211 C66.8359,11.7695 67.0443,11.4922 67.3359,11.2891 C67.6276,11.0859 67.9766,10.9844 68.3828,10.9844 C68.7943,10.9844 69.1445,11.0866 69.4336,11.291 C69.7227,11.4954 69.9154,11.7721 70.0117,12.1211 L70.0742,12.1211 C70.1966,11.7773 70.4186,11.502 70.7402,11.2949 C71.0618,11.0879 71.4427,10.9844 71.8828,10.9844 C72.4427,10.9844 72.8978,11.1621 73.248,11.5176 C73.5983,11.873 73.7734,12.3763 73.7734,13.0273 L73.7734,17.0625 L72.1133,17.0625 L72.1133,13.3555 C72.1133,13.0221 72.0247,12.7721 71.8477,12.6055 C71.6706,12.4388 71.4492,12.3555 71.1836,12.3555 C70.8815,12.3555 70.6458,12.4512 70.4766,12.6426 C70.3073,12.834 70.2227,13.0859 70.2227,13.3984 L70.2227,17.0625 L68.6094,17.0625 L68.6094,13.3203 C68.6094,13.026 68.5254,12.7917 68.3574,12.6172 C68.1895,12.4427 67.9688,12.3555 67.6953,12.3555 C67.5104,12.3555 67.3444,12.4017 67.1973,12.4941 C67.0501,12.5866 66.9336,12.7155 66.8477,12.8809 C66.7617,13.0462 66.7188,13.2396 66.7188,13.4609 L66.7188,17.0625 L65.0547,17.0625"/>
</g>

<g fill="#ffffff" fill-opacity="1" stroke="none" transform="matrix(1,0,0,1,0,0)"
font-family="Inter" font-size="11" font-weight="700" font-style="normal" 
>
<path vector-effect="none" fill-rule="nonzero" d="M116.684,11.4531 L116.684,12.7031 L113.07,12.7031 L113.07,11.4531 L116.684,11.4531 M113.891,10.0156 L115.555,10.0156 L115.555,15.6094 C115.555,15.763 115.578,15.8822 115.625,15.9668 C115.672,16.0514 115.738,16.1107 115.822,16.1445 C115.907,16.1784 116.005,16.1953 116.117,16.1953 C116.195,16.1953 116.273,16.1882 116.352,16.1738 C116.43,16.1595 116.49,16.1484 116.531,16.1406 L116.793,17.3789 C116.71,17.4049 116.592,17.4355 116.441,17.4707 C116.29,17.5059 116.107,17.5273 115.891,17.5352 C115.49,17.5508 115.139,17.4974 114.838,17.375 C114.537,17.2526 114.303,17.0625 114.137,16.8047 C113.97,16.5469 113.888,16.2214 113.891,15.8281 L113.891,10.0156 M120.406,17.5703 C119.799,17.5703 119.275,17.4408 118.834,17.1816 C118.393,16.9225 118.052,16.5605 117.813,16.0957 C117.573,15.6309 117.453,15.0911 117.453,14.4766 C117.453,13.8568 117.573,13.3145 117.813,12.8496 C118.052,12.3848 118.393,12.0228 118.834,11.7637 C119.275,11.5046 119.799,11.375 120.406,11.375 C121.013,11.375 121.537,11.5046 121.979,11.7637 C122.42,12.0228 122.76,12.3848 123,12.8496 C123.24,13.3145 123.359,13.8568 123.359,14.4766 C123.359,15.0911 123.24,15.6309 123,16.0957 C122.76,16.5605 122.42,16.9225 121.979,17.1816 C121.537,17.4408 121.013,17.5703 120.406,17.5703 M120.414,16.2813 C120.69,16.2813 120.921,16.2025 121.105,16.0449 C121.29,15.8874 121.43,15.6719 121.525,15.3984 C121.62,15.125 121.668,14.8138 121.668,14.4648 C121.668,14.1159 121.62,13.8047 121.525,13.5313 C121.43,13.2578 121.29,13.0417 121.105,12.8828 C120.921,12.724 120.69,12.6445 120.414,12.6445 C120.135,12.6445 119.902,12.724 119.713,12.8828 C119.524,13.0417 119.382,13.2578 119.287,13.5313 C119.192,13.8047 119.145,14.1159 119.145,14.4648 C119.145,14.8138 119.192,15.125 119.287,15.3984 C119.382,15.6719 119.524,15.8874 119.713,16.0449 C119.902,16.2025 120.135,16.2813 120.414,16.2813 "/>
</g>

<g fill="#ffffff" fill-opacity="1" stroke="none" transform="matrix(1,0,0,1,0,0)"
font-family="Inter" font-size="11" font-weight="700" font-style="normal" 
>
</g>

<g fill="#ffffff" fill-opacity="1" stroke="none" transform="matrix(1,0,0,1,0,0)"
font-family="Inter" font-size="11" font-weight="700" font-style="normal" 
>
</g>

<g fill="#ffffff" fill-opacity="1" stroke="#006a2a" stroke-opacity="1" stroke-width="1.2" stroke-linecap="square" stroke-linejoin="bevel" transform="matrix(1,0,0,1,80.5,3)"
font-family="Inter" font-size="11" font-weight="700" font-style="normal" 
>
<path vector-effect="none" fill-rule="evenodd" d="M1,11 C1,5.47715 5.92487,1 12,1 L14.4,1 C20.4751,1 25.4,5.47715 25.4,11 C25.4,16.5228 20.4751,21 14.4,21 L12,21 C5.92487,21 1,16.5228 1,11 "/>
</g>

<g fill="#000000" fill-opacity="1" stroke="none" transform="matrix(1,0,0,1,80.5,3)"
font-family="Inter" font-size="10" font-weight="700" font-style="normal" 
>
<path vector-effect="none" fill-rule="nonzero" d="M12.9411,14.5817 C12.3303,14.5793 11.8053,14.429 11.3661,14.1307 C10.927,13.8324 10.5896,13.4003 10.354,12.8345 C10.1185,12.2687 10.0019,11.5881 10.0043,10.7926 C10.0043,9.99953 10.122,9.32363 10.3576,8.76491 C10.5932,8.2062 10.9305,7.78066 11.3697,7.48828 C11.8088,7.1959 12.3326,7.04972 12.9411,7.04972 C13.5495,7.04972 14.0733,7.1965 14.5124,7.49006 C14.9516,7.78362 15.2895,8.20916 15.5263,8.76669 C15.763,9.32422 15.8802,9.99953 15.8778,10.7926 C15.8778,11.5904 15.7601,12.2723 15.5245,12.8381 C15.2889,13.4039 14.9522,13.8359 14.5142,14.1342 C14.0762,14.4325 13.5518,14.5817 12.9411,14.5817 M12.9411,13.3068 C13.3577,13.3068 13.6903,13.0973 13.9389,12.6783 C14.1875,12.2592 14.3106,11.6307 14.3082,10.7926 C14.3082,10.241 14.252,9.78172 14.1396,9.41477 C14.0271,9.04782 13.8685,8.77202 13.6637,8.58736 C13.4589,8.4027 13.218,8.31037 12.9411,8.31037 C12.5268,8.31037 12.1953,8.51752 11.9467,8.93182 C11.6982,9.34612 11.5727,9.96638 11.5703,10.7926 C11.5703,11.3513 11.6265,11.8171 11.739,12.19 C11.8514,12.5629 12.0107,12.8422 12.2166,13.0281 C12.4226,13.2139 12.6641,13.3068 12.9411,13.3068 "/>
</g>

<g fill="#ffffff" fill-opacity="1" stroke="none" transform="matrix(1,0,0,1,0,0)"
font-family="Inter" font-size="11" font-weight="700" font-style="normal" 
>
</g>

<g fill="#ffffff" fill-opacity="1" stroke="#006a2a" stroke-opacity="1" stroke-width="1.2" stroke-linecap="square" stroke-linejoin="bevel" transform="matrix(1,0,0,1,129.9,3)"
font-family="Inter" font-size="11" font-weight="700" font-style="normal" 
>
<path vector-effect="none" fill-rule="evenodd" d="M1,11 C1,5.47715 5.92487,1 12,1 L14.4,1 C20.4751,1 25.4,5.47715 25.4,11 C25.4,16.5228 20.4751,21 14.4,21 L12,21 C5.92487,21 1,16.5228 1,11 "/>
</g>

<g fill="#000000" fill-opacity="1" stroke="none" transform="matrix(1,0,0,1,129.9,3)"
font-family="Inter" font-size="10" font-weight="700" font-style="normal" 
>
<path vector-effect="none" fill-rule="nonzero" d="M10.7536,7.14915 L10.7536,14.4219 L9.21591,14.4219 L9.21591,8.60866 L9.1733,8.60866 L7.50781,9.6527 L7.50781,8.28906 L9.30824,7.14915 L10.7536,7.14915 M15.3317,14.5817 C14.7209,14.5793 14.1959,14.429 13.7567,14.1307 C13.3176,13.8324 12.9802,13.4003 12.7447,12.8345 C12.5091,12.2687 12.3925,11.5881 12.3949,10.7926 C12.3949,9.99953 12.5127,9.32363 12.7482,8.76491 C12.9838,8.2062 13.3211,7.78066 13.7603,7.48828 C14.1995,7.1959 14.7232,7.04972 15.3317,7.04972 C15.9401,7.04972 16.4639,7.1965 16.9031,7.49006 C17.3422,7.78362 17.6802,8.20916 17.9169,8.76669 C18.1536,9.32422 18.2708,9.99953 18.2685,10.7926 C18.2685,11.5904 18.1507,12.2723 17.9151,12.8381 C17.6796,13.4039 17.3428,13.8359 16.9048,14.1342 C16.4669,14.4325 15.9425,14.5817 15.3317,14.5817 M15.3317,13.3068 C15.7483,13.3068 16.081,13.0973 16.3295,12.6783 C16.5781,12.2592 16.7012,11.6307 16.6989,10.7926 C16.6989,10.241 16.6426,9.78172 16.5302,9.41477 C16.4177,9.04782 16.2591,8.77202 16.0543,8.58736 C15.8496,8.4027 15.6087,8.31037 15.3317,8.31037 C14.9174,8.31037 14.5859,8.51752 14.3374,8.93182 C14.0888,9.34612 13.9633,9.96638 13.9609,10.7926 C13.9609,11.3513 14.0172,11.8171 14.1296,12.19 C14.2421,12.5629 14.4013,12.8422 14.6072,13.0281 C14.8132,13.2139 15.0547,13.3068 15.3317,13.3068 "/>
</g>

<g fill="#ffffff" fill-opacity="1" stroke="none" transform="matrix(1,0,0,1,0,0)"
font-family="Inter" font-size="11" font-weight="700" font-style="normal" 
>
</g>

<g fill="#ffffff" fill-opacity="1" stroke="none" transform="matrix(1,0,0,1,0,0)"
font-family="Inter" font-size="11" font-weight="700" font-style="normal" 
>
</g>

<g fill="none" stroke="#000000" stroke-opacity="1" stroke-width="1" stroke-linecap="square" stroke-linejoin="bevel" transform="matrix(1,0,0,1,0,0)"
font-family=".AppleSystemUIFont" font-size="13" font-weight="400" font-style="normal" 
>
</g>
</g>
</svg>
