<?xml version="1.0" encoding="UTF-8" standalone="no"?>
<svg width="106.892mm" height="11.2889mm"
 viewBox="0 0 303 32"
 xmlns="http://www.w3.org/2000/svg" xmlns:xlink="http://www.w3.org/1999/xlink" version="1.2" baseProfile="tiny">
<title>Abstract block</title>
<desc>block_hubs_all_sensors_is_orientation_up</desc>
<defs>
</defs>
<g fill="none" stroke="black" stroke-width="1" fill-rule="evenodd" stroke-linecap="square" stroke-linejoin="bevel" >

<g fill="none" stroke="#000000" stroke-opacity="1" stroke-width="1" stroke-linecap="square" stroke-linejoin="bevel" transform="matrix(1,0,0,1,0,0)"
font-family=".AppleSystemUIFont" font-size="13" font-weight="400" font-style="normal" 
>
</g>

<g fill="none" stroke="#000000" stroke-opacity="1" stroke-width="1" stroke-linecap="square" stroke-linejoin="bevel" transform="matrix(1,0,0,1,0,0)"
font-family=".AppleSystemUIFont" font-size="13" font-weight="400" font-style="normal" 
>
</g>

<g fill="#1dccf0" fill-opacity="1" stroke="#0da6c5" stroke-opacity="1" stroke-width="1.2" stroke-linecap="square" stroke-linejoin="bevel" transform="matrix(1,0,0,1,0,0)"
font-family=".AppleSystemUIFont" font-size="13" font-weight="400" font-style="normal" 
>
<path vector-effect="none" fill-rule="evenodd" d="M0,16 L16,0 L286.5,0 L302.5,16 L286.5,32 L16,32 L0,16"/>
</g>

<g fill="#ffffff" fill-opacity="1" stroke="none" transform="matrix(1,0,0,1,0,0)"
font-family="Inter" font-size="11" font-weight="700" font-style="normal" 
>
<path vector-effect="none" fill-rule="nonzero" d="M145.969,20.0703 C145.362,20.0703 144.838,19.9408 144.396,19.6816 C143.955,19.4225 143.615,19.0605 143.375,18.5957 C143.135,18.1309 143.016,17.5911 143.016,16.9766 C143.016,16.3568 143.135,15.8145 143.375,15.3496 C143.615,14.8848 143.955,14.5228 144.396,14.2637 C144.838,14.0046 145.362,13.875 145.969,13.875 C146.576,13.875 147.1,14.0046 147.541,14.2637 C147.982,14.5228 148.323,14.8848 148.563,15.3496 C148.802,15.8145 148.922,16.3568 148.922,16.9766 C148.922,17.5911 148.802,18.1309 148.563,18.5957 C148.323,19.0605 147.982,19.4225 147.541,19.6816 C147.1,19.9408 146.576,20.0703 145.969,20.0703 M145.977,18.7813 C146.253,18.7813 146.483,18.7025 146.668,18.5449 C146.853,18.3874 146.993,18.1719 147.088,17.8984 C147.183,17.625 147.23,17.3138 147.23,16.9648 C147.23,16.6159 147.183,16.3047 147.088,16.0313 C146.993,15.7578 146.853,15.5417 146.668,15.3828 C146.483,15.224 146.253,15.1445 145.977,15.1445 C145.698,15.1445 145.464,15.224 145.275,15.3828 C145.087,15.5417 144.945,15.7578 144.85,16.0313 C144.755,16.3047 144.707,16.6159 144.707,16.9648 C144.707,17.3138 144.755,17.625 144.85,17.8984 C144.945,18.1719 145.087,18.3874 145.275,18.5449 C145.464,18.7025 145.698,18.7813 145.977,18.7813 M150.008,19.9531 L150.008,13.9531 L151.621,13.9531 L151.621,15 L151.684,15 C151.793,14.6276 151.977,14.3457 152.234,14.1543 C152.492,13.9629 152.789,13.8672 153.125,13.8672 C153.208,13.8672 153.298,13.8724 153.395,13.8828 C153.491,13.8932 153.576,13.9076 153.648,13.9258 L153.648,15.4023 C153.57,15.3789 153.462,15.3581 153.324,15.3398 C153.186,15.3216 153.06,15.3125 152.945,15.3125 C152.701,15.3125 152.482,15.3652 152.291,15.4707 C152.1,15.5762 151.949,15.7227 151.838,15.9102 C151.727,16.0977 151.672,16.3138 151.672,16.5586 L151.672,19.9531 L150.008,19.9531 M154.492,19.9531 L154.492,13.9531 L156.156,13.9531 L156.156,19.9531 L154.492,19.9531 M155.328,13.1797 C155.081,13.1797 154.869,13.097 154.693,12.9316 C154.518,12.7663 154.43,12.5677 154.43,12.3359 C154.43,12.1068 154.518,11.9095 154.693,11.7441 C154.869,11.5788 155.081,11.4961 155.328,11.4961 C155.576,11.4961 155.787,11.5788 155.963,11.7441 C156.139,11.9095 156.227,12.1068 156.227,12.3359 C156.227,12.5677 156.139,12.7663 155.963,12.9316 C155.787,13.097 155.576,13.1797 155.328,13.1797 M160.211,20.0703 C159.594,20.0703 159.063,19.9447 158.619,19.6934 C158.175,19.4421 157.833,19.0853 157.594,18.623 C157.354,18.1608 157.234,17.6133 157.234,16.9805 C157.234,16.3633 157.354,15.8216 157.594,15.3555 C157.833,14.8893 158.171,14.526 158.607,14.2656 C159.044,14.0052 159.556,13.875 160.145,13.875 C160.54,13.875 160.91,13.9382 161.252,14.0645 C161.594,14.1908 161.894,14.3802 162.15,14.6328 C162.407,14.8854 162.607,15.2025 162.75,15.584 C162.893,15.9655 162.965,16.4115 162.965,16.9219 L162.965,17.3789 L157.898,17.3789 L157.898,16.3477 L161.398,16.3477 C161.398,16.1081 161.346,15.8958 161.242,15.7109 C161.138,15.526 160.994,15.3809 160.811,15.2754 C160.627,15.1699 160.414,15.1172 160.172,15.1172 C159.919,15.1172 159.696,15.1751 159.502,15.291 C159.308,15.4069 159.156,15.5618 159.047,15.7559 C158.938,15.9499 158.882,16.1654 158.879,16.4023 L158.879,17.3828 C158.879,17.6797 158.934,17.9362 159.045,18.1523 C159.156,18.3685 159.313,18.5352 159.516,18.6523 C159.719,18.7695 159.96,18.8281 160.238,18.8281 C160.423,18.8281 160.592,18.8021 160.746,18.75 C160.9,18.6979 161.031,18.6198 161.141,18.5156 C161.25,18.4115 161.333,18.2839 161.391,18.1328 L162.93,18.2344 C162.852,18.6042 162.692,18.9264 162.451,19.2012 C162.21,19.4759 161.9,19.6895 161.521,19.8418 C161.143,19.9941 160.706,20.0703 160.211,20.0703 M165.703,16.4844 L165.703,19.9531 L164.039,19.9531 L164.039,13.9531 L165.625,13.9531 L165.625,15.0117 L165.695,15.0117 C165.828,14.6628 166.051,14.3861 166.363,14.1816 C166.676,13.9772 167.055,13.875 167.5,13.875 C167.917,13.875 168.28,13.9661 168.59,14.1484 C168.9,14.3307 169.141,14.5905 169.313,14.9277 C169.484,15.265 169.57,15.6667 169.57,16.1328 L169.57,19.9531 L167.906,19.9531 L167.906,16.4297 C167.909,16.0625 167.815,15.7754 167.625,15.5684 C167.435,15.3613 167.173,15.2578 166.84,15.2578 C166.616,15.2578 166.419,15.306 166.248,15.4023 C166.077,15.4987 165.945,15.6387 165.85,15.8223 C165.755,16.0059 165.706,16.2266 165.703,16.4844 M174.059,13.9531 L174.059,15.2031 L170.445,15.2031 L170.445,13.9531 L174.059,13.9531 M171.266,12.5156 L172.93,12.5156 L172.93,18.1094 C172.93,18.263 172.953,18.3822 173,18.4668 C173.047,18.5514 173.113,18.6107 173.197,18.6445 C173.282,18.6784 173.38,18.6953 173.492,18.6953 C173.57,18.6953 173.648,18.6882 173.727,18.6738 C173.805,18.6595 173.865,18.6484 173.906,18.6406 L174.168,19.8789 C174.085,19.9049 173.967,19.9355 173.816,19.9707 C173.665,20.0059 173.482,20.0273 173.266,20.0352 C172.865,20.0508 172.514,19.9974 172.213,19.875 C171.912,19.7526 171.678,19.5625 171.512,19.3047 C171.345,19.0469 171.263,18.7214 171.266,18.3281 L171.266,12.5156 M176.844,20.0664 C176.461,20.0664 176.12,19.9993 175.82,19.8652 C175.521,19.7311 175.285,19.5319 175.111,19.2676 C174.938,19.0033 174.852,18.6732 174.852,18.2773 C174.852,17.944 174.913,17.6641 175.035,17.4375 C175.158,17.2109 175.324,17.0286 175.535,16.8906 C175.746,16.7526 175.986,16.6484 176.256,16.5781 C176.525,16.5078 176.809,16.4583 177.105,16.4297 C177.454,16.3932 177.736,16.3587 177.949,16.3262 C178.163,16.2936 178.318,16.2448 178.414,16.1797 C178.51,16.1146 178.559,16.0182 178.559,15.8906 L178.559,15.8672 C178.559,15.6198 178.481,15.4284 178.326,15.293 C178.171,15.1576 177.952,15.0898 177.668,15.0898 C177.368,15.0898 177.13,15.1556 176.953,15.2871 C176.776,15.4186 176.659,15.5833 176.602,15.7813 L175.063,15.6563 C175.141,15.2917 175.294,14.9759 175.523,14.709 C175.753,14.4421 176.049,14.2363 176.412,14.0918 C176.775,13.9473 177.197,13.875 177.676,13.875 C178.009,13.875 178.329,13.9141 178.635,13.9922 C178.941,14.0703 179.213,14.1914 179.451,14.3555 C179.689,14.5195 179.878,14.7298 180.016,14.9863 C180.154,15.2428 180.223,15.5495 180.223,15.9063 L180.223,19.9531 L178.645,19.9531 L178.645,19.1211 L178.598,19.1211 C178.501,19.3086 178.372,19.4733 178.211,19.6152 C178.049,19.7572 177.855,19.8678 177.629,19.9473 C177.402,20.0267 177.141,20.0664 176.844,20.0664 M177.32,18.918 C177.565,18.918 177.781,18.8691 177.969,18.7715 C178.156,18.6738 178.303,18.5417 178.41,18.375 C178.517,18.2083 178.57,18.0195 178.57,17.8086 L178.57,17.1719 C178.518,17.2057 178.447,17.2363 178.357,17.2637 C178.268,17.291 178.167,17.3158 178.055,17.3379 C177.943,17.36 177.831,17.3796 177.719,17.3965 C177.607,17.4134 177.505,17.4284 177.414,17.4414 C177.219,17.4701 177.048,17.5156 176.902,17.5781 C176.757,17.6406 176.643,17.7246 176.563,17.8301 C176.482,17.9355 176.441,18.0664 176.441,18.2227 C176.441,18.4492 176.524,18.6217 176.689,18.7402 C176.855,18.8587 177.065,18.918 177.32,18.918 M184.699,13.9531 L184.699,15.2031 L181.086,15.2031 L181.086,13.9531 L184.699,13.9531 M181.906,12.5156 L183.57,12.5156 L183.57,18.1094 C183.57,18.263 183.594,18.3822 183.641,18.4668 C183.688,18.5514 183.753,18.6107 183.838,18.6445 C183.923,18.6784 184.021,18.6953 184.133,18.6953 C184.211,18.6953 184.289,18.6882 184.367,18.6738 C184.445,18.6595 184.505,18.6484 184.547,18.6406 L184.809,19.8789 C184.725,19.9049 184.608,19.9355 184.457,19.9707 C184.306,20.0059 184.122,20.0273 183.906,20.0352 C183.505,20.0508 183.154,19.9974 182.854,19.875 C182.553,19.7526 182.319,19.5625 182.152,19.3047 C181.986,19.0469 181.904,18.7214 181.906,18.3281 L181.906,12.5156 M185.773,19.9531 L185.773,13.9531 L187.438,13.9531 L187.438,19.9531 L185.773,19.9531 M186.609,13.1797 C186.362,13.1797 186.15,13.097 185.975,12.9316 C185.799,12.7663 185.711,12.5677 185.711,12.3359 C185.711,12.1068 185.799,11.9095 185.975,11.7441 C186.15,11.5788 186.362,11.4961 186.609,11.4961 C186.857,11.4961 187.068,11.5788 187.244,11.7441 C187.42,11.9095 187.508,12.1068 187.508,12.3359 C187.508,12.5677 187.42,12.7663 187.244,12.9316 C187.068,13.097 186.857,13.1797 186.609,13.1797 M191.469,20.0703 C190.862,20.0703 190.338,19.9408 189.896,19.6816 C189.455,19.4225 189.115,19.0605 188.875,18.5957 C188.635,18.1309 188.516,17.5911 188.516,16.9766 C188.516,16.3568 188.635,15.8145 188.875,15.3496 C189.115,14.8848 189.455,14.5228 189.896,14.2637 C190.338,14.0046 190.862,13.875 191.469,13.875 C192.076,13.875 192.6,14.0046 193.041,14.2637 C193.482,14.5228 193.823,14.8848 194.063,15.3496 C194.302,15.8145 194.422,16.3568 194.422,16.9766 C194.422,17.5911 194.302,18.1309 194.063,18.5957 C193.823,19.0605 193.482,19.4225 193.041,19.6816 C192.6,19.9408 192.076,20.0703 191.469,20.0703 M191.477,18.7813 C191.753,18.7813 191.983,18.7025 192.168,18.5449 C192.353,18.3874 192.493,18.1719 192.588,17.8984 C192.683,17.625 192.73,17.3138 192.73,16.9648 C192.73,16.6159 192.683,16.3047 192.588,16.0313 C192.493,15.7578 192.353,15.5417 192.168,15.3828 C191.983,15.224 191.753,15.1445 191.477,15.1445 C191.198,15.1445 190.964,15.224 190.775,15.3828 C190.587,15.5417 190.445,15.7578 190.35,16.0313 C190.255,16.3047 190.207,16.6159 190.207,16.9648 C190.207,17.3138 190.255,17.625 190.35,17.8984 C190.445,18.1719 190.587,18.3874 190.775,18.5449 C190.964,18.7025 191.198,18.7813 191.477,18.7813 M197.172,16.4844 L197.172,19.9531 L195.508,19.9531 L195.508,13.9531 L197.094,13.9531 L197.094,15.0117 L197.164,15.0117 C197.297,14.6628 197.52,14.3861 197.832,14.1816 C198.145,13.9772 198.523,13.875 198.969,13.875 C199.385,13.875 199.749,13.9661 200.059,14.1484 C200.368,14.3307 200.609,14.5905 200.781,14.9277 C200.953,15.265 201.039,15.6667 201.039,16.1328 L201.039,19.9531 L199.375,19.9531 L199.375,16.4297 C199.378,16.0625 199.284,15.7754 199.094,15.5684 C198.904,15.3613 198.642,15.2578 198.309,15.2578 C198.085,15.2578 197.887,15.306 197.717,15.4023 C197.546,15.4987 197.413,15.6387 197.318,15.8223 C197.223,16.0059 197.174,16.2266 197.172,16.4844 M204.883,19.9531 L204.883,13.9531 L206.547,13.9531 L206.547,19.9531 L204.883,19.9531 M205.719,13.1797 C205.471,13.1797 205.26,13.097 205.084,12.9316 C204.908,12.7663 204.82,12.5677 204.82,12.3359 C204.82,12.1068 204.908,11.9095 205.084,11.7441 C205.26,11.5788 205.471,11.4961 205.719,11.4961 C205.966,11.4961 206.178,11.5788 206.354,11.7441 C206.529,11.9095 206.617,12.1068 206.617,12.3359 C206.617,12.5677 206.529,12.7663 206.354,12.9316 C206.178,13.097 205.966,13.1797 205.719,13.1797 M212.859,15.6641 L211.336,15.7578 C211.31,15.6276 211.254,15.5098 211.168,15.4043 C211.082,15.2988 210.969,15.2142 210.83,15.1504 C210.691,15.0866 210.525,15.0547 210.332,15.0547 C210.074,15.0547 209.857,15.1087 209.68,15.2168 C209.503,15.3249 209.414,15.4688 209.414,15.6484 C209.414,15.7917 209.471,15.9128 209.586,16.0117 C209.701,16.1107 209.897,16.1901 210.176,16.25 L211.262,16.4688 C211.845,16.5885 212.28,16.7813 212.566,17.0469 C212.853,17.3125 212.996,17.6615 212.996,18.0938 C212.996,18.487 212.881,18.832 212.65,19.1289 C212.42,19.4258 212.105,19.6569 211.705,19.8223 C211.305,19.9876 210.845,20.0703 210.324,20.0703 C209.53,20.0703 208.898,19.9043 208.428,19.5723 C207.958,19.2402 207.682,18.7878 207.602,18.2148 L209.238,18.1289 C209.288,18.3711 209.408,18.5553 209.598,18.6816 C209.788,18.8079 210.031,18.8711 210.328,18.8711 C210.62,18.8711 210.855,18.8145 211.033,18.7012 C211.212,18.5879 211.302,18.4414 211.305,18.2617 C211.302,18.1107 211.238,17.9863 211.113,17.8887 C210.988,17.791 210.796,17.7161 210.535,17.6641 L209.496,17.457 C208.91,17.3398 208.475,17.1367 208.189,16.8477 C207.904,16.5586 207.762,16.1901 207.762,15.7422 C207.762,15.3568 207.867,15.0247 208.076,14.7461 C208.286,14.4674 208.581,14.2526 208.963,14.1016 C209.344,13.9505 209.792,13.875 210.305,13.875 C211.063,13.875 211.66,14.0352 212.096,14.3555 C212.532,14.6758 212.786,15.112 212.859,15.6641 "/>
</g>

<g fill="#ffffff" fill-opacity="1" stroke="none" transform="matrix(1,0,0,1,0,0)"
font-family="Inter" font-size="11" font-weight="700" font-style="normal" 
>
<path vector-effect="none" fill-rule="nonzero" d="M286.266,17.5547 L286.266,17.4219 C286.268,16.9661 286.309,16.6029 286.389,16.332 C286.468,16.0612 286.585,15.8424 286.738,15.6758 C286.892,15.5091 287.077,15.3581 287.293,15.2227 C287.454,15.1185 287.599,15.0104 287.727,14.8984 C287.854,14.7865 287.956,14.6621 288.031,14.5254 C288.107,14.3887 288.145,14.2357 288.145,14.0664 C288.145,13.8867 288.102,13.7292 288.016,13.5938 C287.93,13.4583 287.814,13.3542 287.67,13.2813 C287.525,13.2083 287.366,13.1719 287.191,13.1719 C287.022,13.1719 286.862,13.209 286.711,13.2832 C286.56,13.3574 286.436,13.4668 286.34,13.6113 C286.243,13.7559 286.191,13.9349 286.184,14.1484 L284.59,14.1484 C284.603,13.6276 284.728,13.1973 284.965,12.8574 C285.202,12.5176 285.516,12.2637 285.906,12.0957 C286.297,11.9277 286.728,11.8438 287.199,11.8438 C287.717,11.8438 288.176,11.929 288.574,12.0996 C288.973,12.2702 289.285,12.5169 289.512,12.8398 C289.738,13.1628 289.852,13.5521 289.852,14.0078 C289.852,14.3125 289.801,14.5827 289.701,14.8184 C289.601,15.054 289.461,15.2624 289.281,15.4434 C289.102,15.6243 288.889,15.7878 288.645,15.9336 C288.439,16.056 288.27,16.1836 288.139,16.3164 C288.007,16.4492 287.91,16.6029 287.846,16.7773 C287.782,16.9518 287.749,17.1667 287.746,17.4219 L287.746,17.5547 L286.266,17.5547 M287.039,20.0547 C286.779,20.0547 286.557,19.9629 286.373,19.7793 C286.189,19.5957 286.099,19.375 286.102,19.1172 C286.099,18.862 286.189,18.6432 286.373,18.4609 C286.557,18.2786 286.779,18.1875 287.039,18.1875 C287.286,18.1875 287.504,18.2786 287.691,18.4609 C287.879,18.6432 287.974,18.862 287.977,19.1172 C287.974,19.2891 287.929,19.446 287.842,19.5879 C287.755,19.7298 287.641,19.8431 287.5,19.9277 C287.359,20.0124 287.206,20.0547 287.039,20.0547 "/>
</g>

<g fill="#ffffff" fill-opacity="1" stroke="none" transform="matrix(0.228,0,0,0.228,11.6,4.6)"
font-family="Inter" font-size="11" font-weight="700" font-style="normal" 
>
<path vector-effect="none" fill-rule="nonzero" d="M23.3682,15.995 C21.89,15.995 20.7001,17.185 20.7001,18.6631 L20.7001,81.3343 C20.7001,82.8125 21.89,84.0024 23.3682,84.0024 L76.6077,84.0024 C78.0859,84.0024 79.2758,82.8125 79.2758,81.3343 L79.2758,18.6631 C79.2758,17.185 78.0859,15.995 76.6077,15.995 L50.8905,15.995 C51.6703,16.0444 52.2838,16.6869 52.2838,17.4796 L52.2838,26.9112 C52.2838,27.7362 51.6196,28.4004 50.7946,28.4004 L49.3054,28.4004 C48.4804,28.4004 47.8161,27.7362 47.8161,26.9112 L47.8161,17.4796 C47.8161,16.6869 48.4298,16.0443 49.2096,15.995 L23.3682,15.995 M46.7613,35.2087 L53.2146,35.2087 C53.9021,35.2087 54.4556,35.7622 54.4556,36.4497 L54.4556,42.903 C54.4556,43.5906 53.9021,44.1439 53.2146,44.1439 L46.7613,44.1439 C46.0738,44.1439 45.5202,43.5906 45.5202,42.903 L45.5202,36.4497 C45.5202,35.7622 46.0738,35.2087 46.7613,35.2087 "/>
</g>

<g fill="none" stroke="#000000" stroke-opacity="1" stroke-width="2.43854" stroke-linecap="butt" stroke-linejoin="miter" stroke-miterlimit="4" transform="matrix(0.228,0,0,0.228,11.6,4.6)"
font-family="Inter" font-size="11" font-weight="700" font-style="normal" 
>
<path vector-effect="none" fill-rule="nonzero" d="M23.3682,15.995 C21.89,15.995 20.7001,17.185 20.7001,18.6631 L20.7001,81.3343 C20.7001,82.8125 21.89,84.0024 23.3682,84.0024 L76.6077,84.0024 C78.0859,84.0024 79.2758,82.8125 79.2758,81.3343 L79.2758,18.6631 C79.2758,17.185 78.0859,15.995 76.6077,15.995 L50.8905,15.995 C51.6703,16.0444 52.2838,16.6869 52.2838,17.4796 L52.2838,26.9112 C52.2838,27.7362 51.6196,28.4004 50.7946,28.4004 L49.3054,28.4004 C48.4804,28.4004 47.8161,27.7362 47.8161,26.9112 L47.8161,17.4796 C47.8161,16.6869 48.4298,16.0443 49.2096,15.995 L23.3682,15.995 M46.7613,35.2087 L53.2146,35.2087 C53.9021,35.2087 54.4556,35.7622 54.4556,36.4497 L54.4556,42.903 C54.4556,43.5906 53.9021,44.1439 53.2146,44.1439 L46.7613,44.1439 C46.0738,44.1439 45.5202,43.5906 45.5202,42.903 L45.5202,36.4497 C45.5202,35.7622 46.0738,35.2087 46.7613,35.2087 "/>
</g>

<g fill="#000000" fill-opacity="1" stroke="none" transform="matrix(0.228,0,0,0.228,11.6,4.6)"
font-family="Inter" font-size="11" font-weight="700" font-style="normal" 
>
<path vector-effect="none" fill-rule="evenodd" d="M14.2421,17.9523 C14.2421,17.1298 14.9088,16.4631 15.7313,16.4631 L18.7097,16.4631 C19.5322,16.4631 20.1989,17.1298 20.1989,17.9523 L20.1989,33.8372 C20.1989,34.6597 19.5322,35.3264 18.7097,35.3264 L15.7313,35.3264 C14.9088,35.3264 14.2421,34.6597 14.2421,33.8372 L14.2421,17.9523"/>
</g>

<g fill="none" stroke="#000000" stroke-opacity="1" stroke-width="2.43854" stroke-linecap="butt" stroke-linejoin="miter" stroke-miterlimit="4" transform="matrix(0.228,0,0,0.228,11.6,4.6)"
font-family="Inter" font-size="11" font-weight="700" font-style="normal" 
>
<path vector-effect="none" fill-rule="evenodd" d="M14.2421,17.9523 C14.2421,17.1298 14.9088,16.4631 15.7313,16.4631 L18.7097,16.4631 C19.5322,16.4631 20.1989,17.1298 20.1989,17.9523 L20.1989,33.8372 C20.1989,34.6597 19.5322,35.3264 18.7097,35.3264 L15.7313,35.3264 C14.9088,35.3264 14.2421,34.6597 14.2421,33.8372 L14.2421,17.9523"/>
</g>

<g fill="#000000" fill-opacity="1" stroke="none" transform="matrix(0.228,0,0,0.228,11.6,4.6)"
font-family="Inter" font-size="11" font-weight="700" font-style="normal" 
>
<path vector-effect="none" fill-rule="evenodd" d="M79.3249,17.4662 C79.3249,16.6438 79.9916,15.977 80.8141,15.977 L83.7925,15.977 C84.615,15.977 85.2817,16.6438 85.2817,17.4662 L85.2817,33.3512 C85.2817,34.1736 84.615,34.8404 83.7925,34.8404 L80.8141,34.8404 C79.9916,34.8404 79.3249,34.1736 79.3249,33.3512 L79.3249,17.4662"/>
</g>

<g fill="none" stroke="#000000" stroke-opacity="1" stroke-width="2.43854" stroke-linecap="butt" stroke-linejoin="miter" stroke-miterlimit="4" transform="matrix(0.228,0,0,0.228,11.6,4.6)"
font-family="Inter" font-size="11" font-weight="700" font-style="normal" 
>
<path vector-effect="none" fill-rule="evenodd" d="M79.3249,17.4662 C79.3249,16.6438 79.9916,15.977 80.8141,15.977 L83.7925,15.977 C84.615,15.977 85.2817,16.6438 85.2817,17.4662 L85.2817,33.3512 C85.2817,34.1736 84.615,34.8404 83.7925,34.8404 L80.8141,34.8404 C79.9916,34.8404 79.3249,34.1736 79.3249,33.3512 L79.3249,17.4662"/>
</g>

<g fill="#000000" fill-opacity="1" stroke="none" transform="matrix(0.228,0,0,0.228,11.6,4.6)"
font-family="Inter" font-size="11" font-weight="700" font-style="normal" 
>
<path vector-effect="none" fill-rule="evenodd" d="M79.5633,66.576 C79.5633,65.7535 80.23,65.0868 81.0525,65.0868 L84.0309,65.0868 C84.8534,65.0868 85.5201,65.7535 85.5201,66.576 L85.5201,82.4609 C85.5201,83.2834 84.8534,83.9501 84.0309,83.9501 L81.0525,83.9501 C80.23,83.9501 79.5633,83.2834 79.5633,82.4609 L79.5633,66.576"/>
</g>

<g fill="none" stroke="#000000" stroke-opacity="1" stroke-width="2.43854" stroke-linecap="butt" stroke-linejoin="miter" stroke-miterlimit="4" transform="matrix(0.228,0,0,0.228,11.6,4.6)"
font-family="Inter" font-size="11" font-weight="700" font-style="normal" 
>
<path vector-effect="none" fill-rule="evenodd" d="M79.5633,66.576 C79.5633,65.7535 80.23,65.0868 81.0525,65.0868 L84.0309,65.0868 C84.8534,65.0868 85.5201,65.7535 85.5201,66.576 L85.5201,82.4609 C85.5201,83.2834 84.8534,83.9501 84.0309,83.9501 L81.0525,83.9501 C80.23,83.9501 79.5633,83.2834 79.5633,82.4609 L79.5633,66.576"/>
</g>

<g fill="#000000" fill-opacity="1" stroke="none" transform="matrix(0.228,0,0,0.228,11.6,4.6)"
font-family="Inter" font-size="11" font-weight="700" font-style="normal" 
>
<path vector-effect="none" fill-rule="evenodd" d="M14.6928,66.6283 C14.6928,65.8058 15.3595,65.1391 16.182,65.1391 L19.1604,65.1391 C19.9829,65.1391 20.6496,65.8058 20.6496,66.6283 L20.6496,82.5132 C20.6496,83.3357 19.9829,84.0024 19.1604,84.0024 L16.182,84.0024 C15.3595,84.0024 14.6928,83.3357 14.6928,82.5132 L14.6928,66.6283"/>
</g>

<g fill="none" stroke="#000000" stroke-opacity="1" stroke-width="2.43854" stroke-linecap="butt" stroke-linejoin="miter" stroke-miterlimit="4" transform="matrix(0.228,0,0,0.228,11.6,4.6)"
font-family="Inter" font-size="11" font-weight="700" font-style="normal" 
>
<path vector-effect="none" fill-rule="evenodd" d="M14.6928,66.6283 C14.6928,65.8058 15.3595,65.1391 16.182,65.1391 L19.1604,65.1391 C19.9829,65.1391 20.6496,65.8058 20.6496,66.6283 L20.6496,82.5132 C20.6496,83.3357 19.9829,84.0024 19.1604,84.0024 L16.182,84.0024 C15.3595,84.0024 14.6928,83.3357 14.6928,82.5132 L14.6928,66.6283"/>
</g>

<g fill="none" stroke="#000000" stroke-opacity="1" stroke-width="2.43854" stroke-linecap="butt" stroke-linejoin="miter" stroke-miterlimit="4" transform="matrix(0.228,0,0,0.228,11.6,4.6)"
font-family="Inter" font-size="11" font-weight="700" font-style="normal" 
>
<path vector-effect="none" fill-rule="evenodd" d="M20.92,17.503 C20.92,16.6806 21.5867,16.0138 22.4092,16.0138 L27.125,16.0138 C27.9475,16.0138 28.6142,16.6806 28.6142,17.503 L28.6142,55.9743 C28.6142,56.7968 27.9475,57.4635 27.125,57.4635 L22.4092,57.4635 C21.5867,57.4635 20.92,56.7968 20.92,55.9743 L20.92,17.503"/>
</g>

<g fill="none" stroke="#000000" stroke-opacity="1" stroke-width="2.43854" stroke-linecap="butt" stroke-linejoin="miter" stroke-miterlimit="4" transform="matrix(0.228,0,0,0.228,11.6,4.6)"
font-family="Inter" font-size="11" font-weight="700" font-style="normal" 
>
<path vector-effect="none" fill-rule="evenodd" d="M71.4269,17.6638 C71.4269,16.8414 72.0937,16.1746 72.9162,16.1746 L77.632,16.1746 C78.4545,16.1746 79.1212,16.8414 79.1212,17.6638 L79.1212,56.1351 C79.1212,56.9576 78.4545,57.6243 77.632,57.6243 L72.9162,57.6243 C72.0937,57.6243 71.4269,56.9576 71.4269,56.1351 L71.4269,17.6638"/>
</g>

<g fill="#ffffff" fill-opacity="1" stroke="none" transform="matrix(0.228,0,0,0.228,11.6,4.6)"
font-family="Inter" font-size="11" font-weight="700" font-style="normal" 
>
<path vector-effect="none" fill-rule="evenodd" d="M41.9526,15.9757 C41.9526,15.9593 41.9659,15.9461 41.9822,15.9461 L57.922,15.9461 C57.9384,15.9461 57.9516,15.9593 57.9516,15.9757 C57.9516,15.992 57.9384,16.0053 57.922,16.0053 L41.9822,16.0053 C41.9659,16.0053 41.9526,15.992 41.9526,15.9757 "/>
</g>

<g fill="none" stroke="#000000" stroke-opacity="1" stroke-width="2.3865" stroke-linecap="butt" stroke-linejoin="miter" stroke-miterlimit="4" transform="matrix(0.228,0,0,0.228,11.6,4.6)"
font-family="Inter" font-size="11" font-weight="700" font-style="normal" 
>
<path vector-effect="none" fill-rule="evenodd" d="M41.9526,15.9757 C41.9526,15.9593 41.9659,15.9461 41.9822,15.9461 L57.922,15.9461 C57.9384,15.9461 57.9516,15.9593 57.9516,15.9757 C57.9516,15.992 57.9384,16.0053 57.922,16.0053 L41.9822,16.0053 C41.9659,16.0053 41.9526,15.992 41.9526,15.9757 "/>
</g>

<g fill="#ffffff" fill-opacity="1" stroke="none" transform="matrix(1,0,0,1,0,0)"
font-family="Inter" font-size="11" font-weight="700" font-style="normal" 
>
</g>

<g fill="#ffffff" fill-opacity="1" stroke="#0da6c5" stroke-opacity="1" stroke-width="1" stroke-linecap="square" stroke-linejoin="bevel" transform="matrix(1,0,0,1,0,0)"
font-family="Inter" font-size="11" font-weight="700" font-style="normal" 
>
<polyline fill="none" vector-effect="none" points="45,6 45,26 " />
</g>

<g fill="#ffffff" fill-opacity="1" stroke="#0da6c5" stroke-opacity="1" stroke-width="1" stroke-linecap="square" stroke-linejoin="bevel" transform="matrix(1,0,0,1,0,0)"
font-family="Inter" font-size="11" font-weight="700" font-style="normal" 
>
</g>

<g fill="#1dccf0" fill-opacity="1" stroke="#0da6c5" stroke-opacity="1" stroke-width="1.2" stroke-linecap="square" stroke-linejoin="bevel" transform="matrix(1,0,0,1,219,4)"
font-family="Inter" font-size="11" font-weight="700" font-style="normal" 
>
<path vector-effect="none" fill-rule="evenodd" d="M0.5,3.5 C0.5,1.84315 1.84315,0.5 3.5,0.5 L56,0.5 C57.6569,0.5 59,1.84315 59,3.5 L59,20.5 C59,22.1569 57.6569,23.5 56,23.5 L3.5,23.5 C1.84315,23.5 0.5,22.1569 0.5,20.5 L0.5,3.5"/>
</g>

<g fill="#ffffff" fill-opacity="1" stroke="none" transform="matrix(1,0,0,1,219,4)"
font-family="Inter" font-size="11" font-weight="700" font-style="normal" 
>
<path vector-effect="none" fill-rule="nonzero" d="M9.50781,15.7344 L9.50781,7.73438 L14.8047,7.73438 L14.8047,9.12891 L11.1992,9.12891 L11.1992,11.0352 L14.4531,11.0352 L14.4531,12.4297 L11.1992,12.4297 L11.1992,15.7344 L9.50781,15.7344 M15.8047,15.7344 L15.8047,9.73438 L17.418,9.73438 L17.418,10.7813 L17.4805,10.7813 C17.5898,10.4089 17.7734,10.127 18.0313,9.93555 C18.2891,9.74414 18.5859,9.64844 18.9219,9.64844 C19.0052,9.64844 19.0951,9.65365 19.1914,9.66406 C19.2878,9.67448 19.3724,9.6888 19.4453,9.70703 L19.4453,11.1836 C19.3672,11.1602 19.2591,11.1393 19.1211,11.1211 C18.9831,11.1029 18.8568,11.0938 18.7422,11.0938 C18.4974,11.0938 18.2793,11.1465 18.0879,11.252 C17.8965,11.3574 17.7454,11.5039 17.6348,11.6914 C17.5241,11.8789 17.4688,12.0951 17.4688,12.3398 L17.4688,15.7344 L15.8047,15.7344 M22.7188,15.8516 C22.112,15.8516 21.5879,15.722 21.1465,15.4629 C20.7051,15.2038 20.3646,14.8418 20.125,14.377 C19.8854,13.9121 19.7656,13.3724 19.7656,12.7578 C19.7656,12.138 19.8854,11.5957 20.125,11.1309 C20.3646,10.666 20.7051,10.304 21.1465,10.0449 C21.5879,9.78581 22.112,9.65625 22.7188,9.65625 C23.3255,9.65625 23.8496,9.78581 24.291,10.0449 C24.7324,10.304 25.0729,10.666 25.3125,11.1309 C25.5521,11.5957 25.6719,12.138 25.6719,12.7578 C25.6719,13.3724 25.5521,13.9121 25.3125,14.377 C25.0729,14.8418 24.7324,15.2038 24.291,15.4629 C23.8496,15.722 23.3255,15.8516 22.7188,15.8516 M22.7266,14.5625 C23.0026,14.5625 23.2331,14.4837 23.418,14.3262 C23.6029,14.1686 23.7428,13.9531 23.8379,13.6797 C23.9329,13.4063 23.9805,13.0951 23.9805,12.7461 C23.9805,12.3971 23.9329,12.0859 23.8379,11.8125 C23.7428,11.5391 23.6029,11.3229 23.418,11.1641 C23.2331,11.0052 23.0026,10.9258 22.7266,10.9258 C22.4479,10.9258 22.2142,11.0052 22.0254,11.1641 C21.8366,11.3229 21.6947,11.5391 21.5996,11.8125 C21.5046,12.0859 21.457,12.3971 21.457,12.7461 C21.457,13.0951 21.5046,13.4063 21.5996,13.6797 C21.6947,13.9531 21.8366,14.1686 22.0254,14.3262 C22.2142,14.4837 22.4479,14.5625 22.7266,14.5625 M28.4219,12.2656 L28.4219,15.7344 L26.7578,15.7344 L26.7578,9.73438 L28.3438,9.73438 L28.3438,10.793 L28.4141,10.793 C28.5469,10.444 28.7695,10.1673 29.082,9.96289 C29.3945,9.75846 29.7734,9.65625 30.2188,9.65625 C30.6354,9.65625 30.9987,9.7474 31.3086,9.92969 C31.6185,10.112 31.8594,10.3717 32.0313,10.709 C32.2031,11.0462 32.2891,11.4479 32.2891,11.9141 L32.2891,15.7344 L30.625,15.7344 L30.625,12.2109 C30.6276,11.8438 30.5339,11.5566 30.3438,11.3496 C30.1536,11.1426 29.8919,11.0391 29.5586,11.0391 C29.3346,11.0391 29.1374,11.0872 28.9668,11.1836 C28.7962,11.2799 28.6634,11.4199 28.5684,11.6035 C28.4733,11.7871 28.4245,12.0078 28.4219,12.2656 M36.7773,9.73438 L36.7773,10.9844 L33.1641,10.9844 L33.1641,9.73438 L36.7773,9.73438 M33.9844,8.29688 L35.6484,8.29688 L35.6484,13.8906 C35.6484,14.0443 35.6719,14.1634 35.7188,14.248 C35.7656,14.3327 35.8314,14.3919 35.916,14.4258 C36.0007,14.4596 36.099,14.4766 36.2109,14.4766 C36.2891,14.4766 36.3672,14.4694 36.4453,14.4551 C36.5234,14.4408 36.5833,14.4297 36.625,14.4219 L36.8867,15.6602 C36.8034,15.6862 36.6862,15.7168 36.5352,15.752 C36.3841,15.7871 36.2005,15.8086 35.9844,15.8164 C35.5833,15.832 35.2324,15.7786 34.9316,15.6563 C34.6309,15.5339 34.3971,15.3438 34.2305,15.0859 C34.0638,14.8281 33.9818,14.5026 33.9844,14.1094 L33.9844,8.29688"/>
</g>

<g fill="#ffffff" fill-opacity="1" stroke="none" transform="matrix(0.03125,0,0,0.03125,264.5,12)"
font-family="Inter" font-size="11" font-weight="700" font-style="normal" 
>
<path vector-effect="none" fill-rule="nonzero" d="M111.326,191.938 C120.545,201.158 135.517,201.158 144.737,191.938 L239.144,97.5313 C245.929,90.7458 247.921,80.6413 244.233,71.7907 C240.545,62.9401 231.989,57.1871 222.401,57.1871 L33.5875,57.2608 C24.0731,57.2608 15.4437,63.0137 11.7559,71.8644 C8.06815,80.715 10.1333,90.8195 16.845,97.605 L111.252,192.012 L111.326,191.938"/>
</g>

<g fill="none" stroke="#000000" stroke-opacity="1" stroke-width="13.7195" stroke-linecap="butt" stroke-linejoin="miter" stroke-miterlimit="4" transform="matrix(0.03125,0,0,0.03125,264.5,12)"
font-family="Inter" font-size="11" font-weight="700" font-style="normal" 
>
<path vector-effect="none" fill-rule="nonzero" d="M111.326,191.938 C120.545,201.158 135.517,201.158 144.737,191.938 L239.144,97.5313 C245.929,90.7458 247.921,80.6413 244.233,71.7907 C240.545,62.9401 231.989,57.1871 222.401,57.1871 L33.5875,57.2608 C24.0731,57.2608 15.4437,63.0137 11.7559,71.8644 C8.06815,80.715 10.1333,90.8195 16.845,97.605 L111.252,192.012 L111.326,191.938"/>
</g>

<g fill="#ffffff" fill-opacity="1" stroke="none" transform="matrix(1,0,0,1,219,4)"
font-family="Inter" font-size="11" font-weight="700" font-style="normal" 
>
</g>

<g fill="#ffffff" fill-opacity="1" stroke="#0da6c5" stroke-opacity="1" stroke-width="1" stroke-linecap="square" stroke-linejoin="bevel" transform="matrix(1,0,0,1,0,0)"
font-family="Inter" font-size="11" font-weight="700" font-style="normal" 
>
</g>

<g fill="#1dccf0" fill-opacity="1" stroke="#0da6c5" stroke-opacity="1" stroke-width="1.2" stroke-linecap="square" stroke-linejoin="bevel" transform="matrix(1,0,0,1,56,4)"
font-family="Inter" font-size="11" font-weight="700" font-style="normal" 
>
<path vector-effect="none" fill-rule="evenodd" d="M0.5,3.5 C0.5,1.84315 1.84315,0.5 3.5,0.5 L71.5,0.5 C73.1569,0.5 74.5,1.84315 74.5,3.5 L74.5,20.5 C74.5,22.1569 73.1569,23.5 71.5,23.5 L3.5,23.5 C1.84315,23.5 0.5,22.1569 0.5,20.5 L0.5,3.5"/>
</g>

<g fill="#ffffff" fill-opacity="1" stroke="none" transform="matrix(1,0,0,1,56,4)"
font-family="Inter" font-size="11" font-weight="700" font-style="normal" 
>
<path vector-effect="none" fill-rule="nonzero" d="M10,9.39453 L10,8 L16.5703,8 L16.5703,9.39453 L14.1211,9.39453 L14.1211,16 L12.4492,16 L12.4492,9.39453 L10,9.39453 M17.6484,16 L17.6484,8 L19.3398,8 L19.3398,11.3008 L22.7734,11.3008 L22.7734,8 L24.4609,8 L24.4609,16 L22.7734,16 L22.7734,12.6953 L19.3398,12.6953 L19.3398,16 L17.6484,16 M32.543,8 L32.543,16 L31.082,16 L27.6016,10.9648 L27.543,10.9648 L27.543,16 L25.8516,16 L25.8516,8 L27.3359,8 L30.7891,13.0313 L30.8594,13.0313 L30.8594,8 L32.543,8 M33.9297,16 L33.9297,8 L35.6211,8 L35.6211,11.3008 L39.0547,11.3008 L39.0547,8 L40.7422,8 L40.7422,16 L39.0547,16 L39.0547,12.6953 L35.6211,12.6953 L35.6211,16 L33.9297,16 M42.1328,16 L42.1328,8 L45.3359,8 C45.9245,8 46.4154,8.08724 46.8086,8.26172 C47.2018,8.4362 47.4974,8.67773 47.6953,8.98633 C47.8932,9.29492 47.9922,9.64974 47.9922,10.0508 C47.9922,10.3633 47.9297,10.6374 47.8047,10.873 C47.6797,11.1087 47.5085,11.3014 47.291,11.4512 C47.0736,11.6009 46.8255,11.707 46.5469,11.7695 L46.5469,11.8477 C46.8516,11.8607 47.1374,11.9466 47.4043,12.1055 C47.6712,12.2643 47.888,12.4863 48.0547,12.7715 C48.2214,13.0566 48.3047,13.3958 48.3047,13.7891 C48.3047,14.2135 48.1999,14.5918 47.9902,14.9238 C47.7806,15.2559 47.4714,15.5182 47.0625,15.7109 C46.6536,15.9036 46.1497,16 45.5508,16 L42.1328,16 M43.8242,14.6172 L45.2031,14.6172 C45.6745,14.6172 46.0182,14.5267 46.2344,14.3457 C46.4505,14.1647 46.5586,13.9232 46.5586,13.6211 C46.5586,13.3997 46.5052,13.2044 46.3984,13.0352 C46.2917,12.8659 46.14,12.7331 45.9434,12.6367 C45.7467,12.5404 45.513,12.4922 45.2422,12.4922 L43.8242,12.4922 L43.8242,14.6172 M43.8242,11.3477 L45.0781,11.3477 C45.3099,11.3477 45.5163,11.3066 45.6973,11.2246 C45.8783,11.1426 46.0215,11.026 46.127,10.875 C46.2324,10.724 46.2852,10.543 46.2852,10.332 C46.2852,10.043 46.1829,9.8099 45.9785,9.63281 C45.7741,9.45573 45.4844,9.36719 45.1094,9.36719 L43.8242,9.36719 L43.8242,11.3477 M52.832,8 L52.832,16 L51.1406,16 L51.1406,9.60547 L51.0938,9.60547 L49.2617,10.7539 L49.2617,9.25391 L51.2422,8 L52.832,8"/>
</g>

<g fill="#ffffff" fill-opacity="1" stroke="none" transform="matrix(0.03125,0,0,0.03125,117,12)"
font-family="Inter" font-size="11" font-weight="700" font-style="normal" 
>
<path vector-effect="none" fill-rule="nonzero" d="M111.326,191.938 C120.545,201.158 135.517,201.158 144.737,191.938 L239.144,97.5313 C245.929,90.7458 247.921,80.6413 244.233,71.7907 C240.545,62.9401 231.989,57.1871 222.401,57.1871 L33.5875,57.2608 C24.0731,57.2608 15.4437,63.0137 11.7559,71.8644 C8.06815,80.715 10.1333,90.8195 16.845,97.605 L111.252,192.012 L111.326,191.938"/>
</g>

<g fill="none" stroke="#000000" stroke-opacity="1" stroke-width="13.7195" stroke-linecap="butt" stroke-linejoin="miter" stroke-miterlimit="4" transform="matrix(0.03125,0,0,0.03125,117,12)"
font-family="Inter" font-size="11" font-weight="700" font-style="normal" 
>
<path vector-effect="none" fill-rule="nonzero" d="M111.326,191.938 C120.545,201.158 135.517,201.158 144.737,191.938 L239.144,97.5313 C245.929,90.7458 247.921,80.6413 244.233,71.7907 C240.545,62.9401 231.989,57.1871 222.401,57.1871 L33.5875,57.2608 C24.0731,57.2608 15.4437,63.0137 11.7559,71.8644 C8.06815,80.715 10.1333,90.8195 16.845,97.605 L111.252,192.012 L111.326,191.938"/>
</g>

<g fill="#ffffff" fill-opacity="1" stroke="none" transform="matrix(1,0,0,1,56,4)"
font-family="Inter" font-size="11" font-weight="700" font-style="normal" 
>
</g>

<g fill="#ffffff" fill-opacity="1" stroke="#0da6c5" stroke-opacity="1" stroke-width="1" stroke-linecap="square" stroke-linejoin="bevel" transform="matrix(1,0,0,1,0,0)"
font-family="Inter" font-size="11" font-weight="700" font-style="normal" 
>
</g>

<g fill="none" stroke="#000000" stroke-opacity="1" stroke-width="1" stroke-linecap="square" stroke-linejoin="bevel" transform="matrix(1,0,0,1,0,0)"
font-family=".AppleSystemUIFont" font-size="13" font-weight="400" font-style="normal" 
>
</g>
</g>
</svg>
