<?xml version="1.0" encoding="UTF-8" standalone="no"?>
<svg width="155.222mm" height="15.5222mm"
 viewBox="0 0 440 44"
 xmlns="http://www.w3.org/2000/svg" xmlns:xlink="http://www.w3.org/1999/xlink" version="1.2" baseProfile="tiny">
<title>Abstract block</title>
<desc>block_hubs_all_motors_port_go_to_relative_position</desc>
<defs>
</defs>
<g fill="none" stroke="black" stroke-width="1" fill-rule="evenodd" stroke-linecap="square" stroke-linejoin="bevel" >

<g fill="none" stroke="#000000" stroke-opacity="1" stroke-width="1" stroke-linecap="square" stroke-linejoin="bevel" transform="matrix(1,0,0,1,0,0)"
font-family=".AppleSystemUIFont" font-size="13" font-weight="400" font-style="normal" 
>
</g>

<g fill="none" stroke="#000000" stroke-opacity="1" stroke-width="1" stroke-linecap="square" stroke-linejoin="bevel" transform="matrix(1,0,0,1,0,0)"
font-family=".AppleSystemUIFont" font-size="13" font-weight="400" font-style="normal" 
>
</g>

<g fill="#0090f5" fill-opacity="1" stroke="#0070ba" stroke-opacity="1" stroke-width="1.2" stroke-linecap="square" stroke-linejoin="bevel" transform="matrix(1,0,0,1,0,0)"
font-family=".AppleSystemUIFont" font-size="13" font-weight="400" font-style="normal" 
>
<path vector-effect="none" fill-rule="evenodd" d="M0.5,4.5 L1.04612,2.48112 L2.48112,1.04612 L4.5,0.5 L9.625,0.5 L10.416,0.976563 L11.1719,1.6875 L11.998,2.67969 L13,4 L13.7559,4.66016 L14.5469,5.15625 L15.4082,5.51172 L16.375,5.75 L17.4824,5.89453 L18.7656,5.96875 L20.2598,5.99609 L22,6 L23.7402,5.99609 L25.2344,5.96875 L26.5176,5.89453 L27.625,5.75 L28.5918,5.51172 L29.4531,5.15625 L30.2441,4.66016 L31,4 L32.002,2.67969 L32.8281,1.6875 L33.584,0.976563 L34.375,0.5 L434.8,0.5 L436.819,1.04612 L438.254,2.48112 L438.8,4.5 L438.8,31.5 L438.254,33.5189 L436.819,34.9539 L434.8,35.5 L34.375,35.5 L33.584,35.9766 L32.8281,36.6875 L32.002,37.6797 L31,39 L30.2441,39.6602 L29.4531,40.1563 L28.5918,40.5117 L27.625,40.75 L26.5176,40.8945 L25.2344,40.9688 L23.7402,40.9961 L22,41 L20.2598,40.9961 L18.7656,40.9688 L17.4824,40.8945 L16.375,40.75 L15.4082,40.5117 L14.5469,40.1563 L13.7559,39.6602 L13,39 L11.998,37.6797 L11.1719,36.6875 L10.416,35.9766 L9.625,35.5 L4.5,35.5 L2.48112,34.9539 L1.04612,33.5189 L0.5,31.5 L0.5,4.5"/>
</g>

<g fill="#ffffff" fill-opacity="1" stroke="none" transform="matrix(1,0,0,1,0,0)"
font-family="Inter" font-size="11" font-weight="700" font-style="normal" 
>
<path vector-effect="none" fill-rule="nonzero" d="M183.883,23.375 C183.344,23.375 182.882,23.3014 182.498,23.1543 C182.114,23.0072 181.809,22.8073 181.582,22.5547 C181.355,22.3021 181.208,22.0182 181.141,21.7031 L182.68,21.4961 C182.727,21.6159 182.801,21.7279 182.902,21.832 C183.004,21.9362 183.139,22.0202 183.307,22.084 C183.475,22.1478 183.68,22.1797 183.922,22.1797 C184.284,22.1797 184.583,22.0918 184.818,21.916 C185.054,21.7402 185.172,21.4466 185.172,21.0352 L185.172,19.9375 L185.102,19.9375 C185.029,20.1042 184.919,20.2617 184.773,20.4102 C184.628,20.5586 184.44,20.6797 184.211,20.7734 C183.982,20.8672 183.708,20.9141 183.391,20.9141 C182.94,20.9141 182.531,20.8092 182.162,20.5996 C181.794,20.39 181.501,20.0684 181.283,19.6348 C181.066,19.2012 180.957,18.6523 180.957,17.9883 C180.957,17.3086 181.068,16.7409 181.289,16.2852 C181.51,15.8294 181.805,15.4883 182.174,15.2617 C182.542,15.0352 182.947,14.9219 183.387,14.9219 C183.723,14.9219 184.004,14.9785 184.23,15.0918 C184.457,15.2051 184.64,15.3457 184.779,15.5137 C184.919,15.6816 185.026,15.8464 185.102,16.0078 L185.164,16.0078 L185.164,15 L186.816,15 L186.816,21.0586 C186.816,21.569 186.691,21.9961 186.441,22.3398 C186.191,22.6836 185.846,22.9421 185.404,23.1152 C184.963,23.2884 184.456,23.375 183.883,23.375 M183.918,19.6641 C184.186,19.6641 184.413,19.597 184.6,19.4629 C184.786,19.3288 184.929,19.1361 185.029,18.8848 C185.13,18.6335 185.18,18.332 185.18,17.9805 C185.18,17.6289 185.13,17.3236 185.031,17.0645 C184.932,16.8053 184.789,16.6042 184.602,16.4609 C184.414,16.3177 184.186,16.2461 183.918,16.2461 C183.645,16.2461 183.414,16.3197 183.227,16.4668 C183.039,16.6139 182.897,16.8177 182.801,17.0781 C182.704,17.3385 182.656,17.6393 182.656,17.9805 C182.656,18.3268 182.705,18.6257 182.803,18.877 C182.9,19.1283 183.042,19.3223 183.229,19.459 C183.415,19.5957 183.645,19.6641 183.918,19.6641 M190.844,21.1172 C190.237,21.1172 189.713,20.9876 189.271,20.7285 C188.83,20.4694 188.49,20.1074 188.25,19.6426 C188.01,19.1777 187.891,18.638 187.891,18.0234 C187.891,17.4036 188.01,16.8613 188.25,16.3965 C188.49,15.9316 188.83,15.5697 189.271,15.3105 C189.713,15.0514 190.237,14.9219 190.844,14.9219 C191.451,14.9219 191.975,15.0514 192.416,15.3105 C192.857,15.5697 193.198,15.9316 193.438,16.3965 C193.677,16.8613 193.797,17.4036 193.797,18.0234 C193.797,18.638 193.677,19.1777 193.438,19.6426 C193.198,20.1074 192.857,20.4694 192.416,20.7285 C191.975,20.9876 191.451,21.1172 190.844,21.1172 M190.852,19.8281 C191.128,19.8281 191.358,19.7493 191.543,19.5918 C191.728,19.4342 191.868,19.2188 191.963,18.9453 C192.058,18.6719 192.105,18.3607 192.105,18.0117 C192.105,17.6628 192.058,17.3516 191.963,17.0781 C191.868,16.8047 191.728,16.5885 191.543,16.4297 C191.358,16.2708 191.128,16.1914 190.852,16.1914 C190.573,16.1914 190.339,16.2708 190.15,16.4297 C189.962,16.5885 189.82,16.8047 189.725,17.0781 C189.63,17.3516 189.582,17.6628 189.582,18.0117 C189.582,18.3607 189.63,18.6719 189.725,18.9453 C189.82,19.2188 189.962,19.4342 190.15,19.5918 C190.339,19.7493 190.573,19.8281 190.852,19.8281 M200.621,15 L200.621,16.25 L197.008,16.25 L197.008,15 L200.621,15 M197.828,13.5625 L199.492,13.5625 L199.492,19.1563 C199.492,19.3099 199.516,19.429 199.563,19.5137 C199.609,19.5983 199.675,19.6576 199.76,19.6914 C199.844,19.7253 199.943,19.7422 200.055,19.7422 C200.133,19.7422 200.211,19.735 200.289,19.7207 C200.367,19.7064 200.427,19.6953 200.469,19.6875 L200.73,20.9258 C200.647,20.9518 200.53,20.9824 200.379,21.0176 C200.228,21.0527 200.044,21.0742 199.828,21.082 C199.427,21.0977 199.076,21.0443 198.775,20.9219 C198.475,20.7995 198.241,20.6094 198.074,20.3516 C197.908,20.0938 197.826,19.7682 197.828,19.375 L197.828,13.5625 M204.344,21.1172 C203.737,21.1172 203.213,20.9876 202.771,20.7285 C202.33,20.4694 201.99,20.1074 201.75,19.6426 C201.51,19.1777 201.391,18.638 201.391,18.0234 C201.391,17.4036 201.51,16.8613 201.75,16.3965 C201.99,15.9316 202.33,15.5697 202.771,15.3105 C203.213,15.0514 203.737,14.9219 204.344,14.9219 C204.951,14.9219 205.475,15.0514 205.916,15.3105 C206.357,15.5697 206.698,15.9316 206.938,16.3965 C207.177,16.8613 207.297,17.4036 207.297,18.0234 C207.297,18.638 207.177,19.1777 206.938,19.6426 C206.698,20.1074 206.357,20.4694 205.916,20.7285 C205.475,20.9876 204.951,21.1172 204.344,21.1172 M204.352,19.8281 C204.628,19.8281 204.858,19.7493 205.043,19.5918 C205.228,19.4342 205.368,19.2188 205.463,18.9453 C205.558,18.6719 205.605,18.3607 205.605,18.0117 C205.605,17.6628 205.558,17.3516 205.463,17.0781 C205.368,16.8047 205.228,16.5885 205.043,16.4297 C204.858,16.2708 204.628,16.1914 204.352,16.1914 C204.073,16.1914 203.839,16.2708 203.65,16.4297 C203.462,16.5885 203.32,16.8047 203.225,17.0781 C203.13,17.3516 203.082,17.6628 203.082,18.0117 C203.082,18.3607 203.13,18.6719 203.225,18.9453 C203.32,19.2188 203.462,19.4342 203.65,19.5918 C203.839,19.7493 204.073,19.8281 204.352,19.8281 M210.93,21 L210.93,15 L212.543,15 L212.543,16.0469 L212.605,16.0469 C212.715,15.6745 212.898,15.3926 213.156,15.2012 C213.414,15.0098 213.711,14.9141 214.047,14.9141 C214.13,14.9141 214.22,14.9193 214.316,14.9297 C214.413,14.9401 214.497,14.9544 214.57,14.9727 L214.57,16.4492 C214.492,16.4258 214.384,16.4049 214.246,16.3867 C214.108,16.3685 213.982,16.3594 213.867,16.3594 C213.622,16.3594 213.404,16.4121 213.213,16.5176 C213.021,16.623 212.87,16.7695 212.76,16.957 C212.649,17.1445 212.594,17.3607 212.594,17.6055 L212.594,21 L210.93,21 M217.867,21.1172 C217.25,21.1172 216.719,20.9915 216.275,20.7402 C215.831,20.4889 215.49,20.1322 215.25,19.6699 C215.01,19.2077 214.891,18.6602 214.891,18.0273 C214.891,17.4102 215.01,16.8685 215.25,16.4023 C215.49,15.9362 215.827,15.5729 216.264,15.3125 C216.7,15.0521 217.212,14.9219 217.801,14.9219 C218.197,14.9219 218.566,14.985 218.908,15.1113 C219.251,15.2376 219.55,15.4271 219.807,15.6797 C220.063,15.9323 220.263,16.2493 220.406,16.6309 C220.549,17.0124 220.621,17.4583 220.621,17.9688 L220.621,18.4258 L215.555,18.4258 L215.555,17.3945 L219.055,17.3945 C219.055,17.1549 219.003,16.9427 218.898,16.7578 C218.794,16.5729 218.65,16.4277 218.467,16.3223 C218.283,16.2168 218.07,16.1641 217.828,16.1641 C217.576,16.1641 217.352,16.222 217.158,16.3379 C216.964,16.4538 216.813,16.6087 216.703,16.8027 C216.594,16.9967 216.538,17.2122 216.535,17.4492 L216.535,18.4297 C216.535,18.7266 216.59,18.9831 216.701,19.1992 C216.812,19.4154 216.969,19.582 217.172,19.6992 C217.375,19.8164 217.616,19.875 217.895,19.875 C218.079,19.875 218.249,19.849 218.402,19.7969 C218.556,19.7448 218.688,19.6667 218.797,19.5625 C218.906,19.4583 218.99,19.3307 219.047,19.1797 L220.586,19.2813 C220.508,19.651 220.348,19.9733 220.107,20.248 C219.867,20.5228 219.557,20.7363 219.178,20.8887 C218.799,21.041 218.362,21.1172 217.867,21.1172 M223.359,13 L223.359,21 L221.695,21 L221.695,13 L223.359,13 M226.391,21.1133 C226.008,21.1133 225.667,21.0462 225.367,20.9121 C225.068,20.778 224.831,20.5788 224.658,20.3145 C224.485,20.0501 224.398,19.7201 224.398,19.3242 C224.398,18.9909 224.46,18.7109 224.582,18.4844 C224.704,18.2578 224.871,18.0755 225.082,17.9375 C225.293,17.7995 225.533,17.6953 225.803,17.625 C226.072,17.5547 226.355,17.5052 226.652,17.4766 C227.001,17.4401 227.283,17.4056 227.496,17.373 C227.71,17.3405 227.865,17.2917 227.961,17.2266 C228.057,17.1615 228.105,17.0651 228.105,16.9375 L228.105,16.9141 C228.105,16.6667 228.028,16.4753 227.873,16.3398 C227.718,16.2044 227.499,16.1367 227.215,16.1367 C226.915,16.1367 226.677,16.2025 226.5,16.334 C226.323,16.4655 226.206,16.6302 226.148,16.8281 L224.609,16.7031 C224.688,16.3385 224.841,16.0228 225.07,15.7559 C225.299,15.4889 225.596,15.2832 225.959,15.1387 C226.322,14.9941 226.743,14.9219 227.223,14.9219 C227.556,14.9219 227.876,14.9609 228.182,15.0391 C228.488,15.1172 228.76,15.2383 228.998,15.4023 C229.236,15.5664 229.424,15.7767 229.563,16.0332 C229.701,16.2897 229.77,16.5964 229.77,16.9531 L229.77,21 L228.191,21 L228.191,20.168 L228.145,20.168 C228.048,20.3555 227.919,20.5202 227.758,20.6621 C227.596,20.804 227.402,20.9147 227.176,20.9941 C226.949,21.0736 226.688,21.1133 226.391,21.1133 M226.867,19.9648 C227.112,19.9648 227.328,19.916 227.516,19.8184 C227.703,19.7207 227.85,19.5885 227.957,19.4219 C228.064,19.2552 228.117,19.0664 228.117,18.8555 L228.117,18.2188 C228.065,18.2526 227.994,18.2832 227.904,18.3105 C227.814,18.3379 227.714,18.3626 227.602,18.3848 C227.49,18.4069 227.378,18.4264 227.266,18.4434 C227.154,18.4603 227.052,18.4753 226.961,18.4883 C226.766,18.5169 226.595,18.5625 226.449,18.625 C226.303,18.6875 226.19,18.7715 226.109,18.877 C226.029,18.9824 225.988,19.1133 225.988,19.2695 C225.988,19.4961 226.071,19.6686 226.236,19.7871 C226.402,19.9056 226.612,19.9648 226.867,19.9648 M234.246,15 L234.246,16.25 L230.633,16.25 L230.633,15 L234.246,15 M231.453,13.5625 L233.117,13.5625 L233.117,19.1563 C233.117,19.3099 233.141,19.429 233.188,19.5137 C233.234,19.5983 233.3,19.6576 233.385,19.6914 C233.469,19.7253 233.568,19.7422 233.68,19.7422 C233.758,19.7422 233.836,19.735 233.914,19.7207 C233.992,19.7064 234.052,19.6953 234.094,19.6875 L234.355,20.9258 C234.272,20.9518 234.155,20.9824 234.004,21.0176 C233.853,21.0527 233.669,21.0742 233.453,21.082 C233.052,21.0977 232.701,21.0443 232.4,20.9219 C232.1,20.7995 231.866,20.6094 231.699,20.3516 C231.533,20.0938 231.451,19.7682 231.453,19.375 L231.453,13.5625 M235.32,21 L235.32,15 L236.984,15 L236.984,21 L235.32,21 M236.156,14.2266 C235.909,14.2266 235.697,14.1439 235.521,13.9785 C235.346,13.8132 235.258,13.6146 235.258,13.3828 C235.258,13.1536 235.346,12.9564 235.521,12.791 C235.697,12.6257 235.909,12.543 236.156,12.543 C236.404,12.543 236.615,12.6257 236.791,12.791 C236.967,12.9564 237.055,13.1536 237.055,13.3828 C237.055,13.6146 236.967,13.8132 236.791,13.9785 C236.615,14.1439 236.404,14.2266 236.156,14.2266 M243.898,15 L241.801,21 L239.926,21 L237.828,15 L239.586,15 L240.832,19.293 L240.895,19.293 L242.137,15 L243.898,15 M247.273,21.1172 C246.656,21.1172 246.126,20.9915 245.682,20.7402 C245.238,20.4889 244.896,20.1322 244.656,19.6699 C244.417,19.2077 244.297,18.6602 244.297,18.0273 C244.297,17.4102 244.417,16.8685 244.656,16.4023 C244.896,15.9362 245.234,15.5729 245.67,15.3125 C246.106,15.0521 246.618,14.9219 247.207,14.9219 C247.603,14.9219 247.972,14.985 248.314,15.1113 C248.657,15.2376 248.956,15.4271 249.213,15.6797 C249.469,15.9323 249.669,16.2493 249.813,16.6309 C249.956,17.0124 250.027,17.4583 250.027,17.9688 L250.027,18.4258 L244.961,18.4258 L244.961,17.3945 L248.461,17.3945 C248.461,17.1549 248.409,16.9427 248.305,16.7578 C248.201,16.5729 248.057,16.4277 247.873,16.3223 C247.689,16.2168 247.477,16.1641 247.234,16.1641 C246.982,16.1641 246.758,16.222 246.564,16.3379 C246.37,16.4538 246.219,16.6087 246.109,16.8027 C246,16.9967 245.944,17.2122 245.941,17.4492 L245.941,18.4297 C245.941,18.7266 245.997,18.9831 246.107,19.1992 C246.218,19.4154 246.375,19.582 246.578,19.6992 C246.781,19.8164 247.022,19.875 247.301,19.875 C247.486,19.875 247.655,19.849 247.809,19.7969 C247.962,19.7448 248.094,19.6667 248.203,19.5625 C248.313,19.4583 248.396,19.3307 248.453,19.1797 L249.992,19.2813 C249.914,19.651 249.755,19.9733 249.514,20.248 C249.273,20.5228 248.963,20.7363 248.584,20.8887 C248.205,21.041 247.768,21.1172 247.273,21.1172 M253.648,23.25 L253.648,15 L255.289,15 L255.289,16.0078 L255.363,16.0078 C255.436,15.8464 255.542,15.6816 255.682,15.5137 C255.821,15.3457 256.003,15.2051 256.229,15.0918 C256.454,14.9785 256.734,14.9219 257.07,14.9219 C257.508,14.9219 257.911,15.0358 258.281,15.2637 C258.651,15.4915 258.947,15.834 259.168,16.291 C259.389,16.748 259.5,17.3203 259.5,18.0078 C259.5,18.6771 259.393,19.2415 259.178,19.7012 C258.963,20.1608 258.671,20.5085 258.303,20.7441 C257.934,20.9798 257.522,21.0977 257.066,21.0977 C256.743,21.0977 256.469,21.0443 256.244,20.9375 C256.019,20.8307 255.835,20.696 255.691,20.5332 C255.548,20.3704 255.439,20.2057 255.363,20.0391 L255.313,20.0391 L255.313,23.25 L253.648,23.25 M255.277,18 C255.277,18.3568 255.327,18.668 255.426,18.9336 C255.525,19.1992 255.668,19.4056 255.855,19.5527 C256.043,19.6999 256.271,19.7734 256.539,19.7734 C256.81,19.7734 257.039,19.6986 257.227,19.5488 C257.414,19.3991 257.557,19.1908 257.654,18.9238 C257.752,18.6569 257.801,18.349 257.801,18 C257.801,17.6536 257.753,17.349 257.656,17.0859 C257.56,16.8229 257.418,16.6172 257.23,16.4688 C257.043,16.3203 256.813,16.2461 256.539,16.2461 C256.268,16.2461 256.04,16.3177 255.854,16.4609 C255.667,16.6042 255.525,16.8073 255.426,17.0703 C255.327,17.3333 255.277,17.6432 255.277,18 M263.313,21.1172 C262.706,21.1172 262.182,20.9876 261.74,20.7285 C261.299,20.4694 260.958,20.1074 260.719,19.6426 C260.479,19.1777 260.359,18.638 260.359,18.0234 C260.359,17.4036 260.479,16.8613 260.719,16.3965 C260.958,15.9316 261.299,15.5697 261.74,15.3105 C262.182,15.0514 262.706,14.9219 263.313,14.9219 C263.919,14.9219 264.443,15.0514 264.885,15.3105 C265.326,15.5697 265.667,15.9316 265.906,16.3965 C266.146,16.8613 266.266,17.4036 266.266,18.0234 C266.266,18.638 266.146,19.1777 265.906,19.6426 C265.667,20.1074 265.326,20.4694 264.885,20.7285 C264.443,20.9876 263.919,21.1172 263.313,21.1172 M263.32,19.8281 C263.596,19.8281 263.827,19.7493 264.012,19.5918 C264.197,19.4342 264.337,19.2188 264.432,18.9453 C264.527,18.6719 264.574,18.3607 264.574,18.0117 C264.574,17.6628 264.527,17.3516 264.432,17.0781 C264.337,16.8047 264.197,16.5885 264.012,16.4297 C263.827,16.2708 263.596,16.1914 263.32,16.1914 C263.042,16.1914 262.808,16.2708 262.619,16.4297 C262.43,16.5885 262.288,16.8047 262.193,17.0781 C262.098,17.3516 262.051,17.6628 262.051,18.0117 C262.051,18.3607 262.098,18.6719 262.193,18.9453 C262.288,19.2188 262.43,19.4342 262.619,19.5918 C262.808,19.7493 263.042,19.8281 263.32,19.8281 M272.344,16.7109 L270.82,16.8047 C270.794,16.6745 270.738,16.5566 270.652,16.4512 C270.566,16.3457 270.454,16.2611 270.314,16.1973 C270.175,16.1335 270.009,16.1016 269.816,16.1016 C269.559,16.1016 269.341,16.1556 269.164,16.2637 C268.987,16.3717 268.898,16.5156 268.898,16.6953 C268.898,16.8385 268.956,16.9596 269.07,17.0586 C269.185,17.1576 269.382,17.237 269.66,17.2969 L270.746,17.5156 C271.329,17.6354 271.764,17.8281 272.051,18.0938 C272.337,18.3594 272.48,18.7083 272.48,19.1406 C272.48,19.5339 272.365,19.8789 272.135,20.1758 C271.904,20.4727 271.589,20.7038 271.189,20.8691 C270.79,21.0345 270.329,21.1172 269.809,21.1172 C269.014,21.1172 268.382,20.9512 267.912,20.6191 C267.442,20.2871 267.167,19.8346 267.086,19.2617 L268.723,19.1758 C268.772,19.418 268.892,19.6022 269.082,19.7285 C269.272,19.8548 269.516,19.918 269.813,19.918 C270.104,19.918 270.339,19.8613 270.518,19.748 C270.696,19.6348 270.786,19.4883 270.789,19.3086 C270.786,19.1576 270.723,19.0332 270.598,18.9355 C270.473,18.8379 270.28,18.763 270.02,18.7109 L268.98,18.5039 C268.395,18.3867 267.959,18.1836 267.674,17.8945 C267.389,17.6055 267.246,17.237 267.246,16.7891 C267.246,16.4036 267.351,16.0716 267.561,15.793 C267.77,15.5143 268.066,15.2995 268.447,15.1484 C268.829,14.9974 269.276,14.9219 269.789,14.9219 C270.547,14.9219 271.144,15.082 271.58,15.4023 C272.016,15.7227 272.271,16.1589 272.344,16.7109 M273.523,21 L273.523,15 L275.188,15 L275.188,21 L273.523,21 M274.359,14.2266 C274.112,14.2266 273.9,14.1439 273.725,13.9785 C273.549,13.8132 273.461,13.6146 273.461,13.3828 C273.461,13.1536 273.549,12.9564 273.725,12.791 C273.9,12.6257 274.112,12.543 274.359,12.543 C274.607,12.543 274.818,12.6257 274.994,12.791 C275.17,12.9564 275.258,13.1536 275.258,13.3828 C275.258,13.6146 275.17,13.8132 274.994,13.9785 C274.818,14.1439 274.607,14.2266 274.359,14.2266 M279.699,15 L279.699,16.25 L276.086,16.25 L276.086,15 L279.699,15 M276.906,13.5625 L278.57,13.5625 L278.57,19.1563 C278.57,19.3099 278.594,19.429 278.641,19.5137 C278.688,19.5983 278.753,19.6576 278.838,19.6914 C278.923,19.7253 279.021,19.7422 279.133,19.7422 C279.211,19.7422 279.289,19.735 279.367,19.7207 C279.445,19.7064 279.505,19.6953 279.547,19.6875 L279.809,20.9258 C279.725,20.9518 279.608,20.9824 279.457,21.0176 C279.306,21.0527 279.122,21.0742 278.906,21.082 C278.505,21.0977 278.154,21.0443 277.854,20.9219 C277.553,20.7995 277.319,20.6094 277.152,20.3516 C276.986,20.0938 276.904,19.7682 276.906,19.375 L276.906,13.5625 M280.773,21 L280.773,15 L282.438,15 L282.438,21 L280.773,21 M281.609,14.2266 C281.362,14.2266 281.15,14.1439 280.975,13.9785 C280.799,13.8132 280.711,13.6146 280.711,13.3828 C280.711,13.1536 280.799,12.9564 280.975,12.791 C281.15,12.6257 281.362,12.543 281.609,12.543 C281.857,12.543 282.068,12.6257 282.244,12.791 C282.42,12.9564 282.508,13.1536 282.508,13.3828 C282.508,13.6146 282.42,13.8132 282.244,13.9785 C282.068,14.1439 281.857,14.2266 281.609,14.2266 M286.469,21.1172 C285.862,21.1172 285.338,20.9876 284.896,20.7285 C284.455,20.4694 284.115,20.1074 283.875,19.6426 C283.635,19.1777 283.516,18.638 283.516,18.0234 C283.516,17.4036 283.635,16.8613 283.875,16.3965 C284.115,15.9316 284.455,15.5697 284.896,15.3105 C285.338,15.0514 285.862,14.9219 286.469,14.9219 C287.076,14.9219 287.6,15.0514 288.041,15.3105 C288.482,15.5697 288.823,15.9316 289.063,16.3965 C289.302,16.8613 289.422,17.4036 289.422,18.0234 C289.422,18.638 289.302,19.1777 289.063,19.6426 C288.823,20.1074 288.482,20.4694 288.041,20.7285 C287.6,20.9876 287.076,21.1172 286.469,21.1172 M286.477,19.8281 C286.753,19.8281 286.983,19.7493 287.168,19.5918 C287.353,19.4342 287.493,19.2188 287.588,18.9453 C287.683,18.6719 287.73,18.3607 287.73,18.0117 C287.73,17.6628 287.683,17.3516 287.588,17.0781 C287.493,16.8047 287.353,16.5885 287.168,16.4297 C286.983,16.2708 286.753,16.1914 286.477,16.1914 C286.198,16.1914 285.964,16.2708 285.775,16.4297 C285.587,16.5885 285.445,16.8047 285.35,17.0781 C285.255,17.3516 285.207,17.6628 285.207,18.0117 C285.207,18.3607 285.255,18.6719 285.35,18.9453 C285.445,19.2188 285.587,19.4342 285.775,19.5918 C285.964,19.7493 286.198,19.8281 286.477,19.8281 M292.172,17.5313 L292.172,21 L290.508,21 L290.508,15 L292.094,15 L292.094,16.0586 L292.164,16.0586 C292.297,15.7096 292.52,15.4329 292.832,15.2285 C293.145,15.0241 293.523,14.9219 293.969,14.9219 C294.385,14.9219 294.749,15.013 295.059,15.1953 C295.368,15.3776 295.609,15.6374 295.781,15.9746 C295.953,16.3118 296.039,16.7135 296.039,17.1797 L296.039,21 L294.375,21 L294.375,17.4766 C294.378,17.1094 294.284,16.8223 294.094,16.6152 C293.904,16.4082 293.642,16.3047 293.309,16.3047 C293.085,16.3047 292.887,16.3529 292.717,16.4492 C292.546,16.5456 292.413,16.6855 292.318,16.8691 C292.223,17.0527 292.174,17.2734 292.172,17.5313 "/>
</g>

<g fill="#ffffff" fill-opacity="1" stroke="none" transform="matrix(1,0,0,1,0,0)"
font-family="Inter" font-size="11" font-weight="700" font-style="normal" 
>
<path vector-effect="none" fill-rule="nonzero" d="M336.219,21.5664 C335.836,21.5664 335.495,21.4993 335.195,21.3652 C334.896,21.2311 334.66,21.0319 334.486,20.7676 C334.313,20.5033 334.227,20.1732 334.227,19.7773 C334.227,19.444 334.288,19.1641 334.41,18.9375 C334.533,18.7109 334.699,18.5286 334.91,18.3906 C335.121,18.2526 335.361,18.1484 335.631,18.0781 C335.9,18.0078 336.184,17.9583 336.48,17.9297 C336.829,17.8932 337.111,17.8587 337.324,17.8262 C337.538,17.7936 337.693,17.7448 337.789,17.6797 C337.885,17.6146 337.934,17.5182 337.934,17.3906 L337.934,17.3672 C337.934,17.1198 337.856,16.9284 337.701,16.793 C337.546,16.6576 337.327,16.5898 337.043,16.5898 C336.743,16.5898 336.505,16.6556 336.328,16.7871 C336.151,16.9186 336.034,17.0833 335.977,17.2813 L334.438,17.1563 C334.516,16.7917 334.669,16.4759 334.898,16.209 C335.128,15.9421 335.424,15.7363 335.787,15.5918 C336.15,15.4473 336.572,15.375 337.051,15.375 C337.384,15.375 337.704,15.4141 338.01,15.4922 C338.316,15.5703 338.588,15.6914 338.826,15.8555 C339.064,16.0195 339.253,16.2298 339.391,16.4863 C339.529,16.7428 339.598,17.0495 339.598,17.4063 L339.598,21.4531 L338.02,21.4531 L338.02,20.6211 L337.973,20.6211 C337.876,20.8086 337.747,20.9733 337.586,21.1152 C337.424,21.2572 337.23,21.3678 337.004,21.4473 C336.777,21.5267 336.516,21.5664 336.219,21.5664 M336.695,20.418 C336.94,20.418 337.156,20.3691 337.344,20.2715 C337.531,20.1738 337.678,20.0417 337.785,19.875 C337.892,19.7083 337.945,19.5195 337.945,19.3086 L337.945,18.6719 C337.893,18.7057 337.822,18.7363 337.732,18.7637 C337.643,18.791 337.542,18.8158 337.43,18.8379 C337.318,18.86 337.206,18.8796 337.094,18.8965 C336.982,18.9134 336.88,18.9284 336.789,18.9414 C336.594,18.9701 336.423,19.0156 336.277,19.0781 C336.132,19.1406 336.018,19.2246 335.938,19.3301 C335.857,19.4355 335.816,19.5664 335.816,19.7227 C335.816,19.9492 335.899,20.1217 336.064,20.2402 C336.23,20.3587 336.44,20.418 336.695,20.418 M344.074,15.4531 L344.074,16.7031 L340.461,16.7031 L340.461,15.4531 L344.074,15.4531 M341.281,14.0156 L342.945,14.0156 L342.945,19.6094 C342.945,19.763 342.969,19.8822 343.016,19.9668 C343.063,20.0514 343.128,20.1107 343.213,20.1445 C343.298,20.1784 343.396,20.1953 343.508,20.1953 C343.586,20.1953 343.664,20.1882 343.742,20.1738 C343.82,20.1595 343.88,20.1484 343.922,20.1406 L344.184,21.3789 C344.1,21.4049 343.983,21.4355 343.832,21.4707 C343.681,21.5059 343.497,21.5273 343.281,21.5352 C342.88,21.5508 342.529,21.4974 342.229,21.375 C341.928,21.2526 341.694,21.0625 341.527,20.8047 C341.361,20.5469 341.279,20.2214 341.281,19.8281 L341.281,14.0156"/>
</g>

<g fill="#ffffff" fill-opacity="1" stroke="none" transform="matrix(1,0,0,1,0,0)"
font-family="Inter" font-size="11" font-weight="700" font-style="normal" 
>
<path vector-effect="none" fill-rule="nonzero" d="M386.934,19.4688 L386.934,19.0469 C386.934,18.7266 387.002,18.4316 387.139,18.1621 C387.275,17.8926 387.475,17.6764 387.736,17.5137 C387.998,17.3509 388.318,17.2695 388.695,17.2695 C389.078,17.2695 389.4,17.3503 389.662,17.5117 C389.924,17.6732 390.122,17.8887 390.256,18.1582 C390.39,18.4277 390.457,18.724 390.457,19.0469 L390.457,19.4688 C390.457,19.7891 390.389,20.084 390.254,20.3535 C390.118,20.623 389.919,20.8392 389.656,21.002 C389.393,21.1647 389.073,21.2461 388.695,21.2461 C388.313,21.2461 387.991,21.1647 387.73,21.002 C387.47,20.8392 387.272,20.623 387.137,20.3535 C387.001,20.084 386.934,19.7891 386.934,19.4688 M388.07,19.0469 L388.07,19.4688 C388.07,19.6536 388.115,19.8281 388.205,19.9922 C388.295,20.1563 388.458,20.2383 388.695,20.2383 C388.932,20.2383 389.094,20.1576 389.182,19.9961 C389.269,19.8346 389.313,19.6589 389.313,19.4688 L389.313,19.0469 C389.313,18.8568 389.271,18.6797 389.188,18.5156 C389.104,18.3516 388.94,18.2695 388.695,18.2695 C388.461,18.2695 388.298,18.3516 388.207,18.5156 C388.116,18.6797 388.07,18.8568 388.07,19.0469 M382.828,14.8906 L382.828,14.4688 C382.828,14.1458 382.897,13.8496 383.035,13.5801 C383.173,13.3105 383.373,13.0951 383.635,12.9336 C383.896,12.7721 384.214,12.6914 384.586,12.6914 C384.971,12.6914 385.294,12.7721 385.555,12.9336 C385.815,13.0951 386.013,13.3105 386.148,13.5801 C386.284,13.8496 386.352,14.1458 386.352,14.4688 L386.352,14.8906 C386.352,15.2135 386.283,15.5091 386.146,15.7773 C386.01,16.0456 385.811,16.2598 385.549,16.4199 C385.287,16.5801 384.966,16.6602 384.586,16.6602 C384.206,16.6602 383.885,16.5788 383.623,16.416 C383.361,16.2533 383.163,16.0384 383.029,15.7715 C382.895,15.5046 382.828,15.2109 382.828,14.8906 M383.973,14.4688 L383.973,14.8906 C383.973,15.0807 384.018,15.2565 384.107,15.418 C384.197,15.5794 384.357,15.6602 384.586,15.6602 C384.826,15.6602 384.989,15.5794 385.076,15.418 C385.163,15.2565 385.207,15.0807 385.207,14.8906 L385.207,14.4688 C385.207,14.2786 385.165,14.1016 385.082,13.9375 C384.999,13.7734 384.833,13.6914 384.586,13.6914 C384.354,13.6914 384.194,13.7747 384.105,13.9414 C384.017,14.1081 383.973,14.2839 383.973,14.4688 M383.344,20.9688 L388.844,12.9688 L389.867,12.9688 L384.367,20.9688 L383.344,20.9688 M399.563,16.6797 L398.039,16.7734 C398.013,16.6432 397.957,16.5254 397.871,16.4199 C397.785,16.3145 397.673,16.2298 397.533,16.166 C397.394,16.1022 397.228,16.0703 397.035,16.0703 C396.777,16.0703 396.56,16.1243 396.383,16.2324 C396.206,16.3405 396.117,16.4844 396.117,16.6641 C396.117,16.8073 396.174,16.9284 396.289,17.0273 C396.404,17.1263 396.6,17.2057 396.879,17.2656 L397.965,17.4844 C398.548,17.6042 398.983,17.7969 399.27,18.0625 C399.556,18.3281 399.699,18.6771 399.699,19.1094 C399.699,19.5026 399.584,19.8477 399.354,20.1445 C399.123,20.4414 398.808,20.6725 398.408,20.8379 C398.008,21.0033 397.548,21.0859 397.027,21.0859 C396.233,21.0859 395.601,20.9199 395.131,20.5879 C394.661,20.2559 394.385,19.8034 394.305,19.2305 L395.941,19.1445 C395.991,19.3867 396.111,19.571 396.301,19.6973 C396.491,19.8236 396.734,19.8867 397.031,19.8867 C397.323,19.8867 397.558,19.8301 397.736,19.7168 C397.915,19.6035 398.005,19.457 398.008,19.2773 C398.005,19.1263 397.941,19.002 397.816,18.9043 C397.691,18.8066 397.499,18.7318 397.238,18.6797 L396.199,18.4727 C395.613,18.3555 395.178,18.1523 394.893,17.8633 C394.607,17.5742 394.465,17.2057 394.465,16.7578 C394.465,16.3724 394.57,16.0404 394.779,15.7617 C394.989,15.4831 395.285,15.2682 395.666,15.1172 C396.048,14.9661 396.495,14.8906 397.008,14.8906 C397.766,14.8906 398.363,15.0508 398.799,15.3711 C399.235,15.6914 399.49,16.1276 399.563,16.6797 M400.742,23.2188 L400.742,14.9688 L402.383,14.9688 L402.383,15.9766 L402.457,15.9766 C402.53,15.8151 402.636,15.6504 402.775,15.4824 C402.915,15.3145 403.097,15.1738 403.322,15.0605 C403.548,14.9473 403.828,14.8906 404.164,14.8906 C404.602,14.8906 405.005,15.0046 405.375,15.2324 C405.745,15.4603 406.04,15.8027 406.262,16.2598 C406.483,16.7168 406.594,17.2891 406.594,17.9766 C406.594,18.6458 406.486,19.2103 406.271,19.6699 C406.057,20.1296 405.765,20.4772 405.396,20.7129 C405.028,20.9486 404.616,21.0664 404.16,21.0664 C403.837,21.0664 403.563,21.013 403.338,20.9063 C403.113,20.7995 402.928,20.6647 402.785,20.502 C402.642,20.3392 402.533,20.1745 402.457,20.0078 L402.406,20.0078 L402.406,23.2188 L400.742,23.2188 M402.371,17.9688 C402.371,18.3255 402.421,18.6367 402.52,18.9023 C402.618,19.168 402.762,19.3743 402.949,19.5215 C403.137,19.6686 403.365,19.7422 403.633,19.7422 C403.904,19.7422 404.133,19.6673 404.32,19.5176 C404.508,19.3678 404.65,19.1595 404.748,18.8926 C404.846,18.6257 404.895,18.3177 404.895,17.9688 C404.895,17.6224 404.846,17.3177 404.75,17.0547 C404.654,16.7917 404.512,16.5859 404.324,16.4375 C404.137,16.2891 403.906,16.2148 403.633,16.2148 C403.362,16.2148 403.133,16.2865 402.947,16.4297 C402.761,16.5729 402.618,16.776 402.52,17.0391 C402.421,17.3021 402.371,17.612 402.371,17.9688 M410.43,21.0859 C409.813,21.0859 409.282,20.9603 408.838,20.709 C408.394,20.4577 408.052,20.1009 407.813,19.6387 C407.573,19.1764 407.453,18.6289 407.453,17.9961 C407.453,17.3789 407.573,16.8372 407.813,16.3711 C408.052,15.9049 408.39,15.5417 408.826,15.2813 C409.262,15.0208 409.775,14.8906 410.363,14.8906 C410.759,14.8906 411.128,14.9538 411.471,15.0801 C411.813,15.2064 412.113,15.3958 412.369,15.6484 C412.626,15.901 412.826,16.2181 412.969,16.5996 C413.112,16.9811 413.184,17.4271 413.184,17.9375 L413.184,18.3945 L408.117,18.3945 L408.117,17.3633 L411.617,17.3633 C411.617,17.1237 411.565,16.9115 411.461,16.7266 C411.357,16.5417 411.213,16.3965 411.029,16.291 C410.846,16.1855 410.633,16.1328 410.391,16.1328 C410.138,16.1328 409.915,16.1908 409.721,16.3066 C409.527,16.4225 409.375,16.5775 409.266,16.7715 C409.156,16.9655 409.1,17.181 409.098,17.418 L409.098,18.3984 C409.098,18.6953 409.153,18.9518 409.264,19.168 C409.374,19.3841 409.531,19.5508 409.734,19.668 C409.938,19.7852 410.178,19.8438 410.457,19.8438 C410.642,19.8438 410.811,19.8177 410.965,19.7656 C411.118,19.7135 411.25,19.6354 411.359,19.5313 C411.469,19.4271 411.552,19.2995 411.609,19.1484 L413.148,19.25 C413.07,19.6198 412.911,19.9421 412.67,20.2168 C412.429,20.4915 412.119,20.7051 411.74,20.8574 C411.361,21.0098 410.924,21.0859 410.43,21.0859 M416.992,21.0859 C416.375,21.0859 415.844,20.9603 415.4,20.709 C414.956,20.4577 414.615,20.1009 414.375,19.6387 C414.135,19.1764 414.016,18.6289 414.016,17.9961 C414.016,17.3789 414.135,16.8372 414.375,16.3711 C414.615,15.9049 414.952,15.5417 415.389,15.2813 C415.825,15.0208 416.337,14.8906 416.926,14.8906 C417.322,14.8906 417.691,14.9538 418.033,15.0801 C418.376,15.2064 418.675,15.3958 418.932,15.6484 C419.188,15.901 419.388,16.2181 419.531,16.5996 C419.674,16.9811 419.746,17.4271 419.746,17.9375 L419.746,18.3945 L414.68,18.3945 L414.68,17.3633 L418.18,17.3633 C418.18,17.1237 418.128,16.9115 418.023,16.7266 C417.919,16.5417 417.775,16.3965 417.592,16.291 C417.408,16.1855 417.195,16.1328 416.953,16.1328 C416.701,16.1328 416.477,16.1908 416.283,16.3066 C416.089,16.4225 415.938,16.5775 415.828,16.7715 C415.719,16.9655 415.663,17.181 415.66,17.418 L415.66,18.3984 C415.66,18.6953 415.715,18.9518 415.826,19.168 C415.937,19.3841 416.094,19.5508 416.297,19.668 C416.5,19.7852 416.741,19.8438 417.02,19.8438 C417.204,19.8438 417.374,19.8177 417.527,19.7656 C417.681,19.7135 417.813,19.6354 417.922,19.5313 C418.031,19.4271 418.115,19.2995 418.172,19.1484 L419.711,19.25 C419.633,19.6198 419.473,19.9421 419.232,20.2168 C418.992,20.4915 418.682,20.7051 418.303,20.8574 C417.924,21.0098 417.487,21.0859 416.992,21.0859 M423.031,21.0664 C422.576,21.0664 422.163,20.9486 421.795,20.7129 C421.426,20.4772 421.135,20.1296 420.92,19.6699 C420.705,19.2103 420.598,18.6458 420.598,17.9766 C420.598,17.2891 420.708,16.7168 420.93,16.2598 C421.151,15.8027 421.446,15.4603 421.814,15.2324 C422.183,15.0046 422.587,14.8906 423.027,14.8906 C423.363,14.8906 423.644,14.9473 423.869,15.0605 C424.094,15.1738 424.277,15.3145 424.416,15.4824 C424.555,15.6504 424.661,15.8151 424.734,15.9766 L424.785,15.9766 L424.785,12.9688 L426.445,12.9688 L426.445,20.9688 L424.805,20.9688 L424.805,20.0078 L424.734,20.0078 C424.656,20.1745 424.546,20.3392 424.404,20.502 C424.262,20.6647 424.079,20.7995 423.854,20.9063 C423.628,21.013 423.354,21.0664 423.031,21.0664 M423.559,19.7422 C423.827,19.7422 424.054,19.6686 424.24,19.5215 C424.426,19.3743 424.57,19.168 424.67,18.9023 C424.77,18.6367 424.82,18.3255 424.82,17.9688 C424.82,17.612 424.771,17.3021 424.672,17.0391 C424.573,16.776 424.43,16.5729 424.242,16.4297 C424.055,16.2865 423.827,16.2148 423.559,16.2148 C423.285,16.2148 423.055,16.2891 422.867,16.4375 C422.68,16.5859 422.538,16.7917 422.441,17.0547 C422.345,17.3177 422.297,17.6224 422.297,17.9688 C422.297,18.3177 422.346,18.6257 422.443,18.8926 C422.541,19.1595 422.683,19.3678 422.869,19.5176 C423.055,19.6673 423.285,19.7422 423.559,19.7422 "/>
</g>

<g fill="#ffffff" fill-opacity="1" stroke="none" transform="matrix(0.0285,0,0,0.0285,11.2928,9.44754)"
font-family="Inter" font-size="11" font-weight="700" font-style="normal" 
>
<path vector-effect="none" fill-rule="nonzero" d="M410.778,59.991 C376.729,59.991 346.629,75.6235 326.182,99.684 C216.768,129.689 131.433,215.271 101.927,324.891 C79.5232,345.494 65.3275,374.762 65.54,407.6 C65.7463,439.573 79.3407,468.172 100.975,488.421 C130.228,601.34 218.744,689.335 331.859,718.096 C331.956,718.125 331.989,718.313 332.085,718.338 C352.242,738.376 380.064,750.708 410.778,750.708 C441.492,750.708 469.314,738.376 489.47,718.338 C489.549,718.262 489.618,718.17 489.696,718.096 C604.323,688.948 693.738,598.994 721.758,483.921 C742.939,463.42 756.216,434.907 756.015,403.1 C755.801,370.079 741.086,340.899 718.209,320.633 C687.622,213.077 603.338,129.291 495.373,99.684 C474.926,75.6235 444.827,59.991 410.778,59.991 M410.778,91.8938 C455.052,91.8938 490.89,127.731 490.89,172.006 C490.89,216.28 455.052,252.102 410.778,252.102 C366.503,252.102 330.666,216.28 330.666,172.006 C330.666,127.731 366.503,91.8938 410.778,91.8938 M177.071,325.601 C221.346,325.601 257.183,361.438 257.183,405.713 C257.183,449.987 221.346,485.808 177.071,485.808 C132.796,485.808 96.7332,449.987 96.7332,405.713 C96.7332,361.438 132.796,325.601 177.071,325.601 M644.485,325.601 C688.763,325.601 724.822,361.438 724.822,405.713 C724.822,449.987 688.763,485.808 644.485,485.808 C600.21,485.808 564.373,449.987 564.373,405.713 C564.373,361.438 600.21,325.601 644.485,325.601 M396.601,335.762 L424.955,335.762 C431.754,335.762 437.245,342.538 437.245,350.891 L437.245,381.6 L467.971,381.6 C476.323,381.6 483.083,387.091 483.083,393.89 L483.083,422.245 C483.083,429.044 476.323,434.535 467.971,434.535 L437.245,434.535 L437.245,465.26 C437.245,473.612 431.754,480.373 424.955,480.373 L396.601,480.373 C389.801,480.373 384.31,473.613 384.31,465.26 L384.31,434.535 L353.585,434.535 C345.233,434.535 338.472,429.044 338.472,422.245 L338.472,393.89 C338.472,387.091 345.232,381.6 353.585,381.6 L384.31,381.6 L384.31,350.891 C384.31,342.539 389.801,335.762 396.601,335.762 M410.778,559.307 C455.052,559.307 490.89,595.371 490.89,639.645 C490.89,683.918 455.052,719.757 410.778,719.757 C366.503,719.757 330.666,683.918 330.666,639.645 C330.666,595.371 366.503,559.307 410.778,559.307 "/>
</g>

<g fill="none" stroke="#000000" stroke-opacity="1" stroke-width="22.7975" stroke-linecap="round" stroke-linejoin="round" transform="matrix(0.0285,0,0,0.0285,11.2928,9.44754)"
font-family="Inter" font-size="11" font-weight="700" font-style="normal" 
>
<path vector-effect="none" fill-rule="nonzero" d="M410.778,59.991 C376.729,59.991 346.629,75.6235 326.182,99.684 C216.768,129.689 131.433,215.271 101.927,324.891 C79.5232,345.494 65.3275,374.762 65.54,407.6 C65.7463,439.573 79.3407,468.172 100.975,488.421 C130.228,601.34 218.744,689.335 331.859,718.096 C331.956,718.125 331.989,718.313 332.085,718.338 C352.242,738.376 380.064,750.708 410.778,750.708 C441.492,750.708 469.314,738.376 489.47,718.338 C489.549,718.262 489.618,718.17 489.696,718.096 C604.323,688.948 693.738,598.994 721.758,483.921 C742.939,463.42 756.216,434.907 756.015,403.1 C755.801,370.079 741.086,340.899 718.209,320.633 C687.622,213.077 603.338,129.291 495.373,99.684 C474.926,75.6235 444.827,59.991 410.778,59.991 M410.778,91.8938 C455.052,91.8938 490.89,127.731 490.89,172.006 C490.89,216.28 455.052,252.102 410.778,252.102 C366.503,252.102 330.666,216.28 330.666,172.006 C330.666,127.731 366.503,91.8938 410.778,91.8938 M177.071,325.601 C221.346,325.601 257.183,361.438 257.183,405.713 C257.183,449.987 221.346,485.808 177.071,485.808 C132.796,485.808 96.7332,449.987 96.7332,405.713 C96.7332,361.438 132.796,325.601 177.071,325.601 M644.485,325.601 C688.763,325.601 724.822,361.438 724.822,405.713 C724.822,449.987 688.763,485.808 644.485,485.808 C600.21,485.808 564.373,449.987 564.373,405.713 C564.373,361.438 600.21,325.601 644.485,325.601 M396.601,335.762 L424.955,335.762 C431.754,335.762 437.245,342.538 437.245,350.891 L437.245,381.6 L467.971,381.6 C476.323,381.6 483.083,387.091 483.083,393.89 L483.083,422.245 C483.083,429.044 476.323,434.535 467.971,434.535 L437.245,434.535 L437.245,465.26 C437.245,473.612 431.754,480.373 424.955,480.373 L396.601,480.373 C389.801,480.373 384.31,473.613 384.31,465.26 L384.31,434.535 L353.585,434.535 C345.233,434.535 338.472,429.044 338.472,422.245 L338.472,393.89 C338.472,387.091 345.232,381.6 353.585,381.6 L384.31,381.6 L384.31,350.891 C384.31,342.539 389.801,335.762 396.601,335.762 M410.778,559.307 C455.052,559.307 490.89,595.371 490.89,639.645 C490.89,683.918 455.052,719.757 410.778,719.757 C366.503,719.757 330.666,683.918 330.666,639.645 C330.666,595.371 366.503,559.307 410.778,559.307 "/>
</g>

<g fill="#000000" fill-opacity="1" stroke="none" transform="matrix(0.0285,0,0,0.0285,11.2928,9.44754)"
font-family="Inter" font-size="11" font-weight="700" font-style="normal" 
>
<path vector-effect="none" fill-rule="evenodd" d="M394.961,355.661 C394.961,347.613 401.485,341.088 409.533,341.088 C417.582,341.088 424.106,347.613 424.106,355.661 L424.106,457.48 C424.106,465.528 417.582,472.053 409.533,472.053 C401.485,472.053 394.961,465.528 394.961,457.48 L394.961,355.661"/>
</g>

<g fill="none" stroke="#000000" stroke-opacity="1" stroke-width="20" stroke-linecap="round" stroke-linejoin="round" transform="matrix(0.0285,0,0,0.0285,11.2928,9.44754)"
font-family="Inter" font-size="11" font-weight="700" font-style="normal" 
>
<path vector-effect="none" fill-rule="evenodd" d="M394.961,355.661 C394.961,347.613 401.485,341.088 409.533,341.088 C417.582,341.088 424.106,347.613 424.106,355.661 L424.106,457.48 C424.106,465.528 417.582,472.053 409.533,472.053 C401.485,472.053 394.961,465.528 394.961,457.48 L394.961,355.661"/>
</g>

<g fill="#000000" fill-opacity="1" stroke="none" transform="matrix(0,0.0285,-0.0285,0,11.2928,9.44754)"
font-family="Inter" font-size="11" font-weight="700" font-style="normal" 
>
<path vector-effect="none" fill-rule="evenodd" d="M394.152,-461.016 C394.152,-469.064 400.676,-475.588 408.724,-475.588 C416.773,-475.588 423.297,-469.064 423.297,-461.016 L423.297,-359.196 C423.297,-351.148 416.773,-344.624 408.724,-344.624 C400.676,-344.624 394.152,-351.148 394.152,-359.196 L394.152,-461.016"/>
</g>

<g fill="none" stroke="#000000" stroke-opacity="1" stroke-width="20" stroke-linecap="round" stroke-linejoin="round" transform="matrix(0,0.0285,-0.0285,0,11.2928,9.44754)"
font-family="Inter" font-size="11" font-weight="700" font-style="normal" 
>
<path vector-effect="none" fill-rule="evenodd" d="M394.152,-461.016 C394.152,-469.064 400.676,-475.588 408.724,-475.588 C416.773,-475.588 423.297,-469.064 423.297,-461.016 L423.297,-359.196 C423.297,-351.148 416.773,-344.624 408.724,-344.624 C400.676,-344.624 394.152,-351.148 394.152,-359.196 L394.152,-461.016"/>
</g>

<g fill="#ffffff" fill-opacity="1" stroke="none" transform="matrix(1,0,0,1,0,0)"
font-family="Inter" font-size="11" font-weight="700" font-style="normal" 
>
</g>

<g fill="#ffffff" fill-opacity="1" stroke="#0070ba" stroke-opacity="1" stroke-width="1" stroke-linecap="square" stroke-linejoin="bevel" transform="matrix(1,0,0,1,0,0)"
font-family="Inter" font-size="11" font-weight="700" font-style="normal" 
>
<polyline fill="none" vector-effect="none" points="45,11 45,31 " />
</g>

<g fill="#ffffff" fill-opacity="1" stroke="#0070ba" stroke-opacity="1" stroke-width="1" stroke-linecap="square" stroke-linejoin="bevel" transform="matrix(1,0,0,1,0,0)"
font-family="Inter" font-size="11" font-weight="700" font-style="normal" 
>
</g>

<g fill="#ffffff" fill-opacity="1" stroke="#0070ba" stroke-opacity="1" stroke-width="1" stroke-linecap="square" stroke-linejoin="bevel" transform="matrix(1,0,0,1,0,0)"
font-family="Inter" font-size="11" font-weight="700" font-style="normal" 
>
</g>

<g fill="#ffffff" fill-opacity="1" stroke="#0070ba" stroke-opacity="1" stroke-width="1" stroke-linecap="square" stroke-linejoin="bevel" transform="matrix(1,0,0,1,0,0)"
font-family="Inter" font-size="11" font-weight="700" font-style="normal" 
>
</g>

<g fill="#ffffff" fill-opacity="1" stroke="#0070ba" stroke-opacity="1" stroke-width="1" stroke-linecap="square" stroke-linejoin="bevel" transform="matrix(1,0,0,1,0,0)"
font-family="Inter" font-size="11" font-weight="700" font-style="normal" 
>
</g>

<g fill="#ffffff" fill-opacity="1" stroke="#0064a6" stroke-opacity="1" stroke-width="1.2" stroke-linecap="square" stroke-linejoin="bevel" transform="matrix(1,0,0,1,302,7)"
font-family="Inter" font-size="11" font-weight="700" font-style="normal" 
>
<path vector-effect="none" fill-rule="evenodd" d="M1,11 C1,5.47715 5.92487,1 12,1 L14.4,1 C20.4751,1 25.4,5.47715 25.4,11 C25.4,16.5228 20.4751,21 14.4,21 L12,21 C5.92487,21 1,16.5228 1,11 "/>
</g>

<g fill="#000000" fill-opacity="1" stroke="none" transform="matrix(1,0,0,1,302,7)"
font-family="Inter" font-size="10" font-weight="700" font-style="normal" 
>
<path vector-effect="none" fill-rule="nonzero" d="M12.9411,14.5817 C12.3303,14.5793 11.8053,14.429 11.3661,14.1307 C10.927,13.8324 10.5896,13.4003 10.354,12.8345 C10.1185,12.2687 10.0019,11.5881 10.0043,10.7926 C10.0043,9.99953 10.122,9.32363 10.3576,8.76491 C10.5932,8.2062 10.9305,7.78066 11.3697,7.48828 C11.8088,7.1959 12.3326,7.04972 12.9411,7.04972 C13.5495,7.04972 14.0733,7.1965 14.5124,7.49006 C14.9516,7.78362 15.2895,8.20916 15.5263,8.76669 C15.763,9.32422 15.8802,9.99953 15.8778,10.7926 C15.8778,11.5904 15.7601,12.2723 15.5245,12.8381 C15.2889,13.4039 14.9522,13.8359 14.5142,14.1342 C14.0762,14.4325 13.5518,14.5817 12.9411,14.5817 M12.9411,13.3068 C13.3577,13.3068 13.6903,13.0973 13.9389,12.6783 C14.1875,12.2592 14.3106,11.6307 14.3082,10.7926 C14.3082,10.241 14.252,9.78172 14.1396,9.41477 C14.0271,9.04782 13.8685,8.77202 13.6637,8.58736 C13.4589,8.4027 13.218,8.31037 12.9411,8.31037 C12.5268,8.31037 12.1953,8.51752 11.9467,8.93182 C11.6982,9.34612 11.5727,9.96638 11.5703,10.7926 C11.5703,11.3513 11.6265,11.8171 11.739,12.19 C11.8514,12.5629 12.0107,12.8422 12.2166,13.0281 C12.4226,13.2139 12.6641,13.3068 12.9411,13.3068 "/>
</g>

<g fill="#ffffff" fill-opacity="1" stroke="#0070ba" stroke-opacity="1" stroke-width="1" stroke-linecap="square" stroke-linejoin="bevel" transform="matrix(1,0,0,1,0,0)"
font-family="Inter" font-size="11" font-weight="700" font-style="normal" 
>
</g>

<g fill="#ffffff" fill-opacity="1" stroke="#0064a6" stroke-opacity="1" stroke-width="1.2" stroke-linecap="square" stroke-linejoin="bevel" transform="matrix(1,0,0,1,350.4,7)"
font-family="Inter" font-size="11" font-weight="700" font-style="normal" 
>
<path vector-effect="none" fill-rule="evenodd" d="M1,11 C1,5.47715 5.92487,1 12,1 L14.4,1 C20.4751,1 25.4,5.47715 25.4,11 C25.4,16.5228 20.4751,21 14.4,21 L12,21 C5.92487,21 1,16.5228 1,11 "/>
</g>

<g fill="#000000" fill-opacity="1" stroke="none" transform="matrix(1,0,0,1,350.4,7)"
font-family="Inter" font-size="10" font-weight="700" font-style="normal" 
>
<path vector-effect="none" fill-rule="nonzero" d="M9.69886,14.5213 C9.19697,14.5213 8.75012,14.429 8.35831,14.2443 C7.9665,14.0597 7.65578,13.8052 7.42614,13.4808 C7.1965,13.1565 7.07694,12.7848 7.06747,12.3658 L8.55895,12.3658 C8.57552,12.6475 8.69389,12.8759 8.91406,13.0511 C9.13423,13.2263 9.39583,13.3139 9.69886,13.3139 C9.94034,13.3139 10.154,13.2601 10.3398,13.1523 C10.5257,13.0446 10.6713,12.8943 10.7766,12.7013 C10.882,12.5084 10.9347,12.2865 10.9347,12.0355 C10.9347,11.7798 10.8808,11.5549 10.7731,11.3608 C10.6654,11.1667 10.5168,11.0152 10.3274,10.9063 C10.138,10.7973 9.9214,10.7417 9.67756,10.7393 C9.46449,10.7393 9.25793,10.7831 9.05788,10.8707 C8.85784,10.9583 8.70218,11.0779 8.59091,11.2294 L7.22372,10.9844 L7.56818,7.14915 L12.0142,7.14915 L12.0142,8.40625 L8.83594,8.40625 L8.64773,10.228 L8.69034,10.228 C8.81818,10.0481 9.01113,9.89891 9.26918,9.78054 C9.52723,9.66217 9.81605,9.60298 10.1357,9.60298 C10.5736,9.60298 10.9643,9.70597 11.3075,9.91193 C11.6508,10.1179 11.9219,10.4002 12.1207,10.7589 C12.3196,11.1175 12.4179,11.5301 12.4155,11.9964 C12.4179,12.4865 12.3048,12.9215 12.0763,13.3015 C11.8479,13.6815 11.5295,13.9798 11.1211,14.1964 C10.7127,14.413 10.2386,14.5213 9.69886,14.5213 M16.3317,14.5817 C15.7209,14.5793 15.1959,14.429 14.7567,14.1307 C14.3176,13.8324 13.9802,13.4003 13.7447,12.8345 C13.5091,12.2687 13.3925,11.5881 13.3949,10.7926 C13.3949,9.99953 13.5127,9.32363 13.7482,8.76491 C13.9838,8.2062 14.3211,7.78066 14.7603,7.48828 C15.1995,7.1959 15.7232,7.04972 16.3317,7.04972 C16.9401,7.04972 17.4639,7.1965 17.9031,7.49006 C18.3422,7.78362 18.6802,8.20916 18.9169,8.76669 C19.1536,9.32422 19.2708,9.99953 19.2685,10.7926 C19.2685,11.5904 19.1507,12.2723 18.9151,12.8381 C18.6796,13.4039 18.3428,13.8359 17.9048,14.1342 C17.4669,14.4325 16.9425,14.5817 16.3317,14.5817 M16.3317,13.3068 C16.7483,13.3068 17.081,13.0973 17.3295,12.6783 C17.5781,12.2592 17.7012,11.6307 17.6989,10.7926 C17.6989,10.241 17.6426,9.78172 17.5302,9.41477 C17.4177,9.04782 17.2591,8.77202 17.0543,8.58736 C16.8496,8.4027 16.6087,8.31037 16.3317,8.31037 C15.9174,8.31037 15.5859,8.51752 15.3374,8.93182 C15.0888,9.34612 14.9633,9.96638 14.9609,10.7926 C14.9609,11.3513 15.0172,11.8171 15.1296,12.19 C15.2421,12.5629 15.4013,12.8422 15.6072,13.0281 C15.8132,13.2139 16.0547,13.3068 16.3317,13.3068 "/>
</g>

<g fill="#ffffff" fill-opacity="1" stroke="#0070ba" stroke-opacity="1" stroke-width="1" stroke-linecap="square" stroke-linejoin="bevel" transform="matrix(1,0,0,1,0,0)"
font-family="Inter" font-size="11" font-weight="700" font-style="normal" 
>
</g>

<g fill="#0090f5" fill-opacity="1" stroke="#0070ba" stroke-opacity="1" stroke-width="1.2" stroke-linecap="square" stroke-linejoin="bevel" transform="matrix(1,0,0,1,56,6)"
font-family="Inter" font-size="11" font-weight="700" font-style="normal" 
>
<path vector-effect="none" fill-rule="evenodd" d="M0.5,3.5 C0.5,1.84315 1.84315,0.5 3.5,0.5 L71.5,0.5 C73.1569,0.5 74.5,1.84315 74.5,3.5 L74.5,20.5 C74.5,22.1569 73.1569,23.5 71.5,23.5 L3.5,23.5 C1.84315,23.5 0.5,22.1569 0.5,20.5 L0.5,3.5"/>
</g>

<g fill="#ffffff" fill-opacity="1" stroke="none" transform="matrix(1,0,0,1,56,6)"
font-family="Inter" font-size="11" font-weight="700" font-style="normal" 
>
<path vector-effect="none" fill-rule="nonzero" d="M10,9.39453 L10,8 L16.5703,8 L16.5703,9.39453 L14.1211,9.39453 L14.1211,16 L12.4492,16 L12.4492,9.39453 L10,9.39453 M17.6484,16 L17.6484,8 L19.3398,8 L19.3398,11.3008 L22.7734,11.3008 L22.7734,8 L24.4609,8 L24.4609,16 L22.7734,16 L22.7734,12.6953 L19.3398,12.6953 L19.3398,16 L17.6484,16 M32.543,8 L32.543,16 L31.082,16 L27.6016,10.9648 L27.543,10.9648 L27.543,16 L25.8516,16 L25.8516,8 L27.3359,8 L30.7891,13.0313 L30.8594,13.0313 L30.8594,8 L32.543,8 M33.9297,16 L33.9297,8 L35.6211,8 L35.6211,11.3008 L39.0547,11.3008 L39.0547,8 L40.7422,8 L40.7422,16 L39.0547,16 L39.0547,12.6953 L35.6211,12.6953 L35.6211,16 L33.9297,16 M42.1328,16 L42.1328,8 L45.3359,8 C45.9245,8 46.4154,8.08724 46.8086,8.26172 C47.2018,8.4362 47.4974,8.67773 47.6953,8.98633 C47.8932,9.29492 47.9922,9.64974 47.9922,10.0508 C47.9922,10.3633 47.9297,10.6374 47.8047,10.873 C47.6797,11.1087 47.5085,11.3014 47.291,11.4512 C47.0736,11.6009 46.8255,11.707 46.5469,11.7695 L46.5469,11.8477 C46.8516,11.8607 47.1374,11.9466 47.4043,12.1055 C47.6712,12.2643 47.888,12.4863 48.0547,12.7715 C48.2214,13.0566 48.3047,13.3958 48.3047,13.7891 C48.3047,14.2135 48.1999,14.5918 47.9902,14.9238 C47.7806,15.2559 47.4714,15.5182 47.0625,15.7109 C46.6536,15.9036 46.1497,16 45.5508,16 L42.1328,16 M43.8242,14.6172 L45.2031,14.6172 C45.6745,14.6172 46.0182,14.5267 46.2344,14.3457 C46.4505,14.1647 46.5586,13.9232 46.5586,13.6211 C46.5586,13.3997 46.5052,13.2044 46.3984,13.0352 C46.2917,12.8659 46.14,12.7331 45.9434,12.6367 C45.7467,12.5404 45.513,12.4922 45.2422,12.4922 L43.8242,12.4922 L43.8242,14.6172 M43.8242,11.3477 L45.0781,11.3477 C45.3099,11.3477 45.5163,11.3066 45.6973,11.2246 C45.8783,11.1426 46.0215,11.026 46.127,10.875 C46.2324,10.724 46.2852,10.543 46.2852,10.332 C46.2852,10.043 46.1829,9.8099 45.9785,9.63281 C45.7741,9.45573 45.4844,9.36719 45.1094,9.36719 L43.8242,9.36719 L43.8242,11.3477 M52.832,8 L52.832,16 L51.1406,16 L51.1406,9.60547 L51.0938,9.60547 L49.2617,10.7539 L49.2617,9.25391 L51.2422,8 L52.832,8"/>
</g>

<g fill="#ffffff" fill-opacity="1" stroke="none" transform="matrix(0.03125,0,0,0.03125,117,14)"
font-family="Inter" font-size="11" font-weight="700" font-style="normal" 
>
<path vector-effect="none" fill-rule="nonzero" d="M111.326,191.938 C120.545,201.158 135.517,201.158 144.737,191.938 L239.144,97.5313 C245.929,90.7458 247.921,80.6413 244.233,71.7907 C240.545,62.9401 231.989,57.1871 222.401,57.1871 L33.5875,57.2608 C24.0731,57.2608 15.4437,63.0137 11.7559,71.8644 C8.06815,80.715 10.1333,90.8195 16.845,97.605 L111.252,192.012 L111.326,191.938"/>
</g>

<g fill="none" stroke="#000000" stroke-opacity="1" stroke-width="13.7195" stroke-linecap="butt" stroke-linejoin="miter" stroke-miterlimit="4" transform="matrix(0.03125,0,0,0.03125,117,14)"
font-family="Inter" font-size="11" font-weight="700" font-style="normal" 
>
<path vector-effect="none" fill-rule="nonzero" d="M111.326,191.938 C120.545,201.158 135.517,201.158 144.737,191.938 L239.144,97.5313 C245.929,90.7458 247.921,80.6413 244.233,71.7907 C240.545,62.9401 231.989,57.1871 222.401,57.1871 L33.5875,57.2608 C24.0731,57.2608 15.4437,63.0137 11.7559,71.8644 C8.06815,80.715 10.1333,90.8195 16.845,97.605 L111.252,192.012 L111.326,191.938"/>
</g>

<g fill="#ffffff" fill-opacity="1" stroke="none" transform="matrix(1,0,0,1,56,6)"
font-family="Inter" font-size="11" font-weight="700" font-style="normal" 
>
</g>

<g fill="#ffffff" fill-opacity="1" stroke="#0070ba" stroke-opacity="1" stroke-width="1" stroke-linecap="square" stroke-linejoin="bevel" transform="matrix(1,0,0,1,0,0)"
font-family="Inter" font-size="11" font-weight="700" font-style="normal" 
>
</g>

<g fill="#ffffff" fill-opacity="1" stroke="#0070ba" stroke-opacity="1" stroke-width="1" stroke-linecap="square" stroke-linejoin="bevel" transform="matrix(1,0,0,1,0,0)"
font-family="Inter" font-size="11" font-weight="700" font-style="normal" 
>
</g>

<g fill="#0070ba" fill-opacity="1" stroke="#0070ba" stroke-opacity="1" stroke-width="1.2" stroke-linecap="square" stroke-linejoin="bevel" transform="matrix(1,0,0,1,135,6)"
font-family="Inter" font-size="11" font-weight="700" font-style="normal" 
>
<path vector-effect="none" fill-rule="evenodd" d="M0.5,12 C0.5,5.64873 5.87258,0.5 12.5,0.5 L27.5,0.5 C34.1274,0.5 39.5,5.64873 39.5,12 C39.5,18.3513 34.1274,23.5 27.5,23.5 L12.5,23.5 C5.87258,23.5 0.5,18.3513 0.5,12 "/>
</g>

<g fill="#ffffff" fill-opacity="1" stroke="none" transform="matrix(1,0,0,1,135,6)"
font-family="Inter" font-size="11" font-weight="700" font-style="normal" 
>
<path vector-effect="none" fill-rule="nonzero" d="M11.8242,16 L10.0117,16 L12.7734,8 L14.9531,8 L17.7109,16 L15.8984,16 L13.8945,9.82813 L13.832,9.82813 L11.8242,16 M11.7109,12.8555 L15.9922,12.8555 L15.9922,14.1758 L11.7109,14.1758 L11.7109,12.8555"/>
</g>

<g fill="#ffffff" fill-opacity="1" stroke="none" transform="matrix(0.03125,0,0,0.03125,161,14)"
font-family="Inter" font-size="11" font-weight="700" font-style="normal" 
>
<path vector-effect="none" fill-rule="nonzero" d="M111.326,191.938 C120.545,201.158 135.517,201.158 144.737,191.938 L239.144,97.5313 C245.929,90.7458 247.921,80.6413 244.233,71.7907 C240.545,62.9401 231.989,57.1871 222.401,57.1871 L33.5875,57.2608 C24.0731,57.2608 15.4437,63.0137 11.7559,71.8644 C8.06815,80.715 10.1333,90.8195 16.845,97.605 L111.252,192.012 L111.326,191.938"/>
</g>

<g fill="none" stroke="#000000" stroke-opacity="1" stroke-width="13.7195" stroke-linecap="butt" stroke-linejoin="miter" stroke-miterlimit="4" transform="matrix(0.03125,0,0,0.03125,161,14)"
font-family="Inter" font-size="11" font-weight="700" font-style="normal" 
>
<path vector-effect="none" fill-rule="nonzero" d="M111.326,191.938 C120.545,201.158 135.517,201.158 144.737,191.938 L239.144,97.5313 C245.929,90.7458 247.921,80.6413 244.233,71.7907 C240.545,62.9401 231.989,57.1871 222.401,57.1871 L33.5875,57.2608 C24.0731,57.2608 15.4437,63.0137 11.7559,71.8644 C8.06815,80.715 10.1333,90.8195 16.845,97.605 L111.252,192.012 L111.326,191.938"/>
</g>

<g fill="#ffffff" fill-opacity="1" stroke="none" transform="matrix(1,0,0,1,135,6)"
font-family="Inter" font-size="11" font-weight="700" font-style="normal" 
>
</g>

<g fill="#ffffff" fill-opacity="1" stroke="#0070ba" stroke-opacity="1" stroke-width="1" stroke-linecap="square" stroke-linejoin="bevel" transform="matrix(1,0,0,1,0,0)"
font-family="Inter" font-size="11" font-weight="700" font-style="normal" 
>
</g>

<g fill="none" stroke="#000000" stroke-opacity="1" stroke-width="1" stroke-linecap="square" stroke-linejoin="bevel" transform="matrix(1,0,0,1,0,0)"
font-family=".AppleSystemUIFont" font-size="13" font-weight="400" font-style="normal" 
>
</g>
</g>
</svg>
