<?xml version="1.0" encoding="UTF-8" standalone="no"?>
<svg width="39.8639mm" height="11.2889mm"
 viewBox="0 0 113 32"
 xmlns="http://www.w3.org/2000/svg" xmlns:xlink="http://www.w3.org/1999/xlink" version="1.2" baseProfile="tiny">
<title>Abstract block</title>
<desc>block_lists_size_of_value</desc>
<defs>
</defs>
<g fill="none" stroke="black" stroke-width="1" fill-rule="evenodd" stroke-linecap="square" stroke-linejoin="bevel" >

<g fill="none" stroke="#000000" stroke-opacity="1" stroke-width="1" stroke-linecap="square" stroke-linejoin="bevel" transform="matrix(1,0,0,1,0,0)"
font-family=".AppleSystemUIFont" font-size="13" font-weight="400" font-style="normal" 
>
</g>

<g fill="none" stroke="#000000" stroke-opacity="1" stroke-width="1" stroke-linecap="square" stroke-linejoin="bevel" transform="matrix(1,0,0,1,0,0)"
font-family=".AppleSystemUIFont" font-size="13" font-weight="400" font-style="normal" 
>
</g>

<g fill="#ff661a" fill-opacity="1" stroke="#de4600" stroke-opacity="1" stroke-width="1.2" stroke-linecap="square" stroke-linejoin="bevel" transform="matrix(1,0,0,1,0,0)"
font-family=".AppleSystemUIFont" font-size="13" font-weight="400" font-style="normal" 
>
<path vector-effect="none" fill-rule="evenodd" d="M1,16 C1,7.71573 8.16344,1 17,1 L95.1667,1 C104.003,1 111.167,7.71573 111.167,16 C111.167,24.2843 104.003,31 95.1667,31 L17,31 C8.16344,31 1,24.2843 1,16 "/>
</g>

<g fill="#ffffff" fill-opacity="1" stroke="none" transform="matrix(1,0,0,1,0,0)"
font-family="Inter" font-size="11" font-weight="700" font-style="normal" 
>
<path vector-effect="none" fill-rule="nonzero" d="M17.4688,15.7109 L15.9453,15.8047 C15.9193,15.6745 15.8633,15.5566 15.7773,15.4512 C15.6914,15.3457 15.5788,15.2611 15.4395,15.1973 C15.3001,15.1335 15.1341,15.1016 14.9414,15.1016 C14.6836,15.1016 14.4661,15.1556 14.2891,15.2637 C14.112,15.3717 14.0234,15.5156 14.0234,15.6953 C14.0234,15.8385 14.0807,15.9596 14.1953,16.0586 C14.3099,16.1576 14.5065,16.237 14.7852,16.2969 L15.8711,16.5156 C16.4544,16.6354 16.8893,16.8281 17.1758,17.0938 C17.4622,17.3594 17.6055,17.7083 17.6055,18.1406 C17.6055,18.5339 17.4902,18.8789 17.2598,19.1758 C17.0293,19.4727 16.7142,19.7038 16.3145,19.8691 C15.9147,20.0345 15.4544,20.1172 14.9336,20.1172 C14.1393,20.1172 13.5072,19.9512 13.0371,19.6191 C12.5671,19.2871 12.2917,18.8346 12.2109,18.2617 L13.8477,18.1758 C13.8971,18.418 14.0169,18.6022 14.207,18.7285 C14.3971,18.8548 14.6406,18.918 14.9375,18.918 C15.2292,18.918 15.4642,18.8613 15.6426,18.748 C15.821,18.6348 15.9115,18.4883 15.9141,18.3086 C15.9115,18.1576 15.8477,18.0332 15.7227,17.9355 C15.5977,17.8379 15.4049,17.763 15.1445,17.7109 L14.1055,17.5039 C13.5195,17.3867 13.084,17.1836 12.7988,16.8945 C12.5137,16.6055 12.3711,16.237 12.3711,15.7891 C12.3711,15.4036 12.4759,15.0716 12.6855,14.793 C12.8952,14.5143 13.1908,14.2995 13.5723,14.1484 C13.9538,13.9974 14.401,13.9219 14.9141,13.9219 C15.6719,13.9219 16.2689,14.082 16.7051,14.4023 C17.1413,14.7227 17.3958,15.1589 17.4688,15.7109 M18.6484,20 L18.6484,14 L20.3125,14 L20.3125,20 L18.6484,20 M19.4844,13.2266 C19.237,13.2266 19.0254,13.1439 18.8496,12.9785 C18.6738,12.8132 18.5859,12.6146 18.5859,12.3828 C18.5859,12.1536 18.6738,11.9564 18.8496,11.791 C19.0254,11.6257 19.237,11.543 19.4844,11.543 C19.7318,11.543 19.9434,11.6257 20.1191,11.791 C20.2949,11.9564 20.3828,12.1536 20.3828,12.3828 C20.3828,12.6146 20.2949,12.8132 20.1191,12.9785 C19.9434,13.1439 19.7318,13.2266 19.4844,13.2266 M21.6016,20 L21.6016,19.0078 L24.5391,15.3711 L24.5391,15.3281 L21.7031,15.3281 L21.7031,14 L26.543,14 L26.543,15.082 L23.7852,18.6289 L23.7852,18.6719 L26.6445,18.6719 L26.6445,20 L21.6016,20 M30.4766,20.1172 C29.8594,20.1172 29.3288,19.9915 28.8848,19.7402 C28.4408,19.4889 28.099,19.1322 27.8594,18.6699 C27.6198,18.2077 27.5,17.6602 27.5,17.0273 C27.5,16.4102 27.6198,15.8685 27.8594,15.4023 C28.099,14.9362 28.4368,14.5729 28.873,14.3125 C29.3092,14.0521 29.8216,13.9219 30.4102,13.9219 C30.806,13.9219 31.1751,13.985 31.5176,14.1113 C31.86,14.2376 32.1595,14.4271 32.416,14.6797 C32.6725,14.9323 32.8724,15.2493 33.0156,15.6309 C33.1589,16.0124 33.2305,16.4583 33.2305,16.9688 L33.2305,17.4258 L28.1641,17.4258 L28.1641,16.3945 L31.6641,16.3945 C31.6641,16.1549 31.612,15.9427 31.5078,15.7578 C31.4036,15.5729 31.2598,15.4277 31.0762,15.3223 C30.8926,15.2168 30.6797,15.1641 30.4375,15.1641 C30.1849,15.1641 29.9616,15.222 29.7676,15.3379 C29.5736,15.4538 29.4219,15.6087 29.3125,15.8027 C29.2031,15.9967 29.1471,16.2122 29.1445,16.4492 L29.1445,17.4297 C29.1445,17.7266 29.1999,17.9831 29.3105,18.1992 C29.4212,18.4154 29.5781,18.582 29.7813,18.6992 C29.9844,18.8164 30.2253,18.875 30.5039,18.875 C30.6888,18.875 30.8581,18.849 31.0117,18.7969 C31.1654,18.7448 31.2969,18.6667 31.4063,18.5625 C31.5156,18.4583 31.599,18.3307 31.6563,18.1797 L33.1953,18.2813 C33.1172,18.651 32.9577,18.9733 32.7168,19.248 C32.4759,19.5228 32.166,19.7363 31.7871,19.8887 C31.4082,20.041 30.9714,20.1172 30.4766,20.1172 M39.5625,20.1172 C38.9557,20.1172 38.4316,19.9876 37.9902,19.7285 C37.5488,19.4694 37.2083,19.1074 36.9688,18.6426 C36.7292,18.1777 36.6094,17.638 36.6094,17.0234 C36.6094,16.4036 36.7292,15.8613 36.9688,15.3965 C37.2083,14.9316 37.5488,14.5697 37.9902,14.3105 C38.4316,14.0514 38.9557,13.9219 39.5625,13.9219 C40.1693,13.9219 40.6934,14.0514 41.1348,14.3105 C41.5762,14.5697 41.9167,14.9316 42.1563,15.3965 C42.3958,15.8613 42.5156,16.4036 42.5156,17.0234 C42.5156,17.638 42.3958,18.1777 42.1563,18.6426 C41.9167,19.1074 41.5762,19.4694 41.1348,19.7285 C40.6934,19.9876 40.1693,20.1172 39.5625,20.1172 M39.5703,18.8281 C39.8464,18.8281 40.0768,18.7493 40.2617,18.5918 C40.4466,18.4342 40.5866,18.2188 40.6816,17.9453 C40.7767,17.6719 40.8242,17.3607 40.8242,17.0117 C40.8242,16.6628 40.7767,16.3516 40.6816,16.0781 C40.5866,15.8047 40.4466,15.5885 40.2617,15.4297 C40.0768,15.2708 39.8464,15.1914 39.5703,15.1914 C39.2917,15.1914 39.0579,15.2708 38.8691,15.4297 C38.6803,15.5885 38.5384,15.8047 38.4434,16.0781 C38.3483,16.3516 38.3008,16.6628 38.3008,17.0117 C38.3008,17.3607 38.3483,17.6719 38.4434,17.9453 C38.5384,18.2188 38.6803,18.4342 38.8691,18.5918 C39.0579,18.7493 39.2917,18.8281 39.5703,18.8281 M46.8281,14 L46.8281,15.25 L43.125,15.25 L43.125,14 L46.8281,14 M43.9727,20 L43.9727,13.5664 C43.9727,13.1315 44.0579,12.7708 44.2285,12.4844 C44.3991,12.1979 44.6328,11.9831 44.9297,11.8398 C45.2266,11.6966 45.5638,11.625 45.9414,11.625 C46.1966,11.625 46.4303,11.6445 46.6426,11.6836 C46.8548,11.7227 47.013,11.7578 47.1172,11.7891 L46.8203,13.0391 C46.7552,13.0182 46.6751,12.9987 46.5801,12.9805 C46.485,12.9622 46.388,12.9531 46.2891,12.9531 C46.0443,12.9531 45.8737,13.0098 45.7773,13.123 C45.681,13.2363 45.6328,13.3945 45.6328,13.5977 L45.6328,20 L43.9727,20"/>
</g>

<g fill="#ff661a" fill-opacity="1" stroke="#de4600" stroke-opacity="1" stroke-width="1.2" stroke-linecap="square" stroke-linejoin="bevel" transform="matrix(1,0,0,1,54,4)"
font-family="Inter" font-size="11" font-weight="700" font-style="normal" 
>
<path vector-effect="none" fill-rule="evenodd" d="M0.5,3.5 C0.5,1.84315 1.84315,0.5 3.5,0.5 L44,0.5 C45.6569,0.5 47,1.84315 47,3.5 L47,20.5 C47,22.1569 45.6569,23.5 44,23.5 L3.5,23.5 C1.84315,23.5 0.5,22.1569 0.5,20.5 L0.5,3.5"/>
</g>

<g fill="#ffffff" fill-opacity="1" stroke="none" transform="matrix(1,0,0,1,54,4)"
font-family="Inter" font-size="11" font-weight="700" font-style="normal" 
>
<path vector-effect="none" fill-rule="nonzero" d="M11.1719,7.95313 L11.1719,15.9531 L9.50781,15.9531 L9.50781,7.95313 L11.1719,7.95313 M12.4922,15.9531 L12.4922,9.95313 L14.1563,9.95313 L14.1563,15.9531 L12.4922,15.9531 M13.3281,9.17969 C13.0807,9.17969 12.8691,9.09701 12.6934,8.93164 C12.5176,8.76628 12.4297,8.56771 12.4297,8.33594 C12.4297,8.10677 12.5176,7.90951 12.6934,7.74414 C12.8691,7.57878 13.0807,7.49609 13.3281,7.49609 C13.5755,7.49609 13.7871,7.57878 13.9629,7.74414 C14.1387,7.90951 14.2266,8.10677 14.2266,8.33594 C14.2266,8.56771 14.1387,8.76628 13.9629,8.93164 C13.7871,9.09701 13.5755,9.17969 13.3281,9.17969 M20.4688,11.6641 L18.9453,11.7578 C18.9193,11.6276 18.8633,11.5098 18.7773,11.4043 C18.6914,11.2988 18.5788,11.2142 18.4395,11.1504 C18.3001,11.0866 18.1341,11.0547 17.9414,11.0547 C17.6836,11.0547 17.4661,11.1087 17.2891,11.2168 C17.112,11.3249 17.0234,11.4688 17.0234,11.6484 C17.0234,11.7917 17.0807,11.9128 17.1953,12.0117 C17.3099,12.1107 17.5065,12.1901 17.7852,12.25 L18.8711,12.4688 C19.4544,12.5885 19.8893,12.7813 20.1758,13.0469 C20.4622,13.3125 20.6055,13.6615 20.6055,14.0938 C20.6055,14.487 20.4902,14.832 20.2598,15.1289 C20.0293,15.4258 19.7142,15.6569 19.3145,15.8223 C18.9147,15.9876 18.4544,16.0703 17.9336,16.0703 C17.1393,16.0703 16.5072,15.9043 16.0371,15.5723 C15.5671,15.2402 15.2917,14.7878 15.2109,14.2148 L16.8477,14.1289 C16.8971,14.3711 17.0169,14.5553 17.207,14.6816 C17.3971,14.8079 17.6406,14.8711 17.9375,14.8711 C18.2292,14.8711 18.4642,14.8145 18.6426,14.7012 C18.821,14.5879 18.9115,14.4414 18.9141,14.2617 C18.9115,14.1107 18.8477,13.9863 18.7227,13.8887 C18.5977,13.791 18.4049,13.7161 18.1445,13.6641 L17.1055,13.457 C16.5195,13.3398 16.084,13.1367 15.7988,12.8477 C15.5137,12.5586 15.3711,12.1901 15.3711,11.7422 C15.3711,11.3568 15.4759,11.0247 15.6855,10.7461 C15.8952,10.4674 16.1908,10.2526 16.5723,10.1016 C16.9538,9.95052 17.401,9.875 17.9141,9.875 C18.6719,9.875 19.2689,10.0352 19.7051,10.3555 C20.1413,10.6758 20.3958,11.112 20.4688,11.6641 M24.8398,9.95313 L24.8398,11.2031 L21.2266,11.2031 L21.2266,9.95313 L24.8398,9.95313 M22.0469,8.51563 L23.7109,8.51563 L23.7109,14.1094 C23.7109,14.263 23.7344,14.3822 23.7813,14.4668 C23.8281,14.5514 23.8939,14.6107 23.9785,14.6445 C24.0632,14.6784 24.1615,14.6953 24.2734,14.6953 C24.3516,14.6953 24.4297,14.6882 24.5078,14.6738 C24.5859,14.6595 24.6458,14.6484 24.6875,14.6406 L24.9492,15.8789 C24.8659,15.9049 24.7487,15.9355 24.5977,15.9707 C24.4466,16.0059 24.263,16.0273 24.0469,16.0352 C23.6458,16.0508 23.2949,15.9974 22.9941,15.875 C22.6934,15.7526 22.4596,15.5625 22.293,15.3047 C22.1263,15.0469 22.0443,14.7214 22.0469,14.3281 L22.0469,8.51563"/>
</g>

<g fill="#ffffff" fill-opacity="1" stroke="none" transform="matrix(0.03125,0,0,0.03125,87.5,12)"
font-family="Inter" font-size="11" font-weight="700" font-style="normal" 
>
<path vector-effect="none" fill-rule="nonzero" d="M111.326,191.938 C120.545,201.158 135.517,201.158 144.737,191.938 L239.144,97.5313 C245.929,90.7458 247.921,80.6413 244.233,71.7907 C240.545,62.9401 231.989,57.1871 222.401,57.1871 L33.5875,57.2608 C24.0731,57.2608 15.4437,63.0137 11.7559,71.8644 C8.06815,80.715 10.1333,90.8195 16.845,97.605 L111.252,192.012 L111.326,191.938"/>
</g>

<g fill="none" stroke="#000000" stroke-opacity="1" stroke-width="13.7195" stroke-linecap="butt" stroke-linejoin="miter" stroke-miterlimit="4" transform="matrix(0.03125,0,0,0.03125,87.5,12)"
font-family="Inter" font-size="11" font-weight="700" font-style="normal" 
>
<path vector-effect="none" fill-rule="nonzero" d="M111.326,191.938 C120.545,201.158 135.517,201.158 144.737,191.938 L239.144,97.5313 C245.929,90.7458 247.921,80.6413 244.233,71.7907 C240.545,62.9401 231.989,57.1871 222.401,57.1871 L33.5875,57.2608 C24.0731,57.2608 15.4437,63.0137 11.7559,71.8644 C8.06815,80.715 10.1333,90.8195 16.845,97.605 L111.252,192.012 L111.326,191.938"/>
</g>

<g fill="#ffffff" fill-opacity="1" stroke="none" transform="matrix(1,0,0,1,54,4)"
font-family="Inter" font-size="11" font-weight="700" font-style="normal" 
>
</g>

<g fill="#ffffff" fill-opacity="1" stroke="none" transform="matrix(1,0,0,1,0,0)"
font-family="Inter" font-size="11" font-weight="700" font-style="normal" 
>
</g>

<g fill="#ffffff" fill-opacity="1" stroke="none" transform="matrix(1,0,0,1,0,0)"
font-family="Inter" font-size="11" font-weight="700" font-style="normal" 
>
</g>

<g fill="none" stroke="#000000" stroke-opacity="1" stroke-width="1" stroke-linecap="square" stroke-linejoin="bevel" transform="matrix(1,0,0,1,0,0)"
font-family=".AppleSystemUIFont" font-size="13" font-weight="400" font-style="normal" 
>
</g>
</g>
</svg>
