<?xml version="1.0" encoding="UTF-8" standalone="no"?>
<svg width="127.706mm" height="15.5222mm"
 viewBox="0 0 362 44"
 xmlns="http://www.w3.org/2000/svg" xmlns:xlink="http://www.w3.org/1999/xlink" version="1.2" baseProfile="tiny">
<title>Abstract block</title>
<desc>block_hubs_all_motors_port_set_acceleration</desc>
<defs>
</defs>
<g fill="none" stroke="black" stroke-width="1" fill-rule="evenodd" stroke-linecap="square" stroke-linejoin="bevel" >

<g fill="none" stroke="#000000" stroke-opacity="1" stroke-width="1" stroke-linecap="square" stroke-linejoin="bevel" transform="matrix(1,0,0,1,0,0)"
font-family=".AppleSystemUIFont" font-size="13" font-weight="400" font-style="normal" 
>
</g>

<g fill="none" stroke="#000000" stroke-opacity="1" stroke-width="1" stroke-linecap="square" stroke-linejoin="bevel" transform="matrix(1,0,0,1,0,0)"
font-family=".AppleSystemUIFont" font-size="13" font-weight="400" font-style="normal" 
>
</g>

<g fill="#0090f5" fill-opacity="1" stroke="#0070ba" stroke-opacity="1" stroke-width="1.2" stroke-linecap="square" stroke-linejoin="bevel" transform="matrix(1,0,0,1,0,0)"
font-family=".AppleSystemUIFont" font-size="13" font-weight="400" font-style="normal" 
>
<path vector-effect="none" fill-rule="evenodd" d="M0.5,4.5 L1.04612,2.48112 L2.48112,1.04612 L4.5,0.5 L9.625,0.5 L10.416,0.976563 L11.1719,1.6875 L11.998,2.67969 L13,4 L13.7559,4.66016 L14.5469,5.15625 L15.4082,5.51172 L16.375,5.75 L17.4824,5.89453 L18.7656,5.96875 L20.2598,5.99609 L22,6 L23.7402,5.99609 L25.2344,5.96875 L26.5176,5.89453 L27.625,5.75 L28.5918,5.51172 L29.4531,5.15625 L30.2441,4.66016 L31,4 L32.002,2.67969 L32.8281,1.6875 L33.584,0.976563 L34.375,0.5 L357,0.5 L359.019,1.04612 L360.454,2.48112 L361,4.5 L361,31.5 L360.454,33.5189 L359.019,34.9539 L357,35.5 L34.375,35.5 L33.584,35.9766 L32.8281,36.6875 L32.002,37.6797 L31,39 L30.2441,39.6602 L29.4531,40.1563 L28.5918,40.5117 L27.625,40.75 L26.5176,40.8945 L25.2344,40.9688 L23.7402,40.9961 L22,41 L20.2598,40.9961 L18.7656,40.9688 L17.4824,40.8945 L16.375,40.75 L15.4082,40.5117 L14.5469,40.1563 L13.7559,39.6602 L13,39 L11.998,37.6797 L11.1719,36.6875 L10.416,35.9766 L9.625,35.5 L4.5,35.5 L2.48112,34.9539 L1.04612,33.5189 L0.5,31.5 L0.5,4.5"/>
</g>

<g fill="#ffffff" fill-opacity="1" stroke="none" transform="matrix(1,0,0,1,0,0)"
font-family="Inter" font-size="11" font-weight="700" font-style="normal" 
>
<path vector-effect="none" fill-rule="nonzero" d="M186.5,17.6641 L184.977,17.7578 C184.951,17.6276 184.895,17.5098 184.809,17.4043 C184.723,17.2988 184.61,17.2142 184.471,17.1504 C184.331,17.0866 184.165,17.0547 183.973,17.0547 C183.715,17.0547 183.497,17.1087 183.32,17.2168 C183.143,17.3249 183.055,17.4688 183.055,17.6484 C183.055,17.7917 183.112,17.9128 183.227,18.0117 C183.341,18.1107 183.538,18.1901 183.816,18.25 L184.902,18.4688 C185.486,18.5885 185.921,18.7813 186.207,19.0469 C186.493,19.3125 186.637,19.6615 186.637,20.0938 C186.637,20.487 186.521,20.832 186.291,21.1289 C186.061,21.4258 185.745,21.6569 185.346,21.8223 C184.946,21.9876 184.486,22.0703 183.965,22.0703 C183.171,22.0703 182.538,21.9043 182.068,21.5723 C181.598,21.2402 181.323,20.7878 181.242,20.2148 L182.879,20.1289 C182.928,20.3711 183.048,20.5553 183.238,20.6816 C183.428,20.8079 183.672,20.8711 183.969,20.8711 C184.26,20.8711 184.495,20.8145 184.674,20.7012 C184.852,20.5879 184.943,20.4414 184.945,20.2617 C184.943,20.1107 184.879,19.9863 184.754,19.8887 C184.629,19.791 184.436,19.7161 184.176,19.6641 L183.137,19.457 C182.551,19.3398 182.115,19.1367 181.83,18.8477 C181.545,18.5586 181.402,18.1901 181.402,17.7422 C181.402,17.3568 181.507,17.0247 181.717,16.7461 C181.926,16.4674 182.222,16.2526 182.604,16.1016 C182.985,15.9505 183.432,15.875 183.945,15.875 C184.703,15.875 185.3,16.0352 185.736,16.3555 C186.173,16.6758 186.427,17.112 186.5,17.6641 M190.414,22.0703 C189.797,22.0703 189.266,21.9447 188.822,21.6934 C188.378,21.4421 188.036,21.0853 187.797,20.623 C187.557,20.1608 187.438,19.6133 187.438,18.9805 C187.438,18.3633 187.557,17.8216 187.797,17.3555 C188.036,16.8893 188.374,16.526 188.811,16.2656 C189.247,16.0052 189.759,15.875 190.348,15.875 C190.743,15.875 191.113,15.9382 191.455,16.0645 C191.798,16.1908 192.097,16.3802 192.354,16.6328 C192.61,16.8854 192.81,17.2025 192.953,17.584 C193.096,17.9655 193.168,18.4115 193.168,18.9219 L193.168,19.3789 L188.102,19.3789 L188.102,18.3477 L191.602,18.3477 C191.602,18.1081 191.549,17.8958 191.445,17.7109 C191.341,17.526 191.197,17.3809 191.014,17.2754 C190.83,17.1699 190.617,17.1172 190.375,17.1172 C190.122,17.1172 189.899,17.1751 189.705,17.291 C189.511,17.4069 189.359,17.5618 189.25,17.7559 C189.141,17.9499 189.085,18.1654 189.082,18.4023 L189.082,19.3828 C189.082,19.6797 189.137,19.9362 189.248,20.1523 C189.359,20.3685 189.516,20.5352 189.719,20.6523 C189.922,20.7695 190.163,20.8281 190.441,20.8281 C190.626,20.8281 190.796,20.8021 190.949,20.75 C191.103,20.6979 191.234,20.6198 191.344,20.5156 C191.453,20.4115 191.536,20.2839 191.594,20.1328 L193.133,20.2344 C193.055,20.6042 192.895,20.9264 192.654,21.2012 C192.413,21.4759 192.104,21.6895 191.725,21.8418 C191.346,21.9941 190.909,22.0703 190.414,22.0703 M197.434,15.9531 L197.434,17.2031 L193.82,17.2031 L193.82,15.9531 L197.434,15.9531 M194.641,14.5156 L196.305,14.5156 L196.305,20.1094 C196.305,20.263 196.328,20.3822 196.375,20.4668 C196.422,20.5514 196.488,20.6107 196.572,20.6445 C196.657,20.6784 196.755,20.6953 196.867,20.6953 C196.945,20.6953 197.023,20.6882 197.102,20.6738 C197.18,20.6595 197.24,20.6484 197.281,20.6406 L197.543,21.8789 C197.46,21.9049 197.342,21.9355 197.191,21.9707 C197.04,22.0059 196.857,22.0273 196.641,22.0352 C196.24,22.0508 195.889,21.9974 195.588,21.875 C195.287,21.7526 195.053,21.5625 194.887,21.3047 C194.72,21.0469 194.638,20.7214 194.641,20.3281 L194.641,14.5156 M202.766,22.0664 C202.383,22.0664 202.042,21.9993 201.742,21.8652 C201.443,21.7311 201.206,21.5319 201.033,21.2676 C200.86,21.0033 200.773,20.6732 200.773,20.2773 C200.773,19.944 200.835,19.6641 200.957,19.4375 C201.079,19.2109 201.246,19.0286 201.457,18.8906 C201.668,18.7526 201.908,18.6484 202.178,18.5781 C202.447,18.5078 202.73,18.4583 203.027,18.4297 C203.376,18.3932 203.658,18.3587 203.871,18.3262 C204.085,18.2936 204.24,18.2448 204.336,18.1797 C204.432,18.1146 204.48,18.0182 204.48,17.8906 L204.48,17.8672 C204.48,17.6198 204.403,17.4284 204.248,17.293 C204.093,17.1576 203.874,17.0898 203.59,17.0898 C203.29,17.0898 203.052,17.1556 202.875,17.2871 C202.698,17.4186 202.581,17.5833 202.523,17.7813 L200.984,17.6563 C201.063,17.2917 201.216,16.9759 201.445,16.709 C201.674,16.4421 201.971,16.2363 202.334,16.0918 C202.697,15.9473 203.118,15.875 203.598,15.875 C203.931,15.875 204.251,15.9141 204.557,15.9922 C204.863,16.0703 205.135,16.1914 205.373,16.3555 C205.611,16.5195 205.799,16.7298 205.938,16.9863 C206.076,17.2428 206.145,17.5495 206.145,17.9063 L206.145,21.9531 L204.566,21.9531 L204.566,21.1211 L204.52,21.1211 C204.423,21.3086 204.294,21.4733 204.133,21.6152 C203.971,21.7572 203.777,21.8678 203.551,21.9473 C203.324,22.0267 203.063,22.0664 202.766,22.0664 M203.242,20.918 C203.487,20.918 203.703,20.8691 203.891,20.7715 C204.078,20.6738 204.225,20.5417 204.332,20.375 C204.439,20.2083 204.492,20.0195 204.492,19.8086 L204.492,19.1719 C204.44,19.2057 204.369,19.2363 204.279,19.2637 C204.189,19.291 204.089,19.3158 203.977,19.3379 C203.865,19.36 203.753,19.3796 203.641,19.3965 C203.529,19.4134 203.427,19.4284 203.336,19.4414 C203.141,19.4701 202.97,19.5156 202.824,19.5781 C202.678,19.6406 202.565,19.7246 202.484,19.8301 C202.404,19.9355 202.363,20.0664 202.363,20.2227 C202.363,20.4492 202.446,20.6217 202.611,20.7402 C202.777,20.8587 202.987,20.918 203.242,20.918 M210.141,22.0703 C209.526,22.0703 208.998,21.9395 208.557,21.6777 C208.115,21.416 207.777,21.0521 207.541,20.5859 C207.305,20.1198 207.188,19.5833 207.188,18.9766 C207.188,18.362 207.307,17.8223 207.545,17.3574 C207.783,16.8926 208.122,16.5293 208.563,16.2676 C209.003,16.0059 209.526,15.875 210.133,15.875 C210.656,15.875 211.115,15.9701 211.508,16.1602 C211.901,16.3503 212.212,16.6172 212.441,16.9609 C212.671,17.3047 212.797,17.7083 212.82,18.1719 L211.25,18.1719 C211.206,17.8724 211.089,17.6309 210.9,17.4473 C210.712,17.2637 210.465,17.1719 210.16,17.1719 C209.902,17.1719 209.678,17.2415 209.486,17.3809 C209.295,17.5202 209.146,17.7227 209.039,17.9883 C208.932,18.2539 208.879,18.5755 208.879,18.9531 C208.879,19.3359 208.932,19.6615 209.037,19.9297 C209.143,20.1979 209.292,20.4023 209.484,20.543 C209.677,20.6836 209.902,20.7539 210.16,20.7539 C210.35,20.7539 210.521,20.7148 210.674,20.6367 C210.826,20.5586 210.952,20.4447 211.053,20.2949 C211.153,20.1452 211.219,19.9648 211.25,19.7539 L212.82,19.7539 C212.794,20.2122 212.67,20.6152 212.447,20.9629 C212.225,21.3105 211.918,21.582 211.527,21.7773 C211.137,21.9727 210.674,22.0703 210.141,22.0703 M216.594,22.0703 C215.979,22.0703 215.451,21.9395 215.01,21.6777 C214.568,21.416 214.23,21.0521 213.994,20.5859 C213.758,20.1198 213.641,19.5833 213.641,18.9766 C213.641,18.362 213.76,17.8223 213.998,17.3574 C214.236,16.8926 214.576,16.5293 215.016,16.2676 C215.456,16.0059 215.979,15.875 216.586,15.875 C217.109,15.875 217.568,15.9701 217.961,16.1602 C218.354,16.3503 218.665,16.6172 218.895,16.9609 C219.124,17.3047 219.25,17.7083 219.273,18.1719 L217.703,18.1719 C217.659,17.8724 217.542,17.6309 217.354,17.4473 C217.165,17.2637 216.918,17.1719 216.613,17.1719 C216.355,17.1719 216.131,17.2415 215.939,17.3809 C215.748,17.5202 215.599,17.7227 215.492,17.9883 C215.385,18.2539 215.332,18.5755 215.332,18.9531 C215.332,19.3359 215.385,19.6615 215.49,19.9297 C215.596,20.1979 215.745,20.4023 215.938,20.543 C216.13,20.6836 216.355,20.7539 216.613,20.7539 C216.803,20.7539 216.975,20.7148 217.127,20.6367 C217.279,20.5586 217.406,20.4447 217.506,20.2949 C217.606,20.1452 217.672,19.9648 217.703,19.7539 L219.273,19.7539 C219.247,20.2122 219.123,20.6152 218.9,20.9629 C218.678,21.3105 218.371,21.582 217.98,21.7773 C217.59,21.9727 217.128,22.0703 216.594,22.0703 M223.07,22.0703 C222.453,22.0703 221.923,21.9447 221.479,21.6934 C221.035,21.4421 220.693,21.0853 220.453,20.623 C220.214,20.1608 220.094,19.6133 220.094,18.9805 C220.094,18.3633 220.214,17.8216 220.453,17.3555 C220.693,16.8893 221.031,16.526 221.467,16.2656 C221.903,16.0052 222.415,15.875 223.004,15.875 C223.4,15.875 223.769,15.9382 224.111,16.0645 C224.454,16.1908 224.753,16.3802 225.01,16.6328 C225.266,16.8854 225.466,17.2025 225.609,17.584 C225.753,17.9655 225.824,18.4115 225.824,18.9219 L225.824,19.3789 L220.758,19.3789 L220.758,18.3477 L224.258,18.3477 C224.258,18.1081 224.206,17.8958 224.102,17.7109 C223.997,17.526 223.854,17.3809 223.67,17.2754 C223.486,17.1699 223.273,17.1172 223.031,17.1172 C222.779,17.1172 222.555,17.1751 222.361,17.291 C222.167,17.4069 222.016,17.5618 221.906,17.7559 C221.797,17.9499 221.741,18.1654 221.738,18.4023 L221.738,19.3828 C221.738,19.6797 221.794,19.9362 221.904,20.1523 C222.015,20.3685 222.172,20.5352 222.375,20.6523 C222.578,20.7695 222.819,20.8281 223.098,20.8281 C223.283,20.8281 223.452,20.8021 223.605,20.75 C223.759,20.6979 223.891,20.6198 224,20.5156 C224.109,20.4115 224.193,20.2839 224.25,20.1328 L225.789,20.2344 C225.711,20.6042 225.551,20.9264 225.311,21.2012 C225.07,21.4759 224.76,21.6895 224.381,21.8418 C224.002,21.9941 223.565,22.0703 223.07,22.0703 M228.563,13.9531 L228.563,21.9531 L226.898,21.9531 L226.898,13.9531 L228.563,13.9531 M232.617,22.0703 C232,22.0703 231.469,21.9447 231.025,21.6934 C230.581,21.4421 230.24,21.0853 230,20.623 C229.76,20.1608 229.641,19.6133 229.641,18.9805 C229.641,18.3633 229.76,17.8216 230,17.3555 C230.24,16.8893 230.577,16.526 231.014,16.2656 C231.45,16.0052 231.962,15.875 232.551,15.875 C232.947,15.875 233.316,15.9382 233.658,16.0645 C234.001,16.1908 234.3,16.3802 234.557,16.6328 C234.813,16.8854 235.013,17.2025 235.156,17.584 C235.299,17.9655 235.371,18.4115 235.371,18.9219 L235.371,19.3789 L230.305,19.3789 L230.305,18.3477 L233.805,18.3477 C233.805,18.1081 233.753,17.8958 233.648,17.7109 C233.544,17.526 233.4,17.3809 233.217,17.2754 C233.033,17.1699 232.82,17.1172 232.578,17.1172 C232.326,17.1172 232.102,17.1751 231.908,17.291 C231.714,17.4069 231.563,17.5618 231.453,17.7559 C231.344,17.9499 231.288,18.1654 231.285,18.4023 L231.285,19.3828 C231.285,19.6797 231.34,19.9362 231.451,20.1523 C231.562,20.3685 231.719,20.5352 231.922,20.6523 C232.125,20.7695 232.366,20.8281 232.645,20.8281 C232.829,20.8281 232.999,20.8021 233.152,20.75 C233.306,20.6979 233.438,20.6198 233.547,20.5156 C233.656,20.4115 233.74,20.2839 233.797,20.1328 L235.336,20.2344 C235.258,20.6042 235.098,20.9264 234.857,21.2012 C234.617,21.4759 234.307,21.6895 233.928,21.8418 C233.549,21.9941 233.112,22.0703 232.617,22.0703 M236.445,21.9531 L236.445,15.9531 L238.059,15.9531 L238.059,17 L238.121,17 C238.23,16.6276 238.414,16.3457 238.672,16.1543 C238.93,15.9629 239.227,15.8672 239.563,15.8672 C239.646,15.8672 239.736,15.8724 239.832,15.8828 C239.928,15.8932 240.013,15.9076 240.086,15.9258 L240.086,17.4023 C240.008,17.3789 239.9,17.3581 239.762,17.3398 C239.624,17.3216 239.497,17.3125 239.383,17.3125 C239.138,17.3125 238.92,17.3652 238.729,17.4707 C238.537,17.5762 238.386,17.7227 238.275,17.9102 C238.165,18.0977 238.109,18.3138 238.109,18.5586 L238.109,21.9531 L236.445,21.9531 M242.469,22.0664 C242.086,22.0664 241.745,21.9993 241.445,21.8652 C241.146,21.7311 240.91,21.5319 240.736,21.2676 C240.563,21.0033 240.477,20.6732 240.477,20.2773 C240.477,19.944 240.538,19.6641 240.66,19.4375 C240.783,19.2109 240.949,19.0286 241.16,18.8906 C241.371,18.7526 241.611,18.6484 241.881,18.5781 C242.15,18.5078 242.434,18.4583 242.73,18.4297 C243.079,18.3932 243.361,18.3587 243.574,18.3262 C243.788,18.2936 243.943,18.2448 244.039,18.1797 C244.135,18.1146 244.184,18.0182 244.184,17.8906 L244.184,17.8672 C244.184,17.6198 244.106,17.4284 243.951,17.293 C243.796,17.1576 243.577,17.0898 243.293,17.0898 C242.993,17.0898 242.755,17.1556 242.578,17.2871 C242.401,17.4186 242.284,17.5833 242.227,17.7813 L240.688,17.6563 C240.766,17.2917 240.919,16.9759 241.148,16.709 C241.378,16.4421 241.674,16.2363 242.037,16.0918 C242.4,15.9473 242.822,15.875 243.301,15.875 C243.634,15.875 243.954,15.9141 244.26,15.9922 C244.566,16.0703 244.838,16.1914 245.076,16.3555 C245.314,16.5195 245.503,16.7298 245.641,16.9863 C245.779,17.2428 245.848,17.5495 245.848,17.9063 L245.848,21.9531 L244.27,21.9531 L244.27,21.1211 L244.223,21.1211 C244.126,21.3086 243.997,21.4733 243.836,21.6152 C243.674,21.7572 243.48,21.8678 243.254,21.9473 C243.027,22.0267 242.766,22.0664 242.469,22.0664 M242.945,20.918 C243.19,20.918 243.406,20.8691 243.594,20.7715 C243.781,20.6738 243.928,20.5417 244.035,20.375 C244.142,20.2083 244.195,20.0195 244.195,19.8086 L244.195,19.1719 C244.143,19.2057 244.072,19.2363 243.982,19.2637 C243.893,19.291 243.792,19.3158 243.68,19.3379 C243.568,19.36 243.456,19.3796 243.344,19.3965 C243.232,19.4134 243.13,19.4284 243.039,19.4414 C242.844,19.4701 242.673,19.5156 242.527,19.5781 C242.382,19.6406 242.268,19.7246 242.188,19.8301 C242.107,19.9355 242.066,20.0664 242.066,20.2227 C242.066,20.4492 242.149,20.6217 242.314,20.7402 C242.48,20.8587 242.69,20.918 242.945,20.918 M250.324,15.9531 L250.324,17.2031 L246.711,17.2031 L246.711,15.9531 L250.324,15.9531 M247.531,14.5156 L249.195,14.5156 L249.195,20.1094 C249.195,20.263 249.219,20.3822 249.266,20.4668 C249.313,20.5514 249.378,20.6107 249.463,20.6445 C249.548,20.6784 249.646,20.6953 249.758,20.6953 C249.836,20.6953 249.914,20.6882 249.992,20.6738 C250.07,20.6595 250.13,20.6484 250.172,20.6406 L250.434,21.8789 C250.35,21.9049 250.233,21.9355 250.082,21.9707 C249.931,22.0059 249.747,22.0273 249.531,22.0352 C249.13,22.0508 248.779,21.9974 248.479,21.875 C248.178,21.7526 247.944,21.5625 247.777,21.3047 C247.611,21.0469 247.529,20.7214 247.531,20.3281 L247.531,14.5156 M251.398,21.9531 L251.398,15.9531 L253.063,15.9531 L253.063,21.9531 L251.398,21.9531 M252.234,15.1797 C251.987,15.1797 251.775,15.097 251.6,14.9316 C251.424,14.7663 251.336,14.5677 251.336,14.3359 C251.336,14.1068 251.424,13.9095 251.6,13.7441 C251.775,13.5788 251.987,13.4961 252.234,13.4961 C252.482,13.4961 252.693,13.5788 252.869,13.7441 C253.045,13.9095 253.133,14.1068 253.133,14.3359 C253.133,14.5677 253.045,14.7663 252.869,14.9316 C252.693,15.097 252.482,15.1797 252.234,15.1797 M257.094,22.0703 C256.487,22.0703 255.963,21.9408 255.521,21.6816 C255.08,21.4225 254.74,21.0605 254.5,20.5957 C254.26,20.1309 254.141,19.5911 254.141,18.9766 C254.141,18.3568 254.26,17.8145 254.5,17.3496 C254.74,16.8848 255.08,16.5228 255.521,16.2637 C255.963,16.0046 256.487,15.875 257.094,15.875 C257.701,15.875 258.225,16.0046 258.666,16.2637 C259.107,16.5228 259.448,16.8848 259.688,17.3496 C259.927,17.8145 260.047,18.3568 260.047,18.9766 C260.047,19.5911 259.927,20.1309 259.688,20.5957 C259.448,21.0605 259.107,21.4225 258.666,21.6816 C258.225,21.9408 257.701,22.0703 257.094,22.0703 M257.102,20.7813 C257.378,20.7813 257.608,20.7025 257.793,20.5449 C257.978,20.3874 258.118,20.1719 258.213,19.8984 C258.308,19.625 258.355,19.3138 258.355,18.9648 C258.355,18.6159 258.308,18.3047 258.213,18.0313 C258.118,17.7578 257.978,17.5417 257.793,17.3828 C257.608,17.224 257.378,17.1445 257.102,17.1445 C256.823,17.1445 256.589,17.224 256.4,17.3828 C256.212,17.5417 256.07,17.7578 255.975,18.0313 C255.88,18.3047 255.832,18.6159 255.832,18.9648 C255.832,19.3138 255.88,19.625 255.975,19.8984 C256.07,20.1719 256.212,20.3874 256.4,20.5449 C256.589,20.7025 256.823,20.7813 257.102,20.7813 M262.797,18.4844 L262.797,21.9531 L261.133,21.9531 L261.133,15.9531 L262.719,15.9531 L262.719,17.0117 L262.789,17.0117 C262.922,16.6628 263.145,16.3861 263.457,16.1816 C263.77,15.9772 264.148,15.875 264.594,15.875 C265.01,15.875 265.374,15.9661 265.684,16.1484 C265.993,16.3307 266.234,16.5905 266.406,16.9277 C266.578,17.265 266.664,17.6667 266.664,18.1328 L266.664,21.9531 L265,21.9531 L265,18.4297 C265.003,18.0625 264.909,17.7754 264.719,17.5684 C264.529,17.3613 264.267,17.2578 263.934,17.2578 C263.71,17.2578 263.512,17.306 263.342,17.4023 C263.171,17.4987 263.038,17.6387 262.943,17.8223 C262.848,18.0059 262.799,18.2266 262.797,18.4844 M273.699,15.9531 L273.699,17.2031 L270.086,17.2031 L270.086,15.9531 L273.699,15.9531 M270.906,14.5156 L272.57,14.5156 L272.57,20.1094 C272.57,20.263 272.594,20.3822 272.641,20.4668 C272.688,20.5514 272.753,20.6107 272.838,20.6445 C272.923,20.6784 273.021,20.6953 273.133,20.6953 C273.211,20.6953 273.289,20.6882 273.367,20.6738 C273.445,20.6595 273.505,20.6484 273.547,20.6406 L273.809,21.8789 C273.725,21.9049 273.608,21.9355 273.457,21.9707 C273.306,22.0059 273.122,22.0273 272.906,22.0352 C272.505,22.0508 272.154,21.9974 271.854,21.875 C271.553,21.7526 271.319,21.5625 271.152,21.3047 C270.986,21.0469 270.904,20.7214 270.906,20.3281 L270.906,14.5156 M277.422,22.0703 C276.815,22.0703 276.291,21.9408 275.85,21.6816 C275.408,21.4225 275.068,21.0605 274.828,20.5957 C274.589,20.1309 274.469,19.5911 274.469,18.9766 C274.469,18.3568 274.589,17.8145 274.828,17.3496 C275.068,16.8848 275.408,16.5228 275.85,16.2637 C276.291,16.0046 276.815,15.875 277.422,15.875 C278.029,15.875 278.553,16.0046 278.994,16.2637 C279.436,16.5228 279.776,16.8848 280.016,17.3496 C280.255,17.8145 280.375,18.3568 280.375,18.9766 C280.375,19.5911 280.255,20.1309 280.016,20.5957 C279.776,21.0605 279.436,21.4225 278.994,21.6816 C278.553,21.9408 278.029,22.0703 277.422,22.0703 M277.43,20.7813 C277.706,20.7813 277.936,20.7025 278.121,20.5449 C278.306,20.3874 278.446,20.1719 278.541,19.8984 C278.636,19.625 278.684,19.3138 278.684,18.9648 C278.684,18.6159 278.636,18.3047 278.541,18.0313 C278.446,17.7578 278.306,17.5417 278.121,17.3828 C277.936,17.224 277.706,17.1445 277.43,17.1445 C277.151,17.1445 276.917,17.224 276.729,17.3828 C276.54,17.5417 276.398,17.7578 276.303,18.0313 C276.208,18.3047 276.16,18.6159 276.16,18.9648 C276.16,19.3138 276.208,19.625 276.303,19.8984 C276.398,20.1719 276.54,20.3874 276.729,20.5449 C276.917,20.7025 277.151,20.7813 277.43,20.7813 "/>
</g>

<g fill="#ffffff" fill-opacity="1" stroke="none" transform="matrix(0.0285,0,0,0.0285,11.2928,9.44754)"
font-family="Inter" font-size="11" font-weight="700" font-style="normal" 
>
<path vector-effect="none" fill-rule="nonzero" d="M410.778,59.991 C376.729,59.991 346.629,75.6235 326.182,99.684 C216.768,129.689 131.433,215.271 101.927,324.891 C79.5232,345.494 65.3275,374.762 65.54,407.6 C65.7463,439.573 79.3407,468.172 100.975,488.421 C130.228,601.34 218.744,689.335 331.859,718.096 C331.956,718.125 331.989,718.313 332.085,718.338 C352.242,738.376 380.064,750.708 410.778,750.708 C441.492,750.708 469.314,738.376 489.47,718.338 C489.549,718.262 489.618,718.17 489.696,718.096 C604.323,688.948 693.738,598.994 721.758,483.921 C742.939,463.42 756.216,434.907 756.015,403.1 C755.801,370.079 741.086,340.899 718.209,320.633 C687.622,213.077 603.338,129.291 495.373,99.684 C474.926,75.6235 444.827,59.991 410.778,59.991 M410.778,91.8938 C455.052,91.8938 490.89,127.731 490.89,172.006 C490.89,216.28 455.052,252.102 410.778,252.102 C366.503,252.102 330.666,216.28 330.666,172.006 C330.666,127.731 366.503,91.8938 410.778,91.8938 M177.071,325.601 C221.346,325.601 257.183,361.438 257.183,405.713 C257.183,449.987 221.346,485.808 177.071,485.808 C132.796,485.808 96.7332,449.987 96.7332,405.713 C96.7332,361.438 132.796,325.601 177.071,325.601 M644.485,325.601 C688.763,325.601 724.822,361.438 724.822,405.713 C724.822,449.987 688.763,485.808 644.485,485.808 C600.21,485.808 564.373,449.987 564.373,405.713 C564.373,361.438 600.21,325.601 644.485,325.601 M396.601,335.762 L424.955,335.762 C431.754,335.762 437.245,342.538 437.245,350.891 L437.245,381.6 L467.971,381.6 C476.323,381.6 483.083,387.091 483.083,393.89 L483.083,422.245 C483.083,429.044 476.323,434.535 467.971,434.535 L437.245,434.535 L437.245,465.26 C437.245,473.612 431.754,480.373 424.955,480.373 L396.601,480.373 C389.801,480.373 384.31,473.613 384.31,465.26 L384.31,434.535 L353.585,434.535 C345.233,434.535 338.472,429.044 338.472,422.245 L338.472,393.89 C338.472,387.091 345.232,381.6 353.585,381.6 L384.31,381.6 L384.31,350.891 C384.31,342.539 389.801,335.762 396.601,335.762 M410.778,559.307 C455.052,559.307 490.89,595.371 490.89,639.645 C490.89,683.918 455.052,719.757 410.778,719.757 C366.503,719.757 330.666,683.918 330.666,639.645 C330.666,595.371 366.503,559.307 410.778,559.307 "/>
</g>

<g fill="none" stroke="#000000" stroke-opacity="1" stroke-width="22.7975" stroke-linecap="round" stroke-linejoin="round" transform="matrix(0.0285,0,0,0.0285,11.2928,9.44754)"
font-family="Inter" font-size="11" font-weight="700" font-style="normal" 
>
<path vector-effect="none" fill-rule="nonzero" d="M410.778,59.991 C376.729,59.991 346.629,75.6235 326.182,99.684 C216.768,129.689 131.433,215.271 101.927,324.891 C79.5232,345.494 65.3275,374.762 65.54,407.6 C65.7463,439.573 79.3407,468.172 100.975,488.421 C130.228,601.34 218.744,689.335 331.859,718.096 C331.956,718.125 331.989,718.313 332.085,718.338 C352.242,738.376 380.064,750.708 410.778,750.708 C441.492,750.708 469.314,738.376 489.47,718.338 C489.549,718.262 489.618,718.17 489.696,718.096 C604.323,688.948 693.738,598.994 721.758,483.921 C742.939,463.42 756.216,434.907 756.015,403.1 C755.801,370.079 741.086,340.899 718.209,320.633 C687.622,213.077 603.338,129.291 495.373,99.684 C474.926,75.6235 444.827,59.991 410.778,59.991 M410.778,91.8938 C455.052,91.8938 490.89,127.731 490.89,172.006 C490.89,216.28 455.052,252.102 410.778,252.102 C366.503,252.102 330.666,216.28 330.666,172.006 C330.666,127.731 366.503,91.8938 410.778,91.8938 M177.071,325.601 C221.346,325.601 257.183,361.438 257.183,405.713 C257.183,449.987 221.346,485.808 177.071,485.808 C132.796,485.808 96.7332,449.987 96.7332,405.713 C96.7332,361.438 132.796,325.601 177.071,325.601 M644.485,325.601 C688.763,325.601 724.822,361.438 724.822,405.713 C724.822,449.987 688.763,485.808 644.485,485.808 C600.21,485.808 564.373,449.987 564.373,405.713 C564.373,361.438 600.21,325.601 644.485,325.601 M396.601,335.762 L424.955,335.762 C431.754,335.762 437.245,342.538 437.245,350.891 L437.245,381.6 L467.971,381.6 C476.323,381.6 483.083,387.091 483.083,393.89 L483.083,422.245 C483.083,429.044 476.323,434.535 467.971,434.535 L437.245,434.535 L437.245,465.26 C437.245,473.612 431.754,480.373 424.955,480.373 L396.601,480.373 C389.801,480.373 384.31,473.613 384.31,465.26 L384.31,434.535 L353.585,434.535 C345.233,434.535 338.472,429.044 338.472,422.245 L338.472,393.89 C338.472,387.091 345.232,381.6 353.585,381.6 L384.31,381.6 L384.31,350.891 C384.31,342.539 389.801,335.762 396.601,335.762 M410.778,559.307 C455.052,559.307 490.89,595.371 490.89,639.645 C490.89,683.918 455.052,719.757 410.778,719.757 C366.503,719.757 330.666,683.918 330.666,639.645 C330.666,595.371 366.503,559.307 410.778,559.307 "/>
</g>

<g fill="#000000" fill-opacity="1" stroke="none" transform="matrix(0.0285,0,0,0.0285,11.2928,9.44754)"
font-family="Inter" font-size="11" font-weight="700" font-style="normal" 
>
<path vector-effect="none" fill-rule="evenodd" d="M394.961,355.661 C394.961,347.613 401.485,341.088 409.533,341.088 C417.582,341.088 424.106,347.613 424.106,355.661 L424.106,457.48 C424.106,465.528 417.582,472.053 409.533,472.053 C401.485,472.053 394.961,465.528 394.961,457.48 L394.961,355.661"/>
</g>

<g fill="none" stroke="#000000" stroke-opacity="1" stroke-width="20" stroke-linecap="round" stroke-linejoin="round" transform="matrix(0.0285,0,0,0.0285,11.2928,9.44754)"
font-family="Inter" font-size="11" font-weight="700" font-style="normal" 
>
<path vector-effect="none" fill-rule="evenodd" d="M394.961,355.661 C394.961,347.613 401.485,341.088 409.533,341.088 C417.582,341.088 424.106,347.613 424.106,355.661 L424.106,457.48 C424.106,465.528 417.582,472.053 409.533,472.053 C401.485,472.053 394.961,465.528 394.961,457.48 L394.961,355.661"/>
</g>

<g fill="#000000" fill-opacity="1" stroke="none" transform="matrix(0,0.0285,-0.0285,0,11.2928,9.44754)"
font-family="Inter" font-size="11" font-weight="700" font-style="normal" 
>
<path vector-effect="none" fill-rule="evenodd" d="M394.152,-461.016 C394.152,-469.064 400.676,-475.588 408.724,-475.588 C416.773,-475.588 423.297,-469.064 423.297,-461.016 L423.297,-359.196 C423.297,-351.148 416.773,-344.624 408.724,-344.624 C400.676,-344.624 394.152,-351.148 394.152,-359.196 L394.152,-461.016"/>
</g>

<g fill="none" stroke="#000000" stroke-opacity="1" stroke-width="20" stroke-linecap="round" stroke-linejoin="round" transform="matrix(0,0.0285,-0.0285,0,11.2928,9.44754)"
font-family="Inter" font-size="11" font-weight="700" font-style="normal" 
>
<path vector-effect="none" fill-rule="evenodd" d="M394.152,-461.016 C394.152,-469.064 400.676,-475.588 408.724,-475.588 C416.773,-475.588 423.297,-469.064 423.297,-461.016 L423.297,-359.196 C423.297,-351.148 416.773,-344.624 408.724,-344.624 C400.676,-344.624 394.152,-351.148 394.152,-359.196 L394.152,-461.016"/>
</g>

<g fill="#ffffff" fill-opacity="1" stroke="none" transform="matrix(1,0,0,1,0,0)"
font-family="Inter" font-size="11" font-weight="700" font-style="normal" 
>
</g>

<g fill="#ffffff" fill-opacity="1" stroke="#0070ba" stroke-opacity="1" stroke-width="1" stroke-linecap="square" stroke-linejoin="bevel" transform="matrix(1,0,0,1,0,0)"
font-family="Inter" font-size="11" font-weight="700" font-style="normal" 
>
<polyline fill="none" vector-effect="none" points="45,11 45,31 " />
</g>

<g fill="#ffffff" fill-opacity="1" stroke="#0070ba" stroke-opacity="1" stroke-width="1" stroke-linecap="square" stroke-linejoin="bevel" transform="matrix(1,0,0,1,0,0)"
font-family="Inter" font-size="11" font-weight="700" font-style="normal" 
>
</g>

<g fill="#ffffff" fill-opacity="1" stroke="#0070ba" stroke-opacity="1" stroke-width="1" stroke-linecap="square" stroke-linejoin="bevel" transform="matrix(1,0,0,1,0,0)"
font-family="Inter" font-size="11" font-weight="700" font-style="normal" 
>
</g>

<g fill="#0090f5" fill-opacity="1" stroke="#0070ba" stroke-opacity="1" stroke-width="1.2" stroke-linecap="square" stroke-linejoin="bevel" transform="matrix(1,0,0,1,287,6)"
font-family="Inter" font-size="11" font-weight="700" font-style="normal" 
>
<path vector-effect="none" fill-rule="evenodd" d="M0.5,3.5 C0.5,1.84315 1.84315,0.5 3.5,0.5 L65,0.5 C66.6569,0.5 68,1.84315 68,3.5 L68,20.5 C68,22.1569 66.6569,23.5 65,23.5 L3.5,23.5 C1.84315,23.5 0.5,22.1569 0.5,20.5 L0.5,3.5"/>
</g>

<g fill="#ffffff" fill-opacity="1" stroke="none" transform="matrix(1,0,0,1,287,6)"
font-family="Inter" font-size="11" font-weight="700" font-style="normal" 
>
<path vector-effect="none" fill-rule="nonzero" d="M11.9375,16.0195 C11.4818,16.0195 11.0697,15.9017 10.7012,15.666 C10.3327,15.4303 10.041,15.0827 9.82617,14.623 C9.61133,14.1634 9.50391,13.599 9.50391,12.9297 C9.50391,12.2422 9.61458,11.6699 9.83594,11.2129 C10.0573,10.7559 10.3522,10.4134 10.7207,10.1855 C11.0892,9.95768 11.4935,9.84375 11.9336,9.84375 C12.2695,9.84375 12.5501,9.90039 12.7754,10.0137 C13.0007,10.127 13.1829,10.2676 13.3223,10.4355 C13.4616,10.6035 13.5677,10.7682 13.6406,10.9297 L13.6914,10.9297 L13.6914,7.92188 L15.3516,7.92188 L15.3516,15.9219 L13.7109,15.9219 L13.7109,14.9609 L13.6406,14.9609 C13.5625,15.1276 13.4525,15.2923 13.3105,15.4551 C13.1686,15.6178 12.985,15.7526 12.7598,15.8594 C12.5345,15.9661 12.2604,16.0195 11.9375,16.0195 M12.4648,14.6953 C12.7331,14.6953 12.9603,14.6217 13.1465,14.4746 C13.3327,14.3275 13.4759,14.1211 13.5762,13.8555 C13.6764,13.5898 13.7266,13.2786 13.7266,12.9219 C13.7266,12.5651 13.6771,12.2552 13.5781,11.9922 C13.4792,11.7292 13.3359,11.526 13.1484,11.3828 C12.9609,11.2396 12.7331,11.168 12.4648,11.168 C12.1914,11.168 11.9609,11.2422 11.7734,11.3906 C11.5859,11.5391 11.444,11.7448 11.3477,12.0078 C11.2513,12.2708 11.2031,12.5755 11.2031,12.9219 C11.2031,13.2708 11.252,13.5788 11.3496,13.8457 C11.4473,14.1126 11.5892,14.321 11.7754,14.4707 C11.9616,14.6204 12.1914,14.6953 12.4648,14.6953 M19.4453,16.0391 C18.8281,16.0391 18.2975,15.9134 17.8535,15.6621 C17.4095,15.4108 17.0677,15.054 16.8281,14.5918 C16.5885,14.1296 16.4688,13.582 16.4688,12.9492 C16.4688,12.332 16.5885,11.7904 16.8281,11.3242 C17.0677,10.8581 17.4056,10.4948 17.8418,10.2344 C18.278,9.97396 18.7904,9.84375 19.3789,9.84375 C19.7747,9.84375 20.1439,9.9069 20.4863,10.0332 C20.8288,10.1595 21.1283,10.349 21.3848,10.6016 C21.6413,10.8542 21.8411,11.1712 21.9844,11.5527 C22.1276,11.9342 22.1992,12.3802 22.1992,12.8906 L22.1992,13.3477 L17.1328,13.3477 L17.1328,12.3164 L20.6328,12.3164 C20.6328,12.0768 20.5807,11.8646 20.4766,11.6797 C20.3724,11.4948 20.2285,11.3496 20.0449,11.2441 C19.8613,11.1387 19.6484,11.0859 19.4063,11.0859 C19.1536,11.0859 18.9303,11.1439 18.7363,11.2598 C18.5423,11.3757 18.3906,11.5306 18.2813,11.7246 C18.1719,11.9186 18.1159,12.1341 18.1133,12.3711 L18.1133,13.3516 C18.1133,13.6484 18.1686,13.9049 18.2793,14.1211 C18.39,14.3372 18.5469,14.5039 18.75,14.6211 C18.9531,14.7383 19.194,14.7969 19.4727,14.7969 C19.6576,14.7969 19.8268,14.7708 19.9805,14.7188 C20.1341,14.6667 20.2656,14.5885 20.375,14.4844 C20.4844,14.3802 20.5677,14.2526 20.625,14.1016 L22.1641,14.2031 C22.0859,14.5729 21.9264,14.8952 21.6855,15.1699 C21.4447,15.4447 21.1348,15.6582 20.7559,15.8105 C20.377,15.9629 19.9401,16.0391 19.4453,16.0391 M26.5,9.92188 L26.5,11.1719 L22.7969,11.1719 L22.7969,9.92188 L26.5,9.92188 M23.6445,15.9219 L23.6445,9.48828 C23.6445,9.05339 23.7298,8.69271 23.9004,8.40625 C24.071,8.11979 24.3047,7.90495 24.6016,7.76172 C24.8984,7.61849 25.2357,7.54688 25.6133,7.54688 C25.8685,7.54688 26.1022,7.56641 26.3145,7.60547 C26.5267,7.64453 26.6849,7.67969 26.7891,7.71094 L26.4922,8.96094 C26.4271,8.9401 26.347,8.92057 26.252,8.90234 C26.1569,8.88411 26.0599,8.875 25.9609,8.875 C25.7161,8.875 25.5456,8.93164 25.4492,9.04492 C25.3529,9.1582 25.3047,9.31641 25.3047,9.51953 L25.3047,15.9219 L23.6445,15.9219 M29,16.0352 C28.6172,16.0352 28.276,15.9681 27.9766,15.834 C27.6771,15.6999 27.4408,15.5007 27.2676,15.2363 C27.0944,14.972 27.0078,14.6419 27.0078,14.2461 C27.0078,13.9128 27.069,13.6328 27.1914,13.4063 C27.3138,13.1797 27.4805,12.9974 27.6914,12.8594 C27.9023,12.7214 28.1426,12.6172 28.4121,12.5469 C28.6816,12.4766 28.9648,12.4271 29.2617,12.3984 C29.6107,12.362 29.8919,12.3275 30.1055,12.2949 C30.319,12.2624 30.474,12.2135 30.5703,12.1484 C30.6667,12.0833 30.7148,11.987 30.7148,11.8594 L30.7148,11.8359 C30.7148,11.5885 30.6374,11.3971 30.4824,11.2617 C30.3275,11.1263 30.1081,11.0586 29.8242,11.0586 C29.5247,11.0586 29.2865,11.1243 29.1094,11.2559 C28.9323,11.3874 28.8151,11.5521 28.7578,11.75 L27.2188,11.625 C27.2969,11.2604 27.4505,10.9447 27.6797,10.6777 C27.9089,10.4108 28.2051,10.2051 28.5684,10.0605 C28.9316,9.91602 29.3529,9.84375 29.832,9.84375 C30.1654,9.84375 30.485,9.88281 30.791,9.96094 C31.097,10.0391 31.3691,10.1602 31.6074,10.3242 C31.8457,10.4883 32.0339,10.6986 32.1719,10.9551 C32.3099,11.2116 32.3789,11.5182 32.3789,11.875 L32.3789,15.9219 L30.8008,15.9219 L30.8008,15.0898 L30.7539,15.0898 C30.6576,15.2773 30.5286,15.4421 30.3672,15.584 C30.2057,15.7259 30.0117,15.8366 29.7852,15.916 C29.5586,15.9954 29.2969,16.0352 29,16.0352 M29.4766,14.8867 C29.7214,14.8867 29.9375,14.8379 30.125,14.7402 C30.3125,14.6426 30.4596,14.5104 30.5664,14.3438 C30.6732,14.1771 30.7266,13.9883 30.7266,13.7773 L30.7266,13.1406 C30.6745,13.1745 30.6035,13.2051 30.5137,13.2324 C30.4238,13.2598 30.3229,13.2845 30.2109,13.3066 C30.099,13.3288 29.987,13.3483 29.875,13.3652 C29.763,13.3822 29.6615,13.3971 29.5703,13.4102 C29.375,13.4388 29.2044,13.4844 29.0586,13.5469 C28.9128,13.6094 28.7995,13.6934 28.7188,13.7988 C28.638,13.9043 28.5977,14.0352 28.5977,14.1914 C28.5977,14.418 28.6803,14.5905 28.8457,14.709 C29.0111,14.8275 29.2214,14.8867 29.4766,14.8867 M37.5117,13.3672 L37.5117,9.92188 L39.1758,9.92188 L39.1758,15.9219 L37.5781,15.9219 L37.5781,14.832 L37.5156,14.832 C37.3802,15.1836 37.1556,15.4661 36.8418,15.6797 C36.528,15.8932 36.1458,16 35.6953,16 C35.2943,16 34.9414,15.9089 34.6367,15.7266 C34.332,15.5443 34.0944,15.2852 33.9238,14.9492 C33.7533,14.6133 33.6667,14.2109 33.6641,13.7422 L33.6641,9.92188 L35.3281,9.92188 L35.3281,13.4453 C35.3307,13.7995 35.4258,14.0794 35.6133,14.2852 C35.8008,14.4909 36.0521,14.5938 36.3672,14.5938 C36.5677,14.5938 36.7552,14.5475 36.9297,14.4551 C37.1042,14.3626 37.2454,14.2253 37.3535,14.043 C37.4616,13.8607 37.5143,13.6354 37.5117,13.3672 M42.1563,7.92188 L42.1563,15.9219 L40.4922,15.9219 L40.4922,7.92188 L42.1563,7.92188 M46.668,9.92188 L46.668,11.1719 L43.0547,11.1719 L43.0547,9.92188 L46.668,9.92188 M43.875,8.48438 L45.5391,8.48438 L45.5391,14.0781 C45.5391,14.2318 45.5625,14.3509 45.6094,14.4355 C45.6563,14.5202 45.722,14.5794 45.8066,14.6133 C45.8913,14.6471 45.9896,14.6641 46.1016,14.6641 C46.1797,14.6641 46.2578,14.6569 46.3359,14.6426 C46.4141,14.6283 46.474,14.6172 46.5156,14.6094 L46.7773,15.8477 C46.694,15.8737 46.5768,15.9043 46.4258,15.9395 C46.2747,15.9746 46.0911,15.9961 45.875,16.0039 C45.474,16.0195 45.123,15.9661 44.8223,15.8438 C44.5215,15.7214 44.2878,15.5313 44.1211,15.2734 C43.9544,15.0156 43.8724,14.6901 43.875,14.2969 L43.875,8.48438"/>
</g>

<g fill="#ffffff" fill-opacity="1" stroke="none" transform="matrix(0.03125,0,0,0.03125,341.5,14)"
font-family="Inter" font-size="11" font-weight="700" font-style="normal" 
>
<path vector-effect="none" fill-rule="nonzero" d="M111.326,191.938 C120.545,201.158 135.517,201.158 144.737,191.938 L239.144,97.5313 C245.929,90.7458 247.921,80.6413 244.233,71.7907 C240.545,62.9401 231.989,57.1871 222.401,57.1871 L33.5875,57.2608 C24.0731,57.2608 15.4437,63.0137 11.7559,71.8644 C8.06815,80.715 10.1333,90.8195 16.845,97.605 L111.252,192.012 L111.326,191.938"/>
</g>

<g fill="none" stroke="#000000" stroke-opacity="1" stroke-width="13.7195" stroke-linecap="butt" stroke-linejoin="miter" stroke-miterlimit="4" transform="matrix(0.03125,0,0,0.03125,341.5,14)"
font-family="Inter" font-size="11" font-weight="700" font-style="normal" 
>
<path vector-effect="none" fill-rule="nonzero" d="M111.326,191.938 C120.545,201.158 135.517,201.158 144.737,191.938 L239.144,97.5313 C245.929,90.7458 247.921,80.6413 244.233,71.7907 C240.545,62.9401 231.989,57.1871 222.401,57.1871 L33.5875,57.2608 C24.0731,57.2608 15.4437,63.0137 11.7559,71.8644 C8.06815,80.715 10.1333,90.8195 16.845,97.605 L111.252,192.012 L111.326,191.938"/>
</g>

<g fill="#ffffff" fill-opacity="1" stroke="none" transform="matrix(1,0,0,1,287,6)"
font-family="Inter" font-size="11" font-weight="700" font-style="normal" 
>
</g>

<g fill="#ffffff" fill-opacity="1" stroke="#0070ba" stroke-opacity="1" stroke-width="1" stroke-linecap="square" stroke-linejoin="bevel" transform="matrix(1,0,0,1,0,0)"
font-family="Inter" font-size="11" font-weight="700" font-style="normal" 
>
</g>

<g fill="#ffffff" fill-opacity="1" stroke="#0070ba" stroke-opacity="1" stroke-width="1" stroke-linecap="square" stroke-linejoin="bevel" transform="matrix(1,0,0,1,0,0)"
font-family="Inter" font-size="11" font-weight="700" font-style="normal" 
>
</g>

<g fill="#0090f5" fill-opacity="1" stroke="#0070ba" stroke-opacity="1" stroke-width="1.2" stroke-linecap="square" stroke-linejoin="bevel" transform="matrix(1,0,0,1,56,6)"
font-family="Inter" font-size="11" font-weight="700" font-style="normal" 
>
<path vector-effect="none" fill-rule="evenodd" d="M0.5,3.5 C0.5,1.84315 1.84315,0.5 3.5,0.5 L71.5,0.5 C73.1569,0.5 74.5,1.84315 74.5,3.5 L74.5,20.5 C74.5,22.1569 73.1569,23.5 71.5,23.5 L3.5,23.5 C1.84315,23.5 0.5,22.1569 0.5,20.5 L0.5,3.5"/>
</g>

<g fill="#ffffff" fill-opacity="1" stroke="none" transform="matrix(1,0,0,1,56,6)"
font-family="Inter" font-size="11" font-weight="700" font-style="normal" 
>
<path vector-effect="none" fill-rule="nonzero" d="M10,9.39453 L10,8 L16.5703,8 L16.5703,9.39453 L14.1211,9.39453 L14.1211,16 L12.4492,16 L12.4492,9.39453 L10,9.39453 M17.6484,16 L17.6484,8 L19.3398,8 L19.3398,11.3008 L22.7734,11.3008 L22.7734,8 L24.4609,8 L24.4609,16 L22.7734,16 L22.7734,12.6953 L19.3398,12.6953 L19.3398,16 L17.6484,16 M32.543,8 L32.543,16 L31.082,16 L27.6016,10.9648 L27.543,10.9648 L27.543,16 L25.8516,16 L25.8516,8 L27.3359,8 L30.7891,13.0313 L30.8594,13.0313 L30.8594,8 L32.543,8 M33.9297,16 L33.9297,8 L35.6211,8 L35.6211,11.3008 L39.0547,11.3008 L39.0547,8 L40.7422,8 L40.7422,16 L39.0547,16 L39.0547,12.6953 L35.6211,12.6953 L35.6211,16 L33.9297,16 M42.1328,16 L42.1328,8 L45.3359,8 C45.9245,8 46.4154,8.08724 46.8086,8.26172 C47.2018,8.4362 47.4974,8.67773 47.6953,8.98633 C47.8932,9.29492 47.9922,9.64974 47.9922,10.0508 C47.9922,10.3633 47.9297,10.6374 47.8047,10.873 C47.6797,11.1087 47.5085,11.3014 47.291,11.4512 C47.0736,11.6009 46.8255,11.707 46.5469,11.7695 L46.5469,11.8477 C46.8516,11.8607 47.1374,11.9466 47.4043,12.1055 C47.6712,12.2643 47.888,12.4863 48.0547,12.7715 C48.2214,13.0566 48.3047,13.3958 48.3047,13.7891 C48.3047,14.2135 48.1999,14.5918 47.9902,14.9238 C47.7806,15.2559 47.4714,15.5182 47.0625,15.7109 C46.6536,15.9036 46.1497,16 45.5508,16 L42.1328,16 M43.8242,14.6172 L45.2031,14.6172 C45.6745,14.6172 46.0182,14.5267 46.2344,14.3457 C46.4505,14.1647 46.5586,13.9232 46.5586,13.6211 C46.5586,13.3997 46.5052,13.2044 46.3984,13.0352 C46.2917,12.8659 46.14,12.7331 45.9434,12.6367 C45.7467,12.5404 45.513,12.4922 45.2422,12.4922 L43.8242,12.4922 L43.8242,14.6172 M43.8242,11.3477 L45.0781,11.3477 C45.3099,11.3477 45.5163,11.3066 45.6973,11.2246 C45.8783,11.1426 46.0215,11.026 46.127,10.875 C46.2324,10.724 46.2852,10.543 46.2852,10.332 C46.2852,10.043 46.1829,9.8099 45.9785,9.63281 C45.7741,9.45573 45.4844,9.36719 45.1094,9.36719 L43.8242,9.36719 L43.8242,11.3477 M52.832,8 L52.832,16 L51.1406,16 L51.1406,9.60547 L51.0938,9.60547 L49.2617,10.7539 L49.2617,9.25391 L51.2422,8 L52.832,8"/>
</g>

<g fill="#ffffff" fill-opacity="1" stroke="none" transform="matrix(0.03125,0,0,0.03125,117,14)"
font-family="Inter" font-size="11" font-weight="700" font-style="normal" 
>
<path vector-effect="none" fill-rule="nonzero" d="M111.326,191.938 C120.545,201.158 135.517,201.158 144.737,191.938 L239.144,97.5313 C245.929,90.7458 247.921,80.6413 244.233,71.7907 C240.545,62.9401 231.989,57.1871 222.401,57.1871 L33.5875,57.2608 C24.0731,57.2608 15.4437,63.0137 11.7559,71.8644 C8.06815,80.715 10.1333,90.8195 16.845,97.605 L111.252,192.012 L111.326,191.938"/>
</g>

<g fill="none" stroke="#000000" stroke-opacity="1" stroke-width="13.7195" stroke-linecap="butt" stroke-linejoin="miter" stroke-miterlimit="4" transform="matrix(0.03125,0,0,0.03125,117,14)"
font-family="Inter" font-size="11" font-weight="700" font-style="normal" 
>
<path vector-effect="none" fill-rule="nonzero" d="M111.326,191.938 C120.545,201.158 135.517,201.158 144.737,191.938 L239.144,97.5313 C245.929,90.7458 247.921,80.6413 244.233,71.7907 C240.545,62.9401 231.989,57.1871 222.401,57.1871 L33.5875,57.2608 C24.0731,57.2608 15.4437,63.0137 11.7559,71.8644 C8.06815,80.715 10.1333,90.8195 16.845,97.605 L111.252,192.012 L111.326,191.938"/>
</g>

<g fill="#ffffff" fill-opacity="1" stroke="none" transform="matrix(1,0,0,1,56,6)"
font-family="Inter" font-size="11" font-weight="700" font-style="normal" 
>
</g>

<g fill="#ffffff" fill-opacity="1" stroke="#0070ba" stroke-opacity="1" stroke-width="1" stroke-linecap="square" stroke-linejoin="bevel" transform="matrix(1,0,0,1,0,0)"
font-family="Inter" font-size="11" font-weight="700" font-style="normal" 
>
</g>

<g fill="#0070ba" fill-opacity="1" stroke="#0070ba" stroke-opacity="1" stroke-width="1.2" stroke-linecap="square" stroke-linejoin="bevel" transform="matrix(1,0,0,1,135,6)"
font-family="Inter" font-size="11" font-weight="700" font-style="normal" 
>
<path vector-effect="none" fill-rule="evenodd" d="M0.5,12 C0.5,5.64873 5.87258,0.5 12.5,0.5 L27.5,0.5 C34.1274,0.5 39.5,5.64873 39.5,12 C39.5,18.3513 34.1274,23.5 27.5,23.5 L12.5,23.5 C5.87258,23.5 0.5,18.3513 0.5,12 "/>
</g>

<g fill="#ffffff" fill-opacity="1" stroke="none" transform="matrix(1,0,0,1,135,6)"
font-family="Inter" font-size="11" font-weight="700" font-style="normal" 
>
<path vector-effect="none" fill-rule="nonzero" d="M11.8242,16 L10.0117,16 L12.7734,8 L14.9531,8 L17.7109,16 L15.8984,16 L13.8945,9.82813 L13.832,9.82813 L11.8242,16 M11.7109,12.8555 L15.9922,12.8555 L15.9922,14.1758 L11.7109,14.1758 L11.7109,12.8555"/>
</g>

<g fill="#ffffff" fill-opacity="1" stroke="none" transform="matrix(0.03125,0,0,0.03125,161,14)"
font-family="Inter" font-size="11" font-weight="700" font-style="normal" 
>
<path vector-effect="none" fill-rule="nonzero" d="M111.326,191.938 C120.545,201.158 135.517,201.158 144.737,191.938 L239.144,97.5313 C245.929,90.7458 247.921,80.6413 244.233,71.7907 C240.545,62.9401 231.989,57.1871 222.401,57.1871 L33.5875,57.2608 C24.0731,57.2608 15.4437,63.0137 11.7559,71.8644 C8.06815,80.715 10.1333,90.8195 16.845,97.605 L111.252,192.012 L111.326,191.938"/>
</g>

<g fill="none" stroke="#000000" stroke-opacity="1" stroke-width="13.7195" stroke-linecap="butt" stroke-linejoin="miter" stroke-miterlimit="4" transform="matrix(0.03125,0,0,0.03125,161,14)"
font-family="Inter" font-size="11" font-weight="700" font-style="normal" 
>
<path vector-effect="none" fill-rule="nonzero" d="M111.326,191.938 C120.545,201.158 135.517,201.158 144.737,191.938 L239.144,97.5313 C245.929,90.7458 247.921,80.6413 244.233,71.7907 C240.545,62.9401 231.989,57.1871 222.401,57.1871 L33.5875,57.2608 C24.0731,57.2608 15.4437,63.0137 11.7559,71.8644 C8.06815,80.715 10.1333,90.8195 16.845,97.605 L111.252,192.012 L111.326,191.938"/>
</g>

<g fill="#ffffff" fill-opacity="1" stroke="none" transform="matrix(1,0,0,1,135,6)"
font-family="Inter" font-size="11" font-weight="700" font-style="normal" 
>
</g>

<g fill="#ffffff" fill-opacity="1" stroke="#0070ba" stroke-opacity="1" stroke-width="1" stroke-linecap="square" stroke-linejoin="bevel" transform="matrix(1,0,0,1,0,0)"
font-family="Inter" font-size="11" font-weight="700" font-style="normal" 
>
</g>

<g fill="none" stroke="#000000" stroke-opacity="1" stroke-width="1" stroke-linecap="square" stroke-linejoin="bevel" transform="matrix(1,0,0,1,0,0)"
font-family=".AppleSystemUIFont" font-size="13" font-weight="400" font-style="normal" 
>
</g>
</g>
</svg>
