<?xml version="1.0" encoding="UTF-8" standalone="no"?>
<svg width="52.2111mm" height="15.5222mm"
 viewBox="0 0 148 44"
 xmlns="http://www.w3.org/2000/svg" xmlns:xlink="http://www.w3.org/1999/xlink" version="1.2" baseProfile="tiny">
<title>Abstract block</title>
<desc>block_lists_add</desc>
<defs>
</defs>
<g fill="none" stroke="black" stroke-width="1" fill-rule="evenodd" stroke-linecap="square" stroke-linejoin="bevel" >

<g fill="none" stroke="#000000" stroke-opacity="1" stroke-width="1" stroke-linecap="square" stroke-linejoin="bevel" transform="matrix(1,0,0,1,0,0)"
font-family=".AppleSystemUIFont" font-size="13" font-weight="400" font-style="normal" 
>
</g>

<g fill="none" stroke="#000000" stroke-opacity="1" stroke-width="1" stroke-linecap="square" stroke-linejoin="bevel" transform="matrix(1,0,0,1,0,0)"
font-family=".AppleSystemUIFont" font-size="13" font-weight="400" font-style="normal" 
>
</g>

<g fill="#ff661a" fill-opacity="1" stroke="#de4600" stroke-opacity="1" stroke-width="1.2" stroke-linecap="square" stroke-linejoin="bevel" transform="matrix(1,0,0,1,0,0)"
font-family=".AppleSystemUIFont" font-size="13" font-weight="400" font-style="normal" 
>
<path vector-effect="none" fill-rule="evenodd" d="M0.5,4.5 L1.04612,2.48112 L2.48112,1.04612 L4.5,0.5 L9.625,0.5 L10.416,0.976563 L11.1719,1.6875 L11.998,2.67969 L13,4 L13.7559,4.66016 L14.5469,5.15625 L15.4082,5.51172 L16.375,5.75 L17.4824,5.89453 L18.7656,5.96875 L20.2598,5.99609 L22,6 L23.7402,5.99609 L25.2344,5.96875 L26.5176,5.89453 L27.625,5.75 L28.5918,5.51172 L29.4531,5.15625 L30.2441,4.66016 L31,4 L32.002,2.67969 L32.8281,1.6875 L33.584,0.976563 L34.375,0.5 L142.609,0.5 L144.628,1.04612 L146.063,2.48112 L146.609,4.5 L146.609,31.5 L146.063,33.5189 L144.628,34.9539 L142.609,35.5 L34.375,35.5 L33.584,35.9766 L32.8281,36.6875 L32.002,37.6797 L31,39 L30.2441,39.6602 L29.4531,40.1563 L28.5918,40.5117 L27.625,40.75 L26.5176,40.8945 L25.2344,40.9688 L23.7402,40.9961 L22,41 L20.2598,40.9961 L18.7656,40.9688 L17.4824,40.8945 L16.375,40.75 L15.4082,40.5117 L14.5469,40.1563 L13.7559,39.6602 L13,39 L11.998,37.6797 L11.1719,36.6875 L10.416,35.9766 L9.625,35.5 L4.5,35.5 L2.48112,34.9539 L1.04612,33.5189 L0.5,31.5 L0.5,4.5"/>
</g>

<g fill="#ffffff" fill-opacity="1" stroke="none" transform="matrix(1,0,0,1,0,0)"
font-family="Inter" font-size="11" font-weight="700" font-style="normal" 
>
<path vector-effect="none" fill-rule="nonzero" d="M13.7656,22.0195 C13.3828,22.0195 13.0417,21.9525 12.7422,21.8184 C12.4427,21.6842 12.2064,21.485 12.0332,21.2207 C11.86,20.9564 11.7734,20.6263 11.7734,20.2305 C11.7734,19.8971 11.8346,19.6172 11.957,19.3906 C12.0794,19.1641 12.2461,18.9818 12.457,18.8438 C12.668,18.7057 12.9082,18.6016 13.1777,18.5313 C13.4473,18.4609 13.7305,18.4115 14.0273,18.3828 C14.3763,18.3464 14.6576,18.3118 14.8711,18.2793 C15.0846,18.2467 15.2396,18.1979 15.3359,18.1328 C15.4323,18.0677 15.4805,17.9714 15.4805,17.8438 L15.4805,17.8203 C15.4805,17.5729 15.403,17.3815 15.248,17.2461 C15.0931,17.1107 14.8737,17.043 14.5898,17.043 C14.2904,17.043 14.0521,17.1087 13.875,17.2402 C13.6979,17.3717 13.5807,17.5365 13.5234,17.7344 L11.9844,17.6094 C12.0625,17.2448 12.2161,16.929 12.4453,16.6621 C12.6745,16.3952 12.9707,16.1895 13.334,16.0449 C13.6973,15.9004 14.1185,15.8281 14.5977,15.8281 C14.931,15.8281 15.2507,15.8672 15.5566,15.9453 C15.8626,16.0234 16.1348,16.1445 16.373,16.3086 C16.6113,16.4727 16.7995,16.6829 16.9375,16.9395 C17.0755,17.196 17.1445,17.5026 17.1445,17.8594 L17.1445,21.9063 L15.5664,21.9063 L15.5664,21.0742 L15.5195,21.0742 C15.4232,21.2617 15.2943,21.4264 15.1328,21.5684 C14.9714,21.7103 14.7773,21.821 14.5508,21.9004 C14.3242,21.9798 14.0625,22.0195 13.7656,22.0195 M14.2422,20.8711 C14.487,20.8711 14.7031,20.8223 14.8906,20.7246 C15.0781,20.627 15.2253,20.4948 15.332,20.3281 C15.4388,20.1615 15.4922,19.9727 15.4922,19.7617 L15.4922,19.125 C15.4401,19.1589 15.3691,19.1895 15.2793,19.2168 C15.1895,19.2441 15.0885,19.2689 14.9766,19.291 C14.8646,19.3132 14.7526,19.3327 14.6406,19.3496 C14.5286,19.3665 14.4271,19.3815 14.3359,19.3945 C14.1406,19.4232 13.9701,19.4688 13.8242,19.5313 C13.6784,19.5938 13.5651,19.6777 13.4844,19.7832 C13.4036,19.8887 13.3633,20.0195 13.3633,20.1758 C13.3633,20.4023 13.446,20.5749 13.6113,20.6934 C13.7767,20.8118 13.987,20.8711 14.2422,20.8711 M20.6406,22.0039 C20.1849,22.0039 19.7728,21.8861 19.4043,21.6504 C19.0358,21.4147 18.7441,21.0671 18.5293,20.6074 C18.3145,20.1478 18.207,19.5833 18.207,18.9141 C18.207,18.2266 18.3177,17.6543 18.5391,17.1973 C18.7604,16.7402 19.0553,16.3978 19.4238,16.1699 C19.7923,15.9421 20.1966,15.8281 20.6367,15.8281 C20.9727,15.8281 21.2533,15.8848 21.4785,15.998 C21.7038,16.1113 21.8861,16.252 22.0254,16.4199 C22.1647,16.5879 22.2708,16.7526 22.3438,16.9141 L22.3945,16.9141 L22.3945,13.9063 L24.0547,13.9063 L24.0547,21.9063 L22.4141,21.9063 L22.4141,20.9453 L22.3438,20.9453 C22.2656,21.112 22.1556,21.2767 22.0137,21.4395 C21.8717,21.6022 21.6882,21.737 21.4629,21.8438 C21.2376,21.9505 20.9635,22.0039 20.6406,22.0039 M21.168,20.6797 C21.4362,20.6797 21.6634,20.6061 21.8496,20.459 C22.0358,20.3118 22.179,20.1055 22.2793,19.8398 C22.3796,19.5742 22.4297,19.263 22.4297,18.9063 C22.4297,18.5495 22.3802,18.2396 22.2813,17.9766 C22.1823,17.7135 22.0391,17.5104 21.8516,17.3672 C21.6641,17.224 21.4362,17.1523 21.168,17.1523 C20.8945,17.1523 20.6641,17.2266 20.4766,17.375 C20.2891,17.5234 20.1471,17.7292 20.0508,17.9922 C19.9544,18.2552 19.9063,18.5599 19.9063,18.9063 C19.9063,19.2552 19.9551,19.5632 20.0527,19.8301 C20.1504,20.097 20.2923,20.3053 20.4785,20.4551 C20.6647,20.6048 20.8945,20.6797 21.168,20.6797 M27.625,22.0039 C27.1693,22.0039 26.7572,21.8861 26.3887,21.6504 C26.0202,21.4147 25.7285,21.0671 25.5137,20.6074 C25.2988,20.1478 25.1914,19.5833 25.1914,18.9141 C25.1914,18.2266 25.3021,17.6543 25.5234,17.1973 C25.7448,16.7402 26.0397,16.3978 26.4082,16.1699 C26.7767,15.9421 27.181,15.8281 27.6211,15.8281 C27.957,15.8281 28.2376,15.8848 28.4629,15.998 C28.6882,16.1113 28.8704,16.252 29.0098,16.4199 C29.1491,16.5879 29.2552,16.7526 29.3281,16.9141 L29.3789,16.9141 L29.3789,13.9063 L31.0391,13.9063 L31.0391,21.9063 L29.3984,21.9063 L29.3984,20.9453 L29.3281,20.9453 C29.25,21.112 29.14,21.2767 28.998,21.4395 C28.8561,21.6022 28.6725,21.737 28.4473,21.8438 C28.222,21.9505 27.9479,22.0039 27.625,22.0039 M28.1523,20.6797 C28.4206,20.6797 28.6478,20.6061 28.834,20.459 C29.0202,20.3118 29.1634,20.1055 29.2637,19.8398 C29.3639,19.5742 29.4141,19.263 29.4141,18.9063 C29.4141,18.5495 29.3646,18.2396 29.2656,17.9766 C29.1667,17.7135 29.0234,17.5104 28.8359,17.3672 C28.6484,17.224 28.4206,17.1523 28.1523,17.1523 C27.8789,17.1523 27.6484,17.2266 27.4609,17.375 C27.2734,17.5234 27.1315,17.7292 27.0352,17.9922 C26.9388,18.2552 26.8906,18.5599 26.8906,18.9063 C26.8906,19.2552 26.9395,19.5632 27.0371,19.8301 C27.1348,20.097 27.2767,20.3053 27.4629,20.4551 C27.6491,20.6048 27.8789,20.6797 28.1523,20.6797 "/>
</g>

<g fill="#ffffff" fill-opacity="1" stroke="none" transform="matrix(1,0,0,1,0,0)"
font-family="Inter" font-size="11" font-weight="700" font-style="normal" 
>
<path vector-effect="none" fill-rule="nonzero" d="M80.3867,15.4531 L80.3867,16.7031 L76.7734,16.7031 L76.7734,15.4531 L80.3867,15.4531 M77.5938,14.0156 L79.2578,14.0156 L79.2578,19.6094 C79.2578,19.763 79.2813,19.8822 79.3281,19.9668 C79.375,20.0514 79.4408,20.1107 79.5254,20.1445 C79.61,20.1784 79.7083,20.1953 79.8203,20.1953 C79.8984,20.1953 79.9766,20.1882 80.0547,20.1738 C80.1328,20.1595 80.1927,20.1484 80.2344,20.1406 L80.4961,21.3789 C80.4128,21.4049 80.2956,21.4355 80.1445,21.4707 C79.9935,21.5059 79.8099,21.5273 79.5938,21.5352 C79.1927,21.5508 78.8418,21.4974 78.541,21.375 C78.2402,21.2526 78.0065,21.0625 77.8398,20.8047 C77.6732,20.5469 77.5911,20.2214 77.5938,19.8281 L77.5938,14.0156 M84.1094,21.5703 C83.5026,21.5703 82.9785,21.4408 82.5371,21.1816 C82.0957,20.9225 81.7552,20.5605 81.5156,20.0957 C81.276,19.6309 81.1563,19.0911 81.1563,18.4766 C81.1563,17.8568 81.276,17.3145 81.5156,16.8496 C81.7552,16.3848 82.0957,16.0228 82.5371,15.7637 C82.9785,15.5046 83.5026,15.375 84.1094,15.375 C84.7161,15.375 85.2402,15.5046 85.6816,15.7637 C86.123,16.0228 86.4635,16.3848 86.7031,16.8496 C86.9427,17.3145 87.0625,17.8568 87.0625,18.4766 C87.0625,19.0911 86.9427,19.6309 86.7031,20.0957 C86.4635,20.5605 86.123,20.9225 85.6816,21.1816 C85.2402,21.4408 84.7161,21.5703 84.1094,21.5703 M84.1172,20.2813 C84.3932,20.2813 84.6237,20.2025 84.8086,20.0449 C84.9935,19.8874 85.1335,19.6719 85.2285,19.3984 C85.3236,19.125 85.3711,18.8138 85.3711,18.4648 C85.3711,18.1159 85.3236,17.8047 85.2285,17.5313 C85.1335,17.2578 84.9935,17.0417 84.8086,16.8828 C84.6237,16.724 84.3932,16.6445 84.1172,16.6445 C83.8385,16.6445 83.6048,16.724 83.416,16.8828 C83.2272,17.0417 83.0853,17.2578 82.9902,17.5313 C82.8952,17.8047 82.8477,18.1159 82.8477,18.4648 C82.8477,18.8138 82.8952,19.125 82.9902,19.3984 C83.0853,19.6719 83.2272,19.8874 83.416,20.0449 C83.6048,20.2025 83.8385,20.2813 84.1172,20.2813 "/>
</g>

<g fill="#ffffff" fill-opacity="1" stroke="none" transform="matrix(1,0,0,1,0,0)"
font-family="Inter" font-size="11" font-weight="700" font-style="normal" 
>
</g>

<g fill="#ffffff" fill-opacity="1" stroke="none" transform="matrix(1,0,0,1,0,0)"
font-family="Inter" font-size="11" font-weight="700" font-style="normal" 
>
</g>

<g fill="#ff661a" fill-opacity="1" stroke="#de4600" stroke-opacity="1" stroke-width="1.2" stroke-linecap="square" stroke-linejoin="bevel" transform="matrix(1,0,0,1,93.6094,6)"
font-family="Inter" font-size="11" font-weight="700" font-style="normal" 
>
<path vector-effect="none" fill-rule="evenodd" d="M0.5,3.5 C0.5,1.84315 1.84315,0.5 3.5,0.5 L44,0.5 C45.6569,0.5 47,1.84315 47,3.5 L47,20.5 C47,22.1569 45.6569,23.5 44,23.5 L3.5,23.5 C1.84315,23.5 0.5,22.1569 0.5,20.5 L0.5,3.5"/>
</g>

<g fill="#ffffff" fill-opacity="1" stroke="none" transform="matrix(1,0,0,1,93.6094,6)"
font-family="Inter" font-size="11" font-weight="700" font-style="normal" 
>
<path vector-effect="none" fill-rule="nonzero" d="M11.1719,7.95313 L11.1719,15.9531 L9.50781,15.9531 L9.50781,7.95313 L11.1719,7.95313 M12.4922,15.9531 L12.4922,9.95313 L14.1563,9.95313 L14.1563,15.9531 L12.4922,15.9531 M13.3281,9.17969 C13.0807,9.17969 12.8691,9.09701 12.6934,8.93164 C12.5176,8.76628 12.4297,8.56771 12.4297,8.33594 C12.4297,8.10677 12.5176,7.90951 12.6934,7.74414 C12.8691,7.57878 13.0807,7.49609 13.3281,7.49609 C13.5755,7.49609 13.7871,7.57878 13.9629,7.74414 C14.1387,7.90951 14.2266,8.10677 14.2266,8.33594 C14.2266,8.56771 14.1387,8.76628 13.9629,8.93164 C13.7871,9.09701 13.5755,9.17969 13.3281,9.17969 M20.4688,11.6641 L18.9453,11.7578 C18.9193,11.6276 18.8633,11.5098 18.7773,11.4043 C18.6914,11.2988 18.5788,11.2142 18.4395,11.1504 C18.3001,11.0866 18.1341,11.0547 17.9414,11.0547 C17.6836,11.0547 17.4661,11.1087 17.2891,11.2168 C17.112,11.3249 17.0234,11.4688 17.0234,11.6484 C17.0234,11.7917 17.0807,11.9128 17.1953,12.0117 C17.3099,12.1107 17.5065,12.1901 17.7852,12.25 L18.8711,12.4688 C19.4544,12.5885 19.8893,12.7813 20.1758,13.0469 C20.4622,13.3125 20.6055,13.6615 20.6055,14.0938 C20.6055,14.487 20.4902,14.832 20.2598,15.1289 C20.0293,15.4258 19.7142,15.6569 19.3145,15.8223 C18.9147,15.9876 18.4544,16.0703 17.9336,16.0703 C17.1393,16.0703 16.5072,15.9043 16.0371,15.5723 C15.5671,15.2402 15.2917,14.7878 15.2109,14.2148 L16.8477,14.1289 C16.8971,14.3711 17.0169,14.5553 17.207,14.6816 C17.3971,14.8079 17.6406,14.8711 17.9375,14.8711 C18.2292,14.8711 18.4642,14.8145 18.6426,14.7012 C18.821,14.5879 18.9115,14.4414 18.9141,14.2617 C18.9115,14.1107 18.8477,13.9863 18.7227,13.8887 C18.5977,13.791 18.4049,13.7161 18.1445,13.6641 L17.1055,13.457 C16.5195,13.3398 16.084,13.1367 15.7988,12.8477 C15.5137,12.5586 15.3711,12.1901 15.3711,11.7422 C15.3711,11.3568 15.4759,11.0247 15.6855,10.7461 C15.8952,10.4674 16.1908,10.2526 16.5723,10.1016 C16.9538,9.95052 17.401,9.875 17.9141,9.875 C18.6719,9.875 19.2689,10.0352 19.7051,10.3555 C20.1413,10.6758 20.3958,11.112 20.4688,11.6641 M24.8398,9.95313 L24.8398,11.2031 L21.2266,11.2031 L21.2266,9.95313 L24.8398,9.95313 M22.0469,8.51563 L23.7109,8.51563 L23.7109,14.1094 C23.7109,14.263 23.7344,14.3822 23.7813,14.4668 C23.8281,14.5514 23.8939,14.6107 23.9785,14.6445 C24.0632,14.6784 24.1615,14.6953 24.2734,14.6953 C24.3516,14.6953 24.4297,14.6882 24.5078,14.6738 C24.5859,14.6595 24.6458,14.6484 24.6875,14.6406 L24.9492,15.8789 C24.8659,15.9049 24.7487,15.9355 24.5977,15.9707 C24.4466,16.0059 24.263,16.0273 24.0469,16.0352 C23.6458,16.0508 23.2949,15.9974 22.9941,15.875 C22.6934,15.7526 22.4596,15.5625 22.293,15.3047 C22.1263,15.0469 22.0443,14.7214 22.0469,14.3281 L22.0469,8.51563"/>
</g>

<g fill="#ffffff" fill-opacity="1" stroke="none" transform="matrix(0.03125,0,0,0.03125,127.109,14)"
font-family="Inter" font-size="11" font-weight="700" font-style="normal" 
>
<path vector-effect="none" fill-rule="nonzero" d="M111.326,191.938 C120.545,201.158 135.517,201.158 144.737,191.938 L239.144,97.5313 C245.929,90.7458 247.921,80.6413 244.233,71.7907 C240.545,62.9401 231.989,57.1871 222.401,57.1871 L33.5875,57.2608 C24.0731,57.2608 15.4437,63.0137 11.7559,71.8644 C8.06815,80.715 10.1333,90.8195 16.845,97.605 L111.252,192.012 L111.326,191.938"/>
</g>

<g fill="none" stroke="#000000" stroke-opacity="1" stroke-width="13.7195" stroke-linecap="butt" stroke-linejoin="miter" stroke-miterlimit="4" transform="matrix(0.03125,0,0,0.03125,127.109,14)"
font-family="Inter" font-size="11" font-weight="700" font-style="normal" 
>
<path vector-effect="none" fill-rule="nonzero" d="M111.326,191.938 C120.545,201.158 135.517,201.158 144.737,191.938 L239.144,97.5313 C245.929,90.7458 247.921,80.6413 244.233,71.7907 C240.545,62.9401 231.989,57.1871 222.401,57.1871 L33.5875,57.2608 C24.0731,57.2608 15.4437,63.0137 11.7559,71.8644 C8.06815,80.715 10.1333,90.8195 16.845,97.605 L111.252,192.012 L111.326,191.938"/>
</g>

<g fill="#ffffff" fill-opacity="1" stroke="none" transform="matrix(1,0,0,1,93.6094,6)"
font-family="Inter" font-size="11" font-weight="700" font-style="normal" 
>
</g>

<g fill="#ffffff" fill-opacity="1" stroke="none" transform="matrix(1,0,0,1,0,0)"
font-family="Inter" font-size="11" font-weight="700" font-style="normal" 
>
</g>

<g fill="#ffffff" fill-opacity="1" stroke="#ca4000" stroke-opacity="1" stroke-width="1.2" stroke-linecap="square" stroke-linejoin="bevel" transform="matrix(1,0,0,1,37,7)"
font-family="Inter" font-size="11" font-weight="700" font-style="normal" 
>
<path vector-effect="none" fill-rule="evenodd" d="M1,11 C1,5.47715 5.92487,1 12,1 L21.6094,1 C27.6845,1 32.6094,5.47715 32.6094,11 C32.6094,16.5228 27.6845,21 21.6094,21 L12,21 C5.92487,21 1,16.5228 1,11 "/>
</g>

<g fill="#000000" fill-opacity="1" stroke="none" transform="matrix(1,0,0,1,37,7)"
font-family="Inter" font-size="10" font-weight="700" font-style="normal" 
>
<path vector-effect="none" fill-rule="nonzero" d="M6.05682,14.4219 L6.05682,8.96733 L7.5696,8.96733 L7.5696,14.4219 L6.05682,14.4219 M6.81676,8.2642 C6.59186,8.2642 6.3995,8.18904 6.2397,8.03871 C6.0799,7.88838 6,7.70786 6,7.49716 C6,7.28883 6.0799,7.10949 6.2397,6.95916 C6.3995,6.80883 6.59186,6.73366 6.81676,6.73366 C7.04167,6.73366 7.23402,6.80883 7.39382,6.95916 C7.55362,7.10949 7.63352,7.28883 7.63352,7.49716 C7.63352,7.70786 7.55362,7.88838 7.39382,8.03871 C7.23402,8.18904 7.04167,8.2642 6.81676,8.2642 M11.6768,8.96733 L11.6768,10.1037 L8.39205,10.1037 L8.39205,8.96733 L11.6768,8.96733 M9.13778,7.66051 L10.6506,7.66051 L10.6506,12.7457 C10.6506,12.8854 10.6719,12.9937 10.7145,13.0707 C10.7571,13.1476 10.8169,13.2015 10.8938,13.2322 C10.9708,13.263 11.0601,13.2784 11.1619,13.2784 C11.233,13.2784 11.304,13.2719 11.375,13.2589 C11.446,13.2459 11.5005,13.2358 11.5384,13.2287 L11.7763,14.3544 C11.7005,14.3781 11.594,14.4059 11.4567,14.4379 C11.3194,14.4698 11.1525,14.4893 10.956,14.4964 C10.5914,14.5107 10.2724,14.4621 9.99893,14.3509 C9.7255,14.2396 9.51302,14.0668 9.36151,13.8324 C9.20999,13.598 9.13542,13.3021 9.13778,12.9446 L9.13778,7.66051 M15.0739,14.5284 C14.5128,14.5284 14.0304,14.4142 13.6268,14.1857 C13.2231,13.9573 12.9124,13.6329 12.6946,13.2127 C12.4768,12.7925 12.3679,12.2947 12.3679,11.7195 C12.3679,11.1584 12.4768,10.666 12.6946,10.2422 C12.9124,9.81842 13.2196,9.48816 13.6161,9.25142 C14.0127,9.01468 14.4785,8.89631 15.0135,8.89631 C15.3733,8.89631 15.7089,8.95372 16.0202,9.06854 C16.3316,9.18336 16.6038,9.35559 16.837,9.58523 C17.0702,9.81487 17.2519,10.1031 17.3821,10.4499 C17.5123,10.7968 17.5774,11.2022 17.5774,11.6662 L17.5774,12.0817 L12.9716,12.0817 L12.9716,11.1442 L16.1534,11.1442 C16.1534,10.9264 16.1061,10.7334 16.0114,10.5653 C15.9167,10.3973 15.7859,10.2653 15.619,10.1694 C15.4521,10.0735 15.2585,10.0256 15.0384,10.0256 C14.8087,10.0256 14.6057,10.0782 14.4293,10.1836 C14.253,10.2889 14.1151,10.4298 14.0156,10.6062 C13.9162,10.7826 13.8653,10.9785 13.8629,11.1939 L13.8629,12.0852 C13.8629,12.3551 13.9132,12.5883 14.0138,12.7848 C14.1145,12.9813 14.2571,13.1328 14.4418,13.2393 C14.6264,13.3459 14.8454,13.3991 15.0987,13.3991 C15.2668,13.3991 15.4207,13.3755 15.5604,13.3281 C15.7,13.2808 15.8196,13.2098 15.919,13.1151 C16.0185,13.0204 16.0942,12.9044 16.1463,12.767 L17.5455,12.8594 C17.4744,13.1955 17.3294,13.4885 17.1104,13.7383 C16.8915,13.988 16.6097,14.1822 16.2653,14.3207 C15.9208,14.4592 15.5237,14.5284 15.0739,14.5284 M18.5568,14.4219 L18.5568,8.96733 L19.9986,8.96733 L19.9986,9.92969 L20.0625,9.92969 C20.1761,9.61009 20.3655,9.35795 20.6307,9.1733 C20.8958,8.98864 21.2131,8.89631 21.5824,8.89631 C21.9564,8.89631 22.2749,8.98923 22.5376,9.17507 C22.8004,9.36091 22.9756,9.61245 23.0632,9.92969 L23.12,9.92969 C23.2313,9.61719 23.4331,9.36683 23.7255,9.17862 C24.0179,8.99041 24.3641,8.89631 24.7642,8.89631 C25.2732,8.89631 25.6869,9.05788 26.0053,9.38104 C26.3237,9.70419 26.483,10.1617 26.483,10.7536 L26.483,14.4219 L24.9737,14.4219 L24.9737,11.0518 C24.9737,10.7488 24.8932,10.5215 24.7322,10.37 C24.5713,10.2185 24.37,10.1428 24.1286,10.1428 C23.8539,10.1428 23.6397,10.2298 23.4858,10.4038 C23.3319,10.5778 23.255,10.8068 23.255,11.0909 L23.255,14.4219 L21.7884,14.4219 L21.7884,11.0199 C21.7884,10.7524 21.712,10.5393 21.5593,10.3807 C21.4066,10.2221 21.206,10.1428 20.9574,10.1428 C20.7893,10.1428 20.6384,10.1848 20.5046,10.2688 C20.3709,10.3529 20.2649,10.4701 20.1868,10.6204 C20.1087,10.7707 20.0696,10.9465 20.0696,11.1477 L20.0696,14.4219 L18.5568,14.4219"/>
</g>

<g fill="#000000" fill-opacity="1" stroke="none" transform="matrix(1,0,0,1,43,11.9531)"
font-family="Inter" font-size="10" font-weight="700" font-style="normal" 
>
</g>

<g fill="#000000" fill-opacity="1" stroke="none" transform="matrix(1,0,0,1,43,11.9531)"
font-family="Inter" font-size="10" font-weight="700" font-style="normal" 
>
</g>

<g fill="#000000" fill-opacity="1" stroke="none" transform="matrix(1,0,0,1,37,7)"
font-family="Inter" font-size="10" font-weight="700" font-style="normal" 
>
</g>

<g fill="#ffffff" fill-opacity="1" stroke="none" transform="matrix(1,0,0,1,0,0)"
font-family="Inter" font-size="11" font-weight="700" font-style="normal" 
>
</g>

<g fill="#ffffff" fill-opacity="1" stroke="none" transform="matrix(1,0,0,1,0,0)"
font-family="Inter" font-size="11" font-weight="700" font-style="normal" 
>
</g>

<g fill="none" stroke="#000000" stroke-opacity="1" stroke-width="1" stroke-linecap="square" stroke-linejoin="bevel" transform="matrix(1,0,0,1,0,0)"
font-family=".AppleSystemUIFont" font-size="13" font-weight="400" font-style="normal" 
>
</g>
</g>
</svg>
