<?xml version="1.0" encoding="UTF-8" standalone="no"?>
<svg width="106.539mm" height="15.5222mm"
 viewBox="0 0 302 44"
 xmlns="http://www.w3.org/2000/svg" xmlns:xlink="http://www.w3.org/1999/xlink" version="1.2" baseProfile="tiny">
<title>Abstract block</title>
<desc>block_hubs_all_motors_port_set_motor_speed</desc>
<defs>
</defs>
<g fill="none" stroke="black" stroke-width="1" fill-rule="evenodd" stroke-linecap="square" stroke-linejoin="bevel" >

<g fill="none" stroke="#000000" stroke-opacity="1" stroke-width="1" stroke-linecap="square" stroke-linejoin="bevel" transform="matrix(1,0,0,1,0,0)"
font-family=".AppleSystemUIFont" font-size="13" font-weight="400" font-style="normal" 
>
</g>

<g fill="none" stroke="#000000" stroke-opacity="1" stroke-width="1" stroke-linecap="square" stroke-linejoin="bevel" transform="matrix(1,0,0,1,0,0)"
font-family=".AppleSystemUIFont" font-size="13" font-weight="400" font-style="normal" 
>
</g>

<g fill="#0090f5" fill-opacity="1" stroke="#0070ba" stroke-opacity="1" stroke-width="1.2" stroke-linecap="square" stroke-linejoin="bevel" transform="matrix(1,0,0,1,0,0)"
font-family=".AppleSystemUIFont" font-size="13" font-weight="400" font-style="normal" 
>
<path vector-effect="none" fill-rule="evenodd" d="M0.5,4.5 L1.04612,2.48112 L2.48112,1.04612 L4.5,0.5 L9.625,0.5 L10.416,0.976563 L11.1719,1.6875 L11.998,2.67969 L13,4 L13.7559,4.66016 L14.5469,5.15625 L15.4082,5.51172 L16.375,5.75 L17.4824,5.89453 L18.7656,5.96875 L20.2598,5.99609 L22,6 L23.7402,5.99609 L25.2344,5.96875 L26.5176,5.89453 L27.625,5.75 L28.5918,5.51172 L29.4531,5.15625 L30.2441,4.66016 L31,4 L32.002,2.67969 L32.8281,1.6875 L33.584,0.976563 L34.375,0.5 L296.9,0.5 L298.919,1.04612 L300.354,2.48112 L300.9,4.5 L300.9,31.5 L300.354,33.5189 L298.919,34.9539 L296.9,35.5 L34.375,35.5 L33.584,35.9766 L32.8281,36.6875 L32.002,37.6797 L31,39 L30.2441,39.6602 L29.4531,40.1563 L28.5918,40.5117 L27.625,40.75 L26.5176,40.8945 L25.2344,40.9688 L23.7402,40.9961 L22,41 L20.2598,40.9961 L18.7656,40.9688 L17.4824,40.8945 L16.375,40.75 L15.4082,40.5117 L14.5469,40.1563 L13.7559,39.6602 L13,39 L11.998,37.6797 L11.1719,36.6875 L10.416,35.9766 L9.625,35.5 L4.5,35.5 L2.48112,34.9539 L1.04612,33.5189 L0.5,31.5 L0.5,4.5"/>
</g>

<g fill="#ffffff" fill-opacity="1" stroke="none" transform="matrix(1,0,0,1,0,0)"
font-family="Inter" font-size="11" font-weight="700" font-style="normal" 
>
<path vector-effect="none" fill-rule="nonzero" d="M186.5,16.5391 L184.977,16.6328 C184.951,16.5026 184.895,16.3848 184.809,16.2793 C184.723,16.1738 184.61,16.0892 184.471,16.0254 C184.331,15.9616 184.165,15.9297 183.973,15.9297 C183.715,15.9297 183.497,15.9837 183.32,16.0918 C183.143,16.1999 183.055,16.3438 183.055,16.5234 C183.055,16.6667 183.112,16.7878 183.227,16.8867 C183.341,16.9857 183.538,17.0651 183.816,17.125 L184.902,17.3438 C185.486,17.4635 185.921,17.6563 186.207,17.9219 C186.493,18.1875 186.637,18.5365 186.637,18.9688 C186.637,19.362 186.521,19.707 186.291,20.0039 C186.061,20.3008 185.745,20.5319 185.346,20.6973 C184.946,20.8626 184.486,20.9453 183.965,20.9453 C183.171,20.9453 182.538,20.7793 182.068,20.4473 C181.598,20.1152 181.323,19.6628 181.242,19.0898 L182.879,19.0039 C182.928,19.2461 183.048,19.4303 183.238,19.5566 C183.428,19.6829 183.672,19.7461 183.969,19.7461 C184.26,19.7461 184.495,19.6895 184.674,19.5762 C184.852,19.4629 184.943,19.3164 184.945,19.1367 C184.943,18.9857 184.879,18.8613 184.754,18.7637 C184.629,18.666 184.436,18.5911 184.176,18.5391 L183.137,18.332 C182.551,18.2148 182.115,18.0117 181.83,17.7227 C181.545,17.4336 181.402,17.0651 181.402,16.6172 C181.402,16.2318 181.507,15.8997 181.717,15.6211 C181.926,15.3424 182.222,15.1276 182.604,14.9766 C182.985,14.8255 183.432,14.75 183.945,14.75 C184.703,14.75 185.3,14.9102 185.736,15.2305 C186.173,15.5508 186.427,15.987 186.5,16.5391 M190.414,20.9453 C189.797,20.9453 189.266,20.8197 188.822,20.5684 C188.378,20.3171 188.036,19.9603 187.797,19.498 C187.557,19.0358 187.438,18.4883 187.438,17.8555 C187.438,17.2383 187.557,16.6966 187.797,16.2305 C188.036,15.7643 188.374,15.401 188.811,15.1406 C189.247,14.8802 189.759,14.75 190.348,14.75 C190.743,14.75 191.113,14.8132 191.455,14.9395 C191.798,15.0658 192.097,15.2552 192.354,15.5078 C192.61,15.7604 192.81,16.0775 192.953,16.459 C193.096,16.8405 193.168,17.2865 193.168,17.7969 L193.168,18.2539 L188.102,18.2539 L188.102,17.2227 L191.602,17.2227 C191.602,16.9831 191.549,16.7708 191.445,16.5859 C191.341,16.401 191.197,16.2559 191.014,16.1504 C190.83,16.0449 190.617,15.9922 190.375,15.9922 C190.122,15.9922 189.899,16.0501 189.705,16.166 C189.511,16.2819 189.359,16.4368 189.25,16.6309 C189.141,16.8249 189.085,17.0404 189.082,17.2773 L189.082,18.2578 C189.082,18.5547 189.137,18.8112 189.248,19.0273 C189.359,19.2435 189.516,19.4102 189.719,19.5273 C189.922,19.6445 190.163,19.7031 190.441,19.7031 C190.626,19.7031 190.796,19.6771 190.949,19.625 C191.103,19.5729 191.234,19.4948 191.344,19.3906 C191.453,19.2865 191.536,19.1589 191.594,19.0078 L193.133,19.1094 C193.055,19.4792 192.895,19.8014 192.654,20.0762 C192.413,20.3509 192.104,20.5645 191.725,20.7168 C191.346,20.8691 190.909,20.9453 190.414,20.9453 M197.434,14.8281 L197.434,16.0781 L193.82,16.0781 L193.82,14.8281 L197.434,14.8281 M194.641,13.3906 L196.305,13.3906 L196.305,18.9844 C196.305,19.138 196.328,19.2572 196.375,19.3418 C196.422,19.4264 196.488,19.4857 196.572,19.5195 C196.657,19.5534 196.755,19.5703 196.867,19.5703 C196.945,19.5703 197.023,19.5632 197.102,19.5488 C197.18,19.5345 197.24,19.5234 197.281,19.5156 L197.543,20.7539 C197.46,20.7799 197.342,20.8105 197.191,20.8457 C197.04,20.8809 196.857,20.9023 196.641,20.9102 C196.24,20.9258 195.889,20.8724 195.588,20.75 C195.287,20.6276 195.053,20.4375 194.887,20.1797 C194.72,19.9219 194.638,19.5964 194.641,19.2031 L194.641,13.3906 M206.047,16.5391 L204.523,16.6328 C204.497,16.5026 204.441,16.3848 204.355,16.2793 C204.27,16.1738 204.157,16.0892 204.018,16.0254 C203.878,15.9616 203.712,15.9297 203.52,15.9297 C203.262,15.9297 203.044,15.9837 202.867,16.0918 C202.69,16.1999 202.602,16.3438 202.602,16.5234 C202.602,16.6667 202.659,16.7878 202.773,16.8867 C202.888,16.9857 203.085,17.0651 203.363,17.125 L204.449,17.3438 C205.033,17.4635 205.467,17.6563 205.754,17.9219 C206.04,18.1875 206.184,18.5365 206.184,18.9688 C206.184,19.362 206.068,19.707 205.838,20.0039 C205.607,20.3008 205.292,20.5319 204.893,20.6973 C204.493,20.8626 204.033,20.9453 203.512,20.9453 C202.717,20.9453 202.085,20.7793 201.615,20.4473 C201.145,20.1152 200.87,19.6628 200.789,19.0898 L202.426,19.0039 C202.475,19.2461 202.595,19.4303 202.785,19.5566 C202.975,19.6829 203.219,19.7461 203.516,19.7461 C203.807,19.7461 204.042,19.6895 204.221,19.5762 C204.399,19.4629 204.49,19.3164 204.492,19.1367 C204.49,18.9857 204.426,18.8613 204.301,18.7637 C204.176,18.666 203.983,18.5911 203.723,18.5391 L202.684,18.332 C202.098,18.2148 201.662,18.0117 201.377,17.7227 C201.092,17.4336 200.949,17.0651 200.949,16.6172 C200.949,16.2318 201.054,15.8997 201.264,15.6211 C201.473,15.3424 201.769,15.1276 202.15,14.9766 C202.532,14.8255 202.979,14.75 203.492,14.75 C204.25,14.75 204.847,14.9102 205.283,15.2305 C205.719,15.5508 205.974,15.987 206.047,16.5391 M207.227,23.0781 L207.227,14.8281 L208.867,14.8281 L208.867,15.8359 L208.941,15.8359 C209.014,15.6745 209.12,15.5098 209.26,15.3418 C209.399,15.1738 209.581,15.0332 209.807,14.9199 C210.032,14.8066 210.313,14.75 210.648,14.75 C211.086,14.75 211.49,14.8639 211.859,15.0918 C212.229,15.3197 212.525,15.6621 212.746,16.1191 C212.967,16.5762 213.078,17.1484 213.078,17.8359 C213.078,18.5052 212.971,19.0697 212.756,19.5293 C212.541,19.9889 212.249,20.3366 211.881,20.5723 C211.512,20.8079 211.1,20.9258 210.645,20.9258 C210.322,20.9258 210.048,20.8724 209.822,20.7656 C209.597,20.6589 209.413,20.5241 209.27,20.3613 C209.126,20.1986 209.017,20.0339 208.941,19.8672 L208.891,19.8672 L208.891,23.0781 L207.227,23.0781 M208.855,17.8281 C208.855,18.1849 208.905,18.4961 209.004,18.7617 C209.103,19.0273 209.246,19.2337 209.434,19.3809 C209.621,19.528 209.849,19.6016 210.117,19.6016 C210.388,19.6016 210.617,19.5267 210.805,19.377 C210.992,19.2272 211.135,19.0189 211.232,18.752 C211.33,18.485 211.379,18.1771 211.379,17.8281 C211.379,17.4818 211.331,17.1771 211.234,16.9141 C211.138,16.651 210.996,16.4453 210.809,16.2969 C210.621,16.1484 210.391,16.0742 210.117,16.0742 C209.846,16.0742 209.618,16.1458 209.432,16.2891 C209.245,16.4323 209.103,16.6354 209.004,16.8984 C208.905,17.1615 208.855,17.4714 208.855,17.8281 M216.914,20.9453 C216.297,20.9453 215.766,20.8197 215.322,20.5684 C214.878,20.3171 214.536,19.9603 214.297,19.498 C214.057,19.0358 213.938,18.4883 213.938,17.8555 C213.938,17.2383 214.057,16.6966 214.297,16.2305 C214.536,15.7643 214.874,15.401 215.311,15.1406 C215.747,14.8802 216.259,14.75 216.848,14.75 C217.243,14.75 217.613,14.8132 217.955,14.9395 C218.298,15.0658 218.597,15.2552 218.854,15.5078 C219.11,15.7604 219.31,16.0775 219.453,16.459 C219.596,16.8405 219.668,17.2865 219.668,17.7969 L219.668,18.2539 L214.602,18.2539 L214.602,17.2227 L218.102,17.2227 C218.102,16.9831 218.049,16.7708 217.945,16.5859 C217.841,16.401 217.697,16.2559 217.514,16.1504 C217.33,16.0449 217.117,15.9922 216.875,15.9922 C216.622,15.9922 216.399,16.0501 216.205,16.166 C216.011,16.2819 215.859,16.4368 215.75,16.6309 C215.641,16.8249 215.585,17.0404 215.582,17.2773 L215.582,18.2578 C215.582,18.5547 215.637,18.8112 215.748,19.0273 C215.859,19.2435 216.016,19.4102 216.219,19.5273 C216.422,19.6445 216.663,19.7031 216.941,19.7031 C217.126,19.7031 217.296,19.6771 217.449,19.625 C217.603,19.5729 217.734,19.4948 217.844,19.3906 C217.953,19.2865 218.036,19.1589 218.094,19.0078 L219.633,19.1094 C219.555,19.4792 219.395,19.8014 219.154,20.0762 C218.913,20.3509 218.604,20.5645 218.225,20.7168 C217.846,20.8691 217.409,20.9453 216.914,20.9453 M223.477,20.9453 C222.859,20.9453 222.329,20.8197 221.885,20.5684 C221.441,20.3171 221.099,19.9603 220.859,19.498 C220.62,19.0358 220.5,18.4883 220.5,17.8555 C220.5,17.2383 220.62,16.6966 220.859,16.2305 C221.099,15.7643 221.437,15.401 221.873,15.1406 C222.309,14.8802 222.822,14.75 223.41,14.75 C223.806,14.75 224.175,14.8132 224.518,14.9395 C224.86,15.0658 225.16,15.2552 225.416,15.5078 C225.673,15.7604 225.872,16.0775 226.016,16.459 C226.159,16.8405 226.23,17.2865 226.23,17.7969 L226.23,18.2539 L221.164,18.2539 L221.164,17.2227 L224.664,17.2227 C224.664,16.9831 224.612,16.7708 224.508,16.5859 C224.404,16.401 224.26,16.2559 224.076,16.1504 C223.893,16.0449 223.68,15.9922 223.438,15.9922 C223.185,15.9922 222.962,16.0501 222.768,16.166 C222.574,16.2819 222.422,16.4368 222.313,16.6309 C222.203,16.8249 222.147,17.0404 222.145,17.2773 L222.145,18.2578 C222.145,18.5547 222.2,18.8112 222.311,19.0273 C222.421,19.2435 222.578,19.4102 222.781,19.5273 C222.984,19.6445 223.225,19.7031 223.504,19.7031 C223.689,19.7031 223.858,19.6771 224.012,19.625 C224.165,19.5729 224.297,19.4948 224.406,19.3906 C224.516,19.2865 224.599,19.1589 224.656,19.0078 L226.195,19.1094 C226.117,19.4792 225.958,19.8014 225.717,20.0762 C225.476,20.3509 225.166,20.5645 224.787,20.7168 C224.408,20.8691 223.971,20.9453 223.477,20.9453 M229.516,20.9258 C229.06,20.9258 228.648,20.8079 228.279,20.5723 C227.911,20.3366 227.619,19.9889 227.404,19.5293 C227.189,19.0697 227.082,18.5052 227.082,17.8359 C227.082,17.1484 227.193,16.5762 227.414,16.1191 C227.635,15.6621 227.93,15.3197 228.299,15.0918 C228.667,14.8639 229.072,14.75 229.512,14.75 C229.848,14.75 230.128,14.8066 230.354,14.9199 C230.579,15.0332 230.761,15.1738 230.9,15.3418 C231.04,15.5098 231.146,15.6745 231.219,15.8359 L231.27,15.8359 L231.27,12.8281 L232.93,12.8281 L232.93,20.8281 L231.289,20.8281 L231.289,19.8672 L231.219,19.8672 C231.141,20.0339 231.031,20.1986 230.889,20.3613 C230.747,20.5241 230.563,20.6589 230.338,20.7656 C230.113,20.8724 229.839,20.9258 229.516,20.9258 M230.043,19.6016 C230.311,19.6016 230.538,19.528 230.725,19.3809 C230.911,19.2337 231.054,19.0273 231.154,18.7617 C231.255,18.4961 231.305,18.1849 231.305,17.8281 C231.305,17.4714 231.255,17.1615 231.156,16.8984 C231.057,16.6354 230.914,16.4323 230.727,16.2891 C230.539,16.1458 230.311,16.0742 230.043,16.0742 C229.77,16.0742 229.539,16.1484 229.352,16.2969 C229.164,16.4453 229.022,16.651 228.926,16.9141 C228.829,17.1771 228.781,17.4818 228.781,17.8281 C228.781,18.1771 228.83,18.485 228.928,18.752 C229.025,19.0189 229.167,19.2272 229.354,19.377 C229.54,19.5267 229.77,19.6016 230.043,19.6016 M240.027,14.8281 L240.027,16.0781 L236.414,16.0781 L236.414,14.8281 L240.027,14.8281 M237.234,13.3906 L238.898,13.3906 L238.898,18.9844 C238.898,19.138 238.922,19.2572 238.969,19.3418 C239.016,19.4264 239.081,19.4857 239.166,19.5195 C239.251,19.5534 239.349,19.5703 239.461,19.5703 C239.539,19.5703 239.617,19.5632 239.695,19.5488 C239.773,19.5345 239.833,19.5234 239.875,19.5156 L240.137,20.7539 C240.053,20.7799 239.936,20.8105 239.785,20.8457 C239.634,20.8809 239.451,20.9023 239.234,20.9102 C238.833,20.9258 238.482,20.8724 238.182,20.75 C237.881,20.6276 237.647,20.4375 237.48,20.1797 C237.314,19.9219 237.232,19.5964 237.234,19.2031 L237.234,13.3906 M243.75,20.9453 C243.143,20.9453 242.619,20.8158 242.178,20.5566 C241.736,20.2975 241.396,19.9355 241.156,19.4707 C240.917,19.0059 240.797,18.4661 240.797,17.8516 C240.797,17.2318 240.917,16.6895 241.156,16.2246 C241.396,15.7598 241.736,15.3978 242.178,15.1387 C242.619,14.8796 243.143,14.75 243.75,14.75 C244.357,14.75 244.881,14.8796 245.322,15.1387 C245.764,15.3978 246.104,15.7598 246.344,16.2246 C246.583,16.6895 246.703,17.2318 246.703,17.8516 C246.703,18.4661 246.583,19.0059 246.344,19.4707 C246.104,19.9355 245.764,20.2975 245.322,20.5566 C244.881,20.8158 244.357,20.9453 243.75,20.9453 M243.758,19.6563 C244.034,19.6563 244.264,19.5775 244.449,19.4199 C244.634,19.2624 244.774,19.0469 244.869,18.7734 C244.964,18.5 245.012,18.1888 245.012,17.8398 C245.012,17.4909 244.964,17.1797 244.869,16.9063 C244.774,16.6328 244.634,16.4167 244.449,16.2578 C244.264,16.099 244.034,16.0195 243.758,16.0195 C243.479,16.0195 243.245,16.099 243.057,16.2578 C242.868,16.4167 242.726,16.6328 242.631,16.9063 C242.536,17.1797 242.488,17.4909 242.488,17.8398 C242.488,18.1888 242.536,18.5 242.631,18.7734 C242.726,19.0469 242.868,19.2624 243.057,19.4199 C243.245,19.5775 243.479,19.6563 243.758,19.6563 "/>
</g>

<g fill="#ffffff" fill-opacity="1" stroke="none" transform="matrix(1,0,0,1,0,0)"
font-family="Inter" font-size="11" font-weight="700" font-style="normal" 
>
<path vector-effect="none" fill-rule="nonzero" d="M289.652,20.3594 L289.652,19.9375 C289.652,19.6172 289.721,19.3223 289.857,19.0527 C289.994,18.7832 290.193,18.5671 290.455,18.4043 C290.717,18.2415 291.036,18.1602 291.414,18.1602 C291.797,18.1602 292.119,18.2409 292.381,18.4023 C292.643,18.5638 292.84,18.7793 292.975,19.0488 C293.109,19.3184 293.176,19.6146 293.176,19.9375 L293.176,20.3594 C293.176,20.6797 293.108,20.9746 292.973,21.2441 C292.837,21.5137 292.638,21.7298 292.375,21.8926 C292.112,22.0553 291.792,22.1367 291.414,22.1367 C291.031,22.1367 290.71,22.0553 290.449,21.8926 C290.189,21.7298 289.991,21.5137 289.855,21.2441 C289.72,20.9746 289.652,20.6797 289.652,20.3594 M290.789,19.9375 L290.789,20.3594 C290.789,20.5443 290.834,20.7188 290.924,20.8828 C291.014,21.0469 291.177,21.1289 291.414,21.1289 C291.651,21.1289 291.813,21.0482 291.9,20.8867 C291.988,20.7253 292.031,20.5495 292.031,20.3594 L292.031,19.9375 C292.031,19.7474 291.99,19.5703 291.906,19.4063 C291.823,19.2422 291.659,19.1602 291.414,19.1602 C291.18,19.1602 291.017,19.2422 290.926,19.4063 C290.835,19.5703 290.789,19.7474 290.789,19.9375 M285.547,15.7813 L285.547,15.3594 C285.547,15.0365 285.616,14.7402 285.754,14.4707 C285.892,14.2012 286.092,13.9857 286.354,13.8242 C286.615,13.6628 286.932,13.582 287.305,13.582 C287.69,13.582 288.013,13.6628 288.273,13.8242 C288.534,13.9857 288.732,14.2012 288.867,14.4707 C289.003,14.7402 289.07,15.0365 289.07,15.3594 L289.07,15.7813 C289.07,16.1042 289.002,16.3997 288.865,16.668 C288.729,16.9362 288.529,17.1504 288.268,17.3105 C288.006,17.4707 287.685,17.5508 287.305,17.5508 C286.924,17.5508 286.604,17.4694 286.342,17.3066 C286.08,17.1439 285.882,16.929 285.748,16.6621 C285.614,16.3952 285.547,16.1016 285.547,15.7813 M286.691,15.3594 L286.691,15.7813 C286.691,15.9714 286.736,16.1471 286.826,16.3086 C286.916,16.4701 287.076,16.5508 287.305,16.5508 C287.544,16.5508 287.708,16.4701 287.795,16.3086 C287.882,16.1471 287.926,15.9714 287.926,15.7813 L287.926,15.3594 C287.926,15.1693 287.884,14.9922 287.801,14.8281 C287.717,14.6641 287.552,14.582 287.305,14.582 C287.073,14.582 286.913,14.6654 286.824,14.832 C286.736,14.9987 286.691,15.1745 286.691,15.3594 M286.063,21.8594 L291.563,13.8594 L292.586,13.8594 L287.086,21.8594 L286.063,21.8594"/>
</g>

<g fill="#ffffff" fill-opacity="1" stroke="none" transform="matrix(0.0285,0,0,0.0285,11.2928,9.44754)"
font-family="Inter" font-size="11" font-weight="700" font-style="normal" 
>
<path vector-effect="none" fill-rule="nonzero" d="M410.778,59.991 C376.729,59.991 346.629,75.6235 326.182,99.684 C216.768,129.689 131.433,215.271 101.927,324.891 C79.5232,345.494 65.3275,374.762 65.54,407.6 C65.7463,439.573 79.3407,468.172 100.975,488.421 C130.228,601.34 218.744,689.335 331.859,718.096 C331.956,718.125 331.989,718.313 332.085,718.338 C352.242,738.376 380.064,750.708 410.778,750.708 C441.492,750.708 469.314,738.376 489.47,718.338 C489.549,718.262 489.618,718.17 489.696,718.096 C604.323,688.948 693.738,598.994 721.758,483.921 C742.939,463.42 756.216,434.907 756.015,403.1 C755.801,370.079 741.086,340.899 718.209,320.633 C687.622,213.077 603.338,129.291 495.373,99.684 C474.926,75.6235 444.827,59.991 410.778,59.991 M410.778,91.8938 C455.052,91.8938 490.89,127.731 490.89,172.006 C490.89,216.28 455.052,252.102 410.778,252.102 C366.503,252.102 330.666,216.28 330.666,172.006 C330.666,127.731 366.503,91.8938 410.778,91.8938 M177.071,325.601 C221.346,325.601 257.183,361.438 257.183,405.713 C257.183,449.987 221.346,485.808 177.071,485.808 C132.796,485.808 96.7332,449.987 96.7332,405.713 C96.7332,361.438 132.796,325.601 177.071,325.601 M644.485,325.601 C688.763,325.601 724.822,361.438 724.822,405.713 C724.822,449.987 688.763,485.808 644.485,485.808 C600.21,485.808 564.373,449.987 564.373,405.713 C564.373,361.438 600.21,325.601 644.485,325.601 M396.601,335.762 L424.955,335.762 C431.754,335.762 437.245,342.538 437.245,350.891 L437.245,381.6 L467.971,381.6 C476.323,381.6 483.083,387.091 483.083,393.89 L483.083,422.245 C483.083,429.044 476.323,434.535 467.971,434.535 L437.245,434.535 L437.245,465.26 C437.245,473.612 431.754,480.373 424.955,480.373 L396.601,480.373 C389.801,480.373 384.31,473.613 384.31,465.26 L384.31,434.535 L353.585,434.535 C345.233,434.535 338.472,429.044 338.472,422.245 L338.472,393.89 C338.472,387.091 345.232,381.6 353.585,381.6 L384.31,381.6 L384.31,350.891 C384.31,342.539 389.801,335.762 396.601,335.762 M410.778,559.307 C455.052,559.307 490.89,595.371 490.89,639.645 C490.89,683.918 455.052,719.757 410.778,719.757 C366.503,719.757 330.666,683.918 330.666,639.645 C330.666,595.371 366.503,559.307 410.778,559.307 "/>
</g>

<g fill="none" stroke="#000000" stroke-opacity="1" stroke-width="22.7975" stroke-linecap="round" stroke-linejoin="round" transform="matrix(0.0285,0,0,0.0285,11.2928,9.44754)"
font-family="Inter" font-size="11" font-weight="700" font-style="normal" 
>
<path vector-effect="none" fill-rule="nonzero" d="M410.778,59.991 C376.729,59.991 346.629,75.6235 326.182,99.684 C216.768,129.689 131.433,215.271 101.927,324.891 C79.5232,345.494 65.3275,374.762 65.54,407.6 C65.7463,439.573 79.3407,468.172 100.975,488.421 C130.228,601.34 218.744,689.335 331.859,718.096 C331.956,718.125 331.989,718.313 332.085,718.338 C352.242,738.376 380.064,750.708 410.778,750.708 C441.492,750.708 469.314,738.376 489.47,718.338 C489.549,718.262 489.618,718.17 489.696,718.096 C604.323,688.948 693.738,598.994 721.758,483.921 C742.939,463.42 756.216,434.907 756.015,403.1 C755.801,370.079 741.086,340.899 718.209,320.633 C687.622,213.077 603.338,129.291 495.373,99.684 C474.926,75.6235 444.827,59.991 410.778,59.991 M410.778,91.8938 C455.052,91.8938 490.89,127.731 490.89,172.006 C490.89,216.28 455.052,252.102 410.778,252.102 C366.503,252.102 330.666,216.28 330.666,172.006 C330.666,127.731 366.503,91.8938 410.778,91.8938 M177.071,325.601 C221.346,325.601 257.183,361.438 257.183,405.713 C257.183,449.987 221.346,485.808 177.071,485.808 C132.796,485.808 96.7332,449.987 96.7332,405.713 C96.7332,361.438 132.796,325.601 177.071,325.601 M644.485,325.601 C688.763,325.601 724.822,361.438 724.822,405.713 C724.822,449.987 688.763,485.808 644.485,485.808 C600.21,485.808 564.373,449.987 564.373,405.713 C564.373,361.438 600.21,325.601 644.485,325.601 M396.601,335.762 L424.955,335.762 C431.754,335.762 437.245,342.538 437.245,350.891 L437.245,381.6 L467.971,381.6 C476.323,381.6 483.083,387.091 483.083,393.89 L483.083,422.245 C483.083,429.044 476.323,434.535 467.971,434.535 L437.245,434.535 L437.245,465.26 C437.245,473.612 431.754,480.373 424.955,480.373 L396.601,480.373 C389.801,480.373 384.31,473.613 384.31,465.26 L384.31,434.535 L353.585,434.535 C345.233,434.535 338.472,429.044 338.472,422.245 L338.472,393.89 C338.472,387.091 345.232,381.6 353.585,381.6 L384.31,381.6 L384.31,350.891 C384.31,342.539 389.801,335.762 396.601,335.762 M410.778,559.307 C455.052,559.307 490.89,595.371 490.89,639.645 C490.89,683.918 455.052,719.757 410.778,719.757 C366.503,719.757 330.666,683.918 330.666,639.645 C330.666,595.371 366.503,559.307 410.778,559.307 "/>
</g>

<g fill="#000000" fill-opacity="1" stroke="none" transform="matrix(0.0285,0,0,0.0285,11.2928,9.44754)"
font-family="Inter" font-size="11" font-weight="700" font-style="normal" 
>
<path vector-effect="none" fill-rule="evenodd" d="M394.961,355.661 C394.961,347.613 401.485,341.088 409.533,341.088 C417.582,341.088 424.106,347.613 424.106,355.661 L424.106,457.48 C424.106,465.528 417.582,472.053 409.533,472.053 C401.485,472.053 394.961,465.528 394.961,457.48 L394.961,355.661"/>
</g>

<g fill="none" stroke="#000000" stroke-opacity="1" stroke-width="20" stroke-linecap="round" stroke-linejoin="round" transform="matrix(0.0285,0,0,0.0285,11.2928,9.44754)"
font-family="Inter" font-size="11" font-weight="700" font-style="normal" 
>
<path vector-effect="none" fill-rule="evenodd" d="M394.961,355.661 C394.961,347.613 401.485,341.088 409.533,341.088 C417.582,341.088 424.106,347.613 424.106,355.661 L424.106,457.48 C424.106,465.528 417.582,472.053 409.533,472.053 C401.485,472.053 394.961,465.528 394.961,457.48 L394.961,355.661"/>
</g>

<g fill="#000000" fill-opacity="1" stroke="none" transform="matrix(0,0.0285,-0.0285,0,11.2928,9.44754)"
font-family="Inter" font-size="11" font-weight="700" font-style="normal" 
>
<path vector-effect="none" fill-rule="evenodd" d="M394.152,-461.016 C394.152,-469.064 400.676,-475.588 408.724,-475.588 C416.773,-475.588 423.297,-469.064 423.297,-461.016 L423.297,-359.196 C423.297,-351.148 416.773,-344.624 408.724,-344.624 C400.676,-344.624 394.152,-351.148 394.152,-359.196 L394.152,-461.016"/>
</g>

<g fill="none" stroke="#000000" stroke-opacity="1" stroke-width="20" stroke-linecap="round" stroke-linejoin="round" transform="matrix(0,0.0285,-0.0285,0,11.2928,9.44754)"
font-family="Inter" font-size="11" font-weight="700" font-style="normal" 
>
<path vector-effect="none" fill-rule="evenodd" d="M394.152,-461.016 C394.152,-469.064 400.676,-475.588 408.724,-475.588 C416.773,-475.588 423.297,-469.064 423.297,-461.016 L423.297,-359.196 C423.297,-351.148 416.773,-344.624 408.724,-344.624 C400.676,-344.624 394.152,-351.148 394.152,-359.196 L394.152,-461.016"/>
</g>

<g fill="#ffffff" fill-opacity="1" stroke="none" transform="matrix(1,0,0,1,0,0)"
font-family="Inter" font-size="11" font-weight="700" font-style="normal" 
>
</g>

<g fill="#ffffff" fill-opacity="1" stroke="#0070ba" stroke-opacity="1" stroke-width="1" stroke-linecap="square" stroke-linejoin="bevel" transform="matrix(1,0,0,1,0,0)"
font-family="Inter" font-size="11" font-weight="700" font-style="normal" 
>
<polyline fill="none" vector-effect="none" points="45,11 45,31 " />
</g>

<g fill="#ffffff" fill-opacity="1" stroke="#0070ba" stroke-opacity="1" stroke-width="1" stroke-linecap="square" stroke-linejoin="bevel" transform="matrix(1,0,0,1,0,0)"
font-family="Inter" font-size="11" font-weight="700" font-style="normal" 
>
</g>

<g fill="#ffffff" fill-opacity="1" stroke="#0070ba" stroke-opacity="1" stroke-width="1" stroke-linecap="square" stroke-linejoin="bevel" transform="matrix(1,0,0,1,0,0)"
font-family="Inter" font-size="11" font-weight="700" font-style="normal" 
>
</g>

<g fill="#ffffff" fill-opacity="1" stroke="#0070ba" stroke-opacity="1" stroke-width="1" stroke-linecap="square" stroke-linejoin="bevel" transform="matrix(1,0,0,1,0,0)"
font-family="Inter" font-size="11" font-weight="700" font-style="normal" 
>
</g>

<g fill="#0070ba" fill-opacity="1" stroke="#0070ba" stroke-opacity="1" stroke-width="1.2" stroke-linecap="square" stroke-linejoin="bevel" transform="matrix(1,0,0,1,135,6)"
font-family="Inter" font-size="11" font-weight="700" font-style="normal" 
>
<path vector-effect="none" fill-rule="evenodd" d="M0.5,12 C0.5,5.64873 5.87258,0.5 12.5,0.5 L27.5,0.5 C34.1274,0.5 39.5,5.64873 39.5,12 C39.5,18.3513 34.1274,23.5 27.5,23.5 L12.5,23.5 C5.87258,23.5 0.5,18.3513 0.5,12 "/>
</g>

<g fill="#ffffff" fill-opacity="1" stroke="none" transform="matrix(1,0,0,1,135,6)"
font-family="Inter" font-size="11" font-weight="700" font-style="normal" 
>
<path vector-effect="none" fill-rule="nonzero" d="M11.8242,16 L10.0117,16 L12.7734,8 L14.9531,8 L17.7109,16 L15.8984,16 L13.8945,9.82813 L13.832,9.82813 L11.8242,16 M11.7109,12.8555 L15.9922,12.8555 L15.9922,14.1758 L11.7109,14.1758 L11.7109,12.8555"/>
</g>

<g fill="#ffffff" fill-opacity="1" stroke="none" transform="matrix(0.03125,0,0,0.03125,161,14)"
font-family="Inter" font-size="11" font-weight="700" font-style="normal" 
>
<path vector-effect="none" fill-rule="nonzero" d="M111.326,191.938 C120.545,201.158 135.517,201.158 144.737,191.938 L239.144,97.5313 C245.929,90.7458 247.921,80.6413 244.233,71.7907 C240.545,62.9401 231.989,57.1871 222.401,57.1871 L33.5875,57.2608 C24.0731,57.2608 15.4437,63.0137 11.7559,71.8644 C8.06815,80.715 10.1333,90.8195 16.845,97.605 L111.252,192.012 L111.326,191.938"/>
</g>

<g fill="none" stroke="#000000" stroke-opacity="1" stroke-width="13.7195" stroke-linecap="butt" stroke-linejoin="miter" stroke-miterlimit="4" transform="matrix(0.03125,0,0,0.03125,161,14)"
font-family="Inter" font-size="11" font-weight="700" font-style="normal" 
>
<path vector-effect="none" fill-rule="nonzero" d="M111.326,191.938 C120.545,201.158 135.517,201.158 144.737,191.938 L239.144,97.5313 C245.929,90.7458 247.921,80.6413 244.233,71.7907 C240.545,62.9401 231.989,57.1871 222.401,57.1871 L33.5875,57.2608 C24.0731,57.2608 15.4437,63.0137 11.7559,71.8644 C8.06815,80.715 10.1333,90.8195 16.845,97.605 L111.252,192.012 L111.326,191.938"/>
</g>

<g fill="#ffffff" fill-opacity="1" stroke="none" transform="matrix(1,0,0,1,135,6)"
font-family="Inter" font-size="11" font-weight="700" font-style="normal" 
>
</g>

<g fill="#ffffff" fill-opacity="1" stroke="#0070ba" stroke-opacity="1" stroke-width="1" stroke-linecap="square" stroke-linejoin="bevel" transform="matrix(1,0,0,1,0,0)"
font-family="Inter" font-size="11" font-weight="700" font-style="normal" 
>
</g>

<g fill="#0090f5" fill-opacity="1" stroke="#0070ba" stroke-opacity="1" stroke-width="1.2" stroke-linecap="square" stroke-linejoin="bevel" transform="matrix(1,0,0,1,56,6)"
font-family="Inter" font-size="11" font-weight="700" font-style="normal" 
>
<path vector-effect="none" fill-rule="evenodd" d="M0.5,3.5 C0.5,1.84315 1.84315,0.5 3.5,0.5 L71.5,0.5 C73.1569,0.5 74.5,1.84315 74.5,3.5 L74.5,20.5 C74.5,22.1569 73.1569,23.5 71.5,23.5 L3.5,23.5 C1.84315,23.5 0.5,22.1569 0.5,20.5 L0.5,3.5"/>
</g>

<g fill="#ffffff" fill-opacity="1" stroke="none" transform="matrix(1,0,0,1,56,6)"
font-family="Inter" font-size="11" font-weight="700" font-style="normal" 
>
<path vector-effect="none" fill-rule="nonzero" d="M10,9.39453 L10,8 L16.5703,8 L16.5703,9.39453 L14.1211,9.39453 L14.1211,16 L12.4492,16 L12.4492,9.39453 L10,9.39453 M17.6484,16 L17.6484,8 L19.3398,8 L19.3398,11.3008 L22.7734,11.3008 L22.7734,8 L24.4609,8 L24.4609,16 L22.7734,16 L22.7734,12.6953 L19.3398,12.6953 L19.3398,16 L17.6484,16 M32.543,8 L32.543,16 L31.082,16 L27.6016,10.9648 L27.543,10.9648 L27.543,16 L25.8516,16 L25.8516,8 L27.3359,8 L30.7891,13.0313 L30.8594,13.0313 L30.8594,8 L32.543,8 M33.9297,16 L33.9297,8 L35.6211,8 L35.6211,11.3008 L39.0547,11.3008 L39.0547,8 L40.7422,8 L40.7422,16 L39.0547,16 L39.0547,12.6953 L35.6211,12.6953 L35.6211,16 L33.9297,16 M42.1328,16 L42.1328,8 L45.3359,8 C45.9245,8 46.4154,8.08724 46.8086,8.26172 C47.2018,8.4362 47.4974,8.67773 47.6953,8.98633 C47.8932,9.29492 47.9922,9.64974 47.9922,10.0508 C47.9922,10.3633 47.9297,10.6374 47.8047,10.873 C47.6797,11.1087 47.5085,11.3014 47.291,11.4512 C47.0736,11.6009 46.8255,11.707 46.5469,11.7695 L46.5469,11.8477 C46.8516,11.8607 47.1374,11.9466 47.4043,12.1055 C47.6712,12.2643 47.888,12.4863 48.0547,12.7715 C48.2214,13.0566 48.3047,13.3958 48.3047,13.7891 C48.3047,14.2135 48.1999,14.5918 47.9902,14.9238 C47.7806,15.2559 47.4714,15.5182 47.0625,15.7109 C46.6536,15.9036 46.1497,16 45.5508,16 L42.1328,16 M43.8242,14.6172 L45.2031,14.6172 C45.6745,14.6172 46.0182,14.5267 46.2344,14.3457 C46.4505,14.1647 46.5586,13.9232 46.5586,13.6211 C46.5586,13.3997 46.5052,13.2044 46.3984,13.0352 C46.2917,12.8659 46.14,12.7331 45.9434,12.6367 C45.7467,12.5404 45.513,12.4922 45.2422,12.4922 L43.8242,12.4922 L43.8242,14.6172 M43.8242,11.3477 L45.0781,11.3477 C45.3099,11.3477 45.5163,11.3066 45.6973,11.2246 C45.8783,11.1426 46.0215,11.026 46.127,10.875 C46.2324,10.724 46.2852,10.543 46.2852,10.332 C46.2852,10.043 46.1829,9.8099 45.9785,9.63281 C45.7741,9.45573 45.4844,9.36719 45.1094,9.36719 L43.8242,9.36719 L43.8242,11.3477 M52.832,8 L52.832,16 L51.1406,16 L51.1406,9.60547 L51.0938,9.60547 L49.2617,10.7539 L49.2617,9.25391 L51.2422,8 L52.832,8"/>
</g>

<g fill="#ffffff" fill-opacity="1" stroke="none" transform="matrix(0.03125,0,0,0.03125,117,14)"
font-family="Inter" font-size="11" font-weight="700" font-style="normal" 
>
<path vector-effect="none" fill-rule="nonzero" d="M111.326,191.938 C120.545,201.158 135.517,201.158 144.737,191.938 L239.144,97.5313 C245.929,90.7458 247.921,80.6413 244.233,71.7907 C240.545,62.9401 231.989,57.1871 222.401,57.1871 L33.5875,57.2608 C24.0731,57.2608 15.4437,63.0137 11.7559,71.8644 C8.06815,80.715 10.1333,90.8195 16.845,97.605 L111.252,192.012 L111.326,191.938"/>
</g>

<g fill="none" stroke="#000000" stroke-opacity="1" stroke-width="13.7195" stroke-linecap="butt" stroke-linejoin="miter" stroke-miterlimit="4" transform="matrix(0.03125,0,0,0.03125,117,14)"
font-family="Inter" font-size="11" font-weight="700" font-style="normal" 
>
<path vector-effect="none" fill-rule="nonzero" d="M111.326,191.938 C120.545,201.158 135.517,201.158 144.737,191.938 L239.144,97.5313 C245.929,90.7458 247.921,80.6413 244.233,71.7907 C240.545,62.9401 231.989,57.1871 222.401,57.1871 L33.5875,57.2608 C24.0731,57.2608 15.4437,63.0137 11.7559,71.8644 C8.06815,80.715 10.1333,90.8195 16.845,97.605 L111.252,192.012 L111.326,191.938"/>
</g>

<g fill="#ffffff" fill-opacity="1" stroke="none" transform="matrix(1,0,0,1,56,6)"
font-family="Inter" font-size="11" font-weight="700" font-style="normal" 
>
</g>

<g fill="#ffffff" fill-opacity="1" stroke="#0070ba" stroke-opacity="1" stroke-width="1" stroke-linecap="square" stroke-linejoin="bevel" transform="matrix(1,0,0,1,0,0)"
font-family="Inter" font-size="11" font-weight="700" font-style="normal" 
>
</g>

<g fill="#ffffff" fill-opacity="1" stroke="#0064a6" stroke-opacity="1" stroke-width="1.2" stroke-linecap="square" stroke-linejoin="bevel" transform="matrix(1,0,0,1,253,7)"
font-family="Inter" font-size="11" font-weight="700" font-style="normal" 
>
<path vector-effect="none" fill-rule="evenodd" d="M1,11 C1,5.47715 5.92487,1 12,1 L14.4,1 C20.4751,1 25.4,5.47715 25.4,11 C25.4,16.5228 20.4751,21 14.4,21 L12,21 C5.92487,21 1,16.5228 1,11 "/>
</g>

<g fill="#000000" fill-opacity="1" stroke="none" transform="matrix(1,0,0,1,253,7)"
font-family="Inter" font-size="10" font-weight="700" font-style="normal" 
>
<path vector-effect="none" fill-rule="nonzero" d="M9.69886,14.5213 C9.19697,14.5213 8.75012,14.429 8.35831,14.2443 C7.9665,14.0597 7.65578,13.8052 7.42614,13.4808 C7.1965,13.1565 7.07694,12.7848 7.06747,12.3658 L8.55895,12.3658 C8.57552,12.6475 8.69389,12.8759 8.91406,13.0511 C9.13423,13.2263 9.39583,13.3139 9.69886,13.3139 C9.94034,13.3139 10.154,13.2601 10.3398,13.1523 C10.5257,13.0446 10.6713,12.8943 10.7766,12.7013 C10.882,12.5084 10.9347,12.2865 10.9347,12.0355 C10.9347,11.7798 10.8808,11.5549 10.7731,11.3608 C10.6654,11.1667 10.5168,11.0152 10.3274,10.9063 C10.138,10.7973 9.9214,10.7417 9.67756,10.7393 C9.46449,10.7393 9.25793,10.7831 9.05788,10.8707 C8.85784,10.9583 8.70218,11.0779 8.59091,11.2294 L7.22372,10.9844 L7.56818,7.14915 L12.0142,7.14915 L12.0142,8.40625 L8.83594,8.40625 L8.64773,10.228 L8.69034,10.228 C8.81818,10.0481 9.01113,9.89891 9.26918,9.78054 C9.52723,9.66217 9.81605,9.60298 10.1357,9.60298 C10.5736,9.60298 10.9643,9.70597 11.3075,9.91193 C11.6508,10.1179 11.9219,10.4002 12.1207,10.7589 C12.3196,11.1175 12.4179,11.5301 12.4155,11.9964 C12.4179,12.4865 12.3048,12.9215 12.0763,13.3015 C11.8479,13.6815 11.5295,13.9798 11.1211,14.1964 C10.7127,14.413 10.2386,14.5213 9.69886,14.5213 M16.3317,14.5817 C15.7209,14.5793 15.1959,14.429 14.7567,14.1307 C14.3176,13.8324 13.9802,13.4003 13.7447,12.8345 C13.5091,12.2687 13.3925,11.5881 13.3949,10.7926 C13.3949,9.99953 13.5127,9.32363 13.7482,8.76491 C13.9838,8.2062 14.3211,7.78066 14.7603,7.48828 C15.1995,7.1959 15.7232,7.04972 16.3317,7.04972 C16.9401,7.04972 17.4639,7.1965 17.9031,7.49006 C18.3422,7.78362 18.6802,8.20916 18.9169,8.76669 C19.1536,9.32422 19.2708,9.99953 19.2685,10.7926 C19.2685,11.5904 19.1507,12.2723 18.9151,12.8381 C18.6796,13.4039 18.3428,13.8359 17.9048,14.1342 C17.4669,14.4325 16.9425,14.5817 16.3317,14.5817 M16.3317,13.3068 C16.7483,13.3068 17.081,13.0973 17.3295,12.6783 C17.5781,12.2592 17.7012,11.6307 17.6989,10.7926 C17.6989,10.241 17.6426,9.78172 17.5302,9.41477 C17.4177,9.04782 17.2591,8.77202 17.0543,8.58736 C16.8496,8.4027 16.6087,8.31037 16.3317,8.31037 C15.9174,8.31037 15.5859,8.51752 15.3374,8.93182 C15.0888,9.34612 14.9633,9.96638 14.9609,10.7926 C14.9609,11.3513 15.0172,11.8171 15.1296,12.19 C15.2421,12.5629 15.4013,12.8422 15.6072,13.0281 C15.8132,13.2139 16.0547,13.3068 16.3317,13.3068 "/>
</g>

<g fill="#ffffff" fill-opacity="1" stroke="#0070ba" stroke-opacity="1" stroke-width="1" stroke-linecap="square" stroke-linejoin="bevel" transform="matrix(1,0,0,1,0,0)"
font-family="Inter" font-size="11" font-weight="700" font-style="normal" 
>
</g>

<g fill="#ffffff" fill-opacity="1" stroke="#0070ba" stroke-opacity="1" stroke-width="1" stroke-linecap="square" stroke-linejoin="bevel" transform="matrix(1,0,0,1,0,0)"
font-family="Inter" font-size="11" font-weight="700" font-style="normal" 
>
</g>

<g fill="none" stroke="#000000" stroke-opacity="1" stroke-width="1" stroke-linecap="square" stroke-linejoin="bevel" transform="matrix(1,0,0,1,0,0)"
font-family=".AppleSystemUIFont" font-size="13" font-weight="400" font-style="normal" 
>
</g>
</g>
</svg>
