<?xml version="1.0" encoding="UTF-8" standalone="no"?>
<svg width="123.472mm" height="11.2889mm"
 viewBox="0 0 350 32"
 xmlns="http://www.w3.org/2000/svg" xmlns:xlink="http://www.w3.org/1999/xlink" version="1.2" baseProfile="tiny">
<title>Abstract block</title>
<desc>block_dashboard_controller_pedals_value_boolean</desc>
<defs>
</defs>
<g fill="none" stroke="black" stroke-width="1" fill-rule="evenodd" stroke-linecap="square" stroke-linejoin="bevel" >

<g fill="none" stroke="#000000" stroke-opacity="1" stroke-width="1" stroke-linecap="square" stroke-linejoin="bevel" transform="matrix(1,0,0,1,0,0)"
font-family=".AppleSystemUIFont" font-size="13" font-weight="400" font-style="normal" 
>
</g>

<g fill="none" stroke="#000000" stroke-opacity="1" stroke-width="1" stroke-linecap="square" stroke-linejoin="bevel" transform="matrix(1,0,0,1,0,0)"
font-family=".AppleSystemUIFont" font-size="13" font-weight="400" font-style="normal" 
>
</g>

<g fill="#009f94" fill-opacity="1" stroke="#00645c" stroke-opacity="1" stroke-width="1.2" stroke-linecap="square" stroke-linejoin="bevel" transform="matrix(1,0,0,1,0,0)"
font-family=".AppleSystemUIFont" font-size="13" font-weight="400" font-style="normal" 
>
<path vector-effect="none" fill-rule="evenodd" d="M0,16 L16,0 L333.667,0 L349.667,16 L333.667,32 L16,32 L0,16"/>
</g>

<g fill="#ffffff" fill-opacity="1" stroke="none" transform="matrix(1,0,0,1,0,0)"
font-family="Inter" font-size="11" font-weight="700" font-style="normal" 
>
<path vector-effect="none" fill-rule="nonzero" d="M52.0391,19.0625 L52.0391,13.0625 L53.7031,13.0625 L53.7031,19.0625 L52.0391,19.0625 M52.875,12.2891 C52.6276,12.2891 52.416,12.2064 52.2402,12.041 C52.0645,11.8757 51.9766,11.6771 51.9766,11.4453 C51.9766,11.2161 52.0645,11.0189 52.2402,10.8535 C52.416,10.6882 52.6276,10.6055 52.875,10.6055 C53.1224,10.6055 53.334,10.6882 53.5098,10.8535 C53.6855,11.0189 53.7734,11.2161 53.7734,11.4453 C53.7734,11.6771 53.6855,11.8757 53.5098,12.041 C53.334,12.2064 53.1224,12.2891 52.875,12.2891 M60.0156,14.7734 L58.4922,14.8672 C58.4661,14.737 58.4102,14.6191 58.3242,14.5137 C58.2383,14.4082 58.1257,14.3236 57.9863,14.2598 C57.847,14.196 57.681,14.1641 57.4883,14.1641 C57.2305,14.1641 57.013,14.2181 56.8359,14.3262 C56.6589,14.4342 56.5703,14.5781 56.5703,14.7578 C56.5703,14.901 56.6276,15.0221 56.7422,15.1211 C56.8568,15.2201 57.0534,15.2995 57.332,15.3594 L58.418,15.5781 C59.0013,15.6979 59.4362,15.8906 59.7227,16.1563 C60.0091,16.4219 60.1523,16.7708 60.1523,17.2031 C60.1523,17.5964 60.0371,17.9414 59.8066,18.2383 C59.5762,18.5352 59.2611,18.7663 58.8613,18.9316 C58.4616,19.097 58.0013,19.1797 57.4805,19.1797 C56.6862,19.1797 56.054,19.0137 55.584,18.6816 C55.1139,18.3496 54.8385,17.8971 54.7578,17.3242 L56.3945,17.2383 C56.444,17.4805 56.5638,17.6647 56.7539,17.791 C56.944,17.9173 57.1875,17.9805 57.4844,17.9805 C57.776,17.9805 58.0111,17.9238 58.1895,17.8105 C58.3678,17.6973 58.4583,17.5508 58.4609,17.3711 C58.4583,17.2201 58.3945,17.0957 58.2695,16.998 C58.1445,16.9004 57.9518,16.8255 57.6914,16.7734 L56.6523,16.5664 C56.0664,16.4492 55.6309,16.2461 55.3457,15.957 C55.0605,15.668 54.918,15.2995 54.918,14.8516 C54.918,14.4661 55.0228,14.1341 55.2324,13.8555 C55.4421,13.5768 55.7376,13.362 56.1191,13.2109 C56.5007,13.0599 56.9479,12.9844 57.4609,12.9844 C58.2188,12.9844 58.8158,13.1445 59.252,13.4648 C59.6882,13.7852 59.9427,14.2214 60.0156,14.7734 M63.7422,21.3125 L63.7422,13.0625 L65.3828,13.0625 L65.3828,14.0703 L65.457,14.0703 C65.5299,13.9089 65.6361,13.7441 65.7754,13.5762 C65.9147,13.4082 66.097,13.2676 66.3223,13.1543 C66.5475,13.041 66.8281,12.9844 67.1641,12.9844 C67.6016,12.9844 68.0052,13.0983 68.375,13.3262 C68.7448,13.554 69.0404,13.8965 69.2617,14.3535 C69.4831,14.8105 69.5938,15.3828 69.5938,16.0703 C69.5938,16.7396 69.4863,17.304 69.2715,17.7637 C69.0566,18.2233 68.765,18.571 68.3965,18.8066 C68.028,19.0423 67.6159,19.1602 67.1602,19.1602 C66.8372,19.1602 66.5632,19.1068 66.3379,19 C66.1126,18.8932 65.9284,18.7585 65.7852,18.5957 C65.6419,18.4329 65.5326,18.2682 65.457,18.1016 L65.4063,18.1016 L65.4063,21.3125 L63.7422,21.3125 M65.3711,16.0625 C65.3711,16.4193 65.4206,16.7305 65.5195,16.9961 C65.6185,17.2617 65.7617,17.4681 65.9492,17.6152 C66.1367,17.7624 66.3646,17.8359 66.6328,17.8359 C66.9036,17.8359 67.1328,17.7611 67.3203,17.6113 C67.5078,17.4616 67.6504,17.2533 67.748,16.9863 C67.8457,16.7194 67.8945,16.4115 67.8945,16.0625 C67.8945,15.7161 67.8464,15.4115 67.75,15.1484 C67.6536,14.8854 67.5117,14.6797 67.3242,14.5313 C67.1367,14.3828 66.9063,14.3086 66.6328,14.3086 C66.362,14.3086 66.1335,14.3802 65.9473,14.5234 C65.7611,14.6667 65.6185,14.8698 65.5195,15.1328 C65.4206,15.3958 65.3711,15.7057 65.3711,16.0625 M73.4297,19.1797 C72.8125,19.1797 72.2819,19.054 71.8379,18.8027 C71.3939,18.5514 71.0521,18.1947 70.8125,17.7324 C70.5729,17.2702 70.4531,16.7227 70.4531,16.0898 C70.4531,15.4727 70.5729,14.931 70.8125,14.4648 C71.0521,13.9987 71.39,13.6354 71.8262,13.375 C72.2624,13.1146 72.7747,12.9844 73.3633,12.9844 C73.7591,12.9844 74.1283,13.0475 74.4707,13.1738 C74.8132,13.3001 75.1126,13.4896 75.3691,13.7422 C75.6257,13.9948 75.8255,14.3118 75.9688,14.6934 C76.112,15.0749 76.1836,15.5208 76.1836,16.0313 L76.1836,16.4883 L71.1172,16.4883 L71.1172,15.457 L74.6172,15.457 C74.6172,15.2174 74.5651,15.0052 74.4609,14.8203 C74.3568,14.6354 74.2129,14.4902 74.0293,14.3848 C73.8457,14.2793 73.6328,14.2266 73.3906,14.2266 C73.138,14.2266 72.9147,14.2845 72.7207,14.4004 C72.5267,14.5163 72.375,14.6712 72.2656,14.8652 C72.1563,15.0592 72.1003,15.2747 72.0977,15.5117 L72.0977,16.4922 C72.0977,16.7891 72.153,17.0456 72.2637,17.2617 C72.3743,17.4779 72.5313,17.6445 72.7344,17.7617 C72.9375,17.8789 73.1784,17.9375 73.457,17.9375 C73.6419,17.9375 73.8112,17.9115 73.9648,17.8594 C74.1185,17.8073 74.25,17.7292 74.3594,17.625 C74.4688,17.5208 74.5521,17.3932 74.6094,17.2422 L76.1484,17.3438 C76.0703,17.7135 75.9108,18.0358 75.6699,18.3105 C75.429,18.5853 75.1191,18.7988 74.7402,18.9512 C74.3613,19.1035 73.9245,19.1797 73.4297,19.1797 M79.4688,19.1602 C79.013,19.1602 78.6009,19.0423 78.2324,18.8066 C77.8639,18.571 77.5723,18.2233 77.3574,17.7637 C77.1426,17.304 77.0352,16.7396 77.0352,16.0703 C77.0352,15.3828 77.1458,14.8105 77.3672,14.3535 C77.5885,13.8965 77.8835,13.554 78.252,13.3262 C78.6204,13.0983 79.0247,12.9844 79.4648,12.9844 C79.8008,12.9844 80.0814,13.041 80.3066,13.1543 C80.5319,13.2676 80.7142,13.4082 80.8535,13.5762 C80.9928,13.7441 81.099,13.9089 81.1719,14.0703 L81.2227,14.0703 L81.2227,11.0625 L82.8828,11.0625 L82.8828,19.0625 L81.2422,19.0625 L81.2422,18.1016 L81.1719,18.1016 C81.0938,18.2682 80.9837,18.4329 80.8418,18.5957 C80.6999,18.7585 80.5163,18.8932 80.291,19 C80.0658,19.1068 79.7917,19.1602 79.4688,19.1602 M79.9961,17.8359 C80.2643,17.8359 80.4915,17.7624 80.6777,17.6152 C80.8639,17.4681 81.0072,17.2617 81.1074,16.9961 C81.2077,16.7305 81.2578,16.4193 81.2578,16.0625 C81.2578,15.7057 81.2083,15.3958 81.1094,15.1328 C81.0104,14.8698 80.8672,14.6667 80.6797,14.5234 C80.4922,14.3802 80.2643,14.3086 79.9961,14.3086 C79.7227,14.3086 79.4922,14.3828 79.3047,14.5313 C79.1172,14.6797 78.9753,14.8854 78.8789,15.1484 C78.7826,15.4115 78.7344,15.7161 78.7344,16.0625 C78.7344,16.4115 78.7832,16.7194 78.8809,16.9863 C78.9785,17.2533 79.1204,17.4616 79.3066,17.6113 C79.4928,17.7611 79.7227,17.8359 79.9961,17.8359 M85.9531,19.1758 C85.5703,19.1758 85.2292,19.1087 84.9297,18.9746 C84.6302,18.8405 84.3939,18.6413 84.2207,18.377 C84.0475,18.1126 83.9609,17.7826 83.9609,17.3867 C83.9609,17.0534 84.0221,16.7734 84.1445,16.5469 C84.2669,16.3203 84.4336,16.138 84.6445,16 C84.8555,15.862 85.0957,15.7578 85.3652,15.6875 C85.6348,15.6172 85.918,15.5677 86.2148,15.5391 C86.5638,15.5026 86.8451,15.4681 87.0586,15.4355 C87.2721,15.403 87.4271,15.3542 87.5234,15.2891 C87.6198,15.224 87.668,15.1276 87.668,15 L87.668,14.9766 C87.668,14.7292 87.5905,14.5378 87.4355,14.4023 C87.2806,14.2669 87.0612,14.1992 86.7773,14.1992 C86.4779,14.1992 86.2396,14.265 86.0625,14.3965 C85.8854,14.528 85.7682,14.6927 85.7109,14.8906 L84.1719,14.7656 C84.25,14.401 84.4036,14.0853 84.6328,13.8184 C84.862,13.5514 85.1582,13.3457 85.5215,13.2012 C85.8848,13.0566 86.306,12.9844 86.7852,12.9844 C87.1185,12.9844 87.4382,13.0234 87.7441,13.1016 C88.0501,13.1797 88.3223,13.3008 88.5605,13.4648 C88.7988,13.6289 88.987,13.8392 89.125,14.0957 C89.263,14.3522 89.332,14.6589 89.332,15.0156 L89.332,19.0625 L87.7539,19.0625 L87.7539,18.2305 L87.707,18.2305 C87.6107,18.418 87.4818,18.5827 87.3203,18.7246 C87.1589,18.8665 86.9648,18.9772 86.7383,19.0566 C86.5117,19.1361 86.25,19.1758 85.9531,19.1758 M86.4297,18.0273 C86.6745,18.0273 86.8906,17.9785 87.0781,17.8809 C87.2656,17.7832 87.4128,17.651 87.5195,17.4844 C87.6263,17.3177 87.6797,17.1289 87.6797,16.918 L87.6797,16.2813 C87.6276,16.3151 87.5566,16.3457 87.4668,16.373 C87.377,16.4004 87.276,16.4251 87.1641,16.4473 C87.0521,16.4694 86.9401,16.4889 86.8281,16.5059 C86.7161,16.5228 86.6146,16.5378 86.5234,16.5508 C86.3281,16.5794 86.1576,16.625 86.0117,16.6875 C85.8659,16.75 85.7526,16.834 85.6719,16.9395 C85.5911,17.0449 85.5508,17.1758 85.5508,17.332 C85.5508,17.5586 85.6335,17.7311 85.7988,17.8496 C85.9642,17.9681 86.1745,18.0273 86.4297,18.0273 M92.2813,11.0625 L92.2813,19.0625 L90.6172,19.0625 L90.6172,11.0625 L92.2813,11.0625"/>
</g>

<g fill="#ffffff" fill-opacity="1" stroke="none" transform="matrix(1,0,0,1,0,0)"
font-family="Inter" font-size="11" font-weight="700" font-style="normal" 
>
<path vector-effect="none" fill-rule="nonzero" d="M332.766,17.5547 L332.766,17.4219 C332.768,16.9661 332.809,16.6029 332.889,16.332 C332.968,16.0612 333.085,15.8424 333.238,15.6758 C333.392,15.5091 333.577,15.3581 333.793,15.2227 C333.954,15.1185 334.099,15.0104 334.227,14.8984 C334.354,14.7865 334.456,14.6621 334.531,14.5254 C334.607,14.3887 334.645,14.2357 334.645,14.0664 C334.645,13.8867 334.602,13.7292 334.516,13.5938 C334.43,13.4583 334.314,13.3542 334.17,13.2813 C334.025,13.2083 333.866,13.1719 333.691,13.1719 C333.522,13.1719 333.362,13.209 333.211,13.2832 C333.06,13.3574 332.936,13.4668 332.84,13.6113 C332.743,13.7559 332.691,13.9349 332.684,14.1484 L331.09,14.1484 C331.103,13.6276 331.228,13.1973 331.465,12.8574 C331.702,12.5176 332.016,12.2637 332.406,12.0957 C332.797,11.9277 333.228,11.8438 333.699,11.8438 C334.217,11.8438 334.676,11.929 335.074,12.0996 C335.473,12.2702 335.785,12.5169 336.012,12.8398 C336.238,13.1628 336.352,13.5521 336.352,14.0078 C336.352,14.3125 336.301,14.5827 336.201,14.8184 C336.101,15.054 335.961,15.2624 335.781,15.4434 C335.602,15.6243 335.389,15.7878 335.145,15.9336 C334.939,16.056 334.77,16.1836 334.639,16.3164 C334.507,16.4492 334.41,16.6029 334.346,16.7773 C334.282,16.9518 334.249,17.1667 334.246,17.4219 L334.246,17.5547 L332.766,17.5547 M333.539,20.0547 C333.279,20.0547 333.057,19.9629 332.873,19.7793 C332.689,19.5957 332.599,19.375 332.602,19.1172 C332.599,18.862 332.689,18.6432 332.873,18.4609 C333.057,18.2786 333.279,18.1875 333.539,18.1875 C333.786,18.1875 334.004,18.2786 334.191,18.4609 C334.379,18.6432 334.474,18.862 334.477,19.1172 C334.474,19.2891 334.429,19.446 334.342,19.5879 C334.255,19.7298 334.141,19.8431 334,19.9277 C333.859,20.0124 333.706,20.0547 333.539,20.0547 "/>
</g>

<g fill="#ffffff" fill-opacity="1" stroke="none" transform="matrix(0.95,0,0,0.95,11.6,4.6)"
font-family="Inter" font-size="11" font-weight="700" font-style="normal" 
>
<path vector-effect="none" fill-rule="nonzero" d="M2.19896,4.65234 C1.18891,4.65234 0.375703,5.46549 0.375703,6.47555 L0.375703,8.579 C1.00152,8.60331 1.67842,9.11362 1.67842,9.74561 L1.67842,14.2544 C1.67842,14.8864 1.00152,15.3967 0.375703,15.421 L0.375703,17.5245 C0.375703,18.5345 1.18891,19.3477 2.19896,19.3477 L21.8479,19.3477 C22.858,19.3477 23.6711,18.5345 23.6711,17.5245 L23.6711,6.47555 C23.6711,5.46549 22.858,4.65234 21.8479,4.65234 L2.19896,4.65234 M6.71936,9.23098 C8.56166,9.23097 10.0552,10.7245 10.0552,12.5668 C10.0552,14.4091 8.56167,15.9026 6.71936,15.9026 C4.87705,15.9026 3.38355,14.4091 3.38355,12.5668 C3.38355,10.7245 4.87705,9.23097 6.71936,9.23098 M19.875,9.24873 C20.7082,9.24871 21.3837,9.92418 21.3837,10.7574 C21.3837,11.5906 20.7082,12.266 19.875,12.266 C19.0418,12.266 18.3664,11.5906 18.3664,10.7574 C18.3664,9.9242 19.0418,9.24874 19.875,9.24873 M17.4318,12.8825 C18.265,12.8825 18.9404,13.558 18.9404,14.3912 C18.9404,15.2243 18.2649,15.8998 17.4318,15.8998 C16.5986,15.8998 15.9231,15.2244 15.9231,14.3912 C15.9231,13.5579 16.5985,12.8825 17.4318,12.8825 "/>
</g>

<g fill="none" stroke="#000000" stroke-opacity="1" stroke-width="0.54" stroke-linecap="butt" stroke-linejoin="miter" stroke-miterlimit="4" transform="matrix(0.95,0,0,0.95,11.6,4.6)"
font-family="Inter" font-size="11" font-weight="700" font-style="normal" 
>
<path vector-effect="none" fill-rule="nonzero" d="M2.19896,4.65234 C1.18891,4.65234 0.375703,5.46549 0.375703,6.47555 L0.375703,8.579 C1.00152,8.60331 1.67842,9.11362 1.67842,9.74561 L1.67842,14.2544 C1.67842,14.8864 1.00152,15.3967 0.375703,15.421 L0.375703,17.5245 C0.375703,18.5345 1.18891,19.3477 2.19896,19.3477 L21.8479,19.3477 C22.858,19.3477 23.6711,18.5345 23.6711,17.5245 L23.6711,6.47555 C23.6711,5.46549 22.858,4.65234 21.8479,4.65234 L2.19896,4.65234 M6.71936,9.23098 C8.56166,9.23097 10.0552,10.7245 10.0552,12.5668 C10.0552,14.4091 8.56167,15.9026 6.71936,15.9026 C4.87705,15.9026 3.38355,14.4091 3.38355,12.5668 C3.38355,10.7245 4.87705,9.23097 6.71936,9.23098 M19.875,9.24873 C20.7082,9.24871 21.3837,9.92418 21.3837,10.7574 C21.3837,11.5906 20.7082,12.266 19.875,12.266 C19.0418,12.266 18.3664,11.5906 18.3664,10.7574 C18.3664,9.9242 19.0418,9.24874 19.875,9.24873 M17.4318,12.8825 C18.265,12.8825 18.9404,13.558 18.9404,14.3912 C18.9404,15.2243 18.2649,15.8998 17.4318,15.8998 C16.5986,15.8998 15.9231,15.2244 15.9231,14.3912 C15.9231,13.5579 16.5985,12.8825 17.4318,12.8825 "/>
</g>

<g fill="#000000" fill-opacity="1" stroke="none" transform="matrix(0.95,0,0,0.95,11.6,4.6)"
font-family="Inter" font-size="11" font-weight="700" font-style="normal" 
>
<path vector-effect="none" fill-rule="nonzero" d="M0.108328,15.3227 L0.103298,8.65983 L1.21825,8.7259 L1.75102,9.37791 L1.70662,12.9064 L1.66222,14.5556 L1.04066,15.0542 L0.108328,15.3227"/>
</g>

<g fill="#000000" fill-opacity="1" stroke="none" transform="matrix(0.95,0,0,0.95,11.6,4.6)"
font-family="Inter" font-size="11" font-weight="700" font-style="normal" 
>
<circle cx="6.70111" cy="12.5452" r="1.68266"/>
</g>

<g fill="none" stroke="#000000" stroke-opacity="1" stroke-width="0.54" stroke-linecap="butt" stroke-linejoin="miter" stroke-miterlimit="4" transform="matrix(0.95,0,0,0.95,11.6,4.6)"
font-family="Inter" font-size="11" font-weight="700" font-style="normal" 
>
<circle cx="6.70111" cy="12.5452" r="1.68266"/>
</g>

<g fill="#000000" fill-opacity="1" stroke="none" transform="matrix(0.95,0,0,0.95,11.6,4.6)"
font-family="Inter" font-size="11" font-weight="700" font-style="normal" 
opacity="0.858824" >
<path vector-effect="none" fill-rule="evenodd" d="M8.42109,18.1373 C8.42109,18.0846 8.46385,18.0418 8.51661,18.0418 L15.4834,18.0418 C15.5361,18.0418 15.5789,18.0846 15.5789,18.1373 L15.5789,18.1373 C15.5789,18.1901 15.5361,18.2329 15.4834,18.2329 L8.51661,18.2329 C8.46385,18.2329 8.42109,18.1901 8.42109,18.1373 L8.42109,18.1373"/>
</g>

<g fill="none" stroke="#000000" stroke-opacity="1" stroke-width="0.437534" stroke-linecap="butt" stroke-linejoin="miter" stroke-miterlimit="4" transform="matrix(0.95,0,0,0.95,11.6,4.6)"
font-family="Inter" font-size="11" font-weight="700" font-style="normal" 
>
<path vector-effect="none" fill-rule="evenodd" d="M8.42109,18.1373 C8.42109,18.0846 8.46385,18.0418 8.51661,18.0418 L15.4834,18.0418 C15.5361,18.0418 15.5789,18.0846 15.5789,18.1373 L15.5789,18.1373 C15.5789,18.1901 15.5361,18.2329 15.4834,18.2329 L8.51661,18.2329 C8.46385,18.2329 8.42109,18.1901 8.42109,18.1373 L8.42109,18.1373"/>
</g>

<g fill="#ffffff" fill-opacity="1" stroke="none" transform="matrix(1,0,0,1,0,0)"
font-family="Inter" font-size="11" font-weight="700" font-style="normal" 
>
</g>

<g fill="#ffffff" fill-opacity="1" stroke="#00645c" stroke-opacity="1" stroke-width="1" stroke-linecap="square" stroke-linejoin="bevel" transform="matrix(1,0,0,1,0,0)"
font-family="Inter" font-size="11" font-weight="700" font-style="normal" 
>
<polyline fill="none" vector-effect="none" points="45,6 45,26 " />
</g>

<g fill="#009f94" fill-opacity="1" stroke="#00645c" stroke-opacity="1" stroke-width="1.2" stroke-linecap="square" stroke-linejoin="bevel" transform="matrix(1,0,0,1,251,4)"
font-family="Inter" font-size="11" font-weight="700" font-style="normal" 
>
<path vector-effect="none" fill-rule="evenodd" d="M0.5,3.5 C0.5,1.84315 1.84315,0.5 3.5,0.5 L70.5,0.5 C72.1569,0.5 73.5,1.84315 73.5,3.5 L73.5,20.5 C73.5,22.1569 72.1569,23.5 70.5,23.5 L3.5,23.5 C1.84315,23.5 0.5,22.1569 0.5,20.5 L0.5,3.5"/>
</g>

<g fill="#ffffff" fill-opacity="1" stroke="none" transform="matrix(1,0,0,1,251,4)"
font-family="Inter" font-size="11" font-weight="700" font-style="normal" 
>
<path vector-effect="none" fill-rule="nonzero" d="M9.00781,17.0781 L9.00781,8.82813 L10.6484,8.82813 L10.6484,9.83594 L10.7227,9.83594 C10.7956,9.67448 10.9017,9.50977 11.041,9.3418 C11.1803,9.17383 11.3626,9.0332 11.5879,8.91992 C11.8132,8.80664 12.0938,8.75 12.4297,8.75 C12.8672,8.75 13.2708,8.86393 13.6406,9.0918 C14.0104,9.31966 14.306,9.66211 14.5273,10.1191 C14.7487,10.5762 14.8594,11.1484 14.8594,11.8359 C14.8594,12.5052 14.752,13.0697 14.5371,13.5293 C14.3223,13.9889 14.0306,14.3366 13.6621,14.5723 C13.2936,14.8079 12.8815,14.9258 12.4258,14.9258 C12.1029,14.9258 11.8288,14.8724 11.6035,14.7656 C11.3783,14.6589 11.194,14.5241 11.0508,14.3613 C10.9076,14.1986 10.7982,14.0339 10.7227,13.8672 L10.6719,13.8672 L10.6719,17.0781 L9.00781,17.0781 M10.6367,11.8281 C10.6367,12.1849 10.6862,12.4961 10.7852,12.7617 C10.8841,13.0273 11.0273,13.2337 11.2148,13.3809 C11.4023,13.528 11.6302,13.6016 11.8984,13.6016 C12.1693,13.6016 12.3984,13.5267 12.5859,13.377 C12.7734,13.2272 12.916,13.0189 13.0137,12.752 C13.1113,12.485 13.1602,12.1771 13.1602,11.8281 C13.1602,11.4818 13.112,11.1771 13.0156,10.9141 C12.9193,10.651 12.7773,10.4453 12.5898,10.2969 C12.4023,10.1484 12.1719,10.0742 11.8984,10.0742 C11.6276,10.0742 11.3991,10.1458 11.2129,10.2891 C11.0267,10.4323 10.8841,10.6354 10.7852,10.8984 C10.6862,11.1615 10.6367,11.4714 10.6367,11.8281 M15.9609,14.8281 L15.9609,8.82813 L17.5742,8.82813 L17.5742,9.875 L17.6367,9.875 C17.7461,9.5026 17.9297,9.2207 18.1875,9.0293 C18.4453,8.83789 18.7422,8.74219 19.0781,8.74219 C19.1615,8.74219 19.2513,8.7474 19.3477,8.75781 C19.444,8.76823 19.5286,8.78255 19.6016,8.80078 L19.6016,10.2773 C19.5234,10.2539 19.4154,10.2331 19.2773,10.2148 C19.1393,10.1966 19.013,10.1875 18.8984,10.1875 C18.6536,10.1875 18.4355,10.2402 18.2441,10.3457 C18.0527,10.4512 17.9017,10.5977 17.791,10.7852 C17.6803,10.9727 17.625,11.1888 17.625,11.4336 L17.625,14.8281 L15.9609,14.8281 M22.8984,14.9453 C22.2813,14.9453 21.7507,14.8197 21.3066,14.5684 C20.8626,14.3171 20.5208,13.9603 20.2813,13.498 C20.0417,13.0358 19.9219,12.4883 19.9219,11.8555 C19.9219,11.2383 20.0417,10.6966 20.2813,10.2305 C20.5208,9.76432 20.8587,9.40104 21.2949,9.14063 C21.7311,8.88021 22.2435,8.75 22.832,8.75 C23.2279,8.75 23.597,8.81315 23.9395,8.93945 C24.2819,9.06576 24.5814,9.25521 24.8379,9.50781 C25.0944,9.76042 25.2943,10.0775 25.4375,10.459 C25.5807,10.8405 25.6523,11.2865 25.6523,11.7969 L25.6523,12.2539 L20.5859,12.2539 L20.5859,11.2227 L24.0859,11.2227 C24.0859,10.9831 24.0339,10.7708 23.9297,10.5859 C23.8255,10.401 23.6816,10.2559 23.498,10.1504 C23.3145,10.0449 23.1016,9.99219 22.8594,9.99219 C22.6068,9.99219 22.3835,10.0501 22.1895,10.166 C21.9954,10.2819 21.8438,10.4368 21.7344,10.6309 C21.625,10.8249 21.569,11.0404 21.5664,11.2773 L21.5664,12.2578 C21.5664,12.5547 21.6217,12.8112 21.7324,13.0273 C21.8431,13.2435 22,13.4102 22.2031,13.5273 C22.4063,13.6445 22.6471,13.7031 22.9258,13.7031 C23.1107,13.7031 23.2799,13.6771 23.4336,13.625 C23.5872,13.5729 23.7188,13.4948 23.8281,13.3906 C23.9375,13.2865 24.0208,13.1589 24.0781,13.0078 L25.6172,13.1094 C25.5391,13.4792 25.3796,13.8014 25.1387,14.0762 C24.8978,14.3509 24.5879,14.5645 24.209,14.7168 C23.8301,14.8691 23.3932,14.9453 22.8984,14.9453 M31.7188,10.5391 L30.1953,10.6328 C30.1693,10.5026 30.1133,10.3848 30.0273,10.2793 C29.9414,10.1738 29.8288,10.0892 29.6895,10.0254 C29.5501,9.96159 29.3841,9.92969 29.1914,9.92969 C28.9336,9.92969 28.7161,9.98372 28.5391,10.0918 C28.362,10.1999 28.2734,10.3438 28.2734,10.5234 C28.2734,10.6667 28.3307,10.7878 28.4453,10.8867 C28.5599,10.9857 28.7565,11.0651 29.0352,11.125 L30.1211,11.3438 C30.7044,11.4635 31.1393,11.6563 31.4258,11.9219 C31.7122,12.1875 31.8555,12.5365 31.8555,12.9688 C31.8555,13.362 31.7402,13.707 31.5098,14.0039 C31.2793,14.3008 30.9642,14.5319 30.5645,14.6973 C30.1647,14.8626 29.7044,14.9453 29.1836,14.9453 C28.3893,14.9453 27.7572,14.7793 27.2871,14.4473 C26.8171,14.1152 26.5417,13.6628 26.4609,13.0898 L28.0977,13.0039 C28.1471,13.2461 28.2669,13.4303 28.457,13.5566 C28.6471,13.6829 28.8906,13.7461 29.1875,13.7461 C29.4792,13.7461 29.7142,13.6895 29.8926,13.5762 C30.071,13.4629 30.1615,13.3164 30.1641,13.1367 C30.1615,12.9857 30.0977,12.8613 29.9727,12.7637 C29.8477,12.666 29.6549,12.5911 29.3945,12.5391 L28.3555,12.332 C27.7695,12.2148 27.334,12.0117 27.0488,11.7227 C26.7637,11.4336 26.6211,11.0651 26.6211,10.6172 C26.6211,10.2318 26.7259,9.89974 26.9355,9.62109 C27.1452,9.34245 27.4408,9.1276 27.8223,8.97656 C28.2038,8.82552 28.651,8.75 29.1641,8.75 C29.9219,8.75 30.5189,8.91016 30.9551,9.23047 C31.3913,9.55078 31.6458,9.98698 31.7188,10.5391 M37.8906,10.5391 L36.3672,10.6328 C36.3411,10.5026 36.2852,10.3848 36.1992,10.2793 C36.1133,10.1738 36.0007,10.0892 35.8613,10.0254 C35.722,9.96159 35.556,9.92969 35.3633,9.92969 C35.1055,9.92969 34.888,9.98372 34.7109,10.0918 C34.5339,10.1999 34.4453,10.3438 34.4453,10.5234 C34.4453,10.6667 34.5026,10.7878 34.6172,10.8867 C34.7318,10.9857 34.9284,11.0651 35.207,11.125 L36.293,11.3438 C36.8763,11.4635 37.3112,11.6563 37.5977,11.9219 C37.8841,12.1875 38.0273,12.5365 38.0273,12.9688 C38.0273,13.362 37.9121,13.707 37.6816,14.0039 C37.4512,14.3008 37.1361,14.5319 36.7363,14.6973 C36.3366,14.8626 35.8763,14.9453 35.3555,14.9453 C34.5612,14.9453 33.929,14.7793 33.459,14.4473 C32.9889,14.1152 32.7135,13.6628 32.6328,13.0898 L34.2695,13.0039 C34.319,13.2461 34.4388,13.4303 34.6289,13.5566 C34.819,13.6829 35.0625,13.7461 35.3594,13.7461 C35.651,13.7461 35.8861,13.6895 36.0645,13.5762 C36.2428,13.4629 36.3333,13.3164 36.3359,13.1367 C36.3333,12.9857 36.2695,12.8613 36.1445,12.7637 C36.0195,12.666 35.8268,12.5911 35.5664,12.5391 L34.5273,12.332 C33.9414,12.2148 33.5059,12.0117 33.2207,11.7227 C32.9355,11.4336 32.793,11.0651 32.793,10.6172 C32.793,10.2318 32.8978,9.89974 33.1074,9.62109 C33.3171,9.34245 33.6126,9.1276 33.9941,8.97656 C34.3757,8.82552 34.8229,8.75 35.3359,8.75 C36.0938,8.75 36.6908,8.91016 37.127,9.23047 C37.5632,9.55078 37.8177,9.98698 37.8906,10.5391 M41.8047,14.9453 C41.1875,14.9453 40.6569,14.8197 40.2129,14.5684 C39.7689,14.3171 39.4271,13.9603 39.1875,13.498 C38.9479,13.0358 38.8281,12.4883 38.8281,11.8555 C38.8281,11.2383 38.9479,10.6966 39.1875,10.2305 C39.4271,9.76432 39.765,9.40104 40.2012,9.14063 C40.6374,8.88021 41.1497,8.75 41.7383,8.75 C42.1341,8.75 42.5033,8.81315 42.8457,8.93945 C43.1882,9.06576 43.4876,9.25521 43.7441,9.50781 C44.0007,9.76042 44.2005,10.0775 44.3438,10.459 C44.487,10.8405 44.5586,11.2865 44.5586,11.7969 L44.5586,12.2539 L39.4922,12.2539 L39.4922,11.2227 L42.9922,11.2227 C42.9922,10.9831 42.9401,10.7708 42.8359,10.5859 C42.7318,10.401 42.5879,10.2559 42.4043,10.1504 C42.2207,10.0449 42.0078,9.99219 41.7656,9.99219 C41.513,9.99219 41.2897,10.0501 41.0957,10.166 C40.9017,10.2819 40.75,10.4368 40.6406,10.6309 C40.5313,10.8249 40.4753,11.0404 40.4727,11.2773 L40.4727,12.2578 C40.4727,12.5547 40.528,12.8112 40.6387,13.0273 C40.7493,13.2435 40.9063,13.4102 41.1094,13.5273 C41.3125,13.6445 41.5534,13.7031 41.832,13.7031 C42.0169,13.7031 42.1862,13.6771 42.3398,13.625 C42.4935,13.5729 42.625,13.4948 42.7344,13.3906 C42.8438,13.2865 42.9271,13.1589 42.9844,13.0078 L44.5234,13.1094 C44.4453,13.4792 44.2858,13.8014 44.0449,14.0762 C43.804,14.3509 43.4941,14.5645 43.1152,14.7168 C42.7363,14.8691 42.2995,14.9453 41.8047,14.9453 M47.8438,14.9258 C47.388,14.9258 46.9759,14.8079 46.6074,14.5723 C46.2389,14.3366 45.9473,13.9889 45.7324,13.5293 C45.5176,13.0697 45.4102,12.5052 45.4102,11.8359 C45.4102,11.1484 45.5208,10.5762 45.7422,10.1191 C45.9635,9.66211 46.2585,9.31966 46.627,9.0918 C46.9954,8.86393 47.3997,8.75 47.8398,8.75 C48.1758,8.75 48.4564,8.80664 48.6816,8.91992 C48.9069,9.0332 49.0892,9.17383 49.2285,9.3418 C49.3678,9.50977 49.474,9.67448 49.5469,9.83594 L49.5977,9.83594 L49.5977,6.82813 L51.2578,6.82813 L51.2578,14.8281 L49.6172,14.8281 L49.6172,13.8672 L49.5469,13.8672 C49.4688,14.0339 49.3587,14.1986 49.2168,14.3613 C49.0749,14.5241 48.8913,14.6589 48.666,14.7656 C48.4408,14.8724 48.1667,14.9258 47.8438,14.9258 M48.3711,13.6016 C48.6393,13.6016 48.8665,13.528 49.0527,13.3809 C49.2389,13.2337 49.3822,13.0273 49.4824,12.7617 C49.5827,12.4961 49.6328,12.1849 49.6328,11.8281 C49.6328,11.4714 49.5833,11.1615 49.4844,10.8984 C49.3854,10.6354 49.2422,10.4323 49.0547,10.2891 C48.8672,10.1458 48.6393,10.0742 48.3711,10.0742 C48.0977,10.0742 47.8672,10.1484 47.6797,10.2969 C47.4922,10.4453 47.3503,10.651 47.2539,10.9141 C47.1576,11.1771 47.1094,11.4818 47.1094,11.8281 C47.1094,12.1771 47.1582,12.485 47.2559,12.752 C47.3535,13.0189 47.4954,13.2272 47.6816,13.377 C47.8678,13.5267 48.0977,13.6016 48.3711,13.6016 "/>
</g>

<g fill="#ffffff" fill-opacity="1" stroke="none" transform="matrix(0.03125,0,0,0.03125,311,12)"
font-family="Inter" font-size="11" font-weight="700" font-style="normal" 
>
<path vector-effect="none" fill-rule="nonzero" d="M111.326,191.938 C120.545,201.158 135.517,201.158 144.737,191.938 L239.144,97.5313 C245.929,90.7458 247.921,80.6413 244.233,71.7907 C240.545,62.9401 231.989,57.1871 222.401,57.1871 L33.5875,57.2608 C24.0731,57.2608 15.4437,63.0137 11.7559,71.8644 C8.06815,80.715 10.1333,90.8195 16.845,97.605 L111.252,192.012 L111.326,191.938"/>
</g>

<g fill="none" stroke="#000000" stroke-opacity="1" stroke-width="13.7195" stroke-linecap="butt" stroke-linejoin="miter" stroke-miterlimit="4" transform="matrix(0.03125,0,0,0.03125,311,12)"
font-family="Inter" font-size="11" font-weight="700" font-style="normal" 
>
<path vector-effect="none" fill-rule="nonzero" d="M111.326,191.938 C120.545,201.158 135.517,201.158 144.737,191.938 L239.144,97.5313 C245.929,90.7458 247.921,80.6413 244.233,71.7907 C240.545,62.9401 231.989,57.1871 222.401,57.1871 L33.5875,57.2608 C24.0731,57.2608 15.4437,63.0137 11.7559,71.8644 C8.06815,80.715 10.1333,90.8195 16.845,97.605 L111.252,192.012 L111.326,191.938"/>
</g>

<g fill="#ffffff" fill-opacity="1" stroke="none" transform="matrix(1,0,0,1,251,4)"
font-family="Inter" font-size="11" font-weight="700" font-style="normal" 
>
</g>

<g fill="#ffffff" fill-opacity="1" stroke="#00645c" stroke-opacity="1" stroke-width="1" stroke-linecap="square" stroke-linejoin="bevel" transform="matrix(1,0,0,1,0,0)"
font-family="Inter" font-size="11" font-weight="700" font-style="normal" 
>
</g>

<g fill="#009f94" fill-opacity="1" stroke="#00645c" stroke-opacity="1" stroke-width="1.2" stroke-linecap="square" stroke-linejoin="bevel" transform="matrix(1,0,0,1,185,4)"
font-family="Inter" font-size="11" font-weight="700" font-style="normal" 
>
<path vector-effect="none" fill-rule="evenodd" d="M0.5,3.5 C0.5,1.84315 1.84315,0.5 3.5,0.5 L58.5,0.5 C60.1569,0.5 61.5,1.84315 61.5,3.5 L61.5,20.5 C61.5,22.1569 60.1569,23.5 58.5,23.5 L3.5,23.5 C1.84315,23.5 0.5,22.1569 0.5,20.5 L0.5,3.5"/>
</g>

<g fill="#ffffff" fill-opacity="1" stroke="none" transform="matrix(1,0,0,1,185,4)"
font-family="Inter" font-size="11" font-weight="700" font-style="normal" 
>
<path vector-effect="none" fill-rule="nonzero" d="M10.0078,15.9063 L10.0078,7.90625 L11.6719,7.90625 L11.6719,10.9141 L11.7227,10.9141 C11.7956,10.7526 11.9017,10.5879 12.041,10.4199 C12.1803,10.252 12.3626,10.1113 12.5879,9.99805 C12.8132,9.88477 13.0938,9.82813 13.4297,9.82813 C13.8672,9.82813 14.2708,9.94206 14.6406,10.1699 C15.0104,10.3978 15.306,10.7402 15.5273,11.1973 C15.7487,11.6543 15.8594,12.2266 15.8594,12.9141 C15.8594,13.5833 15.752,14.1478 15.5371,14.6074 C15.3223,15.0671 15.0306,15.4147 14.6621,15.6504 C14.2936,15.8861 13.8815,16.0039 13.4258,16.0039 C13.1029,16.0039 12.8288,15.9505 12.6035,15.8438 C12.3783,15.737 12.194,15.6022 12.0508,15.4395 C11.9076,15.2767 11.7982,15.112 11.7227,14.9453 L11.6484,14.9453 L11.6484,15.9063 L10.0078,15.9063 M11.6367,12.9063 C11.6367,13.263 11.6862,13.5742 11.7852,13.8398 C11.8841,14.1055 12.0273,14.3118 12.2148,14.459 C12.4023,14.6061 12.6302,14.6797 12.8984,14.6797 C13.1693,14.6797 13.3984,14.6048 13.5859,14.4551 C13.7734,14.3053 13.916,14.097 14.0137,13.8301 C14.1113,13.5632 14.1602,13.2552 14.1602,12.9063 C14.1602,12.5599 14.112,12.2552 14.0156,11.9922 C13.9193,11.7292 13.7773,11.5234 13.5898,11.375 C13.4023,11.2266 13.1719,11.1523 12.8984,11.1523 C12.6276,11.1523 12.3991,11.224 12.2129,11.3672 C12.0267,11.5104 11.8841,11.7135 11.7852,11.9766 C11.6862,12.2396 11.6367,12.5495 11.6367,12.9063 M16.9609,15.9063 L16.9609,9.90625 L18.5742,9.90625 L18.5742,10.9531 L18.6367,10.9531 C18.7461,10.5807 18.9297,10.2988 19.1875,10.1074 C19.4453,9.91602 19.7422,9.82031 20.0781,9.82031 C20.1615,9.82031 20.2513,9.82552 20.3477,9.83594 C20.444,9.84635 20.5286,9.86068 20.6016,9.87891 L20.6016,11.3555 C20.5234,11.332 20.4154,11.3112 20.2773,11.293 C20.1393,11.2747 20.013,11.2656 19.8984,11.2656 C19.6536,11.2656 19.4355,11.3184 19.2441,11.4238 C19.0527,11.5293 18.9017,11.6758 18.791,11.8633 C18.6803,12.0508 18.625,12.2669 18.625,12.5117 L18.625,15.9063 L16.9609,15.9063 M22.9844,16.0195 C22.6016,16.0195 22.2604,15.9525 21.9609,15.8184 C21.6615,15.6842 21.4251,15.485 21.252,15.2207 C21.0788,14.9564 20.9922,14.6263 20.9922,14.2305 C20.9922,13.8971 21.0534,13.6172 21.1758,13.3906 C21.2982,13.1641 21.4648,12.9818 21.6758,12.8438 C21.8867,12.7057 22.127,12.6016 22.3965,12.5313 C22.666,12.4609 22.9492,12.4115 23.2461,12.3828 C23.5951,12.3464 23.8763,12.3118 24.0898,12.2793 C24.3034,12.2467 24.4583,12.1979 24.5547,12.1328 C24.651,12.0677 24.6992,11.9714 24.6992,11.8438 L24.6992,11.8203 C24.6992,11.5729 24.6217,11.3815 24.4668,11.2461 C24.3118,11.1107 24.0924,11.043 23.8086,11.043 C23.5091,11.043 23.2708,11.1087 23.0938,11.2402 C22.9167,11.3717 22.7995,11.5365 22.7422,11.7344 L21.2031,11.6094 C21.2813,11.2448 21.4349,10.929 21.6641,10.6621 C21.8932,10.3952 22.1895,10.1895 22.5527,10.0449 C22.916,9.90039 23.3372,9.82813 23.8164,9.82813 C24.1497,9.82813 24.4694,9.86719 24.7754,9.94531 C25.0814,10.0234 25.3535,10.1445 25.5918,10.3086 C25.8301,10.4727 26.0182,10.6829 26.1563,10.9395 C26.2943,11.196 26.3633,11.5026 26.3633,11.8594 L26.3633,15.9063 L24.7852,15.9063 L24.7852,15.0742 L24.7383,15.0742 C24.6419,15.2617 24.513,15.4264 24.3516,15.5684 C24.1901,15.7103 23.9961,15.821 23.7695,15.9004 C23.543,15.9798 23.2813,16.0195 22.9844,16.0195 M23.4609,14.8711 C23.7057,14.8711 23.9219,14.8223 24.1094,14.7246 C24.2969,14.627 24.444,14.4948 24.5508,14.3281 C24.6576,14.1615 24.7109,13.9727 24.7109,13.7617 L24.7109,13.125 C24.6589,13.1589 24.5879,13.1895 24.498,13.2168 C24.4082,13.2441 24.3073,13.2689 24.1953,13.291 C24.0833,13.3132 23.9714,13.3327 23.8594,13.3496 C23.7474,13.3665 23.6458,13.3815 23.5547,13.3945 C23.3594,13.4232 23.1888,13.4688 23.043,13.5313 C22.8971,13.5938 22.7839,13.6777 22.7031,13.7832 C22.6224,13.8887 22.582,14.0195 22.582,14.1758 C22.582,14.4023 22.6647,14.5749 22.8301,14.6934 C22.9954,14.8118 23.2057,14.8711 23.4609,14.8711 M29.1563,14.1797 L29.1602,12.1836 L29.4023,12.1836 L31.3242,9.90625 L33.2344,9.90625 L30.6523,12.9219 L30.2578,12.9219 L29.1563,14.1797 M27.6484,15.9063 L27.6484,7.90625 L29.3125,7.90625 L29.3125,15.9063 L27.6484,15.9063 M31.3984,15.9063 L29.6328,13.293 L30.7422,12.1172 L33.3477,15.9063 L31.3984,15.9063 M36.5234,16.0234 C35.9063,16.0234 35.3757,15.8978 34.9316,15.6465 C34.4876,15.3952 34.1458,15.0384 33.9063,14.5762 C33.6667,14.1139 33.5469,13.5664 33.5469,12.9336 C33.5469,12.3164 33.6667,11.7747 33.9063,11.3086 C34.1458,10.8424 34.4837,10.4792 34.9199,10.2188 C35.3561,9.95833 35.8685,9.82813 36.457,9.82813 C36.8529,9.82813 37.222,9.89128 37.5645,10.0176 C37.9069,10.1439 38.2064,10.3333 38.4629,10.5859 C38.7194,10.8385 38.9193,11.1556 39.0625,11.5371 C39.2057,11.9186 39.2773,12.3646 39.2773,12.875 L39.2773,13.332 L34.2109,13.332 L34.2109,12.3008 L37.7109,12.3008 C37.7109,12.0612 37.6589,11.849 37.5547,11.6641 C37.4505,11.4792 37.3066,11.334 37.123,11.2285 C36.9395,11.123 36.7266,11.0703 36.4844,11.0703 C36.2318,11.0703 36.0085,11.1283 35.8145,11.2441 C35.6204,11.36 35.4688,11.515 35.3594,11.709 C35.25,11.903 35.194,12.1185 35.1914,12.3555 L35.1914,13.3359 C35.1914,13.6328 35.2467,13.8893 35.3574,14.1055 C35.4681,14.3216 35.625,14.4883 35.8281,14.6055 C36.0313,14.7227 36.2721,14.7813 36.5508,14.7813 C36.7357,14.7813 36.9049,14.7552 37.0586,14.7031 C37.2122,14.651 37.3438,14.5729 37.4531,14.4688 C37.5625,14.3646 37.6458,14.237 37.7031,14.0859 L39.2422,14.1875 C39.1641,14.5573 39.0046,14.8796 38.7637,15.1543 C38.5228,15.429 38.2129,15.6426 37.834,15.7949 C37.4551,15.9473 37.0182,16.0234 36.5234,16.0234 "/>
</g>

<g fill="#ffffff" fill-opacity="1" stroke="none" transform="matrix(0.03125,0,0,0.03125,233,12)"
font-family="Inter" font-size="11" font-weight="700" font-style="normal" 
>
<path vector-effect="none" fill-rule="nonzero" d="M111.326,191.938 C120.545,201.158 135.517,201.158 144.737,191.938 L239.144,97.5313 C245.929,90.7458 247.921,80.6413 244.233,71.7907 C240.545,62.9401 231.989,57.1871 222.401,57.1871 L33.5875,57.2608 C24.0731,57.2608 15.4437,63.0137 11.7559,71.8644 C8.06815,80.715 10.1333,90.8195 16.845,97.605 L111.252,192.012 L111.326,191.938"/>
</g>

<g fill="none" stroke="#000000" stroke-opacity="1" stroke-width="13.7195" stroke-linecap="butt" stroke-linejoin="miter" stroke-miterlimit="4" transform="matrix(0.03125,0,0,0.03125,233,12)"
font-family="Inter" font-size="11" font-weight="700" font-style="normal" 
>
<path vector-effect="none" fill-rule="nonzero" d="M111.326,191.938 C120.545,201.158 135.517,201.158 144.737,191.938 L239.144,97.5313 C245.929,90.7458 247.921,80.6413 244.233,71.7907 C240.545,62.9401 231.989,57.1871 222.401,57.1871 L33.5875,57.2608 C24.0731,57.2608 15.4437,63.0137 11.7559,71.8644 C8.06815,80.715 10.1333,90.8195 16.845,97.605 L111.252,192.012 L111.326,191.938"/>
</g>

<g fill="#ffffff" fill-opacity="1" stroke="none" transform="matrix(1,0,0,1,185,4)"
font-family="Inter" font-size="11" font-weight="700" font-style="normal" 
>
</g>

<g fill="#ffffff" fill-opacity="1" stroke="#00645c" stroke-opacity="1" stroke-width="1" stroke-linecap="square" stroke-linejoin="bevel" transform="matrix(1,0,0,1,0,0)"
font-family="Inter" font-size="11" font-weight="700" font-style="normal" 
>
</g>

<g fill="#009f94" fill-opacity="1" stroke="#00645c" stroke-opacity="1" stroke-width="1.2" stroke-linecap="square" stroke-linejoin="bevel" transform="matrix(1,0,0,1,99,4)"
font-family="Inter" font-size="11" font-weight="700" font-style="normal" 
>
<path vector-effect="none" fill-rule="evenodd" d="M0.5,3.5 C0.5,1.84315 1.84315,0.5 3.5,0.5 L78.5,0.5 C80.1569,0.5 81.5,1.84315 81.5,3.5 L81.5,20.5 C81.5,22.1569 80.1569,23.5 78.5,23.5 L3.5,23.5 C1.84315,23.5 0.5,22.1569 0.5,20.5 L0.5,3.5"/>
</g>

<g fill="#ffffff" fill-opacity="1" stroke="none" transform="matrix(1,0,0,1,99,4)"
font-family="Inter" font-size="11" font-weight="700" font-style="normal" 
>
<path vector-effect="none" fill-rule="nonzero" d="M10.0078,16 L10.0078,8 L13.1641,8 C13.7708,8 14.2878,8.11523 14.7148,8.3457 C15.1419,8.57617 15.4681,8.89518 15.6934,9.30273 C15.9186,9.71029 16.0313,10.1797 16.0313,10.7109 C16.0313,11.2422 15.9167,11.7109 15.6875,12.1172 C15.4583,12.5234 15.127,12.8398 14.6934,13.0664 C14.2598,13.293 13.7357,13.4063 13.1211,13.4063 L11.1094,13.4063 L11.1094,12.0508 L12.8477,12.0508 C13.1732,12.0508 13.4421,11.9941 13.6543,11.8809 C13.8665,11.7676 14.0254,11.61 14.1309,11.4082 C14.2363,11.2064 14.2891,10.974 14.2891,10.7109 C14.2891,10.4453 14.2363,10.2129 14.1309,10.0137 C14.0254,9.81445 13.8659,9.65951 13.6523,9.54883 C13.4388,9.43815 13.168,9.38281 12.8398,9.38281 L11.6992,9.38281 L11.6992,16 L10.0078,16 M19.9688,16 L17.1328,16 L17.1328,8 L19.9922,8 C20.7969,8 21.4896,8.15951 22.0703,8.47852 C22.651,8.79753 23.0983,9.25521 23.4121,9.85156 C23.7259,10.4479 23.8828,11.1615 23.8828,11.9922 C23.8828,12.8255 23.7259,13.5417 23.4121,14.1406 C23.0983,14.7396 22.6491,15.1992 22.0645,15.5195 C21.4798,15.8398 20.7813,16 19.9688,16 M18.8242,14.5508 L19.8984,14.5508 C20.3984,14.5508 20.8197,14.4616 21.1621,14.2832 C21.5046,14.1048 21.7624,13.8275 21.9355,13.4512 C22.1087,13.0749 22.1953,12.5885 22.1953,11.9922 C22.1953,11.401 22.1087,10.918 21.9355,10.543 C21.7624,10.168 21.5052,9.89193 21.1641,9.71484 C20.8229,9.53776 20.4023,9.44922 19.9023,9.44922 L18.8242,9.44922 L18.8242,14.5508 M25.1328,16 L25.1328,8 L26.8242,8 L26.8242,14.6055 L30.2539,14.6055 L30.2539,16 L25.1328,16 M31.3672,8 L33.4531,8 L35.6563,13.375 L35.75,13.375 L37.9531,8 L40.0391,8 L40.0391,16 L38.3984,16 L38.3984,10.793 L38.332,10.793 L36.2617,15.9609 L35.1445,15.9609 L33.0742,10.7734 L33.0078,10.7734 L33.0078,16 L31.3672,16 L31.3672,8 M41.4297,16 L41.4297,8 L44.5859,8 C45.1901,8 45.7064,8.10742 46.1348,8.32227 C46.5632,8.53711 46.89,8.84049 47.1152,9.23242 C47.3405,9.62435 47.4531,10.0846 47.4531,10.6133 C47.4531,11.1445 47.3385,11.6009 47.1094,11.9824 C46.8802,12.3639 46.5488,12.6563 46.1152,12.8594 C45.6816,13.0625 45.1576,13.1641 44.543,13.1641 L42.4297,13.1641 L42.4297,11.8047 L44.2695,11.8047 C44.5924,11.8047 44.8607,11.7604 45.0742,11.6719 C45.2878,11.5833 45.4473,11.4505 45.5527,11.2734 C45.6582,11.0964 45.7109,10.8763 45.7109,10.6133 C45.7109,10.3477 45.6582,10.1237 45.5527,9.94141 C45.4473,9.75911 45.2871,9.62044 45.0723,9.52539 C44.8574,9.43034 44.5872,9.38281 44.2617,9.38281 L43.1211,9.38281 L43.1211,16 L41.4297,16 M45.75,12.3594 L47.7383,16 L45.8711,16 L43.9258,12.3594 L45.75,12.3594 M48.6484,16 L48.6484,8 L50.3398,8 L50.3398,11.5273 L50.4453,11.5273 L53.3242,8 L55.3516,8 L52.3828,11.582 L55.3867,16 L53.3633,16 L51.1719,12.7109 L50.3398,13.7266 L50.3398,16 L48.6484,16 M59.6602,8 L59.6602,16 L57.9688,16 L57.9688,9.60547 L57.9219,9.60547 L56.0898,10.7539 L56.0898,9.25391 L58.0703,8 L59.6602,8"/>
</g>

<g fill="#ffffff" fill-opacity="1" stroke="none" transform="matrix(0.03125,0,0,0.03125,167,12)"
font-family="Inter" font-size="11" font-weight="700" font-style="normal" 
>
<path vector-effect="none" fill-rule="nonzero" d="M111.326,191.938 C120.545,201.158 135.517,201.158 144.737,191.938 L239.144,97.5313 C245.929,90.7458 247.921,80.6413 244.233,71.7907 C240.545,62.9401 231.989,57.1871 222.401,57.1871 L33.5875,57.2608 C24.0731,57.2608 15.4437,63.0137 11.7559,71.8644 C8.06815,80.715 10.1333,90.8195 16.845,97.605 L111.252,192.012 L111.326,191.938"/>
</g>

<g fill="none" stroke="#000000" stroke-opacity="1" stroke-width="13.7195" stroke-linecap="butt" stroke-linejoin="miter" stroke-miterlimit="4" transform="matrix(0.03125,0,0,0.03125,167,12)"
font-family="Inter" font-size="11" font-weight="700" font-style="normal" 
>
<path vector-effect="none" fill-rule="nonzero" d="M111.326,191.938 C120.545,201.158 135.517,201.158 144.737,191.938 L239.144,97.5313 C245.929,90.7458 247.921,80.6413 244.233,71.7907 C240.545,62.9401 231.989,57.1871 222.401,57.1871 L33.5875,57.2608 C24.0731,57.2608 15.4437,63.0137 11.7559,71.8644 C8.06815,80.715 10.1333,90.8195 16.845,97.605 L111.252,192.012 L111.326,191.938"/>
</g>

<g fill="#ffffff" fill-opacity="1" stroke="none" transform="matrix(1,0,0,1,99,4)"
font-family="Inter" font-size="11" font-weight="700" font-style="normal" 
>
</g>

<g fill="#ffffff" fill-opacity="1" stroke="#00645c" stroke-opacity="1" stroke-width="1" stroke-linecap="square" stroke-linejoin="bevel" transform="matrix(1,0,0,1,0,0)"
font-family="Inter" font-size="11" font-weight="700" font-style="normal" 
>
</g>

<g fill="#ffffff" fill-opacity="1" stroke="#00645c" stroke-opacity="1" stroke-width="1" stroke-linecap="square" stroke-linejoin="bevel" transform="matrix(1,0,0,1,0,0)"
font-family="Inter" font-size="11" font-weight="700" font-style="normal" 
>
</g>

<g fill="none" stroke="#000000" stroke-opacity="1" stroke-width="1" stroke-linecap="square" stroke-linejoin="bevel" transform="matrix(1,0,0,1,0,0)"
font-family=".AppleSystemUIFont" font-size="13" font-weight="400" font-style="normal" 
>
</g>
</g>
</svg>
