<?xml version="1.0" encoding="UTF-8" standalone="no"?>
<svg width="110.772mm" height="11.2889mm"
 viewBox="0 0 314 32"
 xmlns="http://www.w3.org/2000/svg" xmlns:xlink="http://www.w3.org/1999/xlink" version="1.2" baseProfile="tiny">
<title>Abstract block</title>
<desc>block_hubs_all_sensors_accelerometer</desc>
<defs>
</defs>
<g fill="none" stroke="black" stroke-width="1" fill-rule="evenodd" stroke-linecap="square" stroke-linejoin="bevel" >

<g fill="none" stroke="#000000" stroke-opacity="1" stroke-width="1" stroke-linecap="square" stroke-linejoin="bevel" transform="matrix(1,0,0,1,0,0)"
font-family=".AppleSystemUIFont" font-size="13" font-weight="400" font-style="normal" 
>
</g>

<g fill="none" stroke="#000000" stroke-opacity="1" stroke-width="1" stroke-linecap="square" stroke-linejoin="bevel" transform="matrix(1,0,0,1,0,0)"
font-family=".AppleSystemUIFont" font-size="13" font-weight="400" font-style="normal" 
>
</g>

<g fill="#1dccf0" fill-opacity="1" stroke="#0da6c5" stroke-opacity="1" stroke-width="1.2" stroke-linecap="square" stroke-linejoin="bevel" transform="matrix(1,0,0,1,0,0)"
font-family=".AppleSystemUIFont" font-size="13" font-weight="400" font-style="normal" 
>
<path vector-effect="none" fill-rule="evenodd" d="M1,16 C1,7.71573 8.16344,1 17,1 L296.667,1 C305.503,1 312.667,7.71573 312.667,16 C312.667,24.2843 305.503,31 296.667,31 L17,31 C8.16344,31 1,24.2843 1,16 "/>
</g>

<g fill="#ffffff" fill-opacity="1" stroke="none" transform="matrix(1,0,0,1,0,0)"
font-family="Inter" font-size="11" font-weight="700" font-style="normal" 
>
<path vector-effect="none" fill-rule="nonzero" d="M189.109,19.5977 C188.727,19.5977 188.385,19.5306 188.086,19.3965 C187.786,19.2624 187.55,19.0632 187.377,18.7988 C187.204,18.5345 187.117,18.2044 187.117,17.8086 C187.117,17.4753 187.178,17.1953 187.301,16.9688 C187.423,16.7422 187.59,16.5599 187.801,16.4219 C188.012,16.2839 188.252,16.1797 188.521,16.1094 C188.791,16.0391 189.074,15.9896 189.371,15.9609 C189.72,15.9245 190.001,15.89 190.215,15.8574 C190.428,15.8249 190.583,15.776 190.68,15.7109 C190.776,15.6458 190.824,15.5495 190.824,15.4219 L190.824,15.3984 C190.824,15.151 190.747,14.9596 190.592,14.8242 C190.437,14.6888 190.217,14.6211 189.934,14.6211 C189.634,14.6211 189.396,14.6868 189.219,14.8184 C189.042,14.9499 188.924,15.1146 188.867,15.3125 L187.328,15.1875 C187.406,14.8229 187.56,14.5072 187.789,14.2402 C188.018,13.9733 188.314,13.7676 188.678,13.623 C189.041,13.4785 189.462,13.4063 189.941,13.4063 C190.275,13.4063 190.594,13.4453 190.9,13.5234 C191.206,13.6016 191.479,13.7227 191.717,13.8867 C191.955,14.0508 192.143,14.2611 192.281,14.5176 C192.419,14.7741 192.488,15.0807 192.488,15.4375 L192.488,19.4844 L190.91,19.4844 L190.91,18.6523 L190.863,18.6523 C190.767,18.8398 190.638,19.0046 190.477,19.1465 C190.315,19.2884 190.121,19.3991 189.895,19.4785 C189.668,19.5579 189.406,19.5977 189.109,19.5977 M189.586,18.4492 C189.831,18.4492 190.047,18.4004 190.234,18.3027 C190.422,18.2051 190.569,18.0729 190.676,17.9063 C190.783,17.7396 190.836,17.5508 190.836,17.3398 L190.836,16.7031 C190.784,16.737 190.713,16.7676 190.623,16.7949 C190.533,16.8223 190.432,16.847 190.32,16.8691 C190.208,16.8913 190.096,16.9108 189.984,16.9277 C189.872,16.9447 189.771,16.9596 189.68,16.9727 C189.484,17.0013 189.314,17.0469 189.168,17.1094 C189.022,17.1719 188.909,17.2559 188.828,17.3613 C188.747,17.4668 188.707,17.5977 188.707,17.7539 C188.707,17.9805 188.79,18.153 188.955,18.2715 C189.12,18.39 189.331,18.4492 189.586,18.4492 M196.484,19.6016 C195.87,19.6016 195.342,19.4707 194.9,19.209 C194.459,18.9473 194.12,18.5833 193.885,18.1172 C193.649,17.651 193.531,17.1146 193.531,16.5078 C193.531,15.8932 193.65,15.3535 193.889,14.8887 C194.127,14.4238 194.466,14.0605 194.906,13.7988 C195.346,13.5371 195.87,13.4063 196.477,13.4063 C197,13.4063 197.458,13.5013 197.852,13.6914 C198.245,13.8815 198.556,14.1484 198.785,14.4922 C199.014,14.8359 199.141,15.2396 199.164,15.7031 L197.594,15.7031 C197.549,15.4036 197.433,15.1621 197.244,14.9785 C197.055,14.7949 196.809,14.7031 196.504,14.7031 C196.246,14.7031 196.021,14.7728 195.83,14.9121 C195.639,15.0514 195.49,15.2539 195.383,15.5195 C195.276,15.7852 195.223,16.1068 195.223,16.4844 C195.223,16.8672 195.275,17.1927 195.381,17.4609 C195.486,17.7292 195.635,17.9336 195.828,18.0742 C196.021,18.2148 196.246,18.2852 196.504,18.2852 C196.694,18.2852 196.865,18.2461 197.018,18.168 C197.17,18.0898 197.296,17.9759 197.396,17.8262 C197.497,17.6764 197.563,17.4961 197.594,17.2852 L199.164,17.2852 C199.138,17.7435 199.014,18.1465 198.791,18.4941 C198.568,18.8418 198.262,19.1133 197.871,19.3086 C197.48,19.5039 197.018,19.6016 196.484,19.6016 M202.938,19.6016 C202.323,19.6016 201.795,19.4707 201.354,19.209 C200.912,18.9473 200.574,18.5833 200.338,18.1172 C200.102,17.651 199.984,17.1146 199.984,16.5078 C199.984,15.8932 200.104,15.3535 200.342,14.8887 C200.58,14.4238 200.919,14.0605 201.359,13.7988 C201.799,13.5371 202.323,13.4063 202.93,13.4063 C203.453,13.4063 203.911,13.5013 204.305,13.6914 C204.698,13.8815 205.009,14.1484 205.238,14.4922 C205.467,14.8359 205.594,15.2396 205.617,15.7031 L204.047,15.7031 C204.003,15.4036 203.886,15.1621 203.697,14.9785 C203.508,14.7949 203.262,14.7031 202.957,14.7031 C202.699,14.7031 202.475,14.7728 202.283,14.9121 C202.092,15.0514 201.943,15.2539 201.836,15.5195 C201.729,15.7852 201.676,16.1068 201.676,16.4844 C201.676,16.8672 201.729,17.1927 201.834,17.4609 C201.939,17.7292 202.089,17.9336 202.281,18.0742 C202.474,18.2148 202.699,18.2852 202.957,18.2852 C203.147,18.2852 203.318,18.2461 203.471,18.168 C203.623,18.0898 203.749,17.9759 203.85,17.8262 C203.95,17.6764 204.016,17.4961 204.047,17.2852 L205.617,17.2852 C205.591,17.7435 205.467,18.1465 205.244,18.4941 C205.021,18.8418 204.715,19.1133 204.324,19.3086 C203.934,19.5039 203.471,19.6016 202.938,19.6016 M209.414,19.6016 C208.797,19.6016 208.266,19.4759 207.822,19.2246 C207.378,18.9733 207.036,18.6165 206.797,18.1543 C206.557,17.6921 206.438,17.1445 206.438,16.5117 C206.438,15.8945 206.557,15.3529 206.797,14.8867 C207.036,14.4206 207.374,14.0573 207.811,13.7969 C208.247,13.5365 208.759,13.4063 209.348,13.4063 C209.743,13.4063 210.113,13.4694 210.455,13.5957 C210.798,13.722 211.097,13.9115 211.354,14.1641 C211.61,14.4167 211.81,14.7337 211.953,15.1152 C212.096,15.4967 212.168,15.9427 212.168,16.4531 L212.168,16.9102 L207.102,16.9102 L207.102,15.8789 L210.602,15.8789 C210.602,15.6393 210.549,15.4271 210.445,15.2422 C210.341,15.0573 210.197,14.9121 210.014,14.8066 C209.83,14.7012 209.617,14.6484 209.375,14.6484 C209.122,14.6484 208.899,14.7064 208.705,14.8223 C208.511,14.9382 208.359,15.0931 208.25,15.2871 C208.141,15.4811 208.085,15.6966 208.082,15.9336 L208.082,16.9141 C208.082,17.2109 208.137,17.4674 208.248,17.6836 C208.359,17.8997 208.516,18.0664 208.719,18.1836 C208.922,18.3008 209.163,18.3594 209.441,18.3594 C209.626,18.3594 209.796,18.3333 209.949,18.2813 C210.103,18.2292 210.234,18.151 210.344,18.0469 C210.453,17.9427 210.536,17.8151 210.594,17.6641 L212.133,17.7656 C212.055,18.1354 211.895,18.4577 211.654,18.7324 C211.413,19.0072 211.104,19.2207 210.725,19.373 C210.346,19.5254 209.909,19.6016 209.414,19.6016 M214.906,11.4844 L214.906,19.4844 L213.242,19.4844 L213.242,11.4844 L214.906,11.4844 M218.961,19.6016 C218.344,19.6016 217.813,19.4759 217.369,19.2246 C216.925,18.9733 216.583,18.6165 216.344,18.1543 C216.104,17.6921 215.984,17.1445 215.984,16.5117 C215.984,15.8945 216.104,15.3529 216.344,14.8867 C216.583,14.4206 216.921,14.0573 217.357,13.7969 C217.794,13.5365 218.306,13.4063 218.895,13.4063 C219.29,13.4063 219.66,13.4694 220.002,13.5957 C220.344,13.722 220.644,13.9115 220.9,14.1641 C221.157,14.4167 221.357,14.7337 221.5,15.1152 C221.643,15.4967 221.715,15.9427 221.715,16.4531 L221.715,16.9102 L216.648,16.9102 L216.648,15.8789 L220.148,15.8789 C220.148,15.6393 220.096,15.4271 219.992,15.2422 C219.888,15.0573 219.744,14.9121 219.561,14.8066 C219.377,14.7012 219.164,14.6484 218.922,14.6484 C218.669,14.6484 218.446,14.7064 218.252,14.8223 C218.058,14.9382 217.906,15.0931 217.797,15.2871 C217.688,15.4811 217.632,15.6966 217.629,15.9336 L217.629,16.9141 C217.629,17.2109 217.684,17.4674 217.795,17.6836 C217.906,17.8997 218.063,18.0664 218.266,18.1836 C218.469,18.3008 218.71,18.3594 218.988,18.3594 C219.173,18.3594 219.342,18.3333 219.496,18.2813 C219.65,18.2292 219.781,18.151 219.891,18.0469 C220,17.9427 220.083,17.8151 220.141,17.6641 L221.68,17.7656 C221.602,18.1354 221.442,18.4577 221.201,18.7324 C220.96,19.0072 220.65,19.2207 220.271,19.373 C219.893,19.5254 219.456,19.6016 218.961,19.6016 M222.789,19.4844 L222.789,13.4844 L224.402,13.4844 L224.402,14.5313 L224.465,14.5313 C224.574,14.1589 224.758,13.877 225.016,13.6855 C225.273,13.4941 225.57,13.3984 225.906,13.3984 C225.99,13.3984 226.079,13.4036 226.176,13.4141 C226.272,13.4245 226.357,13.4388 226.43,13.457 L226.43,14.9336 C226.352,14.9102 226.243,14.8893 226.105,14.8711 C225.967,14.8529 225.841,14.8438 225.727,14.8438 C225.482,14.8438 225.264,14.8965 225.072,15.002 C224.881,15.1074 224.73,15.2539 224.619,15.4414 C224.508,15.6289 224.453,15.8451 224.453,16.0898 L224.453,19.4844 L222.789,19.4844 M229.703,19.6016 C229.096,19.6016 228.572,19.472 228.131,19.2129 C227.689,18.9538 227.349,18.5918 227.109,18.127 C226.87,17.6621 226.75,17.1224 226.75,16.5078 C226.75,15.888 226.87,15.3457 227.109,14.8809 C227.349,14.416 227.689,14.054 228.131,13.7949 C228.572,13.5358 229.096,13.4063 229.703,13.4063 C230.31,13.4063 230.834,13.5358 231.275,13.7949 C231.717,14.054 232.057,14.416 232.297,14.8809 C232.536,15.3457 232.656,15.888 232.656,16.5078 C232.656,17.1224 232.536,17.6621 232.297,18.127 C232.057,18.5918 231.717,18.9538 231.275,19.2129 C230.834,19.472 230.31,19.6016 229.703,19.6016 M229.711,18.3125 C229.987,18.3125 230.217,18.2337 230.402,18.0762 C230.587,17.9186 230.727,17.7031 230.822,17.4297 C230.917,17.1563 230.965,16.8451 230.965,16.4961 C230.965,16.1471 230.917,15.8359 230.822,15.5625 C230.727,15.2891 230.587,15.0729 230.402,14.9141 C230.217,14.7552 229.987,14.6758 229.711,14.6758 C229.432,14.6758 229.199,14.7552 229.01,14.9141 C228.821,15.0729 228.679,15.2891 228.584,15.5625 C228.489,15.8359 228.441,16.1471 228.441,16.4961 C228.441,16.8451 228.489,17.1563 228.584,17.4297 C228.679,17.7031 228.821,17.9186 229.01,18.0762 C229.199,18.2337 229.432,18.3125 229.711,18.3125 M233.742,19.4844 L233.742,13.4844 L235.328,13.4844 L235.328,14.543 L235.398,14.543 C235.523,14.1914 235.732,13.9141 236.023,13.7109 C236.315,13.5078 236.664,13.4063 237.07,13.4063 C237.482,13.4063 237.832,13.5085 238.121,13.7129 C238.41,13.9173 238.603,14.194 238.699,14.543 L238.762,14.543 C238.884,14.1992 239.106,13.9238 239.428,13.7168 C239.749,13.5098 240.13,13.4063 240.57,13.4063 C241.13,13.4063 241.585,13.584 241.936,13.9395 C242.286,14.2949 242.461,14.7982 242.461,15.4492 L242.461,19.4844 L240.801,19.4844 L240.801,15.7773 C240.801,15.444 240.712,15.194 240.535,15.0273 C240.358,14.8607 240.137,14.7773 239.871,14.7773 C239.569,14.7773 239.333,14.873 239.164,15.0645 C238.995,15.2559 238.91,15.5078 238.91,15.8203 L238.91,19.4844 L237.297,19.4844 L237.297,15.7422 C237.297,15.4479 237.213,15.2135 237.045,15.0391 C236.877,14.8646 236.656,14.7773 236.383,14.7773 C236.198,14.7773 236.032,14.8236 235.885,14.916 C235.738,15.0085 235.621,15.1374 235.535,15.3027 C235.449,15.4681 235.406,15.6615 235.406,15.8828 L235.406,19.4844 L233.742,19.4844 M246.508,19.6016 C245.891,19.6016 245.36,19.4759 244.916,19.2246 C244.472,18.9733 244.13,18.6165 243.891,18.1543 C243.651,17.6921 243.531,17.1445 243.531,16.5117 C243.531,15.8945 243.651,15.3529 243.891,14.8867 C244.13,14.4206 244.468,14.0573 244.904,13.7969 C245.34,13.5365 245.853,13.4063 246.441,13.4063 C246.837,13.4063 247.206,13.4694 247.549,13.5957 C247.891,13.722 248.191,13.9115 248.447,14.1641 C248.704,14.4167 248.904,14.7337 249.047,15.1152 C249.19,15.4967 249.262,15.9427 249.262,16.4531 L249.262,16.9102 L244.195,16.9102 L244.195,15.8789 L247.695,15.8789 C247.695,15.6393 247.643,15.4271 247.539,15.2422 C247.435,15.0573 247.291,14.9121 247.107,14.8066 C246.924,14.7012 246.711,14.6484 246.469,14.6484 C246.216,14.6484 245.993,14.7064 245.799,14.8223 C245.605,14.9382 245.453,15.0931 245.344,15.2871 C245.234,15.4811 245.178,15.6966 245.176,15.9336 L245.176,16.9141 C245.176,17.2109 245.231,17.4674 245.342,17.6836 C245.452,17.8997 245.609,18.0664 245.813,18.1836 C246.016,18.3008 246.257,18.3594 246.535,18.3594 C246.72,18.3594 246.889,18.3333 247.043,18.2813 C247.197,18.2292 247.328,18.151 247.438,18.0469 C247.547,17.9427 247.63,17.8151 247.688,17.6641 L249.227,17.7656 C249.148,18.1354 248.989,18.4577 248.748,18.7324 C248.507,19.0072 248.197,19.2207 247.818,19.373 C247.439,19.5254 247.003,19.6016 246.508,19.6016 M253.527,13.4844 L253.527,14.7344 L249.914,14.7344 L249.914,13.4844 L253.527,13.4844 M250.734,12.0469 L252.398,12.0469 L252.398,17.6406 C252.398,17.7943 252.422,17.9134 252.469,17.998 C252.516,18.0827 252.581,18.1419 252.666,18.1758 C252.751,18.2096 252.849,18.2266 252.961,18.2266 C253.039,18.2266 253.117,18.2194 253.195,18.2051 C253.273,18.1908 253.333,18.1797 253.375,18.1719 L253.637,19.4102 C253.553,19.4362 253.436,19.4668 253.285,19.502 C253.134,19.5371 252.951,19.5586 252.734,19.5664 C252.333,19.582 251.982,19.5286 251.682,19.4063 C251.381,19.2839 251.147,19.0938 250.98,18.8359 C250.814,18.5781 250.732,18.2526 250.734,17.8594 L250.734,12.0469 M257.273,19.6016 C256.656,19.6016 256.126,19.4759 255.682,19.2246 C255.238,18.9733 254.896,18.6165 254.656,18.1543 C254.417,17.6921 254.297,17.1445 254.297,16.5117 C254.297,15.8945 254.417,15.3529 254.656,14.8867 C254.896,14.4206 255.234,14.0573 255.67,13.7969 C256.106,13.5365 256.618,13.4063 257.207,13.4063 C257.603,13.4063 257.972,13.4694 258.314,13.5957 C258.657,13.722 258.956,13.9115 259.213,14.1641 C259.469,14.4167 259.669,14.7337 259.813,15.1152 C259.956,15.4967 260.027,15.9427 260.027,16.4531 L260.027,16.9102 L254.961,16.9102 L254.961,15.8789 L258.461,15.8789 C258.461,15.6393 258.409,15.4271 258.305,15.2422 C258.201,15.0573 258.057,14.9121 257.873,14.8066 C257.689,14.7012 257.477,14.6484 257.234,14.6484 C256.982,14.6484 256.758,14.7064 256.564,14.8223 C256.37,14.9382 256.219,15.0931 256.109,15.2871 C256,15.4811 255.944,15.6966 255.941,15.9336 L255.941,16.9141 C255.941,17.2109 255.997,17.4674 256.107,17.6836 C256.218,17.8997 256.375,18.0664 256.578,18.1836 C256.781,18.3008 257.022,18.3594 257.301,18.3594 C257.486,18.3594 257.655,18.3333 257.809,18.2813 C257.962,18.2292 258.094,18.151 258.203,18.0469 C258.313,17.9427 258.396,17.8151 258.453,17.6641 L259.992,17.7656 C259.914,18.1354 259.755,18.4577 259.514,18.7324 C259.273,19.0072 258.963,19.2207 258.584,19.373 C258.205,19.5254 257.768,19.6016 257.273,19.6016 M261.102,19.4844 L261.102,13.4844 L262.715,13.4844 L262.715,14.5313 L262.777,14.5313 C262.887,14.1589 263.07,13.877 263.328,13.6855 C263.586,13.4941 263.883,13.3984 264.219,13.3984 C264.302,13.3984 264.392,13.4036 264.488,13.4141 C264.585,13.4245 264.669,13.4388 264.742,13.457 L264.742,14.9336 C264.664,14.9102 264.556,14.8893 264.418,14.8711 C264.28,14.8529 264.154,14.8438 264.039,14.8438 C263.794,14.8438 263.576,14.8965 263.385,15.002 C263.193,15.1074 263.042,15.2539 262.932,15.4414 C262.821,15.6289 262.766,15.8451 262.766,16.0898 L262.766,19.4844 L261.102,19.4844 M268.5,16.2773 C268.5,15.3086 268.63,14.4167 268.889,13.6016 C269.148,12.7865 269.544,12.0313 270.078,11.3359 L271.668,11.3359 C271.465,11.5938 271.276,11.9082 271.102,12.2793 C270.927,12.6504 270.775,13.0573 270.645,13.5 C270.514,13.9427 270.413,14.4004 270.34,14.873 C270.267,15.3457 270.23,15.8138 270.23,16.2773 C270.23,16.8945 270.294,17.5176 270.42,18.1465 C270.546,18.7754 270.718,19.3594 270.936,19.8984 C271.153,20.4375 271.397,20.8789 271.668,21.2227 L270.078,21.2227 C269.544,20.5273 269.148,19.7721 268.889,18.957 C268.63,18.1419 268.5,17.2487 268.5,16.2773 M272.633,19.4844 L272.633,13.4844 L274.219,13.4844 L274.219,14.543 L274.289,14.543 C274.414,14.1914 274.622,13.9141 274.914,13.7109 C275.206,13.5078 275.555,13.4063 275.961,13.4063 C276.372,13.4063 276.723,13.5085 277.012,13.7129 C277.301,13.9173 277.493,14.194 277.59,14.543 L277.652,14.543 C277.775,14.1992 277.997,13.9238 278.318,13.7168 C278.64,13.5098 279.021,13.4063 279.461,13.4063 C280.021,13.4063 280.476,13.584 280.826,13.9395 C281.176,14.2949 281.352,14.7982 281.352,15.4492 L281.352,19.4844 L279.691,19.4844 L279.691,15.7773 C279.691,15.444 279.603,15.194 279.426,15.0273 C279.249,14.8607 279.027,14.7773 278.762,14.7773 C278.46,14.7773 278.224,14.873 278.055,15.0645 C277.885,15.2559 277.801,15.5078 277.801,15.8203 L277.801,19.4844 L276.188,19.4844 L276.188,15.7422 C276.188,15.4479 276.104,15.2135 275.936,15.0391 C275.768,14.8646 275.547,14.7773 275.273,14.7773 C275.089,14.7773 274.923,14.8236 274.775,14.916 C274.628,15.0085 274.512,15.1374 274.426,15.3027 C274.34,15.4681 274.297,15.6615 274.297,15.8828 L274.297,19.4844 L272.633,19.4844 M286.148,11.1094 L283.57,20.6875 L282.137,20.6875 L284.715,11.1094 L286.148,11.1094 M291.938,15.1953 L290.414,15.2891 C290.388,15.1589 290.332,15.041 290.246,14.9355 C290.16,14.8301 290.048,14.7454 289.908,14.6816 C289.769,14.6178 289.603,14.5859 289.41,14.5859 C289.152,14.5859 288.935,14.64 288.758,14.748 C288.581,14.8561 288.492,15 288.492,15.1797 C288.492,15.3229 288.549,15.444 288.664,15.543 C288.779,15.6419 288.975,15.7214 289.254,15.7813 L290.34,16 C290.923,16.1198 291.358,16.3125 291.645,16.5781 C291.931,16.8438 292.074,17.1927 292.074,17.625 C292.074,18.0182 291.959,18.3633 291.729,18.6602 C291.498,18.957 291.183,19.1882 290.783,19.3535 C290.383,19.5189 289.923,19.6016 289.402,19.6016 C288.608,19.6016 287.976,19.4355 287.506,19.1035 C287.036,18.7715 286.76,18.319 286.68,17.7461 L288.316,17.6602 C288.366,17.9023 288.486,18.0866 288.676,18.2129 C288.866,18.3392 289.109,18.4023 289.406,18.4023 C289.698,18.4023 289.933,18.3457 290.111,18.2324 C290.29,18.1191 290.38,17.9727 290.383,17.793 C290.38,17.6419 290.316,17.5176 290.191,17.4199 C290.066,17.3223 289.874,17.2474 289.613,17.1953 L288.574,16.9883 C287.988,16.8711 287.553,16.668 287.268,16.3789 C286.982,16.0898 286.84,15.7214 286.84,15.2734 C286.84,14.888 286.945,14.556 287.154,14.2773 C287.364,13.9987 287.66,13.7839 288.041,13.6328 C288.423,13.4818 288.87,13.4063 289.383,13.4063 C290.141,13.4063 290.738,13.5664 291.174,13.8867 C291.61,14.207 291.865,14.6432 291.938,15.1953 M292.934,15.4844 L292.934,14.6211 L294.836,13.1016 C294.982,12.9818 295.108,12.8737 295.215,12.7773 C295.322,12.681 295.405,12.5833 295.465,12.4844 C295.525,12.3854 295.555,12.276 295.555,12.1563 C295.555,11.9688 295.478,11.8242 295.324,11.7227 C295.171,11.6211 294.984,11.5703 294.766,11.5703 C294.531,11.5703 294.343,11.627 294.201,11.7402 C294.059,11.8535 293.988,12.0169 293.988,12.2305 L292.836,12.2305 C292.836,11.7305 293.018,11.3379 293.383,11.0527 C293.747,10.7676 294.214,10.625 294.781,10.625 C295.169,10.625 295.507,10.6921 295.793,10.8262 C296.079,10.9603 296.301,11.1419 296.459,11.3711 C296.617,11.6003 296.695,11.8568 296.695,12.1406 C296.695,12.3698 296.648,12.5827 296.553,12.7793 C296.458,12.9759 296.312,13.1686 296.115,13.3574 C295.919,13.5462 295.665,13.7435 295.355,13.9492 L294.66,14.4648 L294.66,14.5078 L296.75,14.5078 L296.75,15.4844 L292.934,15.4844 M300.578,16.2773 C300.578,17.2487 300.449,18.1419 300.189,18.957 C299.93,19.7721 299.534,20.5273 299,21.2227 L297.41,21.2227 C297.613,20.9648 297.802,20.6497 297.977,20.2773 C298.151,19.9049 298.303,19.498 298.434,19.0566 C298.564,18.6152 298.665,18.1576 298.738,17.6836 C298.811,17.2096 298.848,16.7409 298.848,16.2773 C298.848,15.6602 298.785,15.0371 298.658,14.4082 C298.532,13.7793 298.36,13.196 298.143,12.6582 C297.925,12.1204 297.681,11.6797 297.41,11.3359 L299,11.3359 C299.534,12.0313 299.93,12.7865 300.189,13.6016 C300.449,14.4167 300.578,15.3086 300.578,16.2773 "/>
</g>

<g fill="#ffffff" fill-opacity="1" stroke="none" transform="matrix(0.228,0,0,0.228,11.6,4.6)"
font-family="Inter" font-size="11" font-weight="700" font-style="normal" 
>
<path vector-effect="none" fill-rule="nonzero" d="M23.3682,15.995 C21.89,15.995 20.7001,17.185 20.7001,18.6631 L20.7001,81.3343 C20.7001,82.8125 21.89,84.0024 23.3682,84.0024 L76.6077,84.0024 C78.0859,84.0024 79.2758,82.8125 79.2758,81.3343 L79.2758,18.6631 C79.2758,17.185 78.0859,15.995 76.6077,15.995 L50.8905,15.995 C51.6703,16.0444 52.2838,16.6869 52.2838,17.4796 L52.2838,26.9112 C52.2838,27.7362 51.6196,28.4004 50.7946,28.4004 L49.3054,28.4004 C48.4804,28.4004 47.8161,27.7362 47.8161,26.9112 L47.8161,17.4796 C47.8161,16.6869 48.4298,16.0443 49.2096,15.995 L23.3682,15.995 M46.7613,35.2087 L53.2146,35.2087 C53.9021,35.2087 54.4556,35.7622 54.4556,36.4497 L54.4556,42.903 C54.4556,43.5906 53.9021,44.1439 53.2146,44.1439 L46.7613,44.1439 C46.0738,44.1439 45.5202,43.5906 45.5202,42.903 L45.5202,36.4497 C45.5202,35.7622 46.0738,35.2087 46.7613,35.2087 "/>
</g>

<g fill="none" stroke="#000000" stroke-opacity="1" stroke-width="2.43854" stroke-linecap="butt" stroke-linejoin="miter" stroke-miterlimit="4" transform="matrix(0.228,0,0,0.228,11.6,4.6)"
font-family="Inter" font-size="11" font-weight="700" font-style="normal" 
>
<path vector-effect="none" fill-rule="nonzero" d="M23.3682,15.995 C21.89,15.995 20.7001,17.185 20.7001,18.6631 L20.7001,81.3343 C20.7001,82.8125 21.89,84.0024 23.3682,84.0024 L76.6077,84.0024 C78.0859,84.0024 79.2758,82.8125 79.2758,81.3343 L79.2758,18.6631 C79.2758,17.185 78.0859,15.995 76.6077,15.995 L50.8905,15.995 C51.6703,16.0444 52.2838,16.6869 52.2838,17.4796 L52.2838,26.9112 C52.2838,27.7362 51.6196,28.4004 50.7946,28.4004 L49.3054,28.4004 C48.4804,28.4004 47.8161,27.7362 47.8161,26.9112 L47.8161,17.4796 C47.8161,16.6869 48.4298,16.0443 49.2096,15.995 L23.3682,15.995 M46.7613,35.2087 L53.2146,35.2087 C53.9021,35.2087 54.4556,35.7622 54.4556,36.4497 L54.4556,42.903 C54.4556,43.5906 53.9021,44.1439 53.2146,44.1439 L46.7613,44.1439 C46.0738,44.1439 45.5202,43.5906 45.5202,42.903 L45.5202,36.4497 C45.5202,35.7622 46.0738,35.2087 46.7613,35.2087 "/>
</g>

<g fill="#000000" fill-opacity="1" stroke="none" transform="matrix(0.228,0,0,0.228,11.6,4.6)"
font-family="Inter" font-size="11" font-weight="700" font-style="normal" 
>
<path vector-effect="none" fill-rule="evenodd" d="M14.2421,17.9523 C14.2421,17.1298 14.9088,16.4631 15.7313,16.4631 L18.7097,16.4631 C19.5322,16.4631 20.1989,17.1298 20.1989,17.9523 L20.1989,33.8372 C20.1989,34.6597 19.5322,35.3264 18.7097,35.3264 L15.7313,35.3264 C14.9088,35.3264 14.2421,34.6597 14.2421,33.8372 L14.2421,17.9523"/>
</g>

<g fill="none" stroke="#000000" stroke-opacity="1" stroke-width="2.43854" stroke-linecap="butt" stroke-linejoin="miter" stroke-miterlimit="4" transform="matrix(0.228,0,0,0.228,11.6,4.6)"
font-family="Inter" font-size="11" font-weight="700" font-style="normal" 
>
<path vector-effect="none" fill-rule="evenodd" d="M14.2421,17.9523 C14.2421,17.1298 14.9088,16.4631 15.7313,16.4631 L18.7097,16.4631 C19.5322,16.4631 20.1989,17.1298 20.1989,17.9523 L20.1989,33.8372 C20.1989,34.6597 19.5322,35.3264 18.7097,35.3264 L15.7313,35.3264 C14.9088,35.3264 14.2421,34.6597 14.2421,33.8372 L14.2421,17.9523"/>
</g>

<g fill="#000000" fill-opacity="1" stroke="none" transform="matrix(0.228,0,0,0.228,11.6,4.6)"
font-family="Inter" font-size="11" font-weight="700" font-style="normal" 
>
<path vector-effect="none" fill-rule="evenodd" d="M79.3249,17.4662 C79.3249,16.6438 79.9916,15.977 80.8141,15.977 L83.7925,15.977 C84.615,15.977 85.2817,16.6438 85.2817,17.4662 L85.2817,33.3512 C85.2817,34.1736 84.615,34.8404 83.7925,34.8404 L80.8141,34.8404 C79.9916,34.8404 79.3249,34.1736 79.3249,33.3512 L79.3249,17.4662"/>
</g>

<g fill="none" stroke="#000000" stroke-opacity="1" stroke-width="2.43854" stroke-linecap="butt" stroke-linejoin="miter" stroke-miterlimit="4" transform="matrix(0.228,0,0,0.228,11.6,4.6)"
font-family="Inter" font-size="11" font-weight="700" font-style="normal" 
>
<path vector-effect="none" fill-rule="evenodd" d="M79.3249,17.4662 C79.3249,16.6438 79.9916,15.977 80.8141,15.977 L83.7925,15.977 C84.615,15.977 85.2817,16.6438 85.2817,17.4662 L85.2817,33.3512 C85.2817,34.1736 84.615,34.8404 83.7925,34.8404 L80.8141,34.8404 C79.9916,34.8404 79.3249,34.1736 79.3249,33.3512 L79.3249,17.4662"/>
</g>

<g fill="#000000" fill-opacity="1" stroke="none" transform="matrix(0.228,0,0,0.228,11.6,4.6)"
font-family="Inter" font-size="11" font-weight="700" font-style="normal" 
>
<path vector-effect="none" fill-rule="evenodd" d="M79.5633,66.576 C79.5633,65.7535 80.23,65.0868 81.0525,65.0868 L84.0309,65.0868 C84.8534,65.0868 85.5201,65.7535 85.5201,66.576 L85.5201,82.4609 C85.5201,83.2834 84.8534,83.9501 84.0309,83.9501 L81.0525,83.9501 C80.23,83.9501 79.5633,83.2834 79.5633,82.4609 L79.5633,66.576"/>
</g>

<g fill="none" stroke="#000000" stroke-opacity="1" stroke-width="2.43854" stroke-linecap="butt" stroke-linejoin="miter" stroke-miterlimit="4" transform="matrix(0.228,0,0,0.228,11.6,4.6)"
font-family="Inter" font-size="11" font-weight="700" font-style="normal" 
>
<path vector-effect="none" fill-rule="evenodd" d="M79.5633,66.576 C79.5633,65.7535 80.23,65.0868 81.0525,65.0868 L84.0309,65.0868 C84.8534,65.0868 85.5201,65.7535 85.5201,66.576 L85.5201,82.4609 C85.5201,83.2834 84.8534,83.9501 84.0309,83.9501 L81.0525,83.9501 C80.23,83.9501 79.5633,83.2834 79.5633,82.4609 L79.5633,66.576"/>
</g>

<g fill="#000000" fill-opacity="1" stroke="none" transform="matrix(0.228,0,0,0.228,11.6,4.6)"
font-family="Inter" font-size="11" font-weight="700" font-style="normal" 
>
<path vector-effect="none" fill-rule="evenodd" d="M14.6928,66.6283 C14.6928,65.8058 15.3595,65.1391 16.182,65.1391 L19.1604,65.1391 C19.9829,65.1391 20.6496,65.8058 20.6496,66.6283 L20.6496,82.5132 C20.6496,83.3357 19.9829,84.0024 19.1604,84.0024 L16.182,84.0024 C15.3595,84.0024 14.6928,83.3357 14.6928,82.5132 L14.6928,66.6283"/>
</g>

<g fill="none" stroke="#000000" stroke-opacity="1" stroke-width="2.43854" stroke-linecap="butt" stroke-linejoin="miter" stroke-miterlimit="4" transform="matrix(0.228,0,0,0.228,11.6,4.6)"
font-family="Inter" font-size="11" font-weight="700" font-style="normal" 
>
<path vector-effect="none" fill-rule="evenodd" d="M14.6928,66.6283 C14.6928,65.8058 15.3595,65.1391 16.182,65.1391 L19.1604,65.1391 C19.9829,65.1391 20.6496,65.8058 20.6496,66.6283 L20.6496,82.5132 C20.6496,83.3357 19.9829,84.0024 19.1604,84.0024 L16.182,84.0024 C15.3595,84.0024 14.6928,83.3357 14.6928,82.5132 L14.6928,66.6283"/>
</g>

<g fill="none" stroke="#000000" stroke-opacity="1" stroke-width="2.43854" stroke-linecap="butt" stroke-linejoin="miter" stroke-miterlimit="4" transform="matrix(0.228,0,0,0.228,11.6,4.6)"
font-family="Inter" font-size="11" font-weight="700" font-style="normal" 
>
<path vector-effect="none" fill-rule="evenodd" d="M20.92,17.503 C20.92,16.6806 21.5867,16.0138 22.4092,16.0138 L27.125,16.0138 C27.9475,16.0138 28.6142,16.6806 28.6142,17.503 L28.6142,55.9743 C28.6142,56.7968 27.9475,57.4635 27.125,57.4635 L22.4092,57.4635 C21.5867,57.4635 20.92,56.7968 20.92,55.9743 L20.92,17.503"/>
</g>

<g fill="none" stroke="#000000" stroke-opacity="1" stroke-width="2.43854" stroke-linecap="butt" stroke-linejoin="miter" stroke-miterlimit="4" transform="matrix(0.228,0,0,0.228,11.6,4.6)"
font-family="Inter" font-size="11" font-weight="700" font-style="normal" 
>
<path vector-effect="none" fill-rule="evenodd" d="M71.4269,17.6638 C71.4269,16.8414 72.0937,16.1746 72.9162,16.1746 L77.632,16.1746 C78.4545,16.1746 79.1212,16.8414 79.1212,17.6638 L79.1212,56.1351 C79.1212,56.9576 78.4545,57.6243 77.632,57.6243 L72.9162,57.6243 C72.0937,57.6243 71.4269,56.9576 71.4269,56.1351 L71.4269,17.6638"/>
</g>

<g fill="#ffffff" fill-opacity="1" stroke="none" transform="matrix(0.228,0,0,0.228,11.6,4.6)"
font-family="Inter" font-size="11" font-weight="700" font-style="normal" 
>
<path vector-effect="none" fill-rule="evenodd" d="M41.9526,15.9757 C41.9526,15.9593 41.9659,15.9461 41.9822,15.9461 L57.922,15.9461 C57.9384,15.9461 57.9516,15.9593 57.9516,15.9757 C57.9516,15.992 57.9384,16.0053 57.922,16.0053 L41.9822,16.0053 C41.9659,16.0053 41.9526,15.992 41.9526,15.9757 "/>
</g>

<g fill="none" stroke="#000000" stroke-opacity="1" stroke-width="2.3865" stroke-linecap="butt" stroke-linejoin="miter" stroke-miterlimit="4" transform="matrix(0.228,0,0,0.228,11.6,4.6)"
font-family="Inter" font-size="11" font-weight="700" font-style="normal" 
>
<path vector-effect="none" fill-rule="evenodd" d="M41.9526,15.9757 C41.9526,15.9593 41.9659,15.9461 41.9822,15.9461 L57.922,15.9461 C57.9384,15.9461 57.9516,15.9593 57.9516,15.9757 C57.9516,15.992 57.9384,16.0053 57.922,16.0053 L41.9822,16.0053 C41.9659,16.0053 41.9526,15.992 41.9526,15.9757 "/>
</g>

<g fill="#ffffff" fill-opacity="1" stroke="none" transform="matrix(1,0,0,1,0,0)"
font-family="Inter" font-size="11" font-weight="700" font-style="normal" 
>
</g>

<g fill="#ffffff" fill-opacity="1" stroke="#0da6c5" stroke-opacity="1" stroke-width="1" stroke-linecap="square" stroke-linejoin="bevel" transform="matrix(1,0,0,1,0,0)"
font-family="Inter" font-size="11" font-weight="700" font-style="normal" 
>
<polyline fill="none" vector-effect="none" points="45,6 45,26 " />
</g>

<g fill="#ffffff" fill-opacity="1" stroke="#0da6c5" stroke-opacity="1" stroke-width="1" stroke-linecap="square" stroke-linejoin="bevel" transform="matrix(1,0,0,1,0,0)"
font-family="Inter" font-size="11" font-weight="700" font-style="normal" 
>
</g>

<g fill="#1dccf0" fill-opacity="1" stroke="#0da6c5" stroke-opacity="1" stroke-width="1.2" stroke-linecap="square" stroke-linejoin="bevel" transform="matrix(1,0,0,1,141,4)"
font-family="Inter" font-size="11" font-weight="700" font-style="normal" 
>
<path vector-effect="none" fill-rule="evenodd" d="M0.5,3.5 C0.5,1.84315 1.84315,0.5 3.5,0.5 L36.5,0.5 C38.1569,0.5 39.5,1.84315 39.5,3.5 L39.5,20.5 C39.5,22.1569 38.1569,23.5 36.5,23.5 L3.5,23.5 C1.84315,23.5 0.5,22.1569 0.5,20.5 L0.5,3.5"/>
</g>

<g fill="#ffffff" fill-opacity="1" stroke="none" transform="matrix(1,0,0,1,141,4)"
font-family="Inter" font-size="11" font-weight="700" font-style="normal" 
>
<path vector-effect="none" fill-rule="nonzero" d="M12.7891,9 L13.8906,11.0977 L15.0195,9 L16.7266,9 L14.9883,12 L16.7734,15 L15.0742,15 L13.8906,12.9258 L12.7266,15 L11.0078,15 L12.7891,12 L11.0703,9 L12.7891,9"/>
</g>

<g fill="#ffffff" fill-opacity="1" stroke="none" transform="matrix(0.03125,0,0,0.03125,167,12)"
font-family="Inter" font-size="11" font-weight="700" font-style="normal" 
>
<path vector-effect="none" fill-rule="nonzero" d="M111.326,191.938 C120.545,201.158 135.517,201.158 144.737,191.938 L239.144,97.5313 C245.929,90.7458 247.921,80.6413 244.233,71.7907 C240.545,62.9401 231.989,57.1871 222.401,57.1871 L33.5875,57.2608 C24.0731,57.2608 15.4437,63.0137 11.7559,71.8644 C8.06815,80.715 10.1333,90.8195 16.845,97.605 L111.252,192.012 L111.326,191.938"/>
</g>

<g fill="none" stroke="#000000" stroke-opacity="1" stroke-width="13.7195" stroke-linecap="butt" stroke-linejoin="miter" stroke-miterlimit="4" transform="matrix(0.03125,0,0,0.03125,167,12)"
font-family="Inter" font-size="11" font-weight="700" font-style="normal" 
>
<path vector-effect="none" fill-rule="nonzero" d="M111.326,191.938 C120.545,201.158 135.517,201.158 144.737,191.938 L239.144,97.5313 C245.929,90.7458 247.921,80.6413 244.233,71.7907 C240.545,62.9401 231.989,57.1871 222.401,57.1871 L33.5875,57.2608 C24.0731,57.2608 15.4437,63.0137 11.7559,71.8644 C8.06815,80.715 10.1333,90.8195 16.845,97.605 L111.252,192.012 L111.326,191.938"/>
</g>

<g fill="#ffffff" fill-opacity="1" stroke="none" transform="matrix(1,0,0,1,141,4)"
font-family="Inter" font-size="11" font-weight="700" font-style="normal" 
>
</g>

<g fill="#ffffff" fill-opacity="1" stroke="#0da6c5" stroke-opacity="1" stroke-width="1" stroke-linecap="square" stroke-linejoin="bevel" transform="matrix(1,0,0,1,0,0)"
font-family="Inter" font-size="11" font-weight="700" font-style="normal" 
>
</g>

<g fill="#1dccf0" fill-opacity="1" stroke="#0da6c5" stroke-opacity="1" stroke-width="1.2" stroke-linecap="square" stroke-linejoin="bevel" transform="matrix(1,0,0,1,56,4)"
font-family="Inter" font-size="11" font-weight="700" font-style="normal" 
>
<path vector-effect="none" fill-rule="evenodd" d="M0.5,3.5 C0.5,1.84315 1.84315,0.5 3.5,0.5 L71.5,0.5 C73.1569,0.5 74.5,1.84315 74.5,3.5 L74.5,20.5 C74.5,22.1569 73.1569,23.5 71.5,23.5 L3.5,23.5 C1.84315,23.5 0.5,22.1569 0.5,20.5 L0.5,3.5"/>
</g>

<g fill="#ffffff" fill-opacity="1" stroke="none" transform="matrix(1,0,0,1,56,4)"
font-family="Inter" font-size="11" font-weight="700" font-style="normal" 
>
<path vector-effect="none" fill-rule="nonzero" d="M10,9.39453 L10,8 L16.5703,8 L16.5703,9.39453 L14.1211,9.39453 L14.1211,16 L12.4492,16 L12.4492,9.39453 L10,9.39453 M17.6484,16 L17.6484,8 L19.3398,8 L19.3398,11.3008 L22.7734,11.3008 L22.7734,8 L24.4609,8 L24.4609,16 L22.7734,16 L22.7734,12.6953 L19.3398,12.6953 L19.3398,16 L17.6484,16 M32.543,8 L32.543,16 L31.082,16 L27.6016,10.9648 L27.543,10.9648 L27.543,16 L25.8516,16 L25.8516,8 L27.3359,8 L30.7891,13.0313 L30.8594,13.0313 L30.8594,8 L32.543,8 M33.9297,16 L33.9297,8 L35.6211,8 L35.6211,11.3008 L39.0547,11.3008 L39.0547,8 L40.7422,8 L40.7422,16 L39.0547,16 L39.0547,12.6953 L35.6211,12.6953 L35.6211,16 L33.9297,16 M42.1328,16 L42.1328,8 L45.3359,8 C45.9245,8 46.4154,8.08724 46.8086,8.26172 C47.2018,8.4362 47.4974,8.67773 47.6953,8.98633 C47.8932,9.29492 47.9922,9.64974 47.9922,10.0508 C47.9922,10.3633 47.9297,10.6374 47.8047,10.873 C47.6797,11.1087 47.5085,11.3014 47.291,11.4512 C47.0736,11.6009 46.8255,11.707 46.5469,11.7695 L46.5469,11.8477 C46.8516,11.8607 47.1374,11.9466 47.4043,12.1055 C47.6712,12.2643 47.888,12.4863 48.0547,12.7715 C48.2214,13.0566 48.3047,13.3958 48.3047,13.7891 C48.3047,14.2135 48.1999,14.5918 47.9902,14.9238 C47.7806,15.2559 47.4714,15.5182 47.0625,15.7109 C46.6536,15.9036 46.1497,16 45.5508,16 L42.1328,16 M43.8242,14.6172 L45.2031,14.6172 C45.6745,14.6172 46.0182,14.5267 46.2344,14.3457 C46.4505,14.1647 46.5586,13.9232 46.5586,13.6211 C46.5586,13.3997 46.5052,13.2044 46.3984,13.0352 C46.2917,12.8659 46.14,12.7331 45.9434,12.6367 C45.7467,12.5404 45.513,12.4922 45.2422,12.4922 L43.8242,12.4922 L43.8242,14.6172 M43.8242,11.3477 L45.0781,11.3477 C45.3099,11.3477 45.5163,11.3066 45.6973,11.2246 C45.8783,11.1426 46.0215,11.026 46.127,10.875 C46.2324,10.724 46.2852,10.543 46.2852,10.332 C46.2852,10.043 46.1829,9.8099 45.9785,9.63281 C45.7741,9.45573 45.4844,9.36719 45.1094,9.36719 L43.8242,9.36719 L43.8242,11.3477 M52.832,8 L52.832,16 L51.1406,16 L51.1406,9.60547 L51.0938,9.60547 L49.2617,10.7539 L49.2617,9.25391 L51.2422,8 L52.832,8"/>
</g>

<g fill="#ffffff" fill-opacity="1" stroke="none" transform="matrix(0.03125,0,0,0.03125,117,12)"
font-family="Inter" font-size="11" font-weight="700" font-style="normal" 
>
<path vector-effect="none" fill-rule="nonzero" d="M111.326,191.938 C120.545,201.158 135.517,201.158 144.737,191.938 L239.144,97.5313 C245.929,90.7458 247.921,80.6413 244.233,71.7907 C240.545,62.9401 231.989,57.1871 222.401,57.1871 L33.5875,57.2608 C24.0731,57.2608 15.4437,63.0137 11.7559,71.8644 C8.06815,80.715 10.1333,90.8195 16.845,97.605 L111.252,192.012 L111.326,191.938"/>
</g>

<g fill="none" stroke="#000000" stroke-opacity="1" stroke-width="13.7195" stroke-linecap="butt" stroke-linejoin="miter" stroke-miterlimit="4" transform="matrix(0.03125,0,0,0.03125,117,12)"
font-family="Inter" font-size="11" font-weight="700" font-style="normal" 
>
<path vector-effect="none" fill-rule="nonzero" d="M111.326,191.938 C120.545,201.158 135.517,201.158 144.737,191.938 L239.144,97.5313 C245.929,90.7458 247.921,80.6413 244.233,71.7907 C240.545,62.9401 231.989,57.1871 222.401,57.1871 L33.5875,57.2608 C24.0731,57.2608 15.4437,63.0137 11.7559,71.8644 C8.06815,80.715 10.1333,90.8195 16.845,97.605 L111.252,192.012 L111.326,191.938"/>
</g>

<g fill="#ffffff" fill-opacity="1" stroke="none" transform="matrix(1,0,0,1,56,4)"
font-family="Inter" font-size="11" font-weight="700" font-style="normal" 
>
</g>

<g fill="#ffffff" fill-opacity="1" stroke="#0da6c5" stroke-opacity="1" stroke-width="1" stroke-linecap="square" stroke-linejoin="bevel" transform="matrix(1,0,0,1,0,0)"
font-family="Inter" font-size="11" font-weight="700" font-style="normal" 
>
</g>

<g fill="none" stroke="#000000" stroke-opacity="1" stroke-width="1" stroke-linecap="square" stroke-linejoin="bevel" transform="matrix(1,0,0,1,0,0)"
font-family=".AppleSystemUIFont" font-size="13" font-weight="400" font-style="normal" 
>
</g>
</g>
</svg>
