<?xml version="1.0" encoding="UTF-8" standalone="no"?>
<svg width="122.767mm" height="11.2889mm"
 viewBox="0 0 348 32"
 xmlns="http://www.w3.org/2000/svg" xmlns:xlink="http://www.w3.org/1999/xlink" version="1.2" baseProfile="tiny">
<title>Abstract block</title>
<desc>block_hubs_all_sensors_port_technic_sensor_when_reflected_light_is</desc>
<defs>
</defs>
<g fill="none" stroke="black" stroke-width="1" fill-rule="evenodd" stroke-linecap="square" stroke-linejoin="bevel" >

<g fill="none" stroke="#000000" stroke-opacity="1" stroke-width="1" stroke-linecap="square" stroke-linejoin="bevel" transform="matrix(1,0,0,1,0,0)"
font-family=".AppleSystemUIFont" font-size="13" font-weight="400" font-style="normal" 
>
</g>

<g fill="none" stroke="#000000" stroke-opacity="1" stroke-width="1" stroke-linecap="square" stroke-linejoin="bevel" transform="matrix(1,0,0,1,0,0)"
font-family=".AppleSystemUIFont" font-size="13" font-weight="400" font-style="normal" 
>
</g>

<g fill="#1dccf0" fill-opacity="1" stroke="#0da6c5" stroke-opacity="1" stroke-width="1.2" stroke-linecap="square" stroke-linejoin="bevel" transform="matrix(1,0,0,1,0,0)"
font-family=".AppleSystemUIFont" font-size="13" font-weight="400" font-style="normal" 
>
<path vector-effect="none" fill-rule="evenodd" d="M0,16 L16,0 L331.9,0 L347.9,16 L331.9,32 L16,32 L0,16"/>
</g>

<g fill="#ffffff" fill-opacity="1" stroke="none" transform="matrix(1,0,0,1,0,0)"
font-family="Inter" font-size="11" font-weight="700" font-style="normal" 
>
<path vector-effect="none" fill-rule="nonzero" d="M181.07,19.9531 L181.07,13.9531 L182.684,13.9531 L182.684,15 L182.746,15 C182.855,14.6276 183.039,14.3457 183.297,14.1543 C183.555,13.9629 183.852,13.8672 184.188,13.8672 C184.271,13.8672 184.361,13.8724 184.457,13.8828 C184.553,13.8932 184.638,13.9076 184.711,13.9258 L184.711,15.4023 C184.633,15.3789 184.525,15.3581 184.387,15.3398 C184.249,15.3216 184.122,15.3125 184.008,15.3125 C183.763,15.3125 183.545,15.3652 183.354,15.4707 C183.162,15.5762 183.011,15.7227 182.9,15.9102 C182.79,16.0977 182.734,16.3138 182.734,16.5586 L182.734,19.9531 L181.07,19.9531 M188.008,20.0703 C187.391,20.0703 186.86,19.9447 186.416,19.6934 C185.972,19.4421 185.63,19.0853 185.391,18.623 C185.151,18.1608 185.031,17.6133 185.031,16.9805 C185.031,16.3633 185.151,15.8216 185.391,15.3555 C185.63,14.8893 185.968,14.526 186.404,14.2656 C186.84,14.0052 187.353,13.875 187.941,13.875 C188.337,13.875 188.706,13.9382 189.049,14.0645 C189.391,14.1908 189.691,14.3802 189.947,14.6328 C190.204,14.8854 190.404,15.2025 190.547,15.584 C190.69,15.9655 190.762,16.4115 190.762,16.9219 L190.762,17.3789 L185.695,17.3789 L185.695,16.3477 L189.195,16.3477 C189.195,16.1081 189.143,15.8958 189.039,15.7109 C188.935,15.526 188.791,15.3809 188.607,15.2754 C188.424,15.1699 188.211,15.1172 187.969,15.1172 C187.716,15.1172 187.493,15.1751 187.299,15.291 C187.105,15.4069 186.953,15.5618 186.844,15.7559 C186.734,15.9499 186.678,16.1654 186.676,16.4023 L186.676,17.3828 C186.676,17.6797 186.731,17.9362 186.842,18.1523 C186.952,18.3685 187.109,18.5352 187.313,18.6523 C187.516,18.7695 187.757,18.8281 188.035,18.8281 C188.22,18.8281 188.389,18.8021 188.543,18.75 C188.697,18.6979 188.828,18.6198 188.938,18.5156 C189.047,18.4115 189.13,18.2839 189.188,18.1328 L190.727,18.2344 C190.648,18.6042 190.489,18.9264 190.248,19.2012 C190.007,19.4759 189.697,19.6895 189.318,19.8418 C188.939,19.9941 188.503,20.0703 188.008,20.0703 M195.063,13.9531 L195.063,15.2031 L191.359,15.2031 L191.359,13.9531 L195.063,13.9531 M192.207,19.9531 L192.207,13.5195 C192.207,13.0846 192.292,12.724 192.463,12.4375 C192.633,12.151 192.867,11.9362 193.164,11.793 C193.461,11.6497 193.798,11.5781 194.176,11.5781 C194.431,11.5781 194.665,11.5977 194.877,11.6367 C195.089,11.6758 195.247,11.7109 195.352,11.7422 L195.055,12.9922 C194.99,12.9714 194.91,12.9518 194.814,12.9336 C194.719,12.9154 194.622,12.9063 194.523,12.9063 C194.279,12.9063 194.108,12.9629 194.012,13.0762 C193.915,13.1895 193.867,13.3477 193.867,13.5508 L193.867,19.9531 L192.207,19.9531 M197.734,11.9531 L197.734,19.9531 L196.07,19.9531 L196.07,11.9531 L197.734,11.9531 M201.789,20.0703 C201.172,20.0703 200.641,19.9447 200.197,19.6934 C199.753,19.4421 199.411,19.0853 199.172,18.623 C198.932,18.1608 198.813,17.6133 198.813,16.9805 C198.813,16.3633 198.932,15.8216 199.172,15.3555 C199.411,14.8893 199.749,14.526 200.186,14.2656 C200.622,14.0052 201.134,13.875 201.723,13.875 C202.118,13.875 202.488,13.9382 202.83,14.0645 C203.173,14.1908 203.472,14.3802 203.729,14.6328 C203.985,14.8854 204.185,15.2025 204.328,15.584 C204.471,15.9655 204.543,16.4115 204.543,16.9219 L204.543,17.3789 L199.477,17.3789 L199.477,16.3477 L202.977,16.3477 C202.977,16.1081 202.924,15.8958 202.82,15.7109 C202.716,15.526 202.572,15.3809 202.389,15.2754 C202.205,15.1699 201.992,15.1172 201.75,15.1172 C201.497,15.1172 201.274,15.1751 201.08,15.291 C200.886,15.4069 200.734,15.5618 200.625,15.7559 C200.516,15.9499 200.46,16.1654 200.457,16.4023 L200.457,17.3828 C200.457,17.6797 200.512,17.9362 200.623,18.1523 C200.734,18.3685 200.891,18.5352 201.094,18.6523 C201.297,18.7695 201.538,18.8281 201.816,18.8281 C202.001,18.8281 202.171,18.8021 202.324,18.75 C202.478,18.6979 202.609,18.6198 202.719,18.5156 C202.828,18.4115 202.911,18.2839 202.969,18.1328 L204.508,18.2344 C204.43,18.6042 204.27,18.9264 204.029,19.2012 C203.788,19.4759 203.479,19.6895 203.1,19.8418 C202.721,19.9941 202.284,20.0703 201.789,20.0703 M208.328,20.0703 C207.714,20.0703 207.186,19.9395 206.744,19.6777 C206.303,19.416 205.964,19.0521 205.729,18.5859 C205.493,18.1198 205.375,17.5833 205.375,16.9766 C205.375,16.362 205.494,15.8223 205.732,15.3574 C205.971,14.8926 206.31,14.5293 206.75,14.2676 C207.19,14.0059 207.714,13.875 208.32,13.875 C208.844,13.875 209.302,13.9701 209.695,14.1602 C210.089,14.3503 210.4,14.6172 210.629,14.9609 C210.858,15.3047 210.984,15.7083 211.008,16.1719 L209.438,16.1719 C209.393,15.8724 209.277,15.6309 209.088,15.4473 C208.899,15.2637 208.652,15.1719 208.348,15.1719 C208.09,15.1719 207.865,15.2415 207.674,15.3809 C207.482,15.5202 207.333,15.7227 207.227,15.9883 C207.12,16.2539 207.066,16.5755 207.066,16.9531 C207.066,17.3359 207.119,17.6615 207.225,17.9297 C207.33,18.1979 207.479,18.4023 207.672,18.543 C207.865,18.6836 208.09,18.7539 208.348,18.7539 C208.538,18.7539 208.709,18.7148 208.861,18.6367 C209.014,18.5586 209.14,18.4447 209.24,18.2949 C209.34,18.1452 209.406,17.9648 209.438,17.7539 L211.008,17.7539 C210.982,18.2122 210.857,18.6152 210.635,18.9629 C210.412,19.3105 210.105,19.582 209.715,19.7773 C209.324,19.9727 208.862,20.0703 208.328,20.0703 M215.262,13.9531 L215.262,15.2031 L211.648,15.2031 L211.648,13.9531 L215.262,13.9531 M212.469,12.5156 L214.133,12.5156 L214.133,18.1094 C214.133,18.263 214.156,18.3822 214.203,18.4668 C214.25,18.5514 214.316,18.6107 214.4,18.6445 C214.485,18.6784 214.583,18.6953 214.695,18.6953 C214.773,18.6953 214.852,18.6882 214.93,18.6738 C215.008,18.6595 215.068,18.6484 215.109,18.6406 L215.371,19.8789 C215.288,19.9049 215.171,19.9355 215.02,19.9707 C214.868,20.0059 214.685,20.0273 214.469,20.0352 C214.068,20.0508 213.717,19.9974 213.416,19.875 C213.115,19.7526 212.882,19.5625 212.715,19.3047 C212.548,19.0469 212.466,18.7214 212.469,18.3281 L212.469,12.5156 M216.336,19.9531 L216.336,13.9531 L218,13.9531 L218,19.9531 L216.336,19.9531 M217.172,13.1797 C216.924,13.1797 216.713,13.097 216.537,12.9316 C216.361,12.7663 216.273,12.5677 216.273,12.3359 C216.273,12.1068 216.361,11.9095 216.537,11.7441 C216.713,11.5788 216.924,11.4961 217.172,11.4961 C217.419,11.4961 217.631,11.5788 217.807,11.7441 C217.982,11.9095 218.07,12.1068 218.07,12.3359 C218.07,12.5677 217.982,12.7663 217.807,12.9316 C217.631,13.097 217.419,13.1797 217.172,13.1797 M222.031,20.0703 C221.424,20.0703 220.9,19.9408 220.459,19.6816 C220.018,19.4225 219.677,19.0605 219.438,18.5957 C219.198,18.1309 219.078,17.5911 219.078,16.9766 C219.078,16.3568 219.198,15.8145 219.438,15.3496 C219.677,14.8848 220.018,14.5228 220.459,14.2637 C220.9,14.0046 221.424,13.875 222.031,13.875 C222.638,13.875 223.162,14.0046 223.604,14.2637 C224.045,14.5228 224.385,14.8848 224.625,15.3496 C224.865,15.8145 224.984,16.3568 224.984,16.9766 C224.984,17.5911 224.865,18.1309 224.625,18.5957 C224.385,19.0605 224.045,19.4225 223.604,19.6816 C223.162,19.9408 222.638,20.0703 222.031,20.0703 M222.039,18.7813 C222.315,18.7813 222.546,18.7025 222.73,18.5449 C222.915,18.3874 223.055,18.1719 223.15,17.8984 C223.245,17.625 223.293,17.3138 223.293,16.9648 C223.293,16.6159 223.245,16.3047 223.15,16.0313 C223.055,15.7578 222.915,15.5417 222.73,15.3828 C222.546,15.224 222.315,15.1445 222.039,15.1445 C221.76,15.1445 221.527,15.224 221.338,15.3828 C221.149,15.5417 221.007,15.7578 220.912,16.0313 C220.817,16.3047 220.77,16.6159 220.77,16.9648 C220.77,17.3138 220.817,17.625 220.912,17.8984 C221.007,18.1719 221.149,18.3874 221.338,18.5449 C221.527,18.7025 221.76,18.7813 222.039,18.7813 M227.734,16.4844 L227.734,19.9531 L226.07,19.9531 L226.07,13.9531 L227.656,13.9531 L227.656,15.0117 L227.727,15.0117 C227.859,14.6628 228.082,14.3861 228.395,14.1816 C228.707,13.9772 229.086,13.875 229.531,13.875 C229.948,13.875 230.311,13.9661 230.621,14.1484 C230.931,14.3307 231.172,14.5905 231.344,14.9277 C231.516,15.265 231.602,15.6667 231.602,16.1328 L231.602,19.9531 L229.938,19.9531 L229.938,16.4297 C229.94,16.0625 229.846,15.7754 229.656,15.5684 C229.466,15.3613 229.204,15.2578 228.871,15.2578 C228.647,15.2578 228.45,15.306 228.279,15.4023 C228.109,15.4987 227.976,15.6387 227.881,15.8223 C227.786,16.0059 227.737,16.2266 227.734,16.4844 "/>
</g>

<g fill="#ffffff" fill-opacity="1" stroke="none" transform="matrix(1,0,0,1,0,0)"
font-family="Inter" font-size="11" font-weight="700" font-style="normal" 
>
<path vector-effect="none" fill-rule="nonzero" d="M316.84,18.3594 L316.84,17.9375 C316.84,17.6172 316.908,17.3223 317.045,17.0527 C317.182,16.7832 317.381,16.5671 317.643,16.4043 C317.904,16.2415 318.224,16.1602 318.602,16.1602 C318.984,16.1602 319.307,16.2409 319.568,16.4023 C319.83,16.5638 320.028,16.7793 320.162,17.0488 C320.296,17.3184 320.363,17.6146 320.363,17.9375 L320.363,18.3594 C320.363,18.6797 320.296,18.9746 320.16,19.2441 C320.025,19.5137 319.826,19.7298 319.563,19.8926 C319.299,20.0553 318.979,20.1367 318.602,20.1367 C318.219,20.1367 317.897,20.0553 317.637,19.8926 C317.376,19.7298 317.178,19.5137 317.043,19.2441 C316.908,18.9746 316.84,18.6797 316.84,18.3594 M317.977,17.9375 L317.977,18.3594 C317.977,18.5443 318.021,18.7188 318.111,18.8828 C318.201,19.0469 318.365,19.1289 318.602,19.1289 C318.839,19.1289 319.001,19.0482 319.088,18.8867 C319.175,18.7253 319.219,18.5495 319.219,18.3594 L319.219,17.9375 C319.219,17.7474 319.177,17.5703 319.094,17.4063 C319.01,17.2422 318.846,17.1602 318.602,17.1602 C318.367,17.1602 318.204,17.2422 318.113,17.4063 C318.022,17.5703 317.977,17.7474 317.977,17.9375 M312.734,13.7813 L312.734,13.3594 C312.734,13.0365 312.803,12.7402 312.941,12.4707 C313.079,12.2012 313.279,11.9857 313.541,11.8242 C313.803,11.6628 314.12,11.582 314.492,11.582 C314.878,11.582 315.201,11.6628 315.461,11.8242 C315.721,11.9857 315.919,12.2012 316.055,12.4707 C316.19,12.7402 316.258,13.0365 316.258,13.3594 L316.258,13.7813 C316.258,14.1042 316.189,14.3997 316.053,14.668 C315.916,14.9362 315.717,15.1504 315.455,15.3105 C315.193,15.4707 314.872,15.5508 314.492,15.5508 C314.112,15.5508 313.791,15.4694 313.529,15.3066 C313.268,15.1439 313.07,14.929 312.936,14.6621 C312.801,14.3952 312.734,14.1016 312.734,13.7813 M313.879,13.3594 L313.879,13.7813 C313.879,13.9714 313.924,14.1471 314.014,14.3086 C314.104,14.4701 314.263,14.5508 314.492,14.5508 C314.732,14.5508 314.895,14.4701 314.982,14.3086 C315.07,14.1471 315.113,13.9714 315.113,13.7813 L315.113,13.3594 C315.113,13.1693 315.072,12.9922 314.988,12.8281 C314.905,12.6641 314.74,12.582 314.492,12.582 C314.26,12.582 314.1,12.6654 314.012,12.832 C313.923,12.9987 313.879,13.1745 313.879,13.3594 M313.25,19.8594 L318.75,11.8594 L319.773,11.8594 L314.273,19.8594 L313.25,19.8594 M325.906,17.4609 L325.906,17.3281 C325.909,16.8724 325.95,16.5091 326.029,16.2383 C326.109,15.9674 326.225,15.7487 326.379,15.582 C326.533,15.4154 326.717,15.2643 326.934,15.1289 C327.095,15.0247 327.24,14.9167 327.367,14.8047 C327.495,14.6927 327.596,14.5684 327.672,14.4316 C327.747,14.2949 327.785,14.1419 327.785,13.9727 C327.785,13.793 327.742,13.6354 327.656,13.5 C327.57,13.3646 327.455,13.2604 327.311,13.1875 C327.166,13.1146 327.007,13.0781 326.832,13.0781 C326.663,13.0781 326.503,13.1152 326.352,13.1895 C326.201,13.2637 326.077,13.373 325.98,13.5176 C325.884,13.6621 325.832,13.8411 325.824,14.0547 L324.23,14.0547 C324.243,13.5339 324.368,13.1035 324.605,12.7637 C324.842,12.4238 325.156,12.1699 325.547,12.002 C325.938,11.834 326.368,11.75 326.84,11.75 C327.358,11.75 327.816,11.8353 328.215,12.0059 C328.613,12.1764 328.926,12.4232 329.152,12.7461 C329.379,13.069 329.492,13.4583 329.492,13.9141 C329.492,14.2188 329.442,14.4889 329.342,14.7246 C329.242,14.9603 329.102,15.1686 328.922,15.3496 C328.742,15.5306 328.53,15.694 328.285,15.8398 C328.079,15.9622 327.911,16.0898 327.779,16.2227 C327.648,16.3555 327.55,16.5091 327.486,16.6836 C327.423,16.8581 327.389,17.0729 327.387,17.3281 L327.387,17.4609 L325.906,17.4609 M326.68,19.9609 C326.419,19.9609 326.197,19.8691 326.014,19.6855 C325.83,19.502 325.74,19.2813 325.742,19.0234 C325.74,18.7682 325.83,18.5495 326.014,18.3672 C326.197,18.1849 326.419,18.0938 326.68,18.0938 C326.927,18.0938 327.145,18.1849 327.332,18.3672 C327.52,18.5495 327.615,18.7682 327.617,19.0234 C327.615,19.1953 327.57,19.3522 327.482,19.4941 C327.395,19.6361 327.281,19.7493 327.141,19.834 C327,19.9186 326.846,19.9609 326.68,19.9609 "/>
</g>

<g fill="#ffffff" fill-opacity="1" stroke="none" transform="matrix(0.0285,0,0,0.0285,11.2928,4.44754)"
font-family="Inter" font-size="11" font-weight="700" font-style="normal" 
>
<path vector-effect="none" fill-rule="nonzero" d="M97.5863,60.6191 C80.1143,60.6191 66.0472,74.6862 66.0472,92.1582 L66.0472,718.541 C66.0472,736.013 80.1143,750.08 97.5863,750.08 L723.969,750.08 C741.441,750.08 755.508,736.013 755.508,718.541 L755.508,92.1582 C755.508,74.6862 741.441,60.6191 723.969,60.6191 L97.5863,60.6191 M410.733,204.078 C521.886,204.053 612.016,294.136 612.049,405.289 L612.049,405.35 C612.05,516.503 521.947,606.613 410.793,606.621 C299.639,606.63 209.522,516.533 209.506,405.379 C209.49,294.226 299.58,204.102 410.733,204.078 "/>
</g>

<g fill="none" stroke="#000000" stroke-opacity="1" stroke-width="20" stroke-linecap="round" stroke-linejoin="round" transform="matrix(0.0285,0,0,0.0285,11.2928,4.44754)"
font-family="Inter" font-size="11" font-weight="700" font-style="normal" 
>
<path vector-effect="none" fill-rule="nonzero" d="M97.5863,60.6191 C80.1143,60.6191 66.0472,74.6862 66.0472,92.1582 L66.0472,718.541 C66.0472,736.013 80.1143,750.08 97.5863,750.08 L723.969,750.08 C741.441,750.08 755.508,736.013 755.508,718.541 L755.508,92.1582 C755.508,74.6862 741.441,60.6191 723.969,60.6191 L97.5863,60.6191 M410.733,204.078 C521.886,204.053 612.016,294.136 612.049,405.289 L612.049,405.35 C612.05,516.503 521.947,606.613 410.793,606.621 C299.639,606.63 209.522,516.533 209.506,405.379 C209.49,294.226 299.58,204.102 410.733,204.078 "/>
</g>

<g fill="#000000" fill-opacity="1" stroke="none" transform="matrix(0.0285,0,0,0.0285,11.2928,4.44754)"
font-family="Inter" font-size="11" font-weight="700" font-style="normal" 
>
<path vector-effect="none" fill-rule="nonzero" d="M234.666,164.596 C198.854,164.596 170.024,193.426 170.024,229.238 L170.024,581.461 C170.024,617.273 198.854,646.104 234.666,646.104 L586.889,646.104 C622.701,646.104 651.532,617.273 651.532,581.461 L651.532,229.238 C651.532,193.426 622.701,164.596 586.889,164.596 L234.666,164.596 M410.733,204.078 C521.886,204.053 612.016,294.136 612.049,405.289 L612.049,405.35 C612.05,516.503 521.947,606.613 410.793,606.621 C299.639,606.63 209.522,516.533 209.506,405.379 C209.49,294.226 299.58,204.102 410.733,204.078 "/>
</g>

<g fill="none" stroke="#000000" stroke-opacity="1" stroke-width="16.3975" stroke-linecap="round" stroke-linejoin="round" transform="matrix(0.0285,0,0,0.0285,11.2928,4.44754)"
font-family="Inter" font-size="11" font-weight="700" font-style="normal" 
>
<path vector-effect="none" fill-rule="nonzero" d="M234.666,164.596 C198.854,164.596 170.024,193.426 170.024,229.238 L170.024,581.461 C170.024,617.273 198.854,646.104 234.666,646.104 L586.889,646.104 C622.701,646.104 651.532,617.273 651.532,581.461 L651.532,229.238 C651.532,193.426 622.701,164.596 586.889,164.596 L234.666,164.596 M410.733,204.078 C521.886,204.053 612.016,294.136 612.049,405.289 L612.049,405.35 C612.05,516.503 521.947,606.613 410.793,606.621 C299.639,606.63 209.522,516.533 209.506,405.379 C209.49,294.226 299.58,204.102 410.733,204.078 "/>
</g>

<g fill="none" stroke="#000000" stroke-opacity="1" stroke-width="23.8667" stroke-linecap="round" stroke-linejoin="round" transform="matrix(0.0285,0,0,0.0285,11.2928,4.44754)"
font-family="Inter" font-size="11" font-weight="700" font-style="normal" 
>
<path vector-effect="none" fill-rule="nonzero" d="M528.568,405.35 C528.568,470.4 475.837,523.135 410.787,523.14 C345.736,523.145 292.997,470.418 292.987,405.367 C292.978,340.317 345.701,287.574 410.751,287.559 C475.802,287.545 528.549,340.264 528.568,405.314 "/>
</g>

<g fill="#ffffff" fill-opacity="1" stroke="none" transform="matrix(1,0,0,1,0,0)"
font-family="Inter" font-size="11" font-weight="700" font-style="normal" 
>
</g>

<g fill="#ffffff" fill-opacity="1" stroke="#0da6c5" stroke-opacity="1" stroke-width="1" stroke-linecap="square" stroke-linejoin="bevel" transform="matrix(1,0,0,1,0,0)"
font-family="Inter" font-size="11" font-weight="700" font-style="normal" 
>
<polyline fill="none" vector-effect="none" points="45,6 45,26 " />
</g>

<g fill="#ffffff" fill-opacity="1" stroke="#0da6c5" stroke-opacity="1" stroke-width="1" stroke-linecap="square" stroke-linejoin="bevel" transform="matrix(1,0,0,1,0,0)"
font-family="Inter" font-size="11" font-weight="700" font-style="normal" 
>
</g>

<g fill="#ffffff" fill-opacity="1" stroke="#0da6c5" stroke-opacity="1" stroke-width="1" stroke-linecap="square" stroke-linejoin="bevel" transform="matrix(1,0,0,1,0,0)"
font-family="Inter" font-size="11" font-weight="700" font-style="normal" 
>
</g>

<g fill="#ffffff" fill-opacity="1" stroke="#0c96b2" stroke-opacity="1" stroke-width="1.2" stroke-linecap="square" stroke-linejoin="bevel" transform="matrix(1,0,0,1,280.5,5)"
font-family="Inter" font-size="11" font-weight="700" font-style="normal" 
>
<path vector-effect="none" fill-rule="evenodd" d="M1,11 C1,5.47715 5.92487,1 12,1 L14.4,1 C20.4751,1 25.4,5.47715 25.4,11 C25.4,16.5228 20.4751,21 14.4,21 L12,21 C5.92487,21 1,16.5228 1,11 "/>
</g>

<g fill="#000000" fill-opacity="1" stroke="none" transform="matrix(1,0,0,1,280.5,5)"
font-family="Inter" font-size="10" font-weight="700" font-style="normal" 
>
<path vector-effect="none" fill-rule="nonzero" d="M9.69886,14.5213 C9.19697,14.5213 8.75012,14.429 8.35831,14.2443 C7.9665,14.0597 7.65578,13.8052 7.42614,13.4808 C7.1965,13.1565 7.07694,12.7848 7.06747,12.3658 L8.55895,12.3658 C8.57552,12.6475 8.69389,12.8759 8.91406,13.0511 C9.13423,13.2263 9.39583,13.3139 9.69886,13.3139 C9.94034,13.3139 10.154,13.2601 10.3398,13.1523 C10.5257,13.0446 10.6713,12.8943 10.7766,12.7013 C10.882,12.5084 10.9347,12.2865 10.9347,12.0355 C10.9347,11.7798 10.8808,11.5549 10.7731,11.3608 C10.6654,11.1667 10.5168,11.0152 10.3274,10.9063 C10.138,10.7973 9.9214,10.7417 9.67756,10.7393 C9.46449,10.7393 9.25793,10.7831 9.05788,10.8707 C8.85784,10.9583 8.70218,11.0779 8.59091,11.2294 L7.22372,10.9844 L7.56818,7.14915 L12.0142,7.14915 L12.0142,8.40625 L8.83594,8.40625 L8.64773,10.228 L8.69034,10.228 C8.81818,10.0481 9.01113,9.89891 9.26918,9.78054 C9.52723,9.66217 9.81605,9.60298 10.1357,9.60298 C10.5736,9.60298 10.9643,9.70597 11.3075,9.91193 C11.6508,10.1179 11.9219,10.4002 12.1207,10.7589 C12.3196,11.1175 12.4179,11.5301 12.4155,11.9964 C12.4179,12.4865 12.3048,12.9215 12.0763,13.3015 C11.8479,13.6815 11.5295,13.9798 11.1211,14.1964 C10.7127,14.413 10.2386,14.5213 9.69886,14.5213 M16.3317,14.5817 C15.7209,14.5793 15.1959,14.429 14.7567,14.1307 C14.3176,13.8324 13.9802,13.4003 13.7447,12.8345 C13.5091,12.2687 13.3925,11.5881 13.3949,10.7926 C13.3949,9.99953 13.5127,9.32363 13.7482,8.76491 C13.9838,8.2062 14.3211,7.78066 14.7603,7.48828 C15.1995,7.1959 15.7232,7.04972 16.3317,7.04972 C16.9401,7.04972 17.4639,7.1965 17.9031,7.49006 C18.3422,7.78362 18.6802,8.20916 18.9169,8.76669 C19.1536,9.32422 19.2708,9.99953 19.2685,10.7926 C19.2685,11.5904 19.1507,12.2723 18.9151,12.8381 C18.6796,13.4039 18.3428,13.8359 17.9048,14.1342 C17.4669,14.4325 16.9425,14.5817 16.3317,14.5817 M16.3317,13.3068 C16.7483,13.3068 17.081,13.0973 17.3295,12.6783 C17.5781,12.2592 17.7012,11.6307 17.6989,10.7926 C17.6989,10.241 17.6426,9.78172 17.5302,9.41477 C17.4177,9.04782 17.2591,8.77202 17.0543,8.58736 C16.8496,8.4027 16.6087,8.31037 16.3317,8.31037 C15.9174,8.31037 15.5859,8.51752 15.3374,8.93182 C15.0888,9.34612 14.9633,9.96638 14.9609,10.7926 C14.9609,11.3513 15.0172,11.8171 15.1296,12.19 C15.2421,12.5629 15.4013,12.8422 15.6072,13.0281 C15.8132,13.2139 16.0547,13.3068 16.3317,13.3068 "/>
</g>

<g fill="#ffffff" fill-opacity="1" stroke="#0da6c5" stroke-opacity="1" stroke-width="1" stroke-linecap="square" stroke-linejoin="bevel" transform="matrix(1,0,0,1,0,0)"
font-family="Inter" font-size="11" font-weight="700" font-style="normal" 
>
</g>

<g fill="#0da6c5" fill-opacity="1" stroke="#0da6c5" stroke-opacity="1" stroke-width="1.2" stroke-linecap="square" stroke-linejoin="bevel" transform="matrix(1,0,0,1,135,4)"
font-family="Inter" font-size="11" font-weight="700" font-style="normal" 
>
<path vector-effect="none" fill-rule="evenodd" d="M0.5,12 C0.5,5.64873 5.87258,0.5 12.5,0.5 L27.5,0.5 C34.1274,0.5 39.5,5.64873 39.5,12 C39.5,18.3513 34.1274,23.5 27.5,23.5 L12.5,23.5 C5.87258,23.5 0.5,18.3513 0.5,12 "/>
</g>

<g fill="#ffffff" fill-opacity="1" stroke="none" transform="matrix(1,0,0,1,135,4)"
font-family="Inter" font-size="11" font-weight="700" font-style="normal" 
>
<path vector-effect="none" fill-rule="nonzero" d="M11.8242,16 L10.0117,16 L12.7734,8 L14.9531,8 L17.7109,16 L15.8984,16 L13.8945,9.82813 L13.832,9.82813 L11.8242,16 M11.7109,12.8555 L15.9922,12.8555 L15.9922,14.1758 L11.7109,14.1758 L11.7109,12.8555"/>
</g>

<g fill="#ffffff" fill-opacity="1" stroke="none" transform="matrix(0.03125,0,0,0.03125,161,12)"
font-family="Inter" font-size="11" font-weight="700" font-style="normal" 
>
<path vector-effect="none" fill-rule="nonzero" d="M111.326,191.938 C120.545,201.158 135.517,201.158 144.737,191.938 L239.144,97.5313 C245.929,90.7458 247.921,80.6413 244.233,71.7907 C240.545,62.9401 231.989,57.1871 222.401,57.1871 L33.5875,57.2608 C24.0731,57.2608 15.4437,63.0137 11.7559,71.8644 C8.06815,80.715 10.1333,90.8195 16.845,97.605 L111.252,192.012 L111.326,191.938"/>
</g>

<g fill="none" stroke="#000000" stroke-opacity="1" stroke-width="13.7195" stroke-linecap="butt" stroke-linejoin="miter" stroke-miterlimit="4" transform="matrix(0.03125,0,0,0.03125,161,12)"
font-family="Inter" font-size="11" font-weight="700" font-style="normal" 
>
<path vector-effect="none" fill-rule="nonzero" d="M111.326,191.938 C120.545,201.158 135.517,201.158 144.737,191.938 L239.144,97.5313 C245.929,90.7458 247.921,80.6413 244.233,71.7907 C240.545,62.9401 231.989,57.1871 222.401,57.1871 L33.5875,57.2608 C24.0731,57.2608 15.4437,63.0137 11.7559,71.8644 C8.06815,80.715 10.1333,90.8195 16.845,97.605 L111.252,192.012 L111.326,191.938"/>
</g>

<g fill="#ffffff" fill-opacity="1" stroke="none" transform="matrix(1,0,0,1,135,4)"
font-family="Inter" font-size="11" font-weight="700" font-style="normal" 
>
</g>

<g fill="#ffffff" fill-opacity="1" stroke="#0da6c5" stroke-opacity="1" stroke-width="1" stroke-linecap="square" stroke-linejoin="bevel" transform="matrix(1,0,0,1,0,0)"
font-family="Inter" font-size="11" font-weight="700" font-style="normal" 
>
</g>

<g fill="#1dccf0" fill-opacity="1" stroke="#0da6c5" stroke-opacity="1" stroke-width="1.2" stroke-linecap="square" stroke-linejoin="bevel" transform="matrix(1,0,0,1,238,4)"
font-family="Inter" font-size="11" font-weight="700" font-style="normal" 
>
<path vector-effect="none" fill-rule="evenodd" d="M0.5,3.5 C0.5,1.84315 1.84315,0.5 3.5,0.5 L35,0.5 C36.6569,0.5 38,1.84315 38,3.5 L38,20.5 C38,22.1569 36.6569,23.5 35,23.5 L3.5,23.5 C1.84315,23.5 0.5,22.1569 0.5,20.5 L0.5,3.5"/>
</g>

<g fill="#ffffff" fill-opacity="1" stroke="none" transform="matrix(1,0,0,1,238,4)"
font-family="Inter" font-size="11" font-weight="700" font-style="normal" 
>
<path vector-effect="none" fill-rule="nonzero" d="M10.5039,12.5195 L10.5039,11.1445 L16.0039,8.72266 L16.0039,10.3047 L12.2383,11.8164 L12.2891,11.7344 L12.2891,11.9297 L12.2383,11.8477 L16.0039,13.3594 L16.0039,14.9414 L10.5039,12.5195"/>
</g>

<g fill="#ffffff" fill-opacity="1" stroke="none" transform="matrix(0.03125,0,0,0.03125,262.5,12)"
font-family="Inter" font-size="11" font-weight="700" font-style="normal" 
>
<path vector-effect="none" fill-rule="nonzero" d="M111.326,191.938 C120.545,201.158 135.517,201.158 144.737,191.938 L239.144,97.5313 C245.929,90.7458 247.921,80.6413 244.233,71.7907 C240.545,62.9401 231.989,57.1871 222.401,57.1871 L33.5875,57.2608 C24.0731,57.2608 15.4437,63.0137 11.7559,71.8644 C8.06815,80.715 10.1333,90.8195 16.845,97.605 L111.252,192.012 L111.326,191.938"/>
</g>

<g fill="none" stroke="#000000" stroke-opacity="1" stroke-width="13.7195" stroke-linecap="butt" stroke-linejoin="miter" stroke-miterlimit="4" transform="matrix(0.03125,0,0,0.03125,262.5,12)"
font-family="Inter" font-size="11" font-weight="700" font-style="normal" 
>
<path vector-effect="none" fill-rule="nonzero" d="M111.326,191.938 C120.545,201.158 135.517,201.158 144.737,191.938 L239.144,97.5313 C245.929,90.7458 247.921,80.6413 244.233,71.7907 C240.545,62.9401 231.989,57.1871 222.401,57.1871 L33.5875,57.2608 C24.0731,57.2608 15.4437,63.0137 11.7559,71.8644 C8.06815,80.715 10.1333,90.8195 16.845,97.605 L111.252,192.012 L111.326,191.938"/>
</g>

<g fill="#ffffff" fill-opacity="1" stroke="none" transform="matrix(1,0,0,1,238,4)"
font-family="Inter" font-size="11" font-weight="700" font-style="normal" 
>
</g>

<g fill="#ffffff" fill-opacity="1" stroke="#0da6c5" stroke-opacity="1" stroke-width="1" stroke-linecap="square" stroke-linejoin="bevel" transform="matrix(1,0,0,1,0,0)"
font-family="Inter" font-size="11" font-weight="700" font-style="normal" 
>
</g>

<g fill="#1dccf0" fill-opacity="1" stroke="#0da6c5" stroke-opacity="1" stroke-width="1.2" stroke-linecap="square" stroke-linejoin="bevel" transform="matrix(1,0,0,1,56,4)"
font-family="Inter" font-size="11" font-weight="700" font-style="normal" 
>
<path vector-effect="none" fill-rule="evenodd" d="M0.5,3.5 C0.5,1.84315 1.84315,0.5 3.5,0.5 L71.5,0.5 C73.1569,0.5 74.5,1.84315 74.5,3.5 L74.5,20.5 C74.5,22.1569 73.1569,23.5 71.5,23.5 L3.5,23.5 C1.84315,23.5 0.5,22.1569 0.5,20.5 L0.5,3.5"/>
</g>

<g fill="#ffffff" fill-opacity="1" stroke="none" transform="matrix(1,0,0,1,56,4)"
font-family="Inter" font-size="11" font-weight="700" font-style="normal" 
>
<path vector-effect="none" fill-rule="nonzero" d="M10,9.39453 L10,8 L16.5703,8 L16.5703,9.39453 L14.1211,9.39453 L14.1211,16 L12.4492,16 L12.4492,9.39453 L10,9.39453 M17.6484,16 L17.6484,8 L19.3398,8 L19.3398,11.3008 L22.7734,11.3008 L22.7734,8 L24.4609,8 L24.4609,16 L22.7734,16 L22.7734,12.6953 L19.3398,12.6953 L19.3398,16 L17.6484,16 M32.543,8 L32.543,16 L31.082,16 L27.6016,10.9648 L27.543,10.9648 L27.543,16 L25.8516,16 L25.8516,8 L27.3359,8 L30.7891,13.0313 L30.8594,13.0313 L30.8594,8 L32.543,8 M33.9297,16 L33.9297,8 L35.6211,8 L35.6211,11.3008 L39.0547,11.3008 L39.0547,8 L40.7422,8 L40.7422,16 L39.0547,16 L39.0547,12.6953 L35.6211,12.6953 L35.6211,16 L33.9297,16 M42.1328,16 L42.1328,8 L45.3359,8 C45.9245,8 46.4154,8.08724 46.8086,8.26172 C47.2018,8.4362 47.4974,8.67773 47.6953,8.98633 C47.8932,9.29492 47.9922,9.64974 47.9922,10.0508 C47.9922,10.3633 47.9297,10.6374 47.8047,10.873 C47.6797,11.1087 47.5085,11.3014 47.291,11.4512 C47.0736,11.6009 46.8255,11.707 46.5469,11.7695 L46.5469,11.8477 C46.8516,11.8607 47.1374,11.9466 47.4043,12.1055 C47.6712,12.2643 47.888,12.4863 48.0547,12.7715 C48.2214,13.0566 48.3047,13.3958 48.3047,13.7891 C48.3047,14.2135 48.1999,14.5918 47.9902,14.9238 C47.7806,15.2559 47.4714,15.5182 47.0625,15.7109 C46.6536,15.9036 46.1497,16 45.5508,16 L42.1328,16 M43.8242,14.6172 L45.2031,14.6172 C45.6745,14.6172 46.0182,14.5267 46.2344,14.3457 C46.4505,14.1647 46.5586,13.9232 46.5586,13.6211 C46.5586,13.3997 46.5052,13.2044 46.3984,13.0352 C46.2917,12.8659 46.14,12.7331 45.9434,12.6367 C45.7467,12.5404 45.513,12.4922 45.2422,12.4922 L43.8242,12.4922 L43.8242,14.6172 M43.8242,11.3477 L45.0781,11.3477 C45.3099,11.3477 45.5163,11.3066 45.6973,11.2246 C45.8783,11.1426 46.0215,11.026 46.127,10.875 C46.2324,10.724 46.2852,10.543 46.2852,10.332 C46.2852,10.043 46.1829,9.8099 45.9785,9.63281 C45.7741,9.45573 45.4844,9.36719 45.1094,9.36719 L43.8242,9.36719 L43.8242,11.3477 M52.832,8 L52.832,16 L51.1406,16 L51.1406,9.60547 L51.0938,9.60547 L49.2617,10.7539 L49.2617,9.25391 L51.2422,8 L52.832,8"/>
</g>

<g fill="#ffffff" fill-opacity="1" stroke="none" transform="matrix(0.03125,0,0,0.03125,117,12)"
font-family="Inter" font-size="11" font-weight="700" font-style="normal" 
>
<path vector-effect="none" fill-rule="nonzero" d="M111.326,191.938 C120.545,201.158 135.517,201.158 144.737,191.938 L239.144,97.5313 C245.929,90.7458 247.921,80.6413 244.233,71.7907 C240.545,62.9401 231.989,57.1871 222.401,57.1871 L33.5875,57.2608 C24.0731,57.2608 15.4437,63.0137 11.7559,71.8644 C8.06815,80.715 10.1333,90.8195 16.845,97.605 L111.252,192.012 L111.326,191.938"/>
</g>

<g fill="none" stroke="#000000" stroke-opacity="1" stroke-width="13.7195" stroke-linecap="butt" stroke-linejoin="miter" stroke-miterlimit="4" transform="matrix(0.03125,0,0,0.03125,117,12)"
font-family="Inter" font-size="11" font-weight="700" font-style="normal" 
>
<path vector-effect="none" fill-rule="nonzero" d="M111.326,191.938 C120.545,201.158 135.517,201.158 144.737,191.938 L239.144,97.5313 C245.929,90.7458 247.921,80.6413 244.233,71.7907 C240.545,62.9401 231.989,57.1871 222.401,57.1871 L33.5875,57.2608 C24.0731,57.2608 15.4437,63.0137 11.7559,71.8644 C8.06815,80.715 10.1333,90.8195 16.845,97.605 L111.252,192.012 L111.326,191.938"/>
</g>

<g fill="#ffffff" fill-opacity="1" stroke="none" transform="matrix(1,0,0,1,56,4)"
font-family="Inter" font-size="11" font-weight="700" font-style="normal" 
>
</g>

<g fill="#ffffff" fill-opacity="1" stroke="#0da6c5" stroke-opacity="1" stroke-width="1" stroke-linecap="square" stroke-linejoin="bevel" transform="matrix(1,0,0,1,0,0)"
font-family="Inter" font-size="11" font-weight="700" font-style="normal" 
>
</g>

<g fill="#ffffff" fill-opacity="1" stroke="#0da6c5" stroke-opacity="1" stroke-width="1" stroke-linecap="square" stroke-linejoin="bevel" transform="matrix(1,0,0,1,0,0)"
font-family="Inter" font-size="11" font-weight="700" font-style="normal" 
>
</g>

<g fill="none" stroke="#000000" stroke-opacity="1" stroke-width="1" stroke-linecap="square" stroke-linejoin="bevel" transform="matrix(1,0,0,1,0,0)"
font-family=".AppleSystemUIFont" font-size="13" font-weight="400" font-style="normal" 
>
</g>
</g>
</svg>
