<?xml version="1.0" encoding="UTF-8" standalone="no"?>
<svg width="122.767mm" height="15.5222mm"
 viewBox="0 0 348 44"
 xmlns="http://www.w3.org/2000/svg" xmlns:xlink="http://www.w3.org/1999/xlink" version="1.2" baseProfile="tiny">
<title>Abstract block</title>
<desc>block_hubs_all_light_light_turn_to</desc>
<defs>
</defs>
<g fill="none" stroke="black" stroke-width="1" fill-rule="evenodd" stroke-linecap="square" stroke-linejoin="bevel" >

<g fill="none" stroke="#000000" stroke-opacity="1" stroke-width="1" stroke-linecap="square" stroke-linejoin="bevel" transform="matrix(1,0,0,1,0,0)"
font-family=".AppleSystemUIFont" font-size="13" font-weight="400" font-style="normal" 
>
</g>

<g fill="none" stroke="#000000" stroke-opacity="1" stroke-width="1" stroke-linecap="square" stroke-linejoin="bevel" transform="matrix(1,0,0,1,0,0)"
font-family=".AppleSystemUIFont" font-size="13" font-weight="400" font-style="normal" 
>
</g>

<g fill="#935df5" fill-opacity="1" stroke="#6c25f1" stroke-opacity="1" stroke-width="1.2" stroke-linecap="square" stroke-linejoin="bevel" transform="matrix(1,0,0,1,0,0)"
font-family=".AppleSystemUIFont" font-size="13" font-weight="400" font-style="normal" 
>
<path vector-effect="none" fill-rule="evenodd" d="M0.5,4.5 L1.04612,2.48112 L2.48112,1.04612 L4.5,0.5 L9.625,0.5 L10.416,0.976563 L11.1719,1.6875 L11.998,2.67969 L13,4 L13.7559,4.66016 L14.5469,5.15625 L15.4082,5.51172 L16.375,5.75 L17.4824,5.89453 L18.7656,5.96875 L20.2598,5.99609 L22,6 L23.7402,5.99609 L25.2344,5.96875 L26.5176,5.89453 L27.625,5.75 L28.5918,5.51172 L29.4531,5.15625 L30.2441,4.66016 L31,4 L32.002,2.67969 L32.8281,1.6875 L33.584,0.976563 L34.375,0.5 L342.9,0.5 L344.919,1.04612 L346.354,2.48112 L346.9,4.5 L346.9,31.5 L346.354,33.5189 L344.919,34.9539 L342.9,35.5 L34.375,35.5 L33.584,35.9766 L32.8281,36.6875 L32.002,37.6797 L31,39 L30.2441,39.6602 L29.4531,40.1563 L28.5918,40.5117 L27.625,40.75 L26.5176,40.8945 L25.2344,40.9688 L23.7402,40.9961 L22,41 L20.2598,40.9961 L18.7656,40.9688 L17.4824,40.8945 L16.375,40.75 L15.4082,40.5117 L14.5469,40.1563 L13.7559,39.6602 L13,39 L11.998,37.6797 L11.1719,36.6875 L10.416,35.9766 L9.625,35.5 L4.5,35.5 L2.48112,34.9539 L1.04612,33.5189 L0.5,31.5 L0.5,4.5"/>
</g>

<g fill="#ffffff" fill-opacity="1" stroke="none" transform="matrix(1,0,0,1,0,0)"
font-family="Inter" font-size="11" font-weight="700" font-style="normal" 
>
<path vector-effect="none" fill-rule="nonzero" d="M184.371,15.4531 L184.371,16.7031 L180.758,16.7031 L180.758,15.4531 L184.371,15.4531 M181.578,14.0156 L183.242,14.0156 L183.242,19.6094 C183.242,19.763 183.266,19.8822 183.313,19.9668 C183.359,20.0514 183.425,20.1107 183.51,20.1445 C183.594,20.1784 183.693,20.1953 183.805,20.1953 C183.883,20.1953 183.961,20.1882 184.039,20.1738 C184.117,20.1595 184.177,20.1484 184.219,20.1406 L184.48,21.3789 C184.397,21.4049 184.28,21.4355 184.129,21.4707 C183.978,21.5059 183.794,21.5273 183.578,21.5352 C183.177,21.5508 182.826,21.4974 182.525,21.375 C182.225,21.2526 181.991,21.0625 181.824,20.8047 C181.658,20.5469 181.576,20.2214 181.578,19.8281 L181.578,14.0156 M189.293,18.8984 L189.293,15.4531 L190.957,15.4531 L190.957,21.4531 L189.359,21.4531 L189.359,20.3633 L189.297,20.3633 C189.161,20.7148 188.937,20.9974 188.623,21.2109 C188.309,21.4245 187.927,21.5313 187.477,21.5313 C187.076,21.5313 186.723,21.4401 186.418,21.2578 C186.113,21.0755 185.876,20.8164 185.705,20.4805 C185.535,20.1445 185.448,19.7422 185.445,19.2734 L185.445,15.4531 L187.109,15.4531 L187.109,18.9766 C187.112,19.3307 187.207,19.6107 187.395,19.8164 C187.582,20.0221 187.833,20.125 188.148,20.125 C188.349,20.125 188.536,20.0788 188.711,19.9863 C188.885,19.8939 189.027,19.7565 189.135,19.5742 C189.243,19.3919 189.296,19.1667 189.293,18.8984 M192.273,21.4531 L192.273,15.4531 L193.887,15.4531 L193.887,16.5 L193.949,16.5 C194.059,16.1276 194.242,15.8457 194.5,15.6543 C194.758,15.4629 195.055,15.3672 195.391,15.3672 C195.474,15.3672 195.564,15.3724 195.66,15.3828 C195.757,15.3932 195.841,15.4076 195.914,15.4258 L195.914,16.9023 C195.836,16.8789 195.728,16.8581 195.59,16.8398 C195.452,16.8216 195.326,16.8125 195.211,16.8125 C194.966,16.8125 194.748,16.8652 194.557,16.9707 C194.365,17.0762 194.214,17.2227 194.104,17.4102 C193.993,17.5977 193.938,17.8138 193.938,18.0586 L193.938,21.4531 L192.273,21.4531 M198.422,17.9844 L198.422,21.4531 L196.758,21.4531 L196.758,15.4531 L198.344,15.4531 L198.344,16.5117 L198.414,16.5117 C198.547,16.1628 198.77,15.8861 199.082,15.6816 C199.395,15.4772 199.773,15.375 200.219,15.375 C200.635,15.375 200.999,15.4661 201.309,15.6484 C201.618,15.8307 201.859,16.0905 202.031,16.4277 C202.203,16.765 202.289,17.1667 202.289,17.6328 L202.289,21.4531 L200.625,21.4531 L200.625,17.9297 C200.628,17.5625 200.534,17.2754 200.344,17.0684 C200.154,16.8613 199.892,16.7578 199.559,16.7578 C199.335,16.7578 199.137,16.806 198.967,16.9023 C198.796,16.9987 198.663,17.1387 198.568,17.3223 C198.473,17.5059 198.424,17.7266 198.422,17.9844 M208.844,21.5703 C208.237,21.5703 207.713,21.4408 207.271,21.1816 C206.83,20.9225 206.49,20.5605 206.25,20.0957 C206.01,19.6309 205.891,19.0911 205.891,18.4766 C205.891,17.8568 206.01,17.3145 206.25,16.8496 C206.49,16.3848 206.83,16.0228 207.271,15.7637 C207.713,15.5046 208.237,15.375 208.844,15.375 C209.451,15.375 209.975,15.5046 210.416,15.7637 C210.857,16.0228 211.198,16.3848 211.438,16.8496 C211.677,17.3145 211.797,17.8568 211.797,18.4766 C211.797,19.0911 211.677,19.6309 211.438,20.0957 C211.198,20.5605 210.857,20.9225 210.416,21.1816 C209.975,21.4408 209.451,21.5703 208.844,21.5703 M208.852,20.2813 C209.128,20.2813 209.358,20.2025 209.543,20.0449 C209.728,19.8874 209.868,19.6719 209.963,19.3984 C210.058,19.125 210.105,18.8138 210.105,18.4648 C210.105,18.1159 210.058,17.8047 209.963,17.5313 C209.868,17.2578 209.728,17.0417 209.543,16.8828 C209.358,16.724 209.128,16.6445 208.852,16.6445 C208.573,16.6445 208.339,16.724 208.15,16.8828 C207.962,17.0417 207.82,17.2578 207.725,17.5313 C207.63,17.8047 207.582,18.1159 207.582,18.4648 C207.582,18.8138 207.63,19.125 207.725,19.3984 C207.82,19.6719 207.962,19.8874 208.15,20.0449 C208.339,20.2025 208.573,20.2813 208.852,20.2813 M214.547,17.9844 L214.547,21.4531 L212.883,21.4531 L212.883,15.4531 L214.469,15.4531 L214.469,16.5117 L214.539,16.5117 C214.672,16.1628 214.895,15.8861 215.207,15.6816 C215.52,15.4772 215.898,15.375 216.344,15.375 C216.76,15.375 217.124,15.4661 217.434,15.6484 C217.743,15.8307 217.984,16.0905 218.156,16.4277 C218.328,16.765 218.414,17.1667 218.414,17.6328 L218.414,21.4531 L216.75,21.4531 L216.75,17.9297 C216.753,17.5625 216.659,17.2754 216.469,17.0684 C216.279,16.8613 216.017,16.7578 215.684,16.7578 C215.46,16.7578 215.262,16.806 215.092,16.9023 C214.921,16.9987 214.788,17.1387 214.693,17.3223 C214.598,17.5059 214.549,17.7266 214.547,17.9844 M223.969,21.5664 C223.586,21.5664 223.245,21.4993 222.945,21.3652 C222.646,21.2311 222.41,21.0319 222.236,20.7676 C222.063,20.5033 221.977,20.1732 221.977,19.7773 C221.977,19.444 222.038,19.1641 222.16,18.9375 C222.283,18.7109 222.449,18.5286 222.66,18.3906 C222.871,18.2526 223.111,18.1484 223.381,18.0781 C223.65,18.0078 223.934,17.9583 224.23,17.9297 C224.579,17.8932 224.861,17.8587 225.074,17.8262 C225.288,17.7936 225.443,17.7448 225.539,17.6797 C225.635,17.6146 225.684,17.5182 225.684,17.3906 L225.684,17.3672 C225.684,17.1198 225.606,16.9284 225.451,16.793 C225.296,16.6576 225.077,16.5898 224.793,16.5898 C224.493,16.5898 224.255,16.6556 224.078,16.7871 C223.901,16.9186 223.784,17.0833 223.727,17.2813 L222.188,17.1563 C222.266,16.7917 222.419,16.4759 222.648,16.209 C222.878,15.9421 223.174,15.7363 223.537,15.5918 C223.9,15.4473 224.322,15.375 224.801,15.375 C225.134,15.375 225.454,15.4141 225.76,15.4922 C226.066,15.5703 226.338,15.6914 226.576,15.8555 C226.814,16.0195 227.003,16.2298 227.141,16.4863 C227.279,16.7428 227.348,17.0495 227.348,17.4063 L227.348,21.4531 L225.77,21.4531 L225.77,20.6211 L225.723,20.6211 C225.626,20.8086 225.497,20.9733 225.336,21.1152 C225.174,21.2572 224.98,21.3678 224.754,21.4473 C224.527,21.5267 224.266,21.5664 223.969,21.5664 M224.445,20.418 C224.69,20.418 224.906,20.3691 225.094,20.2715 C225.281,20.1738 225.428,20.0417 225.535,19.875 C225.642,19.7083 225.695,19.5195 225.695,19.3086 L225.695,18.6719 C225.643,18.7057 225.572,18.7363 225.482,18.7637 C225.393,18.791 225.292,18.8158 225.18,18.8379 C225.068,18.86 224.956,18.8796 224.844,18.8965 C224.732,18.9134 224.63,18.9284 224.539,18.9414 C224.344,18.9701 224.173,19.0156 224.027,19.0781 C223.882,19.1406 223.768,19.2246 223.688,19.3301 C223.607,19.4355 223.566,19.5664 223.566,19.7227 C223.566,19.9492 223.649,20.1217 223.814,20.2402 C223.98,20.3587 224.19,20.418 224.445,20.418 M231.824,15.4531 L231.824,16.7031 L228.211,16.7031 L228.211,15.4531 L231.824,15.4531 M229.031,14.0156 L230.695,14.0156 L230.695,19.6094 C230.695,19.763 230.719,19.8822 230.766,19.9668 C230.813,20.0514 230.878,20.1107 230.963,20.1445 C231.048,20.1784 231.146,20.1953 231.258,20.1953 C231.336,20.1953 231.414,20.1882 231.492,20.1738 C231.57,20.1595 231.63,20.1484 231.672,20.1406 L231.934,21.3789 C231.85,21.4049 231.733,21.4355 231.582,21.4707 C231.431,21.5059 231.247,21.5273 231.031,21.5352 C230.63,21.5508 230.279,21.4974 229.979,21.375 C229.678,21.2526 229.444,21.0625 229.277,20.8047 C229.111,20.5469 229.029,20.2214 229.031,19.8281 L229.031,14.0156"/>
</g>

<g fill="#ffffff" fill-opacity="1" stroke="none" transform="matrix(1,0,0,1,0,0)"
font-family="Inter" font-size="11" font-weight="700" font-style="normal" 
>
<path vector-effect="none" fill-rule="nonzero" d="M274.262,19.5 L274.262,19.0781 C274.262,18.7578 274.33,18.4629 274.467,18.1934 C274.604,17.9238 274.803,17.7077 275.064,17.5449 C275.326,17.3822 275.646,17.3008 276.023,17.3008 C276.406,17.3008 276.729,17.3815 276.99,17.543 C277.252,17.7044 277.45,17.9199 277.584,18.1895 C277.718,18.459 277.785,18.7552 277.785,19.0781 L277.785,19.5 C277.785,19.8203 277.717,20.1152 277.582,20.3848 C277.447,20.6543 277.247,20.8704 276.984,21.0332 C276.721,21.196 276.401,21.2773 276.023,21.2773 C275.641,21.2773 275.319,21.196 275.059,21.0332 C274.798,20.8704 274.6,20.6543 274.465,20.3848 C274.329,20.1152 274.262,19.8203 274.262,19.5 M275.398,19.0781 L275.398,19.5 C275.398,19.6849 275.443,19.8594 275.533,20.0234 C275.623,20.1875 275.786,20.2695 276.023,20.2695 C276.26,20.2695 276.423,20.1888 276.51,20.0273 C276.597,19.8659 276.641,19.6901 276.641,19.5 L276.641,19.0781 C276.641,18.888 276.599,18.7109 276.516,18.5469 C276.432,18.3828 276.268,18.3008 276.023,18.3008 C275.789,18.3008 275.626,18.3828 275.535,18.5469 C275.444,18.7109 275.398,18.888 275.398,19.0781 M270.156,14.9219 L270.156,14.5 C270.156,14.1771 270.225,13.8809 270.363,13.6113 C270.501,13.3418 270.701,13.1263 270.963,12.9648 C271.225,12.8034 271.542,12.7227 271.914,12.7227 C272.299,12.7227 272.622,12.8034 272.883,12.9648 C273.143,13.1263 273.341,13.3418 273.477,13.6113 C273.612,13.8809 273.68,14.1771 273.68,14.5 L273.68,14.9219 C273.68,15.2448 273.611,15.5404 273.475,15.8086 C273.338,16.0768 273.139,16.291 272.877,16.4512 C272.615,16.6113 272.294,16.6914 271.914,16.6914 C271.534,16.6914 271.213,16.61 270.951,16.4473 C270.689,16.2845 270.492,16.0697 270.357,15.8027 C270.223,15.5358 270.156,15.2422 270.156,14.9219 M271.301,14.5 L271.301,14.9219 C271.301,15.112 271.346,15.2878 271.436,15.4492 C271.525,15.6107 271.685,15.6914 271.914,15.6914 C272.154,15.6914 272.317,15.6107 272.404,15.4492 C272.492,15.2878 272.535,15.112 272.535,14.9219 L272.535,14.5 C272.535,14.3099 272.493,14.1328 272.41,13.9688 C272.327,13.8047 272.161,13.7227 271.914,13.7227 C271.682,13.7227 271.522,13.806 271.434,13.9727 C271.345,14.1393 271.301,14.3151 271.301,14.5 M270.672,21 L276.172,13 L277.195,13 L271.695,21 L270.672,21 M281.93,21 L281.93,13 L283.594,13 L283.594,16.0078 L283.645,16.0078 C283.717,15.8464 283.824,15.6816 283.963,15.5137 C284.102,15.3457 284.285,15.2051 284.51,15.0918 C284.735,14.9785 285.016,14.9219 285.352,14.9219 C285.789,14.9219 286.193,15.0358 286.563,15.2637 C286.932,15.4915 287.228,15.834 287.449,16.291 C287.671,16.748 287.781,17.3203 287.781,18.0078 C287.781,18.6771 287.674,19.2415 287.459,19.7012 C287.244,20.1608 286.952,20.5085 286.584,20.7441 C286.215,20.9798 285.803,21.0977 285.348,21.0977 C285.025,21.0977 284.751,21.0443 284.525,20.9375 C284.3,20.8307 284.116,20.696 283.973,20.5332 C283.829,20.3704 283.72,20.2057 283.645,20.0391 L283.57,20.0391 L283.57,21 L281.93,21 M283.559,18 C283.559,18.3568 283.608,18.668 283.707,18.9336 C283.806,19.1992 283.949,19.4056 284.137,19.5527 C284.324,19.6999 284.552,19.7734 284.82,19.7734 C285.091,19.7734 285.32,19.6986 285.508,19.5488 C285.695,19.3991 285.838,19.1908 285.936,18.9238 C286.033,18.6569 286.082,18.349 286.082,18 C286.082,17.6536 286.034,17.349 285.938,17.0859 C285.841,16.8229 285.699,16.6172 285.512,16.4688 C285.324,16.3203 285.094,16.2461 284.82,16.2461 C284.549,16.2461 284.321,16.3177 284.135,16.4609 C283.949,16.6042 283.806,16.8073 283.707,17.0703 C283.608,17.3333 283.559,17.6432 283.559,18 M288.883,21 L288.883,15 L290.496,15 L290.496,16.0469 L290.559,16.0469 C290.668,15.6745 290.852,15.3926 291.109,15.2012 C291.367,15.0098 291.664,14.9141 292,14.9141 C292.083,14.9141 292.173,14.9193 292.27,14.9297 C292.366,14.9401 292.451,14.9544 292.523,14.9727 L292.523,16.4492 C292.445,16.4258 292.337,16.4049 292.199,16.3867 C292.061,16.3685 291.935,16.3594 291.82,16.3594 C291.576,16.3594 291.357,16.4121 291.166,16.5176 C290.975,16.623 290.824,16.7695 290.713,16.957 C290.602,17.1445 290.547,17.3607 290.547,17.6055 L290.547,21 L288.883,21 M293.367,21 L293.367,15 L295.031,15 L295.031,21 L293.367,21 M294.203,14.2266 C293.956,14.2266 293.744,14.1439 293.568,13.9785 C293.393,13.8132 293.305,13.6146 293.305,13.3828 C293.305,13.1536 293.393,12.9564 293.568,12.791 C293.744,12.6257 293.956,12.543 294.203,12.543 C294.451,12.543 294.662,12.6257 294.838,12.791 C295.014,12.9564 295.102,13.1536 295.102,13.3828 C295.102,13.6146 295.014,13.8132 294.838,13.9785 C294.662,14.1439 294.451,14.2266 294.203,14.2266 M299.055,23.375 C298.516,23.375 298.054,23.3014 297.67,23.1543 C297.286,23.0072 296.98,22.8073 296.754,22.5547 C296.527,22.3021 296.38,22.0182 296.313,21.7031 L297.852,21.4961 C297.898,21.6159 297.973,21.7279 298.074,21.832 C298.176,21.9362 298.311,22.0202 298.479,22.084 C298.646,22.1478 298.852,22.1797 299.094,22.1797 C299.456,22.1797 299.755,22.0918 299.99,21.916 C300.226,21.7402 300.344,21.4466 300.344,21.0352 L300.344,19.9375 L300.273,19.9375 C300.201,20.1042 300.091,20.2617 299.945,20.4102 C299.799,20.5586 299.612,20.6797 299.383,20.7734 C299.154,20.8672 298.88,20.9141 298.563,20.9141 C298.112,20.9141 297.702,20.8092 297.334,20.5996 C296.965,20.39 296.673,20.0684 296.455,19.6348 C296.238,19.2012 296.129,18.6523 296.129,17.9883 C296.129,17.3086 296.24,16.7409 296.461,16.2852 C296.682,15.8294 296.977,15.4883 297.346,15.2617 C297.714,15.0352 298.118,14.9219 298.559,14.9219 C298.895,14.9219 299.176,14.9785 299.402,15.0918 C299.629,15.2051 299.812,15.3457 299.951,15.5137 C300.09,15.6816 300.198,15.8464 300.273,16.0078 L300.336,16.0078 L300.336,15 L301.988,15 L301.988,21.0586 C301.988,21.569 301.863,21.9961 301.613,22.3398 C301.363,22.6836 301.018,22.9421 300.576,23.1152 C300.135,23.2884 299.628,23.375 299.055,23.375 M299.09,19.6641 C299.358,19.6641 299.585,19.597 299.771,19.4629 C299.958,19.3288 300.101,19.1361 300.201,18.8848 C300.301,18.6335 300.352,18.332 300.352,17.9805 C300.352,17.6289 300.302,17.3236 300.203,17.0645 C300.104,16.8053 299.961,16.6042 299.773,16.4609 C299.586,16.3177 299.358,16.2461 299.09,16.2461 C298.816,16.2461 298.586,16.3197 298.398,16.4668 C298.211,16.6139 298.069,16.8177 297.973,17.0781 C297.876,17.3385 297.828,17.6393 297.828,17.9805 C297.828,18.3268 297.877,18.6257 297.975,18.877 C298.072,19.1283 298.214,19.3223 298.4,19.459 C298.587,19.5957 298.816,19.6641 299.09,19.6641 M304.969,17.5313 L304.969,21 L303.305,21 L303.305,13 L304.922,13 L304.922,16.0586 L304.992,16.0586 C305.128,15.7044 305.346,15.4264 305.648,15.2246 C305.951,15.0228 306.329,14.9219 306.785,14.9219 C307.202,14.9219 307.566,15.0124 307.877,15.1934 C308.188,15.3743 308.43,15.6335 308.604,15.9707 C308.777,16.3079 308.862,16.7109 308.859,17.1797 L308.859,21 L307.195,21 L307.195,17.4766 C307.198,17.1068 307.105,16.819 306.916,16.6133 C306.727,16.4076 306.464,16.3047 306.125,16.3047 C305.898,16.3047 305.699,16.3529 305.525,16.4492 C305.352,16.5456 305.217,16.6855 305.119,16.8691 C305.021,17.0527 304.971,17.2734 304.969,17.5313 M313.355,15 L313.355,16.25 L309.742,16.25 L309.742,15 L313.355,15 M310.563,13.5625 L312.227,13.5625 L312.227,19.1563 C312.227,19.3099 312.25,19.429 312.297,19.5137 C312.344,19.5983 312.41,19.6576 312.494,19.6914 C312.579,19.7253 312.677,19.7422 312.789,19.7422 C312.867,19.7422 312.945,19.735 313.023,19.7207 C313.102,19.7064 313.161,19.6953 313.203,19.6875 L313.465,20.9258 C313.382,20.9518 313.264,20.9824 313.113,21.0176 C312.962,21.0527 312.779,21.0742 312.563,21.082 C312.161,21.0977 311.811,21.0443 311.51,20.9219 C311.209,20.7995 310.975,20.6094 310.809,20.3516 C310.642,20.0938 310.56,19.7682 310.563,19.375 L310.563,13.5625 M316.094,17.5313 L316.094,21 L314.43,21 L314.43,15 L316.016,15 L316.016,16.0586 L316.086,16.0586 C316.219,15.7096 316.441,15.4329 316.754,15.2285 C317.066,15.0241 317.445,14.9219 317.891,14.9219 C318.307,14.9219 318.671,15.013 318.98,15.1953 C319.29,15.3776 319.531,15.6374 319.703,15.9746 C319.875,16.3118 319.961,16.7135 319.961,17.1797 L319.961,21 L318.297,21 L318.297,17.4766 C318.299,17.1094 318.206,16.8223 318.016,16.6152 C317.826,16.4082 317.564,16.3047 317.23,16.3047 C317.007,16.3047 316.809,16.3529 316.639,16.4492 C316.468,16.5456 316.335,16.6855 316.24,16.8691 C316.145,17.0527 316.096,17.2734 316.094,17.5313 M323.992,21.1172 C323.375,21.1172 322.844,20.9915 322.4,20.7402 C321.956,20.4889 321.615,20.1322 321.375,19.6699 C321.135,19.2077 321.016,18.6602 321.016,18.0273 C321.016,17.4102 321.135,16.8685 321.375,16.4023 C321.615,15.9362 321.952,15.5729 322.389,15.3125 C322.825,15.0521 323.337,14.9219 323.926,14.9219 C324.322,14.9219 324.691,14.985 325.033,15.1113 C325.376,15.2376 325.675,15.4271 325.932,15.6797 C326.188,15.9323 326.388,16.2493 326.531,16.6309 C326.674,17.0124 326.746,17.4583 326.746,17.9688 L326.746,18.4258 L321.68,18.4258 L321.68,17.3945 L325.18,17.3945 C325.18,17.1549 325.128,16.9427 325.023,16.7578 C324.919,16.5729 324.775,16.4277 324.592,16.3223 C324.408,16.2168 324.195,16.1641 323.953,16.1641 C323.701,16.1641 323.477,16.222 323.283,16.3379 C323.089,16.4538 322.938,16.6087 322.828,16.8027 C322.719,16.9967 322.663,17.2122 322.66,17.4492 L322.66,18.4297 C322.66,18.7266 322.715,18.9831 322.826,19.1992 C322.937,19.4154 323.094,19.582 323.297,19.6992 C323.5,19.8164 323.741,19.875 324.02,19.875 C324.204,19.875 324.374,19.849 324.527,19.7969 C324.681,19.7448 324.813,19.6667 324.922,19.5625 C325.031,19.4583 325.115,19.3307 325.172,19.1797 L326.711,19.2813 C326.633,19.651 326.473,19.9733 326.232,20.248 C325.992,20.5228 325.682,20.7363 325.303,20.8887 C324.924,21.041 324.487,21.1172 323.992,21.1172 M332.813,16.7109 L331.289,16.8047 C331.263,16.6745 331.207,16.5566 331.121,16.4512 C331.035,16.3457 330.923,16.2611 330.783,16.1973 C330.644,16.1335 330.478,16.1016 330.285,16.1016 C330.027,16.1016 329.81,16.1556 329.633,16.2637 C329.456,16.3717 329.367,16.5156 329.367,16.6953 C329.367,16.8385 329.424,16.9596 329.539,17.0586 C329.654,17.1576 329.85,17.237 330.129,17.2969 L331.215,17.5156 C331.798,17.6354 332.233,17.8281 332.52,18.0938 C332.806,18.3594 332.949,18.7083 332.949,19.1406 C332.949,19.5339 332.834,19.8789 332.604,20.1758 C332.373,20.4727 332.058,20.7038 331.658,20.8691 C331.258,21.0345 330.798,21.1172 330.277,21.1172 C329.483,21.1172 328.851,20.9512 328.381,20.6191 C327.911,20.2871 327.635,19.8346 327.555,19.2617 L329.191,19.1758 C329.241,19.418 329.361,19.6022 329.551,19.7285 C329.741,19.8548 329.984,19.918 330.281,19.918 C330.573,19.918 330.808,19.8613 330.986,19.748 C331.165,19.6348 331.255,19.4883 331.258,19.3086 C331.255,19.1576 331.191,19.0332 331.066,18.9355 C330.941,18.8379 330.749,18.763 330.488,18.7109 L329.449,18.5039 C328.863,18.3867 328.428,18.1836 328.143,17.8945 C327.857,17.6055 327.715,17.237 327.715,16.7891 C327.715,16.4036 327.82,16.0716 328.029,15.793 C328.239,15.5143 328.535,15.2995 328.916,15.1484 C329.298,14.9974 329.745,14.9219 330.258,14.9219 C331.016,14.9219 331.613,15.082 332.049,15.4023 C332.485,15.7227 332.74,16.1589 332.813,16.7109 M338.984,16.7109 L337.461,16.8047 C337.435,16.6745 337.379,16.5566 337.293,16.4512 C337.207,16.3457 337.094,16.2611 336.955,16.1973 C336.816,16.1335 336.65,16.1016 336.457,16.1016 C336.199,16.1016 335.982,16.1556 335.805,16.2637 C335.628,16.3717 335.539,16.5156 335.539,16.6953 C335.539,16.8385 335.596,16.9596 335.711,17.0586 C335.826,17.1576 336.022,17.237 336.301,17.2969 L337.387,17.5156 C337.97,17.6354 338.405,17.8281 338.691,18.0938 C338.978,18.3594 339.121,18.7083 339.121,19.1406 C339.121,19.5339 339.006,19.8789 338.775,20.1758 C338.545,20.4727 338.23,20.7038 337.83,20.8691 C337.43,21.0345 336.97,21.1172 336.449,21.1172 C335.655,21.1172 335.023,20.9512 334.553,20.6191 C334.083,20.2871 333.807,19.8346 333.727,19.2617 L335.363,19.1758 C335.413,19.418 335.533,19.6022 335.723,19.7285 C335.913,19.8548 336.156,19.918 336.453,19.918 C336.745,19.918 336.98,19.8613 337.158,19.748 C337.337,19.6348 337.427,19.4883 337.43,19.3086 C337.427,19.1576 337.363,19.0332 337.238,18.9355 C337.113,18.8379 336.921,18.763 336.66,18.7109 L335.621,18.5039 C335.035,18.3867 334.6,18.1836 334.314,17.8945 C334.029,17.6055 333.887,17.237 333.887,16.7891 C333.887,16.4036 333.992,16.0716 334.201,15.793 C334.411,15.5143 334.706,15.2995 335.088,15.1484 C335.469,14.9974 335.917,14.9219 336.43,14.9219 C337.188,14.9219 337.785,15.082 338.221,15.4023 C338.657,15.7227 338.911,16.1589 338.984,16.7109 "/>
</g>

<g fill="#ffffff" fill-opacity="1" stroke="none" transform="matrix(0.228,-7.67731e-18,7.92758e-18,0.228,11.7918,12.0469)"
font-family="Inter" font-size="11" font-weight="700" font-style="normal" 
>
<path vector-effect="none" fill-rule="nonzero" d="M55.6962,3.31253 C52.8269,0.443215 48.03,0.619992 45.1607,3.4893 L23.7008,24.9492 L12.8344,14.0828 C11.6712,12.9196 9.79845,12.9196 8.63527,14.0828 C7.47208,15.246 7.47208,17.1187 8.63527,18.2819 L19.5017,29.1483 L17.2725,31.3776 C14.4032,34.2469 14.4032,38.8669 17.2725,41.7363 L38.1887,62.6525 C41.058,65.5218 45.6781,65.5218 48.5474,62.6525 L67.877,43.3229 L76.676,52.1219 C78.908,54.3539 82.502,54.3541 84.734,52.1221 L90.5632,46.2929 C92.7952,44.0609 92.795,40.4669 90.563,38.2349 L63.7763,11.4482 C58.8376,6.50951 72.3242,19.9405 55.6962,3.31253 "/>
</g>

<g fill="none" stroke="#000000" stroke-opacity="1" stroke-width="2.48707" stroke-linecap="round" stroke-linejoin="round" transform="matrix(0.228,-7.67731e-18,7.92758e-18,0.228,11.7918,12.0469)"
font-family="Inter" font-size="11" font-weight="700" font-style="normal" 
>
<path vector-effect="none" fill-rule="nonzero" d="M55.6962,3.31253 C52.8269,0.443215 48.03,0.619992 45.1607,3.4893 L23.7008,24.9492 L12.8344,14.0828 C11.6712,12.9196 9.79845,12.9196 8.63527,14.0828 C7.47208,15.246 7.47208,17.1187 8.63527,18.2819 L19.5017,29.1483 L17.2725,31.3776 C14.4032,34.2469 14.4032,38.8669 17.2725,41.7363 L38.1887,62.6525 C41.058,65.5218 45.6781,65.5218 48.5474,62.6525 L67.877,43.3229 L76.676,52.1219 C78.908,54.3539 82.502,54.3541 84.734,52.1221 L90.5632,46.2929 C92.7952,44.0609 92.795,40.4669 90.563,38.2349 L63.7763,11.4482 C58.8376,6.50951 72.3242,19.9405 55.6962,3.31253 "/>
</g>

<g fill="#ffffff" fill-opacity="1" stroke="none" transform="matrix(0.228,-7.67731e-18,7.92758e-18,0.228,11.7918,12.0469)"
font-family="Inter" font-size="11" font-weight="700" font-style="normal" 
>
<path vector-effect="none" fill-rule="nonzero" d="M55.6962,20.2936 C52.8269,17.4243 48.03,17.6011 45.1607,20.4704 L23.7008,41.9303 L12.8344,31.0639 C11.6712,29.9007 9.79845,29.9007 8.63527,31.0639 C7.47208,32.2271 7.47208,34.0999 8.63527,35.263 L19.5017,46.1294 L17.2725,48.3587 C14.4032,51.228 14.4032,55.8481 17.2725,58.7174 L34.4387,75.8836 C37.308,78.7529 41.9281,78.7529 44.7974,75.8836 L64.127,56.554 L76.676,69.103 C78.908,71.335 82.502,71.3352 84.734,69.1032 L90.5632,63.274 C92.7952,61.042 92.795,57.4481 90.563,55.216 L63.7763,28.4293 C58.8376,23.4906 72.3242,36.9216 55.6962,20.2936 "/>
</g>

<g fill="none" stroke="#000000" stroke-opacity="1" stroke-width="2.48707" stroke-linecap="round" stroke-linejoin="round" transform="matrix(0.228,-7.67731e-18,7.92758e-18,0.228,11.7918,12.0469)"
font-family="Inter" font-size="11" font-weight="700" font-style="normal" 
>
<path vector-effect="none" fill-rule="nonzero" d="M55.6962,20.2936 C52.8269,17.4243 48.03,17.6011 45.1607,20.4704 L23.7008,41.9303 L12.8344,31.0639 C11.6712,29.9007 9.79845,29.9007 8.63527,31.0639 C7.47208,32.2271 7.47208,34.0999 8.63527,35.263 L19.5017,46.1294 L17.2725,48.3587 C14.4032,51.228 14.4032,55.8481 17.2725,58.7174 L34.4387,75.8836 C37.308,78.7529 41.9281,78.7529 44.7974,75.8836 L64.127,56.554 L76.676,69.103 C78.908,71.335 82.502,71.3352 84.734,69.1032 L90.5632,63.274 C92.7952,61.042 92.795,57.4481 90.563,55.216 L63.7763,28.4293 C58.8376,23.4906 72.3242,36.9216 55.6962,20.2936 "/>
</g>

<g fill="#ffffff" fill-opacity="1" stroke="none" transform="matrix(0.16122,0.16122,-0.16122,0.16122,23.1918,5.38905)"
font-family="Inter" font-size="11" font-weight="700" font-style="normal" 
>
<path vector-effect="none" fill-rule="nonzero" d="M38.3937,72.5061 L54.0542,72.2967 C56.8301,72.2596 59.0645,70.0053 59.077,67.2292 L59.1686,46.8953 C59.1819,43.9458 61.5682,41.5573 64.5177,41.5413 L84.6595,41.432"/>
</g>

<g fill="none" stroke="#000000" stroke-opacity="1" stroke-width="3.576" stroke-linecap="round" stroke-linejoin="round" transform="matrix(0.16122,0.16122,-0.16122,0.16122,23.1918,5.38905)"
font-family="Inter" font-size="11" font-weight="700" font-style="normal" 
>
<path vector-effect="none" fill-rule="nonzero" d="M38.3937,72.5061 L54.0542,72.2967 C56.8301,72.2596 59.0645,70.0053 59.077,67.2292 L59.1686,46.8953 C59.1819,43.9458 61.5682,41.5573 64.5177,41.5413 L84.6595,41.432"/>
</g>

<g fill="#ffffff" fill-opacity="1" stroke="none" transform="matrix(1,0,0,1,0,0)"
font-family="Inter" font-size="11" font-weight="700" font-style="normal" 
>
</g>

<g fill="#ffffff" fill-opacity="1" stroke="#6c25f1" stroke-opacity="1" stroke-width="1" stroke-linecap="square" stroke-linejoin="bevel" transform="matrix(1,0,0,1,0,0)"
font-family="Inter" font-size="11" font-weight="700" font-style="normal" 
>
<polyline fill="none" vector-effect="none" points="45,11 45,31 " />
</g>

<g fill="#ffffff" fill-opacity="1" stroke="#6c25f1" stroke-opacity="1" stroke-width="1" stroke-linecap="square" stroke-linejoin="bevel" transform="matrix(1,0,0,1,0,0)"
font-family="Inter" font-size="11" font-weight="700" font-style="normal" 
>
</g>

<g fill="#ffffff" fill-opacity="1" stroke="#6c25f1" stroke-opacity="1" stroke-width="1" stroke-linecap="square" stroke-linejoin="bevel" transform="matrix(1,0,0,1,0,0)"
font-family="Inter" font-size="11" font-weight="700" font-style="normal" 
>
</g>

<g fill="#ffffff" fill-opacity="1" stroke="#6c25f1" stroke-opacity="1" stroke-width="1" stroke-linecap="square" stroke-linejoin="bevel" transform="matrix(1,0,0,1,0,0)"
font-family="Inter" font-size="11" font-weight="700" font-style="normal" 
>
</g>

<g fill="#6c25f1" fill-opacity="1" stroke="#6c25f1" stroke-opacity="1" stroke-width="1.2" stroke-linecap="square" stroke-linejoin="bevel" transform="matrix(1,0,0,1,135,6)"
font-family="Inter" font-size="11" font-weight="700" font-style="normal" 
>
<path vector-effect="none" fill-rule="evenodd" d="M0.5,12 C0.5,5.64873 5.87258,0.5 12.5,0.5 L27.5,0.5 C34.1274,0.5 39.5,5.64873 39.5,12 C39.5,18.3513 34.1274,23.5 27.5,23.5 L12.5,23.5 C5.87258,23.5 0.5,18.3513 0.5,12 "/>
</g>

<g fill="#ffffff" fill-opacity="1" stroke="none" transform="matrix(1,0,0,1,135,6)"
font-family="Inter" font-size="11" font-weight="700" font-style="normal" 
>
<path vector-effect="none" fill-rule="nonzero" d="M11.8242,16 L10.0117,16 L12.7734,8 L14.9531,8 L17.7109,16 L15.8984,16 L13.8945,9.82813 L13.832,9.82813 L11.8242,16 M11.7109,12.8555 L15.9922,12.8555 L15.9922,14.1758 L11.7109,14.1758 L11.7109,12.8555"/>
</g>

<g fill="#ffffff" fill-opacity="1" stroke="none" transform="matrix(0.03125,0,0,0.03125,161,14)"
font-family="Inter" font-size="11" font-weight="700" font-style="normal" 
>
<path vector-effect="none" fill-rule="nonzero" d="M111.326,191.938 C120.545,201.158 135.517,201.158 144.737,191.938 L239.144,97.5313 C245.929,90.7458 247.921,80.6413 244.233,71.7907 C240.545,62.9401 231.989,57.1871 222.401,57.1871 L33.5875,57.2608 C24.0731,57.2608 15.4437,63.0137 11.7559,71.8644 C8.06815,80.715 10.1333,90.8195 16.845,97.605 L111.252,192.012 L111.326,191.938"/>
</g>

<g fill="none" stroke="#000000" stroke-opacity="1" stroke-width="13.7195" stroke-linecap="butt" stroke-linejoin="miter" stroke-miterlimit="4" transform="matrix(0.03125,0,0,0.03125,161,14)"
font-family="Inter" font-size="11" font-weight="700" font-style="normal" 
>
<path vector-effect="none" fill-rule="nonzero" d="M111.326,191.938 C120.545,201.158 135.517,201.158 144.737,191.938 L239.144,97.5313 C245.929,90.7458 247.921,80.6413 244.233,71.7907 C240.545,62.9401 231.989,57.1871 222.401,57.1871 L33.5875,57.2608 C24.0731,57.2608 15.4437,63.0137 11.7559,71.8644 C8.06815,80.715 10.1333,90.8195 16.845,97.605 L111.252,192.012 L111.326,191.938"/>
</g>

<g fill="#ffffff" fill-opacity="1" stroke="none" transform="matrix(1,0,0,1,135,6)"
font-family="Inter" font-size="11" font-weight="700" font-style="normal" 
>
</g>

<g fill="#ffffff" fill-opacity="1" stroke="#6c25f1" stroke-opacity="1" stroke-width="1" stroke-linecap="square" stroke-linejoin="bevel" transform="matrix(1,0,0,1,0,0)"
font-family="Inter" font-size="11" font-weight="700" font-style="normal" 
>
</g>

<g fill="#ffffff" fill-opacity="1" stroke="#6c25f1" stroke-opacity="1" stroke-width="1" stroke-linecap="square" stroke-linejoin="bevel" transform="matrix(1,0,0,1,0,0)"
font-family="Inter" font-size="11" font-weight="700" font-style="normal" 
>
</g>

<g fill="#935df5" fill-opacity="1" stroke="#6c25f1" stroke-opacity="1" stroke-width="1.2" stroke-linecap="square" stroke-linejoin="bevel" transform="matrix(1,0,0,1,56,6)"
font-family="Inter" font-size="11" font-weight="700" font-style="normal" 
>
<path vector-effect="none" fill-rule="evenodd" d="M0.5,3.5 C0.5,1.84315 1.84315,0.5 3.5,0.5 L71.5,0.5 C73.1569,0.5 74.5,1.84315 74.5,3.5 L74.5,20.5 C74.5,22.1569 73.1569,23.5 71.5,23.5 L3.5,23.5 C1.84315,23.5 0.5,22.1569 0.5,20.5 L0.5,3.5"/>
</g>

<g fill="#ffffff" fill-opacity="1" stroke="none" transform="matrix(1,0,0,1,56,6)"
font-family="Inter" font-size="11" font-weight="700" font-style="normal" 
>
<path vector-effect="none" fill-rule="nonzero" d="M10,9.39453 L10,8 L16.5703,8 L16.5703,9.39453 L14.1211,9.39453 L14.1211,16 L12.4492,16 L12.4492,9.39453 L10,9.39453 M17.6484,16 L17.6484,8 L19.3398,8 L19.3398,11.3008 L22.7734,11.3008 L22.7734,8 L24.4609,8 L24.4609,16 L22.7734,16 L22.7734,12.6953 L19.3398,12.6953 L19.3398,16 L17.6484,16 M32.543,8 L32.543,16 L31.082,16 L27.6016,10.9648 L27.543,10.9648 L27.543,16 L25.8516,16 L25.8516,8 L27.3359,8 L30.7891,13.0313 L30.8594,13.0313 L30.8594,8 L32.543,8 M33.9297,16 L33.9297,8 L35.6211,8 L35.6211,11.3008 L39.0547,11.3008 L39.0547,8 L40.7422,8 L40.7422,16 L39.0547,16 L39.0547,12.6953 L35.6211,12.6953 L35.6211,16 L33.9297,16 M42.1328,16 L42.1328,8 L45.3359,8 C45.9245,8 46.4154,8.08724 46.8086,8.26172 C47.2018,8.4362 47.4974,8.67773 47.6953,8.98633 C47.8932,9.29492 47.9922,9.64974 47.9922,10.0508 C47.9922,10.3633 47.9297,10.6374 47.8047,10.873 C47.6797,11.1087 47.5085,11.3014 47.291,11.4512 C47.0736,11.6009 46.8255,11.707 46.5469,11.7695 L46.5469,11.8477 C46.8516,11.8607 47.1374,11.9466 47.4043,12.1055 C47.6712,12.2643 47.888,12.4863 48.0547,12.7715 C48.2214,13.0566 48.3047,13.3958 48.3047,13.7891 C48.3047,14.2135 48.1999,14.5918 47.9902,14.9238 C47.7806,15.2559 47.4714,15.5182 47.0625,15.7109 C46.6536,15.9036 46.1497,16 45.5508,16 L42.1328,16 M43.8242,14.6172 L45.2031,14.6172 C45.6745,14.6172 46.0182,14.5267 46.2344,14.3457 C46.4505,14.1647 46.5586,13.9232 46.5586,13.6211 C46.5586,13.3997 46.5052,13.2044 46.3984,13.0352 C46.2917,12.8659 46.14,12.7331 45.9434,12.6367 C45.7467,12.5404 45.513,12.4922 45.2422,12.4922 L43.8242,12.4922 L43.8242,14.6172 M43.8242,11.3477 L45.0781,11.3477 C45.3099,11.3477 45.5163,11.3066 45.6973,11.2246 C45.8783,11.1426 46.0215,11.026 46.127,10.875 C46.2324,10.724 46.2852,10.543 46.2852,10.332 C46.2852,10.043 46.1829,9.8099 45.9785,9.63281 C45.7741,9.45573 45.4844,9.36719 45.1094,9.36719 L43.8242,9.36719 L43.8242,11.3477 M52.832,8 L52.832,16 L51.1406,16 L51.1406,9.60547 L51.0938,9.60547 L49.2617,10.7539 L49.2617,9.25391 L51.2422,8 L52.832,8"/>
</g>

<g fill="#ffffff" fill-opacity="1" stroke="none" transform="matrix(0.03125,0,0,0.03125,117,14)"
font-family="Inter" font-size="11" font-weight="700" font-style="normal" 
>
<path vector-effect="none" fill-rule="nonzero" d="M111.326,191.938 C120.545,201.158 135.517,201.158 144.737,191.938 L239.144,97.5313 C245.929,90.7458 247.921,80.6413 244.233,71.7907 C240.545,62.9401 231.989,57.1871 222.401,57.1871 L33.5875,57.2608 C24.0731,57.2608 15.4437,63.0137 11.7559,71.8644 C8.06815,80.715 10.1333,90.8195 16.845,97.605 L111.252,192.012 L111.326,191.938"/>
</g>

<g fill="none" stroke="#000000" stroke-opacity="1" stroke-width="13.7195" stroke-linecap="butt" stroke-linejoin="miter" stroke-miterlimit="4" transform="matrix(0.03125,0,0,0.03125,117,14)"
font-family="Inter" font-size="11" font-weight="700" font-style="normal" 
>
<path vector-effect="none" fill-rule="nonzero" d="M111.326,191.938 C120.545,201.158 135.517,201.158 144.737,191.938 L239.144,97.5313 C245.929,90.7458 247.921,80.6413 244.233,71.7907 C240.545,62.9401 231.989,57.1871 222.401,57.1871 L33.5875,57.2608 C24.0731,57.2608 15.4437,63.0137 11.7559,71.8644 C8.06815,80.715 10.1333,90.8195 16.845,97.605 L111.252,192.012 L111.326,191.938"/>
</g>

<g fill="#ffffff" fill-opacity="1" stroke="none" transform="matrix(1,0,0,1,56,6)"
font-family="Inter" font-size="11" font-weight="700" font-style="normal" 
>
</g>

<g fill="#ffffff" fill-opacity="1" stroke="#6c25f1" stroke-opacity="1" stroke-width="1" stroke-linecap="square" stroke-linejoin="bevel" transform="matrix(1,0,0,1,0,0)"
font-family="Inter" font-size="11" font-weight="700" font-style="normal" 
>
</g>

<g fill="#ffffff" fill-opacity="1" stroke="#6012f0" stroke-opacity="1" stroke-width="1.2" stroke-linecap="square" stroke-linejoin="bevel" transform="matrix(1,0,0,1,238,7)"
font-family="Inter" font-size="11" font-weight="700" font-style="normal" 
>
<path vector-effect="none" fill-rule="evenodd" d="M1,11 C1,5.47715 5.92487,1 12,1 L14.4,1 C20.4751,1 25.4,5.47715 25.4,11 C25.4,16.5228 20.4751,21 14.4,21 L12,21 C5.92487,21 1,16.5228 1,11 "/>
</g>

<g fill="#000000" fill-opacity="1" stroke="none" transform="matrix(1,0,0,1,238,7)"
font-family="Inter" font-size="10" font-weight="700" font-style="normal" 
>
<path vector-effect="none" fill-rule="nonzero" d="M12.9411,14.5817 C12.3303,14.5793 11.8053,14.429 11.3661,14.1307 C10.927,13.8324 10.5896,13.4003 10.354,12.8345 C10.1185,12.2687 10.0019,11.5881 10.0043,10.7926 C10.0043,9.99953 10.122,9.32363 10.3576,8.76491 C10.5932,8.2062 10.9305,7.78066 11.3697,7.48828 C11.8088,7.1959 12.3326,7.04972 12.9411,7.04972 C13.5495,7.04972 14.0733,7.1965 14.5124,7.49006 C14.9516,7.78362 15.2895,8.20916 15.5263,8.76669 C15.763,9.32422 15.8802,9.99953 15.8778,10.7926 C15.8778,11.5904 15.7601,12.2723 15.5245,12.8381 C15.2889,13.4039 14.9522,13.8359 14.5142,14.1342 C14.0762,14.4325 13.5518,14.5817 12.9411,14.5817 M12.9411,13.3068 C13.3577,13.3068 13.6903,13.0973 13.9389,12.6783 C14.1875,12.2592 14.3106,11.6307 14.3082,10.7926 C14.3082,10.241 14.252,9.78172 14.1396,9.41477 C14.0271,9.04782 13.8685,8.77202 13.6637,8.58736 C13.4589,8.4027 13.218,8.31037 12.9411,8.31037 C12.5268,8.31037 12.1953,8.51752 11.9467,8.93182 C11.6982,9.34612 11.5727,9.96638 11.5703,10.7926 C11.5703,11.3513 11.6265,11.8171 11.739,12.19 C11.8514,12.5629 12.0107,12.8422 12.2166,13.0281 C12.4226,13.2139 12.6641,13.3068 12.9411,13.3068 "/>
</g>

<g fill="#ffffff" fill-opacity="1" stroke="#6c25f1" stroke-opacity="1" stroke-width="1" stroke-linecap="square" stroke-linejoin="bevel" transform="matrix(1,0,0,1,0,0)"
font-family="Inter" font-size="11" font-weight="700" font-style="normal" 
>
</g>

<g fill="none" stroke="#000000" stroke-opacity="1" stroke-width="1" stroke-linecap="square" stroke-linejoin="bevel" transform="matrix(1,0,0,1,0,0)"
font-family=".AppleSystemUIFont" font-size="13" font-weight="400" font-style="normal" 
>
</g>
</g>
</svg>
