<?xml version="1.0" encoding="UTF-8" standalone="no"?>
<svg width="100.542mm" height="11.2889mm"
 viewBox="0 0 285 32"
 xmlns="http://www.w3.org/2000/svg" xmlns:xlink="http://www.w3.org/1999/xlink" version="1.2" baseProfile="tiny">
<title>Abstract block</title>
<desc>block_hubs_all_sensors_port_technic_sensor_ambient_light</desc>
<defs>
</defs>
<g fill="none" stroke="black" stroke-width="1" fill-rule="evenodd" stroke-linecap="square" stroke-linejoin="bevel" >

<g fill="none" stroke="#000000" stroke-opacity="1" stroke-width="1" stroke-linecap="square" stroke-linejoin="bevel" transform="matrix(1,0,0,1,0,0)"
font-family=".AppleSystemUIFont" font-size="13" font-weight="400" font-style="normal" 
>
</g>

<g fill="none" stroke="#000000" stroke-opacity="1" stroke-width="1" stroke-linecap="square" stroke-linejoin="bevel" transform="matrix(1,0,0,1,0,0)"
font-family=".AppleSystemUIFont" font-size="13" font-weight="400" font-style="normal" 
>
</g>

<g fill="#1dccf0" fill-opacity="1" stroke="#0da6c5" stroke-opacity="1" stroke-width="1.2" stroke-linecap="square" stroke-linejoin="bevel" transform="matrix(1,0,0,1,0,0)"
font-family=".AppleSystemUIFont" font-size="13" font-weight="400" font-style="normal" 
>
<path vector-effect="none" fill-rule="evenodd" d="M1,16 C1,7.71573 8.16344,1 17,1 L267.667,1 C276.503,1 283.667,7.71573 283.667,16 C283.667,24.2843 276.503,31 267.667,31 L17,31 C8.16344,31 1,24.2843 1,16 "/>
</g>

<g fill="#ffffff" fill-opacity="1" stroke="none" transform="matrix(1,0,0,1,0,0)"
font-family="Inter" font-size="11" font-weight="700" font-style="normal" 
>
<path vector-effect="none" fill-rule="nonzero" d="M183.109,19.3633 C182.727,19.3633 182.385,19.2962 182.086,19.1621 C181.786,19.028 181.55,18.8288 181.377,18.5645 C181.204,18.3001 181.117,17.9701 181.117,17.5742 C181.117,17.2409 181.178,16.9609 181.301,16.7344 C181.423,16.5078 181.59,16.3255 181.801,16.1875 C182.012,16.0495 182.252,15.9453 182.521,15.875 C182.791,15.8047 183.074,15.7552 183.371,15.7266 C183.72,15.6901 184.001,15.6556 184.215,15.623 C184.428,15.5905 184.583,15.5417 184.68,15.4766 C184.776,15.4115 184.824,15.3151 184.824,15.1875 L184.824,15.1641 C184.824,14.9167 184.747,14.7253 184.592,14.5898 C184.437,14.4544 184.217,14.3867 183.934,14.3867 C183.634,14.3867 183.396,14.4525 183.219,14.584 C183.042,14.7155 182.924,14.8802 182.867,15.0781 L181.328,14.9531 C181.406,14.5885 181.56,14.2728 181.789,14.0059 C182.018,13.7389 182.314,13.5332 182.678,13.3887 C183.041,13.2441 183.462,13.1719 183.941,13.1719 C184.275,13.1719 184.594,13.2109 184.9,13.2891 C185.206,13.3672 185.479,13.4883 185.717,13.6523 C185.955,13.8164 186.143,14.0267 186.281,14.2832 C186.419,14.5397 186.488,14.8464 186.488,15.2031 L186.488,19.25 L184.91,19.25 L184.91,18.418 L184.863,18.418 C184.767,18.6055 184.638,18.7702 184.477,18.9121 C184.315,19.054 184.121,19.1647 183.895,19.2441 C183.668,19.3236 183.406,19.3633 183.109,19.3633 M183.586,18.2148 C183.831,18.2148 184.047,18.166 184.234,18.0684 C184.422,17.9707 184.569,17.8385 184.676,17.6719 C184.783,17.5052 184.836,17.3164 184.836,17.1055 L184.836,16.4688 C184.784,16.5026 184.713,16.5332 184.623,16.5605 C184.533,16.5879 184.432,16.6126 184.32,16.6348 C184.208,16.6569 184.096,16.6764 183.984,16.6934 C183.872,16.7103 183.771,16.7253 183.68,16.7383 C183.484,16.7669 183.314,16.8125 183.168,16.875 C183.022,16.9375 182.909,17.0215 182.828,17.127 C182.747,17.2324 182.707,17.3633 182.707,17.5195 C182.707,17.7461 182.79,17.9186 182.955,18.0371 C183.12,18.1556 183.331,18.2148 183.586,18.2148 M187.773,19.25 L187.773,13.25 L189.359,13.25 L189.359,14.3086 L189.43,14.3086 C189.555,13.957 189.763,13.6797 190.055,13.4766 C190.346,13.2734 190.695,13.1719 191.102,13.1719 C191.513,13.1719 191.863,13.2741 192.152,13.4785 C192.441,13.6829 192.634,13.9596 192.73,14.3086 L192.793,14.3086 C192.915,13.9648 193.137,13.6895 193.459,13.4824 C193.781,13.2754 194.161,13.1719 194.602,13.1719 C195.161,13.1719 195.617,13.3496 195.967,13.7051 C196.317,14.0605 196.492,14.5638 196.492,15.2148 L196.492,19.25 L194.832,19.25 L194.832,15.543 C194.832,15.2096 194.743,14.9596 194.566,14.793 C194.389,14.6263 194.168,14.543 193.902,14.543 C193.6,14.543 193.365,14.6387 193.195,14.8301 C193.026,15.0215 192.941,15.2734 192.941,15.5859 L192.941,19.25 L191.328,19.25 L191.328,15.5078 C191.328,15.2135 191.244,14.9792 191.076,14.8047 C190.908,14.6302 190.688,14.543 190.414,14.543 C190.229,14.543 190.063,14.5892 189.916,14.6816 C189.769,14.7741 189.652,14.903 189.566,15.0684 C189.48,15.2337 189.438,15.4271 189.438,15.6484 L189.438,19.25 L187.773,19.25 M197.836,19.25 L197.836,11.25 L199.5,11.25 L199.5,14.2578 L199.551,14.2578 C199.624,14.0964 199.73,13.9316 199.869,13.7637 C200.008,13.5957 200.191,13.4551 200.416,13.3418 C200.641,13.2285 200.922,13.1719 201.258,13.1719 C201.695,13.1719 202.099,13.2858 202.469,13.5137 C202.839,13.7415 203.134,14.084 203.355,14.541 C203.577,14.998 203.688,15.5703 203.688,16.2578 C203.688,16.9271 203.58,17.4915 203.365,17.9512 C203.15,18.4108 202.859,18.7585 202.49,18.9941 C202.122,19.2298 201.71,19.3477 201.254,19.3477 C200.931,19.3477 200.657,19.2943 200.432,19.1875 C200.206,19.0807 200.022,18.946 199.879,18.7832 C199.736,18.6204 199.626,18.4557 199.551,18.2891 L199.477,18.2891 L199.477,19.25 L197.836,19.25 M199.465,16.25 C199.465,16.6068 199.514,16.918 199.613,17.1836 C199.712,17.4492 199.855,17.6556 200.043,17.8027 C200.23,17.9499 200.458,18.0234 200.727,18.0234 C200.997,18.0234 201.227,17.9486 201.414,17.7988 C201.602,17.6491 201.744,17.4408 201.842,17.1738 C201.939,16.9069 201.988,16.599 201.988,16.25 C201.988,15.9036 201.94,15.599 201.844,15.3359 C201.747,15.0729 201.605,14.8672 201.418,14.7188 C201.23,14.5703 201,14.4961 200.727,14.4961 C200.456,14.4961 200.227,14.5677 200.041,14.7109 C199.855,14.8542 199.712,15.0573 199.613,15.3203 C199.514,15.5833 199.465,15.8932 199.465,16.25 M204.789,19.25 L204.789,13.25 L206.453,13.25 L206.453,19.25 L204.789,19.25 M205.625,12.4766 C205.378,12.4766 205.166,12.3939 204.99,12.2285 C204.814,12.0632 204.727,11.8646 204.727,11.6328 C204.727,11.4036 204.814,11.2064 204.99,11.041 C205.166,10.8757 205.378,10.793 205.625,10.793 C205.872,10.793 206.084,10.8757 206.26,11.041 C206.436,11.2064 206.523,11.4036 206.523,11.6328 C206.523,11.8646 206.436,12.0632 206.26,12.2285 C206.084,12.3939 205.872,12.4766 205.625,12.4766 M210.508,19.3672 C209.891,19.3672 209.36,19.2415 208.916,18.9902 C208.472,18.7389 208.13,18.3822 207.891,17.9199 C207.651,17.4577 207.531,16.9102 207.531,16.2773 C207.531,15.6602 207.651,15.1185 207.891,14.6523 C208.13,14.1862 208.468,13.8229 208.904,13.5625 C209.34,13.3021 209.853,13.1719 210.441,13.1719 C210.837,13.1719 211.206,13.235 211.549,13.3613 C211.891,13.4876 212.191,13.6771 212.447,13.9297 C212.704,14.1823 212.904,14.4993 213.047,14.8809 C213.19,15.2624 213.262,15.7083 213.262,16.2188 L213.262,16.6758 L208.195,16.6758 L208.195,15.6445 L211.695,15.6445 C211.695,15.4049 211.643,15.1927 211.539,15.0078 C211.435,14.8229 211.291,14.6777 211.107,14.5723 C210.924,14.4668 210.711,14.4141 210.469,14.4141 C210.216,14.4141 209.993,14.472 209.799,14.5879 C209.605,14.7038 209.453,14.8587 209.344,15.0527 C209.234,15.2467 209.178,15.4622 209.176,15.6992 L209.176,16.6797 C209.176,16.9766 209.231,17.2331 209.342,17.4492 C209.452,17.6654 209.609,17.832 209.813,17.9492 C210.016,18.0664 210.257,18.125 210.535,18.125 C210.72,18.125 210.889,18.099 211.043,18.0469 C211.197,17.9948 211.328,17.9167 211.438,17.8125 C211.547,17.7083 211.63,17.5807 211.688,17.4297 L213.227,17.5313 C213.148,17.901 212.989,18.2233 212.748,18.498 C212.507,18.7728 212.197,18.9863 211.818,19.1387 C211.439,19.291 211.003,19.3672 210.508,19.3672 M216,15.7813 L216,19.25 L214.336,19.25 L214.336,13.25 L215.922,13.25 L215.922,14.3086 L215.992,14.3086 C216.125,13.9596 216.348,13.6829 216.66,13.4785 C216.973,13.2741 217.352,13.1719 217.797,13.1719 C218.214,13.1719 218.577,13.263 218.887,13.4453 C219.197,13.6276 219.438,13.8874 219.609,14.2246 C219.781,14.5618 219.867,14.9635 219.867,15.4297 L219.867,19.25 L218.203,19.25 L218.203,15.7266 C218.206,15.3594 218.112,15.0723 217.922,14.8652 C217.732,14.6582 217.47,14.5547 217.137,14.5547 C216.913,14.5547 216.715,14.6029 216.545,14.6992 C216.374,14.7956 216.242,14.9355 216.146,15.1191 C216.051,15.3027 216.003,15.5234 216,15.7813 M224.355,13.25 L224.355,14.5 L220.742,14.5 L220.742,13.25 L224.355,13.25 M221.563,11.8125 L223.227,11.8125 L223.227,17.4063 C223.227,17.5599 223.25,17.679 223.297,17.7637 C223.344,17.8483 223.41,17.9076 223.494,17.9414 C223.579,17.9753 223.677,17.9922 223.789,17.9922 C223.867,17.9922 223.945,17.985 224.023,17.9707 C224.102,17.9564 224.161,17.9453 224.203,17.9375 L224.465,19.1758 C224.382,19.2018 224.264,19.2324 224.113,19.2676 C223.962,19.3027 223.779,19.3242 223.563,19.332 C223.161,19.3477 222.811,19.2943 222.51,19.1719 C222.209,19.0495 221.975,18.8594 221.809,18.6016 C221.642,18.3438 221.56,18.0182 221.563,17.625 L221.563,11.8125 M229.641,11.25 L229.641,19.25 L227.977,19.25 L227.977,11.25 L229.641,11.25 M230.961,19.25 L230.961,13.25 L232.625,13.25 L232.625,19.25 L230.961,19.25 M231.797,12.4766 C231.549,12.4766 231.338,12.3939 231.162,12.2285 C230.986,12.0632 230.898,11.8646 230.898,11.6328 C230.898,11.4036 230.986,11.2064 231.162,11.041 C231.338,10.8757 231.549,10.793 231.797,10.793 C232.044,10.793 232.256,10.8757 232.432,11.041 C232.607,11.2064 232.695,11.4036 232.695,11.6328 C232.695,11.8646 232.607,12.0632 232.432,12.2285 C232.256,12.3939 232.044,12.4766 231.797,12.4766 M236.648,21.625 C236.109,21.625 235.648,21.5514 235.264,21.4043 C234.88,21.2572 234.574,21.0573 234.348,20.8047 C234.121,20.5521 233.974,20.2682 233.906,19.9531 L235.445,19.7461 C235.492,19.8659 235.566,19.9779 235.668,20.082 C235.77,20.1862 235.904,20.2702 236.072,20.334 C236.24,20.3978 236.445,20.4297 236.688,20.4297 C237.049,20.4297 237.348,20.3418 237.584,20.166 C237.82,19.9902 237.938,19.6966 237.938,19.2852 L237.938,18.1875 L237.867,18.1875 C237.794,18.3542 237.685,18.5117 237.539,18.6602 C237.393,18.8086 237.206,18.9297 236.977,19.0234 C236.747,19.1172 236.474,19.1641 236.156,19.1641 C235.706,19.1641 235.296,19.0592 234.928,18.8496 C234.559,18.64 234.266,18.3184 234.049,17.8848 C233.831,17.4512 233.723,16.9023 233.723,16.2383 C233.723,15.5586 233.833,14.9909 234.055,14.5352 C234.276,14.0794 234.571,13.7383 234.939,13.5117 C235.308,13.2852 235.712,13.1719 236.152,13.1719 C236.488,13.1719 236.77,13.2285 236.996,13.3418 C237.223,13.4551 237.406,13.5957 237.545,13.7637 C237.684,13.9316 237.792,14.0964 237.867,14.2578 L237.93,14.2578 L237.93,13.25 L239.582,13.25 L239.582,19.3086 C239.582,19.819 239.457,20.2461 239.207,20.5898 C238.957,20.9336 238.611,21.1921 238.17,21.3652 C237.729,21.5384 237.221,21.625 236.648,21.625 M236.684,17.9141 C236.952,17.9141 237.179,17.847 237.365,17.7129 C237.551,17.5788 237.695,17.3861 237.795,17.1348 C237.895,16.8835 237.945,16.582 237.945,16.2305 C237.945,15.8789 237.896,15.5736 237.797,15.3145 C237.698,15.0553 237.555,14.8542 237.367,14.7109 C237.18,14.5677 236.952,14.4961 236.684,14.4961 C236.41,14.4961 236.18,14.5697 235.992,14.7168 C235.805,14.8639 235.663,15.0677 235.566,15.3281 C235.47,15.5885 235.422,15.8893 235.422,16.2305 C235.422,16.5768 235.471,16.8757 235.568,17.127 C235.666,17.3783 235.808,17.5723 235.994,17.709 C236.18,17.8457 236.41,17.9141 236.684,17.9141 M242.563,15.7813 L242.563,19.25 L240.898,19.25 L240.898,11.25 L242.516,11.25 L242.516,14.3086 L242.586,14.3086 C242.721,13.9544 242.94,13.6764 243.242,13.4746 C243.544,13.2728 243.923,13.1719 244.379,13.1719 C244.796,13.1719 245.16,13.2624 245.471,13.4434 C245.782,13.6243 246.024,13.8835 246.197,14.2207 C246.37,14.5579 246.456,14.9609 246.453,15.4297 L246.453,19.25 L244.789,19.25 L244.789,15.7266 C244.792,15.3568 244.699,15.069 244.51,14.8633 C244.321,14.6576 244.057,14.5547 243.719,14.5547 C243.492,14.5547 243.292,14.6029 243.119,14.6992 C242.946,14.7956 242.811,14.9355 242.713,15.1191 C242.615,15.3027 242.565,15.5234 242.563,15.7813 M250.949,13.25 L250.949,14.5 L247.336,14.5 L247.336,13.25 L250.949,13.25 M248.156,11.8125 L249.82,11.8125 L249.82,17.4063 C249.82,17.5599 249.844,17.679 249.891,17.7637 C249.938,17.8483 250.003,17.9076 250.088,17.9414 C250.173,17.9753 250.271,17.9922 250.383,17.9922 C250.461,17.9922 250.539,17.985 250.617,17.9707 C250.695,17.9564 250.755,17.9453 250.797,17.9375 L251.059,19.1758 C250.975,19.2018 250.858,19.2324 250.707,19.2676 C250.556,19.3027 250.372,19.3242 250.156,19.332 C249.755,19.3477 249.404,19.2943 249.104,19.1719 C248.803,19.0495 248.569,18.8594 248.402,18.6016 C248.236,18.3438 248.154,18.0182 248.156,17.625 L248.156,11.8125 M254.938,15.25 C254.938,14.2813 255.067,13.3893 255.326,12.5742 C255.585,11.7591 255.982,11.0039 256.516,10.3086 L258.105,10.3086 C257.902,10.5664 257.714,10.8809 257.539,11.252 C257.365,11.623 257.212,12.0299 257.082,12.4727 C256.952,12.9154 256.85,13.373 256.777,13.8457 C256.704,14.3184 256.668,14.7865 256.668,15.25 C256.668,15.8672 256.731,16.4902 256.857,17.1191 C256.984,17.748 257.156,18.332 257.373,18.8711 C257.59,19.4102 257.835,19.8516 258.105,20.1953 L256.516,20.1953 C255.982,19.5 255.585,18.7448 255.326,17.9297 C255.067,17.1146 254.938,16.2214 254.938,15.25 M263.434,17.75 L263.434,17.3281 C263.434,17.0078 263.502,16.7129 263.639,16.4434 C263.775,16.1738 263.975,15.9577 264.236,15.7949 C264.498,15.6322 264.818,15.5508 265.195,15.5508 C265.578,15.5508 265.9,15.6315 266.162,15.793 C266.424,15.9544 266.622,16.1699 266.756,16.4395 C266.89,16.709 266.957,17.0052 266.957,17.3281 L266.957,17.75 C266.957,18.0703 266.889,18.3652 266.754,18.6348 C266.618,18.9043 266.419,19.1204 266.156,19.2832 C265.893,19.446 265.573,19.5273 265.195,19.5273 C264.813,19.5273 264.491,19.446 264.23,19.2832 C263.97,19.1204 263.772,18.9043 263.637,18.6348 C263.501,18.3652 263.434,18.0703 263.434,17.75 M264.57,17.3281 L264.57,17.75 C264.57,17.9349 264.615,18.1094 264.705,18.2734 C264.795,18.4375 264.958,18.5195 265.195,18.5195 C265.432,18.5195 265.594,18.4388 265.682,18.2773 C265.769,18.1159 265.813,17.9401 265.813,17.75 L265.813,17.3281 C265.813,17.138 265.771,16.9609 265.688,16.7969 C265.604,16.6328 265.44,16.5508 265.195,16.5508 C264.961,16.5508 264.798,16.6328 264.707,16.7969 C264.616,16.9609 264.57,17.138 264.57,17.3281 M259.328,13.1719 L259.328,12.75 C259.328,12.4271 259.397,12.1309 259.535,11.8613 C259.673,11.5918 259.873,11.3763 260.135,11.2148 C260.396,11.0534 260.714,10.9727 261.086,10.9727 C261.471,10.9727 261.794,11.0534 262.055,11.2148 C262.315,11.3763 262.513,11.5918 262.648,11.8613 C262.784,12.1309 262.852,12.4271 262.852,12.75 L262.852,13.1719 C262.852,13.4948 262.783,13.7904 262.646,14.0586 C262.51,14.3268 262.311,14.541 262.049,14.7012 C261.787,14.8613 261.466,14.9414 261.086,14.9414 C260.706,14.9414 260.385,14.86 260.123,14.6973 C259.861,14.5345 259.663,14.3197 259.529,14.0527 C259.395,13.7858 259.328,13.4922 259.328,13.1719 M260.473,12.75 L260.473,13.1719 C260.473,13.362 260.518,13.5378 260.607,13.6992 C260.697,13.8607 260.857,13.9414 261.086,13.9414 C261.326,13.9414 261.489,13.8607 261.576,13.6992 C261.663,13.5378 261.707,13.362 261.707,13.1719 L261.707,12.75 C261.707,12.5599 261.665,12.3828 261.582,12.2188 C261.499,12.0547 261.333,11.9727 261.086,11.9727 C260.854,11.9727 260.694,12.056 260.605,12.2227 C260.517,12.3893 260.473,12.5651 260.473,12.75 M259.844,19.25 L265.344,11.25 L266.367,11.25 L260.867,19.25 L259.844,19.25 M271.328,15.25 C271.328,16.2214 271.199,17.1146 270.939,17.9297 C270.68,18.7448 270.284,19.5 269.75,20.1953 L268.16,20.1953 C268.363,19.9375 268.552,19.6224 268.727,19.25 C268.901,18.8776 269.053,18.4707 269.184,18.0293 C269.314,17.5879 269.415,17.1302 269.488,16.6563 C269.561,16.1823 269.598,15.7135 269.598,15.25 C269.598,14.6328 269.535,14.0098 269.408,13.3809 C269.282,12.752 269.11,12.1686 268.893,11.6309 C268.675,11.0931 268.431,10.6523 268.16,10.3086 L269.75,10.3086 C270.284,11.0039 270.68,11.7591 270.939,12.5742 C271.199,13.3893 271.328,14.2813 271.328,15.25 "/>
</g>

<g fill="#ffffff" fill-opacity="1" stroke="none" transform="matrix(0.0285,0,0,0.0285,11.2928,4.44754)"
font-family="Inter" font-size="11" font-weight="700" font-style="normal" 
>
<path vector-effect="none" fill-rule="nonzero" d="M97.5863,60.6191 C80.1143,60.6191 66.0472,74.6862 66.0472,92.1582 L66.0472,718.541 C66.0472,736.013 80.1143,750.08 97.5863,750.08 L723.969,750.08 C741.441,750.08 755.508,736.013 755.508,718.541 L755.508,92.1582 C755.508,74.6862 741.441,60.6191 723.969,60.6191 L97.5863,60.6191 M410.733,204.078 C521.886,204.053 612.016,294.136 612.049,405.289 L612.049,405.35 C612.05,516.503 521.947,606.613 410.793,606.621 C299.639,606.63 209.522,516.533 209.506,405.379 C209.49,294.226 299.58,204.102 410.733,204.078 "/>
</g>

<g fill="none" stroke="#000000" stroke-opacity="1" stroke-width="20" stroke-linecap="round" stroke-linejoin="round" transform="matrix(0.0285,0,0,0.0285,11.2928,4.44754)"
font-family="Inter" font-size="11" font-weight="700" font-style="normal" 
>
<path vector-effect="none" fill-rule="nonzero" d="M97.5863,60.6191 C80.1143,60.6191 66.0472,74.6862 66.0472,92.1582 L66.0472,718.541 C66.0472,736.013 80.1143,750.08 97.5863,750.08 L723.969,750.08 C741.441,750.08 755.508,736.013 755.508,718.541 L755.508,92.1582 C755.508,74.6862 741.441,60.6191 723.969,60.6191 L97.5863,60.6191 M410.733,204.078 C521.886,204.053 612.016,294.136 612.049,405.289 L612.049,405.35 C612.05,516.503 521.947,606.613 410.793,606.621 C299.639,606.63 209.522,516.533 209.506,405.379 C209.49,294.226 299.58,204.102 410.733,204.078 "/>
</g>

<g fill="#000000" fill-opacity="1" stroke="none" transform="matrix(0.0285,0,0,0.0285,11.2928,4.44754)"
font-family="Inter" font-size="11" font-weight="700" font-style="normal" 
>
<path vector-effect="none" fill-rule="nonzero" d="M234.666,164.596 C198.854,164.596 170.024,193.426 170.024,229.238 L170.024,581.461 C170.024,617.273 198.854,646.104 234.666,646.104 L586.889,646.104 C622.701,646.104 651.532,617.273 651.532,581.461 L651.532,229.238 C651.532,193.426 622.701,164.596 586.889,164.596 L234.666,164.596 M410.733,204.078 C521.886,204.053 612.016,294.136 612.049,405.289 L612.049,405.35 C612.05,516.503 521.947,606.613 410.793,606.621 C299.639,606.63 209.522,516.533 209.506,405.379 C209.49,294.226 299.58,204.102 410.733,204.078 "/>
</g>

<g fill="none" stroke="#000000" stroke-opacity="1" stroke-width="16.3975" stroke-linecap="round" stroke-linejoin="round" transform="matrix(0.0285,0,0,0.0285,11.2928,4.44754)"
font-family="Inter" font-size="11" font-weight="700" font-style="normal" 
>
<path vector-effect="none" fill-rule="nonzero" d="M234.666,164.596 C198.854,164.596 170.024,193.426 170.024,229.238 L170.024,581.461 C170.024,617.273 198.854,646.104 234.666,646.104 L586.889,646.104 C622.701,646.104 651.532,617.273 651.532,581.461 L651.532,229.238 C651.532,193.426 622.701,164.596 586.889,164.596 L234.666,164.596 M410.733,204.078 C521.886,204.053 612.016,294.136 612.049,405.289 L612.049,405.35 C612.05,516.503 521.947,606.613 410.793,606.621 C299.639,606.63 209.522,516.533 209.506,405.379 C209.49,294.226 299.58,204.102 410.733,204.078 "/>
</g>

<g fill="none" stroke="#000000" stroke-opacity="1" stroke-width="23.8667" stroke-linecap="round" stroke-linejoin="round" transform="matrix(0.0285,0,0,0.0285,11.2928,4.44754)"
font-family="Inter" font-size="11" font-weight="700" font-style="normal" 
>
<path vector-effect="none" fill-rule="nonzero" d="M528.568,405.35 C528.568,470.4 475.837,523.135 410.787,523.14 C345.736,523.145 292.997,470.418 292.987,405.367 C292.978,340.317 345.701,287.574 410.751,287.559 C475.802,287.545 528.549,340.264 528.568,405.314 "/>
</g>

<g fill="#ffffff" fill-opacity="1" stroke="none" transform="matrix(1,0,0,1,0,0)"
font-family="Inter" font-size="11" font-weight="700" font-style="normal" 
>
</g>

<g fill="#ffffff" fill-opacity="1" stroke="#0da6c5" stroke-opacity="1" stroke-width="1" stroke-linecap="square" stroke-linejoin="bevel" transform="matrix(1,0,0,1,0,0)"
font-family="Inter" font-size="11" font-weight="700" font-style="normal" 
>
<polyline fill="none" vector-effect="none" points="45,6 45,26 " />
</g>

<g fill="#ffffff" fill-opacity="1" stroke="#0da6c5" stroke-opacity="1" stroke-width="1" stroke-linecap="square" stroke-linejoin="bevel" transform="matrix(1,0,0,1,0,0)"
font-family="Inter" font-size="11" font-weight="700" font-style="normal" 
>
</g>

<g fill="#0da6c5" fill-opacity="1" stroke="#0da6c5" stroke-opacity="1" stroke-width="1.2" stroke-linecap="square" stroke-linejoin="bevel" transform="matrix(1,0,0,1,135,4)"
font-family="Inter" font-size="11" font-weight="700" font-style="normal" 
>
<path vector-effect="none" fill-rule="evenodd" d="M0.5,12 C0.5,5.64873 5.87258,0.5 12.5,0.5 L27.5,0.5 C34.1274,0.5 39.5,5.64873 39.5,12 C39.5,18.3513 34.1274,23.5 27.5,23.5 L12.5,23.5 C5.87258,23.5 0.5,18.3513 0.5,12 "/>
</g>

<g fill="#ffffff" fill-opacity="1" stroke="none" transform="matrix(1,0,0,1,135,4)"
font-family="Inter" font-size="11" font-weight="700" font-style="normal" 
>
<path vector-effect="none" fill-rule="nonzero" d="M11.8242,16 L10.0117,16 L12.7734,8 L14.9531,8 L17.7109,16 L15.8984,16 L13.8945,9.82813 L13.832,9.82813 L11.8242,16 M11.7109,12.8555 L15.9922,12.8555 L15.9922,14.1758 L11.7109,14.1758 L11.7109,12.8555"/>
</g>

<g fill="#ffffff" fill-opacity="1" stroke="none" transform="matrix(0.03125,0,0,0.03125,161,12)"
font-family="Inter" font-size="11" font-weight="700" font-style="normal" 
>
<path vector-effect="none" fill-rule="nonzero" d="M111.326,191.938 C120.545,201.158 135.517,201.158 144.737,191.938 L239.144,97.5313 C245.929,90.7458 247.921,80.6413 244.233,71.7907 C240.545,62.9401 231.989,57.1871 222.401,57.1871 L33.5875,57.2608 C24.0731,57.2608 15.4437,63.0137 11.7559,71.8644 C8.06815,80.715 10.1333,90.8195 16.845,97.605 L111.252,192.012 L111.326,191.938"/>
</g>

<g fill="none" stroke="#000000" stroke-opacity="1" stroke-width="13.7195" stroke-linecap="butt" stroke-linejoin="miter" stroke-miterlimit="4" transform="matrix(0.03125,0,0,0.03125,161,12)"
font-family="Inter" font-size="11" font-weight="700" font-style="normal" 
>
<path vector-effect="none" fill-rule="nonzero" d="M111.326,191.938 C120.545,201.158 135.517,201.158 144.737,191.938 L239.144,97.5313 C245.929,90.7458 247.921,80.6413 244.233,71.7907 C240.545,62.9401 231.989,57.1871 222.401,57.1871 L33.5875,57.2608 C24.0731,57.2608 15.4437,63.0137 11.7559,71.8644 C8.06815,80.715 10.1333,90.8195 16.845,97.605 L111.252,192.012 L111.326,191.938"/>
</g>

<g fill="#ffffff" fill-opacity="1" stroke="none" transform="matrix(1,0,0,1,135,4)"
font-family="Inter" font-size="11" font-weight="700" font-style="normal" 
>
</g>

<g fill="#ffffff" fill-opacity="1" stroke="#0da6c5" stroke-opacity="1" stroke-width="1" stroke-linecap="square" stroke-linejoin="bevel" transform="matrix(1,0,0,1,0,0)"
font-family="Inter" font-size="11" font-weight="700" font-style="normal" 
>
</g>

<g fill="#1dccf0" fill-opacity="1" stroke="#0da6c5" stroke-opacity="1" stroke-width="1.2" stroke-linecap="square" stroke-linejoin="bevel" transform="matrix(1,0,0,1,56,4)"
font-family="Inter" font-size="11" font-weight="700" font-style="normal" 
>
<path vector-effect="none" fill-rule="evenodd" d="M0.5,3.5 C0.5,1.84315 1.84315,0.5 3.5,0.5 L71.5,0.5 C73.1569,0.5 74.5,1.84315 74.5,3.5 L74.5,20.5 C74.5,22.1569 73.1569,23.5 71.5,23.5 L3.5,23.5 C1.84315,23.5 0.5,22.1569 0.5,20.5 L0.5,3.5"/>
</g>

<g fill="#ffffff" fill-opacity="1" stroke="none" transform="matrix(1,0,0,1,56,4)"
font-family="Inter" font-size="11" font-weight="700" font-style="normal" 
>
<path vector-effect="none" fill-rule="nonzero" d="M10,9.39453 L10,8 L16.5703,8 L16.5703,9.39453 L14.1211,9.39453 L14.1211,16 L12.4492,16 L12.4492,9.39453 L10,9.39453 M17.6484,16 L17.6484,8 L19.3398,8 L19.3398,11.3008 L22.7734,11.3008 L22.7734,8 L24.4609,8 L24.4609,16 L22.7734,16 L22.7734,12.6953 L19.3398,12.6953 L19.3398,16 L17.6484,16 M32.543,8 L32.543,16 L31.082,16 L27.6016,10.9648 L27.543,10.9648 L27.543,16 L25.8516,16 L25.8516,8 L27.3359,8 L30.7891,13.0313 L30.8594,13.0313 L30.8594,8 L32.543,8 M33.9297,16 L33.9297,8 L35.6211,8 L35.6211,11.3008 L39.0547,11.3008 L39.0547,8 L40.7422,8 L40.7422,16 L39.0547,16 L39.0547,12.6953 L35.6211,12.6953 L35.6211,16 L33.9297,16 M42.1328,16 L42.1328,8 L45.3359,8 C45.9245,8 46.4154,8.08724 46.8086,8.26172 C47.2018,8.4362 47.4974,8.67773 47.6953,8.98633 C47.8932,9.29492 47.9922,9.64974 47.9922,10.0508 C47.9922,10.3633 47.9297,10.6374 47.8047,10.873 C47.6797,11.1087 47.5085,11.3014 47.291,11.4512 C47.0736,11.6009 46.8255,11.707 46.5469,11.7695 L46.5469,11.8477 C46.8516,11.8607 47.1374,11.9466 47.4043,12.1055 C47.6712,12.2643 47.888,12.4863 48.0547,12.7715 C48.2214,13.0566 48.3047,13.3958 48.3047,13.7891 C48.3047,14.2135 48.1999,14.5918 47.9902,14.9238 C47.7806,15.2559 47.4714,15.5182 47.0625,15.7109 C46.6536,15.9036 46.1497,16 45.5508,16 L42.1328,16 M43.8242,14.6172 L45.2031,14.6172 C45.6745,14.6172 46.0182,14.5267 46.2344,14.3457 C46.4505,14.1647 46.5586,13.9232 46.5586,13.6211 C46.5586,13.3997 46.5052,13.2044 46.3984,13.0352 C46.2917,12.8659 46.14,12.7331 45.9434,12.6367 C45.7467,12.5404 45.513,12.4922 45.2422,12.4922 L43.8242,12.4922 L43.8242,14.6172 M43.8242,11.3477 L45.0781,11.3477 C45.3099,11.3477 45.5163,11.3066 45.6973,11.2246 C45.8783,11.1426 46.0215,11.026 46.127,10.875 C46.2324,10.724 46.2852,10.543 46.2852,10.332 C46.2852,10.043 46.1829,9.8099 45.9785,9.63281 C45.7741,9.45573 45.4844,9.36719 45.1094,9.36719 L43.8242,9.36719 L43.8242,11.3477 M52.832,8 L52.832,16 L51.1406,16 L51.1406,9.60547 L51.0938,9.60547 L49.2617,10.7539 L49.2617,9.25391 L51.2422,8 L52.832,8"/>
</g>

<g fill="#ffffff" fill-opacity="1" stroke="none" transform="matrix(0.03125,0,0,0.03125,117,12)"
font-family="Inter" font-size="11" font-weight="700" font-style="normal" 
>
<path vector-effect="none" fill-rule="nonzero" d="M111.326,191.938 C120.545,201.158 135.517,201.158 144.737,191.938 L239.144,97.5313 C245.929,90.7458 247.921,80.6413 244.233,71.7907 C240.545,62.9401 231.989,57.1871 222.401,57.1871 L33.5875,57.2608 C24.0731,57.2608 15.4437,63.0137 11.7559,71.8644 C8.06815,80.715 10.1333,90.8195 16.845,97.605 L111.252,192.012 L111.326,191.938"/>
</g>

<g fill="none" stroke="#000000" stroke-opacity="1" stroke-width="13.7195" stroke-linecap="butt" stroke-linejoin="miter" stroke-miterlimit="4" transform="matrix(0.03125,0,0,0.03125,117,12)"
font-family="Inter" font-size="11" font-weight="700" font-style="normal" 
>
<path vector-effect="none" fill-rule="nonzero" d="M111.326,191.938 C120.545,201.158 135.517,201.158 144.737,191.938 L239.144,97.5313 C245.929,90.7458 247.921,80.6413 244.233,71.7907 C240.545,62.9401 231.989,57.1871 222.401,57.1871 L33.5875,57.2608 C24.0731,57.2608 15.4437,63.0137 11.7559,71.8644 C8.06815,80.715 10.1333,90.8195 16.845,97.605 L111.252,192.012 L111.326,191.938"/>
</g>

<g fill="#ffffff" fill-opacity="1" stroke="none" transform="matrix(1,0,0,1,56,4)"
font-family="Inter" font-size="11" font-weight="700" font-style="normal" 
>
</g>

<g fill="#ffffff" fill-opacity="1" stroke="#0da6c5" stroke-opacity="1" stroke-width="1" stroke-linecap="square" stroke-linejoin="bevel" transform="matrix(1,0,0,1,0,0)"
font-family="Inter" font-size="11" font-weight="700" font-style="normal" 
>
</g>

<g fill="#ffffff" fill-opacity="1" stroke="#0da6c5" stroke-opacity="1" stroke-width="1" stroke-linecap="square" stroke-linejoin="bevel" transform="matrix(1,0,0,1,0,0)"
font-family="Inter" font-size="11" font-weight="700" font-style="normal" 
>
</g>

<g fill="none" stroke="#000000" stroke-opacity="1" stroke-width="1" stroke-linecap="square" stroke-linejoin="bevel" transform="matrix(1,0,0,1,0,0)"
font-family=".AppleSystemUIFont" font-size="13" font-weight="400" font-style="normal" 
>
</g>
</g>
</svg>
