<?xml version="1.0" encoding="UTF-8" standalone="no"?>
<svg width="32.1028mm" height="15.5222mm"
 viewBox="0 0 91 44"
 xmlns="http://www.w3.org/2000/svg" xmlns:xlink="http://www.w3.org/1999/xlink" version="1.2" baseProfile="tiny">
<title>Abstract block</title>
<desc>block_control_stop</desc>
<defs>
</defs>
<g fill="none" stroke="black" stroke-width="1" fill-rule="evenodd" stroke-linecap="square" stroke-linejoin="bevel" >

<g fill="none" stroke="#000000" stroke-opacity="1" stroke-width="1" stroke-linecap="square" stroke-linejoin="bevel" transform="matrix(1,0,0,1,0,0)"
font-family=".AppleSystemUIFont" font-size="13" font-weight="400" font-style="normal" 
>
</g>

<g fill="none" stroke="#000000" stroke-opacity="1" stroke-width="1" stroke-linecap="square" stroke-linejoin="bevel" transform="matrix(1,0,0,1,0,0)"
font-family=".AppleSystemUIFont" font-size="13" font-weight="400" font-style="normal" 
>
</g>

<g fill="#ffb515" fill-opacity="1" stroke="#d89400" stroke-opacity="1" stroke-width="1.2" stroke-linecap="square" stroke-linejoin="bevel" transform="matrix(1,0,0,1,0,0)"
font-family=".AppleSystemUIFont" font-size="13" font-weight="400" font-style="normal" 
>
<path vector-effect="none" fill-rule="evenodd" d="M0.5,4.5 L1.04612,2.48112 L2.48112,1.04612 L4.5,0.5 L9.625,0.5 L10.416,0.976563 L11.1719,1.6875 L11.998,2.67969 L13,4 L13.7559,4.66016 L14.5469,5.15625 L15.4082,5.51172 L16.375,5.75 L17.4824,5.89453 L18.7656,5.96875 L20.2598,5.99609 L22,6 L23.7402,5.99609 L25.2344,5.96875 L26.5176,5.89453 L27.625,5.75 L28.5918,5.51172 L29.4531,5.15625 L30.2441,4.66016 L31,4 L32.002,2.67969 L32.8281,1.6875 L33.584,0.976563 L34.375,0.5 L86.5,0.5 L88.5189,1.04612 L89.9539,2.48112 L90.5,4.5 L90.5,31.5 L89.9539,33.5189 L88.5189,34.9539 L86.5,35.5 L4.5,35.5 L2.48112,34.9539 L1.04612,33.5189 L0.5,31.5 L0.5,4.5"/>
</g>

<g fill="#ffffff" fill-opacity="1" stroke="none" transform="matrix(1,0,0,1,0,0)"
font-family="Inter" font-size="11" font-weight="700" font-style="normal" 
>
<path vector-effect="none" fill-rule="nonzero" d="M17.0313,16.2578 L15.5078,16.3516 C15.4818,16.2214 15.4258,16.1035 15.3398,15.998 C15.2539,15.8926 15.1413,15.8079 15.002,15.7441 C14.8626,15.6803 14.6966,15.6484 14.5039,15.6484 C14.2461,15.6484 14.0286,15.7025 13.8516,15.8105 C13.6745,15.9186 13.5859,16.0625 13.5859,16.2422 C13.5859,16.3854 13.6432,16.5065 13.7578,16.6055 C13.8724,16.7044 14.069,16.7839 14.3477,16.8438 L15.4336,17.0625 C16.0169,17.1823 16.4518,17.375 16.7383,17.6406 C17.0247,17.9063 17.168,18.2552 17.168,18.6875 C17.168,19.0807 17.0527,19.4258 16.8223,19.7227 C16.5918,20.0195 16.2767,20.2507 15.877,20.416 C15.4772,20.5814 15.0169,20.6641 14.4961,20.6641 C13.7018,20.6641 13.0697,20.498 12.5996,20.166 C12.1296,19.834 11.8542,19.3815 11.7734,18.8086 L13.4102,18.7227 C13.4596,18.9648 13.5794,19.1491 13.7695,19.2754 C13.9596,19.4017 14.2031,19.4648 14.5,19.4648 C14.7917,19.4648 15.0267,19.4082 15.2051,19.2949 C15.3835,19.1816 15.474,19.0352 15.4766,18.8555 C15.474,18.7044 15.4102,18.5801 15.2852,18.4824 C15.1602,18.3848 14.9674,18.3099 14.707,18.2578 L13.668,18.0508 C13.082,17.9336 12.6465,17.7305 12.3613,17.4414 C12.0762,17.1523 11.9336,16.7839 11.9336,16.3359 C11.9336,15.9505 12.0384,15.6185 12.248,15.3398 C12.4577,15.0612 12.7533,14.8464 13.1348,14.6953 C13.5163,14.5443 13.9635,14.4688 14.4766,14.4688 C15.2344,14.4688 15.8314,14.6289 16.2676,14.9492 C16.7038,15.2695 16.9583,15.7057 17.0313,16.2578 M21.4023,14.5469 L21.4023,15.7969 L17.7891,15.7969 L17.7891,14.5469 L21.4023,14.5469 M18.6094,13.1094 L20.2734,13.1094 L20.2734,18.7031 C20.2734,18.8568 20.2969,18.9759 20.3438,19.0605 C20.3906,19.1452 20.4564,19.2044 20.541,19.2383 C20.6257,19.2721 20.724,19.2891 20.8359,19.2891 C20.9141,19.2891 20.9922,19.2819 21.0703,19.2676 C21.1484,19.2533 21.2083,19.2422 21.25,19.2344 L21.5117,20.4727 C21.4284,20.4987 21.3112,20.5293 21.1602,20.5645 C21.0091,20.5996 20.8255,20.6211 20.6094,20.6289 C20.2083,20.6445 19.8574,20.5911 19.5566,20.4688 C19.2559,20.3464 19.0221,20.1563 18.8555,19.8984 C18.6888,19.6406 18.6068,19.3151 18.6094,18.9219 L18.6094,13.1094 M25.125,20.6641 C24.5182,20.6641 23.9941,20.5345 23.5527,20.2754 C23.1113,20.0163 22.7708,19.6543 22.5313,19.1895 C22.2917,18.7246 22.1719,18.1849 22.1719,17.5703 C22.1719,16.9505 22.2917,16.4082 22.5313,15.9434 C22.7708,15.4785 23.1113,15.1165 23.5527,14.8574 C23.9941,14.5983 24.5182,14.4688 25.125,14.4688 C25.7318,14.4688 26.2559,14.5983 26.6973,14.8574 C27.1387,15.1165 27.4792,15.4785 27.7188,15.9434 C27.9583,16.4082 28.0781,16.9505 28.0781,17.5703 C28.0781,18.1849 27.9583,18.7246 27.7188,19.1895 C27.4792,19.6543 27.1387,20.0163 26.6973,20.2754 C26.2559,20.5345 25.7318,20.6641 25.125,20.6641 M25.1328,19.375 C25.4089,19.375 25.6393,19.2962 25.8242,19.1387 C26.0091,18.9811 26.1491,18.7656 26.2441,18.4922 C26.3392,18.2188 26.3867,17.9076 26.3867,17.5586 C26.3867,17.2096 26.3392,16.8984 26.2441,16.625 C26.1491,16.3516 26.0091,16.1354 25.8242,15.9766 C25.6393,15.8177 25.4089,15.7383 25.1328,15.7383 C24.8542,15.7383 24.6204,15.8177 24.4316,15.9766 C24.2428,16.1354 24.1009,16.3516 24.0059,16.625 C23.9108,16.8984 23.8633,17.2096 23.8633,17.5586 C23.8633,17.9076 23.9108,18.2188 24.0059,18.4922 C24.1009,18.7656 24.2428,18.9811 24.4316,19.1387 C24.6204,19.2962 24.8542,19.375 25.1328,19.375 M29.1641,22.7969 L29.1641,14.5469 L30.8047,14.5469 L30.8047,15.5547 L30.8789,15.5547 C30.9518,15.3932 31.0579,15.2285 31.1973,15.0605 C31.3366,14.8926 31.5189,14.752 31.7441,14.6387 C31.9694,14.5254 32.25,14.4688 32.5859,14.4688 C33.0234,14.4688 33.4271,14.5827 33.7969,14.8105 C34.1667,15.0384 34.4622,15.3809 34.6836,15.8379 C34.9049,16.2949 35.0156,16.8672 35.0156,17.5547 C35.0156,18.224 34.9082,18.7884 34.6934,19.248 C34.4785,19.7077 34.1868,20.0553 33.8184,20.291 C33.4499,20.5267 33.0378,20.6445 32.582,20.6445 C32.2591,20.6445 31.985,20.5911 31.7598,20.4844 C31.5345,20.3776 31.3503,20.2428 31.207,20.0801 C31.0638,19.9173 30.9544,19.7526 30.8789,19.5859 L30.8281,19.5859 L30.8281,22.7969 L29.1641,22.7969 M30.793,17.5469 C30.793,17.9036 30.8424,18.2148 30.9414,18.4805 C31.0404,18.7461 31.1836,18.9525 31.3711,19.0996 C31.5586,19.2467 31.7865,19.3203 32.0547,19.3203 C32.3255,19.3203 32.5547,19.2454 32.7422,19.0957 C32.9297,18.946 33.0723,18.7376 33.1699,18.4707 C33.2676,18.2038 33.3164,17.8958 33.3164,17.5469 C33.3164,17.2005 33.2682,16.8958 33.1719,16.6328 C33.0755,16.3698 32.9336,16.1641 32.7461,16.0156 C32.5586,15.8672 32.3281,15.793 32.0547,15.793 C31.7839,15.793 31.5553,15.8646 31.3691,16.0078 C31.1829,16.151 31.0404,16.3542 30.9414,16.6172 C30.8424,16.8802 30.793,17.1901 30.793,17.5469 "/>
</g>

<g fill="#ffb515" fill-opacity="1" stroke="#d89400" stroke-opacity="1" stroke-width="1.2" stroke-linecap="square" stroke-linejoin="bevel" transform="matrix(1,0,0,1,41,6)"
font-family="Inter" font-size="11" font-weight="700" font-style="normal" 
>
<path vector-effect="none" fill-rule="evenodd" d="M0.5,3.5 C0.5,1.84315 1.84315,0.5 3.5,0.5 L40.5,0.5 C42.1569,0.5 43.5,1.84315 43.5,3.5 L43.5,20.5 C43.5,22.1569 42.1569,23.5 40.5,23.5 L3.5,23.5 C1.84315,23.5 0.5,22.1569 0.5,20.5 L0.5,3.5"/>
</g>

<g fill="#ffffff" fill-opacity="1" stroke="none" transform="matrix(1,0,0,1,41,6)"
font-family="Inter" font-size="11" font-weight="700" font-style="normal" 
>
<path vector-effect="none" fill-rule="nonzero" d="M12,16.0195 C11.6172,16.0195 11.276,15.9525 10.9766,15.8184 C10.6771,15.6842 10.4408,15.485 10.2676,15.2207 C10.0944,14.9564 10.0078,14.6263 10.0078,14.2305 C10.0078,13.8971 10.069,13.6172 10.1914,13.3906 C10.3138,13.1641 10.4805,12.9818 10.6914,12.8438 C10.9023,12.7057 11.1426,12.6016 11.4121,12.5313 C11.6816,12.4609 11.9648,12.4115 12.2617,12.3828 C12.6107,12.3464 12.8919,12.3118 13.1055,12.2793 C13.319,12.2467 13.474,12.1979 13.5703,12.1328 C13.6667,12.0677 13.7148,11.9714 13.7148,11.8438 L13.7148,11.8203 C13.7148,11.5729 13.6374,11.3815 13.4824,11.2461 C13.3275,11.1107 13.1081,11.043 12.8242,11.043 C12.5247,11.043 12.2865,11.1087 12.1094,11.2402 C11.9323,11.3717 11.8151,11.5365 11.7578,11.7344 L10.2188,11.6094 C10.2969,11.2448 10.4505,10.929 10.6797,10.6621 C10.9089,10.3952 11.2051,10.1895 11.5684,10.0449 C11.9316,9.90039 12.3529,9.82813 12.832,9.82813 C13.1654,9.82813 13.485,9.86719 13.791,9.94531 C14.097,10.0234 14.3691,10.1445 14.6074,10.3086 C14.8457,10.4727 15.0339,10.6829 15.1719,10.9395 C15.3099,11.196 15.3789,11.5026 15.3789,11.8594 L15.3789,15.9063 L13.8008,15.9063 L13.8008,15.0742 L13.7539,15.0742 C13.6576,15.2617 13.5286,15.4264 13.3672,15.5684 C13.2057,15.7103 13.0117,15.821 12.7852,15.9004 C12.5586,15.9798 12.2969,16.0195 12,16.0195 M12.4766,14.8711 C12.7214,14.8711 12.9375,14.8223 13.125,14.7246 C13.3125,14.627 13.4596,14.4948 13.5664,14.3281 C13.6732,14.1615 13.7266,13.9727 13.7266,13.7617 L13.7266,13.125 C13.6745,13.1589 13.6035,13.1895 13.5137,13.2168 C13.4238,13.2441 13.3229,13.2689 13.2109,13.291 C13.099,13.3132 12.987,13.3327 12.875,13.3496 C12.763,13.3665 12.6615,13.3815 12.5703,13.3945 C12.375,13.4232 12.2044,13.4688 12.0586,13.5313 C11.9128,13.5938 11.7995,13.6777 11.7188,13.7832 C11.638,13.8887 11.5977,14.0195 11.5977,14.1758 C11.5977,14.4023 11.6803,14.5749 11.8457,14.6934 C12.0111,14.8118 12.2214,14.8711 12.4766,14.8711 M18.3281,7.90625 L18.3281,15.9063 L16.6641,15.9063 L16.6641,7.90625 L18.3281,7.90625 M21.3125,7.90625 L21.3125,15.9063 L19.6484,15.9063 L19.6484,7.90625 L21.3125,7.90625"/>
</g>

<g fill="#ffffff" fill-opacity="1" stroke="none" transform="matrix(0.03125,0,0,0.03125,71,14)"
font-family="Inter" font-size="11" font-weight="700" font-style="normal" 
>
<path vector-effect="none" fill-rule="nonzero" d="M111.326,191.938 C120.545,201.158 135.517,201.158 144.737,191.938 L239.144,97.5313 C245.929,90.7458 247.921,80.6413 244.233,71.7907 C240.545,62.9401 231.989,57.1871 222.401,57.1871 L33.5875,57.2608 C24.0731,57.2608 15.4437,63.0137 11.7559,71.8644 C8.06815,80.715 10.1333,90.8195 16.845,97.605 L111.252,192.012 L111.326,191.938"/>
</g>

<g fill="none" stroke="#000000" stroke-opacity="1" stroke-width="13.7195" stroke-linecap="butt" stroke-linejoin="miter" stroke-miterlimit="4" transform="matrix(0.03125,0,0,0.03125,71,14)"
font-family="Inter" font-size="11" font-weight="700" font-style="normal" 
>
<path vector-effect="none" fill-rule="nonzero" d="M111.326,191.938 C120.545,201.158 135.517,201.158 144.737,191.938 L239.144,97.5313 C245.929,90.7458 247.921,80.6413 244.233,71.7907 C240.545,62.9401 231.989,57.1871 222.401,57.1871 L33.5875,57.2608 C24.0731,57.2608 15.4437,63.0137 11.7559,71.8644 C8.06815,80.715 10.1333,90.8195 16.845,97.605 L111.252,192.012 L111.326,191.938"/>
</g>

<g fill="#ffffff" fill-opacity="1" stroke="none" transform="matrix(1,0,0,1,41,6)"
font-family="Inter" font-size="11" font-weight="700" font-style="normal" 
>
</g>

<g fill="#ffffff" fill-opacity="1" stroke="none" transform="matrix(1,0,0,1,0,0)"
font-family="Inter" font-size="11" font-weight="700" font-style="normal" 
>
</g>

<g fill="#ffffff" fill-opacity="1" stroke="none" transform="matrix(1,0,0,1,0,0)"
font-family="Inter" font-size="11" font-weight="700" font-style="normal" 
>
</g>

<g fill="none" stroke="#000000" stroke-opacity="1" stroke-width="1" stroke-linecap="square" stroke-linejoin="bevel" transform="matrix(1,0,0,1,0,0)"
font-family=".AppleSystemUIFont" font-size="13" font-weight="400" font-style="normal" 
>
</g>
</g>
</svg>
