<?xml version="1.0" encoding="UTF-8" standalone="no"?>
<svg width="62.0889mm" height="11.2889mm"
 viewBox="0 0 176 32"
 xmlns="http://www.w3.org/2000/svg" xmlns:xlink="http://www.w3.org/1999/xlink" version="1.2" baseProfile="tiny">
<title>Abstract block</title>
<desc>block_dashboard_controller_stepper_value_float</desc>
<defs>
</defs>
<g fill="none" stroke="black" stroke-width="1" fill-rule="evenodd" stroke-linecap="square" stroke-linejoin="bevel" >

<g fill="none" stroke="#000000" stroke-opacity="1" stroke-width="1" stroke-linecap="square" stroke-linejoin="bevel" transform="matrix(1,0,0,1,0,0)"
font-family=".AppleSystemUIFont" font-size="13" font-weight="400" font-style="normal" 
>
</g>

<g fill="none" stroke="#000000" stroke-opacity="1" stroke-width="1" stroke-linecap="square" stroke-linejoin="bevel" transform="matrix(1,0,0,1,0,0)"
font-family=".AppleSystemUIFont" font-size="13" font-weight="400" font-style="normal" 
>
</g>

<g fill="#009f94" fill-opacity="1" stroke="#00645c" stroke-opacity="1" stroke-width="1.2" stroke-linecap="square" stroke-linejoin="bevel" transform="matrix(1,0,0,1,0,0)"
font-family=".AppleSystemUIFont" font-size="13" font-weight="400" font-style="normal" 
>
<path vector-effect="none" fill-rule="evenodd" d="M1,16 C1,7.71573 8.16344,1 17,1 L158.667,1 C167.503,1 174.667,7.71573 174.667,16 C174.667,24.2843 167.503,31 158.667,31 L17,31 C8.16344,31 1,24.2843 1,16 "/>
</g>

<g fill="#ffffff" fill-opacity="1" stroke="none" transform="matrix(1,0,0,1,0,0)"
font-family="Inter" font-size="11" font-weight="700" font-style="normal" 
>
<path vector-effect="none" fill-rule="nonzero" d="M57.1406,14.2578 L55.6172,14.3516 C55.5911,14.2214 55.5352,14.1035 55.4492,13.998 C55.3633,13.8926 55.2507,13.8079 55.1113,13.7441 C54.972,13.6803 54.806,13.6484 54.6133,13.6484 C54.3555,13.6484 54.138,13.7025 53.9609,13.8105 C53.7839,13.9186 53.6953,14.0625 53.6953,14.2422 C53.6953,14.3854 53.7526,14.5065 53.8672,14.6055 C53.9818,14.7044 54.1784,14.7839 54.457,14.8438 L55.543,15.0625 C56.1263,15.1823 56.5612,15.375 56.8477,15.6406 C57.1341,15.9063 57.2773,16.2552 57.2773,16.6875 C57.2773,17.0807 57.1621,17.4258 56.9316,17.7227 C56.7012,18.0195 56.3861,18.2507 55.9863,18.416 C55.5866,18.5814 55.1263,18.6641 54.6055,18.6641 C53.8112,18.6641 53.179,18.498 52.709,18.166 C52.2389,17.834 51.9635,17.3815 51.8828,16.8086 L53.5195,16.7227 C53.569,16.9648 53.6888,17.1491 53.8789,17.2754 C54.069,17.4017 54.3125,17.4648 54.6094,17.4648 C54.901,17.4648 55.1361,17.4082 55.3145,17.2949 C55.4928,17.1816 55.5833,17.0352 55.5859,16.8555 C55.5833,16.7044 55.5195,16.5801 55.3945,16.4824 C55.2695,16.3848 55.0768,16.3099 54.8164,16.2578 L53.7773,16.0508 C53.1914,15.9336 52.7559,15.7305 52.4707,15.4414 C52.1855,15.1523 52.043,14.7839 52.043,14.3359 C52.043,13.9505 52.1478,13.6185 52.3574,13.3398 C52.5671,13.0612 52.8626,12.8464 53.2441,12.6953 C53.6257,12.5443 54.0729,12.4688 54.5859,12.4688 C55.3438,12.4688 55.9408,12.6289 56.377,12.9492 C56.8132,13.2695 57.0677,13.7057 57.1406,14.2578 M61.5117,12.5469 L61.5117,13.7969 L57.8984,13.7969 L57.8984,12.5469 L61.5117,12.5469 M58.7188,11.1094 L60.3828,11.1094 L60.3828,16.7031 C60.3828,16.8568 60.4063,16.9759 60.4531,17.0605 C60.5,17.1452 60.5658,17.2044 60.6504,17.2383 C60.735,17.2721 60.8333,17.2891 60.9453,17.2891 C61.0234,17.2891 61.1016,17.2819 61.1797,17.2676 C61.2578,17.2533 61.3177,17.2422 61.3594,17.2344 L61.6211,18.4727 C61.5378,18.4987 61.4206,18.5293 61.2695,18.5645 C61.1185,18.5996 60.9349,18.6211 60.7188,18.6289 C60.3177,18.6445 59.9668,18.5911 59.666,18.4688 C59.3652,18.3464 59.1315,18.1563 58.9648,17.8984 C58.7982,17.6406 58.7161,17.3151 58.7188,16.9219 L58.7188,11.1094 M65.2578,18.6641 C64.6406,18.6641 64.11,18.5384 63.666,18.2871 C63.222,18.0358 62.8802,17.679 62.6406,17.2168 C62.401,16.7546 62.2813,16.207 62.2813,15.5742 C62.2813,14.957 62.401,14.4154 62.6406,13.9492 C62.8802,13.4831 63.2181,13.1198 63.6543,12.8594 C64.0905,12.599 64.6029,12.4688 65.1914,12.4688 C65.5872,12.4688 65.9564,12.5319 66.2988,12.6582 C66.6413,12.7845 66.9408,12.974 67.1973,13.2266 C67.4538,13.4792 67.6536,13.7962 67.7969,14.1777 C67.9401,14.5592 68.0117,15.0052 68.0117,15.5156 L68.0117,15.9727 L62.9453,15.9727 L62.9453,14.9414 L66.4453,14.9414 C66.4453,14.7018 66.3932,14.4896 66.2891,14.3047 C66.1849,14.1198 66.041,13.9746 65.8574,13.8691 C65.6738,13.7637 65.4609,13.7109 65.2188,13.7109 C64.9661,13.7109 64.7428,13.7689 64.5488,13.8848 C64.3548,14.0007 64.2031,14.1556 64.0938,14.3496 C63.9844,14.5436 63.9284,14.7591 63.9258,14.9961 L63.9258,15.9766 C63.9258,16.2734 63.9811,16.5299 64.0918,16.7461 C64.2025,16.9622 64.3594,17.1289 64.5625,17.2461 C64.7656,17.3633 65.0065,17.4219 65.2852,17.4219 C65.4701,17.4219 65.6393,17.3958 65.793,17.3438 C65.9466,17.2917 66.0781,17.2135 66.1875,17.1094 C66.2969,17.0052 66.3802,16.8776 66.4375,16.7266 L67.9766,16.8281 C67.8984,17.1979 67.7389,17.5202 67.498,17.7949 C67.2572,18.0697 66.9473,18.2832 66.5684,18.4355 C66.1895,18.5879 65.7526,18.6641 65.2578,18.6641 M69.0859,20.7969 L69.0859,12.5469 L70.7266,12.5469 L70.7266,13.5547 L70.8008,13.5547 C70.8737,13.3932 70.9798,13.2285 71.1191,13.0605 C71.2585,12.8926 71.4408,12.752 71.666,12.6387 C71.8913,12.5254 72.1719,12.4688 72.5078,12.4688 C72.9453,12.4688 73.349,12.5827 73.7188,12.8105 C74.0885,13.0384 74.3841,13.3809 74.6055,13.8379 C74.8268,14.2949 74.9375,14.8672 74.9375,15.5547 C74.9375,16.224 74.8301,16.7884 74.6152,17.248 C74.4004,17.7077 74.1087,18.0553 73.7402,18.291 C73.3717,18.5267 72.9596,18.6445 72.5039,18.6445 C72.181,18.6445 71.9069,18.5911 71.6816,18.4844 C71.4564,18.3776 71.2721,18.2428 71.1289,18.0801 C70.9857,17.9173 70.8763,17.7526 70.8008,17.5859 L70.75,17.5859 L70.75,20.7969 L69.0859,20.7969 M70.7148,15.5469 C70.7148,15.9036 70.7643,16.2148 70.8633,16.4805 C70.9622,16.7461 71.1055,16.9525 71.293,17.0996 C71.4805,17.2467 71.7083,17.3203 71.9766,17.3203 C72.2474,17.3203 72.4766,17.2454 72.6641,17.0957 C72.8516,16.946 72.9941,16.7376 73.0918,16.4707 C73.1895,16.2038 73.2383,15.8958 73.2383,15.5469 C73.2383,15.2005 73.1901,14.8958 73.0938,14.6328 C72.9974,14.3698 72.8555,14.1641 72.668,14.0156 C72.4805,13.8672 72.25,13.793 71.9766,13.793 C71.7057,13.793 71.4772,13.8646 71.291,14.0078 C71.1048,14.151 70.9622,14.3542 70.8633,14.6172 C70.7643,14.8802 70.7148,15.1901 70.7148,15.5469 M76.0391,20.7969 L76.0391,12.5469 L77.6797,12.5469 L77.6797,13.5547 L77.7539,13.5547 C77.8268,13.3932 77.9329,13.2285 78.0723,13.0605 C78.2116,12.8926 78.3939,12.752 78.6191,12.6387 C78.8444,12.5254 79.125,12.4688 79.4609,12.4688 C79.8984,12.4688 80.3021,12.5827 80.6719,12.8105 C81.0417,13.0384 81.3372,13.3809 81.5586,13.8379 C81.7799,14.2949 81.8906,14.8672 81.8906,15.5547 C81.8906,16.224 81.7832,16.7884 81.5684,17.248 C81.3535,17.7077 81.0618,18.0553 80.6934,18.291 C80.3249,18.5267 79.9128,18.6445 79.457,18.6445 C79.1341,18.6445 78.86,18.5911 78.6348,18.4844 C78.4095,18.3776 78.2253,18.2428 78.082,18.0801 C77.9388,17.9173 77.8294,17.7526 77.7539,17.5859 L77.7031,17.5859 L77.7031,20.7969 L76.0391,20.7969 M77.668,15.5469 C77.668,15.9036 77.7174,16.2148 77.8164,16.4805 C77.9154,16.7461 78.0586,16.9525 78.2461,17.0996 C78.4336,17.2467 78.6615,17.3203 78.9297,17.3203 C79.2005,17.3203 79.4297,17.2454 79.6172,17.0957 C79.8047,16.946 79.9473,16.7376 80.0449,16.4707 C80.1426,16.2038 80.1914,15.8958 80.1914,15.5469 C80.1914,15.2005 80.1432,14.8958 80.0469,14.6328 C79.9505,14.3698 79.8086,14.1641 79.6211,14.0156 C79.4336,13.8672 79.2031,13.793 78.9297,13.793 C78.6589,13.793 78.4303,13.8646 78.2441,14.0078 C78.0579,14.151 77.9154,14.3542 77.8164,14.6172 C77.7174,14.8802 77.668,15.1901 77.668,15.5469 M85.7266,18.6641 C85.1094,18.6641 84.5788,18.5384 84.1348,18.2871 C83.6908,18.0358 83.349,17.679 83.1094,17.2168 C82.8698,16.7546 82.75,16.207 82.75,15.5742 C82.75,14.957 82.8698,14.4154 83.1094,13.9492 C83.349,13.4831 83.6868,13.1198 84.123,12.8594 C84.5592,12.599 85.0716,12.4688 85.6602,12.4688 C86.056,12.4688 86.4251,12.5319 86.7676,12.6582 C87.11,12.7845 87.4095,12.974 87.666,13.2266 C87.9225,13.4792 88.1224,13.7962 88.2656,14.1777 C88.4089,14.5592 88.4805,15.0052 88.4805,15.5156 L88.4805,15.9727 L83.4141,15.9727 L83.4141,14.9414 L86.9141,14.9414 C86.9141,14.7018 86.862,14.4896 86.7578,14.3047 C86.6536,14.1198 86.5098,13.9746 86.3262,13.8691 C86.1426,13.7637 85.9297,13.7109 85.6875,13.7109 C85.4349,13.7109 85.2116,13.7689 85.0176,13.8848 C84.8236,14.0007 84.6719,14.1556 84.5625,14.3496 C84.4531,14.5436 84.3971,14.7591 84.3945,14.9961 L84.3945,15.9766 C84.3945,16.2734 84.4499,16.5299 84.5605,16.7461 C84.6712,16.9622 84.8281,17.1289 85.0313,17.2461 C85.2344,17.3633 85.4753,17.4219 85.7539,17.4219 C85.9388,17.4219 86.1081,17.3958 86.2617,17.3438 C86.4154,17.2917 86.5469,17.2135 86.6563,17.1094 C86.7656,17.0052 86.849,16.8776 86.9063,16.7266 L88.4453,16.8281 C88.3672,17.1979 88.2077,17.5202 87.9668,17.7949 C87.7259,18.0697 87.416,18.2832 87.0371,18.4355 C86.6582,18.5879 86.2214,18.6641 85.7266,18.6641 M89.5547,18.5469 L89.5547,12.5469 L91.168,12.5469 L91.168,13.5938 L91.2305,13.5938 C91.3398,13.2214 91.5234,12.9395 91.7813,12.748 C92.0391,12.5566 92.3359,12.4609 92.6719,12.4609 C92.7552,12.4609 92.8451,12.4661 92.9414,12.4766 C93.0378,12.487 93.1224,12.5013 93.1953,12.5195 L93.1953,13.9961 C93.1172,13.9727 93.0091,13.9518 92.8711,13.9336 C92.7331,13.9154 92.6068,13.9063 92.4922,13.9063 C92.2474,13.9063 92.0293,13.959 91.8379,14.0645 C91.6465,14.1699 91.4954,14.3164 91.3848,14.5039 C91.2741,14.6914 91.2188,14.9076 91.2188,15.1523 L91.2188,18.5469 L89.5547,18.5469"/>
</g>

<g fill="#ffffff" fill-opacity="1" stroke="none" transform="matrix(0.95,0,0,0.95,11.6,4.6)"
font-family="Inter" font-size="11" font-weight="700" font-style="normal" 
>
<path vector-effect="none" fill-rule="nonzero" d="M2.19896,4.65234 C1.18891,4.65234 0.375703,5.46549 0.375703,6.47555 L0.375703,8.579 C1.00152,8.60331 1.67842,9.11362 1.67842,9.74561 L1.67842,14.2544 C1.67842,14.8864 1.00152,15.3967 0.375703,15.421 L0.375703,17.5245 C0.375703,18.5345 1.18891,19.3477 2.19896,19.3477 L21.8479,19.3477 C22.858,19.3477 23.6711,18.5345 23.6711,17.5245 L23.6711,6.47555 C23.6711,5.46549 22.858,4.65234 21.8479,4.65234 L2.19896,4.65234 M6.71936,9.23098 C8.56166,9.23097 10.0552,10.7245 10.0552,12.5668 C10.0552,14.4091 8.56167,15.9026 6.71936,15.9026 C4.87705,15.9026 3.38355,14.4091 3.38355,12.5668 C3.38355,10.7245 4.87705,9.23097 6.71936,9.23098 M19.875,9.24873 C20.7082,9.24871 21.3837,9.92418 21.3837,10.7574 C21.3837,11.5906 20.7082,12.266 19.875,12.266 C19.0418,12.266 18.3664,11.5906 18.3664,10.7574 C18.3664,9.9242 19.0418,9.24874 19.875,9.24873 M17.4318,12.8825 C18.265,12.8825 18.9404,13.558 18.9404,14.3912 C18.9404,15.2243 18.2649,15.8998 17.4318,15.8998 C16.5986,15.8998 15.9231,15.2244 15.9231,14.3912 C15.9231,13.5579 16.5985,12.8825 17.4318,12.8825 "/>
</g>

<g fill="none" stroke="#000000" stroke-opacity="1" stroke-width="0.54" stroke-linecap="butt" stroke-linejoin="miter" stroke-miterlimit="4" transform="matrix(0.95,0,0,0.95,11.6,4.6)"
font-family="Inter" font-size="11" font-weight="700" font-style="normal" 
>
<path vector-effect="none" fill-rule="nonzero" d="M2.19896,4.65234 C1.18891,4.65234 0.375703,5.46549 0.375703,6.47555 L0.375703,8.579 C1.00152,8.60331 1.67842,9.11362 1.67842,9.74561 L1.67842,14.2544 C1.67842,14.8864 1.00152,15.3967 0.375703,15.421 L0.375703,17.5245 C0.375703,18.5345 1.18891,19.3477 2.19896,19.3477 L21.8479,19.3477 C22.858,19.3477 23.6711,18.5345 23.6711,17.5245 L23.6711,6.47555 C23.6711,5.46549 22.858,4.65234 21.8479,4.65234 L2.19896,4.65234 M6.71936,9.23098 C8.56166,9.23097 10.0552,10.7245 10.0552,12.5668 C10.0552,14.4091 8.56167,15.9026 6.71936,15.9026 C4.87705,15.9026 3.38355,14.4091 3.38355,12.5668 C3.38355,10.7245 4.87705,9.23097 6.71936,9.23098 M19.875,9.24873 C20.7082,9.24871 21.3837,9.92418 21.3837,10.7574 C21.3837,11.5906 20.7082,12.266 19.875,12.266 C19.0418,12.266 18.3664,11.5906 18.3664,10.7574 C18.3664,9.9242 19.0418,9.24874 19.875,9.24873 M17.4318,12.8825 C18.265,12.8825 18.9404,13.558 18.9404,14.3912 C18.9404,15.2243 18.2649,15.8998 17.4318,15.8998 C16.5986,15.8998 15.9231,15.2244 15.9231,14.3912 C15.9231,13.5579 16.5985,12.8825 17.4318,12.8825 "/>
</g>

<g fill="#000000" fill-opacity="1" stroke="none" transform="matrix(0.95,0,0,0.95,11.6,4.6)"
font-family="Inter" font-size="11" font-weight="700" font-style="normal" 
>
<path vector-effect="none" fill-rule="nonzero" d="M0.108328,15.3227 L0.103298,8.65983 L1.21825,8.7259 L1.75102,9.37791 L1.70662,12.9064 L1.66222,14.5556 L1.04066,15.0542 L0.108328,15.3227"/>
</g>

<g fill="#000000" fill-opacity="1" stroke="none" transform="matrix(0.95,0,0,0.95,11.6,4.6)"
font-family="Inter" font-size="11" font-weight="700" font-style="normal" 
>
<circle cx="6.70111" cy="12.5452" r="1.68266"/>
</g>

<g fill="none" stroke="#000000" stroke-opacity="1" stroke-width="0.54" stroke-linecap="butt" stroke-linejoin="miter" stroke-miterlimit="4" transform="matrix(0.95,0,0,0.95,11.6,4.6)"
font-family="Inter" font-size="11" font-weight="700" font-style="normal" 
>
<circle cx="6.70111" cy="12.5452" r="1.68266"/>
</g>

<g fill="#000000" fill-opacity="1" stroke="none" transform="matrix(0.95,0,0,0.95,11.6,4.6)"
font-family="Inter" font-size="11" font-weight="700" font-style="normal" 
opacity="0.858824" >
<path vector-effect="none" fill-rule="evenodd" d="M8.42109,18.1373 C8.42109,18.0846 8.46385,18.0418 8.51661,18.0418 L15.4834,18.0418 C15.5361,18.0418 15.5789,18.0846 15.5789,18.1373 L15.5789,18.1373 C15.5789,18.1901 15.5361,18.2329 15.4834,18.2329 L8.51661,18.2329 C8.46385,18.2329 8.42109,18.1901 8.42109,18.1373 L8.42109,18.1373"/>
</g>

<g fill="none" stroke="#000000" stroke-opacity="1" stroke-width="0.437534" stroke-linecap="butt" stroke-linejoin="miter" stroke-miterlimit="4" transform="matrix(0.95,0,0,0.95,11.6,4.6)"
font-family="Inter" font-size="11" font-weight="700" font-style="normal" 
>
<path vector-effect="none" fill-rule="evenodd" d="M8.42109,18.1373 C8.42109,18.0846 8.46385,18.0418 8.51661,18.0418 L15.4834,18.0418 C15.5361,18.0418 15.5789,18.0846 15.5789,18.1373 L15.5789,18.1373 C15.5789,18.1901 15.5361,18.2329 15.4834,18.2329 L8.51661,18.2329 C8.46385,18.2329 8.42109,18.1901 8.42109,18.1373 L8.42109,18.1373"/>
</g>

<g fill="#ffffff" fill-opacity="1" stroke="none" transform="matrix(1,0,0,1,0,0)"
font-family="Inter" font-size="11" font-weight="700" font-style="normal" 
>
</g>

<g fill="#ffffff" fill-opacity="1" stroke="#00645c" stroke-opacity="1" stroke-width="1" stroke-linecap="square" stroke-linejoin="bevel" transform="matrix(1,0,0,1,0,0)"
font-family="Inter" font-size="11" font-weight="700" font-style="normal" 
>
<polyline fill="none" vector-effect="none" points="45,6 45,26 " />
</g>

<g fill="#ffffff" fill-opacity="1" stroke="#00645c" stroke-opacity="1" stroke-width="1" stroke-linecap="square" stroke-linejoin="bevel" transform="matrix(1,0,0,1,0,0)"
font-family="Inter" font-size="11" font-weight="700" font-style="normal" 
>
</g>

<g fill="#009f94" fill-opacity="1" stroke="#00645c" stroke-opacity="1" stroke-width="1.2" stroke-linecap="square" stroke-linejoin="bevel" transform="matrix(1,0,0,1,100,4)"
font-family="Inter" font-size="11" font-weight="700" font-style="normal" 
>
<path vector-effect="none" fill-rule="evenodd" d="M0.5,3.5 C0.5,1.84315 1.84315,0.5 3.5,0.5 L61.5,0.5 C63.1569,0.5 64.5,1.84315 64.5,3.5 L64.5,20.5 C64.5,22.1569 63.1569,23.5 61.5,23.5 L3.5,23.5 C1.84315,23.5 0.5,22.1569 0.5,20.5 L0.5,3.5"/>
</g>

<g fill="#ffffff" fill-opacity="1" stroke="none" transform="matrix(1,0,0,1,100,4)"
font-family="Inter" font-size="11" font-weight="700" font-style="normal" 
>
<path vector-effect="none" fill-rule="nonzero" d="M14.5977,10.2383 C14.5664,9.92318 14.4323,9.67839 14.1953,9.50391 C13.9583,9.32943 13.6367,9.24219 13.2305,9.24219 C12.9544,9.24219 12.7214,9.2806 12.5313,9.35742 C12.3411,9.43424 12.196,9.54036 12.0957,9.67578 C11.9954,9.8112 11.9453,9.96484 11.9453,10.1367 C11.9401,10.2799 11.9707,10.4049 12.0371,10.5117 C12.1035,10.6185 12.1953,10.7103 12.3125,10.7871 C12.4297,10.8639 12.5651,10.9303 12.7188,10.9863 C12.8724,11.0423 13.0365,11.0898 13.2109,11.1289 L13.9297,11.3008 C14.2786,11.3789 14.599,11.4831 14.8906,11.6133 C15.1823,11.7435 15.4349,11.9036 15.6484,12.0938 C15.862,12.2839 16.028,12.5078 16.1465,12.7656 C16.265,13.0234 16.3255,13.319 16.3281,13.6523 C16.3255,14.1419 16.2012,14.5658 15.9551,14.9238 C15.709,15.2819 15.3548,15.5592 14.8926,15.7559 C14.4303,15.9525 13.8737,16.0508 13.2227,16.0508 C12.5768,16.0508 12.015,15.9518 11.5371,15.7539 C11.0592,15.556 10.6868,15.2624 10.4199,14.873 C10.153,14.4837 10.013,14.0013 10,13.4258 L11.6367,13.4258 C11.6549,13.694 11.7324,13.9173 11.8691,14.0957 C12.0059,14.2741 12.1895,14.4082 12.4199,14.498 C12.6504,14.5879 12.9115,14.6328 13.2031,14.6328 C13.4896,14.6328 13.7389,14.5911 13.9512,14.5078 C14.1634,14.4245 14.3281,14.3086 14.4453,14.1602 C14.5625,14.0117 14.6211,13.8411 14.6211,13.6484 C14.6211,13.4688 14.5684,13.3177 14.4629,13.1953 C14.3574,13.0729 14.2038,12.9688 14.002,12.8828 C13.8001,12.7969 13.5534,12.7188 13.2617,12.6484 L12.3906,12.4297 C11.7161,12.2656 11.1836,12.0091 10.793,11.6602 C10.4023,11.3112 10.2083,10.8411 10.2109,10.25 C10.2083,9.76563 10.3379,9.34245 10.5996,8.98047 C10.8613,8.61849 11.2214,8.33594 11.6797,8.13281 C12.138,7.92969 12.6589,7.82813 13.2422,7.82813 C13.8359,7.82813 14.3548,7.92969 14.7988,8.13281 C15.2428,8.33594 15.5885,8.61849 15.8359,8.98047 C16.0833,9.34245 16.2109,9.76172 16.2188,10.2383 L14.5977,10.2383 M17.1563,9.33203 L17.1563,7.9375 L23.7266,7.9375 L23.7266,9.33203 L21.2773,9.33203 L21.2773,15.9375 L19.6055,15.9375 L19.6055,9.33203 L17.1563,9.33203 M24.8047,15.9375 L24.8047,7.9375 L27.9609,7.9375 C28.5677,7.9375 29.0846,8.05273 29.5117,8.2832 C29.9388,8.51367 30.265,8.83268 30.4902,9.24023 C30.7155,9.64779 30.8281,10.1172 30.8281,10.6484 C30.8281,11.1797 30.7135,11.6484 30.4844,12.0547 C30.2552,12.4609 29.9238,12.7773 29.4902,13.0039 C29.0566,13.2305 28.5326,13.3438 27.918,13.3438 L25.9063,13.3438 L25.9063,11.9883 L27.6445,11.9883 C27.9701,11.9883 28.2389,11.9316 28.4512,11.8184 C28.6634,11.7051 28.8223,11.5475 28.9277,11.3457 C29.0332,11.1439 29.0859,10.9115 29.0859,10.6484 C29.0859,10.3828 29.0332,10.1504 28.9277,9.95117 C28.8223,9.75195 28.6628,9.59701 28.4492,9.48633 C28.2357,9.37565 27.9648,9.32031 27.6367,9.32031 L26.4961,9.32031 L26.4961,15.9375 L24.8047,15.9375 M31.9297,15.9375 L31.9297,7.9375 L35.0859,7.9375 C35.6901,7.9375 36.2064,8.04492 36.6348,8.25977 C37.0632,8.47461 37.39,8.77799 37.6152,9.16992 C37.8405,9.56185 37.9531,10.0221 37.9531,10.5508 C37.9531,11.082 37.8385,11.5384 37.6094,11.9199 C37.3802,12.3014 37.0488,12.5938 36.6152,12.7969 C36.1816,13 35.6576,13.1016 35.043,13.1016 L32.9297,13.1016 L32.9297,11.7422 L34.7695,11.7422 C35.0924,11.7422 35.3607,11.6979 35.5742,11.6094 C35.7878,11.5208 35.9473,11.388 36.0527,11.2109 C36.1582,11.0339 36.2109,10.8138 36.2109,10.5508 C36.2109,10.2852 36.1582,10.0612 36.0527,9.87891 C35.9473,9.69661 35.7871,9.55794 35.5723,9.46289 C35.3574,9.36784 35.0872,9.32031 34.7617,9.32031 L33.6211,9.32031 L33.6211,15.9375 L31.9297,15.9375 M36.25,12.2969 L38.2383,15.9375 L36.3711,15.9375 L34.4258,12.2969 L36.25,12.2969 M42.582,7.9375 L42.582,15.9375 L40.8906,15.9375 L40.8906,9.54297 L40.8438,9.54297 L39.0117,10.6914 L39.0117,9.19141 L40.9922,7.9375 L42.582,7.9375"/>
</g>

<g fill="#ffffff" fill-opacity="1" stroke="none" transform="matrix(0.03125,0,0,0.03125,151,12)"
font-family="Inter" font-size="11" font-weight="700" font-style="normal" 
>
<path vector-effect="none" fill-rule="nonzero" d="M111.326,191.938 C120.545,201.158 135.517,201.158 144.737,191.938 L239.144,97.5313 C245.929,90.7458 247.921,80.6413 244.233,71.7907 C240.545,62.9401 231.989,57.1871 222.401,57.1871 L33.5875,57.2608 C24.0731,57.2608 15.4437,63.0137 11.7559,71.8644 C8.06815,80.715 10.1333,90.8195 16.845,97.605 L111.252,192.012 L111.326,191.938"/>
</g>

<g fill="none" stroke="#000000" stroke-opacity="1" stroke-width="13.7195" stroke-linecap="butt" stroke-linejoin="miter" stroke-miterlimit="4" transform="matrix(0.03125,0,0,0.03125,151,12)"
font-family="Inter" font-size="11" font-weight="700" font-style="normal" 
>
<path vector-effect="none" fill-rule="nonzero" d="M111.326,191.938 C120.545,201.158 135.517,201.158 144.737,191.938 L239.144,97.5313 C245.929,90.7458 247.921,80.6413 244.233,71.7907 C240.545,62.9401 231.989,57.1871 222.401,57.1871 L33.5875,57.2608 C24.0731,57.2608 15.4437,63.0137 11.7559,71.8644 C8.06815,80.715 10.1333,90.8195 16.845,97.605 L111.252,192.012 L111.326,191.938"/>
</g>

<g fill="#ffffff" fill-opacity="1" stroke="none" transform="matrix(1,0,0,1,100,4)"
font-family="Inter" font-size="11" font-weight="700" font-style="normal" 
>
</g>

<g fill="#ffffff" fill-opacity="1" stroke="#00645c" stroke-opacity="1" stroke-width="1" stroke-linecap="square" stroke-linejoin="bevel" transform="matrix(1,0,0,1,0,0)"
font-family="Inter" font-size="11" font-weight="700" font-style="normal" 
>
</g>

<g fill="none" stroke="#000000" stroke-opacity="1" stroke-width="1" stroke-linecap="square" stroke-linejoin="bevel" transform="matrix(1,0,0,1,0,0)"
font-family=".AppleSystemUIFont" font-size="13" font-weight="400" font-style="normal" 
>
</g>
</g>
</svg>
