<?xml version="1.0" encoding="UTF-8" standalone="no"?>
<svg width="110.067mm" height="21.1667mm"
 viewBox="0 0 312 60"
 xmlns="http://www.w3.org/2000/svg" xmlns:xlink="http://www.w3.org/1999/xlink" version="1.2" baseProfile="tiny">
<title>Abstract block</title>
<desc>block_dashboard_controller_switch_event</desc>
<defs>
</defs>
<g fill="none" stroke="black" stroke-width="1" fill-rule="evenodd" stroke-linecap="square" stroke-linejoin="bevel" >

<g fill="none" stroke="#000000" stroke-opacity="1" stroke-width="1" stroke-linecap="square" stroke-linejoin="bevel" transform="matrix(1,0,0,1,0,0)"
font-family=".AppleSystemUIFont" font-size="13" font-weight="400" font-style="normal" 
>
</g>

<g fill="none" stroke="#000000" stroke-opacity="1" stroke-width="1" stroke-linecap="square" stroke-linejoin="bevel" transform="matrix(1,0,0,1,0,0)"
font-family=".AppleSystemUIFont" font-size="13" font-weight="400" font-style="normal" 
>
</g>

<g fill="#009f94" fill-opacity="1" stroke="#00645c" stroke-opacity="1" stroke-width="1.2" stroke-linecap="square" stroke-linejoin="bevel" transform="matrix(1,0,0,1,0,0)"
font-family=".AppleSystemUIFont" font-size="13" font-weight="400" font-style="normal" 
>
<path vector-effect="none" fill-rule="evenodd" d="M0.5,20.5 L1,18.6516 L1,18 L1.77836,17.1565 L2.58892,16.3401 L3.43062,15.551 L4.30242,14.7891 L5.20325,14.0544 L6.13206,13.3469 L7.08779,12.6667 L8.06939,12.0136 L9.0758,11.3878 L10.106,10.7891 L11.1588,10.2177 L12.2333,9.67347 L13.3284,9.15646 L14.4431,8.66667 L15.5762,8.20408 L16.7267,7.76871 L17.8936,7.36054 L19.0758,6.97959 L20.2723,6.62585 L21.4819,6.29932 L22.7037,6 L23.9366,5.72789 L25.1795,5.48299 L26.4314,5.26531 L27.6912,5.07483 L28.9578,4.91156 L30.2303,4.77551 L31.5075,4.66667 L32.7885,4.58503 L34.072,4.53061 L35.3572,4.5034 L36.6428,4.5034 L37.928,4.53061 L39.2115,4.58503 L40.4925,4.66667 L41.7697,4.77551 L43.0422,4.91156 L44.3088,5.07483 L45.5686,5.26531 L46.8205,5.48299 L48.0634,5.72789 L49.2963,6 L50.5181,6.29932 L51.7277,6.62585 L52.9242,6.97959 L54.1064,7.36054 L55.2733,7.76871 L56.4238,8.20408 L57.5569,8.66667 L58.6716,9.15646 L59.7667,9.67347 L60.8412,10.2177 L61.894,10.7891 L62.9242,11.3878 L63.9306,12.0136 L64.9122,12.6667 L65.8679,13.3469 L66.7968,14.0544 L67.6976,14.7891 L68.5694,15.551 L69.4111,16.3401 L69.5698,16.5 L307.5,16.5 L309.519,17.0461 L310.954,18.4811 L311.5,20.5 L311.5,47.5 L310.954,49.5189 L309.519,50.9539 L307.5,51.5 L34.375,51.5 L33.584,51.9766 L32.8281,52.6875 L32.002,53.6797 L31,55 L30.2441,55.6602 L29.4531,56.1563 L28.5918,56.5117 L27.625,56.75 L26.5176,56.8945 L25.2344,56.9688 L23.7402,56.9961 L22,57 L20.2598,56.9961 L18.7656,56.9688 L17.4824,56.8945 L16.375,56.75 L15.4082,56.5117 L14.5469,56.1563 L13.7559,55.6602 L13,55 L11.998,53.6797 L11.1719,52.6875 L10.416,51.9766 L9.625,51.5 L4.5,51.5 L2.48112,50.9539 L1.04612,49.5189 L0.5,47.5 L0.5,20.5"/>
</g>

<g fill="#ffffff" fill-opacity="1" stroke="none" transform="matrix(1,0,0,1,0,0)"
font-family="Inter" font-size="11" font-weight="700" font-style="normal" 
>
<path vector-effect="none" fill-rule="nonzero" d="M53.4727,37.9531 L51.8398,31.9531 L53.5234,31.9531 L54.4531,35.9844 L54.5078,35.9844 L55.4766,31.9531 L57.1289,31.9531 L58.1133,35.9609 L58.1641,35.9609 L59.0781,31.9531 L60.7578,31.9531 L59.1289,37.9531 L57.3672,37.9531 L56.3359,34.1797 L56.2617,34.1797 L55.2305,37.9531 L53.4727,37.9531 M63.2969,34.4844 L63.2969,37.9531 L61.6328,37.9531 L61.6328,29.9531 L63.25,29.9531 L63.25,33.0117 L63.3203,33.0117 C63.4557,32.6576 63.6745,32.3796 63.9766,32.1777 C64.2786,31.9759 64.6576,31.875 65.1133,31.875 C65.5299,31.875 65.8939,31.9655 66.2051,32.1465 C66.5163,32.3275 66.7585,32.5866 66.9316,32.9238 C67.1048,33.2611 67.1901,33.6641 67.1875,34.1328 L67.1875,37.9531 L65.5234,37.9531 L65.5234,34.4297 C65.526,34.0599 65.4329,33.7721 65.2441,33.5664 C65.0553,33.3607 64.7917,33.2578 64.4531,33.2578 C64.2266,33.2578 64.0267,33.306 63.8535,33.4023 C63.6803,33.4987 63.5449,33.6387 63.4473,33.8223 C63.3496,34.0059 63.2995,34.2266 63.2969,34.4844 M71.2266,38.0703 C70.6094,38.0703 70.0788,37.9447 69.6348,37.6934 C69.1908,37.4421 68.849,37.0853 68.6094,36.623 C68.3698,36.1608 68.25,35.6133 68.25,34.9805 C68.25,34.3633 68.3698,33.8216 68.6094,33.3555 C68.849,32.8893 69.1868,32.526 69.623,32.2656 C70.0592,32.0052 70.5716,31.875 71.1602,31.875 C71.556,31.875 71.9251,31.9382 72.2676,32.0645 C72.61,32.1908 72.9095,32.3802 73.166,32.6328 C73.4225,32.8854 73.6224,33.2025 73.7656,33.584 C73.9089,33.9655 73.9805,34.4115 73.9805,34.9219 L73.9805,35.3789 L68.9141,35.3789 L68.9141,34.3477 L72.4141,34.3477 C72.4141,34.1081 72.362,33.8958 72.2578,33.7109 C72.1536,33.526 72.0098,33.3809 71.8262,33.2754 C71.6426,33.1699 71.4297,33.1172 71.1875,33.1172 C70.9349,33.1172 70.7116,33.1751 70.5176,33.291 C70.3236,33.4069 70.1719,33.5618 70.0625,33.7559 C69.9531,33.9499 69.8971,34.1654 69.8945,34.4023 L69.8945,35.3828 C69.8945,35.6797 69.9499,35.9362 70.0605,36.1523 C70.1712,36.3685 70.3281,36.5352 70.5313,36.6523 C70.7344,36.7695 70.9753,36.8281 71.2539,36.8281 C71.4388,36.8281 71.6081,36.8021 71.7617,36.75 C71.9154,36.6979 72.0469,36.6198 72.1563,36.5156 C72.2656,36.4115 72.349,36.2839 72.4063,36.1328 L73.9453,36.2344 C73.8672,36.6042 73.7077,36.9264 73.4668,37.2012 C73.2259,37.4759 72.916,37.6895 72.5371,37.8418 C72.1582,37.9941 71.7214,38.0703 71.2266,38.0703 M76.7188,34.4844 L76.7188,37.9531 L75.0547,37.9531 L75.0547,31.9531 L76.6406,31.9531 L76.6406,33.0117 L76.7109,33.0117 C76.8438,32.6628 77.0664,32.3861 77.3789,32.1816 C77.6914,31.9772 78.0703,31.875 78.5156,31.875 C78.9323,31.875 79.2956,31.9661 79.6055,32.1484 C79.9154,32.3307 80.1563,32.5905 80.3281,32.9277 C80.5,33.265 80.5859,33.6667 80.5859,34.1328 L80.5859,37.9531 L78.9219,37.9531 L78.9219,34.4297 C78.9245,34.0625 78.8307,33.7754 78.6406,33.5684 C78.4505,33.3613 78.1888,33.2578 77.8555,33.2578 C77.6315,33.2578 77.4342,33.306 77.2637,33.4023 C77.0931,33.4987 76.9603,33.6387 76.8652,33.8223 C76.7702,34.0059 76.7214,34.2266 76.7188,34.4844 M89.4219,33.6641 L87.8984,33.7578 C87.8724,33.6276 87.8164,33.5098 87.7305,33.4043 C87.6445,33.2988 87.5319,33.2142 87.3926,33.1504 C87.2533,33.0866 87.0872,33.0547 86.8945,33.0547 C86.6367,33.0547 86.4193,33.1087 86.2422,33.2168 C86.0651,33.3249 85.9766,33.4688 85.9766,33.6484 C85.9766,33.7917 86.0339,33.9128 86.1484,34.0117 C86.263,34.1107 86.4596,34.1901 86.7383,34.25 L87.8242,34.4688 C88.4076,34.5885 88.8424,34.7813 89.1289,35.0469 C89.4154,35.3125 89.5586,35.6615 89.5586,36.0938 C89.5586,36.487 89.4434,36.832 89.2129,37.1289 C88.9824,37.4258 88.6673,37.6569 88.2676,37.8223 C87.8678,37.9876 87.4076,38.0703 86.8867,38.0703 C86.0924,38.0703 85.4603,37.9043 84.9902,37.5723 C84.5202,37.2402 84.2448,36.7878 84.1641,36.2148 L85.8008,36.1289 C85.8503,36.3711 85.9701,36.5553 86.1602,36.6816 C86.3503,36.8079 86.5938,36.8711 86.8906,36.8711 C87.1823,36.8711 87.4173,36.8145 87.5957,36.7012 C87.7741,36.5879 87.8646,36.4414 87.8672,36.2617 C87.8646,36.1107 87.8008,35.9863 87.6758,35.8887 C87.5508,35.791 87.3581,35.7161 87.0977,35.6641 L86.0586,35.457 C85.4727,35.3398 85.0371,35.1367 84.752,34.8477 C84.4668,34.5586 84.3242,34.1901 84.3242,33.7422 C84.3242,33.3568 84.429,33.0247 84.6387,32.7461 C84.8483,32.4674 85.1439,32.2526 85.5254,32.1016 C85.9069,31.9505 86.3542,31.875 86.8672,31.875 C87.625,31.875 88.222,32.0352 88.6582,32.3555 C89.0944,32.6758 89.349,33.112 89.4219,33.6641 M91.7852,37.9531 L90.1523,31.9531 L91.8359,31.9531 L92.7656,35.9844 L92.8203,35.9844 L93.7891,31.9531 L95.4414,31.9531 L96.4258,35.9609 L96.4766,35.9609 L97.3906,31.9531 L99.0703,31.9531 L97.4414,37.9531 L95.6797,37.9531 L94.6484,34.1797 L94.5742,34.1797 L93.543,37.9531 L91.7852,37.9531 M99.9453,37.9531 L99.9453,31.9531 L101.609,31.9531 L101.609,37.9531 L99.9453,37.9531 M100.781,31.1797 C100.534,31.1797 100.322,31.097 100.146,30.9316 C99.9707,30.7663 99.8828,30.5677 99.8828,30.3359 C99.8828,30.1068 99.9707,29.9095 100.146,29.7441 C100.322,29.5788 100.534,29.4961 100.781,29.4961 C101.029,29.4961 101.24,29.5788 101.416,29.7441 C101.592,29.9095 101.68,30.1068 101.68,30.3359 C101.68,30.5677 101.592,30.7663 101.416,30.9316 C101.24,31.097 101.029,31.1797 100.781,31.1797 M106.121,31.9531 L106.121,33.2031 L102.508,33.2031 L102.508,31.9531 L106.121,31.9531 M103.328,30.5156 L104.992,30.5156 L104.992,36.1094 C104.992,36.263 105.016,36.3822 105.063,36.4668 C105.109,36.5514 105.175,36.6107 105.26,36.6445 C105.344,36.6784 105.443,36.6953 105.555,36.6953 C105.633,36.6953 105.711,36.6882 105.789,36.6738 C105.867,36.6595 105.927,36.6484 105.969,36.6406 L106.23,37.8789 C106.147,37.9049 106.03,37.9355 105.879,37.9707 C105.728,38.0059 105.544,38.0273 105.328,38.0352 C104.927,38.0508 104.576,37.9974 104.275,37.875 C103.975,37.7526 103.741,37.5625 103.574,37.3047 C103.408,37.0469 103.326,36.7214 103.328,36.3281 L103.328,30.5156 M109.844,38.0703 C109.229,38.0703 108.701,37.9395 108.26,37.6777 C107.818,37.416 107.48,37.0521 107.244,36.5859 C107.008,36.1198 106.891,35.5833 106.891,34.9766 C106.891,34.362 107.01,33.8223 107.248,33.3574 C107.486,32.8926 107.826,32.5293 108.266,32.2676 C108.706,32.0059 109.229,31.875 109.836,31.875 C110.359,31.875 110.818,31.9701 111.211,32.1602 C111.604,32.3503 111.915,32.6172 112.145,32.9609 C112.374,33.3047 112.5,33.7083 112.523,34.1719 L110.953,34.1719 C110.909,33.8724 110.792,33.6309 110.604,33.4473 C110.415,33.2637 110.168,33.1719 109.863,33.1719 C109.605,33.1719 109.381,33.2415 109.189,33.3809 C108.998,33.5202 108.849,33.7227 108.742,33.9883 C108.635,34.2539 108.582,34.5755 108.582,34.9531 C108.582,35.3359 108.635,35.6615 108.74,35.9297 C108.846,36.1979 108.995,36.4023 109.188,36.543 C109.38,36.6836 109.605,36.7539 109.863,36.7539 C110.053,36.7539 110.225,36.7148 110.377,36.6367 C110.529,36.5586 110.656,36.4447 110.756,36.2949 C110.856,36.1452 110.922,35.9648 110.953,35.7539 L112.523,35.7539 C112.497,36.2122 112.373,36.6152 112.15,36.9629 C111.928,37.3105 111.621,37.582 111.23,37.7773 C110.84,37.9727 110.378,38.0703 109.844,38.0703 M115.25,34.4844 L115.25,37.9531 L113.586,37.9531 L113.586,29.9531 L115.203,29.9531 L115.203,33.0117 L115.273,33.0117 C115.409,32.6576 115.628,32.3796 115.93,32.1777 C116.232,31.9759 116.611,31.875 117.066,31.875 C117.483,31.875 117.847,31.9655 118.158,32.1465 C118.469,32.3275 118.712,32.5866 118.885,32.9238 C119.058,33.2611 119.143,33.6641 119.141,34.1328 L119.141,37.9531 L117.477,37.9531 L117.477,34.4297 C117.479,34.0599 117.386,33.7721 117.197,33.5664 C117.008,33.3607 116.745,33.2578 116.406,33.2578 C116.18,33.2578 115.98,33.306 115.807,33.4023 C115.633,33.4987 115.498,33.6387 115.4,33.8223 C115.303,34.0059 115.253,34.2266 115.25,34.4844 "/>
</g>

<g fill="#ffffff" fill-opacity="1" stroke="none" transform="matrix(1,0,0,1,0,0)"
font-family="Inter" font-size="11" font-weight="700" font-style="normal" 
>
<path vector-effect="none" fill-rule="nonzero" d="M201.945,37 L201.945,31 L203.609,31 L203.609,37 L201.945,37 M202.781,30.2266 C202.534,30.2266 202.322,30.1439 202.146,29.9785 C201.971,29.8132 201.883,29.6146 201.883,29.3828 C201.883,29.1536 201.971,28.9564 202.146,28.791 C202.322,28.6257 202.534,28.543 202.781,28.543 C203.029,28.543 203.24,28.6257 203.416,28.791 C203.592,28.9564 203.68,29.1536 203.68,29.3828 C203.68,29.6146 203.592,29.8132 203.416,29.9785 C203.24,30.1439 203.029,30.2266 202.781,30.2266 M209.922,32.7109 L208.398,32.8047 C208.372,32.6745 208.316,32.5566 208.23,32.4512 C208.145,32.3457 208.032,32.2611 207.893,32.1973 C207.753,32.1335 207.587,32.1016 207.395,32.1016 C207.137,32.1016 206.919,32.1556 206.742,32.2637 C206.565,32.3717 206.477,32.5156 206.477,32.6953 C206.477,32.8385 206.534,32.9596 206.648,33.0586 C206.763,33.1576 206.96,33.237 207.238,33.2969 L208.324,33.5156 C208.908,33.6354 209.342,33.8281 209.629,34.0938 C209.915,34.3594 210.059,34.7083 210.059,35.1406 C210.059,35.5339 209.943,35.8789 209.713,36.1758 C209.482,36.4727 209.167,36.7038 208.768,36.8691 C208.368,37.0345 207.908,37.1172 207.387,37.1172 C206.592,37.1172 205.96,36.9512 205.49,36.6191 C205.02,36.2871 204.745,35.8346 204.664,35.2617 L206.301,35.1758 C206.35,35.418 206.47,35.6022 206.66,35.7285 C206.85,35.8548 207.094,35.918 207.391,35.918 C207.682,35.918 207.917,35.8613 208.096,35.748 C208.274,35.6348 208.365,35.4883 208.367,35.3086 C208.365,35.1576 208.301,35.0332 208.176,34.9355 C208.051,34.8379 207.858,34.763 207.598,34.7109 L206.559,34.5039 C205.973,34.3867 205.537,34.1836 205.252,33.8945 C204.967,33.6055 204.824,33.237 204.824,32.7891 C204.824,32.4036 204.929,32.0716 205.139,31.793 C205.348,31.5143 205.644,31.2995 206.025,31.1484 C206.407,30.9974 206.854,30.9219 207.367,30.9219 C208.125,30.9219 208.722,31.082 209.158,31.4023 C209.594,31.7227 209.849,32.1589 209.922,32.7109 M216.84,31 L216.84,32.25 L213.227,32.25 L213.227,31 L216.84,31 M214.047,29.5625 L215.711,29.5625 L215.711,35.1563 C215.711,35.3099 215.734,35.429 215.781,35.5137 C215.828,35.5983 215.894,35.6576 215.979,35.6914 C216.063,35.7253 216.161,35.7422 216.273,35.7422 C216.352,35.7422 216.43,35.735 216.508,35.7207 C216.586,35.7064 216.646,35.6953 216.688,35.6875 L216.949,36.9258 C216.866,36.9518 216.749,36.9824 216.598,37.0176 C216.447,37.0527 216.263,37.0742 216.047,37.082 C215.646,37.0977 215.295,37.0443 214.994,36.9219 C214.693,36.7995 214.46,36.6094 214.293,36.3516 C214.126,36.0938 214.044,35.7682 214.047,35.375 L214.047,29.5625 M220.563,37.1172 C219.956,37.1172 219.432,36.9876 218.99,36.7285 C218.549,36.4694 218.208,36.1074 217.969,35.6426 C217.729,35.1777 217.609,34.638 217.609,34.0234 C217.609,33.4036 217.729,32.8613 217.969,32.3965 C218.208,31.9316 218.549,31.5697 218.99,31.3105 C219.432,31.0514 219.956,30.9219 220.563,30.9219 C221.169,30.9219 221.693,31.0514 222.135,31.3105 C222.576,31.5697 222.917,31.9316 223.156,32.3965 C223.396,32.8613 223.516,33.4036 223.516,34.0234 C223.516,34.638 223.396,35.1777 223.156,35.6426 C222.917,36.1074 222.576,36.4694 222.135,36.7285 C221.693,36.9876 221.169,37.1172 220.563,37.1172 M220.57,35.8281 C220.846,35.8281 221.077,35.7493 221.262,35.5918 C221.447,35.4342 221.587,35.2188 221.682,34.9453 C221.777,34.6719 221.824,34.3607 221.824,34.0117 C221.824,33.6628 221.777,33.3516 221.682,33.0781 C221.587,32.8047 221.447,32.5885 221.262,32.4297 C221.077,32.2708 220.846,32.1914 220.57,32.1914 C220.292,32.1914 220.058,32.2708 219.869,32.4297 C219.68,32.5885 219.538,32.8047 219.443,33.0781 C219.348,33.3516 219.301,33.6628 219.301,34.0117 C219.301,34.3607 219.348,34.6719 219.443,34.9453 C219.538,35.2188 219.68,35.4342 219.869,35.5918 C220.058,35.7493 220.292,35.8281 220.57,35.8281 M227.305,39.375 C226.766,39.375 226.304,39.3014 225.92,39.1543 C225.536,39.0072 225.23,38.8073 225.004,38.5547 C224.777,38.3021 224.63,38.0182 224.563,37.7031 L226.102,37.4961 C226.148,37.6159 226.223,37.7279 226.324,37.832 C226.426,37.9362 226.561,38.0202 226.729,38.084 C226.896,38.1478 227.102,38.1797 227.344,38.1797 C227.706,38.1797 228.005,38.0918 228.24,37.916 C228.476,37.7402 228.594,37.4466 228.594,37.0352 L228.594,35.9375 L228.523,35.9375 C228.451,36.1042 228.341,36.2617 228.195,36.4102 C228.049,36.5586 227.862,36.6797 227.633,36.7734 C227.404,36.8672 227.13,36.9141 226.813,36.9141 C226.362,36.9141 225.952,36.8092 225.584,36.5996 C225.215,36.39 224.923,36.0684 224.705,35.6348 C224.488,35.2012 224.379,34.6523 224.379,33.9883 C224.379,33.3086 224.49,32.7409 224.711,32.2852 C224.932,31.8294 225.227,31.4883 225.596,31.2617 C225.964,31.0352 226.368,30.9219 226.809,30.9219 C227.145,30.9219 227.426,30.9785 227.652,31.0918 C227.879,31.2051 228.062,31.3457 228.201,31.5137 C228.34,31.6816 228.448,31.8464 228.523,32.0078 L228.586,32.0078 L228.586,31 L230.238,31 L230.238,37.0586 C230.238,37.569 230.113,37.9961 229.863,38.3398 C229.613,38.6836 229.268,38.9421 228.826,39.1152 C228.385,39.2884 227.878,39.375 227.305,39.375 M227.34,35.6641 C227.608,35.6641 227.835,35.597 228.021,35.4629 C228.208,35.3288 228.351,35.1361 228.451,34.8848 C228.551,34.6335 228.602,34.332 228.602,33.9805 C228.602,33.6289 228.552,33.3236 228.453,33.0645 C228.354,32.8053 228.211,32.6042 228.023,32.4609 C227.836,32.3177 227.608,32.2461 227.34,32.2461 C227.066,32.2461 226.836,32.3197 226.648,32.4668 C226.461,32.6139 226.319,32.8177 226.223,33.0781 C226.126,33.3385 226.078,33.6393 226.078,33.9805 C226.078,34.3268 226.127,34.6257 226.225,34.877 C226.322,35.1283 226.464,35.3223 226.65,35.459 C226.837,35.5957 227.066,35.6641 227.34,35.6641 M234.258,39.375 C233.719,39.375 233.257,39.3014 232.873,39.1543 C232.489,39.0072 232.184,38.8073 231.957,38.5547 C231.73,38.3021 231.583,38.0182 231.516,37.7031 L233.055,37.4961 C233.102,37.6159 233.176,37.7279 233.277,37.832 C233.379,37.9362 233.514,38.0202 233.682,38.084 C233.85,38.1478 234.055,38.1797 234.297,38.1797 C234.659,38.1797 234.958,38.0918 235.193,37.916 C235.429,37.7402 235.547,37.4466 235.547,37.0352 L235.547,35.9375 L235.477,35.9375 C235.404,36.1042 235.294,36.2617 235.148,36.4102 C235.003,36.5586 234.815,36.6797 234.586,36.7734 C234.357,36.8672 234.083,36.9141 233.766,36.9141 C233.315,36.9141 232.906,36.8092 232.537,36.5996 C232.169,36.39 231.876,36.0684 231.658,35.6348 C231.441,35.2012 231.332,34.6523 231.332,33.9883 C231.332,33.3086 231.443,32.7409 231.664,32.2852 C231.885,31.8294 232.18,31.4883 232.549,31.2617 C232.917,31.0352 233.322,30.9219 233.762,30.9219 C234.098,30.9219 234.379,30.9785 234.605,31.0918 C234.832,31.2051 235.015,31.3457 235.154,31.5137 C235.294,31.6816 235.401,31.8464 235.477,32.0078 L235.539,32.0078 L235.539,31 L237.191,31 L237.191,37.0586 C237.191,37.569 237.066,37.9961 236.816,38.3398 C236.566,38.6836 236.221,38.9421 235.779,39.1152 C235.338,39.2884 234.831,39.375 234.258,39.375 M234.293,35.6641 C234.561,35.6641 234.788,35.597 234.975,35.4629 C235.161,35.3288 235.304,35.1361 235.404,34.8848 C235.505,34.6335 235.555,34.332 235.555,33.9805 C235.555,33.6289 235.505,33.3236 235.406,33.0645 C235.307,32.8053 235.164,32.6042 234.977,32.4609 C234.789,32.3177 234.561,32.2461 234.293,32.2461 C234.02,32.2461 233.789,32.3197 233.602,32.4668 C233.414,32.6139 233.272,32.8177 233.176,33.0781 C233.079,33.3385 233.031,33.6393 233.031,33.9805 C233.031,34.3268 233.08,34.6257 233.178,34.877 C233.275,35.1283 233.417,35.3223 233.604,35.459 C233.79,35.5957 234.02,35.6641 234.293,35.6641 M240.172,29 L240.172,37 L238.508,37 L238.508,29 L240.172,29 M244.227,37.1172 C243.609,37.1172 243.079,36.9915 242.635,36.7402 C242.191,36.4889 241.849,36.1322 241.609,35.6699 C241.37,35.2077 241.25,34.6602 241.25,34.0273 C241.25,33.4102 241.37,32.8685 241.609,32.4023 C241.849,31.9362 242.187,31.5729 242.623,31.3125 C243.059,31.0521 243.572,30.9219 244.16,30.9219 C244.556,30.9219 244.925,30.985 245.268,31.1113 C245.61,31.2376 245.91,31.4271 246.166,31.6797 C246.423,31.9323 246.622,32.2493 246.766,32.6309 C246.909,33.0124 246.98,33.4583 246.98,33.9688 L246.98,34.4258 L241.914,34.4258 L241.914,33.3945 L245.414,33.3945 C245.414,33.1549 245.362,32.9427 245.258,32.7578 C245.154,32.5729 245.01,32.4277 244.826,32.3223 C244.643,32.2168 244.43,32.1641 244.188,32.1641 C243.935,32.1641 243.712,32.222 243.518,32.3379 C243.324,32.4538 243.172,32.6087 243.063,32.8027 C242.953,32.9967 242.897,33.2122 242.895,33.4492 L242.895,34.4297 C242.895,34.7266 242.95,34.9831 243.061,35.1992 C243.171,35.4154 243.328,35.582 243.531,35.6992 C243.734,35.8164 243.975,35.875 244.254,35.875 C244.439,35.875 244.608,35.849 244.762,35.7969 C244.915,35.7448 245.047,35.6667 245.156,35.5625 C245.266,35.4583 245.349,35.3307 245.406,35.1797 L246.945,35.2813 C246.867,35.651 246.708,35.9733 246.467,36.248 C246.226,36.5228 245.916,36.7363 245.537,36.8887 C245.158,37.041 244.721,37.1172 244.227,37.1172 M250.266,37.0977 C249.81,37.0977 249.398,36.9798 249.029,36.7441 C248.661,36.5085 248.369,36.1608 248.154,35.7012 C247.939,35.2415 247.832,34.6771 247.832,34.0078 C247.832,33.3203 247.943,32.748 248.164,32.291 C248.385,31.834 248.68,31.4915 249.049,31.2637 C249.417,31.0358 249.822,30.9219 250.262,30.9219 C250.598,30.9219 250.878,30.9785 251.104,31.0918 C251.329,31.2051 251.511,31.3457 251.65,31.5137 C251.79,31.6816 251.896,31.8464 251.969,32.0078 L252.02,32.0078 L252.02,29 L253.68,29 L253.68,37 L252.039,37 L252.039,36.0391 L251.969,36.0391 C251.891,36.2057 251.781,36.3704 251.639,36.5332 C251.497,36.696 251.313,36.8307 251.088,36.9375 C250.863,37.0443 250.589,37.0977 250.266,37.0977 M250.793,35.7734 C251.061,35.7734 251.288,35.6999 251.475,35.5527 C251.661,35.4056 251.804,35.1992 251.904,34.9336 C252.005,34.668 252.055,34.3568 252.055,34 C252.055,33.6432 252.005,33.3333 251.906,33.0703 C251.807,32.8073 251.664,32.6042 251.477,32.4609 C251.289,32.3177 251.061,32.2461 250.793,32.2461 C250.52,32.2461 250.289,32.3203 250.102,32.4688 C249.914,32.6172 249.772,32.8229 249.676,33.0859 C249.579,33.349 249.531,33.6536 249.531,34 C249.531,34.349 249.58,34.6569 249.678,34.9238 C249.775,35.1908 249.917,35.3991 250.104,35.5488 C250.29,35.6986 250.52,35.7734 250.793,35.7734 "/>
</g>

<g fill="#ffffff" fill-opacity="1" stroke="none" transform="matrix(0.95,0,0,0.95,11.6,25.6)"
font-family="Inter" font-size="11" font-weight="700" font-style="normal" 
>
<path vector-effect="none" fill-rule="nonzero" d="M2.19896,4.65234 C1.18891,4.65234 0.375703,5.46549 0.375703,6.47555 L0.375703,8.579 C1.00152,8.60331 1.67842,9.11362 1.67842,9.74561 L1.67842,14.2544 C1.67842,14.8864 1.00152,15.3967 0.375703,15.421 L0.375703,17.5245 C0.375703,18.5345 1.18891,19.3477 2.19896,19.3477 L21.8479,19.3477 C22.858,19.3477 23.6711,18.5345 23.6711,17.5245 L23.6711,6.47555 C23.6711,5.46549 22.858,4.65234 21.8479,4.65234 L2.19896,4.65234 M6.71936,9.23098 C8.56166,9.23097 10.0552,10.7245 10.0552,12.5668 C10.0552,14.4091 8.56167,15.9026 6.71936,15.9026 C4.87705,15.9026 3.38355,14.4091 3.38355,12.5668 C3.38355,10.7245 4.87705,9.23097 6.71936,9.23098 M19.875,9.24873 C20.7082,9.24871 21.3837,9.92418 21.3837,10.7574 C21.3837,11.5906 20.7082,12.266 19.875,12.266 C19.0418,12.266 18.3664,11.5906 18.3664,10.7574 C18.3664,9.9242 19.0418,9.24874 19.875,9.24873 M17.4318,12.8825 C18.265,12.8825 18.9404,13.558 18.9404,14.3912 C18.9404,15.2243 18.2649,15.8998 17.4318,15.8998 C16.5986,15.8998 15.9231,15.2244 15.9231,14.3912 C15.9231,13.5579 16.5985,12.8825 17.4318,12.8825 "/>
</g>

<g fill="none" stroke="#000000" stroke-opacity="1" stroke-width="0.54" stroke-linecap="butt" stroke-linejoin="miter" stroke-miterlimit="4" transform="matrix(0.95,0,0,0.95,11.6,25.6)"
font-family="Inter" font-size="11" font-weight="700" font-style="normal" 
>
<path vector-effect="none" fill-rule="nonzero" d="M2.19896,4.65234 C1.18891,4.65234 0.375703,5.46549 0.375703,6.47555 L0.375703,8.579 C1.00152,8.60331 1.67842,9.11362 1.67842,9.74561 L1.67842,14.2544 C1.67842,14.8864 1.00152,15.3967 0.375703,15.421 L0.375703,17.5245 C0.375703,18.5345 1.18891,19.3477 2.19896,19.3477 L21.8479,19.3477 C22.858,19.3477 23.6711,18.5345 23.6711,17.5245 L23.6711,6.47555 C23.6711,5.46549 22.858,4.65234 21.8479,4.65234 L2.19896,4.65234 M6.71936,9.23098 C8.56166,9.23097 10.0552,10.7245 10.0552,12.5668 C10.0552,14.4091 8.56167,15.9026 6.71936,15.9026 C4.87705,15.9026 3.38355,14.4091 3.38355,12.5668 C3.38355,10.7245 4.87705,9.23097 6.71936,9.23098 M19.875,9.24873 C20.7082,9.24871 21.3837,9.92418 21.3837,10.7574 C21.3837,11.5906 20.7082,12.266 19.875,12.266 C19.0418,12.266 18.3664,11.5906 18.3664,10.7574 C18.3664,9.9242 19.0418,9.24874 19.875,9.24873 M17.4318,12.8825 C18.265,12.8825 18.9404,13.558 18.9404,14.3912 C18.9404,15.2243 18.2649,15.8998 17.4318,15.8998 C16.5986,15.8998 15.9231,15.2244 15.9231,14.3912 C15.9231,13.5579 16.5985,12.8825 17.4318,12.8825 "/>
</g>

<g fill="#000000" fill-opacity="1" stroke="none" transform="matrix(0.95,0,0,0.95,11.6,25.6)"
font-family="Inter" font-size="11" font-weight="700" font-style="normal" 
>
<path vector-effect="none" fill-rule="nonzero" d="M0.108328,15.3227 L0.103298,8.65983 L1.21825,8.7259 L1.75102,9.37791 L1.70662,12.9064 L1.66222,14.5556 L1.04066,15.0542 L0.108328,15.3227"/>
</g>

<g fill="#000000" fill-opacity="1" stroke="none" transform="matrix(0.95,0,0,0.95,11.6,25.6)"
font-family="Inter" font-size="11" font-weight="700" font-style="normal" 
>
<circle cx="6.70111" cy="12.5452" r="1.68266"/>
</g>

<g fill="none" stroke="#000000" stroke-opacity="1" stroke-width="0.54" stroke-linecap="butt" stroke-linejoin="miter" stroke-miterlimit="4" transform="matrix(0.95,0,0,0.95,11.6,25.6)"
font-family="Inter" font-size="11" font-weight="700" font-style="normal" 
>
<circle cx="6.70111" cy="12.5452" r="1.68266"/>
</g>

<g fill="#000000" fill-opacity="1" stroke="none" transform="matrix(0.95,0,0,0.95,11.6,25.6)"
font-family="Inter" font-size="11" font-weight="700" font-style="normal" 
opacity="0.858824" >
<path vector-effect="none" fill-rule="evenodd" d="M8.42109,18.1373 C8.42109,18.0846 8.46385,18.0418 8.51661,18.0418 L15.4834,18.0418 C15.5361,18.0418 15.5789,18.0846 15.5789,18.1373 L15.5789,18.1373 C15.5789,18.1901 15.5361,18.2329 15.4834,18.2329 L8.51661,18.2329 C8.46385,18.2329 8.42109,18.1901 8.42109,18.1373 L8.42109,18.1373"/>
</g>

<g fill="none" stroke="#000000" stroke-opacity="1" stroke-width="0.437534" stroke-linecap="butt" stroke-linejoin="miter" stroke-miterlimit="4" transform="matrix(0.95,0,0,0.95,11.6,25.6)"
font-family="Inter" font-size="11" font-weight="700" font-style="normal" 
>
<path vector-effect="none" fill-rule="evenodd" d="M8.42109,18.1373 C8.42109,18.0846 8.46385,18.0418 8.51661,18.0418 L15.4834,18.0418 C15.5361,18.0418 15.5789,18.0846 15.5789,18.1373 L15.5789,18.1373 C15.5789,18.1901 15.5361,18.2329 15.4834,18.2329 L8.51661,18.2329 C8.46385,18.2329 8.42109,18.1901 8.42109,18.1373 L8.42109,18.1373"/>
</g>

<g fill="#ffffff" fill-opacity="1" stroke="none" transform="matrix(1,0,0,1,0,0)"
font-family="Inter" font-size="11" font-weight="700" font-style="normal" 
>
</g>

<g fill="#ffffff" fill-opacity="1" stroke="#00645c" stroke-opacity="1" stroke-width="1" stroke-linecap="square" stroke-linejoin="bevel" transform="matrix(1,0,0,1,0,0)"
font-family="Inter" font-size="11" font-weight="700" font-style="normal" 
>
<polyline fill="none" vector-effect="none" points="45,27 45,47 " />
</g>

<g fill="#009f94" fill-opacity="1" stroke="#00645c" stroke-opacity="1" stroke-width="1.2" stroke-linecap="square" stroke-linejoin="bevel" transform="matrix(1,0,0,1,125,22)"
font-family="Inter" font-size="11" font-weight="700" font-style="normal" 
>
<path vector-effect="none" fill-rule="evenodd" d="M0.5,3.5 C0.5,1.84315 1.84315,0.5 3.5,0.5 L67.5,0.5 C69.1569,0.5 70.5,1.84315 70.5,3.5 L70.5,20.5 C70.5,22.1569 69.1569,23.5 67.5,23.5 L3.5,23.5 C1.84315,23.5 0.5,22.1569 0.5,20.5 L0.5,3.5"/>
</g>

<g fill="#ffffff" fill-opacity="1" stroke="none" transform="matrix(1,0,0,1,125,22)"
font-family="Inter" font-size="11" font-weight="700" font-style="normal" 
>
<path vector-effect="none" fill-rule="nonzero" d="M14.5977,10.2383 C14.5664,9.92318 14.4323,9.67839 14.1953,9.50391 C13.9583,9.32943 13.6367,9.24219 13.2305,9.24219 C12.9544,9.24219 12.7214,9.2806 12.5313,9.35742 C12.3411,9.43424 12.196,9.54036 12.0957,9.67578 C11.9954,9.8112 11.9453,9.96484 11.9453,10.1367 C11.9401,10.2799 11.9707,10.4049 12.0371,10.5117 C12.1035,10.6185 12.1953,10.7103 12.3125,10.7871 C12.4297,10.8639 12.5651,10.9303 12.7188,10.9863 C12.8724,11.0423 13.0365,11.0898 13.2109,11.1289 L13.9297,11.3008 C14.2786,11.3789 14.599,11.4831 14.8906,11.6133 C15.1823,11.7435 15.4349,11.9036 15.6484,12.0938 C15.862,12.2839 16.028,12.5078 16.1465,12.7656 C16.265,13.0234 16.3255,13.319 16.3281,13.6523 C16.3255,14.1419 16.2012,14.5658 15.9551,14.9238 C15.709,15.2819 15.3548,15.5592 14.8926,15.7559 C14.4303,15.9525 13.8737,16.0508 13.2227,16.0508 C12.5768,16.0508 12.015,15.9518 11.5371,15.7539 C11.0592,15.556 10.6868,15.2624 10.4199,14.873 C10.153,14.4837 10.013,14.0013 10,13.4258 L11.6367,13.4258 C11.6549,13.694 11.7324,13.9173 11.8691,14.0957 C12.0059,14.2741 12.1895,14.4082 12.4199,14.498 C12.6504,14.5879 12.9115,14.6328 13.2031,14.6328 C13.4896,14.6328 13.7389,14.5911 13.9512,14.5078 C14.1634,14.4245 14.3281,14.3086 14.4453,14.1602 C14.5625,14.0117 14.6211,13.8411 14.6211,13.6484 C14.6211,13.4688 14.5684,13.3177 14.4629,13.1953 C14.3574,13.0729 14.2038,12.9688 14.002,12.8828 C13.8001,12.7969 13.5534,12.7188 13.2617,12.6484 L12.3906,12.4297 C11.7161,12.2656 11.1836,12.0091 10.793,11.6602 C10.4023,11.3112 10.2083,10.8411 10.2109,10.25 C10.2083,9.76563 10.3379,9.34245 10.5996,8.98047 C10.8613,8.61849 11.2214,8.33594 11.6797,8.13281 C12.138,7.92969 12.6589,7.82813 13.2422,7.82813 C13.8359,7.82813 14.3548,7.92969 14.7988,8.13281 C15.2428,8.33594 15.5885,8.61849 15.8359,8.98047 C16.0833,9.34245 16.2109,9.76172 16.2188,10.2383 L14.5977,10.2383 M19.2617,15.9375 L16.9727,7.9375 L18.8203,7.9375 L20.1445,13.4961 L20.2109,13.4961 L21.6719,7.9375 L23.2539,7.9375 L24.7109,13.5078 L24.7813,13.5078 L26.1055,7.9375 L27.9531,7.9375 L25.6641,15.9375 L24.0156,15.9375 L22.4922,10.707 L22.4297,10.707 L20.9102,15.9375 L19.2617,15.9375 M35.457,10.7383 L33.7461,10.7383 C33.7148,10.5169 33.651,10.3197 33.5547,10.1465 C33.4583,9.97331 33.3346,9.82552 33.1836,9.70313 C33.0326,9.58073 32.8587,9.48698 32.6621,9.42188 C32.4655,9.35677 32.2526,9.32422 32.0234,9.32422 C31.6094,9.32422 31.2487,9.42643 30.9414,9.63086 C30.6341,9.83529 30.3958,10.1322 30.2266,10.5215 C30.0573,10.9108 29.9727,11.3828 29.9727,11.9375 C29.9727,12.5078 30.0579,12.987 30.2285,13.375 C30.3991,13.763 30.638,14.056 30.9453,14.2539 C31.2526,14.4518 31.6081,14.5508 32.0117,14.5508 C32.2383,14.5508 32.4486,14.5208 32.6426,14.4609 C32.8366,14.401 33.0091,14.3132 33.1602,14.1973 C33.3112,14.0814 33.4368,13.9401 33.5371,13.7734 C33.6374,13.6068 33.707,13.4167 33.7461,13.2031 L35.457,13.2109 C35.4128,13.5781 35.3027,13.9316 35.127,14.2715 C34.9512,14.6113 34.7155,14.9147 34.4199,15.1816 C34.1243,15.4486 33.7728,15.6595 33.3652,15.8145 C32.9577,15.9694 32.4974,16.0469 31.9844,16.0469 C31.2708,16.0469 30.6335,15.8854 30.0723,15.5625 C29.5111,15.2396 29.0684,14.7721 28.7441,14.1602 C28.4199,13.5482 28.2578,12.8073 28.2578,11.9375 C28.2578,11.0651 28.4219,10.3229 28.75,9.71094 C29.0781,9.09896 29.5234,8.63216 30.0859,8.31055 C30.6484,7.98893 31.2813,7.82813 31.9844,7.82813 C32.4479,7.82813 32.8783,7.89323 33.2754,8.02344 C33.6725,8.15365 34.0247,8.3431 34.332,8.5918 C34.6393,8.84049 34.89,9.14453 35.084,9.50391 C35.278,9.86328 35.4023,10.2747 35.457,10.7383 M36.6641,15.9375 L36.6641,7.9375 L38.3555,7.9375 L38.3555,11.2383 L41.7891,11.2383 L41.7891,7.9375 L43.4766,7.9375 L43.4766,15.9375 L41.7891,15.9375 L41.7891,12.6328 L38.3555,12.6328 L38.3555,15.9375 L36.6641,15.9375 M48.3008,7.9375 L48.3008,15.9375 L46.6094,15.9375 L46.6094,9.54297 L46.5625,9.54297 L44.7305,10.6914 L44.7305,9.19141 L46.7109,7.9375 L48.3008,7.9375"/>
</g>

<g fill="#ffffff" fill-opacity="1" stroke="none" transform="matrix(0.03125,0,0,0.03125,182,30)"
font-family="Inter" font-size="11" font-weight="700" font-style="normal" 
>
<path vector-effect="none" fill-rule="nonzero" d="M111.326,191.938 C120.545,201.158 135.517,201.158 144.737,191.938 L239.144,97.5313 C245.929,90.7458 247.921,80.6413 244.233,71.7907 C240.545,62.9401 231.989,57.1871 222.401,57.1871 L33.5875,57.2608 C24.0731,57.2608 15.4437,63.0137 11.7559,71.8644 C8.06815,80.715 10.1333,90.8195 16.845,97.605 L111.252,192.012 L111.326,191.938"/>
</g>

<g fill="none" stroke="#000000" stroke-opacity="1" stroke-width="13.7195" stroke-linecap="butt" stroke-linejoin="miter" stroke-miterlimit="4" transform="matrix(0.03125,0,0,0.03125,182,30)"
font-family="Inter" font-size="11" font-weight="700" font-style="normal" 
>
<path vector-effect="none" fill-rule="nonzero" d="M111.326,191.938 C120.545,201.158 135.517,201.158 144.737,191.938 L239.144,97.5313 C245.929,90.7458 247.921,80.6413 244.233,71.7907 C240.545,62.9401 231.989,57.1871 222.401,57.1871 L33.5875,57.2608 C24.0731,57.2608 15.4437,63.0137 11.7559,71.8644 C8.06815,80.715 10.1333,90.8195 16.845,97.605 L111.252,192.012 L111.326,191.938"/>
</g>

<g fill="#ffffff" fill-opacity="1" stroke="none" transform="matrix(1,0,0,1,125,22)"
font-family="Inter" font-size="11" font-weight="700" font-style="normal" 
>
</g>

<g fill="#ffffff" fill-opacity="1" stroke="#00645c" stroke-opacity="1" stroke-width="1" stroke-linecap="square" stroke-linejoin="bevel" transform="matrix(1,0,0,1,0,0)"
font-family="Inter" font-size="11" font-weight="700" font-style="normal" 
>
</g>

<g fill="#009f94" fill-opacity="1" stroke="#00645c" stroke-opacity="1" stroke-width="1.2" stroke-linecap="square" stroke-linejoin="bevel" transform="matrix(1,0,0,1,260,22)"
font-family="Inter" font-size="11" font-weight="700" font-style="normal" 
>
<path vector-effect="none" fill-rule="evenodd" d="M0.5,3.5 C0.5,1.84315 1.84315,0.5 3.5,0.5 L42.5,0.5 C44.1569,0.5 45.5,1.84315 45.5,3.5 L45.5,20.5 C45.5,22.1569 44.1569,23.5 42.5,23.5 L3.5,23.5 C1.84315,23.5 0.5,22.1569 0.5,20.5 L0.5,3.5"/>
</g>

<g fill="#ffffff" fill-opacity="1" stroke="none" transform="matrix(1,0,0,1,260,22)"
font-family="Inter" font-size="11" font-weight="700" font-style="normal" 
>
<path vector-effect="none" fill-rule="nonzero" d="M13.9531,15.0547 C13.3464,15.0547 12.8223,14.9251 12.3809,14.666 C11.9395,14.4069 11.599,14.0449 11.3594,13.5801 C11.1198,13.1152 11,12.5755 11,11.9609 C11,11.3411 11.1198,10.7988 11.3594,10.334 C11.599,9.86914 11.9395,9.50716 12.3809,9.24805 C12.8223,8.98893 13.3464,8.85938 13.9531,8.85938 C14.5599,8.85938 15.084,8.98893 15.5254,9.24805 C15.9668,9.50716 16.3073,9.86914 16.5469,10.334 C16.7865,10.7988 16.9063,11.3411 16.9063,11.9609 C16.9063,12.5755 16.7865,13.1152 16.5469,13.5801 C16.3073,14.0449 15.9668,14.4069 15.5254,14.666 C15.084,14.9251 14.5599,15.0547 13.9531,15.0547 M13.9609,13.7656 C14.237,13.7656 14.4674,13.6868 14.6523,13.5293 C14.8372,13.3717 14.9772,13.1563 15.0723,12.8828 C15.1673,12.6094 15.2148,12.2982 15.2148,11.9492 C15.2148,11.6003 15.1673,11.2891 15.0723,11.0156 C14.9772,10.7422 14.8372,10.526 14.6523,10.3672 C14.4674,10.2083 14.237,10.1289 13.9609,10.1289 C13.6823,10.1289 13.4486,10.2083 13.2598,10.3672 C13.071,10.526 12.929,10.7422 12.834,11.0156 C12.7389,11.2891 12.6914,11.6003 12.6914,11.9492 C12.6914,12.2982 12.7389,12.6094 12.834,12.8828 C12.929,13.1563 13.071,13.3717 13.2598,13.5293 C13.4486,13.6868 13.6823,13.7656 13.9609,13.7656 M19.6563,11.4688 L19.6563,14.9375 L17.9922,14.9375 L17.9922,8.9375 L19.5781,8.9375 L19.5781,9.99609 L19.6484,9.99609 C19.7813,9.64714 20.0039,9.37044 20.3164,9.16602 C20.6289,8.96159 21.0078,8.85938 21.4531,8.85938 C21.8698,8.85938 22.2331,8.95052 22.543,9.13281 C22.8529,9.3151 23.0938,9.57487 23.2656,9.91211 C23.4375,10.2493 23.5234,10.651 23.5234,11.1172 L23.5234,14.9375 L21.8594,14.9375 L21.8594,11.4141 C21.862,11.0469 21.7682,10.7598 21.5781,10.5527 C21.388,10.3457 21.1263,10.2422 20.793,10.2422 C20.569,10.2422 20.3717,10.2904 20.2012,10.3867 C20.0306,10.4831 19.8978,10.623 19.8027,10.8066 C19.7077,10.9902 19.6589,11.2109 19.6563,11.4688 "/>
</g>

<g fill="#ffffff" fill-opacity="1" stroke="none" transform="matrix(0.03125,0,0,0.03125,292,30)"
font-family="Inter" font-size="11" font-weight="700" font-style="normal" 
>
<path vector-effect="none" fill-rule="nonzero" d="M111.326,191.938 C120.545,201.158 135.517,201.158 144.737,191.938 L239.144,97.5313 C245.929,90.7458 247.921,80.6413 244.233,71.7907 C240.545,62.9401 231.989,57.1871 222.401,57.1871 L33.5875,57.2608 C24.0731,57.2608 15.4437,63.0137 11.7559,71.8644 C8.06815,80.715 10.1333,90.8195 16.845,97.605 L111.252,192.012 L111.326,191.938"/>
</g>

<g fill="none" stroke="#000000" stroke-opacity="1" stroke-width="13.7195" stroke-linecap="butt" stroke-linejoin="miter" stroke-miterlimit="4" transform="matrix(0.03125,0,0,0.03125,292,30)"
font-family="Inter" font-size="11" font-weight="700" font-style="normal" 
>
<path vector-effect="none" fill-rule="nonzero" d="M111.326,191.938 C120.545,201.158 135.517,201.158 144.737,191.938 L239.144,97.5313 C245.929,90.7458 247.921,80.6413 244.233,71.7907 C240.545,62.9401 231.989,57.1871 222.401,57.1871 L33.5875,57.2608 C24.0731,57.2608 15.4437,63.0137 11.7559,71.8644 C8.06815,80.715 10.1333,90.8195 16.845,97.605 L111.252,192.012 L111.326,191.938"/>
</g>

<g fill="#ffffff" fill-opacity="1" stroke="none" transform="matrix(1,0,0,1,260,22)"
font-family="Inter" font-size="11" font-weight="700" font-style="normal" 
>
</g>

<g fill="#ffffff" fill-opacity="1" stroke="#00645c" stroke-opacity="1" stroke-width="1" stroke-linecap="square" stroke-linejoin="bevel" transform="matrix(1,0,0,1,0,0)"
font-family="Inter" font-size="11" font-weight="700" font-style="normal" 
>
</g>

<g fill="#ffffff" fill-opacity="1" stroke="#00645c" stroke-opacity="1" stroke-width="1" stroke-linecap="square" stroke-linejoin="bevel" transform="matrix(1,0,0,1,0,0)"
font-family="Inter" font-size="11" font-weight="700" font-style="normal" 
>
</g>

<g fill="none" stroke="#000000" stroke-opacity="1" stroke-width="1" stroke-linecap="square" stroke-linejoin="bevel" transform="matrix(1,0,0,1,0,0)"
font-family=".AppleSystemUIFont" font-size="13" font-weight="400" font-style="normal" 
>
</g>
</g>
</svg>
