<?xml version="1.0" encoding="UTF-8" standalone="no"?>
<svg width="48.3306mm" height="15.5222mm"
 viewBox="0 0 137 44"
 xmlns="http://www.w3.org/2000/svg" xmlns:xlink="http://www.w3.org/1999/xlink" version="1.2" baseProfile="tiny">
<title>Abstract block</title>
<desc>block_control_wait_for</desc>
<defs>
</defs>
<g fill="none" stroke="black" stroke-width="1" fill-rule="evenodd" stroke-linecap="square" stroke-linejoin="bevel" >

<g fill="none" stroke="#000000" stroke-opacity="1" stroke-width="1" stroke-linecap="square" stroke-linejoin="bevel" transform="matrix(1,0,0,1,0,0)"
font-family=".AppleSystemUIFont" font-size="13" font-weight="400" font-style="normal" 
>
</g>

<g fill="none" stroke="#000000" stroke-opacity="1" stroke-width="1" stroke-linecap="square" stroke-linejoin="bevel" transform="matrix(1,0,0,1,0,0)"
font-family=".AppleSystemUIFont" font-size="13" font-weight="400" font-style="normal" 
>
</g>

<g fill="#ffb515" fill-opacity="1" stroke="#d89400" stroke-opacity="1" stroke-width="1.2" stroke-linecap="square" stroke-linejoin="bevel" transform="matrix(1,0,0,1,0,0)"
font-family=".AppleSystemUIFont" font-size="13" font-weight="400" font-style="normal" 
>
<path vector-effect="none" fill-rule="evenodd" d="M0.5,4.5 L1.04612,2.48112 L2.48112,1.04612 L4.5,0.5 L9.625,0.5 L10.416,0.976563 L11.1719,1.6875 L11.998,2.67969 L13,4 L13.7559,4.66016 L14.5469,5.15625 L15.4082,5.51172 L16.375,5.75 L17.4824,5.89453 L18.7656,5.96875 L20.2598,5.99609 L22,6 L23.7402,5.99609 L25.2344,5.96875 L26.5176,5.89453 L27.625,5.75 L28.5918,5.51172 L29.4531,5.15625 L30.2441,4.66016 L31,4 L32.002,2.67969 L32.8281,1.6875 L33.584,0.976563 L34.375,0.5 L131.567,0.5 L133.586,1.04612 L135.021,2.48112 L135.567,4.5 L135.567,31.5 L135.021,33.5189 L133.586,34.9539 L131.567,35.5 L34.375,35.5 L33.584,35.9766 L32.8281,36.6875 L32.002,37.6797 L31,39 L30.2441,39.6602 L29.4531,40.1563 L28.5918,40.5117 L27.625,40.75 L26.5176,40.8945 L25.2344,40.9688 L23.7402,40.9961 L22,41 L20.2598,40.9961 L18.7656,40.9688 L17.4824,40.8945 L16.375,40.75 L15.4082,40.5117 L14.5469,40.1563 L13.7559,39.6602 L13,39 L11.998,37.6797 L11.1719,36.6875 L10.416,35.9766 L9.625,35.5 L4.5,35.5 L2.48112,34.9539 L1.04612,33.5189 L0.5,31.5 L0.5,4.5"/>
</g>

<g fill="#ffffff" fill-opacity="1" stroke="none" transform="matrix(1,0,0,1,0,0)"
font-family="Inter" font-size="11" font-weight="700" font-style="normal" 
>
<path vector-effect="none" fill-rule="nonzero" d="M13.8789,21.9531 L12.2461,15.9531 L13.9297,15.9531 L14.8594,19.9844 L14.9141,19.9844 L15.8828,15.9531 L17.5352,15.9531 L18.5195,19.9609 L18.5703,19.9609 L19.4844,15.9531 L21.1641,15.9531 L19.5352,21.9531 L17.7734,21.9531 L16.7422,18.1797 L16.668,18.1797 L15.6367,21.9531 L13.8789,21.9531 M23.75,22.0664 C23.3672,22.0664 23.026,21.9993 22.7266,21.8652 C22.4271,21.7311 22.1908,21.5319 22.0176,21.2676 C21.8444,21.0033 21.7578,20.6732 21.7578,20.2773 C21.7578,19.944 21.819,19.6641 21.9414,19.4375 C22.0638,19.2109 22.2305,19.0286 22.4414,18.8906 C22.6523,18.7526 22.8926,18.6484 23.1621,18.5781 C23.4316,18.5078 23.7148,18.4583 24.0117,18.4297 C24.3607,18.3932 24.6419,18.3587 24.8555,18.3262 C25.069,18.2936 25.224,18.2448 25.3203,18.1797 C25.4167,18.1146 25.4648,18.0182 25.4648,17.8906 L25.4648,17.8672 C25.4648,17.6198 25.3874,17.4284 25.2324,17.293 C25.0775,17.1576 24.8581,17.0898 24.5742,17.0898 C24.2747,17.0898 24.0365,17.1556 23.8594,17.2871 C23.6823,17.4186 23.5651,17.5833 23.5078,17.7813 L21.9688,17.6563 C22.0469,17.2917 22.2005,16.9759 22.4297,16.709 C22.6589,16.4421 22.9551,16.2363 23.3184,16.0918 C23.6816,15.9473 24.1029,15.875 24.582,15.875 C24.9154,15.875 25.235,15.9141 25.541,15.9922 C25.847,16.0703 26.1191,16.1914 26.3574,16.3555 C26.5957,16.5195 26.7839,16.7298 26.9219,16.9863 C27.0599,17.2428 27.1289,17.5495 27.1289,17.9063 L27.1289,21.9531 L25.5508,21.9531 L25.5508,21.1211 L25.5039,21.1211 C25.4076,21.3086 25.2786,21.4733 25.1172,21.6152 C24.9557,21.7572 24.7617,21.8678 24.5352,21.9473 C24.3086,22.0267 24.0469,22.0664 23.75,22.0664 M24.2266,20.918 C24.4714,20.918 24.6875,20.8691 24.875,20.7715 C25.0625,20.6738 25.2096,20.5417 25.3164,20.375 C25.4232,20.2083 25.4766,20.0195 25.4766,19.8086 L25.4766,19.1719 C25.4245,19.2057 25.3535,19.2363 25.2637,19.2637 C25.1738,19.291 25.0729,19.3158 24.9609,19.3379 C24.849,19.36 24.737,19.3796 24.625,19.3965 C24.513,19.4134 24.4115,19.4284 24.3203,19.4414 C24.125,19.4701 23.9544,19.5156 23.8086,19.5781 C23.6628,19.6406 23.5495,19.7246 23.4688,19.8301 C23.388,19.9355 23.3477,20.0664 23.3477,20.2227 C23.3477,20.4492 23.4303,20.6217 23.5957,20.7402 C23.7611,20.8587 23.9714,20.918 24.2266,20.918 M28.4141,21.9531 L28.4141,15.9531 L30.0781,15.9531 L30.0781,21.9531 L28.4141,21.9531 M29.25,15.1797 C29.0026,15.1797 28.791,15.097 28.6152,14.9316 C28.4395,14.7663 28.3516,14.5677 28.3516,14.3359 C28.3516,14.1068 28.4395,13.9095 28.6152,13.7441 C28.791,13.5788 29.0026,13.4961 29.25,13.4961 C29.4974,13.4961 29.709,13.5788 29.8848,13.7441 C30.0605,13.9095 30.1484,14.1068 30.1484,14.3359 C30.1484,14.5677 30.0605,14.7663 29.8848,14.9316 C29.709,15.097 29.4974,15.1797 29.25,15.1797 M34.5898,15.9531 L34.5898,17.2031 L30.9766,17.2031 L30.9766,15.9531 L34.5898,15.9531 M31.7969,14.5156 L33.4609,14.5156 L33.4609,20.1094 C33.4609,20.263 33.4844,20.3822 33.5313,20.4668 C33.5781,20.5514 33.6439,20.6107 33.7285,20.6445 C33.8132,20.6784 33.9115,20.6953 34.0234,20.6953 C34.1016,20.6953 34.1797,20.6882 34.2578,20.6738 C34.3359,20.6595 34.3958,20.6484 34.4375,20.6406 L34.6992,21.8789 C34.6159,21.9049 34.4987,21.9355 34.3477,21.9707 C34.1966,22.0059 34.013,22.0273 33.7969,22.0352 C33.3958,22.0508 33.0449,21.9974 32.7441,21.875 C32.4434,21.7526 32.2096,21.5625 32.043,21.3047 C31.8763,21.0469 31.7943,20.7214 31.7969,20.3281 L31.7969,14.5156"/>
</g>

<g fill="#ffffff" fill-opacity="1" stroke="none" transform="matrix(1,0,0,1,0,0)"
font-family="Inter" font-size="11" font-weight="700" font-style="normal" 
>
<path vector-effect="none" fill-rule="nonzero" d="M78.6563,17.6172 L77.1328,17.7109 C77.1068,17.5807 77.0508,17.4629 76.9648,17.3574 C76.8789,17.252 76.7663,17.1673 76.627,17.1035 C76.4876,17.0397 76.3216,17.0078 76.1289,17.0078 C75.8711,17.0078 75.6536,17.0618 75.4766,17.1699 C75.2995,17.278 75.2109,17.4219 75.2109,17.6016 C75.2109,17.7448 75.2682,17.8659 75.3828,17.9648 C75.4974,18.0638 75.694,18.1432 75.9727,18.2031 L77.0586,18.4219 C77.6419,18.5417 78.0768,18.7344 78.3633,19 C78.6497,19.2656 78.793,19.6146 78.793,20.0469 C78.793,20.4401 78.6777,20.7852 78.4473,21.082 C78.2168,21.3789 77.9017,21.61 77.502,21.7754 C77.1022,21.9408 76.6419,22.0234 76.1211,22.0234 C75.3268,22.0234 74.6947,21.8574 74.2246,21.5254 C73.7546,21.1934 73.4792,20.7409 73.3984,20.168 L75.0352,20.082 C75.0846,20.3242 75.2044,20.5085 75.3945,20.6348 C75.5846,20.7611 75.8281,20.8242 76.125,20.8242 C76.4167,20.8242 76.6517,20.7676 76.8301,20.6543 C77.0085,20.541 77.099,20.3945 77.1016,20.2148 C77.099,20.0638 77.0352,19.9395 76.9102,19.8418 C76.7852,19.7441 76.5924,19.6693 76.332,19.6172 L75.293,19.4102 C74.707,19.293 74.2715,19.0898 73.9863,18.8008 C73.7012,18.5117 73.5586,18.1432 73.5586,17.6953 C73.5586,17.3099 73.6634,16.9779 73.873,16.6992 C74.0827,16.4206 74.3783,16.2057 74.7598,16.0547 C75.1413,15.9036 75.5885,15.8281 76.1016,15.8281 C76.8594,15.8281 77.4564,15.9883 77.8926,16.3086 C78.3288,16.6289 78.5833,17.0651 78.6563,17.6172 M82.5703,22.0234 C81.9531,22.0234 81.4225,21.8978 80.9785,21.6465 C80.5345,21.3952 80.1927,21.0384 79.9531,20.5762 C79.7135,20.1139 79.5938,19.5664 79.5938,18.9336 C79.5938,18.3164 79.7135,17.7747 79.9531,17.3086 C80.1927,16.8424 80.5306,16.4792 80.9668,16.2188 C81.403,15.9583 81.9154,15.8281 82.5039,15.8281 C82.8997,15.8281 83.2689,15.8913 83.6113,16.0176 C83.9538,16.1439 84.2533,16.3333 84.5098,16.5859 C84.7663,16.8385 84.9661,17.1556 85.1094,17.5371 C85.2526,17.9186 85.3242,18.3646 85.3242,18.875 L85.3242,19.332 L80.2578,19.332 L80.2578,18.3008 L83.7578,18.3008 C83.7578,18.0612 83.7057,17.849 83.6016,17.6641 C83.4974,17.4792 83.3535,17.334 83.1699,17.2285 C82.9863,17.123 82.7734,17.0703 82.5313,17.0703 C82.2786,17.0703 82.0553,17.1283 81.8613,17.2441 C81.6673,17.36 81.5156,17.515 81.4063,17.709 C81.2969,17.903 81.2409,18.1185 81.2383,18.3555 L81.2383,19.3359 C81.2383,19.6328 81.2936,19.8893 81.4043,20.1055 C81.515,20.3216 81.6719,20.4883 81.875,20.6055 C82.0781,20.7227 82.319,20.7813 82.5977,20.7813 C82.7826,20.7813 82.9518,20.7552 83.1055,20.7031 C83.2591,20.651 83.3906,20.5729 83.5,20.4688 C83.6094,20.3646 83.6927,20.237 83.75,20.0859 L85.2891,20.1875 C85.2109,20.5573 85.0514,20.8796 84.8105,21.1543 C84.5697,21.429 84.2598,21.6426 83.8809,21.7949 C83.502,21.9473 83.0651,22.0234 82.5703,22.0234 M89.1094,22.0234 C88.4948,22.0234 87.9668,21.8926 87.5254,21.6309 C87.084,21.3691 86.7454,21.0052 86.5098,20.5391 C86.2741,20.0729 86.1563,19.5365 86.1563,18.9297 C86.1563,18.3151 86.2754,17.7754 86.5137,17.3105 C86.752,16.8457 87.0911,16.4824 87.5313,16.2207 C87.9714,15.959 88.4948,15.8281 89.1016,15.8281 C89.625,15.8281 90.0833,15.9232 90.4766,16.1133 C90.8698,16.3034 91.181,16.5703 91.4102,16.9141 C91.6393,17.2578 91.7656,17.6615 91.7891,18.125 L90.2188,18.125 C90.1745,17.8255 90.0579,17.584 89.8691,17.4004 C89.6803,17.2168 89.4336,17.125 89.1289,17.125 C88.8711,17.125 88.6465,17.1947 88.4551,17.334 C88.2637,17.4733 88.1146,17.6758 88.0078,17.9414 C87.901,18.207 87.8477,18.5286 87.8477,18.9063 C87.8477,19.2891 87.9004,19.6146 88.0059,19.8828 C88.1113,20.151 88.2604,20.3555 88.4531,20.4961 C88.6458,20.6367 88.8711,20.707 89.1289,20.707 C89.319,20.707 89.4902,20.668 89.6426,20.5898 C89.7949,20.5117 89.9212,20.3978 90.0215,20.248 C90.1217,20.0983 90.1875,19.918 90.2188,19.707 L91.7891,19.707 C91.763,20.1654 91.6387,20.5684 91.416,20.916 C91.1934,21.2637 90.8867,21.5352 90.4961,21.7305 C90.1055,21.9258 89.6432,22.0234 89.1094,22.0234 M95.5625,22.0234 C94.9557,22.0234 94.4316,21.8939 93.9902,21.6348 C93.5488,21.3757 93.2083,21.0137 92.9688,20.5488 C92.7292,20.084 92.6094,19.5443 92.6094,18.9297 C92.6094,18.3099 92.7292,17.7676 92.9688,17.3027 C93.2083,16.8379 93.5488,16.4759 93.9902,16.2168 C94.4316,15.9577 94.9557,15.8281 95.5625,15.8281 C96.1693,15.8281 96.6934,15.9577 97.1348,16.2168 C97.5762,16.4759 97.9167,16.8379 98.1563,17.3027 C98.3958,17.7676 98.5156,18.3099 98.5156,18.9297 C98.5156,19.5443 98.3958,20.084 98.1563,20.5488 C97.9167,21.0137 97.5762,21.3757 97.1348,21.6348 C96.6934,21.8939 96.1693,22.0234 95.5625,22.0234 M95.5703,20.7344 C95.8464,20.7344 96.0768,20.6556 96.2617,20.498 C96.4466,20.3405 96.5866,20.125 96.6816,19.8516 C96.7767,19.5781 96.8242,19.2669 96.8242,18.918 C96.8242,18.569 96.7767,18.2578 96.6816,17.9844 C96.5866,17.7109 96.4466,17.4948 96.2617,17.3359 C96.0768,17.1771 95.8464,17.0977 95.5703,17.0977 C95.2917,17.0977 95.0579,17.1771 94.8691,17.3359 C94.6803,17.4948 94.5384,17.7109 94.4434,17.9844 C94.3483,18.2578 94.3008,18.569 94.3008,18.918 C94.3008,19.2669 94.3483,19.5781 94.4434,19.8516 C94.5384,20.125 94.6803,20.3405 94.8691,20.498 C95.0579,20.6556 95.2917,20.7344 95.5703,20.7344 M101.266,18.4375 L101.266,21.9063 L99.6016,21.9063 L99.6016,15.9063 L101.188,15.9063 L101.188,16.9648 L101.258,16.9648 C101.391,16.6159 101.613,16.3392 101.926,16.1348 C102.238,15.9303 102.617,15.8281 103.063,15.8281 C103.479,15.8281 103.842,15.9193 104.152,16.1016 C104.462,16.2839 104.703,16.5436 104.875,16.8809 C105.047,17.2181 105.133,17.6198 105.133,18.0859 L105.133,21.9063 L103.469,21.9063 L103.469,18.3828 C103.471,18.0156 103.378,17.7285 103.188,17.5215 C102.997,17.3145 102.736,17.2109 102.402,17.2109 C102.178,17.2109 101.981,17.2591 101.811,17.3555 C101.64,17.4518 101.507,17.5918 101.412,17.7754 C101.317,17.959 101.268,18.1797 101.266,18.4375 M108.641,22.0039 C108.185,22.0039 107.773,21.8861 107.404,21.6504 C107.036,21.4147 106.744,21.0671 106.529,20.6074 C106.314,20.1478 106.207,19.5833 106.207,18.9141 C106.207,18.2266 106.318,17.6543 106.539,17.1973 C106.76,16.7402 107.055,16.3978 107.424,16.1699 C107.792,15.9421 108.197,15.8281 108.637,15.8281 C108.973,15.8281 109.253,15.8848 109.479,15.998 C109.704,16.1113 109.886,16.252 110.025,16.4199 C110.165,16.5879 110.271,16.7526 110.344,16.9141 L110.395,16.9141 L110.395,13.9063 L112.055,13.9063 L112.055,21.9063 L110.414,21.9063 L110.414,20.9453 L110.344,20.9453 C110.266,21.112 110.156,21.2767 110.014,21.4395 C109.872,21.6022 109.688,21.737 109.463,21.8438 C109.238,21.9505 108.964,22.0039 108.641,22.0039 M109.168,20.6797 C109.436,20.6797 109.663,20.6061 109.85,20.459 C110.036,20.3118 110.179,20.1055 110.279,19.8398 C110.38,19.5742 110.43,19.263 110.43,18.9063 C110.43,18.5495 110.38,18.2396 110.281,17.9766 C110.182,17.7135 110.039,17.5104 109.852,17.3672 C109.664,17.224 109.436,17.1523 109.168,17.1523 C108.895,17.1523 108.664,17.2266 108.477,17.375 C108.289,17.5234 108.147,17.7292 108.051,17.9922 C107.954,18.2552 107.906,18.5599 107.906,18.9063 C107.906,19.2552 107.955,19.5632 108.053,19.8301 C108.15,20.097 108.292,20.3053 108.479,20.4551 C108.665,20.6048 108.895,20.6797 109.168,20.6797 M118.406,17.6172 L116.883,17.7109 C116.857,17.5807 116.801,17.4629 116.715,17.3574 C116.629,17.252 116.516,17.1673 116.377,17.1035 C116.238,17.0397 116.072,17.0078 115.879,17.0078 C115.621,17.0078 115.404,17.0618 115.227,17.1699 C115.049,17.278 114.961,17.4219 114.961,17.6016 C114.961,17.7448 115.018,17.8659 115.133,17.9648 C115.247,18.0638 115.444,18.1432 115.723,18.2031 L116.809,18.4219 C117.392,18.5417 117.827,18.7344 118.113,19 C118.4,19.2656 118.543,19.6146 118.543,20.0469 C118.543,20.4401 118.428,20.7852 118.197,21.082 C117.967,21.3789 117.652,21.61 117.252,21.7754 C116.852,21.9408 116.392,22.0234 115.871,22.0234 C115.077,22.0234 114.445,21.8574 113.975,21.5254 C113.505,21.1934 113.229,20.7409 113.148,20.168 L114.785,20.082 C114.835,20.3242 114.954,20.5085 115.145,20.6348 C115.335,20.7611 115.578,20.8242 115.875,20.8242 C116.167,20.8242 116.402,20.7676 116.58,20.6543 C116.758,20.541 116.849,20.3945 116.852,20.2148 C116.849,20.0638 116.785,19.9395 116.66,19.8418 C116.535,19.7441 116.342,19.6693 116.082,19.6172 L115.043,19.4102 C114.457,19.293 114.021,19.0898 113.736,18.8008 C113.451,18.5117 113.309,18.1432 113.309,17.6953 C113.309,17.3099 113.413,16.9779 113.623,16.6992 C113.833,16.4206 114.128,16.2057 114.51,16.0547 C114.891,15.9036 115.339,15.8281 115.852,15.8281 C116.609,15.8281 117.206,15.9883 117.643,16.3086 C118.079,16.6289 118.333,17.0651 118.406,17.6172 "/>
</g>

<g fill="#ffffff" fill-opacity="1" stroke="#c48600" stroke-opacity="1" stroke-width="1.2" stroke-linecap="square" stroke-linejoin="bevel" transform="matrix(1,0,0,1,41,7)"
font-family="Inter" font-size="11" font-weight="700" font-style="normal" 
>
<path vector-effect="none" fill-rule="evenodd" d="M1,11 C1,5.47715 5.92487,1 12,1 L14.4,1 C20.4751,1 25.4,5.47715 25.4,11 C25.4,16.5228 20.4751,21 14.4,21 L12,21 C5.92487,21 1,16.5228 1,11 "/>
</g>

<g fill="#000000" fill-opacity="1" stroke="none" transform="matrix(1,0,0,1,41,7)"
font-family="Inter" font-size="10" font-weight="700" font-style="normal" 
>
<path vector-effect="none" fill-rule="nonzero" d="M14.5817,7.22727 L14.5817,14.5 L13.044,14.5 L13.044,8.68679 L13.0014,8.68679 L11.3359,9.73082 L11.3359,8.36719 L13.1364,7.22727 L14.5817,7.22727"/>
</g>

<g fill="#ffffff" fill-opacity="1" stroke="none" transform="matrix(1,0,0,1,0,0)"
font-family="Inter" font-size="11" font-weight="700" font-style="normal" 
>
</g>

<g fill="#ffffff" fill-opacity="1" stroke="none" transform="matrix(1,0,0,1,0,0)"
font-family="Inter" font-size="11" font-weight="700" font-style="normal" 
>
</g>

<g fill="#ffffff" fill-opacity="1" stroke="none" transform="matrix(1,0,0,1,0,0)"
font-family="Inter" font-size="11" font-weight="700" font-style="normal" 
>
</g>

<g fill="#ffffff" fill-opacity="1" stroke="none" transform="matrix(1,0,0,1,0,0)"
font-family="Inter" font-size="11" font-weight="700" font-style="normal" 
>
</g>

<g fill="none" stroke="#000000" stroke-opacity="1" stroke-width="1" stroke-linecap="square" stroke-linejoin="bevel" transform="matrix(1,0,0,1,0,0)"
font-family=".AppleSystemUIFont" font-size="13" font-weight="400" font-style="normal" 
>
</g>
</g>
</svg>
