<?xml version="1.0" encoding="UTF-8" standalone="no"?>
<svg width="60.6778mm" height="9.87778mm"
 viewBox="0 0 172 28"
 xmlns="http://www.w3.org/2000/svg" xmlns:xlink="http://www.w3.org/1999/xlink" version="1.2" baseProfile="tiny">
<title>Abstract block</title>
<desc>block_operator_math_pair</desc>
<defs>
</defs>
<g fill="none" stroke="black" stroke-width="1" fill-rule="evenodd" stroke-linecap="square" stroke-linejoin="bevel" >

<g fill="none" stroke="#000000" stroke-opacity="1" stroke-width="1" stroke-linecap="square" stroke-linejoin="bevel" transform="matrix(1,0,0,1,0,0)"
font-family=".AppleSystemUIFont" font-size="13" font-weight="400" font-style="normal" 
>
</g>

<g fill="none" stroke="#000000" stroke-opacity="1" stroke-width="1" stroke-linecap="square" stroke-linejoin="bevel" transform="matrix(1,0,0,1,0,0)"
font-family=".AppleSystemUIFont" font-size="13" font-weight="400" font-style="normal" 
>
</g>

<g fill="#00b94d" fill-opacity="1" stroke="#007e32" stroke-opacity="1" stroke-width="1.2" stroke-linecap="square" stroke-linejoin="bevel" transform="matrix(1,0,0,1,0,0)"
font-family=".AppleSystemUIFont" font-size="13" font-weight="400" font-style="normal" 
>
<path vector-effect="none" fill-rule="evenodd" d="M0.5,14 C0.5,6.54416 6.76801,0.5 14.5,0.5 L157.133,0.5 C164.865,0.5 171.133,6.54416 171.133,14 C171.133,21.4558 164.865,27.5 157.133,27.5 L14.5,27.5 C6.76801,27.5 0.5,21.4558 0.5,14 "/>
</g>

<g fill="#ffffff" fill-opacity="1" stroke="none" transform="matrix(1,0,0,1,0,0)"
font-family="Inter" font-size="11" font-weight="700" font-style="normal" 
>
<path vector-effect="none" fill-rule="nonzero" d="M71,18.1172 C70.3932,18.1172 69.8691,17.9876 69.4277,17.7285 C68.9863,17.4694 68.6458,17.1074 68.4063,16.6426 C68.1667,16.1777 68.0469,15.638 68.0469,15.0234 C68.0469,14.4036 68.1667,13.8613 68.4063,13.3965 C68.6458,12.9316 68.9863,12.5697 69.4277,12.3105 C69.8691,12.0514 70.3932,11.9219 71,11.9219 C71.6068,11.9219 72.1309,12.0514 72.5723,12.3105 C73.0137,12.5697 73.3542,12.9316 73.5938,13.3965 C73.8333,13.8613 73.9531,14.4036 73.9531,15.0234 C73.9531,15.638 73.8333,16.1777 73.5938,16.6426 C73.3542,17.1074 73.0137,17.4694 72.5723,17.7285 C72.1309,17.9876 71.6068,18.1172 71,18.1172 M71.0078,16.8281 C71.2839,16.8281 71.5143,16.7493 71.6992,16.5918 C71.8841,16.4342 72.0241,16.2188 72.1191,15.9453 C72.2142,15.6719 72.2617,15.3607 72.2617,15.0117 C72.2617,14.6628 72.2142,14.3516 72.1191,14.0781 C72.0241,13.8047 71.8841,13.5885 71.6992,13.4297 C71.5143,13.2708 71.2839,13.1914 71.0078,13.1914 C70.7292,13.1914 70.4954,13.2708 70.3066,13.4297 C70.1178,13.5885 69.9759,13.8047 69.8809,14.0781 C69.7858,14.3516 69.7383,14.6628 69.7383,15.0117 C69.7383,15.3607 69.7858,15.6719 69.8809,15.9453 C69.9759,16.2188 70.1178,16.4342 70.3066,16.5918 C70.4954,16.7493 70.7292,16.8281 71.0078,16.8281 M78.2656,12 L78.2656,13.25 L74.5625,13.25 L74.5625,12 L78.2656,12 M75.4102,18 L75.4102,11.5664 C75.4102,11.1315 75.4954,10.7708 75.666,10.4844 C75.8366,10.1979 76.0703,9.98307 76.3672,9.83984 C76.6641,9.69661 77.0013,9.625 77.3789,9.625 C77.6341,9.625 77.8678,9.64453 78.0801,9.68359 C78.2923,9.72266 78.4505,9.75781 78.5547,9.78906 L78.2578,11.0391 C78.1927,11.0182 78.1126,10.9987 78.0176,10.9805 C77.9225,10.9622 77.8255,10.9531 77.7266,10.9531 C77.4818,10.9531 77.3112,11.0098 77.2148,11.123 C77.1185,11.2363 77.0703,11.3945 77.0703,11.5977 L77.0703,18 L75.4102,18"/>
</g>

<g fill="#ffffff" fill-opacity="1" stroke="none" transform="matrix(1,0,0,1,0,0)"
font-family="Inter" font-size="11" font-weight="700" font-style="normal" 
>
<path vector-effect="none" fill-rule="nonzero" d="M118.984,18.0195 C118.602,18.0195 118.26,17.9525 117.961,17.8184 C117.661,17.6842 117.425,17.485 117.252,17.2207 C117.079,16.9564 116.992,16.6263 116.992,16.2305 C116.992,15.8971 117.053,15.6172 117.176,15.3906 C117.298,15.1641 117.465,14.9818 117.676,14.8438 C117.887,14.7057 118.127,14.6016 118.396,14.5313 C118.666,14.4609 118.949,14.4115 119.246,14.3828 C119.595,14.3464 119.876,14.3118 120.09,14.2793 C120.303,14.2467 120.458,14.1979 120.555,14.1328 C120.651,14.0677 120.699,13.9714 120.699,13.8438 L120.699,13.8203 C120.699,13.5729 120.622,13.3815 120.467,13.2461 C120.312,13.1107 120.092,13.043 119.809,13.043 C119.509,13.043 119.271,13.1087 119.094,13.2402 C118.917,13.3717 118.799,13.5365 118.742,13.7344 L117.203,13.6094 C117.281,13.2448 117.435,12.929 117.664,12.6621 C117.893,12.3952 118.189,12.1895 118.553,12.0449 C118.916,11.9004 119.337,11.8281 119.816,11.8281 C120.15,11.8281 120.469,11.8672 120.775,11.9453 C121.081,12.0234 121.354,12.1445 121.592,12.3086 C121.83,12.4727 122.018,12.6829 122.156,12.9395 C122.294,13.196 122.363,13.5026 122.363,13.8594 L122.363,17.9063 L120.785,17.9063 L120.785,17.0742 L120.738,17.0742 C120.642,17.2617 120.513,17.4264 120.352,17.5684 C120.19,17.7103 119.996,17.821 119.77,17.9004 C119.543,17.9798 119.281,18.0195 118.984,18.0195 M119.461,16.8711 C119.706,16.8711 119.922,16.8223 120.109,16.7246 C120.297,16.627 120.444,16.4948 120.551,16.3281 C120.658,16.1615 120.711,15.9727 120.711,15.7617 L120.711,15.125 C120.659,15.1589 120.588,15.1895 120.498,15.2168 C120.408,15.2441 120.307,15.2689 120.195,15.291 C120.083,15.3132 119.971,15.3327 119.859,15.3496 C119.747,15.3665 119.646,15.3815 119.555,15.3945 C119.359,15.4232 119.189,15.4688 119.043,15.5313 C118.897,15.5938 118.784,15.6777 118.703,15.7832 C118.622,15.8887 118.582,16.0195 118.582,16.1758 C118.582,16.4023 118.665,16.5749 118.83,16.6934 C118.995,16.8118 119.206,16.8711 119.461,16.8711 M125.313,14.4375 L125.313,17.9063 L123.648,17.9063 L123.648,11.9063 L125.234,11.9063 L125.234,12.9648 L125.305,12.9648 C125.438,12.6159 125.66,12.3392 125.973,12.1348 C126.285,11.9303 126.664,11.8281 127.109,11.8281 C127.526,11.8281 127.889,11.9193 128.199,12.1016 C128.509,12.2839 128.75,12.5436 128.922,12.8809 C129.094,13.2181 129.18,13.6198 129.18,14.0859 L129.18,17.9063 L127.516,17.9063 L127.516,14.3828 C127.518,14.0156 127.424,13.7285 127.234,13.5215 C127.044,13.3145 126.783,13.2109 126.449,13.2109 C126.225,13.2109 126.028,13.2591 125.857,13.3555 C125.687,13.4518 125.554,13.5918 125.459,13.7754 C125.364,13.959 125.315,14.1797 125.313,14.4375 M132.688,18.0039 C132.232,18.0039 131.82,17.8861 131.451,17.6504 C131.083,17.4147 130.791,17.0671 130.576,16.6074 C130.361,16.1478 130.254,15.5833 130.254,14.9141 C130.254,14.2266 130.365,13.6543 130.586,13.1973 C130.807,12.7402 131.102,12.3978 131.471,12.1699 C131.839,11.9421 132.243,11.8281 132.684,11.8281 C133.02,11.8281 133.3,11.8848 133.525,11.998 C133.751,12.1113 133.933,12.252 134.072,12.4199 C134.212,12.5879 134.318,12.7526 134.391,12.9141 L134.441,12.9141 L134.441,9.90625 L136.102,9.90625 L136.102,17.9063 L134.461,17.9063 L134.461,16.9453 L134.391,16.9453 C134.313,17.112 134.202,17.2767 134.061,17.4395 C133.919,17.6022 133.735,17.737 133.51,17.8438 C133.285,17.9505 133.01,18.0039 132.688,18.0039 M133.215,16.6797 C133.483,16.6797 133.71,16.6061 133.896,16.459 C134.083,16.3118 134.226,16.1055 134.326,15.8398 C134.426,15.5742 134.477,15.263 134.477,14.9063 C134.477,14.5495 134.427,14.2396 134.328,13.9766 C134.229,13.7135 134.086,13.5104 133.898,13.3672 C133.711,13.224 133.483,13.1523 133.215,13.1523 C132.941,13.1523 132.711,13.2266 132.523,13.375 C132.336,13.5234 132.194,13.7292 132.098,13.9922 C132.001,14.2552 131.953,14.5599 131.953,14.9063 C131.953,15.2552 132.002,15.5632 132.1,15.8301 C132.197,16.097 132.339,16.3053 132.525,16.4551 C132.712,16.6048 132.941,16.6797 133.215,16.6797 "/>
</g>

<g fill="#ffffff" fill-opacity="1" stroke="none" transform="matrix(1,0,0,1,0,0)"
font-family="Inter" font-size="11" font-weight="700" font-style="normal" 
>
</g>

<g fill="#ffffff" fill-opacity="1" stroke="none" transform="matrix(1,0,0,1,0,0)"
font-family="Inter" font-size="11" font-weight="700" font-style="normal" 
>
</g>

<g fill="#00b94d" fill-opacity="1" stroke="#007e32" stroke-opacity="1" stroke-width="1.2" stroke-linecap="square" stroke-linejoin="bevel" transform="matrix(1,0,0,1,11.3333,2)"
font-family="Inter" font-size="11" font-weight="700" font-style="normal" 
>
<path vector-effect="none" fill-rule="evenodd" d="M0.5,3.5 C0.5,1.84315 1.84315,0.5 3.5,0.5 L47,0.5 C48.6569,0.5 50,1.84315 50,3.5 L50,20.5 C50,22.1569 48.6569,23.5 47,23.5 L3.5,23.5 C1.84315,23.5 0.5,22.1569 0.5,20.5 L0.5,3.5"/>
</g>

<g fill="#ffffff" fill-opacity="1" stroke="none" transform="matrix(1,0,0,1,11.3333,2)"
font-family="Inter" font-size="11" font-weight="700" font-style="normal" 
>
<path vector-effect="none" fill-rule="nonzero" d="M9.50781,16 L9.50781,10 L11.0938,10 L11.0938,11.0586 L11.1641,11.0586 C11.2891,10.707 11.4974,10.4297 11.7891,10.2266 C12.0807,10.0234 12.4297,9.92188 12.8359,9.92188 C13.2474,9.92188 13.5977,10.0241 13.8867,10.2285 C14.1758,10.4329 14.3685,10.7096 14.4648,11.0586 L14.5273,11.0586 C14.6497,10.7148 14.8717,10.4395 15.1934,10.2324 C15.515,10.0254 15.8958,9.92188 16.3359,9.92188 C16.8958,9.92188 17.3509,10.0996 17.7012,10.4551 C18.0514,10.8105 18.2266,11.3138 18.2266,11.9648 L18.2266,16 L16.5664,16 L16.5664,12.293 C16.5664,11.9596 16.4779,11.7096 16.3008,11.543 C16.1237,11.3763 15.9023,11.293 15.6367,11.293 C15.3346,11.293 15.099,11.3887 14.9297,11.5801 C14.7604,11.7715 14.6758,12.0234 14.6758,12.3359 L14.6758,16 L13.0625,16 L13.0625,12.2578 C13.0625,11.9635 12.9785,11.7292 12.8105,11.5547 C12.6426,11.3802 12.4219,11.293 12.1484,11.293 C11.9635,11.293 11.7975,11.3392 11.6504,11.4316 C11.5033,11.5241 11.3867,11.653 11.3008,11.8184 C11.2148,11.9837 11.1719,12.1771 11.1719,12.3984 L11.1719,16 L9.50781,16 M19.5391,16 L19.5391,10 L21.2031,10 L21.2031,16 L19.5391,16 M20.375,9.22656 C20.1276,9.22656 19.916,9.14388 19.7402,8.97852 C19.5645,8.81315 19.4766,8.61458 19.4766,8.38281 C19.4766,8.15365 19.5645,7.95638 19.7402,7.79102 C19.916,7.62565 20.1276,7.54297 20.375,7.54297 C20.6224,7.54297 20.834,7.62565 21.0098,7.79102 C21.1855,7.95638 21.2734,8.15365 21.2734,8.38281 C21.2734,8.61458 21.1855,8.81315 21.0098,8.97852 C20.834,9.14388 20.6224,9.22656 20.375,9.22656 M24.1875,12.5313 L24.1875,16 L22.5234,16 L22.5234,10 L24.1094,10 L24.1094,11.0586 L24.1797,11.0586 C24.3125,10.7096 24.5352,10.4329 24.8477,10.2285 C25.1602,10.0241 25.5391,9.92188 25.9844,9.92188 C26.401,9.92188 26.7643,10.013 27.0742,10.1953 C27.3841,10.3776 27.625,10.6374 27.7969,10.9746 C27.9688,11.3118 28.0547,11.7135 28.0547,12.1797 L28.0547,16 L26.3906,16 L26.3906,12.4766 C26.3932,12.1094 26.2995,11.8223 26.1094,11.6152 C25.9193,11.4082 25.6576,11.3047 25.3242,11.3047 C25.1003,11.3047 24.903,11.3529 24.7324,11.4492 C24.5618,11.5456 24.429,11.6855 24.334,11.8691 C24.2389,12.0527 24.1901,12.2734 24.1875,12.5313 "/>
</g>

<g fill="#ffffff" fill-opacity="1" stroke="none" transform="matrix(0.03125,0,0,0.03125,47.8333,10)"
font-family="Inter" font-size="11" font-weight="700" font-style="normal" 
>
<path vector-effect="none" fill-rule="nonzero" d="M111.326,191.938 C120.545,201.158 135.517,201.158 144.737,191.938 L239.144,97.5313 C245.929,90.7458 247.921,80.6413 244.233,71.7907 C240.545,62.9401 231.989,57.1871 222.401,57.1871 L33.5875,57.2608 C24.0731,57.2608 15.4437,63.0137 11.7559,71.8644 C8.06815,80.715 10.1333,90.8195 16.845,97.605 L111.252,192.012 L111.326,191.938"/>
</g>

<g fill="none" stroke="#000000" stroke-opacity="1" stroke-width="13.7195" stroke-linecap="butt" stroke-linejoin="miter" stroke-miterlimit="4" transform="matrix(0.03125,0,0,0.03125,47.8333,10)"
font-family="Inter" font-size="11" font-weight="700" font-style="normal" 
>
<path vector-effect="none" fill-rule="nonzero" d="M111.326,191.938 C120.545,201.158 135.517,201.158 144.737,191.938 L239.144,97.5313 C245.929,90.7458 247.921,80.6413 244.233,71.7907 C240.545,62.9401 231.989,57.1871 222.401,57.1871 L33.5875,57.2608 C24.0731,57.2608 15.4437,63.0137 11.7559,71.8644 C8.06815,80.715 10.1333,90.8195 16.845,97.605 L111.252,192.012 L111.326,191.938"/>
</g>

<g fill="#ffffff" fill-opacity="1" stroke="none" transform="matrix(1,0,0,1,11.3333,2)"
font-family="Inter" font-size="11" font-weight="700" font-style="normal" 
>
</g>

<g fill="#ffffff" fill-opacity="1" stroke="none" transform="matrix(1,0,0,1,0,0)"
font-family="Inter" font-size="11" font-weight="700" font-style="normal" 
>
</g>

<g fill="#ffffff" fill-opacity="1" stroke="#006a2a" stroke-opacity="1" stroke-width="1.2" stroke-linecap="square" stroke-linejoin="bevel" transform="matrix(1,0,0,1,142.233,3)"
font-family="Inter" font-size="11" font-weight="700" font-style="normal" 
>
<path vector-effect="none" fill-rule="evenodd" d="M1,11 C1,5.47715 5.92487,1 12,1 L14.4,1 C20.4751,1 25.4,5.47715 25.4,11 C25.4,16.5228 20.4751,21 14.4,21 L12,21 C5.92487,21 1,16.5228 1,11 "/>
</g>

<g fill="#000000" fill-opacity="1" stroke="none" transform="matrix(1,0,0,1,142.233,3)"
font-family="Inter" font-size="10" font-weight="700" font-style="normal" 
>
<path vector-effect="none" fill-rule="nonzero" d="M12.9411,14.5817 C12.3303,14.5793 11.8053,14.429 11.3661,14.1307 C10.927,13.8324 10.5896,13.4003 10.354,12.8345 C10.1185,12.2687 10.0019,11.5881 10.0043,10.7926 C10.0043,9.99953 10.122,9.32363 10.3576,8.76491 C10.5932,8.2062 10.9305,7.78066 11.3697,7.48828 C11.8088,7.1959 12.3326,7.04972 12.9411,7.04972 C13.5495,7.04972 14.0733,7.1965 14.5124,7.49006 C14.9516,7.78362 15.2895,8.20916 15.5263,8.76669 C15.763,9.32422 15.8802,9.99953 15.8778,10.7926 C15.8778,11.5904 15.7601,12.2723 15.5245,12.8381 C15.2889,13.4039 14.9522,13.8359 14.5142,14.1342 C14.0762,14.4325 13.5518,14.5817 12.9411,14.5817 M12.9411,13.3068 C13.3577,13.3068 13.6903,13.0973 13.9389,12.6783 C14.1875,12.2592 14.3106,11.6307 14.3082,10.7926 C14.3082,10.241 14.252,9.78172 14.1396,9.41477 C14.0271,9.04782 13.8685,8.77202 13.6637,8.58736 C13.4589,8.4027 13.218,8.31037 12.9411,8.31037 C12.5268,8.31037 12.1953,8.51752 11.9467,8.93182 C11.6982,9.34612 11.5727,9.96638 11.5703,10.7926 C11.5703,11.3513 11.6265,11.8171 11.739,12.19 C11.8514,12.5629 12.0107,12.8422 12.2166,13.0281 C12.4226,13.2139 12.6641,13.3068 12.9411,13.3068 "/>
</g>

<g fill="#ffffff" fill-opacity="1" stroke="none" transform="matrix(1,0,0,1,0,0)"
font-family="Inter" font-size="11" font-weight="700" font-style="normal" 
>
</g>

<g fill="#ffffff" fill-opacity="1" stroke="#006a2a" stroke-opacity="1" stroke-width="1.2" stroke-linecap="square" stroke-linejoin="bevel" transform="matrix(1,0,0,1,84.8333,3)"
font-family="Inter" font-size="11" font-weight="700" font-style="normal" 
>
<path vector-effect="none" fill-rule="evenodd" d="M1,11 C1,5.47715 5.92487,1 12,1 L14.4,1 C20.4751,1 25.4,5.47715 25.4,11 C25.4,16.5228 20.4751,21 14.4,21 L12,21 C5.92487,21 1,16.5228 1,11 "/>
</g>

<g fill="#000000" fill-opacity="1" stroke="none" transform="matrix(1,0,0,1,84.8333,3)"
font-family="Inter" font-size="10" font-weight="700" font-style="normal" 
>
<path vector-effect="none" fill-rule="nonzero" d="M12.9411,14.5817 C12.3303,14.5793 11.8053,14.429 11.3661,14.1307 C10.927,13.8324 10.5896,13.4003 10.354,12.8345 C10.1185,12.2687 10.0019,11.5881 10.0043,10.7926 C10.0043,9.99953 10.122,9.32363 10.3576,8.76491 C10.5932,8.2062 10.9305,7.78066 11.3697,7.48828 C11.8088,7.1959 12.3326,7.04972 12.9411,7.04972 C13.5495,7.04972 14.0733,7.1965 14.5124,7.49006 C14.9516,7.78362 15.2895,8.20916 15.5263,8.76669 C15.763,9.32422 15.8802,9.99953 15.8778,10.7926 C15.8778,11.5904 15.7601,12.2723 15.5245,12.8381 C15.2889,13.4039 14.9522,13.8359 14.5142,14.1342 C14.0762,14.4325 13.5518,14.5817 12.9411,14.5817 M12.9411,13.3068 C13.3577,13.3068 13.6903,13.0973 13.9389,12.6783 C14.1875,12.2592 14.3106,11.6307 14.3082,10.7926 C14.3082,10.241 14.252,9.78172 14.1396,9.41477 C14.0271,9.04782 13.8685,8.77202 13.6637,8.58736 C13.4589,8.4027 13.218,8.31037 12.9411,8.31037 C12.5268,8.31037 12.1953,8.51752 11.9467,8.93182 C11.6982,9.34612 11.5727,9.96638 11.5703,10.7926 C11.5703,11.3513 11.6265,11.8171 11.739,12.19 C11.8514,12.5629 12.0107,12.8422 12.2166,13.0281 C12.4226,13.2139 12.6641,13.3068 12.9411,13.3068 "/>
</g>

<g fill="#ffffff" fill-opacity="1" stroke="none" transform="matrix(1,0,0,1,0,0)"
font-family="Inter" font-size="11" font-weight="700" font-style="normal" 
>
</g>

<g fill="#ffffff" fill-opacity="1" stroke="none" transform="matrix(1,0,0,1,0,0)"
font-family="Inter" font-size="11" font-weight="700" font-style="normal" 
>
</g>

<g fill="none" stroke="#000000" stroke-opacity="1" stroke-width="1" stroke-linecap="square" stroke-linejoin="bevel" transform="matrix(1,0,0,1,0,0)"
font-family=".AppleSystemUIFont" font-size="13" font-weight="400" font-style="normal" 
>
</g>
</g>
</svg>
