<?xml version="1.0" encoding="UTF-8" standalone="no"?>
<svg width="118.533mm" height="15.5222mm"
 viewBox="0 0 336 44"
 xmlns="http://www.w3.org/2000/svg" xmlns:xlink="http://www.w3.org/1999/xlink" version="1.2" baseProfile="tiny">
<title>Abstract block</title>
<desc>block_hubs_all_motors_port_set_motors_stall_detection</desc>
<defs>
</defs>
<g fill="none" stroke="black" stroke-width="1" fill-rule="evenodd" stroke-linecap="square" stroke-linejoin="bevel" >

<g fill="none" stroke="#000000" stroke-opacity="1" stroke-width="1" stroke-linecap="square" stroke-linejoin="bevel" transform="matrix(1,0,0,1,0,0)"
font-family=".AppleSystemUIFont" font-size="13" font-weight="400" font-style="normal" 
>
</g>

<g fill="none" stroke="#000000" stroke-opacity="1" stroke-width="1" stroke-linecap="square" stroke-linejoin="bevel" transform="matrix(1,0,0,1,0,0)"
font-family=".AppleSystemUIFont" font-size="13" font-weight="400" font-style="normal" 
>
</g>

<g fill="#0090f5" fill-opacity="1" stroke="#0070ba" stroke-opacity="1" stroke-width="1.2" stroke-linecap="square" stroke-linejoin="bevel" transform="matrix(1,0,0,1,0,0)"
font-family=".AppleSystemUIFont" font-size="13" font-weight="400" font-style="normal" 
>
<path vector-effect="none" fill-rule="evenodd" d="M0.5,4.5 L1.04612,2.48112 L2.48112,1.04612 L4.5,0.5 L9.625,0.5 L10.416,0.976563 L11.1719,1.6875 L11.998,2.67969 L13,4 L13.7559,4.66016 L14.5469,5.15625 L15.4082,5.51172 L16.375,5.75 L17.4824,5.89453 L18.7656,5.96875 L20.2598,5.99609 L22,6 L23.7402,5.99609 L25.2344,5.96875 L26.5176,5.89453 L27.625,5.75 L28.5918,5.51172 L29.4531,5.15625 L30.2441,4.66016 L31,4 L32.002,2.67969 L32.8281,1.6875 L33.584,0.976563 L34.375,0.5 L331.5,0.5 L333.519,1.04612 L334.954,2.48112 L335.5,4.5 L335.5,31.5 L334.954,33.5189 L333.519,34.9539 L331.5,35.5 L34.375,35.5 L33.584,35.9766 L32.8281,36.6875 L32.002,37.6797 L31,39 L30.2441,39.6602 L29.4531,40.1563 L28.5918,40.5117 L27.625,40.75 L26.5176,40.8945 L25.2344,40.9688 L23.7402,40.9961 L22,41 L20.2598,40.9961 L18.7656,40.9688 L17.4824,40.8945 L16.375,40.75 L15.4082,40.5117 L14.5469,40.1563 L13.7559,39.6602 L13,39 L11.998,37.6797 L11.1719,36.6875 L10.416,35.9766 L9.625,35.5 L4.5,35.5 L2.48112,34.9539 L1.04612,33.5189 L0.5,31.5 L0.5,4.5"/>
</g>

<g fill="#ffffff" fill-opacity="1" stroke="none" transform="matrix(1,0,0,1,0,0)"
font-family="Inter" font-size="11" font-weight="700" font-style="normal" 
>
<path vector-effect="none" fill-rule="nonzero" d="M180.465,15.9531 L180.465,17.2031 L176.852,17.2031 L176.852,15.9531 L180.465,15.9531 M177.672,14.5156 L179.336,14.5156 L179.336,20.1094 C179.336,20.263 179.359,20.3822 179.406,20.4668 C179.453,20.5514 179.519,20.6107 179.604,20.6445 C179.688,20.6784 179.786,20.6953 179.898,20.6953 C179.977,20.6953 180.055,20.6882 180.133,20.6738 C180.211,20.6595 180.271,20.6484 180.313,20.6406 L180.574,21.8789 C180.491,21.9049 180.374,21.9355 180.223,21.9707 C180.072,22.0059 179.888,22.0273 179.672,22.0352 C179.271,22.0508 178.92,21.9974 178.619,21.875 C178.318,21.7526 178.085,21.5625 177.918,21.3047 C177.751,21.0469 177.669,20.7214 177.672,20.3281 L177.672,14.5156 M185.387,19.3984 L185.387,15.9531 L187.051,15.9531 L187.051,21.9531 L185.453,21.9531 L185.453,20.8633 L185.391,20.8633 C185.255,21.2148 185.031,21.4974 184.717,21.7109 C184.403,21.9245 184.021,22.0313 183.57,22.0313 C183.169,22.0313 182.816,21.9401 182.512,21.7578 C182.207,21.5755 181.969,21.3164 181.799,20.9805 C181.628,20.6445 181.542,20.2422 181.539,19.7734 L181.539,15.9531 L183.203,15.9531 L183.203,19.4766 C183.206,19.8307 183.301,20.1107 183.488,20.3164 C183.676,20.5221 183.927,20.625 184.242,20.625 C184.443,20.625 184.63,20.5788 184.805,20.4863 C184.979,20.3939 185.12,20.2565 185.229,20.0742 C185.337,19.8919 185.389,19.6667 185.387,19.3984 M188.367,21.9531 L188.367,15.9531 L189.98,15.9531 L189.98,17 L190.043,17 C190.152,16.6276 190.336,16.3457 190.594,16.1543 C190.852,15.9629 191.148,15.8672 191.484,15.8672 C191.568,15.8672 191.658,15.8724 191.754,15.8828 C191.85,15.8932 191.935,15.9076 192.008,15.9258 L192.008,17.4023 C191.93,17.3789 191.822,17.3581 191.684,17.3398 C191.546,17.3216 191.419,17.3125 191.305,17.3125 C191.06,17.3125 190.842,17.3652 190.65,17.4707 C190.459,17.5762 190.308,17.7227 190.197,17.9102 C190.087,18.0977 190.031,18.3138 190.031,18.5586 L190.031,21.9531 L188.367,21.9531 M194.516,18.4844 L194.516,21.9531 L192.852,21.9531 L192.852,15.9531 L194.438,15.9531 L194.438,17.0117 L194.508,17.0117 C194.641,16.6628 194.863,16.3861 195.176,16.1816 C195.488,15.9772 195.867,15.875 196.313,15.875 C196.729,15.875 197.092,15.9661 197.402,16.1484 C197.712,16.3307 197.953,16.5905 198.125,16.9277 C198.297,17.265 198.383,17.6667 198.383,18.1328 L198.383,21.9531 L196.719,21.9531 L196.719,18.4297 C196.721,18.0625 196.628,17.7754 196.438,17.5684 C196.247,17.3613 195.986,17.2578 195.652,17.2578 C195.428,17.2578 195.231,17.306 195.061,17.4023 C194.89,17.4987 194.757,17.6387 194.662,17.8223 C194.567,18.0059 194.518,18.2266 194.516,18.4844 M207.219,17.6641 L205.695,17.7578 C205.669,17.6276 205.613,17.5098 205.527,17.4043 C205.441,17.2988 205.329,17.2142 205.189,17.1504 C205.05,17.0866 204.884,17.0547 204.691,17.0547 C204.434,17.0547 204.216,17.1087 204.039,17.2168 C203.862,17.3249 203.773,17.4688 203.773,17.6484 C203.773,17.7917 203.831,17.9128 203.945,18.0117 C204.06,18.1107 204.257,18.1901 204.535,18.25 L205.621,18.4688 C206.204,18.5885 206.639,18.7813 206.926,19.0469 C207.212,19.3125 207.355,19.6615 207.355,20.0938 C207.355,20.487 207.24,20.832 207.01,21.1289 C206.779,21.4258 206.464,21.6569 206.064,21.8223 C205.665,21.9876 205.204,22.0703 204.684,22.0703 C203.889,22.0703 203.257,21.9043 202.787,21.5723 C202.317,21.2402 202.042,20.7878 201.961,20.2148 L203.598,20.1289 C203.647,20.3711 203.767,20.5553 203.957,20.6816 C204.147,20.8079 204.391,20.8711 204.688,20.8711 C204.979,20.8711 205.214,20.8145 205.393,20.7012 C205.571,20.5879 205.661,20.4414 205.664,20.2617 C205.661,20.1107 205.598,19.9863 205.473,19.8887 C205.348,19.791 205.155,19.7161 204.895,19.6641 L203.855,19.457 C203.27,19.3398 202.834,19.1367 202.549,18.8477 C202.264,18.5586 202.121,18.1901 202.121,17.7422 C202.121,17.3568 202.226,17.0247 202.436,16.7461 C202.645,16.4674 202.941,16.2526 203.322,16.1016 C203.704,15.9505 204.151,15.875 204.664,15.875 C205.422,15.875 206.019,16.0352 206.455,16.3555 C206.891,16.6758 207.146,17.112 207.219,17.6641 M211.59,15.9531 L211.59,17.2031 L207.977,17.2031 L207.977,15.9531 L211.59,15.9531 M208.797,14.5156 L210.461,14.5156 L210.461,20.1094 C210.461,20.263 210.484,20.3822 210.531,20.4668 C210.578,20.5514 210.644,20.6107 210.729,20.6445 C210.813,20.6784 210.911,20.6953 211.023,20.6953 C211.102,20.6953 211.18,20.6882 211.258,20.6738 C211.336,20.6595 211.396,20.6484 211.438,20.6406 L211.699,21.8789 C211.616,21.9049 211.499,21.9355 211.348,21.9707 C211.197,22.0059 211.013,22.0273 210.797,22.0352 C210.396,22.0508 210.045,21.9974 209.744,21.875 C209.443,21.7526 209.21,21.5625 209.043,21.3047 C208.876,21.0469 208.794,20.7214 208.797,20.3281 L208.797,14.5156 M214.375,22.0664 C213.992,22.0664 213.651,21.9993 213.352,21.8652 C213.052,21.7311 212.816,21.5319 212.643,21.2676 C212.469,21.0033 212.383,20.6732 212.383,20.2773 C212.383,19.944 212.444,19.6641 212.566,19.4375 C212.689,19.2109 212.855,19.0286 213.066,18.8906 C213.277,18.7526 213.518,18.6484 213.787,18.5781 C214.057,18.5078 214.34,18.4583 214.637,18.4297 C214.986,18.3932 215.267,18.3587 215.48,18.3262 C215.694,18.2936 215.849,18.2448 215.945,18.1797 C216.042,18.1146 216.09,18.0182 216.09,17.8906 L216.09,17.8672 C216.09,17.6198 216.012,17.4284 215.857,17.293 C215.702,17.1576 215.483,17.0898 215.199,17.0898 C214.9,17.0898 214.661,17.1556 214.484,17.2871 C214.307,17.4186 214.19,17.5833 214.133,17.7813 L212.594,17.6563 C212.672,17.2917 212.826,16.9759 213.055,16.709 C213.284,16.4421 213.58,16.2363 213.943,16.0918 C214.307,15.9473 214.728,15.875 215.207,15.875 C215.54,15.875 215.86,15.9141 216.166,15.9922 C216.472,16.0703 216.744,16.1914 216.982,16.3555 C217.221,16.5195 217.409,16.7298 217.547,16.9863 C217.685,17.2428 217.754,17.5495 217.754,17.9063 L217.754,21.9531 L216.176,21.9531 L216.176,21.1211 L216.129,21.1211 C216.033,21.3086 215.904,21.4733 215.742,21.6152 C215.581,21.7572 215.387,21.8678 215.16,21.9473 C214.934,22.0267 214.672,22.0664 214.375,22.0664 M214.852,20.918 C215.096,20.918 215.313,20.8691 215.5,20.7715 C215.688,20.6738 215.835,20.5417 215.941,20.375 C216.048,20.2083 216.102,20.0195 216.102,19.8086 L216.102,19.1719 C216.049,19.2057 215.979,19.2363 215.889,19.2637 C215.799,19.291 215.698,19.3158 215.586,19.3379 C215.474,19.36 215.362,19.3796 215.25,19.3965 C215.138,19.4134 215.036,19.4284 214.945,19.4414 C214.75,19.4701 214.579,19.5156 214.434,19.5781 C214.288,19.6406 214.174,19.7246 214.094,19.8301 C214.013,19.9355 213.973,20.0664 213.973,20.2227 C213.973,20.4492 214.055,20.6217 214.221,20.7402 C214.386,20.8587 214.596,20.918 214.852,20.918 M220.703,13.9531 L220.703,21.9531 L219.039,21.9531 L219.039,13.9531 L220.703,13.9531 M223.688,13.9531 L223.688,21.9531 L222.023,21.9531 L222.023,13.9531 L223.688,13.9531 M229.766,22.0508 C229.31,22.0508 228.898,21.9329 228.529,21.6973 C228.161,21.4616 227.869,21.1139 227.654,20.6543 C227.439,20.1947 227.332,19.6302 227.332,18.9609 C227.332,18.2734 227.443,17.7012 227.664,17.2441 C227.885,16.7871 228.18,16.4447 228.549,16.2168 C228.917,15.9889 229.322,15.875 229.762,15.875 C230.098,15.875 230.378,15.9316 230.604,16.0449 C230.829,16.1582 231.011,16.2988 231.15,16.4668 C231.29,16.6348 231.396,16.7995 231.469,16.9609 L231.52,16.9609 L231.52,13.9531 L233.18,13.9531 L233.18,21.9531 L231.539,21.9531 L231.539,20.9922 L231.469,20.9922 C231.391,21.1589 231.281,21.3236 231.139,21.4863 C230.997,21.6491 230.813,21.7839 230.588,21.8906 C230.363,21.9974 230.089,22.0508 229.766,22.0508 M230.293,20.7266 C230.561,20.7266 230.788,20.653 230.975,20.5059 C231.161,20.3587 231.304,20.1523 231.404,19.8867 C231.505,19.6211 231.555,19.3099 231.555,18.9531 C231.555,18.5964 231.505,18.2865 231.406,18.0234 C231.307,17.7604 231.164,17.5573 230.977,17.4141 C230.789,17.2708 230.561,17.1992 230.293,17.1992 C230.02,17.1992 229.789,17.2734 229.602,17.4219 C229.414,17.5703 229.272,17.776 229.176,18.0391 C229.079,18.3021 229.031,18.6068 229.031,18.9531 C229.031,19.3021 229.08,19.61 229.178,19.877 C229.275,20.1439 229.417,20.3522 229.604,20.502 C229.79,20.6517 230.02,20.7266 230.293,20.7266 M237.273,22.0703 C236.656,22.0703 236.126,21.9447 235.682,21.6934 C235.238,21.4421 234.896,21.0853 234.656,20.623 C234.417,20.1608 234.297,19.6133 234.297,18.9805 C234.297,18.3633 234.417,17.8216 234.656,17.3555 C234.896,16.8893 235.234,16.526 235.67,16.2656 C236.106,16.0052 236.618,15.875 237.207,15.875 C237.603,15.875 237.972,15.9382 238.314,16.0645 C238.657,16.1908 238.956,16.3802 239.213,16.6328 C239.469,16.8854 239.669,17.2025 239.813,17.584 C239.956,17.9655 240.027,18.4115 240.027,18.9219 L240.027,19.3789 L234.961,19.3789 L234.961,18.3477 L238.461,18.3477 C238.461,18.1081 238.409,17.8958 238.305,17.7109 C238.201,17.526 238.057,17.3809 237.873,17.2754 C237.689,17.1699 237.477,17.1172 237.234,17.1172 C236.982,17.1172 236.758,17.1751 236.564,17.291 C236.37,17.4069 236.219,17.5618 236.109,17.7559 C236,17.9499 235.944,18.1654 235.941,18.4023 L235.941,19.3828 C235.941,19.6797 235.997,19.9362 236.107,20.1523 C236.218,20.3685 236.375,20.5352 236.578,20.6523 C236.781,20.7695 237.022,20.8281 237.301,20.8281 C237.486,20.8281 237.655,20.8021 237.809,20.75 C237.962,20.6979 238.094,20.6198 238.203,20.5156 C238.313,20.4115 238.396,20.2839 238.453,20.1328 L239.992,20.2344 C239.914,20.6042 239.755,20.9264 239.514,21.2012 C239.273,21.4759 238.963,21.6895 238.584,21.8418 C238.205,21.9941 237.768,22.0703 237.273,22.0703 M244.293,15.9531 L244.293,17.2031 L240.68,17.2031 L240.68,15.9531 L244.293,15.9531 M241.5,14.5156 L243.164,14.5156 L243.164,20.1094 C243.164,20.263 243.188,20.3822 243.234,20.4668 C243.281,20.5514 243.347,20.6107 243.432,20.6445 C243.516,20.6784 243.615,20.6953 243.727,20.6953 C243.805,20.6953 243.883,20.6882 243.961,20.6738 C244.039,20.6595 244.099,20.6484 244.141,20.6406 L244.402,21.8789 C244.319,21.9049 244.202,21.9355 244.051,21.9707 C243.9,22.0059 243.716,22.0273 243.5,22.0352 C243.099,22.0508 242.748,21.9974 242.447,21.875 C242.146,21.7526 241.913,21.5625 241.746,21.3047 C241.579,21.0469 241.497,20.7214 241.5,20.3281 L241.5,14.5156 M248.039,22.0703 C247.422,22.0703 246.891,21.9447 246.447,21.6934 C246.003,21.4421 245.661,21.0853 245.422,20.623 C245.182,20.1608 245.063,19.6133 245.063,18.9805 C245.063,18.3633 245.182,17.8216 245.422,17.3555 C245.661,16.8893 245.999,16.526 246.436,16.2656 C246.872,16.0052 247.384,15.875 247.973,15.875 C248.368,15.875 248.738,15.9382 249.08,16.0645 C249.423,16.1908 249.722,16.3802 249.979,16.6328 C250.235,16.8854 250.435,17.2025 250.578,17.584 C250.721,17.9655 250.793,18.4115 250.793,18.9219 L250.793,19.3789 L245.727,19.3789 L245.727,18.3477 L249.227,18.3477 C249.227,18.1081 249.174,17.8958 249.07,17.7109 C248.966,17.526 248.822,17.3809 248.639,17.2754 C248.455,17.1699 248.242,17.1172 248,17.1172 C247.747,17.1172 247.524,17.1751 247.33,17.291 C247.136,17.4069 246.984,17.5618 246.875,17.7559 C246.766,17.9499 246.71,18.1654 246.707,18.4023 L246.707,19.3828 C246.707,19.6797 246.762,19.9362 246.873,20.1523 C246.984,20.3685 247.141,20.5352 247.344,20.6523 C247.547,20.7695 247.788,20.8281 248.066,20.8281 C248.251,20.8281 248.421,20.8021 248.574,20.75 C248.728,20.6979 248.859,20.6198 248.969,20.5156 C249.078,20.4115 249.161,20.2839 249.219,20.1328 L250.758,20.2344 C250.68,20.6042 250.52,20.9264 250.279,21.2012 C250.038,21.4759 249.729,21.6895 249.35,21.8418 C248.971,21.9941 248.534,22.0703 248.039,22.0703 M254.578,22.0703 C253.964,22.0703 253.436,21.9395 252.994,21.6777 C252.553,21.416 252.214,21.0521 251.979,20.5859 C251.743,20.1198 251.625,19.5833 251.625,18.9766 C251.625,18.362 251.744,17.8223 251.982,17.3574 C252.221,16.8926 252.56,16.5293 253,16.2676 C253.44,16.0059 253.964,15.875 254.57,15.875 C255.094,15.875 255.552,15.9701 255.945,16.1602 C256.339,16.3503 256.65,16.6172 256.879,16.9609 C257.108,17.3047 257.234,17.7083 257.258,18.1719 L255.688,18.1719 C255.643,17.8724 255.527,17.6309 255.338,17.4473 C255.149,17.2637 254.902,17.1719 254.598,17.1719 C254.34,17.1719 254.115,17.2415 253.924,17.3809 C253.732,17.5202 253.583,17.7227 253.477,17.9883 C253.37,18.2539 253.316,18.5755 253.316,18.9531 C253.316,19.3359 253.369,19.6615 253.475,19.9297 C253.58,20.1979 253.729,20.4023 253.922,20.543 C254.115,20.6836 254.34,20.7539 254.598,20.7539 C254.788,20.7539 254.959,20.7148 255.111,20.6367 C255.264,20.5586 255.39,20.4447 255.49,20.2949 C255.59,20.1452 255.656,19.9648 255.688,19.7539 L257.258,19.7539 C257.232,20.2122 257.107,20.6152 256.885,20.9629 C256.662,21.3105 256.355,21.582 255.965,21.7773 C255.574,21.9727 255.112,22.0703 254.578,22.0703 M261.512,15.9531 L261.512,17.2031 L257.898,17.2031 L257.898,15.9531 L261.512,15.9531 M258.719,14.5156 L260.383,14.5156 L260.383,20.1094 C260.383,20.263 260.406,20.3822 260.453,20.4668 C260.5,20.5514 260.566,20.6107 260.65,20.6445 C260.735,20.6784 260.833,20.6953 260.945,20.6953 C261.023,20.6953 261.102,20.6882 261.18,20.6738 C261.258,20.6595 261.318,20.6484 261.359,20.6406 L261.621,21.8789 C261.538,21.9049 261.421,21.9355 261.27,21.9707 C261.118,22.0059 260.935,22.0273 260.719,22.0352 C260.318,22.0508 259.967,21.9974 259.666,21.875 C259.365,21.7526 259.132,21.5625 258.965,21.3047 C258.798,21.0469 258.716,20.7214 258.719,20.3281 L258.719,14.5156 M262.586,21.9531 L262.586,15.9531 L264.25,15.9531 L264.25,21.9531 L262.586,21.9531 M263.422,15.1797 C263.174,15.1797 262.963,15.097 262.787,14.9316 C262.611,14.7663 262.523,14.5677 262.523,14.3359 C262.523,14.1068 262.611,13.9095 262.787,13.7441 C262.963,13.5788 263.174,13.4961 263.422,13.4961 C263.669,13.4961 263.881,13.5788 264.057,13.7441 C264.232,13.9095 264.32,14.1068 264.32,14.3359 C264.32,14.5677 264.232,14.7663 264.057,14.9316 C263.881,15.097 263.669,15.1797 263.422,15.1797 M268.281,22.0703 C267.674,22.0703 267.15,21.9408 266.709,21.6816 C266.268,21.4225 265.927,21.0605 265.688,20.5957 C265.448,20.1309 265.328,19.5911 265.328,18.9766 C265.328,18.3568 265.448,17.8145 265.688,17.3496 C265.927,16.8848 266.268,16.5228 266.709,16.2637 C267.15,16.0046 267.674,15.875 268.281,15.875 C268.888,15.875 269.412,16.0046 269.854,16.2637 C270.295,16.5228 270.635,16.8848 270.875,17.3496 C271.115,17.8145 271.234,18.3568 271.234,18.9766 C271.234,19.5911 271.115,20.1309 270.875,20.5957 C270.635,21.0605 270.295,21.4225 269.854,21.6816 C269.412,21.9408 268.888,22.0703 268.281,22.0703 M268.289,20.7813 C268.565,20.7813 268.796,20.7025 268.98,20.5449 C269.165,20.3874 269.305,20.1719 269.4,19.8984 C269.495,19.625 269.543,19.3138 269.543,18.9648 C269.543,18.6159 269.495,18.3047 269.4,18.0313 C269.305,17.7578 269.165,17.5417 268.98,17.3828 C268.796,17.224 268.565,17.1445 268.289,17.1445 C268.01,17.1445 267.777,17.224 267.588,17.3828 C267.399,17.5417 267.257,17.7578 267.162,18.0313 C267.067,18.3047 267.02,18.6159 267.02,18.9648 C267.02,19.3138 267.067,19.625 267.162,19.8984 C267.257,20.1719 267.399,20.3874 267.588,20.5449 C267.777,20.7025 268.01,20.7813 268.289,20.7813 M273.984,18.4844 L273.984,21.9531 L272.32,21.9531 L272.32,15.9531 L273.906,15.9531 L273.906,17.0117 L273.977,17.0117 C274.109,16.6628 274.332,16.3861 274.645,16.1816 C274.957,15.9772 275.336,15.875 275.781,15.875 C276.198,15.875 276.561,15.9661 276.871,16.1484 C277.181,16.3307 277.422,16.5905 277.594,16.9277 C277.766,17.265 277.852,17.6667 277.852,18.1328 L277.852,21.9531 L276.188,21.9531 L276.188,18.4297 C276.19,18.0625 276.096,17.7754 275.906,17.5684 C275.716,17.3613 275.454,17.2578 275.121,17.2578 C274.897,17.2578 274.7,17.306 274.529,17.4023 C274.359,17.4987 274.226,17.6387 274.131,17.8223 C274.036,18.0059 273.987,18.2266 273.984,18.4844 "/>
</g>

<g fill="#ffffff" fill-opacity="1" stroke="none" transform="matrix(0.0285,0,0,0.0285,11.2928,9.44754)"
font-family="Inter" font-size="11" font-weight="700" font-style="normal" 
>
<path vector-effect="none" fill-rule="nonzero" d="M410.778,59.991 C376.729,59.991 346.629,75.6235 326.182,99.684 C216.768,129.689 131.433,215.271 101.927,324.891 C79.5232,345.494 65.3275,374.762 65.54,407.6 C65.7463,439.573 79.3407,468.172 100.975,488.421 C130.228,601.34 218.744,689.335 331.859,718.096 C331.956,718.125 331.989,718.313 332.085,718.338 C352.242,738.376 380.064,750.708 410.778,750.708 C441.492,750.708 469.314,738.376 489.47,718.338 C489.549,718.262 489.618,718.17 489.696,718.096 C604.323,688.948 693.738,598.994 721.758,483.921 C742.939,463.42 756.216,434.907 756.015,403.1 C755.801,370.079 741.086,340.899 718.209,320.633 C687.622,213.077 603.338,129.291 495.373,99.684 C474.926,75.6235 444.827,59.991 410.778,59.991 M410.778,91.8938 C455.052,91.8938 490.89,127.731 490.89,172.006 C490.89,216.28 455.052,252.102 410.778,252.102 C366.503,252.102 330.666,216.28 330.666,172.006 C330.666,127.731 366.503,91.8938 410.778,91.8938 M177.071,325.601 C221.346,325.601 257.183,361.438 257.183,405.713 C257.183,449.987 221.346,485.808 177.071,485.808 C132.796,485.808 96.7332,449.987 96.7332,405.713 C96.7332,361.438 132.796,325.601 177.071,325.601 M644.485,325.601 C688.763,325.601 724.822,361.438 724.822,405.713 C724.822,449.987 688.763,485.808 644.485,485.808 C600.21,485.808 564.373,449.987 564.373,405.713 C564.373,361.438 600.21,325.601 644.485,325.601 M396.601,335.762 L424.955,335.762 C431.754,335.762 437.245,342.538 437.245,350.891 L437.245,381.6 L467.971,381.6 C476.323,381.6 483.083,387.091 483.083,393.89 L483.083,422.245 C483.083,429.044 476.323,434.535 467.971,434.535 L437.245,434.535 L437.245,465.26 C437.245,473.612 431.754,480.373 424.955,480.373 L396.601,480.373 C389.801,480.373 384.31,473.613 384.31,465.26 L384.31,434.535 L353.585,434.535 C345.233,434.535 338.472,429.044 338.472,422.245 L338.472,393.89 C338.472,387.091 345.232,381.6 353.585,381.6 L384.31,381.6 L384.31,350.891 C384.31,342.539 389.801,335.762 396.601,335.762 M410.778,559.307 C455.052,559.307 490.89,595.371 490.89,639.645 C490.89,683.918 455.052,719.757 410.778,719.757 C366.503,719.757 330.666,683.918 330.666,639.645 C330.666,595.371 366.503,559.307 410.778,559.307 "/>
</g>

<g fill="none" stroke="#000000" stroke-opacity="1" stroke-width="22.7975" stroke-linecap="round" stroke-linejoin="round" transform="matrix(0.0285,0,0,0.0285,11.2928,9.44754)"
font-family="Inter" font-size="11" font-weight="700" font-style="normal" 
>
<path vector-effect="none" fill-rule="nonzero" d="M410.778,59.991 C376.729,59.991 346.629,75.6235 326.182,99.684 C216.768,129.689 131.433,215.271 101.927,324.891 C79.5232,345.494 65.3275,374.762 65.54,407.6 C65.7463,439.573 79.3407,468.172 100.975,488.421 C130.228,601.34 218.744,689.335 331.859,718.096 C331.956,718.125 331.989,718.313 332.085,718.338 C352.242,738.376 380.064,750.708 410.778,750.708 C441.492,750.708 469.314,738.376 489.47,718.338 C489.549,718.262 489.618,718.17 489.696,718.096 C604.323,688.948 693.738,598.994 721.758,483.921 C742.939,463.42 756.216,434.907 756.015,403.1 C755.801,370.079 741.086,340.899 718.209,320.633 C687.622,213.077 603.338,129.291 495.373,99.684 C474.926,75.6235 444.827,59.991 410.778,59.991 M410.778,91.8938 C455.052,91.8938 490.89,127.731 490.89,172.006 C490.89,216.28 455.052,252.102 410.778,252.102 C366.503,252.102 330.666,216.28 330.666,172.006 C330.666,127.731 366.503,91.8938 410.778,91.8938 M177.071,325.601 C221.346,325.601 257.183,361.438 257.183,405.713 C257.183,449.987 221.346,485.808 177.071,485.808 C132.796,485.808 96.7332,449.987 96.7332,405.713 C96.7332,361.438 132.796,325.601 177.071,325.601 M644.485,325.601 C688.763,325.601 724.822,361.438 724.822,405.713 C724.822,449.987 688.763,485.808 644.485,485.808 C600.21,485.808 564.373,449.987 564.373,405.713 C564.373,361.438 600.21,325.601 644.485,325.601 M396.601,335.762 L424.955,335.762 C431.754,335.762 437.245,342.538 437.245,350.891 L437.245,381.6 L467.971,381.6 C476.323,381.6 483.083,387.091 483.083,393.89 L483.083,422.245 C483.083,429.044 476.323,434.535 467.971,434.535 L437.245,434.535 L437.245,465.26 C437.245,473.612 431.754,480.373 424.955,480.373 L396.601,480.373 C389.801,480.373 384.31,473.613 384.31,465.26 L384.31,434.535 L353.585,434.535 C345.233,434.535 338.472,429.044 338.472,422.245 L338.472,393.89 C338.472,387.091 345.232,381.6 353.585,381.6 L384.31,381.6 L384.31,350.891 C384.31,342.539 389.801,335.762 396.601,335.762 M410.778,559.307 C455.052,559.307 490.89,595.371 490.89,639.645 C490.89,683.918 455.052,719.757 410.778,719.757 C366.503,719.757 330.666,683.918 330.666,639.645 C330.666,595.371 366.503,559.307 410.778,559.307 "/>
</g>

<g fill="#000000" fill-opacity="1" stroke="none" transform="matrix(0.0285,0,0,0.0285,11.2928,9.44754)"
font-family="Inter" font-size="11" font-weight="700" font-style="normal" 
>
<path vector-effect="none" fill-rule="evenodd" d="M394.961,355.661 C394.961,347.613 401.485,341.088 409.533,341.088 C417.582,341.088 424.106,347.613 424.106,355.661 L424.106,457.48 C424.106,465.528 417.582,472.053 409.533,472.053 C401.485,472.053 394.961,465.528 394.961,457.48 L394.961,355.661"/>
</g>

<g fill="none" stroke="#000000" stroke-opacity="1" stroke-width="20" stroke-linecap="round" stroke-linejoin="round" transform="matrix(0.0285,0,0,0.0285,11.2928,9.44754)"
font-family="Inter" font-size="11" font-weight="700" font-style="normal" 
>
<path vector-effect="none" fill-rule="evenodd" d="M394.961,355.661 C394.961,347.613 401.485,341.088 409.533,341.088 C417.582,341.088 424.106,347.613 424.106,355.661 L424.106,457.48 C424.106,465.528 417.582,472.053 409.533,472.053 C401.485,472.053 394.961,465.528 394.961,457.48 L394.961,355.661"/>
</g>

<g fill="#000000" fill-opacity="1" stroke="none" transform="matrix(0,0.0285,-0.0285,0,11.2928,9.44754)"
font-family="Inter" font-size="11" font-weight="700" font-style="normal" 
>
<path vector-effect="none" fill-rule="evenodd" d="M394.152,-461.016 C394.152,-469.064 400.676,-475.588 408.724,-475.588 C416.773,-475.588 423.297,-469.064 423.297,-461.016 L423.297,-359.196 C423.297,-351.148 416.773,-344.624 408.724,-344.624 C400.676,-344.624 394.152,-351.148 394.152,-359.196 L394.152,-461.016"/>
</g>

<g fill="none" stroke="#000000" stroke-opacity="1" stroke-width="20" stroke-linecap="round" stroke-linejoin="round" transform="matrix(0,0.0285,-0.0285,0,11.2928,9.44754)"
font-family="Inter" font-size="11" font-weight="700" font-style="normal" 
>
<path vector-effect="none" fill-rule="evenodd" d="M394.152,-461.016 C394.152,-469.064 400.676,-475.588 408.724,-475.588 C416.773,-475.588 423.297,-469.064 423.297,-461.016 L423.297,-359.196 C423.297,-351.148 416.773,-344.624 408.724,-344.624 C400.676,-344.624 394.152,-351.148 394.152,-359.196 L394.152,-461.016"/>
</g>

<g fill="#ffffff" fill-opacity="1" stroke="none" transform="matrix(1,0,0,1,0,0)"
font-family="Inter" font-size="11" font-weight="700" font-style="normal" 
>
</g>

<g fill="#ffffff" fill-opacity="1" stroke="#0070ba" stroke-opacity="1" stroke-width="1" stroke-linecap="square" stroke-linejoin="bevel" transform="matrix(1,0,0,1,0,0)"
font-family="Inter" font-size="11" font-weight="700" font-style="normal" 
>
<polyline fill="none" vector-effect="none" points="45,11 45,31 " />
</g>

<g fill="#ffffff" fill-opacity="1" stroke="#0070ba" stroke-opacity="1" stroke-width="1" stroke-linecap="square" stroke-linejoin="bevel" transform="matrix(1,0,0,1,0,0)"
font-family="Inter" font-size="11" font-weight="700" font-style="normal" 
>
</g>

<g fill="#0090f5" fill-opacity="1" stroke="#0070ba" stroke-opacity="1" stroke-width="1.2" stroke-linecap="square" stroke-linejoin="bevel" transform="matrix(1,0,0,1,284,6)"
font-family="Inter" font-size="11" font-weight="700" font-style="normal" 
>
<path vector-effect="none" fill-rule="evenodd" d="M0.5,3.5 C0.5,1.84315 1.84315,0.5 3.5,0.5 L42.5,0.5 C44.1569,0.5 45.5,1.84315 45.5,3.5 L45.5,20.5 C45.5,22.1569 44.1569,23.5 42.5,23.5 L3.5,23.5 C1.84315,23.5 0.5,22.1569 0.5,20.5 L0.5,3.5"/>
</g>

<g fill="#ffffff" fill-opacity="1" stroke="none" transform="matrix(1,0,0,1,284,6)"
font-family="Inter" font-size="11" font-weight="700" font-style="normal" 
>
<path vector-effect="none" fill-rule="nonzero" d="M13.9531,15.0547 C13.3464,15.0547 12.8223,14.9251 12.3809,14.666 C11.9395,14.4069 11.599,14.0449 11.3594,13.5801 C11.1198,13.1152 11,12.5755 11,11.9609 C11,11.3411 11.1198,10.7988 11.3594,10.334 C11.599,9.86914 11.9395,9.50716 12.3809,9.24805 C12.8223,8.98893 13.3464,8.85938 13.9531,8.85938 C14.5599,8.85938 15.084,8.98893 15.5254,9.24805 C15.9668,9.50716 16.3073,9.86914 16.5469,10.334 C16.7865,10.7988 16.9063,11.3411 16.9063,11.9609 C16.9063,12.5755 16.7865,13.1152 16.5469,13.5801 C16.3073,14.0449 15.9668,14.4069 15.5254,14.666 C15.084,14.9251 14.5599,15.0547 13.9531,15.0547 M13.9609,13.7656 C14.237,13.7656 14.4674,13.6868 14.6523,13.5293 C14.8372,13.3717 14.9772,13.1563 15.0723,12.8828 C15.1673,12.6094 15.2148,12.2982 15.2148,11.9492 C15.2148,11.6003 15.1673,11.2891 15.0723,11.0156 C14.9772,10.7422 14.8372,10.526 14.6523,10.3672 C14.4674,10.2083 14.237,10.1289 13.9609,10.1289 C13.6823,10.1289 13.4486,10.2083 13.2598,10.3672 C13.071,10.526 12.929,10.7422 12.834,11.0156 C12.7389,11.2891 12.6914,11.6003 12.6914,11.9492 C12.6914,12.2982 12.7389,12.6094 12.834,12.8828 C12.929,13.1563 13.071,13.3717 13.2598,13.5293 C13.4486,13.6868 13.6823,13.7656 13.9609,13.7656 M19.6563,11.4688 L19.6563,14.9375 L17.9922,14.9375 L17.9922,8.9375 L19.5781,8.9375 L19.5781,9.99609 L19.6484,9.99609 C19.7813,9.64714 20.0039,9.37044 20.3164,9.16602 C20.6289,8.96159 21.0078,8.85938 21.4531,8.85938 C21.8698,8.85938 22.2331,8.95052 22.543,9.13281 C22.8529,9.3151 23.0938,9.57487 23.2656,9.91211 C23.4375,10.2493 23.5234,10.651 23.5234,11.1172 L23.5234,14.9375 L21.8594,14.9375 L21.8594,11.4141 C21.862,11.0469 21.7682,10.7598 21.5781,10.5527 C21.388,10.3457 21.1263,10.2422 20.793,10.2422 C20.569,10.2422 20.3717,10.2904 20.2012,10.3867 C20.0306,10.4831 19.8978,10.623 19.8027,10.8066 C19.7077,10.9902 19.6589,11.2109 19.6563,11.4688 "/>
</g>

<g fill="#ffffff" fill-opacity="1" stroke="none" transform="matrix(0.03125,0,0,0.03125,316,14)"
font-family="Inter" font-size="11" font-weight="700" font-style="normal" 
>
<path vector-effect="none" fill-rule="nonzero" d="M111.326,191.938 C120.545,201.158 135.517,201.158 144.737,191.938 L239.144,97.5313 C245.929,90.7458 247.921,80.6413 244.233,71.7907 C240.545,62.9401 231.989,57.1871 222.401,57.1871 L33.5875,57.2608 C24.0731,57.2608 15.4437,63.0137 11.7559,71.8644 C8.06815,80.715 10.1333,90.8195 16.845,97.605 L111.252,192.012 L111.326,191.938"/>
</g>

<g fill="none" stroke="#000000" stroke-opacity="1" stroke-width="13.7195" stroke-linecap="butt" stroke-linejoin="miter" stroke-miterlimit="4" transform="matrix(0.03125,0,0,0.03125,316,14)"
font-family="Inter" font-size="11" font-weight="700" font-style="normal" 
>
<path vector-effect="none" fill-rule="nonzero" d="M111.326,191.938 C120.545,201.158 135.517,201.158 144.737,191.938 L239.144,97.5313 C245.929,90.7458 247.921,80.6413 244.233,71.7907 C240.545,62.9401 231.989,57.1871 222.401,57.1871 L33.5875,57.2608 C24.0731,57.2608 15.4437,63.0137 11.7559,71.8644 C8.06815,80.715 10.1333,90.8195 16.845,97.605 L111.252,192.012 L111.326,191.938"/>
</g>

<g fill="#ffffff" fill-opacity="1" stroke="none" transform="matrix(1,0,0,1,284,6)"
font-family="Inter" font-size="11" font-weight="700" font-style="normal" 
>
</g>

<g fill="#ffffff" fill-opacity="1" stroke="#0070ba" stroke-opacity="1" stroke-width="1" stroke-linecap="square" stroke-linejoin="bevel" transform="matrix(1,0,0,1,0,0)"
font-family="Inter" font-size="11" font-weight="700" font-style="normal" 
>
</g>

<g fill="#ffffff" fill-opacity="1" stroke="#0070ba" stroke-opacity="1" stroke-width="1" stroke-linecap="square" stroke-linejoin="bevel" transform="matrix(1,0,0,1,0,0)"
font-family="Inter" font-size="11" font-weight="700" font-style="normal" 
>
</g>

<g fill="#ffffff" fill-opacity="1" stroke="#0070ba" stroke-opacity="1" stroke-width="1" stroke-linecap="square" stroke-linejoin="bevel" transform="matrix(1,0,0,1,0,0)"
font-family="Inter" font-size="11" font-weight="700" font-style="normal" 
>
</g>

<g fill="#0070ba" fill-opacity="1" stroke="#0070ba" stroke-opacity="1" stroke-width="1.2" stroke-linecap="square" stroke-linejoin="bevel" transform="matrix(1,0,0,1,131,6)"
font-family="Inter" font-size="11" font-weight="700" font-style="normal" 
>
<path vector-effect="none" fill-rule="evenodd" d="M0.5,12 C0.5,5.64873 5.87258,0.5 12.5,0.5 L27.5,0.5 C34.1274,0.5 39.5,5.64873 39.5,12 C39.5,18.3513 34.1274,23.5 27.5,23.5 L12.5,23.5 C5.87258,23.5 0.5,18.3513 0.5,12 "/>
</g>

<g fill="#ffffff" fill-opacity="1" stroke="none" transform="matrix(1,0,0,1,131,6)"
font-family="Inter" font-size="11" font-weight="700" font-style="normal" 
>
<path vector-effect="none" fill-rule="nonzero" d="M11.8242,16 L10.0117,16 L12.7734,8 L14.9531,8 L17.7109,16 L15.8984,16 L13.8945,9.82813 L13.832,9.82813 L11.8242,16 M11.7109,12.8555 L15.9922,12.8555 L15.9922,14.1758 L11.7109,14.1758 L11.7109,12.8555"/>
</g>

<g fill="#ffffff" fill-opacity="1" stroke="none" transform="matrix(0.03125,0,0,0.03125,157,14)"
font-family="Inter" font-size="11" font-weight="700" font-style="normal" 
>
<path vector-effect="none" fill-rule="nonzero" d="M111.326,191.938 C120.545,201.158 135.517,201.158 144.737,191.938 L239.144,97.5313 C245.929,90.7458 247.921,80.6413 244.233,71.7907 C240.545,62.9401 231.989,57.1871 222.401,57.1871 L33.5875,57.2608 C24.0731,57.2608 15.4437,63.0137 11.7559,71.8644 C8.06815,80.715 10.1333,90.8195 16.845,97.605 L111.252,192.012 L111.326,191.938"/>
</g>

<g fill="none" stroke="#000000" stroke-opacity="1" stroke-width="13.7195" stroke-linecap="butt" stroke-linejoin="miter" stroke-miterlimit="4" transform="matrix(0.03125,0,0,0.03125,157,14)"
font-family="Inter" font-size="11" font-weight="700" font-style="normal" 
>
<path vector-effect="none" fill-rule="nonzero" d="M111.326,191.938 C120.545,201.158 135.517,201.158 144.737,191.938 L239.144,97.5313 C245.929,90.7458 247.921,80.6413 244.233,71.7907 C240.545,62.9401 231.989,57.1871 222.401,57.1871 L33.5875,57.2608 C24.0731,57.2608 15.4437,63.0137 11.7559,71.8644 C8.06815,80.715 10.1333,90.8195 16.845,97.605 L111.252,192.012 L111.326,191.938"/>
</g>

<g fill="#ffffff" fill-opacity="1" stroke="none" transform="matrix(1,0,0,1,131,6)"
font-family="Inter" font-size="11" font-weight="700" font-style="normal" 
>
</g>

<g fill="#ffffff" fill-opacity="1" stroke="#0070ba" stroke-opacity="1" stroke-width="1" stroke-linecap="square" stroke-linejoin="bevel" transform="matrix(1,0,0,1,0,0)"
font-family="Inter" font-size="11" font-weight="700" font-style="normal" 
>
</g>

<g fill="#0090f5" fill-opacity="1" stroke="#0070ba" stroke-opacity="1" stroke-width="1.2" stroke-linecap="square" stroke-linejoin="bevel" transform="matrix(1,0,0,1,56,6)"
font-family="Inter" font-size="11" font-weight="700" font-style="normal" 
>
<path vector-effect="none" fill-rule="evenodd" d="M0.5,3.5 C0.5,1.84315 1.84315,0.5 3.5,0.5 L67.5,0.5 C69.1569,0.5 70.5,1.84315 70.5,3.5 L70.5,20.5 C70.5,22.1569 69.1569,23.5 67.5,23.5 L3.5,23.5 C1.84315,23.5 0.5,22.1569 0.5,20.5 L0.5,3.5"/>
</g>

<g fill="#ffffff" fill-opacity="1" stroke="none" transform="matrix(1,0,0,1,56,6)"
font-family="Inter" font-size="11" font-weight="700" font-style="normal" 
>
<path vector-effect="none" fill-rule="nonzero" d="M11.6992,8 L11.6992,16 L10.0078,16 L10.0078,8 L11.6992,8 M19.7773,8 L19.7773,16 L18.3164,16 L14.8359,10.9648 L14.7773,10.9648 L14.7773,16 L13.0859,16 L13.0859,8 L14.5703,8 L18.0234,13.0313 L18.0938,13.0313 L18.0938,8 L19.7773,8 M22.6094,8 L24.543,14.0781 L24.6172,14.0781 L26.5547,8 L28.4297,8 L25.6719,16 L23.4922,16 L20.7305,8 L22.6094,8 M29.3828,16 L29.3828,8 L31.0742,8 L31.0742,11.3008 L34.5078,11.3008 L34.5078,8 L36.1953,8 L36.1953,16 L34.5078,16 L34.5078,12.6953 L31.0742,12.6953 L31.0742,16 L29.3828,16 M37.5859,16 L37.5859,8 L40.7891,8 C41.3776,8 41.8685,8.08724 42.2617,8.26172 C42.6549,8.4362 42.9505,8.67773 43.1484,8.98633 C43.3464,9.29492 43.4453,9.64974 43.4453,10.0508 C43.4453,10.3633 43.3828,10.6374 43.2578,10.873 C43.1328,11.1087 42.9616,11.3014 42.7441,11.4512 C42.5267,11.6009 42.2786,11.707 42,11.7695 L42,11.8477 C42.3047,11.8607 42.5905,11.9466 42.8574,12.1055 C43.1243,12.2643 43.3411,12.4863 43.5078,12.7715 C43.6745,13.0566 43.7578,13.3958 43.7578,13.7891 C43.7578,14.2135 43.653,14.5918 43.4434,14.9238 C43.2337,15.2559 42.9245,15.5182 42.5156,15.7109 C42.1068,15.9036 41.6029,16 41.0039,16 L37.5859,16 M39.2773,14.6172 L40.6563,14.6172 C41.1276,14.6172 41.4714,14.5267 41.6875,14.3457 C41.9036,14.1647 42.0117,13.9232 42.0117,13.6211 C42.0117,13.3997 41.9583,13.2044 41.8516,13.0352 C41.7448,12.8659 41.5931,12.7331 41.3965,12.6367 C41.1999,12.5404 40.9661,12.4922 40.6953,12.4922 L39.2773,12.4922 L39.2773,14.6172 M39.2773,11.3477 L40.5313,11.3477 C40.763,11.3477 40.9694,11.3066 41.1504,11.2246 C41.3314,11.1426 41.4746,11.026 41.5801,10.875 C41.6855,10.724 41.7383,10.543 41.7383,10.332 C41.7383,10.043 41.6361,9.8099 41.4316,9.63281 C41.2272,9.45573 40.9375,9.36719 40.5625,9.36719 L39.2773,9.36719 L39.2773,11.3477 M48.2852,8 L48.2852,16 L46.5938,16 L46.5938,9.60547 L46.5469,9.60547 L44.7148,10.7539 L44.7148,9.25391 L46.6953,8 L48.2852,8"/>
</g>

<g fill="#ffffff" fill-opacity="1" stroke="none" transform="matrix(0.03125,0,0,0.03125,113,14)"
font-family="Inter" font-size="11" font-weight="700" font-style="normal" 
>
<path vector-effect="none" fill-rule="nonzero" d="M111.326,191.938 C120.545,201.158 135.517,201.158 144.737,191.938 L239.144,97.5313 C245.929,90.7458 247.921,80.6413 244.233,71.7907 C240.545,62.9401 231.989,57.1871 222.401,57.1871 L33.5875,57.2608 C24.0731,57.2608 15.4437,63.0137 11.7559,71.8644 C8.06815,80.715 10.1333,90.8195 16.845,97.605 L111.252,192.012 L111.326,191.938"/>
</g>

<g fill="none" stroke="#000000" stroke-opacity="1" stroke-width="13.7195" stroke-linecap="butt" stroke-linejoin="miter" stroke-miterlimit="4" transform="matrix(0.03125,0,0,0.03125,113,14)"
font-family="Inter" font-size="11" font-weight="700" font-style="normal" 
>
<path vector-effect="none" fill-rule="nonzero" d="M111.326,191.938 C120.545,201.158 135.517,201.158 144.737,191.938 L239.144,97.5313 C245.929,90.7458 247.921,80.6413 244.233,71.7907 C240.545,62.9401 231.989,57.1871 222.401,57.1871 L33.5875,57.2608 C24.0731,57.2608 15.4437,63.0137 11.7559,71.8644 C8.06815,80.715 10.1333,90.8195 16.845,97.605 L111.252,192.012 L111.326,191.938"/>
</g>

<g fill="#ffffff" fill-opacity="1" stroke="none" transform="matrix(1,0,0,1,56,6)"
font-family="Inter" font-size="11" font-weight="700" font-style="normal" 
>
</g>

<g fill="#ffffff" fill-opacity="1" stroke="#0070ba" stroke-opacity="1" stroke-width="1" stroke-linecap="square" stroke-linejoin="bevel" transform="matrix(1,0,0,1,0,0)"
font-family="Inter" font-size="11" font-weight="700" font-style="normal" 
>
</g>

<g fill="none" stroke="#000000" stroke-opacity="1" stroke-width="1" stroke-linecap="square" stroke-linejoin="bevel" transform="matrix(1,0,0,1,0,0)"
font-family=".AppleSystemUIFont" font-size="13" font-weight="400" font-style="normal" 
>
</g>
</g>
</svg>
