<?xml version="1.0" encoding="UTF-8" standalone="no"?>
<svg width="99.4833mm" height="11.2889mm"
 viewBox="0 0 282 32"
 xmlns="http://www.w3.org/2000/svg" xmlns:xlink="http://www.w3.org/1999/xlink" version="1.2" baseProfile="tiny">
<title>Abstract block</title>
<desc>block_hubs_buwizz_sensors_get_output_voltage</desc>
<defs>
</defs>
<g fill="none" stroke="black" stroke-width="1" fill-rule="evenodd" stroke-linecap="square" stroke-linejoin="bevel" >

<g fill="none" stroke="#000000" stroke-opacity="1" stroke-width="1" stroke-linecap="square" stroke-linejoin="bevel" transform="matrix(1,0,0,1,0,0)"
font-family=".AppleSystemUIFont" font-size="13" font-weight="400" font-style="normal" 
>
</g>

<g fill="none" stroke="#000000" stroke-opacity="1" stroke-width="1" stroke-linecap="square" stroke-linejoin="bevel" transform="matrix(1,0,0,1,0,0)"
font-family=".AppleSystemUIFont" font-size="13" font-weight="400" font-style="normal" 
>
</g>

<g fill="#1dccf0" fill-opacity="1" stroke="#0da6c5" stroke-opacity="1" stroke-width="1.2" stroke-linecap="square" stroke-linejoin="bevel" transform="matrix(1,0,0,1,0,0)"
font-family=".AppleSystemUIFont" font-size="13" font-weight="400" font-style="normal" 
>
<path vector-effect="none" fill-rule="evenodd" d="M1,16 C1,7.71573 8.16344,1 17,1 L264.667,1 C273.503,1 280.667,7.71573 280.667,16 C280.667,24.2843 273.503,31 264.667,31 L17,31 C8.16344,31 1,24.2843 1,16 "/>
</g>

<g fill="#ffffff" fill-opacity="1" stroke="none" transform="matrix(1,0,0,1,0,0)"
font-family="Inter" font-size="11" font-weight="700" font-style="normal" 
>
<path vector-effect="none" fill-rule="nonzero" d="M60.7891,20.8594 C60.25,20.8594 59.7884,20.7858 59.4043,20.6387 C59.0202,20.4915 58.7148,20.2917 58.4883,20.0391 C58.2617,19.7865 58.1146,19.5026 58.0469,19.1875 L59.5859,18.9805 C59.6328,19.1003 59.707,19.2122 59.8086,19.3164 C59.9102,19.4206 60.0449,19.5046 60.2129,19.5684 C60.3809,19.6322 60.5859,19.6641 60.8281,19.6641 C61.1901,19.6641 61.4889,19.5762 61.7246,19.4004 C61.9603,19.2246 62.0781,18.931 62.0781,18.5195 L62.0781,17.4219 L62.0078,17.4219 C61.9349,17.5885 61.8255,17.7461 61.6797,17.8945 C61.5339,18.043 61.3464,18.1641 61.1172,18.2578 C60.888,18.3516 60.6146,18.3984 60.2969,18.3984 C59.8464,18.3984 59.4368,18.2936 59.0684,18.084 C58.6999,17.8743 58.4069,17.5527 58.1895,17.1191 C57.972,16.6855 57.8633,16.1367 57.8633,15.4727 C57.8633,14.793 57.974,14.2253 58.1953,13.7695 C58.4167,13.3138 58.7116,12.9727 59.0801,12.7461 C59.4486,12.5195 59.8529,12.4063 60.293,12.4063 C60.6289,12.4063 60.9102,12.4629 61.1367,12.5762 C61.3633,12.6895 61.5462,12.8301 61.6855,12.998 C61.8249,13.166 61.9323,13.3307 62.0078,13.4922 L62.0703,13.4922 L62.0703,12.4844 L63.7227,12.4844 L63.7227,18.543 C63.7227,19.0534 63.5977,19.4805 63.3477,19.8242 C63.0977,20.168 62.752,20.4264 62.3105,20.5996 C61.8691,20.7728 61.362,20.8594 60.7891,20.8594 M60.8242,17.1484 C61.0924,17.1484 61.3197,17.0814 61.5059,16.9473 C61.6921,16.8132 61.8353,16.6204 61.9355,16.3691 C62.0358,16.1178 62.0859,15.8164 62.0859,15.4648 C62.0859,15.1133 62.0365,14.8079 61.9375,14.5488 C61.8385,14.2897 61.6953,14.0885 61.5078,13.9453 C61.3203,13.8021 61.0924,13.7305 60.8242,13.7305 C60.5508,13.7305 60.3203,13.804 60.1328,13.9512 C59.9453,14.0983 59.8034,14.3021 59.707,14.5625 C59.6107,14.8229 59.5625,15.1237 59.5625,15.4648 C59.5625,15.8112 59.6113,16.11 59.709,16.3613 C59.8066,16.6126 59.9486,16.8066 60.1348,16.9434 C60.321,17.0801 60.5508,17.1484 60.8242,17.1484 M67.7734,18.6016 C67.1563,18.6016 66.6257,18.4759 66.1816,18.2246 C65.7376,17.9733 65.3958,17.6165 65.1563,17.1543 C64.9167,16.6921 64.7969,16.1445 64.7969,15.5117 C64.7969,14.8945 64.9167,14.3529 65.1563,13.8867 C65.3958,13.4206 65.7337,13.0573 66.1699,12.7969 C66.6061,12.5365 67.1185,12.4063 67.707,12.4063 C68.1029,12.4063 68.472,12.4694 68.8145,12.5957 C69.1569,12.722 69.4564,12.9115 69.7129,13.1641 C69.9694,13.4167 70.1693,13.7337 70.3125,14.1152 C70.4557,14.4967 70.5273,14.9427 70.5273,15.4531 L70.5273,15.9102 L65.4609,15.9102 L65.4609,14.8789 L68.9609,14.8789 C68.9609,14.6393 68.9089,14.4271 68.8047,14.2422 C68.7005,14.0573 68.5566,13.9121 68.373,13.8066 C68.1895,13.7012 67.9766,13.6484 67.7344,13.6484 C67.4818,13.6484 67.2585,13.7064 67.0645,13.8223 C66.8704,13.9382 66.7188,14.0931 66.6094,14.2871 C66.5,14.4811 66.444,14.6966 66.4414,14.9336 L66.4414,15.9141 C66.4414,16.2109 66.4967,16.4674 66.6074,16.6836 C66.7181,16.8997 66.875,17.0664 67.0781,17.1836 C67.2813,17.3008 67.5221,17.3594 67.8008,17.3594 C67.9857,17.3594 68.1549,17.3333 68.3086,17.2813 C68.4622,17.2292 68.5938,17.151 68.7031,17.0469 C68.8125,16.9427 68.8958,16.8151 68.9531,16.6641 L70.4922,16.7656 C70.4141,17.1354 70.2546,17.4577 70.0137,17.7324 C69.7728,18.0072 69.4629,18.2207 69.084,18.373 C68.7051,18.5254 68.2682,18.6016 67.7734,18.6016 M74.793,12.4844 L74.793,13.7344 L71.1797,13.7344 L71.1797,12.4844 L74.793,12.4844 M72,11.0469 L73.6641,11.0469 L73.6641,16.6406 C73.6641,16.7943 73.6875,16.9134 73.7344,16.998 C73.7813,17.0827 73.847,17.1419 73.9316,17.1758 C74.0163,17.2096 74.1146,17.2266 74.2266,17.2266 C74.3047,17.2266 74.3828,17.2194 74.4609,17.2051 C74.5391,17.1908 74.599,17.1797 74.6406,17.1719 L74.9023,18.4102 C74.819,18.4362 74.7018,18.4668 74.5508,18.502 C74.3997,18.5371 74.2161,18.5586 74,18.5664 C73.599,18.582 73.248,18.5286 72.9473,18.4063 C72.6465,18.2839 72.4128,18.0938 72.2461,17.8359 C72.0794,17.5781 71.9974,17.2526 72,16.8594 L72,11.0469"/>
</g>

<g fill="#ffffff" fill-opacity="1" stroke="none" transform="matrix(1,0,0,1,0,0)"
font-family="Inter" font-size="11" font-weight="700" font-style="normal" 
>
<path vector-effect="none" fill-rule="nonzero" d="M174.078,19.3672 C173.471,19.3672 172.947,19.2376 172.506,18.9785 C172.064,18.7194 171.724,18.3574 171.484,17.8926 C171.245,17.4277 171.125,16.888 171.125,16.2734 C171.125,15.6536 171.245,15.1113 171.484,14.6465 C171.724,14.1816 172.064,13.8197 172.506,13.5605 C172.947,13.3014 173.471,13.1719 174.078,13.1719 C174.685,13.1719 175.209,13.3014 175.65,13.5605 C176.092,13.8197 176.432,14.1816 176.672,14.6465 C176.911,15.1113 177.031,15.6536 177.031,16.2734 C177.031,16.888 176.911,17.4277 176.672,17.8926 C176.432,18.3574 176.092,18.7194 175.65,18.9785 C175.209,19.2376 174.685,19.3672 174.078,19.3672 M174.086,18.0781 C174.362,18.0781 174.592,17.9993 174.777,17.8418 C174.962,17.6842 175.102,17.4688 175.197,17.1953 C175.292,16.9219 175.34,16.6107 175.34,16.2617 C175.34,15.9128 175.292,15.6016 175.197,15.3281 C175.102,15.0547 174.962,14.8385 174.777,14.6797 C174.592,14.5208 174.362,14.4414 174.086,14.4414 C173.807,14.4414 173.574,14.5208 173.385,14.6797 C173.196,14.8385 173.054,15.0547 172.959,15.3281 C172.864,15.6016 172.816,15.9128 172.816,16.2617 C172.816,16.6107 172.864,16.9219 172.959,17.1953 C173.054,17.4688 173.196,17.6842 173.385,17.8418 C173.574,17.9993 173.807,18.0781 174.086,18.0781 M181.965,16.6953 L181.965,13.25 L183.629,13.25 L183.629,19.25 L182.031,19.25 L182.031,18.1602 L181.969,18.1602 C181.833,18.5117 181.609,18.7943 181.295,19.0078 C180.981,19.2214 180.599,19.3281 180.148,19.3281 C179.747,19.3281 179.395,19.237 179.09,19.0547 C178.785,18.8724 178.548,18.6133 178.377,18.2773 C178.206,17.9414 178.12,17.5391 178.117,17.0703 L178.117,13.25 L179.781,13.25 L179.781,16.7734 C179.784,17.1276 179.879,17.4076 180.066,17.6133 C180.254,17.819 180.505,17.9219 180.82,17.9219 C181.021,17.9219 181.208,17.8757 181.383,17.7832 C181.557,17.6908 181.699,17.5534 181.807,17.3711 C181.915,17.1888 181.967,16.9635 181.965,16.6953 M188.137,13.25 L188.137,14.5 L184.523,14.5 L184.523,13.25 L188.137,13.25 M185.344,11.8125 L187.008,11.8125 L187.008,17.4063 C187.008,17.5599 187.031,17.679 187.078,17.7637 C187.125,17.8483 187.191,17.9076 187.275,17.9414 C187.36,17.9753 187.458,17.9922 187.57,17.9922 C187.648,17.9922 187.727,17.985 187.805,17.9707 C187.883,17.9564 187.943,17.9453 187.984,17.9375 L188.246,19.1758 C188.163,19.2018 188.046,19.2324 187.895,19.2676 C187.743,19.3027 187.56,19.3242 187.344,19.332 C186.943,19.3477 186.592,19.2943 186.291,19.1719 C185.99,19.0495 185.757,18.8594 185.59,18.6016 C185.423,18.3438 185.341,18.0182 185.344,17.625 L185.344,11.8125 M189.211,21.5 L189.211,13.25 L190.852,13.25 L190.852,14.2578 L190.926,14.2578 C190.999,14.0964 191.105,13.9316 191.244,13.7637 C191.383,13.5957 191.566,13.4551 191.791,13.3418 C192.016,13.2285 192.297,13.1719 192.633,13.1719 C193.07,13.1719 193.474,13.2858 193.844,13.5137 C194.214,13.7415 194.509,14.084 194.73,14.541 C194.952,14.998 195.063,15.5703 195.063,16.2578 C195.063,16.9271 194.955,17.4915 194.74,17.9512 C194.525,18.4108 194.234,18.7585 193.865,18.9941 C193.497,19.2298 193.085,19.3477 192.629,19.3477 C192.306,19.3477 192.032,19.2943 191.807,19.1875 C191.581,19.0807 191.397,18.946 191.254,18.7832 C191.111,18.6204 191.001,18.4557 190.926,18.2891 L190.875,18.2891 L190.875,21.5 L189.211,21.5 M190.84,16.25 C190.84,16.6068 190.889,16.918 190.988,17.1836 C191.087,17.4492 191.23,17.6556 191.418,17.8027 C191.605,17.9499 191.833,18.0234 192.102,18.0234 C192.372,18.0234 192.602,17.9486 192.789,17.7988 C192.977,17.6491 193.119,17.4408 193.217,17.1738 C193.314,16.9069 193.363,16.599 193.363,16.25 C193.363,15.9036 193.315,15.599 193.219,15.3359 C193.122,15.0729 192.98,14.8672 192.793,14.7188 C192.605,14.5703 192.375,14.4961 192.102,14.4961 C191.831,14.4961 191.602,14.5677 191.416,14.7109 C191.23,14.8542 191.087,15.0573 190.988,15.3203 C190.889,15.5833 190.84,15.8932 190.84,16.25 M200.012,16.6953 L200.012,13.25 L201.676,13.25 L201.676,19.25 L200.078,19.25 L200.078,18.1602 L200.016,18.1602 C199.88,18.5117 199.656,18.7943 199.342,19.0078 C199.028,19.2214 198.646,19.3281 198.195,19.3281 C197.794,19.3281 197.441,19.237 197.137,19.0547 C196.832,18.8724 196.594,18.6133 196.424,18.2773 C196.253,17.9414 196.167,17.5391 196.164,17.0703 L196.164,13.25 L197.828,13.25 L197.828,16.7734 C197.831,17.1276 197.926,17.4076 198.113,17.6133 C198.301,17.819 198.552,17.9219 198.867,17.9219 C199.068,17.9219 199.255,17.8757 199.43,17.7832 C199.604,17.6908 199.745,17.5534 199.854,17.3711 C199.962,17.1888 200.014,16.9635 200.012,16.6953 M206.184,13.25 L206.184,14.5 L202.57,14.5 L202.57,13.25 L206.184,13.25 M203.391,11.8125 L205.055,11.8125 L205.055,17.4063 C205.055,17.5599 205.078,17.679 205.125,17.7637 C205.172,17.8483 205.238,17.9076 205.322,17.9414 C205.407,17.9753 205.505,17.9922 205.617,17.9922 C205.695,17.9922 205.773,17.985 205.852,17.9707 C205.93,17.9564 205.99,17.9453 206.031,17.9375 L206.293,19.1758 C206.21,19.2018 206.092,19.2324 205.941,19.2676 C205.79,19.3027 205.607,19.3242 205.391,19.332 C204.99,19.3477 204.639,19.2943 204.338,19.1719 C204.037,19.0495 203.803,18.8594 203.637,18.6016 C203.47,18.3438 203.388,18.0182 203.391,17.625 L203.391,11.8125 M215.398,13.25 L213.301,19.25 L211.426,19.25 L209.328,13.25 L211.086,13.25 L212.332,17.543 L212.395,17.543 L213.637,13.25 L215.398,13.25 M218.75,19.3672 C218.143,19.3672 217.619,19.2376 217.178,18.9785 C216.736,18.7194 216.396,18.3574 216.156,17.8926 C215.917,17.4277 215.797,16.888 215.797,16.2734 C215.797,15.6536 215.917,15.1113 216.156,14.6465 C216.396,14.1816 216.736,13.8197 217.178,13.5605 C217.619,13.3014 218.143,13.1719 218.75,13.1719 C219.357,13.1719 219.881,13.3014 220.322,13.5605 C220.764,13.8197 221.104,14.1816 221.344,14.6465 C221.583,15.1113 221.703,15.6536 221.703,16.2734 C221.703,16.888 221.583,17.4277 221.344,17.8926 C221.104,18.3574 220.764,18.7194 220.322,18.9785 C219.881,19.2376 219.357,19.3672 218.75,19.3672 M218.758,18.0781 C219.034,18.0781 219.264,17.9993 219.449,17.8418 C219.634,17.6842 219.774,17.4688 219.869,17.1953 C219.964,16.9219 220.012,16.6107 220.012,16.2617 C220.012,15.9128 219.964,15.6016 219.869,15.3281 C219.774,15.0547 219.634,14.8385 219.449,14.6797 C219.264,14.5208 219.034,14.4414 218.758,14.4414 C218.479,14.4414 218.245,14.5208 218.057,14.6797 C217.868,14.8385 217.726,15.0547 217.631,15.3281 C217.536,15.6016 217.488,15.9128 217.488,16.2617 C217.488,16.6107 217.536,16.9219 217.631,17.1953 C217.726,17.4688 217.868,17.6842 218.057,17.8418 C218.245,17.9993 218.479,18.0781 218.758,18.0781 M224.453,11.25 L224.453,19.25 L222.789,19.25 L222.789,11.25 L224.453,11.25 M228.965,13.25 L228.965,14.5 L225.352,14.5 L225.352,13.25 L228.965,13.25 M226.172,11.8125 L227.836,11.8125 L227.836,17.4063 C227.836,17.5599 227.859,17.679 227.906,17.7637 C227.953,17.8483 228.019,17.9076 228.104,17.9414 C228.188,17.9753 228.286,17.9922 228.398,17.9922 C228.477,17.9922 228.555,17.985 228.633,17.9707 C228.711,17.9564 228.771,17.9453 228.813,17.9375 L229.074,19.1758 C228.991,19.2018 228.874,19.2324 228.723,19.2676 C228.572,19.3027 228.388,19.3242 228.172,19.332 C227.771,19.3477 227.42,19.2943 227.119,19.1719 C226.818,19.0495 226.585,18.8594 226.418,18.6016 C226.251,18.3438 226.169,18.0182 226.172,17.625 L226.172,11.8125 M231.75,19.3633 C231.367,19.3633 231.026,19.2962 230.727,19.1621 C230.427,19.028 230.191,18.8288 230.018,18.5645 C229.844,18.3001 229.758,17.9701 229.758,17.5742 C229.758,17.2409 229.819,16.9609 229.941,16.7344 C230.064,16.5078 230.23,16.3255 230.441,16.1875 C230.652,16.0495 230.893,15.9453 231.162,15.875 C231.432,15.8047 231.715,15.7552 232.012,15.7266 C232.361,15.6901 232.642,15.6556 232.855,15.623 C233.069,15.5905 233.224,15.5417 233.32,15.4766 C233.417,15.4115 233.465,15.3151 233.465,15.1875 L233.465,15.1641 C233.465,14.9167 233.387,14.7253 233.232,14.5898 C233.077,14.4544 232.858,14.3867 232.574,14.3867 C232.275,14.3867 232.036,14.4525 231.859,14.584 C231.682,14.7155 231.565,14.8802 231.508,15.0781 L229.969,14.9531 C230.047,14.5885 230.201,14.2728 230.43,14.0059 C230.659,13.7389 230.955,13.5332 231.318,13.3887 C231.682,13.2441 232.103,13.1719 232.582,13.1719 C232.915,13.1719 233.235,13.2109 233.541,13.2891 C233.847,13.3672 234.119,13.4883 234.357,13.6523 C234.596,13.8164 234.784,14.0267 234.922,14.2832 C235.06,14.5397 235.129,14.8464 235.129,15.2031 L235.129,19.25 L233.551,19.25 L233.551,18.418 L233.504,18.418 C233.408,18.6055 233.279,18.7702 233.117,18.9121 C232.956,19.054 232.762,19.1647 232.535,19.2441 C232.309,19.3236 232.047,19.3633 231.75,19.3633 M232.227,18.2148 C232.471,18.2148 232.688,18.166 232.875,18.0684 C233.063,17.9707 233.21,17.8385 233.316,17.6719 C233.423,17.5052 233.477,17.3164 233.477,17.1055 L233.477,16.4688 C233.424,16.5026 233.354,16.5332 233.264,16.5605 C233.174,16.5879 233.073,16.6126 232.961,16.6348 C232.849,16.6569 232.737,16.6764 232.625,16.6934 C232.513,16.7103 232.411,16.7253 232.32,16.7383 C232.125,16.7669 231.954,16.8125 231.809,16.875 C231.663,16.9375 231.549,17.0215 231.469,17.127 C231.388,17.2324 231.348,17.3633 231.348,17.5195 C231.348,17.7461 231.43,17.9186 231.596,18.0371 C231.761,18.1556 231.971,18.2148 232.227,18.2148 M239.117,21.625 C238.578,21.625 238.117,21.5514 237.732,21.4043 C237.348,21.2572 237.043,21.0573 236.816,20.8047 C236.59,20.5521 236.443,20.2682 236.375,19.9531 L237.914,19.7461 C237.961,19.8659 238.035,19.9779 238.137,20.082 C238.238,20.1862 238.373,20.2702 238.541,20.334 C238.709,20.3978 238.914,20.4297 239.156,20.4297 C239.518,20.4297 239.817,20.3418 240.053,20.166 C240.288,19.9902 240.406,19.6966 240.406,19.2852 L240.406,18.1875 L240.336,18.1875 C240.263,18.3542 240.154,18.5117 240.008,18.6602 C239.862,18.8086 239.674,18.9297 239.445,19.0234 C239.216,19.1172 238.943,19.1641 238.625,19.1641 C238.174,19.1641 237.765,19.0592 237.396,18.8496 C237.028,18.64 236.735,18.3184 236.518,17.8848 C236.3,17.4512 236.191,16.9023 236.191,16.2383 C236.191,15.5586 236.302,14.9909 236.523,14.5352 C236.745,14.0794 237.04,13.7383 237.408,13.5117 C237.777,13.2852 238.181,13.1719 238.621,13.1719 C238.957,13.1719 239.238,13.2285 239.465,13.3418 C239.691,13.4551 239.874,13.5957 240.014,13.7637 C240.153,13.9316 240.26,14.0964 240.336,14.2578 L240.398,14.2578 L240.398,13.25 L242.051,13.25 L242.051,19.3086 C242.051,19.819 241.926,20.2461 241.676,20.5898 C241.426,20.9336 241.08,21.1921 240.639,21.3652 C240.197,21.5384 239.69,21.625 239.117,21.625 M239.152,17.9141 C239.421,17.9141 239.648,17.847 239.834,17.7129 C240.02,17.5788 240.163,17.3861 240.264,17.1348 C240.364,16.8835 240.414,16.582 240.414,16.2305 C240.414,15.8789 240.365,15.5736 240.266,15.3145 C240.167,15.0553 240.023,14.8542 239.836,14.7109 C239.648,14.5677 239.421,14.4961 239.152,14.4961 C238.879,14.4961 238.648,14.5697 238.461,14.7168 C238.273,14.8639 238.132,15.0677 238.035,15.3281 C237.939,15.5885 237.891,15.8893 237.891,16.2305 C237.891,16.5768 237.939,16.8757 238.037,17.127 C238.135,17.3783 238.277,17.5723 238.463,17.709 C238.649,17.8457 238.879,17.9141 239.152,17.9141 M246.102,19.3672 C245.484,19.3672 244.954,19.2415 244.51,18.9902 C244.066,18.7389 243.724,18.3822 243.484,17.9199 C243.245,17.4577 243.125,16.9102 243.125,16.2773 C243.125,15.6602 243.245,15.1185 243.484,14.6523 C243.724,14.1862 244.062,13.8229 244.498,13.5625 C244.934,13.3021 245.447,13.1719 246.035,13.1719 C246.431,13.1719 246.8,13.235 247.143,13.3613 C247.485,13.4876 247.785,13.6771 248.041,13.9297 C248.298,14.1823 248.497,14.4993 248.641,14.8809 C248.784,15.2624 248.855,15.7083 248.855,16.2188 L248.855,16.6758 L243.789,16.6758 L243.789,15.6445 L247.289,15.6445 C247.289,15.4049 247.237,15.1927 247.133,15.0078 C247.029,14.8229 246.885,14.6777 246.701,14.5723 C246.518,14.4668 246.305,14.4141 246.063,14.4141 C245.81,14.4141 245.587,14.472 245.393,14.5879 C245.199,14.7038 245.047,14.8587 244.938,15.0527 C244.828,15.2467 244.772,15.4622 244.77,15.6992 L244.77,16.6797 C244.77,16.9766 244.825,17.2331 244.936,17.4492 C245.046,17.6654 245.203,17.832 245.406,17.9492 C245.609,18.0664 245.85,18.125 246.129,18.125 C246.314,18.125 246.483,18.099 246.637,18.0469 C246.79,17.9948 246.922,17.9167 247.031,17.8125 C247.141,17.7083 247.224,17.5807 247.281,17.4297 L248.82,17.5313 C248.742,17.901 248.583,18.2233 248.342,18.498 C248.101,18.7728 247.791,18.9863 247.412,19.1387 C247.033,19.291 246.596,19.3672 246.102,19.3672 M252.844,15.25 C252.844,14.2813 252.973,13.3893 253.232,12.5742 C253.492,11.7591 253.888,11.0039 254.422,10.3086 L256.012,10.3086 C255.809,10.5664 255.62,10.8809 255.445,11.252 C255.271,11.623 255.118,12.0299 254.988,12.4727 C254.858,12.9154 254.757,13.373 254.684,13.8457 C254.611,14.3184 254.574,14.7865 254.574,15.25 C254.574,15.8672 254.637,16.4902 254.764,17.1191 C254.89,17.748 255.062,18.332 255.279,18.8711 C255.497,19.4102 255.741,19.8516 256.012,20.1953 L254.422,20.1953 C253.888,19.5 253.492,18.7448 253.232,17.9297 C252.973,17.1146 252.844,16.2214 252.844,15.25 M258.453,11.25 L260.387,17.3281 L260.461,17.3281 L262.398,11.25 L264.273,11.25 L261.516,19.25 L259.336,19.25 L256.574,11.25 L258.453,11.25 M268,15.25 C268,16.2214 267.87,17.1146 267.611,17.9297 C267.352,18.7448 266.956,19.5 266.422,20.1953 L264.832,20.1953 C265.035,19.9375 265.224,19.6224 265.398,19.25 C265.573,18.8776 265.725,18.4707 265.855,18.0293 C265.986,17.5879 266.087,17.1302 266.16,16.6563 C266.233,16.1823 266.27,15.7135 266.27,15.25 C266.27,14.6328 266.206,14.0098 266.08,13.3809 C265.954,12.752 265.782,12.1686 265.564,11.6309 C265.347,11.0931 265.103,10.6523 264.832,10.3086 L266.422,10.3086 C266.956,11.0039 267.352,11.7591 267.611,12.5742 C267.87,13.3893 268,14.2813 268,15.25 "/>
</g>

<g fill="#ffffff" fill-opacity="1" stroke="none" transform="matrix(0.228,0,0,0.228,11.6,4.6)"
font-family="Inter" font-size="11" font-weight="700" font-style="normal" 
>
<path vector-effect="none" fill-rule="nonzero" d="M30.3865,12.7593 C30.0195,12.7593 29.7239,13.029 29.7239,13.364 L29.7239,86.636 C29.7239,86.9711 30.0195,87.2407 30.3865,87.2407 L69.6135,87.2407 C69.9805,87.2407 70.2761,86.9711 70.2761,86.636 L70.2761,13.364 C70.2761,13.029 69.9805,12.7593 69.6135,12.7593 L30.3865,12.7593 M45.8459,44.1785 C46.9899,44.1782 47.9175,45.1053 47.918,46.2493 L47.918,46.25 C47.9179,47.3941 46.9905,48.3215 45.8464,48.3215 C44.7024,48.3216 43.7748,47.3943 43.7747,46.2502 C43.7746,45.1062 44.7019,44.1786 45.8459,44.1785 M53.9399,44.1785 C55.0839,44.1782 56.0115,45.1053 56.012,46.2493 L56.012,46.25 C56.0119,47.3941 55.0845,48.3215 53.9404,48.3215 C52.7964,48.3216 51.8688,47.3943 51.8687,46.2502 C51.8686,45.1062 52.7959,44.1786 53.9399,44.1785 M49.656,51.873 C51.2364,51.8726 52.8199,51.8854 53.1685,51.9128 C53.8656,51.9678 55.5307,54.6647 54.4849,54.698 C53.439,54.7312 45.7358,54.6611 44.8074,54.7197 C43.8789,54.7784 45.4885,51.9644 46.1616,51.9128 C46.4982,51.8871 48.0756,51.8735 49.656,51.873 M44.9905,82.0313 L55.0095,82.0313 C55.0166,82.0313 55.0225,82.0369 55.0225,82.0439 L55.0225,85.8271 C55.0225,85.8342 55.0166,85.8398 55.0095,85.8398 L44.9905,85.8398 C44.9834,85.8398 44.9775,85.8342 44.9775,85.8271 L44.9775,82.0439 C44.9775,82.0369 44.9834,82.0313 44.9905,82.0313 "/>
</g>

<g fill="none" stroke="#000000" stroke-opacity="1" stroke-width="1.11219" stroke-linecap="round" stroke-linejoin="round" transform="matrix(0.228,0,0,0.228,11.6,4.6)"
font-family="Inter" font-size="11" font-weight="700" font-style="normal" 
>
<path vector-effect="none" fill-rule="nonzero" d="M30.3865,12.7593 C30.0195,12.7593 29.7239,13.029 29.7239,13.364 L29.7239,86.636 C29.7239,86.9711 30.0195,87.2407 30.3865,87.2407 L69.6135,87.2407 C69.9805,87.2407 70.2761,86.9711 70.2761,86.636 L70.2761,13.364 C70.2761,13.029 69.9805,12.7593 69.6135,12.7593 L30.3865,12.7593 M45.8459,44.1785 C46.9899,44.1782 47.9175,45.1053 47.918,46.2493 L47.918,46.25 C47.9179,47.3941 46.9905,48.3215 45.8464,48.3215 C44.7024,48.3216 43.7748,47.3943 43.7747,46.2502 C43.7746,45.1062 44.7019,44.1786 45.8459,44.1785 M53.9399,44.1785 C55.0839,44.1782 56.0115,45.1053 56.012,46.2493 L56.012,46.25 C56.0119,47.3941 55.0845,48.3215 53.9404,48.3215 C52.7964,48.3216 51.8688,47.3943 51.8687,46.2502 C51.8686,45.1062 52.7959,44.1786 53.9399,44.1785 M49.656,51.873 C51.2364,51.8726 52.8199,51.8854 53.1685,51.9128 C53.8656,51.9678 55.5307,54.6647 54.4849,54.698 C53.439,54.7312 45.7358,54.6611 44.8074,54.7197 C43.8789,54.7784 45.4885,51.9644 46.1616,51.9128 C46.4982,51.8871 48.0756,51.8735 49.656,51.873 M44.9905,82.0313 L55.0095,82.0313 C55.0166,82.0313 55.0225,82.0369 55.0225,82.0439 L55.0225,85.8271 C55.0225,85.8342 55.0166,85.8398 55.0095,85.8398 L44.9905,85.8398 C44.9834,85.8398 44.9775,85.8342 44.9775,85.8271 L44.9775,82.0439 C44.9775,82.0369 44.9834,82.0313 44.9905,82.0313 "/>
</g>

<g fill="none" stroke="#000000" stroke-opacity="1" stroke-width="1.47647" stroke-linecap="round" stroke-linejoin="round" transform="matrix(0.228,0,0,0.228,11.6,4.6)"
font-family="Inter" font-size="11" font-weight="700" font-style="normal" 
>
<path vector-effect="none" fill-rule="nonzero" d="M30.3826,12.341 C30.0156,12.341 29.7201,12.6138 29.7201,12.9526 L29.7201,87.0474 C29.7201,87.3862 30.0156,87.659 30.3826,87.659 L69.6174,87.659 C69.9844,87.659 70.2799,87.3862 70.2799,87.0474 L70.2799,12.9526 C70.2799,12.6138 69.9844,12.341 69.6174,12.341 L30.3826,12.341"/>
</g>

<g fill="#ffffff" fill-opacity="1" stroke="none" transform="matrix(0.259165,0,0,0.259165,7.72135,2.27376)"
font-family="Inter" font-size="11" font-weight="700" font-style="normal" 
>
<path vector-effect="none" fill-rule="evenodd" d="M43.9298,32.0312 C43.9298,31.8609 44.0679,31.7227 44.2383,31.7227 L56.25,31.7227 C56.4204,31.7227 56.5585,31.8609 56.5585,32.0312 C56.5585,32.2016 56.4204,32.3398 56.25,32.3398 L44.2383,32.3398 C44.0679,32.3398 43.9298,32.2016 43.9298,32.0312 "/>
</g>

<g fill="none" stroke="#000000" stroke-opacity="1" stroke-width="0.878639" stroke-linecap="round" stroke-linejoin="round" transform="matrix(0.259165,0,0,0.259165,7.72135,2.27376)"
font-family="Inter" font-size="11" font-weight="700" font-style="normal" 
>
<path vector-effect="none" fill-rule="evenodd" d="M43.9298,32.0312 C43.9298,31.8609 44.0679,31.7227 44.2383,31.7227 L56.25,31.7227 C56.4204,31.7227 56.5585,31.8609 56.5585,32.0312 C56.5585,32.2016 56.4204,32.3398 56.25,32.3398 L44.2383,32.3398 C44.0679,32.3398 43.9298,32.2016 43.9298,32.0312 "/>
</g>

<g fill="#ffffff" fill-opacity="1" stroke="none" transform="matrix(0.259165,0,0,0.259165,7.72135,2.27376)"
font-family="Inter" font-size="11" font-weight="700" font-style="normal" 
>
<path vector-effect="none" fill-rule="evenodd" d="M43.9786,29.1016 C43.9786,28.9312 44.1167,28.793 44.2871,28.793 L56.2988,28.793 C56.4692,28.793 56.6074,28.9312 56.6074,29.1016 C56.6074,29.272 56.4692,29.4101 56.2988,29.4101 L44.2871,29.4101 C44.1167,29.4101 43.9786,29.272 43.9786,29.1016 "/>
</g>

<g fill="none" stroke="#000000" stroke-opacity="1" stroke-width="0.878639" stroke-linecap="round" stroke-linejoin="round" transform="matrix(0.259165,0,0,0.259165,7.72135,2.27376)"
font-family="Inter" font-size="11" font-weight="700" font-style="normal" 
>
<path vector-effect="none" fill-rule="evenodd" d="M43.9786,29.1016 C43.9786,28.9312 44.1167,28.793 44.2871,28.793 L56.2988,28.793 C56.4692,28.793 56.6074,28.9312 56.6074,29.1016 C56.6074,29.272 56.4692,29.4101 56.2988,29.4101 L44.2871,29.4101 C44.1167,29.4101 43.9786,29.272 43.9786,29.1016 "/>
</g>

<g fill="#ffffff" fill-opacity="1" stroke="none" transform="matrix(0.259165,0,0,0.259165,7.72135,2.27376)"
font-family="Inter" font-size="11" font-weight="700" font-style="normal" 
>
<path vector-effect="none" fill-rule="evenodd" d="M46.4813,27.1552 C46.4813,27.0313 46.5817,26.9308 46.7057,26.9308 L46.7057,26.9308 C46.8296,26.9308 46.9301,27.0313 46.9301,27.1552 L46.9301,28.3637 C46.9301,28.4876 46.8296,28.5881 46.7057,28.5881 L46.7057,28.5881 C46.5817,28.5881 46.4813,28.4876 46.4813,28.3637 L46.4813,27.1552"/>
</g>

<g fill="none" stroke="#000000" stroke-opacity="1" stroke-width="0.90975" stroke-linecap="round" stroke-linejoin="round" transform="matrix(0.259165,0,0,0.259165,7.72135,2.27376)"
font-family="Inter" font-size="11" font-weight="700" font-style="normal" 
>
<path vector-effect="none" fill-rule="evenodd" d="M46.4813,27.1552 C46.4813,27.0313 46.5817,26.9308 46.7057,26.9308 L46.7057,26.9308 C46.8296,26.9308 46.9301,27.0313 46.9301,27.1552 L46.9301,28.3637 C46.9301,28.4876 46.8296,28.5881 46.7057,28.5881 L46.7057,28.5881 C46.5817,28.5881 46.4813,28.4876 46.4813,28.3637 L46.4813,27.1552"/>
</g>

<g fill="#ffffff" fill-opacity="1" stroke="none" transform="matrix(0.259165,0,0,0.259165,7.72135,2.27376)"
font-family="Inter" font-size="11" font-weight="700" font-style="normal" 
>
<path vector-effect="none" fill-rule="evenodd" d="M53.7063,27.1207 C53.7063,26.9968 53.8068,26.8963 53.9307,26.8963 L53.9307,26.8963 C54.0546,26.8963 54.1551,26.9968 54.1551,27.1207 L54.1551,28.3292 C54.1551,28.4531 54.0546,28.5536 53.9307,28.5536 L53.9307,28.5536 C53.8068,28.5536 53.7063,28.4531 53.7063,28.3292 L53.7063,27.1207"/>
</g>

<g fill="none" stroke="#000000" stroke-opacity="1" stroke-width="0.90975" stroke-linecap="round" stroke-linejoin="round" transform="matrix(0.259165,0,0,0.259165,7.72135,2.27376)"
font-family="Inter" font-size="11" font-weight="700" font-style="normal" 
>
<path vector-effect="none" fill-rule="evenodd" d="M53.7063,27.1207 C53.7063,26.9968 53.8068,26.8963 53.9307,26.8963 L53.9307,26.8963 C54.0546,26.8963 54.1551,26.9968 54.1551,27.1207 L54.1551,28.3292 C54.1551,28.4531 54.0546,28.5536 53.9307,28.5536 L53.9307,28.5536 C53.8068,28.5536 53.7063,28.4531 53.7063,28.3292 L53.7063,27.1207"/>
</g>

<g fill="#ffffff" fill-opacity="1" stroke="none" transform="matrix(0.259165,0,0,0.259165,12.223,2.25954)"
font-family="Inter" font-size="11" font-weight="700" font-style="normal" 
>
<path vector-effect="none" fill-rule="evenodd" d="M43.9298,32.0312 C43.9298,31.8609 44.0679,31.7227 44.2383,31.7227 L56.25,31.7227 C56.4204,31.7227 56.5585,31.8609 56.5585,32.0312 C56.5585,32.2016 56.4204,32.3398 56.25,32.3398 L44.2383,32.3398 C44.0679,32.3398 43.9298,32.2016 43.9298,32.0312 "/>
</g>

<g fill="none" stroke="#000000" stroke-opacity="1" stroke-width="0.878639" stroke-linecap="round" stroke-linejoin="round" transform="matrix(0.259165,0,0,0.259165,12.223,2.25954)"
font-family="Inter" font-size="11" font-weight="700" font-style="normal" 
>
<path vector-effect="none" fill-rule="evenodd" d="M43.9298,32.0312 C43.9298,31.8609 44.0679,31.7227 44.2383,31.7227 L56.25,31.7227 C56.4204,31.7227 56.5585,31.8609 56.5585,32.0312 C56.5585,32.2016 56.4204,32.3398 56.25,32.3398 L44.2383,32.3398 C44.0679,32.3398 43.9298,32.2016 43.9298,32.0312 "/>
</g>

<g fill="#ffffff" fill-opacity="1" stroke="none" transform="matrix(0.259165,0,0,0.259165,12.223,2.25954)"
font-family="Inter" font-size="11" font-weight="700" font-style="normal" 
>
<path vector-effect="none" fill-rule="evenodd" d="M43.9786,29.1016 C43.9786,28.9312 44.1167,28.793 44.2871,28.793 L56.2988,28.793 C56.4692,28.793 56.6074,28.9312 56.6074,29.1016 C56.6074,29.272 56.4692,29.4101 56.2988,29.4101 L44.2871,29.4101 C44.1167,29.4101 43.9786,29.272 43.9786,29.1016 "/>
</g>

<g fill="none" stroke="#000000" stroke-opacity="1" stroke-width="0.878639" stroke-linecap="round" stroke-linejoin="round" transform="matrix(0.259165,0,0,0.259165,12.223,2.25954)"
font-family="Inter" font-size="11" font-weight="700" font-style="normal" 
>
<path vector-effect="none" fill-rule="evenodd" d="M43.9786,29.1016 C43.9786,28.9312 44.1167,28.793 44.2871,28.793 L56.2988,28.793 C56.4692,28.793 56.6074,28.9312 56.6074,29.1016 C56.6074,29.272 56.4692,29.4101 56.2988,29.4101 L44.2871,29.4101 C44.1167,29.4101 43.9786,29.272 43.9786,29.1016 "/>
</g>

<g fill="#ffffff" fill-opacity="1" stroke="none" transform="matrix(0.259165,0,0,0.259165,12.223,2.25954)"
font-family="Inter" font-size="11" font-weight="700" font-style="normal" 
>
<path vector-effect="none" fill-rule="evenodd" d="M46.4813,27.1552 C46.4813,27.0313 46.5817,26.9308 46.7057,26.9308 L46.7057,26.9308 C46.8296,26.9308 46.9301,27.0313 46.9301,27.1552 L46.9301,28.3637 C46.9301,28.4876 46.8296,28.5881 46.7057,28.5881 L46.7057,28.5881 C46.5817,28.5881 46.4813,28.4876 46.4813,28.3637 L46.4813,27.1552"/>
</g>

<g fill="none" stroke="#000000" stroke-opacity="1" stroke-width="0.90975" stroke-linecap="round" stroke-linejoin="round" transform="matrix(0.259165,0,0,0.259165,12.223,2.25954)"
font-family="Inter" font-size="11" font-weight="700" font-style="normal" 
>
<path vector-effect="none" fill-rule="evenodd" d="M46.4813,27.1552 C46.4813,27.0313 46.5817,26.9308 46.7057,26.9308 L46.7057,26.9308 C46.8296,26.9308 46.9301,27.0313 46.9301,27.1552 L46.9301,28.3637 C46.9301,28.4876 46.8296,28.5881 46.7057,28.5881 L46.7057,28.5881 C46.5817,28.5881 46.4813,28.4876 46.4813,28.3637 L46.4813,27.1552"/>
</g>

<g fill="#ffffff" fill-opacity="1" stroke="none" transform="matrix(0.259165,0,0,0.259165,12.223,2.25954)"
font-family="Inter" font-size="11" font-weight="700" font-style="normal" 
>
<path vector-effect="none" fill-rule="evenodd" d="M53.7063,27.1207 C53.7063,26.9968 53.8068,26.8963 53.9307,26.8963 L53.9307,26.8963 C54.0546,26.8963 54.1551,26.9968 54.1551,27.1207 L54.1551,28.3292 C54.1551,28.4531 54.0546,28.5536 53.9307,28.5536 L53.9307,28.5536 C53.8068,28.5536 53.7063,28.4531 53.7063,28.3292 L53.7063,27.1207"/>
</g>

<g fill="none" stroke="#000000" stroke-opacity="1" stroke-width="0.90975" stroke-linecap="round" stroke-linejoin="round" transform="matrix(0.259165,0,0,0.259165,12.223,2.25954)"
font-family="Inter" font-size="11" font-weight="700" font-style="normal" 
>
<path vector-effect="none" fill-rule="evenodd" d="M53.7063,27.1207 C53.7063,26.9968 53.8068,26.8963 53.9307,26.8963 L53.9307,26.8963 C54.0546,26.8963 54.1551,26.9968 54.1551,27.1207 L54.1551,28.3292 C54.1551,28.4531 54.0546,28.5536 53.9307,28.5536 L53.9307,28.5536 C53.8068,28.5536 53.7063,28.4531 53.7063,28.3292 L53.7063,27.1207"/>
</g>

<g fill="#ffffff" fill-opacity="1" stroke="none" transform="matrix(0.259165,0,0,-0.259165,7.72135,29.6907)"
font-family="Inter" font-size="11" font-weight="700" font-style="normal" 
>
<path vector-effect="none" fill-rule="evenodd" d="M43.9298,32.0312 C43.9298,31.8609 44.0679,31.7227 44.2383,31.7227 L56.25,31.7227 C56.4204,31.7227 56.5585,31.8609 56.5585,32.0312 C56.5585,32.2016 56.4204,32.3398 56.25,32.3398 L44.2383,32.3398 C44.0679,32.3398 43.9298,32.2016 43.9298,32.0312 "/>
</g>

<g fill="none" stroke="#000000" stroke-opacity="1" stroke-width="0.878639" stroke-linecap="round" stroke-linejoin="round" transform="matrix(0.259165,0,0,-0.259165,7.72135,29.6907)"
font-family="Inter" font-size="11" font-weight="700" font-style="normal" 
>
<path vector-effect="none" fill-rule="evenodd" d="M43.9298,32.0312 C43.9298,31.8609 44.0679,31.7227 44.2383,31.7227 L56.25,31.7227 C56.4204,31.7227 56.5585,31.8609 56.5585,32.0312 C56.5585,32.2016 56.4204,32.3398 56.25,32.3398 L44.2383,32.3398 C44.0679,32.3398 43.9298,32.2016 43.9298,32.0312 "/>
</g>

<g fill="#ffffff" fill-opacity="1" stroke="none" transform="matrix(0.259165,0,0,-0.259165,7.72135,29.6907)"
font-family="Inter" font-size="11" font-weight="700" font-style="normal" 
>
<path vector-effect="none" fill-rule="evenodd" d="M43.9786,29.1016 C43.9786,28.9312 44.1167,28.793 44.2871,28.793 L56.2988,28.793 C56.4692,28.793 56.6074,28.9312 56.6074,29.1016 C56.6074,29.272 56.4692,29.4101 56.2988,29.4101 L44.2871,29.4101 C44.1167,29.4101 43.9786,29.272 43.9786,29.1016 "/>
</g>

<g fill="none" stroke="#000000" stroke-opacity="1" stroke-width="0.878639" stroke-linecap="round" stroke-linejoin="round" transform="matrix(0.259165,0,0,-0.259165,7.72135,29.6907)"
font-family="Inter" font-size="11" font-weight="700" font-style="normal" 
>
<path vector-effect="none" fill-rule="evenodd" d="M43.9786,29.1016 C43.9786,28.9312 44.1167,28.793 44.2871,28.793 L56.2988,28.793 C56.4692,28.793 56.6074,28.9312 56.6074,29.1016 C56.6074,29.272 56.4692,29.4101 56.2988,29.4101 L44.2871,29.4101 C44.1167,29.4101 43.9786,29.272 43.9786,29.1016 "/>
</g>

<g fill="#ffffff" fill-opacity="1" stroke="none" transform="matrix(0.259165,0,0,-0.259165,7.72135,29.6907)"
font-family="Inter" font-size="11" font-weight="700" font-style="normal" 
>
<path vector-effect="none" fill-rule="evenodd" d="M46.4813,27.1552 C46.4813,27.0313 46.5817,26.9308 46.7057,26.9308 L46.7057,26.9308 C46.8296,26.9308 46.9301,27.0313 46.9301,27.1552 L46.9301,28.3637 C46.9301,28.4876 46.8296,28.5881 46.7057,28.5881 L46.7057,28.5881 C46.5817,28.5881 46.4813,28.4876 46.4813,28.3637 L46.4813,27.1552"/>
</g>

<g fill="none" stroke="#000000" stroke-opacity="1" stroke-width="0.90975" stroke-linecap="round" stroke-linejoin="round" transform="matrix(0.259165,0,0,-0.259165,7.72135,29.6907)"
font-family="Inter" font-size="11" font-weight="700" font-style="normal" 
>
<path vector-effect="none" fill-rule="evenodd" d="M46.4813,27.1552 C46.4813,27.0313 46.5817,26.9308 46.7057,26.9308 L46.7057,26.9308 C46.8296,26.9308 46.9301,27.0313 46.9301,27.1552 L46.9301,28.3637 C46.9301,28.4876 46.8296,28.5881 46.7057,28.5881 L46.7057,28.5881 C46.5817,28.5881 46.4813,28.4876 46.4813,28.3637 L46.4813,27.1552"/>
</g>

<g fill="#ffffff" fill-opacity="1" stroke="none" transform="matrix(0.259165,0,0,-0.259165,7.72135,29.6907)"
font-family="Inter" font-size="11" font-weight="700" font-style="normal" 
>
<path vector-effect="none" fill-rule="evenodd" d="M53.7063,27.1207 C53.7063,26.9968 53.8068,26.8963 53.9307,26.8963 L53.9307,26.8963 C54.0546,26.8963 54.1551,26.9968 54.1551,27.1207 L54.1551,28.3292 C54.1551,28.4531 54.0546,28.5536 53.9307,28.5536 L53.9307,28.5536 C53.8068,28.5536 53.7063,28.4531 53.7063,28.3292 L53.7063,27.1207"/>
</g>

<g fill="none" stroke="#000000" stroke-opacity="1" stroke-width="0.90975" stroke-linecap="round" stroke-linejoin="round" transform="matrix(0.259165,0,0,-0.259165,7.72135,29.6907)"
font-family="Inter" font-size="11" font-weight="700" font-style="normal" 
>
<path vector-effect="none" fill-rule="evenodd" d="M53.7063,27.1207 C53.7063,26.9968 53.8068,26.8963 53.9307,26.8963 L53.9307,26.8963 C54.0546,26.8963 54.1551,26.9968 54.1551,27.1207 L54.1551,28.3292 C54.1551,28.4531 54.0546,28.5536 53.9307,28.5536 L53.9307,28.5536 C53.8068,28.5536 53.7063,28.4531 53.7063,28.3292 L53.7063,27.1207"/>
</g>

<g fill="#ffffff" fill-opacity="1" stroke="none" transform="matrix(0.259165,0,0,-0.259165,12.223,29.7049)"
font-family="Inter" font-size="11" font-weight="700" font-style="normal" 
>
<path vector-effect="none" fill-rule="evenodd" d="M43.9298,32.0312 C43.9298,31.8609 44.0679,31.7227 44.2383,31.7227 L56.25,31.7227 C56.4204,31.7227 56.5585,31.8609 56.5585,32.0312 C56.5585,32.2016 56.4204,32.3398 56.25,32.3398 L44.2383,32.3398 C44.0679,32.3398 43.9298,32.2016 43.9298,32.0312 "/>
</g>

<g fill="none" stroke="#000000" stroke-opacity="1" stroke-width="0.878639" stroke-linecap="round" stroke-linejoin="round" transform="matrix(0.259165,0,0,-0.259165,12.223,29.7049)"
font-family="Inter" font-size="11" font-weight="700" font-style="normal" 
>
<path vector-effect="none" fill-rule="evenodd" d="M43.9298,32.0312 C43.9298,31.8609 44.0679,31.7227 44.2383,31.7227 L56.25,31.7227 C56.4204,31.7227 56.5585,31.8609 56.5585,32.0312 C56.5585,32.2016 56.4204,32.3398 56.25,32.3398 L44.2383,32.3398 C44.0679,32.3398 43.9298,32.2016 43.9298,32.0312 "/>
</g>

<g fill="#ffffff" fill-opacity="1" stroke="none" transform="matrix(0.259165,0,0,-0.259165,12.223,29.7049)"
font-family="Inter" font-size="11" font-weight="700" font-style="normal" 
>
<path vector-effect="none" fill-rule="evenodd" d="M43.9786,29.1016 C43.9786,28.9312 44.1167,28.793 44.2871,28.793 L56.2988,28.793 C56.4692,28.793 56.6074,28.9312 56.6074,29.1016 C56.6074,29.272 56.4692,29.4101 56.2988,29.4101 L44.2871,29.4101 C44.1167,29.4101 43.9786,29.272 43.9786,29.1016 "/>
</g>

<g fill="none" stroke="#000000" stroke-opacity="1" stroke-width="0.878639" stroke-linecap="round" stroke-linejoin="round" transform="matrix(0.259165,0,0,-0.259165,12.223,29.7049)"
font-family="Inter" font-size="11" font-weight="700" font-style="normal" 
>
<path vector-effect="none" fill-rule="evenodd" d="M43.9786,29.1016 C43.9786,28.9312 44.1167,28.793 44.2871,28.793 L56.2988,28.793 C56.4692,28.793 56.6074,28.9312 56.6074,29.1016 C56.6074,29.272 56.4692,29.4101 56.2988,29.4101 L44.2871,29.4101 C44.1167,29.4101 43.9786,29.272 43.9786,29.1016 "/>
</g>

<g fill="#ffffff" fill-opacity="1" stroke="none" transform="matrix(0.259165,0,0,-0.259165,12.223,29.7049)"
font-family="Inter" font-size="11" font-weight="700" font-style="normal" 
>
<path vector-effect="none" fill-rule="evenodd" d="M46.4813,27.1552 C46.4813,27.0313 46.5817,26.9308 46.7057,26.9308 L46.7057,26.9308 C46.8296,26.9308 46.9301,27.0313 46.9301,27.1552 L46.9301,28.3637 C46.9301,28.4876 46.8296,28.5881 46.7057,28.5881 L46.7057,28.5881 C46.5817,28.5881 46.4813,28.4876 46.4813,28.3637 L46.4813,27.1552"/>
</g>

<g fill="none" stroke="#000000" stroke-opacity="1" stroke-width="0.90975" stroke-linecap="round" stroke-linejoin="round" transform="matrix(0.259165,0,0,-0.259165,12.223,29.7049)"
font-family="Inter" font-size="11" font-weight="700" font-style="normal" 
>
<path vector-effect="none" fill-rule="evenodd" d="M46.4813,27.1552 C46.4813,27.0313 46.5817,26.9308 46.7057,26.9308 L46.7057,26.9308 C46.8296,26.9308 46.9301,27.0313 46.9301,27.1552 L46.9301,28.3637 C46.9301,28.4876 46.8296,28.5881 46.7057,28.5881 L46.7057,28.5881 C46.5817,28.5881 46.4813,28.4876 46.4813,28.3637 L46.4813,27.1552"/>
</g>

<g fill="#ffffff" fill-opacity="1" stroke="none" transform="matrix(0.259165,0,0,-0.259165,12.223,29.7049)"
font-family="Inter" font-size="11" font-weight="700" font-style="normal" 
>
<path vector-effect="none" fill-rule="evenodd" d="M53.7063,27.1207 C53.7063,26.9968 53.8068,26.8963 53.9307,26.8963 L53.9307,26.8963 C54.0546,26.8963 54.1551,26.9968 54.1551,27.1207 L54.1551,28.3292 C54.1551,28.4531 54.0546,28.5536 53.9307,28.5536 L53.9307,28.5536 C53.8068,28.5536 53.7063,28.4531 53.7063,28.3292 L53.7063,27.1207"/>
</g>

<g fill="none" stroke="#000000" stroke-opacity="1" stroke-width="0.90975" stroke-linecap="round" stroke-linejoin="round" transform="matrix(0.259165,0,0,-0.259165,12.223,29.7049)"
font-family="Inter" font-size="11" font-weight="700" font-style="normal" 
>
<path vector-effect="none" fill-rule="evenodd" d="M53.7063,27.1207 C53.7063,26.9968 53.8068,26.8963 53.9307,26.8963 L53.9307,26.8963 C54.0546,26.8963 54.1551,26.9968 54.1551,27.1207 L54.1551,28.3292 C54.1551,28.4531 54.0546,28.5536 53.9307,28.5536 L53.9307,28.5536 C53.8068,28.5536 53.7063,28.4531 53.7063,28.3292 L53.7063,27.1207"/>
</g>

<g fill="#ffffff" fill-opacity="1" stroke="none" transform="matrix(1,0,0,1,0,0)"
font-family="Inter" font-size="11" font-weight="700" font-style="normal" 
>
</g>

<g fill="#ffffff" fill-opacity="1" stroke="#0da6c5" stroke-opacity="1" stroke-width="1" stroke-linecap="square" stroke-linejoin="bevel" transform="matrix(1,0,0,1,0,0)"
font-family="Inter" font-size="11" font-weight="700" font-style="normal" 
>
<polyline fill="none" vector-effect="none" points="45,6 45,26 " />
</g>

<g fill="#1dccf0" fill-opacity="1" stroke="#0da6c5" stroke-opacity="1" stroke-width="1.2" stroke-linecap="square" stroke-linejoin="bevel" transform="matrix(1,0,0,1,81,4)"
font-family="Inter" font-size="11" font-weight="700" font-style="normal" 
>
<path vector-effect="none" fill-rule="evenodd" d="M0.5,3.5 C0.5,1.84315 1.84315,0.5 3.5,0.5 L80.5,0.5 C82.1569,0.5 83.5,1.84315 83.5,3.5 L83.5,20.5 C83.5,22.1569 82.1569,23.5 80.5,23.5 L3.5,23.5 C1.84315,23.5 0.5,22.1569 0.5,20.5 L0.5,3.5"/>
</g>

<g fill="#ffffff" fill-opacity="1" stroke="none" transform="matrix(1,0,0,1,81,4)"
font-family="Inter" font-size="11" font-weight="700" font-style="normal" 
>
<path vector-effect="none" fill-rule="nonzero" d="M10.0078,16 L10.0078,8 L13.2109,8 C13.7995,8 14.2904,8.08724 14.6836,8.26172 C15.0768,8.4362 15.3724,8.67773 15.5703,8.98633 C15.7682,9.29492 15.8672,9.64974 15.8672,10.0508 C15.8672,10.3633 15.8047,10.6374 15.6797,10.873 C15.5547,11.1087 15.3835,11.3014 15.166,11.4512 C14.9486,11.6009 14.7005,11.707 14.4219,11.7695 L14.4219,11.8477 C14.7266,11.8607 15.0124,11.9466 15.2793,12.1055 C15.5462,12.2643 15.763,12.4863 15.9297,12.7715 C16.0964,13.0566 16.1797,13.3958 16.1797,13.7891 C16.1797,14.2135 16.0749,14.5918 15.8652,14.9238 C15.6556,15.2559 15.3464,15.5182 14.9375,15.7109 C14.5286,15.9036 14.0247,16 13.4258,16 L10.0078,16 M11.6992,14.6172 L13.0781,14.6172 C13.5495,14.6172 13.8932,14.5267 14.1094,14.3457 C14.3255,14.1647 14.4336,13.9232 14.4336,13.6211 C14.4336,13.3997 14.3802,13.2044 14.2734,13.0352 C14.1667,12.8659 14.015,12.7331 13.8184,12.6367 C13.6217,12.5404 13.388,12.4922 13.1172,12.4922 L11.6992,12.4922 L11.6992,14.6172 M11.6992,11.3477 L12.9531,11.3477 C13.1849,11.3477 13.3913,11.3066 13.5723,11.2246 C13.7533,11.1426 13.8965,11.026 14.002,10.875 C14.1074,10.724 14.1602,10.543 14.1602,10.332 C14.1602,10.043 14.0579,9.8099 13.8535,9.63281 C13.6491,9.45573 13.3594,9.36719 12.9844,9.36719 L11.6992,9.36719 L11.6992,11.3477 M19.0742,16 L16.7852,8 L18.6328,8 L19.957,13.5586 L20.0234,13.5586 L21.4844,8 L23.0664,8 L24.5234,13.5703 L24.5938,13.5703 L25.918,8 L27.7656,8 L25.4766,16 L23.8281,16 L22.3047,10.7695 L22.2422,10.7695 L20.7227,16 L19.0742,16 M28.5781,16 L28.5781,14.9961 L32.5703,9.39453 L28.5703,9.39453 L28.5703,8 L34.6953,8 L34.6953,9.00391 L30.6992,14.6055 L34.7031,14.6055 L34.7031,16 L28.5781,16 M35.9453,16 L35.9453,14.7813 L38.793,12.1445 C39.0352,11.9102 39.2389,11.6992 39.4043,11.5117 C39.5697,11.3242 39.6953,11.14 39.7813,10.959 C39.8672,10.778 39.9102,10.582 39.9102,10.3711 C39.9102,10.1367 39.8568,9.93424 39.75,9.76367 C39.6432,9.5931 39.4974,9.46159 39.3125,9.36914 C39.1276,9.27669 38.918,9.23047 38.6836,9.23047 C38.4388,9.23047 38.2253,9.27995 38.043,9.37891 C37.8607,9.47786 37.7201,9.61979 37.6211,9.80469 C37.5221,9.98958 37.4727,10.2096 37.4727,10.4648 L35.8672,10.4648 C35.8672,9.94141 35.9857,9.48698 36.2227,9.10156 C36.4596,8.71615 36.7917,8.41797 37.2188,8.20703 C37.6458,7.99609 38.138,7.89063 38.6953,7.89063 C39.2682,7.89063 39.7676,7.99154 40.1934,8.19336 C40.6191,8.39518 40.9505,8.67448 41.1875,9.03125 C41.4245,9.38802 41.543,9.79688 41.543,10.2578 C41.543,10.5599 41.4837,10.8581 41.3652,11.1523 C41.2467,11.4466 41.0365,11.7728 40.7344,12.1309 C40.4323,12.4889 40.0065,12.918 39.457,13.418 L38.2891,14.5625 L38.2891,14.6172 L41.6484,14.6172 L41.6484,16 L35.9453,16 M42.9141,16 L42.9141,8 L44.6055,8 L44.6055,11.3008 L48.0391,11.3008 L48.0391,8 L49.7266,8 L49.7266,16 L48.0391,16 L48.0391,12.6953 L44.6055,12.6953 L44.6055,16 L42.9141,16 M51.1172,16 L51.1172,8 L54.3203,8 C54.9089,8 55.3997,8.08724 55.793,8.26172 C56.1862,8.4362 56.4818,8.67773 56.6797,8.98633 C56.8776,9.29492 56.9766,9.64974 56.9766,10.0508 C56.9766,10.3633 56.9141,10.6374 56.7891,10.873 C56.6641,11.1087 56.4928,11.3014 56.2754,11.4512 C56.0579,11.6009 55.8099,11.707 55.5313,11.7695 L55.5313,11.8477 C55.8359,11.8607 56.1217,11.9466 56.3887,12.1055 C56.6556,12.2643 56.8724,12.4863 57.0391,12.7715 C57.2057,13.0566 57.2891,13.3958 57.2891,13.7891 C57.2891,14.2135 57.1842,14.5918 56.9746,14.9238 C56.765,15.2559 56.4557,15.5182 56.0469,15.7109 C55.638,15.9036 55.1341,16 54.5352,16 L51.1172,16 M52.8086,14.6172 L54.1875,14.6172 C54.6589,14.6172 55.0026,14.5267 55.2188,14.3457 C55.4349,14.1647 55.543,13.9232 55.543,13.6211 C55.543,13.3997 55.4896,13.2044 55.3828,13.0352 C55.276,12.8659 55.1243,12.7331 54.9277,12.6367 C54.7311,12.5404 54.4974,12.4922 54.2266,12.4922 L52.8086,12.4922 L52.8086,14.6172 M52.8086,11.3477 L54.0625,11.3477 C54.2943,11.3477 54.5007,11.3066 54.6816,11.2246 C54.8626,11.1426 55.0059,11.026 55.1113,10.875 C55.2168,10.724 55.2695,10.543 55.2695,10.332 C55.2695,10.043 55.1673,9.8099 54.9629,9.63281 C54.7585,9.45573 54.4688,9.36719 54.0938,9.36719 L52.8086,9.36719 L52.8086,11.3477 M61.8164,8 L61.8164,16 L60.125,16 L60.125,9.60547 L60.0781,9.60547 L58.2461,10.7539 L58.2461,9.25391 L60.2266,8 L61.8164,8"/>
</g>

<g fill="#ffffff" fill-opacity="1" stroke="none" transform="matrix(0.03125,0,0,0.03125,151,12)"
font-family="Inter" font-size="11" font-weight="700" font-style="normal" 
>
<path vector-effect="none" fill-rule="nonzero" d="M111.326,191.938 C120.545,201.158 135.517,201.158 144.737,191.938 L239.144,97.5313 C245.929,90.7458 247.921,80.6413 244.233,71.7907 C240.545,62.9401 231.989,57.1871 222.401,57.1871 L33.5875,57.2608 C24.0731,57.2608 15.4437,63.0137 11.7559,71.8644 C8.06815,80.715 10.1333,90.8195 16.845,97.605 L111.252,192.012 L111.326,191.938"/>
</g>

<g fill="none" stroke="#000000" stroke-opacity="1" stroke-width="13.7195" stroke-linecap="butt" stroke-linejoin="miter" stroke-miterlimit="4" transform="matrix(0.03125,0,0,0.03125,151,12)"
font-family="Inter" font-size="11" font-weight="700" font-style="normal" 
>
<path vector-effect="none" fill-rule="nonzero" d="M111.326,191.938 C120.545,201.158 135.517,201.158 144.737,191.938 L239.144,97.5313 C245.929,90.7458 247.921,80.6413 244.233,71.7907 C240.545,62.9401 231.989,57.1871 222.401,57.1871 L33.5875,57.2608 C24.0731,57.2608 15.4437,63.0137 11.7559,71.8644 C8.06815,80.715 10.1333,90.8195 16.845,97.605 L111.252,192.012 L111.326,191.938"/>
</g>

<g fill="#ffffff" fill-opacity="1" stroke="none" transform="matrix(1,0,0,1,81,4)"
font-family="Inter" font-size="11" font-weight="700" font-style="normal" 
>
</g>

<g fill="#ffffff" fill-opacity="1" stroke="#0da6c5" stroke-opacity="1" stroke-width="1" stroke-linecap="square" stroke-linejoin="bevel" transform="matrix(1,0,0,1,0,0)"
font-family="Inter" font-size="11" font-weight="700" font-style="normal" 
>
</g>

<g fill="#ffffff" fill-opacity="1" stroke="#0da6c5" stroke-opacity="1" stroke-width="1" stroke-linecap="square" stroke-linejoin="bevel" transform="matrix(1,0,0,1,0,0)"
font-family="Inter" font-size="11" font-weight="700" font-style="normal" 
>
</g>

<g fill="none" stroke="#000000" stroke-opacity="1" stroke-width="1" stroke-linecap="square" stroke-linejoin="bevel" transform="matrix(1,0,0,1,0,0)"
font-family=".AppleSystemUIFont" font-size="13" font-weight="400" font-style="normal" 
>
</g>
</g>
</svg>
