<?xml version="1.0" encoding="UTF-8" standalone="no"?>
<svg width="70.9083mm" height="11.2889mm"
 viewBox="0 0 201 32"
 xmlns="http://www.w3.org/2000/svg" xmlns:xlink="http://www.w3.org/1999/xlink" version="1.2" baseProfile="tiny">
<title>Abstract block</title>
<desc>block_hubs_all_sensors_battery_level</desc>
<defs>
</defs>
<g fill="none" stroke="black" stroke-width="1" fill-rule="evenodd" stroke-linecap="square" stroke-linejoin="bevel" >

<g fill="none" stroke="#000000" stroke-opacity="1" stroke-width="1" stroke-linecap="square" stroke-linejoin="bevel" transform="matrix(1,0,0,1,0,0)"
font-family=".AppleSystemUIFont" font-size="13" font-weight="400" font-style="normal" 
>
</g>

<g fill="none" stroke="#000000" stroke-opacity="1" stroke-width="1" stroke-linecap="square" stroke-linejoin="bevel" transform="matrix(1,0,0,1,0,0)"
font-family=".AppleSystemUIFont" font-size="13" font-weight="400" font-style="normal" 
>
</g>

<g fill="#1dccf0" fill-opacity="1" stroke="#0da6c5" stroke-opacity="1" stroke-width="1.2" stroke-linecap="square" stroke-linejoin="bevel" transform="matrix(1,0,0,1,0,0)"
font-family=".AppleSystemUIFont" font-size="13" font-weight="400" font-style="normal" 
>
<path vector-effect="none" fill-rule="evenodd" d="M1,16 C1,7.71573 8.16344,1 17,1 L183.667,1 C192.503,1 199.667,7.71573 199.667,16 C199.667,24.2843 192.503,31 183.667,31 L17,31 C8.16344,31 1,24.2843 1,16 "/>
</g>

<g fill="#ffffff" fill-opacity="1" stroke="none" transform="matrix(1,0,0,1,0,0)"
font-family="Inter" font-size="11" font-weight="700" font-style="normal" 
>
<path vector-effect="none" fill-rule="nonzero" d="M141.027,17.5156 L141.027,17.0938 C141.027,16.7734 141.096,16.4785 141.232,16.209 C141.369,15.9395 141.568,15.7233 141.83,15.5605 C142.092,15.3978 142.411,15.3164 142.789,15.3164 C143.172,15.3164 143.494,15.3971 143.756,15.5586 C144.018,15.7201 144.215,15.9355 144.35,16.2051 C144.484,16.4746 144.551,16.7708 144.551,17.0938 L144.551,17.5156 C144.551,17.8359 144.483,18.1309 144.348,18.4004 C144.212,18.6699 144.013,18.8861 143.75,19.0488 C143.487,19.2116 143.167,19.293 142.789,19.293 C142.406,19.293 142.085,19.2116 141.824,19.0488 C141.564,18.8861 141.366,18.6699 141.23,18.4004 C141.095,18.1309 141.027,17.8359 141.027,17.5156 M142.164,17.0938 L142.164,17.5156 C142.164,17.7005 142.209,17.875 142.299,18.0391 C142.389,18.2031 142.552,18.2852 142.789,18.2852 C143.026,18.2852 143.188,18.2044 143.275,18.043 C143.363,17.8815 143.406,17.7057 143.406,17.5156 L143.406,17.0938 C143.406,16.9036 143.365,16.7266 143.281,16.5625 C143.198,16.3984 143.034,16.3164 142.789,16.3164 C142.555,16.3164 142.392,16.3984 142.301,16.5625 C142.21,16.7266 142.164,16.9036 142.164,17.0938 M136.922,12.9375 L136.922,12.5156 C136.922,12.1927 136.991,11.8965 137.129,11.627 C137.267,11.3574 137.467,11.1419 137.729,10.9805 C137.99,10.819 138.307,10.7383 138.68,10.7383 C139.065,10.7383 139.388,10.819 139.648,10.9805 C139.909,11.1419 140.107,11.3574 140.242,11.627 C140.378,11.8965 140.445,12.1927 140.445,12.5156 L140.445,12.9375 C140.445,13.2604 140.377,13.556 140.24,13.8242 C140.104,14.0924 139.904,14.3066 139.643,14.4668 C139.381,14.627 139.06,14.707 138.68,14.707 C138.299,14.707 137.979,14.6257 137.717,14.4629 C137.455,14.3001 137.257,14.0853 137.123,13.8184 C136.989,13.5514 136.922,13.2578 136.922,12.9375 M138.066,12.5156 L138.066,12.9375 C138.066,13.1276 138.111,13.3034 138.201,13.4648 C138.291,13.6263 138.451,13.707 138.68,13.707 C138.919,13.707 139.083,13.6263 139.17,13.4648 C139.257,13.3034 139.301,13.1276 139.301,12.9375 L139.301,12.5156 C139.301,12.3255 139.259,12.1484 139.176,11.9844 C139.092,11.8203 138.927,11.7383 138.68,11.7383 C138.448,11.7383 138.288,11.8216 138.199,11.9883 C138.111,12.1549 138.066,12.3307 138.066,12.5156 M137.438,19.0156 L142.938,11.0156 L143.961,11.0156 L138.461,19.0156 L137.438,19.0156 M148.695,19.0156 L148.695,11.0156 L150.359,11.0156 L150.359,14.0234 L150.41,14.0234 C150.483,13.862 150.589,13.6973 150.729,13.5293 C150.868,13.3613 151.05,13.2207 151.275,13.1074 C151.501,12.9941 151.781,12.9375 152.117,12.9375 C152.555,12.9375 152.958,13.0514 153.328,13.2793 C153.698,13.5072 153.993,13.8496 154.215,14.3066 C154.436,14.7637 154.547,15.3359 154.547,16.0234 C154.547,16.6927 154.439,17.2572 154.225,17.7168 C154.01,18.1764 153.718,18.5241 153.35,18.7598 C152.981,18.9954 152.569,19.1133 152.113,19.1133 C151.79,19.1133 151.516,19.0599 151.291,18.9531 C151.066,18.8464 150.882,18.7116 150.738,18.5488 C150.595,18.3861 150.486,18.2214 150.41,18.0547 L150.336,18.0547 L150.336,19.0156 L148.695,19.0156 M150.324,16.0156 C150.324,16.3724 150.374,16.6836 150.473,16.9492 C150.572,17.2148 150.715,17.4212 150.902,17.5684 C151.09,17.7155 151.318,17.7891 151.586,17.7891 C151.857,17.7891 152.086,17.7142 152.273,17.5645 C152.461,17.4147 152.604,17.2064 152.701,16.9395 C152.799,16.6725 152.848,16.3646 152.848,16.0156 C152.848,15.6693 152.799,15.3646 152.703,15.1016 C152.607,14.8385 152.465,14.6328 152.277,14.4844 C152.09,14.3359 151.859,14.2617 151.586,14.2617 C151.315,14.2617 151.087,14.3333 150.9,14.4766 C150.714,14.6198 150.572,14.8229 150.473,15.0859 C150.374,15.349 150.324,15.6589 150.324,16.0156 M157.359,19.1289 C156.977,19.1289 156.635,19.0618 156.336,18.9277 C156.036,18.7936 155.8,18.5944 155.627,18.3301 C155.454,18.0658 155.367,17.7357 155.367,17.3398 C155.367,17.0065 155.428,16.7266 155.551,16.5 C155.673,16.2734 155.84,16.0911 156.051,15.9531 C156.262,15.8151 156.502,15.7109 156.771,15.6406 C157.041,15.5703 157.324,15.5208 157.621,15.4922 C157.97,15.4557 158.251,15.4212 158.465,15.3887 C158.678,15.3561 158.833,15.3073 158.93,15.2422 C159.026,15.1771 159.074,15.0807 159.074,14.9531 L159.074,14.9297 C159.074,14.6823 158.997,14.4909 158.842,14.3555 C158.687,14.2201 158.467,14.1523 158.184,14.1523 C157.884,14.1523 157.646,14.2181 157.469,14.3496 C157.292,14.4811 157.174,14.6458 157.117,14.8438 L155.578,14.7188 C155.656,14.3542 155.81,14.0384 156.039,13.7715 C156.268,13.5046 156.564,13.2988 156.928,13.1543 C157.291,13.0098 157.712,12.9375 158.191,12.9375 C158.525,12.9375 158.844,12.9766 159.15,13.0547 C159.456,13.1328 159.729,13.2539 159.967,13.418 C160.205,13.582 160.393,13.7923 160.531,14.0488 C160.669,14.3053 160.738,14.612 160.738,14.9688 L160.738,19.0156 L159.16,19.0156 L159.16,18.1836 L159.113,18.1836 C159.017,18.3711 158.888,18.5358 158.727,18.6777 C158.565,18.8197 158.371,18.9303 158.145,19.0098 C157.918,19.0892 157.656,19.1289 157.359,19.1289 M157.836,17.9805 C158.081,17.9805 158.297,17.9316 158.484,17.834 C158.672,17.7363 158.819,17.6042 158.926,17.4375 C159.033,17.2708 159.086,17.082 159.086,16.8711 L159.086,16.2344 C159.034,16.2682 158.963,16.2988 158.873,16.3262 C158.783,16.3535 158.682,16.3783 158.57,16.4004 C158.458,16.4225 158.346,16.4421 158.234,16.459 C158.122,16.4759 158.021,16.4909 157.93,16.5039 C157.734,16.5326 157.564,16.5781 157.418,16.6406 C157.272,16.7031 157.159,16.7871 157.078,16.8926 C156.997,16.998 156.957,17.1289 156.957,17.2852 C156.957,17.5117 157.04,17.6842 157.205,17.8027 C157.37,17.9212 157.581,17.9805 157.836,17.9805 M165.215,13.0156 L165.215,14.2656 L161.602,14.2656 L161.602,13.0156 L165.215,13.0156 M162.422,11.5781 L164.086,11.5781 L164.086,17.1719 C164.086,17.3255 164.109,17.4447 164.156,17.5293 C164.203,17.6139 164.269,17.6732 164.354,17.707 C164.438,17.7409 164.536,17.7578 164.648,17.7578 C164.727,17.7578 164.805,17.7507 164.883,17.7363 C164.961,17.722 165.021,17.7109 165.063,17.7031 L165.324,18.9414 C165.241,18.9674 165.124,18.998 164.973,19.0332 C164.822,19.0684 164.638,19.0898 164.422,19.0977 C164.021,19.1133 163.67,19.0599 163.369,18.9375 C163.068,18.8151 162.835,18.625 162.668,18.3672 C162.501,18.1094 162.419,17.7839 162.422,17.3906 L162.422,11.5781 M169.48,13.0156 L169.48,14.2656 L165.867,14.2656 L165.867,13.0156 L169.48,13.0156 M166.688,11.5781 L168.352,11.5781 L168.352,17.1719 C168.352,17.3255 168.375,17.4447 168.422,17.5293 C168.469,17.6139 168.535,17.6732 168.619,17.707 C168.704,17.7409 168.802,17.7578 168.914,17.7578 C168.992,17.7578 169.07,17.7507 169.148,17.7363 C169.227,17.722 169.286,17.7109 169.328,17.7031 L169.59,18.9414 C169.507,18.9674 169.389,18.998 169.238,19.0332 C169.087,19.0684 168.904,19.0898 168.688,19.0977 C168.286,19.1133 167.936,19.0599 167.635,18.9375 C167.334,18.8151 167.1,18.625 166.934,18.3672 C166.767,18.1094 166.685,17.7839 166.688,17.3906 L166.688,11.5781 M173.227,19.1328 C172.609,19.1328 172.079,19.0072 171.635,18.7559 C171.191,18.5046 170.849,18.1478 170.609,17.6855 C170.37,17.2233 170.25,16.6758 170.25,16.043 C170.25,15.4258 170.37,14.8841 170.609,14.418 C170.849,13.9518 171.187,13.5885 171.623,13.3281 C172.059,13.0677 172.572,12.9375 173.16,12.9375 C173.556,12.9375 173.925,13.0007 174.268,13.127 C174.61,13.2533 174.91,13.4427 175.166,13.6953 C175.423,13.9479 175.622,14.265 175.766,14.6465 C175.909,15.028 175.98,15.474 175.98,15.9844 L175.98,16.4414 L170.914,16.4414 L170.914,15.4102 L174.414,15.4102 C174.414,15.1706 174.362,14.9583 174.258,14.7734 C174.154,14.5885 174.01,14.4434 173.826,14.3379 C173.643,14.2324 173.43,14.1797 173.188,14.1797 C172.935,14.1797 172.712,14.2376 172.518,14.3535 C172.324,14.4694 172.172,14.6243 172.063,14.8184 C171.953,15.0124 171.897,15.2279 171.895,15.4648 L171.895,16.4453 C171.895,16.7422 171.95,16.9987 172.061,17.2148 C172.171,17.431 172.328,17.5977 172.531,17.7148 C172.734,17.832 172.975,17.8906 173.254,17.8906 C173.439,17.8906 173.608,17.8646 173.762,17.8125 C173.915,17.7604 174.047,17.6823 174.156,17.5781 C174.266,17.474 174.349,17.3464 174.406,17.1953 L175.945,17.2969 C175.867,17.6667 175.708,17.9889 175.467,18.2637 C175.226,18.5384 174.916,18.752 174.537,18.9043 C174.158,19.0566 173.721,19.1328 173.227,19.1328 M177.055,19.0156 L177.055,13.0156 L178.668,13.0156 L178.668,14.0625 L178.73,14.0625 C178.84,13.6901 179.023,13.4082 179.281,13.2168 C179.539,13.0254 179.836,12.9297 180.172,12.9297 C180.255,12.9297 180.345,12.9349 180.441,12.9453 C180.538,12.9557 180.622,12.9701 180.695,12.9883 L180.695,14.4648 C180.617,14.4414 180.509,14.4206 180.371,14.4023 C180.233,14.3841 180.107,14.375 179.992,14.375 C179.747,14.375 179.529,14.4277 179.338,14.5332 C179.146,14.6387 178.995,14.7852 178.885,14.9727 C178.774,15.1602 178.719,15.3763 178.719,15.6211 L178.719,19.0156 L177.055,19.0156 M182.754,21.2656 C182.543,21.2656 182.346,21.2493 182.162,21.2168 C181.979,21.1842 181.827,21.1432 181.707,21.0938 L182.082,19.8516 C182.277,19.9115 182.454,19.944 182.611,19.9492 C182.769,19.9544 182.906,19.918 183.021,19.8398 C183.137,19.7617 183.232,19.6289 183.305,19.4414 L183.402,19.1875 L181.25,13.0156 L183,13.0156 L184.242,17.4219 L184.305,17.4219 L185.559,13.0156 L187.32,13.0156 L184.988,19.6641 C184.876,19.987 184.725,20.2689 184.533,20.5098 C184.342,20.7507 184.1,20.9368 183.809,21.0684 C183.517,21.1999 183.165,21.2656 182.754,21.2656 "/>
</g>

<g fill="#ffffff" fill-opacity="1" stroke="none" transform="matrix(0.228,0,0,0.228,11.6,4.6)"
font-family="Inter" font-size="11" font-weight="700" font-style="normal" 
>
<path vector-effect="none" fill-rule="nonzero" d="M23.3682,15.995 C21.89,15.995 20.7001,17.185 20.7001,18.6631 L20.7001,81.3343 C20.7001,82.8125 21.89,84.0024 23.3682,84.0024 L76.6077,84.0024 C78.0859,84.0024 79.2758,82.8125 79.2758,81.3343 L79.2758,18.6631 C79.2758,17.185 78.0859,15.995 76.6077,15.995 L50.8905,15.995 C51.6703,16.0444 52.2838,16.6869 52.2838,17.4796 L52.2838,26.9112 C52.2838,27.7362 51.6196,28.4004 50.7946,28.4004 L49.3054,28.4004 C48.4804,28.4004 47.8161,27.7362 47.8161,26.9112 L47.8161,17.4796 C47.8161,16.6869 48.4298,16.0443 49.2096,15.995 L23.3682,15.995 M46.7613,35.2087 L53.2146,35.2087 C53.9021,35.2087 54.4556,35.7622 54.4556,36.4497 L54.4556,42.903 C54.4556,43.5906 53.9021,44.1439 53.2146,44.1439 L46.7613,44.1439 C46.0738,44.1439 45.5202,43.5906 45.5202,42.903 L45.5202,36.4497 C45.5202,35.7622 46.0738,35.2087 46.7613,35.2087 "/>
</g>

<g fill="none" stroke="#000000" stroke-opacity="1" stroke-width="2.43854" stroke-linecap="butt" stroke-linejoin="miter" stroke-miterlimit="4" transform="matrix(0.228,0,0,0.228,11.6,4.6)"
font-family="Inter" font-size="11" font-weight="700" font-style="normal" 
>
<path vector-effect="none" fill-rule="nonzero" d="M23.3682,15.995 C21.89,15.995 20.7001,17.185 20.7001,18.6631 L20.7001,81.3343 C20.7001,82.8125 21.89,84.0024 23.3682,84.0024 L76.6077,84.0024 C78.0859,84.0024 79.2758,82.8125 79.2758,81.3343 L79.2758,18.6631 C79.2758,17.185 78.0859,15.995 76.6077,15.995 L50.8905,15.995 C51.6703,16.0444 52.2838,16.6869 52.2838,17.4796 L52.2838,26.9112 C52.2838,27.7362 51.6196,28.4004 50.7946,28.4004 L49.3054,28.4004 C48.4804,28.4004 47.8161,27.7362 47.8161,26.9112 L47.8161,17.4796 C47.8161,16.6869 48.4298,16.0443 49.2096,15.995 L23.3682,15.995 M46.7613,35.2087 L53.2146,35.2087 C53.9021,35.2087 54.4556,35.7622 54.4556,36.4497 L54.4556,42.903 C54.4556,43.5906 53.9021,44.1439 53.2146,44.1439 L46.7613,44.1439 C46.0738,44.1439 45.5202,43.5906 45.5202,42.903 L45.5202,36.4497 C45.5202,35.7622 46.0738,35.2087 46.7613,35.2087 "/>
</g>

<g fill="#000000" fill-opacity="1" stroke="none" transform="matrix(0.228,0,0,0.228,11.6,4.6)"
font-family="Inter" font-size="11" font-weight="700" font-style="normal" 
>
<path vector-effect="none" fill-rule="evenodd" d="M14.2421,17.9523 C14.2421,17.1298 14.9088,16.4631 15.7313,16.4631 L18.7097,16.4631 C19.5322,16.4631 20.1989,17.1298 20.1989,17.9523 L20.1989,33.8372 C20.1989,34.6597 19.5322,35.3264 18.7097,35.3264 L15.7313,35.3264 C14.9088,35.3264 14.2421,34.6597 14.2421,33.8372 L14.2421,17.9523"/>
</g>

<g fill="none" stroke="#000000" stroke-opacity="1" stroke-width="2.43854" stroke-linecap="butt" stroke-linejoin="miter" stroke-miterlimit="4" transform="matrix(0.228,0,0,0.228,11.6,4.6)"
font-family="Inter" font-size="11" font-weight="700" font-style="normal" 
>
<path vector-effect="none" fill-rule="evenodd" d="M14.2421,17.9523 C14.2421,17.1298 14.9088,16.4631 15.7313,16.4631 L18.7097,16.4631 C19.5322,16.4631 20.1989,17.1298 20.1989,17.9523 L20.1989,33.8372 C20.1989,34.6597 19.5322,35.3264 18.7097,35.3264 L15.7313,35.3264 C14.9088,35.3264 14.2421,34.6597 14.2421,33.8372 L14.2421,17.9523"/>
</g>

<g fill="#000000" fill-opacity="1" stroke="none" transform="matrix(0.228,0,0,0.228,11.6,4.6)"
font-family="Inter" font-size="11" font-weight="700" font-style="normal" 
>
<path vector-effect="none" fill-rule="evenodd" d="M79.3249,17.4662 C79.3249,16.6438 79.9916,15.977 80.8141,15.977 L83.7925,15.977 C84.615,15.977 85.2817,16.6438 85.2817,17.4662 L85.2817,33.3512 C85.2817,34.1736 84.615,34.8404 83.7925,34.8404 L80.8141,34.8404 C79.9916,34.8404 79.3249,34.1736 79.3249,33.3512 L79.3249,17.4662"/>
</g>

<g fill="none" stroke="#000000" stroke-opacity="1" stroke-width="2.43854" stroke-linecap="butt" stroke-linejoin="miter" stroke-miterlimit="4" transform="matrix(0.228,0,0,0.228,11.6,4.6)"
font-family="Inter" font-size="11" font-weight="700" font-style="normal" 
>
<path vector-effect="none" fill-rule="evenodd" d="M79.3249,17.4662 C79.3249,16.6438 79.9916,15.977 80.8141,15.977 L83.7925,15.977 C84.615,15.977 85.2817,16.6438 85.2817,17.4662 L85.2817,33.3512 C85.2817,34.1736 84.615,34.8404 83.7925,34.8404 L80.8141,34.8404 C79.9916,34.8404 79.3249,34.1736 79.3249,33.3512 L79.3249,17.4662"/>
</g>

<g fill="#000000" fill-opacity="1" stroke="none" transform="matrix(0.228,0,0,0.228,11.6,4.6)"
font-family="Inter" font-size="11" font-weight="700" font-style="normal" 
>
<path vector-effect="none" fill-rule="evenodd" d="M79.5633,66.576 C79.5633,65.7535 80.23,65.0868 81.0525,65.0868 L84.0309,65.0868 C84.8534,65.0868 85.5201,65.7535 85.5201,66.576 L85.5201,82.4609 C85.5201,83.2834 84.8534,83.9501 84.0309,83.9501 L81.0525,83.9501 C80.23,83.9501 79.5633,83.2834 79.5633,82.4609 L79.5633,66.576"/>
</g>

<g fill="none" stroke="#000000" stroke-opacity="1" stroke-width="2.43854" stroke-linecap="butt" stroke-linejoin="miter" stroke-miterlimit="4" transform="matrix(0.228,0,0,0.228,11.6,4.6)"
font-family="Inter" font-size="11" font-weight="700" font-style="normal" 
>
<path vector-effect="none" fill-rule="evenodd" d="M79.5633,66.576 C79.5633,65.7535 80.23,65.0868 81.0525,65.0868 L84.0309,65.0868 C84.8534,65.0868 85.5201,65.7535 85.5201,66.576 L85.5201,82.4609 C85.5201,83.2834 84.8534,83.9501 84.0309,83.9501 L81.0525,83.9501 C80.23,83.9501 79.5633,83.2834 79.5633,82.4609 L79.5633,66.576"/>
</g>

<g fill="#000000" fill-opacity="1" stroke="none" transform="matrix(0.228,0,0,0.228,11.6,4.6)"
font-family="Inter" font-size="11" font-weight="700" font-style="normal" 
>
<path vector-effect="none" fill-rule="evenodd" d="M14.6928,66.6283 C14.6928,65.8058 15.3595,65.1391 16.182,65.1391 L19.1604,65.1391 C19.9829,65.1391 20.6496,65.8058 20.6496,66.6283 L20.6496,82.5132 C20.6496,83.3357 19.9829,84.0024 19.1604,84.0024 L16.182,84.0024 C15.3595,84.0024 14.6928,83.3357 14.6928,82.5132 L14.6928,66.6283"/>
</g>

<g fill="none" stroke="#000000" stroke-opacity="1" stroke-width="2.43854" stroke-linecap="butt" stroke-linejoin="miter" stroke-miterlimit="4" transform="matrix(0.228,0,0,0.228,11.6,4.6)"
font-family="Inter" font-size="11" font-weight="700" font-style="normal" 
>
<path vector-effect="none" fill-rule="evenodd" d="M14.6928,66.6283 C14.6928,65.8058 15.3595,65.1391 16.182,65.1391 L19.1604,65.1391 C19.9829,65.1391 20.6496,65.8058 20.6496,66.6283 L20.6496,82.5132 C20.6496,83.3357 19.9829,84.0024 19.1604,84.0024 L16.182,84.0024 C15.3595,84.0024 14.6928,83.3357 14.6928,82.5132 L14.6928,66.6283"/>
</g>

<g fill="none" stroke="#000000" stroke-opacity="1" stroke-width="2.43854" stroke-linecap="butt" stroke-linejoin="miter" stroke-miterlimit="4" transform="matrix(0.228,0,0,0.228,11.6,4.6)"
font-family="Inter" font-size="11" font-weight="700" font-style="normal" 
>
<path vector-effect="none" fill-rule="evenodd" d="M20.92,17.503 C20.92,16.6806 21.5867,16.0138 22.4092,16.0138 L27.125,16.0138 C27.9475,16.0138 28.6142,16.6806 28.6142,17.503 L28.6142,55.9743 C28.6142,56.7968 27.9475,57.4635 27.125,57.4635 L22.4092,57.4635 C21.5867,57.4635 20.92,56.7968 20.92,55.9743 L20.92,17.503"/>
</g>

<g fill="none" stroke="#000000" stroke-opacity="1" stroke-width="2.43854" stroke-linecap="butt" stroke-linejoin="miter" stroke-miterlimit="4" transform="matrix(0.228,0,0,0.228,11.6,4.6)"
font-family="Inter" font-size="11" font-weight="700" font-style="normal" 
>
<path vector-effect="none" fill-rule="evenodd" d="M71.4269,17.6638 C71.4269,16.8414 72.0937,16.1746 72.9162,16.1746 L77.632,16.1746 C78.4545,16.1746 79.1212,16.8414 79.1212,17.6638 L79.1212,56.1351 C79.1212,56.9576 78.4545,57.6243 77.632,57.6243 L72.9162,57.6243 C72.0937,57.6243 71.4269,56.9576 71.4269,56.1351 L71.4269,17.6638"/>
</g>

<g fill="#ffffff" fill-opacity="1" stroke="none" transform="matrix(0.228,0,0,0.228,11.6,4.6)"
font-family="Inter" font-size="11" font-weight="700" font-style="normal" 
>
<path vector-effect="none" fill-rule="evenodd" d="M41.9526,15.9757 C41.9526,15.9593 41.9659,15.9461 41.9822,15.9461 L57.922,15.9461 C57.9384,15.9461 57.9516,15.9593 57.9516,15.9757 C57.9516,15.992 57.9384,16.0053 57.922,16.0053 L41.9822,16.0053 C41.9659,16.0053 41.9526,15.992 41.9526,15.9757 "/>
</g>

<g fill="none" stroke="#000000" stroke-opacity="1" stroke-width="2.3865" stroke-linecap="butt" stroke-linejoin="miter" stroke-miterlimit="4" transform="matrix(0.228,0,0,0.228,11.6,4.6)"
font-family="Inter" font-size="11" font-weight="700" font-style="normal" 
>
<path vector-effect="none" fill-rule="evenodd" d="M41.9526,15.9757 C41.9526,15.9593 41.9659,15.9461 41.9822,15.9461 L57.922,15.9461 C57.9384,15.9461 57.9516,15.9593 57.9516,15.9757 C57.9516,15.992 57.9384,16.0053 57.922,16.0053 L41.9822,16.0053 C41.9659,16.0053 41.9526,15.992 41.9526,15.9757 "/>
</g>

<g fill="#ffffff" fill-opacity="1" stroke="none" transform="matrix(1,0,0,1,0,0)"
font-family="Inter" font-size="11" font-weight="700" font-style="normal" 
>
</g>

<g fill="#ffffff" fill-opacity="1" stroke="#0da6c5" stroke-opacity="1" stroke-width="1" stroke-linecap="square" stroke-linejoin="bevel" transform="matrix(1,0,0,1,0,0)"
font-family="Inter" font-size="11" font-weight="700" font-style="normal" 
>
<polyline fill="none" vector-effect="none" points="45,6 45,26 " />
</g>

<g fill="#1dccf0" fill-opacity="1" stroke="#0da6c5" stroke-opacity="1" stroke-width="1.2" stroke-linecap="square" stroke-linejoin="bevel" transform="matrix(1,0,0,1,56,4)"
font-family="Inter" font-size="11" font-weight="700" font-style="normal" 
>
<path vector-effect="none" fill-rule="evenodd" d="M0.5,3.5 C0.5,1.84315 1.84315,0.5 3.5,0.5 L71.5,0.5 C73.1569,0.5 74.5,1.84315 74.5,3.5 L74.5,20.5 C74.5,22.1569 73.1569,23.5 71.5,23.5 L3.5,23.5 C1.84315,23.5 0.5,22.1569 0.5,20.5 L0.5,3.5"/>
</g>

<g fill="#ffffff" fill-opacity="1" stroke="none" transform="matrix(1,0,0,1,56,4)"
font-family="Inter" font-size="11" font-weight="700" font-style="normal" 
>
<path vector-effect="none" fill-rule="nonzero" d="M10,9.39453 L10,8 L16.5703,8 L16.5703,9.39453 L14.1211,9.39453 L14.1211,16 L12.4492,16 L12.4492,9.39453 L10,9.39453 M17.6484,16 L17.6484,8 L19.3398,8 L19.3398,11.3008 L22.7734,11.3008 L22.7734,8 L24.4609,8 L24.4609,16 L22.7734,16 L22.7734,12.6953 L19.3398,12.6953 L19.3398,16 L17.6484,16 M32.543,8 L32.543,16 L31.082,16 L27.6016,10.9648 L27.543,10.9648 L27.543,16 L25.8516,16 L25.8516,8 L27.3359,8 L30.7891,13.0313 L30.8594,13.0313 L30.8594,8 L32.543,8 M33.9297,16 L33.9297,8 L35.6211,8 L35.6211,11.3008 L39.0547,11.3008 L39.0547,8 L40.7422,8 L40.7422,16 L39.0547,16 L39.0547,12.6953 L35.6211,12.6953 L35.6211,16 L33.9297,16 M42.1328,16 L42.1328,8 L45.3359,8 C45.9245,8 46.4154,8.08724 46.8086,8.26172 C47.2018,8.4362 47.4974,8.67773 47.6953,8.98633 C47.8932,9.29492 47.9922,9.64974 47.9922,10.0508 C47.9922,10.3633 47.9297,10.6374 47.8047,10.873 C47.6797,11.1087 47.5085,11.3014 47.291,11.4512 C47.0736,11.6009 46.8255,11.707 46.5469,11.7695 L46.5469,11.8477 C46.8516,11.8607 47.1374,11.9466 47.4043,12.1055 C47.6712,12.2643 47.888,12.4863 48.0547,12.7715 C48.2214,13.0566 48.3047,13.3958 48.3047,13.7891 C48.3047,14.2135 48.1999,14.5918 47.9902,14.9238 C47.7806,15.2559 47.4714,15.5182 47.0625,15.7109 C46.6536,15.9036 46.1497,16 45.5508,16 L42.1328,16 M43.8242,14.6172 L45.2031,14.6172 C45.6745,14.6172 46.0182,14.5267 46.2344,14.3457 C46.4505,14.1647 46.5586,13.9232 46.5586,13.6211 C46.5586,13.3997 46.5052,13.2044 46.3984,13.0352 C46.2917,12.8659 46.14,12.7331 45.9434,12.6367 C45.7467,12.5404 45.513,12.4922 45.2422,12.4922 L43.8242,12.4922 L43.8242,14.6172 M43.8242,11.3477 L45.0781,11.3477 C45.3099,11.3477 45.5163,11.3066 45.6973,11.2246 C45.8783,11.1426 46.0215,11.026 46.127,10.875 C46.2324,10.724 46.2852,10.543 46.2852,10.332 C46.2852,10.043 46.1829,9.8099 45.9785,9.63281 C45.7741,9.45573 45.4844,9.36719 45.1094,9.36719 L43.8242,9.36719 L43.8242,11.3477 M52.832,8 L52.832,16 L51.1406,16 L51.1406,9.60547 L51.0938,9.60547 L49.2617,10.7539 L49.2617,9.25391 L51.2422,8 L52.832,8"/>
</g>

<g fill="#ffffff" fill-opacity="1" stroke="none" transform="matrix(0.03125,0,0,0.03125,117,12)"
font-family="Inter" font-size="11" font-weight="700" font-style="normal" 
>
<path vector-effect="none" fill-rule="nonzero" d="M111.326,191.938 C120.545,201.158 135.517,201.158 144.737,191.938 L239.144,97.5313 C245.929,90.7458 247.921,80.6413 244.233,71.7907 C240.545,62.9401 231.989,57.1871 222.401,57.1871 L33.5875,57.2608 C24.0731,57.2608 15.4437,63.0137 11.7559,71.8644 C8.06815,80.715 10.1333,90.8195 16.845,97.605 L111.252,192.012 L111.326,191.938"/>
</g>

<g fill="none" stroke="#000000" stroke-opacity="1" stroke-width="13.7195" stroke-linecap="butt" stroke-linejoin="miter" stroke-miterlimit="4" transform="matrix(0.03125,0,0,0.03125,117,12)"
font-family="Inter" font-size="11" font-weight="700" font-style="normal" 
>
<path vector-effect="none" fill-rule="nonzero" d="M111.326,191.938 C120.545,201.158 135.517,201.158 144.737,191.938 L239.144,97.5313 C245.929,90.7458 247.921,80.6413 244.233,71.7907 C240.545,62.9401 231.989,57.1871 222.401,57.1871 L33.5875,57.2608 C24.0731,57.2608 15.4437,63.0137 11.7559,71.8644 C8.06815,80.715 10.1333,90.8195 16.845,97.605 L111.252,192.012 L111.326,191.938"/>
</g>

<g fill="#ffffff" fill-opacity="1" stroke="none" transform="matrix(1,0,0,1,56,4)"
font-family="Inter" font-size="11" font-weight="700" font-style="normal" 
>
</g>

<g fill="#ffffff" fill-opacity="1" stroke="#0da6c5" stroke-opacity="1" stroke-width="1" stroke-linecap="square" stroke-linejoin="bevel" transform="matrix(1,0,0,1,0,0)"
font-family="Inter" font-size="11" font-weight="700" font-style="normal" 
>
</g>

<g fill="#ffffff" fill-opacity="1" stroke="#0da6c5" stroke-opacity="1" stroke-width="1" stroke-linecap="square" stroke-linejoin="bevel" transform="matrix(1,0,0,1,0,0)"
font-family="Inter" font-size="11" font-weight="700" font-style="normal" 
>
</g>

<g fill="none" stroke="#000000" stroke-opacity="1" stroke-width="1" stroke-linecap="square" stroke-linejoin="bevel" transform="matrix(1,0,0,1,0,0)"
font-family=".AppleSystemUIFont" font-size="13" font-weight="400" font-style="normal" 
>
</g>
</g>
</svg>
