<?xml version="1.0" encoding="UTF-8" standalone="no"?>
<svg width="137.583mm" height="15.5222mm"
 viewBox="0 0 390 44"
 xmlns="http://www.w3.org/2000/svg" xmlns:xlink="http://www.w3.org/1999/xlink" version="1.2" baseProfile="tiny">
<title>Abstract block</title>
<desc>block_hubs_buwizz3_light_port_set_led_color_string</desc>
<defs>
</defs>
<g fill="none" stroke="black" stroke-width="1" fill-rule="evenodd" stroke-linecap="square" stroke-linejoin="bevel" >

<g fill="none" stroke="#000000" stroke-opacity="1" stroke-width="1" stroke-linecap="square" stroke-linejoin="bevel" transform="matrix(1,0,0,1,0,0)"
font-family=".AppleSystemUIFont" font-size="13" font-weight="400" font-style="normal" 
>
</g>

<g fill="none" stroke="#000000" stroke-opacity="1" stroke-width="1" stroke-linecap="square" stroke-linejoin="bevel" transform="matrix(1,0,0,1,0,0)"
font-family=".AppleSystemUIFont" font-size="13" font-weight="400" font-style="normal" 
>
</g>

<g fill="#935df5" fill-opacity="1" stroke="#6c25f1" stroke-opacity="1" stroke-width="1.2" stroke-linecap="square" stroke-linejoin="bevel" transform="matrix(1,0,0,1,0,0)"
font-family=".AppleSystemUIFont" font-size="13" font-weight="400" font-style="normal" 
>
<path vector-effect="none" fill-rule="evenodd" d="M0.5,4.5 L1.04612,2.48112 L2.48112,1.04612 L4.5,0.5 L9.625,0.5 L10.416,0.976563 L11.1719,1.6875 L11.998,2.67969 L13,4 L13.7559,4.66016 L14.5469,5.15625 L15.4082,5.51172 L16.375,5.75 L17.4824,5.89453 L18.7656,5.96875 L20.2598,5.99609 L22,6 L23.7402,5.99609 L25.2344,5.96875 L26.5176,5.89453 L27.625,5.75 L28.5918,5.51172 L29.4531,5.15625 L30.2441,4.66016 L31,4 L32.002,2.67969 L32.8281,1.6875 L33.584,0.976563 L34.375,0.5 L384.9,0.5 L386.919,1.04612 L388.354,2.48112 L388.9,4.5 L388.9,31.5 L388.354,33.5189 L386.919,34.9539 L384.9,35.5 L34.375,35.5 L33.584,35.9766 L32.8281,36.6875 L32.002,37.6797 L31,39 L30.2441,39.6602 L29.4531,40.1563 L28.5918,40.5117 L27.625,40.75 L26.5176,40.8945 L25.2344,40.9688 L23.7402,40.9961 L22,41 L20.2598,40.9961 L18.7656,40.9688 L17.4824,40.8945 L16.375,40.75 L15.4082,40.5117 L14.5469,40.1563 L13.7559,39.6602 L13,39 L11.998,37.6797 L11.1719,36.6875 L10.416,35.9766 L9.625,35.5 L4.5,35.5 L2.48112,34.9539 L1.04612,33.5189 L0.5,31.5 L0.5,4.5"/>
</g>

<g fill="#ffffff" fill-opacity="1" stroke="none" transform="matrix(1,0,0,1,0,0)"
font-family="Inter" font-size="11" font-weight="700" font-style="normal" 
>
<path vector-effect="none" fill-rule="nonzero" d="M198.031,16.7109 L196.508,16.8047 C196.482,16.6745 196.426,16.5566 196.34,16.4512 C196.254,16.3457 196.141,16.2611 196.002,16.1973 C195.863,16.1335 195.697,16.1016 195.504,16.1016 C195.246,16.1016 195.029,16.1556 194.852,16.2637 C194.674,16.3717 194.586,16.5156 194.586,16.6953 C194.586,16.8385 194.643,16.9596 194.758,17.0586 C194.872,17.1576 195.069,17.237 195.348,17.2969 L196.434,17.5156 C197.017,17.6354 197.452,17.8281 197.738,18.0938 C198.025,18.3594 198.168,18.7083 198.168,19.1406 C198.168,19.5339 198.053,19.8789 197.822,20.1758 C197.592,20.4727 197.277,20.7038 196.877,20.8691 C196.477,21.0345 196.017,21.1172 195.496,21.1172 C194.702,21.1172 194.07,20.9512 193.6,20.6191 C193.13,20.2871 192.854,19.8346 192.773,19.2617 L194.41,19.1758 C194.46,19.418 194.579,19.6022 194.77,19.7285 C194.96,19.8548 195.203,19.918 195.5,19.918 C195.792,19.918 196.027,19.8613 196.205,19.748 C196.383,19.6348 196.474,19.4883 196.477,19.3086 C196.474,19.1576 196.41,19.0332 196.285,18.9355 C196.16,18.8379 195.967,18.763 195.707,18.7109 L194.668,18.5039 C194.082,18.3867 193.646,18.1836 193.361,17.8945 C193.076,17.6055 192.934,17.237 192.934,16.7891 C192.934,16.4036 193.038,16.0716 193.248,15.793 C193.458,15.5143 193.753,15.2995 194.135,15.1484 C194.516,14.9974 194.964,14.9219 195.477,14.9219 C196.234,14.9219 196.831,15.082 197.268,15.4023 C197.704,15.7227 197.958,16.1589 198.031,16.7109 M201.945,21.1172 C201.328,21.1172 200.798,20.9915 200.354,20.7402 C199.91,20.4889 199.568,20.1322 199.328,19.6699 C199.089,19.2077 198.969,18.6602 198.969,18.0273 C198.969,17.4102 199.089,16.8685 199.328,16.4023 C199.568,15.9362 199.906,15.5729 200.342,15.3125 C200.778,15.0521 201.29,14.9219 201.879,14.9219 C202.275,14.9219 202.644,14.985 202.986,15.1113 C203.329,15.2376 203.628,15.4271 203.885,15.6797 C204.141,15.9323 204.341,16.2493 204.484,16.6309 C204.628,17.0124 204.699,17.4583 204.699,17.9688 L204.699,18.4258 L199.633,18.4258 L199.633,17.3945 L203.133,17.3945 C203.133,17.1549 203.081,16.9427 202.977,16.7578 C202.872,16.5729 202.729,16.4277 202.545,16.3223 C202.361,16.2168 202.148,16.1641 201.906,16.1641 C201.654,16.1641 201.43,16.222 201.236,16.3379 C201.042,16.4538 200.891,16.6087 200.781,16.8027 C200.672,16.9967 200.616,17.2122 200.613,17.4492 L200.613,18.4297 C200.613,18.7266 200.669,18.9831 200.779,19.1992 C200.89,19.4154 201.047,19.582 201.25,19.6992 C201.453,19.8164 201.694,19.875 201.973,19.875 C202.158,19.875 202.327,19.849 202.48,19.7969 C202.634,19.7448 202.766,19.6667 202.875,19.5625 C202.984,19.4583 203.068,19.3307 203.125,19.1797 L204.664,19.2813 C204.586,19.651 204.426,19.9733 204.186,20.248 C203.945,20.5228 203.635,20.7363 203.256,20.8887 C202.877,21.041 202.44,21.1172 201.945,21.1172 M208.965,15 L208.965,16.25 L205.352,16.25 L205.352,15 L208.965,15 M206.172,13.5625 L207.836,13.5625 L207.836,19.1563 C207.836,19.3099 207.859,19.429 207.906,19.5137 C207.953,19.5983 208.019,19.6576 208.104,19.6914 C208.188,19.7253 208.286,19.7422 208.398,19.7422 C208.477,19.7422 208.555,19.735 208.633,19.7207 C208.711,19.7064 208.771,19.6953 208.813,19.6875 L209.074,20.9258 C208.991,20.9518 208.874,20.9824 208.723,21.0176 C208.572,21.0527 208.388,21.0742 208.172,21.082 C207.771,21.0977 207.42,21.0443 207.119,20.9219 C206.818,20.7995 206.585,20.6094 206.418,20.3516 C206.251,20.0938 206.169,19.7682 206.172,19.375 L206.172,13.5625 M212.586,23.25 L212.586,15 L214.227,15 L214.227,16.0078 L214.301,16.0078 C214.374,15.8464 214.48,15.6816 214.619,15.5137 C214.758,15.3457 214.941,15.2051 215.166,15.0918 C215.391,14.9785 215.672,14.9219 216.008,14.9219 C216.445,14.9219 216.849,15.0358 217.219,15.2637 C217.589,15.4915 217.884,15.834 218.105,16.291 C218.327,16.748 218.438,17.3203 218.438,18.0078 C218.438,18.6771 218.33,19.2415 218.115,19.7012 C217.9,20.1608 217.609,20.5085 217.24,20.7441 C216.872,20.9798 216.46,21.0977 216.004,21.0977 C215.681,21.0977 215.407,21.0443 215.182,20.9375 C214.956,20.8307 214.772,20.696 214.629,20.5332 C214.486,20.3704 214.376,20.2057 214.301,20.0391 L214.25,20.0391 L214.25,23.25 L212.586,23.25 M214.215,18 C214.215,18.3568 214.264,18.668 214.363,18.9336 C214.462,19.1992 214.605,19.4056 214.793,19.5527 C214.98,19.6999 215.208,19.7734 215.477,19.7734 C215.747,19.7734 215.977,19.6986 216.164,19.5488 C216.352,19.3991 216.494,19.1908 216.592,18.9238 C216.689,18.6569 216.738,18.349 216.738,18 C216.738,17.6536 216.69,17.349 216.594,17.0859 C216.497,16.8229 216.355,16.6172 216.168,16.4688 C215.98,16.3203 215.75,16.2461 215.477,16.2461 C215.206,16.2461 214.977,16.3177 214.791,16.4609 C214.605,16.6042 214.462,16.8073 214.363,17.0703 C214.264,17.3333 214.215,17.6432 214.215,18 M222.25,21.1172 C221.643,21.1172 221.119,20.9876 220.678,20.7285 C220.236,20.4694 219.896,20.1074 219.656,19.6426 C219.417,19.1777 219.297,18.638 219.297,18.0234 C219.297,17.4036 219.417,16.8613 219.656,16.3965 C219.896,15.9316 220.236,15.5697 220.678,15.3105 C221.119,15.0514 221.643,14.9219 222.25,14.9219 C222.857,14.9219 223.381,15.0514 223.822,15.3105 C224.264,15.5697 224.604,15.9316 224.844,16.3965 C225.083,16.8613 225.203,17.4036 225.203,18.0234 C225.203,18.638 225.083,19.1777 224.844,19.6426 C224.604,20.1074 224.264,20.4694 223.822,20.7285 C223.381,20.9876 222.857,21.1172 222.25,21.1172 M222.258,19.8281 C222.534,19.8281 222.764,19.7493 222.949,19.5918 C223.134,19.4342 223.274,19.2188 223.369,18.9453 C223.464,18.6719 223.512,18.3607 223.512,18.0117 C223.512,17.6628 223.464,17.3516 223.369,17.0781 C223.274,16.8047 223.134,16.5885 222.949,16.4297 C222.764,16.2708 222.534,16.1914 222.258,16.1914 C221.979,16.1914 221.745,16.2708 221.557,16.4297 C221.368,16.5885 221.226,16.8047 221.131,17.0781 C221.036,17.3516 220.988,17.6628 220.988,18.0117 C220.988,18.3607 221.036,18.6719 221.131,18.9453 C221.226,19.2188 221.368,19.4342 221.557,19.5918 C221.745,19.7493 221.979,19.8281 222.258,19.8281 M226.289,21 L226.289,15 L227.902,15 L227.902,16.0469 L227.965,16.0469 C228.074,15.6745 228.258,15.3926 228.516,15.2012 C228.773,15.0098 229.07,14.9141 229.406,14.9141 C229.49,14.9141 229.579,14.9193 229.676,14.9297 C229.772,14.9401 229.857,14.9544 229.93,14.9727 L229.93,16.4492 C229.852,16.4258 229.743,16.4049 229.605,16.3867 C229.467,16.3685 229.341,16.3594 229.227,16.3594 C228.982,16.3594 228.764,16.4121 228.572,16.5176 C228.381,16.623 228.23,16.7695 228.119,16.957 C228.008,17.1445 227.953,17.3607 227.953,17.6055 L227.953,21 L226.289,21 M234.262,15 L234.262,16.25 L230.648,16.25 L230.648,15 L234.262,15 M231.469,13.5625 L233.133,13.5625 L233.133,19.1563 C233.133,19.3099 233.156,19.429 233.203,19.5137 C233.25,19.5983 233.316,19.6576 233.4,19.6914 C233.485,19.7253 233.583,19.7422 233.695,19.7422 C233.773,19.7422 233.852,19.735 233.93,19.7207 C234.008,19.7064 234.068,19.6953 234.109,19.6875 L234.371,20.9258 C234.288,20.9518 234.171,20.9824 234.02,21.0176 C233.868,21.0527 233.685,21.0742 233.469,21.082 C233.068,21.0977 232.717,21.0443 232.416,20.9219 C232.115,20.7995 231.882,20.6094 231.715,20.3516 C231.548,20.0938 231.466,19.7682 231.469,19.375 L231.469,13.5625 M237.914,21 L237.914,13 L239.605,13 L239.605,19.6055 L243.035,19.6055 L243.035,21 L237.914,21 M244.148,21 L244.148,13 L249.539,13 L249.539,14.3945 L245.84,14.3945 L245.84,16.3008 L249.262,16.3008 L249.262,17.6953 L245.84,17.6953 L245.84,19.6055 L249.555,19.6055 L249.555,21 L244.148,21 M253.719,21 L250.883,21 L250.883,13 L253.742,13 C254.547,13 255.24,13.1595 255.82,13.4785 C256.401,13.7975 256.848,14.2552 257.162,14.8516 C257.476,15.4479 257.633,16.1615 257.633,16.9922 C257.633,17.8255 257.476,18.5417 257.162,19.1406 C256.848,19.7396 256.399,20.1992 255.814,20.5195 C255.23,20.8398 254.531,21 253.719,21 M252.574,19.5508 L253.648,19.5508 C254.148,19.5508 254.57,19.4616 254.912,19.2832 C255.255,19.1048 255.512,18.8275 255.686,18.4512 C255.859,18.0749 255.945,17.5885 255.945,16.9922 C255.945,16.401 255.859,15.918 255.686,15.543 C255.512,15.168 255.255,14.8919 254.914,14.7148 C254.573,14.5378 254.152,14.4492 253.652,14.4492 L252.574,14.4492 L252.574,19.5508 M264.109,21.1172 C263.495,21.1172 262.967,20.9863 262.525,20.7246 C262.084,20.4629 261.745,20.099 261.51,19.6328 C261.274,19.1667 261.156,18.6302 261.156,18.0234 C261.156,17.4089 261.275,16.8691 261.514,16.4043 C261.752,15.9395 262.091,15.5762 262.531,15.3145 C262.971,15.0527 263.495,14.9219 264.102,14.9219 C264.625,14.9219 265.083,15.0169 265.477,15.207 C265.87,15.3971 266.181,15.6641 266.41,16.0078 C266.639,16.3516 266.766,16.7552 266.789,17.2188 L265.219,17.2188 C265.174,16.9193 265.058,16.6777 264.869,16.4941 C264.68,16.3105 264.434,16.2188 264.129,16.2188 C263.871,16.2188 263.646,16.2884 263.455,16.4277 C263.264,16.5671 263.115,16.7695 263.008,17.0352 C262.901,17.3008 262.848,17.6224 262.848,18 C262.848,18.3828 262.9,18.7083 263.006,18.9766 C263.111,19.2448 263.26,19.4492 263.453,19.5898 C263.646,19.7305 263.871,19.8008 264.129,19.8008 C264.319,19.8008 264.49,19.7617 264.643,19.6836 C264.795,19.6055 264.921,19.4915 265.021,19.3418 C265.122,19.1921 265.188,19.0117 265.219,18.8008 L266.789,18.8008 C266.763,19.2591 266.639,19.6621 266.416,20.0098 C266.193,20.3574 265.887,20.6289 265.496,20.8242 C265.105,21.0195 264.643,21.1172 264.109,21.1172 M270.563,21.1172 C269.956,21.1172 269.432,20.9876 268.99,20.7285 C268.549,20.4694 268.208,20.1074 267.969,19.6426 C267.729,19.1777 267.609,18.638 267.609,18.0234 C267.609,17.4036 267.729,16.8613 267.969,16.3965 C268.208,15.9316 268.549,15.5697 268.99,15.3105 C269.432,15.0514 269.956,14.9219 270.563,14.9219 C271.169,14.9219 271.693,15.0514 272.135,15.3105 C272.576,15.5697 272.917,15.9316 273.156,16.3965 C273.396,16.8613 273.516,17.4036 273.516,18.0234 C273.516,18.638 273.396,19.1777 273.156,19.6426 C272.917,20.1074 272.576,20.4694 272.135,20.7285 C271.693,20.9876 271.169,21.1172 270.563,21.1172 M270.57,19.8281 C270.846,19.8281 271.077,19.7493 271.262,19.5918 C271.447,19.4342 271.587,19.2188 271.682,18.9453 C271.777,18.6719 271.824,18.3607 271.824,18.0117 C271.824,17.6628 271.777,17.3516 271.682,17.0781 C271.587,16.8047 271.447,16.5885 271.262,16.4297 C271.077,16.2708 270.846,16.1914 270.57,16.1914 C270.292,16.1914 270.058,16.2708 269.869,16.4297 C269.68,16.5885 269.538,16.8047 269.443,17.0781 C269.348,17.3516 269.301,17.6628 269.301,18.0117 C269.301,18.3607 269.348,18.6719 269.443,18.9453 C269.538,19.2188 269.68,19.4342 269.869,19.5918 C270.058,19.7493 270.292,19.8281 270.57,19.8281 M276.266,13 L276.266,21 L274.602,21 L274.602,13 L276.266,13 M280.297,21.1172 C279.69,21.1172 279.166,20.9876 278.725,20.7285 C278.283,20.4694 277.943,20.1074 277.703,19.6426 C277.464,19.1777 277.344,18.638 277.344,18.0234 C277.344,17.4036 277.464,16.8613 277.703,16.3965 C277.943,15.9316 278.283,15.5697 278.725,15.3105 C279.166,15.0514 279.69,14.9219 280.297,14.9219 C280.904,14.9219 281.428,15.0514 281.869,15.3105 C282.311,15.5697 282.651,15.9316 282.891,16.3965 C283.13,16.8613 283.25,17.4036 283.25,18.0234 C283.25,18.638 283.13,19.1777 282.891,19.6426 C282.651,20.1074 282.311,20.4694 281.869,20.7285 C281.428,20.9876 280.904,21.1172 280.297,21.1172 M280.305,19.8281 C280.581,19.8281 280.811,19.7493 280.996,19.5918 C281.181,19.4342 281.321,19.2188 281.416,18.9453 C281.511,18.6719 281.559,18.3607 281.559,18.0117 C281.559,17.6628 281.511,17.3516 281.416,17.0781 C281.321,16.8047 281.181,16.5885 280.996,16.4297 C280.811,16.2708 280.581,16.1914 280.305,16.1914 C280.026,16.1914 279.792,16.2708 279.604,16.4297 C279.415,16.5885 279.273,16.8047 279.178,17.0781 C279.083,17.3516 279.035,17.6628 279.035,18.0117 C279.035,18.3607 279.083,18.6719 279.178,18.9453 C279.273,19.2188 279.415,19.4342 279.604,19.5918 C279.792,19.7493 280.026,19.8281 280.305,19.8281 M284.336,21 L284.336,15 L285.949,15 L285.949,16.0469 L286.012,16.0469 C286.121,15.6745 286.305,15.3926 286.563,15.2012 C286.82,15.0098 287.117,14.9141 287.453,14.9141 C287.536,14.9141 287.626,14.9193 287.723,14.9297 C287.819,14.9401 287.904,14.9544 287.977,14.9727 L287.977,16.4492 C287.898,16.4258 287.79,16.4049 287.652,16.3867 C287.514,16.3685 287.388,16.3594 287.273,16.3594 C287.029,16.3594 286.811,16.4121 286.619,16.5176 C286.428,16.623 286.277,16.7695 286.166,16.957 C286.055,17.1445 286,17.3607 286,17.6055 L286,21 L284.336,21 M294.594,15 L294.594,16.25 L290.891,16.25 L290.891,15 L294.594,15 M291.738,21 L291.738,14.5664 C291.738,14.1315 291.824,13.7708 291.994,13.4844 C292.165,13.1979 292.398,12.9831 292.695,12.8398 C292.992,12.6966 293.329,12.625 293.707,12.625 C293.962,12.625 294.196,12.6445 294.408,12.6836 C294.62,12.7227 294.779,12.7578 294.883,12.7891 L294.586,14.0391 C294.521,14.0182 294.441,13.9987 294.346,13.9805 C294.251,13.9622 294.154,13.9531 294.055,13.9531 C293.81,13.9531 293.639,14.0098 293.543,14.123 C293.447,14.2363 293.398,14.3945 293.398,14.5977 L293.398,21 L291.738,21 M295.602,21 L295.602,15 L297.215,15 L297.215,16.0469 L297.277,16.0469 C297.387,15.6745 297.57,15.3926 297.828,15.2012 C298.086,15.0098 298.383,14.9141 298.719,14.9141 C298.802,14.9141 298.892,14.9193 298.988,14.9297 C299.085,14.9401 299.169,14.9544 299.242,14.9727 L299.242,16.4492 C299.164,16.4258 299.056,16.4049 298.918,16.3867 C298.78,16.3685 298.654,16.3594 298.539,16.3594 C298.294,16.3594 298.076,16.4121 297.885,16.5176 C297.693,16.623 297.542,16.7695 297.432,16.957 C297.321,17.1445 297.266,17.3607 297.266,17.6055 L297.266,21 L295.602,21 M302.516,21.1172 C301.909,21.1172 301.385,20.9876 300.943,20.7285 C300.502,20.4694 300.161,20.1074 299.922,19.6426 C299.682,19.1777 299.563,18.638 299.563,18.0234 C299.563,17.4036 299.682,16.8613 299.922,16.3965 C300.161,15.9316 300.502,15.5697 300.943,15.3105 C301.385,15.0514 301.909,14.9219 302.516,14.9219 C303.122,14.9219 303.646,15.0514 304.088,15.3105 C304.529,15.5697 304.87,15.9316 305.109,16.3965 C305.349,16.8613 305.469,17.4036 305.469,18.0234 C305.469,18.638 305.349,19.1777 305.109,19.6426 C304.87,20.1074 304.529,20.4694 304.088,20.7285 C303.646,20.9876 303.122,21.1172 302.516,21.1172 M302.523,19.8281 C302.799,19.8281 303.03,19.7493 303.215,19.5918 C303.4,19.4342 303.54,19.2188 303.635,18.9453 C303.73,18.6719 303.777,18.3607 303.777,18.0117 C303.777,17.6628 303.73,17.3516 303.635,17.0781 C303.54,16.8047 303.4,16.5885 303.215,16.4297 C303.03,16.2708 302.799,16.1914 302.523,16.1914 C302.245,16.1914 302.011,16.2708 301.822,16.4297 C301.633,16.5885 301.492,16.8047 301.396,17.0781 C301.301,17.3516 301.254,17.6628 301.254,18.0117 C301.254,18.3607 301.301,18.6719 301.396,18.9453 C301.492,19.2188 301.633,19.4342 301.822,19.5918 C302.011,19.7493 302.245,19.8281 302.523,19.8281 M306.555,21 L306.555,15 L308.141,15 L308.141,16.0586 L308.211,16.0586 C308.336,15.707 308.544,15.4297 308.836,15.2266 C309.128,15.0234 309.477,14.9219 309.883,14.9219 C310.294,14.9219 310.645,15.0241 310.934,15.2285 C311.223,15.4329 311.415,15.7096 311.512,16.0586 L311.574,16.0586 C311.697,15.7148 311.919,15.4395 312.24,15.2324 C312.562,15.0254 312.943,14.9219 313.383,14.9219 C313.943,14.9219 314.398,15.0996 314.748,15.4551 C315.098,15.8105 315.273,16.3138 315.273,16.9648 L315.273,21 L313.613,21 L313.613,17.293 C313.613,16.9596 313.525,16.7096 313.348,16.543 C313.171,16.3763 312.949,16.293 312.684,16.293 C312.382,16.293 312.146,16.3887 311.977,16.5801 C311.807,16.7715 311.723,17.0234 311.723,17.3359 L311.723,21 L310.109,21 L310.109,17.2578 C310.109,16.9635 310.025,16.7292 309.857,16.5547 C309.689,16.3802 309.469,16.293 309.195,16.293 C309.01,16.293 308.844,16.3392 308.697,16.4316 C308.55,16.5241 308.434,16.653 308.348,16.8184 C308.262,16.9837 308.219,17.1771 308.219,17.3984 L308.219,21 L306.555,21 M324.125,16.7109 L322.602,16.8047 C322.576,16.6745 322.52,16.5566 322.434,16.4512 C322.348,16.3457 322.235,16.2611 322.096,16.1973 C321.956,16.1335 321.79,16.1016 321.598,16.1016 C321.34,16.1016 321.122,16.1556 320.945,16.2637 C320.768,16.3717 320.68,16.5156 320.68,16.6953 C320.68,16.8385 320.737,16.9596 320.852,17.0586 C320.966,17.1576 321.163,17.237 321.441,17.2969 L322.527,17.5156 C323.111,17.6354 323.546,17.8281 323.832,18.0938 C324.118,18.3594 324.262,18.7083 324.262,19.1406 C324.262,19.5339 324.146,19.8789 323.916,20.1758 C323.686,20.4727 323.37,20.7038 322.971,20.8691 C322.571,21.0345 322.111,21.1172 321.59,21.1172 C320.796,21.1172 320.163,20.9512 319.693,20.6191 C319.223,20.2871 318.948,19.8346 318.867,19.2617 L320.504,19.1758 C320.553,19.418 320.673,19.6022 320.863,19.7285 C321.053,19.8548 321.297,19.918 321.594,19.918 C321.885,19.918 322.12,19.8613 322.299,19.748 C322.477,19.6348 322.568,19.4883 322.57,19.3086 C322.568,19.1576 322.504,19.0332 322.379,18.9355 C322.254,18.8379 322.061,18.763 321.801,18.7109 L320.762,18.5039 C320.176,18.3867 319.74,18.1836 319.455,17.8945 C319.17,17.6055 319.027,17.237 319.027,16.7891 C319.027,16.4036 319.132,16.0716 319.342,15.793 C319.551,15.5143 319.847,15.2995 320.229,15.1484 C320.61,14.9974 321.057,14.9219 321.57,14.9219 C322.328,14.9219 322.925,15.082 323.361,15.4023 C323.798,15.7227 324.052,16.1589 324.125,16.7109 M328.496,15 L328.496,16.25 L324.883,16.25 L324.883,15 L328.496,15 M325.703,13.5625 L327.367,13.5625 L327.367,19.1563 C327.367,19.3099 327.391,19.429 327.438,19.5137 C327.484,19.5983 327.55,19.6576 327.635,19.6914 C327.719,19.7253 327.818,19.7422 327.93,19.7422 C328.008,19.7422 328.086,19.735 328.164,19.7207 C328.242,19.7064 328.302,19.6953 328.344,19.6875 L328.605,20.9258 C328.522,20.9518 328.405,20.9824 328.254,21.0176 C328.103,21.0527 327.919,21.0742 327.703,21.082 C327.302,21.0977 326.951,21.0443 326.65,20.9219 C326.35,20.7995 326.116,20.6094 325.949,20.3516 C325.783,20.0938 325.701,19.7682 325.703,19.375 L325.703,13.5625 M329.57,21 L329.57,15 L331.184,15 L331.184,16.0469 L331.246,16.0469 C331.355,15.6745 331.539,15.3926 331.797,15.2012 C332.055,15.0098 332.352,14.9141 332.688,14.9141 C332.771,14.9141 332.861,14.9193 332.957,14.9297 C333.053,14.9401 333.138,14.9544 333.211,14.9727 L333.211,16.4492 C333.133,16.4258 333.025,16.4049 332.887,16.3867 C332.749,16.3685 332.622,16.3594 332.508,16.3594 C332.263,16.3594 332.045,16.4121 331.854,16.5176 C331.662,16.623 331.511,16.7695 331.4,16.957 C331.29,17.1445 331.234,17.3607 331.234,17.6055 L331.234,21 L329.57,21 M334.055,21 L334.055,15 L335.719,15 L335.719,21 L334.055,21 M334.891,14.2266 C334.643,14.2266 334.432,14.1439 334.256,13.9785 C334.08,13.8132 333.992,13.6146 333.992,13.3828 C333.992,13.1536 334.08,12.9564 334.256,12.791 C334.432,12.6257 334.643,12.543 334.891,12.543 C335.138,12.543 335.35,12.6257 335.525,12.791 C335.701,12.9564 335.789,13.1536 335.789,13.3828 C335.789,13.6146 335.701,13.8132 335.525,13.9785 C335.35,14.1439 335.138,14.2266 334.891,14.2266 M338.703,17.5313 L338.703,21 L337.039,21 L337.039,15 L338.625,15 L338.625,16.0586 L338.695,16.0586 C338.828,15.7096 339.051,15.4329 339.363,15.2285 C339.676,15.0241 340.055,14.9219 340.5,14.9219 C340.917,14.9219 341.28,15.013 341.59,15.1953 C341.9,15.3776 342.141,15.6374 342.313,15.9746 C342.484,16.3118 342.57,16.7135 342.57,17.1797 L342.57,21 L340.906,21 L340.906,17.4766 C340.909,17.1094 340.815,16.8223 340.625,16.6152 C340.435,16.4082 340.173,16.3047 339.84,16.3047 C339.616,16.3047 339.419,16.3529 339.248,16.4492 C339.077,16.5456 338.945,16.6855 338.85,16.8691 C338.755,17.0527 338.706,17.2734 338.703,17.5313 M346.57,23.375 C346.031,23.375 345.57,23.3014 345.186,23.1543 C344.801,23.0072 344.496,22.8073 344.27,22.5547 C344.043,22.3021 343.896,22.0182 343.828,21.7031 L345.367,21.4961 C345.414,21.6159 345.488,21.7279 345.59,21.832 C345.691,21.9362 345.826,22.0202 345.994,22.084 C346.162,22.1478 346.367,22.1797 346.609,22.1797 C346.971,22.1797 347.27,22.0918 347.506,21.916 C347.742,21.7402 347.859,21.4466 347.859,21.0352 L347.859,19.9375 L347.789,19.9375 C347.716,20.1042 347.607,20.2617 347.461,20.4102 C347.315,20.5586 347.128,20.6797 346.898,20.7734 C346.669,20.8672 346.396,20.9141 346.078,20.9141 C345.628,20.9141 345.218,20.8092 344.85,20.5996 C344.481,20.39 344.188,20.0684 343.971,19.6348 C343.753,19.2012 343.645,18.6523 343.645,17.9883 C343.645,17.3086 343.755,16.7409 343.977,16.2852 C344.198,15.8294 344.493,15.4883 344.861,15.2617 C345.23,15.0352 345.634,14.9219 346.074,14.9219 C346.41,14.9219 346.691,14.9785 346.918,15.0918 C347.145,15.2051 347.327,15.3457 347.467,15.5137 C347.606,15.6816 347.714,15.8464 347.789,16.0078 L347.852,16.0078 L347.852,15 L349.504,15 L349.504,21.0586 C349.504,21.569 349.379,21.9961 349.129,22.3398 C348.879,22.6836 348.533,22.9421 348.092,23.1152 C347.65,23.2884 347.143,23.375 346.57,23.375 M346.605,19.6641 C346.874,19.6641 347.101,19.597 347.287,19.4629 C347.473,19.3288 347.617,19.1361 347.717,18.8848 C347.817,18.6335 347.867,18.332 347.867,17.9805 C347.867,17.6289 347.818,17.3236 347.719,17.0645 C347.62,16.8053 347.477,16.6042 347.289,16.4609 C347.102,16.3177 346.874,16.2461 346.605,16.2461 C346.332,16.2461 346.102,16.3197 345.914,16.4668 C345.727,16.6139 345.585,16.8177 345.488,17.0781 C345.392,17.3385 345.344,17.6393 345.344,17.9805 C345.344,18.3268 345.393,18.6257 345.49,18.877 C345.588,19.1283 345.73,19.3223 345.916,19.459 C346.102,19.5957 346.332,19.6641 346.605,19.6641 "/>
</g>

<g fill="#ffffff" fill-opacity="1" stroke="none" transform="matrix(0.228,0,0,0.228,11.6,9.6)"
font-family="Inter" font-size="11" font-weight="700" font-style="normal" 
>
<path vector-effect="none" fill-rule="nonzero" d="M30.4107,9.26266 C30.0442,9.26266 29.7491,9.55772 29.7491,9.92424 L29.7491,90.0758 C29.7491,90.4423 30.0442,90.7373 30.4107,90.7373 L69.5893,90.7373 C69.9558,90.7373 70.2509,90.4423 70.2509,90.0758 L70.2509,9.92424 C70.2509,9.55772 69.9558,9.26266 69.5893,9.26266 L30.4107,9.26266 M34.1383,11.8616 L44.5536,11.8616 C45.5822,11.8616 46.4101,12.6897 46.4101,13.7184 L46.4101,16.3708 C46.4101,17.3995 45.5822,18.2277 44.5536,18.2277 L34.1383,18.2277 C33.1096,18.2277 32.2817,17.3995 32.2817,16.3708 L32.2817,13.7184 C32.2817,12.6897 33.1096,11.8616 34.1383,11.8616 M55.3044,11.8818 L65.7194,11.8818 C66.748,11.8818 67.5762,12.71 67.5762,13.7386 L67.5762,16.3911 C67.5762,17.4197 66.748,18.2479 65.7194,18.2479 L55.3044,18.2479 C54.2757,18.2479 53.4475,17.4197 53.4475,16.3911 L53.4475,13.7386 C53.4475,12.71 54.2757,11.8818 55.3044,11.8818 M36.022,48.0924 C37.0755,48.0922 37.9298,48.9459 37.9302,49.9994 L37.9302,50 C37.9301,51.0535 37.0761,51.9075 36.0226,51.9076 C34.969,51.9077 34.1149,51.0538 34.1147,50.0003 C34.1146,48.9468 34.9685,48.0926 36.022,48.0924 M45.2251,47.997 L54.7749,47.997 C55.746,47.997 56.5279,49.0289 56.5279,50 C56.5279,50.9712 55.746,52.003 54.7749,52.003 L45.2251,52.003 C44.254,52.003 43.4721,50.9712 43.4721,50 C43.4721,49.0289 44.254,47.997 45.2251,47.997 M34.2035,81.3372 L44.6185,81.3372 C45.6471,81.3372 46.4753,82.1654 46.4753,83.194 L46.4753,85.8465 C46.4753,86.8751 45.6471,87.7033 44.6185,87.7033 L34.2035,87.7033 C33.1748,87.7033 32.3466,86.8751 32.3466,85.8465 L32.3466,83.194 C32.3466,82.1654 33.1748,81.3372 34.2035,81.3372 M55.3693,81.3577 L65.7846,81.3577 C66.8132,81.3577 67.6411,82.1856 67.6411,83.2143 L67.6411,85.867 C67.6411,86.8957 66.8132,87.7236 65.7846,87.7236 L55.3693,87.7236 C54.3407,87.7236 53.5127,86.8957 53.5127,85.867 L53.5127,83.2143 C53.5127,82.1856 54.3407,81.3577 55.3693,81.3577 "/>
</g>

<g fill="none" stroke="#000000" stroke-opacity="1" stroke-width="1.1625" stroke-linecap="round" stroke-linejoin="round" transform="matrix(0.228,0,0,0.228,11.6,9.6)"
font-family="Inter" font-size="11" font-weight="700" font-style="normal" 
>
<path vector-effect="none" fill-rule="nonzero" d="M30.4107,9.26266 C30.0442,9.26266 29.7491,9.55772 29.7491,9.92424 L29.7491,90.0758 C29.7491,90.4423 30.0442,90.7373 30.4107,90.7373 L69.5893,90.7373 C69.9558,90.7373 70.2509,90.4423 70.2509,90.0758 L70.2509,9.92424 C70.2509,9.55772 69.9558,9.26266 69.5893,9.26266 L30.4107,9.26266 M34.1383,11.8616 L44.5536,11.8616 C45.5822,11.8616 46.4101,12.6897 46.4101,13.7184 L46.4101,16.3708 C46.4101,17.3995 45.5822,18.2277 44.5536,18.2277 L34.1383,18.2277 C33.1096,18.2277 32.2817,17.3995 32.2817,16.3708 L32.2817,13.7184 C32.2817,12.6897 33.1096,11.8616 34.1383,11.8616 M55.3044,11.8818 L65.7194,11.8818 C66.748,11.8818 67.5762,12.71 67.5762,13.7386 L67.5762,16.3911 C67.5762,17.4197 66.748,18.2479 65.7194,18.2479 L55.3044,18.2479 C54.2757,18.2479 53.4475,17.4197 53.4475,16.3911 L53.4475,13.7386 C53.4475,12.71 54.2757,11.8818 55.3044,11.8818 M36.022,48.0924 C37.0755,48.0922 37.9298,48.9459 37.9302,49.9994 L37.9302,50 C37.9301,51.0535 37.0761,51.9075 36.0226,51.9076 C34.969,51.9077 34.1149,51.0538 34.1147,50.0003 C34.1146,48.9468 34.9685,48.0926 36.022,48.0924 M45.2251,47.997 L54.7749,47.997 C55.746,47.997 56.5279,49.0289 56.5279,50 C56.5279,50.9712 55.746,52.003 54.7749,52.003 L45.2251,52.003 C44.254,52.003 43.4721,50.9712 43.4721,50 C43.4721,49.0289 44.254,47.997 45.2251,47.997 M34.2035,81.3372 L44.6185,81.3372 C45.6471,81.3372 46.4753,82.1654 46.4753,83.194 L46.4753,85.8465 C46.4753,86.8751 45.6471,87.7033 44.6185,87.7033 L34.2035,87.7033 C33.1748,87.7033 32.3466,86.8751 32.3466,85.8465 L32.3466,83.194 C32.3466,82.1654 33.1748,81.3372 34.2035,81.3372 M55.3693,81.3577 L65.7846,81.3577 C66.8132,81.3577 67.6411,82.1856 67.6411,83.2143 L67.6411,85.867 C67.6411,86.8957 66.8132,87.7236 65.7846,87.7236 L55.3693,87.7236 C54.3407,87.7236 53.5127,86.8957 53.5127,85.867 L53.5127,83.2143 C53.5127,82.1856 54.3407,81.3577 55.3693,81.3577 "/>
</g>

<g fill="none" stroke="#000000" stroke-opacity="1" stroke-width="1.53453" stroke-linecap="round" stroke-linejoin="round" transform="matrix(0.228,0,0,0.228,11.6,9.6)"
font-family="Inter" font-size="11" font-weight="700" font-style="normal" 
>
<path vector-effect="none" fill-rule="nonzero" d="M30.4107,9.26266 C30.0442,9.26266 29.7491,9.55772 29.7491,9.92424 L29.7491,90.0758 C29.7491,90.4423 30.0442,90.7373 30.4107,90.7373 L69.5893,90.7373 C69.9558,90.7373 70.2509,90.4423 70.2509,90.0758 L70.2509,9.92424 C70.2509,9.55772 69.9558,9.26266 69.5893,9.26266 L30.4107,9.26266"/>
</g>

<g fill="#ffffff" fill-opacity="1" stroke="none" transform="matrix(0.259165,0,0,0.259165,9.97215,8.30092)"
font-family="Inter" font-size="11" font-weight="700" font-style="normal" 
>
<path vector-effect="none" fill-rule="evenodd" d="M43.9298,32.0312 C43.9298,31.8609 44.0679,31.7227 44.2383,31.7227 L56.25,31.7227 C56.4204,31.7227 56.5585,31.8609 56.5585,32.0312 C56.5585,32.2016 56.4204,32.3398 56.25,32.3398 L44.2383,32.3398 C44.0679,32.3398 43.9298,32.2016 43.9298,32.0312 "/>
</g>

<g fill="none" stroke="#000000" stroke-opacity="1" stroke-width="0.878639" stroke-linecap="round" stroke-linejoin="round" transform="matrix(0.259165,0,0,0.259165,9.97215,8.30092)"
font-family="Inter" font-size="11" font-weight="700" font-style="normal" 
>
<path vector-effect="none" fill-rule="evenodd" d="M43.9298,32.0312 C43.9298,31.8609 44.0679,31.7227 44.2383,31.7227 L56.25,31.7227 C56.4204,31.7227 56.5585,31.8609 56.5585,32.0312 C56.5585,32.2016 56.4204,32.3398 56.25,32.3398 L44.2383,32.3398 C44.0679,32.3398 43.9298,32.2016 43.9298,32.0312 "/>
</g>

<g fill="#ffffff" fill-opacity="1" stroke="none" transform="matrix(0.259165,0,0,0.259165,9.97215,8.30092)"
font-family="Inter" font-size="11" font-weight="700" font-style="normal" 
>
<path vector-effect="none" fill-rule="evenodd" d="M43.9786,29.1016 C43.9786,28.9312 44.1167,28.793 44.2871,28.793 L56.2988,28.793 C56.4692,28.793 56.6074,28.9312 56.6074,29.1016 C56.6074,29.272 56.4692,29.4101 56.2988,29.4101 L44.2871,29.4101 C44.1167,29.4101 43.9786,29.272 43.9786,29.1016 "/>
</g>

<g fill="none" stroke="#000000" stroke-opacity="1" stroke-width="0.878639" stroke-linecap="round" stroke-linejoin="round" transform="matrix(0.259165,0,0,0.259165,9.97215,8.30092)"
font-family="Inter" font-size="11" font-weight="700" font-style="normal" 
>
<path vector-effect="none" fill-rule="evenodd" d="M43.9786,29.1016 C43.9786,28.9312 44.1167,28.793 44.2871,28.793 L56.2988,28.793 C56.4692,28.793 56.6074,28.9312 56.6074,29.1016 C56.6074,29.272 56.4692,29.4101 56.2988,29.4101 L44.2871,29.4101 C44.1167,29.4101 43.9786,29.272 43.9786,29.1016 "/>
</g>

<g fill="#ffffff" fill-opacity="1" stroke="none" transform="matrix(0.259165,0,0,0.259165,9.97215,8.30092)"
font-family="Inter" font-size="11" font-weight="700" font-style="normal" 
>
<path vector-effect="none" fill-rule="evenodd" d="M46.4813,27.1552 C46.4813,27.0313 46.5817,26.9308 46.7057,26.9308 L46.7057,26.9308 C46.8296,26.9308 46.9301,27.0313 46.9301,27.1552 L46.9301,28.3637 C46.9301,28.4876 46.8296,28.5881 46.7057,28.5881 L46.7057,28.5881 C46.5817,28.5881 46.4813,28.4876 46.4813,28.3637 L46.4813,27.1552"/>
</g>

<g fill="none" stroke="#000000" stroke-opacity="1" stroke-width="0.90975" stroke-linecap="round" stroke-linejoin="round" transform="matrix(0.259165,0,0,0.259165,9.97215,8.30092)"
font-family="Inter" font-size="11" font-weight="700" font-style="normal" 
>
<path vector-effect="none" fill-rule="evenodd" d="M46.4813,27.1552 C46.4813,27.0313 46.5817,26.9308 46.7057,26.9308 L46.7057,26.9308 C46.8296,26.9308 46.9301,27.0313 46.9301,27.1552 L46.9301,28.3637 C46.9301,28.4876 46.8296,28.5881 46.7057,28.5881 L46.7057,28.5881 C46.5817,28.5881 46.4813,28.4876 46.4813,28.3637 L46.4813,27.1552"/>
</g>

<g fill="#ffffff" fill-opacity="1" stroke="none" transform="matrix(0.259165,0,0,0.259165,9.97215,8.30092)"
font-family="Inter" font-size="11" font-weight="700" font-style="normal" 
>
<path vector-effect="none" fill-rule="evenodd" d="M53.7063,27.1207 C53.7063,26.9968 53.8068,26.8963 53.9307,26.8963 L53.9307,26.8963 C54.0546,26.8963 54.1551,26.9968 54.1551,27.1207 L54.1551,28.3292 C54.1551,28.4531 54.0546,28.5536 53.9307,28.5536 L53.9307,28.5536 C53.8068,28.5536 53.7063,28.4531 53.7063,28.3292 L53.7063,27.1207"/>
</g>

<g fill="none" stroke="#000000" stroke-opacity="1" stroke-width="0.90975" stroke-linecap="round" stroke-linejoin="round" transform="matrix(0.259165,0,0,0.259165,9.97215,8.30092)"
font-family="Inter" font-size="11" font-weight="700" font-style="normal" 
>
<path vector-effect="none" fill-rule="evenodd" d="M53.7063,27.1207 C53.7063,26.9968 53.8068,26.8963 53.9307,26.8963 L53.9307,26.8963 C54.0546,26.8963 54.1551,26.9968 54.1551,27.1207 L54.1551,28.3292 C54.1551,28.4531 54.0546,28.5536 53.9307,28.5536 L53.9307,28.5536 C53.8068,28.5536 53.7063,28.4531 53.7063,28.3292 L53.7063,27.1207"/>
</g>

<g fill="#ffffff" fill-opacity="1" stroke="none" transform="matrix(0.259165,0,0,-0.259165,9.97215,33.5743)"
font-family="Inter" font-size="11" font-weight="700" font-style="normal" 
>
<path vector-effect="none" fill-rule="evenodd" d="M43.9298,32.0312 C43.9298,31.8609 44.0679,31.7227 44.2383,31.7227 L56.25,31.7227 C56.4204,31.7227 56.5585,31.8609 56.5585,32.0312 C56.5585,32.2016 56.4204,32.3398 56.25,32.3398 L44.2383,32.3398 C44.0679,32.3398 43.9298,32.2016 43.9298,32.0312 "/>
</g>

<g fill="none" stroke="#000000" stroke-opacity="1" stroke-width="0.878639" stroke-linecap="round" stroke-linejoin="round" transform="matrix(0.259165,0,0,-0.259165,9.97215,33.5743)"
font-family="Inter" font-size="11" font-weight="700" font-style="normal" 
>
<path vector-effect="none" fill-rule="evenodd" d="M43.9298,32.0312 C43.9298,31.8609 44.0679,31.7227 44.2383,31.7227 L56.25,31.7227 C56.4204,31.7227 56.5585,31.8609 56.5585,32.0312 C56.5585,32.2016 56.4204,32.3398 56.25,32.3398 L44.2383,32.3398 C44.0679,32.3398 43.9298,32.2016 43.9298,32.0312 "/>
</g>

<g fill="#ffffff" fill-opacity="1" stroke="none" transform="matrix(0.259165,0,0,-0.259165,9.97215,33.5743)"
font-family="Inter" font-size="11" font-weight="700" font-style="normal" 
>
<path vector-effect="none" fill-rule="evenodd" d="M43.9786,29.1016 C43.9786,28.9312 44.1167,28.793 44.2871,28.793 L56.2988,28.793 C56.4692,28.793 56.6074,28.9312 56.6074,29.1016 C56.6074,29.272 56.4692,29.4101 56.2988,29.4101 L44.2871,29.4101 C44.1167,29.4101 43.9786,29.272 43.9786,29.1016 "/>
</g>

<g fill="none" stroke="#000000" stroke-opacity="1" stroke-width="0.878639" stroke-linecap="round" stroke-linejoin="round" transform="matrix(0.259165,0,0,-0.259165,9.97215,33.5743)"
font-family="Inter" font-size="11" font-weight="700" font-style="normal" 
>
<path vector-effect="none" fill-rule="evenodd" d="M43.9786,29.1016 C43.9786,28.9312 44.1167,28.793 44.2871,28.793 L56.2988,28.793 C56.4692,28.793 56.6074,28.9312 56.6074,29.1016 C56.6074,29.272 56.4692,29.4101 56.2988,29.4101 L44.2871,29.4101 C44.1167,29.4101 43.9786,29.272 43.9786,29.1016 "/>
</g>

<g fill="#ffffff" fill-opacity="1" stroke="none" transform="matrix(0.259165,0,0,-0.259165,9.97215,33.5743)"
font-family="Inter" font-size="11" font-weight="700" font-style="normal" 
>
<path vector-effect="none" fill-rule="evenodd" d="M46.4813,27.1552 C46.4813,27.0313 46.5817,26.9308 46.7057,26.9308 L46.7057,26.9308 C46.8296,26.9308 46.9301,27.0313 46.9301,27.1552 L46.9301,28.3637 C46.9301,28.4876 46.8296,28.5881 46.7057,28.5881 L46.7057,28.5881 C46.5817,28.5881 46.4813,28.4876 46.4813,28.3637 L46.4813,27.1552"/>
</g>

<g fill="none" stroke="#000000" stroke-opacity="1" stroke-width="0.90975" stroke-linecap="round" stroke-linejoin="round" transform="matrix(0.259165,0,0,-0.259165,9.97215,33.5743)"
font-family="Inter" font-size="11" font-weight="700" font-style="normal" 
>
<path vector-effect="none" fill-rule="evenodd" d="M46.4813,27.1552 C46.4813,27.0313 46.5817,26.9308 46.7057,26.9308 L46.7057,26.9308 C46.8296,26.9308 46.9301,27.0313 46.9301,27.1552 L46.9301,28.3637 C46.9301,28.4876 46.8296,28.5881 46.7057,28.5881 L46.7057,28.5881 C46.5817,28.5881 46.4813,28.4876 46.4813,28.3637 L46.4813,27.1552"/>
</g>

<g fill="#ffffff" fill-opacity="1" stroke="none" transform="matrix(0.259165,0,0,-0.259165,9.97215,33.5743)"
font-family="Inter" font-size="11" font-weight="700" font-style="normal" 
>
<path vector-effect="none" fill-rule="evenodd" d="M53.7063,27.1207 C53.7063,26.9968 53.8068,26.8963 53.9307,26.8963 L53.9307,26.8963 C54.0546,26.8963 54.1551,26.9968 54.1551,27.1207 L54.1551,28.3292 C54.1551,28.4531 54.0546,28.5536 53.9307,28.5536 L53.9307,28.5536 C53.8068,28.5536 53.7063,28.4531 53.7063,28.3292 L53.7063,27.1207"/>
</g>

<g fill="none" stroke="#000000" stroke-opacity="1" stroke-width="0.90975" stroke-linecap="round" stroke-linejoin="round" transform="matrix(0.259165,0,0,-0.259165,9.97215,33.5743)"
font-family="Inter" font-size="11" font-weight="700" font-style="normal" 
>
<path vector-effect="none" fill-rule="evenodd" d="M53.7063,27.1207 C53.7063,26.9968 53.8068,26.8963 53.9307,26.8963 L53.9307,26.8963 C54.0546,26.8963 54.1551,26.9968 54.1551,27.1207 L54.1551,28.3292 C54.1551,28.4531 54.0546,28.5536 53.9307,28.5536 L53.9307,28.5536 C53.8068,28.5536 53.7063,28.4531 53.7063,28.3292 L53.7063,27.1207"/>
</g>

<g fill="#ffffff" fill-opacity="1" stroke="none" transform="matrix(1,0,0,1,0,0)"
font-family="Inter" font-size="11" font-weight="700" font-style="normal" 
>
</g>

<g fill="#ffffff" fill-opacity="1" stroke="#6c25f1" stroke-opacity="1" stroke-width="1" stroke-linecap="square" stroke-linejoin="bevel" transform="matrix(1,0,0,1,0,0)"
font-family="Inter" font-size="11" font-weight="700" font-style="normal" 
>
<polyline fill="none" vector-effect="none" points="45,11 45,31 " />
</g>

<g fill="#ffffff" fill-opacity="1" stroke="#6c25f1" stroke-opacity="1" stroke-width="1" stroke-linecap="square" stroke-linejoin="bevel" transform="matrix(1,0,0,1,0,0)"
font-family="Inter" font-size="11" font-weight="700" font-style="normal" 
>
</g>

<g fill="#ffffff" fill-opacity="1" stroke="#6c25f1" stroke-opacity="1" stroke-width="1" stroke-linecap="square" stroke-linejoin="bevel" transform="matrix(1,0,0,1,0,0)"
font-family="Inter" font-size="11" font-weight="700" font-style="normal" 
>
</g>

<g fill="#ffffff" fill-opacity="1" stroke="#6c25f1" stroke-opacity="1" stroke-width="1" stroke-linecap="square" stroke-linejoin="bevel" transform="matrix(1,0,0,1,0,0)"
font-family="Inter" font-size="11" font-weight="700" font-style="normal" 
>
</g>

<g fill="#6c25f1" fill-opacity="1" stroke="#6c25f1" stroke-opacity="1" stroke-width="1.2" stroke-linecap="square" stroke-linejoin="bevel" transform="matrix(1,0,0,1,151,6)"
font-family="Inter" font-size="11" font-weight="700" font-style="normal" 
>
<path vector-effect="none" fill-rule="evenodd" d="M0.5,12 C0.5,5.64873 5.87258,0.5 12.5,0.5 L23.5,0.5 C30.1274,0.5 35.5,5.64873 35.5,12 C35.5,18.3513 30.1274,23.5 23.5,23.5 L12.5,23.5 C5.87258,23.5 0.5,18.3513 0.5,12 "/>
</g>

<g fill="#ffffff" fill-opacity="1" stroke="none" transform="matrix(1,0,0,1,151,6)"
font-family="Inter" font-size="11" font-weight="700" font-style="normal" 
>
<path vector-effect="none" fill-rule="nonzero" d="M13.582,8 L13.582,16 L11.8906,16 L11.8906,9.60547 L11.8438,9.60547 L10.0117,10.7539 L10.0117,9.25391 L11.9922,8 L13.582,8"/>
</g>

<g fill="#ffffff" fill-opacity="1" stroke="none" transform="matrix(0.03125,0,0,0.03125,173,14)"
font-family="Inter" font-size="11" font-weight="700" font-style="normal" 
>
<path vector-effect="none" fill-rule="nonzero" d="M111.326,191.938 C120.545,201.158 135.517,201.158 144.737,191.938 L239.144,97.5313 C245.929,90.7458 247.921,80.6413 244.233,71.7907 C240.545,62.9401 231.989,57.1871 222.401,57.1871 L33.5875,57.2608 C24.0731,57.2608 15.4437,63.0137 11.7559,71.8644 C8.06815,80.715 10.1333,90.8195 16.845,97.605 L111.252,192.012 L111.326,191.938"/>
</g>

<g fill="none" stroke="#000000" stroke-opacity="1" stroke-width="13.7195" stroke-linecap="butt" stroke-linejoin="miter" stroke-miterlimit="4" transform="matrix(0.03125,0,0,0.03125,173,14)"
font-family="Inter" font-size="11" font-weight="700" font-style="normal" 
>
<path vector-effect="none" fill-rule="nonzero" d="M111.326,191.938 C120.545,201.158 135.517,201.158 144.737,191.938 L239.144,97.5313 C245.929,90.7458 247.921,80.6413 244.233,71.7907 C240.545,62.9401 231.989,57.1871 222.401,57.1871 L33.5875,57.2608 C24.0731,57.2608 15.4437,63.0137 11.7559,71.8644 C8.06815,80.715 10.1333,90.8195 16.845,97.605 L111.252,192.012 L111.326,191.938"/>
</g>

<g fill="#ffffff" fill-opacity="1" stroke="none" transform="matrix(1,0,0,1,151,6)"
font-family="Inter" font-size="11" font-weight="700" font-style="normal" 
>
</g>

<g fill="#ffffff" fill-opacity="1" stroke="#6c25f1" stroke-opacity="1" stroke-width="1" stroke-linecap="square" stroke-linejoin="bevel" transform="matrix(1,0,0,1,0,0)"
font-family="Inter" font-size="11" font-weight="700" font-style="normal" 
>
</g>

<g fill="#935df5" fill-opacity="1" stroke="#6c25f1" stroke-opacity="1" stroke-width="1.2" stroke-linecap="square" stroke-linejoin="bevel" transform="matrix(1,0,0,1,56,6)"
font-family="Inter" font-size="11" font-weight="700" font-style="normal" 
>
<path vector-effect="none" fill-rule="evenodd" d="M0.5,3.5 C0.5,1.84315 1.84315,0.5 3.5,0.5 L81.5,0.5 C83.1569,0.5 84.5,1.84315 84.5,3.5 L84.5,20.5 C84.5,22.1569 83.1569,23.5 81.5,23.5 L3.5,23.5 C1.84315,23.5 0.5,22.1569 0.5,20.5 L0.5,3.5"/>
</g>

<g fill="#ffffff" fill-opacity="1" stroke="none" transform="matrix(1,0,0,1,56,6)"
font-family="Inter" font-size="11" font-weight="700" font-style="normal" 
>
<path vector-effect="none" fill-rule="nonzero" d="M10.0078,15.9375 L10.0078,7.9375 L13.2109,7.9375 C13.7995,7.9375 14.2904,8.02474 14.6836,8.19922 C15.0768,8.3737 15.3724,8.61523 15.5703,8.92383 C15.7682,9.23242 15.8672,9.58724 15.8672,9.98828 C15.8672,10.3008 15.8047,10.5749 15.6797,10.8105 C15.5547,11.0462 15.3835,11.2389 15.166,11.3887 C14.9486,11.5384 14.7005,11.6445 14.4219,11.707 L14.4219,11.7852 C14.7266,11.7982 15.0124,11.8841 15.2793,12.043 C15.5462,12.2018 15.763,12.4238 15.9297,12.709 C16.0964,12.9941 16.1797,13.3333 16.1797,13.7266 C16.1797,14.151 16.0749,14.5293 15.8652,14.8613 C15.6556,15.1934 15.3464,15.4557 14.9375,15.6484 C14.5286,15.8411 14.0247,15.9375 13.4258,15.9375 L10.0078,15.9375 M11.6992,14.5547 L13.0781,14.5547 C13.5495,14.5547 13.8932,14.4642 14.1094,14.2832 C14.3255,14.1022 14.4336,13.8607 14.4336,13.5586 C14.4336,13.3372 14.3802,13.1419 14.2734,12.9727 C14.1667,12.8034 14.015,12.6706 13.8184,12.5742 C13.6217,12.4779 13.388,12.4297 13.1172,12.4297 L11.6992,12.4297 L11.6992,14.5547 M11.6992,11.2852 L12.9531,11.2852 C13.1849,11.2852 13.3913,11.2441 13.5723,11.1621 C13.7533,11.0801 13.8965,10.9635 14.002,10.8125 C14.1074,10.6615 14.1602,10.4805 14.1602,10.2695 C14.1602,9.98047 14.0579,9.7474 13.8535,9.57031 C13.6491,9.39323 13.3594,9.30469 12.9844,9.30469 L11.6992,9.30469 L11.6992,11.2852 M19.0742,15.9375 L16.7852,7.9375 L18.6328,7.9375 L19.957,13.4961 L20.0234,13.4961 L21.4844,7.9375 L23.0664,7.9375 L24.5234,13.5078 L24.5938,13.5078 L25.918,7.9375 L27.7656,7.9375 L25.4766,15.9375 L23.8281,15.9375 L22.3047,10.707 L22.2422,10.707 L20.7227,15.9375 L19.0742,15.9375 M28.5781,15.9375 L28.5781,14.9336 L32.5703,9.33203 L28.5703,9.33203 L28.5703,7.9375 L34.6953,7.9375 L34.6953,8.94141 L30.6992,14.543 L34.7031,14.543 L34.7031,15.9375 L28.5781,15.9375 M38.9023,16.0469 C38.319,16.0469 37.8001,15.946 37.3457,15.7441 C36.8913,15.5423 36.5332,15.2637 36.2715,14.9082 C36.0098,14.5527 35.875,14.1419 35.8672,13.6758 L37.5703,13.6758 C37.5807,13.8711 37.6452,14.0423 37.7637,14.1895 C37.8822,14.3366 38.0404,14.4505 38.2383,14.5313 C38.4362,14.612 38.6589,14.6523 38.9063,14.6523 C39.1641,14.6523 39.3919,14.6068 39.5898,14.5156 C39.7878,14.4245 39.9427,14.2982 40.0547,14.1367 C40.1667,13.9753 40.2227,13.7891 40.2227,13.5781 C40.2227,13.3646 40.1634,13.1751 40.0449,13.0098 C39.9264,12.8444 39.7572,12.7148 39.5371,12.6211 C39.3171,12.5273 39.056,12.4805 38.7539,12.4805 L38.0078,12.4805 L38.0078,11.2383 L38.7539,11.2383 C39.0091,11.2383 39.235,11.194 39.4316,11.1055 C39.6283,11.0169 39.7813,10.8939 39.8906,10.7363 C40,10.5788 40.0547,10.3945 40.0547,10.1836 C40.0547,9.98307 40.0072,9.80664 39.9121,9.6543 C39.8171,9.50195 39.6842,9.38281 39.5137,9.29688 C39.3431,9.21094 39.1445,9.16797 38.918,9.16797 C38.6888,9.16797 38.4792,9.20898 38.2891,9.29102 C38.099,9.37305 37.9466,9.48958 37.832,9.64063 C37.7174,9.79167 37.6563,9.96875 37.6484,10.1719 L36.0273,10.1719 C36.0352,9.71094 36.1667,9.30469 36.4219,8.95313 C36.6771,8.60156 37.0215,8.32617 37.4551,8.12695 C37.8887,7.92773 38.3789,7.82813 38.9258,7.82813 C39.4779,7.82813 39.9609,7.92839 40.375,8.12891 C40.7891,8.32943 41.1113,8.59961 41.3418,8.93945 C41.5723,9.2793 41.6862,9.66016 41.6836,10.082 C41.6862,10.5299 41.5475,10.9036 41.2676,11.2031 C40.9876,11.5026 40.6237,11.6927 40.1758,11.7734 L40.1758,11.8359 C40.7643,11.9115 41.2129,12.1152 41.5215,12.4473 C41.8301,12.7793 41.9831,13.194 41.9805,13.6914 C41.9831,14.1471 41.8522,14.5521 41.5879,14.9063 C41.3236,15.2604 40.9596,15.5391 40.4961,15.7422 C40.0326,15.9453 39.5013,16.0469 38.9023,16.0469 M43.2422,15.9375 L43.2422,7.9375 L44.9336,7.9375 L44.9336,11.2383 L48.3672,11.2383 L48.3672,7.9375 L50.0547,7.9375 L50.0547,15.9375 L48.3672,15.9375 L48.3672,12.6328 L44.9336,12.6328 L44.9336,15.9375 L43.2422,15.9375 M51.4453,15.9375 L51.4453,7.9375 L54.6484,7.9375 C55.237,7.9375 55.7279,8.02474 56.1211,8.19922 C56.5143,8.3737 56.8099,8.61523 57.0078,8.92383 C57.2057,9.23242 57.3047,9.58724 57.3047,9.98828 C57.3047,10.3008 57.2422,10.5749 57.1172,10.8105 C56.9922,11.0462 56.821,11.2389 56.6035,11.3887 C56.3861,11.5384 56.138,11.6445 55.8594,11.707 L55.8594,11.7852 C56.1641,11.7982 56.4499,11.8841 56.7168,12.043 C56.9837,12.2018 57.2005,12.4238 57.3672,12.709 C57.5339,12.9941 57.6172,13.3333 57.6172,13.7266 C57.6172,14.151 57.5124,14.5293 57.3027,14.8613 C57.0931,15.1934 56.7839,15.4557 56.375,15.6484 C55.9661,15.8411 55.4622,15.9375 54.8633,15.9375 L51.4453,15.9375 M53.1367,14.5547 L54.5156,14.5547 C54.987,14.5547 55.3307,14.4642 55.5469,14.2832 C55.763,14.1022 55.8711,13.8607 55.8711,13.5586 C55.8711,13.3372 55.8177,13.1419 55.7109,12.9727 C55.6042,12.8034 55.4525,12.6706 55.2559,12.5742 C55.0592,12.4779 54.8255,12.4297 54.5547,12.4297 L53.1367,12.4297 L53.1367,14.5547 M53.1367,11.2852 L54.3906,11.2852 C54.6224,11.2852 54.8288,11.2441 55.0098,11.1621 C55.1908,11.0801 55.334,10.9635 55.4395,10.8125 C55.5449,10.6615 55.5977,10.4805 55.5977,10.2695 C55.5977,9.98047 55.4954,9.7474 55.291,9.57031 C55.0866,9.39323 54.7969,9.30469 54.4219,9.30469 L53.1367,9.30469 L53.1367,11.2852 M62.1445,7.9375 L62.1445,15.9375 L60.4531,15.9375 L60.4531,9.54297 L60.4063,9.54297 L58.5742,10.6914 L58.5742,9.19141 L60.5547,7.9375 L62.1445,7.9375"/>
</g>

<g fill="#ffffff" fill-opacity="1" stroke="none" transform="matrix(0.03125,0,0,0.03125,127,14)"
font-family="Inter" font-size="11" font-weight="700" font-style="normal" 
>
<path vector-effect="none" fill-rule="nonzero" d="M111.326,191.938 C120.545,201.158 135.517,201.158 144.737,191.938 L239.144,97.5313 C245.929,90.7458 247.921,80.6413 244.233,71.7907 C240.545,62.9401 231.989,57.1871 222.401,57.1871 L33.5875,57.2608 C24.0731,57.2608 15.4437,63.0137 11.7559,71.8644 C8.06815,80.715 10.1333,90.8195 16.845,97.605 L111.252,192.012 L111.326,191.938"/>
</g>

<g fill="none" stroke="#000000" stroke-opacity="1" stroke-width="13.7195" stroke-linecap="butt" stroke-linejoin="miter" stroke-miterlimit="4" transform="matrix(0.03125,0,0,0.03125,127,14)"
font-family="Inter" font-size="11" font-weight="700" font-style="normal" 
>
<path vector-effect="none" fill-rule="nonzero" d="M111.326,191.938 C120.545,201.158 135.517,201.158 144.737,191.938 L239.144,97.5313 C245.929,90.7458 247.921,80.6413 244.233,71.7907 C240.545,62.9401 231.989,57.1871 222.401,57.1871 L33.5875,57.2608 C24.0731,57.2608 15.4437,63.0137 11.7559,71.8644 C8.06815,80.715 10.1333,90.8195 16.845,97.605 L111.252,192.012 L111.326,191.938"/>
</g>

<g fill="#ffffff" fill-opacity="1" stroke="none" transform="matrix(1,0,0,1,56,6)"
font-family="Inter" font-size="11" font-weight="700" font-style="normal" 
>
</g>

<g fill="#ffffff" fill-opacity="1" stroke="#6c25f1" stroke-opacity="1" stroke-width="1" stroke-linecap="square" stroke-linejoin="bevel" transform="matrix(1,0,0,1,0,0)"
font-family="Inter" font-size="11" font-weight="700" font-style="normal" 
>
</g>

<g fill="#ffffff" fill-opacity="1" stroke="#6c25f1" stroke-opacity="1" stroke-width="1" stroke-linecap="square" stroke-linejoin="bevel" transform="matrix(1,0,0,1,0,0)"
font-family="Inter" font-size="11" font-weight="700" font-style="normal" 
>
</g>

<g fill="#ffffff" fill-opacity="1" stroke="#6012f0" stroke-opacity="1" stroke-width="1.2" stroke-linecap="square" stroke-linejoin="bevel" transform="matrix(1,0,0,1,356,7)"
font-family="Inter" font-size="11" font-weight="700" font-style="normal" 
>
<path vector-effect="none" fill-rule="evenodd" d="M1,11 C1,5.47715 5.92487,1 12,1 L14.4,1 C20.4751,1 25.4,5.47715 25.4,11 C25.4,16.5228 20.4751,21 14.4,21 L12,21 C5.92487,21 1,16.5228 1,11 "/>
</g>

<g fill="#000000" fill-opacity="1" stroke="none" transform="matrix(1,0,0,1,356,7)"
font-family="Inter" font-size="10" font-weight="700" font-style="normal" 
>
<path vector-effect="none" fill-rule="nonzero" d="M0,0"/>
</g>

<g fill="#000000" fill-opacity="1" stroke="none" transform="matrix(1,0,0,1,362,11.9531)"
font-family="Inter" font-size="10" font-weight="700" font-style="normal" 
>
</g>

<g fill="#000000" fill-opacity="1" stroke="none" transform="matrix(1,0,0,1,362,11.9531)"
font-family="Inter" font-size="10" font-weight="700" font-style="normal" 
>
</g>

<g fill="#000000" fill-opacity="1" stroke="none" transform="matrix(1,0,0,1,356,7)"
font-family="Inter" font-size="10" font-weight="700" font-style="normal" 
>
</g>

<g fill="#ffffff" fill-opacity="1" stroke="#6c25f1" stroke-opacity="1" stroke-width="1" stroke-linecap="square" stroke-linejoin="bevel" transform="matrix(1,0,0,1,0,0)"
font-family="Inter" font-size="11" font-weight="700" font-style="normal" 
>
</g>

<g fill="none" stroke="#000000" stroke-opacity="1" stroke-width="1" stroke-linecap="square" stroke-linejoin="bevel" transform="matrix(1,0,0,1,0,0)"
font-family=".AppleSystemUIFont" font-size="13" font-weight="400" font-style="normal" 
>
</g>
</g>
</svg>
