<?xml version="1.0" encoding="UTF-8" standalone="no"?>
<svg width="26.8111mm" height="9.87778mm"
 viewBox="0 0 76 28"
 xmlns="http://www.w3.org/2000/svg" xmlns:xlink="http://www.w3.org/1999/xlink" version="1.2" baseProfile="tiny">
<title>Abstract block</title>
<desc>block_operator_not</desc>
<defs>
</defs>
<g fill="none" stroke="black" stroke-width="1" fill-rule="evenodd" stroke-linecap="square" stroke-linejoin="bevel" >

<g fill="none" stroke="#000000" stroke-opacity="1" stroke-width="1" stroke-linecap="square" stroke-linejoin="bevel" transform="matrix(1,0,0,1,0,0)"
font-family=".AppleSystemUIFont" font-size="13" font-weight="400" font-style="normal" 
>
</g>

<g fill="none" stroke="#000000" stroke-opacity="1" stroke-width="1" stroke-linecap="square" stroke-linejoin="bevel" transform="matrix(1,0,0,1,0,0)"
font-family=".AppleSystemUIFont" font-size="13" font-weight="400" font-style="normal" 
>
</g>

<g fill="#00b94d" fill-opacity="1" stroke="#007e32" stroke-opacity="1" stroke-width="1.2" stroke-linecap="square" stroke-linejoin="bevel" transform="matrix(1,0,0,1,0,0)"
font-family=".AppleSystemUIFont" font-size="13" font-weight="400" font-style="normal" 
>
<path vector-effect="none" fill-rule="evenodd" d="M0,14 L14,0 L61.2,0 L75.2,14 L61.2,28 L14,28 L0,14"/>
</g>

<g fill="#ffffff" fill-opacity="1" stroke="none" transform="matrix(1,0,0,1,0,0)"
font-family="Inter" font-size="11" font-weight="700" font-style="normal" 
>
<path vector-effect="none" fill-rule="nonzero" d="M13.6406,13.9844 L13.6406,17.4531 L11.9766,17.4531 L11.9766,11.4531 L13.5625,11.4531 L13.5625,12.5117 L13.6328,12.5117 C13.7656,12.1628 13.9883,11.8861 14.3008,11.6816 C14.6133,11.4772 14.9922,11.375 15.4375,11.375 C15.8542,11.375 16.2174,11.4661 16.5273,11.6484 C16.8372,11.8307 17.0781,12.0905 17.25,12.4277 C17.4219,12.765 17.5078,13.1667 17.5078,13.6328 L17.5078,17.4531 L15.8438,17.4531 L15.8438,13.9297 C15.8464,13.5625 15.7526,13.2754 15.5625,13.0684 C15.3724,12.8613 15.1107,12.7578 14.7773,12.7578 C14.5534,12.7578 14.3561,12.806 14.1855,12.9023 C14.015,12.9987 13.8822,13.1387 13.7871,13.3223 C13.6921,13.5059 13.6432,13.7266 13.6406,13.9844 M21.5156,17.5703 C20.9089,17.5703 20.3848,17.4408 19.9434,17.1816 C19.502,16.9225 19.1615,16.5605 18.9219,16.0957 C18.6823,15.6309 18.5625,15.0911 18.5625,14.4766 C18.5625,13.8568 18.6823,13.3145 18.9219,12.8496 C19.1615,12.3848 19.502,12.0228 19.9434,11.7637 C20.3848,11.5046 20.9089,11.375 21.5156,11.375 C22.1224,11.375 22.6465,11.5046 23.0879,11.7637 C23.5293,12.0228 23.8698,12.3848 24.1094,12.8496 C24.349,13.3145 24.4688,13.8568 24.4688,14.4766 C24.4688,15.0911 24.349,15.6309 24.1094,16.0957 C23.8698,16.5605 23.5293,16.9225 23.0879,17.1816 C22.6465,17.4408 22.1224,17.5703 21.5156,17.5703 M21.5234,16.2813 C21.7995,16.2813 22.0299,16.2025 22.2148,16.0449 C22.3997,15.8874 22.5397,15.6719 22.6348,15.3984 C22.7298,15.125 22.7773,14.8138 22.7773,14.4648 C22.7773,14.1159 22.7298,13.8047 22.6348,13.5313 C22.5397,13.2578 22.3997,13.0417 22.2148,12.8828 C22.0299,12.724 21.7995,12.6445 21.5234,12.6445 C21.2448,12.6445 21.0111,12.724 20.8223,12.8828 C20.6335,13.0417 20.4915,13.2578 20.3965,13.5313 C20.3014,13.8047 20.2539,14.1159 20.2539,14.4648 C20.2539,14.8138 20.3014,15.125 20.3965,15.3984 C20.4915,15.6719 20.6335,15.8874 20.8223,16.0449 C21.0111,16.2025 21.2448,16.2813 21.5234,16.2813 M28.7461,11.4531 L28.7461,12.7031 L25.1328,12.7031 L25.1328,11.4531 L28.7461,11.4531 M25.9531,10.0156 L27.6172,10.0156 L27.6172,15.6094 C27.6172,15.763 27.6406,15.8822 27.6875,15.9668 C27.7344,16.0514 27.8001,16.1107 27.8848,16.1445 C27.9694,16.1784 28.0677,16.1953 28.1797,16.1953 C28.2578,16.1953 28.3359,16.1882 28.4141,16.1738 C28.4922,16.1595 28.5521,16.1484 28.5938,16.1406 L28.8555,17.3789 C28.7721,17.4049 28.6549,17.4355 28.5039,17.4707 C28.3529,17.5059 28.1693,17.5273 27.9531,17.5352 C27.5521,17.5508 27.2012,17.4974 26.9004,17.375 C26.5996,17.2526 26.3659,17.0625 26.1992,16.8047 C26.0326,16.5469 25.9505,16.2214 25.9531,15.8281 L25.9531,10.0156"/>
</g>

<g fill="#ffffff" fill-opacity="1" stroke="none" transform="matrix(1,0,0,1,0,0)"
font-family="Inter" font-size="11" font-weight="700" font-style="normal" 
>
</g>

<g fill="#007e32" fill-opacity="1" stroke="#006a2a" stroke-opacity="1" stroke-width="1.2" stroke-linecap="square" stroke-linejoin="bevel" transform="matrix(1,0,0,1,35,3)"
font-family="Inter" font-size="11" font-weight="700" font-style="normal" 
>
<path vector-effect="none" fill-rule="evenodd" d="M0,11 L11,0 L24.2,0 L35.2,11 L24.2,22 L11,22 L0,11"/>
</g>

<g fill="#ffffff" fill-opacity="1" stroke="none" transform="matrix(1,0,0,1,0,0)"
font-family="Inter" font-size="11" font-weight="700" font-style="normal" 
>
</g>

<g fill="#ffffff" fill-opacity="1" stroke="none" transform="matrix(1,0,0,1,0,0)"
font-family="Inter" font-size="11" font-weight="700" font-style="normal" 
>
</g>

<g fill="none" stroke="#000000" stroke-opacity="1" stroke-width="1" stroke-linecap="square" stroke-linejoin="bevel" transform="matrix(1,0,0,1,0,0)"
font-family=".AppleSystemUIFont" font-size="13" font-weight="400" font-style="normal" 
>
</g>
</g>
</svg>
