<?xml version="1.0" encoding="UTF-8" standalone="no"?>
<svg width="53.6222mm" height="32.4556mm"
 viewBox="0 0 152 92"
 xmlns="http://www.w3.org/2000/svg" xmlns:xlink="http://www.w3.org/1999/xlink" version="1.2" baseProfile="tiny">
<title>Abstract block</title>
<desc>block_control_repeat_until</desc>
<defs>
</defs>
<g fill="none" stroke="black" stroke-width="1" fill-rule="evenodd" stroke-linecap="square" stroke-linejoin="bevel" >

<g fill="none" stroke="#000000" stroke-opacity="1" stroke-width="1" stroke-linecap="square" stroke-linejoin="bevel" transform="matrix(1,0,0,1,0,0)"
font-family=".AppleSystemUIFont" font-size="13" font-weight="400" font-style="normal" 
>
</g>

<g fill="none" stroke="#000000" stroke-opacity="1" stroke-width="1" stroke-linecap="square" stroke-linejoin="bevel" transform="matrix(1,0,0,1,0,0)"
font-family=".AppleSystemUIFont" font-size="13" font-weight="400" font-style="normal" 
>
</g>

<g fill="#ffb515" fill-opacity="1" stroke="#d89400" stroke-opacity="1" stroke-width="1.2" stroke-linecap="square" stroke-linejoin="bevel" transform="matrix(1,0,0,1,0,0)"
font-family=".AppleSystemUIFont" font-size="13" font-weight="400" font-style="normal" 
>
<path vector-effect="none" fill-rule="evenodd" d="M0.5,4.5 L1.04612,2.48112 L2.48112,1.04612 L4.5,0.5 L9.625,0.5 L10.416,0.976563 L11.1719,1.6875 L11.998,2.67969 L13,4 L13.7559,4.66016 L14.5469,5.15625 L15.4082,5.51172 L16.375,5.75 L17.4824,5.89453 L18.7656,5.96875 L20.2598,5.99609 L22,6 L23.7402,5.99609 L25.2344,5.96875 L26.5176,5.89453 L27.625,5.75 L28.5918,5.51172 L29.4531,5.15625 L30.2441,4.66016 L31,4 L32.002,2.67969 L32.8281,1.6875 L33.584,0.976563 L34.375,0.5 L146.7,0.5 L148.719,1.04612 L150.154,2.48112 L150.7,4.5 L150.7,33.625 L150.607,33.9259 L149.126,35.4074 L147.2,36 L52,36 L50.0137,36.0078 L48.4844,36.0625 L47.3066,36.2109 L46.375,36.5 L45.584,36.9766 L44.8281,37.6875 L44.002,38.6797 L43,40 L42.2441,40.6602 L41.4531,41.1563 L40.5918,41.5117 L39.625,41.75 L38.5176,41.8945 L37.2344,41.9688 L35.7402,41.9961 L34,42 L32.2598,41.9961 L30.7656,41.9688 L29.4824,41.8945 L28.375,41.75 L27.4082,41.5117 L26.5469,41.1563 L25.7559,40.6602 L25,40 L23.998,38.6797 L23.1719,37.6875 L22.416,36.9766 L21.625,36.5 L20.6934,36.2109 L19.5156,36.0625 L17.9863,36.0078 L16,36 L13.9811,36.5461 L12.5461,37.9811 L12,40 L12,52 L12.5461,54.0189 L13.9811,55.4539 L16,56 L22.4409,56 L23.1719,56.6875 L23.998,57.6797 L25,59 L25.7559,59.6602 L26.5469,60.1563 L27.4082,60.5117 L28.375,60.75 L29.4824,60.8945 L30.7656,60.9688 L32.2598,60.9961 L34,61 L35.7402,60.9961 L37.2344,60.9688 L38.5176,60.8945 L39.625,60.75 L40.5918,60.5117 L41.4531,60.1563 L42.2441,59.6602 L43,59 L44.002,57.6797 L44.8281,56.6875 L45.5591,56 L147.2,56 L149.126,56.5926 L150.607,58.0741 L150.7,58.375 L150.7,79.5 L150.154,81.5189 L148.719,82.9539 L146.7,83.5 L34.375,83.5 L33.584,83.9766 L32.8281,84.6875 L32.002,85.6797 L31,87 L30.2441,87.6602 L29.4531,88.1563 L28.5918,88.5117 L27.625,88.75 L26.5176,88.8945 L25.2344,88.9688 L23.7402,88.9961 L22,89 L20.2598,88.9961 L18.7656,88.9688 L17.4824,88.8945 L16.375,88.75 L15.4082,88.5117 L14.5469,88.1563 L13.7559,87.6602 L13,87 L11.998,85.6797 L11.1719,84.6875 L10.416,83.9766 L9.625,83.5 L4.5,83.5 L2.48112,82.9539 L1.04612,81.5189 L0.5,79.5 L0.5,4.5"/>
</g>

<g fill="#ffffff" fill-opacity="1" stroke="none" transform="matrix(1,0,0,1,0,0)"
font-family="Inter" font-size="11" font-weight="700" font-style="normal" 
>
<path vector-effect="none" fill-rule="nonzero" d="M12.0078,21.0625 L12.0078,15.0625 L13.6211,15.0625 L13.6211,16.1094 L13.6836,16.1094 C13.793,15.737 13.9766,15.4551 14.2344,15.2637 C14.4922,15.0723 14.7891,14.9766 15.125,14.9766 C15.2083,14.9766 15.2982,14.9818 15.3945,14.9922 C15.4909,15.0026 15.5755,15.0169 15.6484,15.0352 L15.6484,16.5117 C15.5703,16.4883 15.4622,16.4674 15.3242,16.4492 C15.1862,16.431 15.0599,16.4219 14.9453,16.4219 C14.7005,16.4219 14.4824,16.4746 14.291,16.5801 C14.0996,16.6855 13.9486,16.832 13.8379,17.0195 C13.7272,17.207 13.6719,17.4232 13.6719,17.668 L13.6719,21.0625 L12.0078,21.0625 M18.9453,21.1797 C18.3281,21.1797 17.7975,21.054 17.3535,20.8027 C16.9095,20.5514 16.5677,20.1947 16.3281,19.7324 C16.0885,19.2702 15.9688,18.7227 15.9688,18.0898 C15.9688,17.4727 16.0885,16.931 16.3281,16.4648 C16.5677,15.9987 16.9056,15.6354 17.3418,15.375 C17.778,15.1146 18.2904,14.9844 18.8789,14.9844 C19.2747,14.9844 19.6439,15.0475 19.9863,15.1738 C20.3288,15.3001 20.6283,15.4896 20.8848,15.7422 C21.1413,15.9948 21.3411,16.3118 21.4844,16.6934 C21.6276,17.0749 21.6992,17.5208 21.6992,18.0313 L21.6992,18.4883 L16.6328,18.4883 L16.6328,17.457 L20.1328,17.457 C20.1328,17.2174 20.0807,17.0052 19.9766,16.8203 C19.8724,16.6354 19.7285,16.4902 19.5449,16.3848 C19.3613,16.2793 19.1484,16.2266 18.9063,16.2266 C18.6536,16.2266 18.4303,16.2845 18.2363,16.4004 C18.0423,16.5163 17.8906,16.6712 17.7813,16.8652 C17.6719,17.0592 17.6159,17.2747 17.6133,17.5117 L17.6133,18.4922 C17.6133,18.7891 17.6686,19.0456 17.7793,19.2617 C17.89,19.4779 18.0469,19.6445 18.25,19.7617 C18.4531,19.8789 18.694,19.9375 18.9727,19.9375 C19.1576,19.9375 19.3268,19.9115 19.4805,19.8594 C19.6341,19.8073 19.7656,19.7292 19.875,19.625 C19.9844,19.5208 20.0677,19.3932 20.125,19.2422 L21.6641,19.3438 C21.5859,19.7135 21.4264,20.0358 21.1855,20.3105 C20.9447,20.5853 20.6348,20.7988 20.2559,20.9512 C19.877,21.1035 19.4401,21.1797 18.9453,21.1797 M22.7734,23.3125 L22.7734,15.0625 L24.4141,15.0625 L24.4141,16.0703 L24.4883,16.0703 C24.5612,15.9089 24.6673,15.7441 24.8066,15.5762 C24.946,15.4082 25.1283,15.2676 25.3535,15.1543 C25.5788,15.041 25.8594,14.9844 26.1953,14.9844 C26.6328,14.9844 27.0365,15.0983 27.4063,15.3262 C27.776,15.554 28.0716,15.8965 28.293,16.3535 C28.5143,16.8105 28.625,17.3828 28.625,18.0703 C28.625,18.7396 28.5176,19.304 28.3027,19.7637 C28.0879,20.2233 27.7962,20.571 27.4277,20.8066 C27.0592,21.0423 26.6471,21.1602 26.1914,21.1602 C25.8685,21.1602 25.5944,21.1068 25.3691,21 C25.1439,20.8932 24.9596,20.7585 24.8164,20.5957 C24.6732,20.4329 24.5638,20.2682 24.4883,20.1016 L24.4375,20.1016 L24.4375,23.3125 L22.7734,23.3125 M24.4023,18.0625 C24.4023,18.4193 24.4518,18.7305 24.5508,18.9961 C24.6497,19.2617 24.793,19.4681 24.9805,19.6152 C25.168,19.7624 25.3958,19.8359 25.6641,19.8359 C25.9349,19.8359 26.1641,19.7611 26.3516,19.6113 C26.5391,19.4616 26.6816,19.2533 26.7793,18.9863 C26.877,18.7194 26.9258,18.4115 26.9258,18.0625 C26.9258,17.7161 26.8776,17.4115 26.7813,17.1484 C26.6849,16.8854 26.543,16.6797 26.3555,16.5313 C26.168,16.3828 25.9375,16.3086 25.6641,16.3086 C25.3932,16.3086 25.1647,16.3802 24.9785,16.5234 C24.7923,16.6667 24.6497,16.8698 24.5508,17.1328 C24.4518,17.3958 24.4023,17.7057 24.4023,18.0625 M32.4609,21.1797 C31.8438,21.1797 31.3132,21.054 30.8691,20.8027 C30.4251,20.5514 30.0833,20.1947 29.8438,19.7324 C29.6042,19.2702 29.4844,18.7227 29.4844,18.0898 C29.4844,17.4727 29.6042,16.931 29.8438,16.4648 C30.0833,15.9987 30.4212,15.6354 30.8574,15.375 C31.2936,15.1146 31.806,14.9844 32.3945,14.9844 C32.7904,14.9844 33.1595,15.0475 33.502,15.1738 C33.8444,15.3001 34.1439,15.4896 34.4004,15.7422 C34.6569,15.9948 34.8568,16.3118 35,16.6934 C35.1432,17.0749 35.2148,17.5208 35.2148,18.0313 L35.2148,18.4883 L30.1484,18.4883 L30.1484,17.457 L33.6484,17.457 C33.6484,17.2174 33.5964,17.0052 33.4922,16.8203 C33.388,16.6354 33.2441,16.4902 33.0605,16.3848 C32.877,16.2793 32.6641,16.2266 32.4219,16.2266 C32.1693,16.2266 31.946,16.2845 31.752,16.4004 C31.5579,16.5163 31.4063,16.6712 31.2969,16.8652 C31.1875,17.0592 31.1315,17.2747 31.1289,17.5117 L31.1289,18.4922 C31.1289,18.7891 31.1842,19.0456 31.2949,19.2617 C31.4056,19.4779 31.5625,19.6445 31.7656,19.7617 C31.9688,19.8789 32.2096,19.9375 32.4883,19.9375 C32.6732,19.9375 32.8424,19.9115 32.9961,19.8594 C33.1497,19.8073 33.2813,19.7292 33.3906,19.625 C33.5,19.5208 33.5833,19.3932 33.6406,19.2422 L35.1797,19.3438 C35.1016,19.7135 34.9421,20.0358 34.7012,20.3105 C34.4603,20.5853 34.1504,20.7988 33.7715,20.9512 C33.3926,21.1035 32.9557,21.1797 32.4609,21.1797 M38,21.1758 C37.6172,21.1758 37.276,21.1087 36.9766,20.9746 C36.6771,20.8405 36.4408,20.6413 36.2676,20.377 C36.0944,20.1126 36.0078,19.7826 36.0078,19.3867 C36.0078,19.0534 36.069,18.7734 36.1914,18.5469 C36.3138,18.3203 36.4805,18.138 36.6914,18 C36.9023,17.862 37.1426,17.7578 37.4121,17.6875 C37.6816,17.6172 37.9648,17.5677 38.2617,17.5391 C38.6107,17.5026 38.8919,17.4681 39.1055,17.4355 C39.319,17.403 39.474,17.3542 39.5703,17.2891 C39.6667,17.224 39.7148,17.1276 39.7148,17 L39.7148,16.9766 C39.7148,16.7292 39.6374,16.5378 39.4824,16.4023 C39.3275,16.2669 39.1081,16.1992 38.8242,16.1992 C38.5247,16.1992 38.2865,16.265 38.1094,16.3965 C37.9323,16.528 37.8151,16.6927 37.7578,16.8906 L36.2188,16.7656 C36.2969,16.401 36.4505,16.0853 36.6797,15.8184 C36.9089,15.5514 37.2051,15.3457 37.5684,15.2012 C37.9316,15.0566 38.3529,14.9844 38.832,14.9844 C39.1654,14.9844 39.485,15.0234 39.791,15.1016 C40.097,15.1797 40.3691,15.3008 40.6074,15.4648 C40.8457,15.6289 41.0339,15.8392 41.1719,16.0957 C41.3099,16.3522 41.3789,16.6589 41.3789,17.0156 L41.3789,21.0625 L39.8008,21.0625 L39.8008,20.2305 L39.7539,20.2305 C39.6576,20.418 39.5286,20.5827 39.3672,20.7246 C39.2057,20.8665 39.0117,20.9772 38.7852,21.0566 C38.5586,21.1361 38.2969,21.1758 38,21.1758 M38.4766,20.0273 C38.7214,20.0273 38.9375,19.9785 39.125,19.8809 C39.3125,19.7832 39.4596,19.651 39.5664,19.4844 C39.6732,19.3177 39.7266,19.1289 39.7266,18.918 L39.7266,18.2813 C39.6745,18.3151 39.6035,18.3457 39.5137,18.373 C39.4238,18.4004 39.3229,18.4251 39.2109,18.4473 C39.099,18.4694 38.987,18.4889 38.875,18.5059 C38.763,18.5228 38.6615,18.5378 38.5703,18.5508 C38.375,18.5794 38.2044,18.625 38.0586,18.6875 C37.9128,18.75 37.7995,18.834 37.7188,18.9395 C37.638,19.0449 37.5977,19.1758 37.5977,19.332 C37.5977,19.5586 37.6803,19.7311 37.8457,19.8496 C38.0111,19.9681 38.2214,20.0273 38.4766,20.0273 M45.8555,15.0625 L45.8555,16.3125 L42.2422,16.3125 L42.2422,15.0625 L45.8555,15.0625 M43.0625,13.625 L44.7266,13.625 L44.7266,19.2188 C44.7266,19.3724 44.75,19.4915 44.7969,19.5762 C44.8438,19.6608 44.9095,19.7201 44.9941,19.7539 C45.0788,19.7878 45.1771,19.8047 45.2891,19.8047 C45.3672,19.8047 45.4453,19.7975 45.5234,19.7832 C45.6016,19.7689 45.6615,19.7578 45.7031,19.75 L45.9648,20.9883 C45.8815,21.0143 45.7643,21.0449 45.6133,21.0801 C45.4622,21.1152 45.2786,21.1367 45.0625,21.1445 C44.6615,21.1602 44.3105,21.1068 44.0098,20.9844 C43.709,20.862 43.4753,20.6719 43.3086,20.4141 C43.1419,20.1563 43.0599,19.8307 43.0625,19.4375 L43.0625,13.625 M53.3242,18.5078 L53.3242,15.0625 L54.9883,15.0625 L54.9883,21.0625 L53.3906,21.0625 L53.3906,19.9727 L53.3281,19.9727 C53.1927,20.3242 52.9681,20.6068 52.6543,20.8203 C52.3405,21.0339 51.9583,21.1406 51.5078,21.1406 C51.1068,21.1406 50.7539,21.0495 50.4492,20.8672 C50.1445,20.6849 49.9069,20.4258 49.7363,20.0898 C49.5658,19.7539 49.4792,19.3516 49.4766,18.8828 L49.4766,15.0625 L51.1406,15.0625 L51.1406,18.5859 C51.1432,18.9401 51.2383,19.2201 51.4258,19.4258 C51.6133,19.6315 51.8646,19.7344 52.1797,19.7344 C52.3802,19.7344 52.5677,19.6882 52.7422,19.5957 C52.9167,19.5033 53.0579,19.3659 53.166,19.1836 C53.2741,19.0013 53.3268,18.776 53.3242,18.5078 M57.9688,17.5938 L57.9688,21.0625 L56.3047,21.0625 L56.3047,15.0625 L57.8906,15.0625 L57.8906,16.1211 L57.9609,16.1211 C58.0938,15.7721 58.3164,15.4954 58.6289,15.291 C58.9414,15.0866 59.3203,14.9844 59.7656,14.9844 C60.1823,14.9844 60.5456,15.0755 60.8555,15.2578 C61.1654,15.4401 61.4063,15.6999 61.5781,16.0371 C61.75,16.3743 61.8359,16.776 61.8359,17.2422 L61.8359,21.0625 L60.1719,21.0625 L60.1719,17.5391 C60.1745,17.1719 60.0807,16.8848 59.8906,16.6777 C59.7005,16.4707 59.4388,16.3672 59.1055,16.3672 C58.8815,16.3672 58.6842,16.4154 58.5137,16.5117 C58.3431,16.6081 58.2103,16.748 58.1152,16.9316 C58.0202,17.1152 57.9714,17.3359 57.9688,17.5938 M66.3242,15.0625 L66.3242,16.3125 L62.7109,16.3125 L62.7109,15.0625 L66.3242,15.0625 M63.5313,13.625 L65.1953,13.625 L65.1953,19.2188 C65.1953,19.3724 65.2188,19.4915 65.2656,19.5762 C65.3125,19.6608 65.3783,19.7201 65.4629,19.7539 C65.5475,19.7878 65.6458,19.8047 65.7578,19.8047 C65.8359,19.8047 65.9141,19.7975 65.9922,19.7832 C66.0703,19.7689 66.1302,19.7578 66.1719,19.75 L66.4336,20.9883 C66.3503,21.0143 66.2331,21.0449 66.082,21.0801 C65.931,21.1152 65.7474,21.1367 65.5313,21.1445 C65.1302,21.1602 64.7793,21.1068 64.4785,20.9844 C64.1777,20.862 63.944,20.6719 63.7773,20.4141 C63.6107,20.1563 63.5286,19.8307 63.5313,19.4375 L63.5313,13.625 M67.3984,21.0625 L67.3984,15.0625 L69.0625,15.0625 L69.0625,21.0625 L67.3984,21.0625 M68.2344,14.2891 C67.987,14.2891 67.7754,14.2064 67.5996,14.041 C67.4238,13.8757 67.3359,13.6771 67.3359,13.4453 C67.3359,13.2161 67.4238,13.0189 67.5996,12.8535 C67.7754,12.6882 67.987,12.6055 68.2344,12.6055 C68.4818,12.6055 68.6934,12.6882 68.8691,12.8535 C69.0449,13.0189 69.1328,13.2161 69.1328,13.4453 C69.1328,13.6771 69.0449,13.8757 68.8691,14.041 C68.6934,14.2064 68.4818,14.2891 68.2344,14.2891 M72.0469,13.0625 L72.0469,21.0625 L70.3828,21.0625 L70.3828,13.0625 L72.0469,13.0625"/>
</g>

<g fill="#ffffff" fill-opacity="1" stroke="none" transform="matrix(0.03125,0,0,0.03125,129.2,62)"
font-family="Inter" font-size="11" font-weight="700" font-style="normal" 
>
<path vector-effect="none" fill-rule="nonzero" d="M436.924,214.274 C432.753,223.681 423.346,229.815 413.04,229.815 L360.69,229.815 L360.69,321.427 C360.69,400.932 296.235,465.387 216.73,465.387 C124.055,465.387 82.6664,398.724 74.3233,383.428 C73.1781,381.383 72.7691,379.093 72.7691,376.802 C72.7691,367.887 80.049,360.689 88.8829,360.689 C95.0176,360.689 100.661,364.206 104.833,368.705 C112.113,376.393 126.427,386.863 151.293,386.863 C194.645,386.863 229.817,351.691 229.817,308.339 L229.817,229.815 L177.468,229.815 C167.162,229.815 157.755,223.762 153.583,214.274 C149.412,204.786 151.13,193.825 158,186.136 L275.786,55.263 C280.776,49.7827 287.81,46.5926 295.254,46.5926 C302.697,46.5926 309.732,49.7009 314.721,55.263 L432.507,186.136 C439.46,193.825 441.178,204.868 436.924,214.274 "/>
</g>

<g fill="#ffffff" fill-opacity="1" stroke="none" transform="matrix(1,0,0,1,0,0)"
font-family="Inter" font-size="11" font-weight="700" font-style="normal" 
>
</g>

<g fill="#ffffff" fill-opacity="1" stroke="none" transform="matrix(1,0,0,1,0,0)"
font-family="Inter" font-size="11" font-weight="700" font-style="normal" 
>
</g>

<g fill="#ffffff" fill-opacity="1" stroke="none" transform="matrix(1,0,0,1,0,0)"
font-family="Inter" font-size="11" font-weight="700" font-style="normal" 
>
</g>

<g fill="#ffffff" fill-opacity="1" stroke="none" transform="matrix(1,0,0,1,0,0)"
font-family="Inter" font-size="11" font-weight="700" font-style="normal" 
>
</g>

<g fill="#d89400" fill-opacity="1" stroke="#c48600" stroke-opacity="1" stroke-width="1.2" stroke-linecap="square" stroke-linejoin="bevel" transform="matrix(1,0,0,1,79,7)"
font-family="Inter" font-size="11" font-weight="700" font-style="normal" 
>
<path vector-effect="none" fill-rule="evenodd" d="M0,11 L11,0 L24.2,0 L35.2,11 L24.2,22 L11,22 L0,11"/>
</g>

<g fill="#ffffff" fill-opacity="1" stroke="none" transform="matrix(1,0,0,1,0,0)"
font-family="Inter" font-size="11" font-weight="700" font-style="normal" 
>
</g>

<g fill="#ffffff" fill-opacity="1" stroke="none" transform="matrix(1,0,0,1,0,0)"
font-family="Inter" font-size="11" font-weight="700" font-style="normal" 
>
</g>

<g fill="#ffffff" fill-opacity="1" stroke="none" transform="matrix(1,0,0,1,0,0)"
font-family="Inter" font-size="11" font-weight="700" font-style="normal" 
>
</g>

<g fill="none" stroke="#000000" stroke-opacity="1" stroke-width="1" stroke-linecap="square" stroke-linejoin="bevel" transform="matrix(1,0,0,1,0,0)"
font-family=".AppleSystemUIFont" font-size="13" font-weight="400" font-style="normal" 
>
</g>
</g>
</svg>
