<?xml version="1.0" encoding="UTF-8" standalone="no"?>
<svg width="81.1389mm" height="15.5222mm"
 viewBox="0 0 230 44"
 xmlns="http://www.w3.org/2000/svg" xmlns:xlink="http://www.w3.org/1999/xlink" version="1.2" baseProfile="tiny">
<title>Abstract block</title>
<desc>block_hubs_all_light_light_turn_off</desc>
<defs>
</defs>
<g fill="none" stroke="black" stroke-width="1" fill-rule="evenodd" stroke-linecap="square" stroke-linejoin="bevel" >

<g fill="none" stroke="#000000" stroke-opacity="1" stroke-width="1" stroke-linecap="square" stroke-linejoin="bevel" transform="matrix(1,0,0,1,0,0)"
font-family=".AppleSystemUIFont" font-size="13" font-weight="400" font-style="normal" 
>
</g>

<g fill="none" stroke="#000000" stroke-opacity="1" stroke-width="1" stroke-linecap="square" stroke-linejoin="bevel" transform="matrix(1,0,0,1,0,0)"
font-family=".AppleSystemUIFont" font-size="13" font-weight="400" font-style="normal" 
>
</g>

<g fill="#935df5" fill-opacity="1" stroke="#6c25f1" stroke-opacity="1" stroke-width="1.2" stroke-linecap="square" stroke-linejoin="bevel" transform="matrix(1,0,0,1,0,0)"
font-family=".AppleSystemUIFont" font-size="13" font-weight="400" font-style="normal" 
>
<path vector-effect="none" fill-rule="evenodd" d="M0.5,4.5 L1.04612,2.48112 L2.48112,1.04612 L4.5,0.5 L9.625,0.5 L10.416,0.976563 L11.1719,1.6875 L11.998,2.67969 L13,4 L13.7559,4.66016 L14.5469,5.15625 L15.4082,5.51172 L16.375,5.75 L17.4824,5.89453 L18.7656,5.96875 L20.2598,5.99609 L22,6 L23.7402,5.99609 L25.2344,5.96875 L26.5176,5.89453 L27.625,5.75 L28.5918,5.51172 L29.4531,5.15625 L30.2441,4.66016 L31,4 L32.002,2.67969 L32.8281,1.6875 L33.584,0.976563 L34.375,0.5 L225.5,0.5 L227.519,1.04612 L228.954,2.48112 L229.5,4.5 L229.5,31.5 L228.954,33.5189 L227.519,34.9539 L225.5,35.5 L34.375,35.5 L33.584,35.9766 L32.8281,36.6875 L32.002,37.6797 L31,39 L30.2441,39.6602 L29.4531,40.1563 L28.5918,40.5117 L27.625,40.75 L26.5176,40.8945 L25.2344,40.9688 L23.7402,40.9961 L22,41 L20.2598,40.9961 L18.7656,40.9688 L17.4824,40.8945 L16.375,40.75 L15.4082,40.5117 L14.5469,40.1563 L13.7559,39.6602 L13,39 L11.998,37.6797 L11.1719,36.6875 L10.416,35.9766 L9.625,35.5 L4.5,35.5 L2.48112,34.9539 L1.04612,33.5189 L0.5,31.5 L0.5,4.5"/>
</g>

<g fill="#ffffff" fill-opacity="1" stroke="none" transform="matrix(1,0,0,1,0,0)"
font-family="Inter" font-size="11" font-weight="700" font-style="normal" 
>
<path vector-effect="none" fill-rule="nonzero" d="M184.746,15.9219 L184.746,17.1719 L181.133,17.1719 L181.133,15.9219 L184.746,15.9219 M181.953,14.4844 L183.617,14.4844 L183.617,20.0781 C183.617,20.2318 183.641,20.3509 183.688,20.4355 C183.734,20.5202 183.8,20.5794 183.885,20.6133 C183.969,20.6471 184.068,20.6641 184.18,20.6641 C184.258,20.6641 184.336,20.6569 184.414,20.6426 C184.492,20.6283 184.552,20.6172 184.594,20.6094 L184.855,21.8477 C184.772,21.8737 184.655,21.9043 184.504,21.9395 C184.353,21.9746 184.169,21.9961 183.953,22.0039 C183.552,22.0195 183.201,21.9661 182.9,21.8438 C182.6,21.7214 182.366,21.5313 182.199,21.2734 C182.033,21.0156 181.951,20.6901 181.953,20.2969 L181.953,14.4844 M189.668,19.3672 L189.668,15.9219 L191.332,15.9219 L191.332,21.9219 L189.734,21.9219 L189.734,20.832 L189.672,20.832 C189.536,21.1836 189.312,21.4661 188.998,21.6797 C188.684,21.8932 188.302,22 187.852,22 C187.451,22 187.098,21.9089 186.793,21.7266 C186.488,21.5443 186.251,21.2852 186.08,20.9492 C185.91,20.6133 185.823,20.2109 185.82,19.7422 L185.82,15.9219 L187.484,15.9219 L187.484,19.4453 C187.487,19.7995 187.582,20.0794 187.77,20.2852 C187.957,20.4909 188.208,20.5938 188.523,20.5938 C188.724,20.5938 188.911,20.5475 189.086,20.4551 C189.26,20.3626 189.402,20.2253 189.51,20.043 C189.618,19.8607 189.671,19.6354 189.668,19.3672 M192.648,21.9219 L192.648,15.9219 L194.262,15.9219 L194.262,16.9688 L194.324,16.9688 C194.434,16.5964 194.617,16.3145 194.875,16.123 C195.133,15.9316 195.43,15.8359 195.766,15.8359 C195.849,15.8359 195.939,15.8411 196.035,15.8516 C196.132,15.862 196.216,15.8763 196.289,15.8945 L196.289,17.3711 C196.211,17.3477 196.103,17.3268 195.965,17.3086 C195.827,17.2904 195.701,17.2813 195.586,17.2813 C195.341,17.2813 195.123,17.334 194.932,17.4395 C194.74,17.5449 194.589,17.6914 194.479,17.8789 C194.368,18.0664 194.313,18.2826 194.313,18.5273 L194.313,21.9219 L192.648,21.9219 M198.797,18.4531 L198.797,21.9219 L197.133,21.9219 L197.133,15.9219 L198.719,15.9219 L198.719,16.9805 L198.789,16.9805 C198.922,16.6315 199.145,16.3548 199.457,16.1504 C199.77,15.946 200.148,15.8438 200.594,15.8438 C201.01,15.8438 201.374,15.9349 201.684,16.1172 C201.993,16.2995 202.234,16.5592 202.406,16.8965 C202.578,17.2337 202.664,17.6354 202.664,18.1016 L202.664,21.9219 L201,21.9219 L201,18.3984 C201.003,18.0313 200.909,17.7441 200.719,17.5371 C200.529,17.3301 200.267,17.2266 199.934,17.2266 C199.71,17.2266 199.512,17.2747 199.342,17.3711 C199.171,17.4674 199.038,17.6074 198.943,17.791 C198.848,17.9746 198.799,18.1953 198.797,18.4531 M209.219,22.0391 C208.612,22.0391 208.088,21.9095 207.646,21.6504 C207.205,21.3913 206.865,21.0293 206.625,20.5645 C206.385,20.0996 206.266,19.5599 206.266,18.9453 C206.266,18.3255 206.385,17.7832 206.625,17.3184 C206.865,16.8535 207.205,16.4915 207.646,16.2324 C208.088,15.9733 208.612,15.8438 209.219,15.8438 C209.826,15.8438 210.35,15.9733 210.791,16.2324 C211.232,16.4915 211.573,16.8535 211.813,17.3184 C212.052,17.7832 212.172,18.3255 212.172,18.9453 C212.172,19.5599 212.052,20.0996 211.813,20.5645 C211.573,21.0293 211.232,21.3913 210.791,21.6504 C210.35,21.9095 209.826,22.0391 209.219,22.0391 M209.227,20.75 C209.503,20.75 209.733,20.6712 209.918,20.5137 C210.103,20.3561 210.243,20.1406 210.338,19.8672 C210.433,19.5938 210.48,19.2826 210.48,18.9336 C210.48,18.5846 210.433,18.2734 210.338,18 C210.243,17.7266 210.103,17.5104 209.918,17.3516 C209.733,17.1927 209.503,17.1133 209.227,17.1133 C208.948,17.1133 208.714,17.1927 208.525,17.3516 C208.337,17.5104 208.195,17.7266 208.1,18 C208.005,18.2734 207.957,18.5846 207.957,18.9336 C207.957,19.2826 208.005,19.5938 208.1,19.8672 C208.195,20.1406 208.337,20.3561 208.525,20.5137 C208.714,20.6712 208.948,20.75 209.227,20.75 M216.484,15.9219 L216.484,17.1719 L212.781,17.1719 L212.781,15.9219 L216.484,15.9219 M213.629,21.9219 L213.629,15.4883 C213.629,15.0534 213.714,14.6927 213.885,14.4063 C214.055,14.1198 214.289,13.9049 214.586,13.7617 C214.883,13.6185 215.22,13.5469 215.598,13.5469 C215.853,13.5469 216.087,13.5664 216.299,13.6055 C216.511,13.6445 216.669,13.6797 216.773,13.7109 L216.477,14.9609 C216.411,14.9401 216.331,14.9206 216.236,14.9023 C216.141,14.8841 216.044,14.875 215.945,14.875 C215.701,14.875 215.53,14.9316 215.434,15.0449 C215.337,15.1582 215.289,15.3164 215.289,15.5195 L215.289,21.9219 L213.629,21.9219 M220.719,15.9219 L220.719,17.1719 L217.016,17.1719 L217.016,15.9219 L220.719,15.9219 M217.863,21.9219 L217.863,15.4883 C217.863,15.0534 217.949,14.6927 218.119,14.4063 C218.29,14.1198 218.523,13.9049 218.82,13.7617 C219.117,13.6185 219.454,13.5469 219.832,13.5469 C220.087,13.5469 220.321,13.5664 220.533,13.6055 C220.745,13.6445 220.904,13.6797 221.008,13.7109 L220.711,14.9609 C220.646,14.9401 220.566,14.9206 220.471,14.9023 C220.376,14.8841 220.279,14.875 220.18,14.875 C219.935,14.875 219.764,14.9316 219.668,15.0449 C219.572,15.1582 219.523,15.3164 219.523,15.5195 L219.523,21.9219 L217.863,21.9219"/>
</g>

<g fill="#ffffff" fill-opacity="1" stroke="none" transform="matrix(0.228,-7.67731e-18,7.92758e-18,0.228,11.7918,12.0469)"
font-family="Inter" font-size="11" font-weight="700" font-style="normal" 
>
<path vector-effect="none" fill-rule="nonzero" d="M55.6962,3.31253 C52.8269,0.443215 48.03,0.619992 45.1607,3.4893 L23.7008,24.9492 L12.8344,14.0828 C11.6712,12.9196 9.79845,12.9196 8.63527,14.0828 C7.47208,15.246 7.47208,17.1187 8.63527,18.2819 L19.5017,29.1483 L17.2725,31.3776 C14.4032,34.2469 14.4032,38.8669 17.2725,41.7363 L38.1887,62.6525 C41.058,65.5218 45.6781,65.5218 48.5474,62.6525 L67.877,43.3229 L76.676,52.1219 C78.908,54.3539 82.502,54.3541 84.734,52.1221 L90.5632,46.2929 C92.7952,44.0609 92.795,40.4669 90.563,38.2349 L63.7763,11.4482 C58.8376,6.50951 72.3242,19.9405 55.6962,3.31253 "/>
</g>

<g fill="none" stroke="#000000" stroke-opacity="1" stroke-width="2.48707" stroke-linecap="round" stroke-linejoin="round" transform="matrix(0.228,-7.67731e-18,7.92758e-18,0.228,11.7918,12.0469)"
font-family="Inter" font-size="11" font-weight="700" font-style="normal" 
>
<path vector-effect="none" fill-rule="nonzero" d="M55.6962,3.31253 C52.8269,0.443215 48.03,0.619992 45.1607,3.4893 L23.7008,24.9492 L12.8344,14.0828 C11.6712,12.9196 9.79845,12.9196 8.63527,14.0828 C7.47208,15.246 7.47208,17.1187 8.63527,18.2819 L19.5017,29.1483 L17.2725,31.3776 C14.4032,34.2469 14.4032,38.8669 17.2725,41.7363 L38.1887,62.6525 C41.058,65.5218 45.6781,65.5218 48.5474,62.6525 L67.877,43.3229 L76.676,52.1219 C78.908,54.3539 82.502,54.3541 84.734,52.1221 L90.5632,46.2929 C92.7952,44.0609 92.795,40.4669 90.563,38.2349 L63.7763,11.4482 C58.8376,6.50951 72.3242,19.9405 55.6962,3.31253 "/>
</g>

<g fill="#ffffff" fill-opacity="1" stroke="none" transform="matrix(0.228,-7.67731e-18,7.92758e-18,0.228,11.7918,12.0469)"
font-family="Inter" font-size="11" font-weight="700" font-style="normal" 
>
<path vector-effect="none" fill-rule="nonzero" d="M55.6962,20.2936 C52.8269,17.4243 48.03,17.6011 45.1607,20.4704 L23.7008,41.9303 L12.8344,31.0639 C11.6712,29.9007 9.79845,29.9007 8.63527,31.0639 C7.47208,32.2271 7.47208,34.0999 8.63527,35.263 L19.5017,46.1294 L17.2725,48.3587 C14.4032,51.228 14.4032,55.8481 17.2725,58.7174 L34.4387,75.8836 C37.308,78.7529 41.9281,78.7529 44.7974,75.8836 L64.127,56.554 L76.676,69.103 C78.908,71.335 82.502,71.3352 84.734,69.1032 L90.5632,63.274 C92.7952,61.042 92.795,57.4481 90.563,55.216 L63.7763,28.4293 C58.8376,23.4906 72.3242,36.9216 55.6962,20.2936 "/>
</g>

<g fill="none" stroke="#000000" stroke-opacity="1" stroke-width="2.48707" stroke-linecap="round" stroke-linejoin="round" transform="matrix(0.228,-7.67731e-18,7.92758e-18,0.228,11.7918,12.0469)"
font-family="Inter" font-size="11" font-weight="700" font-style="normal" 
>
<path vector-effect="none" fill-rule="nonzero" d="M55.6962,20.2936 C52.8269,17.4243 48.03,17.6011 45.1607,20.4704 L23.7008,41.9303 L12.8344,31.0639 C11.6712,29.9007 9.79845,29.9007 8.63527,31.0639 C7.47208,32.2271 7.47208,34.0999 8.63527,35.263 L19.5017,46.1294 L17.2725,48.3587 C14.4032,51.228 14.4032,55.8481 17.2725,58.7174 L34.4387,75.8836 C37.308,78.7529 41.9281,78.7529 44.7974,75.8836 L64.127,56.554 L76.676,69.103 C78.908,71.335 82.502,71.3352 84.734,69.1032 L90.5632,63.274 C92.7952,61.042 92.795,57.4481 90.563,55.216 L63.7763,28.4293 C58.8376,23.4906 72.3242,36.9216 55.6962,20.2936 "/>
</g>

<g fill="#ffffff" fill-opacity="1" stroke="none" transform="matrix(0.16122,0.16122,-0.16122,0.16122,23.1918,5.38905)"
font-family="Inter" font-size="11" font-weight="700" font-style="normal" 
>
<path vector-effect="none" fill-rule="nonzero" d="M38.3937,72.5061 L54.0542,72.2967 C56.8301,72.2596 59.0645,70.0053 59.077,67.2292 L59.1686,46.8953 C59.1819,43.9458 61.5682,41.5573 64.5177,41.5413 L84.6595,41.432"/>
</g>

<g fill="none" stroke="#000000" stroke-opacity="1" stroke-width="3.576" stroke-linecap="round" stroke-linejoin="round" transform="matrix(0.16122,0.16122,-0.16122,0.16122,23.1918,5.38905)"
font-family="Inter" font-size="11" font-weight="700" font-style="normal" 
>
<path vector-effect="none" fill-rule="nonzero" d="M38.3937,72.5061 L54.0542,72.2967 C56.8301,72.2596 59.0645,70.0053 59.077,67.2292 L59.1686,46.8953 C59.1819,43.9458 61.5682,41.5573 64.5177,41.5413 L84.6595,41.432"/>
</g>

<g fill="#ffffff" fill-opacity="1" stroke="none" transform="matrix(1,0,0,1,0,0)"
font-family="Inter" font-size="11" font-weight="700" font-style="normal" 
>
</g>

<g fill="#ffffff" fill-opacity="1" stroke="#6c25f1" stroke-opacity="1" stroke-width="1" stroke-linecap="square" stroke-linejoin="bevel" transform="matrix(1,0,0,1,0,0)"
font-family="Inter" font-size="11" font-weight="700" font-style="normal" 
>
<polyline fill="none" vector-effect="none" points="45,11 45,31 " />
</g>

<g fill="#ffffff" fill-opacity="1" stroke="#6c25f1" stroke-opacity="1" stroke-width="1" stroke-linecap="square" stroke-linejoin="bevel" transform="matrix(1,0,0,1,0,0)"
font-family="Inter" font-size="11" font-weight="700" font-style="normal" 
>
</g>

<g fill="#ffffff" fill-opacity="1" stroke="#6c25f1" stroke-opacity="1" stroke-width="1" stroke-linecap="square" stroke-linejoin="bevel" transform="matrix(1,0,0,1,0,0)"
font-family="Inter" font-size="11" font-weight="700" font-style="normal" 
>
</g>

<g fill="#ffffff" fill-opacity="1" stroke="#6c25f1" stroke-opacity="1" stroke-width="1" stroke-linecap="square" stroke-linejoin="bevel" transform="matrix(1,0,0,1,0,0)"
font-family="Inter" font-size="11" font-weight="700" font-style="normal" 
>
</g>

<g fill="#935df5" fill-opacity="1" stroke="#6c25f1" stroke-opacity="1" stroke-width="1.2" stroke-linecap="square" stroke-linejoin="bevel" transform="matrix(1,0,0,1,56,6)"
font-family="Inter" font-size="11" font-weight="700" font-style="normal" 
>
<path vector-effect="none" fill-rule="evenodd" d="M0.5,3.5 C0.5,1.84315 1.84315,0.5 3.5,0.5 L71.5,0.5 C73.1569,0.5 74.5,1.84315 74.5,3.5 L74.5,20.5 C74.5,22.1569 73.1569,23.5 71.5,23.5 L3.5,23.5 C1.84315,23.5 0.5,22.1569 0.5,20.5 L0.5,3.5"/>
</g>

<g fill="#ffffff" fill-opacity="1" stroke="none" transform="matrix(1,0,0,1,56,6)"
font-family="Inter" font-size="11" font-weight="700" font-style="normal" 
>
<path vector-effect="none" fill-rule="nonzero" d="M10,9.39453 L10,8 L16.5703,8 L16.5703,9.39453 L14.1211,9.39453 L14.1211,16 L12.4492,16 L12.4492,9.39453 L10,9.39453 M17.6484,16 L17.6484,8 L19.3398,8 L19.3398,11.3008 L22.7734,11.3008 L22.7734,8 L24.4609,8 L24.4609,16 L22.7734,16 L22.7734,12.6953 L19.3398,12.6953 L19.3398,16 L17.6484,16 M32.543,8 L32.543,16 L31.082,16 L27.6016,10.9648 L27.543,10.9648 L27.543,16 L25.8516,16 L25.8516,8 L27.3359,8 L30.7891,13.0313 L30.8594,13.0313 L30.8594,8 L32.543,8 M33.9297,16 L33.9297,8 L35.6211,8 L35.6211,11.3008 L39.0547,11.3008 L39.0547,8 L40.7422,8 L40.7422,16 L39.0547,16 L39.0547,12.6953 L35.6211,12.6953 L35.6211,16 L33.9297,16 M42.1328,16 L42.1328,8 L45.3359,8 C45.9245,8 46.4154,8.08724 46.8086,8.26172 C47.2018,8.4362 47.4974,8.67773 47.6953,8.98633 C47.8932,9.29492 47.9922,9.64974 47.9922,10.0508 C47.9922,10.3633 47.9297,10.6374 47.8047,10.873 C47.6797,11.1087 47.5085,11.3014 47.291,11.4512 C47.0736,11.6009 46.8255,11.707 46.5469,11.7695 L46.5469,11.8477 C46.8516,11.8607 47.1374,11.9466 47.4043,12.1055 C47.6712,12.2643 47.888,12.4863 48.0547,12.7715 C48.2214,13.0566 48.3047,13.3958 48.3047,13.7891 C48.3047,14.2135 48.1999,14.5918 47.9902,14.9238 C47.7806,15.2559 47.4714,15.5182 47.0625,15.7109 C46.6536,15.9036 46.1497,16 45.5508,16 L42.1328,16 M43.8242,14.6172 L45.2031,14.6172 C45.6745,14.6172 46.0182,14.5267 46.2344,14.3457 C46.4505,14.1647 46.5586,13.9232 46.5586,13.6211 C46.5586,13.3997 46.5052,13.2044 46.3984,13.0352 C46.2917,12.8659 46.14,12.7331 45.9434,12.6367 C45.7467,12.5404 45.513,12.4922 45.2422,12.4922 L43.8242,12.4922 L43.8242,14.6172 M43.8242,11.3477 L45.0781,11.3477 C45.3099,11.3477 45.5163,11.3066 45.6973,11.2246 C45.8783,11.1426 46.0215,11.026 46.127,10.875 C46.2324,10.724 46.2852,10.543 46.2852,10.332 C46.2852,10.043 46.1829,9.8099 45.9785,9.63281 C45.7741,9.45573 45.4844,9.36719 45.1094,9.36719 L43.8242,9.36719 L43.8242,11.3477 M52.832,8 L52.832,16 L51.1406,16 L51.1406,9.60547 L51.0938,9.60547 L49.2617,10.7539 L49.2617,9.25391 L51.2422,8 L52.832,8"/>
</g>

<g fill="#ffffff" fill-opacity="1" stroke="none" transform="matrix(0.03125,0,0,0.03125,117,14)"
font-family="Inter" font-size="11" font-weight="700" font-style="normal" 
>
<path vector-effect="none" fill-rule="nonzero" d="M111.326,191.938 C120.545,201.158 135.517,201.158 144.737,191.938 L239.144,97.5313 C245.929,90.7458 247.921,80.6413 244.233,71.7907 C240.545,62.9401 231.989,57.1871 222.401,57.1871 L33.5875,57.2608 C24.0731,57.2608 15.4437,63.0137 11.7559,71.8644 C8.06815,80.715 10.1333,90.8195 16.845,97.605 L111.252,192.012 L111.326,191.938"/>
</g>

<g fill="none" stroke="#000000" stroke-opacity="1" stroke-width="13.7195" stroke-linecap="butt" stroke-linejoin="miter" stroke-miterlimit="4" transform="matrix(0.03125,0,0,0.03125,117,14)"
font-family="Inter" font-size="11" font-weight="700" font-style="normal" 
>
<path vector-effect="none" fill-rule="nonzero" d="M111.326,191.938 C120.545,201.158 135.517,201.158 144.737,191.938 L239.144,97.5313 C245.929,90.7458 247.921,80.6413 244.233,71.7907 C240.545,62.9401 231.989,57.1871 222.401,57.1871 L33.5875,57.2608 C24.0731,57.2608 15.4437,63.0137 11.7559,71.8644 C8.06815,80.715 10.1333,90.8195 16.845,97.605 L111.252,192.012 L111.326,191.938"/>
</g>

<g fill="#ffffff" fill-opacity="1" stroke="none" transform="matrix(1,0,0,1,56,6)"
font-family="Inter" font-size="11" font-weight="700" font-style="normal" 
>
</g>

<g fill="#ffffff" fill-opacity="1" stroke="#6c25f1" stroke-opacity="1" stroke-width="1" stroke-linecap="square" stroke-linejoin="bevel" transform="matrix(1,0,0,1,0,0)"
font-family="Inter" font-size="11" font-weight="700" font-style="normal" 
>
</g>

<g fill="#6c25f1" fill-opacity="1" stroke="#6c25f1" stroke-opacity="1" stroke-width="1.2" stroke-linecap="square" stroke-linejoin="bevel" transform="matrix(1,0,0,1,135,6)"
font-family="Inter" font-size="11" font-weight="700" font-style="normal" 
>
<path vector-effect="none" fill-rule="evenodd" d="M0.5,12 C0.5,5.64873 5.87258,0.5 12.5,0.5 L27.5,0.5 C34.1274,0.5 39.5,5.64873 39.5,12 C39.5,18.3513 34.1274,23.5 27.5,23.5 L12.5,23.5 C5.87258,23.5 0.5,18.3513 0.5,12 "/>
</g>

<g fill="#ffffff" fill-opacity="1" stroke="none" transform="matrix(1,0,0,1,135,6)"
font-family="Inter" font-size="11" font-weight="700" font-style="normal" 
>
<path vector-effect="none" fill-rule="nonzero" d="M11.8242,16 L10.0117,16 L12.7734,8 L14.9531,8 L17.7109,16 L15.8984,16 L13.8945,9.82813 L13.832,9.82813 L11.8242,16 M11.7109,12.8555 L15.9922,12.8555 L15.9922,14.1758 L11.7109,14.1758 L11.7109,12.8555"/>
</g>

<g fill="#ffffff" fill-opacity="1" stroke="none" transform="matrix(0.03125,0,0,0.03125,161,14)"
font-family="Inter" font-size="11" font-weight="700" font-style="normal" 
>
<path vector-effect="none" fill-rule="nonzero" d="M111.326,191.938 C120.545,201.158 135.517,201.158 144.737,191.938 L239.144,97.5313 C245.929,90.7458 247.921,80.6413 244.233,71.7907 C240.545,62.9401 231.989,57.1871 222.401,57.1871 L33.5875,57.2608 C24.0731,57.2608 15.4437,63.0137 11.7559,71.8644 C8.06815,80.715 10.1333,90.8195 16.845,97.605 L111.252,192.012 L111.326,191.938"/>
</g>

<g fill="none" stroke="#000000" stroke-opacity="1" stroke-width="13.7195" stroke-linecap="butt" stroke-linejoin="miter" stroke-miterlimit="4" transform="matrix(0.03125,0,0,0.03125,161,14)"
font-family="Inter" font-size="11" font-weight="700" font-style="normal" 
>
<path vector-effect="none" fill-rule="nonzero" d="M111.326,191.938 C120.545,201.158 135.517,201.158 144.737,191.938 L239.144,97.5313 C245.929,90.7458 247.921,80.6413 244.233,71.7907 C240.545,62.9401 231.989,57.1871 222.401,57.1871 L33.5875,57.2608 C24.0731,57.2608 15.4437,63.0137 11.7559,71.8644 C8.06815,80.715 10.1333,90.8195 16.845,97.605 L111.252,192.012 L111.326,191.938"/>
</g>

<g fill="#ffffff" fill-opacity="1" stroke="none" transform="matrix(1,0,0,1,135,6)"
font-family="Inter" font-size="11" font-weight="700" font-style="normal" 
>
</g>

<g fill="#ffffff" fill-opacity="1" stroke="#6c25f1" stroke-opacity="1" stroke-width="1" stroke-linecap="square" stroke-linejoin="bevel" transform="matrix(1,0,0,1,0,0)"
font-family="Inter" font-size="11" font-weight="700" font-style="normal" 
>
</g>

<g fill="none" stroke="#000000" stroke-opacity="1" stroke-width="1" stroke-linecap="square" stroke-linejoin="bevel" transform="matrix(1,0,0,1,0,0)"
font-family=".AppleSystemUIFont" font-size="13" font-weight="400" font-style="normal" 
>
</g>
</g>
</svg>
