<?xml version="1.0" encoding="UTF-8" standalone="no"?>
<svg width="90.6639mm" height="15.5222mm"
 viewBox="0 0 257 44"
 xmlns="http://www.w3.org/2000/svg" xmlns:xlink="http://www.w3.org/1999/xlink" version="1.2" baseProfile="tiny">
<title>Abstract block</title>
<desc>block_lists_replace_at</desc>
<defs>
</defs>
<g fill="none" stroke="black" stroke-width="1" fill-rule="evenodd" stroke-linecap="square" stroke-linejoin="bevel" >

<g fill="none" stroke="#000000" stroke-opacity="1" stroke-width="1" stroke-linecap="square" stroke-linejoin="bevel" transform="matrix(1,0,0,1,0,0)"
font-family=".AppleSystemUIFont" font-size="13" font-weight="400" font-style="normal" 
>
</g>

<g fill="none" stroke="#000000" stroke-opacity="1" stroke-width="1" stroke-linecap="square" stroke-linejoin="bevel" transform="matrix(1,0,0,1,0,0)"
font-family=".AppleSystemUIFont" font-size="13" font-weight="400" font-style="normal" 
>
</g>

<g fill="#ff661a" fill-opacity="1" stroke="#de4600" stroke-opacity="1" stroke-width="1.2" stroke-linecap="square" stroke-linejoin="bevel" transform="matrix(1,0,0,1,0,0)"
font-family=".AppleSystemUIFont" font-size="13" font-weight="400" font-style="normal" 
>
<path vector-effect="none" fill-rule="evenodd" d="M0.5,4.5 L1.04612,2.48112 L2.48112,1.04612 L4.5,0.5 L9.625,0.5 L10.416,0.976563 L11.1719,1.6875 L11.998,2.67969 L13,4 L13.7559,4.66016 L14.5469,5.15625 L15.4082,5.51172 L16.375,5.75 L17.4824,5.89453 L18.7656,5.96875 L20.2598,5.99609 L22,6 L23.7402,5.99609 L25.2344,5.96875 L26.5176,5.89453 L27.625,5.75 L28.5918,5.51172 L29.4531,5.15625 L30.2441,4.66016 L31,4 L32.002,2.67969 L32.8281,1.6875 L33.584,0.976563 L34.375,0.5 L252.009,0.5 L254.028,1.04612 L255.463,2.48112 L256.009,4.5 L256.009,31.5 L255.463,33.5189 L254.028,34.9539 L252.009,35.5 L34.375,35.5 L33.584,35.9766 L32.8281,36.6875 L32.002,37.6797 L31,39 L30.2441,39.6602 L29.4531,40.1563 L28.5918,40.5117 L27.625,40.75 L26.5176,40.8945 L25.2344,40.9688 L23.7402,40.9961 L22,41 L20.2598,40.9961 L18.7656,40.9688 L17.4824,40.8945 L16.375,40.75 L15.4082,40.5117 L14.5469,40.1563 L13.7559,39.6602 L13,39 L11.998,37.6797 L11.1719,36.6875 L10.416,35.9766 L9.625,35.5 L4.5,35.5 L2.48112,34.9539 L1.04612,33.5189 L0.5,31.5 L0.5,4.5"/>
</g>

<g fill="#ffffff" fill-opacity="1" stroke="none" transform="matrix(1,0,0,1,0,0)"
font-family="Inter" font-size="11" font-weight="700" font-style="normal" 
>
<path vector-effect="none" fill-rule="nonzero" d="M11.9766,21.0625 L11.9766,15.0625 L13.5898,15.0625 L13.5898,16.1094 L13.6523,16.1094 C13.7617,15.737 13.9453,15.4551 14.2031,15.2637 C14.4609,15.0723 14.7578,14.9766 15.0938,14.9766 C15.1771,14.9766 15.2669,14.9818 15.3633,14.9922 C15.4596,15.0026 15.5443,15.0169 15.6172,15.0352 L15.6172,16.5117 C15.5391,16.4883 15.431,16.4674 15.293,16.4492 C15.1549,16.431 15.0286,16.4219 14.9141,16.4219 C14.6693,16.4219 14.4512,16.4746 14.2598,16.5801 C14.0684,16.6855 13.9173,16.832 13.8066,17.0195 C13.696,17.207 13.6406,17.4232 13.6406,17.668 L13.6406,21.0625 L11.9766,21.0625 M18.9141,21.1797 C18.2969,21.1797 17.7663,21.054 17.3223,20.8027 C16.8783,20.5514 16.5365,20.1947 16.2969,19.7324 C16.0573,19.2702 15.9375,18.7227 15.9375,18.0898 C15.9375,17.4727 16.0573,16.931 16.2969,16.4648 C16.5365,15.9987 16.8743,15.6354 17.3105,15.375 C17.7467,15.1146 18.2591,14.9844 18.8477,14.9844 C19.2435,14.9844 19.6126,15.0475 19.9551,15.1738 C20.2975,15.3001 20.597,15.4896 20.8535,15.7422 C21.11,15.9948 21.3099,16.3118 21.4531,16.6934 C21.5964,17.0749 21.668,17.5208 21.668,18.0313 L21.668,18.4883 L16.6016,18.4883 L16.6016,17.457 L20.1016,17.457 C20.1016,17.2174 20.0495,17.0052 19.9453,16.8203 C19.8411,16.6354 19.6973,16.4902 19.5137,16.3848 C19.3301,16.2793 19.1172,16.2266 18.875,16.2266 C18.6224,16.2266 18.3991,16.2845 18.2051,16.4004 C18.0111,16.5163 17.8594,16.6712 17.75,16.8652 C17.6406,17.0592 17.5846,17.2747 17.582,17.5117 L17.582,18.4922 C17.582,18.7891 17.6374,19.0456 17.748,19.2617 C17.8587,19.4779 18.0156,19.6445 18.2188,19.7617 C18.4219,19.8789 18.6628,19.9375 18.9414,19.9375 C19.1263,19.9375 19.2956,19.9115 19.4492,19.8594 C19.6029,19.8073 19.7344,19.7292 19.8438,19.625 C19.9531,19.5208 20.0365,19.3932 20.0938,19.2422 L21.6328,19.3438 C21.5547,19.7135 21.3952,20.0358 21.1543,20.3105 C20.9134,20.5853 20.6035,20.7988 20.2246,20.9512 C19.8457,21.1035 19.4089,21.1797 18.9141,21.1797 M22.7422,23.3125 L22.7422,15.0625 L24.3828,15.0625 L24.3828,16.0703 L24.457,16.0703 C24.5299,15.9089 24.6361,15.7441 24.7754,15.5762 C24.9147,15.4082 25.097,15.2676 25.3223,15.1543 C25.5475,15.041 25.8281,14.9844 26.1641,14.9844 C26.6016,14.9844 27.0052,15.0983 27.375,15.3262 C27.7448,15.554 28.0404,15.8965 28.2617,16.3535 C28.4831,16.8105 28.5938,17.3828 28.5938,18.0703 C28.5938,18.7396 28.4863,19.304 28.2715,19.7637 C28.0566,20.2233 27.765,20.571 27.3965,20.8066 C27.028,21.0423 26.6159,21.1602 26.1602,21.1602 C25.8372,21.1602 25.5632,21.1068 25.3379,21 C25.1126,20.8932 24.9284,20.7585 24.7852,20.5957 C24.6419,20.4329 24.5326,20.2682 24.457,20.1016 L24.4063,20.1016 L24.4063,23.3125 L22.7422,23.3125 M24.3711,18.0625 C24.3711,18.4193 24.4206,18.7305 24.5195,18.9961 C24.6185,19.2617 24.7617,19.4681 24.9492,19.6152 C25.1367,19.7624 25.3646,19.8359 25.6328,19.8359 C25.9036,19.8359 26.1328,19.7611 26.3203,19.6113 C26.5078,19.4616 26.6504,19.2533 26.748,18.9863 C26.8457,18.7194 26.8945,18.4115 26.8945,18.0625 C26.8945,17.7161 26.8464,17.4115 26.75,17.1484 C26.6536,16.8854 26.5117,16.6797 26.3242,16.5313 C26.1367,16.3828 25.9063,16.3086 25.6328,16.3086 C25.362,16.3086 25.1335,16.3802 24.9473,16.5234 C24.7611,16.6667 24.6185,16.8698 24.5195,17.1328 C24.4206,17.3958 24.3711,17.7057 24.3711,18.0625 M31.3594,13.0625 L31.3594,21.0625 L29.6953,21.0625 L29.6953,13.0625 L31.3594,13.0625 M34.3906,21.1758 C34.0078,21.1758 33.6667,21.1087 33.3672,20.9746 C33.0677,20.8405 32.8314,20.6413 32.6582,20.377 C32.485,20.1126 32.3984,19.7826 32.3984,19.3867 C32.3984,19.0534 32.4596,18.7734 32.582,18.5469 C32.7044,18.3203 32.8711,18.138 33.082,18 C33.293,17.862 33.5332,17.7578 33.8027,17.6875 C34.0723,17.6172 34.3555,17.5677 34.6523,17.5391 C35.0013,17.5026 35.2826,17.4681 35.4961,17.4355 C35.7096,17.403 35.8646,17.3542 35.9609,17.2891 C36.0573,17.224 36.1055,17.1276 36.1055,17 L36.1055,16.9766 C36.1055,16.7292 36.028,16.5378 35.873,16.4023 C35.7181,16.2669 35.4987,16.1992 35.2148,16.1992 C34.9154,16.1992 34.6771,16.265 34.5,16.3965 C34.3229,16.528 34.2057,16.6927 34.1484,16.8906 L32.6094,16.7656 C32.6875,16.401 32.8411,16.0853 33.0703,15.8184 C33.2995,15.5514 33.5957,15.3457 33.959,15.2012 C34.3223,15.0566 34.7435,14.9844 35.2227,14.9844 C35.556,14.9844 35.8757,15.0234 36.1816,15.1016 C36.4876,15.1797 36.7598,15.3008 36.998,15.4648 C37.2363,15.6289 37.4245,15.8392 37.5625,16.0957 C37.7005,16.3522 37.7695,16.6589 37.7695,17.0156 L37.7695,21.0625 L36.1914,21.0625 L36.1914,20.2305 L36.1445,20.2305 C36.0482,20.418 35.9193,20.5827 35.7578,20.7246 C35.5964,20.8665 35.4023,20.9772 35.1758,21.0566 C34.9492,21.1361 34.6875,21.1758 34.3906,21.1758 M34.8672,20.0273 C35.112,20.0273 35.3281,19.9785 35.5156,19.8809 C35.7031,19.7832 35.8503,19.651 35.957,19.4844 C36.0638,19.3177 36.1172,19.1289 36.1172,18.918 L36.1172,18.2813 C36.0651,18.3151 35.9941,18.3457 35.9043,18.373 C35.8145,18.4004 35.7135,18.4251 35.6016,18.4473 C35.4896,18.4694 35.3776,18.4889 35.2656,18.5059 C35.1536,18.5228 35.0521,18.5378 34.9609,18.5508 C34.7656,18.5794 34.5951,18.625 34.4492,18.6875 C34.3034,18.75 34.1901,18.834 34.1094,18.9395 C34.0286,19.0449 33.9883,19.1758 33.9883,19.332 C33.9883,19.5586 34.071,19.7311 34.2363,19.8496 C34.4017,19.9681 34.612,20.0273 34.8672,20.0273 M41.7656,21.1797 C41.151,21.1797 40.623,21.0488 40.1816,20.7871 C39.7402,20.5254 39.4017,20.1615 39.166,19.6953 C38.9303,19.2292 38.8125,18.6927 38.8125,18.0859 C38.8125,17.4714 38.9316,16.9316 39.1699,16.4668 C39.4082,16.002 39.7474,15.6387 40.1875,15.377 C40.6276,15.1152 41.151,14.9844 41.7578,14.9844 C42.2813,14.9844 42.7396,15.0794 43.1328,15.2695 C43.526,15.4596 43.8372,15.7266 44.0664,16.0703 C44.2956,16.4141 44.4219,16.8177 44.4453,17.2813 L42.875,17.2813 C42.8307,16.9818 42.7142,16.7402 42.5254,16.5566 C42.3366,16.373 42.0898,16.2813 41.7852,16.2813 C41.5273,16.2813 41.3027,16.3509 41.1113,16.4902 C40.9199,16.6296 40.7708,16.832 40.6641,17.0977 C40.5573,17.3633 40.5039,17.6849 40.5039,18.0625 C40.5039,18.4453 40.5566,18.7708 40.6621,19.0391 C40.7676,19.3073 40.9167,19.5117 41.1094,19.6523 C41.3021,19.793 41.5273,19.8633 41.7852,19.8633 C41.9753,19.8633 42.1465,19.8242 42.2988,19.7461 C42.4512,19.668 42.5775,19.554 42.6777,19.4043 C42.778,19.2546 42.8438,19.0742 42.875,18.8633 L44.4453,18.8633 C44.4193,19.3216 44.2949,19.7246 44.0723,20.0723 C43.8496,20.4199 43.543,20.6914 43.1523,20.8867 C42.7617,21.082 42.2995,21.1797 41.7656,21.1797 M48.2422,21.1797 C47.625,21.1797 47.0944,21.054 46.6504,20.8027 C46.2064,20.5514 45.8646,20.1947 45.625,19.7324 C45.3854,19.2702 45.2656,18.7227 45.2656,18.0898 C45.2656,17.4727 45.3854,16.931 45.625,16.4648 C45.8646,15.9987 46.2025,15.6354 46.6387,15.375 C47.0749,15.1146 47.5872,14.9844 48.1758,14.9844 C48.5716,14.9844 48.9408,15.0475 49.2832,15.1738 C49.6257,15.3001 49.9251,15.4896 50.1816,15.7422 C50.4382,15.9948 50.638,16.3118 50.7813,16.6934 C50.9245,17.0749 50.9961,17.5208 50.9961,18.0313 L50.9961,18.4883 L45.9297,18.4883 L45.9297,17.457 L49.4297,17.457 C49.4297,17.2174 49.3776,17.0052 49.2734,16.8203 C49.1693,16.6354 49.0254,16.4902 48.8418,16.3848 C48.6582,16.2793 48.4453,16.2266 48.2031,16.2266 C47.9505,16.2266 47.7272,16.2845 47.5332,16.4004 C47.3392,16.5163 47.1875,16.6712 47.0781,16.8652 C46.9688,17.0592 46.9128,17.2747 46.9102,17.5117 L46.9102,18.4922 C46.9102,18.7891 46.9655,19.0456 47.0762,19.2617 C47.1868,19.4779 47.3438,19.6445 47.5469,19.7617 C47.75,19.8789 47.9909,19.9375 48.2695,19.9375 C48.4544,19.9375 48.6237,19.9115 48.7773,19.8594 C48.931,19.8073 49.0625,19.7292 49.1719,19.625 C49.2813,19.5208 49.3646,19.3932 49.4219,19.2422 L50.9609,19.3438 C50.8828,19.7135 50.7233,20.0358 50.4824,20.3105 C50.2415,20.5853 49.9316,20.7988 49.5527,20.9512 C49.1738,21.1035 48.737,21.1797 48.2422,21.1797 M54.6172,21.0625 L54.6172,15.0625 L56.2813,15.0625 L56.2813,21.0625 L54.6172,21.0625 M55.4531,14.2891 C55.2057,14.2891 54.9941,14.2064 54.8184,14.041 C54.6426,13.8757 54.5547,13.6771 54.5547,13.4453 C54.5547,13.2161 54.6426,13.0189 54.8184,12.8535 C54.9941,12.6882 55.2057,12.6055 55.4531,12.6055 C55.7005,12.6055 55.9121,12.6882 56.0879,12.8535 C56.2637,13.0189 56.3516,13.2161 56.3516,13.4453 C56.3516,13.6771 56.2637,13.8757 56.0879,14.041 C55.9121,14.2064 55.7005,14.2891 55.4531,14.2891 M60.793,15.0625 L60.793,16.3125 L57.1797,16.3125 L57.1797,15.0625 L60.793,15.0625 M58,13.625 L59.6641,13.625 L59.6641,19.2188 C59.6641,19.3724 59.6875,19.4915 59.7344,19.5762 C59.7813,19.6608 59.847,19.7201 59.9316,19.7539 C60.0163,19.7878 60.1146,19.8047 60.2266,19.8047 C60.3047,19.8047 60.3828,19.7975 60.4609,19.7832 C60.5391,19.7689 60.599,19.7578 60.6406,19.75 L60.9023,20.9883 C60.819,21.0143 60.7018,21.0449 60.5508,21.0801 C60.3997,21.1152 60.2161,21.1367 60,21.1445 C59.599,21.1602 59.248,21.1068 58.9473,20.9844 C58.6465,20.862 58.4128,20.6719 58.2461,20.4141 C58.0794,20.1563 57.9974,19.8307 58,19.4375 L58,13.625 M64.5391,21.1797 C63.9219,21.1797 63.3913,21.054 62.9473,20.8027 C62.5033,20.5514 62.1615,20.1947 61.9219,19.7324 C61.6823,19.2702 61.5625,18.7227 61.5625,18.0898 C61.5625,17.4727 61.6823,16.931 61.9219,16.4648 C62.1615,15.9987 62.4993,15.6354 62.9355,15.375 C63.3717,15.1146 63.8841,14.9844 64.4727,14.9844 C64.8685,14.9844 65.2376,15.0475 65.5801,15.1738 C65.9225,15.3001 66.222,15.4896 66.4785,15.7422 C66.735,15.9948 66.9349,16.3118 67.0781,16.6934 C67.2214,17.0749 67.293,17.5208 67.293,18.0313 L67.293,18.4883 L62.2266,18.4883 L62.2266,17.457 L65.7266,17.457 C65.7266,17.2174 65.6745,17.0052 65.5703,16.8203 C65.4661,16.6354 65.3223,16.4902 65.1387,16.3848 C64.9551,16.2793 64.7422,16.2266 64.5,16.2266 C64.2474,16.2266 64.0241,16.2845 63.8301,16.4004 C63.6361,16.5163 63.4844,16.6712 63.375,16.8652 C63.2656,17.0592 63.2096,17.2747 63.207,17.5117 L63.207,18.4922 C63.207,18.7891 63.2624,19.0456 63.373,19.2617 C63.4837,19.4779 63.6406,19.6445 63.8438,19.7617 C64.0469,19.8789 64.2878,19.9375 64.5664,19.9375 C64.7513,19.9375 64.9206,19.9115 65.0742,19.8594 C65.2279,19.8073 65.3594,19.7292 65.4688,19.625 C65.5781,19.5208 65.6615,19.3932 65.7188,19.2422 L67.2578,19.3438 C67.1797,19.7135 67.0202,20.0358 66.7793,20.3105 C66.5384,20.5853 66.2285,20.7988 65.8496,20.9512 C65.4707,21.1035 65.0339,21.1797 64.5391,21.1797 M68.3672,21.0625 L68.3672,15.0625 L69.9531,15.0625 L69.9531,16.1211 L70.0234,16.1211 C70.1484,15.7695 70.3568,15.4922 70.6484,15.2891 C70.9401,15.0859 71.2891,14.9844 71.6953,14.9844 C72.1068,14.9844 72.457,15.0866 72.7461,15.291 C73.0352,15.4954 73.2279,15.7721 73.3242,16.1211 L73.3867,16.1211 C73.5091,15.7773 73.7311,15.502 74.0527,15.2949 C74.3743,15.0879 74.7552,14.9844 75.1953,14.9844 C75.7552,14.9844 76.2103,15.1621 76.5605,15.5176 C76.9108,15.873 77.0859,16.3763 77.0859,17.0273 L77.0859,21.0625 L75.4258,21.0625 L75.4258,17.3555 C75.4258,17.0221 75.3372,16.7721 75.1602,16.6055 C74.9831,16.4388 74.7617,16.3555 74.4961,16.3555 C74.194,16.3555 73.9583,16.4512 73.7891,16.6426 C73.6198,16.834 73.5352,17.0859 73.5352,17.3984 L73.5352,21.0625 L71.9219,21.0625 L71.9219,17.3203 C71.9219,17.026 71.8379,16.7917 71.6699,16.6172 C71.502,16.4427 71.2813,16.3555 71.0078,16.3555 C70.8229,16.3555 70.6569,16.4017 70.5098,16.4941 C70.3626,16.5866 70.2461,16.7155 70.1602,16.8809 C70.0742,17.0462 70.0313,17.2396 70.0313,17.4609 L70.0313,21.0625 L68.3672,21.0625"/>
</g>

<g fill="#ffffff" fill-opacity="1" stroke="none" transform="matrix(1,0,0,1,0,0)"
font-family="Inter" font-size="11" font-weight="700" font-style="normal" 
>
<path vector-effect="none" fill-rule="nonzero" d="M119.563,22.1172 C118.956,22.1172 118.432,21.9876 117.99,21.7285 C117.549,21.4694 117.208,21.1074 116.969,20.6426 C116.729,20.1777 116.609,19.638 116.609,19.0234 C116.609,18.4036 116.729,17.8613 116.969,17.3965 C117.208,16.9316 117.549,16.5697 117.99,16.3105 C118.432,16.0514 118.956,15.9219 119.563,15.9219 C120.169,15.9219 120.693,16.0514 121.135,16.3105 C121.576,16.5697 121.917,16.9316 122.156,17.3965 C122.396,17.8613 122.516,18.4036 122.516,19.0234 C122.516,19.638 122.396,20.1777 122.156,20.6426 C121.917,21.1074 121.576,21.4694 121.135,21.7285 C120.693,21.9876 120.169,22.1172 119.563,22.1172 M119.57,20.8281 C119.846,20.8281 120.077,20.7493 120.262,20.5918 C120.447,20.4342 120.587,20.2188 120.682,19.9453 C120.777,19.6719 120.824,19.3607 120.824,19.0117 C120.824,18.6628 120.777,18.3516 120.682,18.0781 C120.587,17.8047 120.447,17.5885 120.262,17.4297 C120.077,17.2708 119.846,17.1914 119.57,17.1914 C119.292,17.1914 119.058,17.2708 118.869,17.4297 C118.68,17.5885 118.538,17.8047 118.443,18.0781 C118.348,18.3516 118.301,18.6628 118.301,19.0117 C118.301,19.3607 118.348,19.6719 118.443,19.9453 C118.538,20.2188 118.68,20.4342 118.869,20.5918 C119.058,20.7493 119.292,20.8281 119.57,20.8281 M126.828,16 L126.828,17.25 L123.125,17.25 L123.125,16 L126.828,16 M123.973,22 L123.973,15.5664 C123.973,15.1315 124.058,14.7708 124.229,14.4844 C124.399,14.1979 124.633,13.9831 124.93,13.8398 C125.227,13.6966 125.564,13.625 125.941,13.625 C126.197,13.625 126.43,13.6445 126.643,13.6836 C126.855,13.7227 127.013,13.7578 127.117,13.7891 L126.82,15.0391 C126.755,15.0182 126.675,14.9987 126.58,14.9805 C126.485,14.9622 126.388,14.9531 126.289,14.9531 C126.044,14.9531 125.874,15.0098 125.777,15.123 C125.681,15.2363 125.633,15.3945 125.633,15.5977 L125.633,22 L123.973,22"/>
</g>

<g fill="#ffffff" fill-opacity="1" stroke="none" transform="matrix(1,0,0,1,0,0)"
font-family="Inter" font-size="11" font-weight="700" font-style="normal" 
>
<path vector-effect="none" fill-rule="nonzero" d="M188.363,21.9531 L186.73,15.9531 L188.414,15.9531 L189.344,19.9844 L189.398,19.9844 L190.367,15.9531 L192.02,15.9531 L193.004,19.9609 L193.055,19.9609 L193.969,15.9531 L195.648,15.9531 L194.02,21.9531 L192.258,21.9531 L191.227,18.1797 L191.152,18.1797 L190.121,21.9531 L188.363,21.9531 M196.523,21.9531 L196.523,15.9531 L198.188,15.9531 L198.188,21.9531 L196.523,21.9531 M197.359,15.1797 C197.112,15.1797 196.9,15.097 196.725,14.9316 C196.549,14.7663 196.461,14.5677 196.461,14.3359 C196.461,14.1068 196.549,13.9095 196.725,13.7441 C196.9,13.5788 197.112,13.4961 197.359,13.4961 C197.607,13.4961 197.818,13.5788 197.994,13.7441 C198.17,13.9095 198.258,14.1068 198.258,14.3359 C198.258,14.5677 198.17,14.7663 197.994,14.9316 C197.818,15.097 197.607,15.1797 197.359,15.1797 M202.699,15.9531 L202.699,17.2031 L199.086,17.2031 L199.086,15.9531 L202.699,15.9531 M199.906,14.5156 L201.57,14.5156 L201.57,20.1094 C201.57,20.263 201.594,20.3822 201.641,20.4668 C201.688,20.5514 201.753,20.6107 201.838,20.6445 C201.923,20.6784 202.021,20.6953 202.133,20.6953 C202.211,20.6953 202.289,20.6882 202.367,20.6738 C202.445,20.6595 202.505,20.6484 202.547,20.6406 L202.809,21.8789 C202.725,21.9049 202.608,21.9355 202.457,21.9707 C202.306,22.0059 202.122,22.0273 201.906,22.0352 C201.505,22.0508 201.154,21.9974 200.854,21.875 C200.553,21.7526 200.319,21.5625 200.152,21.3047 C199.986,21.0469 199.904,20.7214 199.906,20.3281 L199.906,14.5156 M205.563,18.4844 L205.563,21.9531 L203.898,21.9531 L203.898,13.9531 L205.516,13.9531 L205.516,17.0117 L205.586,17.0117 C205.721,16.6576 205.94,16.3796 206.242,16.1777 C206.544,15.9759 206.923,15.875 207.379,15.875 C207.796,15.875 208.16,15.9655 208.471,16.1465 C208.782,16.3275 209.024,16.5866 209.197,16.9238 C209.37,17.2611 209.456,17.6641 209.453,18.1328 L209.453,21.9531 L207.789,21.9531 L207.789,18.4297 C207.792,18.0599 207.699,17.7721 207.51,17.5664 C207.321,17.3607 207.057,17.2578 206.719,17.2578 C206.492,17.2578 206.292,17.306 206.119,17.4023 C205.946,17.4987 205.811,17.6387 205.713,17.8223 C205.615,18.0059 205.565,18.2266 205.563,18.4844 "/>
</g>

<g fill="#ffffff" fill-opacity="1" stroke="none" transform="matrix(1,0,0,1,0,0)"
font-family="Inter" font-size="11" font-weight="700" font-style="normal" 
>
</g>

<g fill="#ffffff" fill-opacity="1" stroke="none" transform="matrix(1,0,0,1,0,0)"
font-family="Inter" font-size="11" font-weight="700" font-style="normal" 
>
</g>

<g fill="#ffffff" fill-opacity="1" stroke="none" transform="matrix(1,0,0,1,0,0)"
font-family="Inter" font-size="11" font-weight="700" font-style="normal" 
>
</g>

<g fill="#ffffff" fill-opacity="1" stroke="none" transform="matrix(1,0,0,1,0,0)"
font-family="Inter" font-size="11" font-weight="700" font-style="normal" 
>
</g>

<g fill="#ffffff" fill-opacity="1" stroke="#ca4000" stroke-opacity="1" stroke-width="1.2" stroke-linecap="square" stroke-linejoin="bevel" transform="matrix(1,0,0,1,215.9,7)"
font-family="Inter" font-size="11" font-weight="700" font-style="normal" 
>
<path vector-effect="none" fill-rule="evenodd" d="M1,11 C1,5.47715 5.92487,1 12,1 L21.6094,1 C27.6845,1 32.6094,5.47715 32.6094,11 C32.6094,16.5228 27.6845,21 21.6094,21 L12,21 C5.92487,21 1,16.5228 1,11 "/>
</g>

<g fill="#000000" fill-opacity="1" stroke="none" transform="matrix(1,0,0,1,215.9,7)"
font-family="Inter" font-size="10" font-weight="700" font-style="normal" 
>
<path vector-effect="none" fill-rule="nonzero" d="M6.05682,14.4219 L6.05682,8.96733 L7.5696,8.96733 L7.5696,14.4219 L6.05682,14.4219 M6.81676,8.2642 C6.59186,8.2642 6.3995,8.18904 6.2397,8.03871 C6.0799,7.88838 6,7.70786 6,7.49716 C6,7.28883 6.0799,7.10949 6.2397,6.95916 C6.3995,6.80883 6.59186,6.73366 6.81676,6.73366 C7.04167,6.73366 7.23402,6.80883 7.39382,6.95916 C7.55362,7.10949 7.63352,7.28883 7.63352,7.49716 C7.63352,7.70786 7.55362,7.88838 7.39382,8.03871 C7.23402,8.18904 7.04167,8.2642 6.81676,8.2642 M11.6768,8.96733 L11.6768,10.1037 L8.39205,10.1037 L8.39205,8.96733 L11.6768,8.96733 M9.13778,7.66051 L10.6506,7.66051 L10.6506,12.7457 C10.6506,12.8854 10.6719,12.9937 10.7145,13.0707 C10.7571,13.1476 10.8169,13.2015 10.8938,13.2322 C10.9708,13.263 11.0601,13.2784 11.1619,13.2784 C11.233,13.2784 11.304,13.2719 11.375,13.2589 C11.446,13.2459 11.5005,13.2358 11.5384,13.2287 L11.7763,14.3544 C11.7005,14.3781 11.594,14.4059 11.4567,14.4379 C11.3194,14.4698 11.1525,14.4893 10.956,14.4964 C10.5914,14.5107 10.2724,14.4621 9.99893,14.3509 C9.7255,14.2396 9.51302,14.0668 9.36151,13.8324 C9.20999,13.598 9.13542,13.3021 9.13778,12.9446 L9.13778,7.66051 M15.0739,14.5284 C14.5128,14.5284 14.0304,14.4142 13.6268,14.1857 C13.2231,13.9573 12.9124,13.6329 12.6946,13.2127 C12.4768,12.7925 12.3679,12.2947 12.3679,11.7195 C12.3679,11.1584 12.4768,10.666 12.6946,10.2422 C12.9124,9.81842 13.2196,9.48816 13.6161,9.25142 C14.0127,9.01468 14.4785,8.89631 15.0135,8.89631 C15.3733,8.89631 15.7089,8.95372 16.0202,9.06854 C16.3316,9.18336 16.6038,9.35559 16.837,9.58523 C17.0702,9.81487 17.2519,10.1031 17.3821,10.4499 C17.5123,10.7968 17.5774,11.2022 17.5774,11.6662 L17.5774,12.0817 L12.9716,12.0817 L12.9716,11.1442 L16.1534,11.1442 C16.1534,10.9264 16.1061,10.7334 16.0114,10.5653 C15.9167,10.3973 15.7859,10.2653 15.619,10.1694 C15.4521,10.0735 15.2585,10.0256 15.0384,10.0256 C14.8087,10.0256 14.6057,10.0782 14.4293,10.1836 C14.253,10.2889 14.1151,10.4298 14.0156,10.6062 C13.9162,10.7826 13.8653,10.9785 13.8629,11.1939 L13.8629,12.0852 C13.8629,12.3551 13.9132,12.5883 14.0138,12.7848 C14.1145,12.9813 14.2571,13.1328 14.4418,13.2393 C14.6264,13.3459 14.8454,13.3991 15.0987,13.3991 C15.2668,13.3991 15.4207,13.3755 15.5604,13.3281 C15.7,13.2808 15.8196,13.2098 15.919,13.1151 C16.0185,13.0204 16.0942,12.9044 16.1463,12.767 L17.5455,12.8594 C17.4744,13.1955 17.3294,13.4885 17.1104,13.7383 C16.8915,13.988 16.6097,14.1822 16.2653,14.3207 C15.9208,14.4592 15.5237,14.5284 15.0739,14.5284 M18.5568,14.4219 L18.5568,8.96733 L19.9986,8.96733 L19.9986,9.92969 L20.0625,9.92969 C20.1761,9.61009 20.3655,9.35795 20.6307,9.1733 C20.8958,8.98864 21.2131,8.89631 21.5824,8.89631 C21.9564,8.89631 22.2749,8.98923 22.5376,9.17507 C22.8004,9.36091 22.9756,9.61245 23.0632,9.92969 L23.12,9.92969 C23.2313,9.61719 23.4331,9.36683 23.7255,9.17862 C24.0179,8.99041 24.3641,8.89631 24.7642,8.89631 C25.2732,8.89631 25.6869,9.05788 26.0053,9.38104 C26.3237,9.70419 26.483,10.1617 26.483,10.7536 L26.483,14.4219 L24.9737,14.4219 L24.9737,11.0518 C24.9737,10.7488 24.8932,10.5215 24.7322,10.37 C24.5713,10.2185 24.37,10.1428 24.1286,10.1428 C23.8539,10.1428 23.6397,10.2298 23.4858,10.4038 C23.3319,10.5778 23.255,10.8068 23.255,11.0909 L23.255,14.4219 L21.7884,14.4219 L21.7884,11.0199 C21.7884,10.7524 21.712,10.5393 21.5593,10.3807 C21.4066,10.2221 21.206,10.1428 20.9574,10.1428 C20.7893,10.1428 20.6384,10.1848 20.5046,10.2688 C20.3709,10.3529 20.2649,10.4701 20.1868,10.6204 C20.1087,10.7707 20.0696,10.9465 20.0696,11.1477 L20.0696,14.4219 L18.5568,14.4219"/>
</g>

<g fill="#000000" fill-opacity="1" stroke="none" transform="matrix(1,0,0,1,221.9,11.9531)"
font-family="Inter" font-size="10" font-weight="700" font-style="normal" 
>
</g>

<g fill="#000000" fill-opacity="1" stroke="none" transform="matrix(1,0,0,1,221.9,11.9531)"
font-family="Inter" font-size="10" font-weight="700" font-style="normal" 
>
</g>

<g fill="#000000" fill-opacity="1" stroke="none" transform="matrix(1,0,0,1,215.9,7)"
font-family="Inter" font-size="10" font-weight="700" font-style="normal" 
>
</g>

<g fill="#ffffff" fill-opacity="1" stroke="none" transform="matrix(1,0,0,1,0,0)"
font-family="Inter" font-size="11" font-weight="700" font-style="normal" 
>
</g>

<g fill="#ff661a" fill-opacity="1" stroke="#de4600" stroke-opacity="1" stroke-width="1.2" stroke-linecap="square" stroke-linejoin="bevel" transform="matrix(1,0,0,1,133.4,6)"
font-family="Inter" font-size="11" font-weight="700" font-style="normal" 
>
<path vector-effect="none" fill-rule="evenodd" d="M0.5,3.5 C0.5,1.84315 1.84315,0.5 3.5,0.5 L44,0.5 C45.6569,0.5 47,1.84315 47,3.5 L47,20.5 C47,22.1569 45.6569,23.5 44,23.5 L3.5,23.5 C1.84315,23.5 0.5,22.1569 0.5,20.5 L0.5,3.5"/>
</g>

<g fill="#ffffff" fill-opacity="1" stroke="none" transform="matrix(1,0,0,1,133.4,6)"
font-family="Inter" font-size="11" font-weight="700" font-style="normal" 
>
<path vector-effect="none" fill-rule="nonzero" d="M11.1719,7.95313 L11.1719,15.9531 L9.50781,15.9531 L9.50781,7.95313 L11.1719,7.95313 M12.4922,15.9531 L12.4922,9.95313 L14.1563,9.95313 L14.1563,15.9531 L12.4922,15.9531 M13.3281,9.17969 C13.0807,9.17969 12.8691,9.09701 12.6934,8.93164 C12.5176,8.76628 12.4297,8.56771 12.4297,8.33594 C12.4297,8.10677 12.5176,7.90951 12.6934,7.74414 C12.8691,7.57878 13.0807,7.49609 13.3281,7.49609 C13.5755,7.49609 13.7871,7.57878 13.9629,7.74414 C14.1387,7.90951 14.2266,8.10677 14.2266,8.33594 C14.2266,8.56771 14.1387,8.76628 13.9629,8.93164 C13.7871,9.09701 13.5755,9.17969 13.3281,9.17969 M20.4688,11.6641 L18.9453,11.7578 C18.9193,11.6276 18.8633,11.5098 18.7773,11.4043 C18.6914,11.2988 18.5788,11.2142 18.4395,11.1504 C18.3001,11.0866 18.1341,11.0547 17.9414,11.0547 C17.6836,11.0547 17.4661,11.1087 17.2891,11.2168 C17.112,11.3249 17.0234,11.4688 17.0234,11.6484 C17.0234,11.7917 17.0807,11.9128 17.1953,12.0117 C17.3099,12.1107 17.5065,12.1901 17.7852,12.25 L18.8711,12.4688 C19.4544,12.5885 19.8893,12.7813 20.1758,13.0469 C20.4622,13.3125 20.6055,13.6615 20.6055,14.0938 C20.6055,14.487 20.4902,14.832 20.2598,15.1289 C20.0293,15.4258 19.7142,15.6569 19.3145,15.8223 C18.9147,15.9876 18.4544,16.0703 17.9336,16.0703 C17.1393,16.0703 16.5072,15.9043 16.0371,15.5723 C15.5671,15.2402 15.2917,14.7878 15.2109,14.2148 L16.8477,14.1289 C16.8971,14.3711 17.0169,14.5553 17.207,14.6816 C17.3971,14.8079 17.6406,14.8711 17.9375,14.8711 C18.2292,14.8711 18.4642,14.8145 18.6426,14.7012 C18.821,14.5879 18.9115,14.4414 18.9141,14.2617 C18.9115,14.1107 18.8477,13.9863 18.7227,13.8887 C18.5977,13.791 18.4049,13.7161 18.1445,13.6641 L17.1055,13.457 C16.5195,13.3398 16.084,13.1367 15.7988,12.8477 C15.5137,12.5586 15.3711,12.1901 15.3711,11.7422 C15.3711,11.3568 15.4759,11.0247 15.6855,10.7461 C15.8952,10.4674 16.1908,10.2526 16.5723,10.1016 C16.9538,9.95052 17.401,9.875 17.9141,9.875 C18.6719,9.875 19.2689,10.0352 19.7051,10.3555 C20.1413,10.6758 20.3958,11.112 20.4688,11.6641 M24.8398,9.95313 L24.8398,11.2031 L21.2266,11.2031 L21.2266,9.95313 L24.8398,9.95313 M22.0469,8.51563 L23.7109,8.51563 L23.7109,14.1094 C23.7109,14.263 23.7344,14.3822 23.7813,14.4668 C23.8281,14.5514 23.8939,14.6107 23.9785,14.6445 C24.0632,14.6784 24.1615,14.6953 24.2734,14.6953 C24.3516,14.6953 24.4297,14.6882 24.5078,14.6738 C24.5859,14.6595 24.6458,14.6484 24.6875,14.6406 L24.9492,15.8789 C24.8659,15.9049 24.7487,15.9355 24.5977,15.9707 C24.4466,16.0059 24.263,16.0273 24.0469,16.0352 C23.6458,16.0508 23.2949,15.9974 22.9941,15.875 C22.6934,15.7526 22.4596,15.5625 22.293,15.3047 C22.1263,15.0469 22.0443,14.7214 22.0469,14.3281 L22.0469,8.51563"/>
</g>

<g fill="#ffffff" fill-opacity="1" stroke="none" transform="matrix(0.03125,0,0,0.03125,166.9,14)"
font-family="Inter" font-size="11" font-weight="700" font-style="normal" 
>
<path vector-effect="none" fill-rule="nonzero" d="M111.326,191.938 C120.545,201.158 135.517,201.158 144.737,191.938 L239.144,97.5313 C245.929,90.7458 247.921,80.6413 244.233,71.7907 C240.545,62.9401 231.989,57.1871 222.401,57.1871 L33.5875,57.2608 C24.0731,57.2608 15.4437,63.0137 11.7559,71.8644 C8.06815,80.715 10.1333,90.8195 16.845,97.605 L111.252,192.012 L111.326,191.938"/>
</g>

<g fill="none" stroke="#000000" stroke-opacity="1" stroke-width="13.7195" stroke-linecap="butt" stroke-linejoin="miter" stroke-miterlimit="4" transform="matrix(0.03125,0,0,0.03125,166.9,14)"
font-family="Inter" font-size="11" font-weight="700" font-style="normal" 
>
<path vector-effect="none" fill-rule="nonzero" d="M111.326,191.938 C120.545,201.158 135.517,201.158 144.737,191.938 L239.144,97.5313 C245.929,90.7458 247.921,80.6413 244.233,71.7907 C240.545,62.9401 231.989,57.1871 222.401,57.1871 L33.5875,57.2608 C24.0731,57.2608 15.4437,63.0137 11.7559,71.8644 C8.06815,80.715 10.1333,90.8195 16.845,97.605 L111.252,192.012 L111.326,191.938"/>
</g>

<g fill="#ffffff" fill-opacity="1" stroke="none" transform="matrix(1,0,0,1,133.4,6)"
font-family="Inter" font-size="11" font-weight="700" font-style="normal" 
>
</g>

<g fill="#ffffff" fill-opacity="1" stroke="none" transform="matrix(1,0,0,1,0,0)"
font-family="Inter" font-size="11" font-weight="700" font-style="normal" 
>
</g>

<g fill="#ffffff" fill-opacity="1" stroke="#ca4000" stroke-opacity="1" stroke-width="1.2" stroke-linecap="square" stroke-linejoin="bevel" transform="matrix(1,0,0,1,84,7)"
font-family="Inter" font-size="11" font-weight="700" font-style="normal" 
>
<path vector-effect="none" fill-rule="evenodd" d="M1,11 C1,5.47715 5.92487,1 12,1 L14.4,1 C20.4751,1 25.4,5.47715 25.4,11 C25.4,16.5228 20.4751,21 14.4,21 L12,21 C5.92487,21 1,16.5228 1,11 "/>
</g>

<g fill="#000000" fill-opacity="1" stroke="none" transform="matrix(1,0,0,1,84,7)"
font-family="Inter" font-size="10" font-weight="700" font-style="normal" 
>
<path vector-effect="none" fill-rule="nonzero" d="M14.5817,7.22727 L14.5817,14.5 L13.044,14.5 L13.044,8.68679 L13.0014,8.68679 L11.3359,9.73082 L11.3359,8.36719 L13.1364,7.22727 L14.5817,7.22727"/>
</g>

<g fill="#ffffff" fill-opacity="1" stroke="none" transform="matrix(1,0,0,1,0,0)"
font-family="Inter" font-size="11" font-weight="700" font-style="normal" 
>
</g>

<g fill="none" stroke="#000000" stroke-opacity="1" stroke-width="1" stroke-linecap="square" stroke-linejoin="bevel" transform="matrix(1,0,0,1,0,0)"
font-family=".AppleSystemUIFont" font-size="13" font-weight="400" font-style="normal" 
>
</g>
</g>
</svg>
