<?xml version="1.0" encoding="UTF-8" standalone="no"?>
<svg width="84.3139mm" height="11.2889mm"
 viewBox="0 0 239 32"
 xmlns="http://www.w3.org/2000/svg" xmlns:xlink="http://www.w3.org/1999/xlink" version="1.2" baseProfile="tiny">
<title>Abstract block</title>
<desc>block_dashboard_controller_joystick_value_float</desc>
<defs>
</defs>
<g fill="none" stroke="black" stroke-width="1" fill-rule="evenodd" stroke-linecap="square" stroke-linejoin="bevel" >

<g fill="none" stroke="#000000" stroke-opacity="1" stroke-width="1" stroke-linecap="square" stroke-linejoin="bevel" transform="matrix(1,0,0,1,0,0)"
font-family=".AppleSystemUIFont" font-size="13" font-weight="400" font-style="normal" 
>
</g>

<g fill="none" stroke="#000000" stroke-opacity="1" stroke-width="1" stroke-linecap="square" stroke-linejoin="bevel" transform="matrix(1,0,0,1,0,0)"
font-family=".AppleSystemUIFont" font-size="13" font-weight="400" font-style="normal" 
>
</g>

<g fill="#009f94" fill-opacity="1" stroke="#00645c" stroke-opacity="1" stroke-width="1.2" stroke-linecap="square" stroke-linejoin="bevel" transform="matrix(1,0,0,1,0,0)"
font-family=".AppleSystemUIFont" font-size="13" font-weight="400" font-style="normal" 
>
<path vector-effect="none" fill-rule="evenodd" d="M1,16 C1,7.71573 8.16344,1 17,1 L221.167,1 C230.003,1 237.167,7.71573 237.167,16 C237.167,24.2843 230.003,31 221.167,31 L17,31 C8.16344,31 1,24.2843 1,16 "/>
</g>

<g fill="#ffffff" fill-opacity="1" stroke="none" transform="matrix(1,0,0,1,0,0)"
font-family="Inter" font-size="11" font-weight="700" font-style="normal" 
>
<path vector-effect="none" fill-rule="nonzero" d="M52.9609,12.875 L54.625,12.875 L54.625,19.1719 C54.625,19.6354 54.5339,20.0104 54.3516,20.2969 C54.1693,20.5833 53.9082,20.793 53.5684,20.9258 C53.2285,21.0586 52.8229,21.125 52.3516,21.125 C52.2943,21.125 52.2389,21.1243 52.1855,21.123 C52.1322,21.1217 52.0755,21.1198 52.0156,21.1172 L52.0156,19.8164 C52.0599,19.819 52.0983,19.821 52.1309,19.8223 C52.1634,19.8236 52.1979,19.8242 52.2344,19.8242 C52.5026,19.8242 52.6908,19.7676 52.7988,19.6543 C52.9069,19.541 52.9609,19.3711 52.9609,19.1445 L52.9609,12.875 M53.7891,12.1016 C53.5443,12.1016 53.3333,12.0189 53.1563,11.8535 C52.9792,11.6882 52.8906,11.4896 52.8906,11.2578 C52.8906,11.0286 52.9792,10.8314 53.1563,10.666 C53.3333,10.5007 53.5443,10.418 53.7891,10.418 C54.0391,10.418 54.252,10.5007 54.4277,10.666 C54.6035,10.8314 54.6914,11.0286 54.6914,11.2578 C54.6914,11.4896 54.6035,11.6882 54.4277,11.8535 C54.252,12.0189 54.0391,12.1016 53.7891,12.1016 M58.6563,18.9922 C58.0495,18.9922 57.5254,18.8626 57.084,18.6035 C56.6426,18.3444 56.3021,17.9824 56.0625,17.5176 C55.8229,17.0527 55.7031,16.513 55.7031,15.8984 C55.7031,15.2786 55.8229,14.7363 56.0625,14.2715 C56.3021,13.8066 56.6426,13.4447 57.084,13.1855 C57.5254,12.9264 58.0495,12.7969 58.6563,12.7969 C59.263,12.7969 59.7871,12.9264 60.2285,13.1855 C60.6699,13.4447 61.0104,13.8066 61.25,14.2715 C61.4896,14.7363 61.6094,15.2786 61.6094,15.8984 C61.6094,16.513 61.4896,17.0527 61.25,17.5176 C61.0104,17.9824 60.6699,18.3444 60.2285,18.6035 C59.7871,18.8626 59.263,18.9922 58.6563,18.9922 M58.6641,17.7031 C58.9401,17.7031 59.1706,17.6243 59.3555,17.4668 C59.5404,17.3092 59.6803,17.0938 59.7754,16.8203 C59.8704,16.5469 59.918,16.2357 59.918,15.8867 C59.918,15.5378 59.8704,15.2266 59.7754,14.9531 C59.6803,14.6797 59.5404,14.4635 59.3555,14.3047 C59.1706,14.1458 58.9401,14.0664 58.6641,14.0664 C58.3854,14.0664 58.1517,14.1458 57.9629,14.3047 C57.7741,14.4635 57.6322,14.6797 57.5371,14.9531 C57.4421,15.2266 57.3945,15.5378 57.3945,15.8867 C57.3945,16.2357 57.4421,16.5469 57.5371,16.8203 C57.6322,17.0938 57.7741,17.3092 57.9629,17.4668 C58.1517,17.6243 58.3854,17.7031 58.6641,17.7031 M63.5195,21.125 C63.3086,21.125 63.1113,21.1087 62.9277,21.0762 C62.7441,21.0436 62.5924,21.0026 62.4727,20.9531 L62.8477,19.7109 C63.043,19.7708 63.2194,19.8034 63.377,19.8086 C63.5345,19.8138 63.6712,19.7773 63.7871,19.6992 C63.903,19.6211 63.9974,19.4883 64.0703,19.3008 L64.168,19.0469 L62.0156,12.875 L63.7656,12.875 L65.0078,17.2813 L65.0703,17.2813 L66.3242,12.875 L68.0859,12.875 L65.7539,19.5234 C65.6419,19.8464 65.4902,20.1283 65.2988,20.3691 C65.1074,20.61 64.8659,20.7962 64.5742,20.9277 C64.2826,21.0592 63.931,21.125 63.5195,21.125 M73.9219,14.5859 L72.3984,14.6797 C72.3724,14.5495 72.3164,14.4316 72.2305,14.3262 C72.1445,14.2207 72.0319,14.1361 71.8926,14.0723 C71.7533,14.0085 71.5872,13.9766 71.3945,13.9766 C71.1367,13.9766 70.9193,14.0306 70.7422,14.1387 C70.5651,14.2467 70.4766,14.3906 70.4766,14.5703 C70.4766,14.7135 70.5339,14.8346 70.6484,14.9336 C70.763,15.0326 70.9596,15.112 71.2383,15.1719 L72.3242,15.3906 C72.9076,15.5104 73.3424,15.7031 73.6289,15.9688 C73.9154,16.2344 74.0586,16.5833 74.0586,17.0156 C74.0586,17.4089 73.9434,17.7539 73.7129,18.0508 C73.4824,18.3477 73.1673,18.5788 72.7676,18.7441 C72.3678,18.9095 71.9076,18.9922 71.3867,18.9922 C70.5924,18.9922 69.9603,18.8262 69.4902,18.4941 C69.0202,18.1621 68.7448,17.7096 68.6641,17.1367 L70.3008,17.0508 C70.3503,17.293 70.4701,17.4772 70.6602,17.6035 C70.8503,17.7298 71.0938,17.793 71.3906,17.793 C71.6823,17.793 71.9173,17.7363 72.0957,17.623 C72.2741,17.5098 72.3646,17.3633 72.3672,17.1836 C72.3646,17.0326 72.3008,16.9082 72.1758,16.8105 C72.0508,16.7129 71.8581,16.638 71.5977,16.5859 L70.5586,16.3789 C69.9727,16.2617 69.5371,16.0586 69.252,15.7695 C68.9668,15.4805 68.8242,15.112 68.8242,14.6641 C68.8242,14.2786 68.929,13.9466 69.1387,13.668 C69.3483,13.3893 69.6439,13.1745 70.0254,13.0234 C70.4069,12.8724 70.8542,12.7969 71.3672,12.7969 C72.125,12.7969 72.722,12.957 73.1582,13.2773 C73.5944,13.5977 73.849,14.0339 73.9219,14.5859 M78.293,12.875 L78.293,14.125 L74.6797,14.125 L74.6797,12.875 L78.293,12.875 M75.5,11.4375 L77.1641,11.4375 L77.1641,17.0313 C77.1641,17.1849 77.1875,17.304 77.2344,17.3887 C77.2813,17.4733 77.347,17.5326 77.4316,17.5664 C77.5163,17.6003 77.6146,17.6172 77.7266,17.6172 C77.8047,17.6172 77.8828,17.61 77.9609,17.5957 C78.0391,17.5814 78.099,17.5703 78.1406,17.5625 L78.4023,18.8008 C78.319,18.8268 78.2018,18.8574 78.0508,18.8926 C77.8997,18.9277 77.7161,18.9492 77.5,18.957 C77.099,18.9727 76.748,18.9193 76.4473,18.7969 C76.1465,18.6745 75.9128,18.4844 75.7461,18.2266 C75.5794,17.9688 75.4974,17.6432 75.5,17.25 L75.5,11.4375 M79.3672,18.875 L79.3672,12.875 L81.0313,12.875 L81.0313,18.875 L79.3672,18.875 M80.2031,12.1016 C79.9557,12.1016 79.7441,12.0189 79.5684,11.8535 C79.3926,11.6882 79.3047,11.4896 79.3047,11.2578 C79.3047,11.0286 79.3926,10.8314 79.5684,10.666 C79.7441,10.5007 79.9557,10.418 80.2031,10.418 C80.4505,10.418 80.6621,10.5007 80.8379,10.666 C81.0137,10.8314 81.1016,11.0286 81.1016,11.2578 C81.1016,11.4896 81.0137,11.6882 80.8379,11.8535 C80.6621,12.0189 80.4505,12.1016 80.2031,12.1016 M85.0625,18.9922 C84.4479,18.9922 83.9199,18.8613 83.4785,18.5996 C83.0371,18.3379 82.6986,17.974 82.4629,17.5078 C82.2272,17.0417 82.1094,16.5052 82.1094,15.8984 C82.1094,15.2839 82.2285,14.7441 82.4668,14.2793 C82.7051,13.8145 83.0443,13.4512 83.4844,13.1895 C83.9245,12.9277 84.4479,12.7969 85.0547,12.7969 C85.5781,12.7969 86.0365,12.8919 86.4297,13.082 C86.8229,13.2721 87.1341,13.5391 87.3633,13.8828 C87.5924,14.2266 87.7188,14.6302 87.7422,15.0938 L86.1719,15.0938 C86.1276,14.7943 86.0111,14.5527 85.8223,14.3691 C85.6335,14.1855 85.3867,14.0938 85.082,14.0938 C84.8242,14.0938 84.5996,14.1634 84.4082,14.3027 C84.2168,14.4421 84.0677,14.6445 83.9609,14.9102 C83.8542,15.1758 83.8008,15.4974 83.8008,15.875 C83.8008,16.2578 83.8535,16.5833 83.959,16.8516 C84.0645,17.1198 84.2135,17.3242 84.4063,17.4648 C84.599,17.6055 84.8242,17.6758 85.082,17.6758 C85.2721,17.6758 85.4434,17.6367 85.5957,17.5586 C85.748,17.4805 85.8743,17.3665 85.9746,17.2168 C86.0749,17.0671 86.1406,16.8867 86.1719,16.6758 L87.7422,16.6758 C87.7161,17.1341 87.5918,17.5371 87.3691,17.8848 C87.1465,18.2324 86.8398,18.5039 86.4492,18.6992 C86.0586,18.8945 85.5964,18.9922 85.0625,18.9922 M90.3125,17.1484 L90.3164,15.1523 L90.5586,15.1523 L92.4805,12.875 L94.3906,12.875 L91.8086,15.8906 L91.4141,15.8906 L90.3125,17.1484 M88.8047,18.875 L88.8047,10.875 L90.4688,10.875 L90.4688,18.875 L88.8047,18.875 M92.5547,18.875 L90.7891,16.2617 L91.8984,15.0859 L94.5039,18.875 L92.5547,18.875"/>
</g>

<g fill="#ffffff" fill-opacity="1" stroke="none" transform="matrix(0.95,0,0,0.95,11.6,4.6)"
font-family="Inter" font-size="11" font-weight="700" font-style="normal" 
>
<path vector-effect="none" fill-rule="nonzero" d="M2.19896,4.65234 C1.18891,4.65234 0.375703,5.46549 0.375703,6.47555 L0.375703,8.579 C1.00152,8.60331 1.67842,9.11362 1.67842,9.74561 L1.67842,14.2544 C1.67842,14.8864 1.00152,15.3967 0.375703,15.421 L0.375703,17.5245 C0.375703,18.5345 1.18891,19.3477 2.19896,19.3477 L21.8479,19.3477 C22.858,19.3477 23.6711,18.5345 23.6711,17.5245 L23.6711,6.47555 C23.6711,5.46549 22.858,4.65234 21.8479,4.65234 L2.19896,4.65234 M6.71936,9.23098 C8.56166,9.23097 10.0552,10.7245 10.0552,12.5668 C10.0552,14.4091 8.56167,15.9026 6.71936,15.9026 C4.87705,15.9026 3.38355,14.4091 3.38355,12.5668 C3.38355,10.7245 4.87705,9.23097 6.71936,9.23098 M19.875,9.24873 C20.7082,9.24871 21.3837,9.92418 21.3837,10.7574 C21.3837,11.5906 20.7082,12.266 19.875,12.266 C19.0418,12.266 18.3664,11.5906 18.3664,10.7574 C18.3664,9.9242 19.0418,9.24874 19.875,9.24873 M17.4318,12.8825 C18.265,12.8825 18.9404,13.558 18.9404,14.3912 C18.9404,15.2243 18.2649,15.8998 17.4318,15.8998 C16.5986,15.8998 15.9231,15.2244 15.9231,14.3912 C15.9231,13.5579 16.5985,12.8825 17.4318,12.8825 "/>
</g>

<g fill="none" stroke="#000000" stroke-opacity="1" stroke-width="0.54" stroke-linecap="butt" stroke-linejoin="miter" stroke-miterlimit="4" transform="matrix(0.95,0,0,0.95,11.6,4.6)"
font-family="Inter" font-size="11" font-weight="700" font-style="normal" 
>
<path vector-effect="none" fill-rule="nonzero" d="M2.19896,4.65234 C1.18891,4.65234 0.375703,5.46549 0.375703,6.47555 L0.375703,8.579 C1.00152,8.60331 1.67842,9.11362 1.67842,9.74561 L1.67842,14.2544 C1.67842,14.8864 1.00152,15.3967 0.375703,15.421 L0.375703,17.5245 C0.375703,18.5345 1.18891,19.3477 2.19896,19.3477 L21.8479,19.3477 C22.858,19.3477 23.6711,18.5345 23.6711,17.5245 L23.6711,6.47555 C23.6711,5.46549 22.858,4.65234 21.8479,4.65234 L2.19896,4.65234 M6.71936,9.23098 C8.56166,9.23097 10.0552,10.7245 10.0552,12.5668 C10.0552,14.4091 8.56167,15.9026 6.71936,15.9026 C4.87705,15.9026 3.38355,14.4091 3.38355,12.5668 C3.38355,10.7245 4.87705,9.23097 6.71936,9.23098 M19.875,9.24873 C20.7082,9.24871 21.3837,9.92418 21.3837,10.7574 C21.3837,11.5906 20.7082,12.266 19.875,12.266 C19.0418,12.266 18.3664,11.5906 18.3664,10.7574 C18.3664,9.9242 19.0418,9.24874 19.875,9.24873 M17.4318,12.8825 C18.265,12.8825 18.9404,13.558 18.9404,14.3912 C18.9404,15.2243 18.2649,15.8998 17.4318,15.8998 C16.5986,15.8998 15.9231,15.2244 15.9231,14.3912 C15.9231,13.5579 16.5985,12.8825 17.4318,12.8825 "/>
</g>

<g fill="#000000" fill-opacity="1" stroke="none" transform="matrix(0.95,0,0,0.95,11.6,4.6)"
font-family="Inter" font-size="11" font-weight="700" font-style="normal" 
>
<path vector-effect="none" fill-rule="nonzero" d="M0.108328,15.3227 L0.103298,8.65983 L1.21825,8.7259 L1.75102,9.37791 L1.70662,12.9064 L1.66222,14.5556 L1.04066,15.0542 L0.108328,15.3227"/>
</g>

<g fill="#000000" fill-opacity="1" stroke="none" transform="matrix(0.95,0,0,0.95,11.6,4.6)"
font-family="Inter" font-size="11" font-weight="700" font-style="normal" 
>
<circle cx="6.70111" cy="12.5452" r="1.68266"/>
</g>

<g fill="none" stroke="#000000" stroke-opacity="1" stroke-width="0.54" stroke-linecap="butt" stroke-linejoin="miter" stroke-miterlimit="4" transform="matrix(0.95,0,0,0.95,11.6,4.6)"
font-family="Inter" font-size="11" font-weight="700" font-style="normal" 
>
<circle cx="6.70111" cy="12.5452" r="1.68266"/>
</g>

<g fill="#000000" fill-opacity="1" stroke="none" transform="matrix(0.95,0,0,0.95,11.6,4.6)"
font-family="Inter" font-size="11" font-weight="700" font-style="normal" 
opacity="0.858824" >
<path vector-effect="none" fill-rule="evenodd" d="M8.42109,18.1373 C8.42109,18.0846 8.46385,18.0418 8.51661,18.0418 L15.4834,18.0418 C15.5361,18.0418 15.5789,18.0846 15.5789,18.1373 L15.5789,18.1373 C15.5789,18.1901 15.5361,18.2329 15.4834,18.2329 L8.51661,18.2329 C8.46385,18.2329 8.42109,18.1901 8.42109,18.1373 L8.42109,18.1373"/>
</g>

<g fill="none" stroke="#000000" stroke-opacity="1" stroke-width="0.437534" stroke-linecap="butt" stroke-linejoin="miter" stroke-miterlimit="4" transform="matrix(0.95,0,0,0.95,11.6,4.6)"
font-family="Inter" font-size="11" font-weight="700" font-style="normal" 
>
<path vector-effect="none" fill-rule="evenodd" d="M8.42109,18.1373 C8.42109,18.0846 8.46385,18.0418 8.51661,18.0418 L15.4834,18.0418 C15.5361,18.0418 15.5789,18.0846 15.5789,18.1373 L15.5789,18.1373 C15.5789,18.1901 15.5361,18.2329 15.4834,18.2329 L8.51661,18.2329 C8.46385,18.2329 8.42109,18.1901 8.42109,18.1373 L8.42109,18.1373"/>
</g>

<g fill="#ffffff" fill-opacity="1" stroke="none" transform="matrix(1,0,0,1,0,0)"
font-family="Inter" font-size="11" font-weight="700" font-style="normal" 
>
</g>

<g fill="#ffffff" fill-opacity="1" stroke="#00645c" stroke-opacity="1" stroke-width="1" stroke-linecap="square" stroke-linejoin="bevel" transform="matrix(1,0,0,1,0,0)"
font-family="Inter" font-size="11" font-weight="700" font-style="normal" 
>
<polyline fill="none" vector-effect="none" points="45,6 45,26 " />
</g>

<g fill="#009f94" fill-opacity="1" stroke="#00645c" stroke-opacity="1" stroke-width="1.2" stroke-linecap="square" stroke-linejoin="bevel" transform="matrix(1,0,0,1,163,4)"
font-family="Inter" font-size="11" font-weight="700" font-style="normal" 
>
<path vector-effect="none" fill-rule="evenodd" d="M0.5,3.5 C0.5,1.84315 1.84315,0.5 3.5,0.5 L61,0.5 C62.6569,0.5 64,1.84315 64,3.5 L64,20.5 C64,22.1569 62.6569,23.5 61,23.5 L3.5,23.5 C1.84315,23.5 0.5,22.1569 0.5,20.5 L0.5,3.5"/>
</g>

<g fill="#ffffff" fill-opacity="1" stroke="none" transform="matrix(1,0,0,1,163,4)"
font-family="Inter" font-size="11" font-weight="700" font-style="normal" 
>
<path vector-effect="none" fill-rule="nonzero" d="M11.2891,10 L12.3906,12.0977 L13.5195,10 L15.2266,10 L13.4883,13 L15.2734,16 L13.5742,16 L12.3906,13.9258 L11.2266,16 L9.50781,16 L11.2891,13 L9.57031,10 L11.2891,10 M19.6992,12.0547 L19.6992,13.375 L16.0508,13.375 L16.0508,12.0547 L19.6992,12.0547 M22.8281,16.1133 C22.4453,16.1133 22.1042,16.0462 21.8047,15.9121 C21.5052,15.778 21.2689,15.5788 21.0957,15.3145 C20.9225,15.0501 20.8359,14.7201 20.8359,14.3242 C20.8359,13.9909 20.8971,13.7109 21.0195,13.4844 C21.1419,13.2578 21.3086,13.0755 21.5195,12.9375 C21.7305,12.7995 21.9707,12.6953 22.2402,12.625 C22.5098,12.5547 22.793,12.5052 23.0898,12.4766 C23.4388,12.4401 23.7201,12.4056 23.9336,12.373 C24.1471,12.3405 24.3021,12.2917 24.3984,12.2266 C24.4948,12.1615 24.543,12.0651 24.543,11.9375 L24.543,11.9141 C24.543,11.6667 24.4655,11.4753 24.3105,11.3398 C24.1556,11.2044 23.9362,11.1367 23.6523,11.1367 C23.3529,11.1367 23.1146,11.2025 22.9375,11.334 C22.7604,11.4655 22.6432,11.6302 22.5859,11.8281 L21.0469,11.7031 C21.125,11.3385 21.2786,11.0228 21.5078,10.7559 C21.737,10.4889 22.0332,10.2832 22.3965,10.1387 C22.7598,9.99414 23.181,9.92188 23.6602,9.92188 C23.9935,9.92188 24.3132,9.96094 24.6191,10.0391 C24.9251,10.1172 25.1973,10.2383 25.4355,10.4023 C25.6738,10.5664 25.862,10.7767 26,11.0332 C26.138,11.2897 26.207,11.5964 26.207,11.9531 L26.207,16 L24.6289,16 L24.6289,15.168 L24.582,15.168 C24.4857,15.3555 24.3568,15.5202 24.1953,15.6621 C24.0339,15.804 23.8398,15.9147 23.6133,15.9941 C23.3867,16.0736 23.125,16.1133 22.8281,16.1133 M23.3047,14.9648 C23.5495,14.9648 23.7656,14.916 23.9531,14.8184 C24.1406,14.7207 24.2878,14.5885 24.3945,14.4219 C24.5013,14.2552 24.5547,14.0664 24.5547,13.8555 L24.5547,13.2188 C24.5026,13.2526 24.4316,13.2832 24.3418,13.3105 C24.252,13.3379 24.151,13.3626 24.0391,13.3848 C23.9271,13.4069 23.8151,13.4264 23.7031,13.4434 C23.5911,13.4603 23.4896,13.4753 23.3984,13.4883 C23.2031,13.5169 23.0326,13.5625 22.8867,13.625 C22.7409,13.6875 22.6276,13.7715 22.5469,13.877 C22.4661,13.9824 22.4258,14.1133 22.4258,14.2695 C22.4258,14.4961 22.5085,14.6686 22.6738,14.7871 C22.8392,14.9056 23.0495,14.9648 23.3047,14.9648 M28.8828,10 L29.9844,12.0977 L31.1133,10 L32.8203,10 L31.082,13 L32.8672,16 L31.168,16 L29.9844,13.9258 L28.8203,16 L27.1016,16 L28.8828,13 L27.1641,10 L28.8828,10 M33.8047,16 L33.8047,10 L35.4688,10 L35.4688,16 L33.8047,16 M34.6406,9.22656 C34.3932,9.22656 34.1816,9.14388 34.0059,8.97852 C33.8301,8.81315 33.7422,8.61458 33.7422,8.38281 C33.7422,8.15365 33.8301,7.95638 34.0059,7.79102 C34.1816,7.62565 34.3932,7.54297 34.6406,7.54297 C34.888,7.54297 35.0996,7.62565 35.2754,7.79102 C35.4512,7.95638 35.5391,8.15365 35.5391,8.38281 C35.5391,8.61458 35.4512,8.81315 35.2754,8.97852 C35.0996,9.14388 34.888,9.22656 34.6406,9.22656 M41.7813,11.7109 L40.2578,11.8047 C40.2318,11.6745 40.1758,11.5566 40.0898,11.4512 C40.0039,11.3457 39.8913,11.2611 39.752,11.1973 C39.6126,11.1335 39.4466,11.1016 39.2539,11.1016 C38.9961,11.1016 38.7786,11.1556 38.6016,11.2637 C38.4245,11.3717 38.3359,11.5156 38.3359,11.6953 C38.3359,11.8385 38.3932,11.9596 38.5078,12.0586 C38.6224,12.1576 38.819,12.237 39.0977,12.2969 L40.1836,12.5156 C40.7669,12.6354 41.2018,12.8281 41.4883,13.0938 C41.7747,13.3594 41.918,13.7083 41.918,14.1406 C41.918,14.5339 41.8027,14.8789 41.5723,15.1758 C41.3418,15.4727 41.0267,15.7038 40.627,15.8691 C40.2272,16.0345 39.7669,16.1172 39.2461,16.1172 C38.4518,16.1172 37.8197,15.9512 37.3496,15.6191 C36.8796,15.2871 36.6042,14.8346 36.5234,14.2617 L38.1602,14.1758 C38.2096,14.418 38.3294,14.6022 38.5195,14.7285 C38.7096,14.8548 38.9531,14.918 39.25,14.918 C39.5417,14.918 39.7767,14.8613 39.9551,14.748 C40.1335,14.6348 40.224,14.4883 40.2266,14.3086 C40.224,14.1576 40.1602,14.0332 40.0352,13.9355 C39.9102,13.8379 39.7174,13.763 39.457,13.7109 L38.418,13.5039 C37.832,13.3867 37.3965,13.1836 37.1113,12.8945 C36.8262,12.6055 36.6836,12.237 36.6836,11.7891 C36.6836,11.4036 36.7884,11.0716 36.998,10.793 C37.2077,10.5143 37.5033,10.2995 37.8848,10.1484 C38.2663,9.9974 38.7135,9.92188 39.2266,9.92188 C39.9844,9.92188 40.5814,10.082 41.0176,10.4023 C41.4538,10.7227 41.7083,11.1589 41.7813,11.7109 "/>
</g>

<g fill="#ffffff" fill-opacity="1" stroke="none" transform="matrix(0.03125,0,0,0.03125,213.5,12)"
font-family="Inter" font-size="11" font-weight="700" font-style="normal" 
>
<path vector-effect="none" fill-rule="nonzero" d="M111.326,191.938 C120.545,201.158 135.517,201.158 144.737,191.938 L239.144,97.5313 C245.929,90.7458 247.921,80.6413 244.233,71.7907 C240.545,62.9401 231.989,57.1871 222.401,57.1871 L33.5875,57.2608 C24.0731,57.2608 15.4437,63.0137 11.7559,71.8644 C8.06815,80.715 10.1333,90.8195 16.845,97.605 L111.252,192.012 L111.326,191.938"/>
</g>

<g fill="none" stroke="#000000" stroke-opacity="1" stroke-width="13.7195" stroke-linecap="butt" stroke-linejoin="miter" stroke-miterlimit="4" transform="matrix(0.03125,0,0,0.03125,213.5,12)"
font-family="Inter" font-size="11" font-weight="700" font-style="normal" 
>
<path vector-effect="none" fill-rule="nonzero" d="M111.326,191.938 C120.545,201.158 135.517,201.158 144.737,191.938 L239.144,97.5313 C245.929,90.7458 247.921,80.6413 244.233,71.7907 C240.545,62.9401 231.989,57.1871 222.401,57.1871 L33.5875,57.2608 C24.0731,57.2608 15.4437,63.0137 11.7559,71.8644 C8.06815,80.715 10.1333,90.8195 16.845,97.605 L111.252,192.012 L111.326,191.938"/>
</g>

<g fill="#ffffff" fill-opacity="1" stroke="none" transform="matrix(1,0,0,1,163,4)"
font-family="Inter" font-size="11" font-weight="700" font-style="normal" 
>
</g>

<g fill="#ffffff" fill-opacity="1" stroke="#00645c" stroke-opacity="1" stroke-width="1" stroke-linecap="square" stroke-linejoin="bevel" transform="matrix(1,0,0,1,0,0)"
font-family="Inter" font-size="11" font-weight="700" font-style="normal" 
>
</g>

<g fill="#009f94" fill-opacity="1" stroke="#00645c" stroke-opacity="1" stroke-width="1.2" stroke-linecap="square" stroke-linejoin="bevel" transform="matrix(1,0,0,1,101,4)"
font-family="Inter" font-size="11" font-weight="700" font-style="normal" 
>
<path vector-effect="none" fill-rule="evenodd" d="M0.5,3.5 C0.5,1.84315 1.84315,0.5 3.5,0.5 L54.5,0.5 C56.1569,0.5 57.5,1.84315 57.5,3.5 L57.5,20.5 C57.5,22.1569 56.1569,23.5 54.5,23.5 L3.5,23.5 C1.84315,23.5 0.5,22.1569 0.5,20.5 L0.5,3.5"/>
</g>

<g fill="#ffffff" fill-opacity="1" stroke="none" transform="matrix(1,0,0,1,101,4)"
font-family="Inter" font-size="11" font-weight="700" font-style="normal" 
>
<path vector-effect="none" fill-rule="nonzero" d="M13.6484,7.9375 L15.3203,7.9375 L15.3203,13.5156 C15.3203,14.0313 15.2051,14.4792 14.9746,14.8594 C14.7441,15.2396 14.4245,15.5326 14.0156,15.7383 C13.6068,15.944 13.1315,16.0469 12.5898,16.0469 C12.1081,16.0469 11.6712,15.9616 11.2793,15.791 C10.8874,15.6204 10.5768,15.36 10.3477,15.0098 C10.1185,14.6595 10.0052,14.2188 10.0078,13.6875 L11.6914,13.6875 C11.6966,13.8984 11.7402,14.0788 11.8223,14.2285 C11.9043,14.3783 12.0176,14.4928 12.1621,14.5723 C12.3066,14.6517 12.4779,14.6914 12.6758,14.6914 C12.8841,14.6914 13.0605,14.6465 13.2051,14.5566 C13.3496,14.4668 13.4596,14.3346 13.5352,14.1602 C13.6107,13.9857 13.6484,13.7708 13.6484,13.5156 L13.6484,7.9375 M24.0625,11.9375 C24.0625,12.8099 23.8978,13.5521 23.5684,14.1641 C23.2389,14.776 22.791,15.2428 22.2246,15.5645 C21.6582,15.8861 21.0221,16.0469 20.3164,16.0469 C19.6055,16.0469 18.9674,15.8854 18.4023,15.5625 C17.8372,15.2396 17.3906,14.7721 17.0625,14.1602 C16.7344,13.5482 16.5703,12.8073 16.5703,11.9375 C16.5703,11.0651 16.7344,10.3229 17.0625,9.71094 C17.3906,9.09896 17.8372,8.63216 18.4023,8.31055 C18.9674,7.98893 19.6055,7.82813 20.3164,7.82813 C21.0221,7.82813 21.6582,7.98893 22.2246,8.31055 C22.791,8.63216 23.2389,9.09896 23.5684,9.71094 C23.8978,10.3229 24.0625,11.0651 24.0625,11.9375 M22.3477,11.9375 C22.3477,11.3724 22.2637,10.8958 22.0957,10.5078 C21.9277,10.1198 21.6914,9.82552 21.3867,9.625 C21.082,9.42448 20.7253,9.32422 20.3164,9.32422 C19.9076,9.32422 19.5508,9.42448 19.2461,9.625 C18.9414,9.82552 18.7051,10.1198 18.5371,10.5078 C18.3691,10.8958 18.2852,11.3724 18.2852,11.9375 C18.2852,12.5026 18.3691,12.9792 18.5371,13.3672 C18.7051,13.7552 18.9414,14.0495 19.2461,14.25 C19.5508,14.4505 19.9076,14.5508 20.3164,14.5508 C20.7253,14.5508 21.082,14.4505 21.3867,14.25 C21.6914,14.0495 21.9277,13.7552 22.0957,13.3672 C22.2637,12.9792 22.3477,12.5026 22.3477,11.9375 M24.3516,7.9375 L26.2461,7.9375 L28.0703,11.3828 L28.1484,11.3828 L29.9727,7.9375 L31.8672,7.9375 L28.9492,13.1094 L28.9492,15.9375 L27.2695,15.9375 L27.2695,13.1094 L24.3516,7.9375 M36.2227,7.9375 L36.2227,15.9375 L34.5313,15.9375 L34.5313,9.54297 L34.4844,9.54297 L32.6523,10.6914 L32.6523,9.19141 L34.6328,7.9375 L36.2227,7.9375"/>
</g>

<g fill="#ffffff" fill-opacity="1" stroke="none" transform="matrix(0.03125,0,0,0.03125,145,12)"
font-family="Inter" font-size="11" font-weight="700" font-style="normal" 
>
<path vector-effect="none" fill-rule="nonzero" d="M111.326,191.938 C120.545,201.158 135.517,201.158 144.737,191.938 L239.144,97.5313 C245.929,90.7458 247.921,80.6413 244.233,71.7907 C240.545,62.9401 231.989,57.1871 222.401,57.1871 L33.5875,57.2608 C24.0731,57.2608 15.4437,63.0137 11.7559,71.8644 C8.06815,80.715 10.1333,90.8195 16.845,97.605 L111.252,192.012 L111.326,191.938"/>
</g>

<g fill="none" stroke="#000000" stroke-opacity="1" stroke-width="13.7195" stroke-linecap="butt" stroke-linejoin="miter" stroke-miterlimit="4" transform="matrix(0.03125,0,0,0.03125,145,12)"
font-family="Inter" font-size="11" font-weight="700" font-style="normal" 
>
<path vector-effect="none" fill-rule="nonzero" d="M111.326,191.938 C120.545,201.158 135.517,201.158 144.737,191.938 L239.144,97.5313 C245.929,90.7458 247.921,80.6413 244.233,71.7907 C240.545,62.9401 231.989,57.1871 222.401,57.1871 L33.5875,57.2608 C24.0731,57.2608 15.4437,63.0137 11.7559,71.8644 C8.06815,80.715 10.1333,90.8195 16.845,97.605 L111.252,192.012 L111.326,191.938"/>
</g>

<g fill="#ffffff" fill-opacity="1" stroke="none" transform="matrix(1,0,0,1,101,4)"
font-family="Inter" font-size="11" font-weight="700" font-style="normal" 
>
</g>

<g fill="#ffffff" fill-opacity="1" stroke="#00645c" stroke-opacity="1" stroke-width="1" stroke-linecap="square" stroke-linejoin="bevel" transform="matrix(1,0,0,1,0,0)"
font-family="Inter" font-size="11" font-weight="700" font-style="normal" 
>
</g>

<g fill="#ffffff" fill-opacity="1" stroke="#00645c" stroke-opacity="1" stroke-width="1" stroke-linecap="square" stroke-linejoin="bevel" transform="matrix(1,0,0,1,0,0)"
font-family="Inter" font-size="11" font-weight="700" font-style="normal" 
>
</g>

<g fill="none" stroke="#000000" stroke-opacity="1" stroke-width="1" stroke-linecap="square" stroke-linejoin="bevel" transform="matrix(1,0,0,1,0,0)"
font-family=".AppleSystemUIFont" font-size="13" font-weight="400" font-style="normal" 
>
</g>
</g>
</svg>
