<?xml version="1.0" encoding="UTF-8" standalone="no"?>
<svg width="65.9694mm" height="11.2889mm"
 viewBox="0 0 187 32"
 xmlns="http://www.w3.org/2000/svg" xmlns:xlink="http://www.w3.org/1999/xlink" version="1.2" baseProfile="tiny">
<title>Abstract block</title>
<desc>block_dashboard_controller_pedals_value_float</desc>
<defs>
</defs>
<g fill="none" stroke="black" stroke-width="1" fill-rule="evenodd" stroke-linecap="square" stroke-linejoin="bevel" >

<g fill="none" stroke="#000000" stroke-opacity="1" stroke-width="1" stroke-linecap="square" stroke-linejoin="bevel" transform="matrix(1,0,0,1,0,0)"
font-family=".AppleSystemUIFont" font-size="13" font-weight="400" font-style="normal" 
>
</g>

<g fill="none" stroke="#000000" stroke-opacity="1" stroke-width="1" stroke-linecap="square" stroke-linejoin="bevel" transform="matrix(1,0,0,1,0,0)"
font-family=".AppleSystemUIFont" font-size="13" font-weight="400" font-style="normal" 
>
</g>

<g fill="#009f94" fill-opacity="1" stroke="#00645c" stroke-opacity="1" stroke-width="1.2" stroke-linecap="square" stroke-linejoin="bevel" transform="matrix(1,0,0,1,0,0)"
font-family=".AppleSystemUIFont" font-size="13" font-weight="400" font-style="normal" 
>
<path vector-effect="none" fill-rule="evenodd" d="M1,16 C1,7.71573 8.16344,1 17,1 L169.667,1 C178.503,1 185.667,7.71573 185.667,16 C185.667,24.2843 178.503,31 169.667,31 L17,31 C8.16344,31 1,24.2843 1,16 "/>
</g>

<g fill="#ffffff" fill-opacity="1" stroke="none" transform="matrix(1,0,0,1,0,0)"
font-family="Inter" font-size="11" font-weight="700" font-style="normal" 
>
<path vector-effect="none" fill-rule="nonzero" d="M52.1328,21.0781 L52.1328,12.8281 L53.7734,12.8281 L53.7734,13.8359 L53.8477,13.8359 C53.9206,13.6745 54.0267,13.5098 54.166,13.3418 C54.3053,13.1738 54.4876,13.0332 54.7129,12.9199 C54.9382,12.8066 55.2188,12.75 55.5547,12.75 C55.9922,12.75 56.3958,12.8639 56.7656,13.0918 C57.1354,13.3197 57.431,13.6621 57.6523,14.1191 C57.8737,14.5762 57.9844,15.1484 57.9844,15.8359 C57.9844,16.5052 57.877,17.0697 57.6621,17.5293 C57.4473,17.9889 57.1556,18.3366 56.7871,18.5723 C56.4186,18.8079 56.0065,18.9258 55.5508,18.9258 C55.2279,18.9258 54.9538,18.8724 54.7285,18.7656 C54.5033,18.6589 54.319,18.5241 54.1758,18.3613 C54.0326,18.1986 53.9232,18.0339 53.8477,17.8672 L53.7969,17.8672 L53.7969,21.0781 L52.1328,21.0781 M53.7617,15.8281 C53.7617,16.1849 53.8112,16.4961 53.9102,16.7617 C54.0091,17.0273 54.1523,17.2337 54.3398,17.3809 C54.5273,17.528 54.7552,17.6016 55.0234,17.6016 C55.2943,17.6016 55.5234,17.5267 55.7109,17.377 C55.8984,17.2272 56.041,17.0189 56.1387,16.752 C56.2363,16.485 56.2852,16.1771 56.2852,15.8281 C56.2852,15.4818 56.237,15.1771 56.1406,14.9141 C56.0443,14.651 55.9023,14.4453 55.7148,14.2969 C55.5273,14.1484 55.2969,14.0742 55.0234,14.0742 C54.7526,14.0742 54.5241,14.1458 54.3379,14.2891 C54.1517,14.4323 54.0091,14.6354 53.9102,14.8984 C53.8112,15.1615 53.7617,15.4714 53.7617,15.8281 M61.8203,18.9453 C61.2031,18.9453 60.6725,18.8197 60.2285,18.5684 C59.7845,18.3171 59.4427,17.9603 59.2031,17.498 C58.9635,17.0358 58.8438,16.4883 58.8438,15.8555 C58.8438,15.2383 58.9635,14.6966 59.2031,14.2305 C59.4427,13.7643 59.7806,13.401 60.2168,13.1406 C60.653,12.8802 61.1654,12.75 61.7539,12.75 C62.1497,12.75 62.5189,12.8132 62.8613,12.9395 C63.2038,13.0658 63.5033,13.2552 63.7598,13.5078 C64.0163,13.7604 64.2161,14.0775 64.3594,14.459 C64.5026,14.8405 64.5742,15.2865 64.5742,15.7969 L64.5742,16.2539 L59.5078,16.2539 L59.5078,15.2227 L63.0078,15.2227 C63.0078,14.9831 62.9557,14.7708 62.8516,14.5859 C62.7474,14.401 62.6035,14.2559 62.4199,14.1504 C62.2363,14.0449 62.0234,13.9922 61.7813,13.9922 C61.5286,13.9922 61.3053,14.0501 61.1113,14.166 C60.9173,14.2819 60.7656,14.4368 60.6563,14.6309 C60.5469,14.8249 60.4909,15.0404 60.4883,15.2773 L60.4883,16.2578 C60.4883,16.5547 60.5436,16.8112 60.6543,17.0273 C60.765,17.2435 60.9219,17.4102 61.125,17.5273 C61.3281,17.6445 61.569,17.7031 61.8477,17.7031 C62.0326,17.7031 62.2018,17.6771 62.3555,17.625 C62.5091,17.5729 62.6406,17.4948 62.75,17.3906 C62.8594,17.2865 62.9427,17.1589 63,17.0078 L64.5391,17.1094 C64.4609,17.4792 64.3014,17.8014 64.0605,18.0762 C63.8197,18.3509 63.5098,18.5645 63.1309,18.7168 C62.752,18.8691 62.3151,18.9453 61.8203,18.9453 M67.8594,18.9258 C67.4036,18.9258 66.9915,18.8079 66.623,18.5723 C66.2546,18.3366 65.9629,17.9889 65.748,17.5293 C65.5332,17.0697 65.4258,16.5052 65.4258,15.8359 C65.4258,15.1484 65.5365,14.5762 65.7578,14.1191 C65.9792,13.6621 66.2741,13.3197 66.6426,13.0918 C67.0111,12.8639 67.4154,12.75 67.8555,12.75 C68.1914,12.75 68.472,12.8066 68.6973,12.9199 C68.9225,13.0332 69.1048,13.1738 69.2441,13.3418 C69.3835,13.5098 69.4896,13.6745 69.5625,13.8359 L69.6133,13.8359 L69.6133,10.8281 L71.2734,10.8281 L71.2734,18.8281 L69.6328,18.8281 L69.6328,17.8672 L69.5625,17.8672 C69.4844,18.0339 69.3743,18.1986 69.2324,18.3613 C69.0905,18.5241 68.9069,18.6589 68.6816,18.7656 C68.4564,18.8724 68.1823,18.9258 67.8594,18.9258 M68.3867,17.6016 C68.6549,17.6016 68.8822,17.528 69.0684,17.3809 C69.2546,17.2337 69.3978,17.0273 69.498,16.7617 C69.5983,16.4961 69.6484,16.1849 69.6484,15.8281 C69.6484,15.4714 69.599,15.1615 69.5,14.8984 C69.401,14.6354 69.2578,14.4323 69.0703,14.2891 C68.8828,14.1458 68.6549,14.0742 68.3867,14.0742 C68.1133,14.0742 67.8828,14.1484 67.6953,14.2969 C67.5078,14.4453 67.3659,14.651 67.2695,14.9141 C67.1732,15.1771 67.125,15.4818 67.125,15.8281 C67.125,16.1771 67.1738,16.485 67.2715,16.752 C67.3691,17.0189 67.5111,17.2272 67.6973,17.377 C67.8835,17.5267 68.1133,17.6016 68.3867,17.6016 M74.3438,18.9414 C73.9609,18.9414 73.6198,18.8743 73.3203,18.7402 C73.0208,18.6061 72.7845,18.4069 72.6113,18.1426 C72.4382,17.8783 72.3516,17.5482 72.3516,17.1523 C72.3516,16.819 72.4128,16.5391 72.5352,16.3125 C72.6576,16.0859 72.8242,15.9036 73.0352,15.7656 C73.2461,15.6276 73.4863,15.5234 73.7559,15.4531 C74.0254,15.3828 74.3086,15.3333 74.6055,15.3047 C74.9544,15.2682 75.2357,15.2337 75.4492,15.2012 C75.6628,15.1686 75.8177,15.1198 75.9141,15.0547 C76.0104,14.9896 76.0586,14.8932 76.0586,14.7656 L76.0586,14.7422 C76.0586,14.4948 75.9811,14.3034 75.8262,14.168 C75.6712,14.0326 75.4518,13.9648 75.168,13.9648 C74.8685,13.9648 74.6302,14.0306 74.4531,14.1621 C74.276,14.2936 74.1589,14.4583 74.1016,14.6563 L72.5625,14.5313 C72.6406,14.1667 72.7943,13.8509 73.0234,13.584 C73.2526,13.3171 73.5488,13.1113 73.9121,12.9668 C74.2754,12.8223 74.6966,12.75 75.1758,12.75 C75.5091,12.75 75.8288,12.7891 76.1348,12.8672 C76.4408,12.9453 76.7129,13.0664 76.9512,13.2305 C77.1895,13.3945 77.3776,13.6048 77.5156,13.8613 C77.6536,14.1178 77.7227,14.4245 77.7227,14.7813 L77.7227,18.8281 L76.1445,18.8281 L76.1445,17.9961 L76.0977,17.9961 C76.0013,18.1836 75.8724,18.3483 75.7109,18.4902 C75.5495,18.6322 75.3555,18.7428 75.1289,18.8223 C74.9023,18.9017 74.6406,18.9414 74.3438,18.9414 M74.8203,17.793 C75.0651,17.793 75.2813,17.7441 75.4688,17.6465 C75.6563,17.5488 75.8034,17.4167 75.9102,17.25 C76.0169,17.0833 76.0703,16.8945 76.0703,16.6836 L76.0703,16.0469 C76.0182,16.0807 75.9473,16.1113 75.8574,16.1387 C75.7676,16.166 75.6667,16.1908 75.5547,16.2129 C75.4427,16.235 75.3307,16.2546 75.2188,16.2715 C75.1068,16.2884 75.0052,16.3034 74.9141,16.3164 C74.7188,16.3451 74.5482,16.3906 74.4023,16.4531 C74.2565,16.5156 74.1432,16.5996 74.0625,16.7051 C73.9818,16.8105 73.9414,16.9414 73.9414,17.0977 C73.9414,17.3242 74.0241,17.4967 74.1895,17.6152 C74.3548,17.7337 74.5651,17.793 74.8203,17.793 M80.6719,10.8281 L80.6719,18.8281 L79.0078,18.8281 L79.0078,10.8281 L80.6719,10.8281 M86.9844,14.5391 L85.4609,14.6328 C85.4349,14.5026 85.3789,14.3848 85.293,14.2793 C85.207,14.1738 85.0944,14.0892 84.9551,14.0254 C84.8158,13.9616 84.6497,13.9297 84.457,13.9297 C84.1992,13.9297 83.9818,13.9837 83.8047,14.0918 C83.6276,14.1999 83.5391,14.3438 83.5391,14.5234 C83.5391,14.6667 83.5964,14.7878 83.7109,14.8867 C83.8255,14.9857 84.0221,15.0651 84.3008,15.125 L85.3867,15.3438 C85.9701,15.4635 86.4049,15.6563 86.6914,15.9219 C86.9779,16.1875 87.1211,16.5365 87.1211,16.9688 C87.1211,17.362 87.0059,17.707 86.7754,18.0039 C86.5449,18.3008 86.2298,18.5319 85.8301,18.6973 C85.4303,18.8626 84.9701,18.9453 84.4492,18.9453 C83.6549,18.9453 83.0228,18.7793 82.5527,18.4473 C82.0827,18.1152 81.8073,17.6628 81.7266,17.0898 L83.3633,17.0039 C83.4128,17.2461 83.5326,17.4303 83.7227,17.5566 C83.9128,17.6829 84.1563,17.7461 84.4531,17.7461 C84.7448,17.7461 84.9798,17.6895 85.1582,17.5762 C85.3366,17.4629 85.4271,17.3164 85.4297,17.1367 C85.4271,16.9857 85.3633,16.8613 85.2383,16.7637 C85.1133,16.666 84.9206,16.5911 84.6602,16.5391 L83.6211,16.332 C83.0352,16.2148 82.5996,16.0117 82.3145,15.7227 C82.0293,15.4336 81.8867,15.0651 81.8867,14.6172 C81.8867,14.2318 81.9915,13.8997 82.2012,13.6211 C82.4108,13.3424 82.7064,13.1276 83.0879,12.9766 C83.4694,12.8255 83.9167,12.75 84.4297,12.75 C85.1875,12.75 85.7845,12.9102 86.2207,13.2305 C86.6569,13.5508 86.9115,13.987 86.9844,14.5391 "/>
</g>

<g fill="#ffffff" fill-opacity="1" stroke="none" transform="matrix(0.95,0,0,0.95,11.6,4.6)"
font-family="Inter" font-size="11" font-weight="700" font-style="normal" 
>
<path vector-effect="none" fill-rule="nonzero" d="M2.19896,4.65234 C1.18891,4.65234 0.375703,5.46549 0.375703,6.47555 L0.375703,8.579 C1.00152,8.60331 1.67842,9.11362 1.67842,9.74561 L1.67842,14.2544 C1.67842,14.8864 1.00152,15.3967 0.375703,15.421 L0.375703,17.5245 C0.375703,18.5345 1.18891,19.3477 2.19896,19.3477 L21.8479,19.3477 C22.858,19.3477 23.6711,18.5345 23.6711,17.5245 L23.6711,6.47555 C23.6711,5.46549 22.858,4.65234 21.8479,4.65234 L2.19896,4.65234 M6.71936,9.23098 C8.56166,9.23097 10.0552,10.7245 10.0552,12.5668 C10.0552,14.4091 8.56167,15.9026 6.71936,15.9026 C4.87705,15.9026 3.38355,14.4091 3.38355,12.5668 C3.38355,10.7245 4.87705,9.23097 6.71936,9.23098 M19.875,9.24873 C20.7082,9.24871 21.3837,9.92418 21.3837,10.7574 C21.3837,11.5906 20.7082,12.266 19.875,12.266 C19.0418,12.266 18.3664,11.5906 18.3664,10.7574 C18.3664,9.9242 19.0418,9.24874 19.875,9.24873 M17.4318,12.8825 C18.265,12.8825 18.9404,13.558 18.9404,14.3912 C18.9404,15.2243 18.2649,15.8998 17.4318,15.8998 C16.5986,15.8998 15.9231,15.2244 15.9231,14.3912 C15.9231,13.5579 16.5985,12.8825 17.4318,12.8825 "/>
</g>

<g fill="none" stroke="#000000" stroke-opacity="1" stroke-width="0.54" stroke-linecap="butt" stroke-linejoin="miter" stroke-miterlimit="4" transform="matrix(0.95,0,0,0.95,11.6,4.6)"
font-family="Inter" font-size="11" font-weight="700" font-style="normal" 
>
<path vector-effect="none" fill-rule="nonzero" d="M2.19896,4.65234 C1.18891,4.65234 0.375703,5.46549 0.375703,6.47555 L0.375703,8.579 C1.00152,8.60331 1.67842,9.11362 1.67842,9.74561 L1.67842,14.2544 C1.67842,14.8864 1.00152,15.3967 0.375703,15.421 L0.375703,17.5245 C0.375703,18.5345 1.18891,19.3477 2.19896,19.3477 L21.8479,19.3477 C22.858,19.3477 23.6711,18.5345 23.6711,17.5245 L23.6711,6.47555 C23.6711,5.46549 22.858,4.65234 21.8479,4.65234 L2.19896,4.65234 M6.71936,9.23098 C8.56166,9.23097 10.0552,10.7245 10.0552,12.5668 C10.0552,14.4091 8.56167,15.9026 6.71936,15.9026 C4.87705,15.9026 3.38355,14.4091 3.38355,12.5668 C3.38355,10.7245 4.87705,9.23097 6.71936,9.23098 M19.875,9.24873 C20.7082,9.24871 21.3837,9.92418 21.3837,10.7574 C21.3837,11.5906 20.7082,12.266 19.875,12.266 C19.0418,12.266 18.3664,11.5906 18.3664,10.7574 C18.3664,9.9242 19.0418,9.24874 19.875,9.24873 M17.4318,12.8825 C18.265,12.8825 18.9404,13.558 18.9404,14.3912 C18.9404,15.2243 18.2649,15.8998 17.4318,15.8998 C16.5986,15.8998 15.9231,15.2244 15.9231,14.3912 C15.9231,13.5579 16.5985,12.8825 17.4318,12.8825 "/>
</g>

<g fill="#000000" fill-opacity="1" stroke="none" transform="matrix(0.95,0,0,0.95,11.6,4.6)"
font-family="Inter" font-size="11" font-weight="700" font-style="normal" 
>
<path vector-effect="none" fill-rule="nonzero" d="M0.108328,15.3227 L0.103298,8.65983 L1.21825,8.7259 L1.75102,9.37791 L1.70662,12.9064 L1.66222,14.5556 L1.04066,15.0542 L0.108328,15.3227"/>
</g>

<g fill="#000000" fill-opacity="1" stroke="none" transform="matrix(0.95,0,0,0.95,11.6,4.6)"
font-family="Inter" font-size="11" font-weight="700" font-style="normal" 
>
<circle cx="6.70111" cy="12.5452" r="1.68266"/>
</g>

<g fill="none" stroke="#000000" stroke-opacity="1" stroke-width="0.54" stroke-linecap="butt" stroke-linejoin="miter" stroke-miterlimit="4" transform="matrix(0.95,0,0,0.95,11.6,4.6)"
font-family="Inter" font-size="11" font-weight="700" font-style="normal" 
>
<circle cx="6.70111" cy="12.5452" r="1.68266"/>
</g>

<g fill="#000000" fill-opacity="1" stroke="none" transform="matrix(0.95,0,0,0.95,11.6,4.6)"
font-family="Inter" font-size="11" font-weight="700" font-style="normal" 
opacity="0.858824" >
<path vector-effect="none" fill-rule="evenodd" d="M8.42109,18.1373 C8.42109,18.0846 8.46385,18.0418 8.51661,18.0418 L15.4834,18.0418 C15.5361,18.0418 15.5789,18.0846 15.5789,18.1373 L15.5789,18.1373 C15.5789,18.1901 15.5361,18.2329 15.4834,18.2329 L8.51661,18.2329 C8.46385,18.2329 8.42109,18.1901 8.42109,18.1373 L8.42109,18.1373"/>
</g>

<g fill="none" stroke="#000000" stroke-opacity="1" stroke-width="0.437534" stroke-linecap="butt" stroke-linejoin="miter" stroke-miterlimit="4" transform="matrix(0.95,0,0,0.95,11.6,4.6)"
font-family="Inter" font-size="11" font-weight="700" font-style="normal" 
>
<path vector-effect="none" fill-rule="evenodd" d="M8.42109,18.1373 C8.42109,18.0846 8.46385,18.0418 8.51661,18.0418 L15.4834,18.0418 C15.5361,18.0418 15.5789,18.0846 15.5789,18.1373 L15.5789,18.1373 C15.5789,18.1901 15.5361,18.2329 15.4834,18.2329 L8.51661,18.2329 C8.46385,18.2329 8.42109,18.1901 8.42109,18.1373 L8.42109,18.1373"/>
</g>

<g fill="#ffffff" fill-opacity="1" stroke="none" transform="matrix(1,0,0,1,0,0)"
font-family="Inter" font-size="11" font-weight="700" font-style="normal" 
>
</g>

<g fill="#ffffff" fill-opacity="1" stroke="#00645c" stroke-opacity="1" stroke-width="1" stroke-linecap="square" stroke-linejoin="bevel" transform="matrix(1,0,0,1,0,0)"
font-family="Inter" font-size="11" font-weight="700" font-style="normal" 
>
<polyline fill="none" vector-effect="none" points="45,6 45,26 " />
</g>

<g fill="#009f94" fill-opacity="1" stroke="#00645c" stroke-opacity="1" stroke-width="1.2" stroke-linecap="square" stroke-linejoin="bevel" transform="matrix(1,0,0,1,94,4)"
font-family="Inter" font-size="11" font-weight="700" font-style="normal" 
>
<path vector-effect="none" fill-rule="evenodd" d="M0.5,3.5 C0.5,1.84315 1.84315,0.5 3.5,0.5 L78.5,0.5 C80.1569,0.5 81.5,1.84315 81.5,3.5 L81.5,20.5 C81.5,22.1569 80.1569,23.5 78.5,23.5 L3.5,23.5 C1.84315,23.5 0.5,22.1569 0.5,20.5 L0.5,3.5"/>
</g>

<g fill="#ffffff" fill-opacity="1" stroke="none" transform="matrix(1,0,0,1,94,4)"
font-family="Inter" font-size="11" font-weight="700" font-style="normal" 
>
<path vector-effect="none" fill-rule="nonzero" d="M10.0078,16 L10.0078,8 L13.1641,8 C13.7708,8 14.2878,8.11523 14.7148,8.3457 C15.1419,8.57617 15.4681,8.89518 15.6934,9.30273 C15.9186,9.71029 16.0313,10.1797 16.0313,10.7109 C16.0313,11.2422 15.9167,11.7109 15.6875,12.1172 C15.4583,12.5234 15.127,12.8398 14.6934,13.0664 C14.2598,13.293 13.7357,13.4063 13.1211,13.4063 L11.1094,13.4063 L11.1094,12.0508 L12.8477,12.0508 C13.1732,12.0508 13.4421,11.9941 13.6543,11.8809 C13.8665,11.7676 14.0254,11.61 14.1309,11.4082 C14.2363,11.2064 14.2891,10.974 14.2891,10.7109 C14.2891,10.4453 14.2363,10.2129 14.1309,10.0137 C14.0254,9.81445 13.8659,9.65951 13.6523,9.54883 C13.4388,9.43815 13.168,9.38281 12.8398,9.38281 L11.6992,9.38281 L11.6992,16 L10.0078,16 M19.9688,16 L17.1328,16 L17.1328,8 L19.9922,8 C20.7969,8 21.4896,8.15951 22.0703,8.47852 C22.651,8.79753 23.0983,9.25521 23.4121,9.85156 C23.7259,10.4479 23.8828,11.1615 23.8828,11.9922 C23.8828,12.8255 23.7259,13.5417 23.4121,14.1406 C23.0983,14.7396 22.6491,15.1992 22.0645,15.5195 C21.4798,15.8398 20.7813,16 19.9688,16 M18.8242,14.5508 L19.8984,14.5508 C20.3984,14.5508 20.8197,14.4616 21.1621,14.2832 C21.5046,14.1048 21.7624,13.8275 21.9355,13.4512 C22.1087,13.0749 22.1953,12.5885 22.1953,11.9922 C22.1953,11.401 22.1087,10.918 21.9355,10.543 C21.7624,10.168 21.5052,9.89193 21.1641,9.71484 C20.8229,9.53776 20.4023,9.44922 19.9023,9.44922 L18.8242,9.44922 L18.8242,14.5508 M25.1328,16 L25.1328,8 L26.8242,8 L26.8242,14.6055 L30.2539,14.6055 L30.2539,16 L25.1328,16 M31.3672,8 L33.4531,8 L35.6563,13.375 L35.75,13.375 L37.9531,8 L40.0391,8 L40.0391,16 L38.3984,16 L38.3984,10.793 L38.332,10.793 L36.2617,15.9609 L35.1445,15.9609 L33.0742,10.7734 L33.0078,10.7734 L33.0078,16 L31.3672,16 L31.3672,8 M41.4297,16 L41.4297,8 L44.5859,8 C45.1901,8 45.7064,8.10742 46.1348,8.32227 C46.5632,8.53711 46.89,8.84049 47.1152,9.23242 C47.3405,9.62435 47.4531,10.0846 47.4531,10.6133 C47.4531,11.1445 47.3385,11.6009 47.1094,11.9824 C46.8802,12.3639 46.5488,12.6563 46.1152,12.8594 C45.6816,13.0625 45.1576,13.1641 44.543,13.1641 L42.4297,13.1641 L42.4297,11.8047 L44.2695,11.8047 C44.5924,11.8047 44.8607,11.7604 45.0742,11.6719 C45.2878,11.5833 45.4473,11.4505 45.5527,11.2734 C45.6582,11.0964 45.7109,10.8763 45.7109,10.6133 C45.7109,10.3477 45.6582,10.1237 45.5527,9.94141 C45.4473,9.75911 45.2871,9.62044 45.0723,9.52539 C44.8574,9.43034 44.5872,9.38281 44.2617,9.38281 L43.1211,9.38281 L43.1211,16 L41.4297,16 M45.75,12.3594 L47.7383,16 L45.8711,16 L43.9258,12.3594 L45.75,12.3594 M48.6484,16 L48.6484,8 L50.3398,8 L50.3398,11.5273 L50.4453,11.5273 L53.3242,8 L55.3516,8 L52.3828,11.582 L55.3867,16 L53.3633,16 L51.1719,12.7109 L50.3398,13.7266 L50.3398,16 L48.6484,16 M59.6602,8 L59.6602,16 L57.9688,16 L57.9688,9.60547 L57.9219,9.60547 L56.0898,10.7539 L56.0898,9.25391 L58.0703,8 L59.6602,8"/>
</g>

<g fill="#ffffff" fill-opacity="1" stroke="none" transform="matrix(0.03125,0,0,0.03125,162,12)"
font-family="Inter" font-size="11" font-weight="700" font-style="normal" 
>
<path vector-effect="none" fill-rule="nonzero" d="M111.326,191.938 C120.545,201.158 135.517,201.158 144.737,191.938 L239.144,97.5313 C245.929,90.7458 247.921,80.6413 244.233,71.7907 C240.545,62.9401 231.989,57.1871 222.401,57.1871 L33.5875,57.2608 C24.0731,57.2608 15.4437,63.0137 11.7559,71.8644 C8.06815,80.715 10.1333,90.8195 16.845,97.605 L111.252,192.012 L111.326,191.938"/>
</g>

<g fill="none" stroke="#000000" stroke-opacity="1" stroke-width="13.7195" stroke-linecap="butt" stroke-linejoin="miter" stroke-miterlimit="4" transform="matrix(0.03125,0,0,0.03125,162,12)"
font-family="Inter" font-size="11" font-weight="700" font-style="normal" 
>
<path vector-effect="none" fill-rule="nonzero" d="M111.326,191.938 C120.545,201.158 135.517,201.158 144.737,191.938 L239.144,97.5313 C245.929,90.7458 247.921,80.6413 244.233,71.7907 C240.545,62.9401 231.989,57.1871 222.401,57.1871 L33.5875,57.2608 C24.0731,57.2608 15.4437,63.0137 11.7559,71.8644 C8.06815,80.715 10.1333,90.8195 16.845,97.605 L111.252,192.012 L111.326,191.938"/>
</g>

<g fill="#ffffff" fill-opacity="1" stroke="none" transform="matrix(1,0,0,1,94,4)"
font-family="Inter" font-size="11" font-weight="700" font-style="normal" 
>
</g>

<g fill="#ffffff" fill-opacity="1" stroke="#00645c" stroke-opacity="1" stroke-width="1" stroke-linecap="square" stroke-linejoin="bevel" transform="matrix(1,0,0,1,0,0)"
font-family="Inter" font-size="11" font-weight="700" font-style="normal" 
>
</g>

<g fill="#ffffff" fill-opacity="1" stroke="#00645c" stroke-opacity="1" stroke-width="1" stroke-linecap="square" stroke-linejoin="bevel" transform="matrix(1,0,0,1,0,0)"
font-family="Inter" font-size="11" font-weight="700" font-style="normal" 
>
</g>

<g fill="none" stroke="#000000" stroke-opacity="1" stroke-width="1" stroke-linecap="square" stroke-linejoin="bevel" transform="matrix(1,0,0,1,0,0)"
font-family=".AppleSystemUIFont" font-size="13" font-weight="400" font-style="normal" 
>
</g>
</g>
</svg>
