<?xml version="1.0" encoding="UTF-8" standalone="no"?>
<svg width="102.306mm" height="11.2889mm"
 viewBox="0 0 290 32"
 xmlns="http://www.w3.org/2000/svg" xmlns:xlink="http://www.w3.org/1999/xlink" version="1.2" baseProfile="tiny">
<title>Abstract block</title>
<desc>block_hubs_all_sensors_port_boost_sensor_reflected_light</desc>
<defs>
</defs>
<g fill="none" stroke="black" stroke-width="1" fill-rule="evenodd" stroke-linecap="square" stroke-linejoin="bevel" >

<g fill="none" stroke="#000000" stroke-opacity="1" stroke-width="1" stroke-linecap="square" stroke-linejoin="bevel" transform="matrix(1,0,0,1,0,0)"
font-family=".AppleSystemUIFont" font-size="13" font-weight="400" font-style="normal" 
>
</g>

<g fill="none" stroke="#000000" stroke-opacity="1" stroke-width="1" stroke-linecap="square" stroke-linejoin="bevel" transform="matrix(1,0,0,1,0,0)"
font-family=".AppleSystemUIFont" font-size="13" font-weight="400" font-style="normal" 
>
</g>

<g fill="#1dccf0" fill-opacity="1" stroke="#0da6c5" stroke-opacity="1" stroke-width="1.2" stroke-linecap="square" stroke-linejoin="bevel" transform="matrix(1,0,0,1,0,0)"
font-family=".AppleSystemUIFont" font-size="13" font-weight="400" font-style="normal" 
>
<path vector-effect="none" fill-rule="evenodd" d="M1,16 C1,7.71573 8.16344,1 17,1 L272.667,1 C281.503,1 288.667,7.71573 288.667,16 C288.667,24.2843 281.503,31 272.667,31 L17,31 C8.16344,31 1,24.2843 1,16 "/>
</g>

<g fill="#ffffff" fill-opacity="1" stroke="none" transform="matrix(1,0,0,1,0,0)"
font-family="Inter" font-size="11" font-weight="700" font-style="normal" 
>
<path vector-effect="none" fill-rule="nonzero" d="M181.258,19.25 L181.258,13.25 L182.871,13.25 L182.871,14.2969 L182.934,14.2969 C183.043,13.9245 183.227,13.6426 183.484,13.4512 C183.742,13.2598 184.039,13.1641 184.375,13.1641 C184.458,13.1641 184.548,13.1693 184.645,13.1797 C184.741,13.1901 184.826,13.2044 184.898,13.2227 L184.898,14.6992 C184.82,14.6758 184.712,14.6549 184.574,14.6367 C184.436,14.6185 184.31,14.6094 184.195,14.6094 C183.951,14.6094 183.732,14.6621 183.541,14.7676 C183.35,14.873 183.199,15.0195 183.088,15.207 C182.977,15.3945 182.922,15.6107 182.922,15.8555 L182.922,19.25 L181.258,19.25 M188.195,19.3672 C187.578,19.3672 187.048,19.2415 186.604,18.9902 C186.16,18.7389 185.818,18.3822 185.578,17.9199 C185.339,17.4577 185.219,16.9102 185.219,16.2773 C185.219,15.6602 185.339,15.1185 185.578,14.6523 C185.818,14.1862 186.156,13.8229 186.592,13.5625 C187.028,13.3021 187.54,13.1719 188.129,13.1719 C188.525,13.1719 188.894,13.235 189.236,13.3613 C189.579,13.4876 189.878,13.6771 190.135,13.9297 C190.391,14.1823 190.591,14.4993 190.734,14.8809 C190.878,15.2624 190.949,15.7083 190.949,16.2188 L190.949,16.6758 L185.883,16.6758 L185.883,15.6445 L189.383,15.6445 C189.383,15.4049 189.331,15.1927 189.227,15.0078 C189.122,14.8229 188.979,14.6777 188.795,14.5723 C188.611,14.4668 188.398,14.4141 188.156,14.4141 C187.904,14.4141 187.68,14.472 187.486,14.5879 C187.292,14.7038 187.141,14.8587 187.031,15.0527 C186.922,15.2467 186.866,15.4622 186.863,15.6992 L186.863,16.6797 C186.863,16.9766 186.919,17.2331 187.029,17.4492 C187.14,17.6654 187.297,17.832 187.5,17.9492 C187.703,18.0664 187.944,18.125 188.223,18.125 C188.408,18.125 188.577,18.099 188.73,18.0469 C188.884,17.9948 189.016,17.9167 189.125,17.8125 C189.234,17.7083 189.318,17.5807 189.375,17.4297 L190.914,17.5313 C190.836,17.901 190.676,18.2233 190.436,18.498 C190.195,18.7728 189.885,18.9863 189.506,19.1387 C189.127,19.291 188.69,19.3672 188.195,19.3672 M195.25,13.25 L195.25,14.5 L191.547,14.5 L191.547,13.25 L195.25,13.25 M192.395,19.25 L192.395,12.8164 C192.395,12.3815 192.48,12.0208 192.65,11.7344 C192.821,11.4479 193.055,11.2331 193.352,11.0898 C193.648,10.9466 193.986,10.875 194.363,10.875 C194.618,10.875 194.852,10.8945 195.064,10.9336 C195.277,10.9727 195.435,11.0078 195.539,11.0391 L195.242,12.2891 C195.177,12.2682 195.097,12.2487 195.002,12.2305 C194.907,12.2122 194.81,12.2031 194.711,12.2031 C194.466,12.2031 194.296,12.2598 194.199,12.373 C194.103,12.4863 194.055,12.6445 194.055,12.8477 L194.055,19.25 L192.395,19.25 M197.922,11.25 L197.922,19.25 L196.258,19.25 L196.258,11.25 L197.922,11.25 M201.977,19.3672 C201.359,19.3672 200.829,19.2415 200.385,18.9902 C199.941,18.7389 199.599,18.3822 199.359,17.9199 C199.12,17.4577 199,16.9102 199,16.2773 C199,15.6602 199.12,15.1185 199.359,14.6523 C199.599,14.1862 199.937,13.8229 200.373,13.5625 C200.809,13.3021 201.322,13.1719 201.91,13.1719 C202.306,13.1719 202.675,13.235 203.018,13.3613 C203.36,13.4876 203.66,13.6771 203.916,13.9297 C204.173,14.1823 204.372,14.4993 204.516,14.8809 C204.659,15.2624 204.73,15.7083 204.73,16.2188 L204.73,16.6758 L199.664,16.6758 L199.664,15.6445 L203.164,15.6445 C203.164,15.4049 203.112,15.1927 203.008,15.0078 C202.904,14.8229 202.76,14.6777 202.576,14.5723 C202.393,14.4668 202.18,14.4141 201.938,14.4141 C201.685,14.4141 201.462,14.472 201.268,14.5879 C201.074,14.7038 200.922,14.8587 200.813,15.0527 C200.703,15.2467 200.647,15.4622 200.645,15.6992 L200.645,16.6797 C200.645,16.9766 200.7,17.2331 200.811,17.4492 C200.921,17.6654 201.078,17.832 201.281,17.9492 C201.484,18.0664 201.725,18.125 202.004,18.125 C202.189,18.125 202.358,18.099 202.512,18.0469 C202.665,17.9948 202.797,17.9167 202.906,17.8125 C203.016,17.7083 203.099,17.5807 203.156,17.4297 L204.695,17.5313 C204.617,17.901 204.458,18.2233 204.217,18.498 C203.976,18.7728 203.666,18.9863 203.287,19.1387 C202.908,19.291 202.471,19.3672 201.977,19.3672 M208.516,19.3672 C207.901,19.3672 207.373,19.2363 206.932,18.9746 C206.49,18.7129 206.152,18.349 205.916,17.8828 C205.68,17.4167 205.563,16.8802 205.563,16.2734 C205.563,15.6589 205.682,15.1191 205.92,14.6543 C206.158,14.1895 206.497,13.8262 206.938,13.5645 C207.378,13.3027 207.901,13.1719 208.508,13.1719 C209.031,13.1719 209.49,13.2669 209.883,13.457 C210.276,13.6471 210.587,13.9141 210.816,14.2578 C211.046,14.6016 211.172,15.0052 211.195,15.4688 L209.625,15.4688 C209.581,15.1693 209.464,14.9277 209.275,14.7441 C209.087,14.5605 208.84,14.4688 208.535,14.4688 C208.277,14.4688 208.053,14.5384 207.861,14.6777 C207.67,14.8171 207.521,15.0195 207.414,15.2852 C207.307,15.5508 207.254,15.8724 207.254,16.25 C207.254,16.6328 207.307,16.9583 207.412,17.2266 C207.518,17.4948 207.667,17.6992 207.859,17.8398 C208.052,17.9805 208.277,18.0508 208.535,18.0508 C208.725,18.0508 208.896,18.0117 209.049,17.9336 C209.201,17.8555 209.327,17.7415 209.428,17.5918 C209.528,17.4421 209.594,17.2617 209.625,17.0508 L211.195,17.0508 C211.169,17.5091 211.045,17.9121 210.822,18.2598 C210.6,18.6074 210.293,18.8789 209.902,19.0742 C209.512,19.2695 209.049,19.3672 208.516,19.3672 M215.449,13.25 L215.449,14.5 L211.836,14.5 L211.836,13.25 L215.449,13.25 M212.656,11.8125 L214.32,11.8125 L214.32,17.4063 C214.32,17.5599 214.344,17.679 214.391,17.7637 C214.438,17.8483 214.503,17.9076 214.588,17.9414 C214.673,17.9753 214.771,17.9922 214.883,17.9922 C214.961,17.9922 215.039,17.985 215.117,17.9707 C215.195,17.9564 215.255,17.9453 215.297,17.9375 L215.559,19.1758 C215.475,19.2018 215.358,19.2324 215.207,19.2676 C215.056,19.3027 214.872,19.3242 214.656,19.332 C214.255,19.3477 213.904,19.2943 213.604,19.1719 C213.303,19.0495 213.069,18.8594 212.902,18.6016 C212.736,18.3438 212.654,18.0182 212.656,17.625 L212.656,11.8125 M219.195,19.3672 C218.578,19.3672 218.048,19.2415 217.604,18.9902 C217.16,18.7389 216.818,18.3822 216.578,17.9199 C216.339,17.4577 216.219,16.9102 216.219,16.2773 C216.219,15.6602 216.339,15.1185 216.578,14.6523 C216.818,14.1862 217.156,13.8229 217.592,13.5625 C218.028,13.3021 218.54,13.1719 219.129,13.1719 C219.525,13.1719 219.894,13.235 220.236,13.3613 C220.579,13.4876 220.878,13.6771 221.135,13.9297 C221.391,14.1823 221.591,14.4993 221.734,14.8809 C221.878,15.2624 221.949,15.7083 221.949,16.2188 L221.949,16.6758 L216.883,16.6758 L216.883,15.6445 L220.383,15.6445 C220.383,15.4049 220.331,15.1927 220.227,15.0078 C220.122,14.8229 219.979,14.6777 219.795,14.5723 C219.611,14.4668 219.398,14.4141 219.156,14.4141 C218.904,14.4141 218.68,14.472 218.486,14.5879 C218.292,14.7038 218.141,14.8587 218.031,15.0527 C217.922,15.2467 217.866,15.4622 217.863,15.6992 L217.863,16.6797 C217.863,16.9766 217.919,17.2331 218.029,17.4492 C218.14,17.6654 218.297,17.832 218.5,17.9492 C218.703,18.0664 218.944,18.125 219.223,18.125 C219.408,18.125 219.577,18.099 219.73,18.0469 C219.884,17.9948 220.016,17.9167 220.125,17.8125 C220.234,17.7083 220.318,17.5807 220.375,17.4297 L221.914,17.5313 C221.836,17.901 221.676,18.2233 221.436,18.498 C221.195,18.7728 220.885,18.9863 220.506,19.1387 C220.127,19.291 219.69,19.3672 219.195,19.3672 M225.234,19.3477 C224.779,19.3477 224.367,19.2298 223.998,18.9941 C223.63,18.7585 223.338,18.4108 223.123,17.9512 C222.908,17.4915 222.801,16.9271 222.801,16.2578 C222.801,15.5703 222.911,14.998 223.133,14.541 C223.354,14.084 223.649,13.7415 224.018,13.5137 C224.386,13.2858 224.79,13.1719 225.23,13.1719 C225.566,13.1719 225.847,13.2285 226.072,13.3418 C226.298,13.4551 226.48,13.5957 226.619,13.7637 C226.758,13.9316 226.865,14.0964 226.938,14.2578 L226.988,14.2578 L226.988,11.25 L228.648,11.25 L228.648,19.25 L227.008,19.25 L227.008,18.2891 L226.938,18.2891 C226.859,18.4557 226.749,18.6204 226.607,18.7832 C226.465,18.946 226.282,19.0807 226.057,19.1875 C225.831,19.2943 225.557,19.3477 225.234,19.3477 M225.762,18.0234 C226.03,18.0234 226.257,17.9499 226.443,17.8027 C226.63,17.6556 226.773,17.4492 226.873,17.1836 C226.973,16.918 227.023,16.6068 227.023,16.25 C227.023,15.8932 226.974,15.5833 226.875,15.3203 C226.776,15.0573 226.633,14.8542 226.445,14.7109 C226.258,14.5677 226.03,14.4961 225.762,14.4961 C225.488,14.4961 225.258,14.5703 225.07,14.7188 C224.883,14.8672 224.741,15.0729 224.645,15.3359 C224.548,15.599 224.5,15.9036 224.5,16.25 C224.5,16.599 224.549,16.9069 224.646,17.1738 C224.744,17.4408 224.886,17.6491 225.072,17.7988 C225.258,17.9486 225.488,18.0234 225.762,18.0234 M234.219,11.25 L234.219,19.25 L232.555,19.25 L232.555,11.25 L234.219,11.25 M235.539,19.25 L235.539,13.25 L237.203,13.25 L237.203,19.25 L235.539,19.25 M236.375,12.4766 C236.128,12.4766 235.916,12.3939 235.74,12.2285 C235.564,12.0632 235.477,11.8646 235.477,11.6328 C235.477,11.4036 235.564,11.2064 235.74,11.041 C235.916,10.8757 236.128,10.793 236.375,10.793 C236.622,10.793 236.834,10.8757 237.01,11.041 C237.186,11.2064 237.273,11.4036 237.273,11.6328 C237.273,11.8646 237.186,12.0632 237.01,12.2285 C236.834,12.3939 236.622,12.4766 236.375,12.4766 M241.227,21.625 C240.688,21.625 240.226,21.5514 239.842,21.4043 C239.458,21.2572 239.152,21.0573 238.926,20.8047 C238.699,20.5521 238.552,20.2682 238.484,19.9531 L240.023,19.7461 C240.07,19.8659 240.145,19.9779 240.246,20.082 C240.348,20.1862 240.482,20.2702 240.65,20.334 C240.818,20.3978 241.023,20.4297 241.266,20.4297 C241.628,20.4297 241.926,20.3418 242.162,20.166 C242.398,19.9902 242.516,19.6966 242.516,19.2852 L242.516,18.1875 L242.445,18.1875 C242.372,18.3542 242.263,18.5117 242.117,18.6602 C241.971,18.8086 241.784,18.9297 241.555,19.0234 C241.326,19.1172 241.052,19.1641 240.734,19.1641 C240.284,19.1641 239.874,19.0592 239.506,18.8496 C239.137,18.64 238.844,18.3184 238.627,17.8848 C238.41,17.4512 238.301,16.9023 238.301,16.2383 C238.301,15.5586 238.411,14.9909 238.633,14.5352 C238.854,14.0794 239.149,13.7383 239.518,13.5117 C239.886,13.2852 240.29,13.1719 240.73,13.1719 C241.066,13.1719 241.348,13.2285 241.574,13.3418 C241.801,13.4551 241.984,13.5957 242.123,13.7637 C242.262,13.9316 242.37,14.0964 242.445,14.2578 L242.508,14.2578 L242.508,13.25 L244.16,13.25 L244.16,19.3086 C244.16,19.819 244.035,20.2461 243.785,20.5898 C243.535,20.9336 243.189,21.1921 242.748,21.3652 C242.307,21.5384 241.799,21.625 241.227,21.625 M241.262,17.9141 C241.53,17.9141 241.757,17.847 241.943,17.7129 C242.13,17.5788 242.273,17.3861 242.373,17.1348 C242.473,16.8835 242.523,16.582 242.523,16.2305 C242.523,15.8789 242.474,15.5736 242.375,15.3145 C242.276,15.0553 242.133,14.8542 241.945,14.7109 C241.758,14.5677 241.53,14.4961 241.262,14.4961 C240.988,14.4961 240.758,14.5697 240.57,14.7168 C240.383,14.8639 240.241,15.0677 240.145,15.3281 C240.048,15.5885 240,15.8893 240,16.2305 C240,16.5768 240.049,16.8757 240.146,17.127 C240.244,17.3783 240.386,17.5723 240.572,17.709 C240.758,17.8457 240.988,17.9141 241.262,17.9141 M247.141,15.7813 L247.141,19.25 L245.477,19.25 L245.477,11.25 L247.094,11.25 L247.094,14.3086 L247.164,14.3086 C247.299,13.9544 247.518,13.6764 247.82,13.4746 C248.122,13.2728 248.501,13.1719 248.957,13.1719 C249.374,13.1719 249.738,13.2624 250.049,13.4434 C250.36,13.6243 250.602,13.8835 250.775,14.2207 C250.949,14.5579 251.034,14.9609 251.031,15.4297 L251.031,19.25 L249.367,19.25 L249.367,15.7266 C249.37,15.3568 249.277,15.069 249.088,14.8633 C248.899,14.6576 248.635,14.5547 248.297,14.5547 C248.07,14.5547 247.87,14.6029 247.697,14.6992 C247.524,14.7956 247.389,14.9355 247.291,15.1191 C247.193,15.3027 247.143,15.5234 247.141,15.7813 M255.527,13.25 L255.527,14.5 L251.914,14.5 L251.914,13.25 L255.527,13.25 M252.734,11.8125 L254.398,11.8125 L254.398,17.4063 C254.398,17.5599 254.422,17.679 254.469,17.7637 C254.516,17.8483 254.581,17.9076 254.666,17.9414 C254.751,17.9753 254.849,17.9922 254.961,17.9922 C255.039,17.9922 255.117,17.985 255.195,17.9707 C255.273,17.9564 255.333,17.9453 255.375,17.9375 L255.637,19.1758 C255.553,19.2018 255.436,19.2324 255.285,19.2676 C255.134,19.3027 254.951,19.3242 254.734,19.332 C254.333,19.3477 253.982,19.2943 253.682,19.1719 C253.381,19.0495 253.147,18.8594 252.98,18.6016 C252.814,18.3438 252.732,18.0182 252.734,17.625 L252.734,11.8125 M259.516,15.25 C259.516,14.2813 259.645,13.3893 259.904,12.5742 C260.163,11.7591 260.56,11.0039 261.094,10.3086 L262.684,10.3086 C262.48,10.5664 262.292,10.8809 262.117,11.252 C261.943,11.623 261.79,12.0299 261.66,12.4727 C261.53,12.9154 261.428,13.373 261.355,13.8457 C261.283,14.3184 261.246,14.7865 261.246,15.25 C261.246,15.8672 261.309,16.4902 261.436,17.1191 C261.562,17.748 261.734,18.332 261.951,18.8711 C262.169,19.4102 262.413,19.8516 262.684,20.1953 L261.094,20.1953 C260.56,19.5 260.163,18.7448 259.904,17.9297 C259.645,17.1146 259.516,16.2214 259.516,15.25 M268.012,17.75 L268.012,17.3281 C268.012,17.0078 268.08,16.7129 268.217,16.4434 C268.354,16.1738 268.553,15.9577 268.814,15.7949 C269.076,15.6322 269.396,15.5508 269.773,15.5508 C270.156,15.5508 270.479,15.6315 270.74,15.793 C271.002,15.9544 271.2,16.1699 271.334,16.4395 C271.468,16.709 271.535,17.0052 271.535,17.3281 L271.535,17.75 C271.535,18.0703 271.467,18.3652 271.332,18.6348 C271.197,18.9043 270.997,19.1204 270.734,19.2832 C270.471,19.446 270.151,19.5273 269.773,19.5273 C269.391,19.5273 269.069,19.446 268.809,19.2832 C268.548,19.1204 268.35,18.9043 268.215,18.6348 C268.079,18.3652 268.012,18.0703 268.012,17.75 M269.148,17.3281 L269.148,17.75 C269.148,17.9349 269.193,18.1094 269.283,18.2734 C269.373,18.4375 269.536,18.5195 269.773,18.5195 C270.01,18.5195 270.173,18.4388 270.26,18.2773 C270.347,18.1159 270.391,17.9401 270.391,17.75 L270.391,17.3281 C270.391,17.138 270.349,16.9609 270.266,16.7969 C270.182,16.6328 270.018,16.5508 269.773,16.5508 C269.539,16.5508 269.376,16.6328 269.285,16.7969 C269.194,16.9609 269.148,17.138 269.148,17.3281 M263.906,13.1719 L263.906,12.75 C263.906,12.4271 263.975,12.1309 264.113,11.8613 C264.251,11.5918 264.451,11.3763 264.713,11.2148 C264.975,11.0534 265.292,10.9727 265.664,10.9727 C266.049,10.9727 266.372,11.0534 266.633,11.2148 C266.893,11.3763 267.091,11.5918 267.227,11.8613 C267.362,12.1309 267.43,12.4271 267.43,12.75 L267.43,13.1719 C267.43,13.4948 267.361,13.7904 267.225,14.0586 C267.088,14.3268 266.889,14.541 266.627,14.7012 C266.365,14.8613 266.044,14.9414 265.664,14.9414 C265.284,14.9414 264.963,14.86 264.701,14.6973 C264.439,14.5345 264.242,14.3197 264.107,14.0527 C263.973,13.7858 263.906,13.4922 263.906,13.1719 M265.051,12.75 L265.051,13.1719 C265.051,13.362 265.096,13.5378 265.186,13.6992 C265.275,13.8607 265.435,13.9414 265.664,13.9414 C265.904,13.9414 266.067,13.8607 266.154,13.6992 C266.242,13.5378 266.285,13.362 266.285,13.1719 L266.285,12.75 C266.285,12.5599 266.243,12.3828 266.16,12.2188 C266.077,12.0547 265.911,11.9727 265.664,11.9727 C265.432,11.9727 265.272,12.056 265.184,12.2227 C265.095,12.3893 265.051,12.5651 265.051,12.75 M264.422,19.25 L269.922,11.25 L270.945,11.25 L265.445,19.25 L264.422,19.25 M275.906,15.25 C275.906,16.2214 275.777,17.1146 275.518,17.9297 C275.258,18.7448 274.862,19.5 274.328,20.1953 L272.738,20.1953 C272.941,19.9375 273.13,19.6224 273.305,19.25 C273.479,18.8776 273.632,18.4707 273.762,18.0293 C273.892,17.5879 273.993,17.1302 274.066,16.6563 C274.139,16.1823 274.176,15.7135 274.176,15.25 C274.176,14.6328 274.113,14.0098 273.986,13.3809 C273.86,12.752 273.688,12.1686 273.471,11.6309 C273.253,11.0931 273.009,10.6523 272.738,10.3086 L274.328,10.3086 C274.862,11.0039 275.258,11.7591 275.518,12.5742 C275.777,13.3893 275.906,14.2813 275.906,15.25 "/>
</g>

<g fill="#ffffff" fill-opacity="1" stroke="none" transform="matrix(0.0285,0,0,0.0285,11.2928,4.29805)"
font-family="Inter" font-size="11" font-weight="700" font-style="normal" 
>
<path vector-effect="none" fill-rule="nonzero" d="M235.334,52.7519 C230.145,52.7519 225.965,56.9314 225.965,62.1211 L225.965,102.215 L210.545,102.215 C191.496,102.215 176.161,116.28 176.161,133.752 L176.161,431.395 L231.118,431.395 C233.175,391.149 266.155,359.338 306.93,359.338 L514.625,359.338 C555.4,359.338 588.38,391.149 590.438,431.395 L645.395,431.395 L645.395,133.752 C645.395,116.28 630.059,102.215 611.01,102.215 L587.022,102.215 L587.022,62.1211 C587.022,56.9314 582.844,52.7519 577.655,52.7519 L453.467,52.7519 C448.277,52.7519 444.098,56.9314 444.098,62.1211 L444.098,102.215 L368.889,102.215 L368.889,62.1211 C368.889,56.9314 364.712,52.7519 359.522,52.7519 L235.334,52.7519 M176.161,439.258 L176.161,736.898 C176.161,754.37 191.496,768.437 210.545,768.437 L611.01,768.437 C630.059,768.437 645.395,754.37 645.395,736.898 L645.395,439.258 L590.442,439.258 C588.408,479.525 555.416,511.361 514.625,511.361 L489.325,511.361 C491.149,518.109 492.096,525.064 492.143,532.055 L492.143,532.08 C492.142,577.014 455.717,613.44 410.784,613.443 C365.85,613.447 329.42,577.026 329.412,532.092 C329.455,525.089 330.402,518.121 332.229,511.361 L306.93,511.361 C266.139,511.361 233.148,479.525 231.114,439.258 L176.161,439.258"/>
</g>

<g fill="none" stroke="#000000" stroke-opacity="1" stroke-width="20" stroke-linecap="round" stroke-linejoin="round" transform="matrix(0.0285,0,0,0.0285,11.2928,4.29805)"
font-family="Inter" font-size="11" font-weight="700" font-style="normal" 
>
<path vector-effect="none" fill-rule="nonzero" d="M235.334,52.7519 C230.145,52.7519 225.965,56.9314 225.965,62.1211 L225.965,102.215 L210.545,102.215 C191.496,102.215 176.161,116.28 176.161,133.752 L176.161,431.395 L231.118,431.395 C233.175,391.149 266.155,359.338 306.93,359.338 L514.625,359.338 C555.4,359.338 588.38,391.149 590.438,431.395 L645.395,431.395 L645.395,133.752 C645.395,116.28 630.059,102.215 611.01,102.215 L587.022,102.215 L587.022,62.1211 C587.022,56.9314 582.844,52.7519 577.655,52.7519 L453.467,52.7519 C448.277,52.7519 444.098,56.9314 444.098,62.1211 L444.098,102.215 L368.889,102.215 L368.889,62.1211 C368.889,56.9314 364.712,52.7519 359.522,52.7519 L235.334,52.7519 M176.161,439.258 L176.161,736.898 C176.161,754.37 191.496,768.437 210.545,768.437 L611.01,768.437 C630.059,768.437 645.395,754.37 645.395,736.898 L645.395,439.258 L590.442,439.258 C588.408,479.525 555.416,511.361 514.625,511.361 L489.325,511.361 C491.149,518.109 492.096,525.064 492.143,532.055 L492.143,532.08 C492.142,577.014 455.717,613.44 410.784,613.443 C365.85,613.447 329.42,577.026 329.412,532.092 C329.455,525.089 330.402,518.121 332.229,511.361 L306.93,511.361 C266.139,511.361 233.148,479.525 231.114,439.258 L176.161,439.258"/>
</g>

<g fill="#000000" fill-opacity="1" stroke="none" transform="matrix(0.0285,0,0,0.0285,11.2928,4.29805)"
font-family="Inter" font-size="11" font-weight="700" font-style="normal" 
>
<path vector-effect="none" fill-rule="nonzero" d="M306.93,362.297 C264.82,362.297 230.918,396.198 230.918,438.309 C230.918,480.419 264.82,514.32 306.93,514.32 L332.229,514.32 C330.402,521.08 329.455,528.048 329.412,535.051 C329.42,579.985 365.85,616.406 410.784,616.402 C455.717,616.399 492.142,579.973 492.143,535.039 L492.143,535.014 C492.096,528.023 491.149,521.068 489.325,514.32 L514.625,514.32 C556.736,514.32 590.637,480.419 590.637,438.309 C590.637,396.198 556.736,362.297 514.625,362.297 L306.93,362.297 M514.086,395.043 C536.554,395.038 554.772,413.247 554.778,435.715 L554.778,435.727 C554.777,458.193 536.565,476.407 514.098,476.408 C491.631,476.41 473.416,458.199 473.412,435.732 C473.409,413.265 491.619,395.048 514.086,395.043 L514.086,395.043 M308.393,395.045 C330.86,395.04 349.077,413.248 349.084,435.715 L349.084,435.727 C349.084,458.193 330.872,476.407 308.405,476.408 C285.938,476.41 267.723,458.199 267.719,435.732 C267.716,413.266 285.926,395.05 308.393,395.045 L308.393,395.045 M411.559,471.479 C446.146,471.471 474.192,499.503 474.202,534.09 L474.202,534.109 C474.201,568.697 446.164,596.736 411.577,596.738 C376.988,596.741 348.946,568.705 348.942,534.117 C348.937,499.529 376.971,471.485 411.559,471.479 L411.559,471.479"/>
</g>

<g fill="none" stroke="#000000" stroke-opacity="1" stroke-width="20" stroke-linecap="round" stroke-linejoin="round" transform="matrix(0.0285,0,0,0.0285,11.2928,4.44754)"
font-family="Inter" font-size="11" font-weight="700" font-style="normal" 
>
<path vector-effect="none" fill-rule="evenodd" d="M176.161,129.776 C176.161,112.358 190.281,98.2382 207.698,98.2382 L613.857,98.2382 C631.275,98.2382 645.395,112.358 645.395,129.776 L645.395,732.923 C645.395,750.341 631.275,764.461 613.857,764.461 L207.698,764.461 C190.281,764.461 176.161,750.341 176.161,732.923 L176.161,129.776"/>
</g>

<g fill="#ffffff" fill-opacity="1" stroke="none" transform="matrix(1,0,0,1,0,0)"
font-family="Inter" font-size="11" font-weight="700" font-style="normal" 
>
</g>

<g fill="#ffffff" fill-opacity="1" stroke="#0da6c5" stroke-opacity="1" stroke-width="1" stroke-linecap="square" stroke-linejoin="bevel" transform="matrix(1,0,0,1,0,0)"
font-family="Inter" font-size="11" font-weight="700" font-style="normal" 
>
<polyline fill="none" vector-effect="none" points="45,6 45,26 " />
</g>

<g fill="#ffffff" fill-opacity="1" stroke="#0da6c5" stroke-opacity="1" stroke-width="1" stroke-linecap="square" stroke-linejoin="bevel" transform="matrix(1,0,0,1,0,0)"
font-family="Inter" font-size="11" font-weight="700" font-style="normal" 
>
</g>

<g fill="#ffffff" fill-opacity="1" stroke="#0da6c5" stroke-opacity="1" stroke-width="1" stroke-linecap="square" stroke-linejoin="bevel" transform="matrix(1,0,0,1,0,0)"
font-family="Inter" font-size="11" font-weight="700" font-style="normal" 
>
</g>

<g fill="#1dccf0" fill-opacity="1" stroke="#0da6c5" stroke-opacity="1" stroke-width="1.2" stroke-linecap="square" stroke-linejoin="bevel" transform="matrix(1,0,0,1,56,4)"
font-family="Inter" font-size="11" font-weight="700" font-style="normal" 
>
<path vector-effect="none" fill-rule="evenodd" d="M0.5,3.5 C0.5,1.84315 1.84315,0.5 3.5,0.5 L71.5,0.5 C73.1569,0.5 74.5,1.84315 74.5,3.5 L74.5,20.5 C74.5,22.1569 73.1569,23.5 71.5,23.5 L3.5,23.5 C1.84315,23.5 0.5,22.1569 0.5,20.5 L0.5,3.5"/>
</g>

<g fill="#ffffff" fill-opacity="1" stroke="none" transform="matrix(1,0,0,1,56,4)"
font-family="Inter" font-size="11" font-weight="700" font-style="normal" 
>
<path vector-effect="none" fill-rule="nonzero" d="M10,9.39453 L10,8 L16.5703,8 L16.5703,9.39453 L14.1211,9.39453 L14.1211,16 L12.4492,16 L12.4492,9.39453 L10,9.39453 M17.6484,16 L17.6484,8 L19.3398,8 L19.3398,11.3008 L22.7734,11.3008 L22.7734,8 L24.4609,8 L24.4609,16 L22.7734,16 L22.7734,12.6953 L19.3398,12.6953 L19.3398,16 L17.6484,16 M32.543,8 L32.543,16 L31.082,16 L27.6016,10.9648 L27.543,10.9648 L27.543,16 L25.8516,16 L25.8516,8 L27.3359,8 L30.7891,13.0313 L30.8594,13.0313 L30.8594,8 L32.543,8 M33.9297,16 L33.9297,8 L35.6211,8 L35.6211,11.3008 L39.0547,11.3008 L39.0547,8 L40.7422,8 L40.7422,16 L39.0547,16 L39.0547,12.6953 L35.6211,12.6953 L35.6211,16 L33.9297,16 M42.1328,16 L42.1328,8 L45.3359,8 C45.9245,8 46.4154,8.08724 46.8086,8.26172 C47.2018,8.4362 47.4974,8.67773 47.6953,8.98633 C47.8932,9.29492 47.9922,9.64974 47.9922,10.0508 C47.9922,10.3633 47.9297,10.6374 47.8047,10.873 C47.6797,11.1087 47.5085,11.3014 47.291,11.4512 C47.0736,11.6009 46.8255,11.707 46.5469,11.7695 L46.5469,11.8477 C46.8516,11.8607 47.1374,11.9466 47.4043,12.1055 C47.6712,12.2643 47.888,12.4863 48.0547,12.7715 C48.2214,13.0566 48.3047,13.3958 48.3047,13.7891 C48.3047,14.2135 48.1999,14.5918 47.9902,14.9238 C47.7806,15.2559 47.4714,15.5182 47.0625,15.7109 C46.6536,15.9036 46.1497,16 45.5508,16 L42.1328,16 M43.8242,14.6172 L45.2031,14.6172 C45.6745,14.6172 46.0182,14.5267 46.2344,14.3457 C46.4505,14.1647 46.5586,13.9232 46.5586,13.6211 C46.5586,13.3997 46.5052,13.2044 46.3984,13.0352 C46.2917,12.8659 46.14,12.7331 45.9434,12.6367 C45.7467,12.5404 45.513,12.4922 45.2422,12.4922 L43.8242,12.4922 L43.8242,14.6172 M43.8242,11.3477 L45.0781,11.3477 C45.3099,11.3477 45.5163,11.3066 45.6973,11.2246 C45.8783,11.1426 46.0215,11.026 46.127,10.875 C46.2324,10.724 46.2852,10.543 46.2852,10.332 C46.2852,10.043 46.1829,9.8099 45.9785,9.63281 C45.7741,9.45573 45.4844,9.36719 45.1094,9.36719 L43.8242,9.36719 L43.8242,11.3477 M52.832,8 L52.832,16 L51.1406,16 L51.1406,9.60547 L51.0938,9.60547 L49.2617,10.7539 L49.2617,9.25391 L51.2422,8 L52.832,8"/>
</g>

<g fill="#ffffff" fill-opacity="1" stroke="none" transform="matrix(0.03125,0,0,0.03125,117,12)"
font-family="Inter" font-size="11" font-weight="700" font-style="normal" 
>
<path vector-effect="none" fill-rule="nonzero" d="M111.326,191.938 C120.545,201.158 135.517,201.158 144.737,191.938 L239.144,97.5313 C245.929,90.7458 247.921,80.6413 244.233,71.7907 C240.545,62.9401 231.989,57.1871 222.401,57.1871 L33.5875,57.2608 C24.0731,57.2608 15.4437,63.0137 11.7559,71.8644 C8.06815,80.715 10.1333,90.8195 16.845,97.605 L111.252,192.012 L111.326,191.938"/>
</g>

<g fill="none" stroke="#000000" stroke-opacity="1" stroke-width="13.7195" stroke-linecap="butt" stroke-linejoin="miter" stroke-miterlimit="4" transform="matrix(0.03125,0,0,0.03125,117,12)"
font-family="Inter" font-size="11" font-weight="700" font-style="normal" 
>
<path vector-effect="none" fill-rule="nonzero" d="M111.326,191.938 C120.545,201.158 135.517,201.158 144.737,191.938 L239.144,97.5313 C245.929,90.7458 247.921,80.6413 244.233,71.7907 C240.545,62.9401 231.989,57.1871 222.401,57.1871 L33.5875,57.2608 C24.0731,57.2608 15.4437,63.0137 11.7559,71.8644 C8.06815,80.715 10.1333,90.8195 16.845,97.605 L111.252,192.012 L111.326,191.938"/>
</g>

<g fill="#ffffff" fill-opacity="1" stroke="none" transform="matrix(1,0,0,1,56,4)"
font-family="Inter" font-size="11" font-weight="700" font-style="normal" 
>
</g>

<g fill="#ffffff" fill-opacity="1" stroke="#0da6c5" stroke-opacity="1" stroke-width="1" stroke-linecap="square" stroke-linejoin="bevel" transform="matrix(1,0,0,1,0,0)"
font-family="Inter" font-size="11" font-weight="700" font-style="normal" 
>
</g>

<g fill="#0da6c5" fill-opacity="1" stroke="#0da6c5" stroke-opacity="1" stroke-width="1.2" stroke-linecap="square" stroke-linejoin="bevel" transform="matrix(1,0,0,1,135,4)"
font-family="Inter" font-size="11" font-weight="700" font-style="normal" 
>
<path vector-effect="none" fill-rule="evenodd" d="M0.5,12 C0.5,5.64873 5.87258,0.5 12.5,0.5 L27.5,0.5 C34.1274,0.5 39.5,5.64873 39.5,12 C39.5,18.3513 34.1274,23.5 27.5,23.5 L12.5,23.5 C5.87258,23.5 0.5,18.3513 0.5,12 "/>
</g>

<g fill="#ffffff" fill-opacity="1" stroke="none" transform="matrix(1,0,0,1,135,4)"
font-family="Inter" font-size="11" font-weight="700" font-style="normal" 
>
<path vector-effect="none" fill-rule="nonzero" d="M11.8242,16 L10.0117,16 L12.7734,8 L14.9531,8 L17.7109,16 L15.8984,16 L13.8945,9.82813 L13.832,9.82813 L11.8242,16 M11.7109,12.8555 L15.9922,12.8555 L15.9922,14.1758 L11.7109,14.1758 L11.7109,12.8555"/>
</g>

<g fill="#ffffff" fill-opacity="1" stroke="none" transform="matrix(0.03125,0,0,0.03125,161,12)"
font-family="Inter" font-size="11" font-weight="700" font-style="normal" 
>
<path vector-effect="none" fill-rule="nonzero" d="M111.326,191.938 C120.545,201.158 135.517,201.158 144.737,191.938 L239.144,97.5313 C245.929,90.7458 247.921,80.6413 244.233,71.7907 C240.545,62.9401 231.989,57.1871 222.401,57.1871 L33.5875,57.2608 C24.0731,57.2608 15.4437,63.0137 11.7559,71.8644 C8.06815,80.715 10.1333,90.8195 16.845,97.605 L111.252,192.012 L111.326,191.938"/>
</g>

<g fill="none" stroke="#000000" stroke-opacity="1" stroke-width="13.7195" stroke-linecap="butt" stroke-linejoin="miter" stroke-miterlimit="4" transform="matrix(0.03125,0,0,0.03125,161,12)"
font-family="Inter" font-size="11" font-weight="700" font-style="normal" 
>
<path vector-effect="none" fill-rule="nonzero" d="M111.326,191.938 C120.545,201.158 135.517,201.158 144.737,191.938 L239.144,97.5313 C245.929,90.7458 247.921,80.6413 244.233,71.7907 C240.545,62.9401 231.989,57.1871 222.401,57.1871 L33.5875,57.2608 C24.0731,57.2608 15.4437,63.0137 11.7559,71.8644 C8.06815,80.715 10.1333,90.8195 16.845,97.605 L111.252,192.012 L111.326,191.938"/>
</g>

<g fill="#ffffff" fill-opacity="1" stroke="none" transform="matrix(1,0,0,1,135,4)"
font-family="Inter" font-size="11" font-weight="700" font-style="normal" 
>
</g>

<g fill="#ffffff" fill-opacity="1" stroke="#0da6c5" stroke-opacity="1" stroke-width="1" stroke-linecap="square" stroke-linejoin="bevel" transform="matrix(1,0,0,1,0,0)"
font-family="Inter" font-size="11" font-weight="700" font-style="normal" 
>
</g>

<g fill="none" stroke="#000000" stroke-opacity="1" stroke-width="1" stroke-linecap="square" stroke-linejoin="bevel" transform="matrix(1,0,0,1,0,0)"
font-family=".AppleSystemUIFont" font-size="13" font-weight="400" font-style="normal" 
>
</g>
</g>
</svg>
