<?xml version="1.0" encoding="UTF-8" standalone="no"?>
<svg width="43.7444mm" height="15.5222mm"
 viewBox="0 0 124 44"
 xmlns="http://www.w3.org/2000/svg" xmlns:xlink="http://www.w3.org/1999/xlink" version="1.2" baseProfile="tiny">
<title>Abstract block</title>
<desc>block_sensors_timer_reset</desc>
<defs>
</defs>
<g fill="none" stroke="black" stroke-width="1" fill-rule="evenodd" stroke-linecap="square" stroke-linejoin="bevel" >

<g fill="none" stroke="#000000" stroke-opacity="1" stroke-width="1" stroke-linecap="square" stroke-linejoin="bevel" transform="matrix(1,0,0,1,0,0)"
font-family=".AppleSystemUIFont" font-size="13" font-weight="400" font-style="normal" 
>
</g>

<g fill="none" stroke="#000000" stroke-opacity="1" stroke-width="1" stroke-linecap="square" stroke-linejoin="bevel" transform="matrix(1,0,0,1,0,0)"
font-family=".AppleSystemUIFont" font-size="13" font-weight="400" font-style="normal" 
>
</g>

<g fill="#1dccf0" fill-opacity="1" stroke="#0da6c5" stroke-opacity="1" stroke-width="1.2" stroke-linecap="square" stroke-linejoin="bevel" transform="matrix(1,0,0,1,0,0)"
font-family=".AppleSystemUIFont" font-size="13" font-weight="400" font-style="normal" 
>
<path vector-effect="none" fill-rule="evenodd" d="M0.5,4.5 L1.04612,2.48112 L2.48112,1.04612 L4.5,0.5 L9.625,0.5 L10.416,0.976563 L11.1719,1.6875 L11.998,2.67969 L13,4 L13.7559,4.66016 L14.5469,5.15625 L15.4082,5.51172 L16.375,5.75 L17.4824,5.89453 L18.7656,5.96875 L20.2598,5.99609 L22,6 L23.7402,5.99609 L25.2344,5.96875 L26.5176,5.89453 L27.625,5.75 L28.5918,5.51172 L29.4531,5.15625 L30.2441,4.66016 L31,4 L32.002,2.67969 L32.8281,1.6875 L33.584,0.976563 L34.375,0.5 L119,0.5 L121.019,1.04612 L122.454,2.48112 L123,4.5 L123,31.5 L122.454,33.5189 L121.019,34.9539 L119,35.5 L34.375,35.5 L33.584,35.9766 L32.8281,36.6875 L32.002,37.6797 L31,39 L30.2441,39.6602 L29.4531,40.1563 L28.5918,40.5117 L27.625,40.75 L26.5176,40.8945 L25.2344,40.9688 L23.7402,40.9961 L22,41 L20.2598,40.9961 L18.7656,40.9688 L17.4824,40.8945 L16.375,40.75 L15.4082,40.5117 L14.5469,40.1563 L13.7559,39.6602 L13,39 L11.998,37.6797 L11.1719,36.6875 L10.416,35.9766 L9.625,35.5 L4.5,35.5 L2.48112,34.9539 L1.04612,33.5189 L0.5,31.5 L0.5,4.5"/>
</g>

<g fill="#ffffff" fill-opacity="1" stroke="none" transform="matrix(1,0,0,1,0,0)"
font-family="Inter" font-size="11" font-weight="700" font-style="normal" 
>
<path vector-effect="none" fill-rule="nonzero" d="M52.0078,21.9531 L52.0078,15.9531 L53.6211,15.9531 L53.6211,17 L53.6836,17 C53.793,16.6276 53.9766,16.3457 54.2344,16.1543 C54.4922,15.9629 54.7891,15.8672 55.125,15.8672 C55.2083,15.8672 55.2982,15.8724 55.3945,15.8828 C55.4909,15.8932 55.5755,15.9076 55.6484,15.9258 L55.6484,17.4023 C55.5703,17.3789 55.4622,17.3581 55.3242,17.3398 C55.1862,17.3216 55.0599,17.3125 54.9453,17.3125 C54.7005,17.3125 54.4824,17.3652 54.291,17.4707 C54.0996,17.5762 53.9486,17.7227 53.8379,17.9102 C53.7272,18.0977 53.6719,18.3138 53.6719,18.5586 L53.6719,21.9531 L52.0078,21.9531 M58.9453,22.0703 C58.3281,22.0703 57.7975,21.9447 57.3535,21.6934 C56.9095,21.4421 56.5677,21.0853 56.3281,20.623 C56.0885,20.1608 55.9688,19.6133 55.9688,18.9805 C55.9688,18.3633 56.0885,17.8216 56.3281,17.3555 C56.5677,16.8893 56.9056,16.526 57.3418,16.2656 C57.778,16.0052 58.2904,15.875 58.8789,15.875 C59.2747,15.875 59.6439,15.9382 59.9863,16.0645 C60.3288,16.1908 60.6283,16.3802 60.8848,16.6328 C61.1413,16.8854 61.3411,17.2025 61.4844,17.584 C61.6276,17.9655 61.6992,18.4115 61.6992,18.9219 L61.6992,19.3789 L56.6328,19.3789 L56.6328,18.3477 L60.1328,18.3477 C60.1328,18.1081 60.0807,17.8958 59.9766,17.7109 C59.8724,17.526 59.7285,17.3809 59.5449,17.2754 C59.3613,17.1699 59.1484,17.1172 58.9063,17.1172 C58.6536,17.1172 58.4303,17.1751 58.2363,17.291 C58.0423,17.4069 57.8906,17.5618 57.7813,17.7559 C57.6719,17.9499 57.6159,18.1654 57.6133,18.4023 L57.6133,19.3828 C57.6133,19.6797 57.6686,19.9362 57.7793,20.1523 C57.89,20.3685 58.0469,20.5352 58.25,20.6523 C58.4531,20.7695 58.694,20.8281 58.9727,20.8281 C59.1576,20.8281 59.3268,20.8021 59.4805,20.75 C59.6341,20.6979 59.7656,20.6198 59.875,20.5156 C59.9844,20.4115 60.0677,20.2839 60.125,20.1328 L61.6641,20.2344 C61.5859,20.6042 61.4264,20.9264 61.1855,21.2012 C60.9447,21.4759 60.6348,21.6895 60.2559,21.8418 C59.877,21.9941 59.4401,22.0703 58.9453,22.0703 M67.7656,17.6641 L66.2422,17.7578 C66.2161,17.6276 66.1602,17.5098 66.0742,17.4043 C65.9883,17.2988 65.8757,17.2142 65.7363,17.1504 C65.597,17.0866 65.431,17.0547 65.2383,17.0547 C64.9805,17.0547 64.763,17.1087 64.5859,17.2168 C64.4089,17.3249 64.3203,17.4688 64.3203,17.6484 C64.3203,17.7917 64.3776,17.9128 64.4922,18.0117 C64.6068,18.1107 64.8034,18.1901 65.082,18.25 L66.168,18.4688 C66.7513,18.5885 67.1862,18.7813 67.4727,19.0469 C67.7591,19.3125 67.9023,19.6615 67.9023,20.0938 C67.9023,20.487 67.7871,20.832 67.5566,21.1289 C67.3262,21.4258 67.0111,21.6569 66.6113,21.8223 C66.2116,21.9876 65.7513,22.0703 65.2305,22.0703 C64.4362,22.0703 63.804,21.9043 63.334,21.5723 C62.8639,21.2402 62.5885,20.7878 62.5078,20.2148 L64.1445,20.1289 C64.194,20.3711 64.3138,20.5553 64.5039,20.6816 C64.694,20.8079 64.9375,20.8711 65.2344,20.8711 C65.526,20.8711 65.7611,20.8145 65.9395,20.7012 C66.1178,20.5879 66.2083,20.4414 66.2109,20.2617 C66.2083,20.1107 66.1445,19.9863 66.0195,19.8887 C65.8945,19.791 65.7018,19.7161 65.4414,19.6641 L64.4023,19.457 C63.8164,19.3398 63.3809,19.1367 63.0957,18.8477 C62.8105,18.5586 62.668,18.1901 62.668,17.7422 C62.668,17.3568 62.7728,17.0247 62.9824,16.7461 C63.1921,16.4674 63.4876,16.2526 63.8691,16.1016 C64.2507,15.9505 64.6979,15.875 65.2109,15.875 C65.9688,15.875 66.5658,16.0352 67.002,16.3555 C67.4382,16.6758 67.6927,17.112 67.7656,17.6641 M71.6797,22.0703 C71.0625,22.0703 70.5319,21.9447 70.0879,21.6934 C69.6439,21.4421 69.3021,21.0853 69.0625,20.623 C68.8229,20.1608 68.7031,19.6133 68.7031,18.9805 C68.7031,18.3633 68.8229,17.8216 69.0625,17.3555 C69.3021,16.8893 69.64,16.526 70.0762,16.2656 C70.5124,16.0052 71.0247,15.875 71.6133,15.875 C72.0091,15.875 72.3783,15.9382 72.7207,16.0645 C73.0632,16.1908 73.3626,16.3802 73.6191,16.6328 C73.8757,16.8854 74.0755,17.2025 74.2188,17.584 C74.362,17.9655 74.4336,18.4115 74.4336,18.9219 L74.4336,19.3789 L69.3672,19.3789 L69.3672,18.3477 L72.8672,18.3477 C72.8672,18.1081 72.8151,17.8958 72.7109,17.7109 C72.6068,17.526 72.4629,17.3809 72.2793,17.2754 C72.0957,17.1699 71.8828,17.1172 71.6406,17.1172 C71.388,17.1172 71.1647,17.1751 70.9707,17.291 C70.7767,17.4069 70.625,17.5618 70.5156,17.7559 C70.4063,17.9499 70.3503,18.1654 70.3477,18.4023 L70.3477,19.3828 C70.3477,19.6797 70.403,19.9362 70.5137,20.1523 C70.6243,20.3685 70.7813,20.5352 70.9844,20.6523 C71.1875,20.7695 71.4284,20.8281 71.707,20.8281 C71.8919,20.8281 72.0612,20.8021 72.2148,20.75 C72.3685,20.6979 72.5,20.6198 72.6094,20.5156 C72.7188,20.4115 72.8021,20.2839 72.8594,20.1328 L74.3984,20.2344 C74.3203,20.6042 74.1608,20.9264 73.9199,21.2012 C73.679,21.4759 73.3691,21.6895 72.9902,21.8418 C72.6113,21.9941 72.1745,22.0703 71.6797,22.0703 M78.6992,15.9531 L78.6992,17.2031 L75.0859,17.2031 L75.0859,15.9531 L78.6992,15.9531 M75.9063,14.5156 L77.5703,14.5156 L77.5703,20.1094 C77.5703,20.263 77.5938,20.3822 77.6406,20.4668 C77.6875,20.5514 77.7533,20.6107 77.8379,20.6445 C77.9225,20.6784 78.0208,20.6953 78.1328,20.6953 C78.2109,20.6953 78.2891,20.6882 78.3672,20.6738 C78.4453,20.6595 78.5052,20.6484 78.5469,20.6406 L78.8086,21.8789 C78.7253,21.9049 78.6081,21.9355 78.457,21.9707 C78.306,22.0059 78.1224,22.0273 77.9063,22.0352 C77.5052,22.0508 77.1543,21.9974 76.8535,21.875 C76.5527,21.7526 76.319,21.5625 76.1523,21.3047 C75.9857,21.0469 75.9036,20.7214 75.9063,20.3281 L75.9063,14.5156 M85.5117,15.9531 L85.5117,17.2031 L81.8984,17.2031 L81.8984,15.9531 L85.5117,15.9531 M82.7188,14.5156 L84.3828,14.5156 L84.3828,20.1094 C84.3828,20.263 84.4063,20.3822 84.4531,20.4668 C84.5,20.5514 84.5658,20.6107 84.6504,20.6445 C84.735,20.6784 84.8333,20.6953 84.9453,20.6953 C85.0234,20.6953 85.1016,20.6882 85.1797,20.6738 C85.2578,20.6595 85.3177,20.6484 85.3594,20.6406 L85.6211,21.8789 C85.5378,21.9049 85.4206,21.9355 85.2695,21.9707 C85.1185,22.0059 84.9349,22.0273 84.7188,22.0352 C84.3177,22.0508 83.9668,21.9974 83.666,21.875 C83.3652,21.7526 83.1315,21.5625 82.9648,21.3047 C82.7982,21.0469 82.7161,20.7214 82.7188,20.3281 L82.7188,14.5156 M86.5859,21.9531 L86.5859,15.9531 L88.25,15.9531 L88.25,21.9531 L86.5859,21.9531 M87.4219,15.1797 C87.1745,15.1797 86.9629,15.097 86.7871,14.9316 C86.6113,14.7663 86.5234,14.5677 86.5234,14.3359 C86.5234,14.1068 86.6113,13.9095 86.7871,13.7441 C86.9629,13.5788 87.1745,13.4961 87.4219,13.4961 C87.6693,13.4961 87.8809,13.5788 88.0566,13.7441 C88.2324,13.9095 88.3203,14.1068 88.3203,14.3359 C88.3203,14.5677 88.2324,14.7663 88.0566,14.9316 C87.8809,15.097 87.6693,15.1797 87.4219,15.1797 M89.5703,21.9531 L89.5703,15.9531 L91.1563,15.9531 L91.1563,17.0117 L91.2266,17.0117 C91.3516,16.6602 91.5599,16.3828 91.8516,16.1797 C92.1432,15.9766 92.4922,15.875 92.8984,15.875 C93.3099,15.875 93.6602,15.9772 93.9492,16.1816 C94.2383,16.3861 94.431,16.6628 94.5273,17.0117 L94.5898,17.0117 C94.7122,16.668 94.9342,16.3926 95.2559,16.1855 C95.5775,15.9785 95.9583,15.875 96.3984,15.875 C96.9583,15.875 97.4134,16.0527 97.7637,16.4082 C98.1139,16.7637 98.2891,17.2669 98.2891,17.918 L98.2891,21.9531 L96.6289,21.9531 L96.6289,18.2461 C96.6289,17.9128 96.5404,17.6628 96.3633,17.4961 C96.1862,17.3294 95.9648,17.2461 95.6992,17.2461 C95.3971,17.2461 95.1615,17.3418 94.9922,17.5332 C94.8229,17.7246 94.7383,17.9766 94.7383,18.2891 L94.7383,21.9531 L93.125,21.9531 L93.125,18.2109 C93.125,17.9167 93.041,17.6823 92.873,17.5078 C92.7051,17.3333 92.4844,17.2461 92.2109,17.2461 C92.026,17.2461 91.86,17.2923 91.7129,17.3848 C91.5658,17.4772 91.4492,17.6061 91.3633,17.7715 C91.2773,17.9368 91.2344,18.1302 91.2344,18.3516 L91.2344,21.9531 L89.5703,21.9531 M102.336,22.0703 C101.719,22.0703 101.188,21.9447 100.744,21.6934 C100.3,21.4421 99.9583,21.0853 99.7188,20.623 C99.4792,20.1608 99.3594,19.6133 99.3594,18.9805 C99.3594,18.3633 99.4792,17.8216 99.7188,17.3555 C99.9583,16.8893 100.296,16.526 100.732,16.2656 C101.169,16.0052 101.681,15.875 102.27,15.875 C102.665,15.875 103.035,15.9382 103.377,16.0645 C103.719,16.1908 104.019,16.3802 104.275,16.6328 C104.532,16.8854 104.732,17.2025 104.875,17.584 C105.018,17.9655 105.09,18.4115 105.09,18.9219 L105.09,19.3789 L100.023,19.3789 L100.023,18.3477 L103.523,18.3477 C103.523,18.1081 103.471,17.8958 103.367,17.7109 C103.263,17.526 103.119,17.3809 102.936,17.2754 C102.752,17.1699 102.539,17.1172 102.297,17.1172 C102.044,17.1172 101.821,17.1751 101.627,17.291 C101.433,17.4069 101.281,17.5618 101.172,17.7559 C101.063,17.9499 101.007,18.1654 101.004,18.4023 L101.004,19.3828 C101.004,19.6797 101.059,19.9362 101.17,20.1523 C101.281,20.3685 101.438,20.5352 101.641,20.6523 C101.844,20.7695 102.085,20.8281 102.363,20.8281 C102.548,20.8281 102.717,20.8021 102.871,20.75 C103.025,20.6979 103.156,20.6198 103.266,20.5156 C103.375,20.4115 103.458,20.2839 103.516,20.1328 L105.055,20.2344 C104.977,20.6042 104.817,20.9264 104.576,21.2012 C104.335,21.4759 104.025,21.6895 103.646,21.8418 C103.268,21.9941 102.831,22.0703 102.336,22.0703 M106.164,21.9531 L106.164,15.9531 L107.777,15.9531 L107.777,17 L107.84,17 C107.949,16.6276 108.133,16.3457 108.391,16.1543 C108.648,15.9629 108.945,15.8672 109.281,15.8672 C109.365,15.8672 109.454,15.8724 109.551,15.8828 C109.647,15.8932 109.732,15.9076 109.805,15.9258 L109.805,17.4023 C109.727,17.3789 109.618,17.3581 109.48,17.3398 C109.342,17.3216 109.216,17.3125 109.102,17.3125 C108.857,17.3125 108.639,17.3652 108.447,17.4707 C108.256,17.5762 108.105,17.7227 107.994,17.9102 C107.883,18.0977 107.828,18.3138 107.828,18.5586 L107.828,21.9531 L106.164,21.9531"/>
</g>

<g fill="#ffffff" fill-opacity="1" stroke="none" transform="matrix(0.228,0,0,0.228,11.6,9.6)"
font-family="Inter" font-size="11" font-weight="700" font-style="normal" 
>
<path vector-effect="none" fill-rule="nonzero" d="M49.3926,21.0274 C30.9317,21.0274 15.9662,35.993 15.9662,54.4539 C15.9662,72.9148 30.9317,87.8804 49.3926,87.8804 C67.8536,87.8804 82.8191,72.9148 82.8191,54.4539 C82.8191,35.993 67.8536,21.0274 49.3926,21.0274 M48.5439,26.4972 C59.3973,26.4982 69.3182,32.6325 74.1689,42.3416 C79.0197,52.051 77.9669,63.6681 71.4496,72.3472 L48.5418,55.1452 L48.5439,26.4972"/>
</g>

<g fill="none" stroke="#000000" stroke-opacity="1" stroke-width="2.49917" stroke-linecap="butt" stroke-linejoin="miter" stroke-miterlimit="4" transform="matrix(0.228,0,0,0.228,11.6,9.6)"
font-family="Inter" font-size="11" font-weight="700" font-style="normal" 
>
<path vector-effect="none" fill-rule="nonzero" d="M49.3926,21.0274 C30.9317,21.0274 15.9662,35.993 15.9662,54.4539 C15.9662,72.9148 30.9317,87.8804 49.3926,87.8804 C67.8536,87.8804 82.8191,72.9148 82.8191,54.4539 C82.8191,35.993 67.8536,21.0274 49.3926,21.0274 M48.5439,26.4972 C59.3973,26.4982 69.3182,32.6325 74.1689,42.3416 C79.0197,52.051 77.9669,63.6681 71.4496,72.3472 L48.5418,55.1452 L48.5439,26.4972"/>
</g>

<g fill="#000000" fill-opacity="1" stroke="none" transform="matrix(0.228,0,0,0.228,11.6,9.6)"
font-family="Inter" font-size="11" font-weight="700" font-style="normal" 
>
<path vector-effect="none" fill-rule="evenodd" d="M39.0548,10.7644 C39.0548,8.56028 40.8416,6.77345 43.0458,6.77345 L56.0702,6.77345 C58.2744,6.77345 60.0612,8.56028 60.0612,10.7644 L60.0612,10.7644 C60.0612,12.9686 58.2744,14.7554 56.0702,14.7554 L43.0458,14.7554 C40.8416,14.7554 39.0548,12.9686 39.0548,10.7644 L39.0548,10.7644"/>
</g>

<g fill="none" stroke="#000000" stroke-opacity="1" stroke-width="2.77686" stroke-linecap="butt" stroke-linejoin="miter" stroke-miterlimit="4" transform="matrix(0.228,0,0,0.228,11.6,9.6)"
font-family="Inter" font-size="11" font-weight="700" font-style="normal" 
>
<path vector-effect="none" fill-rule="evenodd" d="M39.0548,10.7644 C39.0548,8.56028 40.8416,6.77345 43.0458,6.77345 L56.0702,6.77345 C58.2744,6.77345 60.0612,8.56028 60.0612,10.7644 L60.0612,10.7644 C60.0612,12.9686 58.2744,14.7554 56.0702,14.7554 L43.0458,14.7554 C40.8416,14.7554 39.0548,12.9686 39.0548,10.7644 L39.0548,10.7644"/>
</g>

<g fill="#000000" fill-opacity="1" stroke="none" transform="matrix(0.150926,0.170896,-0.175908,0.145053,11.6,9.6)"
font-family="Inter" font-size="11" font-weight="700" font-style="normal" 
>
<path vector-effect="none" fill-rule="evenodd" d="M63.4652,-45.7713 C63.4652,-47.1137 64.5534,-48.202 65.8959,-48.202 L77.9731,-48.202 C79.3156,-48.202 80.4038,-47.1137 80.4038,-45.7713 C80.4038,-44.4288 79.3156,-43.3406 77.9731,-43.3406 L65.8959,-43.3406 C64.5534,-43.3406 63.4652,-44.4288 63.4652,-45.7713 "/>
</g>

<g fill="none" stroke="#000000" stroke-opacity="1" stroke-width="2.77766" stroke-linecap="butt" stroke-linejoin="miter" stroke-miterlimit="4" transform="matrix(0.150926,0.170896,-0.175908,0.145053,11.6,9.6)"
font-family="Inter" font-size="11" font-weight="700" font-style="normal" 
>
<path vector-effect="none" fill-rule="evenodd" d="M63.4652,-45.7713 C63.4652,-47.1137 64.5534,-48.202 65.8959,-48.202 L77.9731,-48.202 C79.3156,-48.202 80.4038,-47.1137 80.4038,-45.7713 C80.4038,-44.4288 79.3156,-43.3406 77.9731,-43.3406 L65.8959,-43.3406 C64.5534,-43.3406 63.4652,-44.4288 63.4652,-45.7713 "/>
</g>

<g fill="#ffffff" fill-opacity="1" stroke="none" transform="matrix(0.176518,0.14431,-0.135264,0.183542,11.6,9.6)"
font-family="Inter" font-size="11" font-weight="700" font-style="normal" 
>
<path vector-effect="none" fill-rule="evenodd" d="M70.5863,11.9198 C70.5863,11.4223 70.9896,11.019 71.4871,11.019 L100.712,11.019 C101.21,11.019 101.613,11.4223 101.613,11.9198 L101.613,11.9198 C101.613,12.4173 101.21,12.8206 100.712,12.8206 L71.4871,12.8206 C70.9896,12.8206 70.5863,12.4173 70.5863,11.9198 L70.5863,11.9198"/>
</g>

<g fill="none" stroke="#000000" stroke-opacity="1" stroke-width="3.6122" stroke-linecap="butt" stroke-linejoin="miter" stroke-miterlimit="4" transform="matrix(0.176518,0.14431,-0.135264,0.183542,11.6,9.6)"
font-family="Inter" font-size="11" font-weight="700" font-style="normal" 
>
<path vector-effect="none" fill-rule="evenodd" d="M70.5863,11.9198 C70.5863,11.4223 70.9896,11.019 71.4871,11.019 L100.712,11.019 C101.21,11.019 101.613,11.4223 101.613,11.9198 L101.613,11.9198 C101.613,12.4173 101.21,12.8206 100.712,12.8206 L71.4871,12.8206 C70.9896,12.8206 70.5863,12.4173 70.5863,11.9198 L70.5863,11.9198"/>
</g>

<g fill="#ffffff" fill-opacity="1" stroke="none" transform="matrix(1,0,0,1,0,0)"
font-family="Inter" font-size="11" font-weight="700" font-style="normal" 
>
</g>

<g fill="#ffffff" fill-opacity="1" stroke="#0da6c5" stroke-opacity="1" stroke-width="1" stroke-linecap="square" stroke-linejoin="bevel" transform="matrix(1,0,0,1,0,0)"
font-family="Inter" font-size="11" font-weight="700" font-style="normal" 
>
<polyline fill="none" vector-effect="none" points="45,11 45,31 " />
</g>

<g fill="#ffffff" fill-opacity="1" stroke="#0da6c5" stroke-opacity="1" stroke-width="1" stroke-linecap="square" stroke-linejoin="bevel" transform="matrix(1,0,0,1,0,0)"
font-family="Inter" font-size="11" font-weight="700" font-style="normal" 
>
</g>

<g fill="#ffffff" fill-opacity="1" stroke="#0da6c5" stroke-opacity="1" stroke-width="1" stroke-linecap="square" stroke-linejoin="bevel" transform="matrix(1,0,0,1,0,0)"
font-family="Inter" font-size="11" font-weight="700" font-style="normal" 
>
</g>

<g fill="none" stroke="#000000" stroke-opacity="1" stroke-width="1" stroke-linecap="square" stroke-linejoin="bevel" transform="matrix(1,0,0,1,0,0)"
font-family=".AppleSystemUIFont" font-size="13" font-weight="400" font-style="normal" 
>
</g>
</g>
</svg>
