<?xml version="1.0" encoding="UTF-8" standalone="no"?>
<svg width="129.469mm" height="11.2889mm"
 viewBox="0 0 367 32"
 xmlns="http://www.w3.org/2000/svg" xmlns:xlink="http://www.w3.org/1999/xlink" version="1.2" baseProfile="tiny">
<title>Abstract block</title>
<desc>block_hubs_all_sensors_port_technic_sensor_when_ambient_light_is</desc>
<defs>
</defs>
<g fill="none" stroke="black" stroke-width="1" fill-rule="evenodd" stroke-linecap="square" stroke-linejoin="bevel" >

<g fill="none" stroke="#000000" stroke-opacity="1" stroke-width="1" stroke-linecap="square" stroke-linejoin="bevel" transform="matrix(1,0,0,1,0,0)"
font-family=".AppleSystemUIFont" font-size="13" font-weight="400" font-style="normal" 
>
</g>

<g fill="none" stroke="#000000" stroke-opacity="1" stroke-width="1" stroke-linecap="square" stroke-linejoin="bevel" transform="matrix(1,0,0,1,0,0)"
font-family=".AppleSystemUIFont" font-size="13" font-weight="400" font-style="normal" 
>
</g>

<g fill="#1dccf0" fill-opacity="1" stroke="#0da6c5" stroke-opacity="1" stroke-width="1.2" stroke-linecap="square" stroke-linejoin="bevel" transform="matrix(1,0,0,1,0,0)"
font-family=".AppleSystemUIFont" font-size="13" font-weight="400" font-style="normal" 
>
<path vector-effect="none" fill-rule="evenodd" d="M0,16 L16,0 L350.9,0 L366.9,16 L350.9,32 L16,32 L0,16"/>
</g>

<g fill="#ffffff" fill-opacity="1" stroke="none" transform="matrix(1,0,0,1,0,0)"
font-family="Inter" font-size="11" font-weight="700" font-style="normal" 
>
<path vector-effect="none" fill-rule="nonzero" d="M182.828,19.1133 C182.445,19.1133 182.104,19.0462 181.805,18.9121 C181.505,18.778 181.269,18.5788 181.096,18.3145 C180.923,18.0501 180.836,17.7201 180.836,17.3242 C180.836,16.9909 180.897,16.7109 181.02,16.4844 C181.142,16.2578 181.309,16.0755 181.52,15.9375 C181.73,15.7995 181.971,15.6953 182.24,15.625 C182.51,15.5547 182.793,15.5052 183.09,15.4766 C183.439,15.4401 183.72,15.4056 183.934,15.373 C184.147,15.3405 184.302,15.2917 184.398,15.2266 C184.495,15.1615 184.543,15.0651 184.543,14.9375 L184.543,14.9141 C184.543,14.6667 184.465,14.4753 184.311,14.3398 C184.156,14.2044 183.936,14.1367 183.652,14.1367 C183.353,14.1367 183.115,14.2025 182.938,14.334 C182.76,14.4655 182.643,14.6302 182.586,14.8281 L181.047,14.7031 C181.125,14.3385 181.279,14.0228 181.508,13.7559 C181.737,13.4889 182.033,13.2832 182.396,13.1387 C182.76,12.9941 183.181,12.9219 183.66,12.9219 C183.993,12.9219 184.313,12.9609 184.619,13.0391 C184.925,13.1172 185.197,13.2383 185.436,13.4023 C185.674,13.5664 185.862,13.7767 186,14.0332 C186.138,14.2897 186.207,14.5964 186.207,14.9531 L186.207,19 L184.629,19 L184.629,18.168 L184.582,18.168 C184.486,18.3555 184.357,18.5202 184.195,18.6621 C184.034,18.804 183.84,18.9147 183.613,18.9941 C183.387,19.0736 183.125,19.1133 182.828,19.1133 M183.305,17.9648 C183.549,17.9648 183.766,17.916 183.953,17.8184 C184.141,17.7207 184.288,17.5885 184.395,17.4219 C184.501,17.2552 184.555,17.0664 184.555,16.8555 L184.555,16.2188 C184.503,16.2526 184.432,16.2832 184.342,16.3105 C184.252,16.3379 184.151,16.3626 184.039,16.3848 C183.927,16.4069 183.815,16.4264 183.703,16.4434 C183.591,16.4603 183.49,16.4753 183.398,16.4883 C183.203,16.5169 183.033,16.5625 182.887,16.625 C182.741,16.6875 182.628,16.7715 182.547,16.877 C182.466,16.9824 182.426,17.1133 182.426,17.2695 C182.426,17.4961 182.508,17.6686 182.674,17.7871 C182.839,17.9056 183.049,17.9648 183.305,17.9648 M187.492,19 L187.492,13 L189.078,13 L189.078,14.0586 L189.148,14.0586 C189.273,13.707 189.482,13.4297 189.773,13.2266 C190.065,13.0234 190.414,12.9219 190.82,12.9219 C191.232,12.9219 191.582,13.0241 191.871,13.2285 C192.16,13.4329 192.353,13.7096 192.449,14.0586 L192.512,14.0586 C192.634,13.7148 192.856,13.4395 193.178,13.2324 C193.499,13.0254 193.88,12.9219 194.32,12.9219 C194.88,12.9219 195.335,13.0996 195.686,13.4551 C196.036,13.8105 196.211,14.3138 196.211,14.9648 L196.211,19 L194.551,19 L194.551,15.293 C194.551,14.9596 194.462,14.7096 194.285,14.543 C194.108,14.3763 193.887,14.293 193.621,14.293 C193.319,14.293 193.083,14.3887 192.914,14.5801 C192.745,14.7715 192.66,15.0234 192.66,15.3359 L192.66,19 L191.047,19 L191.047,15.2578 C191.047,14.9635 190.963,14.7292 190.795,14.5547 C190.627,14.3802 190.406,14.293 190.133,14.293 C189.948,14.293 189.782,14.3392 189.635,14.4316 C189.488,14.5241 189.371,14.653 189.285,14.8184 C189.199,14.9837 189.156,15.1771 189.156,15.3984 L189.156,19 L187.492,19 M197.555,19 L197.555,11 L199.219,11 L199.219,14.0078 L199.27,14.0078 C199.342,13.8464 199.449,13.6816 199.588,13.5137 C199.727,13.3457 199.91,13.2051 200.135,13.0918 C200.36,12.9785 200.641,12.9219 200.977,12.9219 C201.414,12.9219 201.818,13.0358 202.188,13.2637 C202.557,13.4915 202.853,13.834 203.074,14.291 C203.296,14.748 203.406,15.3203 203.406,16.0078 C203.406,16.6771 203.299,17.2415 203.084,17.7012 C202.869,18.1608 202.577,18.5085 202.209,18.7441 C201.84,18.9798 201.428,19.0977 200.973,19.0977 C200.65,19.0977 200.376,19.0443 200.15,18.9375 C199.925,18.8307 199.741,18.696 199.598,18.5332 C199.454,18.3704 199.345,18.2057 199.27,18.0391 L199.195,18.0391 L199.195,19 L197.555,19 M199.184,16 C199.184,16.3568 199.233,16.668 199.332,16.9336 C199.431,17.1992 199.574,17.4056 199.762,17.5527 C199.949,17.6999 200.177,17.7734 200.445,17.7734 C200.716,17.7734 200.945,17.6986 201.133,17.5488 C201.32,17.3991 201.463,17.1908 201.561,16.9238 C201.658,16.6569 201.707,16.349 201.707,16 C201.707,15.6536 201.659,15.349 201.563,15.0859 C201.466,14.8229 201.324,14.6172 201.137,14.4688 C200.949,14.3203 200.719,14.2461 200.445,14.2461 C200.174,14.2461 199.946,14.3177 199.76,14.4609 C199.574,14.6042 199.431,14.8073 199.332,15.0703 C199.233,15.3333 199.184,15.6432 199.184,16 M204.508,19 L204.508,13 L206.172,13 L206.172,19 L204.508,19 M205.344,12.2266 C205.096,12.2266 204.885,12.1439 204.709,11.9785 C204.533,11.8132 204.445,11.6146 204.445,11.3828 C204.445,11.1536 204.533,10.9564 204.709,10.791 C204.885,10.6257 205.096,10.543 205.344,10.543 C205.591,10.543 205.803,10.6257 205.979,10.791 C206.154,10.9564 206.242,11.1536 206.242,11.3828 C206.242,11.6146 206.154,11.8132 205.979,11.9785 C205.803,12.1439 205.591,12.2266 205.344,12.2266 M210.227,19.1172 C209.609,19.1172 209.079,18.9915 208.635,18.7402 C208.191,18.4889 207.849,18.1322 207.609,17.6699 C207.37,17.2077 207.25,16.6602 207.25,16.0273 C207.25,15.4102 207.37,14.8685 207.609,14.4023 C207.849,13.9362 208.187,13.5729 208.623,13.3125 C209.059,13.0521 209.572,12.9219 210.16,12.9219 C210.556,12.9219 210.925,12.985 211.268,13.1113 C211.61,13.2376 211.91,13.4271 212.166,13.6797 C212.423,13.9323 212.622,14.2493 212.766,14.6309 C212.909,15.0124 212.98,15.4583 212.98,15.9688 L212.98,16.4258 L207.914,16.4258 L207.914,15.3945 L211.414,15.3945 C211.414,15.1549 211.362,14.9427 211.258,14.7578 C211.154,14.5729 211.01,14.4277 210.826,14.3223 C210.643,14.2168 210.43,14.1641 210.188,14.1641 C209.935,14.1641 209.712,14.222 209.518,14.3379 C209.324,14.4538 209.172,14.6087 209.063,14.8027 C208.953,14.9967 208.897,15.2122 208.895,15.4492 L208.895,16.4297 C208.895,16.7266 208.95,16.9831 209.061,17.1992 C209.171,17.4154 209.328,17.582 209.531,17.6992 C209.734,17.8164 209.975,17.875 210.254,17.875 C210.439,17.875 210.608,17.849 210.762,17.7969 C210.915,17.7448 211.047,17.6667 211.156,17.5625 C211.266,17.4583 211.349,17.3307 211.406,17.1797 L212.945,17.2813 C212.867,17.651 212.708,17.9733 212.467,18.248 C212.226,18.5228 211.916,18.7363 211.537,18.8887 C211.158,19.041 210.721,19.1172 210.227,19.1172 M215.719,15.5313 L215.719,19 L214.055,19 L214.055,13 L215.641,13 L215.641,14.0586 L215.711,14.0586 C215.844,13.7096 216.066,13.4329 216.379,13.2285 C216.691,13.0241 217.07,12.9219 217.516,12.9219 C217.932,12.9219 218.296,13.013 218.605,13.1953 C218.915,13.3776 219.156,13.6374 219.328,13.9746 C219.5,14.3118 219.586,14.7135 219.586,15.1797 L219.586,19 L217.922,19 L217.922,15.4766 C217.924,15.1094 217.831,14.8223 217.641,14.6152 C217.451,14.4082 217.189,14.3047 216.855,14.3047 C216.632,14.3047 216.434,14.3529 216.264,14.4492 C216.093,14.5456 215.96,14.6855 215.865,14.8691 C215.77,15.0527 215.721,15.2734 215.719,15.5313 M224.074,13 L224.074,14.25 L220.461,14.25 L220.461,13 L224.074,13 M221.281,11.5625 L222.945,11.5625 L222.945,17.1563 C222.945,17.3099 222.969,17.429 223.016,17.5137 C223.063,17.5983 223.128,17.6576 223.213,17.6914 C223.298,17.7253 223.396,17.7422 223.508,17.7422 C223.586,17.7422 223.664,17.735 223.742,17.7207 C223.82,17.7064 223.88,17.6953 223.922,17.6875 L224.184,18.9258 C224.1,18.9518 223.983,18.9824 223.832,19.0176 C223.681,19.0527 223.497,19.0742 223.281,19.082 C222.88,19.0977 222.529,19.0443 222.229,18.9219 C221.928,18.7995 221.694,18.6094 221.527,18.3516 C221.361,18.0938 221.279,17.7682 221.281,17.375 L221.281,11.5625 M229.359,11 L229.359,19 L227.695,19 L227.695,11 L229.359,11 M230.68,19 L230.68,13 L232.344,13 L232.344,19 L230.68,19 M231.516,12.2266 C231.268,12.2266 231.057,12.1439 230.881,11.9785 C230.705,11.8132 230.617,11.6146 230.617,11.3828 C230.617,11.1536 230.705,10.9564 230.881,10.791 C231.057,10.6257 231.268,10.543 231.516,10.543 C231.763,10.543 231.975,10.6257 232.15,10.791 C232.326,10.9564 232.414,11.1536 232.414,11.3828 C232.414,11.6146 232.326,11.8132 232.15,11.9785 C231.975,12.1439 231.763,12.2266 231.516,12.2266 M236.367,21.375 C235.828,21.375 235.367,21.3014 234.982,21.1543 C234.598,21.0072 234.293,20.8073 234.066,20.5547 C233.84,20.3021 233.693,20.0182 233.625,19.7031 L235.164,19.4961 C235.211,19.6159 235.285,19.7279 235.387,19.832 C235.488,19.9362 235.623,20.0202 235.791,20.084 C235.959,20.1478 236.164,20.1797 236.406,20.1797 C236.768,20.1797 237.067,20.0918 237.303,19.916 C237.538,19.7402 237.656,19.4466 237.656,19.0352 L237.656,17.9375 L237.586,17.9375 C237.513,18.1042 237.404,18.2617 237.258,18.4102 C237.112,18.5586 236.924,18.6797 236.695,18.7734 C236.466,18.8672 236.193,18.9141 235.875,18.9141 C235.424,18.9141 235.015,18.8092 234.646,18.5996 C234.278,18.39 233.985,18.0684 233.768,17.6348 C233.55,17.2012 233.441,16.6523 233.441,15.9883 C233.441,15.3086 233.552,14.7409 233.773,14.2852 C233.995,13.8294 234.29,13.4883 234.658,13.2617 C235.027,13.0352 235.431,12.9219 235.871,12.9219 C236.207,12.9219 236.488,12.9785 236.715,13.0918 C236.941,13.2051 237.124,13.3457 237.264,13.5137 C237.403,13.6816 237.51,13.8464 237.586,14.0078 L237.648,14.0078 L237.648,13 L239.301,13 L239.301,19.0586 C239.301,19.569 239.176,19.9961 238.926,20.3398 C238.676,20.6836 238.33,20.9421 237.889,21.1152 C237.447,21.2884 236.94,21.375 236.367,21.375 M236.402,17.6641 C236.671,17.6641 236.898,17.597 237.084,17.4629 C237.27,17.3288 237.413,17.1361 237.514,16.8848 C237.614,16.6335 237.664,16.332 237.664,15.9805 C237.664,15.6289 237.615,15.3236 237.516,15.0645 C237.417,14.8053 237.273,14.6042 237.086,14.4609 C236.898,14.3177 236.671,14.2461 236.402,14.2461 C236.129,14.2461 235.898,14.3197 235.711,14.4668 C235.523,14.6139 235.382,14.8177 235.285,15.0781 C235.189,15.3385 235.141,15.6393 235.141,15.9805 C235.141,16.3268 235.189,16.6257 235.287,16.877 C235.385,17.1283 235.527,17.3223 235.713,17.459 C235.899,17.5957 236.129,17.6641 236.402,17.6641 M242.281,15.5313 L242.281,19 L240.617,19 L240.617,11 L242.234,11 L242.234,14.0586 L242.305,14.0586 C242.44,13.7044 242.659,13.4264 242.961,13.2246 C243.263,13.0228 243.642,12.9219 244.098,12.9219 C244.514,12.9219 244.878,13.0124 245.189,13.1934 C245.501,13.3743 245.743,13.6335 245.916,13.9707 C246.089,14.3079 246.174,14.7109 246.172,15.1797 L246.172,19 L244.508,19 L244.508,15.4766 C244.51,15.1068 244.417,14.819 244.229,14.6133 C244.04,14.4076 243.776,14.3047 243.438,14.3047 C243.211,14.3047 243.011,14.3529 242.838,14.4492 C242.665,14.5456 242.529,14.6855 242.432,14.8691 C242.334,15.0527 242.284,15.2734 242.281,15.5313 M250.668,13 L250.668,14.25 L247.055,14.25 L247.055,13 L250.668,13 M247.875,11.5625 L249.539,11.5625 L249.539,17.1563 C249.539,17.3099 249.563,17.429 249.609,17.5137 C249.656,17.5983 249.722,17.6576 249.807,17.6914 C249.891,17.7253 249.99,17.7422 250.102,17.7422 C250.18,17.7422 250.258,17.735 250.336,17.7207 C250.414,17.7064 250.474,17.6953 250.516,17.6875 L250.777,18.9258 C250.694,18.9518 250.577,18.9824 250.426,19.0176 C250.275,19.0527 250.091,19.0742 249.875,19.082 C249.474,19.0977 249.123,19.0443 248.822,18.9219 C248.521,18.7995 248.288,18.6094 248.121,18.3516 C247.954,18.0938 247.872,17.7682 247.875,17.375 L247.875,11.5625"/>
</g>

<g fill="#ffffff" fill-opacity="1" stroke="none" transform="matrix(1,0,0,1,0,0)"
font-family="Inter" font-size="11" font-weight="700" font-style="normal" 
>
<path vector-effect="none" fill-rule="nonzero" d="M335.84,18.3594 L335.84,17.9375 C335.84,17.6172 335.908,17.3223 336.045,17.0527 C336.182,16.7832 336.381,16.5671 336.643,16.4043 C336.904,16.2415 337.224,16.1602 337.602,16.1602 C337.984,16.1602 338.307,16.2409 338.568,16.4023 C338.83,16.5638 339.028,16.7793 339.162,17.0488 C339.296,17.3184 339.363,17.6146 339.363,17.9375 L339.363,18.3594 C339.363,18.6797 339.296,18.9746 339.16,19.2441 C339.025,19.5137 338.826,19.7298 338.563,19.8926 C338.299,20.0553 337.979,20.1367 337.602,20.1367 C337.219,20.1367 336.897,20.0553 336.637,19.8926 C336.376,19.7298 336.178,19.5137 336.043,19.2441 C335.908,18.9746 335.84,18.6797 335.84,18.3594 M336.977,17.9375 L336.977,18.3594 C336.977,18.5443 337.021,18.7188 337.111,18.8828 C337.201,19.0469 337.365,19.1289 337.602,19.1289 C337.839,19.1289 338.001,19.0482 338.088,18.8867 C338.175,18.7253 338.219,18.5495 338.219,18.3594 L338.219,17.9375 C338.219,17.7474 338.177,17.5703 338.094,17.4063 C338.01,17.2422 337.846,17.1602 337.602,17.1602 C337.367,17.1602 337.204,17.2422 337.113,17.4063 C337.022,17.5703 336.977,17.7474 336.977,17.9375 M331.734,13.7813 L331.734,13.3594 C331.734,13.0365 331.803,12.7402 331.941,12.4707 C332.079,12.2012 332.279,11.9857 332.541,11.8242 C332.803,11.6628 333.12,11.582 333.492,11.582 C333.878,11.582 334.201,11.6628 334.461,11.8242 C334.721,11.9857 334.919,12.2012 335.055,12.4707 C335.19,12.7402 335.258,13.0365 335.258,13.3594 L335.258,13.7813 C335.258,14.1042 335.189,14.3997 335.053,14.668 C334.916,14.9362 334.717,15.1504 334.455,15.3105 C334.193,15.4707 333.872,15.5508 333.492,15.5508 C333.112,15.5508 332.791,15.4694 332.529,15.3066 C332.268,15.1439 332.07,14.929 331.936,14.6621 C331.801,14.3952 331.734,14.1016 331.734,13.7813 M332.879,13.3594 L332.879,13.7813 C332.879,13.9714 332.924,14.1471 333.014,14.3086 C333.104,14.4701 333.263,14.5508 333.492,14.5508 C333.732,14.5508 333.895,14.4701 333.982,14.3086 C334.07,14.1471 334.113,13.9714 334.113,13.7813 L334.113,13.3594 C334.113,13.1693 334.072,12.9922 333.988,12.8281 C333.905,12.6641 333.74,12.582 333.492,12.582 C333.26,12.582 333.1,12.6654 333.012,12.832 C332.923,12.9987 332.879,13.1745 332.879,13.3594 M332.25,19.8594 L337.75,11.8594 L338.773,11.8594 L333.273,19.8594 L332.25,19.8594 M344.906,17.4609 L344.906,17.3281 C344.909,16.8724 344.95,16.5091 345.029,16.2383 C345.109,15.9674 345.225,15.7487 345.379,15.582 C345.533,15.4154 345.717,15.2643 345.934,15.1289 C346.095,15.0247 346.24,14.9167 346.367,14.8047 C346.495,14.6927 346.596,14.5684 346.672,14.4316 C346.747,14.2949 346.785,14.1419 346.785,13.9727 C346.785,13.793 346.742,13.6354 346.656,13.5 C346.57,13.3646 346.455,13.2604 346.311,13.1875 C346.166,13.1146 346.007,13.0781 345.832,13.0781 C345.663,13.0781 345.503,13.1152 345.352,13.1895 C345.201,13.2637 345.077,13.373 344.98,13.5176 C344.884,13.6621 344.832,13.8411 344.824,14.0547 L343.23,14.0547 C343.243,13.5339 343.368,13.1035 343.605,12.7637 C343.842,12.4238 344.156,12.1699 344.547,12.002 C344.938,11.834 345.368,11.75 345.84,11.75 C346.358,11.75 346.816,11.8353 347.215,12.0059 C347.613,12.1764 347.926,12.4232 348.152,12.7461 C348.379,13.069 348.492,13.4583 348.492,13.9141 C348.492,14.2188 348.442,14.4889 348.342,14.7246 C348.242,14.9603 348.102,15.1686 347.922,15.3496 C347.742,15.5306 347.53,15.694 347.285,15.8398 C347.079,15.9622 346.911,16.0898 346.779,16.2227 C346.648,16.3555 346.55,16.5091 346.486,16.6836 C346.423,16.8581 346.389,17.0729 346.387,17.3281 L346.387,17.4609 L344.906,17.4609 M345.68,19.9609 C345.419,19.9609 345.197,19.8691 345.014,19.6855 C344.83,19.502 344.74,19.2813 344.742,19.0234 C344.74,18.7682 344.83,18.5495 345.014,18.3672 C345.197,18.1849 345.419,18.0938 345.68,18.0938 C345.927,18.0938 346.145,18.1849 346.332,18.3672 C346.52,18.5495 346.615,18.7682 346.617,19.0234 C346.615,19.1953 346.57,19.3522 346.482,19.4941 C346.395,19.6361 346.281,19.7493 346.141,19.834 C346,19.9186 345.846,19.9609 345.68,19.9609 "/>
</g>

<g fill="#ffffff" fill-opacity="1" stroke="none" transform="matrix(0.0285,0,0,0.0285,11.2928,4.44754)"
font-family="Inter" font-size="11" font-weight="700" font-style="normal" 
>
<path vector-effect="none" fill-rule="nonzero" d="M97.5863,60.6191 C80.1143,60.6191 66.0472,74.6862 66.0472,92.1582 L66.0472,718.541 C66.0472,736.013 80.1143,750.08 97.5863,750.08 L723.969,750.08 C741.441,750.08 755.508,736.013 755.508,718.541 L755.508,92.1582 C755.508,74.6862 741.441,60.6191 723.969,60.6191 L97.5863,60.6191 M410.733,204.078 C521.886,204.053 612.016,294.136 612.049,405.289 L612.049,405.35 C612.05,516.503 521.947,606.613 410.793,606.621 C299.639,606.63 209.522,516.533 209.506,405.379 C209.49,294.226 299.58,204.102 410.733,204.078 "/>
</g>

<g fill="none" stroke="#000000" stroke-opacity="1" stroke-width="20" stroke-linecap="round" stroke-linejoin="round" transform="matrix(0.0285,0,0,0.0285,11.2928,4.44754)"
font-family="Inter" font-size="11" font-weight="700" font-style="normal" 
>
<path vector-effect="none" fill-rule="nonzero" d="M97.5863,60.6191 C80.1143,60.6191 66.0472,74.6862 66.0472,92.1582 L66.0472,718.541 C66.0472,736.013 80.1143,750.08 97.5863,750.08 L723.969,750.08 C741.441,750.08 755.508,736.013 755.508,718.541 L755.508,92.1582 C755.508,74.6862 741.441,60.6191 723.969,60.6191 L97.5863,60.6191 M410.733,204.078 C521.886,204.053 612.016,294.136 612.049,405.289 L612.049,405.35 C612.05,516.503 521.947,606.613 410.793,606.621 C299.639,606.63 209.522,516.533 209.506,405.379 C209.49,294.226 299.58,204.102 410.733,204.078 "/>
</g>

<g fill="#000000" fill-opacity="1" stroke="none" transform="matrix(0.0285,0,0,0.0285,11.2928,4.44754)"
font-family="Inter" font-size="11" font-weight="700" font-style="normal" 
>
<path vector-effect="none" fill-rule="nonzero" d="M234.666,164.596 C198.854,164.596 170.024,193.426 170.024,229.238 L170.024,581.461 C170.024,617.273 198.854,646.104 234.666,646.104 L586.889,646.104 C622.701,646.104 651.532,617.273 651.532,581.461 L651.532,229.238 C651.532,193.426 622.701,164.596 586.889,164.596 L234.666,164.596 M410.733,204.078 C521.886,204.053 612.016,294.136 612.049,405.289 L612.049,405.35 C612.05,516.503 521.947,606.613 410.793,606.621 C299.639,606.63 209.522,516.533 209.506,405.379 C209.49,294.226 299.58,204.102 410.733,204.078 "/>
</g>

<g fill="none" stroke="#000000" stroke-opacity="1" stroke-width="16.3975" stroke-linecap="round" stroke-linejoin="round" transform="matrix(0.0285,0,0,0.0285,11.2928,4.44754)"
font-family="Inter" font-size="11" font-weight="700" font-style="normal" 
>
<path vector-effect="none" fill-rule="nonzero" d="M234.666,164.596 C198.854,164.596 170.024,193.426 170.024,229.238 L170.024,581.461 C170.024,617.273 198.854,646.104 234.666,646.104 L586.889,646.104 C622.701,646.104 651.532,617.273 651.532,581.461 L651.532,229.238 C651.532,193.426 622.701,164.596 586.889,164.596 L234.666,164.596 M410.733,204.078 C521.886,204.053 612.016,294.136 612.049,405.289 L612.049,405.35 C612.05,516.503 521.947,606.613 410.793,606.621 C299.639,606.63 209.522,516.533 209.506,405.379 C209.49,294.226 299.58,204.102 410.733,204.078 "/>
</g>

<g fill="none" stroke="#000000" stroke-opacity="1" stroke-width="23.8667" stroke-linecap="round" stroke-linejoin="round" transform="matrix(0.0285,0,0,0.0285,11.2928,4.44754)"
font-family="Inter" font-size="11" font-weight="700" font-style="normal" 
>
<path vector-effect="none" fill-rule="nonzero" d="M528.568,405.35 C528.568,470.4 475.837,523.135 410.787,523.14 C345.736,523.145 292.997,470.418 292.987,405.367 C292.978,340.317 345.701,287.574 410.751,287.559 C475.802,287.545 528.549,340.264 528.568,405.314 "/>
</g>

<g fill="#ffffff" fill-opacity="1" stroke="none" transform="matrix(1,0,0,1,0,0)"
font-family="Inter" font-size="11" font-weight="700" font-style="normal" 
>
</g>

<g fill="#ffffff" fill-opacity="1" stroke="#0da6c5" stroke-opacity="1" stroke-width="1" stroke-linecap="square" stroke-linejoin="bevel" transform="matrix(1,0,0,1,0,0)"
font-family="Inter" font-size="11" font-weight="700" font-style="normal" 
>
<polyline fill="none" vector-effect="none" points="45,6 45,26 " />
</g>

<g fill="#ffffff" fill-opacity="1" stroke="#0c96b2" stroke-opacity="1" stroke-width="1.2" stroke-linecap="square" stroke-linejoin="bevel" transform="matrix(1,0,0,1,299.5,5)"
font-family="Inter" font-size="11" font-weight="700" font-style="normal" 
>
<path vector-effect="none" fill-rule="evenodd" d="M1,11 C1,5.47715 5.92487,1 12,1 L14.4,1 C20.4751,1 25.4,5.47715 25.4,11 C25.4,16.5228 20.4751,21 14.4,21 L12,21 C5.92487,21 1,16.5228 1,11 "/>
</g>

<g fill="#000000" fill-opacity="1" stroke="none" transform="matrix(1,0,0,1,299.5,5)"
font-family="Inter" font-size="10" font-weight="700" font-style="normal" 
>
<path vector-effect="none" fill-rule="nonzero" d="M9.69886,14.5213 C9.19697,14.5213 8.75012,14.429 8.35831,14.2443 C7.9665,14.0597 7.65578,13.8052 7.42614,13.4808 C7.1965,13.1565 7.07694,12.7848 7.06747,12.3658 L8.55895,12.3658 C8.57552,12.6475 8.69389,12.8759 8.91406,13.0511 C9.13423,13.2263 9.39583,13.3139 9.69886,13.3139 C9.94034,13.3139 10.154,13.2601 10.3398,13.1523 C10.5257,13.0446 10.6713,12.8943 10.7766,12.7013 C10.882,12.5084 10.9347,12.2865 10.9347,12.0355 C10.9347,11.7798 10.8808,11.5549 10.7731,11.3608 C10.6654,11.1667 10.5168,11.0152 10.3274,10.9063 C10.138,10.7973 9.9214,10.7417 9.67756,10.7393 C9.46449,10.7393 9.25793,10.7831 9.05788,10.8707 C8.85784,10.9583 8.70218,11.0779 8.59091,11.2294 L7.22372,10.9844 L7.56818,7.14915 L12.0142,7.14915 L12.0142,8.40625 L8.83594,8.40625 L8.64773,10.228 L8.69034,10.228 C8.81818,10.0481 9.01113,9.89891 9.26918,9.78054 C9.52723,9.66217 9.81605,9.60298 10.1357,9.60298 C10.5736,9.60298 10.9643,9.70597 11.3075,9.91193 C11.6508,10.1179 11.9219,10.4002 12.1207,10.7589 C12.3196,11.1175 12.4179,11.5301 12.4155,11.9964 C12.4179,12.4865 12.3048,12.9215 12.0763,13.3015 C11.8479,13.6815 11.5295,13.9798 11.1211,14.1964 C10.7127,14.413 10.2386,14.5213 9.69886,14.5213 M16.3317,14.5817 C15.7209,14.5793 15.1959,14.429 14.7567,14.1307 C14.3176,13.8324 13.9802,13.4003 13.7447,12.8345 C13.5091,12.2687 13.3925,11.5881 13.3949,10.7926 C13.3949,9.99953 13.5127,9.32363 13.7482,8.76491 C13.9838,8.2062 14.3211,7.78066 14.7603,7.48828 C15.1995,7.1959 15.7232,7.04972 16.3317,7.04972 C16.9401,7.04972 17.4639,7.1965 17.9031,7.49006 C18.3422,7.78362 18.6802,8.20916 18.9169,8.76669 C19.1536,9.32422 19.2708,9.99953 19.2685,10.7926 C19.2685,11.5904 19.1507,12.2723 18.9151,12.8381 C18.6796,13.4039 18.3428,13.8359 17.9048,14.1342 C17.4669,14.4325 16.9425,14.5817 16.3317,14.5817 M16.3317,13.3068 C16.7483,13.3068 17.081,13.0973 17.3295,12.6783 C17.5781,12.2592 17.7012,11.6307 17.6989,10.7926 C17.6989,10.241 17.6426,9.78172 17.5302,9.41477 C17.4177,9.04782 17.2591,8.77202 17.0543,8.58736 C16.8496,8.4027 16.6087,8.31037 16.3317,8.31037 C15.9174,8.31037 15.5859,8.51752 15.3374,8.93182 C15.0888,9.34612 14.9633,9.96638 14.9609,10.7926 C14.9609,11.3513 15.0172,11.8171 15.1296,12.19 C15.2421,12.5629 15.4013,12.8422 15.6072,13.0281 C15.8132,13.2139 16.0547,13.3068 16.3317,13.3068 "/>
</g>

<g fill="#ffffff" fill-opacity="1" stroke="#0da6c5" stroke-opacity="1" stroke-width="1" stroke-linecap="square" stroke-linejoin="bevel" transform="matrix(1,0,0,1,0,0)"
font-family="Inter" font-size="11" font-weight="700" font-style="normal" 
>
</g>

<g fill="#ffffff" fill-opacity="1" stroke="#0da6c5" stroke-opacity="1" stroke-width="1" stroke-linecap="square" stroke-linejoin="bevel" transform="matrix(1,0,0,1,0,0)"
font-family="Inter" font-size="11" font-weight="700" font-style="normal" 
>
</g>

<g fill="#ffffff" fill-opacity="1" stroke="#0da6c5" stroke-opacity="1" stroke-width="1" stroke-linecap="square" stroke-linejoin="bevel" transform="matrix(1,0,0,1,0,0)"
font-family="Inter" font-size="11" font-weight="700" font-style="normal" 
>
</g>

<g fill="#ffffff" fill-opacity="1" stroke="#0da6c5" stroke-opacity="1" stroke-width="1" stroke-linecap="square" stroke-linejoin="bevel" transform="matrix(1,0,0,1,0,0)"
font-family="Inter" font-size="11" font-weight="700" font-style="normal" 
>
</g>

<g fill="#0da6c5" fill-opacity="1" stroke="#0da6c5" stroke-opacity="1" stroke-width="1.2" stroke-linecap="square" stroke-linejoin="bevel" transform="matrix(1,0,0,1,135,4)"
font-family="Inter" font-size="11" font-weight="700" font-style="normal" 
>
<path vector-effect="none" fill-rule="evenodd" d="M0.5,12 C0.5,5.64873 5.87258,0.5 12.5,0.5 L27.5,0.5 C34.1274,0.5 39.5,5.64873 39.5,12 C39.5,18.3513 34.1274,23.5 27.5,23.5 L12.5,23.5 C5.87258,23.5 0.5,18.3513 0.5,12 "/>
</g>

<g fill="#ffffff" fill-opacity="1" stroke="none" transform="matrix(1,0,0,1,135,4)"
font-family="Inter" font-size="11" font-weight="700" font-style="normal" 
>
<path vector-effect="none" fill-rule="nonzero" d="M11.8242,16 L10.0117,16 L12.7734,8 L14.9531,8 L17.7109,16 L15.8984,16 L13.8945,9.82813 L13.832,9.82813 L11.8242,16 M11.7109,12.8555 L15.9922,12.8555 L15.9922,14.1758 L11.7109,14.1758 L11.7109,12.8555"/>
</g>

<g fill="#ffffff" fill-opacity="1" stroke="none" transform="matrix(0.03125,0,0,0.03125,161,12)"
font-family="Inter" font-size="11" font-weight="700" font-style="normal" 
>
<path vector-effect="none" fill-rule="nonzero" d="M111.326,191.938 C120.545,201.158 135.517,201.158 144.737,191.938 L239.144,97.5313 C245.929,90.7458 247.921,80.6413 244.233,71.7907 C240.545,62.9401 231.989,57.1871 222.401,57.1871 L33.5875,57.2608 C24.0731,57.2608 15.4437,63.0137 11.7559,71.8644 C8.06815,80.715 10.1333,90.8195 16.845,97.605 L111.252,192.012 L111.326,191.938"/>
</g>

<g fill="none" stroke="#000000" stroke-opacity="1" stroke-width="13.7195" stroke-linecap="butt" stroke-linejoin="miter" stroke-miterlimit="4" transform="matrix(0.03125,0,0,0.03125,161,12)"
font-family="Inter" font-size="11" font-weight="700" font-style="normal" 
>
<path vector-effect="none" fill-rule="nonzero" d="M111.326,191.938 C120.545,201.158 135.517,201.158 144.737,191.938 L239.144,97.5313 C245.929,90.7458 247.921,80.6413 244.233,71.7907 C240.545,62.9401 231.989,57.1871 222.401,57.1871 L33.5875,57.2608 C24.0731,57.2608 15.4437,63.0137 11.7559,71.8644 C8.06815,80.715 10.1333,90.8195 16.845,97.605 L111.252,192.012 L111.326,191.938"/>
</g>

<g fill="#ffffff" fill-opacity="1" stroke="none" transform="matrix(1,0,0,1,135,4)"
font-family="Inter" font-size="11" font-weight="700" font-style="normal" 
>
</g>

<g fill="#ffffff" fill-opacity="1" stroke="#0da6c5" stroke-opacity="1" stroke-width="1" stroke-linecap="square" stroke-linejoin="bevel" transform="matrix(1,0,0,1,0,0)"
font-family="Inter" font-size="11" font-weight="700" font-style="normal" 
>
</g>

<g fill="#1dccf0" fill-opacity="1" stroke="#0da6c5" stroke-opacity="1" stroke-width="1.2" stroke-linecap="square" stroke-linejoin="bevel" transform="matrix(1,0,0,1,257,4)"
font-family="Inter" font-size="11" font-weight="700" font-style="normal" 
>
<path vector-effect="none" fill-rule="evenodd" d="M0.5,3.5 C0.5,1.84315 1.84315,0.5 3.5,0.5 L35,0.5 C36.6569,0.5 38,1.84315 38,3.5 L38,20.5 C38,22.1569 36.6569,23.5 35,23.5 L3.5,23.5 C1.84315,23.5 0.5,22.1569 0.5,20.5 L0.5,3.5"/>
</g>

<g fill="#ffffff" fill-opacity="1" stroke="none" transform="matrix(1,0,0,1,257,4)"
font-family="Inter" font-size="11" font-weight="700" font-style="normal" 
>
<path vector-effect="none" fill-rule="nonzero" d="M10.5039,12.5195 L10.5039,11.1445 L16.0039,8.72266 L16.0039,10.3047 L12.2383,11.8164 L12.2891,11.7344 L12.2891,11.9297 L12.2383,11.8477 L16.0039,13.3594 L16.0039,14.9414 L10.5039,12.5195"/>
</g>

<g fill="#ffffff" fill-opacity="1" stroke="none" transform="matrix(0.03125,0,0,0.03125,281.5,12)"
font-family="Inter" font-size="11" font-weight="700" font-style="normal" 
>
<path vector-effect="none" fill-rule="nonzero" d="M111.326,191.938 C120.545,201.158 135.517,201.158 144.737,191.938 L239.144,97.5313 C245.929,90.7458 247.921,80.6413 244.233,71.7907 C240.545,62.9401 231.989,57.1871 222.401,57.1871 L33.5875,57.2608 C24.0731,57.2608 15.4437,63.0137 11.7559,71.8644 C8.06815,80.715 10.1333,90.8195 16.845,97.605 L111.252,192.012 L111.326,191.938"/>
</g>

<g fill="none" stroke="#000000" stroke-opacity="1" stroke-width="13.7195" stroke-linecap="butt" stroke-linejoin="miter" stroke-miterlimit="4" transform="matrix(0.03125,0,0,0.03125,281.5,12)"
font-family="Inter" font-size="11" font-weight="700" font-style="normal" 
>
<path vector-effect="none" fill-rule="nonzero" d="M111.326,191.938 C120.545,201.158 135.517,201.158 144.737,191.938 L239.144,97.5313 C245.929,90.7458 247.921,80.6413 244.233,71.7907 C240.545,62.9401 231.989,57.1871 222.401,57.1871 L33.5875,57.2608 C24.0731,57.2608 15.4437,63.0137 11.7559,71.8644 C8.06815,80.715 10.1333,90.8195 16.845,97.605 L111.252,192.012 L111.326,191.938"/>
</g>

<g fill="#ffffff" fill-opacity="1" stroke="none" transform="matrix(1,0,0,1,257,4)"
font-family="Inter" font-size="11" font-weight="700" font-style="normal" 
>
</g>

<g fill="#ffffff" fill-opacity="1" stroke="#0da6c5" stroke-opacity="1" stroke-width="1" stroke-linecap="square" stroke-linejoin="bevel" transform="matrix(1,0,0,1,0,0)"
font-family="Inter" font-size="11" font-weight="700" font-style="normal" 
>
</g>

<g fill="#1dccf0" fill-opacity="1" stroke="#0da6c5" stroke-opacity="1" stroke-width="1.2" stroke-linecap="square" stroke-linejoin="bevel" transform="matrix(1,0,0,1,56,4)"
font-family="Inter" font-size="11" font-weight="700" font-style="normal" 
>
<path vector-effect="none" fill-rule="evenodd" d="M0.5,3.5 C0.5,1.84315 1.84315,0.5 3.5,0.5 L71.5,0.5 C73.1569,0.5 74.5,1.84315 74.5,3.5 L74.5,20.5 C74.5,22.1569 73.1569,23.5 71.5,23.5 L3.5,23.5 C1.84315,23.5 0.5,22.1569 0.5,20.5 L0.5,3.5"/>
</g>

<g fill="#ffffff" fill-opacity="1" stroke="none" transform="matrix(1,0,0,1,56,4)"
font-family="Inter" font-size="11" font-weight="700" font-style="normal" 
>
<path vector-effect="none" fill-rule="nonzero" d="M10,9.39453 L10,8 L16.5703,8 L16.5703,9.39453 L14.1211,9.39453 L14.1211,16 L12.4492,16 L12.4492,9.39453 L10,9.39453 M17.6484,16 L17.6484,8 L19.3398,8 L19.3398,11.3008 L22.7734,11.3008 L22.7734,8 L24.4609,8 L24.4609,16 L22.7734,16 L22.7734,12.6953 L19.3398,12.6953 L19.3398,16 L17.6484,16 M32.543,8 L32.543,16 L31.082,16 L27.6016,10.9648 L27.543,10.9648 L27.543,16 L25.8516,16 L25.8516,8 L27.3359,8 L30.7891,13.0313 L30.8594,13.0313 L30.8594,8 L32.543,8 M33.9297,16 L33.9297,8 L35.6211,8 L35.6211,11.3008 L39.0547,11.3008 L39.0547,8 L40.7422,8 L40.7422,16 L39.0547,16 L39.0547,12.6953 L35.6211,12.6953 L35.6211,16 L33.9297,16 M42.1328,16 L42.1328,8 L45.3359,8 C45.9245,8 46.4154,8.08724 46.8086,8.26172 C47.2018,8.4362 47.4974,8.67773 47.6953,8.98633 C47.8932,9.29492 47.9922,9.64974 47.9922,10.0508 C47.9922,10.3633 47.9297,10.6374 47.8047,10.873 C47.6797,11.1087 47.5085,11.3014 47.291,11.4512 C47.0736,11.6009 46.8255,11.707 46.5469,11.7695 L46.5469,11.8477 C46.8516,11.8607 47.1374,11.9466 47.4043,12.1055 C47.6712,12.2643 47.888,12.4863 48.0547,12.7715 C48.2214,13.0566 48.3047,13.3958 48.3047,13.7891 C48.3047,14.2135 48.1999,14.5918 47.9902,14.9238 C47.7806,15.2559 47.4714,15.5182 47.0625,15.7109 C46.6536,15.9036 46.1497,16 45.5508,16 L42.1328,16 M43.8242,14.6172 L45.2031,14.6172 C45.6745,14.6172 46.0182,14.5267 46.2344,14.3457 C46.4505,14.1647 46.5586,13.9232 46.5586,13.6211 C46.5586,13.3997 46.5052,13.2044 46.3984,13.0352 C46.2917,12.8659 46.14,12.7331 45.9434,12.6367 C45.7467,12.5404 45.513,12.4922 45.2422,12.4922 L43.8242,12.4922 L43.8242,14.6172 M43.8242,11.3477 L45.0781,11.3477 C45.3099,11.3477 45.5163,11.3066 45.6973,11.2246 C45.8783,11.1426 46.0215,11.026 46.127,10.875 C46.2324,10.724 46.2852,10.543 46.2852,10.332 C46.2852,10.043 46.1829,9.8099 45.9785,9.63281 C45.7741,9.45573 45.4844,9.36719 45.1094,9.36719 L43.8242,9.36719 L43.8242,11.3477 M52.832,8 L52.832,16 L51.1406,16 L51.1406,9.60547 L51.0938,9.60547 L49.2617,10.7539 L49.2617,9.25391 L51.2422,8 L52.832,8"/>
</g>

<g fill="#ffffff" fill-opacity="1" stroke="none" transform="matrix(0.03125,0,0,0.03125,117,12)"
font-family="Inter" font-size="11" font-weight="700" font-style="normal" 
>
<path vector-effect="none" fill-rule="nonzero" d="M111.326,191.938 C120.545,201.158 135.517,201.158 144.737,191.938 L239.144,97.5313 C245.929,90.7458 247.921,80.6413 244.233,71.7907 C240.545,62.9401 231.989,57.1871 222.401,57.1871 L33.5875,57.2608 C24.0731,57.2608 15.4437,63.0137 11.7559,71.8644 C8.06815,80.715 10.1333,90.8195 16.845,97.605 L111.252,192.012 L111.326,191.938"/>
</g>

<g fill="none" stroke="#000000" stroke-opacity="1" stroke-width="13.7195" stroke-linecap="butt" stroke-linejoin="miter" stroke-miterlimit="4" transform="matrix(0.03125,0,0,0.03125,117,12)"
font-family="Inter" font-size="11" font-weight="700" font-style="normal" 
>
<path vector-effect="none" fill-rule="nonzero" d="M111.326,191.938 C120.545,201.158 135.517,201.158 144.737,191.938 L239.144,97.5313 C245.929,90.7458 247.921,80.6413 244.233,71.7907 C240.545,62.9401 231.989,57.1871 222.401,57.1871 L33.5875,57.2608 C24.0731,57.2608 15.4437,63.0137 11.7559,71.8644 C8.06815,80.715 10.1333,90.8195 16.845,97.605 L111.252,192.012 L111.326,191.938"/>
</g>

<g fill="#ffffff" fill-opacity="1" stroke="none" transform="matrix(1,0,0,1,56,4)"
font-family="Inter" font-size="11" font-weight="700" font-style="normal" 
>
</g>

<g fill="#ffffff" fill-opacity="1" stroke="#0da6c5" stroke-opacity="1" stroke-width="1" stroke-linecap="square" stroke-linejoin="bevel" transform="matrix(1,0,0,1,0,0)"
font-family="Inter" font-size="11" font-weight="700" font-style="normal" 
>
</g>

<g fill="none" stroke="#000000" stroke-opacity="1" stroke-width="1" stroke-linecap="square" stroke-linejoin="bevel" transform="matrix(1,0,0,1,0,0)"
font-family=".AppleSystemUIFont" font-size="13" font-weight="400" font-style="normal" 
>
</g>
</g>
</svg>
