<?xml version="1.0" encoding="UTF-8" standalone="no"?>
<svg width="42.6861mm" height="21.1667mm"
 viewBox="0 0 121 60"
 xmlns="http://www.w3.org/2000/svg" xmlns:xlink="http://www.w3.org/1999/xlink" version="1.2" baseProfile="tiny">
<title>Abstract block</title>
<desc>block_event_when_timer_greater_than</desc>
<defs>
</defs>
<g fill="none" stroke="black" stroke-width="1" fill-rule="evenodd" stroke-linecap="square" stroke-linejoin="bevel" >

<g fill="none" stroke="#000000" stroke-opacity="1" stroke-width="1" stroke-linecap="square" stroke-linejoin="bevel" transform="matrix(1,0,0,1,0,0)"
font-family=".AppleSystemUIFont" font-size="13" font-weight="400" font-style="normal" 
>
</g>

<g fill="none" stroke="#000000" stroke-opacity="1" stroke-width="1" stroke-linecap="square" stroke-linejoin="bevel" transform="matrix(1,0,0,1,0,0)"
font-family=".AppleSystemUIFont" font-size="13" font-weight="400" font-style="normal" 
>
</g>

<g fill="#f5c400" fill-opacity="1" stroke="#ba9500" stroke-opacity="1" stroke-width="1.2" stroke-linecap="square" stroke-linejoin="bevel" transform="matrix(1,0,0,1,0,0)"
font-family=".AppleSystemUIFont" font-size="13" font-weight="400" font-style="normal" 
>
<path vector-effect="none" fill-rule="evenodd" d="M0.5,20.5 L1,18.6516 L1,18 L1.77836,17.1565 L2.58892,16.3401 L3.43062,15.551 L4.30242,14.7891 L5.20325,14.0544 L6.13206,13.3469 L7.08779,12.6667 L8.06939,12.0136 L9.0758,11.3878 L10.106,10.7891 L11.1588,10.2177 L12.2333,9.67347 L13.3284,9.15646 L14.4431,8.66667 L15.5762,8.20408 L16.7267,7.76871 L17.8936,7.36054 L19.0758,6.97959 L20.2723,6.62585 L21.4819,6.29932 L22.7037,6 L23.9366,5.72789 L25.1795,5.48299 L26.4314,5.26531 L27.6912,5.07483 L28.9578,4.91156 L30.2303,4.77551 L31.5075,4.66667 L32.7885,4.58503 L34.072,4.53061 L35.3572,4.5034 L36.6428,4.5034 L37.928,4.53061 L39.2115,4.58503 L40.4925,4.66667 L41.7697,4.77551 L43.0422,4.91156 L44.3088,5.07483 L45.5686,5.26531 L46.8205,5.48299 L48.0634,5.72789 L49.2963,6 L50.5181,6.29932 L51.7277,6.62585 L52.9242,6.97959 L54.1064,7.36054 L55.2733,7.76871 L56.4238,8.20408 L57.5569,8.66667 L58.6716,9.15646 L59.7667,9.67347 L60.8412,10.2177 L61.894,10.7891 L62.9242,11.3878 L63.9306,12.0136 L64.9122,12.6667 L65.8679,13.3469 L66.7968,14.0544 L67.6976,14.7891 L68.5694,15.551 L69.4111,16.3401 L69.5698,16.5 L115.9,16.5 L117.919,17.0461 L119.354,18.4811 L119.9,20.5 L119.9,47.5 L119.354,49.5189 L117.919,50.9539 L115.9,51.5 L34.375,51.5 L33.584,51.9766 L32.8281,52.6875 L32.002,53.6797 L31,55 L30.2441,55.6602 L29.4531,56.1563 L28.5918,56.5117 L27.625,56.75 L26.5176,56.8945 L25.2344,56.9688 L23.7402,56.9961 L22,57 L20.2598,56.9961 L18.7656,56.9688 L17.4824,56.8945 L16.375,56.75 L15.4082,56.5117 L14.5469,56.1563 L13.7559,55.6602 L13,55 L11.998,53.6797 L11.1719,52.6875 L10.416,51.9766 L9.625,51.5 L4.5,51.5 L2.48112,50.9539 L1.04612,49.5189 L0.5,47.5 L0.5,20.5"/>
</g>

<g fill="#ffffff" fill-opacity="1" stroke="none" transform="matrix(1,0,0,1,0,0)"
font-family="Inter" font-size="11" font-weight="700" font-style="normal" 
>
<path vector-effect="none" fill-rule="nonzero" d="M13.4883,37.9531 L11.8555,31.9531 L13.5391,31.9531 L14.4688,35.9844 L14.5234,35.9844 L15.4922,31.9531 L17.1445,31.9531 L18.1289,35.9609 L18.1797,35.9609 L19.0938,31.9531 L20.7734,31.9531 L19.1445,37.9531 L17.3828,37.9531 L16.3516,34.1797 L16.2773,34.1797 L15.2461,37.9531 L13.4883,37.9531 M23.3125,34.4844 L23.3125,37.9531 L21.6484,37.9531 L21.6484,29.9531 L23.2656,29.9531 L23.2656,33.0117 L23.3359,33.0117 C23.4714,32.6576 23.6901,32.3796 23.9922,32.1777 C24.2943,31.9759 24.6732,31.875 25.1289,31.875 C25.5456,31.875 25.9095,31.9655 26.2207,32.1465 C26.5319,32.3275 26.7741,32.5866 26.9473,32.9238 C27.1204,33.2611 27.2057,33.6641 27.2031,34.1328 L27.2031,37.9531 L25.5391,37.9531 L25.5391,34.4297 C25.5417,34.0599 25.4486,33.7721 25.2598,33.5664 C25.071,33.3607 24.8073,33.2578 24.4688,33.2578 C24.2422,33.2578 24.0423,33.306 23.8691,33.4023 C23.696,33.4987 23.5605,33.6387 23.4629,33.8223 C23.3652,34.0059 23.3151,34.2266 23.3125,34.4844 M31.2422,38.0703 C30.625,38.0703 30.0944,37.9447 29.6504,37.6934 C29.2064,37.4421 28.8646,37.0853 28.625,36.623 C28.3854,36.1608 28.2656,35.6133 28.2656,34.9805 C28.2656,34.3633 28.3854,33.8216 28.625,33.3555 C28.8646,32.8893 29.2025,32.526 29.6387,32.2656 C30.0749,32.0052 30.5872,31.875 31.1758,31.875 C31.5716,31.875 31.9408,31.9382 32.2832,32.0645 C32.6257,32.1908 32.9251,32.3802 33.1816,32.6328 C33.4382,32.8854 33.638,33.2025 33.7813,33.584 C33.9245,33.9655 33.9961,34.4115 33.9961,34.9219 L33.9961,35.3789 L28.9297,35.3789 L28.9297,34.3477 L32.4297,34.3477 C32.4297,34.1081 32.3776,33.8958 32.2734,33.7109 C32.1693,33.526 32.0254,33.3809 31.8418,33.2754 C31.6582,33.1699 31.4453,33.1172 31.2031,33.1172 C30.9505,33.1172 30.7272,33.1751 30.5332,33.291 C30.3392,33.4069 30.1875,33.5618 30.0781,33.7559 C29.9688,33.9499 29.9128,34.1654 29.9102,34.4023 L29.9102,35.3828 C29.9102,35.6797 29.9655,35.9362 30.0762,36.1523 C30.1868,36.3685 30.3438,36.5352 30.5469,36.6523 C30.75,36.7695 30.9909,36.8281 31.2695,36.8281 C31.4544,36.8281 31.6237,36.8021 31.7773,36.75 C31.931,36.6979 32.0625,36.6198 32.1719,36.5156 C32.2813,36.4115 32.3646,36.2839 32.4219,36.1328 L33.9609,36.2344 C33.8828,36.6042 33.7233,36.9264 33.4824,37.2012 C33.2415,37.4759 32.9316,37.6895 32.5527,37.8418 C32.1738,37.9941 31.737,38.0703 31.2422,38.0703 M36.7344,34.4844 L36.7344,37.9531 L35.0703,37.9531 L35.0703,31.9531 L36.6563,31.9531 L36.6563,33.0117 L36.7266,33.0117 C36.8594,32.6628 37.082,32.3861 37.3945,32.1816 C37.707,31.9772 38.0859,31.875 38.5313,31.875 C38.9479,31.875 39.3112,31.9661 39.6211,32.1484 C39.931,32.3307 40.1719,32.5905 40.3438,32.9277 C40.5156,33.265 40.6016,33.6667 40.6016,34.1328 L40.6016,37.9531 L38.9375,37.9531 L38.9375,34.4297 C38.9401,34.0625 38.8464,33.7754 38.6563,33.5684 C38.4661,33.3613 38.2044,33.2578 37.8711,33.2578 C37.6471,33.2578 37.4499,33.306 37.2793,33.4023 C37.1087,33.4987 36.9759,33.6387 36.8809,33.8223 C36.7858,34.0059 36.737,34.2266 36.7344,34.4844 M47.6367,31.9531 L47.6367,33.2031 L44.0234,33.2031 L44.0234,31.9531 L47.6367,31.9531 M44.8438,30.5156 L46.5078,30.5156 L46.5078,36.1094 C46.5078,36.263 46.5313,36.3822 46.5781,36.4668 C46.625,36.5514 46.6908,36.6107 46.7754,36.6445 C46.86,36.6784 46.9583,36.6953 47.0703,36.6953 C47.1484,36.6953 47.2266,36.6882 47.3047,36.6738 C47.3828,36.6595 47.4427,36.6484 47.4844,36.6406 L47.7461,37.8789 C47.6628,37.9049 47.5456,37.9355 47.3945,37.9707 C47.2435,38.0059 47.0599,38.0273 46.8438,38.0352 C46.4427,38.0508 46.0918,37.9974 45.791,37.875 C45.4902,37.7526 45.2565,37.5625 45.0898,37.3047 C44.9232,37.0469 44.8411,36.7214 44.8438,36.3281 L44.8438,30.5156 M48.7109,37.9531 L48.7109,31.9531 L50.375,31.9531 L50.375,37.9531 L48.7109,37.9531 M49.5469,31.1797 C49.2995,31.1797 49.0879,31.097 48.9121,30.9316 C48.7363,30.7663 48.6484,30.5677 48.6484,30.3359 C48.6484,30.1068 48.7363,29.9095 48.9121,29.7441 C49.0879,29.5788 49.2995,29.4961 49.5469,29.4961 C49.7943,29.4961 50.0059,29.5788 50.1816,29.7441 C50.3574,29.9095 50.4453,30.1068 50.4453,30.3359 C50.4453,30.5677 50.3574,30.7663 50.1816,30.9316 C50.0059,31.097 49.7943,31.1797 49.5469,31.1797 M51.6953,37.9531 L51.6953,31.9531 L53.2813,31.9531 L53.2813,33.0117 L53.3516,33.0117 C53.4766,32.6602 53.6849,32.3828 53.9766,32.1797 C54.2682,31.9766 54.6172,31.875 55.0234,31.875 C55.4349,31.875 55.7852,31.9772 56.0742,32.1816 C56.3633,32.3861 56.556,32.6628 56.6523,33.0117 L56.7148,33.0117 C56.8372,32.668 57.0592,32.3926 57.3809,32.1855 C57.7025,31.9785 58.0833,31.875 58.5234,31.875 C59.0833,31.875 59.5384,32.0527 59.8887,32.4082 C60.2389,32.7637 60.4141,33.2669 60.4141,33.918 L60.4141,37.9531 L58.7539,37.9531 L58.7539,34.2461 C58.7539,33.9128 58.6654,33.6628 58.4883,33.4961 C58.3112,33.3294 58.0898,33.2461 57.8242,33.2461 C57.5221,33.2461 57.2865,33.3418 57.1172,33.5332 C56.9479,33.7246 56.8633,33.9766 56.8633,34.2891 L56.8633,37.9531 L55.25,37.9531 L55.25,34.2109 C55.25,33.9167 55.166,33.6823 54.998,33.5078 C54.8301,33.3333 54.6094,33.2461 54.3359,33.2461 C54.151,33.2461 53.985,33.2923 53.8379,33.3848 C53.6908,33.4772 53.5742,33.6061 53.4883,33.7715 C53.4023,33.9368 53.3594,34.1302 53.3594,34.3516 L53.3594,37.9531 L51.6953,37.9531 M64.4609,38.0703 C63.8438,38.0703 63.3132,37.9447 62.8691,37.6934 C62.4251,37.4421 62.0833,37.0853 61.8438,36.623 C61.6042,36.1608 61.4844,35.6133 61.4844,34.9805 C61.4844,34.3633 61.6042,33.8216 61.8438,33.3555 C62.0833,32.8893 62.4212,32.526 62.8574,32.2656 C63.2936,32.0052 63.806,31.875 64.3945,31.875 C64.7904,31.875 65.1595,31.9382 65.502,32.0645 C65.8444,32.1908 66.1439,32.3802 66.4004,32.6328 C66.6569,32.8854 66.8568,33.2025 67,33.584 C67.1432,33.9655 67.2148,34.4115 67.2148,34.9219 L67.2148,35.3789 L62.1484,35.3789 L62.1484,34.3477 L65.6484,34.3477 C65.6484,34.1081 65.5964,33.8958 65.4922,33.7109 C65.388,33.526 65.2441,33.3809 65.0605,33.2754 C64.877,33.1699 64.6641,33.1172 64.4219,33.1172 C64.1693,33.1172 63.946,33.1751 63.752,33.291 C63.5579,33.4069 63.4063,33.5618 63.2969,33.7559 C63.1875,33.9499 63.1315,34.1654 63.1289,34.4023 L63.1289,35.3828 C63.1289,35.6797 63.1842,35.9362 63.2949,36.1523 C63.4056,36.3685 63.5625,36.5352 63.7656,36.6523 C63.9688,36.7695 64.2096,36.8281 64.4883,36.8281 C64.6732,36.8281 64.8424,36.8021 64.9961,36.75 C65.1497,36.6979 65.2813,36.6198 65.3906,36.5156 C65.5,36.4115 65.5833,36.2839 65.6406,36.1328 L67.1797,36.2344 C67.1016,36.6042 66.9421,36.9264 66.7012,37.2012 C66.4603,37.4759 66.1504,37.6895 65.7715,37.8418 C65.3926,37.9941 64.9557,38.0703 64.4609,38.0703 M68.2891,37.9531 L68.2891,31.9531 L69.9023,31.9531 L69.9023,33 L69.9648,33 C70.0742,32.6276 70.2578,32.3457 70.5156,32.1543 C70.7734,31.9629 71.0703,31.8672 71.4063,31.8672 C71.4896,31.8672 71.5794,31.8724 71.6758,31.8828 C71.7721,31.8932 71.8568,31.9076 71.9297,31.9258 L71.9297,33.4023 C71.8516,33.3789 71.7435,33.3581 71.6055,33.3398 C71.4674,33.3216 71.3411,33.3125 71.2266,33.3125 C70.9818,33.3125 70.7637,33.3652 70.5723,33.4707 C70.3809,33.5762 70.2298,33.7227 70.1191,33.9102 C70.0085,34.0977 69.9531,34.3138 69.9531,34.5586 L69.9531,37.9531 L68.2891,37.9531 M81.1445,35.4414 L75.6445,37.8633 L75.6445,36.2813 L79.4102,34.7695 L79.3594,34.8516 L79.3594,34.6563 L79.4102,34.7383 L75.6445,33.2266 L75.6445,31.6445 L81.1445,34.0664 L81.1445,35.4414"/>
</g>

<g fill="#ffffff" fill-opacity="1" stroke="#a68500" stroke-opacity="1" stroke-width="1.2" stroke-linecap="square" stroke-linejoin="bevel" transform="matrix(1,0,0,1,87,23)"
font-family="Inter" font-size="11" font-weight="700" font-style="normal" 
>
<path vector-effect="none" fill-rule="evenodd" d="M1,11 C1,5.47715 5.92487,1 12,1 L14.4,1 C20.4751,1 25.4,5.47715 25.4,11 C25.4,16.5228 20.4751,21 14.4,21 L12,21 C5.92487,21 1,16.5228 1,11 "/>
</g>

<g fill="#000000" fill-opacity="1" stroke="none" transform="matrix(1,0,0,1,87,23)"
font-family="Inter" font-size="10" font-weight="700" font-style="normal" 
>
<path vector-effect="none" fill-rule="nonzero" d="M10.7536,7.14915 L10.7536,14.4219 L9.21591,14.4219 L9.21591,8.60866 L9.1733,8.60866 L7.50781,9.6527 L7.50781,8.28906 L9.30824,7.14915 L10.7536,7.14915 M15.3317,14.5817 C14.7209,14.5793 14.1959,14.429 13.7567,14.1307 C13.3176,13.8324 12.9802,13.4003 12.7447,12.8345 C12.5091,12.2687 12.3925,11.5881 12.3949,10.7926 C12.3949,9.99953 12.5127,9.32363 12.7482,8.76491 C12.9838,8.2062 13.3211,7.78066 13.7603,7.48828 C14.1995,7.1959 14.7232,7.04972 15.3317,7.04972 C15.9401,7.04972 16.4639,7.1965 16.9031,7.49006 C17.3422,7.78362 17.6802,8.20916 17.9169,8.76669 C18.1536,9.32422 18.2708,9.99953 18.2685,10.7926 C18.2685,11.5904 18.1507,12.2723 17.9151,12.8381 C17.6796,13.4039 17.3428,13.8359 16.9048,14.1342 C16.4669,14.4325 15.9425,14.5817 15.3317,14.5817 M15.3317,13.3068 C15.7483,13.3068 16.081,13.0973 16.3295,12.6783 C16.5781,12.2592 16.7012,11.6307 16.6989,10.7926 C16.6989,10.241 16.6426,9.78172 16.5302,9.41477 C16.4177,9.04782 16.2591,8.77202 16.0543,8.58736 C15.8496,8.4027 15.6087,8.31037 15.3317,8.31037 C14.9174,8.31037 14.5859,8.51752 14.3374,8.93182 C14.0888,9.34612 13.9633,9.96638 13.9609,10.7926 C13.9609,11.3513 14.0172,11.8171 14.1296,12.19 C14.2421,12.5629 14.4013,12.8422 14.6072,13.0281 C14.8132,13.2139 15.0547,13.3068 15.3317,13.3068 "/>
</g>

<g fill="#ffffff" fill-opacity="1" stroke="none" transform="matrix(1,0,0,1,0,0)"
font-family="Inter" font-size="11" font-weight="700" font-style="normal" 
>
</g>

<g fill="#ffffff" fill-opacity="1" stroke="none" transform="matrix(1,0,0,1,0,0)"
font-family="Inter" font-size="11" font-weight="700" font-style="normal" 
>
</g>

<g fill="#ffffff" fill-opacity="1" stroke="none" transform="matrix(1,0,0,1,0,0)"
font-family="Inter" font-size="11" font-weight="700" font-style="normal" 
>
</g>

<g fill="none" stroke="#000000" stroke-opacity="1" stroke-width="1" stroke-linecap="square" stroke-linejoin="bevel" transform="matrix(1,0,0,1,0,0)"
font-family=".AppleSystemUIFont" font-size="13" font-weight="400" font-style="normal" 
>
</g>
</g>
</svg>
