<?xml version="1.0" encoding="UTF-8" standalone="no"?>
<svg width="53.6222mm" height="32.4556mm"
 viewBox="0 0 152 92"
 xmlns="http://www.w3.org/2000/svg" xmlns:xlink="http://www.w3.org/1999/xlink" version="1.2" baseProfile="tiny">
<title>Abstract block</title>
<desc>block_control_if</desc>
<defs>
</defs>
<g fill="none" stroke="black" stroke-width="1" fill-rule="evenodd" stroke-linecap="square" stroke-linejoin="bevel" >

<g fill="none" stroke="#000000" stroke-opacity="1" stroke-width="1" stroke-linecap="square" stroke-linejoin="bevel" transform="matrix(1,0,0,1,0,0)"
font-family=".AppleSystemUIFont" font-size="13" font-weight="400" font-style="normal" 
>
</g>

<g fill="none" stroke="#000000" stroke-opacity="1" stroke-width="1" stroke-linecap="square" stroke-linejoin="bevel" transform="matrix(1,0,0,1,0,0)"
font-family=".AppleSystemUIFont" font-size="13" font-weight="400" font-style="normal" 
>
</g>

<g fill="#ffb515" fill-opacity="1" stroke="#d89400" stroke-opacity="1" stroke-width="1.2" stroke-linecap="square" stroke-linejoin="bevel" transform="matrix(1,0,0,1,0,0)"
font-family=".AppleSystemUIFont" font-size="13" font-weight="400" font-style="normal" 
>
<path vector-effect="none" fill-rule="evenodd" d="M0.5,4.5 L1.04612,2.48112 L2.48112,1.04612 L4.5,0.5 L9.625,0.5 L10.416,0.976563 L11.1719,1.6875 L11.998,2.67969 L13,4 L13.7559,4.66016 L14.5469,5.15625 L15.4082,5.51172 L16.375,5.75 L17.4824,5.89453 L18.7656,5.96875 L20.2598,5.99609 L22,6 L23.7402,5.99609 L25.2344,5.96875 L26.5176,5.89453 L27.625,5.75 L28.5918,5.51172 L29.4531,5.15625 L30.2441,4.66016 L31,4 L32.002,2.67969 L32.8281,1.6875 L33.584,0.976563 L34.375,0.5 L146.7,0.5 L148.719,1.04612 L150.154,2.48112 L150.7,4.5 L150.7,33.625 L150.607,33.9259 L149.126,35.4074 L147.2,36 L52,36 L50.0137,36.0078 L48.4844,36.0625 L47.3066,36.2109 L46.375,36.5 L45.584,36.9766 L44.8281,37.6875 L44.002,38.6797 L43,40 L42.2441,40.6602 L41.4531,41.1563 L40.5918,41.5117 L39.625,41.75 L38.5176,41.8945 L37.2344,41.9688 L35.7402,41.9961 L34,42 L32.2598,41.9961 L30.7656,41.9688 L29.4824,41.8945 L28.375,41.75 L27.4082,41.5117 L26.5469,41.1563 L25.7559,40.6602 L25,40 L23.998,38.6797 L23.1719,37.6875 L22.416,36.9766 L21.625,36.5 L20.6934,36.2109 L19.5156,36.0625 L17.9863,36.0078 L16,36 L13.9811,36.5461 L12.5461,37.9811 L12,40 L12,52 L12.5461,54.0189 L13.9811,55.4539 L16,56 L22.4409,56 L23.1719,56.6875 L23.998,57.6797 L25,59 L25.7559,59.6602 L26.5469,60.1563 L27.4082,60.5117 L28.375,60.75 L29.4824,60.8945 L30.7656,60.9688 L32.2598,60.9961 L34,61 L35.7402,60.9961 L37.2344,60.9688 L38.5176,60.8945 L39.625,60.75 L40.5918,60.5117 L41.4531,60.1563 L42.2441,59.6602 L43,59 L44.002,57.6797 L44.8281,56.6875 L45.5591,56 L147.2,56 L149.126,56.5926 L150.607,58.0741 L150.7,58.375 L150.7,79.5 L150.154,81.5189 L148.719,82.9539 L146.7,83.5 L34.375,83.5 L33.584,83.9766 L32.8281,84.6875 L32.002,85.6797 L31,87 L30.2441,87.6602 L29.4531,88.1563 L28.5918,88.5117 L27.625,88.75 L26.5176,88.8945 L25.2344,88.9688 L23.7402,88.9961 L22,89 L20.2598,88.9961 L18.7656,88.9688 L17.4824,88.8945 L16.375,88.75 L15.4082,88.5117 L14.5469,88.1563 L13.7559,87.6602 L13,87 L11.998,85.6797 L11.1719,84.6875 L10.416,83.9766 L9.625,83.5 L4.5,83.5 L2.48112,82.9539 L1.04612,81.5189 L0.5,79.5 L0.5,4.5"/>
</g>

<g fill="#ffffff" fill-opacity="1" stroke="none" transform="matrix(1,0,0,1,0,0)"
font-family="Inter" font-size="11" font-weight="700" font-style="normal" 
>
<path vector-effect="none" fill-rule="nonzero" d="M11.8672,22 L11.8672,16 L13.5313,16 L13.5313,22 L11.8672,22 M12.7031,15.2266 C12.4557,15.2266 12.2441,15.1439 12.0684,14.9785 C11.8926,14.8132 11.8047,14.6146 11.8047,14.3828 C11.8047,14.1536 11.8926,13.9564 12.0684,13.791 C12.2441,13.6257 12.4557,13.543 12.7031,13.543 C12.9505,13.543 13.1621,13.6257 13.3379,13.791 C13.5137,13.9564 13.6016,14.1536 13.6016,14.3828 C13.6016,14.6146 13.5137,14.8132 13.3379,14.9785 C13.1621,15.1439 12.9505,15.2266 12.7031,15.2266 M18.0781,16 L18.0781,17.25 L14.375,17.25 L14.375,16 L18.0781,16 M15.2227,22 L15.2227,15.5664 C15.2227,15.1315 15.3079,14.7708 15.4785,14.4844 C15.6491,14.1979 15.8828,13.9831 16.1797,13.8398 C16.4766,13.6966 16.8138,13.625 17.1914,13.625 C17.4466,13.625 17.6803,13.6445 17.8926,13.6836 C18.1048,13.7227 18.263,13.7578 18.3672,13.7891 L18.0703,15.0391 C18.0052,15.0182 17.9251,14.9987 17.8301,14.9805 C17.735,14.9622 17.638,14.9531 17.5391,14.9531 C17.2943,14.9531 17.1237,15.0098 17.0273,15.123 C16.931,15.2363 16.8828,15.3945 16.8828,15.5977 L16.8828,22 L15.2227,22"/>
</g>

<g fill="#ffffff" fill-opacity="1" stroke="none" transform="matrix(1,0,0,1,0,0)"
font-family="Inter" font-size="11" font-weight="700" font-style="normal" 
>
<path vector-effect="none" fill-rule="nonzero" d="M77.668,15.7344 L77.668,16.9844 L74.0547,16.9844 L74.0547,15.7344 L77.668,15.7344 M74.875,14.2969 L76.5391,14.2969 L76.5391,19.8906 C76.5391,20.0443 76.5625,20.1634 76.6094,20.248 C76.6563,20.3327 76.722,20.3919 76.8066,20.4258 C76.8913,20.4596 76.9896,20.4766 77.1016,20.4766 C77.1797,20.4766 77.2578,20.4694 77.3359,20.4551 C77.4141,20.4408 77.474,20.4297 77.5156,20.4219 L77.7773,21.6602 C77.694,21.6862 77.5768,21.7168 77.4258,21.752 C77.2747,21.7871 77.0911,21.8086 76.875,21.8164 C76.474,21.832 76.123,21.7786 75.8223,21.6563 C75.5215,21.5339 75.2878,21.3438 75.1211,21.0859 C74.9544,20.8281 74.8724,20.5026 74.875,20.1094 L74.875,14.2969 M80.5313,18.2656 L80.5313,21.7344 L78.8672,21.7344 L78.8672,13.7344 L80.4844,13.7344 L80.4844,16.793 L80.5547,16.793 C80.6901,16.4388 80.9089,16.1608 81.2109,15.959 C81.513,15.7572 81.8919,15.6563 82.3477,15.6563 C82.7643,15.6563 83.1283,15.7467 83.4395,15.9277 C83.7507,16.1087 83.9928,16.3678 84.166,16.7051 C84.3392,17.0423 84.4245,17.4453 84.4219,17.9141 L84.4219,21.7344 L82.7578,21.7344 L82.7578,18.2109 C82.7604,17.8411 82.6673,17.5534 82.4785,17.3477 C82.2897,17.1419 82.026,17.0391 81.6875,17.0391 C81.4609,17.0391 81.2611,17.0872 81.0879,17.1836 C80.9147,17.2799 80.7793,17.4199 80.6816,17.6035 C80.584,17.7871 80.5339,18.0078 80.5313,18.2656 M88.4609,21.8516 C87.8438,21.8516 87.3132,21.7259 86.8691,21.4746 C86.4251,21.2233 86.0833,20.8665 85.8438,20.4043 C85.6042,19.9421 85.4844,19.3945 85.4844,18.7617 C85.4844,18.1445 85.6042,17.6029 85.8438,17.1367 C86.0833,16.6706 86.4212,16.3073 86.8574,16.0469 C87.2936,15.7865 87.806,15.6563 88.3945,15.6563 C88.7904,15.6563 89.1595,15.7194 89.502,15.8457 C89.8444,15.972 90.1439,16.1615 90.4004,16.4141 C90.6569,16.6667 90.8568,16.9837 91,17.3652 C91.1432,17.7467 91.2148,18.1927 91.2148,18.7031 L91.2148,19.1602 L86.1484,19.1602 L86.1484,18.1289 L89.6484,18.1289 C89.6484,17.8893 89.5964,17.6771 89.4922,17.4922 C89.388,17.3073 89.2441,17.1621 89.0605,17.0566 C88.877,16.9512 88.6641,16.8984 88.4219,16.8984 C88.1693,16.8984 87.946,16.9564 87.752,17.0723 C87.5579,17.1882 87.4063,17.3431 87.2969,17.5371 C87.1875,17.7311 87.1315,17.9466 87.1289,18.1836 L87.1289,19.1641 C87.1289,19.4609 87.1842,19.7174 87.2949,19.9336 C87.4056,20.1497 87.5625,20.3164 87.7656,20.4336 C87.9688,20.5508 88.2096,20.6094 88.4883,20.6094 C88.6732,20.6094 88.8424,20.5833 88.9961,20.5313 C89.1497,20.4792 89.2813,20.401 89.3906,20.2969 C89.5,20.1927 89.5833,20.0651 89.6406,19.9141 L91.1797,20.0156 C91.1016,20.3854 90.9421,20.7077 90.7012,20.9824 C90.4603,21.2572 90.1504,21.4707 89.7715,21.623 C89.3926,21.7754 88.9557,21.8516 88.4609,21.8516 M93.9531,18.2656 L93.9531,21.7344 L92.2891,21.7344 L92.2891,15.7344 L93.875,15.7344 L93.875,16.793 L93.9453,16.793 C94.0781,16.444 94.3008,16.1673 94.6133,15.9629 C94.9258,15.7585 95.3047,15.6563 95.75,15.6563 C96.1667,15.6563 96.5299,15.7474 96.8398,15.9297 C97.1497,16.112 97.3906,16.3717 97.5625,16.709 C97.7344,17.0462 97.8203,17.4479 97.8203,17.9141 L97.8203,21.7344 L96.1563,21.7344 L96.1563,18.2109 C96.1589,17.8438 96.0651,17.5566 95.875,17.3496 C95.6849,17.1426 95.4232,17.0391 95.0898,17.0391 C94.8659,17.0391 94.6686,17.0872 94.498,17.1836 C94.3275,17.2799 94.1947,17.4199 94.0996,17.6035 C94.0046,17.7871 93.9557,18.0078 93.9531,18.2656 "/>
</g>

<g fill="#ffffff" fill-opacity="1" stroke="none" transform="matrix(1,0,0,1,0,0)"
font-family="Inter" font-size="11" font-weight="700" font-style="normal" 
>
</g>

<g fill="#ffffff" fill-opacity="1" stroke="none" transform="matrix(1,0,0,1,0,0)"
font-family="Inter" font-size="11" font-weight="700" font-style="normal" 
>
</g>

<g fill="#ffffff" fill-opacity="1" stroke="none" transform="matrix(1,0,0,1,0,0)"
font-family="Inter" font-size="11" font-weight="700" font-style="normal" 
>
</g>

<g fill="#ffffff" fill-opacity="1" stroke="none" transform="matrix(1,0,0,1,0,0)"
font-family="Inter" font-size="11" font-weight="700" font-style="normal" 
>
</g>

<g fill="#ffffff" fill-opacity="1" stroke="none" transform="matrix(1,0,0,1,0,0)"
font-family="Inter" font-size="11" font-weight="700" font-style="normal" 
>
</g>

<g fill="#d89400" fill-opacity="1" stroke="#c48600" stroke-opacity="1" stroke-width="1.2" stroke-linecap="square" stroke-linejoin="bevel" transform="matrix(1,0,0,1,33,7)"
font-family="Inter" font-size="11" font-weight="700" font-style="normal" 
>
<path vector-effect="none" fill-rule="evenodd" d="M0,11 L11,0 L24.2,0 L35.2,11 L24.2,22 L11,22 L0,11"/>
</g>

<g fill="#ffffff" fill-opacity="1" stroke="none" transform="matrix(1,0,0,1,0,0)"
font-family="Inter" font-size="11" font-weight="700" font-style="normal" 
>
</g>

<g fill="none" stroke="#000000" stroke-opacity="1" stroke-width="1" stroke-linecap="square" stroke-linejoin="bevel" transform="matrix(1,0,0,1,0,0)"
font-family=".AppleSystemUIFont" font-size="13" font-weight="400" font-style="normal" 
>
</g>
</g>
</svg>
