<?xml version="1.0" encoding="UTF-8" standalone="no"?>
<svg width="79.375mm" height="15.5222mm"
 viewBox="0 0 225 44"
 xmlns="http://www.w3.org/2000/svg" xmlns:xlink="http://www.w3.org/1999/xlink" version="1.2" baseProfile="tiny">
<title>Abstract block</title>
<desc>block_hubs_technicmove_motors_stop_motors</desc>
<defs>
</defs>
<g fill="none" stroke="black" stroke-width="1" fill-rule="evenodd" stroke-linecap="square" stroke-linejoin="bevel" >

<g fill="none" stroke="#000000" stroke-opacity="1" stroke-width="1" stroke-linecap="square" stroke-linejoin="bevel" transform="matrix(1,0,0,1,0,0)"
font-family=".AppleSystemUIFont" font-size="13" font-weight="400" font-style="normal" 
>
</g>

<g fill="none" stroke="#000000" stroke-opacity="1" stroke-width="1" stroke-linecap="square" stroke-linejoin="bevel" transform="matrix(1,0,0,1,0,0)"
font-family=".AppleSystemUIFont" font-size="13" font-weight="400" font-style="normal" 
>
</g>

<g fill="#0090f5" fill-opacity="1" stroke="#0070ba" stroke-opacity="1" stroke-width="1.2" stroke-linecap="square" stroke-linejoin="bevel" transform="matrix(1,0,0,1,0,0)"
font-family=".AppleSystemUIFont" font-size="13" font-weight="400" font-style="normal" 
>
<path vector-effect="none" fill-rule="evenodd" d="M0.5,4.5 L1.04612,2.48112 L2.48112,1.04612 L4.5,0.5 L9.625,0.5 L10.416,0.976563 L11.1719,1.6875 L11.998,2.67969 L13,4 L13.7559,4.66016 L14.5469,5.15625 L15.4082,5.51172 L16.375,5.75 L17.4824,5.89453 L18.7656,5.96875 L20.2598,5.99609 L22,6 L23.7402,5.99609 L25.2344,5.96875 L26.5176,5.89453 L27.625,5.75 L28.5918,5.51172 L29.4531,5.15625 L30.2441,4.66016 L31,4 L32.002,2.67969 L32.8281,1.6875 L33.584,0.976563 L34.375,0.5 L220.5,0.5 L222.519,1.04612 L223.954,2.48112 L224.5,4.5 L224.5,31.5 L223.954,33.5189 L222.519,34.9539 L220.5,35.5 L34.375,35.5 L33.584,35.9766 L32.8281,36.6875 L32.002,37.6797 L31,39 L30.2441,39.6602 L29.4531,40.1563 L28.5918,40.5117 L27.625,40.75 L26.5176,40.8945 L25.2344,40.9688 L23.7402,40.9961 L22,41 L20.2598,40.9961 L18.7656,40.9688 L17.4824,40.8945 L16.375,40.75 L15.4082,40.5117 L14.5469,40.1563 L13.7559,39.6602 L13,39 L11.998,37.6797 L11.1719,36.6875 L10.416,35.9766 L9.625,35.5 L4.5,35.5 L2.48112,34.9539 L1.04612,33.5189 L0.5,31.5 L0.5,4.5"/>
</g>

<g fill="#ffffff" fill-opacity="1" stroke="none" transform="matrix(1,0,0,1,0,0)"
font-family="Inter" font-size="11" font-weight="700" font-style="normal" 
>
<path vector-effect="none" fill-rule="nonzero" d="M152.266,16.2578 L150.742,16.3516 C150.716,16.2214 150.66,16.1035 150.574,15.998 C150.488,15.8926 150.376,15.8079 150.236,15.7441 C150.097,15.6803 149.931,15.6484 149.738,15.6484 C149.48,15.6484 149.263,15.7025 149.086,15.8105 C148.909,15.9186 148.82,16.0625 148.82,16.2422 C148.82,16.3854 148.878,16.5065 148.992,16.6055 C149.107,16.7044 149.303,16.7839 149.582,16.8438 L150.668,17.0625 C151.251,17.1823 151.686,17.375 151.973,17.6406 C152.259,17.9063 152.402,18.2552 152.402,18.6875 C152.402,19.0807 152.287,19.4258 152.057,19.7227 C151.826,20.0195 151.511,20.2507 151.111,20.416 C150.712,20.5814 150.251,20.6641 149.73,20.6641 C148.936,20.6641 148.304,20.498 147.834,20.166 C147.364,19.834 147.089,19.3815 147.008,18.8086 L148.645,18.7227 C148.694,18.9648 148.814,19.1491 149.004,19.2754 C149.194,19.4017 149.438,19.4648 149.734,19.4648 C150.026,19.4648 150.261,19.4082 150.439,19.2949 C150.618,19.1816 150.708,19.0352 150.711,18.8555 C150.708,18.7044 150.645,18.5801 150.52,18.4824 C150.395,18.3848 150.202,18.3099 149.941,18.2578 L148.902,18.0508 C148.316,17.9336 147.881,17.7305 147.596,17.4414 C147.311,17.1523 147.168,16.7839 147.168,16.3359 C147.168,15.9505 147.273,15.6185 147.482,15.3398 C147.692,15.0612 147.988,14.8464 148.369,14.6953 C148.751,14.5443 149.198,14.4688 149.711,14.4688 C150.469,14.4688 151.066,14.6289 151.502,14.9492 C151.938,15.2695 152.193,15.7057 152.266,16.2578 M156.637,14.5469 L156.637,15.7969 L153.023,15.7969 L153.023,14.5469 L156.637,14.5469 M153.844,13.1094 L155.508,13.1094 L155.508,18.7031 C155.508,18.8568 155.531,18.9759 155.578,19.0605 C155.625,19.1452 155.691,19.2044 155.775,19.2383 C155.86,19.2721 155.958,19.2891 156.07,19.2891 C156.148,19.2891 156.227,19.2819 156.305,19.2676 C156.383,19.2533 156.443,19.2422 156.484,19.2344 L156.746,20.4727 C156.663,20.4987 156.546,20.5293 156.395,20.5645 C156.243,20.5996 156.06,20.6211 155.844,20.6289 C155.443,20.6445 155.092,20.5911 154.791,20.4688 C154.49,20.3464 154.257,20.1563 154.09,19.8984 C153.923,19.6406 153.841,19.3151 153.844,18.9219 L153.844,13.1094 M160.359,20.6641 C159.753,20.6641 159.229,20.5345 158.787,20.2754 C158.346,20.0163 158.005,19.6543 157.766,19.1895 C157.526,18.7246 157.406,18.1849 157.406,17.5703 C157.406,16.9505 157.526,16.4082 157.766,15.9434 C158.005,15.4785 158.346,15.1165 158.787,14.8574 C159.229,14.5983 159.753,14.4688 160.359,14.4688 C160.966,14.4688 161.49,14.5983 161.932,14.8574 C162.373,15.1165 162.714,15.4785 162.953,15.9434 C163.193,16.4082 163.313,16.9505 163.313,17.5703 C163.313,18.1849 163.193,18.7246 162.953,19.1895 C162.714,19.6543 162.373,20.0163 161.932,20.2754 C161.49,20.5345 160.966,20.6641 160.359,20.6641 M160.367,19.375 C160.643,19.375 160.874,19.2962 161.059,19.1387 C161.243,18.9811 161.383,18.7656 161.479,18.4922 C161.574,18.2188 161.621,17.9076 161.621,17.5586 C161.621,17.2096 161.574,16.8984 161.479,16.625 C161.383,16.3516 161.243,16.1354 161.059,15.9766 C160.874,15.8177 160.643,15.7383 160.367,15.7383 C160.089,15.7383 159.855,15.8177 159.666,15.9766 C159.477,16.1354 159.335,16.3516 159.24,16.625 C159.145,16.8984 159.098,17.2096 159.098,17.5586 C159.098,17.9076 159.145,18.2188 159.24,18.4922 C159.335,18.7656 159.477,18.9811 159.666,19.1387 C159.855,19.2962 160.089,19.375 160.367,19.375 M164.398,22.7969 L164.398,14.5469 L166.039,14.5469 L166.039,15.5547 L166.113,15.5547 C166.186,15.3932 166.292,15.2285 166.432,15.0605 C166.571,14.8926 166.753,14.752 166.979,14.6387 C167.204,14.5254 167.484,14.4688 167.82,14.4688 C168.258,14.4688 168.661,14.5827 169.031,14.8105 C169.401,15.0384 169.697,15.3809 169.918,15.8379 C170.139,16.2949 170.25,16.8672 170.25,17.5547 C170.25,18.224 170.143,18.7884 169.928,19.248 C169.713,19.7077 169.421,20.0553 169.053,20.291 C168.684,20.5267 168.272,20.6445 167.816,20.6445 C167.493,20.6445 167.219,20.5911 166.994,20.4844 C166.769,20.3776 166.585,20.2428 166.441,20.0801 C166.298,19.9173 166.189,19.7526 166.113,19.5859 L166.063,19.5859 L166.063,22.7969 L164.398,22.7969 M166.027,17.5469 C166.027,17.9036 166.077,18.2148 166.176,18.4805 C166.275,18.7461 166.418,18.9525 166.605,19.0996 C166.793,19.2467 167.021,19.3203 167.289,19.3203 C167.56,19.3203 167.789,19.2454 167.977,19.0957 C168.164,18.946 168.307,18.7376 168.404,18.4707 C168.502,18.2038 168.551,17.8958 168.551,17.5469 C168.551,17.2005 168.503,16.8958 168.406,16.6328 C168.31,16.3698 168.168,16.1641 167.98,16.0156 C167.793,15.8672 167.563,15.793 167.289,15.793 C167.018,15.793 166.79,15.8646 166.604,16.0078 C166.417,16.151 166.275,16.3542 166.176,16.6172 C166.077,16.8802 166.027,17.1901 166.027,17.5469 M173.898,20.5469 L173.898,14.5469 L175.484,14.5469 L175.484,15.6055 L175.555,15.6055 C175.68,15.2539 175.888,14.9766 176.18,14.7734 C176.471,14.5703 176.82,14.4688 177.227,14.4688 C177.638,14.4688 177.988,14.571 178.277,14.7754 C178.566,14.9798 178.759,15.2565 178.855,15.6055 L178.918,15.6055 C179.04,15.2617 179.262,14.9863 179.584,14.7793 C179.906,14.5723 180.286,14.4688 180.727,14.4688 C181.286,14.4688 181.742,14.6465 182.092,15.002 C182.442,15.3574 182.617,15.8607 182.617,16.5117 L182.617,20.5469 L180.957,20.5469 L180.957,16.8398 C180.957,16.5065 180.868,16.2565 180.691,16.0898 C180.514,15.9232 180.293,15.8398 180.027,15.8398 C179.725,15.8398 179.49,15.9355 179.32,16.127 C179.151,16.3184 179.066,16.5703 179.066,16.8828 L179.066,20.5469 L177.453,20.5469 L177.453,16.8047 C177.453,16.5104 177.369,16.276 177.201,16.1016 C177.033,15.9271 176.813,15.8398 176.539,15.8398 C176.354,15.8398 176.188,15.8861 176.041,15.9785 C175.894,16.071 175.777,16.1999 175.691,16.3652 C175.605,16.5306 175.563,16.724 175.563,16.9453 L175.563,20.5469 L173.898,20.5469 M186.641,20.6641 C186.034,20.6641 185.51,20.5345 185.068,20.2754 C184.627,20.0163 184.286,19.6543 184.047,19.1895 C183.807,18.7246 183.688,18.1849 183.688,17.5703 C183.688,16.9505 183.807,16.4082 184.047,15.9434 C184.286,15.4785 184.627,15.1165 185.068,14.8574 C185.51,14.5983 186.034,14.4688 186.641,14.4688 C187.247,14.4688 187.771,14.5983 188.213,14.8574 C188.654,15.1165 188.995,15.4785 189.234,15.9434 C189.474,16.4082 189.594,16.9505 189.594,17.5703 C189.594,18.1849 189.474,18.7246 189.234,19.1895 C188.995,19.6543 188.654,20.0163 188.213,20.2754 C187.771,20.5345 187.247,20.6641 186.641,20.6641 M186.648,19.375 C186.924,19.375 187.155,19.2962 187.34,19.1387 C187.525,18.9811 187.665,18.7656 187.76,18.4922 C187.855,18.2188 187.902,17.9076 187.902,17.5586 C187.902,17.2096 187.855,16.8984 187.76,16.625 C187.665,16.3516 187.525,16.1354 187.34,15.9766 C187.155,15.8177 186.924,15.7383 186.648,15.7383 C186.37,15.7383 186.136,15.8177 185.947,15.9766 C185.758,16.1354 185.617,16.3516 185.521,16.625 C185.426,16.8984 185.379,17.2096 185.379,17.5586 C185.379,17.9076 185.426,18.2188 185.521,18.4922 C185.617,18.7656 185.758,18.9811 185.947,19.1387 C186.136,19.2962 186.37,19.375 186.648,19.375 M193.871,14.5469 L193.871,15.7969 L190.258,15.7969 L190.258,14.5469 L193.871,14.5469 M191.078,13.1094 L192.742,13.1094 L192.742,18.7031 C192.742,18.8568 192.766,18.9759 192.813,19.0605 C192.859,19.1452 192.925,19.2044 193.01,19.2383 C193.094,19.2721 193.193,19.2891 193.305,19.2891 C193.383,19.2891 193.461,19.2819 193.539,19.2676 C193.617,19.2533 193.677,19.2422 193.719,19.2344 L193.98,20.4727 C193.897,20.4987 193.78,20.5293 193.629,20.5645 C193.478,20.5996 193.294,20.6211 193.078,20.6289 C192.677,20.6445 192.326,20.5911 192.025,20.4688 C191.725,20.3464 191.491,20.1563 191.324,19.8984 C191.158,19.6406 191.076,19.3151 191.078,18.9219 L191.078,13.1094 M197.594,20.6641 C196.987,20.6641 196.463,20.5345 196.021,20.2754 C195.58,20.0163 195.24,19.6543 195,19.1895 C194.76,18.7246 194.641,18.1849 194.641,17.5703 C194.641,16.9505 194.76,16.4082 195,15.9434 C195.24,15.4785 195.58,15.1165 196.021,14.8574 C196.463,14.5983 196.987,14.4688 197.594,14.4688 C198.201,14.4688 198.725,14.5983 199.166,14.8574 C199.607,15.1165 199.948,15.4785 200.188,15.9434 C200.427,16.4082 200.547,16.9505 200.547,17.5703 C200.547,18.1849 200.427,18.7246 200.188,19.1895 C199.948,19.6543 199.607,20.0163 199.166,20.2754 C198.725,20.5345 198.201,20.6641 197.594,20.6641 M197.602,19.375 C197.878,19.375 198.108,19.2962 198.293,19.1387 C198.478,18.9811 198.618,18.7656 198.713,18.4922 C198.808,18.2188 198.855,17.9076 198.855,17.5586 C198.855,17.2096 198.808,16.8984 198.713,16.625 C198.618,16.3516 198.478,16.1354 198.293,15.9766 C198.108,15.8177 197.878,15.7383 197.602,15.7383 C197.323,15.7383 197.089,15.8177 196.9,15.9766 C196.712,16.1354 196.57,16.3516 196.475,16.625 C196.38,16.8984 196.332,17.2096 196.332,17.5586 C196.332,17.9076 196.38,18.2188 196.475,18.4922 C196.57,18.7656 196.712,18.9811 196.9,19.1387 C197.089,19.2962 197.323,19.375 197.602,19.375 M201.633,20.5469 L201.633,14.5469 L203.246,14.5469 L203.246,15.5938 L203.309,15.5938 C203.418,15.2214 203.602,14.9395 203.859,14.748 C204.117,14.5566 204.414,14.4609 204.75,14.4609 C204.833,14.4609 204.923,14.4661 205.02,14.4766 C205.116,14.487 205.201,14.5013 205.273,14.5195 L205.273,15.9961 C205.195,15.9727 205.087,15.9518 204.949,15.9336 C204.811,15.9154 204.685,15.9063 204.57,15.9063 C204.326,15.9063 204.107,15.959 203.916,16.0645 C203.725,16.1699 203.574,16.3164 203.463,16.5039 C203.352,16.6914 203.297,16.9076 203.297,17.1523 L203.297,20.5469 L201.633,20.5469 M211.109,16.2578 L209.586,16.3516 C209.56,16.2214 209.504,16.1035 209.418,15.998 C209.332,15.8926 209.219,15.8079 209.08,15.7441 C208.941,15.6803 208.775,15.6484 208.582,15.6484 C208.324,15.6484 208.107,15.7025 207.93,15.8105 C207.753,15.9186 207.664,16.0625 207.664,16.2422 C207.664,16.3854 207.721,16.5065 207.836,16.6055 C207.951,16.7044 208.147,16.7839 208.426,16.8438 L209.512,17.0625 C210.095,17.1823 210.53,17.375 210.816,17.6406 C211.103,17.9063 211.246,18.2552 211.246,18.6875 C211.246,19.0807 211.131,19.4258 210.9,19.7227 C210.67,20.0195 210.355,20.2507 209.955,20.416 C209.555,20.5814 209.095,20.6641 208.574,20.6641 C207.78,20.6641 207.148,20.498 206.678,20.166 C206.208,19.834 205.932,19.3815 205.852,18.8086 L207.488,18.7227 C207.538,18.9648 207.658,19.1491 207.848,19.2754 C208.038,19.4017 208.281,19.4648 208.578,19.4648 C208.87,19.4648 209.105,19.4082 209.283,19.2949 C209.462,19.1816 209.552,19.0352 209.555,18.8555 C209.552,18.7044 209.488,18.5801 209.363,18.4824 C209.238,18.3848 209.046,18.3099 208.785,18.2578 L207.746,18.0508 C207.16,17.9336 206.725,17.7305 206.439,17.4414 C206.154,17.1523 206.012,16.7839 206.012,16.3359 C206.012,15.9505 206.117,15.6185 206.326,15.3398 C206.536,15.0612 206.831,14.8464 207.213,14.6953 C207.594,14.5443 208.042,14.4688 208.555,14.4688 C209.313,14.4688 209.91,14.6289 210.346,14.9492 C210.782,15.2695 211.036,15.7057 211.109,16.2578 "/>
</g>

<g fill="#ffffff" fill-opacity="1" stroke="none" transform="matrix(0.0285,0,0,0.0285,11.2928,9.44754)"
font-family="Inter" font-size="11" font-weight="700" font-style="normal" 
>
<path vector-effect="none" fill-rule="nonzero" d="M410.778,59.991 C376.729,59.991 346.629,75.6235 326.182,99.684 C216.768,129.689 131.433,215.271 101.927,324.891 C79.5232,345.494 65.3275,374.762 65.54,407.6 C65.7463,439.573 79.3407,468.172 100.975,488.421 C130.228,601.34 218.744,689.335 331.859,718.096 C331.956,718.125 331.989,718.313 332.085,718.338 C352.242,738.376 380.064,750.708 410.778,750.708 C441.492,750.708 469.314,738.376 489.47,718.338 C489.549,718.262 489.618,718.17 489.696,718.096 C604.323,688.948 693.738,598.994 721.758,483.921 C742.939,463.42 756.216,434.907 756.015,403.1 C755.801,370.079 741.086,340.899 718.209,320.633 C687.622,213.077 603.338,129.291 495.373,99.684 C474.926,75.6235 444.827,59.991 410.778,59.991 M410.778,91.8938 C455.052,91.8938 490.89,127.731 490.89,172.006 C490.89,216.28 455.052,252.102 410.778,252.102 C366.503,252.102 330.666,216.28 330.666,172.006 C330.666,127.731 366.503,91.8938 410.778,91.8938 M177.071,325.601 C221.346,325.601 257.183,361.438 257.183,405.713 C257.183,449.987 221.346,485.808 177.071,485.808 C132.796,485.808 96.7332,449.987 96.7332,405.713 C96.7332,361.438 132.796,325.601 177.071,325.601 M644.485,325.601 C688.763,325.601 724.822,361.438 724.822,405.713 C724.822,449.987 688.763,485.808 644.485,485.808 C600.21,485.808 564.373,449.987 564.373,405.713 C564.373,361.438 600.21,325.601 644.485,325.601 M396.601,335.762 L424.955,335.762 C431.754,335.762 437.245,342.538 437.245,350.891 L437.245,381.6 L467.971,381.6 C476.323,381.6 483.083,387.091 483.083,393.89 L483.083,422.245 C483.083,429.044 476.323,434.535 467.971,434.535 L437.245,434.535 L437.245,465.26 C437.245,473.612 431.754,480.373 424.955,480.373 L396.601,480.373 C389.801,480.373 384.31,473.613 384.31,465.26 L384.31,434.535 L353.585,434.535 C345.233,434.535 338.472,429.044 338.472,422.245 L338.472,393.89 C338.472,387.091 345.232,381.6 353.585,381.6 L384.31,381.6 L384.31,350.891 C384.31,342.539 389.801,335.762 396.601,335.762 M410.778,559.307 C455.052,559.307 490.89,595.371 490.89,639.645 C490.89,683.918 455.052,719.757 410.778,719.757 C366.503,719.757 330.666,683.918 330.666,639.645 C330.666,595.371 366.503,559.307 410.778,559.307 "/>
</g>

<g fill="none" stroke="#000000" stroke-opacity="1" stroke-width="22.7975" stroke-linecap="round" stroke-linejoin="round" transform="matrix(0.0285,0,0,0.0285,11.2928,9.44754)"
font-family="Inter" font-size="11" font-weight="700" font-style="normal" 
>
<path vector-effect="none" fill-rule="nonzero" d="M410.778,59.991 C376.729,59.991 346.629,75.6235 326.182,99.684 C216.768,129.689 131.433,215.271 101.927,324.891 C79.5232,345.494 65.3275,374.762 65.54,407.6 C65.7463,439.573 79.3407,468.172 100.975,488.421 C130.228,601.34 218.744,689.335 331.859,718.096 C331.956,718.125 331.989,718.313 332.085,718.338 C352.242,738.376 380.064,750.708 410.778,750.708 C441.492,750.708 469.314,738.376 489.47,718.338 C489.549,718.262 489.618,718.17 489.696,718.096 C604.323,688.948 693.738,598.994 721.758,483.921 C742.939,463.42 756.216,434.907 756.015,403.1 C755.801,370.079 741.086,340.899 718.209,320.633 C687.622,213.077 603.338,129.291 495.373,99.684 C474.926,75.6235 444.827,59.991 410.778,59.991 M410.778,91.8938 C455.052,91.8938 490.89,127.731 490.89,172.006 C490.89,216.28 455.052,252.102 410.778,252.102 C366.503,252.102 330.666,216.28 330.666,172.006 C330.666,127.731 366.503,91.8938 410.778,91.8938 M177.071,325.601 C221.346,325.601 257.183,361.438 257.183,405.713 C257.183,449.987 221.346,485.808 177.071,485.808 C132.796,485.808 96.7332,449.987 96.7332,405.713 C96.7332,361.438 132.796,325.601 177.071,325.601 M644.485,325.601 C688.763,325.601 724.822,361.438 724.822,405.713 C724.822,449.987 688.763,485.808 644.485,485.808 C600.21,485.808 564.373,449.987 564.373,405.713 C564.373,361.438 600.21,325.601 644.485,325.601 M396.601,335.762 L424.955,335.762 C431.754,335.762 437.245,342.538 437.245,350.891 L437.245,381.6 L467.971,381.6 C476.323,381.6 483.083,387.091 483.083,393.89 L483.083,422.245 C483.083,429.044 476.323,434.535 467.971,434.535 L437.245,434.535 L437.245,465.26 C437.245,473.612 431.754,480.373 424.955,480.373 L396.601,480.373 C389.801,480.373 384.31,473.613 384.31,465.26 L384.31,434.535 L353.585,434.535 C345.233,434.535 338.472,429.044 338.472,422.245 L338.472,393.89 C338.472,387.091 345.232,381.6 353.585,381.6 L384.31,381.6 L384.31,350.891 C384.31,342.539 389.801,335.762 396.601,335.762 M410.778,559.307 C455.052,559.307 490.89,595.371 490.89,639.645 C490.89,683.918 455.052,719.757 410.778,719.757 C366.503,719.757 330.666,683.918 330.666,639.645 C330.666,595.371 366.503,559.307 410.778,559.307 "/>
</g>

<g fill="#000000" fill-opacity="1" stroke="none" transform="matrix(0.0285,0,0,0.0285,11.2928,9.44754)"
font-family="Inter" font-size="11" font-weight="700" font-style="normal" 
>
<path vector-effect="none" fill-rule="evenodd" d="M394.961,355.661 C394.961,347.613 401.485,341.088 409.533,341.088 C417.582,341.088 424.106,347.613 424.106,355.661 L424.106,457.48 C424.106,465.528 417.582,472.053 409.533,472.053 C401.485,472.053 394.961,465.528 394.961,457.48 L394.961,355.661"/>
</g>

<g fill="none" stroke="#000000" stroke-opacity="1" stroke-width="20" stroke-linecap="round" stroke-linejoin="round" transform="matrix(0.0285,0,0,0.0285,11.2928,9.44754)"
font-family="Inter" font-size="11" font-weight="700" font-style="normal" 
>
<path vector-effect="none" fill-rule="evenodd" d="M394.961,355.661 C394.961,347.613 401.485,341.088 409.533,341.088 C417.582,341.088 424.106,347.613 424.106,355.661 L424.106,457.48 C424.106,465.528 417.582,472.053 409.533,472.053 C401.485,472.053 394.961,465.528 394.961,457.48 L394.961,355.661"/>
</g>

<g fill="#000000" fill-opacity="1" stroke="none" transform="matrix(0,0.0285,-0.0285,0,11.2928,9.44754)"
font-family="Inter" font-size="11" font-weight="700" font-style="normal" 
>
<path vector-effect="none" fill-rule="evenodd" d="M394.152,-461.016 C394.152,-469.064 400.676,-475.588 408.724,-475.588 C416.773,-475.588 423.297,-469.064 423.297,-461.016 L423.297,-359.196 C423.297,-351.148 416.773,-344.624 408.724,-344.624 C400.676,-344.624 394.152,-351.148 394.152,-359.196 L394.152,-461.016"/>
</g>

<g fill="none" stroke="#000000" stroke-opacity="1" stroke-width="20" stroke-linecap="round" stroke-linejoin="round" transform="matrix(0,0.0285,-0.0285,0,11.2928,9.44754)"
font-family="Inter" font-size="11" font-weight="700" font-style="normal" 
>
<path vector-effect="none" fill-rule="evenodd" d="M394.152,-461.016 C394.152,-469.064 400.676,-475.588 408.724,-475.588 C416.773,-475.588 423.297,-469.064 423.297,-461.016 L423.297,-359.196 C423.297,-351.148 416.773,-344.624 408.724,-344.624 C400.676,-344.624 394.152,-351.148 394.152,-359.196 L394.152,-461.016"/>
</g>

<g fill="#ffffff" fill-opacity="1" stroke="none" transform="matrix(1,0,0,1,0,0)"
font-family="Inter" font-size="11" font-weight="700" font-style="normal" 
>
</g>

<g fill="#ffffff" fill-opacity="1" stroke="#0070ba" stroke-opacity="1" stroke-width="1" stroke-linecap="square" stroke-linejoin="bevel" transform="matrix(1,0,0,1,0,0)"
font-family="Inter" font-size="11" font-weight="700" font-style="normal" 
>
<polyline fill="none" vector-effect="none" points="45,11 45,31 " />
</g>

<g fill="#ffffff" fill-opacity="1" stroke="#0070ba" stroke-opacity="1" stroke-width="1" stroke-linecap="square" stroke-linejoin="bevel" transform="matrix(1,0,0,1,0,0)"
font-family="Inter" font-size="11" font-weight="700" font-style="normal" 
>
</g>

<g fill="#ffffff" fill-opacity="1" stroke="#0070ba" stroke-opacity="1" stroke-width="1" stroke-linecap="square" stroke-linejoin="bevel" transform="matrix(1,0,0,1,0,0)"
font-family="Inter" font-size="11" font-weight="700" font-style="normal" 
>
</g>

<g fill="#0090f5" fill-opacity="1" stroke="#0070ba" stroke-opacity="1" stroke-width="1.2" stroke-linecap="square" stroke-linejoin="bevel" transform="matrix(1,0,0,1,56,6)"
font-family="Inter" font-size="11" font-weight="700" font-style="normal" 
>
<path vector-effect="none" fill-rule="evenodd" d="M0.5,3.5 C0.5,1.84315 1.84315,0.5 3.5,0.5 L81.5,0.5 C83.1569,0.5 84.5,1.84315 84.5,3.5 L84.5,20.5 C84.5,22.1569 83.1569,23.5 81.5,23.5 L3.5,23.5 C1.84315,23.5 0.5,22.1569 0.5,20.5 L0.5,3.5"/>
</g>

<g fill="#ffffff" fill-opacity="1" stroke="none" transform="matrix(1,0,0,1,56,6)"
font-family="Inter" font-size="11" font-weight="700" font-style="normal" 
>
<path vector-effect="none" fill-rule="nonzero" d="M10,9.39453 L10,8 L16.5703,8 L16.5703,9.39453 L14.1211,9.39453 L14.1211,16 L12.4492,16 L12.4492,9.39453 L10,9.39453 M17.6484,16 L17.6484,8 L19.3398,8 L19.3398,11.3008 L22.7734,11.3008 L22.7734,8 L24.4609,8 L24.4609,16 L22.7734,16 L22.7734,12.6953 L19.3398,12.6953 L19.3398,16 L17.6484,16 M25.8516,8 L27.9375,8 L30.1406,13.375 L30.2344,13.375 L32.4375,8 L34.5234,8 L34.5234,16 L32.8828,16 L32.8828,10.793 L32.8164,10.793 L30.7461,15.9609 L29.6289,15.9609 L27.5586,10.7734 L27.4922,10.7734 L27.4922,16 L25.8516,16 L25.8516,8 M37.3594,8 L39.293,14.0781 L39.3672,14.0781 L41.3047,8 L43.1797,8 L40.4219,16 L38.2422,16 L35.4805,8 L37.3594,8 M44.1328,16 L44.1328,8 L45.8242,8 L45.8242,11.3008 L49.2578,11.3008 L49.2578,8 L50.9453,8 L50.9453,16 L49.2578,16 L49.2578,12.6953 L45.8242,12.6953 L45.8242,16 L44.1328,16 M52.3359,16 L52.3359,8 L55.5391,8 C56.1276,8 56.6185,8.08724 57.0117,8.26172 C57.4049,8.4362 57.7005,8.67773 57.8984,8.98633 C58.0964,9.29492 58.1953,9.64974 58.1953,10.0508 C58.1953,10.3633 58.1328,10.6374 58.0078,10.873 C57.8828,11.1087 57.7116,11.3014 57.4941,11.4512 C57.2767,11.6009 57.0286,11.707 56.75,11.7695 L56.75,11.8477 C57.0547,11.8607 57.3405,11.9466 57.6074,12.1055 C57.8743,12.2643 58.0911,12.4863 58.2578,12.7715 C58.4245,13.0566 58.5078,13.3958 58.5078,13.7891 C58.5078,14.2135 58.403,14.5918 58.1934,14.9238 C57.9837,15.2559 57.6745,15.5182 57.2656,15.7109 C56.8568,15.9036 56.3529,16 55.7539,16 L52.3359,16 M54.0273,14.6172 L55.4063,14.6172 C55.8776,14.6172 56.2214,14.5267 56.4375,14.3457 C56.6536,14.1647 56.7617,13.9232 56.7617,13.6211 C56.7617,13.3997 56.7083,13.2044 56.6016,13.0352 C56.4948,12.8659 56.3431,12.7331 56.1465,12.6367 C55.9499,12.5404 55.7161,12.4922 55.4453,12.4922 L54.0273,12.4922 L54.0273,14.6172 M54.0273,11.3477 L55.2813,11.3477 C55.513,11.3477 55.7194,11.3066 55.9004,11.2246 C56.0814,11.1426 56.2246,11.026 56.3301,10.875 C56.4355,10.724 56.4883,10.543 56.4883,10.332 C56.4883,10.043 56.3861,9.8099 56.1816,9.63281 C55.9772,9.45573 55.6875,9.36719 55.3125,9.36719 L54.0273,9.36719 L54.0273,11.3477 M63.0352,8 L63.0352,16 L61.3438,16 L61.3438,9.60547 L61.2969,9.60547 L59.4648,10.7539 L59.4648,9.25391 L61.4453,8 L63.0352,8"/>
</g>

<g fill="#ffffff" fill-opacity="1" stroke="none" transform="matrix(0.03125,0,0,0.03125,127,14)"
font-family="Inter" font-size="11" font-weight="700" font-style="normal" 
>
<path vector-effect="none" fill-rule="nonzero" d="M111.326,191.938 C120.545,201.158 135.517,201.158 144.737,191.938 L239.144,97.5313 C245.929,90.7458 247.921,80.6413 244.233,71.7907 C240.545,62.9401 231.989,57.1871 222.401,57.1871 L33.5875,57.2608 C24.0731,57.2608 15.4437,63.0137 11.7559,71.8644 C8.06815,80.715 10.1333,90.8195 16.845,97.605 L111.252,192.012 L111.326,191.938"/>
</g>

<g fill="none" stroke="#000000" stroke-opacity="1" stroke-width="13.7195" stroke-linecap="butt" stroke-linejoin="miter" stroke-miterlimit="4" transform="matrix(0.03125,0,0,0.03125,127,14)"
font-family="Inter" font-size="11" font-weight="700" font-style="normal" 
>
<path vector-effect="none" fill-rule="nonzero" d="M111.326,191.938 C120.545,201.158 135.517,201.158 144.737,191.938 L239.144,97.5313 C245.929,90.7458 247.921,80.6413 244.233,71.7907 C240.545,62.9401 231.989,57.1871 222.401,57.1871 L33.5875,57.2608 C24.0731,57.2608 15.4437,63.0137 11.7559,71.8644 C8.06815,80.715 10.1333,90.8195 16.845,97.605 L111.252,192.012 L111.326,191.938"/>
</g>

<g fill="#ffffff" fill-opacity="1" stroke="none" transform="matrix(1,0,0,1,56,6)"
font-family="Inter" font-size="11" font-weight="700" font-style="normal" 
>
</g>

<g fill="#ffffff" fill-opacity="1" stroke="#0070ba" stroke-opacity="1" stroke-width="1" stroke-linecap="square" stroke-linejoin="bevel" transform="matrix(1,0,0,1,0,0)"
font-family="Inter" font-size="11" font-weight="700" font-style="normal" 
>
</g>

<g fill="none" stroke="#000000" stroke-opacity="1" stroke-width="1" stroke-linecap="square" stroke-linejoin="bevel" transform="matrix(1,0,0,1,0,0)"
font-family=".AppleSystemUIFont" font-size="13" font-weight="400" font-style="normal" 
>
</g>
</g>
</svg>
