<?xml version="1.0" encoding="UTF-8" standalone="no"?>
<svg width="59.2667mm" height="15.5222mm"
 viewBox="0 0 168 44"
 xmlns="http://www.w3.org/2000/svg" xmlns:xlink="http://www.w3.org/1999/xlink" version="1.2" baseProfile="tiny">
<title>Abstract block</title>
<desc>block_lists_delete</desc>
<defs>
</defs>
<g fill="none" stroke="black" stroke-width="1" fill-rule="evenodd" stroke-linecap="square" stroke-linejoin="bevel" >

<g fill="none" stroke="#000000" stroke-opacity="1" stroke-width="1" stroke-linecap="square" stroke-linejoin="bevel" transform="matrix(1,0,0,1,0,0)"
font-family=".AppleSystemUIFont" font-size="13" font-weight="400" font-style="normal" 
>
</g>

<g fill="none" stroke="#000000" stroke-opacity="1" stroke-width="1" stroke-linecap="square" stroke-linejoin="bevel" transform="matrix(1,0,0,1,0,0)"
font-family=".AppleSystemUIFont" font-size="13" font-weight="400" font-style="normal" 
>
</g>

<g fill="#ff661a" fill-opacity="1" stroke="#de4600" stroke-opacity="1" stroke-width="1.2" stroke-linecap="square" stroke-linejoin="bevel" transform="matrix(1,0,0,1,0,0)"
font-family=".AppleSystemUIFont" font-size="13" font-weight="400" font-style="normal" 
>
<path vector-effect="none" fill-rule="evenodd" d="M0.5,4.5 L1.04612,2.48112 L2.48112,1.04612 L4.5,0.5 L9.625,0.5 L10.416,0.976563 L11.1719,1.6875 L11.998,2.67969 L13,4 L13.7559,4.66016 L14.5469,5.15625 L15.4082,5.51172 L16.375,5.75 L17.4824,5.89453 L18.7656,5.96875 L20.2598,5.99609 L22,6 L23.7402,5.99609 L25.2344,5.96875 L26.5176,5.89453 L27.625,5.75 L28.5918,5.51172 L29.4531,5.15625 L30.2441,4.66016 L31,4 L32.002,2.67969 L32.8281,1.6875 L33.584,0.976563 L34.375,0.5 L163.4,0.5 L165.419,1.04612 L166.854,2.48112 L167.4,4.5 L167.4,31.5 L166.854,33.5189 L165.419,34.9539 L163.4,35.5 L34.375,35.5 L33.584,35.9766 L32.8281,36.6875 L32.002,37.6797 L31,39 L30.2441,39.6602 L29.4531,40.1563 L28.5918,40.5117 L27.625,40.75 L26.5176,40.8945 L25.2344,40.9688 L23.7402,40.9961 L22,41 L20.2598,40.9961 L18.7656,40.9688 L17.4824,40.8945 L16.375,40.75 L15.4082,40.5117 L14.5469,40.1563 L13.7559,39.6602 L13,39 L11.998,37.6797 L11.1719,36.6875 L10.416,35.9766 L9.625,35.5 L4.5,35.5 L2.48112,34.9539 L1.04612,33.5189 L0.5,31.5 L0.5,4.5"/>
</g>

<g fill="#ffffff" fill-opacity="1" stroke="none" transform="matrix(1,0,0,1,0,0)"
font-family="Inter" font-size="11" font-weight="700" font-style="normal" 
>
<path vector-effect="none" fill-rule="nonzero" d="M14.2969,21.832 C13.8411,21.832 13.429,21.7142 13.0605,21.4785 C12.6921,21.2428 12.4004,20.8952 12.1855,20.4355 C11.9707,19.9759 11.8633,19.4115 11.8633,18.7422 C11.8633,18.0547 11.974,17.4824 12.1953,17.0254 C12.4167,16.5684 12.7116,16.2259 13.0801,15.998 C13.4486,15.7702 13.8529,15.6563 14.293,15.6563 C14.6289,15.6563 14.9095,15.7129 15.1348,15.8262 C15.36,15.9395 15.5423,16.0801 15.6816,16.248 C15.821,16.416 15.9271,16.5807 16,16.7422 L16.0508,16.7422 L16.0508,13.7344 L17.7109,13.7344 L17.7109,21.7344 L16.0703,21.7344 L16.0703,20.7734 L16,20.7734 C15.9219,20.9401 15.8118,21.1048 15.6699,21.2676 C15.528,21.4303 15.3444,21.5651 15.1191,21.6719 C14.8939,21.7786 14.6198,21.832 14.2969,21.832 M14.8242,20.5078 C15.0924,20.5078 15.3197,20.4342 15.5059,20.2871 C15.6921,20.14 15.8353,19.9336 15.9355,19.668 C16.0358,19.4023 16.0859,19.0911 16.0859,18.7344 C16.0859,18.3776 16.0365,18.0677 15.9375,17.8047 C15.8385,17.5417 15.6953,17.3385 15.5078,17.1953 C15.3203,17.0521 15.0924,16.9805 14.8242,16.9805 C14.5508,16.9805 14.3203,17.0547 14.1328,17.2031 C13.9453,17.3516 13.8034,17.5573 13.707,17.8203 C13.6107,18.0833 13.5625,18.388 13.5625,18.7344 C13.5625,19.0833 13.6113,19.3913 13.709,19.6582 C13.8066,19.9251 13.9486,20.1335 14.1348,20.2832 C14.321,20.4329 14.5508,20.5078 14.8242,20.5078 M21.8047,21.8516 C21.1875,21.8516 20.6569,21.7259 20.2129,21.4746 C19.7689,21.2233 19.4271,20.8665 19.1875,20.4043 C18.9479,19.9421 18.8281,19.3945 18.8281,18.7617 C18.8281,18.1445 18.9479,17.6029 19.1875,17.1367 C19.4271,16.6706 19.765,16.3073 20.2012,16.0469 C20.6374,15.7865 21.1497,15.6563 21.7383,15.6563 C22.1341,15.6563 22.5033,15.7194 22.8457,15.8457 C23.1882,15.972 23.4876,16.1615 23.7441,16.4141 C24.0007,16.6667 24.2005,16.9837 24.3438,17.3652 C24.487,17.7467 24.5586,18.1927 24.5586,18.7031 L24.5586,19.1602 L19.4922,19.1602 L19.4922,18.1289 L22.9922,18.1289 C22.9922,17.8893 22.9401,17.6771 22.8359,17.4922 C22.7318,17.3073 22.5879,17.1621 22.4043,17.0566 C22.2207,16.9512 22.0078,16.8984 21.7656,16.8984 C21.513,16.8984 21.2897,16.9564 21.0957,17.0723 C20.9017,17.1882 20.75,17.3431 20.6406,17.5371 C20.5313,17.7311 20.4753,17.9466 20.4727,18.1836 L20.4727,19.1641 C20.4727,19.4609 20.528,19.7174 20.6387,19.9336 C20.7493,20.1497 20.9063,20.3164 21.1094,20.4336 C21.3125,20.5508 21.5534,20.6094 21.832,20.6094 C22.0169,20.6094 22.1862,20.5833 22.3398,20.5313 C22.4935,20.4792 22.625,20.401 22.7344,20.2969 C22.8438,20.1927 22.9271,20.0651 22.9844,19.9141 L24.5234,20.0156 C24.4453,20.3854 24.2858,20.7077 24.0449,20.9824 C23.804,21.2572 23.4941,21.4707 23.1152,21.623 C22.7363,21.7754 22.2995,21.8516 21.8047,21.8516 M27.2969,13.7344 L27.2969,21.7344 L25.6328,21.7344 L25.6328,13.7344 L27.2969,13.7344 M31.3516,21.8516 C30.7344,21.8516 30.2038,21.7259 29.7598,21.4746 C29.3158,21.2233 28.974,20.8665 28.7344,20.4043 C28.4948,19.9421 28.375,19.3945 28.375,18.7617 C28.375,18.1445 28.4948,17.6029 28.7344,17.1367 C28.974,16.6706 29.3118,16.3073 29.748,16.0469 C30.1842,15.7865 30.6966,15.6563 31.2852,15.6563 C31.681,15.6563 32.0501,15.7194 32.3926,15.8457 C32.735,15.972 33.0345,16.1615 33.291,16.4141 C33.5475,16.6667 33.7474,16.9837 33.8906,17.3652 C34.0339,17.7467 34.1055,18.1927 34.1055,18.7031 L34.1055,19.1602 L29.0391,19.1602 L29.0391,18.1289 L32.5391,18.1289 C32.5391,17.8893 32.487,17.6771 32.3828,17.4922 C32.2786,17.3073 32.1348,17.1621 31.9512,17.0566 C31.7676,16.9512 31.5547,16.8984 31.3125,16.8984 C31.0599,16.8984 30.8366,16.9564 30.6426,17.0723 C30.4486,17.1882 30.2969,17.3431 30.1875,17.5371 C30.0781,17.7311 30.0221,17.9466 30.0195,18.1836 L30.0195,19.1641 C30.0195,19.4609 30.0749,19.7174 30.1855,19.9336 C30.2962,20.1497 30.4531,20.3164 30.6563,20.4336 C30.8594,20.5508 31.1003,20.6094 31.3789,20.6094 C31.5638,20.6094 31.7331,20.5833 31.8867,20.5313 C32.0404,20.4792 32.1719,20.401 32.2813,20.2969 C32.3906,20.1927 32.474,20.0651 32.5313,19.9141 L34.0703,20.0156 C33.9922,20.3854 33.8327,20.7077 33.5918,20.9824 C33.3509,21.2572 33.041,21.4707 32.6621,21.623 C32.2832,21.7754 31.8464,21.8516 31.3516,21.8516 M38.3711,15.7344 L38.3711,16.9844 L34.7578,16.9844 L34.7578,15.7344 L38.3711,15.7344 M35.5781,14.2969 L37.2422,14.2969 L37.2422,19.8906 C37.2422,20.0443 37.2656,20.1634 37.3125,20.248 C37.3594,20.3327 37.4251,20.3919 37.5098,20.4258 C37.5944,20.4596 37.6927,20.4766 37.8047,20.4766 C37.8828,20.4766 37.9609,20.4694 38.0391,20.4551 C38.1172,20.4408 38.1771,20.4297 38.2188,20.4219 L38.4805,21.6602 C38.3971,21.6862 38.2799,21.7168 38.1289,21.752 C37.9779,21.7871 37.7943,21.8086 37.5781,21.8164 C37.1771,21.832 36.8262,21.7786 36.5254,21.6563 C36.2246,21.5339 35.9909,21.3438 35.8242,21.0859 C35.6576,20.8281 35.5755,20.5026 35.5781,20.1094 L35.5781,14.2969 M42.1172,21.8516 C41.5,21.8516 40.9694,21.7259 40.5254,21.4746 C40.0814,21.2233 39.7396,20.8665 39.5,20.4043 C39.2604,19.9421 39.1406,19.3945 39.1406,18.7617 C39.1406,18.1445 39.2604,17.6029 39.5,17.1367 C39.7396,16.6706 40.0775,16.3073 40.5137,16.0469 C40.9499,15.7865 41.4622,15.6563 42.0508,15.6563 C42.4466,15.6563 42.8158,15.7194 43.1582,15.8457 C43.5007,15.972 43.8001,16.1615 44.0566,16.4141 C44.3132,16.6667 44.513,16.9837 44.6563,17.3652 C44.7995,17.7467 44.8711,18.1927 44.8711,18.7031 L44.8711,19.1602 L39.8047,19.1602 L39.8047,18.1289 L43.3047,18.1289 C43.3047,17.8893 43.2526,17.6771 43.1484,17.4922 C43.0443,17.3073 42.9004,17.1621 42.7168,17.0566 C42.5332,16.9512 42.3203,16.8984 42.0781,16.8984 C41.8255,16.8984 41.6022,16.9564 41.4082,17.0723 C41.2142,17.1882 41.0625,17.3431 40.9531,17.5371 C40.8438,17.7311 40.7878,17.9466 40.7852,18.1836 L40.7852,19.1641 C40.7852,19.4609 40.8405,19.7174 40.9512,19.9336 C41.0618,20.1497 41.2188,20.3164 41.4219,20.4336 C41.625,20.5508 41.8659,20.6094 42.1445,20.6094 C42.3294,20.6094 42.4987,20.5833 42.6523,20.5313 C42.806,20.4792 42.9375,20.401 43.0469,20.2969 C43.1563,20.1927 43.2396,20.0651 43.2969,19.9141 L44.8359,20.0156 C44.7578,20.3854 44.5983,20.7077 44.3574,20.9824 C44.1165,21.2572 43.8066,21.4707 43.4277,21.623 C43.0488,21.7754 42.612,21.8516 42.1172,21.8516 "/>
</g>

<g fill="#ffffff" fill-opacity="1" stroke="none" transform="matrix(1,0,0,1,0,0)"
font-family="Inter" font-size="11" font-weight="700" font-style="normal" 
>
<path vector-effect="none" fill-rule="nonzero" d="M87.3281,16 L87.3281,17.25 L83.625,17.25 L83.625,16 L87.3281,16 M84.4727,22 L84.4727,15.5664 C84.4727,15.1315 84.5579,14.7708 84.7285,14.4844 C84.8991,14.1979 85.1328,13.9831 85.4297,13.8398 C85.7266,13.6966 86.0638,13.625 86.4414,13.625 C86.6966,13.625 86.9303,13.6445 87.1426,13.6836 C87.3548,13.7227 87.513,13.7578 87.6172,13.7891 L87.3203,15.0391 C87.2552,15.0182 87.1751,14.9987 87.0801,14.9805 C86.985,14.9622 86.888,14.9531 86.7891,14.9531 C86.5443,14.9531 86.3737,15.0098 86.2773,15.123 C86.181,15.2363 86.1328,15.3945 86.1328,15.5977 L86.1328,22 L84.4727,22 M88.3359,22 L88.3359,16 L89.9492,16 L89.9492,17.0469 L90.0117,17.0469 C90.1211,16.6745 90.3047,16.3926 90.5625,16.2012 C90.8203,16.0098 91.1172,15.9141 91.4531,15.9141 C91.5365,15.9141 91.6263,15.9193 91.7227,15.9297 C91.819,15.9401 91.9036,15.9544 91.9766,15.9727 L91.9766,17.4492 C91.8984,17.4258 91.7904,17.4049 91.6523,17.3867 C91.5143,17.3685 91.388,17.3594 91.2734,17.3594 C91.0286,17.3594 90.8105,17.4121 90.6191,17.5176 C90.4277,17.623 90.2767,17.7695 90.166,17.957 C90.0553,18.1445 90,18.3607 90,18.6055 L90,22 L88.3359,22 M95.25,22.1172 C94.6432,22.1172 94.1191,21.9876 93.6777,21.7285 C93.2363,21.4694 92.8958,21.1074 92.6563,20.6426 C92.4167,20.1777 92.2969,19.638 92.2969,19.0234 C92.2969,18.4036 92.4167,17.8613 92.6563,17.3965 C92.8958,16.9316 93.2363,16.5697 93.6777,16.3105 C94.1191,16.0514 94.6432,15.9219 95.25,15.9219 C95.8568,15.9219 96.3809,16.0514 96.8223,16.3105 C97.2637,16.5697 97.6042,16.9316 97.8438,17.3965 C98.0833,17.8613 98.2031,18.4036 98.2031,19.0234 C98.2031,19.638 98.0833,20.1777 97.8438,20.6426 C97.6042,21.1074 97.2637,21.4694 96.8223,21.7285 C96.3809,21.9876 95.8568,22.1172 95.25,22.1172 M95.2578,20.8281 C95.5339,20.8281 95.7643,20.7493 95.9492,20.5918 C96.1341,20.4342 96.2741,20.2188 96.3691,19.9453 C96.4642,19.6719 96.5117,19.3607 96.5117,19.0117 C96.5117,18.6628 96.4642,18.3516 96.3691,18.0781 C96.2741,17.8047 96.1341,17.5885 95.9492,17.4297 C95.7643,17.2708 95.5339,17.1914 95.2578,17.1914 C94.9792,17.1914 94.7454,17.2708 94.5566,17.4297 C94.3678,17.5885 94.2259,17.8047 94.1309,18.0781 C94.0358,18.3516 93.9883,18.6628 93.9883,19.0117 C93.9883,19.3607 94.0358,19.6719 94.1309,19.9453 C94.2259,20.2188 94.3678,20.4342 94.5566,20.5918 C94.7454,20.7493 94.9792,20.8281 95.2578,20.8281 M99.2891,22 L99.2891,16 L100.875,16 L100.875,17.0586 L100.945,17.0586 C101.07,16.707 101.279,16.4297 101.57,16.2266 C101.862,16.0234 102.211,15.9219 102.617,15.9219 C103.029,15.9219 103.379,16.0241 103.668,16.2285 C103.957,16.4329 104.15,16.7096 104.246,17.0586 L104.309,17.0586 C104.431,16.7148 104.653,16.4395 104.975,16.2324 C105.296,16.0254 105.677,15.9219 106.117,15.9219 C106.677,15.9219 107.132,16.0996 107.482,16.4551 C107.833,16.8105 108.008,17.3138 108.008,17.9648 L108.008,22 L106.348,22 L106.348,18.293 C106.348,17.9596 106.259,17.7096 106.082,17.543 C105.905,17.3763 105.684,17.293 105.418,17.293 C105.116,17.293 104.88,17.3887 104.711,17.5801 C104.542,17.7715 104.457,18.0234 104.457,18.3359 L104.457,22 L102.844,22 L102.844,18.2578 C102.844,17.9635 102.76,17.7292 102.592,17.5547 C102.424,17.3802 102.203,17.293 101.93,17.293 C101.745,17.293 101.579,17.3392 101.432,17.4316 C101.285,17.5241 101.168,17.653 101.082,17.8184 C100.996,17.9837 100.953,18.1771 100.953,18.3984 L100.953,22 L99.2891,22"/>
</g>

<g fill="#ff661a" fill-opacity="1" stroke="#de4600" stroke-opacity="1" stroke-width="1.2" stroke-linecap="square" stroke-linejoin="bevel" transform="matrix(1,0,0,1,114.4,6)"
font-family="Inter" font-size="11" font-weight="700" font-style="normal" 
>
<path vector-effect="none" fill-rule="evenodd" d="M0.5,3.5 C0.5,1.84315 1.84315,0.5 3.5,0.5 L44,0.5 C45.6569,0.5 47,1.84315 47,3.5 L47,20.5 C47,22.1569 45.6569,23.5 44,23.5 L3.5,23.5 C1.84315,23.5 0.5,22.1569 0.5,20.5 L0.5,3.5"/>
</g>

<g fill="#ffffff" fill-opacity="1" stroke="none" transform="matrix(1,0,0,1,114.4,6)"
font-family="Inter" font-size="11" font-weight="700" font-style="normal" 
>
<path vector-effect="none" fill-rule="nonzero" d="M11.1719,7.95313 L11.1719,15.9531 L9.50781,15.9531 L9.50781,7.95313 L11.1719,7.95313 M12.4922,15.9531 L12.4922,9.95313 L14.1563,9.95313 L14.1563,15.9531 L12.4922,15.9531 M13.3281,9.17969 C13.0807,9.17969 12.8691,9.09701 12.6934,8.93164 C12.5176,8.76628 12.4297,8.56771 12.4297,8.33594 C12.4297,8.10677 12.5176,7.90951 12.6934,7.74414 C12.8691,7.57878 13.0807,7.49609 13.3281,7.49609 C13.5755,7.49609 13.7871,7.57878 13.9629,7.74414 C14.1387,7.90951 14.2266,8.10677 14.2266,8.33594 C14.2266,8.56771 14.1387,8.76628 13.9629,8.93164 C13.7871,9.09701 13.5755,9.17969 13.3281,9.17969 M20.4688,11.6641 L18.9453,11.7578 C18.9193,11.6276 18.8633,11.5098 18.7773,11.4043 C18.6914,11.2988 18.5788,11.2142 18.4395,11.1504 C18.3001,11.0866 18.1341,11.0547 17.9414,11.0547 C17.6836,11.0547 17.4661,11.1087 17.2891,11.2168 C17.112,11.3249 17.0234,11.4688 17.0234,11.6484 C17.0234,11.7917 17.0807,11.9128 17.1953,12.0117 C17.3099,12.1107 17.5065,12.1901 17.7852,12.25 L18.8711,12.4688 C19.4544,12.5885 19.8893,12.7813 20.1758,13.0469 C20.4622,13.3125 20.6055,13.6615 20.6055,14.0938 C20.6055,14.487 20.4902,14.832 20.2598,15.1289 C20.0293,15.4258 19.7142,15.6569 19.3145,15.8223 C18.9147,15.9876 18.4544,16.0703 17.9336,16.0703 C17.1393,16.0703 16.5072,15.9043 16.0371,15.5723 C15.5671,15.2402 15.2917,14.7878 15.2109,14.2148 L16.8477,14.1289 C16.8971,14.3711 17.0169,14.5553 17.207,14.6816 C17.3971,14.8079 17.6406,14.8711 17.9375,14.8711 C18.2292,14.8711 18.4642,14.8145 18.6426,14.7012 C18.821,14.5879 18.9115,14.4414 18.9141,14.2617 C18.9115,14.1107 18.8477,13.9863 18.7227,13.8887 C18.5977,13.791 18.4049,13.7161 18.1445,13.6641 L17.1055,13.457 C16.5195,13.3398 16.084,13.1367 15.7988,12.8477 C15.5137,12.5586 15.3711,12.1901 15.3711,11.7422 C15.3711,11.3568 15.4759,11.0247 15.6855,10.7461 C15.8952,10.4674 16.1908,10.2526 16.5723,10.1016 C16.9538,9.95052 17.401,9.875 17.9141,9.875 C18.6719,9.875 19.2689,10.0352 19.7051,10.3555 C20.1413,10.6758 20.3958,11.112 20.4688,11.6641 M24.8398,9.95313 L24.8398,11.2031 L21.2266,11.2031 L21.2266,9.95313 L24.8398,9.95313 M22.0469,8.51563 L23.7109,8.51563 L23.7109,14.1094 C23.7109,14.263 23.7344,14.3822 23.7813,14.4668 C23.8281,14.5514 23.8939,14.6107 23.9785,14.6445 C24.0632,14.6784 24.1615,14.6953 24.2734,14.6953 C24.3516,14.6953 24.4297,14.6882 24.5078,14.6738 C24.5859,14.6595 24.6458,14.6484 24.6875,14.6406 L24.9492,15.8789 C24.8659,15.9049 24.7487,15.9355 24.5977,15.9707 C24.4466,16.0059 24.263,16.0273 24.0469,16.0352 C23.6458,16.0508 23.2949,15.9974 22.9941,15.875 C22.6934,15.7526 22.4596,15.5625 22.293,15.3047 C22.1263,15.0469 22.0443,14.7214 22.0469,14.3281 L22.0469,8.51563"/>
</g>

<g fill="#ffffff" fill-opacity="1" stroke="none" transform="matrix(0.03125,0,0,0.03125,147.9,14)"
font-family="Inter" font-size="11" font-weight="700" font-style="normal" 
>
<path vector-effect="none" fill-rule="nonzero" d="M111.326,191.938 C120.545,201.158 135.517,201.158 144.737,191.938 L239.144,97.5313 C245.929,90.7458 247.921,80.6413 244.233,71.7907 C240.545,62.9401 231.989,57.1871 222.401,57.1871 L33.5875,57.2608 C24.0731,57.2608 15.4437,63.0137 11.7559,71.8644 C8.06815,80.715 10.1333,90.8195 16.845,97.605 L111.252,192.012 L111.326,191.938"/>
</g>

<g fill="none" stroke="#000000" stroke-opacity="1" stroke-width="13.7195" stroke-linecap="butt" stroke-linejoin="miter" stroke-miterlimit="4" transform="matrix(0.03125,0,0,0.03125,147.9,14)"
font-family="Inter" font-size="11" font-weight="700" font-style="normal" 
>
<path vector-effect="none" fill-rule="nonzero" d="M111.326,191.938 C120.545,201.158 135.517,201.158 144.737,191.938 L239.144,97.5313 C245.929,90.7458 247.921,80.6413 244.233,71.7907 C240.545,62.9401 231.989,57.1871 222.401,57.1871 L33.5875,57.2608 C24.0731,57.2608 15.4437,63.0137 11.7559,71.8644 C8.06815,80.715 10.1333,90.8195 16.845,97.605 L111.252,192.012 L111.326,191.938"/>
</g>

<g fill="#ffffff" fill-opacity="1" stroke="none" transform="matrix(1,0,0,1,114.4,6)"
font-family="Inter" font-size="11" font-weight="700" font-style="normal" 
>
</g>

<g fill="#ffffff" fill-opacity="1" stroke="none" transform="matrix(1,0,0,1,0,0)"
font-family="Inter" font-size="11" font-weight="700" font-style="normal" 
>
</g>

<g fill="#ffffff" fill-opacity="1" stroke="none" transform="matrix(1,0,0,1,0,0)"
font-family="Inter" font-size="11" font-weight="700" font-style="normal" 
>
</g>

<g fill="#ffffff" fill-opacity="1" stroke="none" transform="matrix(1,0,0,1,0,0)"
font-family="Inter" font-size="11" font-weight="700" font-style="normal" 
>
</g>

<g fill="#ffffff" fill-opacity="1" stroke="none" transform="matrix(1,0,0,1,0,0)"
font-family="Inter" font-size="11" font-weight="700" font-style="normal" 
>
</g>

<g fill="#ffffff" fill-opacity="1" stroke="#ca4000" stroke-opacity="1" stroke-width="1.2" stroke-linecap="square" stroke-linejoin="bevel" transform="matrix(1,0,0,1,51,7)"
font-family="Inter" font-size="11" font-weight="700" font-style="normal" 
>
<path vector-effect="none" fill-rule="evenodd" d="M1,11 C1,5.47715 5.92487,1 12,1 L14.4,1 C20.4751,1 25.4,5.47715 25.4,11 C25.4,16.5228 20.4751,21 14.4,21 L12,21 C5.92487,21 1,16.5228 1,11 "/>
</g>

<g fill="#000000" fill-opacity="1" stroke="none" transform="matrix(1,0,0,1,51,7)"
font-family="Inter" font-size="10" font-weight="700" font-style="normal" 
>
<path vector-effect="none" fill-rule="nonzero" d="M14.5817,7.22727 L14.5817,14.5 L13.044,14.5 L13.044,8.68679 L13.0014,8.68679 L11.3359,9.73082 L11.3359,8.36719 L13.1364,7.22727 L14.5817,7.22727"/>
</g>

<g fill="#ffffff" fill-opacity="1" stroke="none" transform="matrix(1,0,0,1,0,0)"
font-family="Inter" font-size="11" font-weight="700" font-style="normal" 
>
</g>

<g fill="none" stroke="#000000" stroke-opacity="1" stroke-width="1" stroke-linecap="square" stroke-linejoin="bevel" transform="matrix(1,0,0,1,0,0)"
font-family=".AppleSystemUIFont" font-size="13" font-weight="400" font-style="normal" 
>
</g>
</g>
</svg>
