<?xml version="1.0" encoding="UTF-8" standalone="no"?>
<svg width="103.011mm" height="15.5222mm"
 viewBox="0 0 292 44"
 xmlns="http://www.w3.org/2000/svg" xmlns:xlink="http://www.w3.org/1999/xlink" version="1.2" baseProfile="tiny">
<title>Abstract block</title>
<desc>block_hubs_all_motors_port_start_motor</desc>
<defs>
</defs>
<g fill="none" stroke="black" stroke-width="1" fill-rule="evenodd" stroke-linecap="square" stroke-linejoin="bevel" >

<g fill="none" stroke="#000000" stroke-opacity="1" stroke-width="1" stroke-linecap="square" stroke-linejoin="bevel" transform="matrix(1,0,0,1,0,0)"
font-family=".AppleSystemUIFont" font-size="13" font-weight="400" font-style="normal" 
>
</g>

<g fill="none" stroke="#000000" stroke-opacity="1" stroke-width="1" stroke-linecap="square" stroke-linejoin="bevel" transform="matrix(1,0,0,1,0,0)"
font-family=".AppleSystemUIFont" font-size="13" font-weight="400" font-style="normal" 
>
</g>

<g fill="#0090f5" fill-opacity="1" stroke="#0070ba" stroke-opacity="1" stroke-width="1.2" stroke-linecap="square" stroke-linejoin="bevel" transform="matrix(1,0,0,1,0,0)"
font-family=".AppleSystemUIFont" font-size="13" font-weight="400" font-style="normal" 
>
<path vector-effect="none" fill-rule="evenodd" d="M0.5,4.5 L1.04612,2.48112 L2.48112,1.04612 L4.5,0.5 L9.625,0.5 L10.416,0.976563 L11.1719,1.6875 L11.998,2.67969 L13,4 L13.7559,4.66016 L14.5469,5.15625 L15.4082,5.51172 L16.375,5.75 L17.4824,5.89453 L18.7656,5.96875 L20.2598,5.99609 L22,6 L23.7402,5.99609 L25.2344,5.96875 L26.5176,5.89453 L27.625,5.75 L28.5918,5.51172 L29.4531,5.15625 L30.2441,4.66016 L31,4 L32.002,2.67969 L32.8281,1.6875 L33.584,0.976563 L34.375,0.5 L286.66,0.5 L288.679,1.04612 L290.114,2.48112 L290.66,4.5 L290.66,31.5 L290.114,33.5189 L288.679,34.9539 L286.66,35.5 L34.375,35.5 L33.584,35.9766 L32.8281,36.6875 L32.002,37.6797 L31,39 L30.2441,39.6602 L29.4531,40.1563 L28.5918,40.5117 L27.625,40.75 L26.5176,40.8945 L25.2344,40.9688 L23.7402,40.9961 L22,41 L20.2598,40.9961 L18.7656,40.9688 L17.4824,40.8945 L16.375,40.75 L15.4082,40.5117 L14.5469,40.1563 L13.7559,39.6602 L13,39 L11.998,37.6797 L11.1719,36.6875 L10.416,35.9766 L9.625,35.5 L4.5,35.5 L2.48112,34.9539 L1.04612,33.5189 L0.5,31.5 L0.5,4.5"/>
</g>

<g fill="#ffffff" fill-opacity="1" stroke="none" transform="matrix(1,0,0,1,0,0)"
font-family="Inter" font-size="11" font-weight="700" font-style="normal" 
>
<path vector-effect="none" fill-rule="nonzero" d="M186.141,17.1641 L184.617,17.2578 C184.591,17.1276 184.535,17.0098 184.449,16.9043 C184.363,16.7988 184.251,16.7142 184.111,16.6504 C183.972,16.5866 183.806,16.5547 183.613,16.5547 C183.355,16.5547 183.138,16.6087 182.961,16.7168 C182.784,16.8249 182.695,16.9688 182.695,17.1484 C182.695,17.2917 182.753,17.4128 182.867,17.5117 C182.982,17.6107 183.178,17.6901 183.457,17.75 L184.543,17.9688 C185.126,18.0885 185.561,18.2813 185.848,18.5469 C186.134,18.8125 186.277,19.1615 186.277,19.5938 C186.277,19.987 186.162,20.332 185.932,20.6289 C185.701,20.9258 185.386,21.1569 184.986,21.3223 C184.587,21.4876 184.126,21.5703 183.605,21.5703 C182.811,21.5703 182.179,21.4043 181.709,21.0723 C181.239,20.7402 180.964,20.2878 180.883,19.7148 L182.52,19.6289 C182.569,19.8711 182.689,20.0553 182.879,20.1816 C183.069,20.3079 183.313,20.3711 183.609,20.3711 C183.901,20.3711 184.136,20.3145 184.314,20.2012 C184.493,20.0879 184.583,19.9414 184.586,19.7617 C184.583,19.6107 184.52,19.4863 184.395,19.3887 C184.27,19.291 184.077,19.2161 183.816,19.1641 L182.777,18.957 C182.191,18.8398 181.756,18.6367 181.471,18.3477 C181.186,18.0586 181.043,17.6901 181.043,17.2422 C181.043,16.8568 181.148,16.5247 181.357,16.2461 C181.567,15.9674 181.863,15.7526 182.244,15.6016 C182.626,15.4505 183.073,15.375 183.586,15.375 C184.344,15.375 184.941,15.5352 185.377,15.8555 C185.813,16.1758 186.068,16.612 186.141,17.1641 M190.512,15.4531 L190.512,16.7031 L186.898,16.7031 L186.898,15.4531 L190.512,15.4531 M187.719,14.0156 L189.383,14.0156 L189.383,19.6094 C189.383,19.763 189.406,19.8822 189.453,19.9668 C189.5,20.0514 189.566,20.1107 189.65,20.1445 C189.735,20.1784 189.833,20.1953 189.945,20.1953 C190.023,20.1953 190.102,20.1882 190.18,20.1738 C190.258,20.1595 190.318,20.1484 190.359,20.1406 L190.621,21.3789 C190.538,21.4049 190.421,21.4355 190.27,21.4707 C190.118,21.5059 189.935,21.5273 189.719,21.5352 C189.318,21.5508 188.967,21.4974 188.666,21.375 C188.365,21.2526 188.132,21.0625 187.965,20.8047 C187.798,20.5469 187.716,20.2214 187.719,19.8281 L187.719,14.0156 M193.297,21.5664 C192.914,21.5664 192.573,21.4993 192.273,21.3652 C191.974,21.2311 191.738,21.0319 191.564,20.7676 C191.391,20.5033 191.305,20.1732 191.305,19.7773 C191.305,19.444 191.366,19.1641 191.488,18.9375 C191.611,18.7109 191.777,18.5286 191.988,18.3906 C192.199,18.2526 192.439,18.1484 192.709,18.0781 C192.979,18.0078 193.262,17.9583 193.559,17.9297 C193.908,17.8932 194.189,17.8587 194.402,17.8262 C194.616,17.7936 194.771,17.7448 194.867,17.6797 C194.964,17.6146 195.012,17.5182 195.012,17.3906 L195.012,17.3672 C195.012,17.1198 194.934,16.9284 194.779,16.793 C194.624,16.6576 194.405,16.5898 194.121,16.5898 C193.822,16.5898 193.583,16.6556 193.406,16.7871 C193.229,16.9186 193.112,17.0833 193.055,17.2813 L191.516,17.1563 C191.594,16.7917 191.747,16.4759 191.977,16.209 C192.206,15.9421 192.502,15.7363 192.865,15.5918 C193.229,15.4473 193.65,15.375 194.129,15.375 C194.462,15.375 194.782,15.4141 195.088,15.4922 C195.394,15.5703 195.666,15.6914 195.904,15.8555 C196.143,16.0195 196.331,16.2298 196.469,16.4863 C196.607,16.7428 196.676,17.0495 196.676,17.4063 L196.676,21.4531 L195.098,21.4531 L195.098,20.6211 L195.051,20.6211 C194.954,20.8086 194.826,20.9733 194.664,21.1152 C194.503,21.2572 194.309,21.3678 194.082,21.4473 C193.855,21.5267 193.594,21.5664 193.297,21.5664 M193.773,20.418 C194.018,20.418 194.234,20.3691 194.422,20.2715 C194.609,20.1738 194.757,20.0417 194.863,19.875 C194.97,19.7083 195.023,19.5195 195.023,19.3086 L195.023,18.6719 C194.971,18.7057 194.9,18.7363 194.811,18.7637 C194.721,18.791 194.62,18.8158 194.508,18.8379 C194.396,18.86 194.284,18.8796 194.172,18.8965 C194.06,18.9134 193.958,18.9284 193.867,18.9414 C193.672,18.9701 193.501,19.0156 193.355,19.0781 C193.21,19.1406 193.096,19.2246 193.016,19.3301 C192.935,19.4355 192.895,19.5664 192.895,19.7227 C192.895,19.9492 192.977,20.1217 193.143,20.2402 C193.308,20.3587 193.518,20.418 193.773,20.418 M197.961,21.4531 L197.961,15.4531 L199.574,15.4531 L199.574,16.5 L199.637,16.5 C199.746,16.1276 199.93,15.8457 200.188,15.6543 C200.445,15.4629 200.742,15.3672 201.078,15.3672 C201.161,15.3672 201.251,15.3724 201.348,15.3828 C201.444,15.3932 201.529,15.4076 201.602,15.4258 L201.602,16.9023 C201.523,16.8789 201.415,16.8581 201.277,16.8398 C201.139,16.8216 201.013,16.8125 200.898,16.8125 C200.654,16.8125 200.436,16.8652 200.244,16.9707 C200.053,17.0762 199.902,17.2227 199.791,17.4102 C199.68,17.5977 199.625,17.8138 199.625,18.0586 L199.625,21.4531 L197.961,21.4531 M205.934,15.4531 L205.934,16.7031 L202.32,16.7031 L202.32,15.4531 L205.934,15.4531 M203.141,14.0156 L204.805,14.0156 L204.805,19.6094 C204.805,19.763 204.828,19.8822 204.875,19.9668 C204.922,20.0514 204.988,20.1107 205.072,20.1445 C205.157,20.1784 205.255,20.1953 205.367,20.1953 C205.445,20.1953 205.523,20.1882 205.602,20.1738 C205.68,20.1595 205.74,20.1484 205.781,20.1406 L206.043,21.3789 C205.96,21.4049 205.842,21.4355 205.691,21.4707 C205.54,21.5059 205.357,21.5273 205.141,21.5352 C204.74,21.5508 204.389,21.4974 204.088,21.375 C203.787,21.2526 203.553,21.0625 203.387,20.8047 C203.22,20.5469 203.138,20.2214 203.141,19.8281 L203.141,14.0156 M209.555,21.4531 L209.555,15.4531 L211.141,15.4531 L211.141,16.5117 L211.211,16.5117 C211.336,16.1602 211.544,15.8828 211.836,15.6797 C212.128,15.4766 212.477,15.375 212.883,15.375 C213.294,15.375 213.645,15.4772 213.934,15.6816 C214.223,15.8861 214.415,16.1628 214.512,16.5117 L214.574,16.5117 C214.697,16.168 214.919,15.8926 215.24,15.6855 C215.562,15.4785 215.943,15.375 216.383,15.375 C216.943,15.375 217.398,15.5527 217.748,15.9082 C218.098,16.2637 218.273,16.7669 218.273,17.418 L218.273,21.4531 L216.613,21.4531 L216.613,17.7461 C216.613,17.4128 216.525,17.1628 216.348,16.9961 C216.171,16.8294 215.949,16.7461 215.684,16.7461 C215.382,16.7461 215.146,16.8418 214.977,17.0332 C214.807,17.2246 214.723,17.4766 214.723,17.7891 L214.723,21.4531 L213.109,21.4531 L213.109,17.7109 C213.109,17.4167 213.025,17.1823 212.857,17.0078 C212.689,16.8333 212.469,16.7461 212.195,16.7461 C212.01,16.7461 211.844,16.7923 211.697,16.8848 C211.55,16.9772 211.434,17.1061 211.348,17.2715 C211.262,17.4368 211.219,17.6302 211.219,17.8516 L211.219,21.4531 L209.555,21.4531 M222.297,21.5703 C221.69,21.5703 221.166,21.4408 220.725,21.1816 C220.283,20.9225 219.943,20.5605 219.703,20.0957 C219.464,19.6309 219.344,19.0911 219.344,18.4766 C219.344,17.8568 219.464,17.3145 219.703,16.8496 C219.943,16.3848 220.283,16.0228 220.725,15.7637 C221.166,15.5046 221.69,15.375 222.297,15.375 C222.904,15.375 223.428,15.5046 223.869,15.7637 C224.311,16.0228 224.651,16.3848 224.891,16.8496 C225.13,17.3145 225.25,17.8568 225.25,18.4766 C225.25,19.0911 225.13,19.6309 224.891,20.0957 C224.651,20.5605 224.311,20.9225 223.869,21.1816 C223.428,21.4408 222.904,21.5703 222.297,21.5703 M222.305,20.2813 C222.581,20.2813 222.811,20.2025 222.996,20.0449 C223.181,19.8874 223.321,19.6719 223.416,19.3984 C223.511,19.125 223.559,18.8138 223.559,18.4648 C223.559,18.1159 223.511,17.8047 223.416,17.5313 C223.321,17.2578 223.181,17.0417 222.996,16.8828 C222.811,16.724 222.581,16.6445 222.305,16.6445 C222.026,16.6445 221.792,16.724 221.604,16.8828 C221.415,17.0417 221.273,17.2578 221.178,17.5313 C221.083,17.8047 221.035,18.1159 221.035,18.4648 C221.035,18.8138 221.083,19.125 221.178,19.3984 C221.273,19.6719 221.415,19.8874 221.604,20.0449 C221.792,20.2025 222.026,20.2813 222.305,20.2813 M229.527,15.4531 L229.527,16.7031 L225.914,16.7031 L225.914,15.4531 L229.527,15.4531 M226.734,14.0156 L228.398,14.0156 L228.398,19.6094 C228.398,19.763 228.422,19.8822 228.469,19.9668 C228.516,20.0514 228.581,20.1107 228.666,20.1445 C228.751,20.1784 228.849,20.1953 228.961,20.1953 C229.039,20.1953 229.117,20.1882 229.195,20.1738 C229.273,20.1595 229.333,20.1484 229.375,20.1406 L229.637,21.3789 C229.553,21.4049 229.436,21.4355 229.285,21.4707 C229.134,21.5059 228.951,21.5273 228.734,21.5352 C228.333,21.5508 227.982,21.4974 227.682,21.375 C227.381,21.2526 227.147,21.0625 226.98,20.8047 C226.814,20.5469 226.732,20.2214 226.734,19.8281 L226.734,14.0156 M233.25,21.5703 C232.643,21.5703 232.119,21.4408 231.678,21.1816 C231.236,20.9225 230.896,20.5605 230.656,20.0957 C230.417,19.6309 230.297,19.0911 230.297,18.4766 C230.297,17.8568 230.417,17.3145 230.656,16.8496 C230.896,16.3848 231.236,16.0228 231.678,15.7637 C232.119,15.5046 232.643,15.375 233.25,15.375 C233.857,15.375 234.381,15.5046 234.822,15.7637 C235.264,16.0228 235.604,16.3848 235.844,16.8496 C236.083,17.3145 236.203,17.8568 236.203,18.4766 C236.203,19.0911 236.083,19.6309 235.844,20.0957 C235.604,20.5605 235.264,20.9225 234.822,21.1816 C234.381,21.4408 233.857,21.5703 233.25,21.5703 M233.258,20.2813 C233.534,20.2813 233.764,20.2025 233.949,20.0449 C234.134,19.8874 234.274,19.6719 234.369,19.3984 C234.464,19.125 234.512,18.8138 234.512,18.4648 C234.512,18.1159 234.464,17.8047 234.369,17.5313 C234.274,17.2578 234.134,17.0417 233.949,16.8828 C233.764,16.724 233.534,16.6445 233.258,16.6445 C232.979,16.6445 232.745,16.724 232.557,16.8828 C232.368,17.0417 232.226,17.2578 232.131,17.5313 C232.036,17.8047 231.988,18.1159 231.988,18.4648 C231.988,18.8138 232.036,19.125 232.131,19.3984 C232.226,19.6719 232.368,19.8874 232.557,20.0449 C232.745,20.2025 232.979,20.2813 233.258,20.2813 M237.289,21.4531 L237.289,15.4531 L238.902,15.4531 L238.902,16.5 L238.965,16.5 C239.074,16.1276 239.258,15.8457 239.516,15.6543 C239.773,15.4629 240.07,15.3672 240.406,15.3672 C240.49,15.3672 240.579,15.3724 240.676,15.3828 C240.772,15.3932 240.857,15.4076 240.93,15.4258 L240.93,16.9023 C240.852,16.8789 240.743,16.8581 240.605,16.8398 C240.467,16.8216 240.341,16.8125 240.227,16.8125 C239.982,16.8125 239.764,16.8652 239.572,16.9707 C239.381,17.0762 239.23,17.2227 239.119,17.4102 C239.008,17.5977 238.953,17.8138 238.953,18.0586 L238.953,21.4531 L237.289,21.4531"/>
</g>

<g fill="#ffffff" fill-opacity="1" stroke="none" transform="matrix(0.0285,0,0,0.0285,11.2928,9.44754)"
font-family="Inter" font-size="11" font-weight="700" font-style="normal" 
>
<path vector-effect="none" fill-rule="nonzero" d="M410.778,59.991 C376.729,59.991 346.629,75.6235 326.182,99.684 C216.768,129.689 131.433,215.271 101.927,324.891 C79.5232,345.494 65.3275,374.762 65.54,407.6 C65.7463,439.573 79.3407,468.172 100.975,488.421 C130.228,601.34 218.744,689.335 331.859,718.096 C331.956,718.125 331.989,718.313 332.085,718.338 C352.242,738.376 380.064,750.708 410.778,750.708 C441.492,750.708 469.314,738.376 489.47,718.338 C489.549,718.262 489.618,718.17 489.696,718.096 C604.323,688.948 693.738,598.994 721.758,483.921 C742.939,463.42 756.216,434.907 756.015,403.1 C755.801,370.079 741.086,340.899 718.209,320.633 C687.622,213.077 603.338,129.291 495.373,99.684 C474.926,75.6235 444.827,59.991 410.778,59.991 M410.778,91.8938 C455.052,91.8938 490.89,127.731 490.89,172.006 C490.89,216.28 455.052,252.102 410.778,252.102 C366.503,252.102 330.666,216.28 330.666,172.006 C330.666,127.731 366.503,91.8938 410.778,91.8938 M177.071,325.601 C221.346,325.601 257.183,361.438 257.183,405.713 C257.183,449.987 221.346,485.808 177.071,485.808 C132.796,485.808 96.7332,449.987 96.7332,405.713 C96.7332,361.438 132.796,325.601 177.071,325.601 M644.485,325.601 C688.763,325.601 724.822,361.438 724.822,405.713 C724.822,449.987 688.763,485.808 644.485,485.808 C600.21,485.808 564.373,449.987 564.373,405.713 C564.373,361.438 600.21,325.601 644.485,325.601 M396.601,335.762 L424.955,335.762 C431.754,335.762 437.245,342.538 437.245,350.891 L437.245,381.6 L467.971,381.6 C476.323,381.6 483.083,387.091 483.083,393.89 L483.083,422.245 C483.083,429.044 476.323,434.535 467.971,434.535 L437.245,434.535 L437.245,465.26 C437.245,473.612 431.754,480.373 424.955,480.373 L396.601,480.373 C389.801,480.373 384.31,473.613 384.31,465.26 L384.31,434.535 L353.585,434.535 C345.233,434.535 338.472,429.044 338.472,422.245 L338.472,393.89 C338.472,387.091 345.232,381.6 353.585,381.6 L384.31,381.6 L384.31,350.891 C384.31,342.539 389.801,335.762 396.601,335.762 M410.778,559.307 C455.052,559.307 490.89,595.371 490.89,639.645 C490.89,683.918 455.052,719.757 410.778,719.757 C366.503,719.757 330.666,683.918 330.666,639.645 C330.666,595.371 366.503,559.307 410.778,559.307 "/>
</g>

<g fill="none" stroke="#000000" stroke-opacity="1" stroke-width="22.7975" stroke-linecap="round" stroke-linejoin="round" transform="matrix(0.0285,0,0,0.0285,11.2928,9.44754)"
font-family="Inter" font-size="11" font-weight="700" font-style="normal" 
>
<path vector-effect="none" fill-rule="nonzero" d="M410.778,59.991 C376.729,59.991 346.629,75.6235 326.182,99.684 C216.768,129.689 131.433,215.271 101.927,324.891 C79.5232,345.494 65.3275,374.762 65.54,407.6 C65.7463,439.573 79.3407,468.172 100.975,488.421 C130.228,601.34 218.744,689.335 331.859,718.096 C331.956,718.125 331.989,718.313 332.085,718.338 C352.242,738.376 380.064,750.708 410.778,750.708 C441.492,750.708 469.314,738.376 489.47,718.338 C489.549,718.262 489.618,718.17 489.696,718.096 C604.323,688.948 693.738,598.994 721.758,483.921 C742.939,463.42 756.216,434.907 756.015,403.1 C755.801,370.079 741.086,340.899 718.209,320.633 C687.622,213.077 603.338,129.291 495.373,99.684 C474.926,75.6235 444.827,59.991 410.778,59.991 M410.778,91.8938 C455.052,91.8938 490.89,127.731 490.89,172.006 C490.89,216.28 455.052,252.102 410.778,252.102 C366.503,252.102 330.666,216.28 330.666,172.006 C330.666,127.731 366.503,91.8938 410.778,91.8938 M177.071,325.601 C221.346,325.601 257.183,361.438 257.183,405.713 C257.183,449.987 221.346,485.808 177.071,485.808 C132.796,485.808 96.7332,449.987 96.7332,405.713 C96.7332,361.438 132.796,325.601 177.071,325.601 M644.485,325.601 C688.763,325.601 724.822,361.438 724.822,405.713 C724.822,449.987 688.763,485.808 644.485,485.808 C600.21,485.808 564.373,449.987 564.373,405.713 C564.373,361.438 600.21,325.601 644.485,325.601 M396.601,335.762 L424.955,335.762 C431.754,335.762 437.245,342.538 437.245,350.891 L437.245,381.6 L467.971,381.6 C476.323,381.6 483.083,387.091 483.083,393.89 L483.083,422.245 C483.083,429.044 476.323,434.535 467.971,434.535 L437.245,434.535 L437.245,465.26 C437.245,473.612 431.754,480.373 424.955,480.373 L396.601,480.373 C389.801,480.373 384.31,473.613 384.31,465.26 L384.31,434.535 L353.585,434.535 C345.233,434.535 338.472,429.044 338.472,422.245 L338.472,393.89 C338.472,387.091 345.232,381.6 353.585,381.6 L384.31,381.6 L384.31,350.891 C384.31,342.539 389.801,335.762 396.601,335.762 M410.778,559.307 C455.052,559.307 490.89,595.371 490.89,639.645 C490.89,683.918 455.052,719.757 410.778,719.757 C366.503,719.757 330.666,683.918 330.666,639.645 C330.666,595.371 366.503,559.307 410.778,559.307 "/>
</g>

<g fill="#000000" fill-opacity="1" stroke="none" transform="matrix(0.0285,0,0,0.0285,11.2928,9.44754)"
font-family="Inter" font-size="11" font-weight="700" font-style="normal" 
>
<path vector-effect="none" fill-rule="evenodd" d="M394.961,355.661 C394.961,347.613 401.485,341.088 409.533,341.088 C417.582,341.088 424.106,347.613 424.106,355.661 L424.106,457.48 C424.106,465.528 417.582,472.053 409.533,472.053 C401.485,472.053 394.961,465.528 394.961,457.48 L394.961,355.661"/>
</g>

<g fill="none" stroke="#000000" stroke-opacity="1" stroke-width="20" stroke-linecap="round" stroke-linejoin="round" transform="matrix(0.0285,0,0,0.0285,11.2928,9.44754)"
font-family="Inter" font-size="11" font-weight="700" font-style="normal" 
>
<path vector-effect="none" fill-rule="evenodd" d="M394.961,355.661 C394.961,347.613 401.485,341.088 409.533,341.088 C417.582,341.088 424.106,347.613 424.106,355.661 L424.106,457.48 C424.106,465.528 417.582,472.053 409.533,472.053 C401.485,472.053 394.961,465.528 394.961,457.48 L394.961,355.661"/>
</g>

<g fill="#000000" fill-opacity="1" stroke="none" transform="matrix(0,0.0285,-0.0285,0,11.2928,9.44754)"
font-family="Inter" font-size="11" font-weight="700" font-style="normal" 
>
<path vector-effect="none" fill-rule="evenodd" d="M394.152,-461.016 C394.152,-469.064 400.676,-475.588 408.724,-475.588 C416.773,-475.588 423.297,-469.064 423.297,-461.016 L423.297,-359.196 C423.297,-351.148 416.773,-344.624 408.724,-344.624 C400.676,-344.624 394.152,-351.148 394.152,-359.196 L394.152,-461.016"/>
</g>

<g fill="none" stroke="#000000" stroke-opacity="1" stroke-width="20" stroke-linecap="round" stroke-linejoin="round" transform="matrix(0,0.0285,-0.0285,0,11.2928,9.44754)"
font-family="Inter" font-size="11" font-weight="700" font-style="normal" 
>
<path vector-effect="none" fill-rule="evenodd" d="M394.152,-461.016 C394.152,-469.064 400.676,-475.588 408.724,-475.588 C416.773,-475.588 423.297,-469.064 423.297,-461.016 L423.297,-359.196 C423.297,-351.148 416.773,-344.624 408.724,-344.624 C400.676,-344.624 394.152,-351.148 394.152,-359.196 L394.152,-461.016"/>
</g>

<g fill="#ffffff" fill-opacity="1" stroke="none" transform="matrix(1,0,0,1,0,0)"
font-family="Inter" font-size="11" font-weight="700" font-style="normal" 
>
</g>

<g fill="#ffffff" fill-opacity="1" stroke="#0070ba" stroke-opacity="1" stroke-width="1" stroke-linecap="square" stroke-linejoin="bevel" transform="matrix(1,0,0,1,0,0)"
font-family="Inter" font-size="11" font-weight="700" font-style="normal" 
>
<polyline fill="none" vector-effect="none" points="45,11 45,31 " />
</g>

<g fill="#ffffff" fill-opacity="1" stroke="#0070ba" stroke-opacity="1" stroke-width="1" stroke-linecap="square" stroke-linejoin="bevel" transform="matrix(1,0,0,1,0,0)"
font-family="Inter" font-size="11" font-weight="700" font-style="normal" 
>
</g>

<g fill="#ffffff" fill-opacity="1" stroke="#0070ba" stroke-opacity="1" stroke-width="1" stroke-linecap="square" stroke-linejoin="bevel" transform="matrix(1,0,0,1,0,0)"
font-family="Inter" font-size="11" font-weight="700" font-style="normal" 
>
</g>

<g fill="#ffffff" fill-opacity="1" stroke="#0070ba" stroke-opacity="1" stroke-width="1" stroke-linecap="square" stroke-linejoin="bevel" transform="matrix(1,0,0,1,0,0)"
font-family="Inter" font-size="11" font-weight="700" font-style="normal" 
>
</g>

<g fill="#0090f5" fill-opacity="1" stroke="#0070ba" stroke-opacity="1" stroke-width="1.2" stroke-linecap="square" stroke-linejoin="bevel" transform="matrix(1,0,0,1,247,6)"
font-family="Inter" font-size="11" font-weight="700" font-style="normal" 
>
<path vector-effect="none" fill-rule="evenodd" d="M0.5,3.5 C0.5,1.84315 1.84315,0.5 3.5,0.5 L34.66,0.5 C36.3169,0.5 37.66,1.84315 37.66,3.5 L37.66,20.5 C37.66,22.1569 36.3169,23.5 34.66,23.5 L3.5,23.5 C1.84315,23.5 0.5,22.1569 0.5,20.5 L0.5,3.5"/>
</g>

<g fill="#ffffff" fill-opacity="1" stroke="none" transform="matrix(0.03125,0,0,0.03125,271.16,14)"
font-family="Inter" font-size="11" font-weight="700" font-style="normal" 
>
<path vector-effect="none" fill-rule="nonzero" d="M111.326,191.938 C120.545,201.158 135.517,201.158 144.737,191.938 L239.144,97.5313 C245.929,90.7458 247.921,80.6413 244.233,71.7907 C240.545,62.9401 231.989,57.1871 222.401,57.1871 L33.5875,57.2608 C24.0731,57.2608 15.4437,63.0137 11.7559,71.8644 C8.06815,80.715 10.1333,90.8195 16.845,97.605 L111.252,192.012 L111.326,191.938"/>
</g>

<g fill="none" stroke="#000000" stroke-opacity="1" stroke-width="13.7195" stroke-linecap="butt" stroke-linejoin="miter" stroke-miterlimit="4" transform="matrix(0.03125,0,0,0.03125,271.16,14)"
font-family="Inter" font-size="11" font-weight="700" font-style="normal" 
>
<path vector-effect="none" fill-rule="nonzero" d="M111.326,191.938 C120.545,201.158 135.517,201.158 144.737,191.938 L239.144,97.5313 C245.929,90.7458 247.921,80.6413 244.233,71.7907 C240.545,62.9401 231.989,57.1871 222.401,57.1871 L33.5875,57.2608 C24.0731,57.2608 15.4437,63.0137 11.7559,71.8644 C8.06815,80.715 10.1333,90.8195 16.845,97.605 L111.252,192.012 L111.326,191.938"/>
</g>

<g fill="#0090f5" fill-opacity="1" stroke="#0070ba" stroke-opacity="1" stroke-width="1.2" stroke-linecap="square" stroke-linejoin="bevel" transform="matrix(1,0,0,1,247,6)"
font-family="Inter" font-size="11" font-weight="700" font-style="normal" 
>
</g>

<g fill="#ffffff" fill-opacity="1" stroke="none" transform="matrix(0.031875,0,0,0.031875,250.84,9.84)"
font-family="Inter" font-size="11" font-weight="700" font-style="normal" 
>
<path vector-effect="none" fill-rule="nonzero" d="M263.09,50 C251.208,49.993 239.215,51.018 227.233,53.13 C142.026,68.156 75.156,135.026 60.13,220.233 C45.108,305.44 85.075,391.15 160.005,434.41 C192.787,453.337 229.259,462.406 265.468,461.963 C312.023,461.393 358.143,445.098 395.425,413.813 L364.57,377.045 C313.62,419.795 241.602,426.095 184.004,392.842 C126.407,359.588 95.852,294.065 107.401,228.568 C118.951,163.071 170.073,111.948 235.571,100.4 C287.227,91.292 338.894,108.38 374.741,144.262 L327,192 L455,192 L455,64 L408.66,110.342 C370.242,71.962 317.83,50.03 263.09,50 "/>
</g>

<g fill="#0090f5" fill-opacity="1" stroke="#0070ba" stroke-opacity="1" stroke-width="1.2" stroke-linecap="square" stroke-linejoin="bevel" transform="matrix(1,0,0,1,247,6)"
font-family="Inter" font-size="11" font-weight="700" font-style="normal" 
>
</g>

<g fill="#ffffff" fill-opacity="1" stroke="#0070ba" stroke-opacity="1" stroke-width="1" stroke-linecap="square" stroke-linejoin="bevel" transform="matrix(1,0,0,1,0,0)"
font-family="Inter" font-size="11" font-weight="700" font-style="normal" 
>
</g>

<g fill="#0090f5" fill-opacity="1" stroke="#0070ba" stroke-opacity="1" stroke-width="1.2" stroke-linecap="square" stroke-linejoin="bevel" transform="matrix(1,0,0,1,56,6)"
font-family="Inter" font-size="11" font-weight="700" font-style="normal" 
>
<path vector-effect="none" fill-rule="evenodd" d="M0.5,3.5 C0.5,1.84315 1.84315,0.5 3.5,0.5 L71.5,0.5 C73.1569,0.5 74.5,1.84315 74.5,3.5 L74.5,20.5 C74.5,22.1569 73.1569,23.5 71.5,23.5 L3.5,23.5 C1.84315,23.5 0.5,22.1569 0.5,20.5 L0.5,3.5"/>
</g>

<g fill="#ffffff" fill-opacity="1" stroke="none" transform="matrix(1,0,0,1,56,6)"
font-family="Inter" font-size="11" font-weight="700" font-style="normal" 
>
<path vector-effect="none" fill-rule="nonzero" d="M10,9.39453 L10,8 L16.5703,8 L16.5703,9.39453 L14.1211,9.39453 L14.1211,16 L12.4492,16 L12.4492,9.39453 L10,9.39453 M17.6484,16 L17.6484,8 L19.3398,8 L19.3398,11.3008 L22.7734,11.3008 L22.7734,8 L24.4609,8 L24.4609,16 L22.7734,16 L22.7734,12.6953 L19.3398,12.6953 L19.3398,16 L17.6484,16 M32.543,8 L32.543,16 L31.082,16 L27.6016,10.9648 L27.543,10.9648 L27.543,16 L25.8516,16 L25.8516,8 L27.3359,8 L30.7891,13.0313 L30.8594,13.0313 L30.8594,8 L32.543,8 M33.9297,16 L33.9297,8 L35.6211,8 L35.6211,11.3008 L39.0547,11.3008 L39.0547,8 L40.7422,8 L40.7422,16 L39.0547,16 L39.0547,12.6953 L35.6211,12.6953 L35.6211,16 L33.9297,16 M42.1328,16 L42.1328,8 L45.3359,8 C45.9245,8 46.4154,8.08724 46.8086,8.26172 C47.2018,8.4362 47.4974,8.67773 47.6953,8.98633 C47.8932,9.29492 47.9922,9.64974 47.9922,10.0508 C47.9922,10.3633 47.9297,10.6374 47.8047,10.873 C47.6797,11.1087 47.5085,11.3014 47.291,11.4512 C47.0736,11.6009 46.8255,11.707 46.5469,11.7695 L46.5469,11.8477 C46.8516,11.8607 47.1374,11.9466 47.4043,12.1055 C47.6712,12.2643 47.888,12.4863 48.0547,12.7715 C48.2214,13.0566 48.3047,13.3958 48.3047,13.7891 C48.3047,14.2135 48.1999,14.5918 47.9902,14.9238 C47.7806,15.2559 47.4714,15.5182 47.0625,15.7109 C46.6536,15.9036 46.1497,16 45.5508,16 L42.1328,16 M43.8242,14.6172 L45.2031,14.6172 C45.6745,14.6172 46.0182,14.5267 46.2344,14.3457 C46.4505,14.1647 46.5586,13.9232 46.5586,13.6211 C46.5586,13.3997 46.5052,13.2044 46.3984,13.0352 C46.2917,12.8659 46.14,12.7331 45.9434,12.6367 C45.7467,12.5404 45.513,12.4922 45.2422,12.4922 L43.8242,12.4922 L43.8242,14.6172 M43.8242,11.3477 L45.0781,11.3477 C45.3099,11.3477 45.5163,11.3066 45.6973,11.2246 C45.8783,11.1426 46.0215,11.026 46.127,10.875 C46.2324,10.724 46.2852,10.543 46.2852,10.332 C46.2852,10.043 46.1829,9.8099 45.9785,9.63281 C45.7741,9.45573 45.4844,9.36719 45.1094,9.36719 L43.8242,9.36719 L43.8242,11.3477 M52.832,8 L52.832,16 L51.1406,16 L51.1406,9.60547 L51.0938,9.60547 L49.2617,10.7539 L49.2617,9.25391 L51.2422,8 L52.832,8"/>
</g>

<g fill="#ffffff" fill-opacity="1" stroke="none" transform="matrix(0.03125,0,0,0.03125,117,14)"
font-family="Inter" font-size="11" font-weight="700" font-style="normal" 
>
<path vector-effect="none" fill-rule="nonzero" d="M111.326,191.938 C120.545,201.158 135.517,201.158 144.737,191.938 L239.144,97.5313 C245.929,90.7458 247.921,80.6413 244.233,71.7907 C240.545,62.9401 231.989,57.1871 222.401,57.1871 L33.5875,57.2608 C24.0731,57.2608 15.4437,63.0137 11.7559,71.8644 C8.06815,80.715 10.1333,90.8195 16.845,97.605 L111.252,192.012 L111.326,191.938"/>
</g>

<g fill="none" stroke="#000000" stroke-opacity="1" stroke-width="13.7195" stroke-linecap="butt" stroke-linejoin="miter" stroke-miterlimit="4" transform="matrix(0.03125,0,0,0.03125,117,14)"
font-family="Inter" font-size="11" font-weight="700" font-style="normal" 
>
<path vector-effect="none" fill-rule="nonzero" d="M111.326,191.938 C120.545,201.158 135.517,201.158 144.737,191.938 L239.144,97.5313 C245.929,90.7458 247.921,80.6413 244.233,71.7907 C240.545,62.9401 231.989,57.1871 222.401,57.1871 L33.5875,57.2608 C24.0731,57.2608 15.4437,63.0137 11.7559,71.8644 C8.06815,80.715 10.1333,90.8195 16.845,97.605 L111.252,192.012 L111.326,191.938"/>
</g>

<g fill="#ffffff" fill-opacity="1" stroke="none" transform="matrix(1,0,0,1,56,6)"
font-family="Inter" font-size="11" font-weight="700" font-style="normal" 
>
</g>

<g fill="#ffffff" fill-opacity="1" stroke="#0070ba" stroke-opacity="1" stroke-width="1" stroke-linecap="square" stroke-linejoin="bevel" transform="matrix(1,0,0,1,0,0)"
font-family="Inter" font-size="11" font-weight="700" font-style="normal" 
>
</g>

<g fill="#0070ba" fill-opacity="1" stroke="#0070ba" stroke-opacity="1" stroke-width="1.2" stroke-linecap="square" stroke-linejoin="bevel" transform="matrix(1,0,0,1,135,6)"
font-family="Inter" font-size="11" font-weight="700" font-style="normal" 
>
<path vector-effect="none" fill-rule="evenodd" d="M0.5,12 C0.5,5.64873 5.87258,0.5 12.5,0.5 L27.5,0.5 C34.1274,0.5 39.5,5.64873 39.5,12 C39.5,18.3513 34.1274,23.5 27.5,23.5 L12.5,23.5 C5.87258,23.5 0.5,18.3513 0.5,12 "/>
</g>

<g fill="#ffffff" fill-opacity="1" stroke="none" transform="matrix(1,0,0,1,135,6)"
font-family="Inter" font-size="11" font-weight="700" font-style="normal" 
>
<path vector-effect="none" fill-rule="nonzero" d="M11.8242,16 L10.0117,16 L12.7734,8 L14.9531,8 L17.7109,16 L15.8984,16 L13.8945,9.82813 L13.832,9.82813 L11.8242,16 M11.7109,12.8555 L15.9922,12.8555 L15.9922,14.1758 L11.7109,14.1758 L11.7109,12.8555"/>
</g>

<g fill="#ffffff" fill-opacity="1" stroke="none" transform="matrix(0.03125,0,0,0.03125,161,14)"
font-family="Inter" font-size="11" font-weight="700" font-style="normal" 
>
<path vector-effect="none" fill-rule="nonzero" d="M111.326,191.938 C120.545,201.158 135.517,201.158 144.737,191.938 L239.144,97.5313 C245.929,90.7458 247.921,80.6413 244.233,71.7907 C240.545,62.9401 231.989,57.1871 222.401,57.1871 L33.5875,57.2608 C24.0731,57.2608 15.4437,63.0137 11.7559,71.8644 C8.06815,80.715 10.1333,90.8195 16.845,97.605 L111.252,192.012 L111.326,191.938"/>
</g>

<g fill="none" stroke="#000000" stroke-opacity="1" stroke-width="13.7195" stroke-linecap="butt" stroke-linejoin="miter" stroke-miterlimit="4" transform="matrix(0.03125,0,0,0.03125,161,14)"
font-family="Inter" font-size="11" font-weight="700" font-style="normal" 
>
<path vector-effect="none" fill-rule="nonzero" d="M111.326,191.938 C120.545,201.158 135.517,201.158 144.737,191.938 L239.144,97.5313 C245.929,90.7458 247.921,80.6413 244.233,71.7907 C240.545,62.9401 231.989,57.1871 222.401,57.1871 L33.5875,57.2608 C24.0731,57.2608 15.4437,63.0137 11.7559,71.8644 C8.06815,80.715 10.1333,90.8195 16.845,97.605 L111.252,192.012 L111.326,191.938"/>
</g>

<g fill="#ffffff" fill-opacity="1" stroke="none" transform="matrix(1,0,0,1,135,6)"
font-family="Inter" font-size="11" font-weight="700" font-style="normal" 
>
</g>

<g fill="#ffffff" fill-opacity="1" stroke="#0070ba" stroke-opacity="1" stroke-width="1" stroke-linecap="square" stroke-linejoin="bevel" transform="matrix(1,0,0,1,0,0)"
font-family="Inter" font-size="11" font-weight="700" font-style="normal" 
>
</g>

<g fill="#ffffff" fill-opacity="1" stroke="#0070ba" stroke-opacity="1" stroke-width="1" stroke-linecap="square" stroke-linejoin="bevel" transform="matrix(1,0,0,1,0,0)"
font-family="Inter" font-size="11" font-weight="700" font-style="normal" 
>
</g>

<g fill="none" stroke="#000000" stroke-opacity="1" stroke-width="1" stroke-linecap="square" stroke-linejoin="bevel" transform="matrix(1,0,0,1,0,0)"
font-family=".AppleSystemUIFont" font-size="13" font-weight="400" font-style="normal" 
>
</g>
</g>
</svg>
