<?xml version="1.0" encoding="UTF-8" standalone="no"?>
<svg width="64.9111mm" height="11.2889mm"
 viewBox="0 0 184 32"
 xmlns="http://www.w3.org/2000/svg" xmlns:xlink="http://www.w3.org/1999/xlink" version="1.2" baseProfile="tiny">
<title>Abstract block</title>
<desc>block_lists_contains_value</desc>
<defs>
</defs>
<g fill="none" stroke="black" stroke-width="1" fill-rule="evenodd" stroke-linecap="square" stroke-linejoin="bevel" >

<g fill="none" stroke="#000000" stroke-opacity="1" stroke-width="1" stroke-linecap="square" stroke-linejoin="bevel" transform="matrix(1,0,0,1,0,0)"
font-family=".AppleSystemUIFont" font-size="13" font-weight="400" font-style="normal" 
>
</g>

<g fill="none" stroke="#000000" stroke-opacity="1" stroke-width="1" stroke-linecap="square" stroke-linejoin="bevel" transform="matrix(1,0,0,1,0,0)"
font-family=".AppleSystemUIFont" font-size="13" font-weight="400" font-style="normal" 
>
</g>

<g fill="#ff661a" fill-opacity="1" stroke="#de4600" stroke-opacity="1" stroke-width="1.2" stroke-linecap="square" stroke-linejoin="bevel" transform="matrix(1,0,0,1,0,0)"
font-family=".AppleSystemUIFont" font-size="13" font-weight="400" font-style="normal" 
>
<path vector-effect="none" fill-rule="evenodd" d="M0,16 L16,0 L167.776,0 L183.776,16 L167.776,32 L16,32 L0,16"/>
</g>

<g fill="#ffffff" fill-opacity="1" stroke="none" transform="matrix(1,0,0,1,0,0)"
font-family="Inter" font-size="11" font-weight="700" font-style="normal" 
>
<path vector-effect="none" fill-rule="nonzero" d="M76.4688,20.0703 C75.8542,20.0703 75.3262,19.9395 74.8848,19.6777 C74.4434,19.416 74.1048,19.0521 73.8691,18.5859 C73.6335,18.1198 73.5156,17.5833 73.5156,16.9766 C73.5156,16.362 73.6348,15.8223 73.873,15.3574 C74.1113,14.8926 74.4505,14.5293 74.8906,14.2676 C75.3307,14.0059 75.8542,13.875 76.4609,13.875 C76.9844,13.875 77.4427,13.9701 77.8359,14.1602 C78.2292,14.3503 78.5404,14.6172 78.7695,14.9609 C78.9987,15.3047 79.125,15.7083 79.1484,16.1719 L77.5781,16.1719 C77.5339,15.8724 77.4173,15.6309 77.2285,15.4473 C77.0397,15.2637 76.793,15.1719 76.4883,15.1719 C76.2305,15.1719 76.0059,15.2415 75.8145,15.3809 C75.623,15.5202 75.474,15.7227 75.3672,15.9883 C75.2604,16.2539 75.207,16.5755 75.207,16.9531 C75.207,17.3359 75.2598,17.6615 75.3652,17.9297 C75.4707,18.1979 75.6198,18.4023 75.8125,18.543 C76.0052,18.6836 76.2305,18.7539 76.4883,18.7539 C76.6784,18.7539 76.8496,18.7148 77.002,18.6367 C77.1543,18.5586 77.2806,18.4447 77.3809,18.2949 C77.4811,18.1452 77.5469,17.9648 77.5781,17.7539 L79.1484,17.7539 C79.1224,18.2122 78.998,18.6152 78.7754,18.9629 C78.5527,19.3105 78.2461,19.582 77.8555,19.7773 C77.4648,19.9727 77.0026,20.0703 76.4688,20.0703 M82.9219,20.0703 C82.3151,20.0703 81.791,19.9408 81.3496,19.6816 C80.9082,19.4225 80.5677,19.0605 80.3281,18.5957 C80.0885,18.1309 79.9688,17.5911 79.9688,16.9766 C79.9688,16.3568 80.0885,15.8145 80.3281,15.3496 C80.5677,14.8848 80.9082,14.5228 81.3496,14.2637 C81.791,14.0046 82.3151,13.875 82.9219,13.875 C83.5286,13.875 84.0527,14.0046 84.4941,14.2637 C84.9355,14.5228 85.276,14.8848 85.5156,15.3496 C85.7552,15.8145 85.875,16.3568 85.875,16.9766 C85.875,17.5911 85.7552,18.1309 85.5156,18.5957 C85.276,19.0605 84.9355,19.4225 84.4941,19.6816 C84.0527,19.9408 83.5286,20.0703 82.9219,20.0703 M82.9297,18.7813 C83.2057,18.7813 83.4362,18.7025 83.6211,18.5449 C83.806,18.3874 83.946,18.1719 84.041,17.8984 C84.1361,17.625 84.1836,17.3138 84.1836,16.9648 C84.1836,16.6159 84.1361,16.3047 84.041,16.0313 C83.946,15.7578 83.806,15.5417 83.6211,15.3828 C83.4362,15.224 83.2057,15.1445 82.9297,15.1445 C82.651,15.1445 82.4173,15.224 82.2285,15.3828 C82.0397,15.5417 81.8978,15.7578 81.8027,16.0313 C81.7077,16.3047 81.6602,16.6159 81.6602,16.9648 C81.6602,17.3138 81.7077,17.625 81.8027,17.8984 C81.8978,18.1719 82.0397,18.3874 82.2285,18.5449 C82.4173,18.7025 82.651,18.7813 82.9297,18.7813 M88.625,16.4844 L88.625,19.9531 L86.9609,19.9531 L86.9609,13.9531 L88.5469,13.9531 L88.5469,15.0117 L88.6172,15.0117 C88.75,14.6628 88.9727,14.3861 89.2852,14.1816 C89.5977,13.9772 89.9766,13.875 90.4219,13.875 C90.8385,13.875 91.2018,13.9661 91.5117,14.1484 C91.8216,14.3307 92.0625,14.5905 92.2344,14.9277 C92.4063,15.265 92.4922,15.6667 92.4922,16.1328 L92.4922,19.9531 L90.8281,19.9531 L90.8281,16.4297 C90.8307,16.0625 90.737,15.7754 90.5469,15.5684 C90.3568,15.3613 90.0951,15.2578 89.7617,15.2578 C89.5378,15.2578 89.3405,15.306 89.1699,15.4023 C88.9993,15.4987 88.8665,15.6387 88.7715,15.8223 C88.6764,16.0059 88.6276,16.2266 88.625,16.4844 M96.9805,13.9531 L96.9805,15.2031 L93.3672,15.2031 L93.3672,13.9531 L96.9805,13.9531 M94.1875,12.5156 L95.8516,12.5156 L95.8516,18.1094 C95.8516,18.263 95.875,18.3822 95.9219,18.4668 C95.9688,18.5514 96.0345,18.6107 96.1191,18.6445 C96.2038,18.6784 96.3021,18.6953 96.4141,18.6953 C96.4922,18.6953 96.5703,18.6882 96.6484,18.6738 C96.7266,18.6595 96.7865,18.6484 96.8281,18.6406 L97.0898,19.8789 C97.0065,19.9049 96.8893,19.9355 96.7383,19.9707 C96.5872,20.0059 96.4036,20.0273 96.1875,20.0352 C95.7865,20.0508 95.4355,19.9974 95.1348,19.875 C94.834,19.7526 94.6003,19.5625 94.4336,19.3047 C94.2669,19.0469 94.1849,18.7214 94.1875,18.3281 L94.1875,12.5156 M99.7656,20.0664 C99.3828,20.0664 99.0417,19.9993 98.7422,19.8652 C98.4427,19.7311 98.2064,19.5319 98.0332,19.2676 C97.86,19.0033 97.7734,18.6732 97.7734,18.2773 C97.7734,17.944 97.8346,17.6641 97.957,17.4375 C98.0794,17.2109 98.2461,17.0286 98.457,16.8906 C98.668,16.7526 98.9082,16.6484 99.1777,16.5781 C99.4473,16.5078 99.7305,16.4583 100.027,16.4297 C100.376,16.3932 100.658,16.3587 100.871,16.3262 C101.085,16.2936 101.24,16.2448 101.336,16.1797 C101.432,16.1146 101.48,16.0182 101.48,15.8906 L101.48,15.8672 C101.48,15.6198 101.403,15.4284 101.248,15.293 C101.093,15.1576 100.874,15.0898 100.59,15.0898 C100.29,15.0898 100.052,15.1556 99.875,15.2871 C99.6979,15.4186 99.5807,15.5833 99.5234,15.7813 L97.9844,15.6563 C98.0625,15.2917 98.2161,14.9759 98.4453,14.709 C98.6745,14.4421 98.9707,14.2363 99.334,14.0918 C99.6973,13.9473 100.118,13.875 100.598,13.875 C100.931,13.875 101.251,13.9141 101.557,13.9922 C101.863,14.0703 102.135,14.1914 102.373,14.3555 C102.611,14.5195 102.799,14.7298 102.938,14.9863 C103.076,15.2428 103.145,15.5495 103.145,15.9063 L103.145,19.9531 L101.566,19.9531 L101.566,19.1211 L101.52,19.1211 C101.423,19.3086 101.294,19.4733 101.133,19.6152 C100.971,19.7572 100.777,19.8678 100.551,19.9473 C100.324,20.0267 100.063,20.0664 99.7656,20.0664 M100.242,18.918 C100.487,18.918 100.703,18.8691 100.891,18.7715 C101.078,18.6738 101.225,18.5417 101.332,18.375 C101.439,18.2083 101.492,18.0195 101.492,17.8086 L101.492,17.1719 C101.44,17.2057 101.369,17.2363 101.279,17.2637 C101.189,17.291 101.089,17.3158 100.977,17.3379 C100.865,17.36 100.753,17.3796 100.641,17.3965 C100.529,17.4134 100.427,17.4284 100.336,17.4414 C100.141,17.4701 99.9701,17.5156 99.8242,17.5781 C99.6784,17.6406 99.5651,17.7246 99.4844,17.8301 C99.4036,17.9355 99.3633,18.0664 99.3633,18.2227 C99.3633,18.4492 99.446,18.6217 99.6113,18.7402 C99.7767,18.8587 99.987,18.918 100.242,18.918 M104.43,19.9531 L104.43,13.9531 L106.094,13.9531 L106.094,19.9531 L104.43,19.9531 M105.266,13.1797 C105.018,13.1797 104.807,13.097 104.631,12.9316 C104.455,12.7663 104.367,12.5677 104.367,12.3359 C104.367,12.1068 104.455,11.9095 104.631,11.7441 C104.807,11.5788 105.018,11.4961 105.266,11.4961 C105.513,11.4961 105.725,11.5788 105.9,11.7441 C106.076,11.9095 106.164,12.1068 106.164,12.3359 C106.164,12.5677 106.076,12.7663 105.9,12.9316 C105.725,13.097 105.513,13.1797 105.266,13.1797 M109.078,16.4844 L109.078,19.9531 L107.414,19.9531 L107.414,13.9531 L109,13.9531 L109,15.0117 L109.07,15.0117 C109.203,14.6628 109.426,14.3861 109.738,14.1816 C110.051,13.9772 110.43,13.875 110.875,13.875 C111.292,13.875 111.655,13.9661 111.965,14.1484 C112.275,14.3307 112.516,14.5905 112.688,14.9277 C112.859,15.265 112.945,15.6667 112.945,16.1328 L112.945,19.9531 L111.281,19.9531 L111.281,16.4297 C111.284,16.0625 111.19,15.7754 111,15.5684 C110.81,15.3613 110.548,15.2578 110.215,15.2578 C109.991,15.2578 109.794,15.306 109.623,15.4023 C109.452,15.4987 109.32,15.6387 109.225,15.8223 C109.13,16.0059 109.081,16.2266 109.078,16.4844 M119.234,15.6641 L117.711,15.7578 C117.685,15.6276 117.629,15.5098 117.543,15.4043 C117.457,15.2988 117.344,15.2142 117.205,15.1504 C117.066,15.0866 116.9,15.0547 116.707,15.0547 C116.449,15.0547 116.232,15.1087 116.055,15.2168 C115.878,15.3249 115.789,15.4688 115.789,15.6484 C115.789,15.7917 115.846,15.9128 115.961,16.0117 C116.076,16.1107 116.272,16.1901 116.551,16.25 L117.637,16.4688 C118.22,16.5885 118.655,16.7813 118.941,17.0469 C119.228,17.3125 119.371,17.6615 119.371,18.0938 C119.371,18.487 119.256,18.832 119.025,19.1289 C118.795,19.4258 118.48,19.6569 118.08,19.8223 C117.68,19.9876 117.22,20.0703 116.699,20.0703 C115.905,20.0703 115.273,19.9043 114.803,19.5723 C114.333,19.2402 114.057,18.7878 113.977,18.2148 L115.613,18.1289 C115.663,18.3711 115.783,18.5553 115.973,18.6816 C116.163,18.8079 116.406,18.8711 116.703,18.8711 C116.995,18.8711 117.23,18.8145 117.408,18.7012 C117.587,18.5879 117.677,18.4414 117.68,18.2617 C117.677,18.1107 117.613,17.9863 117.488,17.8887 C117.363,17.791 117.171,17.7161 116.91,17.6641 L115.871,17.457 C115.285,17.3398 114.85,17.1367 114.564,16.8477 C114.279,16.5586 114.137,16.1901 114.137,15.7422 C114.137,15.3568 114.242,15.0247 114.451,14.7461 C114.661,14.4674 114.956,14.2526 115.338,14.1016 C115.719,13.9505 116.167,13.875 116.68,13.875 C117.438,13.875 118.035,14.0352 118.471,14.3555 C118.907,14.6758 119.161,15.112 119.234,15.6641 "/>
</g>

<g fill="#ffffff" fill-opacity="1" stroke="none" transform="matrix(1,0,0,1,0,0)"
font-family="Inter" font-size="11" font-weight="700" font-style="normal" 
>
<path vector-effect="none" fill-rule="nonzero" d="M166.875,17.5547 L166.875,17.4219 C166.878,16.9661 166.919,16.6029 166.998,16.332 C167.077,16.0612 167.194,15.8424 167.348,15.6758 C167.501,15.5091 167.686,15.3581 167.902,15.2227 C168.064,15.1185 168.208,15.0104 168.336,14.8984 C168.464,14.7865 168.565,14.6621 168.641,14.5254 C168.716,14.3887 168.754,14.2357 168.754,14.0664 C168.754,13.8867 168.711,13.7292 168.625,13.5938 C168.539,13.4583 168.424,13.3542 168.279,13.2813 C168.135,13.2083 167.975,13.1719 167.801,13.1719 C167.632,13.1719 167.471,13.209 167.32,13.2832 C167.169,13.3574 167.046,13.4668 166.949,13.6113 C166.853,13.7559 166.801,13.9349 166.793,14.1484 L165.199,14.1484 C165.212,13.6276 165.337,13.1973 165.574,12.8574 C165.811,12.5176 166.125,12.2637 166.516,12.0957 C166.906,11.9277 167.337,11.8438 167.809,11.8438 C168.327,11.8438 168.785,11.929 169.184,12.0996 C169.582,12.2702 169.895,12.5169 170.121,12.8398 C170.348,13.1628 170.461,13.5521 170.461,14.0078 C170.461,14.3125 170.411,14.5827 170.311,14.8184 C170.21,15.054 170.07,15.2624 169.891,15.4434 C169.711,15.6243 169.499,15.7878 169.254,15.9336 C169.048,16.056 168.88,16.1836 168.748,16.3164 C168.617,16.4492 168.519,16.6029 168.455,16.7773 C168.391,16.9518 168.358,17.1667 168.355,17.4219 L168.355,17.5547 L166.875,17.5547 M167.648,20.0547 C167.388,20.0547 167.166,19.9629 166.982,19.7793 C166.799,19.5957 166.708,19.375 166.711,19.1172 C166.708,18.862 166.799,18.6432 166.982,18.4609 C167.166,18.2786 167.388,18.1875 167.648,18.1875 C167.896,18.1875 168.113,18.2786 168.301,18.4609 C168.488,18.6432 168.583,18.862 168.586,19.1172 C168.583,19.2891 168.538,19.446 168.451,19.5879 C168.364,19.7298 168.25,19.8431 168.109,19.9277 C167.969,20.0124 167.815,20.0547 167.648,20.0547 "/>
</g>

<g fill="#ffffff" fill-opacity="1" stroke="none" transform="matrix(1,0,0,1,0,0)"
font-family="Inter" font-size="11" font-weight="700" font-style="normal" 
>
</g>

<g fill="#ffffff" fill-opacity="1" stroke="none" transform="matrix(1,0,0,1,0,0)"
font-family="Inter" font-size="11" font-weight="700" font-style="normal" 
>
</g>

<g fill="#ffffff" fill-opacity="1" stroke="#ca4000" stroke-opacity="1" stroke-width="1.2" stroke-linecap="square" stroke-linejoin="bevel" transform="matrix(1,0,0,1,125.5,5)"
font-family="Inter" font-size="11" font-weight="700" font-style="normal" 
>
<path vector-effect="none" fill-rule="evenodd" d="M1,11 C1,5.47715 5.92487,1 12,1 L21.6094,1 C27.6845,1 32.6094,5.47715 32.6094,11 C32.6094,16.5228 27.6845,21 21.6094,21 L12,21 C5.92487,21 1,16.5228 1,11 "/>
</g>

<g fill="#000000" fill-opacity="1" stroke="none" transform="matrix(1,0,0,1,125.5,5)"
font-family="Inter" font-size="10" font-weight="700" font-style="normal" 
>
<path vector-effect="none" fill-rule="nonzero" d="M6.05682,14.4219 L6.05682,8.96733 L7.5696,8.96733 L7.5696,14.4219 L6.05682,14.4219 M6.81676,8.2642 C6.59186,8.2642 6.3995,8.18904 6.2397,8.03871 C6.0799,7.88838 6,7.70786 6,7.49716 C6,7.28883 6.0799,7.10949 6.2397,6.95916 C6.3995,6.80883 6.59186,6.73366 6.81676,6.73366 C7.04167,6.73366 7.23402,6.80883 7.39382,6.95916 C7.55362,7.10949 7.63352,7.28883 7.63352,7.49716 C7.63352,7.70786 7.55362,7.88838 7.39382,8.03871 C7.23402,8.18904 7.04167,8.2642 6.81676,8.2642 M11.6768,8.96733 L11.6768,10.1037 L8.39205,10.1037 L8.39205,8.96733 L11.6768,8.96733 M9.13778,7.66051 L10.6506,7.66051 L10.6506,12.7457 C10.6506,12.8854 10.6719,12.9937 10.7145,13.0707 C10.7571,13.1476 10.8169,13.2015 10.8938,13.2322 C10.9708,13.263 11.0601,13.2784 11.1619,13.2784 C11.233,13.2784 11.304,13.2719 11.375,13.2589 C11.446,13.2459 11.5005,13.2358 11.5384,13.2287 L11.7763,14.3544 C11.7005,14.3781 11.594,14.4059 11.4567,14.4379 C11.3194,14.4698 11.1525,14.4893 10.956,14.4964 C10.5914,14.5107 10.2724,14.4621 9.99893,14.3509 C9.7255,14.2396 9.51302,14.0668 9.36151,13.8324 C9.20999,13.598 9.13542,13.3021 9.13778,12.9446 L9.13778,7.66051 M15.0739,14.5284 C14.5128,14.5284 14.0304,14.4142 13.6268,14.1857 C13.2231,13.9573 12.9124,13.6329 12.6946,13.2127 C12.4768,12.7925 12.3679,12.2947 12.3679,11.7195 C12.3679,11.1584 12.4768,10.666 12.6946,10.2422 C12.9124,9.81842 13.2196,9.48816 13.6161,9.25142 C14.0127,9.01468 14.4785,8.89631 15.0135,8.89631 C15.3733,8.89631 15.7089,8.95372 16.0202,9.06854 C16.3316,9.18336 16.6038,9.35559 16.837,9.58523 C17.0702,9.81487 17.2519,10.1031 17.3821,10.4499 C17.5123,10.7968 17.5774,11.2022 17.5774,11.6662 L17.5774,12.0817 L12.9716,12.0817 L12.9716,11.1442 L16.1534,11.1442 C16.1534,10.9264 16.1061,10.7334 16.0114,10.5653 C15.9167,10.3973 15.7859,10.2653 15.619,10.1694 C15.4521,10.0735 15.2585,10.0256 15.0384,10.0256 C14.8087,10.0256 14.6057,10.0782 14.4293,10.1836 C14.253,10.2889 14.1151,10.4298 14.0156,10.6062 C13.9162,10.7826 13.8653,10.9785 13.8629,11.1939 L13.8629,12.0852 C13.8629,12.3551 13.9132,12.5883 14.0138,12.7848 C14.1145,12.9813 14.2571,13.1328 14.4418,13.2393 C14.6264,13.3459 14.8454,13.3991 15.0987,13.3991 C15.2668,13.3991 15.4207,13.3755 15.5604,13.3281 C15.7,13.2808 15.8196,13.2098 15.919,13.1151 C16.0185,13.0204 16.0942,12.9044 16.1463,12.767 L17.5455,12.8594 C17.4744,13.1955 17.3294,13.4885 17.1104,13.7383 C16.8915,13.988 16.6097,14.1822 16.2653,14.3207 C15.9208,14.4592 15.5237,14.5284 15.0739,14.5284 M18.5568,14.4219 L18.5568,8.96733 L19.9986,8.96733 L19.9986,9.92969 L20.0625,9.92969 C20.1761,9.61009 20.3655,9.35795 20.6307,9.1733 C20.8958,8.98864 21.2131,8.89631 21.5824,8.89631 C21.9564,8.89631 22.2749,8.98923 22.5376,9.17507 C22.8004,9.36091 22.9756,9.61245 23.0632,9.92969 L23.12,9.92969 C23.2313,9.61719 23.4331,9.36683 23.7255,9.17862 C24.0179,8.99041 24.3641,8.89631 24.7642,8.89631 C25.2732,8.89631 25.6869,9.05788 26.0053,9.38104 C26.3237,9.70419 26.483,10.1617 26.483,10.7536 L26.483,14.4219 L24.9737,14.4219 L24.9737,11.0518 C24.9737,10.7488 24.8932,10.5215 24.7322,10.37 C24.5713,10.2185 24.37,10.1428 24.1286,10.1428 C23.8539,10.1428 23.6397,10.2298 23.4858,10.4038 C23.3319,10.5778 23.255,10.8068 23.255,11.0909 L23.255,14.4219 L21.7884,14.4219 L21.7884,11.0199 C21.7884,10.7524 21.712,10.5393 21.5593,10.3807 C21.4066,10.2221 21.206,10.1428 20.9574,10.1428 C20.7893,10.1428 20.6384,10.1848 20.5046,10.2688 C20.3709,10.3529 20.2649,10.4701 20.1868,10.6204 C20.1087,10.7707 20.0696,10.9465 20.0696,11.1477 L20.0696,14.4219 L18.5568,14.4219"/>
</g>

<g fill="#000000" fill-opacity="1" stroke="none" transform="matrix(1,0,0,1,131.5,9.95313)"
font-family="Inter" font-size="10" font-weight="700" font-style="normal" 
>
</g>

<g fill="#000000" fill-opacity="1" stroke="none" transform="matrix(1,0,0,1,131.5,9.95313)"
font-family="Inter" font-size="10" font-weight="700" font-style="normal" 
>
</g>

<g fill="#000000" fill-opacity="1" stroke="none" transform="matrix(1,0,0,1,125.5,5)"
font-family="Inter" font-size="10" font-weight="700" font-style="normal" 
>
</g>

<g fill="#ffffff" fill-opacity="1" stroke="none" transform="matrix(1,0,0,1,0,0)"
font-family="Inter" font-size="11" font-weight="700" font-style="normal" 
>
</g>

<g fill="#ff661a" fill-opacity="1" stroke="#de4600" stroke-opacity="1" stroke-width="1.2" stroke-linecap="square" stroke-linejoin="bevel" transform="matrix(1,0,0,1,20,4)"
font-family="Inter" font-size="11" font-weight="700" font-style="normal" 
>
<path vector-effect="none" fill-rule="evenodd" d="M0.5,3.5 C0.5,1.84315 1.84315,0.5 3.5,0.5 L44,0.5 C45.6569,0.5 47,1.84315 47,3.5 L47,20.5 C47,22.1569 45.6569,23.5 44,23.5 L3.5,23.5 C1.84315,23.5 0.5,22.1569 0.5,20.5 L0.5,3.5"/>
</g>

<g fill="#ffffff" fill-opacity="1" stroke="none" transform="matrix(1,0,0,1,20,4)"
font-family="Inter" font-size="11" font-weight="700" font-style="normal" 
>
<path vector-effect="none" fill-rule="nonzero" d="M11.1719,7.95313 L11.1719,15.9531 L9.50781,15.9531 L9.50781,7.95313 L11.1719,7.95313 M12.4922,15.9531 L12.4922,9.95313 L14.1563,9.95313 L14.1563,15.9531 L12.4922,15.9531 M13.3281,9.17969 C13.0807,9.17969 12.8691,9.09701 12.6934,8.93164 C12.5176,8.76628 12.4297,8.56771 12.4297,8.33594 C12.4297,8.10677 12.5176,7.90951 12.6934,7.74414 C12.8691,7.57878 13.0807,7.49609 13.3281,7.49609 C13.5755,7.49609 13.7871,7.57878 13.9629,7.74414 C14.1387,7.90951 14.2266,8.10677 14.2266,8.33594 C14.2266,8.56771 14.1387,8.76628 13.9629,8.93164 C13.7871,9.09701 13.5755,9.17969 13.3281,9.17969 M20.4688,11.6641 L18.9453,11.7578 C18.9193,11.6276 18.8633,11.5098 18.7773,11.4043 C18.6914,11.2988 18.5788,11.2142 18.4395,11.1504 C18.3001,11.0866 18.1341,11.0547 17.9414,11.0547 C17.6836,11.0547 17.4661,11.1087 17.2891,11.2168 C17.112,11.3249 17.0234,11.4688 17.0234,11.6484 C17.0234,11.7917 17.0807,11.9128 17.1953,12.0117 C17.3099,12.1107 17.5065,12.1901 17.7852,12.25 L18.8711,12.4688 C19.4544,12.5885 19.8893,12.7813 20.1758,13.0469 C20.4622,13.3125 20.6055,13.6615 20.6055,14.0938 C20.6055,14.487 20.4902,14.832 20.2598,15.1289 C20.0293,15.4258 19.7142,15.6569 19.3145,15.8223 C18.9147,15.9876 18.4544,16.0703 17.9336,16.0703 C17.1393,16.0703 16.5072,15.9043 16.0371,15.5723 C15.5671,15.2402 15.2917,14.7878 15.2109,14.2148 L16.8477,14.1289 C16.8971,14.3711 17.0169,14.5553 17.207,14.6816 C17.3971,14.8079 17.6406,14.8711 17.9375,14.8711 C18.2292,14.8711 18.4642,14.8145 18.6426,14.7012 C18.821,14.5879 18.9115,14.4414 18.9141,14.2617 C18.9115,14.1107 18.8477,13.9863 18.7227,13.8887 C18.5977,13.791 18.4049,13.7161 18.1445,13.6641 L17.1055,13.457 C16.5195,13.3398 16.084,13.1367 15.7988,12.8477 C15.5137,12.5586 15.3711,12.1901 15.3711,11.7422 C15.3711,11.3568 15.4759,11.0247 15.6855,10.7461 C15.8952,10.4674 16.1908,10.2526 16.5723,10.1016 C16.9538,9.95052 17.401,9.875 17.9141,9.875 C18.6719,9.875 19.2689,10.0352 19.7051,10.3555 C20.1413,10.6758 20.3958,11.112 20.4688,11.6641 M24.8398,9.95313 L24.8398,11.2031 L21.2266,11.2031 L21.2266,9.95313 L24.8398,9.95313 M22.0469,8.51563 L23.7109,8.51563 L23.7109,14.1094 C23.7109,14.263 23.7344,14.3822 23.7813,14.4668 C23.8281,14.5514 23.8939,14.6107 23.9785,14.6445 C24.0632,14.6784 24.1615,14.6953 24.2734,14.6953 C24.3516,14.6953 24.4297,14.6882 24.5078,14.6738 C24.5859,14.6595 24.6458,14.6484 24.6875,14.6406 L24.9492,15.8789 C24.8659,15.9049 24.7487,15.9355 24.5977,15.9707 C24.4466,16.0059 24.263,16.0273 24.0469,16.0352 C23.6458,16.0508 23.2949,15.9974 22.9941,15.875 C22.6934,15.7526 22.4596,15.5625 22.293,15.3047 C22.1263,15.0469 22.0443,14.7214 22.0469,14.3281 L22.0469,8.51563"/>
</g>

<g fill="#ffffff" fill-opacity="1" stroke="none" transform="matrix(0.03125,0,0,0.03125,53.5,12)"
font-family="Inter" font-size="11" font-weight="700" font-style="normal" 
>
<path vector-effect="none" fill-rule="nonzero" d="M111.326,191.938 C120.545,201.158 135.517,201.158 144.737,191.938 L239.144,97.5313 C245.929,90.7458 247.921,80.6413 244.233,71.7907 C240.545,62.9401 231.989,57.1871 222.401,57.1871 L33.5875,57.2608 C24.0731,57.2608 15.4437,63.0137 11.7559,71.8644 C8.06815,80.715 10.1333,90.8195 16.845,97.605 L111.252,192.012 L111.326,191.938"/>
</g>

<g fill="none" stroke="#000000" stroke-opacity="1" stroke-width="13.7195" stroke-linecap="butt" stroke-linejoin="miter" stroke-miterlimit="4" transform="matrix(0.03125,0,0,0.03125,53.5,12)"
font-family="Inter" font-size="11" font-weight="700" font-style="normal" 
>
<path vector-effect="none" fill-rule="nonzero" d="M111.326,191.938 C120.545,201.158 135.517,201.158 144.737,191.938 L239.144,97.5313 C245.929,90.7458 247.921,80.6413 244.233,71.7907 C240.545,62.9401 231.989,57.1871 222.401,57.1871 L33.5875,57.2608 C24.0731,57.2608 15.4437,63.0137 11.7559,71.8644 C8.06815,80.715 10.1333,90.8195 16.845,97.605 L111.252,192.012 L111.326,191.938"/>
</g>

<g fill="#ffffff" fill-opacity="1" stroke="none" transform="matrix(1,0,0,1,20,4)"
font-family="Inter" font-size="11" font-weight="700" font-style="normal" 
>
</g>

<g fill="#ffffff" fill-opacity="1" stroke="none" transform="matrix(1,0,0,1,0,0)"
font-family="Inter" font-size="11" font-weight="700" font-style="normal" 
>
</g>

<g fill="none" stroke="#000000" stroke-opacity="1" stroke-width="1" stroke-linecap="square" stroke-linejoin="bevel" transform="matrix(1,0,0,1,0,0)"
font-family=".AppleSystemUIFont" font-size="13" font-weight="400" font-style="normal" 
>
</g>
</g>
</svg>
