<?xml version="1.0" encoding="UTF-8" standalone="no"?>
<svg width="31.75mm" height="21.1667mm"
 viewBox="0 0 90 60"
 xmlns="http://www.w3.org/2000/svg" xmlns:xlink="http://www.w3.org/1999/xlink" version="1.2" baseProfile="tiny">
<title>Abstract block</title>
<desc>block_event_when</desc>
<defs>
</defs>
<g fill="none" stroke="black" stroke-width="1" fill-rule="evenodd" stroke-linecap="square" stroke-linejoin="bevel" >

<g fill="none" stroke="#000000" stroke-opacity="1" stroke-width="1" stroke-linecap="square" stroke-linejoin="bevel" transform="matrix(1,0,0,1,0,0)"
font-family=".AppleSystemUIFont" font-size="13" font-weight="400" font-style="normal" 
>
</g>

<g fill="none" stroke="#000000" stroke-opacity="1" stroke-width="1" stroke-linecap="square" stroke-linejoin="bevel" transform="matrix(1,0,0,1,0,0)"
font-family=".AppleSystemUIFont" font-size="13" font-weight="400" font-style="normal" 
>
</g>

<g fill="#f5c400" fill-opacity="1" stroke="#ba9500" stroke-opacity="1" stroke-width="1.2" stroke-linecap="square" stroke-linejoin="bevel" transform="matrix(1,0,0,1,0,0)"
font-family=".AppleSystemUIFont" font-size="13" font-weight="400" font-style="normal" 
>
<path vector-effect="none" fill-rule="evenodd" d="M0.5,20.5 L1,18.6516 L1,18 L1.77836,17.1565 L2.58892,16.3401 L3.43062,15.551 L4.30242,14.7891 L5.20325,14.0544 L6.13206,13.3469 L7.08779,12.6667 L8.06939,12.0136 L9.0758,11.3878 L10.106,10.7891 L11.1588,10.2177 L12.2333,9.67347 L13.3284,9.15646 L14.4431,8.66667 L15.5762,8.20408 L16.7267,7.76871 L17.8936,7.36054 L19.0758,6.97959 L20.2723,6.62585 L21.4819,6.29932 L22.7037,6 L23.9366,5.72789 L25.1795,5.48299 L26.4314,5.26531 L27.6912,5.07483 L28.9578,4.91156 L30.2303,4.77551 L31.5075,4.66667 L32.7885,4.58503 L34.072,4.53061 L35.3572,4.5034 L36.6428,4.5034 L37.928,4.53061 L39.2115,4.58503 L40.4925,4.66667 L41.7697,4.77551 L43.0422,4.91156 L44.3088,5.07483 L45.5686,5.26531 L46.8205,5.48299 L48.0634,5.72789 L49.2963,6 L50.5181,6.29932 L51.7277,6.62585 L52.9242,6.97959 L54.1064,7.36054 L55.2733,7.76871 L56.4238,8.20408 L57.5569,8.66667 L58.6716,9.15646 L59.7667,9.67347 L60.8412,10.2177 L61.894,10.7891 L62.9242,11.3878 L63.9306,12.0136 L64.9122,12.6667 L65.8679,13.3469 L66.7968,14.0544 L67.6976,14.7891 L68.5694,15.551 L69.4111,16.3401 L69.5698,16.5 L84.7,16.5 L86.7189,17.0461 L88.1539,18.4811 L88.7,20.5 L88.7,47.5 L88.1539,49.5189 L86.7189,50.9539 L84.7,51.5 L34.375,51.5 L33.584,51.9766 L32.8281,52.6875 L32.002,53.6797 L31,55 L30.2441,55.6602 L29.4531,56.1563 L28.5918,56.5117 L27.625,56.75 L26.5176,56.8945 L25.2344,56.9688 L23.7402,56.9961 L22,57 L20.2598,56.9961 L18.7656,56.9688 L17.4824,56.8945 L16.375,56.75 L15.4082,56.5117 L14.5469,56.1563 L13.7559,55.6602 L13,55 L11.998,53.6797 L11.1719,52.6875 L10.416,51.9766 L9.625,51.5 L4.5,51.5 L2.48112,50.9539 L1.04612,49.5189 L0.5,47.5 L0.5,20.5"/>
</g>

<g fill="#ffffff" fill-opacity="1" stroke="none" transform="matrix(1,0,0,1,0,0)"
font-family="Inter" font-size="11" font-weight="700" font-style="normal" 
>
<path vector-effect="none" fill-rule="nonzero" d="M13.4727,37.9063 L11.8398,31.9063 L13.5234,31.9063 L14.4531,35.9375 L14.5078,35.9375 L15.4766,31.9063 L17.1289,31.9063 L18.1133,35.9141 L18.1641,35.9141 L19.0781,31.9063 L20.7578,31.9063 L19.1289,37.9063 L17.3672,37.9063 L16.3359,34.1328 L16.2617,34.1328 L15.2305,37.9063 L13.4727,37.9063 M23.2969,34.4375 L23.2969,37.9063 L21.6328,37.9063 L21.6328,29.9063 L23.25,29.9063 L23.25,32.9648 L23.3203,32.9648 C23.4557,32.6107 23.6745,32.3327 23.9766,32.1309 C24.2786,31.929 24.6576,31.8281 25.1133,31.8281 C25.5299,31.8281 25.8939,31.9186 26.2051,32.0996 C26.5163,32.2806 26.7585,32.5397 26.9316,32.877 C27.1048,33.2142 27.1901,33.6172 27.1875,34.0859 L27.1875,37.9063 L25.5234,37.9063 L25.5234,34.3828 C25.526,34.013 25.4329,33.7253 25.2441,33.5195 C25.0553,33.3138 24.7917,33.2109 24.4531,33.2109 C24.2266,33.2109 24.0267,33.2591 23.8535,33.3555 C23.6803,33.4518 23.5449,33.5918 23.4473,33.7754 C23.3496,33.959 23.2995,34.1797 23.2969,34.4375 M31.2266,38.0234 C30.6094,38.0234 30.0788,37.8978 29.6348,37.6465 C29.1908,37.3952 28.849,37.0384 28.6094,36.5762 C28.3698,36.1139 28.25,35.5664 28.25,34.9336 C28.25,34.3164 28.3698,33.7747 28.6094,33.3086 C28.849,32.8424 29.1868,32.4792 29.623,32.2188 C30.0592,31.9583 30.5716,31.8281 31.1602,31.8281 C31.556,31.8281 31.9251,31.8913 32.2676,32.0176 C32.61,32.1439 32.9095,32.3333 33.166,32.5859 C33.4225,32.8385 33.6224,33.1556 33.7656,33.5371 C33.9089,33.9186 33.9805,34.3646 33.9805,34.875 L33.9805,35.332 L28.9141,35.332 L28.9141,34.3008 L32.4141,34.3008 C32.4141,34.0612 32.362,33.849 32.2578,33.6641 C32.1536,33.4792 32.0098,33.334 31.8262,33.2285 C31.6426,33.123 31.4297,33.0703 31.1875,33.0703 C30.9349,33.0703 30.7116,33.1283 30.5176,33.2441 C30.3236,33.36 30.1719,33.515 30.0625,33.709 C29.9531,33.903 29.8971,34.1185 29.8945,34.3555 L29.8945,35.3359 C29.8945,35.6328 29.9499,35.8893 30.0605,36.1055 C30.1712,36.3216 30.3281,36.4883 30.5313,36.6055 C30.7344,36.7227 30.9753,36.7813 31.2539,36.7813 C31.4388,36.7813 31.6081,36.7552 31.7617,36.7031 C31.9154,36.651 32.0469,36.5729 32.1563,36.4688 C32.2656,36.3646 32.349,36.237 32.4063,36.0859 L33.9453,36.1875 C33.8672,36.5573 33.7077,36.8796 33.4668,37.1543 C33.2259,37.429 32.916,37.6426 32.5371,37.7949 C32.1582,37.9473 31.7214,38.0234 31.2266,38.0234 M36.7188,34.4375 L36.7188,37.9063 L35.0547,37.9063 L35.0547,31.9063 L36.6406,31.9063 L36.6406,32.9648 L36.7109,32.9648 C36.8438,32.6159 37.0664,32.3392 37.3789,32.1348 C37.6914,31.9303 38.0703,31.8281 38.5156,31.8281 C38.9323,31.8281 39.2956,31.9193 39.6055,32.1016 C39.9154,32.2839 40.1563,32.5436 40.3281,32.8809 C40.5,33.2181 40.5859,33.6198 40.5859,34.0859 L40.5859,37.9063 L38.9219,37.9063 L38.9219,34.3828 C38.9245,34.0156 38.8307,33.7285 38.6406,33.5215 C38.4505,33.3145 38.1888,33.2109 37.8555,33.2109 C37.6315,33.2109 37.4342,33.2591 37.2637,33.3555 C37.0931,33.4518 36.9603,33.5918 36.8652,33.7754 C36.7702,33.959 36.7214,34.1797 36.7188,34.4375 "/>
</g>

<g fill="#ffffff" fill-opacity="1" stroke="none" transform="matrix(1,0,0,1,0,0)"
font-family="Inter" font-size="11" font-weight="700" font-style="normal" 
>
</g>

<g fill="#ba9500" fill-opacity="1" stroke="#a68500" stroke-opacity="1" stroke-width="1.2" stroke-linecap="square" stroke-linejoin="bevel" transform="matrix(1,0,0,1,47,23)"
font-family="Inter" font-size="11" font-weight="700" font-style="normal" 
>
<path vector-effect="none" fill-rule="evenodd" d="M0,11 L11,0 L24.2,0 L35.2,11 L24.2,22 L11,22 L0,11"/>
</g>

<g fill="#ffffff" fill-opacity="1" stroke="none" transform="matrix(1,0,0,1,0,0)"
font-family="Inter" font-size="11" font-weight="700" font-style="normal" 
>
</g>

<g fill="#ffffff" fill-opacity="1" stroke="none" transform="matrix(1,0,0,1,0,0)"
font-family="Inter" font-size="11" font-weight="700" font-style="normal" 
>
</g>

<g fill="none" stroke="#000000" stroke-opacity="1" stroke-width="1" stroke-linecap="square" stroke-linejoin="bevel" transform="matrix(1,0,0,1,0,0)"
font-family=".AppleSystemUIFont" font-size="13" font-weight="400" font-style="normal" 
>
</g>
</g>
</svg>
