<?xml version="1.0" encoding="UTF-8" standalone="no"?>
<svg width="116.769mm" height="11.2889mm"
 viewBox="0 0 331 32"
 xmlns="http://www.w3.org/2000/svg" xmlns:xlink="http://www.w3.org/1999/xlink" version="1.2" baseProfile="tiny">
<title>Abstract block</title>
<desc>block_hubs_mouldking_control_get_control_channel</desc>
<defs>
</defs>
<g fill="none" stroke="black" stroke-width="1" fill-rule="evenodd" stroke-linecap="square" stroke-linejoin="bevel" >

<g fill="none" stroke="#000000" stroke-opacity="1" stroke-width="1" stroke-linecap="square" stroke-linejoin="bevel" transform="matrix(1,0,0,1,0,0)"
font-family=".AppleSystemUIFont" font-size="13" font-weight="400" font-style="normal" 
>
</g>

<g fill="none" stroke="#000000" stroke-opacity="1" stroke-width="1" stroke-linecap="square" stroke-linejoin="bevel" transform="matrix(1,0,0,1,0,0)"
font-family=".AppleSystemUIFont" font-size="13" font-weight="400" font-style="normal" 
>
</g>

<g fill="#ffb515" fill-opacity="1" stroke="#d89400" stroke-opacity="1" stroke-width="1.2" stroke-linecap="square" stroke-linejoin="bevel" transform="matrix(1,0,0,1,0,0)"
font-family=".AppleSystemUIFont" font-size="13" font-weight="400" font-style="normal" 
>
<path vector-effect="none" fill-rule="evenodd" d="M1,16 C1,7.71573 8.16344,1 17,1 L313.667,1 C322.503,1 329.667,7.71573 329.667,16 C329.667,24.2843 322.503,31 313.667,31 L17,31 C8.16344,31 1,24.2843 1,16 "/>
</g>

<g fill="#ffffff" fill-opacity="1" stroke="none" transform="matrix(1,0,0,1,0,0)"
font-family="Inter" font-size="11" font-weight="700" font-style="normal" 
>
<path vector-effect="none" fill-rule="nonzero" d="M60.7891,20.8594 C60.25,20.8594 59.7884,20.7858 59.4043,20.6387 C59.0202,20.4915 58.7148,20.2917 58.4883,20.0391 C58.2617,19.7865 58.1146,19.5026 58.0469,19.1875 L59.5859,18.9805 C59.6328,19.1003 59.707,19.2122 59.8086,19.3164 C59.9102,19.4206 60.0449,19.5046 60.2129,19.5684 C60.3809,19.6322 60.5859,19.6641 60.8281,19.6641 C61.1901,19.6641 61.4889,19.5762 61.7246,19.4004 C61.9603,19.2246 62.0781,18.931 62.0781,18.5195 L62.0781,17.4219 L62.0078,17.4219 C61.9349,17.5885 61.8255,17.7461 61.6797,17.8945 C61.5339,18.043 61.3464,18.1641 61.1172,18.2578 C60.888,18.3516 60.6146,18.3984 60.2969,18.3984 C59.8464,18.3984 59.4368,18.2936 59.0684,18.084 C58.6999,17.8743 58.4069,17.5527 58.1895,17.1191 C57.972,16.6855 57.8633,16.1367 57.8633,15.4727 C57.8633,14.793 57.974,14.2253 58.1953,13.7695 C58.4167,13.3138 58.7116,12.9727 59.0801,12.7461 C59.4486,12.5195 59.8529,12.4063 60.293,12.4063 C60.6289,12.4063 60.9102,12.4629 61.1367,12.5762 C61.3633,12.6895 61.5462,12.8301 61.6855,12.998 C61.8249,13.166 61.9323,13.3307 62.0078,13.4922 L62.0703,13.4922 L62.0703,12.4844 L63.7227,12.4844 L63.7227,18.543 C63.7227,19.0534 63.5977,19.4805 63.3477,19.8242 C63.0977,20.168 62.752,20.4264 62.3105,20.5996 C61.8691,20.7728 61.362,20.8594 60.7891,20.8594 M60.8242,17.1484 C61.0924,17.1484 61.3197,17.0814 61.5059,16.9473 C61.6921,16.8132 61.8353,16.6204 61.9355,16.3691 C62.0358,16.1178 62.0859,15.8164 62.0859,15.4648 C62.0859,15.1133 62.0365,14.8079 61.9375,14.5488 C61.8385,14.2897 61.6953,14.0885 61.5078,13.9453 C61.3203,13.8021 61.0924,13.7305 60.8242,13.7305 C60.5508,13.7305 60.3203,13.804 60.1328,13.9512 C59.9453,14.0983 59.8034,14.3021 59.707,14.5625 C59.6107,14.8229 59.5625,15.1237 59.5625,15.4648 C59.5625,15.8112 59.6113,16.11 59.709,16.3613 C59.8066,16.6126 59.9486,16.8066 60.1348,16.9434 C60.321,17.0801 60.5508,17.1484 60.8242,17.1484 M67.7734,18.6016 C67.1563,18.6016 66.6257,18.4759 66.1816,18.2246 C65.7376,17.9733 65.3958,17.6165 65.1563,17.1543 C64.9167,16.6921 64.7969,16.1445 64.7969,15.5117 C64.7969,14.8945 64.9167,14.3529 65.1563,13.8867 C65.3958,13.4206 65.7337,13.0573 66.1699,12.7969 C66.6061,12.5365 67.1185,12.4063 67.707,12.4063 C68.1029,12.4063 68.472,12.4694 68.8145,12.5957 C69.1569,12.722 69.4564,12.9115 69.7129,13.1641 C69.9694,13.4167 70.1693,13.7337 70.3125,14.1152 C70.4557,14.4967 70.5273,14.9427 70.5273,15.4531 L70.5273,15.9102 L65.4609,15.9102 L65.4609,14.8789 L68.9609,14.8789 C68.9609,14.6393 68.9089,14.4271 68.8047,14.2422 C68.7005,14.0573 68.5566,13.9121 68.373,13.8066 C68.1895,13.7012 67.9766,13.6484 67.7344,13.6484 C67.4818,13.6484 67.2585,13.7064 67.0645,13.8223 C66.8704,13.9382 66.7188,14.0931 66.6094,14.2871 C66.5,14.4811 66.444,14.6966 66.4414,14.9336 L66.4414,15.9141 C66.4414,16.2109 66.4967,16.4674 66.6074,16.6836 C66.7181,16.8997 66.875,17.0664 67.0781,17.1836 C67.2813,17.3008 67.5221,17.3594 67.8008,17.3594 C67.9857,17.3594 68.1549,17.3333 68.3086,17.2813 C68.4622,17.2292 68.5938,17.151 68.7031,17.0469 C68.8125,16.9427 68.8958,16.8151 68.9531,16.6641 L70.4922,16.7656 C70.4141,17.1354 70.2546,17.4577 70.0137,17.7324 C69.7728,18.0072 69.4629,18.2207 69.084,18.373 C68.7051,18.5254 68.2682,18.6016 67.7734,18.6016 M74.793,12.4844 L74.793,13.7344 L71.1797,13.7344 L71.1797,12.4844 L74.793,12.4844 M72,11.0469 L73.6641,11.0469 L73.6641,16.6406 C73.6641,16.7943 73.6875,16.9134 73.7344,16.998 C73.7813,17.0827 73.847,17.1419 73.9316,17.1758 C74.0163,17.2096 74.1146,17.2266 74.2266,17.2266 C74.3047,17.2266 74.3828,17.2194 74.4609,17.2051 C74.5391,17.1908 74.599,17.1797 74.6406,17.1719 L74.9023,18.4102 C74.819,18.4362 74.7018,18.4668 74.5508,18.502 C74.3997,18.5371 74.2161,18.5586 74,18.5664 C73.599,18.582 73.248,18.5286 72.9473,18.4063 C72.6465,18.2839 72.4128,18.0938 72.2461,17.8359 C72.0794,17.5781 71.9974,17.2526 72,16.8594 L72,11.0469"/>
</g>

<g fill="#ffffff" fill-opacity="1" stroke="none" transform="matrix(1,0,0,1,0,0)"
font-family="Inter" font-size="11" font-weight="700" font-style="normal" 
>
<path vector-effect="none" fill-rule="nonzero" d="M165.969,19.8516 C165.354,19.8516 164.826,19.7207 164.385,19.459 C163.943,19.1973 163.605,18.8333 163.369,18.3672 C163.133,17.901 163.016,17.3646 163.016,16.7578 C163.016,16.1432 163.135,15.6035 163.373,15.1387 C163.611,14.6738 163.951,14.3105 164.391,14.0488 C164.831,13.7871 165.354,13.6563 165.961,13.6563 C166.484,13.6563 166.943,13.7513 167.336,13.9414 C167.729,14.1315 168.04,14.3984 168.27,14.7422 C168.499,15.0859 168.625,15.4896 168.648,15.9531 L167.078,15.9531 C167.034,15.6536 166.917,15.4121 166.729,15.2285 C166.54,15.0449 166.293,14.9531 165.988,14.9531 C165.73,14.9531 165.506,15.0228 165.314,15.1621 C165.123,15.3014 164.974,15.5039 164.867,15.7695 C164.76,16.0352 164.707,16.3568 164.707,16.7344 C164.707,17.1172 164.76,17.4427 164.865,17.7109 C164.971,17.9792 165.12,18.1836 165.313,18.3242 C165.505,18.4648 165.73,18.5352 165.988,18.5352 C166.178,18.5352 166.35,18.4961 166.502,18.418 C166.654,18.3398 166.781,18.2259 166.881,18.0762 C166.981,17.9264 167.047,17.7461 167.078,17.5352 L168.648,17.5352 C168.622,17.9935 168.498,18.3965 168.275,18.7441 C168.053,19.0918 167.746,19.3633 167.355,19.5586 C166.965,19.7539 166.503,19.8516 165.969,19.8516 M172.422,19.8516 C171.815,19.8516 171.291,19.722 170.85,19.4629 C170.408,19.2038 170.068,18.8418 169.828,18.377 C169.589,17.9121 169.469,17.3724 169.469,16.7578 C169.469,16.138 169.589,15.5957 169.828,15.1309 C170.068,14.666 170.408,14.304 170.85,14.0449 C171.291,13.7858 171.815,13.6563 172.422,13.6563 C173.029,13.6563 173.553,13.7858 173.994,14.0449 C174.436,14.304 174.776,14.666 175.016,15.1309 C175.255,15.5957 175.375,16.138 175.375,16.7578 C175.375,17.3724 175.255,17.9121 175.016,18.377 C174.776,18.8418 174.436,19.2038 173.994,19.4629 C173.553,19.722 173.029,19.8516 172.422,19.8516 M172.43,18.5625 C172.706,18.5625 172.936,18.4837 173.121,18.3262 C173.306,18.1686 173.446,17.9531 173.541,17.6797 C173.636,17.4063 173.684,17.0951 173.684,16.7461 C173.684,16.3971 173.636,16.0859 173.541,15.8125 C173.446,15.5391 173.306,15.3229 173.121,15.1641 C172.936,15.0052 172.706,14.9258 172.43,14.9258 C172.151,14.9258 171.917,15.0052 171.729,15.1641 C171.54,15.3229 171.398,15.5391 171.303,15.8125 C171.208,16.0859 171.16,16.3971 171.16,16.7461 C171.16,17.0951 171.208,17.4063 171.303,17.6797 C171.398,17.9531 171.54,18.1686 171.729,18.3262 C171.917,18.4837 172.151,18.5625 172.43,18.5625 M178.125,16.2656 L178.125,19.7344 L176.461,19.7344 L176.461,13.7344 L178.047,13.7344 L178.047,14.793 L178.117,14.793 C178.25,14.444 178.473,14.1673 178.785,13.9629 C179.098,13.7585 179.477,13.6563 179.922,13.6563 C180.339,13.6563 180.702,13.7474 181.012,13.9297 C181.322,14.112 181.563,14.3717 181.734,14.709 C181.906,15.0462 181.992,15.4479 181.992,15.9141 L181.992,19.7344 L180.328,19.7344 L180.328,16.2109 C180.331,15.8438 180.237,15.5566 180.047,15.3496 C179.857,15.1426 179.595,15.0391 179.262,15.0391 C179.038,15.0391 178.84,15.0872 178.67,15.1836 C178.499,15.2799 178.367,15.4199 178.271,15.6035 C178.176,15.7871 178.128,16.0078 178.125,16.2656 M186.48,13.7344 L186.48,14.9844 L182.867,14.9844 L182.867,13.7344 L186.48,13.7344 M183.688,12.2969 L185.352,12.2969 L185.352,17.8906 C185.352,18.0443 185.375,18.1634 185.422,18.248 C185.469,18.3327 185.535,18.3919 185.619,18.4258 C185.704,18.4596 185.802,18.4766 185.914,18.4766 C185.992,18.4766 186.07,18.4694 186.148,18.4551 C186.227,18.4408 186.286,18.4297 186.328,18.4219 L186.59,19.6602 C186.507,19.6862 186.389,19.7168 186.238,19.752 C186.087,19.7871 185.904,19.8086 185.688,19.8164 C185.286,19.832 184.936,19.7786 184.635,19.6563 C184.334,19.5339 184.1,19.3438 183.934,19.0859 C183.767,18.8281 183.685,18.5026 183.688,18.1094 L183.688,12.2969 M187.555,19.7344 L187.555,13.7344 L189.168,13.7344 L189.168,14.7813 L189.23,14.7813 C189.34,14.4089 189.523,14.127 189.781,13.9355 C190.039,13.7441 190.336,13.6484 190.672,13.6484 C190.755,13.6484 190.845,13.6536 190.941,13.6641 C191.038,13.6745 191.122,13.6888 191.195,13.707 L191.195,15.1836 C191.117,15.1602 191.009,15.1393 190.871,15.1211 C190.733,15.1029 190.607,15.0938 190.492,15.0938 C190.247,15.0938 190.029,15.1465 189.838,15.252 C189.646,15.3574 189.495,15.5039 189.385,15.6914 C189.274,15.8789 189.219,16.0951 189.219,16.3398 L189.219,19.7344 L187.555,19.7344 M194.469,19.8516 C193.862,19.8516 193.338,19.722 192.896,19.4629 C192.455,19.2038 192.115,18.8418 191.875,18.377 C191.635,17.9121 191.516,17.3724 191.516,16.7578 C191.516,16.138 191.635,15.5957 191.875,15.1309 C192.115,14.666 192.455,14.304 192.896,14.0449 C193.338,13.7858 193.862,13.6563 194.469,13.6563 C195.076,13.6563 195.6,13.7858 196.041,14.0449 C196.482,14.304 196.823,14.666 197.063,15.1309 C197.302,15.5957 197.422,16.138 197.422,16.7578 C197.422,17.3724 197.302,17.9121 197.063,18.377 C196.823,18.8418 196.482,19.2038 196.041,19.4629 C195.6,19.722 195.076,19.8516 194.469,19.8516 M194.477,18.5625 C194.753,18.5625 194.983,18.4837 195.168,18.3262 C195.353,18.1686 195.493,17.9531 195.588,17.6797 C195.683,17.4063 195.73,17.0951 195.73,16.7461 C195.73,16.3971 195.683,16.0859 195.588,15.8125 C195.493,15.5391 195.353,15.3229 195.168,15.1641 C194.983,15.0052 194.753,14.9258 194.477,14.9258 C194.198,14.9258 193.964,15.0052 193.775,15.1641 C193.587,15.3229 193.445,15.5391 193.35,15.8125 C193.255,16.0859 193.207,16.3971 193.207,16.7461 C193.207,17.0951 193.255,17.4063 193.35,17.6797 C193.445,17.9531 193.587,18.1686 193.775,18.3262 C193.964,18.4837 194.198,18.5625 194.477,18.5625 M200.172,11.7344 L200.172,19.7344 L198.508,19.7344 L198.508,11.7344 L200.172,11.7344 M206.75,19.8516 C206.135,19.8516 205.607,19.7207 205.166,19.459 C204.725,19.1973 204.386,18.8333 204.15,18.3672 C203.915,17.901 203.797,17.3646 203.797,16.7578 C203.797,16.1432 203.916,15.6035 204.154,15.1387 C204.393,14.6738 204.732,14.3105 205.172,14.0488 C205.612,13.7871 206.135,13.6563 206.742,13.6563 C207.266,13.6563 207.724,13.7513 208.117,13.9414 C208.51,14.1315 208.822,14.3984 209.051,14.7422 C209.28,15.0859 209.406,15.4896 209.43,15.9531 L207.859,15.9531 C207.815,15.6536 207.699,15.4121 207.51,15.2285 C207.321,15.0449 207.074,14.9531 206.77,14.9531 C206.512,14.9531 206.287,15.0228 206.096,15.1621 C205.904,15.3014 205.755,15.5039 205.648,15.7695 C205.542,16.0352 205.488,16.3568 205.488,16.7344 C205.488,17.1172 205.541,17.4427 205.646,17.7109 C205.752,17.9792 205.901,18.1836 206.094,18.3242 C206.286,18.4648 206.512,18.5352 206.77,18.5352 C206.96,18.5352 207.131,18.4961 207.283,18.418 C207.436,18.3398 207.562,18.2259 207.662,18.0762 C207.762,17.9264 207.828,17.7461 207.859,17.5352 L209.43,17.5352 C209.404,17.9935 209.279,18.3965 209.057,18.7441 C208.834,19.0918 208.527,19.3633 208.137,19.5586 C207.746,19.7539 207.284,19.8516 206.75,19.8516 M212.156,16.2656 L212.156,19.7344 L210.492,19.7344 L210.492,11.7344 L212.109,11.7344 L212.109,14.793 L212.18,14.793 C212.315,14.4388 212.534,14.1608 212.836,13.959 C213.138,13.7572 213.517,13.6563 213.973,13.6563 C214.389,13.6563 214.753,13.7467 215.064,13.9277 C215.376,14.1087 215.618,14.3678 215.791,14.7051 C215.964,15.0423 216.049,15.4453 216.047,15.9141 L216.047,19.7344 L214.383,19.7344 L214.383,16.2109 C214.385,15.8411 214.292,15.5534 214.104,15.3477 C213.915,15.1419 213.651,15.0391 213.313,15.0391 C213.086,15.0391 212.886,15.0872 212.713,15.1836 C212.54,15.2799 212.404,15.4199 212.307,15.6035 C212.209,15.7871 212.159,16.0078 212.156,16.2656 M219.063,19.8477 C218.68,19.8477 218.339,19.7806 218.039,19.6465 C217.74,19.5124 217.503,19.3132 217.33,19.0488 C217.157,18.7845 217.07,18.4544 217.07,18.0586 C217.07,17.7253 217.132,17.4453 217.254,17.2188 C217.376,16.9922 217.543,16.8099 217.754,16.6719 C217.965,16.5339 218.205,16.4297 218.475,16.3594 C218.744,16.2891 219.027,16.2396 219.324,16.2109 C219.673,16.1745 219.954,16.14 220.168,16.1074 C220.382,16.0749 220.536,16.026 220.633,15.9609 C220.729,15.8958 220.777,15.7995 220.777,15.6719 L220.777,15.6484 C220.777,15.401 220.7,15.2096 220.545,15.0742 C220.39,14.9388 220.171,14.8711 219.887,14.8711 C219.587,14.8711 219.349,14.9368 219.172,15.0684 C218.995,15.1999 218.878,15.3646 218.82,15.5625 L217.281,15.4375 C217.359,15.0729 217.513,14.7572 217.742,14.4902 C217.971,14.2233 218.268,14.0176 218.631,13.873 C218.994,13.7285 219.415,13.6563 219.895,13.6563 C220.228,13.6563 220.548,13.6953 220.854,13.7734 C221.16,13.8516 221.432,13.9727 221.67,14.1367 C221.908,14.3008 222.096,14.5111 222.234,14.7676 C222.372,15.0241 222.441,15.3307 222.441,15.6875 L222.441,19.7344 L220.863,19.7344 L220.863,18.9023 L220.816,18.9023 C220.72,19.0898 220.591,19.2546 220.43,19.3965 C220.268,19.5384 220.074,19.6491 219.848,19.7285 C219.621,19.8079 219.359,19.8477 219.063,19.8477 M219.539,18.6992 C219.784,18.6992 220,18.6504 220.188,18.5527 C220.375,18.4551 220.522,18.3229 220.629,18.1563 C220.736,17.9896 220.789,17.8008 220.789,17.5898 L220.789,16.9531 C220.737,16.987 220.666,17.0176 220.576,17.0449 C220.486,17.0723 220.385,17.097 220.273,17.1191 C220.161,17.1413 220.049,17.1608 219.938,17.1777 C219.826,17.1947 219.724,17.2096 219.633,17.2227 C219.438,17.2513 219.267,17.2969 219.121,17.3594 C218.975,17.4219 218.862,17.5059 218.781,17.6113 C218.701,17.7168 218.66,17.8477 218.66,18.0039 C218.66,18.2305 218.743,18.403 218.908,18.5215 C219.074,18.64 219.284,18.6992 219.539,18.6992 M225.391,16.2656 L225.391,19.7344 L223.727,19.7344 L223.727,13.7344 L225.313,13.7344 L225.313,14.793 L225.383,14.793 C225.516,14.444 225.738,14.1673 226.051,13.9629 C226.363,13.7585 226.742,13.6563 227.188,13.6563 C227.604,13.6563 227.967,13.7474 228.277,13.9297 C228.587,14.112 228.828,14.3717 229,14.709 C229.172,15.0462 229.258,15.4479 229.258,15.9141 L229.258,19.7344 L227.594,19.7344 L227.594,16.2109 C227.596,15.8438 227.503,15.5566 227.313,15.3496 C227.122,15.1426 226.861,15.0391 226.527,15.0391 C226.303,15.0391 226.106,15.0872 225.936,15.1836 C225.765,15.2799 225.632,15.4199 225.537,15.6035 C225.442,15.7871 225.393,16.0078 225.391,16.2656 M232.219,16.2656 L232.219,19.7344 L230.555,19.7344 L230.555,13.7344 L232.141,13.7344 L232.141,14.793 L232.211,14.793 C232.344,14.444 232.566,14.1673 232.879,13.9629 C233.191,13.7585 233.57,13.6563 234.016,13.6563 C234.432,13.6563 234.796,13.7474 235.105,13.9297 C235.415,14.112 235.656,14.3717 235.828,14.709 C236,15.0462 236.086,15.4479 236.086,15.9141 L236.086,19.7344 L234.422,19.7344 L234.422,16.2109 C234.424,15.8438 234.331,15.5566 234.141,15.3496 C233.951,15.1426 233.689,15.0391 233.355,15.0391 C233.132,15.0391 232.934,15.0872 232.764,15.1836 C232.593,15.2799 232.46,15.4199 232.365,15.6035 C232.27,15.7871 232.221,16.0078 232.219,16.2656 M240.117,19.8516 C239.5,19.8516 238.969,19.7259 238.525,19.4746 C238.081,19.2233 237.74,18.8665 237.5,18.4043 C237.26,17.9421 237.141,17.3945 237.141,16.7617 C237.141,16.1445 237.26,15.6029 237.5,15.1367 C237.74,14.6706 238.077,14.3073 238.514,14.0469 C238.95,13.7865 239.462,13.6563 240.051,13.6563 C240.447,13.6563 240.816,13.7194 241.158,13.8457 C241.501,13.972 241.8,14.1615 242.057,14.4141 C242.313,14.6667 242.513,14.9837 242.656,15.3652 C242.799,15.7467 242.871,16.1927 242.871,16.7031 L242.871,17.1602 L237.805,17.1602 L237.805,16.1289 L241.305,16.1289 C241.305,15.8893 241.253,15.6771 241.148,15.4922 C241.044,15.3073 240.9,15.1621 240.717,15.0566 C240.533,14.9512 240.32,14.8984 240.078,14.8984 C239.826,14.8984 239.602,14.9564 239.408,15.0723 C239.214,15.1882 239.063,15.3431 238.953,15.5371 C238.844,15.7311 238.788,15.9466 238.785,16.1836 L238.785,17.1641 C238.785,17.4609 238.84,17.7174 238.951,17.9336 C239.062,18.1497 239.219,18.3164 239.422,18.4336 C239.625,18.5508 239.866,18.6094 240.145,18.6094 C240.329,18.6094 240.499,18.5833 240.652,18.5313 C240.806,18.4792 240.938,18.401 241.047,18.2969 C241.156,18.1927 241.24,18.0651 241.297,17.9141 L242.836,18.0156 C242.758,18.3854 242.598,18.7077 242.357,18.9824 C242.117,19.2572 241.807,19.4707 241.428,19.623 C241.049,19.7754 240.612,19.8516 240.117,19.8516 M245.609,11.7344 L245.609,19.7344 L243.945,19.7344 L243.945,11.7344 L245.609,11.7344 M251.188,19.8477 C250.805,19.8477 250.464,19.7806 250.164,19.6465 C249.865,19.5124 249.628,19.3132 249.455,19.0488 C249.282,18.7845 249.195,18.4544 249.195,18.0586 C249.195,17.7253 249.257,17.4453 249.379,17.2188 C249.501,16.9922 249.668,16.8099 249.879,16.6719 C250.09,16.5339 250.33,16.4297 250.6,16.3594 C250.869,16.2891 251.152,16.2396 251.449,16.2109 C251.798,16.1745 252.079,16.14 252.293,16.1074 C252.507,16.0749 252.661,16.026 252.758,15.9609 C252.854,15.8958 252.902,15.7995 252.902,15.6719 L252.902,15.6484 C252.902,15.401 252.825,15.2096 252.67,15.0742 C252.515,14.9388 252.296,14.8711 252.012,14.8711 C251.712,14.8711 251.474,14.9368 251.297,15.0684 C251.12,15.1999 251.003,15.3646 250.945,15.5625 L249.406,15.4375 C249.484,15.0729 249.638,14.7572 249.867,14.4902 C250.096,14.2233 250.393,14.0176 250.756,13.873 C251.119,13.7285 251.54,13.6563 252.02,13.6563 C252.353,13.6563 252.673,13.6953 252.979,13.7734 C253.285,13.8516 253.557,13.9727 253.795,14.1367 C254.033,14.3008 254.221,14.5111 254.359,14.7676 C254.497,15.0241 254.566,15.3307 254.566,15.6875 L254.566,19.7344 L252.988,19.7344 L252.988,18.9023 L252.941,18.9023 C252.845,19.0898 252.716,19.2546 252.555,19.3965 C252.393,19.5384 252.199,19.6491 251.973,19.7285 C251.746,19.8079 251.484,19.8477 251.188,19.8477 M251.664,18.6992 C251.909,18.6992 252.125,18.6504 252.313,18.5527 C252.5,18.4551 252.647,18.3229 252.754,18.1563 C252.861,17.9896 252.914,17.8008 252.914,17.5898 L252.914,16.9531 C252.862,16.987 252.791,17.0176 252.701,17.0449 C252.611,17.0723 252.51,17.097 252.398,17.1191 C252.286,17.1413 252.174,17.1608 252.063,17.1777 C251.951,17.1947 251.849,17.2096 251.758,17.2227 C251.563,17.2513 251.392,17.2969 251.246,17.3594 C251.1,17.4219 250.987,17.5059 250.906,17.6113 C250.826,17.7168 250.785,17.8477 250.785,18.0039 C250.785,18.2305 250.868,18.403 251.033,18.5215 C251.199,18.64 251.409,18.6992 251.664,18.6992 M260.844,15.4453 L259.32,15.5391 C259.294,15.4089 259.238,15.291 259.152,15.1855 C259.066,15.0801 258.954,14.9954 258.814,14.9316 C258.675,14.8678 258.509,14.8359 258.316,14.8359 C258.059,14.8359 257.841,14.89 257.664,14.998 C257.487,15.1061 257.398,15.25 257.398,15.4297 C257.398,15.5729 257.456,15.694 257.57,15.793 C257.685,15.8919 257.882,15.9714 258.16,16.0313 L259.246,16.25 C259.829,16.3698 260.264,16.5625 260.551,16.8281 C260.837,17.0938 260.98,17.4427 260.98,17.875 C260.98,18.2682 260.865,18.6133 260.635,18.9102 C260.404,19.207 260.089,19.4382 259.689,19.6035 C259.29,19.7689 258.829,19.8516 258.309,19.8516 C257.514,19.8516 256.882,19.6855 256.412,19.3535 C255.942,19.0215 255.667,18.569 255.586,17.9961 L257.223,17.9102 C257.272,18.1523 257.392,18.3366 257.582,18.4629 C257.772,18.5892 258.016,18.6523 258.313,18.6523 C258.604,18.6523 258.839,18.5957 259.018,18.4824 C259.196,18.3691 259.286,18.2227 259.289,18.043 C259.286,17.8919 259.223,17.7676 259.098,17.6699 C258.973,17.5723 258.78,17.4974 258.52,17.4453 L257.48,17.2383 C256.895,17.1211 256.459,16.918 256.174,16.6289 C255.889,16.3398 255.746,15.9714 255.746,15.5234 C255.746,15.138 255.851,14.806 256.061,14.5273 C256.27,14.2487 256.566,14.0339 256.947,13.8828 C257.329,13.7318 257.776,13.6563 258.289,13.6563 C259.047,13.6563 259.644,13.8164 260.08,14.1367 C260.516,14.457 260.771,14.8932 260.844,15.4453 "/>
</g>

<g fill="#ffffff" fill-opacity="1" stroke="none" transform="matrix(0.228,0,0,0.228,11.6,4.6)"
font-family="Inter" font-size="11" font-weight="700" font-style="normal" 
>
<path vector-effect="none" fill-rule="nonzero" d="M30.3865,12.7593 C30.0195,12.7593 29.7239,13.029 29.7239,13.364 L29.7239,86.636 C29.7239,86.9711 30.0195,87.2407 30.3865,87.2407 L69.6135,87.2407 C69.9805,87.2407 70.2761,86.9711 70.2761,86.636 L70.2761,13.364 C70.2761,13.029 69.9805,12.7593 69.6135,12.7593 L30.3865,12.7593 M47.2944,42.7444 L52.7056,42.7444 C53.7308,42.7444 54.5562,43.5697 54.5562,44.595 L54.5562,50.0061 C54.5562,51.0314 53.7308,51.8567 52.7056,51.8567 L47.2944,51.8567 C46.2692,51.8567 45.4438,51.0314 45.4438,50.0061 L45.4438,44.595 C45.4438,43.5697 46.2692,42.7444 47.2944,42.7444 M49.8813,53.1538 C49.8813,53.1164 52.4733,53.164 52.7588,53.1865 C53.3299,53.2315 54.6939,56.1908 53.8372,56.218 C52.9804,56.2453 46.6698,56.1878 45.9092,56.2358 C45.1486,56.2839 46.4671,53.2287 47.0186,53.1865 C47.2943,53.1654 49.8813,53.1515 49.8813,53.1538 L49.8813,53.1538"/>
</g>

<g fill="none" stroke="#000000" stroke-opacity="1" stroke-width="1.5" stroke-linecap="round" stroke-linejoin="round" transform="matrix(0.228,0,0,0.228,11.6,4.6)"
font-family="Inter" font-size="11" font-weight="700" font-style="normal" 
>
<path vector-effect="none" fill-rule="nonzero" d="M30.3865,12.7593 C30.0195,12.7593 29.7239,13.029 29.7239,13.364 L29.7239,86.636 C29.7239,86.9711 30.0195,87.2407 30.3865,87.2407 L69.6135,87.2407 C69.9805,87.2407 70.2761,86.9711 70.2761,86.636 L70.2761,13.364 C70.2761,13.029 69.9805,12.7593 69.6135,12.7593 L30.3865,12.7593 M47.2944,42.7444 L52.7056,42.7444 C53.7308,42.7444 54.5562,43.5697 54.5562,44.595 L54.5562,50.0061 C54.5562,51.0314 53.7308,51.8567 52.7056,51.8567 L47.2944,51.8567 C46.2692,51.8567 45.4438,51.0314 45.4438,50.0061 L45.4438,44.595 C45.4438,43.5697 46.2692,42.7444 47.2944,42.7444 M49.8813,53.1538 C49.8813,53.1164 52.4733,53.164 52.7588,53.1865 C53.3299,53.2315 54.6939,56.1908 53.8372,56.218 C52.9804,56.2453 46.6698,56.1878 45.9092,56.2358 C45.1486,56.2839 46.4671,53.2287 47.0186,53.1865 C47.2943,53.1654 49.8813,53.1515 49.8813,53.1538 L49.8813,53.1538"/>
</g>

<g fill="#ffffff" fill-opacity="1" stroke="none" transform="matrix(0.228,0,0,0.228,11.6,4.6)"
font-family="Inter" font-size="11" font-weight="700" font-style="normal" 
>
<path vector-effect="none" fill-rule="nonzero" d="M64.7451,62.3077 C63.7738,62.3078 62.9864,63.0954 62.9866,64.0668 C62.9868,65.0379 63.7742,65.8251 64.7454,65.8251 C65.7167,65.8251 66.5041,65.0378 66.5042,64.0665 L66.5042,64.0658 C66.5038,63.0946 65.7163,62.3075 64.7451,62.3077 M55.2017,62.4669 C54.2304,62.467 53.4431,63.2544 53.4431,64.2257 C53.4433,65.1969 54.2307,65.9841 55.2019,65.984 C56.1732,65.9841 56.9606,65.1967 56.9607,64.2254 L56.9607,64.225 C56.9604,63.2538 56.1729,62.4667 55.2017,62.4669 M45.1809,62.6258 C44.2096,62.626 43.4224,63.4136 43.4226,64.3849 C43.4228,65.3561 44.2102,66.1432 45.1814,66.1432 C46.1526,66.1431 46.9399,65.3558 46.94,64.3846 L46.94,64.3839 C46.9396,63.4127 46.1521,62.6256 45.1809,62.6258 M36.0964,62.6932 C35.1253,62.6934 34.3381,63.4808 34.3381,64.452 C34.3382,65.4233 35.1257,66.2106 36.0969,66.2106 C37.0681,66.2105 37.8554,65.4232 37.8555,64.452 L37.8555,64.4513 C37.8551,63.4801 37.0676,62.693 36.0964,62.6932 L36.0964,62.6932"/>
</g>

<g fill="none" stroke="#000000" stroke-opacity="1" stroke-width="1.84624" stroke-linecap="round" stroke-linejoin="round" transform="matrix(0.228,0,0,0.228,11.6,4.6)"
font-family="Inter" font-size="11" font-weight="700" font-style="normal" 
>
<path vector-effect="none" fill-rule="nonzero" d="M64.7451,62.3077 C63.7738,62.3078 62.9864,63.0954 62.9866,64.0668 C62.9868,65.0379 63.7742,65.8251 64.7454,65.8251 C65.7167,65.8251 66.5041,65.0378 66.5042,64.0665 L66.5042,64.0658 C66.5038,63.0946 65.7163,62.3075 64.7451,62.3077 M55.2017,62.4669 C54.2304,62.467 53.4431,63.2544 53.4431,64.2257 C53.4433,65.1969 54.2307,65.9841 55.2019,65.984 C56.1732,65.9841 56.9606,65.1967 56.9607,64.2254 L56.9607,64.225 C56.9604,63.2538 56.1729,62.4667 55.2017,62.4669 M45.1809,62.6258 C44.2096,62.626 43.4224,63.4136 43.4226,64.3849 C43.4228,65.3561 44.2102,66.1432 45.1814,66.1432 C46.1526,66.1431 46.9399,65.3558 46.94,64.3846 L46.94,64.3839 C46.9396,63.4127 46.1521,62.6256 45.1809,62.6258 M36.0964,62.6932 C35.1253,62.6934 34.3381,63.4808 34.3381,64.452 C34.3382,65.4233 35.1257,66.2106 36.0969,66.2106 C37.0681,66.2105 37.8554,65.4232 37.8555,64.452 L37.8555,64.4513 C37.8551,63.4801 37.0676,62.693 36.0964,62.6932 L36.0964,62.6932"/>
</g>

<g fill="#ffffff" fill-opacity="1" stroke="none" transform="matrix(0.228,0,0,0.228,11.6,4.6)"
font-family="Inter" font-size="11" font-weight="700" font-style="normal" 
>
<path vector-effect="none" fill-rule="nonzero" d="M64.418,33.552 C63.4466,33.5521 62.6592,34.3397 62.6594,35.311 C62.6596,36.2822 63.447,37.0694 64.4182,37.0693 C65.3895,37.0694 66.1769,36.2821 66.177,35.3108 L66.177,35.3101 C66.1767,34.3389 65.3892,33.5518 64.418,33.552 M54.8745,33.7112 C53.9032,33.7113 53.1159,34.4987 53.116,35.47 C53.1162,36.4412 53.9036,37.2283 54.8748,37.2283 C55.846,37.2283 56.6335,36.441 56.6335,35.4697 L56.6335,35.4692 C56.6332,34.4981 55.8457,33.711 54.8745,33.7112 M44.8538,33.8701 C43.8825,33.8703 43.0953,34.6579 43.0955,35.6291 C43.0957,36.6003 43.8831,37.3875 44.8542,37.3875 C45.8254,37.3874 46.6127,36.6001 46.6128,35.6289 L46.6128,35.6282 C46.6125,34.657 45.8249,33.8699 44.8538,33.8701 M35.7693,33.9375 C34.7981,33.9377 34.0109,34.7251 34.011,35.6963 C34.0111,36.6676 34.7985,37.4549 35.7698,37.4548 C36.741,37.4548 37.5282,36.6675 37.5283,35.6963 L37.5283,35.6956 C37.528,34.7244 36.7405,33.9373 35.7693,33.9375 "/>
</g>

<g fill="none" stroke="#000000" stroke-opacity="1" stroke-width="1.84624" stroke-linecap="round" stroke-linejoin="round" transform="matrix(0.228,0,0,0.228,11.6,4.6)"
font-family="Inter" font-size="11" font-weight="700" font-style="normal" 
>
<path vector-effect="none" fill-rule="nonzero" d="M64.418,33.552 C63.4466,33.5521 62.6592,34.3397 62.6594,35.311 C62.6596,36.2822 63.447,37.0694 64.4182,37.0693 C65.3895,37.0694 66.1769,36.2821 66.177,35.3108 L66.177,35.3101 C66.1767,34.3389 65.3892,33.5518 64.418,33.552 M54.8745,33.7112 C53.9032,33.7113 53.1159,34.4987 53.116,35.47 C53.1162,36.4412 53.9036,37.2283 54.8748,37.2283 C55.846,37.2283 56.6335,36.441 56.6335,35.4697 L56.6335,35.4692 C56.6332,34.4981 55.8457,33.711 54.8745,33.7112 M44.8538,33.8701 C43.8825,33.8703 43.0953,34.6579 43.0955,35.6291 C43.0957,36.6003 43.8831,37.3875 44.8542,37.3875 C45.8254,37.3874 46.6127,36.6001 46.6128,35.6289 L46.6128,35.6282 C46.6125,34.657 45.8249,33.8699 44.8538,33.8701 M35.7693,33.9375 C34.7981,33.9377 34.0109,34.7251 34.011,35.6963 C34.0111,36.6676 34.7985,37.4549 35.7698,37.4548 C36.741,37.4548 37.5282,36.6675 37.5283,35.6963 L37.5283,35.6956 C37.528,34.7244 36.7405,33.9373 35.7693,33.9375 "/>
</g>

<g fill="#ffffff" fill-opacity="1" stroke="none" transform="matrix(0.228,0,0,0.228,11.6,4.6)"
font-family="Inter" font-size="11" font-weight="700" font-style="normal" 
>
<path vector-effect="none" fill-rule="nonzero" d="M37.7392,54.7245 C37.7391,53.7532 36.9517,52.9659 35.9804,52.966 C35.0092,52.9662 34.222,53.7536 34.2221,54.7247 C34.222,55.696 35.0094,56.4835 35.9806,56.4835 L35.9811,56.4835 C36.9523,56.4832 37.7394,55.6957 37.7392,54.7245 M37.5802,44.7037 C37.58,43.7325 36.7925,42.9453 35.8212,42.9454 C34.85,42.9457 34.0628,43.733 34.0629,44.7042 C34.063,45.6754 34.8503,46.4627 35.8215,46.4628 L35.8222,46.4628 C36.7934,46.4624 37.5804,45.6749 37.5802,44.7037 "/>
</g>

<g fill="none" stroke="#000000" stroke-opacity="1" stroke-width="1.84624" stroke-linecap="round" stroke-linejoin="round" transform="matrix(0.228,0,0,0.228,11.6,4.6)"
font-family="Inter" font-size="11" font-weight="700" font-style="normal" 
>
<path vector-effect="none" fill-rule="nonzero" d="M37.7392,54.7245 C37.7391,53.7532 36.9517,52.9659 35.9804,52.966 C35.0092,52.9662 34.222,53.7536 34.2221,54.7247 C34.222,55.696 35.0094,56.4835 35.9806,56.4835 L35.9811,56.4835 C36.9523,56.4832 37.7394,55.6957 37.7392,54.7245 M37.5802,44.7037 C37.58,43.7325 36.7925,42.9453 35.8212,42.9454 C34.85,42.9457 34.0628,43.733 34.0629,44.7042 C34.063,45.6754 34.8503,46.4627 35.8215,46.4628 L35.8222,46.4628 C36.7934,46.4624 37.5804,45.6749 37.5802,44.7037 "/>
</g>

<g fill="#ffffff" fill-opacity="1" stroke="none" transform="matrix(0.228,0,0,0.228,11.6,4.6)"
font-family="Inter" font-size="11" font-weight="700" font-style="normal" 
>
<path vector-effect="none" fill-rule="nonzero" d="M66.3695,54.4064 C66.3694,53.4351 65.582,52.6478 64.6107,52.6478 C63.6395,52.648 62.8523,53.4354 62.8524,54.4066 C62.8523,55.3779 63.6397,56.1653 64.6109,56.1654 L64.6114,56.1654 C65.5826,56.1651 66.3697,55.3776 66.3695,54.4064 M66.2106,44.3856 C66.2103,43.4144 65.4228,42.6271 64.4515,42.6273 C63.4803,42.6275 62.6932,43.4149 62.6932,44.3861 C62.6933,45.3573 63.4806,46.1446 64.4518,46.1447 L64.4525,46.1447 C65.4237,46.1443 66.2107,45.3568 66.2106,44.3856 "/>
</g>

<g fill="none" stroke="#000000" stroke-opacity="1" stroke-width="1.84624" stroke-linecap="round" stroke-linejoin="round" transform="matrix(0.228,0,0,0.228,11.6,4.6)"
font-family="Inter" font-size="11" font-weight="700" font-style="normal" 
>
<path vector-effect="none" fill-rule="nonzero" d="M66.3695,54.4064 C66.3694,53.4351 65.582,52.6478 64.6107,52.6478 C63.6395,52.648 62.8523,53.4354 62.8524,54.4066 C62.8523,55.3779 63.6397,56.1653 64.6109,56.1654 L64.6114,56.1654 C65.5826,56.1651 66.3697,55.3776 66.3695,54.4064 M66.2106,44.3856 C66.2103,43.4144 65.4228,42.6271 64.4515,42.6273 C63.4803,42.6275 62.6932,43.4149 62.6932,44.3861 C62.6933,45.3573 63.4806,46.1446 64.4518,46.1447 L64.4525,46.1447 C65.4237,46.1443 66.2107,45.3568 66.2106,44.3856 "/>
</g>

<g fill="none" stroke="#000000" stroke-opacity="1" stroke-width="1.47647" stroke-linecap="round" stroke-linejoin="round" transform="matrix(0.228,0,0,0.228,11.6,4.6)"
font-family="Inter" font-size="11" font-weight="700" font-style="normal" 
>
<path vector-effect="none" fill-rule="nonzero" d="M30.3826,12.341 C30.0156,12.341 29.7201,12.6138 29.7201,12.9526 L29.7201,87.0474 C29.7201,87.3862 30.0156,87.659 30.3826,87.659 L69.6174,87.659 C69.9844,87.659 70.2799,87.3862 70.2799,87.0474 L70.2799,12.9526 C70.2799,12.6138 69.9844,12.341 69.6174,12.341 L30.3826,12.341"/>
</g>

<g fill="#000000" fill-opacity="1" stroke="none" transform="matrix(0.228,0,0,0.228,11.6,4.6)"
font-family="Inter" font-size="11" font-weight="700" font-style="normal" 
>
<path vector-effect="none" fill-rule="evenodd" d="M56.8589,23.4697 C56.6429,23.4751 56.4705,23.651 56.4705,23.8684 L56.4705,24.6233 L55.7241,24.6233 C54.6425,24.6233 53.7502,25.5182 53.7502,26.5999 L53.7502,27.7571 C53.7481,27.7746 53.747,27.7922 53.747,27.8103 L53.747,28.1982 C53.747,28.4417 53.9428,28.6379 54.1863,28.6379 L54.7497,28.6379 C54.9932,28.6379 55.1892,28.4417 55.1892,28.1982 L55.1892,28.1892 L55.1929,28.1892 C55.1914,28.1803 55.1903,28.1712 55.1892,28.1621 L55.1892,27.8106 C55.1892,27.7901 55.1875,27.7698 55.1848,27.75 L55.1848,26.5999 C55.1848,26.2878 55.412,26.0581 55.7241,26.0581 L64.1716,26.0581 C64.4837,26.0581 64.7107,26.2878 64.7107,26.5999 L64.7107,27.6865 C64.7064,27.7113 64.7044,27.737 64.7044,27.763 L64.7044,28.1509 C64.7044,28.1585 64.7047,28.1659 64.7051,28.1734 L64.7051,28.1736 C64.7044,28.1788 64.7037,28.1841 64.7029,28.1892 L64.7058,28.1892 C64.7252,28.4145 64.9131,28.5904 65.1435,28.5904 L65.707,28.5904 C65.9505,28.5904 66.1465,28.3944 66.1465,28.1509 L66.1465,27.763 C66.1465,27.7534 66.1461,27.7438 66.1455,27.7344 L66.1455,26.5999 C66.1455,25.5182 65.2533,24.6233 64.1716,24.6233 L63.4253,24.6233 L63.4253,23.8684 C63.4253,23.6476 63.2477,23.47 63.0268,23.47 L62.3335,23.47 C62.1127,23.47 61.9348,23.6476 61.9348,23.8684 L61.9348,24.6233 L57.9607,24.6233 L57.9607,23.8684 C57.9607,23.6476 57.7828,23.47 57.562,23.47 L56.8691,23.47 C56.8656,23.47 56.8621,23.4699 56.8586,23.47 L56.8589,23.4697 M36.636,23.5444 C36.4201,23.5499 36.2478,23.7258 36.2478,23.9431 L36.2478,24.698 L35.5015,24.698 C34.4198,24.698 33.5276,25.5927 33.5276,26.6743 L33.5276,27.8315 C33.5255,27.849 33.5244,27.8669 33.5244,27.885 L33.5244,28.273 C33.5244,28.5164 33.7201,28.7124 33.9636,28.7124 L34.5271,28.7124 C34.7706,28.7124 34.9666,28.5164 34.9666,28.273 L34.9666,28.264 L34.9703,28.264 C34.9688,28.2551 34.9677,28.246 34.9666,28.2369 L34.9666,27.885 C34.9666,27.8645 34.9649,27.8445 34.9622,27.8247 L34.9622,26.6746 C34.9622,26.3625 35.1894,26.1328 35.5015,26.1328 L43.949,26.1328 C44.261,26.1328 44.488,26.3625 44.488,26.6746 L44.488,27.7612 C44.4837,27.786 44.4817,27.8114 44.4817,27.8374 L44.4817,28.2253 C44.4817,28.2329 44.4821,28.2405 44.4825,28.248 L44.4825,28.2483 C44.4818,28.2535 44.4811,28.2588 44.4803,28.2639 L44.4832,28.2639 C44.5026,28.4892 44.6904,28.665 44.9209,28.665 L45.4844,28.665 C45.7278,28.665 45.9238,28.4688 45.9238,28.2253 L45.9238,27.8374 C45.9238,27.8278 45.9235,27.8185 45.9229,27.8091 L45.9229,26.6746 C45.9229,25.5929 45.0306,24.698 43.949,24.698 L43.2026,24.698 L43.2026,23.9431 C43.2026,23.7223 43.025,23.5444 42.8042,23.5444 L42.1108,23.5444 C41.89,23.5444 41.7124,23.7223 41.7124,23.9431 L41.7124,24.698 L37.738,24.698 L37.738,23.9431 C37.738,23.7223 37.5602,23.5444 37.3394,23.5444 L36.6465,23.5444 C36.6431,23.5444 36.6396,23.5444 36.6362,23.5444 L36.636,23.5444 M55.8215,29.2356 C55.6007,29.2356 55.4229,29.4135 55.4229,29.6343 L55.4229,30.291 C55.4229,30.5118 55.6007,30.6897 55.8215,30.6897 L64.125,30.6897 C64.3458,30.6897 64.5232,30.5118 64.5232,30.291 L64.5232,29.6343 C64.5232,29.4135 64.3458,29.2356 64.125,29.2356 L55.8215,29.2356 M35.5989,29.3103 C35.3781,29.3103 35.2002,29.4882 35.2002,29.709 L35.2002,30.3657 C35.2002,30.5866 35.3781,30.7642 35.5989,30.7642 L43.9023,30.7642 C44.1232,30.7642 44.3005,30.5866 44.3005,30.3657 L44.3005,29.709 C44.3005,29.4882 44.1232,29.3103 43.9023,29.3103 L35.5989,29.3103"/>
</g>

<g fill="#000000" fill-opacity="1" stroke="none" transform="matrix(0.228,0,0,0.228,11.6,4.6)"
font-family="Inter" font-size="11" font-weight="700" font-style="normal" 
>
<path vector-effect="none" fill-rule="evenodd" d="M57.0728,75.9663 C56.8568,75.9609 56.6844,75.785 56.6844,75.5676 L56.6844,74.8128 L55.9381,74.8128 C54.8564,74.8128 53.9642,73.9178 53.9642,72.8362 L53.9642,71.679 C53.9621,71.6615 53.961,71.6438 53.961,71.6258 L53.961,71.2378 C53.961,70.9944 54.1567,70.7981 54.4002,70.7981 L54.9637,70.7981 C55.2071,70.7981 55.4031,70.9944 55.4031,71.2378 L55.4031,71.2468 L55.4068,71.2468 C55.4053,71.2557 55.4042,71.2648 55.4031,71.2739 L55.4031,71.6255 C55.4031,71.646 55.4014,71.6663 55.3987,71.686 L55.3987,72.8362 C55.3987,73.1483 55.6259,73.3779 55.938,73.3779 L64.3855,73.3779 C64.6976,73.3779 64.9246,73.1483 64.9246,72.8362 L64.9246,71.7495 C64.9203,71.7248 64.9183,71.6991 64.9183,71.6731 L64.9183,71.2851 C64.9183,71.2775 64.9186,71.2702 64.919,71.2627 L64.919,71.2624 C64.9183,71.2572 64.9176,71.2519 64.9168,71.2468 L64.9197,71.2468 C64.9391,71.0215 65.127,70.8457 65.3575,70.8457 L65.9209,70.8457 C66.1644,70.8457 66.3604,71.0417 66.3604,71.2851 L66.3604,71.6731 C66.3604,71.6827 66.36,71.6922 66.3594,71.7016 L66.3594,72.8362 C66.3594,73.9178 65.4672,74.8127 64.3855,74.8127 L63.6392,74.8127 L63.6392,75.5676 C63.6392,75.7884 63.4616,75.966 63.2408,75.966 L62.5474,75.966 C62.3266,75.966 62.1487,75.7884 62.1487,75.5676 L62.1487,74.8127 L58.1746,74.8127 L58.1746,75.5676 C58.1746,75.7884 57.9968,75.966 57.7759,75.966 L57.0831,75.966 C57.0796,75.966 57.0761,75.9661 57.0726,75.966 L57.0728,75.9663 M36.8499,75.8916 C36.634,75.8861 36.4617,75.7102 36.4617,75.4929 L36.4617,74.7381 L35.7154,74.7381 C34.6338,74.7381 33.7415,73.8434 33.7415,72.7617 L33.7415,71.6045 C33.7394,71.587 33.7383,71.5691 33.7383,71.551 L33.7383,71.1631 C33.7383,70.9196 33.9341,70.7236 34.1775,70.7236 L34.741,70.7236 C34.9845,70.7236 35.1805,70.9196 35.1805,71.1631 L35.1805,71.1721 L35.1842,71.1721 C35.1827,71.181 35.1816,71.1901 35.1805,71.1992 L35.1805,71.551 C35.1805,71.5715 35.1788,71.5916 35.1761,71.6113 L35.1761,72.7615 C35.1761,73.0736 35.4033,73.3032 35.7154,73.3032 L44.1629,73.3032 C44.475,73.3032 44.702,73.0736 44.702,72.7615 L44.702,71.6748 C44.6977,71.6501 44.6957,71.6246 44.6957,71.5986 L44.6957,71.2107 C44.6957,71.2031 44.696,71.1955 44.6964,71.188 L44.6964,71.1878 C44.6957,71.1826 44.695,71.1773 44.6942,71.1721 L44.6971,71.1721 C44.7165,70.9469 44.9044,70.771 45.1348,70.771 L45.6983,70.771 C45.9418,70.771 46.1378,70.9673 46.1378,71.2107 L46.1378,71.5987 C46.1378,71.6083 46.1374,71.6176 46.1368,71.627 L46.1368,72.7615 C46.1368,73.8431 45.2446,74.7381 44.1629,74.7381 L43.4166,74.7381 L43.4166,75.4929 C43.4166,75.7138 43.239,75.8916 43.0181,75.8916 L42.3248,75.8916 C42.1039,75.8916 41.9263,75.7138 41.9263,75.4929 L41.9263,74.7381 L37.952,74.7381 L37.952,75.4929 C37.952,75.7138 37.7741,75.8916 37.5533,75.8916 L36.8604,75.8916 C36.857,75.8916 36.8535,75.8917 36.8502,75.8916 L36.8499,75.8916 M56.0355,70.2005 C55.8146,70.2005 55.6368,70.0226 55.6368,69.8018 L55.6368,69.145 C55.6368,68.9242 55.8146,68.7464 56.0355,68.7464 L64.3389,68.7464 C64.5598,68.7464 64.7371,68.9242 64.7371,69.145 L64.7371,69.8018 C64.7371,70.0226 64.5598,70.2005 64.3389,70.2005 L56.0355,70.2005 M35.8128,70.1257 C35.592,70.1257 35.4141,69.9479 35.4141,69.7271 L35.4141,69.0703 C35.4141,68.8495 35.592,68.6719 35.8128,68.6719 L44.1163,68.6719 C44.3371,68.6719 44.5145,68.8495 44.5145,69.0703 L44.5145,69.7271 C44.5145,69.9479 44.3371,70.1257 44.1163,70.1257 L35.8128,70.1257"/>
</g>

<g fill="#000000" fill-opacity="1" stroke="none" transform="matrix(0.228,0,0,0.228,11.6,4.6)"
font-family="Inter" font-size="11" font-weight="700" font-style="normal" 
>
<path vector-effect="none" fill-rule="evenodd" d="M48.1936,40.424 C48.1936,40.0047 48.5335,39.6648 48.9528,39.6648 L50.8648,39.6648 C51.2841,39.6648 51.6239,40.0047 51.6239,40.424 C51.6239,40.8432 51.2841,41.1831 50.8648,41.1831 L48.9528,41.1831 C48.5335,41.1831 48.1936,40.8432 48.1936,40.424 "/>
</g>

<g fill="#000000" fill-opacity="1" stroke="none" transform="matrix(0.228,0,0,0.228,11.6,4.6)"
font-family="Inter" font-size="11" font-weight="700" font-style="normal" 
>
<path vector-effect="none" fill-rule="evenodd" d="M48.2683,58.5394 C48.2683,58.1202 48.6082,57.7803 49.0275,57.7803 L50.9395,57.7803 C51.3588,57.7803 51.6987,58.1202 51.6987,58.5394 C51.6987,58.9587 51.3588,59.2986 50.9395,59.2986 L49.0275,59.2986 C48.6082,59.2986 48.2683,58.9587 48.2683,58.5394 "/>
</g>

<g fill="#ffffff" fill-opacity="1" stroke="none" transform="matrix(1,0,0,1,0,0)"
font-family="Inter" font-size="11" font-weight="700" font-style="normal" 
>
</g>

<g fill="#ffffff" fill-opacity="1" stroke="#d89400" stroke-opacity="1" stroke-width="1" stroke-linecap="square" stroke-linejoin="bevel" transform="matrix(1,0,0,1,0,0)"
font-family="Inter" font-size="11" font-weight="700" font-style="normal" 
>
<polyline fill="none" vector-effect="none" points="45,6 45,26 " />
</g>

<g fill="#ffb515" fill-opacity="1" stroke="#d89400" stroke-opacity="1" stroke-width="1.2" stroke-linecap="square" stroke-linejoin="bevel" transform="matrix(1,0,0,1,267,4)"
font-family="Inter" font-size="11" font-weight="700" font-style="normal" 
>
<path vector-effect="none" fill-rule="evenodd" d="M0.5,3.5 C0.5,1.84315 1.84315,0.5 3.5,0.5 L49.5,0.5 C51.1569,0.5 52.5,1.84315 52.5,3.5 L52.5,20.5 C52.5,22.1569 51.1569,23.5 49.5,23.5 L3.5,23.5 C1.84315,23.5 0.5,22.1569 0.5,20.5 L0.5,3.5"/>
</g>

<g fill="#ffffff" fill-opacity="1" stroke="none" transform="matrix(1,0,0,1,267,4)"
font-family="Inter" font-size="11" font-weight="700" font-style="normal" 
>
<path vector-effect="none" fill-rule="nonzero" d="M13.6211,9.45313 L13.6211,10.7031 L10.0078,10.7031 L10.0078,9.45313 L13.6211,9.45313 M10.8281,8.01563 L12.4922,8.01563 L12.4922,13.6094 C12.4922,13.763 12.5156,13.8822 12.5625,13.9668 C12.6094,14.0514 12.6751,14.1107 12.7598,14.1445 C12.8444,14.1784 12.9427,14.1953 13.0547,14.1953 C13.1328,14.1953 13.2109,14.1882 13.2891,14.1738 C13.3672,14.1595 13.4271,14.1484 13.4688,14.1406 L13.7305,15.3789 C13.6471,15.4049 13.5299,15.4355 13.3789,15.4707 C13.2279,15.5059 13.0443,15.5273 12.8281,15.5352 C12.4271,15.5508 12.0762,15.4974 11.7754,15.375 C11.4746,15.2526 11.2409,15.0625 11.0742,14.8047 C10.9076,14.5469 10.8255,14.2214 10.8281,13.8281 L10.8281,8.01563 M17.3672,15.5703 C16.75,15.5703 16.2194,15.4447 15.7754,15.1934 C15.3314,14.9421 14.9896,14.5853 14.75,14.123 C14.5104,13.6608 14.3906,13.1133 14.3906,12.4805 C14.3906,11.8633 14.5104,11.3216 14.75,10.8555 C14.9896,10.3893 15.3275,10.026 15.7637,9.76563 C16.1999,9.50521 16.7122,9.375 17.3008,9.375 C17.6966,9.375 18.0658,9.43815 18.4082,9.56445 C18.7507,9.69076 19.0501,9.88021 19.3066,10.1328 C19.5632,10.3854 19.763,10.7025 19.9063,11.084 C20.0495,11.4655 20.1211,11.9115 20.1211,12.4219 L20.1211,12.8789 L15.0547,12.8789 L15.0547,11.8477 L18.5547,11.8477 C18.5547,11.6081 18.5026,11.3958 18.3984,11.2109 C18.2943,11.026 18.1504,10.8809 17.9668,10.7754 C17.7832,10.6699 17.5703,10.6172 17.3281,10.6172 C17.0755,10.6172 16.8522,10.6751 16.6582,10.791 C16.4642,10.9069 16.3125,11.0618 16.2031,11.2559 C16.0938,11.4499 16.0378,11.6654 16.0352,11.9023 L16.0352,12.8828 C16.0352,13.1797 16.0905,13.4362 16.2012,13.6523 C16.3118,13.8685 16.4688,14.0352 16.6719,14.1523 C16.875,14.2695 17.1159,14.3281 17.3945,14.3281 C17.5794,14.3281 17.7487,14.3021 17.9023,14.25 C18.056,14.1979 18.1875,14.1198 18.2969,14.0156 C18.4063,13.9115 18.4896,13.7839 18.5469,13.6328 L20.0859,13.7344 C20.0078,14.1042 19.8483,14.4264 19.6074,14.7012 C19.3665,14.9759 19.0566,15.1895 18.6777,15.3418 C18.2988,15.4941 17.862,15.5703 17.3672,15.5703 M22.4922,9.45313 L23.5938,11.5508 L24.7227,9.45313 L26.4297,9.45313 L24.6914,12.4531 L26.4766,15.4531 L24.7773,15.4531 L23.5938,13.3789 L22.4297,15.4531 L20.7109,15.4531 L22.4922,12.4531 L20.7734,9.45313 L22.4922,9.45313 M30.6055,9.45313 L30.6055,10.7031 L26.9922,10.7031 L26.9922,9.45313 L30.6055,9.45313 M27.8125,8.01563 L29.4766,8.01563 L29.4766,13.6094 C29.4766,13.763 29.5,13.8822 29.5469,13.9668 C29.5938,14.0514 29.6595,14.1107 29.7441,14.1445 C29.8288,14.1784 29.9271,14.1953 30.0391,14.1953 C30.1172,14.1953 30.1953,14.1882 30.2734,14.1738 C30.3516,14.1595 30.4115,14.1484 30.4531,14.1406 L30.7148,15.3789 C30.6315,15.4049 30.5143,15.4355 30.3633,15.4707 C30.2122,15.5059 30.0286,15.5273 29.8125,15.5352 C29.4115,15.5508 29.0605,15.4974 28.7598,15.375 C28.459,15.2526 28.2253,15.0625 28.0586,14.8047 C27.8919,14.5469 27.8099,14.2214 27.8125,13.8281 L27.8125,8.01563"/>
</g>

<g fill="#ffffff" fill-opacity="1" stroke="none" transform="matrix(0.03125,0,0,0.03125,306,12)"
font-family="Inter" font-size="11" font-weight="700" font-style="normal" 
>
<path vector-effect="none" fill-rule="nonzero" d="M111.326,191.938 C120.545,201.158 135.517,201.158 144.737,191.938 L239.144,97.5313 C245.929,90.7458 247.921,80.6413 244.233,71.7907 C240.545,62.9401 231.989,57.1871 222.401,57.1871 L33.5875,57.2608 C24.0731,57.2608 15.4437,63.0137 11.7559,71.8644 C8.06815,80.715 10.1333,90.8195 16.845,97.605 L111.252,192.012 L111.326,191.938"/>
</g>

<g fill="none" stroke="#000000" stroke-opacity="1" stroke-width="13.7195" stroke-linecap="butt" stroke-linejoin="miter" stroke-miterlimit="4" transform="matrix(0.03125,0,0,0.03125,306,12)"
font-family="Inter" font-size="11" font-weight="700" font-style="normal" 
>
<path vector-effect="none" fill-rule="nonzero" d="M111.326,191.938 C120.545,201.158 135.517,201.158 144.737,191.938 L239.144,97.5313 C245.929,90.7458 247.921,80.6413 244.233,71.7907 C240.545,62.9401 231.989,57.1871 222.401,57.1871 L33.5875,57.2608 C24.0731,57.2608 15.4437,63.0137 11.7559,71.8644 C8.06815,80.715 10.1333,90.8195 16.845,97.605 L111.252,192.012 L111.326,191.938"/>
</g>

<g fill="#ffffff" fill-opacity="1" stroke="none" transform="matrix(1,0,0,1,267,4)"
font-family="Inter" font-size="11" font-weight="700" font-style="normal" 
>
</g>

<g fill="#ffffff" fill-opacity="1" stroke="#d89400" stroke-opacity="1" stroke-width="1" stroke-linecap="square" stroke-linejoin="bevel" transform="matrix(1,0,0,1,0,0)"
font-family="Inter" font-size="11" font-weight="700" font-style="normal" 
>
</g>

<g fill="#ffffff" fill-opacity="1" stroke="#d89400" stroke-opacity="1" stroke-width="1" stroke-linecap="square" stroke-linejoin="bevel" transform="matrix(1,0,0,1,0,0)"
font-family="Inter" font-size="11" font-weight="700" font-style="normal" 
>
</g>

<g fill="#ffb515" fill-opacity="1" stroke="#d89400" stroke-opacity="1" stroke-width="1.2" stroke-linecap="square" stroke-linejoin="bevel" transform="matrix(1,0,0,1,81,4)"
font-family="Inter" font-size="11" font-weight="700" font-style="normal" 
>
<path vector-effect="none" fill-rule="evenodd" d="M0.5,3.5 C0.5,1.84315 1.84315,0.5 3.5,0.5 L72.5,0.5 C74.1569,0.5 75.5,1.84315 75.5,3.5 L75.5,20.5 C75.5,22.1569 74.1569,23.5 72.5,23.5 L3.5,23.5 C1.84315,23.5 0.5,22.1569 0.5,20.5 L0.5,3.5"/>
</g>

<g fill="#ffffff" fill-opacity="1" stroke="none" transform="matrix(1,0,0,1,81,4)"
font-family="Inter" font-size="11" font-weight="700" font-style="normal" 
>
<path vector-effect="none" fill-rule="nonzero" d="M10.0078,7.9375 L12.0938,7.9375 L14.2969,13.3125 L14.3906,13.3125 L16.5938,7.9375 L18.6797,7.9375 L18.6797,15.9375 L17.0391,15.9375 L17.0391,10.7305 L16.9727,10.7305 L14.9023,15.8984 L13.7852,15.8984 L11.7148,10.7109 L11.6484,10.7109 L11.6484,15.9375 L10.0078,15.9375 L10.0078,7.9375 M20.0703,15.9375 L20.0703,7.9375 L21.7617,7.9375 L21.7617,11.4648 L21.8672,11.4648 L24.7461,7.9375 L26.7734,7.9375 L23.8047,11.5195 L26.8086,15.9375 L24.7852,15.9375 L22.5938,12.6484 L21.7617,13.6641 L21.7617,15.9375 L20.0703,15.9375 M30.6719,16.0469 C30.2604,16.0443 29.8639,15.9753 29.4824,15.8398 C29.1009,15.7044 28.7591,15.4844 28.457,15.1797 C28.1549,14.875 27.916,14.4714 27.7402,13.9688 C27.5645,13.4661 27.4766,12.849 27.4766,12.1172 C27.4792,11.4453 27.5566,10.8444 27.709,10.3145 C27.8613,9.78451 28.0801,9.33464 28.3652,8.96484 C28.6504,8.59505 28.9922,8.31315 29.3906,8.11914 C29.7891,7.92513 30.2357,7.82813 30.7305,7.82813 C31.2643,7.82813 31.7357,7.93164 32.1445,8.13867 C32.5534,8.3457 32.8822,8.6263 33.1309,8.98047 C33.3796,9.33464 33.5299,9.73177 33.582,10.1719 L31.9141,10.1719 C31.849,9.89323 31.7122,9.67448 31.5039,9.51563 C31.2956,9.35677 31.0378,9.27734 30.7305,9.27734 C30.2096,9.27734 29.8145,9.50391 29.5449,9.95703 C29.2754,10.4102 29.138,11.026 29.1328,11.8047 L29.1875,11.8047 C29.3073,11.5677 29.4694,11.3652 29.6738,11.1973 C29.8783,11.0293 30.1113,10.9004 30.373,10.8105 C30.6348,10.7207 30.9115,10.6758 31.2031,10.6758 C31.6771,10.6758 32.099,10.7871 32.4688,11.0098 C32.8385,11.2324 33.1302,11.5378 33.3438,11.9258 C33.5573,12.3138 33.6641,12.7578 33.6641,13.2578 C33.6641,13.7995 33.5384,14.2813 33.2871,14.7031 C33.0358,15.125 32.6855,15.4551 32.2363,15.6934 C31.7871,15.9316 31.2656,16.0495 30.6719,16.0469 M30.6641,14.7188 C30.9245,14.7188 31.1576,14.6563 31.3633,14.5313 C31.569,14.4063 31.7305,14.237 31.8477,14.0234 C31.9648,13.8099 32.0234,13.5703 32.0234,13.3047 C32.0234,13.0391 31.9655,12.8008 31.8496,12.5898 C31.7337,12.3789 31.5742,12.2109 31.3711,12.0859 C31.168,11.9609 30.9362,11.8984 30.6758,11.8984 C30.4805,11.8984 30.3001,11.9349 30.1348,12.0078 C29.9694,12.0807 29.8249,12.1823 29.7012,12.3125 C29.5775,12.4427 29.4805,12.5931 29.4102,12.7637 C29.3398,12.9342 29.3047,13.1159 29.3047,13.3086 C29.3047,13.5664 29.3639,13.8021 29.4824,14.0156 C29.6009,14.2292 29.7624,14.3997 29.9668,14.5273 C30.1712,14.6549 30.4036,14.7188 30.6641,14.7188 M34.8984,15.9375 L34.8984,7.9375 L36.5898,7.9375 L36.5898,11.2383 L40.0234,11.2383 L40.0234,7.9375 L41.7109,7.9375 L41.7109,15.9375 L40.0234,15.9375 L40.0234,12.6328 L36.5898,12.6328 L36.5898,15.9375 L34.8984,15.9375 M43.1016,15.9375 L43.1016,7.9375 L46.3047,7.9375 C46.8932,7.9375 47.3841,8.02474 47.7773,8.19922 C48.1706,8.3737 48.4661,8.61523 48.6641,8.92383 C48.862,9.23242 48.9609,9.58724 48.9609,9.98828 C48.9609,10.3008 48.8984,10.5749 48.7734,10.8105 C48.6484,11.0462 48.4772,11.2389 48.2598,11.3887 C48.0423,11.5384 47.7943,11.6445 47.5156,11.707 L47.5156,11.7852 C47.8203,11.7982 48.1061,11.8841 48.373,12.043 C48.64,12.2018 48.8568,12.4238 49.0234,12.709 C49.1901,12.9941 49.2734,13.3333 49.2734,13.7266 C49.2734,14.151 49.1686,14.5293 48.959,14.8613 C48.7493,15.1934 48.4401,15.4557 48.0313,15.6484 C47.6224,15.8411 47.1185,15.9375 46.5195,15.9375 L43.1016,15.9375 M44.793,14.5547 L46.1719,14.5547 C46.6432,14.5547 46.987,14.4642 47.2031,14.2832 C47.4193,14.1022 47.5273,13.8607 47.5273,13.5586 C47.5273,13.3372 47.474,13.1419 47.3672,12.9727 C47.2604,12.8034 47.1087,12.6706 46.9121,12.5742 C46.7155,12.4779 46.4818,12.4297 46.2109,12.4297 L44.793,12.4297 L44.793,14.5547 M44.793,11.2852 L46.0469,11.2852 C46.2786,11.2852 46.485,11.2441 46.666,11.1621 C46.847,11.0801 46.9902,10.9635 47.0957,10.8125 C47.2012,10.6615 47.2539,10.4805 47.2539,10.2695 C47.2539,9.98047 47.1517,9.7474 46.9473,9.57031 C46.7428,9.39323 46.4531,9.30469 46.0781,9.30469 L44.793,9.30469 L44.793,11.2852 M53.8008,7.9375 L53.8008,15.9375 L52.1094,15.9375 L52.1094,9.54297 L52.0625,9.54297 L50.2305,10.6914 L50.2305,9.19141 L52.2109,7.9375 L53.8008,7.9375"/>
</g>

<g fill="#ffffff" fill-opacity="1" stroke="none" transform="matrix(0.03125,0,0,0.03125,143,12)"
font-family="Inter" font-size="11" font-weight="700" font-style="normal" 
>
<path vector-effect="none" fill-rule="nonzero" d="M111.326,191.938 C120.545,201.158 135.517,201.158 144.737,191.938 L239.144,97.5313 C245.929,90.7458 247.921,80.6413 244.233,71.7907 C240.545,62.9401 231.989,57.1871 222.401,57.1871 L33.5875,57.2608 C24.0731,57.2608 15.4437,63.0137 11.7559,71.8644 C8.06815,80.715 10.1333,90.8195 16.845,97.605 L111.252,192.012 L111.326,191.938"/>
</g>

<g fill="none" stroke="#000000" stroke-opacity="1" stroke-width="13.7195" stroke-linecap="butt" stroke-linejoin="miter" stroke-miterlimit="4" transform="matrix(0.03125,0,0,0.03125,143,12)"
font-family="Inter" font-size="11" font-weight="700" font-style="normal" 
>
<path vector-effect="none" fill-rule="nonzero" d="M111.326,191.938 C120.545,201.158 135.517,201.158 144.737,191.938 L239.144,97.5313 C245.929,90.7458 247.921,80.6413 244.233,71.7907 C240.545,62.9401 231.989,57.1871 222.401,57.1871 L33.5875,57.2608 C24.0731,57.2608 15.4437,63.0137 11.7559,71.8644 C8.06815,80.715 10.1333,90.8195 16.845,97.605 L111.252,192.012 L111.326,191.938"/>
</g>

<g fill="#ffffff" fill-opacity="1" stroke="none" transform="matrix(1,0,0,1,81,4)"
font-family="Inter" font-size="11" font-weight="700" font-style="normal" 
>
</g>

<g fill="#ffffff" fill-opacity="1" stroke="#d89400" stroke-opacity="1" stroke-width="1" stroke-linecap="square" stroke-linejoin="bevel" transform="matrix(1,0,0,1,0,0)"
font-family="Inter" font-size="11" font-weight="700" font-style="normal" 
>
</g>

<g fill="none" stroke="#000000" stroke-opacity="1" stroke-width="1" stroke-linecap="square" stroke-linejoin="bevel" transform="matrix(1,0,0,1,0,0)"
font-family=".AppleSystemUIFont" font-size="13" font-weight="400" font-style="normal" 
>
</g>
</g>
</svg>
