<?xml version="1.0" encoding="UTF-8" standalone="no"?>
<svg width="100.542mm" height="21.1667mm"
 viewBox="0 0 285 60"
 xmlns="http://www.w3.org/2000/svg" xmlns:xlink="http://www.w3.org/1999/xlink" version="1.2" baseProfile="tiny">
<title>Abstract block</title>
<desc>block_dashboard_controller_button_event</desc>
<defs>
</defs>
<g fill="none" stroke="black" stroke-width="1" fill-rule="evenodd" stroke-linecap="square" stroke-linejoin="bevel" >

<g fill="none" stroke="#000000" stroke-opacity="1" stroke-width="1" stroke-linecap="square" stroke-linejoin="bevel" transform="matrix(1,0,0,1,0,0)"
font-family=".AppleSystemUIFont" font-size="13" font-weight="400" font-style="normal" 
>
</g>

<g fill="none" stroke="#000000" stroke-opacity="1" stroke-width="1" stroke-linecap="square" stroke-linejoin="bevel" transform="matrix(1,0,0,1,0,0)"
font-family=".AppleSystemUIFont" font-size="13" font-weight="400" font-style="normal" 
>
</g>

<g fill="#009f94" fill-opacity="1" stroke="#00645c" stroke-opacity="1" stroke-width="1.2" stroke-linecap="square" stroke-linejoin="bevel" transform="matrix(1,0,0,1,0,0)"
font-family=".AppleSystemUIFont" font-size="13" font-weight="400" font-style="normal" 
>
<path vector-effect="none" fill-rule="evenodd" d="M0.5,20.5 L1,18.6516 L1,18 L1.77836,17.1565 L2.58892,16.3401 L3.43062,15.551 L4.30242,14.7891 L5.20325,14.0544 L6.13206,13.3469 L7.08779,12.6667 L8.06939,12.0136 L9.0758,11.3878 L10.106,10.7891 L11.1588,10.2177 L12.2333,9.67347 L13.3284,9.15646 L14.4431,8.66667 L15.5762,8.20408 L16.7267,7.76871 L17.8936,7.36054 L19.0758,6.97959 L20.2723,6.62585 L21.4819,6.29932 L22.7037,6 L23.9366,5.72789 L25.1795,5.48299 L26.4314,5.26531 L27.6912,5.07483 L28.9578,4.91156 L30.2303,4.77551 L31.5075,4.66667 L32.7885,4.58503 L34.072,4.53061 L35.3572,4.5034 L36.6428,4.5034 L37.928,4.53061 L39.2115,4.58503 L40.4925,4.66667 L41.7697,4.77551 L43.0422,4.91156 L44.3088,5.07483 L45.5686,5.26531 L46.8205,5.48299 L48.0634,5.72789 L49.2963,6 L50.5181,6.29932 L51.7277,6.62585 L52.9242,6.97959 L54.1064,7.36054 L55.2733,7.76871 L56.4238,8.20408 L57.5569,8.66667 L58.6716,9.15646 L59.7667,9.67347 L60.8412,10.2177 L61.894,10.7891 L62.9242,11.3878 L63.9306,12.0136 L64.9122,12.6667 L65.8679,13.3469 L66.7968,14.0544 L67.6976,14.7891 L68.5694,15.551 L69.4111,16.3401 L69.5698,16.5 L280.5,16.5 L282.519,17.0461 L283.954,18.4811 L284.5,20.5 L284.5,47.5 L283.954,49.5189 L282.519,50.9539 L280.5,51.5 L34.375,51.5 L33.584,51.9766 L32.8281,52.6875 L32.002,53.6797 L31,55 L30.2441,55.6602 L29.4531,56.1563 L28.5918,56.5117 L27.625,56.75 L26.5176,56.8945 L25.2344,56.9688 L23.7402,56.9961 L22,57 L20.2598,56.9961 L18.7656,56.9688 L17.4824,56.8945 L16.375,56.75 L15.4082,56.5117 L14.5469,56.1563 L13.7559,55.6602 L13,55 L11.998,53.6797 L11.1719,52.6875 L10.416,51.9766 L9.625,51.5 L4.5,51.5 L2.48112,50.9539 L1.04612,49.5189 L0.5,47.5 L0.5,20.5"/>
</g>

<g fill="#ffffff" fill-opacity="1" stroke="none" transform="matrix(1,0,0,1,0,0)"
font-family="Inter" font-size="11" font-weight="700" font-style="normal" 
>
<path vector-effect="none" fill-rule="nonzero" d="M53.4727,37.7344 L51.8398,31.7344 L53.5234,31.7344 L54.4531,35.7656 L54.5078,35.7656 L55.4766,31.7344 L57.1289,31.7344 L58.1133,35.7422 L58.1641,35.7422 L59.0781,31.7344 L60.7578,31.7344 L59.1289,37.7344 L57.3672,37.7344 L56.3359,33.9609 L56.2617,33.9609 L55.2305,37.7344 L53.4727,37.7344 M63.2969,34.2656 L63.2969,37.7344 L61.6328,37.7344 L61.6328,29.7344 L63.25,29.7344 L63.25,32.793 L63.3203,32.793 C63.4557,32.4388 63.6745,32.1608 63.9766,31.959 C64.2786,31.7572 64.6576,31.6563 65.1133,31.6563 C65.5299,31.6563 65.8939,31.7467 66.2051,31.9277 C66.5163,32.1087 66.7585,32.3678 66.9316,32.7051 C67.1048,33.0423 67.1901,33.4453 67.1875,33.9141 L67.1875,37.7344 L65.5234,37.7344 L65.5234,34.2109 C65.526,33.8411 65.4329,33.5534 65.2441,33.3477 C65.0553,33.1419 64.7917,33.0391 64.4531,33.0391 C64.2266,33.0391 64.0267,33.0872 63.8535,33.1836 C63.6803,33.2799 63.5449,33.4199 63.4473,33.6035 C63.3496,33.7871 63.2995,34.0078 63.2969,34.2656 M71.2266,37.8516 C70.6094,37.8516 70.0788,37.7259 69.6348,37.4746 C69.1908,37.2233 68.849,36.8665 68.6094,36.4043 C68.3698,35.9421 68.25,35.3945 68.25,34.7617 C68.25,34.1445 68.3698,33.6029 68.6094,33.1367 C68.849,32.6706 69.1868,32.3073 69.623,32.0469 C70.0592,31.7865 70.5716,31.6563 71.1602,31.6563 C71.556,31.6563 71.9251,31.7194 72.2676,31.8457 C72.61,31.972 72.9095,32.1615 73.166,32.4141 C73.4225,32.6667 73.6224,32.9837 73.7656,33.3652 C73.9089,33.7467 73.9805,34.1927 73.9805,34.7031 L73.9805,35.1602 L68.9141,35.1602 L68.9141,34.1289 L72.4141,34.1289 C72.4141,33.8893 72.362,33.6771 72.2578,33.4922 C72.1536,33.3073 72.0098,33.1621 71.8262,33.0566 C71.6426,32.9512 71.4297,32.8984 71.1875,32.8984 C70.9349,32.8984 70.7116,32.9564 70.5176,33.0723 C70.3236,33.1882 70.1719,33.3431 70.0625,33.5371 C69.9531,33.7311 69.8971,33.9466 69.8945,34.1836 L69.8945,35.1641 C69.8945,35.4609 69.9499,35.7174 70.0605,35.9336 C70.1712,36.1497 70.3281,36.3164 70.5313,36.4336 C70.7344,36.5508 70.9753,36.6094 71.2539,36.6094 C71.4388,36.6094 71.6081,36.5833 71.7617,36.5313 C71.9154,36.4792 72.0469,36.401 72.1563,36.2969 C72.2656,36.1927 72.349,36.0651 72.4063,35.9141 L73.9453,36.0156 C73.8672,36.3854 73.7077,36.7077 73.4668,36.9824 C73.2259,37.2572 72.916,37.4707 72.5371,37.623 C72.1582,37.7754 71.7214,37.8516 71.2266,37.8516 M76.7188,34.2656 L76.7188,37.7344 L75.0547,37.7344 L75.0547,31.7344 L76.6406,31.7344 L76.6406,32.793 L76.7109,32.793 C76.8438,32.444 77.0664,32.1673 77.3789,31.9629 C77.6914,31.7585 78.0703,31.6563 78.5156,31.6563 C78.9323,31.6563 79.2956,31.7474 79.6055,31.9297 C79.9154,32.112 80.1563,32.3717 80.3281,32.709 C80.5,33.0462 80.5859,33.4479 80.5859,33.9141 L80.5859,37.7344 L78.9219,37.7344 L78.9219,34.2109 C78.9245,33.8438 78.8307,33.5566 78.6406,33.3496 C78.4505,33.1426 78.1888,33.0391 77.8555,33.0391 C77.6315,33.0391 77.4342,33.0872 77.2637,33.1836 C77.0931,33.2799 76.9603,33.4199 76.8652,33.6035 C76.7702,33.7871 76.7214,34.0078 76.7188,34.2656 M84.4609,37.7344 L84.4609,29.7344 L86.125,29.7344 L86.125,32.7422 L86.1758,32.7422 C86.2487,32.5807 86.3548,32.416 86.4941,32.248 C86.6335,32.0801 86.8158,31.9395 87.041,31.8262 C87.2663,31.7129 87.5469,31.6563 87.8828,31.6563 C88.3203,31.6563 88.724,31.7702 89.0938,31.998 C89.4635,32.2259 89.7591,32.5684 89.9805,33.0254 C90.2018,33.4824 90.3125,34.0547 90.3125,34.7422 C90.3125,35.4115 90.2051,35.9759 89.9902,36.4355 C89.7754,36.8952 89.4837,37.2428 89.1152,37.4785 C88.7467,37.7142 88.3346,37.832 87.8789,37.832 C87.556,37.832 87.2819,37.7786 87.0566,37.6719 C86.8314,37.5651 86.6471,37.4303 86.5039,37.2676 C86.3607,37.1048 86.2513,36.9401 86.1758,36.7734 L86.1016,36.7734 L86.1016,37.7344 L84.4609,37.7344 M86.0898,34.7344 C86.0898,35.0911 86.1393,35.4023 86.2383,35.668 C86.3372,35.9336 86.4805,36.14 86.668,36.2871 C86.8555,36.4342 87.0833,36.5078 87.3516,36.5078 C87.6224,36.5078 87.8516,36.4329 88.0391,36.2832 C88.2266,36.1335 88.3691,35.9251 88.4668,35.6582 C88.5645,35.3913 88.6133,35.0833 88.6133,34.7344 C88.6133,34.388 88.5651,34.0833 88.4688,33.8203 C88.3724,33.5573 88.2305,33.3516 88.043,33.2031 C87.8555,33.0547 87.625,32.9805 87.3516,32.9805 C87.0807,32.9805 86.8522,33.0521 86.666,33.1953 C86.4798,33.3385 86.3372,33.5417 86.2383,33.8047 C86.1393,34.0677 86.0898,34.3776 86.0898,34.7344 M95.2617,35.1797 L95.2617,31.7344 L96.9258,31.7344 L96.9258,37.7344 L95.3281,37.7344 L95.3281,36.6445 L95.2656,36.6445 C95.1302,36.9961 94.9056,37.2786 94.5918,37.4922 C94.278,37.7057 93.8958,37.8125 93.4453,37.8125 C93.0443,37.8125 92.6914,37.7214 92.3867,37.5391 C92.082,37.3568 91.8444,37.0977 91.6738,36.7617 C91.5033,36.4258 91.4167,36.0234 91.4141,35.5547 L91.4141,31.7344 L93.0781,31.7344 L93.0781,35.2578 C93.0807,35.612 93.1758,35.8919 93.3633,36.0977 C93.5508,36.3034 93.8021,36.4063 94.1172,36.4063 C94.3177,36.4063 94.5052,36.36 94.6797,36.2676 C94.8542,36.1751 94.9954,36.0378 95.1035,35.8555 C95.2116,35.6732 95.2643,35.4479 95.2617,35.1797 M101.434,31.7344 L101.434,32.9844 L97.8203,32.9844 L97.8203,31.7344 L101.434,31.7344 M98.6406,30.2969 L100.305,30.2969 L100.305,35.8906 C100.305,36.0443 100.328,36.1634 100.375,36.248 C100.422,36.3327 100.488,36.3919 100.572,36.4258 C100.657,36.4596 100.755,36.4766 100.867,36.4766 C100.945,36.4766 101.023,36.4694 101.102,36.4551 C101.18,36.4408 101.24,36.4297 101.281,36.4219 L101.543,37.6602 C101.46,37.6862 101.342,37.7168 101.191,37.752 C101.04,37.7871 100.857,37.8086 100.641,37.8164 C100.24,37.832 99.8887,37.7786 99.5879,37.6563 C99.2871,37.5339 99.0534,37.3438 98.8867,37.0859 C98.7201,36.8281 98.638,36.5026 98.6406,36.1094 L98.6406,30.2969 M105.699,31.7344 L105.699,32.9844 L102.086,32.9844 L102.086,31.7344 L105.699,31.7344 M102.906,30.2969 L104.57,30.2969 L104.57,35.8906 C104.57,36.0443 104.594,36.1634 104.641,36.248 C104.688,36.3327 104.753,36.3919 104.838,36.4258 C104.923,36.4596 105.021,36.4766 105.133,36.4766 C105.211,36.4766 105.289,36.4694 105.367,36.4551 C105.445,36.4408 105.505,36.4297 105.547,36.4219 L105.809,37.6602 C105.725,37.6862 105.608,37.7168 105.457,37.752 C105.306,37.7871 105.122,37.8086 104.906,37.8164 C104.505,37.832 104.154,37.7786 103.854,37.6563 C103.553,37.5339 103.319,37.3438 103.152,37.0859 C102.986,36.8281 102.904,36.5026 102.906,36.1094 L102.906,30.2969 M109.422,37.8516 C108.815,37.8516 108.291,37.722 107.85,37.4629 C107.408,37.2038 107.068,36.8418 106.828,36.377 C106.589,35.9121 106.469,35.3724 106.469,34.7578 C106.469,34.138 106.589,33.5957 106.828,33.1309 C107.068,32.666 107.408,32.304 107.85,32.0449 C108.291,31.7858 108.815,31.6563 109.422,31.6563 C110.029,31.6563 110.553,31.7858 110.994,32.0449 C111.436,32.304 111.776,32.666 112.016,33.1309 C112.255,33.5957 112.375,34.138 112.375,34.7578 C112.375,35.3724 112.255,35.9121 112.016,36.377 C111.776,36.8418 111.436,37.2038 110.994,37.4629 C110.553,37.722 110.029,37.8516 109.422,37.8516 M109.43,36.5625 C109.706,36.5625 109.936,36.4837 110.121,36.3262 C110.306,36.1686 110.446,35.9531 110.541,35.6797 C110.636,35.4063 110.684,35.0951 110.684,34.7461 C110.684,34.3971 110.636,34.0859 110.541,33.8125 C110.446,33.5391 110.306,33.3229 110.121,33.1641 C109.936,33.0052 109.706,32.9258 109.43,32.9258 C109.151,32.9258 108.917,33.0052 108.729,33.1641 C108.54,33.3229 108.398,33.5391 108.303,33.8125 C108.208,34.0859 108.16,34.3971 108.16,34.7461 C108.16,35.0951 108.208,35.4063 108.303,35.6797 C108.398,35.9531 108.54,36.1686 108.729,36.3262 C108.917,36.4837 109.151,36.5625 109.43,36.5625 M115.125,34.2656 L115.125,37.7344 L113.461,37.7344 L113.461,31.7344 L115.047,31.7344 L115.047,32.793 L115.117,32.793 C115.25,32.444 115.473,32.1673 115.785,31.9629 C116.098,31.7585 116.477,31.6563 116.922,31.6563 C117.339,31.6563 117.702,31.7474 118.012,31.9297 C118.322,32.112 118.563,32.3717 118.734,32.709 C118.906,33.0462 118.992,33.4479 118.992,33.9141 L118.992,37.7344 L117.328,37.7344 L117.328,34.2109 C117.331,33.8438 117.237,33.5566 117.047,33.3496 C116.857,33.1426 116.595,33.0391 116.262,33.0391 C116.038,33.0391 115.84,33.0872 115.67,33.1836 C115.499,33.2799 115.367,33.4199 115.271,33.6035 C115.176,33.7871 115.128,34.0078 115.125,34.2656 "/>
</g>

<g fill="#ffffff" fill-opacity="1" stroke="none" transform="matrix(1,0,0,1,0,0)"
font-family="Inter" font-size="11" font-weight="700" font-style="normal" 
>
<path vector-effect="none" fill-rule="nonzero" d="M190.164,38 L190.164,32 L191.828,32 L191.828,38 L190.164,38 M191,31.2266 C190.753,31.2266 190.541,31.1439 190.365,30.9785 C190.189,30.8132 190.102,30.6146 190.102,30.3828 C190.102,30.1536 190.189,29.9564 190.365,29.791 C190.541,29.6257 190.753,29.543 191,29.543 C191.247,29.543 191.459,29.6257 191.635,29.791 C191.811,29.9564 191.898,30.1536 191.898,30.3828 C191.898,30.6146 191.811,30.8132 191.635,30.9785 C191.459,31.1439 191.247,31.2266 191,31.2266 M198.141,33.7109 L196.617,33.8047 C196.591,33.6745 196.535,33.5566 196.449,33.4512 C196.363,33.3457 196.251,33.2611 196.111,33.1973 C195.972,33.1335 195.806,33.1016 195.613,33.1016 C195.355,33.1016 195.138,33.1556 194.961,33.2637 C194.784,33.3717 194.695,33.5156 194.695,33.6953 C194.695,33.8385 194.753,33.9596 194.867,34.0586 C194.982,34.1576 195.178,34.237 195.457,34.2969 L196.543,34.5156 C197.126,34.6354 197.561,34.8281 197.848,35.0938 C198.134,35.3594 198.277,35.7083 198.277,36.1406 C198.277,36.5339 198.162,36.8789 197.932,37.1758 C197.701,37.4727 197.386,37.7038 196.986,37.8691 C196.587,38.0345 196.126,38.1172 195.605,38.1172 C194.811,38.1172 194.179,37.9512 193.709,37.6191 C193.239,37.2871 192.964,36.8346 192.883,36.2617 L194.52,36.1758 C194.569,36.418 194.689,36.6022 194.879,36.7285 C195.069,36.8548 195.313,36.918 195.609,36.918 C195.901,36.918 196.136,36.8613 196.314,36.748 C196.493,36.6348 196.583,36.4883 196.586,36.3086 C196.583,36.1576 196.52,36.0332 196.395,35.9355 C196.27,35.8379 196.077,35.763 195.816,35.7109 L194.777,35.5039 C194.191,35.3867 193.756,35.1836 193.471,34.8945 C193.186,34.6055 193.043,34.237 193.043,33.7891 C193.043,33.4036 193.148,33.0716 193.357,32.793 C193.567,32.5143 193.863,32.2995 194.244,32.1484 C194.626,31.9974 195.073,31.9219 195.586,31.9219 C196.344,31.9219 196.941,32.082 197.377,32.4023 C197.813,32.7227 198.068,33.1589 198.141,33.7109 "/>
</g>

<g fill="#ffffff" fill-opacity="1" stroke="none" transform="matrix(0.95,0,0,0.95,11.6,25.6)"
font-family="Inter" font-size="11" font-weight="700" font-style="normal" 
>
<path vector-effect="none" fill-rule="nonzero" d="M2.19896,4.65234 C1.18891,4.65234 0.375703,5.46549 0.375703,6.47555 L0.375703,8.579 C1.00152,8.60331 1.67842,9.11362 1.67842,9.74561 L1.67842,14.2544 C1.67842,14.8864 1.00152,15.3967 0.375703,15.421 L0.375703,17.5245 C0.375703,18.5345 1.18891,19.3477 2.19896,19.3477 L21.8479,19.3477 C22.858,19.3477 23.6711,18.5345 23.6711,17.5245 L23.6711,6.47555 C23.6711,5.46549 22.858,4.65234 21.8479,4.65234 L2.19896,4.65234 M6.71936,9.23098 C8.56166,9.23097 10.0552,10.7245 10.0552,12.5668 C10.0552,14.4091 8.56167,15.9026 6.71936,15.9026 C4.87705,15.9026 3.38355,14.4091 3.38355,12.5668 C3.38355,10.7245 4.87705,9.23097 6.71936,9.23098 M19.875,9.24873 C20.7082,9.24871 21.3837,9.92418 21.3837,10.7574 C21.3837,11.5906 20.7082,12.266 19.875,12.266 C19.0418,12.266 18.3664,11.5906 18.3664,10.7574 C18.3664,9.9242 19.0418,9.24874 19.875,9.24873 M17.4318,12.8825 C18.265,12.8825 18.9404,13.558 18.9404,14.3912 C18.9404,15.2243 18.2649,15.8998 17.4318,15.8998 C16.5986,15.8998 15.9231,15.2244 15.9231,14.3912 C15.9231,13.5579 16.5985,12.8825 17.4318,12.8825 "/>
</g>

<g fill="none" stroke="#000000" stroke-opacity="1" stroke-width="0.54" stroke-linecap="butt" stroke-linejoin="miter" stroke-miterlimit="4" transform="matrix(0.95,0,0,0.95,11.6,25.6)"
font-family="Inter" font-size="11" font-weight="700" font-style="normal" 
>
<path vector-effect="none" fill-rule="nonzero" d="M2.19896,4.65234 C1.18891,4.65234 0.375703,5.46549 0.375703,6.47555 L0.375703,8.579 C1.00152,8.60331 1.67842,9.11362 1.67842,9.74561 L1.67842,14.2544 C1.67842,14.8864 1.00152,15.3967 0.375703,15.421 L0.375703,17.5245 C0.375703,18.5345 1.18891,19.3477 2.19896,19.3477 L21.8479,19.3477 C22.858,19.3477 23.6711,18.5345 23.6711,17.5245 L23.6711,6.47555 C23.6711,5.46549 22.858,4.65234 21.8479,4.65234 L2.19896,4.65234 M6.71936,9.23098 C8.56166,9.23097 10.0552,10.7245 10.0552,12.5668 C10.0552,14.4091 8.56167,15.9026 6.71936,15.9026 C4.87705,15.9026 3.38355,14.4091 3.38355,12.5668 C3.38355,10.7245 4.87705,9.23097 6.71936,9.23098 M19.875,9.24873 C20.7082,9.24871 21.3837,9.92418 21.3837,10.7574 C21.3837,11.5906 20.7082,12.266 19.875,12.266 C19.0418,12.266 18.3664,11.5906 18.3664,10.7574 C18.3664,9.9242 19.0418,9.24874 19.875,9.24873 M17.4318,12.8825 C18.265,12.8825 18.9404,13.558 18.9404,14.3912 C18.9404,15.2243 18.2649,15.8998 17.4318,15.8998 C16.5986,15.8998 15.9231,15.2244 15.9231,14.3912 C15.9231,13.5579 16.5985,12.8825 17.4318,12.8825 "/>
</g>

<g fill="#000000" fill-opacity="1" stroke="none" transform="matrix(0.95,0,0,0.95,11.6,25.6)"
font-family="Inter" font-size="11" font-weight="700" font-style="normal" 
>
<path vector-effect="none" fill-rule="nonzero" d="M0.108328,15.3227 L0.103298,8.65983 L1.21825,8.7259 L1.75102,9.37791 L1.70662,12.9064 L1.66222,14.5556 L1.04066,15.0542 L0.108328,15.3227"/>
</g>

<g fill="#000000" fill-opacity="1" stroke="none" transform="matrix(0.95,0,0,0.95,11.6,25.6)"
font-family="Inter" font-size="11" font-weight="700" font-style="normal" 
>
<circle cx="6.70111" cy="12.5452" r="1.68266"/>
</g>

<g fill="none" stroke="#000000" stroke-opacity="1" stroke-width="0.54" stroke-linecap="butt" stroke-linejoin="miter" stroke-miterlimit="4" transform="matrix(0.95,0,0,0.95,11.6,25.6)"
font-family="Inter" font-size="11" font-weight="700" font-style="normal" 
>
<circle cx="6.70111" cy="12.5452" r="1.68266"/>
</g>

<g fill="#000000" fill-opacity="1" stroke="none" transform="matrix(0.95,0,0,0.95,11.6,25.6)"
font-family="Inter" font-size="11" font-weight="700" font-style="normal" 
opacity="0.858824" >
<path vector-effect="none" fill-rule="evenodd" d="M8.42109,18.1373 C8.42109,18.0846 8.46385,18.0418 8.51661,18.0418 L15.4834,18.0418 C15.5361,18.0418 15.5789,18.0846 15.5789,18.1373 L15.5789,18.1373 C15.5789,18.1901 15.5361,18.2329 15.4834,18.2329 L8.51661,18.2329 C8.46385,18.2329 8.42109,18.1901 8.42109,18.1373 L8.42109,18.1373"/>
</g>

<g fill="none" stroke="#000000" stroke-opacity="1" stroke-width="0.437534" stroke-linecap="butt" stroke-linejoin="miter" stroke-miterlimit="4" transform="matrix(0.95,0,0,0.95,11.6,25.6)"
font-family="Inter" font-size="11" font-weight="700" font-style="normal" 
>
<path vector-effect="none" fill-rule="evenodd" d="M8.42109,18.1373 C8.42109,18.0846 8.46385,18.0418 8.51661,18.0418 L15.4834,18.0418 C15.5361,18.0418 15.5789,18.0846 15.5789,18.1373 L15.5789,18.1373 C15.5789,18.1901 15.5361,18.2329 15.4834,18.2329 L8.51661,18.2329 C8.46385,18.2329 8.42109,18.1901 8.42109,18.1373 L8.42109,18.1373"/>
</g>

<g fill="#ffffff" fill-opacity="1" stroke="none" transform="matrix(1,0,0,1,0,0)"
font-family="Inter" font-size="11" font-weight="700" font-style="normal" 
>
</g>

<g fill="#ffffff" fill-opacity="1" stroke="#00645c" stroke-opacity="1" stroke-width="1" stroke-linecap="square" stroke-linejoin="bevel" transform="matrix(1,0,0,1,0,0)"
font-family="Inter" font-size="11" font-weight="700" font-style="normal" 
>
<polyline fill="none" vector-effect="none" points="45,27 45,47 " />
</g>

<g fill="#009f94" fill-opacity="1" stroke="#00645c" stroke-opacity="1" stroke-width="1.2" stroke-linecap="square" stroke-linejoin="bevel" transform="matrix(1,0,0,1,125,22)"
font-family="Inter" font-size="11" font-weight="700" font-style="normal" 
>
<path vector-effect="none" fill-rule="evenodd" d="M0.5,3.5 C0.5,1.84315 1.84315,0.5 3.5,0.5 L55.5,0.5 C57.1569,0.5 58.5,1.84315 58.5,3.5 L58.5,20.5 C58.5,22.1569 57.1569,23.5 55.5,23.5 L3.5,23.5 C1.84315,23.5 0.5,22.1569 0.5,20.5 L0.5,3.5"/>
</g>

<g fill="#ffffff" fill-opacity="1" stroke="none" transform="matrix(1,0,0,1,125,22)"
font-family="Inter" font-size="11" font-weight="700" font-style="normal" 
>
<path vector-effect="none" fill-rule="nonzero" d="M10.0078,16 L10.0078,8 L13.2109,8 C13.7995,8 14.2904,8.08724 14.6836,8.26172 C15.0768,8.4362 15.3724,8.67773 15.5703,8.98633 C15.7682,9.29492 15.8672,9.64974 15.8672,10.0508 C15.8672,10.3633 15.8047,10.6374 15.6797,10.873 C15.5547,11.1087 15.3835,11.3014 15.166,11.4512 C14.9486,11.6009 14.7005,11.707 14.4219,11.7695 L14.4219,11.8477 C14.7266,11.8607 15.0124,11.9466 15.2793,12.1055 C15.5462,12.2643 15.763,12.4863 15.9297,12.7715 C16.0964,13.0566 16.1797,13.3958 16.1797,13.7891 C16.1797,14.2135 16.0749,14.5918 15.8652,14.9238 C15.6556,15.2559 15.3464,15.5182 14.9375,15.7109 C14.5286,15.9036 14.0247,16 13.4258,16 L10.0078,16 M11.6992,14.6172 L13.0781,14.6172 C13.5495,14.6172 13.8932,14.5267 14.1094,14.3457 C14.3255,14.1647 14.4336,13.9232 14.4336,13.6211 C14.4336,13.3997 14.3802,13.2044 14.2734,13.0352 C14.1667,12.8659 14.015,12.7331 13.8184,12.6367 C13.6217,12.5404 13.388,12.4922 13.1172,12.4922 L11.6992,12.4922 L11.6992,14.6172 M11.6992,11.3477 L12.9531,11.3477 C13.1849,11.3477 13.3913,11.3066 13.5723,11.2246 C13.7533,11.1426 13.8965,11.026 14.002,10.875 C14.1074,10.724 14.1602,10.543 14.1602,10.332 C14.1602,10.043 14.0579,9.8099 13.8535,9.63281 C13.6491,9.45573 13.3594,9.36719 12.9844,9.36719 L11.6992,9.36719 L11.6992,11.3477 M16.9688,9.39453 L16.9688,8 L23.5391,8 L23.5391,9.39453 L21.0898,9.39453 L21.0898,16 L19.418,16 L19.418,9.39453 L16.9688,9.39453 M31.3086,8 L31.3086,16 L29.8477,16 L26.3672,10.9648 L26.3086,10.9648 L26.3086,16 L24.6172,16 L24.6172,8 L26.1016,8 L29.5547,13.0313 L29.625,13.0313 L29.625,8 L31.3086,8 M36.1289,8 L36.1289,16 L34.4375,16 L34.4375,9.60547 L34.3906,9.60547 L32.5586,10.7539 L32.5586,9.25391 L34.5391,8 L36.1289,8"/>
</g>

<g fill="#ffffff" fill-opacity="1" stroke="none" transform="matrix(0.03125,0,0,0.03125,170,30)"
font-family="Inter" font-size="11" font-weight="700" font-style="normal" 
>
<path vector-effect="none" fill-rule="nonzero" d="M111.326,191.938 C120.545,201.158 135.517,201.158 144.737,191.938 L239.144,97.5313 C245.929,90.7458 247.921,80.6413 244.233,71.7907 C240.545,62.9401 231.989,57.1871 222.401,57.1871 L33.5875,57.2608 C24.0731,57.2608 15.4437,63.0137 11.7559,71.8644 C8.06815,80.715 10.1333,90.8195 16.845,97.605 L111.252,192.012 L111.326,191.938"/>
</g>

<g fill="none" stroke="#000000" stroke-opacity="1" stroke-width="13.7195" stroke-linecap="butt" stroke-linejoin="miter" stroke-miterlimit="4" transform="matrix(0.03125,0,0,0.03125,170,30)"
font-family="Inter" font-size="11" font-weight="700" font-style="normal" 
>
<path vector-effect="none" fill-rule="nonzero" d="M111.326,191.938 C120.545,201.158 135.517,201.158 144.737,191.938 L239.144,97.5313 C245.929,90.7458 247.921,80.6413 244.233,71.7907 C240.545,62.9401 231.989,57.1871 222.401,57.1871 L33.5875,57.2608 C24.0731,57.2608 15.4437,63.0137 11.7559,71.8644 C8.06815,80.715 10.1333,90.8195 16.845,97.605 L111.252,192.012 L111.326,191.938"/>
</g>

<g fill="#ffffff" fill-opacity="1" stroke="none" transform="matrix(1,0,0,1,125,22)"
font-family="Inter" font-size="11" font-weight="700" font-style="normal" 
>
</g>

<g fill="#ffffff" fill-opacity="1" stroke="#00645c" stroke-opacity="1" stroke-width="1" stroke-linecap="square" stroke-linejoin="bevel" transform="matrix(1,0,0,1,0,0)"
font-family="Inter" font-size="11" font-weight="700" font-style="normal" 
>
</g>

<g fill="#ffffff" fill-opacity="1" stroke="#00645c" stroke-opacity="1" stroke-width="1" stroke-linecap="square" stroke-linejoin="bevel" transform="matrix(1,0,0,1,0,0)"
font-family="Inter" font-size="11" font-weight="700" font-style="normal" 
>
</g>

<g fill="#009f94" fill-opacity="1" stroke="#00645c" stroke-opacity="1" stroke-width="1.2" stroke-linecap="square" stroke-linejoin="bevel" transform="matrix(1,0,0,1,205,22)"
font-family="Inter" font-size="11" font-weight="700" font-style="normal" 
>
<path vector-effect="none" fill-rule="evenodd" d="M0.5,3.5 C0.5,1.84315 1.84315,0.5 3.5,0.5 L70.5,0.5 C72.1569,0.5 73.5,1.84315 73.5,3.5 L73.5,20.5 C73.5,22.1569 72.1569,23.5 70.5,23.5 L3.5,23.5 C1.84315,23.5 0.5,22.1569 0.5,20.5 L0.5,3.5"/>
</g>

<g fill="#ffffff" fill-opacity="1" stroke="none" transform="matrix(1,0,0,1,205,22)"
font-family="Inter" font-size="11" font-weight="700" font-style="normal" 
>
<path vector-effect="none" fill-rule="nonzero" d="M9.00781,17.0781 L9.00781,8.82813 L10.6484,8.82813 L10.6484,9.83594 L10.7227,9.83594 C10.7956,9.67448 10.9017,9.50977 11.041,9.3418 C11.1803,9.17383 11.3626,9.0332 11.5879,8.91992 C11.8132,8.80664 12.0938,8.75 12.4297,8.75 C12.8672,8.75 13.2708,8.86393 13.6406,9.0918 C14.0104,9.31966 14.306,9.66211 14.5273,10.1191 C14.7487,10.5762 14.8594,11.1484 14.8594,11.8359 C14.8594,12.5052 14.752,13.0697 14.5371,13.5293 C14.3223,13.9889 14.0306,14.3366 13.6621,14.5723 C13.2936,14.8079 12.8815,14.9258 12.4258,14.9258 C12.1029,14.9258 11.8288,14.8724 11.6035,14.7656 C11.3783,14.6589 11.194,14.5241 11.0508,14.3613 C10.9076,14.1986 10.7982,14.0339 10.7227,13.8672 L10.6719,13.8672 L10.6719,17.0781 L9.00781,17.0781 M10.6367,11.8281 C10.6367,12.1849 10.6862,12.4961 10.7852,12.7617 C10.8841,13.0273 11.0273,13.2337 11.2148,13.3809 C11.4023,13.528 11.6302,13.6016 11.8984,13.6016 C12.1693,13.6016 12.3984,13.5267 12.5859,13.377 C12.7734,13.2272 12.916,13.0189 13.0137,12.752 C13.1113,12.485 13.1602,12.1771 13.1602,11.8281 C13.1602,11.4818 13.112,11.1771 13.0156,10.9141 C12.9193,10.651 12.7773,10.4453 12.5898,10.2969 C12.4023,10.1484 12.1719,10.0742 11.8984,10.0742 C11.6276,10.0742 11.3991,10.1458 11.2129,10.2891 C11.0267,10.4323 10.8841,10.6354 10.7852,10.8984 C10.6862,11.1615 10.6367,11.4714 10.6367,11.8281 M15.9609,14.8281 L15.9609,8.82813 L17.5742,8.82813 L17.5742,9.875 L17.6367,9.875 C17.7461,9.5026 17.9297,9.2207 18.1875,9.0293 C18.4453,8.83789 18.7422,8.74219 19.0781,8.74219 C19.1615,8.74219 19.2513,8.7474 19.3477,8.75781 C19.444,8.76823 19.5286,8.78255 19.6016,8.80078 L19.6016,10.2773 C19.5234,10.2539 19.4154,10.2331 19.2773,10.2148 C19.1393,10.1966 19.013,10.1875 18.8984,10.1875 C18.6536,10.1875 18.4355,10.2402 18.2441,10.3457 C18.0527,10.4512 17.9017,10.5977 17.791,10.7852 C17.6803,10.9727 17.625,11.1888 17.625,11.4336 L17.625,14.8281 L15.9609,14.8281 M22.8984,14.9453 C22.2813,14.9453 21.7507,14.8197 21.3066,14.5684 C20.8626,14.3171 20.5208,13.9603 20.2813,13.498 C20.0417,13.0358 19.9219,12.4883 19.9219,11.8555 C19.9219,11.2383 20.0417,10.6966 20.2813,10.2305 C20.5208,9.76432 20.8587,9.40104 21.2949,9.14063 C21.7311,8.88021 22.2435,8.75 22.832,8.75 C23.2279,8.75 23.597,8.81315 23.9395,8.93945 C24.2819,9.06576 24.5814,9.25521 24.8379,9.50781 C25.0944,9.76042 25.2943,10.0775 25.4375,10.459 C25.5807,10.8405 25.6523,11.2865 25.6523,11.7969 L25.6523,12.2539 L20.5859,12.2539 L20.5859,11.2227 L24.0859,11.2227 C24.0859,10.9831 24.0339,10.7708 23.9297,10.5859 C23.8255,10.401 23.6816,10.2559 23.498,10.1504 C23.3145,10.0449 23.1016,9.99219 22.8594,9.99219 C22.6068,9.99219 22.3835,10.0501 22.1895,10.166 C21.9954,10.2819 21.8438,10.4368 21.7344,10.6309 C21.625,10.8249 21.569,11.0404 21.5664,11.2773 L21.5664,12.2578 C21.5664,12.5547 21.6217,12.8112 21.7324,13.0273 C21.8431,13.2435 22,13.4102 22.2031,13.5273 C22.4063,13.6445 22.6471,13.7031 22.9258,13.7031 C23.1107,13.7031 23.2799,13.6771 23.4336,13.625 C23.5872,13.5729 23.7188,13.4948 23.8281,13.3906 C23.9375,13.2865 24.0208,13.1589 24.0781,13.0078 L25.6172,13.1094 C25.5391,13.4792 25.3796,13.8014 25.1387,14.0762 C24.8978,14.3509 24.5879,14.5645 24.209,14.7168 C23.8301,14.8691 23.3932,14.9453 22.8984,14.9453 M31.7188,10.5391 L30.1953,10.6328 C30.1693,10.5026 30.1133,10.3848 30.0273,10.2793 C29.9414,10.1738 29.8288,10.0892 29.6895,10.0254 C29.5501,9.96159 29.3841,9.92969 29.1914,9.92969 C28.9336,9.92969 28.7161,9.98372 28.5391,10.0918 C28.362,10.1999 28.2734,10.3438 28.2734,10.5234 C28.2734,10.6667 28.3307,10.7878 28.4453,10.8867 C28.5599,10.9857 28.7565,11.0651 29.0352,11.125 L30.1211,11.3438 C30.7044,11.4635 31.1393,11.6563 31.4258,11.9219 C31.7122,12.1875 31.8555,12.5365 31.8555,12.9688 C31.8555,13.362 31.7402,13.707 31.5098,14.0039 C31.2793,14.3008 30.9642,14.5319 30.5645,14.6973 C30.1647,14.8626 29.7044,14.9453 29.1836,14.9453 C28.3893,14.9453 27.7572,14.7793 27.2871,14.4473 C26.8171,14.1152 26.5417,13.6628 26.4609,13.0898 L28.0977,13.0039 C28.1471,13.2461 28.2669,13.4303 28.457,13.5566 C28.6471,13.6829 28.8906,13.7461 29.1875,13.7461 C29.4792,13.7461 29.7142,13.6895 29.8926,13.5762 C30.071,13.4629 30.1615,13.3164 30.1641,13.1367 C30.1615,12.9857 30.0977,12.8613 29.9727,12.7637 C29.8477,12.666 29.6549,12.5911 29.3945,12.5391 L28.3555,12.332 C27.7695,12.2148 27.334,12.0117 27.0488,11.7227 C26.7637,11.4336 26.6211,11.0651 26.6211,10.6172 C26.6211,10.2318 26.7259,9.89974 26.9355,9.62109 C27.1452,9.34245 27.4408,9.1276 27.8223,8.97656 C28.2038,8.82552 28.651,8.75 29.1641,8.75 C29.9219,8.75 30.5189,8.91016 30.9551,9.23047 C31.3913,9.55078 31.6458,9.98698 31.7188,10.5391 M37.8906,10.5391 L36.3672,10.6328 C36.3411,10.5026 36.2852,10.3848 36.1992,10.2793 C36.1133,10.1738 36.0007,10.0892 35.8613,10.0254 C35.722,9.96159 35.556,9.92969 35.3633,9.92969 C35.1055,9.92969 34.888,9.98372 34.7109,10.0918 C34.5339,10.1999 34.4453,10.3438 34.4453,10.5234 C34.4453,10.6667 34.5026,10.7878 34.6172,10.8867 C34.7318,10.9857 34.9284,11.0651 35.207,11.125 L36.293,11.3438 C36.8763,11.4635 37.3112,11.6563 37.5977,11.9219 C37.8841,12.1875 38.0273,12.5365 38.0273,12.9688 C38.0273,13.362 37.9121,13.707 37.6816,14.0039 C37.4512,14.3008 37.1361,14.5319 36.7363,14.6973 C36.3366,14.8626 35.8763,14.9453 35.3555,14.9453 C34.5612,14.9453 33.929,14.7793 33.459,14.4473 C32.9889,14.1152 32.7135,13.6628 32.6328,13.0898 L34.2695,13.0039 C34.319,13.2461 34.4388,13.4303 34.6289,13.5566 C34.819,13.6829 35.0625,13.7461 35.3594,13.7461 C35.651,13.7461 35.8861,13.6895 36.0645,13.5762 C36.2428,13.4629 36.3333,13.3164 36.3359,13.1367 C36.3333,12.9857 36.2695,12.8613 36.1445,12.7637 C36.0195,12.666 35.8268,12.5911 35.5664,12.5391 L34.5273,12.332 C33.9414,12.2148 33.5059,12.0117 33.2207,11.7227 C32.9355,11.4336 32.793,11.0651 32.793,10.6172 C32.793,10.2318 32.8978,9.89974 33.1074,9.62109 C33.3171,9.34245 33.6126,9.1276 33.9941,8.97656 C34.3757,8.82552 34.8229,8.75 35.3359,8.75 C36.0938,8.75 36.6908,8.91016 37.127,9.23047 C37.5632,9.55078 37.8177,9.98698 37.8906,10.5391 M41.8047,14.9453 C41.1875,14.9453 40.6569,14.8197 40.2129,14.5684 C39.7689,14.3171 39.4271,13.9603 39.1875,13.498 C38.9479,13.0358 38.8281,12.4883 38.8281,11.8555 C38.8281,11.2383 38.9479,10.6966 39.1875,10.2305 C39.4271,9.76432 39.765,9.40104 40.2012,9.14063 C40.6374,8.88021 41.1497,8.75 41.7383,8.75 C42.1341,8.75 42.5033,8.81315 42.8457,8.93945 C43.1882,9.06576 43.4876,9.25521 43.7441,9.50781 C44.0007,9.76042 44.2005,10.0775 44.3438,10.459 C44.487,10.8405 44.5586,11.2865 44.5586,11.7969 L44.5586,12.2539 L39.4922,12.2539 L39.4922,11.2227 L42.9922,11.2227 C42.9922,10.9831 42.9401,10.7708 42.8359,10.5859 C42.7318,10.401 42.5879,10.2559 42.4043,10.1504 C42.2207,10.0449 42.0078,9.99219 41.7656,9.99219 C41.513,9.99219 41.2897,10.0501 41.0957,10.166 C40.9017,10.2819 40.75,10.4368 40.6406,10.6309 C40.5313,10.8249 40.4753,11.0404 40.4727,11.2773 L40.4727,12.2578 C40.4727,12.5547 40.528,12.8112 40.6387,13.0273 C40.7493,13.2435 40.9063,13.4102 41.1094,13.5273 C41.3125,13.6445 41.5534,13.7031 41.832,13.7031 C42.0169,13.7031 42.1862,13.6771 42.3398,13.625 C42.4935,13.5729 42.625,13.4948 42.7344,13.3906 C42.8438,13.2865 42.9271,13.1589 42.9844,13.0078 L44.5234,13.1094 C44.4453,13.4792 44.2858,13.8014 44.0449,14.0762 C43.804,14.3509 43.4941,14.5645 43.1152,14.7168 C42.7363,14.8691 42.2995,14.9453 41.8047,14.9453 M47.8438,14.9258 C47.388,14.9258 46.9759,14.8079 46.6074,14.5723 C46.2389,14.3366 45.9473,13.9889 45.7324,13.5293 C45.5176,13.0697 45.4102,12.5052 45.4102,11.8359 C45.4102,11.1484 45.5208,10.5762 45.7422,10.1191 C45.9635,9.66211 46.2585,9.31966 46.627,9.0918 C46.9954,8.86393 47.3997,8.75 47.8398,8.75 C48.1758,8.75 48.4564,8.80664 48.6816,8.91992 C48.9069,9.0332 49.0892,9.17383 49.2285,9.3418 C49.3678,9.50977 49.474,9.67448 49.5469,9.83594 L49.5977,9.83594 L49.5977,6.82813 L51.2578,6.82813 L51.2578,14.8281 L49.6172,14.8281 L49.6172,13.8672 L49.5469,13.8672 C49.4688,14.0339 49.3587,14.1986 49.2168,14.3613 C49.0749,14.5241 48.8913,14.6589 48.666,14.7656 C48.4408,14.8724 48.1667,14.9258 47.8438,14.9258 M48.3711,13.6016 C48.6393,13.6016 48.8665,13.528 49.0527,13.3809 C49.2389,13.2337 49.3822,13.0273 49.4824,12.7617 C49.5827,12.4961 49.6328,12.1849 49.6328,11.8281 C49.6328,11.4714 49.5833,11.1615 49.4844,10.8984 C49.3854,10.6354 49.2422,10.4323 49.0547,10.2891 C48.8672,10.1458 48.6393,10.0742 48.3711,10.0742 C48.0977,10.0742 47.8672,10.1484 47.6797,10.2969 C47.4922,10.4453 47.3503,10.651 47.2539,10.9141 C47.1576,11.1771 47.1094,11.4818 47.1094,11.8281 C47.1094,12.1771 47.1582,12.485 47.2559,12.752 C47.3535,13.0189 47.4954,13.2272 47.6816,13.377 C47.8678,13.5267 48.0977,13.6016 48.3711,13.6016 "/>
</g>

<g fill="#ffffff" fill-opacity="1" stroke="none" transform="matrix(0.03125,0,0,0.03125,265,30)"
font-family="Inter" font-size="11" font-weight="700" font-style="normal" 
>
<path vector-effect="none" fill-rule="nonzero" d="M111.326,191.938 C120.545,201.158 135.517,201.158 144.737,191.938 L239.144,97.5313 C245.929,90.7458 247.921,80.6413 244.233,71.7907 C240.545,62.9401 231.989,57.1871 222.401,57.1871 L33.5875,57.2608 C24.0731,57.2608 15.4437,63.0137 11.7559,71.8644 C8.06815,80.715 10.1333,90.8195 16.845,97.605 L111.252,192.012 L111.326,191.938"/>
</g>

<g fill="none" stroke="#000000" stroke-opacity="1" stroke-width="13.7195" stroke-linecap="butt" stroke-linejoin="miter" stroke-miterlimit="4" transform="matrix(0.03125,0,0,0.03125,265,30)"
font-family="Inter" font-size="11" font-weight="700" font-style="normal" 
>
<path vector-effect="none" fill-rule="nonzero" d="M111.326,191.938 C120.545,201.158 135.517,201.158 144.737,191.938 L239.144,97.5313 C245.929,90.7458 247.921,80.6413 244.233,71.7907 C240.545,62.9401 231.989,57.1871 222.401,57.1871 L33.5875,57.2608 C24.0731,57.2608 15.4437,63.0137 11.7559,71.8644 C8.06815,80.715 10.1333,90.8195 16.845,97.605 L111.252,192.012 L111.326,191.938"/>
</g>

<g fill="#ffffff" fill-opacity="1" stroke="none" transform="matrix(1,0,0,1,205,22)"
font-family="Inter" font-size="11" font-weight="700" font-style="normal" 
>
</g>

<g fill="#ffffff" fill-opacity="1" stroke="#00645c" stroke-opacity="1" stroke-width="1" stroke-linecap="square" stroke-linejoin="bevel" transform="matrix(1,0,0,1,0,0)"
font-family="Inter" font-size="11" font-weight="700" font-style="normal" 
>
</g>

<g fill="none" stroke="#000000" stroke-opacity="1" stroke-width="1" stroke-linecap="square" stroke-linejoin="bevel" transform="matrix(1,0,0,1,0,0)"
font-family=".AppleSystemUIFont" font-size="13" font-weight="400" font-style="normal" 
>
</g>
</g>
</svg>
