<?xml version="1.0" encoding="UTF-8" standalone="no"?>
<svg width="79.7278mm" height="11.2889mm"
 viewBox="0 0 226 32"
 xmlns="http://www.w3.org/2000/svg" xmlns:xlink="http://www.w3.org/1999/xlink" version="1.2" baseProfile="tiny">
<title>Abstract block</title>
<desc>block_hubs_all_motors_port_speed</desc>
<defs>
</defs>
<g fill="none" stroke="black" stroke-width="1" fill-rule="evenodd" stroke-linecap="square" stroke-linejoin="bevel" >

<g fill="none" stroke="#000000" stroke-opacity="1" stroke-width="1" stroke-linecap="square" stroke-linejoin="bevel" transform="matrix(1,0,0,1,0,0)"
font-family=".AppleSystemUIFont" font-size="13" font-weight="400" font-style="normal" 
>
</g>

<g fill="none" stroke="#000000" stroke-opacity="1" stroke-width="1" stroke-linecap="square" stroke-linejoin="bevel" transform="matrix(1,0,0,1,0,0)"
font-family=".AppleSystemUIFont" font-size="13" font-weight="400" font-style="normal" 
>
</g>

<g fill="#0090f5" fill-opacity="1" stroke="#0070ba" stroke-opacity="1" stroke-width="1.2" stroke-linecap="square" stroke-linejoin="bevel" transform="matrix(1,0,0,1,0,0)"
font-family=".AppleSystemUIFont" font-size="13" font-weight="400" font-style="normal" 
>
<path vector-effect="none" fill-rule="evenodd" d="M1,16 C1,7.71573 8.16344,1 17,1 L208.667,1 C217.503,1 224.667,7.71573 224.667,16 C224.667,24.2843 217.503,31 208.667,31 L17,31 C8.16344,31 1,24.2843 1,16 "/>
</g>

<g fill="#ffffff" fill-opacity="1" stroke="none" transform="matrix(1,0,0,1,0,0)"
font-family="Inter" font-size="11" font-weight="700" font-style="normal" 
>
<path vector-effect="none" fill-rule="nonzero" d="M186.031,14.5391 L184.508,14.6328 C184.482,14.5026 184.426,14.3848 184.34,14.2793 C184.254,14.1738 184.141,14.0892 184.002,14.0254 C183.863,13.9616 183.697,13.9297 183.504,13.9297 C183.246,13.9297 183.029,13.9837 182.852,14.0918 C182.674,14.1999 182.586,14.3438 182.586,14.5234 C182.586,14.6667 182.643,14.7878 182.758,14.8867 C182.872,14.9857 183.069,15.0651 183.348,15.125 L184.434,15.3438 C185.017,15.4635 185.452,15.6563 185.738,15.9219 C186.025,16.1875 186.168,16.5365 186.168,16.9688 C186.168,17.362 186.053,17.707 185.822,18.0039 C185.592,18.3008 185.277,18.5319 184.877,18.6973 C184.477,18.8626 184.017,18.9453 183.496,18.9453 C182.702,18.9453 182.07,18.7793 181.6,18.4473 C181.13,18.1152 180.854,17.6628 180.773,17.0898 L182.41,17.0039 C182.46,17.2461 182.579,17.4303 182.77,17.5566 C182.96,17.6829 183.203,17.7461 183.5,17.7461 C183.792,17.7461 184.027,17.6895 184.205,17.5762 C184.383,17.4629 184.474,17.3164 184.477,17.1367 C184.474,16.9857 184.41,16.8613 184.285,16.7637 C184.16,16.666 183.967,16.5911 183.707,16.5391 L182.668,16.332 C182.082,16.2148 181.646,16.0117 181.361,15.7227 C181.076,15.4336 180.934,15.0651 180.934,14.6172 C180.934,14.2318 181.038,13.8997 181.248,13.6211 C181.458,13.3424 181.753,13.1276 182.135,12.9766 C182.516,12.8255 182.964,12.75 183.477,12.75 C184.234,12.75 184.831,12.9102 185.268,13.2305 C185.704,13.5508 185.958,13.987 186.031,14.5391 M187.211,21.0781 L187.211,12.8281 L188.852,12.8281 L188.852,13.8359 L188.926,13.8359 C188.999,13.6745 189.105,13.5098 189.244,13.3418 C189.383,13.1738 189.566,13.0332 189.791,12.9199 C190.016,12.8066 190.297,12.75 190.633,12.75 C191.07,12.75 191.474,12.8639 191.844,13.0918 C192.214,13.3197 192.509,13.6621 192.73,14.1191 C192.952,14.5762 193.063,15.1484 193.063,15.8359 C193.063,16.5052 192.955,17.0697 192.74,17.5293 C192.525,17.9889 192.234,18.3366 191.865,18.5723 C191.497,18.8079 191.085,18.9258 190.629,18.9258 C190.306,18.9258 190.032,18.8724 189.807,18.7656 C189.581,18.6589 189.397,18.5241 189.254,18.3613 C189.111,18.1986 189.001,18.0339 188.926,17.8672 L188.875,17.8672 L188.875,21.0781 L187.211,21.0781 M188.84,15.8281 C188.84,16.1849 188.889,16.4961 188.988,16.7617 C189.087,17.0273 189.23,17.2337 189.418,17.3809 C189.605,17.528 189.833,17.6016 190.102,17.6016 C190.372,17.6016 190.602,17.5267 190.789,17.377 C190.977,17.2272 191.119,17.0189 191.217,16.752 C191.314,16.485 191.363,16.1771 191.363,15.8281 C191.363,15.4818 191.315,15.1771 191.219,14.9141 C191.122,14.651 190.98,14.4453 190.793,14.2969 C190.605,14.1484 190.375,14.0742 190.102,14.0742 C189.831,14.0742 189.602,14.1458 189.416,14.2891 C189.23,14.4323 189.087,14.6354 188.988,14.8984 C188.889,15.1615 188.84,15.4714 188.84,15.8281 M196.898,18.9453 C196.281,18.9453 195.751,18.8197 195.307,18.5684 C194.863,18.3171 194.521,17.9603 194.281,17.498 C194.042,17.0358 193.922,16.4883 193.922,15.8555 C193.922,15.2383 194.042,14.6966 194.281,14.2305 C194.521,13.7643 194.859,13.401 195.295,13.1406 C195.731,12.8802 196.243,12.75 196.832,12.75 C197.228,12.75 197.597,12.8132 197.939,12.9395 C198.282,13.0658 198.581,13.2552 198.838,13.5078 C199.094,13.7604 199.294,14.0775 199.438,14.459 C199.581,14.8405 199.652,15.2865 199.652,15.7969 L199.652,16.2539 L194.586,16.2539 L194.586,15.2227 L198.086,15.2227 C198.086,14.9831 198.034,14.7708 197.93,14.5859 C197.826,14.401 197.682,14.2559 197.498,14.1504 C197.314,14.0449 197.102,13.9922 196.859,13.9922 C196.607,13.9922 196.383,14.0501 196.189,14.166 C195.995,14.2819 195.844,14.4368 195.734,14.6309 C195.625,14.8249 195.569,15.0404 195.566,15.2773 L195.566,16.2578 C195.566,16.5547 195.622,16.8112 195.732,17.0273 C195.843,17.2435 196,17.4102 196.203,17.5273 C196.406,17.6445 196.647,17.7031 196.926,17.7031 C197.111,17.7031 197.28,17.6771 197.434,17.625 C197.587,17.5729 197.719,17.4948 197.828,17.3906 C197.938,17.2865 198.021,17.1589 198.078,17.0078 L199.617,17.1094 C199.539,17.4792 199.38,17.8014 199.139,18.0762 C198.898,18.3509 198.588,18.5645 198.209,18.7168 C197.83,18.8691 197.393,18.9453 196.898,18.9453 M203.461,18.9453 C202.844,18.9453 202.313,18.8197 201.869,18.5684 C201.425,18.3171 201.083,17.9603 200.844,17.498 C200.604,17.0358 200.484,16.4883 200.484,15.8555 C200.484,15.2383 200.604,14.6966 200.844,14.2305 C201.083,13.7643 201.421,13.401 201.857,13.1406 C202.294,12.8802 202.806,12.75 203.395,12.75 C203.79,12.75 204.16,12.8132 204.502,12.9395 C204.844,13.0658 205.144,13.2552 205.4,13.5078 C205.657,13.7604 205.857,14.0775 206,14.459 C206.143,14.8405 206.215,15.2865 206.215,15.7969 L206.215,16.2539 L201.148,16.2539 L201.148,15.2227 L204.648,15.2227 C204.648,14.9831 204.596,14.7708 204.492,14.5859 C204.388,14.401 204.244,14.2559 204.061,14.1504 C203.877,14.0449 203.664,13.9922 203.422,13.9922 C203.169,13.9922 202.946,14.0501 202.752,14.166 C202.558,14.2819 202.406,14.4368 202.297,14.6309 C202.188,14.8249 202.132,15.0404 202.129,15.2773 L202.129,16.2578 C202.129,16.5547 202.184,16.8112 202.295,17.0273 C202.406,17.2435 202.563,17.4102 202.766,17.5273 C202.969,17.6445 203.21,17.7031 203.488,17.7031 C203.673,17.7031 203.842,17.6771 203.996,17.625 C204.15,17.5729 204.281,17.4948 204.391,17.3906 C204.5,17.2865 204.583,17.1589 204.641,17.0078 L206.18,17.1094 C206.102,17.4792 205.942,17.8014 205.701,18.0762 C205.46,18.3509 205.15,18.5645 204.771,18.7168 C204.393,18.8691 203.956,18.9453 203.461,18.9453 M209.5,18.9258 C209.044,18.9258 208.632,18.8079 208.264,18.5723 C207.895,18.3366 207.604,17.9889 207.389,17.5293 C207.174,17.0697 207.066,16.5052 207.066,15.8359 C207.066,15.1484 207.177,14.5762 207.398,14.1191 C207.62,13.6621 207.915,13.3197 208.283,13.0918 C208.652,12.8639 209.056,12.75 209.496,12.75 C209.832,12.75 210.113,12.8066 210.338,12.9199 C210.563,13.0332 210.745,13.1738 210.885,13.3418 C211.024,13.5098 211.13,13.6745 211.203,13.8359 L211.254,13.8359 L211.254,10.8281 L212.914,10.8281 L212.914,18.8281 L211.273,18.8281 L211.273,17.8672 L211.203,17.8672 C211.125,18.0339 211.015,18.1986 210.873,18.3613 C210.731,18.5241 210.548,18.6589 210.322,18.7656 C210.097,18.8724 209.823,18.9258 209.5,18.9258 M210.027,17.6016 C210.296,17.6016 210.523,17.528 210.709,17.3809 C210.895,17.2337 211.038,17.0273 211.139,16.7617 C211.239,16.4961 211.289,16.1849 211.289,15.8281 C211.289,15.4714 211.24,15.1615 211.141,14.8984 C211.042,14.6354 210.898,14.4323 210.711,14.2891 C210.523,14.1458 210.296,14.0742 210.027,14.0742 C209.754,14.0742 209.523,14.1484 209.336,14.2969 C209.148,14.4453 209.007,14.651 208.91,14.9141 C208.814,15.1771 208.766,15.4818 208.766,15.8281 C208.766,16.1771 208.814,16.485 208.912,16.752 C209.01,17.0189 209.152,17.2272 209.338,17.377 C209.524,17.5267 209.754,17.6016 210.027,17.6016 "/>
</g>

<g fill="#ffffff" fill-opacity="1" stroke="none" transform="matrix(0.0285,0,0,0.0285,11.2928,4.44754)"
font-family="Inter" font-size="11" font-weight="700" font-style="normal" 
>
<path vector-effect="none" fill-rule="nonzero" d="M410.778,59.991 C376.729,59.991 346.629,75.6235 326.182,99.684 C216.768,129.689 131.433,215.271 101.927,324.891 C79.5232,345.494 65.3275,374.762 65.54,407.6 C65.7463,439.573 79.3407,468.172 100.975,488.421 C130.228,601.34 218.744,689.335 331.859,718.096 C331.956,718.125 331.989,718.313 332.085,718.338 C352.242,738.376 380.064,750.708 410.778,750.708 C441.492,750.708 469.314,738.376 489.47,718.338 C489.549,718.262 489.618,718.17 489.696,718.096 C604.323,688.948 693.738,598.994 721.758,483.921 C742.939,463.42 756.216,434.907 756.015,403.1 C755.801,370.079 741.086,340.899 718.209,320.633 C687.622,213.077 603.338,129.291 495.373,99.684 C474.926,75.6235 444.827,59.991 410.778,59.991 M410.778,91.8938 C455.052,91.8938 490.89,127.731 490.89,172.006 C490.89,216.28 455.052,252.102 410.778,252.102 C366.503,252.102 330.666,216.28 330.666,172.006 C330.666,127.731 366.503,91.8938 410.778,91.8938 M177.071,325.601 C221.346,325.601 257.183,361.438 257.183,405.713 C257.183,449.987 221.346,485.808 177.071,485.808 C132.796,485.808 96.7332,449.987 96.7332,405.713 C96.7332,361.438 132.796,325.601 177.071,325.601 M644.485,325.601 C688.763,325.601 724.822,361.438 724.822,405.713 C724.822,449.987 688.763,485.808 644.485,485.808 C600.21,485.808 564.373,449.987 564.373,405.713 C564.373,361.438 600.21,325.601 644.485,325.601 M396.601,335.762 L424.955,335.762 C431.754,335.762 437.245,342.538 437.245,350.891 L437.245,381.6 L467.971,381.6 C476.323,381.6 483.083,387.091 483.083,393.89 L483.083,422.245 C483.083,429.044 476.323,434.535 467.971,434.535 L437.245,434.535 L437.245,465.26 C437.245,473.612 431.754,480.373 424.955,480.373 L396.601,480.373 C389.801,480.373 384.31,473.613 384.31,465.26 L384.31,434.535 L353.585,434.535 C345.233,434.535 338.472,429.044 338.472,422.245 L338.472,393.89 C338.472,387.091 345.232,381.6 353.585,381.6 L384.31,381.6 L384.31,350.891 C384.31,342.539 389.801,335.762 396.601,335.762 M410.778,559.307 C455.052,559.307 490.89,595.371 490.89,639.645 C490.89,683.918 455.052,719.757 410.778,719.757 C366.503,719.757 330.666,683.918 330.666,639.645 C330.666,595.371 366.503,559.307 410.778,559.307 "/>
</g>

<g fill="none" stroke="#000000" stroke-opacity="1" stroke-width="22.7975" stroke-linecap="round" stroke-linejoin="round" transform="matrix(0.0285,0,0,0.0285,11.2928,4.44754)"
font-family="Inter" font-size="11" font-weight="700" font-style="normal" 
>
<path vector-effect="none" fill-rule="nonzero" d="M410.778,59.991 C376.729,59.991 346.629,75.6235 326.182,99.684 C216.768,129.689 131.433,215.271 101.927,324.891 C79.5232,345.494 65.3275,374.762 65.54,407.6 C65.7463,439.573 79.3407,468.172 100.975,488.421 C130.228,601.34 218.744,689.335 331.859,718.096 C331.956,718.125 331.989,718.313 332.085,718.338 C352.242,738.376 380.064,750.708 410.778,750.708 C441.492,750.708 469.314,738.376 489.47,718.338 C489.549,718.262 489.618,718.17 489.696,718.096 C604.323,688.948 693.738,598.994 721.758,483.921 C742.939,463.42 756.216,434.907 756.015,403.1 C755.801,370.079 741.086,340.899 718.209,320.633 C687.622,213.077 603.338,129.291 495.373,99.684 C474.926,75.6235 444.827,59.991 410.778,59.991 M410.778,91.8938 C455.052,91.8938 490.89,127.731 490.89,172.006 C490.89,216.28 455.052,252.102 410.778,252.102 C366.503,252.102 330.666,216.28 330.666,172.006 C330.666,127.731 366.503,91.8938 410.778,91.8938 M177.071,325.601 C221.346,325.601 257.183,361.438 257.183,405.713 C257.183,449.987 221.346,485.808 177.071,485.808 C132.796,485.808 96.7332,449.987 96.7332,405.713 C96.7332,361.438 132.796,325.601 177.071,325.601 M644.485,325.601 C688.763,325.601 724.822,361.438 724.822,405.713 C724.822,449.987 688.763,485.808 644.485,485.808 C600.21,485.808 564.373,449.987 564.373,405.713 C564.373,361.438 600.21,325.601 644.485,325.601 M396.601,335.762 L424.955,335.762 C431.754,335.762 437.245,342.538 437.245,350.891 L437.245,381.6 L467.971,381.6 C476.323,381.6 483.083,387.091 483.083,393.89 L483.083,422.245 C483.083,429.044 476.323,434.535 467.971,434.535 L437.245,434.535 L437.245,465.26 C437.245,473.612 431.754,480.373 424.955,480.373 L396.601,480.373 C389.801,480.373 384.31,473.613 384.31,465.26 L384.31,434.535 L353.585,434.535 C345.233,434.535 338.472,429.044 338.472,422.245 L338.472,393.89 C338.472,387.091 345.232,381.6 353.585,381.6 L384.31,381.6 L384.31,350.891 C384.31,342.539 389.801,335.762 396.601,335.762 M410.778,559.307 C455.052,559.307 490.89,595.371 490.89,639.645 C490.89,683.918 455.052,719.757 410.778,719.757 C366.503,719.757 330.666,683.918 330.666,639.645 C330.666,595.371 366.503,559.307 410.778,559.307 "/>
</g>

<g fill="#000000" fill-opacity="1" stroke="none" transform="matrix(0.0285,0,0,0.0285,11.2928,4.44754)"
font-family="Inter" font-size="11" font-weight="700" font-style="normal" 
>
<path vector-effect="none" fill-rule="evenodd" d="M394.961,355.661 C394.961,347.613 401.485,341.088 409.533,341.088 C417.582,341.088 424.106,347.613 424.106,355.661 L424.106,457.48 C424.106,465.528 417.582,472.053 409.533,472.053 C401.485,472.053 394.961,465.528 394.961,457.48 L394.961,355.661"/>
</g>

<g fill="none" stroke="#000000" stroke-opacity="1" stroke-width="20" stroke-linecap="round" stroke-linejoin="round" transform="matrix(0.0285,0,0,0.0285,11.2928,4.44754)"
font-family="Inter" font-size="11" font-weight="700" font-style="normal" 
>
<path vector-effect="none" fill-rule="evenodd" d="M394.961,355.661 C394.961,347.613 401.485,341.088 409.533,341.088 C417.582,341.088 424.106,347.613 424.106,355.661 L424.106,457.48 C424.106,465.528 417.582,472.053 409.533,472.053 C401.485,472.053 394.961,465.528 394.961,457.48 L394.961,355.661"/>
</g>

<g fill="#000000" fill-opacity="1" stroke="none" transform="matrix(0,0.0285,-0.0285,0,11.2928,4.44754)"
font-family="Inter" font-size="11" font-weight="700" font-style="normal" 
>
<path vector-effect="none" fill-rule="evenodd" d="M394.152,-461.016 C394.152,-469.064 400.676,-475.588 408.724,-475.588 C416.773,-475.588 423.297,-469.064 423.297,-461.016 L423.297,-359.196 C423.297,-351.148 416.773,-344.624 408.724,-344.624 C400.676,-344.624 394.152,-351.148 394.152,-359.196 L394.152,-461.016"/>
</g>

<g fill="none" stroke="#000000" stroke-opacity="1" stroke-width="20" stroke-linecap="round" stroke-linejoin="round" transform="matrix(0,0.0285,-0.0285,0,11.2928,4.44754)"
font-family="Inter" font-size="11" font-weight="700" font-style="normal" 
>
<path vector-effect="none" fill-rule="evenodd" d="M394.152,-461.016 C394.152,-469.064 400.676,-475.588 408.724,-475.588 C416.773,-475.588 423.297,-469.064 423.297,-461.016 L423.297,-359.196 C423.297,-351.148 416.773,-344.624 408.724,-344.624 C400.676,-344.624 394.152,-351.148 394.152,-359.196 L394.152,-461.016"/>
</g>

<g fill="#ffffff" fill-opacity="1" stroke="none" transform="matrix(1,0,0,1,0,0)"
font-family="Inter" font-size="11" font-weight="700" font-style="normal" 
>
</g>

<g fill="#ffffff" fill-opacity="1" stroke="#0070ba" stroke-opacity="1" stroke-width="1" stroke-linecap="square" stroke-linejoin="bevel" transform="matrix(1,0,0,1,0,0)"
font-family="Inter" font-size="11" font-weight="700" font-style="normal" 
>
<polyline fill="none" vector-effect="none" points="45,6 45,26 " />
</g>

<g fill="#ffffff" fill-opacity="1" stroke="#0070ba" stroke-opacity="1" stroke-width="1" stroke-linecap="square" stroke-linejoin="bevel" transform="matrix(1,0,0,1,0,0)"
font-family="Inter" font-size="11" font-weight="700" font-style="normal" 
>
</g>

<g fill="#0070ba" fill-opacity="1" stroke="#0070ba" stroke-opacity="1" stroke-width="1.2" stroke-linecap="square" stroke-linejoin="bevel" transform="matrix(1,0,0,1,135,4)"
font-family="Inter" font-size="11" font-weight="700" font-style="normal" 
>
<path vector-effect="none" fill-rule="evenodd" d="M0.5,12 C0.5,5.64873 5.87258,0.5 12.5,0.5 L27.5,0.5 C34.1274,0.5 39.5,5.64873 39.5,12 C39.5,18.3513 34.1274,23.5 27.5,23.5 L12.5,23.5 C5.87258,23.5 0.5,18.3513 0.5,12 "/>
</g>

<g fill="#ffffff" fill-opacity="1" stroke="none" transform="matrix(1,0,0,1,135,4)"
font-family="Inter" font-size="11" font-weight="700" font-style="normal" 
>
<path vector-effect="none" fill-rule="nonzero" d="M11.8242,16 L10.0117,16 L12.7734,8 L14.9531,8 L17.7109,16 L15.8984,16 L13.8945,9.82813 L13.832,9.82813 L11.8242,16 M11.7109,12.8555 L15.9922,12.8555 L15.9922,14.1758 L11.7109,14.1758 L11.7109,12.8555"/>
</g>

<g fill="#ffffff" fill-opacity="1" stroke="none" transform="matrix(0.03125,0,0,0.03125,161,12)"
font-family="Inter" font-size="11" font-weight="700" font-style="normal" 
>
<path vector-effect="none" fill-rule="nonzero" d="M111.326,191.938 C120.545,201.158 135.517,201.158 144.737,191.938 L239.144,97.5313 C245.929,90.7458 247.921,80.6413 244.233,71.7907 C240.545,62.9401 231.989,57.1871 222.401,57.1871 L33.5875,57.2608 C24.0731,57.2608 15.4437,63.0137 11.7559,71.8644 C8.06815,80.715 10.1333,90.8195 16.845,97.605 L111.252,192.012 L111.326,191.938"/>
</g>

<g fill="none" stroke="#000000" stroke-opacity="1" stroke-width="13.7195" stroke-linecap="butt" stroke-linejoin="miter" stroke-miterlimit="4" transform="matrix(0.03125,0,0,0.03125,161,12)"
font-family="Inter" font-size="11" font-weight="700" font-style="normal" 
>
<path vector-effect="none" fill-rule="nonzero" d="M111.326,191.938 C120.545,201.158 135.517,201.158 144.737,191.938 L239.144,97.5313 C245.929,90.7458 247.921,80.6413 244.233,71.7907 C240.545,62.9401 231.989,57.1871 222.401,57.1871 L33.5875,57.2608 C24.0731,57.2608 15.4437,63.0137 11.7559,71.8644 C8.06815,80.715 10.1333,90.8195 16.845,97.605 L111.252,192.012 L111.326,191.938"/>
</g>

<g fill="#ffffff" fill-opacity="1" stroke="none" transform="matrix(1,0,0,1,135,4)"
font-family="Inter" font-size="11" font-weight="700" font-style="normal" 
>
</g>

<g fill="#ffffff" fill-opacity="1" stroke="#0070ba" stroke-opacity="1" stroke-width="1" stroke-linecap="square" stroke-linejoin="bevel" transform="matrix(1,0,0,1,0,0)"
font-family="Inter" font-size="11" font-weight="700" font-style="normal" 
>
</g>

<g fill="#0090f5" fill-opacity="1" stroke="#0070ba" stroke-opacity="1" stroke-width="1.2" stroke-linecap="square" stroke-linejoin="bevel" transform="matrix(1,0,0,1,56,4)"
font-family="Inter" font-size="11" font-weight="700" font-style="normal" 
>
<path vector-effect="none" fill-rule="evenodd" d="M0.5,3.5 C0.5,1.84315 1.84315,0.5 3.5,0.5 L71.5,0.5 C73.1569,0.5 74.5,1.84315 74.5,3.5 L74.5,20.5 C74.5,22.1569 73.1569,23.5 71.5,23.5 L3.5,23.5 C1.84315,23.5 0.5,22.1569 0.5,20.5 L0.5,3.5"/>
</g>

<g fill="#ffffff" fill-opacity="1" stroke="none" transform="matrix(1,0,0,1,56,4)"
font-family="Inter" font-size="11" font-weight="700" font-style="normal" 
>
<path vector-effect="none" fill-rule="nonzero" d="M10,9.39453 L10,8 L16.5703,8 L16.5703,9.39453 L14.1211,9.39453 L14.1211,16 L12.4492,16 L12.4492,9.39453 L10,9.39453 M17.6484,16 L17.6484,8 L19.3398,8 L19.3398,11.3008 L22.7734,11.3008 L22.7734,8 L24.4609,8 L24.4609,16 L22.7734,16 L22.7734,12.6953 L19.3398,12.6953 L19.3398,16 L17.6484,16 M32.543,8 L32.543,16 L31.082,16 L27.6016,10.9648 L27.543,10.9648 L27.543,16 L25.8516,16 L25.8516,8 L27.3359,8 L30.7891,13.0313 L30.8594,13.0313 L30.8594,8 L32.543,8 M33.9297,16 L33.9297,8 L35.6211,8 L35.6211,11.3008 L39.0547,11.3008 L39.0547,8 L40.7422,8 L40.7422,16 L39.0547,16 L39.0547,12.6953 L35.6211,12.6953 L35.6211,16 L33.9297,16 M42.1328,16 L42.1328,8 L45.3359,8 C45.9245,8 46.4154,8.08724 46.8086,8.26172 C47.2018,8.4362 47.4974,8.67773 47.6953,8.98633 C47.8932,9.29492 47.9922,9.64974 47.9922,10.0508 C47.9922,10.3633 47.9297,10.6374 47.8047,10.873 C47.6797,11.1087 47.5085,11.3014 47.291,11.4512 C47.0736,11.6009 46.8255,11.707 46.5469,11.7695 L46.5469,11.8477 C46.8516,11.8607 47.1374,11.9466 47.4043,12.1055 C47.6712,12.2643 47.888,12.4863 48.0547,12.7715 C48.2214,13.0566 48.3047,13.3958 48.3047,13.7891 C48.3047,14.2135 48.1999,14.5918 47.9902,14.9238 C47.7806,15.2559 47.4714,15.5182 47.0625,15.7109 C46.6536,15.9036 46.1497,16 45.5508,16 L42.1328,16 M43.8242,14.6172 L45.2031,14.6172 C45.6745,14.6172 46.0182,14.5267 46.2344,14.3457 C46.4505,14.1647 46.5586,13.9232 46.5586,13.6211 C46.5586,13.3997 46.5052,13.2044 46.3984,13.0352 C46.2917,12.8659 46.14,12.7331 45.9434,12.6367 C45.7467,12.5404 45.513,12.4922 45.2422,12.4922 L43.8242,12.4922 L43.8242,14.6172 M43.8242,11.3477 L45.0781,11.3477 C45.3099,11.3477 45.5163,11.3066 45.6973,11.2246 C45.8783,11.1426 46.0215,11.026 46.127,10.875 C46.2324,10.724 46.2852,10.543 46.2852,10.332 C46.2852,10.043 46.1829,9.8099 45.9785,9.63281 C45.7741,9.45573 45.4844,9.36719 45.1094,9.36719 L43.8242,9.36719 L43.8242,11.3477 M52.832,8 L52.832,16 L51.1406,16 L51.1406,9.60547 L51.0938,9.60547 L49.2617,10.7539 L49.2617,9.25391 L51.2422,8 L52.832,8"/>
</g>

<g fill="#ffffff" fill-opacity="1" stroke="none" transform="matrix(0.03125,0,0,0.03125,117,12)"
font-family="Inter" font-size="11" font-weight="700" font-style="normal" 
>
<path vector-effect="none" fill-rule="nonzero" d="M111.326,191.938 C120.545,201.158 135.517,201.158 144.737,191.938 L239.144,97.5313 C245.929,90.7458 247.921,80.6413 244.233,71.7907 C240.545,62.9401 231.989,57.1871 222.401,57.1871 L33.5875,57.2608 C24.0731,57.2608 15.4437,63.0137 11.7559,71.8644 C8.06815,80.715 10.1333,90.8195 16.845,97.605 L111.252,192.012 L111.326,191.938"/>
</g>

<g fill="none" stroke="#000000" stroke-opacity="1" stroke-width="13.7195" stroke-linecap="butt" stroke-linejoin="miter" stroke-miterlimit="4" transform="matrix(0.03125,0,0,0.03125,117,12)"
font-family="Inter" font-size="11" font-weight="700" font-style="normal" 
>
<path vector-effect="none" fill-rule="nonzero" d="M111.326,191.938 C120.545,201.158 135.517,201.158 144.737,191.938 L239.144,97.5313 C245.929,90.7458 247.921,80.6413 244.233,71.7907 C240.545,62.9401 231.989,57.1871 222.401,57.1871 L33.5875,57.2608 C24.0731,57.2608 15.4437,63.0137 11.7559,71.8644 C8.06815,80.715 10.1333,90.8195 16.845,97.605 L111.252,192.012 L111.326,191.938"/>
</g>

<g fill="#ffffff" fill-opacity="1" stroke="none" transform="matrix(1,0,0,1,56,4)"
font-family="Inter" font-size="11" font-weight="700" font-style="normal" 
>
</g>

<g fill="#ffffff" fill-opacity="1" stroke="#0070ba" stroke-opacity="1" stroke-width="1" stroke-linecap="square" stroke-linejoin="bevel" transform="matrix(1,0,0,1,0,0)"
font-family="Inter" font-size="11" font-weight="700" font-style="normal" 
>
</g>

<g fill="#ffffff" fill-opacity="1" stroke="#0070ba" stroke-opacity="1" stroke-width="1" stroke-linecap="square" stroke-linejoin="bevel" transform="matrix(1,0,0,1,0,0)"
font-family="Inter" font-size="11" font-weight="700" font-style="normal" 
>
</g>

<g fill="none" stroke="#000000" stroke-opacity="1" stroke-width="1" stroke-linecap="square" stroke-linejoin="bevel" transform="matrix(1,0,0,1,0,0)"
font-family=".AppleSystemUIFont" font-size="13" font-weight="400" font-style="normal" 
>
</g>
</g>
</svg>
