<?xml version="1.0" encoding="UTF-8" standalone="no"?>
<svg width="104.775mm" height="15.5222mm"
 viewBox="0 0 297 44"
 xmlns="http://www.w3.org/2000/svg" xmlns:xlink="http://www.w3.org/1999/xlink" version="1.2" baseProfile="tiny">
<title>Abstract block</title>
<desc>block_hubs_technicmove_motors_brake</desc>
<defs>
</defs>
<g fill="none" stroke="black" stroke-width="1" fill-rule="evenodd" stroke-linecap="square" stroke-linejoin="bevel" >

<g fill="none" stroke="#000000" stroke-opacity="1" stroke-width="1" stroke-linecap="square" stroke-linejoin="bevel" transform="matrix(1,0,0,1,0,0)"
font-family=".AppleSystemUIFont" font-size="13" font-weight="400" font-style="normal" 
>
</g>

<g fill="none" stroke="#000000" stroke-opacity="1" stroke-width="1" stroke-linecap="square" stroke-linejoin="bevel" transform="matrix(1,0,0,1,0,0)"
font-family=".AppleSystemUIFont" font-size="13" font-weight="400" font-style="normal" 
>
</g>

<g fill="#0090f5" fill-opacity="1" stroke="#0070ba" stroke-opacity="1" stroke-width="1.2" stroke-linecap="square" stroke-linejoin="bevel" transform="matrix(1,0,0,1,0,0)"
font-family=".AppleSystemUIFont" font-size="13" font-weight="400" font-style="normal" 
>
<path vector-effect="none" fill-rule="evenodd" d="M0.5,4.5 L1.04612,2.48112 L2.48112,1.04612 L4.5,0.5 L9.625,0.5 L10.416,0.976563 L11.1719,1.6875 L11.998,2.67969 L13,4 L13.7559,4.66016 L14.5469,5.15625 L15.4082,5.51172 L16.375,5.75 L17.4824,5.89453 L18.7656,5.96875 L20.2598,5.99609 L22,6 L23.7402,5.99609 L25.2344,5.96875 L26.5176,5.89453 L27.625,5.75 L28.5918,5.51172 L29.4531,5.15625 L30.2441,4.66016 L31,4 L32.002,2.67969 L32.8281,1.6875 L33.584,0.976563 L34.375,0.5 L292,0.5 L294.019,1.04612 L295.454,2.48112 L296,4.5 L296,31.5 L295.454,33.5189 L294.019,34.9539 L292,35.5 L34.375,35.5 L33.584,35.9766 L32.8281,36.6875 L32.002,37.6797 L31,39 L30.2441,39.6602 L29.4531,40.1563 L28.5918,40.5117 L27.625,40.75 L26.5176,40.8945 L25.2344,40.9688 L23.7402,40.9961 L22,41 L20.2598,40.9961 L18.7656,40.9688 L17.4824,40.8945 L16.375,40.75 L15.4082,40.5117 L14.5469,40.1563 L13.7559,39.6602 L13,39 L11.998,37.6797 L11.1719,36.6875 L10.416,35.9766 L9.625,35.5 L4.5,35.5 L2.48112,34.9539 L1.04612,33.5189 L0.5,31.5 L0.5,4.5"/>
</g>

<g fill="#ffffff" fill-opacity="1" stroke="none" transform="matrix(1,0,0,1,0,0)"
font-family="Inter" font-size="11" font-weight="700" font-style="normal" 
>
<path vector-effect="none" fill-rule="nonzero" d="M152.094,17.4453 L150.57,17.5391 C150.544,17.4089 150.488,17.291 150.402,17.1855 C150.316,17.0801 150.204,16.9954 150.064,16.9316 C149.925,16.8678 149.759,16.8359 149.566,16.8359 C149.309,16.8359 149.091,16.89 148.914,16.998 C148.737,17.1061 148.648,17.25 148.648,17.4297 C148.648,17.5729 148.706,17.694 148.82,17.793 C148.935,17.8919 149.132,17.9714 149.41,18.0313 L150.496,18.25 C151.079,18.3698 151.514,18.5625 151.801,18.8281 C152.087,19.0938 152.23,19.4427 152.23,19.875 C152.23,20.2682 152.115,20.6133 151.885,20.9102 C151.654,21.207 151.339,21.4382 150.939,21.6035 C150.54,21.7689 150.079,21.8516 149.559,21.8516 C148.764,21.8516 148.132,21.6855 147.662,21.3535 C147.192,21.0215 146.917,20.569 146.836,19.9961 L148.473,19.9102 C148.522,20.1523 148.642,20.3366 148.832,20.4629 C149.022,20.5892 149.266,20.6523 149.563,20.6523 C149.854,20.6523 150.089,20.5957 150.268,20.4824 C150.446,20.3691 150.536,20.2227 150.539,20.043 C150.536,19.8919 150.473,19.7676 150.348,19.6699 C150.223,19.5723 150.03,19.4974 149.77,19.4453 L148.73,19.2383 C148.145,19.1211 147.709,18.918 147.424,18.6289 C147.139,18.3398 146.996,17.9714 146.996,17.5234 C146.996,17.138 147.101,16.806 147.311,16.5273 C147.52,16.2487 147.816,16.0339 148.197,15.8828 C148.579,15.7318 149.026,15.6563 149.539,15.6563 C150.297,15.6563 150.894,15.8164 151.33,16.1367 C151.766,16.457 152.021,16.8932 152.094,17.4453 M156.008,21.8516 C155.391,21.8516 154.86,21.7259 154.416,21.4746 C153.972,21.2233 153.63,20.8665 153.391,20.4043 C153.151,19.9421 153.031,19.3945 153.031,18.7617 C153.031,18.1445 153.151,17.6029 153.391,17.1367 C153.63,16.6706 153.968,16.3073 154.404,16.0469 C154.84,15.7865 155.353,15.6563 155.941,15.6563 C156.337,15.6563 156.706,15.7194 157.049,15.8457 C157.391,15.972 157.691,16.1615 157.947,16.4141 C158.204,16.6667 158.404,16.9837 158.547,17.3652 C158.69,17.7467 158.762,18.1927 158.762,18.7031 L158.762,19.1602 L153.695,19.1602 L153.695,18.1289 L157.195,18.1289 C157.195,17.8893 157.143,17.6771 157.039,17.4922 C156.935,17.3073 156.791,17.1621 156.607,17.0566 C156.424,16.9512 156.211,16.8984 155.969,16.8984 C155.716,16.8984 155.493,16.9564 155.299,17.0723 C155.105,17.1882 154.953,17.3431 154.844,17.5371 C154.734,17.7311 154.678,17.9466 154.676,18.1836 L154.676,19.1641 C154.676,19.4609 154.731,19.7174 154.842,19.9336 C154.952,20.1497 155.109,20.3164 155.313,20.4336 C155.516,20.5508 155.757,20.6094 156.035,20.6094 C156.22,20.6094 156.389,20.5833 156.543,20.5313 C156.697,20.4792 156.828,20.401 156.938,20.2969 C157.047,20.1927 157.13,20.0651 157.188,19.9141 L158.727,20.0156 C158.648,20.3854 158.489,20.7077 158.248,20.9824 C158.007,21.2572 157.697,21.4707 157.318,21.623 C156.939,21.7754 156.503,21.8516 156.008,21.8516 M163.027,15.7344 L163.027,16.9844 L159.414,16.9844 L159.414,15.7344 L163.027,15.7344 M160.234,14.2969 L161.898,14.2969 L161.898,19.8906 C161.898,20.0443 161.922,20.1634 161.969,20.248 C162.016,20.3327 162.081,20.3919 162.166,20.4258 C162.251,20.4596 162.349,20.4766 162.461,20.4766 C162.539,20.4766 162.617,20.4694 162.695,20.4551 C162.773,20.4408 162.833,20.4297 162.875,20.4219 L163.137,21.6602 C163.053,21.6862 162.936,21.7168 162.785,21.752 C162.634,21.7871 162.451,21.8086 162.234,21.8164 C161.833,21.832 161.482,21.7786 161.182,21.6563 C160.881,21.5339 160.647,21.3438 160.48,21.0859 C160.314,20.8281 160.232,20.5026 160.234,20.1094 L160.234,14.2969 M166.648,21.7344 L166.648,15.7344 L168.234,15.7344 L168.234,16.793 L168.305,16.793 C168.43,16.4414 168.638,16.1641 168.93,15.9609 C169.221,15.7578 169.57,15.6563 169.977,15.6563 C170.388,15.6563 170.738,15.7585 171.027,15.9629 C171.316,16.1673 171.509,16.444 171.605,16.793 L171.668,16.793 C171.79,16.4492 172.012,16.1738 172.334,15.9668 C172.656,15.7598 173.036,15.6563 173.477,15.6563 C174.036,15.6563 174.492,15.834 174.842,16.1895 C175.192,16.5449 175.367,17.0482 175.367,17.6992 L175.367,21.7344 L173.707,21.7344 L173.707,18.0273 C173.707,17.694 173.618,17.444 173.441,17.2773 C173.264,17.1107 173.043,17.0273 172.777,17.0273 C172.475,17.0273 172.24,17.123 172.07,17.3145 C171.901,17.5059 171.816,17.7578 171.816,18.0703 L171.816,21.7344 L170.203,21.7344 L170.203,17.9922 C170.203,17.6979 170.119,17.4635 169.951,17.2891 C169.783,17.1146 169.563,17.0273 169.289,17.0273 C169.104,17.0273 168.938,17.0736 168.791,17.166 C168.644,17.2585 168.527,17.3874 168.441,17.5527 C168.355,17.7181 168.313,17.9115 168.313,18.1328 L168.313,21.7344 L166.648,21.7344 M179.391,21.8516 C178.784,21.8516 178.26,21.722 177.818,21.4629 C177.377,21.2038 177.036,20.8418 176.797,20.377 C176.557,19.9121 176.438,19.3724 176.438,18.7578 C176.438,18.138 176.557,17.5957 176.797,17.1309 C177.036,16.666 177.377,16.304 177.818,16.0449 C178.26,15.7858 178.784,15.6563 179.391,15.6563 C179.997,15.6563 180.521,15.7858 180.963,16.0449 C181.404,16.304 181.745,16.666 181.984,17.1309 C182.224,17.5957 182.344,18.138 182.344,18.7578 C182.344,19.3724 182.224,19.9121 181.984,20.377 C181.745,20.8418 181.404,21.2038 180.963,21.4629 C180.521,21.722 179.997,21.8516 179.391,21.8516 M179.398,20.5625 C179.674,20.5625 179.905,20.4837 180.09,20.3262 C180.275,20.1686 180.415,19.9531 180.51,19.6797 C180.605,19.4063 180.652,19.0951 180.652,18.7461 C180.652,18.3971 180.605,18.0859 180.51,17.8125 C180.415,17.5391 180.275,17.3229 180.09,17.1641 C179.905,17.0052 179.674,16.9258 179.398,16.9258 C179.12,16.9258 178.886,17.0052 178.697,17.1641 C178.508,17.3229 178.367,17.5391 178.271,17.8125 C178.176,18.0859 178.129,18.3971 178.129,18.7461 C178.129,19.0951 178.176,19.4063 178.271,19.6797 C178.367,19.9531 178.508,20.1686 178.697,20.3262 C178.886,20.4837 179.12,20.5625 179.398,20.5625 M186.621,15.7344 L186.621,16.9844 L183.008,16.9844 L183.008,15.7344 L186.621,15.7344 M183.828,14.2969 L185.492,14.2969 L185.492,19.8906 C185.492,20.0443 185.516,20.1634 185.563,20.248 C185.609,20.3327 185.675,20.3919 185.76,20.4258 C185.844,20.4596 185.943,20.4766 186.055,20.4766 C186.133,20.4766 186.211,20.4694 186.289,20.4551 C186.367,20.4408 186.427,20.4297 186.469,20.4219 L186.73,21.6602 C186.647,21.6862 186.53,21.7168 186.379,21.752 C186.228,21.7871 186.044,21.8086 185.828,21.8164 C185.427,21.832 185.076,21.7786 184.775,21.6563 C184.475,21.5339 184.241,21.3438 184.074,21.0859 C183.908,20.8281 183.826,20.5026 183.828,20.1094 L183.828,14.2969 M190.344,21.8516 C189.737,21.8516 189.213,21.722 188.771,21.4629 C188.33,21.2038 187.99,20.8418 187.75,20.377 C187.51,19.9121 187.391,19.3724 187.391,18.7578 C187.391,18.138 187.51,17.5957 187.75,17.1309 C187.99,16.666 188.33,16.304 188.771,16.0449 C189.213,15.7858 189.737,15.6563 190.344,15.6563 C190.951,15.6563 191.475,15.7858 191.916,16.0449 C192.357,16.304 192.698,16.666 192.938,17.1309 C193.177,17.5957 193.297,18.138 193.297,18.7578 C193.297,19.3724 193.177,19.9121 192.938,20.377 C192.698,20.8418 192.357,21.2038 191.916,21.4629 C191.475,21.722 190.951,21.8516 190.344,21.8516 M190.352,20.5625 C190.628,20.5625 190.858,20.4837 191.043,20.3262 C191.228,20.1686 191.368,19.9531 191.463,19.6797 C191.558,19.4063 191.605,19.0951 191.605,18.7461 C191.605,18.3971 191.558,18.0859 191.463,17.8125 C191.368,17.5391 191.228,17.3229 191.043,17.1641 C190.858,17.0052 190.628,16.9258 190.352,16.9258 C190.073,16.9258 189.839,17.0052 189.65,17.1641 C189.462,17.3229 189.32,17.5391 189.225,17.8125 C189.13,18.0859 189.082,18.3971 189.082,18.7461 C189.082,19.0951 189.13,19.4063 189.225,19.6797 C189.32,19.9531 189.462,20.1686 189.65,20.3262 C189.839,20.4837 190.073,20.5625 190.352,20.5625 M194.383,21.7344 L194.383,15.7344 L195.996,15.7344 L195.996,16.7813 L196.059,16.7813 C196.168,16.4089 196.352,16.127 196.609,15.9355 C196.867,15.7441 197.164,15.6484 197.5,15.6484 C197.583,15.6484 197.673,15.6536 197.77,15.6641 C197.866,15.6745 197.951,15.6888 198.023,15.707 L198.023,17.1836 C197.945,17.1602 197.837,17.1393 197.699,17.1211 C197.561,17.1029 197.435,17.0938 197.32,17.0938 C197.076,17.0938 196.857,17.1465 196.666,17.252 C196.475,17.3574 196.324,17.5039 196.213,17.6914 C196.102,17.8789 196.047,18.0951 196.047,18.3398 L196.047,21.7344 L194.383,21.7344 M203.859,17.4453 L202.336,17.5391 C202.31,17.4089 202.254,17.291 202.168,17.1855 C202.082,17.0801 201.969,16.9954 201.83,16.9316 C201.691,16.8678 201.525,16.8359 201.332,16.8359 C201.074,16.8359 200.857,16.89 200.68,16.998 C200.503,17.1061 200.414,17.25 200.414,17.4297 C200.414,17.5729 200.471,17.694 200.586,17.793 C200.701,17.8919 200.897,17.9714 201.176,18.0313 L202.262,18.25 C202.845,18.3698 203.28,18.5625 203.566,18.8281 C203.853,19.0938 203.996,19.4427 203.996,19.875 C203.996,20.2682 203.881,20.6133 203.65,20.9102 C203.42,21.207 203.105,21.4382 202.705,21.6035 C202.305,21.7689 201.845,21.8516 201.324,21.8516 C200.53,21.8516 199.898,21.6855 199.428,21.3535 C198.958,21.0215 198.682,20.569 198.602,19.9961 L200.238,19.9102 C200.288,20.1523 200.408,20.3366 200.598,20.4629 C200.788,20.5892 201.031,20.6523 201.328,20.6523 C201.62,20.6523 201.855,20.5957 202.033,20.4824 C202.212,20.3691 202.302,20.2227 202.305,20.043 C202.302,19.8919 202.238,19.7676 202.113,19.6699 C201.988,19.5723 201.796,19.4974 201.535,19.4453 L200.496,19.2383 C199.91,19.1211 199.475,18.918 199.189,18.6289 C198.904,18.3398 198.762,17.9714 198.762,17.5234 C198.762,17.138 198.867,16.806 199.076,16.5273 C199.286,16.2487 199.581,16.0339 199.963,15.8828 C200.344,15.7318 200.792,15.6563 201.305,15.6563 C202.063,15.6563 202.66,15.8164 203.096,16.1367 C203.532,16.457 203.786,16.8932 203.859,17.4453 M207.617,21.7344 L207.617,13.7344 L209.281,13.7344 L209.281,16.7422 L209.332,16.7422 C209.405,16.5807 209.511,16.416 209.65,16.248 C209.79,16.0801 209.972,15.9395 210.197,15.8262 C210.423,15.7129 210.703,15.6563 211.039,15.6563 C211.477,15.6563 211.88,15.7702 212.25,15.998 C212.62,16.2259 212.915,16.5684 213.137,17.0254 C213.358,17.4824 213.469,18.0547 213.469,18.7422 C213.469,19.4115 213.361,19.9759 213.146,20.4355 C212.932,20.8952 212.64,21.2428 212.271,21.4785 C211.903,21.7142 211.491,21.832 211.035,21.832 C210.712,21.832 210.438,21.7786 210.213,21.6719 C209.988,21.5651 209.803,21.4303 209.66,21.2676 C209.517,21.1048 209.408,20.9401 209.332,20.7734 L209.258,20.7734 L209.258,21.7344 L207.617,21.7344 M209.246,18.7344 C209.246,19.0911 209.296,19.4023 209.395,19.668 C209.493,19.9336 209.637,20.14 209.824,20.2871 C210.012,20.4342 210.24,20.5078 210.508,20.5078 C210.779,20.5078 211.008,20.4329 211.195,20.2832 C211.383,20.1335 211.525,19.9251 211.623,19.6582 C211.721,19.3913 211.77,19.0833 211.77,18.7344 C211.77,18.388 211.721,18.0833 211.625,17.8203 C211.529,17.5573 211.387,17.3516 211.199,17.2031 C211.012,17.0547 210.781,16.9805 210.508,16.9805 C210.237,16.9805 210.008,17.0521 209.822,17.1953 C209.636,17.3385 209.493,17.5417 209.395,17.8047 C209.296,18.0677 209.246,18.3776 209.246,18.7344 M214.57,21.7344 L214.57,15.7344 L216.184,15.7344 L216.184,16.7813 L216.246,16.7813 C216.355,16.4089 216.539,16.127 216.797,15.9355 C217.055,15.7441 217.352,15.6484 217.688,15.6484 C217.771,15.6484 217.861,15.6536 217.957,15.6641 C218.053,15.6745 218.138,15.6888 218.211,15.707 L218.211,17.1836 C218.133,17.1602 218.025,17.1393 217.887,17.1211 C217.749,17.1029 217.622,17.0938 217.508,17.0938 C217.263,17.0938 217.045,17.1465 216.854,17.252 C216.662,17.3574 216.511,17.5039 216.4,17.6914 C216.29,17.8789 216.234,18.0951 216.234,18.3398 L216.234,21.7344 L214.57,21.7344 M220.594,21.8477 C220.211,21.8477 219.87,21.7806 219.57,21.6465 C219.271,21.5124 219.035,21.3132 218.861,21.0488 C218.688,20.7845 218.602,20.4544 218.602,20.0586 C218.602,19.7253 218.663,19.4453 218.785,19.2188 C218.908,18.9922 219.074,18.8099 219.285,18.6719 C219.496,18.5339 219.736,18.4297 220.006,18.3594 C220.275,18.2891 220.559,18.2396 220.855,18.2109 C221.204,18.1745 221.486,18.14 221.699,18.1074 C221.913,18.0749 222.068,18.026 222.164,17.9609 C222.26,17.8958 222.309,17.7995 222.309,17.6719 L222.309,17.6484 C222.309,17.401 222.231,17.2096 222.076,17.0742 C221.921,16.9388 221.702,16.8711 221.418,16.8711 C221.118,16.8711 220.88,16.9368 220.703,17.0684 C220.526,17.1999 220.409,17.3646 220.352,17.5625 L218.813,17.4375 C218.891,17.0729 219.044,16.7572 219.273,16.4902 C219.503,16.2233 219.799,16.0176 220.162,15.873 C220.525,15.7285 220.947,15.6563 221.426,15.6563 C221.759,15.6563 222.079,15.6953 222.385,15.7734 C222.691,15.8516 222.963,15.9727 223.201,16.1367 C223.439,16.3008 223.628,16.5111 223.766,16.7676 C223.904,17.0241 223.973,17.3307 223.973,17.6875 L223.973,21.7344 L222.395,21.7344 L222.395,20.9023 L222.348,20.9023 C222.251,21.0898 222.122,21.2546 221.961,21.3965 C221.799,21.5384 221.605,21.6491 221.379,21.7285 C221.152,21.8079 220.891,21.8477 220.594,21.8477 M221.07,20.6992 C221.315,20.6992 221.531,20.6504 221.719,20.5527 C221.906,20.4551 222.053,20.3229 222.16,20.1563 C222.267,19.9896 222.32,19.8008 222.32,19.5898 L222.32,18.9531 C222.268,18.987 222.197,19.0176 222.107,19.0449 C222.018,19.0723 221.917,19.097 221.805,19.1191 C221.693,19.1413 221.581,19.1608 221.469,19.1777 C221.357,19.1947 221.255,19.2096 221.164,19.2227 C220.969,19.2513 220.798,19.2969 220.652,19.3594 C220.507,19.4219 220.393,19.5059 220.313,19.6113 C220.232,19.7168 220.191,19.8477 220.191,20.0039 C220.191,20.2305 220.274,20.403 220.439,20.5215 C220.605,20.64 220.815,20.6992 221.07,20.6992 M226.766,20.0078 L226.77,18.0117 L227.012,18.0117 L228.934,15.7344 L230.844,15.7344 L228.262,18.75 L227.867,18.75 L226.766,20.0078 M225.258,21.7344 L225.258,13.7344 L226.922,13.7344 L226.922,21.7344 L225.258,21.7344 M229.008,21.7344 L227.242,19.1211 L228.352,17.9453 L230.957,21.7344 L229.008,21.7344 M234.133,21.8516 C233.516,21.8516 232.985,21.7259 232.541,21.4746 C232.097,21.2233 231.755,20.8665 231.516,20.4043 C231.276,19.9421 231.156,19.3945 231.156,18.7617 C231.156,18.1445 231.276,17.6029 231.516,17.1367 C231.755,16.6706 232.093,16.3073 232.529,16.0469 C232.965,15.7865 233.478,15.6563 234.066,15.6563 C234.462,15.6563 234.831,15.7194 235.174,15.8457 C235.516,15.972 235.816,16.1615 236.072,16.4141 C236.329,16.6667 236.529,16.9837 236.672,17.3652 C236.815,17.7467 236.887,18.1927 236.887,18.7031 L236.887,19.1602 L231.82,19.1602 L231.82,18.1289 L235.32,18.1289 C235.32,17.8893 235.268,17.6771 235.164,17.4922 C235.06,17.3073 234.916,17.1621 234.732,17.0566 C234.549,16.9512 234.336,16.8984 234.094,16.8984 C233.841,16.8984 233.618,16.9564 233.424,17.0723 C233.23,17.1882 233.078,17.3431 232.969,17.5371 C232.859,17.7311 232.803,17.9466 232.801,18.1836 L232.801,19.1641 C232.801,19.4609 232.856,19.7174 232.967,19.9336 C233.077,20.1497 233.234,20.3164 233.438,20.4336 C233.641,20.5508 233.882,20.6094 234.16,20.6094 C234.345,20.6094 234.514,20.5833 234.668,20.5313 C234.822,20.4792 234.953,20.401 235.063,20.2969 C235.172,20.1927 235.255,20.0651 235.313,19.9141 L236.852,20.0156 C236.773,20.3854 236.614,20.7077 236.373,20.9824 C236.132,21.2572 235.822,21.4707 235.443,21.623 C235.064,21.7754 234.628,21.8516 234.133,21.8516 "/>
</g>

<g fill="#ffffff" fill-opacity="1" stroke="none" transform="matrix(0.0285,0,0,0.0285,11.2928,9.44754)"
font-family="Inter" font-size="11" font-weight="700" font-style="normal" 
>
<path vector-effect="none" fill-rule="nonzero" d="M410.778,59.991 C376.729,59.991 346.629,75.6235 326.182,99.684 C216.768,129.689 131.433,215.271 101.927,324.891 C79.5232,345.494 65.3275,374.762 65.54,407.6 C65.7463,439.573 79.3407,468.172 100.975,488.421 C130.228,601.34 218.744,689.335 331.859,718.096 C331.956,718.125 331.989,718.313 332.085,718.338 C352.242,738.376 380.064,750.708 410.778,750.708 C441.492,750.708 469.314,738.376 489.47,718.338 C489.549,718.262 489.618,718.17 489.696,718.096 C604.323,688.948 693.738,598.994 721.758,483.921 C742.939,463.42 756.216,434.907 756.015,403.1 C755.801,370.079 741.086,340.899 718.209,320.633 C687.622,213.077 603.338,129.291 495.373,99.684 C474.926,75.6235 444.827,59.991 410.778,59.991 M410.778,91.8938 C455.052,91.8938 490.89,127.731 490.89,172.006 C490.89,216.28 455.052,252.102 410.778,252.102 C366.503,252.102 330.666,216.28 330.666,172.006 C330.666,127.731 366.503,91.8938 410.778,91.8938 M177.071,325.601 C221.346,325.601 257.183,361.438 257.183,405.713 C257.183,449.987 221.346,485.808 177.071,485.808 C132.796,485.808 96.7332,449.987 96.7332,405.713 C96.7332,361.438 132.796,325.601 177.071,325.601 M644.485,325.601 C688.763,325.601 724.822,361.438 724.822,405.713 C724.822,449.987 688.763,485.808 644.485,485.808 C600.21,485.808 564.373,449.987 564.373,405.713 C564.373,361.438 600.21,325.601 644.485,325.601 M396.601,335.762 L424.955,335.762 C431.754,335.762 437.245,342.538 437.245,350.891 L437.245,381.6 L467.971,381.6 C476.323,381.6 483.083,387.091 483.083,393.89 L483.083,422.245 C483.083,429.044 476.323,434.535 467.971,434.535 L437.245,434.535 L437.245,465.26 C437.245,473.612 431.754,480.373 424.955,480.373 L396.601,480.373 C389.801,480.373 384.31,473.613 384.31,465.26 L384.31,434.535 L353.585,434.535 C345.233,434.535 338.472,429.044 338.472,422.245 L338.472,393.89 C338.472,387.091 345.232,381.6 353.585,381.6 L384.31,381.6 L384.31,350.891 C384.31,342.539 389.801,335.762 396.601,335.762 M410.778,559.307 C455.052,559.307 490.89,595.371 490.89,639.645 C490.89,683.918 455.052,719.757 410.778,719.757 C366.503,719.757 330.666,683.918 330.666,639.645 C330.666,595.371 366.503,559.307 410.778,559.307 "/>
</g>

<g fill="none" stroke="#000000" stroke-opacity="1" stroke-width="22.7975" stroke-linecap="round" stroke-linejoin="round" transform="matrix(0.0285,0,0,0.0285,11.2928,9.44754)"
font-family="Inter" font-size="11" font-weight="700" font-style="normal" 
>
<path vector-effect="none" fill-rule="nonzero" d="M410.778,59.991 C376.729,59.991 346.629,75.6235 326.182,99.684 C216.768,129.689 131.433,215.271 101.927,324.891 C79.5232,345.494 65.3275,374.762 65.54,407.6 C65.7463,439.573 79.3407,468.172 100.975,488.421 C130.228,601.34 218.744,689.335 331.859,718.096 C331.956,718.125 331.989,718.313 332.085,718.338 C352.242,738.376 380.064,750.708 410.778,750.708 C441.492,750.708 469.314,738.376 489.47,718.338 C489.549,718.262 489.618,718.17 489.696,718.096 C604.323,688.948 693.738,598.994 721.758,483.921 C742.939,463.42 756.216,434.907 756.015,403.1 C755.801,370.079 741.086,340.899 718.209,320.633 C687.622,213.077 603.338,129.291 495.373,99.684 C474.926,75.6235 444.827,59.991 410.778,59.991 M410.778,91.8938 C455.052,91.8938 490.89,127.731 490.89,172.006 C490.89,216.28 455.052,252.102 410.778,252.102 C366.503,252.102 330.666,216.28 330.666,172.006 C330.666,127.731 366.503,91.8938 410.778,91.8938 M177.071,325.601 C221.346,325.601 257.183,361.438 257.183,405.713 C257.183,449.987 221.346,485.808 177.071,485.808 C132.796,485.808 96.7332,449.987 96.7332,405.713 C96.7332,361.438 132.796,325.601 177.071,325.601 M644.485,325.601 C688.763,325.601 724.822,361.438 724.822,405.713 C724.822,449.987 688.763,485.808 644.485,485.808 C600.21,485.808 564.373,449.987 564.373,405.713 C564.373,361.438 600.21,325.601 644.485,325.601 M396.601,335.762 L424.955,335.762 C431.754,335.762 437.245,342.538 437.245,350.891 L437.245,381.6 L467.971,381.6 C476.323,381.6 483.083,387.091 483.083,393.89 L483.083,422.245 C483.083,429.044 476.323,434.535 467.971,434.535 L437.245,434.535 L437.245,465.26 C437.245,473.612 431.754,480.373 424.955,480.373 L396.601,480.373 C389.801,480.373 384.31,473.613 384.31,465.26 L384.31,434.535 L353.585,434.535 C345.233,434.535 338.472,429.044 338.472,422.245 L338.472,393.89 C338.472,387.091 345.232,381.6 353.585,381.6 L384.31,381.6 L384.31,350.891 C384.31,342.539 389.801,335.762 396.601,335.762 M410.778,559.307 C455.052,559.307 490.89,595.371 490.89,639.645 C490.89,683.918 455.052,719.757 410.778,719.757 C366.503,719.757 330.666,683.918 330.666,639.645 C330.666,595.371 366.503,559.307 410.778,559.307 "/>
</g>

<g fill="#000000" fill-opacity="1" stroke="none" transform="matrix(0.0285,0,0,0.0285,11.2928,9.44754)"
font-family="Inter" font-size="11" font-weight="700" font-style="normal" 
>
<path vector-effect="none" fill-rule="evenodd" d="M394.961,355.661 C394.961,347.613 401.485,341.088 409.533,341.088 C417.582,341.088 424.106,347.613 424.106,355.661 L424.106,457.48 C424.106,465.528 417.582,472.053 409.533,472.053 C401.485,472.053 394.961,465.528 394.961,457.48 L394.961,355.661"/>
</g>

<g fill="none" stroke="#000000" stroke-opacity="1" stroke-width="20" stroke-linecap="round" stroke-linejoin="round" transform="matrix(0.0285,0,0,0.0285,11.2928,9.44754)"
font-family="Inter" font-size="11" font-weight="700" font-style="normal" 
>
<path vector-effect="none" fill-rule="evenodd" d="M394.961,355.661 C394.961,347.613 401.485,341.088 409.533,341.088 C417.582,341.088 424.106,347.613 424.106,355.661 L424.106,457.48 C424.106,465.528 417.582,472.053 409.533,472.053 C401.485,472.053 394.961,465.528 394.961,457.48 L394.961,355.661"/>
</g>

<g fill="#000000" fill-opacity="1" stroke="none" transform="matrix(0,0.0285,-0.0285,0,11.2928,9.44754)"
font-family="Inter" font-size="11" font-weight="700" font-style="normal" 
>
<path vector-effect="none" fill-rule="evenodd" d="M394.152,-461.016 C394.152,-469.064 400.676,-475.588 408.724,-475.588 C416.773,-475.588 423.297,-469.064 423.297,-461.016 L423.297,-359.196 C423.297,-351.148 416.773,-344.624 408.724,-344.624 C400.676,-344.624 394.152,-351.148 394.152,-359.196 L394.152,-461.016"/>
</g>

<g fill="none" stroke="#000000" stroke-opacity="1" stroke-width="20" stroke-linecap="round" stroke-linejoin="round" transform="matrix(0,0.0285,-0.0285,0,11.2928,9.44754)"
font-family="Inter" font-size="11" font-weight="700" font-style="normal" 
>
<path vector-effect="none" fill-rule="evenodd" d="M394.152,-461.016 C394.152,-469.064 400.676,-475.588 408.724,-475.588 C416.773,-475.588 423.297,-469.064 423.297,-461.016 L423.297,-359.196 C423.297,-351.148 416.773,-344.624 408.724,-344.624 C400.676,-344.624 394.152,-351.148 394.152,-359.196 L394.152,-461.016"/>
</g>

<g fill="#ffffff" fill-opacity="1" stroke="none" transform="matrix(1,0,0,1,0,0)"
font-family="Inter" font-size="11" font-weight="700" font-style="normal" 
>
</g>

<g fill="#ffffff" fill-opacity="1" stroke="#0070ba" stroke-opacity="1" stroke-width="1" stroke-linecap="square" stroke-linejoin="bevel" transform="matrix(1,0,0,1,0,0)"
font-family="Inter" font-size="11" font-weight="700" font-style="normal" 
>
<polyline fill="none" vector-effect="none" points="45,11 45,31 " />
</g>

<g fill="#ffffff" fill-opacity="1" stroke="#0070ba" stroke-opacity="1" stroke-width="1" stroke-linecap="square" stroke-linejoin="bevel" transform="matrix(1,0,0,1,0,0)"
font-family="Inter" font-size="11" font-weight="700" font-style="normal" 
>
</g>

<g fill="#0090f5" fill-opacity="1" stroke="#0070ba" stroke-opacity="1" stroke-width="1.2" stroke-linecap="square" stroke-linejoin="bevel" transform="matrix(1,0,0,1,243,6)"
font-family="Inter" font-size="11" font-weight="700" font-style="normal" 
>
<path vector-effect="none" fill-rule="evenodd" d="M0.5,3.5 C0.5,1.84315 1.84315,0.5 3.5,0.5 L44,0.5 C45.6569,0.5 47,1.84315 47,3.5 L47,20.5 C47,22.1569 45.6569,23.5 44,23.5 L3.5,23.5 C1.84315,23.5 0.5,22.1569 0.5,20.5 L0.5,3.5"/>
</g>

<g fill="#ffffff" fill-opacity="1" stroke="none" transform="matrix(1,0,0,1,243,6)"
font-family="Inter" font-size="11" font-weight="700" font-style="normal" 
>
<path vector-effect="none" fill-rule="nonzero" d="M12.4531,16.1172 C11.8464,16.1172 11.3223,15.9876 10.8809,15.7285 C10.4395,15.4694 10.099,15.1074 9.85938,14.6426 C9.61979,14.1777 9.5,13.638 9.5,13.0234 C9.5,12.4036 9.61979,11.8613 9.85938,11.3965 C10.099,10.9316 10.4395,10.5697 10.8809,10.3105 C11.3223,10.0514 11.8464,9.92188 12.4531,9.92188 C13.0599,9.92188 13.584,10.0514 14.0254,10.3105 C14.4668,10.5697 14.8073,10.9316 15.0469,11.3965 C15.2865,11.8613 15.4063,12.4036 15.4063,13.0234 C15.4063,13.638 15.2865,14.1777 15.0469,14.6426 C14.8073,15.1074 14.4668,15.4694 14.0254,15.7285 C13.584,15.9876 13.0599,16.1172 12.4531,16.1172 M12.4609,14.8281 C12.737,14.8281 12.9674,14.7493 13.1523,14.5918 C13.3372,14.4342 13.4772,14.2188 13.5723,13.9453 C13.6673,13.6719 13.7148,13.3607 13.7148,13.0117 C13.7148,12.6628 13.6673,12.3516 13.5723,12.0781 C13.4772,11.8047 13.3372,11.5885 13.1523,11.4297 C12.9674,11.2708 12.737,11.1914 12.4609,11.1914 C12.1823,11.1914 11.9486,11.2708 11.7598,11.4297 C11.571,11.5885 11.429,11.8047 11.334,12.0781 C11.2389,12.3516 11.1914,12.6628 11.1914,13.0117 C11.1914,13.3607 11.2389,13.6719 11.334,13.9453 C11.429,14.2188 11.571,14.4342 11.7598,14.5918 C11.9486,14.7493 12.1823,14.8281 12.4609,14.8281 M19.7188,10 L19.7188,11.25 L16.0156,11.25 L16.0156,10 L19.7188,10 M16.8633,16 L16.8633,9.56641 C16.8633,9.13151 16.9486,8.77083 17.1191,8.48438 C17.2897,8.19792 17.5234,7.98307 17.8203,7.83984 C18.1172,7.69661 18.4544,7.625 18.832,7.625 C19.0872,7.625 19.321,7.64453 19.5332,7.68359 C19.7454,7.72266 19.9036,7.75781 20.0078,7.78906 L19.7109,9.03906 C19.6458,9.01823 19.5658,8.9987 19.4707,8.98047 C19.3757,8.96224 19.2786,8.95313 19.1797,8.95313 C18.9349,8.95313 18.7643,9.00977 18.668,9.12305 C18.5716,9.23633 18.5234,9.39453 18.5234,9.59766 L18.5234,16 L16.8633,16 M23.9531,10 L23.9531,11.25 L20.25,11.25 L20.25,10 L23.9531,10 M21.0977,16 L21.0977,9.56641 C21.0977,9.13151 21.1829,8.77083 21.3535,8.48438 C21.5241,8.19792 21.7578,7.98307 22.0547,7.83984 C22.3516,7.69661 22.6888,7.625 23.0664,7.625 C23.3216,7.625 23.5553,7.64453 23.7676,7.68359 C23.9798,7.72266 24.138,7.75781 24.2422,7.78906 L23.9453,9.03906 C23.8802,9.01823 23.8001,8.9987 23.7051,8.98047 C23.61,8.96224 23.513,8.95313 23.4141,8.95313 C23.1693,8.95313 22.9987,9.00977 22.9023,9.12305 C22.806,9.23633 22.7578,9.39453 22.7578,9.59766 L22.7578,16 L21.0977,16"/>
</g>

<g fill="#ffffff" fill-opacity="1" stroke="none" transform="matrix(0.03125,0,0,0.03125,276.5,14)"
font-family="Inter" font-size="11" font-weight="700" font-style="normal" 
>
<path vector-effect="none" fill-rule="nonzero" d="M111.326,191.938 C120.545,201.158 135.517,201.158 144.737,191.938 L239.144,97.5313 C245.929,90.7458 247.921,80.6413 244.233,71.7907 C240.545,62.9401 231.989,57.1871 222.401,57.1871 L33.5875,57.2608 C24.0731,57.2608 15.4437,63.0137 11.7559,71.8644 C8.06815,80.715 10.1333,90.8195 16.845,97.605 L111.252,192.012 L111.326,191.938"/>
</g>

<g fill="none" stroke="#000000" stroke-opacity="1" stroke-width="13.7195" stroke-linecap="butt" stroke-linejoin="miter" stroke-miterlimit="4" transform="matrix(0.03125,0,0,0.03125,276.5,14)"
font-family="Inter" font-size="11" font-weight="700" font-style="normal" 
>
<path vector-effect="none" fill-rule="nonzero" d="M111.326,191.938 C120.545,201.158 135.517,201.158 144.737,191.938 L239.144,97.5313 C245.929,90.7458 247.921,80.6413 244.233,71.7907 C240.545,62.9401 231.989,57.1871 222.401,57.1871 L33.5875,57.2608 C24.0731,57.2608 15.4437,63.0137 11.7559,71.8644 C8.06815,80.715 10.1333,90.8195 16.845,97.605 L111.252,192.012 L111.326,191.938"/>
</g>

<g fill="#ffffff" fill-opacity="1" stroke="none" transform="matrix(1,0,0,1,243,6)"
font-family="Inter" font-size="11" font-weight="700" font-style="normal" 
>
</g>

<g fill="#ffffff" fill-opacity="1" stroke="#0070ba" stroke-opacity="1" stroke-width="1" stroke-linecap="square" stroke-linejoin="bevel" transform="matrix(1,0,0,1,0,0)"
font-family="Inter" font-size="11" font-weight="700" font-style="normal" 
>
</g>

<g fill="#ffffff" fill-opacity="1" stroke="#0070ba" stroke-opacity="1" stroke-width="1" stroke-linecap="square" stroke-linejoin="bevel" transform="matrix(1,0,0,1,0,0)"
font-family="Inter" font-size="11" font-weight="700" font-style="normal" 
>
</g>

<g fill="#ffffff" fill-opacity="1" stroke="#0070ba" stroke-opacity="1" stroke-width="1" stroke-linecap="square" stroke-linejoin="bevel" transform="matrix(1,0,0,1,0,0)"
font-family="Inter" font-size="11" font-weight="700" font-style="normal" 
>
</g>

<g fill="#0090f5" fill-opacity="1" stroke="#0070ba" stroke-opacity="1" stroke-width="1.2" stroke-linecap="square" stroke-linejoin="bevel" transform="matrix(1,0,0,1,56,6)"
font-family="Inter" font-size="11" font-weight="700" font-style="normal" 
>
<path vector-effect="none" fill-rule="evenodd" d="M0.5,3.5 C0.5,1.84315 1.84315,0.5 3.5,0.5 L81.5,0.5 C83.1569,0.5 84.5,1.84315 84.5,3.5 L84.5,20.5 C84.5,22.1569 83.1569,23.5 81.5,23.5 L3.5,23.5 C1.84315,23.5 0.5,22.1569 0.5,20.5 L0.5,3.5"/>
</g>

<g fill="#ffffff" fill-opacity="1" stroke="none" transform="matrix(1,0,0,1,56,6)"
font-family="Inter" font-size="11" font-weight="700" font-style="normal" 
>
<path vector-effect="none" fill-rule="nonzero" d="M10,9.39453 L10,8 L16.5703,8 L16.5703,9.39453 L14.1211,9.39453 L14.1211,16 L12.4492,16 L12.4492,9.39453 L10,9.39453 M17.6484,16 L17.6484,8 L19.3398,8 L19.3398,11.3008 L22.7734,11.3008 L22.7734,8 L24.4609,8 L24.4609,16 L22.7734,16 L22.7734,12.6953 L19.3398,12.6953 L19.3398,16 L17.6484,16 M25.8516,8 L27.9375,8 L30.1406,13.375 L30.2344,13.375 L32.4375,8 L34.5234,8 L34.5234,16 L32.8828,16 L32.8828,10.793 L32.8164,10.793 L30.7461,15.9609 L29.6289,15.9609 L27.5586,10.7734 L27.4922,10.7734 L27.4922,16 L25.8516,16 L25.8516,8 M37.3594,8 L39.293,14.0781 L39.3672,14.0781 L41.3047,8 L43.1797,8 L40.4219,16 L38.2422,16 L35.4805,8 L37.3594,8 M44.1328,16 L44.1328,8 L45.8242,8 L45.8242,11.3008 L49.2578,11.3008 L49.2578,8 L50.9453,8 L50.9453,16 L49.2578,16 L49.2578,12.6953 L45.8242,12.6953 L45.8242,16 L44.1328,16 M52.3359,16 L52.3359,8 L55.5391,8 C56.1276,8 56.6185,8.08724 57.0117,8.26172 C57.4049,8.4362 57.7005,8.67773 57.8984,8.98633 C58.0964,9.29492 58.1953,9.64974 58.1953,10.0508 C58.1953,10.3633 58.1328,10.6374 58.0078,10.873 C57.8828,11.1087 57.7116,11.3014 57.4941,11.4512 C57.2767,11.6009 57.0286,11.707 56.75,11.7695 L56.75,11.8477 C57.0547,11.8607 57.3405,11.9466 57.6074,12.1055 C57.8743,12.2643 58.0911,12.4863 58.2578,12.7715 C58.4245,13.0566 58.5078,13.3958 58.5078,13.7891 C58.5078,14.2135 58.403,14.5918 58.1934,14.9238 C57.9837,15.2559 57.6745,15.5182 57.2656,15.7109 C56.8568,15.9036 56.3529,16 55.7539,16 L52.3359,16 M54.0273,14.6172 L55.4063,14.6172 C55.8776,14.6172 56.2214,14.5267 56.4375,14.3457 C56.6536,14.1647 56.7617,13.9232 56.7617,13.6211 C56.7617,13.3997 56.7083,13.2044 56.6016,13.0352 C56.4948,12.8659 56.3431,12.7331 56.1465,12.6367 C55.9499,12.5404 55.7161,12.4922 55.4453,12.4922 L54.0273,12.4922 L54.0273,14.6172 M54.0273,11.3477 L55.2813,11.3477 C55.513,11.3477 55.7194,11.3066 55.9004,11.2246 C56.0814,11.1426 56.2246,11.026 56.3301,10.875 C56.4355,10.724 56.4883,10.543 56.4883,10.332 C56.4883,10.043 56.3861,9.8099 56.1816,9.63281 C55.9772,9.45573 55.6875,9.36719 55.3125,9.36719 L54.0273,9.36719 L54.0273,11.3477 M63.0352,8 L63.0352,16 L61.3438,16 L61.3438,9.60547 L61.2969,9.60547 L59.4648,10.7539 L59.4648,9.25391 L61.4453,8 L63.0352,8"/>
</g>

<g fill="#ffffff" fill-opacity="1" stroke="none" transform="matrix(0.03125,0,0,0.03125,127,14)"
font-family="Inter" font-size="11" font-weight="700" font-style="normal" 
>
<path vector-effect="none" fill-rule="nonzero" d="M111.326,191.938 C120.545,201.158 135.517,201.158 144.737,191.938 L239.144,97.5313 C245.929,90.7458 247.921,80.6413 244.233,71.7907 C240.545,62.9401 231.989,57.1871 222.401,57.1871 L33.5875,57.2608 C24.0731,57.2608 15.4437,63.0137 11.7559,71.8644 C8.06815,80.715 10.1333,90.8195 16.845,97.605 L111.252,192.012 L111.326,191.938"/>
</g>

<g fill="none" stroke="#000000" stroke-opacity="1" stroke-width="13.7195" stroke-linecap="butt" stroke-linejoin="miter" stroke-miterlimit="4" transform="matrix(0.03125,0,0,0.03125,127,14)"
font-family="Inter" font-size="11" font-weight="700" font-style="normal" 
>
<path vector-effect="none" fill-rule="nonzero" d="M111.326,191.938 C120.545,201.158 135.517,201.158 144.737,191.938 L239.144,97.5313 C245.929,90.7458 247.921,80.6413 244.233,71.7907 C240.545,62.9401 231.989,57.1871 222.401,57.1871 L33.5875,57.2608 C24.0731,57.2608 15.4437,63.0137 11.7559,71.8644 C8.06815,80.715 10.1333,90.8195 16.845,97.605 L111.252,192.012 L111.326,191.938"/>
</g>

<g fill="#ffffff" fill-opacity="1" stroke="none" transform="matrix(1,0,0,1,56,6)"
font-family="Inter" font-size="11" font-weight="700" font-style="normal" 
>
</g>

<g fill="#ffffff" fill-opacity="1" stroke="#0070ba" stroke-opacity="1" stroke-width="1" stroke-linecap="square" stroke-linejoin="bevel" transform="matrix(1,0,0,1,0,0)"
font-family="Inter" font-size="11" font-weight="700" font-style="normal" 
>
</g>

<g fill="none" stroke="#000000" stroke-opacity="1" stroke-width="1" stroke-linecap="square" stroke-linejoin="bevel" transform="matrix(1,0,0,1,0,0)"
font-family=".AppleSystemUIFont" font-size="13" font-weight="400" font-style="normal" 
>
</g>
</g>
</svg>
