<?xml version="1.0" encoding="UTF-8" standalone="no"?>
<svg width="143.228mm" height="15.5222mm"
 viewBox="0 0 406 44"
 xmlns="http://www.w3.org/2000/svg" xmlns:xlink="http://www.w3.org/1999/xlink" version="1.2" baseProfile="tiny">
<title>Abstract block</title>
<desc>block_hubs_all_motors_port_go_to_position</desc>
<defs>
</defs>
<g fill="none" stroke="black" stroke-width="1" fill-rule="evenodd" stroke-linecap="square" stroke-linejoin="bevel" >

<g fill="none" stroke="#000000" stroke-opacity="1" stroke-width="1" stroke-linecap="square" stroke-linejoin="bevel" transform="matrix(1,0,0,1,0,0)"
font-family=".AppleSystemUIFont" font-size="13" font-weight="400" font-style="normal" 
>
</g>

<g fill="none" stroke="#000000" stroke-opacity="1" stroke-width="1" stroke-linecap="square" stroke-linejoin="bevel" transform="matrix(1,0,0,1,0,0)"
font-family=".AppleSystemUIFont" font-size="13" font-weight="400" font-style="normal" 
>
</g>

<g fill="#0090f5" fill-opacity="1" stroke="#0070ba" stroke-opacity="1" stroke-width="1.2" stroke-linecap="square" stroke-linejoin="bevel" transform="matrix(1,0,0,1,0,0)"
font-family=".AppleSystemUIFont" font-size="13" font-weight="400" font-style="normal" 
>
<path vector-effect="none" fill-rule="evenodd" d="M0.5,4.5 L1.04612,2.48112 L2.48112,1.04612 L4.5,0.5 L9.625,0.5 L10.416,0.976563 L11.1719,1.6875 L11.998,2.67969 L13,4 L13.7559,4.66016 L14.5469,5.15625 L15.4082,5.51172 L16.375,5.75 L17.4824,5.89453 L18.7656,5.96875 L20.2598,5.99609 L22,6 L23.7402,5.99609 L25.2344,5.96875 L26.5176,5.89453 L27.625,5.75 L28.5918,5.51172 L29.4531,5.15625 L30.2441,4.66016 L31,4 L32.002,2.67969 L32.8281,1.6875 L33.584,0.976563 L34.375,0.5 L400.9,0.5 L402.919,1.04612 L404.354,2.48112 L404.9,4.5 L404.9,31.5 L404.354,33.5189 L402.919,34.9539 L400.9,35.5 L34.375,35.5 L33.584,35.9766 L32.8281,36.6875 L32.002,37.6797 L31,39 L30.2441,39.6602 L29.4531,40.1563 L28.5918,40.5117 L27.625,40.75 L26.5176,40.8945 L25.2344,40.9688 L23.7402,40.9961 L22,41 L20.2598,40.9961 L18.7656,40.9688 L17.4824,40.8945 L16.375,40.75 L15.4082,40.5117 L14.5469,40.1563 L13.7559,39.6602 L13,39 L11.998,37.6797 L11.1719,36.6875 L10.416,35.9766 L9.625,35.5 L4.5,35.5 L2.48112,34.9539 L1.04612,33.5189 L0.5,31.5 L0.5,4.5"/>
</g>

<g fill="#ffffff" fill-opacity="1" stroke="none" transform="matrix(1,0,0,1,0,0)"
font-family="Inter" font-size="11" font-weight="700" font-style="normal" 
>
<path vector-effect="none" fill-rule="nonzero" d="M183.695,22.1875 C183.156,22.1875 182.695,22.1139 182.311,21.9668 C181.926,21.8197 181.621,21.6198 181.395,21.3672 C181.168,21.1146 181.021,20.8307 180.953,20.5156 L182.492,20.3086 C182.539,20.4284 182.613,20.5404 182.715,20.6445 C182.816,20.7487 182.951,20.8327 183.119,20.8965 C183.287,20.9603 183.492,20.9922 183.734,20.9922 C184.096,20.9922 184.395,20.9043 184.631,20.7285 C184.867,20.5527 184.984,20.2591 184.984,19.8477 L184.984,18.75 L184.914,18.75 C184.841,18.9167 184.732,19.0742 184.586,19.2227 C184.44,19.3711 184.253,19.4922 184.023,19.5859 C183.794,19.6797 183.521,19.7266 183.203,19.7266 C182.753,19.7266 182.343,19.6217 181.975,19.4121 C181.606,19.2025 181.313,18.8809 181.096,18.4473 C180.878,18.0137 180.77,17.4648 180.77,16.8008 C180.77,16.1211 180.88,15.5534 181.102,15.0977 C181.323,14.6419 181.618,14.3008 181.986,14.0742 C182.355,13.8477 182.759,13.7344 183.199,13.7344 C183.535,13.7344 183.816,13.791 184.043,13.9043 C184.27,14.0176 184.452,14.1582 184.592,14.3262 C184.731,14.4941 184.839,14.6589 184.914,14.8203 L184.977,14.8203 L184.977,13.8125 L186.629,13.8125 L186.629,19.8711 C186.629,20.3815 186.504,20.8086 186.254,21.1523 C186.004,21.4961 185.658,21.7546 185.217,21.9277 C184.775,22.1009 184.268,22.1875 183.695,22.1875 M183.73,18.4766 C183.999,18.4766 184.226,18.4095 184.412,18.2754 C184.598,18.1413 184.742,17.9486 184.842,17.6973 C184.942,17.446 184.992,17.1445 184.992,16.793 C184.992,16.4414 184.943,16.1361 184.844,15.877 C184.745,15.6178 184.602,15.4167 184.414,15.2734 C184.227,15.1302 183.999,15.0586 183.73,15.0586 C183.457,15.0586 183.227,15.1322 183.039,15.2793 C182.852,15.4264 182.71,15.6302 182.613,15.8906 C182.517,16.151 182.469,16.4518 182.469,16.793 C182.469,17.1393 182.518,17.4382 182.615,17.6895 C182.713,17.9408 182.855,18.1348 183.041,18.2715 C183.227,18.4082 183.457,18.4766 183.73,18.4766 M190.656,19.9297 C190.049,19.9297 189.525,19.8001 189.084,19.541 C188.643,19.2819 188.302,18.9199 188.063,18.4551 C187.823,17.9902 187.703,17.4505 187.703,16.8359 C187.703,16.2161 187.823,15.6738 188.063,15.209 C188.302,14.7441 188.643,14.3822 189.084,14.123 C189.525,13.8639 190.049,13.7344 190.656,13.7344 C191.263,13.7344 191.787,13.8639 192.229,14.123 C192.67,14.3822 193.01,14.7441 193.25,15.209 C193.49,15.6738 193.609,16.2161 193.609,16.8359 C193.609,17.4505 193.49,17.9902 193.25,18.4551 C193.01,18.9199 192.67,19.2819 192.229,19.541 C191.787,19.8001 191.263,19.9297 190.656,19.9297 M190.664,18.6406 C190.94,18.6406 191.171,18.5618 191.355,18.4043 C191.54,18.2467 191.68,18.0313 191.775,17.7578 C191.87,17.4844 191.918,17.1732 191.918,16.8242 C191.918,16.4753 191.87,16.1641 191.775,15.8906 C191.68,15.6172 191.54,15.401 191.355,15.2422 C191.171,15.0833 190.94,15.0039 190.664,15.0039 C190.385,15.0039 190.152,15.0833 189.963,15.2422 C189.774,15.401 189.632,15.6172 189.537,15.8906 C189.442,16.1641 189.395,16.4753 189.395,16.8242 C189.395,17.1732 189.442,17.4844 189.537,17.7578 C189.632,18.0313 189.774,18.2467 189.963,18.4043 C190.152,18.5618 190.385,18.6406 190.664,18.6406 "/>
</g>

<g fill="#ffffff" fill-opacity="1" stroke="none" transform="matrix(1,0,0,1,0,0)"
font-family="Inter" font-size="11" font-weight="700" font-style="normal" 
>
<path vector-effect="none" fill-rule="nonzero" d="M312.465,15.0625 L312.465,16.3125 L308.852,16.3125 L308.852,15.0625 L312.465,15.0625 M309.672,13.625 L311.336,13.625 L311.336,19.2188 C311.336,19.3724 311.359,19.4915 311.406,19.5762 C311.453,19.6608 311.519,19.7201 311.604,19.7539 C311.688,19.7878 311.786,19.8047 311.898,19.8047 C311.977,19.8047 312.055,19.7975 312.133,19.7832 C312.211,19.7689 312.271,19.7578 312.313,19.75 L312.574,20.9883 C312.491,21.0143 312.374,21.0449 312.223,21.0801 C312.072,21.1152 311.888,21.1367 311.672,21.1445 C311.271,21.1602 310.92,21.1068 310.619,20.9844 C310.318,20.862 310.085,20.6719 309.918,20.4141 C309.751,20.1563 309.669,19.8307 309.672,19.4375 L309.672,13.625 M316.188,21.1797 C315.581,21.1797 315.057,21.0501 314.615,20.791 C314.174,20.5319 313.833,20.1699 313.594,19.7051 C313.354,19.2402 313.234,18.7005 313.234,18.0859 C313.234,17.4661 313.354,16.9238 313.594,16.459 C313.833,15.9941 314.174,15.6322 314.615,15.373 C315.057,15.1139 315.581,14.9844 316.188,14.9844 C316.794,14.9844 317.318,15.1139 317.76,15.373 C318.201,15.6322 318.542,15.9941 318.781,16.459 C319.021,16.9238 319.141,17.4661 319.141,18.0859 C319.141,18.7005 319.021,19.2402 318.781,19.7051 C318.542,20.1699 318.201,20.5319 317.76,20.791 C317.318,21.0501 316.794,21.1797 316.188,21.1797 M316.195,19.8906 C316.471,19.8906 316.702,19.8118 316.887,19.6543 C317.072,19.4967 317.212,19.2813 317.307,19.0078 C317.402,18.7344 317.449,18.4232 317.449,18.0742 C317.449,17.7253 317.402,17.4141 317.307,17.1406 C317.212,16.8672 317.072,16.651 316.887,16.4922 C316.702,16.3333 316.471,16.2539 316.195,16.2539 C315.917,16.2539 315.683,16.3333 315.494,16.4922 C315.305,16.651 315.163,16.8672 315.068,17.1406 C314.973,17.4141 314.926,17.7253 314.926,18.0742 C314.926,18.4232 314.973,18.7344 315.068,19.0078 C315.163,19.2813 315.305,19.4967 315.494,19.6543 C315.683,19.8118 315.917,19.8906 316.195,19.8906 M322.773,23.3125 L322.773,15.0625 L324.414,15.0625 L324.414,16.0703 L324.488,16.0703 C324.561,15.9089 324.667,15.7441 324.807,15.5762 C324.946,15.4082 325.128,15.2676 325.354,15.1543 C325.579,15.041 325.859,14.9844 326.195,14.9844 C326.633,14.9844 327.036,15.0983 327.406,15.3262 C327.776,15.554 328.072,15.8965 328.293,16.3535 C328.514,16.8105 328.625,17.3828 328.625,18.0703 C328.625,18.7396 328.518,19.304 328.303,19.7637 C328.088,20.2233 327.796,20.571 327.428,20.8066 C327.059,21.0423 326.647,21.1602 326.191,21.1602 C325.868,21.1602 325.594,21.1068 325.369,21 C325.144,20.8932 324.96,20.7585 324.816,20.5957 C324.673,20.4329 324.564,20.2682 324.488,20.1016 L324.438,20.1016 L324.438,23.3125 L322.773,23.3125 M324.402,18.0625 C324.402,18.4193 324.452,18.7305 324.551,18.9961 C324.65,19.2617 324.793,19.4681 324.98,19.6152 C325.168,19.7624 325.396,19.8359 325.664,19.8359 C325.935,19.8359 326.164,19.7611 326.352,19.6113 C326.539,19.4616 326.682,19.2533 326.779,18.9863 C326.877,18.7194 326.926,18.4115 326.926,18.0625 C326.926,17.7161 326.878,17.4115 326.781,17.1484 C326.685,16.8854 326.543,16.6797 326.355,16.5313 C326.168,16.3828 325.938,16.3086 325.664,16.3086 C325.393,16.3086 325.165,16.3802 324.979,16.5234 C324.792,16.6667 324.65,16.8698 324.551,17.1328 C324.452,17.3958 324.402,17.7057 324.402,18.0625 M332.438,21.1797 C331.831,21.1797 331.307,21.0501 330.865,20.791 C330.424,20.5319 330.083,20.1699 329.844,19.7051 C329.604,19.2402 329.484,18.7005 329.484,18.0859 C329.484,17.4661 329.604,16.9238 329.844,16.459 C330.083,15.9941 330.424,15.6322 330.865,15.373 C331.307,15.1139 331.831,14.9844 332.438,14.9844 C333.044,14.9844 333.568,15.1139 334.01,15.373 C334.451,15.6322 334.792,15.9941 335.031,16.459 C335.271,16.9238 335.391,17.4661 335.391,18.0859 C335.391,18.7005 335.271,19.2402 335.031,19.7051 C334.792,20.1699 334.451,20.5319 334.01,20.791 C333.568,21.0501 333.044,21.1797 332.438,21.1797 M332.445,19.8906 C332.721,19.8906 332.952,19.8118 333.137,19.6543 C333.322,19.4967 333.462,19.2813 333.557,19.0078 C333.652,18.7344 333.699,18.4232 333.699,18.0742 C333.699,17.7253 333.652,17.4141 333.557,17.1406 C333.462,16.8672 333.322,16.651 333.137,16.4922 C332.952,16.3333 332.721,16.2539 332.445,16.2539 C332.167,16.2539 331.933,16.3333 331.744,16.4922 C331.555,16.651 331.413,16.8672 331.318,17.1406 C331.223,17.4141 331.176,17.7253 331.176,18.0742 C331.176,18.4232 331.223,18.7344 331.318,19.0078 C331.413,19.2813 331.555,19.4967 331.744,19.6543 C331.933,19.8118 332.167,19.8906 332.445,19.8906 M341.469,16.7734 L339.945,16.8672 C339.919,16.737 339.863,16.6191 339.777,16.5137 C339.691,16.4082 339.579,16.3236 339.439,16.2598 C339.3,16.196 339.134,16.1641 338.941,16.1641 C338.684,16.1641 338.466,16.2181 338.289,16.3262 C338.112,16.4342 338.023,16.5781 338.023,16.7578 C338.023,16.901 338.081,17.0221 338.195,17.1211 C338.31,17.2201 338.507,17.2995 338.785,17.3594 L339.871,17.5781 C340.454,17.6979 340.889,17.8906 341.176,18.1563 C341.462,18.4219 341.605,18.7708 341.605,19.2031 C341.605,19.5964 341.49,19.9414 341.26,20.2383 C341.029,20.5352 340.714,20.7663 340.314,20.9316 C339.915,21.097 339.454,21.1797 338.934,21.1797 C338.139,21.1797 337.507,21.0137 337.037,20.6816 C336.567,20.3496 336.292,19.8971 336.211,19.3242 L337.848,19.2383 C337.897,19.4805 338.017,19.6647 338.207,19.791 C338.397,19.9173 338.641,19.9805 338.938,19.9805 C339.229,19.9805 339.464,19.9238 339.643,19.8105 C339.821,19.6973 339.911,19.5508 339.914,19.3711 C339.911,19.2201 339.848,19.0957 339.723,18.998 C339.598,18.9004 339.405,18.8255 339.145,18.7734 L338.105,18.5664 C337.52,18.4492 337.084,18.2461 336.799,17.957 C336.514,17.668 336.371,17.2995 336.371,16.8516 C336.371,16.4661 336.476,16.1341 336.686,15.8555 C336.895,15.5768 337.191,15.362 337.572,15.2109 C337.954,15.0599 338.401,14.9844 338.914,14.9844 C339.672,14.9844 340.269,15.1445 340.705,15.4648 C341.141,15.7852 341.396,16.2214 341.469,16.7734 M342.648,21.0625 L342.648,15.0625 L344.313,15.0625 L344.313,21.0625 L342.648,21.0625 M343.484,14.2891 C343.237,14.2891 343.025,14.2064 342.85,14.041 C342.674,13.8757 342.586,13.6771 342.586,13.4453 C342.586,13.2161 342.674,13.0189 342.85,12.8535 C343.025,12.6882 343.237,12.6055 343.484,12.6055 C343.732,12.6055 343.943,12.6882 344.119,12.8535 C344.295,13.0189 344.383,13.2161 344.383,13.4453 C344.383,13.6771 344.295,13.8757 344.119,14.041 C343.943,14.2064 343.732,14.2891 343.484,14.2891 M348.824,15.0625 L348.824,16.3125 L345.211,16.3125 L345.211,15.0625 L348.824,15.0625 M346.031,13.625 L347.695,13.625 L347.695,19.2188 C347.695,19.3724 347.719,19.4915 347.766,19.5762 C347.813,19.6608 347.878,19.7201 347.963,19.7539 C348.048,19.7878 348.146,19.8047 348.258,19.8047 C348.336,19.8047 348.414,19.7975 348.492,19.7832 C348.57,19.7689 348.63,19.7578 348.672,19.75 L348.934,20.9883 C348.85,21.0143 348.733,21.0449 348.582,21.0801 C348.431,21.1152 348.247,21.1367 348.031,21.1445 C347.63,21.1602 347.279,21.1068 346.979,20.9844 C346.678,20.862 346.444,20.6719 346.277,20.4141 C346.111,20.1563 346.029,19.8307 346.031,19.4375 L346.031,13.625 M349.898,21.0625 L349.898,15.0625 L351.563,15.0625 L351.563,21.0625 L349.898,21.0625 M350.734,14.2891 C350.487,14.2891 350.275,14.2064 350.1,14.041 C349.924,13.8757 349.836,13.6771 349.836,13.4453 C349.836,13.2161 349.924,13.0189 350.1,12.8535 C350.275,12.6882 350.487,12.6055 350.734,12.6055 C350.982,12.6055 351.193,12.6882 351.369,12.8535 C351.545,13.0189 351.633,13.2161 351.633,13.4453 C351.633,13.6771 351.545,13.8757 351.369,14.041 C351.193,14.2064 350.982,14.2891 350.734,14.2891 M355.594,21.1797 C354.987,21.1797 354.463,21.0501 354.021,20.791 C353.58,20.5319 353.24,20.1699 353,19.7051 C352.76,19.2402 352.641,18.7005 352.641,18.0859 C352.641,17.4661 352.76,16.9238 353,16.459 C353.24,15.9941 353.58,15.6322 354.021,15.373 C354.463,15.1139 354.987,14.9844 355.594,14.9844 C356.201,14.9844 356.725,15.1139 357.166,15.373 C357.607,15.6322 357.948,15.9941 358.188,16.459 C358.427,16.9238 358.547,17.4661 358.547,18.0859 C358.547,18.7005 358.427,19.2402 358.188,19.7051 C357.948,20.1699 357.607,20.5319 357.166,20.791 C356.725,21.0501 356.201,21.1797 355.594,21.1797 M355.602,19.8906 C355.878,19.8906 356.108,19.8118 356.293,19.6543 C356.478,19.4967 356.618,19.2813 356.713,19.0078 C356.808,18.7344 356.855,18.4232 356.855,18.0742 C356.855,17.7253 356.808,17.4141 356.713,17.1406 C356.618,16.8672 356.478,16.651 356.293,16.4922 C356.108,16.3333 355.878,16.2539 355.602,16.2539 C355.323,16.2539 355.089,16.3333 354.9,16.4922 C354.712,16.651 354.57,16.8672 354.475,17.1406 C354.38,17.4141 354.332,17.7253 354.332,18.0742 C354.332,18.4232 354.38,18.7344 354.475,19.0078 C354.57,19.2813 354.712,19.4967 354.9,19.6543 C355.089,19.8118 355.323,19.8906 355.602,19.8906 M361.297,17.5938 L361.297,21.0625 L359.633,21.0625 L359.633,15.0625 L361.219,15.0625 L361.219,16.1211 L361.289,16.1211 C361.422,15.7721 361.645,15.4954 361.957,15.291 C362.27,15.0866 362.648,14.9844 363.094,14.9844 C363.51,14.9844 363.874,15.0755 364.184,15.2578 C364.493,15.4401 364.734,15.6999 364.906,16.0371 C365.078,16.3743 365.164,16.776 365.164,17.2422 L365.164,21.0625 L363.5,21.0625 L363.5,17.5391 C363.503,17.1719 363.409,16.8848 363.219,16.6777 C363.029,16.4707 362.767,16.3672 362.434,16.3672 C362.21,16.3672 362.012,16.4154 361.842,16.5117 C361.671,16.6081 361.538,16.748 361.443,16.9316 C361.348,17.1152 361.299,17.3359 361.297,17.5938 "/>
</g>

<g fill="#ffffff" fill-opacity="1" stroke="none" transform="matrix(0.0285,0,0,0.0285,11.2928,9.44754)"
font-family="Inter" font-size="11" font-weight="700" font-style="normal" 
>
<path vector-effect="none" fill-rule="nonzero" d="M410.778,59.991 C376.729,59.991 346.629,75.6235 326.182,99.684 C216.768,129.689 131.433,215.271 101.927,324.891 C79.5232,345.494 65.3275,374.762 65.54,407.6 C65.7463,439.573 79.3407,468.172 100.975,488.421 C130.228,601.34 218.744,689.335 331.859,718.096 C331.956,718.125 331.989,718.313 332.085,718.338 C352.242,738.376 380.064,750.708 410.778,750.708 C441.492,750.708 469.314,738.376 489.47,718.338 C489.549,718.262 489.618,718.17 489.696,718.096 C604.323,688.948 693.738,598.994 721.758,483.921 C742.939,463.42 756.216,434.907 756.015,403.1 C755.801,370.079 741.086,340.899 718.209,320.633 C687.622,213.077 603.338,129.291 495.373,99.684 C474.926,75.6235 444.827,59.991 410.778,59.991 M410.778,91.8938 C455.052,91.8938 490.89,127.731 490.89,172.006 C490.89,216.28 455.052,252.102 410.778,252.102 C366.503,252.102 330.666,216.28 330.666,172.006 C330.666,127.731 366.503,91.8938 410.778,91.8938 M177.071,325.601 C221.346,325.601 257.183,361.438 257.183,405.713 C257.183,449.987 221.346,485.808 177.071,485.808 C132.796,485.808 96.7332,449.987 96.7332,405.713 C96.7332,361.438 132.796,325.601 177.071,325.601 M644.485,325.601 C688.763,325.601 724.822,361.438 724.822,405.713 C724.822,449.987 688.763,485.808 644.485,485.808 C600.21,485.808 564.373,449.987 564.373,405.713 C564.373,361.438 600.21,325.601 644.485,325.601 M396.601,335.762 L424.955,335.762 C431.754,335.762 437.245,342.538 437.245,350.891 L437.245,381.6 L467.971,381.6 C476.323,381.6 483.083,387.091 483.083,393.89 L483.083,422.245 C483.083,429.044 476.323,434.535 467.971,434.535 L437.245,434.535 L437.245,465.26 C437.245,473.612 431.754,480.373 424.955,480.373 L396.601,480.373 C389.801,480.373 384.31,473.613 384.31,465.26 L384.31,434.535 L353.585,434.535 C345.233,434.535 338.472,429.044 338.472,422.245 L338.472,393.89 C338.472,387.091 345.232,381.6 353.585,381.6 L384.31,381.6 L384.31,350.891 C384.31,342.539 389.801,335.762 396.601,335.762 M410.778,559.307 C455.052,559.307 490.89,595.371 490.89,639.645 C490.89,683.918 455.052,719.757 410.778,719.757 C366.503,719.757 330.666,683.918 330.666,639.645 C330.666,595.371 366.503,559.307 410.778,559.307 "/>
</g>

<g fill="none" stroke="#000000" stroke-opacity="1" stroke-width="22.7975" stroke-linecap="round" stroke-linejoin="round" transform="matrix(0.0285,0,0,0.0285,11.2928,9.44754)"
font-family="Inter" font-size="11" font-weight="700" font-style="normal" 
>
<path vector-effect="none" fill-rule="nonzero" d="M410.778,59.991 C376.729,59.991 346.629,75.6235 326.182,99.684 C216.768,129.689 131.433,215.271 101.927,324.891 C79.5232,345.494 65.3275,374.762 65.54,407.6 C65.7463,439.573 79.3407,468.172 100.975,488.421 C130.228,601.34 218.744,689.335 331.859,718.096 C331.956,718.125 331.989,718.313 332.085,718.338 C352.242,738.376 380.064,750.708 410.778,750.708 C441.492,750.708 469.314,738.376 489.47,718.338 C489.549,718.262 489.618,718.17 489.696,718.096 C604.323,688.948 693.738,598.994 721.758,483.921 C742.939,463.42 756.216,434.907 756.015,403.1 C755.801,370.079 741.086,340.899 718.209,320.633 C687.622,213.077 603.338,129.291 495.373,99.684 C474.926,75.6235 444.827,59.991 410.778,59.991 M410.778,91.8938 C455.052,91.8938 490.89,127.731 490.89,172.006 C490.89,216.28 455.052,252.102 410.778,252.102 C366.503,252.102 330.666,216.28 330.666,172.006 C330.666,127.731 366.503,91.8938 410.778,91.8938 M177.071,325.601 C221.346,325.601 257.183,361.438 257.183,405.713 C257.183,449.987 221.346,485.808 177.071,485.808 C132.796,485.808 96.7332,449.987 96.7332,405.713 C96.7332,361.438 132.796,325.601 177.071,325.601 M644.485,325.601 C688.763,325.601 724.822,361.438 724.822,405.713 C724.822,449.987 688.763,485.808 644.485,485.808 C600.21,485.808 564.373,449.987 564.373,405.713 C564.373,361.438 600.21,325.601 644.485,325.601 M396.601,335.762 L424.955,335.762 C431.754,335.762 437.245,342.538 437.245,350.891 L437.245,381.6 L467.971,381.6 C476.323,381.6 483.083,387.091 483.083,393.89 L483.083,422.245 C483.083,429.044 476.323,434.535 467.971,434.535 L437.245,434.535 L437.245,465.26 C437.245,473.612 431.754,480.373 424.955,480.373 L396.601,480.373 C389.801,480.373 384.31,473.613 384.31,465.26 L384.31,434.535 L353.585,434.535 C345.233,434.535 338.472,429.044 338.472,422.245 L338.472,393.89 C338.472,387.091 345.232,381.6 353.585,381.6 L384.31,381.6 L384.31,350.891 C384.31,342.539 389.801,335.762 396.601,335.762 M410.778,559.307 C455.052,559.307 490.89,595.371 490.89,639.645 C490.89,683.918 455.052,719.757 410.778,719.757 C366.503,719.757 330.666,683.918 330.666,639.645 C330.666,595.371 366.503,559.307 410.778,559.307 "/>
</g>

<g fill="#000000" fill-opacity="1" stroke="none" transform="matrix(0.0285,0,0,0.0285,11.2928,9.44754)"
font-family="Inter" font-size="11" font-weight="700" font-style="normal" 
>
<path vector-effect="none" fill-rule="evenodd" d="M394.961,355.661 C394.961,347.613 401.485,341.088 409.533,341.088 C417.582,341.088 424.106,347.613 424.106,355.661 L424.106,457.48 C424.106,465.528 417.582,472.053 409.533,472.053 C401.485,472.053 394.961,465.528 394.961,457.48 L394.961,355.661"/>
</g>

<g fill="none" stroke="#000000" stroke-opacity="1" stroke-width="20" stroke-linecap="round" stroke-linejoin="round" transform="matrix(0.0285,0,0,0.0285,11.2928,9.44754)"
font-family="Inter" font-size="11" font-weight="700" font-style="normal" 
>
<path vector-effect="none" fill-rule="evenodd" d="M394.961,355.661 C394.961,347.613 401.485,341.088 409.533,341.088 C417.582,341.088 424.106,347.613 424.106,355.661 L424.106,457.48 C424.106,465.528 417.582,472.053 409.533,472.053 C401.485,472.053 394.961,465.528 394.961,457.48 L394.961,355.661"/>
</g>

<g fill="#000000" fill-opacity="1" stroke="none" transform="matrix(0,0.0285,-0.0285,0,11.2928,9.44754)"
font-family="Inter" font-size="11" font-weight="700" font-style="normal" 
>
<path vector-effect="none" fill-rule="evenodd" d="M394.152,-461.016 C394.152,-469.064 400.676,-475.588 408.724,-475.588 C416.773,-475.588 423.297,-469.064 423.297,-461.016 L423.297,-359.196 C423.297,-351.148 416.773,-344.624 408.724,-344.624 C400.676,-344.624 394.152,-351.148 394.152,-359.196 L394.152,-461.016"/>
</g>

<g fill="none" stroke="#000000" stroke-opacity="1" stroke-width="20" stroke-linecap="round" stroke-linejoin="round" transform="matrix(0,0.0285,-0.0285,0,11.2928,9.44754)"
font-family="Inter" font-size="11" font-weight="700" font-style="normal" 
>
<path vector-effect="none" fill-rule="evenodd" d="M394.152,-461.016 C394.152,-469.064 400.676,-475.588 408.724,-475.588 C416.773,-475.588 423.297,-469.064 423.297,-461.016 L423.297,-359.196 C423.297,-351.148 416.773,-344.624 408.724,-344.624 C400.676,-344.624 394.152,-351.148 394.152,-359.196 L394.152,-461.016"/>
</g>

<g fill="#ffffff" fill-opacity="1" stroke="none" transform="matrix(1,0,0,1,0,0)"
font-family="Inter" font-size="11" font-weight="700" font-style="normal" 
>
</g>

<g fill="#ffffff" fill-opacity="1" stroke="#0070ba" stroke-opacity="1" stroke-width="1" stroke-linecap="square" stroke-linejoin="bevel" transform="matrix(1,0,0,1,0,0)"
font-family="Inter" font-size="11" font-weight="700" font-style="normal" 
>
<polyline fill="none" vector-effect="none" points="45,11 45,31 " />
</g>

<g fill="#ffffff" fill-opacity="1" stroke="#0070ba" stroke-opacity="1" stroke-width="1" stroke-linecap="square" stroke-linejoin="bevel" transform="matrix(1,0,0,1,0,0)"
font-family="Inter" font-size="11" font-weight="700" font-style="normal" 
>
</g>

<g fill="#ffffff" fill-opacity="1" stroke="#0070ba" stroke-opacity="1" stroke-width="1" stroke-linecap="square" stroke-linejoin="bevel" transform="matrix(1,0,0,1,0,0)"
font-family="Inter" font-size="11" font-weight="700" font-style="normal" 
>
</g>

<g fill="#ffffff" fill-opacity="1" stroke="#0070ba" stroke-opacity="1" stroke-width="1" stroke-linecap="square" stroke-linejoin="bevel" transform="matrix(1,0,0,1,0,0)"
font-family="Inter" font-size="11" font-weight="700" font-style="normal" 
>
</g>

<g fill="#ffffff" fill-opacity="1" stroke="#0070ba" stroke-opacity="1" stroke-width="1" stroke-linecap="square" stroke-linejoin="bevel" transform="matrix(1,0,0,1,0,0)"
font-family="Inter" font-size="11" font-weight="700" font-style="normal" 
>
</g>

<g fill="#0090f5" fill-opacity="1" stroke="#0070ba" stroke-opacity="1" stroke-width="1.2" stroke-linecap="square" stroke-linejoin="bevel" transform="matrix(1,0,0,1,200,6)"
font-family="Inter" font-size="11" font-weight="700" font-style="normal" 
>
<path vector-effect="none" fill-rule="evenodd" d="M0.5,3.5 C0.5,1.84315 1.84315,0.5 3.5,0.5 L99.5,0.5 C101.157,0.5 102.5,1.84315 102.5,3.5 L102.5,20.5 C102.5,22.1569 101.157,23.5 99.5,23.5 L3.5,23.5 C1.84315,23.5 0.5,22.1569 0.5,20.5 L0.5,3.5"/>
</g>

<g fill="#ffffff" fill-opacity="1" stroke="none" transform="matrix(1,0,0,1,200,6)"
font-family="Inter" font-size="11" font-weight="700" font-style="normal" 
>
<path vector-effect="none" fill-rule="nonzero" d="M14.2656,10.5391 L12.7422,10.6328 C12.7161,10.5026 12.6602,10.3848 12.5742,10.2793 C12.4883,10.1738 12.3757,10.0892 12.2363,10.0254 C12.097,9.96159 11.931,9.92969 11.7383,9.92969 C11.4805,9.92969 11.263,9.98372 11.0859,10.0918 C10.9089,10.1999 10.8203,10.3438 10.8203,10.5234 C10.8203,10.6667 10.8776,10.7878 10.9922,10.8867 C11.1068,10.9857 11.3034,11.0651 11.582,11.125 L12.668,11.3438 C13.2513,11.4635 13.6862,11.6563 13.9727,11.9219 C14.2591,12.1875 14.4023,12.5365 14.4023,12.9688 C14.4023,13.362 14.2871,13.707 14.0566,14.0039 C13.8262,14.3008 13.5111,14.5319 13.1113,14.6973 C12.7116,14.8626 12.2513,14.9453 11.7305,14.9453 C10.9362,14.9453 10.304,14.7793 9.83398,14.4473 C9.36393,14.1152 9.08854,13.6628 9.00781,13.0898 L10.6445,13.0039 C10.694,13.2461 10.8138,13.4303 11.0039,13.5566 C11.194,13.6829 11.4375,13.7461 11.7344,13.7461 C12.026,13.7461 12.2611,13.6895 12.4395,13.5762 C12.6178,13.4629 12.7083,13.3164 12.7109,13.1367 C12.7083,12.9857 12.6445,12.8613 12.5195,12.7637 C12.3945,12.666 12.2018,12.5911 11.9414,12.5391 L10.9023,12.332 C10.3164,12.2148 9.88086,12.0117 9.5957,11.7227 C9.31055,11.4336 9.16797,11.0651 9.16797,10.6172 C9.16797,10.2318 9.27279,9.89974 9.48242,9.62109 C9.69206,9.34245 9.98763,9.1276 10.3691,8.97656 C10.7507,8.82552 11.1979,8.75 11.7109,8.75 C12.4688,8.75 13.0658,8.91016 13.502,9.23047 C13.9382,9.55078 14.1927,9.98698 14.2656,10.5391 M17.1094,11.3594 L17.1094,14.8281 L15.4453,14.8281 L15.4453,6.82813 L17.0625,6.82813 L17.0625,9.88672 L17.1328,9.88672 C17.2682,9.53255 17.487,9.25456 17.7891,9.05273 C18.0911,8.85091 18.4701,8.75 18.9258,8.75 C19.3424,8.75 19.7064,8.84049 20.0176,9.02148 C20.3288,9.20247 20.571,9.46159 20.7441,9.79883 C20.9173,10.1361 21.0026,10.5391 21,11.0078 L21,14.8281 L19.3359,14.8281 L19.3359,11.3047 C19.3385,10.9349 19.2454,10.6471 19.0566,10.4414 C18.8678,10.2357 18.6042,10.1328 18.2656,10.1328 C18.0391,10.1328 17.8392,10.181 17.666,10.2773 C17.4928,10.3737 17.3574,10.5137 17.2598,10.6973 C17.1621,10.8809 17.112,11.1016 17.1094,11.3594 M25.0156,14.9453 C24.4089,14.9453 23.8848,14.8158 23.4434,14.5566 C23.002,14.2975 22.6615,13.9355 22.4219,13.4707 C22.1823,13.0059 22.0625,12.4661 22.0625,11.8516 C22.0625,11.2318 22.1823,10.6895 22.4219,10.2246 C22.6615,9.75977 23.002,9.39779 23.4434,9.13867 C23.8848,8.87956 24.4089,8.75 25.0156,8.75 C25.6224,8.75 26.1465,8.87956 26.5879,9.13867 C27.0293,9.39779 27.3698,9.75977 27.6094,10.2246 C27.849,10.6895 27.9688,11.2318 27.9688,11.8516 C27.9688,12.4661 27.849,13.0059 27.6094,13.4707 C27.3698,13.9355 27.0293,14.2975 26.5879,14.5566 C26.1465,14.8158 25.6224,14.9453 25.0156,14.9453 M25.0234,13.6563 C25.2995,13.6563 25.5299,13.5775 25.7148,13.4199 C25.8997,13.2624 26.0397,13.0469 26.1348,12.7734 C26.2298,12.5 26.2773,12.1888 26.2773,11.8398 C26.2773,11.4909 26.2298,11.1797 26.1348,10.9063 C26.0397,10.6328 25.8997,10.4167 25.7148,10.2578 C25.5299,10.099 25.2995,10.0195 25.0234,10.0195 C24.7448,10.0195 24.5111,10.099 24.3223,10.2578 C24.1335,10.4167 23.9915,10.6328 23.8965,10.9063 C23.8014,11.1797 23.7539,11.4909 23.7539,11.8398 C23.7539,12.1888 23.8014,12.5 23.8965,12.7734 C23.9915,13.0469 24.1335,13.2624 24.3223,13.4199 C24.5111,13.5775 24.7448,13.6563 25.0234,13.6563 M29.0547,14.8281 L29.0547,8.82813 L30.668,8.82813 L30.668,9.875 L30.7305,9.875 C30.8398,9.5026 31.0234,9.2207 31.2813,9.0293 C31.5391,8.83789 31.8359,8.74219 32.1719,8.74219 C32.2552,8.74219 32.3451,8.7474 32.4414,8.75781 C32.5378,8.76823 32.6224,8.78255 32.6953,8.80078 L32.6953,10.2773 C32.6172,10.2539 32.5091,10.2331 32.3711,10.2148 C32.2331,10.1966 32.1068,10.1875 31.9922,10.1875 C31.7474,10.1875 31.5293,10.2402 31.3379,10.3457 C31.1465,10.4512 30.9954,10.5977 30.8848,10.7852 C30.7741,10.9727 30.7188,11.1888 30.7188,11.4336 L30.7188,14.8281 L29.0547,14.8281 M37.0273,8.82813 L37.0273,10.0781 L33.4141,10.0781 L33.4141,8.82813 L37.0273,8.82813 M34.2344,7.39063 L35.8984,7.39063 L35.8984,12.9844 C35.8984,13.138 35.9219,13.2572 35.9688,13.3418 C36.0156,13.4264 36.0814,13.4857 36.166,13.5195 C36.2507,13.5534 36.349,13.5703 36.4609,13.5703 C36.5391,13.5703 36.6172,13.5632 36.6953,13.5488 C36.7734,13.5345 36.8333,13.5234 36.875,13.5156 L37.1367,14.7539 C37.0534,14.7799 36.9362,14.8105 36.7852,14.8457 C36.6341,14.8809 36.4505,14.9023 36.2344,14.9102 C35.8333,14.9258 35.4824,14.8724 35.1816,14.75 C34.8809,14.6276 34.6471,14.4375 34.4805,14.1797 C34.3138,13.9219 34.2318,13.5964 34.2344,13.2031 L34.2344,7.39063 M40.7734,14.9453 C40.1563,14.9453 39.6257,14.8197 39.1816,14.5684 C38.7376,14.3171 38.3958,13.9603 38.1563,13.498 C37.9167,13.0358 37.7969,12.4883 37.7969,11.8555 C37.7969,11.2383 37.9167,10.6966 38.1563,10.2305 C38.3958,9.76432 38.7337,9.40104 39.1699,9.14063 C39.6061,8.88021 40.1185,8.75 40.707,8.75 C41.1029,8.75 41.472,8.81315 41.8145,8.93945 C42.1569,9.06576 42.4564,9.25521 42.7129,9.50781 C42.9694,9.76042 43.1693,10.0775 43.3125,10.459 C43.4557,10.8405 43.5273,11.2865 43.5273,11.7969 L43.5273,12.2539 L38.4609,12.2539 L38.4609,11.2227 L41.9609,11.2227 C41.9609,10.9831 41.9089,10.7708 41.8047,10.5859 C41.7005,10.401 41.5566,10.2559 41.373,10.1504 C41.1895,10.0449 40.9766,9.99219 40.7344,9.99219 C40.4818,9.99219 40.2585,10.0501 40.0645,10.166 C39.8704,10.2819 39.7188,10.4368 39.6094,10.6309 C39.5,10.8249 39.444,11.0404 39.4414,11.2773 L39.4414,12.2578 C39.4414,12.5547 39.4967,12.8112 39.6074,13.0273 C39.7181,13.2435 39.875,13.4102 40.0781,13.5273 C40.2813,13.6445 40.5221,13.7031 40.8008,13.7031 C40.9857,13.7031 41.1549,13.6771 41.3086,13.625 C41.4622,13.5729 41.5938,13.4948 41.7031,13.3906 C41.8125,13.2865 41.8958,13.1589 41.9531,13.0078 L43.4922,13.1094 C43.4141,13.4792 43.2546,13.8014 43.0137,14.0762 C42.7728,14.3509 42.4629,14.5645 42.084,14.7168 C41.7051,14.8691 41.2682,14.9453 40.7734,14.9453 M49.5938,10.5391 L48.0703,10.6328 C48.0443,10.5026 47.9883,10.3848 47.9023,10.2793 C47.8164,10.1738 47.7038,10.0892 47.5645,10.0254 C47.4251,9.96159 47.2591,9.92969 47.0664,9.92969 C46.8086,9.92969 46.5911,9.98372 46.4141,10.0918 C46.237,10.1999 46.1484,10.3438 46.1484,10.5234 C46.1484,10.6667 46.2057,10.7878 46.3203,10.8867 C46.4349,10.9857 46.6315,11.0651 46.9102,11.125 L47.9961,11.3438 C48.5794,11.4635 49.0143,11.6563 49.3008,11.9219 C49.5872,12.1875 49.7305,12.5365 49.7305,12.9688 C49.7305,13.362 49.6152,13.707 49.3848,14.0039 C49.1543,14.3008 48.8392,14.5319 48.4395,14.6973 C48.0397,14.8626 47.5794,14.9453 47.0586,14.9453 C46.2643,14.9453 45.6322,14.7793 45.1621,14.4473 C44.6921,14.1152 44.4167,13.6628 44.3359,13.0898 L45.9727,13.0039 C46.0221,13.2461 46.1419,13.4303 46.332,13.5566 C46.5221,13.6829 46.7656,13.7461 47.0625,13.7461 C47.3542,13.7461 47.5892,13.6895 47.7676,13.5762 C47.946,13.4629 48.0365,13.3164 48.0391,13.1367 C48.0365,12.9857 47.9727,12.8613 47.8477,12.7637 C47.7227,12.666 47.5299,12.5911 47.2695,12.5391 L46.2305,12.332 C45.6445,12.2148 45.209,12.0117 44.9238,11.7227 C44.6387,11.4336 44.4961,11.0651 44.4961,10.6172 C44.4961,10.2318 44.6009,9.89974 44.8105,9.62109 C45.0202,9.34245 45.3158,9.1276 45.6973,8.97656 C46.0788,8.82552 46.526,8.75 47.0391,8.75 C47.7969,8.75 48.3939,8.91016 48.8301,9.23047 C49.2663,9.55078 49.5208,9.98698 49.5938,10.5391 M53.9648,8.82813 L53.9648,10.0781 L50.3516,10.0781 L50.3516,8.82813 L53.9648,8.82813 M51.1719,7.39063 L52.8359,7.39063 L52.8359,12.9844 C52.8359,13.138 52.8594,13.2572 52.9063,13.3418 C52.9531,13.4264 53.0189,13.4857 53.1035,13.5195 C53.1882,13.5534 53.2865,13.5703 53.3984,13.5703 C53.4766,13.5703 53.5547,13.5632 53.6328,13.5488 C53.7109,13.5345 53.7708,13.5234 53.8125,13.5156 L54.0742,14.7539 C53.9909,14.7799 53.8737,14.8105 53.7227,14.8457 C53.5716,14.8809 53.388,14.9023 53.1719,14.9102 C52.7708,14.9258 52.4199,14.8724 52.1191,14.75 C51.8184,14.6276 51.5846,14.4375 51.418,14.1797 C51.2513,13.9219 51.1693,13.5964 51.1719,13.2031 L51.1719,7.39063 M57.5859,17.0781 L57.5859,8.82813 L59.2266,8.82813 L59.2266,9.83594 L59.3008,9.83594 C59.3737,9.67448 59.4798,9.50977 59.6191,9.3418 C59.7585,9.17383 59.9408,9.0332 60.166,8.91992 C60.3913,8.80664 60.6719,8.75 61.0078,8.75 C61.4453,8.75 61.849,8.86393 62.2188,9.0918 C62.5885,9.31966 62.8841,9.66211 63.1055,10.1191 C63.3268,10.5762 63.4375,11.1484 63.4375,11.8359 C63.4375,12.5052 63.3301,13.0697 63.1152,13.5293 C62.9004,13.9889 62.6087,14.3366 62.2402,14.5723 C61.8717,14.8079 61.4596,14.9258 61.0039,14.9258 C60.681,14.9258 60.4069,14.8724 60.1816,14.7656 C59.9564,14.6589 59.7721,14.5241 59.6289,14.3613 C59.4857,14.1986 59.3763,14.0339 59.3008,13.8672 L59.25,13.8672 L59.25,17.0781 L57.5859,17.0781 M59.2148,11.8281 C59.2148,12.1849 59.2643,12.4961 59.3633,12.7617 C59.4622,13.0273 59.6055,13.2337 59.793,13.3809 C59.9805,13.528 60.2083,13.6016 60.4766,13.6016 C60.7474,13.6016 60.9766,13.5267 61.1641,13.377 C61.3516,13.2272 61.4941,13.0189 61.5918,12.752 C61.6895,12.485 61.7383,12.1771 61.7383,11.8281 C61.7383,11.4818 61.6901,11.1771 61.5938,10.9141 C61.4974,10.651 61.3555,10.4453 61.168,10.2969 C60.9805,10.1484 60.75,10.0742 60.4766,10.0742 C60.2057,10.0742 59.9772,10.1458 59.791,10.2891 C59.6048,10.4323 59.4622,10.6354 59.3633,10.8984 C59.2643,11.1615 59.2148,11.4714 59.2148,11.8281 M66.25,14.9414 C65.8672,14.9414 65.526,14.8743 65.2266,14.7402 C64.9271,14.6061 64.6908,14.4069 64.5176,14.1426 C64.3444,13.8783 64.2578,13.5482 64.2578,13.1523 C64.2578,12.819 64.319,12.5391 64.4414,12.3125 C64.5638,12.0859 64.7305,11.9036 64.9414,11.7656 C65.1523,11.6276 65.3926,11.5234 65.6621,11.4531 C65.9316,11.3828 66.2148,11.3333 66.5117,11.3047 C66.8607,11.2682 67.1419,11.2337 67.3555,11.2012 C67.569,11.1686 67.724,11.1198 67.8203,11.0547 C67.9167,10.9896 67.9648,10.8932 67.9648,10.7656 L67.9648,10.7422 C67.9648,10.4948 67.8874,10.3034 67.7324,10.168 C67.5775,10.0326 67.3581,9.96484 67.0742,9.96484 C66.7747,9.96484 66.5365,10.0306 66.3594,10.1621 C66.1823,10.2936 66.0651,10.4583 66.0078,10.6563 L64.4688,10.5313 C64.5469,10.1667 64.7005,9.85091 64.9297,9.58398 C65.1589,9.31706 65.4551,9.11133 65.8184,8.9668 C66.1816,8.82227 66.6029,8.75 67.082,8.75 C67.4154,8.75 67.735,8.78906 68.041,8.86719 C68.347,8.94531 68.6191,9.06641 68.8574,9.23047 C69.0957,9.39453 69.2839,9.60482 69.4219,9.86133 C69.5599,10.1178 69.6289,10.4245 69.6289,10.7813 L69.6289,14.8281 L68.0508,14.8281 L68.0508,13.9961 L68.0039,13.9961 C67.9076,14.1836 67.7786,14.3483 67.6172,14.4902 C67.4557,14.6322 67.2617,14.7428 67.0352,14.8223 C66.8086,14.9017 66.5469,14.9414 66.25,14.9414 M66.7266,13.793 C66.9714,13.793 67.1875,13.7441 67.375,13.6465 C67.5625,13.5488 67.7096,13.4167 67.8164,13.25 C67.9232,13.0833 67.9766,12.8945 67.9766,12.6836 L67.9766,12.0469 C67.9245,12.0807 67.8535,12.1113 67.7637,12.1387 C67.6738,12.166 67.5729,12.1908 67.4609,12.2129 C67.349,12.235 67.237,12.2546 67.125,12.2715 C67.013,12.2884 66.9115,12.3034 66.8203,12.3164 C66.625,12.3451 66.4544,12.3906 66.3086,12.4531 C66.1628,12.5156 66.0495,12.5996 65.9688,12.7051 C65.888,12.8105 65.8477,12.9414 65.8477,13.0977 C65.8477,13.3242 65.9303,13.4967 66.0957,13.6152 C66.2611,13.7337 66.4714,13.793 66.7266,13.793 M74.1055,8.82813 L74.1055,10.0781 L70.4922,10.0781 L70.4922,8.82813 L74.1055,8.82813 M71.3125,7.39063 L72.9766,7.39063 L72.9766,12.9844 C72.9766,13.138 73,13.2572 73.0469,13.3418 C73.0938,13.4264 73.1595,13.4857 73.2441,13.5195 C73.3288,13.5534 73.4271,13.5703 73.5391,13.5703 C73.6172,13.5703 73.6953,13.5632 73.7734,13.5488 C73.8516,13.5345 73.9115,13.5234 73.9531,13.5156 L74.2148,14.7539 C74.1315,14.7799 74.0143,14.8105 73.8633,14.8457 C73.7122,14.8809 73.5286,14.9023 73.3125,14.9102 C72.9115,14.9258 72.5605,14.8724 72.2598,14.75 C71.959,14.6276 71.7253,14.4375 71.5586,14.1797 C71.3919,13.9219 71.3099,13.5964 71.3125,13.2031 L71.3125,7.39063 M76.9688,11.3594 L76.9688,14.8281 L75.3047,14.8281 L75.3047,6.82813 L76.9219,6.82813 L76.9219,9.88672 L76.9922,9.88672 C77.1276,9.53255 77.3464,9.25456 77.6484,9.05273 C77.9505,8.85091 78.3294,8.75 78.7852,8.75 C79.2018,8.75 79.5658,8.84049 79.877,9.02148 C80.1882,9.20247 80.4303,9.46159 80.6035,9.79883 C80.7767,10.1361 80.862,10.5391 80.8594,11.0078 L80.8594,14.8281 L79.1953,14.8281 L79.1953,11.3047 C79.1979,10.9349 79.1048,10.6471 78.916,10.4414 C78.7272,10.2357 78.4635,10.1328 78.125,10.1328 C77.8984,10.1328 77.6986,10.181 77.5254,10.2773 C77.3522,10.3737 77.2168,10.5137 77.1191,10.6973 C77.0215,10.8809 76.9714,11.1016 76.9688,11.3594 "/>
</g>

<g fill="#ffffff" fill-opacity="1" stroke="none" transform="matrix(0.03125,0,0,0.03125,289,14)"
font-family="Inter" font-size="11" font-weight="700" font-style="normal" 
>
<path vector-effect="none" fill-rule="nonzero" d="M111.326,191.938 C120.545,201.158 135.517,201.158 144.737,191.938 L239.144,97.5313 C245.929,90.7458 247.921,80.6413 244.233,71.7907 C240.545,62.9401 231.989,57.1871 222.401,57.1871 L33.5875,57.2608 C24.0731,57.2608 15.4437,63.0137 11.7559,71.8644 C8.06815,80.715 10.1333,90.8195 16.845,97.605 L111.252,192.012 L111.326,191.938"/>
</g>

<g fill="none" stroke="#000000" stroke-opacity="1" stroke-width="13.7195" stroke-linecap="butt" stroke-linejoin="miter" stroke-miterlimit="4" transform="matrix(0.03125,0,0,0.03125,289,14)"
font-family="Inter" font-size="11" font-weight="700" font-style="normal" 
>
<path vector-effect="none" fill-rule="nonzero" d="M111.326,191.938 C120.545,201.158 135.517,201.158 144.737,191.938 L239.144,97.5313 C245.929,90.7458 247.921,80.6413 244.233,71.7907 C240.545,62.9401 231.989,57.1871 222.401,57.1871 L33.5875,57.2608 C24.0731,57.2608 15.4437,63.0137 11.7559,71.8644 C8.06815,80.715 10.1333,90.8195 16.845,97.605 L111.252,192.012 L111.326,191.938"/>
</g>

<g fill="#ffffff" fill-opacity="1" stroke="none" transform="matrix(1,0,0,1,200,6)"
font-family="Inter" font-size="11" font-weight="700" font-style="normal" 
>
</g>

<g fill="#ffffff" fill-opacity="1" stroke="#0070ba" stroke-opacity="1" stroke-width="1" stroke-linecap="square" stroke-linejoin="bevel" transform="matrix(1,0,0,1,0,0)"
font-family="Inter" font-size="11" font-weight="700" font-style="normal" 
>
</g>

<g fill="#0070ba" fill-opacity="1" stroke="#0070ba" stroke-opacity="1" stroke-width="1.2" stroke-linecap="square" stroke-linejoin="bevel" transform="matrix(1,0,0,1,135,6)"
font-family="Inter" font-size="11" font-weight="700" font-style="normal" 
>
<path vector-effect="none" fill-rule="evenodd" d="M0.5,12 C0.5,5.64873 5.87258,0.5 12.5,0.5 L27.5,0.5 C34.1274,0.5 39.5,5.64873 39.5,12 C39.5,18.3513 34.1274,23.5 27.5,23.5 L12.5,23.5 C5.87258,23.5 0.5,18.3513 0.5,12 "/>
</g>

<g fill="#ffffff" fill-opacity="1" stroke="none" transform="matrix(1,0,0,1,135,6)"
font-family="Inter" font-size="11" font-weight="700" font-style="normal" 
>
<path vector-effect="none" fill-rule="nonzero" d="M11.8242,16 L10.0117,16 L12.7734,8 L14.9531,8 L17.7109,16 L15.8984,16 L13.8945,9.82813 L13.832,9.82813 L11.8242,16 M11.7109,12.8555 L15.9922,12.8555 L15.9922,14.1758 L11.7109,14.1758 L11.7109,12.8555"/>
</g>

<g fill="#ffffff" fill-opacity="1" stroke="none" transform="matrix(0.03125,0,0,0.03125,161,14)"
font-family="Inter" font-size="11" font-weight="700" font-style="normal" 
>
<path vector-effect="none" fill-rule="nonzero" d="M111.326,191.938 C120.545,201.158 135.517,201.158 144.737,191.938 L239.144,97.5313 C245.929,90.7458 247.921,80.6413 244.233,71.7907 C240.545,62.9401 231.989,57.1871 222.401,57.1871 L33.5875,57.2608 C24.0731,57.2608 15.4437,63.0137 11.7559,71.8644 C8.06815,80.715 10.1333,90.8195 16.845,97.605 L111.252,192.012 L111.326,191.938"/>
</g>

<g fill="none" stroke="#000000" stroke-opacity="1" stroke-width="13.7195" stroke-linecap="butt" stroke-linejoin="miter" stroke-miterlimit="4" transform="matrix(0.03125,0,0,0.03125,161,14)"
font-family="Inter" font-size="11" font-weight="700" font-style="normal" 
>
<path vector-effect="none" fill-rule="nonzero" d="M111.326,191.938 C120.545,201.158 135.517,201.158 144.737,191.938 L239.144,97.5313 C245.929,90.7458 247.921,80.6413 244.233,71.7907 C240.545,62.9401 231.989,57.1871 222.401,57.1871 L33.5875,57.2608 C24.0731,57.2608 15.4437,63.0137 11.7559,71.8644 C8.06815,80.715 10.1333,90.8195 16.845,97.605 L111.252,192.012 L111.326,191.938"/>
</g>

<g fill="#ffffff" fill-opacity="1" stroke="none" transform="matrix(1,0,0,1,135,6)"
font-family="Inter" font-size="11" font-weight="700" font-style="normal" 
>
</g>

<g fill="#ffffff" fill-opacity="1" stroke="#0070ba" stroke-opacity="1" stroke-width="1" stroke-linecap="square" stroke-linejoin="bevel" transform="matrix(1,0,0,1,0,0)"
font-family="Inter" font-size="11" font-weight="700" font-style="normal" 
>
</g>

<g fill="#0090f5" fill-opacity="1" stroke="#0070ba" stroke-opacity="1" stroke-width="1.2" stroke-linecap="square" stroke-linejoin="bevel" transform="matrix(1,0,0,1,56,6)"
font-family="Inter" font-size="11" font-weight="700" font-style="normal" 
>
<path vector-effect="none" fill-rule="evenodd" d="M0.5,3.5 C0.5,1.84315 1.84315,0.5 3.5,0.5 L71.5,0.5 C73.1569,0.5 74.5,1.84315 74.5,3.5 L74.5,20.5 C74.5,22.1569 73.1569,23.5 71.5,23.5 L3.5,23.5 C1.84315,23.5 0.5,22.1569 0.5,20.5 L0.5,3.5"/>
</g>

<g fill="#ffffff" fill-opacity="1" stroke="none" transform="matrix(1,0,0,1,56,6)"
font-family="Inter" font-size="11" font-weight="700" font-style="normal" 
>
<path vector-effect="none" fill-rule="nonzero" d="M10,9.39453 L10,8 L16.5703,8 L16.5703,9.39453 L14.1211,9.39453 L14.1211,16 L12.4492,16 L12.4492,9.39453 L10,9.39453 M17.6484,16 L17.6484,8 L19.3398,8 L19.3398,11.3008 L22.7734,11.3008 L22.7734,8 L24.4609,8 L24.4609,16 L22.7734,16 L22.7734,12.6953 L19.3398,12.6953 L19.3398,16 L17.6484,16 M32.543,8 L32.543,16 L31.082,16 L27.6016,10.9648 L27.543,10.9648 L27.543,16 L25.8516,16 L25.8516,8 L27.3359,8 L30.7891,13.0313 L30.8594,13.0313 L30.8594,8 L32.543,8 M33.9297,16 L33.9297,8 L35.6211,8 L35.6211,11.3008 L39.0547,11.3008 L39.0547,8 L40.7422,8 L40.7422,16 L39.0547,16 L39.0547,12.6953 L35.6211,12.6953 L35.6211,16 L33.9297,16 M42.1328,16 L42.1328,8 L45.3359,8 C45.9245,8 46.4154,8.08724 46.8086,8.26172 C47.2018,8.4362 47.4974,8.67773 47.6953,8.98633 C47.8932,9.29492 47.9922,9.64974 47.9922,10.0508 C47.9922,10.3633 47.9297,10.6374 47.8047,10.873 C47.6797,11.1087 47.5085,11.3014 47.291,11.4512 C47.0736,11.6009 46.8255,11.707 46.5469,11.7695 L46.5469,11.8477 C46.8516,11.8607 47.1374,11.9466 47.4043,12.1055 C47.6712,12.2643 47.888,12.4863 48.0547,12.7715 C48.2214,13.0566 48.3047,13.3958 48.3047,13.7891 C48.3047,14.2135 48.1999,14.5918 47.9902,14.9238 C47.7806,15.2559 47.4714,15.5182 47.0625,15.7109 C46.6536,15.9036 46.1497,16 45.5508,16 L42.1328,16 M43.8242,14.6172 L45.2031,14.6172 C45.6745,14.6172 46.0182,14.5267 46.2344,14.3457 C46.4505,14.1647 46.5586,13.9232 46.5586,13.6211 C46.5586,13.3997 46.5052,13.2044 46.3984,13.0352 C46.2917,12.8659 46.14,12.7331 45.9434,12.6367 C45.7467,12.5404 45.513,12.4922 45.2422,12.4922 L43.8242,12.4922 L43.8242,14.6172 M43.8242,11.3477 L45.0781,11.3477 C45.3099,11.3477 45.5163,11.3066 45.6973,11.2246 C45.8783,11.1426 46.0215,11.026 46.127,10.875 C46.2324,10.724 46.2852,10.543 46.2852,10.332 C46.2852,10.043 46.1829,9.8099 45.9785,9.63281 C45.7741,9.45573 45.4844,9.36719 45.1094,9.36719 L43.8242,9.36719 L43.8242,11.3477 M52.832,8 L52.832,16 L51.1406,16 L51.1406,9.60547 L51.0938,9.60547 L49.2617,10.7539 L49.2617,9.25391 L51.2422,8 L52.832,8"/>
</g>

<g fill="#ffffff" fill-opacity="1" stroke="none" transform="matrix(0.03125,0,0,0.03125,117,14)"
font-family="Inter" font-size="11" font-weight="700" font-style="normal" 
>
<path vector-effect="none" fill-rule="nonzero" d="M111.326,191.938 C120.545,201.158 135.517,201.158 144.737,191.938 L239.144,97.5313 C245.929,90.7458 247.921,80.6413 244.233,71.7907 C240.545,62.9401 231.989,57.1871 222.401,57.1871 L33.5875,57.2608 C24.0731,57.2608 15.4437,63.0137 11.7559,71.8644 C8.06815,80.715 10.1333,90.8195 16.845,97.605 L111.252,192.012 L111.326,191.938"/>
</g>

<g fill="none" stroke="#000000" stroke-opacity="1" stroke-width="13.7195" stroke-linecap="butt" stroke-linejoin="miter" stroke-miterlimit="4" transform="matrix(0.03125,0,0,0.03125,117,14)"
font-family="Inter" font-size="11" font-weight="700" font-style="normal" 
>
<path vector-effect="none" fill-rule="nonzero" d="M111.326,191.938 C120.545,201.158 135.517,201.158 144.737,191.938 L239.144,97.5313 C245.929,90.7458 247.921,80.6413 244.233,71.7907 C240.545,62.9401 231.989,57.1871 222.401,57.1871 L33.5875,57.2608 C24.0731,57.2608 15.4437,63.0137 11.7559,71.8644 C8.06815,80.715 10.1333,90.8195 16.845,97.605 L111.252,192.012 L111.326,191.938"/>
</g>

<g fill="#ffffff" fill-opacity="1" stroke="none" transform="matrix(1,0,0,1,56,6)"
font-family="Inter" font-size="11" font-weight="700" font-style="normal" 
>
</g>

<g fill="#ffffff" fill-opacity="1" stroke="#0070ba" stroke-opacity="1" stroke-width="1" stroke-linecap="square" stroke-linejoin="bevel" transform="matrix(1,0,0,1,0,0)"
font-family="Inter" font-size="11" font-weight="700" font-style="normal" 
>
</g>

<g fill="#ffffff" fill-opacity="1" stroke="#0064a6" stroke-opacity="1" stroke-width="1.2" stroke-linecap="square" stroke-linejoin="bevel" transform="matrix(1,0,0,1,372,7)"
font-family="Inter" font-size="11" font-weight="700" font-style="normal" 
>
<path vector-effect="none" fill-rule="evenodd" d="M1,11 C1,5.47715 5.92487,1 12,1 L14.4,1 C20.4751,1 25.4,5.47715 25.4,11 C25.4,16.5228 20.4751,21 14.4,21 L12,21 C5.92487,21 1,16.5228 1,11 "/>
</g>

<g fill="#000000" fill-opacity="1" stroke="none" transform="matrix(1,0,0,1,372,7)"
font-family="Inter" font-size="10" font-weight="700" font-style="normal" 
>
<path vector-effect="none" fill-rule="nonzero" d="M12.9411,14.5817 C12.3303,14.5793 11.8053,14.429 11.3661,14.1307 C10.927,13.8324 10.5896,13.4003 10.354,12.8345 C10.1185,12.2687 10.0019,11.5881 10.0043,10.7926 C10.0043,9.99953 10.122,9.32363 10.3576,8.76491 C10.5932,8.2062 10.9305,7.78066 11.3697,7.48828 C11.8088,7.1959 12.3326,7.04972 12.9411,7.04972 C13.5495,7.04972 14.0733,7.1965 14.5124,7.49006 C14.9516,7.78362 15.2895,8.20916 15.5263,8.76669 C15.763,9.32422 15.8802,9.99953 15.8778,10.7926 C15.8778,11.5904 15.7601,12.2723 15.5245,12.8381 C15.2889,13.4039 14.9522,13.8359 14.5142,14.1342 C14.0762,14.4325 13.5518,14.5817 12.9411,14.5817 M12.9411,13.3068 C13.3577,13.3068 13.6903,13.0973 13.9389,12.6783 C14.1875,12.2592 14.3106,11.6307 14.3082,10.7926 C14.3082,10.241 14.252,9.78172 14.1396,9.41477 C14.0271,9.04782 13.8685,8.77202 13.6637,8.58736 C13.4589,8.4027 13.218,8.31037 12.9411,8.31037 C12.5268,8.31037 12.1953,8.51752 11.9467,8.93182 C11.6982,9.34612 11.5727,9.96638 11.5703,10.7926 C11.5703,11.3513 11.6265,11.8171 11.739,12.19 C11.8514,12.5629 12.0107,12.8422 12.2166,13.0281 C12.4226,13.2139 12.6641,13.3068 12.9411,13.3068 "/>
</g>

<g fill="#ffffff" fill-opacity="1" stroke="#0070ba" stroke-opacity="1" stroke-width="1" stroke-linecap="square" stroke-linejoin="bevel" transform="matrix(1,0,0,1,0,0)"
font-family="Inter" font-size="11" font-weight="700" font-style="normal" 
>
</g>

<g fill="none" stroke="#000000" stroke-opacity="1" stroke-width="1" stroke-linecap="square" stroke-linejoin="bevel" transform="matrix(1,0,0,1,0,0)"
font-family=".AppleSystemUIFont" font-size="13" font-weight="400" font-style="normal" 
>
</g>
</g>
</svg>
