<?xml version="1.0" encoding="UTF-8" standalone="no"?>
<svg width="133.35mm" height="21.1667mm"
 viewBox="0 0 378 60"
 xmlns="http://www.w3.org/2000/svg" xmlns:xlink="http://www.w3.org/1999/xlink" version="1.2" baseProfile="tiny">
<title>Abstract block</title>
<desc>block_dashboard_controller_dpad_event</desc>
<defs>
</defs>
<g fill="none" stroke="black" stroke-width="1" fill-rule="evenodd" stroke-linecap="square" stroke-linejoin="bevel" >

<g fill="none" stroke="#000000" stroke-opacity="1" stroke-width="1" stroke-linecap="square" stroke-linejoin="bevel" transform="matrix(1,0,0,1,0,0)"
font-family=".AppleSystemUIFont" font-size="13" font-weight="400" font-style="normal" 
>
</g>

<g fill="none" stroke="#000000" stroke-opacity="1" stroke-width="1" stroke-linecap="square" stroke-linejoin="bevel" transform="matrix(1,0,0,1,0,0)"
font-family=".AppleSystemUIFont" font-size="13" font-weight="400" font-style="normal" 
>
</g>

<g fill="#009f94" fill-opacity="1" stroke="#00645c" stroke-opacity="1" stroke-width="1.2" stroke-linecap="square" stroke-linejoin="bevel" transform="matrix(1,0,0,1,0,0)"
font-family=".AppleSystemUIFont" font-size="13" font-weight="400" font-style="normal" 
>
<path vector-effect="none" fill-rule="evenodd" d="M0.5,20.5 L1,18.6516 L1,18 L1.77836,17.1565 L2.58892,16.3401 L3.43062,15.551 L4.30242,14.7891 L5.20325,14.0544 L6.13206,13.3469 L7.08779,12.6667 L8.06939,12.0136 L9.0758,11.3878 L10.106,10.7891 L11.1588,10.2177 L12.2333,9.67347 L13.3284,9.15646 L14.4431,8.66667 L15.5762,8.20408 L16.7267,7.76871 L17.8936,7.36054 L19.0758,6.97959 L20.2723,6.62585 L21.4819,6.29932 L22.7037,6 L23.9366,5.72789 L25.1795,5.48299 L26.4314,5.26531 L27.6912,5.07483 L28.9578,4.91156 L30.2303,4.77551 L31.5075,4.66667 L32.7885,4.58503 L34.072,4.53061 L35.3572,4.5034 L36.6428,4.5034 L37.928,4.53061 L39.2115,4.58503 L40.4925,4.66667 L41.7697,4.77551 L43.0422,4.91156 L44.3088,5.07483 L45.5686,5.26531 L46.8205,5.48299 L48.0634,5.72789 L49.2963,6 L50.5181,6.29932 L51.7277,6.62585 L52.9242,6.97959 L54.1064,7.36054 L55.2733,7.76871 L56.4238,8.20408 L57.5569,8.66667 L58.6716,9.15646 L59.7667,9.67347 L60.8412,10.2177 L61.894,10.7891 L62.9242,11.3878 L63.9306,12.0136 L64.9122,12.6667 L65.8679,13.3469 L66.7968,14.0544 L67.6976,14.7891 L68.5694,15.551 L69.4111,16.3401 L69.5698,16.5 L373.5,16.5 L375.519,17.0461 L376.954,18.4811 L377.5,20.5 L377.5,47.5 L376.954,49.5189 L375.519,50.9539 L373.5,51.5 L34.375,51.5 L33.584,51.9766 L32.8281,52.6875 L32.002,53.6797 L31,55 L30.2441,55.6602 L29.4531,56.1563 L28.5918,56.5117 L27.625,56.75 L26.5176,56.8945 L25.2344,56.9688 L23.7402,56.9961 L22,57 L20.2598,56.9961 L18.7656,56.9688 L17.4824,56.8945 L16.375,56.75 L15.4082,56.5117 L14.5469,56.1563 L13.7559,55.6602 L13,55 L11.998,53.6797 L11.1719,52.6875 L10.416,51.9766 L9.625,51.5 L4.5,51.5 L2.48112,50.9539 L1.04612,49.5189 L0.5,47.5 L0.5,20.5"/>
</g>

<g fill="#ffffff" fill-opacity="1" stroke="none" transform="matrix(1,0,0,1,0,0)"
font-family="Inter" font-size="11" font-weight="700" font-style="normal" 
>
<path vector-effect="none" fill-rule="nonzero" d="M53.8164,36.8281 L52.1836,30.8281 L53.8672,30.8281 L54.7969,34.8594 L54.8516,34.8594 L55.8203,30.8281 L57.4727,30.8281 L58.457,34.8359 L58.5078,34.8359 L59.4219,30.8281 L61.1016,30.8281 L59.4727,36.8281 L57.7109,36.8281 L56.6797,33.0547 L56.6055,33.0547 L55.5742,36.8281 L53.8164,36.8281 M63.6406,33.3594 L63.6406,36.8281 L61.9766,36.8281 L61.9766,28.8281 L63.5938,28.8281 L63.5938,31.8867 L63.6641,31.8867 C63.7995,31.5326 64.0182,31.2546 64.3203,31.0527 C64.6224,30.8509 65.0013,30.75 65.457,30.75 C65.8737,30.75 66.2376,30.8405 66.5488,31.0215 C66.86,31.2025 67.1022,31.4616 67.2754,31.7988 C67.4486,32.1361 67.5339,32.5391 67.5313,33.0078 L67.5313,36.8281 L65.8672,36.8281 L65.8672,33.3047 C65.8698,32.9349 65.7767,32.6471 65.5879,32.4414 C65.3991,32.2357 65.1354,32.1328 64.7969,32.1328 C64.5703,32.1328 64.3704,32.181 64.1973,32.2773 C64.0241,32.3737 63.8887,32.5137 63.791,32.6973 C63.6934,32.8809 63.6432,33.1016 63.6406,33.3594 M71.5703,36.9453 C70.9531,36.9453 70.4225,36.8197 69.9785,36.5684 C69.5345,36.3171 69.1927,35.9603 68.9531,35.498 C68.7135,35.0358 68.5938,34.4883 68.5938,33.8555 C68.5938,33.2383 68.7135,32.6966 68.9531,32.2305 C69.1927,31.7643 69.5306,31.401 69.9668,31.1406 C70.403,30.8802 70.9154,30.75 71.5039,30.75 C71.8997,30.75 72.2689,30.8132 72.6113,30.9395 C72.9538,31.0658 73.2533,31.2552 73.5098,31.5078 C73.7663,31.7604 73.9661,32.0775 74.1094,32.459 C74.2526,32.8405 74.3242,33.2865 74.3242,33.7969 L74.3242,34.2539 L69.2578,34.2539 L69.2578,33.2227 L72.7578,33.2227 C72.7578,32.9831 72.7057,32.7708 72.6016,32.5859 C72.4974,32.401 72.3535,32.2559 72.1699,32.1504 C71.9863,32.0449 71.7734,31.9922 71.5313,31.9922 C71.2786,31.9922 71.0553,32.0501 70.8613,32.166 C70.6673,32.2819 70.5156,32.4368 70.4063,32.6309 C70.2969,32.8249 70.2409,33.0404 70.2383,33.2773 L70.2383,34.2578 C70.2383,34.5547 70.2936,34.8112 70.4043,35.0273 C70.515,35.2435 70.6719,35.4102 70.875,35.5273 C71.0781,35.6445 71.319,35.7031 71.5977,35.7031 C71.7826,35.7031 71.9518,35.6771 72.1055,35.625 C72.2591,35.5729 72.3906,35.4948 72.5,35.3906 C72.6094,35.2865 72.6927,35.1589 72.75,35.0078 L74.2891,35.1094 C74.2109,35.4792 74.0514,35.8014 73.8105,36.0762 C73.5697,36.3509 73.2598,36.5645 72.8809,36.7168 C72.502,36.8691 72.0651,36.9453 71.5703,36.9453 M77.0625,33.3594 L77.0625,36.8281 L75.3984,36.8281 L75.3984,30.8281 L76.9844,30.8281 L76.9844,31.8867 L77.0547,31.8867 C77.1875,31.5378 77.4102,31.2611 77.7227,31.0566 C78.0352,30.8522 78.4141,30.75 78.8594,30.75 C79.276,30.75 79.6393,30.8411 79.9492,31.0234 C80.2591,31.2057 80.5,31.4655 80.6719,31.8027 C80.8438,32.14 80.9297,32.5417 80.9297,33.0078 L80.9297,36.8281 L79.2656,36.8281 L79.2656,33.3047 C79.2682,32.9375 79.1745,32.6504 78.9844,32.4434 C78.7943,32.2363 78.5326,32.1328 78.1992,32.1328 C77.9753,32.1328 77.778,32.181 77.6074,32.2773 C77.4368,32.3737 77.304,32.5137 77.209,32.6973 C77.1139,32.8809 77.0651,33.1016 77.0625,33.3594 M87.6406,36.8281 L84.8047,36.8281 L84.8047,28.8281 L87.6641,28.8281 C88.4688,28.8281 89.1615,28.9876 89.7422,29.3066 C90.3229,29.6257 90.7702,30.0833 91.084,30.6797 C91.3978,31.276 91.5547,31.9896 91.5547,32.8203 C91.5547,33.6536 91.3978,34.3698 91.084,34.9688 C90.7702,35.5677 90.321,36.0273 89.7363,36.3477 C89.1517,36.668 88.4531,36.8281 87.6406,36.8281 M86.4961,35.3789 L87.5703,35.3789 C88.0703,35.3789 88.4915,35.2897 88.834,35.1113 C89.1764,34.9329 89.4342,34.6556 89.6074,34.2793 C89.7806,33.903 89.8672,33.4167 89.8672,32.8203 C89.8672,32.2292 89.7806,31.7461 89.6074,31.3711 C89.4342,30.9961 89.1771,30.7201 88.8359,30.543 C88.4948,30.3659 88.0742,30.2773 87.5742,30.2773 L86.4961,30.2773 L86.4961,35.3789 M96.5117,32.8828 L96.5117,34.2031 L92.8633,34.2031 L92.8633,32.8828 L96.5117,32.8828 M97.9297,39.0781 L97.9297,30.8281 L99.5703,30.8281 L99.5703,31.8359 L99.6445,31.8359 C99.7174,31.6745 99.8236,31.5098 99.9629,31.3418 C100.102,31.1738 100.285,31.0332 100.51,30.9199 C100.735,30.8066 101.016,30.75 101.352,30.75 C101.789,30.75 102.193,30.8639 102.563,31.0918 C102.932,31.3197 103.228,31.6621 103.449,32.1191 C103.671,32.5762 103.781,33.1484 103.781,33.8359 C103.781,34.5052 103.674,35.0697 103.459,35.5293 C103.244,35.9889 102.952,36.3366 102.584,36.5723 C102.215,36.8079 101.803,36.9258 101.348,36.9258 C101.025,36.9258 100.751,36.8724 100.525,36.7656 C100.3,36.6589 100.116,36.5241 99.9727,36.3613 C99.8294,36.1986 99.7201,36.0339 99.6445,35.8672 L99.5938,35.8672 L99.5938,39.0781 L97.9297,39.0781 M99.5586,33.8281 C99.5586,34.1849 99.6081,34.4961 99.707,34.7617 C99.806,35.0273 99.9492,35.2337 100.137,35.3809 C100.324,35.528 100.552,35.6016 100.82,35.6016 C101.091,35.6016 101.32,35.5267 101.508,35.377 C101.695,35.2272 101.838,35.0189 101.936,34.752 C102.033,34.485 102.082,34.1771 102.082,33.8281 C102.082,33.4818 102.034,33.1771 101.938,32.9141 C101.841,32.651 101.699,32.4453 101.512,32.2969 C101.324,32.1484 101.094,32.0742 100.82,32.0742 C100.549,32.0742 100.321,32.1458 100.135,32.2891 C99.9486,32.4323 99.806,32.6354 99.707,32.8984 C99.6081,33.1615 99.5586,33.4714 99.5586,33.8281 M106.594,36.9414 C106.211,36.9414 105.87,36.8743 105.57,36.7402 C105.271,36.6061 105.035,36.4069 104.861,36.1426 C104.688,35.8783 104.602,35.5482 104.602,35.1523 C104.602,34.819 104.663,34.5391 104.785,34.3125 C104.908,34.0859 105.074,33.9036 105.285,33.7656 C105.496,33.6276 105.736,33.5234 106.006,33.4531 C106.275,33.3828 106.559,33.3333 106.855,33.3047 C107.204,33.2682 107.486,33.2337 107.699,33.2012 C107.913,33.1686 108.068,33.1198 108.164,33.0547 C108.26,32.9896 108.309,32.8932 108.309,32.7656 L108.309,32.7422 C108.309,32.4948 108.231,32.3034 108.076,32.168 C107.921,32.0326 107.702,31.9648 107.418,31.9648 C107.118,31.9648 106.88,32.0306 106.703,32.1621 C106.526,32.2936 106.409,32.4583 106.352,32.6563 L104.813,32.5313 C104.891,32.1667 105.044,31.8509 105.273,31.584 C105.503,31.3171 105.799,31.1113 106.162,30.9668 C106.525,30.8223 106.947,30.75 107.426,30.75 C107.759,30.75 108.079,30.7891 108.385,30.8672 C108.691,30.9453 108.963,31.0664 109.201,31.2305 C109.439,31.3945 109.628,31.6048 109.766,31.8613 C109.904,32.1178 109.973,32.4245 109.973,32.7813 L109.973,36.8281 L108.395,36.8281 L108.395,35.9961 L108.348,35.9961 C108.251,36.1836 108.122,36.3483 107.961,36.4902 C107.799,36.6322 107.605,36.7428 107.379,36.8223 C107.152,36.9017 106.891,36.9414 106.594,36.9414 M107.07,35.793 C107.315,35.793 107.531,35.7441 107.719,35.6465 C107.906,35.5488 108.053,35.4167 108.16,35.25 C108.267,35.0833 108.32,34.8945 108.32,34.6836 L108.32,34.0469 C108.268,34.0807 108.197,34.1113 108.107,34.1387 C108.018,34.166 107.917,34.1908 107.805,34.2129 C107.693,34.235 107.581,34.2546 107.469,34.2715 C107.357,34.2884 107.255,34.3034 107.164,34.3164 C106.969,34.3451 106.798,34.3906 106.652,34.4531 C106.507,34.5156 106.393,34.5996 106.313,34.7051 C106.232,34.8105 106.191,34.9414 106.191,35.0977 C106.191,35.3242 106.274,35.4967 106.439,35.6152 C106.605,35.7337 106.815,35.793 107.07,35.793 M113.469,36.9258 C113.013,36.9258 112.601,36.8079 112.232,36.5723 C111.864,36.3366 111.572,35.9889 111.357,35.5293 C111.143,35.0697 111.035,34.5052 111.035,33.8359 C111.035,33.1484 111.146,32.5762 111.367,32.1191 C111.589,31.6621 111.883,31.3197 112.252,31.0918 C112.62,30.8639 113.025,30.75 113.465,30.75 C113.801,30.75 114.081,30.8066 114.307,30.9199 C114.532,31.0332 114.714,31.1738 114.854,31.3418 C114.993,31.5098 115.099,31.6745 115.172,31.8359 L115.223,31.8359 L115.223,28.8281 L116.883,28.8281 L116.883,36.8281 L115.242,36.8281 L115.242,35.8672 L115.172,35.8672 C115.094,36.0339 114.984,36.1986 114.842,36.3613 C114.7,36.5241 114.516,36.6589 114.291,36.7656 C114.066,36.8724 113.792,36.9258 113.469,36.9258 M113.996,35.6016 C114.264,35.6016 114.492,35.528 114.678,35.3809 C114.864,35.2337 115.007,35.0273 115.107,34.7617 C115.208,34.4961 115.258,34.1849 115.258,33.8281 C115.258,33.4714 115.208,33.1615 115.109,32.8984 C115.01,32.6354 114.867,32.4323 114.68,32.2891 C114.492,32.1458 114.264,32.0742 113.996,32.0742 C113.723,32.0742 113.492,32.1484 113.305,32.2969 C113.117,32.4453 112.975,32.651 112.879,32.9141 C112.783,33.1771 112.734,33.4818 112.734,33.8281 C112.734,34.1771 112.783,34.485 112.881,34.752 C112.979,35.0189 113.12,35.2272 113.307,35.377 C113.493,35.5267 113.723,35.6016 113.996,35.6016 "/>
</g>

<g fill="#ffffff" fill-opacity="1" stroke="none" transform="matrix(1,0,0,1,0,0)"
font-family="Inter" font-size="11" font-weight="700" font-style="normal" 
>
<path vector-effect="none" fill-rule="nonzero" d="M245.148,37.9531 L245.148,29.9531 L246.813,29.9531 L246.813,32.9609 L246.863,32.9609 C246.936,32.7995 247.042,32.6348 247.182,32.4668 C247.321,32.2988 247.503,32.1582 247.729,32.0449 C247.954,31.9316 248.234,31.875 248.57,31.875 C249.008,31.875 249.411,31.9889 249.781,32.2168 C250.151,32.4447 250.447,32.7871 250.668,33.2441 C250.889,33.7012 251,34.2734 251,34.9609 C251,35.6302 250.893,36.1947 250.678,36.6543 C250.463,37.1139 250.171,37.4616 249.803,37.6973 C249.434,37.9329 249.022,38.0508 248.566,38.0508 C248.243,38.0508 247.969,37.9974 247.744,37.8906 C247.519,37.7839 247.335,37.6491 247.191,37.4863 C247.048,37.3236 246.939,37.1589 246.863,36.9922 L246.789,36.9922 L246.789,37.9531 L245.148,37.9531 M246.777,34.9531 C246.777,35.3099 246.827,35.6211 246.926,35.8867 C247.025,36.1523 247.168,36.3587 247.355,36.5059 C247.543,36.653 247.771,36.7266 248.039,36.7266 C248.31,36.7266 248.539,36.6517 248.727,36.502 C248.914,36.3522 249.057,36.1439 249.154,35.877 C249.252,35.61 249.301,35.3021 249.301,34.9531 C249.301,34.6068 249.253,34.3021 249.156,34.0391 C249.06,33.776 248.918,33.5703 248.73,33.4219 C248.543,33.2734 248.313,33.1992 248.039,33.1992 C247.768,33.1992 247.54,33.2708 247.354,33.4141 C247.167,33.5573 247.025,33.7604 246.926,34.0234 C246.827,34.2865 246.777,34.5964 246.777,34.9531 M255.949,35.3984 L255.949,31.9531 L257.613,31.9531 L257.613,37.9531 L256.016,37.9531 L256.016,36.8633 L255.953,36.8633 C255.818,37.2148 255.593,37.4974 255.279,37.7109 C254.965,37.9245 254.583,38.0313 254.133,38.0313 C253.732,38.0313 253.379,37.9401 253.074,37.7578 C252.77,37.5755 252.532,37.3164 252.361,36.9805 C252.191,36.6445 252.104,36.2422 252.102,35.7734 L252.102,31.9531 L253.766,31.9531 L253.766,35.4766 C253.768,35.8307 253.863,36.1107 254.051,36.3164 C254.238,36.5221 254.49,36.625 254.805,36.625 C255.005,36.625 255.193,36.5788 255.367,36.4863 C255.542,36.3939 255.683,36.2565 255.791,36.0742 C255.899,35.8919 255.952,35.6667 255.949,35.3984 M262.121,31.9531 L262.121,33.2031 L258.508,33.2031 L258.508,31.9531 L262.121,31.9531 M259.328,30.5156 L260.992,30.5156 L260.992,36.1094 C260.992,36.263 261.016,36.3822 261.063,36.4668 C261.109,36.5514 261.175,36.6107 261.26,36.6445 C261.344,36.6784 261.443,36.6953 261.555,36.6953 C261.633,36.6953 261.711,36.6882 261.789,36.6738 C261.867,36.6595 261.927,36.6484 261.969,36.6406 L262.23,37.8789 C262.147,37.9049 262.03,37.9355 261.879,37.9707 C261.728,38.0059 261.544,38.0273 261.328,38.0352 C260.927,38.0508 260.576,37.9974 260.275,37.875 C259.975,37.7526 259.741,37.5625 259.574,37.3047 C259.408,37.0469 259.326,36.7214 259.328,36.3281 L259.328,30.5156 M266.387,31.9531 L266.387,33.2031 L262.773,33.2031 L262.773,31.9531 L266.387,31.9531 M263.594,30.5156 L265.258,30.5156 L265.258,36.1094 C265.258,36.263 265.281,36.3822 265.328,36.4668 C265.375,36.5514 265.441,36.6107 265.525,36.6445 C265.61,36.6784 265.708,36.6953 265.82,36.6953 C265.898,36.6953 265.977,36.6882 266.055,36.6738 C266.133,36.6595 266.193,36.6484 266.234,36.6406 L266.496,37.8789 C266.413,37.9049 266.296,37.9355 266.145,37.9707 C265.993,38.0059 265.81,38.0273 265.594,38.0352 C265.193,38.0508 264.842,37.9974 264.541,37.875 C264.24,37.7526 264.007,37.5625 263.84,37.3047 C263.673,37.0469 263.591,36.7214 263.594,36.3281 L263.594,30.5156 M270.109,38.0703 C269.503,38.0703 268.979,37.9408 268.537,37.6816 C268.096,37.4225 267.755,37.0605 267.516,36.5957 C267.276,36.1309 267.156,35.5911 267.156,34.9766 C267.156,34.3568 267.276,33.8145 267.516,33.3496 C267.755,32.8848 268.096,32.5228 268.537,32.2637 C268.979,32.0046 269.503,31.875 270.109,31.875 C270.716,31.875 271.24,32.0046 271.682,32.2637 C272.123,32.5228 272.464,32.8848 272.703,33.3496 C272.943,33.8145 273.063,34.3568 273.063,34.9766 C273.063,35.5911 272.943,36.1309 272.703,36.5957 C272.464,37.0605 272.123,37.4225 271.682,37.6816 C271.24,37.9408 270.716,38.0703 270.109,38.0703 M270.117,36.7813 C270.393,36.7813 270.624,36.7025 270.809,36.5449 C270.993,36.3874 271.133,36.1719 271.229,35.8984 C271.324,35.625 271.371,35.3138 271.371,34.9648 C271.371,34.6159 271.324,34.3047 271.229,34.0313 C271.133,33.7578 270.993,33.5417 270.809,33.3828 C270.624,33.224 270.393,33.1445 270.117,33.1445 C269.839,33.1445 269.605,33.224 269.416,33.3828 C269.227,33.5417 269.085,33.7578 268.99,34.0313 C268.895,34.3047 268.848,34.6159 268.848,34.9648 C268.848,35.3138 268.895,35.625 268.99,35.8984 C269.085,36.1719 269.227,36.3874 269.416,36.5449 C269.605,36.7025 269.839,36.7813 270.117,36.7813 M275.813,34.4844 L275.813,37.9531 L274.148,37.9531 L274.148,31.9531 L275.734,31.9531 L275.734,33.0117 L275.805,33.0117 C275.938,32.6628 276.16,32.3861 276.473,32.1816 C276.785,31.9772 277.164,31.875 277.609,31.875 C278.026,31.875 278.389,31.9661 278.699,32.1484 C279.009,32.3307 279.25,32.5905 279.422,32.9277 C279.594,33.265 279.68,33.6667 279.68,34.1328 L279.68,37.9531 L278.016,37.9531 L278.016,34.4297 C278.018,34.0625 277.924,33.7754 277.734,33.5684 C277.544,33.3613 277.283,33.2578 276.949,33.2578 C276.725,33.2578 276.528,33.306 276.357,33.4023 C276.187,33.4987 276.054,33.6387 275.959,33.8223 C275.864,34.0059 275.815,34.2266 275.813,34.4844 M283.523,37.9531 L283.523,31.9531 L285.188,31.9531 L285.188,37.9531 L283.523,37.9531 M284.359,31.1797 C284.112,31.1797 283.9,31.097 283.725,30.9316 C283.549,30.7663 283.461,30.5677 283.461,30.3359 C283.461,30.1068 283.549,29.9095 283.725,29.7441 C283.9,29.5788 284.112,29.4961 284.359,29.4961 C284.607,29.4961 284.818,29.5788 284.994,29.7441 C285.17,29.9095 285.258,30.1068 285.258,30.3359 C285.258,30.5677 285.17,30.7663 284.994,30.9316 C284.818,31.097 284.607,31.1797 284.359,31.1797 M291.5,33.6641 L289.977,33.7578 C289.951,33.6276 289.895,33.5098 289.809,33.4043 C289.723,33.2988 289.61,33.2142 289.471,33.1504 C289.331,33.0866 289.165,33.0547 288.973,33.0547 C288.715,33.0547 288.497,33.1087 288.32,33.2168 C288.143,33.3249 288.055,33.4688 288.055,33.6484 C288.055,33.7917 288.112,33.9128 288.227,34.0117 C288.341,34.1107 288.538,34.1901 288.816,34.25 L289.902,34.4688 C290.486,34.5885 290.921,34.7813 291.207,35.0469 C291.493,35.3125 291.637,35.6615 291.637,36.0938 C291.637,36.487 291.521,36.832 291.291,37.1289 C291.061,37.4258 290.745,37.6569 290.346,37.8223 C289.946,37.9876 289.486,38.0703 288.965,38.0703 C288.171,38.0703 287.538,37.9043 287.068,37.5723 C286.598,37.2402 286.323,36.7878 286.242,36.2148 L287.879,36.1289 C287.928,36.3711 288.048,36.5553 288.238,36.6816 C288.428,36.8079 288.672,36.8711 288.969,36.8711 C289.26,36.8711 289.495,36.8145 289.674,36.7012 C289.852,36.5879 289.943,36.4414 289.945,36.2617 C289.943,36.1107 289.879,35.9863 289.754,35.8887 C289.629,35.791 289.436,35.7161 289.176,35.6641 L288.137,35.457 C287.551,35.3398 287.115,35.1367 286.83,34.8477 C286.545,34.5586 286.402,34.1901 286.402,33.7422 C286.402,33.3568 286.507,33.0247 286.717,32.7461 C286.926,32.4674 287.222,32.2526 287.604,32.1016 C287.985,31.9505 288.432,31.875 288.945,31.875 C289.703,31.875 290.3,32.0352 290.736,32.3555 C291.173,32.6758 291.427,33.112 291.5,33.6641 "/>
</g>

<g fill="#ffffff" fill-opacity="1" stroke="none" transform="matrix(0.95,0,0,0.95,11.6,25.6)"
font-family="Inter" font-size="11" font-weight="700" font-style="normal" 
>
<path vector-effect="none" fill-rule="nonzero" d="M2.19896,4.65234 C1.18891,4.65234 0.375703,5.46549 0.375703,6.47555 L0.375703,8.579 C1.00152,8.60331 1.67842,9.11362 1.67842,9.74561 L1.67842,14.2544 C1.67842,14.8864 1.00152,15.3967 0.375703,15.421 L0.375703,17.5245 C0.375703,18.5345 1.18891,19.3477 2.19896,19.3477 L21.8479,19.3477 C22.858,19.3477 23.6711,18.5345 23.6711,17.5245 L23.6711,6.47555 C23.6711,5.46549 22.858,4.65234 21.8479,4.65234 L2.19896,4.65234 M6.71936,9.23098 C8.56166,9.23097 10.0552,10.7245 10.0552,12.5668 C10.0552,14.4091 8.56167,15.9026 6.71936,15.9026 C4.87705,15.9026 3.38355,14.4091 3.38355,12.5668 C3.38355,10.7245 4.87705,9.23097 6.71936,9.23098 M19.875,9.24873 C20.7082,9.24871 21.3837,9.92418 21.3837,10.7574 C21.3837,11.5906 20.7082,12.266 19.875,12.266 C19.0418,12.266 18.3664,11.5906 18.3664,10.7574 C18.3664,9.9242 19.0418,9.24874 19.875,9.24873 M17.4318,12.8825 C18.265,12.8825 18.9404,13.558 18.9404,14.3912 C18.9404,15.2243 18.2649,15.8998 17.4318,15.8998 C16.5986,15.8998 15.9231,15.2244 15.9231,14.3912 C15.9231,13.5579 16.5985,12.8825 17.4318,12.8825 "/>
</g>

<g fill="none" stroke="#000000" stroke-opacity="1" stroke-width="0.54" stroke-linecap="butt" stroke-linejoin="miter" stroke-miterlimit="4" transform="matrix(0.95,0,0,0.95,11.6,25.6)"
font-family="Inter" font-size="11" font-weight="700" font-style="normal" 
>
<path vector-effect="none" fill-rule="nonzero" d="M2.19896,4.65234 C1.18891,4.65234 0.375703,5.46549 0.375703,6.47555 L0.375703,8.579 C1.00152,8.60331 1.67842,9.11362 1.67842,9.74561 L1.67842,14.2544 C1.67842,14.8864 1.00152,15.3967 0.375703,15.421 L0.375703,17.5245 C0.375703,18.5345 1.18891,19.3477 2.19896,19.3477 L21.8479,19.3477 C22.858,19.3477 23.6711,18.5345 23.6711,17.5245 L23.6711,6.47555 C23.6711,5.46549 22.858,4.65234 21.8479,4.65234 L2.19896,4.65234 M6.71936,9.23098 C8.56166,9.23097 10.0552,10.7245 10.0552,12.5668 C10.0552,14.4091 8.56167,15.9026 6.71936,15.9026 C4.87705,15.9026 3.38355,14.4091 3.38355,12.5668 C3.38355,10.7245 4.87705,9.23097 6.71936,9.23098 M19.875,9.24873 C20.7082,9.24871 21.3837,9.92418 21.3837,10.7574 C21.3837,11.5906 20.7082,12.266 19.875,12.266 C19.0418,12.266 18.3664,11.5906 18.3664,10.7574 C18.3664,9.9242 19.0418,9.24874 19.875,9.24873 M17.4318,12.8825 C18.265,12.8825 18.9404,13.558 18.9404,14.3912 C18.9404,15.2243 18.2649,15.8998 17.4318,15.8998 C16.5986,15.8998 15.9231,15.2244 15.9231,14.3912 C15.9231,13.5579 16.5985,12.8825 17.4318,12.8825 "/>
</g>

<g fill="#000000" fill-opacity="1" stroke="none" transform="matrix(0.95,0,0,0.95,11.6,25.6)"
font-family="Inter" font-size="11" font-weight="700" font-style="normal" 
>
<path vector-effect="none" fill-rule="nonzero" d="M0.108328,15.3227 L0.103298,8.65983 L1.21825,8.7259 L1.75102,9.37791 L1.70662,12.9064 L1.66222,14.5556 L1.04066,15.0542 L0.108328,15.3227"/>
</g>

<g fill="#000000" fill-opacity="1" stroke="none" transform="matrix(0.95,0,0,0.95,11.6,25.6)"
font-family="Inter" font-size="11" font-weight="700" font-style="normal" 
>
<circle cx="6.70111" cy="12.5452" r="1.68266"/>
</g>

<g fill="none" stroke="#000000" stroke-opacity="1" stroke-width="0.54" stroke-linecap="butt" stroke-linejoin="miter" stroke-miterlimit="4" transform="matrix(0.95,0,0,0.95,11.6,25.6)"
font-family="Inter" font-size="11" font-weight="700" font-style="normal" 
>
<circle cx="6.70111" cy="12.5452" r="1.68266"/>
</g>

<g fill="#000000" fill-opacity="1" stroke="none" transform="matrix(0.95,0,0,0.95,11.6,25.6)"
font-family="Inter" font-size="11" font-weight="700" font-style="normal" 
opacity="0.858824" >
<path vector-effect="none" fill-rule="evenodd" d="M8.42109,18.1373 C8.42109,18.0846 8.46385,18.0418 8.51661,18.0418 L15.4834,18.0418 C15.5361,18.0418 15.5789,18.0846 15.5789,18.1373 L15.5789,18.1373 C15.5789,18.1901 15.5361,18.2329 15.4834,18.2329 L8.51661,18.2329 C8.46385,18.2329 8.42109,18.1901 8.42109,18.1373 L8.42109,18.1373"/>
</g>

<g fill="none" stroke="#000000" stroke-opacity="1" stroke-width="0.437534" stroke-linecap="butt" stroke-linejoin="miter" stroke-miterlimit="4" transform="matrix(0.95,0,0,0.95,11.6,25.6)"
font-family="Inter" font-size="11" font-weight="700" font-style="normal" 
>
<path vector-effect="none" fill-rule="evenodd" d="M8.42109,18.1373 C8.42109,18.0846 8.46385,18.0418 8.51661,18.0418 L15.4834,18.0418 C15.5361,18.0418 15.5789,18.0846 15.5789,18.1373 L15.5789,18.1373 C15.5789,18.1901 15.5361,18.2329 15.4834,18.2329 L8.51661,18.2329 C8.46385,18.2329 8.42109,18.1901 8.42109,18.1373 L8.42109,18.1373"/>
</g>

<g fill="#ffffff" fill-opacity="1" stroke="none" transform="matrix(1,0,0,1,0,0)"
font-family="Inter" font-size="11" font-weight="700" font-style="normal" 
>
</g>

<g fill="#ffffff" fill-opacity="1" stroke="#00645c" stroke-opacity="1" stroke-width="1" stroke-linecap="square" stroke-linejoin="bevel" transform="matrix(1,0,0,1,0,0)"
font-family="Inter" font-size="11" font-weight="700" font-style="normal" 
>
<polyline fill="none" vector-effect="none" points="45,27 45,47 " />
</g>

<g fill="#009f94" fill-opacity="1" stroke="#00645c" stroke-opacity="1" stroke-width="1.2" stroke-linecap="square" stroke-linejoin="bevel" transform="matrix(1,0,0,1,124,22)"
font-family="Inter" font-size="11" font-weight="700" font-style="normal" 
>
<path vector-effect="none" fill-rule="evenodd" d="M0.5,3.5 C0.5,1.84315 1.84315,0.5 3.5,0.5 L62.5,0.5 C64.1569,0.5 65.5,1.84315 65.5,3.5 L65.5,20.5 C65.5,22.1569 64.1569,23.5 62.5,23.5 L3.5,23.5 C1.84315,23.5 0.5,22.1569 0.5,20.5 L0.5,3.5"/>
</g>

<g fill="#ffffff" fill-opacity="1" stroke="none" transform="matrix(1,0,0,1,124,22)"
font-family="Inter" font-size="11" font-weight="700" font-style="normal" 
>
<path vector-effect="none" fill-rule="nonzero" d="M12.8438,16 L10.0078,16 L10.0078,8 L12.8672,8 C13.6719,8 14.3646,8.15951 14.9453,8.47852 C15.526,8.79753 15.9733,9.25521 16.2871,9.85156 C16.6009,10.4479 16.7578,11.1615 16.7578,11.9922 C16.7578,12.8255 16.6009,13.5417 16.2871,14.1406 C15.9733,14.7396 15.5241,15.1992 14.9395,15.5195 C14.3548,15.8398 13.6563,16 12.8438,16 M11.6992,14.5508 L12.7734,14.5508 C13.2734,14.5508 13.6947,14.4616 14.0371,14.2832 C14.3796,14.1048 14.6374,13.8275 14.8105,13.4512 C14.9837,13.0749 15.0703,12.5885 15.0703,11.9922 C15.0703,11.401 14.9837,10.918 14.8105,10.543 C14.6374,10.168 14.3802,9.89193 14.0391,9.71484 C13.6979,9.53776 13.2773,9.44922 12.7773,9.44922 L11.6992,9.44922 L11.6992,14.5508 M18.0078,16 L18.0078,8 L21.1641,8 C21.7708,8 22.2878,8.11523 22.7148,8.3457 C23.1419,8.57617 23.4681,8.89518 23.6934,9.30273 C23.9186,9.71029 24.0313,10.1797 24.0313,10.7109 C24.0313,11.2422 23.9167,11.7109 23.6875,12.1172 C23.4583,12.5234 23.127,12.8398 22.6934,13.0664 C22.2598,13.293 21.7357,13.4063 21.1211,13.4063 L19.1094,13.4063 L19.1094,12.0508 L20.8477,12.0508 C21.1732,12.0508 21.4421,11.9941 21.6543,11.8809 C21.8665,11.7676 22.0254,11.61 22.1309,11.4082 C22.2363,11.2064 22.2891,10.974 22.2891,10.7109 C22.2891,10.4453 22.2363,10.2129 22.1309,10.0137 C22.0254,9.81445 21.8659,9.65951 21.6523,9.54883 C21.4388,9.43815 21.168,9.38281 20.8398,9.38281 L19.6992,9.38281 L19.6992,16 L18.0078,16 M25.5898,16 L23.7773,16 L26.5391,8 L28.7188,8 L31.4766,16 L29.6641,16 L27.6602,9.82813 L27.5977,9.82813 L25.5898,16 M25.4766,12.8555 L29.7578,12.8555 L29.7578,14.1758 L25.4766,14.1758 L25.4766,12.8555 M35.2656,16 L32.4297,16 L32.4297,8 L35.2891,8 C36.0938,8 36.7865,8.15951 37.3672,8.47852 C37.9479,8.79753 38.3952,9.25521 38.709,9.85156 C39.0228,10.4479 39.1797,11.1615 39.1797,11.9922 C39.1797,12.8255 39.0228,13.5417 38.709,14.1406 C38.3952,14.7396 37.946,15.1992 37.3613,15.5195 C36.7767,15.8398 36.0781,16 35.2656,16 M34.1211,14.5508 L35.1953,14.5508 C35.6953,14.5508 36.1165,14.4616 36.459,14.2832 C36.8014,14.1048 37.0592,13.8275 37.2324,13.4512 C37.4056,13.0749 37.4922,12.5885 37.4922,11.9922 C37.4922,11.401 37.4056,10.918 37.2324,10.543 C37.0592,10.168 36.8021,9.89193 36.4609,9.71484 C36.1198,9.53776 35.6992,9.44922 35.1992,9.44922 L34.1211,9.44922 L34.1211,14.5508 M43.8633,8 L43.8633,16 L42.1719,16 L42.1719,9.60547 L42.125,9.60547 L40.293,10.7539 L40.293,9.25391 L42.2734,8 L43.8633,8"/>
</g>

<g fill="#ffffff" fill-opacity="1" stroke="none" transform="matrix(0.03125,0,0,0.03125,176,30)"
font-family="Inter" font-size="11" font-weight="700" font-style="normal" 
>
<path vector-effect="none" fill-rule="nonzero" d="M111.326,191.938 C120.545,201.158 135.517,201.158 144.737,191.938 L239.144,97.5313 C245.929,90.7458 247.921,80.6413 244.233,71.7907 C240.545,62.9401 231.989,57.1871 222.401,57.1871 L33.5875,57.2608 C24.0731,57.2608 15.4437,63.0137 11.7559,71.8644 C8.06815,80.715 10.1333,90.8195 16.845,97.605 L111.252,192.012 L111.326,191.938"/>
</g>

<g fill="none" stroke="#000000" stroke-opacity="1" stroke-width="13.7195" stroke-linecap="butt" stroke-linejoin="miter" stroke-miterlimit="4" transform="matrix(0.03125,0,0,0.03125,176,30)"
font-family="Inter" font-size="11" font-weight="700" font-style="normal" 
>
<path vector-effect="none" fill-rule="nonzero" d="M111.326,191.938 C120.545,201.158 135.517,201.158 144.737,191.938 L239.144,97.5313 C245.929,90.7458 247.921,80.6413 244.233,71.7907 C240.545,62.9401 231.989,57.1871 222.401,57.1871 L33.5875,57.2608 C24.0731,57.2608 15.4437,63.0137 11.7559,71.8644 C8.06815,80.715 10.1333,90.8195 16.845,97.605 L111.252,192.012 L111.326,191.938"/>
</g>

<g fill="#ffffff" fill-opacity="1" stroke="none" transform="matrix(1,0,0,1,124,22)"
font-family="Inter" font-size="11" font-weight="700" font-style="normal" 
>
</g>

<g fill="#ffffff" fill-opacity="1" stroke="#00645c" stroke-opacity="1" stroke-width="1" stroke-linecap="square" stroke-linejoin="bevel" transform="matrix(1,0,0,1,0,0)"
font-family="Inter" font-size="11" font-weight="700" font-style="normal" 
>
</g>

<g fill="#009f94" fill-opacity="1" stroke="#00645c" stroke-opacity="1" stroke-width="1.2" stroke-linecap="square" stroke-linejoin="bevel" transform="matrix(1,0,0,1,194,22)"
font-family="Inter" font-size="11" font-weight="700" font-style="normal" 
>
<path vector-effect="none" fill-rule="evenodd" d="M0.5,3.5 C0.5,1.84315 1.84315,0.5 3.5,0.5 L41.5,0.5 C43.1569,0.5 44.5,1.84315 44.5,3.5 L44.5,20.5 C44.5,22.1569 43.1569,23.5 41.5,23.5 L3.5,23.5 C1.84315,23.5 0.5,22.1569 0.5,20.5 L0.5,3.5"/>
</g>

<g fill="#ffffff" fill-opacity="1" stroke="none" transform="matrix(1,0,0,1,194,22)"
font-family="Inter" font-size="11" font-weight="700" font-style="normal" 
>
<path vector-effect="none" fill-rule="nonzero" d="M13.8555,11.3203 L13.8555,7.875 L15.5195,7.875 L15.5195,13.875 L13.9219,13.875 L13.9219,12.7852 L13.8594,12.7852 C13.724,13.1367 13.4993,13.4193 13.1855,13.6328 C12.8717,13.8464 12.4896,13.9531 12.0391,13.9531 C11.638,13.9531 11.2852,13.862 10.9805,13.6797 C10.6758,13.4974 10.4382,13.2383 10.2676,12.9023 C10.097,12.5664 10.0104,12.1641 10.0078,11.6953 L10.0078,7.875 L11.6719,7.875 L11.6719,11.3984 C11.6745,11.7526 11.7695,12.0326 11.957,12.2383 C12.1445,12.444 12.3958,12.5469 12.7109,12.5469 C12.9115,12.5469 13.099,12.5007 13.2734,12.4082 C13.4479,12.3158 13.5892,12.1784 13.6973,11.9961 C13.8053,11.8138 13.8581,11.5885 13.8555,11.3203 M16.8359,16.125 L16.8359,7.875 L18.4766,7.875 L18.4766,8.88281 L18.5508,8.88281 C18.6237,8.72135 18.7298,8.55664 18.8691,8.38867 C19.0085,8.2207 19.1908,8.08008 19.416,7.9668 C19.6413,7.85352 19.9219,7.79688 20.2578,7.79688 C20.6953,7.79688 21.099,7.91081 21.4688,8.13867 C21.8385,8.36654 22.1341,8.70898 22.3555,9.16602 C22.5768,9.62305 22.6875,10.1953 22.6875,10.8828 C22.6875,11.5521 22.5801,12.1165 22.3652,12.5762 C22.1504,13.0358 21.8587,13.3835 21.4902,13.6191 C21.1217,13.8548 20.7096,13.9727 20.2539,13.9727 C19.931,13.9727 19.6569,13.9193 19.4316,13.8125 C19.2064,13.7057 19.0221,13.571 18.8789,13.4082 C18.7357,13.2454 18.6263,13.0807 18.5508,12.9141 L18.5,12.9141 L18.5,16.125 L16.8359,16.125 M18.4648,10.875 C18.4648,11.2318 18.5143,11.543 18.6133,11.8086 C18.7122,12.0742 18.8555,12.2806 19.043,12.4277 C19.2305,12.5749 19.4583,12.6484 19.7266,12.6484 C19.9974,12.6484 20.2266,12.5736 20.4141,12.4238 C20.6016,12.2741 20.7441,12.0658 20.8418,11.7988 C20.9395,11.5319 20.9883,11.224 20.9883,10.875 C20.9883,10.5286 20.9401,10.224 20.8438,9.96094 C20.7474,9.69792 20.6055,9.49219 20.418,9.34375 C20.2305,9.19531 20,9.12109 19.7266,9.12109 C19.4557,9.12109 19.2272,9.19271 19.041,9.33594 C18.8548,9.47917 18.7122,9.68229 18.6133,9.94531 C18.5143,10.2083 18.4648,10.5182 18.4648,10.875 "/>
</g>

<g fill="#ffffff" fill-opacity="1" stroke="none" transform="matrix(0.03125,0,0,0.03125,225,30)"
font-family="Inter" font-size="11" font-weight="700" font-style="normal" 
>
<path vector-effect="none" fill-rule="nonzero" d="M111.326,191.938 C120.545,201.158 135.517,201.158 144.737,191.938 L239.144,97.5313 C245.929,90.7458 247.921,80.6413 244.233,71.7907 C240.545,62.9401 231.989,57.1871 222.401,57.1871 L33.5875,57.2608 C24.0731,57.2608 15.4437,63.0137 11.7559,71.8644 C8.06815,80.715 10.1333,90.8195 16.845,97.605 L111.252,192.012 L111.326,191.938"/>
</g>

<g fill="none" stroke="#000000" stroke-opacity="1" stroke-width="13.7195" stroke-linecap="butt" stroke-linejoin="miter" stroke-miterlimit="4" transform="matrix(0.03125,0,0,0.03125,225,30)"
font-family="Inter" font-size="11" font-weight="700" font-style="normal" 
>
<path vector-effect="none" fill-rule="nonzero" d="M111.326,191.938 C120.545,201.158 135.517,201.158 144.737,191.938 L239.144,97.5313 C245.929,90.7458 247.921,80.6413 244.233,71.7907 C240.545,62.9401 231.989,57.1871 222.401,57.1871 L33.5875,57.2608 C24.0731,57.2608 15.4437,63.0137 11.7559,71.8644 C8.06815,80.715 10.1333,90.8195 16.845,97.605 L111.252,192.012 L111.326,191.938"/>
</g>

<g fill="#ffffff" fill-opacity="1" stroke="none" transform="matrix(1,0,0,1,194,22)"
font-family="Inter" font-size="11" font-weight="700" font-style="normal" 
>
</g>

<g fill="#ffffff" fill-opacity="1" stroke="#00645c" stroke-opacity="1" stroke-width="1" stroke-linecap="square" stroke-linejoin="bevel" transform="matrix(1,0,0,1,0,0)"
font-family="Inter" font-size="11" font-weight="700" font-style="normal" 
>
</g>

<g fill="#009f94" fill-opacity="1" stroke="#00645c" stroke-opacity="1" stroke-width="1.2" stroke-linecap="square" stroke-linejoin="bevel" transform="matrix(1,0,0,1,298,22)"
font-family="Inter" font-size="11" font-weight="700" font-style="normal" 
>
<path vector-effect="none" fill-rule="evenodd" d="M0.5,3.5 C0.5,1.84315 1.84315,0.5 3.5,0.5 L70.5,0.5 C72.1569,0.5 73.5,1.84315 73.5,3.5 L73.5,20.5 C73.5,22.1569 72.1569,23.5 70.5,23.5 L3.5,23.5 C1.84315,23.5 0.5,22.1569 0.5,20.5 L0.5,3.5"/>
</g>

<g fill="#ffffff" fill-opacity="1" stroke="none" transform="matrix(1,0,0,1,298,22)"
font-family="Inter" font-size="11" font-weight="700" font-style="normal" 
>
<path vector-effect="none" fill-rule="nonzero" d="M9.00781,17.0781 L9.00781,8.82813 L10.6484,8.82813 L10.6484,9.83594 L10.7227,9.83594 C10.7956,9.67448 10.9017,9.50977 11.041,9.3418 C11.1803,9.17383 11.3626,9.0332 11.5879,8.91992 C11.8132,8.80664 12.0938,8.75 12.4297,8.75 C12.8672,8.75 13.2708,8.86393 13.6406,9.0918 C14.0104,9.31966 14.306,9.66211 14.5273,10.1191 C14.7487,10.5762 14.8594,11.1484 14.8594,11.8359 C14.8594,12.5052 14.752,13.0697 14.5371,13.5293 C14.3223,13.9889 14.0306,14.3366 13.6621,14.5723 C13.2936,14.8079 12.8815,14.9258 12.4258,14.9258 C12.1029,14.9258 11.8288,14.8724 11.6035,14.7656 C11.3783,14.6589 11.194,14.5241 11.0508,14.3613 C10.9076,14.1986 10.7982,14.0339 10.7227,13.8672 L10.6719,13.8672 L10.6719,17.0781 L9.00781,17.0781 M10.6367,11.8281 C10.6367,12.1849 10.6862,12.4961 10.7852,12.7617 C10.8841,13.0273 11.0273,13.2337 11.2148,13.3809 C11.4023,13.528 11.6302,13.6016 11.8984,13.6016 C12.1693,13.6016 12.3984,13.5267 12.5859,13.377 C12.7734,13.2272 12.916,13.0189 13.0137,12.752 C13.1113,12.485 13.1602,12.1771 13.1602,11.8281 C13.1602,11.4818 13.112,11.1771 13.0156,10.9141 C12.9193,10.651 12.7773,10.4453 12.5898,10.2969 C12.4023,10.1484 12.1719,10.0742 11.8984,10.0742 C11.6276,10.0742 11.3991,10.1458 11.2129,10.2891 C11.0267,10.4323 10.8841,10.6354 10.7852,10.8984 C10.6862,11.1615 10.6367,11.4714 10.6367,11.8281 M15.9609,14.8281 L15.9609,8.82813 L17.5742,8.82813 L17.5742,9.875 L17.6367,9.875 C17.7461,9.5026 17.9297,9.2207 18.1875,9.0293 C18.4453,8.83789 18.7422,8.74219 19.0781,8.74219 C19.1615,8.74219 19.2513,8.7474 19.3477,8.75781 C19.444,8.76823 19.5286,8.78255 19.6016,8.80078 L19.6016,10.2773 C19.5234,10.2539 19.4154,10.2331 19.2773,10.2148 C19.1393,10.1966 19.013,10.1875 18.8984,10.1875 C18.6536,10.1875 18.4355,10.2402 18.2441,10.3457 C18.0527,10.4512 17.9017,10.5977 17.791,10.7852 C17.6803,10.9727 17.625,11.1888 17.625,11.4336 L17.625,14.8281 L15.9609,14.8281 M22.8984,14.9453 C22.2813,14.9453 21.7507,14.8197 21.3066,14.5684 C20.8626,14.3171 20.5208,13.9603 20.2813,13.498 C20.0417,13.0358 19.9219,12.4883 19.9219,11.8555 C19.9219,11.2383 20.0417,10.6966 20.2813,10.2305 C20.5208,9.76432 20.8587,9.40104 21.2949,9.14063 C21.7311,8.88021 22.2435,8.75 22.832,8.75 C23.2279,8.75 23.597,8.81315 23.9395,8.93945 C24.2819,9.06576 24.5814,9.25521 24.8379,9.50781 C25.0944,9.76042 25.2943,10.0775 25.4375,10.459 C25.5807,10.8405 25.6523,11.2865 25.6523,11.7969 L25.6523,12.2539 L20.5859,12.2539 L20.5859,11.2227 L24.0859,11.2227 C24.0859,10.9831 24.0339,10.7708 23.9297,10.5859 C23.8255,10.401 23.6816,10.2559 23.498,10.1504 C23.3145,10.0449 23.1016,9.99219 22.8594,9.99219 C22.6068,9.99219 22.3835,10.0501 22.1895,10.166 C21.9954,10.2819 21.8438,10.4368 21.7344,10.6309 C21.625,10.8249 21.569,11.0404 21.5664,11.2773 L21.5664,12.2578 C21.5664,12.5547 21.6217,12.8112 21.7324,13.0273 C21.8431,13.2435 22,13.4102 22.2031,13.5273 C22.4063,13.6445 22.6471,13.7031 22.9258,13.7031 C23.1107,13.7031 23.2799,13.6771 23.4336,13.625 C23.5872,13.5729 23.7188,13.4948 23.8281,13.3906 C23.9375,13.2865 24.0208,13.1589 24.0781,13.0078 L25.6172,13.1094 C25.5391,13.4792 25.3796,13.8014 25.1387,14.0762 C24.8978,14.3509 24.5879,14.5645 24.209,14.7168 C23.8301,14.8691 23.3932,14.9453 22.8984,14.9453 M31.7188,10.5391 L30.1953,10.6328 C30.1693,10.5026 30.1133,10.3848 30.0273,10.2793 C29.9414,10.1738 29.8288,10.0892 29.6895,10.0254 C29.5501,9.96159 29.3841,9.92969 29.1914,9.92969 C28.9336,9.92969 28.7161,9.98372 28.5391,10.0918 C28.362,10.1999 28.2734,10.3438 28.2734,10.5234 C28.2734,10.6667 28.3307,10.7878 28.4453,10.8867 C28.5599,10.9857 28.7565,11.0651 29.0352,11.125 L30.1211,11.3438 C30.7044,11.4635 31.1393,11.6563 31.4258,11.9219 C31.7122,12.1875 31.8555,12.5365 31.8555,12.9688 C31.8555,13.362 31.7402,13.707 31.5098,14.0039 C31.2793,14.3008 30.9642,14.5319 30.5645,14.6973 C30.1647,14.8626 29.7044,14.9453 29.1836,14.9453 C28.3893,14.9453 27.7572,14.7793 27.2871,14.4473 C26.8171,14.1152 26.5417,13.6628 26.4609,13.0898 L28.0977,13.0039 C28.1471,13.2461 28.2669,13.4303 28.457,13.5566 C28.6471,13.6829 28.8906,13.7461 29.1875,13.7461 C29.4792,13.7461 29.7142,13.6895 29.8926,13.5762 C30.071,13.4629 30.1615,13.3164 30.1641,13.1367 C30.1615,12.9857 30.0977,12.8613 29.9727,12.7637 C29.8477,12.666 29.6549,12.5911 29.3945,12.5391 L28.3555,12.332 C27.7695,12.2148 27.334,12.0117 27.0488,11.7227 C26.7637,11.4336 26.6211,11.0651 26.6211,10.6172 C26.6211,10.2318 26.7259,9.89974 26.9355,9.62109 C27.1452,9.34245 27.4408,9.1276 27.8223,8.97656 C28.2038,8.82552 28.651,8.75 29.1641,8.75 C29.9219,8.75 30.5189,8.91016 30.9551,9.23047 C31.3913,9.55078 31.6458,9.98698 31.7188,10.5391 M37.8906,10.5391 L36.3672,10.6328 C36.3411,10.5026 36.2852,10.3848 36.1992,10.2793 C36.1133,10.1738 36.0007,10.0892 35.8613,10.0254 C35.722,9.96159 35.556,9.92969 35.3633,9.92969 C35.1055,9.92969 34.888,9.98372 34.7109,10.0918 C34.5339,10.1999 34.4453,10.3438 34.4453,10.5234 C34.4453,10.6667 34.5026,10.7878 34.6172,10.8867 C34.7318,10.9857 34.9284,11.0651 35.207,11.125 L36.293,11.3438 C36.8763,11.4635 37.3112,11.6563 37.5977,11.9219 C37.8841,12.1875 38.0273,12.5365 38.0273,12.9688 C38.0273,13.362 37.9121,13.707 37.6816,14.0039 C37.4512,14.3008 37.1361,14.5319 36.7363,14.6973 C36.3366,14.8626 35.8763,14.9453 35.3555,14.9453 C34.5612,14.9453 33.929,14.7793 33.459,14.4473 C32.9889,14.1152 32.7135,13.6628 32.6328,13.0898 L34.2695,13.0039 C34.319,13.2461 34.4388,13.4303 34.6289,13.5566 C34.819,13.6829 35.0625,13.7461 35.3594,13.7461 C35.651,13.7461 35.8861,13.6895 36.0645,13.5762 C36.2428,13.4629 36.3333,13.3164 36.3359,13.1367 C36.3333,12.9857 36.2695,12.8613 36.1445,12.7637 C36.0195,12.666 35.8268,12.5911 35.5664,12.5391 L34.5273,12.332 C33.9414,12.2148 33.5059,12.0117 33.2207,11.7227 C32.9355,11.4336 32.793,11.0651 32.793,10.6172 C32.793,10.2318 32.8978,9.89974 33.1074,9.62109 C33.3171,9.34245 33.6126,9.1276 33.9941,8.97656 C34.3757,8.82552 34.8229,8.75 35.3359,8.75 C36.0938,8.75 36.6908,8.91016 37.127,9.23047 C37.5632,9.55078 37.8177,9.98698 37.8906,10.5391 M41.8047,14.9453 C41.1875,14.9453 40.6569,14.8197 40.2129,14.5684 C39.7689,14.3171 39.4271,13.9603 39.1875,13.498 C38.9479,13.0358 38.8281,12.4883 38.8281,11.8555 C38.8281,11.2383 38.9479,10.6966 39.1875,10.2305 C39.4271,9.76432 39.765,9.40104 40.2012,9.14063 C40.6374,8.88021 41.1497,8.75 41.7383,8.75 C42.1341,8.75 42.5033,8.81315 42.8457,8.93945 C43.1882,9.06576 43.4876,9.25521 43.7441,9.50781 C44.0007,9.76042 44.2005,10.0775 44.3438,10.459 C44.487,10.8405 44.5586,11.2865 44.5586,11.7969 L44.5586,12.2539 L39.4922,12.2539 L39.4922,11.2227 L42.9922,11.2227 C42.9922,10.9831 42.9401,10.7708 42.8359,10.5859 C42.7318,10.401 42.5879,10.2559 42.4043,10.1504 C42.2207,10.0449 42.0078,9.99219 41.7656,9.99219 C41.513,9.99219 41.2897,10.0501 41.0957,10.166 C40.9017,10.2819 40.75,10.4368 40.6406,10.6309 C40.5313,10.8249 40.4753,11.0404 40.4727,11.2773 L40.4727,12.2578 C40.4727,12.5547 40.528,12.8112 40.6387,13.0273 C40.7493,13.2435 40.9063,13.4102 41.1094,13.5273 C41.3125,13.6445 41.5534,13.7031 41.832,13.7031 C42.0169,13.7031 42.1862,13.6771 42.3398,13.625 C42.4935,13.5729 42.625,13.4948 42.7344,13.3906 C42.8438,13.2865 42.9271,13.1589 42.9844,13.0078 L44.5234,13.1094 C44.4453,13.4792 44.2858,13.8014 44.0449,14.0762 C43.804,14.3509 43.4941,14.5645 43.1152,14.7168 C42.7363,14.8691 42.2995,14.9453 41.8047,14.9453 M47.8438,14.9258 C47.388,14.9258 46.9759,14.8079 46.6074,14.5723 C46.2389,14.3366 45.9473,13.9889 45.7324,13.5293 C45.5176,13.0697 45.4102,12.5052 45.4102,11.8359 C45.4102,11.1484 45.5208,10.5762 45.7422,10.1191 C45.9635,9.66211 46.2585,9.31966 46.627,9.0918 C46.9954,8.86393 47.3997,8.75 47.8398,8.75 C48.1758,8.75 48.4564,8.80664 48.6816,8.91992 C48.9069,9.0332 49.0892,9.17383 49.2285,9.3418 C49.3678,9.50977 49.474,9.67448 49.5469,9.83594 L49.5977,9.83594 L49.5977,6.82813 L51.2578,6.82813 L51.2578,14.8281 L49.6172,14.8281 L49.6172,13.8672 L49.5469,13.8672 C49.4688,14.0339 49.3587,14.1986 49.2168,14.3613 C49.0749,14.5241 48.8913,14.6589 48.666,14.7656 C48.4408,14.8724 48.1667,14.9258 47.8438,14.9258 M48.3711,13.6016 C48.6393,13.6016 48.8665,13.528 49.0527,13.3809 C49.2389,13.2337 49.3822,13.0273 49.4824,12.7617 C49.5827,12.4961 49.6328,12.1849 49.6328,11.8281 C49.6328,11.4714 49.5833,11.1615 49.4844,10.8984 C49.3854,10.6354 49.2422,10.4323 49.0547,10.2891 C48.8672,10.1458 48.6393,10.0742 48.3711,10.0742 C48.0977,10.0742 47.8672,10.1484 47.6797,10.2969 C47.4922,10.4453 47.3503,10.651 47.2539,10.9141 C47.1576,11.1771 47.1094,11.4818 47.1094,11.8281 C47.1094,12.1771 47.1582,12.485 47.2559,12.752 C47.3535,13.0189 47.4954,13.2272 47.6816,13.377 C47.8678,13.5267 48.0977,13.6016 48.3711,13.6016 "/>
</g>

<g fill="#ffffff" fill-opacity="1" stroke="none" transform="matrix(0.03125,0,0,0.03125,358,30)"
font-family="Inter" font-size="11" font-weight="700" font-style="normal" 
>
<path vector-effect="none" fill-rule="nonzero" d="M111.326,191.938 C120.545,201.158 135.517,201.158 144.737,191.938 L239.144,97.5313 C245.929,90.7458 247.921,80.6413 244.233,71.7907 C240.545,62.9401 231.989,57.1871 222.401,57.1871 L33.5875,57.2608 C24.0731,57.2608 15.4437,63.0137 11.7559,71.8644 C8.06815,80.715 10.1333,90.8195 16.845,97.605 L111.252,192.012 L111.326,191.938"/>
</g>

<g fill="none" stroke="#000000" stroke-opacity="1" stroke-width="13.7195" stroke-linecap="butt" stroke-linejoin="miter" stroke-miterlimit="4" transform="matrix(0.03125,0,0,0.03125,358,30)"
font-family="Inter" font-size="11" font-weight="700" font-style="normal" 
>
<path vector-effect="none" fill-rule="nonzero" d="M111.326,191.938 C120.545,201.158 135.517,201.158 144.737,191.938 L239.144,97.5313 C245.929,90.7458 247.921,80.6413 244.233,71.7907 C240.545,62.9401 231.989,57.1871 222.401,57.1871 L33.5875,57.2608 C24.0731,57.2608 15.4437,63.0137 11.7559,71.8644 C8.06815,80.715 10.1333,90.8195 16.845,97.605 L111.252,192.012 L111.326,191.938"/>
</g>

<g fill="#ffffff" fill-opacity="1" stroke="none" transform="matrix(1,0,0,1,298,22)"
font-family="Inter" font-size="11" font-weight="700" font-style="normal" 
>
</g>

<g fill="#ffffff" fill-opacity="1" stroke="#00645c" stroke-opacity="1" stroke-width="1" stroke-linecap="square" stroke-linejoin="bevel" transform="matrix(1,0,0,1,0,0)"
font-family="Inter" font-size="11" font-weight="700" font-style="normal" 
>
</g>

<g fill="#ffffff" fill-opacity="1" stroke="#00645c" stroke-opacity="1" stroke-width="1" stroke-linecap="square" stroke-linejoin="bevel" transform="matrix(1,0,0,1,0,0)"
font-family="Inter" font-size="11" font-weight="700" font-style="normal" 
>
</g>

<g fill="none" stroke="#000000" stroke-opacity="1" stroke-width="1" stroke-linecap="square" stroke-linejoin="bevel" transform="matrix(1,0,0,1,0,0)"
font-family=".AppleSystemUIFont" font-size="13" font-weight="400" font-style="normal" 
>
</g>
</g>
</svg>
