<?xml version="1.0" encoding="UTF-8" standalone="no"?>
<svg width="75.1417mm" height="11.2889mm"
 viewBox="0 0 213 32"
 xmlns="http://www.w3.org/2000/svg" xmlns:xlink="http://www.w3.org/1999/xlink" version="1.2" baseProfile="tiny">
<title>Abstract block</title>
<desc>block_gamepad_thumbstick_value_float</desc>
<defs>
</defs>
<g fill="none" stroke="black" stroke-width="1" fill-rule="evenodd" stroke-linecap="square" stroke-linejoin="bevel" >

<g fill="none" stroke="#000000" stroke-opacity="1" stroke-width="1" stroke-linecap="square" stroke-linejoin="bevel" transform="matrix(1,0,0,1,0,0)"
font-family=".AppleSystemUIFont" font-size="13" font-weight="400" font-style="normal" 
>
</g>

<g fill="none" stroke="#000000" stroke-opacity="1" stroke-width="1" stroke-linecap="square" stroke-linejoin="bevel" transform="matrix(1,0,0,1,0,0)"
font-family=".AppleSystemUIFont" font-size="13" font-weight="400" font-style="normal" 
>
</g>

<g fill="#00a97d" fill-opacity="1" stroke="#006e51" stroke-opacity="1" stroke-width="1.2" stroke-linecap="square" stroke-linejoin="bevel" transform="matrix(1,0,0,1,0,0)"
font-family=".AppleSystemUIFont" font-size="13" font-weight="400" font-style="normal" 
>
<path vector-effect="none" fill-rule="evenodd" d="M1,16 C1,7.71573 8.16344,1 17,1 L195.667,1 C204.503,1 211.667,7.71573 211.667,16 C211.667,24.2843 204.503,31 195.667,31 L17,31 C8.16344,31 1,24.2843 1,16 "/>
</g>

<g fill="#ffffff" fill-opacity="1" stroke="none" transform="matrix(1,0,0,1,0,0)"
font-family="Inter" font-size="11" font-weight="700" font-style="normal" 
>
<path vector-effect="none" fill-rule="nonzero" d="M110.609,15.6641 L109.086,15.7578 C109.06,15.6276 109.004,15.5098 108.918,15.4043 C108.832,15.2988 108.719,15.2142 108.58,15.1504 C108.441,15.0866 108.275,15.0547 108.082,15.0547 C107.824,15.0547 107.607,15.1087 107.43,15.2168 C107.253,15.3249 107.164,15.4688 107.164,15.6484 C107.164,15.7917 107.221,15.9128 107.336,16.0117 C107.451,16.1107 107.647,16.1901 107.926,16.25 L109.012,16.4688 C109.595,16.5885 110.03,16.7813 110.316,17.0469 C110.603,17.3125 110.746,17.6615 110.746,18.0938 C110.746,18.487 110.631,18.832 110.4,19.1289 C110.17,19.4258 109.855,19.6569 109.455,19.8223 C109.055,19.9876 108.595,20.0703 108.074,20.0703 C107.28,20.0703 106.648,19.9043 106.178,19.5723 C105.708,19.2402 105.432,18.7878 105.352,18.2148 L106.988,18.1289 C107.038,18.3711 107.158,18.5553 107.348,18.6816 C107.538,18.8079 107.781,18.8711 108.078,18.8711 C108.37,18.8711 108.605,18.8145 108.783,18.7012 C108.962,18.5879 109.052,18.4414 109.055,18.2617 C109.052,18.1107 108.988,17.9863 108.863,17.8887 C108.738,17.791 108.546,17.7161 108.285,17.6641 L107.246,17.457 C106.66,17.3398 106.225,17.1367 105.939,16.8477 C105.654,16.5586 105.512,16.1901 105.512,15.7422 C105.512,15.3568 105.617,15.0247 105.826,14.7461 C106.036,14.4674 106.331,14.2526 106.713,14.1016 C107.094,13.9505 107.542,13.875 108.055,13.875 C108.813,13.875 109.41,14.0352 109.846,14.3555 C110.282,14.6758 110.536,15.112 110.609,15.6641 M114.98,13.9531 L114.98,15.2031 L111.367,15.2031 L111.367,13.9531 L114.98,13.9531 M112.188,12.5156 L113.852,12.5156 L113.852,18.1094 C113.852,18.263 113.875,18.3822 113.922,18.4668 C113.969,18.5514 114.035,18.6107 114.119,18.6445 C114.204,18.6784 114.302,18.6953 114.414,18.6953 C114.492,18.6953 114.57,18.6882 114.648,18.6738 C114.727,18.6595 114.786,18.6484 114.828,18.6406 L115.09,19.8789 C115.007,19.9049 114.889,19.9355 114.738,19.9707 C114.587,20.0059 114.404,20.0273 114.188,20.0352 C113.786,20.0508 113.436,19.9974 113.135,19.875 C112.834,19.7526 112.6,19.5625 112.434,19.3047 C112.267,19.0469 112.185,18.7214 112.188,18.3281 L112.188,12.5156 M116.055,19.9531 L116.055,13.9531 L117.719,13.9531 L117.719,19.9531 L116.055,19.9531 M116.891,13.1797 C116.643,13.1797 116.432,13.097 116.256,12.9316 C116.08,12.7663 115.992,12.5677 115.992,12.3359 C115.992,12.1068 116.08,11.9095 116.256,11.7441 C116.432,11.5788 116.643,11.4961 116.891,11.4961 C117.138,11.4961 117.35,11.5788 117.525,11.7441 C117.701,11.9095 117.789,12.1068 117.789,12.3359 C117.789,12.5677 117.701,12.7663 117.525,12.9316 C117.35,13.097 117.138,13.1797 116.891,13.1797 M121.75,20.0703 C121.135,20.0703 120.607,19.9395 120.166,19.6777 C119.725,19.416 119.386,19.0521 119.15,18.5859 C118.915,18.1198 118.797,17.5833 118.797,16.9766 C118.797,16.362 118.916,15.8223 119.154,15.3574 C119.393,14.8926 119.732,14.5293 120.172,14.2676 C120.612,14.0059 121.135,13.875 121.742,13.875 C122.266,13.875 122.724,13.9701 123.117,14.1602 C123.51,14.3503 123.822,14.6172 124.051,14.9609 C124.28,15.3047 124.406,15.7083 124.43,16.1719 L122.859,16.1719 C122.815,15.8724 122.699,15.6309 122.51,15.4473 C122.321,15.2637 122.074,15.1719 121.77,15.1719 C121.512,15.1719 121.287,15.2415 121.096,15.3809 C120.904,15.5202 120.755,15.7227 120.648,15.9883 C120.542,16.2539 120.488,16.5755 120.488,16.9531 C120.488,17.3359 120.541,17.6615 120.646,17.9297 C120.752,18.1979 120.901,18.4023 121.094,18.543 C121.286,18.6836 121.512,18.7539 121.77,18.7539 C121.96,18.7539 122.131,18.7148 122.283,18.6367 C122.436,18.5586 122.562,18.4447 122.662,18.2949 C122.762,18.1452 122.828,17.9648 122.859,17.7539 L124.43,17.7539 C124.404,18.2122 124.279,18.6152 124.057,18.9629 C123.834,19.3105 123.527,19.582 123.137,19.7773 C122.746,19.9727 122.284,20.0703 121.75,20.0703 M127,18.2266 L127.004,16.2305 L127.246,16.2305 L129.168,13.9531 L131.078,13.9531 L128.496,16.9688 L128.102,16.9688 L127,18.2266 M125.492,19.9531 L125.492,11.9531 L127.156,11.9531 L127.156,19.9531 L125.492,19.9531 M129.242,19.9531 L127.477,17.3398 L128.586,16.1641 L131.191,19.9531 L129.242,19.9531"/>
</g>

<g fill="#ffffff" fill-opacity="1" stroke="none" transform="matrix(0.95,0,0,0.95,11.6,4.6)"
font-family="Inter" font-size="11" font-weight="700" font-style="normal" 
>
<path vector-effect="none" fill-rule="nonzero" d="M7.46543,4.39588 C6.38302,4.39585 5.47613,4.39584 4.74926,4.48951 C3.97986,4.58868 3.28183,4.80608 2.69613,5.33613 C2.11042,5.86618 1.82464,6.53909 1.64941,7.2948 C1.48387,8.00878 1.39363,8.91112 1.28596,9.98813 L0.676055,16.0874 C0.487764,17.9704 1.96635,19.6041 3.85857,19.6041 C5.19182,19.6041 6.38522,18.7771 6.85336,17.5288 L7.6565,15.387 C7.81994,14.9511 7.91537,14.7008 8.0049,14.5243 C8.04525,14.4449 8.07235,14.4055 8.08682,14.3873 C8.09352,14.3788 8.09729,14.3751 8.09818,14.3743 L8.09959,14.3732 L8.10111,14.3723 C8.10221,14.3718 8.10688,14.3696 8.11723,14.3663 C8.13943,14.3591 8.18571,14.3475 8.27426,14.3375 C8.47084,14.3157 8.73881,14.3143 9.20432,14.3143 L14.7957,14.3143 C15.2612,14.3143 15.5292,14.3158 15.7258,14.3375 C15.8143,14.3474 15.8606,14.3591 15.8828,14.3663 C15.8931,14.3696 15.8978,14.3718 15.8989,14.3723 L15.9005,14.3732 L15.9018,14.3743 C15.9027,14.3751 15.9064,14.3788 15.9132,14.3873 C15.9276,14.4055 15.9547,14.4449 15.995,14.5243 C16.0846,14.7008 16.18,14.9511 16.3435,15.387 L17.1466,17.5288 C17.6148,18.7771 18.8081,19.6041 20.1414,19.6041 C22.0336,19.6041 23.5123,17.9704 23.3239,16.0874 L22.714,9.9883 C22.6064,8.91117 22.5162,8.00877 22.3506,7.2948 C22.1754,6.53909 21.8896,5.86618 21.3039,5.33613 C20.7182,4.80608 20.0202,4.58868 19.2508,4.48951 C18.5239,4.39583 17.6172,4.39585 16.5347,4.39588 L7.46543,4.39588 M18.0984,6.1592 C18.7525,6.15907 19.2829,6.6892 19.2831,7.34332 L19.2831,7.34367 C19.2831,7.99779 18.7529,8.52808 18.0987,8.52814 C17.4446,8.52821 16.9142,7.99799 16.9141,7.34385 C16.914,6.6897 17.4442,6.15932 18.0984,6.1592 M6.0791,6.38168 C7.79363,6.38129 9.18388,7.77081 9.18439,9.48533 L9.18439,9.48621 C9.1844,11.2007 7.79457,12.5907 6.08004,12.5908 C4.36551,12.5909 2.97547,11.2012 2.97521,9.48668 C2.97499,7.77218 4.3646,6.38207 6.0791,6.38168 M15.966,8.41271 C16.6201,8.41258 17.1505,8.94271 17.1507,9.59684 L17.1507,9.59719 C17.1507,10.2513 16.6205,10.7816 15.9663,10.7817 C15.3122,10.7817 14.7818,10.2515 14.7817,9.59736 C14.7816,8.94322 15.3118,8.41284 15.966,8.41271 M20.3065,8.43451 C20.9606,8.43435 21.4911,8.96449 21.4912,9.61863 L21.4913,9.61898 C21.4913,10.2731 20.961,10.8034 20.3068,10.8035 C19.6527,10.8035 19.1224,10.2733 19.1223,9.61916 C19.1222,8.96504 19.6524,8.43467 20.3065,8.43451 M18.1035,10.4194 C18.7576,10.4193 19.288,10.9494 19.2882,11.6035 L19.2882,11.6038 C19.2882,12.258 18.758,12.7883 18.1039,12.7883 C17.4497,12.7884 16.9194,12.2582 16.9193,11.604 C16.9192,10.9499 17.4494,10.4196 18.1035,10.4194 "/>
</g>

<g fill="none" stroke="#000000" stroke-opacity="1" stroke-width="0.54" stroke-linecap="butt" stroke-linejoin="miter" stroke-miterlimit="4" transform="matrix(0.95,0,0,0.95,11.6,4.6)"
font-family="Inter" font-size="11" font-weight="700" font-style="normal" 
>
<path vector-effect="none" fill-rule="nonzero" d="M0.676054,16.0875 C0.487763,17.9704 1.96634,19.6041 3.85857,19.6041 C5.19182,19.6041 6.38521,18.7771 6.85334,17.5288 L7.65652,15.3869 C7.81997,14.9511 7.9154,14.7007 8.00493,14.5243 C8.04527,14.4448 8.07237,14.4056 8.08684,14.3873 C8.09354,14.3788 8.09731,14.3751 8.0982,14.3743 L8.09956,14.3731 L8.10109,14.3723 C8.10219,14.3718 8.10694,14.3695 8.11724,14.3662 C8.13944,14.3591 8.18573,14.3475 8.27428,14.3375 C8.47086,14.3157 8.73883,14.3143 9.20434,14.3143 L14.7957,14.3143 C15.2612,14.3143 15.5291,14.3158 15.7258,14.3375 C15.8143,14.3474 15.8605,14.3591 15.8828,14.3662 C15.8931,14.3695 15.8978,14.3718 15.8989,14.3723 L15.9005,14.3731 L15.9018,14.3743 C15.9027,14.3751 15.9064,14.3788 15.9132,14.3873 C15.9276,14.4056 15.9547,14.4448 15.995,14.5243 C16.0845,14.7007 16.18,14.9511 16.3435,15.3869 L17.1466,17.5288 C17.6148,18.7771 18.8081,19.6041 20.1414,19.6041 C22.0336,19.6041 23.5123,17.9704 23.3239,16.0875 L22.714,9.98828 C22.6064,8.91114 22.5162,8.0088 22.3506,7.29483 C22.1754,6.53911 21.8896,5.86621 21.3039,5.33615 C20.7182,4.8061 20.0202,4.58866 19.2508,4.48949 C18.5238,4.39581 17.6172,4.39585 16.5347,4.39587 L7.46542,4.39587 C6.383,4.39585 5.47612,4.39582 4.74925,4.48949 C3.97984,4.58866 3.28185,4.8061 2.69615,5.33615 C2.11043,5.86621 1.82462,6.53911 1.6494,7.29483 C1.48385,8.00881 1.39365,8.91114 1.28597,9.98815 L0.676054,16.0875"/>
</g>

<g fill="none" stroke="#000000" stroke-opacity="1" stroke-width="0.54" stroke-linecap="round" stroke-linejoin="round" transform="matrix(0,0.95,-0.95,0,11.6,4.6)"
font-family="Inter" font-size="11" font-weight="700" font-style="normal" 
>
<path vector-effect="none" fill-rule="nonzero" d="M12.5908,-5.99358 C12.5908,-4.27905 11.201,-2.88912 9.48647,-2.88899 C7.77194,-2.88886 6.38191,-4.27859 6.38165,-5.99311 C6.38139,-7.70764 7.77102,-9.09778 9.48554,-9.09816 C11.2001,-9.09855 12.5903,-7.70903 12.5908,-5.99451 "/>
</g>

<g fill="#000000" fill-opacity="1" stroke="none" transform="matrix(1.02542,0,0,1.02542,11.148,3.96268)"
font-family="Inter" font-size="11" font-weight="700" font-style="normal" 
>
<path vector-effect="none" fill-rule="evenodd" d="M5.49097,7.51931 C5.49097,7.42723 5.56561,7.35258 5.65769,7.35258 L6.32946,7.35258 C6.42154,7.35258 6.49619,7.42723 6.49619,7.51931 L6.49619,8.23146 C6.49619,8.32354 6.42154,8.39819 6.32946,8.39819 L5.65769,8.39819 C5.56561,8.39819 5.49097,8.32354 5.49097,8.23146 L5.49097,7.51931"/>
</g>

<g fill="none" stroke="#000000" stroke-opacity="1" stroke-width="0.463675" stroke-linecap="round" stroke-linejoin="round" transform="matrix(1.02542,0,0,1.02542,11.148,3.96268)"
font-family="Inter" font-size="11" font-weight="700" font-style="normal" 
>
<path vector-effect="none" fill-rule="evenodd" d="M5.49097,7.51931 C5.49097,7.42723 5.56561,7.35258 5.65769,7.35258 L6.32946,7.35258 C6.42154,7.35258 6.49619,7.42723 6.49619,7.51931 L6.49619,8.23146 C6.49619,8.32354 6.42154,8.39819 6.32946,8.39819 L5.65769,8.39819 C5.56561,8.39819 5.49097,8.32354 5.49097,8.23146 L5.49097,7.51931"/>
</g>

<g fill="#000000" fill-opacity="1" stroke="none" transform="matrix(1.02542,0,0,1.02542,11.148,3.96268)"
font-family="Inter" font-size="11" font-weight="700" font-style="normal" 
>
<path vector-effect="none" fill-rule="evenodd" d="M5.49097,10.5887 C5.49097,10.4966 5.56561,10.422 5.65769,10.422 L6.32946,10.422 C6.42154,10.422 6.49619,10.4966 6.49619,10.5887 L6.49619,11.3008 C6.49619,11.3929 6.42154,11.4676 6.32946,11.4676 L5.65769,11.4676 C5.56561,11.4676 5.49097,11.3929 5.49097,11.3008 L5.49097,10.5887"/>
</g>

<g fill="none" stroke="#000000" stroke-opacity="1" stroke-width="0.463675" stroke-linecap="round" stroke-linejoin="round" transform="matrix(1.02542,0,0,1.02542,11.148,3.96268)"
font-family="Inter" font-size="11" font-weight="700" font-style="normal" 
>
<path vector-effect="none" fill-rule="evenodd" d="M5.49097,10.5887 C5.49097,10.4966 5.56561,10.422 5.65769,10.422 L6.32946,10.422 C6.42154,10.422 6.49619,10.4966 6.49619,10.5887 L6.49619,11.3008 C6.49619,11.3929 6.42154,11.4676 6.32946,11.4676 L5.65769,11.4676 C5.56561,11.4676 5.49097,11.3929 5.49097,11.3008 L5.49097,10.5887"/>
</g>

<g fill="#000000" fill-opacity="1" stroke="none" transform="matrix(0,1.02542,-1.02542,0,26.9431,7.54411)"
font-family="Inter" font-size="11" font-weight="700" font-style="normal" 
>
<path vector-effect="none" fill-rule="evenodd" d="M5.49097,7.51931 C5.49097,7.42723 5.56561,7.35258 5.65769,7.35258 L6.32946,7.35258 C6.42154,7.35258 6.49619,7.42723 6.49619,7.51931 L6.49619,8.23146 C6.49619,8.32354 6.42154,8.39819 6.32946,8.39819 L5.65769,8.39819 C5.56561,8.39819 5.49097,8.32354 5.49097,8.23146 L5.49097,7.51931"/>
</g>

<g fill="none" stroke="#000000" stroke-opacity="1" stroke-width="0.463675" stroke-linecap="round" stroke-linejoin="round" transform="matrix(0,1.02542,-1.02542,0,26.9431,7.54411)"
font-family="Inter" font-size="11" font-weight="700" font-style="normal" 
>
<path vector-effect="none" fill-rule="evenodd" d="M5.49097,7.51931 C5.49097,7.42723 5.56561,7.35258 5.65769,7.35258 L6.32946,7.35258 C6.42154,7.35258 6.49619,7.42723 6.49619,7.51931 L6.49619,8.23146 C6.49619,8.32354 6.42154,8.39819 6.32946,8.39819 L5.65769,8.39819 C5.56561,8.39819 5.49097,8.32354 5.49097,8.23146 L5.49097,7.51931"/>
</g>

<g fill="#000000" fill-opacity="1" stroke="none" transform="matrix(0,1.02542,-1.02542,0,26.9431,7.54411)"
font-family="Inter" font-size="11" font-weight="700" font-style="normal" 
>
<path vector-effect="none" fill-rule="evenodd" d="M5.49097,10.5887 C5.49097,10.4966 5.56561,10.422 5.65769,10.422 L6.32946,10.422 C6.42154,10.422 6.49619,10.4966 6.49619,10.5887 L6.49619,11.3008 C6.49619,11.3929 6.42154,11.4676 6.32946,11.4676 L5.65769,11.4676 C5.56561,11.4676 5.49097,11.3929 5.49097,11.3008 L5.49097,10.5887"/>
</g>

<g fill="none" stroke="#000000" stroke-opacity="1" stroke-width="0.463675" stroke-linecap="round" stroke-linejoin="round" transform="matrix(0,1.02542,-1.02542,0,26.9431,7.54411)"
font-family="Inter" font-size="11" font-weight="700" font-style="normal" 
>
<path vector-effect="none" fill-rule="evenodd" d="M5.49097,10.5887 C5.49097,10.4966 5.56561,10.422 5.65769,10.422 L6.32946,10.422 C6.42154,10.422 6.49619,10.4966 6.49619,10.5887 L6.49619,11.3008 C6.49619,11.3929 6.42154,11.4676 6.32946,11.4676 L5.65769,11.4676 C5.56561,11.4676 5.49097,11.3929 5.49097,11.3008 L5.49097,10.5887"/>
</g>

<g fill="none" stroke="#000000" stroke-opacity="1" stroke-width="0.32496" stroke-linecap="round" stroke-linejoin="round" transform="matrix(0.95,0,0,0.95,11.6,4.6)"
font-family="Inter" font-size="11" font-weight="700" font-style="normal" 
>
<path vector-effect="none" fill-rule="evenodd" d="M17.0283,7.32484 C17.0283,6.74873 17.4954,6.28169 18.0715,6.28169 L18.1437,6.28169 C18.7198,6.28169 19.1869,6.74873 19.1869,7.32484 L19.1869,7.40867 C19.1869,7.98479 18.7198,8.45182 18.1437,8.45182 L18.0715,8.45182 C17.4954,8.45182 17.0283,7.98479 17.0283,7.40867 L17.0283,7.32484"/>
</g>

<g fill="none" stroke="#000000" stroke-opacity="1" stroke-width="0.32496" stroke-linecap="round" stroke-linejoin="round" transform="matrix(0.95,0,0,0.95,11.6,4.6)"
font-family="Inter" font-size="11" font-weight="700" font-style="normal" 
>
<path vector-effect="none" fill-rule="evenodd" d="M19.2177,9.55083 C19.2177,8.97472 19.6848,8.50768 20.2609,8.50768 L20.3331,8.50768 C20.9092,8.50768 21.3763,8.97472 21.3763,9.55083 L21.3763,9.63466 C21.3763,10.2108 20.9092,10.6778 20.3331,10.6778 L20.2609,10.6778 C19.6848,10.6778 19.2177,10.2108 19.2177,9.63466 L19.2177,9.55083"/>
</g>

<g fill="none" stroke="#000000" stroke-opacity="1" stroke-width="0.32496" stroke-linecap="round" stroke-linejoin="round" transform="matrix(0.95,0,0,0.95,11.6,4.6)"
font-family="Inter" font-size="11" font-weight="700" font-style="normal" 
>
<path vector-effect="none" fill-rule="evenodd" d="M14.8925,9.52667 C14.8925,8.95055 15.3596,8.48352 15.9357,8.48352 L16.0079,8.48352 C16.584,8.48352 17.0511,8.95055 17.0511,9.52667 L17.0511,9.61049 C17.0511,10.1866 16.584,10.6536 16.0079,10.6536 L15.9357,10.6536 C15.3596,10.6536 14.8925,10.1866 14.8925,9.61049 L14.8925,9.52667"/>
</g>

<g fill="none" stroke="#000000" stroke-opacity="1" stroke-width="0.32496" stroke-linecap="round" stroke-linejoin="round" transform="matrix(0.95,0,0,0.95,11.6,4.6)"
font-family="Inter" font-size="11" font-weight="700" font-style="normal" 
>
<path vector-effect="none" fill-rule="evenodd" d="M16.9947,11.5322 C16.9947,10.9561 17.4618,10.4891 18.0379,10.4891 L18.1101,10.4891 C18.6862,10.4891 19.1533,10.9561 19.1533,11.5322 L19.1533,11.616 C19.1533,12.1921 18.6862,12.6592 18.1101,12.6592 L18.0379,12.6592 C17.4618,12.6592 16.9947,12.1921 16.9947,11.616 L16.9947,11.5322"/>
</g>

<g fill="#000000" fill-opacity="1" stroke="none" transform="matrix(0.95,0,0,0.95,11.6,4.6)"
font-family="Inter" font-size="11" font-weight="700" font-style="normal" 
>
<path vector-effect="none" fill-rule="evenodd" d="M10.7009,12.2391 C10.7009,11.9791 10.9118,11.7682 11.1719,11.7682 L12.8281,11.7682 C13.0882,11.7682 13.2991,11.9791 13.2991,12.2391 C13.2991,12.4992 13.0882,12.71 12.8281,12.71 L11.1719,12.71 C10.9118,12.71 10.7009,12.4992 10.7009,12.2391 "/>
</g>

<g fill="#ffffff" fill-opacity="1" stroke="none" transform="matrix(1,0,0,1,0,0)"
font-family="Inter" font-size="11" font-weight="700" font-style="normal" 
>
</g>

<g fill="#ffffff" fill-opacity="1" stroke="#006e51" stroke-opacity="1" stroke-width="1" stroke-linecap="square" stroke-linejoin="bevel" transform="matrix(1,0,0,1,0,0)"
font-family="Inter" font-size="11" font-weight="700" font-style="normal" 
>
<polyline fill="none" vector-effect="none" points="45,6 45,26 " />
</g>

<g fill="#ffffff" fill-opacity="1" stroke="#006e51" stroke-opacity="1" stroke-width="1" stroke-linecap="square" stroke-linejoin="bevel" transform="matrix(1,0,0,1,0,0)"
font-family="Inter" font-size="11" font-weight="700" font-style="normal" 
>
</g>

<g fill="#00a97d" fill-opacity="1" stroke="#006e51" stroke-opacity="1" stroke-width="1.2" stroke-linecap="square" stroke-linejoin="bevel" transform="matrix(1,0,0,1,137.5,4)"
font-family="Inter" font-size="11" font-weight="700" font-style="normal" 
>
<path vector-effect="none" fill-rule="evenodd" d="M0.5,3.5 C0.5,1.84315 1.84315,0.5 3.5,0.5 L61,0.5 C62.6569,0.5 64,1.84315 64,3.5 L64,20.5 C64,22.1569 62.6569,23.5 61,23.5 L3.5,23.5 C1.84315,23.5 0.5,22.1569 0.5,20.5 L0.5,3.5"/>
</g>

<g fill="#ffffff" fill-opacity="1" stroke="none" transform="matrix(1,0,0,1,137.5,4)"
font-family="Inter" font-size="11" font-weight="700" font-style="normal" 
>
<path vector-effect="none" fill-rule="nonzero" d="M11.2891,10 L12.3906,12.0977 L13.5195,10 L15.2266,10 L13.4883,13 L15.2734,16 L13.5742,16 L12.3906,13.9258 L11.2266,16 L9.50781,16 L11.2891,13 L9.57031,10 L11.2891,10 M19.6992,12.0547 L19.6992,13.375 L16.0508,13.375 L16.0508,12.0547 L19.6992,12.0547 M22.8281,16.1133 C22.4453,16.1133 22.1042,16.0462 21.8047,15.9121 C21.5052,15.778 21.2689,15.5788 21.0957,15.3145 C20.9225,15.0501 20.8359,14.7201 20.8359,14.3242 C20.8359,13.9909 20.8971,13.7109 21.0195,13.4844 C21.1419,13.2578 21.3086,13.0755 21.5195,12.9375 C21.7305,12.7995 21.9707,12.6953 22.2402,12.625 C22.5098,12.5547 22.793,12.5052 23.0898,12.4766 C23.4388,12.4401 23.7201,12.4056 23.9336,12.373 C24.1471,12.3405 24.3021,12.2917 24.3984,12.2266 C24.4948,12.1615 24.543,12.0651 24.543,11.9375 L24.543,11.9141 C24.543,11.6667 24.4655,11.4753 24.3105,11.3398 C24.1556,11.2044 23.9362,11.1367 23.6523,11.1367 C23.3529,11.1367 23.1146,11.2025 22.9375,11.334 C22.7604,11.4655 22.6432,11.6302 22.5859,11.8281 L21.0469,11.7031 C21.125,11.3385 21.2786,11.0228 21.5078,10.7559 C21.737,10.4889 22.0332,10.2832 22.3965,10.1387 C22.7598,9.99414 23.181,9.92188 23.6602,9.92188 C23.9935,9.92188 24.3132,9.96094 24.6191,10.0391 C24.9251,10.1172 25.1973,10.2383 25.4355,10.4023 C25.6738,10.5664 25.862,10.7767 26,11.0332 C26.138,11.2897 26.207,11.5964 26.207,11.9531 L26.207,16 L24.6289,16 L24.6289,15.168 L24.582,15.168 C24.4857,15.3555 24.3568,15.5202 24.1953,15.6621 C24.0339,15.804 23.8398,15.9147 23.6133,15.9941 C23.3867,16.0736 23.125,16.1133 22.8281,16.1133 M23.3047,14.9648 C23.5495,14.9648 23.7656,14.916 23.9531,14.8184 C24.1406,14.7207 24.2878,14.5885 24.3945,14.4219 C24.5013,14.2552 24.5547,14.0664 24.5547,13.8555 L24.5547,13.2188 C24.5026,13.2526 24.4316,13.2832 24.3418,13.3105 C24.252,13.3379 24.151,13.3626 24.0391,13.3848 C23.9271,13.4069 23.8151,13.4264 23.7031,13.4434 C23.5911,13.4603 23.4896,13.4753 23.3984,13.4883 C23.2031,13.5169 23.0326,13.5625 22.8867,13.625 C22.7409,13.6875 22.6276,13.7715 22.5469,13.877 C22.4661,13.9824 22.4258,14.1133 22.4258,14.2695 C22.4258,14.4961 22.5085,14.6686 22.6738,14.7871 C22.8392,14.9056 23.0495,14.9648 23.3047,14.9648 M28.8828,10 L29.9844,12.0977 L31.1133,10 L32.8203,10 L31.082,13 L32.8672,16 L31.168,16 L29.9844,13.9258 L28.8203,16 L27.1016,16 L28.8828,13 L27.1641,10 L28.8828,10 M33.8047,16 L33.8047,10 L35.4688,10 L35.4688,16 L33.8047,16 M34.6406,9.22656 C34.3932,9.22656 34.1816,9.14388 34.0059,8.97852 C33.8301,8.81315 33.7422,8.61458 33.7422,8.38281 C33.7422,8.15365 33.8301,7.95638 34.0059,7.79102 C34.1816,7.62565 34.3932,7.54297 34.6406,7.54297 C34.888,7.54297 35.0996,7.62565 35.2754,7.79102 C35.4512,7.95638 35.5391,8.15365 35.5391,8.38281 C35.5391,8.61458 35.4512,8.81315 35.2754,8.97852 C35.0996,9.14388 34.888,9.22656 34.6406,9.22656 M41.7813,11.7109 L40.2578,11.8047 C40.2318,11.6745 40.1758,11.5566 40.0898,11.4512 C40.0039,11.3457 39.8913,11.2611 39.752,11.1973 C39.6126,11.1335 39.4466,11.1016 39.2539,11.1016 C38.9961,11.1016 38.7786,11.1556 38.6016,11.2637 C38.4245,11.3717 38.3359,11.5156 38.3359,11.6953 C38.3359,11.8385 38.3932,11.9596 38.5078,12.0586 C38.6224,12.1576 38.819,12.237 39.0977,12.2969 L40.1836,12.5156 C40.7669,12.6354 41.2018,12.8281 41.4883,13.0938 C41.7747,13.3594 41.918,13.7083 41.918,14.1406 C41.918,14.5339 41.8027,14.8789 41.5723,15.1758 C41.3418,15.4727 41.0267,15.7038 40.627,15.8691 C40.2272,16.0345 39.7669,16.1172 39.2461,16.1172 C38.4518,16.1172 37.8197,15.9512 37.3496,15.6191 C36.8796,15.2871 36.6042,14.8346 36.5234,14.2617 L38.1602,14.1758 C38.2096,14.418 38.3294,14.6022 38.5195,14.7285 C38.7096,14.8548 38.9531,14.918 39.25,14.918 C39.5417,14.918 39.7767,14.8613 39.9551,14.748 C40.1335,14.6348 40.224,14.4883 40.2266,14.3086 C40.224,14.1576 40.1602,14.0332 40.0352,13.9355 C39.9102,13.8379 39.7174,13.763 39.457,13.7109 L38.418,13.5039 C37.832,13.3867 37.3965,13.1836 37.1113,12.8945 C36.8262,12.6055 36.6836,12.237 36.6836,11.7891 C36.6836,11.4036 36.7884,11.0716 36.998,10.793 C37.2077,10.5143 37.5033,10.2995 37.8848,10.1484 C38.2663,9.9974 38.7135,9.92188 39.2266,9.92188 C39.9844,9.92188 40.5814,10.082 41.0176,10.4023 C41.4538,10.7227 41.7083,11.1589 41.7813,11.7109 "/>
</g>

<g fill="#ffffff" fill-opacity="1" stroke="none" transform="matrix(0.03125,0,0,0.03125,188,12)"
font-family="Inter" font-size="11" font-weight="700" font-style="normal" 
>
<path vector-effect="none" fill-rule="nonzero" d="M111.326,191.938 C120.545,201.158 135.517,201.158 144.737,191.938 L239.144,97.5313 C245.929,90.7458 247.921,80.6413 244.233,71.7907 C240.545,62.9401 231.989,57.1871 222.401,57.1871 L33.5875,57.2608 C24.0731,57.2608 15.4437,63.0137 11.7559,71.8644 C8.06815,80.715 10.1333,90.8195 16.845,97.605 L111.252,192.012 L111.326,191.938"/>
</g>

<g fill="none" stroke="#000000" stroke-opacity="1" stroke-width="13.7195" stroke-linecap="butt" stroke-linejoin="miter" stroke-miterlimit="4" transform="matrix(0.03125,0,0,0.03125,188,12)"
font-family="Inter" font-size="11" font-weight="700" font-style="normal" 
>
<path vector-effect="none" fill-rule="nonzero" d="M111.326,191.938 C120.545,201.158 135.517,201.158 144.737,191.938 L239.144,97.5313 C245.929,90.7458 247.921,80.6413 244.233,71.7907 C240.545,62.9401 231.989,57.1871 222.401,57.1871 L33.5875,57.2608 C24.0731,57.2608 15.4437,63.0137 11.7559,71.8644 C8.06815,80.715 10.1333,90.8195 16.845,97.605 L111.252,192.012 L111.326,191.938"/>
</g>

<g fill="#ffffff" fill-opacity="1" stroke="none" transform="matrix(1,0,0,1,137.5,4)"
font-family="Inter" font-size="11" font-weight="700" font-style="normal" 
>
</g>

<g fill="#ffffff" fill-opacity="1" stroke="#006e51" stroke-opacity="1" stroke-width="1" stroke-linecap="square" stroke-linejoin="bevel" transform="matrix(1,0,0,1,0,0)"
font-family="Inter" font-size="11" font-weight="700" font-style="normal" 
>
</g>

<g fill="#00a97d" fill-opacity="1" stroke="#006e51" stroke-opacity="1" stroke-width="1.2" stroke-linecap="square" stroke-linejoin="bevel" transform="matrix(1,0,0,1,50,4)"
font-family="Inter" font-size="11" font-weight="700" font-style="normal" 
>
<path vector-effect="none" fill-rule="evenodd" d="M0.5,3.5 C0.5,1.84315 1.84315,0.5 3.5,0.5 L46,0.5 C47.6569,0.5 49,1.84315 49,3.5 L49,20.5 C49,22.1569 47.6569,23.5 46,23.5 L3.5,23.5 C1.84315,23.5 0.5,22.1569 0.5,20.5 L0.5,3.5"/>
</g>

<g fill="#ffffff" fill-opacity="1" stroke="none" transform="matrix(1,0,0,1,50,4)"
font-family="Inter" font-size="11" font-weight="700" font-style="normal" 
>
<path vector-effect="none" fill-rule="nonzero" d="M11.1719,7.92188 L11.1719,15.9219 L9.50781,15.9219 L9.50781,7.92188 L11.1719,7.92188 M15.2266,16.0391 C14.6094,16.0391 14.0788,15.9134 13.6348,15.6621 C13.1908,15.4108 12.849,15.054 12.6094,14.5918 C12.3698,14.1296 12.25,13.582 12.25,12.9492 C12.25,12.332 12.3698,11.7904 12.6094,11.3242 C12.849,10.8581 13.1868,10.4948 13.623,10.2344 C14.0592,9.97396 14.5716,9.84375 15.1602,9.84375 C15.556,9.84375 15.9251,9.9069 16.2676,10.0332 C16.61,10.1595 16.9095,10.349 17.166,10.6016 C17.4225,10.8542 17.6224,11.1712 17.7656,11.5527 C17.9089,11.9342 17.9805,12.3802 17.9805,12.8906 L17.9805,13.3477 L12.9141,13.3477 L12.9141,12.3164 L16.4141,12.3164 C16.4141,12.0768 16.362,11.8646 16.2578,11.6797 C16.1536,11.4948 16.0098,11.3496 15.8262,11.2441 C15.6426,11.1387 15.4297,11.0859 15.1875,11.0859 C14.9349,11.0859 14.7116,11.1439 14.5176,11.2598 C14.3236,11.3757 14.1719,11.5306 14.0625,11.7246 C13.9531,11.9186 13.8971,12.1341 13.8945,12.3711 L13.8945,13.3516 C13.8945,13.6484 13.9499,13.9049 14.0605,14.1211 C14.1712,14.3372 14.3281,14.5039 14.5313,14.6211 C14.7344,14.7383 14.9753,14.7969 15.2539,14.7969 C15.4388,14.7969 15.6081,14.7708 15.7617,14.7188 C15.9154,14.6667 16.0469,14.5885 16.1563,14.4844 C16.2656,14.3802 16.349,14.2526 16.4063,14.1016 L17.9453,14.2031 C17.8672,14.5729 17.7077,14.8952 17.4668,15.1699 C17.2259,15.4447 16.916,15.6582 16.5371,15.8105 C16.1582,15.9629 15.7214,16.0391 15.2266,16.0391 M22.2813,9.92188 L22.2813,11.1719 L18.5781,11.1719 L18.5781,9.92188 L22.2813,9.92188 M19.4258,15.9219 L19.4258,9.48828 C19.4258,9.05339 19.5111,8.69271 19.6816,8.40625 C19.8522,8.11979 20.0859,7.90495 20.3828,7.76172 C20.6797,7.61849 21.0169,7.54688 21.3945,7.54688 C21.6497,7.54688 21.8835,7.56641 22.0957,7.60547 C22.3079,7.64453 22.4661,7.67969 22.5703,7.71094 L22.2734,8.96094 C22.2083,8.9401 22.1283,8.92057 22.0332,8.90234 C21.9382,8.88411 21.8411,8.875 21.7422,8.875 C21.4974,8.875 21.3268,8.93164 21.2305,9.04492 C21.1341,9.1582 21.0859,9.31641 21.0859,9.51953 L21.0859,15.9219 L19.4258,15.9219 M26.4805,9.92188 L26.4805,11.1719 L22.8672,11.1719 L22.8672,9.92188 L26.4805,9.92188 M23.6875,8.48438 L25.3516,8.48438 L25.3516,14.0781 C25.3516,14.2318 25.375,14.3509 25.4219,14.4355 C25.4688,14.5202 25.5345,14.5794 25.6191,14.6133 C25.7038,14.6471 25.8021,14.6641 25.9141,14.6641 C25.9922,14.6641 26.0703,14.6569 26.1484,14.6426 C26.2266,14.6283 26.2865,14.6172 26.3281,14.6094 L26.5898,15.8477 C26.5065,15.8737 26.3893,15.9043 26.2383,15.9395 C26.0872,15.9746 25.9036,15.9961 25.6875,16.0039 C25.2865,16.0195 24.9355,15.9661 24.6348,15.8438 C24.334,15.7214 24.1003,15.5313 23.9336,15.2734 C23.7669,15.0156 23.6849,14.6901 23.6875,14.2969 L23.6875,8.48438"/>
</g>

<g fill="#ffffff" fill-opacity="1" stroke="none" transform="matrix(0.03125,0,0,0.03125,85.5,12)"
font-family="Inter" font-size="11" font-weight="700" font-style="normal" 
>
<path vector-effect="none" fill-rule="nonzero" d="M111.326,191.938 C120.545,201.158 135.517,201.158 144.737,191.938 L239.144,97.5313 C245.929,90.7458 247.921,80.6413 244.233,71.7907 C240.545,62.9401 231.989,57.1871 222.401,57.1871 L33.5875,57.2608 C24.0731,57.2608 15.4437,63.0137 11.7559,71.8644 C8.06815,80.715 10.1333,90.8195 16.845,97.605 L111.252,192.012 L111.326,191.938"/>
</g>

<g fill="none" stroke="#000000" stroke-opacity="1" stroke-width="13.7195" stroke-linecap="butt" stroke-linejoin="miter" stroke-miterlimit="4" transform="matrix(0.03125,0,0,0.03125,85.5,12)"
font-family="Inter" font-size="11" font-weight="700" font-style="normal" 
>
<path vector-effect="none" fill-rule="nonzero" d="M111.326,191.938 C120.545,201.158 135.517,201.158 144.737,191.938 L239.144,97.5313 C245.929,90.7458 247.921,80.6413 244.233,71.7907 C240.545,62.9401 231.989,57.1871 222.401,57.1871 L33.5875,57.2608 C24.0731,57.2608 15.4437,63.0137 11.7559,71.8644 C8.06815,80.715 10.1333,90.8195 16.845,97.605 L111.252,192.012 L111.326,191.938"/>
</g>

<g fill="#ffffff" fill-opacity="1" stroke="none" transform="matrix(1,0,0,1,50,4)"
font-family="Inter" font-size="11" font-weight="700" font-style="normal" 
>
</g>

<g fill="#ffffff" fill-opacity="1" stroke="#006e51" stroke-opacity="1" stroke-width="1" stroke-linecap="square" stroke-linejoin="bevel" transform="matrix(1,0,0,1,0,0)"
font-family="Inter" font-size="11" font-weight="700" font-style="normal" 
>
</g>

<g fill="none" stroke="#000000" stroke-opacity="1" stroke-width="1" stroke-linecap="square" stroke-linejoin="bevel" transform="matrix(1,0,0,1,0,0)"
font-family=".AppleSystemUIFont" font-size="13" font-weight="400" font-style="normal" 
>
</g>
</g>
</svg>
