<?xml version="1.0" encoding="UTF-8" standalone="no"?>
<svg width="116.417mm" height="11.2889mm"
 viewBox="0 0 330 32"
 xmlns="http://www.w3.org/2000/svg" xmlns:xlink="http://www.w3.org/1999/xlink" version="1.2" baseProfile="tiny">
<title>Abstract block</title>
<desc>block_dashboard_controller_steeringwheel_value_boolean</desc>
<defs>
</defs>
<g fill="none" stroke="black" stroke-width="1" fill-rule="evenodd" stroke-linecap="square" stroke-linejoin="bevel" >

<g fill="none" stroke="#000000" stroke-opacity="1" stroke-width="1" stroke-linecap="square" stroke-linejoin="bevel" transform="matrix(1,0,0,1,0,0)"
font-family=".AppleSystemUIFont" font-size="13" font-weight="400" font-style="normal" 
>
</g>

<g fill="none" stroke="#000000" stroke-opacity="1" stroke-width="1" stroke-linecap="square" stroke-linejoin="bevel" transform="matrix(1,0,0,1,0,0)"
font-family=".AppleSystemUIFont" font-size="13" font-weight="400" font-style="normal" 
>
</g>

<g fill="#009f94" fill-opacity="1" stroke="#00645c" stroke-opacity="1" stroke-width="1.2" stroke-linecap="square" stroke-linejoin="bevel" transform="matrix(1,0,0,1,0,0)"
font-family=".AppleSystemUIFont" font-size="13" font-weight="400" font-style="normal" 
>
<path vector-effect="none" fill-rule="evenodd" d="M0,16 L16,0 L313.667,0 L329.667,16 L313.667,32 L16,32 L0,16"/>
</g>

<g fill="#ffffff" fill-opacity="1" stroke="none" transform="matrix(1,0,0,1,0,0)"
font-family="Inter" font-size="11" font-weight="700" font-style="normal" 
>
<path vector-effect="none" fill-rule="nonzero" d="M52.0391,19 L52.0391,13 L53.7031,13 L53.7031,19 L52.0391,19 M52.875,12.2266 C52.6276,12.2266 52.416,12.1439 52.2402,11.9785 C52.0645,11.8132 51.9766,11.6146 51.9766,11.3828 C51.9766,11.1536 52.0645,10.9564 52.2402,10.791 C52.416,10.6257 52.6276,10.543 52.875,10.543 C53.1224,10.543 53.334,10.6257 53.5098,10.791 C53.6855,10.9564 53.7734,11.1536 53.7734,11.3828 C53.7734,11.6146 53.6855,11.8132 53.5098,11.9785 C53.334,12.1439 53.1224,12.2266 52.875,12.2266 M60.0156,14.7109 L58.4922,14.8047 C58.4661,14.6745 58.4102,14.5566 58.3242,14.4512 C58.2383,14.3457 58.1257,14.2611 57.9863,14.1973 C57.847,14.1335 57.681,14.1016 57.4883,14.1016 C57.2305,14.1016 57.013,14.1556 56.8359,14.2637 C56.6589,14.3717 56.5703,14.5156 56.5703,14.6953 C56.5703,14.8385 56.6276,14.9596 56.7422,15.0586 C56.8568,15.1576 57.0534,15.237 57.332,15.2969 L58.418,15.5156 C59.0013,15.6354 59.4362,15.8281 59.7227,16.0938 C60.0091,16.3594 60.1523,16.7083 60.1523,17.1406 C60.1523,17.5339 60.0371,17.8789 59.8066,18.1758 C59.5762,18.4727 59.2611,18.7038 58.8613,18.8691 C58.4616,19.0345 58.0013,19.1172 57.4805,19.1172 C56.6862,19.1172 56.054,18.9512 55.584,18.6191 C55.1139,18.2871 54.8385,17.8346 54.7578,17.2617 L56.3945,17.1758 C56.444,17.418 56.5638,17.6022 56.7539,17.7285 C56.944,17.8548 57.1875,17.918 57.4844,17.918 C57.776,17.918 58.0111,17.8613 58.1895,17.748 C58.3678,17.6348 58.4583,17.4883 58.4609,17.3086 C58.4583,17.1576 58.3945,17.0332 58.2695,16.9355 C58.1445,16.8379 57.9518,16.763 57.6914,16.7109 L56.6523,16.5039 C56.0664,16.3867 55.6309,16.1836 55.3457,15.8945 C55.0605,15.6055 54.918,15.237 54.918,14.7891 C54.918,14.4036 55.0228,14.0716 55.2324,13.793 C55.4421,13.5143 55.7376,13.2995 56.1191,13.1484 C56.5007,12.9974 56.9479,12.9219 57.4609,12.9219 C58.2188,12.9219 58.8158,13.082 59.252,13.4023 C59.6882,13.7227 59.9427,14.1589 60.0156,14.7109 M68.7344,14.7109 L67.2109,14.8047 C67.1849,14.6745 67.1289,14.5566 67.043,14.4512 C66.957,14.3457 66.8444,14.2611 66.7051,14.1973 C66.5658,14.1335 66.3997,14.1016 66.207,14.1016 C65.9492,14.1016 65.7318,14.1556 65.5547,14.2637 C65.3776,14.3717 65.2891,14.5156 65.2891,14.6953 C65.2891,14.8385 65.3464,14.9596 65.4609,15.0586 C65.5755,15.1576 65.7721,15.237 66.0508,15.2969 L67.1367,15.5156 C67.7201,15.6354 68.1549,15.8281 68.4414,16.0938 C68.7279,16.3594 68.8711,16.7083 68.8711,17.1406 C68.8711,17.5339 68.7559,17.8789 68.5254,18.1758 C68.2949,18.4727 67.9798,18.7038 67.5801,18.8691 C67.1803,19.0345 66.7201,19.1172 66.1992,19.1172 C65.4049,19.1172 64.7728,18.9512 64.3027,18.6191 C63.8327,18.2871 63.5573,17.8346 63.4766,17.2617 L65.1133,17.1758 C65.1628,17.418 65.2826,17.6022 65.4727,17.7285 C65.6628,17.8548 65.9063,17.918 66.2031,17.918 C66.4948,17.918 66.7298,17.8613 66.9082,17.748 C67.0866,17.6348 67.1771,17.4883 67.1797,17.3086 C67.1771,17.1576 67.1133,17.0332 66.9883,16.9355 C66.8633,16.8379 66.6706,16.763 66.4102,16.7109 L65.3711,16.5039 C64.7852,16.3867 64.3496,16.1836 64.0645,15.8945 C63.7793,15.6055 63.6367,15.237 63.6367,14.7891 C63.6367,14.4036 63.7415,14.0716 63.9512,13.793 C64.1608,13.5143 64.4564,13.2995 64.8379,13.1484 C65.2194,12.9974 65.6667,12.9219 66.1797,12.9219 C66.9375,12.9219 67.5345,13.082 67.9707,13.4023 C68.4069,13.7227 68.6615,14.1589 68.7344,14.7109 M73.1055,13 L73.1055,14.25 L69.4922,14.25 L69.4922,13 L73.1055,13 M70.3125,11.5625 L71.9766,11.5625 L71.9766,17.1563 C71.9766,17.3099 72,17.429 72.0469,17.5137 C72.0938,17.5983 72.1595,17.6576 72.2441,17.6914 C72.3288,17.7253 72.4271,17.7422 72.5391,17.7422 C72.6172,17.7422 72.6953,17.735 72.7734,17.7207 C72.8516,17.7064 72.9115,17.6953 72.9531,17.6875 L73.2148,18.9258 C73.1315,18.9518 73.0143,18.9824 72.8633,19.0176 C72.7122,19.0527 72.5286,19.0742 72.3125,19.082 C71.9115,19.0977 71.5605,19.0443 71.2598,18.9219 C70.959,18.7995 70.7253,18.6094 70.5586,18.3516 C70.3919,18.0938 70.3099,17.7682 70.3125,17.375 L70.3125,11.5625 M76.8516,19.1172 C76.2344,19.1172 75.7038,18.9915 75.2598,18.7402 C74.8158,18.4889 74.474,18.1322 74.2344,17.6699 C73.9948,17.2077 73.875,16.6602 73.875,16.0273 C73.875,15.4102 73.9948,14.8685 74.2344,14.4023 C74.474,13.9362 74.8118,13.5729 75.248,13.3125 C75.6842,13.0521 76.1966,12.9219 76.7852,12.9219 C77.181,12.9219 77.5501,12.985 77.8926,13.1113 C78.235,13.2376 78.5345,13.4271 78.791,13.6797 C79.0475,13.9323 79.2474,14.2493 79.3906,14.6309 C79.5339,15.0124 79.6055,15.4583 79.6055,15.9688 L79.6055,16.4258 L74.5391,16.4258 L74.5391,15.3945 L78.0391,15.3945 C78.0391,15.1549 77.987,14.9427 77.8828,14.7578 C77.7786,14.5729 77.6348,14.4277 77.4512,14.3223 C77.2676,14.2168 77.0547,14.1641 76.8125,14.1641 C76.5599,14.1641 76.3366,14.222 76.1426,14.3379 C75.9486,14.4538 75.7969,14.6087 75.6875,14.8027 C75.5781,14.9967 75.5221,15.2122 75.5195,15.4492 L75.5195,16.4297 C75.5195,16.7266 75.5749,16.9831 75.6855,17.1992 C75.7962,17.4154 75.9531,17.582 76.1563,17.6992 C76.3594,17.8164 76.6003,17.875 76.8789,17.875 C77.0638,17.875 77.2331,17.849 77.3867,17.7969 C77.5404,17.7448 77.6719,17.6667 77.7813,17.5625 C77.8906,17.4583 77.974,17.3307 78.0313,17.1797 L79.5703,17.2813 C79.4922,17.651 79.3327,17.9733 79.0918,18.248 C78.8509,18.5228 78.541,18.7363 78.1621,18.8887 C77.7832,19.041 77.3464,19.1172 76.8516,19.1172 M83.4141,19.1172 C82.7969,19.1172 82.2663,18.9915 81.8223,18.7402 C81.3783,18.4889 81.0365,18.1322 80.7969,17.6699 C80.5573,17.2077 80.4375,16.6602 80.4375,16.0273 C80.4375,15.4102 80.5573,14.8685 80.7969,14.4023 C81.0365,13.9362 81.3743,13.5729 81.8105,13.3125 C82.2467,13.0521 82.7591,12.9219 83.3477,12.9219 C83.7435,12.9219 84.1126,12.985 84.4551,13.1113 C84.7975,13.2376 85.097,13.4271 85.3535,13.6797 C85.61,13.9323 85.8099,14.2493 85.9531,14.6309 C86.0964,15.0124 86.168,15.4583 86.168,15.9688 L86.168,16.4258 L81.1016,16.4258 L81.1016,15.3945 L84.6016,15.3945 C84.6016,15.1549 84.5495,14.9427 84.4453,14.7578 C84.3411,14.5729 84.1973,14.4277 84.0137,14.3223 C83.8301,14.2168 83.6172,14.1641 83.375,14.1641 C83.1224,14.1641 82.8991,14.222 82.7051,14.3379 C82.5111,14.4538 82.3594,14.6087 82.25,14.8027 C82.1406,14.9967 82.0846,15.2122 82.082,15.4492 L82.082,16.4297 C82.082,16.7266 82.1374,16.9831 82.248,17.1992 C82.3587,17.4154 82.5156,17.582 82.7188,17.6992 C82.9219,17.8164 83.1628,17.875 83.4414,17.875 C83.6263,17.875 83.7956,17.849 83.9492,17.7969 C84.1029,17.7448 84.2344,17.6667 84.3438,17.5625 C84.4531,17.4583 84.5365,17.3307 84.5938,17.1797 L86.1328,17.2813 C86.0547,17.651 85.8952,17.9733 85.6543,18.248 C85.4134,18.5228 85.1035,18.7363 84.7246,18.8887 C84.3457,19.041 83.9089,19.1172 83.4141,19.1172 M87.2422,19 L87.2422,13 L88.8555,13 L88.8555,14.0469 L88.918,14.0469 C89.0273,13.6745 89.2109,13.3926 89.4688,13.2012 C89.7266,13.0098 90.0234,12.9141 90.3594,12.9141 C90.4427,12.9141 90.5326,12.9193 90.6289,12.9297 C90.7253,12.9401 90.8099,12.9544 90.8828,12.9727 L90.8828,14.4492 C90.8047,14.4258 90.6966,14.4049 90.5586,14.3867 C90.4206,14.3685 90.2943,14.3594 90.1797,14.3594 C89.9349,14.3594 89.7168,14.4121 89.5254,14.5176 C89.334,14.623 89.1829,14.7695 89.0723,14.957 C88.9616,15.1445 88.9063,15.3607 88.9063,15.6055 L88.9063,19 L87.2422,19 M91.7266,19 L91.7266,13 L93.3906,13 L93.3906,19 L91.7266,19 M92.5625,12.2266 C92.3151,12.2266 92.1035,12.1439 91.9277,11.9785 C91.752,11.8132 91.6641,11.6146 91.6641,11.3828 C91.6641,11.1536 91.752,10.9564 91.9277,10.791 C92.1035,10.6257 92.3151,10.543 92.5625,10.543 C92.8099,10.543 93.0215,10.6257 93.1973,10.791 C93.373,10.9564 93.4609,11.1536 93.4609,11.3828 C93.4609,11.6146 93.373,11.8132 93.1973,11.9785 C93.0215,12.1439 92.8099,12.2266 92.5625,12.2266 M96.375,15.5313 L96.375,19 L94.7109,19 L94.7109,13 L96.2969,13 L96.2969,14.0586 L96.3672,14.0586 C96.5,13.7096 96.7227,13.4329 97.0352,13.2285 C97.3477,13.0241 97.7266,12.9219 98.1719,12.9219 C98.5885,12.9219 98.9518,13.013 99.2617,13.1953 C99.5716,13.3776 99.8125,13.6374 99.9844,13.9746 C100.156,14.3118 100.242,14.7135 100.242,15.1797 L100.242,19 L98.5781,19 L98.5781,15.4766 C98.5807,15.1094 98.487,14.8223 98.2969,14.6152 C98.1068,14.4082 97.8451,14.3047 97.5117,14.3047 C97.2878,14.3047 97.0905,14.3529 96.9199,14.4492 C96.7493,14.5456 96.6165,14.6855 96.5215,14.8691 C96.4264,15.0527 96.3776,15.2734 96.375,15.5313 M104.242,21.375 C103.703,21.375 103.242,21.3014 102.857,21.1543 C102.473,21.0072 102.168,20.8073 101.941,20.5547 C101.715,20.3021 101.568,20.0182 101.5,19.7031 L103.039,19.4961 C103.086,19.6159 103.16,19.7279 103.262,19.832 C103.363,19.9362 103.498,20.0202 103.666,20.084 C103.834,20.1478 104.039,20.1797 104.281,20.1797 C104.643,20.1797 104.942,20.0918 105.178,19.916 C105.413,19.7402 105.531,19.4466 105.531,19.0352 L105.531,17.9375 L105.461,17.9375 C105.388,18.1042 105.279,18.2617 105.133,18.4102 C104.987,18.5586 104.799,18.6797 104.57,18.7734 C104.341,18.8672 104.068,18.9141 103.75,18.9141 C103.299,18.9141 102.89,18.8092 102.521,18.5996 C102.153,18.39 101.86,18.0684 101.643,17.6348 C101.425,17.2012 101.316,16.6523 101.316,15.9883 C101.316,15.3086 101.427,14.7409 101.648,14.2852 C101.87,13.8294 102.165,13.4883 102.533,13.2617 C102.902,13.0352 103.306,12.9219 103.746,12.9219 C104.082,12.9219 104.363,12.9785 104.59,13.0918 C104.816,13.2051 104.999,13.3457 105.139,13.5137 C105.278,13.6816 105.385,13.8464 105.461,14.0078 L105.523,14.0078 L105.523,13 L107.176,13 L107.176,19.0586 C107.176,19.569 107.051,19.9961 106.801,20.3398 C106.551,20.6836 106.205,20.9421 105.764,21.1152 C105.322,21.2884 104.815,21.375 104.242,21.375 M104.277,17.6641 C104.546,17.6641 104.773,17.597 104.959,17.4629 C105.145,17.3288 105.288,17.1361 105.389,16.8848 C105.489,16.6335 105.539,16.332 105.539,15.9805 C105.539,15.6289 105.49,15.3236 105.391,15.0645 C105.292,14.8053 105.148,14.6042 104.961,14.4609 C104.773,14.3177 104.546,14.2461 104.277,14.2461 C104.004,14.2461 103.773,14.3197 103.586,14.4668 C103.398,14.6139 103.257,14.8177 103.16,15.0781 C103.064,15.3385 103.016,15.6393 103.016,15.9805 C103.016,16.3268 103.064,16.6257 103.162,16.877 C103.26,17.1283 103.402,17.3223 103.588,17.459 C103.774,17.5957 104.004,17.6641 104.277,17.6641 M112.223,19 L110.59,13 L112.273,13 L113.203,17.0313 L113.258,17.0313 L114.227,13 L115.879,13 L116.863,17.0078 L116.914,17.0078 L117.828,13 L119.508,13 L117.879,19 L116.117,19 L115.086,15.2266 L115.012,15.2266 L113.98,19 L112.223,19 M122.047,15.5313 L122.047,19 L120.383,19 L120.383,11 L122,11 L122,14.0586 L122.07,14.0586 C122.206,13.7044 122.424,13.4264 122.727,13.2246 C123.029,13.0228 123.408,12.9219 123.863,12.9219 C124.28,12.9219 124.644,13.0124 124.955,13.1934 C125.266,13.3743 125.508,13.6335 125.682,13.9707 C125.855,14.3079 125.94,14.7109 125.938,15.1797 L125.938,19 L124.273,19 L124.273,15.4766 C124.276,15.1068 124.183,14.819 123.994,14.6133 C123.805,14.4076 123.542,14.3047 123.203,14.3047 C122.977,14.3047 122.777,14.3529 122.604,14.4492 C122.43,14.5456 122.295,14.6855 122.197,14.8691 C122.1,15.0527 122.049,15.2734 122.047,15.5313 M129.977,19.1172 C129.359,19.1172 128.829,18.9915 128.385,18.7402 C127.941,18.4889 127.599,18.1322 127.359,17.6699 C127.12,17.2077 127,16.6602 127,16.0273 C127,15.4102 127.12,14.8685 127.359,14.4023 C127.599,13.9362 127.937,13.5729 128.373,13.3125 C128.809,13.0521 129.322,12.9219 129.91,12.9219 C130.306,12.9219 130.675,12.985 131.018,13.1113 C131.36,13.2376 131.66,13.4271 131.916,13.6797 C132.173,13.9323 132.372,14.2493 132.516,14.6309 C132.659,15.0124 132.73,15.4583 132.73,15.9688 L132.73,16.4258 L127.664,16.4258 L127.664,15.3945 L131.164,15.3945 C131.164,15.1549 131.112,14.9427 131.008,14.7578 C130.904,14.5729 130.76,14.4277 130.576,14.3223 C130.393,14.2168 130.18,14.1641 129.938,14.1641 C129.685,14.1641 129.462,14.222 129.268,14.3379 C129.074,14.4538 128.922,14.6087 128.813,14.8027 C128.703,14.9967 128.647,15.2122 128.645,15.4492 L128.645,16.4297 C128.645,16.7266 128.7,16.9831 128.811,17.1992 C128.921,17.4154 129.078,17.582 129.281,17.6992 C129.484,17.8164 129.725,17.875 130.004,17.875 C130.189,17.875 130.358,17.849 130.512,17.7969 C130.665,17.7448 130.797,17.6667 130.906,17.5625 C131.016,17.4583 131.099,17.3307 131.156,17.1797 L132.695,17.2813 C132.617,17.651 132.458,17.9733 132.217,18.248 C131.976,18.5228 131.666,18.7363 131.287,18.8887 C130.908,19.041 130.471,19.1172 129.977,19.1172 M136.539,19.1172 C135.922,19.1172 135.391,18.9915 134.947,18.7402 C134.503,18.4889 134.161,18.1322 133.922,17.6699 C133.682,17.2077 133.563,16.6602 133.563,16.0273 C133.563,15.4102 133.682,14.8685 133.922,14.4023 C134.161,13.9362 134.499,13.5729 134.936,13.3125 C135.372,13.0521 135.884,12.9219 136.473,12.9219 C136.868,12.9219 137.238,12.985 137.58,13.1113 C137.923,13.2376 138.222,13.4271 138.479,13.6797 C138.735,13.9323 138.935,14.2493 139.078,14.6309 C139.221,15.0124 139.293,15.4583 139.293,15.9688 L139.293,16.4258 L134.227,16.4258 L134.227,15.3945 L137.727,15.3945 C137.727,15.1549 137.674,14.9427 137.57,14.7578 C137.466,14.5729 137.322,14.4277 137.139,14.3223 C136.955,14.2168 136.742,14.1641 136.5,14.1641 C136.247,14.1641 136.024,14.222 135.83,14.3379 C135.636,14.4538 135.484,14.6087 135.375,14.8027 C135.266,14.9967 135.21,15.2122 135.207,15.4492 L135.207,16.4297 C135.207,16.7266 135.262,16.9831 135.373,17.1992 C135.484,17.4154 135.641,17.582 135.844,17.6992 C136.047,17.8164 136.288,17.875 136.566,17.875 C136.751,17.875 136.921,17.849 137.074,17.7969 C137.228,17.7448 137.359,17.6667 137.469,17.5625 C137.578,17.4583 137.661,17.3307 137.719,17.1797 L139.258,17.2813 C139.18,17.651 139.02,17.9733 138.779,18.248 C138.538,18.5228 138.229,18.7363 137.85,18.8887 C137.471,19.041 137.034,19.1172 136.539,19.1172 M142.031,11 L142.031,19 L140.367,19 L140.367,11 L142.031,11"/>
</g>

<g fill="#ffffff" fill-opacity="1" stroke="none" transform="matrix(1,0,0,1,0,0)"
font-family="Inter" font-size="11" font-weight="700" font-style="normal" 
>
<path vector-effect="none" fill-rule="nonzero" d="M312.766,17.5547 L312.766,17.4219 C312.768,16.9661 312.809,16.6029 312.889,16.332 C312.968,16.0612 313.085,15.8424 313.238,15.6758 C313.392,15.5091 313.577,15.3581 313.793,15.2227 C313.954,15.1185 314.099,15.0104 314.227,14.8984 C314.354,14.7865 314.456,14.6621 314.531,14.5254 C314.607,14.3887 314.645,14.2357 314.645,14.0664 C314.645,13.8867 314.602,13.7292 314.516,13.5938 C314.43,13.4583 314.314,13.3542 314.17,13.2813 C314.025,13.2083 313.866,13.1719 313.691,13.1719 C313.522,13.1719 313.362,13.209 313.211,13.2832 C313.06,13.3574 312.936,13.4668 312.84,13.6113 C312.743,13.7559 312.691,13.9349 312.684,14.1484 L311.09,14.1484 C311.103,13.6276 311.228,13.1973 311.465,12.8574 C311.702,12.5176 312.016,12.2637 312.406,12.0957 C312.797,11.9277 313.228,11.8438 313.699,11.8438 C314.217,11.8438 314.676,11.929 315.074,12.0996 C315.473,12.2702 315.785,12.5169 316.012,12.8398 C316.238,13.1628 316.352,13.5521 316.352,14.0078 C316.352,14.3125 316.301,14.5827 316.201,14.8184 C316.101,15.054 315.961,15.2624 315.781,15.4434 C315.602,15.6243 315.389,15.7878 315.145,15.9336 C314.939,16.056 314.77,16.1836 314.639,16.3164 C314.507,16.4492 314.41,16.6029 314.346,16.7773 C314.282,16.9518 314.249,17.1667 314.246,17.4219 L314.246,17.5547 L312.766,17.5547 M313.539,20.0547 C313.279,20.0547 313.057,19.9629 312.873,19.7793 C312.689,19.5957 312.599,19.375 312.602,19.1172 C312.599,18.862 312.689,18.6432 312.873,18.4609 C313.057,18.2786 313.279,18.1875 313.539,18.1875 C313.786,18.1875 314.004,18.2786 314.191,18.4609 C314.379,18.6432 314.474,18.862 314.477,19.1172 C314.474,19.2891 314.429,19.446 314.342,19.5879 C314.255,19.7298 314.141,19.8431 314,19.9277 C313.859,20.0124 313.706,20.0547 313.539,20.0547 "/>
</g>

<g fill="#ffffff" fill-opacity="1" stroke="none" transform="matrix(0.95,0,0,0.95,11.6,4.6)"
font-family="Inter" font-size="11" font-weight="700" font-style="normal" 
>
<path vector-effect="none" fill-rule="nonzero" d="M2.19896,4.65234 C1.18891,4.65234 0.375703,5.46549 0.375703,6.47555 L0.375703,8.579 C1.00152,8.60331 1.67842,9.11362 1.67842,9.74561 L1.67842,14.2544 C1.67842,14.8864 1.00152,15.3967 0.375703,15.421 L0.375703,17.5245 C0.375703,18.5345 1.18891,19.3477 2.19896,19.3477 L21.8479,19.3477 C22.858,19.3477 23.6711,18.5345 23.6711,17.5245 L23.6711,6.47555 C23.6711,5.46549 22.858,4.65234 21.8479,4.65234 L2.19896,4.65234 M6.71936,9.23098 C8.56166,9.23097 10.0552,10.7245 10.0552,12.5668 C10.0552,14.4091 8.56167,15.9026 6.71936,15.9026 C4.87705,15.9026 3.38355,14.4091 3.38355,12.5668 C3.38355,10.7245 4.87705,9.23097 6.71936,9.23098 M19.875,9.24873 C20.7082,9.24871 21.3837,9.92418 21.3837,10.7574 C21.3837,11.5906 20.7082,12.266 19.875,12.266 C19.0418,12.266 18.3664,11.5906 18.3664,10.7574 C18.3664,9.9242 19.0418,9.24874 19.875,9.24873 M17.4318,12.8825 C18.265,12.8825 18.9404,13.558 18.9404,14.3912 C18.9404,15.2243 18.2649,15.8998 17.4318,15.8998 C16.5986,15.8998 15.9231,15.2244 15.9231,14.3912 C15.9231,13.5579 16.5985,12.8825 17.4318,12.8825 "/>
</g>

<g fill="none" stroke="#000000" stroke-opacity="1" stroke-width="0.54" stroke-linecap="butt" stroke-linejoin="miter" stroke-miterlimit="4" transform="matrix(0.95,0,0,0.95,11.6,4.6)"
font-family="Inter" font-size="11" font-weight="700" font-style="normal" 
>
<path vector-effect="none" fill-rule="nonzero" d="M2.19896,4.65234 C1.18891,4.65234 0.375703,5.46549 0.375703,6.47555 L0.375703,8.579 C1.00152,8.60331 1.67842,9.11362 1.67842,9.74561 L1.67842,14.2544 C1.67842,14.8864 1.00152,15.3967 0.375703,15.421 L0.375703,17.5245 C0.375703,18.5345 1.18891,19.3477 2.19896,19.3477 L21.8479,19.3477 C22.858,19.3477 23.6711,18.5345 23.6711,17.5245 L23.6711,6.47555 C23.6711,5.46549 22.858,4.65234 21.8479,4.65234 L2.19896,4.65234 M6.71936,9.23098 C8.56166,9.23097 10.0552,10.7245 10.0552,12.5668 C10.0552,14.4091 8.56167,15.9026 6.71936,15.9026 C4.87705,15.9026 3.38355,14.4091 3.38355,12.5668 C3.38355,10.7245 4.87705,9.23097 6.71936,9.23098 M19.875,9.24873 C20.7082,9.24871 21.3837,9.92418 21.3837,10.7574 C21.3837,11.5906 20.7082,12.266 19.875,12.266 C19.0418,12.266 18.3664,11.5906 18.3664,10.7574 C18.3664,9.9242 19.0418,9.24874 19.875,9.24873 M17.4318,12.8825 C18.265,12.8825 18.9404,13.558 18.9404,14.3912 C18.9404,15.2243 18.2649,15.8998 17.4318,15.8998 C16.5986,15.8998 15.9231,15.2244 15.9231,14.3912 C15.9231,13.5579 16.5985,12.8825 17.4318,12.8825 "/>
</g>

<g fill="#000000" fill-opacity="1" stroke="none" transform="matrix(0.95,0,0,0.95,11.6,4.6)"
font-family="Inter" font-size="11" font-weight="700" font-style="normal" 
>
<path vector-effect="none" fill-rule="nonzero" d="M0.108328,15.3227 L0.103298,8.65983 L1.21825,8.7259 L1.75102,9.37791 L1.70662,12.9064 L1.66222,14.5556 L1.04066,15.0542 L0.108328,15.3227"/>
</g>

<g fill="#000000" fill-opacity="1" stroke="none" transform="matrix(0.95,0,0,0.95,11.6,4.6)"
font-family="Inter" font-size="11" font-weight="700" font-style="normal" 
>
<circle cx="6.70111" cy="12.5452" r="1.68266"/>
</g>

<g fill="none" stroke="#000000" stroke-opacity="1" stroke-width="0.54" stroke-linecap="butt" stroke-linejoin="miter" stroke-miterlimit="4" transform="matrix(0.95,0,0,0.95,11.6,4.6)"
font-family="Inter" font-size="11" font-weight="700" font-style="normal" 
>
<circle cx="6.70111" cy="12.5452" r="1.68266"/>
</g>

<g fill="#000000" fill-opacity="1" stroke="none" transform="matrix(0.95,0,0,0.95,11.6,4.6)"
font-family="Inter" font-size="11" font-weight="700" font-style="normal" 
opacity="0.858824" >
<path vector-effect="none" fill-rule="evenodd" d="M8.42109,18.1373 C8.42109,18.0846 8.46385,18.0418 8.51661,18.0418 L15.4834,18.0418 C15.5361,18.0418 15.5789,18.0846 15.5789,18.1373 L15.5789,18.1373 C15.5789,18.1901 15.5361,18.2329 15.4834,18.2329 L8.51661,18.2329 C8.46385,18.2329 8.42109,18.1901 8.42109,18.1373 L8.42109,18.1373"/>
</g>

<g fill="none" stroke="#000000" stroke-opacity="1" stroke-width="0.437534" stroke-linecap="butt" stroke-linejoin="miter" stroke-miterlimit="4" transform="matrix(0.95,0,0,0.95,11.6,4.6)"
font-family="Inter" font-size="11" font-weight="700" font-style="normal" 
>
<path vector-effect="none" fill-rule="evenodd" d="M8.42109,18.1373 C8.42109,18.0846 8.46385,18.0418 8.51661,18.0418 L15.4834,18.0418 C15.5361,18.0418 15.5789,18.0846 15.5789,18.1373 L15.5789,18.1373 C15.5789,18.1901 15.5361,18.2329 15.4834,18.2329 L8.51661,18.2329 C8.46385,18.2329 8.42109,18.1901 8.42109,18.1373 L8.42109,18.1373"/>
</g>

<g fill="#ffffff" fill-opacity="1" stroke="none" transform="matrix(1,0,0,1,0,0)"
font-family="Inter" font-size="11" font-weight="700" font-style="normal" 
>
</g>

<g fill="#ffffff" fill-opacity="1" stroke="#00645c" stroke-opacity="1" stroke-width="1" stroke-linecap="square" stroke-linejoin="bevel" transform="matrix(1,0,0,1,0,0)"
font-family="Inter" font-size="11" font-weight="700" font-style="normal" 
>
<polyline fill="none" vector-effect="none" points="45,6 45,26 " />
</g>

<g fill="#009f94" fill-opacity="1" stroke="#00645c" stroke-opacity="1" stroke-width="1.2" stroke-linecap="square" stroke-linejoin="bevel" transform="matrix(1,0,0,1,231,4)"
font-family="Inter" font-size="11" font-weight="700" font-style="normal" 
>
<path vector-effect="none" fill-rule="evenodd" d="M0.5,3.5 C0.5,1.84315 1.84315,0.5 3.5,0.5 L70.5,0.5 C72.1569,0.5 73.5,1.84315 73.5,3.5 L73.5,20.5 C73.5,22.1569 72.1569,23.5 70.5,23.5 L3.5,23.5 C1.84315,23.5 0.5,22.1569 0.5,20.5 L0.5,3.5"/>
</g>

<g fill="#ffffff" fill-opacity="1" stroke="none" transform="matrix(1,0,0,1,231,4)"
font-family="Inter" font-size="11" font-weight="700" font-style="normal" 
>
<path vector-effect="none" fill-rule="nonzero" d="M9.00781,17.0781 L9.00781,8.82813 L10.6484,8.82813 L10.6484,9.83594 L10.7227,9.83594 C10.7956,9.67448 10.9017,9.50977 11.041,9.3418 C11.1803,9.17383 11.3626,9.0332 11.5879,8.91992 C11.8132,8.80664 12.0938,8.75 12.4297,8.75 C12.8672,8.75 13.2708,8.86393 13.6406,9.0918 C14.0104,9.31966 14.306,9.66211 14.5273,10.1191 C14.7487,10.5762 14.8594,11.1484 14.8594,11.8359 C14.8594,12.5052 14.752,13.0697 14.5371,13.5293 C14.3223,13.9889 14.0306,14.3366 13.6621,14.5723 C13.2936,14.8079 12.8815,14.9258 12.4258,14.9258 C12.1029,14.9258 11.8288,14.8724 11.6035,14.7656 C11.3783,14.6589 11.194,14.5241 11.0508,14.3613 C10.9076,14.1986 10.7982,14.0339 10.7227,13.8672 L10.6719,13.8672 L10.6719,17.0781 L9.00781,17.0781 M10.6367,11.8281 C10.6367,12.1849 10.6862,12.4961 10.7852,12.7617 C10.8841,13.0273 11.0273,13.2337 11.2148,13.3809 C11.4023,13.528 11.6302,13.6016 11.8984,13.6016 C12.1693,13.6016 12.3984,13.5267 12.5859,13.377 C12.7734,13.2272 12.916,13.0189 13.0137,12.752 C13.1113,12.485 13.1602,12.1771 13.1602,11.8281 C13.1602,11.4818 13.112,11.1771 13.0156,10.9141 C12.9193,10.651 12.7773,10.4453 12.5898,10.2969 C12.4023,10.1484 12.1719,10.0742 11.8984,10.0742 C11.6276,10.0742 11.3991,10.1458 11.2129,10.2891 C11.0267,10.4323 10.8841,10.6354 10.7852,10.8984 C10.6862,11.1615 10.6367,11.4714 10.6367,11.8281 M15.9609,14.8281 L15.9609,8.82813 L17.5742,8.82813 L17.5742,9.875 L17.6367,9.875 C17.7461,9.5026 17.9297,9.2207 18.1875,9.0293 C18.4453,8.83789 18.7422,8.74219 19.0781,8.74219 C19.1615,8.74219 19.2513,8.7474 19.3477,8.75781 C19.444,8.76823 19.5286,8.78255 19.6016,8.80078 L19.6016,10.2773 C19.5234,10.2539 19.4154,10.2331 19.2773,10.2148 C19.1393,10.1966 19.013,10.1875 18.8984,10.1875 C18.6536,10.1875 18.4355,10.2402 18.2441,10.3457 C18.0527,10.4512 17.9017,10.5977 17.791,10.7852 C17.6803,10.9727 17.625,11.1888 17.625,11.4336 L17.625,14.8281 L15.9609,14.8281 M22.8984,14.9453 C22.2813,14.9453 21.7507,14.8197 21.3066,14.5684 C20.8626,14.3171 20.5208,13.9603 20.2813,13.498 C20.0417,13.0358 19.9219,12.4883 19.9219,11.8555 C19.9219,11.2383 20.0417,10.6966 20.2813,10.2305 C20.5208,9.76432 20.8587,9.40104 21.2949,9.14063 C21.7311,8.88021 22.2435,8.75 22.832,8.75 C23.2279,8.75 23.597,8.81315 23.9395,8.93945 C24.2819,9.06576 24.5814,9.25521 24.8379,9.50781 C25.0944,9.76042 25.2943,10.0775 25.4375,10.459 C25.5807,10.8405 25.6523,11.2865 25.6523,11.7969 L25.6523,12.2539 L20.5859,12.2539 L20.5859,11.2227 L24.0859,11.2227 C24.0859,10.9831 24.0339,10.7708 23.9297,10.5859 C23.8255,10.401 23.6816,10.2559 23.498,10.1504 C23.3145,10.0449 23.1016,9.99219 22.8594,9.99219 C22.6068,9.99219 22.3835,10.0501 22.1895,10.166 C21.9954,10.2819 21.8438,10.4368 21.7344,10.6309 C21.625,10.8249 21.569,11.0404 21.5664,11.2773 L21.5664,12.2578 C21.5664,12.5547 21.6217,12.8112 21.7324,13.0273 C21.8431,13.2435 22,13.4102 22.2031,13.5273 C22.4063,13.6445 22.6471,13.7031 22.9258,13.7031 C23.1107,13.7031 23.2799,13.6771 23.4336,13.625 C23.5872,13.5729 23.7188,13.4948 23.8281,13.3906 C23.9375,13.2865 24.0208,13.1589 24.0781,13.0078 L25.6172,13.1094 C25.5391,13.4792 25.3796,13.8014 25.1387,14.0762 C24.8978,14.3509 24.5879,14.5645 24.209,14.7168 C23.8301,14.8691 23.3932,14.9453 22.8984,14.9453 M31.7188,10.5391 L30.1953,10.6328 C30.1693,10.5026 30.1133,10.3848 30.0273,10.2793 C29.9414,10.1738 29.8288,10.0892 29.6895,10.0254 C29.5501,9.96159 29.3841,9.92969 29.1914,9.92969 C28.9336,9.92969 28.7161,9.98372 28.5391,10.0918 C28.362,10.1999 28.2734,10.3438 28.2734,10.5234 C28.2734,10.6667 28.3307,10.7878 28.4453,10.8867 C28.5599,10.9857 28.7565,11.0651 29.0352,11.125 L30.1211,11.3438 C30.7044,11.4635 31.1393,11.6563 31.4258,11.9219 C31.7122,12.1875 31.8555,12.5365 31.8555,12.9688 C31.8555,13.362 31.7402,13.707 31.5098,14.0039 C31.2793,14.3008 30.9642,14.5319 30.5645,14.6973 C30.1647,14.8626 29.7044,14.9453 29.1836,14.9453 C28.3893,14.9453 27.7572,14.7793 27.2871,14.4473 C26.8171,14.1152 26.5417,13.6628 26.4609,13.0898 L28.0977,13.0039 C28.1471,13.2461 28.2669,13.4303 28.457,13.5566 C28.6471,13.6829 28.8906,13.7461 29.1875,13.7461 C29.4792,13.7461 29.7142,13.6895 29.8926,13.5762 C30.071,13.4629 30.1615,13.3164 30.1641,13.1367 C30.1615,12.9857 30.0977,12.8613 29.9727,12.7637 C29.8477,12.666 29.6549,12.5911 29.3945,12.5391 L28.3555,12.332 C27.7695,12.2148 27.334,12.0117 27.0488,11.7227 C26.7637,11.4336 26.6211,11.0651 26.6211,10.6172 C26.6211,10.2318 26.7259,9.89974 26.9355,9.62109 C27.1452,9.34245 27.4408,9.1276 27.8223,8.97656 C28.2038,8.82552 28.651,8.75 29.1641,8.75 C29.9219,8.75 30.5189,8.91016 30.9551,9.23047 C31.3913,9.55078 31.6458,9.98698 31.7188,10.5391 M37.8906,10.5391 L36.3672,10.6328 C36.3411,10.5026 36.2852,10.3848 36.1992,10.2793 C36.1133,10.1738 36.0007,10.0892 35.8613,10.0254 C35.722,9.96159 35.556,9.92969 35.3633,9.92969 C35.1055,9.92969 34.888,9.98372 34.7109,10.0918 C34.5339,10.1999 34.4453,10.3438 34.4453,10.5234 C34.4453,10.6667 34.5026,10.7878 34.6172,10.8867 C34.7318,10.9857 34.9284,11.0651 35.207,11.125 L36.293,11.3438 C36.8763,11.4635 37.3112,11.6563 37.5977,11.9219 C37.8841,12.1875 38.0273,12.5365 38.0273,12.9688 C38.0273,13.362 37.9121,13.707 37.6816,14.0039 C37.4512,14.3008 37.1361,14.5319 36.7363,14.6973 C36.3366,14.8626 35.8763,14.9453 35.3555,14.9453 C34.5612,14.9453 33.929,14.7793 33.459,14.4473 C32.9889,14.1152 32.7135,13.6628 32.6328,13.0898 L34.2695,13.0039 C34.319,13.2461 34.4388,13.4303 34.6289,13.5566 C34.819,13.6829 35.0625,13.7461 35.3594,13.7461 C35.651,13.7461 35.8861,13.6895 36.0645,13.5762 C36.2428,13.4629 36.3333,13.3164 36.3359,13.1367 C36.3333,12.9857 36.2695,12.8613 36.1445,12.7637 C36.0195,12.666 35.8268,12.5911 35.5664,12.5391 L34.5273,12.332 C33.9414,12.2148 33.5059,12.0117 33.2207,11.7227 C32.9355,11.4336 32.793,11.0651 32.793,10.6172 C32.793,10.2318 32.8978,9.89974 33.1074,9.62109 C33.3171,9.34245 33.6126,9.1276 33.9941,8.97656 C34.3757,8.82552 34.8229,8.75 35.3359,8.75 C36.0938,8.75 36.6908,8.91016 37.127,9.23047 C37.5632,9.55078 37.8177,9.98698 37.8906,10.5391 M41.8047,14.9453 C41.1875,14.9453 40.6569,14.8197 40.2129,14.5684 C39.7689,14.3171 39.4271,13.9603 39.1875,13.498 C38.9479,13.0358 38.8281,12.4883 38.8281,11.8555 C38.8281,11.2383 38.9479,10.6966 39.1875,10.2305 C39.4271,9.76432 39.765,9.40104 40.2012,9.14063 C40.6374,8.88021 41.1497,8.75 41.7383,8.75 C42.1341,8.75 42.5033,8.81315 42.8457,8.93945 C43.1882,9.06576 43.4876,9.25521 43.7441,9.50781 C44.0007,9.76042 44.2005,10.0775 44.3438,10.459 C44.487,10.8405 44.5586,11.2865 44.5586,11.7969 L44.5586,12.2539 L39.4922,12.2539 L39.4922,11.2227 L42.9922,11.2227 C42.9922,10.9831 42.9401,10.7708 42.8359,10.5859 C42.7318,10.401 42.5879,10.2559 42.4043,10.1504 C42.2207,10.0449 42.0078,9.99219 41.7656,9.99219 C41.513,9.99219 41.2897,10.0501 41.0957,10.166 C40.9017,10.2819 40.75,10.4368 40.6406,10.6309 C40.5313,10.8249 40.4753,11.0404 40.4727,11.2773 L40.4727,12.2578 C40.4727,12.5547 40.528,12.8112 40.6387,13.0273 C40.7493,13.2435 40.9063,13.4102 41.1094,13.5273 C41.3125,13.6445 41.5534,13.7031 41.832,13.7031 C42.0169,13.7031 42.1862,13.6771 42.3398,13.625 C42.4935,13.5729 42.625,13.4948 42.7344,13.3906 C42.8438,13.2865 42.9271,13.1589 42.9844,13.0078 L44.5234,13.1094 C44.4453,13.4792 44.2858,13.8014 44.0449,14.0762 C43.804,14.3509 43.4941,14.5645 43.1152,14.7168 C42.7363,14.8691 42.2995,14.9453 41.8047,14.9453 M47.8438,14.9258 C47.388,14.9258 46.9759,14.8079 46.6074,14.5723 C46.2389,14.3366 45.9473,13.9889 45.7324,13.5293 C45.5176,13.0697 45.4102,12.5052 45.4102,11.8359 C45.4102,11.1484 45.5208,10.5762 45.7422,10.1191 C45.9635,9.66211 46.2585,9.31966 46.627,9.0918 C46.9954,8.86393 47.3997,8.75 47.8398,8.75 C48.1758,8.75 48.4564,8.80664 48.6816,8.91992 C48.9069,9.0332 49.0892,9.17383 49.2285,9.3418 C49.3678,9.50977 49.474,9.67448 49.5469,9.83594 L49.5977,9.83594 L49.5977,6.82813 L51.2578,6.82813 L51.2578,14.8281 L49.6172,14.8281 L49.6172,13.8672 L49.5469,13.8672 C49.4688,14.0339 49.3587,14.1986 49.2168,14.3613 C49.0749,14.5241 48.8913,14.6589 48.666,14.7656 C48.4408,14.8724 48.1667,14.9258 47.8438,14.9258 M48.3711,13.6016 C48.6393,13.6016 48.8665,13.528 49.0527,13.3809 C49.2389,13.2337 49.3822,13.0273 49.4824,12.7617 C49.5827,12.4961 49.6328,12.1849 49.6328,11.8281 C49.6328,11.4714 49.5833,11.1615 49.4844,10.8984 C49.3854,10.6354 49.2422,10.4323 49.0547,10.2891 C48.8672,10.1458 48.6393,10.0742 48.3711,10.0742 C48.0977,10.0742 47.8672,10.1484 47.6797,10.2969 C47.4922,10.4453 47.3503,10.651 47.2539,10.9141 C47.1576,11.1771 47.1094,11.4818 47.1094,11.8281 C47.1094,12.1771 47.1582,12.485 47.2559,12.752 C47.3535,13.0189 47.4954,13.2272 47.6816,13.377 C47.8678,13.5267 48.0977,13.6016 48.3711,13.6016 "/>
</g>

<g fill="#ffffff" fill-opacity="1" stroke="none" transform="matrix(0.03125,0,0,0.03125,291,12)"
font-family="Inter" font-size="11" font-weight="700" font-style="normal" 
>
<path vector-effect="none" fill-rule="nonzero" d="M111.326,191.938 C120.545,201.158 135.517,201.158 144.737,191.938 L239.144,97.5313 C245.929,90.7458 247.921,80.6413 244.233,71.7907 C240.545,62.9401 231.989,57.1871 222.401,57.1871 L33.5875,57.2608 C24.0731,57.2608 15.4437,63.0137 11.7559,71.8644 C8.06815,80.715 10.1333,90.8195 16.845,97.605 L111.252,192.012 L111.326,191.938"/>
</g>

<g fill="none" stroke="#000000" stroke-opacity="1" stroke-width="13.7195" stroke-linecap="butt" stroke-linejoin="miter" stroke-miterlimit="4" transform="matrix(0.03125,0,0,0.03125,291,12)"
font-family="Inter" font-size="11" font-weight="700" font-style="normal" 
>
<path vector-effect="none" fill-rule="nonzero" d="M111.326,191.938 C120.545,201.158 135.517,201.158 144.737,191.938 L239.144,97.5313 C245.929,90.7458 247.921,80.6413 244.233,71.7907 C240.545,62.9401 231.989,57.1871 222.401,57.1871 L33.5875,57.2608 C24.0731,57.2608 15.4437,63.0137 11.7559,71.8644 C8.06815,80.715 10.1333,90.8195 16.845,97.605 L111.252,192.012 L111.326,191.938"/>
</g>

<g fill="#ffffff" fill-opacity="1" stroke="none" transform="matrix(1,0,0,1,231,4)"
font-family="Inter" font-size="11" font-weight="700" font-style="normal" 
>
</g>

<g fill="#ffffff" fill-opacity="1" stroke="#00645c" stroke-opacity="1" stroke-width="1" stroke-linecap="square" stroke-linejoin="bevel" transform="matrix(1,0,0,1,0,0)"
font-family="Inter" font-size="11" font-weight="700" font-style="normal" 
>
</g>

<g fill="#ffffff" fill-opacity="1" stroke="#00645c" stroke-opacity="1" stroke-width="1" stroke-linecap="square" stroke-linejoin="bevel" transform="matrix(1,0,0,1,0,0)"
font-family="Inter" font-size="11" font-weight="700" font-style="normal" 
>
</g>

<g fill="#009f94" fill-opacity="1" stroke="#00645c" stroke-opacity="1" stroke-width="1.2" stroke-linecap="square" stroke-linejoin="bevel" transform="matrix(1,0,0,1,148,4)"
font-family="Inter" font-size="11" font-weight="700" font-style="normal" 
>
<path vector-effect="none" fill-rule="evenodd" d="M0.5,3.5 C0.5,1.84315 1.84315,0.5 3.5,0.5 L75.5,0.5 C77.1569,0.5 78.5,1.84315 78.5,3.5 L78.5,20.5 C78.5,22.1569 77.1569,23.5 75.5,23.5 L3.5,23.5 C1.84315,23.5 0.5,22.1569 0.5,20.5 L0.5,3.5"/>
</g>

<g fill="#ffffff" fill-opacity="1" stroke="none" transform="matrix(1,0,0,1,148,4)"
font-family="Inter" font-size="11" font-weight="700" font-style="normal" 
>
<path vector-effect="none" fill-rule="nonzero" d="M14.5977,10.2383 C14.5664,9.92318 14.4323,9.67839 14.1953,9.50391 C13.9583,9.32943 13.6367,9.24219 13.2305,9.24219 C12.9544,9.24219 12.7214,9.2806 12.5313,9.35742 C12.3411,9.43424 12.196,9.54036 12.0957,9.67578 C11.9954,9.8112 11.9453,9.96484 11.9453,10.1367 C11.9401,10.2799 11.9707,10.4049 12.0371,10.5117 C12.1035,10.6185 12.1953,10.7103 12.3125,10.7871 C12.4297,10.8639 12.5651,10.9303 12.7188,10.9863 C12.8724,11.0423 13.0365,11.0898 13.2109,11.1289 L13.9297,11.3008 C14.2786,11.3789 14.599,11.4831 14.8906,11.6133 C15.1823,11.7435 15.4349,11.9036 15.6484,12.0938 C15.862,12.2839 16.028,12.5078 16.1465,12.7656 C16.265,13.0234 16.3255,13.319 16.3281,13.6523 C16.3255,14.1419 16.2012,14.5658 15.9551,14.9238 C15.709,15.2819 15.3548,15.5592 14.8926,15.7559 C14.4303,15.9525 13.8737,16.0508 13.2227,16.0508 C12.5768,16.0508 12.015,15.9518 11.5371,15.7539 C11.0592,15.556 10.6868,15.2624 10.4199,14.873 C10.153,14.4837 10.013,14.0013 10,13.4258 L11.6367,13.4258 C11.6549,13.694 11.7324,13.9173 11.8691,14.0957 C12.0059,14.2741 12.1895,14.4082 12.4199,14.498 C12.6504,14.5879 12.9115,14.6328 13.2031,14.6328 C13.4896,14.6328 13.7389,14.5911 13.9512,14.5078 C14.1634,14.4245 14.3281,14.3086 14.4453,14.1602 C14.5625,14.0117 14.6211,13.8411 14.6211,13.6484 C14.6211,13.4688 14.5684,13.3177 14.4629,13.1953 C14.3574,13.0729 14.2038,12.9688 14.002,12.8828 C13.8001,12.7969 13.5534,12.7188 13.2617,12.6484 L12.3906,12.4297 C11.7161,12.2656 11.1836,12.0091 10.793,11.6602 C10.4023,11.3112 10.2083,10.8411 10.2109,10.25 C10.2083,9.76563 10.3379,9.34245 10.5996,8.98047 C10.8613,8.61849 11.2214,8.33594 11.6797,8.13281 C12.138,7.92969 12.6589,7.82813 13.2422,7.82813 C13.8359,7.82813 14.3548,7.92969 14.7988,8.13281 C15.2428,8.33594 15.5885,8.61849 15.8359,8.98047 C16.0833,9.34245 16.2109,9.76172 16.2188,10.2383 L14.5977,10.2383 M19.2617,15.9375 L16.9727,7.9375 L18.8203,7.9375 L20.1445,13.4961 L20.2109,13.4961 L21.6719,7.9375 L23.2539,7.9375 L24.7109,13.5078 L24.7813,13.5078 L26.1055,7.9375 L27.9531,7.9375 L25.6641,15.9375 L24.0156,15.9375 L22.4922,10.707 L22.4297,10.707 L20.9102,15.9375 L19.2617,15.9375 M28.8516,7.9375 L30.9375,7.9375 L33.1406,13.3125 L33.2344,13.3125 L35.4375,7.9375 L37.5234,7.9375 L37.5234,15.9375 L35.8828,15.9375 L35.8828,10.7305 L35.8164,10.7305 L33.7461,15.8984 L32.6289,15.8984 L30.5586,10.7109 L30.4922,10.7109 L30.4922,15.9375 L28.8516,15.9375 L28.8516,7.9375 M38.9141,15.9375 L38.9141,7.9375 L42.0703,7.9375 C42.6745,7.9375 43.1908,8.04492 43.6191,8.25977 C44.0475,8.47461 44.3743,8.77799 44.5996,9.16992 C44.8249,9.56185 44.9375,10.0221 44.9375,10.5508 C44.9375,11.082 44.8229,11.5384 44.5938,11.9199 C44.3646,12.3014 44.0332,12.5938 43.5996,12.7969 C43.166,13 42.6419,13.1016 42.0273,13.1016 L39.9141,13.1016 L39.9141,11.7422 L41.7539,11.7422 C42.0768,11.7422 42.3451,11.6979 42.5586,11.6094 C42.7721,11.5208 42.9316,11.388 43.0371,11.2109 C43.1426,11.0339 43.1953,10.8138 43.1953,10.5508 C43.1953,10.2852 43.1426,10.0612 43.0371,9.87891 C42.9316,9.69661 42.7715,9.55794 42.5566,9.46289 C42.3418,9.36784 42.0716,9.32031 41.7461,9.32031 L40.6055,9.32031 L40.6055,15.9375 L38.9141,15.9375 M43.2344,12.2969 L45.2227,15.9375 L43.3555,15.9375 L41.4102,12.2969 L43.2344,12.2969 M46.1328,15.9375 L46.1328,7.9375 L47.8242,7.9375 L47.8242,11.4648 L47.9297,11.4648 L50.8086,7.9375 L52.8359,7.9375 L49.8672,11.5195 L52.8711,15.9375 L50.8477,15.9375 L48.6563,12.6484 L47.8242,13.6641 L47.8242,15.9375 L46.1328,15.9375 M57.1445,7.9375 L57.1445,15.9375 L55.4531,15.9375 L55.4531,9.54297 L55.4063,9.54297 L53.5742,10.6914 L53.5742,9.19141 L55.5547,7.9375 L57.1445,7.9375"/>
</g>

<g fill="#ffffff" fill-opacity="1" stroke="none" transform="matrix(0.03125,0,0,0.03125,213,12)"
font-family="Inter" font-size="11" font-weight="700" font-style="normal" 
>
<path vector-effect="none" fill-rule="nonzero" d="M111.326,191.938 C120.545,201.158 135.517,201.158 144.737,191.938 L239.144,97.5313 C245.929,90.7458 247.921,80.6413 244.233,71.7907 C240.545,62.9401 231.989,57.1871 222.401,57.1871 L33.5875,57.2608 C24.0731,57.2608 15.4437,63.0137 11.7559,71.8644 C8.06815,80.715 10.1333,90.8195 16.845,97.605 L111.252,192.012 L111.326,191.938"/>
</g>

<g fill="none" stroke="#000000" stroke-opacity="1" stroke-width="13.7195" stroke-linecap="butt" stroke-linejoin="miter" stroke-miterlimit="4" transform="matrix(0.03125,0,0,0.03125,213,12)"
font-family="Inter" font-size="11" font-weight="700" font-style="normal" 
>
<path vector-effect="none" fill-rule="nonzero" d="M111.326,191.938 C120.545,201.158 135.517,201.158 144.737,191.938 L239.144,97.5313 C245.929,90.7458 247.921,80.6413 244.233,71.7907 C240.545,62.9401 231.989,57.1871 222.401,57.1871 L33.5875,57.2608 C24.0731,57.2608 15.4437,63.0137 11.7559,71.8644 C8.06815,80.715 10.1333,90.8195 16.845,97.605 L111.252,192.012 L111.326,191.938"/>
</g>

<g fill="#ffffff" fill-opacity="1" stroke="none" transform="matrix(1,0,0,1,148,4)"
font-family="Inter" font-size="11" font-weight="700" font-style="normal" 
>
</g>

<g fill="#ffffff" fill-opacity="1" stroke="#00645c" stroke-opacity="1" stroke-width="1" stroke-linecap="square" stroke-linejoin="bevel" transform="matrix(1,0,0,1,0,0)"
font-family="Inter" font-size="11" font-weight="700" font-style="normal" 
>
</g>

<g fill="none" stroke="#000000" stroke-opacity="1" stroke-width="1" stroke-linecap="square" stroke-linejoin="bevel" transform="matrix(1,0,0,1,0,0)"
font-family=".AppleSystemUIFont" font-size="13" font-weight="400" font-style="normal" 
>
</g>
</g>
</svg>
