<?xml version="1.0" encoding="UTF-8" standalone="no"?>
<svg width="106.892mm" height="11.2889mm"
 viewBox="0 0 303 32"
 xmlns="http://www.w3.org/2000/svg" xmlns:xlink="http://www.w3.org/1999/xlink" version="1.2" baseProfile="tiny">
<title>Abstract block</title>
<desc>block_hubs_all_sensors_acceleration</desc>
<defs>
</defs>
<g fill="none" stroke="black" stroke-width="1" fill-rule="evenodd" stroke-linecap="square" stroke-linejoin="bevel" >

<g fill="none" stroke="#000000" stroke-opacity="1" stroke-width="1" stroke-linecap="square" stroke-linejoin="bevel" transform="matrix(1,0,0,1,0,0)"
font-family=".AppleSystemUIFont" font-size="13" font-weight="400" font-style="normal" 
>
</g>

<g fill="none" stroke="#000000" stroke-opacity="1" stroke-width="1" stroke-linecap="square" stroke-linejoin="bevel" transform="matrix(1,0,0,1,0,0)"
font-family=".AppleSystemUIFont" font-size="13" font-weight="400" font-style="normal" 
>
</g>

<g fill="#1dccf0" fill-opacity="1" stroke="#0da6c5" stroke-opacity="1" stroke-width="1.2" stroke-linecap="square" stroke-linejoin="bevel" transform="matrix(1,0,0,1,0,0)"
font-family=".AppleSystemUIFont" font-size="13" font-weight="400" font-style="normal" 
>
<path vector-effect="none" fill-rule="evenodd" d="M1,16 C1,7.71573 8.16344,1 17,1 L285.667,1 C294.503,1 301.667,7.71573 301.667,16 C301.667,24.2843 294.503,31 285.667,31 L17,31 C8.16344,31 1,24.2843 1,16 "/>
</g>

<g fill="#ffffff" fill-opacity="1" stroke="none" transform="matrix(1,0,0,1,0,0)"
font-family="Inter" font-size="11" font-weight="700" font-style="normal" 
>
<path vector-effect="none" fill-rule="nonzero" d="M189.109,19.5977 C188.727,19.5977 188.385,19.5306 188.086,19.3965 C187.786,19.2624 187.55,19.0632 187.377,18.7988 C187.204,18.5345 187.117,18.2044 187.117,17.8086 C187.117,17.4753 187.178,17.1953 187.301,16.9688 C187.423,16.7422 187.59,16.5599 187.801,16.4219 C188.012,16.2839 188.252,16.1797 188.521,16.1094 C188.791,16.0391 189.074,15.9896 189.371,15.9609 C189.72,15.9245 190.001,15.89 190.215,15.8574 C190.428,15.8249 190.583,15.776 190.68,15.7109 C190.776,15.6458 190.824,15.5495 190.824,15.4219 L190.824,15.3984 C190.824,15.151 190.747,14.9596 190.592,14.8242 C190.437,14.6888 190.217,14.6211 189.934,14.6211 C189.634,14.6211 189.396,14.6868 189.219,14.8184 C189.042,14.9499 188.924,15.1146 188.867,15.3125 L187.328,15.1875 C187.406,14.8229 187.56,14.5072 187.789,14.2402 C188.018,13.9733 188.314,13.7676 188.678,13.623 C189.041,13.4785 189.462,13.4063 189.941,13.4063 C190.275,13.4063 190.594,13.4453 190.9,13.5234 C191.206,13.6016 191.479,13.7227 191.717,13.8867 C191.955,14.0508 192.143,14.2611 192.281,14.5176 C192.419,14.7741 192.488,15.0807 192.488,15.4375 L192.488,19.4844 L190.91,19.4844 L190.91,18.6523 L190.863,18.6523 C190.767,18.8398 190.638,19.0046 190.477,19.1465 C190.315,19.2884 190.121,19.3991 189.895,19.4785 C189.668,19.5579 189.406,19.5977 189.109,19.5977 M189.586,18.4492 C189.831,18.4492 190.047,18.4004 190.234,18.3027 C190.422,18.2051 190.569,18.0729 190.676,17.9063 C190.783,17.7396 190.836,17.5508 190.836,17.3398 L190.836,16.7031 C190.784,16.737 190.713,16.7676 190.623,16.7949 C190.533,16.8223 190.432,16.847 190.32,16.8691 C190.208,16.8913 190.096,16.9108 189.984,16.9277 C189.872,16.9447 189.771,16.9596 189.68,16.9727 C189.484,17.0013 189.314,17.0469 189.168,17.1094 C189.022,17.1719 188.909,17.2559 188.828,17.3613 C188.747,17.4668 188.707,17.5977 188.707,17.7539 C188.707,17.9805 188.79,18.153 188.955,18.2715 C189.12,18.39 189.331,18.4492 189.586,18.4492 M196.484,19.6016 C195.87,19.6016 195.342,19.4707 194.9,19.209 C194.459,18.9473 194.12,18.5833 193.885,18.1172 C193.649,17.651 193.531,17.1146 193.531,16.5078 C193.531,15.8932 193.65,15.3535 193.889,14.8887 C194.127,14.4238 194.466,14.0605 194.906,13.7988 C195.346,13.5371 195.87,13.4063 196.477,13.4063 C197,13.4063 197.458,13.5013 197.852,13.6914 C198.245,13.8815 198.556,14.1484 198.785,14.4922 C199.014,14.8359 199.141,15.2396 199.164,15.7031 L197.594,15.7031 C197.549,15.4036 197.433,15.1621 197.244,14.9785 C197.055,14.7949 196.809,14.7031 196.504,14.7031 C196.246,14.7031 196.021,14.7728 195.83,14.9121 C195.639,15.0514 195.49,15.2539 195.383,15.5195 C195.276,15.7852 195.223,16.1068 195.223,16.4844 C195.223,16.8672 195.275,17.1927 195.381,17.4609 C195.486,17.7292 195.635,17.9336 195.828,18.0742 C196.021,18.2148 196.246,18.2852 196.504,18.2852 C196.694,18.2852 196.865,18.2461 197.018,18.168 C197.17,18.0898 197.296,17.9759 197.396,17.8262 C197.497,17.6764 197.563,17.4961 197.594,17.2852 L199.164,17.2852 C199.138,17.7435 199.014,18.1465 198.791,18.4941 C198.568,18.8418 198.262,19.1133 197.871,19.3086 C197.48,19.5039 197.018,19.6016 196.484,19.6016 M202.938,19.6016 C202.323,19.6016 201.795,19.4707 201.354,19.209 C200.912,18.9473 200.574,18.5833 200.338,18.1172 C200.102,17.651 199.984,17.1146 199.984,16.5078 C199.984,15.8932 200.104,15.3535 200.342,14.8887 C200.58,14.4238 200.919,14.0605 201.359,13.7988 C201.799,13.5371 202.323,13.4063 202.93,13.4063 C203.453,13.4063 203.911,13.5013 204.305,13.6914 C204.698,13.8815 205.009,14.1484 205.238,14.4922 C205.467,14.8359 205.594,15.2396 205.617,15.7031 L204.047,15.7031 C204.003,15.4036 203.886,15.1621 203.697,14.9785 C203.508,14.7949 203.262,14.7031 202.957,14.7031 C202.699,14.7031 202.475,14.7728 202.283,14.9121 C202.092,15.0514 201.943,15.2539 201.836,15.5195 C201.729,15.7852 201.676,16.1068 201.676,16.4844 C201.676,16.8672 201.729,17.1927 201.834,17.4609 C201.939,17.7292 202.089,17.9336 202.281,18.0742 C202.474,18.2148 202.699,18.2852 202.957,18.2852 C203.147,18.2852 203.318,18.2461 203.471,18.168 C203.623,18.0898 203.749,17.9759 203.85,17.8262 C203.95,17.6764 204.016,17.4961 204.047,17.2852 L205.617,17.2852 C205.591,17.7435 205.467,18.1465 205.244,18.4941 C205.021,18.8418 204.715,19.1133 204.324,19.3086 C203.934,19.5039 203.471,19.6016 202.938,19.6016 M209.414,19.6016 C208.797,19.6016 208.266,19.4759 207.822,19.2246 C207.378,18.9733 207.036,18.6165 206.797,18.1543 C206.557,17.6921 206.438,17.1445 206.438,16.5117 C206.438,15.8945 206.557,15.3529 206.797,14.8867 C207.036,14.4206 207.374,14.0573 207.811,13.7969 C208.247,13.5365 208.759,13.4063 209.348,13.4063 C209.743,13.4063 210.113,13.4694 210.455,13.5957 C210.798,13.722 211.097,13.9115 211.354,14.1641 C211.61,14.4167 211.81,14.7337 211.953,15.1152 C212.096,15.4967 212.168,15.9427 212.168,16.4531 L212.168,16.9102 L207.102,16.9102 L207.102,15.8789 L210.602,15.8789 C210.602,15.6393 210.549,15.4271 210.445,15.2422 C210.341,15.0573 210.197,14.9121 210.014,14.8066 C209.83,14.7012 209.617,14.6484 209.375,14.6484 C209.122,14.6484 208.899,14.7064 208.705,14.8223 C208.511,14.9382 208.359,15.0931 208.25,15.2871 C208.141,15.4811 208.085,15.6966 208.082,15.9336 L208.082,16.9141 C208.082,17.2109 208.137,17.4674 208.248,17.6836 C208.359,17.8997 208.516,18.0664 208.719,18.1836 C208.922,18.3008 209.163,18.3594 209.441,18.3594 C209.626,18.3594 209.796,18.3333 209.949,18.2813 C210.103,18.2292 210.234,18.151 210.344,18.0469 C210.453,17.9427 210.536,17.8151 210.594,17.6641 L212.133,17.7656 C212.055,18.1354 211.895,18.4577 211.654,18.7324 C211.413,19.0072 211.104,19.2207 210.725,19.373 C210.346,19.5254 209.909,19.6016 209.414,19.6016 M214.906,11.4844 L214.906,19.4844 L213.242,19.4844 L213.242,11.4844 L214.906,11.4844 M218.961,19.6016 C218.344,19.6016 217.813,19.4759 217.369,19.2246 C216.925,18.9733 216.583,18.6165 216.344,18.1543 C216.104,17.6921 215.984,17.1445 215.984,16.5117 C215.984,15.8945 216.104,15.3529 216.344,14.8867 C216.583,14.4206 216.921,14.0573 217.357,13.7969 C217.794,13.5365 218.306,13.4063 218.895,13.4063 C219.29,13.4063 219.66,13.4694 220.002,13.5957 C220.344,13.722 220.644,13.9115 220.9,14.1641 C221.157,14.4167 221.357,14.7337 221.5,15.1152 C221.643,15.4967 221.715,15.9427 221.715,16.4531 L221.715,16.9102 L216.648,16.9102 L216.648,15.8789 L220.148,15.8789 C220.148,15.6393 220.096,15.4271 219.992,15.2422 C219.888,15.0573 219.744,14.9121 219.561,14.8066 C219.377,14.7012 219.164,14.6484 218.922,14.6484 C218.669,14.6484 218.446,14.7064 218.252,14.8223 C218.058,14.9382 217.906,15.0931 217.797,15.2871 C217.688,15.4811 217.632,15.6966 217.629,15.9336 L217.629,16.9141 C217.629,17.2109 217.684,17.4674 217.795,17.6836 C217.906,17.8997 218.063,18.0664 218.266,18.1836 C218.469,18.3008 218.71,18.3594 218.988,18.3594 C219.173,18.3594 219.342,18.3333 219.496,18.2813 C219.65,18.2292 219.781,18.151 219.891,18.0469 C220,17.9427 220.083,17.8151 220.141,17.6641 L221.68,17.7656 C221.602,18.1354 221.442,18.4577 221.201,18.7324 C220.96,19.0072 220.65,19.2207 220.271,19.373 C219.893,19.5254 219.456,19.6016 218.961,19.6016 M222.789,19.4844 L222.789,13.4844 L224.402,13.4844 L224.402,14.5313 L224.465,14.5313 C224.574,14.1589 224.758,13.877 225.016,13.6855 C225.273,13.4941 225.57,13.3984 225.906,13.3984 C225.99,13.3984 226.079,13.4036 226.176,13.4141 C226.272,13.4245 226.357,13.4388 226.43,13.457 L226.43,14.9336 C226.352,14.9102 226.243,14.8893 226.105,14.8711 C225.967,14.8529 225.841,14.8438 225.727,14.8438 C225.482,14.8438 225.264,14.8965 225.072,15.002 C224.881,15.1074 224.73,15.2539 224.619,15.4414 C224.508,15.6289 224.453,15.8451 224.453,16.0898 L224.453,19.4844 L222.789,19.4844 M228.813,19.5977 C228.43,19.5977 228.089,19.5306 227.789,19.3965 C227.49,19.2624 227.253,19.0632 227.08,18.7988 C226.907,18.5345 226.82,18.2044 226.82,17.8086 C226.82,17.4753 226.882,17.1953 227.004,16.9688 C227.126,16.7422 227.293,16.5599 227.504,16.4219 C227.715,16.2839 227.955,16.1797 228.225,16.1094 C228.494,16.0391 228.777,15.9896 229.074,15.9609 C229.423,15.9245 229.704,15.89 229.918,15.8574 C230.132,15.8249 230.286,15.776 230.383,15.7109 C230.479,15.6458 230.527,15.5495 230.527,15.4219 L230.527,15.3984 C230.527,15.151 230.45,14.9596 230.295,14.8242 C230.14,14.6888 229.921,14.6211 229.637,14.6211 C229.337,14.6211 229.099,14.6868 228.922,14.8184 C228.745,14.9499 228.628,15.1146 228.57,15.3125 L227.031,15.1875 C227.109,14.8229 227.263,14.5072 227.492,14.2402 C227.721,13.9733 228.018,13.7676 228.381,13.623 C228.744,13.4785 229.165,13.4063 229.645,13.4063 C229.978,13.4063 230.298,13.4453 230.604,13.5234 C230.91,13.6016 231.182,13.7227 231.42,13.8867 C231.658,14.0508 231.846,14.2611 231.984,14.5176 C232.122,14.7741 232.191,15.0807 232.191,15.4375 L232.191,19.4844 L230.613,19.4844 L230.613,18.6523 L230.566,18.6523 C230.47,18.8398 230.341,19.0046 230.18,19.1465 C230.018,19.2884 229.824,19.3991 229.598,19.4785 C229.371,19.5579 229.109,19.5977 228.813,19.5977 M229.289,18.4492 C229.534,18.4492 229.75,18.4004 229.938,18.3027 C230.125,18.2051 230.272,18.0729 230.379,17.9063 C230.486,17.7396 230.539,17.5508 230.539,17.3398 L230.539,16.7031 C230.487,16.737 230.416,16.7676 230.326,16.7949 C230.236,16.8223 230.135,16.847 230.023,16.8691 C229.911,16.8913 229.799,16.9108 229.688,16.9277 C229.576,16.9447 229.474,16.9596 229.383,16.9727 C229.188,17.0013 229.017,17.0469 228.871,17.1094 C228.725,17.1719 228.612,17.2559 228.531,17.3613 C228.451,17.4668 228.41,17.5977 228.41,17.7539 C228.41,17.9805 228.493,18.153 228.658,18.2715 C228.824,18.39 229.034,18.4492 229.289,18.4492 M236.668,13.4844 L236.668,14.7344 L233.055,14.7344 L233.055,13.4844 L236.668,13.4844 M233.875,12.0469 L235.539,12.0469 L235.539,17.6406 C235.539,17.7943 235.563,17.9134 235.609,17.998 C235.656,18.0827 235.722,18.1419 235.807,18.1758 C235.891,18.2096 235.99,18.2266 236.102,18.2266 C236.18,18.2266 236.258,18.2194 236.336,18.2051 C236.414,18.1908 236.474,18.1797 236.516,18.1719 L236.777,19.4102 C236.694,19.4362 236.577,19.4668 236.426,19.502 C236.275,19.5371 236.091,19.5586 235.875,19.5664 C235.474,19.582 235.123,19.5286 234.822,19.4063 C234.521,19.2839 234.288,19.0938 234.121,18.8359 C233.954,18.5781 233.872,18.2526 233.875,17.8594 L233.875,12.0469 M237.742,19.4844 L237.742,13.4844 L239.406,13.4844 L239.406,19.4844 L237.742,19.4844 M238.578,12.7109 C238.331,12.7109 238.119,12.6283 237.943,12.4629 C237.768,12.2975 237.68,12.099 237.68,11.8672 C237.68,11.638 237.768,11.4408 237.943,11.2754 C238.119,11.11 238.331,11.0273 238.578,11.0273 C238.826,11.0273 239.037,11.11 239.213,11.2754 C239.389,11.4408 239.477,11.638 239.477,11.8672 C239.477,12.099 239.389,12.2975 239.213,12.4629 C239.037,12.6283 238.826,12.7109 238.578,12.7109 M243.438,19.6016 C242.831,19.6016 242.307,19.472 241.865,19.2129 C241.424,18.9538 241.083,18.5918 240.844,18.127 C240.604,17.6621 240.484,17.1224 240.484,16.5078 C240.484,15.888 240.604,15.3457 240.844,14.8809 C241.083,14.416 241.424,14.054 241.865,13.7949 C242.307,13.5358 242.831,13.4063 243.438,13.4063 C244.044,13.4063 244.568,13.5358 245.01,13.7949 C245.451,14.054 245.792,14.416 246.031,14.8809 C246.271,15.3457 246.391,15.888 246.391,16.5078 C246.391,17.1224 246.271,17.6621 246.031,18.127 C245.792,18.5918 245.451,18.9538 245.01,19.2129 C244.568,19.472 244.044,19.6016 243.438,19.6016 M243.445,18.3125 C243.721,18.3125 243.952,18.2337 244.137,18.0762 C244.322,17.9186 244.462,17.7031 244.557,17.4297 C244.652,17.1563 244.699,16.8451 244.699,16.4961 C244.699,16.1471 244.652,15.8359 244.557,15.5625 C244.462,15.2891 244.322,15.0729 244.137,14.9141 C243.952,14.7552 243.721,14.6758 243.445,14.6758 C243.167,14.6758 242.933,14.7552 242.744,14.9141 C242.555,15.0729 242.413,15.2891 242.318,15.5625 C242.223,15.8359 242.176,16.1471 242.176,16.4961 C242.176,16.8451 242.223,17.1563 242.318,17.4297 C242.413,17.7031 242.555,17.9186 242.744,18.0762 C242.933,18.2337 243.167,18.3125 243.445,18.3125 M249.141,16.0156 L249.141,19.4844 L247.477,19.4844 L247.477,13.4844 L249.063,13.4844 L249.063,14.543 L249.133,14.543 C249.266,14.194 249.488,13.9173 249.801,13.7129 C250.113,13.5085 250.492,13.4063 250.938,13.4063 C251.354,13.4063 251.717,13.4974 252.027,13.6797 C252.337,13.862 252.578,14.1217 252.75,14.459 C252.922,14.7962 253.008,15.1979 253.008,15.6641 L253.008,19.4844 L251.344,19.4844 L251.344,15.9609 C251.346,15.5938 251.253,15.3066 251.063,15.0996 C250.872,14.8926 250.611,14.7891 250.277,14.7891 C250.053,14.7891 249.856,14.8372 249.686,14.9336 C249.515,15.0299 249.382,15.1699 249.287,15.3535 C249.192,15.5371 249.143,15.7578 249.141,16.0156 M257.219,16.2773 C257.219,15.3086 257.348,14.4167 257.607,13.6016 C257.867,12.7865 258.263,12.0313 258.797,11.3359 L260.387,11.3359 C260.184,11.5938 259.995,11.9082 259.82,12.2793 C259.646,12.6504 259.493,13.0573 259.363,13.5 C259.233,13.9427 259.132,14.4004 259.059,14.873 C258.986,15.3457 258.949,15.8138 258.949,16.2773 C258.949,16.8945 259.012,17.5176 259.139,18.1465 C259.265,18.7754 259.437,19.3594 259.654,19.8984 C259.872,20.4375 260.116,20.8789 260.387,21.2227 L258.797,21.2227 C258.263,20.5273 257.867,19.7721 257.607,18.957 C257.348,18.1419 257.219,17.2487 257.219,16.2773 M261.352,19.4844 L261.352,13.4844 L262.938,13.4844 L262.938,14.543 L263.008,14.543 C263.133,14.1914 263.341,13.9141 263.633,13.7109 C263.924,13.5078 264.273,13.4063 264.68,13.4063 C265.091,13.4063 265.441,13.5085 265.73,13.7129 C266.02,13.9173 266.212,14.194 266.309,14.543 L266.371,14.543 C266.493,14.1992 266.715,13.9238 267.037,13.7168 C267.359,13.5098 267.74,13.4063 268.18,13.4063 C268.74,13.4063 269.195,13.584 269.545,13.9395 C269.895,14.2949 270.07,14.7982 270.07,15.4492 L270.07,19.4844 L268.41,19.4844 L268.41,15.7773 C268.41,15.444 268.322,15.194 268.145,15.0273 C267.967,14.8607 267.746,14.7773 267.48,14.7773 C267.178,14.7773 266.943,14.873 266.773,15.0645 C266.604,15.2559 266.52,15.5078 266.52,15.8203 L266.52,19.4844 L264.906,19.4844 L264.906,15.7422 C264.906,15.4479 264.822,15.2135 264.654,15.0391 C264.486,14.8646 264.266,14.7773 263.992,14.7773 C263.807,14.7773 263.641,14.8236 263.494,14.916 C263.347,15.0085 263.23,15.1374 263.145,15.3027 C263.059,15.4681 263.016,15.6615 263.016,15.8828 L263.016,19.4844 L261.352,19.4844 M274.867,11.1094 L272.289,20.6875 L270.855,20.6875 L273.434,11.1094 L274.867,11.1094 M280.656,15.1953 L279.133,15.2891 C279.107,15.1589 279.051,15.041 278.965,14.9355 C278.879,14.8301 278.766,14.7454 278.627,14.6816 C278.488,14.6178 278.322,14.5859 278.129,14.5859 C277.871,14.5859 277.654,14.64 277.477,14.748 C277.299,14.8561 277.211,15 277.211,15.1797 C277.211,15.3229 277.268,15.444 277.383,15.543 C277.497,15.6419 277.694,15.7214 277.973,15.7813 L279.059,16 C279.642,16.1198 280.077,16.3125 280.363,16.5781 C280.65,16.8438 280.793,17.1927 280.793,17.625 C280.793,18.0182 280.678,18.3633 280.447,18.6602 C280.217,18.957 279.902,19.1882 279.502,19.3535 C279.102,19.5189 278.642,19.6016 278.121,19.6016 C277.327,19.6016 276.695,19.4355 276.225,19.1035 C275.755,18.7715 275.479,18.319 275.398,17.7461 L277.035,17.6602 C277.085,17.9023 277.204,18.0866 277.395,18.2129 C277.585,18.3392 277.828,18.4023 278.125,18.4023 C278.417,18.4023 278.652,18.3457 278.83,18.2324 C279.008,18.1191 279.099,17.9727 279.102,17.793 C279.099,17.6419 279.035,17.5176 278.91,17.4199 C278.785,17.3223 278.592,17.2474 278.332,17.1953 L277.293,16.9883 C276.707,16.8711 276.271,16.668 275.986,16.3789 C275.701,16.0898 275.559,15.7214 275.559,15.2734 C275.559,14.888 275.663,14.556 275.873,14.2773 C276.083,13.9987 276.378,13.7839 276.76,13.6328 C277.141,13.4818 277.589,13.4063 278.102,13.4063 C278.859,13.4063 279.456,13.5664 279.893,13.8867 C280.329,14.207 280.583,14.6432 280.656,15.1953 M281.652,15.4844 L281.652,14.6211 L283.555,13.1016 C283.701,12.9818 283.827,12.8737 283.934,12.7773 C284.04,12.681 284.124,12.5833 284.184,12.4844 C284.243,12.3854 284.273,12.276 284.273,12.1563 C284.273,11.9688 284.197,11.8242 284.043,11.7227 C283.889,11.6211 283.703,11.5703 283.484,11.5703 C283.25,11.5703 283.062,11.627 282.92,11.7402 C282.778,11.8535 282.707,12.0169 282.707,12.2305 L281.555,12.2305 C281.555,11.7305 281.737,11.3379 282.102,11.0527 C282.466,10.7676 282.932,10.625 283.5,10.625 C283.888,10.625 284.225,10.6921 284.512,10.8262 C284.798,10.9603 285.02,11.1419 285.178,11.3711 C285.335,11.6003 285.414,11.8568 285.414,12.1406 C285.414,12.3698 285.367,12.5827 285.271,12.7793 C285.176,12.9759 285.031,13.1686 284.834,13.3574 C284.637,13.5462 284.384,13.7435 284.074,13.9492 L283.379,14.4648 L283.379,14.5078 L285.469,14.5078 L285.469,15.4844 L281.652,15.4844 M289.297,16.2773 C289.297,17.2487 289.167,18.1419 288.908,18.957 C288.649,19.7721 288.253,20.5273 287.719,21.2227 L286.129,21.2227 C286.332,20.9648 286.521,20.6497 286.695,20.2773 C286.87,19.9049 287.022,19.498 287.152,19.0566 C287.283,18.6152 287.384,18.1576 287.457,17.6836 C287.53,17.2096 287.566,16.7409 287.566,16.2773 C287.566,15.6602 287.503,15.0371 287.377,14.4082 C287.251,13.7793 287.079,13.196 286.861,12.6582 C286.644,12.1204 286.4,11.6797 286.129,11.3359 L287.719,11.3359 C288.253,12.0313 288.649,12.7865 288.908,13.6016 C289.167,14.4167 289.297,15.3086 289.297,16.2773 "/>
</g>

<g fill="#ffffff" fill-opacity="1" stroke="none" transform="matrix(0.228,0,0,0.228,11.6,4.6)"
font-family="Inter" font-size="11" font-weight="700" font-style="normal" 
>
<path vector-effect="none" fill-rule="nonzero" d="M23.3682,15.995 C21.89,15.995 20.7001,17.185 20.7001,18.6631 L20.7001,81.3343 C20.7001,82.8125 21.89,84.0024 23.3682,84.0024 L76.6077,84.0024 C78.0859,84.0024 79.2758,82.8125 79.2758,81.3343 L79.2758,18.6631 C79.2758,17.185 78.0859,15.995 76.6077,15.995 L50.8905,15.995 C51.6703,16.0444 52.2838,16.6869 52.2838,17.4796 L52.2838,26.9112 C52.2838,27.7362 51.6196,28.4004 50.7946,28.4004 L49.3054,28.4004 C48.4804,28.4004 47.8161,27.7362 47.8161,26.9112 L47.8161,17.4796 C47.8161,16.6869 48.4298,16.0443 49.2096,15.995 L23.3682,15.995 M46.7613,35.2087 L53.2146,35.2087 C53.9021,35.2087 54.4556,35.7622 54.4556,36.4497 L54.4556,42.903 C54.4556,43.5906 53.9021,44.1439 53.2146,44.1439 L46.7613,44.1439 C46.0738,44.1439 45.5202,43.5906 45.5202,42.903 L45.5202,36.4497 C45.5202,35.7622 46.0738,35.2087 46.7613,35.2087 "/>
</g>

<g fill="none" stroke="#000000" stroke-opacity="1" stroke-width="2.43854" stroke-linecap="butt" stroke-linejoin="miter" stroke-miterlimit="4" transform="matrix(0.228,0,0,0.228,11.6,4.6)"
font-family="Inter" font-size="11" font-weight="700" font-style="normal" 
>
<path vector-effect="none" fill-rule="nonzero" d="M23.3682,15.995 C21.89,15.995 20.7001,17.185 20.7001,18.6631 L20.7001,81.3343 C20.7001,82.8125 21.89,84.0024 23.3682,84.0024 L76.6077,84.0024 C78.0859,84.0024 79.2758,82.8125 79.2758,81.3343 L79.2758,18.6631 C79.2758,17.185 78.0859,15.995 76.6077,15.995 L50.8905,15.995 C51.6703,16.0444 52.2838,16.6869 52.2838,17.4796 L52.2838,26.9112 C52.2838,27.7362 51.6196,28.4004 50.7946,28.4004 L49.3054,28.4004 C48.4804,28.4004 47.8161,27.7362 47.8161,26.9112 L47.8161,17.4796 C47.8161,16.6869 48.4298,16.0443 49.2096,15.995 L23.3682,15.995 M46.7613,35.2087 L53.2146,35.2087 C53.9021,35.2087 54.4556,35.7622 54.4556,36.4497 L54.4556,42.903 C54.4556,43.5906 53.9021,44.1439 53.2146,44.1439 L46.7613,44.1439 C46.0738,44.1439 45.5202,43.5906 45.5202,42.903 L45.5202,36.4497 C45.5202,35.7622 46.0738,35.2087 46.7613,35.2087 "/>
</g>

<g fill="#000000" fill-opacity="1" stroke="none" transform="matrix(0.228,0,0,0.228,11.6,4.6)"
font-family="Inter" font-size="11" font-weight="700" font-style="normal" 
>
<path vector-effect="none" fill-rule="evenodd" d="M14.2421,17.9523 C14.2421,17.1298 14.9088,16.4631 15.7313,16.4631 L18.7097,16.4631 C19.5322,16.4631 20.1989,17.1298 20.1989,17.9523 L20.1989,33.8372 C20.1989,34.6597 19.5322,35.3264 18.7097,35.3264 L15.7313,35.3264 C14.9088,35.3264 14.2421,34.6597 14.2421,33.8372 L14.2421,17.9523"/>
</g>

<g fill="none" stroke="#000000" stroke-opacity="1" stroke-width="2.43854" stroke-linecap="butt" stroke-linejoin="miter" stroke-miterlimit="4" transform="matrix(0.228,0,0,0.228,11.6,4.6)"
font-family="Inter" font-size="11" font-weight="700" font-style="normal" 
>
<path vector-effect="none" fill-rule="evenodd" d="M14.2421,17.9523 C14.2421,17.1298 14.9088,16.4631 15.7313,16.4631 L18.7097,16.4631 C19.5322,16.4631 20.1989,17.1298 20.1989,17.9523 L20.1989,33.8372 C20.1989,34.6597 19.5322,35.3264 18.7097,35.3264 L15.7313,35.3264 C14.9088,35.3264 14.2421,34.6597 14.2421,33.8372 L14.2421,17.9523"/>
</g>

<g fill="#000000" fill-opacity="1" stroke="none" transform="matrix(0.228,0,0,0.228,11.6,4.6)"
font-family="Inter" font-size="11" font-weight="700" font-style="normal" 
>
<path vector-effect="none" fill-rule="evenodd" d="M79.3249,17.4662 C79.3249,16.6438 79.9916,15.977 80.8141,15.977 L83.7925,15.977 C84.615,15.977 85.2817,16.6438 85.2817,17.4662 L85.2817,33.3512 C85.2817,34.1736 84.615,34.8404 83.7925,34.8404 L80.8141,34.8404 C79.9916,34.8404 79.3249,34.1736 79.3249,33.3512 L79.3249,17.4662"/>
</g>

<g fill="none" stroke="#000000" stroke-opacity="1" stroke-width="2.43854" stroke-linecap="butt" stroke-linejoin="miter" stroke-miterlimit="4" transform="matrix(0.228,0,0,0.228,11.6,4.6)"
font-family="Inter" font-size="11" font-weight="700" font-style="normal" 
>
<path vector-effect="none" fill-rule="evenodd" d="M79.3249,17.4662 C79.3249,16.6438 79.9916,15.977 80.8141,15.977 L83.7925,15.977 C84.615,15.977 85.2817,16.6438 85.2817,17.4662 L85.2817,33.3512 C85.2817,34.1736 84.615,34.8404 83.7925,34.8404 L80.8141,34.8404 C79.9916,34.8404 79.3249,34.1736 79.3249,33.3512 L79.3249,17.4662"/>
</g>

<g fill="#000000" fill-opacity="1" stroke="none" transform="matrix(0.228,0,0,0.228,11.6,4.6)"
font-family="Inter" font-size="11" font-weight="700" font-style="normal" 
>
<path vector-effect="none" fill-rule="evenodd" d="M79.5633,66.576 C79.5633,65.7535 80.23,65.0868 81.0525,65.0868 L84.0309,65.0868 C84.8534,65.0868 85.5201,65.7535 85.5201,66.576 L85.5201,82.4609 C85.5201,83.2834 84.8534,83.9501 84.0309,83.9501 L81.0525,83.9501 C80.23,83.9501 79.5633,83.2834 79.5633,82.4609 L79.5633,66.576"/>
</g>

<g fill="none" stroke="#000000" stroke-opacity="1" stroke-width="2.43854" stroke-linecap="butt" stroke-linejoin="miter" stroke-miterlimit="4" transform="matrix(0.228,0,0,0.228,11.6,4.6)"
font-family="Inter" font-size="11" font-weight="700" font-style="normal" 
>
<path vector-effect="none" fill-rule="evenodd" d="M79.5633,66.576 C79.5633,65.7535 80.23,65.0868 81.0525,65.0868 L84.0309,65.0868 C84.8534,65.0868 85.5201,65.7535 85.5201,66.576 L85.5201,82.4609 C85.5201,83.2834 84.8534,83.9501 84.0309,83.9501 L81.0525,83.9501 C80.23,83.9501 79.5633,83.2834 79.5633,82.4609 L79.5633,66.576"/>
</g>

<g fill="#000000" fill-opacity="1" stroke="none" transform="matrix(0.228,0,0,0.228,11.6,4.6)"
font-family="Inter" font-size="11" font-weight="700" font-style="normal" 
>
<path vector-effect="none" fill-rule="evenodd" d="M14.6928,66.6283 C14.6928,65.8058 15.3595,65.1391 16.182,65.1391 L19.1604,65.1391 C19.9829,65.1391 20.6496,65.8058 20.6496,66.6283 L20.6496,82.5132 C20.6496,83.3357 19.9829,84.0024 19.1604,84.0024 L16.182,84.0024 C15.3595,84.0024 14.6928,83.3357 14.6928,82.5132 L14.6928,66.6283"/>
</g>

<g fill="none" stroke="#000000" stroke-opacity="1" stroke-width="2.43854" stroke-linecap="butt" stroke-linejoin="miter" stroke-miterlimit="4" transform="matrix(0.228,0,0,0.228,11.6,4.6)"
font-family="Inter" font-size="11" font-weight="700" font-style="normal" 
>
<path vector-effect="none" fill-rule="evenodd" d="M14.6928,66.6283 C14.6928,65.8058 15.3595,65.1391 16.182,65.1391 L19.1604,65.1391 C19.9829,65.1391 20.6496,65.8058 20.6496,66.6283 L20.6496,82.5132 C20.6496,83.3357 19.9829,84.0024 19.1604,84.0024 L16.182,84.0024 C15.3595,84.0024 14.6928,83.3357 14.6928,82.5132 L14.6928,66.6283"/>
</g>

<g fill="none" stroke="#000000" stroke-opacity="1" stroke-width="2.43854" stroke-linecap="butt" stroke-linejoin="miter" stroke-miterlimit="4" transform="matrix(0.228,0,0,0.228,11.6,4.6)"
font-family="Inter" font-size="11" font-weight="700" font-style="normal" 
>
<path vector-effect="none" fill-rule="evenodd" d="M20.92,17.503 C20.92,16.6806 21.5867,16.0138 22.4092,16.0138 L27.125,16.0138 C27.9475,16.0138 28.6142,16.6806 28.6142,17.503 L28.6142,55.9743 C28.6142,56.7968 27.9475,57.4635 27.125,57.4635 L22.4092,57.4635 C21.5867,57.4635 20.92,56.7968 20.92,55.9743 L20.92,17.503"/>
</g>

<g fill="none" stroke="#000000" stroke-opacity="1" stroke-width="2.43854" stroke-linecap="butt" stroke-linejoin="miter" stroke-miterlimit="4" transform="matrix(0.228,0,0,0.228,11.6,4.6)"
font-family="Inter" font-size="11" font-weight="700" font-style="normal" 
>
<path vector-effect="none" fill-rule="evenodd" d="M71.4269,17.6638 C71.4269,16.8414 72.0937,16.1746 72.9162,16.1746 L77.632,16.1746 C78.4545,16.1746 79.1212,16.8414 79.1212,17.6638 L79.1212,56.1351 C79.1212,56.9576 78.4545,57.6243 77.632,57.6243 L72.9162,57.6243 C72.0937,57.6243 71.4269,56.9576 71.4269,56.1351 L71.4269,17.6638"/>
</g>

<g fill="#ffffff" fill-opacity="1" stroke="none" transform="matrix(0.228,0,0,0.228,11.6,4.6)"
font-family="Inter" font-size="11" font-weight="700" font-style="normal" 
>
<path vector-effect="none" fill-rule="evenodd" d="M41.9526,15.9757 C41.9526,15.9593 41.9659,15.9461 41.9822,15.9461 L57.922,15.9461 C57.9384,15.9461 57.9516,15.9593 57.9516,15.9757 C57.9516,15.992 57.9384,16.0053 57.922,16.0053 L41.9822,16.0053 C41.9659,16.0053 41.9526,15.992 41.9526,15.9757 "/>
</g>

<g fill="none" stroke="#000000" stroke-opacity="1" stroke-width="2.3865" stroke-linecap="butt" stroke-linejoin="miter" stroke-miterlimit="4" transform="matrix(0.228,0,0,0.228,11.6,4.6)"
font-family="Inter" font-size="11" font-weight="700" font-style="normal" 
>
<path vector-effect="none" fill-rule="evenodd" d="M41.9526,15.9757 C41.9526,15.9593 41.9659,15.9461 41.9822,15.9461 L57.922,15.9461 C57.9384,15.9461 57.9516,15.9593 57.9516,15.9757 C57.9516,15.992 57.9384,16.0053 57.922,16.0053 L41.9822,16.0053 C41.9659,16.0053 41.9526,15.992 41.9526,15.9757 "/>
</g>

<g fill="#ffffff" fill-opacity="1" stroke="none" transform="matrix(1,0,0,1,0,0)"
font-family="Inter" font-size="11" font-weight="700" font-style="normal" 
>
</g>

<g fill="#ffffff" fill-opacity="1" stroke="#0da6c5" stroke-opacity="1" stroke-width="1" stroke-linecap="square" stroke-linejoin="bevel" transform="matrix(1,0,0,1,0,0)"
font-family="Inter" font-size="11" font-weight="700" font-style="normal" 
>
<polyline fill="none" vector-effect="none" points="45,6 45,26 " />
</g>

<g fill="#1dccf0" fill-opacity="1" stroke="#0da6c5" stroke-opacity="1" stroke-width="1.2" stroke-linecap="square" stroke-linejoin="bevel" transform="matrix(1,0,0,1,141,4)"
font-family="Inter" font-size="11" font-weight="700" font-style="normal" 
>
<path vector-effect="none" fill-rule="evenodd" d="M0.5,3.5 C0.5,1.84315 1.84315,0.5 3.5,0.5 L36.5,0.5 C38.1569,0.5 39.5,1.84315 39.5,3.5 L39.5,20.5 C39.5,22.1569 38.1569,23.5 36.5,23.5 L3.5,23.5 C1.84315,23.5 0.5,22.1569 0.5,20.5 L0.5,3.5"/>
</g>

<g fill="#ffffff" fill-opacity="1" stroke="none" transform="matrix(1,0,0,1,141,4)"
font-family="Inter" font-size="11" font-weight="700" font-style="normal" 
>
<path vector-effect="none" fill-rule="nonzero" d="M12.7891,9 L13.8906,11.0977 L15.0195,9 L16.7266,9 L14.9883,12 L16.7734,15 L15.0742,15 L13.8906,12.9258 L12.7266,15 L11.0078,15 L12.7891,12 L11.0703,9 L12.7891,9"/>
</g>

<g fill="#ffffff" fill-opacity="1" stroke="none" transform="matrix(0.03125,0,0,0.03125,167,12)"
font-family="Inter" font-size="11" font-weight="700" font-style="normal" 
>
<path vector-effect="none" fill-rule="nonzero" d="M111.326,191.938 C120.545,201.158 135.517,201.158 144.737,191.938 L239.144,97.5313 C245.929,90.7458 247.921,80.6413 244.233,71.7907 C240.545,62.9401 231.989,57.1871 222.401,57.1871 L33.5875,57.2608 C24.0731,57.2608 15.4437,63.0137 11.7559,71.8644 C8.06815,80.715 10.1333,90.8195 16.845,97.605 L111.252,192.012 L111.326,191.938"/>
</g>

<g fill="none" stroke="#000000" stroke-opacity="1" stroke-width="13.7195" stroke-linecap="butt" stroke-linejoin="miter" stroke-miterlimit="4" transform="matrix(0.03125,0,0,0.03125,167,12)"
font-family="Inter" font-size="11" font-weight="700" font-style="normal" 
>
<path vector-effect="none" fill-rule="nonzero" d="M111.326,191.938 C120.545,201.158 135.517,201.158 144.737,191.938 L239.144,97.5313 C245.929,90.7458 247.921,80.6413 244.233,71.7907 C240.545,62.9401 231.989,57.1871 222.401,57.1871 L33.5875,57.2608 C24.0731,57.2608 15.4437,63.0137 11.7559,71.8644 C8.06815,80.715 10.1333,90.8195 16.845,97.605 L111.252,192.012 L111.326,191.938"/>
</g>

<g fill="#ffffff" fill-opacity="1" stroke="none" transform="matrix(1,0,0,1,141,4)"
font-family="Inter" font-size="11" font-weight="700" font-style="normal" 
>
</g>

<g fill="#ffffff" fill-opacity="1" stroke="#0da6c5" stroke-opacity="1" stroke-width="1" stroke-linecap="square" stroke-linejoin="bevel" transform="matrix(1,0,0,1,0,0)"
font-family="Inter" font-size="11" font-weight="700" font-style="normal" 
>
</g>

<g fill="#ffffff" fill-opacity="1" stroke="#0da6c5" stroke-opacity="1" stroke-width="1" stroke-linecap="square" stroke-linejoin="bevel" transform="matrix(1,0,0,1,0,0)"
font-family="Inter" font-size="11" font-weight="700" font-style="normal" 
>
</g>

<g fill="#1dccf0" fill-opacity="1" stroke="#0da6c5" stroke-opacity="1" stroke-width="1.2" stroke-linecap="square" stroke-linejoin="bevel" transform="matrix(1,0,0,1,56,4)"
font-family="Inter" font-size="11" font-weight="700" font-style="normal" 
>
<path vector-effect="none" fill-rule="evenodd" d="M0.5,3.5 C0.5,1.84315 1.84315,0.5 3.5,0.5 L71.5,0.5 C73.1569,0.5 74.5,1.84315 74.5,3.5 L74.5,20.5 C74.5,22.1569 73.1569,23.5 71.5,23.5 L3.5,23.5 C1.84315,23.5 0.5,22.1569 0.5,20.5 L0.5,3.5"/>
</g>

<g fill="#ffffff" fill-opacity="1" stroke="none" transform="matrix(1,0,0,1,56,4)"
font-family="Inter" font-size="11" font-weight="700" font-style="normal" 
>
<path vector-effect="none" fill-rule="nonzero" d="M10,9.39453 L10,8 L16.5703,8 L16.5703,9.39453 L14.1211,9.39453 L14.1211,16 L12.4492,16 L12.4492,9.39453 L10,9.39453 M17.6484,16 L17.6484,8 L19.3398,8 L19.3398,11.3008 L22.7734,11.3008 L22.7734,8 L24.4609,8 L24.4609,16 L22.7734,16 L22.7734,12.6953 L19.3398,12.6953 L19.3398,16 L17.6484,16 M32.543,8 L32.543,16 L31.082,16 L27.6016,10.9648 L27.543,10.9648 L27.543,16 L25.8516,16 L25.8516,8 L27.3359,8 L30.7891,13.0313 L30.8594,13.0313 L30.8594,8 L32.543,8 M33.9297,16 L33.9297,8 L35.6211,8 L35.6211,11.3008 L39.0547,11.3008 L39.0547,8 L40.7422,8 L40.7422,16 L39.0547,16 L39.0547,12.6953 L35.6211,12.6953 L35.6211,16 L33.9297,16 M42.1328,16 L42.1328,8 L45.3359,8 C45.9245,8 46.4154,8.08724 46.8086,8.26172 C47.2018,8.4362 47.4974,8.67773 47.6953,8.98633 C47.8932,9.29492 47.9922,9.64974 47.9922,10.0508 C47.9922,10.3633 47.9297,10.6374 47.8047,10.873 C47.6797,11.1087 47.5085,11.3014 47.291,11.4512 C47.0736,11.6009 46.8255,11.707 46.5469,11.7695 L46.5469,11.8477 C46.8516,11.8607 47.1374,11.9466 47.4043,12.1055 C47.6712,12.2643 47.888,12.4863 48.0547,12.7715 C48.2214,13.0566 48.3047,13.3958 48.3047,13.7891 C48.3047,14.2135 48.1999,14.5918 47.9902,14.9238 C47.7806,15.2559 47.4714,15.5182 47.0625,15.7109 C46.6536,15.9036 46.1497,16 45.5508,16 L42.1328,16 M43.8242,14.6172 L45.2031,14.6172 C45.6745,14.6172 46.0182,14.5267 46.2344,14.3457 C46.4505,14.1647 46.5586,13.9232 46.5586,13.6211 C46.5586,13.3997 46.5052,13.2044 46.3984,13.0352 C46.2917,12.8659 46.14,12.7331 45.9434,12.6367 C45.7467,12.5404 45.513,12.4922 45.2422,12.4922 L43.8242,12.4922 L43.8242,14.6172 M43.8242,11.3477 L45.0781,11.3477 C45.3099,11.3477 45.5163,11.3066 45.6973,11.2246 C45.8783,11.1426 46.0215,11.026 46.127,10.875 C46.2324,10.724 46.2852,10.543 46.2852,10.332 C46.2852,10.043 46.1829,9.8099 45.9785,9.63281 C45.7741,9.45573 45.4844,9.36719 45.1094,9.36719 L43.8242,9.36719 L43.8242,11.3477 M52.832,8 L52.832,16 L51.1406,16 L51.1406,9.60547 L51.0938,9.60547 L49.2617,10.7539 L49.2617,9.25391 L51.2422,8 L52.832,8"/>
</g>

<g fill="#ffffff" fill-opacity="1" stroke="none" transform="matrix(0.03125,0,0,0.03125,117,12)"
font-family="Inter" font-size="11" font-weight="700" font-style="normal" 
>
<path vector-effect="none" fill-rule="nonzero" d="M111.326,191.938 C120.545,201.158 135.517,201.158 144.737,191.938 L239.144,97.5313 C245.929,90.7458 247.921,80.6413 244.233,71.7907 C240.545,62.9401 231.989,57.1871 222.401,57.1871 L33.5875,57.2608 C24.0731,57.2608 15.4437,63.0137 11.7559,71.8644 C8.06815,80.715 10.1333,90.8195 16.845,97.605 L111.252,192.012 L111.326,191.938"/>
</g>

<g fill="none" stroke="#000000" stroke-opacity="1" stroke-width="13.7195" stroke-linecap="butt" stroke-linejoin="miter" stroke-miterlimit="4" transform="matrix(0.03125,0,0,0.03125,117,12)"
font-family="Inter" font-size="11" font-weight="700" font-style="normal" 
>
<path vector-effect="none" fill-rule="nonzero" d="M111.326,191.938 C120.545,201.158 135.517,201.158 144.737,191.938 L239.144,97.5313 C245.929,90.7458 247.921,80.6413 244.233,71.7907 C240.545,62.9401 231.989,57.1871 222.401,57.1871 L33.5875,57.2608 C24.0731,57.2608 15.4437,63.0137 11.7559,71.8644 C8.06815,80.715 10.1333,90.8195 16.845,97.605 L111.252,192.012 L111.326,191.938"/>
</g>

<g fill="#ffffff" fill-opacity="1" stroke="none" transform="matrix(1,0,0,1,56,4)"
font-family="Inter" font-size="11" font-weight="700" font-style="normal" 
>
</g>

<g fill="#ffffff" fill-opacity="1" stroke="#0da6c5" stroke-opacity="1" stroke-width="1" stroke-linecap="square" stroke-linejoin="bevel" transform="matrix(1,0,0,1,0,0)"
font-family="Inter" font-size="11" font-weight="700" font-style="normal" 
>
</g>

<g fill="none" stroke="#000000" stroke-opacity="1" stroke-width="1" stroke-linecap="square" stroke-linejoin="bevel" transform="matrix(1,0,0,1,0,0)"
font-family=".AppleSystemUIFont" font-size="13" font-weight="400" font-style="normal" 
>
</g>
</g>
</svg>
