<?xml version="1.0" encoding="UTF-8" standalone="no"?>
<svg width="120.65mm" height="15.5222mm"
 viewBox="0 0 342 44"
 xmlns="http://www.w3.org/2000/svg" xmlns:xlink="http://www.w3.org/1999/xlink" version="1.2" baseProfile="tiny">
<title>Abstract block</title>
<desc>block_hubs_buwizz3_motors_port_go_to_relative_position</desc>
<defs>
</defs>
<g fill="none" stroke="black" stroke-width="1" fill-rule="evenodd" stroke-linecap="square" stroke-linejoin="bevel" >

<g fill="none" stroke="#000000" stroke-opacity="1" stroke-width="1" stroke-linecap="square" stroke-linejoin="bevel" transform="matrix(1,0,0,1,0,0)"
font-family=".AppleSystemUIFont" font-size="13" font-weight="400" font-style="normal" 
>
</g>

<g fill="none" stroke="#000000" stroke-opacity="1" stroke-width="1" stroke-linecap="square" stroke-linejoin="bevel" transform="matrix(1,0,0,1,0,0)"
font-family=".AppleSystemUIFont" font-size="13" font-weight="400" font-style="normal" 
>
</g>

<g fill="#0090f5" fill-opacity="1" stroke="#0070ba" stroke-opacity="1" stroke-width="1.2" stroke-linecap="square" stroke-linejoin="bevel" transform="matrix(1,0,0,1,0,0)"
font-family=".AppleSystemUIFont" font-size="13" font-weight="400" font-style="normal" 
>
<path vector-effect="none" fill-rule="evenodd" d="M0.5,4.5 L1.04612,2.48112 L2.48112,1.04612 L4.5,0.5 L9.625,0.5 L10.416,0.976563 L11.1719,1.6875 L11.998,2.67969 L13,4 L13.7559,4.66016 L14.5469,5.15625 L15.4082,5.51172 L16.375,5.75 L17.4824,5.89453 L18.7656,5.96875 L20.2598,5.99609 L22,6 L23.7402,5.99609 L25.2344,5.96875 L26.5176,5.89453 L27.625,5.75 L28.5918,5.51172 L29.4531,5.15625 L30.2441,4.66016 L31,4 L32.002,2.67969 L32.8281,1.6875 L33.584,0.976563 L34.375,0.5 L336.9,0.5 L338.919,1.04612 L340.354,2.48112 L340.9,4.5 L340.9,31.5 L340.354,33.5189 L338.919,34.9539 L336.9,35.5 L34.375,35.5 L33.584,35.9766 L32.8281,36.6875 L32.002,37.6797 L31,39 L30.2441,39.6602 L29.4531,40.1563 L28.5918,40.5117 L27.625,40.75 L26.5176,40.8945 L25.2344,40.9688 L23.7402,40.9961 L22,41 L20.2598,40.9961 L18.7656,40.9688 L17.4824,40.8945 L16.375,40.75 L15.4082,40.5117 L14.5469,40.1563 L13.7559,39.6602 L13,39 L11.998,37.6797 L11.1719,36.6875 L10.416,35.9766 L9.625,35.5 L4.5,35.5 L2.48112,34.9539 L1.04612,33.5189 L0.5,31.5 L0.5,4.5"/>
</g>

<g fill="#ffffff" fill-opacity="1" stroke="none" transform="matrix(1,0,0,1,0,0)"
font-family="Inter" font-size="11" font-weight="700" font-style="normal" 
>
<path vector-effect="none" fill-rule="nonzero" d="M189.883,23.375 C189.344,23.375 188.882,23.3014 188.498,23.1543 C188.114,23.0072 187.809,22.8073 187.582,22.5547 C187.355,22.3021 187.208,22.0182 187.141,21.7031 L188.68,21.4961 C188.727,21.6159 188.801,21.7279 188.902,21.832 C189.004,21.9362 189.139,22.0202 189.307,22.084 C189.475,22.1478 189.68,22.1797 189.922,22.1797 C190.284,22.1797 190.583,22.0918 190.818,21.916 C191.054,21.7402 191.172,21.4466 191.172,21.0352 L191.172,19.9375 L191.102,19.9375 C191.029,20.1042 190.919,20.2617 190.773,20.4102 C190.628,20.5586 190.44,20.6797 190.211,20.7734 C189.982,20.8672 189.708,20.9141 189.391,20.9141 C188.94,20.9141 188.531,20.8092 188.162,20.5996 C187.794,20.39 187.501,20.0684 187.283,19.6348 C187.066,19.2012 186.957,18.6523 186.957,17.9883 C186.957,17.3086 187.068,16.7409 187.289,16.2852 C187.51,15.8294 187.805,15.4883 188.174,15.2617 C188.542,15.0352 188.947,14.9219 189.387,14.9219 C189.723,14.9219 190.004,14.9785 190.23,15.0918 C190.457,15.2051 190.64,15.3457 190.779,15.5137 C190.919,15.6816 191.026,15.8464 191.102,16.0078 L191.164,16.0078 L191.164,15 L192.816,15 L192.816,21.0586 C192.816,21.569 192.691,21.9961 192.441,22.3398 C192.191,22.6836 191.846,22.9421 191.404,23.1152 C190.963,23.2884 190.456,23.375 189.883,23.375 M189.918,19.6641 C190.186,19.6641 190.413,19.597 190.6,19.4629 C190.786,19.3288 190.929,19.1361 191.029,18.8848 C191.13,18.6335 191.18,18.332 191.18,17.9805 C191.18,17.6289 191.13,17.3236 191.031,17.0645 C190.932,16.8053 190.789,16.6042 190.602,16.4609 C190.414,16.3177 190.186,16.2461 189.918,16.2461 C189.645,16.2461 189.414,16.3197 189.227,16.4668 C189.039,16.6139 188.897,16.8177 188.801,17.0781 C188.704,17.3385 188.656,17.6393 188.656,17.9805 C188.656,18.3268 188.705,18.6257 188.803,18.877 C188.9,19.1283 189.042,19.3223 189.229,19.459 C189.415,19.5957 189.645,19.6641 189.918,19.6641 M196.844,21.1172 C196.237,21.1172 195.713,20.9876 195.271,20.7285 C194.83,20.4694 194.49,20.1074 194.25,19.6426 C194.01,19.1777 193.891,18.638 193.891,18.0234 C193.891,17.4036 194.01,16.8613 194.25,16.3965 C194.49,15.9316 194.83,15.5697 195.271,15.3105 C195.713,15.0514 196.237,14.9219 196.844,14.9219 C197.451,14.9219 197.975,15.0514 198.416,15.3105 C198.857,15.5697 199.198,15.9316 199.438,16.3965 C199.677,16.8613 199.797,17.4036 199.797,18.0234 C199.797,18.638 199.677,19.1777 199.438,19.6426 C199.198,20.1074 198.857,20.4694 198.416,20.7285 C197.975,20.9876 197.451,21.1172 196.844,21.1172 M196.852,19.8281 C197.128,19.8281 197.358,19.7493 197.543,19.5918 C197.728,19.4342 197.868,19.2188 197.963,18.9453 C198.058,18.6719 198.105,18.3607 198.105,18.0117 C198.105,17.6628 198.058,17.3516 197.963,17.0781 C197.868,16.8047 197.728,16.5885 197.543,16.4297 C197.358,16.2708 197.128,16.1914 196.852,16.1914 C196.573,16.1914 196.339,16.2708 196.15,16.4297 C195.962,16.5885 195.82,16.8047 195.725,17.0781 C195.63,17.3516 195.582,17.6628 195.582,18.0117 C195.582,18.3607 195.63,18.6719 195.725,18.9453 C195.82,19.2188 195.962,19.4342 196.15,19.5918 C196.339,19.7493 196.573,19.8281 196.852,19.8281 M206.621,15 L206.621,16.25 L203.008,16.25 L203.008,15 L206.621,15 M203.828,13.5625 L205.492,13.5625 L205.492,19.1563 C205.492,19.3099 205.516,19.429 205.563,19.5137 C205.609,19.5983 205.675,19.6576 205.76,19.6914 C205.844,19.7253 205.943,19.7422 206.055,19.7422 C206.133,19.7422 206.211,19.735 206.289,19.7207 C206.367,19.7064 206.427,19.6953 206.469,19.6875 L206.73,20.9258 C206.647,20.9518 206.53,20.9824 206.379,21.0176 C206.228,21.0527 206.044,21.0742 205.828,21.082 C205.427,21.0977 205.076,21.0443 204.775,20.9219 C204.475,20.7995 204.241,20.6094 204.074,20.3516 C203.908,20.0938 203.826,19.7682 203.828,19.375 L203.828,13.5625 M210.344,21.1172 C209.737,21.1172 209.213,20.9876 208.771,20.7285 C208.33,20.4694 207.99,20.1074 207.75,19.6426 C207.51,19.1777 207.391,18.638 207.391,18.0234 C207.391,17.4036 207.51,16.8613 207.75,16.3965 C207.99,15.9316 208.33,15.5697 208.771,15.3105 C209.213,15.0514 209.737,14.9219 210.344,14.9219 C210.951,14.9219 211.475,15.0514 211.916,15.3105 C212.357,15.5697 212.698,15.9316 212.938,16.3965 C213.177,16.8613 213.297,17.4036 213.297,18.0234 C213.297,18.638 213.177,19.1777 212.938,19.6426 C212.698,20.1074 212.357,20.4694 211.916,20.7285 C211.475,20.9876 210.951,21.1172 210.344,21.1172 M210.352,19.8281 C210.628,19.8281 210.858,19.7493 211.043,19.5918 C211.228,19.4342 211.368,19.2188 211.463,18.9453 C211.558,18.6719 211.605,18.3607 211.605,18.0117 C211.605,17.6628 211.558,17.3516 211.463,17.0781 C211.368,16.8047 211.228,16.5885 211.043,16.4297 C210.858,16.2708 210.628,16.1914 210.352,16.1914 C210.073,16.1914 209.839,16.2708 209.65,16.4297 C209.462,16.5885 209.32,16.8047 209.225,17.0781 C209.13,17.3516 209.082,17.6628 209.082,18.0117 C209.082,18.3607 209.13,18.6719 209.225,18.9453 C209.32,19.2188 209.462,19.4342 209.65,19.5918 C209.839,19.7493 210.073,19.8281 210.352,19.8281 M216.93,21 L216.93,15 L218.543,15 L218.543,16.0469 L218.605,16.0469 C218.715,15.6745 218.898,15.3926 219.156,15.2012 C219.414,15.0098 219.711,14.9141 220.047,14.9141 C220.13,14.9141 220.22,14.9193 220.316,14.9297 C220.413,14.9401 220.497,14.9544 220.57,14.9727 L220.57,16.4492 C220.492,16.4258 220.384,16.4049 220.246,16.3867 C220.108,16.3685 219.982,16.3594 219.867,16.3594 C219.622,16.3594 219.404,16.4121 219.213,16.5176 C219.021,16.623 218.87,16.7695 218.76,16.957 C218.649,17.1445 218.594,17.3607 218.594,17.6055 L218.594,21 L216.93,21 M223.867,21.1172 C223.25,21.1172 222.719,20.9915 222.275,20.7402 C221.831,20.4889 221.49,20.1322 221.25,19.6699 C221.01,19.2077 220.891,18.6602 220.891,18.0273 C220.891,17.4102 221.01,16.8685 221.25,16.4023 C221.49,15.9362 221.827,15.5729 222.264,15.3125 C222.7,15.0521 223.212,14.9219 223.801,14.9219 C224.197,14.9219 224.566,14.985 224.908,15.1113 C225.251,15.2376 225.55,15.4271 225.807,15.6797 C226.063,15.9323 226.263,16.2493 226.406,16.6309 C226.549,17.0124 226.621,17.4583 226.621,17.9688 L226.621,18.4258 L221.555,18.4258 L221.555,17.3945 L225.055,17.3945 C225.055,17.1549 225.003,16.9427 224.898,16.7578 C224.794,16.5729 224.65,16.4277 224.467,16.3223 C224.283,16.2168 224.07,16.1641 223.828,16.1641 C223.576,16.1641 223.352,16.222 223.158,16.3379 C222.964,16.4538 222.813,16.6087 222.703,16.8027 C222.594,16.9967 222.538,17.2122 222.535,17.4492 L222.535,18.4297 C222.535,18.7266 222.59,18.9831 222.701,19.1992 C222.812,19.4154 222.969,19.582 223.172,19.6992 C223.375,19.8164 223.616,19.875 223.895,19.875 C224.079,19.875 224.249,19.849 224.402,19.7969 C224.556,19.7448 224.688,19.6667 224.797,19.5625 C224.906,19.4583 224.99,19.3307 225.047,19.1797 L226.586,19.2813 C226.508,19.651 226.348,19.9733 226.107,20.248 C225.867,20.5228 225.557,20.7363 225.178,20.8887 C224.799,21.041 224.362,21.1172 223.867,21.1172 M229.359,13 L229.359,21 L227.695,21 L227.695,13 L229.359,13 M232.391,21.1133 C232.008,21.1133 231.667,21.0462 231.367,20.9121 C231.068,20.778 230.831,20.5788 230.658,20.3145 C230.485,20.0501 230.398,19.7201 230.398,19.3242 C230.398,18.9909 230.46,18.7109 230.582,18.4844 C230.704,18.2578 230.871,18.0755 231.082,17.9375 C231.293,17.7995 231.533,17.6953 231.803,17.625 C232.072,17.5547 232.355,17.5052 232.652,17.4766 C233.001,17.4401 233.283,17.4056 233.496,17.373 C233.71,17.3405 233.865,17.2917 233.961,17.2266 C234.057,17.1615 234.105,17.0651 234.105,16.9375 L234.105,16.9141 C234.105,16.6667 234.028,16.4753 233.873,16.3398 C233.718,16.2044 233.499,16.1367 233.215,16.1367 C232.915,16.1367 232.677,16.2025 232.5,16.334 C232.323,16.4655 232.206,16.6302 232.148,16.8281 L230.609,16.7031 C230.688,16.3385 230.841,16.0228 231.07,15.7559 C231.299,15.4889 231.596,15.2832 231.959,15.1387 C232.322,14.9941 232.743,14.9219 233.223,14.9219 C233.556,14.9219 233.876,14.9609 234.182,15.0391 C234.488,15.1172 234.76,15.2383 234.998,15.4023 C235.236,15.5664 235.424,15.7767 235.563,16.0332 C235.701,16.2897 235.77,16.5964 235.77,16.9531 L235.77,21 L234.191,21 L234.191,20.168 L234.145,20.168 C234.048,20.3555 233.919,20.5202 233.758,20.6621 C233.596,20.804 233.402,20.9147 233.176,20.9941 C232.949,21.0736 232.688,21.1133 232.391,21.1133 M232.867,19.9648 C233.112,19.9648 233.328,19.916 233.516,19.8184 C233.703,19.7207 233.85,19.5885 233.957,19.4219 C234.064,19.2552 234.117,19.0664 234.117,18.8555 L234.117,18.2188 C234.065,18.2526 233.994,18.2832 233.904,18.3105 C233.814,18.3379 233.714,18.3626 233.602,18.3848 C233.49,18.4069 233.378,18.4264 233.266,18.4434 C233.154,18.4603 233.052,18.4753 232.961,18.4883 C232.766,18.5169 232.595,18.5625 232.449,18.625 C232.303,18.6875 232.19,18.7715 232.109,18.877 C232.029,18.9824 231.988,19.1133 231.988,19.2695 C231.988,19.4961 232.071,19.6686 232.236,19.7871 C232.402,19.9056 232.612,19.9648 232.867,19.9648 M240.246,15 L240.246,16.25 L236.633,16.25 L236.633,15 L240.246,15 M237.453,13.5625 L239.117,13.5625 L239.117,19.1563 C239.117,19.3099 239.141,19.429 239.188,19.5137 C239.234,19.5983 239.3,19.6576 239.385,19.6914 C239.469,19.7253 239.568,19.7422 239.68,19.7422 C239.758,19.7422 239.836,19.735 239.914,19.7207 C239.992,19.7064 240.052,19.6953 240.094,19.6875 L240.355,20.9258 C240.272,20.9518 240.155,20.9824 240.004,21.0176 C239.853,21.0527 239.669,21.0742 239.453,21.082 C239.052,21.0977 238.701,21.0443 238.4,20.9219 C238.1,20.7995 237.866,20.6094 237.699,20.3516 C237.533,20.0938 237.451,19.7682 237.453,19.375 L237.453,13.5625 M241.32,21 L241.32,15 L242.984,15 L242.984,21 L241.32,21 M242.156,14.2266 C241.909,14.2266 241.697,14.1439 241.521,13.9785 C241.346,13.8132 241.258,13.6146 241.258,13.3828 C241.258,13.1536 241.346,12.9564 241.521,12.791 C241.697,12.6257 241.909,12.543 242.156,12.543 C242.404,12.543 242.615,12.6257 242.791,12.791 C242.967,12.9564 243.055,13.1536 243.055,13.3828 C243.055,13.6146 242.967,13.8132 242.791,13.9785 C242.615,14.1439 242.404,14.2266 242.156,14.2266 M249.898,15 L247.801,21 L245.926,21 L243.828,15 L245.586,15 L246.832,19.293 L246.895,19.293 L248.137,15 L249.898,15 M253.273,21.1172 C252.656,21.1172 252.126,20.9915 251.682,20.7402 C251.238,20.4889 250.896,20.1322 250.656,19.6699 C250.417,19.2077 250.297,18.6602 250.297,18.0273 C250.297,17.4102 250.417,16.8685 250.656,16.4023 C250.896,15.9362 251.234,15.5729 251.67,15.3125 C252.106,15.0521 252.618,14.9219 253.207,14.9219 C253.603,14.9219 253.972,14.985 254.314,15.1113 C254.657,15.2376 254.956,15.4271 255.213,15.6797 C255.469,15.9323 255.669,16.2493 255.813,16.6309 C255.956,17.0124 256.027,17.4583 256.027,17.9688 L256.027,18.4258 L250.961,18.4258 L250.961,17.3945 L254.461,17.3945 C254.461,17.1549 254.409,16.9427 254.305,16.7578 C254.201,16.5729 254.057,16.4277 253.873,16.3223 C253.689,16.2168 253.477,16.1641 253.234,16.1641 C252.982,16.1641 252.758,16.222 252.564,16.3379 C252.37,16.4538 252.219,16.6087 252.109,16.8027 C252,16.9967 251.944,17.2122 251.941,17.4492 L251.941,18.4297 C251.941,18.7266 251.997,18.9831 252.107,19.1992 C252.218,19.4154 252.375,19.582 252.578,19.6992 C252.781,19.8164 253.022,19.875 253.301,19.875 C253.486,19.875 253.655,19.849 253.809,19.7969 C253.962,19.7448 254.094,19.6667 254.203,19.5625 C254.313,19.4583 254.396,19.3307 254.453,19.1797 L255.992,19.2813 C255.914,19.651 255.755,19.9733 255.514,20.248 C255.273,20.5228 254.963,20.7363 254.584,20.8887 C254.205,21.041 253.768,21.1172 253.273,21.1172 M259.648,23.25 L259.648,15 L261.289,15 L261.289,16.0078 L261.363,16.0078 C261.436,15.8464 261.542,15.6816 261.682,15.5137 C261.821,15.3457 262.003,15.2051 262.229,15.0918 C262.454,14.9785 262.734,14.9219 263.07,14.9219 C263.508,14.9219 263.911,15.0358 264.281,15.2637 C264.651,15.4915 264.947,15.834 265.168,16.291 C265.389,16.748 265.5,17.3203 265.5,18.0078 C265.5,18.6771 265.393,19.2415 265.178,19.7012 C264.963,20.1608 264.671,20.5085 264.303,20.7441 C263.934,20.9798 263.522,21.0977 263.066,21.0977 C262.743,21.0977 262.469,21.0443 262.244,20.9375 C262.019,20.8307 261.835,20.696 261.691,20.5332 C261.548,20.3704 261.439,20.2057 261.363,20.0391 L261.313,20.0391 L261.313,23.25 L259.648,23.25 M261.277,18 C261.277,18.3568 261.327,18.668 261.426,18.9336 C261.525,19.1992 261.668,19.4056 261.855,19.5527 C262.043,19.6999 262.271,19.7734 262.539,19.7734 C262.81,19.7734 263.039,19.6986 263.227,19.5488 C263.414,19.3991 263.557,19.1908 263.654,18.9238 C263.752,18.6569 263.801,18.349 263.801,18 C263.801,17.6536 263.753,17.349 263.656,17.0859 C263.56,16.8229 263.418,16.6172 263.23,16.4688 C263.043,16.3203 262.813,16.2461 262.539,16.2461 C262.268,16.2461 262.04,16.3177 261.854,16.4609 C261.667,16.6042 261.525,16.8073 261.426,17.0703 C261.327,17.3333 261.277,17.6432 261.277,18 M269.313,21.1172 C268.706,21.1172 268.182,20.9876 267.74,20.7285 C267.299,20.4694 266.958,20.1074 266.719,19.6426 C266.479,19.1777 266.359,18.638 266.359,18.0234 C266.359,17.4036 266.479,16.8613 266.719,16.3965 C266.958,15.9316 267.299,15.5697 267.74,15.3105 C268.182,15.0514 268.706,14.9219 269.313,14.9219 C269.919,14.9219 270.443,15.0514 270.885,15.3105 C271.326,15.5697 271.667,15.9316 271.906,16.3965 C272.146,16.8613 272.266,17.4036 272.266,18.0234 C272.266,18.638 272.146,19.1777 271.906,19.6426 C271.667,20.1074 271.326,20.4694 270.885,20.7285 C270.443,20.9876 269.919,21.1172 269.313,21.1172 M269.32,19.8281 C269.596,19.8281 269.827,19.7493 270.012,19.5918 C270.197,19.4342 270.337,19.2188 270.432,18.9453 C270.527,18.6719 270.574,18.3607 270.574,18.0117 C270.574,17.6628 270.527,17.3516 270.432,17.0781 C270.337,16.8047 270.197,16.5885 270.012,16.4297 C269.827,16.2708 269.596,16.1914 269.32,16.1914 C269.042,16.1914 268.808,16.2708 268.619,16.4297 C268.43,16.5885 268.288,16.8047 268.193,17.0781 C268.098,17.3516 268.051,17.6628 268.051,18.0117 C268.051,18.3607 268.098,18.6719 268.193,18.9453 C268.288,19.2188 268.43,19.4342 268.619,19.5918 C268.808,19.7493 269.042,19.8281 269.32,19.8281 M278.344,16.7109 L276.82,16.8047 C276.794,16.6745 276.738,16.5566 276.652,16.4512 C276.566,16.3457 276.454,16.2611 276.314,16.1973 C276.175,16.1335 276.009,16.1016 275.816,16.1016 C275.559,16.1016 275.341,16.1556 275.164,16.2637 C274.987,16.3717 274.898,16.5156 274.898,16.6953 C274.898,16.8385 274.956,16.9596 275.07,17.0586 C275.185,17.1576 275.382,17.237 275.66,17.2969 L276.746,17.5156 C277.329,17.6354 277.764,17.8281 278.051,18.0938 C278.337,18.3594 278.48,18.7083 278.48,19.1406 C278.48,19.5339 278.365,19.8789 278.135,20.1758 C277.904,20.4727 277.589,20.7038 277.189,20.8691 C276.79,21.0345 276.329,21.1172 275.809,21.1172 C275.014,21.1172 274.382,20.9512 273.912,20.6191 C273.442,20.2871 273.167,19.8346 273.086,19.2617 L274.723,19.1758 C274.772,19.418 274.892,19.6022 275.082,19.7285 C275.272,19.8548 275.516,19.918 275.813,19.918 C276.104,19.918 276.339,19.8613 276.518,19.748 C276.696,19.6348 276.786,19.4883 276.789,19.3086 C276.786,19.1576 276.723,19.0332 276.598,18.9355 C276.473,18.8379 276.28,18.763 276.02,18.7109 L274.98,18.5039 C274.395,18.3867 273.959,18.1836 273.674,17.8945 C273.389,17.6055 273.246,17.237 273.246,16.7891 C273.246,16.4036 273.351,16.0716 273.561,15.793 C273.77,15.5143 274.066,15.2995 274.447,15.1484 C274.829,14.9974 275.276,14.9219 275.789,14.9219 C276.547,14.9219 277.144,15.082 277.58,15.4023 C278.016,15.7227 278.271,16.1589 278.344,16.7109 M279.523,21 L279.523,15 L281.188,15 L281.188,21 L279.523,21 M280.359,14.2266 C280.112,14.2266 279.9,14.1439 279.725,13.9785 C279.549,13.8132 279.461,13.6146 279.461,13.3828 C279.461,13.1536 279.549,12.9564 279.725,12.791 C279.9,12.6257 280.112,12.543 280.359,12.543 C280.607,12.543 280.818,12.6257 280.994,12.791 C281.17,12.9564 281.258,13.1536 281.258,13.3828 C281.258,13.6146 281.17,13.8132 280.994,13.9785 C280.818,14.1439 280.607,14.2266 280.359,14.2266 M285.699,15 L285.699,16.25 L282.086,16.25 L282.086,15 L285.699,15 M282.906,13.5625 L284.57,13.5625 L284.57,19.1563 C284.57,19.3099 284.594,19.429 284.641,19.5137 C284.688,19.5983 284.753,19.6576 284.838,19.6914 C284.923,19.7253 285.021,19.7422 285.133,19.7422 C285.211,19.7422 285.289,19.735 285.367,19.7207 C285.445,19.7064 285.505,19.6953 285.547,19.6875 L285.809,20.9258 C285.725,20.9518 285.608,20.9824 285.457,21.0176 C285.306,21.0527 285.122,21.0742 284.906,21.082 C284.505,21.0977 284.154,21.0443 283.854,20.9219 C283.553,20.7995 283.319,20.6094 283.152,20.3516 C282.986,20.0938 282.904,19.7682 282.906,19.375 L282.906,13.5625 M286.773,21 L286.773,15 L288.438,15 L288.438,21 L286.773,21 M287.609,14.2266 C287.362,14.2266 287.15,14.1439 286.975,13.9785 C286.799,13.8132 286.711,13.6146 286.711,13.3828 C286.711,13.1536 286.799,12.9564 286.975,12.791 C287.15,12.6257 287.362,12.543 287.609,12.543 C287.857,12.543 288.068,12.6257 288.244,12.791 C288.42,12.9564 288.508,13.1536 288.508,13.3828 C288.508,13.6146 288.42,13.8132 288.244,13.9785 C288.068,14.1439 287.857,14.2266 287.609,14.2266 M292.469,21.1172 C291.862,21.1172 291.338,20.9876 290.896,20.7285 C290.455,20.4694 290.115,20.1074 289.875,19.6426 C289.635,19.1777 289.516,18.638 289.516,18.0234 C289.516,17.4036 289.635,16.8613 289.875,16.3965 C290.115,15.9316 290.455,15.5697 290.896,15.3105 C291.338,15.0514 291.862,14.9219 292.469,14.9219 C293.076,14.9219 293.6,15.0514 294.041,15.3105 C294.482,15.5697 294.823,15.9316 295.063,16.3965 C295.302,16.8613 295.422,17.4036 295.422,18.0234 C295.422,18.638 295.302,19.1777 295.063,19.6426 C294.823,20.1074 294.482,20.4694 294.041,20.7285 C293.6,20.9876 293.076,21.1172 292.469,21.1172 M292.477,19.8281 C292.753,19.8281 292.983,19.7493 293.168,19.5918 C293.353,19.4342 293.493,19.2188 293.588,18.9453 C293.683,18.6719 293.73,18.3607 293.73,18.0117 C293.73,17.6628 293.683,17.3516 293.588,17.0781 C293.493,16.8047 293.353,16.5885 293.168,16.4297 C292.983,16.2708 292.753,16.1914 292.477,16.1914 C292.198,16.1914 291.964,16.2708 291.775,16.4297 C291.587,16.5885 291.445,16.8047 291.35,17.0781 C291.255,17.3516 291.207,17.6628 291.207,18.0117 C291.207,18.3607 291.255,18.6719 291.35,18.9453 C291.445,19.2188 291.587,19.4342 291.775,19.5918 C291.964,19.7493 292.198,19.8281 292.477,19.8281 M298.172,17.5313 L298.172,21 L296.508,21 L296.508,15 L298.094,15 L298.094,16.0586 L298.164,16.0586 C298.297,15.7096 298.52,15.4329 298.832,15.2285 C299.145,15.0241 299.523,14.9219 299.969,14.9219 C300.385,14.9219 300.749,15.013 301.059,15.1953 C301.368,15.3776 301.609,15.6374 301.781,15.9746 C301.953,16.3118 302.039,16.7135 302.039,17.1797 L302.039,21 L300.375,21 L300.375,17.4766 C300.378,17.1094 300.284,16.8223 300.094,16.6152 C299.904,16.4082 299.642,16.3047 299.309,16.3047 C299.085,16.3047 298.887,16.3529 298.717,16.4492 C298.546,16.5456 298.413,16.6855 298.318,16.8691 C298.223,17.0527 298.174,17.2734 298.172,17.5313 "/>
</g>

<g fill="#ffffff" fill-opacity="1" stroke="none" transform="matrix(0.0285,0,0,0.0285,11.2928,9.44754)"
font-family="Inter" font-size="11" font-weight="700" font-style="normal" 
>
<path vector-effect="none" fill-rule="nonzero" d="M410.778,59.991 C376.729,59.991 346.629,75.6235 326.182,99.684 C216.768,129.689 131.433,215.271 101.927,324.891 C79.5232,345.494 65.3275,374.762 65.54,407.6 C65.7463,439.573 79.3407,468.172 100.975,488.421 C130.228,601.34 218.744,689.335 331.859,718.096 C331.956,718.125 331.989,718.313 332.085,718.338 C352.242,738.376 380.064,750.708 410.778,750.708 C441.492,750.708 469.314,738.376 489.47,718.338 C489.549,718.262 489.618,718.17 489.696,718.096 C604.323,688.948 693.738,598.994 721.758,483.921 C742.939,463.42 756.216,434.907 756.015,403.1 C755.801,370.079 741.086,340.899 718.209,320.633 C687.622,213.077 603.338,129.291 495.373,99.684 C474.926,75.6235 444.827,59.991 410.778,59.991 M410.778,91.8938 C455.052,91.8938 490.89,127.731 490.89,172.006 C490.89,216.28 455.052,252.102 410.778,252.102 C366.503,252.102 330.666,216.28 330.666,172.006 C330.666,127.731 366.503,91.8938 410.778,91.8938 M177.071,325.601 C221.346,325.601 257.183,361.438 257.183,405.713 C257.183,449.987 221.346,485.808 177.071,485.808 C132.796,485.808 96.7332,449.987 96.7332,405.713 C96.7332,361.438 132.796,325.601 177.071,325.601 M644.485,325.601 C688.763,325.601 724.822,361.438 724.822,405.713 C724.822,449.987 688.763,485.808 644.485,485.808 C600.21,485.808 564.373,449.987 564.373,405.713 C564.373,361.438 600.21,325.601 644.485,325.601 M396.601,335.762 L424.955,335.762 C431.754,335.762 437.245,342.538 437.245,350.891 L437.245,381.6 L467.971,381.6 C476.323,381.6 483.083,387.091 483.083,393.89 L483.083,422.245 C483.083,429.044 476.323,434.535 467.971,434.535 L437.245,434.535 L437.245,465.26 C437.245,473.612 431.754,480.373 424.955,480.373 L396.601,480.373 C389.801,480.373 384.31,473.613 384.31,465.26 L384.31,434.535 L353.585,434.535 C345.233,434.535 338.472,429.044 338.472,422.245 L338.472,393.89 C338.472,387.091 345.232,381.6 353.585,381.6 L384.31,381.6 L384.31,350.891 C384.31,342.539 389.801,335.762 396.601,335.762 M410.778,559.307 C455.052,559.307 490.89,595.371 490.89,639.645 C490.89,683.918 455.052,719.757 410.778,719.757 C366.503,719.757 330.666,683.918 330.666,639.645 C330.666,595.371 366.503,559.307 410.778,559.307 "/>
</g>

<g fill="none" stroke="#000000" stroke-opacity="1" stroke-width="22.7975" stroke-linecap="round" stroke-linejoin="round" transform="matrix(0.0285,0,0,0.0285,11.2928,9.44754)"
font-family="Inter" font-size="11" font-weight="700" font-style="normal" 
>
<path vector-effect="none" fill-rule="nonzero" d="M410.778,59.991 C376.729,59.991 346.629,75.6235 326.182,99.684 C216.768,129.689 131.433,215.271 101.927,324.891 C79.5232,345.494 65.3275,374.762 65.54,407.6 C65.7463,439.573 79.3407,468.172 100.975,488.421 C130.228,601.34 218.744,689.335 331.859,718.096 C331.956,718.125 331.989,718.313 332.085,718.338 C352.242,738.376 380.064,750.708 410.778,750.708 C441.492,750.708 469.314,738.376 489.47,718.338 C489.549,718.262 489.618,718.17 489.696,718.096 C604.323,688.948 693.738,598.994 721.758,483.921 C742.939,463.42 756.216,434.907 756.015,403.1 C755.801,370.079 741.086,340.899 718.209,320.633 C687.622,213.077 603.338,129.291 495.373,99.684 C474.926,75.6235 444.827,59.991 410.778,59.991 M410.778,91.8938 C455.052,91.8938 490.89,127.731 490.89,172.006 C490.89,216.28 455.052,252.102 410.778,252.102 C366.503,252.102 330.666,216.28 330.666,172.006 C330.666,127.731 366.503,91.8938 410.778,91.8938 M177.071,325.601 C221.346,325.601 257.183,361.438 257.183,405.713 C257.183,449.987 221.346,485.808 177.071,485.808 C132.796,485.808 96.7332,449.987 96.7332,405.713 C96.7332,361.438 132.796,325.601 177.071,325.601 M644.485,325.601 C688.763,325.601 724.822,361.438 724.822,405.713 C724.822,449.987 688.763,485.808 644.485,485.808 C600.21,485.808 564.373,449.987 564.373,405.713 C564.373,361.438 600.21,325.601 644.485,325.601 M396.601,335.762 L424.955,335.762 C431.754,335.762 437.245,342.538 437.245,350.891 L437.245,381.6 L467.971,381.6 C476.323,381.6 483.083,387.091 483.083,393.89 L483.083,422.245 C483.083,429.044 476.323,434.535 467.971,434.535 L437.245,434.535 L437.245,465.26 C437.245,473.612 431.754,480.373 424.955,480.373 L396.601,480.373 C389.801,480.373 384.31,473.613 384.31,465.26 L384.31,434.535 L353.585,434.535 C345.233,434.535 338.472,429.044 338.472,422.245 L338.472,393.89 C338.472,387.091 345.232,381.6 353.585,381.6 L384.31,381.6 L384.31,350.891 C384.31,342.539 389.801,335.762 396.601,335.762 M410.778,559.307 C455.052,559.307 490.89,595.371 490.89,639.645 C490.89,683.918 455.052,719.757 410.778,719.757 C366.503,719.757 330.666,683.918 330.666,639.645 C330.666,595.371 366.503,559.307 410.778,559.307 "/>
</g>

<g fill="#000000" fill-opacity="1" stroke="none" transform="matrix(0.0285,0,0,0.0285,11.2928,9.44754)"
font-family="Inter" font-size="11" font-weight="700" font-style="normal" 
>
<path vector-effect="none" fill-rule="evenodd" d="M394.961,355.661 C394.961,347.613 401.485,341.088 409.533,341.088 C417.582,341.088 424.106,347.613 424.106,355.661 L424.106,457.48 C424.106,465.528 417.582,472.053 409.533,472.053 C401.485,472.053 394.961,465.528 394.961,457.48 L394.961,355.661"/>
</g>

<g fill="none" stroke="#000000" stroke-opacity="1" stroke-width="20" stroke-linecap="round" stroke-linejoin="round" transform="matrix(0.0285,0,0,0.0285,11.2928,9.44754)"
font-family="Inter" font-size="11" font-weight="700" font-style="normal" 
>
<path vector-effect="none" fill-rule="evenodd" d="M394.961,355.661 C394.961,347.613 401.485,341.088 409.533,341.088 C417.582,341.088 424.106,347.613 424.106,355.661 L424.106,457.48 C424.106,465.528 417.582,472.053 409.533,472.053 C401.485,472.053 394.961,465.528 394.961,457.48 L394.961,355.661"/>
</g>

<g fill="#000000" fill-opacity="1" stroke="none" transform="matrix(0,0.0285,-0.0285,0,11.2928,9.44754)"
font-family="Inter" font-size="11" font-weight="700" font-style="normal" 
>
<path vector-effect="none" fill-rule="evenodd" d="M394.152,-461.016 C394.152,-469.064 400.676,-475.588 408.724,-475.588 C416.773,-475.588 423.297,-469.064 423.297,-461.016 L423.297,-359.196 C423.297,-351.148 416.773,-344.624 408.724,-344.624 C400.676,-344.624 394.152,-351.148 394.152,-359.196 L394.152,-461.016"/>
</g>

<g fill="none" stroke="#000000" stroke-opacity="1" stroke-width="20" stroke-linecap="round" stroke-linejoin="round" transform="matrix(0,0.0285,-0.0285,0,11.2928,9.44754)"
font-family="Inter" font-size="11" font-weight="700" font-style="normal" 
>
<path vector-effect="none" fill-rule="evenodd" d="M394.152,-461.016 C394.152,-469.064 400.676,-475.588 408.724,-475.588 C416.773,-475.588 423.297,-469.064 423.297,-461.016 L423.297,-359.196 C423.297,-351.148 416.773,-344.624 408.724,-344.624 C400.676,-344.624 394.152,-351.148 394.152,-359.196 L394.152,-461.016"/>
</g>

<g fill="#ffffff" fill-opacity="1" stroke="none" transform="matrix(1,0,0,1,0,0)"
font-family="Inter" font-size="11" font-weight="700" font-style="normal" 
>
</g>

<g fill="#ffffff" fill-opacity="1" stroke="#0070ba" stroke-opacity="1" stroke-width="1" stroke-linecap="square" stroke-linejoin="bevel" transform="matrix(1,0,0,1,0,0)"
font-family="Inter" font-size="11" font-weight="700" font-style="normal" 
>
<polyline fill="none" vector-effect="none" points="45,11 45,31 " />
</g>

<g fill="#ffffff" fill-opacity="1" stroke="#0070ba" stroke-opacity="1" stroke-width="1" stroke-linecap="square" stroke-linejoin="bevel" transform="matrix(1,0,0,1,0,0)"
font-family="Inter" font-size="11" font-weight="700" font-style="normal" 
>
</g>

<g fill="#ffffff" fill-opacity="1" stroke="#0070ba" stroke-opacity="1" stroke-width="1" stroke-linecap="square" stroke-linejoin="bevel" transform="matrix(1,0,0,1,0,0)"
font-family="Inter" font-size="11" font-weight="700" font-style="normal" 
>
</g>

<g fill="#ffffff" fill-opacity="1" stroke="#0070ba" stroke-opacity="1" stroke-width="1" stroke-linecap="square" stroke-linejoin="bevel" transform="matrix(1,0,0,1,0,0)"
font-family="Inter" font-size="11" font-weight="700" font-style="normal" 
>
</g>

<g fill="#ffffff" fill-opacity="1" stroke="#0064a6" stroke-opacity="1" stroke-width="1.2" stroke-linecap="square" stroke-linejoin="bevel" transform="matrix(1,0,0,1,308,7)"
font-family="Inter" font-size="11" font-weight="700" font-style="normal" 
>
<path vector-effect="none" fill-rule="evenodd" d="M1,11 C1,5.47715 5.92487,1 12,1 L14.4,1 C20.4751,1 25.4,5.47715 25.4,11 C25.4,16.5228 20.4751,21 14.4,21 L12,21 C5.92487,21 1,16.5228 1,11 "/>
</g>

<g fill="#000000" fill-opacity="1" stroke="none" transform="matrix(1,0,0,1,308,7)"
font-family="Inter" font-size="10" font-weight="700" font-style="normal" 
>
<path vector-effect="none" fill-rule="nonzero" d="M12.9411,14.5817 C12.3303,14.5793 11.8053,14.429 11.3661,14.1307 C10.927,13.8324 10.5896,13.4003 10.354,12.8345 C10.1185,12.2687 10.0019,11.5881 10.0043,10.7926 C10.0043,9.99953 10.122,9.32363 10.3576,8.76491 C10.5932,8.2062 10.9305,7.78066 11.3697,7.48828 C11.8088,7.1959 12.3326,7.04972 12.9411,7.04972 C13.5495,7.04972 14.0733,7.1965 14.5124,7.49006 C14.9516,7.78362 15.2895,8.20916 15.5263,8.76669 C15.763,9.32422 15.8802,9.99953 15.8778,10.7926 C15.8778,11.5904 15.7601,12.2723 15.5245,12.8381 C15.2889,13.4039 14.9522,13.8359 14.5142,14.1342 C14.0762,14.4325 13.5518,14.5817 12.9411,14.5817 M12.9411,13.3068 C13.3577,13.3068 13.6903,13.0973 13.9389,12.6783 C14.1875,12.2592 14.3106,11.6307 14.3082,10.7926 C14.3082,10.241 14.252,9.78172 14.1396,9.41477 C14.0271,9.04782 13.8685,8.77202 13.6637,8.58736 C13.4589,8.4027 13.218,8.31037 12.9411,8.31037 C12.5268,8.31037 12.1953,8.51752 11.9467,8.93182 C11.6982,9.34612 11.5727,9.96638 11.5703,10.7926 C11.5703,11.3513 11.6265,11.8171 11.739,12.19 C11.8514,12.5629 12.0107,12.8422 12.2166,13.0281 C12.4226,13.2139 12.6641,13.3068 12.9411,13.3068 "/>
</g>

<g fill="#ffffff" fill-opacity="1" stroke="#0070ba" stroke-opacity="1" stroke-width="1" stroke-linecap="square" stroke-linejoin="bevel" transform="matrix(1,0,0,1,0,0)"
font-family="Inter" font-size="11" font-weight="700" font-style="normal" 
>
</g>

<g fill="#ffffff" fill-opacity="1" stroke="#0070ba" stroke-opacity="1" stroke-width="1" stroke-linecap="square" stroke-linejoin="bevel" transform="matrix(1,0,0,1,0,0)"
font-family="Inter" font-size="11" font-weight="700" font-style="normal" 
>
</g>

<g fill="#0070ba" fill-opacity="1" stroke="#0070ba" stroke-opacity="1" stroke-width="1.2" stroke-linecap="square" stroke-linejoin="bevel" transform="matrix(1,0,0,1,145,6)"
font-family="Inter" font-size="11" font-weight="700" font-style="normal" 
>
<path vector-effect="none" fill-rule="evenodd" d="M0.5,12 C0.5,5.64873 5.87258,0.5 12.5,0.5 L23.5,0.5 C30.1274,0.5 35.5,5.64873 35.5,12 C35.5,18.3513 30.1274,23.5 23.5,23.5 L12.5,23.5 C5.87258,23.5 0.5,18.3513 0.5,12 "/>
</g>

<g fill="#ffffff" fill-opacity="1" stroke="none" transform="matrix(1,0,0,1,145,6)"
font-family="Inter" font-size="11" font-weight="700" font-style="normal" 
>
<path vector-effect="none" fill-rule="nonzero" d="M13.582,8 L13.582,16 L11.8906,16 L11.8906,9.60547 L11.8438,9.60547 L10.0117,10.7539 L10.0117,9.25391 L11.9922,8 L13.582,8"/>
</g>

<g fill="#ffffff" fill-opacity="1" stroke="none" transform="matrix(0.03125,0,0,0.03125,167,14)"
font-family="Inter" font-size="11" font-weight="700" font-style="normal" 
>
<path vector-effect="none" fill-rule="nonzero" d="M111.326,191.938 C120.545,201.158 135.517,201.158 144.737,191.938 L239.144,97.5313 C245.929,90.7458 247.921,80.6413 244.233,71.7907 C240.545,62.9401 231.989,57.1871 222.401,57.1871 L33.5875,57.2608 C24.0731,57.2608 15.4437,63.0137 11.7559,71.8644 C8.06815,80.715 10.1333,90.8195 16.845,97.605 L111.252,192.012 L111.326,191.938"/>
</g>

<g fill="none" stroke="#000000" stroke-opacity="1" stroke-width="13.7195" stroke-linecap="butt" stroke-linejoin="miter" stroke-miterlimit="4" transform="matrix(0.03125,0,0,0.03125,167,14)"
font-family="Inter" font-size="11" font-weight="700" font-style="normal" 
>
<path vector-effect="none" fill-rule="nonzero" d="M111.326,191.938 C120.545,201.158 135.517,201.158 144.737,191.938 L239.144,97.5313 C245.929,90.7458 247.921,80.6413 244.233,71.7907 C240.545,62.9401 231.989,57.1871 222.401,57.1871 L33.5875,57.2608 C24.0731,57.2608 15.4437,63.0137 11.7559,71.8644 C8.06815,80.715 10.1333,90.8195 16.845,97.605 L111.252,192.012 L111.326,191.938"/>
</g>

<g fill="#ffffff" fill-opacity="1" stroke="none" transform="matrix(1,0,0,1,145,6)"
font-family="Inter" font-size="11" font-weight="700" font-style="normal" 
>
</g>

<g fill="#ffffff" fill-opacity="1" stroke="#0070ba" stroke-opacity="1" stroke-width="1" stroke-linecap="square" stroke-linejoin="bevel" transform="matrix(1,0,0,1,0,0)"
font-family="Inter" font-size="11" font-weight="700" font-style="normal" 
>
</g>

<g fill="#0090f5" fill-opacity="1" stroke="#0070ba" stroke-opacity="1" stroke-width="1.2" stroke-linecap="square" stroke-linejoin="bevel" transform="matrix(1,0,0,1,56,6)"
font-family="Inter" font-size="11" font-weight="700" font-style="normal" 
>
<path vector-effect="none" fill-rule="evenodd" d="M0.5,3.5 C0.5,1.84315 1.84315,0.5 3.5,0.5 L81.5,0.5 C83.1569,0.5 84.5,1.84315 84.5,3.5 L84.5,20.5 C84.5,22.1569 83.1569,23.5 81.5,23.5 L3.5,23.5 C1.84315,23.5 0.5,22.1569 0.5,20.5 L0.5,3.5"/>
</g>

<g fill="#ffffff" fill-opacity="1" stroke="none" transform="matrix(1,0,0,1,56,6)"
font-family="Inter" font-size="11" font-weight="700" font-style="normal" 
>
<path vector-effect="none" fill-rule="nonzero" d="M10.0078,15.9375 L10.0078,7.9375 L13.2109,7.9375 C13.7995,7.9375 14.2904,8.02474 14.6836,8.19922 C15.0768,8.3737 15.3724,8.61523 15.5703,8.92383 C15.7682,9.23242 15.8672,9.58724 15.8672,9.98828 C15.8672,10.3008 15.8047,10.5749 15.6797,10.8105 C15.5547,11.0462 15.3835,11.2389 15.166,11.3887 C14.9486,11.5384 14.7005,11.6445 14.4219,11.707 L14.4219,11.7852 C14.7266,11.7982 15.0124,11.8841 15.2793,12.043 C15.5462,12.2018 15.763,12.4238 15.9297,12.709 C16.0964,12.9941 16.1797,13.3333 16.1797,13.7266 C16.1797,14.151 16.0749,14.5293 15.8652,14.8613 C15.6556,15.1934 15.3464,15.4557 14.9375,15.6484 C14.5286,15.8411 14.0247,15.9375 13.4258,15.9375 L10.0078,15.9375 M11.6992,14.5547 L13.0781,14.5547 C13.5495,14.5547 13.8932,14.4642 14.1094,14.2832 C14.3255,14.1022 14.4336,13.8607 14.4336,13.5586 C14.4336,13.3372 14.3802,13.1419 14.2734,12.9727 C14.1667,12.8034 14.015,12.6706 13.8184,12.5742 C13.6217,12.4779 13.388,12.4297 13.1172,12.4297 L11.6992,12.4297 L11.6992,14.5547 M11.6992,11.2852 L12.9531,11.2852 C13.1849,11.2852 13.3913,11.2441 13.5723,11.1621 C13.7533,11.0801 13.8965,10.9635 14.002,10.8125 C14.1074,10.6615 14.1602,10.4805 14.1602,10.2695 C14.1602,9.98047 14.0579,9.7474 13.8535,9.57031 C13.6491,9.39323 13.3594,9.30469 12.9844,9.30469 L11.6992,9.30469 L11.6992,11.2852 M19.0742,15.9375 L16.7852,7.9375 L18.6328,7.9375 L19.957,13.4961 L20.0234,13.4961 L21.4844,7.9375 L23.0664,7.9375 L24.5234,13.5078 L24.5938,13.5078 L25.918,7.9375 L27.7656,7.9375 L25.4766,15.9375 L23.8281,15.9375 L22.3047,10.707 L22.2422,10.707 L20.7227,15.9375 L19.0742,15.9375 M28.5781,15.9375 L28.5781,14.9336 L32.5703,9.33203 L28.5703,9.33203 L28.5703,7.9375 L34.6953,7.9375 L34.6953,8.94141 L30.6992,14.543 L34.7031,14.543 L34.7031,15.9375 L28.5781,15.9375 M38.9023,16.0469 C38.319,16.0469 37.8001,15.946 37.3457,15.7441 C36.8913,15.5423 36.5332,15.2637 36.2715,14.9082 C36.0098,14.5527 35.875,14.1419 35.8672,13.6758 L37.5703,13.6758 C37.5807,13.8711 37.6452,14.0423 37.7637,14.1895 C37.8822,14.3366 38.0404,14.4505 38.2383,14.5313 C38.4362,14.612 38.6589,14.6523 38.9063,14.6523 C39.1641,14.6523 39.3919,14.6068 39.5898,14.5156 C39.7878,14.4245 39.9427,14.2982 40.0547,14.1367 C40.1667,13.9753 40.2227,13.7891 40.2227,13.5781 C40.2227,13.3646 40.1634,13.1751 40.0449,13.0098 C39.9264,12.8444 39.7572,12.7148 39.5371,12.6211 C39.3171,12.5273 39.056,12.4805 38.7539,12.4805 L38.0078,12.4805 L38.0078,11.2383 L38.7539,11.2383 C39.0091,11.2383 39.235,11.194 39.4316,11.1055 C39.6283,11.0169 39.7813,10.8939 39.8906,10.7363 C40,10.5788 40.0547,10.3945 40.0547,10.1836 C40.0547,9.98307 40.0072,9.80664 39.9121,9.6543 C39.8171,9.50195 39.6842,9.38281 39.5137,9.29688 C39.3431,9.21094 39.1445,9.16797 38.918,9.16797 C38.6888,9.16797 38.4792,9.20898 38.2891,9.29102 C38.099,9.37305 37.9466,9.48958 37.832,9.64063 C37.7174,9.79167 37.6563,9.96875 37.6484,10.1719 L36.0273,10.1719 C36.0352,9.71094 36.1667,9.30469 36.4219,8.95313 C36.6771,8.60156 37.0215,8.32617 37.4551,8.12695 C37.8887,7.92773 38.3789,7.82813 38.9258,7.82813 C39.4779,7.82813 39.9609,7.92839 40.375,8.12891 C40.7891,8.32943 41.1113,8.59961 41.3418,8.93945 C41.5723,9.2793 41.6862,9.66016 41.6836,10.082 C41.6862,10.5299 41.5475,10.9036 41.2676,11.2031 C40.9876,11.5026 40.6237,11.6927 40.1758,11.7734 L40.1758,11.8359 C40.7643,11.9115 41.2129,12.1152 41.5215,12.4473 C41.8301,12.7793 41.9831,13.194 41.9805,13.6914 C41.9831,14.1471 41.8522,14.5521 41.5879,14.9063 C41.3236,15.2604 40.9596,15.5391 40.4961,15.7422 C40.0326,15.9453 39.5013,16.0469 38.9023,16.0469 M43.2422,15.9375 L43.2422,7.9375 L44.9336,7.9375 L44.9336,11.2383 L48.3672,11.2383 L48.3672,7.9375 L50.0547,7.9375 L50.0547,15.9375 L48.3672,15.9375 L48.3672,12.6328 L44.9336,12.6328 L44.9336,15.9375 L43.2422,15.9375 M51.4453,15.9375 L51.4453,7.9375 L54.6484,7.9375 C55.237,7.9375 55.7279,8.02474 56.1211,8.19922 C56.5143,8.3737 56.8099,8.61523 57.0078,8.92383 C57.2057,9.23242 57.3047,9.58724 57.3047,9.98828 C57.3047,10.3008 57.2422,10.5749 57.1172,10.8105 C56.9922,11.0462 56.821,11.2389 56.6035,11.3887 C56.3861,11.5384 56.138,11.6445 55.8594,11.707 L55.8594,11.7852 C56.1641,11.7982 56.4499,11.8841 56.7168,12.043 C56.9837,12.2018 57.2005,12.4238 57.3672,12.709 C57.5339,12.9941 57.6172,13.3333 57.6172,13.7266 C57.6172,14.151 57.5124,14.5293 57.3027,14.8613 C57.0931,15.1934 56.7839,15.4557 56.375,15.6484 C55.9661,15.8411 55.4622,15.9375 54.8633,15.9375 L51.4453,15.9375 M53.1367,14.5547 L54.5156,14.5547 C54.987,14.5547 55.3307,14.4642 55.5469,14.2832 C55.763,14.1022 55.8711,13.8607 55.8711,13.5586 C55.8711,13.3372 55.8177,13.1419 55.7109,12.9727 C55.6042,12.8034 55.4525,12.6706 55.2559,12.5742 C55.0592,12.4779 54.8255,12.4297 54.5547,12.4297 L53.1367,12.4297 L53.1367,14.5547 M53.1367,11.2852 L54.3906,11.2852 C54.6224,11.2852 54.8288,11.2441 55.0098,11.1621 C55.1908,11.0801 55.334,10.9635 55.4395,10.8125 C55.5449,10.6615 55.5977,10.4805 55.5977,10.2695 C55.5977,9.98047 55.4954,9.7474 55.291,9.57031 C55.0866,9.39323 54.7969,9.30469 54.4219,9.30469 L53.1367,9.30469 L53.1367,11.2852 M62.1445,7.9375 L62.1445,15.9375 L60.4531,15.9375 L60.4531,9.54297 L60.4063,9.54297 L58.5742,10.6914 L58.5742,9.19141 L60.5547,7.9375 L62.1445,7.9375"/>
</g>

<g fill="#ffffff" fill-opacity="1" stroke="none" transform="matrix(0.03125,0,0,0.03125,127,14)"
font-family="Inter" font-size="11" font-weight="700" font-style="normal" 
>
<path vector-effect="none" fill-rule="nonzero" d="M111.326,191.938 C120.545,201.158 135.517,201.158 144.737,191.938 L239.144,97.5313 C245.929,90.7458 247.921,80.6413 244.233,71.7907 C240.545,62.9401 231.989,57.1871 222.401,57.1871 L33.5875,57.2608 C24.0731,57.2608 15.4437,63.0137 11.7559,71.8644 C8.06815,80.715 10.1333,90.8195 16.845,97.605 L111.252,192.012 L111.326,191.938"/>
</g>

<g fill="none" stroke="#000000" stroke-opacity="1" stroke-width="13.7195" stroke-linecap="butt" stroke-linejoin="miter" stroke-miterlimit="4" transform="matrix(0.03125,0,0,0.03125,127,14)"
font-family="Inter" font-size="11" font-weight="700" font-style="normal" 
>
<path vector-effect="none" fill-rule="nonzero" d="M111.326,191.938 C120.545,201.158 135.517,201.158 144.737,191.938 L239.144,97.5313 C245.929,90.7458 247.921,80.6413 244.233,71.7907 C240.545,62.9401 231.989,57.1871 222.401,57.1871 L33.5875,57.2608 C24.0731,57.2608 15.4437,63.0137 11.7559,71.8644 C8.06815,80.715 10.1333,90.8195 16.845,97.605 L111.252,192.012 L111.326,191.938"/>
</g>

<g fill="#ffffff" fill-opacity="1" stroke="none" transform="matrix(1,0,0,1,56,6)"
font-family="Inter" font-size="11" font-weight="700" font-style="normal" 
>
</g>

<g fill="#ffffff" fill-opacity="1" stroke="#0070ba" stroke-opacity="1" stroke-width="1" stroke-linecap="square" stroke-linejoin="bevel" transform="matrix(1,0,0,1,0,0)"
font-family="Inter" font-size="11" font-weight="700" font-style="normal" 
>
</g>

<g fill="none" stroke="#000000" stroke-opacity="1" stroke-width="1" stroke-linecap="square" stroke-linejoin="bevel" transform="matrix(1,0,0,1,0,0)"
font-family=".AppleSystemUIFont" font-size="13" font-weight="400" font-style="normal" 
>
</g>
</g>
</svg>
