<?xml version="1.0" encoding="UTF-8" standalone="no"?>
<svg width="39.5111mm" height="9.87778mm"
 viewBox="0 0 112 28"
 xmlns="http://www.w3.org/2000/svg" xmlns:xlink="http://www.w3.org/1999/xlink" version="1.2" baseProfile="tiny">
<title>Abstract block</title>
<desc>block_operator_and</desc>
<defs>
</defs>
<g fill="none" stroke="black" stroke-width="1" fill-rule="evenodd" stroke-linecap="square" stroke-linejoin="bevel" >

<g fill="none" stroke="#000000" stroke-opacity="1" stroke-width="1" stroke-linecap="square" stroke-linejoin="bevel" transform="matrix(1,0,0,1,0,0)"
font-family=".AppleSystemUIFont" font-size="13" font-weight="400" font-style="normal" 
>
</g>

<g fill="none" stroke="#000000" stroke-opacity="1" stroke-width="1" stroke-linecap="square" stroke-linejoin="bevel" transform="matrix(1,0,0,1,0,0)"
font-family=".AppleSystemUIFont" font-size="13" font-weight="400" font-style="normal" 
>
</g>

<g fill="#00b94d" fill-opacity="1" stroke="#007e32" stroke-opacity="1" stroke-width="1.2" stroke-linecap="square" stroke-linejoin="bevel" transform="matrix(1,0,0,1,0,0)"
font-family=".AppleSystemUIFont" font-size="13" font-weight="400" font-style="normal" 
>
<path vector-effect="none" fill-rule="evenodd" d="M0,14 L14,0 L97.4,0 L111.4,14 L97.4,28 L14,28 L0,14"/>
</g>

<g fill="#ffffff" fill-opacity="1" stroke="none" transform="matrix(1,0,0,1,0,0)"
font-family="Inter" font-size="11" font-weight="700" font-style="normal" 
>
<path vector-effect="none" fill-rule="nonzero" d="M47.9531,18.0195 C47.5703,18.0195 47.2292,17.9525 46.9297,17.8184 C46.6302,17.6842 46.3939,17.485 46.2207,17.2207 C46.0475,16.9564 45.9609,16.6263 45.9609,16.2305 C45.9609,15.8971 46.0221,15.6172 46.1445,15.3906 C46.2669,15.1641 46.4336,14.9818 46.6445,14.8438 C46.8555,14.7057 47.0957,14.6016 47.3652,14.5313 C47.6348,14.4609 47.918,14.4115 48.2148,14.3828 C48.5638,14.3464 48.8451,14.3118 49.0586,14.2793 C49.2721,14.2467 49.4271,14.1979 49.5234,14.1328 C49.6198,14.0677 49.668,13.9714 49.668,13.8438 L49.668,13.8203 C49.668,13.5729 49.5905,13.3815 49.4355,13.2461 C49.2806,13.1107 49.0612,13.043 48.7773,13.043 C48.4779,13.043 48.2396,13.1087 48.0625,13.2402 C47.8854,13.3717 47.7682,13.5365 47.7109,13.7344 L46.1719,13.6094 C46.25,13.2448 46.4036,12.929 46.6328,12.6621 C46.862,12.3952 47.1582,12.1895 47.5215,12.0449 C47.8848,11.9004 48.306,11.8281 48.7852,11.8281 C49.1185,11.8281 49.4382,11.8672 49.7441,11.9453 C50.0501,12.0234 50.3223,12.1445 50.5605,12.3086 C50.7988,12.4727 50.987,12.6829 51.125,12.9395 C51.263,13.196 51.332,13.5026 51.332,13.8594 L51.332,17.9063 L49.7539,17.9063 L49.7539,17.0742 L49.707,17.0742 C49.6107,17.2617 49.4818,17.4264 49.3203,17.5684 C49.1589,17.7103 48.9648,17.821 48.7383,17.9004 C48.5117,17.9798 48.25,18.0195 47.9531,18.0195 M48.4297,16.8711 C48.6745,16.8711 48.8906,16.8223 49.0781,16.7246 C49.2656,16.627 49.4128,16.4948 49.5195,16.3281 C49.6263,16.1615 49.6797,15.9727 49.6797,15.7617 L49.6797,15.125 C49.6276,15.1589 49.5566,15.1895 49.4668,15.2168 C49.377,15.2441 49.276,15.2689 49.1641,15.291 C49.0521,15.3132 48.9401,15.3327 48.8281,15.3496 C48.7161,15.3665 48.6146,15.3815 48.5234,15.3945 C48.3281,15.4232 48.1576,15.4688 48.0117,15.5313 C47.8659,15.5938 47.7526,15.6777 47.6719,15.7832 C47.5911,15.8887 47.5508,16.0195 47.5508,16.1758 C47.5508,16.4023 47.6335,16.5749 47.7988,16.6934 C47.9642,16.8118 48.1745,16.8711 48.4297,16.8711 M54.2813,14.4375 L54.2813,17.9063 L52.6172,17.9063 L52.6172,11.9063 L54.2031,11.9063 L54.2031,12.9648 L54.2734,12.9648 C54.4063,12.6159 54.6289,12.3392 54.9414,12.1348 C55.2539,11.9303 55.6328,11.8281 56.0781,11.8281 C56.4948,11.8281 56.8581,11.9193 57.168,12.1016 C57.4779,12.2839 57.7188,12.5436 57.8906,12.8809 C58.0625,13.2181 58.1484,13.6198 58.1484,14.0859 L58.1484,17.9063 L56.4844,17.9063 L56.4844,14.3828 C56.487,14.0156 56.3932,13.7285 56.2031,13.5215 C56.013,13.3145 55.7513,13.2109 55.418,13.2109 C55.194,13.2109 54.9967,13.2591 54.8262,13.3555 C54.6556,13.4518 54.5228,13.5918 54.4277,13.7754 C54.3327,13.959 54.2839,14.1797 54.2813,14.4375 M61.6563,18.0039 C61.2005,18.0039 60.7884,17.8861 60.4199,17.6504 C60.0514,17.4147 59.7598,17.0671 59.5449,16.6074 C59.3301,16.1478 59.2227,15.5833 59.2227,14.9141 C59.2227,14.2266 59.3333,13.6543 59.5547,13.1973 C59.776,12.7402 60.071,12.3978 60.4395,12.1699 C60.8079,11.9421 61.2122,11.8281 61.6523,11.8281 C61.9883,11.8281 62.2689,11.8848 62.4941,11.998 C62.7194,12.1113 62.9017,12.252 63.041,12.4199 C63.1803,12.5879 63.2865,12.7526 63.3594,12.9141 L63.4102,12.9141 L63.4102,9.90625 L65.0703,9.90625 L65.0703,17.9063 L63.4297,17.9063 L63.4297,16.9453 L63.3594,16.9453 C63.2813,17.112 63.1712,17.2767 63.0293,17.4395 C62.8874,17.6022 62.7038,17.737 62.4785,17.8438 C62.2533,17.9505 61.9792,18.0039 61.6563,18.0039 M62.1836,16.6797 C62.4518,16.6797 62.679,16.6061 62.8652,16.459 C63.0514,16.3118 63.1947,16.1055 63.2949,15.8398 C63.3952,15.5742 63.4453,15.263 63.4453,14.9063 C63.4453,14.5495 63.3958,14.2396 63.2969,13.9766 C63.1979,13.7135 63.0547,13.5104 62.8672,13.3672 C62.6797,13.224 62.4518,13.1523 62.1836,13.1523 C61.9102,13.1523 61.6797,13.2266 61.4922,13.375 C61.3047,13.5234 61.1628,13.7292 61.0664,13.9922 C60.9701,14.2552 60.9219,14.5599 60.9219,14.9063 C60.9219,15.2552 60.9707,15.5632 61.0684,15.8301 C61.166,16.097 61.3079,16.3053 61.4941,16.4551 C61.6803,16.6048 61.9102,16.6797 62.1836,16.6797 "/>
</g>

<g fill="#ffffff" fill-opacity="1" stroke="none" transform="matrix(1,0,0,1,0,0)"
font-family="Inter" font-size="11" font-weight="700" font-style="normal" 
>
</g>

<g fill="#ffffff" fill-opacity="1" stroke="none" transform="matrix(1,0,0,1,0,0)"
font-family="Inter" font-size="11" font-weight="700" font-style="normal" 
>
</g>

<g fill="#007e32" fill-opacity="1" stroke="#006a2a" stroke-opacity="1" stroke-width="1.2" stroke-linecap="square" stroke-linejoin="bevel" transform="matrix(1,0,0,1,71.2,3)"
font-family="Inter" font-size="11" font-weight="700" font-style="normal" 
>
<path vector-effect="none" fill-rule="evenodd" d="M0,11 L11,0 L24.2,0 L35.2,11 L24.2,22 L11,22 L0,11"/>
</g>

<g fill="#ffffff" fill-opacity="1" stroke="none" transform="matrix(1,0,0,1,0,0)"
font-family="Inter" font-size="11" font-weight="700" font-style="normal" 
>
</g>

<g fill="#007e32" fill-opacity="1" stroke="#006a2a" stroke-opacity="1" stroke-width="1.2" stroke-linecap="square" stroke-linejoin="bevel" transform="matrix(1,0,0,1,5,3)"
font-family="Inter" font-size="11" font-weight="700" font-style="normal" 
>
<path vector-effect="none" fill-rule="evenodd" d="M0,11 L11,0 L24.2,0 L35.2,11 L24.2,22 L11,22 L0,11"/>
</g>

<g fill="#ffffff" fill-opacity="1" stroke="none" transform="matrix(1,0,0,1,0,0)"
font-family="Inter" font-size="11" font-weight="700" font-style="normal" 
>
</g>

<g fill="#ffffff" fill-opacity="1" stroke="none" transform="matrix(1,0,0,1,0,0)"
font-family="Inter" font-size="11" font-weight="700" font-style="normal" 
>
</g>

<g fill="none" stroke="#000000" stroke-opacity="1" stroke-width="1" stroke-linecap="square" stroke-linejoin="bevel" transform="matrix(1,0,0,1,0,0)"
font-family=".AppleSystemUIFont" font-size="13" font-weight="400" font-style="normal" 
>
</g>
</g>
</svg>
