<?xml version="1.0" encoding="UTF-8" standalone="no"?>
<svg width="113.594mm" height="11.2889mm"
 viewBox="0 0 322 32"
 xmlns="http://www.w3.org/2000/svg" xmlns:xlink="http://www.w3.org/1999/xlink" version="1.2" baseProfile="tiny">
<title>Abstract block</title>
<desc>block_hubs_buwizz_sensors_get_power_mode</desc>
<defs>
</defs>
<g fill="none" stroke="black" stroke-width="1" fill-rule="evenodd" stroke-linecap="square" stroke-linejoin="bevel" >

<g fill="none" stroke="#000000" stroke-opacity="1" stroke-width="1" stroke-linecap="square" stroke-linejoin="bevel" transform="matrix(1,0,0,1,0,0)"
font-family=".AppleSystemUIFont" font-size="13" font-weight="400" font-style="normal" 
>
</g>

<g fill="none" stroke="#000000" stroke-opacity="1" stroke-width="1" stroke-linecap="square" stroke-linejoin="bevel" transform="matrix(1,0,0,1,0,0)"
font-family=".AppleSystemUIFont" font-size="13" font-weight="400" font-style="normal" 
>
</g>

<g fill="#ffb515" fill-opacity="1" stroke="#d89400" stroke-opacity="1" stroke-width="1.2" stroke-linecap="square" stroke-linejoin="bevel" transform="matrix(1,0,0,1,0,0)"
font-family=".AppleSystemUIFont" font-size="13" font-weight="400" font-style="normal" 
>
<path vector-effect="none" fill-rule="evenodd" d="M1,16 C1,7.71573 8.16344,1 17,1 L304.667,1 C313.503,1 320.667,7.71573 320.667,16 C320.667,24.2843 313.503,31 304.667,31 L17,31 C8.16344,31 1,24.2843 1,16 "/>
</g>

<g fill="#ffffff" fill-opacity="1" stroke="none" transform="matrix(1,0,0,1,0,0)"
font-family="Inter" font-size="11" font-weight="700" font-style="normal" 
>
<path vector-effect="none" fill-rule="nonzero" d="M60.7891,20.8594 C60.25,20.8594 59.7884,20.7858 59.4043,20.6387 C59.0202,20.4915 58.7148,20.2917 58.4883,20.0391 C58.2617,19.7865 58.1146,19.5026 58.0469,19.1875 L59.5859,18.9805 C59.6328,19.1003 59.707,19.2122 59.8086,19.3164 C59.9102,19.4206 60.0449,19.5046 60.2129,19.5684 C60.3809,19.6322 60.5859,19.6641 60.8281,19.6641 C61.1901,19.6641 61.4889,19.5762 61.7246,19.4004 C61.9603,19.2246 62.0781,18.931 62.0781,18.5195 L62.0781,17.4219 L62.0078,17.4219 C61.9349,17.5885 61.8255,17.7461 61.6797,17.8945 C61.5339,18.043 61.3464,18.1641 61.1172,18.2578 C60.888,18.3516 60.6146,18.3984 60.2969,18.3984 C59.8464,18.3984 59.4368,18.2936 59.0684,18.084 C58.6999,17.8743 58.4069,17.5527 58.1895,17.1191 C57.972,16.6855 57.8633,16.1367 57.8633,15.4727 C57.8633,14.793 57.974,14.2253 58.1953,13.7695 C58.4167,13.3138 58.7116,12.9727 59.0801,12.7461 C59.4486,12.5195 59.8529,12.4063 60.293,12.4063 C60.6289,12.4063 60.9102,12.4629 61.1367,12.5762 C61.3633,12.6895 61.5462,12.8301 61.6855,12.998 C61.8249,13.166 61.9323,13.3307 62.0078,13.4922 L62.0703,13.4922 L62.0703,12.4844 L63.7227,12.4844 L63.7227,18.543 C63.7227,19.0534 63.5977,19.4805 63.3477,19.8242 C63.0977,20.168 62.752,20.4264 62.3105,20.5996 C61.8691,20.7728 61.362,20.8594 60.7891,20.8594 M60.8242,17.1484 C61.0924,17.1484 61.3197,17.0814 61.5059,16.9473 C61.6921,16.8132 61.8353,16.6204 61.9355,16.3691 C62.0358,16.1178 62.0859,15.8164 62.0859,15.4648 C62.0859,15.1133 62.0365,14.8079 61.9375,14.5488 C61.8385,14.2897 61.6953,14.0885 61.5078,13.9453 C61.3203,13.8021 61.0924,13.7305 60.8242,13.7305 C60.5508,13.7305 60.3203,13.804 60.1328,13.9512 C59.9453,14.0983 59.8034,14.3021 59.707,14.5625 C59.6107,14.8229 59.5625,15.1237 59.5625,15.4648 C59.5625,15.8112 59.6113,16.11 59.709,16.3613 C59.8066,16.6126 59.9486,16.8066 60.1348,16.9434 C60.321,17.0801 60.5508,17.1484 60.8242,17.1484 M67.7734,18.6016 C67.1563,18.6016 66.6257,18.4759 66.1816,18.2246 C65.7376,17.9733 65.3958,17.6165 65.1563,17.1543 C64.9167,16.6921 64.7969,16.1445 64.7969,15.5117 C64.7969,14.8945 64.9167,14.3529 65.1563,13.8867 C65.3958,13.4206 65.7337,13.0573 66.1699,12.7969 C66.6061,12.5365 67.1185,12.4063 67.707,12.4063 C68.1029,12.4063 68.472,12.4694 68.8145,12.5957 C69.1569,12.722 69.4564,12.9115 69.7129,13.1641 C69.9694,13.4167 70.1693,13.7337 70.3125,14.1152 C70.4557,14.4967 70.5273,14.9427 70.5273,15.4531 L70.5273,15.9102 L65.4609,15.9102 L65.4609,14.8789 L68.9609,14.8789 C68.9609,14.6393 68.9089,14.4271 68.8047,14.2422 C68.7005,14.0573 68.5566,13.9121 68.373,13.8066 C68.1895,13.7012 67.9766,13.6484 67.7344,13.6484 C67.4818,13.6484 67.2585,13.7064 67.0645,13.8223 C66.8704,13.9382 66.7188,14.0931 66.6094,14.2871 C66.5,14.4811 66.444,14.6966 66.4414,14.9336 L66.4414,15.9141 C66.4414,16.2109 66.4967,16.4674 66.6074,16.6836 C66.7181,16.8997 66.875,17.0664 67.0781,17.1836 C67.2813,17.3008 67.5221,17.3594 67.8008,17.3594 C67.9857,17.3594 68.1549,17.3333 68.3086,17.2813 C68.4622,17.2292 68.5938,17.151 68.7031,17.0469 C68.8125,16.9427 68.8958,16.8151 68.9531,16.6641 L70.4922,16.7656 C70.4141,17.1354 70.2546,17.4577 70.0137,17.7324 C69.7728,18.0072 69.4629,18.2207 69.084,18.373 C68.7051,18.5254 68.2682,18.6016 67.7734,18.6016 M74.793,12.4844 L74.793,13.7344 L71.1797,13.7344 L71.1797,12.4844 L74.793,12.4844 M72,11.0469 L73.6641,11.0469 L73.6641,16.6406 C73.6641,16.7943 73.6875,16.9134 73.7344,16.998 C73.7813,17.0827 73.847,17.1419 73.9316,17.1758 C74.0163,17.2096 74.1146,17.2266 74.2266,17.2266 C74.3047,17.2266 74.3828,17.2194 74.4609,17.2051 C74.5391,17.1908 74.599,17.1797 74.6406,17.1719 L74.9023,18.4102 C74.819,18.4362 74.7018,18.4668 74.5508,18.502 C74.3997,18.5371 74.2161,18.5586 74,18.5664 C73.599,18.582 73.248,18.5286 72.9473,18.4063 C72.6465,18.2839 72.4128,18.0938 72.2461,17.8359 C72.0794,17.5781 71.9974,17.2526 72,16.8594 L72,11.0469"/>
</g>

<g fill="#ffffff" fill-opacity="1" stroke="none" transform="matrix(1,0,0,1,0,0)"
font-family="Inter" font-size="11" font-weight="700" font-style="normal" 
>
<path vector-effect="none" fill-rule="nonzero" d="M171.133,21.0781 L171.133,12.8281 L172.773,12.8281 L172.773,13.8359 L172.848,13.8359 C172.921,13.6745 173.027,13.5098 173.166,13.3418 C173.305,13.1738 173.488,13.0332 173.713,12.9199 C173.938,12.8066 174.219,12.75 174.555,12.75 C174.992,12.75 175.396,12.8639 175.766,13.0918 C176.135,13.3197 176.431,13.6621 176.652,14.1191 C176.874,14.5762 176.984,15.1484 176.984,15.8359 C176.984,16.5052 176.877,17.0697 176.662,17.5293 C176.447,17.9889 176.156,18.3366 175.787,18.5723 C175.419,18.8079 175.007,18.9258 174.551,18.9258 C174.228,18.9258 173.954,18.8724 173.729,18.7656 C173.503,18.6589 173.319,18.5241 173.176,18.3613 C173.033,18.1986 172.923,18.0339 172.848,17.8672 L172.797,17.8672 L172.797,21.0781 L171.133,21.0781 M172.762,15.8281 C172.762,16.1849 172.811,16.4961 172.91,16.7617 C173.009,17.0273 173.152,17.2337 173.34,17.3809 C173.527,17.528 173.755,17.6016 174.023,17.6016 C174.294,17.6016 174.523,17.5267 174.711,17.377 C174.898,17.2272 175.041,17.0189 175.139,16.752 C175.236,16.485 175.285,16.1771 175.285,15.8281 C175.285,15.4818 175.237,15.1771 175.141,14.9141 C175.044,14.651 174.902,14.4453 174.715,14.2969 C174.527,14.1484 174.297,14.0742 174.023,14.0742 C173.753,14.0742 173.524,14.1458 173.338,14.2891 C173.152,14.4323 173.009,14.6354 172.91,14.8984 C172.811,15.1615 172.762,15.4714 172.762,15.8281 M180.797,18.9453 C180.19,18.9453 179.666,18.8158 179.225,18.5566 C178.783,18.2975 178.443,17.9355 178.203,17.4707 C177.964,17.0059 177.844,16.4661 177.844,15.8516 C177.844,15.2318 177.964,14.6895 178.203,14.2246 C178.443,13.7598 178.783,13.3978 179.225,13.1387 C179.666,12.8796 180.19,12.75 180.797,12.75 C181.404,12.75 181.928,12.8796 182.369,13.1387 C182.811,13.3978 183.151,13.7598 183.391,14.2246 C183.63,14.6895 183.75,15.2318 183.75,15.8516 C183.75,16.4661 183.63,17.0059 183.391,17.4707 C183.151,17.9355 182.811,18.2975 182.369,18.5566 C181.928,18.8158 181.404,18.9453 180.797,18.9453 M180.805,17.6563 C181.081,17.6563 181.311,17.5775 181.496,17.4199 C181.681,17.2624 181.821,17.0469 181.916,16.7734 C182.011,16.5 182.059,16.1888 182.059,15.8398 C182.059,15.4909 182.011,15.1797 181.916,14.9063 C181.821,14.6328 181.681,14.4167 181.496,14.2578 C181.311,14.099 181.081,14.0195 180.805,14.0195 C180.526,14.0195 180.292,14.099 180.104,14.2578 C179.915,14.4167 179.773,14.6328 179.678,14.9063 C179.583,15.1797 179.535,15.4909 179.535,15.8398 C179.535,16.1888 179.583,16.5 179.678,16.7734 C179.773,17.0469 179.915,17.2624 180.104,17.4199 C180.292,17.5775 180.526,17.6563 180.805,17.6563 M185.879,18.8281 L184.246,12.8281 L185.93,12.8281 L186.859,16.8594 L186.914,16.8594 L187.883,12.8281 L189.535,12.8281 L190.52,16.8359 L190.57,16.8359 L191.484,12.8281 L193.164,12.8281 L191.535,18.8281 L189.773,18.8281 L188.742,15.0547 L188.668,15.0547 L187.637,18.8281 L185.879,18.8281 M196.633,18.9453 C196.016,18.9453 195.485,18.8197 195.041,18.5684 C194.597,18.3171 194.255,17.9603 194.016,17.498 C193.776,17.0358 193.656,16.4883 193.656,15.8555 C193.656,15.2383 193.776,14.6966 194.016,14.2305 C194.255,13.7643 194.593,13.401 195.029,13.1406 C195.465,12.8802 195.978,12.75 196.566,12.75 C196.962,12.75 197.331,12.8132 197.674,12.9395 C198.016,13.0658 198.316,13.2552 198.572,13.5078 C198.829,13.7604 199.029,14.0775 199.172,14.459 C199.315,14.8405 199.387,15.2865 199.387,15.7969 L199.387,16.2539 L194.32,16.2539 L194.32,15.2227 L197.82,15.2227 C197.82,14.9831 197.768,14.7708 197.664,14.5859 C197.56,14.401 197.416,14.2559 197.232,14.1504 C197.049,14.0449 196.836,13.9922 196.594,13.9922 C196.341,13.9922 196.118,14.0501 195.924,14.166 C195.73,14.2819 195.578,14.4368 195.469,14.6309 C195.359,14.8249 195.303,15.0404 195.301,15.2773 L195.301,16.2578 C195.301,16.5547 195.356,16.8112 195.467,17.0273 C195.577,17.2435 195.734,17.4102 195.938,17.5273 C196.141,17.6445 196.382,17.7031 196.66,17.7031 C196.845,17.7031 197.014,17.6771 197.168,17.625 C197.322,17.5729 197.453,17.4948 197.563,17.3906 C197.672,17.2865 197.755,17.1589 197.813,17.0078 L199.352,17.1094 C199.273,17.4792 199.114,17.8014 198.873,18.0762 C198.632,18.3509 198.322,18.5645 197.943,18.7168 C197.564,18.8691 197.128,18.9453 196.633,18.9453 M200.461,18.8281 L200.461,12.8281 L202.074,12.8281 L202.074,13.875 L202.137,13.875 C202.246,13.5026 202.43,13.2207 202.688,13.0293 C202.945,12.8379 203.242,12.7422 203.578,12.7422 C203.661,12.7422 203.751,12.7474 203.848,12.7578 C203.944,12.7682 204.029,12.7826 204.102,12.8008 L204.102,14.2773 C204.023,14.2539 203.915,14.2331 203.777,14.2148 C203.639,14.1966 203.513,14.1875 203.398,14.1875 C203.154,14.1875 202.936,14.2402 202.744,14.3457 C202.553,14.4512 202.402,14.5977 202.291,14.7852 C202.18,14.9727 202.125,15.1888 202.125,15.4336 L202.125,18.8281 L200.461,18.8281 M207.492,18.8281 L207.492,12.8281 L209.078,12.8281 L209.078,13.8867 L209.148,13.8867 C209.273,13.5352 209.482,13.2578 209.773,13.0547 C210.065,12.8516 210.414,12.75 210.82,12.75 C211.232,12.75 211.582,12.8522 211.871,13.0566 C212.16,13.2611 212.353,13.5378 212.449,13.8867 L212.512,13.8867 C212.634,13.543 212.856,13.2676 213.178,13.0605 C213.499,12.8535 213.88,12.75 214.32,12.75 C214.88,12.75 215.335,12.9277 215.686,13.2832 C216.036,13.6387 216.211,14.1419 216.211,14.793 L216.211,18.8281 L214.551,18.8281 L214.551,15.1211 C214.551,14.7878 214.462,14.5378 214.285,14.3711 C214.108,14.2044 213.887,14.1211 213.621,14.1211 C213.319,14.1211 213.083,14.2168 212.914,14.4082 C212.745,14.5996 212.66,14.8516 212.66,15.1641 L212.66,18.8281 L211.047,18.8281 L211.047,15.0859 C211.047,14.7917 210.963,14.5573 210.795,14.3828 C210.627,14.2083 210.406,14.1211 210.133,14.1211 C209.948,14.1211 209.782,14.1673 209.635,14.2598 C209.488,14.3522 209.371,14.4811 209.285,14.6465 C209.199,14.8118 209.156,15.0052 209.156,15.2266 L209.156,18.8281 L207.492,18.8281 M220.234,18.9453 C219.628,18.9453 219.104,18.8158 218.662,18.5566 C218.221,18.2975 217.88,17.9355 217.641,17.4707 C217.401,17.0059 217.281,16.4661 217.281,15.8516 C217.281,15.2318 217.401,14.6895 217.641,14.2246 C217.88,13.7598 218.221,13.3978 218.662,13.1387 C219.104,12.8796 219.628,12.75 220.234,12.75 C220.841,12.75 221.365,12.8796 221.807,13.1387 C222.248,13.3978 222.589,13.7598 222.828,14.2246 C223.068,14.6895 223.188,15.2318 223.188,15.8516 C223.188,16.4661 223.068,17.0059 222.828,17.4707 C222.589,17.9355 222.248,18.2975 221.807,18.5566 C221.365,18.8158 220.841,18.9453 220.234,18.9453 M220.242,17.6563 C220.518,17.6563 220.749,17.5775 220.934,17.4199 C221.118,17.2624 221.258,17.0469 221.354,16.7734 C221.449,16.5 221.496,16.1888 221.496,15.8398 C221.496,15.4909 221.449,15.1797 221.354,14.9063 C221.258,14.6328 221.118,14.4167 220.934,14.2578 C220.749,14.099 220.518,14.0195 220.242,14.0195 C219.964,14.0195 219.73,14.099 219.541,14.2578 C219.352,14.4167 219.21,14.6328 219.115,14.9063 C219.02,15.1797 218.973,15.4909 218.973,15.8398 C218.973,16.1888 219.02,16.5 219.115,16.7734 C219.21,17.0469 219.352,17.2624 219.541,17.4199 C219.73,17.5775 219.964,17.6563 220.242,17.6563 M226.484,18.9258 C226.029,18.9258 225.617,18.8079 225.248,18.5723 C224.88,18.3366 224.588,17.9889 224.373,17.5293 C224.158,17.0697 224.051,16.5052 224.051,15.8359 C224.051,15.1484 224.161,14.5762 224.383,14.1191 C224.604,13.6621 224.899,13.3197 225.268,13.0918 C225.636,12.8639 226.04,12.75 226.48,12.75 C226.816,12.75 227.097,12.8066 227.322,12.9199 C227.548,13.0332 227.73,13.1738 227.869,13.3418 C228.008,13.5098 228.115,13.6745 228.188,13.8359 L228.238,13.8359 L228.238,10.8281 L229.898,10.8281 L229.898,18.8281 L228.258,18.8281 L228.258,17.8672 L228.188,17.8672 C228.109,18.0339 227.999,18.1986 227.857,18.3613 C227.715,18.5241 227.532,18.6589 227.307,18.7656 C227.081,18.8724 226.807,18.9258 226.484,18.9258 M227.012,17.6016 C227.28,17.6016 227.507,17.528 227.693,17.3809 C227.88,17.2337 228.023,17.0273 228.123,16.7617 C228.223,16.4961 228.273,16.1849 228.273,15.8281 C228.273,15.4714 228.224,15.1615 228.125,14.8984 C228.026,14.6354 227.883,14.4323 227.695,14.2891 C227.508,14.1458 227.28,14.0742 227.012,14.0742 C226.738,14.0742 226.508,14.1484 226.32,14.2969 C226.133,14.4453 225.991,14.651 225.895,14.9141 C225.798,15.1771 225.75,15.4818 225.75,15.8281 C225.75,16.1771 225.799,16.485 225.896,16.752 C225.994,17.0189 226.136,17.2272 226.322,17.377 C226.508,17.5267 226.738,17.6016 227.012,17.6016 M233.992,18.9453 C233.375,18.9453 232.844,18.8197 232.4,18.5684 C231.956,18.3171 231.615,17.9603 231.375,17.498 C231.135,17.0358 231.016,16.4883 231.016,15.8555 C231.016,15.2383 231.135,14.6966 231.375,14.2305 C231.615,13.7643 231.952,13.401 232.389,13.1406 C232.825,12.8802 233.337,12.75 233.926,12.75 C234.322,12.75 234.691,12.8132 235.033,12.9395 C235.376,13.0658 235.675,13.2552 235.932,13.5078 C236.188,13.7604 236.388,14.0775 236.531,14.459 C236.674,14.8405 236.746,15.2865 236.746,15.7969 L236.746,16.2539 L231.68,16.2539 L231.68,15.2227 L235.18,15.2227 C235.18,14.9831 235.128,14.7708 235.023,14.5859 C234.919,14.401 234.775,14.2559 234.592,14.1504 C234.408,14.0449 234.195,13.9922 233.953,13.9922 C233.701,13.9922 233.477,14.0501 233.283,14.166 C233.089,14.2819 232.938,14.4368 232.828,14.6309 C232.719,14.8249 232.663,15.0404 232.66,15.2773 L232.66,16.2578 C232.66,16.5547 232.715,16.8112 232.826,17.0273 C232.937,17.2435 233.094,17.4102 233.297,17.5273 C233.5,17.6445 233.741,17.7031 234.02,17.7031 C234.204,17.7031 234.374,17.6771 234.527,17.625 C234.681,17.5729 234.813,17.4948 234.922,17.3906 C235.031,17.2865 235.115,17.1589 235.172,17.0078 L236.711,17.1094 C236.633,17.4792 236.473,17.8014 236.232,18.0762 C235.992,18.3509 235.682,18.5645 235.303,18.7168 C234.924,18.8691 234.487,18.9453 233.992,18.9453 M242.078,18.9414 C241.695,18.9414 241.354,18.8743 241.055,18.7402 C240.755,18.6061 240.519,18.4069 240.346,18.1426 C240.173,17.8783 240.086,17.5482 240.086,17.1523 C240.086,16.819 240.147,16.5391 240.27,16.3125 C240.392,16.0859 240.559,15.9036 240.77,15.7656 C240.98,15.6276 241.221,15.5234 241.49,15.4531 C241.76,15.3828 242.043,15.3333 242.34,15.3047 C242.689,15.2682 242.97,15.2337 243.184,15.2012 C243.397,15.1686 243.552,15.1198 243.648,15.0547 C243.745,14.9896 243.793,14.8932 243.793,14.7656 L243.793,14.7422 C243.793,14.4948 243.715,14.3034 243.561,14.168 C243.406,14.0326 243.186,13.9648 242.902,13.9648 C242.603,13.9648 242.365,14.0306 242.188,14.1621 C242.01,14.2936 241.893,14.4583 241.836,14.6563 L240.297,14.5313 C240.375,14.1667 240.529,13.8509 240.758,13.584 C240.987,13.3171 241.283,13.1113 241.646,12.9668 C242.01,12.8223 242.431,12.75 242.91,12.75 C243.243,12.75 243.563,12.7891 243.869,12.8672 C244.175,12.9453 244.447,13.0664 244.686,13.2305 C244.924,13.3945 245.112,13.6048 245.25,13.8613 C245.388,14.1178 245.457,14.4245 245.457,14.7813 L245.457,18.8281 L243.879,18.8281 L243.879,17.9961 L243.832,17.9961 C243.736,18.1836 243.607,18.3483 243.445,18.4902 C243.284,18.6322 243.09,18.7428 242.863,18.8223 C242.637,18.9017 242.375,18.9414 242.078,18.9414 M242.555,17.793 C242.799,17.793 243.016,17.7441 243.203,17.6465 C243.391,17.5488 243.538,17.4167 243.645,17.25 C243.751,17.0833 243.805,16.8945 243.805,16.6836 L243.805,16.0469 C243.753,16.0807 243.682,16.1113 243.592,16.1387 C243.502,16.166 243.401,16.1908 243.289,16.2129 C243.177,16.235 243.065,16.2546 242.953,16.2715 C242.841,16.2884 242.74,16.3034 242.648,16.3164 C242.453,16.3451 242.283,16.3906 242.137,16.4531 C241.991,16.5156 241.878,16.5996 241.797,16.7051 C241.716,16.8105 241.676,16.9414 241.676,17.0977 C241.676,17.3242 241.758,17.4967 241.924,17.6152 C242.089,17.7337 242.299,17.793 242.555,17.793 M251.734,14.5391 L250.211,14.6328 C250.185,14.5026 250.129,14.3848 250.043,14.2793 C249.957,14.1738 249.844,14.0892 249.705,14.0254 C249.566,13.9616 249.4,13.9297 249.207,13.9297 C248.949,13.9297 248.732,13.9837 248.555,14.0918 C248.378,14.1999 248.289,14.3438 248.289,14.5234 C248.289,14.6667 248.346,14.7878 248.461,14.8867 C248.576,14.9857 248.772,15.0651 249.051,15.125 L250.137,15.3438 C250.72,15.4635 251.155,15.6563 251.441,15.9219 C251.728,16.1875 251.871,16.5365 251.871,16.9688 C251.871,17.362 251.756,17.707 251.525,18.0039 C251.295,18.3008 250.98,18.5319 250.58,18.6973 C250.18,18.8626 249.72,18.9453 249.199,18.9453 C248.405,18.9453 247.773,18.7793 247.303,18.4473 C246.833,18.1152 246.557,17.6628 246.477,17.0898 L248.113,17.0039 C248.163,17.2461 248.283,17.4303 248.473,17.5566 C248.663,17.6829 248.906,17.7461 249.203,17.7461 C249.495,17.7461 249.73,17.6895 249.908,17.5762 C250.087,17.4629 250.177,17.3164 250.18,17.1367 C250.177,16.9857 250.113,16.8613 249.988,16.7637 C249.863,16.666 249.671,16.5911 249.41,16.5391 L248.371,16.332 C247.785,16.2148 247.35,16.0117 247.064,15.7227 C246.779,15.4336 246.637,15.0651 246.637,14.6172 C246.637,14.2318 246.742,13.8997 246.951,13.6211 C247.161,13.3424 247.456,13.1276 247.838,12.9766 C248.219,12.8255 248.667,12.75 249.18,12.75 C249.938,12.75 250.535,12.9102 250.971,13.2305 C251.407,13.5508 251.661,13.987 251.734,14.5391 "/>
</g>

<g fill="#ffffff" fill-opacity="1" stroke="none" transform="matrix(0.228,0,0,0.228,11.6,4.6)"
font-family="Inter" font-size="11" font-weight="700" font-style="normal" 
>
<path vector-effect="none" fill-rule="nonzero" d="M30.3865,12.7593 C30.0195,12.7593 29.7239,13.029 29.7239,13.364 L29.7239,86.636 C29.7239,86.9711 30.0195,87.2407 30.3865,87.2407 L69.6135,87.2407 C69.9805,87.2407 70.2761,86.9711 70.2761,86.636 L70.2761,13.364 C70.2761,13.029 69.9805,12.7593 69.6135,12.7593 L30.3865,12.7593 M45.8459,44.1785 C46.9899,44.1782 47.9175,45.1053 47.918,46.2493 L47.918,46.25 C47.9179,47.3941 46.9905,48.3215 45.8464,48.3215 C44.7024,48.3216 43.7748,47.3943 43.7747,46.2502 C43.7746,45.1062 44.7019,44.1786 45.8459,44.1785 M53.9399,44.1785 C55.0839,44.1782 56.0115,45.1053 56.012,46.2493 L56.012,46.25 C56.0119,47.3941 55.0845,48.3215 53.9404,48.3215 C52.7964,48.3216 51.8688,47.3943 51.8687,46.2502 C51.8686,45.1062 52.7959,44.1786 53.9399,44.1785 M49.656,51.873 C51.2364,51.8726 52.8199,51.8854 53.1685,51.9128 C53.8656,51.9678 55.5307,54.6647 54.4849,54.698 C53.439,54.7312 45.7358,54.6611 44.8074,54.7197 C43.8789,54.7784 45.4885,51.9644 46.1616,51.9128 C46.4982,51.8871 48.0756,51.8735 49.656,51.873 M44.9905,82.0313 L55.0095,82.0313 C55.0166,82.0313 55.0225,82.0369 55.0225,82.0439 L55.0225,85.8271 C55.0225,85.8342 55.0166,85.8398 55.0095,85.8398 L44.9905,85.8398 C44.9834,85.8398 44.9775,85.8342 44.9775,85.8271 L44.9775,82.0439 C44.9775,82.0369 44.9834,82.0313 44.9905,82.0313 "/>
</g>

<g fill="none" stroke="#000000" stroke-opacity="1" stroke-width="1.11219" stroke-linecap="round" stroke-linejoin="round" transform="matrix(0.228,0,0,0.228,11.6,4.6)"
font-family="Inter" font-size="11" font-weight="700" font-style="normal" 
>
<path vector-effect="none" fill-rule="nonzero" d="M30.3865,12.7593 C30.0195,12.7593 29.7239,13.029 29.7239,13.364 L29.7239,86.636 C29.7239,86.9711 30.0195,87.2407 30.3865,87.2407 L69.6135,87.2407 C69.9805,87.2407 70.2761,86.9711 70.2761,86.636 L70.2761,13.364 C70.2761,13.029 69.9805,12.7593 69.6135,12.7593 L30.3865,12.7593 M45.8459,44.1785 C46.9899,44.1782 47.9175,45.1053 47.918,46.2493 L47.918,46.25 C47.9179,47.3941 46.9905,48.3215 45.8464,48.3215 C44.7024,48.3216 43.7748,47.3943 43.7747,46.2502 C43.7746,45.1062 44.7019,44.1786 45.8459,44.1785 M53.9399,44.1785 C55.0839,44.1782 56.0115,45.1053 56.012,46.2493 L56.012,46.25 C56.0119,47.3941 55.0845,48.3215 53.9404,48.3215 C52.7964,48.3216 51.8688,47.3943 51.8687,46.2502 C51.8686,45.1062 52.7959,44.1786 53.9399,44.1785 M49.656,51.873 C51.2364,51.8726 52.8199,51.8854 53.1685,51.9128 C53.8656,51.9678 55.5307,54.6647 54.4849,54.698 C53.439,54.7312 45.7358,54.6611 44.8074,54.7197 C43.8789,54.7784 45.4885,51.9644 46.1616,51.9128 C46.4982,51.8871 48.0756,51.8735 49.656,51.873 M44.9905,82.0313 L55.0095,82.0313 C55.0166,82.0313 55.0225,82.0369 55.0225,82.0439 L55.0225,85.8271 C55.0225,85.8342 55.0166,85.8398 55.0095,85.8398 L44.9905,85.8398 C44.9834,85.8398 44.9775,85.8342 44.9775,85.8271 L44.9775,82.0439 C44.9775,82.0369 44.9834,82.0313 44.9905,82.0313 "/>
</g>

<g fill="none" stroke="#000000" stroke-opacity="1" stroke-width="1.47647" stroke-linecap="round" stroke-linejoin="round" transform="matrix(0.228,0,0,0.228,11.6,4.6)"
font-family="Inter" font-size="11" font-weight="700" font-style="normal" 
>
<path vector-effect="none" fill-rule="nonzero" d="M30.3826,12.341 C30.0156,12.341 29.7201,12.6138 29.7201,12.9526 L29.7201,87.0474 C29.7201,87.3862 30.0156,87.659 30.3826,87.659 L69.6174,87.659 C69.9844,87.659 70.2799,87.3862 70.2799,87.0474 L70.2799,12.9526 C70.2799,12.6138 69.9844,12.341 69.6174,12.341 L30.3826,12.341"/>
</g>

<g fill="#ffffff" fill-opacity="1" stroke="none" transform="matrix(0.259165,0,0,0.259165,7.72135,2.27376)"
font-family="Inter" font-size="11" font-weight="700" font-style="normal" 
>
<path vector-effect="none" fill-rule="evenodd" d="M43.9298,32.0312 C43.9298,31.8609 44.0679,31.7227 44.2383,31.7227 L56.25,31.7227 C56.4204,31.7227 56.5585,31.8609 56.5585,32.0312 C56.5585,32.2016 56.4204,32.3398 56.25,32.3398 L44.2383,32.3398 C44.0679,32.3398 43.9298,32.2016 43.9298,32.0312 "/>
</g>

<g fill="none" stroke="#000000" stroke-opacity="1" stroke-width="0.878639" stroke-linecap="round" stroke-linejoin="round" transform="matrix(0.259165,0,0,0.259165,7.72135,2.27376)"
font-family="Inter" font-size="11" font-weight="700" font-style="normal" 
>
<path vector-effect="none" fill-rule="evenodd" d="M43.9298,32.0312 C43.9298,31.8609 44.0679,31.7227 44.2383,31.7227 L56.25,31.7227 C56.4204,31.7227 56.5585,31.8609 56.5585,32.0312 C56.5585,32.2016 56.4204,32.3398 56.25,32.3398 L44.2383,32.3398 C44.0679,32.3398 43.9298,32.2016 43.9298,32.0312 "/>
</g>

<g fill="#ffffff" fill-opacity="1" stroke="none" transform="matrix(0.259165,0,0,0.259165,7.72135,2.27376)"
font-family="Inter" font-size="11" font-weight="700" font-style="normal" 
>
<path vector-effect="none" fill-rule="evenodd" d="M43.9786,29.1016 C43.9786,28.9312 44.1167,28.793 44.2871,28.793 L56.2988,28.793 C56.4692,28.793 56.6074,28.9312 56.6074,29.1016 C56.6074,29.272 56.4692,29.4101 56.2988,29.4101 L44.2871,29.4101 C44.1167,29.4101 43.9786,29.272 43.9786,29.1016 "/>
</g>

<g fill="none" stroke="#000000" stroke-opacity="1" stroke-width="0.878639" stroke-linecap="round" stroke-linejoin="round" transform="matrix(0.259165,0,0,0.259165,7.72135,2.27376)"
font-family="Inter" font-size="11" font-weight="700" font-style="normal" 
>
<path vector-effect="none" fill-rule="evenodd" d="M43.9786,29.1016 C43.9786,28.9312 44.1167,28.793 44.2871,28.793 L56.2988,28.793 C56.4692,28.793 56.6074,28.9312 56.6074,29.1016 C56.6074,29.272 56.4692,29.4101 56.2988,29.4101 L44.2871,29.4101 C44.1167,29.4101 43.9786,29.272 43.9786,29.1016 "/>
</g>

<g fill="#ffffff" fill-opacity="1" stroke="none" transform="matrix(0.259165,0,0,0.259165,7.72135,2.27376)"
font-family="Inter" font-size="11" font-weight="700" font-style="normal" 
>
<path vector-effect="none" fill-rule="evenodd" d="M46.4813,27.1552 C46.4813,27.0313 46.5817,26.9308 46.7057,26.9308 L46.7057,26.9308 C46.8296,26.9308 46.9301,27.0313 46.9301,27.1552 L46.9301,28.3637 C46.9301,28.4876 46.8296,28.5881 46.7057,28.5881 L46.7057,28.5881 C46.5817,28.5881 46.4813,28.4876 46.4813,28.3637 L46.4813,27.1552"/>
</g>

<g fill="none" stroke="#000000" stroke-opacity="1" stroke-width="0.90975" stroke-linecap="round" stroke-linejoin="round" transform="matrix(0.259165,0,0,0.259165,7.72135,2.27376)"
font-family="Inter" font-size="11" font-weight="700" font-style="normal" 
>
<path vector-effect="none" fill-rule="evenodd" d="M46.4813,27.1552 C46.4813,27.0313 46.5817,26.9308 46.7057,26.9308 L46.7057,26.9308 C46.8296,26.9308 46.9301,27.0313 46.9301,27.1552 L46.9301,28.3637 C46.9301,28.4876 46.8296,28.5881 46.7057,28.5881 L46.7057,28.5881 C46.5817,28.5881 46.4813,28.4876 46.4813,28.3637 L46.4813,27.1552"/>
</g>

<g fill="#ffffff" fill-opacity="1" stroke="none" transform="matrix(0.259165,0,0,0.259165,7.72135,2.27376)"
font-family="Inter" font-size="11" font-weight="700" font-style="normal" 
>
<path vector-effect="none" fill-rule="evenodd" d="M53.7063,27.1207 C53.7063,26.9968 53.8068,26.8963 53.9307,26.8963 L53.9307,26.8963 C54.0546,26.8963 54.1551,26.9968 54.1551,27.1207 L54.1551,28.3292 C54.1551,28.4531 54.0546,28.5536 53.9307,28.5536 L53.9307,28.5536 C53.8068,28.5536 53.7063,28.4531 53.7063,28.3292 L53.7063,27.1207"/>
</g>

<g fill="none" stroke="#000000" stroke-opacity="1" stroke-width="0.90975" stroke-linecap="round" stroke-linejoin="round" transform="matrix(0.259165,0,0,0.259165,7.72135,2.27376)"
font-family="Inter" font-size="11" font-weight="700" font-style="normal" 
>
<path vector-effect="none" fill-rule="evenodd" d="M53.7063,27.1207 C53.7063,26.9968 53.8068,26.8963 53.9307,26.8963 L53.9307,26.8963 C54.0546,26.8963 54.1551,26.9968 54.1551,27.1207 L54.1551,28.3292 C54.1551,28.4531 54.0546,28.5536 53.9307,28.5536 L53.9307,28.5536 C53.8068,28.5536 53.7063,28.4531 53.7063,28.3292 L53.7063,27.1207"/>
</g>

<g fill="#ffffff" fill-opacity="1" stroke="none" transform="matrix(0.259165,0,0,0.259165,12.223,2.25954)"
font-family="Inter" font-size="11" font-weight="700" font-style="normal" 
>
<path vector-effect="none" fill-rule="evenodd" d="M43.9298,32.0312 C43.9298,31.8609 44.0679,31.7227 44.2383,31.7227 L56.25,31.7227 C56.4204,31.7227 56.5585,31.8609 56.5585,32.0312 C56.5585,32.2016 56.4204,32.3398 56.25,32.3398 L44.2383,32.3398 C44.0679,32.3398 43.9298,32.2016 43.9298,32.0312 "/>
</g>

<g fill="none" stroke="#000000" stroke-opacity="1" stroke-width="0.878639" stroke-linecap="round" stroke-linejoin="round" transform="matrix(0.259165,0,0,0.259165,12.223,2.25954)"
font-family="Inter" font-size="11" font-weight="700" font-style="normal" 
>
<path vector-effect="none" fill-rule="evenodd" d="M43.9298,32.0312 C43.9298,31.8609 44.0679,31.7227 44.2383,31.7227 L56.25,31.7227 C56.4204,31.7227 56.5585,31.8609 56.5585,32.0312 C56.5585,32.2016 56.4204,32.3398 56.25,32.3398 L44.2383,32.3398 C44.0679,32.3398 43.9298,32.2016 43.9298,32.0312 "/>
</g>

<g fill="#ffffff" fill-opacity="1" stroke="none" transform="matrix(0.259165,0,0,0.259165,12.223,2.25954)"
font-family="Inter" font-size="11" font-weight="700" font-style="normal" 
>
<path vector-effect="none" fill-rule="evenodd" d="M43.9786,29.1016 C43.9786,28.9312 44.1167,28.793 44.2871,28.793 L56.2988,28.793 C56.4692,28.793 56.6074,28.9312 56.6074,29.1016 C56.6074,29.272 56.4692,29.4101 56.2988,29.4101 L44.2871,29.4101 C44.1167,29.4101 43.9786,29.272 43.9786,29.1016 "/>
</g>

<g fill="none" stroke="#000000" stroke-opacity="1" stroke-width="0.878639" stroke-linecap="round" stroke-linejoin="round" transform="matrix(0.259165,0,0,0.259165,12.223,2.25954)"
font-family="Inter" font-size="11" font-weight="700" font-style="normal" 
>
<path vector-effect="none" fill-rule="evenodd" d="M43.9786,29.1016 C43.9786,28.9312 44.1167,28.793 44.2871,28.793 L56.2988,28.793 C56.4692,28.793 56.6074,28.9312 56.6074,29.1016 C56.6074,29.272 56.4692,29.4101 56.2988,29.4101 L44.2871,29.4101 C44.1167,29.4101 43.9786,29.272 43.9786,29.1016 "/>
</g>

<g fill="#ffffff" fill-opacity="1" stroke="none" transform="matrix(0.259165,0,0,0.259165,12.223,2.25954)"
font-family="Inter" font-size="11" font-weight="700" font-style="normal" 
>
<path vector-effect="none" fill-rule="evenodd" d="M46.4813,27.1552 C46.4813,27.0313 46.5817,26.9308 46.7057,26.9308 L46.7057,26.9308 C46.8296,26.9308 46.9301,27.0313 46.9301,27.1552 L46.9301,28.3637 C46.9301,28.4876 46.8296,28.5881 46.7057,28.5881 L46.7057,28.5881 C46.5817,28.5881 46.4813,28.4876 46.4813,28.3637 L46.4813,27.1552"/>
</g>

<g fill="none" stroke="#000000" stroke-opacity="1" stroke-width="0.90975" stroke-linecap="round" stroke-linejoin="round" transform="matrix(0.259165,0,0,0.259165,12.223,2.25954)"
font-family="Inter" font-size="11" font-weight="700" font-style="normal" 
>
<path vector-effect="none" fill-rule="evenodd" d="M46.4813,27.1552 C46.4813,27.0313 46.5817,26.9308 46.7057,26.9308 L46.7057,26.9308 C46.8296,26.9308 46.9301,27.0313 46.9301,27.1552 L46.9301,28.3637 C46.9301,28.4876 46.8296,28.5881 46.7057,28.5881 L46.7057,28.5881 C46.5817,28.5881 46.4813,28.4876 46.4813,28.3637 L46.4813,27.1552"/>
</g>

<g fill="#ffffff" fill-opacity="1" stroke="none" transform="matrix(0.259165,0,0,0.259165,12.223,2.25954)"
font-family="Inter" font-size="11" font-weight="700" font-style="normal" 
>
<path vector-effect="none" fill-rule="evenodd" d="M53.7063,27.1207 C53.7063,26.9968 53.8068,26.8963 53.9307,26.8963 L53.9307,26.8963 C54.0546,26.8963 54.1551,26.9968 54.1551,27.1207 L54.1551,28.3292 C54.1551,28.4531 54.0546,28.5536 53.9307,28.5536 L53.9307,28.5536 C53.8068,28.5536 53.7063,28.4531 53.7063,28.3292 L53.7063,27.1207"/>
</g>

<g fill="none" stroke="#000000" stroke-opacity="1" stroke-width="0.90975" stroke-linecap="round" stroke-linejoin="round" transform="matrix(0.259165,0,0,0.259165,12.223,2.25954)"
font-family="Inter" font-size="11" font-weight="700" font-style="normal" 
>
<path vector-effect="none" fill-rule="evenodd" d="M53.7063,27.1207 C53.7063,26.9968 53.8068,26.8963 53.9307,26.8963 L53.9307,26.8963 C54.0546,26.8963 54.1551,26.9968 54.1551,27.1207 L54.1551,28.3292 C54.1551,28.4531 54.0546,28.5536 53.9307,28.5536 L53.9307,28.5536 C53.8068,28.5536 53.7063,28.4531 53.7063,28.3292 L53.7063,27.1207"/>
</g>

<g fill="#ffffff" fill-opacity="1" stroke="none" transform="matrix(0.259165,0,0,-0.259165,7.72135,29.6907)"
font-family="Inter" font-size="11" font-weight="700" font-style="normal" 
>
<path vector-effect="none" fill-rule="evenodd" d="M43.9298,32.0312 C43.9298,31.8609 44.0679,31.7227 44.2383,31.7227 L56.25,31.7227 C56.4204,31.7227 56.5585,31.8609 56.5585,32.0312 C56.5585,32.2016 56.4204,32.3398 56.25,32.3398 L44.2383,32.3398 C44.0679,32.3398 43.9298,32.2016 43.9298,32.0312 "/>
</g>

<g fill="none" stroke="#000000" stroke-opacity="1" stroke-width="0.878639" stroke-linecap="round" stroke-linejoin="round" transform="matrix(0.259165,0,0,-0.259165,7.72135,29.6907)"
font-family="Inter" font-size="11" font-weight="700" font-style="normal" 
>
<path vector-effect="none" fill-rule="evenodd" d="M43.9298,32.0312 C43.9298,31.8609 44.0679,31.7227 44.2383,31.7227 L56.25,31.7227 C56.4204,31.7227 56.5585,31.8609 56.5585,32.0312 C56.5585,32.2016 56.4204,32.3398 56.25,32.3398 L44.2383,32.3398 C44.0679,32.3398 43.9298,32.2016 43.9298,32.0312 "/>
</g>

<g fill="#ffffff" fill-opacity="1" stroke="none" transform="matrix(0.259165,0,0,-0.259165,7.72135,29.6907)"
font-family="Inter" font-size="11" font-weight="700" font-style="normal" 
>
<path vector-effect="none" fill-rule="evenodd" d="M43.9786,29.1016 C43.9786,28.9312 44.1167,28.793 44.2871,28.793 L56.2988,28.793 C56.4692,28.793 56.6074,28.9312 56.6074,29.1016 C56.6074,29.272 56.4692,29.4101 56.2988,29.4101 L44.2871,29.4101 C44.1167,29.4101 43.9786,29.272 43.9786,29.1016 "/>
</g>

<g fill="none" stroke="#000000" stroke-opacity="1" stroke-width="0.878639" stroke-linecap="round" stroke-linejoin="round" transform="matrix(0.259165,0,0,-0.259165,7.72135,29.6907)"
font-family="Inter" font-size="11" font-weight="700" font-style="normal" 
>
<path vector-effect="none" fill-rule="evenodd" d="M43.9786,29.1016 C43.9786,28.9312 44.1167,28.793 44.2871,28.793 L56.2988,28.793 C56.4692,28.793 56.6074,28.9312 56.6074,29.1016 C56.6074,29.272 56.4692,29.4101 56.2988,29.4101 L44.2871,29.4101 C44.1167,29.4101 43.9786,29.272 43.9786,29.1016 "/>
</g>

<g fill="#ffffff" fill-opacity="1" stroke="none" transform="matrix(0.259165,0,0,-0.259165,7.72135,29.6907)"
font-family="Inter" font-size="11" font-weight="700" font-style="normal" 
>
<path vector-effect="none" fill-rule="evenodd" d="M46.4813,27.1552 C46.4813,27.0313 46.5817,26.9308 46.7057,26.9308 L46.7057,26.9308 C46.8296,26.9308 46.9301,27.0313 46.9301,27.1552 L46.9301,28.3637 C46.9301,28.4876 46.8296,28.5881 46.7057,28.5881 L46.7057,28.5881 C46.5817,28.5881 46.4813,28.4876 46.4813,28.3637 L46.4813,27.1552"/>
</g>

<g fill="none" stroke="#000000" stroke-opacity="1" stroke-width="0.90975" stroke-linecap="round" stroke-linejoin="round" transform="matrix(0.259165,0,0,-0.259165,7.72135,29.6907)"
font-family="Inter" font-size="11" font-weight="700" font-style="normal" 
>
<path vector-effect="none" fill-rule="evenodd" d="M46.4813,27.1552 C46.4813,27.0313 46.5817,26.9308 46.7057,26.9308 L46.7057,26.9308 C46.8296,26.9308 46.9301,27.0313 46.9301,27.1552 L46.9301,28.3637 C46.9301,28.4876 46.8296,28.5881 46.7057,28.5881 L46.7057,28.5881 C46.5817,28.5881 46.4813,28.4876 46.4813,28.3637 L46.4813,27.1552"/>
</g>

<g fill="#ffffff" fill-opacity="1" stroke="none" transform="matrix(0.259165,0,0,-0.259165,7.72135,29.6907)"
font-family="Inter" font-size="11" font-weight="700" font-style="normal" 
>
<path vector-effect="none" fill-rule="evenodd" d="M53.7063,27.1207 C53.7063,26.9968 53.8068,26.8963 53.9307,26.8963 L53.9307,26.8963 C54.0546,26.8963 54.1551,26.9968 54.1551,27.1207 L54.1551,28.3292 C54.1551,28.4531 54.0546,28.5536 53.9307,28.5536 L53.9307,28.5536 C53.8068,28.5536 53.7063,28.4531 53.7063,28.3292 L53.7063,27.1207"/>
</g>

<g fill="none" stroke="#000000" stroke-opacity="1" stroke-width="0.90975" stroke-linecap="round" stroke-linejoin="round" transform="matrix(0.259165,0,0,-0.259165,7.72135,29.6907)"
font-family="Inter" font-size="11" font-weight="700" font-style="normal" 
>
<path vector-effect="none" fill-rule="evenodd" d="M53.7063,27.1207 C53.7063,26.9968 53.8068,26.8963 53.9307,26.8963 L53.9307,26.8963 C54.0546,26.8963 54.1551,26.9968 54.1551,27.1207 L54.1551,28.3292 C54.1551,28.4531 54.0546,28.5536 53.9307,28.5536 L53.9307,28.5536 C53.8068,28.5536 53.7063,28.4531 53.7063,28.3292 L53.7063,27.1207"/>
</g>

<g fill="#ffffff" fill-opacity="1" stroke="none" transform="matrix(0.259165,0,0,-0.259165,12.223,29.7049)"
font-family="Inter" font-size="11" font-weight="700" font-style="normal" 
>
<path vector-effect="none" fill-rule="evenodd" d="M43.9298,32.0312 C43.9298,31.8609 44.0679,31.7227 44.2383,31.7227 L56.25,31.7227 C56.4204,31.7227 56.5585,31.8609 56.5585,32.0312 C56.5585,32.2016 56.4204,32.3398 56.25,32.3398 L44.2383,32.3398 C44.0679,32.3398 43.9298,32.2016 43.9298,32.0312 "/>
</g>

<g fill="none" stroke="#000000" stroke-opacity="1" stroke-width="0.878639" stroke-linecap="round" stroke-linejoin="round" transform="matrix(0.259165,0,0,-0.259165,12.223,29.7049)"
font-family="Inter" font-size="11" font-weight="700" font-style="normal" 
>
<path vector-effect="none" fill-rule="evenodd" d="M43.9298,32.0312 C43.9298,31.8609 44.0679,31.7227 44.2383,31.7227 L56.25,31.7227 C56.4204,31.7227 56.5585,31.8609 56.5585,32.0312 C56.5585,32.2016 56.4204,32.3398 56.25,32.3398 L44.2383,32.3398 C44.0679,32.3398 43.9298,32.2016 43.9298,32.0312 "/>
</g>

<g fill="#ffffff" fill-opacity="1" stroke="none" transform="matrix(0.259165,0,0,-0.259165,12.223,29.7049)"
font-family="Inter" font-size="11" font-weight="700" font-style="normal" 
>
<path vector-effect="none" fill-rule="evenodd" d="M43.9786,29.1016 C43.9786,28.9312 44.1167,28.793 44.2871,28.793 L56.2988,28.793 C56.4692,28.793 56.6074,28.9312 56.6074,29.1016 C56.6074,29.272 56.4692,29.4101 56.2988,29.4101 L44.2871,29.4101 C44.1167,29.4101 43.9786,29.272 43.9786,29.1016 "/>
</g>

<g fill="none" stroke="#000000" stroke-opacity="1" stroke-width="0.878639" stroke-linecap="round" stroke-linejoin="round" transform="matrix(0.259165,0,0,-0.259165,12.223,29.7049)"
font-family="Inter" font-size="11" font-weight="700" font-style="normal" 
>
<path vector-effect="none" fill-rule="evenodd" d="M43.9786,29.1016 C43.9786,28.9312 44.1167,28.793 44.2871,28.793 L56.2988,28.793 C56.4692,28.793 56.6074,28.9312 56.6074,29.1016 C56.6074,29.272 56.4692,29.4101 56.2988,29.4101 L44.2871,29.4101 C44.1167,29.4101 43.9786,29.272 43.9786,29.1016 "/>
</g>

<g fill="#ffffff" fill-opacity="1" stroke="none" transform="matrix(0.259165,0,0,-0.259165,12.223,29.7049)"
font-family="Inter" font-size="11" font-weight="700" font-style="normal" 
>
<path vector-effect="none" fill-rule="evenodd" d="M46.4813,27.1552 C46.4813,27.0313 46.5817,26.9308 46.7057,26.9308 L46.7057,26.9308 C46.8296,26.9308 46.9301,27.0313 46.9301,27.1552 L46.9301,28.3637 C46.9301,28.4876 46.8296,28.5881 46.7057,28.5881 L46.7057,28.5881 C46.5817,28.5881 46.4813,28.4876 46.4813,28.3637 L46.4813,27.1552"/>
</g>

<g fill="none" stroke="#000000" stroke-opacity="1" stroke-width="0.90975" stroke-linecap="round" stroke-linejoin="round" transform="matrix(0.259165,0,0,-0.259165,12.223,29.7049)"
font-family="Inter" font-size="11" font-weight="700" font-style="normal" 
>
<path vector-effect="none" fill-rule="evenodd" d="M46.4813,27.1552 C46.4813,27.0313 46.5817,26.9308 46.7057,26.9308 L46.7057,26.9308 C46.8296,26.9308 46.9301,27.0313 46.9301,27.1552 L46.9301,28.3637 C46.9301,28.4876 46.8296,28.5881 46.7057,28.5881 L46.7057,28.5881 C46.5817,28.5881 46.4813,28.4876 46.4813,28.3637 L46.4813,27.1552"/>
</g>

<g fill="#ffffff" fill-opacity="1" stroke="none" transform="matrix(0.259165,0,0,-0.259165,12.223,29.7049)"
font-family="Inter" font-size="11" font-weight="700" font-style="normal" 
>
<path vector-effect="none" fill-rule="evenodd" d="M53.7063,27.1207 C53.7063,26.9968 53.8068,26.8963 53.9307,26.8963 L53.9307,26.8963 C54.0546,26.8963 54.1551,26.9968 54.1551,27.1207 L54.1551,28.3292 C54.1551,28.4531 54.0546,28.5536 53.9307,28.5536 L53.9307,28.5536 C53.8068,28.5536 53.7063,28.4531 53.7063,28.3292 L53.7063,27.1207"/>
</g>

<g fill="none" stroke="#000000" stroke-opacity="1" stroke-width="0.90975" stroke-linecap="round" stroke-linejoin="round" transform="matrix(0.259165,0,0,-0.259165,12.223,29.7049)"
font-family="Inter" font-size="11" font-weight="700" font-style="normal" 
>
<path vector-effect="none" fill-rule="evenodd" d="M53.7063,27.1207 C53.7063,26.9968 53.8068,26.8963 53.9307,26.8963 L53.9307,26.8963 C54.0546,26.8963 54.1551,26.9968 54.1551,27.1207 L54.1551,28.3292 C54.1551,28.4531 54.0546,28.5536 53.9307,28.5536 L53.9307,28.5536 C53.8068,28.5536 53.7063,28.4531 53.7063,28.3292 L53.7063,27.1207"/>
</g>

<g fill="#ffffff" fill-opacity="1" stroke="none" transform="matrix(1,0,0,1,0,0)"
font-family="Inter" font-size="11" font-weight="700" font-style="normal" 
>
</g>

<g fill="#ffffff" fill-opacity="1" stroke="#d89400" stroke-opacity="1" stroke-width="1" stroke-linecap="square" stroke-linejoin="bevel" transform="matrix(1,0,0,1,0,0)"
font-family="Inter" font-size="11" font-weight="700" font-style="normal" 
>
<polyline fill="none" vector-effect="none" points="45,6 45,26 " />
</g>

<g fill="#ffffff" fill-opacity="1" stroke="#d89400" stroke-opacity="1" stroke-width="1" stroke-linecap="square" stroke-linejoin="bevel" transform="matrix(1,0,0,1,0,0)"
font-family="Inter" font-size="11" font-weight="700" font-style="normal" 
>
</g>

<g fill="#ffb515" fill-opacity="1" stroke="#d89400" stroke-opacity="1" stroke-width="1.2" stroke-linecap="square" stroke-linejoin="bevel" transform="matrix(1,0,0,1,81,4)"
font-family="Inter" font-size="11" font-weight="700" font-style="normal" 
>
<path vector-effect="none" fill-rule="evenodd" d="M0.5,3.5 C0.5,1.84315 1.84315,0.5 3.5,0.5 L80.5,0.5 C82.1569,0.5 83.5,1.84315 83.5,3.5 L83.5,20.5 C83.5,22.1569 82.1569,23.5 80.5,23.5 L3.5,23.5 C1.84315,23.5 0.5,22.1569 0.5,20.5 L0.5,3.5"/>
</g>

<g fill="#ffffff" fill-opacity="1" stroke="none" transform="matrix(1,0,0,1,81,4)"
font-family="Inter" font-size="11" font-weight="700" font-style="normal" 
>
<path vector-effect="none" fill-rule="nonzero" d="M10.0078,16 L10.0078,8 L13.2109,8 C13.7995,8 14.2904,8.08724 14.6836,8.26172 C15.0768,8.4362 15.3724,8.67773 15.5703,8.98633 C15.7682,9.29492 15.8672,9.64974 15.8672,10.0508 C15.8672,10.3633 15.8047,10.6374 15.6797,10.873 C15.5547,11.1087 15.3835,11.3014 15.166,11.4512 C14.9486,11.6009 14.7005,11.707 14.4219,11.7695 L14.4219,11.8477 C14.7266,11.8607 15.0124,11.9466 15.2793,12.1055 C15.5462,12.2643 15.763,12.4863 15.9297,12.7715 C16.0964,13.0566 16.1797,13.3958 16.1797,13.7891 C16.1797,14.2135 16.0749,14.5918 15.8652,14.9238 C15.6556,15.2559 15.3464,15.5182 14.9375,15.7109 C14.5286,15.9036 14.0247,16 13.4258,16 L10.0078,16 M11.6992,14.6172 L13.0781,14.6172 C13.5495,14.6172 13.8932,14.5267 14.1094,14.3457 C14.3255,14.1647 14.4336,13.9232 14.4336,13.6211 C14.4336,13.3997 14.3802,13.2044 14.2734,13.0352 C14.1667,12.8659 14.015,12.7331 13.8184,12.6367 C13.6217,12.5404 13.388,12.4922 13.1172,12.4922 L11.6992,12.4922 L11.6992,14.6172 M11.6992,11.3477 L12.9531,11.3477 C13.1849,11.3477 13.3913,11.3066 13.5723,11.2246 C13.7533,11.1426 13.8965,11.026 14.002,10.875 C14.1074,10.724 14.1602,10.543 14.1602,10.332 C14.1602,10.043 14.0579,9.8099 13.8535,9.63281 C13.6491,9.45573 13.3594,9.36719 12.9844,9.36719 L11.6992,9.36719 L11.6992,11.3477 M19.0742,16 L16.7852,8 L18.6328,8 L19.957,13.5586 L20.0234,13.5586 L21.4844,8 L23.0664,8 L24.5234,13.5703 L24.5938,13.5703 L25.918,8 L27.7656,8 L25.4766,16 L23.8281,16 L22.3047,10.7695 L22.2422,10.7695 L20.7227,16 L19.0742,16 M28.5781,16 L28.5781,14.9961 L32.5703,9.39453 L28.5703,9.39453 L28.5703,8 L34.6953,8 L34.6953,9.00391 L30.6992,14.6055 L34.7031,14.6055 L34.7031,16 L28.5781,16 M35.9453,16 L35.9453,14.7813 L38.793,12.1445 C39.0352,11.9102 39.2389,11.6992 39.4043,11.5117 C39.5697,11.3242 39.6953,11.14 39.7813,10.959 C39.8672,10.778 39.9102,10.582 39.9102,10.3711 C39.9102,10.1367 39.8568,9.93424 39.75,9.76367 C39.6432,9.5931 39.4974,9.46159 39.3125,9.36914 C39.1276,9.27669 38.918,9.23047 38.6836,9.23047 C38.4388,9.23047 38.2253,9.27995 38.043,9.37891 C37.8607,9.47786 37.7201,9.61979 37.6211,9.80469 C37.5221,9.98958 37.4727,10.2096 37.4727,10.4648 L35.8672,10.4648 C35.8672,9.94141 35.9857,9.48698 36.2227,9.10156 C36.4596,8.71615 36.7917,8.41797 37.2188,8.20703 C37.6458,7.99609 38.138,7.89063 38.6953,7.89063 C39.2682,7.89063 39.7676,7.99154 40.1934,8.19336 C40.6191,8.39518 40.9505,8.67448 41.1875,9.03125 C41.4245,9.38802 41.543,9.79688 41.543,10.2578 C41.543,10.5599 41.4837,10.8581 41.3652,11.1523 C41.2467,11.4466 41.0365,11.7728 40.7344,12.1309 C40.4323,12.4889 40.0065,12.918 39.457,13.418 L38.2891,14.5625 L38.2891,14.6172 L41.6484,14.6172 L41.6484,16 L35.9453,16 M42.9141,16 L42.9141,8 L44.6055,8 L44.6055,11.3008 L48.0391,11.3008 L48.0391,8 L49.7266,8 L49.7266,16 L48.0391,16 L48.0391,12.6953 L44.6055,12.6953 L44.6055,16 L42.9141,16 M51.1172,16 L51.1172,8 L54.3203,8 C54.9089,8 55.3997,8.08724 55.793,8.26172 C56.1862,8.4362 56.4818,8.67773 56.6797,8.98633 C56.8776,9.29492 56.9766,9.64974 56.9766,10.0508 C56.9766,10.3633 56.9141,10.6374 56.7891,10.873 C56.6641,11.1087 56.4928,11.3014 56.2754,11.4512 C56.0579,11.6009 55.8099,11.707 55.5313,11.7695 L55.5313,11.8477 C55.8359,11.8607 56.1217,11.9466 56.3887,12.1055 C56.6556,12.2643 56.8724,12.4863 57.0391,12.7715 C57.2057,13.0566 57.2891,13.3958 57.2891,13.7891 C57.2891,14.2135 57.1842,14.5918 56.9746,14.9238 C56.765,15.2559 56.4557,15.5182 56.0469,15.7109 C55.638,15.9036 55.1341,16 54.5352,16 L51.1172,16 M52.8086,14.6172 L54.1875,14.6172 C54.6589,14.6172 55.0026,14.5267 55.2188,14.3457 C55.4349,14.1647 55.543,13.9232 55.543,13.6211 C55.543,13.3997 55.4896,13.2044 55.3828,13.0352 C55.276,12.8659 55.1243,12.7331 54.9277,12.6367 C54.7311,12.5404 54.4974,12.4922 54.2266,12.4922 L52.8086,12.4922 L52.8086,14.6172 M52.8086,11.3477 L54.0625,11.3477 C54.2943,11.3477 54.5007,11.3066 54.6816,11.2246 C54.8626,11.1426 55.0059,11.026 55.1113,10.875 C55.2168,10.724 55.2695,10.543 55.2695,10.332 C55.2695,10.043 55.1673,9.8099 54.9629,9.63281 C54.7585,9.45573 54.4688,9.36719 54.0938,9.36719 L52.8086,9.36719 L52.8086,11.3477 M61.8164,8 L61.8164,16 L60.125,16 L60.125,9.60547 L60.0781,9.60547 L58.2461,10.7539 L58.2461,9.25391 L60.2266,8 L61.8164,8"/>
</g>

<g fill="#ffffff" fill-opacity="1" stroke="none" transform="matrix(0.03125,0,0,0.03125,151,12)"
font-family="Inter" font-size="11" font-weight="700" font-style="normal" 
>
<path vector-effect="none" fill-rule="nonzero" d="M111.326,191.938 C120.545,201.158 135.517,201.158 144.737,191.938 L239.144,97.5313 C245.929,90.7458 247.921,80.6413 244.233,71.7907 C240.545,62.9401 231.989,57.1871 222.401,57.1871 L33.5875,57.2608 C24.0731,57.2608 15.4437,63.0137 11.7559,71.8644 C8.06815,80.715 10.1333,90.8195 16.845,97.605 L111.252,192.012 L111.326,191.938"/>
</g>

<g fill="none" stroke="#000000" stroke-opacity="1" stroke-width="13.7195" stroke-linecap="butt" stroke-linejoin="miter" stroke-miterlimit="4" transform="matrix(0.03125,0,0,0.03125,151,12)"
font-family="Inter" font-size="11" font-weight="700" font-style="normal" 
>
<path vector-effect="none" fill-rule="nonzero" d="M111.326,191.938 C120.545,201.158 135.517,201.158 144.737,191.938 L239.144,97.5313 C245.929,90.7458 247.921,80.6413 244.233,71.7907 C240.545,62.9401 231.989,57.1871 222.401,57.1871 L33.5875,57.2608 C24.0731,57.2608 15.4437,63.0137 11.7559,71.8644 C8.06815,80.715 10.1333,90.8195 16.845,97.605 L111.252,192.012 L111.326,191.938"/>
</g>

<g fill="#ffffff" fill-opacity="1" stroke="none" transform="matrix(1,0,0,1,81,4)"
font-family="Inter" font-size="11" font-weight="700" font-style="normal" 
>
</g>

<g fill="#ffffff" fill-opacity="1" stroke="#d89400" stroke-opacity="1" stroke-width="1" stroke-linecap="square" stroke-linejoin="bevel" transform="matrix(1,0,0,1,0,0)"
font-family="Inter" font-size="11" font-weight="700" font-style="normal" 
>
</g>

<g fill="#ffb515" fill-opacity="1" stroke="#d89400" stroke-opacity="1" stroke-width="1.2" stroke-linecap="square" stroke-linejoin="bevel" transform="matrix(1,0,0,1,258,4)"
font-family="Inter" font-size="11" font-weight="700" font-style="normal" 
>
<path vector-effect="none" fill-rule="evenodd" d="M0.5,3.5 C0.5,1.84315 1.84315,0.5 3.5,0.5 L49.5,0.5 C51.1569,0.5 52.5,1.84315 52.5,3.5 L52.5,20.5 C52.5,22.1569 51.1569,23.5 49.5,23.5 L3.5,23.5 C1.84315,23.5 0.5,22.1569 0.5,20.5 L0.5,3.5"/>
</g>

<g fill="#ffffff" fill-opacity="1" stroke="none" transform="matrix(1,0,0,1,258,4)"
font-family="Inter" font-size="11" font-weight="700" font-style="normal" 
>
<path vector-effect="none" fill-rule="nonzero" d="M13.6211,9.45313 L13.6211,10.7031 L10.0078,10.7031 L10.0078,9.45313 L13.6211,9.45313 M10.8281,8.01563 L12.4922,8.01563 L12.4922,13.6094 C12.4922,13.763 12.5156,13.8822 12.5625,13.9668 C12.6094,14.0514 12.6751,14.1107 12.7598,14.1445 C12.8444,14.1784 12.9427,14.1953 13.0547,14.1953 C13.1328,14.1953 13.2109,14.1882 13.2891,14.1738 C13.3672,14.1595 13.4271,14.1484 13.4688,14.1406 L13.7305,15.3789 C13.6471,15.4049 13.5299,15.4355 13.3789,15.4707 C13.2279,15.5059 13.0443,15.5273 12.8281,15.5352 C12.4271,15.5508 12.0762,15.4974 11.7754,15.375 C11.4746,15.2526 11.2409,15.0625 11.0742,14.8047 C10.9076,14.5469 10.8255,14.2214 10.8281,13.8281 L10.8281,8.01563 M17.3672,15.5703 C16.75,15.5703 16.2194,15.4447 15.7754,15.1934 C15.3314,14.9421 14.9896,14.5853 14.75,14.123 C14.5104,13.6608 14.3906,13.1133 14.3906,12.4805 C14.3906,11.8633 14.5104,11.3216 14.75,10.8555 C14.9896,10.3893 15.3275,10.026 15.7637,9.76563 C16.1999,9.50521 16.7122,9.375 17.3008,9.375 C17.6966,9.375 18.0658,9.43815 18.4082,9.56445 C18.7507,9.69076 19.0501,9.88021 19.3066,10.1328 C19.5632,10.3854 19.763,10.7025 19.9063,11.084 C20.0495,11.4655 20.1211,11.9115 20.1211,12.4219 L20.1211,12.8789 L15.0547,12.8789 L15.0547,11.8477 L18.5547,11.8477 C18.5547,11.6081 18.5026,11.3958 18.3984,11.2109 C18.2943,11.026 18.1504,10.8809 17.9668,10.7754 C17.7832,10.6699 17.5703,10.6172 17.3281,10.6172 C17.0755,10.6172 16.8522,10.6751 16.6582,10.791 C16.4642,10.9069 16.3125,11.0618 16.2031,11.2559 C16.0938,11.4499 16.0378,11.6654 16.0352,11.9023 L16.0352,12.8828 C16.0352,13.1797 16.0905,13.4362 16.2012,13.6523 C16.3118,13.8685 16.4688,14.0352 16.6719,14.1523 C16.875,14.2695 17.1159,14.3281 17.3945,14.3281 C17.5794,14.3281 17.7487,14.3021 17.9023,14.25 C18.056,14.1979 18.1875,14.1198 18.2969,14.0156 C18.4063,13.9115 18.4896,13.7839 18.5469,13.6328 L20.0859,13.7344 C20.0078,14.1042 19.8483,14.4264 19.6074,14.7012 C19.3665,14.9759 19.0566,15.1895 18.6777,15.3418 C18.2988,15.4941 17.862,15.5703 17.3672,15.5703 M22.4922,9.45313 L23.5938,11.5508 L24.7227,9.45313 L26.4297,9.45313 L24.6914,12.4531 L26.4766,15.4531 L24.7773,15.4531 L23.5938,13.3789 L22.4297,15.4531 L20.7109,15.4531 L22.4922,12.4531 L20.7734,9.45313 L22.4922,9.45313 M30.6055,9.45313 L30.6055,10.7031 L26.9922,10.7031 L26.9922,9.45313 L30.6055,9.45313 M27.8125,8.01563 L29.4766,8.01563 L29.4766,13.6094 C29.4766,13.763 29.5,13.8822 29.5469,13.9668 C29.5938,14.0514 29.6595,14.1107 29.7441,14.1445 C29.8288,14.1784 29.9271,14.1953 30.0391,14.1953 C30.1172,14.1953 30.1953,14.1882 30.2734,14.1738 C30.3516,14.1595 30.4115,14.1484 30.4531,14.1406 L30.7148,15.3789 C30.6315,15.4049 30.5143,15.4355 30.3633,15.4707 C30.2122,15.5059 30.0286,15.5273 29.8125,15.5352 C29.4115,15.5508 29.0605,15.4974 28.7598,15.375 C28.459,15.2526 28.2253,15.0625 28.0586,14.8047 C27.8919,14.5469 27.8099,14.2214 27.8125,13.8281 L27.8125,8.01563"/>
</g>

<g fill="#ffffff" fill-opacity="1" stroke="none" transform="matrix(0.03125,0,0,0.03125,297,12)"
font-family="Inter" font-size="11" font-weight="700" font-style="normal" 
>
<path vector-effect="none" fill-rule="nonzero" d="M111.326,191.938 C120.545,201.158 135.517,201.158 144.737,191.938 L239.144,97.5313 C245.929,90.7458 247.921,80.6413 244.233,71.7907 C240.545,62.9401 231.989,57.1871 222.401,57.1871 L33.5875,57.2608 C24.0731,57.2608 15.4437,63.0137 11.7559,71.8644 C8.06815,80.715 10.1333,90.8195 16.845,97.605 L111.252,192.012 L111.326,191.938"/>
</g>

<g fill="none" stroke="#000000" stroke-opacity="1" stroke-width="13.7195" stroke-linecap="butt" stroke-linejoin="miter" stroke-miterlimit="4" transform="matrix(0.03125,0,0,0.03125,297,12)"
font-family="Inter" font-size="11" font-weight="700" font-style="normal" 
>
<path vector-effect="none" fill-rule="nonzero" d="M111.326,191.938 C120.545,201.158 135.517,201.158 144.737,191.938 L239.144,97.5313 C245.929,90.7458 247.921,80.6413 244.233,71.7907 C240.545,62.9401 231.989,57.1871 222.401,57.1871 L33.5875,57.2608 C24.0731,57.2608 15.4437,63.0137 11.7559,71.8644 C8.06815,80.715 10.1333,90.8195 16.845,97.605 L111.252,192.012 L111.326,191.938"/>
</g>

<g fill="#ffffff" fill-opacity="1" stroke="none" transform="matrix(1,0,0,1,258,4)"
font-family="Inter" font-size="11" font-weight="700" font-style="normal" 
>
</g>

<g fill="#ffffff" fill-opacity="1" stroke="#d89400" stroke-opacity="1" stroke-width="1" stroke-linecap="square" stroke-linejoin="bevel" transform="matrix(1,0,0,1,0,0)"
font-family="Inter" font-size="11" font-weight="700" font-style="normal" 
>
</g>

<g fill="none" stroke="#000000" stroke-opacity="1" stroke-width="1" stroke-linecap="square" stroke-linejoin="bevel" transform="matrix(1,0,0,1,0,0)"
font-family=".AppleSystemUIFont" font-size="13" font-weight="400" font-style="normal" 
>
</g>
</g>
</svg>
