<?xml version="1.0" encoding="UTF-8" standalone="no"?>
<svg width="88.1944mm" height="11.2889mm"
 viewBox="0 0 250 32"
 xmlns="http://www.w3.org/2000/svg" xmlns:xlink="http://www.w3.org/1999/xlink" version="1.2" baseProfile="tiny">
<title>Abstract block</title>
<desc>block_hubs_all_sensors_board_temp</desc>
<defs>
</defs>
<g fill="none" stroke="black" stroke-width="1" fill-rule="evenodd" stroke-linecap="square" stroke-linejoin="bevel" >

<g fill="none" stroke="#000000" stroke-opacity="1" stroke-width="1" stroke-linecap="square" stroke-linejoin="bevel" transform="matrix(1,0,0,1,0,0)"
font-family=".AppleSystemUIFont" font-size="13" font-weight="400" font-style="normal" 
>
</g>

<g fill="none" stroke="#000000" stroke-opacity="1" stroke-width="1" stroke-linecap="square" stroke-linejoin="bevel" transform="matrix(1,0,0,1,0,0)"
font-family=".AppleSystemUIFont" font-size="13" font-weight="400" font-style="normal" 
>
</g>

<g fill="#1dccf0" fill-opacity="1" stroke="#0da6c5" stroke-opacity="1" stroke-width="1.2" stroke-linecap="square" stroke-linejoin="bevel" transform="matrix(1,0,0,1,0,0)"
font-family=".AppleSystemUIFont" font-size="13" font-weight="400" font-style="normal" 
>
<path vector-effect="none" fill-rule="evenodd" d="M1,16 C1,7.71573 8.16344,1 17,1 L232.667,1 C241.503,1 248.667,7.71573 248.667,16 C248.667,24.2843 241.503,31 232.667,31 L17,31 C8.16344,31 1,24.2843 1,16 "/>
</g>

<g fill="#ffffff" fill-opacity="1" stroke="none" transform="matrix(1,0,0,1,0,0)"
font-family="Inter" font-size="11" font-weight="700" font-style="normal" 
>
<path vector-effect="none" fill-rule="nonzero" d="M149.652,13.3125 L149.652,14.5625 L146.039,14.5625 L146.039,13.3125 L149.652,13.3125 M146.859,11.875 L148.523,11.875 L148.523,17.4688 C148.523,17.6224 148.547,17.7415 148.594,17.8262 C148.641,17.9108 148.706,17.9701 148.791,18.0039 C148.876,18.0378 148.974,18.0547 149.086,18.0547 C149.164,18.0547 149.242,18.0475 149.32,18.0332 C149.398,18.0189 149.458,18.0078 149.5,18 L149.762,19.2383 C149.678,19.2643 149.561,19.2949 149.41,19.3301 C149.259,19.3652 149.076,19.3867 148.859,19.3945 C148.458,19.4102 148.107,19.3568 147.807,19.2344 C147.506,19.112 147.272,18.9219 147.105,18.6641 C146.939,18.4063 146.857,18.0807 146.859,17.6875 L146.859,11.875 M153.398,19.4297 C152.781,19.4297 152.251,19.304 151.807,19.0527 C151.363,18.8014 151.021,18.4447 150.781,17.9824 C150.542,17.5202 150.422,16.9727 150.422,16.3398 C150.422,15.7227 150.542,15.181 150.781,14.7148 C151.021,14.2487 151.359,13.8854 151.795,13.625 C152.231,13.3646 152.743,13.2344 153.332,13.2344 C153.728,13.2344 154.097,13.2975 154.439,13.4238 C154.782,13.5501 155.081,13.7396 155.338,13.9922 C155.594,14.2448 155.794,14.5618 155.938,14.9434 C156.081,15.3249 156.152,15.7708 156.152,16.2813 L156.152,16.7383 L151.086,16.7383 L151.086,15.707 L154.586,15.707 C154.586,15.4674 154.534,15.2552 154.43,15.0703 C154.326,14.8854 154.182,14.7402 153.998,14.6348 C153.814,14.5293 153.602,14.4766 153.359,14.4766 C153.107,14.4766 152.883,14.5345 152.689,14.6504 C152.495,14.7663 152.344,14.9212 152.234,15.1152 C152.125,15.3092 152.069,15.5247 152.066,15.7617 L152.066,16.7422 C152.066,17.0391 152.122,17.2956 152.232,17.5117 C152.343,17.7279 152.5,17.8945 152.703,18.0117 C152.906,18.1289 153.147,18.1875 153.426,18.1875 C153.611,18.1875 153.78,18.1615 153.934,18.1094 C154.087,18.0573 154.219,17.9792 154.328,17.875 C154.438,17.7708 154.521,17.6432 154.578,17.4922 L156.117,17.5938 C156.039,17.9635 155.88,18.2858 155.639,18.5605 C155.398,18.8353 155.088,19.0488 154.709,19.2012 C154.33,19.3535 153.893,19.4297 153.398,19.4297 M157.227,19.3125 L157.227,13.3125 L158.813,13.3125 L158.813,14.3711 L158.883,14.3711 C159.008,14.0195 159.216,13.7422 159.508,13.5391 C159.799,13.3359 160.148,13.2344 160.555,13.2344 C160.966,13.2344 161.316,13.3366 161.605,13.541 C161.895,13.7454 162.087,14.0221 162.184,14.3711 L162.246,14.3711 C162.368,14.0273 162.59,13.752 162.912,13.5449 C163.234,13.3379 163.615,13.2344 164.055,13.2344 C164.615,13.2344 165.07,13.4121 165.42,13.7676 C165.77,14.123 165.945,14.6263 165.945,15.2773 L165.945,19.3125 L164.285,19.3125 L164.285,15.6055 C164.285,15.2721 164.197,15.0221 164.02,14.8555 C163.842,14.6888 163.621,14.6055 163.355,14.6055 C163.053,14.6055 162.818,14.7012 162.648,14.8926 C162.479,15.084 162.395,15.3359 162.395,15.6484 L162.395,19.3125 L160.781,19.3125 L160.781,15.5703 C160.781,15.276 160.697,15.0417 160.529,14.8672 C160.361,14.6927 160.141,14.6055 159.867,14.6055 C159.682,14.6055 159.516,14.6517 159.369,14.7441 C159.222,14.8366 159.105,14.9655 159.02,15.1309 C158.934,15.2962 158.891,15.4896 158.891,15.7109 L158.891,19.3125 L157.227,19.3125 M167.258,21.5625 L167.258,13.3125 L168.898,13.3125 L168.898,14.3203 L168.973,14.3203 C169.046,14.1589 169.152,13.9941 169.291,13.8262 C169.43,13.6582 169.613,13.5176 169.838,13.4043 C170.063,13.291 170.344,13.2344 170.68,13.2344 C171.117,13.2344 171.521,13.3483 171.891,13.5762 C172.26,13.804 172.556,14.1465 172.777,14.6035 C172.999,15.0605 173.109,15.6328 173.109,16.3203 C173.109,16.9896 173.002,17.554 172.787,18.0137 C172.572,18.4733 172.281,18.821 171.912,19.0566 C171.544,19.2923 171.132,19.4102 170.676,19.4102 C170.353,19.4102 170.079,19.3568 169.854,19.25 C169.628,19.1432 169.444,19.0085 169.301,18.8457 C169.158,18.6829 169.048,18.5182 168.973,18.3516 L168.922,18.3516 L168.922,21.5625 L167.258,21.5625 M168.887,16.3125 C168.887,16.6693 168.936,16.9805 169.035,17.2461 C169.134,17.5117 169.277,17.7181 169.465,17.8652 C169.652,18.0124 169.88,18.0859 170.148,18.0859 C170.419,18.0859 170.648,18.0111 170.836,17.8613 C171.023,17.7116 171.166,17.5033 171.264,17.2363 C171.361,16.9694 171.41,16.6615 171.41,16.3125 C171.41,15.9661 171.362,15.6615 171.266,15.3984 C171.169,15.1354 171.027,14.9297 170.84,14.7813 C170.652,14.6328 170.422,14.5586 170.148,14.5586 C169.878,14.5586 169.649,14.6302 169.463,14.7734 C169.277,14.9167 169.134,15.1198 169.035,15.3828 C168.936,15.6458 168.887,15.9557 168.887,16.3125 M176.945,19.4297 C176.328,19.4297 175.798,19.304 175.354,19.0527 C174.91,18.8014 174.568,18.4447 174.328,17.9824 C174.089,17.5202 173.969,16.9727 173.969,16.3398 C173.969,15.7227 174.089,15.181 174.328,14.7148 C174.568,14.2487 174.906,13.8854 175.342,13.625 C175.778,13.3646 176.29,13.2344 176.879,13.2344 C177.275,13.2344 177.644,13.2975 177.986,13.4238 C178.329,13.5501 178.628,13.7396 178.885,13.9922 C179.141,14.2448 179.341,14.5618 179.484,14.9434 C179.628,15.3249 179.699,15.7708 179.699,16.2813 L179.699,16.7383 L174.633,16.7383 L174.633,15.707 L178.133,15.707 C178.133,15.4674 178.081,15.2552 177.977,15.0703 C177.872,14.8854 177.729,14.7402 177.545,14.6348 C177.361,14.5293 177.148,14.4766 176.906,14.4766 C176.654,14.4766 176.43,14.5345 176.236,14.6504 C176.042,14.7663 175.891,14.9212 175.781,15.1152 C175.672,15.3092 175.616,15.5247 175.613,15.7617 L175.613,16.7422 C175.613,17.0391 175.669,17.2956 175.779,17.5117 C175.89,17.7279 176.047,17.8945 176.25,18.0117 C176.453,18.1289 176.694,18.1875 176.973,18.1875 C177.158,18.1875 177.327,18.1615 177.48,18.1094 C177.634,18.0573 177.766,17.9792 177.875,17.875 C177.984,17.7708 178.068,17.6432 178.125,17.4922 L179.664,17.5938 C179.586,17.9635 179.426,18.2858 179.186,18.5605 C178.945,18.8353 178.635,19.0488 178.256,19.2012 C177.877,19.3535 177.44,19.4297 176.945,19.4297 M180.773,19.3125 L180.773,13.3125 L182.387,13.3125 L182.387,14.3594 L182.449,14.3594 C182.559,13.987 182.742,13.7051 183,13.5137 C183.258,13.3223 183.555,13.2266 183.891,13.2266 C183.974,13.2266 184.064,13.2318 184.16,13.2422 C184.257,13.2526 184.341,13.2669 184.414,13.2852 L184.414,14.7617 C184.336,14.7383 184.228,14.7174 184.09,14.6992 C183.952,14.681 183.826,14.6719 183.711,14.6719 C183.466,14.6719 183.248,14.7246 183.057,14.8301 C182.865,14.9355 182.714,15.082 182.604,15.2695 C182.493,15.457 182.438,15.6732 182.438,15.918 L182.438,19.3125 L180.773,19.3125 M186.797,19.4258 C186.414,19.4258 186.073,19.3587 185.773,19.2246 C185.474,19.0905 185.238,18.8913 185.064,18.627 C184.891,18.3626 184.805,18.0326 184.805,17.6367 C184.805,17.3034 184.866,17.0234 184.988,16.7969 C185.111,16.5703 185.277,16.388 185.488,16.25 C185.699,16.112 185.939,16.0078 186.209,15.9375 C186.479,15.8672 186.762,15.8177 187.059,15.7891 C187.408,15.7526 187.689,15.7181 187.902,15.6855 C188.116,15.653 188.271,15.6042 188.367,15.5391 C188.464,15.474 188.512,15.3776 188.512,15.25 L188.512,15.2266 C188.512,14.9792 188.434,14.7878 188.279,14.6523 C188.124,14.5169 187.905,14.4492 187.621,14.4492 C187.322,14.4492 187.083,14.515 186.906,14.6465 C186.729,14.778 186.612,14.9427 186.555,15.1406 L185.016,15.0156 C185.094,14.651 185.247,14.3353 185.477,14.0684 C185.706,13.8014 186.002,13.5957 186.365,13.4512 C186.729,13.3066 187.15,13.2344 187.629,13.2344 C187.962,13.2344 188.282,13.2734 188.588,13.3516 C188.894,13.4297 189.166,13.5508 189.404,13.7148 C189.643,13.8789 189.831,14.0892 189.969,14.3457 C190.107,14.6022 190.176,14.9089 190.176,15.2656 L190.176,19.3125 L188.598,19.3125 L188.598,18.4805 L188.551,18.4805 C188.454,18.668 188.326,18.8327 188.164,18.9746 C188.003,19.1165 187.809,19.2272 187.582,19.3066 C187.355,19.3861 187.094,19.4258 186.797,19.4258 M187.273,18.2773 C187.518,18.2773 187.734,18.2285 187.922,18.1309 C188.109,18.0332 188.257,17.901 188.363,17.7344 C188.47,17.5677 188.523,17.3789 188.523,17.168 L188.523,16.5313 C188.471,16.5651 188.4,16.5957 188.311,16.623 C188.221,16.6504 188.12,16.6751 188.008,16.6973 C187.896,16.7194 187.784,16.7389 187.672,16.7559 C187.56,16.7728 187.458,16.7878 187.367,16.8008 C187.172,16.8294 187.001,16.875 186.855,16.9375 C186.71,17 186.596,17.084 186.516,17.1895 C186.435,17.2949 186.395,17.4258 186.395,17.582 C186.395,17.8086 186.477,17.9811 186.643,18.0996 C186.808,18.2181 187.018,18.2773 187.273,18.2773 M194.652,13.3125 L194.652,14.5625 L191.039,14.5625 L191.039,13.3125 L194.652,13.3125 M191.859,11.875 L193.523,11.875 L193.523,17.4688 C193.523,17.6224 193.547,17.7415 193.594,17.8262 C193.641,17.9108 193.706,17.9701 193.791,18.0039 C193.876,18.0378 193.974,18.0547 194.086,18.0547 C194.164,18.0547 194.242,18.0475 194.32,18.0332 C194.398,18.0189 194.458,18.0078 194.5,18 L194.762,19.2383 C194.678,19.2643 194.561,19.2949 194.41,19.3301 C194.259,19.3652 194.076,19.3867 193.859,19.3945 C193.458,19.4102 193.107,19.3568 192.807,19.2344 C192.506,19.112 192.272,18.9219 192.105,18.6641 C191.939,18.4063 191.857,18.0807 191.859,17.6875 L191.859,11.875 M199.574,16.7578 L199.574,13.3125 L201.238,13.3125 L201.238,19.3125 L199.641,19.3125 L199.641,18.2227 L199.578,18.2227 C199.443,18.5742 199.218,18.8568 198.904,19.0703 C198.59,19.2839 198.208,19.3906 197.758,19.3906 C197.357,19.3906 197.004,19.2995 196.699,19.1172 C196.395,18.9349 196.157,18.6758 195.986,18.3398 C195.816,18.0039 195.729,17.6016 195.727,17.1328 L195.727,13.3125 L197.391,13.3125 L197.391,16.8359 C197.393,17.1901 197.488,17.4701 197.676,17.6758 C197.863,17.8815 198.115,17.9844 198.43,17.9844 C198.63,17.9844 198.818,17.9382 198.992,17.8457 C199.167,17.7533 199.308,17.6159 199.416,17.4336 C199.524,17.2513 199.577,17.026 199.574,16.7578 M202.555,19.3125 L202.555,13.3125 L204.168,13.3125 L204.168,14.3594 L204.23,14.3594 C204.34,13.987 204.523,13.7051 204.781,13.5137 C205.039,13.3223 205.336,13.2266 205.672,13.2266 C205.755,13.2266 205.845,13.2318 205.941,13.2422 C206.038,13.2526 206.122,13.2669 206.195,13.2852 L206.195,14.7617 C206.117,14.7383 206.009,14.7174 205.871,14.6992 C205.733,14.681 205.607,14.6719 205.492,14.6719 C205.247,14.6719 205.029,14.7246 204.838,14.8301 C204.646,14.9355 204.495,15.082 204.385,15.2695 C204.274,15.457 204.219,15.6732 204.219,15.918 L204.219,19.3125 L202.555,19.3125 M209.492,19.4297 C208.875,19.4297 208.344,19.304 207.9,19.0527 C207.456,18.8014 207.115,18.4447 206.875,17.9824 C206.635,17.5202 206.516,16.9727 206.516,16.3398 C206.516,15.7227 206.635,15.181 206.875,14.7148 C207.115,14.2487 207.452,13.8854 207.889,13.625 C208.325,13.3646 208.837,13.2344 209.426,13.2344 C209.822,13.2344 210.191,13.2975 210.533,13.4238 C210.876,13.5501 211.175,13.7396 211.432,13.9922 C211.688,14.2448 211.888,14.5618 212.031,14.9434 C212.174,15.3249 212.246,15.7708 212.246,16.2813 L212.246,16.7383 L207.18,16.7383 L207.18,15.707 L210.68,15.707 C210.68,15.4674 210.628,15.2552 210.523,15.0703 C210.419,14.8854 210.275,14.7402 210.092,14.6348 C209.908,14.5293 209.695,14.4766 209.453,14.4766 C209.201,14.4766 208.977,14.5345 208.783,14.6504 C208.589,14.7663 208.438,14.9212 208.328,15.1152 C208.219,15.3092 208.163,15.5247 208.16,15.7617 L208.16,16.7422 C208.16,17.0391 208.215,17.2956 208.326,17.5117 C208.437,17.7279 208.594,17.8945 208.797,18.0117 C209,18.1289 209.241,18.1875 209.52,18.1875 C209.704,18.1875 209.874,18.1615 210.027,18.1094 C210.181,18.0573 210.313,17.9792 210.422,17.875 C210.531,17.7708 210.615,17.6432 210.672,17.4922 L212.211,17.5938 C212.133,17.9635 211.973,18.2858 211.732,18.5605 C211.492,18.8353 211.182,19.0488 210.803,19.2012 C210.424,19.3535 209.987,19.4297 209.492,19.4297 M216.234,15.3125 C216.234,14.3438 216.364,13.4518 216.623,12.6367 C216.882,11.8216 217.279,11.0664 217.813,10.3711 L219.402,10.3711 C219.199,10.6289 219.01,10.9434 218.836,11.3145 C218.661,11.6855 218.509,12.0924 218.379,12.5352 C218.249,12.9779 218.147,13.4355 218.074,13.9082 C218.001,14.3809 217.965,14.849 217.965,15.3125 C217.965,15.9297 218.028,16.5527 218.154,17.1816 C218.281,17.8105 218.452,18.3945 218.67,18.9336 C218.887,19.4727 219.132,19.9141 219.402,20.2578 L217.813,20.2578 C217.279,19.5625 216.882,18.8073 216.623,17.9922 C216.364,17.1771 216.234,16.2839 216.234,15.3125 M227.457,14.1133 L225.746,14.1133 C225.715,13.8919 225.651,13.6947 225.555,13.5215 C225.458,13.3483 225.335,13.2005 225.184,13.0781 C225.033,12.9557 224.859,12.862 224.662,12.7969 C224.465,12.7318 224.253,12.6992 224.023,12.6992 C223.609,12.6992 223.249,12.8014 222.941,13.0059 C222.634,13.2103 222.396,13.5072 222.227,13.8965 C222.057,14.2858 221.973,14.7578 221.973,15.3125 C221.973,15.8828 222.058,16.362 222.229,16.75 C222.399,17.138 222.638,17.431 222.945,17.6289 C223.253,17.8268 223.608,17.9258 224.012,17.9258 C224.238,17.9258 224.449,17.8958 224.643,17.8359 C224.837,17.776 225.009,17.6882 225.16,17.5723 C225.311,17.4564 225.437,17.3151 225.537,17.1484 C225.637,16.9818 225.707,16.7917 225.746,16.5781 L227.457,16.5859 C227.413,16.9531 227.303,17.3066 227.127,17.6465 C226.951,17.9863 226.715,18.2897 226.42,18.5566 C226.124,18.8236 225.773,19.0345 225.365,19.1895 C224.958,19.3444 224.497,19.4219 223.984,19.4219 C223.271,19.4219 222.633,19.2604 222.072,18.9375 C221.511,18.6146 221.068,18.1471 220.744,17.5352 C220.42,16.9232 220.258,16.1823 220.258,15.3125 C220.258,14.4401 220.422,13.6979 220.75,13.0859 C221.078,12.474 221.523,12.0072 222.086,11.6855 C222.648,11.3639 223.281,11.2031 223.984,11.2031 C224.448,11.2031 224.878,11.2682 225.275,11.3984 C225.673,11.5286 226.025,11.7181 226.332,11.9668 C226.639,12.2155 226.89,12.5195 227.084,12.8789 C227.278,13.2383 227.402,13.6497 227.457,14.1133 M230.496,15.0977 C230.142,15.0977 229.82,15.0111 229.529,14.8379 C229.239,14.6647 229.008,14.4329 228.836,14.1426 C228.664,13.8522 228.578,13.5299 228.578,13.1758 C228.578,12.8242 228.664,12.5033 228.836,12.2129 C229.008,11.9225 229.239,11.6908 229.529,11.5176 C229.82,11.3444 230.142,11.2578 230.496,11.2578 C230.85,11.2578 231.173,11.3444 231.463,11.5176 C231.753,11.6908 231.984,11.9225 232.156,12.2129 C232.328,12.5033 232.414,12.8242 232.414,13.1758 C232.414,13.5299 232.328,13.8522 232.156,14.1426 C231.984,14.4329 231.753,14.6647 231.463,14.8379 C231.173,15.0111 230.85,15.0977 230.496,15.0977 M230.496,13.9883 C230.647,13.9883 230.784,13.9518 230.906,13.8789 C231.029,13.806 231.126,13.7083 231.197,13.5859 C231.269,13.4635 231.305,13.3268 231.305,13.1758 C231.305,13.0273 231.269,12.8919 231.197,12.7695 C231.126,12.6471 231.029,12.5495 230.906,12.4766 C230.784,12.4036 230.647,12.3672 230.496,12.3672 C230.348,12.3672 230.212,12.4036 230.09,12.4766 C229.967,12.5495 229.87,12.6471 229.797,12.7695 C229.724,12.8919 229.688,13.0273 229.688,13.1758 C229.688,13.3268 229.724,13.4635 229.797,13.5859 C229.87,13.7083 229.967,13.806 230.09,13.8789 C230.212,13.9518 230.348,13.9883 230.496,13.9883 M236.484,16.1055 C236.484,17.0768 236.355,17.9701 236.096,18.7852 C235.837,19.6003 235.44,20.3555 234.906,21.0508 L233.316,21.0508 C233.52,20.793 233.708,20.4779 233.883,20.1055 C234.057,19.7331 234.21,19.3262 234.34,18.8848 C234.47,18.4434 234.572,17.9857 234.645,17.5117 C234.717,17.0378 234.754,16.569 234.754,16.1055 C234.754,15.4883 234.691,14.8652 234.564,14.2363 C234.438,13.6074 234.266,13.0241 234.049,12.4863 C233.831,11.9486 233.587,11.5078 233.316,11.1641 L234.906,11.1641 C235.44,11.8594 235.837,12.6146 236.096,13.4297 C236.355,14.2448 236.484,15.1367 236.484,16.1055 "/>
</g>

<g fill="#ffffff" fill-opacity="1" stroke="none" transform="matrix(0.228,0,0,0.228,11.6,4.6)"
font-family="Inter" font-size="11" font-weight="700" font-style="normal" 
>
<path vector-effect="none" fill-rule="nonzero" d="M23.3682,15.995 C21.89,15.995 20.7001,17.185 20.7001,18.6631 L20.7001,81.3343 C20.7001,82.8125 21.89,84.0024 23.3682,84.0024 L76.6077,84.0024 C78.0859,84.0024 79.2758,82.8125 79.2758,81.3343 L79.2758,18.6631 C79.2758,17.185 78.0859,15.995 76.6077,15.995 L50.8905,15.995 C51.6703,16.0444 52.2838,16.6869 52.2838,17.4796 L52.2838,26.9112 C52.2838,27.7362 51.6196,28.4004 50.7946,28.4004 L49.3054,28.4004 C48.4804,28.4004 47.8161,27.7362 47.8161,26.9112 L47.8161,17.4796 C47.8161,16.6869 48.4298,16.0443 49.2096,15.995 L23.3682,15.995 M46.7613,35.2087 L53.2146,35.2087 C53.9021,35.2087 54.4556,35.7622 54.4556,36.4497 L54.4556,42.903 C54.4556,43.5906 53.9021,44.1439 53.2146,44.1439 L46.7613,44.1439 C46.0738,44.1439 45.5202,43.5906 45.5202,42.903 L45.5202,36.4497 C45.5202,35.7622 46.0738,35.2087 46.7613,35.2087 "/>
</g>

<g fill="none" stroke="#000000" stroke-opacity="1" stroke-width="2.43854" stroke-linecap="butt" stroke-linejoin="miter" stroke-miterlimit="4" transform="matrix(0.228,0,0,0.228,11.6,4.6)"
font-family="Inter" font-size="11" font-weight="700" font-style="normal" 
>
<path vector-effect="none" fill-rule="nonzero" d="M23.3682,15.995 C21.89,15.995 20.7001,17.185 20.7001,18.6631 L20.7001,81.3343 C20.7001,82.8125 21.89,84.0024 23.3682,84.0024 L76.6077,84.0024 C78.0859,84.0024 79.2758,82.8125 79.2758,81.3343 L79.2758,18.6631 C79.2758,17.185 78.0859,15.995 76.6077,15.995 L50.8905,15.995 C51.6703,16.0444 52.2838,16.6869 52.2838,17.4796 L52.2838,26.9112 C52.2838,27.7362 51.6196,28.4004 50.7946,28.4004 L49.3054,28.4004 C48.4804,28.4004 47.8161,27.7362 47.8161,26.9112 L47.8161,17.4796 C47.8161,16.6869 48.4298,16.0443 49.2096,15.995 L23.3682,15.995 M46.7613,35.2087 L53.2146,35.2087 C53.9021,35.2087 54.4556,35.7622 54.4556,36.4497 L54.4556,42.903 C54.4556,43.5906 53.9021,44.1439 53.2146,44.1439 L46.7613,44.1439 C46.0738,44.1439 45.5202,43.5906 45.5202,42.903 L45.5202,36.4497 C45.5202,35.7622 46.0738,35.2087 46.7613,35.2087 "/>
</g>

<g fill="#000000" fill-opacity="1" stroke="none" transform="matrix(0.228,0,0,0.228,11.6,4.6)"
font-family="Inter" font-size="11" font-weight="700" font-style="normal" 
>
<path vector-effect="none" fill-rule="evenodd" d="M14.2421,17.9523 C14.2421,17.1298 14.9088,16.4631 15.7313,16.4631 L18.7097,16.4631 C19.5322,16.4631 20.1989,17.1298 20.1989,17.9523 L20.1989,33.8372 C20.1989,34.6597 19.5322,35.3264 18.7097,35.3264 L15.7313,35.3264 C14.9088,35.3264 14.2421,34.6597 14.2421,33.8372 L14.2421,17.9523"/>
</g>

<g fill="none" stroke="#000000" stroke-opacity="1" stroke-width="2.43854" stroke-linecap="butt" stroke-linejoin="miter" stroke-miterlimit="4" transform="matrix(0.228,0,0,0.228,11.6,4.6)"
font-family="Inter" font-size="11" font-weight="700" font-style="normal" 
>
<path vector-effect="none" fill-rule="evenodd" d="M14.2421,17.9523 C14.2421,17.1298 14.9088,16.4631 15.7313,16.4631 L18.7097,16.4631 C19.5322,16.4631 20.1989,17.1298 20.1989,17.9523 L20.1989,33.8372 C20.1989,34.6597 19.5322,35.3264 18.7097,35.3264 L15.7313,35.3264 C14.9088,35.3264 14.2421,34.6597 14.2421,33.8372 L14.2421,17.9523"/>
</g>

<g fill="#000000" fill-opacity="1" stroke="none" transform="matrix(0.228,0,0,0.228,11.6,4.6)"
font-family="Inter" font-size="11" font-weight="700" font-style="normal" 
>
<path vector-effect="none" fill-rule="evenodd" d="M79.3249,17.4662 C79.3249,16.6438 79.9916,15.977 80.8141,15.977 L83.7925,15.977 C84.615,15.977 85.2817,16.6438 85.2817,17.4662 L85.2817,33.3512 C85.2817,34.1736 84.615,34.8404 83.7925,34.8404 L80.8141,34.8404 C79.9916,34.8404 79.3249,34.1736 79.3249,33.3512 L79.3249,17.4662"/>
</g>

<g fill="none" stroke="#000000" stroke-opacity="1" stroke-width="2.43854" stroke-linecap="butt" stroke-linejoin="miter" stroke-miterlimit="4" transform="matrix(0.228,0,0,0.228,11.6,4.6)"
font-family="Inter" font-size="11" font-weight="700" font-style="normal" 
>
<path vector-effect="none" fill-rule="evenodd" d="M79.3249,17.4662 C79.3249,16.6438 79.9916,15.977 80.8141,15.977 L83.7925,15.977 C84.615,15.977 85.2817,16.6438 85.2817,17.4662 L85.2817,33.3512 C85.2817,34.1736 84.615,34.8404 83.7925,34.8404 L80.8141,34.8404 C79.9916,34.8404 79.3249,34.1736 79.3249,33.3512 L79.3249,17.4662"/>
</g>

<g fill="#000000" fill-opacity="1" stroke="none" transform="matrix(0.228,0,0,0.228,11.6,4.6)"
font-family="Inter" font-size="11" font-weight="700" font-style="normal" 
>
<path vector-effect="none" fill-rule="evenodd" d="M79.5633,66.576 C79.5633,65.7535 80.23,65.0868 81.0525,65.0868 L84.0309,65.0868 C84.8534,65.0868 85.5201,65.7535 85.5201,66.576 L85.5201,82.4609 C85.5201,83.2834 84.8534,83.9501 84.0309,83.9501 L81.0525,83.9501 C80.23,83.9501 79.5633,83.2834 79.5633,82.4609 L79.5633,66.576"/>
</g>

<g fill="none" stroke="#000000" stroke-opacity="1" stroke-width="2.43854" stroke-linecap="butt" stroke-linejoin="miter" stroke-miterlimit="4" transform="matrix(0.228,0,0,0.228,11.6,4.6)"
font-family="Inter" font-size="11" font-weight="700" font-style="normal" 
>
<path vector-effect="none" fill-rule="evenodd" d="M79.5633,66.576 C79.5633,65.7535 80.23,65.0868 81.0525,65.0868 L84.0309,65.0868 C84.8534,65.0868 85.5201,65.7535 85.5201,66.576 L85.5201,82.4609 C85.5201,83.2834 84.8534,83.9501 84.0309,83.9501 L81.0525,83.9501 C80.23,83.9501 79.5633,83.2834 79.5633,82.4609 L79.5633,66.576"/>
</g>

<g fill="#000000" fill-opacity="1" stroke="none" transform="matrix(0.228,0,0,0.228,11.6,4.6)"
font-family="Inter" font-size="11" font-weight="700" font-style="normal" 
>
<path vector-effect="none" fill-rule="evenodd" d="M14.6928,66.6283 C14.6928,65.8058 15.3595,65.1391 16.182,65.1391 L19.1604,65.1391 C19.9829,65.1391 20.6496,65.8058 20.6496,66.6283 L20.6496,82.5132 C20.6496,83.3357 19.9829,84.0024 19.1604,84.0024 L16.182,84.0024 C15.3595,84.0024 14.6928,83.3357 14.6928,82.5132 L14.6928,66.6283"/>
</g>

<g fill="none" stroke="#000000" stroke-opacity="1" stroke-width="2.43854" stroke-linecap="butt" stroke-linejoin="miter" stroke-miterlimit="4" transform="matrix(0.228,0,0,0.228,11.6,4.6)"
font-family="Inter" font-size="11" font-weight="700" font-style="normal" 
>
<path vector-effect="none" fill-rule="evenodd" d="M14.6928,66.6283 C14.6928,65.8058 15.3595,65.1391 16.182,65.1391 L19.1604,65.1391 C19.9829,65.1391 20.6496,65.8058 20.6496,66.6283 L20.6496,82.5132 C20.6496,83.3357 19.9829,84.0024 19.1604,84.0024 L16.182,84.0024 C15.3595,84.0024 14.6928,83.3357 14.6928,82.5132 L14.6928,66.6283"/>
</g>

<g fill="none" stroke="#000000" stroke-opacity="1" stroke-width="2.43854" stroke-linecap="butt" stroke-linejoin="miter" stroke-miterlimit="4" transform="matrix(0.228,0,0,0.228,11.6,4.6)"
font-family="Inter" font-size="11" font-weight="700" font-style="normal" 
>
<path vector-effect="none" fill-rule="evenodd" d="M20.92,17.503 C20.92,16.6806 21.5867,16.0138 22.4092,16.0138 L27.125,16.0138 C27.9475,16.0138 28.6142,16.6806 28.6142,17.503 L28.6142,55.9743 C28.6142,56.7968 27.9475,57.4635 27.125,57.4635 L22.4092,57.4635 C21.5867,57.4635 20.92,56.7968 20.92,55.9743 L20.92,17.503"/>
</g>

<g fill="none" stroke="#000000" stroke-opacity="1" stroke-width="2.43854" stroke-linecap="butt" stroke-linejoin="miter" stroke-miterlimit="4" transform="matrix(0.228,0,0,0.228,11.6,4.6)"
font-family="Inter" font-size="11" font-weight="700" font-style="normal" 
>
<path vector-effect="none" fill-rule="evenodd" d="M71.4269,17.6638 C71.4269,16.8414 72.0937,16.1746 72.9162,16.1746 L77.632,16.1746 C78.4545,16.1746 79.1212,16.8414 79.1212,17.6638 L79.1212,56.1351 C79.1212,56.9576 78.4545,57.6243 77.632,57.6243 L72.9162,57.6243 C72.0937,57.6243 71.4269,56.9576 71.4269,56.1351 L71.4269,17.6638"/>
</g>

<g fill="#ffffff" fill-opacity="1" stroke="none" transform="matrix(0.228,0,0,0.228,11.6,4.6)"
font-family="Inter" font-size="11" font-weight="700" font-style="normal" 
>
<path vector-effect="none" fill-rule="evenodd" d="M41.9526,15.9757 C41.9526,15.9593 41.9659,15.9461 41.9822,15.9461 L57.922,15.9461 C57.9384,15.9461 57.9516,15.9593 57.9516,15.9757 C57.9516,15.992 57.9384,16.0053 57.922,16.0053 L41.9822,16.0053 C41.9659,16.0053 41.9526,15.992 41.9526,15.9757 "/>
</g>

<g fill="none" stroke="#000000" stroke-opacity="1" stroke-width="2.3865" stroke-linecap="butt" stroke-linejoin="miter" stroke-miterlimit="4" transform="matrix(0.228,0,0,0.228,11.6,4.6)"
font-family="Inter" font-size="11" font-weight="700" font-style="normal" 
>
<path vector-effect="none" fill-rule="evenodd" d="M41.9526,15.9757 C41.9526,15.9593 41.9659,15.9461 41.9822,15.9461 L57.922,15.9461 C57.9384,15.9461 57.9516,15.9593 57.9516,15.9757 C57.9516,15.992 57.9384,16.0053 57.922,16.0053 L41.9822,16.0053 C41.9659,16.0053 41.9526,15.992 41.9526,15.9757 "/>
</g>

<g fill="#ffffff" fill-opacity="1" stroke="none" transform="matrix(1,0,0,1,0,0)"
font-family="Inter" font-size="11" font-weight="700" font-style="normal" 
>
</g>

<g fill="#ffffff" fill-opacity="1" stroke="#0da6c5" stroke-opacity="1" stroke-width="1" stroke-linecap="square" stroke-linejoin="bevel" transform="matrix(1,0,0,1,0,0)"
font-family="Inter" font-size="11" font-weight="700" font-style="normal" 
>
<polyline fill="none" vector-effect="none" points="45,6 45,26 " />
</g>

<g fill="#ffffff" fill-opacity="1" stroke="#0da6c5" stroke-opacity="1" stroke-width="1" stroke-linecap="square" stroke-linejoin="bevel" transform="matrix(1,0,0,1,0,0)"
font-family="Inter" font-size="11" font-weight="700" font-style="normal" 
>
</g>

<g fill="#1dccf0" fill-opacity="1" stroke="#0da6c5" stroke-opacity="1" stroke-width="1.2" stroke-linecap="square" stroke-linejoin="bevel" transform="matrix(1,0,0,1,56,4)"
font-family="Inter" font-size="11" font-weight="700" font-style="normal" 
>
<path vector-effect="none" fill-rule="evenodd" d="M0.5,3.5 C0.5,1.84315 1.84315,0.5 3.5,0.5 L80.5,0.5 C82.1569,0.5 83.5,1.84315 83.5,3.5 L83.5,20.5 C83.5,22.1569 82.1569,23.5 80.5,23.5 L3.5,23.5 C1.84315,23.5 0.5,22.1569 0.5,20.5 L0.5,3.5"/>
</g>

<g fill="#ffffff" fill-opacity="1" stroke="none" transform="matrix(1,0,0,1,56,4)"
font-family="Inter" font-size="11" font-weight="700" font-style="normal" 
>
<path vector-effect="none" fill-rule="nonzero" d="M10.0078,16 L10.0078,8 L13.2109,8 C13.7995,8 14.2904,8.08724 14.6836,8.26172 C15.0768,8.4362 15.3724,8.67773 15.5703,8.98633 C15.7682,9.29492 15.8672,9.64974 15.8672,10.0508 C15.8672,10.3633 15.8047,10.6374 15.6797,10.873 C15.5547,11.1087 15.3835,11.3014 15.166,11.4512 C14.9486,11.6009 14.7005,11.707 14.4219,11.7695 L14.4219,11.8477 C14.7266,11.8607 15.0124,11.9466 15.2793,12.1055 C15.5462,12.2643 15.763,12.4863 15.9297,12.7715 C16.0964,13.0566 16.1797,13.3958 16.1797,13.7891 C16.1797,14.2135 16.0749,14.5918 15.8652,14.9238 C15.6556,15.2559 15.3464,15.5182 14.9375,15.7109 C14.5286,15.9036 14.0247,16 13.4258,16 L10.0078,16 M11.6992,14.6172 L13.0781,14.6172 C13.5495,14.6172 13.8932,14.5267 14.1094,14.3457 C14.3255,14.1647 14.4336,13.9232 14.4336,13.6211 C14.4336,13.3997 14.3802,13.2044 14.2734,13.0352 C14.1667,12.8659 14.015,12.7331 13.8184,12.6367 C13.6217,12.5404 13.388,12.4922 13.1172,12.4922 L11.6992,12.4922 L11.6992,14.6172 M11.6992,11.3477 L12.9531,11.3477 C13.1849,11.3477 13.3913,11.3066 13.5723,11.2246 C13.7533,11.1426 13.8965,11.026 14.002,10.875 C14.1074,10.724 14.1602,10.543 14.1602,10.332 C14.1602,10.043 14.0579,9.8099 13.8535,9.63281 C13.6491,9.45573 13.3594,9.36719 12.9844,9.36719 L11.6992,9.36719 L11.6992,11.3477 M19.0742,16 L16.7852,8 L18.6328,8 L19.957,13.5586 L20.0234,13.5586 L21.4844,8 L23.0664,8 L24.5234,13.5703 L24.5938,13.5703 L25.918,8 L27.7656,8 L25.4766,16 L23.8281,16 L22.3047,10.7695 L22.2422,10.7695 L20.7227,16 L19.0742,16 M28.5781,16 L28.5781,14.9961 L32.5703,9.39453 L28.5703,9.39453 L28.5703,8 L34.6953,8 L34.6953,9.00391 L30.6992,14.6055 L34.7031,14.6055 L34.7031,16 L28.5781,16 M35.9453,16 L35.9453,14.7813 L38.793,12.1445 C39.0352,11.9102 39.2389,11.6992 39.4043,11.5117 C39.5697,11.3242 39.6953,11.14 39.7813,10.959 C39.8672,10.778 39.9102,10.582 39.9102,10.3711 C39.9102,10.1367 39.8568,9.93424 39.75,9.76367 C39.6432,9.5931 39.4974,9.46159 39.3125,9.36914 C39.1276,9.27669 38.918,9.23047 38.6836,9.23047 C38.4388,9.23047 38.2253,9.27995 38.043,9.37891 C37.8607,9.47786 37.7201,9.61979 37.6211,9.80469 C37.5221,9.98958 37.4727,10.2096 37.4727,10.4648 L35.8672,10.4648 C35.8672,9.94141 35.9857,9.48698 36.2227,9.10156 C36.4596,8.71615 36.7917,8.41797 37.2188,8.20703 C37.6458,7.99609 38.138,7.89063 38.6953,7.89063 C39.2682,7.89063 39.7676,7.99154 40.1934,8.19336 C40.6191,8.39518 40.9505,8.67448 41.1875,9.03125 C41.4245,9.38802 41.543,9.79688 41.543,10.2578 C41.543,10.5599 41.4837,10.8581 41.3652,11.1523 C41.2467,11.4466 41.0365,11.7728 40.7344,12.1309 C40.4323,12.4889 40.0065,12.918 39.457,13.418 L38.2891,14.5625 L38.2891,14.6172 L41.6484,14.6172 L41.6484,16 L35.9453,16 M42.9141,16 L42.9141,8 L44.6055,8 L44.6055,11.3008 L48.0391,11.3008 L48.0391,8 L49.7266,8 L49.7266,16 L48.0391,16 L48.0391,12.6953 L44.6055,12.6953 L44.6055,16 L42.9141,16 M51.1172,16 L51.1172,8 L54.3203,8 C54.9089,8 55.3997,8.08724 55.793,8.26172 C56.1862,8.4362 56.4818,8.67773 56.6797,8.98633 C56.8776,9.29492 56.9766,9.64974 56.9766,10.0508 C56.9766,10.3633 56.9141,10.6374 56.7891,10.873 C56.6641,11.1087 56.4928,11.3014 56.2754,11.4512 C56.0579,11.6009 55.8099,11.707 55.5313,11.7695 L55.5313,11.8477 C55.8359,11.8607 56.1217,11.9466 56.3887,12.1055 C56.6556,12.2643 56.8724,12.4863 57.0391,12.7715 C57.2057,13.0566 57.2891,13.3958 57.2891,13.7891 C57.2891,14.2135 57.1842,14.5918 56.9746,14.9238 C56.765,15.2559 56.4557,15.5182 56.0469,15.7109 C55.638,15.9036 55.1341,16 54.5352,16 L51.1172,16 M52.8086,14.6172 L54.1875,14.6172 C54.6589,14.6172 55.0026,14.5267 55.2188,14.3457 C55.4349,14.1647 55.543,13.9232 55.543,13.6211 C55.543,13.3997 55.4896,13.2044 55.3828,13.0352 C55.276,12.8659 55.1243,12.7331 54.9277,12.6367 C54.7311,12.5404 54.4974,12.4922 54.2266,12.4922 L52.8086,12.4922 L52.8086,14.6172 M52.8086,11.3477 L54.0625,11.3477 C54.2943,11.3477 54.5007,11.3066 54.6816,11.2246 C54.8626,11.1426 55.0059,11.026 55.1113,10.875 C55.2168,10.724 55.2695,10.543 55.2695,10.332 C55.2695,10.043 55.1673,9.8099 54.9629,9.63281 C54.7585,9.45573 54.4688,9.36719 54.0938,9.36719 L52.8086,9.36719 L52.8086,11.3477 M61.8164,8 L61.8164,16 L60.125,16 L60.125,9.60547 L60.0781,9.60547 L58.2461,10.7539 L58.2461,9.25391 L60.2266,8 L61.8164,8"/>
</g>

<g fill="#ffffff" fill-opacity="1" stroke="none" transform="matrix(0.03125,0,0,0.03125,126,12)"
font-family="Inter" font-size="11" font-weight="700" font-style="normal" 
>
<path vector-effect="none" fill-rule="nonzero" d="M111.326,191.938 C120.545,201.158 135.517,201.158 144.737,191.938 L239.144,97.5313 C245.929,90.7458 247.921,80.6413 244.233,71.7907 C240.545,62.9401 231.989,57.1871 222.401,57.1871 L33.5875,57.2608 C24.0731,57.2608 15.4437,63.0137 11.7559,71.8644 C8.06815,80.715 10.1333,90.8195 16.845,97.605 L111.252,192.012 L111.326,191.938"/>
</g>

<g fill="none" stroke="#000000" stroke-opacity="1" stroke-width="13.7195" stroke-linecap="butt" stroke-linejoin="miter" stroke-miterlimit="4" transform="matrix(0.03125,0,0,0.03125,126,12)"
font-family="Inter" font-size="11" font-weight="700" font-style="normal" 
>
<path vector-effect="none" fill-rule="nonzero" d="M111.326,191.938 C120.545,201.158 135.517,201.158 144.737,191.938 L239.144,97.5313 C245.929,90.7458 247.921,80.6413 244.233,71.7907 C240.545,62.9401 231.989,57.1871 222.401,57.1871 L33.5875,57.2608 C24.0731,57.2608 15.4437,63.0137 11.7559,71.8644 C8.06815,80.715 10.1333,90.8195 16.845,97.605 L111.252,192.012 L111.326,191.938"/>
</g>

<g fill="#ffffff" fill-opacity="1" stroke="none" transform="matrix(1,0,0,1,56,4)"
font-family="Inter" font-size="11" font-weight="700" font-style="normal" 
>
</g>

<g fill="#ffffff" fill-opacity="1" stroke="#0da6c5" stroke-opacity="1" stroke-width="1" stroke-linecap="square" stroke-linejoin="bevel" transform="matrix(1,0,0,1,0,0)"
font-family="Inter" font-size="11" font-weight="700" font-style="normal" 
>
</g>

<g fill="none" stroke="#000000" stroke-opacity="1" stroke-width="1" stroke-linecap="square" stroke-linejoin="bevel" transform="matrix(1,0,0,1,0,0)"
font-family=".AppleSystemUIFont" font-size="13" font-weight="400" font-style="normal" 
>
</g>
</g>
</svg>
