<?xml version="1.0" encoding="UTF-8" standalone="no"?>
<svg width="62.4417mm" height="21.1667mm"
 viewBox="0 0 177 60"
 xmlns="http://www.w3.org/2000/svg" xmlns:xlink="http://www.w3.org/1999/xlink" version="1.2" baseProfile="tiny">
<title>Abstract block</title>
<desc>block_event_when_program_started</desc>
<defs>
</defs>
<g fill="none" stroke="black" stroke-width="1" fill-rule="evenodd" stroke-linecap="square" stroke-linejoin="bevel" >

<g fill="none" stroke="#000000" stroke-opacity="1" stroke-width="1" stroke-linecap="square" stroke-linejoin="bevel" transform="matrix(1,0,0,1,0,0)"
font-family=".AppleSystemUIFont" font-size="13" font-weight="400" font-style="normal" 
>
</g>

<g fill="none" stroke="#000000" stroke-opacity="1" stroke-width="1" stroke-linecap="square" stroke-linejoin="bevel" transform="matrix(1,0,0,1,0,0)"
font-family=".AppleSystemUIFont" font-size="13" font-weight="400" font-style="normal" 
>
</g>

<g fill="#f5c400" fill-opacity="1" stroke="#ba9500" stroke-opacity="1" stroke-width="1.2" stroke-linecap="square" stroke-linejoin="bevel" transform="matrix(1,0,0,1,0,0)"
font-family=".AppleSystemUIFont" font-size="13" font-weight="400" font-style="normal" 
>
<path vector-effect="none" fill-rule="evenodd" d="M0.5,20.5 L1,18.6516 L1,18 L1.77836,17.1565 L2.58892,16.3401 L3.43062,15.551 L4.30242,14.7891 L5.20325,14.0544 L6.13206,13.3469 L7.08779,12.6667 L8.06939,12.0136 L9.0758,11.3878 L10.106,10.7891 L11.1588,10.2177 L12.2333,9.67347 L13.3284,9.15646 L14.4431,8.66667 L15.5762,8.20408 L16.7267,7.76871 L17.8936,7.36054 L19.0758,6.97959 L20.2723,6.62585 L21.4819,6.29932 L22.7037,6 L23.9366,5.72789 L25.1795,5.48299 L26.4314,5.26531 L27.6912,5.07483 L28.9578,4.91156 L30.2303,4.77551 L31.5075,4.66667 L32.7885,4.58503 L34.072,4.53061 L35.3572,4.5034 L36.6428,4.5034 L37.928,4.53061 L39.2115,4.58503 L40.4925,4.66667 L41.7697,4.77551 L43.0422,4.91156 L44.3088,5.07483 L45.5686,5.26531 L46.8205,5.48299 L48.0634,5.72789 L49.2963,6 L50.5181,6.29932 L51.7277,6.62585 L52.9242,6.97959 L54.1064,7.36054 L55.2733,7.76871 L56.4238,8.20408 L57.5569,8.66667 L58.6716,9.15646 L59.7667,9.67347 L60.8412,10.2177 L61.894,10.7891 L62.9242,11.3878 L63.9306,12.0136 L64.9122,12.6667 L65.8679,13.3469 L66.7968,14.0544 L67.6976,14.7891 L68.5694,15.551 L69.4111,16.3401 L69.5698,16.5 L172.5,16.5 L174.519,17.0461 L175.954,18.4811 L176.5,20.5 L176.5,47.5 L175.954,49.5189 L174.519,50.9539 L172.5,51.5 L34.375,51.5 L33.584,51.9766 L32.8281,52.6875 L32.002,53.6797 L31,55 L30.2441,55.6602 L29.4531,56.1563 L28.5918,56.5117 L27.625,56.75 L26.5176,56.8945 L25.2344,56.9688 L23.7402,56.9961 L22,57 L20.2598,56.9961 L18.7656,56.9688 L17.4824,56.8945 L16.375,56.75 L15.4082,56.5117 L14.5469,56.1563 L13.7559,55.6602 L13,55 L11.998,53.6797 L11.1719,52.6875 L10.416,51.9766 L9.625,51.5 L4.5,51.5 L2.48112,50.9539 L1.04612,49.5189 L0.5,47.5 L0.5,20.5"/>
</g>

<g fill="#ffffff" fill-opacity="1" stroke="none" transform="matrix(1,0,0,1,0,0)"
font-family="Inter" font-size="11" font-weight="700" font-style="normal" 
>
<path vector-effect="none" fill-rule="nonzero" d="M53.5508,36.7656 L51.918,30.7656 L53.6016,30.7656 L54.5313,34.7969 L54.5859,34.7969 L55.5547,30.7656 L57.207,30.7656 L58.1914,34.7734 L58.2422,34.7734 L59.1563,30.7656 L60.8359,30.7656 L59.207,36.7656 L57.4453,36.7656 L56.4141,32.9922 L56.3398,32.9922 L55.3086,36.7656 L53.5508,36.7656 M63.375,33.2969 L63.375,36.7656 L61.7109,36.7656 L61.7109,28.7656 L63.3281,28.7656 L63.3281,31.8242 L63.3984,31.8242 C63.5339,31.4701 63.7526,31.1921 64.0547,30.9902 C64.3568,30.7884 64.7357,30.6875 65.1914,30.6875 C65.6081,30.6875 65.972,30.778 66.2832,30.959 C66.5944,31.14 66.8366,31.3991 67.0098,31.7363 C67.1829,32.0736 67.2682,32.4766 67.2656,32.9453 L67.2656,36.7656 L65.6016,36.7656 L65.6016,33.2422 C65.6042,32.8724 65.5111,32.5846 65.3223,32.3789 C65.1335,32.1732 64.8698,32.0703 64.5313,32.0703 C64.3047,32.0703 64.1048,32.1185 63.9316,32.2148 C63.7585,32.3112 63.623,32.4512 63.5254,32.6348 C63.4277,32.8184 63.3776,33.0391 63.375,33.2969 M71.3047,36.8828 C70.6875,36.8828 70.1569,36.7572 69.7129,36.5059 C69.2689,36.2546 68.9271,35.8978 68.6875,35.4355 C68.4479,34.9733 68.3281,34.4258 68.3281,33.793 C68.3281,33.1758 68.4479,32.6341 68.6875,32.168 C68.9271,31.7018 69.265,31.3385 69.7012,31.0781 C70.1374,30.8177 70.6497,30.6875 71.2383,30.6875 C71.6341,30.6875 72.0033,30.7507 72.3457,30.877 C72.6882,31.0033 72.9876,31.1927 73.2441,31.4453 C73.5007,31.6979 73.7005,32.015 73.8438,32.3965 C73.987,32.778 74.0586,33.224 74.0586,33.7344 L74.0586,34.1914 L68.9922,34.1914 L68.9922,33.1602 L72.4922,33.1602 C72.4922,32.9206 72.4401,32.7083 72.3359,32.5234 C72.2318,32.3385 72.0879,32.1934 71.9043,32.0879 C71.7207,31.9824 71.5078,31.9297 71.2656,31.9297 C71.013,31.9297 70.7897,31.9876 70.5957,32.1035 C70.4017,32.2194 70.25,32.3743 70.1406,32.5684 C70.0313,32.7624 69.9753,32.9779 69.9727,33.2148 L69.9727,34.1953 C69.9727,34.4922 70.028,34.7487 70.1387,34.9648 C70.2493,35.181 70.4063,35.3477 70.6094,35.4648 C70.8125,35.582 71.0534,35.6406 71.332,35.6406 C71.5169,35.6406 71.6862,35.6146 71.8398,35.5625 C71.9935,35.5104 72.125,35.4323 72.2344,35.3281 C72.3438,35.224 72.4271,35.0964 72.4844,34.9453 L74.0234,35.0469 C73.9453,35.4167 73.7858,35.7389 73.5449,36.0137 C73.304,36.2884 72.9941,36.502 72.6152,36.6543 C72.2363,36.8066 71.7995,36.8828 71.3047,36.8828 M76.7969,33.2969 L76.7969,36.7656 L75.1328,36.7656 L75.1328,30.7656 L76.7188,30.7656 L76.7188,31.8242 L76.7891,31.8242 C76.9219,31.4753 77.1445,31.1986 77.457,30.9941 C77.7695,30.7897 78.1484,30.6875 78.5938,30.6875 C79.0104,30.6875 79.3737,30.7786 79.6836,30.9609 C79.9935,31.1432 80.2344,31.403 80.4063,31.7402 C80.5781,32.0775 80.6641,32.4792 80.6641,32.9453 L80.6641,36.7656 L79,36.7656 L79,33.2422 C79.0026,32.875 78.9089,32.5879 78.7188,32.3809 C78.5286,32.1738 78.2669,32.0703 77.9336,32.0703 C77.7096,32.0703 77.5124,32.1185 77.3418,32.2148 C77.1712,32.3112 77.0384,32.4512 76.9434,32.6348 C76.8483,32.8184 76.7995,33.0391 76.7969,33.2969 M84.5078,39.0156 L84.5078,30.7656 L86.1484,30.7656 L86.1484,31.7734 L86.2227,31.7734 C86.2956,31.612 86.4017,31.4473 86.541,31.2793 C86.6803,31.1113 86.8626,30.9707 87.0879,30.8574 C87.3132,30.7441 87.5938,30.6875 87.9297,30.6875 C88.3672,30.6875 88.7708,30.8014 89.1406,31.0293 C89.5104,31.2572 89.806,31.5996 90.0273,32.0566 C90.2487,32.5137 90.3594,33.0859 90.3594,33.7734 C90.3594,34.4427 90.252,35.0072 90.0371,35.4668 C89.8223,35.9264 89.5306,36.2741 89.1621,36.5098 C88.7936,36.7454 88.3815,36.8633 87.9258,36.8633 C87.6029,36.8633 87.3288,36.8099 87.1035,36.7031 C86.8783,36.5964 86.694,36.4616 86.5508,36.2988 C86.4076,36.1361 86.2982,35.9714 86.2227,35.8047 L86.1719,35.8047 L86.1719,39.0156 L84.5078,39.0156 M86.1367,33.7656 C86.1367,34.1224 86.1862,34.4336 86.2852,34.6992 C86.3841,34.9648 86.5273,35.1712 86.7148,35.3184 C86.9023,35.4655 87.1302,35.5391 87.3984,35.5391 C87.6693,35.5391 87.8984,35.4642 88.0859,35.3145 C88.2734,35.1647 88.416,34.9564 88.5137,34.6895 C88.6113,34.4225 88.6602,34.1146 88.6602,33.7656 C88.6602,33.4193 88.612,33.1146 88.5156,32.8516 C88.4193,32.5885 88.2773,32.3828 88.0898,32.2344 C87.9023,32.0859 87.6719,32.0117 87.3984,32.0117 C87.1276,32.0117 86.8991,32.0833 86.7129,32.2266 C86.5267,32.3698 86.3841,32.5729 86.2852,32.8359 C86.1862,33.099 86.1367,33.4089 86.1367,33.7656 M91.4609,36.7656 L91.4609,30.7656 L93.0742,30.7656 L93.0742,31.8125 L93.1367,31.8125 C93.2461,31.4401 93.4297,31.1582 93.6875,30.9668 C93.9453,30.7754 94.2422,30.6797 94.5781,30.6797 C94.6615,30.6797 94.7513,30.6849 94.8477,30.6953 C94.944,30.7057 95.0286,30.7201 95.1016,30.7383 L95.1016,32.2148 C95.0234,32.1914 94.9154,32.1706 94.7773,32.1523 C94.6393,32.1341 94.513,32.125 94.3984,32.125 C94.1536,32.125 93.9355,32.1777 93.7441,32.2832 C93.5527,32.3887 93.4017,32.5352 93.291,32.7227 C93.1803,32.9102 93.125,33.1263 93.125,33.3711 L93.125,36.7656 L91.4609,36.7656 M98.375,36.8828 C97.7682,36.8828 97.2441,36.7533 96.8027,36.4941 C96.3613,36.235 96.0208,35.873 95.7813,35.4082 C95.5417,34.9434 95.4219,34.4036 95.4219,33.7891 C95.4219,33.1693 95.5417,32.627 95.7813,32.1621 C96.0208,31.6973 96.3613,31.3353 96.8027,31.0762 C97.2441,30.8171 97.7682,30.6875 98.375,30.6875 C98.9818,30.6875 99.5059,30.8171 99.9473,31.0762 C100.389,31.3353 100.729,31.6973 100.969,32.1621 C101.208,32.627 101.328,33.1693 101.328,33.7891 C101.328,34.4036 101.208,34.9434 100.969,35.4082 C100.729,35.873 100.389,36.235 99.9473,36.4941 C99.5059,36.7533 98.9818,36.8828 98.375,36.8828 M98.3828,35.5938 C98.6589,35.5938 98.8893,35.515 99.0742,35.3574 C99.2591,35.1999 99.3991,34.9844 99.4941,34.7109 C99.5892,34.4375 99.6367,34.1263 99.6367,33.7773 C99.6367,33.4284 99.5892,33.1172 99.4941,32.8438 C99.3991,32.5703 99.2591,32.3542 99.0742,32.1953 C98.8893,32.0365 98.6589,31.957 98.3828,31.957 C98.1042,31.957 97.8704,32.0365 97.6816,32.1953 C97.4928,32.3542 97.3509,32.5703 97.2559,32.8438 C97.1608,33.1172 97.1133,33.4284 97.1133,33.7773 C97.1133,34.1263 97.1608,34.4375 97.2559,34.7109 C97.3509,34.9844 97.4928,35.1999 97.6816,35.3574 C97.8704,35.515 98.1042,35.5938 98.3828,35.5938 M105.117,39.1406 C104.578,39.1406 104.117,39.0671 103.732,38.9199 C103.348,38.7728 103.043,38.5729 102.816,38.3203 C102.59,38.0677 102.443,37.7839 102.375,37.4688 L103.914,37.2617 C103.961,37.3815 104.035,37.4935 104.137,37.5977 C104.238,37.7018 104.373,37.7858 104.541,37.8496 C104.709,37.9134 104.914,37.9453 105.156,37.9453 C105.518,37.9453 105.817,37.8574 106.053,37.6816 C106.288,37.5059 106.406,37.2122 106.406,36.8008 L106.406,35.7031 L106.336,35.7031 C106.263,35.8698 106.154,36.0273 106.008,36.1758 C105.862,36.3242 105.674,36.4453 105.445,36.5391 C105.216,36.6328 104.943,36.6797 104.625,36.6797 C104.174,36.6797 103.765,36.5749 103.396,36.3652 C103.028,36.1556 102.735,35.834 102.518,35.4004 C102.3,34.9668 102.191,34.418 102.191,33.7539 C102.191,33.0742 102.302,32.5065 102.523,32.0508 C102.745,31.5951 103.04,31.2539 103.408,31.0273 C103.777,30.8008 104.181,30.6875 104.621,30.6875 C104.957,30.6875 105.238,30.7441 105.465,30.8574 C105.691,30.9707 105.874,31.1113 106.014,31.2793 C106.153,31.4473 106.26,31.612 106.336,31.7734 L106.398,31.7734 L106.398,30.7656 L108.051,30.7656 L108.051,36.8242 C108.051,37.3346 107.926,37.7617 107.676,38.1055 C107.426,38.4492 107.08,38.7077 106.639,38.8809 C106.197,39.054 105.69,39.1406 105.117,39.1406 M105.152,35.4297 C105.421,35.4297 105.648,35.3626 105.834,35.2285 C106.02,35.0944 106.163,34.9017 106.264,34.6504 C106.364,34.3991 106.414,34.0977 106.414,33.7461 C106.414,33.3945 106.365,33.0892 106.266,32.8301 C106.167,32.571 106.023,32.3698 105.836,32.2266 C105.648,32.0833 105.421,32.0117 105.152,32.0117 C104.879,32.0117 104.648,32.0853 104.461,32.2324 C104.273,32.3796 104.132,32.5833 104.035,32.8438 C103.939,33.1042 103.891,33.4049 103.891,33.7461 C103.891,34.0924 103.939,34.3913 104.037,34.6426 C104.135,34.8939 104.277,35.0879 104.463,35.2246 C104.649,35.3613 104.879,35.4297 105.152,35.4297 M109.367,36.7656 L109.367,30.7656 L110.98,30.7656 L110.98,31.8125 L111.043,31.8125 C111.152,31.4401 111.336,31.1582 111.594,30.9668 C111.852,30.7754 112.148,30.6797 112.484,30.6797 C112.568,30.6797 112.658,30.6849 112.754,30.6953 C112.85,30.7057 112.935,30.7201 113.008,30.7383 L113.008,32.2148 C112.93,32.1914 112.822,32.1706 112.684,32.1523 C112.546,32.1341 112.419,32.125 112.305,32.125 C112.06,32.125 111.842,32.1777 111.65,32.2832 C111.459,32.3887 111.308,32.5352 111.197,32.7227 C111.087,32.9102 111.031,33.1263 111.031,33.3711 L111.031,36.7656 L109.367,36.7656 M115.391,36.8789 C115.008,36.8789 114.667,36.8118 114.367,36.6777 C114.068,36.5436 113.831,36.3444 113.658,36.0801 C113.485,35.8158 113.398,35.4857 113.398,35.0898 C113.398,34.7565 113.46,34.4766 113.582,34.25 C113.704,34.0234 113.871,33.8411 114.082,33.7031 C114.293,33.5651 114.533,33.4609 114.803,33.3906 C115.072,33.3203 115.355,33.2708 115.652,33.2422 C116.001,33.2057 116.283,33.1712 116.496,33.1387 C116.71,33.1061 116.865,33.0573 116.961,32.9922 C117.057,32.9271 117.105,32.8307 117.105,32.7031 L117.105,32.6797 C117.105,32.4323 117.028,32.2409 116.873,32.1055 C116.718,31.9701 116.499,31.9023 116.215,31.9023 C115.915,31.9023 115.677,31.9681 115.5,32.0996 C115.323,32.2311 115.206,32.3958 115.148,32.5938 L113.609,32.4688 C113.688,32.1042 113.841,31.7884 114.07,31.5215 C114.299,31.2546 114.596,31.0488 114.959,30.9043 C115.322,30.7598 115.743,30.6875 116.223,30.6875 C116.556,30.6875 116.876,30.7266 117.182,30.8047 C117.488,30.8828 117.76,31.0039 117.998,31.168 C118.236,31.332 118.424,31.5423 118.563,31.7988 C118.701,32.0553 118.77,32.362 118.77,32.7188 L118.77,36.7656 L117.191,36.7656 L117.191,35.9336 L117.145,35.9336 C117.048,36.1211 116.919,36.2858 116.758,36.4277 C116.596,36.5697 116.402,36.6803 116.176,36.7598 C115.949,36.8392 115.688,36.8789 115.391,36.8789 M115.867,35.7305 C116.112,35.7305 116.328,35.6816 116.516,35.584 C116.703,35.4863 116.85,35.3542 116.957,35.1875 C117.064,35.0208 117.117,34.832 117.117,34.6211 L117.117,33.9844 C117.065,34.0182 116.994,34.0488 116.904,34.0762 C116.814,34.1035 116.714,34.1283 116.602,34.1504 C116.49,34.1725 116.378,34.1921 116.266,34.209 C116.154,34.2259 116.052,34.2409 115.961,34.2539 C115.766,34.2826 115.595,34.3281 115.449,34.3906 C115.303,34.4531 115.19,34.5371 115.109,34.6426 C115.029,34.748 114.988,34.8789 114.988,35.0352 C114.988,35.2617 115.071,35.4342 115.236,35.5527 C115.402,35.6712 115.612,35.7305 115.867,35.7305 M120.055,36.7656 L120.055,30.7656 L121.641,30.7656 L121.641,31.8242 L121.711,31.8242 C121.836,31.4727 122.044,31.1953 122.336,30.9922 C122.628,30.7891 122.977,30.6875 123.383,30.6875 C123.794,30.6875 124.145,30.7897 124.434,30.9941 C124.723,31.1986 124.915,31.4753 125.012,31.8242 L125.074,31.8242 C125.197,31.4805 125.419,31.2051 125.74,30.998 C126.062,30.791 126.443,30.6875 126.883,30.6875 C127.443,30.6875 127.898,30.8652 128.248,31.2207 C128.598,31.5762 128.773,32.0794 128.773,32.7305 L128.773,36.7656 L127.113,36.7656 L127.113,33.0586 C127.113,32.7253 127.025,32.4753 126.848,32.3086 C126.671,32.1419 126.449,32.0586 126.184,32.0586 C125.882,32.0586 125.646,32.1543 125.477,32.3457 C125.307,32.5371 125.223,32.7891 125.223,33.1016 L125.223,36.7656 L123.609,36.7656 L123.609,33.0234 C123.609,32.7292 123.525,32.4948 123.357,32.3203 C123.189,32.1458 122.969,32.0586 122.695,32.0586 C122.51,32.0586 122.344,32.1048 122.197,32.1973 C122.05,32.2897 121.934,32.4186 121.848,32.584 C121.762,32.7493 121.719,32.9427 121.719,33.1641 L121.719,36.7656 L120.055,36.7656 M137.625,32.4766 L136.102,32.5703 C136.076,32.4401 136.02,32.3223 135.934,32.2168 C135.848,32.1113 135.735,32.0267 135.596,31.9629 C135.456,31.8991 135.29,31.8672 135.098,31.8672 C134.84,31.8672 134.622,31.9212 134.445,32.0293 C134.268,32.1374 134.18,32.2813 134.18,32.4609 C134.18,32.6042 134.237,32.7253 134.352,32.8242 C134.466,32.9232 134.663,33.0026 134.941,33.0625 L136.027,33.2813 C136.611,33.401 137.046,33.5938 137.332,33.8594 C137.618,34.125 137.762,34.474 137.762,34.9063 C137.762,35.2995 137.646,35.6445 137.416,35.9414 C137.186,36.2383 136.87,36.4694 136.471,36.6348 C136.071,36.8001 135.611,36.8828 135.09,36.8828 C134.296,36.8828 133.663,36.7168 133.193,36.3848 C132.723,36.0527 132.448,35.6003 132.367,35.0273 L134.004,34.9414 C134.053,35.1836 134.173,35.3678 134.363,35.4941 C134.553,35.6204 134.797,35.6836 135.094,35.6836 C135.385,35.6836 135.62,35.627 135.799,35.5137 C135.977,35.4004 136.068,35.2539 136.07,35.0742 C136.068,34.9232 136.004,34.7988 135.879,34.7012 C135.754,34.6035 135.561,34.5286 135.301,34.4766 L134.262,34.2695 C133.676,34.1523 133.24,33.9492 132.955,33.6602 C132.67,33.3711 132.527,33.0026 132.527,32.5547 C132.527,32.1693 132.632,31.8372 132.842,31.5586 C133.051,31.2799 133.347,31.0651 133.729,30.9141 C134.11,30.763 134.557,30.6875 135.07,30.6875 C135.828,30.6875 136.425,30.8477 136.861,31.168 C137.298,31.4883 137.552,31.9245 137.625,32.4766 M141.996,30.7656 L141.996,32.0156 L138.383,32.0156 L138.383,30.7656 L141.996,30.7656 M139.203,29.3281 L140.867,29.3281 L140.867,34.9219 C140.867,35.0755 140.891,35.1947 140.938,35.2793 C140.984,35.3639 141.05,35.4232 141.135,35.457 C141.219,35.4909 141.318,35.5078 141.43,35.5078 C141.508,35.5078 141.586,35.5007 141.664,35.4863 C141.742,35.472 141.802,35.4609 141.844,35.4531 L142.105,36.6914 C142.022,36.7174 141.905,36.748 141.754,36.7832 C141.603,36.8184 141.419,36.8398 141.203,36.8477 C140.802,36.8633 140.451,36.8099 140.15,36.6875 C139.85,36.5651 139.616,36.375 139.449,36.1172 C139.283,35.8594 139.201,35.5339 139.203,35.1406 L139.203,29.3281 M144.781,36.8789 C144.398,36.8789 144.057,36.8118 143.758,36.6777 C143.458,36.5436 143.222,36.3444 143.049,36.0801 C142.876,35.8158 142.789,35.4857 142.789,35.0898 C142.789,34.7565 142.85,34.4766 142.973,34.25 C143.095,34.0234 143.262,33.8411 143.473,33.7031 C143.684,33.5651 143.924,33.4609 144.193,33.3906 C144.463,33.3203 144.746,33.2708 145.043,33.2422 C145.392,33.2057 145.673,33.1712 145.887,33.1387 C146.1,33.1061 146.255,33.0573 146.352,32.9922 C146.448,32.9271 146.496,32.8307 146.496,32.7031 L146.496,32.6797 C146.496,32.4323 146.419,32.2409 146.264,32.1055 C146.109,31.9701 145.889,31.9023 145.605,31.9023 C145.306,31.9023 145.068,31.9681 144.891,32.0996 C144.714,32.2311 144.596,32.3958 144.539,32.5938 L143,32.4688 C143.078,32.1042 143.232,31.7884 143.461,31.5215 C143.69,31.2546 143.986,31.0488 144.35,30.9043 C144.713,30.7598 145.134,30.6875 145.613,30.6875 C145.947,30.6875 146.266,30.7266 146.572,30.8047 C146.878,30.8828 147.15,31.0039 147.389,31.168 C147.627,31.332 147.815,31.5423 147.953,31.7988 C148.091,32.0553 148.16,32.362 148.16,32.7188 L148.16,36.7656 L146.582,36.7656 L146.582,35.9336 L146.535,35.9336 C146.439,36.1211 146.31,36.2858 146.148,36.4277 C145.987,36.5697 145.793,36.6803 145.566,36.7598 C145.34,36.8392 145.078,36.8789 144.781,36.8789 M145.258,35.7305 C145.503,35.7305 145.719,35.6816 145.906,35.584 C146.094,35.4863 146.241,35.3542 146.348,35.1875 C146.454,35.0208 146.508,34.832 146.508,34.6211 L146.508,33.9844 C146.456,34.0182 146.385,34.0488 146.295,34.0762 C146.205,34.1035 146.104,34.1283 145.992,34.1504 C145.88,34.1725 145.768,34.1921 145.656,34.209 C145.544,34.2259 145.443,34.2409 145.352,34.2539 C145.156,34.2826 144.986,34.3281 144.84,34.3906 C144.694,34.4531 144.581,34.5371 144.5,34.6426 C144.419,34.748 144.379,34.8789 144.379,35.0352 C144.379,35.2617 144.462,35.4342 144.627,35.5527 C144.792,35.6712 145.003,35.7305 145.258,35.7305 M149.445,36.7656 L149.445,30.7656 L151.059,30.7656 L151.059,31.8125 L151.121,31.8125 C151.23,31.4401 151.414,31.1582 151.672,30.9668 C151.93,30.7754 152.227,30.6797 152.563,30.6797 C152.646,30.6797 152.736,30.6849 152.832,30.6953 C152.928,30.7057 153.013,30.7201 153.086,30.7383 L153.086,32.2148 C153.008,32.1914 152.9,32.1706 152.762,32.1523 C152.624,32.1341 152.497,32.125 152.383,32.125 C152.138,32.125 151.92,32.1777 151.729,32.2832 C151.537,32.3887 151.386,32.5352 151.275,32.7227 C151.165,32.9102 151.109,33.1263 151.109,33.3711 L151.109,36.7656 L149.445,36.7656 M157.418,30.7656 L157.418,32.0156 L153.805,32.0156 L153.805,30.7656 L157.418,30.7656 M154.625,29.3281 L156.289,29.3281 L156.289,34.9219 C156.289,35.0755 156.313,35.1947 156.359,35.2793 C156.406,35.3639 156.472,35.4232 156.557,35.457 C156.641,35.4909 156.74,35.5078 156.852,35.5078 C156.93,35.5078 157.008,35.5007 157.086,35.4863 C157.164,35.472 157.224,35.4609 157.266,35.4531 L157.527,36.6914 C157.444,36.7174 157.327,36.748 157.176,36.7832 C157.025,36.8184 156.841,36.8398 156.625,36.8477 C156.224,36.8633 155.873,36.8099 155.572,36.6875 C155.271,36.5651 155.038,36.375 154.871,36.1172 C154.704,35.8594 154.622,35.5339 154.625,35.1406 L154.625,29.3281 M163.406,32.4766 L161.883,32.5703 C161.857,32.4401 161.801,32.3223 161.715,32.2168 C161.629,32.1113 161.516,32.0267 161.377,31.9629 C161.238,31.8991 161.072,31.8672 160.879,31.8672 C160.621,31.8672 160.404,31.9212 160.227,32.0293 C160.049,32.1374 159.961,32.2813 159.961,32.4609 C159.961,32.6042 160.018,32.7253 160.133,32.8242 C160.247,32.9232 160.444,33.0026 160.723,33.0625 L161.809,33.2813 C162.392,33.401 162.827,33.5938 163.113,33.8594 C163.4,34.125 163.543,34.474 163.543,34.9063 C163.543,35.2995 163.428,35.6445 163.197,35.9414 C162.967,36.2383 162.652,36.4694 162.252,36.6348 C161.852,36.8001 161.392,36.8828 160.871,36.8828 C160.077,36.8828 159.445,36.7168 158.975,36.3848 C158.505,36.0527 158.229,35.6003 158.148,35.0273 L159.785,34.9414 C159.835,35.1836 159.954,35.3678 160.145,35.4941 C160.335,35.6204 160.578,35.6836 160.875,35.6836 C161.167,35.6836 161.402,35.627 161.58,35.5137 C161.758,35.4004 161.849,35.2539 161.852,35.0742 C161.849,34.9232 161.785,34.7988 161.66,34.7012 C161.535,34.6035 161.342,34.5286 161.082,34.4766 L160.043,34.2695 C159.457,34.1523 159.021,33.9492 158.736,33.6602 C158.451,33.3711 158.309,33.0026 158.309,32.5547 C158.309,32.1693 158.413,31.8372 158.623,31.5586 C158.833,31.2799 159.128,31.0651 159.51,30.9141 C159.891,30.763 160.339,30.6875 160.852,30.6875 C161.609,30.6875 162.206,30.8477 162.643,31.168 C163.079,31.4883 163.333,31.9245 163.406,32.4766 "/>
</g>

<g fill="#ffffff" fill-opacity="1" stroke="none" transform="matrix(0.0585938,0,0,0.0585938,15.5,29.5)"
font-family="Inter" font-size="11" font-weight="700" font-style="normal" 
>
<path vector-effect="none" fill-rule="nonzero" d="M64.5277,12.266 C56.6337,7.41225 46.7128,7.25224 38.6587,11.786 C30.6047,16.3197 25.5909,24.8538 25.5909,34.1346 L25.5909,221.885 C25.5909,231.165 30.6047,239.7 38.6587,244.233 C46.7128,248.767 56.6337,248.554 64.5277,243.753 L218.141,149.878 C225.769,145.238 230.409,136.97 230.409,128.01 C230.409,119.049 225.769,110.835 218.141,106.141 L64.5277,12.266"/>
</g>

<g fill="#ffffff" fill-opacity="1" stroke="none" transform="matrix(1,0,0,1,0,0)"
font-family="Inter" font-size="11" font-weight="700" font-style="normal" 
>
</g>

<g fill="#ffffff" fill-opacity="1" stroke="#ba9500" stroke-opacity="1" stroke-width="1" stroke-linecap="square" stroke-linejoin="bevel" transform="matrix(1,0,0,1,0,0)"
font-family="Inter" font-size="11" font-weight="700" font-style="normal" 
>
<polyline fill="none" vector-effect="none" points="45,27 45,47 " />
</g>

<g fill="#ffffff" fill-opacity="1" stroke="#ba9500" stroke-opacity="1" stroke-width="1" stroke-linecap="square" stroke-linejoin="bevel" transform="matrix(1,0,0,1,0,0)"
font-family="Inter" font-size="11" font-weight="700" font-style="normal" 
>
</g>

<g fill="none" stroke="#000000" stroke-opacity="1" stroke-width="1" stroke-linecap="square" stroke-linejoin="bevel" transform="matrix(1,0,0,1,0,0)"
font-family=".AppleSystemUIFont" font-size="13" font-weight="400" font-style="normal" 
>
</g>
</g>
</svg>
