<?xml version="1.0" encoding="UTF-8" standalone="no"?>
<svg width="78.6694mm" height="15.5222mm"
 viewBox="0 0 223 44"
 xmlns="http://www.w3.org/2000/svg" xmlns:xlink="http://www.w3.org/1999/xlink" version="1.2" baseProfile="tiny">
<title>Abstract block</title>
<desc>block_dashboard_controller_all_set_color</desc>
<defs>
</defs>
<g fill="none" stroke="black" stroke-width="1" fill-rule="evenodd" stroke-linecap="square" stroke-linejoin="bevel" >

<g fill="none" stroke="#000000" stroke-opacity="1" stroke-width="1" stroke-linecap="square" stroke-linejoin="bevel" transform="matrix(1,0,0,1,0,0)"
font-family=".AppleSystemUIFont" font-size="13" font-weight="400" font-style="normal" 
>
</g>

<g fill="none" stroke="#000000" stroke-opacity="1" stroke-width="1" stroke-linecap="square" stroke-linejoin="bevel" transform="matrix(1,0,0,1,0,0)"
font-family=".AppleSystemUIFont" font-size="13" font-weight="400" font-style="normal" 
>
</g>

<g fill="#009f94" fill-opacity="1" stroke="#00645c" stroke-opacity="1" stroke-width="1.2" stroke-linecap="square" stroke-linejoin="bevel" transform="matrix(1,0,0,1,0,0)"
font-family=".AppleSystemUIFont" font-size="13" font-weight="400" font-style="normal" 
>
<path vector-effect="none" fill-rule="evenodd" d="M0.5,4.5 L1.04612,2.48112 L2.48112,1.04612 L4.5,0.5 L9.625,0.5 L10.416,0.976563 L11.1719,1.6875 L11.998,2.67969 L13,4 L13.7559,4.66016 L14.5469,5.15625 L15.4082,5.51172 L16.375,5.75 L17.4824,5.89453 L18.7656,5.96875 L20.2598,5.99609 L22,6 L23.7402,5.99609 L25.2344,5.96875 L26.5176,5.89453 L27.625,5.75 L28.5918,5.51172 L29.4531,5.15625 L30.2441,4.66016 L31,4 L32.002,2.67969 L32.8281,1.6875 L33.584,0.976563 L34.375,0.5 L218.5,0.5 L220.519,1.04612 L221.954,2.48112 L222.5,4.5 L222.5,31.5 L221.954,33.5189 L220.519,34.9539 L218.5,35.5 L34.375,35.5 L33.584,35.9766 L32.8281,36.6875 L32.002,37.6797 L31,39 L30.2441,39.6602 L29.4531,40.1563 L28.5918,40.5117 L27.625,40.75 L26.5176,40.8945 L25.2344,40.9688 L23.7402,40.9961 L22,41 L20.2598,40.9961 L18.7656,40.9688 L17.4824,40.8945 L16.375,40.75 L15.4082,40.5117 L14.5469,40.1563 L13.7559,39.6602 L13,39 L11.998,37.6797 L11.1719,36.6875 L10.416,35.9766 L9.625,35.5 L4.5,35.5 L2.48112,34.9539 L1.04612,33.5189 L0.5,31.5 L0.5,4.5"/>
</g>

<g fill="#ffffff" fill-opacity="1" stroke="none" transform="matrix(1,0,0,1,0,0)"
font-family="Inter" font-size="11" font-weight="700" font-style="normal" 
>
<path vector-effect="none" fill-rule="nonzero" d="M57.0938,17.1641 L55.5703,17.2578 C55.5443,17.1276 55.4883,17.0098 55.4023,16.9043 C55.3164,16.7988 55.2038,16.7142 55.0645,16.6504 C54.9251,16.5866 54.7591,16.5547 54.5664,16.5547 C54.3086,16.5547 54.0911,16.6087 53.9141,16.7168 C53.737,16.8249 53.6484,16.9688 53.6484,17.1484 C53.6484,17.2917 53.7057,17.4128 53.8203,17.5117 C53.9349,17.6107 54.1315,17.6901 54.4102,17.75 L55.4961,17.9688 C56.0794,18.0885 56.5143,18.2813 56.8008,18.5469 C57.0872,18.8125 57.2305,19.1615 57.2305,19.5938 C57.2305,19.987 57.1152,20.332 56.8848,20.6289 C56.6543,20.9258 56.3392,21.1569 55.9395,21.3223 C55.5397,21.4876 55.0794,21.5703 54.5586,21.5703 C53.7643,21.5703 53.1322,21.4043 52.6621,21.0723 C52.1921,20.7402 51.9167,20.2878 51.8359,19.7148 L53.4727,19.6289 C53.5221,19.8711 53.6419,20.0553 53.832,20.1816 C54.0221,20.3079 54.2656,20.3711 54.5625,20.3711 C54.8542,20.3711 55.0892,20.3145 55.2676,20.2012 C55.446,20.0879 55.5365,19.9414 55.5391,19.7617 C55.5365,19.6107 55.4727,19.4863 55.3477,19.3887 C55.2227,19.291 55.0299,19.2161 54.7695,19.1641 L53.7305,18.957 C53.1445,18.8398 52.709,18.6367 52.4238,18.3477 C52.1387,18.0586 51.9961,17.6901 51.9961,17.2422 C51.9961,16.8568 52.1009,16.5247 52.3105,16.2461 C52.5202,15.9674 52.8158,15.7526 53.1973,15.6016 C53.5788,15.4505 54.026,15.375 54.5391,15.375 C55.2969,15.375 55.8939,15.5352 56.3301,15.8555 C56.7663,16.1758 57.0208,16.612 57.0938,17.1641 M61.0078,21.5703 C60.3906,21.5703 59.86,21.4447 59.416,21.1934 C58.972,20.9421 58.6302,20.5853 58.3906,20.123 C58.151,19.6608 58.0313,19.1133 58.0313,18.4805 C58.0313,17.8633 58.151,17.3216 58.3906,16.8555 C58.6302,16.3893 58.9681,16.026 59.4043,15.7656 C59.8405,15.5052 60.3529,15.375 60.9414,15.375 C61.3372,15.375 61.7064,15.4382 62.0488,15.5645 C62.3913,15.6908 62.6908,15.8802 62.9473,16.1328 C63.2038,16.3854 63.4036,16.7025 63.5469,17.084 C63.6901,17.4655 63.7617,17.9115 63.7617,18.4219 L63.7617,18.8789 L58.6953,18.8789 L58.6953,17.8477 L62.1953,17.8477 C62.1953,17.6081 62.1432,17.3958 62.0391,17.2109 C61.9349,17.026 61.791,16.8809 61.6074,16.7754 C61.4238,16.6699 61.2109,16.6172 60.9688,16.6172 C60.7161,16.6172 60.4928,16.6751 60.2988,16.791 C60.1048,16.9069 59.9531,17.0618 59.8438,17.2559 C59.7344,17.4499 59.6784,17.6654 59.6758,17.9023 L59.6758,18.8828 C59.6758,19.1797 59.7311,19.4362 59.8418,19.6523 C59.9525,19.8685 60.1094,20.0352 60.3125,20.1523 C60.5156,20.2695 60.7565,20.3281 61.0352,20.3281 C61.2201,20.3281 61.3893,20.3021 61.543,20.25 C61.6966,20.1979 61.8281,20.1198 61.9375,20.0156 C62.0469,19.9115 62.1302,19.7839 62.1875,19.6328 L63.7266,19.7344 C63.6484,20.1042 63.4889,20.4264 63.248,20.7012 C63.0072,20.9759 62.6973,21.1895 62.3184,21.3418 C61.9395,21.4941 61.5026,21.5703 61.0078,21.5703 M68.0273,15.4531 L68.0273,16.7031 L64.4141,16.7031 L64.4141,15.4531 L68.0273,15.4531 M65.2344,14.0156 L66.8984,14.0156 L66.8984,19.6094 C66.8984,19.763 66.9219,19.8822 66.9688,19.9668 C67.0156,20.0514 67.0814,20.1107 67.166,20.1445 C67.2507,20.1784 67.349,20.1953 67.4609,20.1953 C67.5391,20.1953 67.6172,20.1882 67.6953,20.1738 C67.7734,20.1595 67.8333,20.1484 67.875,20.1406 L68.1367,21.3789 C68.0534,21.4049 67.9362,21.4355 67.7852,21.4707 C67.6341,21.5059 67.4505,21.5273 67.2344,21.5352 C66.8333,21.5508 66.4824,21.4974 66.1816,21.375 C65.8809,21.2526 65.6471,21.0625 65.4805,20.8047 C65.3138,20.5469 65.2318,20.2214 65.2344,19.8281 L65.2344,14.0156"/>
</g>

<g fill="#ffffff" fill-opacity="1" stroke="none" transform="matrix(1,0,0,1,0,0)"
font-family="Inter" font-size="11" font-weight="700" font-style="normal" 
>
<path vector-effect="none" fill-rule="nonzero" d="M141.703,21.8516 C141.089,21.8516 140.561,21.7207 140.119,21.459 C139.678,21.1973 139.339,20.8333 139.104,20.3672 C138.868,19.901 138.75,19.3646 138.75,18.7578 C138.75,18.1432 138.869,17.6035 139.107,17.1387 C139.346,16.6738 139.685,16.3105 140.125,16.0488 C140.565,15.7871 141.089,15.6563 141.695,15.6563 C142.219,15.6563 142.677,15.7513 143.07,15.9414 C143.464,16.1315 143.775,16.3984 144.004,16.7422 C144.233,17.0859 144.359,17.4896 144.383,17.9531 L142.813,17.9531 C142.768,17.6536 142.652,17.4121 142.463,17.2285 C142.274,17.0449 142.027,16.9531 141.723,16.9531 C141.465,16.9531 141.24,17.0228 141.049,17.1621 C140.857,17.3014 140.708,17.5039 140.602,17.7695 C140.495,18.0352 140.441,18.3568 140.441,18.7344 C140.441,19.1172 140.494,19.4427 140.6,19.7109 C140.705,19.9792 140.854,20.1836 141.047,20.3242 C141.24,20.4648 141.465,20.5352 141.723,20.5352 C141.913,20.5352 142.084,20.4961 142.236,20.418 C142.389,20.3398 142.515,20.2259 142.615,20.0762 C142.715,19.9264 142.781,19.7461 142.813,19.5352 L144.383,19.5352 C144.357,19.9935 144.232,20.3965 144.01,20.7441 C143.787,21.0918 143.48,21.3633 143.09,21.5586 C142.699,21.7539 142.237,21.8516 141.703,21.8516 M148.156,21.8516 C147.549,21.8516 147.025,21.722 146.584,21.4629 C146.143,21.2038 145.802,20.8418 145.563,20.377 C145.323,19.9121 145.203,19.3724 145.203,18.7578 C145.203,18.138 145.323,17.5957 145.563,17.1309 C145.802,16.666 146.143,16.304 146.584,16.0449 C147.025,15.7858 147.549,15.6563 148.156,15.6563 C148.763,15.6563 149.287,15.7858 149.729,16.0449 C150.17,16.304 150.51,16.666 150.75,17.1309 C150.99,17.5957 151.109,18.138 151.109,18.7578 C151.109,19.3724 150.99,19.9121 150.75,20.377 C150.51,20.8418 150.17,21.2038 149.729,21.4629 C149.287,21.722 148.763,21.8516 148.156,21.8516 M148.164,20.5625 C148.44,20.5625 148.671,20.4837 148.855,20.3262 C149.04,20.1686 149.18,19.9531 149.275,19.6797 C149.37,19.4063 149.418,19.0951 149.418,18.7461 C149.418,18.3971 149.37,18.0859 149.275,17.8125 C149.18,17.5391 149.04,17.3229 148.855,17.1641 C148.671,17.0052 148.44,16.9258 148.164,16.9258 C147.885,16.9258 147.652,17.0052 147.463,17.1641 C147.274,17.3229 147.132,17.5391 147.037,17.8125 C146.942,18.0859 146.895,18.3971 146.895,18.7461 C146.895,19.0951 146.942,19.4063 147.037,19.6797 C147.132,19.9531 147.274,20.1686 147.463,20.3262 C147.652,20.4837 147.885,20.5625 148.164,20.5625 M153.859,13.7344 L153.859,21.7344 L152.195,21.7344 L152.195,13.7344 L153.859,13.7344 M157.891,21.8516 C157.284,21.8516 156.76,21.722 156.318,21.4629 C155.877,21.2038 155.536,20.8418 155.297,20.377 C155.057,19.9121 154.938,19.3724 154.938,18.7578 C154.938,18.138 155.057,17.5957 155.297,17.1309 C155.536,16.666 155.877,16.304 156.318,16.0449 C156.76,15.7858 157.284,15.6563 157.891,15.6563 C158.497,15.6563 159.021,15.7858 159.463,16.0449 C159.904,16.304 160.245,16.666 160.484,17.1309 C160.724,17.5957 160.844,18.138 160.844,18.7578 C160.844,19.3724 160.724,19.9121 160.484,20.377 C160.245,20.8418 159.904,21.2038 159.463,21.4629 C159.021,21.722 158.497,21.8516 157.891,21.8516 M157.898,20.5625 C158.174,20.5625 158.405,20.4837 158.59,20.3262 C158.775,20.1686 158.915,19.9531 159.01,19.6797 C159.105,19.4063 159.152,19.0951 159.152,18.7461 C159.152,18.3971 159.105,18.0859 159.01,17.8125 C158.915,17.5391 158.775,17.3229 158.59,17.1641 C158.405,17.0052 158.174,16.9258 157.898,16.9258 C157.62,16.9258 157.386,17.0052 157.197,17.1641 C157.008,17.3229 156.867,17.5391 156.771,17.8125 C156.676,18.0859 156.629,18.3971 156.629,18.7461 C156.629,19.0951 156.676,19.4063 156.771,19.6797 C156.867,19.9531 157.008,20.1686 157.197,20.3262 C157.386,20.4837 157.62,20.5625 157.898,20.5625 M161.93,21.7344 L161.93,15.7344 L163.543,15.7344 L163.543,16.7813 L163.605,16.7813 C163.715,16.4089 163.898,16.127 164.156,15.9355 C164.414,15.7441 164.711,15.6484 165.047,15.6484 C165.13,15.6484 165.22,15.6536 165.316,15.6641 C165.413,15.6745 165.497,15.6888 165.57,15.707 L165.57,17.1836 C165.492,17.1602 165.384,17.1393 165.246,17.1211 C165.108,17.1029 164.982,17.0938 164.867,17.0938 C164.622,17.0938 164.404,17.1465 164.213,17.252 C164.021,17.3574 163.87,17.5039 163.76,17.6914 C163.649,17.8789 163.594,18.0951 163.594,18.3398 L163.594,21.7344 L161.93,21.7344 M172.152,15.7344 L172.152,16.9844 L168.539,16.9844 L168.539,15.7344 L172.152,15.7344 M169.359,14.2969 L171.023,14.2969 L171.023,19.8906 C171.023,20.0443 171.047,20.1634 171.094,20.248 C171.141,20.3327 171.206,20.3919 171.291,20.4258 C171.376,20.4596 171.474,20.4766 171.586,20.4766 C171.664,20.4766 171.742,20.4694 171.82,20.4551 C171.898,20.4408 171.958,20.4297 172,20.4219 L172.262,21.6602 C172.178,21.6862 172.061,21.7168 171.91,21.752 C171.759,21.7871 171.576,21.8086 171.359,21.8164 C170.958,21.832 170.607,21.7786 170.307,21.6563 C170.006,21.5339 169.772,21.3438 169.605,21.0859 C169.439,20.8281 169.357,20.5026 169.359,20.1094 L169.359,14.2969 M175.875,21.8516 C175.268,21.8516 174.744,21.722 174.303,21.4629 C173.861,21.2038 173.521,20.8418 173.281,20.377 C173.042,19.9121 172.922,19.3724 172.922,18.7578 C172.922,18.138 173.042,17.5957 173.281,17.1309 C173.521,16.666 173.861,16.304 174.303,16.0449 C174.744,15.7858 175.268,15.6563 175.875,15.6563 C176.482,15.6563 177.006,15.7858 177.447,16.0449 C177.889,16.304 178.229,16.666 178.469,17.1309 C178.708,17.5957 178.828,18.138 178.828,18.7578 C178.828,19.3724 178.708,19.9121 178.469,20.377 C178.229,20.8418 177.889,21.2038 177.447,21.4629 C177.006,21.722 176.482,21.8516 175.875,21.8516 M175.883,20.5625 C176.159,20.5625 176.389,20.4837 176.574,20.3262 C176.759,20.1686 176.899,19.9531 176.994,19.6797 C177.089,19.4063 177.137,19.0951 177.137,18.7461 C177.137,18.3971 177.089,18.0859 176.994,17.8125 C176.899,17.5391 176.759,17.3229 176.574,17.1641 C176.389,17.0052 176.159,16.9258 175.883,16.9258 C175.604,16.9258 175.37,17.0052 175.182,17.1641 C174.993,17.3229 174.851,17.5391 174.756,17.8125 C174.661,18.0859 174.613,18.3971 174.613,18.7461 C174.613,19.0951 174.661,19.4063 174.756,19.6797 C174.851,19.9531 174.993,20.1686 175.182,20.3262 C175.37,20.4837 175.604,20.5625 175.883,20.5625 "/>
</g>

<g fill="#ffffff" fill-opacity="1" stroke="none" transform="matrix(0.95,0,0,0.95,11.6,9.6)"
font-family="Inter" font-size="11" font-weight="700" font-style="normal" 
>
<path vector-effect="none" fill-rule="nonzero" d="M2.19896,4.65234 C1.18891,4.65234 0.375703,5.46549 0.375703,6.47555 L0.375703,8.579 C1.00152,8.60331 1.67842,9.11362 1.67842,9.74561 L1.67842,14.2544 C1.67842,14.8864 1.00152,15.3967 0.375703,15.421 L0.375703,17.5245 C0.375703,18.5345 1.18891,19.3477 2.19896,19.3477 L21.8479,19.3477 C22.858,19.3477 23.6711,18.5345 23.6711,17.5245 L23.6711,6.47555 C23.6711,5.46549 22.858,4.65234 21.8479,4.65234 L2.19896,4.65234 M6.71936,9.23098 C8.56166,9.23097 10.0552,10.7245 10.0552,12.5668 C10.0552,14.4091 8.56167,15.9026 6.71936,15.9026 C4.87705,15.9026 3.38355,14.4091 3.38355,12.5668 C3.38355,10.7245 4.87705,9.23097 6.71936,9.23098 M19.875,9.24873 C20.7082,9.24871 21.3837,9.92418 21.3837,10.7574 C21.3837,11.5906 20.7082,12.266 19.875,12.266 C19.0418,12.266 18.3664,11.5906 18.3664,10.7574 C18.3664,9.9242 19.0418,9.24874 19.875,9.24873 M17.4318,12.8825 C18.265,12.8825 18.9404,13.558 18.9404,14.3912 C18.9404,15.2243 18.2649,15.8998 17.4318,15.8998 C16.5986,15.8998 15.9231,15.2244 15.9231,14.3912 C15.9231,13.5579 16.5985,12.8825 17.4318,12.8825 "/>
</g>

<g fill="none" stroke="#000000" stroke-opacity="1" stroke-width="0.54" stroke-linecap="butt" stroke-linejoin="miter" stroke-miterlimit="4" transform="matrix(0.95,0,0,0.95,11.6,9.6)"
font-family="Inter" font-size="11" font-weight="700" font-style="normal" 
>
<path vector-effect="none" fill-rule="nonzero" d="M2.19896,4.65234 C1.18891,4.65234 0.375703,5.46549 0.375703,6.47555 L0.375703,8.579 C1.00152,8.60331 1.67842,9.11362 1.67842,9.74561 L1.67842,14.2544 C1.67842,14.8864 1.00152,15.3967 0.375703,15.421 L0.375703,17.5245 C0.375703,18.5345 1.18891,19.3477 2.19896,19.3477 L21.8479,19.3477 C22.858,19.3477 23.6711,18.5345 23.6711,17.5245 L23.6711,6.47555 C23.6711,5.46549 22.858,4.65234 21.8479,4.65234 L2.19896,4.65234 M6.71936,9.23098 C8.56166,9.23097 10.0552,10.7245 10.0552,12.5668 C10.0552,14.4091 8.56167,15.9026 6.71936,15.9026 C4.87705,15.9026 3.38355,14.4091 3.38355,12.5668 C3.38355,10.7245 4.87705,9.23097 6.71936,9.23098 M19.875,9.24873 C20.7082,9.24871 21.3837,9.92418 21.3837,10.7574 C21.3837,11.5906 20.7082,12.266 19.875,12.266 C19.0418,12.266 18.3664,11.5906 18.3664,10.7574 C18.3664,9.9242 19.0418,9.24874 19.875,9.24873 M17.4318,12.8825 C18.265,12.8825 18.9404,13.558 18.9404,14.3912 C18.9404,15.2243 18.2649,15.8998 17.4318,15.8998 C16.5986,15.8998 15.9231,15.2244 15.9231,14.3912 C15.9231,13.5579 16.5985,12.8825 17.4318,12.8825 "/>
</g>

<g fill="#000000" fill-opacity="1" stroke="none" transform="matrix(0.95,0,0,0.95,11.6,9.6)"
font-family="Inter" font-size="11" font-weight="700" font-style="normal" 
>
<path vector-effect="none" fill-rule="nonzero" d="M0.108328,15.3227 L0.103298,8.65983 L1.21825,8.7259 L1.75102,9.37791 L1.70662,12.9064 L1.66222,14.5556 L1.04066,15.0542 L0.108328,15.3227"/>
</g>

<g fill="#000000" fill-opacity="1" stroke="none" transform="matrix(0.95,0,0,0.95,11.6,9.6)"
font-family="Inter" font-size="11" font-weight="700" font-style="normal" 
>
<circle cx="6.70111" cy="12.5452" r="1.68266"/>
</g>

<g fill="none" stroke="#000000" stroke-opacity="1" stroke-width="0.54" stroke-linecap="butt" stroke-linejoin="miter" stroke-miterlimit="4" transform="matrix(0.95,0,0,0.95,11.6,9.6)"
font-family="Inter" font-size="11" font-weight="700" font-style="normal" 
>
<circle cx="6.70111" cy="12.5452" r="1.68266"/>
</g>

<g fill="#000000" fill-opacity="1" stroke="none" transform="matrix(0.95,0,0,0.95,11.6,9.6)"
font-family="Inter" font-size="11" font-weight="700" font-style="normal" 
opacity="0.858824" >
<path vector-effect="none" fill-rule="evenodd" d="M8.42109,18.1373 C8.42109,18.0846 8.46385,18.0418 8.51661,18.0418 L15.4834,18.0418 C15.5361,18.0418 15.5789,18.0846 15.5789,18.1373 L15.5789,18.1373 C15.5789,18.1901 15.5361,18.2329 15.4834,18.2329 L8.51661,18.2329 C8.46385,18.2329 8.42109,18.1901 8.42109,18.1373 L8.42109,18.1373"/>
</g>

<g fill="none" stroke="#000000" stroke-opacity="1" stroke-width="0.437534" stroke-linecap="butt" stroke-linejoin="miter" stroke-miterlimit="4" transform="matrix(0.95,0,0,0.95,11.6,9.6)"
font-family="Inter" font-size="11" font-weight="700" font-style="normal" 
>
<path vector-effect="none" fill-rule="evenodd" d="M8.42109,18.1373 C8.42109,18.0846 8.46385,18.0418 8.51661,18.0418 L15.4834,18.0418 C15.5361,18.0418 15.5789,18.0846 15.5789,18.1373 L15.5789,18.1373 C15.5789,18.1901 15.5361,18.2329 15.4834,18.2329 L8.51661,18.2329 C8.46385,18.2329 8.42109,18.1901 8.42109,18.1373 L8.42109,18.1373"/>
</g>

<g fill="#ffffff" fill-opacity="1" stroke="none" transform="matrix(1,0,0,1,0,0)"
font-family="Inter" font-size="11" font-weight="700" font-style="normal" 
>
</g>

<g fill="#ffffff" fill-opacity="1" stroke="#00645c" stroke-opacity="1" stroke-width="1" stroke-linecap="square" stroke-linejoin="bevel" transform="matrix(1,0,0,1,0,0)"
font-family="Inter" font-size="11" font-weight="700" font-style="normal" 
>
<polyline fill="none" vector-effect="none" points="45,11 45,31 " />
</g>

<g fill="#009f94" fill-opacity="1" stroke="#00645c" stroke-opacity="1" stroke-width="1.2" stroke-linecap="square" stroke-linejoin="bevel" transform="matrix(1,0,0,1,74,6)"
font-family="Inter" font-size="11" font-weight="700" font-style="normal" 
>
<path vector-effect="none" fill-rule="evenodd" d="M0.5,3.5 C0.5,1.84315 1.84315,0.5 3.5,0.5 L55.5,0.5 C57.1569,0.5 58.5,1.84315 58.5,3.5 L58.5,20.5 C58.5,22.1569 57.1569,23.5 55.5,23.5 L3.5,23.5 C1.84315,23.5 0.5,22.1569 0.5,20.5 L0.5,3.5"/>
</g>

<g fill="#ffffff" fill-opacity="1" stroke="none" transform="matrix(1,0,0,1,74,6)"
font-family="Inter" font-size="11" font-weight="700" font-style="normal" 
>
<path vector-effect="none" fill-rule="nonzero" d="M10.0078,16 L10.0078,8 L13.2109,8 C13.7995,8 14.2904,8.08724 14.6836,8.26172 C15.0768,8.4362 15.3724,8.67773 15.5703,8.98633 C15.7682,9.29492 15.8672,9.64974 15.8672,10.0508 C15.8672,10.3633 15.8047,10.6374 15.6797,10.873 C15.5547,11.1087 15.3835,11.3014 15.166,11.4512 C14.9486,11.6009 14.7005,11.707 14.4219,11.7695 L14.4219,11.8477 C14.7266,11.8607 15.0124,11.9466 15.2793,12.1055 C15.5462,12.2643 15.763,12.4863 15.9297,12.7715 C16.0964,13.0566 16.1797,13.3958 16.1797,13.7891 C16.1797,14.2135 16.0749,14.5918 15.8652,14.9238 C15.6556,15.2559 15.3464,15.5182 14.9375,15.7109 C14.5286,15.9036 14.0247,16 13.4258,16 L10.0078,16 M11.6992,14.6172 L13.0781,14.6172 C13.5495,14.6172 13.8932,14.5267 14.1094,14.3457 C14.3255,14.1647 14.4336,13.9232 14.4336,13.6211 C14.4336,13.3997 14.3802,13.2044 14.2734,13.0352 C14.1667,12.8659 14.015,12.7331 13.8184,12.6367 C13.6217,12.5404 13.388,12.4922 13.1172,12.4922 L11.6992,12.4922 L11.6992,14.6172 M11.6992,11.3477 L12.9531,11.3477 C13.1849,11.3477 13.3913,11.3066 13.5723,11.2246 C13.7533,11.1426 13.8965,11.026 14.002,10.875 C14.1074,10.724 14.1602,10.543 14.1602,10.332 C14.1602,10.043 14.0579,9.8099 13.8535,9.63281 C13.6491,9.45573 13.3594,9.36719 12.9844,9.36719 L11.6992,9.36719 L11.6992,11.3477 M16.9688,9.39453 L16.9688,8 L23.5391,8 L23.5391,9.39453 L21.0898,9.39453 L21.0898,16 L19.418,16 L19.418,9.39453 L16.9688,9.39453 M31.3086,8 L31.3086,16 L29.8477,16 L26.3672,10.9648 L26.3086,10.9648 L26.3086,16 L24.6172,16 L24.6172,8 L26.1016,8 L29.5547,13.0313 L29.625,13.0313 L29.625,8 L31.3086,8 M36.1289,8 L36.1289,16 L34.4375,16 L34.4375,9.60547 L34.3906,9.60547 L32.5586,10.7539 L32.5586,9.25391 L34.5391,8 L36.1289,8"/>
</g>

<g fill="#ffffff" fill-opacity="1" stroke="none" transform="matrix(0.03125,0,0,0.03125,119,14)"
font-family="Inter" font-size="11" font-weight="700" font-style="normal" 
>
<path vector-effect="none" fill-rule="nonzero" d="M111.326,191.938 C120.545,201.158 135.517,201.158 144.737,191.938 L239.144,97.5313 C245.929,90.7458 247.921,80.6413 244.233,71.7907 C240.545,62.9401 231.989,57.1871 222.401,57.1871 L33.5875,57.2608 C24.0731,57.2608 15.4437,63.0137 11.7559,71.8644 C8.06815,80.715 10.1333,90.8195 16.845,97.605 L111.252,192.012 L111.326,191.938"/>
</g>

<g fill="none" stroke="#000000" stroke-opacity="1" stroke-width="13.7195" stroke-linecap="butt" stroke-linejoin="miter" stroke-miterlimit="4" transform="matrix(0.03125,0,0,0.03125,119,14)"
font-family="Inter" font-size="11" font-weight="700" font-style="normal" 
>
<path vector-effect="none" fill-rule="nonzero" d="M111.326,191.938 C120.545,201.158 135.517,201.158 144.737,191.938 L239.144,97.5313 C245.929,90.7458 247.921,80.6413 244.233,71.7907 C240.545,62.9401 231.989,57.1871 222.401,57.1871 L33.5875,57.2608 C24.0731,57.2608 15.4437,63.0137 11.7559,71.8644 C8.06815,80.715 10.1333,90.8195 16.845,97.605 L111.252,192.012 L111.326,191.938"/>
</g>

<g fill="#ffffff" fill-opacity="1" stroke="none" transform="matrix(1,0,0,1,74,6)"
font-family="Inter" font-size="11" font-weight="700" font-style="normal" 
>
</g>

<g fill="#ffffff" fill-opacity="1" stroke="#00645c" stroke-opacity="1" stroke-width="1" stroke-linecap="square" stroke-linejoin="bevel" transform="matrix(1,0,0,1,0,0)"
font-family="Inter" font-size="11" font-weight="700" font-style="normal" 
>
</g>

<g fill="#fbb901" fill-opacity="1" stroke="#ffffff" stroke-opacity="1" stroke-width="1.2" stroke-linecap="square" stroke-linejoin="bevel" transform="matrix(1,0,0,1,185,6)"
font-family="Inter" font-size="11" font-weight="700" font-style="normal" 
>
<path vector-effect="none" fill-rule="evenodd" d="M0.5,12 C0.5,5.64873 5.87258,0.5 12.5,0.5 L19.5,0.5 C26.1274,0.5 31.5,5.64873 31.5,12 C31.5,18.3513 26.1274,23.5 19.5,23.5 L12.5,23.5 C5.87258,23.5 0.5,18.3513 0.5,12 "/>
</g>

<g fill="#ffffff" fill-opacity="1" stroke="none" transform="matrix(0.03125,0,0,0.03125,203,14)"
font-family="Inter" font-size="11" font-weight="700" font-style="normal" 
>
<path vector-effect="none" fill-rule="nonzero" d="M111.326,191.938 C120.545,201.158 135.517,201.158 144.737,191.938 L239.144,97.5313 C245.929,90.7458 247.921,80.6413 244.233,71.7907 C240.545,62.9401 231.989,57.1871 222.401,57.1871 L33.5875,57.2608 C24.0731,57.2608 15.4437,63.0137 11.7559,71.8644 C8.06815,80.715 10.1333,90.8195 16.845,97.605 L111.252,192.012 L111.326,191.938"/>
</g>

<g fill="none" stroke="#000000" stroke-opacity="1" stroke-width="13.7195" stroke-linecap="butt" stroke-linejoin="miter" stroke-miterlimit="4" transform="matrix(0.03125,0,0,0.03125,203,14)"
font-family="Inter" font-size="11" font-weight="700" font-style="normal" 
>
<path vector-effect="none" fill-rule="nonzero" d="M111.326,191.938 C120.545,201.158 135.517,201.158 144.737,191.938 L239.144,97.5313 C245.929,90.7458 247.921,80.6413 244.233,71.7907 C240.545,62.9401 231.989,57.1871 222.401,57.1871 L33.5875,57.2608 C24.0731,57.2608 15.4437,63.0137 11.7559,71.8644 C8.06815,80.715 10.1333,90.8195 16.845,97.605 L111.252,192.012 L111.326,191.938"/>
</g>

<g fill="#fbb901" fill-opacity="1" stroke="#ffffff" stroke-opacity="1" stroke-width="1.2" stroke-linecap="square" stroke-linejoin="bevel" transform="matrix(1,0,0,1,185,6)"
font-family="Inter" font-size="11" font-weight="700" font-style="normal" 
>
</g>

<g fill="#ffffff" fill-opacity="1" stroke="#00645c" stroke-opacity="1" stroke-width="1" stroke-linecap="square" stroke-linejoin="bevel" transform="matrix(1,0,0,1,0,0)"
font-family="Inter" font-size="11" font-weight="700" font-style="normal" 
>
</g>

<g fill="#ffffff" fill-opacity="1" stroke="#00645c" stroke-opacity="1" stroke-width="1" stroke-linecap="square" stroke-linejoin="bevel" transform="matrix(1,0,0,1,0,0)"
font-family="Inter" font-size="11" font-weight="700" font-style="normal" 
>
</g>

<g fill="#ffffff" fill-opacity="1" stroke="#00645c" stroke-opacity="1" stroke-width="1" stroke-linecap="square" stroke-linejoin="bevel" transform="matrix(1,0,0,1,0,0)"
font-family="Inter" font-size="11" font-weight="700" font-style="normal" 
>
</g>

<g fill="none" stroke="#000000" stroke-opacity="1" stroke-width="1" stroke-linecap="square" stroke-linejoin="bevel" transform="matrix(1,0,0,1,0,0)"
font-family=".AppleSystemUIFont" font-size="13" font-weight="400" font-style="normal" 
>
</g>
</g>
</svg>
