<?xml version="1.0" encoding="UTF-8" standalone="no"?>
<svg width="100.189mm" height="11.2889mm"
 viewBox="0 0 284 32"
 xmlns="http://www.w3.org/2000/svg" xmlns:xlink="http://www.w3.org/1999/xlink" version="1.2" baseProfile="tiny">
<title>Abstract block</title>
<desc>block_hubs_all_sensors_port_wedo2_sensor_distance</desc>
<defs>
</defs>
<g fill="none" stroke="black" stroke-width="1" fill-rule="evenodd" stroke-linecap="square" stroke-linejoin="bevel" >

<g fill="none" stroke="#000000" stroke-opacity="1" stroke-width="1" stroke-linecap="square" stroke-linejoin="bevel" transform="matrix(1,0,0,1,0,0)"
font-family=".AppleSystemUIFont" font-size="13" font-weight="400" font-style="normal" 
>
</g>

<g fill="none" stroke="#000000" stroke-opacity="1" stroke-width="1" stroke-linecap="square" stroke-linejoin="bevel" transform="matrix(1,0,0,1,0,0)"
font-family=".AppleSystemUIFont" font-size="13" font-weight="400" font-style="normal" 
>
</g>

<g fill="#1dccf0" fill-opacity="1" stroke="#0da6c5" stroke-opacity="1" stroke-width="1.2" stroke-linecap="square" stroke-linejoin="bevel" transform="matrix(1,0,0,1,0,0)"
font-family=".AppleSystemUIFont" font-size="13" font-weight="400" font-style="normal" 
>
<path vector-effect="none" fill-rule="evenodd" d="M1,16 C1,7.71573 8.16344,1 17,1 L266.167,1 C275.003,1 282.167,7.71573 282.167,16 C282.167,24.2843 275.003,31 266.167,31 L17,31 C8.16344,31 1,24.2843 1,16 "/>
</g>

<g fill="#ffffff" fill-opacity="1" stroke="none" transform="matrix(1,0,0,1,0,0)"
font-family="Inter" font-size="11" font-weight="700" font-style="normal" 
>
<path vector-effect="none" fill-rule="nonzero" d="M183.297,20.0508 C182.841,20.0508 182.429,19.9329 182.061,19.6973 C181.692,19.4616 181.4,19.1139 181.186,18.6543 C180.971,18.1947 180.863,17.6302 180.863,16.9609 C180.863,16.2734 180.974,15.7012 181.195,15.2441 C181.417,14.7871 181.712,14.4447 182.08,14.2168 C182.449,13.9889 182.853,13.875 183.293,13.875 C183.629,13.875 183.91,13.9316 184.135,14.0449 C184.36,14.1582 184.542,14.2988 184.682,14.4668 C184.821,14.6348 184.927,14.7995 185,14.9609 L185.051,14.9609 L185.051,11.9531 L186.711,11.9531 L186.711,19.9531 L185.07,19.9531 L185.07,18.9922 L185,18.9922 C184.922,19.1589 184.812,19.3236 184.67,19.4863 C184.528,19.6491 184.344,19.7839 184.119,19.8906 C183.894,19.9974 183.62,20.0508 183.297,20.0508 M183.824,18.7266 C184.092,18.7266 184.32,18.653 184.506,18.5059 C184.692,18.3587 184.835,18.1523 184.936,17.8867 C185.036,17.6211 185.086,17.3099 185.086,16.9531 C185.086,16.5964 185.036,16.2865 184.938,16.0234 C184.839,15.7604 184.695,15.5573 184.508,15.4141 C184.32,15.2708 184.092,15.1992 183.824,15.1992 C183.551,15.1992 183.32,15.2734 183.133,15.4219 C182.945,15.5703 182.803,15.776 182.707,16.0391 C182.611,16.3021 182.563,16.6068 182.563,16.9531 C182.563,17.3021 182.611,17.61 182.709,17.877 C182.807,18.1439 182.949,18.3522 183.135,18.502 C183.321,18.6517 183.551,18.7266 183.824,18.7266 M188.07,19.9531 L188.07,13.9531 L189.734,13.9531 L189.734,19.9531 L188.07,19.9531 M188.906,13.1797 C188.659,13.1797 188.447,13.097 188.271,12.9316 C188.096,12.7663 188.008,12.5677 188.008,12.3359 C188.008,12.1068 188.096,11.9095 188.271,11.7441 C188.447,11.5788 188.659,11.4961 188.906,11.4961 C189.154,11.4961 189.365,11.5788 189.541,11.7441 C189.717,11.9095 189.805,12.1068 189.805,12.3359 C189.805,12.5677 189.717,12.7663 189.541,12.9316 C189.365,13.097 189.154,13.1797 188.906,13.1797 M196.047,15.6641 L194.523,15.7578 C194.497,15.6276 194.441,15.5098 194.355,15.4043 C194.27,15.2988 194.157,15.2142 194.018,15.1504 C193.878,15.0866 193.712,15.0547 193.52,15.0547 C193.262,15.0547 193.044,15.1087 192.867,15.2168 C192.69,15.3249 192.602,15.4688 192.602,15.6484 C192.602,15.7917 192.659,15.9128 192.773,16.0117 C192.888,16.1107 193.085,16.1901 193.363,16.25 L194.449,16.4688 C195.033,16.5885 195.467,16.7813 195.754,17.0469 C196.04,17.3125 196.184,17.6615 196.184,18.0938 C196.184,18.487 196.068,18.832 195.838,19.1289 C195.607,19.4258 195.292,19.6569 194.893,19.8223 C194.493,19.9876 194.033,20.0703 193.512,20.0703 C192.717,20.0703 192.085,19.9043 191.615,19.5723 C191.145,19.2402 190.87,18.7878 190.789,18.2148 L192.426,18.1289 C192.475,18.3711 192.595,18.5553 192.785,18.6816 C192.975,18.8079 193.219,18.8711 193.516,18.8711 C193.807,18.8711 194.042,18.8145 194.221,18.7012 C194.399,18.5879 194.49,18.4414 194.492,18.2617 C194.49,18.1107 194.426,17.9863 194.301,17.8887 C194.176,17.791 193.983,17.7161 193.723,17.6641 L192.684,17.457 C192.098,17.3398 191.662,17.1367 191.377,16.8477 C191.092,16.5586 190.949,16.1901 190.949,15.7422 C190.949,15.3568 191.054,15.0247 191.264,14.7461 C191.473,14.4674 191.769,14.2526 192.15,14.1016 C192.532,13.9505 192.979,13.875 193.492,13.875 C194.25,13.875 194.847,14.0352 195.283,14.3555 C195.719,14.6758 195.974,15.112 196.047,15.6641 M200.418,13.9531 L200.418,15.2031 L196.805,15.2031 L196.805,13.9531 L200.418,13.9531 M197.625,12.5156 L199.289,12.5156 L199.289,18.1094 C199.289,18.263 199.313,18.3822 199.359,18.4668 C199.406,18.5514 199.472,18.6107 199.557,18.6445 C199.641,18.6784 199.74,18.6953 199.852,18.6953 C199.93,18.6953 200.008,18.6882 200.086,18.6738 C200.164,18.6595 200.224,18.6484 200.266,18.6406 L200.527,19.8789 C200.444,19.9049 200.327,19.9355 200.176,19.9707 C200.025,20.0059 199.841,20.0273 199.625,20.0352 C199.224,20.0508 198.873,19.9974 198.572,19.875 C198.271,19.7526 198.038,19.5625 197.871,19.3047 C197.704,19.0469 197.622,18.7214 197.625,18.3281 L197.625,12.5156 M203.203,20.0664 C202.82,20.0664 202.479,19.9993 202.18,19.8652 C201.88,19.7311 201.644,19.5319 201.471,19.2676 C201.298,19.0033 201.211,18.6732 201.211,18.2773 C201.211,17.944 201.272,17.6641 201.395,17.4375 C201.517,17.2109 201.684,17.0286 201.895,16.8906 C202.105,16.7526 202.346,16.6484 202.615,16.5781 C202.885,16.5078 203.168,16.4583 203.465,16.4297 C203.814,16.3932 204.095,16.3587 204.309,16.3262 C204.522,16.2936 204.677,16.2448 204.773,16.1797 C204.87,16.1146 204.918,16.0182 204.918,15.8906 L204.918,15.8672 C204.918,15.6198 204.84,15.4284 204.686,15.293 C204.531,15.1576 204.311,15.0898 204.027,15.0898 C203.728,15.0898 203.49,15.1556 203.313,15.2871 C203.135,15.4186 203.018,15.5833 202.961,15.7813 L201.422,15.6563 C201.5,15.2917 201.654,14.9759 201.883,14.709 C202.112,14.4421 202.408,14.2363 202.771,14.0918 C203.135,13.9473 203.556,13.875 204.035,13.875 C204.368,13.875 204.688,13.9141 204.994,13.9922 C205.3,14.0703 205.572,14.1914 205.811,14.3555 C206.049,14.5195 206.237,14.7298 206.375,14.9863 C206.513,15.2428 206.582,15.5495 206.582,15.9063 L206.582,19.9531 L205.004,19.9531 L205.004,19.1211 L204.957,19.1211 C204.861,19.3086 204.732,19.4733 204.57,19.6152 C204.409,19.7572 204.215,19.8678 203.988,19.9473 C203.762,20.0267 203.5,20.0664 203.203,20.0664 M203.68,18.918 C203.924,18.918 204.141,18.8691 204.328,18.7715 C204.516,18.6738 204.663,18.5417 204.77,18.375 C204.876,18.2083 204.93,18.0195 204.93,17.8086 L204.93,17.1719 C204.878,17.2057 204.807,17.2363 204.717,17.2637 C204.627,17.291 204.526,17.3158 204.414,17.3379 C204.302,17.36 204.19,17.3796 204.078,17.3965 C203.966,17.4134 203.865,17.4284 203.773,17.4414 C203.578,17.4701 203.408,17.5156 203.262,17.5781 C203.116,17.6406 203.003,17.7246 202.922,17.8301 C202.841,17.9355 202.801,18.0664 202.801,18.2227 C202.801,18.4492 202.883,18.6217 203.049,18.7402 C203.214,18.8587 203.424,18.918 203.68,18.918 M209.531,16.4844 L209.531,19.9531 L207.867,19.9531 L207.867,13.9531 L209.453,13.9531 L209.453,15.0117 L209.523,15.0117 C209.656,14.6628 209.879,14.3861 210.191,14.1816 C210.504,13.9772 210.883,13.875 211.328,13.875 C211.745,13.875 212.108,13.9661 212.418,14.1484 C212.728,14.3307 212.969,14.5905 213.141,14.9277 C213.313,15.265 213.398,15.6667 213.398,16.1328 L213.398,19.9531 L211.734,19.9531 L211.734,16.4297 C211.737,16.0625 211.643,15.7754 211.453,15.5684 C211.263,15.3613 211.001,15.2578 210.668,15.2578 C210.444,15.2578 210.247,15.306 210.076,15.4023 C209.906,15.4987 209.773,15.6387 209.678,15.8223 C209.583,16.0059 209.534,16.2266 209.531,16.4844 M217.406,20.0703 C216.792,20.0703 216.264,19.9395 215.822,19.6777 C215.381,19.416 215.042,19.0521 214.807,18.5859 C214.571,18.1198 214.453,17.5833 214.453,16.9766 C214.453,16.362 214.572,15.8223 214.811,15.3574 C215.049,14.8926 215.388,14.5293 215.828,14.2676 C216.268,14.0059 216.792,13.875 217.398,13.875 C217.922,13.875 218.38,13.9701 218.773,14.1602 C219.167,14.3503 219.478,14.6172 219.707,14.9609 C219.936,15.3047 220.063,15.7083 220.086,16.1719 L218.516,16.1719 C218.471,15.8724 218.355,15.6309 218.166,15.4473 C217.977,15.2637 217.73,15.1719 217.426,15.1719 C217.168,15.1719 216.943,15.2415 216.752,15.3809 C216.561,15.5202 216.411,15.7227 216.305,15.9883 C216.198,16.2539 216.145,16.5755 216.145,16.9531 C216.145,17.3359 216.197,17.6615 216.303,17.9297 C216.408,18.1979 216.557,18.4023 216.75,18.543 C216.943,18.6836 217.168,18.7539 217.426,18.7539 C217.616,18.7539 217.787,18.7148 217.939,18.6367 C218.092,18.5586 218.218,18.4447 218.318,18.2949 C218.419,18.1452 218.484,17.9648 218.516,17.7539 L220.086,17.7539 C220.06,18.2122 219.936,18.6152 219.713,18.9629 C219.49,19.3105 219.184,19.582 218.793,19.7773 C218.402,19.9727 217.94,20.0703 217.406,20.0703 M223.883,20.0703 C223.266,20.0703 222.735,19.9447 222.291,19.6934 C221.847,19.4421 221.505,19.0853 221.266,18.623 C221.026,18.1608 220.906,17.6133 220.906,16.9805 C220.906,16.3633 221.026,15.8216 221.266,15.3555 C221.505,14.8893 221.843,14.526 222.279,14.2656 C222.715,14.0052 223.228,13.875 223.816,13.875 C224.212,13.875 224.581,13.9382 224.924,14.0645 C225.266,14.1908 225.566,14.3802 225.822,14.6328 C226.079,14.8854 226.279,15.2025 226.422,15.584 C226.565,15.9655 226.637,16.4115 226.637,16.9219 L226.637,17.3789 L221.57,17.3789 L221.57,16.3477 L225.07,16.3477 C225.07,16.1081 225.018,15.8958 224.914,15.7109 C224.81,15.526 224.666,15.3809 224.482,15.2754 C224.299,15.1699 224.086,15.1172 223.844,15.1172 C223.591,15.1172 223.368,15.1751 223.174,15.291 C222.98,15.4069 222.828,15.5618 222.719,15.7559 C222.609,15.9499 222.553,16.1654 222.551,16.4023 L222.551,17.3828 C222.551,17.6797 222.606,17.9362 222.717,18.1523 C222.827,18.3685 222.984,18.5352 223.188,18.6523 C223.391,18.7695 223.632,18.8281 223.91,18.8281 C224.095,18.8281 224.264,18.8021 224.418,18.75 C224.572,18.6979 224.703,18.6198 224.813,18.5156 C224.922,18.4115 225.005,18.2839 225.063,18.1328 L226.602,18.2344 C226.523,18.6042 226.364,18.9264 226.123,19.2012 C225.882,19.4759 225.572,19.6895 225.193,19.8418 C224.814,19.9941 224.378,20.0703 223.883,20.0703 "/>
</g>

<g fill="#ffffff" fill-opacity="1" stroke="none" transform="matrix(0.0337958,0,0,0.0337958,9.17623,3.2185)"
font-family="Inter" font-size="11" font-weight="700" font-style="normal" 
>
<path vector-effect="none" fill-rule="nonzero" d="M233.594,211.072 C228.404,211.072 224.225,215.252 224.225,220.441 L224.225,260.535 L208.805,260.535 C189.756,260.535 174.42,274.6 174.42,292.072 L174.42,545.322 L643.655,545.322 L643.655,292.072 C643.655,274.6 628.319,260.535 609.27,260.535 L585.282,260.535 L585.282,220.441 C585.282,215.252 581.104,211.072 575.914,211.072 L451.727,211.072 C446.537,211.072 442.358,215.252 442.358,220.441 L442.358,260.535 L367.149,260.535 L367.149,220.441 C367.149,215.252 362.971,211.072 357.782,211.072 L233.594,211.072 M526.422,334.73 C560.854,334.731 588.767,362.644 588.766,397.076 C588.765,431.507 560.853,459.419 526.422,459.42 C491.99,459.42 464.077,431.508 464.077,397.076 C464.076,362.643 491.989,334.73 526.422,334.73 "/>
</g>

<g fill="none" stroke="#000000" stroke-opacity="1" stroke-width="20" stroke-linecap="round" stroke-linejoin="round" transform="matrix(0.0337958,0,0,0.0337958,9.17623,3.2185)"
font-family="Inter" font-size="11" font-weight="700" font-style="normal" 
>
<path vector-effect="none" fill-rule="nonzero" d="M233.594,211.072 C228.404,211.072 224.225,215.252 224.225,220.441 L224.225,260.535 L208.805,260.535 C189.756,260.535 174.42,274.6 174.42,292.072 L174.42,545.322 L643.655,545.322 L643.655,292.072 C643.655,274.6 628.319,260.535 609.27,260.535 L585.282,260.535 L585.282,220.441 C585.282,215.252 581.104,211.072 575.914,211.072 L451.727,211.072 C446.537,211.072 442.358,215.252 442.358,220.441 L442.358,260.535 L367.149,260.535 L367.149,220.441 C367.149,215.252 362.971,211.072 357.782,211.072 L233.594,211.072 M526.422,334.73 C560.854,334.731 588.767,362.644 588.766,397.076 C588.765,431.507 560.853,459.419 526.422,459.42 C491.99,459.42 464.077,431.508 464.077,397.076 C464.076,362.643 491.989,334.73 526.422,334.73 "/>
</g>

<g fill="#000000" fill-opacity="1" stroke="none" transform="matrix(0.0337958,0,0,0.0337958,9.17623,3.2185)"
font-family="Inter" font-size="11" font-weight="700" font-style="normal" 
>
<rect x="203.484" y="251.585" width="402.541" height="19.2706"/>
</g>

<g fill="#000000" fill-opacity="1" stroke="none" transform="matrix(0.0337958,0,0,0.0337958,9.17623,3.2185)"
font-family="Inter" font-size="11" font-weight="700" font-style="normal" 
>
<circle cx="290.016" cy="397.436" r="67.6977"/>
</g>

<g fill="#000000" fill-opacity="1" stroke="none" transform="matrix(0.0337958,0,0,0.0337958,9.17623,3.2185)"
font-family="Inter" font-size="11" font-weight="700" font-style="normal" 
>
<path vector-effect="none" fill-rule="evenodd" d="M386.266,392.762 C386.351,394.457 386.513,397.042 386.522,399.186 C386.522,448.99 346.147,489.365 296.342,489.365 C294.889,489.365 293.446,489.324 292.01,489.256 L177.508,489.256 L177.508,554.984 L637.301,554.984 L637.301,489.256 L522.799,489.256 C521.363,489.324 519.92,489.365 518.467,489.365 C468.663,489.365 428.288,448.99 428.287,399.186 C428.296,397.042 428.396,393.897 428.543,392.762 C428.691,391.626 422.289,399.439 407.302,399.458 C392.315,399.476 386.181,391.066 386.266,392.762 "/>
</g>

<g fill="#000000" fill-opacity="1" stroke="none" transform="matrix(0.0337958,0,0,0.0337958,9.17623,3.2185)"
font-family="Inter" font-size="11" font-weight="700" font-style="normal" 
>
<path vector-effect="none" fill-rule="evenodd" d="M290.202,274.299 C223.57,274.299 169.071,327.434 166.799,393.525 L182.825,407.443 C185.057,354.668 236.861,298.889 290.202,298.889 C334.12,298.889 371.435,327.547 384.407,367.03 L409.682,366.762 C395.866,313.665 347.543,274.299 290.202,274.299 M230.619,505.937 C248.302,515.726 268.612,521.318 290.202,521.318 C311.791,521.318 332.099,515.726 349.782,505.937 L230.619,505.937"/>
</g>

<g fill="#000000" fill-opacity="1" stroke="none" transform="matrix(0.0337958,0,0,0.0337958,9.17623,3.2185)"
font-family="Inter" font-size="11" font-weight="700" font-style="normal" 
>
<path vector-effect="none" fill-rule="evenodd" d="M525.731,274.299 C469.547,274.299 421.992,312.081 407.098,363.551 L432.911,363.551 C446.797,325.75 483.013,298.889 525.731,298.889 C579.071,298.889 630.875,354.668 633.108,407.443 L649.133,393.525 C646.862,327.434 592.362,274.299 525.731,274.299 M466.151,505.937 C483.834,515.726 504.142,521.318 525.731,521.318 C547.32,521.318 567.63,515.726 585.313,505.937 L466.151,505.937"/>
</g>

<g fill="#000000" fill-opacity="1" stroke="none" transform="matrix(0.0337958,0,0,0.0337958,9.17623,3.2185)"
font-family="Inter" font-size="11" font-weight="700" font-style="normal" 
>
<path vector-effect="none" fill-rule="evenodd" d="M433.347,361.722 C429.999,375.589 416.812,383.879 408.1,384.156 C399.388,384.434 385.351,375.677 383.343,362.479 C382.236,355.21 383.728,346.426 390.059,335.811 C395.437,326.794 403.909,356.432 408.012,356.298 C411.178,356.195 421.812,324.833 425.124,334.127 C428.871,344.639 435.041,354.705 433.347,361.722 "/>
</g>

<g fill="#ffffff" fill-opacity="1" stroke="none" transform="matrix(1,0,0,1,0,0)"
font-family="Inter" font-size="11" font-weight="700" font-style="normal" 
>
</g>

<g fill="#ffffff" fill-opacity="1" stroke="#0da6c5" stroke-opacity="1" stroke-width="1" stroke-linecap="square" stroke-linejoin="bevel" transform="matrix(1,0,0,1,0,0)"
font-family="Inter" font-size="11" font-weight="700" font-style="normal" 
>
<polyline fill="none" vector-effect="none" points="45,6 45,26 " />
</g>

<g fill="#ffffff" fill-opacity="1" stroke="#0da6c5" stroke-opacity="1" stroke-width="1" stroke-linecap="square" stroke-linejoin="bevel" transform="matrix(1,0,0,1,0,0)"
font-family="Inter" font-size="11" font-weight="700" font-style="normal" 
>
</g>

<g fill="#1dccf0" fill-opacity="1" stroke="#0da6c5" stroke-opacity="1" stroke-width="1.2" stroke-linecap="square" stroke-linejoin="bevel" transform="matrix(1,0,0,1,233,4)"
font-family="Inter" font-size="11" font-weight="700" font-style="normal" 
>
<path vector-effect="none" fill-rule="evenodd" d="M0.5,3.5 C0.5,1.84315 1.84315,0.5 3.5,0.5 L36,0.5 C37.6569,0.5 39,1.84315 39,3.5 L39,20.5 C39,22.1569 37.6569,23.5 36,23.5 L3.5,23.5 C1.84315,23.5 0.5,22.1569 0.5,20.5 L0.5,3.5"/>
</g>

<g fill="#ffffff" fill-opacity="1" stroke="none" transform="matrix(1,0,0,1,233,4)"
font-family="Inter" font-size="11" font-weight="700" font-style="normal" 
>
<path vector-effect="none" fill-rule="nonzero" d="M13.6055,14.3594 L13.6055,13.9375 C13.6055,13.6172 13.6738,13.3223 13.8105,13.0527 C13.9473,12.7832 14.1465,12.5671 14.4082,12.4043 C14.6699,12.2415 14.9896,12.1602 15.3672,12.1602 C15.75,12.1602 16.0723,12.2409 16.334,12.4023 C16.5957,12.5638 16.7936,12.7793 16.9277,13.0488 C17.0618,13.3184 17.1289,13.6146 17.1289,13.9375 L17.1289,14.3594 C17.1289,14.6797 17.0612,14.9746 16.9258,15.2441 C16.7904,15.5137 16.5911,15.7298 16.3281,15.8926 C16.0651,16.0553 15.7448,16.1367 15.3672,16.1367 C14.9844,16.1367 14.6628,16.0553 14.4023,15.8926 C14.1419,15.7298 13.944,15.5137 13.8086,15.2441 C13.6732,14.9746 13.6055,14.6797 13.6055,14.3594 M14.7422,13.9375 L14.7422,14.3594 C14.7422,14.5443 14.7871,14.7188 14.877,14.8828 C14.9668,15.0469 15.1302,15.1289 15.3672,15.1289 C15.6042,15.1289 15.7663,15.0482 15.8535,14.8867 C15.9408,14.7253 15.9844,14.5495 15.9844,14.3594 L15.9844,13.9375 C15.9844,13.7474 15.9427,13.5703 15.8594,13.4063 C15.776,13.2422 15.612,13.1602 15.3672,13.1602 C15.1328,13.1602 14.9701,13.2422 14.8789,13.4063 C14.7878,13.5703 14.7422,13.7474 14.7422,13.9375 M9.5,9.78125 L9.5,9.35938 C9.5,9.03646 9.56901,8.74023 9.70703,8.4707 C9.84505,8.20117 10.0449,7.98568 10.3066,7.82422 C10.5684,7.66276 10.8854,7.58203 11.2578,7.58203 C11.6432,7.58203 11.9661,7.66276 12.2266,7.82422 C12.487,7.98568 12.6849,8.20117 12.8203,8.4707 C12.9557,8.74023 13.0234,9.03646 13.0234,9.35938 L13.0234,9.78125 C13.0234,10.1042 12.9551,10.3997 12.8184,10.668 C12.6816,10.9362 12.4824,11.1504 12.2207,11.3105 C11.959,11.4707 11.638,11.5508 11.2578,11.5508 C10.8776,11.5508 10.5566,11.4694 10.2949,11.3066 C10.0332,11.1439 9.83529,10.929 9.70117,10.6621 C9.56706,10.3952 9.5,10.1016 9.5,9.78125 M10.6445,9.35938 L10.6445,9.78125 C10.6445,9.97135 10.6895,10.1471 10.7793,10.3086 C10.8691,10.4701 11.0286,10.5508 11.2578,10.5508 C11.4974,10.5508 11.6608,10.4701 11.748,10.3086 C11.8353,10.1471 11.8789,9.97135 11.8789,9.78125 L11.8789,9.35938 C11.8789,9.16927 11.8372,8.99219 11.7539,8.82813 C11.6706,8.66406 11.5052,8.58203 11.2578,8.58203 C11.026,8.58203 10.8659,8.66536 10.7773,8.83203 C10.6888,8.9987 10.6445,9.17448 10.6445,9.35938 M10.0156,15.8594 L15.5156,7.85938 L16.5391,7.85938 L11.0391,15.8594 L10.0156,15.8594"/>
</g>

<g fill="#ffffff" fill-opacity="1" stroke="none" transform="matrix(0.03125,0,0,0.03125,258.5,12)"
font-family="Inter" font-size="11" font-weight="700" font-style="normal" 
>
<path vector-effect="none" fill-rule="nonzero" d="M111.326,191.938 C120.545,201.158 135.517,201.158 144.737,191.938 L239.144,97.5313 C245.929,90.7458 247.921,80.6413 244.233,71.7907 C240.545,62.9401 231.989,57.1871 222.401,57.1871 L33.5875,57.2608 C24.0731,57.2608 15.4437,63.0137 11.7559,71.8644 C8.06815,80.715 10.1333,90.8195 16.845,97.605 L111.252,192.012 L111.326,191.938"/>
</g>

<g fill="none" stroke="#000000" stroke-opacity="1" stroke-width="13.7195" stroke-linecap="butt" stroke-linejoin="miter" stroke-miterlimit="4" transform="matrix(0.03125,0,0,0.03125,258.5,12)"
font-family="Inter" font-size="11" font-weight="700" font-style="normal" 
>
<path vector-effect="none" fill-rule="nonzero" d="M111.326,191.938 C120.545,201.158 135.517,201.158 144.737,191.938 L239.144,97.5313 C245.929,90.7458 247.921,80.6413 244.233,71.7907 C240.545,62.9401 231.989,57.1871 222.401,57.1871 L33.5875,57.2608 C24.0731,57.2608 15.4437,63.0137 11.7559,71.8644 C8.06815,80.715 10.1333,90.8195 16.845,97.605 L111.252,192.012 L111.326,191.938"/>
</g>

<g fill="#ffffff" fill-opacity="1" stroke="none" transform="matrix(1,0,0,1,233,4)"
font-family="Inter" font-size="11" font-weight="700" font-style="normal" 
>
</g>

<g fill="#ffffff" fill-opacity="1" stroke="#0da6c5" stroke-opacity="1" stroke-width="1" stroke-linecap="square" stroke-linejoin="bevel" transform="matrix(1,0,0,1,0,0)"
font-family="Inter" font-size="11" font-weight="700" font-style="normal" 
>
</g>

<g fill="#0da6c5" fill-opacity="1" stroke="#0da6c5" stroke-opacity="1" stroke-width="1.2" stroke-linecap="square" stroke-linejoin="bevel" transform="matrix(1,0,0,1,135,4)"
font-family="Inter" font-size="11" font-weight="700" font-style="normal" 
>
<path vector-effect="none" fill-rule="evenodd" d="M0.5,12 C0.5,5.64873 5.87258,0.5 12.5,0.5 L27.5,0.5 C34.1274,0.5 39.5,5.64873 39.5,12 C39.5,18.3513 34.1274,23.5 27.5,23.5 L12.5,23.5 C5.87258,23.5 0.5,18.3513 0.5,12 "/>
</g>

<g fill="#ffffff" fill-opacity="1" stroke="none" transform="matrix(1,0,0,1,135,4)"
font-family="Inter" font-size="11" font-weight="700" font-style="normal" 
>
<path vector-effect="none" fill-rule="nonzero" d="M11.8242,16 L10.0117,16 L12.7734,8 L14.9531,8 L17.7109,16 L15.8984,16 L13.8945,9.82813 L13.832,9.82813 L11.8242,16 M11.7109,12.8555 L15.9922,12.8555 L15.9922,14.1758 L11.7109,14.1758 L11.7109,12.8555"/>
</g>

<g fill="#ffffff" fill-opacity="1" stroke="none" transform="matrix(0.03125,0,0,0.03125,161,12)"
font-family="Inter" font-size="11" font-weight="700" font-style="normal" 
>
<path vector-effect="none" fill-rule="nonzero" d="M111.326,191.938 C120.545,201.158 135.517,201.158 144.737,191.938 L239.144,97.5313 C245.929,90.7458 247.921,80.6413 244.233,71.7907 C240.545,62.9401 231.989,57.1871 222.401,57.1871 L33.5875,57.2608 C24.0731,57.2608 15.4437,63.0137 11.7559,71.8644 C8.06815,80.715 10.1333,90.8195 16.845,97.605 L111.252,192.012 L111.326,191.938"/>
</g>

<g fill="none" stroke="#000000" stroke-opacity="1" stroke-width="13.7195" stroke-linecap="butt" stroke-linejoin="miter" stroke-miterlimit="4" transform="matrix(0.03125,0,0,0.03125,161,12)"
font-family="Inter" font-size="11" font-weight="700" font-style="normal" 
>
<path vector-effect="none" fill-rule="nonzero" d="M111.326,191.938 C120.545,201.158 135.517,201.158 144.737,191.938 L239.144,97.5313 C245.929,90.7458 247.921,80.6413 244.233,71.7907 C240.545,62.9401 231.989,57.1871 222.401,57.1871 L33.5875,57.2608 C24.0731,57.2608 15.4437,63.0137 11.7559,71.8644 C8.06815,80.715 10.1333,90.8195 16.845,97.605 L111.252,192.012 L111.326,191.938"/>
</g>

<g fill="#ffffff" fill-opacity="1" stroke="none" transform="matrix(1,0,0,1,135,4)"
font-family="Inter" font-size="11" font-weight="700" font-style="normal" 
>
</g>

<g fill="#ffffff" fill-opacity="1" stroke="#0da6c5" stroke-opacity="1" stroke-width="1" stroke-linecap="square" stroke-linejoin="bevel" transform="matrix(1,0,0,1,0,0)"
font-family="Inter" font-size="11" font-weight="700" font-style="normal" 
>
</g>

<g fill="#1dccf0" fill-opacity="1" stroke="#0da6c5" stroke-opacity="1" stroke-width="1.2" stroke-linecap="square" stroke-linejoin="bevel" transform="matrix(1,0,0,1,56,4)"
font-family="Inter" font-size="11" font-weight="700" font-style="normal" 
>
<path vector-effect="none" fill-rule="evenodd" d="M0.5,3.5 C0.5,1.84315 1.84315,0.5 3.5,0.5 L71.5,0.5 C73.1569,0.5 74.5,1.84315 74.5,3.5 L74.5,20.5 C74.5,22.1569 73.1569,23.5 71.5,23.5 L3.5,23.5 C1.84315,23.5 0.5,22.1569 0.5,20.5 L0.5,3.5"/>
</g>

<g fill="#ffffff" fill-opacity="1" stroke="none" transform="matrix(1,0,0,1,56,4)"
font-family="Inter" font-size="11" font-weight="700" font-style="normal" 
>
<path vector-effect="none" fill-rule="nonzero" d="M10,9.39453 L10,8 L16.5703,8 L16.5703,9.39453 L14.1211,9.39453 L14.1211,16 L12.4492,16 L12.4492,9.39453 L10,9.39453 M17.6484,16 L17.6484,8 L19.3398,8 L19.3398,11.3008 L22.7734,11.3008 L22.7734,8 L24.4609,8 L24.4609,16 L22.7734,16 L22.7734,12.6953 L19.3398,12.6953 L19.3398,16 L17.6484,16 M32.543,8 L32.543,16 L31.082,16 L27.6016,10.9648 L27.543,10.9648 L27.543,16 L25.8516,16 L25.8516,8 L27.3359,8 L30.7891,13.0313 L30.8594,13.0313 L30.8594,8 L32.543,8 M33.9297,16 L33.9297,8 L35.6211,8 L35.6211,11.3008 L39.0547,11.3008 L39.0547,8 L40.7422,8 L40.7422,16 L39.0547,16 L39.0547,12.6953 L35.6211,12.6953 L35.6211,16 L33.9297,16 M42.1328,16 L42.1328,8 L45.3359,8 C45.9245,8 46.4154,8.08724 46.8086,8.26172 C47.2018,8.4362 47.4974,8.67773 47.6953,8.98633 C47.8932,9.29492 47.9922,9.64974 47.9922,10.0508 C47.9922,10.3633 47.9297,10.6374 47.8047,10.873 C47.6797,11.1087 47.5085,11.3014 47.291,11.4512 C47.0736,11.6009 46.8255,11.707 46.5469,11.7695 L46.5469,11.8477 C46.8516,11.8607 47.1374,11.9466 47.4043,12.1055 C47.6712,12.2643 47.888,12.4863 48.0547,12.7715 C48.2214,13.0566 48.3047,13.3958 48.3047,13.7891 C48.3047,14.2135 48.1999,14.5918 47.9902,14.9238 C47.7806,15.2559 47.4714,15.5182 47.0625,15.7109 C46.6536,15.9036 46.1497,16 45.5508,16 L42.1328,16 M43.8242,14.6172 L45.2031,14.6172 C45.6745,14.6172 46.0182,14.5267 46.2344,14.3457 C46.4505,14.1647 46.5586,13.9232 46.5586,13.6211 C46.5586,13.3997 46.5052,13.2044 46.3984,13.0352 C46.2917,12.8659 46.14,12.7331 45.9434,12.6367 C45.7467,12.5404 45.513,12.4922 45.2422,12.4922 L43.8242,12.4922 L43.8242,14.6172 M43.8242,11.3477 L45.0781,11.3477 C45.3099,11.3477 45.5163,11.3066 45.6973,11.2246 C45.8783,11.1426 46.0215,11.026 46.127,10.875 C46.2324,10.724 46.2852,10.543 46.2852,10.332 C46.2852,10.043 46.1829,9.8099 45.9785,9.63281 C45.7741,9.45573 45.4844,9.36719 45.1094,9.36719 L43.8242,9.36719 L43.8242,11.3477 M52.832,8 L52.832,16 L51.1406,16 L51.1406,9.60547 L51.0938,9.60547 L49.2617,10.7539 L49.2617,9.25391 L51.2422,8 L52.832,8"/>
</g>

<g fill="#ffffff" fill-opacity="1" stroke="none" transform="matrix(0.03125,0,0,0.03125,117,12)"
font-family="Inter" font-size="11" font-weight="700" font-style="normal" 
>
<path vector-effect="none" fill-rule="nonzero" d="M111.326,191.938 C120.545,201.158 135.517,201.158 144.737,191.938 L239.144,97.5313 C245.929,90.7458 247.921,80.6413 244.233,71.7907 C240.545,62.9401 231.989,57.1871 222.401,57.1871 L33.5875,57.2608 C24.0731,57.2608 15.4437,63.0137 11.7559,71.8644 C8.06815,80.715 10.1333,90.8195 16.845,97.605 L111.252,192.012 L111.326,191.938"/>
</g>

<g fill="none" stroke="#000000" stroke-opacity="1" stroke-width="13.7195" stroke-linecap="butt" stroke-linejoin="miter" stroke-miterlimit="4" transform="matrix(0.03125,0,0,0.03125,117,12)"
font-family="Inter" font-size="11" font-weight="700" font-style="normal" 
>
<path vector-effect="none" fill-rule="nonzero" d="M111.326,191.938 C120.545,201.158 135.517,201.158 144.737,191.938 L239.144,97.5313 C245.929,90.7458 247.921,80.6413 244.233,71.7907 C240.545,62.9401 231.989,57.1871 222.401,57.1871 L33.5875,57.2608 C24.0731,57.2608 15.4437,63.0137 11.7559,71.8644 C8.06815,80.715 10.1333,90.8195 16.845,97.605 L111.252,192.012 L111.326,191.938"/>
</g>

<g fill="#ffffff" fill-opacity="1" stroke="none" transform="matrix(1,0,0,1,56,4)"
font-family="Inter" font-size="11" font-weight="700" font-style="normal" 
>
</g>

<g fill="#ffffff" fill-opacity="1" stroke="#0da6c5" stroke-opacity="1" stroke-width="1" stroke-linecap="square" stroke-linejoin="bevel" transform="matrix(1,0,0,1,0,0)"
font-family="Inter" font-size="11" font-weight="700" font-style="normal" 
>
</g>

<g fill="#ffffff" fill-opacity="1" stroke="#0da6c5" stroke-opacity="1" stroke-width="1" stroke-linecap="square" stroke-linejoin="bevel" transform="matrix(1,0,0,1,0,0)"
font-family="Inter" font-size="11" font-weight="700" font-style="normal" 
>
</g>

<g fill="none" stroke="#000000" stroke-opacity="1" stroke-width="1" stroke-linecap="square" stroke-linejoin="bevel" transform="matrix(1,0,0,1,0,0)"
font-family=".AppleSystemUIFont" font-size="13" font-weight="400" font-style="normal" 
>
</g>
</g>
</svg>
