<?xml version="1.0" encoding="UTF-8" standalone="no"?>
<svg width="149.225mm" height="15.5222mm"
 viewBox="0 0 423 44"
 xmlns="http://www.w3.org/2000/svg" xmlns:xlink="http://www.w3.org/1999/xlink" version="1.2" baseProfile="tiny">
<title>Abstract block</title>
<desc>block_hubs_all_motors_port_calibrate_steering_rack</desc>
<defs>
</defs>
<g fill="none" stroke="black" stroke-width="1" fill-rule="evenodd" stroke-linecap="square" stroke-linejoin="bevel" >

<g fill="none" stroke="#000000" stroke-opacity="1" stroke-width="1" stroke-linecap="square" stroke-linejoin="bevel" transform="matrix(1,0,0,1,0,0)"
font-family=".AppleSystemUIFont" font-size="13" font-weight="400" font-style="normal" 
>
</g>

<g fill="none" stroke="#000000" stroke-opacity="1" stroke-width="1" stroke-linecap="square" stroke-linejoin="bevel" transform="matrix(1,0,0,1,0,0)"
font-family=".AppleSystemUIFont" font-size="13" font-weight="400" font-style="normal" 
>
</g>

<g fill="#0090f5" fill-opacity="1" stroke="#0070ba" stroke-opacity="1" stroke-width="1.2" stroke-linecap="square" stroke-linejoin="bevel" transform="matrix(1,0,0,1,0,0)"
font-family=".AppleSystemUIFont" font-size="13" font-weight="400" font-style="normal" 
>
<path vector-effect="none" fill-rule="evenodd" d="M0.5,4.5 L1.04612,2.48112 L2.48112,1.04612 L4.5,0.5 L9.625,0.5 L10.416,0.976563 L11.1719,1.6875 L11.998,2.67969 L13,4 L13.7559,4.66016 L14.5469,5.15625 L15.4082,5.51172 L16.375,5.75 L17.4824,5.89453 L18.7656,5.96875 L20.2598,5.99609 L22,6 L23.7402,5.99609 L25.2344,5.96875 L26.5176,5.89453 L27.625,5.75 L28.5918,5.51172 L29.4531,5.15625 L30.2441,4.66016 L31,4 L32.002,2.67969 L32.8281,1.6875 L33.584,0.976563 L34.375,0.5 L418.3,0.5 L420.319,1.04612 L421.754,2.48112 L422.3,4.5 L422.3,31.5 L421.754,33.5189 L420.319,34.9539 L418.3,35.5 L34.375,35.5 L33.584,35.9766 L32.8281,36.6875 L32.002,37.6797 L31,39 L30.2441,39.6602 L29.4531,40.1563 L28.5918,40.5117 L27.625,40.75 L26.5176,40.8945 L25.2344,40.9688 L23.7402,40.9961 L22,41 L20.2598,40.9961 L18.7656,40.9688 L17.4824,40.8945 L16.375,40.75 L15.4082,40.5117 L14.5469,40.1563 L13.7559,39.6602 L13,39 L11.998,37.6797 L11.1719,36.6875 L10.416,35.9766 L9.625,35.5 L4.5,35.5 L2.48112,34.9539 L1.04612,33.5189 L0.5,31.5 L0.5,4.5"/>
</g>

<g fill="#ffffff" fill-opacity="1" stroke="none" transform="matrix(1,0,0,1,0,0)"
font-family="Inter" font-size="11" font-weight="700" font-style="normal" 
>
<path vector-effect="none" fill-rule="nonzero" d="M183.813,22.0703 C183.198,22.0703 182.67,21.9395 182.229,21.6777 C181.787,21.416 181.449,21.0521 181.213,20.5859 C180.977,20.1198 180.859,19.5833 180.859,18.9766 C180.859,18.362 180.979,17.8223 181.217,17.3574 C181.455,16.8926 181.794,16.5293 182.234,16.2676 C182.674,16.0059 183.198,15.875 183.805,15.875 C184.328,15.875 184.786,15.9701 185.18,16.1602 C185.573,16.3503 185.884,16.6172 186.113,16.9609 C186.342,17.3047 186.469,17.7083 186.492,18.1719 L184.922,18.1719 C184.878,17.8724 184.761,17.6309 184.572,17.4473 C184.383,17.2637 184.137,17.1719 183.832,17.1719 C183.574,17.1719 183.35,17.2415 183.158,17.3809 C182.967,17.5202 182.818,17.7227 182.711,17.9883 C182.604,18.2539 182.551,18.5755 182.551,18.9531 C182.551,19.3359 182.604,19.6615 182.709,19.9297 C182.814,20.1979 182.964,20.4023 183.156,20.543 C183.349,20.6836 183.574,20.7539 183.832,20.7539 C184.022,20.7539 184.193,20.7148 184.346,20.6367 C184.498,20.5586 184.624,20.4447 184.725,20.2949 C184.825,20.1452 184.891,19.9648 184.922,19.7539 L186.492,19.7539 C186.466,20.2122 186.342,20.6152 186.119,20.9629 C185.896,21.3105 185.59,21.582 185.199,21.7773 C184.809,21.9727 184.346,22.0703 183.813,22.0703 M189.266,22.0664 C188.883,22.0664 188.542,21.9993 188.242,21.8652 C187.943,21.7311 187.706,21.5319 187.533,21.2676 C187.36,21.0033 187.273,20.6732 187.273,20.2773 C187.273,19.944 187.335,19.6641 187.457,19.4375 C187.579,19.2109 187.746,19.0286 187.957,18.8906 C188.168,18.7526 188.408,18.6484 188.678,18.5781 C188.947,18.5078 189.23,18.4583 189.527,18.4297 C189.876,18.3932 190.158,18.3587 190.371,18.3262 C190.585,18.2936 190.74,18.2448 190.836,18.1797 C190.932,18.1146 190.98,18.0182 190.98,17.8906 L190.98,17.8672 C190.98,17.6198 190.903,17.4284 190.748,17.293 C190.593,17.1576 190.374,17.0898 190.09,17.0898 C189.79,17.0898 189.552,17.1556 189.375,17.2871 C189.198,17.4186 189.081,17.5833 189.023,17.7813 L187.484,17.6563 C187.563,17.2917 187.716,16.9759 187.945,16.709 C188.174,16.4421 188.471,16.2363 188.834,16.0918 C189.197,15.9473 189.618,15.875 190.098,15.875 C190.431,15.875 190.751,15.9141 191.057,15.9922 C191.363,16.0703 191.635,16.1914 191.873,16.3555 C192.111,16.5195 192.299,16.7298 192.438,16.9863 C192.576,17.2428 192.645,17.5495 192.645,17.9063 L192.645,21.9531 L191.066,21.9531 L191.066,21.1211 L191.02,21.1211 C190.923,21.3086 190.794,21.4733 190.633,21.6152 C190.471,21.7572 190.277,21.8678 190.051,21.9473 C189.824,22.0267 189.563,22.0664 189.266,22.0664 M189.742,20.918 C189.987,20.918 190.203,20.8691 190.391,20.7715 C190.578,20.6738 190.725,20.5417 190.832,20.375 C190.939,20.2083 190.992,20.0195 190.992,19.8086 L190.992,19.1719 C190.94,19.2057 190.869,19.2363 190.779,19.2637 C190.689,19.291 190.589,19.3158 190.477,19.3379 C190.365,19.36 190.253,19.3796 190.141,19.3965 C190.029,19.4134 189.927,19.4284 189.836,19.4414 C189.641,19.4701 189.47,19.5156 189.324,19.5781 C189.178,19.6406 189.065,19.7246 188.984,19.8301 C188.904,19.9355 188.863,20.0664 188.863,20.2227 C188.863,20.4492 188.946,20.6217 189.111,20.7402 C189.277,20.8587 189.487,20.918 189.742,20.918 M195.594,13.9531 L195.594,21.9531 L193.93,21.9531 L193.93,13.9531 L195.594,13.9531 M196.914,21.9531 L196.914,15.9531 L198.578,15.9531 L198.578,21.9531 L196.914,21.9531 M197.75,15.1797 C197.503,15.1797 197.291,15.097 197.115,14.9316 C196.939,14.7663 196.852,14.5677 196.852,14.3359 C196.852,14.1068 196.939,13.9095 197.115,13.7441 C197.291,13.5788 197.503,13.4961 197.75,13.4961 C197.997,13.4961 198.209,13.5788 198.385,13.7441 C198.561,13.9095 198.648,14.1068 198.648,14.3359 C198.648,14.5677 198.561,14.7663 198.385,14.9316 C198.209,15.097 197.997,15.1797 197.75,15.1797 M199.93,21.9531 L199.93,13.9531 L201.594,13.9531 L201.594,16.9609 L201.645,16.9609 C201.717,16.7995 201.824,16.6348 201.963,16.4668 C202.102,16.2988 202.285,16.1582 202.51,16.0449 C202.735,15.9316 203.016,15.875 203.352,15.875 C203.789,15.875 204.193,15.9889 204.563,16.2168 C204.932,16.4447 205.228,16.7871 205.449,17.2441 C205.671,17.7012 205.781,18.2734 205.781,18.9609 C205.781,19.6302 205.674,20.1947 205.459,20.6543 C205.244,21.1139 204.952,21.4616 204.584,21.6973 C204.215,21.9329 203.803,22.0508 203.348,22.0508 C203.025,22.0508 202.751,21.9974 202.525,21.8906 C202.3,21.7839 202.116,21.6491 201.973,21.4863 C201.829,21.3236 201.72,21.1589 201.645,20.9922 L201.57,20.9922 L201.57,21.9531 L199.93,21.9531 M201.559,18.9531 C201.559,19.3099 201.608,19.6211 201.707,19.8867 C201.806,20.1523 201.949,20.3587 202.137,20.5059 C202.324,20.653 202.552,20.7266 202.82,20.7266 C203.091,20.7266 203.32,20.6517 203.508,20.502 C203.695,20.3522 203.838,20.1439 203.936,19.877 C204.033,19.61 204.082,19.3021 204.082,18.9531 C204.082,18.6068 204.034,18.3021 203.938,18.0391 C203.841,17.776 203.699,17.5703 203.512,17.4219 C203.324,17.2734 203.094,17.1992 202.82,17.1992 C202.549,17.1992 202.321,17.2708 202.135,17.4141 C201.949,17.5573 201.806,17.7604 201.707,18.0234 C201.608,18.2865 201.559,18.5964 201.559,18.9531 M206.883,21.9531 L206.883,15.9531 L208.496,15.9531 L208.496,17 L208.559,17 C208.668,16.6276 208.852,16.3457 209.109,16.1543 C209.367,15.9629 209.664,15.8672 210,15.8672 C210.083,15.8672 210.173,15.8724 210.27,15.8828 C210.366,15.8932 210.451,15.9076 210.523,15.9258 L210.523,17.4023 C210.445,17.3789 210.337,17.3581 210.199,17.3398 C210.061,17.3216 209.935,17.3125 209.82,17.3125 C209.576,17.3125 209.357,17.3652 209.166,17.4707 C208.975,17.5762 208.824,17.7227 208.713,17.9102 C208.602,18.0977 208.547,18.3138 208.547,18.5586 L208.547,21.9531 L206.883,21.9531 M212.906,22.0664 C212.523,22.0664 212.182,21.9993 211.883,21.8652 C211.583,21.7311 211.347,21.5319 211.174,21.2676 C211.001,21.0033 210.914,20.6732 210.914,20.2773 C210.914,19.944 210.975,19.6641 211.098,19.4375 C211.22,19.2109 211.387,19.0286 211.598,18.8906 C211.809,18.7526 212.049,18.6484 212.318,18.5781 C212.588,18.5078 212.871,18.4583 213.168,18.4297 C213.517,18.3932 213.798,18.3587 214.012,18.3262 C214.225,18.2936 214.38,18.2448 214.477,18.1797 C214.573,18.1146 214.621,18.0182 214.621,17.8906 L214.621,17.8672 C214.621,17.6198 214.544,17.4284 214.389,17.293 C214.234,17.1576 214.014,17.0898 213.73,17.0898 C213.431,17.0898 213.193,17.1556 213.016,17.2871 C212.839,17.4186 212.721,17.5833 212.664,17.7813 L211.125,17.6563 C211.203,17.2917 211.357,16.9759 211.586,16.709 C211.815,16.4421 212.111,16.2363 212.475,16.0918 C212.838,15.9473 213.259,15.875 213.738,15.875 C214.072,15.875 214.391,15.9141 214.697,15.9922 C215.003,16.0703 215.275,16.1914 215.514,16.3555 C215.752,16.5195 215.94,16.7298 216.078,16.9863 C216.216,17.2428 216.285,17.5495 216.285,17.9063 L216.285,21.9531 L214.707,21.9531 L214.707,21.1211 L214.66,21.1211 C214.564,21.3086 214.435,21.4733 214.273,21.6152 C214.112,21.7572 213.918,21.8678 213.691,21.9473 C213.465,22.0267 213.203,22.0664 212.906,22.0664 M213.383,20.918 C213.628,20.918 213.844,20.8691 214.031,20.7715 C214.219,20.6738 214.366,20.5417 214.473,20.375 C214.579,20.2083 214.633,20.0195 214.633,19.8086 L214.633,19.1719 C214.581,19.2057 214.51,19.2363 214.42,19.2637 C214.33,19.291 214.229,19.3158 214.117,19.3379 C214.005,19.36 213.893,19.3796 213.781,19.3965 C213.669,19.4134 213.568,19.4284 213.477,19.4414 C213.281,19.4701 213.111,19.5156 212.965,19.5781 C212.819,19.6406 212.706,19.7246 212.625,19.8301 C212.544,19.9355 212.504,20.0664 212.504,20.2227 C212.504,20.4492 212.587,20.6217 212.752,20.7402 C212.917,20.8587 213.128,20.918 213.383,20.918 M220.762,15.9531 L220.762,17.2031 L217.148,17.2031 L217.148,15.9531 L220.762,15.9531 M217.969,14.5156 L219.633,14.5156 L219.633,20.1094 C219.633,20.263 219.656,20.3822 219.703,20.4668 C219.75,20.5514 219.816,20.6107 219.9,20.6445 C219.985,20.6784 220.083,20.6953 220.195,20.6953 C220.273,20.6953 220.352,20.6882 220.43,20.6738 C220.508,20.6595 220.568,20.6484 220.609,20.6406 L220.871,21.8789 C220.788,21.9049 220.671,21.9355 220.52,21.9707 C220.368,22.0059 220.185,22.0273 219.969,22.0352 C219.568,22.0508 219.217,21.9974 218.916,21.875 C218.615,21.7526 218.382,21.5625 218.215,21.3047 C218.048,21.0469 217.966,20.7214 217.969,20.3281 L217.969,14.5156 M224.508,22.0703 C223.891,22.0703 223.36,21.9447 222.916,21.6934 C222.472,21.4421 222.13,21.0853 221.891,20.623 C221.651,20.1608 221.531,19.6133 221.531,18.9805 C221.531,18.3633 221.651,17.8216 221.891,17.3555 C222.13,16.8893 222.468,16.526 222.904,16.2656 C223.34,16.0052 223.853,15.875 224.441,15.875 C224.837,15.875 225.206,15.9382 225.549,16.0645 C225.891,16.1908 226.191,16.3802 226.447,16.6328 C226.704,16.8854 226.904,17.2025 227.047,17.584 C227.19,17.9655 227.262,18.4115 227.262,18.9219 L227.262,19.3789 L222.195,19.3789 L222.195,18.3477 L225.695,18.3477 C225.695,18.1081 225.643,17.8958 225.539,17.7109 C225.435,17.526 225.291,17.3809 225.107,17.2754 C224.924,17.1699 224.711,17.1172 224.469,17.1172 C224.216,17.1172 223.993,17.1751 223.799,17.291 C223.605,17.4069 223.453,17.5618 223.344,17.7559 C223.234,17.9499 223.178,18.1654 223.176,18.4023 L223.176,19.3828 C223.176,19.6797 223.231,19.9362 223.342,20.1523 C223.452,20.3685 223.609,20.5352 223.813,20.6523 C224.016,20.7695 224.257,20.8281 224.535,20.8281 C224.72,20.8281 224.889,20.8021 225.043,20.75 C225.197,20.6979 225.328,20.6198 225.438,20.5156 C225.547,20.4115 225.63,20.2839 225.688,20.1328 L227.227,20.2344 C227.148,20.6042 226.989,20.9264 226.748,21.2012 C226.507,21.4759 226.197,21.6895 225.818,21.8418 C225.439,21.9941 225.003,22.0703 224.508,22.0703 M230.883,21.9531 L230.883,15.9531 L232.496,15.9531 L232.496,17 L232.559,17 C232.668,16.6276 232.852,16.3457 233.109,16.1543 C233.367,15.9629 233.664,15.8672 234,15.8672 C234.083,15.8672 234.173,15.8724 234.27,15.8828 C234.366,15.8932 234.451,15.9076 234.523,15.9258 L234.523,17.4023 C234.445,17.3789 234.337,17.3581 234.199,17.3398 C234.061,17.3216 233.935,17.3125 233.82,17.3125 C233.576,17.3125 233.357,17.3652 233.166,17.4707 C232.975,17.5762 232.824,17.7227 232.713,17.9102 C232.602,18.0977 232.547,18.3138 232.547,18.5586 L232.547,21.9531 L230.883,21.9531 M236.906,22.0664 C236.523,22.0664 236.182,21.9993 235.883,21.8652 C235.583,21.7311 235.347,21.5319 235.174,21.2676 C235.001,21.0033 234.914,20.6732 234.914,20.2773 C234.914,19.944 234.975,19.6641 235.098,19.4375 C235.22,19.2109 235.387,19.0286 235.598,18.8906 C235.809,18.7526 236.049,18.6484 236.318,18.5781 C236.588,18.5078 236.871,18.4583 237.168,18.4297 C237.517,18.3932 237.798,18.3587 238.012,18.3262 C238.225,18.2936 238.38,18.2448 238.477,18.1797 C238.573,18.1146 238.621,18.0182 238.621,17.8906 L238.621,17.8672 C238.621,17.6198 238.544,17.4284 238.389,17.293 C238.234,17.1576 238.014,17.0898 237.73,17.0898 C237.431,17.0898 237.193,17.1556 237.016,17.2871 C236.839,17.4186 236.721,17.5833 236.664,17.7813 L235.125,17.6563 C235.203,17.2917 235.357,16.9759 235.586,16.709 C235.815,16.4421 236.111,16.2363 236.475,16.0918 C236.838,15.9473 237.259,15.875 237.738,15.875 C238.072,15.875 238.391,15.9141 238.697,15.9922 C239.003,16.0703 239.275,16.1914 239.514,16.3555 C239.752,16.5195 239.94,16.7298 240.078,16.9863 C240.216,17.2428 240.285,17.5495 240.285,17.9063 L240.285,21.9531 L238.707,21.9531 L238.707,21.1211 L238.66,21.1211 C238.564,21.3086 238.435,21.4733 238.273,21.6152 C238.112,21.7572 237.918,21.8678 237.691,21.9473 C237.465,22.0267 237.203,22.0664 236.906,22.0664 M237.383,20.918 C237.628,20.918 237.844,20.8691 238.031,20.7715 C238.219,20.6738 238.366,20.5417 238.473,20.375 C238.579,20.2083 238.633,20.0195 238.633,19.8086 L238.633,19.1719 C238.581,19.2057 238.51,19.2363 238.42,19.2637 C238.33,19.291 238.229,19.3158 238.117,19.3379 C238.005,19.36 237.893,19.3796 237.781,19.3965 C237.669,19.4134 237.568,19.4284 237.477,19.4414 C237.281,19.4701 237.111,19.5156 236.965,19.5781 C236.819,19.6406 236.706,19.7246 236.625,19.8301 C236.544,19.9355 236.504,20.0664 236.504,20.2227 C236.504,20.4492 236.587,20.6217 236.752,20.7402 C236.917,20.8587 237.128,20.918 237.383,20.918 M244.281,22.0703 C243.667,22.0703 243.139,21.9395 242.697,21.6777 C242.256,21.416 241.917,21.0521 241.682,20.5859 C241.446,20.1198 241.328,19.5833 241.328,18.9766 C241.328,18.362 241.447,17.8223 241.686,17.3574 C241.924,16.8926 242.263,16.5293 242.703,16.2676 C243.143,16.0059 243.667,15.875 244.273,15.875 C244.797,15.875 245.255,15.9701 245.648,16.1602 C246.042,16.3503 246.353,16.6172 246.582,16.9609 C246.811,17.3047 246.938,17.7083 246.961,18.1719 L245.391,18.1719 C245.346,17.8724 245.23,17.6309 245.041,17.4473 C244.852,17.2637 244.605,17.1719 244.301,17.1719 C244.043,17.1719 243.818,17.2415 243.627,17.3809 C243.436,17.5202 243.286,17.7227 243.18,17.9883 C243.073,18.2539 243.02,18.5755 243.02,18.9531 C243.02,19.3359 243.072,19.6615 243.178,19.9297 C243.283,20.1979 243.432,20.4023 243.625,20.543 C243.818,20.6836 244.043,20.7539 244.301,20.7539 C244.491,20.7539 244.662,20.7148 244.814,20.6367 C244.967,20.5586 245.093,20.4447 245.193,20.2949 C245.294,20.1452 245.359,19.9648 245.391,19.7539 L246.961,19.7539 C246.935,20.2122 246.811,20.6152 246.588,20.9629 C246.365,21.3105 246.059,21.582 245.668,21.7773 C245.277,21.9727 244.815,22.0703 244.281,22.0703 M249.531,20.2266 L249.535,18.2305 L249.777,18.2305 L251.699,15.9531 L253.609,15.9531 L251.027,18.9688 L250.633,18.9688 L249.531,20.2266 M248.023,21.9531 L248.023,13.9531 L249.688,13.9531 L249.688,21.9531 L248.023,21.9531 M251.773,21.9531 L250.008,19.3398 L251.117,18.1641 L253.723,21.9531 L251.773,21.9531"/>
</g>

<g fill="#ffffff" fill-opacity="1" stroke="none" transform="matrix(1,0,0,1,0,0)"
font-family="Inter" font-size="11" font-weight="700" font-style="normal" 
>
<path vector-effect="none" fill-rule="nonzero" d="M295.234,21.5703 C294.62,21.5703 294.092,21.4395 293.65,21.1777 C293.209,20.916 292.87,20.5521 292.635,20.0859 C292.399,19.6198 292.281,19.0833 292.281,18.4766 C292.281,17.862 292.4,17.3223 292.639,16.8574 C292.877,16.3926 293.216,16.0293 293.656,15.7676 C294.096,15.5059 294.62,15.375 295.227,15.375 C295.75,15.375 296.208,15.4701 296.602,15.6602 C296.995,15.8503 297.306,16.1172 297.535,16.4609 C297.764,16.8047 297.891,17.2083 297.914,17.6719 L296.344,17.6719 C296.299,17.3724 296.183,17.1309 295.994,16.9473 C295.805,16.7637 295.559,16.6719 295.254,16.6719 C294.996,16.6719 294.771,16.7415 294.58,16.8809 C294.389,17.0202 294.24,17.2227 294.133,17.4883 C294.026,17.7539 293.973,18.0755 293.973,18.4531 C293.973,18.8359 294.025,19.1615 294.131,19.4297 C294.236,19.6979 294.385,19.9023 294.578,20.043 C294.771,20.1836 294.996,20.2539 295.254,20.2539 C295.444,20.2539 295.615,20.2148 295.768,20.1367 C295.92,20.0586 296.046,19.9447 296.146,19.7949 C296.247,19.6452 296.313,19.4648 296.344,19.2539 L297.914,19.2539 C297.888,19.7122 297.764,20.1152 297.541,20.4629 C297.318,20.8105 297.012,21.082 296.621,21.2773 C296.23,21.4727 295.768,21.5703 295.234,21.5703 M301.711,21.5703 C301.094,21.5703 300.563,21.4447 300.119,21.1934 C299.675,20.9421 299.333,20.5853 299.094,20.123 C298.854,19.6608 298.734,19.1133 298.734,18.4805 C298.734,17.8633 298.854,17.3216 299.094,16.8555 C299.333,16.3893 299.671,16.026 300.107,15.7656 C300.544,15.5052 301.056,15.375 301.645,15.375 C302.04,15.375 302.41,15.4382 302.752,15.5645 C303.094,15.6908 303.394,15.8802 303.65,16.1328 C303.907,16.3854 304.107,16.7025 304.25,17.084 C304.393,17.4655 304.465,17.9115 304.465,18.4219 L304.465,18.8789 L299.398,18.8789 L299.398,17.8477 L302.898,17.8477 C302.898,17.6081 302.846,17.3958 302.742,17.2109 C302.638,17.026 302.494,16.8809 302.311,16.7754 C302.127,16.6699 301.914,16.6172 301.672,16.6172 C301.419,16.6172 301.196,16.6751 301.002,16.791 C300.808,16.9069 300.656,17.0618 300.547,17.2559 C300.438,17.4499 300.382,17.6654 300.379,17.9023 L300.379,18.8828 C300.379,19.1797 300.434,19.4362 300.545,19.6523 C300.656,19.8685 300.813,20.0352 301.016,20.1523 C301.219,20.2695 301.46,20.3281 301.738,20.3281 C301.923,20.3281 302.092,20.3021 302.246,20.25 C302.4,20.1979 302.531,20.1198 302.641,20.0156 C302.75,19.9115 302.833,19.7839 302.891,19.6328 L304.43,19.7344 C304.352,20.1042 304.192,20.4264 303.951,20.7012 C303.71,20.9759 303.4,21.1895 303.021,21.3418 C302.643,21.4941 302.206,21.5703 301.711,21.5703 M307.203,17.9844 L307.203,21.4531 L305.539,21.4531 L305.539,15.4531 L307.125,15.4531 L307.125,16.5117 L307.195,16.5117 C307.328,16.1628 307.551,15.8861 307.863,15.6816 C308.176,15.4772 308.555,15.375 309,15.375 C309.417,15.375 309.78,15.4661 310.09,15.6484 C310.4,15.8307 310.641,16.0905 310.813,16.4277 C310.984,16.765 311.07,17.1667 311.07,17.6328 L311.07,21.4531 L309.406,21.4531 L309.406,17.9297 C309.409,17.5625 309.315,17.2754 309.125,17.0684 C308.935,16.8613 308.673,16.7578 308.34,16.7578 C308.116,16.7578 307.919,16.806 307.748,16.9023 C307.577,16.9987 307.445,17.1387 307.35,17.3223 C307.255,17.5059 307.206,17.7266 307.203,17.9844 M315.559,15.4531 L315.559,16.7031 L311.945,16.7031 L311.945,15.4531 L315.559,15.4531 M312.766,14.0156 L314.43,14.0156 L314.43,19.6094 C314.43,19.763 314.453,19.8822 314.5,19.9668 C314.547,20.0514 314.613,20.1107 314.697,20.1445 C314.782,20.1784 314.88,20.1953 314.992,20.1953 C315.07,20.1953 315.148,20.1882 315.227,20.1738 C315.305,20.1595 315.365,20.1484 315.406,20.1406 L315.668,21.3789 C315.585,21.4049 315.467,21.4355 315.316,21.4707 C315.165,21.5059 314.982,21.5273 314.766,21.5352 C314.365,21.5508 314.014,21.4974 313.713,21.375 C313.412,21.2526 313.178,21.0625 313.012,20.8047 C312.845,20.5469 312.763,20.2214 312.766,19.8281 L312.766,14.0156 M319.305,21.5703 C318.688,21.5703 318.157,21.4447 317.713,21.1934 C317.269,20.9421 316.927,20.5853 316.688,20.123 C316.448,19.6608 316.328,19.1133 316.328,18.4805 C316.328,17.8633 316.448,17.3216 316.688,16.8555 C316.927,16.3893 317.265,16.026 317.701,15.7656 C318.137,15.5052 318.65,15.375 319.238,15.375 C319.634,15.375 320.003,15.4382 320.346,15.5645 C320.688,15.6908 320.988,15.8802 321.244,16.1328 C321.501,16.3854 321.701,16.7025 321.844,17.084 C321.987,17.4655 322.059,17.9115 322.059,18.4219 L322.059,18.8789 L316.992,18.8789 L316.992,17.8477 L320.492,17.8477 C320.492,17.6081 320.44,17.3958 320.336,17.2109 C320.232,17.026 320.088,16.8809 319.904,16.7754 C319.721,16.6699 319.508,16.6172 319.266,16.6172 C319.013,16.6172 318.79,16.6751 318.596,16.791 C318.402,16.9069 318.25,17.0618 318.141,17.2559 C318.031,17.4499 317.975,17.6654 317.973,17.9023 L317.973,18.8828 C317.973,19.1797 318.028,19.4362 318.139,19.6523 C318.249,19.8685 318.406,20.0352 318.609,20.1523 C318.813,20.2695 319.053,20.3281 319.332,20.3281 C319.517,20.3281 319.686,20.3021 319.84,20.25 C319.993,20.1979 320.125,20.1198 320.234,20.0156 C320.344,19.9115 320.427,19.7839 320.484,19.6328 L322.023,19.7344 C321.945,20.1042 321.786,20.4264 321.545,20.7012 C321.304,20.9759 320.994,21.1895 320.615,21.3418 C320.236,21.4941 319.799,21.5703 319.305,21.5703 M323.133,21.4531 L323.133,15.4531 L324.746,15.4531 L324.746,16.5 L324.809,16.5 C324.918,16.1276 325.102,15.8457 325.359,15.6543 C325.617,15.4629 325.914,15.3672 326.25,15.3672 C326.333,15.3672 326.423,15.3724 326.52,15.3828 C326.616,15.3932 326.701,15.4076 326.773,15.4258 L326.773,16.9023 C326.695,16.8789 326.587,16.8581 326.449,16.8398 C326.311,16.8216 326.185,16.8125 326.07,16.8125 C325.826,16.8125 325.607,16.8652 325.416,16.9707 C325.225,17.0762 325.074,17.2227 324.963,17.4102 C324.852,17.5977 324.797,17.8138 324.797,18.0586 L324.797,21.4531 L323.133,21.4531"/>
</g>

<g fill="#ffffff" fill-opacity="1" stroke="none" transform="matrix(1,0,0,1,0,0)"
font-family="Inter" font-size="11" font-weight="700" font-style="normal" 
>
<path vector-effect="none" fill-rule="nonzero" d="M368.25,20.8633 C367.794,20.8633 367.382,20.7454 367.014,20.5098 C366.645,20.2741 366.354,19.9264 366.139,19.4668 C365.924,19.0072 365.816,18.4427 365.816,17.7734 C365.816,17.0859 365.927,16.5137 366.148,16.0566 C366.37,15.5996 366.665,15.2572 367.033,15.0293 C367.402,14.8014 367.806,14.6875 368.246,14.6875 C368.582,14.6875 368.863,14.7441 369.088,14.8574 C369.313,14.9707 369.495,15.1113 369.635,15.2793 C369.774,15.4473 369.88,15.612 369.953,15.7734 L370.004,15.7734 L370.004,12.7656 L371.664,12.7656 L371.664,20.7656 L370.023,20.7656 L370.023,19.8047 L369.953,19.8047 C369.875,19.9714 369.765,20.1361 369.623,20.2988 C369.481,20.4616 369.298,20.5964 369.072,20.7031 C368.847,20.8099 368.573,20.8633 368.25,20.8633 M368.777,19.5391 C369.046,19.5391 369.273,19.4655 369.459,19.3184 C369.645,19.1712 369.788,18.9648 369.889,18.6992 C369.989,18.4336 370.039,18.1224 370.039,17.7656 C370.039,17.4089 369.99,17.099 369.891,16.8359 C369.792,16.5729 369.648,16.3698 369.461,16.2266 C369.273,16.0833 369.046,16.0117 368.777,16.0117 C368.504,16.0117 368.273,16.0859 368.086,16.2344 C367.898,16.3828 367.757,16.5885 367.66,16.8516 C367.564,17.1146 367.516,17.4193 367.516,17.7656 C367.516,18.1146 367.564,18.4225 367.662,18.6895 C367.76,18.9564 367.902,19.1647 368.088,19.3145 C368.274,19.4642 368.504,19.5391 368.777,19.5391 M375.758,20.8828 C375.141,20.8828 374.61,20.7572 374.166,20.5059 C373.722,20.2546 373.38,19.8978 373.141,19.4355 C372.901,18.9733 372.781,18.4258 372.781,17.793 C372.781,17.1758 372.901,16.6341 373.141,16.168 C373.38,15.7018 373.718,15.3385 374.154,15.0781 C374.59,14.8177 375.103,14.6875 375.691,14.6875 C376.087,14.6875 376.456,14.7507 376.799,14.877 C377.141,15.0033 377.441,15.1927 377.697,15.4453 C377.954,15.6979 378.154,16.015 378.297,16.3965 C378.44,16.778 378.512,17.224 378.512,17.7344 L378.512,18.1914 L373.445,18.1914 L373.445,17.1602 L376.945,17.1602 C376.945,16.9206 376.893,16.7083 376.789,16.5234 C376.685,16.3385 376.541,16.1934 376.357,16.0879 C376.174,15.9824 375.961,15.9297 375.719,15.9297 C375.466,15.9297 375.243,15.9876 375.049,16.1035 C374.855,16.2194 374.703,16.3743 374.594,16.5684 C374.484,16.7624 374.428,16.9779 374.426,17.2148 L374.426,18.1953 C374.426,18.4922 374.481,18.7487 374.592,18.9648 C374.702,19.181 374.859,19.3477 375.063,19.4648 C375.266,19.582 375.507,19.6406 375.785,19.6406 C375.97,19.6406 376.139,19.6146 376.293,19.5625 C376.447,19.5104 376.578,19.4323 376.688,19.3281 C376.797,19.224 376.88,19.0964 376.938,18.9453 L378.477,19.0469 C378.398,19.4167 378.239,19.7389 377.998,20.0137 C377.757,20.2884 377.447,20.502 377.068,20.6543 C376.689,20.8066 376.253,20.8828 375.758,20.8828 M382.289,23.1406 C381.75,23.1406 381.288,23.0671 380.904,22.9199 C380.52,22.7728 380.215,22.5729 379.988,22.3203 C379.762,22.0677 379.615,21.7839 379.547,21.4688 L381.086,21.2617 C381.133,21.3815 381.207,21.4935 381.309,21.5977 C381.41,21.7018 381.545,21.7858 381.713,21.8496 C381.881,21.9134 382.086,21.9453 382.328,21.9453 C382.69,21.9453 382.989,21.8574 383.225,21.6816 C383.46,21.5059 383.578,21.2122 383.578,20.8008 L383.578,19.7031 L383.508,19.7031 C383.435,19.8698 383.326,20.0273 383.18,20.1758 C383.034,20.3242 382.846,20.4453 382.617,20.5391 C382.388,20.6328 382.115,20.6797 381.797,20.6797 C381.346,20.6797 380.937,20.5749 380.568,20.3652 C380.2,20.1556 379.907,19.834 379.689,19.4004 C379.472,18.9668 379.363,18.418 379.363,17.7539 C379.363,17.0742 379.474,16.5065 379.695,16.0508 C379.917,15.5951 380.212,15.2539 380.58,15.0273 C380.949,14.8008 381.353,14.6875 381.793,14.6875 C382.129,14.6875 382.41,14.7441 382.637,14.8574 C382.863,14.9707 383.046,15.1113 383.186,15.2793 C383.325,15.4473 383.432,15.612 383.508,15.7734 L383.57,15.7734 L383.57,14.7656 L385.223,14.7656 L385.223,20.8242 C385.223,21.3346 385.098,21.7617 384.848,22.1055 C384.598,22.4492 384.252,22.7077 383.811,22.8809 C383.369,23.054 382.862,23.1406 382.289,23.1406 M382.324,19.4297 C382.592,19.4297 382.82,19.3626 383.006,19.2285 C383.192,19.0944 383.335,18.9017 383.436,18.6504 C383.536,18.3991 383.586,18.0977 383.586,17.7461 C383.586,17.3945 383.536,17.0892 383.438,16.8301 C383.339,16.571 383.195,16.3698 383.008,16.2266 C382.82,16.0833 382.592,16.0117 382.324,16.0117 C382.051,16.0117 381.82,16.0853 381.633,16.2324 C381.445,16.3796 381.303,16.5833 381.207,16.8438 C381.111,17.1042 381.063,17.4049 381.063,17.7461 C381.063,18.0924 381.111,18.3913 381.209,18.6426 C381.307,18.8939 381.449,19.0879 381.635,19.2246 C381.821,19.3613 382.051,19.4297 382.324,19.4297 M386.539,20.7656 L386.539,14.7656 L388.152,14.7656 L388.152,15.8125 L388.215,15.8125 C388.324,15.4401 388.508,15.1582 388.766,14.9668 C389.023,14.7754 389.32,14.6797 389.656,14.6797 C389.74,14.6797 389.829,14.6849 389.926,14.6953 C390.022,14.7057 390.107,14.7201 390.18,14.7383 L390.18,16.2148 C390.102,16.1914 389.993,16.1706 389.855,16.1523 C389.717,16.1341 389.591,16.125 389.477,16.125 C389.232,16.125 389.014,16.1777 388.822,16.2832 C388.631,16.3887 388.48,16.5352 388.369,16.7227 C388.258,16.9102 388.203,17.1263 388.203,17.3711 L388.203,20.7656 L386.539,20.7656 M393.477,20.8828 C392.859,20.8828 392.329,20.7572 391.885,20.5059 C391.441,20.2546 391.099,19.8978 390.859,19.4355 C390.62,18.9733 390.5,18.4258 390.5,17.793 C390.5,17.1758 390.62,16.6341 390.859,16.168 C391.099,15.7018 391.437,15.3385 391.873,15.0781 C392.309,14.8177 392.822,14.6875 393.41,14.6875 C393.806,14.6875 394.175,14.7507 394.518,14.877 C394.86,15.0033 395.16,15.1927 395.416,15.4453 C395.673,15.6979 395.872,16.015 396.016,16.3965 C396.159,16.778 396.23,17.224 396.23,17.7344 L396.23,18.1914 L391.164,18.1914 L391.164,17.1602 L394.664,17.1602 C394.664,16.9206 394.612,16.7083 394.508,16.5234 C394.404,16.3385 394.26,16.1934 394.076,16.0879 C393.893,15.9824 393.68,15.9297 393.438,15.9297 C393.185,15.9297 392.962,15.9876 392.768,16.1035 C392.574,16.2194 392.422,16.3743 392.313,16.5684 C392.203,16.7624 392.147,16.9779 392.145,17.2148 L392.145,18.1953 C392.145,18.4922 392.2,18.7487 392.311,18.9648 C392.421,19.181 392.578,19.3477 392.781,19.4648 C392.984,19.582 393.225,19.6406 393.504,19.6406 C393.689,19.6406 393.858,19.6146 394.012,19.5625 C394.165,19.5104 394.297,19.4323 394.406,19.3281 C394.516,19.224 394.599,19.0964 394.656,18.9453 L396.195,19.0469 C396.117,19.4167 395.958,19.7389 395.717,20.0137 C395.476,20.2884 395.166,20.502 394.787,20.6543 C394.408,20.8066 393.971,20.8828 393.477,20.8828 M400.039,20.8828 C399.422,20.8828 398.891,20.7572 398.447,20.5059 C398.003,20.2546 397.661,19.8978 397.422,19.4355 C397.182,18.9733 397.063,18.4258 397.063,17.793 C397.063,17.1758 397.182,16.6341 397.422,16.168 C397.661,15.7018 397.999,15.3385 398.436,15.0781 C398.872,14.8177 399.384,14.6875 399.973,14.6875 C400.368,14.6875 400.738,14.7507 401.08,14.877 C401.423,15.0033 401.722,15.1927 401.979,15.4453 C402.235,15.6979 402.435,16.015 402.578,16.3965 C402.721,16.778 402.793,17.224 402.793,17.7344 L402.793,18.1914 L397.727,18.1914 L397.727,17.1602 L401.227,17.1602 C401.227,16.9206 401.174,16.7083 401.07,16.5234 C400.966,16.3385 400.822,16.1934 400.639,16.0879 C400.455,15.9824 400.242,15.9297 400,15.9297 C399.747,15.9297 399.524,15.9876 399.33,16.1035 C399.136,16.2194 398.984,16.3743 398.875,16.5684 C398.766,16.7624 398.71,16.9779 398.707,17.2148 L398.707,18.1953 C398.707,18.4922 398.762,18.7487 398.873,18.9648 C398.984,19.181 399.141,19.3477 399.344,19.4648 C399.547,19.582 399.788,19.6406 400.066,19.6406 C400.251,19.6406 400.421,19.6146 400.574,19.5625 C400.728,19.5104 400.859,19.4323 400.969,19.3281 C401.078,19.224 401.161,19.0964 401.219,18.9453 L402.758,19.0469 C402.68,19.4167 402.52,19.7389 402.279,20.0137 C402.038,20.2884 401.729,20.502 401.35,20.6543 C400.971,20.8066 400.534,20.8828 400.039,20.8828 M408.859,16.4766 L407.336,16.5703 C407.31,16.4401 407.254,16.3223 407.168,16.2168 C407.082,16.1113 406.969,16.0267 406.83,15.9629 C406.691,15.8991 406.525,15.8672 406.332,15.8672 C406.074,15.8672 405.857,15.9212 405.68,16.0293 C405.503,16.1374 405.414,16.2813 405.414,16.4609 C405.414,16.6042 405.471,16.7253 405.586,16.8242 C405.701,16.9232 405.897,17.0026 406.176,17.0625 L407.262,17.2813 C407.845,17.401 408.28,17.5938 408.566,17.8594 C408.853,18.125 408.996,18.474 408.996,18.9063 C408.996,19.2995 408.881,19.6445 408.65,19.9414 C408.42,20.2383 408.105,20.4694 407.705,20.6348 C407.305,20.8001 406.845,20.8828 406.324,20.8828 C405.53,20.8828 404.898,20.7168 404.428,20.3848 C403.958,20.0527 403.682,19.6003 403.602,19.0273 L405.238,18.9414 C405.288,19.1836 405.408,19.3678 405.598,19.4941 C405.788,19.6204 406.031,19.6836 406.328,19.6836 C406.62,19.6836 406.855,19.627 407.033,19.5137 C407.212,19.4004 407.302,19.2539 407.305,19.0742 C407.302,18.9232 407.238,18.7988 407.113,18.7012 C406.988,18.6035 406.796,18.5286 406.535,18.4766 L405.496,18.2695 C404.91,18.1523 404.475,17.9492 404.189,17.6602 C403.904,17.3711 403.762,17.0026 403.762,16.5547 C403.762,16.1693 403.867,15.8372 404.076,15.5586 C404.286,15.2799 404.581,15.0651 404.963,14.9141 C405.344,14.763 405.792,14.6875 406.305,14.6875 C407.063,14.6875 407.66,14.8477 408.096,15.168 C408.532,15.4883 408.786,15.9245 408.859,16.4766 "/>
</g>

<g fill="#ffffff" fill-opacity="1" stroke="none" transform="matrix(0.0285,0,0,0.0285,11.2928,9.44754)"
font-family="Inter" font-size="11" font-weight="700" font-style="normal" 
>
<path vector-effect="none" fill-rule="nonzero" d="M410.778,59.991 C376.729,59.991 346.629,75.6235 326.182,99.684 C216.768,129.689 131.433,215.271 101.927,324.891 C79.5232,345.494 65.3275,374.762 65.54,407.6 C65.7463,439.573 79.3407,468.172 100.975,488.421 C130.228,601.34 218.744,689.335 331.859,718.096 C331.956,718.125 331.989,718.313 332.085,718.338 C352.242,738.376 380.064,750.708 410.778,750.708 C441.492,750.708 469.314,738.376 489.47,718.338 C489.549,718.262 489.618,718.17 489.696,718.096 C604.323,688.948 693.738,598.994 721.758,483.921 C742.939,463.42 756.216,434.907 756.015,403.1 C755.801,370.079 741.086,340.899 718.209,320.633 C687.622,213.077 603.338,129.291 495.373,99.684 C474.926,75.6235 444.827,59.991 410.778,59.991 M410.778,91.8938 C455.052,91.8938 490.89,127.731 490.89,172.006 C490.89,216.28 455.052,252.102 410.778,252.102 C366.503,252.102 330.666,216.28 330.666,172.006 C330.666,127.731 366.503,91.8938 410.778,91.8938 M177.071,325.601 C221.346,325.601 257.183,361.438 257.183,405.713 C257.183,449.987 221.346,485.808 177.071,485.808 C132.796,485.808 96.7332,449.987 96.7332,405.713 C96.7332,361.438 132.796,325.601 177.071,325.601 M644.485,325.601 C688.763,325.601 724.822,361.438 724.822,405.713 C724.822,449.987 688.763,485.808 644.485,485.808 C600.21,485.808 564.373,449.987 564.373,405.713 C564.373,361.438 600.21,325.601 644.485,325.601 M396.601,335.762 L424.955,335.762 C431.754,335.762 437.245,342.538 437.245,350.891 L437.245,381.6 L467.971,381.6 C476.323,381.6 483.083,387.091 483.083,393.89 L483.083,422.245 C483.083,429.044 476.323,434.535 467.971,434.535 L437.245,434.535 L437.245,465.26 C437.245,473.612 431.754,480.373 424.955,480.373 L396.601,480.373 C389.801,480.373 384.31,473.613 384.31,465.26 L384.31,434.535 L353.585,434.535 C345.233,434.535 338.472,429.044 338.472,422.245 L338.472,393.89 C338.472,387.091 345.232,381.6 353.585,381.6 L384.31,381.6 L384.31,350.891 C384.31,342.539 389.801,335.762 396.601,335.762 M410.778,559.307 C455.052,559.307 490.89,595.371 490.89,639.645 C490.89,683.918 455.052,719.757 410.778,719.757 C366.503,719.757 330.666,683.918 330.666,639.645 C330.666,595.371 366.503,559.307 410.778,559.307 "/>
</g>

<g fill="none" stroke="#000000" stroke-opacity="1" stroke-width="22.7975" stroke-linecap="round" stroke-linejoin="round" transform="matrix(0.0285,0,0,0.0285,11.2928,9.44754)"
font-family="Inter" font-size="11" font-weight="700" font-style="normal" 
>
<path vector-effect="none" fill-rule="nonzero" d="M410.778,59.991 C376.729,59.991 346.629,75.6235 326.182,99.684 C216.768,129.689 131.433,215.271 101.927,324.891 C79.5232,345.494 65.3275,374.762 65.54,407.6 C65.7463,439.573 79.3407,468.172 100.975,488.421 C130.228,601.34 218.744,689.335 331.859,718.096 C331.956,718.125 331.989,718.313 332.085,718.338 C352.242,738.376 380.064,750.708 410.778,750.708 C441.492,750.708 469.314,738.376 489.47,718.338 C489.549,718.262 489.618,718.17 489.696,718.096 C604.323,688.948 693.738,598.994 721.758,483.921 C742.939,463.42 756.216,434.907 756.015,403.1 C755.801,370.079 741.086,340.899 718.209,320.633 C687.622,213.077 603.338,129.291 495.373,99.684 C474.926,75.6235 444.827,59.991 410.778,59.991 M410.778,91.8938 C455.052,91.8938 490.89,127.731 490.89,172.006 C490.89,216.28 455.052,252.102 410.778,252.102 C366.503,252.102 330.666,216.28 330.666,172.006 C330.666,127.731 366.503,91.8938 410.778,91.8938 M177.071,325.601 C221.346,325.601 257.183,361.438 257.183,405.713 C257.183,449.987 221.346,485.808 177.071,485.808 C132.796,485.808 96.7332,449.987 96.7332,405.713 C96.7332,361.438 132.796,325.601 177.071,325.601 M644.485,325.601 C688.763,325.601 724.822,361.438 724.822,405.713 C724.822,449.987 688.763,485.808 644.485,485.808 C600.21,485.808 564.373,449.987 564.373,405.713 C564.373,361.438 600.21,325.601 644.485,325.601 M396.601,335.762 L424.955,335.762 C431.754,335.762 437.245,342.538 437.245,350.891 L437.245,381.6 L467.971,381.6 C476.323,381.6 483.083,387.091 483.083,393.89 L483.083,422.245 C483.083,429.044 476.323,434.535 467.971,434.535 L437.245,434.535 L437.245,465.26 C437.245,473.612 431.754,480.373 424.955,480.373 L396.601,480.373 C389.801,480.373 384.31,473.613 384.31,465.26 L384.31,434.535 L353.585,434.535 C345.233,434.535 338.472,429.044 338.472,422.245 L338.472,393.89 C338.472,387.091 345.232,381.6 353.585,381.6 L384.31,381.6 L384.31,350.891 C384.31,342.539 389.801,335.762 396.601,335.762 M410.778,559.307 C455.052,559.307 490.89,595.371 490.89,639.645 C490.89,683.918 455.052,719.757 410.778,719.757 C366.503,719.757 330.666,683.918 330.666,639.645 C330.666,595.371 366.503,559.307 410.778,559.307 "/>
</g>

<g fill="#000000" fill-opacity="1" stroke="none" transform="matrix(0.0285,0,0,0.0285,11.2928,9.44754)"
font-family="Inter" font-size="11" font-weight="700" font-style="normal" 
>
<path vector-effect="none" fill-rule="evenodd" d="M394.961,355.661 C394.961,347.613 401.485,341.088 409.533,341.088 C417.582,341.088 424.106,347.613 424.106,355.661 L424.106,457.48 C424.106,465.528 417.582,472.053 409.533,472.053 C401.485,472.053 394.961,465.528 394.961,457.48 L394.961,355.661"/>
</g>

<g fill="none" stroke="#000000" stroke-opacity="1" stroke-width="20" stroke-linecap="round" stroke-linejoin="round" transform="matrix(0.0285,0,0,0.0285,11.2928,9.44754)"
font-family="Inter" font-size="11" font-weight="700" font-style="normal" 
>
<path vector-effect="none" fill-rule="evenodd" d="M394.961,355.661 C394.961,347.613 401.485,341.088 409.533,341.088 C417.582,341.088 424.106,347.613 424.106,355.661 L424.106,457.48 C424.106,465.528 417.582,472.053 409.533,472.053 C401.485,472.053 394.961,465.528 394.961,457.48 L394.961,355.661"/>
</g>

<g fill="#000000" fill-opacity="1" stroke="none" transform="matrix(0,0.0285,-0.0285,0,11.2928,9.44754)"
font-family="Inter" font-size="11" font-weight="700" font-style="normal" 
>
<path vector-effect="none" fill-rule="evenodd" d="M394.152,-461.016 C394.152,-469.064 400.676,-475.588 408.724,-475.588 C416.773,-475.588 423.297,-469.064 423.297,-461.016 L423.297,-359.196 C423.297,-351.148 416.773,-344.624 408.724,-344.624 C400.676,-344.624 394.152,-351.148 394.152,-359.196 L394.152,-461.016"/>
</g>

<g fill="none" stroke="#000000" stroke-opacity="1" stroke-width="20" stroke-linecap="round" stroke-linejoin="round" transform="matrix(0,0.0285,-0.0285,0,11.2928,9.44754)"
font-family="Inter" font-size="11" font-weight="700" font-style="normal" 
>
<path vector-effect="none" fill-rule="evenodd" d="M394.152,-461.016 C394.152,-469.064 400.676,-475.588 408.724,-475.588 C416.773,-475.588 423.297,-469.064 423.297,-461.016 L423.297,-359.196 C423.297,-351.148 416.773,-344.624 408.724,-344.624 C400.676,-344.624 394.152,-351.148 394.152,-359.196 L394.152,-461.016"/>
</g>

<g fill="#ffffff" fill-opacity="1" stroke="none" transform="matrix(1,0,0,1,0,0)"
font-family="Inter" font-size="11" font-weight="700" font-style="normal" 
>
</g>

<g fill="#ffffff" fill-opacity="1" stroke="#0070ba" stroke-opacity="1" stroke-width="1" stroke-linecap="square" stroke-linejoin="bevel" transform="matrix(1,0,0,1,0,0)"
font-family="Inter" font-size="11" font-weight="700" font-style="normal" 
>
<polyline fill="none" vector-effect="none" points="45,11 45,31 " />
</g>

<g fill="#ffffff" fill-opacity="1" stroke="#0070ba" stroke-opacity="1" stroke-width="1" stroke-linecap="square" stroke-linejoin="bevel" transform="matrix(1,0,0,1,0,0)"
font-family="Inter" font-size="11" font-weight="700" font-style="normal" 
>
</g>

<g fill="#ffffff" fill-opacity="1" stroke="#0070ba" stroke-opacity="1" stroke-width="1" stroke-linecap="square" stroke-linejoin="bevel" transform="matrix(1,0,0,1,0,0)"
font-family="Inter" font-size="11" font-weight="700" font-style="normal" 
>
</g>

<g fill="#ffffff" fill-opacity="1" stroke="#0070ba" stroke-opacity="1" stroke-width="1" stroke-linecap="square" stroke-linejoin="bevel" transform="matrix(1,0,0,1,0,0)"
font-family="Inter" font-size="11" font-weight="700" font-style="normal" 
>
</g>

<g fill="#ffffff" fill-opacity="1" stroke="#0070ba" stroke-opacity="1" stroke-width="1" stroke-linecap="square" stroke-linejoin="bevel" transform="matrix(1,0,0,1,0,0)"
font-family="Inter" font-size="11" font-weight="700" font-style="normal" 
>
</g>

<g fill="#ffffff" fill-opacity="1" stroke="#0070ba" stroke-opacity="1" stroke-width="1" stroke-linecap="square" stroke-linejoin="bevel" transform="matrix(1,0,0,1,0,0)"
font-family="Inter" font-size="11" font-weight="700" font-style="normal" 
>
</g>

<g fill="#0070ba" fill-opacity="1" stroke="#0070ba" stroke-opacity="1" stroke-width="1.2" stroke-linecap="square" stroke-linejoin="bevel" transform="matrix(1,0,0,1,135,6)"
font-family="Inter" font-size="11" font-weight="700" font-style="normal" 
>
<path vector-effect="none" fill-rule="evenodd" d="M0.5,12 C0.5,5.64873 5.87258,0.5 12.5,0.5 L27.5,0.5 C34.1274,0.5 39.5,5.64873 39.5,12 C39.5,18.3513 34.1274,23.5 27.5,23.5 L12.5,23.5 C5.87258,23.5 0.5,18.3513 0.5,12 "/>
</g>

<g fill="#ffffff" fill-opacity="1" stroke="none" transform="matrix(1,0,0,1,135,6)"
font-family="Inter" font-size="11" font-weight="700" font-style="normal" 
>
<path vector-effect="none" fill-rule="nonzero" d="M11.8242,16 L10.0117,16 L12.7734,8 L14.9531,8 L17.7109,16 L15.8984,16 L13.8945,9.82813 L13.832,9.82813 L11.8242,16 M11.7109,12.8555 L15.9922,12.8555 L15.9922,14.1758 L11.7109,14.1758 L11.7109,12.8555"/>
</g>

<g fill="#ffffff" fill-opacity="1" stroke="none" transform="matrix(0.03125,0,0,0.03125,161,14)"
font-family="Inter" font-size="11" font-weight="700" font-style="normal" 
>
<path vector-effect="none" fill-rule="nonzero" d="M111.326,191.938 C120.545,201.158 135.517,201.158 144.737,191.938 L239.144,97.5313 C245.929,90.7458 247.921,80.6413 244.233,71.7907 C240.545,62.9401 231.989,57.1871 222.401,57.1871 L33.5875,57.2608 C24.0731,57.2608 15.4437,63.0137 11.7559,71.8644 C8.06815,80.715 10.1333,90.8195 16.845,97.605 L111.252,192.012 L111.326,191.938"/>
</g>

<g fill="none" stroke="#000000" stroke-opacity="1" stroke-width="13.7195" stroke-linecap="butt" stroke-linejoin="miter" stroke-miterlimit="4" transform="matrix(0.03125,0,0,0.03125,161,14)"
font-family="Inter" font-size="11" font-weight="700" font-style="normal" 
>
<path vector-effect="none" fill-rule="nonzero" d="M111.326,191.938 C120.545,201.158 135.517,201.158 144.737,191.938 L239.144,97.5313 C245.929,90.7458 247.921,80.6413 244.233,71.7907 C240.545,62.9401 231.989,57.1871 222.401,57.1871 L33.5875,57.2608 C24.0731,57.2608 15.4437,63.0137 11.7559,71.8644 C8.06815,80.715 10.1333,90.8195 16.845,97.605 L111.252,192.012 L111.326,191.938"/>
</g>

<g fill="#ffffff" fill-opacity="1" stroke="none" transform="matrix(1,0,0,1,135,6)"
font-family="Inter" font-size="11" font-weight="700" font-style="normal" 
>
</g>

<g fill="#ffffff" fill-opacity="1" stroke="#0070ba" stroke-opacity="1" stroke-width="1" stroke-linecap="square" stroke-linejoin="bevel" transform="matrix(1,0,0,1,0,0)"
font-family="Inter" font-size="11" font-weight="700" font-style="normal" 
>
</g>

<g fill="#ffffff" fill-opacity="1" stroke="#0064a6" stroke-opacity="1" stroke-width="1.2" stroke-linecap="square" stroke-linejoin="bevel" transform="matrix(1,0,0,1,260,7)"
font-family="Inter" font-size="11" font-weight="700" font-style="normal" 
>
<path vector-effect="none" fill-rule="evenodd" d="M1,11 C1,5.47715 5.92487,1 12,1 L14.4,1 C20.4751,1 25.4,5.47715 25.4,11 C25.4,16.5228 20.4751,21 14.4,21 L12,21 C5.92487,21 1,16.5228 1,11 "/>
</g>

<g fill="#000000" fill-opacity="1" stroke="none" transform="matrix(1,0,0,1,260,7)"
font-family="Inter" font-size="10" font-weight="700" font-style="normal" 
>
<path vector-effect="none" fill-rule="nonzero" d="M12.9411,14.5817 C12.3303,14.5793 11.8053,14.429 11.3661,14.1307 C10.927,13.8324 10.5896,13.4003 10.354,12.8345 C10.1185,12.2687 10.0019,11.5881 10.0043,10.7926 C10.0043,9.99953 10.122,9.32363 10.3576,8.76491 C10.5932,8.2062 10.9305,7.78066 11.3697,7.48828 C11.8088,7.1959 12.3326,7.04972 12.9411,7.04972 C13.5495,7.04972 14.0733,7.1965 14.5124,7.49006 C14.9516,7.78362 15.2895,8.20916 15.5263,8.76669 C15.763,9.32422 15.8802,9.99953 15.8778,10.7926 C15.8778,11.5904 15.7601,12.2723 15.5245,12.8381 C15.2889,13.4039 14.9522,13.8359 14.5142,14.1342 C14.0762,14.4325 13.5518,14.5817 12.9411,14.5817 M12.9411,13.3068 C13.3577,13.3068 13.6903,13.0973 13.9389,12.6783 C14.1875,12.2592 14.3106,11.6307 14.3082,10.7926 C14.3082,10.241 14.252,9.78172 14.1396,9.41477 C14.0271,9.04782 13.8685,8.77202 13.6637,8.58736 C13.4589,8.4027 13.218,8.31037 12.9411,8.31037 C12.5268,8.31037 12.1953,8.51752 11.9467,8.93182 C11.6982,9.34612 11.5727,9.96638 11.5703,10.7926 C11.5703,11.3513 11.6265,11.8171 11.739,12.19 C11.8514,12.5629 12.0107,12.8422 12.2166,13.0281 C12.4226,13.2139 12.6641,13.3068 12.9411,13.3068 "/>
</g>

<g fill="#ffffff" fill-opacity="1" stroke="#0070ba" stroke-opacity="1" stroke-width="1" stroke-linecap="square" stroke-linejoin="bevel" transform="matrix(1,0,0,1,0,0)"
font-family="Inter" font-size="11" font-weight="700" font-style="normal" 
>
</g>

<g fill="#ffffff" fill-opacity="1" stroke="#0064a6" stroke-opacity="1" stroke-width="1.2" stroke-linecap="square" stroke-linejoin="bevel" transform="matrix(1,0,0,1,333.4,7)"
font-family="Inter" font-size="11" font-weight="700" font-style="normal" 
>
<path vector-effect="none" fill-rule="evenodd" d="M1,11 C1,5.47715 5.92487,1 12,1 L14.4,1 C20.4751,1 25.4,5.47715 25.4,11 C25.4,16.5228 20.4751,21 14.4,21 L12,21 C5.92487,21 1,16.5228 1,11 "/>
</g>

<g fill="#000000" fill-opacity="1" stroke="none" transform="matrix(1,0,0,1,333.4,7)"
font-family="Inter" font-size="10" font-weight="700" font-style="normal" 
>
<path vector-effect="none" fill-rule="nonzero" d="M12.9411,14.5817 C12.3303,14.5793 11.8053,14.429 11.3661,14.1307 C10.927,13.8324 10.5896,13.4003 10.354,12.8345 C10.1185,12.2687 10.0019,11.5881 10.0043,10.7926 C10.0043,9.99953 10.122,9.32363 10.3576,8.76491 C10.5932,8.2062 10.9305,7.78066 11.3697,7.48828 C11.8088,7.1959 12.3326,7.04972 12.9411,7.04972 C13.5495,7.04972 14.0733,7.1965 14.5124,7.49006 C14.9516,7.78362 15.2895,8.20916 15.5263,8.76669 C15.763,9.32422 15.8802,9.99953 15.8778,10.7926 C15.8778,11.5904 15.7601,12.2723 15.5245,12.8381 C15.2889,13.4039 14.9522,13.8359 14.5142,14.1342 C14.0762,14.4325 13.5518,14.5817 12.9411,14.5817 M12.9411,13.3068 C13.3577,13.3068 13.6903,13.0973 13.9389,12.6783 C14.1875,12.2592 14.3106,11.6307 14.3082,10.7926 C14.3082,10.241 14.252,9.78172 14.1396,9.41477 C14.0271,9.04782 13.8685,8.77202 13.6637,8.58736 C13.4589,8.4027 13.218,8.31037 12.9411,8.31037 C12.5268,8.31037 12.1953,8.51752 11.9467,8.93182 C11.6982,9.34612 11.5727,9.96638 11.5703,10.7926 C11.5703,11.3513 11.6265,11.8171 11.739,12.19 C11.8514,12.5629 12.0107,12.8422 12.2166,13.0281 C12.4226,13.2139 12.6641,13.3068 12.9411,13.3068 "/>
</g>

<g fill="#ffffff" fill-opacity="1" stroke="#0070ba" stroke-opacity="1" stroke-width="1" stroke-linecap="square" stroke-linejoin="bevel" transform="matrix(1,0,0,1,0,0)"
font-family="Inter" font-size="11" font-weight="700" font-style="normal" 
>
</g>

<g fill="#0090f5" fill-opacity="1" stroke="#0070ba" stroke-opacity="1" stroke-width="1.2" stroke-linecap="square" stroke-linejoin="bevel" transform="matrix(1,0,0,1,56,6)"
font-family="Inter" font-size="11" font-weight="700" font-style="normal" 
>
<path vector-effect="none" fill-rule="evenodd" d="M0.5,3.5 C0.5,1.84315 1.84315,0.5 3.5,0.5 L71.5,0.5 C73.1569,0.5 74.5,1.84315 74.5,3.5 L74.5,20.5 C74.5,22.1569 73.1569,23.5 71.5,23.5 L3.5,23.5 C1.84315,23.5 0.5,22.1569 0.5,20.5 L0.5,3.5"/>
</g>

<g fill="#ffffff" fill-opacity="1" stroke="none" transform="matrix(1,0,0,1,56,6)"
font-family="Inter" font-size="11" font-weight="700" font-style="normal" 
>
<path vector-effect="none" fill-rule="nonzero" d="M10,9.39453 L10,8 L16.5703,8 L16.5703,9.39453 L14.1211,9.39453 L14.1211,16 L12.4492,16 L12.4492,9.39453 L10,9.39453 M17.6484,16 L17.6484,8 L19.3398,8 L19.3398,11.3008 L22.7734,11.3008 L22.7734,8 L24.4609,8 L24.4609,16 L22.7734,16 L22.7734,12.6953 L19.3398,12.6953 L19.3398,16 L17.6484,16 M32.543,8 L32.543,16 L31.082,16 L27.6016,10.9648 L27.543,10.9648 L27.543,16 L25.8516,16 L25.8516,8 L27.3359,8 L30.7891,13.0313 L30.8594,13.0313 L30.8594,8 L32.543,8 M33.9297,16 L33.9297,8 L35.6211,8 L35.6211,11.3008 L39.0547,11.3008 L39.0547,8 L40.7422,8 L40.7422,16 L39.0547,16 L39.0547,12.6953 L35.6211,12.6953 L35.6211,16 L33.9297,16 M42.1328,16 L42.1328,8 L45.3359,8 C45.9245,8 46.4154,8.08724 46.8086,8.26172 C47.2018,8.4362 47.4974,8.67773 47.6953,8.98633 C47.8932,9.29492 47.9922,9.64974 47.9922,10.0508 C47.9922,10.3633 47.9297,10.6374 47.8047,10.873 C47.6797,11.1087 47.5085,11.3014 47.291,11.4512 C47.0736,11.6009 46.8255,11.707 46.5469,11.7695 L46.5469,11.8477 C46.8516,11.8607 47.1374,11.9466 47.4043,12.1055 C47.6712,12.2643 47.888,12.4863 48.0547,12.7715 C48.2214,13.0566 48.3047,13.3958 48.3047,13.7891 C48.3047,14.2135 48.1999,14.5918 47.9902,14.9238 C47.7806,15.2559 47.4714,15.5182 47.0625,15.7109 C46.6536,15.9036 46.1497,16 45.5508,16 L42.1328,16 M43.8242,14.6172 L45.2031,14.6172 C45.6745,14.6172 46.0182,14.5267 46.2344,14.3457 C46.4505,14.1647 46.5586,13.9232 46.5586,13.6211 C46.5586,13.3997 46.5052,13.2044 46.3984,13.0352 C46.2917,12.8659 46.14,12.7331 45.9434,12.6367 C45.7467,12.5404 45.513,12.4922 45.2422,12.4922 L43.8242,12.4922 L43.8242,14.6172 M43.8242,11.3477 L45.0781,11.3477 C45.3099,11.3477 45.5163,11.3066 45.6973,11.2246 C45.8783,11.1426 46.0215,11.026 46.127,10.875 C46.2324,10.724 46.2852,10.543 46.2852,10.332 C46.2852,10.043 46.1829,9.8099 45.9785,9.63281 C45.7741,9.45573 45.4844,9.36719 45.1094,9.36719 L43.8242,9.36719 L43.8242,11.3477 M52.832,8 L52.832,16 L51.1406,16 L51.1406,9.60547 L51.0938,9.60547 L49.2617,10.7539 L49.2617,9.25391 L51.2422,8 L52.832,8"/>
</g>

<g fill="#ffffff" fill-opacity="1" stroke="none" transform="matrix(0.03125,0,0,0.03125,117,14)"
font-family="Inter" font-size="11" font-weight="700" font-style="normal" 
>
<path vector-effect="none" fill-rule="nonzero" d="M111.326,191.938 C120.545,201.158 135.517,201.158 144.737,191.938 L239.144,97.5313 C245.929,90.7458 247.921,80.6413 244.233,71.7907 C240.545,62.9401 231.989,57.1871 222.401,57.1871 L33.5875,57.2608 C24.0731,57.2608 15.4437,63.0137 11.7559,71.8644 C8.06815,80.715 10.1333,90.8195 16.845,97.605 L111.252,192.012 L111.326,191.938"/>
</g>

<g fill="none" stroke="#000000" stroke-opacity="1" stroke-width="13.7195" stroke-linecap="butt" stroke-linejoin="miter" stroke-miterlimit="4" transform="matrix(0.03125,0,0,0.03125,117,14)"
font-family="Inter" font-size="11" font-weight="700" font-style="normal" 
>
<path vector-effect="none" fill-rule="nonzero" d="M111.326,191.938 C120.545,201.158 135.517,201.158 144.737,191.938 L239.144,97.5313 C245.929,90.7458 247.921,80.6413 244.233,71.7907 C240.545,62.9401 231.989,57.1871 222.401,57.1871 L33.5875,57.2608 C24.0731,57.2608 15.4437,63.0137 11.7559,71.8644 C8.06815,80.715 10.1333,90.8195 16.845,97.605 L111.252,192.012 L111.326,191.938"/>
</g>

<g fill="#ffffff" fill-opacity="1" stroke="none" transform="matrix(1,0,0,1,56,6)"
font-family="Inter" font-size="11" font-weight="700" font-style="normal" 
>
</g>

<g fill="#ffffff" fill-opacity="1" stroke="#0070ba" stroke-opacity="1" stroke-width="1" stroke-linecap="square" stroke-linejoin="bevel" transform="matrix(1,0,0,1,0,0)"
font-family="Inter" font-size="11" font-weight="700" font-style="normal" 
>
</g>

<g fill="none" stroke="#000000" stroke-opacity="1" stroke-width="1" stroke-linecap="square" stroke-linejoin="bevel" transform="matrix(1,0,0,1,0,0)"
font-family=".AppleSystemUIFont" font-size="13" font-weight="400" font-style="normal" 
>
</g>
</g>
</svg>
