<?xml version="1.0" encoding="UTF-8" standalone="no"?>
<svg width="120.65mm" height="21.1667mm"
 viewBox="0 0 342 60"
 xmlns="http://www.w3.org/2000/svg" xmlns:xlink="http://www.w3.org/1999/xlink" version="1.2" baseProfile="tiny">
<title>Abstract block</title>
<desc>block_dashboard_controller_steering_wheel_event</desc>
<defs>
</defs>
<g fill="none" stroke="black" stroke-width="1" fill-rule="evenodd" stroke-linecap="square" stroke-linejoin="bevel" >

<g fill="none" stroke="#000000" stroke-opacity="1" stroke-width="1" stroke-linecap="square" stroke-linejoin="bevel" transform="matrix(1,0,0,1,0,0)"
font-family=".AppleSystemUIFont" font-size="13" font-weight="400" font-style="normal" 
>
</g>

<g fill="none" stroke="#000000" stroke-opacity="1" stroke-width="1" stroke-linecap="square" stroke-linejoin="bevel" transform="matrix(1,0,0,1,0,0)"
font-family=".AppleSystemUIFont" font-size="13" font-weight="400" font-style="normal" 
>
</g>

<g fill="#009f94" fill-opacity="1" stroke="#00645c" stroke-opacity="1" stroke-width="1.2" stroke-linecap="square" stroke-linejoin="bevel" transform="matrix(1,0,0,1,0,0)"
font-family=".AppleSystemUIFont" font-size="13" font-weight="400" font-style="normal" 
>
<path vector-effect="none" fill-rule="evenodd" d="M0.5,20.5 L1,18.6516 L1,18 L1.77836,17.1565 L2.58892,16.3401 L3.43062,15.551 L4.30242,14.7891 L5.20325,14.0544 L6.13206,13.3469 L7.08779,12.6667 L8.06939,12.0136 L9.0758,11.3878 L10.106,10.7891 L11.1588,10.2177 L12.2333,9.67347 L13.3284,9.15646 L14.4431,8.66667 L15.5762,8.20408 L16.7267,7.76871 L17.8936,7.36054 L19.0758,6.97959 L20.2723,6.62585 L21.4819,6.29932 L22.7037,6 L23.9366,5.72789 L25.1795,5.48299 L26.4314,5.26531 L27.6912,5.07483 L28.9578,4.91156 L30.2303,4.77551 L31.5075,4.66667 L32.7885,4.58503 L34.072,4.53061 L35.3572,4.5034 L36.6428,4.5034 L37.928,4.53061 L39.2115,4.58503 L40.4925,4.66667 L41.7697,4.77551 L43.0422,4.91156 L44.3088,5.07483 L45.5686,5.26531 L46.8205,5.48299 L48.0634,5.72789 L49.2963,6 L50.5181,6.29932 L51.7277,6.62585 L52.9242,6.97959 L54.1064,7.36054 L55.2733,7.76871 L56.4238,8.20408 L57.5569,8.66667 L58.6716,9.15646 L59.7667,9.67347 L60.8412,10.2177 L61.894,10.7891 L62.9242,11.3878 L63.9306,12.0136 L64.9122,12.6667 L65.8679,13.3469 L66.7968,14.0544 L67.6976,14.7891 L68.5694,15.551 L69.4111,16.3401 L69.5698,16.5 L337.5,16.5 L339.519,17.0461 L340.954,18.4811 L341.5,20.5 L341.5,47.5 L340.954,49.5189 L339.519,50.9539 L337.5,51.5 L34.375,51.5 L33.584,51.9766 L32.8281,52.6875 L32.002,53.6797 L31,55 L30.2441,55.6602 L29.4531,56.1563 L28.5918,56.5117 L27.625,56.75 L26.5176,56.8945 L25.2344,56.9688 L23.7402,56.9961 L22,57 L20.2598,56.9961 L18.7656,56.9688 L17.4824,56.8945 L16.375,56.75 L15.4082,56.5117 L14.5469,56.1563 L13.7559,55.6602 L13,55 L11.998,53.6797 L11.1719,52.6875 L10.416,51.9766 L9.625,51.5 L4.5,51.5 L2.48112,50.9539 L1.04612,49.5189 L0.5,47.5 L0.5,20.5"/>
</g>

<g fill="#ffffff" fill-opacity="1" stroke="none" transform="matrix(1,0,0,1,0,0)"
font-family="Inter" font-size="11" font-weight="700" font-style="normal" 
>
<path vector-effect="none" fill-rule="nonzero" d="M53.4102,37 L51.7773,31 L53.4609,31 L54.3906,35.0313 L54.4453,35.0313 L55.4141,31 L57.0664,31 L58.0508,35.0078 L58.1016,35.0078 L59.0156,31 L60.6953,31 L59.0664,37 L57.3047,37 L56.2734,33.2266 L56.1992,33.2266 L55.168,37 L53.4102,37 M63.2344,33.5313 L63.2344,37 L61.5703,37 L61.5703,29 L63.1875,29 L63.1875,32.0586 L63.2578,32.0586 C63.3932,31.7044 63.612,31.4264 63.9141,31.2246 C64.2161,31.0228 64.5951,30.9219 65.0508,30.9219 C65.4674,30.9219 65.8314,31.0124 66.1426,31.1934 C66.4538,31.3743 66.696,31.6335 66.8691,31.9707 C67.0423,32.3079 67.1276,32.7109 67.125,33.1797 L67.125,37 L65.4609,37 L65.4609,33.4766 C65.4635,33.1068 65.3704,32.819 65.1816,32.6133 C64.9928,32.4076 64.7292,32.3047 64.3906,32.3047 C64.1641,32.3047 63.9642,32.3529 63.791,32.4492 C63.6178,32.5456 63.4824,32.6855 63.3848,32.8691 C63.2871,33.0527 63.237,33.2734 63.2344,33.5313 M71.1641,37.1172 C70.5469,37.1172 70.0163,36.9915 69.5723,36.7402 C69.1283,36.4889 68.7865,36.1322 68.5469,35.6699 C68.3073,35.2077 68.1875,34.6602 68.1875,34.0273 C68.1875,33.4102 68.3073,32.8685 68.5469,32.4023 C68.7865,31.9362 69.1243,31.5729 69.5605,31.3125 C69.9967,31.0521 70.5091,30.9219 71.0977,30.9219 C71.4935,30.9219 71.8626,30.985 72.2051,31.1113 C72.5475,31.2376 72.847,31.4271 73.1035,31.6797 C73.36,31.9323 73.5599,32.2493 73.7031,32.6309 C73.8464,33.0124 73.918,33.4583 73.918,33.9688 L73.918,34.4258 L68.8516,34.4258 L68.8516,33.3945 L72.3516,33.3945 C72.3516,33.1549 72.2995,32.9427 72.1953,32.7578 C72.0911,32.5729 71.9473,32.4277 71.7637,32.3223 C71.5801,32.2168 71.3672,32.1641 71.125,32.1641 C70.8724,32.1641 70.6491,32.222 70.4551,32.3379 C70.2611,32.4538 70.1094,32.6087 70,32.8027 C69.8906,32.9967 69.8346,33.2122 69.832,33.4492 L69.832,34.4297 C69.832,34.7266 69.8874,34.9831 69.998,35.1992 C70.1087,35.4154 70.2656,35.582 70.4688,35.6992 C70.6719,35.8164 70.9128,35.875 71.1914,35.875 C71.3763,35.875 71.5456,35.849 71.6992,35.7969 C71.8529,35.7448 71.9844,35.6667 72.0938,35.5625 C72.2031,35.4583 72.2865,35.3307 72.3438,35.1797 L73.8828,35.2813 C73.8047,35.651 73.6452,35.9733 73.4043,36.248 C73.1634,36.5228 72.8535,36.7363 72.4746,36.8887 C72.0957,37.041 71.6589,37.1172 71.1641,37.1172 M76.6563,33.5313 L76.6563,37 L74.9922,37 L74.9922,31 L76.5781,31 L76.5781,32.0586 L76.6484,32.0586 C76.7813,31.7096 77.0039,31.4329 77.3164,31.2285 C77.6289,31.0241 78.0078,30.9219 78.4531,30.9219 C78.8698,30.9219 79.2331,31.013 79.543,31.1953 C79.8529,31.3776 80.0938,31.6374 80.2656,31.9746 C80.4375,32.3118 80.5234,32.7135 80.5234,33.1797 L80.5234,37 L78.8594,37 L78.8594,33.4766 C78.862,33.1094 78.7682,32.8223 78.5781,32.6152 C78.388,32.4082 78.1263,32.3047 77.793,32.3047 C77.569,32.3047 77.3717,32.3529 77.2012,32.4492 C77.0306,32.5456 76.8978,32.6855 76.8027,32.8691 C76.7077,33.0527 76.6589,33.2734 76.6563,33.5313 M89.3594,32.7109 L87.8359,32.8047 C87.8099,32.6745 87.7539,32.5566 87.668,32.4512 C87.582,32.3457 87.4694,32.2611 87.3301,32.1973 C87.1908,32.1335 87.0247,32.1016 86.832,32.1016 C86.5742,32.1016 86.3568,32.1556 86.1797,32.2637 C86.0026,32.3717 85.9141,32.5156 85.9141,32.6953 C85.9141,32.8385 85.9714,32.9596 86.0859,33.0586 C86.2005,33.1576 86.3971,33.237 86.6758,33.2969 L87.7617,33.5156 C88.3451,33.6354 88.7799,33.8281 89.0664,34.0938 C89.3529,34.3594 89.4961,34.7083 89.4961,35.1406 C89.4961,35.5339 89.3809,35.8789 89.1504,36.1758 C88.9199,36.4727 88.6048,36.7038 88.2051,36.8691 C87.8053,37.0345 87.3451,37.1172 86.8242,37.1172 C86.0299,37.1172 85.3978,36.9512 84.9277,36.6191 C84.4577,36.2871 84.1823,35.8346 84.1016,35.2617 L85.7383,35.1758 C85.7878,35.418 85.9076,35.6022 86.0977,35.7285 C86.2878,35.8548 86.5313,35.918 86.8281,35.918 C87.1198,35.918 87.3548,35.8613 87.5332,35.748 C87.7116,35.6348 87.8021,35.4883 87.8047,35.3086 C87.8021,35.1576 87.7383,35.0332 87.6133,34.9355 C87.4883,34.8379 87.2956,34.763 87.0352,34.7109 L85.9961,34.5039 C85.4102,34.3867 84.9746,34.1836 84.6895,33.8945 C84.4043,33.6055 84.2617,33.237 84.2617,32.7891 C84.2617,32.4036 84.3665,32.0716 84.5762,31.793 C84.7858,31.5143 85.0814,31.2995 85.4629,31.1484 C85.8444,30.9974 86.2917,30.9219 86.8047,30.9219 C87.5625,30.9219 88.1595,31.082 88.5957,31.4023 C89.0319,31.7227 89.2865,32.1589 89.3594,32.7109 M93.7305,31 L93.7305,32.25 L90.1172,32.25 L90.1172,31 L93.7305,31 M90.9375,29.5625 L92.6016,29.5625 L92.6016,35.1563 C92.6016,35.3099 92.625,35.429 92.6719,35.5137 C92.7188,35.5983 92.7845,35.6576 92.8691,35.6914 C92.9538,35.7253 93.0521,35.7422 93.1641,35.7422 C93.2422,35.7422 93.3203,35.735 93.3984,35.7207 C93.4766,35.7064 93.5365,35.6953 93.5781,35.6875 L93.8398,36.9258 C93.7565,36.9518 93.6393,36.9824 93.4883,37.0176 C93.3372,37.0527 93.1536,37.0742 92.9375,37.082 C92.5365,37.0977 92.1855,37.0443 91.8848,36.9219 C91.584,36.7995 91.3503,36.6094 91.1836,36.3516 C91.0169,36.0938 90.9349,35.7682 90.9375,35.375 L90.9375,29.5625 M97.4766,37.1172 C96.8594,37.1172 96.3288,36.9915 95.8848,36.7402 C95.4408,36.4889 95.099,36.1322 94.8594,35.6699 C94.6198,35.2077 94.5,34.6602 94.5,34.0273 C94.5,33.4102 94.6198,32.8685 94.8594,32.4023 C95.099,31.9362 95.4368,31.5729 95.873,31.3125 C96.3092,31.0521 96.8216,30.9219 97.4102,30.9219 C97.806,30.9219 98.1751,30.985 98.5176,31.1113 C98.86,31.2376 99.1595,31.4271 99.416,31.6797 C99.6725,31.9323 99.8724,32.2493 100.016,32.6309 C100.159,33.0124 100.23,33.4583 100.23,33.9688 L100.23,34.4258 L95.1641,34.4258 L95.1641,33.3945 L98.6641,33.3945 C98.6641,33.1549 98.612,32.9427 98.5078,32.7578 C98.4036,32.5729 98.2598,32.4277 98.0762,32.3223 C97.8926,32.2168 97.6797,32.1641 97.4375,32.1641 C97.1849,32.1641 96.9616,32.222 96.7676,32.3379 C96.5736,32.4538 96.4219,32.6087 96.3125,32.8027 C96.2031,32.9967 96.1471,33.2122 96.1445,33.4492 L96.1445,34.4297 C96.1445,34.7266 96.1999,34.9831 96.3105,35.1992 C96.4212,35.4154 96.5781,35.582 96.7813,35.6992 C96.9844,35.8164 97.2253,35.875 97.5039,35.875 C97.6888,35.875 97.8581,35.849 98.0117,35.7969 C98.1654,35.7448 98.2969,35.6667 98.4063,35.5625 C98.5156,35.4583 98.599,35.3307 98.6563,35.1797 L100.195,35.2813 C100.117,35.651 99.9577,35.9733 99.7168,36.248 C99.4759,36.5228 99.166,36.7363 98.7871,36.8887 C98.4082,37.041 97.9714,37.1172 97.4766,37.1172 M104.039,37.1172 C103.422,37.1172 102.891,36.9915 102.447,36.7402 C102.003,36.4889 101.661,36.1322 101.422,35.6699 C101.182,35.2077 101.063,34.6602 101.063,34.0273 C101.063,33.4102 101.182,32.8685 101.422,32.4023 C101.661,31.9362 101.999,31.5729 102.436,31.3125 C102.872,31.0521 103.384,30.9219 103.973,30.9219 C104.368,30.9219 104.738,30.985 105.08,31.1113 C105.423,31.2376 105.722,31.4271 105.979,31.6797 C106.235,31.9323 106.435,32.2493 106.578,32.6309 C106.721,33.0124 106.793,33.4583 106.793,33.9688 L106.793,34.4258 L101.727,34.4258 L101.727,33.3945 L105.227,33.3945 C105.227,33.1549 105.174,32.9427 105.07,32.7578 C104.966,32.5729 104.822,32.4277 104.639,32.3223 C104.455,32.2168 104.242,32.1641 104,32.1641 C103.747,32.1641 103.524,32.222 103.33,32.3379 C103.136,32.4538 102.984,32.6087 102.875,32.8027 C102.766,32.9967 102.71,33.2122 102.707,33.4492 L102.707,34.4297 C102.707,34.7266 102.762,34.9831 102.873,35.1992 C102.984,35.4154 103.141,35.582 103.344,35.6992 C103.547,35.8164 103.788,35.875 104.066,35.875 C104.251,35.875 104.421,35.849 104.574,35.7969 C104.728,35.7448 104.859,35.6667 104.969,35.5625 C105.078,35.4583 105.161,35.3307 105.219,35.1797 L106.758,35.2813 C106.68,35.651 106.52,35.9733 106.279,36.248 C106.038,36.5228 105.729,36.7363 105.35,36.8887 C104.971,37.041 104.534,37.1172 104.039,37.1172 M107.867,37 L107.867,31 L109.48,31 L109.48,32.0469 L109.543,32.0469 C109.652,31.6745 109.836,31.3926 110.094,31.2012 C110.352,31.0098 110.648,30.9141 110.984,30.9141 C111.068,30.9141 111.158,30.9193 111.254,30.9297 C111.35,30.9401 111.435,30.9544 111.508,30.9727 L111.508,32.4492 C111.43,32.4258 111.322,32.4049 111.184,32.3867 C111.046,32.3685 110.919,32.3594 110.805,32.3594 C110.56,32.3594 110.342,32.4121 110.15,32.5176 C109.959,32.623 109.808,32.7695 109.697,32.957 C109.587,33.1445 109.531,33.3607 109.531,33.6055 L109.531,37 L107.867,37 M112.352,37 L112.352,31 L114.016,31 L114.016,37 L112.352,37 M113.188,30.2266 C112.94,30.2266 112.729,30.1439 112.553,29.9785 C112.377,29.8132 112.289,29.6146 112.289,29.3828 C112.289,29.1536 112.377,28.9564 112.553,28.791 C112.729,28.6257 112.94,28.543 113.188,28.543 C113.435,28.543 113.646,28.6257 113.822,28.791 C113.998,28.9564 114.086,29.1536 114.086,29.3828 C114.086,29.6146 113.998,29.8132 113.822,29.9785 C113.646,30.1439 113.435,30.2266 113.188,30.2266 M117,33.5313 L117,37 L115.336,37 L115.336,31 L116.922,31 L116.922,32.0586 L116.992,32.0586 C117.125,31.7096 117.348,31.4329 117.66,31.2285 C117.973,31.0241 118.352,30.9219 118.797,30.9219 C119.214,30.9219 119.577,31.013 119.887,31.1953 C120.197,31.3776 120.438,31.6374 120.609,31.9746 C120.781,32.3118 120.867,32.7135 120.867,33.1797 L120.867,37 L119.203,37 L119.203,33.4766 C119.206,33.1094 119.112,32.8223 118.922,32.6152 C118.732,32.4082 118.47,32.3047 118.137,32.3047 C117.913,32.3047 117.715,32.3529 117.545,32.4492 C117.374,32.5456 117.242,32.6855 117.146,32.8691 C117.051,33.0527 117.003,33.2734 117,33.5313 M124.867,39.375 C124.328,39.375 123.867,39.3014 123.482,39.1543 C123.098,39.0072 122.793,38.8073 122.566,38.5547 C122.34,38.3021 122.193,38.0182 122.125,37.7031 L123.664,37.4961 C123.711,37.6159 123.785,37.7279 123.887,37.832 C123.988,37.9362 124.123,38.0202 124.291,38.084 C124.459,38.1478 124.664,38.1797 124.906,38.1797 C125.268,38.1797 125.567,38.0918 125.803,37.916 C126.038,37.7402 126.156,37.4466 126.156,37.0352 L126.156,35.9375 L126.086,35.9375 C126.013,36.1042 125.904,36.2617 125.758,36.4102 C125.612,36.5586 125.424,36.6797 125.195,36.7734 C124.966,36.8672 124.693,36.9141 124.375,36.9141 C123.924,36.9141 123.515,36.8092 123.146,36.5996 C122.778,36.39 122.485,36.0684 122.268,35.6348 C122.05,35.2012 121.941,34.6523 121.941,33.9883 C121.941,33.3086 122.052,32.7409 122.273,32.2852 C122.495,31.8294 122.79,31.4883 123.158,31.2617 C123.527,31.0352 123.931,30.9219 124.371,30.9219 C124.707,30.9219 124.988,30.9785 125.215,31.0918 C125.441,31.2051 125.624,31.3457 125.764,31.5137 C125.903,31.6816 126.01,31.8464 126.086,32.0078 L126.148,32.0078 L126.148,31 L127.801,31 L127.801,37.0586 C127.801,37.569 127.676,37.9961 127.426,38.3398 C127.176,38.6836 126.83,38.9421 126.389,39.1152 C125.947,39.2884 125.44,39.375 124.867,39.375 M124.902,35.6641 C125.171,35.6641 125.398,35.597 125.584,35.4629 C125.77,35.3288 125.913,35.1361 126.014,34.8848 C126.114,34.6335 126.164,34.332 126.164,33.9805 C126.164,33.6289 126.115,33.3236 126.016,33.0645 C125.917,32.8053 125.773,32.6042 125.586,32.4609 C125.398,32.3177 125.171,32.2461 124.902,32.2461 C124.629,32.2461 124.398,32.3197 124.211,32.4668 C124.023,32.6139 123.882,32.8177 123.785,33.0781 C123.689,33.3385 123.641,33.6393 123.641,33.9805 C123.641,34.3268 123.689,34.6257 123.787,34.877 C123.885,35.1283 124.027,35.3223 124.213,35.459 C124.399,35.5957 124.629,35.6641 124.902,35.6641 M132.848,37 L131.215,31 L132.898,31 L133.828,35.0313 L133.883,35.0313 L134.852,31 L136.504,31 L137.488,35.0078 L137.539,35.0078 L138.453,31 L140.133,31 L138.504,37 L136.742,37 L135.711,33.2266 L135.637,33.2266 L134.605,37 L132.848,37 M142.672,33.5313 L142.672,37 L141.008,37 L141.008,29 L142.625,29 L142.625,32.0586 L142.695,32.0586 C142.831,31.7044 143.049,31.4264 143.352,31.2246 C143.654,31.0228 144.033,30.9219 144.488,30.9219 C144.905,30.9219 145.269,31.0124 145.58,31.1934 C145.891,31.3743 146.133,31.6335 146.307,31.9707 C146.48,32.3079 146.565,32.7109 146.563,33.1797 L146.563,37 L144.898,37 L144.898,33.4766 C144.901,33.1068 144.808,32.819 144.619,32.6133 C144.43,32.4076 144.167,32.3047 143.828,32.3047 C143.602,32.3047 143.402,32.3529 143.229,32.4492 C143.055,32.5456 142.92,32.6855 142.822,32.8691 C142.725,33.0527 142.674,33.2734 142.672,33.5313 M150.602,37.1172 C149.984,37.1172 149.454,36.9915 149.01,36.7402 C148.566,36.4889 148.224,36.1322 147.984,35.6699 C147.745,35.2077 147.625,34.6602 147.625,34.0273 C147.625,33.4102 147.745,32.8685 147.984,32.4023 C148.224,31.9362 148.562,31.5729 148.998,31.3125 C149.434,31.0521 149.947,30.9219 150.535,30.9219 C150.931,30.9219 151.3,30.985 151.643,31.1113 C151.985,31.2376 152.285,31.4271 152.541,31.6797 C152.798,31.9323 152.997,32.2493 153.141,32.6309 C153.284,33.0124 153.355,33.4583 153.355,33.9688 L153.355,34.4258 L148.289,34.4258 L148.289,33.3945 L151.789,33.3945 C151.789,33.1549 151.737,32.9427 151.633,32.7578 C151.529,32.5729 151.385,32.4277 151.201,32.3223 C151.018,32.2168 150.805,32.1641 150.563,32.1641 C150.31,32.1641 150.087,32.222 149.893,32.3379 C149.699,32.4538 149.547,32.6087 149.438,32.8027 C149.328,32.9967 149.272,33.2122 149.27,33.4492 L149.27,34.4297 C149.27,34.7266 149.325,34.9831 149.436,35.1992 C149.546,35.4154 149.703,35.582 149.906,35.6992 C150.109,35.8164 150.35,35.875 150.629,35.875 C150.814,35.875 150.983,35.849 151.137,35.7969 C151.29,35.7448 151.422,35.6667 151.531,35.5625 C151.641,35.4583 151.724,35.3307 151.781,35.1797 L153.32,35.2813 C153.242,35.651 153.083,35.9733 152.842,36.248 C152.601,36.5228 152.291,36.7363 151.912,36.8887 C151.533,37.041 151.096,37.1172 150.602,37.1172 M157.164,37.1172 C156.547,37.1172 156.016,36.9915 155.572,36.7402 C155.128,36.4889 154.786,36.1322 154.547,35.6699 C154.307,35.2077 154.188,34.6602 154.188,34.0273 C154.188,33.4102 154.307,32.8685 154.547,32.4023 C154.786,31.9362 155.124,31.5729 155.561,31.3125 C155.997,31.0521 156.509,30.9219 157.098,30.9219 C157.493,30.9219 157.863,30.985 158.205,31.1113 C158.548,31.2376 158.847,31.4271 159.104,31.6797 C159.36,31.9323 159.56,32.2493 159.703,32.6309 C159.846,33.0124 159.918,33.4583 159.918,33.9688 L159.918,34.4258 L154.852,34.4258 L154.852,33.3945 L158.352,33.3945 C158.352,33.1549 158.299,32.9427 158.195,32.7578 C158.091,32.5729 157.947,32.4277 157.764,32.3223 C157.58,32.2168 157.367,32.1641 157.125,32.1641 C156.872,32.1641 156.649,32.222 156.455,32.3379 C156.261,32.4538 156.109,32.6087 156,32.8027 C155.891,32.9967 155.835,33.2122 155.832,33.4492 L155.832,34.4297 C155.832,34.7266 155.887,34.9831 155.998,35.1992 C156.109,35.4154 156.266,35.582 156.469,35.6992 C156.672,35.8164 156.913,35.875 157.191,35.875 C157.376,35.875 157.546,35.849 157.699,35.7969 C157.853,35.7448 157.984,35.6667 158.094,35.5625 C158.203,35.4583 158.286,35.3307 158.344,35.1797 L159.883,35.2813 C159.805,35.651 159.645,35.9733 159.404,36.248 C159.163,36.5228 158.854,36.7363 158.475,36.8887 C158.096,37.041 157.659,37.1172 157.164,37.1172 M162.656,29 L162.656,37 L160.992,37 L160.992,29 L162.656,29"/>
</g>

<g fill="#ffffff" fill-opacity="1" stroke="none" transform="matrix(1,0,0,1,0,0)"
font-family="Inter" font-size="11" font-weight="700" font-style="normal" 
>
<path vector-effect="none" fill-rule="nonzero" d="M254.164,38 L254.164,32 L255.828,32 L255.828,38 L254.164,38 M255,31.2266 C254.753,31.2266 254.541,31.1439 254.365,30.9785 C254.189,30.8132 254.102,30.6146 254.102,30.3828 C254.102,30.1536 254.189,29.9564 254.365,29.791 C254.541,29.6257 254.753,29.543 255,29.543 C255.247,29.543 255.459,29.6257 255.635,29.791 C255.811,29.9564 255.898,30.1536 255.898,30.3828 C255.898,30.6146 255.811,30.8132 255.635,30.9785 C255.459,31.1439 255.247,31.2266 255,31.2266 M262.141,33.7109 L260.617,33.8047 C260.591,33.6745 260.535,33.5566 260.449,33.4512 C260.363,33.3457 260.251,33.2611 260.111,33.1973 C259.972,33.1335 259.806,33.1016 259.613,33.1016 C259.355,33.1016 259.138,33.1556 258.961,33.2637 C258.784,33.3717 258.695,33.5156 258.695,33.6953 C258.695,33.8385 258.753,33.9596 258.867,34.0586 C258.982,34.1576 259.178,34.237 259.457,34.2969 L260.543,34.5156 C261.126,34.6354 261.561,34.8281 261.848,35.0938 C262.134,35.3594 262.277,35.7083 262.277,36.1406 C262.277,36.5339 262.162,36.8789 261.932,37.1758 C261.701,37.4727 261.386,37.7038 260.986,37.8691 C260.587,38.0345 260.126,38.1172 259.605,38.1172 C258.811,38.1172 258.179,37.9512 257.709,37.6191 C257.239,37.2871 256.964,36.8346 256.883,36.2617 L258.52,36.1758 C258.569,36.418 258.689,36.6022 258.879,36.7285 C259.069,36.8548 259.313,36.918 259.609,36.918 C259.901,36.918 260.136,36.8613 260.314,36.748 C260.493,36.6348 260.583,36.4883 260.586,36.3086 C260.583,36.1576 260.52,36.0332 260.395,35.9355 C260.27,35.8379 260.077,35.763 259.816,35.7109 L258.777,35.5039 C258.191,35.3867 257.756,35.1836 257.471,34.8945 C257.186,34.6055 257.043,34.237 257.043,33.7891 C257.043,33.4036 257.148,33.0716 257.357,32.793 C257.567,32.5143 257.863,32.2995 258.244,32.1484 C258.626,31.9974 259.073,31.9219 259.586,31.9219 C260.344,31.9219 260.941,32.082 261.377,32.4023 C261.813,32.7227 262.068,33.1589 262.141,33.7109 "/>
</g>

<g fill="#ffffff" fill-opacity="1" stroke="none" transform="matrix(0.95,0,0,0.95,11.6,25.6)"
font-family="Inter" font-size="11" font-weight="700" font-style="normal" 
>
<path vector-effect="none" fill-rule="nonzero" d="M2.19896,4.65234 C1.18891,4.65234 0.375703,5.46549 0.375703,6.47555 L0.375703,8.579 C1.00152,8.60331 1.67842,9.11362 1.67842,9.74561 L1.67842,14.2544 C1.67842,14.8864 1.00152,15.3967 0.375703,15.421 L0.375703,17.5245 C0.375703,18.5345 1.18891,19.3477 2.19896,19.3477 L21.8479,19.3477 C22.858,19.3477 23.6711,18.5345 23.6711,17.5245 L23.6711,6.47555 C23.6711,5.46549 22.858,4.65234 21.8479,4.65234 L2.19896,4.65234 M6.71936,9.23098 C8.56166,9.23097 10.0552,10.7245 10.0552,12.5668 C10.0552,14.4091 8.56167,15.9026 6.71936,15.9026 C4.87705,15.9026 3.38355,14.4091 3.38355,12.5668 C3.38355,10.7245 4.87705,9.23097 6.71936,9.23098 M19.875,9.24873 C20.7082,9.24871 21.3837,9.92418 21.3837,10.7574 C21.3837,11.5906 20.7082,12.266 19.875,12.266 C19.0418,12.266 18.3664,11.5906 18.3664,10.7574 C18.3664,9.9242 19.0418,9.24874 19.875,9.24873 M17.4318,12.8825 C18.265,12.8825 18.9404,13.558 18.9404,14.3912 C18.9404,15.2243 18.2649,15.8998 17.4318,15.8998 C16.5986,15.8998 15.9231,15.2244 15.9231,14.3912 C15.9231,13.5579 16.5985,12.8825 17.4318,12.8825 "/>
</g>

<g fill="none" stroke="#000000" stroke-opacity="1" stroke-width="0.54" stroke-linecap="butt" stroke-linejoin="miter" stroke-miterlimit="4" transform="matrix(0.95,0,0,0.95,11.6,25.6)"
font-family="Inter" font-size="11" font-weight="700" font-style="normal" 
>
<path vector-effect="none" fill-rule="nonzero" d="M2.19896,4.65234 C1.18891,4.65234 0.375703,5.46549 0.375703,6.47555 L0.375703,8.579 C1.00152,8.60331 1.67842,9.11362 1.67842,9.74561 L1.67842,14.2544 C1.67842,14.8864 1.00152,15.3967 0.375703,15.421 L0.375703,17.5245 C0.375703,18.5345 1.18891,19.3477 2.19896,19.3477 L21.8479,19.3477 C22.858,19.3477 23.6711,18.5345 23.6711,17.5245 L23.6711,6.47555 C23.6711,5.46549 22.858,4.65234 21.8479,4.65234 L2.19896,4.65234 M6.71936,9.23098 C8.56166,9.23097 10.0552,10.7245 10.0552,12.5668 C10.0552,14.4091 8.56167,15.9026 6.71936,15.9026 C4.87705,15.9026 3.38355,14.4091 3.38355,12.5668 C3.38355,10.7245 4.87705,9.23097 6.71936,9.23098 M19.875,9.24873 C20.7082,9.24871 21.3837,9.92418 21.3837,10.7574 C21.3837,11.5906 20.7082,12.266 19.875,12.266 C19.0418,12.266 18.3664,11.5906 18.3664,10.7574 C18.3664,9.9242 19.0418,9.24874 19.875,9.24873 M17.4318,12.8825 C18.265,12.8825 18.9404,13.558 18.9404,14.3912 C18.9404,15.2243 18.2649,15.8998 17.4318,15.8998 C16.5986,15.8998 15.9231,15.2244 15.9231,14.3912 C15.9231,13.5579 16.5985,12.8825 17.4318,12.8825 "/>
</g>

<g fill="#000000" fill-opacity="1" stroke="none" transform="matrix(0.95,0,0,0.95,11.6,25.6)"
font-family="Inter" font-size="11" font-weight="700" font-style="normal" 
>
<path vector-effect="none" fill-rule="nonzero" d="M0.108328,15.3227 L0.103298,8.65983 L1.21825,8.7259 L1.75102,9.37791 L1.70662,12.9064 L1.66222,14.5556 L1.04066,15.0542 L0.108328,15.3227"/>
</g>

<g fill="#000000" fill-opacity="1" stroke="none" transform="matrix(0.95,0,0,0.95,11.6,25.6)"
font-family="Inter" font-size="11" font-weight="700" font-style="normal" 
>
<circle cx="6.70111" cy="12.5452" r="1.68266"/>
</g>

<g fill="none" stroke="#000000" stroke-opacity="1" stroke-width="0.54" stroke-linecap="butt" stroke-linejoin="miter" stroke-miterlimit="4" transform="matrix(0.95,0,0,0.95,11.6,25.6)"
font-family="Inter" font-size="11" font-weight="700" font-style="normal" 
>
<circle cx="6.70111" cy="12.5452" r="1.68266"/>
</g>

<g fill="#000000" fill-opacity="1" stroke="none" transform="matrix(0.95,0,0,0.95,11.6,25.6)"
font-family="Inter" font-size="11" font-weight="700" font-style="normal" 
opacity="0.858824" >
<path vector-effect="none" fill-rule="evenodd" d="M8.42109,18.1373 C8.42109,18.0846 8.46385,18.0418 8.51661,18.0418 L15.4834,18.0418 C15.5361,18.0418 15.5789,18.0846 15.5789,18.1373 L15.5789,18.1373 C15.5789,18.1901 15.5361,18.2329 15.4834,18.2329 L8.51661,18.2329 C8.46385,18.2329 8.42109,18.1901 8.42109,18.1373 L8.42109,18.1373"/>
</g>

<g fill="none" stroke="#000000" stroke-opacity="1" stroke-width="0.437534" stroke-linecap="butt" stroke-linejoin="miter" stroke-miterlimit="4" transform="matrix(0.95,0,0,0.95,11.6,25.6)"
font-family="Inter" font-size="11" font-weight="700" font-style="normal" 
>
<path vector-effect="none" fill-rule="evenodd" d="M8.42109,18.1373 C8.42109,18.0846 8.46385,18.0418 8.51661,18.0418 L15.4834,18.0418 C15.5361,18.0418 15.5789,18.0846 15.5789,18.1373 L15.5789,18.1373 C15.5789,18.1901 15.5361,18.2329 15.4834,18.2329 L8.51661,18.2329 C8.46385,18.2329 8.42109,18.1901 8.42109,18.1373 L8.42109,18.1373"/>
</g>

<g fill="#ffffff" fill-opacity="1" stroke="none" transform="matrix(1,0,0,1,0,0)"
font-family="Inter" font-size="11" font-weight="700" font-style="normal" 
>
</g>

<g fill="#ffffff" fill-opacity="1" stroke="#00645c" stroke-opacity="1" stroke-width="1" stroke-linecap="square" stroke-linejoin="bevel" transform="matrix(1,0,0,1,0,0)"
font-family="Inter" font-size="11" font-weight="700" font-style="normal" 
>
<polyline fill="none" vector-effect="none" points="45,27 45,47 " />
</g>

<g fill="#009f94" fill-opacity="1" stroke="#00645c" stroke-opacity="1" stroke-width="1.2" stroke-linecap="square" stroke-linejoin="bevel" transform="matrix(1,0,0,1,269,22)"
font-family="Inter" font-size="11" font-weight="700" font-style="normal" 
>
<path vector-effect="none" fill-rule="evenodd" d="M0.5,3.5 C0.5,1.84315 1.84315,0.5 3.5,0.5 L63.5,0.5 C65.1569,0.5 66.5,1.84315 66.5,3.5 L66.5,20.5 C66.5,22.1569 65.1569,23.5 63.5,23.5 L3.5,23.5 C1.84315,23.5 0.5,22.1569 0.5,20.5 L0.5,3.5"/>
</g>

<g fill="#ffffff" fill-opacity="1" stroke="none" transform="matrix(1,0,0,1,269,22)"
font-family="Inter" font-size="11" font-weight="700" font-style="normal" 
>
<path vector-effect="none" fill-rule="nonzero" d="M10.0078,15.9063 L10.0078,9.90625 L11.5938,9.90625 L11.5938,10.9648 L11.6641,10.9648 C11.7891,10.6133 11.9974,10.3359 12.2891,10.1328 C12.5807,9.92969 12.9297,9.82813 13.3359,9.82813 C13.7474,9.82813 14.0977,9.93034 14.3867,10.1348 C14.6758,10.3392 14.8685,10.6159 14.9648,10.9648 L15.0273,10.9648 C15.1497,10.6211 15.3717,10.3457 15.6934,10.1387 C16.015,9.93164 16.3958,9.82813 16.8359,9.82813 C17.3958,9.82813 17.8509,10.0059 18.2012,10.3613 C18.5514,10.7168 18.7266,11.2201 18.7266,11.8711 L18.7266,15.9063 L17.0664,15.9063 L17.0664,12.1992 C17.0664,11.8659 16.9779,11.6159 16.8008,11.4492 C16.6237,11.2826 16.4023,11.1992 16.1367,11.1992 C15.8346,11.1992 15.599,11.2949 15.4297,11.4863 C15.2604,11.6777 15.1758,11.9297 15.1758,12.2422 L15.1758,15.9063 L13.5625,15.9063 L13.5625,12.1641 C13.5625,11.8698 13.4785,11.6354 13.3105,11.4609 C13.1426,11.2865 12.9219,11.1992 12.6484,11.1992 C12.4635,11.1992 12.2975,11.2454 12.1504,11.3379 C12.0033,11.4303 11.8867,11.5592 11.8008,11.7246 C11.7148,11.89 11.6719,12.0833 11.6719,12.3047 L11.6719,15.9063 L10.0078,15.9063 M22.75,16.0234 C22.1432,16.0234 21.6191,15.8939 21.1777,15.6348 C20.7363,15.3757 20.3958,15.0137 20.1563,14.5488 C19.9167,14.084 19.7969,13.5443 19.7969,12.9297 C19.7969,12.3099 19.9167,11.7676 20.1563,11.3027 C20.3958,10.8379 20.7363,10.4759 21.1777,10.2168 C21.6191,9.95768 22.1432,9.82813 22.75,9.82813 C23.3568,9.82813 23.8809,9.95768 24.3223,10.2168 C24.7637,10.4759 25.1042,10.8379 25.3438,11.3027 C25.5833,11.7676 25.7031,12.3099 25.7031,12.9297 C25.7031,13.5443 25.5833,14.084 25.3438,14.5488 C25.1042,15.0137 24.7637,15.3757 24.3223,15.6348 C23.8809,15.8939 23.3568,16.0234 22.75,16.0234 M22.7578,14.7344 C23.0339,14.7344 23.2643,14.6556 23.4492,14.498 C23.6341,14.3405 23.7741,14.125 23.8691,13.8516 C23.9642,13.5781 24.0117,13.2669 24.0117,12.918 C24.0117,12.569 23.9642,12.2578 23.8691,11.9844 C23.7741,11.7109 23.6341,11.4948 23.4492,11.3359 C23.2643,11.1771 23.0339,11.0977 22.7578,11.0977 C22.4792,11.0977 22.2454,11.1771 22.0566,11.3359 C21.8678,11.4948 21.7259,11.7109 21.6309,11.9844 C21.5358,12.2578 21.4883,12.569 21.4883,12.918 C21.4883,13.2669 21.5358,13.5781 21.6309,13.8516 C21.7259,14.125 21.8678,14.3405 22.0566,14.498 C22.2454,14.6556 22.4792,14.7344 22.7578,14.7344 M32.1797,9.90625 L30.082,15.9063 L28.207,15.9063 L26.1094,9.90625 L27.8672,9.90625 L29.1133,14.1992 L29.1758,14.1992 L30.418,9.90625 L32.1797,9.90625 M35.5547,16.0234 C34.9375,16.0234 34.4069,15.8978 33.9629,15.6465 C33.5189,15.3952 33.1771,15.0384 32.9375,14.5762 C32.6979,14.1139 32.5781,13.5664 32.5781,12.9336 C32.5781,12.3164 32.6979,11.7747 32.9375,11.3086 C33.1771,10.8424 33.515,10.4792 33.9512,10.2188 C34.3874,9.95833 34.8997,9.82813 35.4883,9.82813 C35.8841,9.82813 36.2533,9.89128 36.5957,10.0176 C36.9382,10.1439 37.2376,10.3333 37.4941,10.5859 C37.7507,10.8385 37.9505,11.1556 38.0938,11.5371 C38.237,11.9186 38.3086,12.3646 38.3086,12.875 L38.3086,13.332 L33.2422,13.332 L33.2422,12.3008 L36.7422,12.3008 C36.7422,12.0612 36.6901,11.849 36.5859,11.6641 C36.4818,11.4792 36.3379,11.334 36.1543,11.2285 C35.9707,11.123 35.7578,11.0703 35.5156,11.0703 C35.263,11.0703 35.0397,11.1283 34.8457,11.2441 C34.6517,11.36 34.5,11.515 34.3906,11.709 C34.2813,11.903 34.2253,12.1185 34.2227,12.3555 L34.2227,13.3359 C34.2227,13.6328 34.278,13.8893 34.3887,14.1055 C34.4993,14.3216 34.6563,14.4883 34.8594,14.6055 C35.0625,14.7227 35.3034,14.7813 35.582,14.7813 C35.7669,14.7813 35.9362,14.7552 36.0898,14.7031 C36.2435,14.651 36.375,14.5729 36.4844,14.4688 C36.5938,14.3646 36.6771,14.237 36.7344,14.0859 L38.2734,14.1875 C38.1953,14.5573 38.0358,14.8796 37.7949,15.1543 C37.554,15.429 37.2441,15.6426 36.8652,15.7949 C36.4863,15.9473 36.0495,16.0234 35.5547,16.0234 M41.5938,16.0039 C41.138,16.0039 40.7259,15.8861 40.3574,15.6504 C39.9889,15.4147 39.6973,15.0671 39.4824,14.6074 C39.2676,14.1478 39.1602,13.5833 39.1602,12.9141 C39.1602,12.2266 39.2708,11.6543 39.4922,11.1973 C39.7135,10.7402 40.0085,10.3978 40.377,10.1699 C40.7454,9.94206 41.1497,9.82813 41.5898,9.82813 C41.9258,9.82813 42.2064,9.88477 42.4316,9.99805 C42.6569,10.1113 42.8392,10.252 42.9785,10.4199 C43.1178,10.5879 43.224,10.7526 43.2969,10.9141 L43.3477,10.9141 L43.3477,7.90625 L45.0078,7.90625 L45.0078,15.9063 L43.3672,15.9063 L43.3672,14.9453 L43.2969,14.9453 C43.2188,15.112 43.1087,15.2767 42.9668,15.4395 C42.8249,15.6022 42.6413,15.737 42.416,15.8438 C42.1908,15.9505 41.9167,16.0039 41.5938,16.0039 M42.1211,14.6797 C42.3893,14.6797 42.6165,14.6061 42.8027,14.459 C42.9889,14.3118 43.1322,14.1055 43.2324,13.8398 C43.3327,13.5742 43.3828,13.263 43.3828,12.9063 C43.3828,12.5495 43.3333,12.2396 43.2344,11.9766 C43.1354,11.7135 42.9922,11.5104 42.8047,11.3672 C42.6172,11.224 42.3893,11.1523 42.1211,11.1523 C41.8477,11.1523 41.6172,11.2266 41.4297,11.375 C41.2422,11.5234 41.1003,11.7292 41.0039,11.9922 C40.9076,12.2552 40.8594,12.5599 40.8594,12.9063 C40.8594,13.2552 40.9082,13.5632 41.0059,13.8301 C41.1035,14.097 41.2454,14.3053 41.4316,14.4551 C41.6178,14.6048 41.8477,14.6797 42.1211,14.6797 "/>
</g>

<g fill="#ffffff" fill-opacity="1" stroke="none" transform="matrix(0.03125,0,0,0.03125,322,30)"
font-family="Inter" font-size="11" font-weight="700" font-style="normal" 
>
<path vector-effect="none" fill-rule="nonzero" d="M111.326,191.938 C120.545,201.158 135.517,201.158 144.737,191.938 L239.144,97.5313 C245.929,90.7458 247.921,80.6413 244.233,71.7907 C240.545,62.9401 231.989,57.1871 222.401,57.1871 L33.5875,57.2608 C24.0731,57.2608 15.4437,63.0137 11.7559,71.8644 C8.06815,80.715 10.1333,90.8195 16.845,97.605 L111.252,192.012 L111.326,191.938"/>
</g>

<g fill="none" stroke="#000000" stroke-opacity="1" stroke-width="13.7195" stroke-linecap="butt" stroke-linejoin="miter" stroke-miterlimit="4" transform="matrix(0.03125,0,0,0.03125,322,30)"
font-family="Inter" font-size="11" font-weight="700" font-style="normal" 
>
<path vector-effect="none" fill-rule="nonzero" d="M111.326,191.938 C120.545,201.158 135.517,201.158 144.737,191.938 L239.144,97.5313 C245.929,90.7458 247.921,80.6413 244.233,71.7907 C240.545,62.9401 231.989,57.1871 222.401,57.1871 L33.5875,57.2608 C24.0731,57.2608 15.4437,63.0137 11.7559,71.8644 C8.06815,80.715 10.1333,90.8195 16.845,97.605 L111.252,192.012 L111.326,191.938"/>
</g>

<g fill="#ffffff" fill-opacity="1" stroke="none" transform="matrix(1,0,0,1,269,22)"
font-family="Inter" font-size="11" font-weight="700" font-style="normal" 
>
</g>

<g fill="#ffffff" fill-opacity="1" stroke="#00645c" stroke-opacity="1" stroke-width="1" stroke-linecap="square" stroke-linejoin="bevel" transform="matrix(1,0,0,1,0,0)"
font-family="Inter" font-size="11" font-weight="700" font-style="normal" 
>
</g>

<g fill="#ffffff" fill-opacity="1" stroke="#00645c" stroke-opacity="1" stroke-width="1" stroke-linecap="square" stroke-linejoin="bevel" transform="matrix(1,0,0,1,0,0)"
font-family="Inter" font-size="11" font-weight="700" font-style="normal" 
>
</g>

<g fill="#009f94" fill-opacity="1" stroke="#00645c" stroke-opacity="1" stroke-width="1.2" stroke-linecap="square" stroke-linejoin="bevel" transform="matrix(1,0,0,1,169,22)"
font-family="Inter" font-size="11" font-weight="700" font-style="normal" 
>
<path vector-effect="none" fill-rule="evenodd" d="M0.5,3.5 C0.5,1.84315 1.84315,0.5 3.5,0.5 L75.5,0.5 C77.1569,0.5 78.5,1.84315 78.5,3.5 L78.5,20.5 C78.5,22.1569 77.1569,23.5 75.5,23.5 L3.5,23.5 C1.84315,23.5 0.5,22.1569 0.5,20.5 L0.5,3.5"/>
</g>

<g fill="#ffffff" fill-opacity="1" stroke="none" transform="matrix(1,0,0,1,169,22)"
font-family="Inter" font-size="11" font-weight="700" font-style="normal" 
>
<path vector-effect="none" fill-rule="nonzero" d="M14.5977,10.2383 C14.5664,9.92318 14.4323,9.67839 14.1953,9.50391 C13.9583,9.32943 13.6367,9.24219 13.2305,9.24219 C12.9544,9.24219 12.7214,9.2806 12.5313,9.35742 C12.3411,9.43424 12.196,9.54036 12.0957,9.67578 C11.9954,9.8112 11.9453,9.96484 11.9453,10.1367 C11.9401,10.2799 11.9707,10.4049 12.0371,10.5117 C12.1035,10.6185 12.1953,10.7103 12.3125,10.7871 C12.4297,10.8639 12.5651,10.9303 12.7188,10.9863 C12.8724,11.0423 13.0365,11.0898 13.2109,11.1289 L13.9297,11.3008 C14.2786,11.3789 14.599,11.4831 14.8906,11.6133 C15.1823,11.7435 15.4349,11.9036 15.6484,12.0938 C15.862,12.2839 16.028,12.5078 16.1465,12.7656 C16.265,13.0234 16.3255,13.319 16.3281,13.6523 C16.3255,14.1419 16.2012,14.5658 15.9551,14.9238 C15.709,15.2819 15.3548,15.5592 14.8926,15.7559 C14.4303,15.9525 13.8737,16.0508 13.2227,16.0508 C12.5768,16.0508 12.015,15.9518 11.5371,15.7539 C11.0592,15.556 10.6868,15.2624 10.4199,14.873 C10.153,14.4837 10.013,14.0013 10,13.4258 L11.6367,13.4258 C11.6549,13.694 11.7324,13.9173 11.8691,14.0957 C12.0059,14.2741 12.1895,14.4082 12.4199,14.498 C12.6504,14.5879 12.9115,14.6328 13.2031,14.6328 C13.4896,14.6328 13.7389,14.5911 13.9512,14.5078 C14.1634,14.4245 14.3281,14.3086 14.4453,14.1602 C14.5625,14.0117 14.6211,13.8411 14.6211,13.6484 C14.6211,13.4688 14.5684,13.3177 14.4629,13.1953 C14.3574,13.0729 14.2038,12.9688 14.002,12.8828 C13.8001,12.7969 13.5534,12.7188 13.2617,12.6484 L12.3906,12.4297 C11.7161,12.2656 11.1836,12.0091 10.793,11.6602 C10.4023,11.3112 10.2083,10.8411 10.2109,10.25 C10.2083,9.76563 10.3379,9.34245 10.5996,8.98047 C10.8613,8.61849 11.2214,8.33594 11.6797,8.13281 C12.138,7.92969 12.6589,7.82813 13.2422,7.82813 C13.8359,7.82813 14.3548,7.92969 14.7988,8.13281 C15.2428,8.33594 15.5885,8.61849 15.8359,8.98047 C16.0833,9.34245 16.2109,9.76172 16.2188,10.2383 L14.5977,10.2383 M19.2617,15.9375 L16.9727,7.9375 L18.8203,7.9375 L20.1445,13.4961 L20.2109,13.4961 L21.6719,7.9375 L23.2539,7.9375 L24.7109,13.5078 L24.7813,13.5078 L26.1055,7.9375 L27.9531,7.9375 L25.6641,15.9375 L24.0156,15.9375 L22.4922,10.707 L22.4297,10.707 L20.9102,15.9375 L19.2617,15.9375 M28.8516,7.9375 L30.9375,7.9375 L33.1406,13.3125 L33.2344,13.3125 L35.4375,7.9375 L37.5234,7.9375 L37.5234,15.9375 L35.8828,15.9375 L35.8828,10.7305 L35.8164,10.7305 L33.7461,15.8984 L32.6289,15.8984 L30.5586,10.7109 L30.4922,10.7109 L30.4922,15.9375 L28.8516,15.9375 L28.8516,7.9375 M38.9141,15.9375 L38.9141,7.9375 L42.0703,7.9375 C42.6745,7.9375 43.1908,8.04492 43.6191,8.25977 C44.0475,8.47461 44.3743,8.77799 44.5996,9.16992 C44.8249,9.56185 44.9375,10.0221 44.9375,10.5508 C44.9375,11.082 44.8229,11.5384 44.5938,11.9199 C44.3646,12.3014 44.0332,12.5938 43.5996,12.7969 C43.166,13 42.6419,13.1016 42.0273,13.1016 L39.9141,13.1016 L39.9141,11.7422 L41.7539,11.7422 C42.0768,11.7422 42.3451,11.6979 42.5586,11.6094 C42.7721,11.5208 42.9316,11.388 43.0371,11.2109 C43.1426,11.0339 43.1953,10.8138 43.1953,10.5508 C43.1953,10.2852 43.1426,10.0612 43.0371,9.87891 C42.9316,9.69661 42.7715,9.55794 42.5566,9.46289 C42.3418,9.36784 42.0716,9.32031 41.7461,9.32031 L40.6055,9.32031 L40.6055,15.9375 L38.9141,15.9375 M43.2344,12.2969 L45.2227,15.9375 L43.3555,15.9375 L41.4102,12.2969 L43.2344,12.2969 M46.1328,15.9375 L46.1328,7.9375 L47.8242,7.9375 L47.8242,11.4648 L47.9297,11.4648 L50.8086,7.9375 L52.8359,7.9375 L49.8672,11.5195 L52.8711,15.9375 L50.8477,15.9375 L48.6563,12.6484 L47.8242,13.6641 L47.8242,15.9375 L46.1328,15.9375 M57.1445,7.9375 L57.1445,15.9375 L55.4531,15.9375 L55.4531,9.54297 L55.4063,9.54297 L53.5742,10.6914 L53.5742,9.19141 L55.5547,7.9375 L57.1445,7.9375"/>
</g>

<g fill="#ffffff" fill-opacity="1" stroke="none" transform="matrix(0.03125,0,0,0.03125,234,30)"
font-family="Inter" font-size="11" font-weight="700" font-style="normal" 
>
<path vector-effect="none" fill-rule="nonzero" d="M111.326,191.938 C120.545,201.158 135.517,201.158 144.737,191.938 L239.144,97.5313 C245.929,90.7458 247.921,80.6413 244.233,71.7907 C240.545,62.9401 231.989,57.1871 222.401,57.1871 L33.5875,57.2608 C24.0731,57.2608 15.4437,63.0137 11.7559,71.8644 C8.06815,80.715 10.1333,90.8195 16.845,97.605 L111.252,192.012 L111.326,191.938"/>
</g>

<g fill="none" stroke="#000000" stroke-opacity="1" stroke-width="13.7195" stroke-linecap="butt" stroke-linejoin="miter" stroke-miterlimit="4" transform="matrix(0.03125,0,0,0.03125,234,30)"
font-family="Inter" font-size="11" font-weight="700" font-style="normal" 
>
<path vector-effect="none" fill-rule="nonzero" d="M111.326,191.938 C120.545,201.158 135.517,201.158 144.737,191.938 L239.144,97.5313 C245.929,90.7458 247.921,80.6413 244.233,71.7907 C240.545,62.9401 231.989,57.1871 222.401,57.1871 L33.5875,57.2608 C24.0731,57.2608 15.4437,63.0137 11.7559,71.8644 C8.06815,80.715 10.1333,90.8195 16.845,97.605 L111.252,192.012 L111.326,191.938"/>
</g>

<g fill="#ffffff" fill-opacity="1" stroke="none" transform="matrix(1,0,0,1,169,22)"
font-family="Inter" font-size="11" font-weight="700" font-style="normal" 
>
</g>

<g fill="#ffffff" fill-opacity="1" stroke="#00645c" stroke-opacity="1" stroke-width="1" stroke-linecap="square" stroke-linejoin="bevel" transform="matrix(1,0,0,1,0,0)"
font-family="Inter" font-size="11" font-weight="700" font-style="normal" 
>
</g>

<g fill="none" stroke="#000000" stroke-opacity="1" stroke-width="1" stroke-linecap="square" stroke-linejoin="bevel" transform="matrix(1,0,0,1,0,0)"
font-family=".AppleSystemUIFont" font-size="13" font-weight="400" font-style="normal" 
>
</g>
</g>
</svg>
