<?xml version="1.0" encoding="UTF-8" standalone="no"?>
<svg width="98.0722mm" height="21.1667mm"
 viewBox="0 0 278 60"
 xmlns="http://www.w3.org/2000/svg" xmlns:xlink="http://www.w3.org/1999/xlink" version="1.2" baseProfile="tiny">
<title>Abstract block</title>
<desc>block_hubs_all_event_connection_changed</desc>
<defs>
</defs>
<g fill="none" stroke="black" stroke-width="1" fill-rule="evenodd" stroke-linecap="square" stroke-linejoin="bevel" >

<g fill="none" stroke="#000000" stroke-opacity="1" stroke-width="1" stroke-linecap="square" stroke-linejoin="bevel" transform="matrix(1,0,0,1,0,0)"
font-family=".AppleSystemUIFont" font-size="13" font-weight="400" font-style="normal" 
>
</g>

<g fill="none" stroke="#000000" stroke-opacity="1" stroke-width="1" stroke-linecap="square" stroke-linejoin="bevel" transform="matrix(1,0,0,1,0,0)"
font-family=".AppleSystemUIFont" font-size="13" font-weight="400" font-style="normal" 
>
</g>

<g fill="#f5c400" fill-opacity="1" stroke="#ba9500" stroke-opacity="1" stroke-width="1.2" stroke-linecap="square" stroke-linejoin="bevel" transform="matrix(1,0,0,1,0,0)"
font-family=".AppleSystemUIFont" font-size="13" font-weight="400" font-style="normal" 
>
<path vector-effect="none" fill-rule="evenodd" d="M0.5,20.5 L1,18.6516 L1,18 L1.77836,17.1565 L2.58892,16.3401 L3.43062,15.551 L4.30242,14.7891 L5.20325,14.0544 L6.13206,13.3469 L7.08779,12.6667 L8.06939,12.0136 L9.0758,11.3878 L10.106,10.7891 L11.1588,10.2177 L12.2333,9.67347 L13.3284,9.15646 L14.4431,8.66667 L15.5762,8.20408 L16.7267,7.76871 L17.8936,7.36054 L19.0758,6.97959 L20.2723,6.62585 L21.4819,6.29932 L22.7037,6 L23.9366,5.72789 L25.1795,5.48299 L26.4314,5.26531 L27.6912,5.07483 L28.9578,4.91156 L30.2303,4.77551 L31.5075,4.66667 L32.7885,4.58503 L34.072,4.53061 L35.3572,4.5034 L36.6428,4.5034 L37.928,4.53061 L39.2115,4.58503 L40.4925,4.66667 L41.7697,4.77551 L43.0422,4.91156 L44.3088,5.07483 L45.5686,5.26531 L46.8205,5.48299 L48.0634,5.72789 L49.2963,6 L50.5181,6.29932 L51.7277,6.62585 L52.9242,6.97959 L54.1064,7.36054 L55.2733,7.76871 L56.4238,8.20408 L57.5569,8.66667 L58.6716,9.15646 L59.7667,9.67347 L60.8412,10.2177 L61.894,10.7891 L62.9242,11.3878 L63.9306,12.0136 L64.9122,12.6667 L65.8679,13.3469 L66.7968,14.0544 L67.6976,14.7891 L68.5694,15.551 L69.4111,16.3401 L69.5698,16.5 L273,16.5 L275.019,17.0461 L276.454,18.4811 L277,20.5 L277,47.5 L276.454,49.5189 L275.019,50.9539 L273,51.5 L34.375,51.5 L33.584,51.9766 L32.8281,52.6875 L32.002,53.6797 L31,55 L30.2441,55.6602 L29.4531,56.1563 L28.5918,56.5117 L27.625,56.75 L26.5176,56.8945 L25.2344,56.9688 L23.7402,56.9961 L22,57 L20.2598,56.9961 L18.7656,56.9688 L17.4824,56.8945 L16.375,56.75 L15.4082,56.5117 L14.5469,56.1563 L13.7559,55.6602 L13,55 L11.998,53.6797 L11.1719,52.6875 L10.416,51.9766 L9.625,51.5 L4.5,51.5 L2.48112,50.9539 L1.04612,49.5189 L0.5,47.5 L0.5,20.5"/>
</g>

<g fill="#ffffff" fill-opacity="1" stroke="none" transform="matrix(1,0,0,1,0,0)"
font-family="Inter" font-size="11" font-weight="700" font-style="normal" 
>
<path vector-effect="none" fill-rule="nonzero" d="M53.4727,37.9063 L51.8398,31.9063 L53.5234,31.9063 L54.4531,35.9375 L54.5078,35.9375 L55.4766,31.9063 L57.1289,31.9063 L58.1133,35.9141 L58.1641,35.9141 L59.0781,31.9063 L60.7578,31.9063 L59.1289,37.9063 L57.3672,37.9063 L56.3359,34.1328 L56.2617,34.1328 L55.2305,37.9063 L53.4727,37.9063 M63.2969,34.4375 L63.2969,37.9063 L61.6328,37.9063 L61.6328,29.9063 L63.25,29.9063 L63.25,32.9648 L63.3203,32.9648 C63.4557,32.6107 63.6745,32.3327 63.9766,32.1309 C64.2786,31.929 64.6576,31.8281 65.1133,31.8281 C65.5299,31.8281 65.8939,31.9186 66.2051,32.0996 C66.5163,32.2806 66.7585,32.5397 66.9316,32.877 C67.1048,33.2142 67.1901,33.6172 67.1875,34.0859 L67.1875,37.9063 L65.5234,37.9063 L65.5234,34.3828 C65.526,34.013 65.4329,33.7253 65.2441,33.5195 C65.0553,33.3138 64.7917,33.2109 64.4531,33.2109 C64.2266,33.2109 64.0267,33.2591 63.8535,33.3555 C63.6803,33.4518 63.5449,33.5918 63.4473,33.7754 C63.3496,33.959 63.2995,34.1797 63.2969,34.4375 M71.2266,38.0234 C70.6094,38.0234 70.0788,37.8978 69.6348,37.6465 C69.1908,37.3952 68.849,37.0384 68.6094,36.5762 C68.3698,36.1139 68.25,35.5664 68.25,34.9336 C68.25,34.3164 68.3698,33.7747 68.6094,33.3086 C68.849,32.8424 69.1868,32.4792 69.623,32.2188 C70.0592,31.9583 70.5716,31.8281 71.1602,31.8281 C71.556,31.8281 71.9251,31.8913 72.2676,32.0176 C72.61,32.1439 72.9095,32.3333 73.166,32.5859 C73.4225,32.8385 73.6224,33.1556 73.7656,33.5371 C73.9089,33.9186 73.9805,34.3646 73.9805,34.875 L73.9805,35.332 L68.9141,35.332 L68.9141,34.3008 L72.4141,34.3008 C72.4141,34.0612 72.362,33.849 72.2578,33.6641 C72.1536,33.4792 72.0098,33.334 71.8262,33.2285 C71.6426,33.123 71.4297,33.0703 71.1875,33.0703 C70.9349,33.0703 70.7116,33.1283 70.5176,33.2441 C70.3236,33.36 70.1719,33.515 70.0625,33.709 C69.9531,33.903 69.8971,34.1185 69.8945,34.3555 L69.8945,35.3359 C69.8945,35.6328 69.9499,35.8893 70.0605,36.1055 C70.1712,36.3216 70.3281,36.4883 70.5313,36.6055 C70.7344,36.7227 70.9753,36.7813 71.2539,36.7813 C71.4388,36.7813 71.6081,36.7552 71.7617,36.7031 C71.9154,36.651 72.0469,36.5729 72.1563,36.4688 C72.2656,36.3646 72.349,36.237 72.4063,36.0859 L73.9453,36.1875 C73.8672,36.5573 73.7077,36.8796 73.4668,37.1543 C73.2259,37.429 72.916,37.6426 72.5371,37.7949 C72.1582,37.9473 71.7214,38.0234 71.2266,38.0234 M76.7188,34.4375 L76.7188,37.9063 L75.0547,37.9063 L75.0547,31.9063 L76.6406,31.9063 L76.6406,32.9648 L76.7109,32.9648 C76.8438,32.6159 77.0664,32.3392 77.3789,32.1348 C77.6914,31.9303 78.0703,31.8281 78.5156,31.8281 C78.9323,31.8281 79.2956,31.9193 79.6055,32.1016 C79.9154,32.2839 80.1563,32.5436 80.3281,32.8809 C80.5,33.2181 80.5859,33.6198 80.5859,34.0859 L80.5859,37.9063 L78.9219,37.9063 L78.9219,34.3828 C78.9245,34.0156 78.8307,33.7285 78.6406,33.5215 C78.4505,33.3145 78.1888,33.2109 77.8555,33.2109 C77.6315,33.2109 77.4342,33.2591 77.2637,33.3555 C77.0931,33.4518 76.9603,33.5918 76.8652,33.7754 C76.7702,33.959 76.7214,34.1797 76.7188,34.4375 "/>
</g>

<g fill="#ffffff" fill-opacity="1" stroke="none" transform="matrix(1,0,0,1,0,0)"
font-family="Inter" font-size="11" font-weight="700" font-style="normal" 
>
<path vector-effect="none" fill-rule="nonzero" d="M168.164,38 L168.164,32 L169.828,32 L169.828,38 L168.164,38 M169,31.2266 C168.753,31.2266 168.541,31.1439 168.365,30.9785 C168.189,30.8132 168.102,30.6146 168.102,30.3828 C168.102,30.1536 168.189,29.9564 168.365,29.791 C168.541,29.6257 168.753,29.543 169,29.543 C169.247,29.543 169.459,29.6257 169.635,29.791 C169.811,29.9564 169.898,30.1536 169.898,30.3828 C169.898,30.6146 169.811,30.8132 169.635,30.9785 C169.459,31.1439 169.247,31.2266 169,31.2266 M176.141,33.7109 L174.617,33.8047 C174.591,33.6745 174.535,33.5566 174.449,33.4512 C174.363,33.3457 174.251,33.2611 174.111,33.1973 C173.972,33.1335 173.806,33.1016 173.613,33.1016 C173.355,33.1016 173.138,33.1556 172.961,33.2637 C172.784,33.3717 172.695,33.5156 172.695,33.6953 C172.695,33.8385 172.753,33.9596 172.867,34.0586 C172.982,34.1576 173.178,34.237 173.457,34.2969 L174.543,34.5156 C175.126,34.6354 175.561,34.8281 175.848,35.0938 C176.134,35.3594 176.277,35.7083 176.277,36.1406 C176.277,36.5339 176.162,36.8789 175.932,37.1758 C175.701,37.4727 175.386,37.7038 174.986,37.8691 C174.587,38.0345 174.126,38.1172 173.605,38.1172 C172.811,38.1172 172.179,37.9512 171.709,37.6191 C171.239,37.2871 170.964,36.8346 170.883,36.2617 L172.52,36.1758 C172.569,36.418 172.689,36.6022 172.879,36.7285 C173.069,36.8548 173.313,36.918 173.609,36.918 C173.901,36.918 174.136,36.8613 174.314,36.748 C174.493,36.6348 174.583,36.4883 174.586,36.3086 C174.583,36.1576 174.52,36.0332 174.395,35.9355 C174.27,35.8379 174.077,35.763 173.816,35.7109 L172.777,35.5039 C172.191,35.3867 171.756,35.1836 171.471,34.8945 C171.186,34.6055 171.043,34.237 171.043,33.7891 C171.043,33.4036 171.148,33.0716 171.357,32.793 C171.567,32.5143 171.863,32.2995 172.244,32.1484 C172.626,31.9974 173.073,31.9219 173.586,31.9219 C174.344,31.9219 174.941,32.082 175.377,32.4023 C175.813,32.7227 176.068,33.1589 176.141,33.7109 "/>
</g>

<g fill="#ffffff" fill-opacity="1" stroke="none" transform="matrix(0.228,0,0,0.228,11.6,25.6)"
font-family="Inter" font-size="11" font-weight="700" font-style="normal" 
>
<path vector-effect="none" fill-rule="nonzero" d="M23.3682,15.995 C21.89,15.995 20.7001,17.185 20.7001,18.6631 L20.7001,81.3343 C20.7001,82.8125 21.89,84.0024 23.3682,84.0024 L76.6077,84.0024 C78.0859,84.0024 79.2758,82.8125 79.2758,81.3343 L79.2758,18.6631 C79.2758,17.185 78.0859,15.995 76.6077,15.995 L50.8905,15.995 C51.6703,16.0444 52.2838,16.6869 52.2838,17.4796 L52.2838,26.9112 C52.2838,27.7362 51.6196,28.4004 50.7946,28.4004 L49.3054,28.4004 C48.4804,28.4004 47.8161,27.7362 47.8161,26.9112 L47.8161,17.4796 C47.8161,16.6869 48.4298,16.0443 49.2096,15.995 L23.3682,15.995 M46.7613,35.2087 L53.2146,35.2087 C53.9021,35.2087 54.4556,35.7622 54.4556,36.4497 L54.4556,42.903 C54.4556,43.5906 53.9021,44.1439 53.2146,44.1439 L46.7613,44.1439 C46.0738,44.1439 45.5202,43.5906 45.5202,42.903 L45.5202,36.4497 C45.5202,35.7622 46.0738,35.2087 46.7613,35.2087 "/>
</g>

<g fill="none" stroke="#000000" stroke-opacity="1" stroke-width="2.43854" stroke-linecap="butt" stroke-linejoin="miter" stroke-miterlimit="4" transform="matrix(0.228,0,0,0.228,11.6,25.6)"
font-family="Inter" font-size="11" font-weight="700" font-style="normal" 
>
<path vector-effect="none" fill-rule="nonzero" d="M23.3682,15.995 C21.89,15.995 20.7001,17.185 20.7001,18.6631 L20.7001,81.3343 C20.7001,82.8125 21.89,84.0024 23.3682,84.0024 L76.6077,84.0024 C78.0859,84.0024 79.2758,82.8125 79.2758,81.3343 L79.2758,18.6631 C79.2758,17.185 78.0859,15.995 76.6077,15.995 L50.8905,15.995 C51.6703,16.0444 52.2838,16.6869 52.2838,17.4796 L52.2838,26.9112 C52.2838,27.7362 51.6196,28.4004 50.7946,28.4004 L49.3054,28.4004 C48.4804,28.4004 47.8161,27.7362 47.8161,26.9112 L47.8161,17.4796 C47.8161,16.6869 48.4298,16.0443 49.2096,15.995 L23.3682,15.995 M46.7613,35.2087 L53.2146,35.2087 C53.9021,35.2087 54.4556,35.7622 54.4556,36.4497 L54.4556,42.903 C54.4556,43.5906 53.9021,44.1439 53.2146,44.1439 L46.7613,44.1439 C46.0738,44.1439 45.5202,43.5906 45.5202,42.903 L45.5202,36.4497 C45.5202,35.7622 46.0738,35.2087 46.7613,35.2087 "/>
</g>

<g fill="#000000" fill-opacity="1" stroke="none" transform="matrix(0.228,0,0,0.228,11.6,25.6)"
font-family="Inter" font-size="11" font-weight="700" font-style="normal" 
>
<path vector-effect="none" fill-rule="evenodd" d="M14.2421,17.9523 C14.2421,17.1298 14.9088,16.4631 15.7313,16.4631 L18.7097,16.4631 C19.5322,16.4631 20.1989,17.1298 20.1989,17.9523 L20.1989,33.8372 C20.1989,34.6597 19.5322,35.3264 18.7097,35.3264 L15.7313,35.3264 C14.9088,35.3264 14.2421,34.6597 14.2421,33.8372 L14.2421,17.9523"/>
</g>

<g fill="none" stroke="#000000" stroke-opacity="1" stroke-width="2.43854" stroke-linecap="butt" stroke-linejoin="miter" stroke-miterlimit="4" transform="matrix(0.228,0,0,0.228,11.6,25.6)"
font-family="Inter" font-size="11" font-weight="700" font-style="normal" 
>
<path vector-effect="none" fill-rule="evenodd" d="M14.2421,17.9523 C14.2421,17.1298 14.9088,16.4631 15.7313,16.4631 L18.7097,16.4631 C19.5322,16.4631 20.1989,17.1298 20.1989,17.9523 L20.1989,33.8372 C20.1989,34.6597 19.5322,35.3264 18.7097,35.3264 L15.7313,35.3264 C14.9088,35.3264 14.2421,34.6597 14.2421,33.8372 L14.2421,17.9523"/>
</g>

<g fill="#000000" fill-opacity="1" stroke="none" transform="matrix(0.228,0,0,0.228,11.6,25.6)"
font-family="Inter" font-size="11" font-weight="700" font-style="normal" 
>
<path vector-effect="none" fill-rule="evenodd" d="M79.3249,17.4662 C79.3249,16.6438 79.9916,15.977 80.8141,15.977 L83.7925,15.977 C84.615,15.977 85.2817,16.6438 85.2817,17.4662 L85.2817,33.3512 C85.2817,34.1736 84.615,34.8404 83.7925,34.8404 L80.8141,34.8404 C79.9916,34.8404 79.3249,34.1736 79.3249,33.3512 L79.3249,17.4662"/>
</g>

<g fill="none" stroke="#000000" stroke-opacity="1" stroke-width="2.43854" stroke-linecap="butt" stroke-linejoin="miter" stroke-miterlimit="4" transform="matrix(0.228,0,0,0.228,11.6,25.6)"
font-family="Inter" font-size="11" font-weight="700" font-style="normal" 
>
<path vector-effect="none" fill-rule="evenodd" d="M79.3249,17.4662 C79.3249,16.6438 79.9916,15.977 80.8141,15.977 L83.7925,15.977 C84.615,15.977 85.2817,16.6438 85.2817,17.4662 L85.2817,33.3512 C85.2817,34.1736 84.615,34.8404 83.7925,34.8404 L80.8141,34.8404 C79.9916,34.8404 79.3249,34.1736 79.3249,33.3512 L79.3249,17.4662"/>
</g>

<g fill="#000000" fill-opacity="1" stroke="none" transform="matrix(0.228,0,0,0.228,11.6,25.6)"
font-family="Inter" font-size="11" font-weight="700" font-style="normal" 
>
<path vector-effect="none" fill-rule="evenodd" d="M79.5633,66.576 C79.5633,65.7535 80.23,65.0868 81.0525,65.0868 L84.0309,65.0868 C84.8534,65.0868 85.5201,65.7535 85.5201,66.576 L85.5201,82.4609 C85.5201,83.2834 84.8534,83.9501 84.0309,83.9501 L81.0525,83.9501 C80.23,83.9501 79.5633,83.2834 79.5633,82.4609 L79.5633,66.576"/>
</g>

<g fill="none" stroke="#000000" stroke-opacity="1" stroke-width="2.43854" stroke-linecap="butt" stroke-linejoin="miter" stroke-miterlimit="4" transform="matrix(0.228,0,0,0.228,11.6,25.6)"
font-family="Inter" font-size="11" font-weight="700" font-style="normal" 
>
<path vector-effect="none" fill-rule="evenodd" d="M79.5633,66.576 C79.5633,65.7535 80.23,65.0868 81.0525,65.0868 L84.0309,65.0868 C84.8534,65.0868 85.5201,65.7535 85.5201,66.576 L85.5201,82.4609 C85.5201,83.2834 84.8534,83.9501 84.0309,83.9501 L81.0525,83.9501 C80.23,83.9501 79.5633,83.2834 79.5633,82.4609 L79.5633,66.576"/>
</g>

<g fill="#000000" fill-opacity="1" stroke="none" transform="matrix(0.228,0,0,0.228,11.6,25.6)"
font-family="Inter" font-size="11" font-weight="700" font-style="normal" 
>
<path vector-effect="none" fill-rule="evenodd" d="M14.6928,66.6283 C14.6928,65.8058 15.3595,65.1391 16.182,65.1391 L19.1604,65.1391 C19.9829,65.1391 20.6496,65.8058 20.6496,66.6283 L20.6496,82.5132 C20.6496,83.3357 19.9829,84.0024 19.1604,84.0024 L16.182,84.0024 C15.3595,84.0024 14.6928,83.3357 14.6928,82.5132 L14.6928,66.6283"/>
</g>

<g fill="none" stroke="#000000" stroke-opacity="1" stroke-width="2.43854" stroke-linecap="butt" stroke-linejoin="miter" stroke-miterlimit="4" transform="matrix(0.228,0,0,0.228,11.6,25.6)"
font-family="Inter" font-size="11" font-weight="700" font-style="normal" 
>
<path vector-effect="none" fill-rule="evenodd" d="M14.6928,66.6283 C14.6928,65.8058 15.3595,65.1391 16.182,65.1391 L19.1604,65.1391 C19.9829,65.1391 20.6496,65.8058 20.6496,66.6283 L20.6496,82.5132 C20.6496,83.3357 19.9829,84.0024 19.1604,84.0024 L16.182,84.0024 C15.3595,84.0024 14.6928,83.3357 14.6928,82.5132 L14.6928,66.6283"/>
</g>

<g fill="none" stroke="#000000" stroke-opacity="1" stroke-width="2.43854" stroke-linecap="butt" stroke-linejoin="miter" stroke-miterlimit="4" transform="matrix(0.228,0,0,0.228,11.6,25.6)"
font-family="Inter" font-size="11" font-weight="700" font-style="normal" 
>
<path vector-effect="none" fill-rule="evenodd" d="M20.92,17.503 C20.92,16.6806 21.5867,16.0138 22.4092,16.0138 L27.125,16.0138 C27.9475,16.0138 28.6142,16.6806 28.6142,17.503 L28.6142,55.9743 C28.6142,56.7968 27.9475,57.4635 27.125,57.4635 L22.4092,57.4635 C21.5867,57.4635 20.92,56.7968 20.92,55.9743 L20.92,17.503"/>
</g>

<g fill="none" stroke="#000000" stroke-opacity="1" stroke-width="2.43854" stroke-linecap="butt" stroke-linejoin="miter" stroke-miterlimit="4" transform="matrix(0.228,0,0,0.228,11.6,25.6)"
font-family="Inter" font-size="11" font-weight="700" font-style="normal" 
>
<path vector-effect="none" fill-rule="evenodd" d="M71.4269,17.6638 C71.4269,16.8414 72.0937,16.1746 72.9162,16.1746 L77.632,16.1746 C78.4545,16.1746 79.1212,16.8414 79.1212,17.6638 L79.1212,56.1351 C79.1212,56.9576 78.4545,57.6243 77.632,57.6243 L72.9162,57.6243 C72.0937,57.6243 71.4269,56.9576 71.4269,56.1351 L71.4269,17.6638"/>
</g>

<g fill="#ffffff" fill-opacity="1" stroke="none" transform="matrix(0.228,0,0,0.228,11.6,25.6)"
font-family="Inter" font-size="11" font-weight="700" font-style="normal" 
>
<path vector-effect="none" fill-rule="evenodd" d="M41.9526,15.9757 C41.9526,15.9593 41.9659,15.9461 41.9822,15.9461 L57.922,15.9461 C57.9384,15.9461 57.9516,15.9593 57.9516,15.9757 C57.9516,15.992 57.9384,16.0053 57.922,16.0053 L41.9822,16.0053 C41.9659,16.0053 41.9526,15.992 41.9526,15.9757 "/>
</g>

<g fill="none" stroke="#000000" stroke-opacity="1" stroke-width="2.3865" stroke-linecap="butt" stroke-linejoin="miter" stroke-miterlimit="4" transform="matrix(0.228,0,0,0.228,11.6,25.6)"
font-family="Inter" font-size="11" font-weight="700" font-style="normal" 
>
<path vector-effect="none" fill-rule="evenodd" d="M41.9526,15.9757 C41.9526,15.9593 41.9659,15.9461 41.9822,15.9461 L57.922,15.9461 C57.9384,15.9461 57.9516,15.9593 57.9516,15.9757 C57.9516,15.992 57.9384,16.0053 57.922,16.0053 L41.9822,16.0053 C41.9659,16.0053 41.9526,15.992 41.9526,15.9757 "/>
</g>

<g fill="#ffffff" fill-opacity="1" stroke="none" transform="matrix(1,0,0,1,0,0)"
font-family="Inter" font-size="11" font-weight="700" font-style="normal" 
>
</g>

<g fill="#ffffff" fill-opacity="1" stroke="#ba9500" stroke-opacity="1" stroke-width="1" stroke-linecap="square" stroke-linejoin="bevel" transform="matrix(1,0,0,1,0,0)"
font-family="Inter" font-size="11" font-weight="700" font-style="normal" 
>
<polyline fill="none" vector-effect="none" points="45,27 45,47 " />
</g>

<g fill="#ffffff" fill-opacity="1" stroke="#ba9500" stroke-opacity="1" stroke-width="1" stroke-linecap="square" stroke-linejoin="bevel" transform="matrix(1,0,0,1,0,0)"
font-family="Inter" font-size="11" font-weight="700" font-style="normal" 
>
</g>

<g fill="#f5c400" fill-opacity="1" stroke="#ba9500" stroke-opacity="1" stroke-width="1.2" stroke-linecap="square" stroke-linejoin="bevel" transform="matrix(1,0,0,1,87,22)"
font-family="Inter" font-size="11" font-weight="700" font-style="normal" 
>
<path vector-effect="none" fill-rule="evenodd" d="M0.5,3.5 C0.5,1.84315 1.84315,0.5 3.5,0.5 L71.5,0.5 C73.1569,0.5 74.5,1.84315 74.5,3.5 L74.5,20.5 C74.5,22.1569 73.1569,23.5 71.5,23.5 L3.5,23.5 C1.84315,23.5 0.5,22.1569 0.5,20.5 L0.5,3.5"/>
</g>

<g fill="#ffffff" fill-opacity="1" stroke="none" transform="matrix(1,0,0,1,87,22)"
font-family="Inter" font-size="11" font-weight="700" font-style="normal" 
>
<path vector-effect="none" fill-rule="nonzero" d="M10,9.39453 L10,8 L16.5703,8 L16.5703,9.39453 L14.1211,9.39453 L14.1211,16 L12.4492,16 L12.4492,9.39453 L10,9.39453 M17.6484,16 L17.6484,8 L19.3398,8 L19.3398,11.3008 L22.7734,11.3008 L22.7734,8 L24.4609,8 L24.4609,16 L22.7734,16 L22.7734,12.6953 L19.3398,12.6953 L19.3398,16 L17.6484,16 M32.543,8 L32.543,16 L31.082,16 L27.6016,10.9648 L27.543,10.9648 L27.543,16 L25.8516,16 L25.8516,8 L27.3359,8 L30.7891,13.0313 L30.8594,13.0313 L30.8594,8 L32.543,8 M33.9297,16 L33.9297,8 L35.6211,8 L35.6211,11.3008 L39.0547,11.3008 L39.0547,8 L40.7422,8 L40.7422,16 L39.0547,16 L39.0547,12.6953 L35.6211,12.6953 L35.6211,16 L33.9297,16 M42.1328,16 L42.1328,8 L45.3359,8 C45.9245,8 46.4154,8.08724 46.8086,8.26172 C47.2018,8.4362 47.4974,8.67773 47.6953,8.98633 C47.8932,9.29492 47.9922,9.64974 47.9922,10.0508 C47.9922,10.3633 47.9297,10.6374 47.8047,10.873 C47.6797,11.1087 47.5085,11.3014 47.291,11.4512 C47.0736,11.6009 46.8255,11.707 46.5469,11.7695 L46.5469,11.8477 C46.8516,11.8607 47.1374,11.9466 47.4043,12.1055 C47.6712,12.2643 47.888,12.4863 48.0547,12.7715 C48.2214,13.0566 48.3047,13.3958 48.3047,13.7891 C48.3047,14.2135 48.1999,14.5918 47.9902,14.9238 C47.7806,15.2559 47.4714,15.5182 47.0625,15.7109 C46.6536,15.9036 46.1497,16 45.5508,16 L42.1328,16 M43.8242,14.6172 L45.2031,14.6172 C45.6745,14.6172 46.0182,14.5267 46.2344,14.3457 C46.4505,14.1647 46.5586,13.9232 46.5586,13.6211 C46.5586,13.3997 46.5052,13.2044 46.3984,13.0352 C46.2917,12.8659 46.14,12.7331 45.9434,12.6367 C45.7467,12.5404 45.513,12.4922 45.2422,12.4922 L43.8242,12.4922 L43.8242,14.6172 M43.8242,11.3477 L45.0781,11.3477 C45.3099,11.3477 45.5163,11.3066 45.6973,11.2246 C45.8783,11.1426 46.0215,11.026 46.127,10.875 C46.2324,10.724 46.2852,10.543 46.2852,10.332 C46.2852,10.043 46.1829,9.8099 45.9785,9.63281 C45.7741,9.45573 45.4844,9.36719 45.1094,9.36719 L43.8242,9.36719 L43.8242,11.3477 M52.832,8 L52.832,16 L51.1406,16 L51.1406,9.60547 L51.0938,9.60547 L49.2617,10.7539 L49.2617,9.25391 L51.2422,8 L52.832,8"/>
</g>

<g fill="#ffffff" fill-opacity="1" stroke="none" transform="matrix(0.03125,0,0,0.03125,148,30)"
font-family="Inter" font-size="11" font-weight="700" font-style="normal" 
>
<path vector-effect="none" fill-rule="nonzero" d="M111.326,191.938 C120.545,201.158 135.517,201.158 144.737,191.938 L239.144,97.5313 C245.929,90.7458 247.921,80.6413 244.233,71.7907 C240.545,62.9401 231.989,57.1871 222.401,57.1871 L33.5875,57.2608 C24.0731,57.2608 15.4437,63.0137 11.7559,71.8644 C8.06815,80.715 10.1333,90.8195 16.845,97.605 L111.252,192.012 L111.326,191.938"/>
</g>

<g fill="none" stroke="#000000" stroke-opacity="1" stroke-width="13.7195" stroke-linecap="butt" stroke-linejoin="miter" stroke-miterlimit="4" transform="matrix(0.03125,0,0,0.03125,148,30)"
font-family="Inter" font-size="11" font-weight="700" font-style="normal" 
>
<path vector-effect="none" fill-rule="nonzero" d="M111.326,191.938 C120.545,201.158 135.517,201.158 144.737,191.938 L239.144,97.5313 C245.929,90.7458 247.921,80.6413 244.233,71.7907 C240.545,62.9401 231.989,57.1871 222.401,57.1871 L33.5875,57.2608 C24.0731,57.2608 15.4437,63.0137 11.7559,71.8644 C8.06815,80.715 10.1333,90.8195 16.845,97.605 L111.252,192.012 L111.326,191.938"/>
</g>

<g fill="#ffffff" fill-opacity="1" stroke="none" transform="matrix(1,0,0,1,87,22)"
font-family="Inter" font-size="11" font-weight="700" font-style="normal" 
>
</g>

<g fill="#ffffff" fill-opacity="1" stroke="#ba9500" stroke-opacity="1" stroke-width="1" stroke-linecap="square" stroke-linejoin="bevel" transform="matrix(1,0,0,1,0,0)"
font-family="Inter" font-size="11" font-weight="700" font-style="normal" 
>
</g>

<g fill="#f5c400" fill-opacity="1" stroke="#ba9500" stroke-opacity="1" stroke-width="1.2" stroke-linecap="square" stroke-linejoin="bevel" transform="matrix(1,0,0,1,183,22)"
font-family="Inter" font-size="11" font-weight="700" font-style="normal" 
>
<path vector-effect="none" fill-rule="evenodd" d="M0.5,3.5 C0.5,1.84315 1.84315,0.5 3.5,0.5 L85,0.5 C86.6569,0.5 88,1.84315 88,3.5 L88,20.5 C88,22.1569 86.6569,23.5 85,23.5 L3.5,23.5 C1.84315,23.5 0.5,22.1569 0.5,20.5 L0.5,3.5"/>
</g>

<g fill="#ffffff" fill-opacity="1" stroke="none" transform="matrix(1,0,0,1,183,22)"
font-family="Inter" font-size="11" font-weight="700" font-style="normal" 
>
<path vector-effect="none" fill-rule="nonzero" d="M12.4531,15.8516 C11.8385,15.8516 11.3105,15.7207 10.8691,15.459 C10.4277,15.1973 10.0892,14.8333 9.85352,14.3672 C9.61784,13.901 9.5,13.3646 9.5,12.7578 C9.5,12.1432 9.61914,11.6035 9.85742,11.1387 C10.0957,10.6738 10.4349,10.3105 10.875,10.0488 C11.3151,9.78711 11.8385,9.65625 12.4453,9.65625 C12.9688,9.65625 13.4271,9.7513 13.8203,9.94141 C14.2135,10.1315 14.5247,10.3984 14.7539,10.7422 C14.9831,11.0859 15.1094,11.4896 15.1328,11.9531 L13.5625,11.9531 C13.5182,11.6536 13.4017,11.4121 13.2129,11.2285 C13.0241,11.0449 12.7773,10.9531 12.4727,10.9531 C12.2148,10.9531 11.9902,11.0228 11.7988,11.1621 C11.6074,11.3014 11.4583,11.5039 11.3516,11.7695 C11.2448,12.0352 11.1914,12.3568 11.1914,12.7344 C11.1914,13.1172 11.2441,13.4427 11.3496,13.7109 C11.4551,13.9792 11.6042,14.1836 11.7969,14.3242 C11.9896,14.4648 12.2148,14.5352 12.4727,14.5352 C12.6628,14.5352 12.834,14.4961 12.9863,14.418 C13.1387,14.3398 13.265,14.2259 13.3652,14.0762 C13.4655,13.9264 13.5313,13.7461 13.5625,13.5352 L15.1328,13.5352 C15.1068,13.9935 14.9824,14.3965 14.7598,14.7441 C14.5371,15.0918 14.2305,15.3633 13.8398,15.5586 C13.4492,15.7539 12.987,15.8516 12.4531,15.8516 M18.9063,15.8516 C18.2995,15.8516 17.7754,15.722 17.334,15.4629 C16.8926,15.2038 16.5521,14.8418 16.3125,14.377 C16.0729,13.9121 15.9531,13.3724 15.9531,12.7578 C15.9531,12.138 16.0729,11.5957 16.3125,11.1309 C16.5521,10.666 16.8926,10.304 17.334,10.0449 C17.7754,9.78581 18.2995,9.65625 18.9063,9.65625 C19.513,9.65625 20.0371,9.78581 20.4785,10.0449 C20.9199,10.304 21.2604,10.666 21.5,11.1309 C21.7396,11.5957 21.8594,12.138 21.8594,12.7578 C21.8594,13.3724 21.7396,13.9121 21.5,14.377 C21.2604,14.8418 20.9199,15.2038 20.4785,15.4629 C20.0371,15.722 19.513,15.8516 18.9063,15.8516 M18.9141,14.5625 C19.1901,14.5625 19.4206,14.4837 19.6055,14.3262 C19.7904,14.1686 19.9303,13.9531 20.0254,13.6797 C20.1204,13.4063 20.168,13.0951 20.168,12.7461 C20.168,12.3971 20.1204,12.0859 20.0254,11.8125 C19.9303,11.5391 19.7904,11.3229 19.6055,11.1641 C19.4206,11.0052 19.1901,10.9258 18.9141,10.9258 C18.6354,10.9258 18.4017,11.0052 18.2129,11.1641 C18.0241,11.3229 17.8822,11.5391 17.7871,11.8125 C17.6921,12.0859 17.6445,12.3971 17.6445,12.7461 C17.6445,13.0951 17.6921,13.4063 17.7871,13.6797 C17.8822,13.9531 18.0241,14.1686 18.2129,14.3262 C18.4017,14.4837 18.6354,14.5625 18.9141,14.5625 M24.6094,12.2656 L24.6094,15.7344 L22.9453,15.7344 L22.9453,9.73438 L24.5313,9.73438 L24.5313,10.793 L24.6016,10.793 C24.7344,10.444 24.957,10.1673 25.2695,9.96289 C25.582,9.75846 25.9609,9.65625 26.4063,9.65625 C26.8229,9.65625 27.1862,9.7474 27.4961,9.92969 C27.806,10.112 28.0469,10.3717 28.2188,10.709 C28.3906,11.0462 28.4766,11.4479 28.4766,11.9141 L28.4766,15.7344 L26.8125,15.7344 L26.8125,12.2109 C26.8151,11.8438 26.7214,11.5566 26.5313,11.3496 C26.3411,11.1426 26.0794,11.0391 25.7461,11.0391 C25.5221,11.0391 25.3249,11.0872 25.1543,11.1836 C24.9837,11.2799 24.8509,11.4199 24.7559,11.6035 C24.6608,11.7871 24.612,12.0078 24.6094,12.2656 M31.4375,12.2656 L31.4375,15.7344 L29.7734,15.7344 L29.7734,9.73438 L31.3594,9.73438 L31.3594,10.793 L31.4297,10.793 C31.5625,10.444 31.7852,10.1673 32.0977,9.96289 C32.4102,9.75846 32.7891,9.65625 33.2344,9.65625 C33.651,9.65625 34.0143,9.7474 34.3242,9.92969 C34.6341,10.112 34.875,10.3717 35.0469,10.709 C35.2188,11.0462 35.3047,11.4479 35.3047,11.9141 L35.3047,15.7344 L33.6406,15.7344 L33.6406,12.2109 C33.6432,11.8438 33.5495,11.5566 33.3594,11.3496 C33.1693,11.1426 32.9076,11.0391 32.5742,11.0391 C32.3503,11.0391 32.153,11.0872 31.9824,11.1836 C31.8118,11.2799 31.679,11.4199 31.584,11.6035 C31.4889,11.7871 31.4401,12.0078 31.4375,12.2656 M39.3359,15.8516 C38.7188,15.8516 38.1882,15.7259 37.7441,15.4746 C37.3001,15.2233 36.9583,14.8665 36.7188,14.4043 C36.4792,13.9421 36.3594,13.3945 36.3594,12.7617 C36.3594,12.1445 36.4792,11.6029 36.7188,11.1367 C36.9583,10.6706 37.2962,10.3073 37.7324,10.0469 C38.1686,9.78646 38.681,9.65625 39.2695,9.65625 C39.6654,9.65625 40.0345,9.7194 40.377,9.8457 C40.7194,9.97201 41.0189,10.1615 41.2754,10.4141 C41.5319,10.6667 41.7318,10.9837 41.875,11.3652 C42.0182,11.7467 42.0898,12.1927 42.0898,12.7031 L42.0898,13.1602 L37.0234,13.1602 L37.0234,12.1289 L40.5234,12.1289 C40.5234,11.8893 40.4714,11.6771 40.3672,11.4922 C40.263,11.3073 40.1191,11.1621 39.9355,11.0566 C39.752,10.9512 39.5391,10.8984 39.2969,10.8984 C39.0443,10.8984 38.821,10.9564 38.627,11.0723 C38.4329,11.1882 38.2813,11.3431 38.1719,11.5371 C38.0625,11.7311 38.0065,11.9466 38.0039,12.1836 L38.0039,13.1641 C38.0039,13.4609 38.0592,13.7174 38.1699,13.9336 C38.2806,14.1497 38.4375,14.3164 38.6406,14.4336 C38.8438,14.5508 39.0846,14.6094 39.3633,14.6094 C39.5482,14.6094 39.7174,14.5833 39.8711,14.5313 C40.0247,14.4792 40.1563,14.401 40.2656,14.2969 C40.375,14.1927 40.4583,14.0651 40.5156,13.9141 L42.0547,14.0156 C41.9766,14.3854 41.8171,14.7077 41.5762,14.9824 C41.3353,15.2572 41.0254,15.4707 40.6465,15.623 C40.2676,15.7754 39.8307,15.8516 39.3359,15.8516 M45.875,15.8516 C45.2604,15.8516 44.7324,15.7207 44.291,15.459 C43.8496,15.1973 43.5111,14.8333 43.2754,14.3672 C43.0397,13.901 42.9219,13.3646 42.9219,12.7578 C42.9219,12.1432 43.041,11.6035 43.2793,11.1387 C43.5176,10.6738 43.8568,10.3105 44.2969,10.0488 C44.737,9.78711 45.2604,9.65625 45.8672,9.65625 C46.3906,9.65625 46.849,9.7513 47.2422,9.94141 C47.6354,10.1315 47.9466,10.3984 48.1758,10.7422 C48.4049,11.0859 48.5313,11.4896 48.5547,11.9531 L46.9844,11.9531 C46.9401,11.6536 46.8236,11.4121 46.6348,11.2285 C46.446,11.0449 46.1992,10.9531 45.8945,10.9531 C45.6367,10.9531 45.4121,11.0228 45.2207,11.1621 C45.0293,11.3014 44.8802,11.5039 44.7734,11.7695 C44.6667,12.0352 44.6133,12.3568 44.6133,12.7344 C44.6133,13.1172 44.666,13.4427 44.7715,13.7109 C44.877,13.9792 45.026,14.1836 45.2188,14.3242 C45.4115,14.4648 45.6367,14.5352 45.8945,14.5352 C46.0846,14.5352 46.2559,14.4961 46.4082,14.418 C46.5605,14.3398 46.6868,14.2259 46.7871,14.0762 C46.8874,13.9264 46.9531,13.7461 46.9844,13.5352 L48.5547,13.5352 C48.5286,13.9935 48.4043,14.3965 48.1816,14.7441 C47.959,15.0918 47.6523,15.3633 47.2617,15.5586 C46.8711,15.7539 46.4089,15.8516 45.875,15.8516 M52.8086,9.73438 L52.8086,10.9844 L49.1953,10.9844 L49.1953,9.73438 L52.8086,9.73438 M50.0156,8.29688 L51.6797,8.29688 L51.6797,13.8906 C51.6797,14.0443 51.7031,14.1634 51.75,14.248 C51.7969,14.3327 51.8626,14.3919 51.9473,14.4258 C52.0319,14.4596 52.1302,14.4766 52.2422,14.4766 C52.3203,14.4766 52.3984,14.4694 52.4766,14.4551 C52.5547,14.4408 52.6146,14.4297 52.6563,14.4219 L52.918,15.6602 C52.8346,15.6862 52.7174,15.7168 52.5664,15.752 C52.4154,15.7871 52.2318,15.8086 52.0156,15.8164 C51.6146,15.832 51.2637,15.7786 50.9629,15.6563 C50.6621,15.5339 50.4284,15.3438 50.2617,15.0859 C50.0951,14.8281 50.013,14.5026 50.0156,14.1094 L50.0156,8.29688 M56.5547,15.8516 C55.9375,15.8516 55.4069,15.7259 54.9629,15.4746 C54.5189,15.2233 54.1771,14.8665 53.9375,14.4043 C53.6979,13.9421 53.5781,13.3945 53.5781,12.7617 C53.5781,12.1445 53.6979,11.6029 53.9375,11.1367 C54.1771,10.6706 54.515,10.3073 54.9512,10.0469 C55.3874,9.78646 55.8997,9.65625 56.4883,9.65625 C56.8841,9.65625 57.2533,9.7194 57.5957,9.8457 C57.9382,9.97201 58.2376,10.1615 58.4941,10.4141 C58.7507,10.6667 58.9505,10.9837 59.0938,11.3652 C59.237,11.7467 59.3086,12.1927 59.3086,12.7031 L59.3086,13.1602 L54.2422,13.1602 L54.2422,12.1289 L57.7422,12.1289 C57.7422,11.8893 57.6901,11.6771 57.5859,11.4922 C57.4818,11.3073 57.3379,11.1621 57.1543,11.0566 C56.9707,10.9512 56.7578,10.8984 56.5156,10.8984 C56.263,10.8984 56.0397,10.9564 55.8457,11.0723 C55.6517,11.1882 55.5,11.3431 55.3906,11.5371 C55.2813,11.7311 55.2253,11.9466 55.2227,12.1836 L55.2227,13.1641 C55.2227,13.4609 55.278,13.7174 55.3887,13.9336 C55.4993,14.1497 55.6563,14.3164 55.8594,14.4336 C56.0625,14.5508 56.3034,14.6094 56.582,14.6094 C56.7669,14.6094 56.9362,14.5833 57.0898,14.5313 C57.2435,14.4792 57.375,14.401 57.4844,14.2969 C57.5938,14.1927 57.6771,14.0651 57.7344,13.9141 L59.2734,14.0156 C59.1953,14.3854 59.0358,14.7077 58.7949,14.9824 C58.554,15.2572 58.2441,15.4707 57.8652,15.623 C57.4863,15.7754 57.0495,15.8516 56.5547,15.8516 M62.5938,15.832 C62.138,15.832 61.7259,15.7142 61.3574,15.4785 C60.9889,15.2428 60.6973,14.8952 60.4824,14.4355 C60.2676,13.9759 60.1602,13.4115 60.1602,12.7422 C60.1602,12.0547 60.2708,11.4824 60.4922,11.0254 C60.7135,10.5684 61.0085,10.2259 61.377,9.99805 C61.7454,9.77018 62.1497,9.65625 62.5898,9.65625 C62.9258,9.65625 63.2064,9.71289 63.4316,9.82617 C63.6569,9.93945 63.8392,10.0801 63.9785,10.248 C64.1178,10.416 64.224,10.5807 64.2969,10.7422 L64.3477,10.7422 L64.3477,7.73438 L66.0078,7.73438 L66.0078,15.7344 L64.3672,15.7344 L64.3672,14.7734 L64.2969,14.7734 C64.2188,14.9401 64.1087,15.1048 63.9668,15.2676 C63.8249,15.4303 63.6413,15.5651 63.416,15.6719 C63.1908,15.7786 62.9167,15.832 62.5938,15.832 M63.1211,14.5078 C63.3893,14.5078 63.6165,14.4342 63.8027,14.2871 C63.9889,14.14 64.1322,13.9336 64.2324,13.668 C64.3327,13.4023 64.3828,13.0911 64.3828,12.7344 C64.3828,12.3776 64.3333,12.0677 64.2344,11.8047 C64.1354,11.5417 63.9922,11.3385 63.8047,11.1953 C63.6172,11.0521 63.3893,10.9805 63.1211,10.9805 C62.8477,10.9805 62.6172,11.0547 62.4297,11.2031 C62.2422,11.3516 62.1003,11.5573 62.0039,11.8203 C61.9076,12.0833 61.8594,12.388 61.8594,12.7344 C61.8594,13.0833 61.9082,13.3913 62.0059,13.6582 C62.1035,13.9251 62.2454,14.1335 62.4316,14.2832 C62.6178,14.4329 62.8477,14.5078 63.1211,14.5078 "/>
</g>

<g fill="#ffffff" fill-opacity="1" stroke="none" transform="matrix(0.03125,0,0,0.03125,257.5,30)"
font-family="Inter" font-size="11" font-weight="700" font-style="normal" 
>
<path vector-effect="none" fill-rule="nonzero" d="M111.326,191.938 C120.545,201.158 135.517,201.158 144.737,191.938 L239.144,97.5313 C245.929,90.7458 247.921,80.6413 244.233,71.7907 C240.545,62.9401 231.989,57.1871 222.401,57.1871 L33.5875,57.2608 C24.0731,57.2608 15.4437,63.0137 11.7559,71.8644 C8.06815,80.715 10.1333,90.8195 16.845,97.605 L111.252,192.012 L111.326,191.938"/>
</g>

<g fill="none" stroke="#000000" stroke-opacity="1" stroke-width="13.7195" stroke-linecap="butt" stroke-linejoin="miter" stroke-miterlimit="4" transform="matrix(0.03125,0,0,0.03125,257.5,30)"
font-family="Inter" font-size="11" font-weight="700" font-style="normal" 
>
<path vector-effect="none" fill-rule="nonzero" d="M111.326,191.938 C120.545,201.158 135.517,201.158 144.737,191.938 L239.144,97.5313 C245.929,90.7458 247.921,80.6413 244.233,71.7907 C240.545,62.9401 231.989,57.1871 222.401,57.1871 L33.5875,57.2608 C24.0731,57.2608 15.4437,63.0137 11.7559,71.8644 C8.06815,80.715 10.1333,90.8195 16.845,97.605 L111.252,192.012 L111.326,191.938"/>
</g>

<g fill="#ffffff" fill-opacity="1" stroke="none" transform="matrix(1,0,0,1,183,22)"
font-family="Inter" font-size="11" font-weight="700" font-style="normal" 
>
</g>

<g fill="#ffffff" fill-opacity="1" stroke="#ba9500" stroke-opacity="1" stroke-width="1" stroke-linecap="square" stroke-linejoin="bevel" transform="matrix(1,0,0,1,0,0)"
font-family="Inter" font-size="11" font-weight="700" font-style="normal" 
>
</g>

<g fill="none" stroke="#000000" stroke-opacity="1" stroke-width="1" stroke-linecap="square" stroke-linejoin="bevel" transform="matrix(1,0,0,1,0,0)"
font-family=".AppleSystemUIFont" font-size="13" font-weight="400" font-style="normal" 
>
</g>
</g>
</svg>
