<?xml version="1.0" encoding="UTF-8" standalone="no"?>
<svg width="33.1611mm" height="9.87778mm"
 viewBox="0 0 94 28"
 xmlns="http://www.w3.org/2000/svg" xmlns:xlink="http://www.w3.org/1999/xlink" version="1.2" baseProfile="tiny">
<title>Abstract block</title>
<desc>block_operator_modulus</desc>
<defs>
</defs>
<g fill="none" stroke="black" stroke-width="1" fill-rule="evenodd" stroke-linecap="square" stroke-linejoin="bevel" >

<g fill="none" stroke="#000000" stroke-opacity="1" stroke-width="1" stroke-linecap="square" stroke-linejoin="bevel" transform="matrix(1,0,0,1,0,0)"
font-family=".AppleSystemUIFont" font-size="13" font-weight="400" font-style="normal" 
>
</g>

<g fill="none" stroke="#000000" stroke-opacity="1" stroke-width="1" stroke-linecap="square" stroke-linejoin="bevel" transform="matrix(1,0,0,1,0,0)"
font-family=".AppleSystemUIFont" font-size="13" font-weight="400" font-style="normal" 
>
</g>

<g fill="#00b94d" fill-opacity="1" stroke="#007e32" stroke-opacity="1" stroke-width="1.2" stroke-linecap="square" stroke-linejoin="bevel" transform="matrix(1,0,0,1,0,0)"
font-family=".AppleSystemUIFont" font-size="13" font-weight="400" font-style="normal" 
>
<path vector-effect="none" fill-rule="evenodd" d="M0.5,14 C0.5,6.54416 6.76801,0.5 14.5,0.5 L79.3,0.5 C87.032,0.5 93.3,6.54416 93.3,14 C93.3,21.4558 87.032,27.5 79.3,27.5 L14.5,27.5 C6.76801,27.5 0.5,21.4558 0.5,14 "/>
</g>

<g fill="#ffffff" fill-opacity="1" stroke="none" transform="matrix(1,0,0,1,0,0)"
font-family="Inter" font-size="11" font-weight="700" font-style="normal" 
>
<path vector-effect="none" fill-rule="nonzero" d="M35.3047,17.9063 L35.3047,11.9063 L36.8906,11.9063 L36.8906,12.9648 L36.9609,12.9648 C37.0859,12.6133 37.2943,12.3359 37.5859,12.1328 C37.8776,11.9297 38.2266,11.8281 38.6328,11.8281 C39.0443,11.8281 39.3945,11.9303 39.6836,12.1348 C39.9727,12.3392 40.1654,12.6159 40.2617,12.9648 L40.3242,12.9648 C40.4466,12.6211 40.6686,12.3457 40.9902,12.1387 C41.3118,11.9316 41.6927,11.8281 42.1328,11.8281 C42.6927,11.8281 43.1478,12.0059 43.498,12.3613 C43.8483,12.7168 44.0234,13.2201 44.0234,13.8711 L44.0234,17.9063 L42.3633,17.9063 L42.3633,14.1992 C42.3633,13.8659 42.2747,13.6159 42.0977,13.4492 C41.9206,13.2826 41.6992,13.1992 41.4336,13.1992 C41.1315,13.1992 40.8958,13.2949 40.7266,13.4863 C40.5573,13.6777 40.4727,13.9297 40.4727,14.2422 L40.4727,17.9063 L38.8594,17.9063 L38.8594,14.1641 C38.8594,13.8698 38.7754,13.6354 38.6074,13.4609 C38.4395,13.2865 38.2188,13.1992 37.9453,13.1992 C37.7604,13.1992 37.5944,13.2454 37.4473,13.3379 C37.3001,13.4303 37.1836,13.5592 37.0977,13.7246 C37.0117,13.89 36.9688,14.0833 36.9688,14.3047 L36.9688,17.9063 L35.3047,17.9063 M48.0469,18.0234 C47.4401,18.0234 46.916,17.8939 46.4746,17.6348 C46.0332,17.3757 45.6927,17.0137 45.4531,16.5488 C45.2135,16.084 45.0938,15.5443 45.0938,14.9297 C45.0938,14.3099 45.2135,13.7676 45.4531,13.3027 C45.6927,12.8379 46.0332,12.4759 46.4746,12.2168 C46.916,11.9577 47.4401,11.8281 48.0469,11.8281 C48.6536,11.8281 49.1777,11.9577 49.6191,12.2168 C50.0605,12.4759 50.401,12.8379 50.6406,13.3027 C50.8802,13.7676 51,14.3099 51,14.9297 C51,15.5443 50.8802,16.084 50.6406,16.5488 C50.401,17.0137 50.0605,17.3757 49.6191,17.6348 C49.1777,17.8939 48.6536,18.0234 48.0469,18.0234 M48.0547,16.7344 C48.3307,16.7344 48.5612,16.6556 48.7461,16.498 C48.931,16.3405 49.071,16.125 49.166,15.8516 C49.2611,15.5781 49.3086,15.2669 49.3086,14.918 C49.3086,14.569 49.2611,14.2578 49.166,13.9844 C49.071,13.7109 48.931,13.4948 48.7461,13.3359 C48.5612,13.1771 48.3307,13.0977 48.0547,13.0977 C47.776,13.0977 47.5423,13.1771 47.3535,13.3359 C47.1647,13.4948 47.0228,13.7109 46.9277,13.9844 C46.8327,14.2578 46.7852,14.569 46.7852,14.918 C46.7852,15.2669 46.8327,15.5781 46.9277,15.8516 C47.0228,16.125 47.1647,16.3405 47.3535,16.498 C47.5423,16.6556 47.776,16.7344 48.0547,16.7344 M54.2969,18.0039 C53.8411,18.0039 53.429,17.8861 53.0605,17.6504 C52.6921,17.4147 52.4004,17.0671 52.1855,16.6074 C51.9707,16.1478 51.8633,15.5833 51.8633,14.9141 C51.8633,14.2266 51.974,13.6543 52.1953,13.1973 C52.4167,12.7402 52.7116,12.3978 53.0801,12.1699 C53.4486,11.9421 53.8529,11.8281 54.293,11.8281 C54.6289,11.8281 54.9095,11.8848 55.1348,11.998 C55.36,12.1113 55.5423,12.252 55.6816,12.4199 C55.821,12.5879 55.9271,12.7526 56,12.9141 L56.0508,12.9141 L56.0508,9.90625 L57.7109,9.90625 L57.7109,17.9063 L56.0703,17.9063 L56.0703,16.9453 L56,16.9453 C55.9219,17.112 55.8118,17.2767 55.6699,17.4395 C55.528,17.6022 55.3444,17.737 55.1191,17.8438 C54.8939,17.9505 54.6198,18.0039 54.2969,18.0039 M54.8242,16.6797 C55.0924,16.6797 55.3197,16.6061 55.5059,16.459 C55.6921,16.3118 55.8353,16.1055 55.9355,15.8398 C56.0358,15.5742 56.0859,15.263 56.0859,14.9063 C56.0859,14.5495 56.0365,14.2396 55.9375,13.9766 C55.8385,13.7135 55.6953,13.5104 55.5078,13.3672 C55.3203,13.224 55.0924,13.1523 54.8242,13.1523 C54.5508,13.1523 54.3203,13.2266 54.1328,13.375 C53.9453,13.5234 53.8034,13.7292 53.707,13.9922 C53.6107,14.2552 53.5625,14.5599 53.5625,14.9063 C53.5625,15.2552 53.6113,15.5632 53.709,15.8301 C53.8066,16.097 53.9486,16.3053 54.1348,16.4551 C54.321,16.6048 54.5508,16.6797 54.8242,16.6797 "/>
</g>

<g fill="#ffffff" fill-opacity="1" stroke="none" transform="matrix(1,0,0,1,0,0)"
font-family="Inter" font-size="11" font-weight="700" font-style="normal" 
>
</g>

<g fill="#ffffff" fill-opacity="1" stroke="none" transform="matrix(1,0,0,1,0,0)"
font-family="Inter" font-size="11" font-weight="700" font-style="normal" 
>
</g>

<g fill="#ffffff" fill-opacity="1" stroke="#006a2a" stroke-opacity="1" stroke-width="1.2" stroke-linecap="square" stroke-linejoin="bevel" transform="matrix(1,0,0,1,3,3)"
font-family="Inter" font-size="11" font-weight="700" font-style="normal" 
>
<path vector-effect="none" fill-rule="evenodd" d="M1,11 C1,5.47715 5.92487,1 12,1 L14.4,1 C20.4751,1 25.4,5.47715 25.4,11 C25.4,16.5228 20.4751,21 14.4,21 L12,21 C5.92487,21 1,16.5228 1,11 "/>
</g>

<g fill="#000000" fill-opacity="1" stroke="none" transform="matrix(1,0,0,1,3,3)"
font-family="Inter" font-size="10" font-weight="700" font-style="normal" 
>
<path vector-effect="none" fill-rule="nonzero" d="M12.9411,14.5817 C12.3303,14.5793 11.8053,14.429 11.3661,14.1307 C10.927,13.8324 10.5896,13.4003 10.354,12.8345 C10.1185,12.2687 10.0019,11.5881 10.0043,10.7926 C10.0043,9.99953 10.122,9.32363 10.3576,8.76491 C10.5932,8.2062 10.9305,7.78066 11.3697,7.48828 C11.8088,7.1959 12.3326,7.04972 12.9411,7.04972 C13.5495,7.04972 14.0733,7.1965 14.5124,7.49006 C14.9516,7.78362 15.2895,8.20916 15.5263,8.76669 C15.763,9.32422 15.8802,9.99953 15.8778,10.7926 C15.8778,11.5904 15.7601,12.2723 15.5245,12.8381 C15.2889,13.4039 14.9522,13.8359 14.5142,14.1342 C14.0762,14.4325 13.5518,14.5817 12.9411,14.5817 M12.9411,13.3068 C13.3577,13.3068 13.6903,13.0973 13.9389,12.6783 C14.1875,12.2592 14.3106,11.6307 14.3082,10.7926 C14.3082,10.241 14.252,9.78172 14.1396,9.41477 C14.0271,9.04782 13.8685,8.77202 13.6637,8.58736 C13.4589,8.4027 13.218,8.31037 12.9411,8.31037 C12.5268,8.31037 12.1953,8.51752 11.9467,8.93182 C11.6982,9.34612 11.5727,9.96638 11.5703,10.7926 C11.5703,11.3513 11.6265,11.8171 11.739,12.19 C11.8514,12.5629 12.0107,12.8422 12.2166,13.0281 C12.4226,13.2139 12.6641,13.3068 12.9411,13.3068 "/>
</g>

<g fill="#ffffff" fill-opacity="1" stroke="none" transform="matrix(1,0,0,1,0,0)"
font-family="Inter" font-size="11" font-weight="700" font-style="normal" 
>
</g>

<g fill="#ffffff" fill-opacity="1" stroke="#006a2a" stroke-opacity="1" stroke-width="1.2" stroke-linecap="square" stroke-linejoin="bevel" transform="matrix(1,0,0,1,64.4,3)"
font-family="Inter" font-size="11" font-weight="700" font-style="normal" 
>
<path vector-effect="none" fill-rule="evenodd" d="M1,11 C1,5.47715 5.92487,1 12,1 L14.4,1 C20.4751,1 25.4,5.47715 25.4,11 C25.4,16.5228 20.4751,21 14.4,21 L12,21 C5.92487,21 1,16.5228 1,11 "/>
</g>

<g fill="#000000" fill-opacity="1" stroke="none" transform="matrix(1,0,0,1,64.4,3)"
font-family="Inter" font-size="10" font-weight="700" font-style="normal" 
>
<path vector-effect="none" fill-rule="nonzero" d="M12.9411,14.5817 C12.3303,14.5793 11.8053,14.429 11.3661,14.1307 C10.927,13.8324 10.5896,13.4003 10.354,12.8345 C10.1185,12.2687 10.0019,11.5881 10.0043,10.7926 C10.0043,9.99953 10.122,9.32363 10.3576,8.76491 C10.5932,8.2062 10.9305,7.78066 11.3697,7.48828 C11.8088,7.1959 12.3326,7.04972 12.9411,7.04972 C13.5495,7.04972 14.0733,7.1965 14.5124,7.49006 C14.9516,7.78362 15.2895,8.20916 15.5263,8.76669 C15.763,9.32422 15.8802,9.99953 15.8778,10.7926 C15.8778,11.5904 15.7601,12.2723 15.5245,12.8381 C15.2889,13.4039 14.9522,13.8359 14.5142,14.1342 C14.0762,14.4325 13.5518,14.5817 12.9411,14.5817 M12.9411,13.3068 C13.3577,13.3068 13.6903,13.0973 13.9389,12.6783 C14.1875,12.2592 14.3106,11.6307 14.3082,10.7926 C14.3082,10.241 14.252,9.78172 14.1396,9.41477 C14.0271,9.04782 13.8685,8.77202 13.6637,8.58736 C13.4589,8.4027 13.218,8.31037 12.9411,8.31037 C12.5268,8.31037 12.1953,8.51752 11.9467,8.93182 C11.6982,9.34612 11.5727,9.96638 11.5703,10.7926 C11.5703,11.3513 11.6265,11.8171 11.739,12.19 C11.8514,12.5629 12.0107,12.8422 12.2166,13.0281 C12.4226,13.2139 12.6641,13.3068 12.9411,13.3068 "/>
</g>

<g fill="#ffffff" fill-opacity="1" stroke="none" transform="matrix(1,0,0,1,0,0)"
font-family="Inter" font-size="11" font-weight="700" font-style="normal" 
>
</g>

<g fill="#ffffff" fill-opacity="1" stroke="none" transform="matrix(1,0,0,1,0,0)"
font-family="Inter" font-size="11" font-weight="700" font-style="normal" 
>
</g>

<g fill="none" stroke="#000000" stroke-opacity="1" stroke-width="1" stroke-linecap="square" stroke-linejoin="bevel" transform="matrix(1,0,0,1,0,0)"
font-family=".AppleSystemUIFont" font-size="13" font-weight="400" font-style="normal" 
>
</g>
</g>
</svg>
