<?xml version="1.0" encoding="UTF-8" standalone="no"?>
<svg width="58.2083mm" height="15.5222mm"
 viewBox="0 0 165 44"
 xmlns="http://www.w3.org/2000/svg" xmlns:xlink="http://www.w3.org/1999/xlink" version="1.2" baseProfile="tiny">
<title>Abstract block</title>
<desc>block_variables_set_to</desc>
<defs>
</defs>
<g fill="none" stroke="black" stroke-width="1" fill-rule="evenodd" stroke-linecap="square" stroke-linejoin="bevel" >

<g fill="none" stroke="#000000" stroke-opacity="1" stroke-width="1" stroke-linecap="square" stroke-linejoin="bevel" transform="matrix(1,0,0,1,0,0)"
font-family=".AppleSystemUIFont" font-size="13" font-weight="400" font-style="normal" 
>
</g>

<g fill="none" stroke="#000000" stroke-opacity="1" stroke-width="1" stroke-linecap="square" stroke-linejoin="bevel" transform="matrix(1,0,0,1,0,0)"
font-family=".AppleSystemUIFont" font-size="13" font-weight="400" font-style="normal" 
>
</g>

<g fill="#ff9835" fill-opacity="1" stroke="#f87800" stroke-opacity="1" stroke-width="1.2" stroke-linecap="square" stroke-linejoin="bevel" transform="matrix(1,0,0,1,0,0)"
font-family=".AppleSystemUIFont" font-size="13" font-weight="400" font-style="normal" 
>
<path vector-effect="none" fill-rule="evenodd" d="M0.5,4.5 L1.04612,2.48112 L2.48112,1.04612 L4.5,0.5 L9.625,0.5 L10.416,0.976563 L11.1719,1.6875 L11.998,2.67969 L13,4 L13.7559,4.66016 L14.5469,5.15625 L15.4082,5.51172 L16.375,5.75 L17.4824,5.89453 L18.7656,5.96875 L20.2598,5.99609 L22,6 L23.7402,5.99609 L25.2344,5.96875 L26.5176,5.89453 L27.625,5.75 L28.5918,5.51172 L29.4531,5.15625 L30.2441,4.66016 L31,4 L32.002,2.67969 L32.8281,1.6875 L33.584,0.976563 L34.375,0.5 L160.4,0.5 L162.419,1.04612 L163.854,2.48112 L164.4,4.5 L164.4,31.5 L163.854,33.5189 L162.419,34.9539 L160.4,35.5 L34.375,35.5 L33.584,35.9766 L32.8281,36.6875 L32.002,37.6797 L31,39 L30.2441,39.6602 L29.4531,40.1563 L28.5918,40.5117 L27.625,40.75 L26.5176,40.8945 L25.2344,40.9688 L23.7402,40.9961 L22,41 L20.2598,40.9961 L18.7656,40.9688 L17.4824,40.8945 L16.375,40.75 L15.4082,40.5117 L14.5469,40.1563 L13.7559,39.6602 L13,39 L11.998,37.6797 L11.1719,36.6875 L10.416,35.9766 L9.625,35.5 L4.5,35.5 L2.48112,34.9539 L1.04612,33.5189 L0.5,31.5 L0.5,4.5"/>
</g>

<g fill="#ffffff" fill-opacity="1" stroke="none" transform="matrix(1,0,0,1,0,0)"
font-family="Inter" font-size="11" font-weight="700" font-style="normal" 
>
<path vector-effect="none" fill-rule="nonzero" d="M17.0938,17.1641 L15.5703,17.2578 C15.5443,17.1276 15.4883,17.0098 15.4023,16.9043 C15.3164,16.7988 15.2038,16.7142 15.0645,16.6504 C14.9251,16.5866 14.7591,16.5547 14.5664,16.5547 C14.3086,16.5547 14.0911,16.6087 13.9141,16.7168 C13.737,16.8249 13.6484,16.9688 13.6484,17.1484 C13.6484,17.2917 13.7057,17.4128 13.8203,17.5117 C13.9349,17.6107 14.1315,17.6901 14.4102,17.75 L15.4961,17.9688 C16.0794,18.0885 16.5143,18.2813 16.8008,18.5469 C17.0872,18.8125 17.2305,19.1615 17.2305,19.5938 C17.2305,19.987 17.1152,20.332 16.8848,20.6289 C16.6543,20.9258 16.3392,21.1569 15.9395,21.3223 C15.5397,21.4876 15.0794,21.5703 14.5586,21.5703 C13.7643,21.5703 13.1322,21.4043 12.6621,21.0723 C12.1921,20.7402 11.9167,20.2878 11.8359,19.7148 L13.4727,19.6289 C13.5221,19.8711 13.6419,20.0553 13.832,20.1816 C14.0221,20.3079 14.2656,20.3711 14.5625,20.3711 C14.8542,20.3711 15.0892,20.3145 15.2676,20.2012 C15.446,20.0879 15.5365,19.9414 15.5391,19.7617 C15.5365,19.6107 15.4727,19.4863 15.3477,19.3887 C15.2227,19.291 15.0299,19.2161 14.7695,19.1641 L13.7305,18.957 C13.1445,18.8398 12.709,18.6367 12.4238,18.3477 C12.1387,18.0586 11.9961,17.6901 11.9961,17.2422 C11.9961,16.8568 12.1009,16.5247 12.3105,16.2461 C12.5202,15.9674 12.8158,15.7526 13.1973,15.6016 C13.5788,15.4505 14.026,15.375 14.5391,15.375 C15.2969,15.375 15.8939,15.5352 16.3301,15.8555 C16.7663,16.1758 17.0208,16.612 17.0938,17.1641 M21.0078,21.5703 C20.3906,21.5703 19.86,21.4447 19.416,21.1934 C18.972,20.9421 18.6302,20.5853 18.3906,20.123 C18.151,19.6608 18.0313,19.1133 18.0313,18.4805 C18.0313,17.8633 18.151,17.3216 18.3906,16.8555 C18.6302,16.3893 18.9681,16.026 19.4043,15.7656 C19.8405,15.5052 20.3529,15.375 20.9414,15.375 C21.3372,15.375 21.7064,15.4382 22.0488,15.5645 C22.3913,15.6908 22.6908,15.8802 22.9473,16.1328 C23.2038,16.3854 23.4036,16.7025 23.5469,17.084 C23.6901,17.4655 23.7617,17.9115 23.7617,18.4219 L23.7617,18.8789 L18.6953,18.8789 L18.6953,17.8477 L22.1953,17.8477 C22.1953,17.6081 22.1432,17.3958 22.0391,17.2109 C21.9349,17.026 21.791,16.8809 21.6074,16.7754 C21.4238,16.6699 21.2109,16.6172 20.9688,16.6172 C20.7161,16.6172 20.4928,16.6751 20.2988,16.791 C20.1048,16.9069 19.9531,17.0618 19.8438,17.2559 C19.7344,17.4499 19.6784,17.6654 19.6758,17.9023 L19.6758,18.8828 C19.6758,19.1797 19.7311,19.4362 19.8418,19.6523 C19.9525,19.8685 20.1094,20.0352 20.3125,20.1523 C20.5156,20.2695 20.7565,20.3281 21.0352,20.3281 C21.2201,20.3281 21.3893,20.3021 21.543,20.25 C21.6966,20.1979 21.8281,20.1198 21.9375,20.0156 C22.0469,19.9115 22.1302,19.7839 22.1875,19.6328 L23.7266,19.7344 C23.6484,20.1042 23.4889,20.4264 23.248,20.7012 C23.0072,20.9759 22.6973,21.1895 22.3184,21.3418 C21.9395,21.4941 21.5026,21.5703 21.0078,21.5703 M28.0273,15.4531 L28.0273,16.7031 L24.4141,16.7031 L24.4141,15.4531 L28.0273,15.4531 M25.2344,14.0156 L26.8984,14.0156 L26.8984,19.6094 C26.8984,19.763 26.9219,19.8822 26.9688,19.9668 C27.0156,20.0514 27.0814,20.1107 27.166,20.1445 C27.2507,20.1784 27.349,20.1953 27.4609,20.1953 C27.5391,20.1953 27.6172,20.1882 27.6953,20.1738 C27.7734,20.1595 27.8333,20.1484 27.875,20.1406 L28.1367,21.3789 C28.0534,21.4049 27.9362,21.4355 27.7852,21.4707 C27.6341,21.5059 27.4505,21.5273 27.2344,21.5352 C26.8333,21.5508 26.4824,21.4974 26.1816,21.375 C25.8809,21.2526 25.6471,21.0625 25.4805,20.8047 C25.3138,20.5469 25.2318,20.2214 25.2344,19.8281 L25.2344,14.0156"/>
</g>

<g fill="#ffffff" fill-opacity="1" stroke="none" transform="matrix(1,0,0,1,0,0)"
font-family="Inter" font-size="11" font-weight="700" font-style="normal" 
>
<path vector-effect="none" fill-rule="nonzero" d="M118.277,15.4531 L118.277,16.7031 L114.664,16.7031 L114.664,15.4531 L118.277,15.4531 M115.484,14.0156 L117.148,14.0156 L117.148,19.6094 C117.148,19.763 117.172,19.8822 117.219,19.9668 C117.266,20.0514 117.331,20.1107 117.416,20.1445 C117.501,20.1784 117.599,20.1953 117.711,20.1953 C117.789,20.1953 117.867,20.1882 117.945,20.1738 C118.023,20.1595 118.083,20.1484 118.125,20.1406 L118.387,21.3789 C118.303,21.4049 118.186,21.4355 118.035,21.4707 C117.884,21.5059 117.701,21.5273 117.484,21.5352 C117.083,21.5508 116.732,21.4974 116.432,21.375 C116.131,21.2526 115.897,21.0625 115.73,20.8047 C115.564,20.5469 115.482,20.2214 115.484,19.8281 L115.484,14.0156 M122,21.5703 C121.393,21.5703 120.869,21.4408 120.428,21.1816 C119.986,20.9225 119.646,20.5605 119.406,20.0957 C119.167,19.6309 119.047,19.0911 119.047,18.4766 C119.047,17.8568 119.167,17.3145 119.406,16.8496 C119.646,16.3848 119.986,16.0228 120.428,15.7637 C120.869,15.5046 121.393,15.375 122,15.375 C122.607,15.375 123.131,15.5046 123.572,15.7637 C124.014,16.0228 124.354,16.3848 124.594,16.8496 C124.833,17.3145 124.953,17.8568 124.953,18.4766 C124.953,19.0911 124.833,19.6309 124.594,20.0957 C124.354,20.5605 124.014,20.9225 123.572,21.1816 C123.131,21.4408 122.607,21.5703 122,21.5703 M122.008,20.2813 C122.284,20.2813 122.514,20.2025 122.699,20.0449 C122.884,19.8874 123.024,19.6719 123.119,19.3984 C123.214,19.125 123.262,18.8138 123.262,18.4648 C123.262,18.1159 123.214,17.8047 123.119,17.5313 C123.024,17.2578 122.884,17.0417 122.699,16.8828 C122.514,16.724 122.284,16.6445 122.008,16.6445 C121.729,16.6445 121.495,16.724 121.307,16.8828 C121.118,17.0417 120.976,17.2578 120.881,17.5313 C120.786,17.8047 120.738,18.1159 120.738,18.4648 C120.738,18.8138 120.786,19.125 120.881,19.3984 C120.976,19.6719 121.118,19.8874 121.307,20.0449 C121.495,20.2025 121.729,20.2813 122.008,20.2813 "/>
</g>

<g fill="#ffffff" fill-opacity="1" stroke="none" transform="matrix(1,0,0,1,0,0)"
font-family="Inter" font-size="11" font-weight="700" font-style="normal" 
>
</g>

<g fill="#ffffff" fill-opacity="1" stroke="none" transform="matrix(1,0,0,1,0,0)"
font-family="Inter" font-size="11" font-weight="700" font-style="normal" 
>
</g>

<g fill="#ff9835" fill-opacity="1" stroke="#f87800" stroke-opacity="1" stroke-width="1.2" stroke-linecap="square" stroke-linejoin="bevel" transform="matrix(1,0,0,1,34,6)"
font-family="Inter" font-size="11" font-weight="700" font-style="normal" 
>
<path vector-effect="none" fill-rule="evenodd" d="M0.5,3.5 C0.5,1.84315 1.84315,0.5 3.5,0.5 L71,0.5 C72.6569,0.5 74,1.84315 74,3.5 L74,20.5 C74,22.1569 72.6569,23.5 71,23.5 L3.5,23.5 C1.84315,23.5 0.5,22.1569 0.5,20.5 L0.5,3.5"/>
</g>

<g fill="#ffffff" fill-opacity="1" stroke="none" transform="matrix(1,0,0,1,34,6)"
font-family="Inter" font-size="11" font-weight="700" font-style="normal" 
>
<path vector-effect="none" fill-rule="nonzero" d="M15.5703,10 L13.4727,16 L11.5977,16 L9.5,10 L11.2578,10 L12.5039,14.293 L12.5664,14.293 L13.8086,10 L15.5703,10 M17.9531,16.1133 C17.5703,16.1133 17.2292,16.0462 16.9297,15.9121 C16.6302,15.778 16.3939,15.5788 16.2207,15.3145 C16.0475,15.0501 15.9609,14.7201 15.9609,14.3242 C15.9609,13.9909 16.0221,13.7109 16.1445,13.4844 C16.2669,13.2578 16.4336,13.0755 16.6445,12.9375 C16.8555,12.7995 17.0957,12.6953 17.3652,12.625 C17.6348,12.5547 17.918,12.5052 18.2148,12.4766 C18.5638,12.4401 18.8451,12.4056 19.0586,12.373 C19.2721,12.3405 19.4271,12.2917 19.5234,12.2266 C19.6198,12.1615 19.668,12.0651 19.668,11.9375 L19.668,11.9141 C19.668,11.6667 19.5905,11.4753 19.4355,11.3398 C19.2806,11.2044 19.0612,11.1367 18.7773,11.1367 C18.4779,11.1367 18.2396,11.2025 18.0625,11.334 C17.8854,11.4655 17.7682,11.6302 17.7109,11.8281 L16.1719,11.7031 C16.25,11.3385 16.4036,11.0228 16.6328,10.7559 C16.862,10.4889 17.1582,10.2832 17.5215,10.1387 C17.8848,9.99414 18.306,9.92188 18.7852,9.92188 C19.1185,9.92188 19.4382,9.96094 19.7441,10.0391 C20.0501,10.1172 20.3223,10.2383 20.5605,10.4023 C20.7988,10.5664 20.987,10.7767 21.125,11.0332 C21.263,11.2897 21.332,11.5964 21.332,11.9531 L21.332,16 L19.7539,16 L19.7539,15.168 L19.707,15.168 C19.6107,15.3555 19.4818,15.5202 19.3203,15.6621 C19.1589,15.804 18.9648,15.9147 18.7383,15.9941 C18.5117,16.0736 18.25,16.1133 17.9531,16.1133 M18.4297,14.9648 C18.6745,14.9648 18.8906,14.916 19.0781,14.8184 C19.2656,14.7207 19.4128,14.5885 19.5195,14.4219 C19.6263,14.2552 19.6797,14.0664 19.6797,13.8555 L19.6797,13.2188 C19.6276,13.2526 19.5566,13.2832 19.4668,13.3105 C19.377,13.3379 19.276,13.3626 19.1641,13.3848 C19.0521,13.4069 18.9401,13.4264 18.8281,13.4434 C18.7161,13.4603 18.6146,13.4753 18.5234,13.4883 C18.3281,13.5169 18.1576,13.5625 18.0117,13.625 C17.8659,13.6875 17.7526,13.7715 17.6719,13.877 C17.5911,13.9824 17.5508,14.1133 17.5508,14.2695 C17.5508,14.4961 17.6335,14.6686 17.7988,14.7871 C17.9642,14.9056 18.1745,14.9648 18.4297,14.9648 M22.6172,16 L22.6172,10 L24.2305,10 L24.2305,11.0469 L24.293,11.0469 C24.4023,10.6745 24.5859,10.3926 24.8438,10.2012 C25.1016,10.0098 25.3984,9.91406 25.7344,9.91406 C25.8177,9.91406 25.9076,9.91927 26.0039,9.92969 C26.1003,9.9401 26.1849,9.95443 26.2578,9.97266 L26.2578,11.4492 C26.1797,11.4258 26.0716,11.4049 25.9336,11.3867 C25.7956,11.3685 25.6693,11.3594 25.5547,11.3594 C25.3099,11.3594 25.0918,11.4121 24.9004,11.5176 C24.709,11.623 24.5579,11.7695 24.4473,11.957 C24.3366,12.1445 24.2813,12.3607 24.2813,12.6055 L24.2813,16 L22.6172,16 M27.1016,16 L27.1016,10 L28.7656,10 L28.7656,16 L27.1016,16 M27.9375,9.22656 C27.6901,9.22656 27.4785,9.14388 27.3027,8.97852 C27.127,8.81315 27.0391,8.61458 27.0391,8.38281 C27.0391,8.15365 27.127,7.95638 27.3027,7.79102 C27.4785,7.62565 27.6901,7.54297 27.9375,7.54297 C28.1849,7.54297 28.3965,7.62565 28.5723,7.79102 C28.748,7.95638 28.8359,8.15365 28.8359,8.38281 C28.8359,8.61458 28.748,8.81315 28.5723,8.97852 C28.3965,9.14388 28.1849,9.22656 27.9375,9.22656 M31.7969,16.1133 C31.4141,16.1133 31.0729,16.0462 30.7734,15.9121 C30.474,15.778 30.2376,15.5788 30.0645,15.3145 C29.8913,15.0501 29.8047,14.7201 29.8047,14.3242 C29.8047,13.9909 29.8659,13.7109 29.9883,13.4844 C30.1107,13.2578 30.2773,13.0755 30.4883,12.9375 C30.6992,12.7995 30.9395,12.6953 31.209,12.625 C31.4785,12.5547 31.7617,12.5052 32.0586,12.4766 C32.4076,12.4401 32.6888,12.4056 32.9023,12.373 C33.1159,12.3405 33.2708,12.2917 33.3672,12.2266 C33.4635,12.1615 33.5117,12.0651 33.5117,11.9375 L33.5117,11.9141 C33.5117,11.6667 33.4342,11.4753 33.2793,11.3398 C33.1243,11.2044 32.9049,11.1367 32.6211,11.1367 C32.3216,11.1367 32.0833,11.2025 31.9063,11.334 C31.7292,11.4655 31.612,11.6302 31.5547,11.8281 L30.0156,11.7031 C30.0938,11.3385 30.2474,11.0228 30.4766,10.7559 C30.7057,10.4889 31.002,10.2832 31.3652,10.1387 C31.7285,9.99414 32.1497,9.92188 32.6289,9.92188 C32.9622,9.92188 33.2819,9.96094 33.5879,10.0391 C33.8939,10.1172 34.166,10.2383 34.4043,10.4023 C34.6426,10.5664 34.8307,10.7767 34.9688,11.0332 C35.1068,11.2897 35.1758,11.5964 35.1758,11.9531 L35.1758,16 L33.5977,16 L33.5977,15.168 L33.5508,15.168 C33.4544,15.3555 33.3255,15.5202 33.1641,15.6621 C33.0026,15.804 32.8086,15.9147 32.582,15.9941 C32.3555,16.0736 32.0938,16.1133 31.7969,16.1133 M32.2734,14.9648 C32.5182,14.9648 32.7344,14.916 32.9219,14.8184 C33.1094,14.7207 33.2565,14.5885 33.3633,14.4219 C33.4701,14.2552 33.5234,14.0664 33.5234,13.8555 L33.5234,13.2188 C33.4714,13.2526 33.4004,13.2832 33.3105,13.3105 C33.2207,13.3379 33.1198,13.3626 33.0078,13.3848 C32.8958,13.4069 32.7839,13.4264 32.6719,13.4434 C32.5599,13.4603 32.4583,13.4753 32.3672,13.4883 C32.1719,13.5169 32.0013,13.5625 31.8555,13.625 C31.7096,13.6875 31.5964,13.7715 31.5156,13.877 C31.4349,13.9824 31.3945,14.1133 31.3945,14.2695 C31.3945,14.4961 31.4772,14.6686 31.6426,14.7871 C31.8079,14.9056 32.0182,14.9648 32.2734,14.9648 M36.4922,16 L36.4922,8 L38.1563,8 L38.1563,11.0078 L38.207,11.0078 C38.2799,10.8464 38.3861,10.6816 38.5254,10.5137 C38.6647,10.3457 38.847,10.2051 39.0723,10.0918 C39.2975,9.97852 39.5781,9.92188 39.9141,9.92188 C40.3516,9.92188 40.7552,10.0358 41.125,10.2637 C41.4948,10.4915 41.7904,10.834 42.0117,11.291 C42.2331,11.748 42.3438,12.3203 42.3438,13.0078 C42.3438,13.6771 42.2363,14.2415 42.0215,14.7012 C41.8066,15.1608 41.515,15.5085 41.1465,15.7441 C40.778,15.9798 40.3659,16.0977 39.9102,16.0977 C39.5872,16.0977 39.3132,16.0443 39.0879,15.9375 C38.8626,15.8307 38.6784,15.696 38.5352,15.5332 C38.3919,15.3704 38.2826,15.2057 38.207,15.0391 L38.1328,15.0391 L38.1328,16 L36.4922,16 M38.1211,13 C38.1211,13.3568 38.1706,13.668 38.2695,13.9336 C38.3685,14.1992 38.5117,14.4056 38.6992,14.5527 C38.8867,14.6999 39.1146,14.7734 39.3828,14.7734 C39.6536,14.7734 39.8828,14.6986 40.0703,14.5488 C40.2578,14.3991 40.4004,14.1908 40.498,13.9238 C40.5957,13.6569 40.6445,13.349 40.6445,13 C40.6445,12.6536 40.5964,12.349 40.5,12.0859 C40.4036,11.8229 40.2617,11.6172 40.0742,11.4688 C39.8867,11.3203 39.6563,11.2461 39.3828,11.2461 C39.112,11.2461 38.8835,11.3177 38.6973,11.4609 C38.5111,11.6042 38.3685,11.8073 38.2695,12.0703 C38.1706,12.3333 38.1211,12.6432 38.1211,13 M45.1094,8 L45.1094,16 L43.4453,16 L43.4453,8 L45.1094,8 M49.1641,16.1172 C48.5469,16.1172 48.0163,15.9915 47.5723,15.7402 C47.1283,15.4889 46.7865,15.1322 46.5469,14.6699 C46.3073,14.2077 46.1875,13.6602 46.1875,13.0273 C46.1875,12.4102 46.3073,11.8685 46.5469,11.4023 C46.7865,10.9362 47.1243,10.5729 47.5605,10.3125 C47.9967,10.0521 48.5091,9.92188 49.0977,9.92188 C49.4935,9.92188 49.8626,9.98503 50.2051,10.1113 C50.5475,10.2376 50.847,10.4271 51.1035,10.6797 C51.36,10.9323 51.5599,11.2493 51.7031,11.6309 C51.8464,12.0124 51.918,12.4583 51.918,12.9688 L51.918,13.4258 L46.8516,13.4258 L46.8516,12.3945 L50.3516,12.3945 C50.3516,12.1549 50.2995,11.9427 50.1953,11.7578 C50.0911,11.5729 49.9473,11.4277 49.7637,11.3223 C49.5801,11.2168 49.3672,11.1641 49.125,11.1641 C48.8724,11.1641 48.6491,11.222 48.4551,11.3379 C48.2611,11.4538 48.1094,11.6087 48,11.8027 C47.8906,11.9967 47.8346,12.2122 47.832,12.4492 L47.832,13.4297 C47.832,13.7266 47.8874,13.9831 47.998,14.1992 C48.1087,14.4154 48.2656,14.582 48.4688,14.6992 C48.6719,14.8164 48.9128,14.875 49.1914,14.875 C49.3763,14.875 49.5456,14.849 49.6992,14.7969 C49.8529,14.7448 49.9844,14.6667 50.0938,14.5625 C50.2031,14.4583 50.2865,14.3307 50.3438,14.1797 L51.8828,14.2813 C51.8047,14.651 51.6452,14.9733 51.4043,15.248 C51.1634,15.5228 50.8535,15.7363 50.4746,15.8887 C50.0957,16.041 49.6589,16.1172 49.1641,16.1172 "/>
</g>

<g fill="#ffffff" fill-opacity="1" stroke="none" transform="matrix(0.03125,0,0,0.03125,94.5,14)"
font-family="Inter" font-size="11" font-weight="700" font-style="normal" 
>
<path vector-effect="none" fill-rule="nonzero" d="M111.326,191.938 C120.545,201.158 135.517,201.158 144.737,191.938 L239.144,97.5313 C245.929,90.7458 247.921,80.6413 244.233,71.7907 C240.545,62.9401 231.989,57.1871 222.401,57.1871 L33.5875,57.2608 C24.0731,57.2608 15.4437,63.0137 11.7559,71.8644 C8.06815,80.715 10.1333,90.8195 16.845,97.605 L111.252,192.012 L111.326,191.938"/>
</g>

<g fill="none" stroke="#000000" stroke-opacity="1" stroke-width="13.7195" stroke-linecap="butt" stroke-linejoin="miter" stroke-miterlimit="4" transform="matrix(0.03125,0,0,0.03125,94.5,14)"
font-family="Inter" font-size="11" font-weight="700" font-style="normal" 
>
<path vector-effect="none" fill-rule="nonzero" d="M111.326,191.938 C120.545,201.158 135.517,201.158 144.737,191.938 L239.144,97.5313 C245.929,90.7458 247.921,80.6413 244.233,71.7907 C240.545,62.9401 231.989,57.1871 222.401,57.1871 L33.5875,57.2608 C24.0731,57.2608 15.4437,63.0137 11.7559,71.8644 C8.06815,80.715 10.1333,90.8195 16.845,97.605 L111.252,192.012 L111.326,191.938"/>
</g>

<g fill="#ffffff" fill-opacity="1" stroke="none" transform="matrix(1,0,0,1,34,6)"
font-family="Inter" font-size="11" font-weight="700" font-style="normal" 
>
</g>

<g fill="#ffffff" fill-opacity="1" stroke="none" transform="matrix(1,0,0,1,0,0)"
font-family="Inter" font-size="11" font-weight="700" font-style="normal" 
>
</g>

<g fill="#ffffff" fill-opacity="1" stroke="#e46e00" stroke-opacity="1" stroke-width="1.2" stroke-linecap="square" stroke-linejoin="bevel" transform="matrix(1,0,0,1,131.5,7)"
font-family="Inter" font-size="11" font-weight="700" font-style="normal" 
>
<path vector-effect="none" fill-rule="evenodd" d="M1,11 C1,5.47715 5.92487,1 12,1 L14.4,1 C20.4751,1 25.4,5.47715 25.4,11 C25.4,16.5228 20.4751,21 14.4,21 L12,21 C5.92487,21 1,16.5228 1,11 "/>
</g>

<g fill="#000000" fill-opacity="1" stroke="none" transform="matrix(1,0,0,1,131.5,7)"
font-family="Inter" font-size="10" font-weight="700" font-style="normal" 
>
<path vector-effect="none" fill-rule="nonzero" d="M0,0"/>
</g>

<g fill="#000000" fill-opacity="1" stroke="none" transform="matrix(1,0,0,1,137.5,11.9531)"
font-family="Inter" font-size="10" font-weight="700" font-style="normal" 
>
</g>

<g fill="#000000" fill-opacity="1" stroke="none" transform="matrix(1,0,0,1,137.5,11.9531)"
font-family="Inter" font-size="10" font-weight="700" font-style="normal" 
>
</g>

<g fill="#000000" fill-opacity="1" stroke="none" transform="matrix(1,0,0,1,131.5,7)"
font-family="Inter" font-size="10" font-weight="700" font-style="normal" 
>
</g>

<g fill="#ffffff" fill-opacity="1" stroke="none" transform="matrix(1,0,0,1,0,0)"
font-family="Inter" font-size="11" font-weight="700" font-style="normal" 
>
</g>

<g fill="#ffffff" fill-opacity="1" stroke="none" transform="matrix(1,0,0,1,0,0)"
font-family="Inter" font-size="11" font-weight="700" font-style="normal" 
>
</g>

<g fill="none" stroke="#000000" stroke-opacity="1" stroke-width="1" stroke-linecap="square" stroke-linejoin="bevel" transform="matrix(1,0,0,1,0,0)"
font-family=".AppleSystemUIFont" font-size="13" font-weight="400" font-style="normal" 
>
</g>
</g>
</svg>
