<?xml version="1.0" encoding="UTF-8" standalone="no"?>
<svg width="103.364mm" height="11.2889mm"
 viewBox="0 0 293 32"
 xmlns="http://www.w3.org/2000/svg" xmlns:xlink="http://www.w3.org/1999/xlink" version="1.2" baseProfile="tiny">
<title>Abstract block</title>
<desc>block_gamepad_dpad_button_value_boolean</desc>
<defs>
</defs>
<g fill="none" stroke="black" stroke-width="1" fill-rule="evenodd" stroke-linecap="square" stroke-linejoin="bevel" >

<g fill="none" stroke="#000000" stroke-opacity="1" stroke-width="1" stroke-linecap="square" stroke-linejoin="bevel" transform="matrix(1,0,0,1,0,0)"
font-family=".AppleSystemUIFont" font-size="13" font-weight="400" font-style="normal" 
>
</g>

<g fill="none" stroke="#000000" stroke-opacity="1" stroke-width="1" stroke-linecap="square" stroke-linejoin="bevel" transform="matrix(1,0,0,1,0,0)"
font-family=".AppleSystemUIFont" font-size="13" font-weight="400" font-style="normal" 
>
</g>

<g fill="#00a97d" fill-opacity="1" stroke="#006e51" stroke-opacity="1" stroke-width="1.2" stroke-linecap="square" stroke-linejoin="bevel" transform="matrix(1,0,0,1,0,0)"
font-family=".AppleSystemUIFont" font-size="13" font-weight="400" font-style="normal" 
>
<path vector-effect="none" fill-rule="evenodd" d="M0,16 L16,0 L276.667,0 L292.667,16 L276.667,32 L16,32 L0,16"/>
</g>

<g fill="#ffffff" fill-opacity="1" stroke="none" transform="matrix(1,0,0,1,0,0)"
font-family="Inter" font-size="11" font-weight="700" font-style="normal" 
>
<path vector-effect="none" fill-rule="nonzero" d="M51.9453,20 L51.9453,14 L53.6094,14 L53.6094,20 L51.9453,20 M52.7813,13.2266 C52.5339,13.2266 52.3223,13.1439 52.1465,12.9785 C51.9707,12.8132 51.8828,12.6146 51.8828,12.3828 C51.8828,12.1536 51.9707,11.9564 52.1465,11.791 C52.3223,11.6257 52.5339,11.543 52.7813,11.543 C53.0286,11.543 53.2402,11.6257 53.416,11.791 C53.5918,11.9564 53.6797,12.1536 53.6797,12.3828 C53.6797,12.6146 53.5918,12.8132 53.416,12.9785 C53.2402,13.1439 53.0286,13.2266 52.7813,13.2266 M59.9219,15.7109 L58.3984,15.8047 C58.3724,15.6745 58.3164,15.5566 58.2305,15.4512 C58.1445,15.3457 58.0319,15.2611 57.8926,15.1973 C57.7533,15.1335 57.5872,15.1016 57.3945,15.1016 C57.1367,15.1016 56.9193,15.1556 56.7422,15.2637 C56.5651,15.3717 56.4766,15.5156 56.4766,15.6953 C56.4766,15.8385 56.5339,15.9596 56.6484,16.0586 C56.763,16.1576 56.9596,16.237 57.2383,16.2969 L58.3242,16.5156 C58.9076,16.6354 59.3424,16.8281 59.6289,17.0938 C59.9154,17.3594 60.0586,17.7083 60.0586,18.1406 C60.0586,18.5339 59.9434,18.8789 59.7129,19.1758 C59.4824,19.4727 59.1673,19.7038 58.7676,19.8691 C58.3678,20.0345 57.9076,20.1172 57.3867,20.1172 C56.5924,20.1172 55.9603,19.9512 55.4902,19.6191 C55.0202,19.2871 54.7448,18.8346 54.6641,18.2617 L56.3008,18.1758 C56.3503,18.418 56.4701,18.6022 56.6602,18.7285 C56.8503,18.8548 57.0938,18.918 57.3906,18.918 C57.6823,18.918 57.9173,18.8613 58.0957,18.748 C58.2741,18.6348 58.3646,18.4883 58.3672,18.3086 C58.3646,18.1576 58.3008,18.0332 58.1758,17.9355 C58.0508,17.8379 57.8581,17.763 57.5977,17.7109 L56.5586,17.5039 C55.9727,17.3867 55.5371,17.1836 55.252,16.8945 C54.9668,16.6055 54.8242,16.237 54.8242,15.7891 C54.8242,15.4036 54.929,15.0716 55.1387,14.793 C55.3483,14.5143 55.6439,14.2995 56.0254,14.1484 C56.4069,13.9974 56.8542,13.9219 57.3672,13.9219 C58.125,13.9219 58.722,14.082 59.1582,14.4023 C59.5944,14.7227 59.849,15.1589 59.9219,15.7109 M66.5156,20 L63.6797,20 L63.6797,12 L66.5391,12 C67.3438,12 68.0365,12.1595 68.6172,12.4785 C69.1979,12.7975 69.6452,13.2552 69.959,13.8516 C70.2728,14.4479 70.4297,15.1615 70.4297,15.9922 C70.4297,16.8255 70.2728,17.5417 69.959,18.1406 C69.6452,18.7396 69.196,19.1992 68.6113,19.5195 C68.0267,19.8398 67.3281,20 66.5156,20 M65.3711,18.5508 L66.4453,18.5508 C66.9453,18.5508 67.3665,18.4616 67.709,18.2832 C68.0514,18.1048 68.3092,17.8275 68.4824,17.4512 C68.6556,17.0749 68.7422,16.5885 68.7422,15.9922 C68.7422,15.401 68.6556,14.918 68.4824,14.543 C68.3092,14.168 68.0521,13.8919 67.7109,13.7148 C67.3698,13.5378 66.9492,13.4492 66.4492,13.4492 L65.3711,13.4492 L65.3711,18.5508 M75.3867,15.3398 L75.3867,16.6602 L71.7383,16.6602 L71.7383,15.3398 L75.3867,15.3398 M76.8359,20 L76.8359,12 L79.9922,12 C80.599,12 81.1159,12.1152 81.543,12.3457 C81.9701,12.5762 82.2962,12.8952 82.5215,13.3027 C82.7467,13.7103 82.8594,14.1797 82.8594,14.7109 C82.8594,15.2422 82.7448,15.7109 82.5156,16.1172 C82.2865,16.5234 81.9551,16.8398 81.5215,17.0664 C81.0879,17.293 80.5638,17.4063 79.9492,17.4063 L77.9375,17.4063 L77.9375,16.0508 L79.6758,16.0508 C80.0013,16.0508 80.2702,15.9941 80.4824,15.8809 C80.6947,15.7676 80.8535,15.61 80.959,15.4082 C81.0645,15.2064 81.1172,14.974 81.1172,14.7109 C81.1172,14.4453 81.0645,14.2129 80.959,14.0137 C80.8535,13.8145 80.694,13.6595 80.4805,13.5488 C80.2669,13.4382 79.9961,13.3828 79.668,13.3828 L78.5273,13.3828 L78.5273,20 L76.8359,20 M85.4844,20.1133 C85.1016,20.1133 84.7604,20.0462 84.4609,19.9121 C84.1615,19.778 83.9251,19.5788 83.752,19.3145 C83.5788,19.0501 83.4922,18.7201 83.4922,18.3242 C83.4922,17.9909 83.5534,17.7109 83.6758,17.4844 C83.7982,17.2578 83.9648,17.0755 84.1758,16.9375 C84.3867,16.7995 84.627,16.6953 84.8965,16.625 C85.166,16.5547 85.4492,16.5052 85.7461,16.4766 C86.0951,16.4401 86.3763,16.4056 86.5898,16.373 C86.8034,16.3405 86.9583,16.2917 87.0547,16.2266 C87.151,16.1615 87.1992,16.0651 87.1992,15.9375 L87.1992,15.9141 C87.1992,15.6667 87.1217,15.4753 86.9668,15.3398 C86.8118,15.2044 86.5924,15.1367 86.3086,15.1367 C86.0091,15.1367 85.7708,15.2025 85.5938,15.334 C85.4167,15.4655 85.2995,15.6302 85.2422,15.8281 L83.7031,15.7031 C83.7813,15.3385 83.9349,15.0228 84.1641,14.7559 C84.3932,14.4889 84.6895,14.2832 85.0527,14.1387 C85.416,13.9941 85.8372,13.9219 86.3164,13.9219 C86.6497,13.9219 86.9694,13.9609 87.2754,14.0391 C87.5814,14.1172 87.8535,14.2383 88.0918,14.4023 C88.3301,14.5664 88.5182,14.7767 88.6563,15.0332 C88.7943,15.2897 88.8633,15.5964 88.8633,15.9531 L88.8633,20 L87.2852,20 L87.2852,19.168 L87.2383,19.168 C87.1419,19.3555 87.013,19.5202 86.8516,19.6621 C86.6901,19.804 86.4961,19.9147 86.2695,19.9941 C86.043,20.0736 85.7813,20.1133 85.4844,20.1133 M85.9609,18.9648 C86.2057,18.9648 86.4219,18.916 86.6094,18.8184 C86.7969,18.7207 86.944,18.5885 87.0508,18.4219 C87.1576,18.2552 87.2109,18.0664 87.2109,17.8555 L87.2109,17.2188 C87.1589,17.2526 87.0879,17.2832 86.998,17.3105 C86.9082,17.3379 86.8073,17.3626 86.6953,17.3848 C86.5833,17.4069 86.4714,17.4264 86.3594,17.4434 C86.2474,17.4603 86.1458,17.4753 86.0547,17.4883 C85.8594,17.5169 85.6888,17.5625 85.543,17.625 C85.3971,17.6875 85.2839,17.7715 85.2031,17.877 C85.1224,17.9824 85.082,18.1133 85.082,18.2695 C85.082,18.4961 85.1647,18.6686 85.3301,18.7871 C85.4954,18.9056 85.7057,18.9648 85.9609,18.9648 M92.3594,20.0977 C91.9036,20.0977 91.4915,19.9798 91.123,19.7441 C90.7546,19.5085 90.4629,19.1608 90.248,18.7012 C90.0332,18.2415 89.9258,17.6771 89.9258,17.0078 C89.9258,16.3203 90.0365,15.748 90.2578,15.291 C90.4792,14.834 90.7741,14.4915 91.1426,14.2637 C91.5111,14.0358 91.9154,13.9219 92.3555,13.9219 C92.6914,13.9219 92.972,13.9785 93.1973,14.0918 C93.4225,14.2051 93.6048,14.3457 93.7441,14.5137 C93.8835,14.6816 93.9896,14.8464 94.0625,15.0078 L94.1133,15.0078 L94.1133,12 L95.7734,12 L95.7734,20 L94.1328,20 L94.1328,19.0391 L94.0625,19.0391 C93.9844,19.2057 93.8743,19.3704 93.7324,19.5332 C93.5905,19.696 93.4069,19.8307 93.1816,19.9375 C92.9564,20.0443 92.6823,20.0977 92.3594,20.0977 M92.8867,18.7734 C93.1549,18.7734 93.3822,18.6999 93.5684,18.5527 C93.7546,18.4056 93.8978,18.1992 93.998,17.9336 C94.0983,17.668 94.1484,17.3568 94.1484,17 C94.1484,16.6432 94.099,16.3333 94,16.0703 C93.901,15.8073 93.7578,15.6042 93.5703,15.4609 C93.3828,15.3177 93.1549,15.2461 92.8867,15.2461 C92.6133,15.2461 92.3828,15.3203 92.1953,15.4688 C92.0078,15.6172 91.8659,15.8229 91.7695,16.0859 C91.6732,16.349 91.625,16.6536 91.625,17 C91.625,17.349 91.6738,17.6569 91.7715,17.9238 C91.8691,18.1908 92.0111,18.3991 92.1973,18.5488 C92.3835,18.6986 92.6133,18.7734 92.8867,18.7734 "/>
</g>

<g fill="#ffffff" fill-opacity="1" stroke="none" transform="matrix(1,0,0,1,0,0)"
font-family="Inter" font-size="11" font-weight="700" font-style="normal" 
>
<path vector-effect="none" fill-rule="nonzero" d="M153.086,19.7344 L153.086,11.7344 L154.75,11.7344 L154.75,14.7422 L154.801,14.7422 C154.874,14.5807 154.98,14.416 155.119,14.248 C155.258,14.0801 155.441,13.9395 155.666,13.8262 C155.891,13.7129 156.172,13.6563 156.508,13.6563 C156.945,13.6563 157.349,13.7702 157.719,13.998 C158.089,14.2259 158.384,14.5684 158.605,15.0254 C158.827,15.4824 158.938,16.0547 158.938,16.7422 C158.938,17.4115 158.83,17.9759 158.615,18.4355 C158.4,18.8952 158.109,19.2428 157.74,19.4785 C157.372,19.7142 156.96,19.832 156.504,19.832 C156.181,19.832 155.907,19.7786 155.682,19.6719 C155.456,19.5651 155.272,19.4303 155.129,19.2676 C154.986,19.1048 154.876,18.9401 154.801,18.7734 L154.727,18.7734 L154.727,19.7344 L153.086,19.7344 M154.715,16.7344 C154.715,17.0911 154.764,17.4023 154.863,17.668 C154.962,17.9336 155.105,18.14 155.293,18.2871 C155.48,18.4342 155.708,18.5078 155.977,18.5078 C156.247,18.5078 156.477,18.4329 156.664,18.2832 C156.852,18.1335 156.994,17.9251 157.092,17.6582 C157.189,17.3913 157.238,17.0833 157.238,16.7344 C157.238,16.388 157.19,16.0833 157.094,15.8203 C156.997,15.5573 156.855,15.3516 156.668,15.2031 C156.48,15.0547 156.25,14.9805 155.977,14.9805 C155.706,14.9805 155.477,15.0521 155.291,15.1953 C155.105,15.3385 154.962,15.5417 154.863,15.8047 C154.764,16.0677 154.715,16.3776 154.715,16.7344 M163.887,17.1797 L163.887,13.7344 L165.551,13.7344 L165.551,19.7344 L163.953,19.7344 L163.953,18.6445 L163.891,18.6445 C163.755,18.9961 163.531,19.2786 163.217,19.4922 C162.903,19.7057 162.521,19.8125 162.07,19.8125 C161.669,19.8125 161.316,19.7214 161.012,19.5391 C160.707,19.3568 160.469,19.0977 160.299,18.7617 C160.128,18.4258 160.042,18.0234 160.039,17.5547 L160.039,13.7344 L161.703,13.7344 L161.703,17.2578 C161.706,17.612 161.801,17.8919 161.988,18.0977 C162.176,18.3034 162.427,18.4063 162.742,18.4063 C162.943,18.4063 163.13,18.36 163.305,18.2676 C163.479,18.1751 163.62,18.0378 163.729,17.8555 C163.837,17.6732 163.889,17.4479 163.887,17.1797 M170.059,13.7344 L170.059,14.9844 L166.445,14.9844 L166.445,13.7344 L170.059,13.7344 M167.266,12.2969 L168.93,12.2969 L168.93,17.8906 C168.93,18.0443 168.953,18.1634 169,18.248 C169.047,18.3327 169.113,18.3919 169.197,18.4258 C169.282,18.4596 169.38,18.4766 169.492,18.4766 C169.57,18.4766 169.648,18.4694 169.727,18.4551 C169.805,18.4408 169.865,18.4297 169.906,18.4219 L170.168,19.6602 C170.085,19.6862 169.967,19.7168 169.816,19.752 C169.665,19.7871 169.482,19.8086 169.266,19.8164 C168.865,19.832 168.514,19.7786 168.213,19.6563 C167.912,19.5339 167.678,19.3438 167.512,19.0859 C167.345,18.8281 167.263,18.5026 167.266,18.1094 L167.266,12.2969 M174.324,13.7344 L174.324,14.9844 L170.711,14.9844 L170.711,13.7344 L174.324,13.7344 M171.531,12.2969 L173.195,12.2969 L173.195,17.8906 C173.195,18.0443 173.219,18.1634 173.266,18.248 C173.313,18.3327 173.378,18.3919 173.463,18.4258 C173.548,18.4596 173.646,18.4766 173.758,18.4766 C173.836,18.4766 173.914,18.4694 173.992,18.4551 C174.07,18.4408 174.13,18.4297 174.172,18.4219 L174.434,19.6602 C174.35,19.6862 174.233,19.7168 174.082,19.752 C173.931,19.7871 173.747,19.8086 173.531,19.8164 C173.13,19.832 172.779,19.7786 172.479,19.6563 C172.178,19.5339 171.944,19.3438 171.777,19.0859 C171.611,18.8281 171.529,18.5026 171.531,18.1094 L171.531,12.2969 M178.047,19.8516 C177.44,19.8516 176.916,19.722 176.475,19.4629 C176.033,19.2038 175.693,18.8418 175.453,18.377 C175.214,17.9121 175.094,17.3724 175.094,16.7578 C175.094,16.138 175.214,15.5957 175.453,15.1309 C175.693,14.666 176.033,14.304 176.475,14.0449 C176.916,13.7858 177.44,13.6563 178.047,13.6563 C178.654,13.6563 179.178,13.7858 179.619,14.0449 C180.061,14.304 180.401,14.666 180.641,15.1309 C180.88,15.5957 181,16.138 181,16.7578 C181,17.3724 180.88,17.9121 180.641,18.377 C180.401,18.8418 180.061,19.2038 179.619,19.4629 C179.178,19.722 178.654,19.8516 178.047,19.8516 M178.055,18.5625 C178.331,18.5625 178.561,18.4837 178.746,18.3262 C178.931,18.1686 179.071,17.9531 179.166,17.6797 C179.261,17.4063 179.309,17.0951 179.309,16.7461 C179.309,16.3971 179.261,16.0859 179.166,15.8125 C179.071,15.5391 178.931,15.3229 178.746,15.1641 C178.561,15.0052 178.331,14.9258 178.055,14.9258 C177.776,14.9258 177.542,15.0052 177.354,15.1641 C177.165,15.3229 177.023,15.5391 176.928,15.8125 C176.833,16.0859 176.785,16.3971 176.785,16.7461 C176.785,17.0951 176.833,17.4063 176.928,17.6797 C177.023,17.9531 177.165,18.1686 177.354,18.3262 C177.542,18.4837 177.776,18.5625 178.055,18.5625 M183.75,16.2656 L183.75,19.7344 L182.086,19.7344 L182.086,13.7344 L183.672,13.7344 L183.672,14.793 L183.742,14.793 C183.875,14.444 184.098,14.1673 184.41,13.9629 C184.723,13.7585 185.102,13.6563 185.547,13.6563 C185.964,13.6563 186.327,13.7474 186.637,13.9297 C186.947,14.112 187.188,14.3717 187.359,14.709 C187.531,15.0462 187.617,15.4479 187.617,15.9141 L187.617,19.7344 L185.953,19.7344 L185.953,16.2109 C185.956,15.8438 185.862,15.5566 185.672,15.3496 C185.482,15.1426 185.22,15.0391 184.887,15.0391 C184.663,15.0391 184.465,15.0872 184.295,15.1836 C184.124,15.2799 183.992,15.4199 183.896,15.6035 C183.801,15.7871 183.753,16.0078 183.75,16.2656 "/>
</g>

<g fill="#ffffff" fill-opacity="1" stroke="none" transform="matrix(1,0,0,1,0,0)"
font-family="Inter" font-size="11" font-weight="700" font-style="normal" 
>
<path vector-effect="none" fill-rule="nonzero" d="M275.766,17.5547 L275.766,17.4219 C275.768,16.9661 275.809,16.6029 275.889,16.332 C275.968,16.0612 276.085,15.8424 276.238,15.6758 C276.392,15.5091 276.577,15.3581 276.793,15.2227 C276.954,15.1185 277.099,15.0104 277.227,14.8984 C277.354,14.7865 277.456,14.6621 277.531,14.5254 C277.607,14.3887 277.645,14.2357 277.645,14.0664 C277.645,13.8867 277.602,13.7292 277.516,13.5938 C277.43,13.4583 277.314,13.3542 277.17,13.2813 C277.025,13.2083 276.866,13.1719 276.691,13.1719 C276.522,13.1719 276.362,13.209 276.211,13.2832 C276.06,13.3574 275.936,13.4668 275.84,13.6113 C275.743,13.7559 275.691,13.9349 275.684,14.1484 L274.09,14.1484 C274.103,13.6276 274.228,13.1973 274.465,12.8574 C274.702,12.5176 275.016,12.2637 275.406,12.0957 C275.797,11.9277 276.228,11.8438 276.699,11.8438 C277.217,11.8438 277.676,11.929 278.074,12.0996 C278.473,12.2702 278.785,12.5169 279.012,12.8398 C279.238,13.1628 279.352,13.5521 279.352,14.0078 C279.352,14.3125 279.301,14.5827 279.201,14.8184 C279.101,15.054 278.961,15.2624 278.781,15.4434 C278.602,15.6243 278.389,15.7878 278.145,15.9336 C277.939,16.056 277.77,16.1836 277.639,16.3164 C277.507,16.4492 277.41,16.6029 277.346,16.7773 C277.282,16.9518 277.249,17.1667 277.246,17.4219 L277.246,17.5547 L275.766,17.5547 M276.539,20.0547 C276.279,20.0547 276.057,19.9629 275.873,19.7793 C275.689,19.5957 275.599,19.375 275.602,19.1172 C275.599,18.862 275.689,18.6432 275.873,18.4609 C276.057,18.2786 276.279,18.1875 276.539,18.1875 C276.786,18.1875 277.004,18.2786 277.191,18.4609 C277.379,18.6432 277.474,18.862 277.477,19.1172 C277.474,19.2891 277.429,19.446 277.342,19.5879 C277.255,19.7298 277.141,19.8431 277,19.9277 C276.859,20.0124 276.706,20.0547 276.539,20.0547 "/>
</g>

<g fill="#ffffff" fill-opacity="1" stroke="none" transform="matrix(0.95,0,0,0.95,11.6,4.6)"
font-family="Inter" font-size="11" font-weight="700" font-style="normal" 
>
<path vector-effect="none" fill-rule="nonzero" d="M7.46543,4.39588 C6.38302,4.39585 5.47613,4.39584 4.74926,4.48951 C3.97986,4.58868 3.28183,4.80608 2.69613,5.33613 C2.11042,5.86618 1.82464,6.53909 1.64941,7.2948 C1.48387,8.00878 1.39363,8.91112 1.28596,9.98813 L0.676055,16.0874 C0.487764,17.9704 1.96635,19.6041 3.85857,19.6041 C5.19182,19.6041 6.38522,18.7771 6.85336,17.5288 L7.6565,15.387 C7.81994,14.9511 7.91537,14.7008 8.0049,14.5243 C8.04525,14.4449 8.07235,14.4055 8.08682,14.3873 C8.09352,14.3788 8.09729,14.3751 8.09818,14.3743 L8.09959,14.3732 L8.10111,14.3723 C8.10221,14.3718 8.10688,14.3696 8.11723,14.3663 C8.13943,14.3591 8.18571,14.3475 8.27426,14.3375 C8.47084,14.3157 8.73881,14.3143 9.20432,14.3143 L14.7957,14.3143 C15.2612,14.3143 15.5292,14.3158 15.7258,14.3375 C15.8143,14.3474 15.8606,14.3591 15.8828,14.3663 C15.8931,14.3696 15.8978,14.3718 15.8989,14.3723 L15.9005,14.3732 L15.9018,14.3743 C15.9027,14.3751 15.9064,14.3788 15.9132,14.3873 C15.9276,14.4055 15.9547,14.4449 15.995,14.5243 C16.0846,14.7008 16.18,14.9511 16.3435,15.387 L17.1466,17.5288 C17.6148,18.7771 18.8081,19.6041 20.1414,19.6041 C22.0336,19.6041 23.5123,17.9704 23.3239,16.0874 L22.714,9.9883 C22.6064,8.91117 22.5162,8.00877 22.3506,7.2948 C22.1754,6.53909 21.8896,5.86618 21.3039,5.33613 C20.7182,4.80608 20.0202,4.58868 19.2508,4.48951 C18.5239,4.39583 17.6172,4.39585 16.5347,4.39588 L7.46543,4.39588 M18.0984,6.1592 C18.7525,6.15907 19.2829,6.6892 19.2831,7.34332 L19.2831,7.34367 C19.2831,7.99779 18.7529,8.52808 18.0987,8.52814 C17.4446,8.52821 16.9142,7.99799 16.9141,7.34385 C16.914,6.6897 17.4442,6.15932 18.0984,6.1592 M6.0791,6.38168 C7.79363,6.38129 9.18388,7.77081 9.18439,9.48533 L9.18439,9.48621 C9.1844,11.2007 7.79457,12.5907 6.08004,12.5908 C4.36551,12.5909 2.97547,11.2012 2.97521,9.48668 C2.97499,7.77218 4.3646,6.38207 6.0791,6.38168 M15.966,8.41271 C16.6201,8.41258 17.1505,8.94271 17.1507,9.59684 L17.1507,9.59719 C17.1507,10.2513 16.6205,10.7816 15.9663,10.7817 C15.3122,10.7817 14.7818,10.2515 14.7817,9.59736 C14.7816,8.94322 15.3118,8.41284 15.966,8.41271 M20.3065,8.43451 C20.9606,8.43435 21.4911,8.96449 21.4912,9.61863 L21.4913,9.61898 C21.4913,10.2731 20.961,10.8034 20.3068,10.8035 C19.6527,10.8035 19.1224,10.2733 19.1223,9.61916 C19.1222,8.96504 19.6524,8.43467 20.3065,8.43451 M18.1035,10.4194 C18.7576,10.4193 19.288,10.9494 19.2882,11.6035 L19.2882,11.6038 C19.2882,12.258 18.758,12.7883 18.1039,12.7883 C17.4497,12.7884 16.9194,12.2582 16.9193,11.604 C16.9192,10.9499 17.4494,10.4196 18.1035,10.4194 "/>
</g>

<g fill="none" stroke="#000000" stroke-opacity="1" stroke-width="0.54" stroke-linecap="butt" stroke-linejoin="miter" stroke-miterlimit="4" transform="matrix(0.95,0,0,0.95,11.6,4.6)"
font-family="Inter" font-size="11" font-weight="700" font-style="normal" 
>
<path vector-effect="none" fill-rule="nonzero" d="M0.676054,16.0875 C0.487763,17.9704 1.96634,19.6041 3.85857,19.6041 C5.19182,19.6041 6.38521,18.7771 6.85334,17.5288 L7.65652,15.3869 C7.81997,14.9511 7.9154,14.7007 8.00493,14.5243 C8.04527,14.4448 8.07237,14.4056 8.08684,14.3873 C8.09354,14.3788 8.09731,14.3751 8.0982,14.3743 L8.09956,14.3731 L8.10109,14.3723 C8.10219,14.3718 8.10694,14.3695 8.11724,14.3662 C8.13944,14.3591 8.18573,14.3475 8.27428,14.3375 C8.47086,14.3157 8.73883,14.3143 9.20434,14.3143 L14.7957,14.3143 C15.2612,14.3143 15.5291,14.3158 15.7258,14.3375 C15.8143,14.3474 15.8605,14.3591 15.8828,14.3662 C15.8931,14.3695 15.8978,14.3718 15.8989,14.3723 L15.9005,14.3731 L15.9018,14.3743 C15.9027,14.3751 15.9064,14.3788 15.9132,14.3873 C15.9276,14.4056 15.9547,14.4448 15.995,14.5243 C16.0845,14.7007 16.18,14.9511 16.3435,15.3869 L17.1466,17.5288 C17.6148,18.7771 18.8081,19.6041 20.1414,19.6041 C22.0336,19.6041 23.5123,17.9704 23.3239,16.0875 L22.714,9.98828 C22.6064,8.91114 22.5162,8.0088 22.3506,7.29483 C22.1754,6.53911 21.8896,5.86621 21.3039,5.33615 C20.7182,4.8061 20.0202,4.58866 19.2508,4.48949 C18.5238,4.39581 17.6172,4.39585 16.5347,4.39587 L7.46542,4.39587 C6.383,4.39585 5.47612,4.39582 4.74925,4.48949 C3.97984,4.58866 3.28185,4.8061 2.69615,5.33615 C2.11043,5.86621 1.82462,6.53911 1.6494,7.29483 C1.48385,8.00881 1.39365,8.91114 1.28597,9.98815 L0.676054,16.0875"/>
</g>

<g fill="none" stroke="#000000" stroke-opacity="1" stroke-width="0.54" stroke-linecap="round" stroke-linejoin="round" transform="matrix(0,0.95,-0.95,0,11.6,4.6)"
font-family="Inter" font-size="11" font-weight="700" font-style="normal" 
>
<path vector-effect="none" fill-rule="nonzero" d="M12.5908,-5.99358 C12.5908,-4.27905 11.201,-2.88912 9.48647,-2.88899 C7.77194,-2.88886 6.38191,-4.27859 6.38165,-5.99311 C6.38139,-7.70764 7.77102,-9.09778 9.48554,-9.09816 C11.2001,-9.09855 12.5903,-7.70903 12.5908,-5.99451 "/>
</g>

<g fill="#000000" fill-opacity="1" stroke="none" transform="matrix(1.02542,0,0,1.02542,11.148,3.96268)"
font-family="Inter" font-size="11" font-weight="700" font-style="normal" 
>
<path vector-effect="none" fill-rule="evenodd" d="M5.49097,7.51931 C5.49097,7.42723 5.56561,7.35258 5.65769,7.35258 L6.32946,7.35258 C6.42154,7.35258 6.49619,7.42723 6.49619,7.51931 L6.49619,8.23146 C6.49619,8.32354 6.42154,8.39819 6.32946,8.39819 L5.65769,8.39819 C5.56561,8.39819 5.49097,8.32354 5.49097,8.23146 L5.49097,7.51931"/>
</g>

<g fill="none" stroke="#000000" stroke-opacity="1" stroke-width="0.463675" stroke-linecap="round" stroke-linejoin="round" transform="matrix(1.02542,0,0,1.02542,11.148,3.96268)"
font-family="Inter" font-size="11" font-weight="700" font-style="normal" 
>
<path vector-effect="none" fill-rule="evenodd" d="M5.49097,7.51931 C5.49097,7.42723 5.56561,7.35258 5.65769,7.35258 L6.32946,7.35258 C6.42154,7.35258 6.49619,7.42723 6.49619,7.51931 L6.49619,8.23146 C6.49619,8.32354 6.42154,8.39819 6.32946,8.39819 L5.65769,8.39819 C5.56561,8.39819 5.49097,8.32354 5.49097,8.23146 L5.49097,7.51931"/>
</g>

<g fill="#000000" fill-opacity="1" stroke="none" transform="matrix(1.02542,0,0,1.02542,11.148,3.96268)"
font-family="Inter" font-size="11" font-weight="700" font-style="normal" 
>
<path vector-effect="none" fill-rule="evenodd" d="M5.49097,10.5887 C5.49097,10.4966 5.56561,10.422 5.65769,10.422 L6.32946,10.422 C6.42154,10.422 6.49619,10.4966 6.49619,10.5887 L6.49619,11.3008 C6.49619,11.3929 6.42154,11.4676 6.32946,11.4676 L5.65769,11.4676 C5.56561,11.4676 5.49097,11.3929 5.49097,11.3008 L5.49097,10.5887"/>
</g>

<g fill="none" stroke="#000000" stroke-opacity="1" stroke-width="0.463675" stroke-linecap="round" stroke-linejoin="round" transform="matrix(1.02542,0,0,1.02542,11.148,3.96268)"
font-family="Inter" font-size="11" font-weight="700" font-style="normal" 
>
<path vector-effect="none" fill-rule="evenodd" d="M5.49097,10.5887 C5.49097,10.4966 5.56561,10.422 5.65769,10.422 L6.32946,10.422 C6.42154,10.422 6.49619,10.4966 6.49619,10.5887 L6.49619,11.3008 C6.49619,11.3929 6.42154,11.4676 6.32946,11.4676 L5.65769,11.4676 C5.56561,11.4676 5.49097,11.3929 5.49097,11.3008 L5.49097,10.5887"/>
</g>

<g fill="#000000" fill-opacity="1" stroke="none" transform="matrix(0,1.02542,-1.02542,0,26.9431,7.54411)"
font-family="Inter" font-size="11" font-weight="700" font-style="normal" 
>
<path vector-effect="none" fill-rule="evenodd" d="M5.49097,7.51931 C5.49097,7.42723 5.56561,7.35258 5.65769,7.35258 L6.32946,7.35258 C6.42154,7.35258 6.49619,7.42723 6.49619,7.51931 L6.49619,8.23146 C6.49619,8.32354 6.42154,8.39819 6.32946,8.39819 L5.65769,8.39819 C5.56561,8.39819 5.49097,8.32354 5.49097,8.23146 L5.49097,7.51931"/>
</g>

<g fill="none" stroke="#000000" stroke-opacity="1" stroke-width="0.463675" stroke-linecap="round" stroke-linejoin="round" transform="matrix(0,1.02542,-1.02542,0,26.9431,7.54411)"
font-family="Inter" font-size="11" font-weight="700" font-style="normal" 
>
<path vector-effect="none" fill-rule="evenodd" d="M5.49097,7.51931 C5.49097,7.42723 5.56561,7.35258 5.65769,7.35258 L6.32946,7.35258 C6.42154,7.35258 6.49619,7.42723 6.49619,7.51931 L6.49619,8.23146 C6.49619,8.32354 6.42154,8.39819 6.32946,8.39819 L5.65769,8.39819 C5.56561,8.39819 5.49097,8.32354 5.49097,8.23146 L5.49097,7.51931"/>
</g>

<g fill="#000000" fill-opacity="1" stroke="none" transform="matrix(0,1.02542,-1.02542,0,26.9431,7.54411)"
font-family="Inter" font-size="11" font-weight="700" font-style="normal" 
>
<path vector-effect="none" fill-rule="evenodd" d="M5.49097,10.5887 C5.49097,10.4966 5.56561,10.422 5.65769,10.422 L6.32946,10.422 C6.42154,10.422 6.49619,10.4966 6.49619,10.5887 L6.49619,11.3008 C6.49619,11.3929 6.42154,11.4676 6.32946,11.4676 L5.65769,11.4676 C5.56561,11.4676 5.49097,11.3929 5.49097,11.3008 L5.49097,10.5887"/>
</g>

<g fill="none" stroke="#000000" stroke-opacity="1" stroke-width="0.463675" stroke-linecap="round" stroke-linejoin="round" transform="matrix(0,1.02542,-1.02542,0,26.9431,7.54411)"
font-family="Inter" font-size="11" font-weight="700" font-style="normal" 
>
<path vector-effect="none" fill-rule="evenodd" d="M5.49097,10.5887 C5.49097,10.4966 5.56561,10.422 5.65769,10.422 L6.32946,10.422 C6.42154,10.422 6.49619,10.4966 6.49619,10.5887 L6.49619,11.3008 C6.49619,11.3929 6.42154,11.4676 6.32946,11.4676 L5.65769,11.4676 C5.56561,11.4676 5.49097,11.3929 5.49097,11.3008 L5.49097,10.5887"/>
</g>

<g fill="none" stroke="#000000" stroke-opacity="1" stroke-width="0.32496" stroke-linecap="round" stroke-linejoin="round" transform="matrix(0.95,0,0,0.95,11.6,4.6)"
font-family="Inter" font-size="11" font-weight="700" font-style="normal" 
>
<path vector-effect="none" fill-rule="evenodd" d="M17.0283,7.32484 C17.0283,6.74873 17.4954,6.28169 18.0715,6.28169 L18.1437,6.28169 C18.7198,6.28169 19.1869,6.74873 19.1869,7.32484 L19.1869,7.40867 C19.1869,7.98479 18.7198,8.45182 18.1437,8.45182 L18.0715,8.45182 C17.4954,8.45182 17.0283,7.98479 17.0283,7.40867 L17.0283,7.32484"/>
</g>

<g fill="none" stroke="#000000" stroke-opacity="1" stroke-width="0.32496" stroke-linecap="round" stroke-linejoin="round" transform="matrix(0.95,0,0,0.95,11.6,4.6)"
font-family="Inter" font-size="11" font-weight="700" font-style="normal" 
>
<path vector-effect="none" fill-rule="evenodd" d="M19.2177,9.55083 C19.2177,8.97472 19.6848,8.50768 20.2609,8.50768 L20.3331,8.50768 C20.9092,8.50768 21.3763,8.97472 21.3763,9.55083 L21.3763,9.63466 C21.3763,10.2108 20.9092,10.6778 20.3331,10.6778 L20.2609,10.6778 C19.6848,10.6778 19.2177,10.2108 19.2177,9.63466 L19.2177,9.55083"/>
</g>

<g fill="none" stroke="#000000" stroke-opacity="1" stroke-width="0.32496" stroke-linecap="round" stroke-linejoin="round" transform="matrix(0.95,0,0,0.95,11.6,4.6)"
font-family="Inter" font-size="11" font-weight="700" font-style="normal" 
>
<path vector-effect="none" fill-rule="evenodd" d="M14.8925,9.52667 C14.8925,8.95055 15.3596,8.48352 15.9357,8.48352 L16.0079,8.48352 C16.584,8.48352 17.0511,8.95055 17.0511,9.52667 L17.0511,9.61049 C17.0511,10.1866 16.584,10.6536 16.0079,10.6536 L15.9357,10.6536 C15.3596,10.6536 14.8925,10.1866 14.8925,9.61049 L14.8925,9.52667"/>
</g>

<g fill="none" stroke="#000000" stroke-opacity="1" stroke-width="0.32496" stroke-linecap="round" stroke-linejoin="round" transform="matrix(0.95,0,0,0.95,11.6,4.6)"
font-family="Inter" font-size="11" font-weight="700" font-style="normal" 
>
<path vector-effect="none" fill-rule="evenodd" d="M16.9947,11.5322 C16.9947,10.9561 17.4618,10.4891 18.0379,10.4891 L18.1101,10.4891 C18.6862,10.4891 19.1533,10.9561 19.1533,11.5322 L19.1533,11.616 C19.1533,12.1921 18.6862,12.6592 18.1101,12.6592 L18.0379,12.6592 C17.4618,12.6592 16.9947,12.1921 16.9947,11.616 L16.9947,11.5322"/>
</g>

<g fill="#000000" fill-opacity="1" stroke="none" transform="matrix(0.95,0,0,0.95,11.6,4.6)"
font-family="Inter" font-size="11" font-weight="700" font-style="normal" 
>
<path vector-effect="none" fill-rule="evenodd" d="M10.7009,12.2391 C10.7009,11.9791 10.9118,11.7682 11.1719,11.7682 L12.8281,11.7682 C13.0882,11.7682 13.2991,11.9791 13.2991,12.2391 C13.2991,12.4992 13.0882,12.71 12.8281,12.71 L11.1719,12.71 C10.9118,12.71 10.7009,12.4992 10.7009,12.2391 "/>
</g>

<g fill="#ffffff" fill-opacity="1" stroke="none" transform="matrix(1,0,0,1,0,0)"
font-family="Inter" font-size="11" font-weight="700" font-style="normal" 
>
</g>

<g fill="#ffffff" fill-opacity="1" stroke="#006e51" stroke-opacity="1" stroke-width="1" stroke-linecap="square" stroke-linejoin="bevel" transform="matrix(1,0,0,1,0,0)"
font-family="Inter" font-size="11" font-weight="700" font-style="normal" 
>
<polyline fill="none" vector-effect="none" points="45,6 45,26 " />
</g>

<g fill="#00a97d" fill-opacity="1" stroke="#006e51" stroke-opacity="1" stroke-width="1.2" stroke-linecap="square" stroke-linejoin="bevel" transform="matrix(1,0,0,1,194,4)"
font-family="Inter" font-size="11" font-weight="700" font-style="normal" 
>
<path vector-effect="none" fill-rule="evenodd" d="M0.5,3.5 C0.5,1.84315 1.84315,0.5 3.5,0.5 L70.5,0.5 C72.1569,0.5 73.5,1.84315 73.5,3.5 L73.5,20.5 C73.5,22.1569 72.1569,23.5 70.5,23.5 L3.5,23.5 C1.84315,23.5 0.5,22.1569 0.5,20.5 L0.5,3.5"/>
</g>

<g fill="#ffffff" fill-opacity="1" stroke="none" transform="matrix(1,0,0,1,194,4)"
font-family="Inter" font-size="11" font-weight="700" font-style="normal" 
>
<path vector-effect="none" fill-rule="nonzero" d="M9.00781,17.0781 L9.00781,8.82813 L10.6484,8.82813 L10.6484,9.83594 L10.7227,9.83594 C10.7956,9.67448 10.9017,9.50977 11.041,9.3418 C11.1803,9.17383 11.3626,9.0332 11.5879,8.91992 C11.8132,8.80664 12.0938,8.75 12.4297,8.75 C12.8672,8.75 13.2708,8.86393 13.6406,9.0918 C14.0104,9.31966 14.306,9.66211 14.5273,10.1191 C14.7487,10.5762 14.8594,11.1484 14.8594,11.8359 C14.8594,12.5052 14.752,13.0697 14.5371,13.5293 C14.3223,13.9889 14.0306,14.3366 13.6621,14.5723 C13.2936,14.8079 12.8815,14.9258 12.4258,14.9258 C12.1029,14.9258 11.8288,14.8724 11.6035,14.7656 C11.3783,14.6589 11.194,14.5241 11.0508,14.3613 C10.9076,14.1986 10.7982,14.0339 10.7227,13.8672 L10.6719,13.8672 L10.6719,17.0781 L9.00781,17.0781 M10.6367,11.8281 C10.6367,12.1849 10.6862,12.4961 10.7852,12.7617 C10.8841,13.0273 11.0273,13.2337 11.2148,13.3809 C11.4023,13.528 11.6302,13.6016 11.8984,13.6016 C12.1693,13.6016 12.3984,13.5267 12.5859,13.377 C12.7734,13.2272 12.916,13.0189 13.0137,12.752 C13.1113,12.485 13.1602,12.1771 13.1602,11.8281 C13.1602,11.4818 13.112,11.1771 13.0156,10.9141 C12.9193,10.651 12.7773,10.4453 12.5898,10.2969 C12.4023,10.1484 12.1719,10.0742 11.8984,10.0742 C11.6276,10.0742 11.3991,10.1458 11.2129,10.2891 C11.0267,10.4323 10.8841,10.6354 10.7852,10.8984 C10.6862,11.1615 10.6367,11.4714 10.6367,11.8281 M15.9609,14.8281 L15.9609,8.82813 L17.5742,8.82813 L17.5742,9.875 L17.6367,9.875 C17.7461,9.5026 17.9297,9.2207 18.1875,9.0293 C18.4453,8.83789 18.7422,8.74219 19.0781,8.74219 C19.1615,8.74219 19.2513,8.7474 19.3477,8.75781 C19.444,8.76823 19.5286,8.78255 19.6016,8.80078 L19.6016,10.2773 C19.5234,10.2539 19.4154,10.2331 19.2773,10.2148 C19.1393,10.1966 19.013,10.1875 18.8984,10.1875 C18.6536,10.1875 18.4355,10.2402 18.2441,10.3457 C18.0527,10.4512 17.9017,10.5977 17.791,10.7852 C17.6803,10.9727 17.625,11.1888 17.625,11.4336 L17.625,14.8281 L15.9609,14.8281 M22.8984,14.9453 C22.2813,14.9453 21.7507,14.8197 21.3066,14.5684 C20.8626,14.3171 20.5208,13.9603 20.2813,13.498 C20.0417,13.0358 19.9219,12.4883 19.9219,11.8555 C19.9219,11.2383 20.0417,10.6966 20.2813,10.2305 C20.5208,9.76432 20.8587,9.40104 21.2949,9.14063 C21.7311,8.88021 22.2435,8.75 22.832,8.75 C23.2279,8.75 23.597,8.81315 23.9395,8.93945 C24.2819,9.06576 24.5814,9.25521 24.8379,9.50781 C25.0944,9.76042 25.2943,10.0775 25.4375,10.459 C25.5807,10.8405 25.6523,11.2865 25.6523,11.7969 L25.6523,12.2539 L20.5859,12.2539 L20.5859,11.2227 L24.0859,11.2227 C24.0859,10.9831 24.0339,10.7708 23.9297,10.5859 C23.8255,10.401 23.6816,10.2559 23.498,10.1504 C23.3145,10.0449 23.1016,9.99219 22.8594,9.99219 C22.6068,9.99219 22.3835,10.0501 22.1895,10.166 C21.9954,10.2819 21.8438,10.4368 21.7344,10.6309 C21.625,10.8249 21.569,11.0404 21.5664,11.2773 L21.5664,12.2578 C21.5664,12.5547 21.6217,12.8112 21.7324,13.0273 C21.8431,13.2435 22,13.4102 22.2031,13.5273 C22.4063,13.6445 22.6471,13.7031 22.9258,13.7031 C23.1107,13.7031 23.2799,13.6771 23.4336,13.625 C23.5872,13.5729 23.7188,13.4948 23.8281,13.3906 C23.9375,13.2865 24.0208,13.1589 24.0781,13.0078 L25.6172,13.1094 C25.5391,13.4792 25.3796,13.8014 25.1387,14.0762 C24.8978,14.3509 24.5879,14.5645 24.209,14.7168 C23.8301,14.8691 23.3932,14.9453 22.8984,14.9453 M31.7188,10.5391 L30.1953,10.6328 C30.1693,10.5026 30.1133,10.3848 30.0273,10.2793 C29.9414,10.1738 29.8288,10.0892 29.6895,10.0254 C29.5501,9.96159 29.3841,9.92969 29.1914,9.92969 C28.9336,9.92969 28.7161,9.98372 28.5391,10.0918 C28.362,10.1999 28.2734,10.3438 28.2734,10.5234 C28.2734,10.6667 28.3307,10.7878 28.4453,10.8867 C28.5599,10.9857 28.7565,11.0651 29.0352,11.125 L30.1211,11.3438 C30.7044,11.4635 31.1393,11.6563 31.4258,11.9219 C31.7122,12.1875 31.8555,12.5365 31.8555,12.9688 C31.8555,13.362 31.7402,13.707 31.5098,14.0039 C31.2793,14.3008 30.9642,14.5319 30.5645,14.6973 C30.1647,14.8626 29.7044,14.9453 29.1836,14.9453 C28.3893,14.9453 27.7572,14.7793 27.2871,14.4473 C26.8171,14.1152 26.5417,13.6628 26.4609,13.0898 L28.0977,13.0039 C28.1471,13.2461 28.2669,13.4303 28.457,13.5566 C28.6471,13.6829 28.8906,13.7461 29.1875,13.7461 C29.4792,13.7461 29.7142,13.6895 29.8926,13.5762 C30.071,13.4629 30.1615,13.3164 30.1641,13.1367 C30.1615,12.9857 30.0977,12.8613 29.9727,12.7637 C29.8477,12.666 29.6549,12.5911 29.3945,12.5391 L28.3555,12.332 C27.7695,12.2148 27.334,12.0117 27.0488,11.7227 C26.7637,11.4336 26.6211,11.0651 26.6211,10.6172 C26.6211,10.2318 26.7259,9.89974 26.9355,9.62109 C27.1452,9.34245 27.4408,9.1276 27.8223,8.97656 C28.2038,8.82552 28.651,8.75 29.1641,8.75 C29.9219,8.75 30.5189,8.91016 30.9551,9.23047 C31.3913,9.55078 31.6458,9.98698 31.7188,10.5391 M37.8906,10.5391 L36.3672,10.6328 C36.3411,10.5026 36.2852,10.3848 36.1992,10.2793 C36.1133,10.1738 36.0007,10.0892 35.8613,10.0254 C35.722,9.96159 35.556,9.92969 35.3633,9.92969 C35.1055,9.92969 34.888,9.98372 34.7109,10.0918 C34.5339,10.1999 34.4453,10.3438 34.4453,10.5234 C34.4453,10.6667 34.5026,10.7878 34.6172,10.8867 C34.7318,10.9857 34.9284,11.0651 35.207,11.125 L36.293,11.3438 C36.8763,11.4635 37.3112,11.6563 37.5977,11.9219 C37.8841,12.1875 38.0273,12.5365 38.0273,12.9688 C38.0273,13.362 37.9121,13.707 37.6816,14.0039 C37.4512,14.3008 37.1361,14.5319 36.7363,14.6973 C36.3366,14.8626 35.8763,14.9453 35.3555,14.9453 C34.5612,14.9453 33.929,14.7793 33.459,14.4473 C32.9889,14.1152 32.7135,13.6628 32.6328,13.0898 L34.2695,13.0039 C34.319,13.2461 34.4388,13.4303 34.6289,13.5566 C34.819,13.6829 35.0625,13.7461 35.3594,13.7461 C35.651,13.7461 35.8861,13.6895 36.0645,13.5762 C36.2428,13.4629 36.3333,13.3164 36.3359,13.1367 C36.3333,12.9857 36.2695,12.8613 36.1445,12.7637 C36.0195,12.666 35.8268,12.5911 35.5664,12.5391 L34.5273,12.332 C33.9414,12.2148 33.5059,12.0117 33.2207,11.7227 C32.9355,11.4336 32.793,11.0651 32.793,10.6172 C32.793,10.2318 32.8978,9.89974 33.1074,9.62109 C33.3171,9.34245 33.6126,9.1276 33.9941,8.97656 C34.3757,8.82552 34.8229,8.75 35.3359,8.75 C36.0938,8.75 36.6908,8.91016 37.127,9.23047 C37.5632,9.55078 37.8177,9.98698 37.8906,10.5391 M41.8047,14.9453 C41.1875,14.9453 40.6569,14.8197 40.2129,14.5684 C39.7689,14.3171 39.4271,13.9603 39.1875,13.498 C38.9479,13.0358 38.8281,12.4883 38.8281,11.8555 C38.8281,11.2383 38.9479,10.6966 39.1875,10.2305 C39.4271,9.76432 39.765,9.40104 40.2012,9.14063 C40.6374,8.88021 41.1497,8.75 41.7383,8.75 C42.1341,8.75 42.5033,8.81315 42.8457,8.93945 C43.1882,9.06576 43.4876,9.25521 43.7441,9.50781 C44.0007,9.76042 44.2005,10.0775 44.3438,10.459 C44.487,10.8405 44.5586,11.2865 44.5586,11.7969 L44.5586,12.2539 L39.4922,12.2539 L39.4922,11.2227 L42.9922,11.2227 C42.9922,10.9831 42.9401,10.7708 42.8359,10.5859 C42.7318,10.401 42.5879,10.2559 42.4043,10.1504 C42.2207,10.0449 42.0078,9.99219 41.7656,9.99219 C41.513,9.99219 41.2897,10.0501 41.0957,10.166 C40.9017,10.2819 40.75,10.4368 40.6406,10.6309 C40.5313,10.8249 40.4753,11.0404 40.4727,11.2773 L40.4727,12.2578 C40.4727,12.5547 40.528,12.8112 40.6387,13.0273 C40.7493,13.2435 40.9063,13.4102 41.1094,13.5273 C41.3125,13.6445 41.5534,13.7031 41.832,13.7031 C42.0169,13.7031 42.1862,13.6771 42.3398,13.625 C42.4935,13.5729 42.625,13.4948 42.7344,13.3906 C42.8438,13.2865 42.9271,13.1589 42.9844,13.0078 L44.5234,13.1094 C44.4453,13.4792 44.2858,13.8014 44.0449,14.0762 C43.804,14.3509 43.4941,14.5645 43.1152,14.7168 C42.7363,14.8691 42.2995,14.9453 41.8047,14.9453 M47.8438,14.9258 C47.388,14.9258 46.9759,14.8079 46.6074,14.5723 C46.2389,14.3366 45.9473,13.9889 45.7324,13.5293 C45.5176,13.0697 45.4102,12.5052 45.4102,11.8359 C45.4102,11.1484 45.5208,10.5762 45.7422,10.1191 C45.9635,9.66211 46.2585,9.31966 46.627,9.0918 C46.9954,8.86393 47.3997,8.75 47.8398,8.75 C48.1758,8.75 48.4564,8.80664 48.6816,8.91992 C48.9069,9.0332 49.0892,9.17383 49.2285,9.3418 C49.3678,9.50977 49.474,9.67448 49.5469,9.83594 L49.5977,9.83594 L49.5977,6.82813 L51.2578,6.82813 L51.2578,14.8281 L49.6172,14.8281 L49.6172,13.8672 L49.5469,13.8672 C49.4688,14.0339 49.3587,14.1986 49.2168,14.3613 C49.0749,14.5241 48.8913,14.6589 48.666,14.7656 C48.4408,14.8724 48.1667,14.9258 47.8438,14.9258 M48.3711,13.6016 C48.6393,13.6016 48.8665,13.528 49.0527,13.3809 C49.2389,13.2337 49.3822,13.0273 49.4824,12.7617 C49.5827,12.4961 49.6328,12.1849 49.6328,11.8281 C49.6328,11.4714 49.5833,11.1615 49.4844,10.8984 C49.3854,10.6354 49.2422,10.4323 49.0547,10.2891 C48.8672,10.1458 48.6393,10.0742 48.3711,10.0742 C48.0977,10.0742 47.8672,10.1484 47.6797,10.2969 C47.4922,10.4453 47.3503,10.651 47.2539,10.9141 C47.1576,11.1771 47.1094,11.4818 47.1094,11.8281 C47.1094,12.1771 47.1582,12.485 47.2559,12.752 C47.3535,13.0189 47.4954,13.2272 47.6816,13.377 C47.8678,13.5267 48.0977,13.6016 48.3711,13.6016 "/>
</g>

<g fill="#ffffff" fill-opacity="1" stroke="none" transform="matrix(0.03125,0,0,0.03125,254,12)"
font-family="Inter" font-size="11" font-weight="700" font-style="normal" 
>
<path vector-effect="none" fill-rule="nonzero" d="M111.326,191.938 C120.545,201.158 135.517,201.158 144.737,191.938 L239.144,97.5313 C245.929,90.7458 247.921,80.6413 244.233,71.7907 C240.545,62.9401 231.989,57.1871 222.401,57.1871 L33.5875,57.2608 C24.0731,57.2608 15.4437,63.0137 11.7559,71.8644 C8.06815,80.715 10.1333,90.8195 16.845,97.605 L111.252,192.012 L111.326,191.938"/>
</g>

<g fill="none" stroke="#000000" stroke-opacity="1" stroke-width="13.7195" stroke-linecap="butt" stroke-linejoin="miter" stroke-miterlimit="4" transform="matrix(0.03125,0,0,0.03125,254,12)"
font-family="Inter" font-size="11" font-weight="700" font-style="normal" 
>
<path vector-effect="none" fill-rule="nonzero" d="M111.326,191.938 C120.545,201.158 135.517,201.158 144.737,191.938 L239.144,97.5313 C245.929,90.7458 247.921,80.6413 244.233,71.7907 C240.545,62.9401 231.989,57.1871 222.401,57.1871 L33.5875,57.2608 C24.0731,57.2608 15.4437,63.0137 11.7559,71.8644 C8.06815,80.715 10.1333,90.8195 16.845,97.605 L111.252,192.012 L111.326,191.938"/>
</g>

<g fill="#ffffff" fill-opacity="1" stroke="none" transform="matrix(1,0,0,1,194,4)"
font-family="Inter" font-size="11" font-weight="700" font-style="normal" 
>
</g>

<g fill="#ffffff" fill-opacity="1" stroke="#006e51" stroke-opacity="1" stroke-width="1" stroke-linecap="square" stroke-linejoin="bevel" transform="matrix(1,0,0,1,0,0)"
font-family="Inter" font-size="11" font-weight="700" font-style="normal" 
>
</g>

<g fill="#ffffff" fill-opacity="1" stroke="#006e51" stroke-opacity="1" stroke-width="1" stroke-linecap="square" stroke-linejoin="bevel" transform="matrix(1,0,0,1,0,0)"
font-family="Inter" font-size="11" font-weight="700" font-style="normal" 
>
</g>

<g fill="#00a97d" fill-opacity="1" stroke="#006e51" stroke-opacity="1" stroke-width="1.2" stroke-linecap="square" stroke-linejoin="bevel" transform="matrix(1,0,0,1,102,4)"
font-family="Inter" font-size="11" font-weight="700" font-style="normal" 
>
<path vector-effect="none" fill-rule="evenodd" d="M0.5,3.5 C0.5,1.84315 1.84315,0.5 3.5,0.5 L41.5,0.5 C43.1569,0.5 44.5,1.84315 44.5,3.5 L44.5,20.5 C44.5,22.1569 43.1569,23.5 41.5,23.5 L3.5,23.5 C1.84315,23.5 0.5,22.1569 0.5,20.5 L0.5,3.5"/>
</g>

<g fill="#ffffff" fill-opacity="1" stroke="none" transform="matrix(1,0,0,1,102,4)"
font-family="Inter" font-size="11" font-weight="700" font-style="normal" 
>
<path vector-effect="none" fill-rule="nonzero" d="M13.8555,11.3203 L13.8555,7.875 L15.5195,7.875 L15.5195,13.875 L13.9219,13.875 L13.9219,12.7852 L13.8594,12.7852 C13.724,13.1367 13.4993,13.4193 13.1855,13.6328 C12.8717,13.8464 12.4896,13.9531 12.0391,13.9531 C11.638,13.9531 11.2852,13.862 10.9805,13.6797 C10.6758,13.4974 10.4382,13.2383 10.2676,12.9023 C10.097,12.5664 10.0104,12.1641 10.0078,11.6953 L10.0078,7.875 L11.6719,7.875 L11.6719,11.3984 C11.6745,11.7526 11.7695,12.0326 11.957,12.2383 C12.1445,12.444 12.3958,12.5469 12.7109,12.5469 C12.9115,12.5469 13.099,12.5007 13.2734,12.4082 C13.4479,12.3158 13.5892,12.1784 13.6973,11.9961 C13.8053,11.8138 13.8581,11.5885 13.8555,11.3203 M16.8359,16.125 L16.8359,7.875 L18.4766,7.875 L18.4766,8.88281 L18.5508,8.88281 C18.6237,8.72135 18.7298,8.55664 18.8691,8.38867 C19.0085,8.2207 19.1908,8.08008 19.416,7.9668 C19.6413,7.85352 19.9219,7.79688 20.2578,7.79688 C20.6953,7.79688 21.099,7.91081 21.4688,8.13867 C21.8385,8.36654 22.1341,8.70898 22.3555,9.16602 C22.5768,9.62305 22.6875,10.1953 22.6875,10.8828 C22.6875,11.5521 22.5801,12.1165 22.3652,12.5762 C22.1504,13.0358 21.8587,13.3835 21.4902,13.6191 C21.1217,13.8548 20.7096,13.9727 20.2539,13.9727 C19.931,13.9727 19.6569,13.9193 19.4316,13.8125 C19.2064,13.7057 19.0221,13.571 18.8789,13.4082 C18.7357,13.2454 18.6263,13.0807 18.5508,12.9141 L18.5,12.9141 L18.5,16.125 L16.8359,16.125 M18.4648,10.875 C18.4648,11.2318 18.5143,11.543 18.6133,11.8086 C18.7122,12.0742 18.8555,12.2806 19.043,12.4277 C19.2305,12.5749 19.4583,12.6484 19.7266,12.6484 C19.9974,12.6484 20.2266,12.5736 20.4141,12.4238 C20.6016,12.2741 20.7441,12.0658 20.8418,11.7988 C20.9395,11.5319 20.9883,11.224 20.9883,10.875 C20.9883,10.5286 20.9401,10.224 20.8438,9.96094 C20.7474,9.69792 20.6055,9.49219 20.418,9.34375 C20.2305,9.19531 20,9.12109 19.7266,9.12109 C19.4557,9.12109 19.2272,9.19271 19.041,9.33594 C18.8548,9.47917 18.7122,9.68229 18.6133,9.94531 C18.5143,10.2083 18.4648,10.5182 18.4648,10.875 "/>
</g>

<g fill="#ffffff" fill-opacity="1" stroke="none" transform="matrix(0.03125,0,0,0.03125,133,12)"
font-family="Inter" font-size="11" font-weight="700" font-style="normal" 
>
<path vector-effect="none" fill-rule="nonzero" d="M111.326,191.938 C120.545,201.158 135.517,201.158 144.737,191.938 L239.144,97.5313 C245.929,90.7458 247.921,80.6413 244.233,71.7907 C240.545,62.9401 231.989,57.1871 222.401,57.1871 L33.5875,57.2608 C24.0731,57.2608 15.4437,63.0137 11.7559,71.8644 C8.06815,80.715 10.1333,90.8195 16.845,97.605 L111.252,192.012 L111.326,191.938"/>
</g>

<g fill="none" stroke="#000000" stroke-opacity="1" stroke-width="13.7195" stroke-linecap="butt" stroke-linejoin="miter" stroke-miterlimit="4" transform="matrix(0.03125,0,0,0.03125,133,12)"
font-family="Inter" font-size="11" font-weight="700" font-style="normal" 
>
<path vector-effect="none" fill-rule="nonzero" d="M111.326,191.938 C120.545,201.158 135.517,201.158 144.737,191.938 L239.144,97.5313 C245.929,90.7458 247.921,80.6413 244.233,71.7907 C240.545,62.9401 231.989,57.1871 222.401,57.1871 L33.5875,57.2608 C24.0731,57.2608 15.4437,63.0137 11.7559,71.8644 C8.06815,80.715 10.1333,90.8195 16.845,97.605 L111.252,192.012 L111.326,191.938"/>
</g>

<g fill="#ffffff" fill-opacity="1" stroke="none" transform="matrix(1,0,0,1,102,4)"
font-family="Inter" font-size="11" font-weight="700" font-style="normal" 
>
</g>

<g fill="#ffffff" fill-opacity="1" stroke="#006e51" stroke-opacity="1" stroke-width="1" stroke-linecap="square" stroke-linejoin="bevel" transform="matrix(1,0,0,1,0,0)"
font-family="Inter" font-size="11" font-weight="700" font-style="normal" 
>
</g>

<g fill="none" stroke="#000000" stroke-opacity="1" stroke-width="1" stroke-linecap="square" stroke-linejoin="bevel" transform="matrix(1,0,0,1,0,0)"
font-family=".AppleSystemUIFont" font-size="13" font-weight="400" font-style="normal" 
>
</g>
</g>
</svg>
