<?xml version="1.0" encoding="UTF-8" standalone="no"?>
<svg width="23.6361mm" height="11.2889mm"
 viewBox="0 0 67 32"
 xmlns="http://www.w3.org/2000/svg" xmlns:xlink="http://www.w3.org/1999/xlink" version="1.2" baseProfile="tiny">
<title>variable</title>
<desc>variable</desc>
<defs>
</defs>
<g fill="none" stroke="black" stroke-width="1" fill-rule="evenodd" stroke-linecap="square" stroke-linejoin="bevel" >

<g fill="none" stroke="#000000" stroke-opacity="1" stroke-width="1" stroke-linecap="square" stroke-linejoin="bevel" transform="matrix(1,0,0,1,0,0)"
font-family=".AppleSystemUIFont" font-size="13" font-weight="400" font-style="normal" 
>
</g>

<g fill="none" stroke="#000000" stroke-opacity="1" stroke-width="1" stroke-linecap="square" stroke-linejoin="bevel" transform="matrix(1,0,0,1,0,0)"
font-family=".AppleSystemUIFont" font-size="13" font-weight="400" font-style="normal" 
>
</g>

<g fill="#ff9835" fill-opacity="1" stroke="#f87800" stroke-opacity="1" stroke-width="1.2" stroke-linecap="square" stroke-linejoin="bevel" transform="matrix(1,0,0,1,0,0)"
font-family=".AppleSystemUIFont" font-size="13" font-weight="400" font-style="normal" 
>
<path vector-effect="none" fill-rule="evenodd" d="M1,16 C1,7.71573 8.16344,1 17,1 L50,1 C58.8366,1 66,7.71573 66,16 C66,24.2843 58.8366,31 50,31 L17,31 C8.16344,31 1,24.2843 1,16 "/>
</g>

<g fill="#ffffff" fill-opacity="1" stroke="none" transform="matrix(1,0,0,1,0,0)"
font-family="Inter" font-size="11" font-weight="700" font-style="normal" 
>
<path vector-effect="none" fill-rule="nonzero" d="M18.3047,14 L16.207,20 L14.332,20 L12.2344,14 L13.9922,14 L15.2383,18.293 L15.3008,18.293 L16.543,14 L18.3047,14 M20.6875,20.1133 C20.3047,20.1133 19.9635,20.0462 19.6641,19.9121 C19.3646,19.778 19.1283,19.5788 18.9551,19.3145 C18.7819,19.0501 18.6953,18.7201 18.6953,18.3242 C18.6953,17.9909 18.7565,17.7109 18.8789,17.4844 C19.0013,17.2578 19.168,17.0755 19.3789,16.9375 C19.5898,16.7995 19.8301,16.6953 20.0996,16.625 C20.3691,16.5547 20.6523,16.5052 20.9492,16.4766 C21.2982,16.4401 21.5794,16.4056 21.793,16.373 C22.0065,16.3405 22.1615,16.2917 22.2578,16.2266 C22.3542,16.1615 22.4023,16.0651 22.4023,15.9375 L22.4023,15.9141 C22.4023,15.6667 22.3249,15.4753 22.1699,15.3398 C22.015,15.2044 21.7956,15.1367 21.5117,15.1367 C21.2122,15.1367 20.974,15.2025 20.7969,15.334 C20.6198,15.4655 20.5026,15.6302 20.4453,15.8281 L18.9063,15.7031 C18.9844,15.3385 19.138,15.0228 19.3672,14.7559 C19.5964,14.4889 19.8926,14.2832 20.2559,14.1387 C20.6191,13.9941 21.0404,13.9219 21.5195,13.9219 C21.8529,13.9219 22.1725,13.9609 22.4785,14.0391 C22.7845,14.1172 23.0566,14.2383 23.2949,14.4023 C23.5332,14.5664 23.7214,14.7767 23.8594,15.0332 C23.9974,15.2897 24.0664,15.5964 24.0664,15.9531 L24.0664,20 L22.4883,20 L22.4883,19.168 L22.4414,19.168 C22.3451,19.3555 22.2161,19.5202 22.0547,19.6621 C21.8932,19.804 21.6992,19.9147 21.4727,19.9941 C21.2461,20.0736 20.9844,20.1133 20.6875,20.1133 M21.1641,18.9648 C21.4089,18.9648 21.625,18.916 21.8125,18.8184 C22,18.7207 22.1471,18.5885 22.2539,18.4219 C22.3607,18.2552 22.4141,18.0664 22.4141,17.8555 L22.4141,17.2188 C22.362,17.2526 22.291,17.2832 22.2012,17.3105 C22.1113,17.3379 22.0104,17.3626 21.8984,17.3848 C21.7865,17.4069 21.6745,17.4264 21.5625,17.4434 C21.4505,17.4603 21.349,17.4753 21.2578,17.4883 C21.0625,17.5169 20.8919,17.5625 20.7461,17.625 C20.6003,17.6875 20.487,17.7715 20.4063,17.877 C20.3255,17.9824 20.2852,18.1133 20.2852,18.2695 C20.2852,18.4961 20.3678,18.6686 20.5332,18.7871 C20.6986,18.9056 20.9089,18.9648 21.1641,18.9648 M25.3516,20 L25.3516,14 L26.9648,14 L26.9648,15.0469 L27.0273,15.0469 C27.1367,14.6745 27.3203,14.3926 27.5781,14.2012 C27.8359,14.0098 28.1328,13.9141 28.4688,13.9141 C28.5521,13.9141 28.6419,13.9193 28.7383,13.9297 C28.8346,13.9401 28.9193,13.9544 28.9922,13.9727 L28.9922,15.4492 C28.9141,15.4258 28.806,15.4049 28.668,15.3867 C28.5299,15.3685 28.4036,15.3594 28.2891,15.3594 C28.0443,15.3594 27.8262,15.4121 27.6348,15.5176 C27.4434,15.623 27.2923,15.7695 27.1816,15.957 C27.071,16.1445 27.0156,16.3607 27.0156,16.6055 L27.0156,20 L25.3516,20 M29.8359,20 L29.8359,14 L31.5,14 L31.5,20 L29.8359,20 M30.6719,13.2266 C30.4245,13.2266 30.2129,13.1439 30.0371,12.9785 C29.8613,12.8132 29.7734,12.6146 29.7734,12.3828 C29.7734,12.1536 29.8613,11.9564 30.0371,11.791 C30.2129,11.6257 30.4245,11.543 30.6719,11.543 C30.9193,11.543 31.1309,11.6257 31.3066,11.791 C31.4824,11.9564 31.5703,12.1536 31.5703,12.3828 C31.5703,12.6146 31.4824,12.8132 31.3066,12.9785 C31.1309,13.1439 30.9193,13.2266 30.6719,13.2266 M34.5313,20.1133 C34.1484,20.1133 33.8073,20.0462 33.5078,19.9121 C33.2083,19.778 32.972,19.5788 32.7988,19.3145 C32.6257,19.0501 32.5391,18.7201 32.5391,18.3242 C32.5391,17.9909 32.6003,17.7109 32.7227,17.4844 C32.8451,17.2578 33.0117,17.0755 33.2227,16.9375 C33.4336,16.7995 33.6738,16.6953 33.9434,16.625 C34.2129,16.5547 34.4961,16.5052 34.793,16.4766 C35.1419,16.4401 35.4232,16.4056 35.6367,16.373 C35.8503,16.3405 36.0052,16.2917 36.1016,16.2266 C36.1979,16.1615 36.2461,16.0651 36.2461,15.9375 L36.2461,15.9141 C36.2461,15.6667 36.1686,15.4753 36.0137,15.3398 C35.8587,15.2044 35.6393,15.1367 35.3555,15.1367 C35.056,15.1367 34.8177,15.2025 34.6406,15.334 C34.4635,15.4655 34.3464,15.6302 34.2891,15.8281 L32.75,15.7031 C32.8281,15.3385 32.9818,15.0228 33.2109,14.7559 C33.4401,14.4889 33.7363,14.2832 34.0996,14.1387 C34.4629,13.9941 34.8841,13.9219 35.3633,13.9219 C35.6966,13.9219 36.0163,13.9609 36.3223,14.0391 C36.6283,14.1172 36.9004,14.2383 37.1387,14.4023 C37.377,14.5664 37.5651,14.7767 37.7031,15.0332 C37.8411,15.2897 37.9102,15.5964 37.9102,15.9531 L37.9102,20 L36.332,20 L36.332,19.168 L36.2852,19.168 C36.1888,19.3555 36.0599,19.5202 35.8984,19.6621 C35.737,19.804 35.543,19.9147 35.3164,19.9941 C35.0898,20.0736 34.8281,20.1133 34.5313,20.1133 M35.0078,18.9648 C35.2526,18.9648 35.4688,18.916 35.6563,18.8184 C35.8438,18.7207 35.9909,18.5885 36.0977,18.4219 C36.2044,18.2552 36.2578,18.0664 36.2578,17.8555 L36.2578,17.2188 C36.2057,17.2526 36.1348,17.2832 36.0449,17.3105 C35.9551,17.3379 35.8542,17.3626 35.7422,17.3848 C35.6302,17.4069 35.5182,17.4264 35.4063,17.4434 C35.2943,17.4603 35.1927,17.4753 35.1016,17.4883 C34.9063,17.5169 34.7357,17.5625 34.5898,17.625 C34.444,17.6875 34.3307,17.7715 34.25,17.877 C34.1693,17.9824 34.1289,18.1133 34.1289,18.2695 C34.1289,18.4961 34.2116,18.6686 34.377,18.7871 C34.5423,18.9056 34.7526,18.9648 35.0078,18.9648 M39.2266,20 L39.2266,12 L40.8906,12 L40.8906,15.0078 L40.9414,15.0078 C41.0143,14.8464 41.1204,14.6816 41.2598,14.5137 C41.3991,14.3457 41.5814,14.2051 41.8066,14.0918 C42.0319,13.9785 42.3125,13.9219 42.6484,13.9219 C43.0859,13.9219 43.4896,14.0358 43.8594,14.2637 C44.2292,14.4915 44.5247,14.834 44.7461,15.291 C44.9674,15.748 45.0781,16.3203 45.0781,17.0078 C45.0781,17.6771 44.9707,18.2415 44.7559,18.7012 C44.541,19.1608 44.2493,19.5085 43.8809,19.7441 C43.5124,19.9798 43.1003,20.0977 42.6445,20.0977 C42.3216,20.0977 42.0475,20.0443 41.8223,19.9375 C41.597,19.8307 41.4128,19.696 41.2695,19.5332 C41.1263,19.3704 41.0169,19.2057 40.9414,19.0391 L40.8672,19.0391 L40.8672,20 L39.2266,20 M40.8555,17 C40.8555,17.3568 40.9049,17.668 41.0039,17.9336 C41.1029,18.1992 41.2461,18.4056 41.4336,18.5527 C41.6211,18.6999 41.849,18.7734 42.1172,18.7734 C42.388,18.7734 42.6172,18.6986 42.8047,18.5488 C42.9922,18.3991 43.1348,18.1908 43.2324,17.9238 C43.3301,17.6569 43.3789,17.349 43.3789,17 C43.3789,16.6536 43.3307,16.349 43.2344,16.0859 C43.138,15.8229 42.9961,15.6172 42.8086,15.4688 C42.6211,15.3203 42.3906,15.2461 42.1172,15.2461 C41.8464,15.2461 41.6178,15.3177 41.4316,15.4609 C41.2454,15.6042 41.1029,15.8073 41.0039,16.0703 C40.9049,16.3333 40.8555,16.6432 40.8555,17 M47.8438,12 L47.8438,20 L46.1797,20 L46.1797,12 L47.8438,12 M51.8984,20.1172 C51.2813,20.1172 50.7507,19.9915 50.3066,19.7402 C49.8626,19.4889 49.5208,19.1322 49.2813,18.6699 C49.0417,18.2077 48.9219,17.6602 48.9219,17.0273 C48.9219,16.4102 49.0417,15.8685 49.2813,15.4023 C49.5208,14.9362 49.8587,14.5729 50.2949,14.3125 C50.7311,14.0521 51.2435,13.9219 51.832,13.9219 C52.2279,13.9219 52.597,13.985 52.9395,14.1113 C53.2819,14.2376 53.5814,14.4271 53.8379,14.6797 C54.0944,14.9323 54.2943,15.2493 54.4375,15.6309 C54.5807,16.0124 54.6523,16.4583 54.6523,16.9688 L54.6523,17.4258 L49.5859,17.4258 L49.5859,16.3945 L53.0859,16.3945 C53.0859,16.1549 53.0339,15.9427 52.9297,15.7578 C52.8255,15.5729 52.6816,15.4277 52.498,15.3223 C52.3145,15.2168 52.1016,15.1641 51.8594,15.1641 C51.6068,15.1641 51.3835,15.222 51.1895,15.3379 C50.9954,15.4538 50.8438,15.6087 50.7344,15.8027 C50.625,15.9967 50.569,16.2122 50.5664,16.4492 L50.5664,17.4297 C50.5664,17.7266 50.6217,17.9831 50.7324,18.1992 C50.8431,18.4154 51,18.582 51.2031,18.6992 C51.4063,18.8164 51.6471,18.875 51.9258,18.875 C52.1107,18.875 52.2799,18.849 52.4336,18.7969 C52.5872,18.7448 52.7188,18.6667 52.8281,18.5625 C52.9375,18.4583 53.0208,18.3307 53.0781,18.1797 L54.6172,18.2813 C54.5391,18.651 54.3796,18.9733 54.1387,19.248 C53.8978,19.5228 53.5879,19.7363 53.209,19.8887 C52.8301,20.041 52.3932,20.1172 51.8984,20.1172 "/>
</g>

<g fill="#ffffff" fill-opacity="1" stroke="none" transform="matrix(1,0,0,1,0,0)"
font-family="Inter" font-size="11" font-weight="700" font-style="normal" 
>
</g>

<g fill="none" stroke="#000000" stroke-opacity="1" stroke-width="1" stroke-linecap="square" stroke-linejoin="bevel" transform="matrix(1,0,0,1,0,0)"
font-family=".AppleSystemUIFont" font-size="13" font-weight="400" font-style="normal" 
>
</g>
</g>
</svg>
