<?xml version="1.0" encoding="UTF-8" standalone="no"?>
<svg width="78.6694mm" height="11.2889mm"
 viewBox="0 0 223 32"
 xmlns="http://www.w3.org/2000/svg" xmlns:xlink="http://www.w3.org/1999/xlink" version="1.2" baseProfile="tiny">
<title>Abstract block</title>
<desc>block_hubs_all_motors_port_power</desc>
<defs>
</defs>
<g fill="none" stroke="black" stroke-width="1" fill-rule="evenodd" stroke-linecap="square" stroke-linejoin="bevel" >

<g fill="none" stroke="#000000" stroke-opacity="1" stroke-width="1" stroke-linecap="square" stroke-linejoin="bevel" transform="matrix(1,0,0,1,0,0)"
font-family=".AppleSystemUIFont" font-size="13" font-weight="400" font-style="normal" 
>
</g>

<g fill="none" stroke="#000000" stroke-opacity="1" stroke-width="1" stroke-linecap="square" stroke-linejoin="bevel" transform="matrix(1,0,0,1,0,0)"
font-family=".AppleSystemUIFont" font-size="13" font-weight="400" font-style="normal" 
>
</g>

<g fill="#0090f5" fill-opacity="1" stroke="#0070ba" stroke-opacity="1" stroke-width="1.2" stroke-linecap="square" stroke-linejoin="bevel" transform="matrix(1,0,0,1,0,0)"
font-family=".AppleSystemUIFont" font-size="13" font-weight="400" font-style="normal" 
>
<path vector-effect="none" fill-rule="evenodd" d="M1,16 C1,7.71573 8.16344,1 17,1 L205.667,1 C214.503,1 221.667,7.71573 221.667,16 C221.667,24.2843 214.503,31 205.667,31 L17,31 C8.16344,31 1,24.2843 1,16 "/>
</g>

<g fill="#ffffff" fill-opacity="1" stroke="none" transform="matrix(1,0,0,1,0,0)"
font-family="Inter" font-size="11" font-weight="700" font-style="normal" 
>
<path vector-effect="none" fill-rule="nonzero" d="M177.008,20.125 L177.008,11.875 L178.648,11.875 L178.648,12.8828 L178.723,12.8828 C178.796,12.7214 178.902,12.5566 179.041,12.3887 C179.18,12.2207 179.363,12.0801 179.588,11.9668 C179.813,11.8535 180.094,11.7969 180.43,11.7969 C180.867,11.7969 181.271,11.9108 181.641,12.1387 C182.01,12.3665 182.306,12.709 182.527,13.166 C182.749,13.623 182.859,14.1953 182.859,14.8828 C182.859,15.5521 182.752,16.1165 182.537,16.5762 C182.322,17.0358 182.031,17.3835 181.662,17.6191 C181.294,17.8548 180.882,17.9727 180.426,17.9727 C180.103,17.9727 179.829,17.9193 179.604,17.8125 C179.378,17.7057 179.194,17.571 179.051,17.4082 C178.908,17.2454 178.798,17.0807 178.723,16.9141 L178.672,16.9141 L178.672,20.125 L177.008,20.125 M178.637,14.875 C178.637,15.2318 178.686,15.543 178.785,15.8086 C178.884,16.0742 179.027,16.2806 179.215,16.4277 C179.402,16.5749 179.63,16.6484 179.898,16.6484 C180.169,16.6484 180.398,16.5736 180.586,16.4238 C180.773,16.2741 180.916,16.0658 181.014,15.7988 C181.111,15.5319 181.16,15.224 181.16,14.875 C181.16,14.5286 181.112,14.224 181.016,13.9609 C180.919,13.6979 180.777,13.4922 180.59,13.3438 C180.402,13.1953 180.172,13.1211 179.898,13.1211 C179.628,13.1211 179.399,13.1927 179.213,13.3359 C179.027,13.4792 178.884,13.6823 178.785,13.9453 C178.686,14.2083 178.637,14.5182 178.637,14.875 M186.672,17.9922 C186.065,17.9922 185.541,17.8626 185.1,17.6035 C184.658,17.3444 184.318,16.9824 184.078,16.5176 C183.839,16.0527 183.719,15.513 183.719,14.8984 C183.719,14.2786 183.839,13.7363 184.078,13.2715 C184.318,12.8066 184.658,12.4447 185.1,12.1855 C185.541,11.9264 186.065,11.7969 186.672,11.7969 C187.279,11.7969 187.803,11.9264 188.244,12.1855 C188.686,12.4447 189.026,12.8066 189.266,13.2715 C189.505,13.7363 189.625,14.2786 189.625,14.8984 C189.625,15.513 189.505,16.0527 189.266,16.5176 C189.026,16.9824 188.686,17.3444 188.244,17.6035 C187.803,17.8626 187.279,17.9922 186.672,17.9922 M186.68,16.7031 C186.956,16.7031 187.186,16.6243 187.371,16.4668 C187.556,16.3092 187.696,16.0938 187.791,15.8203 C187.886,15.5469 187.934,15.2357 187.934,14.8867 C187.934,14.5378 187.886,14.2266 187.791,13.9531 C187.696,13.6797 187.556,13.4635 187.371,13.3047 C187.186,13.1458 186.956,13.0664 186.68,13.0664 C186.401,13.0664 186.167,13.1458 185.979,13.3047 C185.79,13.4635 185.648,13.6797 185.553,13.9531 C185.458,14.2266 185.41,14.5378 185.41,14.8867 C185.41,15.2357 185.458,15.5469 185.553,15.8203 C185.648,16.0938 185.79,16.3092 185.979,16.4668 C186.167,16.6243 186.401,16.7031 186.68,16.7031 M191.754,17.875 L190.121,11.875 L191.805,11.875 L192.734,15.9063 L192.789,15.9063 L193.758,11.875 L195.41,11.875 L196.395,15.8828 L196.445,15.8828 L197.359,11.875 L199.039,11.875 L197.41,17.875 L195.648,17.875 L194.617,14.1016 L194.543,14.1016 L193.512,17.875 L191.754,17.875 M202.508,17.9922 C201.891,17.9922 201.36,17.8665 200.916,17.6152 C200.472,17.3639 200.13,17.0072 199.891,16.5449 C199.651,16.0827 199.531,15.5352 199.531,14.9023 C199.531,14.2852 199.651,13.7435 199.891,13.2773 C200.13,12.8112 200.468,12.4479 200.904,12.1875 C201.34,11.9271 201.853,11.7969 202.441,11.7969 C202.837,11.7969 203.206,11.86 203.549,11.9863 C203.891,12.1126 204.191,12.3021 204.447,12.5547 C204.704,12.8073 204.904,13.1243 205.047,13.5059 C205.19,13.8874 205.262,14.3333 205.262,14.8438 L205.262,15.3008 L200.195,15.3008 L200.195,14.2695 L203.695,14.2695 C203.695,14.0299 203.643,13.8177 203.539,13.6328 C203.435,13.4479 203.291,13.3027 203.107,13.1973 C202.924,13.0918 202.711,13.0391 202.469,13.0391 C202.216,13.0391 201.993,13.097 201.799,13.2129 C201.605,13.3288 201.453,13.4837 201.344,13.6777 C201.234,13.8717 201.178,14.0872 201.176,14.3242 L201.176,15.3047 C201.176,15.6016 201.231,15.8581 201.342,16.0742 C201.452,16.2904 201.609,16.457 201.813,16.5742 C202.016,16.6914 202.257,16.75 202.535,16.75 C202.72,16.75 202.889,16.724 203.043,16.6719 C203.197,16.6198 203.328,16.5417 203.438,16.4375 C203.547,16.3333 203.63,16.2057 203.688,16.0547 L205.227,16.1563 C205.148,16.526 204.989,16.8483 204.748,17.123 C204.507,17.3978 204.197,17.6113 203.818,17.7637 C203.439,17.916 203.003,17.9922 202.508,17.9922 M206.336,17.875 L206.336,11.875 L207.949,11.875 L207.949,12.9219 L208.012,12.9219 C208.121,12.5495 208.305,12.2676 208.563,12.0762 C208.82,11.8848 209.117,11.7891 209.453,11.7891 C209.536,11.7891 209.626,11.7943 209.723,11.8047 C209.819,11.8151 209.904,11.8294 209.977,11.8477 L209.977,13.3242 C209.898,13.3008 209.79,13.2799 209.652,13.2617 C209.514,13.2435 209.388,13.2344 209.273,13.2344 C209.029,13.2344 208.811,13.2871 208.619,13.3926 C208.428,13.498 208.277,13.6445 208.166,13.832 C208.055,14.0195 208,14.2357 208,14.4805 L208,17.875 L206.336,17.875"/>
</g>

<g fill="#ffffff" fill-opacity="1" stroke="none" transform="matrix(0.0285,0,0,0.0285,11.2928,4.44754)"
font-family="Inter" font-size="11" font-weight="700" font-style="normal" 
>
<path vector-effect="none" fill-rule="nonzero" d="M410.778,59.991 C376.729,59.991 346.629,75.6235 326.182,99.684 C216.768,129.689 131.433,215.271 101.927,324.891 C79.5232,345.494 65.3275,374.762 65.54,407.6 C65.7463,439.573 79.3407,468.172 100.975,488.421 C130.228,601.34 218.744,689.335 331.859,718.096 C331.956,718.125 331.989,718.313 332.085,718.338 C352.242,738.376 380.064,750.708 410.778,750.708 C441.492,750.708 469.314,738.376 489.47,718.338 C489.549,718.262 489.618,718.17 489.696,718.096 C604.323,688.948 693.738,598.994 721.758,483.921 C742.939,463.42 756.216,434.907 756.015,403.1 C755.801,370.079 741.086,340.899 718.209,320.633 C687.622,213.077 603.338,129.291 495.373,99.684 C474.926,75.6235 444.827,59.991 410.778,59.991 M410.778,91.8938 C455.052,91.8938 490.89,127.731 490.89,172.006 C490.89,216.28 455.052,252.102 410.778,252.102 C366.503,252.102 330.666,216.28 330.666,172.006 C330.666,127.731 366.503,91.8938 410.778,91.8938 M177.071,325.601 C221.346,325.601 257.183,361.438 257.183,405.713 C257.183,449.987 221.346,485.808 177.071,485.808 C132.796,485.808 96.7332,449.987 96.7332,405.713 C96.7332,361.438 132.796,325.601 177.071,325.601 M644.485,325.601 C688.763,325.601 724.822,361.438 724.822,405.713 C724.822,449.987 688.763,485.808 644.485,485.808 C600.21,485.808 564.373,449.987 564.373,405.713 C564.373,361.438 600.21,325.601 644.485,325.601 M396.601,335.762 L424.955,335.762 C431.754,335.762 437.245,342.538 437.245,350.891 L437.245,381.6 L467.971,381.6 C476.323,381.6 483.083,387.091 483.083,393.89 L483.083,422.245 C483.083,429.044 476.323,434.535 467.971,434.535 L437.245,434.535 L437.245,465.26 C437.245,473.612 431.754,480.373 424.955,480.373 L396.601,480.373 C389.801,480.373 384.31,473.613 384.31,465.26 L384.31,434.535 L353.585,434.535 C345.233,434.535 338.472,429.044 338.472,422.245 L338.472,393.89 C338.472,387.091 345.232,381.6 353.585,381.6 L384.31,381.6 L384.31,350.891 C384.31,342.539 389.801,335.762 396.601,335.762 M410.778,559.307 C455.052,559.307 490.89,595.371 490.89,639.645 C490.89,683.918 455.052,719.757 410.778,719.757 C366.503,719.757 330.666,683.918 330.666,639.645 C330.666,595.371 366.503,559.307 410.778,559.307 "/>
</g>

<g fill="none" stroke="#000000" stroke-opacity="1" stroke-width="22.7975" stroke-linecap="round" stroke-linejoin="round" transform="matrix(0.0285,0,0,0.0285,11.2928,4.44754)"
font-family="Inter" font-size="11" font-weight="700" font-style="normal" 
>
<path vector-effect="none" fill-rule="nonzero" d="M410.778,59.991 C376.729,59.991 346.629,75.6235 326.182,99.684 C216.768,129.689 131.433,215.271 101.927,324.891 C79.5232,345.494 65.3275,374.762 65.54,407.6 C65.7463,439.573 79.3407,468.172 100.975,488.421 C130.228,601.34 218.744,689.335 331.859,718.096 C331.956,718.125 331.989,718.313 332.085,718.338 C352.242,738.376 380.064,750.708 410.778,750.708 C441.492,750.708 469.314,738.376 489.47,718.338 C489.549,718.262 489.618,718.17 489.696,718.096 C604.323,688.948 693.738,598.994 721.758,483.921 C742.939,463.42 756.216,434.907 756.015,403.1 C755.801,370.079 741.086,340.899 718.209,320.633 C687.622,213.077 603.338,129.291 495.373,99.684 C474.926,75.6235 444.827,59.991 410.778,59.991 M410.778,91.8938 C455.052,91.8938 490.89,127.731 490.89,172.006 C490.89,216.28 455.052,252.102 410.778,252.102 C366.503,252.102 330.666,216.28 330.666,172.006 C330.666,127.731 366.503,91.8938 410.778,91.8938 M177.071,325.601 C221.346,325.601 257.183,361.438 257.183,405.713 C257.183,449.987 221.346,485.808 177.071,485.808 C132.796,485.808 96.7332,449.987 96.7332,405.713 C96.7332,361.438 132.796,325.601 177.071,325.601 M644.485,325.601 C688.763,325.601 724.822,361.438 724.822,405.713 C724.822,449.987 688.763,485.808 644.485,485.808 C600.21,485.808 564.373,449.987 564.373,405.713 C564.373,361.438 600.21,325.601 644.485,325.601 M396.601,335.762 L424.955,335.762 C431.754,335.762 437.245,342.538 437.245,350.891 L437.245,381.6 L467.971,381.6 C476.323,381.6 483.083,387.091 483.083,393.89 L483.083,422.245 C483.083,429.044 476.323,434.535 467.971,434.535 L437.245,434.535 L437.245,465.26 C437.245,473.612 431.754,480.373 424.955,480.373 L396.601,480.373 C389.801,480.373 384.31,473.613 384.31,465.26 L384.31,434.535 L353.585,434.535 C345.233,434.535 338.472,429.044 338.472,422.245 L338.472,393.89 C338.472,387.091 345.232,381.6 353.585,381.6 L384.31,381.6 L384.31,350.891 C384.31,342.539 389.801,335.762 396.601,335.762 M410.778,559.307 C455.052,559.307 490.89,595.371 490.89,639.645 C490.89,683.918 455.052,719.757 410.778,719.757 C366.503,719.757 330.666,683.918 330.666,639.645 C330.666,595.371 366.503,559.307 410.778,559.307 "/>
</g>

<g fill="#000000" fill-opacity="1" stroke="none" transform="matrix(0.0285,0,0,0.0285,11.2928,4.44754)"
font-family="Inter" font-size="11" font-weight="700" font-style="normal" 
>
<path vector-effect="none" fill-rule="evenodd" d="M394.961,355.661 C394.961,347.613 401.485,341.088 409.533,341.088 C417.582,341.088 424.106,347.613 424.106,355.661 L424.106,457.48 C424.106,465.528 417.582,472.053 409.533,472.053 C401.485,472.053 394.961,465.528 394.961,457.48 L394.961,355.661"/>
</g>

<g fill="none" stroke="#000000" stroke-opacity="1" stroke-width="20" stroke-linecap="round" stroke-linejoin="round" transform="matrix(0.0285,0,0,0.0285,11.2928,4.44754)"
font-family="Inter" font-size="11" font-weight="700" font-style="normal" 
>
<path vector-effect="none" fill-rule="evenodd" d="M394.961,355.661 C394.961,347.613 401.485,341.088 409.533,341.088 C417.582,341.088 424.106,347.613 424.106,355.661 L424.106,457.48 C424.106,465.528 417.582,472.053 409.533,472.053 C401.485,472.053 394.961,465.528 394.961,457.48 L394.961,355.661"/>
</g>

<g fill="#000000" fill-opacity="1" stroke="none" transform="matrix(0,0.0285,-0.0285,0,11.2928,4.44754)"
font-family="Inter" font-size="11" font-weight="700" font-style="normal" 
>
<path vector-effect="none" fill-rule="evenodd" d="M394.152,-461.016 C394.152,-469.064 400.676,-475.588 408.724,-475.588 C416.773,-475.588 423.297,-469.064 423.297,-461.016 L423.297,-359.196 C423.297,-351.148 416.773,-344.624 408.724,-344.624 C400.676,-344.624 394.152,-351.148 394.152,-359.196 L394.152,-461.016"/>
</g>

<g fill="none" stroke="#000000" stroke-opacity="1" stroke-width="20" stroke-linecap="round" stroke-linejoin="round" transform="matrix(0,0.0285,-0.0285,0,11.2928,4.44754)"
font-family="Inter" font-size="11" font-weight="700" font-style="normal" 
>
<path vector-effect="none" fill-rule="evenodd" d="M394.152,-461.016 C394.152,-469.064 400.676,-475.588 408.724,-475.588 C416.773,-475.588 423.297,-469.064 423.297,-461.016 L423.297,-359.196 C423.297,-351.148 416.773,-344.624 408.724,-344.624 C400.676,-344.624 394.152,-351.148 394.152,-359.196 L394.152,-461.016"/>
</g>

<g fill="#ffffff" fill-opacity="1" stroke="none" transform="matrix(1,0,0,1,0,0)"
font-family="Inter" font-size="11" font-weight="700" font-style="normal" 
>
</g>

<g fill="#ffffff" fill-opacity="1" stroke="#0070ba" stroke-opacity="1" stroke-width="1" stroke-linecap="square" stroke-linejoin="bevel" transform="matrix(1,0,0,1,0,0)"
font-family="Inter" font-size="11" font-weight="700" font-style="normal" 
>
<polyline fill="none" vector-effect="none" points="45,6 45,26 " />
</g>

<g fill="#ffffff" fill-opacity="1" stroke="#0070ba" stroke-opacity="1" stroke-width="1" stroke-linecap="square" stroke-linejoin="bevel" transform="matrix(1,0,0,1,0,0)"
font-family="Inter" font-size="11" font-weight="700" font-style="normal" 
>
</g>

<g fill="#ffffff" fill-opacity="1" stroke="#0070ba" stroke-opacity="1" stroke-width="1" stroke-linecap="square" stroke-linejoin="bevel" transform="matrix(1,0,0,1,0,0)"
font-family="Inter" font-size="11" font-weight="700" font-style="normal" 
>
</g>

<g fill="#0070ba" fill-opacity="1" stroke="#0070ba" stroke-opacity="1" stroke-width="1.2" stroke-linecap="square" stroke-linejoin="bevel" transform="matrix(1,0,0,1,131,4)"
font-family="Inter" font-size="11" font-weight="700" font-style="normal" 
>
<path vector-effect="none" fill-rule="evenodd" d="M0.5,12 C0.5,5.64873 5.87258,0.5 12.5,0.5 L27.5,0.5 C34.1274,0.5 39.5,5.64873 39.5,12 C39.5,18.3513 34.1274,23.5 27.5,23.5 L12.5,23.5 C5.87258,23.5 0.5,18.3513 0.5,12 "/>
</g>

<g fill="#ffffff" fill-opacity="1" stroke="none" transform="matrix(1,0,0,1,131,4)"
font-family="Inter" font-size="11" font-weight="700" font-style="normal" 
>
<path vector-effect="none" fill-rule="nonzero" d="M11.8242,16 L10.0117,16 L12.7734,8 L14.9531,8 L17.7109,16 L15.8984,16 L13.8945,9.82813 L13.832,9.82813 L11.8242,16 M11.7109,12.8555 L15.9922,12.8555 L15.9922,14.1758 L11.7109,14.1758 L11.7109,12.8555"/>
</g>

<g fill="#ffffff" fill-opacity="1" stroke="none" transform="matrix(0.03125,0,0,0.03125,157,12)"
font-family="Inter" font-size="11" font-weight="700" font-style="normal" 
>
<path vector-effect="none" fill-rule="nonzero" d="M111.326,191.938 C120.545,201.158 135.517,201.158 144.737,191.938 L239.144,97.5313 C245.929,90.7458 247.921,80.6413 244.233,71.7907 C240.545,62.9401 231.989,57.1871 222.401,57.1871 L33.5875,57.2608 C24.0731,57.2608 15.4437,63.0137 11.7559,71.8644 C8.06815,80.715 10.1333,90.8195 16.845,97.605 L111.252,192.012 L111.326,191.938"/>
</g>

<g fill="none" stroke="#000000" stroke-opacity="1" stroke-width="13.7195" stroke-linecap="butt" stroke-linejoin="miter" stroke-miterlimit="4" transform="matrix(0.03125,0,0,0.03125,157,12)"
font-family="Inter" font-size="11" font-weight="700" font-style="normal" 
>
<path vector-effect="none" fill-rule="nonzero" d="M111.326,191.938 C120.545,201.158 135.517,201.158 144.737,191.938 L239.144,97.5313 C245.929,90.7458 247.921,80.6413 244.233,71.7907 C240.545,62.9401 231.989,57.1871 222.401,57.1871 L33.5875,57.2608 C24.0731,57.2608 15.4437,63.0137 11.7559,71.8644 C8.06815,80.715 10.1333,90.8195 16.845,97.605 L111.252,192.012 L111.326,191.938"/>
</g>

<g fill="#ffffff" fill-opacity="1" stroke="none" transform="matrix(1,0,0,1,131,4)"
font-family="Inter" font-size="11" font-weight="700" font-style="normal" 
>
</g>

<g fill="#ffffff" fill-opacity="1" stroke="#0070ba" stroke-opacity="1" stroke-width="1" stroke-linecap="square" stroke-linejoin="bevel" transform="matrix(1,0,0,1,0,0)"
font-family="Inter" font-size="11" font-weight="700" font-style="normal" 
>
</g>

<g fill="#0090f5" fill-opacity="1" stroke="#0070ba" stroke-opacity="1" stroke-width="1.2" stroke-linecap="square" stroke-linejoin="bevel" transform="matrix(1,0,0,1,56,4)"
font-family="Inter" font-size="11" font-weight="700" font-style="normal" 
>
<path vector-effect="none" fill-rule="evenodd" d="M0.5,3.5 C0.5,1.84315 1.84315,0.5 3.5,0.5 L67.5,0.5 C69.1569,0.5 70.5,1.84315 70.5,3.5 L70.5,20.5 C70.5,22.1569 69.1569,23.5 67.5,23.5 L3.5,23.5 C1.84315,23.5 0.5,22.1569 0.5,20.5 L0.5,3.5"/>
</g>

<g fill="#ffffff" fill-opacity="1" stroke="none" transform="matrix(1,0,0,1,56,4)"
font-family="Inter" font-size="11" font-weight="700" font-style="normal" 
>
<path vector-effect="none" fill-rule="nonzero" d="M11.6992,8 L11.6992,16 L10.0078,16 L10.0078,8 L11.6992,8 M19.7773,8 L19.7773,16 L18.3164,16 L14.8359,10.9648 L14.7773,10.9648 L14.7773,16 L13.0859,16 L13.0859,8 L14.5703,8 L18.0234,13.0313 L18.0938,13.0313 L18.0938,8 L19.7773,8 M22.6094,8 L24.543,14.0781 L24.6172,14.0781 L26.5547,8 L28.4297,8 L25.6719,16 L23.4922,16 L20.7305,8 L22.6094,8 M29.3828,16 L29.3828,8 L31.0742,8 L31.0742,11.3008 L34.5078,11.3008 L34.5078,8 L36.1953,8 L36.1953,16 L34.5078,16 L34.5078,12.6953 L31.0742,12.6953 L31.0742,16 L29.3828,16 M37.5859,16 L37.5859,8 L40.7891,8 C41.3776,8 41.8685,8.08724 42.2617,8.26172 C42.6549,8.4362 42.9505,8.67773 43.1484,8.98633 C43.3464,9.29492 43.4453,9.64974 43.4453,10.0508 C43.4453,10.3633 43.3828,10.6374 43.2578,10.873 C43.1328,11.1087 42.9616,11.3014 42.7441,11.4512 C42.5267,11.6009 42.2786,11.707 42,11.7695 L42,11.8477 C42.3047,11.8607 42.5905,11.9466 42.8574,12.1055 C43.1243,12.2643 43.3411,12.4863 43.5078,12.7715 C43.6745,13.0566 43.7578,13.3958 43.7578,13.7891 C43.7578,14.2135 43.653,14.5918 43.4434,14.9238 C43.2337,15.2559 42.9245,15.5182 42.5156,15.7109 C42.1068,15.9036 41.6029,16 41.0039,16 L37.5859,16 M39.2773,14.6172 L40.6563,14.6172 C41.1276,14.6172 41.4714,14.5267 41.6875,14.3457 C41.9036,14.1647 42.0117,13.9232 42.0117,13.6211 C42.0117,13.3997 41.9583,13.2044 41.8516,13.0352 C41.7448,12.8659 41.5931,12.7331 41.3965,12.6367 C41.1999,12.5404 40.9661,12.4922 40.6953,12.4922 L39.2773,12.4922 L39.2773,14.6172 M39.2773,11.3477 L40.5313,11.3477 C40.763,11.3477 40.9694,11.3066 41.1504,11.2246 C41.3314,11.1426 41.4746,11.026 41.5801,10.875 C41.6855,10.724 41.7383,10.543 41.7383,10.332 C41.7383,10.043 41.6361,9.8099 41.4316,9.63281 C41.2272,9.45573 40.9375,9.36719 40.5625,9.36719 L39.2773,9.36719 L39.2773,11.3477 M48.2852,8 L48.2852,16 L46.5938,16 L46.5938,9.60547 L46.5469,9.60547 L44.7148,10.7539 L44.7148,9.25391 L46.6953,8 L48.2852,8"/>
</g>

<g fill="#ffffff" fill-opacity="1" stroke="none" transform="matrix(0.03125,0,0,0.03125,113,12)"
font-family="Inter" font-size="11" font-weight="700" font-style="normal" 
>
<path vector-effect="none" fill-rule="nonzero" d="M111.326,191.938 C120.545,201.158 135.517,201.158 144.737,191.938 L239.144,97.5313 C245.929,90.7458 247.921,80.6413 244.233,71.7907 C240.545,62.9401 231.989,57.1871 222.401,57.1871 L33.5875,57.2608 C24.0731,57.2608 15.4437,63.0137 11.7559,71.8644 C8.06815,80.715 10.1333,90.8195 16.845,97.605 L111.252,192.012 L111.326,191.938"/>
</g>

<g fill="none" stroke="#000000" stroke-opacity="1" stroke-width="13.7195" stroke-linecap="butt" stroke-linejoin="miter" stroke-miterlimit="4" transform="matrix(0.03125,0,0,0.03125,113,12)"
font-family="Inter" font-size="11" font-weight="700" font-style="normal" 
>
<path vector-effect="none" fill-rule="nonzero" d="M111.326,191.938 C120.545,201.158 135.517,201.158 144.737,191.938 L239.144,97.5313 C245.929,90.7458 247.921,80.6413 244.233,71.7907 C240.545,62.9401 231.989,57.1871 222.401,57.1871 L33.5875,57.2608 C24.0731,57.2608 15.4437,63.0137 11.7559,71.8644 C8.06815,80.715 10.1333,90.8195 16.845,97.605 L111.252,192.012 L111.326,191.938"/>
</g>

<g fill="#ffffff" fill-opacity="1" stroke="none" transform="matrix(1,0,0,1,56,4)"
font-family="Inter" font-size="11" font-weight="700" font-style="normal" 
>
</g>

<g fill="#ffffff" fill-opacity="1" stroke="#0070ba" stroke-opacity="1" stroke-width="1" stroke-linecap="square" stroke-linejoin="bevel" transform="matrix(1,0,0,1,0,0)"
font-family="Inter" font-size="11" font-weight="700" font-style="normal" 
>
</g>

<g fill="none" stroke="#000000" stroke-opacity="1" stroke-width="1" stroke-linecap="square" stroke-linejoin="bevel" transform="matrix(1,0,0,1,0,0)"
font-family=".AppleSystemUIFont" font-size="13" font-weight="400" font-style="normal" 
>
</g>
</g>
</svg>
