<?xml version="1.0" encoding="UTF-8" standalone="no"?>
<svg width="107.95mm" height="11.2889mm"
 viewBox="0 0 306 32"
 xmlns="http://www.w3.org/2000/svg" xmlns:xlink="http://www.w3.org/1999/xlink" version="1.2" baseProfile="tiny">
<title>Abstract block</title>
<desc>block_hubs_sensors_get_orientation</desc>
<defs>
</defs>
<g fill="none" stroke="black" stroke-width="1" fill-rule="evenodd" stroke-linecap="square" stroke-linejoin="bevel" >

<g fill="none" stroke="#000000" stroke-opacity="1" stroke-width="1" stroke-linecap="square" stroke-linejoin="bevel" transform="matrix(1,0,0,1,0,0)"
font-family=".AppleSystemUIFont" font-size="13" font-weight="400" font-style="normal" 
>
</g>

<g fill="none" stroke="#000000" stroke-opacity="1" stroke-width="1" stroke-linecap="square" stroke-linejoin="bevel" transform="matrix(1,0,0,1,0,0)"
font-family=".AppleSystemUIFont" font-size="13" font-weight="400" font-style="normal" 
>
</g>

<g fill="#1dccf0" fill-opacity="1" stroke="#0da6c5" stroke-opacity="1" stroke-width="1.2" stroke-linecap="square" stroke-linejoin="bevel" transform="matrix(1,0,0,1,0,0)"
font-family=".AppleSystemUIFont" font-size="13" font-weight="400" font-style="normal" 
>
<path vector-effect="none" fill-rule="evenodd" d="M1,16 C1,7.71573 8.16344,1 17,1 L288.667,1 C297.503,1 304.667,7.71573 304.667,16 C304.667,24.2843 297.503,31 288.667,31 L17,31 C8.16344,31 1,24.2843 1,16 "/>
</g>

<g fill="#ffffff" fill-opacity="1" stroke="none" transform="matrix(1,0,0,1,0,0)"
font-family="Inter" font-size="11" font-weight="700" font-style="normal" 
>
<path vector-effect="none" fill-rule="nonzero" d="M60.7891,20.8594 C60.25,20.8594 59.7884,20.7858 59.4043,20.6387 C59.0202,20.4915 58.7148,20.2917 58.4883,20.0391 C58.2617,19.7865 58.1146,19.5026 58.0469,19.1875 L59.5859,18.9805 C59.6328,19.1003 59.707,19.2122 59.8086,19.3164 C59.9102,19.4206 60.0449,19.5046 60.2129,19.5684 C60.3809,19.6322 60.5859,19.6641 60.8281,19.6641 C61.1901,19.6641 61.4889,19.5762 61.7246,19.4004 C61.9603,19.2246 62.0781,18.931 62.0781,18.5195 L62.0781,17.4219 L62.0078,17.4219 C61.9349,17.5885 61.8255,17.7461 61.6797,17.8945 C61.5339,18.043 61.3464,18.1641 61.1172,18.2578 C60.888,18.3516 60.6146,18.3984 60.2969,18.3984 C59.8464,18.3984 59.4368,18.2936 59.0684,18.084 C58.6999,17.8743 58.4069,17.5527 58.1895,17.1191 C57.972,16.6855 57.8633,16.1367 57.8633,15.4727 C57.8633,14.793 57.974,14.2253 58.1953,13.7695 C58.4167,13.3138 58.7116,12.9727 59.0801,12.7461 C59.4486,12.5195 59.8529,12.4063 60.293,12.4063 C60.6289,12.4063 60.9102,12.4629 61.1367,12.5762 C61.3633,12.6895 61.5462,12.8301 61.6855,12.998 C61.8249,13.166 61.9323,13.3307 62.0078,13.4922 L62.0703,13.4922 L62.0703,12.4844 L63.7227,12.4844 L63.7227,18.543 C63.7227,19.0534 63.5977,19.4805 63.3477,19.8242 C63.0977,20.168 62.752,20.4264 62.3105,20.5996 C61.8691,20.7728 61.362,20.8594 60.7891,20.8594 M60.8242,17.1484 C61.0924,17.1484 61.3197,17.0814 61.5059,16.9473 C61.6921,16.8132 61.8353,16.6204 61.9355,16.3691 C62.0358,16.1178 62.0859,15.8164 62.0859,15.4648 C62.0859,15.1133 62.0365,14.8079 61.9375,14.5488 C61.8385,14.2897 61.6953,14.0885 61.5078,13.9453 C61.3203,13.8021 61.0924,13.7305 60.8242,13.7305 C60.5508,13.7305 60.3203,13.804 60.1328,13.9512 C59.9453,14.0983 59.8034,14.3021 59.707,14.5625 C59.6107,14.8229 59.5625,15.1237 59.5625,15.4648 C59.5625,15.8112 59.6113,16.11 59.709,16.3613 C59.8066,16.6126 59.9486,16.8066 60.1348,16.9434 C60.321,17.0801 60.5508,17.1484 60.8242,17.1484 M67.7734,18.6016 C67.1563,18.6016 66.6257,18.4759 66.1816,18.2246 C65.7376,17.9733 65.3958,17.6165 65.1563,17.1543 C64.9167,16.6921 64.7969,16.1445 64.7969,15.5117 C64.7969,14.8945 64.9167,14.3529 65.1563,13.8867 C65.3958,13.4206 65.7337,13.0573 66.1699,12.7969 C66.6061,12.5365 67.1185,12.4063 67.707,12.4063 C68.1029,12.4063 68.472,12.4694 68.8145,12.5957 C69.1569,12.722 69.4564,12.9115 69.7129,13.1641 C69.9694,13.4167 70.1693,13.7337 70.3125,14.1152 C70.4557,14.4967 70.5273,14.9427 70.5273,15.4531 L70.5273,15.9102 L65.4609,15.9102 L65.4609,14.8789 L68.9609,14.8789 C68.9609,14.6393 68.9089,14.4271 68.8047,14.2422 C68.7005,14.0573 68.5566,13.9121 68.373,13.8066 C68.1895,13.7012 67.9766,13.6484 67.7344,13.6484 C67.4818,13.6484 67.2585,13.7064 67.0645,13.8223 C66.8704,13.9382 66.7188,14.0931 66.6094,14.2871 C66.5,14.4811 66.444,14.6966 66.4414,14.9336 L66.4414,15.9141 C66.4414,16.2109 66.4967,16.4674 66.6074,16.6836 C66.7181,16.8997 66.875,17.0664 67.0781,17.1836 C67.2813,17.3008 67.5221,17.3594 67.8008,17.3594 C67.9857,17.3594 68.1549,17.3333 68.3086,17.2813 C68.4622,17.2292 68.5938,17.151 68.7031,17.0469 C68.8125,16.9427 68.8958,16.8151 68.9531,16.6641 L70.4922,16.7656 C70.4141,17.1354 70.2546,17.4577 70.0137,17.7324 C69.7728,18.0072 69.4629,18.2207 69.084,18.373 C68.7051,18.5254 68.2682,18.6016 67.7734,18.6016 M74.793,12.4844 L74.793,13.7344 L71.1797,13.7344 L71.1797,12.4844 L74.793,12.4844 M72,11.0469 L73.6641,11.0469 L73.6641,16.6406 C73.6641,16.7943 73.6875,16.9134 73.7344,16.998 C73.7813,17.0827 73.847,17.1419 73.9316,17.1758 C74.0163,17.2096 74.1146,17.2266 74.2266,17.2266 C74.3047,17.2266 74.3828,17.2194 74.4609,17.2051 C74.5391,17.1908 74.599,17.1797 74.6406,17.1719 L74.9023,18.4102 C74.819,18.4362 74.7018,18.4668 74.5508,18.502 C74.3997,18.5371 74.2161,18.5586 74,18.5664 C73.599,18.582 73.248,18.5286 72.9473,18.4063 C72.6465,18.2839 72.4128,18.0938 72.2461,17.8359 C72.0794,17.5781 71.9974,17.2526 72,16.8594 L72,11.0469"/>
</g>

<g fill="#ffffff" fill-opacity="1" stroke="none" transform="matrix(1,0,0,1,0,0)"
font-family="Inter" font-size="11" font-weight="700" font-style="normal" 
>
<path vector-effect="none" fill-rule="nonzero" d="M164.969,20.0703 C164.362,20.0703 163.838,19.9408 163.396,19.6816 C162.955,19.4225 162.615,19.0605 162.375,18.5957 C162.135,18.1309 162.016,17.5911 162.016,16.9766 C162.016,16.3568 162.135,15.8145 162.375,15.3496 C162.615,14.8848 162.955,14.5228 163.396,14.2637 C163.838,14.0046 164.362,13.875 164.969,13.875 C165.576,13.875 166.1,14.0046 166.541,14.2637 C166.982,14.5228 167.323,14.8848 167.563,15.3496 C167.802,15.8145 167.922,16.3568 167.922,16.9766 C167.922,17.5911 167.802,18.1309 167.563,18.5957 C167.323,19.0605 166.982,19.4225 166.541,19.6816 C166.1,19.9408 165.576,20.0703 164.969,20.0703 M164.977,18.7813 C165.253,18.7813 165.483,18.7025 165.668,18.5449 C165.853,18.3874 165.993,18.1719 166.088,17.8984 C166.183,17.625 166.23,17.3138 166.23,16.9648 C166.23,16.6159 166.183,16.3047 166.088,16.0313 C165.993,15.7578 165.853,15.5417 165.668,15.3828 C165.483,15.224 165.253,15.1445 164.977,15.1445 C164.698,15.1445 164.464,15.224 164.275,15.3828 C164.087,15.5417 163.945,15.7578 163.85,16.0313 C163.755,16.3047 163.707,16.6159 163.707,16.9648 C163.707,17.3138 163.755,17.625 163.85,17.8984 C163.945,18.1719 164.087,18.3874 164.275,18.5449 C164.464,18.7025 164.698,18.7813 164.977,18.7813 M169.008,19.9531 L169.008,13.9531 L170.621,13.9531 L170.621,15 L170.684,15 C170.793,14.6276 170.977,14.3457 171.234,14.1543 C171.492,13.9629 171.789,13.8672 172.125,13.8672 C172.208,13.8672 172.298,13.8724 172.395,13.8828 C172.491,13.8932 172.576,13.9076 172.648,13.9258 L172.648,15.4023 C172.57,15.3789 172.462,15.3581 172.324,15.3398 C172.186,15.3216 172.06,15.3125 171.945,15.3125 C171.701,15.3125 171.482,15.3652 171.291,15.4707 C171.1,15.5762 170.949,15.7227 170.838,15.9102 C170.727,16.0977 170.672,16.3138 170.672,16.5586 L170.672,19.9531 L169.008,19.9531 M173.492,19.9531 L173.492,13.9531 L175.156,13.9531 L175.156,19.9531 L173.492,19.9531 M174.328,13.1797 C174.081,13.1797 173.869,13.097 173.693,12.9316 C173.518,12.7663 173.43,12.5677 173.43,12.3359 C173.43,12.1068 173.518,11.9095 173.693,11.7441 C173.869,11.5788 174.081,11.4961 174.328,11.4961 C174.576,11.4961 174.787,11.5788 174.963,11.7441 C175.139,11.9095 175.227,12.1068 175.227,12.3359 C175.227,12.5677 175.139,12.7663 174.963,12.9316 C174.787,13.097 174.576,13.1797 174.328,13.1797 M179.211,20.0703 C178.594,20.0703 178.063,19.9447 177.619,19.6934 C177.175,19.4421 176.833,19.0853 176.594,18.623 C176.354,18.1608 176.234,17.6133 176.234,16.9805 C176.234,16.3633 176.354,15.8216 176.594,15.3555 C176.833,14.8893 177.171,14.526 177.607,14.2656 C178.044,14.0052 178.556,13.875 179.145,13.875 C179.54,13.875 179.91,13.9382 180.252,14.0645 C180.594,14.1908 180.894,14.3802 181.15,14.6328 C181.407,14.8854 181.607,15.2025 181.75,15.584 C181.893,15.9655 181.965,16.4115 181.965,16.9219 L181.965,17.3789 L176.898,17.3789 L176.898,16.3477 L180.398,16.3477 C180.398,16.1081 180.346,15.8958 180.242,15.7109 C180.138,15.526 179.994,15.3809 179.811,15.2754 C179.627,15.1699 179.414,15.1172 179.172,15.1172 C178.919,15.1172 178.696,15.1751 178.502,15.291 C178.308,15.4069 178.156,15.5618 178.047,15.7559 C177.938,15.9499 177.882,16.1654 177.879,16.4023 L177.879,17.3828 C177.879,17.6797 177.934,17.9362 178.045,18.1523 C178.156,18.3685 178.313,18.5352 178.516,18.6523 C178.719,18.7695 178.96,18.8281 179.238,18.8281 C179.423,18.8281 179.592,18.8021 179.746,18.75 C179.9,18.6979 180.031,18.6198 180.141,18.5156 C180.25,18.4115 180.333,18.2839 180.391,18.1328 L181.93,18.2344 C181.852,18.6042 181.692,18.9264 181.451,19.2012 C181.21,19.4759 180.9,19.6895 180.521,19.8418 C180.143,19.9941 179.706,20.0703 179.211,20.0703 M184.703,16.4844 L184.703,19.9531 L183.039,19.9531 L183.039,13.9531 L184.625,13.9531 L184.625,15.0117 L184.695,15.0117 C184.828,14.6628 185.051,14.3861 185.363,14.1816 C185.676,13.9772 186.055,13.875 186.5,13.875 C186.917,13.875 187.28,13.9661 187.59,14.1484 C187.9,14.3307 188.141,14.5905 188.313,14.9277 C188.484,15.265 188.57,15.6667 188.57,16.1328 L188.57,19.9531 L186.906,19.9531 L186.906,16.4297 C186.909,16.0625 186.815,15.7754 186.625,15.5684 C186.435,15.3613 186.173,15.2578 185.84,15.2578 C185.616,15.2578 185.419,15.306 185.248,15.4023 C185.077,15.4987 184.945,15.6387 184.85,15.8223 C184.755,16.0059 184.706,16.2266 184.703,16.4844 M193.059,13.9531 L193.059,15.2031 L189.445,15.2031 L189.445,13.9531 L193.059,13.9531 M190.266,12.5156 L191.93,12.5156 L191.93,18.1094 C191.93,18.263 191.953,18.3822 192,18.4668 C192.047,18.5514 192.113,18.6107 192.197,18.6445 C192.282,18.6784 192.38,18.6953 192.492,18.6953 C192.57,18.6953 192.648,18.6882 192.727,18.6738 C192.805,18.6595 192.865,18.6484 192.906,18.6406 L193.168,19.8789 C193.085,19.9049 192.967,19.9355 192.816,19.9707 C192.665,20.0059 192.482,20.0273 192.266,20.0352 C191.865,20.0508 191.514,19.9974 191.213,19.875 C190.912,19.7526 190.678,19.5625 190.512,19.3047 C190.345,19.0469 190.263,18.7214 190.266,18.3281 L190.266,12.5156 M195.844,20.0664 C195.461,20.0664 195.12,19.9993 194.82,19.8652 C194.521,19.7311 194.285,19.5319 194.111,19.2676 C193.938,19.0033 193.852,18.6732 193.852,18.2773 C193.852,17.944 193.913,17.6641 194.035,17.4375 C194.158,17.2109 194.324,17.0286 194.535,16.8906 C194.746,16.7526 194.986,16.6484 195.256,16.5781 C195.525,16.5078 195.809,16.4583 196.105,16.4297 C196.454,16.3932 196.736,16.3587 196.949,16.3262 C197.163,16.2936 197.318,16.2448 197.414,16.1797 C197.51,16.1146 197.559,16.0182 197.559,15.8906 L197.559,15.8672 C197.559,15.6198 197.481,15.4284 197.326,15.293 C197.171,15.1576 196.952,15.0898 196.668,15.0898 C196.368,15.0898 196.13,15.1556 195.953,15.2871 C195.776,15.4186 195.659,15.5833 195.602,15.7813 L194.063,15.6563 C194.141,15.2917 194.294,14.9759 194.523,14.709 C194.753,14.4421 195.049,14.2363 195.412,14.0918 C195.775,13.9473 196.197,13.875 196.676,13.875 C197.009,13.875 197.329,13.9141 197.635,13.9922 C197.941,14.0703 198.213,14.1914 198.451,14.3555 C198.689,14.5195 198.878,14.7298 199.016,14.9863 C199.154,15.2428 199.223,15.5495 199.223,15.9063 L199.223,19.9531 L197.645,19.9531 L197.645,19.1211 L197.598,19.1211 C197.501,19.3086 197.372,19.4733 197.211,19.6152 C197.049,19.7572 196.855,19.8678 196.629,19.9473 C196.402,20.0267 196.141,20.0664 195.844,20.0664 M196.32,18.918 C196.565,18.918 196.781,18.8691 196.969,18.7715 C197.156,18.6738 197.303,18.5417 197.41,18.375 C197.517,18.2083 197.57,18.0195 197.57,17.8086 L197.57,17.1719 C197.518,17.2057 197.447,17.2363 197.357,17.2637 C197.268,17.291 197.167,17.3158 197.055,17.3379 C196.943,17.36 196.831,17.3796 196.719,17.3965 C196.607,17.4134 196.505,17.4284 196.414,17.4414 C196.219,17.4701 196.048,17.5156 195.902,17.5781 C195.757,17.6406 195.643,17.7246 195.563,17.8301 C195.482,17.9355 195.441,18.0664 195.441,18.2227 C195.441,18.4492 195.524,18.6217 195.689,18.7402 C195.855,18.8587 196.065,18.918 196.32,18.918 M203.699,13.9531 L203.699,15.2031 L200.086,15.2031 L200.086,13.9531 L203.699,13.9531 M200.906,12.5156 L202.57,12.5156 L202.57,18.1094 C202.57,18.263 202.594,18.3822 202.641,18.4668 C202.688,18.5514 202.753,18.6107 202.838,18.6445 C202.923,18.6784 203.021,18.6953 203.133,18.6953 C203.211,18.6953 203.289,18.6882 203.367,18.6738 C203.445,18.6595 203.505,18.6484 203.547,18.6406 L203.809,19.8789 C203.725,19.9049 203.608,19.9355 203.457,19.9707 C203.306,20.0059 203.122,20.0273 202.906,20.0352 C202.505,20.0508 202.154,19.9974 201.854,19.875 C201.553,19.7526 201.319,19.5625 201.152,19.3047 C200.986,19.0469 200.904,18.7214 200.906,18.3281 L200.906,12.5156 M204.773,19.9531 L204.773,13.9531 L206.438,13.9531 L206.438,19.9531 L204.773,19.9531 M205.609,13.1797 C205.362,13.1797 205.15,13.097 204.975,12.9316 C204.799,12.7663 204.711,12.5677 204.711,12.3359 C204.711,12.1068 204.799,11.9095 204.975,11.7441 C205.15,11.5788 205.362,11.4961 205.609,11.4961 C205.857,11.4961 206.068,11.5788 206.244,11.7441 C206.42,11.9095 206.508,12.1068 206.508,12.3359 C206.508,12.5677 206.42,12.7663 206.244,12.9316 C206.068,13.097 205.857,13.1797 205.609,13.1797 M210.469,20.0703 C209.862,20.0703 209.338,19.9408 208.896,19.6816 C208.455,19.4225 208.115,19.0605 207.875,18.5957 C207.635,18.1309 207.516,17.5911 207.516,16.9766 C207.516,16.3568 207.635,15.8145 207.875,15.3496 C208.115,14.8848 208.455,14.5228 208.896,14.2637 C209.338,14.0046 209.862,13.875 210.469,13.875 C211.076,13.875 211.6,14.0046 212.041,14.2637 C212.482,14.5228 212.823,14.8848 213.063,15.3496 C213.302,15.8145 213.422,16.3568 213.422,16.9766 C213.422,17.5911 213.302,18.1309 213.063,18.5957 C212.823,19.0605 212.482,19.4225 212.041,19.6816 C211.6,19.9408 211.076,20.0703 210.469,20.0703 M210.477,18.7813 C210.753,18.7813 210.983,18.7025 211.168,18.5449 C211.353,18.3874 211.493,18.1719 211.588,17.8984 C211.683,17.625 211.73,17.3138 211.73,16.9648 C211.73,16.6159 211.683,16.3047 211.588,16.0313 C211.493,15.7578 211.353,15.5417 211.168,15.3828 C210.983,15.224 210.753,15.1445 210.477,15.1445 C210.198,15.1445 209.964,15.224 209.775,15.3828 C209.587,15.5417 209.445,15.7578 209.35,16.0313 C209.255,16.3047 209.207,16.6159 209.207,16.9648 C209.207,17.3138 209.255,17.625 209.35,17.8984 C209.445,18.1719 209.587,18.3874 209.775,18.5449 C209.964,18.7025 210.198,18.7813 210.477,18.7813 M216.172,16.4844 L216.172,19.9531 L214.508,19.9531 L214.508,13.9531 L216.094,13.9531 L216.094,15.0117 L216.164,15.0117 C216.297,14.6628 216.52,14.3861 216.832,14.1816 C217.145,13.9772 217.523,13.875 217.969,13.875 C218.385,13.875 218.749,13.9661 219.059,14.1484 C219.368,14.3307 219.609,14.5905 219.781,14.9277 C219.953,15.265 220.039,15.6667 220.039,16.1328 L220.039,19.9531 L218.375,19.9531 L218.375,16.4297 C218.378,16.0625 218.284,15.7754 218.094,15.5684 C217.904,15.3613 217.642,15.2578 217.309,15.2578 C217.085,15.2578 216.887,15.306 216.717,15.4023 C216.546,15.4987 216.413,15.6387 216.318,15.8223 C216.223,16.0059 216.174,16.2266 216.172,16.4844 M225.594,20.0664 C225.211,20.0664 224.87,19.9993 224.57,19.8652 C224.271,19.7311 224.035,19.5319 223.861,19.2676 C223.688,19.0033 223.602,18.6732 223.602,18.2773 C223.602,17.944 223.663,17.6641 223.785,17.4375 C223.908,17.2109 224.074,17.0286 224.285,16.8906 C224.496,16.7526 224.736,16.6484 225.006,16.5781 C225.275,16.5078 225.559,16.4583 225.855,16.4297 C226.204,16.3932 226.486,16.3587 226.699,16.3262 C226.913,16.2936 227.068,16.2448 227.164,16.1797 C227.26,16.1146 227.309,16.0182 227.309,15.8906 L227.309,15.8672 C227.309,15.6198 227.231,15.4284 227.076,15.293 C226.921,15.1576 226.702,15.0898 226.418,15.0898 C226.118,15.0898 225.88,15.1556 225.703,15.2871 C225.526,15.4186 225.409,15.5833 225.352,15.7813 L223.813,15.6563 C223.891,15.2917 224.044,14.9759 224.273,14.709 C224.503,14.4421 224.799,14.2363 225.162,14.0918 C225.525,13.9473 225.947,13.875 226.426,13.875 C226.759,13.875 227.079,13.9141 227.385,13.9922 C227.691,14.0703 227.963,14.1914 228.201,14.3555 C228.439,14.5195 228.628,14.7298 228.766,14.9863 C228.904,15.2428 228.973,15.5495 228.973,15.9063 L228.973,19.9531 L227.395,19.9531 L227.395,19.1211 L227.348,19.1211 C227.251,19.3086 227.122,19.4733 226.961,19.6152 C226.799,19.7572 226.605,19.8678 226.379,19.9473 C226.152,20.0267 225.891,20.0664 225.594,20.0664 M226.07,18.918 C226.315,18.918 226.531,18.8691 226.719,18.7715 C226.906,18.6738 227.053,18.5417 227.16,18.375 C227.267,18.2083 227.32,18.0195 227.32,17.8086 L227.32,17.1719 C227.268,17.2057 227.197,17.2363 227.107,17.2637 C227.018,17.291 226.917,17.3158 226.805,17.3379 C226.693,17.36 226.581,17.3796 226.469,17.3965 C226.357,17.4134 226.255,17.4284 226.164,17.4414 C225.969,17.4701 225.798,17.5156 225.652,17.5781 C225.507,17.6406 225.393,17.7246 225.313,17.8301 C225.232,17.9355 225.191,18.0664 225.191,18.2227 C225.191,18.4492 225.274,18.6217 225.439,18.7402 C225.605,18.8587 225.815,18.918 226.07,18.918 M235.25,15.6641 L233.727,15.7578 C233.701,15.6276 233.645,15.5098 233.559,15.4043 C233.473,15.2988 233.36,15.2142 233.221,15.1504 C233.081,15.0866 232.915,15.0547 232.723,15.0547 C232.465,15.0547 232.247,15.1087 232.07,15.2168 C231.893,15.3249 231.805,15.4688 231.805,15.6484 C231.805,15.7917 231.862,15.9128 231.977,16.0117 C232.091,16.1107 232.288,16.1901 232.566,16.25 L233.652,16.4688 C234.236,16.5885 234.671,16.7813 234.957,17.0469 C235.243,17.3125 235.387,17.6615 235.387,18.0938 C235.387,18.487 235.271,18.832 235.041,19.1289 C234.811,19.4258 234.495,19.6569 234.096,19.8223 C233.696,19.9876 233.236,20.0703 232.715,20.0703 C231.921,20.0703 231.288,19.9043 230.818,19.5723 C230.348,19.2402 230.073,18.7878 229.992,18.2148 L231.629,18.1289 C231.678,18.3711 231.798,18.5553 231.988,18.6816 C232.178,18.8079 232.422,18.8711 232.719,18.8711 C233.01,18.8711 233.245,18.8145 233.424,18.7012 C233.602,18.5879 233.693,18.4414 233.695,18.2617 C233.693,18.1107 233.629,17.9863 233.504,17.8887 C233.379,17.791 233.186,17.7161 232.926,17.6641 L231.887,17.457 C231.301,17.3398 230.865,17.1367 230.58,16.8477 C230.295,16.5586 230.152,16.1901 230.152,15.7422 C230.152,15.3568 230.257,15.0247 230.467,14.7461 C230.676,14.4674 230.972,14.2526 231.354,14.1016 C231.735,13.9505 232.182,13.875 232.695,13.875 C233.453,13.875 234.05,14.0352 234.486,14.3555 C234.923,14.6758 235.177,15.112 235.25,15.6641 "/>
</g>

<g fill="#ffffff" fill-opacity="1" stroke="none" transform="matrix(0.228,0,0,0.228,11.6,4.6)"
font-family="Inter" font-size="11" font-weight="700" font-style="normal" 
>
<path vector-effect="none" fill-rule="nonzero" d="M23.3682,15.995 C21.89,15.995 20.7001,17.185 20.7001,18.6631 L20.7001,81.3343 C20.7001,82.8125 21.89,84.0024 23.3682,84.0024 L76.6077,84.0024 C78.0859,84.0024 79.2758,82.8125 79.2758,81.3343 L79.2758,18.6631 C79.2758,17.185 78.0859,15.995 76.6077,15.995 L50.8905,15.995 C51.6703,16.0444 52.2838,16.6869 52.2838,17.4796 L52.2838,26.9112 C52.2838,27.7362 51.6196,28.4004 50.7946,28.4004 L49.3054,28.4004 C48.4804,28.4004 47.8161,27.7362 47.8161,26.9112 L47.8161,17.4796 C47.8161,16.6869 48.4298,16.0443 49.2096,15.995 L23.3682,15.995 M46.7613,35.2087 L53.2146,35.2087 C53.9021,35.2087 54.4556,35.7622 54.4556,36.4497 L54.4556,42.903 C54.4556,43.5906 53.9021,44.1439 53.2146,44.1439 L46.7613,44.1439 C46.0738,44.1439 45.5202,43.5906 45.5202,42.903 L45.5202,36.4497 C45.5202,35.7622 46.0738,35.2087 46.7613,35.2087 "/>
</g>

<g fill="none" stroke="#000000" stroke-opacity="1" stroke-width="2.43854" stroke-linecap="butt" stroke-linejoin="miter" stroke-miterlimit="4" transform="matrix(0.228,0,0,0.228,11.6,4.6)"
font-family="Inter" font-size="11" font-weight="700" font-style="normal" 
>
<path vector-effect="none" fill-rule="nonzero" d="M23.3682,15.995 C21.89,15.995 20.7001,17.185 20.7001,18.6631 L20.7001,81.3343 C20.7001,82.8125 21.89,84.0024 23.3682,84.0024 L76.6077,84.0024 C78.0859,84.0024 79.2758,82.8125 79.2758,81.3343 L79.2758,18.6631 C79.2758,17.185 78.0859,15.995 76.6077,15.995 L50.8905,15.995 C51.6703,16.0444 52.2838,16.6869 52.2838,17.4796 L52.2838,26.9112 C52.2838,27.7362 51.6196,28.4004 50.7946,28.4004 L49.3054,28.4004 C48.4804,28.4004 47.8161,27.7362 47.8161,26.9112 L47.8161,17.4796 C47.8161,16.6869 48.4298,16.0443 49.2096,15.995 L23.3682,15.995 M46.7613,35.2087 L53.2146,35.2087 C53.9021,35.2087 54.4556,35.7622 54.4556,36.4497 L54.4556,42.903 C54.4556,43.5906 53.9021,44.1439 53.2146,44.1439 L46.7613,44.1439 C46.0738,44.1439 45.5202,43.5906 45.5202,42.903 L45.5202,36.4497 C45.5202,35.7622 46.0738,35.2087 46.7613,35.2087 "/>
</g>

<g fill="#000000" fill-opacity="1" stroke="none" transform="matrix(0.228,0,0,0.228,11.6,4.6)"
font-family="Inter" font-size="11" font-weight="700" font-style="normal" 
>
<path vector-effect="none" fill-rule="evenodd" d="M14.2421,17.9523 C14.2421,17.1298 14.9088,16.4631 15.7313,16.4631 L18.7097,16.4631 C19.5322,16.4631 20.1989,17.1298 20.1989,17.9523 L20.1989,33.8372 C20.1989,34.6597 19.5322,35.3264 18.7097,35.3264 L15.7313,35.3264 C14.9088,35.3264 14.2421,34.6597 14.2421,33.8372 L14.2421,17.9523"/>
</g>

<g fill="none" stroke="#000000" stroke-opacity="1" stroke-width="2.43854" stroke-linecap="butt" stroke-linejoin="miter" stroke-miterlimit="4" transform="matrix(0.228,0,0,0.228,11.6,4.6)"
font-family="Inter" font-size="11" font-weight="700" font-style="normal" 
>
<path vector-effect="none" fill-rule="evenodd" d="M14.2421,17.9523 C14.2421,17.1298 14.9088,16.4631 15.7313,16.4631 L18.7097,16.4631 C19.5322,16.4631 20.1989,17.1298 20.1989,17.9523 L20.1989,33.8372 C20.1989,34.6597 19.5322,35.3264 18.7097,35.3264 L15.7313,35.3264 C14.9088,35.3264 14.2421,34.6597 14.2421,33.8372 L14.2421,17.9523"/>
</g>

<g fill="#000000" fill-opacity="1" stroke="none" transform="matrix(0.228,0,0,0.228,11.6,4.6)"
font-family="Inter" font-size="11" font-weight="700" font-style="normal" 
>
<path vector-effect="none" fill-rule="evenodd" d="M79.3249,17.4662 C79.3249,16.6438 79.9916,15.977 80.8141,15.977 L83.7925,15.977 C84.615,15.977 85.2817,16.6438 85.2817,17.4662 L85.2817,33.3512 C85.2817,34.1736 84.615,34.8404 83.7925,34.8404 L80.8141,34.8404 C79.9916,34.8404 79.3249,34.1736 79.3249,33.3512 L79.3249,17.4662"/>
</g>

<g fill="none" stroke="#000000" stroke-opacity="1" stroke-width="2.43854" stroke-linecap="butt" stroke-linejoin="miter" stroke-miterlimit="4" transform="matrix(0.228,0,0,0.228,11.6,4.6)"
font-family="Inter" font-size="11" font-weight="700" font-style="normal" 
>
<path vector-effect="none" fill-rule="evenodd" d="M79.3249,17.4662 C79.3249,16.6438 79.9916,15.977 80.8141,15.977 L83.7925,15.977 C84.615,15.977 85.2817,16.6438 85.2817,17.4662 L85.2817,33.3512 C85.2817,34.1736 84.615,34.8404 83.7925,34.8404 L80.8141,34.8404 C79.9916,34.8404 79.3249,34.1736 79.3249,33.3512 L79.3249,17.4662"/>
</g>

<g fill="#000000" fill-opacity="1" stroke="none" transform="matrix(0.228,0,0,0.228,11.6,4.6)"
font-family="Inter" font-size="11" font-weight="700" font-style="normal" 
>
<path vector-effect="none" fill-rule="evenodd" d="M79.5633,66.576 C79.5633,65.7535 80.23,65.0868 81.0525,65.0868 L84.0309,65.0868 C84.8534,65.0868 85.5201,65.7535 85.5201,66.576 L85.5201,82.4609 C85.5201,83.2834 84.8534,83.9501 84.0309,83.9501 L81.0525,83.9501 C80.23,83.9501 79.5633,83.2834 79.5633,82.4609 L79.5633,66.576"/>
</g>

<g fill="none" stroke="#000000" stroke-opacity="1" stroke-width="2.43854" stroke-linecap="butt" stroke-linejoin="miter" stroke-miterlimit="4" transform="matrix(0.228,0,0,0.228,11.6,4.6)"
font-family="Inter" font-size="11" font-weight="700" font-style="normal" 
>
<path vector-effect="none" fill-rule="evenodd" d="M79.5633,66.576 C79.5633,65.7535 80.23,65.0868 81.0525,65.0868 L84.0309,65.0868 C84.8534,65.0868 85.5201,65.7535 85.5201,66.576 L85.5201,82.4609 C85.5201,83.2834 84.8534,83.9501 84.0309,83.9501 L81.0525,83.9501 C80.23,83.9501 79.5633,83.2834 79.5633,82.4609 L79.5633,66.576"/>
</g>

<g fill="#000000" fill-opacity="1" stroke="none" transform="matrix(0.228,0,0,0.228,11.6,4.6)"
font-family="Inter" font-size="11" font-weight="700" font-style="normal" 
>
<path vector-effect="none" fill-rule="evenodd" d="M14.6928,66.6283 C14.6928,65.8058 15.3595,65.1391 16.182,65.1391 L19.1604,65.1391 C19.9829,65.1391 20.6496,65.8058 20.6496,66.6283 L20.6496,82.5132 C20.6496,83.3357 19.9829,84.0024 19.1604,84.0024 L16.182,84.0024 C15.3595,84.0024 14.6928,83.3357 14.6928,82.5132 L14.6928,66.6283"/>
</g>

<g fill="none" stroke="#000000" stroke-opacity="1" stroke-width="2.43854" stroke-linecap="butt" stroke-linejoin="miter" stroke-miterlimit="4" transform="matrix(0.228,0,0,0.228,11.6,4.6)"
font-family="Inter" font-size="11" font-weight="700" font-style="normal" 
>
<path vector-effect="none" fill-rule="evenodd" d="M14.6928,66.6283 C14.6928,65.8058 15.3595,65.1391 16.182,65.1391 L19.1604,65.1391 C19.9829,65.1391 20.6496,65.8058 20.6496,66.6283 L20.6496,82.5132 C20.6496,83.3357 19.9829,84.0024 19.1604,84.0024 L16.182,84.0024 C15.3595,84.0024 14.6928,83.3357 14.6928,82.5132 L14.6928,66.6283"/>
</g>

<g fill="none" stroke="#000000" stroke-opacity="1" stroke-width="2.43854" stroke-linecap="butt" stroke-linejoin="miter" stroke-miterlimit="4" transform="matrix(0.228,0,0,0.228,11.6,4.6)"
font-family="Inter" font-size="11" font-weight="700" font-style="normal" 
>
<path vector-effect="none" fill-rule="evenodd" d="M20.92,17.503 C20.92,16.6806 21.5867,16.0138 22.4092,16.0138 L27.125,16.0138 C27.9475,16.0138 28.6142,16.6806 28.6142,17.503 L28.6142,55.9743 C28.6142,56.7968 27.9475,57.4635 27.125,57.4635 L22.4092,57.4635 C21.5867,57.4635 20.92,56.7968 20.92,55.9743 L20.92,17.503"/>
</g>

<g fill="none" stroke="#000000" stroke-opacity="1" stroke-width="2.43854" stroke-linecap="butt" stroke-linejoin="miter" stroke-miterlimit="4" transform="matrix(0.228,0,0,0.228,11.6,4.6)"
font-family="Inter" font-size="11" font-weight="700" font-style="normal" 
>
<path vector-effect="none" fill-rule="evenodd" d="M71.4269,17.6638 C71.4269,16.8414 72.0937,16.1746 72.9162,16.1746 L77.632,16.1746 C78.4545,16.1746 79.1212,16.8414 79.1212,17.6638 L79.1212,56.1351 C79.1212,56.9576 78.4545,57.6243 77.632,57.6243 L72.9162,57.6243 C72.0937,57.6243 71.4269,56.9576 71.4269,56.1351 L71.4269,17.6638"/>
</g>

<g fill="#ffffff" fill-opacity="1" stroke="none" transform="matrix(0.228,0,0,0.228,11.6,4.6)"
font-family="Inter" font-size="11" font-weight="700" font-style="normal" 
>
<path vector-effect="none" fill-rule="evenodd" d="M41.9526,15.9757 C41.9526,15.9593 41.9659,15.9461 41.9822,15.9461 L57.922,15.9461 C57.9384,15.9461 57.9516,15.9593 57.9516,15.9757 C57.9516,15.992 57.9384,16.0053 57.922,16.0053 L41.9822,16.0053 C41.9659,16.0053 41.9526,15.992 41.9526,15.9757 "/>
</g>

<g fill="none" stroke="#000000" stroke-opacity="1" stroke-width="2.3865" stroke-linecap="butt" stroke-linejoin="miter" stroke-miterlimit="4" transform="matrix(0.228,0,0,0.228,11.6,4.6)"
font-family="Inter" font-size="11" font-weight="700" font-style="normal" 
>
<path vector-effect="none" fill-rule="evenodd" d="M41.9526,15.9757 C41.9526,15.9593 41.9659,15.9461 41.9822,15.9461 L57.922,15.9461 C57.9384,15.9461 57.9516,15.9593 57.9516,15.9757 C57.9516,15.992 57.9384,16.0053 57.922,16.0053 L41.9822,16.0053 C41.9659,16.0053 41.9526,15.992 41.9526,15.9757 "/>
</g>

<g fill="#ffffff" fill-opacity="1" stroke="none" transform="matrix(1,0,0,1,0,0)"
font-family="Inter" font-size="11" font-weight="700" font-style="normal" 
>
</g>

<g fill="#ffffff" fill-opacity="1" stroke="#0da6c5" stroke-opacity="1" stroke-width="1" stroke-linecap="square" stroke-linejoin="bevel" transform="matrix(1,0,0,1,0,0)"
font-family="Inter" font-size="11" font-weight="700" font-style="normal" 
>
<polyline fill="none" vector-effect="none" points="45,6 45,26 " />
</g>

<g fill="#ffffff" fill-opacity="1" stroke="#0da6c5" stroke-opacity="1" stroke-width="1" stroke-linecap="square" stroke-linejoin="bevel" transform="matrix(1,0,0,1,0,0)"
font-family="Inter" font-size="11" font-weight="700" font-style="normal" 
>
</g>

<g fill="#1dccf0" fill-opacity="1" stroke="#0da6c5" stroke-opacity="1" stroke-width="1.2" stroke-linecap="square" stroke-linejoin="bevel" transform="matrix(1,0,0,1,81,4)"
font-family="Inter" font-size="11" font-weight="700" font-style="normal" 
>
<path vector-effect="none" fill-rule="evenodd" d="M0.5,3.5 C0.5,1.84315 1.84315,0.5 3.5,0.5 L71.5,0.5 C73.1569,0.5 74.5,1.84315 74.5,3.5 L74.5,20.5 C74.5,22.1569 73.1569,23.5 71.5,23.5 L3.5,23.5 C1.84315,23.5 0.5,22.1569 0.5,20.5 L0.5,3.5"/>
</g>

<g fill="#ffffff" fill-opacity="1" stroke="none" transform="matrix(1,0,0,1,81,4)"
font-family="Inter" font-size="11" font-weight="700" font-style="normal" 
>
<path vector-effect="none" fill-rule="nonzero" d="M10,9.39453 L10,8 L16.5703,8 L16.5703,9.39453 L14.1211,9.39453 L14.1211,16 L12.4492,16 L12.4492,9.39453 L10,9.39453 M17.6484,16 L17.6484,8 L19.3398,8 L19.3398,11.3008 L22.7734,11.3008 L22.7734,8 L24.4609,8 L24.4609,16 L22.7734,16 L22.7734,12.6953 L19.3398,12.6953 L19.3398,16 L17.6484,16 M32.543,8 L32.543,16 L31.082,16 L27.6016,10.9648 L27.543,10.9648 L27.543,16 L25.8516,16 L25.8516,8 L27.3359,8 L30.7891,13.0313 L30.8594,13.0313 L30.8594,8 L32.543,8 M33.9297,16 L33.9297,8 L35.6211,8 L35.6211,11.3008 L39.0547,11.3008 L39.0547,8 L40.7422,8 L40.7422,16 L39.0547,16 L39.0547,12.6953 L35.6211,12.6953 L35.6211,16 L33.9297,16 M42.1328,16 L42.1328,8 L45.3359,8 C45.9245,8 46.4154,8.08724 46.8086,8.26172 C47.2018,8.4362 47.4974,8.67773 47.6953,8.98633 C47.8932,9.29492 47.9922,9.64974 47.9922,10.0508 C47.9922,10.3633 47.9297,10.6374 47.8047,10.873 C47.6797,11.1087 47.5085,11.3014 47.291,11.4512 C47.0736,11.6009 46.8255,11.707 46.5469,11.7695 L46.5469,11.8477 C46.8516,11.8607 47.1374,11.9466 47.4043,12.1055 C47.6712,12.2643 47.888,12.4863 48.0547,12.7715 C48.2214,13.0566 48.3047,13.3958 48.3047,13.7891 C48.3047,14.2135 48.1999,14.5918 47.9902,14.9238 C47.7806,15.2559 47.4714,15.5182 47.0625,15.7109 C46.6536,15.9036 46.1497,16 45.5508,16 L42.1328,16 M43.8242,14.6172 L45.2031,14.6172 C45.6745,14.6172 46.0182,14.5267 46.2344,14.3457 C46.4505,14.1647 46.5586,13.9232 46.5586,13.6211 C46.5586,13.3997 46.5052,13.2044 46.3984,13.0352 C46.2917,12.8659 46.14,12.7331 45.9434,12.6367 C45.7467,12.5404 45.513,12.4922 45.2422,12.4922 L43.8242,12.4922 L43.8242,14.6172 M43.8242,11.3477 L45.0781,11.3477 C45.3099,11.3477 45.5163,11.3066 45.6973,11.2246 C45.8783,11.1426 46.0215,11.026 46.127,10.875 C46.2324,10.724 46.2852,10.543 46.2852,10.332 C46.2852,10.043 46.1829,9.8099 45.9785,9.63281 C45.7741,9.45573 45.4844,9.36719 45.1094,9.36719 L43.8242,9.36719 L43.8242,11.3477 M52.832,8 L52.832,16 L51.1406,16 L51.1406,9.60547 L51.0938,9.60547 L49.2617,10.7539 L49.2617,9.25391 L51.2422,8 L52.832,8"/>
</g>

<g fill="#ffffff" fill-opacity="1" stroke="none" transform="matrix(0.03125,0,0,0.03125,142,12)"
font-family="Inter" font-size="11" font-weight="700" font-style="normal" 
>
<path vector-effect="none" fill-rule="nonzero" d="M111.326,191.938 C120.545,201.158 135.517,201.158 144.737,191.938 L239.144,97.5313 C245.929,90.7458 247.921,80.6413 244.233,71.7907 C240.545,62.9401 231.989,57.1871 222.401,57.1871 L33.5875,57.2608 C24.0731,57.2608 15.4437,63.0137 11.7559,71.8644 C8.06815,80.715 10.1333,90.8195 16.845,97.605 L111.252,192.012 L111.326,191.938"/>
</g>

<g fill="none" stroke="#000000" stroke-opacity="1" stroke-width="13.7195" stroke-linecap="butt" stroke-linejoin="miter" stroke-miterlimit="4" transform="matrix(0.03125,0,0,0.03125,142,12)"
font-family="Inter" font-size="11" font-weight="700" font-style="normal" 
>
<path vector-effect="none" fill-rule="nonzero" d="M111.326,191.938 C120.545,201.158 135.517,201.158 144.737,191.938 L239.144,97.5313 C245.929,90.7458 247.921,80.6413 244.233,71.7907 C240.545,62.9401 231.989,57.1871 222.401,57.1871 L33.5875,57.2608 C24.0731,57.2608 15.4437,63.0137 11.7559,71.8644 C8.06815,80.715 10.1333,90.8195 16.845,97.605 L111.252,192.012 L111.326,191.938"/>
</g>

<g fill="#ffffff" fill-opacity="1" stroke="none" transform="matrix(1,0,0,1,81,4)"
font-family="Inter" font-size="11" font-weight="700" font-style="normal" 
>
</g>

<g fill="#ffffff" fill-opacity="1" stroke="#0da6c5" stroke-opacity="1" stroke-width="1" stroke-linecap="square" stroke-linejoin="bevel" transform="matrix(1,0,0,1,0,0)"
font-family="Inter" font-size="11" font-weight="700" font-style="normal" 
>
</g>

<g fill="#1dccf0" fill-opacity="1" stroke="#0da6c5" stroke-opacity="1" stroke-width="1.2" stroke-linecap="square" stroke-linejoin="bevel" transform="matrix(1,0,0,1,242,4)"
font-family="Inter" font-size="11" font-weight="700" font-style="normal" 
>
<path vector-effect="none" fill-rule="evenodd" d="M0.5,3.5 C0.5,1.84315 1.84315,0.5 3.5,0.5 L49.5,0.5 C51.1569,0.5 52.5,1.84315 52.5,3.5 L52.5,20.5 C52.5,22.1569 51.1569,23.5 49.5,23.5 L3.5,23.5 C1.84315,23.5 0.5,22.1569 0.5,20.5 L0.5,3.5"/>
</g>

<g fill="#ffffff" fill-opacity="1" stroke="none" transform="matrix(1,0,0,1,242,4)"
font-family="Inter" font-size="11" font-weight="700" font-style="normal" 
>
<path vector-effect="none" fill-rule="nonzero" d="M13.6211,9.45313 L13.6211,10.7031 L10.0078,10.7031 L10.0078,9.45313 L13.6211,9.45313 M10.8281,8.01563 L12.4922,8.01563 L12.4922,13.6094 C12.4922,13.763 12.5156,13.8822 12.5625,13.9668 C12.6094,14.0514 12.6751,14.1107 12.7598,14.1445 C12.8444,14.1784 12.9427,14.1953 13.0547,14.1953 C13.1328,14.1953 13.2109,14.1882 13.2891,14.1738 C13.3672,14.1595 13.4271,14.1484 13.4688,14.1406 L13.7305,15.3789 C13.6471,15.4049 13.5299,15.4355 13.3789,15.4707 C13.2279,15.5059 13.0443,15.5273 12.8281,15.5352 C12.4271,15.5508 12.0762,15.4974 11.7754,15.375 C11.4746,15.2526 11.2409,15.0625 11.0742,14.8047 C10.9076,14.5469 10.8255,14.2214 10.8281,13.8281 L10.8281,8.01563 M17.3672,15.5703 C16.75,15.5703 16.2194,15.4447 15.7754,15.1934 C15.3314,14.9421 14.9896,14.5853 14.75,14.123 C14.5104,13.6608 14.3906,13.1133 14.3906,12.4805 C14.3906,11.8633 14.5104,11.3216 14.75,10.8555 C14.9896,10.3893 15.3275,10.026 15.7637,9.76563 C16.1999,9.50521 16.7122,9.375 17.3008,9.375 C17.6966,9.375 18.0658,9.43815 18.4082,9.56445 C18.7507,9.69076 19.0501,9.88021 19.3066,10.1328 C19.5632,10.3854 19.763,10.7025 19.9063,11.084 C20.0495,11.4655 20.1211,11.9115 20.1211,12.4219 L20.1211,12.8789 L15.0547,12.8789 L15.0547,11.8477 L18.5547,11.8477 C18.5547,11.6081 18.5026,11.3958 18.3984,11.2109 C18.2943,11.026 18.1504,10.8809 17.9668,10.7754 C17.7832,10.6699 17.5703,10.6172 17.3281,10.6172 C17.0755,10.6172 16.8522,10.6751 16.6582,10.791 C16.4642,10.9069 16.3125,11.0618 16.2031,11.2559 C16.0938,11.4499 16.0378,11.6654 16.0352,11.9023 L16.0352,12.8828 C16.0352,13.1797 16.0905,13.4362 16.2012,13.6523 C16.3118,13.8685 16.4688,14.0352 16.6719,14.1523 C16.875,14.2695 17.1159,14.3281 17.3945,14.3281 C17.5794,14.3281 17.7487,14.3021 17.9023,14.25 C18.056,14.1979 18.1875,14.1198 18.2969,14.0156 C18.4063,13.9115 18.4896,13.7839 18.5469,13.6328 L20.0859,13.7344 C20.0078,14.1042 19.8483,14.4264 19.6074,14.7012 C19.3665,14.9759 19.0566,15.1895 18.6777,15.3418 C18.2988,15.4941 17.862,15.5703 17.3672,15.5703 M22.4922,9.45313 L23.5938,11.5508 L24.7227,9.45313 L26.4297,9.45313 L24.6914,12.4531 L26.4766,15.4531 L24.7773,15.4531 L23.5938,13.3789 L22.4297,15.4531 L20.7109,15.4531 L22.4922,12.4531 L20.7734,9.45313 L22.4922,9.45313 M30.6055,9.45313 L30.6055,10.7031 L26.9922,10.7031 L26.9922,9.45313 L30.6055,9.45313 M27.8125,8.01563 L29.4766,8.01563 L29.4766,13.6094 C29.4766,13.763 29.5,13.8822 29.5469,13.9668 C29.5938,14.0514 29.6595,14.1107 29.7441,14.1445 C29.8288,14.1784 29.9271,14.1953 30.0391,14.1953 C30.1172,14.1953 30.1953,14.1882 30.2734,14.1738 C30.3516,14.1595 30.4115,14.1484 30.4531,14.1406 L30.7148,15.3789 C30.6315,15.4049 30.5143,15.4355 30.3633,15.4707 C30.2122,15.5059 30.0286,15.5273 29.8125,15.5352 C29.4115,15.5508 29.0605,15.4974 28.7598,15.375 C28.459,15.2526 28.2253,15.0625 28.0586,14.8047 C27.8919,14.5469 27.8099,14.2214 27.8125,13.8281 L27.8125,8.01563"/>
</g>

<g fill="#ffffff" fill-opacity="1" stroke="none" transform="matrix(0.03125,0,0,0.03125,281,12)"
font-family="Inter" font-size="11" font-weight="700" font-style="normal" 
>
<path vector-effect="none" fill-rule="nonzero" d="M111.326,191.938 C120.545,201.158 135.517,201.158 144.737,191.938 L239.144,97.5313 C245.929,90.7458 247.921,80.6413 244.233,71.7907 C240.545,62.9401 231.989,57.1871 222.401,57.1871 L33.5875,57.2608 C24.0731,57.2608 15.4437,63.0137 11.7559,71.8644 C8.06815,80.715 10.1333,90.8195 16.845,97.605 L111.252,192.012 L111.326,191.938"/>
</g>

<g fill="none" stroke="#000000" stroke-opacity="1" stroke-width="13.7195" stroke-linecap="butt" stroke-linejoin="miter" stroke-miterlimit="4" transform="matrix(0.03125,0,0,0.03125,281,12)"
font-family="Inter" font-size="11" font-weight="700" font-style="normal" 
>
<path vector-effect="none" fill-rule="nonzero" d="M111.326,191.938 C120.545,201.158 135.517,201.158 144.737,191.938 L239.144,97.5313 C245.929,90.7458 247.921,80.6413 244.233,71.7907 C240.545,62.9401 231.989,57.1871 222.401,57.1871 L33.5875,57.2608 C24.0731,57.2608 15.4437,63.0137 11.7559,71.8644 C8.06815,80.715 10.1333,90.8195 16.845,97.605 L111.252,192.012 L111.326,191.938"/>
</g>

<g fill="#ffffff" fill-opacity="1" stroke="none" transform="matrix(1,0,0,1,242,4)"
font-family="Inter" font-size="11" font-weight="700" font-style="normal" 
>
</g>

<g fill="#ffffff" fill-opacity="1" stroke="#0da6c5" stroke-opacity="1" stroke-width="1" stroke-linecap="square" stroke-linejoin="bevel" transform="matrix(1,0,0,1,0,0)"
font-family="Inter" font-size="11" font-weight="700" font-style="normal" 
>
</g>

<g fill="none" stroke="#000000" stroke-opacity="1" stroke-width="1" stroke-linecap="square" stroke-linejoin="bevel" transform="matrix(1,0,0,1,0,0)"
font-family=".AppleSystemUIFont" font-size="13" font-weight="400" font-style="normal" 
>
</g>
</g>
</svg>
