<?xml version="1.0" encoding="UTF-8" standalone="no"?>
<svg width="34.925mm" height="15.5222mm"
 viewBox="0 0 99 44"
 xmlns="http://www.w3.org/2000/svg" xmlns:xlink="http://www.w3.org/1999/xlink" version="1.2" baseProfile="tiny">
<title>Abstract block</title>
<desc>block_lists_clear_all</desc>
<defs>
</defs>
<g fill="none" stroke="black" stroke-width="1" fill-rule="evenodd" stroke-linecap="square" stroke-linejoin="bevel" >

<g fill="none" stroke="#000000" stroke-opacity="1" stroke-width="1" stroke-linecap="square" stroke-linejoin="bevel" transform="matrix(1,0,0,1,0,0)"
font-family=".AppleSystemUIFont" font-size="13" font-weight="400" font-style="normal" 
>
</g>

<g fill="none" stroke="#000000" stroke-opacity="1" stroke-width="1" stroke-linecap="square" stroke-linejoin="bevel" transform="matrix(1,0,0,1,0,0)"
font-family=".AppleSystemUIFont" font-size="13" font-weight="400" font-style="normal" 
>
</g>

<g fill="#ff661a" fill-opacity="1" stroke="#de4600" stroke-opacity="1" stroke-width="1.2" stroke-linecap="square" stroke-linejoin="bevel" transform="matrix(1,0,0,1,0,0)"
font-family=".AppleSystemUIFont" font-size="13" font-weight="400" font-style="normal" 
>
<path vector-effect="none" fill-rule="evenodd" d="M0.5,4.5 L1.04612,2.48112 L2.48112,1.04612 L4.5,0.5 L9.625,0.5 L10.416,0.976563 L11.1719,1.6875 L11.998,2.67969 L13,4 L13.7559,4.66016 L14.5469,5.15625 L15.4082,5.51172 L16.375,5.75 L17.4824,5.89453 L18.7656,5.96875 L20.2598,5.99609 L22,6 L23.7402,5.99609 L25.2344,5.96875 L26.5176,5.89453 L27.625,5.75 L28.5918,5.51172 L29.4531,5.15625 L30.2441,4.66016 L31,4 L32.002,2.67969 L32.8281,1.6875 L33.584,0.976563 L34.375,0.5 L94,0.5 L96.0189,1.04612 L97.4539,2.48112 L98,4.5 L98,31.5 L97.4539,33.5189 L96.0189,34.9539 L94,35.5 L34.375,35.5 L33.584,35.9766 L32.8281,36.6875 L32.002,37.6797 L31,39 L30.2441,39.6602 L29.4531,40.1563 L28.5918,40.5117 L27.625,40.75 L26.5176,40.8945 L25.2344,40.9688 L23.7402,40.9961 L22,41 L20.2598,40.9961 L18.7656,40.9688 L17.4824,40.8945 L16.375,40.75 L15.4082,40.5117 L14.5469,40.1563 L13.7559,39.6602 L13,39 L11.998,37.6797 L11.1719,36.6875 L10.416,35.9766 L9.625,35.5 L4.5,35.5 L2.48112,34.9539 L1.04612,33.5189 L0.5,31.5 L0.5,4.5"/>
</g>

<g fill="#ffffff" fill-opacity="1" stroke="none" transform="matrix(1,0,0,1,0,0)"
font-family="Inter" font-size="11" font-weight="700" font-style="normal" 
>
<path vector-effect="none" fill-rule="nonzero" d="M14.8438,22.0234 C14.2292,22.0234 13.7012,21.8926 13.2598,21.6309 C12.8184,21.3691 12.4798,21.0052 12.2441,20.5391 C12.0085,20.0729 11.8906,19.5365 11.8906,18.9297 C11.8906,18.3151 12.0098,17.7754 12.248,17.3105 C12.4863,16.8457 12.8255,16.4824 13.2656,16.2207 C13.7057,15.959 14.2292,15.8281 14.8359,15.8281 C15.3594,15.8281 15.8177,15.9232 16.2109,16.1133 C16.6042,16.3034 16.9154,16.5703 17.1445,16.9141 C17.3737,17.2578 17.5,17.6615 17.5234,18.125 L15.9531,18.125 C15.9089,17.8255 15.7923,17.584 15.6035,17.4004 C15.4147,17.2168 15.168,17.125 14.8633,17.125 C14.6055,17.125 14.3809,17.1947 14.1895,17.334 C13.998,17.4733 13.849,17.6758 13.7422,17.9414 C13.6354,18.207 13.582,18.5286 13.582,18.9063 C13.582,19.2891 13.6348,19.6146 13.7402,19.8828 C13.8457,20.151 13.9948,20.3555 14.1875,20.4961 C14.3802,20.6367 14.6055,20.707 14.8633,20.707 C15.0534,20.707 15.2246,20.668 15.377,20.5898 C15.5293,20.5117 15.6556,20.3978 15.7559,20.248 C15.8561,20.0983 15.9219,19.918 15.9531,19.707 L17.5234,19.707 C17.4974,20.1654 17.373,20.5684 17.1504,20.916 C16.9277,21.2637 16.6211,21.5352 16.2305,21.7305 C15.8398,21.9258 15.3776,22.0234 14.8438,22.0234 M20.25,13.9063 L20.25,21.9063 L18.5859,21.9063 L18.5859,13.9063 L20.25,13.9063 M24.3047,22.0234 C23.6875,22.0234 23.1569,21.8978 22.7129,21.6465 C22.2689,21.3952 21.9271,21.0384 21.6875,20.5762 C21.4479,20.1139 21.3281,19.5664 21.3281,18.9336 C21.3281,18.3164 21.4479,17.7747 21.6875,17.3086 C21.9271,16.8424 22.265,16.4792 22.7012,16.2188 C23.1374,15.9583 23.6497,15.8281 24.2383,15.8281 C24.6341,15.8281 25.0033,15.8913 25.3457,16.0176 C25.6882,16.1439 25.9876,16.3333 26.2441,16.5859 C26.5007,16.8385 26.7005,17.1556 26.8438,17.5371 C26.987,17.9186 27.0586,18.3646 27.0586,18.875 L27.0586,19.332 L21.9922,19.332 L21.9922,18.3008 L25.4922,18.3008 C25.4922,18.0612 25.4401,17.849 25.3359,17.6641 C25.2318,17.4792 25.0879,17.334 24.9043,17.2285 C24.7207,17.123 24.5078,17.0703 24.2656,17.0703 C24.013,17.0703 23.7897,17.1283 23.5957,17.2441 C23.4017,17.36 23.25,17.515 23.1406,17.709 C23.0313,17.903 22.9753,18.1185 22.9727,18.3555 L22.9727,19.3359 C22.9727,19.6328 23.028,19.8893 23.1387,20.1055 C23.2493,20.3216 23.4063,20.4883 23.6094,20.6055 C23.8125,20.7227 24.0534,20.7813 24.332,20.7813 C24.5169,20.7813 24.6862,20.7552 24.8398,20.7031 C24.9935,20.651 25.125,20.5729 25.2344,20.4688 C25.3438,20.3646 25.4271,20.237 25.4844,20.0859 L27.0234,20.1875 C26.9453,20.5573 26.7858,20.8796 26.5449,21.1543 C26.304,21.429 25.9941,21.6426 25.6152,21.7949 C25.2363,21.9473 24.7995,22.0234 24.3047,22.0234 M29.8438,22.0195 C29.4609,22.0195 29.1198,21.9525 28.8203,21.8184 C28.5208,21.6842 28.2845,21.485 28.1113,21.2207 C27.9382,20.9564 27.8516,20.6263 27.8516,20.2305 C27.8516,19.8971 27.9128,19.6172 28.0352,19.3906 C28.1576,19.1641 28.3242,18.9818 28.5352,18.8438 C28.7461,18.7057 28.9863,18.6016 29.2559,18.5313 C29.5254,18.4609 29.8086,18.4115 30.1055,18.3828 C30.4544,18.3464 30.7357,18.3118 30.9492,18.2793 C31.1628,18.2467 31.3177,18.1979 31.4141,18.1328 C31.5104,18.0677 31.5586,17.9714 31.5586,17.8438 L31.5586,17.8203 C31.5586,17.5729 31.4811,17.3815 31.3262,17.2461 C31.1712,17.1107 30.9518,17.043 30.668,17.043 C30.3685,17.043 30.1302,17.1087 29.9531,17.2402 C29.776,17.3717 29.6589,17.5365 29.6016,17.7344 L28.0625,17.6094 C28.1406,17.2448 28.2943,16.929 28.5234,16.6621 C28.7526,16.3952 29.0488,16.1895 29.4121,16.0449 C29.7754,15.9004 30.1966,15.8281 30.6758,15.8281 C31.0091,15.8281 31.3288,15.8672 31.6348,15.9453 C31.9408,16.0234 32.2129,16.1445 32.4512,16.3086 C32.6895,16.4727 32.8776,16.6829 33.0156,16.9395 C33.1536,17.196 33.2227,17.5026 33.2227,17.8594 L33.2227,21.9063 L31.6445,21.9063 L31.6445,21.0742 L31.5977,21.0742 C31.5013,21.2617 31.3724,21.4264 31.2109,21.5684 C31.0495,21.7103 30.8555,21.821 30.6289,21.9004 C30.4023,21.9798 30.1406,22.0195 29.8438,22.0195 M30.3203,20.8711 C30.5651,20.8711 30.7813,20.8223 30.9688,20.7246 C31.1563,20.627 31.3034,20.4948 31.4102,20.3281 C31.5169,20.1615 31.5703,19.9727 31.5703,19.7617 L31.5703,19.125 C31.5182,19.1589 31.4473,19.1895 31.3574,19.2168 C31.2676,19.2441 31.1667,19.2689 31.0547,19.291 C30.9427,19.3132 30.8307,19.3327 30.7188,19.3496 C30.6068,19.3665 30.5052,19.3815 30.4141,19.3945 C30.2188,19.4232 30.0482,19.4688 29.9023,19.5313 C29.7565,19.5938 29.6432,19.6777 29.5625,19.7832 C29.4818,19.8887 29.4414,20.0195 29.4414,20.1758 C29.4414,20.4023 29.5241,20.5749 29.6895,20.6934 C29.8548,20.8118 30.0651,20.8711 30.3203,20.8711 M34.5078,21.9063 L34.5078,15.9063 L36.1211,15.9063 L36.1211,16.9531 L36.1836,16.9531 C36.293,16.5807 36.4766,16.2988 36.7344,16.1074 C36.9922,15.916 37.2891,15.8203 37.625,15.8203 C37.7083,15.8203 37.7982,15.8255 37.8945,15.8359 C37.9909,15.8464 38.0755,15.8607 38.1484,15.8789 L38.1484,17.3555 C38.0703,17.332 37.9622,17.3112 37.8242,17.293 C37.6862,17.2747 37.5599,17.2656 37.4453,17.2656 C37.2005,17.2656 36.9824,17.3184 36.791,17.4238 C36.5996,17.5293 36.4486,17.6758 36.3379,17.8633 C36.2272,18.0508 36.1719,18.2669 36.1719,18.5117 L36.1719,21.9063 L34.5078,21.9063"/>
</g>

<g fill="#ffffff" fill-opacity="1" stroke="none" transform="matrix(1,0,0,1,0,0)"
font-family="Inter" font-size="11" font-weight="700" font-style="normal" 
>
</g>

<g fill="#ffffff" fill-opacity="1" stroke="none" transform="matrix(1,0,0,1,0,0)"
font-family="Inter" font-size="11" font-weight="700" font-style="normal" 
>
</g>

<g fill="#ff661a" fill-opacity="1" stroke="#de4600" stroke-opacity="1" stroke-width="1.2" stroke-linecap="square" stroke-linejoin="bevel" transform="matrix(1,0,0,1,45,6)"
font-family="Inter" font-size="11" font-weight="700" font-style="normal" 
>
<path vector-effect="none" fill-rule="evenodd" d="M0.5,3.5 C0.5,1.84315 1.84315,0.5 3.5,0.5 L44,0.5 C45.6569,0.5 47,1.84315 47,3.5 L47,20.5 C47,22.1569 45.6569,23.5 44,23.5 L3.5,23.5 C1.84315,23.5 0.5,22.1569 0.5,20.5 L0.5,3.5"/>
</g>

<g fill="#ffffff" fill-opacity="1" stroke="none" transform="matrix(1,0,0,1,45,6)"
font-family="Inter" font-size="11" font-weight="700" font-style="normal" 
>
<path vector-effect="none" fill-rule="nonzero" d="M11.1719,7.95313 L11.1719,15.9531 L9.50781,15.9531 L9.50781,7.95313 L11.1719,7.95313 M12.4922,15.9531 L12.4922,9.95313 L14.1563,9.95313 L14.1563,15.9531 L12.4922,15.9531 M13.3281,9.17969 C13.0807,9.17969 12.8691,9.09701 12.6934,8.93164 C12.5176,8.76628 12.4297,8.56771 12.4297,8.33594 C12.4297,8.10677 12.5176,7.90951 12.6934,7.74414 C12.8691,7.57878 13.0807,7.49609 13.3281,7.49609 C13.5755,7.49609 13.7871,7.57878 13.9629,7.74414 C14.1387,7.90951 14.2266,8.10677 14.2266,8.33594 C14.2266,8.56771 14.1387,8.76628 13.9629,8.93164 C13.7871,9.09701 13.5755,9.17969 13.3281,9.17969 M20.4688,11.6641 L18.9453,11.7578 C18.9193,11.6276 18.8633,11.5098 18.7773,11.4043 C18.6914,11.2988 18.5788,11.2142 18.4395,11.1504 C18.3001,11.0866 18.1341,11.0547 17.9414,11.0547 C17.6836,11.0547 17.4661,11.1087 17.2891,11.2168 C17.112,11.3249 17.0234,11.4688 17.0234,11.6484 C17.0234,11.7917 17.0807,11.9128 17.1953,12.0117 C17.3099,12.1107 17.5065,12.1901 17.7852,12.25 L18.8711,12.4688 C19.4544,12.5885 19.8893,12.7813 20.1758,13.0469 C20.4622,13.3125 20.6055,13.6615 20.6055,14.0938 C20.6055,14.487 20.4902,14.832 20.2598,15.1289 C20.0293,15.4258 19.7142,15.6569 19.3145,15.8223 C18.9147,15.9876 18.4544,16.0703 17.9336,16.0703 C17.1393,16.0703 16.5072,15.9043 16.0371,15.5723 C15.5671,15.2402 15.2917,14.7878 15.2109,14.2148 L16.8477,14.1289 C16.8971,14.3711 17.0169,14.5553 17.207,14.6816 C17.3971,14.8079 17.6406,14.8711 17.9375,14.8711 C18.2292,14.8711 18.4642,14.8145 18.6426,14.7012 C18.821,14.5879 18.9115,14.4414 18.9141,14.2617 C18.9115,14.1107 18.8477,13.9863 18.7227,13.8887 C18.5977,13.791 18.4049,13.7161 18.1445,13.6641 L17.1055,13.457 C16.5195,13.3398 16.084,13.1367 15.7988,12.8477 C15.5137,12.5586 15.3711,12.1901 15.3711,11.7422 C15.3711,11.3568 15.4759,11.0247 15.6855,10.7461 C15.8952,10.4674 16.1908,10.2526 16.5723,10.1016 C16.9538,9.95052 17.401,9.875 17.9141,9.875 C18.6719,9.875 19.2689,10.0352 19.7051,10.3555 C20.1413,10.6758 20.3958,11.112 20.4688,11.6641 M24.8398,9.95313 L24.8398,11.2031 L21.2266,11.2031 L21.2266,9.95313 L24.8398,9.95313 M22.0469,8.51563 L23.7109,8.51563 L23.7109,14.1094 C23.7109,14.263 23.7344,14.3822 23.7813,14.4668 C23.8281,14.5514 23.8939,14.6107 23.9785,14.6445 C24.0632,14.6784 24.1615,14.6953 24.2734,14.6953 C24.3516,14.6953 24.4297,14.6882 24.5078,14.6738 C24.5859,14.6595 24.6458,14.6484 24.6875,14.6406 L24.9492,15.8789 C24.8659,15.9049 24.7487,15.9355 24.5977,15.9707 C24.4466,16.0059 24.263,16.0273 24.0469,16.0352 C23.6458,16.0508 23.2949,15.9974 22.9941,15.875 C22.6934,15.7526 22.4596,15.5625 22.293,15.3047 C22.1263,15.0469 22.0443,14.7214 22.0469,14.3281 L22.0469,8.51563"/>
</g>

<g fill="#ffffff" fill-opacity="1" stroke="none" transform="matrix(0.03125,0,0,0.03125,78.5,14)"
font-family="Inter" font-size="11" font-weight="700" font-style="normal" 
>
<path vector-effect="none" fill-rule="nonzero" d="M111.326,191.938 C120.545,201.158 135.517,201.158 144.737,191.938 L239.144,97.5313 C245.929,90.7458 247.921,80.6413 244.233,71.7907 C240.545,62.9401 231.989,57.1871 222.401,57.1871 L33.5875,57.2608 C24.0731,57.2608 15.4437,63.0137 11.7559,71.8644 C8.06815,80.715 10.1333,90.8195 16.845,97.605 L111.252,192.012 L111.326,191.938"/>
</g>

<g fill="none" stroke="#000000" stroke-opacity="1" stroke-width="13.7195" stroke-linecap="butt" stroke-linejoin="miter" stroke-miterlimit="4" transform="matrix(0.03125,0,0,0.03125,78.5,14)"
font-family="Inter" font-size="11" font-weight="700" font-style="normal" 
>
<path vector-effect="none" fill-rule="nonzero" d="M111.326,191.938 C120.545,201.158 135.517,201.158 144.737,191.938 L239.144,97.5313 C245.929,90.7458 247.921,80.6413 244.233,71.7907 C240.545,62.9401 231.989,57.1871 222.401,57.1871 L33.5875,57.2608 C24.0731,57.2608 15.4437,63.0137 11.7559,71.8644 C8.06815,80.715 10.1333,90.8195 16.845,97.605 L111.252,192.012 L111.326,191.938"/>
</g>

<g fill="#ffffff" fill-opacity="1" stroke="none" transform="matrix(1,0,0,1,45,6)"
font-family="Inter" font-size="11" font-weight="700" font-style="normal" 
>
</g>

<g fill="#ffffff" fill-opacity="1" stroke="none" transform="matrix(1,0,0,1,0,0)"
font-family="Inter" font-size="11" font-weight="700" font-style="normal" 
>
</g>

<g fill="none" stroke="#000000" stroke-opacity="1" stroke-width="1" stroke-linecap="square" stroke-linejoin="bevel" transform="matrix(1,0,0,1,0,0)"
font-family=".AppleSystemUIFont" font-size="13" font-weight="400" font-style="normal" 
>
</g>
</g>
</svg>
