<?xml version="1.0" encoding="UTF-8" standalone="no"?>
<svg width="117.828mm" height="21.1667mm"
 viewBox="0 0 334 60"
 xmlns="http://www.w3.org/2000/svg" xmlns:xlink="http://www.w3.org/1999/xlink" version="1.2" baseProfile="tiny">
<title>Abstract block</title>
<desc>block_hubs_all_event_accelerometer_changed</desc>
<defs>
</defs>
<g fill="none" stroke="black" stroke-width="1" fill-rule="evenodd" stroke-linecap="square" stroke-linejoin="bevel" >

<g fill="none" stroke="#000000" stroke-opacity="1" stroke-width="1" stroke-linecap="square" stroke-linejoin="bevel" transform="matrix(1,0,0,1,0,0)"
font-family=".AppleSystemUIFont" font-size="13" font-weight="400" font-style="normal" 
>
</g>

<g fill="none" stroke="#000000" stroke-opacity="1" stroke-width="1" stroke-linecap="square" stroke-linejoin="bevel" transform="matrix(1,0,0,1,0,0)"
font-family=".AppleSystemUIFont" font-size="13" font-weight="400" font-style="normal" 
>
</g>

<g fill="#f5c400" fill-opacity="1" stroke="#ba9500" stroke-opacity="1" stroke-width="1.2" stroke-linecap="square" stroke-linejoin="bevel" transform="matrix(1,0,0,1,0,0)"
font-family=".AppleSystemUIFont" font-size="13" font-weight="400" font-style="normal" 
>
<path vector-effect="none" fill-rule="evenodd" d="M0.5,20.5 L1,18.6516 L1,18 L1.77836,17.1565 L2.58892,16.3401 L3.43062,15.551 L4.30242,14.7891 L5.20325,14.0544 L6.13206,13.3469 L7.08779,12.6667 L8.06939,12.0136 L9.0758,11.3878 L10.106,10.7891 L11.1588,10.2177 L12.2333,9.67347 L13.3284,9.15646 L14.4431,8.66667 L15.5762,8.20408 L16.7267,7.76871 L17.8936,7.36054 L19.0758,6.97959 L20.2723,6.62585 L21.4819,6.29932 L22.7037,6 L23.9366,5.72789 L25.1795,5.48299 L26.4314,5.26531 L27.6912,5.07483 L28.9578,4.91156 L30.2303,4.77551 L31.5075,4.66667 L32.7885,4.58503 L34.072,4.53061 L35.3572,4.5034 L36.6428,4.5034 L37.928,4.53061 L39.2115,4.58503 L40.4925,4.66667 L41.7697,4.77551 L43.0422,4.91156 L44.3088,5.07483 L45.5686,5.26531 L46.8205,5.48299 L48.0634,5.72789 L49.2963,6 L50.5181,6.29932 L51.7277,6.62585 L52.9242,6.97959 L54.1064,7.36054 L55.2733,7.76871 L56.4238,8.20408 L57.5569,8.66667 L58.6716,9.15646 L59.7667,9.67347 L60.8412,10.2177 L61.894,10.7891 L62.9242,11.3878 L63.9306,12.0136 L64.9122,12.6667 L65.8679,13.3469 L66.7968,14.0544 L67.6976,14.7891 L68.5694,15.551 L69.4111,16.3401 L69.5698,16.5 L329.5,16.5 L331.519,17.0461 L332.954,18.4811 L333.5,20.5 L333.5,47.5 L332.954,49.5189 L331.519,50.9539 L329.5,51.5 L34.375,51.5 L33.584,51.9766 L32.8281,52.6875 L32.002,53.6797 L31,55 L30.2441,55.6602 L29.4531,56.1563 L28.5918,56.5117 L27.625,56.75 L26.5176,56.8945 L25.2344,56.9688 L23.7402,56.9961 L22,57 L20.2598,56.9961 L18.7656,56.9688 L17.4824,56.8945 L16.375,56.75 L15.4082,56.5117 L14.5469,56.1563 L13.7559,55.6602 L13,55 L11.998,53.6797 L11.1719,52.6875 L10.416,51.9766 L9.625,51.5 L4.5,51.5 L2.48112,50.9539 L1.04612,49.5189 L0.5,47.5 L0.5,20.5"/>
</g>

<g fill="#ffffff" fill-opacity="1" stroke="none" transform="matrix(1,0,0,1,0,0)"
font-family="Inter" font-size="11" font-weight="700" font-style="normal" 
>
<path vector-effect="none" fill-rule="nonzero" d="M53.4727,37.9063 L51.8398,31.9063 L53.5234,31.9063 L54.4531,35.9375 L54.5078,35.9375 L55.4766,31.9063 L57.1289,31.9063 L58.1133,35.9141 L58.1641,35.9141 L59.0781,31.9063 L60.7578,31.9063 L59.1289,37.9063 L57.3672,37.9063 L56.3359,34.1328 L56.2617,34.1328 L55.2305,37.9063 L53.4727,37.9063 M63.2969,34.4375 L63.2969,37.9063 L61.6328,37.9063 L61.6328,29.9063 L63.25,29.9063 L63.25,32.9648 L63.3203,32.9648 C63.4557,32.6107 63.6745,32.3327 63.9766,32.1309 C64.2786,31.929 64.6576,31.8281 65.1133,31.8281 C65.5299,31.8281 65.8939,31.9186 66.2051,32.0996 C66.5163,32.2806 66.7585,32.5397 66.9316,32.877 C67.1048,33.2142 67.1901,33.6172 67.1875,34.0859 L67.1875,37.9063 L65.5234,37.9063 L65.5234,34.3828 C65.526,34.013 65.4329,33.7253 65.2441,33.5195 C65.0553,33.3138 64.7917,33.2109 64.4531,33.2109 C64.2266,33.2109 64.0267,33.2591 63.8535,33.3555 C63.6803,33.4518 63.5449,33.5918 63.4473,33.7754 C63.3496,33.959 63.2995,34.1797 63.2969,34.4375 M71.2266,38.0234 C70.6094,38.0234 70.0788,37.8978 69.6348,37.6465 C69.1908,37.3952 68.849,37.0384 68.6094,36.5762 C68.3698,36.1139 68.25,35.5664 68.25,34.9336 C68.25,34.3164 68.3698,33.7747 68.6094,33.3086 C68.849,32.8424 69.1868,32.4792 69.623,32.2188 C70.0592,31.9583 70.5716,31.8281 71.1602,31.8281 C71.556,31.8281 71.9251,31.8913 72.2676,32.0176 C72.61,32.1439 72.9095,32.3333 73.166,32.5859 C73.4225,32.8385 73.6224,33.1556 73.7656,33.5371 C73.9089,33.9186 73.9805,34.3646 73.9805,34.875 L73.9805,35.332 L68.9141,35.332 L68.9141,34.3008 L72.4141,34.3008 C72.4141,34.0612 72.362,33.849 72.2578,33.6641 C72.1536,33.4792 72.0098,33.334 71.8262,33.2285 C71.6426,33.123 71.4297,33.0703 71.1875,33.0703 C70.9349,33.0703 70.7116,33.1283 70.5176,33.2441 C70.3236,33.36 70.1719,33.515 70.0625,33.709 C69.9531,33.903 69.8971,34.1185 69.8945,34.3555 L69.8945,35.3359 C69.8945,35.6328 69.9499,35.8893 70.0605,36.1055 C70.1712,36.3216 70.3281,36.4883 70.5313,36.6055 C70.7344,36.7227 70.9753,36.7813 71.2539,36.7813 C71.4388,36.7813 71.6081,36.7552 71.7617,36.7031 C71.9154,36.651 72.0469,36.5729 72.1563,36.4688 C72.2656,36.3646 72.349,36.237 72.4063,36.0859 L73.9453,36.1875 C73.8672,36.5573 73.7077,36.8796 73.4668,37.1543 C73.2259,37.429 72.916,37.6426 72.5371,37.7949 C72.1582,37.9473 71.7214,38.0234 71.2266,38.0234 M76.7188,34.4375 L76.7188,37.9063 L75.0547,37.9063 L75.0547,31.9063 L76.6406,31.9063 L76.6406,32.9648 L76.7109,32.9648 C76.8438,32.6159 77.0664,32.3392 77.3789,32.1348 C77.6914,31.9303 78.0703,31.8281 78.5156,31.8281 C78.9323,31.8281 79.2956,31.9193 79.6055,32.1016 C79.9154,32.2839 80.1563,32.5436 80.3281,32.8809 C80.5,33.2181 80.5859,33.6198 80.5859,34.0859 L80.5859,37.9063 L78.9219,37.9063 L78.9219,34.3828 C78.9245,34.0156 78.8307,33.7285 78.6406,33.5215 C78.4505,33.3145 78.1888,33.2109 77.8555,33.2109 C77.6315,33.2109 77.4342,33.2591 77.2637,33.3555 C77.0931,33.4518 76.9603,33.5918 76.8652,33.7754 C76.7702,33.959 76.7214,34.1797 76.7188,34.4375 "/>
</g>

<g fill="#ffffff" fill-opacity="1" stroke="none" transform="matrix(1,0,0,1,0,0)"
font-family="Inter" font-size="11" font-weight="700" font-style="normal" 
>
<path vector-effect="none" fill-rule="nonzero" d="M169.766,36.8789 C169.383,36.8789 169.042,36.8118 168.742,36.6777 C168.443,36.5436 168.206,36.3444 168.033,36.0801 C167.86,35.8158 167.773,35.4857 167.773,35.0898 C167.773,34.7565 167.835,34.4766 167.957,34.25 C168.079,34.0234 168.246,33.8411 168.457,33.7031 C168.668,33.5651 168.908,33.4609 169.178,33.3906 C169.447,33.3203 169.73,33.2708 170.027,33.2422 C170.376,33.2057 170.658,33.1712 170.871,33.1387 C171.085,33.1061 171.24,33.0573 171.336,32.9922 C171.432,32.9271 171.48,32.8307 171.48,32.7031 L171.48,32.6797 C171.48,32.4323 171.403,32.2409 171.248,32.1055 C171.093,31.9701 170.874,31.9023 170.59,31.9023 C170.29,31.9023 170.052,31.9681 169.875,32.0996 C169.698,32.2311 169.581,32.3958 169.523,32.5938 L167.984,32.4688 C168.063,32.1042 168.216,31.7884 168.445,31.5215 C168.674,31.2546 168.971,31.0488 169.334,30.9043 C169.697,30.7598 170.118,30.6875 170.598,30.6875 C170.931,30.6875 171.251,30.7266 171.557,30.8047 C171.863,30.8828 172.135,31.0039 172.373,31.168 C172.611,31.332 172.799,31.5423 172.938,31.7988 C173.076,32.0553 173.145,32.362 173.145,32.7188 L173.145,36.7656 L171.566,36.7656 L171.566,35.9336 L171.52,35.9336 C171.423,36.1211 171.294,36.2858 171.133,36.4277 C170.971,36.5697 170.777,36.6803 170.551,36.7598 C170.324,36.8392 170.063,36.8789 169.766,36.8789 M170.242,35.7305 C170.487,35.7305 170.703,35.6816 170.891,35.584 C171.078,35.4863 171.225,35.3542 171.332,35.1875 C171.439,35.0208 171.492,34.832 171.492,34.6211 L171.492,33.9844 C171.44,34.0182 171.369,34.0488 171.279,34.0762 C171.189,34.1035 171.089,34.1283 170.977,34.1504 C170.865,34.1725 170.753,34.1921 170.641,34.209 C170.529,34.2259 170.427,34.2409 170.336,34.2539 C170.141,34.2826 169.97,34.3281 169.824,34.3906 C169.678,34.4531 169.565,34.5371 169.484,34.6426 C169.404,34.748 169.363,34.8789 169.363,35.0352 C169.363,35.2617 169.446,35.4342 169.611,35.5527 C169.777,35.6712 169.987,35.7305 170.242,35.7305 M177.141,36.8828 C176.526,36.8828 175.998,36.752 175.557,36.4902 C175.115,36.2285 174.777,35.8646 174.541,35.3984 C174.305,34.9323 174.188,34.3958 174.188,33.7891 C174.188,33.1745 174.307,32.6348 174.545,32.1699 C174.783,31.7051 175.122,31.3418 175.563,31.0801 C176.003,30.8184 176.526,30.6875 177.133,30.6875 C177.656,30.6875 178.115,30.7826 178.508,30.9727 C178.901,31.1628 179.212,31.4297 179.441,31.7734 C179.671,32.1172 179.797,32.5208 179.82,32.9844 L178.25,32.9844 C178.206,32.6849 178.089,32.4434 177.9,32.2598 C177.712,32.0762 177.465,31.9844 177.16,31.9844 C176.902,31.9844 176.678,32.054 176.486,32.1934 C176.295,32.3327 176.146,32.5352 176.039,32.8008 C175.932,33.0664 175.879,33.388 175.879,33.7656 C175.879,34.1484 175.932,34.474 176.037,34.7422 C176.143,35.0104 176.292,35.2148 176.484,35.3555 C176.677,35.4961 176.902,35.5664 177.16,35.5664 C177.35,35.5664 177.521,35.5273 177.674,35.4492 C177.826,35.3711 177.952,35.2572 178.053,35.1074 C178.153,34.9577 178.219,34.7773 178.25,34.5664 L179.82,34.5664 C179.794,35.0247 179.67,35.4277 179.447,35.7754 C179.225,36.123 178.918,36.3945 178.527,36.5898 C178.137,36.7852 177.674,36.8828 177.141,36.8828 M183.594,36.8828 C182.979,36.8828 182.451,36.752 182.01,36.4902 C181.568,36.2285 181.23,35.8646 180.994,35.3984 C180.758,34.9323 180.641,34.3958 180.641,33.7891 C180.641,33.1745 180.76,32.6348 180.998,32.1699 C181.236,31.7051 181.576,31.3418 182.016,31.0801 C182.456,30.8184 182.979,30.6875 183.586,30.6875 C184.109,30.6875 184.568,30.7826 184.961,30.9727 C185.354,31.1628 185.665,31.4297 185.895,31.7734 C186.124,32.1172 186.25,32.5208 186.273,32.9844 L184.703,32.9844 C184.659,32.6849 184.542,32.4434 184.354,32.2598 C184.165,32.0762 183.918,31.9844 183.613,31.9844 C183.355,31.9844 183.131,32.054 182.939,32.1934 C182.748,32.3327 182.599,32.5352 182.492,32.8008 C182.385,33.0664 182.332,33.388 182.332,33.7656 C182.332,34.1484 182.385,34.474 182.49,34.7422 C182.596,35.0104 182.745,35.2148 182.938,35.3555 C183.13,35.4961 183.355,35.5664 183.613,35.5664 C183.803,35.5664 183.975,35.5273 184.127,35.4492 C184.279,35.3711 184.406,35.2572 184.506,35.1074 C184.606,34.9577 184.672,34.7773 184.703,34.5664 L186.273,34.5664 C186.247,35.0247 186.123,35.4277 185.9,35.7754 C185.678,36.123 185.371,36.3945 184.98,36.5898 C184.59,36.7852 184.128,36.8828 183.594,36.8828 M190.07,36.8828 C189.453,36.8828 188.923,36.7572 188.479,36.5059 C188.035,36.2546 187.693,35.8978 187.453,35.4355 C187.214,34.9733 187.094,34.4258 187.094,33.793 C187.094,33.1758 187.214,32.6341 187.453,32.168 C187.693,31.7018 188.031,31.3385 188.467,31.0781 C188.903,30.8177 189.415,30.6875 190.004,30.6875 C190.4,30.6875 190.769,30.7507 191.111,30.877 C191.454,31.0033 191.753,31.1927 192.01,31.4453 C192.266,31.6979 192.466,32.015 192.609,32.3965 C192.753,32.778 192.824,33.224 192.824,33.7344 L192.824,34.1914 L187.758,34.1914 L187.758,33.1602 L191.258,33.1602 C191.258,32.9206 191.206,32.7083 191.102,32.5234 C190.997,32.3385 190.854,32.1934 190.67,32.0879 C190.486,31.9824 190.273,31.9297 190.031,31.9297 C189.779,31.9297 189.555,31.9876 189.361,32.1035 C189.167,32.2194 189.016,32.3743 188.906,32.5684 C188.797,32.7624 188.741,32.9779 188.738,33.2148 L188.738,34.1953 C188.738,34.4922 188.794,34.7487 188.904,34.9648 C189.015,35.181 189.172,35.3477 189.375,35.4648 C189.578,35.582 189.819,35.6406 190.098,35.6406 C190.283,35.6406 190.452,35.6146 190.605,35.5625 C190.759,35.5104 190.891,35.4323 191,35.3281 C191.109,35.224 191.193,35.0964 191.25,34.9453 L192.789,35.0469 C192.711,35.4167 192.551,35.7389 192.311,36.0137 C192.07,36.2884 191.76,36.502 191.381,36.6543 C191.002,36.8066 190.565,36.8828 190.07,36.8828 M195.563,28.7656 L195.563,36.7656 L193.898,36.7656 L193.898,28.7656 L195.563,28.7656 M199.617,36.8828 C199,36.8828 198.469,36.7572 198.025,36.5059 C197.581,36.2546 197.24,35.8978 197,35.4355 C196.76,34.9733 196.641,34.4258 196.641,33.793 C196.641,33.1758 196.76,32.6341 197,32.168 C197.24,31.7018 197.577,31.3385 198.014,31.0781 C198.45,30.8177 198.962,30.6875 199.551,30.6875 C199.947,30.6875 200.316,30.7507 200.658,30.877 C201.001,31.0033 201.3,31.1927 201.557,31.4453 C201.813,31.6979 202.013,32.015 202.156,32.3965 C202.299,32.778 202.371,33.224 202.371,33.7344 L202.371,34.1914 L197.305,34.1914 L197.305,33.1602 L200.805,33.1602 C200.805,32.9206 200.753,32.7083 200.648,32.5234 C200.544,32.3385 200.4,32.1934 200.217,32.0879 C200.033,31.9824 199.82,31.9297 199.578,31.9297 C199.326,31.9297 199.102,31.9876 198.908,32.1035 C198.714,32.2194 198.563,32.3743 198.453,32.5684 C198.344,32.7624 198.288,32.9779 198.285,33.2148 L198.285,34.1953 C198.285,34.4922 198.34,34.7487 198.451,34.9648 C198.562,35.181 198.719,35.3477 198.922,35.4648 C199.125,35.582 199.366,35.6406 199.645,35.6406 C199.829,35.6406 199.999,35.6146 200.152,35.5625 C200.306,35.5104 200.438,35.4323 200.547,35.3281 C200.656,35.224 200.74,35.0964 200.797,34.9453 L202.336,35.0469 C202.258,35.4167 202.098,35.7389 201.857,36.0137 C201.617,36.2884 201.307,36.502 200.928,36.6543 C200.549,36.8066 200.112,36.8828 199.617,36.8828 M203.445,36.7656 L203.445,30.7656 L205.059,30.7656 L205.059,31.8125 L205.121,31.8125 C205.23,31.4401 205.414,31.1582 205.672,30.9668 C205.93,30.7754 206.227,30.6797 206.563,30.6797 C206.646,30.6797 206.736,30.6849 206.832,30.6953 C206.928,30.7057 207.013,30.7201 207.086,30.7383 L207.086,32.2148 C207.008,32.1914 206.9,32.1706 206.762,32.1523 C206.624,32.1341 206.497,32.125 206.383,32.125 C206.138,32.125 205.92,32.1777 205.729,32.2832 C205.537,32.3887 205.386,32.5352 205.275,32.7227 C205.165,32.9102 205.109,33.1263 205.109,33.3711 L205.109,36.7656 L203.445,36.7656 M210.359,36.8828 C209.753,36.8828 209.229,36.7533 208.787,36.4941 C208.346,36.235 208.005,35.873 207.766,35.4082 C207.526,34.9434 207.406,34.4036 207.406,33.7891 C207.406,33.1693 207.526,32.627 207.766,32.1621 C208.005,31.6973 208.346,31.3353 208.787,31.0762 C209.229,30.8171 209.753,30.6875 210.359,30.6875 C210.966,30.6875 211.49,30.8171 211.932,31.0762 C212.373,31.3353 212.714,31.6973 212.953,32.1621 C213.193,32.627 213.313,33.1693 213.313,33.7891 C213.313,34.4036 213.193,34.9434 212.953,35.4082 C212.714,35.873 212.373,36.235 211.932,36.4941 C211.49,36.7533 210.966,36.8828 210.359,36.8828 M210.367,35.5938 C210.643,35.5938 210.874,35.515 211.059,35.3574 C211.243,35.1999 211.383,34.9844 211.479,34.7109 C211.574,34.4375 211.621,34.1263 211.621,33.7773 C211.621,33.4284 211.574,33.1172 211.479,32.8438 C211.383,32.5703 211.243,32.3542 211.059,32.1953 C210.874,32.0365 210.643,31.957 210.367,31.957 C210.089,31.957 209.855,32.0365 209.666,32.1953 C209.477,32.3542 209.335,32.5703 209.24,32.8438 C209.145,33.1172 209.098,33.4284 209.098,33.7773 C209.098,34.1263 209.145,34.4375 209.24,34.7109 C209.335,34.9844 209.477,35.1999 209.666,35.3574 C209.855,35.515 210.089,35.5938 210.367,35.5938 M214.398,36.7656 L214.398,30.7656 L215.984,30.7656 L215.984,31.8242 L216.055,31.8242 C216.18,31.4727 216.388,31.1953 216.68,30.9922 C216.971,30.7891 217.32,30.6875 217.727,30.6875 C218.138,30.6875 218.488,30.7897 218.777,30.9941 C219.066,31.1986 219.259,31.4753 219.355,31.8242 L219.418,31.8242 C219.54,31.4805 219.762,31.2051 220.084,30.998 C220.406,30.791 220.786,30.6875 221.227,30.6875 C221.786,30.6875 222.242,30.8652 222.592,31.2207 C222.942,31.5762 223.117,32.0794 223.117,32.7305 L223.117,36.7656 L221.457,36.7656 L221.457,33.0586 C221.457,32.7253 221.368,32.4753 221.191,32.3086 C221.014,32.1419 220.793,32.0586 220.527,32.0586 C220.225,32.0586 219.99,32.1543 219.82,32.3457 C219.651,32.5371 219.566,32.7891 219.566,33.1016 L219.566,36.7656 L217.953,36.7656 L217.953,33.0234 C217.953,32.7292 217.869,32.4948 217.701,32.3203 C217.533,32.1458 217.313,32.0586 217.039,32.0586 C216.854,32.0586 216.688,32.1048 216.541,32.1973 C216.394,32.2897 216.277,32.4186 216.191,32.584 C216.105,32.7493 216.063,32.9427 216.063,33.1641 L216.063,36.7656 L214.398,36.7656 M227.164,36.8828 C226.547,36.8828 226.016,36.7572 225.572,36.5059 C225.128,36.2546 224.786,35.8978 224.547,35.4355 C224.307,34.9733 224.188,34.4258 224.188,33.793 C224.188,33.1758 224.307,32.6341 224.547,32.168 C224.786,31.7018 225.124,31.3385 225.561,31.0781 C225.997,30.8177 226.509,30.6875 227.098,30.6875 C227.493,30.6875 227.863,30.7507 228.205,30.877 C228.548,31.0033 228.847,31.1927 229.104,31.4453 C229.36,31.6979 229.56,32.015 229.703,32.3965 C229.846,32.778 229.918,33.224 229.918,33.7344 L229.918,34.1914 L224.852,34.1914 L224.852,33.1602 L228.352,33.1602 C228.352,32.9206 228.299,32.7083 228.195,32.5234 C228.091,32.3385 227.947,32.1934 227.764,32.0879 C227.58,31.9824 227.367,31.9297 227.125,31.9297 C226.872,31.9297 226.649,31.9876 226.455,32.1035 C226.261,32.2194 226.109,32.3743 226,32.5684 C225.891,32.7624 225.835,32.9779 225.832,33.2148 L225.832,34.1953 C225.832,34.4922 225.887,34.7487 225.998,34.9648 C226.109,35.181 226.266,35.3477 226.469,35.4648 C226.672,35.582 226.913,35.6406 227.191,35.6406 C227.376,35.6406 227.546,35.6146 227.699,35.5625 C227.853,35.5104 227.984,35.4323 228.094,35.3281 C228.203,35.224 228.286,35.0964 228.344,34.9453 L229.883,35.0469 C229.805,35.4167 229.645,35.7389 229.404,36.0137 C229.163,36.2884 228.854,36.502 228.475,36.6543 C228.096,36.8066 227.659,36.8828 227.164,36.8828 M234.184,30.7656 L234.184,32.0156 L230.57,32.0156 L230.57,30.7656 L234.184,30.7656 M231.391,29.3281 L233.055,29.3281 L233.055,34.9219 C233.055,35.0755 233.078,35.1947 233.125,35.2793 C233.172,35.3639 233.238,35.4232 233.322,35.457 C233.407,35.4909 233.505,35.5078 233.617,35.5078 C233.695,35.5078 233.773,35.5007 233.852,35.4863 C233.93,35.472 233.99,35.4609 234.031,35.4531 L234.293,36.6914 C234.21,36.7174 234.092,36.748 233.941,36.7832 C233.79,36.8184 233.607,36.8398 233.391,36.8477 C232.99,36.8633 232.639,36.8099 232.338,36.6875 C232.037,36.5651 231.803,36.375 231.637,36.1172 C231.47,35.8594 231.388,35.5339 231.391,35.1406 L231.391,29.3281 M237.93,36.8828 C237.313,36.8828 236.782,36.7572 236.338,36.5059 C235.894,36.2546 235.552,35.8978 235.313,35.4355 C235.073,34.9733 234.953,34.4258 234.953,33.793 C234.953,33.1758 235.073,32.6341 235.313,32.168 C235.552,31.7018 235.89,31.3385 236.326,31.0781 C236.762,30.8177 237.275,30.6875 237.863,30.6875 C238.259,30.6875 238.628,30.7507 238.971,30.877 C239.313,31.0033 239.613,31.1927 239.869,31.4453 C240.126,31.6979 240.326,32.015 240.469,32.3965 C240.612,32.778 240.684,33.224 240.684,33.7344 L240.684,34.1914 L235.617,34.1914 L235.617,33.1602 L239.117,33.1602 C239.117,32.9206 239.065,32.7083 238.961,32.5234 C238.857,32.3385 238.713,32.1934 238.529,32.0879 C238.346,31.9824 238.133,31.9297 237.891,31.9297 C237.638,31.9297 237.415,31.9876 237.221,32.1035 C237.027,32.2194 236.875,32.3743 236.766,32.5684 C236.656,32.7624 236.6,32.9779 236.598,33.2148 L236.598,34.1953 C236.598,34.4922 236.653,34.7487 236.764,34.9648 C236.874,35.181 237.031,35.3477 237.234,35.4648 C237.438,35.582 237.678,35.6406 237.957,35.6406 C238.142,35.6406 238.311,35.6146 238.465,35.5625 C238.618,35.5104 238.75,35.4323 238.859,35.3281 C238.969,35.224 239.052,35.0964 239.109,34.9453 L240.648,35.0469 C240.57,35.4167 240.411,35.7389 240.17,36.0137 C239.929,36.2884 239.619,36.502 239.24,36.6543 C238.861,36.8066 238.424,36.8828 237.93,36.8828 M241.758,36.7656 L241.758,30.7656 L243.371,30.7656 L243.371,31.8125 L243.434,31.8125 C243.543,31.4401 243.727,31.1582 243.984,30.9668 C244.242,30.7754 244.539,30.6797 244.875,30.6797 C244.958,30.6797 245.048,30.6849 245.145,30.6953 C245.241,30.7057 245.326,30.7201 245.398,30.7383 L245.398,32.2148 C245.32,32.1914 245.212,32.1706 245.074,32.1523 C244.936,32.1341 244.81,32.125 244.695,32.125 C244.451,32.125 244.232,32.1777 244.041,32.2832 C243.85,32.3887 243.699,32.5352 243.588,32.7227 C243.477,32.9102 243.422,33.1263 243.422,33.3711 L243.422,36.7656 L241.758,36.7656 M251,36.8633 C250.544,36.8633 250.132,36.7454 249.764,36.5098 C249.395,36.2741 249.104,35.9264 248.889,35.4668 C248.674,35.0072 248.566,34.4427 248.566,33.7734 C248.566,33.0859 248.677,32.5137 248.898,32.0566 C249.12,31.5996 249.415,31.2572 249.783,31.0293 C250.152,30.8014 250.556,30.6875 250.996,30.6875 C251.332,30.6875 251.613,30.7441 251.838,30.8574 C252.063,30.9707 252.245,31.1113 252.385,31.2793 C252.524,31.4473 252.63,31.612 252.703,31.7734 L252.754,31.7734 L252.754,28.7656 L254.414,28.7656 L254.414,36.7656 L252.773,36.7656 L252.773,35.8047 L252.703,35.8047 C252.625,35.9714 252.515,36.1361 252.373,36.2988 C252.231,36.4616 252.048,36.5964 251.822,36.7031 C251.597,36.8099 251.323,36.8633 251,36.8633 M251.527,35.5391 C251.796,35.5391 252.023,35.4655 252.209,35.3184 C252.395,35.1712 252.538,34.9648 252.639,34.6992 C252.739,34.4336 252.789,34.1224 252.789,33.7656 C252.789,33.4089 252.74,33.099 252.641,32.8359 C252.542,32.5729 252.398,32.3698 252.211,32.2266 C252.023,32.0833 251.796,32.0117 251.527,32.0117 C251.254,32.0117 251.023,32.0859 250.836,32.2344 C250.648,32.3828 250.507,32.5885 250.41,32.8516 C250.314,33.1146 250.266,33.4193 250.266,33.7656 C250.266,34.1146 250.314,34.4225 250.412,34.6895 C250.51,34.9564 250.652,35.1647 250.838,35.3145 C251.024,35.4642 251.254,35.5391 251.527,35.5391 M257.484,36.8789 C257.102,36.8789 256.76,36.8118 256.461,36.6777 C256.161,36.5436 255.925,36.3444 255.752,36.0801 C255.579,35.8158 255.492,35.4857 255.492,35.0898 C255.492,34.7565 255.553,34.4766 255.676,34.25 C255.798,34.0234 255.965,33.8411 256.176,33.7031 C256.387,33.5651 256.627,33.4609 256.896,33.3906 C257.166,33.3203 257.449,33.2708 257.746,33.2422 C258.095,33.2057 258.376,33.1712 258.59,33.1387 C258.803,33.1061 258.958,33.0573 259.055,32.9922 C259.151,32.9271 259.199,32.8307 259.199,32.7031 L259.199,32.6797 C259.199,32.4323 259.122,32.2409 258.967,32.1055 C258.812,31.9701 258.592,31.9023 258.309,31.9023 C258.009,31.9023 257.771,31.9681 257.594,32.0996 C257.417,32.2311 257.299,32.3958 257.242,32.5938 L255.703,32.4688 C255.781,32.1042 255.935,31.7884 256.164,31.5215 C256.393,31.2546 256.689,31.0488 257.053,30.9043 C257.416,30.7598 257.837,30.6875 258.316,30.6875 C258.65,30.6875 258.969,30.7266 259.275,30.8047 C259.581,30.8828 259.854,31.0039 260.092,31.168 C260.33,31.332 260.518,31.5423 260.656,31.7988 C260.794,32.0553 260.863,32.362 260.863,32.7188 L260.863,36.7656 L259.285,36.7656 L259.285,35.9336 L259.238,35.9336 C259.142,36.1211 259.013,36.2858 258.852,36.4277 C258.69,36.5697 258.496,36.6803 258.27,36.7598 C258.043,36.8392 257.781,36.8789 257.484,36.8789 M257.961,35.7305 C258.206,35.7305 258.422,35.6816 258.609,35.584 C258.797,35.4863 258.944,35.3542 259.051,35.1875 C259.158,35.0208 259.211,34.832 259.211,34.6211 L259.211,33.9844 C259.159,34.0182 259.088,34.0488 258.998,34.0762 C258.908,34.1035 258.807,34.1283 258.695,34.1504 C258.583,34.1725 258.471,34.1921 258.359,34.209 C258.247,34.2259 258.146,34.2409 258.055,34.2539 C257.859,34.2826 257.689,34.3281 257.543,34.3906 C257.397,34.4531 257.284,34.5371 257.203,34.6426 C257.122,34.748 257.082,34.8789 257.082,35.0352 C257.082,35.2617 257.165,35.4342 257.33,35.5527 C257.495,35.6712 257.706,35.7305 257.961,35.7305 M265.34,30.7656 L265.34,32.0156 L261.727,32.0156 L261.727,30.7656 L265.34,30.7656 M262.547,29.3281 L264.211,29.3281 L264.211,34.9219 C264.211,35.0755 264.234,35.1947 264.281,35.2793 C264.328,35.3639 264.394,35.4232 264.479,35.457 C264.563,35.4909 264.661,35.5078 264.773,35.5078 C264.852,35.5078 264.93,35.5007 265.008,35.4863 C265.086,35.472 265.146,35.4609 265.188,35.4531 L265.449,36.6914 C265.366,36.7174 265.249,36.748 265.098,36.7832 C264.947,36.8184 264.763,36.8398 264.547,36.8477 C264.146,36.8633 263.795,36.8099 263.494,36.6875 C263.193,36.5651 262.96,36.375 262.793,36.1172 C262.626,35.8594 262.544,35.5339 262.547,35.1406 L262.547,29.3281 M268.125,36.8789 C267.742,36.8789 267.401,36.8118 267.102,36.6777 C266.802,36.5436 266.566,36.3444 266.393,36.0801 C266.219,35.8158 266.133,35.4857 266.133,35.0898 C266.133,34.7565 266.194,34.4766 266.316,34.25 C266.439,34.0234 266.605,33.8411 266.816,33.7031 C267.027,33.5651 267.268,33.4609 267.537,33.3906 C267.807,33.3203 268.09,33.2708 268.387,33.2422 C268.736,33.2057 269.017,33.1712 269.23,33.1387 C269.444,33.1061 269.599,33.0573 269.695,32.9922 C269.792,32.9271 269.84,32.8307 269.84,32.7031 L269.84,32.6797 C269.84,32.4323 269.762,32.2409 269.607,32.1055 C269.452,31.9701 269.233,31.9023 268.949,31.9023 C268.65,31.9023 268.411,31.9681 268.234,32.0996 C268.057,32.2311 267.94,32.3958 267.883,32.5938 L266.344,32.4688 C266.422,32.1042 266.576,31.7884 266.805,31.5215 C267.034,31.2546 267.33,31.0488 267.693,30.9043 C268.057,30.7598 268.478,30.6875 268.957,30.6875 C269.29,30.6875 269.61,30.7266 269.916,30.8047 C270.222,30.8828 270.494,31.0039 270.732,31.168 C270.971,31.332 271.159,31.5423 271.297,31.7988 C271.435,32.0553 271.504,32.362 271.504,32.7188 L271.504,36.7656 L269.926,36.7656 L269.926,35.9336 L269.879,35.9336 C269.783,36.1211 269.654,36.2858 269.492,36.4277 C269.331,36.5697 269.137,36.6803 268.91,36.7598 C268.684,36.8392 268.422,36.8789 268.125,36.8789 M268.602,35.7305 C268.846,35.7305 269.063,35.6816 269.25,35.584 C269.438,35.4863 269.585,35.3542 269.691,35.1875 C269.798,35.0208 269.852,34.832 269.852,34.6211 L269.852,33.9844 C269.799,34.0182 269.729,34.0488 269.639,34.0762 C269.549,34.1035 269.448,34.1283 269.336,34.1504 C269.224,34.1725 269.112,34.1921 269,34.209 C268.888,34.2259 268.786,34.2409 268.695,34.2539 C268.5,34.2826 268.329,34.3281 268.184,34.3906 C268.038,34.4531 267.924,34.5371 267.844,34.6426 C267.763,34.748 267.723,34.8789 267.723,35.0352 C267.723,35.2617 267.805,35.4342 267.971,35.5527 C268.136,35.6712 268.346,35.7305 268.602,35.7305 M278.047,36.8828 C277.432,36.8828 276.904,36.752 276.463,36.4902 C276.021,36.2285 275.683,35.8646 275.447,35.3984 C275.212,34.9323 275.094,34.3958 275.094,33.7891 C275.094,33.1745 275.213,32.6348 275.451,32.1699 C275.689,31.7051 276.029,31.3418 276.469,31.0801 C276.909,30.8184 277.432,30.6875 278.039,30.6875 C278.563,30.6875 279.021,30.7826 279.414,30.9727 C279.807,31.1628 280.118,31.4297 280.348,31.7734 C280.577,32.1172 280.703,32.5208 280.727,32.9844 L279.156,32.9844 C279.112,32.6849 278.995,32.4434 278.807,32.2598 C278.618,32.0762 278.371,31.9844 278.066,31.9844 C277.809,31.9844 277.584,32.054 277.393,32.1934 C277.201,32.3327 277.052,32.5352 276.945,32.8008 C276.839,33.0664 276.785,33.388 276.785,33.7656 C276.785,34.1484 276.838,34.474 276.943,34.7422 C277.049,35.0104 277.198,35.2148 277.391,35.3555 C277.583,35.4961 277.809,35.5664 278.066,35.5664 C278.257,35.5664 278.428,35.5273 278.58,35.4492 C278.732,35.3711 278.859,35.2572 278.959,35.1074 C279.059,34.9577 279.125,34.7773 279.156,34.5664 L280.727,34.5664 C280.701,35.0247 280.576,35.4277 280.354,35.7754 C280.131,36.123 279.824,36.3945 279.434,36.5898 C279.043,36.7852 278.581,36.8828 278.047,36.8828 M283.453,33.2969 L283.453,36.7656 L281.789,36.7656 L281.789,28.7656 L283.406,28.7656 L283.406,31.8242 L283.477,31.8242 C283.612,31.4701 283.831,31.1921 284.133,30.9902 C284.435,30.7884 284.814,30.6875 285.27,30.6875 C285.686,30.6875 286.05,30.778 286.361,30.959 C286.673,31.14 286.915,31.3991 287.088,31.7363 C287.261,32.0736 287.346,32.4766 287.344,32.9453 L287.344,36.7656 L285.68,36.7656 L285.68,33.2422 C285.682,32.8724 285.589,32.5846 285.4,32.3789 C285.212,32.1732 284.948,32.0703 284.609,32.0703 C284.383,32.0703 284.183,32.1185 284.01,32.2148 C283.837,32.3112 283.701,32.4512 283.604,32.6348 C283.506,32.8184 283.456,33.0391 283.453,33.2969 M290.359,36.8789 C289.977,36.8789 289.635,36.8118 289.336,36.6777 C289.036,36.5436 288.8,36.3444 288.627,36.0801 C288.454,35.8158 288.367,35.4857 288.367,35.0898 C288.367,34.7565 288.428,34.4766 288.551,34.25 C288.673,34.0234 288.84,33.8411 289.051,33.7031 C289.262,33.5651 289.502,33.4609 289.771,33.3906 C290.041,33.3203 290.324,33.2708 290.621,33.2422 C290.97,33.2057 291.251,33.1712 291.465,33.1387 C291.678,33.1061 291.833,33.0573 291.93,32.9922 C292.026,32.9271 292.074,32.8307 292.074,32.7031 L292.074,32.6797 C292.074,32.4323 291.997,32.2409 291.842,32.1055 C291.687,31.9701 291.467,31.9023 291.184,31.9023 C290.884,31.9023 290.646,31.9681 290.469,32.0996 C290.292,32.2311 290.174,32.3958 290.117,32.5938 L288.578,32.4688 C288.656,32.1042 288.81,31.7884 289.039,31.5215 C289.268,31.2546 289.564,31.0488 289.928,30.9043 C290.291,30.7598 290.712,30.6875 291.191,30.6875 C291.525,30.6875 291.844,30.7266 292.15,30.8047 C292.456,30.8828 292.729,31.0039 292.967,31.168 C293.205,31.332 293.393,31.5423 293.531,31.7988 C293.669,32.0553 293.738,32.362 293.738,32.7188 L293.738,36.7656 L292.16,36.7656 L292.16,35.9336 L292.113,35.9336 C292.017,36.1211 291.888,36.2858 291.727,36.4277 C291.565,36.5697 291.371,36.6803 291.145,36.7598 C290.918,36.8392 290.656,36.8789 290.359,36.8789 M290.836,35.7305 C291.081,35.7305 291.297,35.6816 291.484,35.584 C291.672,35.4863 291.819,35.3542 291.926,35.1875 C292.033,35.0208 292.086,34.832 292.086,34.6211 L292.086,33.9844 C292.034,34.0182 291.963,34.0488 291.873,34.0762 C291.783,34.1035 291.682,34.1283 291.57,34.1504 C291.458,34.1725 291.346,34.1921 291.234,34.209 C291.122,34.2259 291.021,34.2409 290.93,34.2539 C290.734,34.2826 290.564,34.3281 290.418,34.3906 C290.272,34.4531 290.159,34.5371 290.078,34.6426 C289.997,34.748 289.957,34.8789 289.957,35.0352 C289.957,35.2617 290.04,35.4342 290.205,35.5527 C290.37,35.6712 290.581,35.7305 290.836,35.7305 M296.688,33.2969 L296.688,36.7656 L295.023,36.7656 L295.023,30.7656 L296.609,30.7656 L296.609,31.8242 L296.68,31.8242 C296.813,31.4753 297.035,31.1986 297.348,30.9941 C297.66,30.7897 298.039,30.6875 298.484,30.6875 C298.901,30.6875 299.264,30.7786 299.574,30.9609 C299.884,31.1432 300.125,31.403 300.297,31.7402 C300.469,32.0775 300.555,32.4792 300.555,32.9453 L300.555,36.7656 L298.891,36.7656 L298.891,33.2422 C298.893,32.875 298.799,32.5879 298.609,32.3809 C298.419,32.1738 298.158,32.0703 297.824,32.0703 C297.6,32.0703 297.403,32.1185 297.232,32.2148 C297.062,32.3112 296.929,32.4512 296.834,32.6348 C296.739,32.8184 296.69,33.0391 296.688,33.2969 M304.555,39.1406 C304.016,39.1406 303.554,39.0671 303.17,38.9199 C302.786,38.7728 302.48,38.5729 302.254,38.3203 C302.027,38.0677 301.88,37.7839 301.813,37.4688 L303.352,37.2617 C303.398,37.3815 303.473,37.4935 303.574,37.5977 C303.676,37.7018 303.811,37.7858 303.979,37.8496 C304.146,37.9134 304.352,37.9453 304.594,37.9453 C304.956,37.9453 305.255,37.8574 305.49,37.6816 C305.726,37.5059 305.844,37.2122 305.844,36.8008 L305.844,35.7031 L305.773,35.7031 C305.701,35.8698 305.591,36.0273 305.445,36.1758 C305.299,36.3242 305.112,36.4453 304.883,36.5391 C304.654,36.6328 304.38,36.6797 304.063,36.6797 C303.612,36.6797 303.202,36.5749 302.834,36.3652 C302.465,36.1556 302.173,35.834 301.955,35.4004 C301.738,34.9668 301.629,34.418 301.629,33.7539 C301.629,33.0742 301.74,32.5065 301.961,32.0508 C302.182,31.5951 302.477,31.2539 302.846,31.0273 C303.214,30.8008 303.618,30.6875 304.059,30.6875 C304.395,30.6875 304.676,30.7441 304.902,30.8574 C305.129,30.9707 305.312,31.1113 305.451,31.2793 C305.59,31.4473 305.698,31.612 305.773,31.7734 L305.836,31.7734 L305.836,30.7656 L307.488,30.7656 L307.488,36.8242 C307.488,37.3346 307.363,37.7617 307.113,38.1055 C306.863,38.4492 306.518,38.7077 306.076,38.8809 C305.635,39.054 305.128,39.1406 304.555,39.1406 M304.59,35.4297 C304.858,35.4297 305.085,35.3626 305.271,35.2285 C305.458,35.0944 305.601,34.9017 305.701,34.6504 C305.801,34.3991 305.852,34.0977 305.852,33.7461 C305.852,33.3945 305.802,33.0892 305.703,32.8301 C305.604,32.571 305.461,32.3698 305.273,32.2266 C305.086,32.0833 304.858,32.0117 304.59,32.0117 C304.316,32.0117 304.086,32.0853 303.898,32.2324 C303.711,32.3796 303.569,32.5833 303.473,32.8438 C303.376,33.1042 303.328,33.4049 303.328,33.7461 C303.328,34.0924 303.377,34.3913 303.475,34.6426 C303.572,34.8939 303.714,35.0879 303.9,35.2246 C304.087,35.3613 304.316,35.4297 304.59,35.4297 M311.539,36.8828 C310.922,36.8828 310.391,36.7572 309.947,36.5059 C309.503,36.2546 309.161,35.8978 308.922,35.4355 C308.682,34.9733 308.563,34.4258 308.563,33.793 C308.563,33.1758 308.682,32.6341 308.922,32.168 C309.161,31.7018 309.499,31.3385 309.936,31.0781 C310.372,30.8177 310.884,30.6875 311.473,30.6875 C311.868,30.6875 312.238,30.7507 312.58,30.877 C312.923,31.0033 313.222,31.1927 313.479,31.4453 C313.735,31.6979 313.935,32.015 314.078,32.3965 C314.221,32.778 314.293,33.224 314.293,33.7344 L314.293,34.1914 L309.227,34.1914 L309.227,33.1602 L312.727,33.1602 C312.727,32.9206 312.674,32.7083 312.57,32.5234 C312.466,32.3385 312.322,32.1934 312.139,32.0879 C311.955,31.9824 311.742,31.9297 311.5,31.9297 C311.247,31.9297 311.024,31.9876 310.83,32.1035 C310.636,32.2194 310.484,32.3743 310.375,32.5684 C310.266,32.7624 310.21,32.9779 310.207,33.2148 L310.207,34.1953 C310.207,34.4922 310.262,34.7487 310.373,34.9648 C310.484,35.181 310.641,35.3477 310.844,35.4648 C311.047,35.582 311.288,35.6406 311.566,35.6406 C311.751,35.6406 311.921,35.6146 312.074,35.5625 C312.228,35.5104 312.359,35.4323 312.469,35.3281 C312.578,35.224 312.661,35.0964 312.719,34.9453 L314.258,35.0469 C314.18,35.4167 314.02,35.7389 313.779,36.0137 C313.538,36.2884 313.229,36.502 312.85,36.6543 C312.471,36.8066 312.034,36.8828 311.539,36.8828 M317.578,36.8633 C317.122,36.8633 316.71,36.7454 316.342,36.5098 C315.973,36.2741 315.682,35.9264 315.467,35.4668 C315.252,35.0072 315.145,34.4427 315.145,33.7734 C315.145,33.0859 315.255,32.5137 315.477,32.0566 C315.698,31.5996 315.993,31.2572 316.361,31.0293 C316.73,30.8014 317.134,30.6875 317.574,30.6875 C317.91,30.6875 318.191,30.7441 318.416,30.8574 C318.641,30.9707 318.824,31.1113 318.963,31.2793 C319.102,31.4473 319.208,31.612 319.281,31.7734 L319.332,31.7734 L319.332,28.7656 L320.992,28.7656 L320.992,36.7656 L319.352,36.7656 L319.352,35.8047 L319.281,35.8047 C319.203,35.9714 319.093,36.1361 318.951,36.2988 C318.809,36.4616 318.626,36.5964 318.4,36.7031 C318.175,36.8099 317.901,36.8633 317.578,36.8633 M318.105,35.5391 C318.374,35.5391 318.601,35.4655 318.787,35.3184 C318.973,35.1712 319.117,34.9648 319.217,34.6992 C319.317,34.4336 319.367,34.1224 319.367,33.7656 C319.367,33.4089 319.318,33.099 319.219,32.8359 C319.12,32.5729 318.977,32.3698 318.789,32.2266 C318.602,32.0833 318.374,32.0117 318.105,32.0117 C317.832,32.0117 317.602,32.0859 317.414,32.2344 C317.227,32.3828 317.085,32.5885 316.988,32.8516 C316.892,33.1146 316.844,33.4193 316.844,33.7656 C316.844,34.1146 316.893,34.4225 316.99,34.6895 C317.088,34.9564 317.23,35.1647 317.416,35.3145 C317.602,35.4642 317.832,35.5391 318.105,35.5391 "/>
</g>

<g fill="#ffffff" fill-opacity="1" stroke="none" transform="matrix(0.228,0,0,0.228,11.6,25.6)"
font-family="Inter" font-size="11" font-weight="700" font-style="normal" 
>
<path vector-effect="none" fill-rule="nonzero" d="M23.3682,15.995 C21.89,15.995 20.7001,17.185 20.7001,18.6631 L20.7001,81.3343 C20.7001,82.8125 21.89,84.0024 23.3682,84.0024 L76.6077,84.0024 C78.0859,84.0024 79.2758,82.8125 79.2758,81.3343 L79.2758,18.6631 C79.2758,17.185 78.0859,15.995 76.6077,15.995 L50.8905,15.995 C51.6703,16.0444 52.2838,16.6869 52.2838,17.4796 L52.2838,26.9112 C52.2838,27.7362 51.6196,28.4004 50.7946,28.4004 L49.3054,28.4004 C48.4804,28.4004 47.8161,27.7362 47.8161,26.9112 L47.8161,17.4796 C47.8161,16.6869 48.4298,16.0443 49.2096,15.995 L23.3682,15.995 M46.7613,35.2087 L53.2146,35.2087 C53.9021,35.2087 54.4556,35.7622 54.4556,36.4497 L54.4556,42.903 C54.4556,43.5906 53.9021,44.1439 53.2146,44.1439 L46.7613,44.1439 C46.0738,44.1439 45.5202,43.5906 45.5202,42.903 L45.5202,36.4497 C45.5202,35.7622 46.0738,35.2087 46.7613,35.2087 "/>
</g>

<g fill="none" stroke="#000000" stroke-opacity="1" stroke-width="2.43854" stroke-linecap="butt" stroke-linejoin="miter" stroke-miterlimit="4" transform="matrix(0.228,0,0,0.228,11.6,25.6)"
font-family="Inter" font-size="11" font-weight="700" font-style="normal" 
>
<path vector-effect="none" fill-rule="nonzero" d="M23.3682,15.995 C21.89,15.995 20.7001,17.185 20.7001,18.6631 L20.7001,81.3343 C20.7001,82.8125 21.89,84.0024 23.3682,84.0024 L76.6077,84.0024 C78.0859,84.0024 79.2758,82.8125 79.2758,81.3343 L79.2758,18.6631 C79.2758,17.185 78.0859,15.995 76.6077,15.995 L50.8905,15.995 C51.6703,16.0444 52.2838,16.6869 52.2838,17.4796 L52.2838,26.9112 C52.2838,27.7362 51.6196,28.4004 50.7946,28.4004 L49.3054,28.4004 C48.4804,28.4004 47.8161,27.7362 47.8161,26.9112 L47.8161,17.4796 C47.8161,16.6869 48.4298,16.0443 49.2096,15.995 L23.3682,15.995 M46.7613,35.2087 L53.2146,35.2087 C53.9021,35.2087 54.4556,35.7622 54.4556,36.4497 L54.4556,42.903 C54.4556,43.5906 53.9021,44.1439 53.2146,44.1439 L46.7613,44.1439 C46.0738,44.1439 45.5202,43.5906 45.5202,42.903 L45.5202,36.4497 C45.5202,35.7622 46.0738,35.2087 46.7613,35.2087 "/>
</g>

<g fill="#000000" fill-opacity="1" stroke="none" transform="matrix(0.228,0,0,0.228,11.6,25.6)"
font-family="Inter" font-size="11" font-weight="700" font-style="normal" 
>
<path vector-effect="none" fill-rule="evenodd" d="M14.2421,17.9523 C14.2421,17.1298 14.9088,16.4631 15.7313,16.4631 L18.7097,16.4631 C19.5322,16.4631 20.1989,17.1298 20.1989,17.9523 L20.1989,33.8372 C20.1989,34.6597 19.5322,35.3264 18.7097,35.3264 L15.7313,35.3264 C14.9088,35.3264 14.2421,34.6597 14.2421,33.8372 L14.2421,17.9523"/>
</g>

<g fill="none" stroke="#000000" stroke-opacity="1" stroke-width="2.43854" stroke-linecap="butt" stroke-linejoin="miter" stroke-miterlimit="4" transform="matrix(0.228,0,0,0.228,11.6,25.6)"
font-family="Inter" font-size="11" font-weight="700" font-style="normal" 
>
<path vector-effect="none" fill-rule="evenodd" d="M14.2421,17.9523 C14.2421,17.1298 14.9088,16.4631 15.7313,16.4631 L18.7097,16.4631 C19.5322,16.4631 20.1989,17.1298 20.1989,17.9523 L20.1989,33.8372 C20.1989,34.6597 19.5322,35.3264 18.7097,35.3264 L15.7313,35.3264 C14.9088,35.3264 14.2421,34.6597 14.2421,33.8372 L14.2421,17.9523"/>
</g>

<g fill="#000000" fill-opacity="1" stroke="none" transform="matrix(0.228,0,0,0.228,11.6,25.6)"
font-family="Inter" font-size="11" font-weight="700" font-style="normal" 
>
<path vector-effect="none" fill-rule="evenodd" d="M79.3249,17.4662 C79.3249,16.6438 79.9916,15.977 80.8141,15.977 L83.7925,15.977 C84.615,15.977 85.2817,16.6438 85.2817,17.4662 L85.2817,33.3512 C85.2817,34.1736 84.615,34.8404 83.7925,34.8404 L80.8141,34.8404 C79.9916,34.8404 79.3249,34.1736 79.3249,33.3512 L79.3249,17.4662"/>
</g>

<g fill="none" stroke="#000000" stroke-opacity="1" stroke-width="2.43854" stroke-linecap="butt" stroke-linejoin="miter" stroke-miterlimit="4" transform="matrix(0.228,0,0,0.228,11.6,25.6)"
font-family="Inter" font-size="11" font-weight="700" font-style="normal" 
>
<path vector-effect="none" fill-rule="evenodd" d="M79.3249,17.4662 C79.3249,16.6438 79.9916,15.977 80.8141,15.977 L83.7925,15.977 C84.615,15.977 85.2817,16.6438 85.2817,17.4662 L85.2817,33.3512 C85.2817,34.1736 84.615,34.8404 83.7925,34.8404 L80.8141,34.8404 C79.9916,34.8404 79.3249,34.1736 79.3249,33.3512 L79.3249,17.4662"/>
</g>

<g fill="#000000" fill-opacity="1" stroke="none" transform="matrix(0.228,0,0,0.228,11.6,25.6)"
font-family="Inter" font-size="11" font-weight="700" font-style="normal" 
>
<path vector-effect="none" fill-rule="evenodd" d="M79.5633,66.576 C79.5633,65.7535 80.23,65.0868 81.0525,65.0868 L84.0309,65.0868 C84.8534,65.0868 85.5201,65.7535 85.5201,66.576 L85.5201,82.4609 C85.5201,83.2834 84.8534,83.9501 84.0309,83.9501 L81.0525,83.9501 C80.23,83.9501 79.5633,83.2834 79.5633,82.4609 L79.5633,66.576"/>
</g>

<g fill="none" stroke="#000000" stroke-opacity="1" stroke-width="2.43854" stroke-linecap="butt" stroke-linejoin="miter" stroke-miterlimit="4" transform="matrix(0.228,0,0,0.228,11.6,25.6)"
font-family="Inter" font-size="11" font-weight="700" font-style="normal" 
>
<path vector-effect="none" fill-rule="evenodd" d="M79.5633,66.576 C79.5633,65.7535 80.23,65.0868 81.0525,65.0868 L84.0309,65.0868 C84.8534,65.0868 85.5201,65.7535 85.5201,66.576 L85.5201,82.4609 C85.5201,83.2834 84.8534,83.9501 84.0309,83.9501 L81.0525,83.9501 C80.23,83.9501 79.5633,83.2834 79.5633,82.4609 L79.5633,66.576"/>
</g>

<g fill="#000000" fill-opacity="1" stroke="none" transform="matrix(0.228,0,0,0.228,11.6,25.6)"
font-family="Inter" font-size="11" font-weight="700" font-style="normal" 
>
<path vector-effect="none" fill-rule="evenodd" d="M14.6928,66.6283 C14.6928,65.8058 15.3595,65.1391 16.182,65.1391 L19.1604,65.1391 C19.9829,65.1391 20.6496,65.8058 20.6496,66.6283 L20.6496,82.5132 C20.6496,83.3357 19.9829,84.0024 19.1604,84.0024 L16.182,84.0024 C15.3595,84.0024 14.6928,83.3357 14.6928,82.5132 L14.6928,66.6283"/>
</g>

<g fill="none" stroke="#000000" stroke-opacity="1" stroke-width="2.43854" stroke-linecap="butt" stroke-linejoin="miter" stroke-miterlimit="4" transform="matrix(0.228,0,0,0.228,11.6,25.6)"
font-family="Inter" font-size="11" font-weight="700" font-style="normal" 
>
<path vector-effect="none" fill-rule="evenodd" d="M14.6928,66.6283 C14.6928,65.8058 15.3595,65.1391 16.182,65.1391 L19.1604,65.1391 C19.9829,65.1391 20.6496,65.8058 20.6496,66.6283 L20.6496,82.5132 C20.6496,83.3357 19.9829,84.0024 19.1604,84.0024 L16.182,84.0024 C15.3595,84.0024 14.6928,83.3357 14.6928,82.5132 L14.6928,66.6283"/>
</g>

<g fill="none" stroke="#000000" stroke-opacity="1" stroke-width="2.43854" stroke-linecap="butt" stroke-linejoin="miter" stroke-miterlimit="4" transform="matrix(0.228,0,0,0.228,11.6,25.6)"
font-family="Inter" font-size="11" font-weight="700" font-style="normal" 
>
<path vector-effect="none" fill-rule="evenodd" d="M20.92,17.503 C20.92,16.6806 21.5867,16.0138 22.4092,16.0138 L27.125,16.0138 C27.9475,16.0138 28.6142,16.6806 28.6142,17.503 L28.6142,55.9743 C28.6142,56.7968 27.9475,57.4635 27.125,57.4635 L22.4092,57.4635 C21.5867,57.4635 20.92,56.7968 20.92,55.9743 L20.92,17.503"/>
</g>

<g fill="none" stroke="#000000" stroke-opacity="1" stroke-width="2.43854" stroke-linecap="butt" stroke-linejoin="miter" stroke-miterlimit="4" transform="matrix(0.228,0,0,0.228,11.6,25.6)"
font-family="Inter" font-size="11" font-weight="700" font-style="normal" 
>
<path vector-effect="none" fill-rule="evenodd" d="M71.4269,17.6638 C71.4269,16.8414 72.0937,16.1746 72.9162,16.1746 L77.632,16.1746 C78.4545,16.1746 79.1212,16.8414 79.1212,17.6638 L79.1212,56.1351 C79.1212,56.9576 78.4545,57.6243 77.632,57.6243 L72.9162,57.6243 C72.0937,57.6243 71.4269,56.9576 71.4269,56.1351 L71.4269,17.6638"/>
</g>

<g fill="#ffffff" fill-opacity="1" stroke="none" transform="matrix(0.228,0,0,0.228,11.6,25.6)"
font-family="Inter" font-size="11" font-weight="700" font-style="normal" 
>
<path vector-effect="none" fill-rule="evenodd" d="M41.9526,15.9757 C41.9526,15.9593 41.9659,15.9461 41.9822,15.9461 L57.922,15.9461 C57.9384,15.9461 57.9516,15.9593 57.9516,15.9757 C57.9516,15.992 57.9384,16.0053 57.922,16.0053 L41.9822,16.0053 C41.9659,16.0053 41.9526,15.992 41.9526,15.9757 "/>
</g>

<g fill="none" stroke="#000000" stroke-opacity="1" stroke-width="2.3865" stroke-linecap="butt" stroke-linejoin="miter" stroke-miterlimit="4" transform="matrix(0.228,0,0,0.228,11.6,25.6)"
font-family="Inter" font-size="11" font-weight="700" font-style="normal" 
>
<path vector-effect="none" fill-rule="evenodd" d="M41.9526,15.9757 C41.9526,15.9593 41.9659,15.9461 41.9822,15.9461 L57.922,15.9461 C57.9384,15.9461 57.9516,15.9593 57.9516,15.9757 C57.9516,15.992 57.9384,16.0053 57.922,16.0053 L41.9822,16.0053 C41.9659,16.0053 41.9526,15.992 41.9526,15.9757 "/>
</g>

<g fill="#ffffff" fill-opacity="1" stroke="none" transform="matrix(1,0,0,1,0,0)"
font-family="Inter" font-size="11" font-weight="700" font-style="normal" 
>
</g>

<g fill="#ffffff" fill-opacity="1" stroke="#ba9500" stroke-opacity="1" stroke-width="1" stroke-linecap="square" stroke-linejoin="bevel" transform="matrix(1,0,0,1,0,0)"
font-family="Inter" font-size="11" font-weight="700" font-style="normal" 
>
<polyline fill="none" vector-effect="none" points="45,27 45,47 " />
</g>

<g fill="#ffffff" fill-opacity="1" stroke="#ba9500" stroke-opacity="1" stroke-width="1" stroke-linecap="square" stroke-linejoin="bevel" transform="matrix(1,0,0,1,0,0)"
font-family="Inter" font-size="11" font-weight="700" font-style="normal" 
>
</g>

<g fill="#f5c400" fill-opacity="1" stroke="#ba9500" stroke-opacity="1" stroke-width="1.2" stroke-linecap="square" stroke-linejoin="bevel" transform="matrix(1,0,0,1,87,22)"
font-family="Inter" font-size="11" font-weight="700" font-style="normal" 
>
<path vector-effect="none" fill-rule="evenodd" d="M0.5,3.5 C0.5,1.84315 1.84315,0.5 3.5,0.5 L71.5,0.5 C73.1569,0.5 74.5,1.84315 74.5,3.5 L74.5,20.5 C74.5,22.1569 73.1569,23.5 71.5,23.5 L3.5,23.5 C1.84315,23.5 0.5,22.1569 0.5,20.5 L0.5,3.5"/>
</g>

<g fill="#ffffff" fill-opacity="1" stroke="none" transform="matrix(1,0,0,1,87,22)"
font-family="Inter" font-size="11" font-weight="700" font-style="normal" 
>
<path vector-effect="none" fill-rule="nonzero" d="M10,9.39453 L10,8 L16.5703,8 L16.5703,9.39453 L14.1211,9.39453 L14.1211,16 L12.4492,16 L12.4492,9.39453 L10,9.39453 M17.6484,16 L17.6484,8 L19.3398,8 L19.3398,11.3008 L22.7734,11.3008 L22.7734,8 L24.4609,8 L24.4609,16 L22.7734,16 L22.7734,12.6953 L19.3398,12.6953 L19.3398,16 L17.6484,16 M32.543,8 L32.543,16 L31.082,16 L27.6016,10.9648 L27.543,10.9648 L27.543,16 L25.8516,16 L25.8516,8 L27.3359,8 L30.7891,13.0313 L30.8594,13.0313 L30.8594,8 L32.543,8 M33.9297,16 L33.9297,8 L35.6211,8 L35.6211,11.3008 L39.0547,11.3008 L39.0547,8 L40.7422,8 L40.7422,16 L39.0547,16 L39.0547,12.6953 L35.6211,12.6953 L35.6211,16 L33.9297,16 M42.1328,16 L42.1328,8 L45.3359,8 C45.9245,8 46.4154,8.08724 46.8086,8.26172 C47.2018,8.4362 47.4974,8.67773 47.6953,8.98633 C47.8932,9.29492 47.9922,9.64974 47.9922,10.0508 C47.9922,10.3633 47.9297,10.6374 47.8047,10.873 C47.6797,11.1087 47.5085,11.3014 47.291,11.4512 C47.0736,11.6009 46.8255,11.707 46.5469,11.7695 L46.5469,11.8477 C46.8516,11.8607 47.1374,11.9466 47.4043,12.1055 C47.6712,12.2643 47.888,12.4863 48.0547,12.7715 C48.2214,13.0566 48.3047,13.3958 48.3047,13.7891 C48.3047,14.2135 48.1999,14.5918 47.9902,14.9238 C47.7806,15.2559 47.4714,15.5182 47.0625,15.7109 C46.6536,15.9036 46.1497,16 45.5508,16 L42.1328,16 M43.8242,14.6172 L45.2031,14.6172 C45.6745,14.6172 46.0182,14.5267 46.2344,14.3457 C46.4505,14.1647 46.5586,13.9232 46.5586,13.6211 C46.5586,13.3997 46.5052,13.2044 46.3984,13.0352 C46.2917,12.8659 46.14,12.7331 45.9434,12.6367 C45.7467,12.5404 45.513,12.4922 45.2422,12.4922 L43.8242,12.4922 L43.8242,14.6172 M43.8242,11.3477 L45.0781,11.3477 C45.3099,11.3477 45.5163,11.3066 45.6973,11.2246 C45.8783,11.1426 46.0215,11.026 46.127,10.875 C46.2324,10.724 46.2852,10.543 46.2852,10.332 C46.2852,10.043 46.1829,9.8099 45.9785,9.63281 C45.7741,9.45573 45.4844,9.36719 45.1094,9.36719 L43.8242,9.36719 L43.8242,11.3477 M52.832,8 L52.832,16 L51.1406,16 L51.1406,9.60547 L51.0938,9.60547 L49.2617,10.7539 L49.2617,9.25391 L51.2422,8 L52.832,8"/>
</g>

<g fill="#ffffff" fill-opacity="1" stroke="none" transform="matrix(0.03125,0,0,0.03125,148,30)"
font-family="Inter" font-size="11" font-weight="700" font-style="normal" 
>
<path vector-effect="none" fill-rule="nonzero" d="M111.326,191.938 C120.545,201.158 135.517,201.158 144.737,191.938 L239.144,97.5313 C245.929,90.7458 247.921,80.6413 244.233,71.7907 C240.545,62.9401 231.989,57.1871 222.401,57.1871 L33.5875,57.2608 C24.0731,57.2608 15.4437,63.0137 11.7559,71.8644 C8.06815,80.715 10.1333,90.8195 16.845,97.605 L111.252,192.012 L111.326,191.938"/>
</g>

<g fill="none" stroke="#000000" stroke-opacity="1" stroke-width="13.7195" stroke-linecap="butt" stroke-linejoin="miter" stroke-miterlimit="4" transform="matrix(0.03125,0,0,0.03125,148,30)"
font-family="Inter" font-size="11" font-weight="700" font-style="normal" 
>
<path vector-effect="none" fill-rule="nonzero" d="M111.326,191.938 C120.545,201.158 135.517,201.158 144.737,191.938 L239.144,97.5313 C245.929,90.7458 247.921,80.6413 244.233,71.7907 C240.545,62.9401 231.989,57.1871 222.401,57.1871 L33.5875,57.2608 C24.0731,57.2608 15.4437,63.0137 11.7559,71.8644 C8.06815,80.715 10.1333,90.8195 16.845,97.605 L111.252,192.012 L111.326,191.938"/>
</g>

<g fill="#ffffff" fill-opacity="1" stroke="none" transform="matrix(1,0,0,1,87,22)"
font-family="Inter" font-size="11" font-weight="700" font-style="normal" 
>
</g>

<g fill="#ffffff" fill-opacity="1" stroke="#ba9500" stroke-opacity="1" stroke-width="1" stroke-linecap="square" stroke-linejoin="bevel" transform="matrix(1,0,0,1,0,0)"
font-family="Inter" font-size="11" font-weight="700" font-style="normal" 
>
</g>

<g fill="none" stroke="#000000" stroke-opacity="1" stroke-width="1" stroke-linecap="square" stroke-linejoin="bevel" transform="matrix(1,0,0,1,0,0)"
font-family=".AppleSystemUIFont" font-size="13" font-weight="400" font-style="normal" 
>
</g>
</g>
</svg>
