<?xml version="1.0" encoding="UTF-8" standalone="no"?>
<svg width="92.4278mm" height="15.5222mm"
 viewBox="0 0 262 44"
 xmlns="http://www.w3.org/2000/svg" xmlns:xlink="http://www.w3.org/1999/xlink" version="1.2" baseProfile="tiny">
<title>Abstract block</title>
<desc>block_hubs_technicmove_light_light_turn_to</desc>
<defs>
</defs>
<g fill="none" stroke="black" stroke-width="1" fill-rule="evenodd" stroke-linecap="square" stroke-linejoin="bevel" >

<g fill="none" stroke="#000000" stroke-opacity="1" stroke-width="1" stroke-linecap="square" stroke-linejoin="bevel" transform="matrix(1,0,0,1,0,0)"
font-family=".AppleSystemUIFont" font-size="13" font-weight="400" font-style="normal" 
>
</g>

<g fill="none" stroke="#000000" stroke-opacity="1" stroke-width="1" stroke-linecap="square" stroke-linejoin="bevel" transform="matrix(1,0,0,1,0,0)"
font-family=".AppleSystemUIFont" font-size="13" font-weight="400" font-style="normal" 
>
</g>

<g fill="#935df5" fill-opacity="1" stroke="#6c25f1" stroke-opacity="1" stroke-width="1.2" stroke-linecap="square" stroke-linejoin="bevel" transform="matrix(1,0,0,1,0,0)"
font-family=".AppleSystemUIFont" font-size="13" font-weight="400" font-style="normal" 
>
<path vector-effect="none" fill-rule="evenodd" d="M0.5,4.5 L1.04612,2.48112 L2.48112,1.04612 L4.5,0.5 L9.625,0.5 L10.416,0.976563 L11.1719,1.6875 L11.998,2.67969 L13,4 L13.7559,4.66016 L14.5469,5.15625 L15.4082,5.51172 L16.375,5.75 L17.4824,5.89453 L18.7656,5.96875 L20.2598,5.99609 L22,6 L23.7402,5.99609 L25.2344,5.96875 L26.5176,5.89453 L27.625,5.75 L28.5918,5.51172 L29.4531,5.15625 L30.2441,4.66016 L31,4 L32.002,2.67969 L32.8281,1.6875 L33.584,0.976563 L34.375,0.5 L257,0.5 L259.019,1.04612 L260.454,2.48112 L261,4.5 L261,31.5 L260.454,33.5189 L259.019,34.9539 L257,35.5 L34.375,35.5 L33.584,35.9766 L32.8281,36.6875 L32.002,37.6797 L31,39 L30.2441,39.6602 L29.4531,40.1563 L28.5918,40.5117 L27.625,40.75 L26.5176,40.8945 L25.2344,40.9688 L23.7402,40.9961 L22,41 L20.2598,40.9961 L18.7656,40.9688 L17.4824,40.8945 L16.375,40.75 L15.4082,40.5117 L14.5469,40.1563 L13.7559,39.6602 L13,39 L11.998,37.6797 L11.1719,36.6875 L10.416,35.9766 L9.625,35.5 L4.5,35.5 L2.48112,34.9539 L1.04612,33.5189 L0.5,31.5 L0.5,4.5"/>
</g>

<g fill="#ffffff" fill-opacity="1" stroke="none" transform="matrix(1,0,0,1,0,0)"
font-family="Inter" font-size="11" font-weight="700" font-style="normal" 
>
<path vector-effect="none" fill-rule="nonzero" d="M150.543,15 L150.543,16.25 L146.93,16.25 L146.93,15 L150.543,15 M147.75,13.5625 L149.414,13.5625 L149.414,19.1563 C149.414,19.3099 149.438,19.429 149.484,19.5137 C149.531,19.5983 149.597,19.6576 149.682,19.6914 C149.766,19.7253 149.865,19.7422 149.977,19.7422 C150.055,19.7422 150.133,19.735 150.211,19.7207 C150.289,19.7064 150.349,19.6953 150.391,19.6875 L150.652,20.9258 C150.569,20.9518 150.452,20.9824 150.301,21.0176 C150.15,21.0527 149.966,21.0742 149.75,21.082 C149.349,21.0977 148.998,21.0443 148.697,20.9219 C148.396,20.7995 148.163,20.6094 147.996,20.3516 C147.829,20.0938 147.747,19.7682 147.75,19.375 L147.75,13.5625 M155.465,18.4453 L155.465,15 L157.129,15 L157.129,21 L155.531,21 L155.531,19.9102 L155.469,19.9102 C155.333,20.2617 155.109,20.5443 154.795,20.7578 C154.481,20.9714 154.099,21.0781 153.648,21.0781 C153.247,21.0781 152.895,20.987 152.59,20.8047 C152.285,20.6224 152.048,20.3633 151.877,20.0273 C151.706,19.6914 151.62,19.2891 151.617,18.8203 L151.617,15 L153.281,15 L153.281,18.5234 C153.284,18.8776 153.379,19.1576 153.566,19.3633 C153.754,19.569 154.005,19.6719 154.32,19.6719 C154.521,19.6719 154.708,19.6257 154.883,19.5332 C155.057,19.4408 155.199,19.3034 155.307,19.1211 C155.415,18.9388 155.467,18.7135 155.465,18.4453 M158.445,21 L158.445,15 L160.059,15 L160.059,16.0469 L160.121,16.0469 C160.23,15.6745 160.414,15.3926 160.672,15.2012 C160.93,15.0098 161.227,14.9141 161.563,14.9141 C161.646,14.9141 161.736,14.9193 161.832,14.9297 C161.928,14.9401 162.013,14.9544 162.086,14.9727 L162.086,16.4492 C162.008,16.4258 161.9,16.4049 161.762,16.3867 C161.624,16.3685 161.497,16.3594 161.383,16.3594 C161.138,16.3594 160.92,16.4121 160.729,16.5176 C160.537,16.623 160.386,16.7695 160.275,16.957 C160.165,17.1445 160.109,17.3607 160.109,17.6055 L160.109,21 L158.445,21 M164.594,17.5313 L164.594,21 L162.93,21 L162.93,15 L164.516,15 L164.516,16.0586 L164.586,16.0586 C164.719,15.7096 164.941,15.4329 165.254,15.2285 C165.566,15.0241 165.945,14.9219 166.391,14.9219 C166.807,14.9219 167.171,15.013 167.48,15.1953 C167.79,15.3776 168.031,15.6374 168.203,15.9746 C168.375,16.3118 168.461,16.7135 168.461,17.1797 L168.461,21 L166.797,21 L166.797,17.4766 C166.799,17.1094 166.706,16.8223 166.516,16.6152 C166.326,16.4082 166.064,16.3047 165.73,16.3047 C165.507,16.3047 165.309,16.3529 165.139,16.4492 C164.968,16.5456 164.835,16.6855 164.74,16.8691 C164.645,17.0527 164.596,17.2734 164.594,17.5313 M173.969,13 L173.969,21 L172.305,21 L172.305,13 L173.969,13 M175.289,21 L175.289,15 L176.953,15 L176.953,21 L175.289,21 M176.125,14.2266 C175.878,14.2266 175.666,14.1439 175.49,13.9785 C175.314,13.8132 175.227,13.6146 175.227,13.3828 C175.227,13.1536 175.314,12.9564 175.49,12.791 C175.666,12.6257 175.878,12.543 176.125,12.543 C176.372,12.543 176.584,12.6257 176.76,12.791 C176.936,12.9564 177.023,13.1536 177.023,13.3828 C177.023,13.6146 176.936,13.8132 176.76,13.9785 C176.584,14.1439 176.372,14.2266 176.125,14.2266 M180.977,23.375 C180.438,23.375 179.976,23.3014 179.592,23.1543 C179.208,23.0072 178.902,22.8073 178.676,22.5547 C178.449,22.3021 178.302,22.0182 178.234,21.7031 L179.773,21.4961 C179.82,21.6159 179.895,21.7279 179.996,21.832 C180.098,21.9362 180.232,22.0202 180.4,22.084 C180.568,22.1478 180.773,22.1797 181.016,22.1797 C181.378,22.1797 181.676,22.0918 181.912,21.916 C182.148,21.7402 182.266,21.4466 182.266,21.0352 L182.266,19.9375 L182.195,19.9375 C182.122,20.1042 182.013,20.2617 181.867,20.4102 C181.721,20.5586 181.534,20.6797 181.305,20.7734 C181.076,20.8672 180.802,20.9141 180.484,20.9141 C180.034,20.9141 179.624,20.8092 179.256,20.5996 C178.887,20.39 178.594,20.0684 178.377,19.6348 C178.16,19.2012 178.051,18.6523 178.051,17.9883 C178.051,17.3086 178.161,16.7409 178.383,16.2852 C178.604,15.8294 178.899,15.4883 179.268,15.2617 C179.636,15.0352 180.04,14.9219 180.48,14.9219 C180.816,14.9219 181.098,14.9785 181.324,15.0918 C181.551,15.2051 181.734,15.3457 181.873,15.5137 C182.012,15.6816 182.12,15.8464 182.195,16.0078 L182.258,16.0078 L182.258,15 L183.91,15 L183.91,21.0586 C183.91,21.569 183.785,21.9961 183.535,22.3398 C183.285,22.6836 182.939,22.9421 182.498,23.1152 C182.057,23.2884 181.549,23.375 180.977,23.375 M181.012,19.6641 C181.28,19.6641 181.507,19.597 181.693,19.4629 C181.88,19.3288 182.023,19.1361 182.123,18.8848 C182.223,18.6335 182.273,18.332 182.273,17.9805 C182.273,17.6289 182.224,17.3236 182.125,17.0645 C182.026,16.8053 181.883,16.6042 181.695,16.4609 C181.508,16.3177 181.28,16.2461 181.012,16.2461 C180.738,16.2461 180.508,16.3197 180.32,16.4668 C180.133,16.6139 179.991,16.8177 179.895,17.0781 C179.798,17.3385 179.75,17.6393 179.75,17.9805 C179.75,18.3268 179.799,18.6257 179.896,18.877 C179.994,19.1283 180.136,19.3223 180.322,19.459 C180.508,19.5957 180.738,19.6641 181.012,19.6641 M186.891,17.5313 L186.891,21 L185.227,21 L185.227,13 L186.844,13 L186.844,16.0586 L186.914,16.0586 C187.049,15.7044 187.268,15.4264 187.57,15.2246 C187.872,15.0228 188.251,14.9219 188.707,14.9219 C189.124,14.9219 189.488,15.0124 189.799,15.1934 C190.11,15.3743 190.352,15.6335 190.525,15.9707 C190.699,16.3079 190.784,16.7109 190.781,17.1797 L190.781,21 L189.117,21 L189.117,17.4766 C189.12,17.1068 189.027,16.819 188.838,16.6133 C188.649,16.4076 188.385,16.3047 188.047,16.3047 C187.82,16.3047 187.62,16.3529 187.447,16.4492 C187.274,16.5456 187.139,16.6855 187.041,16.8691 C186.943,17.0527 186.893,17.2734 186.891,17.5313 M195.277,15 L195.277,16.25 L191.664,16.25 L191.664,15 L195.277,15 M192.484,13.5625 L194.148,13.5625 L194.148,19.1563 C194.148,19.3099 194.172,19.429 194.219,19.5137 C194.266,19.5983 194.331,19.6576 194.416,19.6914 C194.501,19.7253 194.599,19.7422 194.711,19.7422 C194.789,19.7422 194.867,19.735 194.945,19.7207 C195.023,19.7064 195.083,19.6953 195.125,19.6875 L195.387,20.9258 C195.303,20.9518 195.186,20.9824 195.035,21.0176 C194.884,21.0527 194.701,21.0742 194.484,21.082 C194.083,21.0977 193.732,21.0443 193.432,20.9219 C193.131,20.7995 192.897,20.6094 192.73,20.3516 C192.564,20.0938 192.482,19.7682 192.484,19.375 L192.484,13.5625 M201.266,16.7109 L199.742,16.8047 C199.716,16.6745 199.66,16.5566 199.574,16.4512 C199.488,16.3457 199.376,16.2611 199.236,16.1973 C199.097,16.1335 198.931,16.1016 198.738,16.1016 C198.48,16.1016 198.263,16.1556 198.086,16.2637 C197.909,16.3717 197.82,16.5156 197.82,16.6953 C197.82,16.8385 197.878,16.9596 197.992,17.0586 C198.107,17.1576 198.303,17.237 198.582,17.2969 L199.668,17.5156 C200.251,17.6354 200.686,17.8281 200.973,18.0938 C201.259,18.3594 201.402,18.7083 201.402,19.1406 C201.402,19.5339 201.287,19.8789 201.057,20.1758 C200.826,20.4727 200.511,20.7038 200.111,20.8691 C199.712,21.0345 199.251,21.1172 198.73,21.1172 C197.936,21.1172 197.304,20.9512 196.834,20.6191 C196.364,20.2871 196.089,19.8346 196.008,19.2617 L197.645,19.1758 C197.694,19.418 197.814,19.6022 198.004,19.7285 C198.194,19.8548 198.438,19.918 198.734,19.918 C199.026,19.918 199.261,19.8613 199.439,19.748 C199.618,19.6348 199.708,19.4883 199.711,19.3086 C199.708,19.1576 199.645,19.0332 199.52,18.9355 C199.395,18.8379 199.202,18.763 198.941,18.7109 L197.902,18.5039 C197.316,18.3867 196.881,18.1836 196.596,17.8945 C196.311,17.6055 196.168,17.237 196.168,16.7891 C196.168,16.4036 196.273,16.0716 196.482,15.793 C196.692,15.5143 196.988,15.2995 197.369,15.1484 C197.751,14.9974 198.198,14.9219 198.711,14.9219 C199.469,14.9219 200.066,15.082 200.502,15.4023 C200.938,15.7227 201.193,16.1589 201.266,16.7109 "/>
</g>

<g fill="#ffffff" fill-opacity="1" stroke="none" transform="matrix(0.228,0,0,0.228,11.6,9.6)"
font-family="Inter" font-size="11" font-weight="700" font-style="normal" 
>
<path vector-effect="none" fill-rule="nonzero" d="M42.7065,5.15112 C41.6974,5.15112 40.885,5.9635 40.885,6.97266 L40.885,12.261 L29.4482,12.261 C28.4391,12.261 27.6267,13.0734 27.6267,14.0825 L27.6267,93.0273 C27.6267,94.0365 28.4391,94.8489 29.4482,94.8489 L70.5518,94.8489 C71.5609,94.8489 72.3733,94.0365 72.3733,93.0273 L72.3733,14.0825 C72.3733,13.0734 71.5609,12.261 70.5518,12.261 L59.115,12.261 L59.115,6.97266 C59.115,5.9635 58.3026,5.15112 57.2935,5.15112 L42.7065,5.15112 M48.6768,61.0757 L51.3232,61.0757 L51.3232,71.2551 L48.6768,71.2551 L48.6768,61.0757 M47.5464,75.9375 L52.4536,75.9375 C53.4628,75.9375 54.2754,76.7499 54.2754,77.759 L54.2754,82.6665 C54.2754,83.6757 53.4628,84.488 52.4536,84.488 L47.5464,84.488 C46.5372,84.488 45.7246,83.6757 45.7246,82.6665 L45.7246,77.759 C45.7246,76.7499 46.5372,75.9375 47.5464,75.9375 "/>
</g>

<g fill="none" stroke="#000000" stroke-opacity="1" stroke-width="0.878375" stroke-linecap="round" stroke-linejoin="round" transform="matrix(0.228,0,0,0.228,11.6,9.6)"
font-family="Inter" font-size="11" font-weight="700" font-style="normal" 
>
<path vector-effect="none" fill-rule="evenodd" d="M45.7247,77.6884 C45.7247,76.6823 46.5402,75.8668 47.5463,75.8668 L52.4537,75.8668 C53.4598,75.8668 54.2753,76.6823 54.2753,77.6884 L54.2753,82.5958 C54.2753,83.6018 53.4598,84.4174 52.4537,84.4174 L47.5463,84.4174 C46.5402,84.4174 45.7247,83.6018 45.7247,82.5958 L45.7247,77.6884"/>
</g>

<g fill="none" stroke="#000000" stroke-opacity="1" stroke-width="0.878375" stroke-linecap="round" stroke-linejoin="round" transform="matrix(0.228,0,0,0.228,11.6,9.6)"
font-family="Inter" font-size="11" font-weight="700" font-style="normal" 
>
<rect x="48.6767" y="60.9446" width="2.64662" height="10.1793"/>
</g>

<g fill="#ffffff" fill-opacity="1" stroke="none" transform="matrix(0.228,0,0,0.228,11.6,9.6)"
font-family="Inter" font-size="11" font-weight="700" font-style="normal" 
>
<path vector-effect="none" fill-rule="evenodd" d="M27.5287,13.8717 C27.5287,13.19 28.0814,12.6373 28.7631,12.6373 L32.414,12.6373 C33.0958,12.6373 33.6484,13.19 33.6484,13.8717 L33.6484,93.3873 C33.6484,94.069 33.0958,94.6217 32.414,94.6217 L28.7631,94.6217 C28.0814,94.6217 27.5287,94.069 27.5287,93.3873 L27.5287,13.8717"/>
</g>

<g fill="none" stroke="#000000" stroke-opacity="1" stroke-width="0.876378" stroke-linecap="round" stroke-linejoin="round" transform="matrix(0.228,0,0,0.228,11.6,9.6)"
font-family="Inter" font-size="11" font-weight="700" font-style="normal" 
>
<path vector-effect="none" fill-rule="evenodd" d="M27.5287,13.8717 C27.5287,13.19 28.0814,12.6373 28.7631,12.6373 L32.414,12.6373 C33.0958,12.6373 33.6484,13.19 33.6484,13.8717 L33.6484,93.3873 C33.6484,94.069 33.0958,94.6217 32.414,94.6217 L28.7631,94.6217 C28.0814,94.6217 27.5287,94.069 27.5287,93.3873 L27.5287,13.8717"/>
</g>

<g fill="#ffffff" fill-opacity="1" stroke="none" transform="matrix(0.228,0,0,0.228,11.6,9.6)"
font-family="Inter" font-size="11" font-weight="700" font-style="normal" 
>
<path vector-effect="none" fill-rule="evenodd" d="M27.4607,37.9574 C27.4607,37.5662 27.7779,37.2491 28.1691,37.2491 L33.0081,37.2491 C33.3993,37.2491 33.7165,37.5662 33.7165,37.9574 L33.7165,93.7774 C33.7165,94.1686 33.3993,94.4858 33.0081,94.4858 L28.1691,94.4858 C27.7779,94.4858 27.4607,94.1686 27.4607,93.7774 L27.4607,37.9574"/>
</g>

<g fill="none" stroke="#000000" stroke-opacity="1" stroke-width="0.74035" stroke-linecap="round" stroke-linejoin="round" transform="matrix(0.228,0,0,0.228,11.6,9.6)"
font-family="Inter" font-size="11" font-weight="700" font-style="normal" 
>
<path vector-effect="none" fill-rule="evenodd" d="M27.4607,37.9574 C27.4607,37.5662 27.7779,37.2491 28.1691,37.2491 L33.0081,37.2491 C33.3993,37.2491 33.7165,37.5662 33.7165,37.9574 L33.7165,93.7774 C33.7165,94.1686 33.3993,94.4858 33.0081,94.4858 L28.1691,94.4858 C27.7779,94.4858 27.4607,94.1686 27.4607,93.7774 L27.4607,37.9574"/>
</g>

<g fill="#ffffff" fill-opacity="1" stroke="none" transform="matrix(0.228,0,0,0.228,11.6,9.6)"
font-family="Inter" font-size="11" font-weight="700" font-style="normal" 
>
<path vector-effect="none" fill-rule="evenodd" d="M66.0713,13.2551 C66.0713,12.6919 66.5278,12.2354 67.091,12.2354 L71.1694,12.2354 C71.7326,12.2354 72.1891,12.6919 72.1891,13.2551 L72.1891,93.6011 C72.1891,94.1642 71.7326,94.6207 71.1694,94.6207 L67.091,94.6207 C66.5278,94.6207 66.0713,94.1642 66.0713,93.6011 L66.0713,13.2551"/>
</g>

<g fill="none" stroke="#000000" stroke-opacity="1" stroke-width="0.878375" stroke-linecap="round" stroke-linejoin="round" transform="matrix(0.228,0,0,0.228,11.6,9.6)"
font-family="Inter" font-size="11" font-weight="700" font-style="normal" 
>
<path vector-effect="none" fill-rule="evenodd" d="M66.0713,13.2551 C66.0713,12.6919 66.5278,12.2354 67.091,12.2354 L71.1694,12.2354 C71.7326,12.2354 72.1891,12.6919 72.1891,13.2551 L72.1891,93.6011 C72.1891,94.1642 71.7326,94.6207 71.1694,94.6207 L67.091,94.6207 C66.5278,94.6207 66.0713,94.1642 66.0713,93.6011 L66.0713,13.2551"/>
</g>

<g fill="#ffffff" fill-opacity="1" stroke="none" transform="matrix(0.228,0,0,0.228,11.6,9.6)"
font-family="Inter" font-size="11" font-weight="700" font-style="normal" 
>
<path vector-effect="none" fill-rule="evenodd" d="M66.2063,37.9574 C66.2063,37.5662 66.5234,37.2491 66.9146,37.2491 L71.7536,37.2491 C72.1448,37.2491 72.462,37.5662 72.462,37.9574 L72.462,93.7774 C72.462,94.1686 72.1448,94.4858 71.7536,94.4858 L66.9146,94.4858 C66.5234,94.4858 66.2063,94.1686 66.2063,93.7774 L66.2063,37.9574"/>
</g>

<g fill="none" stroke="#000000" stroke-opacity="1" stroke-width="0.74035" stroke-linecap="round" stroke-linejoin="round" transform="matrix(0.228,0,0,0.228,11.6,9.6)"
font-family="Inter" font-size="11" font-weight="700" font-style="normal" 
>
<path vector-effect="none" fill-rule="evenodd" d="M66.2063,37.9574 C66.2063,37.5662 66.5234,37.2491 66.9146,37.2491 L71.7536,37.2491 C72.1448,37.2491 72.462,37.5662 72.462,37.9574 L72.462,93.7774 C72.462,94.1686 72.1448,94.4858 71.7536,94.4858 L66.9146,94.4858 C66.5234,94.4858 66.2063,94.1686 66.2063,93.7774 L66.2063,37.9574"/>
</g>

<g fill="#000000" fill-opacity="1" stroke="none" transform="matrix(0.228,0,0,0.228,11.6,9.6)"
font-family="Inter" font-size="11" font-weight="700" font-style="normal" 
>
<path vector-effect="none" fill-rule="evenodd" d="M21.2542,51.5904 C21.2542,51.1991 21.5713,50.882 21.9625,50.882 L26.4596,50.882 C26.8508,50.882 27.168,51.1991 27.168,51.5904 L27.168,67.915 C27.168,68.3062 26.8508,68.6234 26.4596,68.6234 L21.9625,68.6234 C21.5713,68.6234 21.2542,68.3062 21.2542,67.915 L21.2542,51.5904"/>
</g>

<g fill="none" stroke="#000000" stroke-opacity="1" stroke-width="0.878375" stroke-linecap="round" stroke-linejoin="round" transform="matrix(0.228,0,0,0.228,11.6,9.6)"
font-family="Inter" font-size="11" font-weight="700" font-style="normal" 
>
<path vector-effect="none" fill-rule="evenodd" d="M21.2542,51.5904 C21.2542,51.1991 21.5713,50.882 21.9625,50.882 L26.4596,50.882 C26.8508,50.882 27.168,51.1991 27.168,51.5904 L27.168,67.915 C27.168,68.3062 26.8508,68.6234 26.4596,68.6234 L21.9625,68.6234 C21.5713,68.6234 21.2542,68.3062 21.2542,67.915 L21.2542,51.5904"/>
</g>

<g fill="#000000" fill-opacity="1" stroke="none" transform="matrix(0.228,0,0,0.228,11.6,9.6)"
font-family="Inter" font-size="11" font-weight="700" font-style="normal" 
>
<path vector-effect="none" fill-rule="evenodd" d="M21.3192,89.1962 C21.3192,88.7767 21.6592,88.4367 22.0787,88.4367 L26.8092,88.4367 C27.2286,88.4367 27.5687,88.7767 27.5687,89.1962 L27.5687,94.0857 C27.5687,94.5051 27.2286,94.8452 26.8092,94.8452 L22.0787,94.8452 C21.6592,94.8452 21.3192,94.5051 21.3192,94.0857 L21.3192,89.1962"/>
</g>

<g fill="none" stroke="#000000" stroke-opacity="1" stroke-width="0.88025" stroke-linecap="round" stroke-linejoin="round" transform="matrix(0.228,0,0,0.228,11.6,9.6)"
font-family="Inter" font-size="11" font-weight="700" font-style="normal" 
>
<path vector-effect="none" fill-rule="evenodd" d="M21.3192,89.1962 C21.3192,88.7767 21.6592,88.4367 22.0787,88.4367 L26.8092,88.4367 C27.2286,88.4367 27.5687,88.7767 27.5687,89.1962 L27.5687,94.0857 C27.5687,94.5051 27.2286,94.8452 26.8092,94.8452 L22.0787,94.8452 C21.6592,94.8452 21.3192,94.5051 21.3192,94.0857 L21.3192,89.1962"/>
</g>

<g fill="#000000" fill-opacity="1" stroke="none" transform="matrix(0.228,0,0,0.228,11.6,9.6)"
font-family="Inter" font-size="11" font-weight="700" font-style="normal" 
>
<path vector-effect="none" fill-rule="evenodd" d="M21.291,76.1973 C21.291,75.7779 21.631,75.4378 22.0505,75.4378 L26.7809,75.4378 C27.2004,75.4378 27.5404,75.7779 27.5404,76.1973 L27.5404,81.0868 C27.5404,81.5063 27.2004,81.8463 26.7809,81.8463 L22.0505,81.8463 C21.631,81.8463 21.291,81.5063 21.291,81.0868 L21.291,76.1973"/>
</g>

<g fill="none" stroke="#000000" stroke-opacity="1" stroke-width="0.88025" stroke-linecap="round" stroke-linejoin="round" transform="matrix(0.228,0,0,0.228,11.6,9.6)"
font-family="Inter" font-size="11" font-weight="700" font-style="normal" 
>
<path vector-effect="none" fill-rule="evenodd" d="M21.291,76.1973 C21.291,75.7779 21.631,75.4378 22.0505,75.4378 L26.7809,75.4378 C27.2004,75.4378 27.5404,75.7779 27.5404,76.1973 L27.5404,81.0868 C27.5404,81.5063 27.2004,81.8463 26.7809,81.8463 L22.0505,81.8463 C21.631,81.8463 21.291,81.5063 21.291,81.0868 L21.291,76.1973"/>
</g>

<g fill="#010101" fill-opacity="1" stroke="none" transform="matrix(0.228,0,0,0.228,11.6,9.6)"
font-family="Inter" font-size="11" font-weight="700" font-style="normal" 
>
<path vector-effect="none" fill-rule="evenodd" d="M72.8149,51.3251 C72.8149,50.9339 73.132,50.6168 73.5233,50.6168 L78.0203,50.6168 C78.4115,50.6168 78.7287,50.9339 78.7287,51.3251 L78.7287,67.6498 C78.7287,68.041 78.4115,68.3581 78.0203,68.3581 L73.5233,68.3581 C73.132,68.3581 72.8149,68.041 72.8149,67.6498 L72.8149,51.3251"/>
</g>

<g fill="none" stroke="#000000" stroke-opacity="1" stroke-width="0.878375" stroke-linecap="round" stroke-linejoin="round" transform="matrix(0.228,0,0,0.228,11.6,9.6)"
font-family="Inter" font-size="11" font-weight="700" font-style="normal" 
>
<path vector-effect="none" fill-rule="evenodd" d="M72.8149,51.3251 C72.8149,50.9339 73.132,50.6168 73.5233,50.6168 L78.0203,50.6168 C78.4115,50.6168 78.7287,50.9339 78.7287,51.3251 L78.7287,67.6498 C78.7287,68.041 78.4115,68.3581 78.0203,68.3581 L73.5233,68.3581 C73.132,68.3581 72.8149,68.041 72.8149,67.6498 L72.8149,51.3251"/>
</g>

<g fill="#000000" fill-opacity="1" stroke="none" transform="matrix(0.228,0,0,0.228,11.6,9.6)"
font-family="Inter" font-size="11" font-weight="700" font-style="normal" 
>
<path vector-effect="none" fill-rule="evenodd" d="M72.8799,88.931 C72.8799,88.5115 73.22,88.1715 73.6394,88.1715 L78.3699,88.1715 C78.7894,88.1715 79.1294,88.5115 79.1294,88.931 L79.1294,93.8205 C79.1294,94.2399 78.7894,94.5799 78.3699,94.5799 L73.6394,94.5799 C73.22,94.5799 72.8799,94.2399 72.8799,93.8205 L72.8799,88.931"/>
</g>

<g fill="none" stroke="#000000" stroke-opacity="1" stroke-width="0.88025" stroke-linecap="round" stroke-linejoin="round" transform="matrix(0.228,0,0,0.228,11.6,9.6)"
font-family="Inter" font-size="11" font-weight="700" font-style="normal" 
>
<path vector-effect="none" fill-rule="evenodd" d="M72.8799,88.931 C72.8799,88.5115 73.22,88.1715 73.6394,88.1715 L78.3699,88.1715 C78.7894,88.1715 79.1294,88.5115 79.1294,88.931 L79.1294,93.8205 C79.1294,94.2399 78.7894,94.5799 78.3699,94.5799 L73.6394,94.5799 C73.22,94.5799 72.8799,94.2399 72.8799,93.8205 L72.8799,88.931"/>
</g>

<g fill="#000000" fill-opacity="1" stroke="none" transform="matrix(0.228,0,0,0.228,11.6,9.6)"
font-family="Inter" font-size="11" font-weight="700" font-style="normal" 
>
<path vector-effect="none" fill-rule="evenodd" d="M72.8517,75.9321 C72.8517,75.5127 73.1917,75.1726 73.6112,75.1726 L78.3417,75.1726 C78.7611,75.1726 79.1012,75.5127 79.1012,75.9321 L79.1012,80.8216 C79.1012,81.2411 78.7611,81.5811 78.3417,81.5811 L73.6112,81.5811 C73.1917,81.5811 72.8517,81.2411 72.8517,80.8216 L72.8517,75.9321"/>
</g>

<g fill="none" stroke="#000000" stroke-opacity="1" stroke-width="0.88025" stroke-linecap="round" stroke-linejoin="round" transform="matrix(0.228,0,0,0.228,11.6,9.6)"
font-family="Inter" font-size="11" font-weight="700" font-style="normal" 
>
<path vector-effect="none" fill-rule="evenodd" d="M72.8517,75.9321 C72.8517,75.5127 73.1917,75.1726 73.6112,75.1726 L78.3417,75.1726 C78.7611,75.1726 79.1012,75.5127 79.1012,75.9321 L79.1012,80.8216 C79.1012,81.2411 78.7611,81.5811 78.3417,81.5811 L73.6112,81.5811 C73.1917,81.5811 72.8517,81.2411 72.8517,80.8216 L72.8517,75.9321"/>
</g>

<g fill="none" stroke="#000000" stroke-opacity="1" stroke-width="1.69088" stroke-linecap="round" stroke-linejoin="round" transform="matrix(0.228,0,0,0.228,11.6,9.6)"
font-family="Inter" font-size="11" font-weight="700" font-style="normal" 
>
<path vector-effect="none" fill-rule="nonzero" d="M42.7064,5.151 C41.6973,5.151 40.8849,5.96362 40.8849,6.97278 L40.8849,12.2611 L29.4484,12.2611 C28.4392,12.2611 27.6266,13.0735 27.6266,14.0826 L27.6266,93.0275 C27.6266,94.0366 28.4392,94.849 29.4484,94.849 L70.5516,94.849 C71.5608,94.849 72.3734,94.0366 72.3734,93.0275 L72.3734,14.0826 C72.3734,13.0735 71.5608,12.2611 70.5516,12.2611 L59.1151,12.2611 L59.1151,6.97278 C59.1151,5.96362 58.3027,5.151 57.2936,5.151 L42.7064,5.151"/>
</g>

<g fill="#aaaaaa" fill-opacity="1" stroke="none" transform="matrix(0.228,0,0,0.228,11.6,9.6)"
font-family="Inter" font-size="11" font-weight="700" font-style="normal" 
>
<path vector-effect="none" fill-rule="evenodd" d="M33.6676,43.8598 C33.6676,43.8566 33.6701,43.8541 33.6733,43.8541 L65.4134,43.8541 C65.4166,43.8541 65.4192,43.8566 65.4192,43.8598 C65.4192,43.863 65.4166,43.8655 65.4134,43.8655 L33.6733,43.8655 C33.6701,43.8655 33.6676,43.863 33.6676,43.8598 "/>
</g>

<g fill="none" stroke="#000000" stroke-opacity="1" stroke-width="0.305481" stroke-linecap="round" stroke-linejoin="round" transform="matrix(0.228,0,0,0.228,11.6,9.6)"
font-family="Inter" font-size="11" font-weight="700" font-style="normal" 
>
<path vector-effect="none" fill-rule="evenodd" d="M33.6676,43.8598 C33.6676,43.8566 33.6701,43.8541 33.6733,43.8541 L65.4134,43.8541 C65.4166,43.8541 65.4192,43.8566 65.4192,43.8598 C65.4192,43.863 65.4166,43.8655 65.4134,43.8655 L33.6733,43.8655 C33.6701,43.8655 33.6676,43.863 33.6676,43.8598 "/>
</g>

<g fill="#ffffff" fill-opacity="1" stroke="none" transform="matrix(1,0,0,1,0,0)"
font-family="Inter" font-size="11" font-weight="700" font-style="normal" 
>
</g>

<g fill="#ffffff" fill-opacity="1" stroke="#6c25f1" stroke-opacity="1" stroke-width="1" stroke-linecap="square" stroke-linejoin="bevel" transform="matrix(1,0,0,1,0,0)"
font-family="Inter" font-size="11" font-weight="700" font-style="normal" 
>
<polyline fill="none" vector-effect="none" points="45,11 45,31 " />
</g>

<g fill="#ffffff" fill-opacity="1" stroke="#6c25f1" stroke-opacity="1" stroke-width="1" stroke-linecap="square" stroke-linejoin="bevel" transform="matrix(1,0,0,1,0,0)"
font-family="Inter" font-size="11" font-weight="700" font-style="normal" 
>
</g>

<g fill="#935df5" fill-opacity="1" stroke="#6c25f1" stroke-opacity="1" stroke-width="1.2" stroke-linecap="square" stroke-linejoin="bevel" transform="matrix(1,0,0,1,208,6)"
font-family="Inter" font-size="11" font-weight="700" font-style="normal" 
>
<path vector-effect="none" fill-rule="evenodd" d="M0.5,3.5 C0.5,1.84315 1.84315,0.5 3.5,0.5 L44,0.5 C45.6569,0.5 47,1.84315 47,3.5 L47,20.5 C47,22.1569 45.6569,23.5 44,23.5 L3.5,23.5 C1.84315,23.5 0.5,22.1569 0.5,20.5 L0.5,3.5"/>
</g>

<g fill="#ffffff" fill-opacity="1" stroke="none" transform="matrix(1,0,0,1,208,6)"
font-family="Inter" font-size="11" font-weight="700" font-style="normal" 
>
<path vector-effect="none" fill-rule="nonzero" d="M12.4531,16.1172 C11.8464,16.1172 11.3223,15.9876 10.8809,15.7285 C10.4395,15.4694 10.099,15.1074 9.85938,14.6426 C9.61979,14.1777 9.5,13.638 9.5,13.0234 C9.5,12.4036 9.61979,11.8613 9.85938,11.3965 C10.099,10.9316 10.4395,10.5697 10.8809,10.3105 C11.3223,10.0514 11.8464,9.92188 12.4531,9.92188 C13.0599,9.92188 13.584,10.0514 14.0254,10.3105 C14.4668,10.5697 14.8073,10.9316 15.0469,11.3965 C15.2865,11.8613 15.4063,12.4036 15.4063,13.0234 C15.4063,13.638 15.2865,14.1777 15.0469,14.6426 C14.8073,15.1074 14.4668,15.4694 14.0254,15.7285 C13.584,15.9876 13.0599,16.1172 12.4531,16.1172 M12.4609,14.8281 C12.737,14.8281 12.9674,14.7493 13.1523,14.5918 C13.3372,14.4342 13.4772,14.2188 13.5723,13.9453 C13.6673,13.6719 13.7148,13.3607 13.7148,13.0117 C13.7148,12.6628 13.6673,12.3516 13.5723,12.0781 C13.4772,11.8047 13.3372,11.5885 13.1523,11.4297 C12.9674,11.2708 12.737,11.1914 12.4609,11.1914 C12.1823,11.1914 11.9486,11.2708 11.7598,11.4297 C11.571,11.5885 11.429,11.8047 11.334,12.0781 C11.2389,12.3516 11.1914,12.6628 11.1914,13.0117 C11.1914,13.3607 11.2389,13.6719 11.334,13.9453 C11.429,14.2188 11.571,14.4342 11.7598,14.5918 C11.9486,14.7493 12.1823,14.8281 12.4609,14.8281 M19.7188,10 L19.7188,11.25 L16.0156,11.25 L16.0156,10 L19.7188,10 M16.8633,16 L16.8633,9.56641 C16.8633,9.13151 16.9486,8.77083 17.1191,8.48438 C17.2897,8.19792 17.5234,7.98307 17.8203,7.83984 C18.1172,7.69661 18.4544,7.625 18.832,7.625 C19.0872,7.625 19.321,7.64453 19.5332,7.68359 C19.7454,7.72266 19.9036,7.75781 20.0078,7.78906 L19.7109,9.03906 C19.6458,9.01823 19.5658,8.9987 19.4707,8.98047 C19.3757,8.96224 19.2786,8.95313 19.1797,8.95313 C18.9349,8.95313 18.7643,9.00977 18.668,9.12305 C18.5716,9.23633 18.5234,9.39453 18.5234,9.59766 L18.5234,16 L16.8633,16 M23.9531,10 L23.9531,11.25 L20.25,11.25 L20.25,10 L23.9531,10 M21.0977,16 L21.0977,9.56641 C21.0977,9.13151 21.1829,8.77083 21.3535,8.48438 C21.5241,8.19792 21.7578,7.98307 22.0547,7.83984 C22.3516,7.69661 22.6888,7.625 23.0664,7.625 C23.3216,7.625 23.5553,7.64453 23.7676,7.68359 C23.9798,7.72266 24.138,7.75781 24.2422,7.78906 L23.9453,9.03906 C23.8802,9.01823 23.8001,8.9987 23.7051,8.98047 C23.61,8.96224 23.513,8.95313 23.4141,8.95313 C23.1693,8.95313 22.9987,9.00977 22.9023,9.12305 C22.806,9.23633 22.7578,9.39453 22.7578,9.59766 L22.7578,16 L21.0977,16"/>
</g>

<g fill="#ffffff" fill-opacity="1" stroke="none" transform="matrix(0.03125,0,0,0.03125,241.5,14)"
font-family="Inter" font-size="11" font-weight="700" font-style="normal" 
>
<path vector-effect="none" fill-rule="nonzero" d="M111.326,191.938 C120.545,201.158 135.517,201.158 144.737,191.938 L239.144,97.5313 C245.929,90.7458 247.921,80.6413 244.233,71.7907 C240.545,62.9401 231.989,57.1871 222.401,57.1871 L33.5875,57.2608 C24.0731,57.2608 15.4437,63.0137 11.7559,71.8644 C8.06815,80.715 10.1333,90.8195 16.845,97.605 L111.252,192.012 L111.326,191.938"/>
</g>

<g fill="none" stroke="#000000" stroke-opacity="1" stroke-width="13.7195" stroke-linecap="butt" stroke-linejoin="miter" stroke-miterlimit="4" transform="matrix(0.03125,0,0,0.03125,241.5,14)"
font-family="Inter" font-size="11" font-weight="700" font-style="normal" 
>
<path vector-effect="none" fill-rule="nonzero" d="M111.326,191.938 C120.545,201.158 135.517,201.158 144.737,191.938 L239.144,97.5313 C245.929,90.7458 247.921,80.6413 244.233,71.7907 C240.545,62.9401 231.989,57.1871 222.401,57.1871 L33.5875,57.2608 C24.0731,57.2608 15.4437,63.0137 11.7559,71.8644 C8.06815,80.715 10.1333,90.8195 16.845,97.605 L111.252,192.012 L111.326,191.938"/>
</g>

<g fill="#ffffff" fill-opacity="1" stroke="none" transform="matrix(1,0,0,1,208,6)"
font-family="Inter" font-size="11" font-weight="700" font-style="normal" 
>
</g>

<g fill="#ffffff" fill-opacity="1" stroke="#6c25f1" stroke-opacity="1" stroke-width="1" stroke-linecap="square" stroke-linejoin="bevel" transform="matrix(1,0,0,1,0,0)"
font-family="Inter" font-size="11" font-weight="700" font-style="normal" 
>
</g>

<g fill="#935df5" fill-opacity="1" stroke="#6c25f1" stroke-opacity="1" stroke-width="1.2" stroke-linecap="square" stroke-linejoin="bevel" transform="matrix(1,0,0,1,56,6)"
font-family="Inter" font-size="11" font-weight="700" font-style="normal" 
>
<path vector-effect="none" fill-rule="evenodd" d="M0.5,3.5 C0.5,1.84315 1.84315,0.5 3.5,0.5 L81.5,0.5 C83.1569,0.5 84.5,1.84315 84.5,3.5 L84.5,20.5 C84.5,22.1569 83.1569,23.5 81.5,23.5 L3.5,23.5 C1.84315,23.5 0.5,22.1569 0.5,20.5 L0.5,3.5"/>
</g>

<g fill="#ffffff" fill-opacity="1" stroke="none" transform="matrix(1,0,0,1,56,6)"
font-family="Inter" font-size="11" font-weight="700" font-style="normal" 
>
<path vector-effect="none" fill-rule="nonzero" d="M10,9.39453 L10,8 L16.5703,8 L16.5703,9.39453 L14.1211,9.39453 L14.1211,16 L12.4492,16 L12.4492,9.39453 L10,9.39453 M17.6484,16 L17.6484,8 L19.3398,8 L19.3398,11.3008 L22.7734,11.3008 L22.7734,8 L24.4609,8 L24.4609,16 L22.7734,16 L22.7734,12.6953 L19.3398,12.6953 L19.3398,16 L17.6484,16 M25.8516,8 L27.9375,8 L30.1406,13.375 L30.2344,13.375 L32.4375,8 L34.5234,8 L34.5234,16 L32.8828,16 L32.8828,10.793 L32.8164,10.793 L30.7461,15.9609 L29.6289,15.9609 L27.5586,10.7734 L27.4922,10.7734 L27.4922,16 L25.8516,16 L25.8516,8 M37.3594,8 L39.293,14.0781 L39.3672,14.0781 L41.3047,8 L43.1797,8 L40.4219,16 L38.2422,16 L35.4805,8 L37.3594,8 M44.1328,16 L44.1328,8 L45.8242,8 L45.8242,11.3008 L49.2578,11.3008 L49.2578,8 L50.9453,8 L50.9453,16 L49.2578,16 L49.2578,12.6953 L45.8242,12.6953 L45.8242,16 L44.1328,16 M52.3359,16 L52.3359,8 L55.5391,8 C56.1276,8 56.6185,8.08724 57.0117,8.26172 C57.4049,8.4362 57.7005,8.67773 57.8984,8.98633 C58.0964,9.29492 58.1953,9.64974 58.1953,10.0508 C58.1953,10.3633 58.1328,10.6374 58.0078,10.873 C57.8828,11.1087 57.7116,11.3014 57.4941,11.4512 C57.2767,11.6009 57.0286,11.707 56.75,11.7695 L56.75,11.8477 C57.0547,11.8607 57.3405,11.9466 57.6074,12.1055 C57.8743,12.2643 58.0911,12.4863 58.2578,12.7715 C58.4245,13.0566 58.5078,13.3958 58.5078,13.7891 C58.5078,14.2135 58.403,14.5918 58.1934,14.9238 C57.9837,15.2559 57.6745,15.5182 57.2656,15.7109 C56.8568,15.9036 56.3529,16 55.7539,16 L52.3359,16 M54.0273,14.6172 L55.4063,14.6172 C55.8776,14.6172 56.2214,14.5267 56.4375,14.3457 C56.6536,14.1647 56.7617,13.9232 56.7617,13.6211 C56.7617,13.3997 56.7083,13.2044 56.6016,13.0352 C56.4948,12.8659 56.3431,12.7331 56.1465,12.6367 C55.9499,12.5404 55.7161,12.4922 55.4453,12.4922 L54.0273,12.4922 L54.0273,14.6172 M54.0273,11.3477 L55.2813,11.3477 C55.513,11.3477 55.7194,11.3066 55.9004,11.2246 C56.0814,11.1426 56.2246,11.026 56.3301,10.875 C56.4355,10.724 56.4883,10.543 56.4883,10.332 C56.4883,10.043 56.3861,9.8099 56.1816,9.63281 C55.9772,9.45573 55.6875,9.36719 55.3125,9.36719 L54.0273,9.36719 L54.0273,11.3477 M63.0352,8 L63.0352,16 L61.3438,16 L61.3438,9.60547 L61.2969,9.60547 L59.4648,10.7539 L59.4648,9.25391 L61.4453,8 L63.0352,8"/>
</g>

<g fill="#ffffff" fill-opacity="1" stroke="none" transform="matrix(0.03125,0,0,0.03125,127,14)"
font-family="Inter" font-size="11" font-weight="700" font-style="normal" 
>
<path vector-effect="none" fill-rule="nonzero" d="M111.326,191.938 C120.545,201.158 135.517,201.158 144.737,191.938 L239.144,97.5313 C245.929,90.7458 247.921,80.6413 244.233,71.7907 C240.545,62.9401 231.989,57.1871 222.401,57.1871 L33.5875,57.2608 C24.0731,57.2608 15.4437,63.0137 11.7559,71.8644 C8.06815,80.715 10.1333,90.8195 16.845,97.605 L111.252,192.012 L111.326,191.938"/>
</g>

<g fill="none" stroke="#000000" stroke-opacity="1" stroke-width="13.7195" stroke-linecap="butt" stroke-linejoin="miter" stroke-miterlimit="4" transform="matrix(0.03125,0,0,0.03125,127,14)"
font-family="Inter" font-size="11" font-weight="700" font-style="normal" 
>
<path vector-effect="none" fill-rule="nonzero" d="M111.326,191.938 C120.545,201.158 135.517,201.158 144.737,191.938 L239.144,97.5313 C245.929,90.7458 247.921,80.6413 244.233,71.7907 C240.545,62.9401 231.989,57.1871 222.401,57.1871 L33.5875,57.2608 C24.0731,57.2608 15.4437,63.0137 11.7559,71.8644 C8.06815,80.715 10.1333,90.8195 16.845,97.605 L111.252,192.012 L111.326,191.938"/>
</g>

<g fill="#ffffff" fill-opacity="1" stroke="none" transform="matrix(1,0,0,1,56,6)"
font-family="Inter" font-size="11" font-weight="700" font-style="normal" 
>
</g>

<g fill="#ffffff" fill-opacity="1" stroke="#6c25f1" stroke-opacity="1" stroke-width="1" stroke-linecap="square" stroke-linejoin="bevel" transform="matrix(1,0,0,1,0,0)"
font-family="Inter" font-size="11" font-weight="700" font-style="normal" 
>
</g>

<g fill="#ffffff" fill-opacity="1" stroke="#6c25f1" stroke-opacity="1" stroke-width="1" stroke-linecap="square" stroke-linejoin="bevel" transform="matrix(1,0,0,1,0,0)"
font-family="Inter" font-size="11" font-weight="700" font-style="normal" 
>
</g>

<g fill="#ffffff" fill-opacity="1" stroke="#6c25f1" stroke-opacity="1" stroke-width="1" stroke-linecap="square" stroke-linejoin="bevel" transform="matrix(1,0,0,1,0,0)"
font-family="Inter" font-size="11" font-weight="700" font-style="normal" 
>
</g>

<g fill="none" stroke="#000000" stroke-opacity="1" stroke-width="1" stroke-linecap="square" stroke-linejoin="bevel" transform="matrix(1,0,0,1,0,0)"
font-family=".AppleSystemUIFont" font-size="13" font-weight="400" font-style="normal" 
>
</g>
</g>
</svg>
