<?xml version="1.0" encoding="UTF-8" standalone="no"?>
<svg width="87.1361mm" height="11.2889mm"
 viewBox="0 0 247 32"
 xmlns="http://www.w3.org/2000/svg" xmlns:xlink="http://www.w3.org/1999/xlink" version="1.2" baseProfile="tiny">
<title>Abstract block</title>
<desc>block_hubs_all_sensors_tilt</desc>
<defs>
</defs>
<g fill="none" stroke="black" stroke-width="1" fill-rule="evenodd" stroke-linecap="square" stroke-linejoin="bevel" >

<g fill="none" stroke="#000000" stroke-opacity="1" stroke-width="1" stroke-linecap="square" stroke-linejoin="bevel" transform="matrix(1,0,0,1,0,0)"
font-family=".AppleSystemUIFont" font-size="13" font-weight="400" font-style="normal" 
>
</g>

<g fill="none" stroke="#000000" stroke-opacity="1" stroke-width="1" stroke-linecap="square" stroke-linejoin="bevel" transform="matrix(1,0,0,1,0,0)"
font-family=".AppleSystemUIFont" font-size="13" font-weight="400" font-style="normal" 
>
</g>

<g fill="#1dccf0" fill-opacity="1" stroke="#0da6c5" stroke-opacity="1" stroke-width="1.2" stroke-linecap="square" stroke-linejoin="bevel" transform="matrix(1,0,0,1,0,0)"
font-family=".AppleSystemUIFont" font-size="13" font-weight="400" font-style="normal" 
>
<path vector-effect="none" fill-rule="evenodd" d="M1,16 C1,7.71573 8.16344,1 17,1 L229.167,1 C238.003,1 245.167,7.71573 245.167,16 C245.167,24.2843 238.003,31 229.167,31 L17,31 C8.16344,31 1,24.2843 1,16 "/>
</g>

<g fill="#ffffff" fill-opacity="1" stroke="none" transform="matrix(1,0,0,1,0,0)"
font-family="Inter" font-size="11" font-weight="700" font-style="normal" 
>
<path vector-effect="none" fill-rule="nonzero" d="M206.328,18.8789 C205.945,18.8789 205.604,18.8118 205.305,18.6777 C205.005,18.5436 204.769,18.3444 204.596,18.0801 C204.423,17.8158 204.336,17.4857 204.336,17.0898 C204.336,16.7565 204.397,16.4766 204.52,16.25 C204.642,16.0234 204.809,15.8411 205.02,15.7031 C205.23,15.5651 205.471,15.4609 205.74,15.3906 C206.01,15.3203 206.293,15.2708 206.59,15.2422 C206.939,15.2057 207.22,15.1712 207.434,15.1387 C207.647,15.1061 207.802,15.0573 207.898,14.9922 C207.995,14.9271 208.043,14.8307 208.043,14.7031 L208.043,14.6797 C208.043,14.4323 207.965,14.2409 207.811,14.1055 C207.656,13.9701 207.436,13.9023 207.152,13.9023 C206.853,13.9023 206.615,13.9681 206.438,14.0996 C206.26,14.2311 206.143,14.3958 206.086,14.5938 L204.547,14.4688 C204.625,14.1042 204.779,13.7884 205.008,13.5215 C205.237,13.2546 205.533,13.0488 205.896,12.9043 C206.26,12.7598 206.681,12.6875 207.16,12.6875 C207.493,12.6875 207.813,12.7266 208.119,12.8047 C208.425,12.8828 208.697,13.0039 208.936,13.168 C209.174,13.332 209.362,13.5423 209.5,13.7988 C209.638,14.0553 209.707,14.362 209.707,14.7188 L209.707,18.7656 L208.129,18.7656 L208.129,17.9336 L208.082,17.9336 C207.986,18.1211 207.857,18.2858 207.695,18.4277 C207.534,18.5697 207.34,18.6803 207.113,18.7598 C206.887,18.8392 206.625,18.8789 206.328,18.8789 M206.805,17.7305 C207.049,17.7305 207.266,17.6816 207.453,17.584 C207.641,17.4863 207.788,17.3542 207.895,17.1875 C208.001,17.0208 208.055,16.832 208.055,16.6211 L208.055,15.9844 C208.003,16.0182 207.932,16.0488 207.842,16.0762 C207.752,16.1035 207.651,16.1283 207.539,16.1504 C207.427,16.1725 207.315,16.1921 207.203,16.209 C207.091,16.2259 206.99,16.2409 206.898,16.2539 C206.703,16.2826 206.533,16.3281 206.387,16.3906 C206.241,16.4531 206.128,16.5371 206.047,16.6426 C205.966,16.748 205.926,16.8789 205.926,17.0352 C205.926,17.2617 206.008,17.4342 206.174,17.5527 C206.339,17.6712 206.549,17.7305 206.805,17.7305 M212.656,15.2969 L212.656,18.7656 L210.992,18.7656 L210.992,12.7656 L212.578,12.7656 L212.578,13.8242 L212.648,13.8242 C212.781,13.4753 213.004,13.1986 213.316,12.9941 C213.629,12.7897 214.008,12.6875 214.453,12.6875 C214.87,12.6875 215.233,12.7786 215.543,12.9609 C215.853,13.1432 216.094,13.403 216.266,13.7402 C216.438,14.0775 216.523,14.4792 216.523,14.9453 L216.523,18.7656 L214.859,18.7656 L214.859,15.2422 C214.862,14.875 214.768,14.5879 214.578,14.3809 C214.388,14.1738 214.126,14.0703 213.793,14.0703 C213.569,14.0703 213.372,14.1185 213.201,14.2148 C213.031,14.3112 212.898,14.4512 212.803,14.6348 C212.708,14.8184 212.659,15.0391 212.656,15.2969 M220.523,21.1406 C219.984,21.1406 219.523,21.0671 219.139,20.9199 C218.755,20.7728 218.449,20.5729 218.223,20.3203 C217.996,20.0677 217.849,19.7839 217.781,19.4688 L219.32,19.2617 C219.367,19.3815 219.441,19.4935 219.543,19.5977 C219.645,19.7018 219.779,19.7858 219.947,19.8496 C220.115,19.9134 220.32,19.9453 220.563,19.9453 C220.924,19.9453 221.223,19.8574 221.459,19.6816 C221.695,19.5059 221.813,19.2122 221.813,18.8008 L221.813,17.7031 L221.742,17.7031 C221.669,17.8698 221.56,18.0273 221.414,18.1758 C221.268,18.3242 221.081,18.4453 220.852,18.5391 C220.622,18.6328 220.349,18.6797 220.031,18.6797 C219.581,18.6797 219.171,18.5749 218.803,18.3652 C218.434,18.1556 218.141,17.834 217.924,17.4004 C217.706,16.9668 217.598,16.418 217.598,15.7539 C217.598,15.0742 217.708,14.5065 217.93,14.0508 C218.151,13.5951 218.446,13.2539 218.814,13.0273 C219.183,12.8008 219.587,12.6875 220.027,12.6875 C220.363,12.6875 220.645,12.7441 220.871,12.8574 C221.098,12.9707 221.281,13.1113 221.42,13.2793 C221.559,13.4473 221.667,13.612 221.742,13.7734 L221.805,13.7734 L221.805,12.7656 L223.457,12.7656 L223.457,18.8242 C223.457,19.3346 223.332,19.7617 223.082,20.1055 C222.832,20.4492 222.486,20.7077 222.045,20.8809 C221.604,21.054 221.096,21.1406 220.523,21.1406 M220.559,17.4297 C220.827,17.4297 221.054,17.3626 221.24,17.2285 C221.426,17.0944 221.57,16.9017 221.67,16.6504 C221.77,16.3991 221.82,16.0977 221.82,15.7461 C221.82,15.3945 221.771,15.0892 221.672,14.8301 C221.573,14.571 221.43,14.3698 221.242,14.2266 C221.055,14.0833 220.827,14.0117 220.559,14.0117 C220.285,14.0117 220.055,14.0853 219.867,14.2324 C219.68,14.3796 219.538,14.5833 219.441,14.8438 C219.345,15.1042 219.297,15.4049 219.297,15.7461 C219.297,16.0924 219.346,16.3913 219.443,16.6426 C219.541,16.8939 219.683,17.0879 219.869,17.2246 C220.055,17.3613 220.285,17.4297 220.559,17.4297 M226.438,10.7656 L226.438,18.7656 L224.773,18.7656 L224.773,10.7656 L226.438,10.7656 M230.492,18.8828 C229.875,18.8828 229.344,18.7572 228.9,18.5059 C228.456,18.2546 228.115,17.8978 227.875,17.4355 C227.635,16.9733 227.516,16.4258 227.516,15.793 C227.516,15.1758 227.635,14.6341 227.875,14.168 C228.115,13.7018 228.452,13.3385 228.889,13.0781 C229.325,12.8177 229.837,12.6875 230.426,12.6875 C230.822,12.6875 231.191,12.7507 231.533,12.877 C231.876,13.0033 232.175,13.1927 232.432,13.4453 C232.688,13.6979 232.888,14.015 233.031,14.3965 C233.174,14.778 233.246,15.224 233.246,15.7344 L233.246,16.1914 L228.18,16.1914 L228.18,15.1602 L231.68,15.1602 C231.68,14.9206 231.628,14.7083 231.523,14.5234 C231.419,14.3385 231.275,14.1934 231.092,14.0879 C230.908,13.9824 230.695,13.9297 230.453,13.9297 C230.201,13.9297 229.977,13.9876 229.783,14.1035 C229.589,14.2194 229.438,14.3743 229.328,14.5684 C229.219,14.7624 229.163,14.9779 229.16,15.2148 L229.16,16.1953 C229.16,16.4922 229.215,16.7487 229.326,16.9648 C229.437,17.181 229.594,17.3477 229.797,17.4648 C230,17.582 230.241,17.6406 230.52,17.6406 C230.704,17.6406 230.874,17.6146 231.027,17.5625 C231.181,17.5104 231.313,17.4323 231.422,17.3281 C231.531,17.224 231.615,17.0964 231.672,16.9453 L233.211,17.0469 C233.133,17.4167 232.973,17.7389 232.732,18.0137 C232.492,18.2884 232.182,18.502 231.803,18.6543 C231.424,18.8066 230.987,18.8828 230.492,18.8828 "/>
</g>

<g fill="#ffffff" fill-opacity="1" stroke="none" transform="matrix(0.228,0,0,0.228,11.6,4.6)"
font-family="Inter" font-size="11" font-weight="700" font-style="normal" 
>
<path vector-effect="none" fill-rule="nonzero" d="M23.3682,15.995 C21.89,15.995 20.7001,17.185 20.7001,18.6631 L20.7001,81.3343 C20.7001,82.8125 21.89,84.0024 23.3682,84.0024 L76.6077,84.0024 C78.0859,84.0024 79.2758,82.8125 79.2758,81.3343 L79.2758,18.6631 C79.2758,17.185 78.0859,15.995 76.6077,15.995 L50.8905,15.995 C51.6703,16.0444 52.2838,16.6869 52.2838,17.4796 L52.2838,26.9112 C52.2838,27.7362 51.6196,28.4004 50.7946,28.4004 L49.3054,28.4004 C48.4804,28.4004 47.8161,27.7362 47.8161,26.9112 L47.8161,17.4796 C47.8161,16.6869 48.4298,16.0443 49.2096,15.995 L23.3682,15.995 M46.7613,35.2087 L53.2146,35.2087 C53.9021,35.2087 54.4556,35.7622 54.4556,36.4497 L54.4556,42.903 C54.4556,43.5906 53.9021,44.1439 53.2146,44.1439 L46.7613,44.1439 C46.0738,44.1439 45.5202,43.5906 45.5202,42.903 L45.5202,36.4497 C45.5202,35.7622 46.0738,35.2087 46.7613,35.2087 "/>
</g>

<g fill="none" stroke="#000000" stroke-opacity="1" stroke-width="2.43854" stroke-linecap="butt" stroke-linejoin="miter" stroke-miterlimit="4" transform="matrix(0.228,0,0,0.228,11.6,4.6)"
font-family="Inter" font-size="11" font-weight="700" font-style="normal" 
>
<path vector-effect="none" fill-rule="nonzero" d="M23.3682,15.995 C21.89,15.995 20.7001,17.185 20.7001,18.6631 L20.7001,81.3343 C20.7001,82.8125 21.89,84.0024 23.3682,84.0024 L76.6077,84.0024 C78.0859,84.0024 79.2758,82.8125 79.2758,81.3343 L79.2758,18.6631 C79.2758,17.185 78.0859,15.995 76.6077,15.995 L50.8905,15.995 C51.6703,16.0444 52.2838,16.6869 52.2838,17.4796 L52.2838,26.9112 C52.2838,27.7362 51.6196,28.4004 50.7946,28.4004 L49.3054,28.4004 C48.4804,28.4004 47.8161,27.7362 47.8161,26.9112 L47.8161,17.4796 C47.8161,16.6869 48.4298,16.0443 49.2096,15.995 L23.3682,15.995 M46.7613,35.2087 L53.2146,35.2087 C53.9021,35.2087 54.4556,35.7622 54.4556,36.4497 L54.4556,42.903 C54.4556,43.5906 53.9021,44.1439 53.2146,44.1439 L46.7613,44.1439 C46.0738,44.1439 45.5202,43.5906 45.5202,42.903 L45.5202,36.4497 C45.5202,35.7622 46.0738,35.2087 46.7613,35.2087 "/>
</g>

<g fill="#000000" fill-opacity="1" stroke="none" transform="matrix(0.228,0,0,0.228,11.6,4.6)"
font-family="Inter" font-size="11" font-weight="700" font-style="normal" 
>
<path vector-effect="none" fill-rule="evenodd" d="M14.2421,17.9523 C14.2421,17.1298 14.9088,16.4631 15.7313,16.4631 L18.7097,16.4631 C19.5322,16.4631 20.1989,17.1298 20.1989,17.9523 L20.1989,33.8372 C20.1989,34.6597 19.5322,35.3264 18.7097,35.3264 L15.7313,35.3264 C14.9088,35.3264 14.2421,34.6597 14.2421,33.8372 L14.2421,17.9523"/>
</g>

<g fill="none" stroke="#000000" stroke-opacity="1" stroke-width="2.43854" stroke-linecap="butt" stroke-linejoin="miter" stroke-miterlimit="4" transform="matrix(0.228,0,0,0.228,11.6,4.6)"
font-family="Inter" font-size="11" font-weight="700" font-style="normal" 
>
<path vector-effect="none" fill-rule="evenodd" d="M14.2421,17.9523 C14.2421,17.1298 14.9088,16.4631 15.7313,16.4631 L18.7097,16.4631 C19.5322,16.4631 20.1989,17.1298 20.1989,17.9523 L20.1989,33.8372 C20.1989,34.6597 19.5322,35.3264 18.7097,35.3264 L15.7313,35.3264 C14.9088,35.3264 14.2421,34.6597 14.2421,33.8372 L14.2421,17.9523"/>
</g>

<g fill="#000000" fill-opacity="1" stroke="none" transform="matrix(0.228,0,0,0.228,11.6,4.6)"
font-family="Inter" font-size="11" font-weight="700" font-style="normal" 
>
<path vector-effect="none" fill-rule="evenodd" d="M79.3249,17.4662 C79.3249,16.6438 79.9916,15.977 80.8141,15.977 L83.7925,15.977 C84.615,15.977 85.2817,16.6438 85.2817,17.4662 L85.2817,33.3512 C85.2817,34.1736 84.615,34.8404 83.7925,34.8404 L80.8141,34.8404 C79.9916,34.8404 79.3249,34.1736 79.3249,33.3512 L79.3249,17.4662"/>
</g>

<g fill="none" stroke="#000000" stroke-opacity="1" stroke-width="2.43854" stroke-linecap="butt" stroke-linejoin="miter" stroke-miterlimit="4" transform="matrix(0.228,0,0,0.228,11.6,4.6)"
font-family="Inter" font-size="11" font-weight="700" font-style="normal" 
>
<path vector-effect="none" fill-rule="evenodd" d="M79.3249,17.4662 C79.3249,16.6438 79.9916,15.977 80.8141,15.977 L83.7925,15.977 C84.615,15.977 85.2817,16.6438 85.2817,17.4662 L85.2817,33.3512 C85.2817,34.1736 84.615,34.8404 83.7925,34.8404 L80.8141,34.8404 C79.9916,34.8404 79.3249,34.1736 79.3249,33.3512 L79.3249,17.4662"/>
</g>

<g fill="#000000" fill-opacity="1" stroke="none" transform="matrix(0.228,0,0,0.228,11.6,4.6)"
font-family="Inter" font-size="11" font-weight="700" font-style="normal" 
>
<path vector-effect="none" fill-rule="evenodd" d="M79.5633,66.576 C79.5633,65.7535 80.23,65.0868 81.0525,65.0868 L84.0309,65.0868 C84.8534,65.0868 85.5201,65.7535 85.5201,66.576 L85.5201,82.4609 C85.5201,83.2834 84.8534,83.9501 84.0309,83.9501 L81.0525,83.9501 C80.23,83.9501 79.5633,83.2834 79.5633,82.4609 L79.5633,66.576"/>
</g>

<g fill="none" stroke="#000000" stroke-opacity="1" stroke-width="2.43854" stroke-linecap="butt" stroke-linejoin="miter" stroke-miterlimit="4" transform="matrix(0.228,0,0,0.228,11.6,4.6)"
font-family="Inter" font-size="11" font-weight="700" font-style="normal" 
>
<path vector-effect="none" fill-rule="evenodd" d="M79.5633,66.576 C79.5633,65.7535 80.23,65.0868 81.0525,65.0868 L84.0309,65.0868 C84.8534,65.0868 85.5201,65.7535 85.5201,66.576 L85.5201,82.4609 C85.5201,83.2834 84.8534,83.9501 84.0309,83.9501 L81.0525,83.9501 C80.23,83.9501 79.5633,83.2834 79.5633,82.4609 L79.5633,66.576"/>
</g>

<g fill="#000000" fill-opacity="1" stroke="none" transform="matrix(0.228,0,0,0.228,11.6,4.6)"
font-family="Inter" font-size="11" font-weight="700" font-style="normal" 
>
<path vector-effect="none" fill-rule="evenodd" d="M14.6928,66.6283 C14.6928,65.8058 15.3595,65.1391 16.182,65.1391 L19.1604,65.1391 C19.9829,65.1391 20.6496,65.8058 20.6496,66.6283 L20.6496,82.5132 C20.6496,83.3357 19.9829,84.0024 19.1604,84.0024 L16.182,84.0024 C15.3595,84.0024 14.6928,83.3357 14.6928,82.5132 L14.6928,66.6283"/>
</g>

<g fill="none" stroke="#000000" stroke-opacity="1" stroke-width="2.43854" stroke-linecap="butt" stroke-linejoin="miter" stroke-miterlimit="4" transform="matrix(0.228,0,0,0.228,11.6,4.6)"
font-family="Inter" font-size="11" font-weight="700" font-style="normal" 
>
<path vector-effect="none" fill-rule="evenodd" d="M14.6928,66.6283 C14.6928,65.8058 15.3595,65.1391 16.182,65.1391 L19.1604,65.1391 C19.9829,65.1391 20.6496,65.8058 20.6496,66.6283 L20.6496,82.5132 C20.6496,83.3357 19.9829,84.0024 19.1604,84.0024 L16.182,84.0024 C15.3595,84.0024 14.6928,83.3357 14.6928,82.5132 L14.6928,66.6283"/>
</g>

<g fill="none" stroke="#000000" stroke-opacity="1" stroke-width="2.43854" stroke-linecap="butt" stroke-linejoin="miter" stroke-miterlimit="4" transform="matrix(0.228,0,0,0.228,11.6,4.6)"
font-family="Inter" font-size="11" font-weight="700" font-style="normal" 
>
<path vector-effect="none" fill-rule="evenodd" d="M20.92,17.503 C20.92,16.6806 21.5867,16.0138 22.4092,16.0138 L27.125,16.0138 C27.9475,16.0138 28.6142,16.6806 28.6142,17.503 L28.6142,55.9743 C28.6142,56.7968 27.9475,57.4635 27.125,57.4635 L22.4092,57.4635 C21.5867,57.4635 20.92,56.7968 20.92,55.9743 L20.92,17.503"/>
</g>

<g fill="none" stroke="#000000" stroke-opacity="1" stroke-width="2.43854" stroke-linecap="butt" stroke-linejoin="miter" stroke-miterlimit="4" transform="matrix(0.228,0,0,0.228,11.6,4.6)"
font-family="Inter" font-size="11" font-weight="700" font-style="normal" 
>
<path vector-effect="none" fill-rule="evenodd" d="M71.4269,17.6638 C71.4269,16.8414 72.0937,16.1746 72.9162,16.1746 L77.632,16.1746 C78.4545,16.1746 79.1212,16.8414 79.1212,17.6638 L79.1212,56.1351 C79.1212,56.9576 78.4545,57.6243 77.632,57.6243 L72.9162,57.6243 C72.0937,57.6243 71.4269,56.9576 71.4269,56.1351 L71.4269,17.6638"/>
</g>

<g fill="#ffffff" fill-opacity="1" stroke="none" transform="matrix(0.228,0,0,0.228,11.6,4.6)"
font-family="Inter" font-size="11" font-weight="700" font-style="normal" 
>
<path vector-effect="none" fill-rule="evenodd" d="M41.9526,15.9757 C41.9526,15.9593 41.9659,15.9461 41.9822,15.9461 L57.922,15.9461 C57.9384,15.9461 57.9516,15.9593 57.9516,15.9757 C57.9516,15.992 57.9384,16.0053 57.922,16.0053 L41.9822,16.0053 C41.9659,16.0053 41.9526,15.992 41.9526,15.9757 "/>
</g>

<g fill="none" stroke="#000000" stroke-opacity="1" stroke-width="2.3865" stroke-linecap="butt" stroke-linejoin="miter" stroke-miterlimit="4" transform="matrix(0.228,0,0,0.228,11.6,4.6)"
font-family="Inter" font-size="11" font-weight="700" font-style="normal" 
>
<path vector-effect="none" fill-rule="evenodd" d="M41.9526,15.9757 C41.9526,15.9593 41.9659,15.9461 41.9822,15.9461 L57.922,15.9461 C57.9384,15.9461 57.9516,15.9593 57.9516,15.9757 C57.9516,15.992 57.9384,16.0053 57.922,16.0053 L41.9822,16.0053 C41.9659,16.0053 41.9526,15.992 41.9526,15.9757 "/>
</g>

<g fill="#ffffff" fill-opacity="1" stroke="none" transform="matrix(1,0,0,1,0,0)"
font-family="Inter" font-size="11" font-weight="700" font-style="normal" 
>
</g>

<g fill="#ffffff" fill-opacity="1" stroke="#0da6c5" stroke-opacity="1" stroke-width="1" stroke-linecap="square" stroke-linejoin="bevel" transform="matrix(1,0,0,1,0,0)"
font-family="Inter" font-size="11" font-weight="700" font-style="normal" 
>
<polyline fill="none" vector-effect="none" points="45,6 45,26 " />
</g>

<g fill="#ffffff" fill-opacity="1" stroke="#0da6c5" stroke-opacity="1" stroke-width="1" stroke-linecap="square" stroke-linejoin="bevel" transform="matrix(1,0,0,1,0,0)"
font-family="Inter" font-size="11" font-weight="700" font-style="normal" 
>
</g>

<g fill="#1dccf0" fill-opacity="1" stroke="#0da6c5" stroke-opacity="1" stroke-width="1.2" stroke-linecap="square" stroke-linejoin="bevel" transform="matrix(1,0,0,1,56,4)"
font-family="Inter" font-size="11" font-weight="700" font-style="normal" 
>
<path vector-effect="none" fill-rule="evenodd" d="M0.5,3.5 C0.5,1.84315 1.84315,0.5 3.5,0.5 L71.5,0.5 C73.1569,0.5 74.5,1.84315 74.5,3.5 L74.5,20.5 C74.5,22.1569 73.1569,23.5 71.5,23.5 L3.5,23.5 C1.84315,23.5 0.5,22.1569 0.5,20.5 L0.5,3.5"/>
</g>

<g fill="#ffffff" fill-opacity="1" stroke="none" transform="matrix(1,0,0,1,56,4)"
font-family="Inter" font-size="11" font-weight="700" font-style="normal" 
>
<path vector-effect="none" fill-rule="nonzero" d="M10,9.39453 L10,8 L16.5703,8 L16.5703,9.39453 L14.1211,9.39453 L14.1211,16 L12.4492,16 L12.4492,9.39453 L10,9.39453 M17.6484,16 L17.6484,8 L19.3398,8 L19.3398,11.3008 L22.7734,11.3008 L22.7734,8 L24.4609,8 L24.4609,16 L22.7734,16 L22.7734,12.6953 L19.3398,12.6953 L19.3398,16 L17.6484,16 M32.543,8 L32.543,16 L31.082,16 L27.6016,10.9648 L27.543,10.9648 L27.543,16 L25.8516,16 L25.8516,8 L27.3359,8 L30.7891,13.0313 L30.8594,13.0313 L30.8594,8 L32.543,8 M33.9297,16 L33.9297,8 L35.6211,8 L35.6211,11.3008 L39.0547,11.3008 L39.0547,8 L40.7422,8 L40.7422,16 L39.0547,16 L39.0547,12.6953 L35.6211,12.6953 L35.6211,16 L33.9297,16 M42.1328,16 L42.1328,8 L45.3359,8 C45.9245,8 46.4154,8.08724 46.8086,8.26172 C47.2018,8.4362 47.4974,8.67773 47.6953,8.98633 C47.8932,9.29492 47.9922,9.64974 47.9922,10.0508 C47.9922,10.3633 47.9297,10.6374 47.8047,10.873 C47.6797,11.1087 47.5085,11.3014 47.291,11.4512 C47.0736,11.6009 46.8255,11.707 46.5469,11.7695 L46.5469,11.8477 C46.8516,11.8607 47.1374,11.9466 47.4043,12.1055 C47.6712,12.2643 47.888,12.4863 48.0547,12.7715 C48.2214,13.0566 48.3047,13.3958 48.3047,13.7891 C48.3047,14.2135 48.1999,14.5918 47.9902,14.9238 C47.7806,15.2559 47.4714,15.5182 47.0625,15.7109 C46.6536,15.9036 46.1497,16 45.5508,16 L42.1328,16 M43.8242,14.6172 L45.2031,14.6172 C45.6745,14.6172 46.0182,14.5267 46.2344,14.3457 C46.4505,14.1647 46.5586,13.9232 46.5586,13.6211 C46.5586,13.3997 46.5052,13.2044 46.3984,13.0352 C46.2917,12.8659 46.14,12.7331 45.9434,12.6367 C45.7467,12.5404 45.513,12.4922 45.2422,12.4922 L43.8242,12.4922 L43.8242,14.6172 M43.8242,11.3477 L45.0781,11.3477 C45.3099,11.3477 45.5163,11.3066 45.6973,11.2246 C45.8783,11.1426 46.0215,11.026 46.127,10.875 C46.2324,10.724 46.2852,10.543 46.2852,10.332 C46.2852,10.043 46.1829,9.8099 45.9785,9.63281 C45.7741,9.45573 45.4844,9.36719 45.1094,9.36719 L43.8242,9.36719 L43.8242,11.3477 M52.832,8 L52.832,16 L51.1406,16 L51.1406,9.60547 L51.0938,9.60547 L49.2617,10.7539 L49.2617,9.25391 L51.2422,8 L52.832,8"/>
</g>

<g fill="#ffffff" fill-opacity="1" stroke="none" transform="matrix(0.03125,0,0,0.03125,117,12)"
font-family="Inter" font-size="11" font-weight="700" font-style="normal" 
>
<path vector-effect="none" fill-rule="nonzero" d="M111.326,191.938 C120.545,201.158 135.517,201.158 144.737,191.938 L239.144,97.5313 C245.929,90.7458 247.921,80.6413 244.233,71.7907 C240.545,62.9401 231.989,57.1871 222.401,57.1871 L33.5875,57.2608 C24.0731,57.2608 15.4437,63.0137 11.7559,71.8644 C8.06815,80.715 10.1333,90.8195 16.845,97.605 L111.252,192.012 L111.326,191.938"/>
</g>

<g fill="none" stroke="#000000" stroke-opacity="1" stroke-width="13.7195" stroke-linecap="butt" stroke-linejoin="miter" stroke-miterlimit="4" transform="matrix(0.03125,0,0,0.03125,117,12)"
font-family="Inter" font-size="11" font-weight="700" font-style="normal" 
>
<path vector-effect="none" fill-rule="nonzero" d="M111.326,191.938 C120.545,201.158 135.517,201.158 144.737,191.938 L239.144,97.5313 C245.929,90.7458 247.921,80.6413 244.233,71.7907 C240.545,62.9401 231.989,57.1871 222.401,57.1871 L33.5875,57.2608 C24.0731,57.2608 15.4437,63.0137 11.7559,71.8644 C8.06815,80.715 10.1333,90.8195 16.845,97.605 L111.252,192.012 L111.326,191.938"/>
</g>

<g fill="#ffffff" fill-opacity="1" stroke="none" transform="matrix(1,0,0,1,56,4)"
font-family="Inter" font-size="11" font-weight="700" font-style="normal" 
>
</g>

<g fill="#ffffff" fill-opacity="1" stroke="#0da6c5" stroke-opacity="1" stroke-width="1" stroke-linecap="square" stroke-linejoin="bevel" transform="matrix(1,0,0,1,0,0)"
font-family="Inter" font-size="11" font-weight="700" font-style="normal" 
>
</g>

<g fill="#1dccf0" fill-opacity="1" stroke="#0da6c5" stroke-opacity="1" stroke-width="1.2" stroke-linecap="square" stroke-linejoin="bevel" transform="matrix(1,0,0,1,141,4)"
font-family="Inter" font-size="11" font-weight="700" font-style="normal" 
>
<path vector-effect="none" fill-rule="evenodd" d="M0.5,3.5 C0.5,1.84315 1.84315,0.5 3.5,0.5 L54,0.5 C55.6569,0.5 57,1.84315 57,3.5 L57,20.5 C57,22.1569 55.6569,23.5 54,23.5 L3.5,23.5 C1.84315,23.5 0.5,22.1569 0.5,20.5 L0.5,3.5"/>
</g>

<g fill="#ffffff" fill-opacity="1" stroke="none" transform="matrix(1,0,0,1,141,4)"
font-family="Inter" font-size="11" font-weight="700" font-style="normal" 
>
<path vector-effect="none" fill-rule="nonzero" d="M8.50781,17.3125 L8.50781,9.0625 L10.1484,9.0625 L10.1484,10.0703 L10.2227,10.0703 C10.2956,9.90885 10.4017,9.74414 10.541,9.57617 C10.6803,9.4082 10.8626,9.26758 11.0879,9.1543 C11.3132,9.04102 11.5938,8.98438 11.9297,8.98438 C12.3672,8.98438 12.7708,9.09831 13.1406,9.32617 C13.5104,9.55404 13.806,9.89648 14.0273,10.3535 C14.2487,10.8105 14.3594,11.3828 14.3594,12.0703 C14.3594,12.7396 14.252,13.304 14.0371,13.7637 C13.8223,14.2233 13.5306,14.571 13.1621,14.8066 C12.7936,15.0423 12.3815,15.1602 11.9258,15.1602 C11.6029,15.1602 11.3288,15.1068 11.1035,15 C10.8783,14.8932 10.694,14.7585 10.5508,14.5957 C10.4076,14.4329 10.2982,14.2682 10.2227,14.1016 L10.1719,14.1016 L10.1719,17.3125 L8.50781,17.3125 M10.1367,12.0625 C10.1367,12.4193 10.1862,12.7305 10.2852,12.9961 C10.3841,13.2617 10.5273,13.4681 10.7148,13.6152 C10.9023,13.7624 11.1302,13.8359 11.3984,13.8359 C11.6693,13.8359 11.8984,13.7611 12.0859,13.6113 C12.2734,13.4616 12.416,13.2533 12.5137,12.9863 C12.6113,12.7194 12.6602,12.4115 12.6602,12.0625 C12.6602,11.7161 12.612,11.4115 12.5156,11.1484 C12.4193,10.8854 12.2773,10.6797 12.0898,10.5313 C11.9023,10.3828 11.6719,10.3086 11.3984,10.3086 C11.1276,10.3086 10.8991,10.3802 10.7129,10.5234 C10.5267,10.6667 10.3841,10.8698 10.2852,11.1328 C10.1862,11.3958 10.1367,11.7057 10.1367,12.0625 M15.4609,15.0625 L15.4609,9.0625 L17.125,9.0625 L17.125,15.0625 L15.4609,15.0625 M16.2969,8.28906 C16.0495,8.28906 15.8379,8.20638 15.6621,8.04102 C15.4863,7.87565 15.3984,7.67708 15.3984,7.44531 C15.3984,7.21615 15.4863,7.01888 15.6621,6.85352 C15.8379,6.68815 16.0495,6.60547 16.2969,6.60547 C16.5443,6.60547 16.7559,6.68815 16.9316,6.85352 C17.1074,7.01888 17.1953,7.21615 17.1953,7.44531 C17.1953,7.67708 17.1074,7.87565 16.9316,8.04102 C16.7559,8.20638 16.5443,8.28906 16.2969,8.28906 M21.6367,9.0625 L21.6367,10.3125 L18.0234,10.3125 L18.0234,9.0625 L21.6367,9.0625 M18.8438,7.625 L20.5078,7.625 L20.5078,13.2188 C20.5078,13.3724 20.5313,13.4915 20.5781,13.5762 C20.625,13.6608 20.6908,13.7201 20.7754,13.7539 C20.86,13.7878 20.9583,13.8047 21.0703,13.8047 C21.1484,13.8047 21.2266,13.7975 21.3047,13.7832 C21.3828,13.7689 21.4427,13.7578 21.4844,13.75 L21.7461,14.9883 C21.6628,15.0143 21.5456,15.0449 21.3945,15.0801 C21.2435,15.1152 21.0599,15.1367 20.8438,15.1445 C20.4427,15.1602 20.0918,15.1068 19.791,14.9844 C19.4902,14.862 19.2565,14.6719 19.0898,14.4141 C18.9232,14.1563 18.8411,13.8307 18.8438,13.4375 L18.8438,7.625 M25.3594,15.1797 C24.7448,15.1797 24.2168,15.0488 23.7754,14.7871 C23.334,14.5254 22.9954,14.1615 22.7598,13.6953 C22.5241,13.2292 22.4063,12.6927 22.4063,12.0859 C22.4063,11.4714 22.5254,10.9316 22.7637,10.4668 C23.002,10.002 23.3411,9.63867 23.7813,9.37695 C24.2214,9.11523 24.7448,8.98438 25.3516,8.98438 C25.875,8.98438 26.3333,9.07943 26.7266,9.26953 C27.1198,9.45964 27.431,9.72656 27.6602,10.0703 C27.8893,10.4141 28.0156,10.8177 28.0391,11.2813 L26.4688,11.2813 C26.4245,10.9818 26.3079,10.7402 26.1191,10.5566 C25.9303,10.373 25.6836,10.2813 25.3789,10.2813 C25.1211,10.2813 24.8965,10.3509 24.7051,10.4902 C24.5137,10.6296 24.3646,10.832 24.2578,11.0977 C24.151,11.3633 24.0977,11.6849 24.0977,12.0625 C24.0977,12.4453 24.1504,12.7708 24.2559,13.0391 C24.3613,13.3073 24.5104,13.5117 24.7031,13.6523 C24.8958,13.793 25.1211,13.8633 25.3789,13.8633 C25.569,13.8633 25.7402,13.8242 25.8926,13.7461 C26.0449,13.668 26.1712,13.554 26.2715,13.4043 C26.3717,13.2546 26.4375,13.0742 26.4688,12.8633 L28.0391,12.8633 C28.013,13.3216 27.8887,13.7246 27.666,14.0723 C27.4434,14.4199 27.1367,14.6914 26.7461,14.8867 C26.3555,15.082 25.8932,15.1797 25.3594,15.1797 M30.7656,11.5938 L30.7656,15.0625 L29.1016,15.0625 L29.1016,7.0625 L30.7188,7.0625 L30.7188,10.1211 L30.7891,10.1211 C30.9245,9.76693 31.1432,9.48893 31.4453,9.28711 C31.7474,9.08529 32.1263,8.98438 32.582,8.98438 C32.9987,8.98438 33.3626,9.07487 33.6738,9.25586 C33.985,9.43685 34.2272,9.69596 34.4004,10.0332 C34.5736,10.3704 34.6589,10.7734 34.6563,11.2422 L34.6563,15.0625 L32.9922,15.0625 L32.9922,11.5391 C32.9948,11.1693 32.9017,10.8815 32.7129,10.6758 C32.5241,10.4701 32.2604,10.3672 31.9219,10.3672 C31.6953,10.3672 31.4954,10.4154 31.3223,10.5117 C31.1491,10.6081 31.0137,10.748 30.916,10.9316 C30.8184,11.1152 30.7682,11.3359 30.7656,11.5938 "/>
</g>

<g fill="#ffffff" fill-opacity="1" stroke="none" transform="matrix(0.03125,0,0,0.03125,184.5,12)"
font-family="Inter" font-size="11" font-weight="700" font-style="normal" 
>
<path vector-effect="none" fill-rule="nonzero" d="M111.326,191.938 C120.545,201.158 135.517,201.158 144.737,191.938 L239.144,97.5313 C245.929,90.7458 247.921,80.6413 244.233,71.7907 C240.545,62.9401 231.989,57.1871 222.401,57.1871 L33.5875,57.2608 C24.0731,57.2608 15.4437,63.0137 11.7559,71.8644 C8.06815,80.715 10.1333,90.8195 16.845,97.605 L111.252,192.012 L111.326,191.938"/>
</g>

<g fill="none" stroke="#000000" stroke-opacity="1" stroke-width="13.7195" stroke-linecap="butt" stroke-linejoin="miter" stroke-miterlimit="4" transform="matrix(0.03125,0,0,0.03125,184.5,12)"
font-family="Inter" font-size="11" font-weight="700" font-style="normal" 
>
<path vector-effect="none" fill-rule="nonzero" d="M111.326,191.938 C120.545,201.158 135.517,201.158 144.737,191.938 L239.144,97.5313 C245.929,90.7458 247.921,80.6413 244.233,71.7907 C240.545,62.9401 231.989,57.1871 222.401,57.1871 L33.5875,57.2608 C24.0731,57.2608 15.4437,63.0137 11.7559,71.8644 C8.06815,80.715 10.1333,90.8195 16.845,97.605 L111.252,192.012 L111.326,191.938"/>
</g>

<g fill="#ffffff" fill-opacity="1" stroke="none" transform="matrix(1,0,0,1,141,4)"
font-family="Inter" font-size="11" font-weight="700" font-style="normal" 
>
</g>

<g fill="#ffffff" fill-opacity="1" stroke="#0da6c5" stroke-opacity="1" stroke-width="1" stroke-linecap="square" stroke-linejoin="bevel" transform="matrix(1,0,0,1,0,0)"
font-family="Inter" font-size="11" font-weight="700" font-style="normal" 
>
</g>

<g fill="none" stroke="#000000" stroke-opacity="1" stroke-width="1" stroke-linecap="square" stroke-linejoin="bevel" transform="matrix(1,0,0,1,0,0)"
font-family=".AppleSystemUIFont" font-size="13" font-weight="400" font-style="normal" 
>
</g>
</g>
</svg>
