<?xml version="1.0" encoding="UTF-8" standalone="no"?>
<svg width="124.883mm" height="21.1667mm"
 viewBox="0 0 354 60"
 xmlns="http://www.w3.org/2000/svg" xmlns:xlink="http://www.w3.org/1999/xlink" version="1.2" baseProfile="tiny">
<title>Abstract block</title>
<desc>block_dashboard_controller_stepper_event</desc>
<defs>
</defs>
<g fill="none" stroke="black" stroke-width="1" fill-rule="evenodd" stroke-linecap="square" stroke-linejoin="bevel" >

<g fill="none" stroke="#000000" stroke-opacity="1" stroke-width="1" stroke-linecap="square" stroke-linejoin="bevel" transform="matrix(1,0,0,1,0,0)"
font-family=".AppleSystemUIFont" font-size="13" font-weight="400" font-style="normal" 
>
</g>

<g fill="none" stroke="#000000" stroke-opacity="1" stroke-width="1" stroke-linecap="square" stroke-linejoin="bevel" transform="matrix(1,0,0,1,0,0)"
font-family=".AppleSystemUIFont" font-size="13" font-weight="400" font-style="normal" 
>
</g>

<g fill="#009f94" fill-opacity="1" stroke="#00645c" stroke-opacity="1" stroke-width="1.2" stroke-linecap="square" stroke-linejoin="bevel" transform="matrix(1,0,0,1,0,0)"
font-family=".AppleSystemUIFont" font-size="13" font-weight="400" font-style="normal" 
>
<path vector-effect="none" fill-rule="evenodd" d="M0.5,20.5 L1,18.6516 L1,18 L1.77836,17.1565 L2.58892,16.3401 L3.43062,15.551 L4.30242,14.7891 L5.20325,14.0544 L6.13206,13.3469 L7.08779,12.6667 L8.06939,12.0136 L9.0758,11.3878 L10.106,10.7891 L11.1588,10.2177 L12.2333,9.67347 L13.3284,9.15646 L14.4431,8.66667 L15.5762,8.20408 L16.7267,7.76871 L17.8936,7.36054 L19.0758,6.97959 L20.2723,6.62585 L21.4819,6.29932 L22.7037,6 L23.9366,5.72789 L25.1795,5.48299 L26.4314,5.26531 L27.6912,5.07483 L28.9578,4.91156 L30.2303,4.77551 L31.5075,4.66667 L32.7885,4.58503 L34.072,4.53061 L35.3572,4.5034 L36.6428,4.5034 L37.928,4.53061 L39.2115,4.58503 L40.4925,4.66667 L41.7697,4.77551 L43.0422,4.91156 L44.3088,5.07483 L45.5686,5.26531 L46.8205,5.48299 L48.0634,5.72789 L49.2963,6 L50.5181,6.29932 L51.7277,6.62585 L52.9242,6.97959 L54.1064,7.36054 L55.2733,7.76871 L56.4238,8.20408 L57.5569,8.66667 L58.6716,9.15646 L59.7667,9.67347 L60.8412,10.2177 L61.894,10.7891 L62.9242,11.3878 L63.9306,12.0136 L64.9122,12.6667 L65.8679,13.3469 L66.7968,14.0544 L67.6976,14.7891 L68.5694,15.551 L69.4111,16.3401 L69.5698,16.5 L349.5,16.5 L351.519,17.0461 L352.954,18.4811 L353.5,20.5 L353.5,47.5 L352.954,49.5189 L351.519,50.9539 L349.5,51.5 L34.375,51.5 L33.584,51.9766 L32.8281,52.6875 L32.002,53.6797 L31,55 L30.2441,55.6602 L29.4531,56.1563 L28.5918,56.5117 L27.625,56.75 L26.5176,56.8945 L25.2344,56.9688 L23.7402,56.9961 L22,57 L20.2598,56.9961 L18.7656,56.9688 L17.4824,56.8945 L16.375,56.75 L15.4082,56.5117 L14.5469,56.1563 L13.7559,55.6602 L13,55 L11.998,53.6797 L11.1719,52.6875 L10.416,51.9766 L9.625,51.5 L4.5,51.5 L2.48112,50.9539 L1.04612,49.5189 L0.5,47.5 L0.5,20.5"/>
</g>

<g fill="#ffffff" fill-opacity="1" stroke="none" transform="matrix(1,0,0,1,0,0)"
font-family="Inter" font-size="11" font-weight="700" font-style="normal" 
>
<path vector-effect="none" fill-rule="nonzero" d="M53.4258,36.8281 L51.793,30.8281 L53.4766,30.8281 L54.4063,34.8594 L54.4609,34.8594 L55.4297,30.8281 L57.082,30.8281 L58.0664,34.8359 L58.1172,34.8359 L59.0313,30.8281 L60.7109,30.8281 L59.082,36.8281 L57.3203,36.8281 L56.2891,33.0547 L56.2148,33.0547 L55.1836,36.8281 L53.4258,36.8281 M63.25,33.3594 L63.25,36.8281 L61.5859,36.8281 L61.5859,28.8281 L63.2031,28.8281 L63.2031,31.8867 L63.2734,31.8867 C63.4089,31.5326 63.6276,31.2546 63.9297,31.0527 C64.2318,30.8509 64.6107,30.75 65.0664,30.75 C65.4831,30.75 65.847,30.8405 66.1582,31.0215 C66.4694,31.2025 66.7116,31.4616 66.8848,31.7988 C67.0579,32.1361 67.1432,32.5391 67.1406,33.0078 L67.1406,36.8281 L65.4766,36.8281 L65.4766,33.3047 C65.4792,32.9349 65.3861,32.6471 65.1973,32.4414 C65.0085,32.2357 64.7448,32.1328 64.4063,32.1328 C64.1797,32.1328 63.9798,32.181 63.8066,32.2773 C63.6335,32.3737 63.498,32.5137 63.4004,32.6973 C63.3027,32.8809 63.2526,33.1016 63.25,33.3594 M71.1797,36.9453 C70.5625,36.9453 70.0319,36.8197 69.5879,36.5684 C69.1439,36.3171 68.8021,35.9603 68.5625,35.498 C68.3229,35.0358 68.2031,34.4883 68.2031,33.8555 C68.2031,33.2383 68.3229,32.6966 68.5625,32.2305 C68.8021,31.7643 69.14,31.401 69.5762,31.1406 C70.0124,30.8802 70.5247,30.75 71.1133,30.75 C71.5091,30.75 71.8783,30.8132 72.2207,30.9395 C72.5632,31.0658 72.8626,31.2552 73.1191,31.5078 C73.3757,31.7604 73.5755,32.0775 73.7188,32.459 C73.862,32.8405 73.9336,33.2865 73.9336,33.7969 L73.9336,34.2539 L68.8672,34.2539 L68.8672,33.2227 L72.3672,33.2227 C72.3672,32.9831 72.3151,32.7708 72.2109,32.5859 C72.1068,32.401 71.9629,32.2559 71.7793,32.1504 C71.5957,32.0449 71.3828,31.9922 71.1406,31.9922 C70.888,31.9922 70.6647,32.0501 70.4707,32.166 C70.2767,32.2819 70.125,32.4368 70.0156,32.6309 C69.9063,32.8249 69.8503,33.0404 69.8477,33.2773 L69.8477,34.2578 C69.8477,34.5547 69.903,34.8112 70.0137,35.0273 C70.1243,35.2435 70.2813,35.4102 70.4844,35.5273 C70.6875,35.6445 70.9284,35.7031 71.207,35.7031 C71.3919,35.7031 71.5612,35.6771 71.7148,35.625 C71.8685,35.5729 72,35.4948 72.1094,35.3906 C72.2188,35.2865 72.3021,35.1589 72.3594,35.0078 L73.8984,35.1094 C73.8203,35.4792 73.6608,35.8014 73.4199,36.0762 C73.179,36.3509 72.8691,36.5645 72.4902,36.7168 C72.1113,36.8691 71.6745,36.9453 71.1797,36.9453 M76.6719,33.3594 L76.6719,36.8281 L75.0078,36.8281 L75.0078,30.8281 L76.5938,30.8281 L76.5938,31.8867 L76.6641,31.8867 C76.7969,31.5378 77.0195,31.2611 77.332,31.0566 C77.6445,30.8522 78.0234,30.75 78.4688,30.75 C78.8854,30.75 79.2487,30.8411 79.5586,31.0234 C79.8685,31.2057 80.1094,31.4655 80.2813,31.8027 C80.4531,32.14 80.5391,32.5417 80.5391,33.0078 L80.5391,36.8281 L78.875,36.8281 L78.875,33.3047 C78.8776,32.9375 78.7839,32.6504 78.5938,32.4434 C78.4036,32.2363 78.1419,32.1328 77.8086,32.1328 C77.5846,32.1328 77.3874,32.181 77.2168,32.2773 C77.0462,32.3737 76.9134,32.5137 76.8184,32.6973 C76.7233,32.8809 76.6745,33.1016 76.6719,33.3594 M89.375,32.5391 L87.8516,32.6328 C87.8255,32.5026 87.7695,32.3848 87.6836,32.2793 C87.5977,32.1738 87.485,32.0892 87.3457,32.0254 C87.2064,31.9616 87.0404,31.9297 86.8477,31.9297 C86.5898,31.9297 86.3724,31.9837 86.1953,32.0918 C86.0182,32.1999 85.9297,32.3438 85.9297,32.5234 C85.9297,32.6667 85.987,32.7878 86.1016,32.8867 C86.2161,32.9857 86.4128,33.0651 86.6914,33.125 L87.7773,33.3438 C88.3607,33.4635 88.7956,33.6563 89.082,33.9219 C89.3685,34.1875 89.5117,34.5365 89.5117,34.9688 C89.5117,35.362 89.3965,35.707 89.166,36.0039 C88.9355,36.3008 88.6204,36.5319 88.2207,36.6973 C87.821,36.8626 87.3607,36.9453 86.8398,36.9453 C86.0456,36.9453 85.4134,36.7793 84.9434,36.4473 C84.4733,36.1152 84.1979,35.6628 84.1172,35.0898 L85.7539,35.0039 C85.8034,35.2461 85.9232,35.4303 86.1133,35.5566 C86.3034,35.6829 86.5469,35.7461 86.8438,35.7461 C87.1354,35.7461 87.3704,35.6895 87.5488,35.5762 C87.7272,35.4629 87.8177,35.3164 87.8203,35.1367 C87.8177,34.9857 87.7539,34.8613 87.6289,34.7637 C87.5039,34.666 87.3112,34.5911 87.0508,34.5391 L86.0117,34.332 C85.4258,34.2148 84.9902,34.0117 84.7051,33.7227 C84.4199,33.4336 84.2773,33.0651 84.2773,32.6172 C84.2773,32.2318 84.3822,31.8997 84.5918,31.6211 C84.8014,31.3424 85.097,31.1276 85.4785,30.9766 C85.86,30.8255 86.3073,30.75 86.8203,30.75 C87.5781,30.75 88.1751,30.9102 88.6113,31.2305 C89.0475,31.5508 89.3021,31.987 89.375,32.5391 M93.7461,30.8281 L93.7461,32.0781 L90.1328,32.0781 L90.1328,30.8281 L93.7461,30.8281 M90.9531,29.3906 L92.6172,29.3906 L92.6172,34.9844 C92.6172,35.138 92.6406,35.2572 92.6875,35.3418 C92.7344,35.4264 92.8001,35.4857 92.8848,35.5195 C92.9694,35.5534 93.0677,35.5703 93.1797,35.5703 C93.2578,35.5703 93.3359,35.5632 93.4141,35.5488 C93.4922,35.5345 93.5521,35.5234 93.5938,35.5156 L93.8555,36.7539 C93.7721,36.7799 93.6549,36.8105 93.5039,36.8457 C93.3529,36.8809 93.1693,36.9023 92.9531,36.9102 C92.5521,36.9258 92.2012,36.8724 91.9004,36.75 C91.5996,36.6276 91.3659,36.4375 91.1992,36.1797 C91.0326,35.9219 90.9505,35.5964 90.9531,35.2031 L90.9531,29.3906 M97.4922,36.9453 C96.875,36.9453 96.3444,36.8197 95.9004,36.5684 C95.4564,36.3171 95.1146,35.9603 94.875,35.498 C94.6354,35.0358 94.5156,34.4883 94.5156,33.8555 C94.5156,33.2383 94.6354,32.6966 94.875,32.2305 C95.1146,31.7643 95.4525,31.401 95.8887,31.1406 C96.3249,30.8802 96.8372,30.75 97.4258,30.75 C97.8216,30.75 98.1908,30.8132 98.5332,30.9395 C98.8757,31.0658 99.1751,31.2552 99.4316,31.5078 C99.6882,31.7604 99.888,32.0775 100.031,32.459 C100.174,32.8405 100.246,33.2865 100.246,33.7969 L100.246,34.2539 L95.1797,34.2539 L95.1797,33.2227 L98.6797,33.2227 C98.6797,32.9831 98.6276,32.7708 98.5234,32.5859 C98.4193,32.401 98.2754,32.2559 98.0918,32.1504 C97.9082,32.0449 97.6953,31.9922 97.4531,31.9922 C97.2005,31.9922 96.9772,32.0501 96.7832,32.166 C96.5892,32.2819 96.4375,32.4368 96.3281,32.6309 C96.2188,32.8249 96.1628,33.0404 96.1602,33.2773 L96.1602,34.2578 C96.1602,34.5547 96.2155,34.8112 96.3262,35.0273 C96.4368,35.2435 96.5938,35.4102 96.7969,35.5273 C97,35.6445 97.2409,35.7031 97.5195,35.7031 C97.7044,35.7031 97.8737,35.6771 98.0273,35.625 C98.181,35.5729 98.3125,35.4948 98.4219,35.3906 C98.5313,35.2865 98.6146,35.1589 98.6719,35.0078 L100.211,35.1094 C100.133,35.4792 99.9733,35.8014 99.7324,36.0762 C99.4915,36.3509 99.1816,36.5645 98.8027,36.7168 C98.4238,36.8691 97.987,36.9453 97.4922,36.9453 M101.32,39.0781 L101.32,30.8281 L102.961,30.8281 L102.961,31.8359 L103.035,31.8359 C103.108,31.6745 103.214,31.5098 103.354,31.3418 C103.493,31.1738 103.675,31.0332 103.9,30.9199 C104.126,30.8066 104.406,30.75 104.742,30.75 C105.18,30.75 105.583,30.8639 105.953,31.0918 C106.323,31.3197 106.618,31.6621 106.84,32.1191 C107.061,32.5762 107.172,33.1484 107.172,33.8359 C107.172,34.5052 107.064,35.0697 106.85,35.5293 C106.635,35.9889 106.343,36.3366 105.975,36.5723 C105.606,36.8079 105.194,36.9258 104.738,36.9258 C104.415,36.9258 104.141,36.8724 103.916,36.7656 C103.691,36.6589 103.507,36.5241 103.363,36.3613 C103.22,36.1986 103.111,36.0339 103.035,35.8672 L102.984,35.8672 L102.984,39.0781 L101.32,39.0781 M102.949,33.8281 C102.949,34.1849 102.999,34.4961 103.098,34.7617 C103.197,35.0273 103.34,35.2337 103.527,35.3809 C103.715,35.528 103.943,35.6016 104.211,35.6016 C104.482,35.6016 104.711,35.5267 104.898,35.377 C105.086,35.2272 105.229,35.0189 105.326,34.752 C105.424,34.485 105.473,34.1771 105.473,33.8281 C105.473,33.4818 105.424,33.1771 105.328,32.9141 C105.232,32.651 105.09,32.4453 104.902,32.2969 C104.715,32.1484 104.484,32.0742 104.211,32.0742 C103.94,32.0742 103.712,32.1458 103.525,32.2891 C103.339,32.4323 103.197,32.6354 103.098,32.8984 C102.999,33.1615 102.949,33.4714 102.949,33.8281 M108.273,39.0781 L108.273,30.8281 L109.914,30.8281 L109.914,31.8359 L109.988,31.8359 C110.061,31.6745 110.167,31.5098 110.307,31.3418 C110.446,31.1738 110.628,31.0332 110.854,30.9199 C111.079,30.8066 111.359,30.75 111.695,30.75 C112.133,30.75 112.536,30.8639 112.906,31.0918 C113.276,31.3197 113.572,31.6621 113.793,32.1191 C114.014,32.5762 114.125,33.1484 114.125,33.8359 C114.125,34.5052 114.018,35.0697 113.803,35.5293 C113.588,35.9889 113.296,36.3366 112.928,36.5723 C112.559,36.8079 112.147,36.9258 111.691,36.9258 C111.368,36.9258 111.094,36.8724 110.869,36.7656 C110.644,36.6589 110.46,36.5241 110.316,36.3613 C110.173,36.1986 110.064,36.0339 109.988,35.8672 L109.938,35.8672 L109.938,39.0781 L108.273,39.0781 M109.902,33.8281 C109.902,34.1849 109.952,34.4961 110.051,34.7617 C110.15,35.0273 110.293,35.2337 110.48,35.3809 C110.668,35.528 110.896,35.6016 111.164,35.6016 C111.435,35.6016 111.664,35.5267 111.852,35.377 C112.039,35.2272 112.182,35.0189 112.279,34.752 C112.377,34.485 112.426,34.1771 112.426,33.8281 C112.426,33.4818 112.378,33.1771 112.281,32.9141 C112.185,32.651 112.043,32.4453 111.855,32.2969 C111.668,32.1484 111.438,32.0742 111.164,32.0742 C110.893,32.0742 110.665,32.1458 110.479,32.2891 C110.292,32.4323 110.15,32.6354 110.051,32.8984 C109.952,33.1615 109.902,33.4714 109.902,33.8281 M117.961,36.9453 C117.344,36.9453 116.813,36.8197 116.369,36.5684 C115.925,36.3171 115.583,35.9603 115.344,35.498 C115.104,35.0358 114.984,34.4883 114.984,33.8555 C114.984,33.2383 115.104,32.6966 115.344,32.2305 C115.583,31.7643 115.921,31.401 116.357,31.1406 C116.794,30.8802 117.306,30.75 117.895,30.75 C118.29,30.75 118.66,30.8132 119.002,30.9395 C119.344,31.0658 119.644,31.2552 119.9,31.5078 C120.157,31.7604 120.357,32.0775 120.5,32.459 C120.643,32.8405 120.715,33.2865 120.715,33.7969 L120.715,34.2539 L115.648,34.2539 L115.648,33.2227 L119.148,33.2227 C119.148,32.9831 119.096,32.7708 118.992,32.5859 C118.888,32.401 118.744,32.2559 118.561,32.1504 C118.377,32.0449 118.164,31.9922 117.922,31.9922 C117.669,31.9922 117.446,32.0501 117.252,32.166 C117.058,32.2819 116.906,32.4368 116.797,32.6309 C116.688,32.8249 116.632,33.0404 116.629,33.2773 L116.629,34.2578 C116.629,34.5547 116.684,34.8112 116.795,35.0273 C116.906,35.2435 117.063,35.4102 117.266,35.5273 C117.469,35.6445 117.71,35.7031 117.988,35.7031 C118.173,35.7031 118.342,35.6771 118.496,35.625 C118.65,35.5729 118.781,35.4948 118.891,35.3906 C119,35.2865 119.083,35.1589 119.141,35.0078 L120.68,35.1094 C120.602,35.4792 120.442,35.8014 120.201,36.0762 C119.96,36.3509 119.65,36.5645 119.271,36.7168 C118.893,36.8691 118.456,36.9453 117.961,36.9453 M121.789,36.8281 L121.789,30.8281 L123.402,30.8281 L123.402,31.875 L123.465,31.875 C123.574,31.5026 123.758,31.2207 124.016,31.0293 C124.273,30.8379 124.57,30.7422 124.906,30.7422 C124.99,30.7422 125.079,30.7474 125.176,30.7578 C125.272,30.7682 125.357,30.7826 125.43,30.8008 L125.43,32.2773 C125.352,32.2539 125.243,32.2331 125.105,32.2148 C124.967,32.1966 124.841,32.1875 124.727,32.1875 C124.482,32.1875 124.264,32.2402 124.072,32.3457 C123.881,32.4512 123.73,32.5977 123.619,32.7852 C123.508,32.9727 123.453,33.1888 123.453,33.4336 L123.453,36.8281 L121.789,36.8281"/>
</g>

<g fill="#ffffff" fill-opacity="1" stroke="none" transform="matrix(1,0,0,1,0,0)"
font-family="Inter" font-size="11" font-weight="700" font-style="normal" 
>
<path vector-effect="none" fill-rule="nonzero" d="M259.164,38 L259.164,32 L260.828,32 L260.828,38 L259.164,38 M260,31.2266 C259.753,31.2266 259.541,31.1439 259.365,30.9785 C259.189,30.8132 259.102,30.6146 259.102,30.3828 C259.102,30.1536 259.189,29.9564 259.365,29.791 C259.541,29.6257 259.753,29.543 260,29.543 C260.247,29.543 260.459,29.6257 260.635,29.791 C260.811,29.9564 260.898,30.1536 260.898,30.3828 C260.898,30.6146 260.811,30.8132 260.635,30.9785 C260.459,31.1439 260.247,31.2266 260,31.2266 M267.141,33.7109 L265.617,33.8047 C265.591,33.6745 265.535,33.5566 265.449,33.4512 C265.363,33.3457 265.251,33.2611 265.111,33.1973 C264.972,33.1335 264.806,33.1016 264.613,33.1016 C264.355,33.1016 264.138,33.1556 263.961,33.2637 C263.784,33.3717 263.695,33.5156 263.695,33.6953 C263.695,33.8385 263.753,33.9596 263.867,34.0586 C263.982,34.1576 264.178,34.237 264.457,34.2969 L265.543,34.5156 C266.126,34.6354 266.561,34.8281 266.848,35.0938 C267.134,35.3594 267.277,35.7083 267.277,36.1406 C267.277,36.5339 267.162,36.8789 266.932,37.1758 C266.701,37.4727 266.386,37.7038 265.986,37.8691 C265.587,38.0345 265.126,38.1172 264.605,38.1172 C263.811,38.1172 263.179,37.9512 262.709,37.6191 C262.239,37.2871 261.964,36.8346 261.883,36.2617 L263.52,36.1758 C263.569,36.418 263.689,36.6022 263.879,36.7285 C264.069,36.8548 264.313,36.918 264.609,36.918 C264.901,36.918 265.136,36.8613 265.314,36.748 C265.493,36.6348 265.583,36.4883 265.586,36.3086 C265.583,36.1576 265.52,36.0332 265.395,35.9355 C265.27,35.8379 265.077,35.763 264.816,35.7109 L263.777,35.5039 C263.191,35.3867 262.756,35.1836 262.471,34.8945 C262.186,34.6055 262.043,34.237 262.043,33.7891 C262.043,33.4036 262.148,33.0716 262.357,32.793 C262.567,32.5143 262.863,32.2995 263.244,32.1484 C263.626,31.9974 264.073,31.9219 264.586,31.9219 C265.344,31.9219 265.941,32.082 266.377,32.4023 C266.813,32.7227 267.068,33.1589 267.141,33.7109 "/>
</g>

<g fill="#ffffff" fill-opacity="1" stroke="none" transform="matrix(0.95,0,0,0.95,11.6,25.6)"
font-family="Inter" font-size="11" font-weight="700" font-style="normal" 
>
<path vector-effect="none" fill-rule="nonzero" d="M2.19896,4.65234 C1.18891,4.65234 0.375703,5.46549 0.375703,6.47555 L0.375703,8.579 C1.00152,8.60331 1.67842,9.11362 1.67842,9.74561 L1.67842,14.2544 C1.67842,14.8864 1.00152,15.3967 0.375703,15.421 L0.375703,17.5245 C0.375703,18.5345 1.18891,19.3477 2.19896,19.3477 L21.8479,19.3477 C22.858,19.3477 23.6711,18.5345 23.6711,17.5245 L23.6711,6.47555 C23.6711,5.46549 22.858,4.65234 21.8479,4.65234 L2.19896,4.65234 M6.71936,9.23098 C8.56166,9.23097 10.0552,10.7245 10.0552,12.5668 C10.0552,14.4091 8.56167,15.9026 6.71936,15.9026 C4.87705,15.9026 3.38355,14.4091 3.38355,12.5668 C3.38355,10.7245 4.87705,9.23097 6.71936,9.23098 M19.875,9.24873 C20.7082,9.24871 21.3837,9.92418 21.3837,10.7574 C21.3837,11.5906 20.7082,12.266 19.875,12.266 C19.0418,12.266 18.3664,11.5906 18.3664,10.7574 C18.3664,9.9242 19.0418,9.24874 19.875,9.24873 M17.4318,12.8825 C18.265,12.8825 18.9404,13.558 18.9404,14.3912 C18.9404,15.2243 18.2649,15.8998 17.4318,15.8998 C16.5986,15.8998 15.9231,15.2244 15.9231,14.3912 C15.9231,13.5579 16.5985,12.8825 17.4318,12.8825 "/>
</g>

<g fill="none" stroke="#000000" stroke-opacity="1" stroke-width="0.54" stroke-linecap="butt" stroke-linejoin="miter" stroke-miterlimit="4" transform="matrix(0.95,0,0,0.95,11.6,25.6)"
font-family="Inter" font-size="11" font-weight="700" font-style="normal" 
>
<path vector-effect="none" fill-rule="nonzero" d="M2.19896,4.65234 C1.18891,4.65234 0.375703,5.46549 0.375703,6.47555 L0.375703,8.579 C1.00152,8.60331 1.67842,9.11362 1.67842,9.74561 L1.67842,14.2544 C1.67842,14.8864 1.00152,15.3967 0.375703,15.421 L0.375703,17.5245 C0.375703,18.5345 1.18891,19.3477 2.19896,19.3477 L21.8479,19.3477 C22.858,19.3477 23.6711,18.5345 23.6711,17.5245 L23.6711,6.47555 C23.6711,5.46549 22.858,4.65234 21.8479,4.65234 L2.19896,4.65234 M6.71936,9.23098 C8.56166,9.23097 10.0552,10.7245 10.0552,12.5668 C10.0552,14.4091 8.56167,15.9026 6.71936,15.9026 C4.87705,15.9026 3.38355,14.4091 3.38355,12.5668 C3.38355,10.7245 4.87705,9.23097 6.71936,9.23098 M19.875,9.24873 C20.7082,9.24871 21.3837,9.92418 21.3837,10.7574 C21.3837,11.5906 20.7082,12.266 19.875,12.266 C19.0418,12.266 18.3664,11.5906 18.3664,10.7574 C18.3664,9.9242 19.0418,9.24874 19.875,9.24873 M17.4318,12.8825 C18.265,12.8825 18.9404,13.558 18.9404,14.3912 C18.9404,15.2243 18.2649,15.8998 17.4318,15.8998 C16.5986,15.8998 15.9231,15.2244 15.9231,14.3912 C15.9231,13.5579 16.5985,12.8825 17.4318,12.8825 "/>
</g>

<g fill="#000000" fill-opacity="1" stroke="none" transform="matrix(0.95,0,0,0.95,11.6,25.6)"
font-family="Inter" font-size="11" font-weight="700" font-style="normal" 
>
<path vector-effect="none" fill-rule="nonzero" d="M0.108328,15.3227 L0.103298,8.65983 L1.21825,8.7259 L1.75102,9.37791 L1.70662,12.9064 L1.66222,14.5556 L1.04066,15.0542 L0.108328,15.3227"/>
</g>

<g fill="#000000" fill-opacity="1" stroke="none" transform="matrix(0.95,0,0,0.95,11.6,25.6)"
font-family="Inter" font-size="11" font-weight="700" font-style="normal" 
>
<circle cx="6.70111" cy="12.5452" r="1.68266"/>
</g>

<g fill="none" stroke="#000000" stroke-opacity="1" stroke-width="0.54" stroke-linecap="butt" stroke-linejoin="miter" stroke-miterlimit="4" transform="matrix(0.95,0,0,0.95,11.6,25.6)"
font-family="Inter" font-size="11" font-weight="700" font-style="normal" 
>
<circle cx="6.70111" cy="12.5452" r="1.68266"/>
</g>

<g fill="#000000" fill-opacity="1" stroke="none" transform="matrix(0.95,0,0,0.95,11.6,25.6)"
font-family="Inter" font-size="11" font-weight="700" font-style="normal" 
opacity="0.858824" >
<path vector-effect="none" fill-rule="evenodd" d="M8.42109,18.1373 C8.42109,18.0846 8.46385,18.0418 8.51661,18.0418 L15.4834,18.0418 C15.5361,18.0418 15.5789,18.0846 15.5789,18.1373 L15.5789,18.1373 C15.5789,18.1901 15.5361,18.2329 15.4834,18.2329 L8.51661,18.2329 C8.46385,18.2329 8.42109,18.1901 8.42109,18.1373 L8.42109,18.1373"/>
</g>

<g fill="none" stroke="#000000" stroke-opacity="1" stroke-width="0.437534" stroke-linecap="butt" stroke-linejoin="miter" stroke-miterlimit="4" transform="matrix(0.95,0,0,0.95,11.6,25.6)"
font-family="Inter" font-size="11" font-weight="700" font-style="normal" 
>
<path vector-effect="none" fill-rule="evenodd" d="M8.42109,18.1373 C8.42109,18.0846 8.46385,18.0418 8.51661,18.0418 L15.4834,18.0418 C15.5361,18.0418 15.5789,18.0846 15.5789,18.1373 L15.5789,18.1373 C15.5789,18.1901 15.5361,18.2329 15.4834,18.2329 L8.51661,18.2329 C8.46385,18.2329 8.42109,18.1901 8.42109,18.1373 L8.42109,18.1373"/>
</g>

<g fill="#ffffff" fill-opacity="1" stroke="none" transform="matrix(1,0,0,1,0,0)"
font-family="Inter" font-size="11" font-weight="700" font-style="normal" 
>
</g>

<g fill="#ffffff" fill-opacity="1" stroke="#00645c" stroke-opacity="1" stroke-width="1" stroke-linecap="square" stroke-linejoin="bevel" transform="matrix(1,0,0,1,0,0)"
font-family="Inter" font-size="11" font-weight="700" font-style="normal" 
>
<polyline fill="none" vector-effect="none" points="45,27 45,47 " />
</g>

<g fill="#009f94" fill-opacity="1" stroke="#00645c" stroke-opacity="1" stroke-width="1.2" stroke-linecap="square" stroke-linejoin="bevel" transform="matrix(1,0,0,1,132,22)"
font-family="Inter" font-size="11" font-weight="700" font-style="normal" 
>
<path vector-effect="none" fill-rule="evenodd" d="M0.5,3.5 C0.5,1.84315 1.84315,0.5 3.5,0.5 L61.5,0.5 C63.1569,0.5 64.5,1.84315 64.5,3.5 L64.5,20.5 C64.5,22.1569 63.1569,23.5 61.5,23.5 L3.5,23.5 C1.84315,23.5 0.5,22.1569 0.5,20.5 L0.5,3.5"/>
</g>

<g fill="#ffffff" fill-opacity="1" stroke="none" transform="matrix(1,0,0,1,132,22)"
font-family="Inter" font-size="11" font-weight="700" font-style="normal" 
>
<path vector-effect="none" fill-rule="nonzero" d="M14.5977,10.2383 C14.5664,9.92318 14.4323,9.67839 14.1953,9.50391 C13.9583,9.32943 13.6367,9.24219 13.2305,9.24219 C12.9544,9.24219 12.7214,9.2806 12.5313,9.35742 C12.3411,9.43424 12.196,9.54036 12.0957,9.67578 C11.9954,9.8112 11.9453,9.96484 11.9453,10.1367 C11.9401,10.2799 11.9707,10.4049 12.0371,10.5117 C12.1035,10.6185 12.1953,10.7103 12.3125,10.7871 C12.4297,10.8639 12.5651,10.9303 12.7188,10.9863 C12.8724,11.0423 13.0365,11.0898 13.2109,11.1289 L13.9297,11.3008 C14.2786,11.3789 14.599,11.4831 14.8906,11.6133 C15.1823,11.7435 15.4349,11.9036 15.6484,12.0938 C15.862,12.2839 16.028,12.5078 16.1465,12.7656 C16.265,13.0234 16.3255,13.319 16.3281,13.6523 C16.3255,14.1419 16.2012,14.5658 15.9551,14.9238 C15.709,15.2819 15.3548,15.5592 14.8926,15.7559 C14.4303,15.9525 13.8737,16.0508 13.2227,16.0508 C12.5768,16.0508 12.015,15.9518 11.5371,15.7539 C11.0592,15.556 10.6868,15.2624 10.4199,14.873 C10.153,14.4837 10.013,14.0013 10,13.4258 L11.6367,13.4258 C11.6549,13.694 11.7324,13.9173 11.8691,14.0957 C12.0059,14.2741 12.1895,14.4082 12.4199,14.498 C12.6504,14.5879 12.9115,14.6328 13.2031,14.6328 C13.4896,14.6328 13.7389,14.5911 13.9512,14.5078 C14.1634,14.4245 14.3281,14.3086 14.4453,14.1602 C14.5625,14.0117 14.6211,13.8411 14.6211,13.6484 C14.6211,13.4688 14.5684,13.3177 14.4629,13.1953 C14.3574,13.0729 14.2038,12.9688 14.002,12.8828 C13.8001,12.7969 13.5534,12.7188 13.2617,12.6484 L12.3906,12.4297 C11.7161,12.2656 11.1836,12.0091 10.793,11.6602 C10.4023,11.3112 10.2083,10.8411 10.2109,10.25 C10.2083,9.76563 10.3379,9.34245 10.5996,8.98047 C10.8613,8.61849 11.2214,8.33594 11.6797,8.13281 C12.138,7.92969 12.6589,7.82813 13.2422,7.82813 C13.8359,7.82813 14.3548,7.92969 14.7988,8.13281 C15.2428,8.33594 15.5885,8.61849 15.8359,8.98047 C16.0833,9.34245 16.2109,9.76172 16.2188,10.2383 L14.5977,10.2383 M17.1563,9.33203 L17.1563,7.9375 L23.7266,7.9375 L23.7266,9.33203 L21.2773,9.33203 L21.2773,15.9375 L19.6055,15.9375 L19.6055,9.33203 L17.1563,9.33203 M24.8047,15.9375 L24.8047,7.9375 L27.9609,7.9375 C28.5677,7.9375 29.0846,8.05273 29.5117,8.2832 C29.9388,8.51367 30.265,8.83268 30.4902,9.24023 C30.7155,9.64779 30.8281,10.1172 30.8281,10.6484 C30.8281,11.1797 30.7135,11.6484 30.4844,12.0547 C30.2552,12.4609 29.9238,12.7773 29.4902,13.0039 C29.0566,13.2305 28.5326,13.3438 27.918,13.3438 L25.9063,13.3438 L25.9063,11.9883 L27.6445,11.9883 C27.9701,11.9883 28.2389,11.9316 28.4512,11.8184 C28.6634,11.7051 28.8223,11.5475 28.9277,11.3457 C29.0332,11.1439 29.0859,10.9115 29.0859,10.6484 C29.0859,10.3828 29.0332,10.1504 28.9277,9.95117 C28.8223,9.75195 28.6628,9.59701 28.4492,9.48633 C28.2357,9.37565 27.9648,9.32031 27.6367,9.32031 L26.4961,9.32031 L26.4961,15.9375 L24.8047,15.9375 M31.9297,15.9375 L31.9297,7.9375 L35.0859,7.9375 C35.6901,7.9375 36.2064,8.04492 36.6348,8.25977 C37.0632,8.47461 37.39,8.77799 37.6152,9.16992 C37.8405,9.56185 37.9531,10.0221 37.9531,10.5508 C37.9531,11.082 37.8385,11.5384 37.6094,11.9199 C37.3802,12.3014 37.0488,12.5938 36.6152,12.7969 C36.1816,13 35.6576,13.1016 35.043,13.1016 L32.9297,13.1016 L32.9297,11.7422 L34.7695,11.7422 C35.0924,11.7422 35.3607,11.6979 35.5742,11.6094 C35.7878,11.5208 35.9473,11.388 36.0527,11.2109 C36.1582,11.0339 36.2109,10.8138 36.2109,10.5508 C36.2109,10.2852 36.1582,10.0612 36.0527,9.87891 C35.9473,9.69661 35.7871,9.55794 35.5723,9.46289 C35.3574,9.36784 35.0872,9.32031 34.7617,9.32031 L33.6211,9.32031 L33.6211,15.9375 L31.9297,15.9375 M36.25,12.2969 L38.2383,15.9375 L36.3711,15.9375 L34.4258,12.2969 L36.25,12.2969 M42.582,7.9375 L42.582,15.9375 L40.8906,15.9375 L40.8906,9.54297 L40.8438,9.54297 L39.0117,10.6914 L39.0117,9.19141 L40.9922,7.9375 L42.582,7.9375"/>
</g>

<g fill="#ffffff" fill-opacity="1" stroke="none" transform="matrix(0.03125,0,0,0.03125,183,30)"
font-family="Inter" font-size="11" font-weight="700" font-style="normal" 
>
<path vector-effect="none" fill-rule="nonzero" d="M111.326,191.938 C120.545,201.158 135.517,201.158 144.737,191.938 L239.144,97.5313 C245.929,90.7458 247.921,80.6413 244.233,71.7907 C240.545,62.9401 231.989,57.1871 222.401,57.1871 L33.5875,57.2608 C24.0731,57.2608 15.4437,63.0137 11.7559,71.8644 C8.06815,80.715 10.1333,90.8195 16.845,97.605 L111.252,192.012 L111.326,191.938"/>
</g>

<g fill="none" stroke="#000000" stroke-opacity="1" stroke-width="13.7195" stroke-linecap="butt" stroke-linejoin="miter" stroke-miterlimit="4" transform="matrix(0.03125,0,0,0.03125,183,30)"
font-family="Inter" font-size="11" font-weight="700" font-style="normal" 
>
<path vector-effect="none" fill-rule="nonzero" d="M111.326,191.938 C120.545,201.158 135.517,201.158 144.737,191.938 L239.144,97.5313 C245.929,90.7458 247.921,80.6413 244.233,71.7907 C240.545,62.9401 231.989,57.1871 222.401,57.1871 L33.5875,57.2608 C24.0731,57.2608 15.4437,63.0137 11.7559,71.8644 C8.06815,80.715 10.1333,90.8195 16.845,97.605 L111.252,192.012 L111.326,191.938"/>
</g>

<g fill="#ffffff" fill-opacity="1" stroke="none" transform="matrix(1,0,0,1,132,22)"
font-family="Inter" font-size="11" font-weight="700" font-style="normal" 
>
</g>

<g fill="#ffffff" fill-opacity="1" stroke="#00645c" stroke-opacity="1" stroke-width="1" stroke-linecap="square" stroke-linejoin="bevel" transform="matrix(1,0,0,1,0,0)"
font-family="Inter" font-size="11" font-weight="700" font-style="normal" 
>
</g>

<g fill="#009f94" fill-opacity="1" stroke="#00645c" stroke-opacity="1" stroke-width="1.2" stroke-linecap="square" stroke-linejoin="bevel" transform="matrix(1,0,0,1,201,22)"
font-family="Inter" font-size="11" font-weight="700" font-style="normal" 
>
<path vector-effect="none" fill-rule="evenodd" d="M0.5,3.5 C0.5,1.84315 1.84315,0.5 3.5,0.5 L48.5,0.5 C50.1569,0.5 51.5,1.84315 51.5,3.5 L51.5,20.5 C51.5,22.1569 50.1569,23.5 48.5,23.5 L3.5,23.5 C1.84315,23.5 0.5,22.1569 0.5,20.5 L0.5,3.5"/>
</g>

<g fill="#ffffff" fill-opacity="1" stroke="none" transform="matrix(1,0,0,1,201,22)"
font-family="Inter" font-size="11" font-weight="700" font-style="normal" 
>
<path vector-effect="none" fill-rule="nonzero" d="M12,14.0195 C11.6172,14.0195 11.276,13.9525 10.9766,13.8184 C10.6771,13.6842 10.4408,13.485 10.2676,13.2207 C10.0944,12.9564 10.0078,12.6263 10.0078,12.2305 C10.0078,11.8971 10.069,11.6172 10.1914,11.3906 C10.3138,11.1641 10.4805,10.9818 10.6914,10.8438 C10.9023,10.7057 11.1426,10.6016 11.4121,10.5313 C11.6816,10.4609 11.9648,10.4115 12.2617,10.3828 C12.6107,10.3464 12.8919,10.3118 13.1055,10.2793 C13.319,10.2467 13.474,10.1979 13.5703,10.1328 C13.6667,10.0677 13.7148,9.97135 13.7148,9.84375 L13.7148,9.82031 C13.7148,9.57292 13.6374,9.38151 13.4824,9.24609 C13.3275,9.11068 13.1081,9.04297 12.8242,9.04297 C12.5247,9.04297 12.2865,9.10872 12.1094,9.24023 C11.9323,9.37174 11.8151,9.53646 11.7578,9.73438 L10.2188,9.60938 C10.2969,9.24479 10.4505,8.92904 10.6797,8.66211 C10.9089,8.39518 11.2051,8.18945 11.5684,8.04492 C11.9316,7.90039 12.3529,7.82813 12.832,7.82813 C13.1654,7.82813 13.485,7.86719 13.791,7.94531 C14.097,8.02344 14.3691,8.14453 14.6074,8.30859 C14.8457,8.47266 15.0339,8.68294 15.1719,8.93945 C15.3099,9.19596 15.3789,9.5026 15.3789,9.85938 L15.3789,13.9063 L13.8008,13.9063 L13.8008,13.0742 L13.7539,13.0742 C13.6576,13.2617 13.5286,13.4264 13.3672,13.5684 C13.2057,13.7103 13.0117,13.821 12.7852,13.9004 C12.5586,13.9798 12.2969,14.0195 12,14.0195 M12.4766,12.8711 C12.7214,12.8711 12.9375,12.8223 13.125,12.7246 C13.3125,12.627 13.4596,12.4948 13.5664,12.3281 C13.6732,12.1615 13.7266,11.9727 13.7266,11.7617 L13.7266,11.125 C13.6745,11.1589 13.6035,11.1895 13.5137,11.2168 C13.4238,11.2441 13.3229,11.2689 13.2109,11.291 C13.099,11.3132 12.987,11.3327 12.875,11.3496 C12.763,11.3665 12.6615,11.3815 12.5703,11.3945 C12.375,11.4232 12.2044,11.4688 12.0586,11.5313 C11.9128,11.5938 11.7995,11.6777 11.7188,11.7832 C11.638,11.8887 11.5977,12.0195 11.5977,12.1758 C11.5977,12.4023 11.6803,12.5749 11.8457,12.6934 C12.0111,12.8118 12.2214,12.8711 12.4766,12.8711 M18.3281,10.4375 L18.3281,13.9063 L16.6641,13.9063 L16.6641,7.90625 L18.25,7.90625 L18.25,8.96484 L18.3203,8.96484 C18.4531,8.61589 18.6758,8.33919 18.9883,8.13477 C19.3008,7.93034 19.6797,7.82813 20.125,7.82813 C20.5417,7.82813 20.9049,7.91927 21.2148,8.10156 C21.5247,8.28385 21.7656,8.54362 21.9375,8.88086 C22.1094,9.2181 22.1953,9.61979 22.1953,10.0859 L22.1953,13.9063 L20.5313,13.9063 L20.5313,10.3828 C20.5339,10.0156 20.4401,9.72852 20.25,9.52148 C20.0599,9.31445 19.7982,9.21094 19.4648,9.21094 C19.2409,9.21094 19.0436,9.25911 18.873,9.35547 C18.7025,9.45182 18.5697,9.5918 18.4746,9.77539 C18.3796,9.95898 18.3307,10.1797 18.3281,10.4375 M24.3008,16.1563 C24.0898,16.1563 23.8926,16.14 23.709,16.1074 C23.5254,16.0749 23.3737,16.0339 23.2539,15.9844 L23.6289,14.7422 C23.8242,14.8021 24.0007,14.8346 24.1582,14.8398 C24.3158,14.8451 24.4525,14.8086 24.5684,14.7305 C24.6842,14.6523 24.7786,14.5195 24.8516,14.332 L24.9492,14.0781 L22.7969,7.90625 L24.5469,7.90625 L25.7891,12.3125 L25.8516,12.3125 L27.1055,7.90625 L28.8672,7.90625 L26.5352,14.5547 C26.4232,14.8776 26.2715,15.1595 26.0801,15.4004 C25.8887,15.6413 25.6471,15.8275 25.3555,15.959 C25.0638,16.0905 24.7122,16.1563 24.3008,16.1563 "/>
</g>

<g fill="#ffffff" fill-opacity="1" stroke="none" transform="matrix(0.03125,0,0,0.03125,239,30)"
font-family="Inter" font-size="11" font-weight="700" font-style="normal" 
>
<path vector-effect="none" fill-rule="nonzero" d="M111.326,191.938 C120.545,201.158 135.517,201.158 144.737,191.938 L239.144,97.5313 C245.929,90.7458 247.921,80.6413 244.233,71.7907 C240.545,62.9401 231.989,57.1871 222.401,57.1871 L33.5875,57.2608 C24.0731,57.2608 15.4437,63.0137 11.7559,71.8644 C8.06815,80.715 10.1333,90.8195 16.845,97.605 L111.252,192.012 L111.326,191.938"/>
</g>

<g fill="none" stroke="#000000" stroke-opacity="1" stroke-width="13.7195" stroke-linecap="butt" stroke-linejoin="miter" stroke-miterlimit="4" transform="matrix(0.03125,0,0,0.03125,239,30)"
font-family="Inter" font-size="11" font-weight="700" font-style="normal" 
>
<path vector-effect="none" fill-rule="nonzero" d="M111.326,191.938 C120.545,201.158 135.517,201.158 144.737,191.938 L239.144,97.5313 C245.929,90.7458 247.921,80.6413 244.233,71.7907 C240.545,62.9401 231.989,57.1871 222.401,57.1871 L33.5875,57.2608 C24.0731,57.2608 15.4437,63.0137 11.7559,71.8644 C8.06815,80.715 10.1333,90.8195 16.845,97.605 L111.252,192.012 L111.326,191.938"/>
</g>

<g fill="#ffffff" fill-opacity="1" stroke="none" transform="matrix(1,0,0,1,201,22)"
font-family="Inter" font-size="11" font-weight="700" font-style="normal" 
>
</g>

<g fill="#ffffff" fill-opacity="1" stroke="#00645c" stroke-opacity="1" stroke-width="1" stroke-linecap="square" stroke-linejoin="bevel" transform="matrix(1,0,0,1,0,0)"
font-family="Inter" font-size="11" font-weight="700" font-style="normal" 
>
</g>

<g fill="#ffffff" fill-opacity="1" stroke="#00645c" stroke-opacity="1" stroke-width="1" stroke-linecap="square" stroke-linejoin="bevel" transform="matrix(1,0,0,1,0,0)"
font-family="Inter" font-size="11" font-weight="700" font-style="normal" 
>
</g>

<g fill="#009f94" fill-opacity="1" stroke="#00645c" stroke-opacity="1" stroke-width="1.2" stroke-linecap="square" stroke-linejoin="bevel" transform="matrix(1,0,0,1,274,22)"
font-family="Inter" font-size="11" font-weight="700" font-style="normal" 
>
<path vector-effect="none" fill-rule="evenodd" d="M0.5,3.5 C0.5,1.84315 1.84315,0.5 3.5,0.5 L70.5,0.5 C72.1569,0.5 73.5,1.84315 73.5,3.5 L73.5,20.5 C73.5,22.1569 72.1569,23.5 70.5,23.5 L3.5,23.5 C1.84315,23.5 0.5,22.1569 0.5,20.5 L0.5,3.5"/>
</g>

<g fill="#ffffff" fill-opacity="1" stroke="none" transform="matrix(1,0,0,1,274,22)"
font-family="Inter" font-size="11" font-weight="700" font-style="normal" 
>
<path vector-effect="none" fill-rule="nonzero" d="M9.00781,17.0781 L9.00781,8.82813 L10.6484,8.82813 L10.6484,9.83594 L10.7227,9.83594 C10.7956,9.67448 10.9017,9.50977 11.041,9.3418 C11.1803,9.17383 11.3626,9.0332 11.5879,8.91992 C11.8132,8.80664 12.0938,8.75 12.4297,8.75 C12.8672,8.75 13.2708,8.86393 13.6406,9.0918 C14.0104,9.31966 14.306,9.66211 14.5273,10.1191 C14.7487,10.5762 14.8594,11.1484 14.8594,11.8359 C14.8594,12.5052 14.752,13.0697 14.5371,13.5293 C14.3223,13.9889 14.0306,14.3366 13.6621,14.5723 C13.2936,14.8079 12.8815,14.9258 12.4258,14.9258 C12.1029,14.9258 11.8288,14.8724 11.6035,14.7656 C11.3783,14.6589 11.194,14.5241 11.0508,14.3613 C10.9076,14.1986 10.7982,14.0339 10.7227,13.8672 L10.6719,13.8672 L10.6719,17.0781 L9.00781,17.0781 M10.6367,11.8281 C10.6367,12.1849 10.6862,12.4961 10.7852,12.7617 C10.8841,13.0273 11.0273,13.2337 11.2148,13.3809 C11.4023,13.528 11.6302,13.6016 11.8984,13.6016 C12.1693,13.6016 12.3984,13.5267 12.5859,13.377 C12.7734,13.2272 12.916,13.0189 13.0137,12.752 C13.1113,12.485 13.1602,12.1771 13.1602,11.8281 C13.1602,11.4818 13.112,11.1771 13.0156,10.9141 C12.9193,10.651 12.7773,10.4453 12.5898,10.2969 C12.4023,10.1484 12.1719,10.0742 11.8984,10.0742 C11.6276,10.0742 11.3991,10.1458 11.2129,10.2891 C11.0267,10.4323 10.8841,10.6354 10.7852,10.8984 C10.6862,11.1615 10.6367,11.4714 10.6367,11.8281 M15.9609,14.8281 L15.9609,8.82813 L17.5742,8.82813 L17.5742,9.875 L17.6367,9.875 C17.7461,9.5026 17.9297,9.2207 18.1875,9.0293 C18.4453,8.83789 18.7422,8.74219 19.0781,8.74219 C19.1615,8.74219 19.2513,8.7474 19.3477,8.75781 C19.444,8.76823 19.5286,8.78255 19.6016,8.80078 L19.6016,10.2773 C19.5234,10.2539 19.4154,10.2331 19.2773,10.2148 C19.1393,10.1966 19.013,10.1875 18.8984,10.1875 C18.6536,10.1875 18.4355,10.2402 18.2441,10.3457 C18.0527,10.4512 17.9017,10.5977 17.791,10.7852 C17.6803,10.9727 17.625,11.1888 17.625,11.4336 L17.625,14.8281 L15.9609,14.8281 M22.8984,14.9453 C22.2813,14.9453 21.7507,14.8197 21.3066,14.5684 C20.8626,14.3171 20.5208,13.9603 20.2813,13.498 C20.0417,13.0358 19.9219,12.4883 19.9219,11.8555 C19.9219,11.2383 20.0417,10.6966 20.2813,10.2305 C20.5208,9.76432 20.8587,9.40104 21.2949,9.14063 C21.7311,8.88021 22.2435,8.75 22.832,8.75 C23.2279,8.75 23.597,8.81315 23.9395,8.93945 C24.2819,9.06576 24.5814,9.25521 24.8379,9.50781 C25.0944,9.76042 25.2943,10.0775 25.4375,10.459 C25.5807,10.8405 25.6523,11.2865 25.6523,11.7969 L25.6523,12.2539 L20.5859,12.2539 L20.5859,11.2227 L24.0859,11.2227 C24.0859,10.9831 24.0339,10.7708 23.9297,10.5859 C23.8255,10.401 23.6816,10.2559 23.498,10.1504 C23.3145,10.0449 23.1016,9.99219 22.8594,9.99219 C22.6068,9.99219 22.3835,10.0501 22.1895,10.166 C21.9954,10.2819 21.8438,10.4368 21.7344,10.6309 C21.625,10.8249 21.569,11.0404 21.5664,11.2773 L21.5664,12.2578 C21.5664,12.5547 21.6217,12.8112 21.7324,13.0273 C21.8431,13.2435 22,13.4102 22.2031,13.5273 C22.4063,13.6445 22.6471,13.7031 22.9258,13.7031 C23.1107,13.7031 23.2799,13.6771 23.4336,13.625 C23.5872,13.5729 23.7188,13.4948 23.8281,13.3906 C23.9375,13.2865 24.0208,13.1589 24.0781,13.0078 L25.6172,13.1094 C25.5391,13.4792 25.3796,13.8014 25.1387,14.0762 C24.8978,14.3509 24.5879,14.5645 24.209,14.7168 C23.8301,14.8691 23.3932,14.9453 22.8984,14.9453 M31.7188,10.5391 L30.1953,10.6328 C30.1693,10.5026 30.1133,10.3848 30.0273,10.2793 C29.9414,10.1738 29.8288,10.0892 29.6895,10.0254 C29.5501,9.96159 29.3841,9.92969 29.1914,9.92969 C28.9336,9.92969 28.7161,9.98372 28.5391,10.0918 C28.362,10.1999 28.2734,10.3438 28.2734,10.5234 C28.2734,10.6667 28.3307,10.7878 28.4453,10.8867 C28.5599,10.9857 28.7565,11.0651 29.0352,11.125 L30.1211,11.3438 C30.7044,11.4635 31.1393,11.6563 31.4258,11.9219 C31.7122,12.1875 31.8555,12.5365 31.8555,12.9688 C31.8555,13.362 31.7402,13.707 31.5098,14.0039 C31.2793,14.3008 30.9642,14.5319 30.5645,14.6973 C30.1647,14.8626 29.7044,14.9453 29.1836,14.9453 C28.3893,14.9453 27.7572,14.7793 27.2871,14.4473 C26.8171,14.1152 26.5417,13.6628 26.4609,13.0898 L28.0977,13.0039 C28.1471,13.2461 28.2669,13.4303 28.457,13.5566 C28.6471,13.6829 28.8906,13.7461 29.1875,13.7461 C29.4792,13.7461 29.7142,13.6895 29.8926,13.5762 C30.071,13.4629 30.1615,13.3164 30.1641,13.1367 C30.1615,12.9857 30.0977,12.8613 29.9727,12.7637 C29.8477,12.666 29.6549,12.5911 29.3945,12.5391 L28.3555,12.332 C27.7695,12.2148 27.334,12.0117 27.0488,11.7227 C26.7637,11.4336 26.6211,11.0651 26.6211,10.6172 C26.6211,10.2318 26.7259,9.89974 26.9355,9.62109 C27.1452,9.34245 27.4408,9.1276 27.8223,8.97656 C28.2038,8.82552 28.651,8.75 29.1641,8.75 C29.9219,8.75 30.5189,8.91016 30.9551,9.23047 C31.3913,9.55078 31.6458,9.98698 31.7188,10.5391 M37.8906,10.5391 L36.3672,10.6328 C36.3411,10.5026 36.2852,10.3848 36.1992,10.2793 C36.1133,10.1738 36.0007,10.0892 35.8613,10.0254 C35.722,9.96159 35.556,9.92969 35.3633,9.92969 C35.1055,9.92969 34.888,9.98372 34.7109,10.0918 C34.5339,10.1999 34.4453,10.3438 34.4453,10.5234 C34.4453,10.6667 34.5026,10.7878 34.6172,10.8867 C34.7318,10.9857 34.9284,11.0651 35.207,11.125 L36.293,11.3438 C36.8763,11.4635 37.3112,11.6563 37.5977,11.9219 C37.8841,12.1875 38.0273,12.5365 38.0273,12.9688 C38.0273,13.362 37.9121,13.707 37.6816,14.0039 C37.4512,14.3008 37.1361,14.5319 36.7363,14.6973 C36.3366,14.8626 35.8763,14.9453 35.3555,14.9453 C34.5612,14.9453 33.929,14.7793 33.459,14.4473 C32.9889,14.1152 32.7135,13.6628 32.6328,13.0898 L34.2695,13.0039 C34.319,13.2461 34.4388,13.4303 34.6289,13.5566 C34.819,13.6829 35.0625,13.7461 35.3594,13.7461 C35.651,13.7461 35.8861,13.6895 36.0645,13.5762 C36.2428,13.4629 36.3333,13.3164 36.3359,13.1367 C36.3333,12.9857 36.2695,12.8613 36.1445,12.7637 C36.0195,12.666 35.8268,12.5911 35.5664,12.5391 L34.5273,12.332 C33.9414,12.2148 33.5059,12.0117 33.2207,11.7227 C32.9355,11.4336 32.793,11.0651 32.793,10.6172 C32.793,10.2318 32.8978,9.89974 33.1074,9.62109 C33.3171,9.34245 33.6126,9.1276 33.9941,8.97656 C34.3757,8.82552 34.8229,8.75 35.3359,8.75 C36.0938,8.75 36.6908,8.91016 37.127,9.23047 C37.5632,9.55078 37.8177,9.98698 37.8906,10.5391 M41.8047,14.9453 C41.1875,14.9453 40.6569,14.8197 40.2129,14.5684 C39.7689,14.3171 39.4271,13.9603 39.1875,13.498 C38.9479,13.0358 38.8281,12.4883 38.8281,11.8555 C38.8281,11.2383 38.9479,10.6966 39.1875,10.2305 C39.4271,9.76432 39.765,9.40104 40.2012,9.14063 C40.6374,8.88021 41.1497,8.75 41.7383,8.75 C42.1341,8.75 42.5033,8.81315 42.8457,8.93945 C43.1882,9.06576 43.4876,9.25521 43.7441,9.50781 C44.0007,9.76042 44.2005,10.0775 44.3438,10.459 C44.487,10.8405 44.5586,11.2865 44.5586,11.7969 L44.5586,12.2539 L39.4922,12.2539 L39.4922,11.2227 L42.9922,11.2227 C42.9922,10.9831 42.9401,10.7708 42.8359,10.5859 C42.7318,10.401 42.5879,10.2559 42.4043,10.1504 C42.2207,10.0449 42.0078,9.99219 41.7656,9.99219 C41.513,9.99219 41.2897,10.0501 41.0957,10.166 C40.9017,10.2819 40.75,10.4368 40.6406,10.6309 C40.5313,10.8249 40.4753,11.0404 40.4727,11.2773 L40.4727,12.2578 C40.4727,12.5547 40.528,12.8112 40.6387,13.0273 C40.7493,13.2435 40.9063,13.4102 41.1094,13.5273 C41.3125,13.6445 41.5534,13.7031 41.832,13.7031 C42.0169,13.7031 42.1862,13.6771 42.3398,13.625 C42.4935,13.5729 42.625,13.4948 42.7344,13.3906 C42.8438,13.2865 42.9271,13.1589 42.9844,13.0078 L44.5234,13.1094 C44.4453,13.4792 44.2858,13.8014 44.0449,14.0762 C43.804,14.3509 43.4941,14.5645 43.1152,14.7168 C42.7363,14.8691 42.2995,14.9453 41.8047,14.9453 M47.8438,14.9258 C47.388,14.9258 46.9759,14.8079 46.6074,14.5723 C46.2389,14.3366 45.9473,13.9889 45.7324,13.5293 C45.5176,13.0697 45.4102,12.5052 45.4102,11.8359 C45.4102,11.1484 45.5208,10.5762 45.7422,10.1191 C45.9635,9.66211 46.2585,9.31966 46.627,9.0918 C46.9954,8.86393 47.3997,8.75 47.8398,8.75 C48.1758,8.75 48.4564,8.80664 48.6816,8.91992 C48.9069,9.0332 49.0892,9.17383 49.2285,9.3418 C49.3678,9.50977 49.474,9.67448 49.5469,9.83594 L49.5977,9.83594 L49.5977,6.82813 L51.2578,6.82813 L51.2578,14.8281 L49.6172,14.8281 L49.6172,13.8672 L49.5469,13.8672 C49.4688,14.0339 49.3587,14.1986 49.2168,14.3613 C49.0749,14.5241 48.8913,14.6589 48.666,14.7656 C48.4408,14.8724 48.1667,14.9258 47.8438,14.9258 M48.3711,13.6016 C48.6393,13.6016 48.8665,13.528 49.0527,13.3809 C49.2389,13.2337 49.3822,13.0273 49.4824,12.7617 C49.5827,12.4961 49.6328,12.1849 49.6328,11.8281 C49.6328,11.4714 49.5833,11.1615 49.4844,10.8984 C49.3854,10.6354 49.2422,10.4323 49.0547,10.2891 C48.8672,10.1458 48.6393,10.0742 48.3711,10.0742 C48.0977,10.0742 47.8672,10.1484 47.6797,10.2969 C47.4922,10.4453 47.3503,10.651 47.2539,10.9141 C47.1576,11.1771 47.1094,11.4818 47.1094,11.8281 C47.1094,12.1771 47.1582,12.485 47.2559,12.752 C47.3535,13.0189 47.4954,13.2272 47.6816,13.377 C47.8678,13.5267 48.0977,13.6016 48.3711,13.6016 "/>
</g>

<g fill="#ffffff" fill-opacity="1" stroke="none" transform="matrix(0.03125,0,0,0.03125,334,30)"
font-family="Inter" font-size="11" font-weight="700" font-style="normal" 
>
<path vector-effect="none" fill-rule="nonzero" d="M111.326,191.938 C120.545,201.158 135.517,201.158 144.737,191.938 L239.144,97.5313 C245.929,90.7458 247.921,80.6413 244.233,71.7907 C240.545,62.9401 231.989,57.1871 222.401,57.1871 L33.5875,57.2608 C24.0731,57.2608 15.4437,63.0137 11.7559,71.8644 C8.06815,80.715 10.1333,90.8195 16.845,97.605 L111.252,192.012 L111.326,191.938"/>
</g>

<g fill="none" stroke="#000000" stroke-opacity="1" stroke-width="13.7195" stroke-linecap="butt" stroke-linejoin="miter" stroke-miterlimit="4" transform="matrix(0.03125,0,0,0.03125,334,30)"
font-family="Inter" font-size="11" font-weight="700" font-style="normal" 
>
<path vector-effect="none" fill-rule="nonzero" d="M111.326,191.938 C120.545,201.158 135.517,201.158 144.737,191.938 L239.144,97.5313 C245.929,90.7458 247.921,80.6413 244.233,71.7907 C240.545,62.9401 231.989,57.1871 222.401,57.1871 L33.5875,57.2608 C24.0731,57.2608 15.4437,63.0137 11.7559,71.8644 C8.06815,80.715 10.1333,90.8195 16.845,97.605 L111.252,192.012 L111.326,191.938"/>
</g>

<g fill="#ffffff" fill-opacity="1" stroke="none" transform="matrix(1,0,0,1,274,22)"
font-family="Inter" font-size="11" font-weight="700" font-style="normal" 
>
</g>

<g fill="#ffffff" fill-opacity="1" stroke="#00645c" stroke-opacity="1" stroke-width="1" stroke-linecap="square" stroke-linejoin="bevel" transform="matrix(1,0,0,1,0,0)"
font-family="Inter" font-size="11" font-weight="700" font-style="normal" 
>
</g>

<g fill="none" stroke="#000000" stroke-opacity="1" stroke-width="1" stroke-linecap="square" stroke-linejoin="bevel" transform="matrix(1,0,0,1,0,0)"
font-family=".AppleSystemUIFont" font-size="13" font-weight="400" font-style="normal" 
>
</g>
</g>
</svg>
