<?xml version="1.0" encoding="UTF-8" standalone="no"?>
<svg width="74.0833mm" height="11.2889mm"
 viewBox="0 0 210 32"
 xmlns="http://www.w3.org/2000/svg" xmlns:xlink="http://www.w3.org/1999/xlink" version="1.2" baseProfile="tiny">
<title>Abstract block</title>
<desc>block_gamepad_button_value_boolean</desc>
<defs>
</defs>
<g fill="none" stroke="black" stroke-width="1" fill-rule="evenodd" stroke-linecap="square" stroke-linejoin="bevel" >

<g fill="none" stroke="#000000" stroke-opacity="1" stroke-width="1" stroke-linecap="square" stroke-linejoin="bevel" transform="matrix(1,0,0,1,0,0)"
font-family=".AppleSystemUIFont" font-size="13" font-weight="400" font-style="normal" 
>
</g>

<g fill="none" stroke="#000000" stroke-opacity="1" stroke-width="1" stroke-linecap="square" stroke-linejoin="bevel" transform="matrix(1,0,0,1,0,0)"
font-family=".AppleSystemUIFont" font-size="13" font-weight="400" font-style="normal" 
>
</g>

<g fill="#00a97d" fill-opacity="1" stroke="#006e51" stroke-opacity="1" stroke-width="1.2" stroke-linecap="square" stroke-linejoin="bevel" transform="matrix(1,0,0,1,0,0)"
font-family=".AppleSystemUIFont" font-size="13" font-weight="400" font-style="normal" 
>
<path vector-effect="none" fill-rule="evenodd" d="M0,16 L16,0 L193.667,0 L209.667,16 L193.667,32 L16,32 L0,16"/>
</g>

<g fill="#ffffff" fill-opacity="1" stroke="none" transform="matrix(1,0,0,1,0,0)"
font-family="Inter" font-size="11" font-weight="700" font-style="normal" 
>
<path vector-effect="none" fill-rule="nonzero" d="M52.1641,20 L52.1641,14 L53.8281,14 L53.8281,20 L52.1641,20 M53,13.2266 C52.7526,13.2266 52.541,13.1439 52.3652,12.9785 C52.1895,12.8132 52.1016,12.6146 52.1016,12.3828 C52.1016,12.1536 52.1895,11.9564 52.3652,11.791 C52.541,11.6257 52.7526,11.543 53,11.543 C53.2474,11.543 53.459,11.6257 53.6348,11.791 C53.8105,11.9564 53.8984,12.1536 53.8984,12.3828 C53.8984,12.6146 53.8105,12.8132 53.6348,12.9785 C53.459,13.1439 53.2474,13.2266 53,13.2266 M60.1406,15.7109 L58.6172,15.8047 C58.5911,15.6745 58.5352,15.5566 58.4492,15.4512 C58.3633,15.3457 58.2507,15.2611 58.1113,15.1973 C57.972,15.1335 57.806,15.1016 57.6133,15.1016 C57.3555,15.1016 57.138,15.1556 56.9609,15.2637 C56.7839,15.3717 56.6953,15.5156 56.6953,15.6953 C56.6953,15.8385 56.7526,15.9596 56.8672,16.0586 C56.9818,16.1576 57.1784,16.237 57.457,16.2969 L58.543,16.5156 C59.1263,16.6354 59.5612,16.8281 59.8477,17.0938 C60.1341,17.3594 60.2773,17.7083 60.2773,18.1406 C60.2773,18.5339 60.1621,18.8789 59.9316,19.1758 C59.7012,19.4727 59.3861,19.7038 58.9863,19.8691 C58.5866,20.0345 58.1263,20.1172 57.6055,20.1172 C56.8112,20.1172 56.179,19.9512 55.709,19.6191 C55.2389,19.2871 54.9635,18.8346 54.8828,18.2617 L56.5195,18.1758 C56.569,18.418 56.6888,18.6022 56.8789,18.7285 C57.069,18.8548 57.3125,18.918 57.6094,18.918 C57.901,18.918 58.1361,18.8613 58.3145,18.748 C58.4928,18.6348 58.5833,18.4883 58.5859,18.3086 C58.5833,18.1576 58.5195,18.0332 58.3945,17.9355 C58.2695,17.8379 58.0768,17.763 57.8164,17.7109 L56.7773,17.5039 C56.1914,17.3867 55.7559,17.1836 55.4707,16.8945 C55.1855,16.6055 55.043,16.237 55.043,15.7891 C55.043,15.4036 55.1478,15.0716 55.3574,14.793 C55.5671,14.5143 55.8626,14.2995 56.2441,14.1484 C56.6257,13.9974 57.0729,13.9219 57.5859,13.9219 C58.3438,13.9219 58.9408,14.082 59.377,14.4023 C59.8132,14.7227 60.0677,15.1589 60.1406,15.7109 "/>
</g>

<g fill="#ffffff" fill-opacity="1" stroke="none" transform="matrix(1,0,0,1,0,0)"
font-family="Inter" font-size="11" font-weight="700" font-style="normal" 
>
<path vector-effect="none" fill-rule="nonzero" d="M192.766,17.5547 L192.766,17.4219 C192.768,16.9661 192.809,16.6029 192.889,16.332 C192.968,16.0612 193.085,15.8424 193.238,15.6758 C193.392,15.5091 193.577,15.3581 193.793,15.2227 C193.954,15.1185 194.099,15.0104 194.227,14.8984 C194.354,14.7865 194.456,14.6621 194.531,14.5254 C194.607,14.3887 194.645,14.2357 194.645,14.0664 C194.645,13.8867 194.602,13.7292 194.516,13.5938 C194.43,13.4583 194.314,13.3542 194.17,13.2813 C194.025,13.2083 193.866,13.1719 193.691,13.1719 C193.522,13.1719 193.362,13.209 193.211,13.2832 C193.06,13.3574 192.936,13.4668 192.84,13.6113 C192.743,13.7559 192.691,13.9349 192.684,14.1484 L191.09,14.1484 C191.103,13.6276 191.228,13.1973 191.465,12.8574 C191.702,12.5176 192.016,12.2637 192.406,12.0957 C192.797,11.9277 193.228,11.8438 193.699,11.8438 C194.217,11.8438 194.676,11.929 195.074,12.0996 C195.473,12.2702 195.785,12.5169 196.012,12.8398 C196.238,13.1628 196.352,13.5521 196.352,14.0078 C196.352,14.3125 196.301,14.5827 196.201,14.8184 C196.101,15.054 195.961,15.2624 195.781,15.4434 C195.602,15.6243 195.389,15.7878 195.145,15.9336 C194.939,16.056 194.77,16.1836 194.639,16.3164 C194.507,16.4492 194.41,16.6029 194.346,16.7773 C194.282,16.9518 194.249,17.1667 194.246,17.4219 L194.246,17.5547 L192.766,17.5547 M193.539,20.0547 C193.279,20.0547 193.057,19.9629 192.873,19.7793 C192.689,19.5957 192.599,19.375 192.602,19.1172 C192.599,18.862 192.689,18.6432 192.873,18.4609 C193.057,18.2786 193.279,18.1875 193.539,18.1875 C193.786,18.1875 194.004,18.2786 194.191,18.4609 C194.379,18.6432 194.474,18.862 194.477,19.1172 C194.474,19.2891 194.429,19.446 194.342,19.5879 C194.255,19.7298 194.141,19.8431 194,19.9277 C193.859,20.0124 193.706,20.0547 193.539,20.0547 "/>
</g>

<g fill="#ffffff" fill-opacity="1" stroke="none" transform="matrix(0.95,0,0,0.95,11.6,4.6)"
font-family="Inter" font-size="11" font-weight="700" font-style="normal" 
>
<path vector-effect="none" fill-rule="nonzero" d="M7.46543,4.39588 C6.38302,4.39585 5.47613,4.39584 4.74926,4.48951 C3.97986,4.58868 3.28183,4.80608 2.69613,5.33613 C2.11042,5.86618 1.82464,6.53909 1.64941,7.2948 C1.48387,8.00878 1.39363,8.91112 1.28596,9.98813 L0.676055,16.0874 C0.487764,17.9704 1.96635,19.6041 3.85857,19.6041 C5.19182,19.6041 6.38522,18.7771 6.85336,17.5288 L7.6565,15.387 C7.81994,14.9511 7.91537,14.7008 8.0049,14.5243 C8.04525,14.4449 8.07235,14.4055 8.08682,14.3873 C8.09352,14.3788 8.09729,14.3751 8.09818,14.3743 L8.09959,14.3732 L8.10111,14.3723 C8.10221,14.3718 8.10688,14.3696 8.11723,14.3663 C8.13943,14.3591 8.18571,14.3475 8.27426,14.3375 C8.47084,14.3157 8.73881,14.3143 9.20432,14.3143 L14.7957,14.3143 C15.2612,14.3143 15.5292,14.3158 15.7258,14.3375 C15.8143,14.3474 15.8606,14.3591 15.8828,14.3663 C15.8931,14.3696 15.8978,14.3718 15.8989,14.3723 L15.9005,14.3732 L15.9018,14.3743 C15.9027,14.3751 15.9064,14.3788 15.9132,14.3873 C15.9276,14.4055 15.9547,14.4449 15.995,14.5243 C16.0846,14.7008 16.18,14.9511 16.3435,15.387 L17.1466,17.5288 C17.6148,18.7771 18.8081,19.6041 20.1414,19.6041 C22.0336,19.6041 23.5123,17.9704 23.3239,16.0874 L22.714,9.9883 C22.6064,8.91117 22.5162,8.00877 22.3506,7.2948 C22.1754,6.53909 21.8896,5.86618 21.3039,5.33613 C20.7182,4.80608 20.0202,4.58868 19.2508,4.48951 C18.5239,4.39583 17.6172,4.39585 16.5347,4.39588 L7.46543,4.39588 M18.0984,6.1592 C18.7525,6.15907 19.2829,6.6892 19.2831,7.34332 L19.2831,7.34367 C19.2831,7.99779 18.7529,8.52808 18.0987,8.52814 C17.4446,8.52821 16.9142,7.99799 16.9141,7.34385 C16.914,6.6897 17.4442,6.15932 18.0984,6.1592 M6.0791,6.38168 C7.79363,6.38129 9.18388,7.77081 9.18439,9.48533 L9.18439,9.48621 C9.1844,11.2007 7.79457,12.5907 6.08004,12.5908 C4.36551,12.5909 2.97547,11.2012 2.97521,9.48668 C2.97499,7.77218 4.3646,6.38207 6.0791,6.38168 M15.966,8.41271 C16.6201,8.41258 17.1505,8.94271 17.1507,9.59684 L17.1507,9.59719 C17.1507,10.2513 16.6205,10.7816 15.9663,10.7817 C15.3122,10.7817 14.7818,10.2515 14.7817,9.59736 C14.7816,8.94322 15.3118,8.41284 15.966,8.41271 M20.3065,8.43451 C20.9606,8.43435 21.4911,8.96449 21.4912,9.61863 L21.4913,9.61898 C21.4913,10.2731 20.961,10.8034 20.3068,10.8035 C19.6527,10.8035 19.1224,10.2733 19.1223,9.61916 C19.1222,8.96504 19.6524,8.43467 20.3065,8.43451 M18.1035,10.4194 C18.7576,10.4193 19.288,10.9494 19.2882,11.6035 L19.2882,11.6038 C19.2882,12.258 18.758,12.7883 18.1039,12.7883 C17.4497,12.7884 16.9194,12.2582 16.9193,11.604 C16.9192,10.9499 17.4494,10.4196 18.1035,10.4194 "/>
</g>

<g fill="none" stroke="#000000" stroke-opacity="1" stroke-width="0.54" stroke-linecap="butt" stroke-linejoin="miter" stroke-miterlimit="4" transform="matrix(0.95,0,0,0.95,11.6,4.6)"
font-family="Inter" font-size="11" font-weight="700" font-style="normal" 
>
<path vector-effect="none" fill-rule="nonzero" d="M0.676054,16.0875 C0.487763,17.9704 1.96634,19.6041 3.85857,19.6041 C5.19182,19.6041 6.38521,18.7771 6.85334,17.5288 L7.65652,15.3869 C7.81997,14.9511 7.9154,14.7007 8.00493,14.5243 C8.04527,14.4448 8.07237,14.4056 8.08684,14.3873 C8.09354,14.3788 8.09731,14.3751 8.0982,14.3743 L8.09956,14.3731 L8.10109,14.3723 C8.10219,14.3718 8.10694,14.3695 8.11724,14.3662 C8.13944,14.3591 8.18573,14.3475 8.27428,14.3375 C8.47086,14.3157 8.73883,14.3143 9.20434,14.3143 L14.7957,14.3143 C15.2612,14.3143 15.5291,14.3158 15.7258,14.3375 C15.8143,14.3474 15.8605,14.3591 15.8828,14.3662 C15.8931,14.3695 15.8978,14.3718 15.8989,14.3723 L15.9005,14.3731 L15.9018,14.3743 C15.9027,14.3751 15.9064,14.3788 15.9132,14.3873 C15.9276,14.4056 15.9547,14.4448 15.995,14.5243 C16.0845,14.7007 16.18,14.9511 16.3435,15.3869 L17.1466,17.5288 C17.6148,18.7771 18.8081,19.6041 20.1414,19.6041 C22.0336,19.6041 23.5123,17.9704 23.3239,16.0875 L22.714,9.98828 C22.6064,8.91114 22.5162,8.0088 22.3506,7.29483 C22.1754,6.53911 21.8896,5.86621 21.3039,5.33615 C20.7182,4.8061 20.0202,4.58866 19.2508,4.48949 C18.5238,4.39581 17.6172,4.39585 16.5347,4.39587 L7.46542,4.39587 C6.383,4.39585 5.47612,4.39582 4.74925,4.48949 C3.97984,4.58866 3.28185,4.8061 2.69615,5.33615 C2.11043,5.86621 1.82462,6.53911 1.6494,7.29483 C1.48385,8.00881 1.39365,8.91114 1.28597,9.98815 L0.676054,16.0875"/>
</g>

<g fill="none" stroke="#000000" stroke-opacity="1" stroke-width="0.54" stroke-linecap="round" stroke-linejoin="round" transform="matrix(0,0.95,-0.95,0,11.6,4.6)"
font-family="Inter" font-size="11" font-weight="700" font-style="normal" 
>
<path vector-effect="none" fill-rule="nonzero" d="M12.5908,-5.99358 C12.5908,-4.27905 11.201,-2.88912 9.48647,-2.88899 C7.77194,-2.88886 6.38191,-4.27859 6.38165,-5.99311 C6.38139,-7.70764 7.77102,-9.09778 9.48554,-9.09816 C11.2001,-9.09855 12.5903,-7.70903 12.5908,-5.99451 "/>
</g>

<g fill="#000000" fill-opacity="1" stroke="none" transform="matrix(1.02542,0,0,1.02542,11.148,3.96268)"
font-family="Inter" font-size="11" font-weight="700" font-style="normal" 
>
<path vector-effect="none" fill-rule="evenodd" d="M5.49097,7.51931 C5.49097,7.42723 5.56561,7.35258 5.65769,7.35258 L6.32946,7.35258 C6.42154,7.35258 6.49619,7.42723 6.49619,7.51931 L6.49619,8.23146 C6.49619,8.32354 6.42154,8.39819 6.32946,8.39819 L5.65769,8.39819 C5.56561,8.39819 5.49097,8.32354 5.49097,8.23146 L5.49097,7.51931"/>
</g>

<g fill="none" stroke="#000000" stroke-opacity="1" stroke-width="0.463675" stroke-linecap="round" stroke-linejoin="round" transform="matrix(1.02542,0,0,1.02542,11.148,3.96268)"
font-family="Inter" font-size="11" font-weight="700" font-style="normal" 
>
<path vector-effect="none" fill-rule="evenodd" d="M5.49097,7.51931 C5.49097,7.42723 5.56561,7.35258 5.65769,7.35258 L6.32946,7.35258 C6.42154,7.35258 6.49619,7.42723 6.49619,7.51931 L6.49619,8.23146 C6.49619,8.32354 6.42154,8.39819 6.32946,8.39819 L5.65769,8.39819 C5.56561,8.39819 5.49097,8.32354 5.49097,8.23146 L5.49097,7.51931"/>
</g>

<g fill="#000000" fill-opacity="1" stroke="none" transform="matrix(1.02542,0,0,1.02542,11.148,3.96268)"
font-family="Inter" font-size="11" font-weight="700" font-style="normal" 
>
<path vector-effect="none" fill-rule="evenodd" d="M5.49097,10.5887 C5.49097,10.4966 5.56561,10.422 5.65769,10.422 L6.32946,10.422 C6.42154,10.422 6.49619,10.4966 6.49619,10.5887 L6.49619,11.3008 C6.49619,11.3929 6.42154,11.4676 6.32946,11.4676 L5.65769,11.4676 C5.56561,11.4676 5.49097,11.3929 5.49097,11.3008 L5.49097,10.5887"/>
</g>

<g fill="none" stroke="#000000" stroke-opacity="1" stroke-width="0.463675" stroke-linecap="round" stroke-linejoin="round" transform="matrix(1.02542,0,0,1.02542,11.148,3.96268)"
font-family="Inter" font-size="11" font-weight="700" font-style="normal" 
>
<path vector-effect="none" fill-rule="evenodd" d="M5.49097,10.5887 C5.49097,10.4966 5.56561,10.422 5.65769,10.422 L6.32946,10.422 C6.42154,10.422 6.49619,10.4966 6.49619,10.5887 L6.49619,11.3008 C6.49619,11.3929 6.42154,11.4676 6.32946,11.4676 L5.65769,11.4676 C5.56561,11.4676 5.49097,11.3929 5.49097,11.3008 L5.49097,10.5887"/>
</g>

<g fill="#000000" fill-opacity="1" stroke="none" transform="matrix(0,1.02542,-1.02542,0,26.9431,7.54411)"
font-family="Inter" font-size="11" font-weight="700" font-style="normal" 
>
<path vector-effect="none" fill-rule="evenodd" d="M5.49097,7.51931 C5.49097,7.42723 5.56561,7.35258 5.65769,7.35258 L6.32946,7.35258 C6.42154,7.35258 6.49619,7.42723 6.49619,7.51931 L6.49619,8.23146 C6.49619,8.32354 6.42154,8.39819 6.32946,8.39819 L5.65769,8.39819 C5.56561,8.39819 5.49097,8.32354 5.49097,8.23146 L5.49097,7.51931"/>
</g>

<g fill="none" stroke="#000000" stroke-opacity="1" stroke-width="0.463675" stroke-linecap="round" stroke-linejoin="round" transform="matrix(0,1.02542,-1.02542,0,26.9431,7.54411)"
font-family="Inter" font-size="11" font-weight="700" font-style="normal" 
>
<path vector-effect="none" fill-rule="evenodd" d="M5.49097,7.51931 C5.49097,7.42723 5.56561,7.35258 5.65769,7.35258 L6.32946,7.35258 C6.42154,7.35258 6.49619,7.42723 6.49619,7.51931 L6.49619,8.23146 C6.49619,8.32354 6.42154,8.39819 6.32946,8.39819 L5.65769,8.39819 C5.56561,8.39819 5.49097,8.32354 5.49097,8.23146 L5.49097,7.51931"/>
</g>

<g fill="#000000" fill-opacity="1" stroke="none" transform="matrix(0,1.02542,-1.02542,0,26.9431,7.54411)"
font-family="Inter" font-size="11" font-weight="700" font-style="normal" 
>
<path vector-effect="none" fill-rule="evenodd" d="M5.49097,10.5887 C5.49097,10.4966 5.56561,10.422 5.65769,10.422 L6.32946,10.422 C6.42154,10.422 6.49619,10.4966 6.49619,10.5887 L6.49619,11.3008 C6.49619,11.3929 6.42154,11.4676 6.32946,11.4676 L5.65769,11.4676 C5.56561,11.4676 5.49097,11.3929 5.49097,11.3008 L5.49097,10.5887"/>
</g>

<g fill="none" stroke="#000000" stroke-opacity="1" stroke-width="0.463675" stroke-linecap="round" stroke-linejoin="round" transform="matrix(0,1.02542,-1.02542,0,26.9431,7.54411)"
font-family="Inter" font-size="11" font-weight="700" font-style="normal" 
>
<path vector-effect="none" fill-rule="evenodd" d="M5.49097,10.5887 C5.49097,10.4966 5.56561,10.422 5.65769,10.422 L6.32946,10.422 C6.42154,10.422 6.49619,10.4966 6.49619,10.5887 L6.49619,11.3008 C6.49619,11.3929 6.42154,11.4676 6.32946,11.4676 L5.65769,11.4676 C5.56561,11.4676 5.49097,11.3929 5.49097,11.3008 L5.49097,10.5887"/>
</g>

<g fill="none" stroke="#000000" stroke-opacity="1" stroke-width="0.32496" stroke-linecap="round" stroke-linejoin="round" transform="matrix(0.95,0,0,0.95,11.6,4.6)"
font-family="Inter" font-size="11" font-weight="700" font-style="normal" 
>
<path vector-effect="none" fill-rule="evenodd" d="M17.0283,7.32484 C17.0283,6.74873 17.4954,6.28169 18.0715,6.28169 L18.1437,6.28169 C18.7198,6.28169 19.1869,6.74873 19.1869,7.32484 L19.1869,7.40867 C19.1869,7.98479 18.7198,8.45182 18.1437,8.45182 L18.0715,8.45182 C17.4954,8.45182 17.0283,7.98479 17.0283,7.40867 L17.0283,7.32484"/>
</g>

<g fill="none" stroke="#000000" stroke-opacity="1" stroke-width="0.32496" stroke-linecap="round" stroke-linejoin="round" transform="matrix(0.95,0,0,0.95,11.6,4.6)"
font-family="Inter" font-size="11" font-weight="700" font-style="normal" 
>
<path vector-effect="none" fill-rule="evenodd" d="M19.2177,9.55083 C19.2177,8.97472 19.6848,8.50768 20.2609,8.50768 L20.3331,8.50768 C20.9092,8.50768 21.3763,8.97472 21.3763,9.55083 L21.3763,9.63466 C21.3763,10.2108 20.9092,10.6778 20.3331,10.6778 L20.2609,10.6778 C19.6848,10.6778 19.2177,10.2108 19.2177,9.63466 L19.2177,9.55083"/>
</g>

<g fill="none" stroke="#000000" stroke-opacity="1" stroke-width="0.32496" stroke-linecap="round" stroke-linejoin="round" transform="matrix(0.95,0,0,0.95,11.6,4.6)"
font-family="Inter" font-size="11" font-weight="700" font-style="normal" 
>
<path vector-effect="none" fill-rule="evenodd" d="M14.8925,9.52667 C14.8925,8.95055 15.3596,8.48352 15.9357,8.48352 L16.0079,8.48352 C16.584,8.48352 17.0511,8.95055 17.0511,9.52667 L17.0511,9.61049 C17.0511,10.1866 16.584,10.6536 16.0079,10.6536 L15.9357,10.6536 C15.3596,10.6536 14.8925,10.1866 14.8925,9.61049 L14.8925,9.52667"/>
</g>

<g fill="none" stroke="#000000" stroke-opacity="1" stroke-width="0.32496" stroke-linecap="round" stroke-linejoin="round" transform="matrix(0.95,0,0,0.95,11.6,4.6)"
font-family="Inter" font-size="11" font-weight="700" font-style="normal" 
>
<path vector-effect="none" fill-rule="evenodd" d="M16.9947,11.5322 C16.9947,10.9561 17.4618,10.4891 18.0379,10.4891 L18.1101,10.4891 C18.6862,10.4891 19.1533,10.9561 19.1533,11.5322 L19.1533,11.616 C19.1533,12.1921 18.6862,12.6592 18.1101,12.6592 L18.0379,12.6592 C17.4618,12.6592 16.9947,12.1921 16.9947,11.616 L16.9947,11.5322"/>
</g>

<g fill="#000000" fill-opacity="1" stroke="none" transform="matrix(0.95,0,0,0.95,11.6,4.6)"
font-family="Inter" font-size="11" font-weight="700" font-style="normal" 
>
<path vector-effect="none" fill-rule="evenodd" d="M10.7009,12.2391 C10.7009,11.9791 10.9118,11.7682 11.1719,11.7682 L12.8281,11.7682 C13.0882,11.7682 13.2991,11.9791 13.2991,12.2391 C13.2991,12.4992 13.0882,12.71 12.8281,12.71 L11.1719,12.71 C10.9118,12.71 10.7009,12.4992 10.7009,12.2391 "/>
</g>

<g fill="#ffffff" fill-opacity="1" stroke="none" transform="matrix(1,0,0,1,0,0)"
font-family="Inter" font-size="11" font-weight="700" font-style="normal" 
>
</g>

<g fill="#ffffff" fill-opacity="1" stroke="#006e51" stroke-opacity="1" stroke-width="1" stroke-linecap="square" stroke-linejoin="bevel" transform="matrix(1,0,0,1,0,0)"
font-family="Inter" font-size="11" font-weight="700" font-style="normal" 
>
<polyline fill="none" vector-effect="none" points="45,6 45,26 " />
</g>

<g fill="#ffffff" fill-opacity="1" stroke="#006e51" stroke-opacity="1" stroke-width="1" stroke-linecap="square" stroke-linejoin="bevel" transform="matrix(1,0,0,1,0,0)"
font-family="Inter" font-size="11" font-weight="700" font-style="normal" 
>
</g>

<g fill="#00a97d" fill-opacity="1" stroke="#006e51" stroke-opacity="1" stroke-width="1.2" stroke-linecap="square" stroke-linejoin="bevel" transform="matrix(1,0,0,1,111,4)"
font-family="Inter" font-size="11" font-weight="700" font-style="normal" 
>
<path vector-effect="none" fill-rule="evenodd" d="M0.5,3.5 C0.5,1.84315 1.84315,0.5 3.5,0.5 L70.5,0.5 C72.1569,0.5 73.5,1.84315 73.5,3.5 L73.5,20.5 C73.5,22.1569 72.1569,23.5 70.5,23.5 L3.5,23.5 C1.84315,23.5 0.5,22.1569 0.5,20.5 L0.5,3.5"/>
</g>

<g fill="#ffffff" fill-opacity="1" stroke="none" transform="matrix(1,0,0,1,111,4)"
font-family="Inter" font-size="11" font-weight="700" font-style="normal" 
>
<path vector-effect="none" fill-rule="nonzero" d="M9.00781,17.0781 L9.00781,8.82813 L10.6484,8.82813 L10.6484,9.83594 L10.7227,9.83594 C10.7956,9.67448 10.9017,9.50977 11.041,9.3418 C11.1803,9.17383 11.3626,9.0332 11.5879,8.91992 C11.8132,8.80664 12.0938,8.75 12.4297,8.75 C12.8672,8.75 13.2708,8.86393 13.6406,9.0918 C14.0104,9.31966 14.306,9.66211 14.5273,10.1191 C14.7487,10.5762 14.8594,11.1484 14.8594,11.8359 C14.8594,12.5052 14.752,13.0697 14.5371,13.5293 C14.3223,13.9889 14.0306,14.3366 13.6621,14.5723 C13.2936,14.8079 12.8815,14.9258 12.4258,14.9258 C12.1029,14.9258 11.8288,14.8724 11.6035,14.7656 C11.3783,14.6589 11.194,14.5241 11.0508,14.3613 C10.9076,14.1986 10.7982,14.0339 10.7227,13.8672 L10.6719,13.8672 L10.6719,17.0781 L9.00781,17.0781 M10.6367,11.8281 C10.6367,12.1849 10.6862,12.4961 10.7852,12.7617 C10.8841,13.0273 11.0273,13.2337 11.2148,13.3809 C11.4023,13.528 11.6302,13.6016 11.8984,13.6016 C12.1693,13.6016 12.3984,13.5267 12.5859,13.377 C12.7734,13.2272 12.916,13.0189 13.0137,12.752 C13.1113,12.485 13.1602,12.1771 13.1602,11.8281 C13.1602,11.4818 13.112,11.1771 13.0156,10.9141 C12.9193,10.651 12.7773,10.4453 12.5898,10.2969 C12.4023,10.1484 12.1719,10.0742 11.8984,10.0742 C11.6276,10.0742 11.3991,10.1458 11.2129,10.2891 C11.0267,10.4323 10.8841,10.6354 10.7852,10.8984 C10.6862,11.1615 10.6367,11.4714 10.6367,11.8281 M15.9609,14.8281 L15.9609,8.82813 L17.5742,8.82813 L17.5742,9.875 L17.6367,9.875 C17.7461,9.5026 17.9297,9.2207 18.1875,9.0293 C18.4453,8.83789 18.7422,8.74219 19.0781,8.74219 C19.1615,8.74219 19.2513,8.7474 19.3477,8.75781 C19.444,8.76823 19.5286,8.78255 19.6016,8.80078 L19.6016,10.2773 C19.5234,10.2539 19.4154,10.2331 19.2773,10.2148 C19.1393,10.1966 19.013,10.1875 18.8984,10.1875 C18.6536,10.1875 18.4355,10.2402 18.2441,10.3457 C18.0527,10.4512 17.9017,10.5977 17.791,10.7852 C17.6803,10.9727 17.625,11.1888 17.625,11.4336 L17.625,14.8281 L15.9609,14.8281 M22.8984,14.9453 C22.2813,14.9453 21.7507,14.8197 21.3066,14.5684 C20.8626,14.3171 20.5208,13.9603 20.2813,13.498 C20.0417,13.0358 19.9219,12.4883 19.9219,11.8555 C19.9219,11.2383 20.0417,10.6966 20.2813,10.2305 C20.5208,9.76432 20.8587,9.40104 21.2949,9.14063 C21.7311,8.88021 22.2435,8.75 22.832,8.75 C23.2279,8.75 23.597,8.81315 23.9395,8.93945 C24.2819,9.06576 24.5814,9.25521 24.8379,9.50781 C25.0944,9.76042 25.2943,10.0775 25.4375,10.459 C25.5807,10.8405 25.6523,11.2865 25.6523,11.7969 L25.6523,12.2539 L20.5859,12.2539 L20.5859,11.2227 L24.0859,11.2227 C24.0859,10.9831 24.0339,10.7708 23.9297,10.5859 C23.8255,10.401 23.6816,10.2559 23.498,10.1504 C23.3145,10.0449 23.1016,9.99219 22.8594,9.99219 C22.6068,9.99219 22.3835,10.0501 22.1895,10.166 C21.9954,10.2819 21.8438,10.4368 21.7344,10.6309 C21.625,10.8249 21.569,11.0404 21.5664,11.2773 L21.5664,12.2578 C21.5664,12.5547 21.6217,12.8112 21.7324,13.0273 C21.8431,13.2435 22,13.4102 22.2031,13.5273 C22.4063,13.6445 22.6471,13.7031 22.9258,13.7031 C23.1107,13.7031 23.2799,13.6771 23.4336,13.625 C23.5872,13.5729 23.7188,13.4948 23.8281,13.3906 C23.9375,13.2865 24.0208,13.1589 24.0781,13.0078 L25.6172,13.1094 C25.5391,13.4792 25.3796,13.8014 25.1387,14.0762 C24.8978,14.3509 24.5879,14.5645 24.209,14.7168 C23.8301,14.8691 23.3932,14.9453 22.8984,14.9453 M31.7188,10.5391 L30.1953,10.6328 C30.1693,10.5026 30.1133,10.3848 30.0273,10.2793 C29.9414,10.1738 29.8288,10.0892 29.6895,10.0254 C29.5501,9.96159 29.3841,9.92969 29.1914,9.92969 C28.9336,9.92969 28.7161,9.98372 28.5391,10.0918 C28.362,10.1999 28.2734,10.3438 28.2734,10.5234 C28.2734,10.6667 28.3307,10.7878 28.4453,10.8867 C28.5599,10.9857 28.7565,11.0651 29.0352,11.125 L30.1211,11.3438 C30.7044,11.4635 31.1393,11.6563 31.4258,11.9219 C31.7122,12.1875 31.8555,12.5365 31.8555,12.9688 C31.8555,13.362 31.7402,13.707 31.5098,14.0039 C31.2793,14.3008 30.9642,14.5319 30.5645,14.6973 C30.1647,14.8626 29.7044,14.9453 29.1836,14.9453 C28.3893,14.9453 27.7572,14.7793 27.2871,14.4473 C26.8171,14.1152 26.5417,13.6628 26.4609,13.0898 L28.0977,13.0039 C28.1471,13.2461 28.2669,13.4303 28.457,13.5566 C28.6471,13.6829 28.8906,13.7461 29.1875,13.7461 C29.4792,13.7461 29.7142,13.6895 29.8926,13.5762 C30.071,13.4629 30.1615,13.3164 30.1641,13.1367 C30.1615,12.9857 30.0977,12.8613 29.9727,12.7637 C29.8477,12.666 29.6549,12.5911 29.3945,12.5391 L28.3555,12.332 C27.7695,12.2148 27.334,12.0117 27.0488,11.7227 C26.7637,11.4336 26.6211,11.0651 26.6211,10.6172 C26.6211,10.2318 26.7259,9.89974 26.9355,9.62109 C27.1452,9.34245 27.4408,9.1276 27.8223,8.97656 C28.2038,8.82552 28.651,8.75 29.1641,8.75 C29.9219,8.75 30.5189,8.91016 30.9551,9.23047 C31.3913,9.55078 31.6458,9.98698 31.7188,10.5391 M37.8906,10.5391 L36.3672,10.6328 C36.3411,10.5026 36.2852,10.3848 36.1992,10.2793 C36.1133,10.1738 36.0007,10.0892 35.8613,10.0254 C35.722,9.96159 35.556,9.92969 35.3633,9.92969 C35.1055,9.92969 34.888,9.98372 34.7109,10.0918 C34.5339,10.1999 34.4453,10.3438 34.4453,10.5234 C34.4453,10.6667 34.5026,10.7878 34.6172,10.8867 C34.7318,10.9857 34.9284,11.0651 35.207,11.125 L36.293,11.3438 C36.8763,11.4635 37.3112,11.6563 37.5977,11.9219 C37.8841,12.1875 38.0273,12.5365 38.0273,12.9688 C38.0273,13.362 37.9121,13.707 37.6816,14.0039 C37.4512,14.3008 37.1361,14.5319 36.7363,14.6973 C36.3366,14.8626 35.8763,14.9453 35.3555,14.9453 C34.5612,14.9453 33.929,14.7793 33.459,14.4473 C32.9889,14.1152 32.7135,13.6628 32.6328,13.0898 L34.2695,13.0039 C34.319,13.2461 34.4388,13.4303 34.6289,13.5566 C34.819,13.6829 35.0625,13.7461 35.3594,13.7461 C35.651,13.7461 35.8861,13.6895 36.0645,13.5762 C36.2428,13.4629 36.3333,13.3164 36.3359,13.1367 C36.3333,12.9857 36.2695,12.8613 36.1445,12.7637 C36.0195,12.666 35.8268,12.5911 35.5664,12.5391 L34.5273,12.332 C33.9414,12.2148 33.5059,12.0117 33.2207,11.7227 C32.9355,11.4336 32.793,11.0651 32.793,10.6172 C32.793,10.2318 32.8978,9.89974 33.1074,9.62109 C33.3171,9.34245 33.6126,9.1276 33.9941,8.97656 C34.3757,8.82552 34.8229,8.75 35.3359,8.75 C36.0938,8.75 36.6908,8.91016 37.127,9.23047 C37.5632,9.55078 37.8177,9.98698 37.8906,10.5391 M41.8047,14.9453 C41.1875,14.9453 40.6569,14.8197 40.2129,14.5684 C39.7689,14.3171 39.4271,13.9603 39.1875,13.498 C38.9479,13.0358 38.8281,12.4883 38.8281,11.8555 C38.8281,11.2383 38.9479,10.6966 39.1875,10.2305 C39.4271,9.76432 39.765,9.40104 40.2012,9.14063 C40.6374,8.88021 41.1497,8.75 41.7383,8.75 C42.1341,8.75 42.5033,8.81315 42.8457,8.93945 C43.1882,9.06576 43.4876,9.25521 43.7441,9.50781 C44.0007,9.76042 44.2005,10.0775 44.3438,10.459 C44.487,10.8405 44.5586,11.2865 44.5586,11.7969 L44.5586,12.2539 L39.4922,12.2539 L39.4922,11.2227 L42.9922,11.2227 C42.9922,10.9831 42.9401,10.7708 42.8359,10.5859 C42.7318,10.401 42.5879,10.2559 42.4043,10.1504 C42.2207,10.0449 42.0078,9.99219 41.7656,9.99219 C41.513,9.99219 41.2897,10.0501 41.0957,10.166 C40.9017,10.2819 40.75,10.4368 40.6406,10.6309 C40.5313,10.8249 40.4753,11.0404 40.4727,11.2773 L40.4727,12.2578 C40.4727,12.5547 40.528,12.8112 40.6387,13.0273 C40.7493,13.2435 40.9063,13.4102 41.1094,13.5273 C41.3125,13.6445 41.5534,13.7031 41.832,13.7031 C42.0169,13.7031 42.1862,13.6771 42.3398,13.625 C42.4935,13.5729 42.625,13.4948 42.7344,13.3906 C42.8438,13.2865 42.9271,13.1589 42.9844,13.0078 L44.5234,13.1094 C44.4453,13.4792 44.2858,13.8014 44.0449,14.0762 C43.804,14.3509 43.4941,14.5645 43.1152,14.7168 C42.7363,14.8691 42.2995,14.9453 41.8047,14.9453 M47.8438,14.9258 C47.388,14.9258 46.9759,14.8079 46.6074,14.5723 C46.2389,14.3366 45.9473,13.9889 45.7324,13.5293 C45.5176,13.0697 45.4102,12.5052 45.4102,11.8359 C45.4102,11.1484 45.5208,10.5762 45.7422,10.1191 C45.9635,9.66211 46.2585,9.31966 46.627,9.0918 C46.9954,8.86393 47.3997,8.75 47.8398,8.75 C48.1758,8.75 48.4564,8.80664 48.6816,8.91992 C48.9069,9.0332 49.0892,9.17383 49.2285,9.3418 C49.3678,9.50977 49.474,9.67448 49.5469,9.83594 L49.5977,9.83594 L49.5977,6.82813 L51.2578,6.82813 L51.2578,14.8281 L49.6172,14.8281 L49.6172,13.8672 L49.5469,13.8672 C49.4688,14.0339 49.3587,14.1986 49.2168,14.3613 C49.0749,14.5241 48.8913,14.6589 48.666,14.7656 C48.4408,14.8724 48.1667,14.9258 47.8438,14.9258 M48.3711,13.6016 C48.6393,13.6016 48.8665,13.528 49.0527,13.3809 C49.2389,13.2337 49.3822,13.0273 49.4824,12.7617 C49.5827,12.4961 49.6328,12.1849 49.6328,11.8281 C49.6328,11.4714 49.5833,11.1615 49.4844,10.8984 C49.3854,10.6354 49.2422,10.4323 49.0547,10.2891 C48.8672,10.1458 48.6393,10.0742 48.3711,10.0742 C48.0977,10.0742 47.8672,10.1484 47.6797,10.2969 C47.4922,10.4453 47.3503,10.651 47.2539,10.9141 C47.1576,11.1771 47.1094,11.4818 47.1094,11.8281 C47.1094,12.1771 47.1582,12.485 47.2559,12.752 C47.3535,13.0189 47.4954,13.2272 47.6816,13.377 C47.8678,13.5267 48.0977,13.6016 48.3711,13.6016 "/>
</g>

<g fill="#ffffff" fill-opacity="1" stroke="none" transform="matrix(0.03125,0,0,0.03125,171,12)"
font-family="Inter" font-size="11" font-weight="700" font-style="normal" 
>
<path vector-effect="none" fill-rule="nonzero" d="M111.326,191.938 C120.545,201.158 135.517,201.158 144.737,191.938 L239.144,97.5313 C245.929,90.7458 247.921,80.6413 244.233,71.7907 C240.545,62.9401 231.989,57.1871 222.401,57.1871 L33.5875,57.2608 C24.0731,57.2608 15.4437,63.0137 11.7559,71.8644 C8.06815,80.715 10.1333,90.8195 16.845,97.605 L111.252,192.012 L111.326,191.938"/>
</g>

<g fill="none" stroke="#000000" stroke-opacity="1" stroke-width="13.7195" stroke-linecap="butt" stroke-linejoin="miter" stroke-miterlimit="4" transform="matrix(0.03125,0,0,0.03125,171,12)"
font-family="Inter" font-size="11" font-weight="700" font-style="normal" 
>
<path vector-effect="none" fill-rule="nonzero" d="M111.326,191.938 C120.545,201.158 135.517,201.158 144.737,191.938 L239.144,97.5313 C245.929,90.7458 247.921,80.6413 244.233,71.7907 C240.545,62.9401 231.989,57.1871 222.401,57.1871 L33.5875,57.2608 C24.0731,57.2608 15.4437,63.0137 11.7559,71.8644 C8.06815,80.715 10.1333,90.8195 16.845,97.605 L111.252,192.012 L111.326,191.938"/>
</g>

<g fill="#ffffff" fill-opacity="1" stroke="none" transform="matrix(1,0,0,1,111,4)"
font-family="Inter" font-size="11" font-weight="700" font-style="normal" 
>
</g>

<g fill="#ffffff" fill-opacity="1" stroke="#006e51" stroke-opacity="1" stroke-width="1" stroke-linecap="square" stroke-linejoin="bevel" transform="matrix(1,0,0,1,0,0)"
font-family="Inter" font-size="11" font-weight="700" font-style="normal" 
>
</g>

<g fill="#00a97d" fill-opacity="1" stroke="#006e51" stroke-opacity="1" stroke-width="1.2" stroke-linecap="square" stroke-linejoin="bevel" transform="matrix(1,0,0,1,67,4)"
font-family="Inter" font-size="11" font-weight="700" font-style="normal" 
>
<path vector-effect="none" fill-rule="evenodd" d="M0.5,3.5 C0.5,1.84315 1.84315,0.5 3.5,0.5 L36.5,0.5 C38.1569,0.5 39.5,1.84315 39.5,3.5 L39.5,20.5 C39.5,22.1569 38.1569,23.5 36.5,23.5 L3.5,23.5 C1.84315,23.5 0.5,22.1569 0.5,20.5 L0.5,3.5"/>
</g>

<g fill="#ffffff" fill-opacity="1" stroke="none" transform="matrix(1,0,0,1,67,4)"
font-family="Inter" font-size="11" font-weight="700" font-style="normal" 
>
<path vector-effect="none" fill-rule="nonzero" d="M11.8242,16 L10.0117,16 L12.7734,8 L14.9531,8 L17.7109,16 L15.8984,16 L13.8945,9.82813 L13.832,9.82813 L11.8242,16 M11.7109,12.8555 L15.9922,12.8555 L15.9922,14.1758 L11.7109,14.1758 L11.7109,12.8555"/>
</g>

<g fill="#ffffff" fill-opacity="1" stroke="none" transform="matrix(0.03125,0,0,0.03125,93,12)"
font-family="Inter" font-size="11" font-weight="700" font-style="normal" 
>
<path vector-effect="none" fill-rule="nonzero" d="M111.326,191.938 C120.545,201.158 135.517,201.158 144.737,191.938 L239.144,97.5313 C245.929,90.7458 247.921,80.6413 244.233,71.7907 C240.545,62.9401 231.989,57.1871 222.401,57.1871 L33.5875,57.2608 C24.0731,57.2608 15.4437,63.0137 11.7559,71.8644 C8.06815,80.715 10.1333,90.8195 16.845,97.605 L111.252,192.012 L111.326,191.938"/>
</g>

<g fill="none" stroke="#000000" stroke-opacity="1" stroke-width="13.7195" stroke-linecap="butt" stroke-linejoin="miter" stroke-miterlimit="4" transform="matrix(0.03125,0,0,0.03125,93,12)"
font-family="Inter" font-size="11" font-weight="700" font-style="normal" 
>
<path vector-effect="none" fill-rule="nonzero" d="M111.326,191.938 C120.545,201.158 135.517,201.158 144.737,191.938 L239.144,97.5313 C245.929,90.7458 247.921,80.6413 244.233,71.7907 C240.545,62.9401 231.989,57.1871 222.401,57.1871 L33.5875,57.2608 C24.0731,57.2608 15.4437,63.0137 11.7559,71.8644 C8.06815,80.715 10.1333,90.8195 16.845,97.605 L111.252,192.012 L111.326,191.938"/>
</g>

<g fill="#ffffff" fill-opacity="1" stroke="none" transform="matrix(1,0,0,1,67,4)"
font-family="Inter" font-size="11" font-weight="700" font-style="normal" 
>
</g>

<g fill="#ffffff" fill-opacity="1" stroke="#006e51" stroke-opacity="1" stroke-width="1" stroke-linecap="square" stroke-linejoin="bevel" transform="matrix(1,0,0,1,0,0)"
font-family="Inter" font-size="11" font-weight="700" font-style="normal" 
>
</g>

<g fill="none" stroke="#000000" stroke-opacity="1" stroke-width="1" stroke-linecap="square" stroke-linejoin="bevel" transform="matrix(1,0,0,1,0,0)"
font-family=".AppleSystemUIFont" font-size="13" font-weight="400" font-style="normal" 
>
</g>
</g>
</svg>
