<?xml version="1.0" encoding="UTF-8" standalone="no"?>
<svg width="38.8056mm" height="15.5222mm"
 viewBox="0 0 110 44"
 xmlns="http://www.w3.org/2000/svg" xmlns:xlink="http://www.w3.org/1999/xlink" version="1.2" baseProfile="tiny">
<title>Abstract block</title>
<desc>block_control_wait_until</desc>
<defs>
</defs>
<g fill="none" stroke="black" stroke-width="1" fill-rule="evenodd" stroke-linecap="square" stroke-linejoin="bevel" >

<g fill="none" stroke="#000000" stroke-opacity="1" stroke-width="1" stroke-linecap="square" stroke-linejoin="bevel" transform="matrix(1,0,0,1,0,0)"
font-family=".AppleSystemUIFont" font-size="13" font-weight="400" font-style="normal" 
>
</g>

<g fill="none" stroke="#000000" stroke-opacity="1" stroke-width="1" stroke-linecap="square" stroke-linejoin="bevel" transform="matrix(1,0,0,1,0,0)"
font-family=".AppleSystemUIFont" font-size="13" font-weight="400" font-style="normal" 
>
</g>

<g fill="#ffb515" fill-opacity="1" stroke="#d89400" stroke-opacity="1" stroke-width="1.2" stroke-linecap="square" stroke-linejoin="bevel" transform="matrix(1,0,0,1,0,0)"
font-family=".AppleSystemUIFont" font-size="13" font-weight="400" font-style="normal" 
>
<path vector-effect="none" fill-rule="evenodd" d="M0.5,4.5 L1.04612,2.48112 L2.48112,1.04612 L4.5,0.5 L9.625,0.5 L10.416,0.976563 L11.1719,1.6875 L11.998,2.67969 L13,4 L13.7559,4.66016 L14.5469,5.15625 L15.4082,5.51172 L16.375,5.75 L17.4824,5.89453 L18.7656,5.96875 L20.2598,5.99609 L22,6 L23.7402,5.99609 L25.2344,5.96875 L26.5176,5.89453 L27.625,5.75 L28.5918,5.51172 L29.4531,5.15625 L30.2441,4.66016 L31,4 L32.002,2.67969 L32.8281,1.6875 L33.584,0.976563 L34.375,0.5 L104.7,0.5 L106.719,1.04612 L108.154,2.48112 L108.7,4.5 L108.7,31.5 L108.154,33.5189 L106.719,34.9539 L104.7,35.5 L34.375,35.5 L33.584,35.9766 L32.8281,36.6875 L32.002,37.6797 L31,39 L30.2441,39.6602 L29.4531,40.1563 L28.5918,40.5117 L27.625,40.75 L26.5176,40.8945 L25.2344,40.9688 L23.7402,40.9961 L22,41 L20.2598,40.9961 L18.7656,40.9688 L17.4824,40.8945 L16.375,40.75 L15.4082,40.5117 L14.5469,40.1563 L13.7559,39.6602 L13,39 L11.998,37.6797 L11.1719,36.6875 L10.416,35.9766 L9.625,35.5 L4.5,35.5 L2.48112,34.9539 L1.04612,33.5189 L0.5,31.5 L0.5,4.5"/>
</g>

<g fill="#ffffff" fill-opacity="1" stroke="none" transform="matrix(1,0,0,1,0,0)"
font-family="Inter" font-size="11" font-weight="700" font-style="normal" 
>
<path vector-effect="none" fill-rule="nonzero" d="M13.4102,21.9531 L11.7773,15.9531 L13.4609,15.9531 L14.3906,19.9844 L14.4453,19.9844 L15.4141,15.9531 L17.0664,15.9531 L18.0508,19.9609 L18.1016,19.9609 L19.0156,15.9531 L20.6953,15.9531 L19.0664,21.9531 L17.3047,21.9531 L16.2734,18.1797 L16.1992,18.1797 L15.168,21.9531 L13.4102,21.9531 M23.2813,22.0664 C22.8984,22.0664 22.5573,21.9993 22.2578,21.8652 C21.9583,21.7311 21.722,21.5319 21.5488,21.2676 C21.3757,21.0033 21.2891,20.6732 21.2891,20.2773 C21.2891,19.944 21.3503,19.6641 21.4727,19.4375 C21.5951,19.2109 21.7617,19.0286 21.9727,18.8906 C22.1836,18.7526 22.4238,18.6484 22.6934,18.5781 C22.9629,18.5078 23.2461,18.4583 23.543,18.4297 C23.8919,18.3932 24.1732,18.3587 24.3867,18.3262 C24.6003,18.2936 24.7552,18.2448 24.8516,18.1797 C24.9479,18.1146 24.9961,18.0182 24.9961,17.8906 L24.9961,17.8672 C24.9961,17.6198 24.9186,17.4284 24.7637,17.293 C24.6087,17.1576 24.3893,17.0898 24.1055,17.0898 C23.806,17.0898 23.5677,17.1556 23.3906,17.2871 C23.2135,17.4186 23.0964,17.5833 23.0391,17.7813 L21.5,17.6563 C21.5781,17.2917 21.7318,16.9759 21.9609,16.709 C22.1901,16.4421 22.4863,16.2363 22.8496,16.0918 C23.2129,15.9473 23.6341,15.875 24.1133,15.875 C24.4466,15.875 24.7663,15.9141 25.0723,15.9922 C25.3783,16.0703 25.6504,16.1914 25.8887,16.3555 C26.127,16.5195 26.3151,16.7298 26.4531,16.9863 C26.5911,17.2428 26.6602,17.5495 26.6602,17.9063 L26.6602,21.9531 L25.082,21.9531 L25.082,21.1211 L25.0352,21.1211 C24.9388,21.3086 24.8099,21.4733 24.6484,21.6152 C24.487,21.7572 24.293,21.8678 24.0664,21.9473 C23.8398,22.0267 23.5781,22.0664 23.2813,22.0664 M23.7578,20.918 C24.0026,20.918 24.2188,20.8691 24.4063,20.7715 C24.5938,20.6738 24.7409,20.5417 24.8477,20.375 C24.9544,20.2083 25.0078,20.0195 25.0078,19.8086 L25.0078,19.1719 C24.9557,19.2057 24.8848,19.2363 24.7949,19.2637 C24.7051,19.291 24.6042,19.3158 24.4922,19.3379 C24.3802,19.36 24.2682,19.3796 24.1563,19.3965 C24.0443,19.4134 23.9427,19.4284 23.8516,19.4414 C23.6563,19.4701 23.4857,19.5156 23.3398,19.5781 C23.194,19.6406 23.0807,19.7246 23,19.8301 C22.9193,19.9355 22.8789,20.0664 22.8789,20.2227 C22.8789,20.4492 22.9616,20.6217 23.127,20.7402 C23.2923,20.8587 23.5026,20.918 23.7578,20.918 M27.9453,21.9531 L27.9453,15.9531 L29.6094,15.9531 L29.6094,21.9531 L27.9453,21.9531 M28.7813,15.1797 C28.5339,15.1797 28.3223,15.097 28.1465,14.9316 C27.9707,14.7663 27.8828,14.5677 27.8828,14.3359 C27.8828,14.1068 27.9707,13.9095 28.1465,13.7441 C28.3223,13.5788 28.5339,13.4961 28.7813,13.4961 C29.0286,13.4961 29.2402,13.5788 29.416,13.7441 C29.5918,13.9095 29.6797,14.1068 29.6797,14.3359 C29.6797,14.5677 29.5918,14.7663 29.416,14.9316 C29.2402,15.097 29.0286,15.1797 28.7813,15.1797 M34.1211,15.9531 L34.1211,17.2031 L30.5078,17.2031 L30.5078,15.9531 L34.1211,15.9531 M31.3281,14.5156 L32.9922,14.5156 L32.9922,20.1094 C32.9922,20.263 33.0156,20.3822 33.0625,20.4668 C33.1094,20.5514 33.1751,20.6107 33.2598,20.6445 C33.3444,20.6784 33.4427,20.6953 33.5547,20.6953 C33.6328,20.6953 33.7109,20.6882 33.7891,20.6738 C33.8672,20.6595 33.9271,20.6484 33.9688,20.6406 L34.2305,21.8789 C34.1471,21.9049 34.0299,21.9355 33.8789,21.9707 C33.7279,22.0059 33.5443,22.0273 33.3281,22.0352 C32.9271,22.0508 32.5762,21.9974 32.2754,21.875 C31.9746,21.7526 31.7409,21.5625 31.5742,21.3047 C31.4076,21.0469 31.3255,20.7214 31.3281,20.3281 L31.3281,14.5156 M41.5898,19.3984 L41.5898,15.9531 L43.2539,15.9531 L43.2539,21.9531 L41.6563,21.9531 L41.6563,20.8633 L41.5938,20.8633 C41.4583,21.2148 41.2337,21.4974 40.9199,21.7109 C40.6061,21.9245 40.224,22.0313 39.7734,22.0313 C39.3724,22.0313 39.0195,21.9401 38.7148,21.7578 C38.4102,21.5755 38.1725,21.3164 38.002,20.9805 C37.8314,20.6445 37.7448,20.2422 37.7422,19.7734 L37.7422,15.9531 L39.4063,15.9531 L39.4063,19.4766 C39.4089,19.8307 39.5039,20.1107 39.6914,20.3164 C39.8789,20.5221 40.1302,20.625 40.4453,20.625 C40.6458,20.625 40.8333,20.5788 41.0078,20.4863 C41.1823,20.3939 41.3236,20.2565 41.4316,20.0742 C41.5397,19.8919 41.5924,19.6667 41.5898,19.3984 M46.2344,18.4844 L46.2344,21.9531 L44.5703,21.9531 L44.5703,15.9531 L46.1563,15.9531 L46.1563,17.0117 L46.2266,17.0117 C46.3594,16.6628 46.582,16.3861 46.8945,16.1816 C47.207,15.9772 47.5859,15.875 48.0313,15.875 C48.4479,15.875 48.8112,15.9661 49.1211,16.1484 C49.431,16.3307 49.6719,16.5905 49.8438,16.9277 C50.0156,17.265 50.1016,17.6667 50.1016,18.1328 L50.1016,21.9531 L48.4375,21.9531 L48.4375,18.4297 C48.4401,18.0625 48.3464,17.7754 48.1563,17.5684 C47.9661,17.3613 47.7044,17.2578 47.3711,17.2578 C47.1471,17.2578 46.9499,17.306 46.7793,17.4023 C46.6087,17.4987 46.4759,17.6387 46.3809,17.8223 C46.2858,18.0059 46.237,18.2266 46.2344,18.4844 M54.5898,15.9531 L54.5898,17.2031 L50.9766,17.2031 L50.9766,15.9531 L54.5898,15.9531 M51.7969,14.5156 L53.4609,14.5156 L53.4609,20.1094 C53.4609,20.263 53.4844,20.3822 53.5313,20.4668 C53.5781,20.5514 53.6439,20.6107 53.7285,20.6445 C53.8132,20.6784 53.9115,20.6953 54.0234,20.6953 C54.1016,20.6953 54.1797,20.6882 54.2578,20.6738 C54.3359,20.6595 54.3958,20.6484 54.4375,20.6406 L54.6992,21.8789 C54.6159,21.9049 54.4987,21.9355 54.3477,21.9707 C54.1966,22.0059 54.013,22.0273 53.7969,22.0352 C53.3958,22.0508 53.0449,21.9974 52.7441,21.875 C52.4434,21.7526 52.2096,21.5625 52.043,21.3047 C51.8763,21.0469 51.7943,20.7214 51.7969,20.3281 L51.7969,14.5156 M55.6641,21.9531 L55.6641,15.9531 L57.3281,15.9531 L57.3281,21.9531 L55.6641,21.9531 M56.5,15.1797 C56.2526,15.1797 56.041,15.097 55.8652,14.9316 C55.6895,14.7663 55.6016,14.5677 55.6016,14.3359 C55.6016,14.1068 55.6895,13.9095 55.8652,13.7441 C56.041,13.5788 56.2526,13.4961 56.5,13.4961 C56.7474,13.4961 56.959,13.5788 57.1348,13.7441 C57.3105,13.9095 57.3984,14.1068 57.3984,14.3359 C57.3984,14.5677 57.3105,14.7663 57.1348,14.9316 C56.959,15.097 56.7474,15.1797 56.5,15.1797 M60.3125,13.9531 L60.3125,21.9531 L58.6484,21.9531 L58.6484,13.9531 L60.3125,13.9531"/>
</g>

<g fill="#ffffff" fill-opacity="1" stroke="none" transform="matrix(1,0,0,1,0,0)"
font-family="Inter" font-size="11" font-weight="700" font-style="normal" 
>
</g>

<g fill="#ffffff" fill-opacity="1" stroke="none" transform="matrix(1,0,0,1,0,0)"
font-family="Inter" font-size="11" font-weight="700" font-style="normal" 
>
</g>

<g fill="#ffffff" fill-opacity="1" stroke="none" transform="matrix(1,0,0,1,0,0)"
font-family="Inter" font-size="11" font-weight="700" font-style="normal" 
>
</g>

<g fill="#d89400" fill-opacity="1" stroke="#c48600" stroke-opacity="1" stroke-width="1.2" stroke-linecap="square" stroke-linejoin="bevel" transform="matrix(1,0,0,1,67,7)"
font-family="Inter" font-size="11" font-weight="700" font-style="normal" 
>
<path vector-effect="none" fill-rule="evenodd" d="M0,11 L11,0 L24.2,0 L35.2,11 L24.2,22 L11,22 L0,11"/>
</g>

<g fill="#ffffff" fill-opacity="1" stroke="none" transform="matrix(1,0,0,1,0,0)"
font-family="Inter" font-size="11" font-weight="700" font-style="normal" 
>
</g>

<g fill="none" stroke="#000000" stroke-opacity="1" stroke-width="1" stroke-linecap="square" stroke-linejoin="bevel" transform="matrix(1,0,0,1,0,0)"
font-family=".AppleSystemUIFont" font-size="13" font-weight="400" font-style="normal" 
>
</g>
</g>
</svg>
