<?xml version="1.0" encoding="UTF-8" standalone="no"?>
<svg width="40.5694mm" height="9.87778mm"
 viewBox="0 0 115 28"
 xmlns="http://www.w3.org/2000/svg" xmlns:xlink="http://www.w3.org/1999/xlink" version="1.2" baseProfile="tiny">
<title>Abstract block</title>
<desc>block_operator_math_single</desc>
<defs>
</defs>
<g fill="none" stroke="black" stroke-width="1" fill-rule="evenodd" stroke-linecap="square" stroke-linejoin="bevel" >

<g fill="none" stroke="#000000" stroke-opacity="1" stroke-width="1" stroke-linecap="square" stroke-linejoin="bevel" transform="matrix(1,0,0,1,0,0)"
font-family=".AppleSystemUIFont" font-size="13" font-weight="400" font-style="normal" 
>
</g>

<g fill="none" stroke="#000000" stroke-opacity="1" stroke-width="1" stroke-linecap="square" stroke-linejoin="bevel" transform="matrix(1,0,0,1,0,0)"
font-family=".AppleSystemUIFont" font-size="13" font-weight="400" font-style="normal" 
>
</g>

<g fill="#00b94d" fill-opacity="1" stroke="#007e32" stroke-opacity="1" stroke-width="1.2" stroke-linecap="square" stroke-linejoin="bevel" transform="matrix(1,0,0,1,0,0)"
font-family=".AppleSystemUIFont" font-size="13" font-weight="400" font-style="normal" 
>
<path vector-effect="none" fill-rule="evenodd" d="M0.5,14 C0.5,6.54416 6.76801,0.5 14.5,0.5 L100.233,0.5 C107.965,0.5 114.233,6.54416 114.233,14 C114.233,21.4558 107.965,27.5 100.233,27.5 L14.5,27.5 C6.76801,27.5 0.5,21.4558 0.5,14 "/>
</g>

<g fill="#ffffff" fill-opacity="1" stroke="none" transform="matrix(1,0,0,1,0,0)"
font-family="Inter" font-size="11" font-weight="700" font-style="normal" 
>
<path vector-effect="none" fill-rule="nonzero" d="M71.5,18.1172 C70.8932,18.1172 70.3691,17.9876 69.9277,17.7285 C69.4863,17.4694 69.1458,17.1074 68.9063,16.6426 C68.6667,16.1777 68.5469,15.638 68.5469,15.0234 C68.5469,14.4036 68.6667,13.8613 68.9063,13.3965 C69.1458,12.9316 69.4863,12.5697 69.9277,12.3105 C70.3691,12.0514 70.8932,11.9219 71.5,11.9219 C72.1068,11.9219 72.6309,12.0514 73.0723,12.3105 C73.5137,12.5697 73.8542,12.9316 74.0938,13.3965 C74.3333,13.8613 74.4531,14.4036 74.4531,15.0234 C74.4531,15.638 74.3333,16.1777 74.0938,16.6426 C73.8542,17.1074 73.5137,17.4694 73.0723,17.7285 C72.6309,17.9876 72.1068,18.1172 71.5,18.1172 M71.5078,16.8281 C71.7839,16.8281 72.0143,16.7493 72.1992,16.5918 C72.3841,16.4342 72.5241,16.2188 72.6191,15.9453 C72.7142,15.6719 72.7617,15.3607 72.7617,15.0117 C72.7617,14.6628 72.7142,14.3516 72.6191,14.0781 C72.5241,13.8047 72.3841,13.5885 72.1992,13.4297 C72.0143,13.2708 71.7839,13.1914 71.5078,13.1914 C71.2292,13.1914 70.9954,13.2708 70.8066,13.4297 C70.6178,13.5885 70.4759,13.8047 70.3809,14.0781 C70.2858,14.3516 70.2383,14.6628 70.2383,15.0117 C70.2383,15.3607 70.2858,15.6719 70.3809,15.9453 C70.4759,16.2188 70.6178,16.4342 70.8066,16.5918 C70.9954,16.7493 71.2292,16.8281 71.5078,16.8281 M78.7656,12 L78.7656,13.25 L75.0625,13.25 L75.0625,12 L78.7656,12 M75.9102,18 L75.9102,11.5664 C75.9102,11.1315 75.9954,10.7708 76.166,10.4844 C76.3366,10.1979 76.5703,9.98307 76.8672,9.83984 C77.1641,9.69661 77.5013,9.625 77.8789,9.625 C78.1341,9.625 78.3678,9.64453 78.5801,9.68359 C78.7923,9.72266 78.9505,9.75781 79.0547,9.78906 L78.7578,11.0391 C78.6927,11.0182 78.6126,10.9987 78.5176,10.9805 C78.4225,10.9622 78.3255,10.9531 78.2266,10.9531 C77.9818,10.9531 77.8112,11.0098 77.7148,11.123 C77.6185,11.2363 77.5703,11.3945 77.5703,11.5977 L77.5703,18 L75.9102,18"/>
</g>

<g fill="#ffffff" fill-opacity="1" stroke="none" transform="matrix(1,0,0,1,0,0)"
font-family="Inter" font-size="11" font-weight="700" font-style="normal" 
>
</g>

<g fill="#ffffff" fill-opacity="1" stroke="none" transform="matrix(1,0,0,1,0,0)"
font-family="Inter" font-size="11" font-weight="700" font-style="normal" 
>
</g>

<g fill="#00b94d" fill-opacity="1" stroke="#007e32" stroke-opacity="1" stroke-width="1.2" stroke-linecap="square" stroke-linejoin="bevel" transform="matrix(1,0,0,1,11.3333,2)"
font-family="Inter" font-size="11" font-weight="700" font-style="normal" 
>
<path vector-effect="none" fill-rule="evenodd" d="M0.5,3.5 C0.5,1.84315 1.84315,0.5 3.5,0.5 L47.5,0.5 C49.1569,0.5 50.5,1.84315 50.5,3.5 L50.5,20.5 C50.5,22.1569 49.1569,23.5 47.5,23.5 L3.5,23.5 C1.84315,23.5 0.5,22.1569 0.5,20.5 L0.5,3.5"/>
</g>

<g fill="#ffffff" fill-opacity="1" stroke="none" transform="matrix(1,0,0,1,11.3333,2)"
font-family="Inter" font-size="11" font-weight="700" font-style="normal" 
>
<path vector-effect="none" fill-rule="nonzero" d="M12,16.0195 C11.6172,16.0195 11.276,15.9525 10.9766,15.8184 C10.6771,15.6842 10.4408,15.485 10.2676,15.2207 C10.0944,14.9564 10.0078,14.6263 10.0078,14.2305 C10.0078,13.8971 10.069,13.6172 10.1914,13.3906 C10.3138,13.1641 10.4805,12.9818 10.6914,12.8438 C10.9023,12.7057 11.1426,12.6016 11.4121,12.5313 C11.6816,12.4609 11.9648,12.4115 12.2617,12.3828 C12.6107,12.3464 12.8919,12.3118 13.1055,12.2793 C13.319,12.2467 13.474,12.1979 13.5703,12.1328 C13.6667,12.0677 13.7148,11.9714 13.7148,11.8438 L13.7148,11.8203 C13.7148,11.5729 13.6374,11.3815 13.4824,11.2461 C13.3275,11.1107 13.1081,11.043 12.8242,11.043 C12.5247,11.043 12.2865,11.1087 12.1094,11.2402 C11.9323,11.3717 11.8151,11.5365 11.7578,11.7344 L10.2188,11.6094 C10.2969,11.2448 10.4505,10.929 10.6797,10.6621 C10.9089,10.3952 11.2051,10.1895 11.5684,10.0449 C11.9316,9.90039 12.3529,9.82813 12.832,9.82813 C13.1654,9.82813 13.485,9.86719 13.791,9.94531 C14.097,10.0234 14.3691,10.1445 14.6074,10.3086 C14.8457,10.4727 15.0339,10.6829 15.1719,10.9395 C15.3099,11.196 15.3789,11.5026 15.3789,11.8594 L15.3789,15.9063 L13.8008,15.9063 L13.8008,15.0742 L13.7539,15.0742 C13.6576,15.2617 13.5286,15.4264 13.3672,15.5684 C13.2057,15.7103 13.0117,15.821 12.7852,15.9004 C12.5586,15.9798 12.2969,16.0195 12,16.0195 M12.4766,14.8711 C12.7214,14.8711 12.9375,14.8223 13.125,14.7246 C13.3125,14.627 13.4596,14.4948 13.5664,14.3281 C13.6732,14.1615 13.7266,13.9727 13.7266,13.7617 L13.7266,13.125 C13.6745,13.1589 13.6035,13.1895 13.5137,13.2168 C13.4238,13.2441 13.3229,13.2689 13.2109,13.291 C13.099,13.3132 12.987,13.3327 12.875,13.3496 C12.763,13.3665 12.6615,13.3815 12.5703,13.3945 C12.375,13.4232 12.2044,13.4688 12.0586,13.5313 C11.9128,13.5938 11.7995,13.6777 11.7188,13.7832 C11.638,13.8887 11.5977,14.0195 11.5977,14.1758 C11.5977,14.4023 11.6803,14.5749 11.8457,14.6934 C12.0111,14.8118 12.2214,14.8711 12.4766,14.8711 M16.6953,15.9063 L16.6953,7.90625 L18.3594,7.90625 L18.3594,10.9141 L18.4102,10.9141 C18.4831,10.7526 18.5892,10.5879 18.7285,10.4199 C18.8678,10.252 19.0501,10.1113 19.2754,9.99805 C19.5007,9.88477 19.7813,9.82813 20.1172,9.82813 C20.5547,9.82813 20.9583,9.94206 21.3281,10.1699 C21.6979,10.3978 21.9935,10.7402 22.2148,11.1973 C22.4362,11.6543 22.5469,12.2266 22.5469,12.9141 C22.5469,13.5833 22.4395,14.1478 22.2246,14.6074 C22.0098,15.0671 21.7181,15.4147 21.3496,15.6504 C20.9811,15.8861 20.569,16.0039 20.1133,16.0039 C19.7904,16.0039 19.5163,15.9505 19.291,15.8438 C19.0658,15.737 18.8815,15.6022 18.7383,15.4395 C18.5951,15.2767 18.4857,15.112 18.4102,14.9453 L18.3359,14.9453 L18.3359,15.9063 L16.6953,15.9063 M18.3242,12.9063 C18.3242,13.263 18.3737,13.5742 18.4727,13.8398 C18.5716,14.1055 18.7148,14.3118 18.9023,14.459 C19.0898,14.6061 19.3177,14.6797 19.5859,14.6797 C19.8568,14.6797 20.0859,14.6048 20.2734,14.4551 C20.4609,14.3053 20.6035,14.097 20.7012,13.8301 C20.7988,13.5632 20.8477,13.2552 20.8477,12.9063 C20.8477,12.5599 20.7995,12.2552 20.7031,11.9922 C20.6068,11.7292 20.4648,11.5234 20.2773,11.375 C20.0898,11.2266 19.8594,11.1523 19.5859,11.1523 C19.3151,11.1523 19.0866,11.224 18.9004,11.3672 C18.7142,11.5104 18.5716,11.7135 18.4727,11.9766 C18.3737,12.2396 18.3242,12.5495 18.3242,12.9063 M28.6406,11.6172 L27.1172,11.7109 C27.0911,11.5807 27.0352,11.4629 26.9492,11.3574 C26.8633,11.252 26.7507,11.1673 26.6113,11.1035 C26.472,11.0397 26.306,11.0078 26.1133,11.0078 C25.8555,11.0078 25.638,11.0618 25.4609,11.1699 C25.2839,11.278 25.1953,11.4219 25.1953,11.6016 C25.1953,11.7448 25.2526,11.8659 25.3672,11.9648 C25.4818,12.0638 25.6784,12.1432 25.957,12.2031 L27.043,12.4219 C27.6263,12.5417 28.0612,12.7344 28.3477,13 C28.6341,13.2656 28.7773,13.6146 28.7773,14.0469 C28.7773,14.4401 28.6621,14.7852 28.4316,15.082 C28.2012,15.3789 27.8861,15.61 27.4863,15.7754 C27.0866,15.9408 26.6263,16.0234 26.1055,16.0234 C25.3112,16.0234 24.679,15.8574 24.209,15.5254 C23.7389,15.1934 23.4635,14.7409 23.3828,14.168 L25.0195,14.082 C25.069,14.3242 25.1888,14.5085 25.3789,14.6348 C25.569,14.7611 25.8125,14.8242 26.1094,14.8242 C26.401,14.8242 26.6361,14.7676 26.8145,14.6543 C26.9928,14.541 27.0833,14.3945 27.0859,14.2148 C27.0833,14.0638 27.0195,13.9395 26.8945,13.8418 C26.7695,13.7441 26.5768,13.6693 26.3164,13.6172 L25.2773,13.4102 C24.6914,13.293 24.2559,13.0898 23.9707,12.8008 C23.6855,12.5117 23.543,12.1432 23.543,11.6953 C23.543,11.3099 23.6478,10.9779 23.8574,10.6992 C24.0671,10.4206 24.3626,10.2057 24.7441,10.0547 C25.1257,9.90365 25.5729,9.82813 26.0859,9.82813 C26.8438,9.82813 27.4408,9.98828 27.877,10.3086 C28.3132,10.6289 28.5677,11.0651 28.6406,11.6172 "/>
</g>

<g fill="#ffffff" fill-opacity="1" stroke="none" transform="matrix(0.03125,0,0,0.03125,48.3333,10)"
font-family="Inter" font-size="11" font-weight="700" font-style="normal" 
>
<path vector-effect="none" fill-rule="nonzero" d="M111.326,191.938 C120.545,201.158 135.517,201.158 144.737,191.938 L239.144,97.5313 C245.929,90.7458 247.921,80.6413 244.233,71.7907 C240.545,62.9401 231.989,57.1871 222.401,57.1871 L33.5875,57.2608 C24.0731,57.2608 15.4437,63.0137 11.7559,71.8644 C8.06815,80.715 10.1333,90.8195 16.845,97.605 L111.252,192.012 L111.326,191.938"/>
</g>

<g fill="none" stroke="#000000" stroke-opacity="1" stroke-width="13.7195" stroke-linecap="butt" stroke-linejoin="miter" stroke-miterlimit="4" transform="matrix(0.03125,0,0,0.03125,48.3333,10)"
font-family="Inter" font-size="11" font-weight="700" font-style="normal" 
>
<path vector-effect="none" fill-rule="nonzero" d="M111.326,191.938 C120.545,201.158 135.517,201.158 144.737,191.938 L239.144,97.5313 C245.929,90.7458 247.921,80.6413 244.233,71.7907 C240.545,62.9401 231.989,57.1871 222.401,57.1871 L33.5875,57.2608 C24.0731,57.2608 15.4437,63.0137 11.7559,71.8644 C8.06815,80.715 10.1333,90.8195 16.845,97.605 L111.252,192.012 L111.326,191.938"/>
</g>

<g fill="#ffffff" fill-opacity="1" stroke="none" transform="matrix(1,0,0,1,11.3333,2)"
font-family="Inter" font-size="11" font-weight="700" font-style="normal" 
>
</g>

<g fill="#ffffff" fill-opacity="1" stroke="none" transform="matrix(1,0,0,1,0,0)"
font-family="Inter" font-size="11" font-weight="700" font-style="normal" 
>
</g>

<g fill="#ffffff" fill-opacity="1" stroke="#006a2a" stroke-opacity="1" stroke-width="1.2" stroke-linecap="square" stroke-linejoin="bevel" transform="matrix(1,0,0,1,85.3333,3)"
font-family="Inter" font-size="11" font-weight="700" font-style="normal" 
>
<path vector-effect="none" fill-rule="evenodd" d="M1,11 C1,5.47715 5.92487,1 12,1 L14.4,1 C20.4751,1 25.4,5.47715 25.4,11 C25.4,16.5228 20.4751,21 14.4,21 L12,21 C5.92487,21 1,16.5228 1,11 "/>
</g>

<g fill="#000000" fill-opacity="1" stroke="none" transform="matrix(1,0,0,1,85.3333,3)"
font-family="Inter" font-size="10" font-weight="700" font-style="normal" 
>
<path vector-effect="none" fill-rule="nonzero" d="M12.9411,14.5817 C12.3303,14.5793 11.8053,14.429 11.3661,14.1307 C10.927,13.8324 10.5896,13.4003 10.354,12.8345 C10.1185,12.2687 10.0019,11.5881 10.0043,10.7926 C10.0043,9.99953 10.122,9.32363 10.3576,8.76491 C10.5932,8.2062 10.9305,7.78066 11.3697,7.48828 C11.8088,7.1959 12.3326,7.04972 12.9411,7.04972 C13.5495,7.04972 14.0733,7.1965 14.5124,7.49006 C14.9516,7.78362 15.2895,8.20916 15.5263,8.76669 C15.763,9.32422 15.8802,9.99953 15.8778,10.7926 C15.8778,11.5904 15.7601,12.2723 15.5245,12.8381 C15.2889,13.4039 14.9522,13.8359 14.5142,14.1342 C14.0762,14.4325 13.5518,14.5817 12.9411,14.5817 M12.9411,13.3068 C13.3577,13.3068 13.6903,13.0973 13.9389,12.6783 C14.1875,12.2592 14.3106,11.6307 14.3082,10.7926 C14.3082,10.241 14.252,9.78172 14.1396,9.41477 C14.0271,9.04782 13.8685,8.77202 13.6637,8.58736 C13.4589,8.4027 13.218,8.31037 12.9411,8.31037 C12.5268,8.31037 12.1953,8.51752 11.9467,8.93182 C11.6982,9.34612 11.5727,9.96638 11.5703,10.7926 C11.5703,11.3513 11.6265,11.8171 11.739,12.19 C11.8514,12.5629 12.0107,12.8422 12.2166,13.0281 C12.4226,13.2139 12.6641,13.3068 12.9411,13.3068 "/>
</g>

<g fill="#ffffff" fill-opacity="1" stroke="none" transform="matrix(1,0,0,1,0,0)"
font-family="Inter" font-size="11" font-weight="700" font-style="normal" 
>
</g>

<g fill="none" stroke="#000000" stroke-opacity="1" stroke-width="1" stroke-linecap="square" stroke-linejoin="bevel" transform="matrix(1,0,0,1,0,0)"
font-family=".AppleSystemUIFont" font-size="13" font-weight="400" font-style="normal" 
>
</g>
</g>
</svg>
