<?xml version="1.0" encoding="UTF-8" standalone="no"?>
<svg width="14.1111mm" height="11.2889mm"
 viewBox="0 0 40 32"
 xmlns="http://www.w3.org/2000/svg" xmlns:xlink="http://www.w3.org/1999/xlink" version="1.2" baseProfile="tiny">
<title>list</title>
<desc>list</desc>
<defs>
</defs>
<g fill="none" stroke="black" stroke-width="1" fill-rule="evenodd" stroke-linecap="square" stroke-linejoin="bevel" >

<g fill="none" stroke="#000000" stroke-opacity="1" stroke-width="1" stroke-linecap="square" stroke-linejoin="bevel" transform="matrix(1,0,0,1,0,0)"
font-family=".AppleSystemUIFont" font-size="13" font-weight="400" font-style="normal" 
>
</g>

<g fill="none" stroke="#000000" stroke-opacity="1" stroke-width="1" stroke-linecap="square" stroke-linejoin="bevel" transform="matrix(1,0,0,1,0,0)"
font-family=".AppleSystemUIFont" font-size="13" font-weight="400" font-style="normal" 
>
</g>

<g fill="#ff661a" fill-opacity="1" stroke="#de4600" stroke-opacity="1" stroke-width="1.2" stroke-linecap="square" stroke-linejoin="bevel" transform="matrix(1,0,0,1,0,0)"
font-family=".AppleSystemUIFont" font-size="13" font-weight="400" font-style="normal" 
>
<path vector-effect="none" fill-rule="evenodd" d="M1,16 C1,7.71573 8.16344,1 17,1 L23,1 C31.8366,1 39,7.71573 39,16 C39,24.2843 31.8366,31 23,31 L17,31 C8.16344,31 1,24.2843 1,16 "/>
</g>

<g fill="#ffffff" fill-opacity="1" stroke="none" transform="matrix(1,0,0,1,0,0)"
font-family="Inter" font-size="11" font-weight="700" font-style="normal" 
>
<path vector-effect="none" fill-rule="nonzero" d="M13.6406,11.9531 L13.6406,19.9531 L11.9766,19.9531 L11.9766,11.9531 L13.6406,11.9531 M14.9609,19.9531 L14.9609,13.9531 L16.625,13.9531 L16.625,19.9531 L14.9609,19.9531 M15.7969,13.1797 C15.5495,13.1797 15.3379,13.097 15.1621,12.9316 C14.9863,12.7663 14.8984,12.5677 14.8984,12.3359 C14.8984,12.1068 14.9863,11.9095 15.1621,11.7441 C15.3379,11.5788 15.5495,11.4961 15.7969,11.4961 C16.0443,11.4961 16.2559,11.5788 16.4316,11.7441 C16.6074,11.9095 16.6953,12.1068 16.6953,12.3359 C16.6953,12.5677 16.6074,12.7663 16.4316,12.9316 C16.2559,13.097 16.0443,13.1797 15.7969,13.1797 M22.9375,15.6641 L21.4141,15.7578 C21.388,15.6276 21.332,15.5098 21.2461,15.4043 C21.1602,15.2988 21.0475,15.2142 20.9082,15.1504 C20.7689,15.0866 20.6029,15.0547 20.4102,15.0547 C20.1523,15.0547 19.9349,15.1087 19.7578,15.2168 C19.5807,15.3249 19.4922,15.4688 19.4922,15.6484 C19.4922,15.7917 19.5495,15.9128 19.6641,16.0117 C19.7786,16.1107 19.9753,16.1901 20.2539,16.25 L21.3398,16.4688 C21.9232,16.5885 22.3581,16.7813 22.6445,17.0469 C22.931,17.3125 23.0742,17.6615 23.0742,18.0938 C23.0742,18.487 22.959,18.832 22.7285,19.1289 C22.498,19.4258 22.1829,19.6569 21.7832,19.8223 C21.3835,19.9876 20.9232,20.0703 20.4023,20.0703 C19.6081,20.0703 18.9759,19.9043 18.5059,19.5723 C18.0358,19.2402 17.7604,18.7878 17.6797,18.2148 L19.3164,18.1289 C19.3659,18.3711 19.4857,18.5553 19.6758,18.6816 C19.8659,18.8079 20.1094,18.8711 20.4063,18.8711 C20.6979,18.8711 20.9329,18.8145 21.1113,18.7012 C21.2897,18.5879 21.3802,18.4414 21.3828,18.2617 C21.3802,18.1107 21.3164,17.9863 21.1914,17.8887 C21.0664,17.791 20.8737,17.7161 20.6133,17.6641 L19.5742,17.457 C18.9883,17.3398 18.5527,17.1367 18.2676,16.8477 C17.9824,16.5586 17.8398,16.1901 17.8398,15.7422 C17.8398,15.3568 17.9447,15.0247 18.1543,14.7461 C18.3639,14.4674 18.6595,14.2526 19.041,14.1016 C19.4225,13.9505 19.8698,13.875 20.3828,13.875 C21.1406,13.875 21.7376,14.0352 22.1738,14.3555 C22.61,14.6758 22.8646,15.112 22.9375,15.6641 M27.3086,13.9531 L27.3086,15.2031 L23.6953,15.2031 L23.6953,13.9531 L27.3086,13.9531 M24.5156,12.5156 L26.1797,12.5156 L26.1797,18.1094 C26.1797,18.263 26.2031,18.3822 26.25,18.4668 C26.2969,18.5514 26.3626,18.6107 26.4473,18.6445 C26.5319,18.6784 26.6302,18.6953 26.7422,18.6953 C26.8203,18.6953 26.8984,18.6882 26.9766,18.6738 C27.0547,18.6595 27.1146,18.6484 27.1563,18.6406 L27.418,19.8789 C27.3346,19.9049 27.2174,19.9355 27.0664,19.9707 C26.9154,20.0059 26.7318,20.0273 26.5156,20.0352 C26.1146,20.0508 25.7637,19.9974 25.4629,19.875 C25.1621,19.7526 24.9284,19.5625 24.7617,19.3047 C24.5951,19.0469 24.513,18.7214 24.5156,18.3281 L24.5156,12.5156"/>
</g>

<g fill="#ffffff" fill-opacity="1" stroke="none" transform="matrix(1,0,0,1,0,0)"
font-family="Inter" font-size="11" font-weight="700" font-style="normal" 
>
</g>

<g fill="none" stroke="#000000" stroke-opacity="1" stroke-width="1" stroke-linecap="square" stroke-linejoin="bevel" transform="matrix(1,0,0,1,0,0)"
font-family=".AppleSystemUIFont" font-size="13" font-weight="400" font-style="normal" 
>
</g>
</g>
</svg>
