<?xml version="1.0" encoding="UTF-8" standalone="no"?>
<svg width="83.6083mm" height="11.2889mm"
 viewBox="0 0 237 32"
 xmlns="http://www.w3.org/2000/svg" xmlns:xlink="http://www.w3.org/1999/xlink" version="1.2" baseProfile="tiny">
<title>Abstract block</title>
<desc>block_hubs_all_motors_port_position</desc>
<defs>
</defs>
<g fill="none" stroke="black" stroke-width="1" fill-rule="evenodd" stroke-linecap="square" stroke-linejoin="bevel" >

<g fill="none" stroke="#000000" stroke-opacity="1" stroke-width="1" stroke-linecap="square" stroke-linejoin="bevel" transform="matrix(1,0,0,1,0,0)"
font-family=".AppleSystemUIFont" font-size="13" font-weight="400" font-style="normal" 
>
</g>

<g fill="none" stroke="#000000" stroke-opacity="1" stroke-width="1" stroke-linecap="square" stroke-linejoin="bevel" transform="matrix(1,0,0,1,0,0)"
font-family=".AppleSystemUIFont" font-size="13" font-weight="400" font-style="normal" 
>
</g>

<g fill="#0090f5" fill-opacity="1" stroke="#0070ba" stroke-opacity="1" stroke-width="1.2" stroke-linecap="square" stroke-linejoin="bevel" transform="matrix(1,0,0,1,0,0)"
font-family=".AppleSystemUIFont" font-size="13" font-weight="400" font-style="normal" 
>
<path vector-effect="none" fill-rule="evenodd" d="M1,16 C1,7.71573 8.16344,1 17,1 L219.667,1 C228.503,1 235.667,7.71573 235.667,16 C235.667,24.2843 228.503,31 219.667,31 L17,31 C8.16344,31 1,24.2843 1,16 "/>
</g>

<g fill="#ffffff" fill-opacity="1" stroke="none" transform="matrix(1,0,0,1,0,0)"
font-family="Inter" font-size="11" font-weight="700" font-style="normal" 
>
<path vector-effect="none" fill-rule="nonzero" d="M181.07,21.3125 L181.07,13.0625 L182.711,13.0625 L182.711,14.0703 L182.785,14.0703 C182.858,13.9089 182.964,13.7441 183.104,13.5762 C183.243,13.4082 183.425,13.2676 183.65,13.1543 C183.876,13.041 184.156,12.9844 184.492,12.9844 C184.93,12.9844 185.333,13.0983 185.703,13.3262 C186.073,13.554 186.368,13.8965 186.59,14.3535 C186.811,14.8105 186.922,15.3828 186.922,16.0703 C186.922,16.7396 186.814,17.304 186.6,17.7637 C186.385,18.2233 186.093,18.571 185.725,18.8066 C185.356,19.0423 184.944,19.1602 184.488,19.1602 C184.165,19.1602 183.891,19.1068 183.666,19 C183.441,18.8932 183.257,18.7585 183.113,18.5957 C182.97,18.4329 182.861,18.2682 182.785,18.1016 L182.734,18.1016 L182.734,21.3125 L181.07,21.3125 M182.699,16.0625 C182.699,16.4193 182.749,16.7305 182.848,16.9961 C182.947,17.2617 183.09,17.4681 183.277,17.6152 C183.465,17.7624 183.693,17.8359 183.961,17.8359 C184.232,17.8359 184.461,17.7611 184.648,17.6113 C184.836,17.4616 184.979,17.2533 185.076,16.9863 C185.174,16.7194 185.223,16.4115 185.223,16.0625 C185.223,15.7161 185.174,15.4115 185.078,15.1484 C184.982,14.8854 184.84,14.6797 184.652,14.5313 C184.465,14.3828 184.234,14.3086 183.961,14.3086 C183.69,14.3086 183.462,14.3802 183.275,14.5234 C183.089,14.6667 182.947,14.8698 182.848,15.1328 C182.749,15.3958 182.699,15.7057 182.699,16.0625 M190.734,19.1797 C190.128,19.1797 189.604,19.0501 189.162,18.791 C188.721,18.5319 188.38,18.1699 188.141,17.7051 C187.901,17.2402 187.781,16.7005 187.781,16.0859 C187.781,15.4661 187.901,14.9238 188.141,14.459 C188.38,13.9941 188.721,13.6322 189.162,13.373 C189.604,13.1139 190.128,12.9844 190.734,12.9844 C191.341,12.9844 191.865,13.1139 192.307,13.373 C192.748,13.6322 193.089,13.9941 193.328,14.459 C193.568,14.9238 193.688,15.4661 193.688,16.0859 C193.688,16.7005 193.568,17.2402 193.328,17.7051 C193.089,18.1699 192.748,18.5319 192.307,18.791 C191.865,19.0501 191.341,19.1797 190.734,19.1797 M190.742,17.8906 C191.018,17.8906 191.249,17.8118 191.434,17.6543 C191.618,17.4967 191.758,17.2813 191.854,17.0078 C191.949,16.7344 191.996,16.4232 191.996,16.0742 C191.996,15.7253 191.949,15.4141 191.854,15.1406 C191.758,14.8672 191.618,14.651 191.434,14.4922 C191.249,14.3333 191.018,14.2539 190.742,14.2539 C190.464,14.2539 190.23,14.3333 190.041,14.4922 C189.852,14.651 189.71,14.8672 189.615,15.1406 C189.52,15.4141 189.473,15.7253 189.473,16.0742 C189.473,16.4232 189.52,16.7344 189.615,17.0078 C189.71,17.2813 189.852,17.4967 190.041,17.6543 C190.23,17.8118 190.464,17.8906 190.742,17.8906 M199.766,14.7734 L198.242,14.8672 C198.216,14.737 198.16,14.6191 198.074,14.5137 C197.988,14.4082 197.876,14.3236 197.736,14.2598 C197.597,14.196 197.431,14.1641 197.238,14.1641 C196.98,14.1641 196.763,14.2181 196.586,14.3262 C196.409,14.4342 196.32,14.5781 196.32,14.7578 C196.32,14.901 196.378,15.0221 196.492,15.1211 C196.607,15.2201 196.803,15.2995 197.082,15.3594 L198.168,15.5781 C198.751,15.6979 199.186,15.8906 199.473,16.1563 C199.759,16.4219 199.902,16.7708 199.902,17.2031 C199.902,17.5964 199.787,17.9414 199.557,18.2383 C199.326,18.5352 199.011,18.7663 198.611,18.9316 C198.212,19.097 197.751,19.1797 197.23,19.1797 C196.436,19.1797 195.804,19.0137 195.334,18.6816 C194.864,18.3496 194.589,17.8971 194.508,17.3242 L196.145,17.2383 C196.194,17.4805 196.314,17.6647 196.504,17.791 C196.694,17.9173 196.938,17.9805 197.234,17.9805 C197.526,17.9805 197.761,17.9238 197.939,17.8105 C198.118,17.6973 198.208,17.5508 198.211,17.3711 C198.208,17.2201 198.145,17.0957 198.02,16.998 C197.895,16.9004 197.702,16.8255 197.441,16.7734 L196.402,16.5664 C195.816,16.4492 195.381,16.2461 195.096,15.957 C194.811,15.668 194.668,15.2995 194.668,14.8516 C194.668,14.4661 194.773,14.1341 194.982,13.8555 C195.192,13.5768 195.488,13.362 195.869,13.2109 C196.251,13.0599 196.698,12.9844 197.211,12.9844 C197.969,12.9844 198.566,13.1445 199.002,13.4648 C199.438,13.7852 199.693,14.2214 199.766,14.7734 M200.945,19.0625 L200.945,13.0625 L202.609,13.0625 L202.609,19.0625 L200.945,19.0625 M201.781,12.2891 C201.534,12.2891 201.322,12.2064 201.146,12.041 C200.971,11.8757 200.883,11.6771 200.883,11.4453 C200.883,11.2161 200.971,11.0189 201.146,10.8535 C201.322,10.6882 201.534,10.6055 201.781,10.6055 C202.029,10.6055 202.24,10.6882 202.416,10.8535 C202.592,11.0189 202.68,11.2161 202.68,11.4453 C202.68,11.6771 202.592,11.8757 202.416,12.041 C202.24,12.2064 202.029,12.2891 201.781,12.2891 M207.121,13.0625 L207.121,14.3125 L203.508,14.3125 L203.508,13.0625 L207.121,13.0625 M204.328,11.625 L205.992,11.625 L205.992,17.2188 C205.992,17.3724 206.016,17.4915 206.063,17.5762 C206.109,17.6608 206.175,17.7201 206.26,17.7539 C206.344,17.7878 206.443,17.8047 206.555,17.8047 C206.633,17.8047 206.711,17.7975 206.789,17.7832 C206.867,17.7689 206.927,17.7578 206.969,17.75 L207.23,18.9883 C207.147,19.0143 207.03,19.0449 206.879,19.0801 C206.728,19.1152 206.544,19.1367 206.328,19.1445 C205.927,19.1602 205.576,19.1068 205.275,18.9844 C204.975,18.862 204.741,18.6719 204.574,18.4141 C204.408,18.1563 204.326,17.8307 204.328,17.4375 L204.328,11.625 M208.195,19.0625 L208.195,13.0625 L209.859,13.0625 L209.859,19.0625 L208.195,19.0625 M209.031,12.2891 C208.784,12.2891 208.572,12.2064 208.396,12.041 C208.221,11.8757 208.133,11.6771 208.133,11.4453 C208.133,11.2161 208.221,11.0189 208.396,10.8535 C208.572,10.6882 208.784,10.6055 209.031,10.6055 C209.279,10.6055 209.49,10.6882 209.666,10.8535 C209.842,11.0189 209.93,11.2161 209.93,11.4453 C209.93,11.6771 209.842,11.8757 209.666,12.041 C209.49,12.2064 209.279,12.2891 209.031,12.2891 M213.891,19.1797 C213.284,19.1797 212.76,19.0501 212.318,18.791 C211.877,18.5319 211.536,18.1699 211.297,17.7051 C211.057,17.2402 210.938,16.7005 210.938,16.0859 C210.938,15.4661 211.057,14.9238 211.297,14.459 C211.536,13.9941 211.877,13.6322 212.318,13.373 C212.76,13.1139 213.284,12.9844 213.891,12.9844 C214.497,12.9844 215.021,13.1139 215.463,13.373 C215.904,13.6322 216.245,13.9941 216.484,14.459 C216.724,14.9238 216.844,15.4661 216.844,16.0859 C216.844,16.7005 216.724,17.2402 216.484,17.7051 C216.245,18.1699 215.904,18.5319 215.463,18.791 C215.021,19.0501 214.497,19.1797 213.891,19.1797 M213.898,17.8906 C214.174,17.8906 214.405,17.8118 214.59,17.6543 C214.775,17.4967 214.915,17.2813 215.01,17.0078 C215.105,16.7344 215.152,16.4232 215.152,16.0742 C215.152,15.7253 215.105,15.4141 215.01,15.1406 C214.915,14.8672 214.775,14.651 214.59,14.4922 C214.405,14.3333 214.174,14.2539 213.898,14.2539 C213.62,14.2539 213.386,14.3333 213.197,14.4922 C213.008,14.651 212.867,14.8672 212.771,15.1406 C212.676,15.4141 212.629,15.7253 212.629,16.0742 C212.629,16.4232 212.676,16.7344 212.771,17.0078 C212.867,17.2813 213.008,17.4967 213.197,17.6543 C213.386,17.8118 213.62,17.8906 213.898,17.8906 M219.594,15.5938 L219.594,19.0625 L217.93,19.0625 L217.93,13.0625 L219.516,13.0625 L219.516,14.1211 L219.586,14.1211 C219.719,13.7721 219.941,13.4954 220.254,13.291 C220.566,13.0866 220.945,12.9844 221.391,12.9844 C221.807,12.9844 222.171,13.0755 222.48,13.2578 C222.79,13.4401 223.031,13.6999 223.203,14.0371 C223.375,14.3743 223.461,14.776 223.461,15.2422 L223.461,19.0625 L221.797,19.0625 L221.797,15.5391 C221.799,15.1719 221.706,14.8848 221.516,14.6777 C221.326,14.4707 221.064,14.3672 220.73,14.3672 C220.507,14.3672 220.309,14.4154 220.139,14.5117 C219.968,14.6081 219.835,14.748 219.74,14.9316 C219.645,15.1152 219.596,15.3359 219.594,15.5938 "/>
</g>

<g fill="#ffffff" fill-opacity="1" stroke="none" transform="matrix(0.0285,0,0,0.0285,11.2928,4.44754)"
font-family="Inter" font-size="11" font-weight="700" font-style="normal" 
>
<path vector-effect="none" fill-rule="nonzero" d="M410.778,59.991 C376.729,59.991 346.629,75.6235 326.182,99.684 C216.768,129.689 131.433,215.271 101.927,324.891 C79.5232,345.494 65.3275,374.762 65.54,407.6 C65.7463,439.573 79.3407,468.172 100.975,488.421 C130.228,601.34 218.744,689.335 331.859,718.096 C331.956,718.125 331.989,718.313 332.085,718.338 C352.242,738.376 380.064,750.708 410.778,750.708 C441.492,750.708 469.314,738.376 489.47,718.338 C489.549,718.262 489.618,718.17 489.696,718.096 C604.323,688.948 693.738,598.994 721.758,483.921 C742.939,463.42 756.216,434.907 756.015,403.1 C755.801,370.079 741.086,340.899 718.209,320.633 C687.622,213.077 603.338,129.291 495.373,99.684 C474.926,75.6235 444.827,59.991 410.778,59.991 M410.778,91.8938 C455.052,91.8938 490.89,127.731 490.89,172.006 C490.89,216.28 455.052,252.102 410.778,252.102 C366.503,252.102 330.666,216.28 330.666,172.006 C330.666,127.731 366.503,91.8938 410.778,91.8938 M177.071,325.601 C221.346,325.601 257.183,361.438 257.183,405.713 C257.183,449.987 221.346,485.808 177.071,485.808 C132.796,485.808 96.7332,449.987 96.7332,405.713 C96.7332,361.438 132.796,325.601 177.071,325.601 M644.485,325.601 C688.763,325.601 724.822,361.438 724.822,405.713 C724.822,449.987 688.763,485.808 644.485,485.808 C600.21,485.808 564.373,449.987 564.373,405.713 C564.373,361.438 600.21,325.601 644.485,325.601 M396.601,335.762 L424.955,335.762 C431.754,335.762 437.245,342.538 437.245,350.891 L437.245,381.6 L467.971,381.6 C476.323,381.6 483.083,387.091 483.083,393.89 L483.083,422.245 C483.083,429.044 476.323,434.535 467.971,434.535 L437.245,434.535 L437.245,465.26 C437.245,473.612 431.754,480.373 424.955,480.373 L396.601,480.373 C389.801,480.373 384.31,473.613 384.31,465.26 L384.31,434.535 L353.585,434.535 C345.233,434.535 338.472,429.044 338.472,422.245 L338.472,393.89 C338.472,387.091 345.232,381.6 353.585,381.6 L384.31,381.6 L384.31,350.891 C384.31,342.539 389.801,335.762 396.601,335.762 M410.778,559.307 C455.052,559.307 490.89,595.371 490.89,639.645 C490.89,683.918 455.052,719.757 410.778,719.757 C366.503,719.757 330.666,683.918 330.666,639.645 C330.666,595.371 366.503,559.307 410.778,559.307 "/>
</g>

<g fill="none" stroke="#000000" stroke-opacity="1" stroke-width="22.7975" stroke-linecap="round" stroke-linejoin="round" transform="matrix(0.0285,0,0,0.0285,11.2928,4.44754)"
font-family="Inter" font-size="11" font-weight="700" font-style="normal" 
>
<path vector-effect="none" fill-rule="nonzero" d="M410.778,59.991 C376.729,59.991 346.629,75.6235 326.182,99.684 C216.768,129.689 131.433,215.271 101.927,324.891 C79.5232,345.494 65.3275,374.762 65.54,407.6 C65.7463,439.573 79.3407,468.172 100.975,488.421 C130.228,601.34 218.744,689.335 331.859,718.096 C331.956,718.125 331.989,718.313 332.085,718.338 C352.242,738.376 380.064,750.708 410.778,750.708 C441.492,750.708 469.314,738.376 489.47,718.338 C489.549,718.262 489.618,718.17 489.696,718.096 C604.323,688.948 693.738,598.994 721.758,483.921 C742.939,463.42 756.216,434.907 756.015,403.1 C755.801,370.079 741.086,340.899 718.209,320.633 C687.622,213.077 603.338,129.291 495.373,99.684 C474.926,75.6235 444.827,59.991 410.778,59.991 M410.778,91.8938 C455.052,91.8938 490.89,127.731 490.89,172.006 C490.89,216.28 455.052,252.102 410.778,252.102 C366.503,252.102 330.666,216.28 330.666,172.006 C330.666,127.731 366.503,91.8938 410.778,91.8938 M177.071,325.601 C221.346,325.601 257.183,361.438 257.183,405.713 C257.183,449.987 221.346,485.808 177.071,485.808 C132.796,485.808 96.7332,449.987 96.7332,405.713 C96.7332,361.438 132.796,325.601 177.071,325.601 M644.485,325.601 C688.763,325.601 724.822,361.438 724.822,405.713 C724.822,449.987 688.763,485.808 644.485,485.808 C600.21,485.808 564.373,449.987 564.373,405.713 C564.373,361.438 600.21,325.601 644.485,325.601 M396.601,335.762 L424.955,335.762 C431.754,335.762 437.245,342.538 437.245,350.891 L437.245,381.6 L467.971,381.6 C476.323,381.6 483.083,387.091 483.083,393.89 L483.083,422.245 C483.083,429.044 476.323,434.535 467.971,434.535 L437.245,434.535 L437.245,465.26 C437.245,473.612 431.754,480.373 424.955,480.373 L396.601,480.373 C389.801,480.373 384.31,473.613 384.31,465.26 L384.31,434.535 L353.585,434.535 C345.233,434.535 338.472,429.044 338.472,422.245 L338.472,393.89 C338.472,387.091 345.232,381.6 353.585,381.6 L384.31,381.6 L384.31,350.891 C384.31,342.539 389.801,335.762 396.601,335.762 M410.778,559.307 C455.052,559.307 490.89,595.371 490.89,639.645 C490.89,683.918 455.052,719.757 410.778,719.757 C366.503,719.757 330.666,683.918 330.666,639.645 C330.666,595.371 366.503,559.307 410.778,559.307 "/>
</g>

<g fill="#000000" fill-opacity="1" stroke="none" transform="matrix(0.0285,0,0,0.0285,11.2928,4.44754)"
font-family="Inter" font-size="11" font-weight="700" font-style="normal" 
>
<path vector-effect="none" fill-rule="evenodd" d="M394.961,355.661 C394.961,347.613 401.485,341.088 409.533,341.088 C417.582,341.088 424.106,347.613 424.106,355.661 L424.106,457.48 C424.106,465.528 417.582,472.053 409.533,472.053 C401.485,472.053 394.961,465.528 394.961,457.48 L394.961,355.661"/>
</g>

<g fill="none" stroke="#000000" stroke-opacity="1" stroke-width="20" stroke-linecap="round" stroke-linejoin="round" transform="matrix(0.0285,0,0,0.0285,11.2928,4.44754)"
font-family="Inter" font-size="11" font-weight="700" font-style="normal" 
>
<path vector-effect="none" fill-rule="evenodd" d="M394.961,355.661 C394.961,347.613 401.485,341.088 409.533,341.088 C417.582,341.088 424.106,347.613 424.106,355.661 L424.106,457.48 C424.106,465.528 417.582,472.053 409.533,472.053 C401.485,472.053 394.961,465.528 394.961,457.48 L394.961,355.661"/>
</g>

<g fill="#000000" fill-opacity="1" stroke="none" transform="matrix(0,0.0285,-0.0285,0,11.2928,4.44754)"
font-family="Inter" font-size="11" font-weight="700" font-style="normal" 
>
<path vector-effect="none" fill-rule="evenodd" d="M394.152,-461.016 C394.152,-469.064 400.676,-475.588 408.724,-475.588 C416.773,-475.588 423.297,-469.064 423.297,-461.016 L423.297,-359.196 C423.297,-351.148 416.773,-344.624 408.724,-344.624 C400.676,-344.624 394.152,-351.148 394.152,-359.196 L394.152,-461.016"/>
</g>

<g fill="none" stroke="#000000" stroke-opacity="1" stroke-width="20" stroke-linecap="round" stroke-linejoin="round" transform="matrix(0,0.0285,-0.0285,0,11.2928,4.44754)"
font-family="Inter" font-size="11" font-weight="700" font-style="normal" 
>
<path vector-effect="none" fill-rule="evenodd" d="M394.152,-461.016 C394.152,-469.064 400.676,-475.588 408.724,-475.588 C416.773,-475.588 423.297,-469.064 423.297,-461.016 L423.297,-359.196 C423.297,-351.148 416.773,-344.624 408.724,-344.624 C400.676,-344.624 394.152,-351.148 394.152,-359.196 L394.152,-461.016"/>
</g>

<g fill="#ffffff" fill-opacity="1" stroke="none" transform="matrix(1,0,0,1,0,0)"
font-family="Inter" font-size="11" font-weight="700" font-style="normal" 
>
</g>

<g fill="#ffffff" fill-opacity="1" stroke="#0070ba" stroke-opacity="1" stroke-width="1" stroke-linecap="square" stroke-linejoin="bevel" transform="matrix(1,0,0,1,0,0)"
font-family="Inter" font-size="11" font-weight="700" font-style="normal" 
>
<polyline fill="none" vector-effect="none" points="45,6 45,26 " />
</g>

<g fill="#ffffff" fill-opacity="1" stroke="#0070ba" stroke-opacity="1" stroke-width="1" stroke-linecap="square" stroke-linejoin="bevel" transform="matrix(1,0,0,1,0,0)"
font-family="Inter" font-size="11" font-weight="700" font-style="normal" 
>
</g>

<g fill="#ffffff" fill-opacity="1" stroke="#0070ba" stroke-opacity="1" stroke-width="1" stroke-linecap="square" stroke-linejoin="bevel" transform="matrix(1,0,0,1,0,0)"
font-family="Inter" font-size="11" font-weight="700" font-style="normal" 
>
</g>

<g fill="#0090f5" fill-opacity="1" stroke="#0070ba" stroke-opacity="1" stroke-width="1.2" stroke-linecap="square" stroke-linejoin="bevel" transform="matrix(1,0,0,1,56,4)"
font-family="Inter" font-size="11" font-weight="700" font-style="normal" 
>
<path vector-effect="none" fill-rule="evenodd" d="M0.5,3.5 C0.5,1.84315 1.84315,0.5 3.5,0.5 L71.5,0.5 C73.1569,0.5 74.5,1.84315 74.5,3.5 L74.5,20.5 C74.5,22.1569 73.1569,23.5 71.5,23.5 L3.5,23.5 C1.84315,23.5 0.5,22.1569 0.5,20.5 L0.5,3.5"/>
</g>

<g fill="#ffffff" fill-opacity="1" stroke="none" transform="matrix(1,0,0,1,56,4)"
font-family="Inter" font-size="11" font-weight="700" font-style="normal" 
>
<path vector-effect="none" fill-rule="nonzero" d="M10,9.39453 L10,8 L16.5703,8 L16.5703,9.39453 L14.1211,9.39453 L14.1211,16 L12.4492,16 L12.4492,9.39453 L10,9.39453 M17.6484,16 L17.6484,8 L19.3398,8 L19.3398,11.3008 L22.7734,11.3008 L22.7734,8 L24.4609,8 L24.4609,16 L22.7734,16 L22.7734,12.6953 L19.3398,12.6953 L19.3398,16 L17.6484,16 M32.543,8 L32.543,16 L31.082,16 L27.6016,10.9648 L27.543,10.9648 L27.543,16 L25.8516,16 L25.8516,8 L27.3359,8 L30.7891,13.0313 L30.8594,13.0313 L30.8594,8 L32.543,8 M33.9297,16 L33.9297,8 L35.6211,8 L35.6211,11.3008 L39.0547,11.3008 L39.0547,8 L40.7422,8 L40.7422,16 L39.0547,16 L39.0547,12.6953 L35.6211,12.6953 L35.6211,16 L33.9297,16 M42.1328,16 L42.1328,8 L45.3359,8 C45.9245,8 46.4154,8.08724 46.8086,8.26172 C47.2018,8.4362 47.4974,8.67773 47.6953,8.98633 C47.8932,9.29492 47.9922,9.64974 47.9922,10.0508 C47.9922,10.3633 47.9297,10.6374 47.8047,10.873 C47.6797,11.1087 47.5085,11.3014 47.291,11.4512 C47.0736,11.6009 46.8255,11.707 46.5469,11.7695 L46.5469,11.8477 C46.8516,11.8607 47.1374,11.9466 47.4043,12.1055 C47.6712,12.2643 47.888,12.4863 48.0547,12.7715 C48.2214,13.0566 48.3047,13.3958 48.3047,13.7891 C48.3047,14.2135 48.1999,14.5918 47.9902,14.9238 C47.7806,15.2559 47.4714,15.5182 47.0625,15.7109 C46.6536,15.9036 46.1497,16 45.5508,16 L42.1328,16 M43.8242,14.6172 L45.2031,14.6172 C45.6745,14.6172 46.0182,14.5267 46.2344,14.3457 C46.4505,14.1647 46.5586,13.9232 46.5586,13.6211 C46.5586,13.3997 46.5052,13.2044 46.3984,13.0352 C46.2917,12.8659 46.14,12.7331 45.9434,12.6367 C45.7467,12.5404 45.513,12.4922 45.2422,12.4922 L43.8242,12.4922 L43.8242,14.6172 M43.8242,11.3477 L45.0781,11.3477 C45.3099,11.3477 45.5163,11.3066 45.6973,11.2246 C45.8783,11.1426 46.0215,11.026 46.127,10.875 C46.2324,10.724 46.2852,10.543 46.2852,10.332 C46.2852,10.043 46.1829,9.8099 45.9785,9.63281 C45.7741,9.45573 45.4844,9.36719 45.1094,9.36719 L43.8242,9.36719 L43.8242,11.3477 M52.832,8 L52.832,16 L51.1406,16 L51.1406,9.60547 L51.0938,9.60547 L49.2617,10.7539 L49.2617,9.25391 L51.2422,8 L52.832,8"/>
</g>

<g fill="#ffffff" fill-opacity="1" stroke="none" transform="matrix(0.03125,0,0,0.03125,117,12)"
font-family="Inter" font-size="11" font-weight="700" font-style="normal" 
>
<path vector-effect="none" fill-rule="nonzero" d="M111.326,191.938 C120.545,201.158 135.517,201.158 144.737,191.938 L239.144,97.5313 C245.929,90.7458 247.921,80.6413 244.233,71.7907 C240.545,62.9401 231.989,57.1871 222.401,57.1871 L33.5875,57.2608 C24.0731,57.2608 15.4437,63.0137 11.7559,71.8644 C8.06815,80.715 10.1333,90.8195 16.845,97.605 L111.252,192.012 L111.326,191.938"/>
</g>

<g fill="none" stroke="#000000" stroke-opacity="1" stroke-width="13.7195" stroke-linecap="butt" stroke-linejoin="miter" stroke-miterlimit="4" transform="matrix(0.03125,0,0,0.03125,117,12)"
font-family="Inter" font-size="11" font-weight="700" font-style="normal" 
>
<path vector-effect="none" fill-rule="nonzero" d="M111.326,191.938 C120.545,201.158 135.517,201.158 144.737,191.938 L239.144,97.5313 C245.929,90.7458 247.921,80.6413 244.233,71.7907 C240.545,62.9401 231.989,57.1871 222.401,57.1871 L33.5875,57.2608 C24.0731,57.2608 15.4437,63.0137 11.7559,71.8644 C8.06815,80.715 10.1333,90.8195 16.845,97.605 L111.252,192.012 L111.326,191.938"/>
</g>

<g fill="#ffffff" fill-opacity="1" stroke="none" transform="matrix(1,0,0,1,56,4)"
font-family="Inter" font-size="11" font-weight="700" font-style="normal" 
>
</g>

<g fill="#ffffff" fill-opacity="1" stroke="#0070ba" stroke-opacity="1" stroke-width="1" stroke-linecap="square" stroke-linejoin="bevel" transform="matrix(1,0,0,1,0,0)"
font-family="Inter" font-size="11" font-weight="700" font-style="normal" 
>
</g>

<g fill="#0070ba" fill-opacity="1" stroke="#0070ba" stroke-opacity="1" stroke-width="1.2" stroke-linecap="square" stroke-linejoin="bevel" transform="matrix(1,0,0,1,135,4)"
font-family="Inter" font-size="11" font-weight="700" font-style="normal" 
>
<path vector-effect="none" fill-rule="evenodd" d="M0.5,12 C0.5,5.64873 5.87258,0.5 12.5,0.5 L27.5,0.5 C34.1274,0.5 39.5,5.64873 39.5,12 C39.5,18.3513 34.1274,23.5 27.5,23.5 L12.5,23.5 C5.87258,23.5 0.5,18.3513 0.5,12 "/>
</g>

<g fill="#ffffff" fill-opacity="1" stroke="none" transform="matrix(1,0,0,1,135,4)"
font-family="Inter" font-size="11" font-weight="700" font-style="normal" 
>
<path vector-effect="none" fill-rule="nonzero" d="M11.8242,16 L10.0117,16 L12.7734,8 L14.9531,8 L17.7109,16 L15.8984,16 L13.8945,9.82813 L13.832,9.82813 L11.8242,16 M11.7109,12.8555 L15.9922,12.8555 L15.9922,14.1758 L11.7109,14.1758 L11.7109,12.8555"/>
</g>

<g fill="#ffffff" fill-opacity="1" stroke="none" transform="matrix(0.03125,0,0,0.03125,161,12)"
font-family="Inter" font-size="11" font-weight="700" font-style="normal" 
>
<path vector-effect="none" fill-rule="nonzero" d="M111.326,191.938 C120.545,201.158 135.517,201.158 144.737,191.938 L239.144,97.5313 C245.929,90.7458 247.921,80.6413 244.233,71.7907 C240.545,62.9401 231.989,57.1871 222.401,57.1871 L33.5875,57.2608 C24.0731,57.2608 15.4437,63.0137 11.7559,71.8644 C8.06815,80.715 10.1333,90.8195 16.845,97.605 L111.252,192.012 L111.326,191.938"/>
</g>

<g fill="none" stroke="#000000" stroke-opacity="1" stroke-width="13.7195" stroke-linecap="butt" stroke-linejoin="miter" stroke-miterlimit="4" transform="matrix(0.03125,0,0,0.03125,161,12)"
font-family="Inter" font-size="11" font-weight="700" font-style="normal" 
>
<path vector-effect="none" fill-rule="nonzero" d="M111.326,191.938 C120.545,201.158 135.517,201.158 144.737,191.938 L239.144,97.5313 C245.929,90.7458 247.921,80.6413 244.233,71.7907 C240.545,62.9401 231.989,57.1871 222.401,57.1871 L33.5875,57.2608 C24.0731,57.2608 15.4437,63.0137 11.7559,71.8644 C8.06815,80.715 10.1333,90.8195 16.845,97.605 L111.252,192.012 L111.326,191.938"/>
</g>

<g fill="#ffffff" fill-opacity="1" stroke="none" transform="matrix(1,0,0,1,135,4)"
font-family="Inter" font-size="11" font-weight="700" font-style="normal" 
>
</g>

<g fill="#ffffff" fill-opacity="1" stroke="#0070ba" stroke-opacity="1" stroke-width="1" stroke-linecap="square" stroke-linejoin="bevel" transform="matrix(1,0,0,1,0,0)"
font-family="Inter" font-size="11" font-weight="700" font-style="normal" 
>
</g>

<g fill="none" stroke="#000000" stroke-opacity="1" stroke-width="1" stroke-linecap="square" stroke-linejoin="bevel" transform="matrix(1,0,0,1,0,0)"
font-family=".AppleSystemUIFont" font-size="13" font-weight="400" font-style="normal" 
>
</g>
</g>
</svg>
