<?xml version="1.0" encoding="UTF-8" standalone="no"?>
<svg width="108.656mm" height="21.1667mm"
 viewBox="0 0 308 60"
 xmlns="http://www.w3.org/2000/svg" xmlns:xlink="http://www.w3.org/1999/xlink" version="1.2" baseProfile="tiny">
<title>Abstract block</title>
<desc>block_gamepad_event_when_dpad_is</desc>
<defs>
</defs>
<g fill="none" stroke="black" stroke-width="1" fill-rule="evenodd" stroke-linecap="square" stroke-linejoin="bevel" >

<g fill="none" stroke="#000000" stroke-opacity="1" stroke-width="1" stroke-linecap="square" stroke-linejoin="bevel" transform="matrix(1,0,0,1,0,0)"
font-family=".AppleSystemUIFont" font-size="13" font-weight="400" font-style="normal" 
>
</g>

<g fill="none" stroke="#000000" stroke-opacity="1" stroke-width="1" stroke-linecap="square" stroke-linejoin="bevel" transform="matrix(1,0,0,1,0,0)"
font-family=".AppleSystemUIFont" font-size="13" font-weight="400" font-style="normal" 
>
</g>

<g fill="#00a97d" fill-opacity="1" stroke="#006e51" stroke-opacity="1" stroke-width="1.2" stroke-linecap="square" stroke-linejoin="bevel" transform="matrix(1,0,0,1,0,0)"
font-family=".AppleSystemUIFont" font-size="13" font-weight="400" font-style="normal" 
>
<path vector-effect="none" fill-rule="evenodd" d="M0.5,20.5 L1,18.6516 L1,18 L1.77836,17.1565 L2.58892,16.3401 L3.43062,15.551 L4.30242,14.7891 L5.20325,14.0544 L6.13206,13.3469 L7.08779,12.6667 L8.06939,12.0136 L9.0758,11.3878 L10.106,10.7891 L11.1588,10.2177 L12.2333,9.67347 L13.3284,9.15646 L14.4431,8.66667 L15.5762,8.20408 L16.7267,7.76871 L17.8936,7.36054 L19.0758,6.97959 L20.2723,6.62585 L21.4819,6.29932 L22.7037,6 L23.9366,5.72789 L25.1795,5.48299 L26.4314,5.26531 L27.6912,5.07483 L28.9578,4.91156 L30.2303,4.77551 L31.5075,4.66667 L32.7885,4.58503 L34.072,4.53061 L35.3572,4.5034 L36.6428,4.5034 L37.928,4.53061 L39.2115,4.58503 L40.4925,4.66667 L41.7697,4.77551 L43.0422,4.91156 L44.3088,5.07483 L45.5686,5.26531 L46.8205,5.48299 L48.0634,5.72789 L49.2963,6 L50.5181,6.29932 L51.7277,6.62585 L52.9242,6.97959 L54.1064,7.36054 L55.2733,7.76871 L56.4238,8.20408 L57.5569,8.66667 L58.6716,9.15646 L59.7667,9.67347 L60.8412,10.2177 L61.894,10.7891 L62.9242,11.3878 L63.9306,12.0136 L64.9122,12.6667 L65.8679,13.3469 L66.7968,14.0544 L67.6976,14.7891 L68.5694,15.551 L69.4111,16.3401 L69.5698,16.5 L303.5,16.5 L305.519,17.0461 L306.954,18.4811 L307.5,20.5 L307.5,47.5 L306.954,49.5189 L305.519,50.9539 L303.5,51.5 L34.375,51.5 L33.584,51.9766 L32.8281,52.6875 L32.002,53.6797 L31,55 L30.2441,55.6602 L29.4531,56.1563 L28.5918,56.5117 L27.625,56.75 L26.5176,56.8945 L25.2344,56.9688 L23.7402,56.9961 L22,57 L20.2598,56.9961 L18.7656,56.9688 L17.4824,56.8945 L16.375,56.75 L15.4082,56.5117 L14.5469,56.1563 L13.7559,55.6602 L13,55 L11.998,53.6797 L11.1719,52.6875 L10.416,51.9766 L9.625,51.5 L4.5,51.5 L2.48112,50.9539 L1.04612,49.5189 L0.5,47.5 L0.5,20.5"/>
</g>

<g fill="#ffffff" fill-opacity="1" stroke="none" transform="matrix(1,0,0,1,0,0)"
font-family="Inter" font-size="11" font-weight="700" font-style="normal" 
>
<path vector-effect="none" fill-rule="nonzero" d="M53.8164,37.9063 L52.1836,31.9063 L53.8672,31.9063 L54.7969,35.9375 L54.8516,35.9375 L55.8203,31.9063 L57.4727,31.9063 L58.457,35.9141 L58.5078,35.9141 L59.4219,31.9063 L61.1016,31.9063 L59.4727,37.9063 L57.7109,37.9063 L56.6797,34.1328 L56.6055,34.1328 L55.5742,37.9063 L53.8164,37.9063 M63.6406,34.4375 L63.6406,37.9063 L61.9766,37.9063 L61.9766,29.9063 L63.5938,29.9063 L63.5938,32.9648 L63.6641,32.9648 C63.7995,32.6107 64.0182,32.3327 64.3203,32.1309 C64.6224,31.929 65.0013,31.8281 65.457,31.8281 C65.8737,31.8281 66.2376,31.9186 66.5488,32.0996 C66.86,32.2806 67.1022,32.5397 67.2754,32.877 C67.4486,33.2142 67.5339,33.6172 67.5313,34.0859 L67.5313,37.9063 L65.8672,37.9063 L65.8672,34.3828 C65.8698,34.013 65.7767,33.7253 65.5879,33.5195 C65.3991,33.3138 65.1354,33.2109 64.7969,33.2109 C64.5703,33.2109 64.3704,33.2591 64.1973,33.3555 C64.0241,33.4518 63.8887,33.5918 63.791,33.7754 C63.6934,33.959 63.6432,34.1797 63.6406,34.4375 M71.5703,38.0234 C70.9531,38.0234 70.4225,37.8978 69.9785,37.6465 C69.5345,37.3952 69.1927,37.0384 68.9531,36.5762 C68.7135,36.1139 68.5938,35.5664 68.5938,34.9336 C68.5938,34.3164 68.7135,33.7747 68.9531,33.3086 C69.1927,32.8424 69.5306,32.4792 69.9668,32.2188 C70.403,31.9583 70.9154,31.8281 71.5039,31.8281 C71.8997,31.8281 72.2689,31.8913 72.6113,32.0176 C72.9538,32.1439 73.2533,32.3333 73.5098,32.5859 C73.7663,32.8385 73.9661,33.1556 74.1094,33.5371 C74.2526,33.9186 74.3242,34.3646 74.3242,34.875 L74.3242,35.332 L69.2578,35.332 L69.2578,34.3008 L72.7578,34.3008 C72.7578,34.0612 72.7057,33.849 72.6016,33.6641 C72.4974,33.4792 72.3535,33.334 72.1699,33.2285 C71.9863,33.123 71.7734,33.0703 71.5313,33.0703 C71.2786,33.0703 71.0553,33.1283 70.8613,33.2441 C70.6673,33.36 70.5156,33.515 70.4063,33.709 C70.2969,33.903 70.2409,34.1185 70.2383,34.3555 L70.2383,35.3359 C70.2383,35.6328 70.2936,35.8893 70.4043,36.1055 C70.515,36.3216 70.6719,36.4883 70.875,36.6055 C71.0781,36.7227 71.319,36.7813 71.5977,36.7813 C71.7826,36.7813 71.9518,36.7552 72.1055,36.7031 C72.2591,36.651 72.3906,36.5729 72.5,36.4688 C72.6094,36.3646 72.6927,36.237 72.75,36.0859 L74.2891,36.1875 C74.2109,36.5573 74.0514,36.8796 73.8105,37.1543 C73.5697,37.429 73.2598,37.6426 72.8809,37.7949 C72.502,37.9473 72.0651,38.0234 71.5703,38.0234 M77.0625,34.4375 L77.0625,37.9063 L75.3984,37.9063 L75.3984,31.9063 L76.9844,31.9063 L76.9844,32.9648 L77.0547,32.9648 C77.1875,32.6159 77.4102,32.3392 77.7227,32.1348 C78.0352,31.9303 78.4141,31.8281 78.8594,31.8281 C79.276,31.8281 79.6393,31.9193 79.9492,32.1016 C80.2591,32.2839 80.5,32.5436 80.6719,32.8809 C80.8438,33.2181 80.9297,33.6198 80.9297,34.0859 L80.9297,37.9063 L79.2656,37.9063 L79.2656,34.3828 C79.2682,34.0156 79.1745,33.7285 78.9844,33.5215 C78.7943,33.3145 78.5326,33.2109 78.1992,33.2109 C77.9753,33.2109 77.778,33.2591 77.6074,33.3555 C77.4368,33.4518 77.304,33.5918 77.209,33.7754 C77.1139,33.959 77.0651,34.1797 77.0625,34.4375 M87.6406,37.9063 L84.8047,37.9063 L84.8047,29.9063 L87.6641,29.9063 C88.4688,29.9063 89.1615,30.0658 89.7422,30.3848 C90.3229,30.7038 90.7702,31.1615 91.084,31.7578 C91.3978,32.3542 91.5547,33.0677 91.5547,33.8984 C91.5547,34.7318 91.3978,35.4479 91.084,36.0469 C90.7702,36.6458 90.321,37.1055 89.7363,37.4258 C89.1517,37.7461 88.4531,37.9063 87.6406,37.9063 M86.4961,36.457 L87.5703,36.457 C88.0703,36.457 88.4915,36.3678 88.834,36.1895 C89.1764,36.0111 89.4342,35.7337 89.6074,35.3574 C89.7806,34.9811 89.8672,34.4948 89.8672,33.8984 C89.8672,33.3073 89.7806,32.8242 89.6074,32.4492 C89.4342,32.0742 89.1771,31.7982 88.8359,31.6211 C88.4948,31.444 88.0742,31.3555 87.5742,31.3555 L86.4961,31.3555 L86.4961,36.457 M96.5117,33.2461 L96.5117,34.5664 L92.8633,34.5664 L92.8633,33.2461 L96.5117,33.2461 M97.9609,37.9063 L97.9609,29.9063 L101.117,29.9063 C101.724,29.9063 102.241,30.0215 102.668,30.252 C103.095,30.4824 103.421,30.8014 103.646,31.209 C103.872,31.6165 103.984,32.0859 103.984,32.6172 C103.984,33.1484 103.87,33.6172 103.641,34.0234 C103.411,34.4297 103.08,34.7461 102.646,34.9727 C102.213,35.1992 101.689,35.3125 101.074,35.3125 L99.0625,35.3125 L99.0625,33.957 L100.801,33.957 C101.126,33.957 101.395,33.9004 101.607,33.7871 C101.82,33.6738 101.979,33.5163 102.084,33.3145 C102.189,33.1126 102.242,32.8802 102.242,32.6172 C102.242,32.3516 102.189,32.1191 102.084,31.9199 C101.979,31.7207 101.819,31.5658 101.605,31.4551 C101.392,31.3444 101.121,31.2891 100.793,31.2891 L99.6523,31.2891 L99.6523,37.9063 L97.9609,37.9063 M106.609,38.0195 C106.227,38.0195 105.885,37.9525 105.586,37.8184 C105.286,37.6842 105.05,37.485 104.877,37.2207 C104.704,36.9564 104.617,36.6263 104.617,36.2305 C104.617,35.8971 104.678,35.6172 104.801,35.3906 C104.923,35.1641 105.09,34.9818 105.301,34.8438 C105.512,34.7057 105.752,34.6016 106.021,34.5313 C106.291,34.4609 106.574,34.4115 106.871,34.3828 C107.22,34.3464 107.501,34.3118 107.715,34.2793 C107.928,34.2467 108.083,34.1979 108.18,34.1328 C108.276,34.0677 108.324,33.9714 108.324,33.8438 L108.324,33.8203 C108.324,33.5729 108.247,33.3815 108.092,33.2461 C107.937,33.1107 107.717,33.043 107.434,33.043 C107.134,33.043 106.896,33.1087 106.719,33.2402 C106.542,33.3717 106.424,33.5365 106.367,33.7344 L104.828,33.6094 C104.906,33.2448 105.06,32.929 105.289,32.6621 C105.518,32.3952 105.814,32.1895 106.178,32.0449 C106.541,31.9004 106.962,31.8281 107.441,31.8281 C107.775,31.8281 108.094,31.8672 108.4,31.9453 C108.706,32.0234 108.979,32.1445 109.217,32.3086 C109.455,32.4727 109.643,32.6829 109.781,32.9395 C109.919,33.196 109.988,33.5026 109.988,33.8594 L109.988,37.9063 L108.41,37.9063 L108.41,37.0742 L108.363,37.0742 C108.267,37.2617 108.138,37.4264 107.977,37.5684 C107.815,37.7103 107.621,37.821 107.395,37.9004 C107.168,37.9798 106.906,38.0195 106.609,38.0195 M107.086,36.8711 C107.331,36.8711 107.547,36.8223 107.734,36.7246 C107.922,36.627 108.069,36.4948 108.176,36.3281 C108.283,36.1615 108.336,35.9727 108.336,35.7617 L108.336,35.125 C108.284,35.1589 108.213,35.1895 108.123,35.2168 C108.033,35.2441 107.932,35.2689 107.82,35.291 C107.708,35.3132 107.596,35.3327 107.484,35.3496 C107.372,35.3665 107.271,35.3815 107.18,35.3945 C106.984,35.4232 106.814,35.4688 106.668,35.5313 C106.522,35.5938 106.409,35.6777 106.328,35.7832 C106.247,35.8887 106.207,36.0195 106.207,36.1758 C106.207,36.4023 106.29,36.5749 106.455,36.6934 C106.62,36.8118 106.831,36.8711 107.086,36.8711 M113.484,38.0039 C113.029,38.0039 112.617,37.8861 112.248,37.6504 C111.88,37.4147 111.588,37.0671 111.373,36.6074 C111.158,36.1478 111.051,35.5833 111.051,34.9141 C111.051,34.2266 111.161,33.6543 111.383,33.1973 C111.604,32.7402 111.899,32.3978 112.268,32.1699 C112.636,31.9421 113.04,31.8281 113.48,31.8281 C113.816,31.8281 114.097,31.8848 114.322,31.998 C114.548,32.1113 114.73,32.252 114.869,32.4199 C115.008,32.5879 115.115,32.7526 115.188,32.9141 L115.238,32.9141 L115.238,29.9063 L116.898,29.9063 L116.898,37.9063 L115.258,37.9063 L115.258,36.9453 L115.188,36.9453 C115.109,37.112 114.999,37.2767 114.857,37.4395 C114.715,37.6022 114.532,37.737 114.307,37.8438 C114.081,37.9505 113.807,38.0039 113.484,38.0039 M114.012,36.6797 C114.28,36.6797 114.507,36.6061 114.693,36.459 C114.88,36.3118 115.023,36.1055 115.123,35.8398 C115.223,35.5742 115.273,35.263 115.273,34.9063 C115.273,34.5495 115.224,34.2396 115.125,33.9766 C115.026,33.7135 114.883,33.5104 114.695,33.3672 C114.508,33.224 114.28,33.1523 114.012,33.1523 C113.738,33.1523 113.508,33.2266 113.32,33.375 C113.133,33.5234 112.991,33.7292 112.895,33.9922 C112.798,34.2552 112.75,34.5599 112.75,34.9063 C112.75,35.2552 112.799,35.5632 112.896,35.8301 C112.994,36.097 113.136,36.3053 113.322,36.4551 C113.508,36.6048 113.738,36.6797 114.012,36.6797 "/>
</g>

<g fill="#ffffff" fill-opacity="1" stroke="none" transform="matrix(1,0,0,1,0,0)"
font-family="Inter" font-size="11" font-weight="700" font-style="normal" 
>
<path vector-effect="none" fill-rule="nonzero" d="M175.148,37.9531 L175.148,29.9531 L176.813,29.9531 L176.813,32.9609 L176.863,32.9609 C176.936,32.7995 177.042,32.6348 177.182,32.4668 C177.321,32.2988 177.503,32.1582 177.729,32.0449 C177.954,31.9316 178.234,31.875 178.57,31.875 C179.008,31.875 179.411,31.9889 179.781,32.2168 C180.151,32.4447 180.447,32.7871 180.668,33.2441 C180.889,33.7012 181,34.2734 181,34.9609 C181,35.6302 180.893,36.1947 180.678,36.6543 C180.463,37.1139 180.171,37.4616 179.803,37.6973 C179.434,37.9329 179.022,38.0508 178.566,38.0508 C178.243,38.0508 177.969,37.9974 177.744,37.8906 C177.519,37.7839 177.335,37.6491 177.191,37.4863 C177.048,37.3236 176.939,37.1589 176.863,36.9922 L176.789,36.9922 L176.789,37.9531 L175.148,37.9531 M176.777,34.9531 C176.777,35.3099 176.827,35.6211 176.926,35.8867 C177.025,36.1523 177.168,36.3587 177.355,36.5059 C177.543,36.653 177.771,36.7266 178.039,36.7266 C178.31,36.7266 178.539,36.6517 178.727,36.502 C178.914,36.3522 179.057,36.1439 179.154,35.877 C179.252,35.61 179.301,35.3021 179.301,34.9531 C179.301,34.6068 179.253,34.3021 179.156,34.0391 C179.06,33.776 178.918,33.5703 178.73,33.4219 C178.543,33.2734 178.313,33.1992 178.039,33.1992 C177.768,33.1992 177.54,33.2708 177.354,33.4141 C177.167,33.5573 177.025,33.7604 176.926,34.0234 C176.827,34.2865 176.777,34.5964 176.777,34.9531 M185.949,35.3984 L185.949,31.9531 L187.613,31.9531 L187.613,37.9531 L186.016,37.9531 L186.016,36.8633 L185.953,36.8633 C185.818,37.2148 185.593,37.4974 185.279,37.7109 C184.965,37.9245 184.583,38.0313 184.133,38.0313 C183.732,38.0313 183.379,37.9401 183.074,37.7578 C182.77,37.5755 182.532,37.3164 182.361,36.9805 C182.191,36.6445 182.104,36.2422 182.102,35.7734 L182.102,31.9531 L183.766,31.9531 L183.766,35.4766 C183.768,35.8307 183.863,36.1107 184.051,36.3164 C184.238,36.5221 184.49,36.625 184.805,36.625 C185.005,36.625 185.193,36.5788 185.367,36.4863 C185.542,36.3939 185.683,36.2565 185.791,36.0742 C185.899,35.8919 185.952,35.6667 185.949,35.3984 M192.121,31.9531 L192.121,33.2031 L188.508,33.2031 L188.508,31.9531 L192.121,31.9531 M189.328,30.5156 L190.992,30.5156 L190.992,36.1094 C190.992,36.263 191.016,36.3822 191.063,36.4668 C191.109,36.5514 191.175,36.6107 191.26,36.6445 C191.344,36.6784 191.443,36.6953 191.555,36.6953 C191.633,36.6953 191.711,36.6882 191.789,36.6738 C191.867,36.6595 191.927,36.6484 191.969,36.6406 L192.23,37.8789 C192.147,37.9049 192.03,37.9355 191.879,37.9707 C191.728,38.0059 191.544,38.0273 191.328,38.0352 C190.927,38.0508 190.576,37.9974 190.275,37.875 C189.975,37.7526 189.741,37.5625 189.574,37.3047 C189.408,37.0469 189.326,36.7214 189.328,36.3281 L189.328,30.5156 M196.387,31.9531 L196.387,33.2031 L192.773,33.2031 L192.773,31.9531 L196.387,31.9531 M193.594,30.5156 L195.258,30.5156 L195.258,36.1094 C195.258,36.263 195.281,36.3822 195.328,36.4668 C195.375,36.5514 195.441,36.6107 195.525,36.6445 C195.61,36.6784 195.708,36.6953 195.82,36.6953 C195.898,36.6953 195.977,36.6882 196.055,36.6738 C196.133,36.6595 196.193,36.6484 196.234,36.6406 L196.496,37.8789 C196.413,37.9049 196.296,37.9355 196.145,37.9707 C195.993,38.0059 195.81,38.0273 195.594,38.0352 C195.193,38.0508 194.842,37.9974 194.541,37.875 C194.24,37.7526 194.007,37.5625 193.84,37.3047 C193.673,37.0469 193.591,36.7214 193.594,36.3281 L193.594,30.5156 M200.109,38.0703 C199.503,38.0703 198.979,37.9408 198.537,37.6816 C198.096,37.4225 197.755,37.0605 197.516,36.5957 C197.276,36.1309 197.156,35.5911 197.156,34.9766 C197.156,34.3568 197.276,33.8145 197.516,33.3496 C197.755,32.8848 198.096,32.5228 198.537,32.2637 C198.979,32.0046 199.503,31.875 200.109,31.875 C200.716,31.875 201.24,32.0046 201.682,32.2637 C202.123,32.5228 202.464,32.8848 202.703,33.3496 C202.943,33.8145 203.063,34.3568 203.063,34.9766 C203.063,35.5911 202.943,36.1309 202.703,36.5957 C202.464,37.0605 202.123,37.4225 201.682,37.6816 C201.24,37.9408 200.716,38.0703 200.109,38.0703 M200.117,36.7813 C200.393,36.7813 200.624,36.7025 200.809,36.5449 C200.993,36.3874 201.133,36.1719 201.229,35.8984 C201.324,35.625 201.371,35.3138 201.371,34.9648 C201.371,34.6159 201.324,34.3047 201.229,34.0313 C201.133,33.7578 200.993,33.5417 200.809,33.3828 C200.624,33.224 200.393,33.1445 200.117,33.1445 C199.839,33.1445 199.605,33.224 199.416,33.3828 C199.227,33.5417 199.085,33.7578 198.99,34.0313 C198.895,34.3047 198.848,34.6159 198.848,34.9648 C198.848,35.3138 198.895,35.625 198.99,35.8984 C199.085,36.1719 199.227,36.3874 199.416,36.5449 C199.605,36.7025 199.839,36.7813 200.117,36.7813 M205.813,34.4844 L205.813,37.9531 L204.148,37.9531 L204.148,31.9531 L205.734,31.9531 L205.734,33.0117 L205.805,33.0117 C205.938,32.6628 206.16,32.3861 206.473,32.1816 C206.785,31.9772 207.164,31.875 207.609,31.875 C208.026,31.875 208.389,31.9661 208.699,32.1484 C209.009,32.3307 209.25,32.5905 209.422,32.9277 C209.594,33.265 209.68,33.6667 209.68,34.1328 L209.68,37.9531 L208.016,37.9531 L208.016,34.4297 C208.018,34.0625 207.924,33.7754 207.734,33.5684 C207.544,33.3613 207.283,33.2578 206.949,33.2578 C206.725,33.2578 206.528,33.306 206.357,33.4023 C206.187,33.4987 206.054,33.6387 205.959,33.8223 C205.864,34.0059 205.815,34.2266 205.813,34.4844 M213.523,37.9531 L213.523,31.9531 L215.188,31.9531 L215.188,37.9531 L213.523,37.9531 M214.359,31.1797 C214.112,31.1797 213.9,31.097 213.725,30.9316 C213.549,30.7663 213.461,30.5677 213.461,30.3359 C213.461,30.1068 213.549,29.9095 213.725,29.7441 C213.9,29.5788 214.112,29.4961 214.359,29.4961 C214.607,29.4961 214.818,29.5788 214.994,29.7441 C215.17,29.9095 215.258,30.1068 215.258,30.3359 C215.258,30.5677 215.17,30.7663 214.994,30.9316 C214.818,31.097 214.607,31.1797 214.359,31.1797 M221.5,33.6641 L219.977,33.7578 C219.951,33.6276 219.895,33.5098 219.809,33.4043 C219.723,33.2988 219.61,33.2142 219.471,33.1504 C219.331,33.0866 219.165,33.0547 218.973,33.0547 C218.715,33.0547 218.497,33.1087 218.32,33.2168 C218.143,33.3249 218.055,33.4688 218.055,33.6484 C218.055,33.7917 218.112,33.9128 218.227,34.0117 C218.341,34.1107 218.538,34.1901 218.816,34.25 L219.902,34.4688 C220.486,34.5885 220.921,34.7813 221.207,35.0469 C221.493,35.3125 221.637,35.6615 221.637,36.0938 C221.637,36.487 221.521,36.832 221.291,37.1289 C221.061,37.4258 220.745,37.6569 220.346,37.8223 C219.946,37.9876 219.486,38.0703 218.965,38.0703 C218.171,38.0703 217.538,37.9043 217.068,37.5723 C216.598,37.2402 216.323,36.7878 216.242,36.2148 L217.879,36.1289 C217.928,36.3711 218.048,36.5553 218.238,36.6816 C218.428,36.8079 218.672,36.8711 218.969,36.8711 C219.26,36.8711 219.495,36.8145 219.674,36.7012 C219.852,36.5879 219.943,36.4414 219.945,36.2617 C219.943,36.1107 219.879,35.9863 219.754,35.8887 C219.629,35.791 219.436,35.7161 219.176,35.6641 L218.137,35.457 C217.551,35.3398 217.115,35.1367 216.83,34.8477 C216.545,34.5586 216.402,34.1901 216.402,33.7422 C216.402,33.3568 216.507,33.0247 216.717,32.7461 C216.926,32.4674 217.222,32.2526 217.604,32.1016 C217.985,31.9505 218.432,31.875 218.945,31.875 C219.703,31.875 220.3,32.0352 220.736,32.3555 C221.173,32.6758 221.427,33.112 221.5,33.6641 "/>
</g>

<g fill="#ffffff" fill-opacity="1" stroke="none" transform="matrix(0.95,0,0,0.95,11.6,25.6)"
font-family="Inter" font-size="11" font-weight="700" font-style="normal" 
>
<path vector-effect="none" fill-rule="nonzero" d="M7.46543,4.39588 C6.38302,4.39585 5.47613,4.39584 4.74926,4.48951 C3.97986,4.58868 3.28183,4.80608 2.69613,5.33613 C2.11042,5.86618 1.82464,6.53909 1.64941,7.2948 C1.48387,8.00878 1.39363,8.91112 1.28596,9.98813 L0.676055,16.0874 C0.487764,17.9704 1.96635,19.6041 3.85857,19.6041 C5.19182,19.6041 6.38522,18.7771 6.85336,17.5288 L7.6565,15.387 C7.81994,14.9511 7.91537,14.7008 8.0049,14.5243 C8.04525,14.4449 8.07235,14.4055 8.08682,14.3873 C8.09352,14.3788 8.09729,14.3751 8.09818,14.3743 L8.09959,14.3732 L8.10111,14.3723 C8.10221,14.3718 8.10688,14.3696 8.11723,14.3663 C8.13943,14.3591 8.18571,14.3475 8.27426,14.3375 C8.47084,14.3157 8.73881,14.3143 9.20432,14.3143 L14.7957,14.3143 C15.2612,14.3143 15.5292,14.3158 15.7258,14.3375 C15.8143,14.3474 15.8606,14.3591 15.8828,14.3663 C15.8931,14.3696 15.8978,14.3718 15.8989,14.3723 L15.9005,14.3732 L15.9018,14.3743 C15.9027,14.3751 15.9064,14.3788 15.9132,14.3873 C15.9276,14.4055 15.9547,14.4449 15.995,14.5243 C16.0846,14.7008 16.18,14.9511 16.3435,15.387 L17.1466,17.5288 C17.6148,18.7771 18.8081,19.6041 20.1414,19.6041 C22.0336,19.6041 23.5123,17.9704 23.3239,16.0874 L22.714,9.9883 C22.6064,8.91117 22.5162,8.00877 22.3506,7.2948 C22.1754,6.53909 21.8896,5.86618 21.3039,5.33613 C20.7182,4.80608 20.0202,4.58868 19.2508,4.48951 C18.5239,4.39583 17.6172,4.39585 16.5347,4.39588 L7.46543,4.39588 M18.0984,6.1592 C18.7525,6.15907 19.2829,6.6892 19.2831,7.34332 L19.2831,7.34367 C19.2831,7.99779 18.7529,8.52808 18.0987,8.52814 C17.4446,8.52821 16.9142,7.99799 16.9141,7.34385 C16.914,6.6897 17.4442,6.15932 18.0984,6.1592 M6.0791,6.38168 C7.79363,6.38129 9.18388,7.77081 9.18439,9.48533 L9.18439,9.48621 C9.1844,11.2007 7.79457,12.5907 6.08004,12.5908 C4.36551,12.5909 2.97547,11.2012 2.97521,9.48668 C2.97499,7.77218 4.3646,6.38207 6.0791,6.38168 M15.966,8.41271 C16.6201,8.41258 17.1505,8.94271 17.1507,9.59684 L17.1507,9.59719 C17.1507,10.2513 16.6205,10.7816 15.9663,10.7817 C15.3122,10.7817 14.7818,10.2515 14.7817,9.59736 C14.7816,8.94322 15.3118,8.41284 15.966,8.41271 M20.3065,8.43451 C20.9606,8.43435 21.4911,8.96449 21.4912,9.61863 L21.4913,9.61898 C21.4913,10.2731 20.961,10.8034 20.3068,10.8035 C19.6527,10.8035 19.1224,10.2733 19.1223,9.61916 C19.1222,8.96504 19.6524,8.43467 20.3065,8.43451 M18.1035,10.4194 C18.7576,10.4193 19.288,10.9494 19.2882,11.6035 L19.2882,11.6038 C19.2882,12.258 18.758,12.7883 18.1039,12.7883 C17.4497,12.7884 16.9194,12.2582 16.9193,11.604 C16.9192,10.9499 17.4494,10.4196 18.1035,10.4194 "/>
</g>

<g fill="none" stroke="#000000" stroke-opacity="1" stroke-width="0.54" stroke-linecap="butt" stroke-linejoin="miter" stroke-miterlimit="4" transform="matrix(0.95,0,0,0.95,11.6,25.6)"
font-family="Inter" font-size="11" font-weight="700" font-style="normal" 
>
<path vector-effect="none" fill-rule="nonzero" d="M0.676054,16.0875 C0.487763,17.9704 1.96634,19.6041 3.85857,19.6041 C5.19182,19.6041 6.38521,18.7771 6.85334,17.5288 L7.65652,15.3869 C7.81997,14.9511 7.9154,14.7007 8.00493,14.5243 C8.04527,14.4448 8.07237,14.4056 8.08684,14.3873 C8.09354,14.3788 8.09731,14.3751 8.0982,14.3743 L8.09956,14.3731 L8.10109,14.3723 C8.10219,14.3718 8.10694,14.3695 8.11724,14.3662 C8.13944,14.3591 8.18573,14.3475 8.27428,14.3375 C8.47086,14.3157 8.73883,14.3143 9.20434,14.3143 L14.7957,14.3143 C15.2612,14.3143 15.5291,14.3158 15.7258,14.3375 C15.8143,14.3474 15.8605,14.3591 15.8828,14.3662 C15.8931,14.3695 15.8978,14.3718 15.8989,14.3723 L15.9005,14.3731 L15.9018,14.3743 C15.9027,14.3751 15.9064,14.3788 15.9132,14.3873 C15.9276,14.4056 15.9547,14.4448 15.995,14.5243 C16.0845,14.7007 16.18,14.9511 16.3435,15.3869 L17.1466,17.5288 C17.6148,18.7771 18.8081,19.6041 20.1414,19.6041 C22.0336,19.6041 23.5123,17.9704 23.3239,16.0875 L22.714,9.98828 C22.6064,8.91114 22.5162,8.0088 22.3506,7.29483 C22.1754,6.53911 21.8896,5.86621 21.3039,5.33615 C20.7182,4.8061 20.0202,4.58866 19.2508,4.48949 C18.5238,4.39581 17.6172,4.39585 16.5347,4.39587 L7.46542,4.39587 C6.383,4.39585 5.47612,4.39582 4.74925,4.48949 C3.97984,4.58866 3.28185,4.8061 2.69615,5.33615 C2.11043,5.86621 1.82462,6.53911 1.6494,7.29483 C1.48385,8.00881 1.39365,8.91114 1.28597,9.98815 L0.676054,16.0875"/>
</g>

<g fill="none" stroke="#000000" stroke-opacity="1" stroke-width="0.54" stroke-linecap="round" stroke-linejoin="round" transform="matrix(0,0.95,-0.95,0,11.6,25.6)"
font-family="Inter" font-size="11" font-weight="700" font-style="normal" 
>
<path vector-effect="none" fill-rule="nonzero" d="M12.5908,-5.99358 C12.5908,-4.27905 11.201,-2.88912 9.48647,-2.88899 C7.77194,-2.88886 6.38191,-4.27859 6.38165,-5.99311 C6.38139,-7.70764 7.77102,-9.09778 9.48554,-9.09816 C11.2001,-9.09855 12.5903,-7.70903 12.5908,-5.99451 "/>
</g>

<g fill="#000000" fill-opacity="1" stroke="none" transform="matrix(1.02542,0,0,1.02542,11.148,24.9627)"
font-family="Inter" font-size="11" font-weight="700" font-style="normal" 
>
<path vector-effect="none" fill-rule="evenodd" d="M5.49097,7.51931 C5.49097,7.42723 5.56561,7.35258 5.65769,7.35258 L6.32946,7.35258 C6.42154,7.35258 6.49619,7.42723 6.49619,7.51931 L6.49619,8.23146 C6.49619,8.32354 6.42154,8.39819 6.32946,8.39819 L5.65769,8.39819 C5.56561,8.39819 5.49097,8.32354 5.49097,8.23146 L5.49097,7.51931"/>
</g>

<g fill="none" stroke="#000000" stroke-opacity="1" stroke-width="0.463675" stroke-linecap="round" stroke-linejoin="round" transform="matrix(1.02542,0,0,1.02542,11.148,24.9627)"
font-family="Inter" font-size="11" font-weight="700" font-style="normal" 
>
<path vector-effect="none" fill-rule="evenodd" d="M5.49097,7.51931 C5.49097,7.42723 5.56561,7.35258 5.65769,7.35258 L6.32946,7.35258 C6.42154,7.35258 6.49619,7.42723 6.49619,7.51931 L6.49619,8.23146 C6.49619,8.32354 6.42154,8.39819 6.32946,8.39819 L5.65769,8.39819 C5.56561,8.39819 5.49097,8.32354 5.49097,8.23146 L5.49097,7.51931"/>
</g>

<g fill="#000000" fill-opacity="1" stroke="none" transform="matrix(1.02542,0,0,1.02542,11.148,24.9627)"
font-family="Inter" font-size="11" font-weight="700" font-style="normal" 
>
<path vector-effect="none" fill-rule="evenodd" d="M5.49097,10.5887 C5.49097,10.4966 5.56561,10.422 5.65769,10.422 L6.32946,10.422 C6.42154,10.422 6.49619,10.4966 6.49619,10.5887 L6.49619,11.3008 C6.49619,11.3929 6.42154,11.4676 6.32946,11.4676 L5.65769,11.4676 C5.56561,11.4676 5.49097,11.3929 5.49097,11.3008 L5.49097,10.5887"/>
</g>

<g fill="none" stroke="#000000" stroke-opacity="1" stroke-width="0.463675" stroke-linecap="round" stroke-linejoin="round" transform="matrix(1.02542,0,0,1.02542,11.148,24.9627)"
font-family="Inter" font-size="11" font-weight="700" font-style="normal" 
>
<path vector-effect="none" fill-rule="evenodd" d="M5.49097,10.5887 C5.49097,10.4966 5.56561,10.422 5.65769,10.422 L6.32946,10.422 C6.42154,10.422 6.49619,10.4966 6.49619,10.5887 L6.49619,11.3008 C6.49619,11.3929 6.42154,11.4676 6.32946,11.4676 L5.65769,11.4676 C5.56561,11.4676 5.49097,11.3929 5.49097,11.3008 L5.49097,10.5887"/>
</g>

<g fill="#000000" fill-opacity="1" stroke="none" transform="matrix(0,1.02542,-1.02542,0,26.9431,28.5441)"
font-family="Inter" font-size="11" font-weight="700" font-style="normal" 
>
<path vector-effect="none" fill-rule="evenodd" d="M5.49097,7.51931 C5.49097,7.42723 5.56561,7.35258 5.65769,7.35258 L6.32946,7.35258 C6.42154,7.35258 6.49619,7.42723 6.49619,7.51931 L6.49619,8.23146 C6.49619,8.32354 6.42154,8.39819 6.32946,8.39819 L5.65769,8.39819 C5.56561,8.39819 5.49097,8.32354 5.49097,8.23146 L5.49097,7.51931"/>
</g>

<g fill="none" stroke="#000000" stroke-opacity="1" stroke-width="0.463675" stroke-linecap="round" stroke-linejoin="round" transform="matrix(0,1.02542,-1.02542,0,26.9431,28.5441)"
font-family="Inter" font-size="11" font-weight="700" font-style="normal" 
>
<path vector-effect="none" fill-rule="evenodd" d="M5.49097,7.51931 C5.49097,7.42723 5.56561,7.35258 5.65769,7.35258 L6.32946,7.35258 C6.42154,7.35258 6.49619,7.42723 6.49619,7.51931 L6.49619,8.23146 C6.49619,8.32354 6.42154,8.39819 6.32946,8.39819 L5.65769,8.39819 C5.56561,8.39819 5.49097,8.32354 5.49097,8.23146 L5.49097,7.51931"/>
</g>

<g fill="#000000" fill-opacity="1" stroke="none" transform="matrix(0,1.02542,-1.02542,0,26.9431,28.5441)"
font-family="Inter" font-size="11" font-weight="700" font-style="normal" 
>
<path vector-effect="none" fill-rule="evenodd" d="M5.49097,10.5887 C5.49097,10.4966 5.56561,10.422 5.65769,10.422 L6.32946,10.422 C6.42154,10.422 6.49619,10.4966 6.49619,10.5887 L6.49619,11.3008 C6.49619,11.3929 6.42154,11.4676 6.32946,11.4676 L5.65769,11.4676 C5.56561,11.4676 5.49097,11.3929 5.49097,11.3008 L5.49097,10.5887"/>
</g>

<g fill="none" stroke="#000000" stroke-opacity="1" stroke-width="0.463675" stroke-linecap="round" stroke-linejoin="round" transform="matrix(0,1.02542,-1.02542,0,26.9431,28.5441)"
font-family="Inter" font-size="11" font-weight="700" font-style="normal" 
>
<path vector-effect="none" fill-rule="evenodd" d="M5.49097,10.5887 C5.49097,10.4966 5.56561,10.422 5.65769,10.422 L6.32946,10.422 C6.42154,10.422 6.49619,10.4966 6.49619,10.5887 L6.49619,11.3008 C6.49619,11.3929 6.42154,11.4676 6.32946,11.4676 L5.65769,11.4676 C5.56561,11.4676 5.49097,11.3929 5.49097,11.3008 L5.49097,10.5887"/>
</g>

<g fill="none" stroke="#000000" stroke-opacity="1" stroke-width="0.32496" stroke-linecap="round" stroke-linejoin="round" transform="matrix(0.95,0,0,0.95,11.6,25.6)"
font-family="Inter" font-size="11" font-weight="700" font-style="normal" 
>
<path vector-effect="none" fill-rule="evenodd" d="M17.0283,7.32484 C17.0283,6.74873 17.4954,6.28169 18.0715,6.28169 L18.1437,6.28169 C18.7198,6.28169 19.1869,6.74873 19.1869,7.32484 L19.1869,7.40867 C19.1869,7.98479 18.7198,8.45182 18.1437,8.45182 L18.0715,8.45182 C17.4954,8.45182 17.0283,7.98479 17.0283,7.40867 L17.0283,7.32484"/>
</g>

<g fill="none" stroke="#000000" stroke-opacity="1" stroke-width="0.32496" stroke-linecap="round" stroke-linejoin="round" transform="matrix(0.95,0,0,0.95,11.6,25.6)"
font-family="Inter" font-size="11" font-weight="700" font-style="normal" 
>
<path vector-effect="none" fill-rule="evenodd" d="M19.2177,9.55083 C19.2177,8.97472 19.6848,8.50768 20.2609,8.50768 L20.3331,8.50768 C20.9092,8.50768 21.3763,8.97472 21.3763,9.55083 L21.3763,9.63466 C21.3763,10.2108 20.9092,10.6778 20.3331,10.6778 L20.2609,10.6778 C19.6848,10.6778 19.2177,10.2108 19.2177,9.63466 L19.2177,9.55083"/>
</g>

<g fill="none" stroke="#000000" stroke-opacity="1" stroke-width="0.32496" stroke-linecap="round" stroke-linejoin="round" transform="matrix(0.95,0,0,0.95,11.6,25.6)"
font-family="Inter" font-size="11" font-weight="700" font-style="normal" 
>
<path vector-effect="none" fill-rule="evenodd" d="M14.8925,9.52667 C14.8925,8.95055 15.3596,8.48352 15.9357,8.48352 L16.0079,8.48352 C16.584,8.48352 17.0511,8.95055 17.0511,9.52667 L17.0511,9.61049 C17.0511,10.1866 16.584,10.6536 16.0079,10.6536 L15.9357,10.6536 C15.3596,10.6536 14.8925,10.1866 14.8925,9.61049 L14.8925,9.52667"/>
</g>

<g fill="none" stroke="#000000" stroke-opacity="1" stroke-width="0.32496" stroke-linecap="round" stroke-linejoin="round" transform="matrix(0.95,0,0,0.95,11.6,25.6)"
font-family="Inter" font-size="11" font-weight="700" font-style="normal" 
>
<path vector-effect="none" fill-rule="evenodd" d="M16.9947,11.5322 C16.9947,10.9561 17.4618,10.4891 18.0379,10.4891 L18.1101,10.4891 C18.6862,10.4891 19.1533,10.9561 19.1533,11.5322 L19.1533,11.616 C19.1533,12.1921 18.6862,12.6592 18.1101,12.6592 L18.0379,12.6592 C17.4618,12.6592 16.9947,12.1921 16.9947,11.616 L16.9947,11.5322"/>
</g>

<g fill="#000000" fill-opacity="1" stroke="none" transform="matrix(0.95,0,0,0.95,11.6,25.6)"
font-family="Inter" font-size="11" font-weight="700" font-style="normal" 
>
<path vector-effect="none" fill-rule="evenodd" d="M10.7009,12.2391 C10.7009,11.9791 10.9118,11.7682 11.1719,11.7682 L12.8281,11.7682 C13.0882,11.7682 13.2991,11.9791 13.2991,12.2391 C13.2991,12.4992 13.0882,12.71 12.8281,12.71 L11.1719,12.71 C10.9118,12.71 10.7009,12.4992 10.7009,12.2391 "/>
</g>

<g fill="#ffffff" fill-opacity="1" stroke="none" transform="matrix(1,0,0,1,0,0)"
font-family="Inter" font-size="11" font-weight="700" font-style="normal" 
>
</g>

<g fill="#ffffff" fill-opacity="1" stroke="#006e51" stroke-opacity="1" stroke-width="1" stroke-linecap="square" stroke-linejoin="bevel" transform="matrix(1,0,0,1,0,0)"
font-family="Inter" font-size="11" font-weight="700" font-style="normal" 
>
<polyline fill="none" vector-effect="none" points="45,27 45,47 " />
</g>

<g fill="#00a97d" fill-opacity="1" stroke="#006e51" stroke-opacity="1" stroke-width="1.2" stroke-linecap="square" stroke-linejoin="bevel" transform="matrix(1,0,0,1,228,22)"
font-family="Inter" font-size="11" font-weight="700" font-style="normal" 
>
<path vector-effect="none" fill-rule="evenodd" d="M0.5,3.5 C0.5,1.84315 1.84315,0.5 3.5,0.5 L70.5,0.5 C72.1569,0.5 73.5,1.84315 73.5,3.5 L73.5,20.5 C73.5,22.1569 72.1569,23.5 70.5,23.5 L3.5,23.5 C1.84315,23.5 0.5,22.1569 0.5,20.5 L0.5,3.5"/>
</g>

<g fill="#ffffff" fill-opacity="1" stroke="none" transform="matrix(1,0,0,1,228,22)"
font-family="Inter" font-size="11" font-weight="700" font-style="normal" 
>
<path vector-effect="none" fill-rule="nonzero" d="M9.00781,17.0781 L9.00781,8.82813 L10.6484,8.82813 L10.6484,9.83594 L10.7227,9.83594 C10.7956,9.67448 10.9017,9.50977 11.041,9.3418 C11.1803,9.17383 11.3626,9.0332 11.5879,8.91992 C11.8132,8.80664 12.0938,8.75 12.4297,8.75 C12.8672,8.75 13.2708,8.86393 13.6406,9.0918 C14.0104,9.31966 14.306,9.66211 14.5273,10.1191 C14.7487,10.5762 14.8594,11.1484 14.8594,11.8359 C14.8594,12.5052 14.752,13.0697 14.5371,13.5293 C14.3223,13.9889 14.0306,14.3366 13.6621,14.5723 C13.2936,14.8079 12.8815,14.9258 12.4258,14.9258 C12.1029,14.9258 11.8288,14.8724 11.6035,14.7656 C11.3783,14.6589 11.194,14.5241 11.0508,14.3613 C10.9076,14.1986 10.7982,14.0339 10.7227,13.8672 L10.6719,13.8672 L10.6719,17.0781 L9.00781,17.0781 M10.6367,11.8281 C10.6367,12.1849 10.6862,12.4961 10.7852,12.7617 C10.8841,13.0273 11.0273,13.2337 11.2148,13.3809 C11.4023,13.528 11.6302,13.6016 11.8984,13.6016 C12.1693,13.6016 12.3984,13.5267 12.5859,13.377 C12.7734,13.2272 12.916,13.0189 13.0137,12.752 C13.1113,12.485 13.1602,12.1771 13.1602,11.8281 C13.1602,11.4818 13.112,11.1771 13.0156,10.9141 C12.9193,10.651 12.7773,10.4453 12.5898,10.2969 C12.4023,10.1484 12.1719,10.0742 11.8984,10.0742 C11.6276,10.0742 11.3991,10.1458 11.2129,10.2891 C11.0267,10.4323 10.8841,10.6354 10.7852,10.8984 C10.6862,11.1615 10.6367,11.4714 10.6367,11.8281 M15.9609,14.8281 L15.9609,8.82813 L17.5742,8.82813 L17.5742,9.875 L17.6367,9.875 C17.7461,9.5026 17.9297,9.2207 18.1875,9.0293 C18.4453,8.83789 18.7422,8.74219 19.0781,8.74219 C19.1615,8.74219 19.2513,8.7474 19.3477,8.75781 C19.444,8.76823 19.5286,8.78255 19.6016,8.80078 L19.6016,10.2773 C19.5234,10.2539 19.4154,10.2331 19.2773,10.2148 C19.1393,10.1966 19.013,10.1875 18.8984,10.1875 C18.6536,10.1875 18.4355,10.2402 18.2441,10.3457 C18.0527,10.4512 17.9017,10.5977 17.791,10.7852 C17.6803,10.9727 17.625,11.1888 17.625,11.4336 L17.625,14.8281 L15.9609,14.8281 M22.8984,14.9453 C22.2813,14.9453 21.7507,14.8197 21.3066,14.5684 C20.8626,14.3171 20.5208,13.9603 20.2813,13.498 C20.0417,13.0358 19.9219,12.4883 19.9219,11.8555 C19.9219,11.2383 20.0417,10.6966 20.2813,10.2305 C20.5208,9.76432 20.8587,9.40104 21.2949,9.14063 C21.7311,8.88021 22.2435,8.75 22.832,8.75 C23.2279,8.75 23.597,8.81315 23.9395,8.93945 C24.2819,9.06576 24.5814,9.25521 24.8379,9.50781 C25.0944,9.76042 25.2943,10.0775 25.4375,10.459 C25.5807,10.8405 25.6523,11.2865 25.6523,11.7969 L25.6523,12.2539 L20.5859,12.2539 L20.5859,11.2227 L24.0859,11.2227 C24.0859,10.9831 24.0339,10.7708 23.9297,10.5859 C23.8255,10.401 23.6816,10.2559 23.498,10.1504 C23.3145,10.0449 23.1016,9.99219 22.8594,9.99219 C22.6068,9.99219 22.3835,10.0501 22.1895,10.166 C21.9954,10.2819 21.8438,10.4368 21.7344,10.6309 C21.625,10.8249 21.569,11.0404 21.5664,11.2773 L21.5664,12.2578 C21.5664,12.5547 21.6217,12.8112 21.7324,13.0273 C21.8431,13.2435 22,13.4102 22.2031,13.5273 C22.4063,13.6445 22.6471,13.7031 22.9258,13.7031 C23.1107,13.7031 23.2799,13.6771 23.4336,13.625 C23.5872,13.5729 23.7188,13.4948 23.8281,13.3906 C23.9375,13.2865 24.0208,13.1589 24.0781,13.0078 L25.6172,13.1094 C25.5391,13.4792 25.3796,13.8014 25.1387,14.0762 C24.8978,14.3509 24.5879,14.5645 24.209,14.7168 C23.8301,14.8691 23.3932,14.9453 22.8984,14.9453 M31.7188,10.5391 L30.1953,10.6328 C30.1693,10.5026 30.1133,10.3848 30.0273,10.2793 C29.9414,10.1738 29.8288,10.0892 29.6895,10.0254 C29.5501,9.96159 29.3841,9.92969 29.1914,9.92969 C28.9336,9.92969 28.7161,9.98372 28.5391,10.0918 C28.362,10.1999 28.2734,10.3438 28.2734,10.5234 C28.2734,10.6667 28.3307,10.7878 28.4453,10.8867 C28.5599,10.9857 28.7565,11.0651 29.0352,11.125 L30.1211,11.3438 C30.7044,11.4635 31.1393,11.6563 31.4258,11.9219 C31.7122,12.1875 31.8555,12.5365 31.8555,12.9688 C31.8555,13.362 31.7402,13.707 31.5098,14.0039 C31.2793,14.3008 30.9642,14.5319 30.5645,14.6973 C30.1647,14.8626 29.7044,14.9453 29.1836,14.9453 C28.3893,14.9453 27.7572,14.7793 27.2871,14.4473 C26.8171,14.1152 26.5417,13.6628 26.4609,13.0898 L28.0977,13.0039 C28.1471,13.2461 28.2669,13.4303 28.457,13.5566 C28.6471,13.6829 28.8906,13.7461 29.1875,13.7461 C29.4792,13.7461 29.7142,13.6895 29.8926,13.5762 C30.071,13.4629 30.1615,13.3164 30.1641,13.1367 C30.1615,12.9857 30.0977,12.8613 29.9727,12.7637 C29.8477,12.666 29.6549,12.5911 29.3945,12.5391 L28.3555,12.332 C27.7695,12.2148 27.334,12.0117 27.0488,11.7227 C26.7637,11.4336 26.6211,11.0651 26.6211,10.6172 C26.6211,10.2318 26.7259,9.89974 26.9355,9.62109 C27.1452,9.34245 27.4408,9.1276 27.8223,8.97656 C28.2038,8.82552 28.651,8.75 29.1641,8.75 C29.9219,8.75 30.5189,8.91016 30.9551,9.23047 C31.3913,9.55078 31.6458,9.98698 31.7188,10.5391 M37.8906,10.5391 L36.3672,10.6328 C36.3411,10.5026 36.2852,10.3848 36.1992,10.2793 C36.1133,10.1738 36.0007,10.0892 35.8613,10.0254 C35.722,9.96159 35.556,9.92969 35.3633,9.92969 C35.1055,9.92969 34.888,9.98372 34.7109,10.0918 C34.5339,10.1999 34.4453,10.3438 34.4453,10.5234 C34.4453,10.6667 34.5026,10.7878 34.6172,10.8867 C34.7318,10.9857 34.9284,11.0651 35.207,11.125 L36.293,11.3438 C36.8763,11.4635 37.3112,11.6563 37.5977,11.9219 C37.8841,12.1875 38.0273,12.5365 38.0273,12.9688 C38.0273,13.362 37.9121,13.707 37.6816,14.0039 C37.4512,14.3008 37.1361,14.5319 36.7363,14.6973 C36.3366,14.8626 35.8763,14.9453 35.3555,14.9453 C34.5612,14.9453 33.929,14.7793 33.459,14.4473 C32.9889,14.1152 32.7135,13.6628 32.6328,13.0898 L34.2695,13.0039 C34.319,13.2461 34.4388,13.4303 34.6289,13.5566 C34.819,13.6829 35.0625,13.7461 35.3594,13.7461 C35.651,13.7461 35.8861,13.6895 36.0645,13.5762 C36.2428,13.4629 36.3333,13.3164 36.3359,13.1367 C36.3333,12.9857 36.2695,12.8613 36.1445,12.7637 C36.0195,12.666 35.8268,12.5911 35.5664,12.5391 L34.5273,12.332 C33.9414,12.2148 33.5059,12.0117 33.2207,11.7227 C32.9355,11.4336 32.793,11.0651 32.793,10.6172 C32.793,10.2318 32.8978,9.89974 33.1074,9.62109 C33.3171,9.34245 33.6126,9.1276 33.9941,8.97656 C34.3757,8.82552 34.8229,8.75 35.3359,8.75 C36.0938,8.75 36.6908,8.91016 37.127,9.23047 C37.5632,9.55078 37.8177,9.98698 37.8906,10.5391 M41.8047,14.9453 C41.1875,14.9453 40.6569,14.8197 40.2129,14.5684 C39.7689,14.3171 39.4271,13.9603 39.1875,13.498 C38.9479,13.0358 38.8281,12.4883 38.8281,11.8555 C38.8281,11.2383 38.9479,10.6966 39.1875,10.2305 C39.4271,9.76432 39.765,9.40104 40.2012,9.14063 C40.6374,8.88021 41.1497,8.75 41.7383,8.75 C42.1341,8.75 42.5033,8.81315 42.8457,8.93945 C43.1882,9.06576 43.4876,9.25521 43.7441,9.50781 C44.0007,9.76042 44.2005,10.0775 44.3438,10.459 C44.487,10.8405 44.5586,11.2865 44.5586,11.7969 L44.5586,12.2539 L39.4922,12.2539 L39.4922,11.2227 L42.9922,11.2227 C42.9922,10.9831 42.9401,10.7708 42.8359,10.5859 C42.7318,10.401 42.5879,10.2559 42.4043,10.1504 C42.2207,10.0449 42.0078,9.99219 41.7656,9.99219 C41.513,9.99219 41.2897,10.0501 41.0957,10.166 C40.9017,10.2819 40.75,10.4368 40.6406,10.6309 C40.5313,10.8249 40.4753,11.0404 40.4727,11.2773 L40.4727,12.2578 C40.4727,12.5547 40.528,12.8112 40.6387,13.0273 C40.7493,13.2435 40.9063,13.4102 41.1094,13.5273 C41.3125,13.6445 41.5534,13.7031 41.832,13.7031 C42.0169,13.7031 42.1862,13.6771 42.3398,13.625 C42.4935,13.5729 42.625,13.4948 42.7344,13.3906 C42.8438,13.2865 42.9271,13.1589 42.9844,13.0078 L44.5234,13.1094 C44.4453,13.4792 44.2858,13.8014 44.0449,14.0762 C43.804,14.3509 43.4941,14.5645 43.1152,14.7168 C42.7363,14.8691 42.2995,14.9453 41.8047,14.9453 M47.8438,14.9258 C47.388,14.9258 46.9759,14.8079 46.6074,14.5723 C46.2389,14.3366 45.9473,13.9889 45.7324,13.5293 C45.5176,13.0697 45.4102,12.5052 45.4102,11.8359 C45.4102,11.1484 45.5208,10.5762 45.7422,10.1191 C45.9635,9.66211 46.2585,9.31966 46.627,9.0918 C46.9954,8.86393 47.3997,8.75 47.8398,8.75 C48.1758,8.75 48.4564,8.80664 48.6816,8.91992 C48.9069,9.0332 49.0892,9.17383 49.2285,9.3418 C49.3678,9.50977 49.474,9.67448 49.5469,9.83594 L49.5977,9.83594 L49.5977,6.82813 L51.2578,6.82813 L51.2578,14.8281 L49.6172,14.8281 L49.6172,13.8672 L49.5469,13.8672 C49.4688,14.0339 49.3587,14.1986 49.2168,14.3613 C49.0749,14.5241 48.8913,14.6589 48.666,14.7656 C48.4408,14.8724 48.1667,14.9258 47.8438,14.9258 M48.3711,13.6016 C48.6393,13.6016 48.8665,13.528 49.0527,13.3809 C49.2389,13.2337 49.3822,13.0273 49.4824,12.7617 C49.5827,12.4961 49.6328,12.1849 49.6328,11.8281 C49.6328,11.4714 49.5833,11.1615 49.4844,10.8984 C49.3854,10.6354 49.2422,10.4323 49.0547,10.2891 C48.8672,10.1458 48.6393,10.0742 48.3711,10.0742 C48.0977,10.0742 47.8672,10.1484 47.6797,10.2969 C47.4922,10.4453 47.3503,10.651 47.2539,10.9141 C47.1576,11.1771 47.1094,11.4818 47.1094,11.8281 C47.1094,12.1771 47.1582,12.485 47.2559,12.752 C47.3535,13.0189 47.4954,13.2272 47.6816,13.377 C47.8678,13.5267 48.0977,13.6016 48.3711,13.6016 "/>
</g>

<g fill="#ffffff" fill-opacity="1" stroke="none" transform="matrix(0.03125,0,0,0.03125,288,30)"
font-family="Inter" font-size="11" font-weight="700" font-style="normal" 
>
<path vector-effect="none" fill-rule="nonzero" d="M111.326,191.938 C120.545,201.158 135.517,201.158 144.737,191.938 L239.144,97.5313 C245.929,90.7458 247.921,80.6413 244.233,71.7907 C240.545,62.9401 231.989,57.1871 222.401,57.1871 L33.5875,57.2608 C24.0731,57.2608 15.4437,63.0137 11.7559,71.8644 C8.06815,80.715 10.1333,90.8195 16.845,97.605 L111.252,192.012 L111.326,191.938"/>
</g>

<g fill="none" stroke="#000000" stroke-opacity="1" stroke-width="13.7195" stroke-linecap="butt" stroke-linejoin="miter" stroke-miterlimit="4" transform="matrix(0.03125,0,0,0.03125,288,30)"
font-family="Inter" font-size="11" font-weight="700" font-style="normal" 
>
<path vector-effect="none" fill-rule="nonzero" d="M111.326,191.938 C120.545,201.158 135.517,201.158 144.737,191.938 L239.144,97.5313 C245.929,90.7458 247.921,80.6413 244.233,71.7907 C240.545,62.9401 231.989,57.1871 222.401,57.1871 L33.5875,57.2608 C24.0731,57.2608 15.4437,63.0137 11.7559,71.8644 C8.06815,80.715 10.1333,90.8195 16.845,97.605 L111.252,192.012 L111.326,191.938"/>
</g>

<g fill="#ffffff" fill-opacity="1" stroke="none" transform="matrix(1,0,0,1,228,22)"
font-family="Inter" font-size="11" font-weight="700" font-style="normal" 
>
</g>

<g fill="#ffffff" fill-opacity="1" stroke="#006e51" stroke-opacity="1" stroke-width="1" stroke-linecap="square" stroke-linejoin="bevel" transform="matrix(1,0,0,1,0,0)"
font-family="Inter" font-size="11" font-weight="700" font-style="normal" 
>
</g>

<g fill="#00a97d" fill-opacity="1" stroke="#006e51" stroke-opacity="1" stroke-width="1.2" stroke-linecap="square" stroke-linejoin="bevel" transform="matrix(1,0,0,1,124,22)"
font-family="Inter" font-size="11" font-weight="700" font-style="normal" 
>
<path vector-effect="none" fill-rule="evenodd" d="M0.5,3.5 C0.5,1.84315 1.84315,0.5 3.5,0.5 L41.5,0.5 C43.1569,0.5 44.5,1.84315 44.5,3.5 L44.5,20.5 C44.5,22.1569 43.1569,23.5 41.5,23.5 L3.5,23.5 C1.84315,23.5 0.5,22.1569 0.5,20.5 L0.5,3.5"/>
</g>

<g fill="#ffffff" fill-opacity="1" stroke="none" transform="matrix(1,0,0,1,124,22)"
font-family="Inter" font-size="11" font-weight="700" font-style="normal" 
>
<path vector-effect="none" fill-rule="nonzero" d="M13.8555,11.3203 L13.8555,7.875 L15.5195,7.875 L15.5195,13.875 L13.9219,13.875 L13.9219,12.7852 L13.8594,12.7852 C13.724,13.1367 13.4993,13.4193 13.1855,13.6328 C12.8717,13.8464 12.4896,13.9531 12.0391,13.9531 C11.638,13.9531 11.2852,13.862 10.9805,13.6797 C10.6758,13.4974 10.4382,13.2383 10.2676,12.9023 C10.097,12.5664 10.0104,12.1641 10.0078,11.6953 L10.0078,7.875 L11.6719,7.875 L11.6719,11.3984 C11.6745,11.7526 11.7695,12.0326 11.957,12.2383 C12.1445,12.444 12.3958,12.5469 12.7109,12.5469 C12.9115,12.5469 13.099,12.5007 13.2734,12.4082 C13.4479,12.3158 13.5892,12.1784 13.6973,11.9961 C13.8053,11.8138 13.8581,11.5885 13.8555,11.3203 M16.8359,16.125 L16.8359,7.875 L18.4766,7.875 L18.4766,8.88281 L18.5508,8.88281 C18.6237,8.72135 18.7298,8.55664 18.8691,8.38867 C19.0085,8.2207 19.1908,8.08008 19.416,7.9668 C19.6413,7.85352 19.9219,7.79688 20.2578,7.79688 C20.6953,7.79688 21.099,7.91081 21.4688,8.13867 C21.8385,8.36654 22.1341,8.70898 22.3555,9.16602 C22.5768,9.62305 22.6875,10.1953 22.6875,10.8828 C22.6875,11.5521 22.5801,12.1165 22.3652,12.5762 C22.1504,13.0358 21.8587,13.3835 21.4902,13.6191 C21.1217,13.8548 20.7096,13.9727 20.2539,13.9727 C19.931,13.9727 19.6569,13.9193 19.4316,13.8125 C19.2064,13.7057 19.0221,13.571 18.8789,13.4082 C18.7357,13.2454 18.6263,13.0807 18.5508,12.9141 L18.5,12.9141 L18.5,16.125 L16.8359,16.125 M18.4648,10.875 C18.4648,11.2318 18.5143,11.543 18.6133,11.8086 C18.7122,12.0742 18.8555,12.2806 19.043,12.4277 C19.2305,12.5749 19.4583,12.6484 19.7266,12.6484 C19.9974,12.6484 20.2266,12.5736 20.4141,12.4238 C20.6016,12.2741 20.7441,12.0658 20.8418,11.7988 C20.9395,11.5319 20.9883,11.224 20.9883,10.875 C20.9883,10.5286 20.9401,10.224 20.8438,9.96094 C20.7474,9.69792 20.6055,9.49219 20.418,9.34375 C20.2305,9.19531 20,9.12109 19.7266,9.12109 C19.4557,9.12109 19.2272,9.19271 19.041,9.33594 C18.8548,9.47917 18.7122,9.68229 18.6133,9.94531 C18.5143,10.2083 18.4648,10.5182 18.4648,10.875 "/>
</g>

<g fill="#ffffff" fill-opacity="1" stroke="none" transform="matrix(0.03125,0,0,0.03125,155,30)"
font-family="Inter" font-size="11" font-weight="700" font-style="normal" 
>
<path vector-effect="none" fill-rule="nonzero" d="M111.326,191.938 C120.545,201.158 135.517,201.158 144.737,191.938 L239.144,97.5313 C245.929,90.7458 247.921,80.6413 244.233,71.7907 C240.545,62.9401 231.989,57.1871 222.401,57.1871 L33.5875,57.2608 C24.0731,57.2608 15.4437,63.0137 11.7559,71.8644 C8.06815,80.715 10.1333,90.8195 16.845,97.605 L111.252,192.012 L111.326,191.938"/>
</g>

<g fill="none" stroke="#000000" stroke-opacity="1" stroke-width="13.7195" stroke-linecap="butt" stroke-linejoin="miter" stroke-miterlimit="4" transform="matrix(0.03125,0,0,0.03125,155,30)"
font-family="Inter" font-size="11" font-weight="700" font-style="normal" 
>
<path vector-effect="none" fill-rule="nonzero" d="M111.326,191.938 C120.545,201.158 135.517,201.158 144.737,191.938 L239.144,97.5313 C245.929,90.7458 247.921,80.6413 244.233,71.7907 C240.545,62.9401 231.989,57.1871 222.401,57.1871 L33.5875,57.2608 C24.0731,57.2608 15.4437,63.0137 11.7559,71.8644 C8.06815,80.715 10.1333,90.8195 16.845,97.605 L111.252,192.012 L111.326,191.938"/>
</g>

<g fill="#ffffff" fill-opacity="1" stroke="none" transform="matrix(1,0,0,1,124,22)"
font-family="Inter" font-size="11" font-weight="700" font-style="normal" 
>
</g>

<g fill="#ffffff" fill-opacity="1" stroke="#006e51" stroke-opacity="1" stroke-width="1" stroke-linecap="square" stroke-linejoin="bevel" transform="matrix(1,0,0,1,0,0)"
font-family="Inter" font-size="11" font-weight="700" font-style="normal" 
>
</g>

<g fill="#ffffff" fill-opacity="1" stroke="#006e51" stroke-opacity="1" stroke-width="1" stroke-linecap="square" stroke-linejoin="bevel" transform="matrix(1,0,0,1,0,0)"
font-family="Inter" font-size="11" font-weight="700" font-style="normal" 
>
</g>

<g fill="none" stroke="#000000" stroke-opacity="1" stroke-width="1" stroke-linecap="square" stroke-linejoin="bevel" transform="matrix(1,0,0,1,0,0)"
font-family=".AppleSystemUIFont" font-size="13" font-weight="400" font-style="normal" 
>
</g>
</g>
</svg>
