<?xml version="1.0" encoding="UTF-8" standalone="no"?>
<svg width="109.361mm" height="15.5222mm"
 viewBox="0 0 310 44"
 xmlns="http://www.w3.org/2000/svg" xmlns:xlink="http://www.w3.org/1999/xlink" version="1.2" baseProfile="tiny">
<title>Abstract block</title>
<desc>block_hubs_mouldking_control_set_control_channel</desc>
<defs>
</defs>
<g fill="none" stroke="black" stroke-width="1" fill-rule="evenodd" stroke-linecap="square" stroke-linejoin="bevel" >

<g fill="none" stroke="#000000" stroke-opacity="1" stroke-width="1" stroke-linecap="square" stroke-linejoin="bevel" transform="matrix(1,0,0,1,0,0)"
font-family=".AppleSystemUIFont" font-size="13" font-weight="400" font-style="normal" 
>
</g>

<g fill="none" stroke="#000000" stroke-opacity="1" stroke-width="1" stroke-linecap="square" stroke-linejoin="bevel" transform="matrix(1,0,0,1,0,0)"
font-family=".AppleSystemUIFont" font-size="13" font-weight="400" font-style="normal" 
>
</g>

<g fill="#ffb515" fill-opacity="1" stroke="#d89400" stroke-opacity="1" stroke-width="1.2" stroke-linecap="square" stroke-linejoin="bevel" transform="matrix(1,0,0,1,0,0)"
font-family=".AppleSystemUIFont" font-size="13" font-weight="400" font-style="normal" 
>
<path vector-effect="none" fill-rule="evenodd" d="M0.5,4.5 L1.04612,2.48112 L2.48112,1.04612 L4.5,0.5 L9.625,0.5 L10.416,0.976563 L11.1719,1.6875 L11.998,2.67969 L13,4 L13.7559,4.66016 L14.5469,5.15625 L15.4082,5.51172 L16.375,5.75 L17.4824,5.89453 L18.7656,5.96875 L20.2598,5.99609 L22,6 L23.7402,5.99609 L25.2344,5.96875 L26.5176,5.89453 L27.625,5.75 L28.5918,5.51172 L29.4531,5.15625 L30.2441,4.66016 L31,4 L32.002,2.67969 L32.8281,1.6875 L33.584,0.976563 L34.375,0.5 L305.5,0.5 L307.519,1.04612 L308.954,2.48112 L309.5,4.5 L309.5,31.5 L308.954,33.5189 L307.519,34.9539 L305.5,35.5 L34.375,35.5 L33.584,35.9766 L32.8281,36.6875 L32.002,37.6797 L31,39 L30.2441,39.6602 L29.4531,40.1563 L28.5918,40.5117 L27.625,40.75 L26.5176,40.8945 L25.2344,40.9688 L23.7402,40.9961 L22,41 L20.2598,40.9961 L18.7656,40.9688 L17.4824,40.8945 L16.375,40.75 L15.4082,40.5117 L14.5469,40.1563 L13.7559,39.6602 L13,39 L11.998,37.6797 L11.1719,36.6875 L10.416,35.9766 L9.625,35.5 L4.5,35.5 L2.48112,34.9539 L1.04612,33.5189 L0.5,31.5 L0.5,4.5"/>
</g>

<g fill="#ffffff" fill-opacity="1" stroke="none" transform="matrix(1,0,0,1,0,0)"
font-family="Inter" font-size="11" font-weight="700" font-style="normal" 
>
<path vector-effect="none" fill-rule="nonzero" d="M63.0938,17.1641 L61.5703,17.2578 C61.5443,17.1276 61.4883,17.0098 61.4023,16.9043 C61.3164,16.7988 61.2038,16.7142 61.0645,16.6504 C60.9251,16.5866 60.7591,16.5547 60.5664,16.5547 C60.3086,16.5547 60.0911,16.6087 59.9141,16.7168 C59.737,16.8249 59.6484,16.9688 59.6484,17.1484 C59.6484,17.2917 59.7057,17.4128 59.8203,17.5117 C59.9349,17.6107 60.1315,17.6901 60.4102,17.75 L61.4961,17.9688 C62.0794,18.0885 62.5143,18.2813 62.8008,18.5469 C63.0872,18.8125 63.2305,19.1615 63.2305,19.5938 C63.2305,19.987 63.1152,20.332 62.8848,20.6289 C62.6543,20.9258 62.3392,21.1569 61.9395,21.3223 C61.5397,21.4876 61.0794,21.5703 60.5586,21.5703 C59.7643,21.5703 59.1322,21.4043 58.6621,21.0723 C58.1921,20.7402 57.9167,20.2878 57.8359,19.7148 L59.4727,19.6289 C59.5221,19.8711 59.6419,20.0553 59.832,20.1816 C60.0221,20.3079 60.2656,20.3711 60.5625,20.3711 C60.8542,20.3711 61.0892,20.3145 61.2676,20.2012 C61.446,20.0879 61.5365,19.9414 61.5391,19.7617 C61.5365,19.6107 61.4727,19.4863 61.3477,19.3887 C61.2227,19.291 61.0299,19.2161 60.7695,19.1641 L59.7305,18.957 C59.1445,18.8398 58.709,18.6367 58.4238,18.3477 C58.1387,18.0586 57.9961,17.6901 57.9961,17.2422 C57.9961,16.8568 58.1009,16.5247 58.3105,16.2461 C58.5202,15.9674 58.8158,15.7526 59.1973,15.6016 C59.5788,15.4505 60.026,15.375 60.5391,15.375 C61.2969,15.375 61.8939,15.5352 62.3301,15.8555 C62.7663,16.1758 63.0208,16.612 63.0938,17.1641 M67.0078,21.5703 C66.3906,21.5703 65.86,21.4447 65.416,21.1934 C64.972,20.9421 64.6302,20.5853 64.3906,20.123 C64.151,19.6608 64.0313,19.1133 64.0313,18.4805 C64.0313,17.8633 64.151,17.3216 64.3906,16.8555 C64.6302,16.3893 64.9681,16.026 65.4043,15.7656 C65.8405,15.5052 66.3529,15.375 66.9414,15.375 C67.3372,15.375 67.7064,15.4382 68.0488,15.5645 C68.3913,15.6908 68.6908,15.8802 68.9473,16.1328 C69.2038,16.3854 69.4036,16.7025 69.5469,17.084 C69.6901,17.4655 69.7617,17.9115 69.7617,18.4219 L69.7617,18.8789 L64.6953,18.8789 L64.6953,17.8477 L68.1953,17.8477 C68.1953,17.6081 68.1432,17.3958 68.0391,17.2109 C67.9349,17.026 67.791,16.8809 67.6074,16.7754 C67.4238,16.6699 67.2109,16.6172 66.9688,16.6172 C66.7161,16.6172 66.4928,16.6751 66.2988,16.791 C66.1048,16.9069 65.9531,17.0618 65.8438,17.2559 C65.7344,17.4499 65.6784,17.6654 65.6758,17.9023 L65.6758,18.8828 C65.6758,19.1797 65.7311,19.4362 65.8418,19.6523 C65.9525,19.8685 66.1094,20.0352 66.3125,20.1523 C66.5156,20.2695 66.7565,20.3281 67.0352,20.3281 C67.2201,20.3281 67.3893,20.3021 67.543,20.25 C67.6966,20.1979 67.8281,20.1198 67.9375,20.0156 C68.0469,19.9115 68.1302,19.7839 68.1875,19.6328 L69.7266,19.7344 C69.6484,20.1042 69.4889,20.4264 69.248,20.7012 C69.0072,20.9759 68.6973,21.1895 68.3184,21.3418 C67.9395,21.4941 67.5026,21.5703 67.0078,21.5703 M74.0273,15.4531 L74.0273,16.7031 L70.4141,16.7031 L70.4141,15.4531 L74.0273,15.4531 M71.2344,14.0156 L72.8984,14.0156 L72.8984,19.6094 C72.8984,19.763 72.9219,19.8822 72.9688,19.9668 C73.0156,20.0514 73.0814,20.1107 73.166,20.1445 C73.2507,20.1784 73.349,20.1953 73.4609,20.1953 C73.5391,20.1953 73.6172,20.1882 73.6953,20.1738 C73.7734,20.1595 73.8333,20.1484 73.875,20.1406 L74.1367,21.3789 C74.0534,21.4049 73.9362,21.4355 73.7852,21.4707 C73.6341,21.5059 73.4505,21.5273 73.2344,21.5352 C72.8333,21.5508 72.4824,21.4974 72.1816,21.375 C71.8809,21.2526 71.6471,21.0625 71.4805,20.8047 C71.3138,20.5469 71.2318,20.2214 71.2344,19.8281 L71.2344,14.0156"/>
</g>

<g fill="#ffffff" fill-opacity="1" stroke="none" transform="matrix(1,0,0,1,0,0)"
font-family="Inter" font-size="11" font-weight="700" font-style="normal" 
>
<path vector-effect="none" fill-rule="nonzero" d="M164.703,21.8516 C164.089,21.8516 163.561,21.7207 163.119,21.459 C162.678,21.1973 162.339,20.8333 162.104,20.3672 C161.868,19.901 161.75,19.3646 161.75,18.7578 C161.75,18.1432 161.869,17.6035 162.107,17.1387 C162.346,16.6738 162.685,16.3105 163.125,16.0488 C163.565,15.7871 164.089,15.6563 164.695,15.6563 C165.219,15.6563 165.677,15.7513 166.07,15.9414 C166.464,16.1315 166.775,16.3984 167.004,16.7422 C167.233,17.0859 167.359,17.4896 167.383,17.9531 L165.813,17.9531 C165.768,17.6536 165.652,17.4121 165.463,17.2285 C165.274,17.0449 165.027,16.9531 164.723,16.9531 C164.465,16.9531 164.24,17.0228 164.049,17.1621 C163.857,17.3014 163.708,17.5039 163.602,17.7695 C163.495,18.0352 163.441,18.3568 163.441,18.7344 C163.441,19.1172 163.494,19.4427 163.6,19.7109 C163.705,19.9792 163.854,20.1836 164.047,20.3242 C164.24,20.4648 164.465,20.5352 164.723,20.5352 C164.913,20.5352 165.084,20.4961 165.236,20.418 C165.389,20.3398 165.515,20.2259 165.615,20.0762 C165.715,19.9264 165.781,19.7461 165.813,19.5352 L167.383,19.5352 C167.357,19.9935 167.232,20.3965 167.01,20.7441 C166.787,21.0918 166.48,21.3633 166.09,21.5586 C165.699,21.7539 165.237,21.8516 164.703,21.8516 M171.156,21.8516 C170.549,21.8516 170.025,21.722 169.584,21.4629 C169.143,21.2038 168.802,20.8418 168.563,20.377 C168.323,19.9121 168.203,19.3724 168.203,18.7578 C168.203,18.138 168.323,17.5957 168.563,17.1309 C168.802,16.666 169.143,16.304 169.584,16.0449 C170.025,15.7858 170.549,15.6563 171.156,15.6563 C171.763,15.6563 172.287,15.7858 172.729,16.0449 C173.17,16.304 173.51,16.666 173.75,17.1309 C173.99,17.5957 174.109,18.138 174.109,18.7578 C174.109,19.3724 173.99,19.9121 173.75,20.377 C173.51,20.8418 173.17,21.2038 172.729,21.4629 C172.287,21.722 171.763,21.8516 171.156,21.8516 M171.164,20.5625 C171.44,20.5625 171.671,20.4837 171.855,20.3262 C172.04,20.1686 172.18,19.9531 172.275,19.6797 C172.37,19.4063 172.418,19.0951 172.418,18.7461 C172.418,18.3971 172.37,18.0859 172.275,17.8125 C172.18,17.5391 172.04,17.3229 171.855,17.1641 C171.671,17.0052 171.44,16.9258 171.164,16.9258 C170.885,16.9258 170.652,17.0052 170.463,17.1641 C170.274,17.3229 170.132,17.5391 170.037,17.8125 C169.942,18.0859 169.895,18.3971 169.895,18.7461 C169.895,19.0951 169.942,19.4063 170.037,19.6797 C170.132,19.9531 170.274,20.1686 170.463,20.3262 C170.652,20.4837 170.885,20.5625 171.164,20.5625 M176.859,18.2656 L176.859,21.7344 L175.195,21.7344 L175.195,15.7344 L176.781,15.7344 L176.781,16.793 L176.852,16.793 C176.984,16.444 177.207,16.1673 177.52,15.9629 C177.832,15.7585 178.211,15.6563 178.656,15.6563 C179.073,15.6563 179.436,15.7474 179.746,15.9297 C180.056,16.112 180.297,16.3717 180.469,16.709 C180.641,17.0462 180.727,17.4479 180.727,17.9141 L180.727,21.7344 L179.063,21.7344 L179.063,18.2109 C179.065,17.8438 178.971,17.5566 178.781,17.3496 C178.591,17.1426 178.329,17.0391 177.996,17.0391 C177.772,17.0391 177.575,17.0872 177.404,17.1836 C177.234,17.2799 177.101,17.4199 177.006,17.6035 C176.911,17.7871 176.862,18.0078 176.859,18.2656 M185.215,15.7344 L185.215,16.9844 L181.602,16.9844 L181.602,15.7344 L185.215,15.7344 M182.422,14.2969 L184.086,14.2969 L184.086,19.8906 C184.086,20.0443 184.109,20.1634 184.156,20.248 C184.203,20.3327 184.269,20.3919 184.354,20.4258 C184.438,20.4596 184.536,20.4766 184.648,20.4766 C184.727,20.4766 184.805,20.4694 184.883,20.4551 C184.961,20.4408 185.021,20.4297 185.063,20.4219 L185.324,21.6602 C185.241,21.6862 185.124,21.7168 184.973,21.752 C184.822,21.7871 184.638,21.8086 184.422,21.8164 C184.021,21.832 183.67,21.7786 183.369,21.6563 C183.068,21.5339 182.835,21.3438 182.668,21.0859 C182.501,20.8281 182.419,20.5026 182.422,20.1094 L182.422,14.2969 M186.289,21.7344 L186.289,15.7344 L187.902,15.7344 L187.902,16.7813 L187.965,16.7813 C188.074,16.4089 188.258,16.127 188.516,15.9355 C188.773,15.7441 189.07,15.6484 189.406,15.6484 C189.49,15.6484 189.579,15.6536 189.676,15.6641 C189.772,15.6745 189.857,15.6888 189.93,15.707 L189.93,17.1836 C189.852,17.1602 189.743,17.1393 189.605,17.1211 C189.467,17.1029 189.341,17.0938 189.227,17.0938 C188.982,17.0938 188.764,17.1465 188.572,17.252 C188.381,17.3574 188.23,17.5039 188.119,17.6914 C188.008,17.8789 187.953,18.0951 187.953,18.3398 L187.953,21.7344 L186.289,21.7344 M193.203,21.8516 C192.596,21.8516 192.072,21.722 191.631,21.4629 C191.189,21.2038 190.849,20.8418 190.609,20.377 C190.37,19.9121 190.25,19.3724 190.25,18.7578 C190.25,18.138 190.37,17.5957 190.609,17.1309 C190.849,16.666 191.189,16.304 191.631,16.0449 C192.072,15.7858 192.596,15.6563 193.203,15.6563 C193.81,15.6563 194.334,15.7858 194.775,16.0449 C195.217,16.304 195.557,16.666 195.797,17.1309 C196.036,17.5957 196.156,18.138 196.156,18.7578 C196.156,19.3724 196.036,19.9121 195.797,20.377 C195.557,20.8418 195.217,21.2038 194.775,21.4629 C194.334,21.722 193.81,21.8516 193.203,21.8516 M193.211,20.5625 C193.487,20.5625 193.717,20.4837 193.902,20.3262 C194.087,20.1686 194.227,19.9531 194.322,19.6797 C194.417,19.4063 194.465,19.0951 194.465,18.7461 C194.465,18.3971 194.417,18.0859 194.322,17.8125 C194.227,17.5391 194.087,17.3229 193.902,17.1641 C193.717,17.0052 193.487,16.9258 193.211,16.9258 C192.932,16.9258 192.699,17.0052 192.51,17.1641 C192.321,17.3229 192.179,17.5391 192.084,17.8125 C191.989,18.0859 191.941,18.3971 191.941,18.7461 C191.941,19.0951 191.989,19.4063 192.084,19.6797 C192.179,19.9531 192.321,20.1686 192.51,20.3262 C192.699,20.4837 192.932,20.5625 193.211,20.5625 M198.906,13.7344 L198.906,21.7344 L197.242,21.7344 L197.242,13.7344 L198.906,13.7344 M205.484,21.8516 C204.87,21.8516 204.342,21.7207 203.9,21.459 C203.459,21.1973 203.12,20.8333 202.885,20.3672 C202.649,19.901 202.531,19.3646 202.531,18.7578 C202.531,18.1432 202.65,17.6035 202.889,17.1387 C203.127,16.6738 203.466,16.3105 203.906,16.0488 C204.346,15.7871 204.87,15.6563 205.477,15.6563 C206,15.6563 206.458,15.7513 206.852,15.9414 C207.245,16.1315 207.556,16.3984 207.785,16.7422 C208.014,17.0859 208.141,17.4896 208.164,17.9531 L206.594,17.9531 C206.549,17.6536 206.433,17.4121 206.244,17.2285 C206.055,17.0449 205.809,16.9531 205.504,16.9531 C205.246,16.9531 205.021,17.0228 204.83,17.1621 C204.639,17.3014 204.49,17.5039 204.383,17.7695 C204.276,18.0352 204.223,18.3568 204.223,18.7344 C204.223,19.1172 204.275,19.4427 204.381,19.7109 C204.486,19.9792 204.635,20.1836 204.828,20.3242 C205.021,20.4648 205.246,20.5352 205.504,20.5352 C205.694,20.5352 205.865,20.4961 206.018,20.418 C206.17,20.3398 206.296,20.2259 206.396,20.0762 C206.497,19.9264 206.563,19.7461 206.594,19.5352 L208.164,19.5352 C208.138,19.9935 208.014,20.3965 207.791,20.7441 C207.568,21.0918 207.262,21.3633 206.871,21.5586 C206.48,21.7539 206.018,21.8516 205.484,21.8516 M210.891,18.2656 L210.891,21.7344 L209.227,21.7344 L209.227,13.7344 L210.844,13.7344 L210.844,16.793 L210.914,16.793 C211.049,16.4388 211.268,16.1608 211.57,15.959 C211.872,15.7572 212.251,15.6563 212.707,15.6563 C213.124,15.6563 213.488,15.7467 213.799,15.9277 C214.11,16.1087 214.352,16.3678 214.525,16.7051 C214.699,17.0423 214.784,17.4453 214.781,17.9141 L214.781,21.7344 L213.117,21.7344 L213.117,18.2109 C213.12,17.8411 213.027,17.5534 212.838,17.3477 C212.649,17.1419 212.385,17.0391 212.047,17.0391 C211.82,17.0391 211.62,17.0872 211.447,17.1836 C211.274,17.2799 211.139,17.4199 211.041,17.6035 C210.943,17.7871 210.893,18.0078 210.891,18.2656 M217.797,21.8477 C217.414,21.8477 217.073,21.7806 216.773,21.6465 C216.474,21.5124 216.238,21.3132 216.064,21.0488 C215.891,20.7845 215.805,20.4544 215.805,20.0586 C215.805,19.7253 215.866,19.4453 215.988,19.2188 C216.111,18.9922 216.277,18.8099 216.488,18.6719 C216.699,18.5339 216.939,18.4297 217.209,18.3594 C217.479,18.2891 217.762,18.2396 218.059,18.2109 C218.408,18.1745 218.689,18.14 218.902,18.1074 C219.116,18.0749 219.271,18.026 219.367,17.9609 C219.464,17.8958 219.512,17.7995 219.512,17.6719 L219.512,17.6484 C219.512,17.401 219.434,17.2096 219.279,17.0742 C219.124,16.9388 218.905,16.8711 218.621,16.8711 C218.322,16.8711 218.083,16.9368 217.906,17.0684 C217.729,17.1999 217.612,17.3646 217.555,17.5625 L216.016,17.4375 C216.094,17.0729 216.247,16.7572 216.477,16.4902 C216.706,16.2233 217.002,16.0176 217.365,15.873 C217.729,15.7285 218.15,15.6563 218.629,15.6563 C218.962,15.6563 219.282,15.6953 219.588,15.7734 C219.894,15.8516 220.166,15.9727 220.404,16.1367 C220.643,16.3008 220.831,16.5111 220.969,16.7676 C221.107,17.0241 221.176,17.3307 221.176,17.6875 L221.176,21.7344 L219.598,21.7344 L219.598,20.9023 L219.551,20.9023 C219.454,21.0898 219.326,21.2546 219.164,21.3965 C219.003,21.5384 218.809,21.6491 218.582,21.7285 C218.355,21.8079 218.094,21.8477 217.797,21.8477 M218.273,20.6992 C218.518,20.6992 218.734,20.6504 218.922,20.5527 C219.109,20.4551 219.257,20.3229 219.363,20.1563 C219.47,19.9896 219.523,19.8008 219.523,19.5898 L219.523,18.9531 C219.471,18.987 219.4,19.0176 219.311,19.0449 C219.221,19.0723 219.12,19.097 219.008,19.1191 C218.896,19.1413 218.784,19.1608 218.672,19.1777 C218.56,19.1947 218.458,19.2096 218.367,19.2227 C218.172,19.2513 218.001,19.2969 217.855,19.3594 C217.71,19.4219 217.596,19.5059 217.516,19.6113 C217.435,19.7168 217.395,19.8477 217.395,20.0039 C217.395,20.2305 217.477,20.403 217.643,20.5215 C217.808,20.64 218.018,20.6992 218.273,20.6992 M224.125,18.2656 L224.125,21.7344 L222.461,21.7344 L222.461,15.7344 L224.047,15.7344 L224.047,16.793 L224.117,16.793 C224.25,16.444 224.473,16.1673 224.785,15.9629 C225.098,15.7585 225.477,15.6563 225.922,15.6563 C226.339,15.6563 226.702,15.7474 227.012,15.9297 C227.322,16.112 227.563,16.3717 227.734,16.709 C227.906,17.0462 227.992,17.4479 227.992,17.9141 L227.992,21.7344 L226.328,21.7344 L226.328,18.2109 C226.331,17.8438 226.237,17.5566 226.047,17.3496 C225.857,17.1426 225.595,17.0391 225.262,17.0391 C225.038,17.0391 224.84,17.0872 224.67,17.1836 C224.499,17.2799 224.367,17.4199 224.271,17.6035 C224.176,17.7871 224.128,18.0078 224.125,18.2656 M230.953,18.2656 L230.953,21.7344 L229.289,21.7344 L229.289,15.7344 L230.875,15.7344 L230.875,16.793 L230.945,16.793 C231.078,16.444 231.301,16.1673 231.613,15.9629 C231.926,15.7585 232.305,15.6563 232.75,15.6563 C233.167,15.6563 233.53,15.7474 233.84,15.9297 C234.15,16.112 234.391,16.3717 234.563,16.709 C234.734,17.0462 234.82,17.4479 234.82,17.9141 L234.82,21.7344 L233.156,21.7344 L233.156,18.2109 C233.159,17.8438 233.065,17.5566 232.875,17.3496 C232.685,17.1426 232.423,17.0391 232.09,17.0391 C231.866,17.0391 231.669,17.0872 231.498,17.1836 C231.327,17.2799 231.195,17.4199 231.1,17.6035 C231.005,17.7871 230.956,18.0078 230.953,18.2656 M238.852,21.8516 C238.234,21.8516 237.704,21.7259 237.26,21.4746 C236.816,21.2233 236.474,20.8665 236.234,20.4043 C235.995,19.9421 235.875,19.3945 235.875,18.7617 C235.875,18.1445 235.995,17.6029 236.234,17.1367 C236.474,16.6706 236.812,16.3073 237.248,16.0469 C237.684,15.7865 238.197,15.6563 238.785,15.6563 C239.181,15.6563 239.55,15.7194 239.893,15.8457 C240.235,15.972 240.535,16.1615 240.791,16.4141 C241.048,16.6667 241.247,16.9837 241.391,17.3652 C241.534,17.7467 241.605,18.1927 241.605,18.7031 L241.605,19.1602 L236.539,19.1602 L236.539,18.1289 L240.039,18.1289 C240.039,17.8893 239.987,17.6771 239.883,17.4922 C239.779,17.3073 239.635,17.1621 239.451,17.0566 C239.268,16.9512 239.055,16.8984 238.813,16.8984 C238.56,16.8984 238.337,16.9564 238.143,17.0723 C237.949,17.1882 237.797,17.3431 237.688,17.5371 C237.578,17.7311 237.522,17.9466 237.52,18.1836 L237.52,19.1641 C237.52,19.4609 237.575,19.7174 237.686,19.9336 C237.796,20.1497 237.953,20.3164 238.156,20.4336 C238.359,20.5508 238.6,20.6094 238.879,20.6094 C239.064,20.6094 239.233,20.5833 239.387,20.5313 C239.54,20.4792 239.672,20.401 239.781,20.2969 C239.891,20.1927 239.974,20.0651 240.031,19.9141 L241.57,20.0156 C241.492,20.3854 241.333,20.7077 241.092,20.9824 C240.851,21.2572 240.541,21.4707 240.162,21.623 C239.783,21.7754 239.346,21.8516 238.852,21.8516 M244.344,13.7344 L244.344,21.7344 L242.68,21.7344 L242.68,13.7344 L244.344,13.7344 M251.402,15.7344 L251.402,16.9844 L247.789,16.9844 L247.789,15.7344 L251.402,15.7344 M248.609,14.2969 L250.273,14.2969 L250.273,19.8906 C250.273,20.0443 250.297,20.1634 250.344,20.248 C250.391,20.3327 250.456,20.3919 250.541,20.4258 C250.626,20.4596 250.724,20.4766 250.836,20.4766 C250.914,20.4766 250.992,20.4694 251.07,20.4551 C251.148,20.4408 251.208,20.4297 251.25,20.4219 L251.512,21.6602 C251.428,21.6862 251.311,21.7168 251.16,21.752 C251.009,21.7871 250.826,21.8086 250.609,21.8164 C250.208,21.832 249.857,21.7786 249.557,21.6563 C249.256,21.5339 249.022,21.3438 248.855,21.0859 C248.689,20.8281 248.607,20.5026 248.609,20.1094 L248.609,14.2969 M255.125,21.8516 C254.518,21.8516 253.994,21.722 253.553,21.4629 C253.111,21.2038 252.771,20.8418 252.531,20.377 C252.292,19.9121 252.172,19.3724 252.172,18.7578 C252.172,18.138 252.292,17.5957 252.531,17.1309 C252.771,16.666 253.111,16.304 253.553,16.0449 C253.994,15.7858 254.518,15.6563 255.125,15.6563 C255.732,15.6563 256.256,15.7858 256.697,16.0449 C257.139,16.304 257.479,16.666 257.719,17.1309 C257.958,17.5957 258.078,18.138 258.078,18.7578 C258.078,19.3724 257.958,19.9121 257.719,20.377 C257.479,20.8418 257.139,21.2038 256.697,21.4629 C256.256,21.722 255.732,21.8516 255.125,21.8516 M255.133,20.5625 C255.409,20.5625 255.639,20.4837 255.824,20.3262 C256.009,20.1686 256.149,19.9531 256.244,19.6797 C256.339,19.4063 256.387,19.0951 256.387,18.7461 C256.387,18.3971 256.339,18.0859 256.244,17.8125 C256.149,17.5391 256.009,17.3229 255.824,17.1641 C255.639,17.0052 255.409,16.9258 255.133,16.9258 C254.854,16.9258 254.62,17.0052 254.432,17.1641 C254.243,17.3229 254.101,17.5391 254.006,17.8125 C253.911,18.0859 253.863,18.3971 253.863,18.7461 C253.863,19.0951 253.911,19.4063 254.006,19.6797 C254.101,19.9531 254.243,20.1686 254.432,20.3262 C254.62,20.4837 254.854,20.5625 255.133,20.5625 "/>
</g>

<g fill="#ffffff" fill-opacity="1" stroke="none" transform="matrix(0.228,0,0,0.228,11.6,9.6)"
font-family="Inter" font-size="11" font-weight="700" font-style="normal" 
>
<path vector-effect="none" fill-rule="nonzero" d="M30.3865,12.7593 C30.0195,12.7593 29.7239,13.029 29.7239,13.364 L29.7239,86.636 C29.7239,86.9711 30.0195,87.2407 30.3865,87.2407 L69.6135,87.2407 C69.9805,87.2407 70.2761,86.9711 70.2761,86.636 L70.2761,13.364 C70.2761,13.029 69.9805,12.7593 69.6135,12.7593 L30.3865,12.7593 M47.2944,42.7444 L52.7056,42.7444 C53.7308,42.7444 54.5562,43.5697 54.5562,44.595 L54.5562,50.0061 C54.5562,51.0314 53.7308,51.8567 52.7056,51.8567 L47.2944,51.8567 C46.2692,51.8567 45.4438,51.0314 45.4438,50.0061 L45.4438,44.595 C45.4438,43.5697 46.2692,42.7444 47.2944,42.7444 M49.8813,53.1538 C49.8813,53.1164 52.4733,53.164 52.7588,53.1865 C53.3299,53.2315 54.6939,56.1908 53.8372,56.218 C52.9804,56.2453 46.6698,56.1878 45.9092,56.2358 C45.1486,56.2839 46.4671,53.2287 47.0186,53.1865 C47.2943,53.1654 49.8813,53.1515 49.8813,53.1538 L49.8813,53.1538"/>
</g>

<g fill="none" stroke="#000000" stroke-opacity="1" stroke-width="1.5" stroke-linecap="round" stroke-linejoin="round" transform="matrix(0.228,0,0,0.228,11.6,9.6)"
font-family="Inter" font-size="11" font-weight="700" font-style="normal" 
>
<path vector-effect="none" fill-rule="nonzero" d="M30.3865,12.7593 C30.0195,12.7593 29.7239,13.029 29.7239,13.364 L29.7239,86.636 C29.7239,86.9711 30.0195,87.2407 30.3865,87.2407 L69.6135,87.2407 C69.9805,87.2407 70.2761,86.9711 70.2761,86.636 L70.2761,13.364 C70.2761,13.029 69.9805,12.7593 69.6135,12.7593 L30.3865,12.7593 M47.2944,42.7444 L52.7056,42.7444 C53.7308,42.7444 54.5562,43.5697 54.5562,44.595 L54.5562,50.0061 C54.5562,51.0314 53.7308,51.8567 52.7056,51.8567 L47.2944,51.8567 C46.2692,51.8567 45.4438,51.0314 45.4438,50.0061 L45.4438,44.595 C45.4438,43.5697 46.2692,42.7444 47.2944,42.7444 M49.8813,53.1538 C49.8813,53.1164 52.4733,53.164 52.7588,53.1865 C53.3299,53.2315 54.6939,56.1908 53.8372,56.218 C52.9804,56.2453 46.6698,56.1878 45.9092,56.2358 C45.1486,56.2839 46.4671,53.2287 47.0186,53.1865 C47.2943,53.1654 49.8813,53.1515 49.8813,53.1538 L49.8813,53.1538"/>
</g>

<g fill="#ffffff" fill-opacity="1" stroke="none" transform="matrix(0.228,0,0,0.228,11.6,9.6)"
font-family="Inter" font-size="11" font-weight="700" font-style="normal" 
>
<path vector-effect="none" fill-rule="nonzero" d="M64.7451,62.3077 C63.7738,62.3078 62.9864,63.0954 62.9866,64.0668 C62.9868,65.0379 63.7742,65.8251 64.7454,65.8251 C65.7167,65.8251 66.5041,65.0378 66.5042,64.0665 L66.5042,64.0658 C66.5038,63.0946 65.7163,62.3075 64.7451,62.3077 M55.2017,62.4669 C54.2304,62.467 53.4431,63.2544 53.4431,64.2257 C53.4433,65.1969 54.2307,65.9841 55.2019,65.984 C56.1732,65.9841 56.9606,65.1967 56.9607,64.2254 L56.9607,64.225 C56.9604,63.2538 56.1729,62.4667 55.2017,62.4669 M45.1809,62.6258 C44.2096,62.626 43.4224,63.4136 43.4226,64.3849 C43.4228,65.3561 44.2102,66.1432 45.1814,66.1432 C46.1526,66.1431 46.9399,65.3558 46.94,64.3846 L46.94,64.3839 C46.9396,63.4127 46.1521,62.6256 45.1809,62.6258 M36.0964,62.6932 C35.1253,62.6934 34.3381,63.4808 34.3381,64.452 C34.3382,65.4233 35.1257,66.2106 36.0969,66.2106 C37.0681,66.2105 37.8554,65.4232 37.8555,64.452 L37.8555,64.4513 C37.8551,63.4801 37.0676,62.693 36.0964,62.6932 L36.0964,62.6932"/>
</g>

<g fill="none" stroke="#000000" stroke-opacity="1" stroke-width="1.84624" stroke-linecap="round" stroke-linejoin="round" transform="matrix(0.228,0,0,0.228,11.6,9.6)"
font-family="Inter" font-size="11" font-weight="700" font-style="normal" 
>
<path vector-effect="none" fill-rule="nonzero" d="M64.7451,62.3077 C63.7738,62.3078 62.9864,63.0954 62.9866,64.0668 C62.9868,65.0379 63.7742,65.8251 64.7454,65.8251 C65.7167,65.8251 66.5041,65.0378 66.5042,64.0665 L66.5042,64.0658 C66.5038,63.0946 65.7163,62.3075 64.7451,62.3077 M55.2017,62.4669 C54.2304,62.467 53.4431,63.2544 53.4431,64.2257 C53.4433,65.1969 54.2307,65.9841 55.2019,65.984 C56.1732,65.9841 56.9606,65.1967 56.9607,64.2254 L56.9607,64.225 C56.9604,63.2538 56.1729,62.4667 55.2017,62.4669 M45.1809,62.6258 C44.2096,62.626 43.4224,63.4136 43.4226,64.3849 C43.4228,65.3561 44.2102,66.1432 45.1814,66.1432 C46.1526,66.1431 46.9399,65.3558 46.94,64.3846 L46.94,64.3839 C46.9396,63.4127 46.1521,62.6256 45.1809,62.6258 M36.0964,62.6932 C35.1253,62.6934 34.3381,63.4808 34.3381,64.452 C34.3382,65.4233 35.1257,66.2106 36.0969,66.2106 C37.0681,66.2105 37.8554,65.4232 37.8555,64.452 L37.8555,64.4513 C37.8551,63.4801 37.0676,62.693 36.0964,62.6932 L36.0964,62.6932"/>
</g>

<g fill="#ffffff" fill-opacity="1" stroke="none" transform="matrix(0.228,0,0,0.228,11.6,9.6)"
font-family="Inter" font-size="11" font-weight="700" font-style="normal" 
>
<path vector-effect="none" fill-rule="nonzero" d="M64.418,33.552 C63.4466,33.5521 62.6592,34.3397 62.6594,35.311 C62.6596,36.2822 63.447,37.0694 64.4182,37.0693 C65.3895,37.0694 66.1769,36.2821 66.177,35.3108 L66.177,35.3101 C66.1767,34.3389 65.3892,33.5518 64.418,33.552 M54.8745,33.7112 C53.9032,33.7113 53.1159,34.4987 53.116,35.47 C53.1162,36.4412 53.9036,37.2283 54.8748,37.2283 C55.846,37.2283 56.6335,36.441 56.6335,35.4697 L56.6335,35.4692 C56.6332,34.4981 55.8457,33.711 54.8745,33.7112 M44.8538,33.8701 C43.8825,33.8703 43.0953,34.6579 43.0955,35.6291 C43.0957,36.6003 43.8831,37.3875 44.8542,37.3875 C45.8254,37.3874 46.6127,36.6001 46.6128,35.6289 L46.6128,35.6282 C46.6125,34.657 45.8249,33.8699 44.8538,33.8701 M35.7693,33.9375 C34.7981,33.9377 34.0109,34.7251 34.011,35.6963 C34.0111,36.6676 34.7985,37.4549 35.7698,37.4548 C36.741,37.4548 37.5282,36.6675 37.5283,35.6963 L37.5283,35.6956 C37.528,34.7244 36.7405,33.9373 35.7693,33.9375 "/>
</g>

<g fill="none" stroke="#000000" stroke-opacity="1" stroke-width="1.84624" stroke-linecap="round" stroke-linejoin="round" transform="matrix(0.228,0,0,0.228,11.6,9.6)"
font-family="Inter" font-size="11" font-weight="700" font-style="normal" 
>
<path vector-effect="none" fill-rule="nonzero" d="M64.418,33.552 C63.4466,33.5521 62.6592,34.3397 62.6594,35.311 C62.6596,36.2822 63.447,37.0694 64.4182,37.0693 C65.3895,37.0694 66.1769,36.2821 66.177,35.3108 L66.177,35.3101 C66.1767,34.3389 65.3892,33.5518 64.418,33.552 M54.8745,33.7112 C53.9032,33.7113 53.1159,34.4987 53.116,35.47 C53.1162,36.4412 53.9036,37.2283 54.8748,37.2283 C55.846,37.2283 56.6335,36.441 56.6335,35.4697 L56.6335,35.4692 C56.6332,34.4981 55.8457,33.711 54.8745,33.7112 M44.8538,33.8701 C43.8825,33.8703 43.0953,34.6579 43.0955,35.6291 C43.0957,36.6003 43.8831,37.3875 44.8542,37.3875 C45.8254,37.3874 46.6127,36.6001 46.6128,35.6289 L46.6128,35.6282 C46.6125,34.657 45.8249,33.8699 44.8538,33.8701 M35.7693,33.9375 C34.7981,33.9377 34.0109,34.7251 34.011,35.6963 C34.0111,36.6676 34.7985,37.4549 35.7698,37.4548 C36.741,37.4548 37.5282,36.6675 37.5283,35.6963 L37.5283,35.6956 C37.528,34.7244 36.7405,33.9373 35.7693,33.9375 "/>
</g>

<g fill="#ffffff" fill-opacity="1" stroke="none" transform="matrix(0.228,0,0,0.228,11.6,9.6)"
font-family="Inter" font-size="11" font-weight="700" font-style="normal" 
>
<path vector-effect="none" fill-rule="nonzero" d="M37.7392,54.7245 C37.7391,53.7532 36.9517,52.9659 35.9804,52.966 C35.0092,52.9662 34.222,53.7536 34.2221,54.7247 C34.222,55.696 35.0094,56.4835 35.9806,56.4835 L35.9811,56.4835 C36.9523,56.4832 37.7394,55.6957 37.7392,54.7245 M37.5802,44.7037 C37.58,43.7325 36.7925,42.9453 35.8212,42.9454 C34.85,42.9457 34.0628,43.733 34.0629,44.7042 C34.063,45.6754 34.8503,46.4627 35.8215,46.4628 L35.8222,46.4628 C36.7934,46.4624 37.5804,45.6749 37.5802,44.7037 "/>
</g>

<g fill="none" stroke="#000000" stroke-opacity="1" stroke-width="1.84624" stroke-linecap="round" stroke-linejoin="round" transform="matrix(0.228,0,0,0.228,11.6,9.6)"
font-family="Inter" font-size="11" font-weight="700" font-style="normal" 
>
<path vector-effect="none" fill-rule="nonzero" d="M37.7392,54.7245 C37.7391,53.7532 36.9517,52.9659 35.9804,52.966 C35.0092,52.9662 34.222,53.7536 34.2221,54.7247 C34.222,55.696 35.0094,56.4835 35.9806,56.4835 L35.9811,56.4835 C36.9523,56.4832 37.7394,55.6957 37.7392,54.7245 M37.5802,44.7037 C37.58,43.7325 36.7925,42.9453 35.8212,42.9454 C34.85,42.9457 34.0628,43.733 34.0629,44.7042 C34.063,45.6754 34.8503,46.4627 35.8215,46.4628 L35.8222,46.4628 C36.7934,46.4624 37.5804,45.6749 37.5802,44.7037 "/>
</g>

<g fill="#ffffff" fill-opacity="1" stroke="none" transform="matrix(0.228,0,0,0.228,11.6,9.6)"
font-family="Inter" font-size="11" font-weight="700" font-style="normal" 
>
<path vector-effect="none" fill-rule="nonzero" d="M66.3695,54.4064 C66.3694,53.4351 65.582,52.6478 64.6107,52.6478 C63.6395,52.648 62.8523,53.4354 62.8524,54.4066 C62.8523,55.3779 63.6397,56.1653 64.6109,56.1654 L64.6114,56.1654 C65.5826,56.1651 66.3697,55.3776 66.3695,54.4064 M66.2106,44.3856 C66.2103,43.4144 65.4228,42.6271 64.4515,42.6273 C63.4803,42.6275 62.6932,43.4149 62.6932,44.3861 C62.6933,45.3573 63.4806,46.1446 64.4518,46.1447 L64.4525,46.1447 C65.4237,46.1443 66.2107,45.3568 66.2106,44.3856 "/>
</g>

<g fill="none" stroke="#000000" stroke-opacity="1" stroke-width="1.84624" stroke-linecap="round" stroke-linejoin="round" transform="matrix(0.228,0,0,0.228,11.6,9.6)"
font-family="Inter" font-size="11" font-weight="700" font-style="normal" 
>
<path vector-effect="none" fill-rule="nonzero" d="M66.3695,54.4064 C66.3694,53.4351 65.582,52.6478 64.6107,52.6478 C63.6395,52.648 62.8523,53.4354 62.8524,54.4066 C62.8523,55.3779 63.6397,56.1653 64.6109,56.1654 L64.6114,56.1654 C65.5826,56.1651 66.3697,55.3776 66.3695,54.4064 M66.2106,44.3856 C66.2103,43.4144 65.4228,42.6271 64.4515,42.6273 C63.4803,42.6275 62.6932,43.4149 62.6932,44.3861 C62.6933,45.3573 63.4806,46.1446 64.4518,46.1447 L64.4525,46.1447 C65.4237,46.1443 66.2107,45.3568 66.2106,44.3856 "/>
</g>

<g fill="none" stroke="#000000" stroke-opacity="1" stroke-width="1.47647" stroke-linecap="round" stroke-linejoin="round" transform="matrix(0.228,0,0,0.228,11.6,9.6)"
font-family="Inter" font-size="11" font-weight="700" font-style="normal" 
>
<path vector-effect="none" fill-rule="nonzero" d="M30.3826,12.341 C30.0156,12.341 29.7201,12.6138 29.7201,12.9526 L29.7201,87.0474 C29.7201,87.3862 30.0156,87.659 30.3826,87.659 L69.6174,87.659 C69.9844,87.659 70.2799,87.3862 70.2799,87.0474 L70.2799,12.9526 C70.2799,12.6138 69.9844,12.341 69.6174,12.341 L30.3826,12.341"/>
</g>

<g fill="#000000" fill-opacity="1" stroke="none" transform="matrix(0.228,0,0,0.228,11.6,9.6)"
font-family="Inter" font-size="11" font-weight="700" font-style="normal" 
>
<path vector-effect="none" fill-rule="evenodd" d="M56.8589,23.4697 C56.6429,23.4751 56.4705,23.651 56.4705,23.8684 L56.4705,24.6233 L55.7241,24.6233 C54.6425,24.6233 53.7502,25.5182 53.7502,26.5999 L53.7502,27.7571 C53.7481,27.7746 53.747,27.7922 53.747,27.8103 L53.747,28.1982 C53.747,28.4417 53.9428,28.6379 54.1863,28.6379 L54.7497,28.6379 C54.9932,28.6379 55.1892,28.4417 55.1892,28.1982 L55.1892,28.1892 L55.1929,28.1892 C55.1914,28.1803 55.1903,28.1712 55.1892,28.1621 L55.1892,27.8106 C55.1892,27.7901 55.1875,27.7698 55.1848,27.75 L55.1848,26.5999 C55.1848,26.2878 55.412,26.0581 55.7241,26.0581 L64.1716,26.0581 C64.4837,26.0581 64.7107,26.2878 64.7107,26.5999 L64.7107,27.6865 C64.7064,27.7113 64.7044,27.737 64.7044,27.763 L64.7044,28.1509 C64.7044,28.1585 64.7047,28.1659 64.7051,28.1734 L64.7051,28.1736 C64.7044,28.1788 64.7037,28.1841 64.7029,28.1892 L64.7058,28.1892 C64.7252,28.4145 64.9131,28.5904 65.1435,28.5904 L65.707,28.5904 C65.9505,28.5904 66.1465,28.3944 66.1465,28.1509 L66.1465,27.763 C66.1465,27.7534 66.1461,27.7438 66.1455,27.7344 L66.1455,26.5999 C66.1455,25.5182 65.2533,24.6233 64.1716,24.6233 L63.4253,24.6233 L63.4253,23.8684 C63.4253,23.6476 63.2477,23.47 63.0268,23.47 L62.3335,23.47 C62.1127,23.47 61.9348,23.6476 61.9348,23.8684 L61.9348,24.6233 L57.9607,24.6233 L57.9607,23.8684 C57.9607,23.6476 57.7828,23.47 57.562,23.47 L56.8691,23.47 C56.8656,23.47 56.8621,23.4699 56.8586,23.47 L56.8589,23.4697 M36.636,23.5444 C36.4201,23.5499 36.2478,23.7258 36.2478,23.9431 L36.2478,24.698 L35.5015,24.698 C34.4198,24.698 33.5276,25.5927 33.5276,26.6743 L33.5276,27.8315 C33.5255,27.849 33.5244,27.8669 33.5244,27.885 L33.5244,28.273 C33.5244,28.5164 33.7201,28.7124 33.9636,28.7124 L34.5271,28.7124 C34.7706,28.7124 34.9666,28.5164 34.9666,28.273 L34.9666,28.264 L34.9703,28.264 C34.9688,28.2551 34.9677,28.246 34.9666,28.2369 L34.9666,27.885 C34.9666,27.8645 34.9649,27.8445 34.9622,27.8247 L34.9622,26.6746 C34.9622,26.3625 35.1894,26.1328 35.5015,26.1328 L43.949,26.1328 C44.261,26.1328 44.488,26.3625 44.488,26.6746 L44.488,27.7612 C44.4837,27.786 44.4817,27.8114 44.4817,27.8374 L44.4817,28.2253 C44.4817,28.2329 44.4821,28.2405 44.4825,28.248 L44.4825,28.2483 C44.4818,28.2535 44.4811,28.2588 44.4803,28.2639 L44.4832,28.2639 C44.5026,28.4892 44.6904,28.665 44.9209,28.665 L45.4844,28.665 C45.7278,28.665 45.9238,28.4688 45.9238,28.2253 L45.9238,27.8374 C45.9238,27.8278 45.9235,27.8185 45.9229,27.8091 L45.9229,26.6746 C45.9229,25.5929 45.0306,24.698 43.949,24.698 L43.2026,24.698 L43.2026,23.9431 C43.2026,23.7223 43.025,23.5444 42.8042,23.5444 L42.1108,23.5444 C41.89,23.5444 41.7124,23.7223 41.7124,23.9431 L41.7124,24.698 L37.738,24.698 L37.738,23.9431 C37.738,23.7223 37.5602,23.5444 37.3394,23.5444 L36.6465,23.5444 C36.6431,23.5444 36.6396,23.5444 36.6362,23.5444 L36.636,23.5444 M55.8215,29.2356 C55.6007,29.2356 55.4229,29.4135 55.4229,29.6343 L55.4229,30.291 C55.4229,30.5118 55.6007,30.6897 55.8215,30.6897 L64.125,30.6897 C64.3458,30.6897 64.5232,30.5118 64.5232,30.291 L64.5232,29.6343 C64.5232,29.4135 64.3458,29.2356 64.125,29.2356 L55.8215,29.2356 M35.5989,29.3103 C35.3781,29.3103 35.2002,29.4882 35.2002,29.709 L35.2002,30.3657 C35.2002,30.5866 35.3781,30.7642 35.5989,30.7642 L43.9023,30.7642 C44.1232,30.7642 44.3005,30.5866 44.3005,30.3657 L44.3005,29.709 C44.3005,29.4882 44.1232,29.3103 43.9023,29.3103 L35.5989,29.3103"/>
</g>

<g fill="#000000" fill-opacity="1" stroke="none" transform="matrix(0.228,0,0,0.228,11.6,9.6)"
font-family="Inter" font-size="11" font-weight="700" font-style="normal" 
>
<path vector-effect="none" fill-rule="evenodd" d="M57.0728,75.9663 C56.8568,75.9609 56.6844,75.785 56.6844,75.5676 L56.6844,74.8128 L55.9381,74.8128 C54.8564,74.8128 53.9642,73.9178 53.9642,72.8362 L53.9642,71.679 C53.9621,71.6615 53.961,71.6438 53.961,71.6258 L53.961,71.2378 C53.961,70.9944 54.1567,70.7981 54.4002,70.7981 L54.9637,70.7981 C55.2071,70.7981 55.4031,70.9944 55.4031,71.2378 L55.4031,71.2468 L55.4068,71.2468 C55.4053,71.2557 55.4042,71.2648 55.4031,71.2739 L55.4031,71.6255 C55.4031,71.646 55.4014,71.6663 55.3987,71.686 L55.3987,72.8362 C55.3987,73.1483 55.6259,73.3779 55.938,73.3779 L64.3855,73.3779 C64.6976,73.3779 64.9246,73.1483 64.9246,72.8362 L64.9246,71.7495 C64.9203,71.7248 64.9183,71.6991 64.9183,71.6731 L64.9183,71.2851 C64.9183,71.2775 64.9186,71.2702 64.919,71.2627 L64.919,71.2624 C64.9183,71.2572 64.9176,71.2519 64.9168,71.2468 L64.9197,71.2468 C64.9391,71.0215 65.127,70.8457 65.3575,70.8457 L65.9209,70.8457 C66.1644,70.8457 66.3604,71.0417 66.3604,71.2851 L66.3604,71.6731 C66.3604,71.6827 66.36,71.6922 66.3594,71.7016 L66.3594,72.8362 C66.3594,73.9178 65.4672,74.8127 64.3855,74.8127 L63.6392,74.8127 L63.6392,75.5676 C63.6392,75.7884 63.4616,75.966 63.2408,75.966 L62.5474,75.966 C62.3266,75.966 62.1487,75.7884 62.1487,75.5676 L62.1487,74.8127 L58.1746,74.8127 L58.1746,75.5676 C58.1746,75.7884 57.9968,75.966 57.7759,75.966 L57.0831,75.966 C57.0796,75.966 57.0761,75.9661 57.0726,75.966 L57.0728,75.9663 M36.8499,75.8916 C36.634,75.8861 36.4617,75.7102 36.4617,75.4929 L36.4617,74.7381 L35.7154,74.7381 C34.6338,74.7381 33.7415,73.8434 33.7415,72.7617 L33.7415,71.6045 C33.7394,71.587 33.7383,71.5691 33.7383,71.551 L33.7383,71.1631 C33.7383,70.9196 33.9341,70.7236 34.1775,70.7236 L34.741,70.7236 C34.9845,70.7236 35.1805,70.9196 35.1805,71.1631 L35.1805,71.1721 L35.1842,71.1721 C35.1827,71.181 35.1816,71.1901 35.1805,71.1992 L35.1805,71.551 C35.1805,71.5715 35.1788,71.5916 35.1761,71.6113 L35.1761,72.7615 C35.1761,73.0736 35.4033,73.3032 35.7154,73.3032 L44.1629,73.3032 C44.475,73.3032 44.702,73.0736 44.702,72.7615 L44.702,71.6748 C44.6977,71.6501 44.6957,71.6246 44.6957,71.5986 L44.6957,71.2107 C44.6957,71.2031 44.696,71.1955 44.6964,71.188 L44.6964,71.1878 C44.6957,71.1826 44.695,71.1773 44.6942,71.1721 L44.6971,71.1721 C44.7165,70.9469 44.9044,70.771 45.1348,70.771 L45.6983,70.771 C45.9418,70.771 46.1378,70.9673 46.1378,71.2107 L46.1378,71.5987 C46.1378,71.6083 46.1374,71.6176 46.1368,71.627 L46.1368,72.7615 C46.1368,73.8431 45.2446,74.7381 44.1629,74.7381 L43.4166,74.7381 L43.4166,75.4929 C43.4166,75.7138 43.239,75.8916 43.0181,75.8916 L42.3248,75.8916 C42.1039,75.8916 41.9263,75.7138 41.9263,75.4929 L41.9263,74.7381 L37.952,74.7381 L37.952,75.4929 C37.952,75.7138 37.7741,75.8916 37.5533,75.8916 L36.8604,75.8916 C36.857,75.8916 36.8535,75.8917 36.8502,75.8916 L36.8499,75.8916 M56.0355,70.2005 C55.8146,70.2005 55.6368,70.0226 55.6368,69.8018 L55.6368,69.145 C55.6368,68.9242 55.8146,68.7464 56.0355,68.7464 L64.3389,68.7464 C64.5598,68.7464 64.7371,68.9242 64.7371,69.145 L64.7371,69.8018 C64.7371,70.0226 64.5598,70.2005 64.3389,70.2005 L56.0355,70.2005 M35.8128,70.1257 C35.592,70.1257 35.4141,69.9479 35.4141,69.7271 L35.4141,69.0703 C35.4141,68.8495 35.592,68.6719 35.8128,68.6719 L44.1163,68.6719 C44.3371,68.6719 44.5145,68.8495 44.5145,69.0703 L44.5145,69.7271 C44.5145,69.9479 44.3371,70.1257 44.1163,70.1257 L35.8128,70.1257"/>
</g>

<g fill="#000000" fill-opacity="1" stroke="none" transform="matrix(0.228,0,0,0.228,11.6,9.6)"
font-family="Inter" font-size="11" font-weight="700" font-style="normal" 
>
<path vector-effect="none" fill-rule="evenodd" d="M48.1936,40.424 C48.1936,40.0047 48.5335,39.6648 48.9528,39.6648 L50.8648,39.6648 C51.2841,39.6648 51.6239,40.0047 51.6239,40.424 C51.6239,40.8432 51.2841,41.1831 50.8648,41.1831 L48.9528,41.1831 C48.5335,41.1831 48.1936,40.8432 48.1936,40.424 "/>
</g>

<g fill="#000000" fill-opacity="1" stroke="none" transform="matrix(0.228,0,0,0.228,11.6,9.6)"
font-family="Inter" font-size="11" font-weight="700" font-style="normal" 
>
<path vector-effect="none" fill-rule="evenodd" d="M48.2683,58.5394 C48.2683,58.1202 48.6082,57.7803 49.0275,57.7803 L50.9395,57.7803 C51.3588,57.7803 51.6987,58.1202 51.6987,58.5394 C51.6987,58.9587 51.3588,59.2986 50.9395,59.2986 L49.0275,59.2986 C48.6082,59.2986 48.2683,58.9587 48.2683,58.5394 "/>
</g>

<g fill="#ffffff" fill-opacity="1" stroke="none" transform="matrix(1,0,0,1,0,0)"
font-family="Inter" font-size="11" font-weight="700" font-style="normal" 
>
</g>

<g fill="#ffffff" fill-opacity="1" stroke="#d89400" stroke-opacity="1" stroke-width="1" stroke-linecap="square" stroke-linejoin="bevel" transform="matrix(1,0,0,1,0,0)"
font-family="Inter" font-size="11" font-weight="700" font-style="normal" 
>
<polyline fill="none" vector-effect="none" points="45,11 45,31 " />
</g>

<g fill="#ffffff" fill-opacity="1" stroke="#d89400" stroke-opacity="1" stroke-width="1" stroke-linecap="square" stroke-linejoin="bevel" transform="matrix(1,0,0,1,0,0)"
font-family="Inter" font-size="11" font-weight="700" font-style="normal" 
>
</g>

<g fill="#ffb515" fill-opacity="1" stroke="#d89400" stroke-opacity="1" stroke-width="1.2" stroke-linecap="square" stroke-linejoin="bevel" transform="matrix(1,0,0,1,264,6)"
font-family="Inter" font-size="11" font-weight="700" font-style="normal" 
>
<path vector-effect="none" fill-rule="evenodd" d="M0.5,3.5 C0.5,1.84315 1.84315,0.5 3.5,0.5 L36.5,0.5 C38.1569,0.5 39.5,1.84315 39.5,3.5 L39.5,20.5 C39.5,22.1569 38.1569,23.5 36.5,23.5 L3.5,23.5 C1.84315,23.5 0.5,22.1569 0.5,20.5 L0.5,3.5"/>
</g>

<g fill="#ffffff" fill-opacity="1" stroke="none" transform="matrix(1,0,0,1,264,6)"
font-family="Inter" font-size="11" font-weight="700" font-style="normal" 
>
<path vector-effect="none" fill-rule="nonzero" d="M11.8242,16 L10.0117,16 L12.7734,8 L14.9531,8 L17.7109,16 L15.8984,16 L13.8945,9.82813 L13.832,9.82813 L11.8242,16 M11.7109,12.8555 L15.9922,12.8555 L15.9922,14.1758 L11.7109,14.1758 L11.7109,12.8555"/>
</g>

<g fill="#ffffff" fill-opacity="1" stroke="none" transform="matrix(0.03125,0,0,0.03125,290,14)"
font-family="Inter" font-size="11" font-weight="700" font-style="normal" 
>
<path vector-effect="none" fill-rule="nonzero" d="M111.326,191.938 C120.545,201.158 135.517,201.158 144.737,191.938 L239.144,97.5313 C245.929,90.7458 247.921,80.6413 244.233,71.7907 C240.545,62.9401 231.989,57.1871 222.401,57.1871 L33.5875,57.2608 C24.0731,57.2608 15.4437,63.0137 11.7559,71.8644 C8.06815,80.715 10.1333,90.8195 16.845,97.605 L111.252,192.012 L111.326,191.938"/>
</g>

<g fill="none" stroke="#000000" stroke-opacity="1" stroke-width="13.7195" stroke-linecap="butt" stroke-linejoin="miter" stroke-miterlimit="4" transform="matrix(0.03125,0,0,0.03125,290,14)"
font-family="Inter" font-size="11" font-weight="700" font-style="normal" 
>
<path vector-effect="none" fill-rule="nonzero" d="M111.326,191.938 C120.545,201.158 135.517,201.158 144.737,191.938 L239.144,97.5313 C245.929,90.7458 247.921,80.6413 244.233,71.7907 C240.545,62.9401 231.989,57.1871 222.401,57.1871 L33.5875,57.2608 C24.0731,57.2608 15.4437,63.0137 11.7559,71.8644 C8.06815,80.715 10.1333,90.8195 16.845,97.605 L111.252,192.012 L111.326,191.938"/>
</g>

<g fill="#ffffff" fill-opacity="1" stroke="none" transform="matrix(1,0,0,1,264,6)"
font-family="Inter" font-size="11" font-weight="700" font-style="normal" 
>
</g>

<g fill="#ffffff" fill-opacity="1" stroke="#d89400" stroke-opacity="1" stroke-width="1" stroke-linecap="square" stroke-linejoin="bevel" transform="matrix(1,0,0,1,0,0)"
font-family="Inter" font-size="11" font-weight="700" font-style="normal" 
>
</g>

<g fill="#ffb515" fill-opacity="1" stroke="#d89400" stroke-opacity="1" stroke-width="1.2" stroke-linecap="square" stroke-linejoin="bevel" transform="matrix(1,0,0,1,80,6)"
font-family="Inter" font-size="11" font-weight="700" font-style="normal" 
>
<path vector-effect="none" fill-rule="evenodd" d="M0.5,3.5 C0.5,1.84315 1.84315,0.5 3.5,0.5 L72.5,0.5 C74.1569,0.5 75.5,1.84315 75.5,3.5 L75.5,20.5 C75.5,22.1569 74.1569,23.5 72.5,23.5 L3.5,23.5 C1.84315,23.5 0.5,22.1569 0.5,20.5 L0.5,3.5"/>
</g>

<g fill="#ffffff" fill-opacity="1" stroke="none" transform="matrix(1,0,0,1,80,6)"
font-family="Inter" font-size="11" font-weight="700" font-style="normal" 
>
<path vector-effect="none" fill-rule="nonzero" d="M10.0078,7.9375 L12.0938,7.9375 L14.2969,13.3125 L14.3906,13.3125 L16.5938,7.9375 L18.6797,7.9375 L18.6797,15.9375 L17.0391,15.9375 L17.0391,10.7305 L16.9727,10.7305 L14.9023,15.8984 L13.7852,15.8984 L11.7148,10.7109 L11.6484,10.7109 L11.6484,15.9375 L10.0078,15.9375 L10.0078,7.9375 M20.0703,15.9375 L20.0703,7.9375 L21.7617,7.9375 L21.7617,11.4648 L21.8672,11.4648 L24.7461,7.9375 L26.7734,7.9375 L23.8047,11.5195 L26.8086,15.9375 L24.7852,15.9375 L22.5938,12.6484 L21.7617,13.6641 L21.7617,15.9375 L20.0703,15.9375 M30.6719,16.0469 C30.2604,16.0443 29.8639,15.9753 29.4824,15.8398 C29.1009,15.7044 28.7591,15.4844 28.457,15.1797 C28.1549,14.875 27.916,14.4714 27.7402,13.9688 C27.5645,13.4661 27.4766,12.849 27.4766,12.1172 C27.4792,11.4453 27.5566,10.8444 27.709,10.3145 C27.8613,9.78451 28.0801,9.33464 28.3652,8.96484 C28.6504,8.59505 28.9922,8.31315 29.3906,8.11914 C29.7891,7.92513 30.2357,7.82813 30.7305,7.82813 C31.2643,7.82813 31.7357,7.93164 32.1445,8.13867 C32.5534,8.3457 32.8822,8.6263 33.1309,8.98047 C33.3796,9.33464 33.5299,9.73177 33.582,10.1719 L31.9141,10.1719 C31.849,9.89323 31.7122,9.67448 31.5039,9.51563 C31.2956,9.35677 31.0378,9.27734 30.7305,9.27734 C30.2096,9.27734 29.8145,9.50391 29.5449,9.95703 C29.2754,10.4102 29.138,11.026 29.1328,11.8047 L29.1875,11.8047 C29.3073,11.5677 29.4694,11.3652 29.6738,11.1973 C29.8783,11.0293 30.1113,10.9004 30.373,10.8105 C30.6348,10.7207 30.9115,10.6758 31.2031,10.6758 C31.6771,10.6758 32.099,10.7871 32.4688,11.0098 C32.8385,11.2324 33.1302,11.5378 33.3438,11.9258 C33.5573,12.3138 33.6641,12.7578 33.6641,13.2578 C33.6641,13.7995 33.5384,14.2813 33.2871,14.7031 C33.0358,15.125 32.6855,15.4551 32.2363,15.6934 C31.7871,15.9316 31.2656,16.0495 30.6719,16.0469 M30.6641,14.7188 C30.9245,14.7188 31.1576,14.6563 31.3633,14.5313 C31.569,14.4063 31.7305,14.237 31.8477,14.0234 C31.9648,13.8099 32.0234,13.5703 32.0234,13.3047 C32.0234,13.0391 31.9655,12.8008 31.8496,12.5898 C31.7337,12.3789 31.5742,12.2109 31.3711,12.0859 C31.168,11.9609 30.9362,11.8984 30.6758,11.8984 C30.4805,11.8984 30.3001,11.9349 30.1348,12.0078 C29.9694,12.0807 29.8249,12.1823 29.7012,12.3125 C29.5775,12.4427 29.4805,12.5931 29.4102,12.7637 C29.3398,12.9342 29.3047,13.1159 29.3047,13.3086 C29.3047,13.5664 29.3639,13.8021 29.4824,14.0156 C29.6009,14.2292 29.7624,14.3997 29.9668,14.5273 C30.1712,14.6549 30.4036,14.7188 30.6641,14.7188 M34.8984,15.9375 L34.8984,7.9375 L36.5898,7.9375 L36.5898,11.2383 L40.0234,11.2383 L40.0234,7.9375 L41.7109,7.9375 L41.7109,15.9375 L40.0234,15.9375 L40.0234,12.6328 L36.5898,12.6328 L36.5898,15.9375 L34.8984,15.9375 M43.1016,15.9375 L43.1016,7.9375 L46.3047,7.9375 C46.8932,7.9375 47.3841,8.02474 47.7773,8.19922 C48.1706,8.3737 48.4661,8.61523 48.6641,8.92383 C48.862,9.23242 48.9609,9.58724 48.9609,9.98828 C48.9609,10.3008 48.8984,10.5749 48.7734,10.8105 C48.6484,11.0462 48.4772,11.2389 48.2598,11.3887 C48.0423,11.5384 47.7943,11.6445 47.5156,11.707 L47.5156,11.7852 C47.8203,11.7982 48.1061,11.8841 48.373,12.043 C48.64,12.2018 48.8568,12.4238 49.0234,12.709 C49.1901,12.9941 49.2734,13.3333 49.2734,13.7266 C49.2734,14.151 49.1686,14.5293 48.959,14.8613 C48.7493,15.1934 48.4401,15.4557 48.0313,15.6484 C47.6224,15.8411 47.1185,15.9375 46.5195,15.9375 L43.1016,15.9375 M44.793,14.5547 L46.1719,14.5547 C46.6432,14.5547 46.987,14.4642 47.2031,14.2832 C47.4193,14.1022 47.5273,13.8607 47.5273,13.5586 C47.5273,13.3372 47.474,13.1419 47.3672,12.9727 C47.2604,12.8034 47.1087,12.6706 46.9121,12.5742 C46.7155,12.4779 46.4818,12.4297 46.2109,12.4297 L44.793,12.4297 L44.793,14.5547 M44.793,11.2852 L46.0469,11.2852 C46.2786,11.2852 46.485,11.2441 46.666,11.1621 C46.847,11.0801 46.9902,10.9635 47.0957,10.8125 C47.2012,10.6615 47.2539,10.4805 47.2539,10.2695 C47.2539,9.98047 47.1517,9.7474 46.9473,9.57031 C46.7428,9.39323 46.4531,9.30469 46.0781,9.30469 L44.793,9.30469 L44.793,11.2852 M53.8008,7.9375 L53.8008,15.9375 L52.1094,15.9375 L52.1094,9.54297 L52.0625,9.54297 L50.2305,10.6914 L50.2305,9.19141 L52.2109,7.9375 L53.8008,7.9375"/>
</g>

<g fill="#ffffff" fill-opacity="1" stroke="none" transform="matrix(0.03125,0,0,0.03125,142,14)"
font-family="Inter" font-size="11" font-weight="700" font-style="normal" 
>
<path vector-effect="none" fill-rule="nonzero" d="M111.326,191.938 C120.545,201.158 135.517,201.158 144.737,191.938 L239.144,97.5313 C245.929,90.7458 247.921,80.6413 244.233,71.7907 C240.545,62.9401 231.989,57.1871 222.401,57.1871 L33.5875,57.2608 C24.0731,57.2608 15.4437,63.0137 11.7559,71.8644 C8.06815,80.715 10.1333,90.8195 16.845,97.605 L111.252,192.012 L111.326,191.938"/>
</g>

<g fill="none" stroke="#000000" stroke-opacity="1" stroke-width="13.7195" stroke-linecap="butt" stroke-linejoin="miter" stroke-miterlimit="4" transform="matrix(0.03125,0,0,0.03125,142,14)"
font-family="Inter" font-size="11" font-weight="700" font-style="normal" 
>
<path vector-effect="none" fill-rule="nonzero" d="M111.326,191.938 C120.545,201.158 135.517,201.158 144.737,191.938 L239.144,97.5313 C245.929,90.7458 247.921,80.6413 244.233,71.7907 C240.545,62.9401 231.989,57.1871 222.401,57.1871 L33.5875,57.2608 C24.0731,57.2608 15.4437,63.0137 11.7559,71.8644 C8.06815,80.715 10.1333,90.8195 16.845,97.605 L111.252,192.012 L111.326,191.938"/>
</g>

<g fill="#ffffff" fill-opacity="1" stroke="none" transform="matrix(1,0,0,1,80,6)"
font-family="Inter" font-size="11" font-weight="700" font-style="normal" 
>
</g>

<g fill="#ffffff" fill-opacity="1" stroke="#d89400" stroke-opacity="1" stroke-width="1" stroke-linecap="square" stroke-linejoin="bevel" transform="matrix(1,0,0,1,0,0)"
font-family="Inter" font-size="11" font-weight="700" font-style="normal" 
>
</g>

<g fill="#ffffff" fill-opacity="1" stroke="#d89400" stroke-opacity="1" stroke-width="1" stroke-linecap="square" stroke-linejoin="bevel" transform="matrix(1,0,0,1,0,0)"
font-family="Inter" font-size="11" font-weight="700" font-style="normal" 
>
</g>

<g fill="none" stroke="#000000" stroke-opacity="1" stroke-width="1" stroke-linecap="square" stroke-linejoin="bevel" transform="matrix(1,0,0,1,0,0)"
font-family=".AppleSystemUIFont" font-size="13" font-weight="400" font-style="normal" 
>
</g>
</g>
</svg>
