<?xml version="1.0" encoding="UTF-8" standalone="no"?>
<svg width="79.7278mm" height="11.2889mm"
 viewBox="0 0 226 32"
 xmlns="http://www.w3.org/2000/svg" xmlns:xlink="http://www.w3.org/1999/xlink" version="1.2" baseProfile="tiny">
<title>Abstract block</title>
<desc>block_hubs_all_sensors_is_connected</desc>
<defs>
</defs>
<g fill="none" stroke="black" stroke-width="1" fill-rule="evenodd" stroke-linecap="square" stroke-linejoin="bevel" >

<g fill="none" stroke="#000000" stroke-opacity="1" stroke-width="1" stroke-linecap="square" stroke-linejoin="bevel" transform="matrix(1,0,0,1,0,0)"
font-family=".AppleSystemUIFont" font-size="13" font-weight="400" font-style="normal" 
>
</g>

<g fill="none" stroke="#000000" stroke-opacity="1" stroke-width="1" stroke-linecap="square" stroke-linejoin="bevel" transform="matrix(1,0,0,1,0,0)"
font-family=".AppleSystemUIFont" font-size="13" font-weight="400" font-style="normal" 
>
</g>

<g fill="#ffb515" fill-opacity="1" stroke="#d89400" stroke-opacity="1" stroke-width="1.2" stroke-linecap="square" stroke-linejoin="bevel" transform="matrix(1,0,0,1,0,0)"
font-family=".AppleSystemUIFont" font-size="13" font-weight="400" font-style="normal" 
>
<path vector-effect="none" fill-rule="evenodd" d="M0,16 L16,0 L210,0 L226,16 L210,32 L16,32 L0,16"/>
</g>

<g fill="#ffffff" fill-opacity="1" stroke="none" transform="matrix(1,0,0,1,0,0)"
font-family="Inter" font-size="11" font-weight="700" font-style="normal" 
>
<path vector-effect="none" fill-rule="nonzero" d="M145.734,19.8516 C145.12,19.8516 144.592,19.7207 144.15,19.459 C143.709,19.1973 143.37,18.8333 143.135,18.3672 C142.899,17.901 142.781,17.3646 142.781,16.7578 C142.781,16.1432 142.9,15.6035 143.139,15.1387 C143.377,14.6738 143.716,14.3105 144.156,14.0488 C144.596,13.7871 145.12,13.6563 145.727,13.6563 C146.25,13.6563 146.708,13.7513 147.102,13.9414 C147.495,14.1315 147.806,14.3984 148.035,14.7422 C148.264,15.0859 148.391,15.4896 148.414,15.9531 L146.844,15.9531 C146.799,15.6536 146.683,15.4121 146.494,15.2285 C146.305,15.0449 146.059,14.9531 145.754,14.9531 C145.496,14.9531 145.271,15.0228 145.08,15.1621 C144.889,15.3014 144.74,15.5039 144.633,15.7695 C144.526,16.0352 144.473,16.3568 144.473,16.7344 C144.473,17.1172 144.525,17.4427 144.631,17.7109 C144.736,17.9792 144.885,18.1836 145.078,18.3242 C145.271,18.4648 145.496,18.5352 145.754,18.5352 C145.944,18.5352 146.115,18.4961 146.268,18.418 C146.42,18.3398 146.546,18.2259 146.646,18.0762 C146.747,17.9264 146.813,17.7461 146.844,17.5352 L148.414,17.5352 C148.388,17.9935 148.264,18.3965 148.041,18.7441 C147.818,19.0918 147.512,19.3633 147.121,19.5586 C146.73,19.7539 146.268,19.8516 145.734,19.8516 M152.188,19.8516 C151.581,19.8516 151.057,19.722 150.615,19.4629 C150.174,19.2038 149.833,18.8418 149.594,18.377 C149.354,17.9121 149.234,17.3724 149.234,16.7578 C149.234,16.138 149.354,15.5957 149.594,15.1309 C149.833,14.666 150.174,14.304 150.615,14.0449 C151.057,13.7858 151.581,13.6563 152.188,13.6563 C152.794,13.6563 153.318,13.7858 153.76,14.0449 C154.201,14.304 154.542,14.666 154.781,15.1309 C155.021,15.5957 155.141,16.138 155.141,16.7578 C155.141,17.3724 155.021,17.9121 154.781,18.377 C154.542,18.8418 154.201,19.2038 153.76,19.4629 C153.318,19.722 152.794,19.8516 152.188,19.8516 M152.195,18.5625 C152.471,18.5625 152.702,18.4837 152.887,18.3262 C153.072,18.1686 153.212,17.9531 153.307,17.6797 C153.402,17.4063 153.449,17.0951 153.449,16.7461 C153.449,16.3971 153.402,16.0859 153.307,15.8125 C153.212,15.5391 153.072,15.3229 152.887,15.1641 C152.702,15.0052 152.471,14.9258 152.195,14.9258 C151.917,14.9258 151.683,15.0052 151.494,15.1641 C151.305,15.3229 151.163,15.5391 151.068,15.8125 C150.973,16.0859 150.926,16.3971 150.926,16.7461 C150.926,17.0951 150.973,17.4063 151.068,17.6797 C151.163,17.9531 151.305,18.1686 151.494,18.3262 C151.683,18.4837 151.917,18.5625 152.195,18.5625 M157.891,16.2656 L157.891,19.7344 L156.227,19.7344 L156.227,13.7344 L157.813,13.7344 L157.813,14.793 L157.883,14.793 C158.016,14.444 158.238,14.1673 158.551,13.9629 C158.863,13.7585 159.242,13.6563 159.688,13.6563 C160.104,13.6563 160.467,13.7474 160.777,13.9297 C161.087,14.112 161.328,14.3717 161.5,14.709 C161.672,15.0462 161.758,15.4479 161.758,15.9141 L161.758,19.7344 L160.094,19.7344 L160.094,16.2109 C160.096,15.8438 160.003,15.5566 159.813,15.3496 C159.622,15.1426 159.361,15.0391 159.027,15.0391 C158.803,15.0391 158.606,15.0872 158.436,15.1836 C158.265,15.2799 158.132,15.4199 158.037,15.6035 C157.942,15.7871 157.893,16.0078 157.891,16.2656 M164.719,16.2656 L164.719,19.7344 L163.055,19.7344 L163.055,13.7344 L164.641,13.7344 L164.641,14.793 L164.711,14.793 C164.844,14.444 165.066,14.1673 165.379,13.9629 C165.691,13.7585 166.07,13.6563 166.516,13.6563 C166.932,13.6563 167.296,13.7474 167.605,13.9297 C167.915,14.112 168.156,14.3717 168.328,14.709 C168.5,15.0462 168.586,15.4479 168.586,15.9141 L168.586,19.7344 L166.922,19.7344 L166.922,16.2109 C166.924,15.8438 166.831,15.5566 166.641,15.3496 C166.451,15.1426 166.189,15.0391 165.855,15.0391 C165.632,15.0391 165.434,15.0872 165.264,15.1836 C165.093,15.2799 164.96,15.4199 164.865,15.6035 C164.77,15.7871 164.721,16.0078 164.719,16.2656 M172.617,19.8516 C172,19.8516 171.469,19.7259 171.025,19.4746 C170.581,19.2233 170.24,18.8665 170,18.4043 C169.76,17.9421 169.641,17.3945 169.641,16.7617 C169.641,16.1445 169.76,15.6029 170,15.1367 C170.24,14.6706 170.577,14.3073 171.014,14.0469 C171.45,13.7865 171.962,13.6563 172.551,13.6563 C172.947,13.6563 173.316,13.7194 173.658,13.8457 C174.001,13.972 174.3,14.1615 174.557,14.4141 C174.813,14.6667 175.013,14.9837 175.156,15.3652 C175.299,15.7467 175.371,16.1927 175.371,16.7031 L175.371,17.1602 L170.305,17.1602 L170.305,16.1289 L173.805,16.1289 C173.805,15.8893 173.753,15.6771 173.648,15.4922 C173.544,15.3073 173.4,15.1621 173.217,15.0566 C173.033,14.9512 172.82,14.8984 172.578,14.8984 C172.326,14.8984 172.102,14.9564 171.908,15.0723 C171.714,15.1882 171.563,15.3431 171.453,15.5371 C171.344,15.7311 171.288,15.9466 171.285,16.1836 L171.285,17.1641 C171.285,17.4609 171.34,17.7174 171.451,17.9336 C171.562,18.1497 171.719,18.3164 171.922,18.4336 C172.125,18.5508 172.366,18.6094 172.645,18.6094 C172.829,18.6094 172.999,18.5833 173.152,18.5313 C173.306,18.4792 173.438,18.401 173.547,18.2969 C173.656,18.1927 173.74,18.0651 173.797,17.9141 L175.336,18.0156 C175.258,18.3854 175.098,18.7077 174.857,18.9824 C174.617,19.2572 174.307,19.4707 173.928,19.623 C173.549,19.7754 173.112,19.8516 172.617,19.8516 M179.156,19.8516 C178.542,19.8516 178.014,19.7207 177.572,19.459 C177.131,19.1973 176.792,18.8333 176.557,18.3672 C176.321,17.901 176.203,17.3646 176.203,16.7578 C176.203,16.1432 176.322,15.6035 176.561,15.1387 C176.799,14.6738 177.138,14.3105 177.578,14.0488 C178.018,13.7871 178.542,13.6563 179.148,13.6563 C179.672,13.6563 180.13,13.7513 180.523,13.9414 C180.917,14.1315 181.228,14.3984 181.457,14.7422 C181.686,15.0859 181.813,15.4896 181.836,15.9531 L180.266,15.9531 C180.221,15.6536 180.105,15.4121 179.916,15.2285 C179.727,15.0449 179.48,14.9531 179.176,14.9531 C178.918,14.9531 178.693,15.0228 178.502,15.1621 C178.311,15.3014 178.161,15.5039 178.055,15.7695 C177.948,16.0352 177.895,16.3568 177.895,16.7344 C177.895,17.1172 177.947,17.4427 178.053,17.7109 C178.158,17.9792 178.307,18.1836 178.5,18.3242 C178.693,18.4648 178.918,18.5352 179.176,18.5352 C179.366,18.5352 179.537,18.4961 179.689,18.418 C179.842,18.3398 179.968,18.2259 180.068,18.0762 C180.169,17.9264 180.234,17.7461 180.266,17.5352 L181.836,17.5352 C181.81,17.9935 181.686,18.3965 181.463,18.7441 C181.24,19.0918 180.934,19.3633 180.543,19.5586 C180.152,19.7539 179.69,19.8516 179.156,19.8516 M186.09,13.7344 L186.09,14.9844 L182.477,14.9844 L182.477,13.7344 L186.09,13.7344 M183.297,12.2969 L184.961,12.2969 L184.961,17.8906 C184.961,18.0443 184.984,18.1634 185.031,18.248 C185.078,18.3327 185.144,18.3919 185.229,18.4258 C185.313,18.4596 185.411,18.4766 185.523,18.4766 C185.602,18.4766 185.68,18.4694 185.758,18.4551 C185.836,18.4408 185.896,18.4297 185.938,18.4219 L186.199,19.6602 C186.116,19.6862 185.999,19.7168 185.848,19.752 C185.697,19.7871 185.513,19.8086 185.297,19.8164 C184.896,19.832 184.545,19.7786 184.244,19.6563 C183.943,19.5339 183.71,19.3438 183.543,19.0859 C183.376,18.8281 183.294,18.5026 183.297,18.1094 L183.297,12.2969 M189.836,19.8516 C189.219,19.8516 188.688,19.7259 188.244,19.4746 C187.8,19.2233 187.458,18.8665 187.219,18.4043 C186.979,17.9421 186.859,17.3945 186.859,16.7617 C186.859,16.1445 186.979,15.6029 187.219,15.1367 C187.458,14.6706 187.796,14.3073 188.232,14.0469 C188.669,13.7865 189.181,13.6563 189.77,13.6563 C190.165,13.6563 190.535,13.7194 190.877,13.8457 C191.219,13.972 191.519,14.1615 191.775,14.4141 C192.032,14.6667 192.232,14.9837 192.375,15.3652 C192.518,15.7467 192.59,16.1927 192.59,16.7031 L192.59,17.1602 L187.523,17.1602 L187.523,16.1289 L191.023,16.1289 C191.023,15.8893 190.971,15.6771 190.867,15.4922 C190.763,15.3073 190.619,15.1621 190.436,15.0566 C190.252,14.9512 190.039,14.8984 189.797,14.8984 C189.544,14.8984 189.321,14.9564 189.127,15.0723 C188.933,15.1882 188.781,15.3431 188.672,15.5371 C188.563,15.7311 188.507,15.9466 188.504,16.1836 L188.504,17.1641 C188.504,17.4609 188.559,17.7174 188.67,17.9336 C188.781,18.1497 188.938,18.3164 189.141,18.4336 C189.344,18.5508 189.585,18.6094 189.863,18.6094 C190.048,18.6094 190.217,18.5833 190.371,18.5313 C190.525,18.4792 190.656,18.401 190.766,18.2969 C190.875,18.1927 190.958,18.0651 191.016,17.9141 L192.555,18.0156 C192.477,18.3854 192.317,18.7077 192.076,18.9824 C191.835,19.2572 191.525,19.4707 191.146,19.623 C190.768,19.7754 190.331,19.8516 189.836,19.8516 M195.875,19.832 C195.419,19.832 195.007,19.7142 194.639,19.4785 C194.27,19.2428 193.979,18.8952 193.764,18.4355 C193.549,17.9759 193.441,17.4115 193.441,16.7422 C193.441,16.0547 193.552,15.4824 193.773,15.0254 C193.995,14.5684 194.29,14.2259 194.658,13.998 C195.027,13.7702 195.431,13.6563 195.871,13.6563 C196.207,13.6563 196.488,13.7129 196.713,13.8262 C196.938,13.9395 197.12,14.0801 197.26,14.248 C197.399,14.416 197.505,14.5807 197.578,14.7422 L197.629,14.7422 L197.629,11.7344 L199.289,11.7344 L199.289,19.7344 L197.648,19.7344 L197.648,18.7734 L197.578,18.7734 C197.5,18.9401 197.39,19.1048 197.248,19.2676 C197.106,19.4303 196.923,19.5651 196.697,19.6719 C196.472,19.7786 196.198,19.832 195.875,19.832 M196.402,18.5078 C196.671,18.5078 196.898,18.4342 197.084,18.2871 C197.27,18.14 197.413,17.9336 197.514,17.668 C197.614,17.4023 197.664,17.0911 197.664,16.7344 C197.664,16.3776 197.615,16.0677 197.516,15.8047 C197.417,15.5417 197.273,15.3385 197.086,15.1953 C196.898,15.0521 196.671,14.9805 196.402,14.9805 C196.129,14.9805 195.898,15.0547 195.711,15.2031 C195.523,15.3516 195.382,15.5573 195.285,15.8203 C195.189,16.0833 195.141,16.388 195.141,16.7344 C195.141,17.0833 195.189,17.3913 195.287,17.6582 C195.385,17.9251 195.527,18.1335 195.713,18.2832 C195.899,18.4329 196.129,18.5078 196.402,18.5078 "/>
</g>

<g fill="#ffffff" fill-opacity="1" stroke="none" transform="matrix(1,0,0,1,0,0)"
font-family="Inter" font-size="11" font-weight="700" font-style="normal" 
>
<path vector-effect="none" fill-rule="nonzero" d="M209.766,17.5547 L209.766,17.4219 C209.768,16.9661 209.809,16.6029 209.889,16.332 C209.968,16.0612 210.085,15.8424 210.238,15.6758 C210.392,15.5091 210.577,15.3581 210.793,15.2227 C210.954,15.1185 211.099,15.0104 211.227,14.8984 C211.354,14.7865 211.456,14.6621 211.531,14.5254 C211.607,14.3887 211.645,14.2357 211.645,14.0664 C211.645,13.8867 211.602,13.7292 211.516,13.5938 C211.43,13.4583 211.314,13.3542 211.17,13.2813 C211.025,13.2083 210.866,13.1719 210.691,13.1719 C210.522,13.1719 210.362,13.209 210.211,13.2832 C210.06,13.3574 209.936,13.4668 209.84,13.6113 C209.743,13.7559 209.691,13.9349 209.684,14.1484 L208.09,14.1484 C208.103,13.6276 208.228,13.1973 208.465,12.8574 C208.702,12.5176 209.016,12.2637 209.406,12.0957 C209.797,11.9277 210.228,11.8438 210.699,11.8438 C211.217,11.8438 211.676,11.929 212.074,12.0996 C212.473,12.2702 212.785,12.5169 213.012,12.8398 C213.238,13.1628 213.352,13.5521 213.352,14.0078 C213.352,14.3125 213.301,14.5827 213.201,14.8184 C213.101,15.054 212.961,15.2624 212.781,15.4434 C212.602,15.6243 212.389,15.7878 212.145,15.9336 C211.939,16.056 211.77,16.1836 211.639,16.3164 C211.507,16.4492 211.41,16.6029 211.346,16.7773 C211.282,16.9518 211.249,17.1667 211.246,17.4219 L211.246,17.5547 L209.766,17.5547 M210.539,20.0547 C210.279,20.0547 210.057,19.9629 209.873,19.7793 C209.689,19.5957 209.599,19.375 209.602,19.1172 C209.599,18.862 209.689,18.6432 209.873,18.4609 C210.057,18.2786 210.279,18.1875 210.539,18.1875 C210.786,18.1875 211.004,18.2786 211.191,18.4609 C211.379,18.6432 211.474,18.862 211.477,19.1172 C211.474,19.2891 211.429,19.446 211.342,19.5879 C211.255,19.7298 211.141,19.8431 211,19.9277 C210.859,20.0124 210.706,20.0547 210.539,20.0547 "/>
</g>

<g fill="#ffffff" fill-opacity="1" stroke="none" transform="matrix(0.228,0,0,0.228,11.6,4.6)"
font-family="Inter" font-size="11" font-weight="700" font-style="normal" 
>
<path vector-effect="none" fill-rule="nonzero" d="M23.3682,15.995 C21.89,15.995 20.7001,17.185 20.7001,18.6631 L20.7001,81.3343 C20.7001,82.8125 21.89,84.0024 23.3682,84.0024 L76.6077,84.0024 C78.0859,84.0024 79.2758,82.8125 79.2758,81.3343 L79.2758,18.6631 C79.2758,17.185 78.0859,15.995 76.6077,15.995 L50.8905,15.995 C51.6703,16.0444 52.2838,16.6869 52.2838,17.4796 L52.2838,26.9112 C52.2838,27.7362 51.6196,28.4004 50.7946,28.4004 L49.3054,28.4004 C48.4804,28.4004 47.8161,27.7362 47.8161,26.9112 L47.8161,17.4796 C47.8161,16.6869 48.4298,16.0443 49.2096,15.995 L23.3682,15.995 M46.7613,35.2087 L53.2146,35.2087 C53.9021,35.2087 54.4556,35.7622 54.4556,36.4497 L54.4556,42.903 C54.4556,43.5906 53.9021,44.1439 53.2146,44.1439 L46.7613,44.1439 C46.0738,44.1439 45.5202,43.5906 45.5202,42.903 L45.5202,36.4497 C45.5202,35.7622 46.0738,35.2087 46.7613,35.2087 "/>
</g>

<g fill="none" stroke="#000000" stroke-opacity="1" stroke-width="2.43854" stroke-linecap="butt" stroke-linejoin="miter" stroke-miterlimit="4" transform="matrix(0.228,0,0,0.228,11.6,4.6)"
font-family="Inter" font-size="11" font-weight="700" font-style="normal" 
>
<path vector-effect="none" fill-rule="nonzero" d="M23.3682,15.995 C21.89,15.995 20.7001,17.185 20.7001,18.6631 L20.7001,81.3343 C20.7001,82.8125 21.89,84.0024 23.3682,84.0024 L76.6077,84.0024 C78.0859,84.0024 79.2758,82.8125 79.2758,81.3343 L79.2758,18.6631 C79.2758,17.185 78.0859,15.995 76.6077,15.995 L50.8905,15.995 C51.6703,16.0444 52.2838,16.6869 52.2838,17.4796 L52.2838,26.9112 C52.2838,27.7362 51.6196,28.4004 50.7946,28.4004 L49.3054,28.4004 C48.4804,28.4004 47.8161,27.7362 47.8161,26.9112 L47.8161,17.4796 C47.8161,16.6869 48.4298,16.0443 49.2096,15.995 L23.3682,15.995 M46.7613,35.2087 L53.2146,35.2087 C53.9021,35.2087 54.4556,35.7622 54.4556,36.4497 L54.4556,42.903 C54.4556,43.5906 53.9021,44.1439 53.2146,44.1439 L46.7613,44.1439 C46.0738,44.1439 45.5202,43.5906 45.5202,42.903 L45.5202,36.4497 C45.5202,35.7622 46.0738,35.2087 46.7613,35.2087 "/>
</g>

<g fill="#000000" fill-opacity="1" stroke="none" transform="matrix(0.228,0,0,0.228,11.6,4.6)"
font-family="Inter" font-size="11" font-weight="700" font-style="normal" 
>
<path vector-effect="none" fill-rule="evenodd" d="M14.2421,17.9523 C14.2421,17.1298 14.9088,16.4631 15.7313,16.4631 L18.7097,16.4631 C19.5322,16.4631 20.1989,17.1298 20.1989,17.9523 L20.1989,33.8372 C20.1989,34.6597 19.5322,35.3264 18.7097,35.3264 L15.7313,35.3264 C14.9088,35.3264 14.2421,34.6597 14.2421,33.8372 L14.2421,17.9523"/>
</g>

<g fill="none" stroke="#000000" stroke-opacity="1" stroke-width="2.43854" stroke-linecap="butt" stroke-linejoin="miter" stroke-miterlimit="4" transform="matrix(0.228,0,0,0.228,11.6,4.6)"
font-family="Inter" font-size="11" font-weight="700" font-style="normal" 
>
<path vector-effect="none" fill-rule="evenodd" d="M14.2421,17.9523 C14.2421,17.1298 14.9088,16.4631 15.7313,16.4631 L18.7097,16.4631 C19.5322,16.4631 20.1989,17.1298 20.1989,17.9523 L20.1989,33.8372 C20.1989,34.6597 19.5322,35.3264 18.7097,35.3264 L15.7313,35.3264 C14.9088,35.3264 14.2421,34.6597 14.2421,33.8372 L14.2421,17.9523"/>
</g>

<g fill="#000000" fill-opacity="1" stroke="none" transform="matrix(0.228,0,0,0.228,11.6,4.6)"
font-family="Inter" font-size="11" font-weight="700" font-style="normal" 
>
<path vector-effect="none" fill-rule="evenodd" d="M79.3249,17.4662 C79.3249,16.6438 79.9916,15.977 80.8141,15.977 L83.7925,15.977 C84.615,15.977 85.2817,16.6438 85.2817,17.4662 L85.2817,33.3512 C85.2817,34.1736 84.615,34.8404 83.7925,34.8404 L80.8141,34.8404 C79.9916,34.8404 79.3249,34.1736 79.3249,33.3512 L79.3249,17.4662"/>
</g>

<g fill="none" stroke="#000000" stroke-opacity="1" stroke-width="2.43854" stroke-linecap="butt" stroke-linejoin="miter" stroke-miterlimit="4" transform="matrix(0.228,0,0,0.228,11.6,4.6)"
font-family="Inter" font-size="11" font-weight="700" font-style="normal" 
>
<path vector-effect="none" fill-rule="evenodd" d="M79.3249,17.4662 C79.3249,16.6438 79.9916,15.977 80.8141,15.977 L83.7925,15.977 C84.615,15.977 85.2817,16.6438 85.2817,17.4662 L85.2817,33.3512 C85.2817,34.1736 84.615,34.8404 83.7925,34.8404 L80.8141,34.8404 C79.9916,34.8404 79.3249,34.1736 79.3249,33.3512 L79.3249,17.4662"/>
</g>

<g fill="#000000" fill-opacity="1" stroke="none" transform="matrix(0.228,0,0,0.228,11.6,4.6)"
font-family="Inter" font-size="11" font-weight="700" font-style="normal" 
>
<path vector-effect="none" fill-rule="evenodd" d="M79.5633,66.576 C79.5633,65.7535 80.23,65.0868 81.0525,65.0868 L84.0309,65.0868 C84.8534,65.0868 85.5201,65.7535 85.5201,66.576 L85.5201,82.4609 C85.5201,83.2834 84.8534,83.9501 84.0309,83.9501 L81.0525,83.9501 C80.23,83.9501 79.5633,83.2834 79.5633,82.4609 L79.5633,66.576"/>
</g>

<g fill="none" stroke="#000000" stroke-opacity="1" stroke-width="2.43854" stroke-linecap="butt" stroke-linejoin="miter" stroke-miterlimit="4" transform="matrix(0.228,0,0,0.228,11.6,4.6)"
font-family="Inter" font-size="11" font-weight="700" font-style="normal" 
>
<path vector-effect="none" fill-rule="evenodd" d="M79.5633,66.576 C79.5633,65.7535 80.23,65.0868 81.0525,65.0868 L84.0309,65.0868 C84.8534,65.0868 85.5201,65.7535 85.5201,66.576 L85.5201,82.4609 C85.5201,83.2834 84.8534,83.9501 84.0309,83.9501 L81.0525,83.9501 C80.23,83.9501 79.5633,83.2834 79.5633,82.4609 L79.5633,66.576"/>
</g>

<g fill="#000000" fill-opacity="1" stroke="none" transform="matrix(0.228,0,0,0.228,11.6,4.6)"
font-family="Inter" font-size="11" font-weight="700" font-style="normal" 
>
<path vector-effect="none" fill-rule="evenodd" d="M14.6928,66.6283 C14.6928,65.8058 15.3595,65.1391 16.182,65.1391 L19.1604,65.1391 C19.9829,65.1391 20.6496,65.8058 20.6496,66.6283 L20.6496,82.5132 C20.6496,83.3357 19.9829,84.0024 19.1604,84.0024 L16.182,84.0024 C15.3595,84.0024 14.6928,83.3357 14.6928,82.5132 L14.6928,66.6283"/>
</g>

<g fill="none" stroke="#000000" stroke-opacity="1" stroke-width="2.43854" stroke-linecap="butt" stroke-linejoin="miter" stroke-miterlimit="4" transform="matrix(0.228,0,0,0.228,11.6,4.6)"
font-family="Inter" font-size="11" font-weight="700" font-style="normal" 
>
<path vector-effect="none" fill-rule="evenodd" d="M14.6928,66.6283 C14.6928,65.8058 15.3595,65.1391 16.182,65.1391 L19.1604,65.1391 C19.9829,65.1391 20.6496,65.8058 20.6496,66.6283 L20.6496,82.5132 C20.6496,83.3357 19.9829,84.0024 19.1604,84.0024 L16.182,84.0024 C15.3595,84.0024 14.6928,83.3357 14.6928,82.5132 L14.6928,66.6283"/>
</g>

<g fill="none" stroke="#000000" stroke-opacity="1" stroke-width="2.43854" stroke-linecap="butt" stroke-linejoin="miter" stroke-miterlimit="4" transform="matrix(0.228,0,0,0.228,11.6,4.6)"
font-family="Inter" font-size="11" font-weight="700" font-style="normal" 
>
<path vector-effect="none" fill-rule="evenodd" d="M20.92,17.503 C20.92,16.6806 21.5867,16.0138 22.4092,16.0138 L27.125,16.0138 C27.9475,16.0138 28.6142,16.6806 28.6142,17.503 L28.6142,55.9743 C28.6142,56.7968 27.9475,57.4635 27.125,57.4635 L22.4092,57.4635 C21.5867,57.4635 20.92,56.7968 20.92,55.9743 L20.92,17.503"/>
</g>

<g fill="none" stroke="#000000" stroke-opacity="1" stroke-width="2.43854" stroke-linecap="butt" stroke-linejoin="miter" stroke-miterlimit="4" transform="matrix(0.228,0,0,0.228,11.6,4.6)"
font-family="Inter" font-size="11" font-weight="700" font-style="normal" 
>
<path vector-effect="none" fill-rule="evenodd" d="M71.4269,17.6638 C71.4269,16.8414 72.0937,16.1746 72.9162,16.1746 L77.632,16.1746 C78.4545,16.1746 79.1212,16.8414 79.1212,17.6638 L79.1212,56.1351 C79.1212,56.9576 78.4545,57.6243 77.632,57.6243 L72.9162,57.6243 C72.0937,57.6243 71.4269,56.9576 71.4269,56.1351 L71.4269,17.6638"/>
</g>

<g fill="#ffffff" fill-opacity="1" stroke="none" transform="matrix(0.228,0,0,0.228,11.6,4.6)"
font-family="Inter" font-size="11" font-weight="700" font-style="normal" 
>
<path vector-effect="none" fill-rule="evenodd" d="M41.9526,15.9757 C41.9526,15.9593 41.9659,15.9461 41.9822,15.9461 L57.922,15.9461 C57.9384,15.9461 57.9516,15.9593 57.9516,15.9757 C57.9516,15.992 57.9384,16.0053 57.922,16.0053 L41.9822,16.0053 C41.9659,16.0053 41.9526,15.992 41.9526,15.9757 "/>
</g>

<g fill="none" stroke="#000000" stroke-opacity="1" stroke-width="2.3865" stroke-linecap="butt" stroke-linejoin="miter" stroke-miterlimit="4" transform="matrix(0.228,0,0,0.228,11.6,4.6)"
font-family="Inter" font-size="11" font-weight="700" font-style="normal" 
>
<path vector-effect="none" fill-rule="evenodd" d="M41.9526,15.9757 C41.9526,15.9593 41.9659,15.9461 41.9822,15.9461 L57.922,15.9461 C57.9384,15.9461 57.9516,15.9593 57.9516,15.9757 C57.9516,15.992 57.9384,16.0053 57.922,16.0053 L41.9822,16.0053 C41.9659,16.0053 41.9526,15.992 41.9526,15.9757 "/>
</g>

<g fill="#ffffff" fill-opacity="1" stroke="none" transform="matrix(1,0,0,1,0,0)"
font-family="Inter" font-size="11" font-weight="700" font-style="normal" 
>
</g>

<g fill="#ffffff" fill-opacity="1" stroke="#d89400" stroke-opacity="1" stroke-width="1" stroke-linecap="square" stroke-linejoin="bevel" transform="matrix(1,0,0,1,0,0)"
font-family="Inter" font-size="11" font-weight="700" font-style="normal" 
>
<polyline fill="none" vector-effect="none" points="45,6 45,26 " />
</g>

<g fill="#ffb515" fill-opacity="1" stroke="#d89400" stroke-opacity="1" stroke-width="1.2" stroke-linecap="square" stroke-linejoin="bevel" transform="matrix(1,0,0,1,56,4)"
font-family="Inter" font-size="11" font-weight="700" font-style="normal" 
>
<path vector-effect="none" fill-rule="evenodd" d="M0.5,3.5 C0.5,1.84315 1.84315,0.5 3.5,0.5 L71.5,0.5 C73.1569,0.5 74.5,1.84315 74.5,3.5 L74.5,20.5 C74.5,22.1569 73.1569,23.5 71.5,23.5 L3.5,23.5 C1.84315,23.5 0.5,22.1569 0.5,20.5 L0.5,3.5"/>
</g>

<g fill="#ffffff" fill-opacity="1" stroke="none" transform="matrix(1,0,0,1,56,4)"
font-family="Inter" font-size="11" font-weight="700" font-style="normal" 
>
<path vector-effect="none" fill-rule="nonzero" d="M10,9.39453 L10,8 L16.5703,8 L16.5703,9.39453 L14.1211,9.39453 L14.1211,16 L12.4492,16 L12.4492,9.39453 L10,9.39453 M17.6484,16 L17.6484,8 L19.3398,8 L19.3398,11.3008 L22.7734,11.3008 L22.7734,8 L24.4609,8 L24.4609,16 L22.7734,16 L22.7734,12.6953 L19.3398,12.6953 L19.3398,16 L17.6484,16 M32.543,8 L32.543,16 L31.082,16 L27.6016,10.9648 L27.543,10.9648 L27.543,16 L25.8516,16 L25.8516,8 L27.3359,8 L30.7891,13.0313 L30.8594,13.0313 L30.8594,8 L32.543,8 M33.9297,16 L33.9297,8 L35.6211,8 L35.6211,11.3008 L39.0547,11.3008 L39.0547,8 L40.7422,8 L40.7422,16 L39.0547,16 L39.0547,12.6953 L35.6211,12.6953 L35.6211,16 L33.9297,16 M42.1328,16 L42.1328,8 L45.3359,8 C45.9245,8 46.4154,8.08724 46.8086,8.26172 C47.2018,8.4362 47.4974,8.67773 47.6953,8.98633 C47.8932,9.29492 47.9922,9.64974 47.9922,10.0508 C47.9922,10.3633 47.9297,10.6374 47.8047,10.873 C47.6797,11.1087 47.5085,11.3014 47.291,11.4512 C47.0736,11.6009 46.8255,11.707 46.5469,11.7695 L46.5469,11.8477 C46.8516,11.8607 47.1374,11.9466 47.4043,12.1055 C47.6712,12.2643 47.888,12.4863 48.0547,12.7715 C48.2214,13.0566 48.3047,13.3958 48.3047,13.7891 C48.3047,14.2135 48.1999,14.5918 47.9902,14.9238 C47.7806,15.2559 47.4714,15.5182 47.0625,15.7109 C46.6536,15.9036 46.1497,16 45.5508,16 L42.1328,16 M43.8242,14.6172 L45.2031,14.6172 C45.6745,14.6172 46.0182,14.5267 46.2344,14.3457 C46.4505,14.1647 46.5586,13.9232 46.5586,13.6211 C46.5586,13.3997 46.5052,13.2044 46.3984,13.0352 C46.2917,12.8659 46.14,12.7331 45.9434,12.6367 C45.7467,12.5404 45.513,12.4922 45.2422,12.4922 L43.8242,12.4922 L43.8242,14.6172 M43.8242,11.3477 L45.0781,11.3477 C45.3099,11.3477 45.5163,11.3066 45.6973,11.2246 C45.8783,11.1426 46.0215,11.026 46.127,10.875 C46.2324,10.724 46.2852,10.543 46.2852,10.332 C46.2852,10.043 46.1829,9.8099 45.9785,9.63281 C45.7741,9.45573 45.4844,9.36719 45.1094,9.36719 L43.8242,9.36719 L43.8242,11.3477 M52.832,8 L52.832,16 L51.1406,16 L51.1406,9.60547 L51.0938,9.60547 L49.2617,10.7539 L49.2617,9.25391 L51.2422,8 L52.832,8"/>
</g>

<g fill="#ffffff" fill-opacity="1" stroke="none" transform="matrix(0.03125,0,0,0.03125,117,12)"
font-family="Inter" font-size="11" font-weight="700" font-style="normal" 
>
<path vector-effect="none" fill-rule="nonzero" d="M111.326,191.938 C120.545,201.158 135.517,201.158 144.737,191.938 L239.144,97.5313 C245.929,90.7458 247.921,80.6413 244.233,71.7907 C240.545,62.9401 231.989,57.1871 222.401,57.1871 L33.5875,57.2608 C24.0731,57.2608 15.4437,63.0137 11.7559,71.8644 C8.06815,80.715 10.1333,90.8195 16.845,97.605 L111.252,192.012 L111.326,191.938"/>
</g>

<g fill="none" stroke="#000000" stroke-opacity="1" stroke-width="13.7195" stroke-linecap="butt" stroke-linejoin="miter" stroke-miterlimit="4" transform="matrix(0.03125,0,0,0.03125,117,12)"
font-family="Inter" font-size="11" font-weight="700" font-style="normal" 
>
<path vector-effect="none" fill-rule="nonzero" d="M111.326,191.938 C120.545,201.158 135.517,201.158 144.737,191.938 L239.144,97.5313 C245.929,90.7458 247.921,80.6413 244.233,71.7907 C240.545,62.9401 231.989,57.1871 222.401,57.1871 L33.5875,57.2608 C24.0731,57.2608 15.4437,63.0137 11.7559,71.8644 C8.06815,80.715 10.1333,90.8195 16.845,97.605 L111.252,192.012 L111.326,191.938"/>
</g>

<g fill="#ffffff" fill-opacity="1" stroke="none" transform="matrix(1,0,0,1,56,4)"
font-family="Inter" font-size="11" font-weight="700" font-style="normal" 
>
</g>

<g fill="#ffffff" fill-opacity="1" stroke="#d89400" stroke-opacity="1" stroke-width="1" stroke-linecap="square" stroke-linejoin="bevel" transform="matrix(1,0,0,1,0,0)"
font-family="Inter" font-size="11" font-weight="700" font-style="normal" 
>
</g>

<g fill="#ffffff" fill-opacity="1" stroke="#d89400" stroke-opacity="1" stroke-width="1" stroke-linecap="square" stroke-linejoin="bevel" transform="matrix(1,0,0,1,0,0)"
font-family="Inter" font-size="11" font-weight="700" font-style="normal" 
>
</g>

<g fill="none" stroke="#000000" stroke-opacity="1" stroke-width="1" stroke-linecap="square" stroke-linejoin="bevel" transform="matrix(1,0,0,1,0,0)"
font-family=".AppleSystemUIFont" font-size="13" font-weight="400" font-style="normal" 
>
</g>
</g>
</svg>
