<?xml version="1.0" encoding="UTF-8" standalone="no"?>
<svg width="142.522mm" height="11.2889mm"
 viewBox="0 0 404 32"
 xmlns="http://www.w3.org/2000/svg" xmlns:xlink="http://www.w3.org/1999/xlink" version="1.2" baseProfile="tiny">
<title>Abstract block</title>
<desc>block_hubs_all_sensors_port_technic_sensor_when_distance_is</desc>
<defs>
</defs>
<g fill="none" stroke="black" stroke-width="1" fill-rule="evenodd" stroke-linecap="square" stroke-linejoin="bevel" >

<g fill="none" stroke="#000000" stroke-opacity="1" stroke-width="1" stroke-linecap="square" stroke-linejoin="bevel" transform="matrix(1,0,0,1,0,0)"
font-family=".AppleSystemUIFont" font-size="13" font-weight="400" font-style="normal" 
>
</g>

<g fill="none" stroke="#000000" stroke-opacity="1" stroke-width="1" stroke-linecap="square" stroke-linejoin="bevel" transform="matrix(1,0,0,1,0,0)"
font-family=".AppleSystemUIFont" font-size="13" font-weight="400" font-style="normal" 
>
</g>

<g fill="#1dccf0" fill-opacity="1" stroke="#0da6c5" stroke-opacity="1" stroke-width="1.2" stroke-linecap="square" stroke-linejoin="bevel" transform="matrix(1,0,0,1,0,0)"
font-family=".AppleSystemUIFont" font-size="13" font-weight="400" font-style="normal" 
>
<path vector-effect="none" fill-rule="evenodd" d="M0,16 L16,0 L387.9,0 L403.9,16 L387.9,32 L16,32 L0,16"/>
</g>

<g fill="#ffffff" fill-opacity="1" stroke="none" transform="matrix(1,0,0,1,0,0)"
font-family="Inter" font-size="11" font-weight="700" font-style="normal" 
>
<path vector-effect="none" fill-rule="nonzero" d="M181.164,20 L181.164,14 L182.828,14 L182.828,20 L181.164,20 M182,13.2266 C181.753,13.2266 181.541,13.1439 181.365,12.9785 C181.189,12.8132 181.102,12.6146 181.102,12.3828 C181.102,12.1536 181.189,11.9564 181.365,11.791 C181.541,11.6257 181.753,11.543 182,11.543 C182.247,11.543 182.459,11.6257 182.635,11.791 C182.811,11.9564 182.898,12.1536 182.898,12.3828 C182.898,12.6146 182.811,12.8132 182.635,12.9785 C182.459,13.1439 182.247,13.2266 182,13.2266 M189.141,15.7109 L187.617,15.8047 C187.591,15.6745 187.535,15.5566 187.449,15.4512 C187.363,15.3457 187.251,15.2611 187.111,15.1973 C186.972,15.1335 186.806,15.1016 186.613,15.1016 C186.355,15.1016 186.138,15.1556 185.961,15.2637 C185.784,15.3717 185.695,15.5156 185.695,15.6953 C185.695,15.8385 185.753,15.9596 185.867,16.0586 C185.982,16.1576 186.178,16.237 186.457,16.2969 L187.543,16.5156 C188.126,16.6354 188.561,16.8281 188.848,17.0938 C189.134,17.3594 189.277,17.7083 189.277,18.1406 C189.277,18.5339 189.162,18.8789 188.932,19.1758 C188.701,19.4727 188.386,19.7038 187.986,19.8691 C187.587,20.0345 187.126,20.1172 186.605,20.1172 C185.811,20.1172 185.179,19.9512 184.709,19.6191 C184.239,19.2871 183.964,18.8346 183.883,18.2617 L185.52,18.1758 C185.569,18.418 185.689,18.6022 185.879,18.7285 C186.069,18.8548 186.313,18.918 186.609,18.918 C186.901,18.918 187.136,18.8613 187.314,18.748 C187.493,18.6348 187.583,18.4883 187.586,18.3086 C187.583,18.1576 187.52,18.0332 187.395,17.9355 C187.27,17.8379 187.077,17.763 186.816,17.7109 L185.777,17.5039 C185.191,17.3867 184.756,17.1836 184.471,16.8945 C184.186,16.6055 184.043,16.237 184.043,15.7891 C184.043,15.4036 184.148,15.0716 184.357,14.793 C184.567,14.5143 184.863,14.2995 185.244,14.1484 C185.626,13.9974 186.073,13.9219 186.586,13.9219 C187.344,13.9219 187.941,14.082 188.377,14.4023 C188.813,14.7227 189.068,15.1589 189.141,15.7109 "/>
</g>

<g fill="#ffffff" fill-opacity="1" stroke="none" transform="matrix(1,0,0,1,0,0)"
font-family="Inter" font-size="11" font-weight="700" font-style="normal" 
>
<path vector-effect="none" fill-rule="nonzero" d="M381.656,17.5547 L381.656,17.4219 C381.659,16.9661 381.7,16.6029 381.779,16.332 C381.859,16.0612 381.975,15.8424 382.129,15.6758 C382.283,15.5091 382.467,15.3581 382.684,15.2227 C382.845,15.1185 382.99,15.0104 383.117,14.8984 C383.245,14.7865 383.346,14.6621 383.422,14.5254 C383.497,14.3887 383.535,14.2357 383.535,14.0664 C383.535,13.8867 383.492,13.7292 383.406,13.5938 C383.32,13.4583 383.205,13.3542 383.061,13.2813 C382.916,13.2083 382.757,13.1719 382.582,13.1719 C382.413,13.1719 382.253,13.209 382.102,13.2832 C381.951,13.3574 381.827,13.4668 381.73,13.6113 C381.634,13.7559 381.582,13.9349 381.574,14.1484 L379.98,14.1484 C379.993,13.6276 380.118,13.1973 380.355,12.8574 C380.592,12.5176 380.906,12.2637 381.297,12.0957 C381.688,11.9277 382.118,11.8438 382.59,11.8438 C383.108,11.8438 383.566,11.929 383.965,12.0996 C384.363,12.2702 384.676,12.5169 384.902,12.8398 C385.129,13.1628 385.242,13.5521 385.242,14.0078 C385.242,14.3125 385.192,14.5827 385.092,14.8184 C384.992,15.054 384.852,15.2624 384.672,15.4434 C384.492,15.6243 384.28,15.7878 384.035,15.9336 C383.829,16.056 383.661,16.1836 383.529,16.3164 C383.398,16.4492 383.3,16.6029 383.236,16.7773 C383.173,16.9518 383.139,17.1667 383.137,17.4219 L383.137,17.5547 L381.656,17.5547 M382.43,20.0547 C382.169,20.0547 381.947,19.9629 381.764,19.7793 C381.58,19.5957 381.49,19.375 381.492,19.1172 C381.49,18.862 381.58,18.6432 381.764,18.4609 C381.947,18.2786 382.169,18.1875 382.43,18.1875 C382.677,18.1875 382.895,18.2786 383.082,18.4609 C383.27,18.6432 383.365,18.862 383.367,19.1172 C383.365,19.2891 383.32,19.446 383.232,19.5879 C383.145,19.7298 383.031,19.8431 382.891,19.9277 C382.75,20.0124 382.596,20.0547 382.43,20.0547 "/>
</g>

<g fill="#000000" fill-opacity="1" stroke="none" transform="matrix(0.0285,0,0,0.0285,11.2928,4.44754)"
font-family="Inter" font-size="11" font-weight="700" font-style="normal" 
>
<path vector-effect="none" fill-rule="evenodd" d="M77.1542,268.175 C77.1542,261.377 82.6643,255.867 89.4614,255.867 L726.471,255.867 C733.268,255.867 738.778,261.377 738.778,268.175 L738.778,543.325 C738.778,550.122 733.268,555.632 726.471,555.632 L89.4614,555.632 C82.6643,555.632 77.1542,550.122 77.1542,543.325 L77.1542,268.175"/>
</g>

<g fill="#ffffff" fill-opacity="1" stroke="none" transform="matrix(0.0285,0,0,0.0285,11.2928,4.44754)"
font-family="Inter" font-size="11" font-weight="700" font-style="normal" 
>
<path vector-effect="none" fill-rule="nonzero" d="M117.539,204.078 C73.593,204.078 38.2132,239.458 38.2132,283.404 L38.2132,527.295 C38.2132,571.241 73.593,606.621 117.539,606.621 L704.016,606.621 C747.962,606.621 783.342,571.241 783.342,527.295 L783.342,283.404 C783.342,239.458 747.962,204.078 704.016,204.078 L117.539,204.078 M188.473,307.332 C189.296,307.38 190.118,307.439 190.94,307.508 L622.539,307.508 C623.356,307.439 624.173,307.38 624.991,307.332 C625.814,307.38 626.636,307.439 627.457,307.508 L636.002,307.508 L636.002,308.117 C685.495,313.701 722.932,355.514 723.032,405.32 L723.032,405.35 C723.032,459.481 679.151,503.364 625.02,503.367 C584.241,503.26 547.789,477.915 533.487,439.727 L280.022,439.727 C265.722,477.911 229.276,503.254 188.502,503.367 C134.371,503.371 90.4845,459.495 90.4769,405.363 C90.6004,353.813 130.633,311.168 182.073,307.791 L182.073,307.508 L186.022,307.508 C186.838,307.439 187.655,307.38 188.473,307.332 "/>
</g>

<g fill="none" stroke="#000000" stroke-opacity="1" stroke-width="6.2" stroke-linecap="round" stroke-linejoin="round" transform="matrix(0.0285,0,0,0.0285,11.2928,4.44754)"
font-family="Inter" font-size="11" font-weight="700" font-style="normal" 
>
<path vector-effect="none" fill-rule="nonzero" d="M117.539,204.078 C73.593,204.078 38.2132,239.458 38.2132,283.404 L38.2132,527.295 C38.2132,571.241 73.593,606.621 117.539,606.621 L704.016,606.621 C747.962,606.621 783.342,571.241 783.342,527.295 L783.342,283.404 C783.342,239.458 747.962,204.078 704.016,204.078 L117.539,204.078 M188.473,307.332 C189.296,307.38 190.118,307.439 190.94,307.508 L622.539,307.508 C623.356,307.439 624.173,307.38 624.991,307.332 C625.814,307.38 626.636,307.439 627.457,307.508 L636.002,307.508 L636.002,308.117 C685.495,313.701 722.932,355.514 723.032,405.32 L723.032,405.35 C723.032,459.481 679.151,503.364 625.02,503.367 C584.241,503.26 547.789,477.915 533.487,439.727 L280.022,439.727 C265.722,477.911 229.276,503.254 188.502,503.367 C134.371,503.371 90.4845,459.495 90.4769,405.363 C90.6004,353.813 130.633,311.168 182.073,307.791 L182.073,307.508 L186.022,307.508 C186.838,307.439 187.655,307.38 188.473,307.332 "/>
</g>

<g fill="none" stroke="#000000" stroke-opacity="1" stroke-width="20.9" stroke-linecap="round" stroke-linejoin="round" transform="matrix(0.0285,0,0,0.0285,11.2928,4.44754)"
font-family="Inter" font-size="11" font-weight="700" font-style="normal" 
>
<path vector-effect="none" fill-rule="evenodd" d="M38.2128,283.405 C38.2128,239.594 73.7281,204.079 117.539,204.079 L704.017,204.079 C747.827,204.079 783.343,239.594 783.343,283.405 L783.343,527.295 C783.343,571.105 747.827,606.62 704.017,606.62 L117.539,606.62 C73.7281,606.62 38.2128,571.105 38.2128,527.295 L38.2128,283.405"/>
</g>

<g fill="#ffffff" fill-opacity="1" stroke="none" transform="matrix(0.0285,0,0,0.0285,11.2928,4.44754)"
font-family="Inter" font-size="11" font-weight="700" font-style="normal" 
>
<path vector-effect="none" fill-rule="nonzero" d="M189.416,322.311 C147.948,322.32 113.429,353.149 107.577,393.043 L132.33,393.043 C137.826,366.507 161.188,346.731 189.422,346.725 C217.665,346.718 241.042,366.497 246.539,393.043 L271.293,393.043 C265.438,353.135 230.897,322.301 189.416,322.311 M107.653,417.656 C113.757,457.276 148.168,487.806 189.442,487.803 C230.712,487.8 265.114,457.271 271.217,417.656 L246.405,417.656 C240.687,443.898 217.467,463.387 189.44,463.389 C161.41,463.39 138.185,443.901 132.465,417.656 L107.653,417.656"/>
</g>

<g fill="#ffffff" fill-opacity="1" stroke="none" transform="matrix(0.0285,0,0,0.0285,11.2928,4.44754)"
font-family="Inter" font-size="11" font-weight="700" font-style="normal" 
>
<path vector-effect="none" fill-rule="nonzero" d="M625.46,323.067 C583.991,323.076 549.473,353.906 543.62,393.8 L568.374,393.8 C573.87,367.264 597.232,347.488 625.466,347.481 C653.709,347.475 677.085,367.254 682.583,393.8 L707.337,393.8 C701.482,353.892 666.941,323.058 625.46,323.067 M543.696,418.413 C549.801,458.033 584.211,488.563 625.485,488.56 C666.755,488.557 701.157,458.028 707.261,418.413 L682.448,418.413 C676.73,444.655 653.511,464.143 625.483,464.146 C597.453,464.148 574.228,444.658 568.509,418.413 L543.696,418.413"/>
</g>

<g fill="#ffffff" fill-opacity="1" stroke="none" transform="matrix(1,0,0,1,0,0)"
font-family="Inter" font-size="11" font-weight="700" font-style="normal" 
>
</g>

<g fill="#ffffff" fill-opacity="1" stroke="#0da6c5" stroke-opacity="1" stroke-width="1" stroke-linecap="square" stroke-linejoin="bevel" transform="matrix(1,0,0,1,0,0)"
font-family="Inter" font-size="11" font-weight="700" font-style="normal" 
>
<polyline fill="none" vector-effect="none" points="45,6 45,26 " />
</g>

<g fill="#ffffff" fill-opacity="1" stroke="#0da6c5" stroke-opacity="1" stroke-width="1" stroke-linecap="square" stroke-linejoin="bevel" transform="matrix(1,0,0,1,0,0)"
font-family="Inter" font-size="11" font-weight="700" font-style="normal" 
>
</g>

<g fill="#ffffff" fill-opacity="1" stroke="#0da6c5" stroke-opacity="1" stroke-width="1" stroke-linecap="square" stroke-linejoin="bevel" transform="matrix(1,0,0,1,0,0)"
font-family="Inter" font-size="11" font-weight="700" font-style="normal" 
>
</g>

<g fill="#1dccf0" fill-opacity="1" stroke="#0da6c5" stroke-opacity="1" stroke-width="1.2" stroke-linecap="square" stroke-linejoin="bevel" transform="matrix(1,0,0,1,56,4)"
font-family="Inter" font-size="11" font-weight="700" font-style="normal" 
>
<path vector-effect="none" fill-rule="evenodd" d="M0.5,3.5 C0.5,1.84315 1.84315,0.5 3.5,0.5 L71.5,0.5 C73.1569,0.5 74.5,1.84315 74.5,3.5 L74.5,20.5 C74.5,22.1569 73.1569,23.5 71.5,23.5 L3.5,23.5 C1.84315,23.5 0.5,22.1569 0.5,20.5 L0.5,3.5"/>
</g>

<g fill="#ffffff" fill-opacity="1" stroke="none" transform="matrix(1,0,0,1,56,4)"
font-family="Inter" font-size="11" font-weight="700" font-style="normal" 
>
<path vector-effect="none" fill-rule="nonzero" d="M10,9.39453 L10,8 L16.5703,8 L16.5703,9.39453 L14.1211,9.39453 L14.1211,16 L12.4492,16 L12.4492,9.39453 L10,9.39453 M17.6484,16 L17.6484,8 L19.3398,8 L19.3398,11.3008 L22.7734,11.3008 L22.7734,8 L24.4609,8 L24.4609,16 L22.7734,16 L22.7734,12.6953 L19.3398,12.6953 L19.3398,16 L17.6484,16 M32.543,8 L32.543,16 L31.082,16 L27.6016,10.9648 L27.543,10.9648 L27.543,16 L25.8516,16 L25.8516,8 L27.3359,8 L30.7891,13.0313 L30.8594,13.0313 L30.8594,8 L32.543,8 M33.9297,16 L33.9297,8 L35.6211,8 L35.6211,11.3008 L39.0547,11.3008 L39.0547,8 L40.7422,8 L40.7422,16 L39.0547,16 L39.0547,12.6953 L35.6211,12.6953 L35.6211,16 L33.9297,16 M42.1328,16 L42.1328,8 L45.3359,8 C45.9245,8 46.4154,8.08724 46.8086,8.26172 C47.2018,8.4362 47.4974,8.67773 47.6953,8.98633 C47.8932,9.29492 47.9922,9.64974 47.9922,10.0508 C47.9922,10.3633 47.9297,10.6374 47.8047,10.873 C47.6797,11.1087 47.5085,11.3014 47.291,11.4512 C47.0736,11.6009 46.8255,11.707 46.5469,11.7695 L46.5469,11.8477 C46.8516,11.8607 47.1374,11.9466 47.4043,12.1055 C47.6712,12.2643 47.888,12.4863 48.0547,12.7715 C48.2214,13.0566 48.3047,13.3958 48.3047,13.7891 C48.3047,14.2135 48.1999,14.5918 47.9902,14.9238 C47.7806,15.2559 47.4714,15.5182 47.0625,15.7109 C46.6536,15.9036 46.1497,16 45.5508,16 L42.1328,16 M43.8242,14.6172 L45.2031,14.6172 C45.6745,14.6172 46.0182,14.5267 46.2344,14.3457 C46.4505,14.1647 46.5586,13.9232 46.5586,13.6211 C46.5586,13.3997 46.5052,13.2044 46.3984,13.0352 C46.2917,12.8659 46.14,12.7331 45.9434,12.6367 C45.7467,12.5404 45.513,12.4922 45.2422,12.4922 L43.8242,12.4922 L43.8242,14.6172 M43.8242,11.3477 L45.0781,11.3477 C45.3099,11.3477 45.5163,11.3066 45.6973,11.2246 C45.8783,11.1426 46.0215,11.026 46.127,10.875 C46.2324,10.724 46.2852,10.543 46.2852,10.332 C46.2852,10.043 46.1829,9.8099 45.9785,9.63281 C45.7741,9.45573 45.4844,9.36719 45.1094,9.36719 L43.8242,9.36719 L43.8242,11.3477 M52.832,8 L52.832,16 L51.1406,16 L51.1406,9.60547 L51.0938,9.60547 L49.2617,10.7539 L49.2617,9.25391 L51.2422,8 L52.832,8"/>
</g>

<g fill="#ffffff" fill-opacity="1" stroke="none" transform="matrix(0.03125,0,0,0.03125,117,12)"
font-family="Inter" font-size="11" font-weight="700" font-style="normal" 
>
<path vector-effect="none" fill-rule="nonzero" d="M111.326,191.938 C120.545,201.158 135.517,201.158 144.737,191.938 L239.144,97.5313 C245.929,90.7458 247.921,80.6413 244.233,71.7907 C240.545,62.9401 231.989,57.1871 222.401,57.1871 L33.5875,57.2608 C24.0731,57.2608 15.4437,63.0137 11.7559,71.8644 C8.06815,80.715 10.1333,90.8195 16.845,97.605 L111.252,192.012 L111.326,191.938"/>
</g>

<g fill="none" stroke="#000000" stroke-opacity="1" stroke-width="13.7195" stroke-linecap="butt" stroke-linejoin="miter" stroke-miterlimit="4" transform="matrix(0.03125,0,0,0.03125,117,12)"
font-family="Inter" font-size="11" font-weight="700" font-style="normal" 
>
<path vector-effect="none" fill-rule="nonzero" d="M111.326,191.938 C120.545,201.158 135.517,201.158 144.737,191.938 L239.144,97.5313 C245.929,90.7458 247.921,80.6413 244.233,71.7907 C240.545,62.9401 231.989,57.1871 222.401,57.1871 L33.5875,57.2608 C24.0731,57.2608 15.4437,63.0137 11.7559,71.8644 C8.06815,80.715 10.1333,90.8195 16.845,97.605 L111.252,192.012 L111.326,191.938"/>
</g>

<g fill="#ffffff" fill-opacity="1" stroke="none" transform="matrix(1,0,0,1,56,4)"
font-family="Inter" font-size="11" font-weight="700" font-style="normal" 
>
</g>

<g fill="#ffffff" fill-opacity="1" stroke="#0da6c5" stroke-opacity="1" stroke-width="1" stroke-linecap="square" stroke-linejoin="bevel" transform="matrix(1,0,0,1,0,0)"
font-family="Inter" font-size="11" font-weight="700" font-style="normal" 
>
</g>

<g fill="#0da6c5" fill-opacity="1" stroke="#0da6c5" stroke-opacity="1" stroke-width="1.2" stroke-linecap="square" stroke-linejoin="bevel" transform="matrix(1,0,0,1,135,4)"
font-family="Inter" font-size="11" font-weight="700" font-style="normal" 
>
<path vector-effect="none" fill-rule="evenodd" d="M0.5,12 C0.5,5.64873 5.87258,0.5 12.5,0.5 L27.5,0.5 C34.1274,0.5 39.5,5.64873 39.5,12 C39.5,18.3513 34.1274,23.5 27.5,23.5 L12.5,23.5 C5.87258,23.5 0.5,18.3513 0.5,12 "/>
</g>

<g fill="#ffffff" fill-opacity="1" stroke="none" transform="matrix(1,0,0,1,135,4)"
font-family="Inter" font-size="11" font-weight="700" font-style="normal" 
>
<path vector-effect="none" fill-rule="nonzero" d="M11.8242,16 L10.0117,16 L12.7734,8 L14.9531,8 L17.7109,16 L15.8984,16 L13.8945,9.82813 L13.832,9.82813 L11.8242,16 M11.7109,12.8555 L15.9922,12.8555 L15.9922,14.1758 L11.7109,14.1758 L11.7109,12.8555"/>
</g>

<g fill="#ffffff" fill-opacity="1" stroke="none" transform="matrix(0.03125,0,0,0.03125,161,12)"
font-family="Inter" font-size="11" font-weight="700" font-style="normal" 
>
<path vector-effect="none" fill-rule="nonzero" d="M111.326,191.938 C120.545,201.158 135.517,201.158 144.737,191.938 L239.144,97.5313 C245.929,90.7458 247.921,80.6413 244.233,71.7907 C240.545,62.9401 231.989,57.1871 222.401,57.1871 L33.5875,57.2608 C24.0731,57.2608 15.4437,63.0137 11.7559,71.8644 C8.06815,80.715 10.1333,90.8195 16.845,97.605 L111.252,192.012 L111.326,191.938"/>
</g>

<g fill="none" stroke="#000000" stroke-opacity="1" stroke-width="13.7195" stroke-linecap="butt" stroke-linejoin="miter" stroke-miterlimit="4" transform="matrix(0.03125,0,0,0.03125,161,12)"
font-family="Inter" font-size="11" font-weight="700" font-style="normal" 
>
<path vector-effect="none" fill-rule="nonzero" d="M111.326,191.938 C120.545,201.158 135.517,201.158 144.737,191.938 L239.144,97.5313 C245.929,90.7458 247.921,80.6413 244.233,71.7907 C240.545,62.9401 231.989,57.1871 222.401,57.1871 L33.5875,57.2608 C24.0731,57.2608 15.4437,63.0137 11.7559,71.8644 C8.06815,80.715 10.1333,90.8195 16.845,97.605 L111.252,192.012 L111.326,191.938"/>
</g>

<g fill="#ffffff" fill-opacity="1" stroke="none" transform="matrix(1,0,0,1,135,4)"
font-family="Inter" font-size="11" font-weight="700" font-style="normal" 
>
</g>

<g fill="#ffffff" fill-opacity="1" stroke="#0da6c5" stroke-opacity="1" stroke-width="1" stroke-linecap="square" stroke-linejoin="bevel" transform="matrix(1,0,0,1,0,0)"
font-family="Inter" font-size="11" font-weight="700" font-style="normal" 
>
</g>

<g fill="#1dccf0" fill-opacity="1" stroke="#0da6c5" stroke-opacity="1" stroke-width="1.2" stroke-linecap="square" stroke-linejoin="bevel" transform="matrix(1,0,0,1,321.9,4)"
font-family="Inter" font-size="11" font-weight="700" font-style="normal" 
>
<path vector-effect="none" fill-rule="evenodd" d="M0.5,3.5 C0.5,1.84315 1.84315,0.5 3.5,0.5 L48.5,0.5 C50.1569,0.5 51.5,1.84315 51.5,3.5 L51.5,20.5 C51.5,22.1569 50.1569,23.5 48.5,23.5 L3.5,23.5 C1.84315,23.5 0.5,22.1569 0.5,20.5 L0.5,3.5"/>
</g>

<g fill="#ffffff" fill-opacity="1" stroke="none" transform="matrix(1,0,0,1,321.9,4)"
font-family="Inter" font-size="11" font-weight="700" font-style="normal" 
>
<path vector-effect="none" fill-rule="nonzero" d="M11.0078,15 L11.0078,9 L12.5938,9 L12.5938,10.0586 L12.6641,10.0586 C12.7891,9.70703 12.9974,9.42969 13.2891,9.22656 C13.5807,9.02344 13.9297,8.92188 14.3359,8.92188 C14.7474,8.92188 15.0977,9.02409 15.3867,9.22852 C15.6758,9.43294 15.8685,9.70964 15.9648,10.0586 L16.0273,10.0586 C16.1497,9.71484 16.3717,9.43945 16.6934,9.23242 C17.015,9.02539 17.3958,8.92188 17.8359,8.92188 C18.3958,8.92188 18.8509,9.09961 19.2012,9.45508 C19.5514,9.81055 19.7266,10.3138 19.7266,10.9648 L19.7266,15 L18.0664,15 L18.0664,11.293 C18.0664,10.9596 17.9779,10.7096 17.8008,10.543 C17.6237,10.3763 17.4023,10.293 17.1367,10.293 C16.8346,10.293 16.599,10.3887 16.4297,10.5801 C16.2604,10.7715 16.1758,11.0234 16.1758,11.3359 L16.1758,15 L14.5625,15 L14.5625,11.2578 C14.5625,10.9635 14.4785,10.7292 14.3105,10.5547 C14.1426,10.3802 13.9219,10.293 13.6484,10.293 C13.4635,10.293 13.2975,10.3392 13.1504,10.4316 C13.0033,10.5241 12.8867,10.653 12.8008,10.8184 C12.7148,10.9837 12.6719,11.1771 12.6719,11.3984 L12.6719,15 L11.0078,15 M21.0391,15 L21.0391,9 L22.625,9 L22.625,10.0586 L22.6953,10.0586 C22.8203,9.70703 23.0286,9.42969 23.3203,9.22656 C23.612,9.02344 23.9609,8.92188 24.3672,8.92188 C24.7786,8.92188 25.1289,9.02409 25.418,9.22852 C25.707,9.43294 25.8997,9.70964 25.9961,10.0586 L26.0586,10.0586 C26.181,9.71484 26.403,9.43945 26.7246,9.23242 C27.0462,9.02539 27.4271,8.92188 27.8672,8.92188 C28.4271,8.92188 28.8822,9.09961 29.2324,9.45508 C29.5827,9.81055 29.7578,10.3138 29.7578,10.9648 L29.7578,15 L28.0977,15 L28.0977,11.293 C28.0977,10.9596 28.0091,10.7096 27.832,10.543 C27.6549,10.3763 27.4336,10.293 27.168,10.293 C26.8659,10.293 26.6302,10.3887 26.4609,10.5801 C26.2917,10.7715 26.207,11.0234 26.207,11.3359 L26.207,15 L24.5938,15 L24.5938,11.2578 C24.5938,10.9635 24.5098,10.7292 24.3418,10.5547 C24.1738,10.3802 23.9531,10.293 23.6797,10.293 C23.4948,10.293 23.3288,10.3392 23.1816,10.4316 C23.0345,10.5241 22.918,10.653 22.832,10.8184 C22.7461,10.9837 22.7031,11.1771 22.7031,11.3984 L22.7031,15 L21.0391,15"/>
</g>

<g fill="#ffffff" fill-opacity="1" stroke="none" transform="matrix(0.03125,0,0,0.03125,359.9,12)"
font-family="Inter" font-size="11" font-weight="700" font-style="normal" 
>
<path vector-effect="none" fill-rule="nonzero" d="M111.326,191.938 C120.545,201.158 135.517,201.158 144.737,191.938 L239.144,97.5313 C245.929,90.7458 247.921,80.6413 244.233,71.7907 C240.545,62.9401 231.989,57.1871 222.401,57.1871 L33.5875,57.2608 C24.0731,57.2608 15.4437,63.0137 11.7559,71.8644 C8.06815,80.715 10.1333,90.8195 16.845,97.605 L111.252,192.012 L111.326,191.938"/>
</g>

<g fill="none" stroke="#000000" stroke-opacity="1" stroke-width="13.7195" stroke-linecap="butt" stroke-linejoin="miter" stroke-miterlimit="4" transform="matrix(0.03125,0,0,0.03125,359.9,12)"
font-family="Inter" font-size="11" font-weight="700" font-style="normal" 
>
<path vector-effect="none" fill-rule="nonzero" d="M111.326,191.938 C120.545,201.158 135.517,201.158 144.737,191.938 L239.144,97.5313 C245.929,90.7458 247.921,80.6413 244.233,71.7907 C240.545,62.9401 231.989,57.1871 222.401,57.1871 L33.5875,57.2608 C24.0731,57.2608 15.4437,63.0137 11.7559,71.8644 C8.06815,80.715 10.1333,90.8195 16.845,97.605 L111.252,192.012 L111.326,191.938"/>
</g>

<g fill="#ffffff" fill-opacity="1" stroke="none" transform="matrix(1,0,0,1,321.9,4)"
font-family="Inter" font-size="11" font-weight="700" font-style="normal" 
>
</g>

<g fill="#ffffff" fill-opacity="1" stroke="#0da6c5" stroke-opacity="1" stroke-width="1" stroke-linecap="square" stroke-linejoin="bevel" transform="matrix(1,0,0,1,0,0)"
font-family="Inter" font-size="11" font-weight="700" font-style="normal" 
>
</g>

<g fill="#1dccf0" fill-opacity="1" stroke="#0da6c5" stroke-opacity="1" stroke-width="1.2" stroke-linecap="square" stroke-linejoin="bevel" transform="matrix(1,0,0,1,196,4)"
font-family="Inter" font-size="11" font-weight="700" font-style="normal" 
>
<path vector-effect="none" fill-rule="evenodd" d="M0.5,3.5 C0.5,1.84315 1.84315,0.5 3.5,0.5 L88,0.5 C89.6569,0.5 91,1.84315 91,3.5 L91,20.5 C91,22.1569 89.6569,23.5 88,23.5 L3.5,23.5 C1.84315,23.5 0.5,22.1569 0.5,20.5 L0.5,3.5"/>
</g>

<g fill="#ffffff" fill-opacity="1" stroke="none" transform="matrix(1,0,0,1,196,4)"
font-family="Inter" font-size="11" font-weight="700" font-style="normal" 
>
<path vector-effect="none" fill-rule="nonzero" d="M12.4531,15.8516 C11.8385,15.8516 11.3105,15.7207 10.8691,15.459 C10.4277,15.1973 10.0892,14.8333 9.85352,14.3672 C9.61784,13.901 9.5,13.3646 9.5,12.7578 C9.5,12.1432 9.61914,11.6035 9.85742,11.1387 C10.0957,10.6738 10.4349,10.3105 10.875,10.0488 C11.3151,9.78711 11.8385,9.65625 12.4453,9.65625 C12.9688,9.65625 13.4271,9.7513 13.8203,9.94141 C14.2135,10.1315 14.5247,10.3984 14.7539,10.7422 C14.9831,11.0859 15.1094,11.4896 15.1328,11.9531 L13.5625,11.9531 C13.5182,11.6536 13.4017,11.4121 13.2129,11.2285 C13.0241,11.0449 12.7773,10.9531 12.4727,10.9531 C12.2148,10.9531 11.9902,11.0228 11.7988,11.1621 C11.6074,11.3014 11.4583,11.5039 11.3516,11.7695 C11.2448,12.0352 11.1914,12.3568 11.1914,12.7344 C11.1914,13.1172 11.2441,13.4427 11.3496,13.7109 C11.4551,13.9792 11.6042,14.1836 11.7969,14.3242 C11.9896,14.4648 12.2148,14.5352 12.4727,14.5352 C12.6628,14.5352 12.834,14.4961 12.9863,14.418 C13.1387,14.3398 13.265,14.2259 13.3652,14.0762 C13.4655,13.9264 13.5313,13.7461 13.5625,13.5352 L15.1328,13.5352 C15.1068,13.9935 14.9824,14.3965 14.7598,14.7441 C14.5371,15.0918 14.2305,15.3633 13.8398,15.5586 C13.4492,15.7539 12.987,15.8516 12.4531,15.8516 M17.8594,7.73438 L17.8594,15.7344 L16.1953,15.7344 L16.1953,7.73438 L17.8594,7.73438 M21.8906,15.8516 C21.2839,15.8516 20.7598,15.722 20.3184,15.4629 C19.877,15.2038 19.5365,14.8418 19.2969,14.377 C19.0573,13.9121 18.9375,13.3724 18.9375,12.7578 C18.9375,12.138 19.0573,11.5957 19.2969,11.1309 C19.5365,10.666 19.877,10.304 20.3184,10.0449 C20.7598,9.78581 21.2839,9.65625 21.8906,9.65625 C22.4974,9.65625 23.0215,9.78581 23.4629,10.0449 C23.9043,10.304 24.2448,10.666 24.4844,11.1309 C24.724,11.5957 24.8438,12.138 24.8438,12.7578 C24.8438,13.3724 24.724,13.9121 24.4844,14.377 C24.2448,14.8418 23.9043,15.2038 23.4629,15.4629 C23.0215,15.722 22.4974,15.8516 21.8906,15.8516 M21.8984,14.5625 C22.1745,14.5625 22.4049,14.4837 22.5898,14.3262 C22.7747,14.1686 22.9147,13.9531 23.0098,13.6797 C23.1048,13.4063 23.1523,13.0951 23.1523,12.7461 C23.1523,12.3971 23.1048,12.0859 23.0098,11.8125 C22.9147,11.5391 22.7747,11.3229 22.5898,11.1641 C22.4049,11.0052 22.1745,10.9258 21.8984,10.9258 C21.6198,10.9258 21.3861,11.0052 21.1973,11.1641 C21.0085,11.3229 20.8665,11.5391 20.7715,11.8125 C20.6764,12.0859 20.6289,12.3971 20.6289,12.7461 C20.6289,13.0951 20.6764,13.4063 20.7715,13.6797 C20.8665,13.9531 21.0085,14.1686 21.1973,14.3262 C21.3861,14.4837 21.6198,14.5625 21.8984,14.5625 M30.9219,11.4453 L29.3984,11.5391 C29.3724,11.4089 29.3164,11.291 29.2305,11.1855 C29.1445,11.0801 29.0319,10.9954 28.8926,10.9316 C28.7533,10.8678 28.5872,10.8359 28.3945,10.8359 C28.1367,10.8359 27.9193,10.89 27.7422,10.998 C27.5651,11.1061 27.4766,11.25 27.4766,11.4297 C27.4766,11.5729 27.5339,11.694 27.6484,11.793 C27.763,11.8919 27.9596,11.9714 28.2383,12.0313 L29.3242,12.25 C29.9076,12.3698 30.3424,12.5625 30.6289,12.8281 C30.9154,13.0938 31.0586,13.4427 31.0586,13.875 C31.0586,14.2682 30.9434,14.6133 30.7129,14.9102 C30.4824,15.207 30.1673,15.4382 29.7676,15.6035 C29.3678,15.7689 28.9076,15.8516 28.3867,15.8516 C27.5924,15.8516 26.9603,15.6855 26.4902,15.3535 C26.0202,15.0215 25.7448,14.569 25.6641,13.9961 L27.3008,13.9102 C27.3503,14.1523 27.4701,14.3366 27.6602,14.4629 C27.8503,14.5892 28.0938,14.6523 28.3906,14.6523 C28.6823,14.6523 28.9173,14.5957 29.0957,14.4824 C29.2741,14.3691 29.3646,14.2227 29.3672,14.043 C29.3646,13.8919 29.3008,13.7676 29.1758,13.6699 C29.0508,13.5723 28.8581,13.4974 28.5977,13.4453 L27.5586,13.2383 C26.9727,13.1211 26.5371,12.918 26.252,12.6289 C25.9668,12.3398 25.8242,11.9714 25.8242,11.5234 C25.8242,11.138 25.929,10.806 26.1387,10.5273 C26.3483,10.2487 26.6439,10.0339 27.0254,9.88281 C27.4069,9.73177 27.8542,9.65625 28.3672,9.65625 C29.125,9.65625 29.722,9.81641 30.1582,10.1367 C30.5944,10.457 30.849,10.8932 30.9219,11.4453 M34.8359,15.8516 C34.2188,15.8516 33.6882,15.7259 33.2441,15.4746 C32.8001,15.2233 32.4583,14.8665 32.2188,14.4043 C31.9792,13.9421 31.8594,13.3945 31.8594,12.7617 C31.8594,12.1445 31.9792,11.6029 32.2188,11.1367 C32.4583,10.6706 32.7962,10.3073 33.2324,10.0469 C33.6686,9.78646 34.181,9.65625 34.7695,9.65625 C35.1654,9.65625 35.5345,9.7194 35.877,9.8457 C36.2194,9.97201 36.5189,10.1615 36.7754,10.4141 C37.0319,10.6667 37.2318,10.9837 37.375,11.3652 C37.5182,11.7467 37.5898,12.1927 37.5898,12.7031 L37.5898,13.1602 L32.5234,13.1602 L32.5234,12.1289 L36.0234,12.1289 C36.0234,11.8893 35.9714,11.6771 35.8672,11.4922 C35.763,11.3073 35.6191,11.1621 35.4355,11.0566 C35.252,10.9512 35.0391,10.8984 34.7969,10.8984 C34.5443,10.8984 34.321,10.9564 34.127,11.0723 C33.9329,11.1882 33.7813,11.3431 33.6719,11.5371 C33.5625,11.7311 33.5065,11.9466 33.5039,12.1836 L33.5039,13.1641 C33.5039,13.4609 33.5592,13.7174 33.6699,13.9336 C33.7806,14.1497 33.9375,14.3164 34.1406,14.4336 C34.3438,14.5508 34.5846,14.6094 34.8633,14.6094 C35.0482,14.6094 35.2174,14.5833 35.3711,14.5313 C35.5247,14.4792 35.6563,14.401 35.7656,14.2969 C35.875,14.1927 35.9583,14.0651 36.0156,13.9141 L37.5547,14.0156 C37.4766,14.3854 37.3171,14.7077 37.0762,14.9824 C36.8353,15.2572 36.5254,15.4707 36.1465,15.623 C35.7676,15.7754 35.3307,15.8516 34.8359,15.8516 M38.6641,15.7344 L38.6641,9.73438 L40.2773,9.73438 L40.2773,10.7813 L40.3398,10.7813 C40.4492,10.4089 40.6328,10.127 40.8906,9.93555 C41.1484,9.74414 41.4453,9.64844 41.7813,9.64844 C41.8646,9.64844 41.9544,9.65365 42.0508,9.66406 C42.1471,9.67448 42.2318,9.6888 42.3047,9.70703 L42.3047,11.1836 C42.2266,11.1602 42.1185,11.1393 41.9805,11.1211 C41.8424,11.1029 41.7161,11.0938 41.6016,11.0938 C41.3568,11.0938 41.1387,11.1465 40.9473,11.252 C40.7559,11.3574 40.6048,11.5039 40.4941,11.6914 C40.3835,11.8789 40.3281,12.0951 40.3281,12.3398 L40.3281,15.7344 L38.6641,15.7344 M48.8867,9.73438 L48.8867,10.9844 L45.2734,10.9844 L45.2734,9.73438 L48.8867,9.73438 M46.0938,8.29688 L47.7578,8.29688 L47.7578,13.8906 C47.7578,14.0443 47.7813,14.1634 47.8281,14.248 C47.875,14.3327 47.9408,14.3919 48.0254,14.4258 C48.11,14.4596 48.2083,14.4766 48.3203,14.4766 C48.3984,14.4766 48.4766,14.4694 48.5547,14.4551 C48.6328,14.4408 48.6927,14.4297 48.7344,14.4219 L48.9961,15.6602 C48.9128,15.6862 48.7956,15.7168 48.6445,15.752 C48.4935,15.7871 48.3099,15.8086 48.0938,15.8164 C47.6927,15.832 47.3418,15.7786 47.041,15.6563 C46.7402,15.5339 46.5065,15.3438 46.3398,15.0859 C46.1732,14.8281 46.0911,14.5026 46.0938,14.1094 L46.0938,8.29688 M51.75,12.2656 L51.75,15.7344 L50.0859,15.7344 L50.0859,7.73438 L51.7031,7.73438 L51.7031,10.793 L51.7734,10.793 C51.9089,10.4388 52.1276,10.1608 52.4297,9.95898 C52.7318,9.75716 53.1107,9.65625 53.5664,9.65625 C53.9831,9.65625 54.347,9.74674 54.6582,9.92773 C54.9694,10.1087 55.2116,10.3678 55.3848,10.7051 C55.5579,11.0423 55.6432,11.4453 55.6406,11.9141 L55.6406,15.7344 L53.9766,15.7344 L53.9766,12.2109 C53.9792,11.8411 53.8861,11.5534 53.6973,11.3477 C53.5085,11.1419 53.2448,11.0391 52.9063,11.0391 C52.6797,11.0391 52.4798,11.0872 52.3066,11.1836 C52.1335,11.2799 51.998,11.4199 51.9004,11.6035 C51.8027,11.7871 51.7526,12.0078 51.75,12.2656 M58.6563,15.8477 C58.2734,15.8477 57.9323,15.7806 57.6328,15.6465 C57.3333,15.5124 57.097,15.3132 56.9238,15.0488 C56.7507,14.7845 56.6641,14.4544 56.6641,14.0586 C56.6641,13.7253 56.7253,13.4453 56.8477,13.2188 C56.9701,12.9922 57.1367,12.8099 57.3477,12.6719 C57.5586,12.5339 57.7988,12.4297 58.0684,12.3594 C58.3379,12.2891 58.6211,12.2396 58.918,12.2109 C59.2669,12.1745 59.5482,12.14 59.7617,12.1074 C59.9753,12.0749 60.1302,12.026 60.2266,11.9609 C60.3229,11.8958 60.3711,11.7995 60.3711,11.6719 L60.3711,11.6484 C60.3711,11.401 60.2936,11.2096 60.1387,11.0742 C59.9837,10.9388 59.7643,10.8711 59.4805,10.8711 C59.181,10.8711 58.9427,10.9368 58.7656,11.0684 C58.5885,11.1999 58.4714,11.3646 58.4141,11.5625 L56.875,11.4375 C56.9531,11.0729 57.1068,10.7572 57.3359,10.4902 C57.5651,10.2233 57.8613,10.0176 58.2246,9.87305 C58.5879,9.72852 59.0091,9.65625 59.4883,9.65625 C59.8216,9.65625 60.1413,9.69531 60.4473,9.77344 C60.7533,9.85156 61.0254,9.97266 61.2637,10.1367 C61.502,10.3008 61.6901,10.5111 61.8281,10.7676 C61.9661,11.0241 62.0352,11.3307 62.0352,11.6875 L62.0352,15.7344 L60.457,15.7344 L60.457,14.9023 L60.4102,14.9023 C60.3138,15.0898 60.1849,15.2546 60.0234,15.3965 C59.862,15.5384 59.668,15.6491 59.4414,15.7285 C59.2148,15.8079 58.9531,15.8477 58.6563,15.8477 M59.1328,14.6992 C59.3776,14.6992 59.5938,14.6504 59.7813,14.5527 C59.9688,14.4551 60.1159,14.3229 60.2227,14.1563 C60.3294,13.9896 60.3828,13.8008 60.3828,13.5898 L60.3828,12.9531 C60.3307,12.987 60.2598,13.0176 60.1699,13.0449 C60.0801,13.0723 59.9792,13.097 59.8672,13.1191 C59.7552,13.1413 59.6432,13.1608 59.5313,13.1777 C59.4193,13.1947 59.3177,13.2096 59.2266,13.2227 C59.0313,13.2513 58.8607,13.2969 58.7148,13.3594 C58.569,13.4219 58.4557,13.5059 58.375,13.6113 C58.2943,13.7168 58.2539,13.8477 58.2539,14.0039 C58.2539,14.2305 58.3366,14.403 58.502,14.5215 C58.6673,14.64 58.8776,14.6992 59.1328,14.6992 M64.9844,12.2656 L64.9844,15.7344 L63.3203,15.7344 L63.3203,9.73438 L64.9063,9.73438 L64.9063,10.793 L64.9766,10.793 C65.1094,10.444 65.332,10.1673 65.6445,9.96289 C65.957,9.75846 66.3359,9.65625 66.7813,9.65625 C67.1979,9.65625 67.5612,9.7474 67.8711,9.92969 C68.181,10.112 68.4219,10.3717 68.5938,10.709 C68.7656,11.0462 68.8516,11.4479 68.8516,11.9141 L68.8516,15.7344 L67.1875,15.7344 L67.1875,12.2109 C67.1901,11.8438 67.0964,11.5566 66.9063,11.3496 C66.7161,11.1426 66.4544,11.0391 66.1211,11.0391 C65.8971,11.0391 65.6999,11.0872 65.5293,11.1836 C65.3587,11.2799 65.2259,11.4199 65.1309,11.6035 C65.0358,11.7871 64.987,12.0078 64.9844,12.2656 "/>
</g>

<g fill="#ffffff" fill-opacity="1" stroke="none" transform="matrix(0.03125,0,0,0.03125,273.5,12)"
font-family="Inter" font-size="11" font-weight="700" font-style="normal" 
>
<path vector-effect="none" fill-rule="nonzero" d="M111.326,191.938 C120.545,201.158 135.517,201.158 144.737,191.938 L239.144,97.5313 C245.929,90.7458 247.921,80.6413 244.233,71.7907 C240.545,62.9401 231.989,57.1871 222.401,57.1871 L33.5875,57.2608 C24.0731,57.2608 15.4437,63.0137 11.7559,71.8644 C8.06815,80.715 10.1333,90.8195 16.845,97.605 L111.252,192.012 L111.326,191.938"/>
</g>

<g fill="none" stroke="#000000" stroke-opacity="1" stroke-width="13.7195" stroke-linecap="butt" stroke-linejoin="miter" stroke-miterlimit="4" transform="matrix(0.03125,0,0,0.03125,273.5,12)"
font-family="Inter" font-size="11" font-weight="700" font-style="normal" 
>
<path vector-effect="none" fill-rule="nonzero" d="M111.326,191.938 C120.545,201.158 135.517,201.158 144.737,191.938 L239.144,97.5313 C245.929,90.7458 247.921,80.6413 244.233,71.7907 C240.545,62.9401 231.989,57.1871 222.401,57.1871 L33.5875,57.2608 C24.0731,57.2608 15.4437,63.0137 11.7559,71.8644 C8.06815,80.715 10.1333,90.8195 16.845,97.605 L111.252,192.012 L111.326,191.938"/>
</g>

<g fill="#ffffff" fill-opacity="1" stroke="none" transform="matrix(1,0,0,1,196,4)"
font-family="Inter" font-size="11" font-weight="700" font-style="normal" 
>
</g>

<g fill="#ffffff" fill-opacity="1" stroke="#0da6c5" stroke-opacity="1" stroke-width="1" stroke-linecap="square" stroke-linejoin="bevel" transform="matrix(1,0,0,1,0,0)"
font-family="Inter" font-size="11" font-weight="700" font-style="normal" 
>
</g>

<g fill="#ffffff" fill-opacity="1" stroke="#0c96b2" stroke-opacity="1" stroke-width="1.2" stroke-linecap="square" stroke-linejoin="bevel" transform="matrix(1,0,0,1,291.5,5)"
font-family="Inter" font-size="11" font-weight="700" font-style="normal" 
>
<path vector-effect="none" fill-rule="evenodd" d="M1,11 C1,5.47715 5.92487,1 12,1 L14.4,1 C20.4751,1 25.4,5.47715 25.4,11 C25.4,16.5228 20.4751,21 14.4,21 L12,21 C5.92487,21 1,16.5228 1,11 "/>
</g>

<g fill="#000000" fill-opacity="1" stroke="none" transform="matrix(1,0,0,1,291.5,5)"
font-family="Inter" font-size="10" font-weight="700" font-style="normal" 
>
<path vector-effect="none" fill-rule="nonzero" d="M10.7536,7.14915 L10.7536,14.4219 L9.21591,14.4219 L9.21591,8.60866 L9.1733,8.60866 L7.50781,9.6527 L7.50781,8.28906 L9.30824,7.14915 L10.7536,7.14915 M15.3317,14.5817 C14.7209,14.5793 14.1959,14.429 13.7567,14.1307 C13.3176,13.8324 12.9802,13.4003 12.7447,12.8345 C12.5091,12.2687 12.3925,11.5881 12.3949,10.7926 C12.3949,9.99953 12.5127,9.32363 12.7482,8.76491 C12.9838,8.2062 13.3211,7.78066 13.7603,7.48828 C14.1995,7.1959 14.7232,7.04972 15.3317,7.04972 C15.9401,7.04972 16.4639,7.1965 16.9031,7.49006 C17.3422,7.78362 17.6802,8.20916 17.9169,8.76669 C18.1536,9.32422 18.2708,9.99953 18.2685,10.7926 C18.2685,11.5904 18.1507,12.2723 17.9151,12.8381 C17.6796,13.4039 17.3428,13.8359 16.9048,14.1342 C16.4669,14.4325 15.9425,14.5817 15.3317,14.5817 M15.3317,13.3068 C15.7483,13.3068 16.081,13.0973 16.3295,12.6783 C16.5781,12.2592 16.7012,11.6307 16.6989,10.7926 C16.6989,10.241 16.6426,9.78172 16.5302,9.41477 C16.4177,9.04782 16.2591,8.77202 16.0543,8.58736 C15.8496,8.4027 15.6087,8.31037 15.3317,8.31037 C14.9174,8.31037 14.5859,8.51752 14.3374,8.93182 C14.0888,9.34612 13.9633,9.96638 13.9609,10.7926 C13.9609,11.3513 14.0172,11.8171 14.1296,12.19 C14.2421,12.5629 14.4013,12.8422 14.6072,13.0281 C14.8132,13.2139 15.0547,13.3068 15.3317,13.3068 "/>
</g>

<g fill="#ffffff" fill-opacity="1" stroke="#0da6c5" stroke-opacity="1" stroke-width="1" stroke-linecap="square" stroke-linejoin="bevel" transform="matrix(1,0,0,1,0,0)"
font-family="Inter" font-size="11" font-weight="700" font-style="normal" 
>
</g>

<g fill="#ffffff" fill-opacity="1" stroke="#0da6c5" stroke-opacity="1" stroke-width="1" stroke-linecap="square" stroke-linejoin="bevel" transform="matrix(1,0,0,1,0,0)"
font-family="Inter" font-size="11" font-weight="700" font-style="normal" 
>
</g>

<g fill="none" stroke="#000000" stroke-opacity="1" stroke-width="1" stroke-linecap="square" stroke-linejoin="bevel" transform="matrix(1,0,0,1,0,0)"
font-family=".AppleSystemUIFont" font-size="13" font-weight="400" font-style="normal" 
>
</g>
</g>
</svg>
