<?xml version="1.0" encoding="UTF-8" standalone="no"?>
<svg width="52.5639mm" height="11.2889mm"
 viewBox="0 0 149 32"
 xmlns="http://www.w3.org/2000/svg" xmlns:xlink="http://www.w3.org/1999/xlink" version="1.2" baseProfile="tiny">
<title>Abstract block</title>
<desc>block_lists_item_at</desc>
<defs>
</defs>
<g fill="none" stroke="black" stroke-width="1" fill-rule="evenodd" stroke-linecap="square" stroke-linejoin="bevel" >

<g fill="none" stroke="#000000" stroke-opacity="1" stroke-width="1" stroke-linecap="square" stroke-linejoin="bevel" transform="matrix(1,0,0,1,0,0)"
font-family=".AppleSystemUIFont" font-size="13" font-weight="400" font-style="normal" 
>
</g>

<g fill="none" stroke="#000000" stroke-opacity="1" stroke-width="1" stroke-linecap="square" stroke-linejoin="bevel" transform="matrix(1,0,0,1,0,0)"
font-family=".AppleSystemUIFont" font-size="13" font-weight="400" font-style="normal" 
>
</g>

<g fill="#ff661a" fill-opacity="1" stroke="#de4600" stroke-opacity="1" stroke-width="1.2" stroke-linecap="square" stroke-linejoin="bevel" transform="matrix(1,0,0,1,0,0)"
font-family=".AppleSystemUIFont" font-size="13" font-weight="400" font-style="normal" 
>
<path vector-effect="none" fill-rule="evenodd" d="M1,16 C1,7.71573 8.16344,1 17,1 L131.567,1 C140.403,1 147.567,7.71573 147.567,16 C147.567,24.2843 140.403,31 131.567,31 L17,31 C8.16344,31 1,24.2843 1,16 "/>
</g>

<g fill="#ffffff" fill-opacity="1" stroke="none" transform="matrix(1,0,0,1,0,0)"
font-family="Inter" font-size="11" font-weight="700" font-style="normal" 
>
<path vector-effect="none" fill-rule="nonzero" d="M12.0078,19.9531 L12.0078,13.9531 L13.6719,13.9531 L13.6719,19.9531 L12.0078,19.9531 M12.8438,13.1797 C12.5964,13.1797 12.3848,13.097 12.209,12.9316 C12.0332,12.7663 11.9453,12.5677 11.9453,12.3359 C11.9453,12.1068 12.0332,11.9095 12.209,11.7441 C12.3848,11.5788 12.5964,11.4961 12.8438,11.4961 C13.0911,11.4961 13.3027,11.5788 13.4785,11.7441 C13.6543,11.9095 13.7422,12.1068 13.7422,12.3359 C13.7422,12.5677 13.6543,12.7663 13.4785,12.9316 C13.3027,13.097 13.0911,13.1797 12.8438,13.1797 M18.1836,13.9531 L18.1836,15.2031 L14.5703,15.2031 L14.5703,13.9531 L18.1836,13.9531 M15.3906,12.5156 L17.0547,12.5156 L17.0547,18.1094 C17.0547,18.263 17.0781,18.3822 17.125,18.4668 C17.1719,18.5514 17.2376,18.6107 17.3223,18.6445 C17.4069,18.6784 17.5052,18.6953 17.6172,18.6953 C17.6953,18.6953 17.7734,18.6882 17.8516,18.6738 C17.9297,18.6595 17.9896,18.6484 18.0313,18.6406 L18.293,19.8789 C18.2096,19.9049 18.0924,19.9355 17.9414,19.9707 C17.7904,20.0059 17.6068,20.0273 17.3906,20.0352 C16.9896,20.0508 16.6387,19.9974 16.3379,19.875 C16.0371,19.7526 15.8034,19.5625 15.6367,19.3047 C15.4701,19.0469 15.388,18.7214 15.3906,18.3281 L15.3906,12.5156 M21.9297,20.0703 C21.3125,20.0703 20.7819,19.9447 20.3379,19.6934 C19.8939,19.4421 19.5521,19.0853 19.3125,18.623 C19.0729,18.1608 18.9531,17.6133 18.9531,16.9805 C18.9531,16.3633 19.0729,15.8216 19.3125,15.3555 C19.5521,14.8893 19.89,14.526 20.3262,14.2656 C20.7624,14.0052 21.2747,13.875 21.8633,13.875 C22.2591,13.875 22.6283,13.9382 22.9707,14.0645 C23.3132,14.1908 23.6126,14.3802 23.8691,14.6328 C24.1257,14.8854 24.3255,15.2025 24.4688,15.584 C24.612,15.9655 24.6836,16.4115 24.6836,16.9219 L24.6836,17.3789 L19.6172,17.3789 L19.6172,16.3477 L23.1172,16.3477 C23.1172,16.1081 23.0651,15.8958 22.9609,15.7109 C22.8568,15.526 22.7129,15.3809 22.5293,15.2754 C22.3457,15.1699 22.1328,15.1172 21.8906,15.1172 C21.638,15.1172 21.4147,15.1751 21.2207,15.291 C21.0267,15.4069 20.875,15.5618 20.7656,15.7559 C20.6563,15.9499 20.6003,16.1654 20.5977,16.4023 L20.5977,17.3828 C20.5977,17.6797 20.653,17.9362 20.7637,18.1523 C20.8743,18.3685 21.0313,18.5352 21.2344,18.6523 C21.4375,18.7695 21.6784,18.8281 21.957,18.8281 C22.1419,18.8281 22.3112,18.8021 22.4648,18.75 C22.6185,18.6979 22.75,18.6198 22.8594,18.5156 C22.9688,18.4115 23.0521,18.2839 23.1094,18.1328 L24.6484,18.2344 C24.5703,18.6042 24.4108,18.9264 24.1699,19.2012 C23.929,19.4759 23.6191,19.6895 23.2402,19.8418 C22.8613,19.9941 22.4245,20.0703 21.9297,20.0703 M25.7578,19.9531 L25.7578,13.9531 L27.3438,13.9531 L27.3438,15.0117 L27.4141,15.0117 C27.5391,14.6602 27.7474,14.3828 28.0391,14.1797 C28.3307,13.9766 28.6797,13.875 29.0859,13.875 C29.4974,13.875 29.8477,13.9772 30.1367,14.1816 C30.4258,14.3861 30.6185,14.6628 30.7148,15.0117 L30.7773,15.0117 C30.8997,14.668 31.1217,14.3926 31.4434,14.1855 C31.765,13.9785 32.1458,13.875 32.5859,13.875 C33.1458,13.875 33.6009,14.0527 33.9512,14.4082 C34.3014,14.7637 34.4766,15.2669 34.4766,15.918 L34.4766,19.9531 L32.8164,19.9531 L32.8164,16.2461 C32.8164,15.9128 32.7279,15.6628 32.5508,15.4961 C32.3737,15.3294 32.1523,15.2461 31.8867,15.2461 C31.5846,15.2461 31.349,15.3418 31.1797,15.5332 C31.0104,15.7246 30.9258,15.9766 30.9258,16.2891 L30.9258,19.9531 L29.3125,19.9531 L29.3125,16.2109 C29.3125,15.9167 29.2285,15.6823 29.0605,15.5078 C28.8926,15.3333 28.6719,15.2461 28.3984,15.2461 C28.2135,15.2461 28.0475,15.2923 27.9004,15.3848 C27.7533,15.4772 27.6367,15.6061 27.5508,15.7715 C27.4648,15.9368 27.4219,16.1302 27.4219,16.3516 L27.4219,19.9531 L25.7578,19.9531"/>
</g>

<g fill="#ffffff" fill-opacity="1" stroke="none" transform="matrix(1,0,0,1,0,0)"
font-family="Inter" font-size="11" font-weight="700" font-style="normal" 
>
<path vector-effect="none" fill-rule="nonzero" d="M76.5625,20.1172 C75.9557,20.1172 75.4316,19.9876 74.9902,19.7285 C74.5488,19.4694 74.2083,19.1074 73.9688,18.6426 C73.7292,18.1777 73.6094,17.638 73.6094,17.0234 C73.6094,16.4036 73.7292,15.8613 73.9688,15.3965 C74.2083,14.9316 74.5488,14.5697 74.9902,14.3105 C75.4316,14.0514 75.9557,13.9219 76.5625,13.9219 C77.1693,13.9219 77.6934,14.0514 78.1348,14.3105 C78.5762,14.5697 78.9167,14.9316 79.1563,15.3965 C79.3958,15.8613 79.5156,16.4036 79.5156,17.0234 C79.5156,17.638 79.3958,18.1777 79.1563,18.6426 C78.9167,19.1074 78.5762,19.4694 78.1348,19.7285 C77.6934,19.9876 77.1693,20.1172 76.5625,20.1172 M76.5703,18.8281 C76.8464,18.8281 77.0768,18.7493 77.2617,18.5918 C77.4466,18.4342 77.5866,18.2188 77.6816,17.9453 C77.7767,17.6719 77.8242,17.3607 77.8242,17.0117 C77.8242,16.6628 77.7767,16.3516 77.6816,16.0781 C77.5866,15.8047 77.4466,15.5885 77.2617,15.4297 C77.0768,15.2708 76.8464,15.1914 76.5703,15.1914 C76.2917,15.1914 76.0579,15.2708 75.8691,15.4297 C75.6803,15.5885 75.5384,15.8047 75.4434,16.0781 C75.3483,16.3516 75.3008,16.6628 75.3008,17.0117 C75.3008,17.3607 75.3483,17.6719 75.4434,17.9453 C75.5384,18.2188 75.6803,18.4342 75.8691,18.5918 C76.0579,18.7493 76.2917,18.8281 76.5703,18.8281 M83.8281,14 L83.8281,15.25 L80.125,15.25 L80.125,14 L83.8281,14 M80.9727,20 L80.9727,13.5664 C80.9727,13.1315 81.0579,12.7708 81.2285,12.4844 C81.3991,12.1979 81.6328,11.9831 81.9297,11.8398 C82.2266,11.6966 82.5638,11.625 82.9414,11.625 C83.1966,11.625 83.4303,11.6445 83.6426,11.6836 C83.8548,11.7227 84.013,11.7578 84.1172,11.7891 L83.8203,13.0391 C83.7552,13.0182 83.6751,12.9987 83.5801,12.9805 C83.485,12.9622 83.388,12.9531 83.2891,12.9531 C83.0443,12.9531 82.8737,13.0098 82.7773,13.123 C82.681,13.2363 82.6328,13.3945 82.6328,13.5977 L82.6328,20 L80.9727,20"/>
</g>

<g fill="#ffffff" fill-opacity="1" stroke="none" transform="matrix(1,0,0,1,0,0)"
font-family="Inter" font-size="11" font-weight="700" font-style="normal" 
>
</g>

<g fill="#ffffff" fill-opacity="1" stroke="none" transform="matrix(1,0,0,1,0,0)"
font-family="Inter" font-size="11" font-weight="700" font-style="normal" 
>
</g>

<g fill="#ff661a" fill-opacity="1" stroke="#de4600" stroke-opacity="1" stroke-width="1.2" stroke-linecap="square" stroke-linejoin="bevel" transform="matrix(1,0,0,1,90.4,4)"
font-family="Inter" font-size="11" font-weight="700" font-style="normal" 
>
<path vector-effect="none" fill-rule="evenodd" d="M0.5,3.5 C0.5,1.84315 1.84315,0.5 3.5,0.5 L44,0.5 C45.6569,0.5 47,1.84315 47,3.5 L47,20.5 C47,22.1569 45.6569,23.5 44,23.5 L3.5,23.5 C1.84315,23.5 0.5,22.1569 0.5,20.5 L0.5,3.5"/>
</g>

<g fill="#ffffff" fill-opacity="1" stroke="none" transform="matrix(1,0,0,1,90.4,4)"
font-family="Inter" font-size="11" font-weight="700" font-style="normal" 
>
<path vector-effect="none" fill-rule="nonzero" d="M11.1719,7.95313 L11.1719,15.9531 L9.50781,15.9531 L9.50781,7.95313 L11.1719,7.95313 M12.4922,15.9531 L12.4922,9.95313 L14.1563,9.95313 L14.1563,15.9531 L12.4922,15.9531 M13.3281,9.17969 C13.0807,9.17969 12.8691,9.09701 12.6934,8.93164 C12.5176,8.76628 12.4297,8.56771 12.4297,8.33594 C12.4297,8.10677 12.5176,7.90951 12.6934,7.74414 C12.8691,7.57878 13.0807,7.49609 13.3281,7.49609 C13.5755,7.49609 13.7871,7.57878 13.9629,7.74414 C14.1387,7.90951 14.2266,8.10677 14.2266,8.33594 C14.2266,8.56771 14.1387,8.76628 13.9629,8.93164 C13.7871,9.09701 13.5755,9.17969 13.3281,9.17969 M20.4688,11.6641 L18.9453,11.7578 C18.9193,11.6276 18.8633,11.5098 18.7773,11.4043 C18.6914,11.2988 18.5788,11.2142 18.4395,11.1504 C18.3001,11.0866 18.1341,11.0547 17.9414,11.0547 C17.6836,11.0547 17.4661,11.1087 17.2891,11.2168 C17.112,11.3249 17.0234,11.4688 17.0234,11.6484 C17.0234,11.7917 17.0807,11.9128 17.1953,12.0117 C17.3099,12.1107 17.5065,12.1901 17.7852,12.25 L18.8711,12.4688 C19.4544,12.5885 19.8893,12.7813 20.1758,13.0469 C20.4622,13.3125 20.6055,13.6615 20.6055,14.0938 C20.6055,14.487 20.4902,14.832 20.2598,15.1289 C20.0293,15.4258 19.7142,15.6569 19.3145,15.8223 C18.9147,15.9876 18.4544,16.0703 17.9336,16.0703 C17.1393,16.0703 16.5072,15.9043 16.0371,15.5723 C15.5671,15.2402 15.2917,14.7878 15.2109,14.2148 L16.8477,14.1289 C16.8971,14.3711 17.0169,14.5553 17.207,14.6816 C17.3971,14.8079 17.6406,14.8711 17.9375,14.8711 C18.2292,14.8711 18.4642,14.8145 18.6426,14.7012 C18.821,14.5879 18.9115,14.4414 18.9141,14.2617 C18.9115,14.1107 18.8477,13.9863 18.7227,13.8887 C18.5977,13.791 18.4049,13.7161 18.1445,13.6641 L17.1055,13.457 C16.5195,13.3398 16.084,13.1367 15.7988,12.8477 C15.5137,12.5586 15.3711,12.1901 15.3711,11.7422 C15.3711,11.3568 15.4759,11.0247 15.6855,10.7461 C15.8952,10.4674 16.1908,10.2526 16.5723,10.1016 C16.9538,9.95052 17.401,9.875 17.9141,9.875 C18.6719,9.875 19.2689,10.0352 19.7051,10.3555 C20.1413,10.6758 20.3958,11.112 20.4688,11.6641 M24.8398,9.95313 L24.8398,11.2031 L21.2266,11.2031 L21.2266,9.95313 L24.8398,9.95313 M22.0469,8.51563 L23.7109,8.51563 L23.7109,14.1094 C23.7109,14.263 23.7344,14.3822 23.7813,14.4668 C23.8281,14.5514 23.8939,14.6107 23.9785,14.6445 C24.0632,14.6784 24.1615,14.6953 24.2734,14.6953 C24.3516,14.6953 24.4297,14.6882 24.5078,14.6738 C24.5859,14.6595 24.6458,14.6484 24.6875,14.6406 L24.9492,15.8789 C24.8659,15.9049 24.7487,15.9355 24.5977,15.9707 C24.4466,16.0059 24.263,16.0273 24.0469,16.0352 C23.6458,16.0508 23.2949,15.9974 22.9941,15.875 C22.6934,15.7526 22.4596,15.5625 22.293,15.3047 C22.1263,15.0469 22.0443,14.7214 22.0469,14.3281 L22.0469,8.51563"/>
</g>

<g fill="#ffffff" fill-opacity="1" stroke="none" transform="matrix(0.03125,0,0,0.03125,123.9,12)"
font-family="Inter" font-size="11" font-weight="700" font-style="normal" 
>
<path vector-effect="none" fill-rule="nonzero" d="M111.326,191.938 C120.545,201.158 135.517,201.158 144.737,191.938 L239.144,97.5313 C245.929,90.7458 247.921,80.6413 244.233,71.7907 C240.545,62.9401 231.989,57.1871 222.401,57.1871 L33.5875,57.2608 C24.0731,57.2608 15.4437,63.0137 11.7559,71.8644 C8.06815,80.715 10.1333,90.8195 16.845,97.605 L111.252,192.012 L111.326,191.938"/>
</g>

<g fill="none" stroke="#000000" stroke-opacity="1" stroke-width="13.7195" stroke-linecap="butt" stroke-linejoin="miter" stroke-miterlimit="4" transform="matrix(0.03125,0,0,0.03125,123.9,12)"
font-family="Inter" font-size="11" font-weight="700" font-style="normal" 
>
<path vector-effect="none" fill-rule="nonzero" d="M111.326,191.938 C120.545,201.158 135.517,201.158 144.737,191.938 L239.144,97.5313 C245.929,90.7458 247.921,80.6413 244.233,71.7907 C240.545,62.9401 231.989,57.1871 222.401,57.1871 L33.5875,57.2608 C24.0731,57.2608 15.4437,63.0137 11.7559,71.8644 C8.06815,80.715 10.1333,90.8195 16.845,97.605 L111.252,192.012 L111.326,191.938"/>
</g>

<g fill="#ffffff" fill-opacity="1" stroke="none" transform="matrix(1,0,0,1,90.4,4)"
font-family="Inter" font-size="11" font-weight="700" font-style="normal" 
>
</g>

<g fill="#ffffff" fill-opacity="1" stroke="none" transform="matrix(1,0,0,1,0,0)"
font-family="Inter" font-size="11" font-weight="700" font-style="normal" 
>
</g>

<g fill="#ffffff" fill-opacity="1" stroke="#ca4000" stroke-opacity="1" stroke-width="1.2" stroke-linecap="square" stroke-linejoin="bevel" transform="matrix(1,0,0,1,41,5)"
font-family="Inter" font-size="11" font-weight="700" font-style="normal" 
>
<path vector-effect="none" fill-rule="evenodd" d="M1,11 C1,5.47715 5.92487,1 12,1 L14.4,1 C20.4751,1 25.4,5.47715 25.4,11 C25.4,16.5228 20.4751,21 14.4,21 L12,21 C5.92487,21 1,16.5228 1,11 "/>
</g>

<g fill="#000000" fill-opacity="1" stroke="none" transform="matrix(1,0,0,1,41,5)"
font-family="Inter" font-size="10" font-weight="700" font-style="normal" 
>
<path vector-effect="none" fill-rule="nonzero" d="M14.5817,7.22727 L14.5817,14.5 L13.044,14.5 L13.044,8.68679 L13.0014,8.68679 L11.3359,9.73082 L11.3359,8.36719 L13.1364,7.22727 L14.5817,7.22727"/>
</g>

<g fill="#ffffff" fill-opacity="1" stroke="none" transform="matrix(1,0,0,1,0,0)"
font-family="Inter" font-size="11" font-weight="700" font-style="normal" 
>
</g>

<g fill="none" stroke="#000000" stroke-opacity="1" stroke-width="1" stroke-linecap="square" stroke-linejoin="bevel" transform="matrix(1,0,0,1,0,0)"
font-family=".AppleSystemUIFont" font-size="13" font-weight="400" font-style="normal" 
>
</g>
</g>
</svg>
