<?xml version="1.0" encoding="UTF-8" standalone="no"?>
<svg width="115.006mm" height="15.5222mm"
 viewBox="0 0 326 44"
 xmlns="http://www.w3.org/2000/svg" xmlns:xlink="http://www.w3.org/1999/xlink" version="1.2" baseProfile="tiny">
<title>Abstract block</title>
<desc>block_hubs_all_sensors_port_technic_sensor_set_mode</desc>
<defs>
</defs>
<g fill="none" stroke="black" stroke-width="1" fill-rule="evenodd" stroke-linecap="square" stroke-linejoin="bevel" >

<g fill="none" stroke="#000000" stroke-opacity="1" stroke-width="1" stroke-linecap="square" stroke-linejoin="bevel" transform="matrix(1,0,0,1,0,0)"
font-family=".AppleSystemUIFont" font-size="13" font-weight="400" font-style="normal" 
>
</g>

<g fill="none" stroke="#000000" stroke-opacity="1" stroke-width="1" stroke-linecap="square" stroke-linejoin="bevel" transform="matrix(1,0,0,1,0,0)"
font-family=".AppleSystemUIFont" font-size="13" font-weight="400" font-style="normal" 
>
</g>

<g fill="#1dccf0" fill-opacity="1" stroke="#0da6c5" stroke-opacity="1" stroke-width="1.2" stroke-linecap="square" stroke-linejoin="bevel" transform="matrix(1,0,0,1,0,0)"
font-family=".AppleSystemUIFont" font-size="13" font-weight="400" font-style="normal" 
>
<path vector-effect="none" fill-rule="evenodd" d="M0.5,4.5 L1.04612,2.48112 L2.48112,1.04612 L4.5,0.5 L9.625,0.5 L10.416,0.976563 L11.1719,1.6875 L11.998,2.67969 L13,4 L13.7559,4.66016 L14.5469,5.15625 L15.4082,5.51172 L16.375,5.75 L17.4824,5.89453 L18.7656,5.96875 L20.2598,5.99609 L22,6 L23.7402,5.99609 L25.2344,5.96875 L26.5176,5.89453 L27.625,5.75 L28.5918,5.51172 L29.4531,5.15625 L30.2441,4.66016 L31,4 L32.002,2.67969 L32.8281,1.6875 L33.584,0.976563 L34.375,0.5 L321,0.5 L323.019,1.04612 L324.454,2.48112 L325,4.5 L325,31.5 L324.454,33.5189 L323.019,34.9539 L321,35.5 L34.375,35.5 L33.584,35.9766 L32.8281,36.6875 L32.002,37.6797 L31,39 L30.2441,39.6602 L29.4531,40.1563 L28.5918,40.5117 L27.625,40.75 L26.5176,40.8945 L25.2344,40.9688 L23.7402,40.9961 L22,41 L20.2598,40.9961 L18.7656,40.9688 L17.4824,40.8945 L16.375,40.75 L15.4082,40.5117 L14.5469,40.1563 L13.7559,39.6602 L13,39 L11.998,37.6797 L11.1719,36.6875 L10.416,35.9766 L9.625,35.5 L4.5,35.5 L2.48112,34.9539 L1.04612,33.5189 L0.5,31.5 L0.5,4.5"/>
</g>

<g fill="#ffffff" fill-opacity="1" stroke="none" transform="matrix(1,0,0,1,0,0)"
font-family="Inter" font-size="11" font-weight="700" font-style="normal" 
>
<path vector-effect="none" fill-rule="nonzero" d="M186.5,17.4453 L184.977,17.5391 C184.951,17.4089 184.895,17.291 184.809,17.1855 C184.723,17.0801 184.61,16.9954 184.471,16.9316 C184.331,16.8678 184.165,16.8359 183.973,16.8359 C183.715,16.8359 183.497,16.89 183.32,16.998 C183.143,17.1061 183.055,17.25 183.055,17.4297 C183.055,17.5729 183.112,17.694 183.227,17.793 C183.341,17.8919 183.538,17.9714 183.816,18.0313 L184.902,18.25 C185.486,18.3698 185.921,18.5625 186.207,18.8281 C186.493,19.0938 186.637,19.4427 186.637,19.875 C186.637,20.2682 186.521,20.6133 186.291,20.9102 C186.061,21.207 185.745,21.4382 185.346,21.6035 C184.946,21.7689 184.486,21.8516 183.965,21.8516 C183.171,21.8516 182.538,21.6855 182.068,21.3535 C181.598,21.0215 181.323,20.569 181.242,19.9961 L182.879,19.9102 C182.928,20.1523 183.048,20.3366 183.238,20.4629 C183.428,20.5892 183.672,20.6523 183.969,20.6523 C184.26,20.6523 184.495,20.5957 184.674,20.4824 C184.852,20.3691 184.943,20.2227 184.945,20.043 C184.943,19.8919 184.879,19.7676 184.754,19.6699 C184.629,19.5723 184.436,19.4974 184.176,19.4453 L183.137,19.2383 C182.551,19.1211 182.115,18.918 181.83,18.6289 C181.545,18.3398 181.402,17.9714 181.402,17.5234 C181.402,17.138 181.507,16.806 181.717,16.5273 C181.926,16.2487 182.222,16.0339 182.604,15.8828 C182.985,15.7318 183.432,15.6563 183.945,15.6563 C184.703,15.6563 185.3,15.8164 185.736,16.1367 C186.173,16.457 186.427,16.8932 186.5,17.4453 M190.414,21.8516 C189.797,21.8516 189.266,21.7259 188.822,21.4746 C188.378,21.2233 188.036,20.8665 187.797,20.4043 C187.557,19.9421 187.438,19.3945 187.438,18.7617 C187.438,18.1445 187.557,17.6029 187.797,17.1367 C188.036,16.6706 188.374,16.3073 188.811,16.0469 C189.247,15.7865 189.759,15.6563 190.348,15.6563 C190.743,15.6563 191.113,15.7194 191.455,15.8457 C191.798,15.972 192.097,16.1615 192.354,16.4141 C192.61,16.6667 192.81,16.9837 192.953,17.3652 C193.096,17.7467 193.168,18.1927 193.168,18.7031 L193.168,19.1602 L188.102,19.1602 L188.102,18.1289 L191.602,18.1289 C191.602,17.8893 191.549,17.6771 191.445,17.4922 C191.341,17.3073 191.197,17.1621 191.014,17.0566 C190.83,16.9512 190.617,16.8984 190.375,16.8984 C190.122,16.8984 189.899,16.9564 189.705,17.0723 C189.511,17.1882 189.359,17.3431 189.25,17.5371 C189.141,17.7311 189.085,17.9466 189.082,18.1836 L189.082,19.1641 C189.082,19.4609 189.137,19.7174 189.248,19.9336 C189.359,20.1497 189.516,20.3164 189.719,20.4336 C189.922,20.5508 190.163,20.6094 190.441,20.6094 C190.626,20.6094 190.796,20.5833 190.949,20.5313 C191.103,20.4792 191.234,20.401 191.344,20.2969 C191.453,20.1927 191.536,20.0651 191.594,19.9141 L193.133,20.0156 C193.055,20.3854 192.895,20.7077 192.654,20.9824 C192.413,21.2572 192.104,21.4707 191.725,21.623 C191.346,21.7754 190.909,21.8516 190.414,21.8516 M197.434,15.7344 L197.434,16.9844 L193.82,16.9844 L193.82,15.7344 L197.434,15.7344 M194.641,14.2969 L196.305,14.2969 L196.305,19.8906 C196.305,20.0443 196.328,20.1634 196.375,20.248 C196.422,20.3327 196.488,20.3919 196.572,20.4258 C196.657,20.4596 196.755,20.4766 196.867,20.4766 C196.945,20.4766 197.023,20.4694 197.102,20.4551 C197.18,20.4408 197.24,20.4297 197.281,20.4219 L197.543,21.6602 C197.46,21.6862 197.342,21.7168 197.191,21.752 C197.04,21.7871 196.857,21.8086 196.641,21.8164 C196.24,21.832 195.889,21.7786 195.588,21.6563 C195.287,21.5339 195.053,21.3438 194.887,21.0859 C194.72,20.8281 194.638,20.5026 194.641,20.1094 L194.641,14.2969 M201.055,21.7344 L201.055,15.7344 L202.641,15.7344 L202.641,16.793 L202.711,16.793 C202.836,16.4414 203.044,16.1641 203.336,15.9609 C203.628,15.7578 203.977,15.6563 204.383,15.6563 C204.794,15.6563 205.145,15.7585 205.434,15.9629 C205.723,16.1673 205.915,16.444 206.012,16.793 L206.074,16.793 C206.197,16.4492 206.419,16.1738 206.74,15.9668 C207.062,15.7598 207.443,15.6563 207.883,15.6563 C208.443,15.6563 208.898,15.834 209.248,16.1895 C209.598,16.5449 209.773,17.0482 209.773,17.6992 L209.773,21.7344 L208.113,21.7344 L208.113,18.0273 C208.113,17.694 208.025,17.444 207.848,17.2773 C207.671,17.1107 207.449,17.0273 207.184,17.0273 C206.882,17.0273 206.646,17.123 206.477,17.3145 C206.307,17.5059 206.223,17.7578 206.223,18.0703 L206.223,21.7344 L204.609,21.7344 L204.609,17.9922 C204.609,17.6979 204.525,17.4635 204.357,17.2891 C204.189,17.1146 203.969,17.0273 203.695,17.0273 C203.51,17.0273 203.344,17.0736 203.197,17.166 C203.05,17.2585 202.934,17.3874 202.848,17.5527 C202.762,17.7181 202.719,17.9115 202.719,18.1328 L202.719,21.7344 L201.055,21.7344 M213.797,21.8516 C213.19,21.8516 212.666,21.722 212.225,21.4629 C211.783,21.2038 211.443,20.8418 211.203,20.377 C210.964,19.9121 210.844,19.3724 210.844,18.7578 C210.844,18.138 210.964,17.5957 211.203,17.1309 C211.443,16.666 211.783,16.304 212.225,16.0449 C212.666,15.7858 213.19,15.6563 213.797,15.6563 C214.404,15.6563 214.928,15.7858 215.369,16.0449 C215.811,16.304 216.151,16.666 216.391,17.1309 C216.63,17.5957 216.75,18.138 216.75,18.7578 C216.75,19.3724 216.63,19.9121 216.391,20.377 C216.151,20.8418 215.811,21.2038 215.369,21.4629 C214.928,21.722 214.404,21.8516 213.797,21.8516 M213.805,20.5625 C214.081,20.5625 214.311,20.4837 214.496,20.3262 C214.681,20.1686 214.821,19.9531 214.916,19.6797 C215.011,19.4063 215.059,19.0951 215.059,18.7461 C215.059,18.3971 215.011,18.0859 214.916,17.8125 C214.821,17.5391 214.681,17.3229 214.496,17.1641 C214.311,17.0052 214.081,16.9258 213.805,16.9258 C213.526,16.9258 213.292,17.0052 213.104,17.1641 C212.915,17.3229 212.773,17.5391 212.678,17.8125 C212.583,18.0859 212.535,18.3971 212.535,18.7461 C212.535,19.0951 212.583,19.4063 212.678,19.6797 C212.773,19.9531 212.915,20.1686 213.104,20.3262 C213.292,20.4837 213.526,20.5625 213.805,20.5625 M220.047,21.832 C219.591,21.832 219.179,21.7142 218.811,21.4785 C218.442,21.2428 218.15,20.8952 217.936,20.4355 C217.721,19.9759 217.613,19.4115 217.613,18.7422 C217.613,18.0547 217.724,17.4824 217.945,17.0254 C218.167,16.5684 218.462,16.2259 218.83,15.998 C219.199,15.7702 219.603,15.6563 220.043,15.6563 C220.379,15.6563 220.66,15.7129 220.885,15.8262 C221.11,15.9395 221.292,16.0801 221.432,16.248 C221.571,16.416 221.677,16.5807 221.75,16.7422 L221.801,16.7422 L221.801,13.7344 L223.461,13.7344 L223.461,21.7344 L221.82,21.7344 L221.82,20.7734 L221.75,20.7734 C221.672,20.9401 221.562,21.1048 221.42,21.2676 C221.278,21.4303 221.094,21.5651 220.869,21.6719 C220.644,21.7786 220.37,21.832 220.047,21.832 M220.574,20.5078 C220.842,20.5078 221.07,20.4342 221.256,20.2871 C221.442,20.14 221.585,19.9336 221.686,19.668 C221.786,19.4023 221.836,19.0911 221.836,18.7344 C221.836,18.3776 221.786,18.0677 221.688,17.8047 C221.589,17.5417 221.445,17.3385 221.258,17.1953 C221.07,17.0521 220.842,16.9805 220.574,16.9805 C220.301,16.9805 220.07,17.0547 219.883,17.2031 C219.695,17.3516 219.553,17.5573 219.457,17.8203 C219.361,18.0833 219.313,18.388 219.313,18.7344 C219.313,19.0833 219.361,19.3913 219.459,19.6582 C219.557,19.9251 219.699,20.1335 219.885,20.2832 C220.071,20.4329 220.301,20.5078 220.574,20.5078 M227.555,21.8516 C226.938,21.8516 226.407,21.7259 225.963,21.4746 C225.519,21.2233 225.177,20.8665 224.938,20.4043 C224.698,19.9421 224.578,19.3945 224.578,18.7617 C224.578,18.1445 224.698,17.6029 224.938,17.1367 C225.177,16.6706 225.515,16.3073 225.951,16.0469 C226.387,15.7865 226.9,15.6563 227.488,15.6563 C227.884,15.6563 228.253,15.7194 228.596,15.8457 C228.938,15.972 229.238,16.1615 229.494,16.4141 C229.751,16.6667 229.951,16.9837 230.094,17.3652 C230.237,17.7467 230.309,18.1927 230.309,18.7031 L230.309,19.1602 L225.242,19.1602 L225.242,18.1289 L228.742,18.1289 C228.742,17.8893 228.69,17.6771 228.586,17.4922 C228.482,17.3073 228.338,17.1621 228.154,17.0566 C227.971,16.9512 227.758,16.8984 227.516,16.8984 C227.263,16.8984 227.04,16.9564 226.846,17.0723 C226.652,17.1882 226.5,17.3431 226.391,17.5371 C226.281,17.7311 226.225,17.9466 226.223,18.1836 L226.223,19.1641 C226.223,19.4609 226.278,19.7174 226.389,19.9336 C226.499,20.1497 226.656,20.3164 226.859,20.4336 C227.063,20.5508 227.303,20.6094 227.582,20.6094 C227.767,20.6094 227.936,20.5833 228.09,20.5313 C228.243,20.4792 228.375,20.401 228.484,20.2969 C228.594,20.1927 228.677,20.0651 228.734,19.9141 L230.273,20.0156 C230.195,20.3854 230.036,20.7077 229.795,20.9824 C229.554,21.2572 229.244,21.4707 228.865,21.623 C228.486,21.7754 228.049,21.8516 227.555,21.8516 M237.121,15.7344 L237.121,16.9844 L233.508,16.9844 L233.508,15.7344 L237.121,15.7344 M234.328,14.2969 L235.992,14.2969 L235.992,19.8906 C235.992,20.0443 236.016,20.1634 236.063,20.248 C236.109,20.3327 236.175,20.3919 236.26,20.4258 C236.344,20.4596 236.443,20.4766 236.555,20.4766 C236.633,20.4766 236.711,20.4694 236.789,20.4551 C236.867,20.4408 236.927,20.4297 236.969,20.4219 L237.23,21.6602 C237.147,21.6862 237.03,21.7168 236.879,21.752 C236.728,21.7871 236.544,21.8086 236.328,21.8164 C235.927,21.832 235.576,21.7786 235.275,21.6563 C234.975,21.5339 234.741,21.3438 234.574,21.0859 C234.408,20.8281 234.326,20.5026 234.328,20.1094 L234.328,14.2969 M240.844,21.8516 C240.237,21.8516 239.713,21.722 239.271,21.4629 C238.83,21.2038 238.49,20.8418 238.25,20.377 C238.01,19.9121 237.891,19.3724 237.891,18.7578 C237.891,18.138 238.01,17.5957 238.25,17.1309 C238.49,16.666 238.83,16.304 239.271,16.0449 C239.713,15.7858 240.237,15.6563 240.844,15.6563 C241.451,15.6563 241.975,15.7858 242.416,16.0449 C242.857,16.304 243.198,16.666 243.438,17.1309 C243.677,17.5957 243.797,18.138 243.797,18.7578 C243.797,19.3724 243.677,19.9121 243.438,20.377 C243.198,20.8418 242.857,21.2038 242.416,21.4629 C241.975,21.722 241.451,21.8516 240.844,21.8516 M240.852,20.5625 C241.128,20.5625 241.358,20.4837 241.543,20.3262 C241.728,20.1686 241.868,19.9531 241.963,19.6797 C242.058,19.4063 242.105,19.0951 242.105,18.7461 C242.105,18.3971 242.058,18.0859 241.963,17.8125 C241.868,17.5391 241.728,17.3229 241.543,17.1641 C241.358,17.0052 241.128,16.9258 240.852,16.9258 C240.573,16.9258 240.339,17.0052 240.15,17.1641 C239.962,17.3229 239.82,17.5391 239.725,17.8125 C239.63,18.0859 239.582,18.3971 239.582,18.7461 C239.582,19.0951 239.63,19.4063 239.725,19.6797 C239.82,19.9531 239.962,20.1686 240.15,20.3262 C240.339,20.4837 240.573,20.5625 240.852,20.5625 "/>
</g>

<g fill="#ffffff" fill-opacity="1" stroke="none" transform="matrix(0.0285,0,0,0.0285,11.2928,9.44754)"
font-family="Inter" font-size="11" font-weight="700" font-style="normal" 
>
<path vector-effect="none" fill-rule="nonzero" d="M97.5863,60.6191 C80.1143,60.6191 66.0472,74.6862 66.0472,92.1582 L66.0472,718.541 C66.0472,736.013 80.1143,750.08 97.5863,750.08 L723.969,750.08 C741.441,750.08 755.508,736.013 755.508,718.541 L755.508,92.1582 C755.508,74.6862 741.441,60.6191 723.969,60.6191 L97.5863,60.6191 M410.733,204.078 C521.886,204.053 612.016,294.136 612.049,405.289 L612.049,405.35 C612.05,516.503 521.947,606.613 410.793,606.621 C299.639,606.63 209.522,516.533 209.506,405.379 C209.49,294.226 299.58,204.102 410.733,204.078 "/>
</g>

<g fill="none" stroke="#000000" stroke-opacity="1" stroke-width="20" stroke-linecap="round" stroke-linejoin="round" transform="matrix(0.0285,0,0,0.0285,11.2928,9.44754)"
font-family="Inter" font-size="11" font-weight="700" font-style="normal" 
>
<path vector-effect="none" fill-rule="nonzero" d="M97.5863,60.6191 C80.1143,60.6191 66.0472,74.6862 66.0472,92.1582 L66.0472,718.541 C66.0472,736.013 80.1143,750.08 97.5863,750.08 L723.969,750.08 C741.441,750.08 755.508,736.013 755.508,718.541 L755.508,92.1582 C755.508,74.6862 741.441,60.6191 723.969,60.6191 L97.5863,60.6191 M410.733,204.078 C521.886,204.053 612.016,294.136 612.049,405.289 L612.049,405.35 C612.05,516.503 521.947,606.613 410.793,606.621 C299.639,606.63 209.522,516.533 209.506,405.379 C209.49,294.226 299.58,204.102 410.733,204.078 "/>
</g>

<g fill="#000000" fill-opacity="1" stroke="none" transform="matrix(0.0285,0,0,0.0285,11.2928,9.44754)"
font-family="Inter" font-size="11" font-weight="700" font-style="normal" 
>
<path vector-effect="none" fill-rule="nonzero" d="M234.666,164.596 C198.854,164.596 170.024,193.426 170.024,229.238 L170.024,581.461 C170.024,617.273 198.854,646.104 234.666,646.104 L586.889,646.104 C622.701,646.104 651.532,617.273 651.532,581.461 L651.532,229.238 C651.532,193.426 622.701,164.596 586.889,164.596 L234.666,164.596 M410.733,204.078 C521.886,204.053 612.016,294.136 612.049,405.289 L612.049,405.35 C612.05,516.503 521.947,606.613 410.793,606.621 C299.639,606.63 209.522,516.533 209.506,405.379 C209.49,294.226 299.58,204.102 410.733,204.078 "/>
</g>

<g fill="none" stroke="#000000" stroke-opacity="1" stroke-width="16.3975" stroke-linecap="round" stroke-linejoin="round" transform="matrix(0.0285,0,0,0.0285,11.2928,9.44754)"
font-family="Inter" font-size="11" font-weight="700" font-style="normal" 
>
<path vector-effect="none" fill-rule="nonzero" d="M234.666,164.596 C198.854,164.596 170.024,193.426 170.024,229.238 L170.024,581.461 C170.024,617.273 198.854,646.104 234.666,646.104 L586.889,646.104 C622.701,646.104 651.532,617.273 651.532,581.461 L651.532,229.238 C651.532,193.426 622.701,164.596 586.889,164.596 L234.666,164.596 M410.733,204.078 C521.886,204.053 612.016,294.136 612.049,405.289 L612.049,405.35 C612.05,516.503 521.947,606.613 410.793,606.621 C299.639,606.63 209.522,516.533 209.506,405.379 C209.49,294.226 299.58,204.102 410.733,204.078 "/>
</g>

<g fill="none" stroke="#000000" stroke-opacity="1" stroke-width="23.8667" stroke-linecap="round" stroke-linejoin="round" transform="matrix(0.0285,0,0,0.0285,11.2928,9.44754)"
font-family="Inter" font-size="11" font-weight="700" font-style="normal" 
>
<path vector-effect="none" fill-rule="nonzero" d="M528.568,405.35 C528.568,470.4 475.837,523.135 410.787,523.14 C345.736,523.145 292.997,470.418 292.987,405.367 C292.978,340.317 345.701,287.574 410.751,287.559 C475.802,287.545 528.549,340.264 528.568,405.314 "/>
</g>

<g fill="#ffffff" fill-opacity="1" stroke="none" transform="matrix(1,0,0,1,0,0)"
font-family="Inter" font-size="11" font-weight="700" font-style="normal" 
>
</g>

<g fill="#ffffff" fill-opacity="1" stroke="#0da6c5" stroke-opacity="1" stroke-width="1" stroke-linecap="square" stroke-linejoin="bevel" transform="matrix(1,0,0,1,0,0)"
font-family="Inter" font-size="11" font-weight="700" font-style="normal" 
>
<polyline fill="none" vector-effect="none" points="45,11 45,31 " />
</g>

<g fill="#ffffff" fill-opacity="1" stroke="#0da6c5" stroke-opacity="1" stroke-width="1" stroke-linecap="square" stroke-linejoin="bevel" transform="matrix(1,0,0,1,0,0)"
font-family="Inter" font-size="11" font-weight="700" font-style="normal" 
>
</g>

<g fill="#0da6c5" fill-opacity="1" stroke="#0da6c5" stroke-opacity="1" stroke-width="1.2" stroke-linecap="square" stroke-linejoin="bevel" transform="matrix(1,0,0,1,135,6)"
font-family="Inter" font-size="11" font-weight="700" font-style="normal" 
>
<path vector-effect="none" fill-rule="evenodd" d="M0.5,12 C0.5,5.64873 5.87258,0.5 12.5,0.5 L27.5,0.5 C34.1274,0.5 39.5,5.64873 39.5,12 C39.5,18.3513 34.1274,23.5 27.5,23.5 L12.5,23.5 C5.87258,23.5 0.5,18.3513 0.5,12 "/>
</g>

<g fill="#ffffff" fill-opacity="1" stroke="none" transform="matrix(1,0,0,1,135,6)"
font-family="Inter" font-size="11" font-weight="700" font-style="normal" 
>
<path vector-effect="none" fill-rule="nonzero" d="M11.8242,16 L10.0117,16 L12.7734,8 L14.9531,8 L17.7109,16 L15.8984,16 L13.8945,9.82813 L13.832,9.82813 L11.8242,16 M11.7109,12.8555 L15.9922,12.8555 L15.9922,14.1758 L11.7109,14.1758 L11.7109,12.8555"/>
</g>

<g fill="#ffffff" fill-opacity="1" stroke="none" transform="matrix(0.03125,0,0,0.03125,161,14)"
font-family="Inter" font-size="11" font-weight="700" font-style="normal" 
>
<path vector-effect="none" fill-rule="nonzero" d="M111.326,191.938 C120.545,201.158 135.517,201.158 144.737,191.938 L239.144,97.5313 C245.929,90.7458 247.921,80.6413 244.233,71.7907 C240.545,62.9401 231.989,57.1871 222.401,57.1871 L33.5875,57.2608 C24.0731,57.2608 15.4437,63.0137 11.7559,71.8644 C8.06815,80.715 10.1333,90.8195 16.845,97.605 L111.252,192.012 L111.326,191.938"/>
</g>

<g fill="none" stroke="#000000" stroke-opacity="1" stroke-width="13.7195" stroke-linecap="butt" stroke-linejoin="miter" stroke-miterlimit="4" transform="matrix(0.03125,0,0,0.03125,161,14)"
font-family="Inter" font-size="11" font-weight="700" font-style="normal" 
>
<path vector-effect="none" fill-rule="nonzero" d="M111.326,191.938 C120.545,201.158 135.517,201.158 144.737,191.938 L239.144,97.5313 C245.929,90.7458 247.921,80.6413 244.233,71.7907 C240.545,62.9401 231.989,57.1871 222.401,57.1871 L33.5875,57.2608 C24.0731,57.2608 15.4437,63.0137 11.7559,71.8644 C8.06815,80.715 10.1333,90.8195 16.845,97.605 L111.252,192.012 L111.326,191.938"/>
</g>

<g fill="#ffffff" fill-opacity="1" stroke="none" transform="matrix(1,0,0,1,135,6)"
font-family="Inter" font-size="11" font-weight="700" font-style="normal" 
>
</g>

<g fill="#ffffff" fill-opacity="1" stroke="#0da6c5" stroke-opacity="1" stroke-width="1" stroke-linecap="square" stroke-linejoin="bevel" transform="matrix(1,0,0,1,0,0)"
font-family="Inter" font-size="11" font-weight="700" font-style="normal" 
>
</g>

<g fill="#1dccf0" fill-opacity="1" stroke="#0da6c5" stroke-opacity="1" stroke-width="1.2" stroke-linecap="square" stroke-linejoin="bevel" transform="matrix(1,0,0,1,56,6)"
font-family="Inter" font-size="11" font-weight="700" font-style="normal" 
>
<path vector-effect="none" fill-rule="evenodd" d="M0.5,3.5 C0.5,1.84315 1.84315,0.5 3.5,0.5 L71.5,0.5 C73.1569,0.5 74.5,1.84315 74.5,3.5 L74.5,20.5 C74.5,22.1569 73.1569,23.5 71.5,23.5 L3.5,23.5 C1.84315,23.5 0.5,22.1569 0.5,20.5 L0.5,3.5"/>
</g>

<g fill="#ffffff" fill-opacity="1" stroke="none" transform="matrix(1,0,0,1,56,6)"
font-family="Inter" font-size="11" font-weight="700" font-style="normal" 
>
<path vector-effect="none" fill-rule="nonzero" d="M10,9.39453 L10,8 L16.5703,8 L16.5703,9.39453 L14.1211,9.39453 L14.1211,16 L12.4492,16 L12.4492,9.39453 L10,9.39453 M17.6484,16 L17.6484,8 L19.3398,8 L19.3398,11.3008 L22.7734,11.3008 L22.7734,8 L24.4609,8 L24.4609,16 L22.7734,16 L22.7734,12.6953 L19.3398,12.6953 L19.3398,16 L17.6484,16 M32.543,8 L32.543,16 L31.082,16 L27.6016,10.9648 L27.543,10.9648 L27.543,16 L25.8516,16 L25.8516,8 L27.3359,8 L30.7891,13.0313 L30.8594,13.0313 L30.8594,8 L32.543,8 M33.9297,16 L33.9297,8 L35.6211,8 L35.6211,11.3008 L39.0547,11.3008 L39.0547,8 L40.7422,8 L40.7422,16 L39.0547,16 L39.0547,12.6953 L35.6211,12.6953 L35.6211,16 L33.9297,16 M42.1328,16 L42.1328,8 L45.3359,8 C45.9245,8 46.4154,8.08724 46.8086,8.26172 C47.2018,8.4362 47.4974,8.67773 47.6953,8.98633 C47.8932,9.29492 47.9922,9.64974 47.9922,10.0508 C47.9922,10.3633 47.9297,10.6374 47.8047,10.873 C47.6797,11.1087 47.5085,11.3014 47.291,11.4512 C47.0736,11.6009 46.8255,11.707 46.5469,11.7695 L46.5469,11.8477 C46.8516,11.8607 47.1374,11.9466 47.4043,12.1055 C47.6712,12.2643 47.888,12.4863 48.0547,12.7715 C48.2214,13.0566 48.3047,13.3958 48.3047,13.7891 C48.3047,14.2135 48.1999,14.5918 47.9902,14.9238 C47.7806,15.2559 47.4714,15.5182 47.0625,15.7109 C46.6536,15.9036 46.1497,16 45.5508,16 L42.1328,16 M43.8242,14.6172 L45.2031,14.6172 C45.6745,14.6172 46.0182,14.5267 46.2344,14.3457 C46.4505,14.1647 46.5586,13.9232 46.5586,13.6211 C46.5586,13.3997 46.5052,13.2044 46.3984,13.0352 C46.2917,12.8659 46.14,12.7331 45.9434,12.6367 C45.7467,12.5404 45.513,12.4922 45.2422,12.4922 L43.8242,12.4922 L43.8242,14.6172 M43.8242,11.3477 L45.0781,11.3477 C45.3099,11.3477 45.5163,11.3066 45.6973,11.2246 C45.8783,11.1426 46.0215,11.026 46.127,10.875 C46.2324,10.724 46.2852,10.543 46.2852,10.332 C46.2852,10.043 46.1829,9.8099 45.9785,9.63281 C45.7741,9.45573 45.4844,9.36719 45.1094,9.36719 L43.8242,9.36719 L43.8242,11.3477 M52.832,8 L52.832,16 L51.1406,16 L51.1406,9.60547 L51.0938,9.60547 L49.2617,10.7539 L49.2617,9.25391 L51.2422,8 L52.832,8"/>
</g>

<g fill="#ffffff" fill-opacity="1" stroke="none" transform="matrix(0.03125,0,0,0.03125,117,14)"
font-family="Inter" font-size="11" font-weight="700" font-style="normal" 
>
<path vector-effect="none" fill-rule="nonzero" d="M111.326,191.938 C120.545,201.158 135.517,201.158 144.737,191.938 L239.144,97.5313 C245.929,90.7458 247.921,80.6413 244.233,71.7907 C240.545,62.9401 231.989,57.1871 222.401,57.1871 L33.5875,57.2608 C24.0731,57.2608 15.4437,63.0137 11.7559,71.8644 C8.06815,80.715 10.1333,90.8195 16.845,97.605 L111.252,192.012 L111.326,191.938"/>
</g>

<g fill="none" stroke="#000000" stroke-opacity="1" stroke-width="13.7195" stroke-linecap="butt" stroke-linejoin="miter" stroke-miterlimit="4" transform="matrix(0.03125,0,0,0.03125,117,14)"
font-family="Inter" font-size="11" font-weight="700" font-style="normal" 
>
<path vector-effect="none" fill-rule="nonzero" d="M111.326,191.938 C120.545,201.158 135.517,201.158 144.737,191.938 L239.144,97.5313 C245.929,90.7458 247.921,80.6413 244.233,71.7907 C240.545,62.9401 231.989,57.1871 222.401,57.1871 L33.5875,57.2608 C24.0731,57.2608 15.4437,63.0137 11.7559,71.8644 C8.06815,80.715 10.1333,90.8195 16.845,97.605 L111.252,192.012 L111.326,191.938"/>
</g>

<g fill="#ffffff" fill-opacity="1" stroke="none" transform="matrix(1,0,0,1,56,6)"
font-family="Inter" font-size="11" font-weight="700" font-style="normal" 
>
</g>

<g fill="#ffffff" fill-opacity="1" stroke="#0da6c5" stroke-opacity="1" stroke-width="1" stroke-linecap="square" stroke-linejoin="bevel" transform="matrix(1,0,0,1,0,0)"
font-family="Inter" font-size="11" font-weight="700" font-style="normal" 
>
</g>

<g fill="#ffffff" fill-opacity="1" stroke="#0da6c5" stroke-opacity="1" stroke-width="1" stroke-linecap="square" stroke-linejoin="bevel" transform="matrix(1,0,0,1,0,0)"
font-family="Inter" font-size="11" font-weight="700" font-style="normal" 
>
</g>

<g fill="#ffffff" fill-opacity="1" stroke="#0da6c5" stroke-opacity="1" stroke-width="1" stroke-linecap="square" stroke-linejoin="bevel" transform="matrix(1,0,0,1,0,0)"
font-family="Inter" font-size="11" font-weight="700" font-style="normal" 
>
</g>

<g fill="#1dccf0" fill-opacity="1" stroke="#0da6c5" stroke-opacity="1" stroke-width="1.2" stroke-linecap="square" stroke-linejoin="bevel" transform="matrix(1,0,0,1,251,6)"
font-family="Inter" font-size="11" font-weight="700" font-style="normal" 
>
<path vector-effect="none" fill-rule="evenodd" d="M0.5,3.5 C0.5,1.84315 1.84315,0.5 3.5,0.5 L65,0.5 C66.6569,0.5 68,1.84315 68,3.5 L68,20.5 C68,22.1569 66.6569,23.5 65,23.5 L3.5,23.5 C1.84315,23.5 0.5,22.1569 0.5,20.5 L0.5,3.5"/>
</g>

<g fill="#ffffff" fill-opacity="1" stroke="none" transform="matrix(1,0,0,1,251,6)"
font-family="Inter" font-size="11" font-weight="700" font-style="normal" 
>
<path vector-effect="none" fill-rule="nonzero" d="M11.9375,16.0195 C11.4818,16.0195 11.0697,15.9017 10.7012,15.666 C10.3327,15.4303 10.041,15.0827 9.82617,14.623 C9.61133,14.1634 9.50391,13.599 9.50391,12.9297 C9.50391,12.2422 9.61458,11.6699 9.83594,11.2129 C10.0573,10.7559 10.3522,10.4134 10.7207,10.1855 C11.0892,9.95768 11.4935,9.84375 11.9336,9.84375 C12.2695,9.84375 12.5501,9.90039 12.7754,10.0137 C13.0007,10.127 13.1829,10.2676 13.3223,10.4355 C13.4616,10.6035 13.5677,10.7682 13.6406,10.9297 L13.6914,10.9297 L13.6914,7.92188 L15.3516,7.92188 L15.3516,15.9219 L13.7109,15.9219 L13.7109,14.9609 L13.6406,14.9609 C13.5625,15.1276 13.4525,15.2923 13.3105,15.4551 C13.1686,15.6178 12.985,15.7526 12.7598,15.8594 C12.5345,15.9661 12.2604,16.0195 11.9375,16.0195 M12.4648,14.6953 C12.7331,14.6953 12.9603,14.6217 13.1465,14.4746 C13.3327,14.3275 13.4759,14.1211 13.5762,13.8555 C13.6764,13.5898 13.7266,13.2786 13.7266,12.9219 C13.7266,12.5651 13.6771,12.2552 13.5781,11.9922 C13.4792,11.7292 13.3359,11.526 13.1484,11.3828 C12.9609,11.2396 12.7331,11.168 12.4648,11.168 C12.1914,11.168 11.9609,11.2422 11.7734,11.3906 C11.5859,11.5391 11.444,11.7448 11.3477,12.0078 C11.2513,12.2708 11.2031,12.5755 11.2031,12.9219 C11.2031,13.2708 11.252,13.5788 11.3496,13.8457 C11.4473,14.1126 11.5892,14.321 11.7754,14.4707 C11.9616,14.6204 12.1914,14.6953 12.4648,14.6953 M19.4453,16.0391 C18.8281,16.0391 18.2975,15.9134 17.8535,15.6621 C17.4095,15.4108 17.0677,15.054 16.8281,14.5918 C16.5885,14.1296 16.4688,13.582 16.4688,12.9492 C16.4688,12.332 16.5885,11.7904 16.8281,11.3242 C17.0677,10.8581 17.4056,10.4948 17.8418,10.2344 C18.278,9.97396 18.7904,9.84375 19.3789,9.84375 C19.7747,9.84375 20.1439,9.9069 20.4863,10.0332 C20.8288,10.1595 21.1283,10.349 21.3848,10.6016 C21.6413,10.8542 21.8411,11.1712 21.9844,11.5527 C22.1276,11.9342 22.1992,12.3802 22.1992,12.8906 L22.1992,13.3477 L17.1328,13.3477 L17.1328,12.3164 L20.6328,12.3164 C20.6328,12.0768 20.5807,11.8646 20.4766,11.6797 C20.3724,11.4948 20.2285,11.3496 20.0449,11.2441 C19.8613,11.1387 19.6484,11.0859 19.4063,11.0859 C19.1536,11.0859 18.9303,11.1439 18.7363,11.2598 C18.5423,11.3757 18.3906,11.5306 18.2813,11.7246 C18.1719,11.9186 18.1159,12.1341 18.1133,12.3711 L18.1133,13.3516 C18.1133,13.6484 18.1686,13.9049 18.2793,14.1211 C18.39,14.3372 18.5469,14.5039 18.75,14.6211 C18.9531,14.7383 19.194,14.7969 19.4727,14.7969 C19.6576,14.7969 19.8268,14.7708 19.9805,14.7188 C20.1341,14.6667 20.2656,14.5885 20.375,14.4844 C20.4844,14.3802 20.5677,14.2526 20.625,14.1016 L22.1641,14.2031 C22.0859,14.5729 21.9264,14.8952 21.6855,15.1699 C21.4447,15.4447 21.1348,15.6582 20.7559,15.8105 C20.377,15.9629 19.9401,16.0391 19.4453,16.0391 M26.5,9.92188 L26.5,11.1719 L22.7969,11.1719 L22.7969,9.92188 L26.5,9.92188 M23.6445,15.9219 L23.6445,9.48828 C23.6445,9.05339 23.7298,8.69271 23.9004,8.40625 C24.071,8.11979 24.3047,7.90495 24.6016,7.76172 C24.8984,7.61849 25.2357,7.54688 25.6133,7.54688 C25.8685,7.54688 26.1022,7.56641 26.3145,7.60547 C26.5267,7.64453 26.6849,7.67969 26.7891,7.71094 L26.4922,8.96094 C26.4271,8.9401 26.347,8.92057 26.252,8.90234 C26.1569,8.88411 26.0599,8.875 25.9609,8.875 C25.7161,8.875 25.5456,8.93164 25.4492,9.04492 C25.3529,9.1582 25.3047,9.31641 25.3047,9.51953 L25.3047,15.9219 L23.6445,15.9219 M29,16.0352 C28.6172,16.0352 28.276,15.9681 27.9766,15.834 C27.6771,15.6999 27.4408,15.5007 27.2676,15.2363 C27.0944,14.972 27.0078,14.6419 27.0078,14.2461 C27.0078,13.9128 27.069,13.6328 27.1914,13.4063 C27.3138,13.1797 27.4805,12.9974 27.6914,12.8594 C27.9023,12.7214 28.1426,12.6172 28.4121,12.5469 C28.6816,12.4766 28.9648,12.4271 29.2617,12.3984 C29.6107,12.362 29.8919,12.3275 30.1055,12.2949 C30.319,12.2624 30.474,12.2135 30.5703,12.1484 C30.6667,12.0833 30.7148,11.987 30.7148,11.8594 L30.7148,11.8359 C30.7148,11.5885 30.6374,11.3971 30.4824,11.2617 C30.3275,11.1263 30.1081,11.0586 29.8242,11.0586 C29.5247,11.0586 29.2865,11.1243 29.1094,11.2559 C28.9323,11.3874 28.8151,11.5521 28.7578,11.75 L27.2188,11.625 C27.2969,11.2604 27.4505,10.9447 27.6797,10.6777 C27.9089,10.4108 28.2051,10.2051 28.5684,10.0605 C28.9316,9.91602 29.3529,9.84375 29.832,9.84375 C30.1654,9.84375 30.485,9.88281 30.791,9.96094 C31.097,10.0391 31.3691,10.1602 31.6074,10.3242 C31.8457,10.4883 32.0339,10.6986 32.1719,10.9551 C32.3099,11.2116 32.3789,11.5182 32.3789,11.875 L32.3789,15.9219 L30.8008,15.9219 L30.8008,15.0898 L30.7539,15.0898 C30.6576,15.2773 30.5286,15.4421 30.3672,15.584 C30.2057,15.7259 30.0117,15.8366 29.7852,15.916 C29.5586,15.9954 29.2969,16.0352 29,16.0352 M29.4766,14.8867 C29.7214,14.8867 29.9375,14.8379 30.125,14.7402 C30.3125,14.6426 30.4596,14.5104 30.5664,14.3438 C30.6732,14.1771 30.7266,13.9883 30.7266,13.7773 L30.7266,13.1406 C30.6745,13.1745 30.6035,13.2051 30.5137,13.2324 C30.4238,13.2598 30.3229,13.2845 30.2109,13.3066 C30.099,13.3288 29.987,13.3483 29.875,13.3652 C29.763,13.3822 29.6615,13.3971 29.5703,13.4102 C29.375,13.4388 29.2044,13.4844 29.0586,13.5469 C28.9128,13.6094 28.7995,13.6934 28.7188,13.7988 C28.638,13.9043 28.5977,14.0352 28.5977,14.1914 C28.5977,14.418 28.6803,14.5905 28.8457,14.709 C29.0111,14.8275 29.2214,14.8867 29.4766,14.8867 M37.5117,13.3672 L37.5117,9.92188 L39.1758,9.92188 L39.1758,15.9219 L37.5781,15.9219 L37.5781,14.832 L37.5156,14.832 C37.3802,15.1836 37.1556,15.4661 36.8418,15.6797 C36.528,15.8932 36.1458,16 35.6953,16 C35.2943,16 34.9414,15.9089 34.6367,15.7266 C34.332,15.5443 34.0944,15.2852 33.9238,14.9492 C33.7533,14.6133 33.6667,14.2109 33.6641,13.7422 L33.6641,9.92188 L35.3281,9.92188 L35.3281,13.4453 C35.3307,13.7995 35.4258,14.0794 35.6133,14.2852 C35.8008,14.4909 36.0521,14.5938 36.3672,14.5938 C36.5677,14.5938 36.7552,14.5475 36.9297,14.4551 C37.1042,14.3626 37.2454,14.2253 37.3535,14.043 C37.4616,13.8607 37.5143,13.6354 37.5117,13.3672 M42.1563,7.92188 L42.1563,15.9219 L40.4922,15.9219 L40.4922,7.92188 L42.1563,7.92188 M46.668,9.92188 L46.668,11.1719 L43.0547,11.1719 L43.0547,9.92188 L46.668,9.92188 M43.875,8.48438 L45.5391,8.48438 L45.5391,14.0781 C45.5391,14.2318 45.5625,14.3509 45.6094,14.4355 C45.6563,14.5202 45.722,14.5794 45.8066,14.6133 C45.8913,14.6471 45.9896,14.6641 46.1016,14.6641 C46.1797,14.6641 46.2578,14.6569 46.3359,14.6426 C46.4141,14.6283 46.474,14.6172 46.5156,14.6094 L46.7773,15.8477 C46.694,15.8737 46.5768,15.9043 46.4258,15.9395 C46.2747,15.9746 46.0911,15.9961 45.875,16.0039 C45.474,16.0195 45.123,15.9661 44.8223,15.8438 C44.5215,15.7214 44.2878,15.5313 44.1211,15.2734 C43.9544,15.0156 43.8724,14.6901 43.875,14.2969 L43.875,8.48438"/>
</g>

<g fill="#ffffff" fill-opacity="1" stroke="none" transform="matrix(0.03125,0,0,0.03125,305.5,14)"
font-family="Inter" font-size="11" font-weight="700" font-style="normal" 
>
<path vector-effect="none" fill-rule="nonzero" d="M111.326,191.938 C120.545,201.158 135.517,201.158 144.737,191.938 L239.144,97.5313 C245.929,90.7458 247.921,80.6413 244.233,71.7907 C240.545,62.9401 231.989,57.1871 222.401,57.1871 L33.5875,57.2608 C24.0731,57.2608 15.4437,63.0137 11.7559,71.8644 C8.06815,80.715 10.1333,90.8195 16.845,97.605 L111.252,192.012 L111.326,191.938"/>
</g>

<g fill="none" stroke="#000000" stroke-opacity="1" stroke-width="13.7195" stroke-linecap="butt" stroke-linejoin="miter" stroke-miterlimit="4" transform="matrix(0.03125,0,0,0.03125,305.5,14)"
font-family="Inter" font-size="11" font-weight="700" font-style="normal" 
>
<path vector-effect="none" fill-rule="nonzero" d="M111.326,191.938 C120.545,201.158 135.517,201.158 144.737,191.938 L239.144,97.5313 C245.929,90.7458 247.921,80.6413 244.233,71.7907 C240.545,62.9401 231.989,57.1871 222.401,57.1871 L33.5875,57.2608 C24.0731,57.2608 15.4437,63.0137 11.7559,71.8644 C8.06815,80.715 10.1333,90.8195 16.845,97.605 L111.252,192.012 L111.326,191.938"/>
</g>

<g fill="#ffffff" fill-opacity="1" stroke="none" transform="matrix(1,0,0,1,251,6)"
font-family="Inter" font-size="11" font-weight="700" font-style="normal" 
>
</g>

<g fill="#ffffff" fill-opacity="1" stroke="#0da6c5" stroke-opacity="1" stroke-width="1" stroke-linecap="square" stroke-linejoin="bevel" transform="matrix(1,0,0,1,0,0)"
font-family="Inter" font-size="11" font-weight="700" font-style="normal" 
>
</g>

<g fill="#ffffff" fill-opacity="1" stroke="#0da6c5" stroke-opacity="1" stroke-width="1" stroke-linecap="square" stroke-linejoin="bevel" transform="matrix(1,0,0,1,0,0)"
font-family="Inter" font-size="11" font-weight="700" font-style="normal" 
>
</g>

<g fill="none" stroke="#000000" stroke-opacity="1" stroke-width="1" stroke-linecap="square" stroke-linejoin="bevel" transform="matrix(1,0,0,1,0,0)"
font-family=".AppleSystemUIFont" font-size="13" font-weight="400" font-style="normal" 
>
</g>
</g>
</svg>
