<?xml version="1.0" encoding="UTF-8" standalone="no"?>
<svg width="66.675mm" height="15.5222mm"
 viewBox="0 0 189 44"
 xmlns="http://www.w3.org/2000/svg" xmlns:xlink="http://www.w3.org/1999/xlink" version="1.2" baseProfile="tiny">
<title>Abstract block</title>
<desc>block_variables_change_by</desc>
<defs>
</defs>
<g fill="none" stroke="black" stroke-width="1" fill-rule="evenodd" stroke-linecap="square" stroke-linejoin="bevel" >

<g fill="none" stroke="#000000" stroke-opacity="1" stroke-width="1" stroke-linecap="square" stroke-linejoin="bevel" transform="matrix(1,0,0,1,0,0)"
font-family=".AppleSystemUIFont" font-size="13" font-weight="400" font-style="normal" 
>
</g>

<g fill="none" stroke="#000000" stroke-opacity="1" stroke-width="1" stroke-linecap="square" stroke-linejoin="bevel" transform="matrix(1,0,0,1,0,0)"
font-family=".AppleSystemUIFont" font-size="13" font-weight="400" font-style="normal" 
>
</g>

<g fill="#ff9835" fill-opacity="1" stroke="#f87800" stroke-opacity="1" stroke-width="1.2" stroke-linecap="square" stroke-linejoin="bevel" transform="matrix(1,0,0,1,0,0)"
font-family=".AppleSystemUIFont" font-size="13" font-weight="400" font-style="normal" 
>
<path vector-effect="none" fill-rule="evenodd" d="M0.5,4.5 L1.04612,2.48112 L2.48112,1.04612 L4.5,0.5 L9.625,0.5 L10.416,0.976563 L11.1719,1.6875 L11.998,2.67969 L13,4 L13.7559,4.66016 L14.5469,5.15625 L15.4082,5.51172 L16.375,5.75 L17.4824,5.89453 L18.7656,5.96875 L20.2598,5.99609 L22,6 L23.7402,5.99609 L25.2344,5.96875 L26.5176,5.89453 L27.625,5.75 L28.5918,5.51172 L29.4531,5.15625 L30.2441,4.66016 L31,4 L32.002,2.67969 L32.8281,1.6875 L33.584,0.976563 L34.375,0.5 L184.4,0.5 L186.419,1.04612 L187.854,2.48112 L188.4,4.5 L188.4,31.5 L187.854,33.5189 L186.419,34.9539 L184.4,35.5 L34.375,35.5 L33.584,35.9766 L32.8281,36.6875 L32.002,37.6797 L31,39 L30.2441,39.6602 L29.4531,40.1563 L28.5918,40.5117 L27.625,40.75 L26.5176,40.8945 L25.2344,40.9688 L23.7402,40.9961 L22,41 L20.2598,40.9961 L18.7656,40.9688 L17.4824,40.8945 L16.375,40.75 L15.4082,40.5117 L14.5469,40.1563 L13.7559,39.6602 L13,39 L11.998,37.6797 L11.1719,36.6875 L10.416,35.9766 L9.625,35.5 L4.5,35.5 L2.48112,34.9539 L1.04612,33.5189 L0.5,31.5 L0.5,4.5"/>
</g>

<g fill="#ffffff" fill-opacity="1" stroke="none" transform="matrix(1,0,0,1,0,0)"
font-family="Inter" font-size="11" font-weight="700" font-style="normal" 
>
<path vector-effect="none" fill-rule="nonzero" d="M14.7969,20.8828 C14.1823,20.8828 13.6543,20.752 13.2129,20.4902 C12.7715,20.2285 12.4329,19.8646 12.1973,19.3984 C11.9616,18.9323 11.8438,18.3958 11.8438,17.7891 C11.8438,17.1745 11.9629,16.6348 12.2012,16.1699 C12.4395,15.7051 12.7786,15.3418 13.2188,15.0801 C13.6589,14.8184 14.1823,14.6875 14.7891,14.6875 C15.3125,14.6875 15.7708,14.7826 16.1641,14.9727 C16.5573,15.1628 16.8685,15.4297 17.0977,15.7734 C17.3268,16.1172 17.4531,16.5208 17.4766,16.9844 L15.9063,16.9844 C15.862,16.6849 15.7454,16.4434 15.5566,16.2598 C15.3678,16.0762 15.1211,15.9844 14.8164,15.9844 C14.5586,15.9844 14.334,16.054 14.1426,16.1934 C13.9512,16.3327 13.8021,16.5352 13.6953,16.8008 C13.5885,17.0664 13.5352,17.388 13.5352,17.7656 C13.5352,18.1484 13.5879,18.474 13.6934,18.7422 C13.7988,19.0104 13.9479,19.2148 14.1406,19.3555 C14.3333,19.4961 14.5586,19.5664 14.8164,19.5664 C15.0065,19.5664 15.1777,19.5273 15.3301,19.4492 C15.4824,19.3711 15.6087,19.2572 15.709,19.1074 C15.8092,18.9577 15.875,18.7773 15.9063,18.5664 L17.4766,18.5664 C17.4505,19.0247 17.3262,19.4277 17.1035,19.7754 C16.8809,20.123 16.5742,20.3945 16.1836,20.5898 C15.793,20.7852 15.3307,20.8828 14.7969,20.8828 M20.2031,17.2969 L20.2031,20.7656 L18.5391,20.7656 L18.5391,12.7656 L20.1563,12.7656 L20.1563,15.8242 L20.2266,15.8242 C20.362,15.4701 20.5807,15.1921 20.8828,14.9902 C21.1849,14.7884 21.5638,14.6875 22.0195,14.6875 C22.4362,14.6875 22.8001,14.778 23.1113,14.959 C23.4225,15.14 23.6647,15.3991 23.8379,15.7363 C24.0111,16.0736 24.0964,16.4766 24.0938,16.9453 L24.0938,20.7656 L22.4297,20.7656 L22.4297,17.2422 C22.4323,16.8724 22.3392,16.5846 22.1504,16.3789 C21.9616,16.1732 21.6979,16.0703 21.3594,16.0703 C21.1328,16.0703 20.9329,16.1185 20.7598,16.2148 C20.5866,16.3112 20.4512,16.4512 20.3535,16.6348 C20.2559,16.8184 20.2057,17.0391 20.2031,17.2969 M27.1094,20.8789 C26.7266,20.8789 26.3854,20.8118 26.0859,20.6777 C25.7865,20.5436 25.5501,20.3444 25.377,20.0801 C25.2038,19.8158 25.1172,19.4857 25.1172,19.0898 C25.1172,18.7565 25.1784,18.4766 25.3008,18.25 C25.4232,18.0234 25.5898,17.8411 25.8008,17.7031 C26.0117,17.5651 26.252,17.4609 26.5215,17.3906 C26.791,17.3203 27.0742,17.2708 27.3711,17.2422 C27.7201,17.2057 28.0013,17.1712 28.2148,17.1387 C28.4284,17.1061 28.5833,17.0573 28.6797,16.9922 C28.776,16.9271 28.8242,16.8307 28.8242,16.7031 L28.8242,16.6797 C28.8242,16.4323 28.7467,16.2409 28.5918,16.1055 C28.4368,15.9701 28.2174,15.9023 27.9336,15.9023 C27.6341,15.9023 27.3958,15.9681 27.2188,16.0996 C27.0417,16.2311 26.9245,16.3958 26.8672,16.5938 L25.3281,16.4688 C25.4063,16.1042 25.5599,15.7884 25.7891,15.5215 C26.0182,15.2546 26.3145,15.0488 26.6777,14.9043 C27.041,14.7598 27.4622,14.6875 27.9414,14.6875 C28.2747,14.6875 28.5944,14.7266 28.9004,14.8047 C29.2064,14.8828 29.4785,15.0039 29.7168,15.168 C29.9551,15.332 30.1432,15.5423 30.2813,15.7988 C30.4193,16.0553 30.4883,16.362 30.4883,16.7188 L30.4883,20.7656 L28.9102,20.7656 L28.9102,19.9336 L28.8633,19.9336 C28.7669,20.1211 28.638,20.2858 28.4766,20.4277 C28.3151,20.5697 28.1211,20.6803 27.8945,20.7598 C27.668,20.8392 27.4063,20.8789 27.1094,20.8789 M27.5859,19.7305 C27.8307,19.7305 28.0469,19.6816 28.2344,19.584 C28.4219,19.4863 28.569,19.3542 28.6758,19.1875 C28.7826,19.0208 28.8359,18.832 28.8359,18.6211 L28.8359,17.9844 C28.7839,18.0182 28.7129,18.0488 28.623,18.0762 C28.5332,18.1035 28.4323,18.1283 28.3203,18.1504 C28.2083,18.1725 28.0964,18.1921 27.9844,18.209 C27.8724,18.2259 27.7708,18.2409 27.6797,18.2539 C27.4844,18.2826 27.3138,18.3281 27.168,18.3906 C27.0221,18.4531 26.9089,18.5371 26.8281,18.6426 C26.7474,18.748 26.707,18.8789 26.707,19.0352 C26.707,19.2617 26.7897,19.4342 26.9551,19.5527 C27.1204,19.6712 27.3307,19.7305 27.5859,19.7305 M33.4375,17.2969 L33.4375,20.7656 L31.7734,20.7656 L31.7734,14.7656 L33.3594,14.7656 L33.3594,15.8242 L33.4297,15.8242 C33.5625,15.4753 33.7852,15.1986 34.0977,14.9941 C34.4102,14.7897 34.7891,14.6875 35.2344,14.6875 C35.651,14.6875 36.0143,14.7786 36.3242,14.9609 C36.6341,15.1432 36.875,15.403 37.0469,15.7402 C37.2188,16.0775 37.3047,16.4792 37.3047,16.9453 L37.3047,20.7656 L35.6406,20.7656 L35.6406,17.2422 C35.6432,16.875 35.5495,16.5879 35.3594,16.3809 C35.1693,16.1738 34.9076,16.0703 34.5742,16.0703 C34.3503,16.0703 34.153,16.1185 33.9824,16.2148 C33.8118,16.3112 33.679,16.4512 33.584,16.6348 C33.4889,16.8184 33.4401,17.0391 33.4375,17.2969 M41.3047,23.1406 C40.7656,23.1406 40.304,23.0671 39.9199,22.9199 C39.5358,22.7728 39.2305,22.5729 39.0039,22.3203 C38.7773,22.0677 38.6302,21.7839 38.5625,21.4688 L40.1016,21.2617 C40.1484,21.3815 40.2227,21.4935 40.3242,21.5977 C40.4258,21.7018 40.5605,21.7858 40.7285,21.8496 C40.8965,21.9134 41.1016,21.9453 41.3438,21.9453 C41.7057,21.9453 42.0046,21.8574 42.2402,21.6816 C42.4759,21.5059 42.5938,21.2122 42.5938,20.8008 L42.5938,19.7031 L42.5234,19.7031 C42.4505,19.8698 42.3411,20.0273 42.1953,20.1758 C42.0495,20.3242 41.862,20.4453 41.6328,20.5391 C41.4036,20.6328 41.1302,20.6797 40.8125,20.6797 C40.362,20.6797 39.9525,20.5749 39.584,20.3652 C39.2155,20.1556 38.9225,19.834 38.7051,19.4004 C38.4876,18.9668 38.3789,18.418 38.3789,17.7539 C38.3789,17.0742 38.4896,16.5065 38.7109,16.0508 C38.9323,15.5951 39.2272,15.2539 39.5957,15.0273 C39.9642,14.8008 40.3685,14.6875 40.8086,14.6875 C41.1445,14.6875 41.4258,14.7441 41.6523,14.8574 C41.8789,14.9707 42.0618,15.1113 42.2012,15.2793 C42.3405,15.4473 42.4479,15.612 42.5234,15.7734 L42.5859,15.7734 L42.5859,14.7656 L44.2383,14.7656 L44.2383,20.8242 C44.2383,21.3346 44.1133,21.7617 43.8633,22.1055 C43.6133,22.4492 43.2676,22.7077 42.8262,22.8809 C42.3848,23.054 41.8776,23.1406 41.3047,23.1406 M41.3398,19.4297 C41.6081,19.4297 41.8353,19.3626 42.0215,19.2285 C42.2077,19.0944 42.3509,18.9017 42.4512,18.6504 C42.5514,18.3991 42.6016,18.0977 42.6016,17.7461 C42.6016,17.3945 42.5521,17.0892 42.4531,16.8301 C42.3542,16.571 42.2109,16.3698 42.0234,16.2266 C41.8359,16.0833 41.6081,16.0117 41.3398,16.0117 C41.0664,16.0117 40.8359,16.0853 40.6484,16.2324 C40.4609,16.3796 40.319,16.5833 40.2227,16.8438 C40.1263,17.1042 40.0781,17.4049 40.0781,17.7461 C40.0781,18.0924 40.127,18.3913 40.2246,18.6426 C40.3223,18.8939 40.4642,19.0879 40.6504,19.2246 C40.8366,19.3613 41.0664,19.4297 41.3398,19.4297 M48.2891,20.8828 C47.6719,20.8828 47.1413,20.7572 46.6973,20.5059 C46.2533,20.2546 45.9115,19.8978 45.6719,19.4355 C45.4323,18.9733 45.3125,18.4258 45.3125,17.793 C45.3125,17.1758 45.4323,16.6341 45.6719,16.168 C45.9115,15.7018 46.2493,15.3385 46.6855,15.0781 C47.1217,14.8177 47.6341,14.6875 48.2227,14.6875 C48.6185,14.6875 48.9876,14.7507 49.3301,14.877 C49.6725,15.0033 49.972,15.1927 50.2285,15.4453 C50.485,15.6979 50.6849,16.015 50.8281,16.3965 C50.9714,16.778 51.043,17.224 51.043,17.7344 L51.043,18.1914 L45.9766,18.1914 L45.9766,17.1602 L49.4766,17.1602 C49.4766,16.9206 49.4245,16.7083 49.3203,16.5234 C49.2161,16.3385 49.0723,16.1934 48.8887,16.0879 C48.7051,15.9824 48.4922,15.9297 48.25,15.9297 C47.9974,15.9297 47.7741,15.9876 47.5801,16.1035 C47.3861,16.2194 47.2344,16.3743 47.125,16.5684 C47.0156,16.7624 46.9596,16.9779 46.957,17.2148 L46.957,18.1953 C46.957,18.4922 47.0124,18.7487 47.123,18.9648 C47.2337,19.181 47.3906,19.3477 47.5938,19.4648 C47.7969,19.582 48.0378,19.6406 48.3164,19.6406 C48.5013,19.6406 48.6706,19.6146 48.8242,19.5625 C48.9779,19.5104 49.1094,19.4323 49.2188,19.3281 C49.3281,19.224 49.4115,19.0964 49.4688,18.9453 L51.0078,19.0469 C50.9297,19.4167 50.7702,19.7389 50.5293,20.0137 C50.2884,20.2884 49.9785,20.502 49.5996,20.6543 C49.2207,20.8066 48.7839,20.8828 48.2891,20.8828 "/>
</g>

<g fill="#ffffff" fill-opacity="1" stroke="none" transform="matrix(1,0,0,1,0,0)"
font-family="Inter" font-size="11" font-weight="700" font-style="normal" 
>
<path vector-effect="none" fill-rule="nonzero" d="M137.32,20.875 L137.32,12.875 L138.984,12.875 L138.984,15.8828 L139.035,15.8828 C139.108,15.7214 139.214,15.5566 139.354,15.3887 C139.493,15.2207 139.675,15.0801 139.9,14.9668 C140.126,14.8535 140.406,14.7969 140.742,14.7969 C141.18,14.7969 141.583,14.9108 141.953,15.1387 C142.323,15.3665 142.618,15.709 142.84,16.166 C143.061,16.623 143.172,17.1953 143.172,17.8828 C143.172,18.5521 143.064,19.1165 142.85,19.5762 C142.635,20.0358 142.343,20.3835 141.975,20.6191 C141.606,20.8548 141.194,20.9727 140.738,20.9727 C140.415,20.9727 140.141,20.9193 139.916,20.8125 C139.691,20.7057 139.507,20.571 139.363,20.4082 C139.22,20.2454 139.111,20.0807 139.035,19.9141 L138.961,19.9141 L138.961,20.875 L137.32,20.875 M138.949,17.875 C138.949,18.2318 138.999,18.543 139.098,18.8086 C139.197,19.0742 139.34,19.2806 139.527,19.4277 C139.715,19.5749 139.943,19.6484 140.211,19.6484 C140.482,19.6484 140.711,19.5736 140.898,19.4238 C141.086,19.2741 141.229,19.0658 141.326,18.7988 C141.424,18.5319 141.473,18.224 141.473,17.875 C141.473,17.5286 141.424,17.224 141.328,16.9609 C141.232,16.6979 141.09,16.4922 140.902,16.3438 C140.715,16.1953 140.484,16.1211 140.211,16.1211 C139.94,16.1211 139.712,16.1927 139.525,16.3359 C139.339,16.4792 139.197,16.6823 139.098,16.9453 C138.999,17.2083 138.949,17.5182 138.949,17.875 M145.098,23.125 C144.887,23.125 144.689,23.1087 144.506,23.0762 C144.322,23.0436 144.171,23.0026 144.051,22.9531 L144.426,21.7109 C144.621,21.7708 144.798,21.8034 144.955,21.8086 C145.113,21.8138 145.249,21.7773 145.365,21.6992 C145.481,21.6211 145.576,21.4883 145.648,21.3008 L145.746,21.0469 L143.594,14.875 L145.344,14.875 L146.586,19.2813 L146.648,19.2813 L147.902,14.875 L149.664,14.875 L147.332,21.5234 C147.22,21.8464 147.068,22.1283 146.877,22.3691 C146.686,22.61 146.444,22.7962 146.152,22.9277 C145.861,23.0592 145.509,23.125 145.098,23.125 "/>
</g>

<g fill="#ffffff" fill-opacity="1" stroke="none" transform="matrix(1,0,0,1,0,0)"
font-family="Inter" font-size="11" font-weight="700" font-style="normal" 
>
</g>

<g fill="#ffffff" fill-opacity="1" stroke="none" transform="matrix(1,0,0,1,0,0)"
font-family="Inter" font-size="11" font-weight="700" font-style="normal" 
>
</g>

<g fill="#ffffff" fill-opacity="1" stroke="none" transform="matrix(1,0,0,1,0,0)"
font-family="Inter" font-size="11" font-weight="700" font-style="normal" 
>
</g>

<g fill="#ff9835" fill-opacity="1" stroke="#f87800" stroke-opacity="1" stroke-width="1.2" stroke-linecap="square" stroke-linejoin="bevel" transform="matrix(1,0,0,1,57,6)"
font-family="Inter" font-size="11" font-weight="700" font-style="normal" 
>
<path vector-effect="none" fill-rule="evenodd" d="M0.5,3.5 C0.5,1.84315 1.84315,0.5 3.5,0.5 L71,0.5 C72.6569,0.5 74,1.84315 74,3.5 L74,20.5 C74,22.1569 72.6569,23.5 71,23.5 L3.5,23.5 C1.84315,23.5 0.5,22.1569 0.5,20.5 L0.5,3.5"/>
</g>

<g fill="#ffffff" fill-opacity="1" stroke="none" transform="matrix(1,0,0,1,57,6)"
font-family="Inter" font-size="11" font-weight="700" font-style="normal" 
>
<path vector-effect="none" fill-rule="nonzero" d="M15.5703,10 L13.4727,16 L11.5977,16 L9.5,10 L11.2578,10 L12.5039,14.293 L12.5664,14.293 L13.8086,10 L15.5703,10 M17.9531,16.1133 C17.5703,16.1133 17.2292,16.0462 16.9297,15.9121 C16.6302,15.778 16.3939,15.5788 16.2207,15.3145 C16.0475,15.0501 15.9609,14.7201 15.9609,14.3242 C15.9609,13.9909 16.0221,13.7109 16.1445,13.4844 C16.2669,13.2578 16.4336,13.0755 16.6445,12.9375 C16.8555,12.7995 17.0957,12.6953 17.3652,12.625 C17.6348,12.5547 17.918,12.5052 18.2148,12.4766 C18.5638,12.4401 18.8451,12.4056 19.0586,12.373 C19.2721,12.3405 19.4271,12.2917 19.5234,12.2266 C19.6198,12.1615 19.668,12.0651 19.668,11.9375 L19.668,11.9141 C19.668,11.6667 19.5905,11.4753 19.4355,11.3398 C19.2806,11.2044 19.0612,11.1367 18.7773,11.1367 C18.4779,11.1367 18.2396,11.2025 18.0625,11.334 C17.8854,11.4655 17.7682,11.6302 17.7109,11.8281 L16.1719,11.7031 C16.25,11.3385 16.4036,11.0228 16.6328,10.7559 C16.862,10.4889 17.1582,10.2832 17.5215,10.1387 C17.8848,9.99414 18.306,9.92188 18.7852,9.92188 C19.1185,9.92188 19.4382,9.96094 19.7441,10.0391 C20.0501,10.1172 20.3223,10.2383 20.5605,10.4023 C20.7988,10.5664 20.987,10.7767 21.125,11.0332 C21.263,11.2897 21.332,11.5964 21.332,11.9531 L21.332,16 L19.7539,16 L19.7539,15.168 L19.707,15.168 C19.6107,15.3555 19.4818,15.5202 19.3203,15.6621 C19.1589,15.804 18.9648,15.9147 18.7383,15.9941 C18.5117,16.0736 18.25,16.1133 17.9531,16.1133 M18.4297,14.9648 C18.6745,14.9648 18.8906,14.916 19.0781,14.8184 C19.2656,14.7207 19.4128,14.5885 19.5195,14.4219 C19.6263,14.2552 19.6797,14.0664 19.6797,13.8555 L19.6797,13.2188 C19.6276,13.2526 19.5566,13.2832 19.4668,13.3105 C19.377,13.3379 19.276,13.3626 19.1641,13.3848 C19.0521,13.4069 18.9401,13.4264 18.8281,13.4434 C18.7161,13.4603 18.6146,13.4753 18.5234,13.4883 C18.3281,13.5169 18.1576,13.5625 18.0117,13.625 C17.8659,13.6875 17.7526,13.7715 17.6719,13.877 C17.5911,13.9824 17.5508,14.1133 17.5508,14.2695 C17.5508,14.4961 17.6335,14.6686 17.7988,14.7871 C17.9642,14.9056 18.1745,14.9648 18.4297,14.9648 M22.6172,16 L22.6172,10 L24.2305,10 L24.2305,11.0469 L24.293,11.0469 C24.4023,10.6745 24.5859,10.3926 24.8438,10.2012 C25.1016,10.0098 25.3984,9.91406 25.7344,9.91406 C25.8177,9.91406 25.9076,9.91927 26.0039,9.92969 C26.1003,9.9401 26.1849,9.95443 26.2578,9.97266 L26.2578,11.4492 C26.1797,11.4258 26.0716,11.4049 25.9336,11.3867 C25.7956,11.3685 25.6693,11.3594 25.5547,11.3594 C25.3099,11.3594 25.0918,11.4121 24.9004,11.5176 C24.709,11.623 24.5579,11.7695 24.4473,11.957 C24.3366,12.1445 24.2813,12.3607 24.2813,12.6055 L24.2813,16 L22.6172,16 M27.1016,16 L27.1016,10 L28.7656,10 L28.7656,16 L27.1016,16 M27.9375,9.22656 C27.6901,9.22656 27.4785,9.14388 27.3027,8.97852 C27.127,8.81315 27.0391,8.61458 27.0391,8.38281 C27.0391,8.15365 27.127,7.95638 27.3027,7.79102 C27.4785,7.62565 27.6901,7.54297 27.9375,7.54297 C28.1849,7.54297 28.3965,7.62565 28.5723,7.79102 C28.748,7.95638 28.8359,8.15365 28.8359,8.38281 C28.8359,8.61458 28.748,8.81315 28.5723,8.97852 C28.3965,9.14388 28.1849,9.22656 27.9375,9.22656 M31.7969,16.1133 C31.4141,16.1133 31.0729,16.0462 30.7734,15.9121 C30.474,15.778 30.2376,15.5788 30.0645,15.3145 C29.8913,15.0501 29.8047,14.7201 29.8047,14.3242 C29.8047,13.9909 29.8659,13.7109 29.9883,13.4844 C30.1107,13.2578 30.2773,13.0755 30.4883,12.9375 C30.6992,12.7995 30.9395,12.6953 31.209,12.625 C31.4785,12.5547 31.7617,12.5052 32.0586,12.4766 C32.4076,12.4401 32.6888,12.4056 32.9023,12.373 C33.1159,12.3405 33.2708,12.2917 33.3672,12.2266 C33.4635,12.1615 33.5117,12.0651 33.5117,11.9375 L33.5117,11.9141 C33.5117,11.6667 33.4342,11.4753 33.2793,11.3398 C33.1243,11.2044 32.9049,11.1367 32.6211,11.1367 C32.3216,11.1367 32.0833,11.2025 31.9063,11.334 C31.7292,11.4655 31.612,11.6302 31.5547,11.8281 L30.0156,11.7031 C30.0938,11.3385 30.2474,11.0228 30.4766,10.7559 C30.7057,10.4889 31.002,10.2832 31.3652,10.1387 C31.7285,9.99414 32.1497,9.92188 32.6289,9.92188 C32.9622,9.92188 33.2819,9.96094 33.5879,10.0391 C33.8939,10.1172 34.166,10.2383 34.4043,10.4023 C34.6426,10.5664 34.8307,10.7767 34.9688,11.0332 C35.1068,11.2897 35.1758,11.5964 35.1758,11.9531 L35.1758,16 L33.5977,16 L33.5977,15.168 L33.5508,15.168 C33.4544,15.3555 33.3255,15.5202 33.1641,15.6621 C33.0026,15.804 32.8086,15.9147 32.582,15.9941 C32.3555,16.0736 32.0938,16.1133 31.7969,16.1133 M32.2734,14.9648 C32.5182,14.9648 32.7344,14.916 32.9219,14.8184 C33.1094,14.7207 33.2565,14.5885 33.3633,14.4219 C33.4701,14.2552 33.5234,14.0664 33.5234,13.8555 L33.5234,13.2188 C33.4714,13.2526 33.4004,13.2832 33.3105,13.3105 C33.2207,13.3379 33.1198,13.3626 33.0078,13.3848 C32.8958,13.4069 32.7839,13.4264 32.6719,13.4434 C32.5599,13.4603 32.4583,13.4753 32.3672,13.4883 C32.1719,13.5169 32.0013,13.5625 31.8555,13.625 C31.7096,13.6875 31.5964,13.7715 31.5156,13.877 C31.4349,13.9824 31.3945,14.1133 31.3945,14.2695 C31.3945,14.4961 31.4772,14.6686 31.6426,14.7871 C31.8079,14.9056 32.0182,14.9648 32.2734,14.9648 M36.4922,16 L36.4922,8 L38.1563,8 L38.1563,11.0078 L38.207,11.0078 C38.2799,10.8464 38.3861,10.6816 38.5254,10.5137 C38.6647,10.3457 38.847,10.2051 39.0723,10.0918 C39.2975,9.97852 39.5781,9.92188 39.9141,9.92188 C40.3516,9.92188 40.7552,10.0358 41.125,10.2637 C41.4948,10.4915 41.7904,10.834 42.0117,11.291 C42.2331,11.748 42.3438,12.3203 42.3438,13.0078 C42.3438,13.6771 42.2363,14.2415 42.0215,14.7012 C41.8066,15.1608 41.515,15.5085 41.1465,15.7441 C40.778,15.9798 40.3659,16.0977 39.9102,16.0977 C39.5872,16.0977 39.3132,16.0443 39.0879,15.9375 C38.8626,15.8307 38.6784,15.696 38.5352,15.5332 C38.3919,15.3704 38.2826,15.2057 38.207,15.0391 L38.1328,15.0391 L38.1328,16 L36.4922,16 M38.1211,13 C38.1211,13.3568 38.1706,13.668 38.2695,13.9336 C38.3685,14.1992 38.5117,14.4056 38.6992,14.5527 C38.8867,14.6999 39.1146,14.7734 39.3828,14.7734 C39.6536,14.7734 39.8828,14.6986 40.0703,14.5488 C40.2578,14.3991 40.4004,14.1908 40.498,13.9238 C40.5957,13.6569 40.6445,13.349 40.6445,13 C40.6445,12.6536 40.5964,12.349 40.5,12.0859 C40.4036,11.8229 40.2617,11.6172 40.0742,11.4688 C39.8867,11.3203 39.6563,11.2461 39.3828,11.2461 C39.112,11.2461 38.8835,11.3177 38.6973,11.4609 C38.5111,11.6042 38.3685,11.8073 38.2695,12.0703 C38.1706,12.3333 38.1211,12.6432 38.1211,13 M45.1094,8 L45.1094,16 L43.4453,16 L43.4453,8 L45.1094,8 M49.1641,16.1172 C48.5469,16.1172 48.0163,15.9915 47.5723,15.7402 C47.1283,15.4889 46.7865,15.1322 46.5469,14.6699 C46.3073,14.2077 46.1875,13.6602 46.1875,13.0273 C46.1875,12.4102 46.3073,11.8685 46.5469,11.4023 C46.7865,10.9362 47.1243,10.5729 47.5605,10.3125 C47.9967,10.0521 48.5091,9.92188 49.0977,9.92188 C49.4935,9.92188 49.8626,9.98503 50.2051,10.1113 C50.5475,10.2376 50.847,10.4271 51.1035,10.6797 C51.36,10.9323 51.5599,11.2493 51.7031,11.6309 C51.8464,12.0124 51.918,12.4583 51.918,12.9688 L51.918,13.4258 L46.8516,13.4258 L46.8516,12.3945 L50.3516,12.3945 C50.3516,12.1549 50.2995,11.9427 50.1953,11.7578 C50.0911,11.5729 49.9473,11.4277 49.7637,11.3223 C49.5801,11.2168 49.3672,11.1641 49.125,11.1641 C48.8724,11.1641 48.6491,11.222 48.4551,11.3379 C48.2611,11.4538 48.1094,11.6087 48,11.8027 C47.8906,11.9967 47.8346,12.2122 47.832,12.4492 L47.832,13.4297 C47.832,13.7266 47.8874,13.9831 47.998,14.1992 C48.1087,14.4154 48.2656,14.582 48.4688,14.6992 C48.6719,14.8164 48.9128,14.875 49.1914,14.875 C49.3763,14.875 49.5456,14.849 49.6992,14.7969 C49.8529,14.7448 49.9844,14.6667 50.0938,14.5625 C50.2031,14.4583 50.2865,14.3307 50.3438,14.1797 L51.8828,14.2813 C51.8047,14.651 51.6452,14.9733 51.4043,15.248 C51.1634,15.5228 50.8535,15.7363 50.4746,15.8887 C50.0957,16.041 49.6589,16.1172 49.1641,16.1172 "/>
</g>

<g fill="#ffffff" fill-opacity="1" stroke="none" transform="matrix(0.03125,0,0,0.03125,117.5,14)"
font-family="Inter" font-size="11" font-weight="700" font-style="normal" 
>
<path vector-effect="none" fill-rule="nonzero" d="M111.326,191.938 C120.545,201.158 135.517,201.158 144.737,191.938 L239.144,97.5313 C245.929,90.7458 247.921,80.6413 244.233,71.7907 C240.545,62.9401 231.989,57.1871 222.401,57.1871 L33.5875,57.2608 C24.0731,57.2608 15.4437,63.0137 11.7559,71.8644 C8.06815,80.715 10.1333,90.8195 16.845,97.605 L111.252,192.012 L111.326,191.938"/>
</g>

<g fill="none" stroke="#000000" stroke-opacity="1" stroke-width="13.7195" stroke-linecap="butt" stroke-linejoin="miter" stroke-miterlimit="4" transform="matrix(0.03125,0,0,0.03125,117.5,14)"
font-family="Inter" font-size="11" font-weight="700" font-style="normal" 
>
<path vector-effect="none" fill-rule="nonzero" d="M111.326,191.938 C120.545,201.158 135.517,201.158 144.737,191.938 L239.144,97.5313 C245.929,90.7458 247.921,80.6413 244.233,71.7907 C240.545,62.9401 231.989,57.1871 222.401,57.1871 L33.5875,57.2608 C24.0731,57.2608 15.4437,63.0137 11.7559,71.8644 C8.06815,80.715 10.1333,90.8195 16.845,97.605 L111.252,192.012 L111.326,191.938"/>
</g>

<g fill="#ffffff" fill-opacity="1" stroke="none" transform="matrix(1,0,0,1,57,6)"
font-family="Inter" font-size="11" font-weight="700" font-style="normal" 
>
</g>

<g fill="#ffffff" fill-opacity="1" stroke="none" transform="matrix(1,0,0,1,0,0)"
font-family="Inter" font-size="11" font-weight="700" font-style="normal" 
>
</g>

<g fill="#ffffff" fill-opacity="1" stroke="#e46e00" stroke-opacity="1" stroke-width="1.2" stroke-linecap="square" stroke-linejoin="bevel" transform="matrix(1,0,0,1,155.5,7)"
font-family="Inter" font-size="11" font-weight="700" font-style="normal" 
>
<path vector-effect="none" fill-rule="evenodd" d="M1,11 C1,5.47715 5.92487,1 12,1 L14.4,1 C20.4751,1 25.4,5.47715 25.4,11 C25.4,16.5228 20.4751,21 14.4,21 L12,21 C5.92487,21 1,16.5228 1,11 "/>
</g>

<g fill="#000000" fill-opacity="1" stroke="none" transform="matrix(1,0,0,1,155.5,7)"
font-family="Inter" font-size="10" font-weight="700" font-style="normal" 
>
<path vector-effect="none" fill-rule="nonzero" d="M12.9411,14.5817 C12.3303,14.5793 11.8053,14.429 11.3661,14.1307 C10.927,13.8324 10.5896,13.4003 10.354,12.8345 C10.1185,12.2687 10.0019,11.5881 10.0043,10.7926 C10.0043,9.99953 10.122,9.32363 10.3576,8.76491 C10.5932,8.2062 10.9305,7.78066 11.3697,7.48828 C11.8088,7.1959 12.3326,7.04972 12.9411,7.04972 C13.5495,7.04972 14.0733,7.1965 14.5124,7.49006 C14.9516,7.78362 15.2895,8.20916 15.5263,8.76669 C15.763,9.32422 15.8802,9.99953 15.8778,10.7926 C15.8778,11.5904 15.7601,12.2723 15.5245,12.8381 C15.2889,13.4039 14.9522,13.8359 14.5142,14.1342 C14.0762,14.4325 13.5518,14.5817 12.9411,14.5817 M12.9411,13.3068 C13.3577,13.3068 13.6903,13.0973 13.9389,12.6783 C14.1875,12.2592 14.3106,11.6307 14.3082,10.7926 C14.3082,10.241 14.252,9.78172 14.1396,9.41477 C14.0271,9.04782 13.8685,8.77202 13.6637,8.58736 C13.4589,8.4027 13.218,8.31037 12.9411,8.31037 C12.5268,8.31037 12.1953,8.51752 11.9467,8.93182 C11.6982,9.34612 11.5727,9.96638 11.5703,10.7926 C11.5703,11.3513 11.6265,11.8171 11.739,12.19 C11.8514,12.5629 12.0107,12.8422 12.2166,13.0281 C12.4226,13.2139 12.6641,13.3068 12.9411,13.3068 "/>
</g>

<g fill="#ffffff" fill-opacity="1" stroke="none" transform="matrix(1,0,0,1,0,0)"
font-family="Inter" font-size="11" font-weight="700" font-style="normal" 
>
</g>

<g fill="none" stroke="#000000" stroke-opacity="1" stroke-width="1" stroke-linecap="square" stroke-linejoin="bevel" transform="matrix(1,0,0,1,0,0)"
font-family=".AppleSystemUIFont" font-size="13" font-weight="400" font-style="normal" 
>
</g>
</g>
</svg>
