<?xml version="1.0" encoding="UTF-8" standalone="no"?>
<svg width="124.531mm" height="11.2889mm"
 viewBox="0 0 353 32"
 xmlns="http://www.w3.org/2000/svg" xmlns:xlink="http://www.w3.org/1999/xlink" version="1.2" baseProfile="tiny">
<title>Abstract block</title>
<desc>block_hubs_all_sensors_button_pressed</desc>
<defs>
</defs>
<g fill="none" stroke="black" stroke-width="1" fill-rule="evenodd" stroke-linecap="square" stroke-linejoin="bevel" >

<g fill="none" stroke="#000000" stroke-opacity="1" stroke-width="1" stroke-linecap="square" stroke-linejoin="bevel" transform="matrix(1,0,0,1,0,0)"
font-family=".AppleSystemUIFont" font-size="13" font-weight="400" font-style="normal" 
>
</g>

<g fill="none" stroke="#000000" stroke-opacity="1" stroke-width="1" stroke-linecap="square" stroke-linejoin="bevel" transform="matrix(1,0,0,1,0,0)"
font-family=".AppleSystemUIFont" font-size="13" font-weight="400" font-style="normal" 
>
</g>

<g fill="#1dccf0" fill-opacity="1" stroke="#0da6c5" stroke-opacity="1" stroke-width="1.2" stroke-linecap="square" stroke-linejoin="bevel" transform="matrix(1,0,0,1,0,0)"
font-family=".AppleSystemUIFont" font-size="13" font-weight="400" font-style="normal" 
>
<path vector-effect="none" fill-rule="evenodd" d="M0,16 L16,0 L337,0 L353,16 L337,32 L16,32 L0,16"/>
</g>

<g fill="#ffffff" fill-opacity="1" stroke="none" transform="matrix(1,0,0,1,0,0)"
font-family="Inter" font-size="11" font-weight="700" font-style="normal" 
>
<path vector-effect="none" fill-rule="nonzero" d="M137.086,19.7344 L137.086,11.7344 L138.75,11.7344 L138.75,14.7422 L138.801,14.7422 C138.874,14.5807 138.98,14.416 139.119,14.248 C139.258,14.0801 139.441,13.9395 139.666,13.8262 C139.891,13.7129 140.172,13.6563 140.508,13.6563 C140.945,13.6563 141.349,13.7702 141.719,13.998 C142.089,14.2259 142.384,14.5684 142.605,15.0254 C142.827,15.4824 142.938,16.0547 142.938,16.7422 C142.938,17.4115 142.83,17.9759 142.615,18.4355 C142.4,18.8952 142.109,19.2428 141.74,19.4785 C141.372,19.7142 140.96,19.832 140.504,19.832 C140.181,19.832 139.907,19.7786 139.682,19.6719 C139.456,19.5651 139.272,19.4303 139.129,19.2676 C138.986,19.1048 138.876,18.9401 138.801,18.7734 L138.727,18.7734 L138.727,19.7344 L137.086,19.7344 M138.715,16.7344 C138.715,17.0911 138.764,17.4023 138.863,17.668 C138.962,17.9336 139.105,18.14 139.293,18.2871 C139.48,18.4342 139.708,18.5078 139.977,18.5078 C140.247,18.5078 140.477,18.4329 140.664,18.2832 C140.852,18.1335 140.994,17.9251 141.092,17.6582 C141.189,17.3913 141.238,17.0833 141.238,16.7344 C141.238,16.388 141.19,16.0833 141.094,15.8203 C140.997,15.5573 140.855,15.3516 140.668,15.2031 C140.48,15.0547 140.25,14.9805 139.977,14.9805 C139.706,14.9805 139.477,15.0521 139.291,15.1953 C139.105,15.3385 138.962,15.5417 138.863,15.8047 C138.764,16.0677 138.715,16.3776 138.715,16.7344 M147.887,17.1797 L147.887,13.7344 L149.551,13.7344 L149.551,19.7344 L147.953,19.7344 L147.953,18.6445 L147.891,18.6445 C147.755,18.9961 147.531,19.2786 147.217,19.4922 C146.903,19.7057 146.521,19.8125 146.07,19.8125 C145.669,19.8125 145.316,19.7214 145.012,19.5391 C144.707,19.3568 144.469,19.0977 144.299,18.7617 C144.128,18.4258 144.042,18.0234 144.039,17.5547 L144.039,13.7344 L145.703,13.7344 L145.703,17.2578 C145.706,17.612 145.801,17.8919 145.988,18.0977 C146.176,18.3034 146.427,18.4063 146.742,18.4063 C146.943,18.4063 147.13,18.36 147.305,18.2676 C147.479,18.1751 147.62,18.0378 147.729,17.8555 C147.837,17.6732 147.889,17.4479 147.887,17.1797 M154.059,13.7344 L154.059,14.9844 L150.445,14.9844 L150.445,13.7344 L154.059,13.7344 M151.266,12.2969 L152.93,12.2969 L152.93,17.8906 C152.93,18.0443 152.953,18.1634 153,18.248 C153.047,18.3327 153.113,18.3919 153.197,18.4258 C153.282,18.4596 153.38,18.4766 153.492,18.4766 C153.57,18.4766 153.648,18.4694 153.727,18.4551 C153.805,18.4408 153.865,18.4297 153.906,18.4219 L154.168,19.6602 C154.085,19.6862 153.967,19.7168 153.816,19.752 C153.665,19.7871 153.482,19.8086 153.266,19.8164 C152.865,19.832 152.514,19.7786 152.213,19.6563 C151.912,19.5339 151.678,19.3438 151.512,19.0859 C151.345,18.8281 151.263,18.5026 151.266,18.1094 L151.266,12.2969 M158.324,13.7344 L158.324,14.9844 L154.711,14.9844 L154.711,13.7344 L158.324,13.7344 M155.531,12.2969 L157.195,12.2969 L157.195,17.8906 C157.195,18.0443 157.219,18.1634 157.266,18.248 C157.313,18.3327 157.378,18.3919 157.463,18.4258 C157.548,18.4596 157.646,18.4766 157.758,18.4766 C157.836,18.4766 157.914,18.4694 157.992,18.4551 C158.07,18.4408 158.13,18.4297 158.172,18.4219 L158.434,19.6602 C158.35,19.6862 158.233,19.7168 158.082,19.752 C157.931,19.7871 157.747,19.8086 157.531,19.8164 C157.13,19.832 156.779,19.7786 156.479,19.6563 C156.178,19.5339 155.944,19.3438 155.777,19.0859 C155.611,18.8281 155.529,18.5026 155.531,18.1094 L155.531,12.2969 M162.047,19.8516 C161.44,19.8516 160.916,19.722 160.475,19.4629 C160.033,19.2038 159.693,18.8418 159.453,18.377 C159.214,17.9121 159.094,17.3724 159.094,16.7578 C159.094,16.138 159.214,15.5957 159.453,15.1309 C159.693,14.666 160.033,14.304 160.475,14.0449 C160.916,13.7858 161.44,13.6563 162.047,13.6563 C162.654,13.6563 163.178,13.7858 163.619,14.0449 C164.061,14.304 164.401,14.666 164.641,15.1309 C164.88,15.5957 165,16.138 165,16.7578 C165,17.3724 164.88,17.9121 164.641,18.377 C164.401,18.8418 164.061,19.2038 163.619,19.4629 C163.178,19.722 162.654,19.8516 162.047,19.8516 M162.055,18.5625 C162.331,18.5625 162.561,18.4837 162.746,18.3262 C162.931,18.1686 163.071,17.9531 163.166,17.6797 C163.261,17.4063 163.309,17.0951 163.309,16.7461 C163.309,16.3971 163.261,16.0859 163.166,15.8125 C163.071,15.5391 162.931,15.3229 162.746,15.1641 C162.561,15.0052 162.331,14.9258 162.055,14.9258 C161.776,14.9258 161.542,15.0052 161.354,15.1641 C161.165,15.3229 161.023,15.5391 160.928,15.8125 C160.833,16.0859 160.785,16.3971 160.785,16.7461 C160.785,17.0951 160.833,17.4063 160.928,17.6797 C161.023,17.9531 161.165,18.1686 161.354,18.3262 C161.542,18.4837 161.776,18.5625 162.055,18.5625 M167.75,16.2656 L167.75,19.7344 L166.086,19.7344 L166.086,13.7344 L167.672,13.7344 L167.672,14.793 L167.742,14.793 C167.875,14.444 168.098,14.1673 168.41,13.9629 C168.723,13.7585 169.102,13.6563 169.547,13.6563 C169.964,13.6563 170.327,13.7474 170.637,13.9297 C170.947,14.112 171.188,14.3717 171.359,14.709 C171.531,15.0462 171.617,15.4479 171.617,15.9141 L171.617,19.7344 L169.953,19.7344 L169.953,16.2109 C169.956,15.8438 169.862,15.5566 169.672,15.3496 C169.482,15.1426 169.22,15.0391 168.887,15.0391 C168.663,15.0391 168.465,15.0872 168.295,15.1836 C168.124,15.2799 167.992,15.4199 167.896,15.6035 C167.801,15.7871 167.753,16.0078 167.75,16.2656 "/>
</g>

<g fill="#ffffff" fill-opacity="1" stroke="none" transform="matrix(1,0,0,1,0,0)"
font-family="Inter" font-size="11" font-weight="700" font-style="normal" 
>
<path vector-effect="none" fill-rule="nonzero" d="M330.766,17.5547 L330.766,17.4219 C330.768,16.9661 330.809,16.6029 330.889,16.332 C330.968,16.0612 331.085,15.8424 331.238,15.6758 C331.392,15.5091 331.577,15.3581 331.793,15.2227 C331.954,15.1185 332.099,15.0104 332.227,14.8984 C332.354,14.7865 332.456,14.6621 332.531,14.5254 C332.607,14.3887 332.645,14.2357 332.645,14.0664 C332.645,13.8867 332.602,13.7292 332.516,13.5938 C332.43,13.4583 332.314,13.3542 332.17,13.2813 C332.025,13.2083 331.866,13.1719 331.691,13.1719 C331.522,13.1719 331.362,13.209 331.211,13.2832 C331.06,13.3574 330.936,13.4668 330.84,13.6113 C330.743,13.7559 330.691,13.9349 330.684,14.1484 L329.09,14.1484 C329.103,13.6276 329.228,13.1973 329.465,12.8574 C329.702,12.5176 330.016,12.2637 330.406,12.0957 C330.797,11.9277 331.228,11.8438 331.699,11.8438 C332.217,11.8438 332.676,11.929 333.074,12.0996 C333.473,12.2702 333.785,12.5169 334.012,12.8398 C334.238,13.1628 334.352,13.5521 334.352,14.0078 C334.352,14.3125 334.301,14.5827 334.201,14.8184 C334.101,15.054 333.961,15.2624 333.781,15.4434 C333.602,15.6243 333.389,15.7878 333.145,15.9336 C332.939,16.056 332.77,16.1836 332.639,16.3164 C332.507,16.4492 332.41,16.6029 332.346,16.7773 C332.282,16.9518 332.249,17.1667 332.246,17.4219 L332.246,17.5547 L330.766,17.5547 M331.539,20.0547 C331.279,20.0547 331.057,19.9629 330.873,19.7793 C330.689,19.5957 330.599,19.375 330.602,19.1172 C330.599,18.862 330.689,18.6432 330.873,18.4609 C331.057,18.2786 331.279,18.1875 331.539,18.1875 C331.786,18.1875 332.004,18.2786 332.191,18.4609 C332.379,18.6432 332.474,18.862 332.477,19.1172 C332.474,19.2891 332.429,19.446 332.342,19.5879 C332.255,19.7298 332.141,19.8431 332,19.9277 C331.859,20.0124 331.706,20.0547 331.539,20.0547 "/>
</g>

<g fill="#ffffff" fill-opacity="1" stroke="none" transform="matrix(0.228,0,0,0.228,11.6,4.6)"
font-family="Inter" font-size="11" font-weight="700" font-style="normal" 
>
<path vector-effect="none" fill-rule="nonzero" d="M23.3682,15.995 C21.89,15.995 20.7001,17.185 20.7001,18.6631 L20.7001,81.3343 C20.7001,82.8125 21.89,84.0024 23.3682,84.0024 L76.6077,84.0024 C78.0859,84.0024 79.2758,82.8125 79.2758,81.3343 L79.2758,18.6631 C79.2758,17.185 78.0859,15.995 76.6077,15.995 L50.8905,15.995 C51.6703,16.0444 52.2838,16.6869 52.2838,17.4796 L52.2838,26.9112 C52.2838,27.7362 51.6196,28.4004 50.7946,28.4004 L49.3054,28.4004 C48.4804,28.4004 47.8161,27.7362 47.8161,26.9112 L47.8161,17.4796 C47.8161,16.6869 48.4298,16.0443 49.2096,15.995 L23.3682,15.995 M46.7613,35.2087 L53.2146,35.2087 C53.9021,35.2087 54.4556,35.7622 54.4556,36.4497 L54.4556,42.903 C54.4556,43.5906 53.9021,44.1439 53.2146,44.1439 L46.7613,44.1439 C46.0738,44.1439 45.5202,43.5906 45.5202,42.903 L45.5202,36.4497 C45.5202,35.7622 46.0738,35.2087 46.7613,35.2087 "/>
</g>

<g fill="none" stroke="#000000" stroke-opacity="1" stroke-width="2.43854" stroke-linecap="butt" stroke-linejoin="miter" stroke-miterlimit="4" transform="matrix(0.228,0,0,0.228,11.6,4.6)"
font-family="Inter" font-size="11" font-weight="700" font-style="normal" 
>
<path vector-effect="none" fill-rule="nonzero" d="M23.3682,15.995 C21.89,15.995 20.7001,17.185 20.7001,18.6631 L20.7001,81.3343 C20.7001,82.8125 21.89,84.0024 23.3682,84.0024 L76.6077,84.0024 C78.0859,84.0024 79.2758,82.8125 79.2758,81.3343 L79.2758,18.6631 C79.2758,17.185 78.0859,15.995 76.6077,15.995 L50.8905,15.995 C51.6703,16.0444 52.2838,16.6869 52.2838,17.4796 L52.2838,26.9112 C52.2838,27.7362 51.6196,28.4004 50.7946,28.4004 L49.3054,28.4004 C48.4804,28.4004 47.8161,27.7362 47.8161,26.9112 L47.8161,17.4796 C47.8161,16.6869 48.4298,16.0443 49.2096,15.995 L23.3682,15.995 M46.7613,35.2087 L53.2146,35.2087 C53.9021,35.2087 54.4556,35.7622 54.4556,36.4497 L54.4556,42.903 C54.4556,43.5906 53.9021,44.1439 53.2146,44.1439 L46.7613,44.1439 C46.0738,44.1439 45.5202,43.5906 45.5202,42.903 L45.5202,36.4497 C45.5202,35.7622 46.0738,35.2087 46.7613,35.2087 "/>
</g>

<g fill="#000000" fill-opacity="1" stroke="none" transform="matrix(0.228,0,0,0.228,11.6,4.6)"
font-family="Inter" font-size="11" font-weight="700" font-style="normal" 
>
<path vector-effect="none" fill-rule="evenodd" d="M14.2421,17.9523 C14.2421,17.1298 14.9088,16.4631 15.7313,16.4631 L18.7097,16.4631 C19.5322,16.4631 20.1989,17.1298 20.1989,17.9523 L20.1989,33.8372 C20.1989,34.6597 19.5322,35.3264 18.7097,35.3264 L15.7313,35.3264 C14.9088,35.3264 14.2421,34.6597 14.2421,33.8372 L14.2421,17.9523"/>
</g>

<g fill="none" stroke="#000000" stroke-opacity="1" stroke-width="2.43854" stroke-linecap="butt" stroke-linejoin="miter" stroke-miterlimit="4" transform="matrix(0.228,0,0,0.228,11.6,4.6)"
font-family="Inter" font-size="11" font-weight="700" font-style="normal" 
>
<path vector-effect="none" fill-rule="evenodd" d="M14.2421,17.9523 C14.2421,17.1298 14.9088,16.4631 15.7313,16.4631 L18.7097,16.4631 C19.5322,16.4631 20.1989,17.1298 20.1989,17.9523 L20.1989,33.8372 C20.1989,34.6597 19.5322,35.3264 18.7097,35.3264 L15.7313,35.3264 C14.9088,35.3264 14.2421,34.6597 14.2421,33.8372 L14.2421,17.9523"/>
</g>

<g fill="#000000" fill-opacity="1" stroke="none" transform="matrix(0.228,0,0,0.228,11.6,4.6)"
font-family="Inter" font-size="11" font-weight="700" font-style="normal" 
>
<path vector-effect="none" fill-rule="evenodd" d="M79.3249,17.4662 C79.3249,16.6438 79.9916,15.977 80.8141,15.977 L83.7925,15.977 C84.615,15.977 85.2817,16.6438 85.2817,17.4662 L85.2817,33.3512 C85.2817,34.1736 84.615,34.8404 83.7925,34.8404 L80.8141,34.8404 C79.9916,34.8404 79.3249,34.1736 79.3249,33.3512 L79.3249,17.4662"/>
</g>

<g fill="none" stroke="#000000" stroke-opacity="1" stroke-width="2.43854" stroke-linecap="butt" stroke-linejoin="miter" stroke-miterlimit="4" transform="matrix(0.228,0,0,0.228,11.6,4.6)"
font-family="Inter" font-size="11" font-weight="700" font-style="normal" 
>
<path vector-effect="none" fill-rule="evenodd" d="M79.3249,17.4662 C79.3249,16.6438 79.9916,15.977 80.8141,15.977 L83.7925,15.977 C84.615,15.977 85.2817,16.6438 85.2817,17.4662 L85.2817,33.3512 C85.2817,34.1736 84.615,34.8404 83.7925,34.8404 L80.8141,34.8404 C79.9916,34.8404 79.3249,34.1736 79.3249,33.3512 L79.3249,17.4662"/>
</g>

<g fill="#000000" fill-opacity="1" stroke="none" transform="matrix(0.228,0,0,0.228,11.6,4.6)"
font-family="Inter" font-size="11" font-weight="700" font-style="normal" 
>
<path vector-effect="none" fill-rule="evenodd" d="M79.5633,66.576 C79.5633,65.7535 80.23,65.0868 81.0525,65.0868 L84.0309,65.0868 C84.8534,65.0868 85.5201,65.7535 85.5201,66.576 L85.5201,82.4609 C85.5201,83.2834 84.8534,83.9501 84.0309,83.9501 L81.0525,83.9501 C80.23,83.9501 79.5633,83.2834 79.5633,82.4609 L79.5633,66.576"/>
</g>

<g fill="none" stroke="#000000" stroke-opacity="1" stroke-width="2.43854" stroke-linecap="butt" stroke-linejoin="miter" stroke-miterlimit="4" transform="matrix(0.228,0,0,0.228,11.6,4.6)"
font-family="Inter" font-size="11" font-weight="700" font-style="normal" 
>
<path vector-effect="none" fill-rule="evenodd" d="M79.5633,66.576 C79.5633,65.7535 80.23,65.0868 81.0525,65.0868 L84.0309,65.0868 C84.8534,65.0868 85.5201,65.7535 85.5201,66.576 L85.5201,82.4609 C85.5201,83.2834 84.8534,83.9501 84.0309,83.9501 L81.0525,83.9501 C80.23,83.9501 79.5633,83.2834 79.5633,82.4609 L79.5633,66.576"/>
</g>

<g fill="#000000" fill-opacity="1" stroke="none" transform="matrix(0.228,0,0,0.228,11.6,4.6)"
font-family="Inter" font-size="11" font-weight="700" font-style="normal" 
>
<path vector-effect="none" fill-rule="evenodd" d="M14.6928,66.6283 C14.6928,65.8058 15.3595,65.1391 16.182,65.1391 L19.1604,65.1391 C19.9829,65.1391 20.6496,65.8058 20.6496,66.6283 L20.6496,82.5132 C20.6496,83.3357 19.9829,84.0024 19.1604,84.0024 L16.182,84.0024 C15.3595,84.0024 14.6928,83.3357 14.6928,82.5132 L14.6928,66.6283"/>
</g>

<g fill="none" stroke="#000000" stroke-opacity="1" stroke-width="2.43854" stroke-linecap="butt" stroke-linejoin="miter" stroke-miterlimit="4" transform="matrix(0.228,0,0,0.228,11.6,4.6)"
font-family="Inter" font-size="11" font-weight="700" font-style="normal" 
>
<path vector-effect="none" fill-rule="evenodd" d="M14.6928,66.6283 C14.6928,65.8058 15.3595,65.1391 16.182,65.1391 L19.1604,65.1391 C19.9829,65.1391 20.6496,65.8058 20.6496,66.6283 L20.6496,82.5132 C20.6496,83.3357 19.9829,84.0024 19.1604,84.0024 L16.182,84.0024 C15.3595,84.0024 14.6928,83.3357 14.6928,82.5132 L14.6928,66.6283"/>
</g>

<g fill="none" stroke="#000000" stroke-opacity="1" stroke-width="2.43854" stroke-linecap="butt" stroke-linejoin="miter" stroke-miterlimit="4" transform="matrix(0.228,0,0,0.228,11.6,4.6)"
font-family="Inter" font-size="11" font-weight="700" font-style="normal" 
>
<path vector-effect="none" fill-rule="evenodd" d="M20.92,17.503 C20.92,16.6806 21.5867,16.0138 22.4092,16.0138 L27.125,16.0138 C27.9475,16.0138 28.6142,16.6806 28.6142,17.503 L28.6142,55.9743 C28.6142,56.7968 27.9475,57.4635 27.125,57.4635 L22.4092,57.4635 C21.5867,57.4635 20.92,56.7968 20.92,55.9743 L20.92,17.503"/>
</g>

<g fill="none" stroke="#000000" stroke-opacity="1" stroke-width="2.43854" stroke-linecap="butt" stroke-linejoin="miter" stroke-miterlimit="4" transform="matrix(0.228,0,0,0.228,11.6,4.6)"
font-family="Inter" font-size="11" font-weight="700" font-style="normal" 
>
<path vector-effect="none" fill-rule="evenodd" d="M71.4269,17.6638 C71.4269,16.8414 72.0937,16.1746 72.9162,16.1746 L77.632,16.1746 C78.4545,16.1746 79.1212,16.8414 79.1212,17.6638 L79.1212,56.1351 C79.1212,56.9576 78.4545,57.6243 77.632,57.6243 L72.9162,57.6243 C72.0937,57.6243 71.4269,56.9576 71.4269,56.1351 L71.4269,17.6638"/>
</g>

<g fill="#ffffff" fill-opacity="1" stroke="none" transform="matrix(0.228,0,0,0.228,11.6,4.6)"
font-family="Inter" font-size="11" font-weight="700" font-style="normal" 
>
<path vector-effect="none" fill-rule="evenodd" d="M41.9526,15.9757 C41.9526,15.9593 41.9659,15.9461 41.9822,15.9461 L57.922,15.9461 C57.9384,15.9461 57.9516,15.9593 57.9516,15.9757 C57.9516,15.992 57.9384,16.0053 57.922,16.0053 L41.9822,16.0053 C41.9659,16.0053 41.9526,15.992 41.9526,15.9757 "/>
</g>

<g fill="none" stroke="#000000" stroke-opacity="1" stroke-width="2.3865" stroke-linecap="butt" stroke-linejoin="miter" stroke-miterlimit="4" transform="matrix(0.228,0,0,0.228,11.6,4.6)"
font-family="Inter" font-size="11" font-weight="700" font-style="normal" 
>
<path vector-effect="none" fill-rule="evenodd" d="M41.9526,15.9757 C41.9526,15.9593 41.9659,15.9461 41.9822,15.9461 L57.922,15.9461 C57.9384,15.9461 57.9516,15.9593 57.9516,15.9757 C57.9516,15.992 57.9384,16.0053 57.922,16.0053 L41.9822,16.0053 C41.9659,16.0053 41.9526,15.992 41.9526,15.9757 "/>
</g>

<g fill="#ffffff" fill-opacity="1" stroke="none" transform="matrix(1,0,0,1,0,0)"
font-family="Inter" font-size="11" font-weight="700" font-style="normal" 
>
</g>

<g fill="#ffffff" fill-opacity="1" stroke="#0da6c5" stroke-opacity="1" stroke-width="1" stroke-linecap="square" stroke-linejoin="bevel" transform="matrix(1,0,0,1,0,0)"
font-family="Inter" font-size="11" font-weight="700" font-style="normal" 
>
<polyline fill="none" vector-effect="none" points="45,6 45,26 " />
</g>

<g fill="#ffffff" fill-opacity="1" stroke="#0da6c5" stroke-opacity="1" stroke-width="1" stroke-linecap="square" stroke-linejoin="bevel" transform="matrix(1,0,0,1,0,0)"
font-family="Inter" font-size="11" font-weight="700" font-style="normal" 
>
</g>

<g fill="#1dccf0" fill-opacity="1" stroke="#0da6c5" stroke-opacity="1" stroke-width="1.2" stroke-linecap="square" stroke-linejoin="bevel" transform="matrix(1,0,0,1,56,4)"
font-family="Inter" font-size="11" font-weight="700" font-style="normal" 
>
<path vector-effect="none" fill-rule="evenodd" d="M0.5,3.5 C0.5,1.84315 1.84315,0.5 3.5,0.5 L71.5,0.5 C73.1569,0.5 74.5,1.84315 74.5,3.5 L74.5,20.5 C74.5,22.1569 73.1569,23.5 71.5,23.5 L3.5,23.5 C1.84315,23.5 0.5,22.1569 0.5,20.5 L0.5,3.5"/>
</g>

<g fill="#ffffff" fill-opacity="1" stroke="none" transform="matrix(1,0,0,1,56,4)"
font-family="Inter" font-size="11" font-weight="700" font-style="normal" 
>
<path vector-effect="none" fill-rule="nonzero" d="M10,9.39453 L10,8 L16.5703,8 L16.5703,9.39453 L14.1211,9.39453 L14.1211,16 L12.4492,16 L12.4492,9.39453 L10,9.39453 M17.6484,16 L17.6484,8 L19.3398,8 L19.3398,11.3008 L22.7734,11.3008 L22.7734,8 L24.4609,8 L24.4609,16 L22.7734,16 L22.7734,12.6953 L19.3398,12.6953 L19.3398,16 L17.6484,16 M32.543,8 L32.543,16 L31.082,16 L27.6016,10.9648 L27.543,10.9648 L27.543,16 L25.8516,16 L25.8516,8 L27.3359,8 L30.7891,13.0313 L30.8594,13.0313 L30.8594,8 L32.543,8 M33.9297,16 L33.9297,8 L35.6211,8 L35.6211,11.3008 L39.0547,11.3008 L39.0547,8 L40.7422,8 L40.7422,16 L39.0547,16 L39.0547,12.6953 L35.6211,12.6953 L35.6211,16 L33.9297,16 M42.1328,16 L42.1328,8 L45.3359,8 C45.9245,8 46.4154,8.08724 46.8086,8.26172 C47.2018,8.4362 47.4974,8.67773 47.6953,8.98633 C47.8932,9.29492 47.9922,9.64974 47.9922,10.0508 C47.9922,10.3633 47.9297,10.6374 47.8047,10.873 C47.6797,11.1087 47.5085,11.3014 47.291,11.4512 C47.0736,11.6009 46.8255,11.707 46.5469,11.7695 L46.5469,11.8477 C46.8516,11.8607 47.1374,11.9466 47.4043,12.1055 C47.6712,12.2643 47.888,12.4863 48.0547,12.7715 C48.2214,13.0566 48.3047,13.3958 48.3047,13.7891 C48.3047,14.2135 48.1999,14.5918 47.9902,14.9238 C47.7806,15.2559 47.4714,15.5182 47.0625,15.7109 C46.6536,15.9036 46.1497,16 45.5508,16 L42.1328,16 M43.8242,14.6172 L45.2031,14.6172 C45.6745,14.6172 46.0182,14.5267 46.2344,14.3457 C46.4505,14.1647 46.5586,13.9232 46.5586,13.6211 C46.5586,13.3997 46.5052,13.2044 46.3984,13.0352 C46.2917,12.8659 46.14,12.7331 45.9434,12.6367 C45.7467,12.5404 45.513,12.4922 45.2422,12.4922 L43.8242,12.4922 L43.8242,14.6172 M43.8242,11.3477 L45.0781,11.3477 C45.3099,11.3477 45.5163,11.3066 45.6973,11.2246 C45.8783,11.1426 46.0215,11.026 46.127,10.875 C46.2324,10.724 46.2852,10.543 46.2852,10.332 C46.2852,10.043 46.1829,9.8099 45.9785,9.63281 C45.7741,9.45573 45.4844,9.36719 45.1094,9.36719 L43.8242,9.36719 L43.8242,11.3477 M52.832,8 L52.832,16 L51.1406,16 L51.1406,9.60547 L51.0938,9.60547 L49.2617,10.7539 L49.2617,9.25391 L51.2422,8 L52.832,8"/>
</g>

<g fill="#ffffff" fill-opacity="1" stroke="none" transform="matrix(0.03125,0,0,0.03125,117,12)"
font-family="Inter" font-size="11" font-weight="700" font-style="normal" 
>
<path vector-effect="none" fill-rule="nonzero" d="M111.326,191.938 C120.545,201.158 135.517,201.158 144.737,191.938 L239.144,97.5313 C245.929,90.7458 247.921,80.6413 244.233,71.7907 C240.545,62.9401 231.989,57.1871 222.401,57.1871 L33.5875,57.2608 C24.0731,57.2608 15.4437,63.0137 11.7559,71.8644 C8.06815,80.715 10.1333,90.8195 16.845,97.605 L111.252,192.012 L111.326,191.938"/>
</g>

<g fill="none" stroke="#000000" stroke-opacity="1" stroke-width="13.7195" stroke-linecap="butt" stroke-linejoin="miter" stroke-miterlimit="4" transform="matrix(0.03125,0,0,0.03125,117,12)"
font-family="Inter" font-size="11" font-weight="700" font-style="normal" 
>
<path vector-effect="none" fill-rule="nonzero" d="M111.326,191.938 C120.545,201.158 135.517,201.158 144.737,191.938 L239.144,97.5313 C245.929,90.7458 247.921,80.6413 244.233,71.7907 C240.545,62.9401 231.989,57.1871 222.401,57.1871 L33.5875,57.2608 C24.0731,57.2608 15.4437,63.0137 11.7559,71.8644 C8.06815,80.715 10.1333,90.8195 16.845,97.605 L111.252,192.012 L111.326,191.938"/>
</g>

<g fill="#ffffff" fill-opacity="1" stroke="none" transform="matrix(1,0,0,1,56,4)"
font-family="Inter" font-size="11" font-weight="700" font-style="normal" 
>
</g>

<g fill="#ffffff" fill-opacity="1" stroke="#0da6c5" stroke-opacity="1" stroke-width="1" stroke-linecap="square" stroke-linejoin="bevel" transform="matrix(1,0,0,1,0,0)"
font-family="Inter" font-size="11" font-weight="700" font-style="normal" 
>
</g>

<g fill="#1dccf0" fill-opacity="1" stroke="#0da6c5" stroke-opacity="1" stroke-width="1.2" stroke-linecap="square" stroke-linejoin="bevel" transform="matrix(1,0,0,1,178,4)"
font-family="Inter" font-size="11" font-weight="700" font-style="normal" 
>
<path vector-effect="none" fill-rule="evenodd" d="M0.5,3.5 C0.5,1.84315 1.84315,0.5 3.5,0.5 L63.5,0.5 C65.1569,0.5 66.5,1.84315 66.5,3.5 L66.5,20.5 C66.5,22.1569 65.1569,23.5 63.5,23.5 L3.5,23.5 C1.84315,23.5 0.5,22.1569 0.5,20.5 L0.5,3.5"/>
</g>

<g fill="#ffffff" fill-opacity="1" stroke="none" transform="matrix(1,0,0,1,178,4)"
font-family="Inter" font-size="11" font-weight="700" font-style="normal" 
>
<path vector-effect="none" fill-rule="nonzero" d="M12.9531,15.5703 C12.3385,15.5703 11.8105,15.4395 11.3691,15.1777 C10.9277,14.916 10.5892,14.5521 10.3535,14.0859 C10.1178,13.6198 10,13.0833 10,12.4766 C10,11.862 10.1191,11.3223 10.3574,10.8574 C10.5957,10.3926 10.9349,10.0293 11.375,9.76758 C11.8151,9.50586 12.3385,9.375 12.9453,9.375 C13.4688,9.375 13.9271,9.47005 14.3203,9.66016 C14.7135,9.85026 15.0247,10.1172 15.2539,10.4609 C15.4831,10.8047 15.6094,11.2083 15.6328,11.6719 L14.0625,11.6719 C14.0182,11.3724 13.9017,11.1309 13.7129,10.9473 C13.5241,10.7637 13.2773,10.6719 12.9727,10.6719 C12.7148,10.6719 12.4902,10.7415 12.2988,10.8809 C12.1074,11.0202 11.9583,11.2227 11.8516,11.4883 C11.7448,11.7539 11.6914,12.0755 11.6914,12.4531 C11.6914,12.8359 11.7441,13.1615 11.8496,13.4297 C11.9551,13.6979 12.1042,13.9023 12.2969,14.043 C12.4896,14.1836 12.7148,14.2539 12.9727,14.2539 C13.1628,14.2539 13.334,14.2148 13.4863,14.1367 C13.6387,14.0586 13.765,13.9447 13.8652,13.7949 C13.9655,13.6452 14.0313,13.4648 14.0625,13.2539 L15.6328,13.2539 C15.6068,13.7122 15.4824,14.1152 15.2598,14.4629 C15.0371,14.8105 14.7305,15.082 14.3398,15.2773 C13.9492,15.4727 13.487,15.5703 12.9531,15.5703 M19.4297,15.5703 C18.8125,15.5703 18.2819,15.4447 17.8379,15.1934 C17.3939,14.9421 17.0521,14.5853 16.8125,14.123 C16.5729,13.6608 16.4531,13.1133 16.4531,12.4805 C16.4531,11.8633 16.5729,11.3216 16.8125,10.8555 C17.0521,10.3893 17.39,10.026 17.8262,9.76563 C18.2624,9.50521 18.7747,9.375 19.3633,9.375 C19.7591,9.375 20.1283,9.43815 20.4707,9.56445 C20.8132,9.69076 21.1126,9.88021 21.3691,10.1328 C21.6257,10.3854 21.8255,10.7025 21.9688,11.084 C22.112,11.4655 22.1836,11.9115 22.1836,12.4219 L22.1836,12.8789 L17.1172,12.8789 L17.1172,11.8477 L20.6172,11.8477 C20.6172,11.6081 20.5651,11.3958 20.4609,11.2109 C20.3568,11.026 20.2129,10.8809 20.0293,10.7754 C19.8457,10.6699 19.6328,10.6172 19.3906,10.6172 C19.138,10.6172 18.9147,10.6751 18.7207,10.791 C18.5267,10.9069 18.375,11.0618 18.2656,11.2559 C18.1563,11.4499 18.1003,11.6654 18.0977,11.9023 L18.0977,12.8828 C18.0977,13.1797 18.153,13.4362 18.2637,13.6523 C18.3743,13.8685 18.5313,14.0352 18.7344,14.1523 C18.9375,14.2695 19.1784,14.3281 19.457,14.3281 C19.6419,14.3281 19.8112,14.3021 19.9648,14.25 C20.1185,14.1979 20.25,14.1198 20.3594,14.0156 C20.4688,13.9115 20.5521,13.7839 20.6094,13.6328 L22.1484,13.7344 C22.0703,14.1042 21.9108,14.4264 21.6699,14.7012 C21.429,14.9759 21.1191,15.1895 20.7402,15.3418 C20.3613,15.4941 19.9245,15.5703 19.4297,15.5703 M24.9219,11.9844 L24.9219,15.4531 L23.2578,15.4531 L23.2578,9.45313 L24.8438,9.45313 L24.8438,10.5117 L24.9141,10.5117 C25.0469,10.1628 25.2695,9.88607 25.582,9.68164 C25.8945,9.47721 26.2734,9.375 26.7188,9.375 C27.1354,9.375 27.4987,9.46615 27.8086,9.64844 C28.1185,9.83073 28.3594,10.0905 28.5313,10.4277 C28.7031,10.765 28.7891,11.1667 28.7891,11.6328 L28.7891,15.4531 L27.125,15.4531 L27.125,11.9297 C27.1276,11.5625 27.0339,11.2754 26.8438,11.0684 C26.6536,10.8613 26.3919,10.7578 26.0586,10.7578 C25.8346,10.7578 25.6374,10.806 25.4668,10.9023 C25.2962,10.9987 25.1634,11.1387 25.0684,11.3223 C24.9733,11.5059 24.9245,11.7266 24.9219,11.9844 M33.2773,9.45313 L33.2773,10.7031 L29.6641,10.7031 L29.6641,9.45313 L33.2773,9.45313 M30.4844,8.01563 L32.1484,8.01563 L32.1484,13.6094 C32.1484,13.763 32.1719,13.8822 32.2188,13.9668 C32.2656,14.0514 32.3314,14.1107 32.416,14.1445 C32.5007,14.1784 32.599,14.1953 32.7109,14.1953 C32.7891,14.1953 32.8672,14.1882 32.9453,14.1738 C33.0234,14.1595 33.0833,14.1484 33.125,14.1406 L33.3867,15.3789 C33.3034,15.4049 33.1862,15.4355 33.0352,15.4707 C32.8841,15.5059 32.7005,15.5273 32.4844,15.5352 C32.0833,15.5508 31.7324,15.4974 31.4316,15.375 C31.1309,15.2526 30.8971,15.0625 30.7305,14.8047 C30.5638,14.5469 30.4818,14.2214 30.4844,13.8281 L30.4844,8.01563 M37.0234,15.5703 C36.4063,15.5703 35.8757,15.4447 35.4316,15.1934 C34.9876,14.9421 34.6458,14.5853 34.4063,14.123 C34.1667,13.6608 34.0469,13.1133 34.0469,12.4805 C34.0469,11.8633 34.1667,11.3216 34.4063,10.8555 C34.6458,10.3893 34.9837,10.026 35.4199,9.76563 C35.8561,9.50521 36.3685,9.375 36.957,9.375 C37.3529,9.375 37.722,9.43815 38.0645,9.56445 C38.4069,9.69076 38.7064,9.88021 38.9629,10.1328 C39.2194,10.3854 39.4193,10.7025 39.5625,11.084 C39.7057,11.4655 39.7773,11.9115 39.7773,12.4219 L39.7773,12.8789 L34.7109,12.8789 L34.7109,11.8477 L38.2109,11.8477 C38.2109,11.6081 38.1589,11.3958 38.0547,11.2109 C37.9505,11.026 37.8066,10.8809 37.623,10.7754 C37.4395,10.6699 37.2266,10.6172 36.9844,10.6172 C36.7318,10.6172 36.5085,10.6751 36.3145,10.791 C36.1204,10.9069 35.9688,11.0618 35.8594,11.2559 C35.75,11.4499 35.694,11.6654 35.6914,11.9023 L35.6914,12.8828 C35.6914,13.1797 35.7467,13.4362 35.8574,13.6523 C35.9681,13.8685 36.125,14.0352 36.3281,14.1523 C36.5313,14.2695 36.7721,14.3281 37.0508,14.3281 C37.2357,14.3281 37.4049,14.3021 37.5586,14.25 C37.7122,14.1979 37.8438,14.1198 37.9531,14.0156 C38.0625,13.9115 38.1458,13.7839 38.2031,13.6328 L39.7422,13.7344 C39.6641,14.1042 39.5046,14.4264 39.2637,14.7012 C39.0228,14.9759 38.7129,15.1895 38.334,15.3418 C37.9551,15.4941 37.5182,15.5703 37.0234,15.5703 M40.8516,15.4531 L40.8516,9.45313 L42.4648,9.45313 L42.4648,10.5 L42.5273,10.5 C42.6367,10.1276 42.8203,9.8457 43.0781,9.6543 C43.3359,9.46289 43.6328,9.36719 43.9688,9.36719 C44.0521,9.36719 44.1419,9.3724 44.2383,9.38281 C44.3346,9.39323 44.4193,9.40755 44.4922,9.42578 L44.4922,10.9023 C44.4141,10.8789 44.306,10.8581 44.168,10.8398 C44.0299,10.8216 43.9036,10.8125 43.7891,10.8125 C43.5443,10.8125 43.3262,10.8652 43.1348,10.9707 C42.9434,11.0762 42.7923,11.2227 42.6816,11.4102 C42.571,11.5977 42.5156,11.8138 42.5156,12.0586 L42.5156,15.4531 L40.8516,15.4531"/>
</g>

<g fill="#ffffff" fill-opacity="1" stroke="none" transform="matrix(0.03125,0,0,0.03125,231,12)"
font-family="Inter" font-size="11" font-weight="700" font-style="normal" 
>
<path vector-effect="none" fill-rule="nonzero" d="M111.326,191.938 C120.545,201.158 135.517,201.158 144.737,191.938 L239.144,97.5313 C245.929,90.7458 247.921,80.6413 244.233,71.7907 C240.545,62.9401 231.989,57.1871 222.401,57.1871 L33.5875,57.2608 C24.0731,57.2608 15.4437,63.0137 11.7559,71.8644 C8.06815,80.715 10.1333,90.8195 16.845,97.605 L111.252,192.012 L111.326,191.938"/>
</g>

<g fill="none" stroke="#000000" stroke-opacity="1" stroke-width="13.7195" stroke-linecap="butt" stroke-linejoin="miter" stroke-miterlimit="4" transform="matrix(0.03125,0,0,0.03125,231,12)"
font-family="Inter" font-size="11" font-weight="700" font-style="normal" 
>
<path vector-effect="none" fill-rule="nonzero" d="M111.326,191.938 C120.545,201.158 135.517,201.158 144.737,191.938 L239.144,97.5313 C245.929,90.7458 247.921,80.6413 244.233,71.7907 C240.545,62.9401 231.989,57.1871 222.401,57.1871 L33.5875,57.2608 C24.0731,57.2608 15.4437,63.0137 11.7559,71.8644 C8.06815,80.715 10.1333,90.8195 16.845,97.605 L111.252,192.012 L111.326,191.938"/>
</g>

<g fill="#ffffff" fill-opacity="1" stroke="none" transform="matrix(1,0,0,1,178,4)"
font-family="Inter" font-size="11" font-weight="700" font-style="normal" 
>
</g>

<g fill="#ffffff" fill-opacity="1" stroke="#0da6c5" stroke-opacity="1" stroke-width="1" stroke-linecap="square" stroke-linejoin="bevel" transform="matrix(1,0,0,1,0,0)"
font-family="Inter" font-size="11" font-weight="700" font-style="normal" 
>
</g>

<g fill="#1dccf0" fill-opacity="1" stroke="#0da6c5" stroke-opacity="1" stroke-width="1.2" stroke-linecap="square" stroke-linejoin="bevel" transform="matrix(1,0,0,1,249,4)"
font-family="Inter" font-size="11" font-weight="700" font-style="normal" 
>
<path vector-effect="none" fill-rule="evenodd" d="M0.5,3.5 C0.5,1.84315 1.84315,0.5 3.5,0.5 L70.5,0.5 C72.1569,0.5 73.5,1.84315 73.5,3.5 L73.5,20.5 C73.5,22.1569 72.1569,23.5 70.5,23.5 L3.5,23.5 C1.84315,23.5 0.5,22.1569 0.5,20.5 L0.5,3.5"/>
</g>

<g fill="#ffffff" fill-opacity="1" stroke="none" transform="matrix(1,0,0,1,249,4)"
font-family="Inter" font-size="11" font-weight="700" font-style="normal" 
>
<path vector-effect="none" fill-rule="nonzero" d="M9.00781,17.0781 L9.00781,8.82813 L10.6484,8.82813 L10.6484,9.83594 L10.7227,9.83594 C10.7956,9.67448 10.9017,9.50977 11.041,9.3418 C11.1803,9.17383 11.3626,9.0332 11.5879,8.91992 C11.8132,8.80664 12.0938,8.75 12.4297,8.75 C12.8672,8.75 13.2708,8.86393 13.6406,9.0918 C14.0104,9.31966 14.306,9.66211 14.5273,10.1191 C14.7487,10.5762 14.8594,11.1484 14.8594,11.8359 C14.8594,12.5052 14.752,13.0697 14.5371,13.5293 C14.3223,13.9889 14.0306,14.3366 13.6621,14.5723 C13.2936,14.8079 12.8815,14.9258 12.4258,14.9258 C12.1029,14.9258 11.8288,14.8724 11.6035,14.7656 C11.3783,14.6589 11.194,14.5241 11.0508,14.3613 C10.9076,14.1986 10.7982,14.0339 10.7227,13.8672 L10.6719,13.8672 L10.6719,17.0781 L9.00781,17.0781 M10.6367,11.8281 C10.6367,12.1849 10.6862,12.4961 10.7852,12.7617 C10.8841,13.0273 11.0273,13.2337 11.2148,13.3809 C11.4023,13.528 11.6302,13.6016 11.8984,13.6016 C12.1693,13.6016 12.3984,13.5267 12.5859,13.377 C12.7734,13.2272 12.916,13.0189 13.0137,12.752 C13.1113,12.485 13.1602,12.1771 13.1602,11.8281 C13.1602,11.4818 13.112,11.1771 13.0156,10.9141 C12.9193,10.651 12.7773,10.4453 12.5898,10.2969 C12.4023,10.1484 12.1719,10.0742 11.8984,10.0742 C11.6276,10.0742 11.3991,10.1458 11.2129,10.2891 C11.0267,10.4323 10.8841,10.6354 10.7852,10.8984 C10.6862,11.1615 10.6367,11.4714 10.6367,11.8281 M15.9609,14.8281 L15.9609,8.82813 L17.5742,8.82813 L17.5742,9.875 L17.6367,9.875 C17.7461,9.5026 17.9297,9.2207 18.1875,9.0293 C18.4453,8.83789 18.7422,8.74219 19.0781,8.74219 C19.1615,8.74219 19.2513,8.7474 19.3477,8.75781 C19.444,8.76823 19.5286,8.78255 19.6016,8.80078 L19.6016,10.2773 C19.5234,10.2539 19.4154,10.2331 19.2773,10.2148 C19.1393,10.1966 19.013,10.1875 18.8984,10.1875 C18.6536,10.1875 18.4355,10.2402 18.2441,10.3457 C18.0527,10.4512 17.9017,10.5977 17.791,10.7852 C17.6803,10.9727 17.625,11.1888 17.625,11.4336 L17.625,14.8281 L15.9609,14.8281 M22.8984,14.9453 C22.2813,14.9453 21.7507,14.8197 21.3066,14.5684 C20.8626,14.3171 20.5208,13.9603 20.2813,13.498 C20.0417,13.0358 19.9219,12.4883 19.9219,11.8555 C19.9219,11.2383 20.0417,10.6966 20.2813,10.2305 C20.5208,9.76432 20.8587,9.40104 21.2949,9.14063 C21.7311,8.88021 22.2435,8.75 22.832,8.75 C23.2279,8.75 23.597,8.81315 23.9395,8.93945 C24.2819,9.06576 24.5814,9.25521 24.8379,9.50781 C25.0944,9.76042 25.2943,10.0775 25.4375,10.459 C25.5807,10.8405 25.6523,11.2865 25.6523,11.7969 L25.6523,12.2539 L20.5859,12.2539 L20.5859,11.2227 L24.0859,11.2227 C24.0859,10.9831 24.0339,10.7708 23.9297,10.5859 C23.8255,10.401 23.6816,10.2559 23.498,10.1504 C23.3145,10.0449 23.1016,9.99219 22.8594,9.99219 C22.6068,9.99219 22.3835,10.0501 22.1895,10.166 C21.9954,10.2819 21.8438,10.4368 21.7344,10.6309 C21.625,10.8249 21.569,11.0404 21.5664,11.2773 L21.5664,12.2578 C21.5664,12.5547 21.6217,12.8112 21.7324,13.0273 C21.8431,13.2435 22,13.4102 22.2031,13.5273 C22.4063,13.6445 22.6471,13.7031 22.9258,13.7031 C23.1107,13.7031 23.2799,13.6771 23.4336,13.625 C23.5872,13.5729 23.7188,13.4948 23.8281,13.3906 C23.9375,13.2865 24.0208,13.1589 24.0781,13.0078 L25.6172,13.1094 C25.5391,13.4792 25.3796,13.8014 25.1387,14.0762 C24.8978,14.3509 24.5879,14.5645 24.209,14.7168 C23.8301,14.8691 23.3932,14.9453 22.8984,14.9453 M31.7188,10.5391 L30.1953,10.6328 C30.1693,10.5026 30.1133,10.3848 30.0273,10.2793 C29.9414,10.1738 29.8288,10.0892 29.6895,10.0254 C29.5501,9.96159 29.3841,9.92969 29.1914,9.92969 C28.9336,9.92969 28.7161,9.98372 28.5391,10.0918 C28.362,10.1999 28.2734,10.3438 28.2734,10.5234 C28.2734,10.6667 28.3307,10.7878 28.4453,10.8867 C28.5599,10.9857 28.7565,11.0651 29.0352,11.125 L30.1211,11.3438 C30.7044,11.4635 31.1393,11.6563 31.4258,11.9219 C31.7122,12.1875 31.8555,12.5365 31.8555,12.9688 C31.8555,13.362 31.7402,13.707 31.5098,14.0039 C31.2793,14.3008 30.9642,14.5319 30.5645,14.6973 C30.1647,14.8626 29.7044,14.9453 29.1836,14.9453 C28.3893,14.9453 27.7572,14.7793 27.2871,14.4473 C26.8171,14.1152 26.5417,13.6628 26.4609,13.0898 L28.0977,13.0039 C28.1471,13.2461 28.2669,13.4303 28.457,13.5566 C28.6471,13.6829 28.8906,13.7461 29.1875,13.7461 C29.4792,13.7461 29.7142,13.6895 29.8926,13.5762 C30.071,13.4629 30.1615,13.3164 30.1641,13.1367 C30.1615,12.9857 30.0977,12.8613 29.9727,12.7637 C29.8477,12.666 29.6549,12.5911 29.3945,12.5391 L28.3555,12.332 C27.7695,12.2148 27.334,12.0117 27.0488,11.7227 C26.7637,11.4336 26.6211,11.0651 26.6211,10.6172 C26.6211,10.2318 26.7259,9.89974 26.9355,9.62109 C27.1452,9.34245 27.4408,9.1276 27.8223,8.97656 C28.2038,8.82552 28.651,8.75 29.1641,8.75 C29.9219,8.75 30.5189,8.91016 30.9551,9.23047 C31.3913,9.55078 31.6458,9.98698 31.7188,10.5391 M37.8906,10.5391 L36.3672,10.6328 C36.3411,10.5026 36.2852,10.3848 36.1992,10.2793 C36.1133,10.1738 36.0007,10.0892 35.8613,10.0254 C35.722,9.96159 35.556,9.92969 35.3633,9.92969 C35.1055,9.92969 34.888,9.98372 34.7109,10.0918 C34.5339,10.1999 34.4453,10.3438 34.4453,10.5234 C34.4453,10.6667 34.5026,10.7878 34.6172,10.8867 C34.7318,10.9857 34.9284,11.0651 35.207,11.125 L36.293,11.3438 C36.8763,11.4635 37.3112,11.6563 37.5977,11.9219 C37.8841,12.1875 38.0273,12.5365 38.0273,12.9688 C38.0273,13.362 37.9121,13.707 37.6816,14.0039 C37.4512,14.3008 37.1361,14.5319 36.7363,14.6973 C36.3366,14.8626 35.8763,14.9453 35.3555,14.9453 C34.5612,14.9453 33.929,14.7793 33.459,14.4473 C32.9889,14.1152 32.7135,13.6628 32.6328,13.0898 L34.2695,13.0039 C34.319,13.2461 34.4388,13.4303 34.6289,13.5566 C34.819,13.6829 35.0625,13.7461 35.3594,13.7461 C35.651,13.7461 35.8861,13.6895 36.0645,13.5762 C36.2428,13.4629 36.3333,13.3164 36.3359,13.1367 C36.3333,12.9857 36.2695,12.8613 36.1445,12.7637 C36.0195,12.666 35.8268,12.5911 35.5664,12.5391 L34.5273,12.332 C33.9414,12.2148 33.5059,12.0117 33.2207,11.7227 C32.9355,11.4336 32.793,11.0651 32.793,10.6172 C32.793,10.2318 32.8978,9.89974 33.1074,9.62109 C33.3171,9.34245 33.6126,9.1276 33.9941,8.97656 C34.3757,8.82552 34.8229,8.75 35.3359,8.75 C36.0938,8.75 36.6908,8.91016 37.127,9.23047 C37.5632,9.55078 37.8177,9.98698 37.8906,10.5391 M41.8047,14.9453 C41.1875,14.9453 40.6569,14.8197 40.2129,14.5684 C39.7689,14.3171 39.4271,13.9603 39.1875,13.498 C38.9479,13.0358 38.8281,12.4883 38.8281,11.8555 C38.8281,11.2383 38.9479,10.6966 39.1875,10.2305 C39.4271,9.76432 39.765,9.40104 40.2012,9.14063 C40.6374,8.88021 41.1497,8.75 41.7383,8.75 C42.1341,8.75 42.5033,8.81315 42.8457,8.93945 C43.1882,9.06576 43.4876,9.25521 43.7441,9.50781 C44.0007,9.76042 44.2005,10.0775 44.3438,10.459 C44.487,10.8405 44.5586,11.2865 44.5586,11.7969 L44.5586,12.2539 L39.4922,12.2539 L39.4922,11.2227 L42.9922,11.2227 C42.9922,10.9831 42.9401,10.7708 42.8359,10.5859 C42.7318,10.401 42.5879,10.2559 42.4043,10.1504 C42.2207,10.0449 42.0078,9.99219 41.7656,9.99219 C41.513,9.99219 41.2897,10.0501 41.0957,10.166 C40.9017,10.2819 40.75,10.4368 40.6406,10.6309 C40.5313,10.8249 40.4753,11.0404 40.4727,11.2773 L40.4727,12.2578 C40.4727,12.5547 40.528,12.8112 40.6387,13.0273 C40.7493,13.2435 40.9063,13.4102 41.1094,13.5273 C41.3125,13.6445 41.5534,13.7031 41.832,13.7031 C42.0169,13.7031 42.1862,13.6771 42.3398,13.625 C42.4935,13.5729 42.625,13.4948 42.7344,13.3906 C42.8438,13.2865 42.9271,13.1589 42.9844,13.0078 L44.5234,13.1094 C44.4453,13.4792 44.2858,13.8014 44.0449,14.0762 C43.804,14.3509 43.4941,14.5645 43.1152,14.7168 C42.7363,14.8691 42.2995,14.9453 41.8047,14.9453 M47.8438,14.9258 C47.388,14.9258 46.9759,14.8079 46.6074,14.5723 C46.2389,14.3366 45.9473,13.9889 45.7324,13.5293 C45.5176,13.0697 45.4102,12.5052 45.4102,11.8359 C45.4102,11.1484 45.5208,10.5762 45.7422,10.1191 C45.9635,9.66211 46.2585,9.31966 46.627,9.0918 C46.9954,8.86393 47.3997,8.75 47.8398,8.75 C48.1758,8.75 48.4564,8.80664 48.6816,8.91992 C48.9069,9.0332 49.0892,9.17383 49.2285,9.3418 C49.3678,9.50977 49.474,9.67448 49.5469,9.83594 L49.5977,9.83594 L49.5977,6.82813 L51.2578,6.82813 L51.2578,14.8281 L49.6172,14.8281 L49.6172,13.8672 L49.5469,13.8672 C49.4688,14.0339 49.3587,14.1986 49.2168,14.3613 C49.0749,14.5241 48.8913,14.6589 48.666,14.7656 C48.4408,14.8724 48.1667,14.9258 47.8438,14.9258 M48.3711,13.6016 C48.6393,13.6016 48.8665,13.528 49.0527,13.3809 C49.2389,13.2337 49.3822,13.0273 49.4824,12.7617 C49.5827,12.4961 49.6328,12.1849 49.6328,11.8281 C49.6328,11.4714 49.5833,11.1615 49.4844,10.8984 C49.3854,10.6354 49.2422,10.4323 49.0547,10.2891 C48.8672,10.1458 48.6393,10.0742 48.3711,10.0742 C48.0977,10.0742 47.8672,10.1484 47.6797,10.2969 C47.4922,10.4453 47.3503,10.651 47.2539,10.9141 C47.1576,11.1771 47.1094,11.4818 47.1094,11.8281 C47.1094,12.1771 47.1582,12.485 47.2559,12.752 C47.3535,13.0189 47.4954,13.2272 47.6816,13.377 C47.8678,13.5267 48.0977,13.6016 48.3711,13.6016 "/>
</g>

<g fill="#ffffff" fill-opacity="1" stroke="none" transform="matrix(0.03125,0,0,0.03125,309,12)"
font-family="Inter" font-size="11" font-weight="700" font-style="normal" 
>
<path vector-effect="none" fill-rule="nonzero" d="M111.326,191.938 C120.545,201.158 135.517,201.158 144.737,191.938 L239.144,97.5313 C245.929,90.7458 247.921,80.6413 244.233,71.7907 C240.545,62.9401 231.989,57.1871 222.401,57.1871 L33.5875,57.2608 C24.0731,57.2608 15.4437,63.0137 11.7559,71.8644 C8.06815,80.715 10.1333,90.8195 16.845,97.605 L111.252,192.012 L111.326,191.938"/>
</g>

<g fill="none" stroke="#000000" stroke-opacity="1" stroke-width="13.7195" stroke-linecap="butt" stroke-linejoin="miter" stroke-miterlimit="4" transform="matrix(0.03125,0,0,0.03125,309,12)"
font-family="Inter" font-size="11" font-weight="700" font-style="normal" 
>
<path vector-effect="none" fill-rule="nonzero" d="M111.326,191.938 C120.545,201.158 135.517,201.158 144.737,191.938 L239.144,97.5313 C245.929,90.7458 247.921,80.6413 244.233,71.7907 C240.545,62.9401 231.989,57.1871 222.401,57.1871 L33.5875,57.2608 C24.0731,57.2608 15.4437,63.0137 11.7559,71.8644 C8.06815,80.715 10.1333,90.8195 16.845,97.605 L111.252,192.012 L111.326,191.938"/>
</g>

<g fill="#ffffff" fill-opacity="1" stroke="none" transform="matrix(1,0,0,1,249,4)"
font-family="Inter" font-size="11" font-weight="700" font-style="normal" 
>
</g>

<g fill="#ffffff" fill-opacity="1" stroke="#0da6c5" stroke-opacity="1" stroke-width="1" stroke-linecap="square" stroke-linejoin="bevel" transform="matrix(1,0,0,1,0,0)"
font-family="Inter" font-size="11" font-weight="700" font-style="normal" 
>
</g>

<g fill="none" stroke="#000000" stroke-opacity="1" stroke-width="1" stroke-linecap="square" stroke-linejoin="bevel" transform="matrix(1,0,0,1,0,0)"
font-family=".AppleSystemUIFont" font-size="13" font-weight="400" font-style="normal" 
>
</g>
</g>
</svg>
