<?xml version="1.0" encoding="UTF-8" standalone="no"?>
<svg width="120.297mm" height="15.5222mm"
 viewBox="0 0 341 44"
 xmlns="http://www.w3.org/2000/svg" xmlns:xlink="http://www.w3.org/1999/xlink" version="1.2" baseProfile="tiny">
<title>Abstract block</title>
<desc>block_hubs_all_motors_port_set_relative_position</desc>
<defs>
</defs>
<g fill="none" stroke="black" stroke-width="1" fill-rule="evenodd" stroke-linecap="square" stroke-linejoin="bevel" >

<g fill="none" stroke="#000000" stroke-opacity="1" stroke-width="1" stroke-linecap="square" stroke-linejoin="bevel" transform="matrix(1,0,0,1,0,0)"
font-family=".AppleSystemUIFont" font-size="13" font-weight="400" font-style="normal" 
>
</g>

<g fill="none" stroke="#000000" stroke-opacity="1" stroke-width="1" stroke-linecap="square" stroke-linejoin="bevel" transform="matrix(1,0,0,1,0,0)"
font-family=".AppleSystemUIFont" font-size="13" font-weight="400" font-style="normal" 
>
</g>

<g fill="#0090f5" fill-opacity="1" stroke="#0070ba" stroke-opacity="1" stroke-width="1.2" stroke-linecap="square" stroke-linejoin="bevel" transform="matrix(1,0,0,1,0,0)"
font-family=".AppleSystemUIFont" font-size="13" font-weight="400" font-style="normal" 
>
<path vector-effect="none" fill-rule="evenodd" d="M0.5,4.5 L1.04612,2.48112 L2.48112,1.04612 L4.5,0.5 L9.625,0.5 L10.416,0.976563 L11.1719,1.6875 L11.998,2.67969 L13,4 L13.7559,4.66016 L14.5469,5.15625 L15.4082,5.51172 L16.375,5.75 L17.4824,5.89453 L18.7656,5.96875 L20.2598,5.99609 L22,6 L23.7402,5.99609 L25.2344,5.96875 L26.5176,5.89453 L27.625,5.75 L28.5918,5.51172 L29.4531,5.15625 L30.2441,4.66016 L31,4 L32.002,2.67969 L32.8281,1.6875 L33.584,0.976563 L34.375,0.5 L335.9,0.5 L337.919,1.04612 L339.354,2.48112 L339.9,4.5 L339.9,31.5 L339.354,33.5189 L337.919,34.9539 L335.9,35.5 L34.375,35.5 L33.584,35.9766 L32.8281,36.6875 L32.002,37.6797 L31,39 L30.2441,39.6602 L29.4531,40.1563 L28.5918,40.5117 L27.625,40.75 L26.5176,40.8945 L25.2344,40.9688 L23.7402,40.9961 L22,41 L20.2598,40.9961 L18.7656,40.9688 L17.4824,40.8945 L16.375,40.75 L15.4082,40.5117 L14.5469,40.1563 L13.7559,39.6602 L13,39 L11.998,37.6797 L11.1719,36.6875 L10.416,35.9766 L9.625,35.5 L4.5,35.5 L2.48112,34.9539 L1.04612,33.5189 L0.5,31.5 L0.5,4.5"/>
</g>

<g fill="#ffffff" fill-opacity="1" stroke="none" transform="matrix(1,0,0,1,0,0)"
font-family="Inter" font-size="11" font-weight="700" font-style="normal" 
>
<path vector-effect="none" fill-rule="nonzero" d="M186.5,16.7734 L184.977,16.8672 C184.951,16.737 184.895,16.6191 184.809,16.5137 C184.723,16.4082 184.61,16.3236 184.471,16.2598 C184.331,16.196 184.165,16.1641 183.973,16.1641 C183.715,16.1641 183.497,16.2181 183.32,16.3262 C183.143,16.4342 183.055,16.5781 183.055,16.7578 C183.055,16.901 183.112,17.0221 183.227,17.1211 C183.341,17.2201 183.538,17.2995 183.816,17.3594 L184.902,17.5781 C185.486,17.6979 185.921,17.8906 186.207,18.1563 C186.493,18.4219 186.637,18.7708 186.637,19.2031 C186.637,19.5964 186.521,19.9414 186.291,20.2383 C186.061,20.5352 185.745,20.7663 185.346,20.9316 C184.946,21.097 184.486,21.1797 183.965,21.1797 C183.171,21.1797 182.538,21.0137 182.068,20.6816 C181.598,20.3496 181.323,19.8971 181.242,19.3242 L182.879,19.2383 C182.928,19.4805 183.048,19.6647 183.238,19.791 C183.428,19.9173 183.672,19.9805 183.969,19.9805 C184.26,19.9805 184.495,19.9238 184.674,19.8105 C184.852,19.6973 184.943,19.5508 184.945,19.3711 C184.943,19.2201 184.879,19.0957 184.754,18.998 C184.629,18.9004 184.436,18.8255 184.176,18.7734 L183.137,18.5664 C182.551,18.4492 182.115,18.2461 181.83,17.957 C181.545,17.668 181.402,17.2995 181.402,16.8516 C181.402,16.4661 181.507,16.1341 181.717,15.8555 C181.926,15.5768 182.222,15.362 182.604,15.2109 C182.985,15.0599 183.432,14.9844 183.945,14.9844 C184.703,14.9844 185.3,15.1445 185.736,15.4648 C186.173,15.7852 186.427,16.2214 186.5,16.7734 M190.414,21.1797 C189.797,21.1797 189.266,21.054 188.822,20.8027 C188.378,20.5514 188.036,20.1947 187.797,19.7324 C187.557,19.2702 187.438,18.7227 187.438,18.0898 C187.438,17.4727 187.557,16.931 187.797,16.4648 C188.036,15.9987 188.374,15.6354 188.811,15.375 C189.247,15.1146 189.759,14.9844 190.348,14.9844 C190.743,14.9844 191.113,15.0475 191.455,15.1738 C191.798,15.3001 192.097,15.4896 192.354,15.7422 C192.61,15.9948 192.81,16.3118 192.953,16.6934 C193.096,17.0749 193.168,17.5208 193.168,18.0313 L193.168,18.4883 L188.102,18.4883 L188.102,17.457 L191.602,17.457 C191.602,17.2174 191.549,17.0052 191.445,16.8203 C191.341,16.6354 191.197,16.4902 191.014,16.3848 C190.83,16.2793 190.617,16.2266 190.375,16.2266 C190.122,16.2266 189.899,16.2845 189.705,16.4004 C189.511,16.5163 189.359,16.6712 189.25,16.8652 C189.141,17.0592 189.085,17.2747 189.082,17.5117 L189.082,18.4922 C189.082,18.7891 189.137,19.0456 189.248,19.2617 C189.359,19.4779 189.516,19.6445 189.719,19.7617 C189.922,19.8789 190.163,19.9375 190.441,19.9375 C190.626,19.9375 190.796,19.9115 190.949,19.8594 C191.103,19.8073 191.234,19.7292 191.344,19.625 C191.453,19.5208 191.536,19.3932 191.594,19.2422 L193.133,19.3438 C193.055,19.7135 192.895,20.0358 192.654,20.3105 C192.413,20.5853 192.104,20.7988 191.725,20.9512 C191.346,21.1035 190.909,21.1797 190.414,21.1797 M197.434,15.0625 L197.434,16.3125 L193.82,16.3125 L193.82,15.0625 L197.434,15.0625 M194.641,13.625 L196.305,13.625 L196.305,19.2188 C196.305,19.3724 196.328,19.4915 196.375,19.5762 C196.422,19.6608 196.488,19.7201 196.572,19.7539 C196.657,19.7878 196.755,19.8047 196.867,19.8047 C196.945,19.8047 197.023,19.7975 197.102,19.7832 C197.18,19.7689 197.24,19.7578 197.281,19.75 L197.543,20.9883 C197.46,21.0143 197.342,21.0449 197.191,21.0801 C197.04,21.1152 196.857,21.1367 196.641,21.1445 C196.24,21.1602 195.889,21.1068 195.588,20.9844 C195.287,20.862 195.053,20.6719 194.887,20.4141 C194.72,20.1563 194.638,19.8307 194.641,19.4375 L194.641,13.625 M201.055,21.0625 L201.055,15.0625 L202.668,15.0625 L202.668,16.1094 L202.73,16.1094 C202.84,15.737 203.023,15.4551 203.281,15.2637 C203.539,15.0723 203.836,14.9766 204.172,14.9766 C204.255,14.9766 204.345,14.9818 204.441,14.9922 C204.538,15.0026 204.622,15.0169 204.695,15.0352 L204.695,16.5117 C204.617,16.4883 204.509,16.4674 204.371,16.4492 C204.233,16.431 204.107,16.4219 203.992,16.4219 C203.747,16.4219 203.529,16.4746 203.338,16.5801 C203.146,16.6855 202.995,16.832 202.885,17.0195 C202.774,17.207 202.719,17.4232 202.719,17.668 L202.719,21.0625 L201.055,21.0625 M207.992,21.1797 C207.375,21.1797 206.844,21.054 206.4,20.8027 C205.956,20.5514 205.615,20.1947 205.375,19.7324 C205.135,19.2702 205.016,18.7227 205.016,18.0898 C205.016,17.4727 205.135,16.931 205.375,16.4648 C205.615,15.9987 205.952,15.6354 206.389,15.375 C206.825,15.1146 207.337,14.9844 207.926,14.9844 C208.322,14.9844 208.691,15.0475 209.033,15.1738 C209.376,15.3001 209.675,15.4896 209.932,15.7422 C210.188,15.9948 210.388,16.3118 210.531,16.6934 C210.674,17.0749 210.746,17.5208 210.746,18.0313 L210.746,18.4883 L205.68,18.4883 L205.68,17.457 L209.18,17.457 C209.18,17.2174 209.128,17.0052 209.023,16.8203 C208.919,16.6354 208.775,16.4902 208.592,16.3848 C208.408,16.2793 208.195,16.2266 207.953,16.2266 C207.701,16.2266 207.477,16.2845 207.283,16.4004 C207.089,16.5163 206.938,16.6712 206.828,16.8652 C206.719,17.0592 206.663,17.2747 206.66,17.5117 L206.66,18.4922 C206.66,18.7891 206.715,19.0456 206.826,19.2617 C206.937,19.4779 207.094,19.6445 207.297,19.7617 C207.5,19.8789 207.741,19.9375 208.02,19.9375 C208.204,19.9375 208.374,19.9115 208.527,19.8594 C208.681,19.8073 208.813,19.7292 208.922,19.625 C209.031,19.5208 209.115,19.3932 209.172,19.2422 L210.711,19.3438 C210.633,19.7135 210.473,20.0358 210.232,20.3105 C209.992,20.5853 209.682,20.7988 209.303,20.9512 C208.924,21.1035 208.487,21.1797 207.992,21.1797 M213.484,13.0625 L213.484,21.0625 L211.82,21.0625 L211.82,13.0625 L213.484,13.0625 M216.516,21.1758 C216.133,21.1758 215.792,21.1087 215.492,20.9746 C215.193,20.8405 214.956,20.6413 214.783,20.377 C214.61,20.1126 214.523,19.7826 214.523,19.3867 C214.523,19.0534 214.585,18.7734 214.707,18.5469 C214.829,18.3203 214.996,18.138 215.207,18 C215.418,17.862 215.658,17.7578 215.928,17.6875 C216.197,17.6172 216.48,17.5677 216.777,17.5391 C217.126,17.5026 217.408,17.4681 217.621,17.4355 C217.835,17.403 217.99,17.3542 218.086,17.2891 C218.182,17.224 218.23,17.1276 218.23,17 L218.23,16.9766 C218.23,16.7292 218.153,16.5378 217.998,16.4023 C217.843,16.2669 217.624,16.1992 217.34,16.1992 C217.04,16.1992 216.802,16.265 216.625,16.3965 C216.448,16.528 216.331,16.6927 216.273,16.8906 L214.734,16.7656 C214.813,16.401 214.966,16.0853 215.195,15.8184 C215.424,15.5514 215.721,15.3457 216.084,15.2012 C216.447,15.0566 216.868,14.9844 217.348,14.9844 C217.681,14.9844 218.001,15.0234 218.307,15.1016 C218.613,15.1797 218.885,15.3008 219.123,15.4648 C219.361,15.6289 219.549,15.8392 219.688,16.0957 C219.826,16.3522 219.895,16.6589 219.895,17.0156 L219.895,21.0625 L218.316,21.0625 L218.316,20.2305 L218.27,20.2305 C218.173,20.418 218.044,20.5827 217.883,20.7246 C217.721,20.8665 217.527,20.9772 217.301,21.0566 C217.074,21.1361 216.813,21.1758 216.516,21.1758 M216.992,20.0273 C217.237,20.0273 217.453,19.9785 217.641,19.8809 C217.828,19.7832 217.975,19.651 218.082,19.4844 C218.189,19.3177 218.242,19.1289 218.242,18.918 L218.242,18.2813 C218.19,18.3151 218.119,18.3457 218.029,18.373 C217.939,18.4004 217.839,18.4251 217.727,18.4473 C217.615,18.4694 217.503,18.4889 217.391,18.5059 C217.279,18.5228 217.177,18.5378 217.086,18.5508 C216.891,18.5794 216.72,18.625 216.574,18.6875 C216.428,18.75 216.315,18.834 216.234,18.9395 C216.154,19.0449 216.113,19.1758 216.113,19.332 C216.113,19.5586 216.196,19.7311 216.361,19.8496 C216.527,19.9681 216.737,20.0273 216.992,20.0273 M224.371,15.0625 L224.371,16.3125 L220.758,16.3125 L220.758,15.0625 L224.371,15.0625 M221.578,13.625 L223.242,13.625 L223.242,19.2188 C223.242,19.3724 223.266,19.4915 223.313,19.5762 C223.359,19.6608 223.425,19.7201 223.51,19.7539 C223.594,19.7878 223.693,19.8047 223.805,19.8047 C223.883,19.8047 223.961,19.7975 224.039,19.7832 C224.117,19.7689 224.177,19.7578 224.219,19.75 L224.48,20.9883 C224.397,21.0143 224.28,21.0449 224.129,21.0801 C223.978,21.1152 223.794,21.1367 223.578,21.1445 C223.177,21.1602 222.826,21.1068 222.525,20.9844 C222.225,20.862 221.991,20.6719 221.824,20.4141 C221.658,20.1563 221.576,19.8307 221.578,19.4375 L221.578,13.625 M225.445,21.0625 L225.445,15.0625 L227.109,15.0625 L227.109,21.0625 L225.445,21.0625 M226.281,14.2891 C226.034,14.2891 225.822,14.2064 225.646,14.041 C225.471,13.8757 225.383,13.6771 225.383,13.4453 C225.383,13.2161 225.471,13.0189 225.646,12.8535 C225.822,12.6882 226.034,12.6055 226.281,12.6055 C226.529,12.6055 226.74,12.6882 226.916,12.8535 C227.092,13.0189 227.18,13.2161 227.18,13.4453 C227.18,13.6771 227.092,13.8757 226.916,14.041 C226.74,14.2064 226.529,14.2891 226.281,14.2891 M234.023,15.0625 L231.926,21.0625 L230.051,21.0625 L227.953,15.0625 L229.711,15.0625 L230.957,19.3555 L231.02,19.3555 L232.262,15.0625 L234.023,15.0625 M237.398,21.1797 C236.781,21.1797 236.251,21.054 235.807,20.8027 C235.363,20.5514 235.021,20.1947 234.781,19.7324 C234.542,19.2702 234.422,18.7227 234.422,18.0898 C234.422,17.4727 234.542,16.931 234.781,16.4648 C235.021,15.9987 235.359,15.6354 235.795,15.375 C236.231,15.1146 236.743,14.9844 237.332,14.9844 C237.728,14.9844 238.097,15.0475 238.439,15.1738 C238.782,15.3001 239.081,15.4896 239.338,15.7422 C239.594,15.9948 239.794,16.3118 239.938,16.6934 C240.081,17.0749 240.152,17.5208 240.152,18.0313 L240.152,18.4883 L235.086,18.4883 L235.086,17.457 L238.586,17.457 C238.586,17.2174 238.534,17.0052 238.43,16.8203 C238.326,16.6354 238.182,16.4902 237.998,16.3848 C237.814,16.2793 237.602,16.2266 237.359,16.2266 C237.107,16.2266 236.883,16.2845 236.689,16.4004 C236.495,16.5163 236.344,16.6712 236.234,16.8652 C236.125,17.0592 236.069,17.2747 236.066,17.5117 L236.066,18.4922 C236.066,18.7891 236.122,19.0456 236.232,19.2617 C236.343,19.4779 236.5,19.6445 236.703,19.7617 C236.906,19.8789 237.147,19.9375 237.426,19.9375 C237.611,19.9375 237.78,19.9115 237.934,19.8594 C238.087,19.8073 238.219,19.7292 238.328,19.625 C238.438,19.5208 238.521,19.3932 238.578,19.2422 L240.117,19.3438 C240.039,19.7135 239.88,20.0358 239.639,20.3105 C239.398,20.5853 239.088,20.7988 238.709,20.9512 C238.33,21.1035 237.893,21.1797 237.398,21.1797 M243.773,23.3125 L243.773,15.0625 L245.414,15.0625 L245.414,16.0703 L245.488,16.0703 C245.561,15.9089 245.667,15.7441 245.807,15.5762 C245.946,15.4082 246.128,15.2676 246.354,15.1543 C246.579,15.041 246.859,14.9844 247.195,14.9844 C247.633,14.9844 248.036,15.0983 248.406,15.3262 C248.776,15.554 249.072,15.8965 249.293,16.3535 C249.514,16.8105 249.625,17.3828 249.625,18.0703 C249.625,18.7396 249.518,19.304 249.303,19.7637 C249.088,20.2233 248.796,20.571 248.428,20.8066 C248.059,21.0423 247.647,21.1602 247.191,21.1602 C246.868,21.1602 246.594,21.1068 246.369,21 C246.144,20.8932 245.96,20.7585 245.816,20.5957 C245.673,20.4329 245.564,20.2682 245.488,20.1016 L245.438,20.1016 L245.438,23.3125 L243.773,23.3125 M245.402,18.0625 C245.402,18.4193 245.452,18.7305 245.551,18.9961 C245.65,19.2617 245.793,19.4681 245.98,19.6152 C246.168,19.7624 246.396,19.8359 246.664,19.8359 C246.935,19.8359 247.164,19.7611 247.352,19.6113 C247.539,19.4616 247.682,19.2533 247.779,18.9863 C247.877,18.7194 247.926,18.4115 247.926,18.0625 C247.926,17.7161 247.878,17.4115 247.781,17.1484 C247.685,16.8854 247.543,16.6797 247.355,16.5313 C247.168,16.3828 246.938,16.3086 246.664,16.3086 C246.393,16.3086 246.165,16.3802 245.979,16.5234 C245.792,16.6667 245.65,16.8698 245.551,17.1328 C245.452,17.3958 245.402,17.7057 245.402,18.0625 M253.438,21.1797 C252.831,21.1797 252.307,21.0501 251.865,20.791 C251.424,20.5319 251.083,20.1699 250.844,19.7051 C250.604,19.2402 250.484,18.7005 250.484,18.0859 C250.484,17.4661 250.604,16.9238 250.844,16.459 C251.083,15.9941 251.424,15.6322 251.865,15.373 C252.307,15.1139 252.831,14.9844 253.438,14.9844 C254.044,14.9844 254.568,15.1139 255.01,15.373 C255.451,15.6322 255.792,15.9941 256.031,16.459 C256.271,16.9238 256.391,17.4661 256.391,18.0859 C256.391,18.7005 256.271,19.2402 256.031,19.7051 C255.792,20.1699 255.451,20.5319 255.01,20.791 C254.568,21.0501 254.044,21.1797 253.438,21.1797 M253.445,19.8906 C253.721,19.8906 253.952,19.8118 254.137,19.6543 C254.322,19.4967 254.462,19.2813 254.557,19.0078 C254.652,18.7344 254.699,18.4232 254.699,18.0742 C254.699,17.7253 254.652,17.4141 254.557,17.1406 C254.462,16.8672 254.322,16.651 254.137,16.4922 C253.952,16.3333 253.721,16.2539 253.445,16.2539 C253.167,16.2539 252.933,16.3333 252.744,16.4922 C252.555,16.651 252.413,16.8672 252.318,17.1406 C252.223,17.4141 252.176,17.7253 252.176,18.0742 C252.176,18.4232 252.223,18.7344 252.318,19.0078 C252.413,19.2813 252.555,19.4967 252.744,19.6543 C252.933,19.8118 253.167,19.8906 253.445,19.8906 M262.469,16.7734 L260.945,16.8672 C260.919,16.737 260.863,16.6191 260.777,16.5137 C260.691,16.4082 260.579,16.3236 260.439,16.2598 C260.3,16.196 260.134,16.1641 259.941,16.1641 C259.684,16.1641 259.466,16.2181 259.289,16.3262 C259.112,16.4342 259.023,16.5781 259.023,16.7578 C259.023,16.901 259.081,17.0221 259.195,17.1211 C259.31,17.2201 259.507,17.2995 259.785,17.3594 L260.871,17.5781 C261.454,17.6979 261.889,17.8906 262.176,18.1563 C262.462,18.4219 262.605,18.7708 262.605,19.2031 C262.605,19.5964 262.49,19.9414 262.26,20.2383 C262.029,20.5352 261.714,20.7663 261.314,20.9316 C260.915,21.097 260.454,21.1797 259.934,21.1797 C259.139,21.1797 258.507,21.0137 258.037,20.6816 C257.567,20.3496 257.292,19.8971 257.211,19.3242 L258.848,19.2383 C258.897,19.4805 259.017,19.6647 259.207,19.791 C259.397,19.9173 259.641,19.9805 259.938,19.9805 C260.229,19.9805 260.464,19.9238 260.643,19.8105 C260.821,19.6973 260.911,19.5508 260.914,19.3711 C260.911,19.2201 260.848,19.0957 260.723,18.998 C260.598,18.9004 260.405,18.8255 260.145,18.7734 L259.105,18.5664 C258.52,18.4492 258.084,18.2461 257.799,17.957 C257.514,17.668 257.371,17.2995 257.371,16.8516 C257.371,16.4661 257.476,16.1341 257.686,15.8555 C257.895,15.5768 258.191,15.362 258.572,15.2109 C258.954,15.0599 259.401,14.9844 259.914,14.9844 C260.672,14.9844 261.269,15.1445 261.705,15.4648 C262.141,15.7852 262.396,16.2214 262.469,16.7734 M263.648,21.0625 L263.648,15.0625 L265.313,15.0625 L265.313,21.0625 L263.648,21.0625 M264.484,14.2891 C264.237,14.2891 264.025,14.2064 263.85,14.041 C263.674,13.8757 263.586,13.6771 263.586,13.4453 C263.586,13.2161 263.674,13.0189 263.85,12.8535 C264.025,12.6882 264.237,12.6055 264.484,12.6055 C264.732,12.6055 264.943,12.6882 265.119,12.8535 C265.295,13.0189 265.383,13.2161 265.383,13.4453 C265.383,13.6771 265.295,13.8757 265.119,14.041 C264.943,14.2064 264.732,14.2891 264.484,14.2891 M269.824,15.0625 L269.824,16.3125 L266.211,16.3125 L266.211,15.0625 L269.824,15.0625 M267.031,13.625 L268.695,13.625 L268.695,19.2188 C268.695,19.3724 268.719,19.4915 268.766,19.5762 C268.813,19.6608 268.878,19.7201 268.963,19.7539 C269.048,19.7878 269.146,19.8047 269.258,19.8047 C269.336,19.8047 269.414,19.7975 269.492,19.7832 C269.57,19.7689 269.63,19.7578 269.672,19.75 L269.934,20.9883 C269.85,21.0143 269.733,21.0449 269.582,21.0801 C269.431,21.1152 269.247,21.1367 269.031,21.1445 C268.63,21.1602 268.279,21.1068 267.979,20.9844 C267.678,20.862 267.444,20.6719 267.277,20.4141 C267.111,20.1563 267.029,19.8307 267.031,19.4375 L267.031,13.625 M270.898,21.0625 L270.898,15.0625 L272.563,15.0625 L272.563,21.0625 L270.898,21.0625 M271.734,14.2891 C271.487,14.2891 271.275,14.2064 271.1,14.041 C270.924,13.8757 270.836,13.6771 270.836,13.4453 C270.836,13.2161 270.924,13.0189 271.1,12.8535 C271.275,12.6882 271.487,12.6055 271.734,12.6055 C271.982,12.6055 272.193,12.6882 272.369,12.8535 C272.545,13.0189 272.633,13.2161 272.633,13.4453 C272.633,13.6771 272.545,13.8757 272.369,14.041 C272.193,14.2064 271.982,14.2891 271.734,14.2891 M276.594,21.1797 C275.987,21.1797 275.463,21.0501 275.021,20.791 C274.58,20.5319 274.24,20.1699 274,19.7051 C273.76,19.2402 273.641,18.7005 273.641,18.0859 C273.641,17.4661 273.76,16.9238 274,16.459 C274.24,15.9941 274.58,15.6322 275.021,15.373 C275.463,15.1139 275.987,14.9844 276.594,14.9844 C277.201,14.9844 277.725,15.1139 278.166,15.373 C278.607,15.6322 278.948,15.9941 279.188,16.459 C279.427,16.9238 279.547,17.4661 279.547,18.0859 C279.547,18.7005 279.427,19.2402 279.188,19.7051 C278.948,20.1699 278.607,20.5319 278.166,20.791 C277.725,21.0501 277.201,21.1797 276.594,21.1797 M276.602,19.8906 C276.878,19.8906 277.108,19.8118 277.293,19.6543 C277.478,19.4967 277.618,19.2813 277.713,19.0078 C277.808,18.7344 277.855,18.4232 277.855,18.0742 C277.855,17.7253 277.808,17.4141 277.713,17.1406 C277.618,16.8672 277.478,16.651 277.293,16.4922 C277.108,16.3333 276.878,16.2539 276.602,16.2539 C276.323,16.2539 276.089,16.3333 275.9,16.4922 C275.712,16.651 275.57,16.8672 275.475,17.1406 C275.38,17.4141 275.332,17.7253 275.332,18.0742 C275.332,18.4232 275.38,18.7344 275.475,19.0078 C275.57,19.2813 275.712,19.4967 275.9,19.6543 C276.089,19.8118 276.323,19.8906 276.602,19.8906 M282.297,17.5938 L282.297,21.0625 L280.633,21.0625 L280.633,15.0625 L282.219,15.0625 L282.219,16.1211 L282.289,16.1211 C282.422,15.7721 282.645,15.4954 282.957,15.291 C283.27,15.0866 283.648,14.9844 284.094,14.9844 C284.51,14.9844 284.874,15.0755 285.184,15.2578 C285.493,15.4401 285.734,15.6999 285.906,16.0371 C286.078,16.3743 286.164,16.776 286.164,17.2422 L286.164,21.0625 L284.5,21.0625 L284.5,17.5391 C284.503,17.1719 284.409,16.8848 284.219,16.6777 C284.029,16.4707 283.767,16.3672 283.434,16.3672 C283.21,16.3672 283.012,16.4154 282.842,16.5117 C282.671,16.6081 282.538,16.748 282.443,16.9316 C282.348,17.1152 282.299,17.3359 282.297,17.5938 M293.199,15.0625 L293.199,16.3125 L289.586,16.3125 L289.586,15.0625 L293.199,15.0625 M290.406,13.625 L292.07,13.625 L292.07,19.2188 C292.07,19.3724 292.094,19.4915 292.141,19.5762 C292.188,19.6608 292.253,19.7201 292.338,19.7539 C292.423,19.7878 292.521,19.8047 292.633,19.8047 C292.711,19.8047 292.789,19.7975 292.867,19.7832 C292.945,19.7689 293.005,19.7578 293.047,19.75 L293.309,20.9883 C293.225,21.0143 293.108,21.0449 292.957,21.0801 C292.806,21.1152 292.622,21.1367 292.406,21.1445 C292.005,21.1602 291.654,21.1068 291.354,20.9844 C291.053,20.862 290.819,20.6719 290.652,20.4141 C290.486,20.1563 290.404,19.8307 290.406,19.4375 L290.406,13.625 M296.922,21.1797 C296.315,21.1797 295.791,21.0501 295.35,20.791 C294.908,20.5319 294.568,20.1699 294.328,19.7051 C294.089,19.2402 293.969,18.7005 293.969,18.0859 C293.969,17.4661 294.089,16.9238 294.328,16.459 C294.568,15.9941 294.908,15.6322 295.35,15.373 C295.791,15.1139 296.315,14.9844 296.922,14.9844 C297.529,14.9844 298.053,15.1139 298.494,15.373 C298.936,15.6322 299.276,15.9941 299.516,16.459 C299.755,16.9238 299.875,17.4661 299.875,18.0859 C299.875,18.7005 299.755,19.2402 299.516,19.7051 C299.276,20.1699 298.936,20.5319 298.494,20.791 C298.053,21.0501 297.529,21.1797 296.922,21.1797 M296.93,19.8906 C297.206,19.8906 297.436,19.8118 297.621,19.6543 C297.806,19.4967 297.946,19.2813 298.041,19.0078 C298.136,18.7344 298.184,18.4232 298.184,18.0742 C298.184,17.7253 298.136,17.4141 298.041,17.1406 C297.946,16.8672 297.806,16.651 297.621,16.4922 C297.436,16.3333 297.206,16.2539 296.93,16.2539 C296.651,16.2539 296.417,16.3333 296.229,16.4922 C296.04,16.651 295.898,16.8672 295.803,17.1406 C295.708,17.4141 295.66,17.7253 295.66,18.0742 C295.66,18.4232 295.708,18.7344 295.803,19.0078 C295.898,19.2813 296.04,19.4967 296.229,19.6543 C296.417,19.8118 296.651,19.8906 296.93,19.8906 "/>
</g>

<g fill="#ffffff" fill-opacity="1" stroke="none" transform="matrix(0.0285,0,0,0.0285,11.2928,9.44754)"
font-family="Inter" font-size="11" font-weight="700" font-style="normal" 
>
<path vector-effect="none" fill-rule="nonzero" d="M410.778,59.991 C376.729,59.991 346.629,75.6235 326.182,99.684 C216.768,129.689 131.433,215.271 101.927,324.891 C79.5232,345.494 65.3275,374.762 65.54,407.6 C65.7463,439.573 79.3407,468.172 100.975,488.421 C130.228,601.34 218.744,689.335 331.859,718.096 C331.956,718.125 331.989,718.313 332.085,718.338 C352.242,738.376 380.064,750.708 410.778,750.708 C441.492,750.708 469.314,738.376 489.47,718.338 C489.549,718.262 489.618,718.17 489.696,718.096 C604.323,688.948 693.738,598.994 721.758,483.921 C742.939,463.42 756.216,434.907 756.015,403.1 C755.801,370.079 741.086,340.899 718.209,320.633 C687.622,213.077 603.338,129.291 495.373,99.684 C474.926,75.6235 444.827,59.991 410.778,59.991 M410.778,91.8938 C455.052,91.8938 490.89,127.731 490.89,172.006 C490.89,216.28 455.052,252.102 410.778,252.102 C366.503,252.102 330.666,216.28 330.666,172.006 C330.666,127.731 366.503,91.8938 410.778,91.8938 M177.071,325.601 C221.346,325.601 257.183,361.438 257.183,405.713 C257.183,449.987 221.346,485.808 177.071,485.808 C132.796,485.808 96.7332,449.987 96.7332,405.713 C96.7332,361.438 132.796,325.601 177.071,325.601 M644.485,325.601 C688.763,325.601 724.822,361.438 724.822,405.713 C724.822,449.987 688.763,485.808 644.485,485.808 C600.21,485.808 564.373,449.987 564.373,405.713 C564.373,361.438 600.21,325.601 644.485,325.601 M396.601,335.762 L424.955,335.762 C431.754,335.762 437.245,342.538 437.245,350.891 L437.245,381.6 L467.971,381.6 C476.323,381.6 483.083,387.091 483.083,393.89 L483.083,422.245 C483.083,429.044 476.323,434.535 467.971,434.535 L437.245,434.535 L437.245,465.26 C437.245,473.612 431.754,480.373 424.955,480.373 L396.601,480.373 C389.801,480.373 384.31,473.613 384.31,465.26 L384.31,434.535 L353.585,434.535 C345.233,434.535 338.472,429.044 338.472,422.245 L338.472,393.89 C338.472,387.091 345.232,381.6 353.585,381.6 L384.31,381.6 L384.31,350.891 C384.31,342.539 389.801,335.762 396.601,335.762 M410.778,559.307 C455.052,559.307 490.89,595.371 490.89,639.645 C490.89,683.918 455.052,719.757 410.778,719.757 C366.503,719.757 330.666,683.918 330.666,639.645 C330.666,595.371 366.503,559.307 410.778,559.307 "/>
</g>

<g fill="none" stroke="#000000" stroke-opacity="1" stroke-width="22.7975" stroke-linecap="round" stroke-linejoin="round" transform="matrix(0.0285,0,0,0.0285,11.2928,9.44754)"
font-family="Inter" font-size="11" font-weight="700" font-style="normal" 
>
<path vector-effect="none" fill-rule="nonzero" d="M410.778,59.991 C376.729,59.991 346.629,75.6235 326.182,99.684 C216.768,129.689 131.433,215.271 101.927,324.891 C79.5232,345.494 65.3275,374.762 65.54,407.6 C65.7463,439.573 79.3407,468.172 100.975,488.421 C130.228,601.34 218.744,689.335 331.859,718.096 C331.956,718.125 331.989,718.313 332.085,718.338 C352.242,738.376 380.064,750.708 410.778,750.708 C441.492,750.708 469.314,738.376 489.47,718.338 C489.549,718.262 489.618,718.17 489.696,718.096 C604.323,688.948 693.738,598.994 721.758,483.921 C742.939,463.42 756.216,434.907 756.015,403.1 C755.801,370.079 741.086,340.899 718.209,320.633 C687.622,213.077 603.338,129.291 495.373,99.684 C474.926,75.6235 444.827,59.991 410.778,59.991 M410.778,91.8938 C455.052,91.8938 490.89,127.731 490.89,172.006 C490.89,216.28 455.052,252.102 410.778,252.102 C366.503,252.102 330.666,216.28 330.666,172.006 C330.666,127.731 366.503,91.8938 410.778,91.8938 M177.071,325.601 C221.346,325.601 257.183,361.438 257.183,405.713 C257.183,449.987 221.346,485.808 177.071,485.808 C132.796,485.808 96.7332,449.987 96.7332,405.713 C96.7332,361.438 132.796,325.601 177.071,325.601 M644.485,325.601 C688.763,325.601 724.822,361.438 724.822,405.713 C724.822,449.987 688.763,485.808 644.485,485.808 C600.21,485.808 564.373,449.987 564.373,405.713 C564.373,361.438 600.21,325.601 644.485,325.601 M396.601,335.762 L424.955,335.762 C431.754,335.762 437.245,342.538 437.245,350.891 L437.245,381.6 L467.971,381.6 C476.323,381.6 483.083,387.091 483.083,393.89 L483.083,422.245 C483.083,429.044 476.323,434.535 467.971,434.535 L437.245,434.535 L437.245,465.26 C437.245,473.612 431.754,480.373 424.955,480.373 L396.601,480.373 C389.801,480.373 384.31,473.613 384.31,465.26 L384.31,434.535 L353.585,434.535 C345.233,434.535 338.472,429.044 338.472,422.245 L338.472,393.89 C338.472,387.091 345.232,381.6 353.585,381.6 L384.31,381.6 L384.31,350.891 C384.31,342.539 389.801,335.762 396.601,335.762 M410.778,559.307 C455.052,559.307 490.89,595.371 490.89,639.645 C490.89,683.918 455.052,719.757 410.778,719.757 C366.503,719.757 330.666,683.918 330.666,639.645 C330.666,595.371 366.503,559.307 410.778,559.307 "/>
</g>

<g fill="#000000" fill-opacity="1" stroke="none" transform="matrix(0.0285,0,0,0.0285,11.2928,9.44754)"
font-family="Inter" font-size="11" font-weight="700" font-style="normal" 
>
<path vector-effect="none" fill-rule="evenodd" d="M394.961,355.661 C394.961,347.613 401.485,341.088 409.533,341.088 C417.582,341.088 424.106,347.613 424.106,355.661 L424.106,457.48 C424.106,465.528 417.582,472.053 409.533,472.053 C401.485,472.053 394.961,465.528 394.961,457.48 L394.961,355.661"/>
</g>

<g fill="none" stroke="#000000" stroke-opacity="1" stroke-width="20" stroke-linecap="round" stroke-linejoin="round" transform="matrix(0.0285,0,0,0.0285,11.2928,9.44754)"
font-family="Inter" font-size="11" font-weight="700" font-style="normal" 
>
<path vector-effect="none" fill-rule="evenodd" d="M394.961,355.661 C394.961,347.613 401.485,341.088 409.533,341.088 C417.582,341.088 424.106,347.613 424.106,355.661 L424.106,457.48 C424.106,465.528 417.582,472.053 409.533,472.053 C401.485,472.053 394.961,465.528 394.961,457.48 L394.961,355.661"/>
</g>

<g fill="#000000" fill-opacity="1" stroke="none" transform="matrix(0,0.0285,-0.0285,0,11.2928,9.44754)"
font-family="Inter" font-size="11" font-weight="700" font-style="normal" 
>
<path vector-effect="none" fill-rule="evenodd" d="M394.152,-461.016 C394.152,-469.064 400.676,-475.588 408.724,-475.588 C416.773,-475.588 423.297,-469.064 423.297,-461.016 L423.297,-359.196 C423.297,-351.148 416.773,-344.624 408.724,-344.624 C400.676,-344.624 394.152,-351.148 394.152,-359.196 L394.152,-461.016"/>
</g>

<g fill="none" stroke="#000000" stroke-opacity="1" stroke-width="20" stroke-linecap="round" stroke-linejoin="round" transform="matrix(0,0.0285,-0.0285,0,11.2928,9.44754)"
font-family="Inter" font-size="11" font-weight="700" font-style="normal" 
>
<path vector-effect="none" fill-rule="evenodd" d="M394.152,-461.016 C394.152,-469.064 400.676,-475.588 408.724,-475.588 C416.773,-475.588 423.297,-469.064 423.297,-461.016 L423.297,-359.196 C423.297,-351.148 416.773,-344.624 408.724,-344.624 C400.676,-344.624 394.152,-351.148 394.152,-359.196 L394.152,-461.016"/>
</g>

<g fill="#ffffff" fill-opacity="1" stroke="none" transform="matrix(1,0,0,1,0,0)"
font-family="Inter" font-size="11" font-weight="700" font-style="normal" 
>
</g>

<g fill="#ffffff" fill-opacity="1" stroke="#0070ba" stroke-opacity="1" stroke-width="1" stroke-linecap="square" stroke-linejoin="bevel" transform="matrix(1,0,0,1,0,0)"
font-family="Inter" font-size="11" font-weight="700" font-style="normal" 
>
<polyline fill="none" vector-effect="none" points="45,11 45,31 " />
</g>

<g fill="#ffffff" fill-opacity="1" stroke="#0070ba" stroke-opacity="1" stroke-width="1" stroke-linecap="square" stroke-linejoin="bevel" transform="matrix(1,0,0,1,0,0)"
font-family="Inter" font-size="11" font-weight="700" font-style="normal" 
>
</g>

<g fill="#ffffff" fill-opacity="1" stroke="#0070ba" stroke-opacity="1" stroke-width="1" stroke-linecap="square" stroke-linejoin="bevel" transform="matrix(1,0,0,1,0,0)"
font-family="Inter" font-size="11" font-weight="700" font-style="normal" 
>
</g>

<g fill="#ffffff" fill-opacity="1" stroke="#0070ba" stroke-opacity="1" stroke-width="1" stroke-linecap="square" stroke-linejoin="bevel" transform="matrix(1,0,0,1,0,0)"
font-family="Inter" font-size="11" font-weight="700" font-style="normal" 
>
</g>

<g fill="#ffffff" fill-opacity="1" stroke="#0064a6" stroke-opacity="1" stroke-width="1.2" stroke-linecap="square" stroke-linejoin="bevel" transform="matrix(1,0,0,1,307,7)"
font-family="Inter" font-size="11" font-weight="700" font-style="normal" 
>
<path vector-effect="none" fill-rule="evenodd" d="M1,11 C1,5.47715 5.92487,1 12,1 L14.4,1 C20.4751,1 25.4,5.47715 25.4,11 C25.4,16.5228 20.4751,21 14.4,21 L12,21 C5.92487,21 1,16.5228 1,11 "/>
</g>

<g fill="#000000" fill-opacity="1" stroke="none" transform="matrix(1,0,0,1,307,7)"
font-family="Inter" font-size="10" font-weight="700" font-style="normal" 
>
<path vector-effect="none" fill-rule="nonzero" d="M12.9411,14.5817 C12.3303,14.5793 11.8053,14.429 11.3661,14.1307 C10.927,13.8324 10.5896,13.4003 10.354,12.8345 C10.1185,12.2687 10.0019,11.5881 10.0043,10.7926 C10.0043,9.99953 10.122,9.32363 10.3576,8.76491 C10.5932,8.2062 10.9305,7.78066 11.3697,7.48828 C11.8088,7.1959 12.3326,7.04972 12.9411,7.04972 C13.5495,7.04972 14.0733,7.1965 14.5124,7.49006 C14.9516,7.78362 15.2895,8.20916 15.5263,8.76669 C15.763,9.32422 15.8802,9.99953 15.8778,10.7926 C15.8778,11.5904 15.7601,12.2723 15.5245,12.8381 C15.2889,13.4039 14.9522,13.8359 14.5142,14.1342 C14.0762,14.4325 13.5518,14.5817 12.9411,14.5817 M12.9411,13.3068 C13.3577,13.3068 13.6903,13.0973 13.9389,12.6783 C14.1875,12.2592 14.3106,11.6307 14.3082,10.7926 C14.3082,10.241 14.252,9.78172 14.1396,9.41477 C14.0271,9.04782 13.8685,8.77202 13.6637,8.58736 C13.4589,8.4027 13.218,8.31037 12.9411,8.31037 C12.5268,8.31037 12.1953,8.51752 11.9467,8.93182 C11.6982,9.34612 11.5727,9.96638 11.5703,10.7926 C11.5703,11.3513 11.6265,11.8171 11.739,12.19 C11.8514,12.5629 12.0107,12.8422 12.2166,13.0281 C12.4226,13.2139 12.6641,13.3068 12.9411,13.3068 "/>
</g>

<g fill="#ffffff" fill-opacity="1" stroke="#0070ba" stroke-opacity="1" stroke-width="1" stroke-linecap="square" stroke-linejoin="bevel" transform="matrix(1,0,0,1,0,0)"
font-family="Inter" font-size="11" font-weight="700" font-style="normal" 
>
</g>

<g fill="#0070ba" fill-opacity="1" stroke="#0070ba" stroke-opacity="1" stroke-width="1.2" stroke-linecap="square" stroke-linejoin="bevel" transform="matrix(1,0,0,1,135,6)"
font-family="Inter" font-size="11" font-weight="700" font-style="normal" 
>
<path vector-effect="none" fill-rule="evenodd" d="M0.5,12 C0.5,5.64873 5.87258,0.5 12.5,0.5 L27.5,0.5 C34.1274,0.5 39.5,5.64873 39.5,12 C39.5,18.3513 34.1274,23.5 27.5,23.5 L12.5,23.5 C5.87258,23.5 0.5,18.3513 0.5,12 "/>
</g>

<g fill="#ffffff" fill-opacity="1" stroke="none" transform="matrix(1,0,0,1,135,6)"
font-family="Inter" font-size="11" font-weight="700" font-style="normal" 
>
<path vector-effect="none" fill-rule="nonzero" d="M11.8242,16 L10.0117,16 L12.7734,8 L14.9531,8 L17.7109,16 L15.8984,16 L13.8945,9.82813 L13.832,9.82813 L11.8242,16 M11.7109,12.8555 L15.9922,12.8555 L15.9922,14.1758 L11.7109,14.1758 L11.7109,12.8555"/>
</g>

<g fill="#ffffff" fill-opacity="1" stroke="none" transform="matrix(0.03125,0,0,0.03125,161,14)"
font-family="Inter" font-size="11" font-weight="700" font-style="normal" 
>
<path vector-effect="none" fill-rule="nonzero" d="M111.326,191.938 C120.545,201.158 135.517,201.158 144.737,191.938 L239.144,97.5313 C245.929,90.7458 247.921,80.6413 244.233,71.7907 C240.545,62.9401 231.989,57.1871 222.401,57.1871 L33.5875,57.2608 C24.0731,57.2608 15.4437,63.0137 11.7559,71.8644 C8.06815,80.715 10.1333,90.8195 16.845,97.605 L111.252,192.012 L111.326,191.938"/>
</g>

<g fill="none" stroke="#000000" stroke-opacity="1" stroke-width="13.7195" stroke-linecap="butt" stroke-linejoin="miter" stroke-miterlimit="4" transform="matrix(0.03125,0,0,0.03125,161,14)"
font-family="Inter" font-size="11" font-weight="700" font-style="normal" 
>
<path vector-effect="none" fill-rule="nonzero" d="M111.326,191.938 C120.545,201.158 135.517,201.158 144.737,191.938 L239.144,97.5313 C245.929,90.7458 247.921,80.6413 244.233,71.7907 C240.545,62.9401 231.989,57.1871 222.401,57.1871 L33.5875,57.2608 C24.0731,57.2608 15.4437,63.0137 11.7559,71.8644 C8.06815,80.715 10.1333,90.8195 16.845,97.605 L111.252,192.012 L111.326,191.938"/>
</g>

<g fill="#ffffff" fill-opacity="1" stroke="none" transform="matrix(1,0,0,1,135,6)"
font-family="Inter" font-size="11" font-weight="700" font-style="normal" 
>
</g>

<g fill="#ffffff" fill-opacity="1" stroke="#0070ba" stroke-opacity="1" stroke-width="1" stroke-linecap="square" stroke-linejoin="bevel" transform="matrix(1,0,0,1,0,0)"
font-family="Inter" font-size="11" font-weight="700" font-style="normal" 
>
</g>

<g fill="#0090f5" fill-opacity="1" stroke="#0070ba" stroke-opacity="1" stroke-width="1.2" stroke-linecap="square" stroke-linejoin="bevel" transform="matrix(1,0,0,1,56,6)"
font-family="Inter" font-size="11" font-weight="700" font-style="normal" 
>
<path vector-effect="none" fill-rule="evenodd" d="M0.5,3.5 C0.5,1.84315 1.84315,0.5 3.5,0.5 L71.5,0.5 C73.1569,0.5 74.5,1.84315 74.5,3.5 L74.5,20.5 C74.5,22.1569 73.1569,23.5 71.5,23.5 L3.5,23.5 C1.84315,23.5 0.5,22.1569 0.5,20.5 L0.5,3.5"/>
</g>

<g fill="#ffffff" fill-opacity="1" stroke="none" transform="matrix(1,0,0,1,56,6)"
font-family="Inter" font-size="11" font-weight="700" font-style="normal" 
>
<path vector-effect="none" fill-rule="nonzero" d="M10,9.39453 L10,8 L16.5703,8 L16.5703,9.39453 L14.1211,9.39453 L14.1211,16 L12.4492,16 L12.4492,9.39453 L10,9.39453 M17.6484,16 L17.6484,8 L19.3398,8 L19.3398,11.3008 L22.7734,11.3008 L22.7734,8 L24.4609,8 L24.4609,16 L22.7734,16 L22.7734,12.6953 L19.3398,12.6953 L19.3398,16 L17.6484,16 M32.543,8 L32.543,16 L31.082,16 L27.6016,10.9648 L27.543,10.9648 L27.543,16 L25.8516,16 L25.8516,8 L27.3359,8 L30.7891,13.0313 L30.8594,13.0313 L30.8594,8 L32.543,8 M33.9297,16 L33.9297,8 L35.6211,8 L35.6211,11.3008 L39.0547,11.3008 L39.0547,8 L40.7422,8 L40.7422,16 L39.0547,16 L39.0547,12.6953 L35.6211,12.6953 L35.6211,16 L33.9297,16 M42.1328,16 L42.1328,8 L45.3359,8 C45.9245,8 46.4154,8.08724 46.8086,8.26172 C47.2018,8.4362 47.4974,8.67773 47.6953,8.98633 C47.8932,9.29492 47.9922,9.64974 47.9922,10.0508 C47.9922,10.3633 47.9297,10.6374 47.8047,10.873 C47.6797,11.1087 47.5085,11.3014 47.291,11.4512 C47.0736,11.6009 46.8255,11.707 46.5469,11.7695 L46.5469,11.8477 C46.8516,11.8607 47.1374,11.9466 47.4043,12.1055 C47.6712,12.2643 47.888,12.4863 48.0547,12.7715 C48.2214,13.0566 48.3047,13.3958 48.3047,13.7891 C48.3047,14.2135 48.1999,14.5918 47.9902,14.9238 C47.7806,15.2559 47.4714,15.5182 47.0625,15.7109 C46.6536,15.9036 46.1497,16 45.5508,16 L42.1328,16 M43.8242,14.6172 L45.2031,14.6172 C45.6745,14.6172 46.0182,14.5267 46.2344,14.3457 C46.4505,14.1647 46.5586,13.9232 46.5586,13.6211 C46.5586,13.3997 46.5052,13.2044 46.3984,13.0352 C46.2917,12.8659 46.14,12.7331 45.9434,12.6367 C45.7467,12.5404 45.513,12.4922 45.2422,12.4922 L43.8242,12.4922 L43.8242,14.6172 M43.8242,11.3477 L45.0781,11.3477 C45.3099,11.3477 45.5163,11.3066 45.6973,11.2246 C45.8783,11.1426 46.0215,11.026 46.127,10.875 C46.2324,10.724 46.2852,10.543 46.2852,10.332 C46.2852,10.043 46.1829,9.8099 45.9785,9.63281 C45.7741,9.45573 45.4844,9.36719 45.1094,9.36719 L43.8242,9.36719 L43.8242,11.3477 M52.832,8 L52.832,16 L51.1406,16 L51.1406,9.60547 L51.0938,9.60547 L49.2617,10.7539 L49.2617,9.25391 L51.2422,8 L52.832,8"/>
</g>

<g fill="#ffffff" fill-opacity="1" stroke="none" transform="matrix(0.03125,0,0,0.03125,117,14)"
font-family="Inter" font-size="11" font-weight="700" font-style="normal" 
>
<path vector-effect="none" fill-rule="nonzero" d="M111.326,191.938 C120.545,201.158 135.517,201.158 144.737,191.938 L239.144,97.5313 C245.929,90.7458 247.921,80.6413 244.233,71.7907 C240.545,62.9401 231.989,57.1871 222.401,57.1871 L33.5875,57.2608 C24.0731,57.2608 15.4437,63.0137 11.7559,71.8644 C8.06815,80.715 10.1333,90.8195 16.845,97.605 L111.252,192.012 L111.326,191.938"/>
</g>

<g fill="none" stroke="#000000" stroke-opacity="1" stroke-width="13.7195" stroke-linecap="butt" stroke-linejoin="miter" stroke-miterlimit="4" transform="matrix(0.03125,0,0,0.03125,117,14)"
font-family="Inter" font-size="11" font-weight="700" font-style="normal" 
>
<path vector-effect="none" fill-rule="nonzero" d="M111.326,191.938 C120.545,201.158 135.517,201.158 144.737,191.938 L239.144,97.5313 C245.929,90.7458 247.921,80.6413 244.233,71.7907 C240.545,62.9401 231.989,57.1871 222.401,57.1871 L33.5875,57.2608 C24.0731,57.2608 15.4437,63.0137 11.7559,71.8644 C8.06815,80.715 10.1333,90.8195 16.845,97.605 L111.252,192.012 L111.326,191.938"/>
</g>

<g fill="#ffffff" fill-opacity="1" stroke="none" transform="matrix(1,0,0,1,56,6)"
font-family="Inter" font-size="11" font-weight="700" font-style="normal" 
>
</g>

<g fill="#ffffff" fill-opacity="1" stroke="#0070ba" stroke-opacity="1" stroke-width="1" stroke-linecap="square" stroke-linejoin="bevel" transform="matrix(1,0,0,1,0,0)"
font-family="Inter" font-size="11" font-weight="700" font-style="normal" 
>
</g>

<g fill="#ffffff" fill-opacity="1" stroke="#0070ba" stroke-opacity="1" stroke-width="1" stroke-linecap="square" stroke-linejoin="bevel" transform="matrix(1,0,0,1,0,0)"
font-family="Inter" font-size="11" font-weight="700" font-style="normal" 
>
</g>

<g fill="none" stroke="#000000" stroke-opacity="1" stroke-width="1" stroke-linecap="square" stroke-linejoin="bevel" transform="matrix(1,0,0,1,0,0)"
font-family=".AppleSystemUIFont" font-size="13" font-weight="400" font-style="normal" 
>
</g>
</g>
</svg>
