<?xml version="1.0" encoding="UTF-8" standalone="no"?>
<svg width="128.058mm" height="11.2889mm"
 viewBox="0 0 363 32"
 xmlns="http://www.w3.org/2000/svg" xmlns:xlink="http://www.w3.org/1999/xlink" version="1.2" baseProfile="tiny">
<title>Abstract block</title>
<desc>block_dashboard_controller_dpad_value_boolean</desc>
<defs>
</defs>
<g fill="none" stroke="black" stroke-width="1" fill-rule="evenodd" stroke-linecap="square" stroke-linejoin="bevel" >

<g fill="none" stroke="#000000" stroke-opacity="1" stroke-width="1" stroke-linecap="square" stroke-linejoin="bevel" transform="matrix(1,0,0,1,0,0)"
font-family=".AppleSystemUIFont" font-size="13" font-weight="400" font-style="normal" 
>
</g>

<g fill="none" stroke="#000000" stroke-opacity="1" stroke-width="1" stroke-linecap="square" stroke-linejoin="bevel" transform="matrix(1,0,0,1,0,0)"
font-family=".AppleSystemUIFont" font-size="13" font-weight="400" font-style="normal" 
>
</g>

<g fill="#009f94" fill-opacity="1" stroke="#00645c" stroke-opacity="1" stroke-width="1.2" stroke-linecap="square" stroke-linejoin="bevel" transform="matrix(1,0,0,1,0,0)"
font-family=".AppleSystemUIFont" font-size="13" font-weight="400" font-style="normal" 
>
<path vector-effect="none" fill-rule="evenodd" d="M0,16 L16,0 L346.667,0 L362.667,16 L346.667,32 L16,32 L0,16"/>
</g>

<g fill="#ffffff" fill-opacity="1" stroke="none" transform="matrix(1,0,0,1,0,0)"
font-family="Inter" font-size="11" font-weight="700" font-style="normal" 
>
<path vector-effect="none" fill-rule="nonzero" d="M51.9453,19.0625 L51.9453,13.0625 L53.6094,13.0625 L53.6094,19.0625 L51.9453,19.0625 M52.7813,12.2891 C52.5339,12.2891 52.3223,12.2064 52.1465,12.041 C51.9707,11.8757 51.8828,11.6771 51.8828,11.4453 C51.8828,11.2161 51.9707,11.0189 52.1465,10.8535 C52.3223,10.6882 52.5339,10.6055 52.7813,10.6055 C53.0286,10.6055 53.2402,10.6882 53.416,10.8535 C53.5918,11.0189 53.6797,11.2161 53.6797,11.4453 C53.6797,11.6771 53.5918,11.8757 53.416,12.041 C53.2402,12.2064 53.0286,12.2891 52.7813,12.2891 M59.9219,14.7734 L58.3984,14.8672 C58.3724,14.737 58.3164,14.6191 58.2305,14.5137 C58.1445,14.4082 58.0319,14.3236 57.8926,14.2598 C57.7533,14.196 57.5872,14.1641 57.3945,14.1641 C57.1367,14.1641 56.9193,14.2181 56.7422,14.3262 C56.5651,14.4342 56.4766,14.5781 56.4766,14.7578 C56.4766,14.901 56.5339,15.0221 56.6484,15.1211 C56.763,15.2201 56.9596,15.2995 57.2383,15.3594 L58.3242,15.5781 C58.9076,15.6979 59.3424,15.8906 59.6289,16.1563 C59.9154,16.4219 60.0586,16.7708 60.0586,17.2031 C60.0586,17.5964 59.9434,17.9414 59.7129,18.2383 C59.4824,18.5352 59.1673,18.7663 58.7676,18.9316 C58.3678,19.097 57.9076,19.1797 57.3867,19.1797 C56.5924,19.1797 55.9603,19.0137 55.4902,18.6816 C55.0202,18.3496 54.7448,17.8971 54.6641,17.3242 L56.3008,17.2383 C56.3503,17.4805 56.4701,17.6647 56.6602,17.791 C56.8503,17.9173 57.0938,17.9805 57.3906,17.9805 C57.6823,17.9805 57.9173,17.9238 58.0957,17.8105 C58.2741,17.6973 58.3646,17.5508 58.3672,17.3711 C58.3646,17.2201 58.3008,17.0957 58.1758,16.998 C58.0508,16.9004 57.8581,16.8255 57.5977,16.7734 L56.5586,16.5664 C55.9727,16.4492 55.5371,16.2461 55.252,15.957 C54.9668,15.668 54.8242,15.2995 54.8242,14.8516 C54.8242,14.4661 54.929,14.1341 55.1387,13.8555 C55.3483,13.5768 55.6439,13.362 56.0254,13.2109 C56.4069,13.0599 56.8542,12.9844 57.3672,12.9844 C58.125,12.9844 58.722,13.1445 59.1582,13.4648 C59.5944,13.7852 59.849,14.2214 59.9219,14.7734 M66.5156,19.0625 L63.6797,19.0625 L63.6797,11.0625 L66.5391,11.0625 C67.3438,11.0625 68.0365,11.222 68.6172,11.541 C69.1979,11.86 69.6452,12.3177 69.959,12.9141 C70.2728,13.5104 70.4297,14.224 70.4297,15.0547 C70.4297,15.888 70.2728,16.6042 69.959,17.2031 C69.6452,17.8021 69.196,18.2617 68.6113,18.582 C68.0267,18.9023 67.3281,19.0625 66.5156,19.0625 M65.3711,17.6133 L66.4453,17.6133 C66.9453,17.6133 67.3665,17.5241 67.709,17.3457 C68.0514,17.1673 68.3092,16.89 68.4824,16.5137 C68.6556,16.1374 68.7422,15.651 68.7422,15.0547 C68.7422,14.4635 68.6556,13.9805 68.4824,13.6055 C68.3092,13.2305 68.0521,12.9544 67.7109,12.7773 C67.3698,12.6003 66.9492,12.5117 66.4492,12.5117 L65.3711,12.5117 L65.3711,17.6133 M75.3867,15.1172 L75.3867,16.4375 L71.7383,16.4375 L71.7383,15.1172 L75.3867,15.1172 M76.8047,21.3125 L76.8047,13.0625 L78.4453,13.0625 L78.4453,14.0703 L78.5195,14.0703 C78.5924,13.9089 78.6986,13.7441 78.8379,13.5762 C78.9772,13.4082 79.1595,13.2676 79.3848,13.1543 C79.61,13.041 79.8906,12.9844 80.2266,12.9844 C80.6641,12.9844 81.0677,13.0983 81.4375,13.3262 C81.8073,13.554 82.1029,13.8965 82.3242,14.3535 C82.5456,14.8105 82.6563,15.3828 82.6563,16.0703 C82.6563,16.7396 82.5488,17.304 82.334,17.7637 C82.1191,18.2233 81.8275,18.571 81.459,18.8066 C81.0905,19.0423 80.6784,19.1602 80.2227,19.1602 C79.8997,19.1602 79.6257,19.1068 79.4004,19 C79.1751,18.8932 78.9909,18.7585 78.8477,18.5957 C78.7044,18.4329 78.5951,18.2682 78.5195,18.1016 L78.4688,18.1016 L78.4688,21.3125 L76.8047,21.3125 M78.4336,16.0625 C78.4336,16.4193 78.4831,16.7305 78.582,16.9961 C78.681,17.2617 78.8242,17.4681 79.0117,17.6152 C79.1992,17.7624 79.4271,17.8359 79.6953,17.8359 C79.9661,17.8359 80.1953,17.7611 80.3828,17.6113 C80.5703,17.4616 80.7129,17.2533 80.8105,16.9863 C80.9082,16.7194 80.957,16.4115 80.957,16.0625 C80.957,15.7161 80.9089,15.4115 80.8125,15.1484 C80.7161,14.8854 80.5742,14.6797 80.3867,14.5313 C80.1992,14.3828 79.9688,14.3086 79.6953,14.3086 C79.4245,14.3086 79.196,14.3802 79.0098,14.5234 C78.8236,14.6667 78.681,14.8698 78.582,15.1328 C78.4831,15.3958 78.4336,15.7057 78.4336,16.0625 M85.4688,19.1758 C85.0859,19.1758 84.7448,19.1087 84.4453,18.9746 C84.1458,18.8405 83.9095,18.6413 83.7363,18.377 C83.5632,18.1126 83.4766,17.7826 83.4766,17.3867 C83.4766,17.0534 83.5378,16.7734 83.6602,16.5469 C83.7826,16.3203 83.9492,16.138 84.1602,16 C84.3711,15.862 84.6113,15.7578 84.8809,15.6875 C85.1504,15.6172 85.4336,15.5677 85.7305,15.5391 C86.0794,15.5026 86.3607,15.4681 86.5742,15.4355 C86.7878,15.403 86.9427,15.3542 87.0391,15.2891 C87.1354,15.224 87.1836,15.1276 87.1836,15 L87.1836,14.9766 C87.1836,14.7292 87.1061,14.5378 86.9512,14.4023 C86.7962,14.2669 86.5768,14.1992 86.293,14.1992 C85.9935,14.1992 85.7552,14.265 85.5781,14.3965 C85.401,14.528 85.2839,14.6927 85.2266,14.8906 L83.6875,14.7656 C83.7656,14.401 83.9193,14.0853 84.1484,13.8184 C84.3776,13.5514 84.6738,13.3457 85.0371,13.2012 C85.4004,13.0566 85.8216,12.9844 86.3008,12.9844 C86.6341,12.9844 86.9538,13.0234 87.2598,13.1016 C87.5658,13.1797 87.8379,13.3008 88.0762,13.4648 C88.3145,13.6289 88.5026,13.8392 88.6406,14.0957 C88.7786,14.3522 88.8477,14.6589 88.8477,15.0156 L88.8477,19.0625 L87.2695,19.0625 L87.2695,18.2305 L87.2227,18.2305 C87.1263,18.418 86.9974,18.5827 86.8359,18.7246 C86.6745,18.8665 86.4805,18.9772 86.2539,19.0566 C86.0273,19.1361 85.7656,19.1758 85.4688,19.1758 M85.9453,18.0273 C86.1901,18.0273 86.4063,17.9785 86.5938,17.8809 C86.7813,17.7832 86.9284,17.651 87.0352,17.4844 C87.1419,17.3177 87.1953,17.1289 87.1953,16.918 L87.1953,16.2813 C87.1432,16.3151 87.0723,16.3457 86.9824,16.373 C86.8926,16.4004 86.7917,16.4251 86.6797,16.4473 C86.5677,16.4694 86.4557,16.4889 86.3438,16.5059 C86.2318,16.5228 86.1302,16.5378 86.0391,16.5508 C85.8438,16.5794 85.6732,16.625 85.5273,16.6875 C85.3815,16.75 85.2682,16.834 85.1875,16.9395 C85.1068,17.0449 85.0664,17.1758 85.0664,17.332 C85.0664,17.5586 85.1491,17.7311 85.3145,17.8496 C85.4798,17.9681 85.6901,18.0273 85.9453,18.0273 M92.3438,19.1602 C91.888,19.1602 91.4759,19.0423 91.1074,18.8066 C90.7389,18.571 90.4473,18.2233 90.2324,17.7637 C90.0176,17.304 89.9102,16.7396 89.9102,16.0703 C89.9102,15.3828 90.0208,14.8105 90.2422,14.3535 C90.4635,13.8965 90.7585,13.554 91.127,13.3262 C91.4954,13.0983 91.8997,12.9844 92.3398,12.9844 C92.6758,12.9844 92.9564,13.041 93.1816,13.1543 C93.4069,13.2676 93.5892,13.4082 93.7285,13.5762 C93.8678,13.7441 93.974,13.9089 94.0469,14.0703 L94.0977,14.0703 L94.0977,11.0625 L95.7578,11.0625 L95.7578,19.0625 L94.1172,19.0625 L94.1172,18.1016 L94.0469,18.1016 C93.9688,18.2682 93.8587,18.4329 93.7168,18.5957 C93.5749,18.7585 93.3913,18.8932 93.166,19 C92.9408,19.1068 92.6667,19.1602 92.3438,19.1602 M92.8711,17.8359 C93.1393,17.8359 93.3665,17.7624 93.5527,17.6152 C93.7389,17.4681 93.8822,17.2617 93.9824,16.9961 C94.0827,16.7305 94.1328,16.4193 94.1328,16.0625 C94.1328,15.7057 94.0833,15.3958 93.9844,15.1328 C93.8854,14.8698 93.7422,14.6667 93.5547,14.5234 C93.3672,14.3802 93.1393,14.3086 92.8711,14.3086 C92.5977,14.3086 92.3672,14.3828 92.1797,14.5313 C91.9922,14.6797 91.8503,14.8854 91.7539,15.1484 C91.6576,15.4115 91.6094,15.7161 91.6094,16.0625 C91.6094,16.4115 91.6582,16.7194 91.7559,16.9863 C91.8535,17.2533 91.9954,17.4616 92.1816,17.6113 C92.3678,17.7611 92.5977,17.8359 92.8711,17.8359 "/>
</g>

<g fill="#ffffff" fill-opacity="1" stroke="none" transform="matrix(1,0,0,1,0,0)"
font-family="Inter" font-size="11" font-weight="700" font-style="normal" 
>
<path vector-effect="none" fill-rule="nonzero" d="M223.086,19.7344 L223.086,11.7344 L224.75,11.7344 L224.75,14.7422 L224.801,14.7422 C224.874,14.5807 224.98,14.416 225.119,14.248 C225.258,14.0801 225.441,13.9395 225.666,13.8262 C225.891,13.7129 226.172,13.6563 226.508,13.6563 C226.945,13.6563 227.349,13.7702 227.719,13.998 C228.089,14.2259 228.384,14.5684 228.605,15.0254 C228.827,15.4824 228.938,16.0547 228.938,16.7422 C228.938,17.4115 228.83,17.9759 228.615,18.4355 C228.4,18.8952 228.109,19.2428 227.74,19.4785 C227.372,19.7142 226.96,19.832 226.504,19.832 C226.181,19.832 225.907,19.7786 225.682,19.6719 C225.456,19.5651 225.272,19.4303 225.129,19.2676 C224.986,19.1048 224.876,18.9401 224.801,18.7734 L224.727,18.7734 L224.727,19.7344 L223.086,19.7344 M224.715,16.7344 C224.715,17.0911 224.764,17.4023 224.863,17.668 C224.962,17.9336 225.105,18.14 225.293,18.2871 C225.48,18.4342 225.708,18.5078 225.977,18.5078 C226.247,18.5078 226.477,18.4329 226.664,18.2832 C226.852,18.1335 226.994,17.9251 227.092,17.6582 C227.189,17.3913 227.238,17.0833 227.238,16.7344 C227.238,16.388 227.19,16.0833 227.094,15.8203 C226.997,15.5573 226.855,15.3516 226.668,15.2031 C226.48,15.0547 226.25,14.9805 225.977,14.9805 C225.706,14.9805 225.477,15.0521 225.291,15.1953 C225.105,15.3385 224.962,15.5417 224.863,15.8047 C224.764,16.0677 224.715,16.3776 224.715,16.7344 M233.887,17.1797 L233.887,13.7344 L235.551,13.7344 L235.551,19.7344 L233.953,19.7344 L233.953,18.6445 L233.891,18.6445 C233.755,18.9961 233.531,19.2786 233.217,19.4922 C232.903,19.7057 232.521,19.8125 232.07,19.8125 C231.669,19.8125 231.316,19.7214 231.012,19.5391 C230.707,19.3568 230.469,19.0977 230.299,18.7617 C230.128,18.4258 230.042,18.0234 230.039,17.5547 L230.039,13.7344 L231.703,13.7344 L231.703,17.2578 C231.706,17.612 231.801,17.8919 231.988,18.0977 C232.176,18.3034 232.427,18.4063 232.742,18.4063 C232.943,18.4063 233.13,18.36 233.305,18.2676 C233.479,18.1751 233.62,18.0378 233.729,17.8555 C233.837,17.6732 233.889,17.4479 233.887,17.1797 M240.059,13.7344 L240.059,14.9844 L236.445,14.9844 L236.445,13.7344 L240.059,13.7344 M237.266,12.2969 L238.93,12.2969 L238.93,17.8906 C238.93,18.0443 238.953,18.1634 239,18.248 C239.047,18.3327 239.113,18.3919 239.197,18.4258 C239.282,18.4596 239.38,18.4766 239.492,18.4766 C239.57,18.4766 239.648,18.4694 239.727,18.4551 C239.805,18.4408 239.865,18.4297 239.906,18.4219 L240.168,19.6602 C240.085,19.6862 239.967,19.7168 239.816,19.752 C239.665,19.7871 239.482,19.8086 239.266,19.8164 C238.865,19.832 238.514,19.7786 238.213,19.6563 C237.912,19.5339 237.678,19.3438 237.512,19.0859 C237.345,18.8281 237.263,18.5026 237.266,18.1094 L237.266,12.2969 M244.324,13.7344 L244.324,14.9844 L240.711,14.9844 L240.711,13.7344 L244.324,13.7344 M241.531,12.2969 L243.195,12.2969 L243.195,17.8906 C243.195,18.0443 243.219,18.1634 243.266,18.248 C243.313,18.3327 243.378,18.3919 243.463,18.4258 C243.548,18.4596 243.646,18.4766 243.758,18.4766 C243.836,18.4766 243.914,18.4694 243.992,18.4551 C244.07,18.4408 244.13,18.4297 244.172,18.4219 L244.434,19.6602 C244.35,19.6862 244.233,19.7168 244.082,19.752 C243.931,19.7871 243.747,19.8086 243.531,19.8164 C243.13,19.832 242.779,19.7786 242.479,19.6563 C242.178,19.5339 241.944,19.3438 241.777,19.0859 C241.611,18.8281 241.529,18.5026 241.531,18.1094 L241.531,12.2969 M248.047,19.8516 C247.44,19.8516 246.916,19.722 246.475,19.4629 C246.033,19.2038 245.693,18.8418 245.453,18.377 C245.214,17.9121 245.094,17.3724 245.094,16.7578 C245.094,16.138 245.214,15.5957 245.453,15.1309 C245.693,14.666 246.033,14.304 246.475,14.0449 C246.916,13.7858 247.44,13.6563 248.047,13.6563 C248.654,13.6563 249.178,13.7858 249.619,14.0449 C250.061,14.304 250.401,14.666 250.641,15.1309 C250.88,15.5957 251,16.138 251,16.7578 C251,17.3724 250.88,17.9121 250.641,18.377 C250.401,18.8418 250.061,19.2038 249.619,19.4629 C249.178,19.722 248.654,19.8516 248.047,19.8516 M248.055,18.5625 C248.331,18.5625 248.561,18.4837 248.746,18.3262 C248.931,18.1686 249.071,17.9531 249.166,17.6797 C249.261,17.4063 249.309,17.0951 249.309,16.7461 C249.309,16.3971 249.261,16.0859 249.166,15.8125 C249.071,15.5391 248.931,15.3229 248.746,15.1641 C248.561,15.0052 248.331,14.9258 248.055,14.9258 C247.776,14.9258 247.542,15.0052 247.354,15.1641 C247.165,15.3229 247.023,15.5391 246.928,15.8125 C246.833,16.0859 246.785,16.3971 246.785,16.7461 C246.785,17.0951 246.833,17.4063 246.928,17.6797 C247.023,17.9531 247.165,18.1686 247.354,18.3262 C247.542,18.4837 247.776,18.5625 248.055,18.5625 M253.75,16.2656 L253.75,19.7344 L252.086,19.7344 L252.086,13.7344 L253.672,13.7344 L253.672,14.793 L253.742,14.793 C253.875,14.444 254.098,14.1673 254.41,13.9629 C254.723,13.7585 255.102,13.6563 255.547,13.6563 C255.964,13.6563 256.327,13.7474 256.637,13.9297 C256.947,14.112 257.188,14.3717 257.359,14.709 C257.531,15.0462 257.617,15.4479 257.617,15.9141 L257.617,19.7344 L255.953,19.7344 L255.953,16.2109 C255.956,15.8438 255.862,15.5566 255.672,15.3496 C255.482,15.1426 255.22,15.0391 254.887,15.0391 C254.663,15.0391 254.465,15.0872 254.295,15.1836 C254.124,15.2799 253.992,15.4199 253.896,15.6035 C253.801,15.7871 253.753,16.0078 253.75,16.2656 "/>
</g>

<g fill="#ffffff" fill-opacity="1" stroke="none" transform="matrix(1,0,0,1,0,0)"
font-family="Inter" font-size="11" font-weight="700" font-style="normal" 
>
<path vector-effect="none" fill-rule="nonzero" d="M345.766,17.5547 L345.766,17.4219 C345.768,16.9661 345.809,16.6029 345.889,16.332 C345.968,16.0612 346.085,15.8424 346.238,15.6758 C346.392,15.5091 346.577,15.3581 346.793,15.2227 C346.954,15.1185 347.099,15.0104 347.227,14.8984 C347.354,14.7865 347.456,14.6621 347.531,14.5254 C347.607,14.3887 347.645,14.2357 347.645,14.0664 C347.645,13.8867 347.602,13.7292 347.516,13.5938 C347.43,13.4583 347.314,13.3542 347.17,13.2813 C347.025,13.2083 346.866,13.1719 346.691,13.1719 C346.522,13.1719 346.362,13.209 346.211,13.2832 C346.06,13.3574 345.936,13.4668 345.84,13.6113 C345.743,13.7559 345.691,13.9349 345.684,14.1484 L344.09,14.1484 C344.103,13.6276 344.228,13.1973 344.465,12.8574 C344.702,12.5176 345.016,12.2637 345.406,12.0957 C345.797,11.9277 346.228,11.8438 346.699,11.8438 C347.217,11.8438 347.676,11.929 348.074,12.0996 C348.473,12.2702 348.785,12.5169 349.012,12.8398 C349.238,13.1628 349.352,13.5521 349.352,14.0078 C349.352,14.3125 349.301,14.5827 349.201,14.8184 C349.101,15.054 348.961,15.2624 348.781,15.4434 C348.602,15.6243 348.389,15.7878 348.145,15.9336 C347.939,16.056 347.77,16.1836 347.639,16.3164 C347.507,16.4492 347.41,16.6029 347.346,16.7773 C347.282,16.9518 347.249,17.1667 347.246,17.4219 L347.246,17.5547 L345.766,17.5547 M346.539,20.0547 C346.279,20.0547 346.057,19.9629 345.873,19.7793 C345.689,19.5957 345.599,19.375 345.602,19.1172 C345.599,18.862 345.689,18.6432 345.873,18.4609 C346.057,18.2786 346.279,18.1875 346.539,18.1875 C346.786,18.1875 347.004,18.2786 347.191,18.4609 C347.379,18.6432 347.474,18.862 347.477,19.1172 C347.474,19.2891 347.429,19.446 347.342,19.5879 C347.255,19.7298 347.141,19.8431 347,19.9277 C346.859,20.0124 346.706,20.0547 346.539,20.0547 "/>
</g>

<g fill="#ffffff" fill-opacity="1" stroke="none" transform="matrix(0.95,0,0,0.95,11.6,4.6)"
font-family="Inter" font-size="11" font-weight="700" font-style="normal" 
>
<path vector-effect="none" fill-rule="nonzero" d="M2.19896,4.65234 C1.18891,4.65234 0.375703,5.46549 0.375703,6.47555 L0.375703,8.579 C1.00152,8.60331 1.67842,9.11362 1.67842,9.74561 L1.67842,14.2544 C1.67842,14.8864 1.00152,15.3967 0.375703,15.421 L0.375703,17.5245 C0.375703,18.5345 1.18891,19.3477 2.19896,19.3477 L21.8479,19.3477 C22.858,19.3477 23.6711,18.5345 23.6711,17.5245 L23.6711,6.47555 C23.6711,5.46549 22.858,4.65234 21.8479,4.65234 L2.19896,4.65234 M6.71936,9.23098 C8.56166,9.23097 10.0552,10.7245 10.0552,12.5668 C10.0552,14.4091 8.56167,15.9026 6.71936,15.9026 C4.87705,15.9026 3.38355,14.4091 3.38355,12.5668 C3.38355,10.7245 4.87705,9.23097 6.71936,9.23098 M19.875,9.24873 C20.7082,9.24871 21.3837,9.92418 21.3837,10.7574 C21.3837,11.5906 20.7082,12.266 19.875,12.266 C19.0418,12.266 18.3664,11.5906 18.3664,10.7574 C18.3664,9.9242 19.0418,9.24874 19.875,9.24873 M17.4318,12.8825 C18.265,12.8825 18.9404,13.558 18.9404,14.3912 C18.9404,15.2243 18.2649,15.8998 17.4318,15.8998 C16.5986,15.8998 15.9231,15.2244 15.9231,14.3912 C15.9231,13.5579 16.5985,12.8825 17.4318,12.8825 "/>
</g>

<g fill="none" stroke="#000000" stroke-opacity="1" stroke-width="0.54" stroke-linecap="butt" stroke-linejoin="miter" stroke-miterlimit="4" transform="matrix(0.95,0,0,0.95,11.6,4.6)"
font-family="Inter" font-size="11" font-weight="700" font-style="normal" 
>
<path vector-effect="none" fill-rule="nonzero" d="M2.19896,4.65234 C1.18891,4.65234 0.375703,5.46549 0.375703,6.47555 L0.375703,8.579 C1.00152,8.60331 1.67842,9.11362 1.67842,9.74561 L1.67842,14.2544 C1.67842,14.8864 1.00152,15.3967 0.375703,15.421 L0.375703,17.5245 C0.375703,18.5345 1.18891,19.3477 2.19896,19.3477 L21.8479,19.3477 C22.858,19.3477 23.6711,18.5345 23.6711,17.5245 L23.6711,6.47555 C23.6711,5.46549 22.858,4.65234 21.8479,4.65234 L2.19896,4.65234 M6.71936,9.23098 C8.56166,9.23097 10.0552,10.7245 10.0552,12.5668 C10.0552,14.4091 8.56167,15.9026 6.71936,15.9026 C4.87705,15.9026 3.38355,14.4091 3.38355,12.5668 C3.38355,10.7245 4.87705,9.23097 6.71936,9.23098 M19.875,9.24873 C20.7082,9.24871 21.3837,9.92418 21.3837,10.7574 C21.3837,11.5906 20.7082,12.266 19.875,12.266 C19.0418,12.266 18.3664,11.5906 18.3664,10.7574 C18.3664,9.9242 19.0418,9.24874 19.875,9.24873 M17.4318,12.8825 C18.265,12.8825 18.9404,13.558 18.9404,14.3912 C18.9404,15.2243 18.2649,15.8998 17.4318,15.8998 C16.5986,15.8998 15.9231,15.2244 15.9231,14.3912 C15.9231,13.5579 16.5985,12.8825 17.4318,12.8825 "/>
</g>

<g fill="#000000" fill-opacity="1" stroke="none" transform="matrix(0.95,0,0,0.95,11.6,4.6)"
font-family="Inter" font-size="11" font-weight="700" font-style="normal" 
>
<path vector-effect="none" fill-rule="nonzero" d="M0.108328,15.3227 L0.103298,8.65983 L1.21825,8.7259 L1.75102,9.37791 L1.70662,12.9064 L1.66222,14.5556 L1.04066,15.0542 L0.108328,15.3227"/>
</g>

<g fill="#000000" fill-opacity="1" stroke="none" transform="matrix(0.95,0,0,0.95,11.6,4.6)"
font-family="Inter" font-size="11" font-weight="700" font-style="normal" 
>
<circle cx="6.70111" cy="12.5452" r="1.68266"/>
</g>

<g fill="none" stroke="#000000" stroke-opacity="1" stroke-width="0.54" stroke-linecap="butt" stroke-linejoin="miter" stroke-miterlimit="4" transform="matrix(0.95,0,0,0.95,11.6,4.6)"
font-family="Inter" font-size="11" font-weight="700" font-style="normal" 
>
<circle cx="6.70111" cy="12.5452" r="1.68266"/>
</g>

<g fill="#000000" fill-opacity="1" stroke="none" transform="matrix(0.95,0,0,0.95,11.6,4.6)"
font-family="Inter" font-size="11" font-weight="700" font-style="normal" 
opacity="0.858824" >
<path vector-effect="none" fill-rule="evenodd" d="M8.42109,18.1373 C8.42109,18.0846 8.46385,18.0418 8.51661,18.0418 L15.4834,18.0418 C15.5361,18.0418 15.5789,18.0846 15.5789,18.1373 L15.5789,18.1373 C15.5789,18.1901 15.5361,18.2329 15.4834,18.2329 L8.51661,18.2329 C8.46385,18.2329 8.42109,18.1901 8.42109,18.1373 L8.42109,18.1373"/>
</g>

<g fill="none" stroke="#000000" stroke-opacity="1" stroke-width="0.437534" stroke-linecap="butt" stroke-linejoin="miter" stroke-miterlimit="4" transform="matrix(0.95,0,0,0.95,11.6,4.6)"
font-family="Inter" font-size="11" font-weight="700" font-style="normal" 
>
<path vector-effect="none" fill-rule="evenodd" d="M8.42109,18.1373 C8.42109,18.0846 8.46385,18.0418 8.51661,18.0418 L15.4834,18.0418 C15.5361,18.0418 15.5789,18.0846 15.5789,18.1373 L15.5789,18.1373 C15.5789,18.1901 15.5361,18.2329 15.4834,18.2329 L8.51661,18.2329 C8.46385,18.2329 8.42109,18.1901 8.42109,18.1373 L8.42109,18.1373"/>
</g>

<g fill="#ffffff" fill-opacity="1" stroke="none" transform="matrix(1,0,0,1,0,0)"
font-family="Inter" font-size="11" font-weight="700" font-style="normal" 
>
</g>

<g fill="#ffffff" fill-opacity="1" stroke="#00645c" stroke-opacity="1" stroke-width="1" stroke-linecap="square" stroke-linejoin="bevel" transform="matrix(1,0,0,1,0,0)"
font-family="Inter" font-size="11" font-weight="700" font-style="normal" 
>
<polyline fill="none" vector-effect="none" points="45,6 45,26 " />
</g>

<g fill="#009f94" fill-opacity="1" stroke="#00645c" stroke-opacity="1" stroke-width="1.2" stroke-linecap="square" stroke-linejoin="bevel" transform="matrix(1,0,0,1,102,4)"
font-family="Inter" font-size="11" font-weight="700" font-style="normal" 
>
<path vector-effect="none" fill-rule="evenodd" d="M0.5,3.5 C0.5,1.84315 1.84315,0.5 3.5,0.5 L62.5,0.5 C64.1569,0.5 65.5,1.84315 65.5,3.5 L65.5,20.5 C65.5,22.1569 64.1569,23.5 62.5,23.5 L3.5,23.5 C1.84315,23.5 0.5,22.1569 0.5,20.5 L0.5,3.5"/>
</g>

<g fill="#ffffff" fill-opacity="1" stroke="none" transform="matrix(1,0,0,1,102,4)"
font-family="Inter" font-size="11" font-weight="700" font-style="normal" 
>
<path vector-effect="none" fill-rule="nonzero" d="M12.8438,16 L10.0078,16 L10.0078,8 L12.8672,8 C13.6719,8 14.3646,8.15951 14.9453,8.47852 C15.526,8.79753 15.9733,9.25521 16.2871,9.85156 C16.6009,10.4479 16.7578,11.1615 16.7578,11.9922 C16.7578,12.8255 16.6009,13.5417 16.2871,14.1406 C15.9733,14.7396 15.5241,15.1992 14.9395,15.5195 C14.3548,15.8398 13.6563,16 12.8438,16 M11.6992,14.5508 L12.7734,14.5508 C13.2734,14.5508 13.6947,14.4616 14.0371,14.2832 C14.3796,14.1048 14.6374,13.8275 14.8105,13.4512 C14.9837,13.0749 15.0703,12.5885 15.0703,11.9922 C15.0703,11.401 14.9837,10.918 14.8105,10.543 C14.6374,10.168 14.3802,9.89193 14.0391,9.71484 C13.6979,9.53776 13.2773,9.44922 12.7773,9.44922 L11.6992,9.44922 L11.6992,14.5508 M18.0078,16 L18.0078,8 L21.1641,8 C21.7708,8 22.2878,8.11523 22.7148,8.3457 C23.1419,8.57617 23.4681,8.89518 23.6934,9.30273 C23.9186,9.71029 24.0313,10.1797 24.0313,10.7109 C24.0313,11.2422 23.9167,11.7109 23.6875,12.1172 C23.4583,12.5234 23.127,12.8398 22.6934,13.0664 C22.2598,13.293 21.7357,13.4063 21.1211,13.4063 L19.1094,13.4063 L19.1094,12.0508 L20.8477,12.0508 C21.1732,12.0508 21.4421,11.9941 21.6543,11.8809 C21.8665,11.7676 22.0254,11.61 22.1309,11.4082 C22.2363,11.2064 22.2891,10.974 22.2891,10.7109 C22.2891,10.4453 22.2363,10.2129 22.1309,10.0137 C22.0254,9.81445 21.8659,9.65951 21.6523,9.54883 C21.4388,9.43815 21.168,9.38281 20.8398,9.38281 L19.6992,9.38281 L19.6992,16 L18.0078,16 M25.5898,16 L23.7773,16 L26.5391,8 L28.7188,8 L31.4766,16 L29.6641,16 L27.6602,9.82813 L27.5977,9.82813 L25.5898,16 M25.4766,12.8555 L29.7578,12.8555 L29.7578,14.1758 L25.4766,14.1758 L25.4766,12.8555 M35.2656,16 L32.4297,16 L32.4297,8 L35.2891,8 C36.0938,8 36.7865,8.15951 37.3672,8.47852 C37.9479,8.79753 38.3952,9.25521 38.709,9.85156 C39.0228,10.4479 39.1797,11.1615 39.1797,11.9922 C39.1797,12.8255 39.0228,13.5417 38.709,14.1406 C38.3952,14.7396 37.946,15.1992 37.3613,15.5195 C36.7767,15.8398 36.0781,16 35.2656,16 M34.1211,14.5508 L35.1953,14.5508 C35.6953,14.5508 36.1165,14.4616 36.459,14.2832 C36.8014,14.1048 37.0592,13.8275 37.2324,13.4512 C37.4056,13.0749 37.4922,12.5885 37.4922,11.9922 C37.4922,11.401 37.4056,10.918 37.2324,10.543 C37.0592,10.168 36.8021,9.89193 36.4609,9.71484 C36.1198,9.53776 35.6992,9.44922 35.1992,9.44922 L34.1211,9.44922 L34.1211,14.5508 M43.8633,8 L43.8633,16 L42.1719,16 L42.1719,9.60547 L42.125,9.60547 L40.293,10.7539 L40.293,9.25391 L42.2734,8 L43.8633,8"/>
</g>

<g fill="#ffffff" fill-opacity="1" stroke="none" transform="matrix(0.03125,0,0,0.03125,154,12)"
font-family="Inter" font-size="11" font-weight="700" font-style="normal" 
>
<path vector-effect="none" fill-rule="nonzero" d="M111.326,191.938 C120.545,201.158 135.517,201.158 144.737,191.938 L239.144,97.5313 C245.929,90.7458 247.921,80.6413 244.233,71.7907 C240.545,62.9401 231.989,57.1871 222.401,57.1871 L33.5875,57.2608 C24.0731,57.2608 15.4437,63.0137 11.7559,71.8644 C8.06815,80.715 10.1333,90.8195 16.845,97.605 L111.252,192.012 L111.326,191.938"/>
</g>

<g fill="none" stroke="#000000" stroke-opacity="1" stroke-width="13.7195" stroke-linecap="butt" stroke-linejoin="miter" stroke-miterlimit="4" transform="matrix(0.03125,0,0,0.03125,154,12)"
font-family="Inter" font-size="11" font-weight="700" font-style="normal" 
>
<path vector-effect="none" fill-rule="nonzero" d="M111.326,191.938 C120.545,201.158 135.517,201.158 144.737,191.938 L239.144,97.5313 C245.929,90.7458 247.921,80.6413 244.233,71.7907 C240.545,62.9401 231.989,57.1871 222.401,57.1871 L33.5875,57.2608 C24.0731,57.2608 15.4437,63.0137 11.7559,71.8644 C8.06815,80.715 10.1333,90.8195 16.845,97.605 L111.252,192.012 L111.326,191.938"/>
</g>

<g fill="#ffffff" fill-opacity="1" stroke="none" transform="matrix(1,0,0,1,102,4)"
font-family="Inter" font-size="11" font-weight="700" font-style="normal" 
>
</g>

<g fill="#ffffff" fill-opacity="1" stroke="#00645c" stroke-opacity="1" stroke-width="1" stroke-linecap="square" stroke-linejoin="bevel" transform="matrix(1,0,0,1,0,0)"
font-family="Inter" font-size="11" font-weight="700" font-style="normal" 
>
</g>

<g fill="#009f94" fill-opacity="1" stroke="#00645c" stroke-opacity="1" stroke-width="1.2" stroke-linecap="square" stroke-linejoin="bevel" transform="matrix(1,0,0,1,172,4)"
font-family="Inter" font-size="11" font-weight="700" font-style="normal" 
>
<path vector-effect="none" fill-rule="evenodd" d="M0.5,3.5 C0.5,1.84315 1.84315,0.5 3.5,0.5 L41.5,0.5 C43.1569,0.5 44.5,1.84315 44.5,3.5 L44.5,20.5 C44.5,22.1569 43.1569,23.5 41.5,23.5 L3.5,23.5 C1.84315,23.5 0.5,22.1569 0.5,20.5 L0.5,3.5"/>
</g>

<g fill="#ffffff" fill-opacity="1" stroke="none" transform="matrix(1,0,0,1,172,4)"
font-family="Inter" font-size="11" font-weight="700" font-style="normal" 
>
<path vector-effect="none" fill-rule="nonzero" d="M13.8555,11.3203 L13.8555,7.875 L15.5195,7.875 L15.5195,13.875 L13.9219,13.875 L13.9219,12.7852 L13.8594,12.7852 C13.724,13.1367 13.4993,13.4193 13.1855,13.6328 C12.8717,13.8464 12.4896,13.9531 12.0391,13.9531 C11.638,13.9531 11.2852,13.862 10.9805,13.6797 C10.6758,13.4974 10.4382,13.2383 10.2676,12.9023 C10.097,12.5664 10.0104,12.1641 10.0078,11.6953 L10.0078,7.875 L11.6719,7.875 L11.6719,11.3984 C11.6745,11.7526 11.7695,12.0326 11.957,12.2383 C12.1445,12.444 12.3958,12.5469 12.7109,12.5469 C12.9115,12.5469 13.099,12.5007 13.2734,12.4082 C13.4479,12.3158 13.5892,12.1784 13.6973,11.9961 C13.8053,11.8138 13.8581,11.5885 13.8555,11.3203 M16.8359,16.125 L16.8359,7.875 L18.4766,7.875 L18.4766,8.88281 L18.5508,8.88281 C18.6237,8.72135 18.7298,8.55664 18.8691,8.38867 C19.0085,8.2207 19.1908,8.08008 19.416,7.9668 C19.6413,7.85352 19.9219,7.79688 20.2578,7.79688 C20.6953,7.79688 21.099,7.91081 21.4688,8.13867 C21.8385,8.36654 22.1341,8.70898 22.3555,9.16602 C22.5768,9.62305 22.6875,10.1953 22.6875,10.8828 C22.6875,11.5521 22.5801,12.1165 22.3652,12.5762 C22.1504,13.0358 21.8587,13.3835 21.4902,13.6191 C21.1217,13.8548 20.7096,13.9727 20.2539,13.9727 C19.931,13.9727 19.6569,13.9193 19.4316,13.8125 C19.2064,13.7057 19.0221,13.571 18.8789,13.4082 C18.7357,13.2454 18.6263,13.0807 18.5508,12.9141 L18.5,12.9141 L18.5,16.125 L16.8359,16.125 M18.4648,10.875 C18.4648,11.2318 18.5143,11.543 18.6133,11.8086 C18.7122,12.0742 18.8555,12.2806 19.043,12.4277 C19.2305,12.5749 19.4583,12.6484 19.7266,12.6484 C19.9974,12.6484 20.2266,12.5736 20.4141,12.4238 C20.6016,12.2741 20.7441,12.0658 20.8418,11.7988 C20.9395,11.5319 20.9883,11.224 20.9883,10.875 C20.9883,10.5286 20.9401,10.224 20.8438,9.96094 C20.7474,9.69792 20.6055,9.49219 20.418,9.34375 C20.2305,9.19531 20,9.12109 19.7266,9.12109 C19.4557,9.12109 19.2272,9.19271 19.041,9.33594 C18.8548,9.47917 18.7122,9.68229 18.6133,9.94531 C18.5143,10.2083 18.4648,10.5182 18.4648,10.875 "/>
</g>

<g fill="#ffffff" fill-opacity="1" stroke="none" transform="matrix(0.03125,0,0,0.03125,203,12)"
font-family="Inter" font-size="11" font-weight="700" font-style="normal" 
>
<path vector-effect="none" fill-rule="nonzero" d="M111.326,191.938 C120.545,201.158 135.517,201.158 144.737,191.938 L239.144,97.5313 C245.929,90.7458 247.921,80.6413 244.233,71.7907 C240.545,62.9401 231.989,57.1871 222.401,57.1871 L33.5875,57.2608 C24.0731,57.2608 15.4437,63.0137 11.7559,71.8644 C8.06815,80.715 10.1333,90.8195 16.845,97.605 L111.252,192.012 L111.326,191.938"/>
</g>

<g fill="none" stroke="#000000" stroke-opacity="1" stroke-width="13.7195" stroke-linecap="butt" stroke-linejoin="miter" stroke-miterlimit="4" transform="matrix(0.03125,0,0,0.03125,203,12)"
font-family="Inter" font-size="11" font-weight="700" font-style="normal" 
>
<path vector-effect="none" fill-rule="nonzero" d="M111.326,191.938 C120.545,201.158 135.517,201.158 144.737,191.938 L239.144,97.5313 C245.929,90.7458 247.921,80.6413 244.233,71.7907 C240.545,62.9401 231.989,57.1871 222.401,57.1871 L33.5875,57.2608 C24.0731,57.2608 15.4437,63.0137 11.7559,71.8644 C8.06815,80.715 10.1333,90.8195 16.845,97.605 L111.252,192.012 L111.326,191.938"/>
</g>

<g fill="#ffffff" fill-opacity="1" stroke="none" transform="matrix(1,0,0,1,172,4)"
font-family="Inter" font-size="11" font-weight="700" font-style="normal" 
>
</g>

<g fill="#ffffff" fill-opacity="1" stroke="#00645c" stroke-opacity="1" stroke-width="1" stroke-linecap="square" stroke-linejoin="bevel" transform="matrix(1,0,0,1,0,0)"
font-family="Inter" font-size="11" font-weight="700" font-style="normal" 
>
</g>

<g fill="#ffffff" fill-opacity="1" stroke="#00645c" stroke-opacity="1" stroke-width="1" stroke-linecap="square" stroke-linejoin="bevel" transform="matrix(1,0,0,1,0,0)"
font-family="Inter" font-size="11" font-weight="700" font-style="normal" 
>
</g>

<g fill="#009f94" fill-opacity="1" stroke="#00645c" stroke-opacity="1" stroke-width="1.2" stroke-linecap="square" stroke-linejoin="bevel" transform="matrix(1,0,0,1,264,4)"
font-family="Inter" font-size="11" font-weight="700" font-style="normal" 
>
<path vector-effect="none" fill-rule="evenodd" d="M0.5,3.5 C0.5,1.84315 1.84315,0.5 3.5,0.5 L70.5,0.5 C72.1569,0.5 73.5,1.84315 73.5,3.5 L73.5,20.5 C73.5,22.1569 72.1569,23.5 70.5,23.5 L3.5,23.5 C1.84315,23.5 0.5,22.1569 0.5,20.5 L0.5,3.5"/>
</g>

<g fill="#ffffff" fill-opacity="1" stroke="none" transform="matrix(1,0,0,1,264,4)"
font-family="Inter" font-size="11" font-weight="700" font-style="normal" 
>
<path vector-effect="none" fill-rule="nonzero" d="M9.00781,17.0781 L9.00781,8.82813 L10.6484,8.82813 L10.6484,9.83594 L10.7227,9.83594 C10.7956,9.67448 10.9017,9.50977 11.041,9.3418 C11.1803,9.17383 11.3626,9.0332 11.5879,8.91992 C11.8132,8.80664 12.0938,8.75 12.4297,8.75 C12.8672,8.75 13.2708,8.86393 13.6406,9.0918 C14.0104,9.31966 14.306,9.66211 14.5273,10.1191 C14.7487,10.5762 14.8594,11.1484 14.8594,11.8359 C14.8594,12.5052 14.752,13.0697 14.5371,13.5293 C14.3223,13.9889 14.0306,14.3366 13.6621,14.5723 C13.2936,14.8079 12.8815,14.9258 12.4258,14.9258 C12.1029,14.9258 11.8288,14.8724 11.6035,14.7656 C11.3783,14.6589 11.194,14.5241 11.0508,14.3613 C10.9076,14.1986 10.7982,14.0339 10.7227,13.8672 L10.6719,13.8672 L10.6719,17.0781 L9.00781,17.0781 M10.6367,11.8281 C10.6367,12.1849 10.6862,12.4961 10.7852,12.7617 C10.8841,13.0273 11.0273,13.2337 11.2148,13.3809 C11.4023,13.528 11.6302,13.6016 11.8984,13.6016 C12.1693,13.6016 12.3984,13.5267 12.5859,13.377 C12.7734,13.2272 12.916,13.0189 13.0137,12.752 C13.1113,12.485 13.1602,12.1771 13.1602,11.8281 C13.1602,11.4818 13.112,11.1771 13.0156,10.9141 C12.9193,10.651 12.7773,10.4453 12.5898,10.2969 C12.4023,10.1484 12.1719,10.0742 11.8984,10.0742 C11.6276,10.0742 11.3991,10.1458 11.2129,10.2891 C11.0267,10.4323 10.8841,10.6354 10.7852,10.8984 C10.6862,11.1615 10.6367,11.4714 10.6367,11.8281 M15.9609,14.8281 L15.9609,8.82813 L17.5742,8.82813 L17.5742,9.875 L17.6367,9.875 C17.7461,9.5026 17.9297,9.2207 18.1875,9.0293 C18.4453,8.83789 18.7422,8.74219 19.0781,8.74219 C19.1615,8.74219 19.2513,8.7474 19.3477,8.75781 C19.444,8.76823 19.5286,8.78255 19.6016,8.80078 L19.6016,10.2773 C19.5234,10.2539 19.4154,10.2331 19.2773,10.2148 C19.1393,10.1966 19.013,10.1875 18.8984,10.1875 C18.6536,10.1875 18.4355,10.2402 18.2441,10.3457 C18.0527,10.4512 17.9017,10.5977 17.791,10.7852 C17.6803,10.9727 17.625,11.1888 17.625,11.4336 L17.625,14.8281 L15.9609,14.8281 M22.8984,14.9453 C22.2813,14.9453 21.7507,14.8197 21.3066,14.5684 C20.8626,14.3171 20.5208,13.9603 20.2813,13.498 C20.0417,13.0358 19.9219,12.4883 19.9219,11.8555 C19.9219,11.2383 20.0417,10.6966 20.2813,10.2305 C20.5208,9.76432 20.8587,9.40104 21.2949,9.14063 C21.7311,8.88021 22.2435,8.75 22.832,8.75 C23.2279,8.75 23.597,8.81315 23.9395,8.93945 C24.2819,9.06576 24.5814,9.25521 24.8379,9.50781 C25.0944,9.76042 25.2943,10.0775 25.4375,10.459 C25.5807,10.8405 25.6523,11.2865 25.6523,11.7969 L25.6523,12.2539 L20.5859,12.2539 L20.5859,11.2227 L24.0859,11.2227 C24.0859,10.9831 24.0339,10.7708 23.9297,10.5859 C23.8255,10.401 23.6816,10.2559 23.498,10.1504 C23.3145,10.0449 23.1016,9.99219 22.8594,9.99219 C22.6068,9.99219 22.3835,10.0501 22.1895,10.166 C21.9954,10.2819 21.8438,10.4368 21.7344,10.6309 C21.625,10.8249 21.569,11.0404 21.5664,11.2773 L21.5664,12.2578 C21.5664,12.5547 21.6217,12.8112 21.7324,13.0273 C21.8431,13.2435 22,13.4102 22.2031,13.5273 C22.4063,13.6445 22.6471,13.7031 22.9258,13.7031 C23.1107,13.7031 23.2799,13.6771 23.4336,13.625 C23.5872,13.5729 23.7188,13.4948 23.8281,13.3906 C23.9375,13.2865 24.0208,13.1589 24.0781,13.0078 L25.6172,13.1094 C25.5391,13.4792 25.3796,13.8014 25.1387,14.0762 C24.8978,14.3509 24.5879,14.5645 24.209,14.7168 C23.8301,14.8691 23.3932,14.9453 22.8984,14.9453 M31.7188,10.5391 L30.1953,10.6328 C30.1693,10.5026 30.1133,10.3848 30.0273,10.2793 C29.9414,10.1738 29.8288,10.0892 29.6895,10.0254 C29.5501,9.96159 29.3841,9.92969 29.1914,9.92969 C28.9336,9.92969 28.7161,9.98372 28.5391,10.0918 C28.362,10.1999 28.2734,10.3438 28.2734,10.5234 C28.2734,10.6667 28.3307,10.7878 28.4453,10.8867 C28.5599,10.9857 28.7565,11.0651 29.0352,11.125 L30.1211,11.3438 C30.7044,11.4635 31.1393,11.6563 31.4258,11.9219 C31.7122,12.1875 31.8555,12.5365 31.8555,12.9688 C31.8555,13.362 31.7402,13.707 31.5098,14.0039 C31.2793,14.3008 30.9642,14.5319 30.5645,14.6973 C30.1647,14.8626 29.7044,14.9453 29.1836,14.9453 C28.3893,14.9453 27.7572,14.7793 27.2871,14.4473 C26.8171,14.1152 26.5417,13.6628 26.4609,13.0898 L28.0977,13.0039 C28.1471,13.2461 28.2669,13.4303 28.457,13.5566 C28.6471,13.6829 28.8906,13.7461 29.1875,13.7461 C29.4792,13.7461 29.7142,13.6895 29.8926,13.5762 C30.071,13.4629 30.1615,13.3164 30.1641,13.1367 C30.1615,12.9857 30.0977,12.8613 29.9727,12.7637 C29.8477,12.666 29.6549,12.5911 29.3945,12.5391 L28.3555,12.332 C27.7695,12.2148 27.334,12.0117 27.0488,11.7227 C26.7637,11.4336 26.6211,11.0651 26.6211,10.6172 C26.6211,10.2318 26.7259,9.89974 26.9355,9.62109 C27.1452,9.34245 27.4408,9.1276 27.8223,8.97656 C28.2038,8.82552 28.651,8.75 29.1641,8.75 C29.9219,8.75 30.5189,8.91016 30.9551,9.23047 C31.3913,9.55078 31.6458,9.98698 31.7188,10.5391 M37.8906,10.5391 L36.3672,10.6328 C36.3411,10.5026 36.2852,10.3848 36.1992,10.2793 C36.1133,10.1738 36.0007,10.0892 35.8613,10.0254 C35.722,9.96159 35.556,9.92969 35.3633,9.92969 C35.1055,9.92969 34.888,9.98372 34.7109,10.0918 C34.5339,10.1999 34.4453,10.3438 34.4453,10.5234 C34.4453,10.6667 34.5026,10.7878 34.6172,10.8867 C34.7318,10.9857 34.9284,11.0651 35.207,11.125 L36.293,11.3438 C36.8763,11.4635 37.3112,11.6563 37.5977,11.9219 C37.8841,12.1875 38.0273,12.5365 38.0273,12.9688 C38.0273,13.362 37.9121,13.707 37.6816,14.0039 C37.4512,14.3008 37.1361,14.5319 36.7363,14.6973 C36.3366,14.8626 35.8763,14.9453 35.3555,14.9453 C34.5612,14.9453 33.929,14.7793 33.459,14.4473 C32.9889,14.1152 32.7135,13.6628 32.6328,13.0898 L34.2695,13.0039 C34.319,13.2461 34.4388,13.4303 34.6289,13.5566 C34.819,13.6829 35.0625,13.7461 35.3594,13.7461 C35.651,13.7461 35.8861,13.6895 36.0645,13.5762 C36.2428,13.4629 36.3333,13.3164 36.3359,13.1367 C36.3333,12.9857 36.2695,12.8613 36.1445,12.7637 C36.0195,12.666 35.8268,12.5911 35.5664,12.5391 L34.5273,12.332 C33.9414,12.2148 33.5059,12.0117 33.2207,11.7227 C32.9355,11.4336 32.793,11.0651 32.793,10.6172 C32.793,10.2318 32.8978,9.89974 33.1074,9.62109 C33.3171,9.34245 33.6126,9.1276 33.9941,8.97656 C34.3757,8.82552 34.8229,8.75 35.3359,8.75 C36.0938,8.75 36.6908,8.91016 37.127,9.23047 C37.5632,9.55078 37.8177,9.98698 37.8906,10.5391 M41.8047,14.9453 C41.1875,14.9453 40.6569,14.8197 40.2129,14.5684 C39.7689,14.3171 39.4271,13.9603 39.1875,13.498 C38.9479,13.0358 38.8281,12.4883 38.8281,11.8555 C38.8281,11.2383 38.9479,10.6966 39.1875,10.2305 C39.4271,9.76432 39.765,9.40104 40.2012,9.14063 C40.6374,8.88021 41.1497,8.75 41.7383,8.75 C42.1341,8.75 42.5033,8.81315 42.8457,8.93945 C43.1882,9.06576 43.4876,9.25521 43.7441,9.50781 C44.0007,9.76042 44.2005,10.0775 44.3438,10.459 C44.487,10.8405 44.5586,11.2865 44.5586,11.7969 L44.5586,12.2539 L39.4922,12.2539 L39.4922,11.2227 L42.9922,11.2227 C42.9922,10.9831 42.9401,10.7708 42.8359,10.5859 C42.7318,10.401 42.5879,10.2559 42.4043,10.1504 C42.2207,10.0449 42.0078,9.99219 41.7656,9.99219 C41.513,9.99219 41.2897,10.0501 41.0957,10.166 C40.9017,10.2819 40.75,10.4368 40.6406,10.6309 C40.5313,10.8249 40.4753,11.0404 40.4727,11.2773 L40.4727,12.2578 C40.4727,12.5547 40.528,12.8112 40.6387,13.0273 C40.7493,13.2435 40.9063,13.4102 41.1094,13.5273 C41.3125,13.6445 41.5534,13.7031 41.832,13.7031 C42.0169,13.7031 42.1862,13.6771 42.3398,13.625 C42.4935,13.5729 42.625,13.4948 42.7344,13.3906 C42.8438,13.2865 42.9271,13.1589 42.9844,13.0078 L44.5234,13.1094 C44.4453,13.4792 44.2858,13.8014 44.0449,14.0762 C43.804,14.3509 43.4941,14.5645 43.1152,14.7168 C42.7363,14.8691 42.2995,14.9453 41.8047,14.9453 M47.8438,14.9258 C47.388,14.9258 46.9759,14.8079 46.6074,14.5723 C46.2389,14.3366 45.9473,13.9889 45.7324,13.5293 C45.5176,13.0697 45.4102,12.5052 45.4102,11.8359 C45.4102,11.1484 45.5208,10.5762 45.7422,10.1191 C45.9635,9.66211 46.2585,9.31966 46.627,9.0918 C46.9954,8.86393 47.3997,8.75 47.8398,8.75 C48.1758,8.75 48.4564,8.80664 48.6816,8.91992 C48.9069,9.0332 49.0892,9.17383 49.2285,9.3418 C49.3678,9.50977 49.474,9.67448 49.5469,9.83594 L49.5977,9.83594 L49.5977,6.82813 L51.2578,6.82813 L51.2578,14.8281 L49.6172,14.8281 L49.6172,13.8672 L49.5469,13.8672 C49.4688,14.0339 49.3587,14.1986 49.2168,14.3613 C49.0749,14.5241 48.8913,14.6589 48.666,14.7656 C48.4408,14.8724 48.1667,14.9258 47.8438,14.9258 M48.3711,13.6016 C48.6393,13.6016 48.8665,13.528 49.0527,13.3809 C49.2389,13.2337 49.3822,13.0273 49.4824,12.7617 C49.5827,12.4961 49.6328,12.1849 49.6328,11.8281 C49.6328,11.4714 49.5833,11.1615 49.4844,10.8984 C49.3854,10.6354 49.2422,10.4323 49.0547,10.2891 C48.8672,10.1458 48.6393,10.0742 48.3711,10.0742 C48.0977,10.0742 47.8672,10.1484 47.6797,10.2969 C47.4922,10.4453 47.3503,10.651 47.2539,10.9141 C47.1576,11.1771 47.1094,11.4818 47.1094,11.8281 C47.1094,12.1771 47.1582,12.485 47.2559,12.752 C47.3535,13.0189 47.4954,13.2272 47.6816,13.377 C47.8678,13.5267 48.0977,13.6016 48.3711,13.6016 "/>
</g>

<g fill="#ffffff" fill-opacity="1" stroke="none" transform="matrix(0.03125,0,0,0.03125,324,12)"
font-family="Inter" font-size="11" font-weight="700" font-style="normal" 
>
<path vector-effect="none" fill-rule="nonzero" d="M111.326,191.938 C120.545,201.158 135.517,201.158 144.737,191.938 L239.144,97.5313 C245.929,90.7458 247.921,80.6413 244.233,71.7907 C240.545,62.9401 231.989,57.1871 222.401,57.1871 L33.5875,57.2608 C24.0731,57.2608 15.4437,63.0137 11.7559,71.8644 C8.06815,80.715 10.1333,90.8195 16.845,97.605 L111.252,192.012 L111.326,191.938"/>
</g>

<g fill="none" stroke="#000000" stroke-opacity="1" stroke-width="13.7195" stroke-linecap="butt" stroke-linejoin="miter" stroke-miterlimit="4" transform="matrix(0.03125,0,0,0.03125,324,12)"
font-family="Inter" font-size="11" font-weight="700" font-style="normal" 
>
<path vector-effect="none" fill-rule="nonzero" d="M111.326,191.938 C120.545,201.158 135.517,201.158 144.737,191.938 L239.144,97.5313 C245.929,90.7458 247.921,80.6413 244.233,71.7907 C240.545,62.9401 231.989,57.1871 222.401,57.1871 L33.5875,57.2608 C24.0731,57.2608 15.4437,63.0137 11.7559,71.8644 C8.06815,80.715 10.1333,90.8195 16.845,97.605 L111.252,192.012 L111.326,191.938"/>
</g>

<g fill="#ffffff" fill-opacity="1" stroke="none" transform="matrix(1,0,0,1,264,4)"
font-family="Inter" font-size="11" font-weight="700" font-style="normal" 
>
</g>

<g fill="#ffffff" fill-opacity="1" stroke="#00645c" stroke-opacity="1" stroke-width="1" stroke-linecap="square" stroke-linejoin="bevel" transform="matrix(1,0,0,1,0,0)"
font-family="Inter" font-size="11" font-weight="700" font-style="normal" 
>
</g>

<g fill="none" stroke="#000000" stroke-opacity="1" stroke-width="1" stroke-linecap="square" stroke-linejoin="bevel" transform="matrix(1,0,0,1,0,0)"
font-family=".AppleSystemUIFont" font-size="13" font-weight="400" font-style="normal" 
>
</g>
</g>
</svg>
