<?xml version="1.0" encoding="UTF-8" standalone="no"?>
<svg width="101.953mm" height="21.1667mm"
 viewBox="0 0 289 60"
 xmlns="http://www.w3.org/2000/svg" xmlns:xlink="http://www.w3.org/1999/xlink" version="1.2" baseProfile="tiny">
<title>Abstract block</title>
<desc>block_hubs_all_event_tilt_orientation_changed</desc>
<defs>
</defs>
<g fill="none" stroke="black" stroke-width="1" fill-rule="evenodd" stroke-linecap="square" stroke-linejoin="bevel" >

<g fill="none" stroke="#000000" stroke-opacity="1" stroke-width="1" stroke-linecap="square" stroke-linejoin="bevel" transform="matrix(1,0,0,1,0,0)"
font-family=".AppleSystemUIFont" font-size="13" font-weight="400" font-style="normal" 
>
</g>

<g fill="none" stroke="#000000" stroke-opacity="1" stroke-width="1" stroke-linecap="square" stroke-linejoin="bevel" transform="matrix(1,0,0,1,0,0)"
font-family=".AppleSystemUIFont" font-size="13" font-weight="400" font-style="normal" 
>
</g>

<g fill="#f5c400" fill-opacity="1" stroke="#ba9500" stroke-opacity="1" stroke-width="1.2" stroke-linecap="square" stroke-linejoin="bevel" transform="matrix(1,0,0,1,0,0)"
font-family=".AppleSystemUIFont" font-size="13" font-weight="400" font-style="normal" 
>
<path vector-effect="none" fill-rule="evenodd" d="M0.5,20.5 L1,18.6516 L1,18 L1.77836,17.1565 L2.58892,16.3401 L3.43062,15.551 L4.30242,14.7891 L5.20325,14.0544 L6.13206,13.3469 L7.08779,12.6667 L8.06939,12.0136 L9.0758,11.3878 L10.106,10.7891 L11.1588,10.2177 L12.2333,9.67347 L13.3284,9.15646 L14.4431,8.66667 L15.5762,8.20408 L16.7267,7.76871 L17.8936,7.36054 L19.0758,6.97959 L20.2723,6.62585 L21.4819,6.29932 L22.7037,6 L23.9366,5.72789 L25.1795,5.48299 L26.4314,5.26531 L27.6912,5.07483 L28.9578,4.91156 L30.2303,4.77551 L31.5075,4.66667 L32.7885,4.58503 L34.072,4.53061 L35.3572,4.5034 L36.6428,4.5034 L37.928,4.53061 L39.2115,4.58503 L40.4925,4.66667 L41.7697,4.77551 L43.0422,4.91156 L44.3088,5.07483 L45.5686,5.26531 L46.8205,5.48299 L48.0634,5.72789 L49.2963,6 L50.5181,6.29932 L51.7277,6.62585 L52.9242,6.97959 L54.1064,7.36054 L55.2733,7.76871 L56.4238,8.20408 L57.5569,8.66667 L58.6716,9.15646 L59.7667,9.67347 L60.8412,10.2177 L61.894,10.7891 L62.9242,11.3878 L63.9306,12.0136 L64.9122,12.6667 L65.8679,13.3469 L66.7968,14.0544 L67.6976,14.7891 L68.5694,15.551 L69.4111,16.3401 L69.5698,16.5 L284,16.5 L286.019,17.0461 L287.454,18.4811 L288,20.5 L288,47.5 L287.454,49.5189 L286.019,50.9539 L284,51.5 L34.375,51.5 L33.584,51.9766 L32.8281,52.6875 L32.002,53.6797 L31,55 L30.2441,55.6602 L29.4531,56.1563 L28.5918,56.5117 L27.625,56.75 L26.5176,56.8945 L25.2344,56.9688 L23.7402,56.9961 L22,57 L20.2598,56.9961 L18.7656,56.9688 L17.4824,56.8945 L16.375,56.75 L15.4082,56.5117 L14.5469,56.1563 L13.7559,55.6602 L13,55 L11.998,53.6797 L11.1719,52.6875 L10.416,51.9766 L9.625,51.5 L4.5,51.5 L2.48112,50.9539 L1.04612,49.5189 L0.5,47.5 L0.5,20.5"/>
</g>

<g fill="#ffffff" fill-opacity="1" stroke="none" transform="matrix(1,0,0,1,0,0)"
font-family="Inter" font-size="11" font-weight="700" font-style="normal" 
>
<path vector-effect="none" fill-rule="nonzero" d="M53.4727,37.9063 L51.8398,31.9063 L53.5234,31.9063 L54.4531,35.9375 L54.5078,35.9375 L55.4766,31.9063 L57.1289,31.9063 L58.1133,35.9141 L58.1641,35.9141 L59.0781,31.9063 L60.7578,31.9063 L59.1289,37.9063 L57.3672,37.9063 L56.3359,34.1328 L56.2617,34.1328 L55.2305,37.9063 L53.4727,37.9063 M63.2969,34.4375 L63.2969,37.9063 L61.6328,37.9063 L61.6328,29.9063 L63.25,29.9063 L63.25,32.9648 L63.3203,32.9648 C63.4557,32.6107 63.6745,32.3327 63.9766,32.1309 C64.2786,31.929 64.6576,31.8281 65.1133,31.8281 C65.5299,31.8281 65.8939,31.9186 66.2051,32.0996 C66.5163,32.2806 66.7585,32.5397 66.9316,32.877 C67.1048,33.2142 67.1901,33.6172 67.1875,34.0859 L67.1875,37.9063 L65.5234,37.9063 L65.5234,34.3828 C65.526,34.013 65.4329,33.7253 65.2441,33.5195 C65.0553,33.3138 64.7917,33.2109 64.4531,33.2109 C64.2266,33.2109 64.0267,33.2591 63.8535,33.3555 C63.6803,33.4518 63.5449,33.5918 63.4473,33.7754 C63.3496,33.959 63.2995,34.1797 63.2969,34.4375 M71.2266,38.0234 C70.6094,38.0234 70.0788,37.8978 69.6348,37.6465 C69.1908,37.3952 68.849,37.0384 68.6094,36.5762 C68.3698,36.1139 68.25,35.5664 68.25,34.9336 C68.25,34.3164 68.3698,33.7747 68.6094,33.3086 C68.849,32.8424 69.1868,32.4792 69.623,32.2188 C70.0592,31.9583 70.5716,31.8281 71.1602,31.8281 C71.556,31.8281 71.9251,31.8913 72.2676,32.0176 C72.61,32.1439 72.9095,32.3333 73.166,32.5859 C73.4225,32.8385 73.6224,33.1556 73.7656,33.5371 C73.9089,33.9186 73.9805,34.3646 73.9805,34.875 L73.9805,35.332 L68.9141,35.332 L68.9141,34.3008 L72.4141,34.3008 C72.4141,34.0612 72.362,33.849 72.2578,33.6641 C72.1536,33.4792 72.0098,33.334 71.8262,33.2285 C71.6426,33.123 71.4297,33.0703 71.1875,33.0703 C70.9349,33.0703 70.7116,33.1283 70.5176,33.2441 C70.3236,33.36 70.1719,33.515 70.0625,33.709 C69.9531,33.903 69.8971,34.1185 69.8945,34.3555 L69.8945,35.3359 C69.8945,35.6328 69.9499,35.8893 70.0605,36.1055 C70.1712,36.3216 70.3281,36.4883 70.5313,36.6055 C70.7344,36.7227 70.9753,36.7813 71.2539,36.7813 C71.4388,36.7813 71.6081,36.7552 71.7617,36.7031 C71.9154,36.651 72.0469,36.5729 72.1563,36.4688 C72.2656,36.3646 72.349,36.237 72.4063,36.0859 L73.9453,36.1875 C73.8672,36.5573 73.7077,36.8796 73.4668,37.1543 C73.2259,37.429 72.916,37.6426 72.5371,37.7949 C72.1582,37.9473 71.7214,38.0234 71.2266,38.0234 M76.7188,34.4375 L76.7188,37.9063 L75.0547,37.9063 L75.0547,31.9063 L76.6406,31.9063 L76.6406,32.9648 L76.7109,32.9648 C76.8438,32.6159 77.0664,32.3392 77.3789,32.1348 C77.6914,31.9303 78.0703,31.8281 78.5156,31.8281 C78.9323,31.8281 79.2956,31.9193 79.6055,32.1016 C79.9154,32.2839 80.1563,32.5436 80.3281,32.8809 C80.5,33.2181 80.5859,33.6198 80.5859,34.0859 L80.5859,37.9063 L78.9219,37.9063 L78.9219,34.3828 C78.9245,34.0156 78.8307,33.7285 78.6406,33.5215 C78.4505,33.3145 78.1888,33.2109 77.8555,33.2109 C77.6315,33.2109 77.4342,33.2591 77.2637,33.3555 C77.0931,33.4518 76.9603,33.5918 76.8652,33.7754 C76.7702,33.959 76.7214,34.1797 76.7188,34.4375 "/>
</g>

<g fill="#ffffff" fill-opacity="1" stroke="none" transform="matrix(1,0,0,1,0,0)"
font-family="Inter" font-size="11" font-weight="700" font-style="normal" 
>
<path vector-effect="none" fill-rule="nonzero" d="M170.734,37.1172 C170.128,37.1172 169.604,36.9876 169.162,36.7285 C168.721,36.4694 168.38,36.1074 168.141,35.6426 C167.901,35.1777 167.781,34.638 167.781,34.0234 C167.781,33.4036 167.901,32.8613 168.141,32.3965 C168.38,31.9316 168.721,31.5697 169.162,31.3105 C169.604,31.0514 170.128,30.9219 170.734,30.9219 C171.341,30.9219 171.865,31.0514 172.307,31.3105 C172.748,31.5697 173.089,31.9316 173.328,32.3965 C173.568,32.8613 173.688,33.4036 173.688,34.0234 C173.688,34.638 173.568,35.1777 173.328,35.6426 C173.089,36.1074 172.748,36.4694 172.307,36.7285 C171.865,36.9876 171.341,37.1172 170.734,37.1172 M170.742,35.8281 C171.018,35.8281 171.249,35.7493 171.434,35.5918 C171.618,35.4342 171.758,35.2188 171.854,34.9453 C171.949,34.6719 171.996,34.3607 171.996,34.0117 C171.996,33.6628 171.949,33.3516 171.854,33.0781 C171.758,32.8047 171.618,32.5885 171.434,32.4297 C171.249,32.2708 171.018,32.1914 170.742,32.1914 C170.464,32.1914 170.23,32.2708 170.041,32.4297 C169.852,32.5885 169.71,32.8047 169.615,33.0781 C169.52,33.3516 169.473,33.6628 169.473,34.0117 C169.473,34.3607 169.52,34.6719 169.615,34.9453 C169.71,35.2188 169.852,35.4342 170.041,35.5918 C170.23,35.7493 170.464,35.8281 170.742,35.8281 M174.773,37 L174.773,31 L176.387,31 L176.387,32.0469 L176.449,32.0469 C176.559,31.6745 176.742,31.3926 177,31.2012 C177.258,31.0098 177.555,30.9141 177.891,30.9141 C177.974,30.9141 178.064,30.9193 178.16,30.9297 C178.257,30.9401 178.341,30.9544 178.414,30.9727 L178.414,32.4492 C178.336,32.4258 178.228,32.4049 178.09,32.3867 C177.952,32.3685 177.826,32.3594 177.711,32.3594 C177.466,32.3594 177.248,32.4121 177.057,32.5176 C176.865,32.623 176.714,32.7695 176.604,32.957 C176.493,33.1445 176.438,33.3607 176.438,33.6055 L176.438,37 L174.773,37 M179.258,37 L179.258,31 L180.922,31 L180.922,37 L179.258,37 M180.094,30.2266 C179.846,30.2266 179.635,30.1439 179.459,29.9785 C179.283,29.8132 179.195,29.6146 179.195,29.3828 C179.195,29.1536 179.283,28.9564 179.459,28.791 C179.635,28.6257 179.846,28.543 180.094,28.543 C180.341,28.543 180.553,28.6257 180.729,28.791 C180.904,28.9564 180.992,29.1536 180.992,29.3828 C180.992,29.6146 180.904,29.8132 180.729,29.9785 C180.553,30.1439 180.341,30.2266 180.094,30.2266 M184.977,37.1172 C184.359,37.1172 183.829,36.9915 183.385,36.7402 C182.941,36.4889 182.599,36.1322 182.359,35.6699 C182.12,35.2077 182,34.6602 182,34.0273 C182,33.4102 182.12,32.8685 182.359,32.4023 C182.599,31.9362 182.937,31.5729 183.373,31.3125 C183.809,31.0521 184.322,30.9219 184.91,30.9219 C185.306,30.9219 185.675,30.985 186.018,31.1113 C186.36,31.2376 186.66,31.4271 186.916,31.6797 C187.173,31.9323 187.372,32.2493 187.516,32.6309 C187.659,33.0124 187.73,33.4583 187.73,33.9688 L187.73,34.4258 L182.664,34.4258 L182.664,33.3945 L186.164,33.3945 C186.164,33.1549 186.112,32.9427 186.008,32.7578 C185.904,32.5729 185.76,32.4277 185.576,32.3223 C185.393,32.2168 185.18,32.1641 184.938,32.1641 C184.685,32.1641 184.462,32.222 184.268,32.3379 C184.074,32.4538 183.922,32.6087 183.813,32.8027 C183.703,32.9967 183.647,33.2122 183.645,33.4492 L183.645,34.4297 C183.645,34.7266 183.7,34.9831 183.811,35.1992 C183.921,35.4154 184.078,35.582 184.281,35.6992 C184.484,35.8164 184.725,35.875 185.004,35.875 C185.189,35.875 185.358,35.849 185.512,35.7969 C185.665,35.7448 185.797,35.6667 185.906,35.5625 C186.016,35.4583 186.099,35.3307 186.156,35.1797 L187.695,35.2813 C187.617,35.651 187.458,35.9733 187.217,36.248 C186.976,36.5228 186.666,36.7363 186.287,36.8887 C185.908,37.041 185.471,37.1172 184.977,37.1172 M190.469,33.5313 L190.469,37 L188.805,37 L188.805,31 L190.391,31 L190.391,32.0586 L190.461,32.0586 C190.594,31.7096 190.816,31.4329 191.129,31.2285 C191.441,31.0241 191.82,30.9219 192.266,30.9219 C192.682,30.9219 193.046,31.013 193.355,31.1953 C193.665,31.3776 193.906,31.6374 194.078,31.9746 C194.25,32.3118 194.336,32.7135 194.336,33.1797 L194.336,37 L192.672,37 L192.672,33.4766 C192.674,33.1094 192.581,32.8223 192.391,32.6152 C192.201,32.4082 191.939,32.3047 191.605,32.3047 C191.382,32.3047 191.184,32.3529 191.014,32.4492 C190.843,32.5456 190.71,32.6855 190.615,32.8691 C190.52,33.0527 190.471,33.2734 190.469,33.5313 M198.824,31 L198.824,32.25 L195.211,32.25 L195.211,31 L198.824,31 M196.031,29.5625 L197.695,29.5625 L197.695,35.1563 C197.695,35.3099 197.719,35.429 197.766,35.5137 C197.813,35.5983 197.878,35.6576 197.963,35.6914 C198.048,35.7253 198.146,35.7422 198.258,35.7422 C198.336,35.7422 198.414,35.735 198.492,35.7207 C198.57,35.7064 198.63,35.6953 198.672,35.6875 L198.934,36.9258 C198.85,36.9518 198.733,36.9824 198.582,37.0176 C198.431,37.0527 198.247,37.0742 198.031,37.082 C197.63,37.0977 197.279,37.0443 196.979,36.9219 C196.678,36.7995 196.444,36.6094 196.277,36.3516 C196.111,36.0938 196.029,35.7682 196.031,35.375 L196.031,29.5625 M201.609,37.1133 C201.227,37.1133 200.885,37.0462 200.586,36.9121 C200.286,36.778 200.05,36.5788 199.877,36.3145 C199.704,36.0501 199.617,35.7201 199.617,35.3242 C199.617,34.9909 199.678,34.7109 199.801,34.4844 C199.923,34.2578 200.09,34.0755 200.301,33.9375 C200.512,33.7995 200.752,33.6953 201.021,33.625 C201.291,33.5547 201.574,33.5052 201.871,33.4766 C202.22,33.4401 202.501,33.4056 202.715,33.373 C202.928,33.3405 203.083,33.2917 203.18,33.2266 C203.276,33.1615 203.324,33.0651 203.324,32.9375 L203.324,32.9141 C203.324,32.6667 203.247,32.4753 203.092,32.3398 C202.937,32.2044 202.717,32.1367 202.434,32.1367 C202.134,32.1367 201.896,32.2025 201.719,32.334 C201.542,32.4655 201.424,32.6302 201.367,32.8281 L199.828,32.7031 C199.906,32.3385 200.06,32.0228 200.289,31.7559 C200.518,31.4889 200.814,31.2832 201.178,31.1387 C201.541,30.9941 201.962,30.9219 202.441,30.9219 C202.775,30.9219 203.094,30.9609 203.4,31.0391 C203.706,31.1172 203.979,31.2383 204.217,31.4023 C204.455,31.5664 204.643,31.7767 204.781,32.0332 C204.919,32.2897 204.988,32.5964 204.988,32.9531 L204.988,37 L203.41,37 L203.41,36.168 L203.363,36.168 C203.267,36.3555 203.138,36.5202 202.977,36.6621 C202.815,36.804 202.621,36.9147 202.395,36.9941 C202.168,37.0736 201.906,37.1133 201.609,37.1133 M202.086,35.9648 C202.331,35.9648 202.547,35.916 202.734,35.8184 C202.922,35.7207 203.069,35.5885 203.176,35.4219 C203.283,35.2552 203.336,35.0664 203.336,34.8555 L203.336,34.2188 C203.284,34.2526 203.213,34.2832 203.123,34.3105 C203.033,34.3379 202.932,34.3626 202.82,34.3848 C202.708,34.4069 202.596,34.4264 202.484,34.4434 C202.372,34.4603 202.271,34.4753 202.18,34.4883 C201.984,34.5169 201.814,34.5625 201.668,34.625 C201.522,34.6875 201.409,34.7715 201.328,34.877 C201.247,34.9824 201.207,35.1133 201.207,35.2695 C201.207,35.4961 201.29,35.6686 201.455,35.7871 C201.62,35.9056 201.831,35.9648 202.086,35.9648 M209.465,31 L209.465,32.25 L205.852,32.25 L205.852,31 L209.465,31 M206.672,29.5625 L208.336,29.5625 L208.336,35.1563 C208.336,35.3099 208.359,35.429 208.406,35.5137 C208.453,35.5983 208.519,35.6576 208.604,35.6914 C208.688,35.7253 208.786,35.7422 208.898,35.7422 C208.977,35.7422 209.055,35.735 209.133,35.7207 C209.211,35.7064 209.271,35.6953 209.313,35.6875 L209.574,36.9258 C209.491,36.9518 209.374,36.9824 209.223,37.0176 C209.072,37.0527 208.888,37.0742 208.672,37.082 C208.271,37.0977 207.92,37.0443 207.619,36.9219 C207.318,36.7995 207.085,36.6094 206.918,36.3516 C206.751,36.0938 206.669,35.7682 206.672,35.375 L206.672,29.5625 M210.539,37 L210.539,31 L212.203,31 L212.203,37 L210.539,37 M211.375,30.2266 C211.128,30.2266 210.916,30.1439 210.74,29.9785 C210.564,29.8132 210.477,29.6146 210.477,29.3828 C210.477,29.1536 210.564,28.9564 210.74,28.791 C210.916,28.6257 211.128,28.543 211.375,28.543 C211.622,28.543 211.834,28.6257 212.01,28.791 C212.186,28.9564 212.273,29.1536 212.273,29.3828 C212.273,29.6146 212.186,29.8132 212.01,29.9785 C211.834,30.1439 211.622,30.2266 211.375,30.2266 M216.234,37.1172 C215.628,37.1172 215.104,36.9876 214.662,36.7285 C214.221,36.4694 213.88,36.1074 213.641,35.6426 C213.401,35.1777 213.281,34.638 213.281,34.0234 C213.281,33.4036 213.401,32.8613 213.641,32.3965 C213.88,31.9316 214.221,31.5697 214.662,31.3105 C215.104,31.0514 215.628,30.9219 216.234,30.9219 C216.841,30.9219 217.365,31.0514 217.807,31.3105 C218.248,31.5697 218.589,31.9316 218.828,32.3965 C219.068,32.8613 219.188,33.4036 219.188,34.0234 C219.188,34.638 219.068,35.1777 218.828,35.6426 C218.589,36.1074 218.248,36.4694 217.807,36.7285 C217.365,36.9876 216.841,37.1172 216.234,37.1172 M216.242,35.8281 C216.518,35.8281 216.749,35.7493 216.934,35.5918 C217.118,35.4342 217.258,35.2188 217.354,34.9453 C217.449,34.6719 217.496,34.3607 217.496,34.0117 C217.496,33.6628 217.449,33.3516 217.354,33.0781 C217.258,32.8047 217.118,32.5885 216.934,32.4297 C216.749,32.2708 216.518,32.1914 216.242,32.1914 C215.964,32.1914 215.73,32.2708 215.541,32.4297 C215.352,32.5885 215.21,32.8047 215.115,33.0781 C215.02,33.3516 214.973,33.6628 214.973,34.0117 C214.973,34.3607 215.02,34.6719 215.115,34.9453 C215.21,35.2188 215.352,35.4342 215.541,35.5918 C215.73,35.7493 215.964,35.8281 216.242,35.8281 M221.938,33.5313 L221.938,37 L220.273,37 L220.273,31 L221.859,31 L221.859,32.0586 L221.93,32.0586 C222.063,31.7096 222.285,31.4329 222.598,31.2285 C222.91,31.0241 223.289,30.9219 223.734,30.9219 C224.151,30.9219 224.514,31.013 224.824,31.1953 C225.134,31.3776 225.375,31.6374 225.547,31.9746 C225.719,32.3118 225.805,32.7135 225.805,33.1797 L225.805,37 L224.141,37 L224.141,33.4766 C224.143,33.1094 224.049,32.8223 223.859,32.6152 C223.669,32.4082 223.408,32.3047 223.074,32.3047 C222.85,32.3047 222.653,32.3529 222.482,32.4492 C222.312,32.5456 222.179,32.6855 222.084,32.8691 C221.989,33.0527 221.94,33.2734 221.938,33.5313 M232.359,37.1172 C231.745,37.1172 231.217,36.9863 230.775,36.7246 C230.334,36.4629 229.995,36.099 229.76,35.6328 C229.524,35.1667 229.406,34.6302 229.406,34.0234 C229.406,33.4089 229.525,32.8691 229.764,32.4043 C230.002,31.9395 230.341,31.5762 230.781,31.3145 C231.221,31.0527 231.745,30.9219 232.352,30.9219 C232.875,30.9219 233.333,31.0169 233.727,31.207 C234.12,31.3971 234.431,31.6641 234.66,32.0078 C234.889,32.3516 235.016,32.7552 235.039,33.2188 L233.469,33.2188 C233.424,32.9193 233.308,32.6777 233.119,32.4941 C232.93,32.3105 232.684,32.2188 232.379,32.2188 C232.121,32.2188 231.896,32.2884 231.705,32.4277 C231.514,32.5671 231.365,32.7695 231.258,33.0352 C231.151,33.3008 231.098,33.6224 231.098,34 C231.098,34.3828 231.15,34.7083 231.256,34.9766 C231.361,35.2448 231.51,35.4492 231.703,35.5898 C231.896,35.7305 232.121,35.8008 232.379,35.8008 C232.569,35.8008 232.74,35.7617 232.893,35.6836 C233.045,35.6055 233.171,35.4915 233.271,35.3418 C233.372,35.1921 233.438,35.0117 233.469,34.8008 L235.039,34.8008 C235.013,35.2591 234.889,35.6621 234.666,36.0098 C234.443,36.3574 234.137,36.6289 233.746,36.8242 C233.355,37.0195 232.893,37.1172 232.359,37.1172 M237.766,33.5313 L237.766,37 L236.102,37 L236.102,29 L237.719,29 L237.719,32.0586 L237.789,32.0586 C237.924,31.7044 238.143,31.4264 238.445,31.2246 C238.747,31.0228 239.126,30.9219 239.582,30.9219 C239.999,30.9219 240.363,31.0124 240.674,31.1934 C240.985,31.3743 241.227,31.6335 241.4,31.9707 C241.574,32.3079 241.659,32.7109 241.656,33.1797 L241.656,37 L239.992,37 L239.992,33.4766 C239.995,33.1068 239.902,32.819 239.713,32.6133 C239.524,32.4076 239.26,32.3047 238.922,32.3047 C238.695,32.3047 238.495,32.3529 238.322,32.4492 C238.149,32.5456 238.014,32.6855 237.916,32.8691 C237.818,33.0527 237.768,33.2734 237.766,33.5313 M244.672,37.1133 C244.289,37.1133 243.948,37.0462 243.648,36.9121 C243.349,36.778 243.113,36.5788 242.939,36.3145 C242.766,36.0501 242.68,35.7201 242.68,35.3242 C242.68,34.9909 242.741,34.7109 242.863,34.4844 C242.986,34.2578 243.152,34.0755 243.363,33.9375 C243.574,33.7995 243.814,33.6953 244.084,33.625 C244.354,33.5547 244.637,33.5052 244.934,33.4766 C245.283,33.4401 245.564,33.4056 245.777,33.373 C245.991,33.3405 246.146,33.2917 246.242,33.2266 C246.339,33.1615 246.387,33.0651 246.387,32.9375 L246.387,32.9141 C246.387,32.6667 246.309,32.4753 246.154,32.3398 C245.999,32.2044 245.78,32.1367 245.496,32.1367 C245.197,32.1367 244.958,32.2025 244.781,32.334 C244.604,32.4655 244.487,32.6302 244.43,32.8281 L242.891,32.7031 C242.969,32.3385 243.122,32.0228 243.352,31.7559 C243.581,31.4889 243.877,31.2832 244.24,31.1387 C244.604,30.9941 245.025,30.9219 245.504,30.9219 C245.837,30.9219 246.157,30.9609 246.463,31.0391 C246.769,31.1172 247.041,31.2383 247.279,31.4023 C247.518,31.5664 247.706,31.7767 247.844,32.0332 C247.982,32.2897 248.051,32.5964 248.051,32.9531 L248.051,37 L246.473,37 L246.473,36.168 L246.426,36.168 C246.329,36.3555 246.201,36.5202 246.039,36.6621 C245.878,36.804 245.684,36.9147 245.457,36.9941 C245.23,37.0736 244.969,37.1133 244.672,37.1133 M245.148,35.9648 C245.393,35.9648 245.609,35.916 245.797,35.8184 C245.984,35.7207 246.132,35.5885 246.238,35.4219 C246.345,35.2552 246.398,35.0664 246.398,34.8555 L246.398,34.2188 C246.346,34.2526 246.275,34.2832 246.186,34.3105 C246.096,34.3379 245.995,34.3626 245.883,34.3848 C245.771,34.4069 245.659,34.4264 245.547,34.4434 C245.435,34.4603 245.333,34.4753 245.242,34.4883 C245.047,34.5169 244.876,34.5625 244.73,34.625 C244.585,34.6875 244.471,34.7715 244.391,34.877 C244.31,34.9824 244.27,35.1133 244.27,35.2695 C244.27,35.4961 244.352,35.6686 244.518,35.7871 C244.683,35.9056 244.893,35.9648 245.148,35.9648 M251,33.5313 L251,37 L249.336,37 L249.336,31 L250.922,31 L250.922,32.0586 L250.992,32.0586 C251.125,31.7096 251.348,31.4329 251.66,31.2285 C251.973,31.0241 252.352,30.9219 252.797,30.9219 C253.214,30.9219 253.577,31.013 253.887,31.1953 C254.197,31.3776 254.438,31.6374 254.609,31.9746 C254.781,32.3118 254.867,32.7135 254.867,33.1797 L254.867,37 L253.203,37 L253.203,33.4766 C253.206,33.1094 253.112,32.8223 252.922,32.6152 C252.732,32.4082 252.47,32.3047 252.137,32.3047 C251.913,32.3047 251.715,32.3529 251.545,32.4492 C251.374,32.5456 251.242,32.6855 251.146,32.8691 C251.051,33.0527 251.003,33.2734 251,33.5313 M258.867,39.375 C258.328,39.375 257.867,39.3014 257.482,39.1543 C257.098,39.0072 256.793,38.8073 256.566,38.5547 C256.34,38.3021 256.193,38.0182 256.125,37.7031 L257.664,37.4961 C257.711,37.6159 257.785,37.7279 257.887,37.832 C257.988,37.9362 258.123,38.0202 258.291,38.084 C258.459,38.1478 258.664,38.1797 258.906,38.1797 C259.268,38.1797 259.567,38.0918 259.803,37.916 C260.038,37.7402 260.156,37.4466 260.156,37.0352 L260.156,35.9375 L260.086,35.9375 C260.013,36.1042 259.904,36.2617 259.758,36.4102 C259.612,36.5586 259.424,36.6797 259.195,36.7734 C258.966,36.8672 258.693,36.9141 258.375,36.9141 C257.924,36.9141 257.515,36.8092 257.146,36.5996 C256.778,36.39 256.485,36.0684 256.268,35.6348 C256.05,35.2012 255.941,34.6523 255.941,33.9883 C255.941,33.3086 256.052,32.7409 256.273,32.2852 C256.495,31.8294 256.79,31.4883 257.158,31.2617 C257.527,31.0352 257.931,30.9219 258.371,30.9219 C258.707,30.9219 258.988,30.9785 259.215,31.0918 C259.441,31.2051 259.624,31.3457 259.764,31.5137 C259.903,31.6816 260.01,31.8464 260.086,32.0078 L260.148,32.0078 L260.148,31 L261.801,31 L261.801,37.0586 C261.801,37.569 261.676,37.9961 261.426,38.3398 C261.176,38.6836 260.83,38.9421 260.389,39.1152 C259.947,39.2884 259.44,39.375 258.867,39.375 M258.902,35.6641 C259.171,35.6641 259.398,35.597 259.584,35.4629 C259.77,35.3288 259.913,35.1361 260.014,34.8848 C260.114,34.6335 260.164,34.332 260.164,33.9805 C260.164,33.6289 260.115,33.3236 260.016,33.0645 C259.917,32.8053 259.773,32.6042 259.586,32.4609 C259.398,32.3177 259.171,32.2461 258.902,32.2461 C258.629,32.2461 258.398,32.3197 258.211,32.4668 C258.023,32.6139 257.882,32.8177 257.785,33.0781 C257.689,33.3385 257.641,33.6393 257.641,33.9805 C257.641,34.3268 257.689,34.6257 257.787,34.877 C257.885,35.1283 258.027,35.3223 258.213,35.459 C258.399,35.5957 258.629,35.6641 258.902,35.6641 M265.852,37.1172 C265.234,37.1172 264.704,36.9915 264.26,36.7402 C263.816,36.4889 263.474,36.1322 263.234,35.6699 C262.995,35.2077 262.875,34.6602 262.875,34.0273 C262.875,33.4102 262.995,32.8685 263.234,32.4023 C263.474,31.9362 263.812,31.5729 264.248,31.3125 C264.684,31.0521 265.197,30.9219 265.785,30.9219 C266.181,30.9219 266.55,30.985 266.893,31.1113 C267.235,31.2376 267.535,31.4271 267.791,31.6797 C268.048,31.9323 268.247,32.2493 268.391,32.6309 C268.534,33.0124 268.605,33.4583 268.605,33.9688 L268.605,34.4258 L263.539,34.4258 L263.539,33.3945 L267.039,33.3945 C267.039,33.1549 266.987,32.9427 266.883,32.7578 C266.779,32.5729 266.635,32.4277 266.451,32.3223 C266.268,32.2168 266.055,32.1641 265.813,32.1641 C265.56,32.1641 265.337,32.222 265.143,32.3379 C264.949,32.4538 264.797,32.6087 264.688,32.8027 C264.578,32.9967 264.522,33.2122 264.52,33.4492 L264.52,34.4297 C264.52,34.7266 264.575,34.9831 264.686,35.1992 C264.796,35.4154 264.953,35.582 265.156,35.6992 C265.359,35.8164 265.6,35.875 265.879,35.875 C266.064,35.875 266.233,35.849 266.387,35.7969 C266.54,35.7448 266.672,35.6667 266.781,35.5625 C266.891,35.4583 266.974,35.3307 267.031,35.1797 L268.57,35.2813 C268.492,35.651 268.333,35.9733 268.092,36.248 C267.851,36.5228 267.541,36.7363 267.162,36.8887 C266.783,37.041 266.346,37.1172 265.852,37.1172 M271.891,37.0977 C271.435,37.0977 271.023,36.9798 270.654,36.7441 C270.286,36.5085 269.994,36.1608 269.779,35.7012 C269.564,35.2415 269.457,34.6771 269.457,34.0078 C269.457,33.3203 269.568,32.748 269.789,32.291 C270.01,31.834 270.305,31.4915 270.674,31.2637 C271.042,31.0358 271.447,30.9219 271.887,30.9219 C272.223,30.9219 272.503,30.9785 272.729,31.0918 C272.954,31.2051 273.136,31.3457 273.275,31.5137 C273.415,31.6816 273.521,31.8464 273.594,32.0078 L273.645,32.0078 L273.645,29 L275.305,29 L275.305,37 L273.664,37 L273.664,36.0391 L273.594,36.0391 C273.516,36.2057 273.406,36.3704 273.264,36.5332 C273.122,36.696 272.938,36.8307 272.713,36.9375 C272.488,37.0443 272.214,37.0977 271.891,37.0977 M272.418,35.7734 C272.686,35.7734 272.913,35.6999 273.1,35.5527 C273.286,35.4056 273.429,35.1992 273.529,34.9336 C273.63,34.668 273.68,34.3568 273.68,34 C273.68,33.6432 273.63,33.3333 273.531,33.0703 C273.432,32.8073 273.289,32.6042 273.102,32.4609 C272.914,32.3177 272.686,32.2461 272.418,32.2461 C272.145,32.2461 271.914,32.3203 271.727,32.4688 C271.539,32.6172 271.397,32.8229 271.301,33.0859 C271.204,33.349 271.156,33.6536 271.156,34 C271.156,34.349 271.205,34.6569 271.303,34.9238 C271.4,35.1908 271.542,35.3991 271.729,35.5488 C271.915,35.6986 272.145,35.7734 272.418,35.7734 "/>
</g>

<g fill="#ffffff" fill-opacity="1" stroke="none" transform="matrix(0.228,0,0,0.228,11.6,25.6)"
font-family="Inter" font-size="11" font-weight="700" font-style="normal" 
>
<path vector-effect="none" fill-rule="nonzero" d="M23.3682,15.995 C21.89,15.995 20.7001,17.185 20.7001,18.6631 L20.7001,81.3343 C20.7001,82.8125 21.89,84.0024 23.3682,84.0024 L76.6077,84.0024 C78.0859,84.0024 79.2758,82.8125 79.2758,81.3343 L79.2758,18.6631 C79.2758,17.185 78.0859,15.995 76.6077,15.995 L50.8905,15.995 C51.6703,16.0444 52.2838,16.6869 52.2838,17.4796 L52.2838,26.9112 C52.2838,27.7362 51.6196,28.4004 50.7946,28.4004 L49.3054,28.4004 C48.4804,28.4004 47.8161,27.7362 47.8161,26.9112 L47.8161,17.4796 C47.8161,16.6869 48.4298,16.0443 49.2096,15.995 L23.3682,15.995 M46.7613,35.2087 L53.2146,35.2087 C53.9021,35.2087 54.4556,35.7622 54.4556,36.4497 L54.4556,42.903 C54.4556,43.5906 53.9021,44.1439 53.2146,44.1439 L46.7613,44.1439 C46.0738,44.1439 45.5202,43.5906 45.5202,42.903 L45.5202,36.4497 C45.5202,35.7622 46.0738,35.2087 46.7613,35.2087 "/>
</g>

<g fill="none" stroke="#000000" stroke-opacity="1" stroke-width="2.43854" stroke-linecap="butt" stroke-linejoin="miter" stroke-miterlimit="4" transform="matrix(0.228,0,0,0.228,11.6,25.6)"
font-family="Inter" font-size="11" font-weight="700" font-style="normal" 
>
<path vector-effect="none" fill-rule="nonzero" d="M23.3682,15.995 C21.89,15.995 20.7001,17.185 20.7001,18.6631 L20.7001,81.3343 C20.7001,82.8125 21.89,84.0024 23.3682,84.0024 L76.6077,84.0024 C78.0859,84.0024 79.2758,82.8125 79.2758,81.3343 L79.2758,18.6631 C79.2758,17.185 78.0859,15.995 76.6077,15.995 L50.8905,15.995 C51.6703,16.0444 52.2838,16.6869 52.2838,17.4796 L52.2838,26.9112 C52.2838,27.7362 51.6196,28.4004 50.7946,28.4004 L49.3054,28.4004 C48.4804,28.4004 47.8161,27.7362 47.8161,26.9112 L47.8161,17.4796 C47.8161,16.6869 48.4298,16.0443 49.2096,15.995 L23.3682,15.995 M46.7613,35.2087 L53.2146,35.2087 C53.9021,35.2087 54.4556,35.7622 54.4556,36.4497 L54.4556,42.903 C54.4556,43.5906 53.9021,44.1439 53.2146,44.1439 L46.7613,44.1439 C46.0738,44.1439 45.5202,43.5906 45.5202,42.903 L45.5202,36.4497 C45.5202,35.7622 46.0738,35.2087 46.7613,35.2087 "/>
</g>

<g fill="#000000" fill-opacity="1" stroke="none" transform="matrix(0.228,0,0,0.228,11.6,25.6)"
font-family="Inter" font-size="11" font-weight="700" font-style="normal" 
>
<path vector-effect="none" fill-rule="evenodd" d="M14.2421,17.9523 C14.2421,17.1298 14.9088,16.4631 15.7313,16.4631 L18.7097,16.4631 C19.5322,16.4631 20.1989,17.1298 20.1989,17.9523 L20.1989,33.8372 C20.1989,34.6597 19.5322,35.3264 18.7097,35.3264 L15.7313,35.3264 C14.9088,35.3264 14.2421,34.6597 14.2421,33.8372 L14.2421,17.9523"/>
</g>

<g fill="none" stroke="#000000" stroke-opacity="1" stroke-width="2.43854" stroke-linecap="butt" stroke-linejoin="miter" stroke-miterlimit="4" transform="matrix(0.228,0,0,0.228,11.6,25.6)"
font-family="Inter" font-size="11" font-weight="700" font-style="normal" 
>
<path vector-effect="none" fill-rule="evenodd" d="M14.2421,17.9523 C14.2421,17.1298 14.9088,16.4631 15.7313,16.4631 L18.7097,16.4631 C19.5322,16.4631 20.1989,17.1298 20.1989,17.9523 L20.1989,33.8372 C20.1989,34.6597 19.5322,35.3264 18.7097,35.3264 L15.7313,35.3264 C14.9088,35.3264 14.2421,34.6597 14.2421,33.8372 L14.2421,17.9523"/>
</g>

<g fill="#000000" fill-opacity="1" stroke="none" transform="matrix(0.228,0,0,0.228,11.6,25.6)"
font-family="Inter" font-size="11" font-weight="700" font-style="normal" 
>
<path vector-effect="none" fill-rule="evenodd" d="M79.3249,17.4662 C79.3249,16.6438 79.9916,15.977 80.8141,15.977 L83.7925,15.977 C84.615,15.977 85.2817,16.6438 85.2817,17.4662 L85.2817,33.3512 C85.2817,34.1736 84.615,34.8404 83.7925,34.8404 L80.8141,34.8404 C79.9916,34.8404 79.3249,34.1736 79.3249,33.3512 L79.3249,17.4662"/>
</g>

<g fill="none" stroke="#000000" stroke-opacity="1" stroke-width="2.43854" stroke-linecap="butt" stroke-linejoin="miter" stroke-miterlimit="4" transform="matrix(0.228,0,0,0.228,11.6,25.6)"
font-family="Inter" font-size="11" font-weight="700" font-style="normal" 
>
<path vector-effect="none" fill-rule="evenodd" d="M79.3249,17.4662 C79.3249,16.6438 79.9916,15.977 80.8141,15.977 L83.7925,15.977 C84.615,15.977 85.2817,16.6438 85.2817,17.4662 L85.2817,33.3512 C85.2817,34.1736 84.615,34.8404 83.7925,34.8404 L80.8141,34.8404 C79.9916,34.8404 79.3249,34.1736 79.3249,33.3512 L79.3249,17.4662"/>
</g>

<g fill="#000000" fill-opacity="1" stroke="none" transform="matrix(0.228,0,0,0.228,11.6,25.6)"
font-family="Inter" font-size="11" font-weight="700" font-style="normal" 
>
<path vector-effect="none" fill-rule="evenodd" d="M79.5633,66.576 C79.5633,65.7535 80.23,65.0868 81.0525,65.0868 L84.0309,65.0868 C84.8534,65.0868 85.5201,65.7535 85.5201,66.576 L85.5201,82.4609 C85.5201,83.2834 84.8534,83.9501 84.0309,83.9501 L81.0525,83.9501 C80.23,83.9501 79.5633,83.2834 79.5633,82.4609 L79.5633,66.576"/>
</g>

<g fill="none" stroke="#000000" stroke-opacity="1" stroke-width="2.43854" stroke-linecap="butt" stroke-linejoin="miter" stroke-miterlimit="4" transform="matrix(0.228,0,0,0.228,11.6,25.6)"
font-family="Inter" font-size="11" font-weight="700" font-style="normal" 
>
<path vector-effect="none" fill-rule="evenodd" d="M79.5633,66.576 C79.5633,65.7535 80.23,65.0868 81.0525,65.0868 L84.0309,65.0868 C84.8534,65.0868 85.5201,65.7535 85.5201,66.576 L85.5201,82.4609 C85.5201,83.2834 84.8534,83.9501 84.0309,83.9501 L81.0525,83.9501 C80.23,83.9501 79.5633,83.2834 79.5633,82.4609 L79.5633,66.576"/>
</g>

<g fill="#000000" fill-opacity="1" stroke="none" transform="matrix(0.228,0,0,0.228,11.6,25.6)"
font-family="Inter" font-size="11" font-weight="700" font-style="normal" 
>
<path vector-effect="none" fill-rule="evenodd" d="M14.6928,66.6283 C14.6928,65.8058 15.3595,65.1391 16.182,65.1391 L19.1604,65.1391 C19.9829,65.1391 20.6496,65.8058 20.6496,66.6283 L20.6496,82.5132 C20.6496,83.3357 19.9829,84.0024 19.1604,84.0024 L16.182,84.0024 C15.3595,84.0024 14.6928,83.3357 14.6928,82.5132 L14.6928,66.6283"/>
</g>

<g fill="none" stroke="#000000" stroke-opacity="1" stroke-width="2.43854" stroke-linecap="butt" stroke-linejoin="miter" stroke-miterlimit="4" transform="matrix(0.228,0,0,0.228,11.6,25.6)"
font-family="Inter" font-size="11" font-weight="700" font-style="normal" 
>
<path vector-effect="none" fill-rule="evenodd" d="M14.6928,66.6283 C14.6928,65.8058 15.3595,65.1391 16.182,65.1391 L19.1604,65.1391 C19.9829,65.1391 20.6496,65.8058 20.6496,66.6283 L20.6496,82.5132 C20.6496,83.3357 19.9829,84.0024 19.1604,84.0024 L16.182,84.0024 C15.3595,84.0024 14.6928,83.3357 14.6928,82.5132 L14.6928,66.6283"/>
</g>

<g fill="none" stroke="#000000" stroke-opacity="1" stroke-width="2.43854" stroke-linecap="butt" stroke-linejoin="miter" stroke-miterlimit="4" transform="matrix(0.228,0,0,0.228,11.6,25.6)"
font-family="Inter" font-size="11" font-weight="700" font-style="normal" 
>
<path vector-effect="none" fill-rule="evenodd" d="M20.92,17.503 C20.92,16.6806 21.5867,16.0138 22.4092,16.0138 L27.125,16.0138 C27.9475,16.0138 28.6142,16.6806 28.6142,17.503 L28.6142,55.9743 C28.6142,56.7968 27.9475,57.4635 27.125,57.4635 L22.4092,57.4635 C21.5867,57.4635 20.92,56.7968 20.92,55.9743 L20.92,17.503"/>
</g>

<g fill="none" stroke="#000000" stroke-opacity="1" stroke-width="2.43854" stroke-linecap="butt" stroke-linejoin="miter" stroke-miterlimit="4" transform="matrix(0.228,0,0,0.228,11.6,25.6)"
font-family="Inter" font-size="11" font-weight="700" font-style="normal" 
>
<path vector-effect="none" fill-rule="evenodd" d="M71.4269,17.6638 C71.4269,16.8414 72.0937,16.1746 72.9162,16.1746 L77.632,16.1746 C78.4545,16.1746 79.1212,16.8414 79.1212,17.6638 L79.1212,56.1351 C79.1212,56.9576 78.4545,57.6243 77.632,57.6243 L72.9162,57.6243 C72.0937,57.6243 71.4269,56.9576 71.4269,56.1351 L71.4269,17.6638"/>
</g>

<g fill="#ffffff" fill-opacity="1" stroke="none" transform="matrix(0.228,0,0,0.228,11.6,25.6)"
font-family="Inter" font-size="11" font-weight="700" font-style="normal" 
>
<path vector-effect="none" fill-rule="evenodd" d="M41.9526,15.9757 C41.9526,15.9593 41.9659,15.9461 41.9822,15.9461 L57.922,15.9461 C57.9384,15.9461 57.9516,15.9593 57.9516,15.9757 C57.9516,15.992 57.9384,16.0053 57.922,16.0053 L41.9822,16.0053 C41.9659,16.0053 41.9526,15.992 41.9526,15.9757 "/>
</g>

<g fill="none" stroke="#000000" stroke-opacity="1" stroke-width="2.3865" stroke-linecap="butt" stroke-linejoin="miter" stroke-miterlimit="4" transform="matrix(0.228,0,0,0.228,11.6,25.6)"
font-family="Inter" font-size="11" font-weight="700" font-style="normal" 
>
<path vector-effect="none" fill-rule="evenodd" d="M41.9526,15.9757 C41.9526,15.9593 41.9659,15.9461 41.9822,15.9461 L57.922,15.9461 C57.9384,15.9461 57.9516,15.9593 57.9516,15.9757 C57.9516,15.992 57.9384,16.0053 57.922,16.0053 L41.9822,16.0053 C41.9659,16.0053 41.9526,15.992 41.9526,15.9757 "/>
</g>

<g fill="#ffffff" fill-opacity="1" stroke="none" transform="matrix(1,0,0,1,0,0)"
font-family="Inter" font-size="11" font-weight="700" font-style="normal" 
>
</g>

<g fill="#ffffff" fill-opacity="1" stroke="#ba9500" stroke-opacity="1" stroke-width="1" stroke-linecap="square" stroke-linejoin="bevel" transform="matrix(1,0,0,1,0,0)"
font-family="Inter" font-size="11" font-weight="700" font-style="normal" 
>
<polyline fill="none" vector-effect="none" points="45,27 45,47 " />
</g>

<g fill="#ffffff" fill-opacity="1" stroke="#ba9500" stroke-opacity="1" stroke-width="1" stroke-linecap="square" stroke-linejoin="bevel" transform="matrix(1,0,0,1,0,0)"
font-family="Inter" font-size="11" font-weight="700" font-style="normal" 
>
</g>

<g fill="#f5c400" fill-opacity="1" stroke="#ba9500" stroke-opacity="1" stroke-width="1.2" stroke-linecap="square" stroke-linejoin="bevel" transform="matrix(1,0,0,1,87,22)"
font-family="Inter" font-size="11" font-weight="700" font-style="normal" 
>
<path vector-effect="none" fill-rule="evenodd" d="M0.5,3.5 C0.5,1.84315 1.84315,0.5 3.5,0.5 L71.5,0.5 C73.1569,0.5 74.5,1.84315 74.5,3.5 L74.5,20.5 C74.5,22.1569 73.1569,23.5 71.5,23.5 L3.5,23.5 C1.84315,23.5 0.5,22.1569 0.5,20.5 L0.5,3.5"/>
</g>

<g fill="#ffffff" fill-opacity="1" stroke="none" transform="matrix(1,0,0,1,87,22)"
font-family="Inter" font-size="11" font-weight="700" font-style="normal" 
>
<path vector-effect="none" fill-rule="nonzero" d="M10,9.39453 L10,8 L16.5703,8 L16.5703,9.39453 L14.1211,9.39453 L14.1211,16 L12.4492,16 L12.4492,9.39453 L10,9.39453 M17.6484,16 L17.6484,8 L19.3398,8 L19.3398,11.3008 L22.7734,11.3008 L22.7734,8 L24.4609,8 L24.4609,16 L22.7734,16 L22.7734,12.6953 L19.3398,12.6953 L19.3398,16 L17.6484,16 M32.543,8 L32.543,16 L31.082,16 L27.6016,10.9648 L27.543,10.9648 L27.543,16 L25.8516,16 L25.8516,8 L27.3359,8 L30.7891,13.0313 L30.8594,13.0313 L30.8594,8 L32.543,8 M33.9297,16 L33.9297,8 L35.6211,8 L35.6211,11.3008 L39.0547,11.3008 L39.0547,8 L40.7422,8 L40.7422,16 L39.0547,16 L39.0547,12.6953 L35.6211,12.6953 L35.6211,16 L33.9297,16 M42.1328,16 L42.1328,8 L45.3359,8 C45.9245,8 46.4154,8.08724 46.8086,8.26172 C47.2018,8.4362 47.4974,8.67773 47.6953,8.98633 C47.8932,9.29492 47.9922,9.64974 47.9922,10.0508 C47.9922,10.3633 47.9297,10.6374 47.8047,10.873 C47.6797,11.1087 47.5085,11.3014 47.291,11.4512 C47.0736,11.6009 46.8255,11.707 46.5469,11.7695 L46.5469,11.8477 C46.8516,11.8607 47.1374,11.9466 47.4043,12.1055 C47.6712,12.2643 47.888,12.4863 48.0547,12.7715 C48.2214,13.0566 48.3047,13.3958 48.3047,13.7891 C48.3047,14.2135 48.1999,14.5918 47.9902,14.9238 C47.7806,15.2559 47.4714,15.5182 47.0625,15.7109 C46.6536,15.9036 46.1497,16 45.5508,16 L42.1328,16 M43.8242,14.6172 L45.2031,14.6172 C45.6745,14.6172 46.0182,14.5267 46.2344,14.3457 C46.4505,14.1647 46.5586,13.9232 46.5586,13.6211 C46.5586,13.3997 46.5052,13.2044 46.3984,13.0352 C46.2917,12.8659 46.14,12.7331 45.9434,12.6367 C45.7467,12.5404 45.513,12.4922 45.2422,12.4922 L43.8242,12.4922 L43.8242,14.6172 M43.8242,11.3477 L45.0781,11.3477 C45.3099,11.3477 45.5163,11.3066 45.6973,11.2246 C45.8783,11.1426 46.0215,11.026 46.127,10.875 C46.2324,10.724 46.2852,10.543 46.2852,10.332 C46.2852,10.043 46.1829,9.8099 45.9785,9.63281 C45.7741,9.45573 45.4844,9.36719 45.1094,9.36719 L43.8242,9.36719 L43.8242,11.3477 M52.832,8 L52.832,16 L51.1406,16 L51.1406,9.60547 L51.0938,9.60547 L49.2617,10.7539 L49.2617,9.25391 L51.2422,8 L52.832,8"/>
</g>

<g fill="#ffffff" fill-opacity="1" stroke="none" transform="matrix(0.03125,0,0,0.03125,148,30)"
font-family="Inter" font-size="11" font-weight="700" font-style="normal" 
>
<path vector-effect="none" fill-rule="nonzero" d="M111.326,191.938 C120.545,201.158 135.517,201.158 144.737,191.938 L239.144,97.5313 C245.929,90.7458 247.921,80.6413 244.233,71.7907 C240.545,62.9401 231.989,57.1871 222.401,57.1871 L33.5875,57.2608 C24.0731,57.2608 15.4437,63.0137 11.7559,71.8644 C8.06815,80.715 10.1333,90.8195 16.845,97.605 L111.252,192.012 L111.326,191.938"/>
</g>

<g fill="none" stroke="#000000" stroke-opacity="1" stroke-width="13.7195" stroke-linecap="butt" stroke-linejoin="miter" stroke-miterlimit="4" transform="matrix(0.03125,0,0,0.03125,148,30)"
font-family="Inter" font-size="11" font-weight="700" font-style="normal" 
>
<path vector-effect="none" fill-rule="nonzero" d="M111.326,191.938 C120.545,201.158 135.517,201.158 144.737,191.938 L239.144,97.5313 C245.929,90.7458 247.921,80.6413 244.233,71.7907 C240.545,62.9401 231.989,57.1871 222.401,57.1871 L33.5875,57.2608 C24.0731,57.2608 15.4437,63.0137 11.7559,71.8644 C8.06815,80.715 10.1333,90.8195 16.845,97.605 L111.252,192.012 L111.326,191.938"/>
</g>

<g fill="#ffffff" fill-opacity="1" stroke="none" transform="matrix(1,0,0,1,87,22)"
font-family="Inter" font-size="11" font-weight="700" font-style="normal" 
>
</g>

<g fill="#ffffff" fill-opacity="1" stroke="#ba9500" stroke-opacity="1" stroke-width="1" stroke-linecap="square" stroke-linejoin="bevel" transform="matrix(1,0,0,1,0,0)"
font-family="Inter" font-size="11" font-weight="700" font-style="normal" 
>
</g>

<g fill="none" stroke="#000000" stroke-opacity="1" stroke-width="1" stroke-linecap="square" stroke-linejoin="bevel" transform="matrix(1,0,0,1,0,0)"
font-family=".AppleSystemUIFont" font-size="13" font-weight="400" font-style="normal" 
>
</g>
</g>
</svg>
