<?xml version="1.0" encoding="UTF-8" standalone="no"?>
<svg width="69.85mm" height="11.2889mm"
 viewBox="0 0 198 32"
 xmlns="http://www.w3.org/2000/svg" xmlns:xlink="http://www.w3.org/1999/xlink" version="1.2" baseProfile="tiny">
<title>Abstract block</title>
<desc>block_sensors_device_tilt_sensor_data</desc>
<defs>
</defs>
<g fill="none" stroke="black" stroke-width="1" fill-rule="evenodd" stroke-linecap="square" stroke-linejoin="bevel" >

<g fill="none" stroke="#000000" stroke-opacity="1" stroke-width="1" stroke-linecap="square" stroke-linejoin="bevel" transform="matrix(1,0,0,1,0,0)"
font-family=".AppleSystemUIFont" font-size="13" font-weight="400" font-style="normal" 
>
</g>

<g fill="none" stroke="#000000" stroke-opacity="1" stroke-width="1" stroke-linecap="square" stroke-linejoin="bevel" transform="matrix(1,0,0,1,0,0)"
font-family=".AppleSystemUIFont" font-size="13" font-weight="400" font-style="normal" 
>
</g>

<g fill="#1dccf0" fill-opacity="1" stroke="#0da6c5" stroke-opacity="1" stroke-width="1.2" stroke-linecap="square" stroke-linejoin="bevel" transform="matrix(1,0,0,1,0,0)"
font-family=".AppleSystemUIFont" font-size="13" font-weight="400" font-style="normal" 
>
<path vector-effect="none" fill-rule="evenodd" d="M1,16 C1,7.71573 8.16344,1 17,1 L180.5,1 C189.337,1 196.5,7.71573 196.5,16 C196.5,24.2843 189.337,31 180.5,31 L17,31 C8.16344,31 1,24.2843 1,16 "/>
</g>

<g fill="#ffffff" fill-opacity="1" stroke="none" transform="matrix(1,0,0,1,0,0)"
font-family="Inter" font-size="11" font-weight="700" font-style="normal" 
>
<path vector-effect="none" fill-rule="nonzero" d="M54.2969,20.0977 C53.8411,20.0977 53.429,19.9798 53.0605,19.7441 C52.6921,19.5085 52.4004,19.1608 52.1855,18.7012 C51.9707,18.2415 51.8633,17.6771 51.8633,17.0078 C51.8633,16.3203 51.974,15.748 52.1953,15.291 C52.4167,14.834 52.7116,14.4915 53.0801,14.2637 C53.4486,14.0358 53.8529,13.9219 54.293,13.9219 C54.6289,13.9219 54.9095,13.9785 55.1348,14.0918 C55.36,14.2051 55.5423,14.3457 55.6816,14.5137 C55.821,14.6816 55.9271,14.8464 56,15.0078 L56.0508,15.0078 L56.0508,12 L57.7109,12 L57.7109,20 L56.0703,20 L56.0703,19.0391 L56,19.0391 C55.9219,19.2057 55.8118,19.3704 55.6699,19.5332 C55.528,19.696 55.3444,19.8307 55.1191,19.9375 C54.8939,20.0443 54.6198,20.0977 54.2969,20.0977 M54.8242,18.7734 C55.0924,18.7734 55.3197,18.6999 55.5059,18.5527 C55.6921,18.4056 55.8353,18.1992 55.9355,17.9336 C56.0358,17.668 56.0859,17.3568 56.0859,17 C56.0859,16.6432 56.0365,16.3333 55.9375,16.0703 C55.8385,15.8073 55.6953,15.6042 55.5078,15.4609 C55.3203,15.3177 55.0924,15.2461 54.8242,15.2461 C54.5508,15.2461 54.3203,15.3203 54.1328,15.4688 C53.9453,15.6172 53.8034,15.8229 53.707,16.0859 C53.6107,16.349 53.5625,16.6536 53.5625,17 C53.5625,17.349 53.6113,17.6569 53.709,17.9238 C53.8066,18.1908 53.9486,18.3991 54.1348,18.5488 C54.321,18.6986 54.5508,18.7734 54.8242,18.7734 M61.8047,20.1172 C61.1875,20.1172 60.6569,19.9915 60.2129,19.7402 C59.7689,19.4889 59.4271,19.1322 59.1875,18.6699 C58.9479,18.2077 58.8281,17.6602 58.8281,17.0273 C58.8281,16.4102 58.9479,15.8685 59.1875,15.4023 C59.4271,14.9362 59.765,14.5729 60.2012,14.3125 C60.6374,14.0521 61.1497,13.9219 61.7383,13.9219 C62.1341,13.9219 62.5033,13.985 62.8457,14.1113 C63.1882,14.2376 63.4876,14.4271 63.7441,14.6797 C64.0007,14.9323 64.2005,15.2493 64.3438,15.6309 C64.487,16.0124 64.5586,16.4583 64.5586,16.9688 L64.5586,17.4258 L59.4922,17.4258 L59.4922,16.3945 L62.9922,16.3945 C62.9922,16.1549 62.9401,15.9427 62.8359,15.7578 C62.7318,15.5729 62.5879,15.4277 62.4043,15.3223 C62.2207,15.2168 62.0078,15.1641 61.7656,15.1641 C61.513,15.1641 61.2897,15.222 61.0957,15.3379 C60.9017,15.4538 60.75,15.6087 60.6406,15.8027 C60.5313,15.9967 60.4753,16.2122 60.4727,16.4492 L60.4727,17.4297 C60.4727,17.7266 60.528,17.9831 60.6387,18.1992 C60.7493,18.4154 60.9063,18.582 61.1094,18.6992 C61.3125,18.8164 61.5534,18.875 61.832,18.875 C62.0169,18.875 62.1862,18.849 62.3398,18.7969 C62.4935,18.7448 62.625,18.6667 62.7344,18.5625 C62.8438,18.4583 62.9271,18.3307 62.9844,18.1797 L64.5234,18.2813 C64.4453,18.651 64.2858,18.9733 64.0449,19.248 C63.804,19.5228 63.4941,19.7363 63.1152,19.8887 C62.7363,20.041 62.2995,20.1172 61.8047,20.1172 M71.0547,14 L68.957,20 L67.082,20 L64.9844,14 L66.7422,14 L67.9883,18.293 L68.0508,18.293 L69.293,14 L71.0547,14 M71.8984,20 L71.8984,14 L73.5625,14 L73.5625,20 L71.8984,20 M72.7344,13.2266 C72.487,13.2266 72.2754,13.1439 72.0996,12.9785 C71.9238,12.8132 71.8359,12.6146 71.8359,12.3828 C71.8359,12.1536 71.9238,11.9564 72.0996,11.791 C72.2754,11.6257 72.487,11.543 72.7344,11.543 C72.9818,11.543 73.1934,11.6257 73.3691,11.791 C73.5449,11.9564 73.6328,12.1536 73.6328,12.3828 C73.6328,12.6146 73.5449,12.8132 73.3691,12.9785 C73.1934,13.1439 72.9818,13.2266 72.7344,13.2266 M77.5938,20.1172 C76.9792,20.1172 76.4512,19.9863 76.0098,19.7246 C75.5684,19.4629 75.2298,19.099 74.9941,18.6328 C74.7585,18.1667 74.6406,17.6302 74.6406,17.0234 C74.6406,16.4089 74.7598,15.8691 74.998,15.4043 C75.2363,14.9395 75.5755,14.5762 76.0156,14.3145 C76.4557,14.0527 76.9792,13.9219 77.5859,13.9219 C78.1094,13.9219 78.5677,14.0169 78.9609,14.207 C79.3542,14.3971 79.6654,14.6641 79.8945,15.0078 C80.1237,15.3516 80.25,15.7552 80.2734,16.2188 L78.7031,16.2188 C78.6589,15.9193 78.5423,15.6777 78.3535,15.4941 C78.1647,15.3105 77.918,15.2188 77.6133,15.2188 C77.3555,15.2188 77.1309,15.2884 76.9395,15.4277 C76.748,15.5671 76.599,15.7695 76.4922,16.0352 C76.3854,16.3008 76.332,16.6224 76.332,17 C76.332,17.3828 76.3848,17.7083 76.4902,17.9766 C76.5957,18.2448 76.7448,18.4492 76.9375,18.5898 C77.1302,18.7305 77.3555,18.8008 77.6133,18.8008 C77.8034,18.8008 77.9746,18.7617 78.127,18.6836 C78.2793,18.6055 78.4056,18.4915 78.5059,18.3418 C78.6061,18.1921 78.6719,18.0117 78.7031,17.8008 L80.2734,17.8008 C80.2474,18.2591 80.123,18.6621 79.9004,19.0098 C79.6777,19.3574 79.3711,19.6289 78.9805,19.8242 C78.5898,20.0195 78.1276,20.1172 77.5938,20.1172 M84.0703,20.1172 C83.4531,20.1172 82.9225,19.9915 82.4785,19.7402 C82.0345,19.4889 81.6927,19.1322 81.4531,18.6699 C81.2135,18.2077 81.0938,17.6602 81.0938,17.0273 C81.0938,16.4102 81.2135,15.8685 81.4531,15.4023 C81.6927,14.9362 82.0306,14.5729 82.4668,14.3125 C82.903,14.0521 83.4154,13.9219 84.0039,13.9219 C84.3997,13.9219 84.7689,13.985 85.1113,14.1113 C85.4538,14.2376 85.7533,14.4271 86.0098,14.6797 C86.2663,14.9323 86.4661,15.2493 86.6094,15.6309 C86.7526,16.0124 86.8242,16.4583 86.8242,16.9688 L86.8242,17.4258 L81.7578,17.4258 L81.7578,16.3945 L85.2578,16.3945 C85.2578,16.1549 85.2057,15.9427 85.1016,15.7578 C84.9974,15.5729 84.8535,15.4277 84.6699,15.3223 C84.4863,15.2168 84.2734,15.1641 84.0313,15.1641 C83.7786,15.1641 83.5553,15.222 83.3613,15.3379 C83.1673,15.4538 83.0156,15.6087 82.9063,15.8027 C82.7969,15.9967 82.7409,16.2122 82.7383,16.4492 L82.7383,17.4297 C82.7383,17.7266 82.7936,17.9831 82.9043,18.1992 C83.015,18.4154 83.1719,18.582 83.375,18.6992 C83.5781,18.8164 83.819,18.875 84.0977,18.875 C84.2826,18.875 84.4518,18.849 84.6055,18.7969 C84.7591,18.7448 84.8906,18.6667 85,18.5625 C85.1094,18.4583 85.1927,18.3307 85.25,18.1797 L86.7891,18.2813 C86.7109,18.651 86.5514,18.9733 86.3105,19.248 C86.0697,19.5228 85.7598,19.7363 85.3809,19.8887 C85.002,20.041 84.5651,20.1172 84.0703,20.1172 "/>
</g>

<g fill="#ffffff" fill-opacity="1" stroke="none" transform="matrix(1,0,0,1,0,0)"
font-family="Inter" font-size="11" font-weight="700" font-style="normal" 
>
<path vector-effect="none" fill-rule="nonzero" d="M158.328,18.8789 C157.945,18.8789 157.604,18.8118 157.305,18.6777 C157.005,18.5436 156.769,18.3444 156.596,18.0801 C156.423,17.8158 156.336,17.4857 156.336,17.0898 C156.336,16.7565 156.397,16.4766 156.52,16.25 C156.642,16.0234 156.809,15.8411 157.02,15.7031 C157.23,15.5651 157.471,15.4609 157.74,15.3906 C158.01,15.3203 158.293,15.2708 158.59,15.2422 C158.939,15.2057 159.22,15.1712 159.434,15.1387 C159.647,15.1061 159.802,15.0573 159.898,14.9922 C159.995,14.9271 160.043,14.8307 160.043,14.7031 L160.043,14.6797 C160.043,14.4323 159.965,14.2409 159.811,14.1055 C159.656,13.9701 159.436,13.9023 159.152,13.9023 C158.853,13.9023 158.615,13.9681 158.438,14.0996 C158.26,14.2311 158.143,14.3958 158.086,14.5938 L156.547,14.4688 C156.625,14.1042 156.779,13.7884 157.008,13.5215 C157.237,13.2546 157.533,13.0488 157.896,12.9043 C158.26,12.7598 158.681,12.6875 159.16,12.6875 C159.493,12.6875 159.813,12.7266 160.119,12.8047 C160.425,12.8828 160.697,13.0039 160.936,13.168 C161.174,13.332 161.362,13.5423 161.5,13.7988 C161.638,14.0553 161.707,14.362 161.707,14.7188 L161.707,18.7656 L160.129,18.7656 L160.129,17.9336 L160.082,17.9336 C159.986,18.1211 159.857,18.2858 159.695,18.4277 C159.534,18.5697 159.34,18.6803 159.113,18.7598 C158.887,18.8392 158.625,18.8789 158.328,18.8789 M158.805,17.7305 C159.049,17.7305 159.266,17.6816 159.453,17.584 C159.641,17.4863 159.788,17.3542 159.895,17.1875 C160.001,17.0208 160.055,16.832 160.055,16.6211 L160.055,15.9844 C160.003,16.0182 159.932,16.0488 159.842,16.0762 C159.752,16.1035 159.651,16.1283 159.539,16.1504 C159.427,16.1725 159.315,16.1921 159.203,16.209 C159.091,16.2259 158.99,16.2409 158.898,16.2539 C158.703,16.2826 158.533,16.3281 158.387,16.3906 C158.241,16.4531 158.128,16.5371 158.047,16.6426 C157.966,16.748 157.926,16.8789 157.926,17.0352 C157.926,17.2617 158.008,17.4342 158.174,17.5527 C158.339,17.6712 158.549,17.7305 158.805,17.7305 M164.656,15.2969 L164.656,18.7656 L162.992,18.7656 L162.992,12.7656 L164.578,12.7656 L164.578,13.8242 L164.648,13.8242 C164.781,13.4753 165.004,13.1986 165.316,12.9941 C165.629,12.7897 166.008,12.6875 166.453,12.6875 C166.87,12.6875 167.233,12.7786 167.543,12.9609 C167.853,13.1432 168.094,13.403 168.266,13.7402 C168.438,14.0775 168.523,14.4792 168.523,14.9453 L168.523,18.7656 L166.859,18.7656 L166.859,15.2422 C166.862,14.875 166.768,14.5879 166.578,14.3809 C166.388,14.1738 166.126,14.0703 165.793,14.0703 C165.569,14.0703 165.372,14.1185 165.201,14.2148 C165.031,14.3112 164.898,14.4512 164.803,14.6348 C164.708,14.8184 164.659,15.0391 164.656,15.2969 M172.523,21.1406 C171.984,21.1406 171.523,21.0671 171.139,20.9199 C170.755,20.7728 170.449,20.5729 170.223,20.3203 C169.996,20.0677 169.849,19.7839 169.781,19.4688 L171.32,19.2617 C171.367,19.3815 171.441,19.4935 171.543,19.5977 C171.645,19.7018 171.779,19.7858 171.947,19.8496 C172.115,19.9134 172.32,19.9453 172.563,19.9453 C172.924,19.9453 173.223,19.8574 173.459,19.6816 C173.695,19.5059 173.813,19.2122 173.813,18.8008 L173.813,17.7031 L173.742,17.7031 C173.669,17.8698 173.56,18.0273 173.414,18.1758 C173.268,18.3242 173.081,18.4453 172.852,18.5391 C172.622,18.6328 172.349,18.6797 172.031,18.6797 C171.581,18.6797 171.171,18.5749 170.803,18.3652 C170.434,18.1556 170.141,17.834 169.924,17.4004 C169.706,16.9668 169.598,16.418 169.598,15.7539 C169.598,15.0742 169.708,14.5065 169.93,14.0508 C170.151,13.5951 170.446,13.2539 170.814,13.0273 C171.183,12.8008 171.587,12.6875 172.027,12.6875 C172.363,12.6875 172.645,12.7441 172.871,12.8574 C173.098,12.9707 173.281,13.1113 173.42,13.2793 C173.559,13.4473 173.667,13.612 173.742,13.7734 L173.805,13.7734 L173.805,12.7656 L175.457,12.7656 L175.457,18.8242 C175.457,19.3346 175.332,19.7617 175.082,20.1055 C174.832,20.4492 174.486,20.7077 174.045,20.8809 C173.604,21.054 173.096,21.1406 172.523,21.1406 M172.559,17.4297 C172.827,17.4297 173.054,17.3626 173.24,17.2285 C173.426,17.0944 173.57,16.9017 173.67,16.6504 C173.77,16.3991 173.82,16.0977 173.82,15.7461 C173.82,15.3945 173.771,15.0892 173.672,14.8301 C173.573,14.571 173.43,14.3698 173.242,14.2266 C173.055,14.0833 172.827,14.0117 172.559,14.0117 C172.285,14.0117 172.055,14.0853 171.867,14.2324 C171.68,14.3796 171.538,14.5833 171.441,14.8438 C171.345,15.1042 171.297,15.4049 171.297,15.7461 C171.297,16.0924 171.346,16.3913 171.443,16.6426 C171.541,16.8939 171.683,17.0879 171.869,17.2246 C172.055,17.3613 172.285,17.4297 172.559,17.4297 M178.438,10.7656 L178.438,18.7656 L176.773,18.7656 L176.773,10.7656 L178.438,10.7656 M182.492,18.8828 C181.875,18.8828 181.344,18.7572 180.9,18.5059 C180.456,18.2546 180.115,17.8978 179.875,17.4355 C179.635,16.9733 179.516,16.4258 179.516,15.793 C179.516,15.1758 179.635,14.6341 179.875,14.168 C180.115,13.7018 180.452,13.3385 180.889,13.0781 C181.325,12.8177 181.837,12.6875 182.426,12.6875 C182.822,12.6875 183.191,12.7507 183.533,12.877 C183.876,13.0033 184.175,13.1927 184.432,13.4453 C184.688,13.6979 184.888,14.015 185.031,14.3965 C185.174,14.778 185.246,15.224 185.246,15.7344 L185.246,16.1914 L180.18,16.1914 L180.18,15.1602 L183.68,15.1602 C183.68,14.9206 183.628,14.7083 183.523,14.5234 C183.419,14.3385 183.275,14.1934 183.092,14.0879 C182.908,13.9824 182.695,13.9297 182.453,13.9297 C182.201,13.9297 181.977,13.9876 181.783,14.1035 C181.589,14.2194 181.438,14.3743 181.328,14.5684 C181.219,14.7624 181.163,14.9779 181.16,15.2148 L181.16,16.1953 C181.16,16.4922 181.215,16.7487 181.326,16.9648 C181.437,17.181 181.594,17.3477 181.797,17.4648 C182,17.582 182.241,17.6406 182.52,17.6406 C182.704,17.6406 182.874,17.6146 183.027,17.5625 C183.181,17.5104 183.313,17.4323 183.422,17.3281 C183.531,17.224 183.615,17.0964 183.672,16.9453 L185.211,17.0469 C185.133,17.4167 184.973,17.7389 184.732,18.0137 C184.492,18.2884 184.182,18.502 183.803,18.6543 C183.424,18.8066 182.987,18.8828 182.492,18.8828 "/>
</g>

<g fill="#ffffff" fill-opacity="1" stroke="none" transform="matrix(0.875,0,0,0.875,12.5,5.5)"
font-family="Inter" font-size="11" font-weight="700" font-style="normal" 
>
<path vector-effect="none" fill-rule="nonzero" d="M19.3477,2.17556 C19.3477,1.1655 18.5345,0.352295 17.5245,0.352295 L15.421,0.352295 C15.3967,0.978115 14.8864,1.65501 14.2544,1.65501 L9.74561,1.65501 C9.11363,1.65501 8.60331,0.978115 8.579,0.352295 L6.47555,0.352295 C5.46549,0.352295 4.65234,1.1655 4.65234,2.17556 L4.65234,21.8245 C4.65234,22.8346 5.46549,23.6477 6.47555,23.6477 L17.5245,23.6477 C18.5345,23.6477 19.3477,22.8346 19.3477,21.8245 L19.3477,2.17556"/>
</g>

<g fill="none" stroke="#000000" stroke-opacity="1" stroke-width="0.54" stroke-linecap="butt" stroke-linejoin="miter" stroke-miterlimit="4" transform="matrix(0.875,0,0,0.875,12.5,5.5)"
font-family="Inter" font-size="11" font-weight="700" font-style="normal" 
>
<path vector-effect="none" fill-rule="nonzero" d="M19.3477,2.17556 C19.3477,1.1655 18.5345,0.352295 17.5245,0.352295 L15.421,0.352295 C15.3967,0.978115 14.8864,1.65501 14.2544,1.65501 L9.74561,1.65501 C9.11363,1.65501 8.60331,0.978115 8.579,0.352295 L6.47555,0.352295 C5.46549,0.352295 4.65234,1.1655 4.65234,2.17556 L4.65234,21.8245 C4.65234,22.8346 5.46549,23.6477 6.47555,23.6477 L17.5245,23.6477 C18.5345,23.6477 19.3477,22.8346 19.3477,21.8245 L19.3477,2.17556"/>
</g>

<g fill="#000000" fill-opacity="1" stroke="none" transform="matrix(0.875,0,0,0.875,12.5,5.5)"
font-family="Inter" font-size="11" font-weight="700" font-style="normal" 
>
<path vector-effect="none" fill-rule="nonzero" d="M8.55279,0.0832003 L15.2156,0.078175 L15.1496,1.19313 L14.4976,1.7259 L10.969,1.6815 L9.31986,1.6371 L8.82126,1.01554 L8.55279,0.0832003"/>
</g>

<g fill="#000000" fill-opacity="1" stroke="none" transform="matrix(0.875,0,0,0.875,12.5,5.5)"
font-family="Inter" font-size="11" font-weight="700" font-style="normal" 
>
<path vector-effect="none" fill-rule="evenodd" d="M6.11071,8.3594 C6.11071,7.88539 6.49497,7.50113 6.96898,7.50113 L8.25014,7.50113 C8.72415,7.50113 9.10842,7.88539 9.10842,8.3594 L9.10842,9.64056 C9.10842,10.1146 8.72415,10.4988 8.25014,10.4988 L6.96898,10.4988 C6.49497,10.4988 6.11071,10.1146 6.11071,9.64056 L6.11071,8.3594"/>
</g>

<g fill="#000000" fill-opacity="1" stroke="none" transform="matrix(0.875,0,0,0.875,12.5,5.5)"
font-family="Inter" font-size="11" font-weight="700" font-style="normal" 
>
<path vector-effect="none" fill-rule="evenodd" d="M10.5496,8.3594 C10.5496,7.88539 10.9339,7.50113 11.4079,7.50113 L12.6891,7.50113 C13.1631,7.50113 13.5473,7.88539 13.5473,8.3594 L13.5473,9.64056 C13.5473,10.1146 13.1631,10.4988 12.6891,10.4988 L11.4079,10.4988 C10.9339,10.4988 10.5496,10.1146 10.5496,9.64056 L10.5496,8.3594"/>
</g>

<g fill="#000000" fill-opacity="1" stroke="none" transform="matrix(0.875,0,0,0.875,12.5,5.5)"
font-family="Inter" font-size="11" font-weight="700" font-style="normal" 
>
<path vector-effect="none" fill-rule="evenodd" d="M15.0174,8.35023 C15.0174,7.87622 15.4016,7.49196 15.8756,7.49196 L17.1568,7.49196 C17.6308,7.49196 18.0151,7.87622 18.0151,8.35023 L18.0151,9.63139 C18.0151,10.1054 17.6308,10.4897 17.1568,10.4897 L15.8756,10.4897 C15.4016,10.4897 15.0174,10.1054 15.0174,9.63139 L15.0174,8.35023"/>
</g>

<g fill="#000000" fill-opacity="1" stroke="none" transform="matrix(0.875,0,0,0.875,12.5,5.5)"
font-family="Inter" font-size="11" font-weight="700" font-style="normal" 
>
<path vector-effect="none" fill-rule="evenodd" d="M6.0963,12.6784 C6.0963,12.2044 6.48056,11.8202 6.95457,11.8202 L8.23573,11.8202 C8.70974,11.8202 9.094,12.2044 9.094,12.6784 L9.094,13.9596 C9.094,14.4336 8.70974,14.8179 8.23573,14.8179 L6.95457,14.8179 C6.48056,14.8179 6.0963,14.4336 6.0963,13.9596 L6.0963,12.6784"/>
</g>

<g fill="#000000" fill-opacity="1" stroke="none" transform="matrix(0.875,0,0,0.875,12.5,5.5)"
font-family="Inter" font-size="11" font-weight="700" font-style="normal" 
>
<path vector-effect="none" fill-rule="evenodd" d="M10.5352,12.6784 C10.5352,12.2044 10.9195,11.8202 11.3935,11.8202 L12.6746,11.8202 C13.1487,11.8202 13.5329,12.2044 13.5329,12.6784 L13.5329,13.9596 C13.5329,14.4336 13.1487,14.8179 12.6746,14.8179 L11.3935,14.8179 C10.9195,14.8179 10.5352,14.4336 10.5352,13.9596 L10.5352,12.6784"/>
</g>

<g fill="#000000" fill-opacity="1" stroke="none" transform="matrix(0.875,0,0,0.875,12.5,5.5)"
font-family="Inter" font-size="11" font-weight="700" font-style="normal" 
>
<path vector-effect="none" fill-rule="evenodd" d="M15.0029,12.6693 C15.0029,12.1952 15.3872,11.811 15.8612,11.811 L17.1424,11.811 C17.6164,11.811 18.0007,12.1952 18.0007,12.6693 L18.0007,13.9504 C18.0007,14.4244 17.6164,14.8087 17.1424,14.8087 L15.8612,14.8087 C15.3872,14.8087 15.0029,14.4244 15.0029,13.9504 L15.0029,12.6693"/>
</g>

<g fill="#000000" fill-opacity="1" stroke="none" transform="matrix(0.875,0,0,0.875,12.5,5.5)"
font-family="Inter" font-size="11" font-weight="700" font-style="normal" 
>
<path vector-effect="none" fill-rule="evenodd" d="M6.08909,20.0932 C6.08909,19.6192 6.47335,19.2349 6.94737,19.2349 L8.22852,19.2349 C8.70253,19.2349 9.0868,19.6192 9.0868,20.0932 L9.0868,21.3744 C9.0868,21.8484 8.70253,22.2326 8.22852,22.2326 L6.94737,22.2326 C6.47335,22.2326 6.08909,21.8484 6.08909,21.3744 L6.08909,20.0932"/>
</g>

<g fill="#000000" fill-opacity="1" stroke="none" transform="matrix(0.875,0,0,0.875,12.5,5.5)"
font-family="Inter" font-size="11" font-weight="700" font-style="normal" 
>
<path vector-effect="none" fill-rule="evenodd" d="M10.528,20.0932 C10.528,19.6192 10.9123,19.2349 11.3863,19.2349 L12.6674,19.2349 C13.1414,19.2349 13.5257,19.6192 13.5257,20.0932 L13.5257,21.3744 C13.5257,21.8484 13.1414,22.2326 12.6674,22.2326 L11.3863,22.2326 C10.9123,22.2326 10.528,21.8484 10.528,21.3744 L10.528,20.0932"/>
</g>

<g fill="#000000" fill-opacity="1" stroke="none" transform="matrix(0.875,0,0,0.875,12.5,5.5)"
font-family="Inter" font-size="11" font-weight="700" font-style="normal" 
>
<path vector-effect="none" fill-rule="evenodd" d="M14.9957,20.084 C14.9957,19.61 15.38,19.2258 15.854,19.2258 L17.1352,19.2258 C17.6092,19.2258 17.9934,19.61 17.9934,20.084 L17.9934,21.3652 C17.9934,21.8392 17.6092,22.2235 17.1352,22.2235 L15.854,22.2235 C15.38,22.2235 14.9957,21.8392 14.9957,21.3652 L14.9957,20.084"/>
</g>

<g fill="#000000" fill-opacity="1" stroke="none" transform="matrix(0.875,0,0,0.875,12.5,5.5)"
font-family="Inter" font-size="11" font-weight="700" font-style="normal" 
>
<path vector-effect="none" fill-rule="evenodd" d="M6.0963,3.97357 C6.0963,3.49956 6.48056,3.1153 6.95457,3.1153 L8.23573,3.1153 C8.70974,3.1153 9.094,3.49956 9.094,3.97357 L9.094,5.25473 C9.094,5.72874 8.70974,6.11301 8.23573,6.11301 L6.95457,6.11301 C6.48056,6.11301 6.0963,5.72874 6.0963,5.25473 L6.0963,3.97357"/>
</g>

<g fill="#000000" fill-opacity="1" stroke="none" transform="matrix(0.875,0,0,0.875,12.5,5.5)"
font-family="Inter" font-size="11" font-weight="700" font-style="normal" 
>
<path vector-effect="none" fill-rule="evenodd" d="M10.5352,3.97357 C10.5352,3.49956 10.9195,3.1153 11.3935,3.1153 L12.6746,3.1153 C13.1487,3.1153 13.5329,3.49956 13.5329,3.97357 L13.5329,5.25473 C13.5329,5.72874 13.1487,6.11301 12.6746,6.11301 L11.3935,6.11301 C10.9195,6.11301 10.5352,5.72874 10.5352,5.25473 L10.5352,3.97357"/>
</g>

<g fill="#000000" fill-opacity="1" stroke="none" transform="matrix(0.875,0,0,0.875,12.5,5.5)"
font-family="Inter" font-size="11" font-weight="700" font-style="normal" 
>
<path vector-effect="none" fill-rule="evenodd" d="M15.0029,3.9644 C15.0029,3.49039 15.3872,3.10613 15.8612,3.10613 L17.1424,3.10613 C17.6164,3.10613 18.0007,3.49039 18.0007,3.9644 L18.0007,5.24556 C18.0007,5.71957 17.6164,6.10383 17.1424,6.10383 L15.8612,6.10383 C15.3872,6.10383 15.0029,5.71957 15.0029,5.24556 L15.0029,3.9644"/>
</g>

<g fill="#000000" fill-opacity="1" stroke="none" transform="matrix(0.875,0,0,0.875,12.1889,9.91)"
font-family="Inter" font-size="11" font-weight="700" font-style="normal" 
>
<path vector-effect="none" fill-rule="nonzero" d="M11.5955,12 C11.5955,12.1541 11.4706,12.2791 11.3165,12.2791 C11.1624,12.2791 11.0374,12.1542 11.0374,12 C11.0374,11.8459 11.1623,11.721 11.3164,11.7209 C11.4705,11.7209 11.5955,11.8458 11.5955,11.9999 "/>
</g>

<g fill="#000000" fill-opacity="1" stroke="none" transform="matrix(0.875,0,0,0.875,12.1889,9.91)"
font-family="Inter" font-size="11" font-weight="700" font-style="normal" 
>
<path vector-effect="none" fill-rule="nonzero" d="M12.9831,12 C12.9831,12.1541 12.8581,12.2791 12.704,12.2791 C12.5499,12.2791 12.425,12.1542 12.4249,12 C12.4249,11.8459 12.5498,11.721 12.7039,11.7209 C12.8581,11.7209 12.983,11.8458 12.9831,11.9999 "/>
</g>

<g fill="#000000" fill-opacity="1" stroke="none" transform="matrix(0.875,0,0,0.875,12.1889,9.91)"
font-family="Inter" font-size="11" font-weight="700" font-style="normal" 
>
<path vector-effect="none" fill-rule="nonzero" d="M13.6738,12 C13.6738,12.1541 13.5488,12.2791 13.3947,12.2791 C13.2406,12.2791 13.1156,12.1542 13.1156,12 C13.1156,11.8459 13.2405,11.721 13.3946,11.7209 C13.5487,11.7209 13.6737,11.8458 13.6738,11.9999 "/>
</g>

<g fill="#000000" fill-opacity="1" stroke="none" transform="matrix(0.875,0,0,0.875,12.1889,9.91)"
font-family="Inter" font-size="11" font-weight="700" font-style="normal" 
>
<path vector-effect="none" fill-rule="nonzero" d="M12.2791,12 C12.2791,12.1541 12.1541,12.2791 12,12.2791 C11.8459,12.2791 11.7209,12.1542 11.7209,12 C11.7209,11.8459 11.8458,11.721 11.9999,11.7209 C12.1541,11.7209 12.279,11.8458 12.2791,11.9999 "/>
</g>

<g fill="#ffffff" fill-opacity="1" stroke="none" transform="matrix(1,0,0,1,0,0)"
font-family="Inter" font-size="11" font-weight="700" font-style="normal" 
>
</g>

<g fill="#ffffff" fill-opacity="1" stroke="#0da6c5" stroke-opacity="1" stroke-width="1" stroke-linecap="square" stroke-linejoin="bevel" transform="matrix(1,0,0,1,0,0)"
font-family="Inter" font-size="11" font-weight="700" font-style="normal" 
>
<polyline fill="none" vector-effect="none" points="45,6 45,26 " />
</g>

<g fill="#1dccf0" fill-opacity="1" stroke="#0da6c5" stroke-opacity="1" stroke-width="1.2" stroke-linecap="square" stroke-linejoin="bevel" transform="matrix(1,0,0,1,93,4)"
font-family="Inter" font-size="11" font-weight="700" font-style="normal" 
>
<path vector-effect="none" fill-rule="evenodd" d="M0.5,3.5 C0.5,1.84315 1.84315,0.5 3.5,0.5 L54,0.5 C55.6569,0.5 57,1.84315 57,3.5 L57,20.5 C57,22.1569 55.6569,23.5 54,23.5 L3.5,23.5 C1.84315,23.5 0.5,22.1569 0.5,20.5 L0.5,3.5"/>
</g>

<g fill="#ffffff" fill-opacity="1" stroke="none" transform="matrix(1,0,0,1,93,4)"
font-family="Inter" font-size="11" font-weight="700" font-style="normal" 
>
<path vector-effect="none" fill-rule="nonzero" d="M8.50781,17.3125 L8.50781,9.0625 L10.1484,9.0625 L10.1484,10.0703 L10.2227,10.0703 C10.2956,9.90885 10.4017,9.74414 10.541,9.57617 C10.6803,9.4082 10.8626,9.26758 11.0879,9.1543 C11.3132,9.04102 11.5938,8.98438 11.9297,8.98438 C12.3672,8.98438 12.7708,9.09831 13.1406,9.32617 C13.5104,9.55404 13.806,9.89648 14.0273,10.3535 C14.2487,10.8105 14.3594,11.3828 14.3594,12.0703 C14.3594,12.7396 14.252,13.304 14.0371,13.7637 C13.8223,14.2233 13.5306,14.571 13.1621,14.8066 C12.7936,15.0423 12.3815,15.1602 11.9258,15.1602 C11.6029,15.1602 11.3288,15.1068 11.1035,15 C10.8783,14.8932 10.694,14.7585 10.5508,14.5957 C10.4076,14.4329 10.2982,14.2682 10.2227,14.1016 L10.1719,14.1016 L10.1719,17.3125 L8.50781,17.3125 M10.1367,12.0625 C10.1367,12.4193 10.1862,12.7305 10.2852,12.9961 C10.3841,13.2617 10.5273,13.4681 10.7148,13.6152 C10.9023,13.7624 11.1302,13.8359 11.3984,13.8359 C11.6693,13.8359 11.8984,13.7611 12.0859,13.6113 C12.2734,13.4616 12.416,13.2533 12.5137,12.9863 C12.6113,12.7194 12.6602,12.4115 12.6602,12.0625 C12.6602,11.7161 12.612,11.4115 12.5156,11.1484 C12.4193,10.8854 12.2773,10.6797 12.0898,10.5313 C11.9023,10.3828 11.6719,10.3086 11.3984,10.3086 C11.1276,10.3086 10.8991,10.3802 10.7129,10.5234 C10.5267,10.6667 10.3841,10.8698 10.2852,11.1328 C10.1862,11.3958 10.1367,11.7057 10.1367,12.0625 M15.4609,15.0625 L15.4609,9.0625 L17.125,9.0625 L17.125,15.0625 L15.4609,15.0625 M16.2969,8.28906 C16.0495,8.28906 15.8379,8.20638 15.6621,8.04102 C15.4863,7.87565 15.3984,7.67708 15.3984,7.44531 C15.3984,7.21615 15.4863,7.01888 15.6621,6.85352 C15.8379,6.68815 16.0495,6.60547 16.2969,6.60547 C16.5443,6.60547 16.7559,6.68815 16.9316,6.85352 C17.1074,7.01888 17.1953,7.21615 17.1953,7.44531 C17.1953,7.67708 17.1074,7.87565 16.9316,8.04102 C16.7559,8.20638 16.5443,8.28906 16.2969,8.28906 M21.6367,9.0625 L21.6367,10.3125 L18.0234,10.3125 L18.0234,9.0625 L21.6367,9.0625 M18.8438,7.625 L20.5078,7.625 L20.5078,13.2188 C20.5078,13.3724 20.5313,13.4915 20.5781,13.5762 C20.625,13.6608 20.6908,13.7201 20.7754,13.7539 C20.86,13.7878 20.9583,13.8047 21.0703,13.8047 C21.1484,13.8047 21.2266,13.7975 21.3047,13.7832 C21.3828,13.7689 21.4427,13.7578 21.4844,13.75 L21.7461,14.9883 C21.6628,15.0143 21.5456,15.0449 21.3945,15.0801 C21.2435,15.1152 21.0599,15.1367 20.8438,15.1445 C20.4427,15.1602 20.0918,15.1068 19.791,14.9844 C19.4902,14.862 19.2565,14.6719 19.0898,14.4141 C18.9232,14.1563 18.8411,13.8307 18.8438,13.4375 L18.8438,7.625 M25.3594,15.1797 C24.7448,15.1797 24.2168,15.0488 23.7754,14.7871 C23.334,14.5254 22.9954,14.1615 22.7598,13.6953 C22.5241,13.2292 22.4063,12.6927 22.4063,12.0859 C22.4063,11.4714 22.5254,10.9316 22.7637,10.4668 C23.002,10.002 23.3411,9.63867 23.7813,9.37695 C24.2214,9.11523 24.7448,8.98438 25.3516,8.98438 C25.875,8.98438 26.3333,9.07943 26.7266,9.26953 C27.1198,9.45964 27.431,9.72656 27.6602,10.0703 C27.8893,10.4141 28.0156,10.8177 28.0391,11.2813 L26.4688,11.2813 C26.4245,10.9818 26.3079,10.7402 26.1191,10.5566 C25.9303,10.373 25.6836,10.2813 25.3789,10.2813 C25.1211,10.2813 24.8965,10.3509 24.7051,10.4902 C24.5137,10.6296 24.3646,10.832 24.2578,11.0977 C24.151,11.3633 24.0977,11.6849 24.0977,12.0625 C24.0977,12.4453 24.1504,12.7708 24.2559,13.0391 C24.3613,13.3073 24.5104,13.5117 24.7031,13.6523 C24.8958,13.793 25.1211,13.8633 25.3789,13.8633 C25.569,13.8633 25.7402,13.8242 25.8926,13.7461 C26.0449,13.668 26.1712,13.554 26.2715,13.4043 C26.3717,13.2546 26.4375,13.0742 26.4688,12.8633 L28.0391,12.8633 C28.013,13.3216 27.8887,13.7246 27.666,14.0723 C27.4434,14.4199 27.1367,14.6914 26.7461,14.8867 C26.3555,15.082 25.8932,15.1797 25.3594,15.1797 M30.7656,11.5938 L30.7656,15.0625 L29.1016,15.0625 L29.1016,7.0625 L30.7188,7.0625 L30.7188,10.1211 L30.7891,10.1211 C30.9245,9.76693 31.1432,9.48893 31.4453,9.28711 C31.7474,9.08529 32.1263,8.98438 32.582,8.98438 C32.9987,8.98438 33.3626,9.07487 33.6738,9.25586 C33.985,9.43685 34.2272,9.69596 34.4004,10.0332 C34.5736,10.3704 34.6589,10.7734 34.6563,11.2422 L34.6563,15.0625 L32.9922,15.0625 L32.9922,11.5391 C32.9948,11.1693 32.9017,10.8815 32.7129,10.6758 C32.5241,10.4701 32.2604,10.3672 31.9219,10.3672 C31.6953,10.3672 31.4954,10.4154 31.3223,10.5117 C31.1491,10.6081 31.0137,10.748 30.916,10.9316 C30.8184,11.1152 30.7682,11.3359 30.7656,11.5938 "/>
</g>

<g fill="#ffffff" fill-opacity="1" stroke="none" transform="matrix(0.03125,0,0,0.03125,136.5,12)"
font-family="Inter" font-size="11" font-weight="700" font-style="normal" 
>
<path vector-effect="none" fill-rule="nonzero" d="M111.326,191.938 C120.545,201.158 135.517,201.158 144.737,191.938 L239.144,97.5313 C245.929,90.7458 247.921,80.6413 244.233,71.7907 C240.545,62.9401 231.989,57.1871 222.401,57.1871 L33.5875,57.2608 C24.0731,57.2608 15.4437,63.0137 11.7559,71.8644 C8.06815,80.715 10.1333,90.8195 16.845,97.605 L111.252,192.012 L111.326,191.938"/>
</g>

<g fill="none" stroke="#000000" stroke-opacity="1" stroke-width="13.7195" stroke-linecap="butt" stroke-linejoin="miter" stroke-miterlimit="4" transform="matrix(0.03125,0,0,0.03125,136.5,12)"
font-family="Inter" font-size="11" font-weight="700" font-style="normal" 
>
<path vector-effect="none" fill-rule="nonzero" d="M111.326,191.938 C120.545,201.158 135.517,201.158 144.737,191.938 L239.144,97.5313 C245.929,90.7458 247.921,80.6413 244.233,71.7907 C240.545,62.9401 231.989,57.1871 222.401,57.1871 L33.5875,57.2608 C24.0731,57.2608 15.4437,63.0137 11.7559,71.8644 C8.06815,80.715 10.1333,90.8195 16.845,97.605 L111.252,192.012 L111.326,191.938"/>
</g>

<g fill="#ffffff" fill-opacity="1" stroke="none" transform="matrix(1,0,0,1,93,4)"
font-family="Inter" font-size="11" font-weight="700" font-style="normal" 
>
</g>

<g fill="#ffffff" fill-opacity="1" stroke="#0da6c5" stroke-opacity="1" stroke-width="1" stroke-linecap="square" stroke-linejoin="bevel" transform="matrix(1,0,0,1,0,0)"
font-family="Inter" font-size="11" font-weight="700" font-style="normal" 
>
</g>

<g fill="#ffffff" fill-opacity="1" stroke="#0da6c5" stroke-opacity="1" stroke-width="1" stroke-linecap="square" stroke-linejoin="bevel" transform="matrix(1,0,0,1,0,0)"
font-family="Inter" font-size="11" font-weight="700" font-style="normal" 
>
</g>

<g fill="none" stroke="#000000" stroke-opacity="1" stroke-width="1" stroke-linecap="square" stroke-linejoin="bevel" transform="matrix(1,0,0,1,0,0)"
font-family=".AppleSystemUIFont" font-size="13" font-weight="400" font-style="normal" 
>
</g>
</g>
</svg>
