<?xml version="1.0" encoding="UTF-8" standalone="no"?>
<svg width="136.878mm" height="21.1667mm"
 viewBox="0 0 388 60"
 xmlns="http://www.w3.org/2000/svg" xmlns:xlink="http://www.w3.org/1999/xlink" version="1.2" baseProfile="tiny">
<title>Abstract block</title>
<desc>block_hubs_all_event_port_boost_sensor_when_distance</desc>
<defs>
</defs>
<g fill="none" stroke="black" stroke-width="1" fill-rule="evenodd" stroke-linecap="square" stroke-linejoin="bevel" >

<g fill="none" stroke="#000000" stroke-opacity="1" stroke-width="1" stroke-linecap="square" stroke-linejoin="bevel" transform="matrix(1,0,0,1,0,0)"
font-family=".AppleSystemUIFont" font-size="13" font-weight="400" font-style="normal" 
>
</g>

<g fill="none" stroke="#000000" stroke-opacity="1" stroke-width="1" stroke-linecap="square" stroke-linejoin="bevel" transform="matrix(1,0,0,1,0,0)"
font-family=".AppleSystemUIFont" font-size="13" font-weight="400" font-style="normal" 
>
</g>

<g fill="#f5c400" fill-opacity="1" stroke="#ba9500" stroke-opacity="1" stroke-width="1.2" stroke-linecap="square" stroke-linejoin="bevel" transform="matrix(1,0,0,1,0,0)"
font-family=".AppleSystemUIFont" font-size="13" font-weight="400" font-style="normal" 
>
<path vector-effect="none" fill-rule="evenodd" d="M0.5,20.5 L1,18.6516 L1,18 L1.77836,17.1565 L2.58892,16.3401 L3.43062,15.551 L4.30242,14.7891 L5.20325,14.0544 L6.13206,13.3469 L7.08779,12.6667 L8.06939,12.0136 L9.0758,11.3878 L10.106,10.7891 L11.1588,10.2177 L12.2333,9.67347 L13.3284,9.15646 L14.4431,8.66667 L15.5762,8.20408 L16.7267,7.76871 L17.8936,7.36054 L19.0758,6.97959 L20.2723,6.62585 L21.4819,6.29932 L22.7037,6 L23.9366,5.72789 L25.1795,5.48299 L26.4314,5.26531 L27.6912,5.07483 L28.9578,4.91156 L30.2303,4.77551 L31.5075,4.66667 L32.7885,4.58503 L34.072,4.53061 L35.3572,4.5034 L36.6428,4.5034 L37.928,4.53061 L39.2115,4.58503 L40.4925,4.66667 L41.7697,4.77551 L43.0422,4.91156 L44.3088,5.07483 L45.5686,5.26531 L46.8205,5.48299 L48.0634,5.72789 L49.2963,6 L50.5181,6.29932 L51.7277,6.62585 L52.9242,6.97959 L54.1064,7.36054 L55.2733,7.76871 L56.4238,8.20408 L57.5569,8.66667 L58.6716,9.15646 L59.7667,9.67347 L60.8412,10.2177 L61.894,10.7891 L62.9242,11.3878 L63.9306,12.0136 L64.9122,12.6667 L65.8679,13.3469 L66.7968,14.0544 L67.6976,14.7891 L68.5694,15.551 L69.4111,16.3401 L69.5698,16.5 L382.9,16.5 L384.919,17.0461 L386.354,18.4811 L386.9,20.5 L386.9,47.5 L386.354,49.5189 L384.919,50.9539 L382.9,51.5 L34.375,51.5 L33.584,51.9766 L32.8281,52.6875 L32.002,53.6797 L31,55 L30.2441,55.6602 L29.4531,56.1563 L28.5918,56.5117 L27.625,56.75 L26.5176,56.8945 L25.2344,56.9688 L23.7402,56.9961 L22,57 L20.2598,56.9961 L18.7656,56.9688 L17.4824,56.8945 L16.375,56.75 L15.4082,56.5117 L14.5469,56.1563 L13.7559,55.6602 L13,55 L11.998,53.6797 L11.1719,52.6875 L10.416,51.9766 L9.625,51.5 L4.5,51.5 L2.48112,50.9539 L1.04612,49.5189 L0.5,47.5 L0.5,20.5"/>
</g>

<g fill="#ffffff" fill-opacity="1" stroke="none" transform="matrix(1,0,0,1,0,0)"
font-family="Inter" font-size="11" font-weight="700" font-style="normal" 
>
<path vector-effect="none" fill-rule="nonzero" d="M182.473,37.9063 L180.84,31.9063 L182.523,31.9063 L183.453,35.9375 L183.508,35.9375 L184.477,31.9063 L186.129,31.9063 L187.113,35.9141 L187.164,35.9141 L188.078,31.9063 L189.758,31.9063 L188.129,37.9063 L186.367,37.9063 L185.336,34.1328 L185.262,34.1328 L184.23,37.9063 L182.473,37.9063 M192.297,34.4375 L192.297,37.9063 L190.633,37.9063 L190.633,29.9063 L192.25,29.9063 L192.25,32.9648 L192.32,32.9648 C192.456,32.6107 192.674,32.3327 192.977,32.1309 C193.279,31.929 193.658,31.8281 194.113,31.8281 C194.53,31.8281 194.894,31.9186 195.205,32.0996 C195.516,32.2806 195.758,32.5397 195.932,32.877 C196.105,33.2142 196.19,33.6172 196.188,34.0859 L196.188,37.9063 L194.523,37.9063 L194.523,34.3828 C194.526,34.013 194.433,33.7253 194.244,33.5195 C194.055,33.3138 193.792,33.2109 193.453,33.2109 C193.227,33.2109 193.027,33.2591 192.854,33.3555 C192.68,33.4518 192.545,33.5918 192.447,33.7754 C192.35,33.959 192.299,34.1797 192.297,34.4375 M200.227,38.0234 C199.609,38.0234 199.079,37.8978 198.635,37.6465 C198.191,37.3952 197.849,37.0384 197.609,36.5762 C197.37,36.1139 197.25,35.5664 197.25,34.9336 C197.25,34.3164 197.37,33.7747 197.609,33.3086 C197.849,32.8424 198.187,32.4792 198.623,32.2188 C199.059,31.9583 199.572,31.8281 200.16,31.8281 C200.556,31.8281 200.925,31.8913 201.268,32.0176 C201.61,32.1439 201.91,32.3333 202.166,32.5859 C202.423,32.8385 202.622,33.1556 202.766,33.5371 C202.909,33.9186 202.98,34.3646 202.98,34.875 L202.98,35.332 L197.914,35.332 L197.914,34.3008 L201.414,34.3008 C201.414,34.0612 201.362,33.849 201.258,33.6641 C201.154,33.4792 201.01,33.334 200.826,33.2285 C200.643,33.123 200.43,33.0703 200.188,33.0703 C199.935,33.0703 199.712,33.1283 199.518,33.2441 C199.324,33.36 199.172,33.515 199.063,33.709 C198.953,33.903 198.897,34.1185 198.895,34.3555 L198.895,35.3359 C198.895,35.6328 198.95,35.8893 199.061,36.1055 C199.171,36.3216 199.328,36.4883 199.531,36.6055 C199.734,36.7227 199.975,36.7813 200.254,36.7813 C200.439,36.7813 200.608,36.7552 200.762,36.7031 C200.915,36.651 201.047,36.5729 201.156,36.4688 C201.266,36.3646 201.349,36.237 201.406,36.0859 L202.945,36.1875 C202.867,36.5573 202.708,36.8796 202.467,37.1543 C202.226,37.429 201.916,37.6426 201.537,37.7949 C201.158,37.9473 200.721,38.0234 200.227,38.0234 M205.719,34.4375 L205.719,37.9063 L204.055,37.9063 L204.055,31.9063 L205.641,31.9063 L205.641,32.9648 L205.711,32.9648 C205.844,32.6159 206.066,32.3392 206.379,32.1348 C206.691,31.9303 207.07,31.8281 207.516,31.8281 C207.932,31.8281 208.296,31.9193 208.605,32.1016 C208.915,32.2839 209.156,32.5436 209.328,32.8809 C209.5,33.2181 209.586,33.6198 209.586,34.0859 L209.586,37.9063 L207.922,37.9063 L207.922,34.3828 C207.924,34.0156 207.831,33.7285 207.641,33.5215 C207.451,33.3145 207.189,33.2109 206.855,33.2109 C206.632,33.2109 206.434,33.2591 206.264,33.3555 C206.093,33.4518 205.96,33.5918 205.865,33.7754 C205.77,33.959 205.721,34.1797 205.719,34.4375 "/>
</g>

<g fill="#ffffff" fill-opacity="1" stroke="none" transform="matrix(0.0285,0,0,0.0285,11.2928,25.2981)"
font-family="Inter" font-size="11" font-weight="700" font-style="normal" 
>
<path vector-effect="none" fill-rule="nonzero" d="M235.334,52.7519 C230.145,52.7519 225.965,56.9314 225.965,62.1211 L225.965,102.215 L210.545,102.215 C191.496,102.215 176.161,116.28 176.161,133.752 L176.161,431.395 L231.118,431.395 C233.175,391.149 266.155,359.338 306.93,359.338 L514.625,359.338 C555.4,359.338 588.38,391.149 590.438,431.395 L645.395,431.395 L645.395,133.752 C645.395,116.28 630.059,102.215 611.01,102.215 L587.022,102.215 L587.022,62.1211 C587.022,56.9314 582.844,52.7519 577.655,52.7519 L453.467,52.7519 C448.277,52.7519 444.098,56.9314 444.098,62.1211 L444.098,102.215 L368.889,102.215 L368.889,62.1211 C368.889,56.9314 364.712,52.7519 359.522,52.7519 L235.334,52.7519 M176.161,439.258 L176.161,736.898 C176.161,754.37 191.496,768.437 210.545,768.437 L611.01,768.437 C630.059,768.437 645.395,754.37 645.395,736.898 L645.395,439.258 L590.442,439.258 C588.408,479.525 555.416,511.361 514.625,511.361 L489.325,511.361 C491.149,518.109 492.096,525.064 492.143,532.055 L492.143,532.08 C492.142,577.014 455.717,613.44 410.784,613.443 C365.85,613.447 329.42,577.026 329.412,532.092 C329.455,525.089 330.402,518.121 332.229,511.361 L306.93,511.361 C266.139,511.361 233.148,479.525 231.114,439.258 L176.161,439.258"/>
</g>

<g fill="none" stroke="#000000" stroke-opacity="1" stroke-width="20" stroke-linecap="round" stroke-linejoin="round" transform="matrix(0.0285,0,0,0.0285,11.2928,25.2981)"
font-family="Inter" font-size="11" font-weight="700" font-style="normal" 
>
<path vector-effect="none" fill-rule="nonzero" d="M235.334,52.7519 C230.145,52.7519 225.965,56.9314 225.965,62.1211 L225.965,102.215 L210.545,102.215 C191.496,102.215 176.161,116.28 176.161,133.752 L176.161,431.395 L231.118,431.395 C233.175,391.149 266.155,359.338 306.93,359.338 L514.625,359.338 C555.4,359.338 588.38,391.149 590.438,431.395 L645.395,431.395 L645.395,133.752 C645.395,116.28 630.059,102.215 611.01,102.215 L587.022,102.215 L587.022,62.1211 C587.022,56.9314 582.844,52.7519 577.655,52.7519 L453.467,52.7519 C448.277,52.7519 444.098,56.9314 444.098,62.1211 L444.098,102.215 L368.889,102.215 L368.889,62.1211 C368.889,56.9314 364.712,52.7519 359.522,52.7519 L235.334,52.7519 M176.161,439.258 L176.161,736.898 C176.161,754.37 191.496,768.437 210.545,768.437 L611.01,768.437 C630.059,768.437 645.395,754.37 645.395,736.898 L645.395,439.258 L590.442,439.258 C588.408,479.525 555.416,511.361 514.625,511.361 L489.325,511.361 C491.149,518.109 492.096,525.064 492.143,532.055 L492.143,532.08 C492.142,577.014 455.717,613.44 410.784,613.443 C365.85,613.447 329.42,577.026 329.412,532.092 C329.455,525.089 330.402,518.121 332.229,511.361 L306.93,511.361 C266.139,511.361 233.148,479.525 231.114,439.258 L176.161,439.258"/>
</g>

<g fill="#000000" fill-opacity="1" stroke="none" transform="matrix(0.0285,0,0,0.0285,11.2928,25.2981)"
font-family="Inter" font-size="11" font-weight="700" font-style="normal" 
>
<path vector-effect="none" fill-rule="nonzero" d="M306.93,362.297 C264.82,362.297 230.918,396.198 230.918,438.309 C230.918,480.419 264.82,514.32 306.93,514.32 L332.229,514.32 C330.402,521.08 329.455,528.048 329.412,535.051 C329.42,579.985 365.85,616.406 410.784,616.402 C455.717,616.399 492.142,579.973 492.143,535.039 L492.143,535.014 C492.096,528.023 491.149,521.068 489.325,514.32 L514.625,514.32 C556.736,514.32 590.637,480.419 590.637,438.309 C590.637,396.198 556.736,362.297 514.625,362.297 L306.93,362.297 M514.086,395.043 C536.554,395.038 554.772,413.247 554.778,435.715 L554.778,435.727 C554.777,458.193 536.565,476.407 514.098,476.408 C491.631,476.41 473.416,458.199 473.412,435.732 C473.409,413.265 491.619,395.048 514.086,395.043 L514.086,395.043 M308.393,395.045 C330.86,395.04 349.077,413.248 349.084,435.715 L349.084,435.727 C349.084,458.193 330.872,476.407 308.405,476.408 C285.938,476.41 267.723,458.199 267.719,435.732 C267.716,413.266 285.926,395.05 308.393,395.045 L308.393,395.045 M411.559,471.479 C446.146,471.471 474.192,499.503 474.202,534.09 L474.202,534.109 C474.201,568.697 446.164,596.736 411.577,596.738 C376.988,596.741 348.946,568.705 348.942,534.117 C348.937,499.529 376.971,471.485 411.559,471.479 L411.559,471.479"/>
</g>

<g fill="none" stroke="#000000" stroke-opacity="1" stroke-width="20" stroke-linecap="round" stroke-linejoin="round" transform="matrix(0.0285,0,0,0.0285,11.2928,25.4475)"
font-family="Inter" font-size="11" font-weight="700" font-style="normal" 
>
<path vector-effect="none" fill-rule="evenodd" d="M176.161,129.776 C176.161,112.358 190.281,98.2382 207.698,98.2382 L613.857,98.2382 C631.275,98.2382 645.395,112.358 645.395,129.776 L645.395,732.923 C645.395,750.341 631.275,764.461 613.857,764.461 L207.698,764.461 C190.281,764.461 176.161,750.341 176.161,732.923 L176.161,129.776"/>
</g>

<g fill="#ffffff" fill-opacity="1" stroke="none" transform="matrix(1,0,0,1,0,0)"
font-family="Inter" font-size="11" font-weight="700" font-style="normal" 
>
</g>

<g fill="#ffffff" fill-opacity="1" stroke="#ba9500" stroke-opacity="1" stroke-width="1" stroke-linecap="square" stroke-linejoin="bevel" transform="matrix(1,0,0,1,0,0)"
font-family="Inter" font-size="11" font-weight="700" font-style="normal" 
>
<polyline fill="none" vector-effect="none" points="45,27 45,47 " />
</g>

<g fill="#ffffff" fill-opacity="1" stroke="#ba9500" stroke-opacity="1" stroke-width="1" stroke-linecap="square" stroke-linejoin="bevel" transform="matrix(1,0,0,1,0,0)"
font-family="Inter" font-size="11" font-weight="700" font-style="normal" 
>
</g>

<g fill="#f5c400" fill-opacity="1" stroke="#ba9500" stroke-opacity="1" stroke-width="1.2" stroke-linecap="square" stroke-linejoin="bevel" transform="matrix(1,0,0,1,56,22)"
font-family="Inter" font-size="11" font-weight="700" font-style="normal" 
>
<path vector-effect="none" fill-rule="evenodd" d="M0.5,3.5 C0.5,1.84315 1.84315,0.5 3.5,0.5 L71.5,0.5 C73.1569,0.5 74.5,1.84315 74.5,3.5 L74.5,20.5 C74.5,22.1569 73.1569,23.5 71.5,23.5 L3.5,23.5 C1.84315,23.5 0.5,22.1569 0.5,20.5 L0.5,3.5"/>
</g>

<g fill="#ffffff" fill-opacity="1" stroke="none" transform="matrix(1,0,0,1,56,22)"
font-family="Inter" font-size="11" font-weight="700" font-style="normal" 
>
<path vector-effect="none" fill-rule="nonzero" d="M10,9.39453 L10,8 L16.5703,8 L16.5703,9.39453 L14.1211,9.39453 L14.1211,16 L12.4492,16 L12.4492,9.39453 L10,9.39453 M17.6484,16 L17.6484,8 L19.3398,8 L19.3398,11.3008 L22.7734,11.3008 L22.7734,8 L24.4609,8 L24.4609,16 L22.7734,16 L22.7734,12.6953 L19.3398,12.6953 L19.3398,16 L17.6484,16 M32.543,8 L32.543,16 L31.082,16 L27.6016,10.9648 L27.543,10.9648 L27.543,16 L25.8516,16 L25.8516,8 L27.3359,8 L30.7891,13.0313 L30.8594,13.0313 L30.8594,8 L32.543,8 M33.9297,16 L33.9297,8 L35.6211,8 L35.6211,11.3008 L39.0547,11.3008 L39.0547,8 L40.7422,8 L40.7422,16 L39.0547,16 L39.0547,12.6953 L35.6211,12.6953 L35.6211,16 L33.9297,16 M42.1328,16 L42.1328,8 L45.3359,8 C45.9245,8 46.4154,8.08724 46.8086,8.26172 C47.2018,8.4362 47.4974,8.67773 47.6953,8.98633 C47.8932,9.29492 47.9922,9.64974 47.9922,10.0508 C47.9922,10.3633 47.9297,10.6374 47.8047,10.873 C47.6797,11.1087 47.5085,11.3014 47.291,11.4512 C47.0736,11.6009 46.8255,11.707 46.5469,11.7695 L46.5469,11.8477 C46.8516,11.8607 47.1374,11.9466 47.4043,12.1055 C47.6712,12.2643 47.888,12.4863 48.0547,12.7715 C48.2214,13.0566 48.3047,13.3958 48.3047,13.7891 C48.3047,14.2135 48.1999,14.5918 47.9902,14.9238 C47.7806,15.2559 47.4714,15.5182 47.0625,15.7109 C46.6536,15.9036 46.1497,16 45.5508,16 L42.1328,16 M43.8242,14.6172 L45.2031,14.6172 C45.6745,14.6172 46.0182,14.5267 46.2344,14.3457 C46.4505,14.1647 46.5586,13.9232 46.5586,13.6211 C46.5586,13.3997 46.5052,13.2044 46.3984,13.0352 C46.2917,12.8659 46.14,12.7331 45.9434,12.6367 C45.7467,12.5404 45.513,12.4922 45.2422,12.4922 L43.8242,12.4922 L43.8242,14.6172 M43.8242,11.3477 L45.0781,11.3477 C45.3099,11.3477 45.5163,11.3066 45.6973,11.2246 C45.8783,11.1426 46.0215,11.026 46.127,10.875 C46.2324,10.724 46.2852,10.543 46.2852,10.332 C46.2852,10.043 46.1829,9.8099 45.9785,9.63281 C45.7741,9.45573 45.4844,9.36719 45.1094,9.36719 L43.8242,9.36719 L43.8242,11.3477 M52.832,8 L52.832,16 L51.1406,16 L51.1406,9.60547 L51.0938,9.60547 L49.2617,10.7539 L49.2617,9.25391 L51.2422,8 L52.832,8"/>
</g>

<g fill="#ffffff" fill-opacity="1" stroke="none" transform="matrix(0.03125,0,0,0.03125,117,30)"
font-family="Inter" font-size="11" font-weight="700" font-style="normal" 
>
<path vector-effect="none" fill-rule="nonzero" d="M111.326,191.938 C120.545,201.158 135.517,201.158 144.737,191.938 L239.144,97.5313 C245.929,90.7458 247.921,80.6413 244.233,71.7907 C240.545,62.9401 231.989,57.1871 222.401,57.1871 L33.5875,57.2608 C24.0731,57.2608 15.4437,63.0137 11.7559,71.8644 C8.06815,80.715 10.1333,90.8195 16.845,97.605 L111.252,192.012 L111.326,191.938"/>
</g>

<g fill="none" stroke="#000000" stroke-opacity="1" stroke-width="13.7195" stroke-linecap="butt" stroke-linejoin="miter" stroke-miterlimit="4" transform="matrix(0.03125,0,0,0.03125,117,30)"
font-family="Inter" font-size="11" font-weight="700" font-style="normal" 
>
<path vector-effect="none" fill-rule="nonzero" d="M111.326,191.938 C120.545,201.158 135.517,201.158 144.737,191.938 L239.144,97.5313 C245.929,90.7458 247.921,80.6413 244.233,71.7907 C240.545,62.9401 231.989,57.1871 222.401,57.1871 L33.5875,57.2608 C24.0731,57.2608 15.4437,63.0137 11.7559,71.8644 C8.06815,80.715 10.1333,90.8195 16.845,97.605 L111.252,192.012 L111.326,191.938"/>
</g>

<g fill="#ffffff" fill-opacity="1" stroke="none" transform="matrix(1,0,0,1,56,22)"
font-family="Inter" font-size="11" font-weight="700" font-style="normal" 
>
</g>

<g fill="#ffffff" fill-opacity="1" stroke="#ba9500" stroke-opacity="1" stroke-width="1" stroke-linecap="square" stroke-linejoin="bevel" transform="matrix(1,0,0,1,0,0)"
font-family="Inter" font-size="11" font-weight="700" font-style="normal" 
>
</g>

<g fill="#f5c400" fill-opacity="1" stroke="#ba9500" stroke-opacity="1" stroke-width="1.2" stroke-linecap="square" stroke-linejoin="bevel" transform="matrix(1,0,0,1,341.9,22)"
font-family="Inter" font-size="11" font-weight="700" font-style="normal" 
>
<path vector-effect="none" fill-rule="evenodd" d="M0.5,3.5 C0.5,1.84315 1.84315,0.5 3.5,0.5 L36,0.5 C37.6569,0.5 39,1.84315 39,3.5 L39,20.5 C39,22.1569 37.6569,23.5 36,23.5 L3.5,23.5 C1.84315,23.5 0.5,22.1569 0.5,20.5 L0.5,3.5"/>
</g>

<g fill="#ffffff" fill-opacity="1" stroke="none" transform="matrix(1,0,0,1,341.9,22)"
font-family="Inter" font-size="11" font-weight="700" font-style="normal" 
>
<path vector-effect="none" fill-rule="nonzero" d="M13.6055,14.3594 L13.6055,13.9375 C13.6055,13.6172 13.6738,13.3223 13.8105,13.0527 C13.9473,12.7832 14.1465,12.5671 14.4082,12.4043 C14.6699,12.2415 14.9896,12.1602 15.3672,12.1602 C15.75,12.1602 16.0723,12.2409 16.334,12.4023 C16.5957,12.5638 16.7936,12.7793 16.9277,13.0488 C17.0618,13.3184 17.1289,13.6146 17.1289,13.9375 L17.1289,14.3594 C17.1289,14.6797 17.0612,14.9746 16.9258,15.2441 C16.7904,15.5137 16.5911,15.7298 16.3281,15.8926 C16.0651,16.0553 15.7448,16.1367 15.3672,16.1367 C14.9844,16.1367 14.6628,16.0553 14.4023,15.8926 C14.1419,15.7298 13.944,15.5137 13.8086,15.2441 C13.6732,14.9746 13.6055,14.6797 13.6055,14.3594 M14.7422,13.9375 L14.7422,14.3594 C14.7422,14.5443 14.7871,14.7188 14.877,14.8828 C14.9668,15.0469 15.1302,15.1289 15.3672,15.1289 C15.6042,15.1289 15.7663,15.0482 15.8535,14.8867 C15.9408,14.7253 15.9844,14.5495 15.9844,14.3594 L15.9844,13.9375 C15.9844,13.7474 15.9427,13.5703 15.8594,13.4063 C15.776,13.2422 15.612,13.1602 15.3672,13.1602 C15.1328,13.1602 14.9701,13.2422 14.8789,13.4063 C14.7878,13.5703 14.7422,13.7474 14.7422,13.9375 M9.5,9.78125 L9.5,9.35938 C9.5,9.03646 9.56901,8.74023 9.70703,8.4707 C9.84505,8.20117 10.0449,7.98568 10.3066,7.82422 C10.5684,7.66276 10.8854,7.58203 11.2578,7.58203 C11.6432,7.58203 11.9661,7.66276 12.2266,7.82422 C12.487,7.98568 12.6849,8.20117 12.8203,8.4707 C12.9557,8.74023 13.0234,9.03646 13.0234,9.35938 L13.0234,9.78125 C13.0234,10.1042 12.9551,10.3997 12.8184,10.668 C12.6816,10.9362 12.4824,11.1504 12.2207,11.3105 C11.959,11.4707 11.638,11.5508 11.2578,11.5508 C10.8776,11.5508 10.5566,11.4694 10.2949,11.3066 C10.0332,11.1439 9.83529,10.929 9.70117,10.6621 C9.56706,10.3952 9.5,10.1016 9.5,9.78125 M10.6445,9.35938 L10.6445,9.78125 C10.6445,9.97135 10.6895,10.1471 10.7793,10.3086 C10.8691,10.4701 11.0286,10.5508 11.2578,10.5508 C11.4974,10.5508 11.6608,10.4701 11.748,10.3086 C11.8353,10.1471 11.8789,9.97135 11.8789,9.78125 L11.8789,9.35938 C11.8789,9.16927 11.8372,8.99219 11.7539,8.82813 C11.6706,8.66406 11.5052,8.58203 11.2578,8.58203 C11.026,8.58203 10.8659,8.66536 10.7773,8.83203 C10.6888,8.9987 10.6445,9.17448 10.6445,9.35938 M10.0156,15.8594 L15.5156,7.85938 L16.5391,7.85938 L11.0391,15.8594 L10.0156,15.8594"/>
</g>

<g fill="#ffffff" fill-opacity="1" stroke="none" transform="matrix(0.03125,0,0,0.03125,367.4,30)"
font-family="Inter" font-size="11" font-weight="700" font-style="normal" 
>
<path vector-effect="none" fill-rule="nonzero" d="M111.326,191.938 C120.545,201.158 135.517,201.158 144.737,191.938 L239.144,97.5313 C245.929,90.7458 247.921,80.6413 244.233,71.7907 C240.545,62.9401 231.989,57.1871 222.401,57.1871 L33.5875,57.2608 C24.0731,57.2608 15.4437,63.0137 11.7559,71.8644 C8.06815,80.715 10.1333,90.8195 16.845,97.605 L111.252,192.012 L111.326,191.938"/>
</g>

<g fill="none" stroke="#000000" stroke-opacity="1" stroke-width="13.7195" stroke-linecap="butt" stroke-linejoin="miter" stroke-miterlimit="4" transform="matrix(0.03125,0,0,0.03125,367.4,30)"
font-family="Inter" font-size="11" font-weight="700" font-style="normal" 
>
<path vector-effect="none" fill-rule="nonzero" d="M111.326,191.938 C120.545,201.158 135.517,201.158 144.737,191.938 L239.144,97.5313 C245.929,90.7458 247.921,80.6413 244.233,71.7907 C240.545,62.9401 231.989,57.1871 222.401,57.1871 L33.5875,57.2608 C24.0731,57.2608 15.4437,63.0137 11.7559,71.8644 C8.06815,80.715 10.1333,90.8195 16.845,97.605 L111.252,192.012 L111.326,191.938"/>
</g>

<g fill="#ffffff" fill-opacity="1" stroke="none" transform="matrix(1,0,0,1,341.9,22)"
font-family="Inter" font-size="11" font-weight="700" font-style="normal" 
>
</g>

<g fill="#ffffff" fill-opacity="1" stroke="#ba9500" stroke-opacity="1" stroke-width="1" stroke-linecap="square" stroke-linejoin="bevel" transform="matrix(1,0,0,1,0,0)"
font-family="Inter" font-size="11" font-weight="700" font-style="normal" 
>
</g>

<g fill="#f5c400" fill-opacity="1" stroke="#ba9500" stroke-opacity="1" stroke-width="1.2" stroke-linecap="square" stroke-linejoin="bevel" transform="matrix(1,0,0,1,216,22)"
font-family="Inter" font-size="11" font-weight="700" font-style="normal" 
>
<path vector-effect="none" fill-rule="evenodd" d="M0.5,3.5 C0.5,1.84315 1.84315,0.5 3.5,0.5 L88,0.5 C89.6569,0.5 91,1.84315 91,3.5 L91,20.5 C91,22.1569 89.6569,23.5 88,23.5 L3.5,23.5 C1.84315,23.5 0.5,22.1569 0.5,20.5 L0.5,3.5"/>
</g>

<g fill="#ffffff" fill-opacity="1" stroke="none" transform="matrix(1,0,0,1,216,22)"
font-family="Inter" font-size="11" font-weight="700" font-style="normal" 
>
<path vector-effect="none" fill-rule="nonzero" d="M12.4531,15.8516 C11.8385,15.8516 11.3105,15.7207 10.8691,15.459 C10.4277,15.1973 10.0892,14.8333 9.85352,14.3672 C9.61784,13.901 9.5,13.3646 9.5,12.7578 C9.5,12.1432 9.61914,11.6035 9.85742,11.1387 C10.0957,10.6738 10.4349,10.3105 10.875,10.0488 C11.3151,9.78711 11.8385,9.65625 12.4453,9.65625 C12.9688,9.65625 13.4271,9.7513 13.8203,9.94141 C14.2135,10.1315 14.5247,10.3984 14.7539,10.7422 C14.9831,11.0859 15.1094,11.4896 15.1328,11.9531 L13.5625,11.9531 C13.5182,11.6536 13.4017,11.4121 13.2129,11.2285 C13.0241,11.0449 12.7773,10.9531 12.4727,10.9531 C12.2148,10.9531 11.9902,11.0228 11.7988,11.1621 C11.6074,11.3014 11.4583,11.5039 11.3516,11.7695 C11.2448,12.0352 11.1914,12.3568 11.1914,12.7344 C11.1914,13.1172 11.2441,13.4427 11.3496,13.7109 C11.4551,13.9792 11.6042,14.1836 11.7969,14.3242 C11.9896,14.4648 12.2148,14.5352 12.4727,14.5352 C12.6628,14.5352 12.834,14.4961 12.9863,14.418 C13.1387,14.3398 13.265,14.2259 13.3652,14.0762 C13.4655,13.9264 13.5313,13.7461 13.5625,13.5352 L15.1328,13.5352 C15.1068,13.9935 14.9824,14.3965 14.7598,14.7441 C14.5371,15.0918 14.2305,15.3633 13.8398,15.5586 C13.4492,15.7539 12.987,15.8516 12.4531,15.8516 M17.8594,7.73438 L17.8594,15.7344 L16.1953,15.7344 L16.1953,7.73438 L17.8594,7.73438 M21.8906,15.8516 C21.2839,15.8516 20.7598,15.722 20.3184,15.4629 C19.877,15.2038 19.5365,14.8418 19.2969,14.377 C19.0573,13.9121 18.9375,13.3724 18.9375,12.7578 C18.9375,12.138 19.0573,11.5957 19.2969,11.1309 C19.5365,10.666 19.877,10.304 20.3184,10.0449 C20.7598,9.78581 21.2839,9.65625 21.8906,9.65625 C22.4974,9.65625 23.0215,9.78581 23.4629,10.0449 C23.9043,10.304 24.2448,10.666 24.4844,11.1309 C24.724,11.5957 24.8438,12.138 24.8438,12.7578 C24.8438,13.3724 24.724,13.9121 24.4844,14.377 C24.2448,14.8418 23.9043,15.2038 23.4629,15.4629 C23.0215,15.722 22.4974,15.8516 21.8906,15.8516 M21.8984,14.5625 C22.1745,14.5625 22.4049,14.4837 22.5898,14.3262 C22.7747,14.1686 22.9147,13.9531 23.0098,13.6797 C23.1048,13.4063 23.1523,13.0951 23.1523,12.7461 C23.1523,12.3971 23.1048,12.0859 23.0098,11.8125 C22.9147,11.5391 22.7747,11.3229 22.5898,11.1641 C22.4049,11.0052 22.1745,10.9258 21.8984,10.9258 C21.6198,10.9258 21.3861,11.0052 21.1973,11.1641 C21.0085,11.3229 20.8665,11.5391 20.7715,11.8125 C20.6764,12.0859 20.6289,12.3971 20.6289,12.7461 C20.6289,13.0951 20.6764,13.4063 20.7715,13.6797 C20.8665,13.9531 21.0085,14.1686 21.1973,14.3262 C21.3861,14.4837 21.6198,14.5625 21.8984,14.5625 M30.9219,11.4453 L29.3984,11.5391 C29.3724,11.4089 29.3164,11.291 29.2305,11.1855 C29.1445,11.0801 29.0319,10.9954 28.8926,10.9316 C28.7533,10.8678 28.5872,10.8359 28.3945,10.8359 C28.1367,10.8359 27.9193,10.89 27.7422,10.998 C27.5651,11.1061 27.4766,11.25 27.4766,11.4297 C27.4766,11.5729 27.5339,11.694 27.6484,11.793 C27.763,11.8919 27.9596,11.9714 28.2383,12.0313 L29.3242,12.25 C29.9076,12.3698 30.3424,12.5625 30.6289,12.8281 C30.9154,13.0938 31.0586,13.4427 31.0586,13.875 C31.0586,14.2682 30.9434,14.6133 30.7129,14.9102 C30.4824,15.207 30.1673,15.4382 29.7676,15.6035 C29.3678,15.7689 28.9076,15.8516 28.3867,15.8516 C27.5924,15.8516 26.9603,15.6855 26.4902,15.3535 C26.0202,15.0215 25.7448,14.569 25.6641,13.9961 L27.3008,13.9102 C27.3503,14.1523 27.4701,14.3366 27.6602,14.4629 C27.8503,14.5892 28.0938,14.6523 28.3906,14.6523 C28.6823,14.6523 28.9173,14.5957 29.0957,14.4824 C29.2741,14.3691 29.3646,14.2227 29.3672,14.043 C29.3646,13.8919 29.3008,13.7676 29.1758,13.6699 C29.0508,13.5723 28.8581,13.4974 28.5977,13.4453 L27.5586,13.2383 C26.9727,13.1211 26.5371,12.918 26.252,12.6289 C25.9668,12.3398 25.8242,11.9714 25.8242,11.5234 C25.8242,11.138 25.929,10.806 26.1387,10.5273 C26.3483,10.2487 26.6439,10.0339 27.0254,9.88281 C27.4069,9.73177 27.8542,9.65625 28.3672,9.65625 C29.125,9.65625 29.722,9.81641 30.1582,10.1367 C30.5944,10.457 30.849,10.8932 30.9219,11.4453 M34.8359,15.8516 C34.2188,15.8516 33.6882,15.7259 33.2441,15.4746 C32.8001,15.2233 32.4583,14.8665 32.2188,14.4043 C31.9792,13.9421 31.8594,13.3945 31.8594,12.7617 C31.8594,12.1445 31.9792,11.6029 32.2188,11.1367 C32.4583,10.6706 32.7962,10.3073 33.2324,10.0469 C33.6686,9.78646 34.181,9.65625 34.7695,9.65625 C35.1654,9.65625 35.5345,9.7194 35.877,9.8457 C36.2194,9.97201 36.5189,10.1615 36.7754,10.4141 C37.0319,10.6667 37.2318,10.9837 37.375,11.3652 C37.5182,11.7467 37.5898,12.1927 37.5898,12.7031 L37.5898,13.1602 L32.5234,13.1602 L32.5234,12.1289 L36.0234,12.1289 C36.0234,11.8893 35.9714,11.6771 35.8672,11.4922 C35.763,11.3073 35.6191,11.1621 35.4355,11.0566 C35.252,10.9512 35.0391,10.8984 34.7969,10.8984 C34.5443,10.8984 34.321,10.9564 34.127,11.0723 C33.9329,11.1882 33.7813,11.3431 33.6719,11.5371 C33.5625,11.7311 33.5065,11.9466 33.5039,12.1836 L33.5039,13.1641 C33.5039,13.4609 33.5592,13.7174 33.6699,13.9336 C33.7806,14.1497 33.9375,14.3164 34.1406,14.4336 C34.3438,14.5508 34.5846,14.6094 34.8633,14.6094 C35.0482,14.6094 35.2174,14.5833 35.3711,14.5313 C35.5247,14.4792 35.6563,14.401 35.7656,14.2969 C35.875,14.1927 35.9583,14.0651 36.0156,13.9141 L37.5547,14.0156 C37.4766,14.3854 37.3171,14.7077 37.0762,14.9824 C36.8353,15.2572 36.5254,15.4707 36.1465,15.623 C35.7676,15.7754 35.3307,15.8516 34.8359,15.8516 M38.6641,15.7344 L38.6641,9.73438 L40.2773,9.73438 L40.2773,10.7813 L40.3398,10.7813 C40.4492,10.4089 40.6328,10.127 40.8906,9.93555 C41.1484,9.74414 41.4453,9.64844 41.7813,9.64844 C41.8646,9.64844 41.9544,9.65365 42.0508,9.66406 C42.1471,9.67448 42.2318,9.6888 42.3047,9.70703 L42.3047,11.1836 C42.2266,11.1602 42.1185,11.1393 41.9805,11.1211 C41.8424,11.1029 41.7161,11.0938 41.6016,11.0938 C41.3568,11.0938 41.1387,11.1465 40.9473,11.252 C40.7559,11.3574 40.6048,11.5039 40.4941,11.6914 C40.3835,11.8789 40.3281,12.0951 40.3281,12.3398 L40.3281,15.7344 L38.6641,15.7344 M48.8867,9.73438 L48.8867,10.9844 L45.2734,10.9844 L45.2734,9.73438 L48.8867,9.73438 M46.0938,8.29688 L47.7578,8.29688 L47.7578,13.8906 C47.7578,14.0443 47.7813,14.1634 47.8281,14.248 C47.875,14.3327 47.9408,14.3919 48.0254,14.4258 C48.11,14.4596 48.2083,14.4766 48.3203,14.4766 C48.3984,14.4766 48.4766,14.4694 48.5547,14.4551 C48.6328,14.4408 48.6927,14.4297 48.7344,14.4219 L48.9961,15.6602 C48.9128,15.6862 48.7956,15.7168 48.6445,15.752 C48.4935,15.7871 48.3099,15.8086 48.0938,15.8164 C47.6927,15.832 47.3418,15.7786 47.041,15.6563 C46.7402,15.5339 46.5065,15.3438 46.3398,15.0859 C46.1732,14.8281 46.0911,14.5026 46.0938,14.1094 L46.0938,8.29688 M51.75,12.2656 L51.75,15.7344 L50.0859,15.7344 L50.0859,7.73438 L51.7031,7.73438 L51.7031,10.793 L51.7734,10.793 C51.9089,10.4388 52.1276,10.1608 52.4297,9.95898 C52.7318,9.75716 53.1107,9.65625 53.5664,9.65625 C53.9831,9.65625 54.347,9.74674 54.6582,9.92773 C54.9694,10.1087 55.2116,10.3678 55.3848,10.7051 C55.5579,11.0423 55.6432,11.4453 55.6406,11.9141 L55.6406,15.7344 L53.9766,15.7344 L53.9766,12.2109 C53.9792,11.8411 53.8861,11.5534 53.6973,11.3477 C53.5085,11.1419 53.2448,11.0391 52.9063,11.0391 C52.6797,11.0391 52.4798,11.0872 52.3066,11.1836 C52.1335,11.2799 51.998,11.4199 51.9004,11.6035 C51.8027,11.7871 51.7526,12.0078 51.75,12.2656 M58.6563,15.8477 C58.2734,15.8477 57.9323,15.7806 57.6328,15.6465 C57.3333,15.5124 57.097,15.3132 56.9238,15.0488 C56.7507,14.7845 56.6641,14.4544 56.6641,14.0586 C56.6641,13.7253 56.7253,13.4453 56.8477,13.2188 C56.9701,12.9922 57.1367,12.8099 57.3477,12.6719 C57.5586,12.5339 57.7988,12.4297 58.0684,12.3594 C58.3379,12.2891 58.6211,12.2396 58.918,12.2109 C59.2669,12.1745 59.5482,12.14 59.7617,12.1074 C59.9753,12.0749 60.1302,12.026 60.2266,11.9609 C60.3229,11.8958 60.3711,11.7995 60.3711,11.6719 L60.3711,11.6484 C60.3711,11.401 60.2936,11.2096 60.1387,11.0742 C59.9837,10.9388 59.7643,10.8711 59.4805,10.8711 C59.181,10.8711 58.9427,10.9368 58.7656,11.0684 C58.5885,11.1999 58.4714,11.3646 58.4141,11.5625 L56.875,11.4375 C56.9531,11.0729 57.1068,10.7572 57.3359,10.4902 C57.5651,10.2233 57.8613,10.0176 58.2246,9.87305 C58.5879,9.72852 59.0091,9.65625 59.4883,9.65625 C59.8216,9.65625 60.1413,9.69531 60.4473,9.77344 C60.7533,9.85156 61.0254,9.97266 61.2637,10.1367 C61.502,10.3008 61.6901,10.5111 61.8281,10.7676 C61.9661,11.0241 62.0352,11.3307 62.0352,11.6875 L62.0352,15.7344 L60.457,15.7344 L60.457,14.9023 L60.4102,14.9023 C60.3138,15.0898 60.1849,15.2546 60.0234,15.3965 C59.862,15.5384 59.668,15.6491 59.4414,15.7285 C59.2148,15.8079 58.9531,15.8477 58.6563,15.8477 M59.1328,14.6992 C59.3776,14.6992 59.5938,14.6504 59.7813,14.5527 C59.9688,14.4551 60.1159,14.3229 60.2227,14.1563 C60.3294,13.9896 60.3828,13.8008 60.3828,13.5898 L60.3828,12.9531 C60.3307,12.987 60.2598,13.0176 60.1699,13.0449 C60.0801,13.0723 59.9792,13.097 59.8672,13.1191 C59.7552,13.1413 59.6432,13.1608 59.5313,13.1777 C59.4193,13.1947 59.3177,13.2096 59.2266,13.2227 C59.0313,13.2513 58.8607,13.2969 58.7148,13.3594 C58.569,13.4219 58.4557,13.5059 58.375,13.6113 C58.2943,13.7168 58.2539,13.8477 58.2539,14.0039 C58.2539,14.2305 58.3366,14.403 58.502,14.5215 C58.6673,14.64 58.8776,14.6992 59.1328,14.6992 M64.9844,12.2656 L64.9844,15.7344 L63.3203,15.7344 L63.3203,9.73438 L64.9063,9.73438 L64.9063,10.793 L64.9766,10.793 C65.1094,10.444 65.332,10.1673 65.6445,9.96289 C65.957,9.75846 66.3359,9.65625 66.7813,9.65625 C67.1979,9.65625 67.5612,9.7474 67.8711,9.92969 C68.181,10.112 68.4219,10.3717 68.5938,10.709 C68.7656,11.0462 68.8516,11.4479 68.8516,11.9141 L68.8516,15.7344 L67.1875,15.7344 L67.1875,12.2109 C67.1901,11.8438 67.0964,11.5566 66.9063,11.3496 C66.7161,11.1426 66.4544,11.0391 66.1211,11.0391 C65.8971,11.0391 65.6999,11.0872 65.5293,11.1836 C65.3587,11.2799 65.2259,11.4199 65.1309,11.6035 C65.0358,11.7871 64.987,12.0078 64.9844,12.2656 "/>
</g>

<g fill="#ffffff" fill-opacity="1" stroke="none" transform="matrix(0.03125,0,0,0.03125,293.5,30)"
font-family="Inter" font-size="11" font-weight="700" font-style="normal" 
>
<path vector-effect="none" fill-rule="nonzero" d="M111.326,191.938 C120.545,201.158 135.517,201.158 144.737,191.938 L239.144,97.5313 C245.929,90.7458 247.921,80.6413 244.233,71.7907 C240.545,62.9401 231.989,57.1871 222.401,57.1871 L33.5875,57.2608 C24.0731,57.2608 15.4437,63.0137 11.7559,71.8644 C8.06815,80.715 10.1333,90.8195 16.845,97.605 L111.252,192.012 L111.326,191.938"/>
</g>

<g fill="none" stroke="#000000" stroke-opacity="1" stroke-width="13.7195" stroke-linecap="butt" stroke-linejoin="miter" stroke-miterlimit="4" transform="matrix(0.03125,0,0,0.03125,293.5,30)"
font-family="Inter" font-size="11" font-weight="700" font-style="normal" 
>
<path vector-effect="none" fill-rule="nonzero" d="M111.326,191.938 C120.545,201.158 135.517,201.158 144.737,191.938 L239.144,97.5313 C245.929,90.7458 247.921,80.6413 244.233,71.7907 C240.545,62.9401 231.989,57.1871 222.401,57.1871 L33.5875,57.2608 C24.0731,57.2608 15.4437,63.0137 11.7559,71.8644 C8.06815,80.715 10.1333,90.8195 16.845,97.605 L111.252,192.012 L111.326,191.938"/>
</g>

<g fill="#ffffff" fill-opacity="1" stroke="none" transform="matrix(1,0,0,1,216,22)"
font-family="Inter" font-size="11" font-weight="700" font-style="normal" 
>
</g>

<g fill="#ffffff" fill-opacity="1" stroke="#ba9500" stroke-opacity="1" stroke-width="1" stroke-linecap="square" stroke-linejoin="bevel" transform="matrix(1,0,0,1,0,0)"
font-family="Inter" font-size="11" font-weight="700" font-style="normal" 
>
</g>

<g fill="#ba9500" fill-opacity="1" stroke="#ba9500" stroke-opacity="1" stroke-width="1.2" stroke-linecap="square" stroke-linejoin="bevel" transform="matrix(1,0,0,1,135,22)"
font-family="Inter" font-size="11" font-weight="700" font-style="normal" 
>
<path vector-effect="none" fill-rule="evenodd" d="M0.5,12 C0.5,5.64873 5.87258,0.5 12.5,0.5 L27.5,0.5 C34.1274,0.5 39.5,5.64873 39.5,12 C39.5,18.3513 34.1274,23.5 27.5,23.5 L12.5,23.5 C5.87258,23.5 0.5,18.3513 0.5,12 "/>
</g>

<g fill="#ffffff" fill-opacity="1" stroke="none" transform="matrix(1,0,0,1,135,22)"
font-family="Inter" font-size="11" font-weight="700" font-style="normal" 
>
<path vector-effect="none" fill-rule="nonzero" d="M11.8242,16 L10.0117,16 L12.7734,8 L14.9531,8 L17.7109,16 L15.8984,16 L13.8945,9.82813 L13.832,9.82813 L11.8242,16 M11.7109,12.8555 L15.9922,12.8555 L15.9922,14.1758 L11.7109,14.1758 L11.7109,12.8555"/>
</g>

<g fill="#ffffff" fill-opacity="1" stroke="none" transform="matrix(0.03125,0,0,0.03125,161,30)"
font-family="Inter" font-size="11" font-weight="700" font-style="normal" 
>
<path vector-effect="none" fill-rule="nonzero" d="M111.326,191.938 C120.545,201.158 135.517,201.158 144.737,191.938 L239.144,97.5313 C245.929,90.7458 247.921,80.6413 244.233,71.7907 C240.545,62.9401 231.989,57.1871 222.401,57.1871 L33.5875,57.2608 C24.0731,57.2608 15.4437,63.0137 11.7559,71.8644 C8.06815,80.715 10.1333,90.8195 16.845,97.605 L111.252,192.012 L111.326,191.938"/>
</g>

<g fill="none" stroke="#000000" stroke-opacity="1" stroke-width="13.7195" stroke-linecap="butt" stroke-linejoin="miter" stroke-miterlimit="4" transform="matrix(0.03125,0,0,0.03125,161,30)"
font-family="Inter" font-size="11" font-weight="700" font-style="normal" 
>
<path vector-effect="none" fill-rule="nonzero" d="M111.326,191.938 C120.545,201.158 135.517,201.158 144.737,191.938 L239.144,97.5313 C245.929,90.7458 247.921,80.6413 244.233,71.7907 C240.545,62.9401 231.989,57.1871 222.401,57.1871 L33.5875,57.2608 C24.0731,57.2608 15.4437,63.0137 11.7559,71.8644 C8.06815,80.715 10.1333,90.8195 16.845,97.605 L111.252,192.012 L111.326,191.938"/>
</g>

<g fill="#ffffff" fill-opacity="1" stroke="none" transform="matrix(1,0,0,1,135,22)"
font-family="Inter" font-size="11" font-weight="700" font-style="normal" 
>
</g>

<g fill="#ffffff" fill-opacity="1" stroke="#ba9500" stroke-opacity="1" stroke-width="1" stroke-linecap="square" stroke-linejoin="bevel" transform="matrix(1,0,0,1,0,0)"
font-family="Inter" font-size="11" font-weight="700" font-style="normal" 
>
</g>

<g fill="#ffffff" fill-opacity="1" stroke="#ba9500" stroke-opacity="1" stroke-width="1" stroke-linecap="square" stroke-linejoin="bevel" transform="matrix(1,0,0,1,0,0)"
font-family="Inter" font-size="11" font-weight="700" font-style="normal" 
>
</g>

<g fill="#ffffff" fill-opacity="1" stroke="#ba9500" stroke-opacity="1" stroke-width="1" stroke-linecap="square" stroke-linejoin="bevel" transform="matrix(1,0,0,1,0,0)"
font-family="Inter" font-size="11" font-weight="700" font-style="normal" 
>
</g>

<g fill="#ffffff" fill-opacity="1" stroke="#a68500" stroke-opacity="1" stroke-width="1.2" stroke-linecap="square" stroke-linejoin="bevel" transform="matrix(1,0,0,1,311.5,23)"
font-family="Inter" font-size="11" font-weight="700" font-style="normal" 
>
<path vector-effect="none" fill-rule="evenodd" d="M1,11 C1,5.47715 5.92487,1 12,1 L14.4,1 C20.4751,1 25.4,5.47715 25.4,11 C25.4,16.5228 20.4751,21 14.4,21 L12,21 C5.92487,21 1,16.5228 1,11 "/>
</g>

<g fill="#000000" fill-opacity="1" stroke="none" transform="matrix(1,0,0,1,311.5,23)"
font-family="Inter" font-size="10" font-weight="700" font-style="normal" 
>
<path vector-effect="none" fill-rule="nonzero" d="M10.7536,7.14915 L10.7536,14.4219 L9.21591,14.4219 L9.21591,8.60866 L9.1733,8.60866 L7.50781,9.6527 L7.50781,8.28906 L9.30824,7.14915 L10.7536,7.14915 M15.3317,14.5817 C14.7209,14.5793 14.1959,14.429 13.7567,14.1307 C13.3176,13.8324 12.9802,13.4003 12.7447,12.8345 C12.5091,12.2687 12.3925,11.5881 12.3949,10.7926 C12.3949,9.99953 12.5127,9.32363 12.7482,8.76491 C12.9838,8.2062 13.3211,7.78066 13.7603,7.48828 C14.1995,7.1959 14.7232,7.04972 15.3317,7.04972 C15.9401,7.04972 16.4639,7.1965 16.9031,7.49006 C17.3422,7.78362 17.6802,8.20916 17.9169,8.76669 C18.1536,9.32422 18.2708,9.99953 18.2685,10.7926 C18.2685,11.5904 18.1507,12.2723 17.9151,12.8381 C17.6796,13.4039 17.3428,13.8359 16.9048,14.1342 C16.4669,14.4325 15.9425,14.5817 15.3317,14.5817 M15.3317,13.3068 C15.7483,13.3068 16.081,13.0973 16.3295,12.6783 C16.5781,12.2592 16.7012,11.6307 16.6989,10.7926 C16.6989,10.241 16.6426,9.78172 16.5302,9.41477 C16.4177,9.04782 16.2591,8.77202 16.0543,8.58736 C15.8496,8.4027 15.6087,8.31037 15.3317,8.31037 C14.9174,8.31037 14.5859,8.51752 14.3374,8.93182 C14.0888,9.34612 13.9633,9.96638 13.9609,10.7926 C13.9609,11.3513 14.0172,11.8171 14.1296,12.19 C14.2421,12.5629 14.4013,12.8422 14.6072,13.0281 C14.8132,13.2139 15.0547,13.3068 15.3317,13.3068 "/>
</g>

<g fill="#ffffff" fill-opacity="1" stroke="#ba9500" stroke-opacity="1" stroke-width="1" stroke-linecap="square" stroke-linejoin="bevel" transform="matrix(1,0,0,1,0,0)"
font-family="Inter" font-size="11" font-weight="700" font-style="normal" 
>
</g>

<g fill="none" stroke="#000000" stroke-opacity="1" stroke-width="1" stroke-linecap="square" stroke-linejoin="bevel" transform="matrix(1,0,0,1,0,0)"
font-family=".AppleSystemUIFont" font-size="13" font-weight="400" font-style="normal" 
>
</g>
</g>
</svg>
