<?xml version="1.0" encoding="UTF-8" standalone="no"?>
<svg width="110.772mm" height="15.5222mm"
 viewBox="0 0 314 44"
 xmlns="http://www.w3.org/2000/svg" xmlns:xlink="http://www.w3.org/1999/xlink" version="1.2" baseProfile="tiny">
<title>Abstract block</title>
<desc>block_hubs_technicmove_sensors_set_power_mode</desc>
<defs>
</defs>
<g fill="none" stroke="black" stroke-width="1" fill-rule="evenodd" stroke-linecap="square" stroke-linejoin="bevel" >

<g fill="none" stroke="#000000" stroke-opacity="1" stroke-width="1" stroke-linecap="square" stroke-linejoin="bevel" transform="matrix(1,0,0,1,0,0)"
font-family=".AppleSystemUIFont" font-size="13" font-weight="400" font-style="normal" 
>
</g>

<g fill="none" stroke="#000000" stroke-opacity="1" stroke-width="1" stroke-linecap="square" stroke-linejoin="bevel" transform="matrix(1,0,0,1,0,0)"
font-family=".AppleSystemUIFont" font-size="13" font-weight="400" font-style="normal" 
>
</g>

<g fill="#1dccf0" fill-opacity="1" stroke="#0da6c5" stroke-opacity="1" stroke-width="1.2" stroke-linecap="square" stroke-linejoin="bevel" transform="matrix(1,0,0,1,0,0)"
font-family=".AppleSystemUIFont" font-size="13" font-weight="400" font-style="normal" 
>
<path vector-effect="none" fill-rule="evenodd" d="M0.5,4.5 L1.04612,2.48112 L2.48112,1.04612 L4.5,0.5 L9.625,0.5 L10.416,0.976563 L11.1719,1.6875 L11.998,2.67969 L13,4 L13.7559,4.66016 L14.5469,5.15625 L15.4082,5.51172 L16.375,5.75 L17.4824,5.89453 L18.7656,5.96875 L20.2598,5.99609 L22,6 L23.7402,5.99609 L25.2344,5.96875 L26.5176,5.89453 L27.625,5.75 L28.5918,5.51172 L29.4531,5.15625 L30.2441,4.66016 L31,4 L32.002,2.67969 L32.8281,1.6875 L33.584,0.976563 L34.375,0.5 L309.5,0.5 L311.519,1.04612 L312.954,2.48112 L313.5,4.5 L313.5,31.5 L312.954,33.5189 L311.519,34.9539 L309.5,35.5 L34.375,35.5 L33.584,35.9766 L32.8281,36.6875 L32.002,37.6797 L31,39 L30.2441,39.6602 L29.4531,40.1563 L28.5918,40.5117 L27.625,40.75 L26.5176,40.8945 L25.2344,40.9688 L23.7402,40.9961 L22,41 L20.2598,40.9961 L18.7656,40.9688 L17.4824,40.8945 L16.375,40.75 L15.4082,40.5117 L14.5469,40.1563 L13.7559,39.6602 L13,39 L11.998,37.6797 L11.1719,36.6875 L10.416,35.9766 L9.625,35.5 L4.5,35.5 L2.48112,34.9539 L1.04612,33.5189 L0.5,31.5 L0.5,4.5"/>
</g>

<g fill="#ffffff" fill-opacity="1" stroke="none" transform="matrix(1,0,0,1,0,0)"
font-family="Inter" font-size="11" font-weight="700" font-style="normal" 
>
<path vector-effect="none" fill-rule="nonzero" d="M152.094,16.5391 L150.57,16.6328 C150.544,16.5026 150.488,16.3848 150.402,16.2793 C150.316,16.1738 150.204,16.0892 150.064,16.0254 C149.925,15.9616 149.759,15.9297 149.566,15.9297 C149.309,15.9297 149.091,15.9837 148.914,16.0918 C148.737,16.1999 148.648,16.3438 148.648,16.5234 C148.648,16.6667 148.706,16.7878 148.82,16.8867 C148.935,16.9857 149.132,17.0651 149.41,17.125 L150.496,17.3438 C151.079,17.4635 151.514,17.6563 151.801,17.9219 C152.087,18.1875 152.23,18.5365 152.23,18.9688 C152.23,19.362 152.115,19.707 151.885,20.0039 C151.654,20.3008 151.339,20.5319 150.939,20.6973 C150.54,20.8626 150.079,20.9453 149.559,20.9453 C148.764,20.9453 148.132,20.7793 147.662,20.4473 C147.192,20.1152 146.917,19.6628 146.836,19.0898 L148.473,19.0039 C148.522,19.2461 148.642,19.4303 148.832,19.5566 C149.022,19.6829 149.266,19.7461 149.563,19.7461 C149.854,19.7461 150.089,19.6895 150.268,19.5762 C150.446,19.4629 150.536,19.3164 150.539,19.1367 C150.536,18.9857 150.473,18.8613 150.348,18.7637 C150.223,18.666 150.03,18.5911 149.77,18.5391 L148.73,18.332 C148.145,18.2148 147.709,18.0117 147.424,17.7227 C147.139,17.4336 146.996,17.0651 146.996,16.6172 C146.996,16.2318 147.101,15.8997 147.311,15.6211 C147.52,15.3424 147.816,15.1276 148.197,14.9766 C148.579,14.8255 149.026,14.75 149.539,14.75 C150.297,14.75 150.894,14.9102 151.33,15.2305 C151.766,15.5508 152.021,15.987 152.094,16.5391 M156.008,20.9453 C155.391,20.9453 154.86,20.8197 154.416,20.5684 C153.972,20.3171 153.63,19.9603 153.391,19.498 C153.151,19.0358 153.031,18.4883 153.031,17.8555 C153.031,17.2383 153.151,16.6966 153.391,16.2305 C153.63,15.7643 153.968,15.401 154.404,15.1406 C154.84,14.8802 155.353,14.75 155.941,14.75 C156.337,14.75 156.706,14.8132 157.049,14.9395 C157.391,15.0658 157.691,15.2552 157.947,15.5078 C158.204,15.7604 158.404,16.0775 158.547,16.459 C158.69,16.8405 158.762,17.2865 158.762,17.7969 L158.762,18.2539 L153.695,18.2539 L153.695,17.2227 L157.195,17.2227 C157.195,16.9831 157.143,16.7708 157.039,16.5859 C156.935,16.401 156.791,16.2559 156.607,16.1504 C156.424,16.0449 156.211,15.9922 155.969,15.9922 C155.716,15.9922 155.493,16.0501 155.299,16.166 C155.105,16.2819 154.953,16.4368 154.844,16.6309 C154.734,16.8249 154.678,17.0404 154.676,17.2773 L154.676,18.2578 C154.676,18.5547 154.731,18.8112 154.842,19.0273 C154.952,19.2435 155.109,19.4102 155.313,19.5273 C155.516,19.6445 155.757,19.7031 156.035,19.7031 C156.22,19.7031 156.389,19.6771 156.543,19.625 C156.697,19.5729 156.828,19.4948 156.938,19.3906 C157.047,19.2865 157.13,19.1589 157.188,19.0078 L158.727,19.1094 C158.648,19.4792 158.489,19.8014 158.248,20.0762 C158.007,20.3509 157.697,20.5645 157.318,20.7168 C156.939,20.8691 156.503,20.9453 156.008,20.9453 M163.027,14.8281 L163.027,16.0781 L159.414,16.0781 L159.414,14.8281 L163.027,14.8281 M160.234,13.3906 L161.898,13.3906 L161.898,18.9844 C161.898,19.138 161.922,19.2572 161.969,19.3418 C162.016,19.4264 162.081,19.4857 162.166,19.5195 C162.251,19.5534 162.349,19.5703 162.461,19.5703 C162.539,19.5703 162.617,19.5632 162.695,19.5488 C162.773,19.5345 162.833,19.5234 162.875,19.5156 L163.137,20.7539 C163.053,20.7799 162.936,20.8105 162.785,20.8457 C162.634,20.8809 162.451,20.9023 162.234,20.9102 C161.833,20.9258 161.482,20.8724 161.182,20.75 C160.881,20.6276 160.647,20.4375 160.48,20.1797 C160.314,19.9219 160.232,19.5964 160.234,19.2031 L160.234,13.3906 M166.648,23.0781 L166.648,14.8281 L168.289,14.8281 L168.289,15.8359 L168.363,15.8359 C168.436,15.6745 168.542,15.5098 168.682,15.3418 C168.821,15.1738 169.003,15.0332 169.229,14.9199 C169.454,14.8066 169.734,14.75 170.07,14.75 C170.508,14.75 170.911,14.8639 171.281,15.0918 C171.651,15.3197 171.947,15.6621 172.168,16.1191 C172.389,16.5762 172.5,17.1484 172.5,17.8359 C172.5,18.5052 172.393,19.0697 172.178,19.5293 C171.963,19.9889 171.671,20.3366 171.303,20.5723 C170.934,20.8079 170.522,20.9258 170.066,20.9258 C169.743,20.9258 169.469,20.8724 169.244,20.7656 C169.019,20.6589 168.835,20.5241 168.691,20.3613 C168.548,20.1986 168.439,20.0339 168.363,19.8672 L168.313,19.8672 L168.313,23.0781 L166.648,23.0781 M168.277,17.8281 C168.277,18.1849 168.327,18.4961 168.426,18.7617 C168.525,19.0273 168.668,19.2337 168.855,19.3809 C169.043,19.528 169.271,19.6016 169.539,19.6016 C169.81,19.6016 170.039,19.5267 170.227,19.377 C170.414,19.2272 170.557,19.0189 170.654,18.752 C170.752,18.485 170.801,18.1771 170.801,17.8281 C170.801,17.4818 170.753,17.1771 170.656,16.9141 C170.56,16.651 170.418,16.4453 170.23,16.2969 C170.043,16.1484 169.813,16.0742 169.539,16.0742 C169.268,16.0742 169.04,16.1458 168.854,16.2891 C168.667,16.4323 168.525,16.6354 168.426,16.8984 C168.327,17.1615 168.277,17.4714 168.277,17.8281 M176.313,20.9453 C175.706,20.9453 175.182,20.8158 174.74,20.5566 C174.299,20.2975 173.958,19.9355 173.719,19.4707 C173.479,19.0059 173.359,18.4661 173.359,17.8516 C173.359,17.2318 173.479,16.6895 173.719,16.2246 C173.958,15.7598 174.299,15.3978 174.74,15.1387 C175.182,14.8796 175.706,14.75 176.313,14.75 C176.919,14.75 177.443,14.8796 177.885,15.1387 C178.326,15.3978 178.667,15.7598 178.906,16.2246 C179.146,16.6895 179.266,17.2318 179.266,17.8516 C179.266,18.4661 179.146,19.0059 178.906,19.4707 C178.667,19.9355 178.326,20.2975 177.885,20.5566 C177.443,20.8158 176.919,20.9453 176.313,20.9453 M176.32,19.6563 C176.596,19.6563 176.827,19.5775 177.012,19.4199 C177.197,19.2624 177.337,19.0469 177.432,18.7734 C177.527,18.5 177.574,18.1888 177.574,17.8398 C177.574,17.4909 177.527,17.1797 177.432,16.9063 C177.337,16.6328 177.197,16.4167 177.012,16.2578 C176.827,16.099 176.596,16.0195 176.32,16.0195 C176.042,16.0195 175.808,16.099 175.619,16.2578 C175.43,16.4167 175.288,16.6328 175.193,16.9063 C175.098,17.1797 175.051,17.4909 175.051,17.8398 C175.051,18.1888 175.098,18.5 175.193,18.7734 C175.288,19.0469 175.43,19.2624 175.619,19.4199 C175.808,19.5775 176.042,19.6563 176.32,19.6563 M181.395,20.8281 L179.762,14.8281 L181.445,14.8281 L182.375,18.8594 L182.43,18.8594 L183.398,14.8281 L185.051,14.8281 L186.035,18.8359 L186.086,18.8359 L187,14.8281 L188.68,14.8281 L187.051,20.8281 L185.289,20.8281 L184.258,17.0547 L184.184,17.0547 L183.152,20.8281 L181.395,20.8281 M192.148,20.9453 C191.531,20.9453 191.001,20.8197 190.557,20.5684 C190.113,20.3171 189.771,19.9603 189.531,19.498 C189.292,19.0358 189.172,18.4883 189.172,17.8555 C189.172,17.2383 189.292,16.6966 189.531,16.2305 C189.771,15.7643 190.109,15.401 190.545,15.1406 C190.981,14.8802 191.493,14.75 192.082,14.75 C192.478,14.75 192.847,14.8132 193.189,14.9395 C193.532,15.0658 193.831,15.2552 194.088,15.5078 C194.344,15.7604 194.544,16.0775 194.688,16.459 C194.831,16.8405 194.902,17.2865 194.902,17.7969 L194.902,18.2539 L189.836,18.2539 L189.836,17.2227 L193.336,17.2227 C193.336,16.9831 193.284,16.7708 193.18,16.5859 C193.076,16.401 192.932,16.2559 192.748,16.1504 C192.564,16.0449 192.352,15.9922 192.109,15.9922 C191.857,15.9922 191.633,16.0501 191.439,16.166 C191.245,16.2819 191.094,16.4368 190.984,16.6309 C190.875,16.8249 190.819,17.0404 190.816,17.2773 L190.816,18.2578 C190.816,18.5547 190.872,18.8112 190.982,19.0273 C191.093,19.2435 191.25,19.4102 191.453,19.5273 C191.656,19.6445 191.897,19.7031 192.176,19.7031 C192.361,19.7031 192.53,19.6771 192.684,19.625 C192.837,19.5729 192.969,19.4948 193.078,19.3906 C193.188,19.2865 193.271,19.1589 193.328,19.0078 L194.867,19.1094 C194.789,19.4792 194.63,19.8014 194.389,20.0762 C194.148,20.3509 193.838,20.5645 193.459,20.7168 C193.08,20.8691 192.643,20.9453 192.148,20.9453 M195.977,20.8281 L195.977,14.8281 L197.59,14.8281 L197.59,15.875 L197.652,15.875 C197.762,15.5026 197.945,15.2207 198.203,15.0293 C198.461,14.8379 198.758,14.7422 199.094,14.7422 C199.177,14.7422 199.267,14.7474 199.363,14.7578 C199.46,14.7682 199.544,14.7826 199.617,14.8008 L199.617,16.2773 C199.539,16.2539 199.431,16.2331 199.293,16.2148 C199.155,16.1966 199.029,16.1875 198.914,16.1875 C198.669,16.1875 198.451,16.2402 198.26,16.3457 C198.068,16.4512 197.917,16.5977 197.807,16.7852 C197.696,16.9727 197.641,17.1888 197.641,17.4336 L197.641,20.8281 L195.977,20.8281 M203.008,20.8281 L203.008,14.8281 L204.594,14.8281 L204.594,15.8867 L204.664,15.8867 C204.789,15.5352 204.997,15.2578 205.289,15.0547 C205.581,14.8516 205.93,14.75 206.336,14.75 C206.747,14.75 207.098,14.8522 207.387,15.0566 C207.676,15.2611 207.868,15.5378 207.965,15.8867 L208.027,15.8867 C208.15,15.543 208.372,15.2676 208.693,15.0605 C209.015,14.8535 209.396,14.75 209.836,14.75 C210.396,14.75 210.851,14.9277 211.201,15.2832 C211.551,15.6387 211.727,16.1419 211.727,16.793 L211.727,20.8281 L210.066,20.8281 L210.066,17.1211 C210.066,16.7878 209.978,16.5378 209.801,16.3711 C209.624,16.2044 209.402,16.1211 209.137,16.1211 C208.835,16.1211 208.599,16.2168 208.43,16.4082 C208.26,16.5996 208.176,16.8516 208.176,17.1641 L208.176,20.8281 L206.563,20.8281 L206.563,17.0859 C206.563,16.7917 206.479,16.5573 206.311,16.3828 C206.143,16.2083 205.922,16.1211 205.648,16.1211 C205.464,16.1211 205.298,16.1673 205.15,16.2598 C205.003,16.3522 204.887,16.4811 204.801,16.6465 C204.715,16.8118 204.672,17.0052 204.672,17.2266 L204.672,20.8281 L203.008,20.8281 M215.75,20.9453 C215.143,20.9453 214.619,20.8158 214.178,20.5566 C213.736,20.2975 213.396,19.9355 213.156,19.4707 C212.917,19.0059 212.797,18.4661 212.797,17.8516 C212.797,17.2318 212.917,16.6895 213.156,16.2246 C213.396,15.7598 213.736,15.3978 214.178,15.1387 C214.619,14.8796 215.143,14.75 215.75,14.75 C216.357,14.75 216.881,14.8796 217.322,15.1387 C217.764,15.3978 218.104,15.7598 218.344,16.2246 C218.583,16.6895 218.703,17.2318 218.703,17.8516 C218.703,18.4661 218.583,19.0059 218.344,19.4707 C218.104,19.9355 217.764,20.2975 217.322,20.5566 C216.881,20.8158 216.357,20.9453 215.75,20.9453 M215.758,19.6563 C216.034,19.6563 216.264,19.5775 216.449,19.4199 C216.634,19.2624 216.774,19.0469 216.869,18.7734 C216.964,18.5 217.012,18.1888 217.012,17.8398 C217.012,17.4909 216.964,17.1797 216.869,16.9063 C216.774,16.6328 216.634,16.4167 216.449,16.2578 C216.264,16.099 216.034,16.0195 215.758,16.0195 C215.479,16.0195 215.245,16.099 215.057,16.2578 C214.868,16.4167 214.726,16.6328 214.631,16.9063 C214.536,17.1797 214.488,17.4909 214.488,17.8398 C214.488,18.1888 214.536,18.5 214.631,18.7734 C214.726,19.0469 214.868,19.2624 215.057,19.4199 C215.245,19.5775 215.479,19.6563 215.758,19.6563 M222,20.9258 C221.544,20.9258 221.132,20.8079 220.764,20.5723 C220.395,20.3366 220.104,19.9889 219.889,19.5293 C219.674,19.0697 219.566,18.5052 219.566,17.8359 C219.566,17.1484 219.677,16.5762 219.898,16.1191 C220.12,15.6621 220.415,15.3197 220.783,15.0918 C221.152,14.8639 221.556,14.75 221.996,14.75 C222.332,14.75 222.613,14.8066 222.838,14.9199 C223.063,15.0332 223.245,15.1738 223.385,15.3418 C223.524,15.5098 223.63,15.6745 223.703,15.8359 L223.754,15.8359 L223.754,12.8281 L225.414,12.8281 L225.414,20.8281 L223.773,20.8281 L223.773,19.8672 L223.703,19.8672 C223.625,20.0339 223.515,20.1986 223.373,20.3613 C223.231,20.5241 223.048,20.6589 222.822,20.7656 C222.597,20.8724 222.323,20.9258 222,20.9258 M222.527,19.6016 C222.796,19.6016 223.023,19.528 223.209,19.3809 C223.395,19.2337 223.538,19.0273 223.639,18.7617 C223.739,18.4961 223.789,18.1849 223.789,17.8281 C223.789,17.4714 223.74,17.1615 223.641,16.8984 C223.542,16.6354 223.398,16.4323 223.211,16.2891 C223.023,16.1458 222.796,16.0742 222.527,16.0742 C222.254,16.0742 222.023,16.1484 221.836,16.2969 C221.648,16.4453 221.507,16.651 221.41,16.9141 C221.314,17.1771 221.266,17.4818 221.266,17.8281 C221.266,18.1771 221.314,18.485 221.412,18.752 C221.51,19.0189 221.652,19.2272 221.838,19.377 C222.024,19.5267 222.254,19.6016 222.527,19.6016 M229.508,20.9453 C228.891,20.9453 228.36,20.8197 227.916,20.5684 C227.472,20.3171 227.13,19.9603 226.891,19.498 C226.651,19.0358 226.531,18.4883 226.531,17.8555 C226.531,17.2383 226.651,16.6966 226.891,16.2305 C227.13,15.7643 227.468,15.401 227.904,15.1406 C228.34,14.8802 228.853,14.75 229.441,14.75 C229.837,14.75 230.206,14.8132 230.549,14.9395 C230.891,15.0658 231.191,15.2552 231.447,15.5078 C231.704,15.7604 231.904,16.0775 232.047,16.459 C232.19,16.8405 232.262,17.2865 232.262,17.7969 L232.262,18.2539 L227.195,18.2539 L227.195,17.2227 L230.695,17.2227 C230.695,16.9831 230.643,16.7708 230.539,16.5859 C230.435,16.401 230.291,16.2559 230.107,16.1504 C229.924,16.0449 229.711,15.9922 229.469,15.9922 C229.216,15.9922 228.993,16.0501 228.799,16.166 C228.605,16.2819 228.453,16.4368 228.344,16.6309 C228.234,16.8249 228.178,17.0404 228.176,17.2773 L228.176,18.2578 C228.176,18.5547 228.231,18.8112 228.342,19.0273 C228.452,19.2435 228.609,19.4102 228.813,19.5273 C229.016,19.6445 229.257,19.7031 229.535,19.7031 C229.72,19.7031 229.889,19.6771 230.043,19.625 C230.197,19.5729 230.328,19.4948 230.438,19.3906 C230.547,19.2865 230.63,19.1589 230.688,19.0078 L232.227,19.1094 C232.148,19.4792 231.989,19.8014 231.748,20.0762 C231.507,20.3509 231.197,20.5645 230.818,20.7168 C230.439,20.8691 230.003,20.9453 229.508,20.9453 "/>
</g>

<g fill="#ffffff" fill-opacity="1" stroke="none" transform="matrix(0.228,0,0,0.228,11.6,9.6)"
font-family="Inter" font-size="11" font-weight="700" font-style="normal" 
>
<path vector-effect="none" fill-rule="nonzero" d="M42.7065,5.15112 C41.6974,5.15112 40.885,5.9635 40.885,6.97266 L40.885,12.261 L29.4482,12.261 C28.4391,12.261 27.6267,13.0734 27.6267,14.0825 L27.6267,93.0273 C27.6267,94.0365 28.4391,94.8489 29.4482,94.8489 L70.5518,94.8489 C71.5609,94.8489 72.3733,94.0365 72.3733,93.0273 L72.3733,14.0825 C72.3733,13.0734 71.5609,12.261 70.5518,12.261 L59.115,12.261 L59.115,6.97266 C59.115,5.9635 58.3026,5.15112 57.2935,5.15112 L42.7065,5.15112 M48.6768,61.0757 L51.3232,61.0757 L51.3232,71.2551 L48.6768,71.2551 L48.6768,61.0757 M47.5464,75.9375 L52.4536,75.9375 C53.4628,75.9375 54.2754,76.7499 54.2754,77.759 L54.2754,82.6665 C54.2754,83.6757 53.4628,84.488 52.4536,84.488 L47.5464,84.488 C46.5372,84.488 45.7246,83.6757 45.7246,82.6665 L45.7246,77.759 C45.7246,76.7499 46.5372,75.9375 47.5464,75.9375 "/>
</g>

<g fill="none" stroke="#000000" stroke-opacity="1" stroke-width="0.878375" stroke-linecap="round" stroke-linejoin="round" transform="matrix(0.228,0,0,0.228,11.6,9.6)"
font-family="Inter" font-size="11" font-weight="700" font-style="normal" 
>
<path vector-effect="none" fill-rule="evenodd" d="M45.7247,77.6884 C45.7247,76.6823 46.5402,75.8668 47.5463,75.8668 L52.4537,75.8668 C53.4598,75.8668 54.2753,76.6823 54.2753,77.6884 L54.2753,82.5958 C54.2753,83.6018 53.4598,84.4174 52.4537,84.4174 L47.5463,84.4174 C46.5402,84.4174 45.7247,83.6018 45.7247,82.5958 L45.7247,77.6884"/>
</g>

<g fill="none" stroke="#000000" stroke-opacity="1" stroke-width="0.878375" stroke-linecap="round" stroke-linejoin="round" transform="matrix(0.228,0,0,0.228,11.6,9.6)"
font-family="Inter" font-size="11" font-weight="700" font-style="normal" 
>
<rect x="48.6767" y="60.9446" width="2.64662" height="10.1793"/>
</g>

<g fill="#ffffff" fill-opacity="1" stroke="none" transform="matrix(0.228,0,0,0.228,11.6,9.6)"
font-family="Inter" font-size="11" font-weight="700" font-style="normal" 
>
<path vector-effect="none" fill-rule="evenodd" d="M27.5287,13.8717 C27.5287,13.19 28.0814,12.6373 28.7631,12.6373 L32.414,12.6373 C33.0958,12.6373 33.6484,13.19 33.6484,13.8717 L33.6484,93.3873 C33.6484,94.069 33.0958,94.6217 32.414,94.6217 L28.7631,94.6217 C28.0814,94.6217 27.5287,94.069 27.5287,93.3873 L27.5287,13.8717"/>
</g>

<g fill="none" stroke="#000000" stroke-opacity="1" stroke-width="0.876378" stroke-linecap="round" stroke-linejoin="round" transform="matrix(0.228,0,0,0.228,11.6,9.6)"
font-family="Inter" font-size="11" font-weight="700" font-style="normal" 
>
<path vector-effect="none" fill-rule="evenodd" d="M27.5287,13.8717 C27.5287,13.19 28.0814,12.6373 28.7631,12.6373 L32.414,12.6373 C33.0958,12.6373 33.6484,13.19 33.6484,13.8717 L33.6484,93.3873 C33.6484,94.069 33.0958,94.6217 32.414,94.6217 L28.7631,94.6217 C28.0814,94.6217 27.5287,94.069 27.5287,93.3873 L27.5287,13.8717"/>
</g>

<g fill="#ffffff" fill-opacity="1" stroke="none" transform="matrix(0.228,0,0,0.228,11.6,9.6)"
font-family="Inter" font-size="11" font-weight="700" font-style="normal" 
>
<path vector-effect="none" fill-rule="evenodd" d="M27.4607,37.9574 C27.4607,37.5662 27.7779,37.2491 28.1691,37.2491 L33.0081,37.2491 C33.3993,37.2491 33.7165,37.5662 33.7165,37.9574 L33.7165,93.7774 C33.7165,94.1686 33.3993,94.4858 33.0081,94.4858 L28.1691,94.4858 C27.7779,94.4858 27.4607,94.1686 27.4607,93.7774 L27.4607,37.9574"/>
</g>

<g fill="none" stroke="#000000" stroke-opacity="1" stroke-width="0.74035" stroke-linecap="round" stroke-linejoin="round" transform="matrix(0.228,0,0,0.228,11.6,9.6)"
font-family="Inter" font-size="11" font-weight="700" font-style="normal" 
>
<path vector-effect="none" fill-rule="evenodd" d="M27.4607,37.9574 C27.4607,37.5662 27.7779,37.2491 28.1691,37.2491 L33.0081,37.2491 C33.3993,37.2491 33.7165,37.5662 33.7165,37.9574 L33.7165,93.7774 C33.7165,94.1686 33.3993,94.4858 33.0081,94.4858 L28.1691,94.4858 C27.7779,94.4858 27.4607,94.1686 27.4607,93.7774 L27.4607,37.9574"/>
</g>

<g fill="#ffffff" fill-opacity="1" stroke="none" transform="matrix(0.228,0,0,0.228,11.6,9.6)"
font-family="Inter" font-size="11" font-weight="700" font-style="normal" 
>
<path vector-effect="none" fill-rule="evenodd" d="M66.0713,13.2551 C66.0713,12.6919 66.5278,12.2354 67.091,12.2354 L71.1694,12.2354 C71.7326,12.2354 72.1891,12.6919 72.1891,13.2551 L72.1891,93.6011 C72.1891,94.1642 71.7326,94.6207 71.1694,94.6207 L67.091,94.6207 C66.5278,94.6207 66.0713,94.1642 66.0713,93.6011 L66.0713,13.2551"/>
</g>

<g fill="none" stroke="#000000" stroke-opacity="1" stroke-width="0.878375" stroke-linecap="round" stroke-linejoin="round" transform="matrix(0.228,0,0,0.228,11.6,9.6)"
font-family="Inter" font-size="11" font-weight="700" font-style="normal" 
>
<path vector-effect="none" fill-rule="evenodd" d="M66.0713,13.2551 C66.0713,12.6919 66.5278,12.2354 67.091,12.2354 L71.1694,12.2354 C71.7326,12.2354 72.1891,12.6919 72.1891,13.2551 L72.1891,93.6011 C72.1891,94.1642 71.7326,94.6207 71.1694,94.6207 L67.091,94.6207 C66.5278,94.6207 66.0713,94.1642 66.0713,93.6011 L66.0713,13.2551"/>
</g>

<g fill="#ffffff" fill-opacity="1" stroke="none" transform="matrix(0.228,0,0,0.228,11.6,9.6)"
font-family="Inter" font-size="11" font-weight="700" font-style="normal" 
>
<path vector-effect="none" fill-rule="evenodd" d="M66.2063,37.9574 C66.2063,37.5662 66.5234,37.2491 66.9146,37.2491 L71.7536,37.2491 C72.1448,37.2491 72.462,37.5662 72.462,37.9574 L72.462,93.7774 C72.462,94.1686 72.1448,94.4858 71.7536,94.4858 L66.9146,94.4858 C66.5234,94.4858 66.2063,94.1686 66.2063,93.7774 L66.2063,37.9574"/>
</g>

<g fill="none" stroke="#000000" stroke-opacity="1" stroke-width="0.74035" stroke-linecap="round" stroke-linejoin="round" transform="matrix(0.228,0,0,0.228,11.6,9.6)"
font-family="Inter" font-size="11" font-weight="700" font-style="normal" 
>
<path vector-effect="none" fill-rule="evenodd" d="M66.2063,37.9574 C66.2063,37.5662 66.5234,37.2491 66.9146,37.2491 L71.7536,37.2491 C72.1448,37.2491 72.462,37.5662 72.462,37.9574 L72.462,93.7774 C72.462,94.1686 72.1448,94.4858 71.7536,94.4858 L66.9146,94.4858 C66.5234,94.4858 66.2063,94.1686 66.2063,93.7774 L66.2063,37.9574"/>
</g>

<g fill="#000000" fill-opacity="1" stroke="none" transform="matrix(0.228,0,0,0.228,11.6,9.6)"
font-family="Inter" font-size="11" font-weight="700" font-style="normal" 
>
<path vector-effect="none" fill-rule="evenodd" d="M21.2542,51.5904 C21.2542,51.1991 21.5713,50.882 21.9625,50.882 L26.4596,50.882 C26.8508,50.882 27.168,51.1991 27.168,51.5904 L27.168,67.915 C27.168,68.3062 26.8508,68.6234 26.4596,68.6234 L21.9625,68.6234 C21.5713,68.6234 21.2542,68.3062 21.2542,67.915 L21.2542,51.5904"/>
</g>

<g fill="none" stroke="#000000" stroke-opacity="1" stroke-width="0.878375" stroke-linecap="round" stroke-linejoin="round" transform="matrix(0.228,0,0,0.228,11.6,9.6)"
font-family="Inter" font-size="11" font-weight="700" font-style="normal" 
>
<path vector-effect="none" fill-rule="evenodd" d="M21.2542,51.5904 C21.2542,51.1991 21.5713,50.882 21.9625,50.882 L26.4596,50.882 C26.8508,50.882 27.168,51.1991 27.168,51.5904 L27.168,67.915 C27.168,68.3062 26.8508,68.6234 26.4596,68.6234 L21.9625,68.6234 C21.5713,68.6234 21.2542,68.3062 21.2542,67.915 L21.2542,51.5904"/>
</g>

<g fill="#000000" fill-opacity="1" stroke="none" transform="matrix(0.228,0,0,0.228,11.6,9.6)"
font-family="Inter" font-size="11" font-weight="700" font-style="normal" 
>
<path vector-effect="none" fill-rule="evenodd" d="M21.3192,89.1962 C21.3192,88.7767 21.6592,88.4367 22.0787,88.4367 L26.8092,88.4367 C27.2286,88.4367 27.5687,88.7767 27.5687,89.1962 L27.5687,94.0857 C27.5687,94.5051 27.2286,94.8452 26.8092,94.8452 L22.0787,94.8452 C21.6592,94.8452 21.3192,94.5051 21.3192,94.0857 L21.3192,89.1962"/>
</g>

<g fill="none" stroke="#000000" stroke-opacity="1" stroke-width="0.88025" stroke-linecap="round" stroke-linejoin="round" transform="matrix(0.228,0,0,0.228,11.6,9.6)"
font-family="Inter" font-size="11" font-weight="700" font-style="normal" 
>
<path vector-effect="none" fill-rule="evenodd" d="M21.3192,89.1962 C21.3192,88.7767 21.6592,88.4367 22.0787,88.4367 L26.8092,88.4367 C27.2286,88.4367 27.5687,88.7767 27.5687,89.1962 L27.5687,94.0857 C27.5687,94.5051 27.2286,94.8452 26.8092,94.8452 L22.0787,94.8452 C21.6592,94.8452 21.3192,94.5051 21.3192,94.0857 L21.3192,89.1962"/>
</g>

<g fill="#000000" fill-opacity="1" stroke="none" transform="matrix(0.228,0,0,0.228,11.6,9.6)"
font-family="Inter" font-size="11" font-weight="700" font-style="normal" 
>
<path vector-effect="none" fill-rule="evenodd" d="M21.291,76.1973 C21.291,75.7779 21.631,75.4378 22.0505,75.4378 L26.7809,75.4378 C27.2004,75.4378 27.5404,75.7779 27.5404,76.1973 L27.5404,81.0868 C27.5404,81.5063 27.2004,81.8463 26.7809,81.8463 L22.0505,81.8463 C21.631,81.8463 21.291,81.5063 21.291,81.0868 L21.291,76.1973"/>
</g>

<g fill="none" stroke="#000000" stroke-opacity="1" stroke-width="0.88025" stroke-linecap="round" stroke-linejoin="round" transform="matrix(0.228,0,0,0.228,11.6,9.6)"
font-family="Inter" font-size="11" font-weight="700" font-style="normal" 
>
<path vector-effect="none" fill-rule="evenodd" d="M21.291,76.1973 C21.291,75.7779 21.631,75.4378 22.0505,75.4378 L26.7809,75.4378 C27.2004,75.4378 27.5404,75.7779 27.5404,76.1973 L27.5404,81.0868 C27.5404,81.5063 27.2004,81.8463 26.7809,81.8463 L22.0505,81.8463 C21.631,81.8463 21.291,81.5063 21.291,81.0868 L21.291,76.1973"/>
</g>

<g fill="#010101" fill-opacity="1" stroke="none" transform="matrix(0.228,0,0,0.228,11.6,9.6)"
font-family="Inter" font-size="11" font-weight="700" font-style="normal" 
>
<path vector-effect="none" fill-rule="evenodd" d="M72.8149,51.3251 C72.8149,50.9339 73.132,50.6168 73.5233,50.6168 L78.0203,50.6168 C78.4115,50.6168 78.7287,50.9339 78.7287,51.3251 L78.7287,67.6498 C78.7287,68.041 78.4115,68.3581 78.0203,68.3581 L73.5233,68.3581 C73.132,68.3581 72.8149,68.041 72.8149,67.6498 L72.8149,51.3251"/>
</g>

<g fill="none" stroke="#000000" stroke-opacity="1" stroke-width="0.878375" stroke-linecap="round" stroke-linejoin="round" transform="matrix(0.228,0,0,0.228,11.6,9.6)"
font-family="Inter" font-size="11" font-weight="700" font-style="normal" 
>
<path vector-effect="none" fill-rule="evenodd" d="M72.8149,51.3251 C72.8149,50.9339 73.132,50.6168 73.5233,50.6168 L78.0203,50.6168 C78.4115,50.6168 78.7287,50.9339 78.7287,51.3251 L78.7287,67.6498 C78.7287,68.041 78.4115,68.3581 78.0203,68.3581 L73.5233,68.3581 C73.132,68.3581 72.8149,68.041 72.8149,67.6498 L72.8149,51.3251"/>
</g>

<g fill="#000000" fill-opacity="1" stroke="none" transform="matrix(0.228,0,0,0.228,11.6,9.6)"
font-family="Inter" font-size="11" font-weight="700" font-style="normal" 
>
<path vector-effect="none" fill-rule="evenodd" d="M72.8799,88.931 C72.8799,88.5115 73.22,88.1715 73.6394,88.1715 L78.3699,88.1715 C78.7894,88.1715 79.1294,88.5115 79.1294,88.931 L79.1294,93.8205 C79.1294,94.2399 78.7894,94.5799 78.3699,94.5799 L73.6394,94.5799 C73.22,94.5799 72.8799,94.2399 72.8799,93.8205 L72.8799,88.931"/>
</g>

<g fill="none" stroke="#000000" stroke-opacity="1" stroke-width="0.88025" stroke-linecap="round" stroke-linejoin="round" transform="matrix(0.228,0,0,0.228,11.6,9.6)"
font-family="Inter" font-size="11" font-weight="700" font-style="normal" 
>
<path vector-effect="none" fill-rule="evenodd" d="M72.8799,88.931 C72.8799,88.5115 73.22,88.1715 73.6394,88.1715 L78.3699,88.1715 C78.7894,88.1715 79.1294,88.5115 79.1294,88.931 L79.1294,93.8205 C79.1294,94.2399 78.7894,94.5799 78.3699,94.5799 L73.6394,94.5799 C73.22,94.5799 72.8799,94.2399 72.8799,93.8205 L72.8799,88.931"/>
</g>

<g fill="#000000" fill-opacity="1" stroke="none" transform="matrix(0.228,0,0,0.228,11.6,9.6)"
font-family="Inter" font-size="11" font-weight="700" font-style="normal" 
>
<path vector-effect="none" fill-rule="evenodd" d="M72.8517,75.9321 C72.8517,75.5127 73.1917,75.1726 73.6112,75.1726 L78.3417,75.1726 C78.7611,75.1726 79.1012,75.5127 79.1012,75.9321 L79.1012,80.8216 C79.1012,81.2411 78.7611,81.5811 78.3417,81.5811 L73.6112,81.5811 C73.1917,81.5811 72.8517,81.2411 72.8517,80.8216 L72.8517,75.9321"/>
</g>

<g fill="none" stroke="#000000" stroke-opacity="1" stroke-width="0.88025" stroke-linecap="round" stroke-linejoin="round" transform="matrix(0.228,0,0,0.228,11.6,9.6)"
font-family="Inter" font-size="11" font-weight="700" font-style="normal" 
>
<path vector-effect="none" fill-rule="evenodd" d="M72.8517,75.9321 C72.8517,75.5127 73.1917,75.1726 73.6112,75.1726 L78.3417,75.1726 C78.7611,75.1726 79.1012,75.5127 79.1012,75.9321 L79.1012,80.8216 C79.1012,81.2411 78.7611,81.5811 78.3417,81.5811 L73.6112,81.5811 C73.1917,81.5811 72.8517,81.2411 72.8517,80.8216 L72.8517,75.9321"/>
</g>

<g fill="none" stroke="#000000" stroke-opacity="1" stroke-width="1.69088" stroke-linecap="round" stroke-linejoin="round" transform="matrix(0.228,0,0,0.228,11.6,9.6)"
font-family="Inter" font-size="11" font-weight="700" font-style="normal" 
>
<path vector-effect="none" fill-rule="nonzero" d="M42.7064,5.151 C41.6973,5.151 40.8849,5.96362 40.8849,6.97278 L40.8849,12.2611 L29.4484,12.2611 C28.4392,12.2611 27.6266,13.0735 27.6266,14.0826 L27.6266,93.0275 C27.6266,94.0366 28.4392,94.849 29.4484,94.849 L70.5516,94.849 C71.5608,94.849 72.3734,94.0366 72.3734,93.0275 L72.3734,14.0826 C72.3734,13.0735 71.5608,12.2611 70.5516,12.2611 L59.1151,12.2611 L59.1151,6.97278 C59.1151,5.96362 58.3027,5.151 57.2936,5.151 L42.7064,5.151"/>
</g>

<g fill="#aaaaaa" fill-opacity="1" stroke="none" transform="matrix(0.228,0,0,0.228,11.6,9.6)"
font-family="Inter" font-size="11" font-weight="700" font-style="normal" 
>
<path vector-effect="none" fill-rule="evenodd" d="M33.6676,43.8598 C33.6676,43.8566 33.6701,43.8541 33.6733,43.8541 L65.4134,43.8541 C65.4166,43.8541 65.4192,43.8566 65.4192,43.8598 C65.4192,43.863 65.4166,43.8655 65.4134,43.8655 L33.6733,43.8655 C33.6701,43.8655 33.6676,43.863 33.6676,43.8598 "/>
</g>

<g fill="none" stroke="#000000" stroke-opacity="1" stroke-width="0.305481" stroke-linecap="round" stroke-linejoin="round" transform="matrix(0.228,0,0,0.228,11.6,9.6)"
font-family="Inter" font-size="11" font-weight="700" font-style="normal" 
>
<path vector-effect="none" fill-rule="evenodd" d="M33.6676,43.8598 C33.6676,43.8566 33.6701,43.8541 33.6733,43.8541 L65.4134,43.8541 C65.4166,43.8541 65.4192,43.8566 65.4192,43.8598 C65.4192,43.863 65.4166,43.8655 65.4134,43.8655 L33.6733,43.8655 C33.6701,43.8655 33.6676,43.863 33.6676,43.8598 "/>
</g>

<g fill="#ffffff" fill-opacity="1" stroke="none" transform="matrix(1,0,0,1,0,0)"
font-family="Inter" font-size="11" font-weight="700" font-style="normal" 
>
</g>

<g fill="#ffffff" fill-opacity="1" stroke="#0da6c5" stroke-opacity="1" stroke-width="1" stroke-linecap="square" stroke-linejoin="bevel" transform="matrix(1,0,0,1,0,0)"
font-family="Inter" font-size="11" font-weight="700" font-style="normal" 
>
<polyline fill="none" vector-effect="none" points="45,11 45,31 " />
</g>

<g fill="#ffffff" fill-opacity="1" stroke="#0da6c5" stroke-opacity="1" stroke-width="1" stroke-linecap="square" stroke-linejoin="bevel" transform="matrix(1,0,0,1,0,0)"
font-family="Inter" font-size="11" font-weight="700" font-style="normal" 
>
</g>

<g fill="#ffffff" fill-opacity="1" stroke="#0da6c5" stroke-opacity="1" stroke-width="1" stroke-linecap="square" stroke-linejoin="bevel" transform="matrix(1,0,0,1,0,0)"
font-family="Inter" font-size="11" font-weight="700" font-style="normal" 
>
</g>

<g fill="#1dccf0" fill-opacity="1" stroke="#0da6c5" stroke-opacity="1" stroke-width="1.2" stroke-linecap="square" stroke-linejoin="bevel" transform="matrix(1,0,0,1,56,6)"
font-family="Inter" font-size="11" font-weight="700" font-style="normal" 
>
<path vector-effect="none" fill-rule="evenodd" d="M0.5,3.5 C0.5,1.84315 1.84315,0.5 3.5,0.5 L81.5,0.5 C83.1569,0.5 84.5,1.84315 84.5,3.5 L84.5,20.5 C84.5,22.1569 83.1569,23.5 81.5,23.5 L3.5,23.5 C1.84315,23.5 0.5,22.1569 0.5,20.5 L0.5,3.5"/>
</g>

<g fill="#ffffff" fill-opacity="1" stroke="none" transform="matrix(1,0,0,1,56,6)"
font-family="Inter" font-size="11" font-weight="700" font-style="normal" 
>
<path vector-effect="none" fill-rule="nonzero" d="M10,9.39453 L10,8 L16.5703,8 L16.5703,9.39453 L14.1211,9.39453 L14.1211,16 L12.4492,16 L12.4492,9.39453 L10,9.39453 M17.6484,16 L17.6484,8 L19.3398,8 L19.3398,11.3008 L22.7734,11.3008 L22.7734,8 L24.4609,8 L24.4609,16 L22.7734,16 L22.7734,12.6953 L19.3398,12.6953 L19.3398,16 L17.6484,16 M25.8516,8 L27.9375,8 L30.1406,13.375 L30.2344,13.375 L32.4375,8 L34.5234,8 L34.5234,16 L32.8828,16 L32.8828,10.793 L32.8164,10.793 L30.7461,15.9609 L29.6289,15.9609 L27.5586,10.7734 L27.4922,10.7734 L27.4922,16 L25.8516,16 L25.8516,8 M37.3594,8 L39.293,14.0781 L39.3672,14.0781 L41.3047,8 L43.1797,8 L40.4219,16 L38.2422,16 L35.4805,8 L37.3594,8 M44.1328,16 L44.1328,8 L45.8242,8 L45.8242,11.3008 L49.2578,11.3008 L49.2578,8 L50.9453,8 L50.9453,16 L49.2578,16 L49.2578,12.6953 L45.8242,12.6953 L45.8242,16 L44.1328,16 M52.3359,16 L52.3359,8 L55.5391,8 C56.1276,8 56.6185,8.08724 57.0117,8.26172 C57.4049,8.4362 57.7005,8.67773 57.8984,8.98633 C58.0964,9.29492 58.1953,9.64974 58.1953,10.0508 C58.1953,10.3633 58.1328,10.6374 58.0078,10.873 C57.8828,11.1087 57.7116,11.3014 57.4941,11.4512 C57.2767,11.6009 57.0286,11.707 56.75,11.7695 L56.75,11.8477 C57.0547,11.8607 57.3405,11.9466 57.6074,12.1055 C57.8743,12.2643 58.0911,12.4863 58.2578,12.7715 C58.4245,13.0566 58.5078,13.3958 58.5078,13.7891 C58.5078,14.2135 58.403,14.5918 58.1934,14.9238 C57.9837,15.2559 57.6745,15.5182 57.2656,15.7109 C56.8568,15.9036 56.3529,16 55.7539,16 L52.3359,16 M54.0273,14.6172 L55.4063,14.6172 C55.8776,14.6172 56.2214,14.5267 56.4375,14.3457 C56.6536,14.1647 56.7617,13.9232 56.7617,13.6211 C56.7617,13.3997 56.7083,13.2044 56.6016,13.0352 C56.4948,12.8659 56.3431,12.7331 56.1465,12.6367 C55.9499,12.5404 55.7161,12.4922 55.4453,12.4922 L54.0273,12.4922 L54.0273,14.6172 M54.0273,11.3477 L55.2813,11.3477 C55.513,11.3477 55.7194,11.3066 55.9004,11.2246 C56.0814,11.1426 56.2246,11.026 56.3301,10.875 C56.4355,10.724 56.4883,10.543 56.4883,10.332 C56.4883,10.043 56.3861,9.8099 56.1816,9.63281 C55.9772,9.45573 55.6875,9.36719 55.3125,9.36719 L54.0273,9.36719 L54.0273,11.3477 M63.0352,8 L63.0352,16 L61.3438,16 L61.3438,9.60547 L61.2969,9.60547 L59.4648,10.7539 L59.4648,9.25391 L61.4453,8 L63.0352,8"/>
</g>

<g fill="#ffffff" fill-opacity="1" stroke="none" transform="matrix(0.03125,0,0,0.03125,127,14)"
font-family="Inter" font-size="11" font-weight="700" font-style="normal" 
>
<path vector-effect="none" fill-rule="nonzero" d="M111.326,191.938 C120.545,201.158 135.517,201.158 144.737,191.938 L239.144,97.5313 C245.929,90.7458 247.921,80.6413 244.233,71.7907 C240.545,62.9401 231.989,57.1871 222.401,57.1871 L33.5875,57.2608 C24.0731,57.2608 15.4437,63.0137 11.7559,71.8644 C8.06815,80.715 10.1333,90.8195 16.845,97.605 L111.252,192.012 L111.326,191.938"/>
</g>

<g fill="none" stroke="#000000" stroke-opacity="1" stroke-width="13.7195" stroke-linecap="butt" stroke-linejoin="miter" stroke-miterlimit="4" transform="matrix(0.03125,0,0,0.03125,127,14)"
font-family="Inter" font-size="11" font-weight="700" font-style="normal" 
>
<path vector-effect="none" fill-rule="nonzero" d="M111.326,191.938 C120.545,201.158 135.517,201.158 144.737,191.938 L239.144,97.5313 C245.929,90.7458 247.921,80.6413 244.233,71.7907 C240.545,62.9401 231.989,57.1871 222.401,57.1871 L33.5875,57.2608 C24.0731,57.2608 15.4437,63.0137 11.7559,71.8644 C8.06815,80.715 10.1333,90.8195 16.845,97.605 L111.252,192.012 L111.326,191.938"/>
</g>

<g fill="#ffffff" fill-opacity="1" stroke="none" transform="matrix(1,0,0,1,56,6)"
font-family="Inter" font-size="11" font-weight="700" font-style="normal" 
>
</g>

<g fill="#ffffff" fill-opacity="1" stroke="#0da6c5" stroke-opacity="1" stroke-width="1" stroke-linecap="square" stroke-linejoin="bevel" transform="matrix(1,0,0,1,0,0)"
font-family="Inter" font-size="11" font-weight="700" font-style="normal" 
>
</g>

<g fill="#1dccf0" fill-opacity="1" stroke="#0da6c5" stroke-opacity="1" stroke-width="1.2" stroke-linecap="square" stroke-linejoin="bevel" transform="matrix(1,0,0,1,239,6)"
font-family="Inter" font-size="11" font-weight="700" font-style="normal" 
>
<path vector-effect="none" fill-rule="evenodd" d="M0.5,3.5 C0.5,1.84315 1.84315,0.5 3.5,0.5 L65.5,0.5 C67.1569,0.5 68.5,1.84315 68.5,3.5 L68.5,20.5 C68.5,22.1569 67.1569,23.5 65.5,23.5 L3.5,23.5 C1.84315,23.5 0.5,22.1569 0.5,20.5 L0.5,3.5"/>
</g>

<g fill="#ffffff" fill-opacity="1" stroke="none" transform="matrix(1,0,0,1,239,6)"
font-family="Inter" font-size="11" font-weight="700" font-style="normal" 
>
<path vector-effect="none" fill-rule="nonzero" d="M11.6719,12.4375 L11.6719,15.9063 L10.0078,15.9063 L10.0078,9.90625 L11.5938,9.90625 L11.5938,10.9648 L11.6641,10.9648 C11.7969,10.6159 12.0195,10.3392 12.332,10.1348 C12.6445,9.93034 13.0234,9.82813 13.4688,9.82813 C13.8854,9.82813 14.2487,9.91927 14.5586,10.1016 C14.8685,10.2839 15.1094,10.5436 15.2813,10.8809 C15.4531,11.2181 15.5391,11.6198 15.5391,12.0859 L15.5391,15.9063 L13.875,15.9063 L13.875,12.3828 C13.8776,12.0156 13.7839,11.7285 13.5938,11.5215 C13.4036,11.3145 13.1419,11.2109 12.8086,11.2109 C12.5846,11.2109 12.3874,11.2591 12.2168,11.3555 C12.0462,11.4518 11.9134,11.5918 11.8184,11.7754 C11.7233,11.959 11.6745,12.1797 11.6719,12.4375 M19.5469,16.0234 C18.9401,16.0234 18.416,15.8939 17.9746,15.6348 C17.5332,15.3757 17.1927,15.0137 16.9531,14.5488 C16.7135,14.084 16.5938,13.5443 16.5938,12.9297 C16.5938,12.3099 16.7135,11.7676 16.9531,11.3027 C17.1927,10.8379 17.5332,10.4759 17.9746,10.2168 C18.416,9.95768 18.9401,9.82813 19.5469,9.82813 C20.1536,9.82813 20.6777,9.95768 21.1191,10.2168 C21.5605,10.4759 21.901,10.8379 22.1406,11.3027 C22.3802,11.7676 22.5,12.3099 22.5,12.9297 C22.5,13.5443 22.3802,14.084 22.1406,14.5488 C21.901,15.0137 21.5605,15.3757 21.1191,15.6348 C20.6777,15.8939 20.1536,16.0234 19.5469,16.0234 M19.5547,14.7344 C19.8307,14.7344 20.0612,14.6556 20.2461,14.498 C20.431,14.3405 20.571,14.125 20.666,13.8516 C20.7611,13.5781 20.8086,13.2669 20.8086,12.918 C20.8086,12.569 20.7611,12.2578 20.666,11.9844 C20.571,11.7109 20.431,11.4948 20.2461,11.3359 C20.0612,11.1771 19.8307,11.0977 19.5547,11.0977 C19.276,11.0977 19.0423,11.1771 18.8535,11.3359 C18.6647,11.4948 18.5228,11.7109 18.4277,11.9844 C18.3327,12.2578 18.2852,12.569 18.2852,12.918 C18.2852,13.2669 18.3327,13.5781 18.4277,13.8516 C18.5228,14.125 18.6647,14.3405 18.8535,14.498 C19.0423,14.6556 19.276,14.7344 19.5547,14.7344 M23.5859,15.9063 L23.5859,9.90625 L25.1992,9.90625 L25.1992,10.9531 L25.2617,10.9531 C25.3711,10.5807 25.5547,10.2988 25.8125,10.1074 C26.0703,9.91602 26.3672,9.82031 26.7031,9.82031 C26.7865,9.82031 26.8763,9.82552 26.9727,9.83594 C27.069,9.84635 27.1536,9.86068 27.2266,9.87891 L27.2266,11.3555 C27.1484,11.332 27.0404,11.3112 26.9023,11.293 C26.7643,11.2747 26.638,11.2656 26.5234,11.2656 C26.2786,11.2656 26.0605,11.3184 25.8691,11.4238 C25.6777,11.5293 25.5267,11.6758 25.416,11.8633 C25.3053,12.0508 25.25,12.2669 25.25,12.5117 L25.25,15.9063 L23.5859,15.9063 M28.0703,15.9063 L28.0703,9.90625 L29.6563,9.90625 L29.6563,10.9648 L29.7266,10.9648 C29.8516,10.6133 30.0599,10.3359 30.3516,10.1328 C30.6432,9.92969 30.9922,9.82813 31.3984,9.82813 C31.8099,9.82813 32.1602,9.93034 32.4492,10.1348 C32.7383,10.3392 32.931,10.6159 33.0273,10.9648 L33.0898,10.9648 C33.2122,10.6211 33.4342,10.3457 33.7559,10.1387 C34.0775,9.93164 34.4583,9.82813 34.8984,9.82813 C35.4583,9.82813 35.9134,10.0059 36.2637,10.3613 C36.6139,10.7168 36.7891,11.2201 36.7891,11.8711 L36.7891,15.9063 L35.1289,15.9063 L35.1289,12.1992 C35.1289,11.8659 35.0404,11.6159 34.8633,11.4492 C34.6862,11.2826 34.4648,11.1992 34.1992,11.1992 C33.8971,11.1992 33.6615,11.2949 33.4922,11.4863 C33.3229,11.6777 33.2383,11.9297 33.2383,12.2422 L33.2383,15.9063 L31.625,15.9063 L31.625,12.1641 C31.625,11.8698 31.541,11.6354 31.373,11.4609 C31.2051,11.2865 30.9844,11.1992 30.7109,11.1992 C30.526,11.1992 30.36,11.2454 30.2129,11.3379 C30.0658,11.4303 29.9492,11.5592 29.8633,11.7246 C29.7773,11.89 29.7344,12.0833 29.7344,12.3047 L29.7344,15.9063 L28.0703,15.9063 M39.8125,16.0195 C39.4297,16.0195 39.0885,15.9525 38.7891,15.8184 C38.4896,15.6842 38.2533,15.485 38.0801,15.2207 C37.9069,14.9564 37.8203,14.6263 37.8203,14.2305 C37.8203,13.8971 37.8815,13.6172 38.0039,13.3906 C38.1263,13.1641 38.293,12.9818 38.5039,12.8438 C38.7148,12.7057 38.9551,12.6016 39.2246,12.5313 C39.4941,12.4609 39.7773,12.4115 40.0742,12.3828 C40.4232,12.3464 40.7044,12.3118 40.918,12.2793 C41.1315,12.2467 41.2865,12.1979 41.3828,12.1328 C41.4792,12.0677 41.5273,11.9714 41.5273,11.8438 L41.5273,11.8203 C41.5273,11.5729 41.4499,11.3815 41.2949,11.2461 C41.14,11.1107 40.9206,11.043 40.6367,11.043 C40.3372,11.043 40.099,11.1087 39.9219,11.2402 C39.7448,11.3717 39.6276,11.5365 39.5703,11.7344 L38.0313,11.6094 C38.1094,11.2448 38.263,10.929 38.4922,10.6621 C38.7214,10.3952 39.0176,10.1895 39.3809,10.0449 C39.7441,9.90039 40.1654,9.82813 40.6445,9.82813 C40.9779,9.82813 41.2975,9.86719 41.6035,9.94531 C41.9095,10.0234 42.1816,10.1445 42.4199,10.3086 C42.6582,10.4727 42.8464,10.6829 42.9844,10.9395 C43.1224,11.196 43.1914,11.5026 43.1914,11.8594 L43.1914,15.9063 L41.6133,15.9063 L41.6133,15.0742 L41.5664,15.0742 C41.4701,15.2617 41.3411,15.4264 41.1797,15.5684 C41.0182,15.7103 40.8242,15.821 40.5977,15.9004 C40.3711,15.9798 40.1094,16.0195 39.8125,16.0195 M40.2891,14.8711 C40.5339,14.8711 40.75,14.8223 40.9375,14.7246 C41.125,14.627 41.2721,14.4948 41.3789,14.3281 C41.4857,14.1615 41.5391,13.9727 41.5391,13.7617 L41.5391,13.125 C41.487,13.1589 41.416,13.1895 41.3262,13.2168 C41.2363,13.2441 41.1354,13.2689 41.0234,13.291 C40.9115,13.3132 40.7995,13.3327 40.6875,13.3496 C40.5755,13.3665 40.474,13.3815 40.3828,13.3945 C40.1875,13.4232 40.0169,13.4688 39.8711,13.5313 C39.7253,13.5938 39.612,13.6777 39.5313,13.7832 C39.4505,13.8887 39.4102,14.0195 39.4102,14.1758 C39.4102,14.4023 39.4928,14.5749 39.6582,14.6934 C39.8236,14.8118 40.0339,14.8711 40.2891,14.8711 M46.1406,7.90625 L46.1406,15.9063 L44.4766,15.9063 L44.4766,7.90625 L46.1406,7.90625"/>
</g>

<g fill="#ffffff" fill-opacity="1" stroke="none" transform="matrix(0.03125,0,0,0.03125,294,14)"
font-family="Inter" font-size="11" font-weight="700" font-style="normal" 
>
<path vector-effect="none" fill-rule="nonzero" d="M111.326,191.938 C120.545,201.158 135.517,201.158 144.737,191.938 L239.144,97.5313 C245.929,90.7458 247.921,80.6413 244.233,71.7907 C240.545,62.9401 231.989,57.1871 222.401,57.1871 L33.5875,57.2608 C24.0731,57.2608 15.4437,63.0137 11.7559,71.8644 C8.06815,80.715 10.1333,90.8195 16.845,97.605 L111.252,192.012 L111.326,191.938"/>
</g>

<g fill="none" stroke="#000000" stroke-opacity="1" stroke-width="13.7195" stroke-linecap="butt" stroke-linejoin="miter" stroke-miterlimit="4" transform="matrix(0.03125,0,0,0.03125,294,14)"
font-family="Inter" font-size="11" font-weight="700" font-style="normal" 
>
<path vector-effect="none" fill-rule="nonzero" d="M111.326,191.938 C120.545,201.158 135.517,201.158 144.737,191.938 L239.144,97.5313 C245.929,90.7458 247.921,80.6413 244.233,71.7907 C240.545,62.9401 231.989,57.1871 222.401,57.1871 L33.5875,57.2608 C24.0731,57.2608 15.4437,63.0137 11.7559,71.8644 C8.06815,80.715 10.1333,90.8195 16.845,97.605 L111.252,192.012 L111.326,191.938"/>
</g>

<g fill="#ffffff" fill-opacity="1" stroke="none" transform="matrix(1,0,0,1,239,6)"
font-family="Inter" font-size="11" font-weight="700" font-style="normal" 
>
</g>

<g fill="#ffffff" fill-opacity="1" stroke="#0da6c5" stroke-opacity="1" stroke-width="1" stroke-linecap="square" stroke-linejoin="bevel" transform="matrix(1,0,0,1,0,0)"
font-family="Inter" font-size="11" font-weight="700" font-style="normal" 
>
</g>

<g fill="#ffffff" fill-opacity="1" stroke="#0da6c5" stroke-opacity="1" stroke-width="1" stroke-linecap="square" stroke-linejoin="bevel" transform="matrix(1,0,0,1,0,0)"
font-family="Inter" font-size="11" font-weight="700" font-style="normal" 
>
</g>

<g fill="none" stroke="#000000" stroke-opacity="1" stroke-width="1" stroke-linecap="square" stroke-linejoin="bevel" transform="matrix(1,0,0,1,0,0)"
font-family=".AppleSystemUIFont" font-size="13" font-weight="400" font-style="normal" 
>
</g>
</g>
</svg>
