<?xml version="1.0" encoding="UTF-8" standalone="no"?>
<svg width="36.3361mm" height="9.87778mm"
 viewBox="0 0 103 28"
 xmlns="http://www.w3.org/2000/svg" xmlns:xlink="http://www.w3.org/1999/xlink" version="1.2" baseProfile="tiny">
<title>Abstract block</title>
<desc>block_operator_size_of_string</desc>
<defs>
</defs>
<g fill="none" stroke="black" stroke-width="1" fill-rule="evenodd" stroke-linecap="square" stroke-linejoin="bevel" >

<g fill="none" stroke="#000000" stroke-opacity="1" stroke-width="1" stroke-linecap="square" stroke-linejoin="bevel" transform="matrix(1,0,0,1,0,0)"
font-family=".AppleSystemUIFont" font-size="13" font-weight="400" font-style="normal" 
>
</g>

<g fill="none" stroke="#000000" stroke-opacity="1" stroke-width="1" stroke-linecap="square" stroke-linejoin="bevel" transform="matrix(1,0,0,1,0,0)"
font-family=".AppleSystemUIFont" font-size="13" font-weight="400" font-style="normal" 
>
</g>

<g fill="#00b94d" fill-opacity="1" stroke="#007e32" stroke-opacity="1" stroke-width="1.2" stroke-linecap="square" stroke-linejoin="bevel" transform="matrix(1,0,0,1,0,0)"
font-family=".AppleSystemUIFont" font-size="13" font-weight="400" font-style="normal" 
>
<path vector-effect="none" fill-rule="evenodd" d="M0.5,14 C0.5,6.54416 6.76801,0.5 14.5,0.5 L87.6563,0.5 C95.3882,0.5 101.656,6.54416 101.656,14 C101.656,21.4558 95.3882,27.5 87.6563,27.5 L14.5,27.5 C6.76801,27.5 0.5,21.4558 0.5,14 "/>
</g>

<g fill="#ffffff" fill-opacity="1" stroke="none" transform="matrix(1,0,0,1,0,0)"
font-family="Inter" font-size="11" font-weight="700" font-style="normal" 
>
<path vector-effect="none" fill-rule="nonzero" d="M10,8.95313 L10,16.9531 L8.33594,16.9531 L8.33594,8.95313 L10,8.95313 M14.0547,17.0703 C13.4375,17.0703 12.9069,16.9447 12.4629,16.6934 C12.0189,16.4421 11.6771,16.0853 11.4375,15.623 C11.1979,15.1608 11.0781,14.6133 11.0781,13.9805 C11.0781,13.3633 11.1979,12.8216 11.4375,12.3555 C11.6771,11.8893 12.015,11.526 12.4512,11.2656 C12.8874,11.0052 13.3997,10.875 13.9883,10.875 C14.3841,10.875 14.7533,10.9382 15.0957,11.0645 C15.4382,11.1908 15.7376,11.3802 15.9941,11.6328 C16.2507,11.8854 16.4505,12.2025 16.5938,12.584 C16.737,12.9655 16.8086,13.4115 16.8086,13.9219 L16.8086,14.3789 L11.7422,14.3789 L11.7422,13.3477 L15.2422,13.3477 C15.2422,13.1081 15.1901,12.8958 15.0859,12.7109 C14.9818,12.526 14.8379,12.3809 14.6543,12.2754 C14.4707,12.1699 14.2578,12.1172 14.0156,12.1172 C13.763,12.1172 13.5397,12.1751 13.3457,12.291 C13.1517,12.4069 13,12.5618 12.8906,12.7559 C12.7813,12.9499 12.7253,13.1654 12.7227,13.4023 L12.7227,14.3828 C12.7227,14.6797 12.778,14.9362 12.8887,15.1523 C12.9993,15.3685 13.1563,15.5352 13.3594,15.6523 C13.5625,15.7695 13.8034,15.8281 14.082,15.8281 C14.2669,15.8281 14.4362,15.8021 14.5898,15.75 C14.7435,15.6979 14.875,15.6198 14.9844,15.5156 C15.0938,15.4115 15.1771,15.2839 15.2344,15.1328 L16.7734,15.2344 C16.6953,15.6042 16.5358,15.9264 16.2949,16.2012 C16.054,16.4759 15.7441,16.6895 15.3652,16.8418 C14.9863,16.9941 14.5495,17.0703 14.0547,17.0703 M19.5469,13.4844 L19.5469,16.9531 L17.8828,16.9531 L17.8828,10.9531 L19.4688,10.9531 L19.4688,12.0117 L19.5391,12.0117 C19.6719,11.6628 19.8945,11.3861 20.207,11.1816 C20.5195,10.9772 20.8984,10.875 21.3438,10.875 C21.7604,10.875 22.1237,10.9661 22.4336,11.1484 C22.7435,11.3307 22.9844,11.5905 23.1563,11.9277 C23.3281,12.265 23.4141,12.6667 23.4141,13.1328 L23.4141,16.9531 L21.75,16.9531 L21.75,13.4297 C21.7526,13.0625 21.6589,12.7754 21.4688,12.5684 C21.2786,12.3613 21.0169,12.2578 20.6836,12.2578 C20.4596,12.2578 20.2624,12.306 20.0918,12.4023 C19.9212,12.4987 19.7884,12.6387 19.6934,12.8223 C19.5983,13.0059 19.5495,13.2266 19.5469,13.4844 M27.4141,19.3281 C26.875,19.3281 26.4134,19.2546 26.0293,19.1074 C25.6452,18.9603 25.3398,18.7604 25.1133,18.5078 C24.8867,18.2552 24.7396,17.9714 24.6719,17.6563 L26.2109,17.4492 C26.2578,17.569 26.332,17.681 26.4336,17.7852 C26.5352,17.8893 26.6699,17.9733 26.8379,18.0371 C27.0059,18.1009 27.2109,18.1328 27.4531,18.1328 C27.8151,18.1328 28.1139,18.0449 28.3496,17.8691 C28.5853,17.6934 28.7031,17.3997 28.7031,16.9883 L28.7031,15.8906 L28.6328,15.8906 C28.5599,16.0573 28.4505,16.2148 28.3047,16.3633 C28.1589,16.5117 27.9714,16.6328 27.7422,16.7266 C27.513,16.8203 27.2396,16.8672 26.9219,16.8672 C26.4714,16.8672 26.0618,16.7624 25.6934,16.5527 C25.3249,16.3431 25.0319,16.0215 24.8145,15.5879 C24.597,15.1543 24.4883,14.6055 24.4883,13.9414 C24.4883,13.2617 24.599,12.694 24.8203,12.2383 C25.0417,11.7826 25.3366,11.4414 25.7051,11.2148 C26.0736,10.9883 26.4779,10.875 26.918,10.875 C27.2539,10.875 27.5352,10.9316 27.7617,11.0449 C27.9883,11.1582 28.1712,11.2988 28.3105,11.4668 C28.4499,11.6348 28.5573,11.7995 28.6328,11.9609 L28.6953,11.9609 L28.6953,10.9531 L30.3477,10.9531 L30.3477,17.0117 C30.3477,17.5221 30.2227,17.9492 29.9727,18.293 C29.7227,18.6367 29.377,18.8952 28.9355,19.0684 C28.4941,19.2415 27.987,19.3281 27.4141,19.3281 M27.4492,15.6172 C27.7174,15.6172 27.9447,15.5501 28.1309,15.416 C28.3171,15.2819 28.4603,15.0892 28.5605,14.8379 C28.6608,14.5866 28.7109,14.2852 28.7109,13.9336 C28.7109,13.582 28.6615,13.2767 28.5625,13.0176 C28.4635,12.7585 28.3203,12.5573 28.1328,12.4141 C27.9453,12.2708 27.7174,12.1992 27.4492,12.1992 C27.1758,12.1992 26.9453,12.2728 26.7578,12.4199 C26.5703,12.5671 26.4284,12.7708 26.332,13.0313 C26.2357,13.2917 26.1875,13.5924 26.1875,13.9336 C26.1875,14.2799 26.2363,14.5788 26.334,14.8301 C26.4316,15.0814 26.5736,15.2754 26.7598,15.4121 C26.946,15.5488 27.1758,15.6172 27.4492,15.6172 M34.8555,10.9531 L34.8555,12.2031 L31.2422,12.2031 L31.2422,10.9531 L34.8555,10.9531 M32.0625,9.51563 L33.7266,9.51563 L33.7266,15.1094 C33.7266,15.263 33.75,15.3822 33.7969,15.4668 C33.8438,15.5514 33.9095,15.6107 33.9941,15.6445 C34.0788,15.6784 34.1771,15.6953 34.2891,15.6953 C34.3672,15.6953 34.4453,15.6882 34.5234,15.6738 C34.6016,15.6595 34.6615,15.6484 34.7031,15.6406 L34.9648,16.8789 C34.8815,16.9049 34.7643,16.9355 34.6133,16.9707 C34.4622,17.0059 34.2786,17.0273 34.0625,17.0352 C33.6615,17.0508 33.3105,16.9974 33.0098,16.875 C32.709,16.7526 32.4753,16.5625 32.3086,16.3047 C32.1419,16.0469 32.0599,15.7214 32.0625,15.3281 L32.0625,9.51563 M37.7188,13.4844 L37.7188,16.9531 L36.0547,16.9531 L36.0547,8.95313 L37.6719,8.95313 L37.6719,12.0117 L37.7422,12.0117 C37.8776,11.6576 38.0964,11.3796 38.3984,11.1777 C38.7005,10.9759 39.0794,10.875 39.5352,10.875 C39.9518,10.875 40.3158,10.9655 40.627,11.1465 C40.9382,11.3275 41.1803,11.5866 41.3535,11.9238 C41.5267,12.2611 41.612,12.6641 41.6094,13.1328 L41.6094,16.9531 L39.9453,16.9531 L39.9453,13.4297 C39.9479,13.0599 39.8548,12.7721 39.666,12.5664 C39.4772,12.3607 39.2135,12.2578 38.875,12.2578 C38.6484,12.2578 38.4486,12.306 38.2754,12.4023 C38.1022,12.4987 37.9668,12.6387 37.8691,12.8223 C37.7715,13.0059 37.7214,13.2266 37.7188,13.4844 M48.1719,17.0703 C47.5651,17.0703 47.041,16.9408 46.5996,16.6816 C46.1582,16.4225 45.8177,16.0605 45.5781,15.5957 C45.3385,15.1309 45.2188,14.5911 45.2188,13.9766 C45.2188,13.3568 45.3385,12.8145 45.5781,12.3496 C45.8177,11.8848 46.1582,11.5228 46.5996,11.2637 C47.041,11.0046 47.5651,10.875 48.1719,10.875 C48.7786,10.875 49.3027,11.0046 49.7441,11.2637 C50.1855,11.5228 50.526,11.8848 50.7656,12.3496 C51.0052,12.8145 51.125,13.3568 51.125,13.9766 C51.125,14.5911 51.0052,15.1309 50.7656,15.5957 C50.526,16.0605 50.1855,16.4225 49.7441,16.6816 C49.3027,16.9408 48.7786,17.0703 48.1719,17.0703 M48.1797,15.7813 C48.4557,15.7813 48.6862,15.7025 48.8711,15.5449 C49.056,15.3874 49.196,15.1719 49.291,14.8984 C49.3861,14.625 49.4336,14.3138 49.4336,13.9648 C49.4336,13.6159 49.3861,13.3047 49.291,13.0313 C49.196,12.7578 49.056,12.5417 48.8711,12.3828 C48.6862,12.224 48.4557,12.1445 48.1797,12.1445 C47.901,12.1445 47.6673,12.224 47.4785,12.3828 C47.2897,12.5417 47.1478,12.7578 47.0527,13.0313 C46.9577,13.3047 46.9102,13.6159 46.9102,13.9648 C46.9102,14.3138 46.9577,14.625 47.0527,14.8984 C47.1478,15.1719 47.2897,15.3874 47.4785,15.5449 C47.6673,15.7025 47.901,15.7813 48.1797,15.7813 M55.4375,10.9531 L55.4375,12.2031 L51.7344,12.2031 L51.7344,10.9531 L55.4375,10.9531 M52.582,16.9531 L52.582,10.5195 C52.582,10.0846 52.6673,9.72396 52.8379,9.4375 C53.0085,9.15104 53.2422,8.9362 53.5391,8.79297 C53.8359,8.64974 54.1732,8.57813 54.5508,8.57813 C54.806,8.57813 55.0397,8.59766 55.252,8.63672 C55.4642,8.67578 55.6224,8.71094 55.7266,8.74219 L55.4297,9.99219 C55.3646,9.97135 55.2845,9.95182 55.1895,9.93359 C55.0944,9.91536 54.9974,9.90625 54.8984,9.90625 C54.6536,9.90625 54.4831,9.96289 54.3867,10.0762 C54.2904,10.1895 54.2422,10.3477 54.2422,10.5508 L54.2422,16.9531 L52.582,16.9531"/>
</g>

<g fill="#ffffff" fill-opacity="1" stroke="none" transform="matrix(1,0,0,1,0,0)"
font-family="Inter" font-size="11" font-weight="700" font-style="normal" 
>
</g>

<g fill="#ffffff" fill-opacity="1" stroke="#006a2a" stroke-opacity="1" stroke-width="1.2" stroke-linecap="square" stroke-linejoin="bevel" transform="matrix(1,0,0,1,62.5,3)"
font-family="Inter" font-size="11" font-weight="700" font-style="normal" 
>
<path vector-effect="none" fill-rule="evenodd" d="M1,11 C1,5.47715 5.92487,1 12,1 L24.6563,1 C30.7314,1 35.6563,5.47715 35.6563,11 C35.6563,16.5228 30.7314,21 24.6563,21 L12,21 C5.92487,21 1,16.5228 1,11 "/>
</g>

<g fill="#000000" fill-opacity="1" stroke="none" transform="matrix(1,0,0,1,62.5,3)"
font-family="Inter" font-size="10" font-weight="700" font-style="normal" 
>
<path vector-effect="none" fill-rule="nonzero" d="M7.49219,14.3281 L6.00781,8.87358 L7.53835,8.87358 L8.38352,12.5384 L8.43324,12.5384 L9.31392,8.87358 L10.8161,8.87358 L11.7109,12.517 L11.7571,12.517 L12.5881,8.87358 L14.1151,8.87358 L12.6342,14.3281 L11.0327,14.3281 L10.0952,10.8977 L10.0277,10.8977 L9.0902,14.3281 L7.49219,14.3281 M17.2401,14.4347 C16.6884,14.4347 16.212,14.3169 15.8107,14.0813 C15.4094,13.8458 15.0999,13.5167 14.8821,13.0941 C14.6643,12.6715 14.5554,12.1809 14.5554,11.6222 C14.5554,11.0587 14.6643,10.5657 14.8821,10.1431 C15.0999,9.72053 15.4094,9.39145 15.8107,9.15589 C16.212,8.92034 16.6884,8.80256 17.2401,8.80256 C17.7917,8.80256 18.2681,8.92034 18.6694,9.15589 C19.0707,9.39145 19.3802,9.72053 19.598,10.1431 C19.8158,10.5657 19.9247,11.0587 19.9247,11.6222 C19.9247,12.1809 19.8158,12.6715 19.598,13.0941 C19.3802,13.5167 19.0707,13.8458 18.6694,14.0813 C18.2681,14.3169 17.7917,14.4347 17.2401,14.4347 M17.2472,13.2628 C17.4981,13.2628 17.7076,13.1912 17.8757,13.0479 C18.0438,12.9047 18.171,12.7088 18.2575,12.4602 C18.3439,12.2116 18.3871,11.9287 18.3871,11.6115 C18.3871,11.2943 18.3439,11.0114 18.2575,10.7628 C18.171,10.5142 18.0438,10.3177 17.8757,10.1733 C17.7076,10.0289 17.4981,9.95668 17.2472,9.95668 C16.9938,9.95668 16.7814,10.0289 16.6097,10.1733 C16.4381,10.3177 16.3091,10.5142 16.2227,10.7628 C16.1362,11.0114 16.093,11.2943 16.093,11.6115 C16.093,11.9287 16.1362,12.2116 16.2227,12.4602 C16.3091,12.7088 16.4381,12.9047 16.6097,13.0479 C16.7814,13.1912 16.9938,13.2628 17.2472,13.2628 M20.9006,14.3281 L20.9006,8.87358 L22.3672,8.87358 L22.3672,9.82528 L22.424,9.82528 C22.5234,9.48674 22.6903,9.23047 22.9247,9.05646 C23.1591,8.88246 23.429,8.79545 23.7344,8.79545 C23.8101,8.79545 23.8918,8.80019 23.9794,8.80966 C24.067,8.81913 24.1439,8.83215 24.2102,8.84872 L24.2102,10.1911 C24.1392,10.1697 24.041,10.1508 23.9155,10.1342 C23.79,10.1177 23.6752,10.1094 23.571,10.1094 C23.3485,10.1094 23.1502,10.1573 22.9762,10.2532 C22.8022,10.3491 22.6649,10.4822 22.5643,10.6527 C22.4637,10.8232 22.4134,11.0196 22.4134,11.2422 L22.4134,14.3281 L20.9006,14.3281 M26.7386,14.4169 C26.3243,14.4169 25.9497,14.3098 25.6147,14.0955 C25.2797,13.8813 25.0146,13.5652 24.8192,13.1474 C24.6239,12.7295 24.5263,12.2164 24.5263,11.608 C24.5263,10.983 24.6269,10.4627 24.8281,10.0472 C25.0294,9.63175 25.2975,9.32043 25.6325,9.11328 C25.9674,8.90613 26.335,8.80256 26.7351,8.80256 C27.0405,8.80256 27.2956,8.85405 27.5004,8.95703 C27.7051,9.06001 27.8709,9.18786 27.9975,9.34055 C28.1242,9.49325 28.2206,9.64299 28.2869,9.78977 L28.3331,9.78977 L28.3331,7.0554 L29.8423,7.0554 L29.8423,14.3281 L28.3509,14.3281 L28.3509,13.4545 L28.2869,13.4545 C28.2159,13.6061 28.1159,13.7558 27.9869,13.9038 C27.8578,14.0517 27.6909,14.1742 27.4862,14.2713 C27.2814,14.3684 27.0322,14.4169 26.7386,14.4169 M27.218,13.2131 C27.4619,13.2131 27.6684,13.1462 27.8377,13.0124 C28.007,12.8787 28.1372,12.6911 28.2283,12.4496 C28.3195,12.2081 28.3651,11.9252 28.3651,11.6009 C28.3651,11.2765 28.3201,10.9948 28.2301,10.7557 C28.1402,10.5166 28.0099,10.3319 27.8395,10.2017 C27.669,10.0715 27.4619,10.0064 27.218,10.0064 C26.9695,10.0064 26.7599,10.0739 26.5895,10.2088 C26.419,10.3438 26.29,10.5308 26.2024,10.7699 C26.1148,11.009 26.071,11.286 26.071,11.6009 C26.071,11.9181 26.1154,12.198 26.2042,12.4407 C26.293,12.6834 26.422,12.8728 26.5913,13.0089 C26.7605,13.145 26.9695,13.2131 27.218,13.2131 "/>
</g>

<g fill="#000000" fill-opacity="1" stroke="none" transform="matrix(1,0,0,1,68.5,7.95313)"
font-family="Inter" font-size="10" font-weight="700" font-style="normal" 
>
</g>

<g fill="#000000" fill-opacity="1" stroke="none" transform="matrix(1,0,0,1,68.5,7.95313)"
font-family="Inter" font-size="10" font-weight="700" font-style="normal" 
>
</g>

<g fill="#000000" fill-opacity="1" stroke="none" transform="matrix(1,0,0,1,62.5,3)"
font-family="Inter" font-size="10" font-weight="700" font-style="normal" 
>
</g>

<g fill="#ffffff" fill-opacity="1" stroke="none" transform="matrix(1,0,0,1,0,0)"
font-family="Inter" font-size="11" font-weight="700" font-style="normal" 
>
</g>

<g fill="#ffffff" fill-opacity="1" stroke="none" transform="matrix(1,0,0,1,0,0)"
font-family="Inter" font-size="11" font-weight="700" font-style="normal" 
>
</g>

<g fill="none" stroke="#000000" stroke-opacity="1" stroke-width="1" stroke-linecap="square" stroke-linejoin="bevel" transform="matrix(1,0,0,1,0,0)"
font-family=".AppleSystemUIFont" font-size="13" font-weight="400" font-style="normal" 
>
</g>
</g>
</svg>
