<?xml version="1.0" encoding="UTF-8" standalone="no"?>
<svg width="127mm" height="21.1667mm"
 viewBox="0 0 360 60"
 xmlns="http://www.w3.org/2000/svg" xmlns:xlink="http://www.w3.org/1999/xlink" version="1.2" baseProfile="tiny">
<title>Abstract block</title>
<desc>block_hubs_all_event_button_pressed</desc>
<defs>
</defs>
<g fill="none" stroke="black" stroke-width="1" fill-rule="evenodd" stroke-linecap="square" stroke-linejoin="bevel" >

<g fill="none" stroke="#000000" stroke-opacity="1" stroke-width="1" stroke-linecap="square" stroke-linejoin="bevel" transform="matrix(1,0,0,1,0,0)"
font-family=".AppleSystemUIFont" font-size="13" font-weight="400" font-style="normal" 
>
</g>

<g fill="none" stroke="#000000" stroke-opacity="1" stroke-width="1" stroke-linecap="square" stroke-linejoin="bevel" transform="matrix(1,0,0,1,0,0)"
font-family=".AppleSystemUIFont" font-size="13" font-weight="400" font-style="normal" 
>
</g>

<g fill="#f5c400" fill-opacity="1" stroke="#ba9500" stroke-opacity="1" stroke-width="1.2" stroke-linecap="square" stroke-linejoin="bevel" transform="matrix(1,0,0,1,0,0)"
font-family=".AppleSystemUIFont" font-size="13" font-weight="400" font-style="normal" 
>
<path vector-effect="none" fill-rule="evenodd" d="M0.5,20.5 L1,18.6516 L1,18 L1.77836,17.1565 L2.58892,16.3401 L3.43062,15.551 L4.30242,14.7891 L5.20325,14.0544 L6.13206,13.3469 L7.08779,12.6667 L8.06939,12.0136 L9.0758,11.3878 L10.106,10.7891 L11.1588,10.2177 L12.2333,9.67347 L13.3284,9.15646 L14.4431,8.66667 L15.5762,8.20408 L16.7267,7.76871 L17.8936,7.36054 L19.0758,6.97959 L20.2723,6.62585 L21.4819,6.29932 L22.7037,6 L23.9366,5.72789 L25.1795,5.48299 L26.4314,5.26531 L27.6912,5.07483 L28.9578,4.91156 L30.2303,4.77551 L31.5075,4.66667 L32.7885,4.58503 L34.072,4.53061 L35.3572,4.5034 L36.6428,4.5034 L37.928,4.53061 L39.2115,4.58503 L40.4925,4.66667 L41.7697,4.77551 L43.0422,4.91156 L44.3088,5.07483 L45.5686,5.26531 L46.8205,5.48299 L48.0634,5.72789 L49.2963,6 L50.5181,6.29932 L51.7277,6.62585 L52.9242,6.97959 L54.1064,7.36054 L55.2733,7.76871 L56.4238,8.20408 L57.5569,8.66667 L58.6716,9.15646 L59.7667,9.67347 L60.8412,10.2177 L61.894,10.7891 L62.9242,11.3878 L63.9306,12.0136 L64.9122,12.6667 L65.8679,13.3469 L66.7968,14.0544 L67.6976,14.7891 L68.5694,15.551 L69.4111,16.3401 L69.5698,16.5 L355.5,16.5 L357.519,17.0461 L358.954,18.4811 L359.5,20.5 L359.5,47.5 L358.954,49.5189 L357.519,50.9539 L355.5,51.5 L34.375,51.5 L33.584,51.9766 L32.8281,52.6875 L32.002,53.6797 L31,55 L30.2441,55.6602 L29.4531,56.1563 L28.5918,56.5117 L27.625,56.75 L26.5176,56.8945 L25.2344,56.9688 L23.7402,56.9961 L22,57 L20.2598,56.9961 L18.7656,56.9688 L17.4824,56.8945 L16.375,56.75 L15.4082,56.5117 L14.5469,56.1563 L13.7559,55.6602 L13,55 L11.998,53.6797 L11.1719,52.6875 L10.416,51.9766 L9.625,51.5 L4.5,51.5 L2.48112,50.9539 L1.04612,49.5189 L0.5,47.5 L0.5,20.5"/>
</g>

<g fill="#ffffff" fill-opacity="1" stroke="none" transform="matrix(1,0,0,1,0,0)"
font-family="Inter" font-size="11" font-weight="700" font-style="normal" 
>
<path vector-effect="none" fill-rule="nonzero" d="M53.4727,37.9063 L51.8398,31.9063 L53.5234,31.9063 L54.4531,35.9375 L54.5078,35.9375 L55.4766,31.9063 L57.1289,31.9063 L58.1133,35.9141 L58.1641,35.9141 L59.0781,31.9063 L60.7578,31.9063 L59.1289,37.9063 L57.3672,37.9063 L56.3359,34.1328 L56.2617,34.1328 L55.2305,37.9063 L53.4727,37.9063 M63.2969,34.4375 L63.2969,37.9063 L61.6328,37.9063 L61.6328,29.9063 L63.25,29.9063 L63.25,32.9648 L63.3203,32.9648 C63.4557,32.6107 63.6745,32.3327 63.9766,32.1309 C64.2786,31.929 64.6576,31.8281 65.1133,31.8281 C65.5299,31.8281 65.8939,31.9186 66.2051,32.0996 C66.5163,32.2806 66.7585,32.5397 66.9316,32.877 C67.1048,33.2142 67.1901,33.6172 67.1875,34.0859 L67.1875,37.9063 L65.5234,37.9063 L65.5234,34.3828 C65.526,34.013 65.4329,33.7253 65.2441,33.5195 C65.0553,33.3138 64.7917,33.2109 64.4531,33.2109 C64.2266,33.2109 64.0267,33.2591 63.8535,33.3555 C63.6803,33.4518 63.5449,33.5918 63.4473,33.7754 C63.3496,33.959 63.2995,34.1797 63.2969,34.4375 M71.2266,38.0234 C70.6094,38.0234 70.0788,37.8978 69.6348,37.6465 C69.1908,37.3952 68.849,37.0384 68.6094,36.5762 C68.3698,36.1139 68.25,35.5664 68.25,34.9336 C68.25,34.3164 68.3698,33.7747 68.6094,33.3086 C68.849,32.8424 69.1868,32.4792 69.623,32.2188 C70.0592,31.9583 70.5716,31.8281 71.1602,31.8281 C71.556,31.8281 71.9251,31.8913 72.2676,32.0176 C72.61,32.1439 72.9095,32.3333 73.166,32.5859 C73.4225,32.8385 73.6224,33.1556 73.7656,33.5371 C73.9089,33.9186 73.9805,34.3646 73.9805,34.875 L73.9805,35.332 L68.9141,35.332 L68.9141,34.3008 L72.4141,34.3008 C72.4141,34.0612 72.362,33.849 72.2578,33.6641 C72.1536,33.4792 72.0098,33.334 71.8262,33.2285 C71.6426,33.123 71.4297,33.0703 71.1875,33.0703 C70.9349,33.0703 70.7116,33.1283 70.5176,33.2441 C70.3236,33.36 70.1719,33.515 70.0625,33.709 C69.9531,33.903 69.8971,34.1185 69.8945,34.3555 L69.8945,35.3359 C69.8945,35.6328 69.9499,35.8893 70.0605,36.1055 C70.1712,36.3216 70.3281,36.4883 70.5313,36.6055 C70.7344,36.7227 70.9753,36.7813 71.2539,36.7813 C71.4388,36.7813 71.6081,36.7552 71.7617,36.7031 C71.9154,36.651 72.0469,36.5729 72.1563,36.4688 C72.2656,36.3646 72.349,36.237 72.4063,36.0859 L73.9453,36.1875 C73.8672,36.5573 73.7077,36.8796 73.4668,37.1543 C73.2259,37.429 72.916,37.6426 72.5371,37.7949 C72.1582,37.9473 71.7214,38.0234 71.2266,38.0234 M76.7188,34.4375 L76.7188,37.9063 L75.0547,37.9063 L75.0547,31.9063 L76.6406,31.9063 L76.6406,32.9648 L76.7109,32.9648 C76.8438,32.6159 77.0664,32.3392 77.3789,32.1348 C77.6914,31.9303 78.0703,31.8281 78.5156,31.8281 C78.9323,31.8281 79.2956,31.9193 79.6055,32.1016 C79.9154,32.2839 80.1563,32.5436 80.3281,32.8809 C80.5,33.2181 80.5859,33.6198 80.5859,34.0859 L80.5859,37.9063 L78.9219,37.9063 L78.9219,34.3828 C78.9245,34.0156 78.8307,33.7285 78.6406,33.5215 C78.4505,33.3145 78.1888,33.2109 77.8555,33.2109 C77.6315,33.2109 77.4342,33.2591 77.2637,33.3555 C77.0931,33.4518 76.9603,33.5918 76.8652,33.7754 C76.7702,33.959 76.7214,34.1797 76.7188,34.4375 "/>
</g>

<g fill="#ffffff" fill-opacity="1" stroke="none" transform="matrix(1,0,0,1,0,0)"
font-family="Inter" font-size="11" font-weight="700" font-style="normal" 
>
<path vector-effect="none" fill-rule="nonzero" d="M168.086,37.7344 L168.086,29.7344 L169.75,29.7344 L169.75,32.7422 L169.801,32.7422 C169.874,32.5807 169.98,32.416 170.119,32.248 C170.258,32.0801 170.441,31.9395 170.666,31.8262 C170.891,31.7129 171.172,31.6563 171.508,31.6563 C171.945,31.6563 172.349,31.7702 172.719,31.998 C173.089,32.2259 173.384,32.5684 173.605,33.0254 C173.827,33.4824 173.938,34.0547 173.938,34.7422 C173.938,35.4115 173.83,35.9759 173.615,36.4355 C173.4,36.8952 173.109,37.2428 172.74,37.4785 C172.372,37.7142 171.96,37.832 171.504,37.832 C171.181,37.832 170.907,37.7786 170.682,37.6719 C170.456,37.5651 170.272,37.4303 170.129,37.2676 C169.986,37.1048 169.876,36.9401 169.801,36.7734 L169.727,36.7734 L169.727,37.7344 L168.086,37.7344 M169.715,34.7344 C169.715,35.0911 169.764,35.4023 169.863,35.668 C169.962,35.9336 170.105,36.14 170.293,36.2871 C170.48,36.4342 170.708,36.5078 170.977,36.5078 C171.247,36.5078 171.477,36.4329 171.664,36.2832 C171.852,36.1335 171.994,35.9251 172.092,35.6582 C172.189,35.3913 172.238,35.0833 172.238,34.7344 C172.238,34.388 172.19,34.0833 172.094,33.8203 C171.997,33.5573 171.855,33.3516 171.668,33.2031 C171.48,33.0547 171.25,32.9805 170.977,32.9805 C170.706,32.9805 170.477,33.0521 170.291,33.1953 C170.105,33.3385 169.962,33.5417 169.863,33.8047 C169.764,34.0677 169.715,34.3776 169.715,34.7344 M178.887,35.1797 L178.887,31.7344 L180.551,31.7344 L180.551,37.7344 L178.953,37.7344 L178.953,36.6445 L178.891,36.6445 C178.755,36.9961 178.531,37.2786 178.217,37.4922 C177.903,37.7057 177.521,37.8125 177.07,37.8125 C176.669,37.8125 176.316,37.7214 176.012,37.5391 C175.707,37.3568 175.469,37.0977 175.299,36.7617 C175.128,36.4258 175.042,36.0234 175.039,35.5547 L175.039,31.7344 L176.703,31.7344 L176.703,35.2578 C176.706,35.612 176.801,35.8919 176.988,36.0977 C177.176,36.3034 177.427,36.4063 177.742,36.4063 C177.943,36.4063 178.13,36.36 178.305,36.2676 C178.479,36.1751 178.62,36.0378 178.729,35.8555 C178.837,35.6732 178.889,35.4479 178.887,35.1797 M185.059,31.7344 L185.059,32.9844 L181.445,32.9844 L181.445,31.7344 L185.059,31.7344 M182.266,30.2969 L183.93,30.2969 L183.93,35.8906 C183.93,36.0443 183.953,36.1634 184,36.248 C184.047,36.3327 184.113,36.3919 184.197,36.4258 C184.282,36.4596 184.38,36.4766 184.492,36.4766 C184.57,36.4766 184.648,36.4694 184.727,36.4551 C184.805,36.4408 184.865,36.4297 184.906,36.4219 L185.168,37.6602 C185.085,37.6862 184.967,37.7168 184.816,37.752 C184.665,37.7871 184.482,37.8086 184.266,37.8164 C183.865,37.832 183.514,37.7786 183.213,37.6563 C182.912,37.5339 182.678,37.3438 182.512,37.0859 C182.345,36.8281 182.263,36.5026 182.266,36.1094 L182.266,30.2969 M189.324,31.7344 L189.324,32.9844 L185.711,32.9844 L185.711,31.7344 L189.324,31.7344 M186.531,30.2969 L188.195,30.2969 L188.195,35.8906 C188.195,36.0443 188.219,36.1634 188.266,36.248 C188.313,36.3327 188.378,36.3919 188.463,36.4258 C188.548,36.4596 188.646,36.4766 188.758,36.4766 C188.836,36.4766 188.914,36.4694 188.992,36.4551 C189.07,36.4408 189.13,36.4297 189.172,36.4219 L189.434,37.6602 C189.35,37.6862 189.233,37.7168 189.082,37.752 C188.931,37.7871 188.747,37.8086 188.531,37.8164 C188.13,37.832 187.779,37.7786 187.479,37.6563 C187.178,37.5339 186.944,37.3438 186.777,37.0859 C186.611,36.8281 186.529,36.5026 186.531,36.1094 L186.531,30.2969 M193.047,37.8516 C192.44,37.8516 191.916,37.722 191.475,37.4629 C191.033,37.2038 190.693,36.8418 190.453,36.377 C190.214,35.9121 190.094,35.3724 190.094,34.7578 C190.094,34.138 190.214,33.5957 190.453,33.1309 C190.693,32.666 191.033,32.304 191.475,32.0449 C191.916,31.7858 192.44,31.6563 193.047,31.6563 C193.654,31.6563 194.178,31.7858 194.619,32.0449 C195.061,32.304 195.401,32.666 195.641,33.1309 C195.88,33.5957 196,34.138 196,34.7578 C196,35.3724 195.88,35.9121 195.641,36.377 C195.401,36.8418 195.061,37.2038 194.619,37.4629 C194.178,37.722 193.654,37.8516 193.047,37.8516 M193.055,36.5625 C193.331,36.5625 193.561,36.4837 193.746,36.3262 C193.931,36.1686 194.071,35.9531 194.166,35.6797 C194.261,35.4063 194.309,35.0951 194.309,34.7461 C194.309,34.3971 194.261,34.0859 194.166,33.8125 C194.071,33.5391 193.931,33.3229 193.746,33.1641 C193.561,33.0052 193.331,32.9258 193.055,32.9258 C192.776,32.9258 192.542,33.0052 192.354,33.1641 C192.165,33.3229 192.023,33.5391 191.928,33.8125 C191.833,34.0859 191.785,34.3971 191.785,34.7461 C191.785,35.0951 191.833,35.4063 191.928,35.6797 C192.023,35.9531 192.165,36.1686 192.354,36.3262 C192.542,36.4837 192.776,36.5625 193.055,36.5625 M198.75,34.2656 L198.75,37.7344 L197.086,37.7344 L197.086,31.7344 L198.672,31.7344 L198.672,32.793 L198.742,32.793 C198.875,32.444 199.098,32.1673 199.41,31.9629 C199.723,31.7585 200.102,31.6563 200.547,31.6563 C200.964,31.6563 201.327,31.7474 201.637,31.9297 C201.947,32.112 202.188,32.3717 202.359,32.709 C202.531,33.0462 202.617,33.4479 202.617,33.9141 L202.617,37.7344 L200.953,37.7344 L200.953,34.2109 C200.956,33.8438 200.862,33.5566 200.672,33.3496 C200.482,33.1426 200.22,33.0391 199.887,33.0391 C199.663,33.0391 199.465,33.0872 199.295,33.1836 C199.124,33.2799 198.992,33.4199 198.896,33.6035 C198.801,33.7871 198.753,34.0078 198.75,34.2656 "/>
</g>

<g fill="#ffffff" fill-opacity="1" stroke="none" transform="matrix(0.228,0,0,0.228,11.6,25.6)"
font-family="Inter" font-size="11" font-weight="700" font-style="normal" 
>
<path vector-effect="none" fill-rule="nonzero" d="M23.3682,15.995 C21.89,15.995 20.7001,17.185 20.7001,18.6631 L20.7001,81.3343 C20.7001,82.8125 21.89,84.0024 23.3682,84.0024 L76.6077,84.0024 C78.0859,84.0024 79.2758,82.8125 79.2758,81.3343 L79.2758,18.6631 C79.2758,17.185 78.0859,15.995 76.6077,15.995 L50.8905,15.995 C51.6703,16.0444 52.2838,16.6869 52.2838,17.4796 L52.2838,26.9112 C52.2838,27.7362 51.6196,28.4004 50.7946,28.4004 L49.3054,28.4004 C48.4804,28.4004 47.8161,27.7362 47.8161,26.9112 L47.8161,17.4796 C47.8161,16.6869 48.4298,16.0443 49.2096,15.995 L23.3682,15.995 M46.7613,35.2087 L53.2146,35.2087 C53.9021,35.2087 54.4556,35.7622 54.4556,36.4497 L54.4556,42.903 C54.4556,43.5906 53.9021,44.1439 53.2146,44.1439 L46.7613,44.1439 C46.0738,44.1439 45.5202,43.5906 45.5202,42.903 L45.5202,36.4497 C45.5202,35.7622 46.0738,35.2087 46.7613,35.2087 "/>
</g>

<g fill="none" stroke="#000000" stroke-opacity="1" stroke-width="2.43854" stroke-linecap="butt" stroke-linejoin="miter" stroke-miterlimit="4" transform="matrix(0.228,0,0,0.228,11.6,25.6)"
font-family="Inter" font-size="11" font-weight="700" font-style="normal" 
>
<path vector-effect="none" fill-rule="nonzero" d="M23.3682,15.995 C21.89,15.995 20.7001,17.185 20.7001,18.6631 L20.7001,81.3343 C20.7001,82.8125 21.89,84.0024 23.3682,84.0024 L76.6077,84.0024 C78.0859,84.0024 79.2758,82.8125 79.2758,81.3343 L79.2758,18.6631 C79.2758,17.185 78.0859,15.995 76.6077,15.995 L50.8905,15.995 C51.6703,16.0444 52.2838,16.6869 52.2838,17.4796 L52.2838,26.9112 C52.2838,27.7362 51.6196,28.4004 50.7946,28.4004 L49.3054,28.4004 C48.4804,28.4004 47.8161,27.7362 47.8161,26.9112 L47.8161,17.4796 C47.8161,16.6869 48.4298,16.0443 49.2096,15.995 L23.3682,15.995 M46.7613,35.2087 L53.2146,35.2087 C53.9021,35.2087 54.4556,35.7622 54.4556,36.4497 L54.4556,42.903 C54.4556,43.5906 53.9021,44.1439 53.2146,44.1439 L46.7613,44.1439 C46.0738,44.1439 45.5202,43.5906 45.5202,42.903 L45.5202,36.4497 C45.5202,35.7622 46.0738,35.2087 46.7613,35.2087 "/>
</g>

<g fill="#000000" fill-opacity="1" stroke="none" transform="matrix(0.228,0,0,0.228,11.6,25.6)"
font-family="Inter" font-size="11" font-weight="700" font-style="normal" 
>
<path vector-effect="none" fill-rule="evenodd" d="M14.2421,17.9523 C14.2421,17.1298 14.9088,16.4631 15.7313,16.4631 L18.7097,16.4631 C19.5322,16.4631 20.1989,17.1298 20.1989,17.9523 L20.1989,33.8372 C20.1989,34.6597 19.5322,35.3264 18.7097,35.3264 L15.7313,35.3264 C14.9088,35.3264 14.2421,34.6597 14.2421,33.8372 L14.2421,17.9523"/>
</g>

<g fill="none" stroke="#000000" stroke-opacity="1" stroke-width="2.43854" stroke-linecap="butt" stroke-linejoin="miter" stroke-miterlimit="4" transform="matrix(0.228,0,0,0.228,11.6,25.6)"
font-family="Inter" font-size="11" font-weight="700" font-style="normal" 
>
<path vector-effect="none" fill-rule="evenodd" d="M14.2421,17.9523 C14.2421,17.1298 14.9088,16.4631 15.7313,16.4631 L18.7097,16.4631 C19.5322,16.4631 20.1989,17.1298 20.1989,17.9523 L20.1989,33.8372 C20.1989,34.6597 19.5322,35.3264 18.7097,35.3264 L15.7313,35.3264 C14.9088,35.3264 14.2421,34.6597 14.2421,33.8372 L14.2421,17.9523"/>
</g>

<g fill="#000000" fill-opacity="1" stroke="none" transform="matrix(0.228,0,0,0.228,11.6,25.6)"
font-family="Inter" font-size="11" font-weight="700" font-style="normal" 
>
<path vector-effect="none" fill-rule="evenodd" d="M79.3249,17.4662 C79.3249,16.6438 79.9916,15.977 80.8141,15.977 L83.7925,15.977 C84.615,15.977 85.2817,16.6438 85.2817,17.4662 L85.2817,33.3512 C85.2817,34.1736 84.615,34.8404 83.7925,34.8404 L80.8141,34.8404 C79.9916,34.8404 79.3249,34.1736 79.3249,33.3512 L79.3249,17.4662"/>
</g>

<g fill="none" stroke="#000000" stroke-opacity="1" stroke-width="2.43854" stroke-linecap="butt" stroke-linejoin="miter" stroke-miterlimit="4" transform="matrix(0.228,0,0,0.228,11.6,25.6)"
font-family="Inter" font-size="11" font-weight="700" font-style="normal" 
>
<path vector-effect="none" fill-rule="evenodd" d="M79.3249,17.4662 C79.3249,16.6438 79.9916,15.977 80.8141,15.977 L83.7925,15.977 C84.615,15.977 85.2817,16.6438 85.2817,17.4662 L85.2817,33.3512 C85.2817,34.1736 84.615,34.8404 83.7925,34.8404 L80.8141,34.8404 C79.9916,34.8404 79.3249,34.1736 79.3249,33.3512 L79.3249,17.4662"/>
</g>

<g fill="#000000" fill-opacity="1" stroke="none" transform="matrix(0.228,0,0,0.228,11.6,25.6)"
font-family="Inter" font-size="11" font-weight="700" font-style="normal" 
>
<path vector-effect="none" fill-rule="evenodd" d="M79.5633,66.576 C79.5633,65.7535 80.23,65.0868 81.0525,65.0868 L84.0309,65.0868 C84.8534,65.0868 85.5201,65.7535 85.5201,66.576 L85.5201,82.4609 C85.5201,83.2834 84.8534,83.9501 84.0309,83.9501 L81.0525,83.9501 C80.23,83.9501 79.5633,83.2834 79.5633,82.4609 L79.5633,66.576"/>
</g>

<g fill="none" stroke="#000000" stroke-opacity="1" stroke-width="2.43854" stroke-linecap="butt" stroke-linejoin="miter" stroke-miterlimit="4" transform="matrix(0.228,0,0,0.228,11.6,25.6)"
font-family="Inter" font-size="11" font-weight="700" font-style="normal" 
>
<path vector-effect="none" fill-rule="evenodd" d="M79.5633,66.576 C79.5633,65.7535 80.23,65.0868 81.0525,65.0868 L84.0309,65.0868 C84.8534,65.0868 85.5201,65.7535 85.5201,66.576 L85.5201,82.4609 C85.5201,83.2834 84.8534,83.9501 84.0309,83.9501 L81.0525,83.9501 C80.23,83.9501 79.5633,83.2834 79.5633,82.4609 L79.5633,66.576"/>
</g>

<g fill="#000000" fill-opacity="1" stroke="none" transform="matrix(0.228,0,0,0.228,11.6,25.6)"
font-family="Inter" font-size="11" font-weight="700" font-style="normal" 
>
<path vector-effect="none" fill-rule="evenodd" d="M14.6928,66.6283 C14.6928,65.8058 15.3595,65.1391 16.182,65.1391 L19.1604,65.1391 C19.9829,65.1391 20.6496,65.8058 20.6496,66.6283 L20.6496,82.5132 C20.6496,83.3357 19.9829,84.0024 19.1604,84.0024 L16.182,84.0024 C15.3595,84.0024 14.6928,83.3357 14.6928,82.5132 L14.6928,66.6283"/>
</g>

<g fill="none" stroke="#000000" stroke-opacity="1" stroke-width="2.43854" stroke-linecap="butt" stroke-linejoin="miter" stroke-miterlimit="4" transform="matrix(0.228,0,0,0.228,11.6,25.6)"
font-family="Inter" font-size="11" font-weight="700" font-style="normal" 
>
<path vector-effect="none" fill-rule="evenodd" d="M14.6928,66.6283 C14.6928,65.8058 15.3595,65.1391 16.182,65.1391 L19.1604,65.1391 C19.9829,65.1391 20.6496,65.8058 20.6496,66.6283 L20.6496,82.5132 C20.6496,83.3357 19.9829,84.0024 19.1604,84.0024 L16.182,84.0024 C15.3595,84.0024 14.6928,83.3357 14.6928,82.5132 L14.6928,66.6283"/>
</g>

<g fill="none" stroke="#000000" stroke-opacity="1" stroke-width="2.43854" stroke-linecap="butt" stroke-linejoin="miter" stroke-miterlimit="4" transform="matrix(0.228,0,0,0.228,11.6,25.6)"
font-family="Inter" font-size="11" font-weight="700" font-style="normal" 
>
<path vector-effect="none" fill-rule="evenodd" d="M20.92,17.503 C20.92,16.6806 21.5867,16.0138 22.4092,16.0138 L27.125,16.0138 C27.9475,16.0138 28.6142,16.6806 28.6142,17.503 L28.6142,55.9743 C28.6142,56.7968 27.9475,57.4635 27.125,57.4635 L22.4092,57.4635 C21.5867,57.4635 20.92,56.7968 20.92,55.9743 L20.92,17.503"/>
</g>

<g fill="none" stroke="#000000" stroke-opacity="1" stroke-width="2.43854" stroke-linecap="butt" stroke-linejoin="miter" stroke-miterlimit="4" transform="matrix(0.228,0,0,0.228,11.6,25.6)"
font-family="Inter" font-size="11" font-weight="700" font-style="normal" 
>
<path vector-effect="none" fill-rule="evenodd" d="M71.4269,17.6638 C71.4269,16.8414 72.0937,16.1746 72.9162,16.1746 L77.632,16.1746 C78.4545,16.1746 79.1212,16.8414 79.1212,17.6638 L79.1212,56.1351 C79.1212,56.9576 78.4545,57.6243 77.632,57.6243 L72.9162,57.6243 C72.0937,57.6243 71.4269,56.9576 71.4269,56.1351 L71.4269,17.6638"/>
</g>

<g fill="#ffffff" fill-opacity="1" stroke="none" transform="matrix(0.228,0,0,0.228,11.6,25.6)"
font-family="Inter" font-size="11" font-weight="700" font-style="normal" 
>
<path vector-effect="none" fill-rule="evenodd" d="M41.9526,15.9757 C41.9526,15.9593 41.9659,15.9461 41.9822,15.9461 L57.922,15.9461 C57.9384,15.9461 57.9516,15.9593 57.9516,15.9757 C57.9516,15.992 57.9384,16.0053 57.922,16.0053 L41.9822,16.0053 C41.9659,16.0053 41.9526,15.992 41.9526,15.9757 "/>
</g>

<g fill="none" stroke="#000000" stroke-opacity="1" stroke-width="2.3865" stroke-linecap="butt" stroke-linejoin="miter" stroke-miterlimit="4" transform="matrix(0.228,0,0,0.228,11.6,25.6)"
font-family="Inter" font-size="11" font-weight="700" font-style="normal" 
>
<path vector-effect="none" fill-rule="evenodd" d="M41.9526,15.9757 C41.9526,15.9593 41.9659,15.9461 41.9822,15.9461 L57.922,15.9461 C57.9384,15.9461 57.9516,15.9593 57.9516,15.9757 C57.9516,15.992 57.9384,16.0053 57.922,16.0053 L41.9822,16.0053 C41.9659,16.0053 41.9526,15.992 41.9526,15.9757 "/>
</g>

<g fill="#ffffff" fill-opacity="1" stroke="none" transform="matrix(1,0,0,1,0,0)"
font-family="Inter" font-size="11" font-weight="700" font-style="normal" 
>
</g>

<g fill="#ffffff" fill-opacity="1" stroke="#ba9500" stroke-opacity="1" stroke-width="1" stroke-linecap="square" stroke-linejoin="bevel" transform="matrix(1,0,0,1,0,0)"
font-family="Inter" font-size="11" font-weight="700" font-style="normal" 
>
<polyline fill="none" vector-effect="none" points="45,27 45,47 " />
</g>

<g fill="#f5c400" fill-opacity="1" stroke="#ba9500" stroke-opacity="1" stroke-width="1.2" stroke-linecap="square" stroke-linejoin="bevel" transform="matrix(1,0,0,1,87,22)"
font-family="Inter" font-size="11" font-weight="700" font-style="normal" 
>
<path vector-effect="none" fill-rule="evenodd" d="M0.5,3.5 C0.5,1.84315 1.84315,0.5 3.5,0.5 L71.5,0.5 C73.1569,0.5 74.5,1.84315 74.5,3.5 L74.5,20.5 C74.5,22.1569 73.1569,23.5 71.5,23.5 L3.5,23.5 C1.84315,23.5 0.5,22.1569 0.5,20.5 L0.5,3.5"/>
</g>

<g fill="#ffffff" fill-opacity="1" stroke="none" transform="matrix(1,0,0,1,87,22)"
font-family="Inter" font-size="11" font-weight="700" font-style="normal" 
>
<path vector-effect="none" fill-rule="nonzero" d="M10,9.39453 L10,8 L16.5703,8 L16.5703,9.39453 L14.1211,9.39453 L14.1211,16 L12.4492,16 L12.4492,9.39453 L10,9.39453 M17.6484,16 L17.6484,8 L19.3398,8 L19.3398,11.3008 L22.7734,11.3008 L22.7734,8 L24.4609,8 L24.4609,16 L22.7734,16 L22.7734,12.6953 L19.3398,12.6953 L19.3398,16 L17.6484,16 M32.543,8 L32.543,16 L31.082,16 L27.6016,10.9648 L27.543,10.9648 L27.543,16 L25.8516,16 L25.8516,8 L27.3359,8 L30.7891,13.0313 L30.8594,13.0313 L30.8594,8 L32.543,8 M33.9297,16 L33.9297,8 L35.6211,8 L35.6211,11.3008 L39.0547,11.3008 L39.0547,8 L40.7422,8 L40.7422,16 L39.0547,16 L39.0547,12.6953 L35.6211,12.6953 L35.6211,16 L33.9297,16 M42.1328,16 L42.1328,8 L45.3359,8 C45.9245,8 46.4154,8.08724 46.8086,8.26172 C47.2018,8.4362 47.4974,8.67773 47.6953,8.98633 C47.8932,9.29492 47.9922,9.64974 47.9922,10.0508 C47.9922,10.3633 47.9297,10.6374 47.8047,10.873 C47.6797,11.1087 47.5085,11.3014 47.291,11.4512 C47.0736,11.6009 46.8255,11.707 46.5469,11.7695 L46.5469,11.8477 C46.8516,11.8607 47.1374,11.9466 47.4043,12.1055 C47.6712,12.2643 47.888,12.4863 48.0547,12.7715 C48.2214,13.0566 48.3047,13.3958 48.3047,13.7891 C48.3047,14.2135 48.1999,14.5918 47.9902,14.9238 C47.7806,15.2559 47.4714,15.5182 47.0625,15.7109 C46.6536,15.9036 46.1497,16 45.5508,16 L42.1328,16 M43.8242,14.6172 L45.2031,14.6172 C45.6745,14.6172 46.0182,14.5267 46.2344,14.3457 C46.4505,14.1647 46.5586,13.9232 46.5586,13.6211 C46.5586,13.3997 46.5052,13.2044 46.3984,13.0352 C46.2917,12.8659 46.14,12.7331 45.9434,12.6367 C45.7467,12.5404 45.513,12.4922 45.2422,12.4922 L43.8242,12.4922 L43.8242,14.6172 M43.8242,11.3477 L45.0781,11.3477 C45.3099,11.3477 45.5163,11.3066 45.6973,11.2246 C45.8783,11.1426 46.0215,11.026 46.127,10.875 C46.2324,10.724 46.2852,10.543 46.2852,10.332 C46.2852,10.043 46.1829,9.8099 45.9785,9.63281 C45.7741,9.45573 45.4844,9.36719 45.1094,9.36719 L43.8242,9.36719 L43.8242,11.3477 M52.832,8 L52.832,16 L51.1406,16 L51.1406,9.60547 L51.0938,9.60547 L49.2617,10.7539 L49.2617,9.25391 L51.2422,8 L52.832,8"/>
</g>

<g fill="#ffffff" fill-opacity="1" stroke="none" transform="matrix(0.03125,0,0,0.03125,148,30)"
font-family="Inter" font-size="11" font-weight="700" font-style="normal" 
>
<path vector-effect="none" fill-rule="nonzero" d="M111.326,191.938 C120.545,201.158 135.517,201.158 144.737,191.938 L239.144,97.5313 C245.929,90.7458 247.921,80.6413 244.233,71.7907 C240.545,62.9401 231.989,57.1871 222.401,57.1871 L33.5875,57.2608 C24.0731,57.2608 15.4437,63.0137 11.7559,71.8644 C8.06815,80.715 10.1333,90.8195 16.845,97.605 L111.252,192.012 L111.326,191.938"/>
</g>

<g fill="none" stroke="#000000" stroke-opacity="1" stroke-width="13.7195" stroke-linecap="butt" stroke-linejoin="miter" stroke-miterlimit="4" transform="matrix(0.03125,0,0,0.03125,148,30)"
font-family="Inter" font-size="11" font-weight="700" font-style="normal" 
>
<path vector-effect="none" fill-rule="nonzero" d="M111.326,191.938 C120.545,201.158 135.517,201.158 144.737,191.938 L239.144,97.5313 C245.929,90.7458 247.921,80.6413 244.233,71.7907 C240.545,62.9401 231.989,57.1871 222.401,57.1871 L33.5875,57.2608 C24.0731,57.2608 15.4437,63.0137 11.7559,71.8644 C8.06815,80.715 10.1333,90.8195 16.845,97.605 L111.252,192.012 L111.326,191.938"/>
</g>

<g fill="#ffffff" fill-opacity="1" stroke="none" transform="matrix(1,0,0,1,87,22)"
font-family="Inter" font-size="11" font-weight="700" font-style="normal" 
>
</g>

<g fill="#ffffff" fill-opacity="1" stroke="#ba9500" stroke-opacity="1" stroke-width="1" stroke-linecap="square" stroke-linejoin="bevel" transform="matrix(1,0,0,1,0,0)"
font-family="Inter" font-size="11" font-weight="700" font-style="normal" 
>
</g>

<g fill="#f5c400" fill-opacity="1" stroke="#ba9500" stroke-opacity="1" stroke-width="1.2" stroke-linecap="square" stroke-linejoin="bevel" transform="matrix(1,0,0,1,209,22)"
font-family="Inter" font-size="11" font-weight="700" font-style="normal" 
>
<path vector-effect="none" fill-rule="evenodd" d="M0.5,3.5 C0.5,1.84315 1.84315,0.5 3.5,0.5 L63.5,0.5 C65.1569,0.5 66.5,1.84315 66.5,3.5 L66.5,20.5 C66.5,22.1569 65.1569,23.5 63.5,23.5 L3.5,23.5 C1.84315,23.5 0.5,22.1569 0.5,20.5 L0.5,3.5"/>
</g>

<g fill="#ffffff" fill-opacity="1" stroke="none" transform="matrix(1,0,0,1,209,22)"
font-family="Inter" font-size="11" font-weight="700" font-style="normal" 
>
<path vector-effect="none" fill-rule="nonzero" d="M12.9531,15.5703 C12.3385,15.5703 11.8105,15.4395 11.3691,15.1777 C10.9277,14.916 10.5892,14.5521 10.3535,14.0859 C10.1178,13.6198 10,13.0833 10,12.4766 C10,11.862 10.1191,11.3223 10.3574,10.8574 C10.5957,10.3926 10.9349,10.0293 11.375,9.76758 C11.8151,9.50586 12.3385,9.375 12.9453,9.375 C13.4688,9.375 13.9271,9.47005 14.3203,9.66016 C14.7135,9.85026 15.0247,10.1172 15.2539,10.4609 C15.4831,10.8047 15.6094,11.2083 15.6328,11.6719 L14.0625,11.6719 C14.0182,11.3724 13.9017,11.1309 13.7129,10.9473 C13.5241,10.7637 13.2773,10.6719 12.9727,10.6719 C12.7148,10.6719 12.4902,10.7415 12.2988,10.8809 C12.1074,11.0202 11.9583,11.2227 11.8516,11.4883 C11.7448,11.7539 11.6914,12.0755 11.6914,12.4531 C11.6914,12.8359 11.7441,13.1615 11.8496,13.4297 C11.9551,13.6979 12.1042,13.9023 12.2969,14.043 C12.4896,14.1836 12.7148,14.2539 12.9727,14.2539 C13.1628,14.2539 13.334,14.2148 13.4863,14.1367 C13.6387,14.0586 13.765,13.9447 13.8652,13.7949 C13.9655,13.6452 14.0313,13.4648 14.0625,13.2539 L15.6328,13.2539 C15.6068,13.7122 15.4824,14.1152 15.2598,14.4629 C15.0371,14.8105 14.7305,15.082 14.3398,15.2773 C13.9492,15.4727 13.487,15.5703 12.9531,15.5703 M19.4297,15.5703 C18.8125,15.5703 18.2819,15.4447 17.8379,15.1934 C17.3939,14.9421 17.0521,14.5853 16.8125,14.123 C16.5729,13.6608 16.4531,13.1133 16.4531,12.4805 C16.4531,11.8633 16.5729,11.3216 16.8125,10.8555 C17.0521,10.3893 17.39,10.026 17.8262,9.76563 C18.2624,9.50521 18.7747,9.375 19.3633,9.375 C19.7591,9.375 20.1283,9.43815 20.4707,9.56445 C20.8132,9.69076 21.1126,9.88021 21.3691,10.1328 C21.6257,10.3854 21.8255,10.7025 21.9688,11.084 C22.112,11.4655 22.1836,11.9115 22.1836,12.4219 L22.1836,12.8789 L17.1172,12.8789 L17.1172,11.8477 L20.6172,11.8477 C20.6172,11.6081 20.5651,11.3958 20.4609,11.2109 C20.3568,11.026 20.2129,10.8809 20.0293,10.7754 C19.8457,10.6699 19.6328,10.6172 19.3906,10.6172 C19.138,10.6172 18.9147,10.6751 18.7207,10.791 C18.5267,10.9069 18.375,11.0618 18.2656,11.2559 C18.1563,11.4499 18.1003,11.6654 18.0977,11.9023 L18.0977,12.8828 C18.0977,13.1797 18.153,13.4362 18.2637,13.6523 C18.3743,13.8685 18.5313,14.0352 18.7344,14.1523 C18.9375,14.2695 19.1784,14.3281 19.457,14.3281 C19.6419,14.3281 19.8112,14.3021 19.9648,14.25 C20.1185,14.1979 20.25,14.1198 20.3594,14.0156 C20.4688,13.9115 20.5521,13.7839 20.6094,13.6328 L22.1484,13.7344 C22.0703,14.1042 21.9108,14.4264 21.6699,14.7012 C21.429,14.9759 21.1191,15.1895 20.7402,15.3418 C20.3613,15.4941 19.9245,15.5703 19.4297,15.5703 M24.9219,11.9844 L24.9219,15.4531 L23.2578,15.4531 L23.2578,9.45313 L24.8438,9.45313 L24.8438,10.5117 L24.9141,10.5117 C25.0469,10.1628 25.2695,9.88607 25.582,9.68164 C25.8945,9.47721 26.2734,9.375 26.7188,9.375 C27.1354,9.375 27.4987,9.46615 27.8086,9.64844 C28.1185,9.83073 28.3594,10.0905 28.5313,10.4277 C28.7031,10.765 28.7891,11.1667 28.7891,11.6328 L28.7891,15.4531 L27.125,15.4531 L27.125,11.9297 C27.1276,11.5625 27.0339,11.2754 26.8438,11.0684 C26.6536,10.8613 26.3919,10.7578 26.0586,10.7578 C25.8346,10.7578 25.6374,10.806 25.4668,10.9023 C25.2962,10.9987 25.1634,11.1387 25.0684,11.3223 C24.9733,11.5059 24.9245,11.7266 24.9219,11.9844 M33.2773,9.45313 L33.2773,10.7031 L29.6641,10.7031 L29.6641,9.45313 L33.2773,9.45313 M30.4844,8.01563 L32.1484,8.01563 L32.1484,13.6094 C32.1484,13.763 32.1719,13.8822 32.2188,13.9668 C32.2656,14.0514 32.3314,14.1107 32.416,14.1445 C32.5007,14.1784 32.599,14.1953 32.7109,14.1953 C32.7891,14.1953 32.8672,14.1882 32.9453,14.1738 C33.0234,14.1595 33.0833,14.1484 33.125,14.1406 L33.3867,15.3789 C33.3034,15.4049 33.1862,15.4355 33.0352,15.4707 C32.8841,15.5059 32.7005,15.5273 32.4844,15.5352 C32.0833,15.5508 31.7324,15.4974 31.4316,15.375 C31.1309,15.2526 30.8971,15.0625 30.7305,14.8047 C30.5638,14.5469 30.4818,14.2214 30.4844,13.8281 L30.4844,8.01563 M37.0234,15.5703 C36.4063,15.5703 35.8757,15.4447 35.4316,15.1934 C34.9876,14.9421 34.6458,14.5853 34.4063,14.123 C34.1667,13.6608 34.0469,13.1133 34.0469,12.4805 C34.0469,11.8633 34.1667,11.3216 34.4063,10.8555 C34.6458,10.3893 34.9837,10.026 35.4199,9.76563 C35.8561,9.50521 36.3685,9.375 36.957,9.375 C37.3529,9.375 37.722,9.43815 38.0645,9.56445 C38.4069,9.69076 38.7064,9.88021 38.9629,10.1328 C39.2194,10.3854 39.4193,10.7025 39.5625,11.084 C39.7057,11.4655 39.7773,11.9115 39.7773,12.4219 L39.7773,12.8789 L34.7109,12.8789 L34.7109,11.8477 L38.2109,11.8477 C38.2109,11.6081 38.1589,11.3958 38.0547,11.2109 C37.9505,11.026 37.8066,10.8809 37.623,10.7754 C37.4395,10.6699 37.2266,10.6172 36.9844,10.6172 C36.7318,10.6172 36.5085,10.6751 36.3145,10.791 C36.1204,10.9069 35.9688,11.0618 35.8594,11.2559 C35.75,11.4499 35.694,11.6654 35.6914,11.9023 L35.6914,12.8828 C35.6914,13.1797 35.7467,13.4362 35.8574,13.6523 C35.9681,13.8685 36.125,14.0352 36.3281,14.1523 C36.5313,14.2695 36.7721,14.3281 37.0508,14.3281 C37.2357,14.3281 37.4049,14.3021 37.5586,14.25 C37.7122,14.1979 37.8438,14.1198 37.9531,14.0156 C38.0625,13.9115 38.1458,13.7839 38.2031,13.6328 L39.7422,13.7344 C39.6641,14.1042 39.5046,14.4264 39.2637,14.7012 C39.0228,14.9759 38.7129,15.1895 38.334,15.3418 C37.9551,15.4941 37.5182,15.5703 37.0234,15.5703 M40.8516,15.4531 L40.8516,9.45313 L42.4648,9.45313 L42.4648,10.5 L42.5273,10.5 C42.6367,10.1276 42.8203,9.8457 43.0781,9.6543 C43.3359,9.46289 43.6328,9.36719 43.9688,9.36719 C44.0521,9.36719 44.1419,9.3724 44.2383,9.38281 C44.3346,9.39323 44.4193,9.40755 44.4922,9.42578 L44.4922,10.9023 C44.4141,10.8789 44.306,10.8581 44.168,10.8398 C44.0299,10.8216 43.9036,10.8125 43.7891,10.8125 C43.5443,10.8125 43.3262,10.8652 43.1348,10.9707 C42.9434,11.0762 42.7923,11.2227 42.6816,11.4102 C42.571,11.5977 42.5156,11.8138 42.5156,12.0586 L42.5156,15.4531 L40.8516,15.4531"/>
</g>

<g fill="#ffffff" fill-opacity="1" stroke="none" transform="matrix(0.03125,0,0,0.03125,262,30)"
font-family="Inter" font-size="11" font-weight="700" font-style="normal" 
>
<path vector-effect="none" fill-rule="nonzero" d="M111.326,191.938 C120.545,201.158 135.517,201.158 144.737,191.938 L239.144,97.5313 C245.929,90.7458 247.921,80.6413 244.233,71.7907 C240.545,62.9401 231.989,57.1871 222.401,57.1871 L33.5875,57.2608 C24.0731,57.2608 15.4437,63.0137 11.7559,71.8644 C8.06815,80.715 10.1333,90.8195 16.845,97.605 L111.252,192.012 L111.326,191.938"/>
</g>

<g fill="none" stroke="#000000" stroke-opacity="1" stroke-width="13.7195" stroke-linecap="butt" stroke-linejoin="miter" stroke-miterlimit="4" transform="matrix(0.03125,0,0,0.03125,262,30)"
font-family="Inter" font-size="11" font-weight="700" font-style="normal" 
>
<path vector-effect="none" fill-rule="nonzero" d="M111.326,191.938 C120.545,201.158 135.517,201.158 144.737,191.938 L239.144,97.5313 C245.929,90.7458 247.921,80.6413 244.233,71.7907 C240.545,62.9401 231.989,57.1871 222.401,57.1871 L33.5875,57.2608 C24.0731,57.2608 15.4437,63.0137 11.7559,71.8644 C8.06815,80.715 10.1333,90.8195 16.845,97.605 L111.252,192.012 L111.326,191.938"/>
</g>

<g fill="#ffffff" fill-opacity="1" stroke="none" transform="matrix(1,0,0,1,209,22)"
font-family="Inter" font-size="11" font-weight="700" font-style="normal" 
>
</g>

<g fill="#ffffff" fill-opacity="1" stroke="#ba9500" stroke-opacity="1" stroke-width="1" stroke-linecap="square" stroke-linejoin="bevel" transform="matrix(1,0,0,1,0,0)"
font-family="Inter" font-size="11" font-weight="700" font-style="normal" 
>
</g>

<g fill="#f5c400" fill-opacity="1" stroke="#ba9500" stroke-opacity="1" stroke-width="1.2" stroke-linecap="square" stroke-linejoin="bevel" transform="matrix(1,0,0,1,280,22)"
font-family="Inter" font-size="11" font-weight="700" font-style="normal" 
>
<path vector-effect="none" fill-rule="evenodd" d="M0.5,3.5 C0.5,1.84315 1.84315,0.5 3.5,0.5 L70.5,0.5 C72.1569,0.5 73.5,1.84315 73.5,3.5 L73.5,20.5 C73.5,22.1569 72.1569,23.5 70.5,23.5 L3.5,23.5 C1.84315,23.5 0.5,22.1569 0.5,20.5 L0.5,3.5"/>
</g>

<g fill="#ffffff" fill-opacity="1" stroke="none" transform="matrix(1,0,0,1,280,22)"
font-family="Inter" font-size="11" font-weight="700" font-style="normal" 
>
<path vector-effect="none" fill-rule="nonzero" d="M9.00781,17.0781 L9.00781,8.82813 L10.6484,8.82813 L10.6484,9.83594 L10.7227,9.83594 C10.7956,9.67448 10.9017,9.50977 11.041,9.3418 C11.1803,9.17383 11.3626,9.0332 11.5879,8.91992 C11.8132,8.80664 12.0938,8.75 12.4297,8.75 C12.8672,8.75 13.2708,8.86393 13.6406,9.0918 C14.0104,9.31966 14.306,9.66211 14.5273,10.1191 C14.7487,10.5762 14.8594,11.1484 14.8594,11.8359 C14.8594,12.5052 14.752,13.0697 14.5371,13.5293 C14.3223,13.9889 14.0306,14.3366 13.6621,14.5723 C13.2936,14.8079 12.8815,14.9258 12.4258,14.9258 C12.1029,14.9258 11.8288,14.8724 11.6035,14.7656 C11.3783,14.6589 11.194,14.5241 11.0508,14.3613 C10.9076,14.1986 10.7982,14.0339 10.7227,13.8672 L10.6719,13.8672 L10.6719,17.0781 L9.00781,17.0781 M10.6367,11.8281 C10.6367,12.1849 10.6862,12.4961 10.7852,12.7617 C10.8841,13.0273 11.0273,13.2337 11.2148,13.3809 C11.4023,13.528 11.6302,13.6016 11.8984,13.6016 C12.1693,13.6016 12.3984,13.5267 12.5859,13.377 C12.7734,13.2272 12.916,13.0189 13.0137,12.752 C13.1113,12.485 13.1602,12.1771 13.1602,11.8281 C13.1602,11.4818 13.112,11.1771 13.0156,10.9141 C12.9193,10.651 12.7773,10.4453 12.5898,10.2969 C12.4023,10.1484 12.1719,10.0742 11.8984,10.0742 C11.6276,10.0742 11.3991,10.1458 11.2129,10.2891 C11.0267,10.4323 10.8841,10.6354 10.7852,10.8984 C10.6862,11.1615 10.6367,11.4714 10.6367,11.8281 M15.9609,14.8281 L15.9609,8.82813 L17.5742,8.82813 L17.5742,9.875 L17.6367,9.875 C17.7461,9.5026 17.9297,9.2207 18.1875,9.0293 C18.4453,8.83789 18.7422,8.74219 19.0781,8.74219 C19.1615,8.74219 19.2513,8.7474 19.3477,8.75781 C19.444,8.76823 19.5286,8.78255 19.6016,8.80078 L19.6016,10.2773 C19.5234,10.2539 19.4154,10.2331 19.2773,10.2148 C19.1393,10.1966 19.013,10.1875 18.8984,10.1875 C18.6536,10.1875 18.4355,10.2402 18.2441,10.3457 C18.0527,10.4512 17.9017,10.5977 17.791,10.7852 C17.6803,10.9727 17.625,11.1888 17.625,11.4336 L17.625,14.8281 L15.9609,14.8281 M22.8984,14.9453 C22.2813,14.9453 21.7507,14.8197 21.3066,14.5684 C20.8626,14.3171 20.5208,13.9603 20.2813,13.498 C20.0417,13.0358 19.9219,12.4883 19.9219,11.8555 C19.9219,11.2383 20.0417,10.6966 20.2813,10.2305 C20.5208,9.76432 20.8587,9.40104 21.2949,9.14063 C21.7311,8.88021 22.2435,8.75 22.832,8.75 C23.2279,8.75 23.597,8.81315 23.9395,8.93945 C24.2819,9.06576 24.5814,9.25521 24.8379,9.50781 C25.0944,9.76042 25.2943,10.0775 25.4375,10.459 C25.5807,10.8405 25.6523,11.2865 25.6523,11.7969 L25.6523,12.2539 L20.5859,12.2539 L20.5859,11.2227 L24.0859,11.2227 C24.0859,10.9831 24.0339,10.7708 23.9297,10.5859 C23.8255,10.401 23.6816,10.2559 23.498,10.1504 C23.3145,10.0449 23.1016,9.99219 22.8594,9.99219 C22.6068,9.99219 22.3835,10.0501 22.1895,10.166 C21.9954,10.2819 21.8438,10.4368 21.7344,10.6309 C21.625,10.8249 21.569,11.0404 21.5664,11.2773 L21.5664,12.2578 C21.5664,12.5547 21.6217,12.8112 21.7324,13.0273 C21.8431,13.2435 22,13.4102 22.2031,13.5273 C22.4063,13.6445 22.6471,13.7031 22.9258,13.7031 C23.1107,13.7031 23.2799,13.6771 23.4336,13.625 C23.5872,13.5729 23.7188,13.4948 23.8281,13.3906 C23.9375,13.2865 24.0208,13.1589 24.0781,13.0078 L25.6172,13.1094 C25.5391,13.4792 25.3796,13.8014 25.1387,14.0762 C24.8978,14.3509 24.5879,14.5645 24.209,14.7168 C23.8301,14.8691 23.3932,14.9453 22.8984,14.9453 M31.7188,10.5391 L30.1953,10.6328 C30.1693,10.5026 30.1133,10.3848 30.0273,10.2793 C29.9414,10.1738 29.8288,10.0892 29.6895,10.0254 C29.5501,9.96159 29.3841,9.92969 29.1914,9.92969 C28.9336,9.92969 28.7161,9.98372 28.5391,10.0918 C28.362,10.1999 28.2734,10.3438 28.2734,10.5234 C28.2734,10.6667 28.3307,10.7878 28.4453,10.8867 C28.5599,10.9857 28.7565,11.0651 29.0352,11.125 L30.1211,11.3438 C30.7044,11.4635 31.1393,11.6563 31.4258,11.9219 C31.7122,12.1875 31.8555,12.5365 31.8555,12.9688 C31.8555,13.362 31.7402,13.707 31.5098,14.0039 C31.2793,14.3008 30.9642,14.5319 30.5645,14.6973 C30.1647,14.8626 29.7044,14.9453 29.1836,14.9453 C28.3893,14.9453 27.7572,14.7793 27.2871,14.4473 C26.8171,14.1152 26.5417,13.6628 26.4609,13.0898 L28.0977,13.0039 C28.1471,13.2461 28.2669,13.4303 28.457,13.5566 C28.6471,13.6829 28.8906,13.7461 29.1875,13.7461 C29.4792,13.7461 29.7142,13.6895 29.8926,13.5762 C30.071,13.4629 30.1615,13.3164 30.1641,13.1367 C30.1615,12.9857 30.0977,12.8613 29.9727,12.7637 C29.8477,12.666 29.6549,12.5911 29.3945,12.5391 L28.3555,12.332 C27.7695,12.2148 27.334,12.0117 27.0488,11.7227 C26.7637,11.4336 26.6211,11.0651 26.6211,10.6172 C26.6211,10.2318 26.7259,9.89974 26.9355,9.62109 C27.1452,9.34245 27.4408,9.1276 27.8223,8.97656 C28.2038,8.82552 28.651,8.75 29.1641,8.75 C29.9219,8.75 30.5189,8.91016 30.9551,9.23047 C31.3913,9.55078 31.6458,9.98698 31.7188,10.5391 M37.8906,10.5391 L36.3672,10.6328 C36.3411,10.5026 36.2852,10.3848 36.1992,10.2793 C36.1133,10.1738 36.0007,10.0892 35.8613,10.0254 C35.722,9.96159 35.556,9.92969 35.3633,9.92969 C35.1055,9.92969 34.888,9.98372 34.7109,10.0918 C34.5339,10.1999 34.4453,10.3438 34.4453,10.5234 C34.4453,10.6667 34.5026,10.7878 34.6172,10.8867 C34.7318,10.9857 34.9284,11.0651 35.207,11.125 L36.293,11.3438 C36.8763,11.4635 37.3112,11.6563 37.5977,11.9219 C37.8841,12.1875 38.0273,12.5365 38.0273,12.9688 C38.0273,13.362 37.9121,13.707 37.6816,14.0039 C37.4512,14.3008 37.1361,14.5319 36.7363,14.6973 C36.3366,14.8626 35.8763,14.9453 35.3555,14.9453 C34.5612,14.9453 33.929,14.7793 33.459,14.4473 C32.9889,14.1152 32.7135,13.6628 32.6328,13.0898 L34.2695,13.0039 C34.319,13.2461 34.4388,13.4303 34.6289,13.5566 C34.819,13.6829 35.0625,13.7461 35.3594,13.7461 C35.651,13.7461 35.8861,13.6895 36.0645,13.5762 C36.2428,13.4629 36.3333,13.3164 36.3359,13.1367 C36.3333,12.9857 36.2695,12.8613 36.1445,12.7637 C36.0195,12.666 35.8268,12.5911 35.5664,12.5391 L34.5273,12.332 C33.9414,12.2148 33.5059,12.0117 33.2207,11.7227 C32.9355,11.4336 32.793,11.0651 32.793,10.6172 C32.793,10.2318 32.8978,9.89974 33.1074,9.62109 C33.3171,9.34245 33.6126,9.1276 33.9941,8.97656 C34.3757,8.82552 34.8229,8.75 35.3359,8.75 C36.0938,8.75 36.6908,8.91016 37.127,9.23047 C37.5632,9.55078 37.8177,9.98698 37.8906,10.5391 M41.8047,14.9453 C41.1875,14.9453 40.6569,14.8197 40.2129,14.5684 C39.7689,14.3171 39.4271,13.9603 39.1875,13.498 C38.9479,13.0358 38.8281,12.4883 38.8281,11.8555 C38.8281,11.2383 38.9479,10.6966 39.1875,10.2305 C39.4271,9.76432 39.765,9.40104 40.2012,9.14063 C40.6374,8.88021 41.1497,8.75 41.7383,8.75 C42.1341,8.75 42.5033,8.81315 42.8457,8.93945 C43.1882,9.06576 43.4876,9.25521 43.7441,9.50781 C44.0007,9.76042 44.2005,10.0775 44.3438,10.459 C44.487,10.8405 44.5586,11.2865 44.5586,11.7969 L44.5586,12.2539 L39.4922,12.2539 L39.4922,11.2227 L42.9922,11.2227 C42.9922,10.9831 42.9401,10.7708 42.8359,10.5859 C42.7318,10.401 42.5879,10.2559 42.4043,10.1504 C42.2207,10.0449 42.0078,9.99219 41.7656,9.99219 C41.513,9.99219 41.2897,10.0501 41.0957,10.166 C40.9017,10.2819 40.75,10.4368 40.6406,10.6309 C40.5313,10.8249 40.4753,11.0404 40.4727,11.2773 L40.4727,12.2578 C40.4727,12.5547 40.528,12.8112 40.6387,13.0273 C40.7493,13.2435 40.9063,13.4102 41.1094,13.5273 C41.3125,13.6445 41.5534,13.7031 41.832,13.7031 C42.0169,13.7031 42.1862,13.6771 42.3398,13.625 C42.4935,13.5729 42.625,13.4948 42.7344,13.3906 C42.8438,13.2865 42.9271,13.1589 42.9844,13.0078 L44.5234,13.1094 C44.4453,13.4792 44.2858,13.8014 44.0449,14.0762 C43.804,14.3509 43.4941,14.5645 43.1152,14.7168 C42.7363,14.8691 42.2995,14.9453 41.8047,14.9453 M47.8438,14.9258 C47.388,14.9258 46.9759,14.8079 46.6074,14.5723 C46.2389,14.3366 45.9473,13.9889 45.7324,13.5293 C45.5176,13.0697 45.4102,12.5052 45.4102,11.8359 C45.4102,11.1484 45.5208,10.5762 45.7422,10.1191 C45.9635,9.66211 46.2585,9.31966 46.627,9.0918 C46.9954,8.86393 47.3997,8.75 47.8398,8.75 C48.1758,8.75 48.4564,8.80664 48.6816,8.91992 C48.9069,9.0332 49.0892,9.17383 49.2285,9.3418 C49.3678,9.50977 49.474,9.67448 49.5469,9.83594 L49.5977,9.83594 L49.5977,6.82813 L51.2578,6.82813 L51.2578,14.8281 L49.6172,14.8281 L49.6172,13.8672 L49.5469,13.8672 C49.4688,14.0339 49.3587,14.1986 49.2168,14.3613 C49.0749,14.5241 48.8913,14.6589 48.666,14.7656 C48.4408,14.8724 48.1667,14.9258 47.8438,14.9258 M48.3711,13.6016 C48.6393,13.6016 48.8665,13.528 49.0527,13.3809 C49.2389,13.2337 49.3822,13.0273 49.4824,12.7617 C49.5827,12.4961 49.6328,12.1849 49.6328,11.8281 C49.6328,11.4714 49.5833,11.1615 49.4844,10.8984 C49.3854,10.6354 49.2422,10.4323 49.0547,10.2891 C48.8672,10.1458 48.6393,10.0742 48.3711,10.0742 C48.0977,10.0742 47.8672,10.1484 47.6797,10.2969 C47.4922,10.4453 47.3503,10.651 47.2539,10.9141 C47.1576,11.1771 47.1094,11.4818 47.1094,11.8281 C47.1094,12.1771 47.1582,12.485 47.2559,12.752 C47.3535,13.0189 47.4954,13.2272 47.6816,13.377 C47.8678,13.5267 48.0977,13.6016 48.3711,13.6016 "/>
</g>

<g fill="#ffffff" fill-opacity="1" stroke="none" transform="matrix(0.03125,0,0,0.03125,340,30)"
font-family="Inter" font-size="11" font-weight="700" font-style="normal" 
>
<path vector-effect="none" fill-rule="nonzero" d="M111.326,191.938 C120.545,201.158 135.517,201.158 144.737,191.938 L239.144,97.5313 C245.929,90.7458 247.921,80.6413 244.233,71.7907 C240.545,62.9401 231.989,57.1871 222.401,57.1871 L33.5875,57.2608 C24.0731,57.2608 15.4437,63.0137 11.7559,71.8644 C8.06815,80.715 10.1333,90.8195 16.845,97.605 L111.252,192.012 L111.326,191.938"/>
</g>

<g fill="none" stroke="#000000" stroke-opacity="1" stroke-width="13.7195" stroke-linecap="butt" stroke-linejoin="miter" stroke-miterlimit="4" transform="matrix(0.03125,0,0,0.03125,340,30)"
font-family="Inter" font-size="11" font-weight="700" font-style="normal" 
>
<path vector-effect="none" fill-rule="nonzero" d="M111.326,191.938 C120.545,201.158 135.517,201.158 144.737,191.938 L239.144,97.5313 C245.929,90.7458 247.921,80.6413 244.233,71.7907 C240.545,62.9401 231.989,57.1871 222.401,57.1871 L33.5875,57.2608 C24.0731,57.2608 15.4437,63.0137 11.7559,71.8644 C8.06815,80.715 10.1333,90.8195 16.845,97.605 L111.252,192.012 L111.326,191.938"/>
</g>

<g fill="#ffffff" fill-opacity="1" stroke="none" transform="matrix(1,0,0,1,280,22)"
font-family="Inter" font-size="11" font-weight="700" font-style="normal" 
>
</g>

<g fill="#ffffff" fill-opacity="1" stroke="#ba9500" stroke-opacity="1" stroke-width="1" stroke-linecap="square" stroke-linejoin="bevel" transform="matrix(1,0,0,1,0,0)"
font-family="Inter" font-size="11" font-weight="700" font-style="normal" 
>
</g>

<g fill="#ffffff" fill-opacity="1" stroke="#ba9500" stroke-opacity="1" stroke-width="1" stroke-linecap="square" stroke-linejoin="bevel" transform="matrix(1,0,0,1,0,0)"
font-family="Inter" font-size="11" font-weight="700" font-style="normal" 
>
</g>

<g fill="none" stroke="#000000" stroke-opacity="1" stroke-width="1" stroke-linecap="square" stroke-linejoin="bevel" transform="matrix(1,0,0,1,0,0)"
font-family=".AppleSystemUIFont" font-size="13" font-weight="400" font-style="normal" 
>
</g>
</g>
</svg>
