<?xml version="1.0" encoding="UTF-8" standalone="no"?>
<svg width="102.658mm" height="11.2889mm"
 viewBox="0 0 291 32"
 xmlns="http://www.w3.org/2000/svg" xmlns:xlink="http://www.w3.org/1999/xlink" version="1.2" baseProfile="tiny">
<title>Abstract block</title>
<desc>block_hubs_all_sensors_port_wedo2_tilt</desc>
<defs>
</defs>
<g fill="none" stroke="black" stroke-width="1" fill-rule="evenodd" stroke-linecap="square" stroke-linejoin="bevel" >

<g fill="none" stroke="#000000" stroke-opacity="1" stroke-width="1" stroke-linecap="square" stroke-linejoin="bevel" transform="matrix(1,0,0,1,0,0)"
font-family=".AppleSystemUIFont" font-size="13" font-weight="400" font-style="normal" 
>
</g>

<g fill="none" stroke="#000000" stroke-opacity="1" stroke-width="1" stroke-linecap="square" stroke-linejoin="bevel" transform="matrix(1,0,0,1,0,0)"
font-family=".AppleSystemUIFont" font-size="13" font-weight="400" font-style="normal" 
>
</g>

<g fill="#1dccf0" fill-opacity="1" stroke="#0da6c5" stroke-opacity="1" stroke-width="1.2" stroke-linecap="square" stroke-linejoin="bevel" transform="matrix(1,0,0,1,0,0)"
font-family=".AppleSystemUIFont" font-size="13" font-weight="400" font-style="normal" 
>
<path vector-effect="none" fill-rule="evenodd" d="M1,16 C1,7.71573 8.16344,1 17,1 L273.167,1 C282.003,1 289.167,7.71573 289.167,16 C289.167,24.2843 282.003,31 273.167,31 L17,31 C8.16344,31 1,24.2843 1,16 "/>
</g>

<g fill="#ffffff" fill-opacity="1" stroke="none" transform="matrix(1,0,0,1,0,0)"
font-family="Inter" font-size="11" font-weight="700" font-style="normal" 
>
<path vector-effect="none" fill-rule="nonzero" d="M250.328,18.8789 C249.945,18.8789 249.604,18.8118 249.305,18.6777 C249.005,18.5436 248.769,18.3444 248.596,18.0801 C248.423,17.8158 248.336,17.4857 248.336,17.0898 C248.336,16.7565 248.397,16.4766 248.52,16.25 C248.642,16.0234 248.809,15.8411 249.02,15.7031 C249.23,15.5651 249.471,15.4609 249.74,15.3906 C250.01,15.3203 250.293,15.2708 250.59,15.2422 C250.939,15.2057 251.22,15.1712 251.434,15.1387 C251.647,15.1061 251.802,15.0573 251.898,14.9922 C251.995,14.9271 252.043,14.8307 252.043,14.7031 L252.043,14.6797 C252.043,14.4323 251.965,14.2409 251.811,14.1055 C251.656,13.9701 251.436,13.9023 251.152,13.9023 C250.853,13.9023 250.615,13.9681 250.438,14.0996 C250.26,14.2311 250.143,14.3958 250.086,14.5938 L248.547,14.4688 C248.625,14.1042 248.779,13.7884 249.008,13.5215 C249.237,13.2546 249.533,13.0488 249.896,12.9043 C250.26,12.7598 250.681,12.6875 251.16,12.6875 C251.493,12.6875 251.813,12.7266 252.119,12.8047 C252.425,12.8828 252.697,13.0039 252.936,13.168 C253.174,13.332 253.362,13.5423 253.5,13.7988 C253.638,14.0553 253.707,14.362 253.707,14.7188 L253.707,18.7656 L252.129,18.7656 L252.129,17.9336 L252.082,17.9336 C251.986,18.1211 251.857,18.2858 251.695,18.4277 C251.534,18.5697 251.34,18.6803 251.113,18.7598 C250.887,18.8392 250.625,18.8789 250.328,18.8789 M250.805,17.7305 C251.049,17.7305 251.266,17.6816 251.453,17.584 C251.641,17.4863 251.788,17.3542 251.895,17.1875 C252.001,17.0208 252.055,16.832 252.055,16.6211 L252.055,15.9844 C252.003,16.0182 251.932,16.0488 251.842,16.0762 C251.752,16.1035 251.651,16.1283 251.539,16.1504 C251.427,16.1725 251.315,16.1921 251.203,16.209 C251.091,16.2259 250.99,16.2409 250.898,16.2539 C250.703,16.2826 250.533,16.3281 250.387,16.3906 C250.241,16.4531 250.128,16.5371 250.047,16.6426 C249.966,16.748 249.926,16.8789 249.926,17.0352 C249.926,17.2617 250.008,17.4342 250.174,17.5527 C250.339,17.6712 250.549,17.7305 250.805,17.7305 M256.656,15.2969 L256.656,18.7656 L254.992,18.7656 L254.992,12.7656 L256.578,12.7656 L256.578,13.8242 L256.648,13.8242 C256.781,13.4753 257.004,13.1986 257.316,12.9941 C257.629,12.7897 258.008,12.6875 258.453,12.6875 C258.87,12.6875 259.233,12.7786 259.543,12.9609 C259.853,13.1432 260.094,13.403 260.266,13.7402 C260.438,14.0775 260.523,14.4792 260.523,14.9453 L260.523,18.7656 L258.859,18.7656 L258.859,15.2422 C258.862,14.875 258.768,14.5879 258.578,14.3809 C258.388,14.1738 258.126,14.0703 257.793,14.0703 C257.569,14.0703 257.372,14.1185 257.201,14.2148 C257.031,14.3112 256.898,14.4512 256.803,14.6348 C256.708,14.8184 256.659,15.0391 256.656,15.2969 M264.523,21.1406 C263.984,21.1406 263.523,21.0671 263.139,20.9199 C262.755,20.7728 262.449,20.5729 262.223,20.3203 C261.996,20.0677 261.849,19.7839 261.781,19.4688 L263.32,19.2617 C263.367,19.3815 263.441,19.4935 263.543,19.5977 C263.645,19.7018 263.779,19.7858 263.947,19.8496 C264.115,19.9134 264.32,19.9453 264.563,19.9453 C264.924,19.9453 265.223,19.8574 265.459,19.6816 C265.695,19.5059 265.813,19.2122 265.813,18.8008 L265.813,17.7031 L265.742,17.7031 C265.669,17.8698 265.56,18.0273 265.414,18.1758 C265.268,18.3242 265.081,18.4453 264.852,18.5391 C264.622,18.6328 264.349,18.6797 264.031,18.6797 C263.581,18.6797 263.171,18.5749 262.803,18.3652 C262.434,18.1556 262.141,17.834 261.924,17.4004 C261.706,16.9668 261.598,16.418 261.598,15.7539 C261.598,15.0742 261.708,14.5065 261.93,14.0508 C262.151,13.5951 262.446,13.2539 262.814,13.0273 C263.183,12.8008 263.587,12.6875 264.027,12.6875 C264.363,12.6875 264.645,12.7441 264.871,12.8574 C265.098,12.9707 265.281,13.1113 265.42,13.2793 C265.559,13.4473 265.667,13.612 265.742,13.7734 L265.805,13.7734 L265.805,12.7656 L267.457,12.7656 L267.457,18.8242 C267.457,19.3346 267.332,19.7617 267.082,20.1055 C266.832,20.4492 266.486,20.7077 266.045,20.8809 C265.604,21.054 265.096,21.1406 264.523,21.1406 M264.559,17.4297 C264.827,17.4297 265.054,17.3626 265.24,17.2285 C265.426,17.0944 265.57,16.9017 265.67,16.6504 C265.77,16.3991 265.82,16.0977 265.82,15.7461 C265.82,15.3945 265.771,15.0892 265.672,14.8301 C265.573,14.571 265.43,14.3698 265.242,14.2266 C265.055,14.0833 264.827,14.0117 264.559,14.0117 C264.285,14.0117 264.055,14.0853 263.867,14.2324 C263.68,14.3796 263.538,14.5833 263.441,14.8438 C263.345,15.1042 263.297,15.4049 263.297,15.7461 C263.297,16.0924 263.346,16.3913 263.443,16.6426 C263.541,16.8939 263.683,17.0879 263.869,17.2246 C264.055,17.3613 264.285,17.4297 264.559,17.4297 M270.438,10.7656 L270.438,18.7656 L268.773,18.7656 L268.773,10.7656 L270.438,10.7656 M274.492,18.8828 C273.875,18.8828 273.344,18.7572 272.9,18.5059 C272.456,18.2546 272.115,17.8978 271.875,17.4355 C271.635,16.9733 271.516,16.4258 271.516,15.793 C271.516,15.1758 271.635,14.6341 271.875,14.168 C272.115,13.7018 272.452,13.3385 272.889,13.0781 C273.325,12.8177 273.837,12.6875 274.426,12.6875 C274.822,12.6875 275.191,12.7507 275.533,12.877 C275.876,13.0033 276.175,13.1927 276.432,13.4453 C276.688,13.6979 276.888,14.015 277.031,14.3965 C277.174,14.778 277.246,15.224 277.246,15.7344 L277.246,16.1914 L272.18,16.1914 L272.18,15.1602 L275.68,15.1602 C275.68,14.9206 275.628,14.7083 275.523,14.5234 C275.419,14.3385 275.275,14.1934 275.092,14.0879 C274.908,13.9824 274.695,13.9297 274.453,13.9297 C274.201,13.9297 273.977,13.9876 273.783,14.1035 C273.589,14.2194 273.438,14.3743 273.328,14.5684 C273.219,14.7624 273.163,14.9779 273.16,15.2148 L273.16,16.1953 C273.16,16.4922 273.215,16.7487 273.326,16.9648 C273.437,17.181 273.594,17.3477 273.797,17.4648 C274,17.582 274.241,17.6406 274.52,17.6406 C274.704,17.6406 274.874,17.6146 275.027,17.5625 C275.181,17.5104 275.313,17.4323 275.422,17.3281 C275.531,17.224 275.615,17.0964 275.672,16.9453 L277.211,17.0469 C277.133,17.4167 276.973,17.7389 276.732,18.0137 C276.492,18.2884 276.182,18.502 275.803,18.6543 C275.424,18.8066 274.987,18.8828 274.492,18.8828 "/>
</g>

<g fill="#ffffff" fill-opacity="1" stroke="none" transform="matrix(0.0285,0,0,0.0285,11.2928,4.44754)"
font-family="Inter" font-size="11" font-weight="700" font-style="normal" 
>
<path vector-effect="none" fill-rule="nonzero" d="M202.734,207.17 C196.58,207.17 191.624,212.126 191.624,218.28 L191.624,265.824 L173.338,265.824 C150.75,265.824 132.564,282.502 132.564,303.221 L132.564,603.53 L688.991,603.53 L688.991,303.221 C688.991,282.502 670.806,265.824 648.217,265.824 L631.771,265.824 L631.771,218.28 C631.771,212.126 626.818,207.17 620.664,207.17 L473.4,207.17 C467.246,207.17 462.29,212.126 462.29,218.28 L462.29,265.824 L361.105,265.824 L361.105,218.28 C361.105,212.126 356.152,207.17 349.998,207.17 L202.734,207.17"/>
</g>

<g fill="none" stroke="#000000" stroke-opacity="1" stroke-width="23.7164" stroke-linecap="round" stroke-linejoin="round" transform="matrix(0.0285,0,0,0.0285,11.2928,4.44754)"
font-family="Inter" font-size="11" font-weight="700" font-style="normal" 
>
<path vector-effect="none" fill-rule="nonzero" d="M202.734,207.17 C196.58,207.17 191.624,212.126 191.624,218.28 L191.624,265.824 L173.338,265.824 C150.75,265.824 132.564,282.502 132.564,303.221 L132.564,603.53 L688.991,603.53 L688.991,303.221 C688.991,282.502 670.806,265.824 648.217,265.824 L631.771,265.824 L631.771,218.28 C631.771,212.126 626.818,207.17 620.664,207.17 L473.4,207.17 C467.246,207.17 462.29,212.126 462.29,218.28 L462.29,265.824 L361.105,265.824 L361.105,218.28 C361.105,212.126 356.152,207.17 349.998,207.17 L202.734,207.17"/>
</g>

<g fill="#000000" fill-opacity="1" stroke="none" transform="matrix(0.0285,0,0,0.0285,11.2928,4.44754)"
font-family="Inter" font-size="11" font-weight="700" font-style="normal" 
>
<rect x="167.028" y="255.21" width="477.341" height="22.8514"/>
</g>

<g fill="#000000" fill-opacity="1" stroke="none" transform="matrix(0.0285,0,0,0.0285,11.2928,4.44754)"
font-family="Inter" font-size="11" font-weight="700" font-style="normal" 
>
<path vector-effect="none" fill-rule="evenodd" d="M130.684,367.209 L186.637,367.209 L313.248,498.385 L503.249,496.244 L633.155,367.209 L691.672,367.209 L691.672,602.738 L130.684,602.738 L130.684,367.209"/>
</g>

<g fill="#000000" fill-opacity="1" stroke="none" transform="matrix(0.0285,0,0,0.0285,11.2928,4.44754)"
font-family="Inter" font-size="11" font-weight="700" font-style="normal" 
>
<path vector-effect="none" fill-rule="evenodd" d="M282.941,319.891 C275.28,307.756 268.029,325.83 266.219,333.965 L256.337,378.391 C254.17,388.134 260.268,397.724 270.012,399.892 L314.438,409.774 C322.443,411.555 341.451,412.574 334.102,400.932 L282.941,319.891"/>
</g>

<g fill="#000000" fill-opacity="1" stroke="none" transform="matrix(0.0285,0,0,0.0285,11.2928,4.44754)"
font-family="Inter" font-size="11" font-weight="700" font-style="normal" 
>
<path vector-effect="none" fill-rule="evenodd" d="M532.779,321.933 C543.04,305.679 547.692,327.872 549.502,336.007 L559.384,380.433 C561.551,390.176 555.453,399.766 545.709,401.934 L501.283,411.816 C493.278,413.597 472.886,416.808 481.619,402.974 L532.779,321.933"/>
</g>

<g fill="#000000" fill-opacity="1" stroke="none" transform="matrix(0.0285,0,0,0.0285,11.2928,4.44754)"
font-family="Inter" font-size="11" font-weight="700" font-style="normal" 
>
<path vector-effect="none" fill-rule="evenodd" d="M410.778,320.266 C355.686,320.266 304.399,336.771 261.543,365.068 L304.12,365.068 L304.12,386.213 C336.029,369.663 372.269,360.266 410.778,360.266 C449.177,360.266 485.323,369.608 517.166,386.07 L517.166,361.855 L554.891,361.855 C513.086,335.563 463.709,320.266 410.778,320.266 "/>
</g>

<g fill="#ffffff" fill-opacity="1" stroke="none" transform="matrix(1,0,0,1,0,0)"
font-family="Inter" font-size="11" font-weight="700" font-style="normal" 
>
</g>

<g fill="#ffffff" fill-opacity="1" stroke="#0da6c5" stroke-opacity="1" stroke-width="1" stroke-linecap="square" stroke-linejoin="bevel" transform="matrix(1,0,0,1,0,0)"
font-family="Inter" font-size="11" font-weight="700" font-style="normal" 
>
<polyline fill="none" vector-effect="none" points="45,6 45,26 " />
</g>

<g fill="#1dccf0" fill-opacity="1" stroke="#0da6c5" stroke-opacity="1" stroke-width="1.2" stroke-linecap="square" stroke-linejoin="bevel" transform="matrix(1,0,0,1,56,4)"
font-family="Inter" font-size="11" font-weight="700" font-style="normal" 
>
<path vector-effect="none" fill-rule="evenodd" d="M0.5,3.5 C0.5,1.84315 1.84315,0.5 3.5,0.5 L71.5,0.5 C73.1569,0.5 74.5,1.84315 74.5,3.5 L74.5,20.5 C74.5,22.1569 73.1569,23.5 71.5,23.5 L3.5,23.5 C1.84315,23.5 0.5,22.1569 0.5,20.5 L0.5,3.5"/>
</g>

<g fill="#ffffff" fill-opacity="1" stroke="none" transform="matrix(1,0,0,1,56,4)"
font-family="Inter" font-size="11" font-weight="700" font-style="normal" 
>
<path vector-effect="none" fill-rule="nonzero" d="M10,9.39453 L10,8 L16.5703,8 L16.5703,9.39453 L14.1211,9.39453 L14.1211,16 L12.4492,16 L12.4492,9.39453 L10,9.39453 M17.6484,16 L17.6484,8 L19.3398,8 L19.3398,11.3008 L22.7734,11.3008 L22.7734,8 L24.4609,8 L24.4609,16 L22.7734,16 L22.7734,12.6953 L19.3398,12.6953 L19.3398,16 L17.6484,16 M32.543,8 L32.543,16 L31.082,16 L27.6016,10.9648 L27.543,10.9648 L27.543,16 L25.8516,16 L25.8516,8 L27.3359,8 L30.7891,13.0313 L30.8594,13.0313 L30.8594,8 L32.543,8 M33.9297,16 L33.9297,8 L35.6211,8 L35.6211,11.3008 L39.0547,11.3008 L39.0547,8 L40.7422,8 L40.7422,16 L39.0547,16 L39.0547,12.6953 L35.6211,12.6953 L35.6211,16 L33.9297,16 M42.1328,16 L42.1328,8 L45.3359,8 C45.9245,8 46.4154,8.08724 46.8086,8.26172 C47.2018,8.4362 47.4974,8.67773 47.6953,8.98633 C47.8932,9.29492 47.9922,9.64974 47.9922,10.0508 C47.9922,10.3633 47.9297,10.6374 47.8047,10.873 C47.6797,11.1087 47.5085,11.3014 47.291,11.4512 C47.0736,11.6009 46.8255,11.707 46.5469,11.7695 L46.5469,11.8477 C46.8516,11.8607 47.1374,11.9466 47.4043,12.1055 C47.6712,12.2643 47.888,12.4863 48.0547,12.7715 C48.2214,13.0566 48.3047,13.3958 48.3047,13.7891 C48.3047,14.2135 48.1999,14.5918 47.9902,14.9238 C47.7806,15.2559 47.4714,15.5182 47.0625,15.7109 C46.6536,15.9036 46.1497,16 45.5508,16 L42.1328,16 M43.8242,14.6172 L45.2031,14.6172 C45.6745,14.6172 46.0182,14.5267 46.2344,14.3457 C46.4505,14.1647 46.5586,13.9232 46.5586,13.6211 C46.5586,13.3997 46.5052,13.2044 46.3984,13.0352 C46.2917,12.8659 46.14,12.7331 45.9434,12.6367 C45.7467,12.5404 45.513,12.4922 45.2422,12.4922 L43.8242,12.4922 L43.8242,14.6172 M43.8242,11.3477 L45.0781,11.3477 C45.3099,11.3477 45.5163,11.3066 45.6973,11.2246 C45.8783,11.1426 46.0215,11.026 46.127,10.875 C46.2324,10.724 46.2852,10.543 46.2852,10.332 C46.2852,10.043 46.1829,9.8099 45.9785,9.63281 C45.7741,9.45573 45.4844,9.36719 45.1094,9.36719 L43.8242,9.36719 L43.8242,11.3477 M52.832,8 L52.832,16 L51.1406,16 L51.1406,9.60547 L51.0938,9.60547 L49.2617,10.7539 L49.2617,9.25391 L51.2422,8 L52.832,8"/>
</g>

<g fill="#ffffff" fill-opacity="1" stroke="none" transform="matrix(0.03125,0,0,0.03125,117,12)"
font-family="Inter" font-size="11" font-weight="700" font-style="normal" 
>
<path vector-effect="none" fill-rule="nonzero" d="M111.326,191.938 C120.545,201.158 135.517,201.158 144.737,191.938 L239.144,97.5313 C245.929,90.7458 247.921,80.6413 244.233,71.7907 C240.545,62.9401 231.989,57.1871 222.401,57.1871 L33.5875,57.2608 C24.0731,57.2608 15.4437,63.0137 11.7559,71.8644 C8.06815,80.715 10.1333,90.8195 16.845,97.605 L111.252,192.012 L111.326,191.938"/>
</g>

<g fill="none" stroke="#000000" stroke-opacity="1" stroke-width="13.7195" stroke-linecap="butt" stroke-linejoin="miter" stroke-miterlimit="4" transform="matrix(0.03125,0,0,0.03125,117,12)"
font-family="Inter" font-size="11" font-weight="700" font-style="normal" 
>
<path vector-effect="none" fill-rule="nonzero" d="M111.326,191.938 C120.545,201.158 135.517,201.158 144.737,191.938 L239.144,97.5313 C245.929,90.7458 247.921,80.6413 244.233,71.7907 C240.545,62.9401 231.989,57.1871 222.401,57.1871 L33.5875,57.2608 C24.0731,57.2608 15.4437,63.0137 11.7559,71.8644 C8.06815,80.715 10.1333,90.8195 16.845,97.605 L111.252,192.012 L111.326,191.938"/>
</g>

<g fill="#ffffff" fill-opacity="1" stroke="none" transform="matrix(1,0,0,1,56,4)"
font-family="Inter" font-size="11" font-weight="700" font-style="normal" 
>
</g>

<g fill="#ffffff" fill-opacity="1" stroke="#0da6c5" stroke-opacity="1" stroke-width="1" stroke-linecap="square" stroke-linejoin="bevel" transform="matrix(1,0,0,1,0,0)"
font-family="Inter" font-size="11" font-weight="700" font-style="normal" 
>
</g>

<g fill="#0da6c5" fill-opacity="1" stroke="#0da6c5" stroke-opacity="1" stroke-width="1.2" stroke-linecap="square" stroke-linejoin="bevel" transform="matrix(1,0,0,1,135,4)"
font-family="Inter" font-size="11" font-weight="700" font-style="normal" 
>
<path vector-effect="none" fill-rule="evenodd" d="M0.5,12 C0.5,5.64873 5.87258,0.5 12.5,0.5 L27.5,0.5 C34.1274,0.5 39.5,5.64873 39.5,12 C39.5,18.3513 34.1274,23.5 27.5,23.5 L12.5,23.5 C5.87258,23.5 0.5,18.3513 0.5,12 "/>
</g>

<g fill="#ffffff" fill-opacity="1" stroke="none" transform="matrix(1,0,0,1,135,4)"
font-family="Inter" font-size="11" font-weight="700" font-style="normal" 
>
<path vector-effect="none" fill-rule="nonzero" d="M11.8242,16 L10.0117,16 L12.7734,8 L14.9531,8 L17.7109,16 L15.8984,16 L13.8945,9.82813 L13.832,9.82813 L11.8242,16 M11.7109,12.8555 L15.9922,12.8555 L15.9922,14.1758 L11.7109,14.1758 L11.7109,12.8555"/>
</g>

<g fill="#ffffff" fill-opacity="1" stroke="none" transform="matrix(0.03125,0,0,0.03125,161,12)"
font-family="Inter" font-size="11" font-weight="700" font-style="normal" 
>
<path vector-effect="none" fill-rule="nonzero" d="M111.326,191.938 C120.545,201.158 135.517,201.158 144.737,191.938 L239.144,97.5313 C245.929,90.7458 247.921,80.6413 244.233,71.7907 C240.545,62.9401 231.989,57.1871 222.401,57.1871 L33.5875,57.2608 C24.0731,57.2608 15.4437,63.0137 11.7559,71.8644 C8.06815,80.715 10.1333,90.8195 16.845,97.605 L111.252,192.012 L111.326,191.938"/>
</g>

<g fill="none" stroke="#000000" stroke-opacity="1" stroke-width="13.7195" stroke-linecap="butt" stroke-linejoin="miter" stroke-miterlimit="4" transform="matrix(0.03125,0,0,0.03125,161,12)"
font-family="Inter" font-size="11" font-weight="700" font-style="normal" 
>
<path vector-effect="none" fill-rule="nonzero" d="M111.326,191.938 C120.545,201.158 135.517,201.158 144.737,191.938 L239.144,97.5313 C245.929,90.7458 247.921,80.6413 244.233,71.7907 C240.545,62.9401 231.989,57.1871 222.401,57.1871 L33.5875,57.2608 C24.0731,57.2608 15.4437,63.0137 11.7559,71.8644 C8.06815,80.715 10.1333,90.8195 16.845,97.605 L111.252,192.012 L111.326,191.938"/>
</g>

<g fill="#ffffff" fill-opacity="1" stroke="none" transform="matrix(1,0,0,1,135,4)"
font-family="Inter" font-size="11" font-weight="700" font-style="normal" 
>
</g>

<g fill="#ffffff" fill-opacity="1" stroke="#0da6c5" stroke-opacity="1" stroke-width="1" stroke-linecap="square" stroke-linejoin="bevel" transform="matrix(1,0,0,1,0,0)"
font-family="Inter" font-size="11" font-weight="700" font-style="normal" 
>
</g>

<g fill="#ffffff" fill-opacity="1" stroke="#0da6c5" stroke-opacity="1" stroke-width="1" stroke-linecap="square" stroke-linejoin="bevel" transform="matrix(1,0,0,1,0,0)"
font-family="Inter" font-size="11" font-weight="700" font-style="normal" 
>
</g>

<g fill="#ffffff" fill-opacity="1" stroke="#0da6c5" stroke-opacity="1" stroke-width="1" stroke-linecap="square" stroke-linejoin="bevel" transform="matrix(1,0,0,1,0,0)"
font-family="Inter" font-size="11" font-weight="700" font-style="normal" 
>
</g>

<g fill="#1dccf0" fill-opacity="1" stroke="#0da6c5" stroke-opacity="1" stroke-width="1.2" stroke-linecap="square" stroke-linejoin="bevel" transform="matrix(1,0,0,1,185,4)"
font-family="Inter" font-size="11" font-weight="700" font-style="normal" 
>
<path vector-effect="none" fill-rule="evenodd" d="M0.5,3.5 C0.5,1.84315 1.84315,0.5 3.5,0.5 L54,0.5 C55.6569,0.5 57,1.84315 57,3.5 L57,20.5 C57,22.1569 55.6569,23.5 54,23.5 L3.5,23.5 C1.84315,23.5 0.5,22.1569 0.5,20.5 L0.5,3.5"/>
</g>

<g fill="#ffffff" fill-opacity="1" stroke="none" transform="matrix(1,0,0,1,185,4)"
font-family="Inter" font-size="11" font-weight="700" font-style="normal" 
>
<path vector-effect="none" fill-rule="nonzero" d="M8.50781,17.3125 L8.50781,9.0625 L10.1484,9.0625 L10.1484,10.0703 L10.2227,10.0703 C10.2956,9.90885 10.4017,9.74414 10.541,9.57617 C10.6803,9.4082 10.8626,9.26758 11.0879,9.1543 C11.3132,9.04102 11.5938,8.98438 11.9297,8.98438 C12.3672,8.98438 12.7708,9.09831 13.1406,9.32617 C13.5104,9.55404 13.806,9.89648 14.0273,10.3535 C14.2487,10.8105 14.3594,11.3828 14.3594,12.0703 C14.3594,12.7396 14.252,13.304 14.0371,13.7637 C13.8223,14.2233 13.5306,14.571 13.1621,14.8066 C12.7936,15.0423 12.3815,15.1602 11.9258,15.1602 C11.6029,15.1602 11.3288,15.1068 11.1035,15 C10.8783,14.8932 10.694,14.7585 10.5508,14.5957 C10.4076,14.4329 10.2982,14.2682 10.2227,14.1016 L10.1719,14.1016 L10.1719,17.3125 L8.50781,17.3125 M10.1367,12.0625 C10.1367,12.4193 10.1862,12.7305 10.2852,12.9961 C10.3841,13.2617 10.5273,13.4681 10.7148,13.6152 C10.9023,13.7624 11.1302,13.8359 11.3984,13.8359 C11.6693,13.8359 11.8984,13.7611 12.0859,13.6113 C12.2734,13.4616 12.416,13.2533 12.5137,12.9863 C12.6113,12.7194 12.6602,12.4115 12.6602,12.0625 C12.6602,11.7161 12.612,11.4115 12.5156,11.1484 C12.4193,10.8854 12.2773,10.6797 12.0898,10.5313 C11.9023,10.3828 11.6719,10.3086 11.3984,10.3086 C11.1276,10.3086 10.8991,10.3802 10.7129,10.5234 C10.5267,10.6667 10.3841,10.8698 10.2852,11.1328 C10.1862,11.3958 10.1367,11.7057 10.1367,12.0625 M15.4609,15.0625 L15.4609,9.0625 L17.125,9.0625 L17.125,15.0625 L15.4609,15.0625 M16.2969,8.28906 C16.0495,8.28906 15.8379,8.20638 15.6621,8.04102 C15.4863,7.87565 15.3984,7.67708 15.3984,7.44531 C15.3984,7.21615 15.4863,7.01888 15.6621,6.85352 C15.8379,6.68815 16.0495,6.60547 16.2969,6.60547 C16.5443,6.60547 16.7559,6.68815 16.9316,6.85352 C17.1074,7.01888 17.1953,7.21615 17.1953,7.44531 C17.1953,7.67708 17.1074,7.87565 16.9316,8.04102 C16.7559,8.20638 16.5443,8.28906 16.2969,8.28906 M21.6367,9.0625 L21.6367,10.3125 L18.0234,10.3125 L18.0234,9.0625 L21.6367,9.0625 M18.8438,7.625 L20.5078,7.625 L20.5078,13.2188 C20.5078,13.3724 20.5313,13.4915 20.5781,13.5762 C20.625,13.6608 20.6908,13.7201 20.7754,13.7539 C20.86,13.7878 20.9583,13.8047 21.0703,13.8047 C21.1484,13.8047 21.2266,13.7975 21.3047,13.7832 C21.3828,13.7689 21.4427,13.7578 21.4844,13.75 L21.7461,14.9883 C21.6628,15.0143 21.5456,15.0449 21.3945,15.0801 C21.2435,15.1152 21.0599,15.1367 20.8438,15.1445 C20.4427,15.1602 20.0918,15.1068 19.791,14.9844 C19.4902,14.862 19.2565,14.6719 19.0898,14.4141 C18.9232,14.1563 18.8411,13.8307 18.8438,13.4375 L18.8438,7.625 M25.3594,15.1797 C24.7448,15.1797 24.2168,15.0488 23.7754,14.7871 C23.334,14.5254 22.9954,14.1615 22.7598,13.6953 C22.5241,13.2292 22.4063,12.6927 22.4063,12.0859 C22.4063,11.4714 22.5254,10.9316 22.7637,10.4668 C23.002,10.002 23.3411,9.63867 23.7813,9.37695 C24.2214,9.11523 24.7448,8.98438 25.3516,8.98438 C25.875,8.98438 26.3333,9.07943 26.7266,9.26953 C27.1198,9.45964 27.431,9.72656 27.6602,10.0703 C27.8893,10.4141 28.0156,10.8177 28.0391,11.2813 L26.4688,11.2813 C26.4245,10.9818 26.3079,10.7402 26.1191,10.5566 C25.9303,10.373 25.6836,10.2813 25.3789,10.2813 C25.1211,10.2813 24.8965,10.3509 24.7051,10.4902 C24.5137,10.6296 24.3646,10.832 24.2578,11.0977 C24.151,11.3633 24.0977,11.6849 24.0977,12.0625 C24.0977,12.4453 24.1504,12.7708 24.2559,13.0391 C24.3613,13.3073 24.5104,13.5117 24.7031,13.6523 C24.8958,13.793 25.1211,13.8633 25.3789,13.8633 C25.569,13.8633 25.7402,13.8242 25.8926,13.7461 C26.0449,13.668 26.1712,13.554 26.2715,13.4043 C26.3717,13.2546 26.4375,13.0742 26.4688,12.8633 L28.0391,12.8633 C28.013,13.3216 27.8887,13.7246 27.666,14.0723 C27.4434,14.4199 27.1367,14.6914 26.7461,14.8867 C26.3555,15.082 25.8932,15.1797 25.3594,15.1797 M30.7656,11.5938 L30.7656,15.0625 L29.1016,15.0625 L29.1016,7.0625 L30.7188,7.0625 L30.7188,10.1211 L30.7891,10.1211 C30.9245,9.76693 31.1432,9.48893 31.4453,9.28711 C31.7474,9.08529 32.1263,8.98438 32.582,8.98438 C32.9987,8.98438 33.3626,9.07487 33.6738,9.25586 C33.985,9.43685 34.2272,9.69596 34.4004,10.0332 C34.5736,10.3704 34.6589,10.7734 34.6563,11.2422 L34.6563,15.0625 L32.9922,15.0625 L32.9922,11.5391 C32.9948,11.1693 32.9017,10.8815 32.7129,10.6758 C32.5241,10.4701 32.2604,10.3672 31.9219,10.3672 C31.6953,10.3672 31.4954,10.4154 31.3223,10.5117 C31.1491,10.6081 31.0137,10.748 30.916,10.9316 C30.8184,11.1152 30.7682,11.3359 30.7656,11.5938 "/>
</g>

<g fill="#ffffff" fill-opacity="1" stroke="none" transform="matrix(0.03125,0,0,0.03125,228.5,12)"
font-family="Inter" font-size="11" font-weight="700" font-style="normal" 
>
<path vector-effect="none" fill-rule="nonzero" d="M111.326,191.938 C120.545,201.158 135.517,201.158 144.737,191.938 L239.144,97.5313 C245.929,90.7458 247.921,80.6413 244.233,71.7907 C240.545,62.9401 231.989,57.1871 222.401,57.1871 L33.5875,57.2608 C24.0731,57.2608 15.4437,63.0137 11.7559,71.8644 C8.06815,80.715 10.1333,90.8195 16.845,97.605 L111.252,192.012 L111.326,191.938"/>
</g>

<g fill="none" stroke="#000000" stroke-opacity="1" stroke-width="13.7195" stroke-linecap="butt" stroke-linejoin="miter" stroke-miterlimit="4" transform="matrix(0.03125,0,0,0.03125,228.5,12)"
font-family="Inter" font-size="11" font-weight="700" font-style="normal" 
>
<path vector-effect="none" fill-rule="nonzero" d="M111.326,191.938 C120.545,201.158 135.517,201.158 144.737,191.938 L239.144,97.5313 C245.929,90.7458 247.921,80.6413 244.233,71.7907 C240.545,62.9401 231.989,57.1871 222.401,57.1871 L33.5875,57.2608 C24.0731,57.2608 15.4437,63.0137 11.7559,71.8644 C8.06815,80.715 10.1333,90.8195 16.845,97.605 L111.252,192.012 L111.326,191.938"/>
</g>

<g fill="#ffffff" fill-opacity="1" stroke="none" transform="matrix(1,0,0,1,185,4)"
font-family="Inter" font-size="11" font-weight="700" font-style="normal" 
>
</g>

<g fill="#ffffff" fill-opacity="1" stroke="#0da6c5" stroke-opacity="1" stroke-width="1" stroke-linecap="square" stroke-linejoin="bevel" transform="matrix(1,0,0,1,0,0)"
font-family="Inter" font-size="11" font-weight="700" font-style="normal" 
>
</g>

<g fill="none" stroke="#000000" stroke-opacity="1" stroke-width="1" stroke-linecap="square" stroke-linejoin="bevel" transform="matrix(1,0,0,1,0,0)"
font-family=".AppleSystemUIFont" font-size="13" font-weight="400" font-style="normal" 
>
</g>
</g>
</svg>
