<?xml version="1.0" encoding="UTF-8" standalone="no"?>
<svg width="113.947mm" height="15.5222mm"
 viewBox="0 0 323 44"
 xmlns="http://www.w3.org/2000/svg" xmlns:xlink="http://www.w3.org/1999/xlink" version="1.2" baseProfile="tiny">
<title>Abstract block</title>
<desc>block_hubs_sensors_set_tilt_orientation</desc>
<defs>
</defs>
<g fill="none" stroke="black" stroke-width="1" fill-rule="evenodd" stroke-linecap="square" stroke-linejoin="bevel" >

<g fill="none" stroke="#000000" stroke-opacity="1" stroke-width="1" stroke-linecap="square" stroke-linejoin="bevel" transform="matrix(1,0,0,1,0,0)"
font-family=".AppleSystemUIFont" font-size="13" font-weight="400" font-style="normal" 
>
</g>

<g fill="none" stroke="#000000" stroke-opacity="1" stroke-width="1" stroke-linecap="square" stroke-linejoin="bevel" transform="matrix(1,0,0,1,0,0)"
font-family=".AppleSystemUIFont" font-size="13" font-weight="400" font-style="normal" 
>
</g>

<g fill="#1dccf0" fill-opacity="1" stroke="#0da6c5" stroke-opacity="1" stroke-width="1.2" stroke-linecap="square" stroke-linejoin="bevel" transform="matrix(1,0,0,1,0,0)"
font-family=".AppleSystemUIFont" font-size="13" font-weight="400" font-style="normal" 
>
<path vector-effect="none" fill-rule="evenodd" d="M0.5,4.5 L1.04612,2.48112 L2.48112,1.04612 L4.5,0.5 L9.625,0.5 L10.416,0.976563 L11.1719,1.6875 L11.998,2.67969 L13,4 L13.7559,4.66016 L14.5469,5.15625 L15.4082,5.51172 L16.375,5.75 L17.4824,5.89453 L18.7656,5.96875 L20.2598,5.99609 L22,6 L23.7402,5.99609 L25.2344,5.96875 L26.5176,5.89453 L27.625,5.75 L28.5918,5.51172 L29.4531,5.15625 L30.2441,4.66016 L31,4 L32.002,2.67969 L32.8281,1.6875 L33.584,0.976563 L34.375,0.5 L318,0.5 L320.019,1.04612 L321.454,2.48112 L322,4.5 L322,31.5 L321.454,33.5189 L320.019,34.9539 L318,35.5 L34.375,35.5 L33.584,35.9766 L32.8281,36.6875 L32.002,37.6797 L31,39 L30.2441,39.6602 L29.4531,40.1563 L28.5918,40.5117 L27.625,40.75 L26.5176,40.8945 L25.2344,40.9688 L23.7402,40.9961 L22,41 L20.2598,40.9961 L18.7656,40.9688 L17.4824,40.8945 L16.375,40.75 L15.4082,40.5117 L14.5469,40.1563 L13.7559,39.6602 L13,39 L11.998,37.6797 L11.1719,36.6875 L10.416,35.9766 L9.625,35.5 L4.5,35.5 L2.48112,34.9539 L1.04612,33.5189 L0.5,31.5 L0.5,4.5"/>
</g>

<g fill="#ffffff" fill-opacity="1" stroke="none" transform="matrix(1,0,0,1,0,0)"
font-family="Inter" font-size="11" font-weight="700" font-style="normal" 
>
<path vector-effect="none" fill-rule="nonzero" d="M63.0938,17.1641 L61.5703,17.2578 C61.5443,17.1276 61.4883,17.0098 61.4023,16.9043 C61.3164,16.7988 61.2038,16.7142 61.0645,16.6504 C60.9251,16.5866 60.7591,16.5547 60.5664,16.5547 C60.3086,16.5547 60.0911,16.6087 59.9141,16.7168 C59.737,16.8249 59.6484,16.9688 59.6484,17.1484 C59.6484,17.2917 59.7057,17.4128 59.8203,17.5117 C59.9349,17.6107 60.1315,17.6901 60.4102,17.75 L61.4961,17.9688 C62.0794,18.0885 62.5143,18.2813 62.8008,18.5469 C63.0872,18.8125 63.2305,19.1615 63.2305,19.5938 C63.2305,19.987 63.1152,20.332 62.8848,20.6289 C62.6543,20.9258 62.3392,21.1569 61.9395,21.3223 C61.5397,21.4876 61.0794,21.5703 60.5586,21.5703 C59.7643,21.5703 59.1322,21.4043 58.6621,21.0723 C58.1921,20.7402 57.9167,20.2878 57.8359,19.7148 L59.4727,19.6289 C59.5221,19.8711 59.6419,20.0553 59.832,20.1816 C60.0221,20.3079 60.2656,20.3711 60.5625,20.3711 C60.8542,20.3711 61.0892,20.3145 61.2676,20.2012 C61.446,20.0879 61.5365,19.9414 61.5391,19.7617 C61.5365,19.6107 61.4727,19.4863 61.3477,19.3887 C61.2227,19.291 61.0299,19.2161 60.7695,19.1641 L59.7305,18.957 C59.1445,18.8398 58.709,18.6367 58.4238,18.3477 C58.1387,18.0586 57.9961,17.6901 57.9961,17.2422 C57.9961,16.8568 58.1009,16.5247 58.3105,16.2461 C58.5202,15.9674 58.8158,15.7526 59.1973,15.6016 C59.5788,15.4505 60.026,15.375 60.5391,15.375 C61.2969,15.375 61.8939,15.5352 62.3301,15.8555 C62.7663,16.1758 63.0208,16.612 63.0938,17.1641 M67.0078,21.5703 C66.3906,21.5703 65.86,21.4447 65.416,21.1934 C64.972,20.9421 64.6302,20.5853 64.3906,20.123 C64.151,19.6608 64.0313,19.1133 64.0313,18.4805 C64.0313,17.8633 64.151,17.3216 64.3906,16.8555 C64.6302,16.3893 64.9681,16.026 65.4043,15.7656 C65.8405,15.5052 66.3529,15.375 66.9414,15.375 C67.3372,15.375 67.7064,15.4382 68.0488,15.5645 C68.3913,15.6908 68.6908,15.8802 68.9473,16.1328 C69.2038,16.3854 69.4036,16.7025 69.5469,17.084 C69.6901,17.4655 69.7617,17.9115 69.7617,18.4219 L69.7617,18.8789 L64.6953,18.8789 L64.6953,17.8477 L68.1953,17.8477 C68.1953,17.6081 68.1432,17.3958 68.0391,17.2109 C67.9349,17.026 67.791,16.8809 67.6074,16.7754 C67.4238,16.6699 67.2109,16.6172 66.9688,16.6172 C66.7161,16.6172 66.4928,16.6751 66.2988,16.791 C66.1048,16.9069 65.9531,17.0618 65.8438,17.2559 C65.7344,17.4499 65.6784,17.6654 65.6758,17.9023 L65.6758,18.8828 C65.6758,19.1797 65.7311,19.4362 65.8418,19.6523 C65.9525,19.8685 66.1094,20.0352 66.3125,20.1523 C66.5156,20.2695 66.7565,20.3281 67.0352,20.3281 C67.2201,20.3281 67.3893,20.3021 67.543,20.25 C67.6966,20.1979 67.8281,20.1198 67.9375,20.0156 C68.0469,19.9115 68.1302,19.7839 68.1875,19.6328 L69.7266,19.7344 C69.6484,20.1042 69.4889,20.4264 69.248,20.7012 C69.0072,20.9759 68.6973,21.1895 68.3184,21.3418 C67.9395,21.4941 67.5026,21.5703 67.0078,21.5703 M74.0273,15.4531 L74.0273,16.7031 L70.4141,16.7031 L70.4141,15.4531 L74.0273,15.4531 M71.2344,14.0156 L72.8984,14.0156 L72.8984,19.6094 C72.8984,19.763 72.9219,19.8822 72.9688,19.9668 C73.0156,20.0514 73.0814,20.1107 73.166,20.1445 C73.2507,20.1784 73.349,20.1953 73.4609,20.1953 C73.5391,20.1953 73.6172,20.1882 73.6953,20.1738 C73.7734,20.1595 73.8333,20.1484 73.875,20.1406 L74.1367,21.3789 C74.0534,21.4049 73.9362,21.4355 73.7852,21.4707 C73.6341,21.5059 73.4505,21.5273 73.2344,21.5352 C72.8333,21.5508 72.4824,21.4974 72.1816,21.375 C71.8809,21.2526 71.6471,21.0625 71.4805,20.8047 C71.3138,20.5469 71.2318,20.2214 71.2344,19.8281 L71.2344,14.0156"/>
</g>

<g fill="#ffffff" fill-opacity="1" stroke="none" transform="matrix(1,0,0,1,0,0)"
font-family="Inter" font-size="11" font-weight="700" font-style="normal" 
>
<path vector-effect="none" fill-rule="nonzero" d="M164.777,15.9531 L164.777,17.2031 L161.164,17.2031 L161.164,15.9531 L164.777,15.9531 M161.984,14.5156 L163.648,14.5156 L163.648,20.1094 C163.648,20.263 163.672,20.3822 163.719,20.4668 C163.766,20.5514 163.831,20.6107 163.916,20.6445 C164.001,20.6784 164.099,20.6953 164.211,20.6953 C164.289,20.6953 164.367,20.6882 164.445,20.6738 C164.523,20.6595 164.583,20.6484 164.625,20.6406 L164.887,21.8789 C164.803,21.9049 164.686,21.9355 164.535,21.9707 C164.384,22.0059 164.201,22.0273 163.984,22.0352 C163.583,22.0508 163.232,21.9974 162.932,21.875 C162.631,21.7526 162.397,21.5625 162.23,21.3047 C162.064,21.0469 161.982,20.7214 161.984,20.3281 L161.984,14.5156 M165.852,21.9531 L165.852,15.9531 L167.516,15.9531 L167.516,21.9531 L165.852,21.9531 M166.688,15.1797 C166.44,15.1797 166.229,15.097 166.053,14.9316 C165.877,14.7663 165.789,14.5677 165.789,14.3359 C165.789,14.1068 165.877,13.9095 166.053,13.7441 C166.229,13.5788 166.44,13.4961 166.688,13.4961 C166.935,13.4961 167.146,13.5788 167.322,13.7441 C167.498,13.9095 167.586,14.1068 167.586,14.3359 C167.586,14.5677 167.498,14.7663 167.322,14.9316 C167.146,15.097 166.935,15.1797 166.688,15.1797 M170.5,13.9531 L170.5,21.9531 L168.836,21.9531 L168.836,13.9531 L170.5,13.9531 M175.012,15.9531 L175.012,17.2031 L171.398,17.2031 L171.398,15.9531 L175.012,15.9531 M172.219,14.5156 L173.883,14.5156 L173.883,20.1094 C173.883,20.263 173.906,20.3822 173.953,20.4668 C174,20.5514 174.066,20.6107 174.15,20.6445 C174.235,20.6784 174.333,20.6953 174.445,20.6953 C174.523,20.6953 174.602,20.6882 174.68,20.6738 C174.758,20.6595 174.818,20.6484 174.859,20.6406 L175.121,21.8789 C175.038,21.9049 174.921,21.9355 174.77,21.9707 C174.618,22.0059 174.435,22.0273 174.219,22.0352 C173.818,22.0508 173.467,21.9974 173.166,21.875 C172.865,21.7526 172.632,21.5625 172.465,21.3047 C172.298,21.0469 172.216,20.7214 172.219,20.3281 L172.219,14.5156 M181.344,22.0703 C180.737,22.0703 180.213,21.9408 179.771,21.6816 C179.33,21.4225 178.99,21.0605 178.75,20.5957 C178.51,20.1309 178.391,19.5911 178.391,18.9766 C178.391,18.3568 178.51,17.8145 178.75,17.3496 C178.99,16.8848 179.33,16.5228 179.771,16.2637 C180.213,16.0046 180.737,15.875 181.344,15.875 C181.951,15.875 182.475,16.0046 182.916,16.2637 C183.357,16.5228 183.698,16.8848 183.938,17.3496 C184.177,17.8145 184.297,18.3568 184.297,18.9766 C184.297,19.5911 184.177,20.1309 183.938,20.5957 C183.698,21.0605 183.357,21.4225 182.916,21.6816 C182.475,21.9408 181.951,22.0703 181.344,22.0703 M181.352,20.7813 C181.628,20.7813 181.858,20.7025 182.043,20.5449 C182.228,20.3874 182.368,20.1719 182.463,19.8984 C182.558,19.625 182.605,19.3138 182.605,18.9648 C182.605,18.6159 182.558,18.3047 182.463,18.0313 C182.368,17.7578 182.228,17.5417 182.043,17.3828 C181.858,17.224 181.628,17.1445 181.352,17.1445 C181.073,17.1445 180.839,17.224 180.65,17.3828 C180.462,17.5417 180.32,17.7578 180.225,18.0313 C180.13,18.3047 180.082,18.6159 180.082,18.9648 C180.082,19.3138 180.13,19.625 180.225,19.8984 C180.32,20.1719 180.462,20.3874 180.65,20.5449 C180.839,20.7025 181.073,20.7813 181.352,20.7813 M185.383,21.9531 L185.383,15.9531 L186.996,15.9531 L186.996,17 L187.059,17 C187.168,16.6276 187.352,16.3457 187.609,16.1543 C187.867,15.9629 188.164,15.8672 188.5,15.8672 C188.583,15.8672 188.673,15.8724 188.77,15.8828 C188.866,15.8932 188.951,15.9076 189.023,15.9258 L189.023,17.4023 C188.945,17.3789 188.837,17.3581 188.699,17.3398 C188.561,17.3216 188.435,17.3125 188.32,17.3125 C188.076,17.3125 187.857,17.3652 187.666,17.4707 C187.475,17.5762 187.324,17.7227 187.213,17.9102 C187.102,18.0977 187.047,18.3138 187.047,18.5586 L187.047,21.9531 L185.383,21.9531 M189.867,21.9531 L189.867,15.9531 L191.531,15.9531 L191.531,21.9531 L189.867,21.9531 M190.703,15.1797 C190.456,15.1797 190.244,15.097 190.068,14.9316 C189.893,14.7663 189.805,14.5677 189.805,14.3359 C189.805,14.1068 189.893,13.9095 190.068,13.7441 C190.244,13.5788 190.456,13.4961 190.703,13.4961 C190.951,13.4961 191.162,13.5788 191.338,13.7441 C191.514,13.9095 191.602,14.1068 191.602,14.3359 C191.602,14.5677 191.514,14.7663 191.338,14.9316 C191.162,15.097 190.951,15.1797 190.703,15.1797 M195.586,22.0703 C194.969,22.0703 194.438,21.9447 193.994,21.6934 C193.55,21.4421 193.208,21.0853 192.969,20.623 C192.729,20.1608 192.609,19.6133 192.609,18.9805 C192.609,18.3633 192.729,17.8216 192.969,17.3555 C193.208,16.8893 193.546,16.526 193.982,16.2656 C194.419,16.0052 194.931,15.875 195.52,15.875 C195.915,15.875 196.285,15.9382 196.627,16.0645 C196.969,16.1908 197.269,16.3802 197.525,16.6328 C197.782,16.8854 197.982,17.2025 198.125,17.584 C198.268,17.9655 198.34,18.4115 198.34,18.9219 L198.34,19.3789 L193.273,19.3789 L193.273,18.3477 L196.773,18.3477 C196.773,18.1081 196.721,17.8958 196.617,17.7109 C196.513,17.526 196.369,17.3809 196.186,17.2754 C196.002,17.1699 195.789,17.1172 195.547,17.1172 C195.294,17.1172 195.071,17.1751 194.877,17.291 C194.683,17.4069 194.531,17.5618 194.422,17.7559 C194.313,17.9499 194.257,18.1654 194.254,18.4023 L194.254,19.3828 C194.254,19.6797 194.309,19.9362 194.42,20.1523 C194.531,20.3685 194.688,20.5352 194.891,20.6523 C195.094,20.7695 195.335,20.8281 195.613,20.8281 C195.798,20.8281 195.967,20.8021 196.121,20.75 C196.275,20.6979 196.406,20.6198 196.516,20.5156 C196.625,20.4115 196.708,20.2839 196.766,20.1328 L198.305,20.2344 C198.227,20.6042 198.067,20.9264 197.826,21.2012 C197.585,21.4759 197.275,21.6895 196.896,21.8418 C196.518,21.9941 196.081,22.0703 195.586,22.0703 M201.078,18.4844 L201.078,21.9531 L199.414,21.9531 L199.414,15.9531 L201,15.9531 L201,17.0117 L201.07,17.0117 C201.203,16.6628 201.426,16.3861 201.738,16.1816 C202.051,15.9772 202.43,15.875 202.875,15.875 C203.292,15.875 203.655,15.9661 203.965,16.1484 C204.275,16.3307 204.516,16.5905 204.688,16.9277 C204.859,17.265 204.945,17.6667 204.945,18.1328 L204.945,21.9531 L203.281,21.9531 L203.281,18.4297 C203.284,18.0625 203.19,17.7754 203,17.5684 C202.81,17.3613 202.548,17.2578 202.215,17.2578 C201.991,17.2578 201.794,17.306 201.623,17.4023 C201.452,17.4987 201.32,17.6387 201.225,17.8223 C201.13,18.0059 201.081,18.2266 201.078,18.4844 M209.434,15.9531 L209.434,17.2031 L205.82,17.2031 L205.82,15.9531 L209.434,15.9531 M206.641,14.5156 L208.305,14.5156 L208.305,20.1094 C208.305,20.263 208.328,20.3822 208.375,20.4668 C208.422,20.5514 208.488,20.6107 208.572,20.6445 C208.657,20.6784 208.755,20.6953 208.867,20.6953 C208.945,20.6953 209.023,20.6882 209.102,20.6738 C209.18,20.6595 209.24,20.6484 209.281,20.6406 L209.543,21.8789 C209.46,21.9049 209.342,21.9355 209.191,21.9707 C209.04,22.0059 208.857,22.0273 208.641,22.0352 C208.24,22.0508 207.889,21.9974 207.588,21.875 C207.287,21.7526 207.053,21.5625 206.887,21.3047 C206.72,21.0469 206.638,20.7214 206.641,20.3281 L206.641,14.5156 M212.219,22.0664 C211.836,22.0664 211.495,21.9993 211.195,21.8652 C210.896,21.7311 210.66,21.5319 210.486,21.2676 C210.313,21.0033 210.227,20.6732 210.227,20.2773 C210.227,19.944 210.288,19.6641 210.41,19.4375 C210.533,19.2109 210.699,19.0286 210.91,18.8906 C211.121,18.7526 211.361,18.6484 211.631,18.5781 C211.9,18.5078 212.184,18.4583 212.48,18.4297 C212.829,18.3932 213.111,18.3587 213.324,18.3262 C213.538,18.2936 213.693,18.2448 213.789,18.1797 C213.885,18.1146 213.934,18.0182 213.934,17.8906 L213.934,17.8672 C213.934,17.6198 213.856,17.4284 213.701,17.293 C213.546,17.1576 213.327,17.0898 213.043,17.0898 C212.743,17.0898 212.505,17.1556 212.328,17.2871 C212.151,17.4186 212.034,17.5833 211.977,17.7813 L210.438,17.6563 C210.516,17.2917 210.669,16.9759 210.898,16.709 C211.128,16.4421 211.424,16.2363 211.787,16.0918 C212.15,15.9473 212.572,15.875 213.051,15.875 C213.384,15.875 213.704,15.9141 214.01,15.9922 C214.316,16.0703 214.588,16.1914 214.826,16.3555 C215.064,16.5195 215.253,16.7298 215.391,16.9863 C215.529,17.2428 215.598,17.5495 215.598,17.9063 L215.598,21.9531 L214.02,21.9531 L214.02,21.1211 L213.973,21.1211 C213.876,21.3086 213.747,21.4733 213.586,21.6152 C213.424,21.7572 213.23,21.8678 213.004,21.9473 C212.777,22.0267 212.516,22.0664 212.219,22.0664 M212.695,20.918 C212.94,20.918 213.156,20.8691 213.344,20.7715 C213.531,20.6738 213.678,20.5417 213.785,20.375 C213.892,20.2083 213.945,20.0195 213.945,19.8086 L213.945,19.1719 C213.893,19.2057 213.822,19.2363 213.732,19.2637 C213.643,19.291 213.542,19.3158 213.43,19.3379 C213.318,19.36 213.206,19.3796 213.094,19.3965 C212.982,19.4134 212.88,19.4284 212.789,19.4414 C212.594,19.4701 212.423,19.5156 212.277,19.5781 C212.132,19.6406 212.018,19.7246 211.938,19.8301 C211.857,19.9355 211.816,20.0664 211.816,20.2227 C211.816,20.4492 211.899,20.6217 212.064,20.7402 C212.23,20.8587 212.44,20.918 212.695,20.918 M220.074,15.9531 L220.074,17.2031 L216.461,17.2031 L216.461,15.9531 L220.074,15.9531 M217.281,14.5156 L218.945,14.5156 L218.945,20.1094 C218.945,20.263 218.969,20.3822 219.016,20.4668 C219.063,20.5514 219.128,20.6107 219.213,20.6445 C219.298,20.6784 219.396,20.6953 219.508,20.6953 C219.586,20.6953 219.664,20.6882 219.742,20.6738 C219.82,20.6595 219.88,20.6484 219.922,20.6406 L220.184,21.8789 C220.1,21.9049 219.983,21.9355 219.832,21.9707 C219.681,22.0059 219.497,22.0273 219.281,22.0352 C218.88,22.0508 218.529,21.9974 218.229,21.875 C217.928,21.7526 217.694,21.5625 217.527,21.3047 C217.361,21.0469 217.279,20.7214 217.281,20.3281 L217.281,14.5156 M221.148,21.9531 L221.148,15.9531 L222.813,15.9531 L222.813,21.9531 L221.148,21.9531 M221.984,15.1797 C221.737,15.1797 221.525,15.097 221.35,14.9316 C221.174,14.7663 221.086,14.5677 221.086,14.3359 C221.086,14.1068 221.174,13.9095 221.35,13.7441 C221.525,13.5788 221.737,13.4961 221.984,13.4961 C222.232,13.4961 222.443,13.5788 222.619,13.7441 C222.795,13.9095 222.883,14.1068 222.883,14.3359 C222.883,14.5677 222.795,14.7663 222.619,14.9316 C222.443,15.097 222.232,15.1797 221.984,15.1797 M226.844,22.0703 C226.237,22.0703 225.713,21.9408 225.271,21.6816 C224.83,21.4225 224.49,21.0605 224.25,20.5957 C224.01,20.1309 223.891,19.5911 223.891,18.9766 C223.891,18.3568 224.01,17.8145 224.25,17.3496 C224.49,16.8848 224.83,16.5228 225.271,16.2637 C225.713,16.0046 226.237,15.875 226.844,15.875 C227.451,15.875 227.975,16.0046 228.416,16.2637 C228.857,16.5228 229.198,16.8848 229.438,17.3496 C229.677,17.8145 229.797,18.3568 229.797,18.9766 C229.797,19.5911 229.677,20.1309 229.438,20.5957 C229.198,21.0605 228.857,21.4225 228.416,21.6816 C227.975,21.9408 227.451,22.0703 226.844,22.0703 M226.852,20.7813 C227.128,20.7813 227.358,20.7025 227.543,20.5449 C227.728,20.3874 227.868,20.1719 227.963,19.8984 C228.058,19.625 228.105,19.3138 228.105,18.9648 C228.105,18.6159 228.058,18.3047 227.963,18.0313 C227.868,17.7578 227.728,17.5417 227.543,17.3828 C227.358,17.224 227.128,17.1445 226.852,17.1445 C226.573,17.1445 226.339,17.224 226.15,17.3828 C225.962,17.5417 225.82,17.7578 225.725,18.0313 C225.63,18.3047 225.582,18.6159 225.582,18.9648 C225.582,19.3138 225.63,19.625 225.725,19.8984 C225.82,20.1719 225.962,20.3874 226.15,20.5449 C226.339,20.7025 226.573,20.7813 226.852,20.7813 M232.547,18.4844 L232.547,21.9531 L230.883,21.9531 L230.883,15.9531 L232.469,15.9531 L232.469,17.0117 L232.539,17.0117 C232.672,16.6628 232.895,16.3861 233.207,16.1816 C233.52,15.9772 233.898,15.875 234.344,15.875 C234.76,15.875 235.124,15.9661 235.434,16.1484 C235.743,16.3307 235.984,16.5905 236.156,16.9277 C236.328,17.265 236.414,17.6667 236.414,18.1328 L236.414,21.9531 L234.75,21.9531 L234.75,18.4297 C234.753,18.0625 234.659,17.7754 234.469,17.5684 C234.279,17.3613 234.017,17.2578 233.684,17.2578 C233.46,17.2578 233.262,17.306 233.092,17.4023 C232.921,17.4987 232.788,17.6387 232.693,17.8223 C232.598,18.0059 232.549,18.2266 232.547,18.4844 M243.449,15.9531 L243.449,17.2031 L239.836,17.2031 L239.836,15.9531 L243.449,15.9531 M240.656,14.5156 L242.32,14.5156 L242.32,20.1094 C242.32,20.263 242.344,20.3822 242.391,20.4668 C242.438,20.5514 242.503,20.6107 242.588,20.6445 C242.673,20.6784 242.771,20.6953 242.883,20.6953 C242.961,20.6953 243.039,20.6882 243.117,20.6738 C243.195,20.6595 243.255,20.6484 243.297,20.6406 L243.559,21.8789 C243.475,21.9049 243.358,21.9355 243.207,21.9707 C243.056,22.0059 242.872,22.0273 242.656,22.0352 C242.255,22.0508 241.904,21.9974 241.604,21.875 C241.303,21.7526 241.069,21.5625 240.902,21.3047 C240.736,21.0469 240.654,20.7214 240.656,20.3281 L240.656,14.5156 M247.172,22.0703 C246.565,22.0703 246.041,21.9408 245.6,21.6816 C245.158,21.4225 244.818,21.0605 244.578,20.5957 C244.339,20.1309 244.219,19.5911 244.219,18.9766 C244.219,18.3568 244.339,17.8145 244.578,17.3496 C244.818,16.8848 245.158,16.5228 245.6,16.2637 C246.041,16.0046 246.565,15.875 247.172,15.875 C247.779,15.875 248.303,16.0046 248.744,16.2637 C249.186,16.5228 249.526,16.8848 249.766,17.3496 C250.005,17.8145 250.125,18.3568 250.125,18.9766 C250.125,19.5911 250.005,20.1309 249.766,20.5957 C249.526,21.0605 249.186,21.4225 248.744,21.6816 C248.303,21.9408 247.779,22.0703 247.172,22.0703 M247.18,20.7813 C247.456,20.7813 247.686,20.7025 247.871,20.5449 C248.056,20.3874 248.196,20.1719 248.291,19.8984 C248.386,19.625 248.434,19.3138 248.434,18.9648 C248.434,18.6159 248.386,18.3047 248.291,18.0313 C248.196,17.7578 248.056,17.5417 247.871,17.3828 C247.686,17.224 247.456,17.1445 247.18,17.1445 C246.901,17.1445 246.667,17.224 246.479,17.3828 C246.29,17.5417 246.148,17.7578 246.053,18.0313 C245.958,18.3047 245.91,18.6159 245.91,18.9648 C245.91,19.3138 245.958,19.625 246.053,19.8984 C246.148,20.1719 246.29,20.3874 246.479,20.5449 C246.667,20.7025 246.901,20.7813 247.18,20.7813 "/>
</g>

<g fill="#ffffff" fill-opacity="1" stroke="none" transform="matrix(0.228,0,0,0.228,11.6,9.6)"
font-family="Inter" font-size="11" font-weight="700" font-style="normal" 
>
<path vector-effect="none" fill-rule="nonzero" d="M23.3682,15.995 C21.89,15.995 20.7001,17.185 20.7001,18.6631 L20.7001,81.3343 C20.7001,82.8125 21.89,84.0024 23.3682,84.0024 L76.6077,84.0024 C78.0859,84.0024 79.2758,82.8125 79.2758,81.3343 L79.2758,18.6631 C79.2758,17.185 78.0859,15.995 76.6077,15.995 L50.8905,15.995 C51.6703,16.0444 52.2838,16.6869 52.2838,17.4796 L52.2838,26.9112 C52.2838,27.7362 51.6196,28.4004 50.7946,28.4004 L49.3054,28.4004 C48.4804,28.4004 47.8161,27.7362 47.8161,26.9112 L47.8161,17.4796 C47.8161,16.6869 48.4298,16.0443 49.2096,15.995 L23.3682,15.995 M46.7613,35.2087 L53.2146,35.2087 C53.9021,35.2087 54.4556,35.7622 54.4556,36.4497 L54.4556,42.903 C54.4556,43.5906 53.9021,44.1439 53.2146,44.1439 L46.7613,44.1439 C46.0738,44.1439 45.5202,43.5906 45.5202,42.903 L45.5202,36.4497 C45.5202,35.7622 46.0738,35.2087 46.7613,35.2087 "/>
</g>

<g fill="none" stroke="#000000" stroke-opacity="1" stroke-width="2.43854" stroke-linecap="butt" stroke-linejoin="miter" stroke-miterlimit="4" transform="matrix(0.228,0,0,0.228,11.6,9.6)"
font-family="Inter" font-size="11" font-weight="700" font-style="normal" 
>
<path vector-effect="none" fill-rule="nonzero" d="M23.3682,15.995 C21.89,15.995 20.7001,17.185 20.7001,18.6631 L20.7001,81.3343 C20.7001,82.8125 21.89,84.0024 23.3682,84.0024 L76.6077,84.0024 C78.0859,84.0024 79.2758,82.8125 79.2758,81.3343 L79.2758,18.6631 C79.2758,17.185 78.0859,15.995 76.6077,15.995 L50.8905,15.995 C51.6703,16.0444 52.2838,16.6869 52.2838,17.4796 L52.2838,26.9112 C52.2838,27.7362 51.6196,28.4004 50.7946,28.4004 L49.3054,28.4004 C48.4804,28.4004 47.8161,27.7362 47.8161,26.9112 L47.8161,17.4796 C47.8161,16.6869 48.4298,16.0443 49.2096,15.995 L23.3682,15.995 M46.7613,35.2087 L53.2146,35.2087 C53.9021,35.2087 54.4556,35.7622 54.4556,36.4497 L54.4556,42.903 C54.4556,43.5906 53.9021,44.1439 53.2146,44.1439 L46.7613,44.1439 C46.0738,44.1439 45.5202,43.5906 45.5202,42.903 L45.5202,36.4497 C45.5202,35.7622 46.0738,35.2087 46.7613,35.2087 "/>
</g>

<g fill="#000000" fill-opacity="1" stroke="none" transform="matrix(0.228,0,0,0.228,11.6,9.6)"
font-family="Inter" font-size="11" font-weight="700" font-style="normal" 
>
<path vector-effect="none" fill-rule="evenodd" d="M14.2421,17.9523 C14.2421,17.1298 14.9088,16.4631 15.7313,16.4631 L18.7097,16.4631 C19.5322,16.4631 20.1989,17.1298 20.1989,17.9523 L20.1989,33.8372 C20.1989,34.6597 19.5322,35.3264 18.7097,35.3264 L15.7313,35.3264 C14.9088,35.3264 14.2421,34.6597 14.2421,33.8372 L14.2421,17.9523"/>
</g>

<g fill="none" stroke="#000000" stroke-opacity="1" stroke-width="2.43854" stroke-linecap="butt" stroke-linejoin="miter" stroke-miterlimit="4" transform="matrix(0.228,0,0,0.228,11.6,9.6)"
font-family="Inter" font-size="11" font-weight="700" font-style="normal" 
>
<path vector-effect="none" fill-rule="evenodd" d="M14.2421,17.9523 C14.2421,17.1298 14.9088,16.4631 15.7313,16.4631 L18.7097,16.4631 C19.5322,16.4631 20.1989,17.1298 20.1989,17.9523 L20.1989,33.8372 C20.1989,34.6597 19.5322,35.3264 18.7097,35.3264 L15.7313,35.3264 C14.9088,35.3264 14.2421,34.6597 14.2421,33.8372 L14.2421,17.9523"/>
</g>

<g fill="#000000" fill-opacity="1" stroke="none" transform="matrix(0.228,0,0,0.228,11.6,9.6)"
font-family="Inter" font-size="11" font-weight="700" font-style="normal" 
>
<path vector-effect="none" fill-rule="evenodd" d="M79.3249,17.4662 C79.3249,16.6438 79.9916,15.977 80.8141,15.977 L83.7925,15.977 C84.615,15.977 85.2817,16.6438 85.2817,17.4662 L85.2817,33.3512 C85.2817,34.1736 84.615,34.8404 83.7925,34.8404 L80.8141,34.8404 C79.9916,34.8404 79.3249,34.1736 79.3249,33.3512 L79.3249,17.4662"/>
</g>

<g fill="none" stroke="#000000" stroke-opacity="1" stroke-width="2.43854" stroke-linecap="butt" stroke-linejoin="miter" stroke-miterlimit="4" transform="matrix(0.228,0,0,0.228,11.6,9.6)"
font-family="Inter" font-size="11" font-weight="700" font-style="normal" 
>
<path vector-effect="none" fill-rule="evenodd" d="M79.3249,17.4662 C79.3249,16.6438 79.9916,15.977 80.8141,15.977 L83.7925,15.977 C84.615,15.977 85.2817,16.6438 85.2817,17.4662 L85.2817,33.3512 C85.2817,34.1736 84.615,34.8404 83.7925,34.8404 L80.8141,34.8404 C79.9916,34.8404 79.3249,34.1736 79.3249,33.3512 L79.3249,17.4662"/>
</g>

<g fill="#000000" fill-opacity="1" stroke="none" transform="matrix(0.228,0,0,0.228,11.6,9.6)"
font-family="Inter" font-size="11" font-weight="700" font-style="normal" 
>
<path vector-effect="none" fill-rule="evenodd" d="M79.5633,66.576 C79.5633,65.7535 80.23,65.0868 81.0525,65.0868 L84.0309,65.0868 C84.8534,65.0868 85.5201,65.7535 85.5201,66.576 L85.5201,82.4609 C85.5201,83.2834 84.8534,83.9501 84.0309,83.9501 L81.0525,83.9501 C80.23,83.9501 79.5633,83.2834 79.5633,82.4609 L79.5633,66.576"/>
</g>

<g fill="none" stroke="#000000" stroke-opacity="1" stroke-width="2.43854" stroke-linecap="butt" stroke-linejoin="miter" stroke-miterlimit="4" transform="matrix(0.228,0,0,0.228,11.6,9.6)"
font-family="Inter" font-size="11" font-weight="700" font-style="normal" 
>
<path vector-effect="none" fill-rule="evenodd" d="M79.5633,66.576 C79.5633,65.7535 80.23,65.0868 81.0525,65.0868 L84.0309,65.0868 C84.8534,65.0868 85.5201,65.7535 85.5201,66.576 L85.5201,82.4609 C85.5201,83.2834 84.8534,83.9501 84.0309,83.9501 L81.0525,83.9501 C80.23,83.9501 79.5633,83.2834 79.5633,82.4609 L79.5633,66.576"/>
</g>

<g fill="#000000" fill-opacity="1" stroke="none" transform="matrix(0.228,0,0,0.228,11.6,9.6)"
font-family="Inter" font-size="11" font-weight="700" font-style="normal" 
>
<path vector-effect="none" fill-rule="evenodd" d="M14.6928,66.6283 C14.6928,65.8058 15.3595,65.1391 16.182,65.1391 L19.1604,65.1391 C19.9829,65.1391 20.6496,65.8058 20.6496,66.6283 L20.6496,82.5132 C20.6496,83.3357 19.9829,84.0024 19.1604,84.0024 L16.182,84.0024 C15.3595,84.0024 14.6928,83.3357 14.6928,82.5132 L14.6928,66.6283"/>
</g>

<g fill="none" stroke="#000000" stroke-opacity="1" stroke-width="2.43854" stroke-linecap="butt" stroke-linejoin="miter" stroke-miterlimit="4" transform="matrix(0.228,0,0,0.228,11.6,9.6)"
font-family="Inter" font-size="11" font-weight="700" font-style="normal" 
>
<path vector-effect="none" fill-rule="evenodd" d="M14.6928,66.6283 C14.6928,65.8058 15.3595,65.1391 16.182,65.1391 L19.1604,65.1391 C19.9829,65.1391 20.6496,65.8058 20.6496,66.6283 L20.6496,82.5132 C20.6496,83.3357 19.9829,84.0024 19.1604,84.0024 L16.182,84.0024 C15.3595,84.0024 14.6928,83.3357 14.6928,82.5132 L14.6928,66.6283"/>
</g>

<g fill="none" stroke="#000000" stroke-opacity="1" stroke-width="2.43854" stroke-linecap="butt" stroke-linejoin="miter" stroke-miterlimit="4" transform="matrix(0.228,0,0,0.228,11.6,9.6)"
font-family="Inter" font-size="11" font-weight="700" font-style="normal" 
>
<path vector-effect="none" fill-rule="evenodd" d="M20.92,17.503 C20.92,16.6806 21.5867,16.0138 22.4092,16.0138 L27.125,16.0138 C27.9475,16.0138 28.6142,16.6806 28.6142,17.503 L28.6142,55.9743 C28.6142,56.7968 27.9475,57.4635 27.125,57.4635 L22.4092,57.4635 C21.5867,57.4635 20.92,56.7968 20.92,55.9743 L20.92,17.503"/>
</g>

<g fill="none" stroke="#000000" stroke-opacity="1" stroke-width="2.43854" stroke-linecap="butt" stroke-linejoin="miter" stroke-miterlimit="4" transform="matrix(0.228,0,0,0.228,11.6,9.6)"
font-family="Inter" font-size="11" font-weight="700" font-style="normal" 
>
<path vector-effect="none" fill-rule="evenodd" d="M71.4269,17.6638 C71.4269,16.8414 72.0937,16.1746 72.9162,16.1746 L77.632,16.1746 C78.4545,16.1746 79.1212,16.8414 79.1212,17.6638 L79.1212,56.1351 C79.1212,56.9576 78.4545,57.6243 77.632,57.6243 L72.9162,57.6243 C72.0937,57.6243 71.4269,56.9576 71.4269,56.1351 L71.4269,17.6638"/>
</g>

<g fill="#ffffff" fill-opacity="1" stroke="none" transform="matrix(0.228,0,0,0.228,11.6,9.6)"
font-family="Inter" font-size="11" font-weight="700" font-style="normal" 
>
<path vector-effect="none" fill-rule="evenodd" d="M41.9526,15.9757 C41.9526,15.9593 41.9659,15.9461 41.9822,15.9461 L57.922,15.9461 C57.9384,15.9461 57.9516,15.9593 57.9516,15.9757 C57.9516,15.992 57.9384,16.0053 57.922,16.0053 L41.9822,16.0053 C41.9659,16.0053 41.9526,15.992 41.9526,15.9757 "/>
</g>

<g fill="none" stroke="#000000" stroke-opacity="1" stroke-width="2.3865" stroke-linecap="butt" stroke-linejoin="miter" stroke-miterlimit="4" transform="matrix(0.228,0,0,0.228,11.6,9.6)"
font-family="Inter" font-size="11" font-weight="700" font-style="normal" 
>
<path vector-effect="none" fill-rule="evenodd" d="M41.9526,15.9757 C41.9526,15.9593 41.9659,15.9461 41.9822,15.9461 L57.922,15.9461 C57.9384,15.9461 57.9516,15.9593 57.9516,15.9757 C57.9516,15.992 57.9384,16.0053 57.922,16.0053 L41.9822,16.0053 C41.9659,16.0053 41.9526,15.992 41.9526,15.9757 "/>
</g>

<g fill="#ffffff" fill-opacity="1" stroke="none" transform="matrix(1,0,0,1,0,0)"
font-family="Inter" font-size="11" font-weight="700" font-style="normal" 
>
</g>

<g fill="#ffffff" fill-opacity="1" stroke="#0da6c5" stroke-opacity="1" stroke-width="1" stroke-linecap="square" stroke-linejoin="bevel" transform="matrix(1,0,0,1,0,0)"
font-family="Inter" font-size="11" font-weight="700" font-style="normal" 
>
<polyline fill="none" vector-effect="none" points="45,11 45,31 " />
</g>

<g fill="#ffffff" fill-opacity="1" stroke="#0da6c5" stroke-opacity="1" stroke-width="1" stroke-linecap="square" stroke-linejoin="bevel" transform="matrix(1,0,0,1,0,0)"
font-family="Inter" font-size="11" font-weight="700" font-style="normal" 
>
</g>

<g fill="#ffffff" fill-opacity="1" stroke="#0da6c5" stroke-opacity="1" stroke-width="1" stroke-linecap="square" stroke-linejoin="bevel" transform="matrix(1,0,0,1,0,0)"
font-family="Inter" font-size="11" font-weight="700" font-style="normal" 
>
</g>

<g fill="#1dccf0" fill-opacity="1" stroke="#0da6c5" stroke-opacity="1" stroke-width="1.2" stroke-linecap="square" stroke-linejoin="bevel" transform="matrix(1,0,0,1,80,6)"
font-family="Inter" font-size="11" font-weight="700" font-style="normal" 
>
<path vector-effect="none" fill-rule="evenodd" d="M0.5,3.5 C0.5,1.84315 1.84315,0.5 3.5,0.5 L71.5,0.5 C73.1569,0.5 74.5,1.84315 74.5,3.5 L74.5,20.5 C74.5,22.1569 73.1569,23.5 71.5,23.5 L3.5,23.5 C1.84315,23.5 0.5,22.1569 0.5,20.5 L0.5,3.5"/>
</g>

<g fill="#ffffff" fill-opacity="1" stroke="none" transform="matrix(1,0,0,1,80,6)"
font-family="Inter" font-size="11" font-weight="700" font-style="normal" 
>
<path vector-effect="none" fill-rule="nonzero" d="M10,9.39453 L10,8 L16.5703,8 L16.5703,9.39453 L14.1211,9.39453 L14.1211,16 L12.4492,16 L12.4492,9.39453 L10,9.39453 M17.6484,16 L17.6484,8 L19.3398,8 L19.3398,11.3008 L22.7734,11.3008 L22.7734,8 L24.4609,8 L24.4609,16 L22.7734,16 L22.7734,12.6953 L19.3398,12.6953 L19.3398,16 L17.6484,16 M32.543,8 L32.543,16 L31.082,16 L27.6016,10.9648 L27.543,10.9648 L27.543,16 L25.8516,16 L25.8516,8 L27.3359,8 L30.7891,13.0313 L30.8594,13.0313 L30.8594,8 L32.543,8 M33.9297,16 L33.9297,8 L35.6211,8 L35.6211,11.3008 L39.0547,11.3008 L39.0547,8 L40.7422,8 L40.7422,16 L39.0547,16 L39.0547,12.6953 L35.6211,12.6953 L35.6211,16 L33.9297,16 M42.1328,16 L42.1328,8 L45.3359,8 C45.9245,8 46.4154,8.08724 46.8086,8.26172 C47.2018,8.4362 47.4974,8.67773 47.6953,8.98633 C47.8932,9.29492 47.9922,9.64974 47.9922,10.0508 C47.9922,10.3633 47.9297,10.6374 47.8047,10.873 C47.6797,11.1087 47.5085,11.3014 47.291,11.4512 C47.0736,11.6009 46.8255,11.707 46.5469,11.7695 L46.5469,11.8477 C46.8516,11.8607 47.1374,11.9466 47.4043,12.1055 C47.6712,12.2643 47.888,12.4863 48.0547,12.7715 C48.2214,13.0566 48.3047,13.3958 48.3047,13.7891 C48.3047,14.2135 48.1999,14.5918 47.9902,14.9238 C47.7806,15.2559 47.4714,15.5182 47.0625,15.7109 C46.6536,15.9036 46.1497,16 45.5508,16 L42.1328,16 M43.8242,14.6172 L45.2031,14.6172 C45.6745,14.6172 46.0182,14.5267 46.2344,14.3457 C46.4505,14.1647 46.5586,13.9232 46.5586,13.6211 C46.5586,13.3997 46.5052,13.2044 46.3984,13.0352 C46.2917,12.8659 46.14,12.7331 45.9434,12.6367 C45.7467,12.5404 45.513,12.4922 45.2422,12.4922 L43.8242,12.4922 L43.8242,14.6172 M43.8242,11.3477 L45.0781,11.3477 C45.3099,11.3477 45.5163,11.3066 45.6973,11.2246 C45.8783,11.1426 46.0215,11.026 46.127,10.875 C46.2324,10.724 46.2852,10.543 46.2852,10.332 C46.2852,10.043 46.1829,9.8099 45.9785,9.63281 C45.7741,9.45573 45.4844,9.36719 45.1094,9.36719 L43.8242,9.36719 L43.8242,11.3477 M52.832,8 L52.832,16 L51.1406,16 L51.1406,9.60547 L51.0938,9.60547 L49.2617,10.7539 L49.2617,9.25391 L51.2422,8 L52.832,8"/>
</g>

<g fill="#ffffff" fill-opacity="1" stroke="none" transform="matrix(0.03125,0,0,0.03125,141,14)"
font-family="Inter" font-size="11" font-weight="700" font-style="normal" 
>
<path vector-effect="none" fill-rule="nonzero" d="M111.326,191.938 C120.545,201.158 135.517,201.158 144.737,191.938 L239.144,97.5313 C245.929,90.7458 247.921,80.6413 244.233,71.7907 C240.545,62.9401 231.989,57.1871 222.401,57.1871 L33.5875,57.2608 C24.0731,57.2608 15.4437,63.0137 11.7559,71.8644 C8.06815,80.715 10.1333,90.8195 16.845,97.605 L111.252,192.012 L111.326,191.938"/>
</g>

<g fill="none" stroke="#000000" stroke-opacity="1" stroke-width="13.7195" stroke-linecap="butt" stroke-linejoin="miter" stroke-miterlimit="4" transform="matrix(0.03125,0,0,0.03125,141,14)"
font-family="Inter" font-size="11" font-weight="700" font-style="normal" 
>
<path vector-effect="none" fill-rule="nonzero" d="M111.326,191.938 C120.545,201.158 135.517,201.158 144.737,191.938 L239.144,97.5313 C245.929,90.7458 247.921,80.6413 244.233,71.7907 C240.545,62.9401 231.989,57.1871 222.401,57.1871 L33.5875,57.2608 C24.0731,57.2608 15.4437,63.0137 11.7559,71.8644 C8.06815,80.715 10.1333,90.8195 16.845,97.605 L111.252,192.012 L111.326,191.938"/>
</g>

<g fill="#ffffff" fill-opacity="1" stroke="none" transform="matrix(1,0,0,1,80,6)"
font-family="Inter" font-size="11" font-weight="700" font-style="normal" 
>
</g>

<g fill="#ffffff" fill-opacity="1" stroke="#0da6c5" stroke-opacity="1" stroke-width="1" stroke-linecap="square" stroke-linejoin="bevel" transform="matrix(1,0,0,1,0,0)"
font-family="Inter" font-size="11" font-weight="700" font-style="normal" 
>
</g>

<g fill="#1dccf0" fill-opacity="1" stroke="#0da6c5" stroke-opacity="1" stroke-width="1.2" stroke-linecap="square" stroke-linejoin="bevel" transform="matrix(1,0,0,1,257,6)"
font-family="Inter" font-size="11" font-weight="700" font-style="normal" 
>
<path vector-effect="none" fill-rule="evenodd" d="M0.5,3.5 C0.5,1.84315 1.84315,0.5 3.5,0.5 L56,0.5 C57.6569,0.5 59,1.84315 59,3.5 L59,20.5 C59,22.1569 57.6569,23.5 56,23.5 L3.5,23.5 C1.84315,23.5 0.5,22.1569 0.5,20.5 L0.5,3.5"/>
</g>

<g fill="#ffffff" fill-opacity="1" stroke="none" transform="matrix(1,0,0,1,257,6)"
font-family="Inter" font-size="11" font-weight="700" font-style="normal" 
>
<path vector-effect="none" fill-rule="nonzero" d="M9.50781,15.7344 L9.50781,7.73438 L14.8047,7.73438 L14.8047,9.12891 L11.1992,9.12891 L11.1992,11.0352 L14.4531,11.0352 L14.4531,12.4297 L11.1992,12.4297 L11.1992,15.7344 L9.50781,15.7344 M15.8047,15.7344 L15.8047,9.73438 L17.418,9.73438 L17.418,10.7813 L17.4805,10.7813 C17.5898,10.4089 17.7734,10.127 18.0313,9.93555 C18.2891,9.74414 18.5859,9.64844 18.9219,9.64844 C19.0052,9.64844 19.0951,9.65365 19.1914,9.66406 C19.2878,9.67448 19.3724,9.6888 19.4453,9.70703 L19.4453,11.1836 C19.3672,11.1602 19.2591,11.1393 19.1211,11.1211 C18.9831,11.1029 18.8568,11.0938 18.7422,11.0938 C18.4974,11.0938 18.2793,11.1465 18.0879,11.252 C17.8965,11.3574 17.7454,11.5039 17.6348,11.6914 C17.5241,11.8789 17.4688,12.0951 17.4688,12.3398 L17.4688,15.7344 L15.8047,15.7344 M22.7188,15.8516 C22.112,15.8516 21.5879,15.722 21.1465,15.4629 C20.7051,15.2038 20.3646,14.8418 20.125,14.377 C19.8854,13.9121 19.7656,13.3724 19.7656,12.7578 C19.7656,12.138 19.8854,11.5957 20.125,11.1309 C20.3646,10.666 20.7051,10.304 21.1465,10.0449 C21.5879,9.78581 22.112,9.65625 22.7188,9.65625 C23.3255,9.65625 23.8496,9.78581 24.291,10.0449 C24.7324,10.304 25.0729,10.666 25.3125,11.1309 C25.5521,11.5957 25.6719,12.138 25.6719,12.7578 C25.6719,13.3724 25.5521,13.9121 25.3125,14.377 C25.0729,14.8418 24.7324,15.2038 24.291,15.4629 C23.8496,15.722 23.3255,15.8516 22.7188,15.8516 M22.7266,14.5625 C23.0026,14.5625 23.2331,14.4837 23.418,14.3262 C23.6029,14.1686 23.7428,13.9531 23.8379,13.6797 C23.9329,13.4063 23.9805,13.0951 23.9805,12.7461 C23.9805,12.3971 23.9329,12.0859 23.8379,11.8125 C23.7428,11.5391 23.6029,11.3229 23.418,11.1641 C23.2331,11.0052 23.0026,10.9258 22.7266,10.9258 C22.4479,10.9258 22.2142,11.0052 22.0254,11.1641 C21.8366,11.3229 21.6947,11.5391 21.5996,11.8125 C21.5046,12.0859 21.457,12.3971 21.457,12.7461 C21.457,13.0951 21.5046,13.4063 21.5996,13.6797 C21.6947,13.9531 21.8366,14.1686 22.0254,14.3262 C22.2142,14.4837 22.4479,14.5625 22.7266,14.5625 M28.4219,12.2656 L28.4219,15.7344 L26.7578,15.7344 L26.7578,9.73438 L28.3438,9.73438 L28.3438,10.793 L28.4141,10.793 C28.5469,10.444 28.7695,10.1673 29.082,9.96289 C29.3945,9.75846 29.7734,9.65625 30.2188,9.65625 C30.6354,9.65625 30.9987,9.7474 31.3086,9.92969 C31.6185,10.112 31.8594,10.3717 32.0313,10.709 C32.2031,11.0462 32.2891,11.4479 32.2891,11.9141 L32.2891,15.7344 L30.625,15.7344 L30.625,12.2109 C30.6276,11.8438 30.5339,11.5566 30.3438,11.3496 C30.1536,11.1426 29.8919,11.0391 29.5586,11.0391 C29.3346,11.0391 29.1374,11.0872 28.9668,11.1836 C28.7962,11.2799 28.6634,11.4199 28.5684,11.6035 C28.4733,11.7871 28.4245,12.0078 28.4219,12.2656 M36.7773,9.73438 L36.7773,10.9844 L33.1641,10.9844 L33.1641,9.73438 L36.7773,9.73438 M33.9844,8.29688 L35.6484,8.29688 L35.6484,13.8906 C35.6484,14.0443 35.6719,14.1634 35.7188,14.248 C35.7656,14.3327 35.8314,14.3919 35.916,14.4258 C36.0007,14.4596 36.099,14.4766 36.2109,14.4766 C36.2891,14.4766 36.3672,14.4694 36.4453,14.4551 C36.5234,14.4408 36.5833,14.4297 36.625,14.4219 L36.8867,15.6602 C36.8034,15.6862 36.6862,15.7168 36.5352,15.752 C36.3841,15.7871 36.2005,15.8086 35.9844,15.8164 C35.5833,15.832 35.2324,15.7786 34.9316,15.6563 C34.6309,15.5339 34.3971,15.3438 34.2305,15.0859 C34.0638,14.8281 33.9818,14.5026 33.9844,14.1094 L33.9844,8.29688"/>
</g>

<g fill="#ffffff" fill-opacity="1" stroke="none" transform="matrix(0.03125,0,0,0.03125,302.5,14)"
font-family="Inter" font-size="11" font-weight="700" font-style="normal" 
>
<path vector-effect="none" fill-rule="nonzero" d="M111.326,191.938 C120.545,201.158 135.517,201.158 144.737,191.938 L239.144,97.5313 C245.929,90.7458 247.921,80.6413 244.233,71.7907 C240.545,62.9401 231.989,57.1871 222.401,57.1871 L33.5875,57.2608 C24.0731,57.2608 15.4437,63.0137 11.7559,71.8644 C8.06815,80.715 10.1333,90.8195 16.845,97.605 L111.252,192.012 L111.326,191.938"/>
</g>

<g fill="none" stroke="#000000" stroke-opacity="1" stroke-width="13.7195" stroke-linecap="butt" stroke-linejoin="miter" stroke-miterlimit="4" transform="matrix(0.03125,0,0,0.03125,302.5,14)"
font-family="Inter" font-size="11" font-weight="700" font-style="normal" 
>
<path vector-effect="none" fill-rule="nonzero" d="M111.326,191.938 C120.545,201.158 135.517,201.158 144.737,191.938 L239.144,97.5313 C245.929,90.7458 247.921,80.6413 244.233,71.7907 C240.545,62.9401 231.989,57.1871 222.401,57.1871 L33.5875,57.2608 C24.0731,57.2608 15.4437,63.0137 11.7559,71.8644 C8.06815,80.715 10.1333,90.8195 16.845,97.605 L111.252,192.012 L111.326,191.938"/>
</g>

<g fill="#ffffff" fill-opacity="1" stroke="none" transform="matrix(1,0,0,1,257,6)"
font-family="Inter" font-size="11" font-weight="700" font-style="normal" 
>
</g>

<g fill="#ffffff" fill-opacity="1" stroke="#0da6c5" stroke-opacity="1" stroke-width="1" stroke-linecap="square" stroke-linejoin="bevel" transform="matrix(1,0,0,1,0,0)"
font-family="Inter" font-size="11" font-weight="700" font-style="normal" 
>
</g>

<g fill="none" stroke="#000000" stroke-opacity="1" stroke-width="1" stroke-linecap="square" stroke-linejoin="bevel" transform="matrix(1,0,0,1,0,0)"
font-family=".AppleSystemUIFont" font-size="13" font-weight="400" font-style="normal" 
>
</g>
</g>
</svg>
